<svg xmlns="http://www.w3.org/2000/svg" width="800" height="400" viewBox="0 0 800 400">
<defs>
  <style>text { font-family: -apple-system, BlinkMacSystemFont, 'Segoe UI', Roboto, sans-serif; }</style>
  <linearGradient id="g2" x1="0" y1="0" x2="0" y2="1">
  <stop offset="0%" stop-color="#4F8EF7" stop-opacity="0.25"/>
  <stop offset="100%" stop-color="#4F8EF7" stop-opacity="0"/>
</linearGradient>
<linearGradient id="g3" x1="0" y1="0" x2="0" y2="1">
  <stop offset="0%" stop-color="#BF5AF2" stop-opacity="0.25"/>
  <stop offset="100%" stop-color="#BF5AF2" stop-opacity="0"/>
</linearGradient>
  <clipPath id="ca"><rect x="72" y="45" width="698" height="295"/></clipPath>
</defs>
<rect width="800" height="400" fill="#ffffff" rx="12"/>
<text x="400" y="26" text-anchor="middle" font-size="15" font-weight="600" fill="#111827">Community Growth Over Time</text>
<line x1="72" y1="340.0" x2="770" y2="340.0" stroke="#f3f4f6" stroke-width="1"/>
<text x="66" y="344.0" text-anchor="end" font-size="11" fill="#6b7280">909</text>
<line x1="72" y1="281.0" x2="770" y2="281.0" stroke="#f3f4f6" stroke-width="1"/>
<text x="66" y="285.0" text-anchor="end" font-size="11" fill="#6b7280">1.1k</text>
<line x1="72" y1="222.0" x2="770" y2="222.0" stroke="#f3f4f6" stroke-width="1"/>
<text x="66" y="226.0" text-anchor="end" font-size="11" fill="#6b7280">1.3k</text>
<line x1="72" y1="163.0" x2="770" y2="163.0" stroke="#f3f4f6" stroke-width="1"/>
<text x="66" y="167.0" text-anchor="end" font-size="11" fill="#6b7280">1.5k</text>
<line x1="72" y1="104.0" x2="770" y2="104.0" stroke="#f3f4f6" stroke-width="1"/>
<text x="66" y="108.0" text-anchor="end" font-size="11" fill="#6b7280">1.7k</text>
<line x1="72" y1="45.0" x2="770" y2="45.0" stroke="#f3f4f6" stroke-width="1"/>
<text x="66" y="49.0" text-anchor="end" font-size="11" fill="#6b7280">1.9k</text>
<text x="72.0" y="358.0" text-anchor="middle" font-size="11" fill="#6b7280">Dec 11</text>
<text x="207.7" y="358.0" text-anchor="middle" font-size="11" fill="#6b7280">Jan 5</text>
<text x="353.1" y="358.0" text-anchor="middle" font-size="11" fill="#6b7280">Jan 23</text>
<text x="488.9" y="358.0" text-anchor="middle" font-size="11" fill="#6b7280">Feb 6</text>
<text x="634.3" y="358.0" text-anchor="middle" font-size="11" fill="#6b7280">Feb 21</text>
<text x="770.0" y="358.0" text-anchor="middle" font-size="11" fill="#6b7280">Mar 6</text>
<line x1="72" y1="45" x2="72" y2="340" stroke="#e5e7eb" stroke-width="1"/>
<line x1="72" y1="340" x2="770" y2="340" stroke="#e5e7eb" stroke-width="1"/>
<text x="-192.5" y="18" text-anchor="middle" font-size="12" fill="#6b7280" transform="rotate(-90)">People</text>
<path d="M 72.0,340 L 72.0,117.8 L 81.7,117.8 L 91.4,117.8 L 101.1,116.9 L 110.8,116.9 L 120.5,116.2 L 130.2,115.9 L 139.9,116.2 L 149.6,115.3 L 159.3,115.3 L 168.9,115.3 L 178.6,115.3 L 188.3,115.3 L 198.0,115.3 L 207.7,115.3 L 217.4,115.3 L 227.1,115.0 L 236.8,114.1 L 246.5,112.2 L 256.2,111.2 L 265.9,110.9 L 275.6,110.9 L 285.3,110.0 L 295.0,107.8 L 304.7,106.5 L 314.4,106.5 L 324.1,105.0 L 333.8,104.3 L 343.4,103.1 L 353.1,102.2 L 362.8,101.2 L 372.5,100.3 L 382.2,100.3 L 391.9,98.1 L 401.6,96.8 L 411.3,96.8 L 421.0,95.6 L 430.7,94.9 L 440.4,94.6 L 450.1,94.3 L 459.8,94.3 L 469.5,93.4 L 479.2,89.6 L 488.9,87.4 L 498.6,86.2 L 508.3,85.9 L 517.9,85.2 L 527.6,84.0 L 537.3,83.4 L 547.0,82.7 L 556.7,82.1 L 566.4,81.5 L 576.1,80.9 L 585.8,80.9 L 595.5,77.7 L 605.2,77.7 L 614.9,77.4 L 624.6,77.1 L 634.3,76.5 L 644.0,76.5 L 653.7,74.9 L 663.4,73.0 L 673.1,72.4 L 682.8,73.0 L 692.4,72.7 L 702.1,72.4 L 711.8,72.4 L 721.5,71.8 L 731.2,70.5 L 740.9,70.2 L 750.6,69.9 L 760.3,69.6 L 770.0,69.6 L 770.0,340 Z" fill="url(#g2)" clip-path="url(#ca)"/>
<path d="M 72.0,117.8 L 81.7,117.8 L 91.4,117.8 L 101.1,116.9 L 110.8,116.9 L 120.5,116.2 L 130.2,115.9 L 139.9,116.2 L 149.6,115.3 L 159.3,115.3 L 168.9,115.3 L 178.6,115.3 L 188.3,115.3 L 198.0,115.3 L 207.7,115.3 L 217.4,115.3 L 227.1,115.0 L 236.8,114.1 L 246.5,112.2 L 256.2,111.2 L 265.9,110.9 L 275.6,110.9 L 285.3,110.0 L 295.0,107.8 L 304.7,106.5 L 314.4,106.5 L 324.1,105.0 L 333.8,104.3 L 343.4,103.1 L 353.1,102.2 L 362.8,101.2 L 372.5,100.3 L 382.2,100.3 L 391.9,98.1 L 401.6,96.8 L 411.3,96.8 L 421.0,95.6 L 430.7,94.9 L 440.4,94.6 L 450.1,94.3 L 459.8,94.3 L 469.5,93.4 L 479.2,89.6 L 488.9,87.4 L 498.6,86.2 L 508.3,85.9 L 517.9,85.2 L 527.6,84.0 L 537.3,83.4 L 547.0,82.7 L 556.7,82.1 L 566.4,81.5 L 576.1,80.9 L 585.8,80.9 L 595.5,77.7 L 605.2,77.7 L 614.9,77.4 L 624.6,77.1 L 634.3,76.5 L 644.0,76.5 L 653.7,74.9 L 663.4,73.0 L 673.1,72.4 L 682.8,73.0 L 692.4,72.7 L 702.1,72.4 L 711.8,72.4 L 721.5,71.8 L 731.2,70.5 L 740.9,70.2 L 750.6,69.9 L 760.3,69.6 L 770.0,69.6" fill="none" stroke="#4F8EF7" stroke-width="2.5" stroke-linejoin="round" clip-path="url(#ca)"/>
<path d="M 72.0,340 L 72.0,315.4 L 81.7,314.5 L 91.4,314.5 L 101.1,314.5 L 110.8,314.2 L 120.5,313.5 L 130.2,313.2 L 139.9,312.9 L 149.6,312.9 L 159.3,312.6 L 168.9,312.3 L 178.6,312.3 L 188.3,312.3 L 198.0,312.3 L 207.7,312.3 L 217.4,312.3 L 227.1,311.7 L 236.8,311.7 L 246.5,311.7 L 256.2,310.4 L 265.9,310.1 L 275.6,309.5 L 285.3,308.2 L 295.0,307.9 L 304.7,307.9 L 314.4,307.9 L 324.1,307.0 L 333.8,306.3 L 343.4,306.3 L 353.1,305.7 L 362.8,305.4 L 372.5,304.8 L 382.2,304.8 L 391.9,304.5 L 401.6,303.2 L 411.3,302.3 L 421.0,301.6 L 430.7,301.3 L 440.4,301.3 L 450.1,301.0 L 459.8,300.4 L 469.5,300.4 L 479.2,300.1 L 488.9,299.1 L 498.6,298.5 L 508.3,298.5 L 517.9,298.5 L 527.6,298.5 L 537.3,298.2 L 547.0,297.3 L 556.7,296.6 L 566.4,296.3 L 576.1,296.0 L 585.8,295.7 L 595.5,295.4 L 605.2,295.1 L 614.9,294.7 L 624.6,293.8 L 634.3,293.5 L 644.0,293.2 L 653.7,291.9 L 663.4,290.7 L 673.1,290.7 L 682.8,290.4 L 692.4,290.1 L 702.1,290.1 L 711.8,290.1 L 721.5,289.4 L 731.2,289.4 L 740.9,287.5 L 750.6,287.5 L 760.3,287.5 L 770.0,287.5 L 770.0,340 Z" fill="url(#g3)" clip-path="url(#ca)"/>
<path d="M 72.0,315.4 L 81.7,314.5 L 91.4,314.5 L 101.1,314.5 L 110.8,314.2 L 120.5,313.5 L 130.2,313.2 L 139.9,312.9 L 149.6,312.9 L 159.3,312.6 L 168.9,312.3 L 178.6,312.3 L 188.3,312.3 L 198.0,312.3 L 207.7,312.3 L 217.4,312.3 L 227.1,311.7 L 236.8,311.7 L 246.5,311.7 L 256.2,310.4 L 265.9,310.1 L 275.6,309.5 L 285.3,308.2 L 295.0,307.9 L 304.7,307.9 L 314.4,307.9 L 324.1,307.0 L 333.8,306.3 L 343.4,306.3 L 353.1,305.7 L 362.8,305.4 L 372.5,304.8 L 382.2,304.8 L 391.9,304.5 L 401.6,303.2 L 411.3,302.3 L 421.0,301.6 L 430.7,301.3 L 440.4,301.3 L 450.1,301.0 L 459.8,300.4 L 469.5,300.4 L 479.2,300.1 L 488.9,299.1 L 498.6,298.5 L 508.3,298.5 L 517.9,298.5 L 527.6,298.5 L 537.3,298.2 L 547.0,297.3 L 556.7,296.6 L 566.4,296.3 L 576.1,296.0 L 585.8,295.7 L 595.5,295.4 L 605.2,295.1 L 614.9,294.7 L 624.6,293.8 L 634.3,293.5 L 644.0,293.2 L 653.7,291.9 L 663.4,290.7 L 673.1,290.7 L 682.8,290.4 L 692.4,290.1 L 702.1,290.1 L 711.8,290.1 L 721.5,289.4 L 731.2,289.4 L 740.9,287.5 L 750.6,287.5 L 760.3,287.5 L 770.0,287.5" fill="none" stroke="#BF5AF2" stroke-width="2.5" stroke-linejoin="round" clip-path="url(#ca)"/>
<rect x="281" y="369" width="12" height="12" fill="#4F8EF7" rx="2"/>
<text x="297" y="379" font-size="12" fill="#111827">Authors</text>
<rect x="421" y="369" width="12" height="12" fill="#BF5AF2" rx="2"/>
<text x="437" y="379" font-size="12" fill="#111827">Contributors</text>
</svg>