<svg xmlns="http://www.w3.org/2000/svg" width="800" height="400" viewBox="0 0 800 400">
<defs>
  <style>text { font-family: -apple-system, BlinkMacSystemFont, 'Segoe UI', Roboto, sans-serif; }</style>
  <linearGradient id="g5" x1="0" y1="0" x2="0" y2="1">
  <stop offset="0%" stop-color="#34C759" stop-opacity="0.25"/>
  <stop offset="100%" stop-color="#34C759" stop-opacity="0"/>
</linearGradient>
<linearGradient id="g6" x1="0" y1="0" x2="0" y2="1">
  <stop offset="0%" stop-color="#4F8EF7" stop-opacity="0.25"/>
  <stop offset="100%" stop-color="#4F8EF7" stop-opacity="0"/>
</linearGradient>
<linearGradient id="g7" x1="0" y1="0" x2="0" y2="1">
  <stop offset="0%" stop-color="#FF6363" stop-opacity="0.25"/>
  <stop offset="100%" stop-color="#FF6363" stop-opacity="0"/>
</linearGradient>
  <clipPath id="ca"><rect x="72" y="45" width="698" height="295"/></clipPath>
</defs>
<rect width="800" height="400" fill="#ffffff" rx="12"/>
<text x="400" y="26" text-anchor="middle" font-size="15" font-weight="600" fill="#111827">Platform Support Over Time</text>
<line x1="72" y1="340.0" x2="770" y2="340.0" stroke="#f3f4f6" stroke-width="1"/>
<text x="66" y="344.0" text-anchor="end" font-size="11" fill="#6b7280">0</text>
<line x1="72" y1="281.0" x2="770" y2="281.0" stroke="#f3f4f6" stroke-width="1"/>
<text x="66" y="285.0" text-anchor="end" font-size="11" fill="#6b7280">200</text>
<line x1="72" y1="222.0" x2="770" y2="222.0" stroke="#f3f4f6" stroke-width="1"/>
<text x="66" y="226.0" text-anchor="end" font-size="11" fill="#6b7280">400</text>
<line x1="72" y1="163.0" x2="770" y2="163.0" stroke="#f3f4f6" stroke-width="1"/>
<text x="66" y="167.0" text-anchor="end" font-size="11" fill="#6b7280">600</text>
<line x1="72" y1="104.0" x2="770" y2="104.0" stroke="#f3f4f6" stroke-width="1"/>
<text x="66" y="108.0" text-anchor="end" font-size="11" fill="#6b7280">800</text>
<line x1="72" y1="45.0" x2="770" y2="45.0" stroke="#f3f4f6" stroke-width="1"/>
<text x="66" y="49.0" text-anchor="end" font-size="11" fill="#6b7280">1.0k</text>
<line x1="135.0" y1="45" x2="135.0" y2="340" stroke="#e5e7eb" stroke-width="1" stroke-dasharray="3,3" clip-path="url(#ca)"/>
<line x1="271.4" y1="45" x2="271.4" y2="340" stroke="#e5e7eb" stroke-width="1" stroke-dasharray="3,3" clip-path="url(#ca)"/>
<line x1="413.1" y1="45" x2="413.1" y2="340" stroke="#e5e7eb" stroke-width="1" stroke-dasharray="3,3" clip-path="url(#ca)"/>
<line x1="554.8" y1="45" x2="554.8" y2="340" stroke="#e5e7eb" stroke-width="1" stroke-dasharray="3,3" clip-path="url(#ca)"/>
<line x1="696.5" y1="45" x2="696.5" y2="340" stroke="#e5e7eb" stroke-width="1" stroke-dasharray="3,3" clip-path="url(#ca)"/>
<text x="72.0" y="358.0" text-anchor="middle" font-size="11" fill="#6b7280">Dec 11</text>
<text x="213.7" y="358.0" text-anchor="middle" font-size="11" fill="#6b7280">Jan 21</text>
<text x="350.2" y="358.0" text-anchor="middle" font-size="11" fill="#6b7280">Feb 16</text>
<text x="491.8" y="358.0" text-anchor="middle" font-size="11" fill="#6b7280">Mar 17</text>
<text x="628.3" y="358.0" text-anchor="middle" font-size="11" fill="#6b7280">Apr 16</text>
<text x="770.0" y="358.0" text-anchor="middle" font-size="11" fill="#6b7280">May 20</text>
<line x1="72" y1="45" x2="72" y2="340" stroke="#e5e7eb" stroke-width="1"/>
<line x1="72" y1="340" x2="770" y2="340" stroke="#e5e7eb" stroke-width="1"/>
<text x="-192.5" y="18" text-anchor="middle" font-size="12" fill="#6b7280" transform="rotate(-90)">Extensions</text>
<path d="M 72.0,340 L 72.0,242.6 L 77.2,240.0 L 82.5,239.7 L 87.7,238.5 L 93.0,237.9 L 98.2,235.0 L 103.5,233.2 L 108.7,232.3 L 114.0,230.8 L 119.2,229.1 L 124.5,228.2 L 129.7,227.9 L 135.0,227.0 L 140.2,226.4 L 145.5,226.1 L 150.7,225.2 L 156.0,224.4 L 161.2,223.5 L 166.5,222.6 L 171.7,221.4 L 177.0,220.5 L 182.2,219.6 L 187.5,218.8 L 192.7,217.0 L 198.0,216.4 L 203.2,216.4 L 208.5,214.3 L 213.7,213.7 L 218.9,213.2 L 224.2,212.6 L 229.4,211.1 L 234.7,209.0 L 239.9,208.7 L 245.2,208.4 L 250.4,206.7 L 255.7,206.1 L 260.9,204.6 L 266.2,204.3 L 271.4,204.0 L 276.7,203.4 L 281.9,203.4 L 287.2,203.4 L 292.4,199.3 L 297.7,199.0 L 302.9,198.1 L 308.2,197.8 L 313.4,197.5 L 318.7,196.6 L 323.9,196.0 L 329.2,195.4 L 334.4,193.7 L 339.7,193.7 L 344.9,193.7 L 350.2,193.4 L 355.4,190.4 L 360.6,189.6 L 365.9,189.0 L 371.1,188.1 L 376.4,187.5 L 381.6,187.5 L 386.9,186.0 L 392.1,183.9 L 397.4,183.4 L 402.6,183.1 L 407.9,182.2 L 413.1,182.2 L 418.4,181.6 L 423.6,180.7 L 428.9,180.1 L 434.1,178.9 L 439.4,177.8 L 444.6,177.5 L 449.9,177.5 L 455.1,176.3 L 460.4,176.3 L 465.6,176.3 L 470.9,174.5 L 476.1,174.2 L 481.4,173.9 L 486.6,173.9 L 491.8,173.6 L 497.1,172.4 L 502.3,171.9 L 507.6,171.0 L 512.8,171.0 L 518.1,170.7 L 523.3,169.5 L 528.6,168.6 L 533.8,168.6 L 539.1,168.3 L 544.3,167.7 L 549.6,165.7 L 554.8,165.1 L 560.1,164.2 L 565.3,164.2 L 570.6,163.6 L 575.8,163.3 L 581.1,163.0 L 586.3,162.7 L 591.6,162.4 L 596.8,162.4 L 602.1,162.1 L 607.3,161.8 L 612.6,160.9 L 617.8,159.8 L 623.1,159.5 L 628.3,158.6 L 633.5,158.6 L 638.8,157.4 L 644.0,157.1 L 649.3,157.1 L 654.5,157.1 L 659.8,156.2 L 665.0,155.9 L 670.3,155.9 L 675.5,155.9 L 680.8,155.6 L 686.0,154.4 L 691.3,154.2 L 696.5,153.3 L 701.8,152.7 L 707.0,152.7 L 712.3,151.8 L 717.5,151.2 L 722.8,151.2 L 728.0,150.9 L 733.3,149.4 L 738.5,148.0 L 743.8,147.7 L 749.0,147.1 L 754.3,145.9 L 759.5,145.9 L 764.8,145.3 L 770.0,143.8 L 770.0,340 Z" fill="url(#g5)" clip-path="url(#ca)"/>
<path d="M 72.0,242.6 L 77.2,240.0 L 82.5,239.7 L 87.7,238.5 L 93.0,237.9 L 98.2,235.0 L 103.5,233.2 L 108.7,232.3 L 114.0,230.8 L 119.2,229.1 L 124.5,228.2 L 129.7,227.9 L 135.0,227.0 L 140.2,226.4 L 145.5,226.1 L 150.7,225.2 L 156.0,224.4 L 161.2,223.5 L 166.5,222.6 L 171.7,221.4 L 177.0,220.5 L 182.2,219.6 L 187.5,218.8 L 192.7,217.0 L 198.0,216.4 L 203.2,216.4 L 208.5,214.3 L 213.7,213.7 L 218.9,213.2 L 224.2,212.6 L 229.4,211.1 L 234.7,209.0 L 239.9,208.7 L 245.2,208.4 L 250.4,206.7 L 255.7,206.1 L 260.9,204.6 L 266.2,204.3 L 271.4,204.0 L 276.7,203.4 L 281.9,203.4 L 287.2,203.4 L 292.4,199.3 L 297.7,199.0 L 302.9,198.1 L 308.2,197.8 L 313.4,197.5 L 318.7,196.6 L 323.9,196.0 L 329.2,195.4 L 334.4,193.7 L 339.7,193.7 L 344.9,193.7 L 350.2,193.4 L 355.4,190.4 L 360.6,189.6 L 365.9,189.0 L 371.1,188.1 L 376.4,187.5 L 381.6,187.5 L 386.9,186.0 L 392.1,183.9 L 397.4,183.4 L 402.6,183.1 L 407.9,182.2 L 413.1,182.2 L 418.4,181.6 L 423.6,180.7 L 428.9,180.1 L 434.1,178.9 L 439.4,177.8 L 444.6,177.5 L 449.9,177.5 L 455.1,176.3 L 460.4,176.3 L 465.6,176.3 L 470.9,174.5 L 476.1,174.2 L 481.4,173.9 L 486.6,173.9 L 491.8,173.6 L 497.1,172.4 L 502.3,171.9 L 507.6,171.0 L 512.8,171.0 L 518.1,170.7 L 523.3,169.5 L 528.6,168.6 L 533.8,168.6 L 539.1,168.3 L 544.3,167.7 L 549.6,165.7 L 554.8,165.1 L 560.1,164.2 L 565.3,164.2 L 570.6,163.6 L 575.8,163.3 L 581.1,163.0 L 586.3,162.7 L 591.6,162.4 L 596.8,162.4 L 602.1,162.1 L 607.3,161.8 L 612.6,160.9 L 617.8,159.8 L 623.1,159.5 L 628.3,158.6 L 633.5,158.6 L 638.8,157.4 L 644.0,157.1 L 649.3,157.1 L 654.5,157.1 L 659.8,156.2 L 665.0,155.9 L 670.3,155.9 L 675.5,155.9 L 680.8,155.6 L 686.0,154.4 L 691.3,154.2 L 696.5,153.3 L 701.8,152.7 L 707.0,152.7 L 712.3,151.8 L 717.5,151.2 L 722.8,151.2 L 728.0,150.9 L 733.3,149.4 L 738.5,148.0 L 743.8,147.7 L 749.0,147.1 L 754.3,145.9 L 759.5,145.9 L 764.8,145.3 L 770.0,143.8" fill="none" stroke="#34C759" stroke-width="2.5" stroke-linejoin="round" clip-path="url(#ca)"/>
<path d="M 72.0,340 L 72.0,222.6 L 77.2,222.6 L 82.5,222.3 L 87.7,221.4 L 93.0,221.7 L 98.2,221.7 L 103.5,220.5 L 108.7,219.6 L 114.0,219.6 L 119.2,219.9 L 124.5,219.6 L 129.7,219.3 L 135.0,219.1 L 140.2,219.1 L 145.5,219.1 L 150.7,219.3 L 156.0,218.8 L 161.2,218.2 L 166.5,216.4 L 171.7,215.2 L 177.0,215.2 L 182.2,214.9 L 187.5,213.2 L 192.7,210.5 L 198.0,209.6 L 203.2,209.0 L 208.5,207.0 L 213.7,205.5 L 218.9,204.9 L 224.2,204.3 L 229.4,203.7 L 234.7,203.4 L 239.9,203.4 L 245.2,201.3 L 250.4,200.8 L 255.7,200.2 L 260.9,200.2 L 266.2,198.7 L 271.4,198.4 L 276.7,197.5 L 281.9,196.3 L 287.2,194.9 L 292.4,192.8 L 297.7,190.7 L 302.9,190.4 L 308.2,189.8 L 313.4,189.3 L 318.7,187.5 L 323.9,187.5 L 329.2,186.9 L 334.4,186.0 L 339.7,185.4 L 344.9,184.2 L 350.2,184.5 L 355.4,181.0 L 360.6,180.7 L 365.9,180.4 L 371.1,179.8 L 376.4,178.0 L 381.6,178.0 L 386.9,176.3 L 392.1,174.2 L 397.4,174.2 L 402.6,174.2 L 407.9,173.9 L 413.1,173.6 L 418.4,173.3 L 423.6,171.9 L 428.9,170.1 L 434.1,169.5 L 439.4,168.3 L 444.6,168.3 L 449.9,167.4 L 455.1,165.7 L 460.4,164.8 L 465.6,164.5 L 470.9,162.4 L 476.1,162.1 L 481.4,162.1 L 486.6,161.8 L 491.8,161.8 L 497.1,160.3 L 502.3,159.8 L 507.6,158.9 L 512.8,158.6 L 518.1,158.0 L 523.3,155.6 L 528.6,152.4 L 533.8,152.1 L 539.1,151.5 L 544.3,151.2 L 549.6,149.7 L 554.8,118.5 L 560.1,117.9 L 565.3,116.4 L 570.6,116.4 L 575.8,116.4 L 581.1,116.7 L 586.3,116.4 L 591.6,114.6 L 596.8,114.0 L 602.1,113.7 L 607.3,113.4 L 612.6,112.3 L 617.8,110.5 L 623.1,110.5 L 628.3,110.5 L 633.5,110.2 L 638.8,109.9 L 644.0,109.9 L 649.3,109.3 L 654.5,108.4 L 659.8,106.9 L 665.0,106.4 L 670.3,106.1 L 675.5,106.1 L 680.8,105.8 L 686.0,105.2 L 691.3,104.9 L 696.5,103.4 L 701.8,103.4 L 707.0,102.8 L 712.3,101.6 L 717.5,100.2 L 722.8,99.9 L 728.0,99.6 L 733.3,96.9 L 738.5,96.3 L 743.8,95.7 L 749.0,95.7 L 754.3,94.6 L 759.5,94.0 L 764.8,92.5 L 770.0,91.9 L 770.0,340 Z" fill="url(#g6)" clip-path="url(#ca)"/>
<path d="M 72.0,222.6 L 77.2,222.6 L 82.5,222.3 L 87.7,221.4 L 93.0,221.7 L 98.2,221.7 L 103.5,220.5 L 108.7,219.6 L 114.0,219.6 L 119.2,219.9 L 124.5,219.6 L 129.7,219.3 L 135.0,219.1 L 140.2,219.1 L 145.5,219.1 L 150.7,219.3 L 156.0,218.8 L 161.2,218.2 L 166.5,216.4 L 171.7,215.2 L 177.0,215.2 L 182.2,214.9 L 187.5,213.2 L 192.7,210.5 L 198.0,209.6 L 203.2,209.0 L 208.5,207.0 L 213.7,205.5 L 218.9,204.9 L 224.2,204.3 L 229.4,203.7 L 234.7,203.4 L 239.9,203.4 L 245.2,201.3 L 250.4,200.8 L 255.7,200.2 L 260.9,200.2 L 266.2,198.7 L 271.4,198.4 L 276.7,197.5 L 281.9,196.3 L 287.2,194.9 L 292.4,192.8 L 297.7,190.7 L 302.9,190.4 L 308.2,189.8 L 313.4,189.3 L 318.7,187.5 L 323.9,187.5 L 329.2,186.9 L 334.4,186.0 L 339.7,185.4 L 344.9,184.2 L 350.2,184.5 L 355.4,181.0 L 360.6,180.7 L 365.9,180.4 L 371.1,179.8 L 376.4,178.0 L 381.6,178.0 L 386.9,176.3 L 392.1,174.2 L 397.4,174.2 L 402.6,174.2 L 407.9,173.9 L 413.1,173.6 L 418.4,173.3 L 423.6,171.9 L 428.9,170.1 L 434.1,169.5 L 439.4,168.3 L 444.6,168.3 L 449.9,167.4 L 455.1,165.7 L 460.4,164.8 L 465.6,164.5 L 470.9,162.4 L 476.1,162.1 L 481.4,162.1 L 486.6,161.8 L 491.8,161.8 L 497.1,160.3 L 502.3,159.8 L 507.6,158.9 L 512.8,158.6 L 518.1,158.0 L 523.3,155.6 L 528.6,152.4 L 533.8,152.1 L 539.1,151.5 L 544.3,151.2 L 549.6,149.7 L 554.8,118.5 L 560.1,117.9 L 565.3,116.4 L 570.6,116.4 L 575.8,116.4 L 581.1,116.7 L 586.3,116.4 L 591.6,114.6 L 596.8,114.0 L 602.1,113.7 L 607.3,113.4 L 612.6,112.3 L 617.8,110.5 L 623.1,110.5 L 628.3,110.5 L 633.5,110.2 L 638.8,109.9 L 644.0,109.9 L 649.3,109.3 L 654.5,108.4 L 659.8,106.9 L 665.0,106.4 L 670.3,106.1 L 675.5,106.1 L 680.8,105.8 L 686.0,105.2 L 691.3,104.9 L 696.5,103.4 L 701.8,103.4 L 707.0,102.8 L 712.3,101.6 L 717.5,100.2 L 722.8,99.9 L 728.0,99.6 L 733.3,96.9 L 738.5,96.3 L 743.8,95.7 L 749.0,95.7 L 754.3,94.6 L 759.5,94.0 L 764.8,92.5 L 770.0,91.9" fill="none" stroke="#4F8EF7" stroke-width="2.5" stroke-linejoin="round" clip-path="url(#ca)"/>
<path d="M 72.0,340 L 72.0,338.2 L 77.2,337.9 L 82.5,337.9 L 87.7,337.6 L 93.0,337.6 L 98.2,337.6 L 103.5,337.6 L 108.7,337.6 L 114.0,337.1 L 119.2,337.1 L 124.5,337.1 L 129.7,337.1 L 135.0,337.1 L 140.2,336.8 L 145.5,336.8 L 150.7,336.8 L 156.0,336.8 L 161.2,336.8 L 166.5,336.5 L 171.7,335.9 L 177.0,335.6 L 182.2,335.6 L 187.5,335.6 L 192.7,335.3 L 198.0,335.3 L 203.2,335.3 L 208.5,335.0 L 213.7,335.0 L 218.9,335.0 L 224.2,334.7 L 229.4,334.7 L 234.7,334.7 L 239.9,334.7 L 245.2,334.4 L 250.4,334.4 L 255.7,334.4 L 260.9,334.4 L 266.2,334.4 L 271.4,334.4 L 276.7,334.4 L 281.9,334.4 L 287.2,334.4 L 292.4,334.4 L 297.7,334.4 L 302.9,334.4 L 308.2,334.4 L 313.4,334.1 L 318.7,334.1 L 323.9,334.1 L 329.2,334.1 L 334.4,334.1 L 339.7,334.1 L 344.9,334.1 L 350.2,334.1 L 355.4,334.1 L 360.6,334.1 L 365.9,334.1 L 371.1,334.1 L 376.4,333.8 L 381.6,333.8 L 386.9,333.8 L 392.1,333.8 L 397.4,333.8 L 402.6,333.8 L 407.9,333.8 L 413.1,333.8 L 418.4,333.8 L 423.6,333.8 L 428.9,333.8 L 434.1,333.8 L 439.4,333.8 L 444.6,333.8 L 449.9,333.8 L 455.1,333.8 L 460.4,333.8 L 465.6,333.8 L 470.9,333.8 L 476.1,333.8 L 481.4,333.8 L 486.6,333.8 L 491.8,333.8 L 497.1,333.8 L 502.3,333.8 L 507.6,333.8 L 512.8,333.8 L 518.1,333.8 L 523.3,333.8 L 528.6,333.8 L 533.8,333.8 L 539.1,333.8 L 544.3,333.8 L 549.6,333.8 L 554.8,333.8 L 560.1,333.8 L 565.3,333.5 L 570.6,333.5 L 575.8,333.5 L 581.1,333.5 L 586.3,333.5 L 591.6,333.2 L 596.8,333.2 L 602.1,333.2 L 607.3,333.2 L 612.6,332.9 L 617.8,332.9 L 623.1,332.6 L 628.3,332.6 L 633.5,332.6 L 638.8,332.6 L 644.0,332.6 L 649.3,332.6 L 654.5,332.6 L 659.8,332.6 L 665.0,332.6 L 670.3,332.6 L 675.5,332.6 L 680.8,332.6 L 686.0,332.6 L 691.3,332.6 L 696.5,332.6 L 701.8,332.6 L 707.0,332.6 L 712.3,332.6 L 717.5,332.6 L 722.8,332.6 L 728.0,332.6 L 733.3,332.6 L 738.5,332.6 L 743.8,332.6 L 749.0,332.6 L 754.3,332.6 L 759.5,332.6 L 764.8,332.6 L 770.0,332.6 L 770.0,340 Z" fill="url(#g7)" clip-path="url(#ca)"/>
<path d="M 72.0,338.2 L 77.2,337.9 L 82.5,337.9 L 87.7,337.6 L 93.0,337.6 L 98.2,337.6 L 103.5,337.6 L 108.7,337.6 L 114.0,337.1 L 119.2,337.1 L 124.5,337.1 L 129.7,337.1 L 135.0,337.1 L 140.2,336.8 L 145.5,336.8 L 150.7,336.8 L 156.0,336.8 L 161.2,336.8 L 166.5,336.5 L 171.7,335.9 L 177.0,335.6 L 182.2,335.6 L 187.5,335.6 L 192.7,335.3 L 198.0,335.3 L 203.2,335.3 L 208.5,335.0 L 213.7,335.0 L 218.9,335.0 L 224.2,334.7 L 229.4,334.7 L 234.7,334.7 L 239.9,334.7 L 245.2,334.4 L 250.4,334.4 L 255.7,334.4 L 260.9,334.4 L 266.2,334.4 L 271.4,334.4 L 276.7,334.4 L 281.9,334.4 L 287.2,334.4 L 292.4,334.4 L 297.7,334.4 L 302.9,334.4 L 308.2,334.4 L 313.4,334.1 L 318.7,334.1 L 323.9,334.1 L 329.2,334.1 L 334.4,334.1 L 339.7,334.1 L 344.9,334.1 L 350.2,334.1 L 355.4,334.1 L 360.6,334.1 L 365.9,334.1 L 371.1,334.1 L 376.4,333.8 L 381.6,333.8 L 386.9,333.8 L 392.1,333.8 L 397.4,333.8 L 402.6,333.8 L 407.9,333.8 L 413.1,333.8 L 418.4,333.8 L 423.6,333.8 L 428.9,333.8 L 434.1,333.8 L 439.4,333.8 L 444.6,333.8 L 449.9,333.8 L 455.1,333.8 L 460.4,333.8 L 465.6,333.8 L 470.9,333.8 L 476.1,333.8 L 481.4,333.8 L 486.6,333.8 L 491.8,333.8 L 497.1,333.8 L 502.3,333.8 L 507.6,333.8 L 512.8,333.8 L 518.1,333.8 L 523.3,333.8 L 528.6,333.8 L 533.8,333.8 L 539.1,333.8 L 544.3,333.8 L 549.6,333.8 L 554.8,333.8 L 560.1,333.8 L 565.3,333.5 L 570.6,333.5 L 575.8,333.5 L 581.1,333.5 L 586.3,333.5 L 591.6,333.2 L 596.8,333.2 L 602.1,333.2 L 607.3,333.2 L 612.6,332.9 L 617.8,332.9 L 623.1,332.6 L 628.3,332.6 L 633.5,332.6 L 638.8,332.6 L 644.0,332.6 L 649.3,332.6 L 654.5,332.6 L 659.8,332.6 L 665.0,332.6 L 670.3,332.6 L 675.5,332.6 L 680.8,332.6 L 686.0,332.6 L 691.3,332.6 L 696.5,332.6 L 701.8,332.6 L 707.0,332.6 L 712.3,332.6 L 717.5,332.6 L 722.8,332.6 L 728.0,332.6 L 733.3,332.6 L 738.5,332.6 L 743.8,332.6 L 749.0,332.6 L 754.3,332.6 L 759.5,332.6 L 764.8,332.6 L 770.0,332.6" fill="none" stroke="#FF6363" stroke-width="2.5" stroke-linejoin="round" clip-path="url(#ca)"/>
<text x="100.9" y="55.0" text-anchor="middle" font-size="9" fill="#34C759" opacity="0.85" clip-path="url(#ca)">+15.2% (+50)</text>
<text x="100.9" y="66.0" text-anchor="middle" font-size="9" fill="#4F8EF7" opacity="0.85" clip-path="url(#ca)">+2.8% (+11)</text>
<text x="100.9" y="77.0" text-anchor="middle" font-size="9" fill="#FF6363" opacity="0.85" clip-path="url(#ca)">+66.7% (+4)</text>
<text x="200.6" y="55.0" text-anchor="middle" font-size="9" fill="#34C759" opacity="0.85" clip-path="url(#ca)">+20.1% (+77)</text>
<text x="200.6" y="66.0" text-anchor="middle" font-size="9" fill="#4F8EF7" opacity="0.85" clip-path="url(#ca)">+16.8% (+69)</text>
<text x="200.6" y="77.0" text-anchor="middle" font-size="9" fill="#FF6363" opacity="0.85" clip-path="url(#ca)">+90.0% (+9)</text>
<text x="339.7" y="55.0" text-anchor="middle" font-size="9" fill="#34C759" opacity="0.85" clip-path="url(#ca)">+16.1% (+74)</text>
<text x="339.7" y="66.0" text-anchor="middle" font-size="9" fill="#4F8EF7" opacity="0.85" clip-path="url(#ca)">+17.3% (+83)</text>
<text x="339.7" y="77.0" text-anchor="middle" font-size="9" fill="#FF6363" opacity="0.85" clip-path="url(#ca)">+10.5% (+2)</text>
<text x="481.4" y="55.0" text-anchor="middle" font-size="9" fill="#34C759" opacity="0.85" clip-path="url(#ca)">+10.5% (+56)</text>
<text x="481.4" y="66.0" text-anchor="middle" font-size="9" fill="#4F8EF7" opacity="0.85" clip-path="url(#ca)">+14.4% (+81)</text>
<text x="481.4" y="77.0" text-anchor="middle" font-size="9" fill="#FF6363" opacity="0.85" clip-path="url(#ca)">+0.0% (+0)</text>
<text x="623.1" y="55.0" text-anchor="middle" font-size="9" fill="#34C759" opacity="0.85" clip-path="url(#ca)">+6.2% (+37)</text>
<text x="623.1" y="66.0" text-anchor="middle" font-size="9" fill="#4F8EF7" opacity="0.85" clip-path="url(#ca)">+6.1% (+46)</text>
<text x="623.1" y="77.0" text-anchor="middle" font-size="9" fill="#FF6363" opacity="0.85" clip-path="url(#ca)">+19.0% (+4)</text>
<text x="733.3" y="55.0" text-anchor="middle" font-size="9" fill="#34C759" opacity="0.85" clip-path="url(#ca)">+5.1% (+32)</text>
<text x="733.3" y="66.0" text-anchor="middle" font-size="9" fill="#4F8EF7" opacity="0.85" clip-path="url(#ca)">+4.9% (+39)</text>
<text x="733.3" y="77.0" text-anchor="middle" font-size="9" fill="#FF6363" opacity="0.85" clip-path="url(#ca)">+0.0% (+0)</text>
<rect x="211" y="369" width="12" height="12" fill="#34C759" rx="2"/>
<text x="227" y="379" font-size="12" fill="#111827">macOS + Windows</text>
<rect x="351" y="369" width="12" height="12" fill="#4F8EF7" rx="2"/>
<text x="367" y="379" font-size="12" fill="#111827">macOS only</text>
<rect x="491" y="369" width="12" height="12" fill="#FF6363" rx="2"/>
<text x="507" y="379" font-size="12" fill="#111827">Windows only</text>
<text x="72" y="394" font-size="8" fill="#e5e7eb">data since Dec 11, 2025</text>
</svg>