<svg xmlns="http://www.w3.org/2000/svg" width="800" height="400" viewBox="0 0 800 400">
<defs>
  <style>text { font-family: -apple-system, BlinkMacSystemFont, 'Segoe UI', Roboto, sans-serif; }</style>
  <linearGradient id="g5" x1="0" y1="0" x2="0" y2="1">
  <stop offset="0%" stop-color="#34C759" stop-opacity="0.25"/>
  <stop offset="100%" stop-color="#34C759" stop-opacity="0"/>
</linearGradient>
<linearGradient id="g6" x1="0" y1="0" x2="0" y2="1">
  <stop offset="0%" stop-color="#4F8EF7" stop-opacity="0.25"/>
  <stop offset="100%" stop-color="#4F8EF7" stop-opacity="0"/>
</linearGradient>
<linearGradient id="g7" x1="0" y1="0" x2="0" y2="1">
  <stop offset="0%" stop-color="#FF6363" stop-opacity="0.25"/>
  <stop offset="100%" stop-color="#FF6363" stop-opacity="0"/>
</linearGradient>
  <clipPath id="ca"><rect x="72" y="45" width="698" height="295"/></clipPath>
</defs>
<rect width="800" height="400" fill="#ffffff" rx="12"/>
<text x="400" y="26" text-anchor="middle" font-size="15" font-weight="600" fill="#111827">Platform Support Over Time</text>
<line x1="72" y1="340.0" x2="770" y2="340.0" stroke="#f3f4f6" stroke-width="1"/>
<text x="66" y="344.0" text-anchor="end" font-size="11" fill="#6b7280">0</text>
<line x1="72" y1="266.3" x2="770" y2="266.3" stroke="#f3f4f6" stroke-width="1"/>
<text x="66" y="270.3" text-anchor="end" font-size="11" fill="#6b7280">200</text>
<line x1="72" y1="192.5" x2="770" y2="192.5" stroke="#f3f4f6" stroke-width="1"/>
<text x="66" y="196.5" text-anchor="end" font-size="11" fill="#6b7280">400</text>
<line x1="72" y1="118.8" x2="770" y2="118.8" stroke="#f3f4f6" stroke-width="1"/>
<text x="66" y="122.8" text-anchor="end" font-size="11" fill="#6b7280">600</text>
<line x1="72" y1="45.0" x2="770" y2="45.0" stroke="#f3f4f6" stroke-width="1"/>
<text x="66" y="49.0" text-anchor="end" font-size="11" fill="#6b7280">800</text>
<line x1="166.1" y1="45" x2="166.1" y2="340" stroke="#e5e7eb" stroke-width="1" stroke-dasharray="3,3" clip-path="url(#ca)"/>
<line x1="370.0" y1="45" x2="370.0" y2="340" stroke="#e5e7eb" stroke-width="1" stroke-dasharray="3,3" clip-path="url(#ca)"/>
<line x1="581.8" y1="45" x2="581.8" y2="340" stroke="#e5e7eb" stroke-width="1" stroke-dasharray="3,3" clip-path="url(#ca)"/>
<text x="72.0" y="358.0" text-anchor="middle" font-size="11" fill="#6b7280">Dec 11</text>
<text x="213.2" y="358.0" text-anchor="middle" font-size="11" fill="#6b7280">Jan 9</text>
<text x="354.3" y="358.0" text-anchor="middle" font-size="11" fill="#6b7280">Jan 30</text>
<text x="487.7" y="358.0" text-anchor="middle" font-size="11" fill="#6b7280">Feb 16</text>
<text x="628.8" y="358.0" text-anchor="middle" font-size="11" fill="#6b7280">Mar 8</text>
<text x="770.0" y="358.0" text-anchor="middle" font-size="11" fill="#6b7280">Mar 27</text>
<line x1="72" y1="45" x2="72" y2="340" stroke="#e5e7eb" stroke-width="1"/>
<line x1="72" y1="340" x2="770" y2="340" stroke="#e5e7eb" stroke-width="1"/>
<text x="-192.5" y="18" text-anchor="middle" font-size="12" fill="#6b7280" transform="rotate(-90)">Extensions</text>
<path d="M 72.0,340 L 72.0,218.3 L 79.8,215.0 L 87.7,214.6 L 95.5,213.2 L 103.4,212.4 L 111.2,208.7 L 119.1,206.5 L 126.9,205.4 L 134.7,203.6 L 142.6,201.3 L 150.4,200.2 L 158.3,199.9 L 166.1,198.8 L 174.0,198.0 L 181.8,197.7 L 189.6,196.6 L 197.5,195.4 L 205.3,194.3 L 213.2,193.2 L 221.0,191.8 L 228.9,190.7 L 236.7,189.6 L 244.5,188.4 L 252.4,186.2 L 260.2,185.5 L 268.1,185.5 L 275.9,182.9 L 283.8,182.2 L 291.6,181.4 L 299.4,180.7 L 307.3,178.9 L 315.1,176.3 L 323.0,175.9 L 330.8,175.5 L 338.7,173.3 L 346.5,172.6 L 354.3,170.7 L 362.2,170.4 L 370.0,170.0 L 377.9,169.3 L 385.7,169.3 L 393.6,169.3 L 401.4,164.1 L 409.2,163.7 L 417.1,162.6 L 424.9,162.3 L 432.8,161.9 L 440.6,160.8 L 448.4,160.1 L 456.3,159.3 L 464.1,157.1 L 472.0,157.1 L 479.8,157.1 L 487.7,156.7 L 495.5,153.0 L 503.3,151.9 L 511.2,151.2 L 519.0,150.1 L 526.9,149.4 L 534.7,149.4 L 542.6,147.5 L 550.4,144.9 L 558.2,144.2 L 566.1,143.8 L 573.9,142.7 L 581.8,142.7 L 589.6,142.0 L 597.5,140.9 L 605.3,140.1 L 613.1,138.7 L 621.0,137.2 L 628.8,136.8 L 636.7,136.8 L 644.5,135.3 L 652.4,135.3 L 660.2,135.3 L 668.0,133.1 L 675.9,132.8 L 683.7,132.4 L 691.6,132.4 L 699.4,132.0 L 707.3,130.6 L 715.1,129.8 L 722.9,128.7 L 730.8,128.7 L 738.6,128.3 L 746.5,126.9 L 754.3,125.8 L 762.2,125.8 L 770.0,125.4 L 770.0,340 Z" fill="url(#g5)" clip-path="url(#ca)"/>
<path d="M 72.0,218.3 L 79.8,215.0 L 87.7,214.6 L 95.5,213.2 L 103.4,212.4 L 111.2,208.7 L 119.1,206.5 L 126.9,205.4 L 134.7,203.6 L 142.6,201.3 L 150.4,200.2 L 158.3,199.9 L 166.1,198.8 L 174.0,198.0 L 181.8,197.7 L 189.6,196.6 L 197.5,195.4 L 205.3,194.3 L 213.2,193.2 L 221.0,191.8 L 228.9,190.7 L 236.7,189.6 L 244.5,188.4 L 252.4,186.2 L 260.2,185.5 L 268.1,185.5 L 275.9,182.9 L 283.8,182.2 L 291.6,181.4 L 299.4,180.7 L 307.3,178.9 L 315.1,176.3 L 323.0,175.9 L 330.8,175.5 L 338.7,173.3 L 346.5,172.6 L 354.3,170.7 L 362.2,170.4 L 370.0,170.0 L 377.9,169.3 L 385.7,169.3 L 393.6,169.3 L 401.4,164.1 L 409.2,163.7 L 417.1,162.6 L 424.9,162.3 L 432.8,161.9 L 440.6,160.8 L 448.4,160.1 L 456.3,159.3 L 464.1,157.1 L 472.0,157.1 L 479.8,157.1 L 487.7,156.7 L 495.5,153.0 L 503.3,151.9 L 511.2,151.2 L 519.0,150.1 L 526.9,149.4 L 534.7,149.4 L 542.6,147.5 L 550.4,144.9 L 558.2,144.2 L 566.1,143.8 L 573.9,142.7 L 581.8,142.7 L 589.6,142.0 L 597.5,140.9 L 605.3,140.1 L 613.1,138.7 L 621.0,137.2 L 628.8,136.8 L 636.7,136.8 L 644.5,135.3 L 652.4,135.3 L 660.2,135.3 L 668.0,133.1 L 675.9,132.8 L 683.7,132.4 L 691.6,132.4 L 699.4,132.0 L 707.3,130.6 L 715.1,129.8 L 722.9,128.7 L 730.8,128.7 L 738.6,128.3 L 746.5,126.9 L 754.3,125.8 L 762.2,125.8 L 770.0,125.4" fill="none" stroke="#34C759" stroke-width="2.5" stroke-linejoin="round" clip-path="url(#ca)"/>
<path d="M 72.0,340 L 72.0,193.2 L 79.8,193.2 L 87.7,192.9 L 95.5,191.8 L 103.4,192.1 L 111.2,192.1 L 119.1,190.7 L 126.9,189.6 L 134.7,189.6 L 142.6,189.9 L 150.4,189.6 L 158.3,189.2 L 166.1,188.8 L 174.0,188.8 L 181.8,188.8 L 189.6,189.2 L 197.5,188.4 L 205.3,187.7 L 213.2,185.5 L 221.0,184.0 L 228.9,184.0 L 236.7,183.7 L 244.5,181.4 L 252.4,178.1 L 260.2,177.0 L 268.1,176.3 L 275.9,173.7 L 283.8,171.9 L 291.6,171.1 L 299.4,170.4 L 307.3,169.6 L 315.1,169.3 L 323.0,169.3 L 330.8,166.7 L 338.7,166.0 L 346.5,165.2 L 354.3,165.2 L 362.2,163.4 L 370.0,163.0 L 377.9,161.9 L 385.7,160.4 L 393.6,158.6 L 401.4,156.0 L 409.2,153.4 L 417.1,153.0 L 424.9,152.3 L 432.8,151.6 L 440.6,149.4 L 448.4,149.4 L 456.3,148.6 L 464.1,147.5 L 472.0,146.8 L 479.8,145.3 L 487.7,145.7 L 495.5,141.2 L 503.3,140.9 L 511.2,140.5 L 519.0,139.8 L 526.9,137.6 L 534.7,137.6 L 542.6,135.3 L 550.4,132.8 L 558.2,132.8 L 566.1,132.8 L 573.9,132.4 L 581.8,132.0 L 589.6,131.7 L 597.5,129.8 L 605.3,127.6 L 613.1,126.9 L 621.0,125.4 L 628.8,125.4 L 636.7,124.3 L 644.5,122.1 L 652.4,121.0 L 660.2,120.6 L 668.0,118.0 L 675.9,117.6 L 683.7,117.6 L 691.6,117.3 L 699.4,117.3 L 707.3,115.4 L 715.1,114.7 L 722.9,113.6 L 730.8,113.2 L 738.6,112.5 L 746.5,109.5 L 754.3,105.5 L 762.2,105.1 L 770.0,104.4 L 770.0,340 Z" fill="url(#g6)" clip-path="url(#ca)"/>
<path d="M 72.0,193.2 L 79.8,193.2 L 87.7,192.9 L 95.5,191.8 L 103.4,192.1 L 111.2,192.1 L 119.1,190.7 L 126.9,189.6 L 134.7,189.6 L 142.6,189.9 L 150.4,189.6 L 158.3,189.2 L 166.1,188.8 L 174.0,188.8 L 181.8,188.8 L 189.6,189.2 L 197.5,188.4 L 205.3,187.7 L 213.2,185.5 L 221.0,184.0 L 228.9,184.0 L 236.7,183.7 L 244.5,181.4 L 252.4,178.1 L 260.2,177.0 L 268.1,176.3 L 275.9,173.7 L 283.8,171.9 L 291.6,171.1 L 299.4,170.4 L 307.3,169.6 L 315.1,169.3 L 323.0,169.3 L 330.8,166.7 L 338.7,166.0 L 346.5,165.2 L 354.3,165.2 L 362.2,163.4 L 370.0,163.0 L 377.9,161.9 L 385.7,160.4 L 393.6,158.6 L 401.4,156.0 L 409.2,153.4 L 417.1,153.0 L 424.9,152.3 L 432.8,151.6 L 440.6,149.4 L 448.4,149.4 L 456.3,148.6 L 464.1,147.5 L 472.0,146.8 L 479.8,145.3 L 487.7,145.7 L 495.5,141.2 L 503.3,140.9 L 511.2,140.5 L 519.0,139.8 L 526.9,137.6 L 534.7,137.6 L 542.6,135.3 L 550.4,132.8 L 558.2,132.8 L 566.1,132.8 L 573.9,132.4 L 581.8,132.0 L 589.6,131.7 L 597.5,129.8 L 605.3,127.6 L 613.1,126.9 L 621.0,125.4 L 628.8,125.4 L 636.7,124.3 L 644.5,122.1 L 652.4,121.0 L 660.2,120.6 L 668.0,118.0 L 675.9,117.6 L 683.7,117.6 L 691.6,117.3 L 699.4,117.3 L 707.3,115.4 L 715.1,114.7 L 722.9,113.6 L 730.8,113.2 L 738.6,112.5 L 746.5,109.5 L 754.3,105.5 L 762.2,105.1 L 770.0,104.4" fill="none" stroke="#4F8EF7" stroke-width="2.5" stroke-linejoin="round" clip-path="url(#ca)"/>
<path d="M 72.0,340 L 72.0,337.8 L 79.8,337.4 L 87.7,337.4 L 95.5,337.1 L 103.4,337.1 L 111.2,337.1 L 119.1,337.1 L 126.9,337.1 L 134.7,336.3 L 142.6,336.3 L 150.4,336.3 L 158.3,336.3 L 166.1,336.3 L 174.0,335.9 L 181.8,335.9 L 189.6,335.9 L 197.5,335.9 L 205.3,335.9 L 213.2,335.6 L 221.0,334.8 L 228.9,334.5 L 236.7,334.5 L 244.5,334.5 L 252.4,334.1 L 260.2,334.1 L 268.1,334.1 L 275.9,333.7 L 283.8,333.7 L 291.6,333.7 L 299.4,333.4 L 307.3,333.4 L 315.1,333.4 L 323.0,333.4 L 330.8,333.0 L 338.7,333.0 L 346.5,333.0 L 354.3,333.0 L 362.2,333.0 L 370.0,333.0 L 377.9,333.0 L 385.7,333.0 L 393.6,333.0 L 401.4,333.0 L 409.2,333.0 L 417.1,333.0 L 424.9,333.0 L 432.8,332.6 L 440.6,332.6 L 448.4,332.6 L 456.3,332.6 L 464.1,332.6 L 472.0,332.6 L 479.8,332.6 L 487.7,332.6 L 495.5,332.6 L 503.3,332.6 L 511.2,332.6 L 519.0,332.6 L 526.9,332.3 L 534.7,332.3 L 542.6,332.3 L 550.4,332.3 L 558.2,332.3 L 566.1,332.3 L 573.9,332.3 L 581.8,332.3 L 589.6,332.3 L 597.5,332.3 L 605.3,332.3 L 613.1,332.3 L 621.0,332.3 L 628.8,332.3 L 636.7,332.3 L 644.5,332.3 L 652.4,332.3 L 660.2,332.3 L 668.0,332.3 L 675.9,332.3 L 683.7,332.3 L 691.6,332.3 L 699.4,332.3 L 707.3,332.3 L 715.1,332.3 L 722.9,332.3 L 730.8,332.3 L 738.6,332.3 L 746.5,332.3 L 754.3,332.3 L 762.2,332.3 L 770.0,332.3 L 770.0,340 Z" fill="url(#g7)" clip-path="url(#ca)"/>
<path d="M 72.0,337.8 L 79.8,337.4 L 87.7,337.4 L 95.5,337.1 L 103.4,337.1 L 111.2,337.1 L 119.1,337.1 L 126.9,337.1 L 134.7,336.3 L 142.6,336.3 L 150.4,336.3 L 158.3,336.3 L 166.1,336.3 L 174.0,335.9 L 181.8,335.9 L 189.6,335.9 L 197.5,335.9 L 205.3,335.9 L 213.2,335.6 L 221.0,334.8 L 228.9,334.5 L 236.7,334.5 L 244.5,334.5 L 252.4,334.1 L 260.2,334.1 L 268.1,334.1 L 275.9,333.7 L 283.8,333.7 L 291.6,333.7 L 299.4,333.4 L 307.3,333.4 L 315.1,333.4 L 323.0,333.4 L 330.8,333.0 L 338.7,333.0 L 346.5,333.0 L 354.3,333.0 L 362.2,333.0 L 370.0,333.0 L 377.9,333.0 L 385.7,333.0 L 393.6,333.0 L 401.4,333.0 L 409.2,333.0 L 417.1,333.0 L 424.9,333.0 L 432.8,332.6 L 440.6,332.6 L 448.4,332.6 L 456.3,332.6 L 464.1,332.6 L 472.0,332.6 L 479.8,332.6 L 487.7,332.6 L 495.5,332.6 L 503.3,332.6 L 511.2,332.6 L 519.0,332.6 L 526.9,332.3 L 534.7,332.3 L 542.6,332.3 L 550.4,332.3 L 558.2,332.3 L 566.1,332.3 L 573.9,332.3 L 581.8,332.3 L 589.6,332.3 L 597.5,332.3 L 605.3,332.3 L 613.1,332.3 L 621.0,332.3 L 628.8,332.3 L 636.7,332.3 L 644.5,332.3 L 652.4,332.3 L 660.2,332.3 L 668.0,332.3 L 675.9,332.3 L 683.7,332.3 L 691.6,332.3 L 699.4,332.3 L 707.3,332.3 L 715.1,332.3 L 722.9,332.3 L 730.8,332.3 L 738.6,332.3 L 746.5,332.3 L 754.3,332.3 L 762.2,332.3 L 770.0,332.3" fill="none" stroke="#FF6363" stroke-width="2.5" stroke-linejoin="round" clip-path="url(#ca)"/>
<text x="115.1" y="55.0" text-anchor="middle" font-size="9" fill="#34C759" opacity="0.85" clip-path="url(#ca)">+15.2% (+50)</text>
<text x="115.1" y="66.0" text-anchor="middle" font-size="9" fill="#4F8EF7" opacity="0.85" clip-path="url(#ca)">+2.8% (+11)</text>
<text x="115.1" y="77.0" text-anchor="middle" font-size="9" fill="#FF6363" opacity="0.85" clip-path="url(#ca)">+66.7% (+4)</text>
<text x="264.1" y="55.0" text-anchor="middle" font-size="9" fill="#34C759" opacity="0.85" clip-path="url(#ca)">+20.1% (+77)</text>
<text x="264.1" y="66.0" text-anchor="middle" font-size="9" fill="#4F8EF7" opacity="0.85" clip-path="url(#ca)">+16.8% (+69)</text>
<text x="264.1" y="77.0" text-anchor="middle" font-size="9" fill="#FF6363" opacity="0.85" clip-path="url(#ca)">+90.0% (+9)</text>
<text x="472.0" y="55.0" text-anchor="middle" font-size="9" fill="#34C759" opacity="0.85" clip-path="url(#ca)">+16.1% (+74)</text>
<text x="472.0" y="66.0" text-anchor="middle" font-size="9" fill="#4F8EF7" opacity="0.85" clip-path="url(#ca)">+17.3% (+83)</text>
<text x="472.0" y="77.0" text-anchor="middle" font-size="9" fill="#FF6363" opacity="0.85" clip-path="url(#ca)">+10.5% (+2)</text>
<text x="675.9" y="55.0" text-anchor="middle" font-size="9" fill="#34C759" opacity="0.85" clip-path="url(#ca)">+8.8% (+47)</text>
<text x="675.9" y="66.0" text-anchor="middle" font-size="9" fill="#4F8EF7" opacity="0.85" clip-path="url(#ca)">+13.3% (+75)</text>
<text x="675.9" y="77.0" text-anchor="middle" font-size="9" fill="#FF6363" opacity="0.85" clip-path="url(#ca)">+0.0% (+0)</text>
<rect x="211" y="369" width="12" height="12" fill="#34C759" rx="2"/>
<text x="227" y="379" font-size="12" fill="#111827">macOS + Windows</text>
<rect x="351" y="369" width="12" height="12" fill="#4F8EF7" rx="2"/>
<text x="367" y="379" font-size="12" fill="#111827">macOS only</text>
<rect x="491" y="369" width="12" height="12" fill="#FF6363" rx="2"/>
<text x="507" y="379" font-size="12" fill="#111827">Windows only</text>
<text x="72" y="394" font-size="8" fill="#e5e7eb">data since Dec 11, 2025</text>
</svg>