<svg xmlns="http://www.w3.org/2000/svg" width="800" height="400" viewBox="0 0 800 400">
<defs>
  <style>text { font-family: -apple-system, BlinkMacSystemFont, 'Segoe UI', Roboto, sans-serif; }</style>
  <linearGradient id="g2" x1="0" y1="0" x2="0" y2="1">
  <stop offset="0%" stop-color="#4F8EF7" stop-opacity="0.25"/>
  <stop offset="100%" stop-color="#4F8EF7" stop-opacity="0"/>
</linearGradient>
<linearGradient id="g3" x1="0" y1="0" x2="0" y2="1">
  <stop offset="0%" stop-color="#BF5AF2" stop-opacity="0.25"/>
  <stop offset="100%" stop-color="#BF5AF2" stop-opacity="0"/>
</linearGradient>
<linearGradient id="g4" x1="0" y1="0" x2="0" y2="1">
  <stop offset="0%" stop-color="#34C759" stop-opacity="0.25"/>
  <stop offset="100%" stop-color="#34C759" stop-opacity="0"/>
</linearGradient>
  <clipPath id="ca"><rect x="72" y="45" width="698" height="295"/></clipPath>
</defs>
<rect width="800" height="400" fill="#ffffff" rx="12"/>
<text x="400" y="26" text-anchor="middle" font-size="15" font-weight="600" fill="#111827">Community Growth Over Time</text>
<line x1="72" y1="340.0" x2="770" y2="340.0" stroke="#f3f4f6" stroke-width="1"/>
<text x="66" y="344.0" text-anchor="end" font-size="11" fill="#6b7280">500</text>
<line x1="72" y1="241.7" x2="770" y2="241.7" stroke="#f3f4f6" stroke-width="1"/>
<text x="66" y="245.7" text-anchor="end" font-size="11" fill="#6b7280">1.0k</text>
<line x1="72" y1="143.3" x2="770" y2="143.3" stroke="#f3f4f6" stroke-width="1"/>
<text x="66" y="147.3" text-anchor="end" font-size="11" fill="#6b7280">1.5k</text>
<line x1="72" y1="45.0" x2="770" y2="45.0" stroke="#f3f4f6" stroke-width="1"/>
<text x="66" y="49.0" text-anchor="end" font-size="11" fill="#6b7280">2.0k</text>
<line x1="122.8" y1="45" x2="122.8" y2="340" stroke="#e5e7eb" stroke-width="1" stroke-dasharray="3,3" clip-path="url(#ca)"/>
<line x1="232.8" y1="45" x2="232.8" y2="340" stroke="#e5e7eb" stroke-width="1" stroke-dasharray="3,3" clip-path="url(#ca)"/>
<line x1="347.0" y1="45" x2="347.0" y2="340" stroke="#e5e7eb" stroke-width="1" stroke-dasharray="3,3" clip-path="url(#ca)"/>
<line x1="461.2" y1="45" x2="461.2" y2="340" stroke="#e5e7eb" stroke-width="1" stroke-dasharray="3,3" clip-path="url(#ca)"/>
<line x1="575.4" y1="45" x2="575.4" y2="340" stroke="#e5e7eb" stroke-width="1" stroke-dasharray="3,3" clip-path="url(#ca)"/>
<line x1="685.4" y1="45" x2="685.4" y2="340" stroke="#e5e7eb" stroke-width="1" stroke-dasharray="3,3" clip-path="url(#ca)"/>
<text x="72.0" y="358.0" text-anchor="middle" font-size="11" fill="#6b7280">Dec 11</text>
<text x="211.6" y="358.0" text-anchor="middle" font-size="11" fill="#6b7280">Jan 27</text>
<text x="351.2" y="358.0" text-anchor="middle" font-size="11" fill="#6b7280">Mar 2</text>
<text x="490.8" y="358.0" text-anchor="middle" font-size="11" fill="#6b7280">Apr 9</text>
<text x="630.4" y="358.0" text-anchor="middle" font-size="11" fill="#6b7280">May 19</text>
<text x="770.0" y="358.0" text-anchor="middle" font-size="11" fill="#6b7280">Jun 26</text>
<line x1="72" y1="45" x2="72" y2="340" stroke="#e5e7eb" stroke-width="1"/>
<line x1="72" y1="340" x2="770" y2="340" stroke="#e5e7eb" stroke-width="1"/>
<text x="-192.5" y="18" text-anchor="middle" font-size="12" fill="#6b7280" transform="rotate(-90)">People</text>
<path d="M 72.0,340 L 72.0,120.1 L 76.2,120.1 L 80.5,120.1 L 84.7,119.5 L 88.9,119.5 L 93.2,119.1 L 97.4,118.9 L 101.6,119.1 L 105.8,118.6 L 110.1,118.6 L 114.3,118.6 L 118.5,118.6 L 122.8,118.6 L 127.0,118.6 L 131.2,118.6 L 135.5,118.6 L 139.7,118.4 L 143.9,117.8 L 148.1,116.6 L 152.4,116.0 L 156.6,115.8 L 160.8,115.8 L 165.1,115.2 L 169.3,113.8 L 173.5,113.0 L 177.8,113.0 L 182.0,112.1 L 186.2,111.7 L 190.4,110.9 L 194.7,110.3 L 198.9,109.7 L 203.1,109.1 L 207.4,109.1 L 211.6,107.7 L 215.8,106.9 L 220.1,106.9 L 224.3,106.2 L 228.5,105.8 L 232.8,105.6 L 237.0,105.4 L 241.2,105.4 L 245.4,104.8 L 249.7,102.4 L 253.9,101.0 L 258.1,100.3 L 262.4,100.1 L 266.6,99.7 L 270.8,98.9 L 275.1,98.5 L 279.3,98.1 L 283.5,97.7 L 287.7,97.3 L 292.0,96.9 L 296.2,96.9 L 300.4,95.0 L 304.7,95.0 L 308.9,94.8 L 313.1,94.6 L 317.4,94.2 L 321.6,94.2 L 325.8,93.2 L 330.0,92.0 L 334.3,91.6 L 338.5,92.0 L 342.7,91.8 L 347.0,91.6 L 351.2,91.6 L 355.4,91.2 L 359.7,90.4 L 363.9,90.0 L 368.1,89.6 L 372.4,89.4 L 376.6,89.4 L 380.8,88.7 L 385.0,88.3 L 389.3,88.3 L 393.5,86.7 L 397.7,86.7 L 402.0,86.7 L 406.2,86.7 L 410.4,86.5 L 414.7,85.9 L 418.9,85.1 L 423.1,84.7 L 427.3,84.7 L 431.6,84.3 L 435.8,82.8 L 440.0,81.8 L 444.3,81.6 L 448.5,81.4 L 452.7,80.8 L 457.0,79.6 L 461.2,79.2 L 465.4,78.8 L 469.6,77.6 L 473.9,77.4 L 478.1,77.4 L 482.3,77.4 L 486.6,77.3 L 490.8,76.1 L 495.0,75.9 L 499.3,75.7 L 503.5,75.7 L 507.7,75.3 L 512.0,73.7 L 516.2,73.5 L 520.4,73.3 L 524.6,73.3 L 528.9,72.5 L 533.1,72.3 L 537.3,72.1 L 541.6,71.6 L 545.8,70.8 L 550.0,70.8 L 554.3,70.8 L 558.5,70.8 L 562.7,70.4 L 566.9,69.8 L 571.2,69.6 L 575.4,69.0 L 579.6,68.8 L 583.9,68.6 L 588.1,67.8 L 592.3,67.2 L 596.6,67.0 L 600.8,67.0 L 605.0,65.3 L 609.2,64.7 L 613.5,64.5 L 617.7,64.5 L 621.9,63.5 L 626.2,63.5 L 630.4,62.9 L 634.6,62.3 L 638.9,60.9 L 643.1,60.7 L 647.3,60.5 L 651.6,60.3 L 655.8,60.3 L 660.0,60.1 L 664.2,59.2 L 668.5,58.6 L 672.7,58.6 L 676.9,58.4 L 681.2,58.4 L 685.4,57.8 L 689.6,57.6 L 693.9,57.4 L 698.1,56.8 L 702.3,56.0 L 706.5,56.0 L 710.8,55.8 L 715.0,55.6 L 719.2,54.6 L 723.5,53.3 L 727.7,53.1 L 731.9,52.7 L 736.2,52.3 L 740.4,52.1 L 744.6,51.5 L 748.8,50.7 L 753.1,50.5 L 757.3,49.9 L 761.5,49.5 L 765.8,48.5 L 770.0,48.3 L 770.0,340 Z" fill="url(#g2)" clip-path="url(#ca)"/>
<path d="M 72.0,120.1 L 76.2,120.1 L 80.5,120.1 L 84.7,119.5 L 88.9,119.5 L 93.2,119.1 L 97.4,118.9 L 101.6,119.1 L 105.8,118.6 L 110.1,118.6 L 114.3,118.6 L 118.5,118.6 L 122.8,118.6 L 127.0,118.6 L 131.2,118.6 L 135.5,118.6 L 139.7,118.4 L 143.9,117.8 L 148.1,116.6 L 152.4,116.0 L 156.6,115.8 L 160.8,115.8 L 165.1,115.2 L 169.3,113.8 L 173.5,113.0 L 177.8,113.0 L 182.0,112.1 L 186.2,111.7 L 190.4,110.9 L 194.7,110.3 L 198.9,109.7 L 203.1,109.1 L 207.4,109.1 L 211.6,107.7 L 215.8,106.9 L 220.1,106.9 L 224.3,106.2 L 228.5,105.8 L 232.8,105.6 L 237.0,105.4 L 241.2,105.4 L 245.4,104.8 L 249.7,102.4 L 253.9,101.0 L 258.1,100.3 L 262.4,100.1 L 266.6,99.7 L 270.8,98.9 L 275.1,98.5 L 279.3,98.1 L 283.5,97.7 L 287.7,97.3 L 292.0,96.9 L 296.2,96.9 L 300.4,95.0 L 304.7,95.0 L 308.9,94.8 L 313.1,94.6 L 317.4,94.2 L 321.6,94.2 L 325.8,93.2 L 330.0,92.0 L 334.3,91.6 L 338.5,92.0 L 342.7,91.8 L 347.0,91.6 L 351.2,91.6 L 355.4,91.2 L 359.7,90.4 L 363.9,90.0 L 368.1,89.6 L 372.4,89.4 L 376.6,89.4 L 380.8,88.7 L 385.0,88.3 L 389.3,88.3 L 393.5,86.7 L 397.7,86.7 L 402.0,86.7 L 406.2,86.7 L 410.4,86.5 L 414.7,85.9 L 418.9,85.1 L 423.1,84.7 L 427.3,84.7 L 431.6,84.3 L 435.8,82.8 L 440.0,81.8 L 444.3,81.6 L 448.5,81.4 L 452.7,80.8 L 457.0,79.6 L 461.2,79.2 L 465.4,78.8 L 469.6,77.6 L 473.9,77.4 L 478.1,77.4 L 482.3,77.4 L 486.6,77.3 L 490.8,76.1 L 495.0,75.9 L 499.3,75.7 L 503.5,75.7 L 507.7,75.3 L 512.0,73.7 L 516.2,73.5 L 520.4,73.3 L 524.6,73.3 L 528.9,72.5 L 533.1,72.3 L 537.3,72.1 L 541.6,71.6 L 545.8,70.8 L 550.0,70.8 L 554.3,70.8 L 558.5,70.8 L 562.7,70.4 L 566.9,69.8 L 571.2,69.6 L 575.4,69.0 L 579.6,68.8 L 583.9,68.6 L 588.1,67.8 L 592.3,67.2 L 596.6,67.0 L 600.8,67.0 L 605.0,65.3 L 609.2,64.7 L 613.5,64.5 L 617.7,64.5 L 621.9,63.5 L 626.2,63.5 L 630.4,62.9 L 634.6,62.3 L 638.9,60.9 L 643.1,60.7 L 647.3,60.5 L 651.6,60.3 L 655.8,60.3 L 660.0,60.1 L 664.2,59.2 L 668.5,58.6 L 672.7,58.6 L 676.9,58.4 L 681.2,58.4 L 685.4,57.8 L 689.6,57.6 L 693.9,57.4 L 698.1,56.8 L 702.3,56.0 L 706.5,56.0 L 710.8,55.8 L 715.0,55.6 L 719.2,54.6 L 723.5,53.3 L 727.7,53.1 L 731.9,52.7 L 736.2,52.3 L 740.4,52.1 L 744.6,51.5 L 748.8,50.7 L 753.1,50.5 L 757.3,49.9 L 761.5,49.5 L 765.8,48.5 L 770.0,48.3" fill="none" stroke="#4F8EF7" stroke-width="2.5" stroke-linejoin="round" clip-path="url(#ca)"/>
<path d="M 72.0,340 L 72.0,244.2 L 76.2,243.6 L 80.5,243.6 L 84.7,243.6 L 88.9,243.4 L 93.2,243.0 L 97.4,242.8 L 101.6,242.6 L 105.8,242.6 L 110.1,242.5 L 114.3,242.3 L 118.5,242.3 L 122.8,242.3 L 127.0,242.3 L 131.2,242.3 L 135.5,242.3 L 139.7,241.9 L 143.9,241.9 L 148.1,241.9 L 152.4,241.1 L 156.6,240.9 L 160.8,240.5 L 165.1,239.7 L 169.3,239.5 L 173.5,239.5 L 177.8,239.5 L 182.0,238.9 L 186.2,238.5 L 190.4,238.5 L 194.7,238.1 L 198.9,237.9 L 203.1,237.5 L 207.4,237.5 L 211.6,237.3 L 215.8,236.6 L 220.1,236.0 L 224.3,235.6 L 228.5,235.4 L 232.8,235.4 L 237.0,235.2 L 241.2,234.8 L 245.4,234.8 L 249.7,234.6 L 253.9,234.0 L 258.1,233.6 L 262.4,233.6 L 266.6,233.6 L 270.8,233.6 L 275.1,233.4 L 279.3,232.8 L 283.5,232.4 L 287.7,232.2 L 292.0,232.0 L 296.2,231.8 L 300.4,231.6 L 304.7,231.4 L 308.9,231.2 L 313.1,230.7 L 317.4,230.5 L 321.6,230.3 L 325.8,229.5 L 330.0,228.7 L 334.3,228.7 L 338.5,228.5 L 342.7,228.3 L 347.0,228.3 L 351.2,228.3 L 355.4,227.9 L 359.7,227.9 L 363.9,226.7 L 368.1,226.5 L 372.4,226.3 L 376.6,226.3 L 380.8,225.9 L 385.0,225.7 L 389.3,225.7 L 393.5,225.5 L 397.7,225.5 L 402.0,225.5 L 406.2,225.1 L 410.4,224.9 L 414.7,224.0 L 418.9,224.2 L 423.1,224.0 L 427.3,223.8 L 431.6,223.8 L 435.8,223.6 L 440.0,223.0 L 444.3,223.0 L 448.5,223.0 L 452.7,223.0 L 457.0,222.6 L 461.2,222.6 L 465.4,222.2 L 469.6,221.8 L 473.9,221.0 L 478.1,221.0 L 482.3,220.6 L 486.6,220.4 L 490.8,220.2 L 495.0,220.0 L 499.3,219.6 L 503.5,219.6 L 507.7,219.1 L 512.0,219.1 L 516.2,218.9 L 520.4,218.5 L 524.6,218.3 L 528.9,218.3 L 533.1,218.3 L 537.3,218.3 L 541.6,218.3 L 545.8,217.7 L 550.0,217.7 L 554.3,217.3 L 558.5,216.9 L 562.7,216.3 L 566.9,216.1 L 571.2,216.1 L 575.4,214.9 L 579.6,214.7 L 583.9,214.7 L 588.1,213.9 L 592.3,213.9 L 596.6,213.5 L 600.8,213.5 L 605.0,213.3 L 609.2,213.3 L 613.5,213.2 L 617.7,212.8 L 621.9,212.8 L 626.2,212.6 L 630.4,212.4 L 634.6,212.2 L 638.9,212.0 L 643.1,212.0 L 647.3,211.6 L 651.6,211.6 L 655.8,211.6 L 660.0,210.6 L 664.2,210.6 L 668.5,210.6 L 672.7,210.6 L 676.9,210.6 L 681.2,210.6 L 685.4,210.2 L 689.6,210.2 L 693.9,209.8 L 698.1,209.0 L 702.3,208.6 L 706.5,208.4 L 710.8,208.4 L 715.0,208.2 L 719.2,207.6 L 723.5,207.4 L 727.7,207.4 L 731.9,207.1 L 736.2,206.5 L 740.4,206.1 L 744.6,206.1 L 748.8,205.9 L 753.1,205.9 L 757.3,205.3 L 761.5,205.1 L 765.8,205.1 L 770.0,204.7 L 770.0,340 Z" fill="url(#g3)" clip-path="url(#ca)"/>
<path d="M 72.0,244.2 L 76.2,243.6 L 80.5,243.6 L 84.7,243.6 L 88.9,243.4 L 93.2,243.0 L 97.4,242.8 L 101.6,242.6 L 105.8,242.6 L 110.1,242.5 L 114.3,242.3 L 118.5,242.3 L 122.8,242.3 L 127.0,242.3 L 131.2,242.3 L 135.5,242.3 L 139.7,241.9 L 143.9,241.9 L 148.1,241.9 L 152.4,241.1 L 156.6,240.9 L 160.8,240.5 L 165.1,239.7 L 169.3,239.5 L 173.5,239.5 L 177.8,239.5 L 182.0,238.9 L 186.2,238.5 L 190.4,238.5 L 194.7,238.1 L 198.9,237.9 L 203.1,237.5 L 207.4,237.5 L 211.6,237.3 L 215.8,236.6 L 220.1,236.0 L 224.3,235.6 L 228.5,235.4 L 232.8,235.4 L 237.0,235.2 L 241.2,234.8 L 245.4,234.8 L 249.7,234.6 L 253.9,234.0 L 258.1,233.6 L 262.4,233.6 L 266.6,233.6 L 270.8,233.6 L 275.1,233.4 L 279.3,232.8 L 283.5,232.4 L 287.7,232.2 L 292.0,232.0 L 296.2,231.8 L 300.4,231.6 L 304.7,231.4 L 308.9,231.2 L 313.1,230.7 L 317.4,230.5 L 321.6,230.3 L 325.8,229.5 L 330.0,228.7 L 334.3,228.7 L 338.5,228.5 L 342.7,228.3 L 347.0,228.3 L 351.2,228.3 L 355.4,227.9 L 359.7,227.9 L 363.9,226.7 L 368.1,226.5 L 372.4,226.3 L 376.6,226.3 L 380.8,225.9 L 385.0,225.7 L 389.3,225.7 L 393.5,225.5 L 397.7,225.5 L 402.0,225.5 L 406.2,225.1 L 410.4,224.9 L 414.7,224.0 L 418.9,224.2 L 423.1,224.0 L 427.3,223.8 L 431.6,223.8 L 435.8,223.6 L 440.0,223.0 L 444.3,223.0 L 448.5,223.0 L 452.7,223.0 L 457.0,222.6 L 461.2,222.6 L 465.4,222.2 L 469.6,221.8 L 473.9,221.0 L 478.1,221.0 L 482.3,220.6 L 486.6,220.4 L 490.8,220.2 L 495.0,220.0 L 499.3,219.6 L 503.5,219.6 L 507.7,219.1 L 512.0,219.1 L 516.2,218.9 L 520.4,218.5 L 524.6,218.3 L 528.9,218.3 L 533.1,218.3 L 537.3,218.3 L 541.6,218.3 L 545.8,217.7 L 550.0,217.7 L 554.3,217.3 L 558.5,216.9 L 562.7,216.3 L 566.9,216.1 L 571.2,216.1 L 575.4,214.9 L 579.6,214.7 L 583.9,214.7 L 588.1,213.9 L 592.3,213.9 L 596.6,213.5 L 600.8,213.5 L 605.0,213.3 L 609.2,213.3 L 613.5,213.2 L 617.7,212.8 L 621.9,212.8 L 626.2,212.6 L 630.4,212.4 L 634.6,212.2 L 638.9,212.0 L 643.1,212.0 L 647.3,211.6 L 651.6,211.6 L 655.8,211.6 L 660.0,210.6 L 664.2,210.6 L 668.5,210.6 L 672.7,210.6 L 676.9,210.6 L 681.2,210.6 L 685.4,210.2 L 689.6,210.2 L 693.9,209.8 L 698.1,209.0 L 702.3,208.6 L 706.5,208.4 L 710.8,208.4 L 715.0,208.2 L 719.2,207.6 L 723.5,207.4 L 727.7,207.4 L 731.9,207.1 L 736.2,206.5 L 740.4,206.1 L 744.6,206.1 L 748.8,205.9 L 753.1,205.9 L 757.3,205.3 L 761.5,205.1 L 765.8,205.1 L 770.0,204.7" fill="none" stroke="#BF5AF2" stroke-width="2.5" stroke-linejoin="round" clip-path="url(#ca)"/>
<path d="M 72.0,340 L 72.0,291.4 L 76.2,290.8 L 80.5,290.8 L 84.7,290.8 L 88.9,290.6 L 93.2,290.2 L 97.4,290.0 L 101.6,289.7 L 105.8,289.7 L 110.1,289.5 L 114.3,289.3 L 118.5,289.3 L 122.8,289.3 L 127.0,289.3 L 131.2,289.3 L 135.5,289.3 L 139.7,288.9 L 143.9,288.9 L 148.1,289.1 L 152.4,288.5 L 156.6,288.7 L 160.8,288.1 L 165.1,287.5 L 169.3,287.3 L 173.5,287.5 L 177.8,287.5 L 182.0,286.9 L 186.2,286.7 L 190.4,286.7 L 194.7,286.3 L 198.9,286.1 L 203.1,285.7 L 207.4,285.7 L 211.6,285.5 L 215.8,284.9 L 220.1,284.3 L 224.3,283.9 L 228.5,283.9 L 232.8,283.9 L 237.0,283.8 L 241.2,283.4 L 245.4,283.4 L 249.7,283.2 L 253.9,282.6 L 258.1,282.4 L 262.4,282.4 L 266.6,282.4 L 270.8,282.4 L 275.1,282.2 L 279.3,281.6 L 283.5,281.4 L 287.7,281.2 L 292.0,281.0 L 296.2,281.0 L 300.4,280.8 L 304.7,280.8 L 308.9,280.8 L 313.1,280.2 L 317.4,280.2 L 321.6,280.2 L 325.8,279.8 L 330.0,279.2 L 334.3,279.2 L 338.5,279.0 L 342.7,278.8 L 347.0,278.8 L 351.2,278.8 L 355.4,278.4 L 359.7,278.4 L 363.9,277.3 L 368.1,277.1 L 372.4,276.9 L 376.6,276.9 L 380.8,276.7 L 385.0,276.7 L 389.3,276.7 L 393.5,276.7 L 397.7,276.7 L 402.0,276.7 L 406.2,276.3 L 410.4,276.1 L 414.7,275.1 L 418.9,275.3 L 423.1,275.3 L 427.3,275.1 L 431.6,275.1 L 435.8,275.1 L 440.0,274.7 L 444.3,274.7 L 448.5,274.7 L 452.7,274.7 L 457.0,274.7 L 461.2,274.7 L 465.4,274.5 L 469.6,274.5 L 473.9,273.7 L 478.1,273.7 L 482.3,273.5 L 486.6,273.3 L 490.8,273.1 L 495.0,272.9 L 499.3,272.5 L 503.5,272.5 L 507.7,272.0 L 512.0,272.0 L 516.2,271.8 L 520.4,271.6 L 524.6,271.6 L 528.9,271.6 L 533.1,271.6 L 537.3,271.6 L 541.6,271.6 L 545.8,271.0 L 550.0,271.0 L 554.3,270.6 L 558.5,270.2 L 562.7,269.6 L 566.9,269.4 L 571.2,269.4 L 575.4,268.4 L 579.6,268.2 L 583.9,268.2 L 588.1,267.6 L 592.3,267.6 L 596.6,267.4 L 600.8,267.4 L 605.0,267.6 L 609.2,267.8 L 613.5,267.6 L 617.7,267.2 L 621.9,267.4 L 626.2,267.2 L 630.4,267.0 L 634.6,267.0 L 638.9,267.0 L 643.1,267.0 L 647.3,266.6 L 651.6,266.6 L 655.8,266.6 L 660.0,265.9 L 664.2,265.9 L 668.5,265.9 L 672.7,265.9 L 676.9,265.9 L 681.2,265.9 L 685.4,265.5 L 689.6,265.5 L 693.9,265.1 L 698.1,264.3 L 702.3,264.1 L 706.5,264.1 L 710.8,264.1 L 715.0,264.1 L 719.2,263.7 L 723.5,263.5 L 727.7,263.5 L 731.9,263.3 L 736.2,262.7 L 740.4,262.3 L 744.6,262.3 L 748.8,262.1 L 753.1,262.1 L 757.3,261.9 L 761.5,261.7 L 765.8,261.7 L 770.0,261.5 L 770.0,340 Z" fill="url(#g4)" clip-path="url(#ca)"/>
<path d="M 72.0,291.4 L 76.2,290.8 L 80.5,290.8 L 84.7,290.8 L 88.9,290.6 L 93.2,290.2 L 97.4,290.0 L 101.6,289.7 L 105.8,289.7 L 110.1,289.5 L 114.3,289.3 L 118.5,289.3 L 122.8,289.3 L 127.0,289.3 L 131.2,289.3 L 135.5,289.3 L 139.7,288.9 L 143.9,288.9 L 148.1,289.1 L 152.4,288.5 L 156.6,288.7 L 160.8,288.1 L 165.1,287.5 L 169.3,287.3 L 173.5,287.5 L 177.8,287.5 L 182.0,286.9 L 186.2,286.7 L 190.4,286.7 L 194.7,286.3 L 198.9,286.1 L 203.1,285.7 L 207.4,285.7 L 211.6,285.5 L 215.8,284.9 L 220.1,284.3 L 224.3,283.9 L 228.5,283.9 L 232.8,283.9 L 237.0,283.8 L 241.2,283.4 L 245.4,283.4 L 249.7,283.2 L 253.9,282.6 L 258.1,282.4 L 262.4,282.4 L 266.6,282.4 L 270.8,282.4 L 275.1,282.2 L 279.3,281.6 L 283.5,281.4 L 287.7,281.2 L 292.0,281.0 L 296.2,281.0 L 300.4,280.8 L 304.7,280.8 L 308.9,280.8 L 313.1,280.2 L 317.4,280.2 L 321.6,280.2 L 325.8,279.8 L 330.0,279.2 L 334.3,279.2 L 338.5,279.0 L 342.7,278.8 L 347.0,278.8 L 351.2,278.8 L 355.4,278.4 L 359.7,278.4 L 363.9,277.3 L 368.1,277.1 L 372.4,276.9 L 376.6,276.9 L 380.8,276.7 L 385.0,276.7 L 389.3,276.7 L 393.5,276.7 L 397.7,276.7 L 402.0,276.7 L 406.2,276.3 L 410.4,276.1 L 414.7,275.1 L 418.9,275.3 L 423.1,275.3 L 427.3,275.1 L 431.6,275.1 L 435.8,275.1 L 440.0,274.7 L 444.3,274.7 L 448.5,274.7 L 452.7,274.7 L 457.0,274.7 L 461.2,274.7 L 465.4,274.5 L 469.6,274.5 L 473.9,273.7 L 478.1,273.7 L 482.3,273.5 L 486.6,273.3 L 490.8,273.1 L 495.0,272.9 L 499.3,272.5 L 503.5,272.5 L 507.7,272.0 L 512.0,272.0 L 516.2,271.8 L 520.4,271.6 L 524.6,271.6 L 528.9,271.6 L 533.1,271.6 L 537.3,271.6 L 541.6,271.6 L 545.8,271.0 L 550.0,271.0 L 554.3,270.6 L 558.5,270.2 L 562.7,269.6 L 566.9,269.4 L 571.2,269.4 L 575.4,268.4 L 579.6,268.2 L 583.9,268.2 L 588.1,267.6 L 592.3,267.6 L 596.6,267.4 L 600.8,267.4 L 605.0,267.6 L 609.2,267.8 L 613.5,267.6 L 617.7,267.2 L 621.9,267.4 L 626.2,267.2 L 630.4,267.0 L 634.6,267.0 L 638.9,267.0 L 643.1,267.0 L 647.3,266.6 L 651.6,266.6 L 655.8,266.6 L 660.0,265.9 L 664.2,265.9 L 668.5,265.9 L 672.7,265.9 L 676.9,265.9 L 681.2,265.9 L 685.4,265.5 L 689.6,265.5 L 693.9,265.1 L 698.1,264.3 L 702.3,264.1 L 706.5,264.1 L 710.8,264.1 L 715.0,264.1 L 719.2,263.7 L 723.5,263.5 L 727.7,263.5 L 731.9,263.3 L 736.2,262.7 L 740.4,262.3 L 744.6,262.3 L 748.8,262.1 L 753.1,262.1 L 757.3,261.9 L 761.5,261.7 L 765.8,261.7 L 770.0,261.5" fill="none" stroke="#34C759" stroke-width="2.5" stroke-linejoin="round" clip-path="url(#ca)"/>
<text x="95.3" y="55.0" text-anchor="middle" font-size="9" fill="#4F8EF7" opacity="0.85" clip-path="url(#ca)">+0.5% (+8)</text>
<text x="95.3" y="66.0" text-anchor="middle" font-size="9" fill="#BF5AF2" opacity="0.85" clip-path="url(#ca)">+1.0% (+10)</text>
<text x="95.3" y="77.0" text-anchor="middle" font-size="9" fill="#34C759" opacity="0.85" clip-path="url(#ca)">+1.5% (+11)</text>
<text x="175.6" y="55.0" text-anchor="middle" font-size="9" fill="#4F8EF7" opacity="0.85" clip-path="url(#ca)">+4.0% (+65)</text>
<text x="175.6" y="66.0" text-anchor="middle" font-size="9" fill="#BF5AF2" opacity="0.85" clip-path="url(#ca)">+3.5% (+35)</text>
<text x="175.6" y="77.0" text-anchor="middle" font-size="9" fill="#34C759" opacity="0.85" clip-path="url(#ca)">+3.6% (+27)</text>
<text x="287.7" y="55.0" text-anchor="middle" font-size="9" fill="#4F8EF7" opacity="0.85" clip-path="url(#ca)">+4.1% (+70)</text>
<text x="287.7" y="66.0" text-anchor="middle" font-size="9" fill="#BF5AF2" opacity="0.85" clip-path="url(#ca)">+3.5% (+36)</text>
<text x="287.7" y="77.0" text-anchor="middle" font-size="9" fill="#34C759" opacity="0.85" clip-path="url(#ca)">+3.3% (+26)</text>
<text x="402.0" y="55.0" text-anchor="middle" font-size="9" fill="#4F8EF7" opacity="0.85" clip-path="url(#ca)">+3.5% (+61)</text>
<text x="402.0" y="66.0" text-anchor="middle" font-size="9" fill="#BF5AF2" opacity="0.85" clip-path="url(#ca)">+2.7% (+29)</text>
<text x="402.0" y="77.0" text-anchor="middle" font-size="9" fill="#34C759" opacity="0.85" clip-path="url(#ca)">+2.6% (+21)</text>
<text x="516.2" y="55.0" text-anchor="middle" font-size="9" fill="#4F8EF7" opacity="0.85" clip-path="url(#ca)">+2.7% (+49)</text>
<text x="516.2" y="66.0" text-anchor="middle" font-size="9" fill="#BF5AF2" opacity="0.85" clip-path="url(#ca)">+3.0% (+33)</text>
<text x="516.2" y="77.0" text-anchor="middle" font-size="9" fill="#34C759" opacity="0.85" clip-path="url(#ca)">+3.2% (+27)</text>
<text x="628.3" y="55.0" text-anchor="middle" font-size="9" fill="#4F8EF7" opacity="0.85" clip-path="url(#ca)">+2.9% (+54)</text>
<text x="628.3" y="66.0" text-anchor="middle" font-size="9" fill="#BF5AF2" opacity="0.85" clip-path="url(#ca)">+1.9% (+22)</text>
<text x="628.3" y="77.0" text-anchor="middle" font-size="9" fill="#34C759" opacity="0.85" clip-path="url(#ca)">+1.5% (+13)</text>
<text x="727.7" y="55.0" text-anchor="middle" font-size="9" fill="#4F8EF7" opacity="0.85" clip-path="url(#ca)">+2.5% (+48)</text>
<text x="727.7" y="66.0" text-anchor="middle" font-size="9" fill="#BF5AF2" opacity="0.85" clip-path="url(#ca)">+2.4% (+28)</text>
<text x="727.7" y="77.0" text-anchor="middle" font-size="9" fill="#34C759" opacity="0.85" clip-path="url(#ca)">+2.3% (+20)</text>
<rect x="211" y="369" width="12" height="12" fill="#4F8EF7" rx="2"/>
<text x="227" y="379" font-size="12" fill="#111827">Authors</text>
<rect x="351" y="369" width="12" height="12" fill="#BF5AF2" rx="2"/>
<text x="367" y="379" font-size="12" fill="#111827">Contributors</text>
<rect x="491" y="369" width="12" height="12" fill="#34C759" rx="2"/>
<text x="507" y="379" font-size="12" fill="#111827">Non-author contributors</text>
<text x="72" y="394" font-size="8" fill="#e5e7eb">data since Dec 11, 2025</text>
</svg>