<svg xmlns="http://www.w3.org/2000/svg" width="800" height="400" viewBox="0 0 800 400">
<defs>
  <style>text { font-family: -apple-system, BlinkMacSystemFont, 'Segoe UI', Roboto, sans-serif; }</style>
  <linearGradient id="g5" x1="0" y1="0" x2="0" y2="1">
  <stop offset="0%" stop-color="#34C759" stop-opacity="0.25"/>
  <stop offset="100%" stop-color="#34C759" stop-opacity="0"/>
</linearGradient>
<linearGradient id="g6" x1="0" y1="0" x2="0" y2="1">
  <stop offset="0%" stop-color="#4F8EF7" stop-opacity="0.25"/>
  <stop offset="100%" stop-color="#4F8EF7" stop-opacity="0"/>
</linearGradient>
<linearGradient id="g7" x1="0" y1="0" x2="0" y2="1">
  <stop offset="0%" stop-color="#FF6363" stop-opacity="0.25"/>
  <stop offset="100%" stop-color="#FF6363" stop-opacity="0"/>
</linearGradient>
  <clipPath id="ca"><rect x="72" y="45" width="698" height="295"/></clipPath>
</defs>
<rect width="800" height="400" fill="#ffffff" rx="12"/>
<text x="400" y="26" text-anchor="middle" font-size="15" font-weight="600" fill="#111827">Platform Support Over Time</text>
<line x1="72" y1="340.0" x2="770" y2="340.0" stroke="#f3f4f6" stroke-width="1"/>
<text x="66" y="344.0" text-anchor="end" font-size="11" fill="#6b7280">0</text>
<line x1="72" y1="281.0" x2="770" y2="281.0" stroke="#f3f4f6" stroke-width="1"/>
<text x="66" y="285.0" text-anchor="end" font-size="11" fill="#6b7280">200</text>
<line x1="72" y1="222.0" x2="770" y2="222.0" stroke="#f3f4f6" stroke-width="1"/>
<text x="66" y="226.0" text-anchor="end" font-size="11" fill="#6b7280">400</text>
<line x1="72" y1="163.0" x2="770" y2="163.0" stroke="#f3f4f6" stroke-width="1"/>
<text x="66" y="167.0" text-anchor="end" font-size="11" fill="#6b7280">600</text>
<line x1="72" y1="104.0" x2="770" y2="104.0" stroke="#f3f4f6" stroke-width="1"/>
<text x="66" y="108.0" text-anchor="end" font-size="11" fill="#6b7280">800</text>
<line x1="72" y1="45.0" x2="770" y2="45.0" stroke="#f3f4f6" stroke-width="1"/>
<text x="66" y="49.0" text-anchor="end" font-size="11" fill="#6b7280">1.0k</text>
<line x1="121.9" y1="45" x2="121.9" y2="340" stroke="#e5e7eb" stroke-width="1" stroke-dasharray="3,3" clip-path="url(#ca)"/>
<line x1="229.9" y1="45" x2="229.9" y2="340" stroke="#e5e7eb" stroke-width="1" stroke-dasharray="3,3" clip-path="url(#ca)"/>
<line x1="342.1" y1="45" x2="342.1" y2="340" stroke="#e5e7eb" stroke-width="1" stroke-dasharray="3,3" clip-path="url(#ca)"/>
<line x1="454.2" y1="45" x2="454.2" y2="340" stroke="#e5e7eb" stroke-width="1" stroke-dasharray="3,3" clip-path="url(#ca)"/>
<line x1="566.4" y1="45" x2="566.4" y2="340" stroke="#e5e7eb" stroke-width="1" stroke-dasharray="3,3" clip-path="url(#ca)"/>
<line x1="674.4" y1="45" x2="674.4" y2="340" stroke="#e5e7eb" stroke-width="1" stroke-dasharray="3,3" clip-path="url(#ca)"/>
<text x="72.0" y="358.0" text-anchor="middle" font-size="11" fill="#6b7280">Dec 11</text>
<text x="213.3" y="358.0" text-anchor="middle" font-size="11" fill="#6b7280">Jan 28</text>
<text x="350.4" y="358.0" text-anchor="middle" font-size="11" fill="#6b7280">Mar 3</text>
<text x="491.6" y="358.0" text-anchor="middle" font-size="11" fill="#6b7280">Apr 11</text>
<text x="628.7" y="358.0" text-anchor="middle" font-size="11" fill="#6b7280">May 21</text>
<text x="770.0" y="358.0" text-anchor="middle" font-size="11" fill="#6b7280">Jun 30</text>
<line x1="72" y1="45" x2="72" y2="340" stroke="#e5e7eb" stroke-width="1"/>
<line x1="72" y1="340" x2="770" y2="340" stroke="#e5e7eb" stroke-width="1"/>
<text x="-192.5" y="18" text-anchor="middle" font-size="12" fill="#6b7280" transform="rotate(-90)">Extensions</text>
<path d="M 72.0,340 L 72.0,242.6 L 76.2,240.0 L 80.3,239.7 L 84.5,238.5 L 88.6,237.9 L 92.8,235.0 L 96.9,233.2 L 101.1,232.3 L 105.2,230.8 L 109.4,229.1 L 113.5,228.2 L 117.7,227.9 L 121.9,227.0 L 126.0,226.4 L 130.2,226.1 L 134.3,225.2 L 138.5,224.4 L 142.6,223.5 L 146.8,222.6 L 150.9,221.4 L 155.1,220.5 L 159.3,219.6 L 163.4,218.8 L 167.6,217.0 L 171.7,216.4 L 175.9,216.4 L 180.0,214.3 L 184.2,213.7 L 188.3,213.2 L 192.5,212.6 L 196.6,211.1 L 200.8,209.0 L 205.0,208.7 L 209.1,208.4 L 213.3,206.7 L 217.4,206.1 L 221.6,204.6 L 225.7,204.3 L 229.9,204.0 L 234.0,203.4 L 238.2,203.4 L 242.3,203.4 L 246.5,199.3 L 250.7,199.0 L 254.8,198.1 L 259.0,197.8 L 263.1,197.5 L 267.3,196.6 L 271.4,196.0 L 275.6,195.4 L 279.7,193.7 L 283.9,193.7 L 288.0,193.7 L 292.2,193.4 L 296.4,190.4 L 300.5,189.6 L 304.7,189.0 L 308.8,188.1 L 313.0,187.5 L 317.1,187.5 L 321.3,186.0 L 325.4,183.9 L 329.6,183.4 L 333.8,183.1 L 337.9,182.2 L 342.1,182.2 L 346.2,181.6 L 350.4,180.7 L 354.5,180.1 L 358.7,178.9 L 362.8,177.8 L 367.0,177.5 L 371.1,177.5 L 375.3,176.3 L 379.5,176.3 L 383.6,176.3 L 387.8,174.5 L 391.9,174.2 L 396.1,173.9 L 400.2,173.9 L 404.4,173.6 L 408.5,172.4 L 412.7,171.9 L 416.8,171.0 L 421.0,171.0 L 425.2,170.7 L 429.3,169.5 L 433.5,168.6 L 437.6,168.6 L 441.8,168.3 L 445.9,167.7 L 450.1,165.7 L 454.2,165.1 L 458.4,164.2 L 462.5,164.2 L 466.7,163.6 L 470.9,163.3 L 475.0,163.0 L 479.2,162.7 L 483.3,162.4 L 487.5,162.4 L 491.6,162.1 L 495.8,161.8 L 499.9,160.9 L 504.1,159.8 L 508.3,159.5 L 512.4,158.6 L 516.6,158.6 L 520.7,157.4 L 524.9,157.1 L 529.0,157.1 L 533.2,157.1 L 537.3,156.2 L 541.5,155.9 L 545.6,155.9 L 549.8,155.9 L 554.0,155.6 L 558.1,154.4 L 562.3,154.2 L 566.4,153.3 L 570.6,152.7 L 574.7,152.7 L 578.9,151.8 L 583.0,151.2 L 587.2,151.2 L 591.3,150.9 L 595.5,149.4 L 599.7,148.0 L 603.8,147.7 L 608.0,147.1 L 612.1,145.9 L 616.3,145.9 L 620.4,145.3 L 624.6,143.8 L 628.7,141.2 L 632.9,140.3 L 637.0,140.3 L 641.2,140.3 L 645.4,140.3 L 649.5,140.3 L 653.7,139.1 L 657.8,138.2 L 662.0,138.2 L 666.1,138.2 L 670.3,138.2 L 674.4,137.3 L 678.6,137.3 L 682.8,136.5 L 686.9,135.6 L 691.1,135.3 L 695.2,135.0 L 699.4,134.4 L 703.5,134.4 L 707.7,133.5 L 711.8,132.3 L 716.0,131.4 L 720.1,129.7 L 724.3,129.1 L 728.5,128.8 L 732.6,128.5 L 736.8,127.9 L 740.9,127.6 L 745.1,126.1 L 749.2,125.2 L 753.4,123.8 L 757.5,123.5 L 761.7,123.5 L 765.8,123.2 L 770.0,122.0 L 770.0,340 Z" fill="url(#g5)" clip-path="url(#ca)"/>
<path d="M 72.0,242.6 L 76.2,240.0 L 80.3,239.7 L 84.5,238.5 L 88.6,237.9 L 92.8,235.0 L 96.9,233.2 L 101.1,232.3 L 105.2,230.8 L 109.4,229.1 L 113.5,228.2 L 117.7,227.9 L 121.9,227.0 L 126.0,226.4 L 130.2,226.1 L 134.3,225.2 L 138.5,224.4 L 142.6,223.5 L 146.8,222.6 L 150.9,221.4 L 155.1,220.5 L 159.3,219.6 L 163.4,218.8 L 167.6,217.0 L 171.7,216.4 L 175.9,216.4 L 180.0,214.3 L 184.2,213.7 L 188.3,213.2 L 192.5,212.6 L 196.6,211.1 L 200.8,209.0 L 205.0,208.7 L 209.1,208.4 L 213.3,206.7 L 217.4,206.1 L 221.6,204.6 L 225.7,204.3 L 229.9,204.0 L 234.0,203.4 L 238.2,203.4 L 242.3,203.4 L 246.5,199.3 L 250.7,199.0 L 254.8,198.1 L 259.0,197.8 L 263.1,197.5 L 267.3,196.6 L 271.4,196.0 L 275.6,195.4 L 279.7,193.7 L 283.9,193.7 L 288.0,193.7 L 292.2,193.4 L 296.4,190.4 L 300.5,189.6 L 304.7,189.0 L 308.8,188.1 L 313.0,187.5 L 317.1,187.5 L 321.3,186.0 L 325.4,183.9 L 329.6,183.4 L 333.8,183.1 L 337.9,182.2 L 342.1,182.2 L 346.2,181.6 L 350.4,180.7 L 354.5,180.1 L 358.7,178.9 L 362.8,177.8 L 367.0,177.5 L 371.1,177.5 L 375.3,176.3 L 379.5,176.3 L 383.6,176.3 L 387.8,174.5 L 391.9,174.2 L 396.1,173.9 L 400.2,173.9 L 404.4,173.6 L 408.5,172.4 L 412.7,171.9 L 416.8,171.0 L 421.0,171.0 L 425.2,170.7 L 429.3,169.5 L 433.5,168.6 L 437.6,168.6 L 441.8,168.3 L 445.9,167.7 L 450.1,165.7 L 454.2,165.1 L 458.4,164.2 L 462.5,164.2 L 466.7,163.6 L 470.9,163.3 L 475.0,163.0 L 479.2,162.7 L 483.3,162.4 L 487.5,162.4 L 491.6,162.1 L 495.8,161.8 L 499.9,160.9 L 504.1,159.8 L 508.3,159.5 L 512.4,158.6 L 516.6,158.6 L 520.7,157.4 L 524.9,157.1 L 529.0,157.1 L 533.2,157.1 L 537.3,156.2 L 541.5,155.9 L 545.6,155.9 L 549.8,155.9 L 554.0,155.6 L 558.1,154.4 L 562.3,154.2 L 566.4,153.3 L 570.6,152.7 L 574.7,152.7 L 578.9,151.8 L 583.0,151.2 L 587.2,151.2 L 591.3,150.9 L 595.5,149.4 L 599.7,148.0 L 603.8,147.7 L 608.0,147.1 L 612.1,145.9 L 616.3,145.9 L 620.4,145.3 L 624.6,143.8 L 628.7,141.2 L 632.9,140.3 L 637.0,140.3 L 641.2,140.3 L 645.4,140.3 L 649.5,140.3 L 653.7,139.1 L 657.8,138.2 L 662.0,138.2 L 666.1,138.2 L 670.3,138.2 L 674.4,137.3 L 678.6,137.3 L 682.8,136.5 L 686.9,135.6 L 691.1,135.3 L 695.2,135.0 L 699.4,134.4 L 703.5,134.4 L 707.7,133.5 L 711.8,132.3 L 716.0,131.4 L 720.1,129.7 L 724.3,129.1 L 728.5,128.8 L 732.6,128.5 L 736.8,127.9 L 740.9,127.6 L 745.1,126.1 L 749.2,125.2 L 753.4,123.8 L 757.5,123.5 L 761.7,123.5 L 765.8,123.2 L 770.0,122.0" fill="none" stroke="#34C759" stroke-width="2.5" stroke-linejoin="round" clip-path="url(#ca)"/>
<path d="M 72.0,340 L 72.0,222.6 L 76.2,222.6 L 80.3,222.3 L 84.5,221.4 L 88.6,221.7 L 92.8,221.7 L 96.9,220.5 L 101.1,219.6 L 105.2,219.6 L 109.4,219.9 L 113.5,219.6 L 117.7,219.3 L 121.9,219.1 L 126.0,219.1 L 130.2,219.1 L 134.3,219.3 L 138.5,218.8 L 142.6,218.2 L 146.8,216.4 L 150.9,215.2 L 155.1,215.2 L 159.3,214.9 L 163.4,213.2 L 167.6,210.5 L 171.7,209.6 L 175.9,209.0 L 180.0,207.0 L 184.2,205.5 L 188.3,204.9 L 192.5,204.3 L 196.6,203.7 L 200.8,203.4 L 205.0,203.4 L 209.1,201.3 L 213.3,200.8 L 217.4,200.2 L 221.6,200.2 L 225.7,198.7 L 229.9,198.4 L 234.0,197.5 L 238.2,196.3 L 242.3,194.9 L 246.5,192.8 L 250.7,190.7 L 254.8,190.4 L 259.0,189.8 L 263.1,189.3 L 267.3,187.5 L 271.4,187.5 L 275.6,186.9 L 279.7,186.0 L 283.9,185.4 L 288.0,184.2 L 292.2,184.5 L 296.4,181.0 L 300.5,180.7 L 304.7,180.4 L 308.8,179.8 L 313.0,178.0 L 317.1,178.0 L 321.3,176.3 L 325.4,174.2 L 329.6,174.2 L 333.8,174.2 L 337.9,173.9 L 342.1,173.6 L 346.2,173.3 L 350.4,171.9 L 354.5,170.1 L 358.7,169.5 L 362.8,168.3 L 367.0,168.3 L 371.1,167.4 L 375.3,165.7 L 379.5,164.8 L 383.6,164.5 L 387.8,162.4 L 391.9,162.1 L 396.1,162.1 L 400.2,161.8 L 404.4,161.8 L 408.5,160.3 L 412.7,159.8 L 416.8,158.9 L 421.0,158.6 L 425.2,158.0 L 429.3,155.6 L 433.5,152.4 L 437.6,152.1 L 441.8,151.5 L 445.9,151.2 L 450.1,149.7 L 454.2,118.5 L 458.4,117.9 L 462.5,116.4 L 466.7,116.4 L 470.9,116.4 L 475.0,116.7 L 479.2,116.4 L 483.3,114.6 L 487.5,114.0 L 491.6,113.7 L 495.8,113.4 L 499.9,112.3 L 504.1,110.5 L 508.3,110.5 L 512.4,110.5 L 516.6,110.2 L 520.7,109.9 L 524.9,109.9 L 529.0,109.3 L 533.2,108.4 L 537.3,106.9 L 541.5,106.4 L 545.6,106.1 L 549.8,106.1 L 554.0,105.8 L 558.1,105.2 L 562.3,104.9 L 566.4,103.4 L 570.6,103.4 L 574.7,102.8 L 578.9,101.6 L 583.0,100.2 L 587.2,99.9 L 591.3,99.6 L 595.5,96.9 L 599.7,96.3 L 603.8,95.7 L 608.0,95.7 L 612.1,94.6 L 616.3,94.0 L 620.4,92.5 L 624.6,91.9 L 628.7,91.0 L 632.9,90.7 L 637.0,89.5 L 641.2,88.7 L 645.4,88.4 L 649.5,87.8 L 653.7,86.6 L 657.8,86.0 L 662.0,85.1 L 666.1,84.5 L 670.3,84.2 L 674.4,83.6 L 678.6,82.8 L 682.8,82.2 L 686.9,81.6 L 691.1,80.7 L 695.2,80.7 L 699.4,80.1 L 703.5,78.6 L 707.7,77.2 L 711.8,76.3 L 716.0,76.6 L 720.1,76.0 L 724.3,75.7 L 728.5,75.4 L 732.6,74.8 L 736.8,73.3 L 740.9,73.3 L 745.1,73.0 L 749.2,72.1 L 753.4,71.3 L 757.5,70.1 L 761.7,69.5 L 765.8,69.5 L 770.0,68.6 L 770.0,340 Z" fill="url(#g6)" clip-path="url(#ca)"/>
<path d="M 72.0,222.6 L 76.2,222.6 L 80.3,222.3 L 84.5,221.4 L 88.6,221.7 L 92.8,221.7 L 96.9,220.5 L 101.1,219.6 L 105.2,219.6 L 109.4,219.9 L 113.5,219.6 L 117.7,219.3 L 121.9,219.1 L 126.0,219.1 L 130.2,219.1 L 134.3,219.3 L 138.5,218.8 L 142.6,218.2 L 146.8,216.4 L 150.9,215.2 L 155.1,215.2 L 159.3,214.9 L 163.4,213.2 L 167.6,210.5 L 171.7,209.6 L 175.9,209.0 L 180.0,207.0 L 184.2,205.5 L 188.3,204.9 L 192.5,204.3 L 196.6,203.7 L 200.8,203.4 L 205.0,203.4 L 209.1,201.3 L 213.3,200.8 L 217.4,200.2 L 221.6,200.2 L 225.7,198.7 L 229.9,198.4 L 234.0,197.5 L 238.2,196.3 L 242.3,194.9 L 246.5,192.8 L 250.7,190.7 L 254.8,190.4 L 259.0,189.8 L 263.1,189.3 L 267.3,187.5 L 271.4,187.5 L 275.6,186.9 L 279.7,186.0 L 283.9,185.4 L 288.0,184.2 L 292.2,184.5 L 296.4,181.0 L 300.5,180.7 L 304.7,180.4 L 308.8,179.8 L 313.0,178.0 L 317.1,178.0 L 321.3,176.3 L 325.4,174.2 L 329.6,174.2 L 333.8,174.2 L 337.9,173.9 L 342.1,173.6 L 346.2,173.3 L 350.4,171.9 L 354.5,170.1 L 358.7,169.5 L 362.8,168.3 L 367.0,168.3 L 371.1,167.4 L 375.3,165.7 L 379.5,164.8 L 383.6,164.5 L 387.8,162.4 L 391.9,162.1 L 396.1,162.1 L 400.2,161.8 L 404.4,161.8 L 408.5,160.3 L 412.7,159.8 L 416.8,158.9 L 421.0,158.6 L 425.2,158.0 L 429.3,155.6 L 433.5,152.4 L 437.6,152.1 L 441.8,151.5 L 445.9,151.2 L 450.1,149.7 L 454.2,118.5 L 458.4,117.9 L 462.5,116.4 L 466.7,116.4 L 470.9,116.4 L 475.0,116.7 L 479.2,116.4 L 483.3,114.6 L 487.5,114.0 L 491.6,113.7 L 495.8,113.4 L 499.9,112.3 L 504.1,110.5 L 508.3,110.5 L 512.4,110.5 L 516.6,110.2 L 520.7,109.9 L 524.9,109.9 L 529.0,109.3 L 533.2,108.4 L 537.3,106.9 L 541.5,106.4 L 545.6,106.1 L 549.8,106.1 L 554.0,105.8 L 558.1,105.2 L 562.3,104.9 L 566.4,103.4 L 570.6,103.4 L 574.7,102.8 L 578.9,101.6 L 583.0,100.2 L 587.2,99.9 L 591.3,99.6 L 595.5,96.9 L 599.7,96.3 L 603.8,95.7 L 608.0,95.7 L 612.1,94.6 L 616.3,94.0 L 620.4,92.5 L 624.6,91.9 L 628.7,91.0 L 632.9,90.7 L 637.0,89.5 L 641.2,88.7 L 645.4,88.4 L 649.5,87.8 L 653.7,86.6 L 657.8,86.0 L 662.0,85.1 L 666.1,84.5 L 670.3,84.2 L 674.4,83.6 L 678.6,82.8 L 682.8,82.2 L 686.9,81.6 L 691.1,80.7 L 695.2,80.7 L 699.4,80.1 L 703.5,78.6 L 707.7,77.2 L 711.8,76.3 L 716.0,76.6 L 720.1,76.0 L 724.3,75.7 L 728.5,75.4 L 732.6,74.8 L 736.8,73.3 L 740.9,73.3 L 745.1,73.0 L 749.2,72.1 L 753.4,71.3 L 757.5,70.1 L 761.7,69.5 L 765.8,69.5 L 770.0,68.6" fill="none" stroke="#4F8EF7" stroke-width="2.5" stroke-linejoin="round" clip-path="url(#ca)"/>
<path d="M 72.0,340 L 72.0,338.2 L 76.2,337.9 L 80.3,337.9 L 84.5,337.6 L 88.6,337.6 L 92.8,337.6 L 96.9,337.6 L 101.1,337.6 L 105.2,337.1 L 109.4,337.1 L 113.5,337.1 L 117.7,337.1 L 121.9,337.1 L 126.0,336.8 L 130.2,336.8 L 134.3,336.8 L 138.5,336.8 L 142.6,336.8 L 146.8,336.5 L 150.9,335.9 L 155.1,335.6 L 159.3,335.6 L 163.4,335.6 L 167.6,335.3 L 171.7,335.3 L 175.9,335.3 L 180.0,335.0 L 184.2,335.0 L 188.3,335.0 L 192.5,334.7 L 196.6,334.7 L 200.8,334.7 L 205.0,334.7 L 209.1,334.4 L 213.3,334.4 L 217.4,334.4 L 221.6,334.4 L 225.7,334.4 L 229.9,334.4 L 234.0,334.4 L 238.2,334.4 L 242.3,334.4 L 246.5,334.4 L 250.7,334.4 L 254.8,334.4 L 259.0,334.4 L 263.1,334.1 L 267.3,334.1 L 271.4,334.1 L 275.6,334.1 L 279.7,334.1 L 283.9,334.1 L 288.0,334.1 L 292.2,334.1 L 296.4,334.1 L 300.5,334.1 L 304.7,334.1 L 308.8,334.1 L 313.0,333.8 L 317.1,333.8 L 321.3,333.8 L 325.4,333.8 L 329.6,333.8 L 333.8,333.8 L 337.9,333.8 L 342.1,333.8 L 346.2,333.8 L 350.4,333.8 L 354.5,333.8 L 358.7,333.8 L 362.8,333.8 L 367.0,333.8 L 371.1,333.8 L 375.3,333.8 L 379.5,333.8 L 383.6,333.8 L 387.8,333.8 L 391.9,333.8 L 396.1,333.8 L 400.2,333.8 L 404.4,333.8 L 408.5,333.8 L 412.7,333.8 L 416.8,333.8 L 421.0,333.8 L 425.2,333.8 L 429.3,333.8 L 433.5,333.8 L 437.6,333.8 L 441.8,333.8 L 445.9,333.8 L 450.1,333.8 L 454.2,333.8 L 458.4,333.8 L 462.5,333.5 L 466.7,333.5 L 470.9,333.5 L 475.0,333.5 L 479.2,333.5 L 483.3,333.2 L 487.5,333.2 L 491.6,333.2 L 495.8,333.2 L 499.9,332.9 L 504.1,332.9 L 508.3,332.6 L 512.4,332.6 L 516.6,332.6 L 520.7,332.6 L 524.9,332.6 L 529.0,332.6 L 533.2,332.6 L 537.3,332.6 L 541.5,332.6 L 545.6,332.6 L 549.8,332.6 L 554.0,332.6 L 558.1,332.6 L 562.3,332.6 L 566.4,332.6 L 570.6,332.6 L 574.7,332.6 L 578.9,332.6 L 583.0,332.6 L 587.2,332.6 L 591.3,332.6 L 595.5,332.6 L 599.7,332.6 L 603.8,332.6 L 608.0,332.6 L 612.1,332.6 L 616.3,332.6 L 620.4,332.6 L 624.6,332.6 L 628.7,332.6 L 632.9,332.6 L 637.0,332.6 L 641.2,332.6 L 645.4,332.6 L 649.5,332.6 L 653.7,332.6 L 657.8,332.6 L 662.0,332.6 L 666.1,332.6 L 670.3,332.6 L 674.4,332.6 L 678.6,332.6 L 682.8,332.6 L 686.9,332.6 L 691.1,332.6 L 695.2,332.6 L 699.4,332.6 L 703.5,332.6 L 707.7,332.3 L 711.8,332.3 L 716.0,332.3 L 720.1,332.3 L 724.3,332.3 L 728.5,332.3 L 732.6,332.3 L 736.8,332.3 L 740.9,332.3 L 745.1,332.3 L 749.2,332.3 L 753.4,332.0 L 757.5,332.0 L 761.7,332.0 L 765.8,332.0 L 770.0,332.0 L 770.0,340 Z" fill="url(#g7)" clip-path="url(#ca)"/>
<path d="M 72.0,338.2 L 76.2,337.9 L 80.3,337.9 L 84.5,337.6 L 88.6,337.6 L 92.8,337.6 L 96.9,337.6 L 101.1,337.6 L 105.2,337.1 L 109.4,337.1 L 113.5,337.1 L 117.7,337.1 L 121.9,337.1 L 126.0,336.8 L 130.2,336.8 L 134.3,336.8 L 138.5,336.8 L 142.6,336.8 L 146.8,336.5 L 150.9,335.9 L 155.1,335.6 L 159.3,335.6 L 163.4,335.6 L 167.6,335.3 L 171.7,335.3 L 175.9,335.3 L 180.0,335.0 L 184.2,335.0 L 188.3,335.0 L 192.5,334.7 L 196.6,334.7 L 200.8,334.7 L 205.0,334.7 L 209.1,334.4 L 213.3,334.4 L 217.4,334.4 L 221.6,334.4 L 225.7,334.4 L 229.9,334.4 L 234.0,334.4 L 238.2,334.4 L 242.3,334.4 L 246.5,334.4 L 250.7,334.4 L 254.8,334.4 L 259.0,334.4 L 263.1,334.1 L 267.3,334.1 L 271.4,334.1 L 275.6,334.1 L 279.7,334.1 L 283.9,334.1 L 288.0,334.1 L 292.2,334.1 L 296.4,334.1 L 300.5,334.1 L 304.7,334.1 L 308.8,334.1 L 313.0,333.8 L 317.1,333.8 L 321.3,333.8 L 325.4,333.8 L 329.6,333.8 L 333.8,333.8 L 337.9,333.8 L 342.1,333.8 L 346.2,333.8 L 350.4,333.8 L 354.5,333.8 L 358.7,333.8 L 362.8,333.8 L 367.0,333.8 L 371.1,333.8 L 375.3,333.8 L 379.5,333.8 L 383.6,333.8 L 387.8,333.8 L 391.9,333.8 L 396.1,333.8 L 400.2,333.8 L 404.4,333.8 L 408.5,333.8 L 412.7,333.8 L 416.8,333.8 L 421.0,333.8 L 425.2,333.8 L 429.3,333.8 L 433.5,333.8 L 437.6,333.8 L 441.8,333.8 L 445.9,333.8 L 450.1,333.8 L 454.2,333.8 L 458.4,333.8 L 462.5,333.5 L 466.7,333.5 L 470.9,333.5 L 475.0,333.5 L 479.2,333.5 L 483.3,333.2 L 487.5,333.2 L 491.6,333.2 L 495.8,333.2 L 499.9,332.9 L 504.1,332.9 L 508.3,332.6 L 512.4,332.6 L 516.6,332.6 L 520.7,332.6 L 524.9,332.6 L 529.0,332.6 L 533.2,332.6 L 537.3,332.6 L 541.5,332.6 L 545.6,332.6 L 549.8,332.6 L 554.0,332.6 L 558.1,332.6 L 562.3,332.6 L 566.4,332.6 L 570.6,332.6 L 574.7,332.6 L 578.9,332.6 L 583.0,332.6 L 587.2,332.6 L 591.3,332.6 L 595.5,332.6 L 599.7,332.6 L 603.8,332.6 L 608.0,332.6 L 612.1,332.6 L 616.3,332.6 L 620.4,332.6 L 624.6,332.6 L 628.7,332.6 L 632.9,332.6 L 637.0,332.6 L 641.2,332.6 L 645.4,332.6 L 649.5,332.6 L 653.7,332.6 L 657.8,332.6 L 662.0,332.6 L 666.1,332.6 L 670.3,332.6 L 674.4,332.6 L 678.6,332.6 L 682.8,332.6 L 686.9,332.6 L 691.1,332.6 L 695.2,332.6 L 699.4,332.6 L 703.5,332.6 L 707.7,332.3 L 711.8,332.3 L 716.0,332.3 L 720.1,332.3 L 724.3,332.3 L 728.5,332.3 L 732.6,332.3 L 736.8,332.3 L 740.9,332.3 L 745.1,332.3 L 749.2,332.3 L 753.4,332.0 L 757.5,332.0 L 761.7,332.0 L 765.8,332.0 L 770.0,332.0" fill="none" stroke="#FF6363" stroke-width="2.5" stroke-linejoin="round" clip-path="url(#ca)"/>
<text x="94.9" y="55.0" text-anchor="middle" font-size="9" fill="#34C759" opacity="0.85" clip-path="url(#ca)">+15.2% (+50)</text>
<text x="94.9" y="66.0" text-anchor="middle" font-size="9" fill="#4F8EF7" opacity="0.85" clip-path="url(#ca)">+2.8% (+11)</text>
<text x="94.9" y="77.0" text-anchor="middle" font-size="9" fill="#FF6363" opacity="0.85" clip-path="url(#ca)">+66.7% (+4)</text>
<text x="173.8" y="55.0" text-anchor="middle" font-size="9" fill="#34C759" opacity="0.85" clip-path="url(#ca)">+20.1% (+77)</text>
<text x="173.8" y="66.0" text-anchor="middle" font-size="9" fill="#4F8EF7" opacity="0.85" clip-path="url(#ca)">+16.8% (+69)</text>
<text x="173.8" y="77.0" text-anchor="middle" font-size="9" fill="#FF6363" opacity="0.85" clip-path="url(#ca)">+90.0% (+9)</text>
<text x="283.9" y="55.0" text-anchor="middle" font-size="9" fill="#34C759" opacity="0.85" clip-path="url(#ca)">+16.1% (+74)</text>
<text x="283.9" y="66.0" text-anchor="middle" font-size="9" fill="#4F8EF7" opacity="0.85" clip-path="url(#ca)">+17.3% (+83)</text>
<text x="283.9" y="77.0" text-anchor="middle" font-size="9" fill="#FF6363" opacity="0.85" clip-path="url(#ca)">+10.5% (+2)</text>
<text x="396.1" y="55.0" text-anchor="middle" font-size="9" fill="#34C759" opacity="0.85" clip-path="url(#ca)">+10.5% (+56)</text>
<text x="396.1" y="66.0" text-anchor="middle" font-size="9" fill="#4F8EF7" opacity="0.85" clip-path="url(#ca)">+14.4% (+81)</text>
<text x="396.1" y="77.0" text-anchor="middle" font-size="9" fill="#FF6363" opacity="0.85" clip-path="url(#ca)">+0.0% (+0)</text>
<text x="508.3" y="55.0" text-anchor="middle" font-size="9" fill="#34C759" opacity="0.85" clip-path="url(#ca)">+6.2% (+37)</text>
<text x="508.3" y="66.0" text-anchor="middle" font-size="9" fill="#4F8EF7" opacity="0.85" clip-path="url(#ca)">+6.1% (+46)</text>
<text x="508.3" y="77.0" text-anchor="middle" font-size="9" fill="#FF6363" opacity="0.85" clip-path="url(#ca)">+19.0% (+4)</text>
<text x="618.4" y="55.0" text-anchor="middle" font-size="9" fill="#34C759" opacity="0.85" clip-path="url(#ca)">+8.1% (+51)</text>
<text x="618.4" y="66.0" text-anchor="middle" font-size="9" fill="#4F8EF7" opacity="0.85" clip-path="url(#ca)">+8.1% (+65)</text>
<text x="618.4" y="77.0" text-anchor="middle" font-size="9" fill="#FF6363" opacity="0.85" clip-path="url(#ca)">+0.0% (+0)</text>
<text x="722.2" y="55.0" text-anchor="middle" font-size="9" fill="#34C759" opacity="0.85" clip-path="url(#ca)">+7.6% (+52)</text>
<text x="722.2" y="66.0" text-anchor="middle" font-size="9" fill="#4F8EF7" opacity="0.85" clip-path="url(#ca)">+5.9% (+51)</text>
<text x="722.2" y="77.0" text-anchor="middle" font-size="9" fill="#FF6363" opacity="0.85" clip-path="url(#ca)">+8.0% (+2)</text>
<rect x="211" y="369" width="12" height="12" fill="#34C759" rx="2"/>
<text x="227" y="379" font-size="12" fill="#111827">macOS + Windows</text>
<rect x="351" y="369" width="12" height="12" fill="#4F8EF7" rx="2"/>
<text x="367" y="379" font-size="12" fill="#111827">macOS only</text>
<rect x="491" y="369" width="12" height="12" fill="#FF6363" rx="2"/>
<text x="507" y="379" font-size="12" fill="#111827">Windows only</text>
<text x="72" y="394" font-size="8" fill="#e5e7eb">data since Dec 11, 2025</text>
</svg>