<svg xmlns="http://www.w3.org/2000/svg" width="800" height="400" viewBox="0 0 800 400">
<defs>
  <style>text { font-family: -apple-system, BlinkMacSystemFont, 'Segoe UI', Roboto, sans-serif; }</style>
  <linearGradient id="g1" x1="0" y1="0" x2="0" y2="1">
  <stop offset="0%" stop-color="#FF6363" stop-opacity="0.25"/>
  <stop offset="100%" stop-color="#FF6363" stop-opacity="0"/>
</linearGradient>
  <clipPath id="ca"><rect x="72" y="45" width="698" height="295"/></clipPath>
</defs>
<rect width="800" height="400" fill="#ffffff" rx="12"/>
<text x="400" y="26" text-anchor="middle" font-size="15" font-weight="600" fill="#111827">Packages Growth Over Time</text>
<line x1="72" y1="340.0" x2="770" y2="340.0" stroke="#f3f4f6" stroke-width="1"/>
<text x="66" y="344.0" text-anchor="end" font-size="11" fill="#6b7280">2.4k</text>
<line x1="72" y1="241.7" x2="770" y2="241.7" stroke="#f3f4f6" stroke-width="1"/>
<text x="66" y="245.7" text-anchor="end" font-size="11" fill="#6b7280">2.6k</text>
<line x1="72" y1="143.3" x2="770" y2="143.3" stroke="#f3f4f6" stroke-width="1"/>
<text x="66" y="147.3" text-anchor="end" font-size="11" fill="#6b7280">2.8k</text>
<line x1="72" y1="45.0" x2="770" y2="45.0" stroke="#f3f4f6" stroke-width="1"/>
<text x="66" y="49.0" text-anchor="end" font-size="11" fill="#6b7280">3.0k</text>
<line x1="126.4" y1="45" x2="126.4" y2="340" stroke="#e5e7eb" stroke-width="1" stroke-dasharray="3,3" clip-path="url(#ca)"/>
<line x1="244.2" y1="45" x2="244.2" y2="340" stroke="#e5e7eb" stroke-width="1" stroke-dasharray="3,3" clip-path="url(#ca)"/>
<line x1="366.6" y1="45" x2="366.6" y2="340" stroke="#e5e7eb" stroke-width="1" stroke-dasharray="3,3" clip-path="url(#ca)"/>
<line x1="489.0" y1="45" x2="489.0" y2="340" stroke="#e5e7eb" stroke-width="1" stroke-dasharray="3,3" clip-path="url(#ca)"/>
<line x1="611.4" y1="45" x2="611.4" y2="340" stroke="#e5e7eb" stroke-width="1" stroke-dasharray="3,3" clip-path="url(#ca)"/>
<line x1="729.2" y1="45" x2="729.2" y2="340" stroke="#e5e7eb" stroke-width="1" stroke-dasharray="3,3" clip-path="url(#ca)"/>
<text x="72.0" y="358.0" text-anchor="middle" font-size="11" fill="#6b7280">Dec 11</text>
<text x="212.5" y="358.0" text-anchor="middle" font-size="11" fill="#6b7280">Jan 25</text>
<text x="353.0" y="358.0" text-anchor="middle" font-size="11" fill="#6b7280">Feb 26</text>
<text x="489.0" y="358.0" text-anchor="middle" font-size="11" fill="#6b7280">Apr 1</text>
<text x="629.5" y="358.0" text-anchor="middle" font-size="11" fill="#6b7280">May 7</text>
<text x="770.0" y="358.0" text-anchor="middle" font-size="11" fill="#6b7280">Jun 12</text>
<line x1="72" y1="45" x2="72" y2="340" stroke="#e5e7eb" stroke-width="1"/>
<line x1="72" y1="340" x2="770" y2="340" stroke="#e5e7eb" stroke-width="1"/>
<text x="-192.5" y="18" text-anchor="middle" font-size="12" fill="#6b7280" transform="rotate(-90)">Extensions</text>
<path d="M 72.0,340 L 72.0,302.1 L 76.5,301.6 L 81.1,301.6 L 85.6,300.2 L 90.1,300.2 L 94.7,299.2 L 99.2,298.2 L 103.7,297.7 L 108.3,295.3 L 112.8,293.3 L 117.3,293.3 L 121.9,293.3 L 126.4,293.3 L 130.9,292.3 L 135.5,292.3 L 140.0,292.3 L 144.5,291.3 L 149.1,289.4 L 153.6,285.9 L 158.1,283.5 L 162.6,282.5 L 167.2,282.0 L 171.7,280.0 L 176.2,274.1 L 180.8,272.1 L 185.3,272.1 L 189.8,267.2 L 194.4,265.8 L 198.9,263.8 L 203.4,262.3 L 208.0,259.4 L 212.5,256.9 L 217.0,256.4 L 221.6,252.5 L 226.1,249.0 L 230.6,249.0 L 235.2,246.6 L 239.7,244.6 L 244.2,244.1 L 248.8,243.6 L 253.3,243.1 L 257.8,241.7 L 262.4,232.8 L 266.9,228.9 L 271.4,226.9 L 276.0,225.9 L 280.5,224.5 L 285.0,221.0 L 289.6,220.0 L 294.1,219.1 L 298.6,216.1 L 303.2,215.1 L 307.7,214.1 L 312.2,214.1 L 316.8,205.3 L 321.3,204.3 L 325.8,203.3 L 330.4,201.3 L 334.9,198.9 L 339.4,198.9 L 343.9,195.0 L 348.5,188.6 L 353.0,187.6 L 357.5,188.1 L 362.1,186.6 L 366.6,186.1 L 371.1,186.1 L 375.7,183.2 L 380.2,180.7 L 384.7,178.7 L 389.3,176.3 L 393.8,175.8 L 398.3,175.8 L 402.9,172.3 L 407.4,171.4 L 411.9,170.9 L 416.5,165.0 L 421.0,164.5 L 425.5,164.5 L 430.1,164.5 L 434.6,164.0 L 439.1,161.5 L 443.7,159.6 L 448.2,157.1 L 452.7,156.6 L 457.3,155.1 L 461.8,150.7 L 466.3,146.8 L 470.9,146.3 L 475.4,145.8 L 479.9,144.3 L 484.5,139.4 L 489.0,138.4 L 493.5,136.9 L 498.1,134.0 L 502.6,133.5 L 507.1,133.0 L 511.6,133.0 L 516.2,132.0 L 520.7,129.1 L 525.2,128.1 L 529.8,127.1 L 534.3,126.6 L 538.8,125.6 L 543.4,120.7 L 547.9,120.2 L 552.4,119.2 L 557.0,118.8 L 561.5,116.3 L 566.0,115.8 L 570.6,115.3 L 575.1,113.8 L 579.6,111.9 L 584.2,111.9 L 588.7,111.9 L 593.2,111.9 L 597.8,110.9 L 602.3,108.4 L 606.8,107.9 L 611.4,105.5 L 615.9,105.0 L 620.4,104.5 L 625.0,101.5 L 629.5,98.6 L 634.0,98.1 L 638.6,97.6 L 643.1,91.2 L 647.6,89.3 L 652.2,87.8 L 656.7,87.3 L 661.2,83.8 L 665.8,83.8 L 670.3,81.4 L 674.8,79.9 L 679.4,75.0 L 683.9,73.0 L 688.4,72.5 L 692.9,72.0 L 697.5,72.0 L 702.0,71.6 L 706.5,68.6 L 711.1,66.1 L 715.6,66.1 L 720.1,65.6 L 724.7,65.6 L 729.2,63.7 L 733.7,62.7 L 738.3,61.2 L 742.8,59.8 L 747.3,57.8 L 751.9,57.8 L 756.4,56.3 L 760.9,54.3 L 765.5,50.4 L 770.0,47.0 L 770.0,340 Z" fill="url(#g1)" clip-path="url(#ca)"/>
<path d="M 72.0,302.1 L 76.5,301.6 L 81.1,301.6 L 85.6,300.2 L 90.1,300.2 L 94.7,299.2 L 99.2,298.2 L 103.7,297.7 L 108.3,295.3 L 112.8,293.3 L 117.3,293.3 L 121.9,293.3 L 126.4,293.3 L 130.9,292.3 L 135.5,292.3 L 140.0,292.3 L 144.5,291.3 L 149.1,289.4 L 153.6,285.9 L 158.1,283.5 L 162.6,282.5 L 167.2,282.0 L 171.7,280.0 L 176.2,274.1 L 180.8,272.1 L 185.3,272.1 L 189.8,267.2 L 194.4,265.8 L 198.9,263.8 L 203.4,262.3 L 208.0,259.4 L 212.5,256.9 L 217.0,256.4 L 221.6,252.5 L 226.1,249.0 L 230.6,249.0 L 235.2,246.6 L 239.7,244.6 L 244.2,244.1 L 248.8,243.6 L 253.3,243.1 L 257.8,241.7 L 262.4,232.8 L 266.9,228.9 L 271.4,226.9 L 276.0,225.9 L 280.5,224.5 L 285.0,221.0 L 289.6,220.0 L 294.1,219.1 L 298.6,216.1 L 303.2,215.1 L 307.7,214.1 L 312.2,214.1 L 316.8,205.3 L 321.3,204.3 L 325.8,203.3 L 330.4,201.3 L 334.9,198.9 L 339.4,198.9 L 343.9,195.0 L 348.5,188.6 L 353.0,187.6 L 357.5,188.1 L 362.1,186.6 L 366.6,186.1 L 371.1,186.1 L 375.7,183.2 L 380.2,180.7 L 384.7,178.7 L 389.3,176.3 L 393.8,175.8 L 398.3,175.8 L 402.9,172.3 L 407.4,171.4 L 411.9,170.9 L 416.5,165.0 L 421.0,164.5 L 425.5,164.5 L 430.1,164.5 L 434.6,164.0 L 439.1,161.5 L 443.7,159.6 L 448.2,157.1 L 452.7,156.6 L 457.3,155.1 L 461.8,150.7 L 466.3,146.8 L 470.9,146.3 L 475.4,145.8 L 479.9,144.3 L 484.5,139.4 L 489.0,138.4 L 493.5,136.9 L 498.1,134.0 L 502.6,133.5 L 507.1,133.0 L 511.6,133.0 L 516.2,132.0 L 520.7,129.1 L 525.2,128.1 L 529.8,127.1 L 534.3,126.6 L 538.8,125.6 L 543.4,120.7 L 547.9,120.2 L 552.4,119.2 L 557.0,118.8 L 561.5,116.3 L 566.0,115.8 L 570.6,115.3 L 575.1,113.8 L 579.6,111.9 L 584.2,111.9 L 588.7,111.9 L 593.2,111.9 L 597.8,110.9 L 602.3,108.4 L 606.8,107.9 L 611.4,105.5 L 615.9,105.0 L 620.4,104.5 L 625.0,101.5 L 629.5,98.6 L 634.0,98.1 L 638.6,97.6 L 643.1,91.2 L 647.6,89.3 L 652.2,87.8 L 656.7,87.3 L 661.2,83.8 L 665.8,83.8 L 670.3,81.4 L 674.8,79.9 L 679.4,75.0 L 683.9,73.0 L 688.4,72.5 L 692.9,72.0 L 697.5,72.0 L 702.0,71.6 L 706.5,68.6 L 711.1,66.1 L 715.6,66.1 L 720.1,65.6 L 724.7,65.6 L 729.2,63.7 L 733.7,62.7 L 738.3,61.2 L 742.8,59.8 L 747.3,57.8 L 751.9,57.8 L 756.4,56.3 L 760.9,54.3 L 765.5,50.4 L 770.0,47.0" fill="none" stroke="#FF6363" stroke-width="2.5" stroke-linejoin="round" clip-path="url(#ca)"/>
<text x="96.9" y="55.0" text-anchor="middle" font-size="9" fill="#FF6363" opacity="0.85" clip-path="url(#ca)">+0.7% (+18)</text>
<text x="183.0" y="55.0" text-anchor="middle" font-size="9" fill="#FF6363" opacity="0.85" clip-path="url(#ca)">+4.0% (+99)</text>
<text x="303.2" y="55.0" text-anchor="middle" font-size="9" fill="#FF6363" opacity="0.85" clip-path="url(#ca)">+4.5% (+117)</text>
<text x="425.5" y="55.0" text-anchor="middle" font-size="9" fill="#FF6363" opacity="0.85" clip-path="url(#ca)">+3.5% (+95)</text>
<text x="547.9" y="55.0" text-anchor="middle" font-size="9" fill="#FF6363" opacity="0.85" clip-path="url(#ca)">+2.2% (+62)</text>
<text x="668.0" y="55.0" text-anchor="middle" font-size="9" fill="#FF6363" opacity="0.85" clip-path="url(#ca)">+2.8% (+81)</text>
<text x="749.6" y="55.0" text-anchor="middle" font-size="9" fill="#FF6363" opacity="0.85" clip-path="url(#ca)">+1.1% (+34)</text>
<rect x="351" y="369" width="12" height="12" fill="#FF6363" rx="2"/>
<text x="367" y="379" font-size="12" fill="#111827">Extensions</text>
<text x="72" y="394" font-size="8" fill="#e5e7eb">data since Dec 11, 2025</text>
</svg>