<svg xmlns="http://www.w3.org/2000/svg" width="800" height="400" viewBox="0 0 800 400">
<defs>
  <style>text { font-family: -apple-system, BlinkMacSystemFont, 'Segoe UI', Roboto, sans-serif; }</style>
  <linearGradient id="g5" x1="0" y1="0" x2="0" y2="1">
  <stop offset="0%" stop-color="#34C759" stop-opacity="0.25"/>
  <stop offset="100%" stop-color="#34C759" stop-opacity="0"/>
</linearGradient>
<linearGradient id="g6" x1="0" y1="0" x2="0" y2="1">
  <stop offset="0%" stop-color="#4F8EF7" stop-opacity="0.25"/>
  <stop offset="100%" stop-color="#4F8EF7" stop-opacity="0"/>
</linearGradient>
<linearGradient id="g7" x1="0" y1="0" x2="0" y2="1">
  <stop offset="0%" stop-color="#FF6363" stop-opacity="0.25"/>
  <stop offset="100%" stop-color="#FF6363" stop-opacity="0"/>
</linearGradient>
  <clipPath id="ca"><rect x="72" y="45" width="698" height="295"/></clipPath>
</defs>
<rect width="800" height="400" fill="#ffffff" rx="12"/>
<text x="400" y="26" text-anchor="middle" font-size="15" font-weight="600" fill="#111827">Platform Support Over Time</text>
<line x1="72" y1="340.0" x2="770" y2="340.0" stroke="#f3f4f6" stroke-width="1"/>
<text x="66" y="344.0" text-anchor="end" font-size="11" fill="#6b7280">0</text>
<line x1="72" y1="266.3" x2="770" y2="266.3" stroke="#f3f4f6" stroke-width="1"/>
<text x="66" y="270.3" text-anchor="end" font-size="11" fill="#6b7280">200</text>
<line x1="72" y1="192.5" x2="770" y2="192.5" stroke="#f3f4f6" stroke-width="1"/>
<text x="66" y="196.5" text-anchor="end" font-size="11" fill="#6b7280">400</text>
<line x1="72" y1="118.8" x2="770" y2="118.8" stroke="#f3f4f6" stroke-width="1"/>
<text x="66" y="122.8" text-anchor="end" font-size="11" fill="#6b7280">600</text>
<line x1="72" y1="45.0" x2="770" y2="45.0" stroke="#f3f4f6" stroke-width="1"/>
<text x="66" y="49.0" text-anchor="end" font-size="11" fill="#6b7280">800</text>
<line x1="155.8" y1="45" x2="155.8" y2="340" stroke="#e5e7eb" stroke-width="1" stroke-dasharray="3,3" clip-path="url(#ca)"/>
<line x1="337.2" y1="45" x2="337.2" y2="340" stroke="#e5e7eb" stroke-width="1" stroke-dasharray="3,3" clip-path="url(#ca)"/>
<line x1="525.7" y1="45" x2="525.7" y2="340" stroke="#e5e7eb" stroke-width="1" stroke-dasharray="3,3" clip-path="url(#ca)"/>
<line x1="714.2" y1="45" x2="714.2" y2="340" stroke="#e5e7eb" stroke-width="1" stroke-dasharray="3,3" clip-path="url(#ca)"/>
<text x="72.0" y="358.0" text-anchor="middle" font-size="11" fill="#6b7280">Dec 11</text>
<text x="211.6" y="358.0" text-anchor="middle" font-size="11" fill="#6b7280">Jan 13</text>
<text x="351.2" y="358.0" text-anchor="middle" font-size="11" fill="#6b7280">Feb 3</text>
<text x="490.8" y="358.0" text-anchor="middle" font-size="11" fill="#6b7280">Feb 24</text>
<text x="630.4" y="358.0" text-anchor="middle" font-size="11" fill="#6b7280">Mar 17</text>
<text x="770.0" y="358.0" text-anchor="middle" font-size="11" fill="#6b7280">Apr 10</text>
<line x1="72" y1="45" x2="72" y2="340" stroke="#e5e7eb" stroke-width="1"/>
<line x1="72" y1="340" x2="770" y2="340" stroke="#e5e7eb" stroke-width="1"/>
<text x="-192.5" y="18" text-anchor="middle" font-size="12" fill="#6b7280" transform="rotate(-90)">Extensions</text>
<path d="M 72.0,340 L 72.0,218.3 L 79.0,215.0 L 86.0,214.6 L 92.9,213.2 L 99.9,212.4 L 106.9,208.7 L 113.9,206.5 L 120.9,205.4 L 127.8,203.6 L 134.8,201.3 L 141.8,200.2 L 148.8,199.9 L 155.8,198.8 L 162.7,198.0 L 169.7,197.7 L 176.7,196.6 L 183.7,195.4 L 190.7,194.3 L 197.6,193.2 L 204.6,191.8 L 211.6,190.7 L 218.6,189.6 L 225.6,188.4 L 232.5,186.2 L 239.5,185.5 L 246.5,185.5 L 253.5,182.9 L 260.5,182.2 L 267.4,181.4 L 274.4,180.7 L 281.4,178.9 L 288.4,176.3 L 295.4,175.9 L 302.3,175.5 L 309.3,173.3 L 316.3,172.6 L 323.3,170.7 L 330.3,170.4 L 337.2,170.0 L 344.2,169.3 L 351.2,169.3 L 358.2,169.3 L 365.2,164.1 L 372.1,163.7 L 379.1,162.6 L 386.1,162.3 L 393.1,161.9 L 400.1,160.8 L 407.0,160.1 L 414.0,159.3 L 421.0,157.1 L 428.0,157.1 L 435.0,157.1 L 441.9,156.7 L 448.9,153.0 L 455.9,151.9 L 462.9,151.2 L 469.9,150.1 L 476.8,149.4 L 483.8,149.4 L 490.8,147.5 L 497.8,144.9 L 504.8,144.2 L 511.7,143.8 L 518.7,142.7 L 525.7,142.7 L 532.7,142.0 L 539.7,140.9 L 546.6,140.1 L 553.6,138.7 L 560.6,137.2 L 567.6,136.8 L 574.6,136.8 L 581.5,135.3 L 588.5,135.3 L 595.5,135.3 L 602.5,133.1 L 609.5,132.8 L 616.4,132.4 L 623.4,132.4 L 630.4,132.0 L 637.4,130.6 L 644.4,129.8 L 651.3,128.7 L 658.3,128.7 L 665.3,128.3 L 672.3,126.9 L 679.3,125.8 L 686.2,125.8 L 693.2,125.4 L 700.2,124.7 L 707.2,122.1 L 714.2,121.3 L 721.1,120.2 L 728.1,120.2 L 735.1,119.5 L 742.1,119.1 L 749.1,118.8 L 756.0,118.4 L 763.0,118.0 L 770.0,118.0 L 770.0,340 Z" fill="url(#g5)" clip-path="url(#ca)"/>
<path d="M 72.0,218.3 L 79.0,215.0 L 86.0,214.6 L 92.9,213.2 L 99.9,212.4 L 106.9,208.7 L 113.9,206.5 L 120.9,205.4 L 127.8,203.6 L 134.8,201.3 L 141.8,200.2 L 148.8,199.9 L 155.8,198.8 L 162.7,198.0 L 169.7,197.7 L 176.7,196.6 L 183.7,195.4 L 190.7,194.3 L 197.6,193.2 L 204.6,191.8 L 211.6,190.7 L 218.6,189.6 L 225.6,188.4 L 232.5,186.2 L 239.5,185.5 L 246.5,185.5 L 253.5,182.9 L 260.5,182.2 L 267.4,181.4 L 274.4,180.7 L 281.4,178.9 L 288.4,176.3 L 295.4,175.9 L 302.3,175.5 L 309.3,173.3 L 316.3,172.6 L 323.3,170.7 L 330.3,170.4 L 337.2,170.0 L 344.2,169.3 L 351.2,169.3 L 358.2,169.3 L 365.2,164.1 L 372.1,163.7 L 379.1,162.6 L 386.1,162.3 L 393.1,161.9 L 400.1,160.8 L 407.0,160.1 L 414.0,159.3 L 421.0,157.1 L 428.0,157.1 L 435.0,157.1 L 441.9,156.7 L 448.9,153.0 L 455.9,151.9 L 462.9,151.2 L 469.9,150.1 L 476.8,149.4 L 483.8,149.4 L 490.8,147.5 L 497.8,144.9 L 504.8,144.2 L 511.7,143.8 L 518.7,142.7 L 525.7,142.7 L 532.7,142.0 L 539.7,140.9 L 546.6,140.1 L 553.6,138.7 L 560.6,137.2 L 567.6,136.8 L 574.6,136.8 L 581.5,135.3 L 588.5,135.3 L 595.5,135.3 L 602.5,133.1 L 609.5,132.8 L 616.4,132.4 L 623.4,132.4 L 630.4,132.0 L 637.4,130.6 L 644.4,129.8 L 651.3,128.7 L 658.3,128.7 L 665.3,128.3 L 672.3,126.9 L 679.3,125.8 L 686.2,125.8 L 693.2,125.4 L 700.2,124.7 L 707.2,122.1 L 714.2,121.3 L 721.1,120.2 L 728.1,120.2 L 735.1,119.5 L 742.1,119.1 L 749.1,118.8 L 756.0,118.4 L 763.0,118.0 L 770.0,118.0" fill="none" stroke="#34C759" stroke-width="2.5" stroke-linejoin="round" clip-path="url(#ca)"/>
<path d="M 72.0,340 L 72.0,193.2 L 79.0,193.2 L 86.0,192.9 L 92.9,191.8 L 99.9,192.1 L 106.9,192.1 L 113.9,190.7 L 120.9,189.6 L 127.8,189.6 L 134.8,189.9 L 141.8,189.6 L 148.8,189.2 L 155.8,188.8 L 162.7,188.8 L 169.7,188.8 L 176.7,189.2 L 183.7,188.4 L 190.7,187.7 L 197.6,185.5 L 204.6,184.0 L 211.6,184.0 L 218.6,183.7 L 225.6,181.4 L 232.5,178.1 L 239.5,177.0 L 246.5,176.3 L 253.5,173.7 L 260.5,171.9 L 267.4,171.1 L 274.4,170.4 L 281.4,169.6 L 288.4,169.3 L 295.4,169.3 L 302.3,166.7 L 309.3,166.0 L 316.3,165.2 L 323.3,165.2 L 330.3,163.4 L 337.2,163.0 L 344.2,161.9 L 351.2,160.4 L 358.2,158.6 L 365.2,156.0 L 372.1,153.4 L 379.1,153.0 L 386.1,152.3 L 393.1,151.6 L 400.1,149.4 L 407.0,149.4 L 414.0,148.6 L 421.0,147.5 L 428.0,146.8 L 435.0,145.3 L 441.9,145.7 L 448.9,141.2 L 455.9,140.9 L 462.9,140.5 L 469.9,139.8 L 476.8,137.6 L 483.8,137.6 L 490.8,135.3 L 497.8,132.8 L 504.8,132.8 L 511.7,132.8 L 518.7,132.4 L 525.7,132.0 L 532.7,131.7 L 539.7,129.8 L 546.6,127.6 L 553.6,126.9 L 560.6,125.4 L 567.6,125.4 L 574.6,124.3 L 581.5,122.1 L 588.5,121.0 L 595.5,120.6 L 602.5,118.0 L 609.5,117.6 L 616.4,117.6 L 623.4,117.3 L 630.4,117.3 L 637.4,115.4 L 644.4,114.7 L 651.3,113.6 L 658.3,113.2 L 665.3,112.5 L 672.3,109.5 L 679.3,105.5 L 686.2,105.1 L 693.2,104.4 L 700.2,104.0 L 707.2,102.2 L 714.2,63.1 L 721.1,62.3 L 728.1,60.5 L 735.1,60.5 L 742.1,60.5 L 749.1,60.9 L 756.0,60.5 L 763.0,58.3 L 770.0,57.5 L 770.0,340 Z" fill="url(#g6)" clip-path="url(#ca)"/>
<path d="M 72.0,193.2 L 79.0,193.2 L 86.0,192.9 L 92.9,191.8 L 99.9,192.1 L 106.9,192.1 L 113.9,190.7 L 120.9,189.6 L 127.8,189.6 L 134.8,189.9 L 141.8,189.6 L 148.8,189.2 L 155.8,188.8 L 162.7,188.8 L 169.7,188.8 L 176.7,189.2 L 183.7,188.4 L 190.7,187.7 L 197.6,185.5 L 204.6,184.0 L 211.6,184.0 L 218.6,183.7 L 225.6,181.4 L 232.5,178.1 L 239.5,177.0 L 246.5,176.3 L 253.5,173.7 L 260.5,171.9 L 267.4,171.1 L 274.4,170.4 L 281.4,169.6 L 288.4,169.3 L 295.4,169.3 L 302.3,166.7 L 309.3,166.0 L 316.3,165.2 L 323.3,165.2 L 330.3,163.4 L 337.2,163.0 L 344.2,161.9 L 351.2,160.4 L 358.2,158.6 L 365.2,156.0 L 372.1,153.4 L 379.1,153.0 L 386.1,152.3 L 393.1,151.6 L 400.1,149.4 L 407.0,149.4 L 414.0,148.6 L 421.0,147.5 L 428.0,146.8 L 435.0,145.3 L 441.9,145.7 L 448.9,141.2 L 455.9,140.9 L 462.9,140.5 L 469.9,139.8 L 476.8,137.6 L 483.8,137.6 L 490.8,135.3 L 497.8,132.8 L 504.8,132.8 L 511.7,132.8 L 518.7,132.4 L 525.7,132.0 L 532.7,131.7 L 539.7,129.8 L 546.6,127.6 L 553.6,126.9 L 560.6,125.4 L 567.6,125.4 L 574.6,124.3 L 581.5,122.1 L 588.5,121.0 L 595.5,120.6 L 602.5,118.0 L 609.5,117.6 L 616.4,117.6 L 623.4,117.3 L 630.4,117.3 L 637.4,115.4 L 644.4,114.7 L 651.3,113.6 L 658.3,113.2 L 665.3,112.5 L 672.3,109.5 L 679.3,105.5 L 686.2,105.1 L 693.2,104.4 L 700.2,104.0 L 707.2,102.2 L 714.2,63.1 L 721.1,62.3 L 728.1,60.5 L 735.1,60.5 L 742.1,60.5 L 749.1,60.9 L 756.0,60.5 L 763.0,58.3 L 770.0,57.5" fill="none" stroke="#4F8EF7" stroke-width="2.5" stroke-linejoin="round" clip-path="url(#ca)"/>
<path d="M 72.0,340 L 72.0,337.8 L 79.0,337.4 L 86.0,337.4 L 92.9,337.1 L 99.9,337.1 L 106.9,337.1 L 113.9,337.1 L 120.9,337.1 L 127.8,336.3 L 134.8,336.3 L 141.8,336.3 L 148.8,336.3 L 155.8,336.3 L 162.7,335.9 L 169.7,335.9 L 176.7,335.9 L 183.7,335.9 L 190.7,335.9 L 197.6,335.6 L 204.6,334.8 L 211.6,334.5 L 218.6,334.5 L 225.6,334.5 L 232.5,334.1 L 239.5,334.1 L 246.5,334.1 L 253.5,333.7 L 260.5,333.7 L 267.4,333.7 L 274.4,333.4 L 281.4,333.4 L 288.4,333.4 L 295.4,333.4 L 302.3,333.0 L 309.3,333.0 L 316.3,333.0 L 323.3,333.0 L 330.3,333.0 L 337.2,333.0 L 344.2,333.0 L 351.2,333.0 L 358.2,333.0 L 365.2,333.0 L 372.1,333.0 L 379.1,333.0 L 386.1,333.0 L 393.1,332.6 L 400.1,332.6 L 407.0,332.6 L 414.0,332.6 L 421.0,332.6 L 428.0,332.6 L 435.0,332.6 L 441.9,332.6 L 448.9,332.6 L 455.9,332.6 L 462.9,332.6 L 469.9,332.6 L 476.8,332.3 L 483.8,332.3 L 490.8,332.3 L 497.8,332.3 L 504.8,332.3 L 511.7,332.3 L 518.7,332.3 L 525.7,332.3 L 532.7,332.3 L 539.7,332.3 L 546.6,332.3 L 553.6,332.3 L 560.6,332.3 L 567.6,332.3 L 574.6,332.3 L 581.5,332.3 L 588.5,332.3 L 595.5,332.3 L 602.5,332.3 L 609.5,332.3 L 616.4,332.3 L 623.4,332.3 L 630.4,332.3 L 637.4,332.3 L 644.4,332.3 L 651.3,332.3 L 658.3,332.3 L 665.3,332.3 L 672.3,332.3 L 679.3,332.3 L 686.2,332.3 L 693.2,332.3 L 700.2,332.3 L 707.2,332.3 L 714.2,332.3 L 721.1,332.3 L 728.1,331.9 L 735.1,331.9 L 742.1,331.9 L 749.1,331.9 L 756.0,331.9 L 763.0,331.5 L 770.0,331.5 L 770.0,340 Z" fill="url(#g7)" clip-path="url(#ca)"/>
<path d="M 72.0,337.8 L 79.0,337.4 L 86.0,337.4 L 92.9,337.1 L 99.9,337.1 L 106.9,337.1 L 113.9,337.1 L 120.9,337.1 L 127.8,336.3 L 134.8,336.3 L 141.8,336.3 L 148.8,336.3 L 155.8,336.3 L 162.7,335.9 L 169.7,335.9 L 176.7,335.9 L 183.7,335.9 L 190.7,335.9 L 197.6,335.6 L 204.6,334.8 L 211.6,334.5 L 218.6,334.5 L 225.6,334.5 L 232.5,334.1 L 239.5,334.1 L 246.5,334.1 L 253.5,333.7 L 260.5,333.7 L 267.4,333.7 L 274.4,333.4 L 281.4,333.4 L 288.4,333.4 L 295.4,333.4 L 302.3,333.0 L 309.3,333.0 L 316.3,333.0 L 323.3,333.0 L 330.3,333.0 L 337.2,333.0 L 344.2,333.0 L 351.2,333.0 L 358.2,333.0 L 365.2,333.0 L 372.1,333.0 L 379.1,333.0 L 386.1,333.0 L 393.1,332.6 L 400.1,332.6 L 407.0,332.6 L 414.0,332.6 L 421.0,332.6 L 428.0,332.6 L 435.0,332.6 L 441.9,332.6 L 448.9,332.6 L 455.9,332.6 L 462.9,332.6 L 469.9,332.6 L 476.8,332.3 L 483.8,332.3 L 490.8,332.3 L 497.8,332.3 L 504.8,332.3 L 511.7,332.3 L 518.7,332.3 L 525.7,332.3 L 532.7,332.3 L 539.7,332.3 L 546.6,332.3 L 553.6,332.3 L 560.6,332.3 L 567.6,332.3 L 574.6,332.3 L 581.5,332.3 L 588.5,332.3 L 595.5,332.3 L 602.5,332.3 L 609.5,332.3 L 616.4,332.3 L 623.4,332.3 L 630.4,332.3 L 637.4,332.3 L 644.4,332.3 L 651.3,332.3 L 658.3,332.3 L 665.3,332.3 L 672.3,332.3 L 679.3,332.3 L 686.2,332.3 L 693.2,332.3 L 700.2,332.3 L 707.2,332.3 L 714.2,332.3 L 721.1,332.3 L 728.1,331.9 L 735.1,331.9 L 742.1,331.9 L 749.1,331.9 L 756.0,331.9 L 763.0,331.5 L 770.0,331.5" fill="none" stroke="#FF6363" stroke-width="2.5" stroke-linejoin="round" clip-path="url(#ca)"/>
<text x="110.4" y="55.0" text-anchor="middle" font-size="9" fill="#34C759" opacity="0.85" clip-path="url(#ca)">+15.2% (+50)</text>
<text x="110.4" y="66.0" text-anchor="middle" font-size="9" fill="#4F8EF7" opacity="0.85" clip-path="url(#ca)">+2.8% (+11)</text>
<text x="110.4" y="77.0" text-anchor="middle" font-size="9" fill="#FF6363" opacity="0.85" clip-path="url(#ca)">+66.7% (+4)</text>
<text x="243.0" y="55.0" text-anchor="middle" font-size="9" fill="#34C759" opacity="0.85" clip-path="url(#ca)">+20.1% (+77)</text>
<text x="243.0" y="66.0" text-anchor="middle" font-size="9" fill="#4F8EF7" opacity="0.85" clip-path="url(#ca)">+16.8% (+69)</text>
<text x="243.0" y="77.0" text-anchor="middle" font-size="9" fill="#FF6363" opacity="0.85" clip-path="url(#ca)">+90.0% (+9)</text>
<text x="428.0" y="55.0" text-anchor="middle" font-size="9" fill="#34C759" opacity="0.85" clip-path="url(#ca)">+16.1% (+74)</text>
<text x="428.0" y="66.0" text-anchor="middle" font-size="9" fill="#4F8EF7" opacity="0.85" clip-path="url(#ca)">+17.3% (+83)</text>
<text x="428.0" y="77.0" text-anchor="middle" font-size="9" fill="#FF6363" opacity="0.85" clip-path="url(#ca)">+10.5% (+2)</text>
<text x="616.4" y="55.0" text-anchor="middle" font-size="9" fill="#34C759" opacity="0.85" clip-path="url(#ca)">+10.5% (+56)</text>
<text x="616.4" y="66.0" text-anchor="middle" font-size="9" fill="#4F8EF7" opacity="0.85" clip-path="url(#ca)">+14.4% (+81)</text>
<text x="616.4" y="77.0" text-anchor="middle" font-size="9" fill="#FF6363" opacity="0.85" clip-path="url(#ca)">+0.0% (+0)</text>
<text x="742.1" y="55.0" text-anchor="middle" font-size="9" fill="#34C759" opacity="0.85" clip-path="url(#ca)">+1.5% (+9)</text>
<text x="742.1" y="66.0" text-anchor="middle" font-size="9" fill="#4F8EF7" opacity="0.85" clip-path="url(#ca)">+2.0% (+15)</text>
<text x="742.1" y="77.0" text-anchor="middle" font-size="9" fill="#FF6363" opacity="0.85" clip-path="url(#ca)">+9.5% (+2)</text>
<rect x="211" y="369" width="12" height="12" fill="#34C759" rx="2"/>
<text x="227" y="379" font-size="12" fill="#111827">macOS + Windows</text>
<rect x="351" y="369" width="12" height="12" fill="#4F8EF7" rx="2"/>
<text x="367" y="379" font-size="12" fill="#111827">macOS only</text>
<rect x="491" y="369" width="12" height="12" fill="#FF6363" rx="2"/>
<text x="507" y="379" font-size="12" fill="#111827">Windows only</text>
<text x="72" y="394" font-size="8" fill="#e5e7eb">data since Dec 11, 2025</text>
</svg>