<svg xmlns="http://www.w3.org/2000/svg" width="800" height="400" viewBox="0 0 800 400">
<defs>
  <style>text { font-family: -apple-system, BlinkMacSystemFont, 'Segoe UI', Roboto, sans-serif; }</style>
  <linearGradient id="g1" x1="0" y1="0" x2="0" y2="1">
  <stop offset="0%" stop-color="#FF6363" stop-opacity="0.25"/>
  <stop offset="100%" stop-color="#FF6363" stop-opacity="0"/>
</linearGradient>
  <clipPath id="ca"><rect x="72" y="45" width="698" height="295"/></clipPath>
</defs>
<rect width="800" height="400" fill="#ffffff" rx="12"/>
<text x="400" y="26" text-anchor="middle" font-size="15" font-weight="600" fill="#111827">Packages Growth Over Time</text>
<line x1="72" y1="340.0" x2="770" y2="340.0" stroke="#f3f4f6" stroke-width="1"/>
<text x="66" y="344.0" text-anchor="end" font-size="11" fill="#6b7280">2.4k</text>
<line x1="72" y1="266.3" x2="770" y2="266.3" stroke="#f3f4f6" stroke-width="1"/>
<text x="66" y="270.3" text-anchor="end" font-size="11" fill="#6b7280">2.6k</text>
<line x1="72" y1="192.5" x2="770" y2="192.5" stroke="#f3f4f6" stroke-width="1"/>
<text x="66" y="196.5" text-anchor="end" font-size="11" fill="#6b7280">2.8k</text>
<line x1="72" y1="118.8" x2="770" y2="118.8" stroke="#f3f4f6" stroke-width="1"/>
<text x="66" y="122.8" text-anchor="end" font-size="11" fill="#6b7280">3.0k</text>
<line x1="72" y1="45.0" x2="770" y2="45.0" stroke="#f3f4f6" stroke-width="1"/>
<text x="66" y="49.0" text-anchor="end" font-size="11" fill="#6b7280">3.2k</text>
<line x1="121.6" y1="45" x2="121.6" y2="340" stroke="#e5e7eb" stroke-width="1" stroke-dasharray="3,3" clip-path="url(#ca)"/>
<line x1="228.9" y1="45" x2="228.9" y2="340" stroke="#e5e7eb" stroke-width="1" stroke-dasharray="3,3" clip-path="url(#ca)"/>
<line x1="340.5" y1="45" x2="340.5" y2="340" stroke="#e5e7eb" stroke-width="1" stroke-dasharray="3,3" clip-path="url(#ca)"/>
<line x1="452.0" y1="45" x2="452.0" y2="340" stroke="#e5e7eb" stroke-width="1" stroke-dasharray="3,3" clip-path="url(#ca)"/>
<line x1="563.5" y1="45" x2="563.5" y2="340" stroke="#e5e7eb" stroke-width="1" stroke-dasharray="3,3" clip-path="url(#ca)"/>
<line x1="670.9" y1="45" x2="670.9" y2="340" stroke="#e5e7eb" stroke-width="1" stroke-dasharray="3,3" clip-path="url(#ca)"/>
<line x1="770.0" y1="45" x2="770.0" y2="340" stroke="#e5e7eb" stroke-width="1" stroke-dasharray="3,3" clip-path="url(#ca)"/>
<text x="72.0" y="358.0" text-anchor="middle" font-size="11" fill="#6b7280">Dec 11</text>
<text x="212.4" y="358.0" text-anchor="middle" font-size="11" fill="#6b7280">Jan 28</text>
<text x="352.9" y="358.0" text-anchor="middle" font-size="11" fill="#6b7280">Mar 4</text>
<text x="489.1" y="358.0" text-anchor="middle" font-size="11" fill="#6b7280">Apr 11</text>
<text x="629.6" y="358.0" text-anchor="middle" font-size="11" fill="#6b7280">May 22</text>
<text x="770.0" y="358.0" text-anchor="middle" font-size="11" fill="#6b7280">Jul 1</text>
<line x1="72" y1="45" x2="72" y2="340" stroke="#e5e7eb" stroke-width="1"/>
<line x1="72" y1="340" x2="770" y2="340" stroke="#e5e7eb" stroke-width="1"/>
<text x="-192.5" y="18" text-anchor="middle" font-size="12" fill="#6b7280" transform="rotate(-90)">Extensions</text>
<path d="M 72.0,340 L 72.0,311.6 L 76.1,311.2 L 80.3,311.2 L 84.4,310.1 L 88.5,310.1 L 92.7,309.4 L 96.8,308.7 L 100.9,308.3 L 105.0,306.4 L 109.2,305.0 L 113.3,305.0 L 117.4,305.0 L 121.6,305.0 L 125.7,304.2 L 129.8,304.2 L 134.0,304.2 L 138.1,303.5 L 142.2,302.0 L 146.3,299.4 L 150.5,297.6 L 154.6,296.9 L 158.7,296.5 L 162.9,295.0 L 167.0,290.6 L 171.1,289.1 L 175.3,289.1 L 179.4,285.4 L 183.5,284.3 L 187.6,282.8 L 191.8,281.7 L 195.9,279.5 L 200.0,277.7 L 204.2,277.3 L 208.3,274.4 L 212.4,271.8 L 216.6,271.8 L 220.7,269.9 L 224.8,268.5 L 228.9,268.1 L 233.1,267.7 L 237.2,267.4 L 241.3,266.3 L 245.5,259.6 L 249.6,256.7 L 253.7,255.2 L 257.9,254.4 L 262.0,253.3 L 266.1,250.8 L 270.2,250.0 L 274.4,249.3 L 278.5,247.1 L 282.6,246.3 L 286.8,245.6 L 290.9,245.6 L 295.0,239.0 L 299.2,238.2 L 303.3,237.5 L 307.4,236.0 L 311.6,234.2 L 315.7,234.2 L 319.8,231.2 L 323.9,226.4 L 328.1,225.7 L 332.2,226.1 L 336.3,224.9 L 340.5,224.6 L 344.6,224.6 L 348.7,222.4 L 352.9,220.5 L 357.0,219.1 L 361.1,217.2 L 365.2,216.8 L 369.4,216.8 L 373.5,214.3 L 377.6,213.5 L 381.8,213.2 L 385.9,208.7 L 390.0,208.4 L 394.2,208.4 L 398.3,208.4 L 402.4,208.0 L 406.5,206.1 L 410.7,204.7 L 414.8,202.8 L 418.9,202.5 L 423.1,201.3 L 427.2,198.0 L 431.3,195.1 L 435.5,194.7 L 439.6,194.3 L 443.7,193.2 L 447.8,189.6 L 452.0,188.8 L 456.1,187.7 L 460.2,185.5 L 464.4,185.1 L 468.5,184.8 L 472.6,184.8 L 476.8,184.0 L 480.9,181.8 L 485.0,181.1 L 489.1,180.3 L 493.3,180.0 L 497.4,179.2 L 501.5,175.5 L 505.7,175.2 L 509.8,174.4 L 513.9,174.1 L 518.1,172.2 L 522.2,171.9 L 526.3,171.5 L 530.4,170.4 L 534.6,168.9 L 538.7,168.9 L 542.8,168.9 L 547.0,168.9 L 551.1,168.2 L 555.2,166.3 L 559.4,166.0 L 563.5,164.1 L 567.6,163.7 L 571.8,163.4 L 575.9,161.2 L 580.0,158.9 L 584.1,158.6 L 588.3,158.2 L 592.4,153.4 L 596.5,151.9 L 600.7,150.8 L 604.8,150.5 L 608.9,147.9 L 613.1,147.9 L 617.2,146.0 L 621.3,144.9 L 625.4,141.2 L 629.6,139.8 L 633.7,139.4 L 637.8,139.0 L 642.0,139.0 L 646.1,138.7 L 650.2,136.5 L 654.4,134.6 L 658.5,134.6 L 662.6,134.2 L 666.7,134.2 L 670.9,132.8 L 675.0,132.0 L 679.1,130.9 L 683.3,129.8 L 687.4,128.3 L 691.5,128.3 L 695.7,127.2 L 699.8,125.8 L 703.9,122.8 L 708.0,120.2 L 712.2,119.5 L 716.3,118.8 L 720.4,118.0 L 724.6,117.6 L 728.7,116.5 L 732.8,114.3 L 737.0,114.0 L 741.1,112.5 L 745.2,111.0 L 749.3,108.4 L 753.5,107.3 L 757.6,106.6 L 761.7,106.6 L 765.9,105.1 L 770.0,104.4 L 770.0,340 Z" fill="url(#g1)" clip-path="url(#ca)"/>
<path d="M 72.0,311.6 L 76.1,311.2 L 80.3,311.2 L 84.4,310.1 L 88.5,310.1 L 92.7,309.4 L 96.8,308.7 L 100.9,308.3 L 105.0,306.4 L 109.2,305.0 L 113.3,305.0 L 117.4,305.0 L 121.6,305.0 L 125.7,304.2 L 129.8,304.2 L 134.0,304.2 L 138.1,303.5 L 142.2,302.0 L 146.3,299.4 L 150.5,297.6 L 154.6,296.9 L 158.7,296.5 L 162.9,295.0 L 167.0,290.6 L 171.1,289.1 L 175.3,289.1 L 179.4,285.4 L 183.5,284.3 L 187.6,282.8 L 191.8,281.7 L 195.9,279.5 L 200.0,277.7 L 204.2,277.3 L 208.3,274.4 L 212.4,271.8 L 216.6,271.8 L 220.7,269.9 L 224.8,268.5 L 228.9,268.1 L 233.1,267.7 L 237.2,267.4 L 241.3,266.3 L 245.5,259.6 L 249.6,256.7 L 253.7,255.2 L 257.9,254.4 L 262.0,253.3 L 266.1,250.8 L 270.2,250.0 L 274.4,249.3 L 278.5,247.1 L 282.6,246.3 L 286.8,245.6 L 290.9,245.6 L 295.0,239.0 L 299.2,238.2 L 303.3,237.5 L 307.4,236.0 L 311.6,234.2 L 315.7,234.2 L 319.8,231.2 L 323.9,226.4 L 328.1,225.7 L 332.2,226.1 L 336.3,224.9 L 340.5,224.6 L 344.6,224.6 L 348.7,222.4 L 352.9,220.5 L 357.0,219.1 L 361.1,217.2 L 365.2,216.8 L 369.4,216.8 L 373.5,214.3 L 377.6,213.5 L 381.8,213.2 L 385.9,208.7 L 390.0,208.4 L 394.2,208.4 L 398.3,208.4 L 402.4,208.0 L 406.5,206.1 L 410.7,204.7 L 414.8,202.8 L 418.9,202.5 L 423.1,201.3 L 427.2,198.0 L 431.3,195.1 L 435.5,194.7 L 439.6,194.3 L 443.7,193.2 L 447.8,189.6 L 452.0,188.8 L 456.1,187.7 L 460.2,185.5 L 464.4,185.1 L 468.5,184.8 L 472.6,184.8 L 476.8,184.0 L 480.9,181.8 L 485.0,181.1 L 489.1,180.3 L 493.3,180.0 L 497.4,179.2 L 501.5,175.5 L 505.7,175.2 L 509.8,174.4 L 513.9,174.1 L 518.1,172.2 L 522.2,171.9 L 526.3,171.5 L 530.4,170.4 L 534.6,168.9 L 538.7,168.9 L 542.8,168.9 L 547.0,168.9 L 551.1,168.2 L 555.2,166.3 L 559.4,166.0 L 563.5,164.1 L 567.6,163.7 L 571.8,163.4 L 575.9,161.2 L 580.0,158.9 L 584.1,158.6 L 588.3,158.2 L 592.4,153.4 L 596.5,151.9 L 600.7,150.8 L 604.8,150.5 L 608.9,147.9 L 613.1,147.9 L 617.2,146.0 L 621.3,144.9 L 625.4,141.2 L 629.6,139.8 L 633.7,139.4 L 637.8,139.0 L 642.0,139.0 L 646.1,138.7 L 650.2,136.5 L 654.4,134.6 L 658.5,134.6 L 662.6,134.2 L 666.7,134.2 L 670.9,132.8 L 675.0,132.0 L 679.1,130.9 L 683.3,129.8 L 687.4,128.3 L 691.5,128.3 L 695.7,127.2 L 699.8,125.8 L 703.9,122.8 L 708.0,120.2 L 712.2,119.5 L 716.3,118.8 L 720.4,118.0 L 724.6,117.6 L 728.7,116.5 L 732.8,114.3 L 737.0,114.0 L 741.1,112.5 L 745.2,111.0 L 749.3,108.4 L 753.5,107.3 L 757.6,106.6 L 761.7,106.6 L 765.9,105.1 L 770.0,104.4" fill="none" stroke="#FF6363" stroke-width="2.5" stroke-linejoin="round" clip-path="url(#ca)"/>
<text x="94.7" y="55.0" text-anchor="middle" font-size="9" fill="#FF6363" opacity="0.85" clip-path="url(#ca)">+0.7% (+18)</text>
<text x="173.2" y="55.0" text-anchor="middle" font-size="9" fill="#FF6363" opacity="0.85" clip-path="url(#ca)">+4.0% (+99)</text>
<text x="282.6" y="55.0" text-anchor="middle" font-size="9" fill="#FF6363" opacity="0.85" clip-path="url(#ca)">+4.5% (+117)</text>
<text x="394.2" y="55.0" text-anchor="middle" font-size="9" fill="#FF6363" opacity="0.85" clip-path="url(#ca)">+3.5% (+95)</text>
<text x="505.7" y="55.0" text-anchor="middle" font-size="9" fill="#FF6363" opacity="0.85" clip-path="url(#ca)">+2.2% (+62)</text>
<text x="615.1" y="55.0" text-anchor="middle" font-size="9" fill="#FF6363" opacity="0.85" clip-path="url(#ca)">+2.8% (+81)</text>
<text x="718.4" y="55.0" text-anchor="middle" font-size="9" fill="#FF6363" opacity="0.85" clip-path="url(#ca)">+2.5% (+75)</text>
<text x="770.0" y="55.0" text-anchor="middle" font-size="9" fill="#FF6363" opacity="0.85" clip-path="url(#ca)">+0.0% (+0)</text>
<rect x="351" y="369" width="12" height="12" fill="#FF6363" rx="2"/>
<text x="367" y="379" font-size="12" fill="#111827">Extensions</text>
<text x="72" y="394" font-size="8" fill="#e5e7eb">data since Dec 11, 2025</text>
</svg>