<svg xmlns="http://www.w3.org/2000/svg" width="800" height="400" viewBox="0 0 800 400">
<defs><style>text { font-family: -apple-system, BlinkMacSystemFont, 'Segoe UI', Roboto, sans-serif; }</style></defs>
<rect width="800" height="400" fill="#ffffff" rx="12"/>
<text x="400" y="26" text-anchor="middle" font-size="15" font-weight="600" fill="#111827">Package Updates by Quarter</text>
<text x="400" y="44" text-anchor="middle" font-size="11" fill="#6b7280">last updated at · 2,696 packages with a known last-update date</text>
<line x1="60" y1="58" x2="60" y2="320" stroke="#e5e7eb" stroke-width="1"/>
<line x1="60" y1="320" x2="770" y2="320" stroke="#e5e7eb" stroke-width="1"/>
<text x="-189" y="18" text-anchor="middle" font-size="12" fill="#6b7280" transform="rotate(-90)">Number of packages</text>
<line x1="60" y1="320.0" x2="770" y2="320.0" stroke="#f3f4f6" stroke-width="1"/>
<text x="54" y="324.0" text-anchor="end" font-size="11" fill="#6b7280">0</text>
<line x1="60" y1="267.6" x2="770" y2="267.6" stroke="#f3f4f6" stroke-width="1"/>
<text x="54" y="271.6" text-anchor="end" font-size="11" fill="#6b7280">119</text>
<line x1="60" y1="215.2" x2="770" y2="215.2" stroke="#f3f4f6" stroke-width="1"/>
<text x="54" y="219.2" text-anchor="end" font-size="11" fill="#6b7280">238</text>
<line x1="60" y1="162.8" x2="770" y2="162.8" stroke="#f3f4f6" stroke-width="1"/>
<text x="54" y="166.8" text-anchor="end" font-size="11" fill="#6b7280">357</text>
<line x1="60" y1="110.4" x2="770" y2="110.4" stroke="#f3f4f6" stroke-width="1"/>
<text x="54" y="114.4" text-anchor="end" font-size="11" fill="#6b7280">476</text>
<line x1="60" y1="58.0" x2="770" y2="58.0" stroke="#f3f4f6" stroke-width="1"/>
<text x="54" y="62.0" text-anchor="end" font-size="11" fill="#6b7280">595</text>
<rect x="67.3" y="317.8" width="27.1" height="2.2" fill="#34C759" rx="3" opacity="0.85"/>
<text x="80.9" y="301.8" text-anchor="middle" font-size="10" fill="#6b7280">5</text>
<text x="80.9" y="313.8" text-anchor="middle" font-size="10" fill="#6b7280">(0.19%)</text>
<g transform="translate(80.9,330.0) rotate(-45)"><text text-anchor="end" font-size="10" fill="#111827">2022-Q1</text></g>
<rect x="109.1" y="300.2" width="27.1" height="19.8" fill="#34C759" rx="3" opacity="0.85"/>
<text x="122.6" y="284.2" text-anchor="middle" font-size="10" fill="#6b7280">45</text>
<text x="122.6" y="296.2" text-anchor="middle" font-size="10" fill="#6b7280">(1.67%)</text>
<g transform="translate(122.6,330.0) rotate(-45)"><text text-anchor="end" font-size="10" fill="#111827">2022-Q2</text></g>
<rect x="150.8" y="297.5" width="27.1" height="22.5" fill="#34C759" rx="3" opacity="0.85"/>
<text x="164.4" y="281.5" text-anchor="middle" font-size="10" fill="#6b7280">51</text>
<text x="164.4" y="293.5" text-anchor="middle" font-size="10" fill="#6b7280">(1.89%)</text>
<g transform="translate(164.4,330.0) rotate(-45)"><text text-anchor="end" font-size="10" fill="#111827">2022-Q3</text></g>
<rect x="192.6" y="288.3" width="27.1" height="31.7" fill="#34C759" rx="3" opacity="0.85"/>
<text x="206.2" y="272.3" text-anchor="middle" font-size="10" fill="#6b7280">72</text>
<text x="206.2" y="284.3" text-anchor="middle" font-size="10" fill="#6b7280">(2.67%)</text>
<g transform="translate(206.2,330.0) rotate(-45)"><text text-anchor="end" font-size="10" fill="#111827">2022-Q4</text></g>
<rect x="234.4" y="279.0" width="27.1" height="41.0" fill="#34C759" rx="3" opacity="0.85"/>
<text x="247.9" y="263.0" text-anchor="middle" font-size="10" fill="#6b7280">93</text>
<text x="247.9" y="275.0" text-anchor="middle" font-size="10" fill="#6b7280">(3.45%)</text>
<g transform="translate(247.9,330.0) rotate(-45)"><text text-anchor="end" font-size="10" fill="#111827">2023-Q1</text></g>
<rect x="276.1" y="279.0" width="27.1" height="41.0" fill="#34C759" rx="3" opacity="0.85"/>
<text x="289.7" y="263.0" text-anchor="middle" font-size="10" fill="#6b7280">93</text>
<text x="289.7" y="275.0" text-anchor="middle" font-size="10" fill="#6b7280">(3.45%)</text>
<g transform="translate(289.7,330.0) rotate(-45)"><text text-anchor="end" font-size="10" fill="#111827">2023-Q2</text></g>
<rect x="317.9" y="280.4" width="27.1" height="39.6" fill="#34C759" rx="3" opacity="0.85"/>
<text x="331.5" y="264.4" text-anchor="middle" font-size="10" fill="#6b7280">90</text>
<text x="331.5" y="276.4" text-anchor="middle" font-size="10" fill="#6b7280">(3.34%)</text>
<g transform="translate(331.5,330.0) rotate(-45)"><text text-anchor="end" font-size="10" fill="#111827">2023-Q3</text></g>
<rect x="359.7" y="288.7" width="27.1" height="31.3" fill="#34C759" rx="3" opacity="0.85"/>
<text x="373.2" y="272.7" text-anchor="middle" font-size="10" fill="#6b7280">71</text>
<text x="373.2" y="284.7" text-anchor="middle" font-size="10" fill="#6b7280">(2.63%)</text>
<g transform="translate(373.2,330.0) rotate(-45)"><text text-anchor="end" font-size="10" fill="#111827">2023-Q4</text></g>
<rect x="401.4" y="264.1" width="27.1" height="55.9" fill="#34C759" rx="3" opacity="0.85"/>
<text x="415.0" y="248.1" text-anchor="middle" font-size="10" fill="#6b7280">127</text>
<text x="415.0" y="260.1" text-anchor="middle" font-size="10" fill="#6b7280">(4.71%)</text>
<g transform="translate(415.0,330.0) rotate(-45)"><text text-anchor="end" font-size="10" fill="#111827">2024-Q1</text></g>
<rect x="443.2" y="259.7" width="27.1" height="60.3" fill="#34C759" rx="3" opacity="0.85"/>
<text x="456.8" y="243.7" text-anchor="middle" font-size="10" fill="#6b7280">137</text>
<text x="456.8" y="255.7" text-anchor="middle" font-size="10" fill="#6b7280">(5.08%)</text>
<g transform="translate(456.8,330.0) rotate(-45)"><text text-anchor="end" font-size="10" fill="#111827">2024-Q2</text></g>
<rect x="485.0" y="260.1" width="27.1" height="59.9" fill="#34C759" rx="3" opacity="0.85"/>
<text x="498.5" y="244.1" text-anchor="middle" font-size="10" fill="#6b7280">136</text>
<text x="498.5" y="256.1" text-anchor="middle" font-size="10" fill="#6b7280">(5.04%)</text>
<g transform="translate(498.5,330.0) rotate(-45)"><text text-anchor="end" font-size="10" fill="#111827">2024-Q3</text></g>
<rect x="526.7" y="258.8" width="27.1" height="61.2" fill="#34C759" rx="3" opacity="0.85"/>
<text x="540.3" y="242.8" text-anchor="middle" font-size="10" fill="#6b7280">139</text>
<text x="540.3" y="254.8" text-anchor="middle" font-size="10" fill="#6b7280">(5.16%)</text>
<g transform="translate(540.3,330.0) rotate(-45)"><text text-anchor="end" font-size="10" fill="#111827">2024-Q4</text></g>
<rect x="568.5" y="223.6" width="27.1" height="96.4" fill="#34C759" rx="3" opacity="0.85"/>
<text x="582.1" y="207.6" text-anchor="middle" font-size="10" fill="#6b7280">219</text>
<text x="582.1" y="219.6" text-anchor="middle" font-size="10" fill="#6b7280">(8.12%)</text>
<g transform="translate(582.1,330.0) rotate(-45)"><text text-anchor="end" font-size="10" fill="#111827">2025-Q1</text></g>
<rect x="610.3" y="214.8" width="27.1" height="105.2" fill="#34C759" rx="3" opacity="0.85"/>
<text x="623.8" y="198.8" text-anchor="middle" font-size="10" fill="#6b7280">239</text>
<text x="623.8" y="210.8" text-anchor="middle" font-size="10" fill="#6b7280">(8.86%)</text>
<g transform="translate(623.8,330.0) rotate(-45)"><text text-anchor="end" font-size="10" fill="#111827">2025-Q2</text></g>
<rect x="652.0" y="216.5" width="27.1" height="103.5" fill="#34C759" rx="3" opacity="0.85"/>
<text x="665.6" y="200.5" text-anchor="middle" font-size="10" fill="#6b7280">235</text>
<text x="665.6" y="212.5" text-anchor="middle" font-size="10" fill="#6b7280">(8.72%)</text>
<g transform="translate(665.6,330.0) rotate(-45)"><text text-anchor="end" font-size="10" fill="#111827">2025-Q3</text></g>
<rect x="693.8" y="166.3" width="27.1" height="153.7" fill="#34C759" rx="3" opacity="0.85"/>
<text x="707.4" y="150.3" text-anchor="middle" font-size="10" fill="#6b7280">349</text>
<text x="707.4" y="162.3" text-anchor="middle" font-size="10" fill="#6b7280">(12.95%)</text>
<g transform="translate(707.4,330.0) rotate(-45)"><text text-anchor="end" font-size="10" fill="#111827">2025-Q4</text></g>
<rect x="735.5" y="58.0" width="27.1" height="262.0" fill="#34C759" rx="3" opacity="0.85"/>
<text x="749.1" y="72.0" text-anchor="middle" font-size="10" fill="#6b7280">595</text>
<text x="749.1" y="84.0" text-anchor="middle" font-size="10" fill="#6b7280">(22.07%)</text>
<g transform="translate(749.1,330.0) rotate(-45)"><text text-anchor="end" font-size="10" fill="#111827">2026-Q1</text></g>
</svg>