<svg xmlns="http://www.w3.org/2000/svg" width="800" height="400" viewBox="0 0 800 400">
<defs>
  <style>text { font-family: -apple-system, BlinkMacSystemFont, 'Segoe UI', Roboto, sans-serif; }</style>
  <linearGradient id="g1" x1="0" y1="0" x2="0" y2="1">
  <stop offset="0%" stop-color="#FF6363" stop-opacity="0.25"/>
  <stop offset="100%" stop-color="#FF6363" stop-opacity="0"/>
</linearGradient>
  <clipPath id="ca"><rect x="72" y="45" width="698" height="295"/></clipPath>
</defs>
<rect width="800" height="400" fill="#ffffff" rx="12"/>
<text x="400" y="26" text-anchor="middle" font-size="15" font-weight="600" fill="#111827">Packages Growth Over Time</text>
<line x1="72" y1="340.0" x2="770" y2="340.0" stroke="#f3f4f6" stroke-width="1"/>
<text x="66" y="344.0" text-anchor="end" font-size="11" fill="#6b7280">2.4k</text>
<line x1="72" y1="266.3" x2="770" y2="266.3" stroke="#f3f4f6" stroke-width="1"/>
<text x="66" y="270.3" text-anchor="end" font-size="11" fill="#6b7280">2.6k</text>
<line x1="72" y1="192.5" x2="770" y2="192.5" stroke="#f3f4f6" stroke-width="1"/>
<text x="66" y="196.5" text-anchor="end" font-size="11" fill="#6b7280">2.8k</text>
<line x1="72" y1="118.8" x2="770" y2="118.8" stroke="#f3f4f6" stroke-width="1"/>
<text x="66" y="122.8" text-anchor="end" font-size="11" fill="#6b7280">3.0k</text>
<line x1="72" y1="45.0" x2="770" y2="45.0" stroke="#f3f4f6" stroke-width="1"/>
<text x="66" y="49.0" text-anchor="end" font-size="11" fill="#6b7280">3.2k</text>
<line x1="122.8" y1="45" x2="122.8" y2="340" stroke="#e5e7eb" stroke-width="1" stroke-dasharray="3,3" clip-path="url(#ca)"/>
<line x1="232.8" y1="45" x2="232.8" y2="340" stroke="#e5e7eb" stroke-width="1" stroke-dasharray="3,3" clip-path="url(#ca)"/>
<line x1="347.0" y1="45" x2="347.0" y2="340" stroke="#e5e7eb" stroke-width="1" stroke-dasharray="3,3" clip-path="url(#ca)"/>
<line x1="461.2" y1="45" x2="461.2" y2="340" stroke="#e5e7eb" stroke-width="1" stroke-dasharray="3,3" clip-path="url(#ca)"/>
<line x1="575.4" y1="45" x2="575.4" y2="340" stroke="#e5e7eb" stroke-width="1" stroke-dasharray="3,3" clip-path="url(#ca)"/>
<line x1="685.4" y1="45" x2="685.4" y2="340" stroke="#e5e7eb" stroke-width="1" stroke-dasharray="3,3" clip-path="url(#ca)"/>
<text x="72.0" y="358.0" text-anchor="middle" font-size="11" fill="#6b7280">Dec 11</text>
<text x="211.6" y="358.0" text-anchor="middle" font-size="11" fill="#6b7280">Jan 27</text>
<text x="351.2" y="358.0" text-anchor="middle" font-size="11" fill="#6b7280">Mar 2</text>
<text x="490.8" y="358.0" text-anchor="middle" font-size="11" fill="#6b7280">Apr 9</text>
<text x="630.4" y="358.0" text-anchor="middle" font-size="11" fill="#6b7280">May 19</text>
<text x="770.0" y="358.0" text-anchor="middle" font-size="11" fill="#6b7280">Jun 26</text>
<line x1="72" y1="45" x2="72" y2="340" stroke="#e5e7eb" stroke-width="1"/>
<line x1="72" y1="340" x2="770" y2="340" stroke="#e5e7eb" stroke-width="1"/>
<text x="-192.5" y="18" text-anchor="middle" font-size="12" fill="#6b7280" transform="rotate(-90)">Extensions</text>
<path d="M 72.0,340 L 72.0,311.6 L 76.2,311.2 L 80.5,311.2 L 84.7,310.1 L 88.9,310.1 L 93.2,309.4 L 97.4,308.7 L 101.6,308.3 L 105.8,306.4 L 110.1,305.0 L 114.3,305.0 L 118.5,305.0 L 122.8,305.0 L 127.0,304.2 L 131.2,304.2 L 135.5,304.2 L 139.7,303.5 L 143.9,302.0 L 148.1,299.4 L 152.4,297.6 L 156.6,296.9 L 160.8,296.5 L 165.1,295.0 L 169.3,290.6 L 173.5,289.1 L 177.8,289.1 L 182.0,285.4 L 186.2,284.3 L 190.4,282.8 L 194.7,281.7 L 198.9,279.5 L 203.1,277.7 L 207.4,277.3 L 211.6,274.4 L 215.8,271.8 L 220.1,271.8 L 224.3,269.9 L 228.5,268.5 L 232.8,268.1 L 237.0,267.7 L 241.2,267.4 L 245.4,266.3 L 249.7,259.6 L 253.9,256.7 L 258.1,255.2 L 262.4,254.4 L 266.6,253.3 L 270.8,250.8 L 275.1,250.0 L 279.3,249.3 L 283.5,247.1 L 287.7,246.3 L 292.0,245.6 L 296.2,245.6 L 300.4,239.0 L 304.7,238.2 L 308.9,237.5 L 313.1,236.0 L 317.4,234.2 L 321.6,234.2 L 325.8,231.2 L 330.0,226.4 L 334.3,225.7 L 338.5,226.1 L 342.7,224.9 L 347.0,224.6 L 351.2,224.6 L 355.4,222.4 L 359.7,220.5 L 363.9,219.1 L 368.1,217.2 L 372.4,216.8 L 376.6,216.8 L 380.8,214.3 L 385.0,213.5 L 389.3,213.2 L 393.5,208.7 L 397.7,208.4 L 402.0,208.4 L 406.2,208.4 L 410.4,208.0 L 414.7,206.1 L 418.9,204.7 L 423.1,202.8 L 427.3,202.5 L 431.6,201.3 L 435.8,198.0 L 440.0,195.1 L 444.3,194.7 L 448.5,194.3 L 452.7,193.2 L 457.0,189.6 L 461.2,188.8 L 465.4,187.7 L 469.6,185.5 L 473.9,185.1 L 478.1,184.8 L 482.3,184.8 L 486.6,184.0 L 490.8,181.8 L 495.0,181.1 L 499.3,180.3 L 503.5,180.0 L 507.7,179.2 L 512.0,175.5 L 516.2,175.2 L 520.4,174.4 L 524.6,174.1 L 528.9,172.2 L 533.1,171.9 L 537.3,171.5 L 541.6,170.4 L 545.8,168.9 L 550.0,168.9 L 554.3,168.9 L 558.5,168.9 L 562.7,168.2 L 566.9,166.3 L 571.2,166.0 L 575.4,164.1 L 579.6,163.7 L 583.9,163.4 L 588.1,161.2 L 592.3,158.9 L 596.6,158.6 L 600.8,158.2 L 605.0,153.4 L 609.2,151.9 L 613.5,150.8 L 617.7,150.5 L 621.9,147.9 L 626.2,147.9 L 630.4,146.0 L 634.6,144.9 L 638.9,141.2 L 643.1,139.8 L 647.3,139.4 L 651.6,139.0 L 655.8,139.0 L 660.0,138.7 L 664.2,136.5 L 668.5,134.6 L 672.7,134.6 L 676.9,134.2 L 681.2,134.2 L 685.4,132.8 L 689.6,132.0 L 693.9,130.9 L 698.1,129.8 L 702.3,128.3 L 706.5,128.3 L 710.8,127.2 L 715.0,125.8 L 719.2,122.8 L 723.5,120.2 L 727.7,119.5 L 731.9,118.8 L 736.2,118.0 L 740.4,117.6 L 744.6,116.5 L 748.8,114.3 L 753.1,114.0 L 757.3,112.5 L 761.5,111.0 L 765.8,108.4 L 770.0,107.3 L 770.0,340 Z" fill="url(#g1)" clip-path="url(#ca)"/>
<path d="M 72.0,311.6 L 76.2,311.2 L 80.5,311.2 L 84.7,310.1 L 88.9,310.1 L 93.2,309.4 L 97.4,308.7 L 101.6,308.3 L 105.8,306.4 L 110.1,305.0 L 114.3,305.0 L 118.5,305.0 L 122.8,305.0 L 127.0,304.2 L 131.2,304.2 L 135.5,304.2 L 139.7,303.5 L 143.9,302.0 L 148.1,299.4 L 152.4,297.6 L 156.6,296.9 L 160.8,296.5 L 165.1,295.0 L 169.3,290.6 L 173.5,289.1 L 177.8,289.1 L 182.0,285.4 L 186.2,284.3 L 190.4,282.8 L 194.7,281.7 L 198.9,279.5 L 203.1,277.7 L 207.4,277.3 L 211.6,274.4 L 215.8,271.8 L 220.1,271.8 L 224.3,269.9 L 228.5,268.5 L 232.8,268.1 L 237.0,267.7 L 241.2,267.4 L 245.4,266.3 L 249.7,259.6 L 253.9,256.7 L 258.1,255.2 L 262.4,254.4 L 266.6,253.3 L 270.8,250.8 L 275.1,250.0 L 279.3,249.3 L 283.5,247.1 L 287.7,246.3 L 292.0,245.6 L 296.2,245.6 L 300.4,239.0 L 304.7,238.2 L 308.9,237.5 L 313.1,236.0 L 317.4,234.2 L 321.6,234.2 L 325.8,231.2 L 330.0,226.4 L 334.3,225.7 L 338.5,226.1 L 342.7,224.9 L 347.0,224.6 L 351.2,224.6 L 355.4,222.4 L 359.7,220.5 L 363.9,219.1 L 368.1,217.2 L 372.4,216.8 L 376.6,216.8 L 380.8,214.3 L 385.0,213.5 L 389.3,213.2 L 393.5,208.7 L 397.7,208.4 L 402.0,208.4 L 406.2,208.4 L 410.4,208.0 L 414.7,206.1 L 418.9,204.7 L 423.1,202.8 L 427.3,202.5 L 431.6,201.3 L 435.8,198.0 L 440.0,195.1 L 444.3,194.7 L 448.5,194.3 L 452.7,193.2 L 457.0,189.6 L 461.2,188.8 L 465.4,187.7 L 469.6,185.5 L 473.9,185.1 L 478.1,184.8 L 482.3,184.8 L 486.6,184.0 L 490.8,181.8 L 495.0,181.1 L 499.3,180.3 L 503.5,180.0 L 507.7,179.2 L 512.0,175.5 L 516.2,175.2 L 520.4,174.4 L 524.6,174.1 L 528.9,172.2 L 533.1,171.9 L 537.3,171.5 L 541.6,170.4 L 545.8,168.9 L 550.0,168.9 L 554.3,168.9 L 558.5,168.9 L 562.7,168.2 L 566.9,166.3 L 571.2,166.0 L 575.4,164.1 L 579.6,163.7 L 583.9,163.4 L 588.1,161.2 L 592.3,158.9 L 596.6,158.6 L 600.8,158.2 L 605.0,153.4 L 609.2,151.9 L 613.5,150.8 L 617.7,150.5 L 621.9,147.9 L 626.2,147.9 L 630.4,146.0 L 634.6,144.9 L 638.9,141.2 L 643.1,139.8 L 647.3,139.4 L 651.6,139.0 L 655.8,139.0 L 660.0,138.7 L 664.2,136.5 L 668.5,134.6 L 672.7,134.6 L 676.9,134.2 L 681.2,134.2 L 685.4,132.8 L 689.6,132.0 L 693.9,130.9 L 698.1,129.8 L 702.3,128.3 L 706.5,128.3 L 710.8,127.2 L 715.0,125.8 L 719.2,122.8 L 723.5,120.2 L 727.7,119.5 L 731.9,118.8 L 736.2,118.0 L 740.4,117.6 L 744.6,116.5 L 748.8,114.3 L 753.1,114.0 L 757.3,112.5 L 761.5,111.0 L 765.8,108.4 L 770.0,107.3" fill="none" stroke="#FF6363" stroke-width="2.5" stroke-linejoin="round" clip-path="url(#ca)"/>
<text x="95.3" y="55.0" text-anchor="middle" font-size="9" fill="#FF6363" opacity="0.85" clip-path="url(#ca)">+0.7% (+18)</text>
<text x="175.6" y="55.0" text-anchor="middle" font-size="9" fill="#FF6363" opacity="0.85" clip-path="url(#ca)">+4.0% (+99)</text>
<text x="287.7" y="55.0" text-anchor="middle" font-size="9" fill="#FF6363" opacity="0.85" clip-path="url(#ca)">+4.5% (+117)</text>
<text x="402.0" y="55.0" text-anchor="middle" font-size="9" fill="#FF6363" opacity="0.85" clip-path="url(#ca)">+3.5% (+95)</text>
<text x="516.2" y="55.0" text-anchor="middle" font-size="9" fill="#FF6363" opacity="0.85" clip-path="url(#ca)">+2.2% (+62)</text>
<text x="628.3" y="55.0" text-anchor="middle" font-size="9" fill="#FF6363" opacity="0.85" clip-path="url(#ca)">+2.8% (+81)</text>
<text x="727.7" y="55.0" text-anchor="middle" font-size="9" fill="#FF6363" opacity="0.85" clip-path="url(#ca)">+2.3% (+69)</text>
<rect x="351" y="369" width="12" height="12" fill="#FF6363" rx="2"/>
<text x="367" y="379" font-size="12" fill="#111827">Extensions</text>
<text x="72" y="394" font-size="8" fill="#e5e7eb">data since Dec 11, 2025</text>
</svg>