<svg xmlns="http://www.w3.org/2000/svg" width="800" height="400" viewBox="0 0 800 400">
<defs>
  <style>text { font-family: -apple-system, BlinkMacSystemFont, 'Segoe UI', Roboto, sans-serif; }</style>
  <linearGradient id="g1" x1="0" y1="0" x2="0" y2="1">
  <stop offset="0%" stop-color="#FF6363" stop-opacity="0.25"/>
  <stop offset="100%" stop-color="#FF6363" stop-opacity="0"/>
</linearGradient>
  <clipPath id="ca"><rect x="72" y="45" width="698" height="295"/></clipPath>
</defs>
<rect width="800" height="400" fill="#ffffff" rx="12"/>
<text x="400" y="26" text-anchor="middle" font-size="15" font-weight="600" fill="#111827">Packages Growth Over Time</text>
<line x1="72" y1="340.0" x2="770" y2="340.0" stroke="#f3f4f6" stroke-width="1"/>
<text x="66" y="344.0" text-anchor="end" font-size="11" fill="#6b7280">2.4k</text>
<line x1="72" y1="281.0" x2="770" y2="281.0" stroke="#f3f4f6" stroke-width="1"/>
<text x="66" y="285.0" text-anchor="end" font-size="11" fill="#6b7280">2.5k</text>
<line x1="72" y1="222.0" x2="770" y2="222.0" stroke="#f3f4f6" stroke-width="1"/>
<text x="66" y="226.0" text-anchor="end" font-size="11" fill="#6b7280">2.6k</text>
<line x1="72" y1="163.0" x2="770" y2="163.0" stroke="#f3f4f6" stroke-width="1"/>
<text x="66" y="167.0" text-anchor="end" font-size="11" fill="#6b7280">2.7k</text>
<line x1="72" y1="104.0" x2="770" y2="104.0" stroke="#f3f4f6" stroke-width="1"/>
<text x="66" y="108.0" text-anchor="end" font-size="11" fill="#6b7280">2.8k</text>
<line x1="72" y1="45.0" x2="770" y2="45.0" stroke="#f3f4f6" stroke-width="1"/>
<text x="66" y="49.0" text-anchor="end" font-size="11" fill="#6b7280">2.9k</text>
<line x1="141.2" y1="45" x2="141.2" y2="340" stroke="#e5e7eb" stroke-width="1" stroke-dasharray="3,3" clip-path="url(#ca)"/>
<line x1="291.2" y1="45" x2="291.2" y2="340" stroke="#e5e7eb" stroke-width="1" stroke-dasharray="3,3" clip-path="url(#ca)"/>
<line x1="447.0" y1="45" x2="447.0" y2="340" stroke="#e5e7eb" stroke-width="1" stroke-dasharray="3,3" clip-path="url(#ca)"/>
<line x1="602.7" y1="45" x2="602.7" y2="340" stroke="#e5e7eb" stroke-width="1" stroke-dasharray="3,3" clip-path="url(#ca)"/>
<line x1="758.5" y1="45" x2="758.5" y2="340" stroke="#e5e7eb" stroke-width="1" stroke-dasharray="3,3" clip-path="url(#ca)"/>
<text x="72.0" y="358.0" text-anchor="middle" font-size="11" fill="#6b7280">Dec 11</text>
<text x="210.4" y="358.0" text-anchor="middle" font-size="11" fill="#6b7280">Jan 17</text>
<text x="348.9" y="358.0" text-anchor="middle" font-size="11" fill="#6b7280">Feb 11</text>
<text x="493.1" y="358.0" text-anchor="middle" font-size="11" fill="#6b7280">Mar 10</text>
<text x="631.6" y="358.0" text-anchor="middle" font-size="11" fill="#6b7280">Apr 7</text>
<text x="770.0" y="358.0" text-anchor="middle" font-size="11" fill="#6b7280">May 5</text>
<line x1="72" y1="45" x2="72" y2="340" stroke="#e5e7eb" stroke-width="1"/>
<line x1="72" y1="340" x2="770" y2="340" stroke="#e5e7eb" stroke-width="1"/>
<text x="-192.5" y="18" text-anchor="middle" font-size="12" fill="#6b7280" transform="rotate(-90)">Extensions</text>
<path d="M 72.0,340 L 72.0,294.6 L 77.8,294.0 L 83.5,294.0 L 89.3,292.2 L 95.1,292.2 L 100.8,291.0 L 106.6,289.9 L 112.4,289.3 L 118.1,286.3 L 123.9,283.9 L 129.7,283.9 L 135.5,283.9 L 141.2,283.9 L 147.0,282.8 L 152.8,282.8 L 158.5,282.8 L 164.3,281.6 L 170.1,279.2 L 175.8,275.1 L 181.6,272.1 L 187.4,271.0 L 193.1,270.4 L 198.9,268.0 L 204.7,260.9 L 210.4,258.6 L 216.2,258.6 L 222.0,252.7 L 227.8,250.9 L 233.5,248.6 L 239.3,246.8 L 245.1,243.2 L 250.8,240.3 L 256.6,239.7 L 262.4,235.0 L 268.1,230.8 L 273.9,230.8 L 279.7,227.9 L 285.4,225.5 L 291.2,224.9 L 297.0,224.4 L 302.7,223.8 L 308.5,222.0 L 314.3,211.4 L 320.0,206.7 L 325.8,204.3 L 331.6,203.1 L 337.4,201.3 L 343.1,197.2 L 348.9,196.0 L 354.7,194.9 L 360.4,191.3 L 366.2,190.1 L 372.0,189.0 L 377.7,189.0 L 383.5,178.3 L 389.3,177.2 L 395.0,176.0 L 400.8,173.6 L 406.6,170.7 L 412.3,170.7 L 418.1,166.0 L 423.9,158.3 L 429.7,157.1 L 435.4,157.7 L 441.2,155.9 L 447.0,155.3 L 452.7,155.3 L 458.5,151.8 L 464.3,148.8 L 470.0,146.5 L 475.8,143.5 L 481.6,142.9 L 487.3,142.9 L 493.1,138.8 L 498.9,137.6 L 504.6,137.0 L 510.4,130.0 L 516.2,129.4 L 522.0,129.4 L 527.7,129.4 L 533.5,128.8 L 539.3,125.8 L 545.0,123.5 L 550.8,120.5 L 556.6,119.9 L 562.3,118.2 L 568.1,112.8 L 573.9,108.1 L 579.6,107.5 L 585.4,106.9 L 591.2,105.2 L 596.9,99.3 L 602.7,98.1 L 608.5,96.3 L 614.2,92.8 L 620.0,92.2 L 625.8,91.6 L 631.6,91.6 L 637.3,90.4 L 643.1,86.9 L 648.9,85.7 L 654.6,84.5 L 660.4,83.9 L 666.2,82.8 L 671.9,76.9 L 677.7,76.3 L 683.5,75.1 L 689.2,74.5 L 695.0,71.6 L 700.8,71.0 L 706.5,70.4 L 712.3,68.6 L 718.1,66.2 L 723.9,66.2 L 729.6,66.2 L 735.4,66.2 L 741.2,65.1 L 746.9,62.1 L 752.7,61.5 L 758.5,58.6 L 764.2,58.0 L 770.0,57.4 L 770.0,340 Z" fill="url(#g1)" clip-path="url(#ca)"/>
<path d="M 72.0,294.6 L 77.8,294.0 L 83.5,294.0 L 89.3,292.2 L 95.1,292.2 L 100.8,291.0 L 106.6,289.9 L 112.4,289.3 L 118.1,286.3 L 123.9,283.9 L 129.7,283.9 L 135.5,283.9 L 141.2,283.9 L 147.0,282.8 L 152.8,282.8 L 158.5,282.8 L 164.3,281.6 L 170.1,279.2 L 175.8,275.1 L 181.6,272.1 L 187.4,271.0 L 193.1,270.4 L 198.9,268.0 L 204.7,260.9 L 210.4,258.6 L 216.2,258.6 L 222.0,252.7 L 227.8,250.9 L 233.5,248.6 L 239.3,246.8 L 245.1,243.2 L 250.8,240.3 L 256.6,239.7 L 262.4,235.0 L 268.1,230.8 L 273.9,230.8 L 279.7,227.9 L 285.4,225.5 L 291.2,224.9 L 297.0,224.4 L 302.7,223.8 L 308.5,222.0 L 314.3,211.4 L 320.0,206.7 L 325.8,204.3 L 331.6,203.1 L 337.4,201.3 L 343.1,197.2 L 348.9,196.0 L 354.7,194.9 L 360.4,191.3 L 366.2,190.1 L 372.0,189.0 L 377.7,189.0 L 383.5,178.3 L 389.3,177.2 L 395.0,176.0 L 400.8,173.6 L 406.6,170.7 L 412.3,170.7 L 418.1,166.0 L 423.9,158.3 L 429.7,157.1 L 435.4,157.7 L 441.2,155.9 L 447.0,155.3 L 452.7,155.3 L 458.5,151.8 L 464.3,148.8 L 470.0,146.5 L 475.8,143.5 L 481.6,142.9 L 487.3,142.9 L 493.1,138.8 L 498.9,137.6 L 504.6,137.0 L 510.4,130.0 L 516.2,129.4 L 522.0,129.4 L 527.7,129.4 L 533.5,128.8 L 539.3,125.8 L 545.0,123.5 L 550.8,120.5 L 556.6,119.9 L 562.3,118.2 L 568.1,112.8 L 573.9,108.1 L 579.6,107.5 L 585.4,106.9 L 591.2,105.2 L 596.9,99.3 L 602.7,98.1 L 608.5,96.3 L 614.2,92.8 L 620.0,92.2 L 625.8,91.6 L 631.6,91.6 L 637.3,90.4 L 643.1,86.9 L 648.9,85.7 L 654.6,84.5 L 660.4,83.9 L 666.2,82.8 L 671.9,76.9 L 677.7,76.3 L 683.5,75.1 L 689.2,74.5 L 695.0,71.6 L 700.8,71.0 L 706.5,70.4 L 712.3,68.6 L 718.1,66.2 L 723.9,66.2 L 729.6,66.2 L 735.4,66.2 L 741.2,65.1 L 746.9,62.1 L 752.7,61.5 L 758.5,58.6 L 764.2,58.0 L 770.0,57.4" fill="none" stroke="#FF6363" stroke-width="2.5" stroke-linejoin="round" clip-path="url(#ca)"/>
<text x="103.7" y="55.0" text-anchor="middle" font-size="9" fill="#FF6363" opacity="0.85" clip-path="url(#ca)">+0.7% (+18)</text>
<text x="213.3" y="55.0" text-anchor="middle" font-size="9" fill="#FF6363" opacity="0.85" clip-path="url(#ca)">+4.0% (+99)</text>
<text x="366.2" y="55.0" text-anchor="middle" font-size="9" fill="#FF6363" opacity="0.85" clip-path="url(#ca)">+4.5% (+117)</text>
<text x="522.0" y="55.0" text-anchor="middle" font-size="9" fill="#FF6363" opacity="0.85" clip-path="url(#ca)">+3.5% (+95)</text>
<text x="677.7" y="55.0" text-anchor="middle" font-size="9" fill="#FF6363" opacity="0.85" clip-path="url(#ca)">+2.2% (+62)</text>
<text x="764.2" y="55.0" text-anchor="middle" font-size="9" fill="#FF6363" opacity="0.85" clip-path="url(#ca)">+0.1% (+2)</text>
<rect x="351" y="369" width="12" height="12" fill="#FF6363" rx="2"/>
<text x="367" y="379" font-size="12" fill="#111827">Extensions</text>
<text x="72" y="394" font-size="8" fill="#e5e7eb">data since Dec 11, 2025</text>
</svg>