<svg xmlns="http://www.w3.org/2000/svg" width="800" height="420" viewBox="0 0 800 420">
<defs><style>text { font-family: -apple-system, BlinkMacSystemFont, 'Segoe UI', Roboto, sans-serif; }</style></defs>
<rect width="800" height="420" fill="#ffffff" rx="12"/>
<text x="400" y="26" text-anchor="middle" font-size="15" font-weight="600" fill="#111827">Top @raycast/api Versions</text>
<line x1="120" y1="45" x2="120" y2="375" stroke="#e5e7eb" stroke-width="1"/>
<line x1="120" y1="375" x2="740" y2="375" stroke="#e5e7eb" stroke-width="1"/>
<line x1="120.0" y1="45" x2="120.0" y2="375" stroke="#f3f4f6" stroke-width="1"/>
<text x="120.0" y="391.0" text-anchor="middle" font-size="11" fill="#6b7280">0</text>
<line x1="274.0" y1="45" x2="274.0" y2="375" stroke="#f3f4f6" stroke-width="1"/>
<text x="274.0" y="391.0" text-anchor="middle" font-size="11" fill="#6b7280">37</text>
<line x1="432.1" y1="45" x2="432.1" y2="375" stroke="#f3f4f6" stroke-width="1"/>
<text x="432.1" y="391.0" text-anchor="middle" font-size="11" fill="#6b7280">75</text>
<line x1="586.0" y1="45" x2="586.0" y2="375" stroke="#f3f4f6" stroke-width="1"/>
<text x="586.0" y="391.0" text-anchor="middle" font-size="11" fill="#6b7280">112</text>
<line x1="740.0" y1="45" x2="740.0" y2="375" stroke="#f3f4f6" stroke-width="1"/>
<text x="740.0" y="391.0" text-anchor="middle" font-size="11" fill="#6b7280">149</text>
<rect x="120" y="50.8" width="620.0" height="16" fill="#FF6363" rx="3" opacity="0.85"/>
<text x="114" y="62.8" text-anchor="end" font-size="11" fill="#111827">^1.104.1</text>
<text x="745.0" y="62.8" font-size="11" fill="#6b7280">149</text>
<rect x="120" y="78.3" width="328.7" height="16" fill="#FF6363" rx="3" opacity="0.85"/>
<text x="114" y="90.3" text-anchor="end" font-size="11" fill="#111827">^1.103.0</text>
<text x="453.7" y="90.3" font-size="11" fill="#6b7280">79</text>
<rect x="120" y="105.8" width="299.6" height="16" fill="#FF6363" rx="3" opacity="0.85"/>
<text x="114" y="117.8" text-anchor="end" font-size="11" fill="#111827">^1.79.0</text>
<text x="424.6" y="117.8" font-size="11" fill="#6b7280">72</text>
<rect x="120" y="133.3" width="287.1" height="16" fill="#FF6363" rx="3" opacity="0.85"/>
<text x="114" y="145.3" text-anchor="end" font-size="11" fill="#111827">^1.103.10</text>
<text x="412.1" y="145.3" font-size="11" fill="#6b7280">69</text>
<rect x="120" y="160.8" width="270.5" height="16" fill="#FF6363" rx="3" opacity="0.85"/>
<text x="114" y="172.8" text-anchor="end" font-size="11" fill="#111827">^1.100.3</text>
<text x="395.5" y="172.8" font-size="11" fill="#6b7280">65</text>
<rect x="120" y="188.3" width="245.5" height="16" fill="#FF6363" rx="3" opacity="0.85"/>
<text x="114" y="200.3" text-anchor="end" font-size="11" fill="#111827">^1.94.0</text>
<text x="370.5" y="200.3" font-size="11" fill="#6b7280">59</text>
<rect x="120" y="215.8" width="237.2" height="16" fill="#FF6363" rx="3" opacity="0.85"/>
<text x="114" y="227.8" text-anchor="end" font-size="11" fill="#111827">^1.104.6</text>
<text x="362.2" y="227.8" font-size="11" fill="#6b7280">57</text>
<rect x="120" y="243.3" width="195.6" height="16" fill="#FF6363" rx="3" opacity="0.85"/>
<text x="114" y="255.3" text-anchor="end" font-size="11" fill="#111827">^1.103.6</text>
<text x="320.6" y="255.3" font-size="11" fill="#6b7280">47</text>
<rect x="120" y="270.8" width="174.8" height="16" fill="#FF6363" rx="3" opacity="0.85"/>
<text x="114" y="282.8" text-anchor="end" font-size="11" fill="#111827">^1.104.3</text>
<text x="299.8" y="282.8" font-size="11" fill="#6b7280">42</text>
<rect x="120" y="298.3" width="170.6" height="16" fill="#FF6363" rx="3" opacity="0.85"/>
<text x="114" y="310.3" text-anchor="end" font-size="11" fill="#111827">^1.69.0</text>
<text x="295.6" y="310.3" font-size="11" fill="#6b7280">41</text>
<rect x="120" y="325.8" width="141.5" height="16" fill="#FF6363" rx="3" opacity="0.85"/>
<text x="114" y="337.8" text-anchor="end" font-size="11" fill="#111827">^1.103.3</text>
<text x="266.5" y="337.8" font-size="11" fill="#6b7280">34</text>
<rect x="120" y="353.3" width="137.3" height="16" fill="#FF6363" rx="3" opacity="0.85"/>
<text x="114" y="365.3" text-anchor="end" font-size="11" fill="#111827">^1.93.2</text>
<text x="262.3" y="365.3" font-size="11" fill="#6b7280">33</text>
<text x="400" y="410" text-anchor="middle" font-size="12" fill="#6b7280">Number of extensions</text>
</svg>