<svg xmlns="http://www.w3.org/2000/svg" width="800" height="400" viewBox="0 0 800 400">
<defs>
  <style>text { font-family: -apple-system, BlinkMacSystemFont, 'Segoe UI', Roboto, sans-serif; }</style>
  <linearGradient id="g5" x1="0" y1="0" x2="0" y2="1">
  <stop offset="0%" stop-color="#34C759" stop-opacity="0.25"/>
  <stop offset="100%" stop-color="#34C759" stop-opacity="0"/>
</linearGradient>
<linearGradient id="g6" x1="0" y1="0" x2="0" y2="1">
  <stop offset="0%" stop-color="#4F8EF7" stop-opacity="0.25"/>
  <stop offset="100%" stop-color="#4F8EF7" stop-opacity="0"/>
</linearGradient>
<linearGradient id="g7" x1="0" y1="0" x2="0" y2="1">
  <stop offset="0%" stop-color="#FF6363" stop-opacity="0.25"/>
  <stop offset="100%" stop-color="#FF6363" stop-opacity="0"/>
</linearGradient>
  <clipPath id="ca"><rect x="72" y="45" width="698" height="295"/></clipPath>
</defs>
<rect width="800" height="400" fill="#ffffff" rx="12"/>
<text x="400" y="26" text-anchor="middle" font-size="15" font-weight="600" fill="#111827">Platform Support Over Time</text>
<line x1="72" y1="340.0" x2="770" y2="340.0" stroke="#f3f4f6" stroke-width="1"/>
<text x="66" y="344.0" text-anchor="end" font-size="11" fill="#6b7280">0</text>
<line x1="72" y1="281.0" x2="770" y2="281.0" stroke="#f3f4f6" stroke-width="1"/>
<text x="66" y="285.0" text-anchor="end" font-size="11" fill="#6b7280">200</text>
<line x1="72" y1="222.0" x2="770" y2="222.0" stroke="#f3f4f6" stroke-width="1"/>
<text x="66" y="226.0" text-anchor="end" font-size="11" fill="#6b7280">400</text>
<line x1="72" y1="163.0" x2="770" y2="163.0" stroke="#f3f4f6" stroke-width="1"/>
<text x="66" y="167.0" text-anchor="end" font-size="11" fill="#6b7280">600</text>
<line x1="72" y1="104.0" x2="770" y2="104.0" stroke="#f3f4f6" stroke-width="1"/>
<text x="66" y="108.0" text-anchor="end" font-size="11" fill="#6b7280">800</text>
<line x1="72" y1="45.0" x2="770" y2="45.0" stroke="#f3f4f6" stroke-width="1"/>
<text x="66" y="49.0" text-anchor="end" font-size="11" fill="#6b7280">1.0k</text>
<line x1="122.2" y1="45" x2="122.2" y2="340" stroke="#e5e7eb" stroke-width="1" stroke-dasharray="3,3" clip-path="url(#ca)"/>
<line x1="230.8" y1="45" x2="230.8" y2="340" stroke="#e5e7eb" stroke-width="1" stroke-dasharray="3,3" clip-path="url(#ca)"/>
<line x1="343.7" y1="45" x2="343.7" y2="340" stroke="#e5e7eb" stroke-width="1" stroke-dasharray="3,3" clip-path="url(#ca)"/>
<line x1="456.5" y1="45" x2="456.5" y2="340" stroke="#e5e7eb" stroke-width="1" stroke-dasharray="3,3" clip-path="url(#ca)"/>
<line x1="569.4" y1="45" x2="569.4" y2="340" stroke="#e5e7eb" stroke-width="1" stroke-dasharray="3,3" clip-path="url(#ca)"/>
<line x1="678.0" y1="45" x2="678.0" y2="340" stroke="#e5e7eb" stroke-width="1" stroke-dasharray="3,3" clip-path="url(#ca)"/>
<text x="72.0" y="358.0" text-anchor="middle" font-size="11" fill="#6b7280">Dec 11</text>
<text x="209.9" y="358.0" text-anchor="middle" font-size="11" fill="#6b7280">Jan 27</text>
<text x="352.0" y="358.0" text-anchor="middle" font-size="11" fill="#6b7280">Mar 3</text>
<text x="490.0" y="358.0" text-anchor="middle" font-size="11" fill="#6b7280">Apr 10</text>
<text x="632.1" y="358.0" text-anchor="middle" font-size="11" fill="#6b7280">May 21</text>
<text x="770.0" y="358.0" text-anchor="middle" font-size="11" fill="#6b7280">Jun 29</text>
<line x1="72" y1="45" x2="72" y2="340" stroke="#e5e7eb" stroke-width="1"/>
<line x1="72" y1="340" x2="770" y2="340" stroke="#e5e7eb" stroke-width="1"/>
<text x="-192.5" y="18" text-anchor="middle" font-size="12" fill="#6b7280" transform="rotate(-90)">Extensions</text>
<path d="M 72.0,340 L 72.0,242.6 L 76.2,240.0 L 80.4,239.7 L 84.5,238.5 L 88.7,237.9 L 92.9,235.0 L 97.1,233.2 L 101.3,232.3 L 105.4,230.8 L 109.6,229.1 L 113.8,228.2 L 118.0,227.9 L 122.2,227.0 L 126.3,226.4 L 130.5,226.1 L 134.7,225.2 L 138.9,224.4 L 143.1,223.5 L 147.2,222.6 L 151.4,221.4 L 155.6,220.5 L 159.8,219.6 L 164.0,218.8 L 168.1,217.0 L 172.3,216.4 L 176.5,216.4 L 180.7,214.3 L 184.9,213.7 L 189.0,213.2 L 193.2,212.6 L 197.4,211.1 L 201.6,209.0 L 205.7,208.7 L 209.9,208.4 L 214.1,206.7 L 218.3,206.1 L 222.5,204.6 L 226.6,204.3 L 230.8,204.0 L 235.0,203.4 L 239.2,203.4 L 243.4,203.4 L 247.5,199.3 L 251.7,199.0 L 255.9,198.1 L 260.1,197.8 L 264.3,197.5 L 268.4,196.6 L 272.6,196.0 L 276.8,195.4 L 281.0,193.7 L 285.2,193.7 L 289.3,193.7 L 293.5,193.4 L 297.7,190.4 L 301.9,189.6 L 306.1,189.0 L 310.2,188.1 L 314.4,187.5 L 318.6,187.5 L 322.8,186.0 L 327.0,183.9 L 331.1,183.4 L 335.3,183.1 L 339.5,182.2 L 343.7,182.2 L 347.9,181.6 L 352.0,180.7 L 356.2,180.1 L 360.4,178.9 L 364.6,177.8 L 368.8,177.5 L 372.9,177.5 L 377.1,176.3 L 381.3,176.3 L 385.5,176.3 L 389.7,174.5 L 393.8,174.2 L 398.0,173.9 L 402.2,173.9 L 406.4,173.6 L 410.6,172.4 L 414.7,171.9 L 418.9,171.0 L 423.1,171.0 L 427.3,170.7 L 431.4,169.5 L 435.6,168.6 L 439.8,168.6 L 444.0,168.3 L 448.2,167.7 L 452.3,165.7 L 456.5,165.1 L 460.7,164.2 L 464.9,164.2 L 469.1,163.6 L 473.2,163.3 L 477.4,163.0 L 481.6,162.7 L 485.8,162.4 L 490.0,162.4 L 494.1,162.1 L 498.3,161.8 L 502.5,160.9 L 506.7,159.8 L 510.9,159.5 L 515.0,158.6 L 519.2,158.6 L 523.4,157.4 L 527.6,157.1 L 531.8,157.1 L 535.9,157.1 L 540.1,156.2 L 544.3,155.9 L 548.5,155.9 L 552.7,155.9 L 556.8,155.6 L 561.0,154.4 L 565.2,154.2 L 569.4,153.3 L 573.6,152.7 L 577.7,152.7 L 581.9,151.8 L 586.1,151.2 L 590.3,151.2 L 594.5,150.9 L 598.6,149.4 L 602.8,148.0 L 607.0,147.7 L 611.2,147.1 L 615.4,145.9 L 619.5,145.9 L 623.7,145.3 L 627.9,143.8 L 632.1,141.2 L 636.3,140.3 L 640.4,140.3 L 644.6,140.3 L 648.8,140.3 L 653.0,140.3 L 657.1,139.1 L 661.3,138.2 L 665.5,138.2 L 669.7,138.2 L 673.9,138.2 L 678.0,137.3 L 682.2,137.3 L 686.4,136.5 L 690.6,135.6 L 694.8,135.3 L 698.9,135.0 L 703.1,134.4 L 707.3,134.4 L 711.5,133.5 L 715.7,132.3 L 719.8,131.4 L 724.0,129.7 L 728.2,129.1 L 732.4,128.8 L 736.6,128.5 L 740.7,127.9 L 744.9,127.6 L 749.1,126.1 L 753.3,125.2 L 757.5,123.8 L 761.6,123.5 L 765.8,123.5 L 770.0,123.2 L 770.0,340 Z" fill="url(#g5)" clip-path="url(#ca)"/>
<path d="M 72.0,242.6 L 76.2,240.0 L 80.4,239.7 L 84.5,238.5 L 88.7,237.9 L 92.9,235.0 L 97.1,233.2 L 101.3,232.3 L 105.4,230.8 L 109.6,229.1 L 113.8,228.2 L 118.0,227.9 L 122.2,227.0 L 126.3,226.4 L 130.5,226.1 L 134.7,225.2 L 138.9,224.4 L 143.1,223.5 L 147.2,222.6 L 151.4,221.4 L 155.6,220.5 L 159.8,219.6 L 164.0,218.8 L 168.1,217.0 L 172.3,216.4 L 176.5,216.4 L 180.7,214.3 L 184.9,213.7 L 189.0,213.2 L 193.2,212.6 L 197.4,211.1 L 201.6,209.0 L 205.7,208.7 L 209.9,208.4 L 214.1,206.7 L 218.3,206.1 L 222.5,204.6 L 226.6,204.3 L 230.8,204.0 L 235.0,203.4 L 239.2,203.4 L 243.4,203.4 L 247.5,199.3 L 251.7,199.0 L 255.9,198.1 L 260.1,197.8 L 264.3,197.5 L 268.4,196.6 L 272.6,196.0 L 276.8,195.4 L 281.0,193.7 L 285.2,193.7 L 289.3,193.7 L 293.5,193.4 L 297.7,190.4 L 301.9,189.6 L 306.1,189.0 L 310.2,188.1 L 314.4,187.5 L 318.6,187.5 L 322.8,186.0 L 327.0,183.9 L 331.1,183.4 L 335.3,183.1 L 339.5,182.2 L 343.7,182.2 L 347.9,181.6 L 352.0,180.7 L 356.2,180.1 L 360.4,178.9 L 364.6,177.8 L 368.8,177.5 L 372.9,177.5 L 377.1,176.3 L 381.3,176.3 L 385.5,176.3 L 389.7,174.5 L 393.8,174.2 L 398.0,173.9 L 402.2,173.9 L 406.4,173.6 L 410.6,172.4 L 414.7,171.9 L 418.9,171.0 L 423.1,171.0 L 427.3,170.7 L 431.4,169.5 L 435.6,168.6 L 439.8,168.6 L 444.0,168.3 L 448.2,167.7 L 452.3,165.7 L 456.5,165.1 L 460.7,164.2 L 464.9,164.2 L 469.1,163.6 L 473.2,163.3 L 477.4,163.0 L 481.6,162.7 L 485.8,162.4 L 490.0,162.4 L 494.1,162.1 L 498.3,161.8 L 502.5,160.9 L 506.7,159.8 L 510.9,159.5 L 515.0,158.6 L 519.2,158.6 L 523.4,157.4 L 527.6,157.1 L 531.8,157.1 L 535.9,157.1 L 540.1,156.2 L 544.3,155.9 L 548.5,155.9 L 552.7,155.9 L 556.8,155.6 L 561.0,154.4 L 565.2,154.2 L 569.4,153.3 L 573.6,152.7 L 577.7,152.7 L 581.9,151.8 L 586.1,151.2 L 590.3,151.2 L 594.5,150.9 L 598.6,149.4 L 602.8,148.0 L 607.0,147.7 L 611.2,147.1 L 615.4,145.9 L 619.5,145.9 L 623.7,145.3 L 627.9,143.8 L 632.1,141.2 L 636.3,140.3 L 640.4,140.3 L 644.6,140.3 L 648.8,140.3 L 653.0,140.3 L 657.1,139.1 L 661.3,138.2 L 665.5,138.2 L 669.7,138.2 L 673.9,138.2 L 678.0,137.3 L 682.2,137.3 L 686.4,136.5 L 690.6,135.6 L 694.8,135.3 L 698.9,135.0 L 703.1,134.4 L 707.3,134.4 L 711.5,133.5 L 715.7,132.3 L 719.8,131.4 L 724.0,129.7 L 728.2,129.1 L 732.4,128.8 L 736.6,128.5 L 740.7,127.9 L 744.9,127.6 L 749.1,126.1 L 753.3,125.2 L 757.5,123.8 L 761.6,123.5 L 765.8,123.5 L 770.0,123.2" fill="none" stroke="#34C759" stroke-width="2.5" stroke-linejoin="round" clip-path="url(#ca)"/>
<path d="M 72.0,340 L 72.0,222.6 L 76.2,222.6 L 80.4,222.3 L 84.5,221.4 L 88.7,221.7 L 92.9,221.7 L 97.1,220.5 L 101.3,219.6 L 105.4,219.6 L 109.6,219.9 L 113.8,219.6 L 118.0,219.3 L 122.2,219.1 L 126.3,219.1 L 130.5,219.1 L 134.7,219.3 L 138.9,218.8 L 143.1,218.2 L 147.2,216.4 L 151.4,215.2 L 155.6,215.2 L 159.8,214.9 L 164.0,213.2 L 168.1,210.5 L 172.3,209.6 L 176.5,209.0 L 180.7,207.0 L 184.9,205.5 L 189.0,204.9 L 193.2,204.3 L 197.4,203.7 L 201.6,203.4 L 205.7,203.4 L 209.9,201.3 L 214.1,200.8 L 218.3,200.2 L 222.5,200.2 L 226.6,198.7 L 230.8,198.4 L 235.0,197.5 L 239.2,196.3 L 243.4,194.9 L 247.5,192.8 L 251.7,190.7 L 255.9,190.4 L 260.1,189.8 L 264.3,189.3 L 268.4,187.5 L 272.6,187.5 L 276.8,186.9 L 281.0,186.0 L 285.2,185.4 L 289.3,184.2 L 293.5,184.5 L 297.7,181.0 L 301.9,180.7 L 306.1,180.4 L 310.2,179.8 L 314.4,178.0 L 318.6,178.0 L 322.8,176.3 L 327.0,174.2 L 331.1,174.2 L 335.3,174.2 L 339.5,173.9 L 343.7,173.6 L 347.9,173.3 L 352.0,171.9 L 356.2,170.1 L 360.4,169.5 L 364.6,168.3 L 368.8,168.3 L 372.9,167.4 L 377.1,165.7 L 381.3,164.8 L 385.5,164.5 L 389.7,162.4 L 393.8,162.1 L 398.0,162.1 L 402.2,161.8 L 406.4,161.8 L 410.6,160.3 L 414.7,159.8 L 418.9,158.9 L 423.1,158.6 L 427.3,158.0 L 431.4,155.6 L 435.6,152.4 L 439.8,152.1 L 444.0,151.5 L 448.2,151.2 L 452.3,149.7 L 456.5,118.5 L 460.7,117.9 L 464.9,116.4 L 469.1,116.4 L 473.2,116.4 L 477.4,116.7 L 481.6,116.4 L 485.8,114.6 L 490.0,114.0 L 494.1,113.7 L 498.3,113.4 L 502.5,112.3 L 506.7,110.5 L 510.9,110.5 L 515.0,110.5 L 519.2,110.2 L 523.4,109.9 L 527.6,109.9 L 531.8,109.3 L 535.9,108.4 L 540.1,106.9 L 544.3,106.4 L 548.5,106.1 L 552.7,106.1 L 556.8,105.8 L 561.0,105.2 L 565.2,104.9 L 569.4,103.4 L 573.6,103.4 L 577.7,102.8 L 581.9,101.6 L 586.1,100.2 L 590.3,99.9 L 594.5,99.6 L 598.6,96.9 L 602.8,96.3 L 607.0,95.7 L 611.2,95.7 L 615.4,94.6 L 619.5,94.0 L 623.7,92.5 L 627.9,91.9 L 632.1,91.0 L 636.3,90.7 L 640.4,89.5 L 644.6,88.7 L 648.8,88.4 L 653.0,87.8 L 657.1,86.6 L 661.3,86.0 L 665.5,85.1 L 669.7,84.5 L 673.9,84.2 L 678.0,83.6 L 682.2,82.8 L 686.4,82.2 L 690.6,81.6 L 694.8,80.7 L 698.9,80.7 L 703.1,80.1 L 707.3,78.6 L 711.5,77.2 L 715.7,76.3 L 719.8,76.6 L 724.0,76.0 L 728.2,75.7 L 732.4,75.4 L 736.6,74.8 L 740.7,73.3 L 744.9,73.3 L 749.1,73.0 L 753.3,72.1 L 757.5,71.3 L 761.6,70.1 L 765.8,69.5 L 770.0,69.5 L 770.0,340 Z" fill="url(#g6)" clip-path="url(#ca)"/>
<path d="M 72.0,222.6 L 76.2,222.6 L 80.4,222.3 L 84.5,221.4 L 88.7,221.7 L 92.9,221.7 L 97.1,220.5 L 101.3,219.6 L 105.4,219.6 L 109.6,219.9 L 113.8,219.6 L 118.0,219.3 L 122.2,219.1 L 126.3,219.1 L 130.5,219.1 L 134.7,219.3 L 138.9,218.8 L 143.1,218.2 L 147.2,216.4 L 151.4,215.2 L 155.6,215.2 L 159.8,214.9 L 164.0,213.2 L 168.1,210.5 L 172.3,209.6 L 176.5,209.0 L 180.7,207.0 L 184.9,205.5 L 189.0,204.9 L 193.2,204.3 L 197.4,203.7 L 201.6,203.4 L 205.7,203.4 L 209.9,201.3 L 214.1,200.8 L 218.3,200.2 L 222.5,200.2 L 226.6,198.7 L 230.8,198.4 L 235.0,197.5 L 239.2,196.3 L 243.4,194.9 L 247.5,192.8 L 251.7,190.7 L 255.9,190.4 L 260.1,189.8 L 264.3,189.3 L 268.4,187.5 L 272.6,187.5 L 276.8,186.9 L 281.0,186.0 L 285.2,185.4 L 289.3,184.2 L 293.5,184.5 L 297.7,181.0 L 301.9,180.7 L 306.1,180.4 L 310.2,179.8 L 314.4,178.0 L 318.6,178.0 L 322.8,176.3 L 327.0,174.2 L 331.1,174.2 L 335.3,174.2 L 339.5,173.9 L 343.7,173.6 L 347.9,173.3 L 352.0,171.9 L 356.2,170.1 L 360.4,169.5 L 364.6,168.3 L 368.8,168.3 L 372.9,167.4 L 377.1,165.7 L 381.3,164.8 L 385.5,164.5 L 389.7,162.4 L 393.8,162.1 L 398.0,162.1 L 402.2,161.8 L 406.4,161.8 L 410.6,160.3 L 414.7,159.8 L 418.9,158.9 L 423.1,158.6 L 427.3,158.0 L 431.4,155.6 L 435.6,152.4 L 439.8,152.1 L 444.0,151.5 L 448.2,151.2 L 452.3,149.7 L 456.5,118.5 L 460.7,117.9 L 464.9,116.4 L 469.1,116.4 L 473.2,116.4 L 477.4,116.7 L 481.6,116.4 L 485.8,114.6 L 490.0,114.0 L 494.1,113.7 L 498.3,113.4 L 502.5,112.3 L 506.7,110.5 L 510.9,110.5 L 515.0,110.5 L 519.2,110.2 L 523.4,109.9 L 527.6,109.9 L 531.8,109.3 L 535.9,108.4 L 540.1,106.9 L 544.3,106.4 L 548.5,106.1 L 552.7,106.1 L 556.8,105.8 L 561.0,105.2 L 565.2,104.9 L 569.4,103.4 L 573.6,103.4 L 577.7,102.8 L 581.9,101.6 L 586.1,100.2 L 590.3,99.9 L 594.5,99.6 L 598.6,96.9 L 602.8,96.3 L 607.0,95.7 L 611.2,95.7 L 615.4,94.6 L 619.5,94.0 L 623.7,92.5 L 627.9,91.9 L 632.1,91.0 L 636.3,90.7 L 640.4,89.5 L 644.6,88.7 L 648.8,88.4 L 653.0,87.8 L 657.1,86.6 L 661.3,86.0 L 665.5,85.1 L 669.7,84.5 L 673.9,84.2 L 678.0,83.6 L 682.2,82.8 L 686.4,82.2 L 690.6,81.6 L 694.8,80.7 L 698.9,80.7 L 703.1,80.1 L 707.3,78.6 L 711.5,77.2 L 715.7,76.3 L 719.8,76.6 L 724.0,76.0 L 728.2,75.7 L 732.4,75.4 L 736.6,74.8 L 740.7,73.3 L 744.9,73.3 L 749.1,73.0 L 753.3,72.1 L 757.5,71.3 L 761.6,70.1 L 765.8,69.5 L 770.0,69.5" fill="none" stroke="#4F8EF7" stroke-width="2.5" stroke-linejoin="round" clip-path="url(#ca)"/>
<path d="M 72.0,340 L 72.0,338.2 L 76.2,337.9 L 80.4,337.9 L 84.5,337.6 L 88.7,337.6 L 92.9,337.6 L 97.1,337.6 L 101.3,337.6 L 105.4,337.1 L 109.6,337.1 L 113.8,337.1 L 118.0,337.1 L 122.2,337.1 L 126.3,336.8 L 130.5,336.8 L 134.7,336.8 L 138.9,336.8 L 143.1,336.8 L 147.2,336.5 L 151.4,335.9 L 155.6,335.6 L 159.8,335.6 L 164.0,335.6 L 168.1,335.3 L 172.3,335.3 L 176.5,335.3 L 180.7,335.0 L 184.9,335.0 L 189.0,335.0 L 193.2,334.7 L 197.4,334.7 L 201.6,334.7 L 205.7,334.7 L 209.9,334.4 L 214.1,334.4 L 218.3,334.4 L 222.5,334.4 L 226.6,334.4 L 230.8,334.4 L 235.0,334.4 L 239.2,334.4 L 243.4,334.4 L 247.5,334.4 L 251.7,334.4 L 255.9,334.4 L 260.1,334.4 L 264.3,334.1 L 268.4,334.1 L 272.6,334.1 L 276.8,334.1 L 281.0,334.1 L 285.2,334.1 L 289.3,334.1 L 293.5,334.1 L 297.7,334.1 L 301.9,334.1 L 306.1,334.1 L 310.2,334.1 L 314.4,333.8 L 318.6,333.8 L 322.8,333.8 L 327.0,333.8 L 331.1,333.8 L 335.3,333.8 L 339.5,333.8 L 343.7,333.8 L 347.9,333.8 L 352.0,333.8 L 356.2,333.8 L 360.4,333.8 L 364.6,333.8 L 368.8,333.8 L 372.9,333.8 L 377.1,333.8 L 381.3,333.8 L 385.5,333.8 L 389.7,333.8 L 393.8,333.8 L 398.0,333.8 L 402.2,333.8 L 406.4,333.8 L 410.6,333.8 L 414.7,333.8 L 418.9,333.8 L 423.1,333.8 L 427.3,333.8 L 431.4,333.8 L 435.6,333.8 L 439.8,333.8 L 444.0,333.8 L 448.2,333.8 L 452.3,333.8 L 456.5,333.8 L 460.7,333.8 L 464.9,333.5 L 469.1,333.5 L 473.2,333.5 L 477.4,333.5 L 481.6,333.5 L 485.8,333.2 L 490.0,333.2 L 494.1,333.2 L 498.3,333.2 L 502.5,332.9 L 506.7,332.9 L 510.9,332.6 L 515.0,332.6 L 519.2,332.6 L 523.4,332.6 L 527.6,332.6 L 531.8,332.6 L 535.9,332.6 L 540.1,332.6 L 544.3,332.6 L 548.5,332.6 L 552.7,332.6 L 556.8,332.6 L 561.0,332.6 L 565.2,332.6 L 569.4,332.6 L 573.6,332.6 L 577.7,332.6 L 581.9,332.6 L 586.1,332.6 L 590.3,332.6 L 594.5,332.6 L 598.6,332.6 L 602.8,332.6 L 607.0,332.6 L 611.2,332.6 L 615.4,332.6 L 619.5,332.6 L 623.7,332.6 L 627.9,332.6 L 632.1,332.6 L 636.3,332.6 L 640.4,332.6 L 644.6,332.6 L 648.8,332.6 L 653.0,332.6 L 657.1,332.6 L 661.3,332.6 L 665.5,332.6 L 669.7,332.6 L 673.9,332.6 L 678.0,332.6 L 682.2,332.6 L 686.4,332.6 L 690.6,332.6 L 694.8,332.6 L 698.9,332.6 L 703.1,332.6 L 707.3,332.6 L 711.5,332.3 L 715.7,332.3 L 719.8,332.3 L 724.0,332.3 L 728.2,332.3 L 732.4,332.3 L 736.6,332.3 L 740.7,332.3 L 744.9,332.3 L 749.1,332.3 L 753.3,332.3 L 757.5,332.0 L 761.6,332.0 L 765.8,332.0 L 770.0,332.0 L 770.0,340 Z" fill="url(#g7)" clip-path="url(#ca)"/>
<path d="M 72.0,338.2 L 76.2,337.9 L 80.4,337.9 L 84.5,337.6 L 88.7,337.6 L 92.9,337.6 L 97.1,337.6 L 101.3,337.6 L 105.4,337.1 L 109.6,337.1 L 113.8,337.1 L 118.0,337.1 L 122.2,337.1 L 126.3,336.8 L 130.5,336.8 L 134.7,336.8 L 138.9,336.8 L 143.1,336.8 L 147.2,336.5 L 151.4,335.9 L 155.6,335.6 L 159.8,335.6 L 164.0,335.6 L 168.1,335.3 L 172.3,335.3 L 176.5,335.3 L 180.7,335.0 L 184.9,335.0 L 189.0,335.0 L 193.2,334.7 L 197.4,334.7 L 201.6,334.7 L 205.7,334.7 L 209.9,334.4 L 214.1,334.4 L 218.3,334.4 L 222.5,334.4 L 226.6,334.4 L 230.8,334.4 L 235.0,334.4 L 239.2,334.4 L 243.4,334.4 L 247.5,334.4 L 251.7,334.4 L 255.9,334.4 L 260.1,334.4 L 264.3,334.1 L 268.4,334.1 L 272.6,334.1 L 276.8,334.1 L 281.0,334.1 L 285.2,334.1 L 289.3,334.1 L 293.5,334.1 L 297.7,334.1 L 301.9,334.1 L 306.1,334.1 L 310.2,334.1 L 314.4,333.8 L 318.6,333.8 L 322.8,333.8 L 327.0,333.8 L 331.1,333.8 L 335.3,333.8 L 339.5,333.8 L 343.7,333.8 L 347.9,333.8 L 352.0,333.8 L 356.2,333.8 L 360.4,333.8 L 364.6,333.8 L 368.8,333.8 L 372.9,333.8 L 377.1,333.8 L 381.3,333.8 L 385.5,333.8 L 389.7,333.8 L 393.8,333.8 L 398.0,333.8 L 402.2,333.8 L 406.4,333.8 L 410.6,333.8 L 414.7,333.8 L 418.9,333.8 L 423.1,333.8 L 427.3,333.8 L 431.4,333.8 L 435.6,333.8 L 439.8,333.8 L 444.0,333.8 L 448.2,333.8 L 452.3,333.8 L 456.5,333.8 L 460.7,333.8 L 464.9,333.5 L 469.1,333.5 L 473.2,333.5 L 477.4,333.5 L 481.6,333.5 L 485.8,333.2 L 490.0,333.2 L 494.1,333.2 L 498.3,333.2 L 502.5,332.9 L 506.7,332.9 L 510.9,332.6 L 515.0,332.6 L 519.2,332.6 L 523.4,332.6 L 527.6,332.6 L 531.8,332.6 L 535.9,332.6 L 540.1,332.6 L 544.3,332.6 L 548.5,332.6 L 552.7,332.6 L 556.8,332.6 L 561.0,332.6 L 565.2,332.6 L 569.4,332.6 L 573.6,332.6 L 577.7,332.6 L 581.9,332.6 L 586.1,332.6 L 590.3,332.6 L 594.5,332.6 L 598.6,332.6 L 602.8,332.6 L 607.0,332.6 L 611.2,332.6 L 615.4,332.6 L 619.5,332.6 L 623.7,332.6 L 627.9,332.6 L 632.1,332.6 L 636.3,332.6 L 640.4,332.6 L 644.6,332.6 L 648.8,332.6 L 653.0,332.6 L 657.1,332.6 L 661.3,332.6 L 665.5,332.6 L 669.7,332.6 L 673.9,332.6 L 678.0,332.6 L 682.2,332.6 L 686.4,332.6 L 690.6,332.6 L 694.8,332.6 L 698.9,332.6 L 703.1,332.6 L 707.3,332.6 L 711.5,332.3 L 715.7,332.3 L 719.8,332.3 L 724.0,332.3 L 728.2,332.3 L 732.4,332.3 L 736.6,332.3 L 740.7,332.3 L 744.9,332.3 L 749.1,332.3 L 753.3,332.3 L 757.5,332.0 L 761.6,332.0 L 765.8,332.0 L 770.0,332.0" fill="none" stroke="#FF6363" stroke-width="2.5" stroke-linejoin="round" clip-path="url(#ca)"/>
<text x="95.0" y="55.0" text-anchor="middle" font-size="9" fill="#34C759" opacity="0.85" clip-path="url(#ca)">+15.2% (+50)</text>
<text x="95.0" y="66.0" text-anchor="middle" font-size="9" fill="#4F8EF7" opacity="0.85" clip-path="url(#ca)">+2.8% (+11)</text>
<text x="95.0" y="77.0" text-anchor="middle" font-size="9" fill="#FF6363" opacity="0.85" clip-path="url(#ca)">+66.7% (+4)</text>
<text x="174.4" y="55.0" text-anchor="middle" font-size="9" fill="#34C759" opacity="0.85" clip-path="url(#ca)">+20.1% (+77)</text>
<text x="174.4" y="66.0" text-anchor="middle" font-size="9" fill="#4F8EF7" opacity="0.85" clip-path="url(#ca)">+16.8% (+69)</text>
<text x="174.4" y="77.0" text-anchor="middle" font-size="9" fill="#FF6363" opacity="0.85" clip-path="url(#ca)">+90.0% (+9)</text>
<text x="285.2" y="55.0" text-anchor="middle" font-size="9" fill="#34C759" opacity="0.85" clip-path="url(#ca)">+16.1% (+74)</text>
<text x="285.2" y="66.0" text-anchor="middle" font-size="9" fill="#4F8EF7" opacity="0.85" clip-path="url(#ca)">+17.3% (+83)</text>
<text x="285.2" y="77.0" text-anchor="middle" font-size="9" fill="#FF6363" opacity="0.85" clip-path="url(#ca)">+10.5% (+2)</text>
<text x="398.0" y="55.0" text-anchor="middle" font-size="9" fill="#34C759" opacity="0.85" clip-path="url(#ca)">+10.5% (+56)</text>
<text x="398.0" y="66.0" text-anchor="middle" font-size="9" fill="#4F8EF7" opacity="0.85" clip-path="url(#ca)">+14.4% (+81)</text>
<text x="398.0" y="77.0" text-anchor="middle" font-size="9" fill="#FF6363" opacity="0.85" clip-path="url(#ca)">+0.0% (+0)</text>
<text x="510.9" y="55.0" text-anchor="middle" font-size="9" fill="#34C759" opacity="0.85" clip-path="url(#ca)">+6.2% (+37)</text>
<text x="510.9" y="66.0" text-anchor="middle" font-size="9" fill="#4F8EF7" opacity="0.85" clip-path="url(#ca)">+6.1% (+46)</text>
<text x="510.9" y="77.0" text-anchor="middle" font-size="9" fill="#FF6363" opacity="0.85" clip-path="url(#ca)">+19.0% (+4)</text>
<text x="621.6" y="55.0" text-anchor="middle" font-size="9" fill="#34C759" opacity="0.85" clip-path="url(#ca)">+8.1% (+51)</text>
<text x="621.6" y="66.0" text-anchor="middle" font-size="9" fill="#4F8EF7" opacity="0.85" clip-path="url(#ca)">+8.1% (+65)</text>
<text x="621.6" y="77.0" text-anchor="middle" font-size="9" fill="#FF6363" opacity="0.85" clip-path="url(#ca)">+0.0% (+0)</text>
<text x="724.0" y="55.0" text-anchor="middle" font-size="9" fill="#34C759" opacity="0.85" clip-path="url(#ca)">+7.0% (+48)</text>
<text x="724.0" y="66.0" text-anchor="middle" font-size="9" fill="#4F8EF7" opacity="0.85" clip-path="url(#ca)">+5.5% (+48)</text>
<text x="724.0" y="77.0" text-anchor="middle" font-size="9" fill="#FF6363" opacity="0.85" clip-path="url(#ca)">+8.0% (+2)</text>
<rect x="211" y="369" width="12" height="12" fill="#34C759" rx="2"/>
<text x="227" y="379" font-size="12" fill="#111827">macOS + Windows</text>
<rect x="351" y="369" width="12" height="12" fill="#4F8EF7" rx="2"/>
<text x="367" y="379" font-size="12" fill="#111827">macOS only</text>
<rect x="491" y="369" width="12" height="12" fill="#FF6363" rx="2"/>
<text x="507" y="379" font-size="12" fill="#111827">Windows only</text>
<text x="72" y="394" font-size="8" fill="#e5e7eb">data since Dec 11, 2025</text>
</svg>