<svg xmlns="http://www.w3.org/2000/svg" width="800" height="400" viewBox="0 0 800 400">
<defs>
  <style>text { font-family: -apple-system, BlinkMacSystemFont, 'Segoe UI', Roboto, sans-serif; }</style>
  <linearGradient id="g2" x1="0" y1="0" x2="0" y2="1">
  <stop offset="0%" stop-color="#4F8EF7" stop-opacity="0.25"/>
  <stop offset="100%" stop-color="#4F8EF7" stop-opacity="0"/>
</linearGradient>
<linearGradient id="g3" x1="0" y1="0" x2="0" y2="1">
  <stop offset="0%" stop-color="#BF5AF2" stop-opacity="0.25"/>
  <stop offset="100%" stop-color="#BF5AF2" stop-opacity="0"/>
</linearGradient>
<linearGradient id="g4" x1="0" y1="0" x2="0" y2="1">
  <stop offset="0%" stop-color="#34C759" stop-opacity="0.25"/>
  <stop offset="100%" stop-color="#34C759" stop-opacity="0"/>
</linearGradient>
  <clipPath id="ca"><rect x="72" y="45" width="698" height="295"/></clipPath>
</defs>
<rect width="800" height="400" fill="#ffffff" rx="12"/>
<text x="400" y="26" text-anchor="middle" font-size="15" font-weight="600" fill="#111827">Community Growth Over Time</text>
<line x1="72" y1="340.0" x2="770" y2="340.0" stroke="#f3f4f6" stroke-width="1"/>
<text x="66" y="344.0" text-anchor="end" font-size="11" fill="#6b7280">500</text>
<line x1="72" y1="241.7" x2="770" y2="241.7" stroke="#f3f4f6" stroke-width="1"/>
<text x="66" y="245.7" text-anchor="end" font-size="11" fill="#6b7280">1.0k</text>
<line x1="72" y1="143.3" x2="770" y2="143.3" stroke="#f3f4f6" stroke-width="1"/>
<text x="66" y="147.3" text-anchor="end" font-size="11" fill="#6b7280">1.5k</text>
<line x1="72" y1="45.0" x2="770" y2="45.0" stroke="#f3f4f6" stroke-width="1"/>
<text x="66" y="49.0" text-anchor="end" font-size="11" fill="#6b7280">2.0k</text>
<line x1="167.2" y1="45" x2="167.2" y2="340" stroke="#e5e7eb" stroke-width="1" stroke-dasharray="3,3" clip-path="url(#ca)"/>
<line x1="373.4" y1="45" x2="373.4" y2="340" stroke="#e5e7eb" stroke-width="1" stroke-dasharray="3,3" clip-path="url(#ca)"/>
<line x1="587.6" y1="45" x2="587.6" y2="340" stroke="#e5e7eb" stroke-width="1" stroke-dasharray="3,3" clip-path="url(#ca)"/>
<text x="72.0" y="358.0" text-anchor="middle" font-size="11" fill="#6b7280">Dec 11</text>
<text x="214.8" y="358.0" text-anchor="middle" font-size="11" fill="#6b7280">Jan 9</text>
<text x="349.6" y="358.0" text-anchor="middle" font-size="11" fill="#6b7280">Jan 29</text>
<text x="492.4" y="358.0" text-anchor="middle" font-size="11" fill="#6b7280">Feb 16</text>
<text x="627.2" y="358.0" text-anchor="middle" font-size="11" fill="#6b7280">Mar 6</text>
<text x="770.0" y="358.0" text-anchor="middle" font-size="11" fill="#6b7280">Mar 26</text>
<line x1="72" y1="45" x2="72" y2="340" stroke="#e5e7eb" stroke-width="1"/>
<line x1="72" y1="340" x2="770" y2="340" stroke="#e5e7eb" stroke-width="1"/>
<text x="-192.5" y="18" text-anchor="middle" font-size="12" fill="#6b7280" transform="rotate(-90)">People</text>
<path d="M 72.0,340 L 72.0,120.1 L 79.9,120.1 L 87.9,120.1 L 95.8,119.5 L 103.7,119.5 L 111.7,119.1 L 119.6,118.9 L 127.5,119.1 L 135.5,118.6 L 143.4,118.6 L 151.3,118.6 L 159.3,118.6 L 167.2,118.6 L 175.1,118.6 L 183.0,118.6 L 191.0,118.6 L 198.9,118.4 L 206.8,117.8 L 214.8,116.6 L 222.7,116.0 L 230.6,115.8 L 238.6,115.8 L 246.5,115.2 L 254.4,113.8 L 262.4,113.0 L 270.3,113.0 L 278.2,112.1 L 286.2,111.7 L 294.1,110.9 L 302.0,110.3 L 310.0,109.7 L 317.9,109.1 L 325.8,109.1 L 333.8,107.7 L 341.7,106.9 L 349.6,106.9 L 357.5,106.2 L 365.5,105.8 L 373.4,105.6 L 381.3,105.4 L 389.3,105.4 L 397.2,104.8 L 405.1,102.4 L 413.1,101.0 L 421.0,100.3 L 428.9,100.1 L 436.9,99.7 L 444.8,98.9 L 452.7,98.5 L 460.7,98.1 L 468.6,97.7 L 476.5,97.3 L 484.5,96.9 L 492.4,96.9 L 500.3,95.0 L 508.3,95.0 L 516.2,94.8 L 524.1,94.6 L 532.0,94.2 L 540.0,94.2 L 547.9,93.2 L 555.8,92.0 L 563.8,91.6 L 571.7,92.0 L 579.6,91.8 L 587.6,91.6 L 595.5,91.6 L 603.4,91.2 L 611.4,90.4 L 619.3,90.0 L 627.2,89.6 L 635.2,89.4 L 643.1,89.4 L 651.0,88.7 L 659.0,88.3 L 666.9,88.3 L 674.8,86.7 L 682.8,86.7 L 690.7,86.7 L 698.6,86.7 L 706.5,86.5 L 714.5,85.9 L 722.4,85.1 L 730.3,84.7 L 738.3,84.7 L 746.2,84.3 L 754.1,82.8 L 762.1,81.8 L 770.0,81.6 L 770.0,340 Z" fill="url(#g2)" clip-path="url(#ca)"/>
<path d="M 72.0,120.1 L 79.9,120.1 L 87.9,120.1 L 95.8,119.5 L 103.7,119.5 L 111.7,119.1 L 119.6,118.9 L 127.5,119.1 L 135.5,118.6 L 143.4,118.6 L 151.3,118.6 L 159.3,118.6 L 167.2,118.6 L 175.1,118.6 L 183.0,118.6 L 191.0,118.6 L 198.9,118.4 L 206.8,117.8 L 214.8,116.6 L 222.7,116.0 L 230.6,115.8 L 238.6,115.8 L 246.5,115.2 L 254.4,113.8 L 262.4,113.0 L 270.3,113.0 L 278.2,112.1 L 286.2,111.7 L 294.1,110.9 L 302.0,110.3 L 310.0,109.7 L 317.9,109.1 L 325.8,109.1 L 333.8,107.7 L 341.7,106.9 L 349.6,106.9 L 357.5,106.2 L 365.5,105.8 L 373.4,105.6 L 381.3,105.4 L 389.3,105.4 L 397.2,104.8 L 405.1,102.4 L 413.1,101.0 L 421.0,100.3 L 428.9,100.1 L 436.9,99.7 L 444.8,98.9 L 452.7,98.5 L 460.7,98.1 L 468.6,97.7 L 476.5,97.3 L 484.5,96.9 L 492.4,96.9 L 500.3,95.0 L 508.3,95.0 L 516.2,94.8 L 524.1,94.6 L 532.0,94.2 L 540.0,94.2 L 547.9,93.2 L 555.8,92.0 L 563.8,91.6 L 571.7,92.0 L 579.6,91.8 L 587.6,91.6 L 595.5,91.6 L 603.4,91.2 L 611.4,90.4 L 619.3,90.0 L 627.2,89.6 L 635.2,89.4 L 643.1,89.4 L 651.0,88.7 L 659.0,88.3 L 666.9,88.3 L 674.8,86.7 L 682.8,86.7 L 690.7,86.7 L 698.6,86.7 L 706.5,86.5 L 714.5,85.9 L 722.4,85.1 L 730.3,84.7 L 738.3,84.7 L 746.2,84.3 L 754.1,82.8 L 762.1,81.8 L 770.0,81.6" fill="none" stroke="#4F8EF7" stroke-width="2.5" stroke-linejoin="round" clip-path="url(#ca)"/>
<path d="M 72.0,340 L 72.0,244.2 L 79.9,243.6 L 87.9,243.6 L 95.8,243.6 L 103.7,243.4 L 111.7,243.0 L 119.6,242.8 L 127.5,242.6 L 135.5,242.6 L 143.4,242.5 L 151.3,242.3 L 159.3,242.3 L 167.2,242.3 L 175.1,242.3 L 183.0,242.3 L 191.0,242.3 L 198.9,241.9 L 206.8,241.9 L 214.8,241.9 L 222.7,241.1 L 230.6,240.9 L 238.6,240.5 L 246.5,239.7 L 254.4,239.5 L 262.4,239.5 L 270.3,239.5 L 278.2,238.9 L 286.2,238.5 L 294.1,238.5 L 302.0,238.1 L 310.0,237.9 L 317.9,237.5 L 325.8,237.5 L 333.8,237.3 L 341.7,236.6 L 349.6,236.0 L 357.5,235.6 L 365.5,235.4 L 373.4,235.4 L 381.3,235.2 L 389.3,234.8 L 397.2,234.8 L 405.1,234.6 L 413.1,234.0 L 421.0,233.6 L 428.9,233.6 L 436.9,233.6 L 444.8,233.6 L 452.7,233.4 L 460.7,232.8 L 468.6,232.4 L 476.5,232.2 L 484.5,232.0 L 492.4,231.8 L 500.3,231.6 L 508.3,231.4 L 516.2,231.2 L 524.1,230.7 L 532.0,230.5 L 540.0,230.3 L 547.9,229.5 L 555.8,228.7 L 563.8,228.7 L 571.7,228.5 L 579.6,228.3 L 587.6,228.3 L 595.5,228.3 L 603.4,227.9 L 611.4,227.9 L 619.3,226.7 L 627.2,226.5 L 635.2,226.3 L 643.1,226.3 L 651.0,225.9 L 659.0,225.7 L 666.9,225.7 L 674.8,225.5 L 682.8,225.5 L 690.7,225.5 L 698.6,225.1 L 706.5,224.9 L 714.5,224.0 L 722.4,224.2 L 730.3,224.0 L 738.3,223.8 L 746.2,223.8 L 754.1,223.6 L 762.1,223.0 L 770.0,223.0 L 770.0,340 Z" fill="url(#g3)" clip-path="url(#ca)"/>
<path d="M 72.0,244.2 L 79.9,243.6 L 87.9,243.6 L 95.8,243.6 L 103.7,243.4 L 111.7,243.0 L 119.6,242.8 L 127.5,242.6 L 135.5,242.6 L 143.4,242.5 L 151.3,242.3 L 159.3,242.3 L 167.2,242.3 L 175.1,242.3 L 183.0,242.3 L 191.0,242.3 L 198.9,241.9 L 206.8,241.9 L 214.8,241.9 L 222.7,241.1 L 230.6,240.9 L 238.6,240.5 L 246.5,239.7 L 254.4,239.5 L 262.4,239.5 L 270.3,239.5 L 278.2,238.9 L 286.2,238.5 L 294.1,238.5 L 302.0,238.1 L 310.0,237.9 L 317.9,237.5 L 325.8,237.5 L 333.8,237.3 L 341.7,236.6 L 349.6,236.0 L 357.5,235.6 L 365.5,235.4 L 373.4,235.4 L 381.3,235.2 L 389.3,234.8 L 397.2,234.8 L 405.1,234.6 L 413.1,234.0 L 421.0,233.6 L 428.9,233.6 L 436.9,233.6 L 444.8,233.6 L 452.7,233.4 L 460.7,232.8 L 468.6,232.4 L 476.5,232.2 L 484.5,232.0 L 492.4,231.8 L 500.3,231.6 L 508.3,231.4 L 516.2,231.2 L 524.1,230.7 L 532.0,230.5 L 540.0,230.3 L 547.9,229.5 L 555.8,228.7 L 563.8,228.7 L 571.7,228.5 L 579.6,228.3 L 587.6,228.3 L 595.5,228.3 L 603.4,227.9 L 611.4,227.9 L 619.3,226.7 L 627.2,226.5 L 635.2,226.3 L 643.1,226.3 L 651.0,225.9 L 659.0,225.7 L 666.9,225.7 L 674.8,225.5 L 682.8,225.5 L 690.7,225.5 L 698.6,225.1 L 706.5,224.9 L 714.5,224.0 L 722.4,224.2 L 730.3,224.0 L 738.3,223.8 L 746.2,223.8 L 754.1,223.6 L 762.1,223.0 L 770.0,223.0" fill="none" stroke="#BF5AF2" stroke-width="2.5" stroke-linejoin="round" clip-path="url(#ca)"/>
<path d="M 72.0,340 L 72.0,291.4 L 79.9,290.8 L 87.9,290.8 L 95.8,290.8 L 103.7,290.6 L 111.7,290.2 L 119.6,290.0 L 127.5,289.7 L 135.5,289.7 L 143.4,289.5 L 151.3,289.3 L 159.3,289.3 L 167.2,289.3 L 175.1,289.3 L 183.0,289.3 L 191.0,289.3 L 198.9,288.9 L 206.8,288.9 L 214.8,289.1 L 222.7,288.5 L 230.6,288.7 L 238.6,288.1 L 246.5,287.5 L 254.4,287.3 L 262.4,287.5 L 270.3,287.5 L 278.2,286.9 L 286.2,286.7 L 294.1,286.7 L 302.0,286.3 L 310.0,286.1 L 317.9,285.7 L 325.8,285.7 L 333.8,285.5 L 341.7,284.9 L 349.6,284.3 L 357.5,283.9 L 365.5,283.9 L 373.4,283.9 L 381.3,283.8 L 389.3,283.4 L 397.2,283.4 L 405.1,283.2 L 413.1,282.6 L 421.0,282.4 L 428.9,282.4 L 436.9,282.4 L 444.8,282.4 L 452.7,282.2 L 460.7,281.6 L 468.6,281.4 L 476.5,281.2 L 484.5,281.0 L 492.4,281.0 L 500.3,280.8 L 508.3,280.8 L 516.2,280.8 L 524.1,280.2 L 532.0,280.2 L 540.0,280.2 L 547.9,279.8 L 555.8,279.2 L 563.8,279.2 L 571.7,279.0 L 579.6,278.8 L 587.6,278.8 L 595.5,278.8 L 603.4,278.4 L 611.4,278.4 L 619.3,277.3 L 627.2,277.1 L 635.2,276.9 L 643.1,276.9 L 651.0,276.7 L 659.0,276.7 L 666.9,276.7 L 674.8,276.7 L 682.8,276.7 L 690.7,276.7 L 698.6,276.3 L 706.5,276.1 L 714.5,275.1 L 722.4,275.3 L 730.3,275.3 L 738.3,275.1 L 746.2,275.1 L 754.1,275.1 L 762.1,274.7 L 770.0,274.7 L 770.0,340 Z" fill="url(#g4)" clip-path="url(#ca)"/>
<path d="M 72.0,291.4 L 79.9,290.8 L 87.9,290.8 L 95.8,290.8 L 103.7,290.6 L 111.7,290.2 L 119.6,290.0 L 127.5,289.7 L 135.5,289.7 L 143.4,289.5 L 151.3,289.3 L 159.3,289.3 L 167.2,289.3 L 175.1,289.3 L 183.0,289.3 L 191.0,289.3 L 198.9,288.9 L 206.8,288.9 L 214.8,289.1 L 222.7,288.5 L 230.6,288.7 L 238.6,288.1 L 246.5,287.5 L 254.4,287.3 L 262.4,287.5 L 270.3,287.5 L 278.2,286.9 L 286.2,286.7 L 294.1,286.7 L 302.0,286.3 L 310.0,286.1 L 317.9,285.7 L 325.8,285.7 L 333.8,285.5 L 341.7,284.9 L 349.6,284.3 L 357.5,283.9 L 365.5,283.9 L 373.4,283.9 L 381.3,283.8 L 389.3,283.4 L 397.2,283.4 L 405.1,283.2 L 413.1,282.6 L 421.0,282.4 L 428.9,282.4 L 436.9,282.4 L 444.8,282.4 L 452.7,282.2 L 460.7,281.6 L 468.6,281.4 L 476.5,281.2 L 484.5,281.0 L 492.4,281.0 L 500.3,280.8 L 508.3,280.8 L 516.2,280.8 L 524.1,280.2 L 532.0,280.2 L 540.0,280.2 L 547.9,279.8 L 555.8,279.2 L 563.8,279.2 L 571.7,279.0 L 579.6,278.8 L 587.6,278.8 L 595.5,278.8 L 603.4,278.4 L 611.4,278.4 L 619.3,277.3 L 627.2,277.1 L 635.2,276.9 L 643.1,276.9 L 651.0,276.7 L 659.0,276.7 L 666.9,276.7 L 674.8,276.7 L 682.8,276.7 L 690.7,276.7 L 698.6,276.3 L 706.5,276.1 L 714.5,275.1 L 722.4,275.3 L 730.3,275.3 L 738.3,275.1 L 746.2,275.1 L 754.1,275.1 L 762.1,274.7 L 770.0,274.7" fill="none" stroke="#34C759" stroke-width="2.5" stroke-linejoin="round" clip-path="url(#ca)"/>
<text x="115.6" y="55.0" text-anchor="middle" font-size="9" fill="#4F8EF7" opacity="0.85" clip-path="url(#ca)">+0.5% (+8)</text>
<text x="115.6" y="66.0" text-anchor="middle" font-size="9" fill="#BF5AF2" opacity="0.85" clip-path="url(#ca)">+1.0% (+10)</text>
<text x="115.6" y="77.0" text-anchor="middle" font-size="9" fill="#34C759" opacity="0.85" clip-path="url(#ca)">+1.5% (+11)</text>
<text x="266.3" y="55.0" text-anchor="middle" font-size="9" fill="#4F8EF7" opacity="0.85" clip-path="url(#ca)">+4.0% (+65)</text>
<text x="266.3" y="66.0" text-anchor="middle" font-size="9" fill="#BF5AF2" opacity="0.85" clip-path="url(#ca)">+3.5% (+35)</text>
<text x="266.3" y="77.0" text-anchor="middle" font-size="9" fill="#34C759" opacity="0.85" clip-path="url(#ca)">+3.6% (+27)</text>
<text x="476.5" y="55.0" text-anchor="middle" font-size="9" fill="#4F8EF7" opacity="0.85" clip-path="url(#ca)">+4.1% (+70)</text>
<text x="476.5" y="66.0" text-anchor="middle" font-size="9" fill="#BF5AF2" opacity="0.85" clip-path="url(#ca)">+3.5% (+36)</text>
<text x="476.5" y="77.0" text-anchor="middle" font-size="9" fill="#34C759" opacity="0.85" clip-path="url(#ca)">+3.3% (+26)</text>
<text x="678.8" y="55.0" text-anchor="middle" font-size="9" fill="#4F8EF7" opacity="0.85" clip-path="url(#ca)">+2.9% (+51)</text>
<text x="678.8" y="66.0" text-anchor="middle" font-size="9" fill="#BF5AF2" opacity="0.85" clip-path="url(#ca)">+2.5% (+27)</text>
<text x="678.8" y="77.0" text-anchor="middle" font-size="9" fill="#34C759" opacity="0.85" clip-path="url(#ca)">+2.6% (+21)</text>
<rect x="211" y="369" width="12" height="12" fill="#4F8EF7" rx="2"/>
<text x="227" y="379" font-size="12" fill="#111827">Authors</text>
<rect x="351" y="369" width="12" height="12" fill="#BF5AF2" rx="2"/>
<text x="367" y="379" font-size="12" fill="#111827">Contributors</text>
<rect x="491" y="369" width="12" height="12" fill="#34C759" rx="2"/>
<text x="507" y="379" font-size="12" fill="#111827">Non-author contributors</text>
<text x="72" y="394" font-size="8" fill="#e5e7eb">data since Dec 11, 2025</text>
</svg>