<svg xmlns="http://www.w3.org/2000/svg" width="800" height="400" viewBox="0 0 800 400">
<defs><style>text { font-family: -apple-system, BlinkMacSystemFont, 'Segoe UI', Roboto, sans-serif; }</style></defs>
<rect width="800" height="400" fill="#ffffff" rx="12"/>
<text x="400" y="26" text-anchor="middle" font-size="15" font-weight="600" fill="#111827">Package Updates by Quarter</text>
<text x="400" y="44" text-anchor="middle" font-size="11" fill="#6b7280">last updated at · 2,710 packages with a known last-update date</text>
<line x1="60" y1="58" x2="60" y2="320" stroke="#e5e7eb" stroke-width="1"/>
<line x1="60" y1="320" x2="770" y2="320" stroke="#e5e7eb" stroke-width="1"/>
<text x="-189" y="18" text-anchor="middle" font-size="12" fill="#6b7280" transform="rotate(-90)">Number of packages</text>
<line x1="60" y1="320.0" x2="770" y2="320.0" stroke="#f3f4f6" stroke-width="1"/>
<text x="54" y="324.0" text-anchor="end" font-size="11" fill="#6b7280">0</text>
<line x1="60" y1="267.8" x2="770" y2="267.8" stroke="#f3f4f6" stroke-width="1"/>
<text x="54" y="271.8" text-anchor="end" font-size="11" fill="#6b7280">126</text>
<line x1="60" y1="215.1" x2="770" y2="215.1" stroke="#f3f4f6" stroke-width="1"/>
<text x="54" y="219.1" text-anchor="end" font-size="11" fill="#6b7280">253</text>
<line x1="60" y1="162.9" x2="770" y2="162.9" stroke="#f3f4f6" stroke-width="1"/>
<text x="54" y="166.9" text-anchor="end" font-size="11" fill="#6b7280">379</text>
<line x1="60" y1="110.2" x2="770" y2="110.2" stroke="#f3f4f6" stroke-width="1"/>
<text x="54" y="114.2" text-anchor="end" font-size="11" fill="#6b7280">506</text>
<line x1="60" y1="58.0" x2="770" y2="58.0" stroke="#f3f4f6" stroke-width="1"/>
<text x="54" y="62.0" text-anchor="end" font-size="11" fill="#6b7280">632</text>
<rect x="67.3" y="317.9" width="27.1" height="2.1" fill="#34C759" rx="3" opacity="0.85"/>
<text x="80.9" y="301.9" text-anchor="middle" font-size="10" fill="#6b7280">5</text>
<text x="80.9" y="313.9" text-anchor="middle" font-size="10" fill="#6b7280">(0.18%)</text>
<g transform="translate(80.9,330.0) rotate(-45)"><text text-anchor="end" font-size="10" fill="#111827">2022-Q1</text></g>
<rect x="109.1" y="301.3" width="27.1" height="18.7" fill="#34C759" rx="3" opacity="0.85"/>
<text x="122.6" y="285.3" text-anchor="middle" font-size="10" fill="#6b7280">45</text>
<text x="122.6" y="297.3" text-anchor="middle" font-size="10" fill="#6b7280">(1.66%)</text>
<g transform="translate(122.6,330.0) rotate(-45)"><text text-anchor="end" font-size="10" fill="#111827">2022-Q2</text></g>
<rect x="150.8" y="298.9" width="27.1" height="21.1" fill="#34C759" rx="3" opacity="0.85"/>
<text x="164.4" y="282.9" text-anchor="middle" font-size="10" fill="#6b7280">51</text>
<text x="164.4" y="294.9" text-anchor="middle" font-size="10" fill="#6b7280">(1.88%)</text>
<g transform="translate(164.4,330.0) rotate(-45)"><text text-anchor="end" font-size="10" fill="#111827">2022-Q3</text></g>
<rect x="192.6" y="290.6" width="27.1" height="29.4" fill="#34C759" rx="3" opacity="0.85"/>
<text x="206.2" y="274.6" text-anchor="middle" font-size="10" fill="#6b7280">71</text>
<text x="206.2" y="286.6" text-anchor="middle" font-size="10" fill="#6b7280">(2.62%)</text>
<g transform="translate(206.2,330.0) rotate(-45)"><text text-anchor="end" font-size="10" fill="#111827">2022-Q4</text></g>
<rect x="234.4" y="281.4" width="27.1" height="38.6" fill="#34C759" rx="3" opacity="0.85"/>
<text x="247.9" y="265.4" text-anchor="middle" font-size="10" fill="#6b7280">93</text>
<text x="247.9" y="277.4" text-anchor="middle" font-size="10" fill="#6b7280">(3.43%)</text>
<g transform="translate(247.9,330.0) rotate(-45)"><text text-anchor="end" font-size="10" fill="#111827">2023-Q1</text></g>
<rect x="276.1" y="281.9" width="27.1" height="38.1" fill="#34C759" rx="3" opacity="0.85"/>
<text x="289.7" y="265.9" text-anchor="middle" font-size="10" fill="#6b7280">92</text>
<text x="289.7" y="277.9" text-anchor="middle" font-size="10" fill="#6b7280">(3.39%)</text>
<g transform="translate(289.7,330.0) rotate(-45)"><text text-anchor="end" font-size="10" fill="#111827">2023-Q2</text></g>
<rect x="317.9" y="282.7" width="27.1" height="37.3" fill="#34C759" rx="3" opacity="0.85"/>
<text x="331.5" y="266.7" text-anchor="middle" font-size="10" fill="#6b7280">90</text>
<text x="331.5" y="278.7" text-anchor="middle" font-size="10" fill="#6b7280">(3.32%)</text>
<g transform="translate(331.5,330.0) rotate(-45)"><text text-anchor="end" font-size="10" fill="#111827">2023-Q3</text></g>
<rect x="359.7" y="290.6" width="27.1" height="29.4" fill="#34C759" rx="3" opacity="0.85"/>
<text x="373.2" y="274.6" text-anchor="middle" font-size="10" fill="#6b7280">71</text>
<text x="373.2" y="286.6" text-anchor="middle" font-size="10" fill="#6b7280">(2.62%)</text>
<g transform="translate(373.2,330.0) rotate(-45)"><text text-anchor="end" font-size="10" fill="#111827">2023-Q4</text></g>
<rect x="401.4" y="267.8" width="27.1" height="52.2" fill="#34C759" rx="3" opacity="0.85"/>
<text x="415.0" y="251.8" text-anchor="middle" font-size="10" fill="#6b7280">126</text>
<text x="415.0" y="263.8" text-anchor="middle" font-size="10" fill="#6b7280">(4.65%)</text>
<g transform="translate(415.0,330.0) rotate(-45)"><text text-anchor="end" font-size="10" fill="#111827">2024-Q1</text></g>
<rect x="443.2" y="263.6" width="27.1" height="56.4" fill="#34C759" rx="3" opacity="0.85"/>
<text x="456.8" y="247.6" text-anchor="middle" font-size="10" fill="#6b7280">136</text>
<text x="456.8" y="259.6" text-anchor="middle" font-size="10" fill="#6b7280">(5.02%)</text>
<g transform="translate(456.8,330.0) rotate(-45)"><text text-anchor="end" font-size="10" fill="#111827">2024-Q2</text></g>
<rect x="485.0" y="263.6" width="27.1" height="56.4" fill="#34C759" rx="3" opacity="0.85"/>
<text x="498.5" y="247.6" text-anchor="middle" font-size="10" fill="#6b7280">136</text>
<text x="498.5" y="259.6" text-anchor="middle" font-size="10" fill="#6b7280">(5.02%)</text>
<g transform="translate(498.5,330.0) rotate(-45)"><text text-anchor="end" font-size="10" fill="#111827">2024-Q3</text></g>
<rect x="526.7" y="262.8" width="27.1" height="57.2" fill="#34C759" rx="3" opacity="0.85"/>
<text x="540.3" y="246.8" text-anchor="middle" font-size="10" fill="#6b7280">138</text>
<text x="540.3" y="258.8" text-anchor="middle" font-size="10" fill="#6b7280">(5.09%)</text>
<g transform="translate(540.3,330.0) rotate(-45)"><text text-anchor="end" font-size="10" fill="#111827">2024-Q4</text></g>
<rect x="568.5" y="230.5" width="27.1" height="89.5" fill="#34C759" rx="3" opacity="0.85"/>
<text x="582.1" y="214.5" text-anchor="middle" font-size="10" fill="#6b7280">216</text>
<text x="582.1" y="226.5" text-anchor="middle" font-size="10" fill="#6b7280">(7.97%)</text>
<g transform="translate(582.1,330.0) rotate(-45)"><text text-anchor="end" font-size="10" fill="#111827">2025-Q1</text></g>
<rect x="610.3" y="222.6" width="27.1" height="97.4" fill="#34C759" rx="3" opacity="0.85"/>
<text x="623.8" y="206.6" text-anchor="middle" font-size="10" fill="#6b7280">235</text>
<text x="623.8" y="218.6" text-anchor="middle" font-size="10" fill="#6b7280">(8.67%)</text>
<g transform="translate(623.8,330.0) rotate(-45)"><text text-anchor="end" font-size="10" fill="#111827">2025-Q2</text></g>
<rect x="652.0" y="223.4" width="27.1" height="96.6" fill="#34C759" rx="3" opacity="0.85"/>
<text x="665.6" y="207.4" text-anchor="middle" font-size="10" fill="#6b7280">233</text>
<text x="665.6" y="219.4" text-anchor="middle" font-size="10" fill="#6b7280">(8.60%)</text>
<g transform="translate(665.6,330.0) rotate(-45)"><text text-anchor="end" font-size="10" fill="#111827">2025-Q3</text></g>
<rect x="693.8" y="179.1" width="27.1" height="140.9" fill="#34C759" rx="3" opacity="0.85"/>
<text x="707.4" y="163.1" text-anchor="middle" font-size="10" fill="#6b7280">340</text>
<text x="707.4" y="175.1" text-anchor="middle" font-size="10" fill="#6b7280">(12.55%)</text>
<g transform="translate(707.4,330.0) rotate(-45)"><text text-anchor="end" font-size="10" fill="#111827">2025-Q4</text></g>
<rect x="735.5" y="58.0" width="27.1" height="262.0" fill="#34C759" rx="3" opacity="0.85"/>
<text x="749.1" y="72.0" text-anchor="middle" font-size="10" fill="#6b7280">632</text>
<text x="749.1" y="84.0" text-anchor="middle" font-size="10" fill="#6b7280">(23.32%)</text>
<g transform="translate(749.1,330.0) rotate(-45)"><text text-anchor="end" font-size="10" fill="#111827">2026-Q1</text></g>
</svg>