<svg xmlns="http://www.w3.org/2000/svg" width="800" height="400" viewBox="0 0 800 400">
<defs>
  <style>text { font-family: -apple-system, BlinkMacSystemFont, 'Segoe UI', Roboto, sans-serif; }</style>
  <linearGradient id="g2" x1="0" y1="0" x2="0" y2="1">
  <stop offset="0%" stop-color="#4F8EF7" stop-opacity="0.25"/>
  <stop offset="100%" stop-color="#4F8EF7" stop-opacity="0"/>
</linearGradient>
<linearGradient id="g3" x1="0" y1="0" x2="0" y2="1">
  <stop offset="0%" stop-color="#BF5AF2" stop-opacity="0.25"/>
  <stop offset="100%" stop-color="#BF5AF2" stop-opacity="0"/>
</linearGradient>
<linearGradient id="g4" x1="0" y1="0" x2="0" y2="1">
  <stop offset="0%" stop-color="#34C759" stop-opacity="0.25"/>
  <stop offset="100%" stop-color="#34C759" stop-opacity="0"/>
</linearGradient>
  <clipPath id="ca"><rect x="72" y="45" width="698" height="295"/></clipPath>
</defs>
<rect width="800" height="400" fill="#ffffff" rx="12"/>
<text x="400" y="26" text-anchor="middle" font-size="15" font-weight="600" fill="#111827">Community Growth Over Time</text>
<line x1="72" y1="340.0" x2="770" y2="340.0" stroke="#f3f4f6" stroke-width="1"/>
<text x="66" y="344.0" text-anchor="end" font-size="11" fill="#6b7280">500</text>
<line x1="72" y1="241.7" x2="770" y2="241.7" stroke="#f3f4f6" stroke-width="1"/>
<text x="66" y="245.7" text-anchor="end" font-size="11" fill="#6b7280">1.0k</text>
<line x1="72" y1="143.3" x2="770" y2="143.3" stroke="#f3f4f6" stroke-width="1"/>
<text x="66" y="147.3" text-anchor="end" font-size="11" fill="#6b7280">1.5k</text>
<line x1="72" y1="45.0" x2="770" y2="45.0" stroke="#f3f4f6" stroke-width="1"/>
<text x="66" y="49.0" text-anchor="end" font-size="11" fill="#6b7280">2.0k</text>
<line x1="133.6" y1="45" x2="133.6" y2="340" stroke="#e5e7eb" stroke-width="1" stroke-dasharray="3,3" clip-path="url(#ca)"/>
<line x1="267.0" y1="45" x2="267.0" y2="340" stroke="#e5e7eb" stroke-width="1" stroke-dasharray="3,3" clip-path="url(#ca)"/>
<line x1="405.6" y1="45" x2="405.6" y2="340" stroke="#e5e7eb" stroke-width="1" stroke-dasharray="3,3" clip-path="url(#ca)"/>
<line x1="544.2" y1="45" x2="544.2" y2="340" stroke="#e5e7eb" stroke-width="1" stroke-dasharray="3,3" clip-path="url(#ca)"/>
<line x1="682.8" y1="45" x2="682.8" y2="340" stroke="#e5e7eb" stroke-width="1" stroke-dasharray="3,3" clip-path="url(#ca)"/>
<text x="72.0" y="358.0" text-anchor="middle" font-size="11" fill="#6b7280">Dec 11</text>
<text x="210.6" y="358.0" text-anchor="middle" font-size="11" fill="#6b7280">Jan 21</text>
<text x="349.1" y="358.0" text-anchor="middle" font-size="11" fill="#6b7280">Feb 17</text>
<text x="492.9" y="358.0" text-anchor="middle" font-size="11" fill="#6b7280">Mar 19</text>
<text x="631.4" y="358.0" text-anchor="middle" font-size="11" fill="#6b7280">Apr 19</text>
<text x="770.0" y="358.0" text-anchor="middle" font-size="11" fill="#6b7280">May 23</text>
<line x1="72" y1="45" x2="72" y2="340" stroke="#e5e7eb" stroke-width="1"/>
<line x1="72" y1="340" x2="770" y2="340" stroke="#e5e7eb" stroke-width="1"/>
<text x="-192.5" y="18" text-anchor="middle" font-size="12" fill="#6b7280" transform="rotate(-90)">People</text>
<path d="M 72.0,340 L 72.0,120.1 L 77.1,120.1 L 82.3,120.1 L 87.4,119.5 L 92.5,119.5 L 97.7,119.1 L 102.8,118.9 L 107.9,119.1 L 113.1,118.6 L 118.2,118.6 L 123.3,118.6 L 128.5,118.6 L 133.6,118.6 L 138.7,118.6 L 143.9,118.6 L 149.0,118.6 L 154.1,118.4 L 159.3,117.8 L 164.4,116.6 L 169.5,116.0 L 174.6,115.8 L 179.8,115.8 L 184.9,115.2 L 190.0,113.8 L 195.2,113.0 L 200.3,113.0 L 205.4,112.1 L 210.6,111.7 L 215.7,110.9 L 220.8,110.3 L 226.0,109.7 L 231.1,109.1 L 236.2,109.1 L 241.4,107.7 L 246.5,106.9 L 251.6,106.9 L 256.8,106.2 L 261.9,105.8 L 267.0,105.6 L 272.2,105.4 L 277.3,105.4 L 282.4,104.8 L 287.6,102.4 L 292.7,101.0 L 297.8,100.3 L 303.0,100.1 L 308.1,99.7 L 313.2,98.9 L 318.4,98.5 L 323.5,98.1 L 328.6,97.7 L 333.8,97.3 L 338.9,96.9 L 344.0,96.9 L 349.1,95.0 L 354.3,95.0 L 359.4,94.8 L 364.5,94.6 L 369.7,94.2 L 374.8,94.2 L 379.9,93.2 L 385.1,92.0 L 390.2,91.6 L 395.3,92.0 L 400.5,91.8 L 405.6,91.6 L 410.7,91.6 L 415.9,91.2 L 421.0,90.4 L 426.1,90.0 L 431.3,89.6 L 436.4,89.4 L 441.5,89.4 L 446.7,88.7 L 451.8,88.3 L 456.9,88.3 L 462.1,86.7 L 467.2,86.7 L 472.3,86.7 L 477.5,86.7 L 482.6,86.5 L 487.7,85.9 L 492.9,85.1 L 498.0,84.7 L 503.1,84.7 L 508.3,84.3 L 513.4,82.8 L 518.5,81.8 L 523.6,81.6 L 528.8,81.4 L 533.9,80.8 L 539.0,79.6 L 544.2,79.2 L 549.3,78.8 L 554.4,77.6 L 559.6,77.4 L 564.7,77.4 L 569.8,77.4 L 575.0,77.3 L 580.1,76.1 L 585.2,75.9 L 590.4,75.7 L 595.5,75.7 L 600.6,75.3 L 605.8,73.7 L 610.9,73.5 L 616.0,73.3 L 621.2,73.3 L 626.3,72.5 L 631.4,72.3 L 636.6,72.1 L 641.7,71.6 L 646.8,70.8 L 652.0,70.8 L 657.1,70.8 L 662.2,70.8 L 667.4,70.4 L 672.5,69.8 L 677.6,69.6 L 682.8,69.0 L 687.9,68.8 L 693.0,68.6 L 698.1,67.8 L 703.3,67.2 L 708.4,67.0 L 713.5,67.0 L 718.7,65.3 L 723.8,64.7 L 728.9,64.5 L 734.1,64.5 L 739.2,63.5 L 744.3,63.5 L 749.5,62.9 L 754.6,62.3 L 759.7,60.9 L 764.9,60.7 L 770.0,60.5 L 770.0,340 Z" fill="url(#g2)" clip-path="url(#ca)"/>
<path d="M 72.0,120.1 L 77.1,120.1 L 82.3,120.1 L 87.4,119.5 L 92.5,119.5 L 97.7,119.1 L 102.8,118.9 L 107.9,119.1 L 113.1,118.6 L 118.2,118.6 L 123.3,118.6 L 128.5,118.6 L 133.6,118.6 L 138.7,118.6 L 143.9,118.6 L 149.0,118.6 L 154.1,118.4 L 159.3,117.8 L 164.4,116.6 L 169.5,116.0 L 174.6,115.8 L 179.8,115.8 L 184.9,115.2 L 190.0,113.8 L 195.2,113.0 L 200.3,113.0 L 205.4,112.1 L 210.6,111.7 L 215.7,110.9 L 220.8,110.3 L 226.0,109.7 L 231.1,109.1 L 236.2,109.1 L 241.4,107.7 L 246.5,106.9 L 251.6,106.9 L 256.8,106.2 L 261.9,105.8 L 267.0,105.6 L 272.2,105.4 L 277.3,105.4 L 282.4,104.8 L 287.6,102.4 L 292.7,101.0 L 297.8,100.3 L 303.0,100.1 L 308.1,99.7 L 313.2,98.9 L 318.4,98.5 L 323.5,98.1 L 328.6,97.7 L 333.8,97.3 L 338.9,96.9 L 344.0,96.9 L 349.1,95.0 L 354.3,95.0 L 359.4,94.8 L 364.5,94.6 L 369.7,94.2 L 374.8,94.2 L 379.9,93.2 L 385.1,92.0 L 390.2,91.6 L 395.3,92.0 L 400.5,91.8 L 405.6,91.6 L 410.7,91.6 L 415.9,91.2 L 421.0,90.4 L 426.1,90.0 L 431.3,89.6 L 436.4,89.4 L 441.5,89.4 L 446.7,88.7 L 451.8,88.3 L 456.9,88.3 L 462.1,86.7 L 467.2,86.7 L 472.3,86.7 L 477.5,86.7 L 482.6,86.5 L 487.7,85.9 L 492.9,85.1 L 498.0,84.7 L 503.1,84.7 L 508.3,84.3 L 513.4,82.8 L 518.5,81.8 L 523.6,81.6 L 528.8,81.4 L 533.9,80.8 L 539.0,79.6 L 544.2,79.2 L 549.3,78.8 L 554.4,77.6 L 559.6,77.4 L 564.7,77.4 L 569.8,77.4 L 575.0,77.3 L 580.1,76.1 L 585.2,75.9 L 590.4,75.7 L 595.5,75.7 L 600.6,75.3 L 605.8,73.7 L 610.9,73.5 L 616.0,73.3 L 621.2,73.3 L 626.3,72.5 L 631.4,72.3 L 636.6,72.1 L 641.7,71.6 L 646.8,70.8 L 652.0,70.8 L 657.1,70.8 L 662.2,70.8 L 667.4,70.4 L 672.5,69.8 L 677.6,69.6 L 682.8,69.0 L 687.9,68.8 L 693.0,68.6 L 698.1,67.8 L 703.3,67.2 L 708.4,67.0 L 713.5,67.0 L 718.7,65.3 L 723.8,64.7 L 728.9,64.5 L 734.1,64.5 L 739.2,63.5 L 744.3,63.5 L 749.5,62.9 L 754.6,62.3 L 759.7,60.9 L 764.9,60.7 L 770.0,60.5" fill="none" stroke="#4F8EF7" stroke-width="2.5" stroke-linejoin="round" clip-path="url(#ca)"/>
<path d="M 72.0,340 L 72.0,244.2 L 77.1,243.6 L 82.3,243.6 L 87.4,243.6 L 92.5,243.4 L 97.7,243.0 L 102.8,242.8 L 107.9,242.6 L 113.1,242.6 L 118.2,242.5 L 123.3,242.3 L 128.5,242.3 L 133.6,242.3 L 138.7,242.3 L 143.9,242.3 L 149.0,242.3 L 154.1,241.9 L 159.3,241.9 L 164.4,241.9 L 169.5,241.1 L 174.6,240.9 L 179.8,240.5 L 184.9,239.7 L 190.0,239.5 L 195.2,239.5 L 200.3,239.5 L 205.4,238.9 L 210.6,238.5 L 215.7,238.5 L 220.8,238.1 L 226.0,237.9 L 231.1,237.5 L 236.2,237.5 L 241.4,237.3 L 246.5,236.6 L 251.6,236.0 L 256.8,235.6 L 261.9,235.4 L 267.0,235.4 L 272.2,235.2 L 277.3,234.8 L 282.4,234.8 L 287.6,234.6 L 292.7,234.0 L 297.8,233.6 L 303.0,233.6 L 308.1,233.6 L 313.2,233.6 L 318.4,233.4 L 323.5,232.8 L 328.6,232.4 L 333.8,232.2 L 338.9,232.0 L 344.0,231.8 L 349.1,231.6 L 354.3,231.4 L 359.4,231.2 L 364.5,230.7 L 369.7,230.5 L 374.8,230.3 L 379.9,229.5 L 385.1,228.7 L 390.2,228.7 L 395.3,228.5 L 400.5,228.3 L 405.6,228.3 L 410.7,228.3 L 415.9,227.9 L 421.0,227.9 L 426.1,226.7 L 431.3,226.5 L 436.4,226.3 L 441.5,226.3 L 446.7,225.9 L 451.8,225.7 L 456.9,225.7 L 462.1,225.5 L 467.2,225.5 L 472.3,225.5 L 477.5,225.1 L 482.6,224.9 L 487.7,224.0 L 492.9,224.2 L 498.0,224.0 L 503.1,223.8 L 508.3,223.8 L 513.4,223.6 L 518.5,223.0 L 523.6,223.0 L 528.8,223.0 L 533.9,223.0 L 539.0,222.6 L 544.2,222.6 L 549.3,222.2 L 554.4,221.8 L 559.6,221.0 L 564.7,221.0 L 569.8,220.6 L 575.0,220.4 L 580.1,220.2 L 585.2,220.0 L 590.4,219.6 L 595.5,219.6 L 600.6,219.1 L 605.8,219.1 L 610.9,218.9 L 616.0,218.5 L 621.2,218.3 L 626.3,218.3 L 631.4,218.3 L 636.6,218.3 L 641.7,218.3 L 646.8,217.7 L 652.0,217.7 L 657.1,217.3 L 662.2,216.9 L 667.4,216.3 L 672.5,216.1 L 677.6,216.1 L 682.8,214.9 L 687.9,214.7 L 693.0,214.7 L 698.1,213.9 L 703.3,213.9 L 708.4,213.5 L 713.5,213.5 L 718.7,213.3 L 723.8,213.3 L 728.9,213.2 L 734.1,212.8 L 739.2,212.8 L 744.3,212.6 L 749.5,212.4 L 754.6,212.2 L 759.7,212.0 L 764.9,212.0 L 770.0,211.6 L 770.0,340 Z" fill="url(#g3)" clip-path="url(#ca)"/>
<path d="M 72.0,244.2 L 77.1,243.6 L 82.3,243.6 L 87.4,243.6 L 92.5,243.4 L 97.7,243.0 L 102.8,242.8 L 107.9,242.6 L 113.1,242.6 L 118.2,242.5 L 123.3,242.3 L 128.5,242.3 L 133.6,242.3 L 138.7,242.3 L 143.9,242.3 L 149.0,242.3 L 154.1,241.9 L 159.3,241.9 L 164.4,241.9 L 169.5,241.1 L 174.6,240.9 L 179.8,240.5 L 184.9,239.7 L 190.0,239.5 L 195.2,239.5 L 200.3,239.5 L 205.4,238.9 L 210.6,238.5 L 215.7,238.5 L 220.8,238.1 L 226.0,237.9 L 231.1,237.5 L 236.2,237.5 L 241.4,237.3 L 246.5,236.6 L 251.6,236.0 L 256.8,235.6 L 261.9,235.4 L 267.0,235.4 L 272.2,235.2 L 277.3,234.8 L 282.4,234.8 L 287.6,234.6 L 292.7,234.0 L 297.8,233.6 L 303.0,233.6 L 308.1,233.6 L 313.2,233.6 L 318.4,233.4 L 323.5,232.8 L 328.6,232.4 L 333.8,232.2 L 338.9,232.0 L 344.0,231.8 L 349.1,231.6 L 354.3,231.4 L 359.4,231.2 L 364.5,230.7 L 369.7,230.5 L 374.8,230.3 L 379.9,229.5 L 385.1,228.7 L 390.2,228.7 L 395.3,228.5 L 400.5,228.3 L 405.6,228.3 L 410.7,228.3 L 415.9,227.9 L 421.0,227.9 L 426.1,226.7 L 431.3,226.5 L 436.4,226.3 L 441.5,226.3 L 446.7,225.9 L 451.8,225.7 L 456.9,225.7 L 462.1,225.5 L 467.2,225.5 L 472.3,225.5 L 477.5,225.1 L 482.6,224.9 L 487.7,224.0 L 492.9,224.2 L 498.0,224.0 L 503.1,223.8 L 508.3,223.8 L 513.4,223.6 L 518.5,223.0 L 523.6,223.0 L 528.8,223.0 L 533.9,223.0 L 539.0,222.6 L 544.2,222.6 L 549.3,222.2 L 554.4,221.8 L 559.6,221.0 L 564.7,221.0 L 569.8,220.6 L 575.0,220.4 L 580.1,220.2 L 585.2,220.0 L 590.4,219.6 L 595.5,219.6 L 600.6,219.1 L 605.8,219.1 L 610.9,218.9 L 616.0,218.5 L 621.2,218.3 L 626.3,218.3 L 631.4,218.3 L 636.6,218.3 L 641.7,218.3 L 646.8,217.7 L 652.0,217.7 L 657.1,217.3 L 662.2,216.9 L 667.4,216.3 L 672.5,216.1 L 677.6,216.1 L 682.8,214.9 L 687.9,214.7 L 693.0,214.7 L 698.1,213.9 L 703.3,213.9 L 708.4,213.5 L 713.5,213.5 L 718.7,213.3 L 723.8,213.3 L 728.9,213.2 L 734.1,212.8 L 739.2,212.8 L 744.3,212.6 L 749.5,212.4 L 754.6,212.2 L 759.7,212.0 L 764.9,212.0 L 770.0,211.6" fill="none" stroke="#BF5AF2" stroke-width="2.5" stroke-linejoin="round" clip-path="url(#ca)"/>
<path d="M 72.0,340 L 72.0,291.4 L 77.1,290.8 L 82.3,290.8 L 87.4,290.8 L 92.5,290.6 L 97.7,290.2 L 102.8,290.0 L 107.9,289.7 L 113.1,289.7 L 118.2,289.5 L 123.3,289.3 L 128.5,289.3 L 133.6,289.3 L 138.7,289.3 L 143.9,289.3 L 149.0,289.3 L 154.1,288.9 L 159.3,288.9 L 164.4,289.1 L 169.5,288.5 L 174.6,288.7 L 179.8,288.1 L 184.9,287.5 L 190.0,287.3 L 195.2,287.5 L 200.3,287.5 L 205.4,286.9 L 210.6,286.7 L 215.7,286.7 L 220.8,286.3 L 226.0,286.1 L 231.1,285.7 L 236.2,285.7 L 241.4,285.5 L 246.5,284.9 L 251.6,284.3 L 256.8,283.9 L 261.9,283.9 L 267.0,283.9 L 272.2,283.8 L 277.3,283.4 L 282.4,283.4 L 287.6,283.2 L 292.7,282.6 L 297.8,282.4 L 303.0,282.4 L 308.1,282.4 L 313.2,282.4 L 318.4,282.2 L 323.5,281.6 L 328.6,281.4 L 333.8,281.2 L 338.9,281.0 L 344.0,281.0 L 349.1,280.8 L 354.3,280.8 L 359.4,280.8 L 364.5,280.2 L 369.7,280.2 L 374.8,280.2 L 379.9,279.8 L 385.1,279.2 L 390.2,279.2 L 395.3,279.0 L 400.5,278.8 L 405.6,278.8 L 410.7,278.8 L 415.9,278.4 L 421.0,278.4 L 426.1,277.3 L 431.3,277.1 L 436.4,276.9 L 441.5,276.9 L 446.7,276.7 L 451.8,276.7 L 456.9,276.7 L 462.1,276.7 L 467.2,276.7 L 472.3,276.7 L 477.5,276.3 L 482.6,276.1 L 487.7,275.1 L 492.9,275.3 L 498.0,275.3 L 503.1,275.1 L 508.3,275.1 L 513.4,275.1 L 518.5,274.7 L 523.6,274.7 L 528.8,274.7 L 533.9,274.7 L 539.0,274.7 L 544.2,274.7 L 549.3,274.5 L 554.4,274.5 L 559.6,273.7 L 564.7,273.7 L 569.8,273.5 L 575.0,273.3 L 580.1,273.1 L 585.2,272.9 L 590.4,272.5 L 595.5,272.5 L 600.6,272.0 L 605.8,272.0 L 610.9,271.8 L 616.0,271.6 L 621.2,271.6 L 626.3,271.6 L 631.4,271.6 L 636.6,271.6 L 641.7,271.6 L 646.8,271.0 L 652.0,271.0 L 657.1,270.6 L 662.2,270.2 L 667.4,269.6 L 672.5,269.4 L 677.6,269.4 L 682.8,268.4 L 687.9,268.2 L 693.0,268.2 L 698.1,267.6 L 703.3,267.6 L 708.4,267.4 L 713.5,267.4 L 718.7,267.6 L 723.8,267.8 L 728.9,267.6 L 734.1,267.2 L 739.2,267.4 L 744.3,267.2 L 749.5,267.0 L 754.6,267.0 L 759.7,267.0 L 764.9,267.0 L 770.0,266.6 L 770.0,340 Z" fill="url(#g4)" clip-path="url(#ca)"/>
<path d="M 72.0,291.4 L 77.1,290.8 L 82.3,290.8 L 87.4,290.8 L 92.5,290.6 L 97.7,290.2 L 102.8,290.0 L 107.9,289.7 L 113.1,289.7 L 118.2,289.5 L 123.3,289.3 L 128.5,289.3 L 133.6,289.3 L 138.7,289.3 L 143.9,289.3 L 149.0,289.3 L 154.1,288.9 L 159.3,288.9 L 164.4,289.1 L 169.5,288.5 L 174.6,288.7 L 179.8,288.1 L 184.9,287.5 L 190.0,287.3 L 195.2,287.5 L 200.3,287.5 L 205.4,286.9 L 210.6,286.7 L 215.7,286.7 L 220.8,286.3 L 226.0,286.1 L 231.1,285.7 L 236.2,285.7 L 241.4,285.5 L 246.5,284.9 L 251.6,284.3 L 256.8,283.9 L 261.9,283.9 L 267.0,283.9 L 272.2,283.8 L 277.3,283.4 L 282.4,283.4 L 287.6,283.2 L 292.7,282.6 L 297.8,282.4 L 303.0,282.4 L 308.1,282.4 L 313.2,282.4 L 318.4,282.2 L 323.5,281.6 L 328.6,281.4 L 333.8,281.2 L 338.9,281.0 L 344.0,281.0 L 349.1,280.8 L 354.3,280.8 L 359.4,280.8 L 364.5,280.2 L 369.7,280.2 L 374.8,280.2 L 379.9,279.8 L 385.1,279.2 L 390.2,279.2 L 395.3,279.0 L 400.5,278.8 L 405.6,278.8 L 410.7,278.8 L 415.9,278.4 L 421.0,278.4 L 426.1,277.3 L 431.3,277.1 L 436.4,276.9 L 441.5,276.9 L 446.7,276.7 L 451.8,276.7 L 456.9,276.7 L 462.1,276.7 L 467.2,276.7 L 472.3,276.7 L 477.5,276.3 L 482.6,276.1 L 487.7,275.1 L 492.9,275.3 L 498.0,275.3 L 503.1,275.1 L 508.3,275.1 L 513.4,275.1 L 518.5,274.7 L 523.6,274.7 L 528.8,274.7 L 533.9,274.7 L 539.0,274.7 L 544.2,274.7 L 549.3,274.5 L 554.4,274.5 L 559.6,273.7 L 564.7,273.7 L 569.8,273.5 L 575.0,273.3 L 580.1,273.1 L 585.2,272.9 L 590.4,272.5 L 595.5,272.5 L 600.6,272.0 L 605.8,272.0 L 610.9,271.8 L 616.0,271.6 L 621.2,271.6 L 626.3,271.6 L 631.4,271.6 L 636.6,271.6 L 641.7,271.6 L 646.8,271.0 L 652.0,271.0 L 657.1,270.6 L 662.2,270.2 L 667.4,269.6 L 672.5,269.4 L 677.6,269.4 L 682.8,268.4 L 687.9,268.2 L 693.0,268.2 L 698.1,267.6 L 703.3,267.6 L 708.4,267.4 L 713.5,267.4 L 718.7,267.6 L 723.8,267.8 L 728.9,267.6 L 734.1,267.2 L 739.2,267.4 L 744.3,267.2 L 749.5,267.0 L 754.6,267.0 L 759.7,267.0 L 764.9,267.0 L 770.0,266.6" fill="none" stroke="#34C759" stroke-width="2.5" stroke-linejoin="round" clip-path="url(#ca)"/>
<text x="100.2" y="55.0" text-anchor="middle" font-size="9" fill="#4F8EF7" opacity="0.85" clip-path="url(#ca)">+0.5% (+8)</text>
<text x="100.2" y="66.0" text-anchor="middle" font-size="9" fill="#BF5AF2" opacity="0.85" clip-path="url(#ca)">+1.0% (+10)</text>
<text x="100.2" y="77.0" text-anchor="middle" font-size="9" fill="#34C759" opacity="0.85" clip-path="url(#ca)">+1.5% (+11)</text>
<text x="197.7" y="55.0" text-anchor="middle" font-size="9" fill="#4F8EF7" opacity="0.85" clip-path="url(#ca)">+4.0% (+65)</text>
<text x="197.7" y="66.0" text-anchor="middle" font-size="9" fill="#BF5AF2" opacity="0.85" clip-path="url(#ca)">+3.5% (+35)</text>
<text x="197.7" y="77.0" text-anchor="middle" font-size="9" fill="#34C759" opacity="0.85" clip-path="url(#ca)">+3.6% (+27)</text>
<text x="333.8" y="55.0" text-anchor="middle" font-size="9" fill="#4F8EF7" opacity="0.85" clip-path="url(#ca)">+4.1% (+70)</text>
<text x="333.8" y="66.0" text-anchor="middle" font-size="9" fill="#BF5AF2" opacity="0.85" clip-path="url(#ca)">+3.5% (+36)</text>
<text x="333.8" y="77.0" text-anchor="middle" font-size="9" fill="#34C759" opacity="0.85" clip-path="url(#ca)">+3.3% (+26)</text>
<text x="472.3" y="55.0" text-anchor="middle" font-size="9" fill="#4F8EF7" opacity="0.85" clip-path="url(#ca)">+3.5% (+61)</text>
<text x="472.3" y="66.0" text-anchor="middle" font-size="9" fill="#BF5AF2" opacity="0.85" clip-path="url(#ca)">+2.7% (+29)</text>
<text x="472.3" y="77.0" text-anchor="middle" font-size="9" fill="#34C759" opacity="0.85" clip-path="url(#ca)">+2.6% (+21)</text>
<text x="610.9" y="55.0" text-anchor="middle" font-size="9" fill="#4F8EF7" opacity="0.85" clip-path="url(#ca)">+2.7% (+49)</text>
<text x="610.9" y="66.0" text-anchor="middle" font-size="9" fill="#BF5AF2" opacity="0.85" clip-path="url(#ca)">+3.0% (+33)</text>
<text x="610.9" y="77.0" text-anchor="middle" font-size="9" fill="#34C759" opacity="0.85" clip-path="url(#ca)">+3.2% (+27)</text>
<text x="726.4" y="55.0" text-anchor="middle" font-size="9" fill="#4F8EF7" opacity="0.85" clip-path="url(#ca)">+2.3% (+43)</text>
<text x="726.4" y="66.0" text-anchor="middle" font-size="9" fill="#BF5AF2" opacity="0.85" clip-path="url(#ca)">+1.5% (+17)</text>
<text x="726.4" y="77.0" text-anchor="middle" font-size="9" fill="#34C759" opacity="0.85" clip-path="url(#ca)">+1.0% (+9)</text>
<rect x="211" y="369" width="12" height="12" fill="#4F8EF7" rx="2"/>
<text x="227" y="379" font-size="12" fill="#111827">Authors</text>
<rect x="351" y="369" width="12" height="12" fill="#BF5AF2" rx="2"/>
<text x="367" y="379" font-size="12" fill="#111827">Contributors</text>
<rect x="491" y="369" width="12" height="12" fill="#34C759" rx="2"/>
<text x="507" y="379" font-size="12" fill="#111827">Non-author contributors</text>
<text x="72" y="394" font-size="8" fill="#e5e7eb">data since Dec 11, 2025</text>
</svg>