<svg xmlns="http://www.w3.org/2000/svg" width="800" height="400" viewBox="0 0 800 400">
<defs>
  <style>text { font-family: -apple-system, BlinkMacSystemFont, 'Segoe UI', Roboto, sans-serif; }</style>
  <linearGradient id="g5" x1="0" y1="0" x2="0" y2="1">
  <stop offset="0%" stop-color="#34C759" stop-opacity="0.25"/>
  <stop offset="100%" stop-color="#34C759" stop-opacity="0"/>
</linearGradient>
<linearGradient id="g6" x1="0" y1="0" x2="0" y2="1">
  <stop offset="0%" stop-color="#4F8EF7" stop-opacity="0.25"/>
  <stop offset="100%" stop-color="#4F8EF7" stop-opacity="0"/>
</linearGradient>
<linearGradient id="g7" x1="0" y1="0" x2="0" y2="1">
  <stop offset="0%" stop-color="#FF6363" stop-opacity="0.25"/>
  <stop offset="100%" stop-color="#FF6363" stop-opacity="0"/>
</linearGradient>
  <clipPath id="ca"><rect x="72" y="45" width="698" height="295"/></clipPath>
</defs>
<rect width="800" height="400" fill="#ffffff" rx="12"/>
<text x="400" y="26" text-anchor="middle" font-size="15" font-weight="600" fill="#111827">Platform Support Over Time</text>
<line x1="72" y1="340.0" x2="770" y2="340.0" stroke="#f3f4f6" stroke-width="1"/>
<text x="66" y="344.0" text-anchor="end" font-size="11" fill="#6b7280">0</text>
<line x1="72" y1="281.0" x2="770" y2="281.0" stroke="#f3f4f6" stroke-width="1"/>
<text x="66" y="285.0" text-anchor="end" font-size="11" fill="#6b7280">200</text>
<line x1="72" y1="222.0" x2="770" y2="222.0" stroke="#f3f4f6" stroke-width="1"/>
<text x="66" y="226.0" text-anchor="end" font-size="11" fill="#6b7280">400</text>
<line x1="72" y1="163.0" x2="770" y2="163.0" stroke="#f3f4f6" stroke-width="1"/>
<text x="66" y="167.0" text-anchor="end" font-size="11" fill="#6b7280">600</text>
<line x1="72" y1="104.0" x2="770" y2="104.0" stroke="#f3f4f6" stroke-width="1"/>
<text x="66" y="108.0" text-anchor="end" font-size="11" fill="#6b7280">800</text>
<line x1="72" y1="45.0" x2="770" y2="45.0" stroke="#f3f4f6" stroke-width="1"/>
<text x="66" y="49.0" text-anchor="end" font-size="11" fill="#6b7280">1.0k</text>
<line x1="129.4" y1="45" x2="129.4" y2="340" stroke="#e5e7eb" stroke-width="1" stroke-dasharray="3,3" clip-path="url(#ca)"/>
<line x1="253.7" y1="45" x2="253.7" y2="340" stroke="#e5e7eb" stroke-width="1" stroke-dasharray="3,3" clip-path="url(#ca)"/>
<line x1="382.8" y1="45" x2="382.8" y2="340" stroke="#e5e7eb" stroke-width="1" stroke-dasharray="3,3" clip-path="url(#ca)"/>
<line x1="511.8" y1="45" x2="511.8" y2="340" stroke="#e5e7eb" stroke-width="1" stroke-dasharray="3,3" clip-path="url(#ca)"/>
<line x1="640.9" y1="45" x2="640.9" y2="340" stroke="#e5e7eb" stroke-width="1" stroke-dasharray="3,3" clip-path="url(#ca)"/>
<line x1="765.2" y1="45" x2="765.2" y2="340" stroke="#e5e7eb" stroke-width="1" stroke-dasharray="3,3" clip-path="url(#ca)"/>
<text x="72.0" y="358.0" text-anchor="middle" font-size="11" fill="#6b7280">Dec 11</text>
<text x="210.6" y="358.0" text-anchor="middle" font-size="11" fill="#6b7280">Jan 23</text>
<text x="349.3" y="358.0" text-anchor="middle" font-size="11" fill="#6b7280">Feb 21</text>
<text x="492.7" y="358.0" text-anchor="middle" font-size="11" fill="#6b7280">Mar 26</text>
<text x="631.4" y="358.0" text-anchor="middle" font-size="11" fill="#6b7280">Apr 29</text>
<text x="770.0" y="358.0" text-anchor="middle" font-size="11" fill="#6b7280">Jun 3</text>
<line x1="72" y1="45" x2="72" y2="340" stroke="#e5e7eb" stroke-width="1"/>
<line x1="72" y1="340" x2="770" y2="340" stroke="#e5e7eb" stroke-width="1"/>
<text x="-192.5" y="18" text-anchor="middle" font-size="12" fill="#6b7280" transform="rotate(-90)">Extensions</text>
<path d="M 72.0,340 L 72.0,242.6 L 76.8,240.0 L 81.6,239.7 L 86.3,238.5 L 91.1,237.9 L 95.9,235.0 L 100.7,233.2 L 105.5,232.3 L 110.2,230.8 L 115.0,229.1 L 119.8,228.2 L 124.6,227.9 L 129.4,227.0 L 134.2,226.4 L 138.9,226.1 L 143.7,225.2 L 148.5,224.4 L 153.3,223.5 L 158.1,222.6 L 162.8,221.4 L 167.6,220.5 L 172.4,219.6 L 177.2,218.8 L 182.0,217.0 L 186.7,216.4 L 191.5,216.4 L 196.3,214.3 L 201.1,213.7 L 205.9,213.2 L 210.6,212.6 L 215.4,211.1 L 220.2,209.0 L 225.0,208.7 L 229.8,208.4 L 234.5,206.7 L 239.3,206.1 L 244.1,204.6 L 248.9,204.3 L 253.7,204.0 L 258.5,203.4 L 263.2,203.4 L 268.0,203.4 L 272.8,199.3 L 277.6,199.0 L 282.4,198.1 L 287.1,197.8 L 291.9,197.5 L 296.7,196.6 L 301.5,196.0 L 306.3,195.4 L 311.0,193.7 L 315.8,193.7 L 320.6,193.7 L 325.4,193.4 L 330.2,190.4 L 334.9,189.6 L 339.7,189.0 L 344.5,188.1 L 349.3,187.5 L 354.1,187.5 L 358.8,186.0 L 363.6,183.9 L 368.4,183.4 L 373.2,183.1 L 378.0,182.2 L 382.8,182.2 L 387.5,181.6 L 392.3,180.7 L 397.1,180.1 L 401.9,178.9 L 406.7,177.8 L 411.4,177.5 L 416.2,177.5 L 421.0,176.3 L 425.8,176.3 L 430.6,176.3 L 435.3,174.5 L 440.1,174.2 L 444.9,173.9 L 449.7,173.9 L 454.5,173.6 L 459.2,172.4 L 464.0,171.9 L 468.8,171.0 L 473.6,171.0 L 478.4,170.7 L 483.2,169.5 L 487.9,168.6 L 492.7,168.6 L 497.5,168.3 L 502.3,167.7 L 507.1,165.7 L 511.8,165.1 L 516.6,164.2 L 521.4,164.2 L 526.2,163.6 L 531.0,163.3 L 535.7,163.0 L 540.5,162.7 L 545.3,162.4 L 550.1,162.4 L 554.9,162.1 L 559.6,161.8 L 564.4,160.9 L 569.2,159.8 L 574.0,159.5 L 578.8,158.6 L 583.5,158.6 L 588.3,157.4 L 593.1,157.1 L 597.9,157.1 L 602.7,157.1 L 607.5,156.2 L 612.2,155.9 L 617.0,155.9 L 621.8,155.9 L 626.6,155.6 L 631.4,154.4 L 636.1,154.2 L 640.9,153.3 L 645.7,152.7 L 650.5,152.7 L 655.3,151.8 L 660.0,151.2 L 664.8,151.2 L 669.6,150.9 L 674.4,149.4 L 679.2,148.0 L 683.9,147.7 L 688.7,147.1 L 693.5,145.9 L 698.3,145.9 L 703.1,145.3 L 707.8,143.8 L 712.6,141.2 L 717.4,140.3 L 722.2,140.3 L 727.0,140.3 L 731.8,140.3 L 736.5,140.3 L 741.3,139.1 L 746.1,138.2 L 750.9,138.2 L 755.7,138.2 L 760.4,138.2 L 765.2,137.3 L 770.0,137.3 L 770.0,340 Z" fill="url(#g5)" clip-path="url(#ca)"/>
<path d="M 72.0,242.6 L 76.8,240.0 L 81.6,239.7 L 86.3,238.5 L 91.1,237.9 L 95.9,235.0 L 100.7,233.2 L 105.5,232.3 L 110.2,230.8 L 115.0,229.1 L 119.8,228.2 L 124.6,227.9 L 129.4,227.0 L 134.2,226.4 L 138.9,226.1 L 143.7,225.2 L 148.5,224.4 L 153.3,223.5 L 158.1,222.6 L 162.8,221.4 L 167.6,220.5 L 172.4,219.6 L 177.2,218.8 L 182.0,217.0 L 186.7,216.4 L 191.5,216.4 L 196.3,214.3 L 201.1,213.7 L 205.9,213.2 L 210.6,212.6 L 215.4,211.1 L 220.2,209.0 L 225.0,208.7 L 229.8,208.4 L 234.5,206.7 L 239.3,206.1 L 244.1,204.6 L 248.9,204.3 L 253.7,204.0 L 258.5,203.4 L 263.2,203.4 L 268.0,203.4 L 272.8,199.3 L 277.6,199.0 L 282.4,198.1 L 287.1,197.8 L 291.9,197.5 L 296.7,196.6 L 301.5,196.0 L 306.3,195.4 L 311.0,193.7 L 315.8,193.7 L 320.6,193.7 L 325.4,193.4 L 330.2,190.4 L 334.9,189.6 L 339.7,189.0 L 344.5,188.1 L 349.3,187.5 L 354.1,187.5 L 358.8,186.0 L 363.6,183.9 L 368.4,183.4 L 373.2,183.1 L 378.0,182.2 L 382.8,182.2 L 387.5,181.6 L 392.3,180.7 L 397.1,180.1 L 401.9,178.9 L 406.7,177.8 L 411.4,177.5 L 416.2,177.5 L 421.0,176.3 L 425.8,176.3 L 430.6,176.3 L 435.3,174.5 L 440.1,174.2 L 444.9,173.9 L 449.7,173.9 L 454.5,173.6 L 459.2,172.4 L 464.0,171.9 L 468.8,171.0 L 473.6,171.0 L 478.4,170.7 L 483.2,169.5 L 487.9,168.6 L 492.7,168.6 L 497.5,168.3 L 502.3,167.7 L 507.1,165.7 L 511.8,165.1 L 516.6,164.2 L 521.4,164.2 L 526.2,163.6 L 531.0,163.3 L 535.7,163.0 L 540.5,162.7 L 545.3,162.4 L 550.1,162.4 L 554.9,162.1 L 559.6,161.8 L 564.4,160.9 L 569.2,159.8 L 574.0,159.5 L 578.8,158.6 L 583.5,158.6 L 588.3,157.4 L 593.1,157.1 L 597.9,157.1 L 602.7,157.1 L 607.5,156.2 L 612.2,155.9 L 617.0,155.9 L 621.8,155.9 L 626.6,155.6 L 631.4,154.4 L 636.1,154.2 L 640.9,153.3 L 645.7,152.7 L 650.5,152.7 L 655.3,151.8 L 660.0,151.2 L 664.8,151.2 L 669.6,150.9 L 674.4,149.4 L 679.2,148.0 L 683.9,147.7 L 688.7,147.1 L 693.5,145.9 L 698.3,145.9 L 703.1,145.3 L 707.8,143.8 L 712.6,141.2 L 717.4,140.3 L 722.2,140.3 L 727.0,140.3 L 731.8,140.3 L 736.5,140.3 L 741.3,139.1 L 746.1,138.2 L 750.9,138.2 L 755.7,138.2 L 760.4,138.2 L 765.2,137.3 L 770.0,137.3" fill="none" stroke="#34C759" stroke-width="2.5" stroke-linejoin="round" clip-path="url(#ca)"/>
<path d="M 72.0,340 L 72.0,222.6 L 76.8,222.6 L 81.6,222.3 L 86.3,221.4 L 91.1,221.7 L 95.9,221.7 L 100.7,220.5 L 105.5,219.6 L 110.2,219.6 L 115.0,219.9 L 119.8,219.6 L 124.6,219.3 L 129.4,219.1 L 134.2,219.1 L 138.9,219.1 L 143.7,219.3 L 148.5,218.8 L 153.3,218.2 L 158.1,216.4 L 162.8,215.2 L 167.6,215.2 L 172.4,214.9 L 177.2,213.2 L 182.0,210.5 L 186.7,209.6 L 191.5,209.0 L 196.3,207.0 L 201.1,205.5 L 205.9,204.9 L 210.6,204.3 L 215.4,203.7 L 220.2,203.4 L 225.0,203.4 L 229.8,201.3 L 234.5,200.8 L 239.3,200.2 L 244.1,200.2 L 248.9,198.7 L 253.7,198.4 L 258.5,197.5 L 263.2,196.3 L 268.0,194.9 L 272.8,192.8 L 277.6,190.7 L 282.4,190.4 L 287.1,189.8 L 291.9,189.3 L 296.7,187.5 L 301.5,187.5 L 306.3,186.9 L 311.0,186.0 L 315.8,185.4 L 320.6,184.2 L 325.4,184.5 L 330.2,181.0 L 334.9,180.7 L 339.7,180.4 L 344.5,179.8 L 349.3,178.0 L 354.1,178.0 L 358.8,176.3 L 363.6,174.2 L 368.4,174.2 L 373.2,174.2 L 378.0,173.9 L 382.8,173.6 L 387.5,173.3 L 392.3,171.9 L 397.1,170.1 L 401.9,169.5 L 406.7,168.3 L 411.4,168.3 L 416.2,167.4 L 421.0,165.7 L 425.8,164.8 L 430.6,164.5 L 435.3,162.4 L 440.1,162.1 L 444.9,162.1 L 449.7,161.8 L 454.5,161.8 L 459.2,160.3 L 464.0,159.8 L 468.8,158.9 L 473.6,158.6 L 478.4,158.0 L 483.2,155.6 L 487.9,152.4 L 492.7,152.1 L 497.5,151.5 L 502.3,151.2 L 507.1,149.7 L 511.8,118.5 L 516.6,117.9 L 521.4,116.4 L 526.2,116.4 L 531.0,116.4 L 535.7,116.7 L 540.5,116.4 L 545.3,114.6 L 550.1,114.0 L 554.9,113.7 L 559.6,113.4 L 564.4,112.3 L 569.2,110.5 L 574.0,110.5 L 578.8,110.5 L 583.5,110.2 L 588.3,109.9 L 593.1,109.9 L 597.9,109.3 L 602.7,108.4 L 607.5,106.9 L 612.2,106.4 L 617.0,106.1 L 621.8,106.1 L 626.6,105.8 L 631.4,105.2 L 636.1,104.9 L 640.9,103.4 L 645.7,103.4 L 650.5,102.8 L 655.3,101.6 L 660.0,100.2 L 664.8,99.9 L 669.6,99.6 L 674.4,96.9 L 679.2,96.3 L 683.9,95.7 L 688.7,95.7 L 693.5,94.6 L 698.3,94.0 L 703.1,92.5 L 707.8,91.9 L 712.6,91.0 L 717.4,90.7 L 722.2,89.5 L 727.0,88.7 L 731.8,88.4 L 736.5,87.8 L 741.3,86.6 L 746.1,86.0 L 750.9,85.1 L 755.7,84.5 L 760.4,84.2 L 765.2,83.6 L 770.0,82.8 L 770.0,340 Z" fill="url(#g6)" clip-path="url(#ca)"/>
<path d="M 72.0,222.6 L 76.8,222.6 L 81.6,222.3 L 86.3,221.4 L 91.1,221.7 L 95.9,221.7 L 100.7,220.5 L 105.5,219.6 L 110.2,219.6 L 115.0,219.9 L 119.8,219.6 L 124.6,219.3 L 129.4,219.1 L 134.2,219.1 L 138.9,219.1 L 143.7,219.3 L 148.5,218.8 L 153.3,218.2 L 158.1,216.4 L 162.8,215.2 L 167.6,215.2 L 172.4,214.9 L 177.2,213.2 L 182.0,210.5 L 186.7,209.6 L 191.5,209.0 L 196.3,207.0 L 201.1,205.5 L 205.9,204.9 L 210.6,204.3 L 215.4,203.7 L 220.2,203.4 L 225.0,203.4 L 229.8,201.3 L 234.5,200.8 L 239.3,200.2 L 244.1,200.2 L 248.9,198.7 L 253.7,198.4 L 258.5,197.5 L 263.2,196.3 L 268.0,194.9 L 272.8,192.8 L 277.6,190.7 L 282.4,190.4 L 287.1,189.8 L 291.9,189.3 L 296.7,187.5 L 301.5,187.5 L 306.3,186.9 L 311.0,186.0 L 315.8,185.4 L 320.6,184.2 L 325.4,184.5 L 330.2,181.0 L 334.9,180.7 L 339.7,180.4 L 344.5,179.8 L 349.3,178.0 L 354.1,178.0 L 358.8,176.3 L 363.6,174.2 L 368.4,174.2 L 373.2,174.2 L 378.0,173.9 L 382.8,173.6 L 387.5,173.3 L 392.3,171.9 L 397.1,170.1 L 401.9,169.5 L 406.7,168.3 L 411.4,168.3 L 416.2,167.4 L 421.0,165.7 L 425.8,164.8 L 430.6,164.5 L 435.3,162.4 L 440.1,162.1 L 444.9,162.1 L 449.7,161.8 L 454.5,161.8 L 459.2,160.3 L 464.0,159.8 L 468.8,158.9 L 473.6,158.6 L 478.4,158.0 L 483.2,155.6 L 487.9,152.4 L 492.7,152.1 L 497.5,151.5 L 502.3,151.2 L 507.1,149.7 L 511.8,118.5 L 516.6,117.9 L 521.4,116.4 L 526.2,116.4 L 531.0,116.4 L 535.7,116.7 L 540.5,116.4 L 545.3,114.6 L 550.1,114.0 L 554.9,113.7 L 559.6,113.4 L 564.4,112.3 L 569.2,110.5 L 574.0,110.5 L 578.8,110.5 L 583.5,110.2 L 588.3,109.9 L 593.1,109.9 L 597.9,109.3 L 602.7,108.4 L 607.5,106.9 L 612.2,106.4 L 617.0,106.1 L 621.8,106.1 L 626.6,105.8 L 631.4,105.2 L 636.1,104.9 L 640.9,103.4 L 645.7,103.4 L 650.5,102.8 L 655.3,101.6 L 660.0,100.2 L 664.8,99.9 L 669.6,99.6 L 674.4,96.9 L 679.2,96.3 L 683.9,95.7 L 688.7,95.7 L 693.5,94.6 L 698.3,94.0 L 703.1,92.5 L 707.8,91.9 L 712.6,91.0 L 717.4,90.7 L 722.2,89.5 L 727.0,88.7 L 731.8,88.4 L 736.5,87.8 L 741.3,86.6 L 746.1,86.0 L 750.9,85.1 L 755.7,84.5 L 760.4,84.2 L 765.2,83.6 L 770.0,82.8" fill="none" stroke="#4F8EF7" stroke-width="2.5" stroke-linejoin="round" clip-path="url(#ca)"/>
<path d="M 72.0,340 L 72.0,338.2 L 76.8,337.9 L 81.6,337.9 L 86.3,337.6 L 91.1,337.6 L 95.9,337.6 L 100.7,337.6 L 105.5,337.6 L 110.2,337.1 L 115.0,337.1 L 119.8,337.1 L 124.6,337.1 L 129.4,337.1 L 134.2,336.8 L 138.9,336.8 L 143.7,336.8 L 148.5,336.8 L 153.3,336.8 L 158.1,336.5 L 162.8,335.9 L 167.6,335.6 L 172.4,335.6 L 177.2,335.6 L 182.0,335.3 L 186.7,335.3 L 191.5,335.3 L 196.3,335.0 L 201.1,335.0 L 205.9,335.0 L 210.6,334.7 L 215.4,334.7 L 220.2,334.7 L 225.0,334.7 L 229.8,334.4 L 234.5,334.4 L 239.3,334.4 L 244.1,334.4 L 248.9,334.4 L 253.7,334.4 L 258.5,334.4 L 263.2,334.4 L 268.0,334.4 L 272.8,334.4 L 277.6,334.4 L 282.4,334.4 L 287.1,334.4 L 291.9,334.1 L 296.7,334.1 L 301.5,334.1 L 306.3,334.1 L 311.0,334.1 L 315.8,334.1 L 320.6,334.1 L 325.4,334.1 L 330.2,334.1 L 334.9,334.1 L 339.7,334.1 L 344.5,334.1 L 349.3,333.8 L 354.1,333.8 L 358.8,333.8 L 363.6,333.8 L 368.4,333.8 L 373.2,333.8 L 378.0,333.8 L 382.8,333.8 L 387.5,333.8 L 392.3,333.8 L 397.1,333.8 L 401.9,333.8 L 406.7,333.8 L 411.4,333.8 L 416.2,333.8 L 421.0,333.8 L 425.8,333.8 L 430.6,333.8 L 435.3,333.8 L 440.1,333.8 L 444.9,333.8 L 449.7,333.8 L 454.5,333.8 L 459.2,333.8 L 464.0,333.8 L 468.8,333.8 L 473.6,333.8 L 478.4,333.8 L 483.2,333.8 L 487.9,333.8 L 492.7,333.8 L 497.5,333.8 L 502.3,333.8 L 507.1,333.8 L 511.8,333.8 L 516.6,333.8 L 521.4,333.5 L 526.2,333.5 L 531.0,333.5 L 535.7,333.5 L 540.5,333.5 L 545.3,333.2 L 550.1,333.2 L 554.9,333.2 L 559.6,333.2 L 564.4,332.9 L 569.2,332.9 L 574.0,332.6 L 578.8,332.6 L 583.5,332.6 L 588.3,332.6 L 593.1,332.6 L 597.9,332.6 L 602.7,332.6 L 607.5,332.6 L 612.2,332.6 L 617.0,332.6 L 621.8,332.6 L 626.6,332.6 L 631.4,332.6 L 636.1,332.6 L 640.9,332.6 L 645.7,332.6 L 650.5,332.6 L 655.3,332.6 L 660.0,332.6 L 664.8,332.6 L 669.6,332.6 L 674.4,332.6 L 679.2,332.6 L 683.9,332.6 L 688.7,332.6 L 693.5,332.6 L 698.3,332.6 L 703.1,332.6 L 707.8,332.6 L 712.6,332.6 L 717.4,332.6 L 722.2,332.6 L 727.0,332.6 L 731.8,332.6 L 736.5,332.6 L 741.3,332.6 L 746.1,332.6 L 750.9,332.6 L 755.7,332.6 L 760.4,332.6 L 765.2,332.6 L 770.0,332.6 L 770.0,340 Z" fill="url(#g7)" clip-path="url(#ca)"/>
<path d="M 72.0,338.2 L 76.8,337.9 L 81.6,337.9 L 86.3,337.6 L 91.1,337.6 L 95.9,337.6 L 100.7,337.6 L 105.5,337.6 L 110.2,337.1 L 115.0,337.1 L 119.8,337.1 L 124.6,337.1 L 129.4,337.1 L 134.2,336.8 L 138.9,336.8 L 143.7,336.8 L 148.5,336.8 L 153.3,336.8 L 158.1,336.5 L 162.8,335.9 L 167.6,335.6 L 172.4,335.6 L 177.2,335.6 L 182.0,335.3 L 186.7,335.3 L 191.5,335.3 L 196.3,335.0 L 201.1,335.0 L 205.9,335.0 L 210.6,334.7 L 215.4,334.7 L 220.2,334.7 L 225.0,334.7 L 229.8,334.4 L 234.5,334.4 L 239.3,334.4 L 244.1,334.4 L 248.9,334.4 L 253.7,334.4 L 258.5,334.4 L 263.2,334.4 L 268.0,334.4 L 272.8,334.4 L 277.6,334.4 L 282.4,334.4 L 287.1,334.4 L 291.9,334.1 L 296.7,334.1 L 301.5,334.1 L 306.3,334.1 L 311.0,334.1 L 315.8,334.1 L 320.6,334.1 L 325.4,334.1 L 330.2,334.1 L 334.9,334.1 L 339.7,334.1 L 344.5,334.1 L 349.3,333.8 L 354.1,333.8 L 358.8,333.8 L 363.6,333.8 L 368.4,333.8 L 373.2,333.8 L 378.0,333.8 L 382.8,333.8 L 387.5,333.8 L 392.3,333.8 L 397.1,333.8 L 401.9,333.8 L 406.7,333.8 L 411.4,333.8 L 416.2,333.8 L 421.0,333.8 L 425.8,333.8 L 430.6,333.8 L 435.3,333.8 L 440.1,333.8 L 444.9,333.8 L 449.7,333.8 L 454.5,333.8 L 459.2,333.8 L 464.0,333.8 L 468.8,333.8 L 473.6,333.8 L 478.4,333.8 L 483.2,333.8 L 487.9,333.8 L 492.7,333.8 L 497.5,333.8 L 502.3,333.8 L 507.1,333.8 L 511.8,333.8 L 516.6,333.8 L 521.4,333.5 L 526.2,333.5 L 531.0,333.5 L 535.7,333.5 L 540.5,333.5 L 545.3,333.2 L 550.1,333.2 L 554.9,333.2 L 559.6,333.2 L 564.4,332.9 L 569.2,332.9 L 574.0,332.6 L 578.8,332.6 L 583.5,332.6 L 588.3,332.6 L 593.1,332.6 L 597.9,332.6 L 602.7,332.6 L 607.5,332.6 L 612.2,332.6 L 617.0,332.6 L 621.8,332.6 L 626.6,332.6 L 631.4,332.6 L 636.1,332.6 L 640.9,332.6 L 645.7,332.6 L 650.5,332.6 L 655.3,332.6 L 660.0,332.6 L 664.8,332.6 L 669.6,332.6 L 674.4,332.6 L 679.2,332.6 L 683.9,332.6 L 688.7,332.6 L 693.5,332.6 L 698.3,332.6 L 703.1,332.6 L 707.8,332.6 L 712.6,332.6 L 717.4,332.6 L 722.2,332.6 L 727.0,332.6 L 731.8,332.6 L 736.5,332.6 L 741.3,332.6 L 746.1,332.6 L 750.9,332.6 L 755.7,332.6 L 760.4,332.6 L 765.2,332.6 L 770.0,332.6" fill="none" stroke="#FF6363" stroke-width="2.5" stroke-linejoin="round" clip-path="url(#ca)"/>
<text x="98.3" y="55.0" text-anchor="middle" font-size="9" fill="#34C759" opacity="0.85" clip-path="url(#ca)">+15.2% (+50)</text>
<text x="98.3" y="66.0" text-anchor="middle" font-size="9" fill="#4F8EF7" opacity="0.85" clip-path="url(#ca)">+2.8% (+11)</text>
<text x="98.3" y="77.0" text-anchor="middle" font-size="9" fill="#FF6363" opacity="0.85" clip-path="url(#ca)">+66.7% (+4)</text>
<text x="189.1" y="55.0" text-anchor="middle" font-size="9" fill="#34C759" opacity="0.85" clip-path="url(#ca)">+20.1% (+77)</text>
<text x="189.1" y="66.0" text-anchor="middle" font-size="9" fill="#4F8EF7" opacity="0.85" clip-path="url(#ca)">+16.8% (+69)</text>
<text x="189.1" y="77.0" text-anchor="middle" font-size="9" fill="#FF6363" opacity="0.85" clip-path="url(#ca)">+90.0% (+9)</text>
<text x="315.8" y="55.0" text-anchor="middle" font-size="9" fill="#34C759" opacity="0.85" clip-path="url(#ca)">+16.1% (+74)</text>
<text x="315.8" y="66.0" text-anchor="middle" font-size="9" fill="#4F8EF7" opacity="0.85" clip-path="url(#ca)">+17.3% (+83)</text>
<text x="315.8" y="77.0" text-anchor="middle" font-size="9" fill="#FF6363" opacity="0.85" clip-path="url(#ca)">+10.5% (+2)</text>
<text x="444.9" y="55.0" text-anchor="middle" font-size="9" fill="#34C759" opacity="0.85" clip-path="url(#ca)">+10.5% (+56)</text>
<text x="444.9" y="66.0" text-anchor="middle" font-size="9" fill="#4F8EF7" opacity="0.85" clip-path="url(#ca)">+14.4% (+81)</text>
<text x="444.9" y="77.0" text-anchor="middle" font-size="9" fill="#FF6363" opacity="0.85" clip-path="url(#ca)">+0.0% (+0)</text>
<text x="574.0" y="55.0" text-anchor="middle" font-size="9" fill="#34C759" opacity="0.85" clip-path="url(#ca)">+6.2% (+37)</text>
<text x="574.0" y="66.0" text-anchor="middle" font-size="9" fill="#4F8EF7" opacity="0.85" clip-path="url(#ca)">+6.1% (+46)</text>
<text x="574.0" y="77.0" text-anchor="middle" font-size="9" fill="#FF6363" opacity="0.85" clip-path="url(#ca)">+19.0% (+4)</text>
<text x="700.7" y="55.0" text-anchor="middle" font-size="9" fill="#34C759" opacity="0.85" clip-path="url(#ca)">+8.1% (+51)</text>
<text x="700.7" y="66.0" text-anchor="middle" font-size="9" fill="#4F8EF7" opacity="0.85" clip-path="url(#ca)">+8.1% (+65)</text>
<text x="700.7" y="77.0" text-anchor="middle" font-size="9" fill="#FF6363" opacity="0.85" clip-path="url(#ca)">+0.0% (+0)</text>
<text x="767.6" y="55.0" text-anchor="middle" font-size="9" fill="#34C759" opacity="0.85" clip-path="url(#ca)">+0.0% (+0)</text>
<text x="767.6" y="66.0" text-anchor="middle" font-size="9" fill="#4F8EF7" opacity="0.85" clip-path="url(#ca)">+0.3% (+3)</text>
<text x="767.6" y="77.0" text-anchor="middle" font-size="9" fill="#FF6363" opacity="0.85" clip-path="url(#ca)">+0.0% (+0)</text>
<rect x="211" y="369" width="12" height="12" fill="#34C759" rx="2"/>
<text x="227" y="379" font-size="12" fill="#111827">macOS + Windows</text>
<rect x="351" y="369" width="12" height="12" fill="#4F8EF7" rx="2"/>
<text x="367" y="379" font-size="12" fill="#111827">macOS only</text>
<rect x="491" y="369" width="12" height="12" fill="#FF6363" rx="2"/>
<text x="507" y="379" font-size="12" fill="#111827">Windows only</text>
<text x="72" y="394" font-size="8" fill="#e5e7eb">data since Dec 11, 2025</text>
</svg>