<svg xmlns="http://www.w3.org/2000/svg" width="800" height="400" viewBox="0 0 800 400">
<defs>
  <style>text { font-family: -apple-system, BlinkMacSystemFont, 'Segoe UI', Roboto, sans-serif; }</style>
  <linearGradient id="g2" x1="0" y1="0" x2="0" y2="1">
  <stop offset="0%" stop-color="#4F8EF7" stop-opacity="0.25"/>
  <stop offset="100%" stop-color="#4F8EF7" stop-opacity="0"/>
</linearGradient>
<linearGradient id="g3" x1="0" y1="0" x2="0" y2="1">
  <stop offset="0%" stop-color="#BF5AF2" stop-opacity="0.25"/>
  <stop offset="100%" stop-color="#BF5AF2" stop-opacity="0"/>
</linearGradient>
<linearGradient id="g4" x1="0" y1="0" x2="0" y2="1">
  <stop offset="0%" stop-color="#34C759" stop-opacity="0.25"/>
  <stop offset="100%" stop-color="#34C759" stop-opacity="0"/>
</linearGradient>
  <clipPath id="ca"><rect x="72" y="45" width="698" height="295"/></clipPath>
</defs>
<rect width="800" height="400" fill="#ffffff" rx="12"/>
<text x="400" y="26" text-anchor="middle" font-size="15" font-weight="600" fill="#111827">Community Growth Over Time</text>
<line x1="72" y1="340.0" x2="770" y2="340.0" stroke="#f3f4f6" stroke-width="1"/>
<text x="66" y="344.0" text-anchor="end" font-size="11" fill="#6b7280">500</text>
<line x1="72" y1="241.7" x2="770" y2="241.7" stroke="#f3f4f6" stroke-width="1"/>
<text x="66" y="245.7" text-anchor="end" font-size="11" fill="#6b7280">1.0k</text>
<line x1="72" y1="143.3" x2="770" y2="143.3" stroke="#f3f4f6" stroke-width="1"/>
<text x="66" y="147.3" text-anchor="end" font-size="11" fill="#6b7280">1.5k</text>
<line x1="72" y1="45.0" x2="770" y2="45.0" stroke="#f3f4f6" stroke-width="1"/>
<text x="66" y="49.0" text-anchor="end" font-size="11" fill="#6b7280">2.0k</text>
<line x1="166.1" y1="45" x2="166.1" y2="340" stroke="#e5e7eb" stroke-width="1" stroke-dasharray="3,3" clip-path="url(#ca)"/>
<line x1="370.0" y1="45" x2="370.0" y2="340" stroke="#e5e7eb" stroke-width="1" stroke-dasharray="3,3" clip-path="url(#ca)"/>
<line x1="581.8" y1="45" x2="581.8" y2="340" stroke="#e5e7eb" stroke-width="1" stroke-dasharray="3,3" clip-path="url(#ca)"/>
<text x="72.0" y="358.0" text-anchor="middle" font-size="11" fill="#6b7280">Dec 11</text>
<text x="213.2" y="358.0" text-anchor="middle" font-size="11" fill="#6b7280">Jan 9</text>
<text x="354.3" y="358.0" text-anchor="middle" font-size="11" fill="#6b7280">Jan 30</text>
<text x="487.7" y="358.0" text-anchor="middle" font-size="11" fill="#6b7280">Feb 16</text>
<text x="628.8" y="358.0" text-anchor="middle" font-size="11" fill="#6b7280">Mar 8</text>
<text x="770.0" y="358.0" text-anchor="middle" font-size="11" fill="#6b7280">Mar 27</text>
<line x1="72" y1="45" x2="72" y2="340" stroke="#e5e7eb" stroke-width="1"/>
<line x1="72" y1="340" x2="770" y2="340" stroke="#e5e7eb" stroke-width="1"/>
<text x="-192.5" y="18" text-anchor="middle" font-size="12" fill="#6b7280" transform="rotate(-90)">People</text>
<path d="M 72.0,340 L 72.0,120.1 L 79.8,120.1 L 87.7,120.1 L 95.5,119.5 L 103.4,119.5 L 111.2,119.1 L 119.1,118.9 L 126.9,119.1 L 134.7,118.6 L 142.6,118.6 L 150.4,118.6 L 158.3,118.6 L 166.1,118.6 L 174.0,118.6 L 181.8,118.6 L 189.6,118.6 L 197.5,118.4 L 205.3,117.8 L 213.2,116.6 L 221.0,116.0 L 228.9,115.8 L 236.7,115.8 L 244.5,115.2 L 252.4,113.8 L 260.2,113.0 L 268.1,113.0 L 275.9,112.1 L 283.8,111.7 L 291.6,110.9 L 299.4,110.3 L 307.3,109.7 L 315.1,109.1 L 323.0,109.1 L 330.8,107.7 L 338.7,106.9 L 346.5,106.9 L 354.3,106.2 L 362.2,105.8 L 370.0,105.6 L 377.9,105.4 L 385.7,105.4 L 393.6,104.8 L 401.4,102.4 L 409.2,101.0 L 417.1,100.3 L 424.9,100.1 L 432.8,99.7 L 440.6,98.9 L 448.4,98.5 L 456.3,98.1 L 464.1,97.7 L 472.0,97.3 L 479.8,96.9 L 487.7,96.9 L 495.5,95.0 L 503.3,95.0 L 511.2,94.8 L 519.0,94.6 L 526.9,94.2 L 534.7,94.2 L 542.6,93.2 L 550.4,92.0 L 558.2,91.6 L 566.1,92.0 L 573.9,91.8 L 581.8,91.6 L 589.6,91.6 L 597.5,91.2 L 605.3,90.4 L 613.1,90.0 L 621.0,89.6 L 628.8,89.4 L 636.7,89.4 L 644.5,88.7 L 652.4,88.3 L 660.2,88.3 L 668.0,86.7 L 675.9,86.7 L 683.7,86.7 L 691.6,86.7 L 699.4,86.5 L 707.3,85.9 L 715.1,85.1 L 722.9,84.7 L 730.8,84.7 L 738.6,84.3 L 746.5,82.8 L 754.3,81.8 L 762.2,81.6 L 770.0,81.4 L 770.0,340 Z" fill="url(#g2)" clip-path="url(#ca)"/>
<path d="M 72.0,120.1 L 79.8,120.1 L 87.7,120.1 L 95.5,119.5 L 103.4,119.5 L 111.2,119.1 L 119.1,118.9 L 126.9,119.1 L 134.7,118.6 L 142.6,118.6 L 150.4,118.6 L 158.3,118.6 L 166.1,118.6 L 174.0,118.6 L 181.8,118.6 L 189.6,118.6 L 197.5,118.4 L 205.3,117.8 L 213.2,116.6 L 221.0,116.0 L 228.9,115.8 L 236.7,115.8 L 244.5,115.2 L 252.4,113.8 L 260.2,113.0 L 268.1,113.0 L 275.9,112.1 L 283.8,111.7 L 291.6,110.9 L 299.4,110.3 L 307.3,109.7 L 315.1,109.1 L 323.0,109.1 L 330.8,107.7 L 338.7,106.9 L 346.5,106.9 L 354.3,106.2 L 362.2,105.8 L 370.0,105.6 L 377.9,105.4 L 385.7,105.4 L 393.6,104.8 L 401.4,102.4 L 409.2,101.0 L 417.1,100.3 L 424.9,100.1 L 432.8,99.7 L 440.6,98.9 L 448.4,98.5 L 456.3,98.1 L 464.1,97.7 L 472.0,97.3 L 479.8,96.9 L 487.7,96.9 L 495.5,95.0 L 503.3,95.0 L 511.2,94.8 L 519.0,94.6 L 526.9,94.2 L 534.7,94.2 L 542.6,93.2 L 550.4,92.0 L 558.2,91.6 L 566.1,92.0 L 573.9,91.8 L 581.8,91.6 L 589.6,91.6 L 597.5,91.2 L 605.3,90.4 L 613.1,90.0 L 621.0,89.6 L 628.8,89.4 L 636.7,89.4 L 644.5,88.7 L 652.4,88.3 L 660.2,88.3 L 668.0,86.7 L 675.9,86.7 L 683.7,86.7 L 691.6,86.7 L 699.4,86.5 L 707.3,85.9 L 715.1,85.1 L 722.9,84.7 L 730.8,84.7 L 738.6,84.3 L 746.5,82.8 L 754.3,81.8 L 762.2,81.6 L 770.0,81.4" fill="none" stroke="#4F8EF7" stroke-width="2.5" stroke-linejoin="round" clip-path="url(#ca)"/>
<path d="M 72.0,340 L 72.0,244.2 L 79.8,243.6 L 87.7,243.6 L 95.5,243.6 L 103.4,243.4 L 111.2,243.0 L 119.1,242.8 L 126.9,242.6 L 134.7,242.6 L 142.6,242.5 L 150.4,242.3 L 158.3,242.3 L 166.1,242.3 L 174.0,242.3 L 181.8,242.3 L 189.6,242.3 L 197.5,241.9 L 205.3,241.9 L 213.2,241.9 L 221.0,241.1 L 228.9,240.9 L 236.7,240.5 L 244.5,239.7 L 252.4,239.5 L 260.2,239.5 L 268.1,239.5 L 275.9,238.9 L 283.8,238.5 L 291.6,238.5 L 299.4,238.1 L 307.3,237.9 L 315.1,237.5 L 323.0,237.5 L 330.8,237.3 L 338.7,236.6 L 346.5,236.0 L 354.3,235.6 L 362.2,235.4 L 370.0,235.4 L 377.9,235.2 L 385.7,234.8 L 393.6,234.8 L 401.4,234.6 L 409.2,234.0 L 417.1,233.6 L 424.9,233.6 L 432.8,233.6 L 440.6,233.6 L 448.4,233.4 L 456.3,232.8 L 464.1,232.4 L 472.0,232.2 L 479.8,232.0 L 487.7,231.8 L 495.5,231.6 L 503.3,231.4 L 511.2,231.2 L 519.0,230.7 L 526.9,230.5 L 534.7,230.3 L 542.6,229.5 L 550.4,228.7 L 558.2,228.7 L 566.1,228.5 L 573.9,228.3 L 581.8,228.3 L 589.6,228.3 L 597.5,227.9 L 605.3,227.9 L 613.1,226.7 L 621.0,226.5 L 628.8,226.3 L 636.7,226.3 L 644.5,225.9 L 652.4,225.7 L 660.2,225.7 L 668.0,225.5 L 675.9,225.5 L 683.7,225.5 L 691.6,225.1 L 699.4,224.9 L 707.3,224.0 L 715.1,224.2 L 722.9,224.0 L 730.8,223.8 L 738.6,223.8 L 746.5,223.6 L 754.3,223.0 L 762.2,223.0 L 770.0,223.0 L 770.0,340 Z" fill="url(#g3)" clip-path="url(#ca)"/>
<path d="M 72.0,244.2 L 79.8,243.6 L 87.7,243.6 L 95.5,243.6 L 103.4,243.4 L 111.2,243.0 L 119.1,242.8 L 126.9,242.6 L 134.7,242.6 L 142.6,242.5 L 150.4,242.3 L 158.3,242.3 L 166.1,242.3 L 174.0,242.3 L 181.8,242.3 L 189.6,242.3 L 197.5,241.9 L 205.3,241.9 L 213.2,241.9 L 221.0,241.1 L 228.9,240.9 L 236.7,240.5 L 244.5,239.7 L 252.4,239.5 L 260.2,239.5 L 268.1,239.5 L 275.9,238.9 L 283.8,238.5 L 291.6,238.5 L 299.4,238.1 L 307.3,237.9 L 315.1,237.5 L 323.0,237.5 L 330.8,237.3 L 338.7,236.6 L 346.5,236.0 L 354.3,235.6 L 362.2,235.4 L 370.0,235.4 L 377.9,235.2 L 385.7,234.8 L 393.6,234.8 L 401.4,234.6 L 409.2,234.0 L 417.1,233.6 L 424.9,233.6 L 432.8,233.6 L 440.6,233.6 L 448.4,233.4 L 456.3,232.8 L 464.1,232.4 L 472.0,232.2 L 479.8,232.0 L 487.7,231.8 L 495.5,231.6 L 503.3,231.4 L 511.2,231.2 L 519.0,230.7 L 526.9,230.5 L 534.7,230.3 L 542.6,229.5 L 550.4,228.7 L 558.2,228.7 L 566.1,228.5 L 573.9,228.3 L 581.8,228.3 L 589.6,228.3 L 597.5,227.9 L 605.3,227.9 L 613.1,226.7 L 621.0,226.5 L 628.8,226.3 L 636.7,226.3 L 644.5,225.9 L 652.4,225.7 L 660.2,225.7 L 668.0,225.5 L 675.9,225.5 L 683.7,225.5 L 691.6,225.1 L 699.4,224.9 L 707.3,224.0 L 715.1,224.2 L 722.9,224.0 L 730.8,223.8 L 738.6,223.8 L 746.5,223.6 L 754.3,223.0 L 762.2,223.0 L 770.0,223.0" fill="none" stroke="#BF5AF2" stroke-width="2.5" stroke-linejoin="round" clip-path="url(#ca)"/>
<path d="M 72.0,340 L 72.0,291.4 L 79.8,290.8 L 87.7,290.8 L 95.5,290.8 L 103.4,290.6 L 111.2,290.2 L 119.1,290.0 L 126.9,289.7 L 134.7,289.7 L 142.6,289.5 L 150.4,289.3 L 158.3,289.3 L 166.1,289.3 L 174.0,289.3 L 181.8,289.3 L 189.6,289.3 L 197.5,288.9 L 205.3,288.9 L 213.2,289.1 L 221.0,288.5 L 228.9,288.7 L 236.7,288.1 L 244.5,287.5 L 252.4,287.3 L 260.2,287.5 L 268.1,287.5 L 275.9,286.9 L 283.8,286.7 L 291.6,286.7 L 299.4,286.3 L 307.3,286.1 L 315.1,285.7 L 323.0,285.7 L 330.8,285.5 L 338.7,284.9 L 346.5,284.3 L 354.3,283.9 L 362.2,283.9 L 370.0,283.9 L 377.9,283.8 L 385.7,283.4 L 393.6,283.4 L 401.4,283.2 L 409.2,282.6 L 417.1,282.4 L 424.9,282.4 L 432.8,282.4 L 440.6,282.4 L 448.4,282.2 L 456.3,281.6 L 464.1,281.4 L 472.0,281.2 L 479.8,281.0 L 487.7,281.0 L 495.5,280.8 L 503.3,280.8 L 511.2,280.8 L 519.0,280.2 L 526.9,280.2 L 534.7,280.2 L 542.6,279.8 L 550.4,279.2 L 558.2,279.2 L 566.1,279.0 L 573.9,278.8 L 581.8,278.8 L 589.6,278.8 L 597.5,278.4 L 605.3,278.4 L 613.1,277.3 L 621.0,277.1 L 628.8,276.9 L 636.7,276.9 L 644.5,276.7 L 652.4,276.7 L 660.2,276.7 L 668.0,276.7 L 675.9,276.7 L 683.7,276.7 L 691.6,276.3 L 699.4,276.1 L 707.3,275.1 L 715.1,275.3 L 722.9,275.3 L 730.8,275.1 L 738.6,275.1 L 746.5,275.1 L 754.3,274.7 L 762.2,274.7 L 770.0,274.7 L 770.0,340 Z" fill="url(#g4)" clip-path="url(#ca)"/>
<path d="M 72.0,291.4 L 79.8,290.8 L 87.7,290.8 L 95.5,290.8 L 103.4,290.6 L 111.2,290.2 L 119.1,290.0 L 126.9,289.7 L 134.7,289.7 L 142.6,289.5 L 150.4,289.3 L 158.3,289.3 L 166.1,289.3 L 174.0,289.3 L 181.8,289.3 L 189.6,289.3 L 197.5,288.9 L 205.3,288.9 L 213.2,289.1 L 221.0,288.5 L 228.9,288.7 L 236.7,288.1 L 244.5,287.5 L 252.4,287.3 L 260.2,287.5 L 268.1,287.5 L 275.9,286.9 L 283.8,286.7 L 291.6,286.7 L 299.4,286.3 L 307.3,286.1 L 315.1,285.7 L 323.0,285.7 L 330.8,285.5 L 338.7,284.9 L 346.5,284.3 L 354.3,283.9 L 362.2,283.9 L 370.0,283.9 L 377.9,283.8 L 385.7,283.4 L 393.6,283.4 L 401.4,283.2 L 409.2,282.6 L 417.1,282.4 L 424.9,282.4 L 432.8,282.4 L 440.6,282.4 L 448.4,282.2 L 456.3,281.6 L 464.1,281.4 L 472.0,281.2 L 479.8,281.0 L 487.7,281.0 L 495.5,280.8 L 503.3,280.8 L 511.2,280.8 L 519.0,280.2 L 526.9,280.2 L 534.7,280.2 L 542.6,279.8 L 550.4,279.2 L 558.2,279.2 L 566.1,279.0 L 573.9,278.8 L 581.8,278.8 L 589.6,278.8 L 597.5,278.4 L 605.3,278.4 L 613.1,277.3 L 621.0,277.1 L 628.8,276.9 L 636.7,276.9 L 644.5,276.7 L 652.4,276.7 L 660.2,276.7 L 668.0,276.7 L 675.9,276.7 L 683.7,276.7 L 691.6,276.3 L 699.4,276.1 L 707.3,275.1 L 715.1,275.3 L 722.9,275.3 L 730.8,275.1 L 738.6,275.1 L 746.5,275.1 L 754.3,274.7 L 762.2,274.7 L 770.0,274.7" fill="none" stroke="#34C759" stroke-width="2.5" stroke-linejoin="round" clip-path="url(#ca)"/>
<text x="115.1" y="55.0" text-anchor="middle" font-size="9" fill="#4F8EF7" opacity="0.85" clip-path="url(#ca)">+0.5% (+8)</text>
<text x="115.1" y="66.0" text-anchor="middle" font-size="9" fill="#BF5AF2" opacity="0.85" clip-path="url(#ca)">+1.0% (+10)</text>
<text x="115.1" y="77.0" text-anchor="middle" font-size="9" fill="#34C759" opacity="0.85" clip-path="url(#ca)">+1.5% (+11)</text>
<text x="264.1" y="55.0" text-anchor="middle" font-size="9" fill="#4F8EF7" opacity="0.85" clip-path="url(#ca)">+4.0% (+65)</text>
<text x="264.1" y="66.0" text-anchor="middle" font-size="9" fill="#BF5AF2" opacity="0.85" clip-path="url(#ca)">+3.5% (+35)</text>
<text x="264.1" y="77.0" text-anchor="middle" font-size="9" fill="#34C759" opacity="0.85" clip-path="url(#ca)">+3.6% (+27)</text>
<text x="472.0" y="55.0" text-anchor="middle" font-size="9" fill="#4F8EF7" opacity="0.85" clip-path="url(#ca)">+4.1% (+70)</text>
<text x="472.0" y="66.0" text-anchor="middle" font-size="9" fill="#BF5AF2" opacity="0.85" clip-path="url(#ca)">+3.5% (+36)</text>
<text x="472.0" y="77.0" text-anchor="middle" font-size="9" fill="#34C759" opacity="0.85" clip-path="url(#ca)">+3.3% (+26)</text>
<text x="675.9" y="55.0" text-anchor="middle" font-size="9" fill="#4F8EF7" opacity="0.85" clip-path="url(#ca)">+2.9% (+52)</text>
<text x="675.9" y="66.0" text-anchor="middle" font-size="9" fill="#BF5AF2" opacity="0.85" clip-path="url(#ca)">+2.5% (+27)</text>
<text x="675.9" y="77.0" text-anchor="middle" font-size="9" fill="#34C759" opacity="0.85" clip-path="url(#ca)">+2.6% (+21)</text>
<rect x="211" y="369" width="12" height="12" fill="#4F8EF7" rx="2"/>
<text x="227" y="379" font-size="12" fill="#111827">Authors</text>
<rect x="351" y="369" width="12" height="12" fill="#BF5AF2" rx="2"/>
<text x="367" y="379" font-size="12" fill="#111827">Contributors</text>
<rect x="491" y="369" width="12" height="12" fill="#34C759" rx="2"/>
<text x="507" y="379" font-size="12" fill="#111827">Non-author contributors</text>
<text x="72" y="394" font-size="8" fill="#e5e7eb">data since Dec 11, 2025</text>
</svg>