<svg xmlns="http://www.w3.org/2000/svg" width="800" height="420" viewBox="0 0 800 420">
<defs><style>text { font-family: -apple-system, BlinkMacSystemFont, 'Segoe UI', Roboto, sans-serif; }</style></defs>
<rect width="800" height="420" fill="#ffffff" rx="12"/>
<text x="400" y="26" text-anchor="middle" font-size="15" font-weight="600" fill="#111827">Top @raycast/api Versions</text>
<line x1="120" y1="45" x2="120" y2="375" stroke="#e5e7eb" stroke-width="1"/>
<line x1="120" y1="375" x2="740" y2="375" stroke="#e5e7eb" stroke-width="1"/>
<line x1="120.0" y1="45" x2="120.0" y2="375" stroke="#f3f4f6" stroke-width="1"/>
<text x="120.0" y="391.0" text-anchor="middle" font-size="11" fill="#6b7280">0</text>
<line x1="276.1" y1="45" x2="276.1" y2="375" stroke="#f3f4f6" stroke-width="1"/>
<text x="276.1" y="391.0" text-anchor="middle" font-size="11" fill="#6b7280">69</text>
<line x1="430.0" y1="45" x2="430.0" y2="375" stroke="#f3f4f6" stroke-width="1"/>
<text x="430.0" y="391.0" text-anchor="middle" font-size="11" fill="#6b7280">137</text>
<line x1="586.1" y1="45" x2="586.1" y2="375" stroke="#f3f4f6" stroke-width="1"/>
<text x="586.1" y="391.0" text-anchor="middle" font-size="11" fill="#6b7280">206</text>
<line x1="740.0" y1="45" x2="740.0" y2="375" stroke="#f3f4f6" stroke-width="1"/>
<text x="740.0" y="391.0" text-anchor="middle" font-size="11" fill="#6b7280">274</text>
<rect x="120" y="50.8" width="620.0" height="16" fill="#FF6363" rx="3" opacity="0.85"/>
<text x="114" y="62.8" text-anchor="end" font-size="11" fill="#111827">1.93.2</text>
<text x="745.0" y="62.8" font-size="11" fill="#6b7280">274</text>
<rect x="120" y="78.3" width="391.5" height="16" fill="#FF6363" rx="3" opacity="0.85"/>
<text x="114" y="90.3" text-anchor="end" font-size="11" fill="#111827">1.104.1</text>
<text x="516.5" y="90.3" font-size="11" fill="#6b7280">173</text>
<rect x="120" y="105.8" width="205.9" height="16" fill="#FF6363" rx="3" opacity="0.85"/>
<text x="114" y="117.8" text-anchor="end" font-size="11" fill="#111827">1.103.10</text>
<text x="330.9" y="117.8" font-size="11" fill="#6b7280">91</text>
<rect x="120" y="133.3" width="194.6" height="16" fill="#FF6363" rx="3" opacity="0.85"/>
<text x="114" y="145.3" text-anchor="end" font-size="11" fill="#111827">1.104.6</text>
<text x="319.6" y="145.3" font-size="11" fill="#6b7280">86</text>
<rect x="120" y="160.8" width="176.5" height="16" fill="#FF6363" rx="3" opacity="0.85"/>
<text x="114" y="172.8" text-anchor="end" font-size="11" fill="#111827">1.104.11</text>
<text x="301.5" y="172.8" font-size="11" fill="#6b7280">78</text>
<rect x="120" y="188.3" width="160.7" height="16" fill="#FF6363" rx="3" opacity="0.85"/>
<text x="114" y="200.3" text-anchor="end" font-size="11" fill="#111827">1.104.15</text>
<text x="285.7" y="200.3" font-size="11" fill="#6b7280">71</text>
<rect x="120" y="215.8" width="140.3" height="16" fill="#FF6363" rx="3" opacity="0.85"/>
<text x="114" y="227.8" text-anchor="end" font-size="11" fill="#111827">1.100.3</text>
<text x="265.3" y="227.8" font-size="11" fill="#6b7280">62</text>
<rect x="120" y="243.3" width="129.0" height="16" fill="#FF6363" rx="3" opacity="0.85"/>
<text x="114" y="255.3" text-anchor="end" font-size="11" fill="#111827">1.103.3</text>
<text x="254.0" y="255.3" font-size="11" fill="#6b7280">57</text>
<rect x="120" y="270.8" width="122.2" height="16" fill="#FF6363" rx="3" opacity="0.85"/>
<text x="114" y="282.8" text-anchor="end" font-size="11" fill="#111827">1.104.3</text>
<text x="247.2" y="282.8" font-size="11" fill="#6b7280">54</text>
<rect x="120" y="298.3" width="110.9" height="16" fill="#FF6363" rx="3" opacity="0.85"/>
<text x="114" y="310.3" text-anchor="end" font-size="11" fill="#111827">1.103.6</text>
<text x="235.9" y="310.3" font-size="11" fill="#6b7280">49</text>
<rect x="120" y="325.8" width="92.8" height="16" fill="#FF6363" rx="3" opacity="0.85"/>
<text x="114" y="337.8" text-anchor="end" font-size="11" fill="#111827">1.103.5</text>
<text x="217.8" y="337.8" font-size="11" fill="#6b7280">41</text>
<rect x="120" y="353.3" width="88.2" height="16" fill="#FF6363" rx="3" opacity="0.85"/>
<text x="114" y="365.3" text-anchor="end" font-size="11" fill="#111827">1.104.12</text>
<text x="213.2" y="365.3" font-size="11" fill="#6b7280">39</text>
<text x="400" y="410" text-anchor="middle" font-size="12" fill="#6b7280">Number of extensions</text>
</svg>