<svg xmlns="http://www.w3.org/2000/svg" width="800" height="400" viewBox="0 0 800 400">
<defs>
  <style>text { font-family: -apple-system, BlinkMacSystemFont, 'Segoe UI', Roboto, sans-serif; }</style>
  <linearGradient id="g2" x1="0" y1="0" x2="0" y2="1">
  <stop offset="0%" stop-color="#4F8EF7" stop-opacity="0.25"/>
  <stop offset="100%" stop-color="#4F8EF7" stop-opacity="0"/>
</linearGradient>
<linearGradient id="g3" x1="0" y1="0" x2="0" y2="1">
  <stop offset="0%" stop-color="#BF5AF2" stop-opacity="0.25"/>
  <stop offset="100%" stop-color="#BF5AF2" stop-opacity="0"/>
</linearGradient>
<linearGradient id="g4" x1="0" y1="0" x2="0" y2="1">
  <stop offset="0%" stop-color="#34C759" stop-opacity="0.25"/>
  <stop offset="100%" stop-color="#34C759" stop-opacity="0"/>
</linearGradient>
  <clipPath id="ca"><rect x="72" y="45" width="698" height="295"/></clipPath>
</defs>
<rect width="800" height="400" fill="#ffffff" rx="12"/>
<text x="400" y="26" text-anchor="middle" font-size="15" font-weight="600" fill="#111827">Community Growth Over Time</text>
<line x1="72" y1="340.0" x2="770" y2="340.0" stroke="#f3f4f6" stroke-width="1"/>
<text x="66" y="344.0" text-anchor="end" font-size="11" fill="#6b7280">500</text>
<line x1="72" y1="241.7" x2="770" y2="241.7" stroke="#f3f4f6" stroke-width="1"/>
<text x="66" y="245.7" text-anchor="end" font-size="11" fill="#6b7280">1.0k</text>
<line x1="72" y1="143.3" x2="770" y2="143.3" stroke="#f3f4f6" stroke-width="1"/>
<text x="66" y="147.3" text-anchor="end" font-size="11" fill="#6b7280">1.5k</text>
<line x1="72" y1="45.0" x2="770" y2="45.0" stroke="#f3f4f6" stroke-width="1"/>
<text x="66" y="49.0" text-anchor="end" font-size="11" fill="#6b7280">2.0k</text>
<line x1="125.7" y1="45" x2="125.7" y2="340" stroke="#e5e7eb" stroke-width="1" stroke-dasharray="3,3" clip-path="url(#ca)"/>
<line x1="242.0" y1="45" x2="242.0" y2="340" stroke="#e5e7eb" stroke-width="1" stroke-dasharray="3,3" clip-path="url(#ca)"/>
<line x1="362.8" y1="45" x2="362.8" y2="340" stroke="#e5e7eb" stroke-width="1" stroke-dasharray="3,3" clip-path="url(#ca)"/>
<line x1="483.6" y1="45" x2="483.6" y2="340" stroke="#e5e7eb" stroke-width="1" stroke-dasharray="3,3" clip-path="url(#ca)"/>
<line x1="604.4" y1="45" x2="604.4" y2="340" stroke="#e5e7eb" stroke-width="1" stroke-dasharray="3,3" clip-path="url(#ca)"/>
<line x1="720.8" y1="45" x2="720.8" y2="340" stroke="#e5e7eb" stroke-width="1" stroke-dasharray="3,3" clip-path="url(#ca)"/>
<text x="72.0" y="358.0" text-anchor="middle" font-size="11" fill="#6b7280">Dec 11</text>
<text x="210.7" y="358.0" text-anchor="middle" font-size="11" fill="#6b7280">Jan 25</text>
<text x="349.4" y="358.0" text-anchor="middle" font-size="11" fill="#6b7280">Feb 26</text>
<text x="492.6" y="358.0" text-anchor="middle" font-size="11" fill="#6b7280">Apr 3</text>
<text x="631.3" y="358.0" text-anchor="middle" font-size="11" fill="#6b7280">May 10</text>
<text x="770.0" y="358.0" text-anchor="middle" font-size="11" fill="#6b7280">Jun 16</text>
<line x1="72" y1="45" x2="72" y2="340" stroke="#e5e7eb" stroke-width="1"/>
<line x1="72" y1="340" x2="770" y2="340" stroke="#e5e7eb" stroke-width="1"/>
<text x="-192.5" y="18" text-anchor="middle" font-size="12" fill="#6b7280" transform="rotate(-90)">People</text>
<path d="M 72.0,340 L 72.0,120.1 L 76.5,120.1 L 80.9,120.1 L 85.4,119.5 L 89.9,119.5 L 94.4,119.1 L 98.8,118.9 L 103.3,119.1 L 107.8,118.6 L 112.3,118.6 L 116.7,118.6 L 121.2,118.6 L 125.7,118.6 L 130.2,118.6 L 134.6,118.6 L 139.1,118.6 L 143.6,118.4 L 148.1,117.8 L 152.5,116.6 L 157.0,116.0 L 161.5,115.8 L 166.0,115.8 L 170.4,115.2 L 174.9,113.8 L 179.4,113.0 L 183.9,113.0 L 188.3,112.1 L 192.8,111.7 L 197.3,110.9 L 201.8,110.3 L 206.2,109.7 L 210.7,109.1 L 215.2,109.1 L 219.7,107.7 L 224.1,106.9 L 228.6,106.9 L 233.1,106.2 L 237.6,105.8 L 242.0,105.6 L 246.5,105.4 L 251.0,105.4 L 255.4,104.8 L 259.9,102.4 L 264.4,101.0 L 268.9,100.3 L 273.3,100.1 L 277.8,99.7 L 282.3,98.9 L 286.8,98.5 L 291.2,98.1 L 295.7,97.7 L 300.2,97.3 L 304.7,96.9 L 309.1,96.9 L 313.6,95.0 L 318.1,95.0 L 322.6,94.8 L 327.0,94.6 L 331.5,94.2 L 336.0,94.2 L 340.5,93.2 L 344.9,92.0 L 349.4,91.6 L 353.9,92.0 L 358.4,91.8 L 362.8,91.6 L 367.3,91.6 L 371.8,91.2 L 376.3,90.4 L 380.7,90.0 L 385.2,89.6 L 389.7,89.4 L 394.2,89.4 L 398.6,88.7 L 403.1,88.3 L 407.6,88.3 L 412.1,86.7 L 416.5,86.7 L 421.0,86.7 L 425.5,86.7 L 429.9,86.5 L 434.4,85.9 L 438.9,85.1 L 443.4,84.7 L 447.8,84.7 L 452.3,84.3 L 456.8,82.8 L 461.3,81.8 L 465.7,81.6 L 470.2,81.4 L 474.7,80.8 L 479.2,79.6 L 483.6,79.2 L 488.1,78.8 L 492.6,77.6 L 497.1,77.4 L 501.5,77.4 L 506.0,77.4 L 510.5,77.3 L 515.0,76.1 L 519.4,75.9 L 523.9,75.7 L 528.4,75.7 L 532.9,75.3 L 537.3,73.7 L 541.8,73.5 L 546.3,73.3 L 550.8,73.3 L 555.2,72.5 L 559.7,72.3 L 564.2,72.1 L 568.7,71.6 L 573.1,70.8 L 577.6,70.8 L 582.1,70.8 L 586.6,70.8 L 591.0,70.4 L 595.5,69.8 L 600.0,69.6 L 604.4,69.0 L 608.9,68.8 L 613.4,68.6 L 617.9,67.8 L 622.3,67.2 L 626.8,67.0 L 631.3,67.0 L 635.8,65.3 L 640.2,64.7 L 644.7,64.5 L 649.2,64.5 L 653.7,63.5 L 658.1,63.5 L 662.6,62.9 L 667.1,62.3 L 671.6,60.9 L 676.0,60.7 L 680.5,60.5 L 685.0,60.3 L 689.5,60.3 L 693.9,60.1 L 698.4,59.2 L 702.9,58.6 L 707.4,58.6 L 711.8,58.4 L 716.3,58.4 L 720.8,57.8 L 725.3,57.6 L 729.7,57.4 L 734.2,56.8 L 738.7,56.0 L 743.2,56.0 L 747.6,55.8 L 752.1,55.6 L 756.6,54.6 L 761.1,53.3 L 765.5,53.1 L 770.0,52.7 L 770.0,340 Z" fill="url(#g2)" clip-path="url(#ca)"/>
<path d="M 72.0,120.1 L 76.5,120.1 L 80.9,120.1 L 85.4,119.5 L 89.9,119.5 L 94.4,119.1 L 98.8,118.9 L 103.3,119.1 L 107.8,118.6 L 112.3,118.6 L 116.7,118.6 L 121.2,118.6 L 125.7,118.6 L 130.2,118.6 L 134.6,118.6 L 139.1,118.6 L 143.6,118.4 L 148.1,117.8 L 152.5,116.6 L 157.0,116.0 L 161.5,115.8 L 166.0,115.8 L 170.4,115.2 L 174.9,113.8 L 179.4,113.0 L 183.9,113.0 L 188.3,112.1 L 192.8,111.7 L 197.3,110.9 L 201.8,110.3 L 206.2,109.7 L 210.7,109.1 L 215.2,109.1 L 219.7,107.7 L 224.1,106.9 L 228.6,106.9 L 233.1,106.2 L 237.6,105.8 L 242.0,105.6 L 246.5,105.4 L 251.0,105.4 L 255.4,104.8 L 259.9,102.4 L 264.4,101.0 L 268.9,100.3 L 273.3,100.1 L 277.8,99.7 L 282.3,98.9 L 286.8,98.5 L 291.2,98.1 L 295.7,97.7 L 300.2,97.3 L 304.7,96.9 L 309.1,96.9 L 313.6,95.0 L 318.1,95.0 L 322.6,94.8 L 327.0,94.6 L 331.5,94.2 L 336.0,94.2 L 340.5,93.2 L 344.9,92.0 L 349.4,91.6 L 353.9,92.0 L 358.4,91.8 L 362.8,91.6 L 367.3,91.6 L 371.8,91.2 L 376.3,90.4 L 380.7,90.0 L 385.2,89.6 L 389.7,89.4 L 394.2,89.4 L 398.6,88.7 L 403.1,88.3 L 407.6,88.3 L 412.1,86.7 L 416.5,86.7 L 421.0,86.7 L 425.5,86.7 L 429.9,86.5 L 434.4,85.9 L 438.9,85.1 L 443.4,84.7 L 447.8,84.7 L 452.3,84.3 L 456.8,82.8 L 461.3,81.8 L 465.7,81.6 L 470.2,81.4 L 474.7,80.8 L 479.2,79.6 L 483.6,79.2 L 488.1,78.8 L 492.6,77.6 L 497.1,77.4 L 501.5,77.4 L 506.0,77.4 L 510.5,77.3 L 515.0,76.1 L 519.4,75.9 L 523.9,75.7 L 528.4,75.7 L 532.9,75.3 L 537.3,73.7 L 541.8,73.5 L 546.3,73.3 L 550.8,73.3 L 555.2,72.5 L 559.7,72.3 L 564.2,72.1 L 568.7,71.6 L 573.1,70.8 L 577.6,70.8 L 582.1,70.8 L 586.6,70.8 L 591.0,70.4 L 595.5,69.8 L 600.0,69.6 L 604.4,69.0 L 608.9,68.8 L 613.4,68.6 L 617.9,67.8 L 622.3,67.2 L 626.8,67.0 L 631.3,67.0 L 635.8,65.3 L 640.2,64.7 L 644.7,64.5 L 649.2,64.5 L 653.7,63.5 L 658.1,63.5 L 662.6,62.9 L 667.1,62.3 L 671.6,60.9 L 676.0,60.7 L 680.5,60.5 L 685.0,60.3 L 689.5,60.3 L 693.9,60.1 L 698.4,59.2 L 702.9,58.6 L 707.4,58.6 L 711.8,58.4 L 716.3,58.4 L 720.8,57.8 L 725.3,57.6 L 729.7,57.4 L 734.2,56.8 L 738.7,56.0 L 743.2,56.0 L 747.6,55.8 L 752.1,55.6 L 756.6,54.6 L 761.1,53.3 L 765.5,53.1 L 770.0,52.7" fill="none" stroke="#4F8EF7" stroke-width="2.5" stroke-linejoin="round" clip-path="url(#ca)"/>
<path d="M 72.0,340 L 72.0,244.2 L 76.5,243.6 L 80.9,243.6 L 85.4,243.6 L 89.9,243.4 L 94.4,243.0 L 98.8,242.8 L 103.3,242.6 L 107.8,242.6 L 112.3,242.5 L 116.7,242.3 L 121.2,242.3 L 125.7,242.3 L 130.2,242.3 L 134.6,242.3 L 139.1,242.3 L 143.6,241.9 L 148.1,241.9 L 152.5,241.9 L 157.0,241.1 L 161.5,240.9 L 166.0,240.5 L 170.4,239.7 L 174.9,239.5 L 179.4,239.5 L 183.9,239.5 L 188.3,238.9 L 192.8,238.5 L 197.3,238.5 L 201.8,238.1 L 206.2,237.9 L 210.7,237.5 L 215.2,237.5 L 219.7,237.3 L 224.1,236.6 L 228.6,236.0 L 233.1,235.6 L 237.6,235.4 L 242.0,235.4 L 246.5,235.2 L 251.0,234.8 L 255.4,234.8 L 259.9,234.6 L 264.4,234.0 L 268.9,233.6 L 273.3,233.6 L 277.8,233.6 L 282.3,233.6 L 286.8,233.4 L 291.2,232.8 L 295.7,232.4 L 300.2,232.2 L 304.7,232.0 L 309.1,231.8 L 313.6,231.6 L 318.1,231.4 L 322.6,231.2 L 327.0,230.7 L 331.5,230.5 L 336.0,230.3 L 340.5,229.5 L 344.9,228.7 L 349.4,228.7 L 353.9,228.5 L 358.4,228.3 L 362.8,228.3 L 367.3,228.3 L 371.8,227.9 L 376.3,227.9 L 380.7,226.7 L 385.2,226.5 L 389.7,226.3 L 394.2,226.3 L 398.6,225.9 L 403.1,225.7 L 407.6,225.7 L 412.1,225.5 L 416.5,225.5 L 421.0,225.5 L 425.5,225.1 L 429.9,224.9 L 434.4,224.0 L 438.9,224.2 L 443.4,224.0 L 447.8,223.8 L 452.3,223.8 L 456.8,223.6 L 461.3,223.0 L 465.7,223.0 L 470.2,223.0 L 474.7,223.0 L 479.2,222.6 L 483.6,222.6 L 488.1,222.2 L 492.6,221.8 L 497.1,221.0 L 501.5,221.0 L 506.0,220.6 L 510.5,220.4 L 515.0,220.2 L 519.4,220.0 L 523.9,219.6 L 528.4,219.6 L 532.9,219.1 L 537.3,219.1 L 541.8,218.9 L 546.3,218.5 L 550.8,218.3 L 555.2,218.3 L 559.7,218.3 L 564.2,218.3 L 568.7,218.3 L 573.1,217.7 L 577.6,217.7 L 582.1,217.3 L 586.6,216.9 L 591.0,216.3 L 595.5,216.1 L 600.0,216.1 L 604.4,214.9 L 608.9,214.7 L 613.4,214.7 L 617.9,213.9 L 622.3,213.9 L 626.8,213.5 L 631.3,213.5 L 635.8,213.3 L 640.2,213.3 L 644.7,213.2 L 649.2,212.8 L 653.7,212.8 L 658.1,212.6 L 662.6,212.4 L 667.1,212.2 L 671.6,212.0 L 676.0,212.0 L 680.5,211.6 L 685.0,211.6 L 689.5,211.6 L 693.9,210.6 L 698.4,210.6 L 702.9,210.6 L 707.4,210.6 L 711.8,210.6 L 716.3,210.6 L 720.8,210.2 L 725.3,210.2 L 729.7,209.8 L 734.2,209.0 L 738.7,208.6 L 743.2,208.4 L 747.6,208.4 L 752.1,208.2 L 756.6,207.6 L 761.1,207.4 L 765.5,207.4 L 770.0,207.1 L 770.0,340 Z" fill="url(#g3)" clip-path="url(#ca)"/>
<path d="M 72.0,244.2 L 76.5,243.6 L 80.9,243.6 L 85.4,243.6 L 89.9,243.4 L 94.4,243.0 L 98.8,242.8 L 103.3,242.6 L 107.8,242.6 L 112.3,242.5 L 116.7,242.3 L 121.2,242.3 L 125.7,242.3 L 130.2,242.3 L 134.6,242.3 L 139.1,242.3 L 143.6,241.9 L 148.1,241.9 L 152.5,241.9 L 157.0,241.1 L 161.5,240.9 L 166.0,240.5 L 170.4,239.7 L 174.9,239.5 L 179.4,239.5 L 183.9,239.5 L 188.3,238.9 L 192.8,238.5 L 197.3,238.5 L 201.8,238.1 L 206.2,237.9 L 210.7,237.5 L 215.2,237.5 L 219.7,237.3 L 224.1,236.6 L 228.6,236.0 L 233.1,235.6 L 237.6,235.4 L 242.0,235.4 L 246.5,235.2 L 251.0,234.8 L 255.4,234.8 L 259.9,234.6 L 264.4,234.0 L 268.9,233.6 L 273.3,233.6 L 277.8,233.6 L 282.3,233.6 L 286.8,233.4 L 291.2,232.8 L 295.7,232.4 L 300.2,232.2 L 304.7,232.0 L 309.1,231.8 L 313.6,231.6 L 318.1,231.4 L 322.6,231.2 L 327.0,230.7 L 331.5,230.5 L 336.0,230.3 L 340.5,229.5 L 344.9,228.7 L 349.4,228.7 L 353.9,228.5 L 358.4,228.3 L 362.8,228.3 L 367.3,228.3 L 371.8,227.9 L 376.3,227.9 L 380.7,226.7 L 385.2,226.5 L 389.7,226.3 L 394.2,226.3 L 398.6,225.9 L 403.1,225.7 L 407.6,225.7 L 412.1,225.5 L 416.5,225.5 L 421.0,225.5 L 425.5,225.1 L 429.9,224.9 L 434.4,224.0 L 438.9,224.2 L 443.4,224.0 L 447.8,223.8 L 452.3,223.8 L 456.8,223.6 L 461.3,223.0 L 465.7,223.0 L 470.2,223.0 L 474.7,223.0 L 479.2,222.6 L 483.6,222.6 L 488.1,222.2 L 492.6,221.8 L 497.1,221.0 L 501.5,221.0 L 506.0,220.6 L 510.5,220.4 L 515.0,220.2 L 519.4,220.0 L 523.9,219.6 L 528.4,219.6 L 532.9,219.1 L 537.3,219.1 L 541.8,218.9 L 546.3,218.5 L 550.8,218.3 L 555.2,218.3 L 559.7,218.3 L 564.2,218.3 L 568.7,218.3 L 573.1,217.7 L 577.6,217.7 L 582.1,217.3 L 586.6,216.9 L 591.0,216.3 L 595.5,216.1 L 600.0,216.1 L 604.4,214.9 L 608.9,214.7 L 613.4,214.7 L 617.9,213.9 L 622.3,213.9 L 626.8,213.5 L 631.3,213.5 L 635.8,213.3 L 640.2,213.3 L 644.7,213.2 L 649.2,212.8 L 653.7,212.8 L 658.1,212.6 L 662.6,212.4 L 667.1,212.2 L 671.6,212.0 L 676.0,212.0 L 680.5,211.6 L 685.0,211.6 L 689.5,211.6 L 693.9,210.6 L 698.4,210.6 L 702.9,210.6 L 707.4,210.6 L 711.8,210.6 L 716.3,210.6 L 720.8,210.2 L 725.3,210.2 L 729.7,209.8 L 734.2,209.0 L 738.7,208.6 L 743.2,208.4 L 747.6,208.4 L 752.1,208.2 L 756.6,207.6 L 761.1,207.4 L 765.5,207.4 L 770.0,207.1" fill="none" stroke="#BF5AF2" stroke-width="2.5" stroke-linejoin="round" clip-path="url(#ca)"/>
<path d="M 72.0,340 L 72.0,291.4 L 76.5,290.8 L 80.9,290.8 L 85.4,290.8 L 89.9,290.6 L 94.4,290.2 L 98.8,290.0 L 103.3,289.7 L 107.8,289.7 L 112.3,289.5 L 116.7,289.3 L 121.2,289.3 L 125.7,289.3 L 130.2,289.3 L 134.6,289.3 L 139.1,289.3 L 143.6,288.9 L 148.1,288.9 L 152.5,289.1 L 157.0,288.5 L 161.5,288.7 L 166.0,288.1 L 170.4,287.5 L 174.9,287.3 L 179.4,287.5 L 183.9,287.5 L 188.3,286.9 L 192.8,286.7 L 197.3,286.7 L 201.8,286.3 L 206.2,286.1 L 210.7,285.7 L 215.2,285.7 L 219.7,285.5 L 224.1,284.9 L 228.6,284.3 L 233.1,283.9 L 237.6,283.9 L 242.0,283.9 L 246.5,283.8 L 251.0,283.4 L 255.4,283.4 L 259.9,283.2 L 264.4,282.6 L 268.9,282.4 L 273.3,282.4 L 277.8,282.4 L 282.3,282.4 L 286.8,282.2 L 291.2,281.6 L 295.7,281.4 L 300.2,281.2 L 304.7,281.0 L 309.1,281.0 L 313.6,280.8 L 318.1,280.8 L 322.6,280.8 L 327.0,280.2 L 331.5,280.2 L 336.0,280.2 L 340.5,279.8 L 344.9,279.2 L 349.4,279.2 L 353.9,279.0 L 358.4,278.8 L 362.8,278.8 L 367.3,278.8 L 371.8,278.4 L 376.3,278.4 L 380.7,277.3 L 385.2,277.1 L 389.7,276.9 L 394.2,276.9 L 398.6,276.7 L 403.1,276.7 L 407.6,276.7 L 412.1,276.7 L 416.5,276.7 L 421.0,276.7 L 425.5,276.3 L 429.9,276.1 L 434.4,275.1 L 438.9,275.3 L 443.4,275.3 L 447.8,275.1 L 452.3,275.1 L 456.8,275.1 L 461.3,274.7 L 465.7,274.7 L 470.2,274.7 L 474.7,274.7 L 479.2,274.7 L 483.6,274.7 L 488.1,274.5 L 492.6,274.5 L 497.1,273.7 L 501.5,273.7 L 506.0,273.5 L 510.5,273.3 L 515.0,273.1 L 519.4,272.9 L 523.9,272.5 L 528.4,272.5 L 532.9,272.0 L 537.3,272.0 L 541.8,271.8 L 546.3,271.6 L 550.8,271.6 L 555.2,271.6 L 559.7,271.6 L 564.2,271.6 L 568.7,271.6 L 573.1,271.0 L 577.6,271.0 L 582.1,270.6 L 586.6,270.2 L 591.0,269.6 L 595.5,269.4 L 600.0,269.4 L 604.4,268.4 L 608.9,268.2 L 613.4,268.2 L 617.9,267.6 L 622.3,267.6 L 626.8,267.4 L 631.3,267.4 L 635.8,267.6 L 640.2,267.8 L 644.7,267.6 L 649.2,267.2 L 653.7,267.4 L 658.1,267.2 L 662.6,267.0 L 667.1,267.0 L 671.6,267.0 L 676.0,267.0 L 680.5,266.6 L 685.0,266.6 L 689.5,266.6 L 693.9,265.9 L 698.4,265.9 L 702.9,265.9 L 707.4,265.9 L 711.8,265.9 L 716.3,265.9 L 720.8,265.5 L 725.3,265.5 L 729.7,265.1 L 734.2,264.3 L 738.7,264.1 L 743.2,264.1 L 747.6,264.1 L 752.1,264.1 L 756.6,263.7 L 761.1,263.5 L 765.5,263.5 L 770.0,263.3 L 770.0,340 Z" fill="url(#g4)" clip-path="url(#ca)"/>
<path d="M 72.0,291.4 L 76.5,290.8 L 80.9,290.8 L 85.4,290.8 L 89.9,290.6 L 94.4,290.2 L 98.8,290.0 L 103.3,289.7 L 107.8,289.7 L 112.3,289.5 L 116.7,289.3 L 121.2,289.3 L 125.7,289.3 L 130.2,289.3 L 134.6,289.3 L 139.1,289.3 L 143.6,288.9 L 148.1,288.9 L 152.5,289.1 L 157.0,288.5 L 161.5,288.7 L 166.0,288.1 L 170.4,287.5 L 174.9,287.3 L 179.4,287.5 L 183.9,287.5 L 188.3,286.9 L 192.8,286.7 L 197.3,286.7 L 201.8,286.3 L 206.2,286.1 L 210.7,285.7 L 215.2,285.7 L 219.7,285.5 L 224.1,284.9 L 228.6,284.3 L 233.1,283.9 L 237.6,283.9 L 242.0,283.9 L 246.5,283.8 L 251.0,283.4 L 255.4,283.4 L 259.9,283.2 L 264.4,282.6 L 268.9,282.4 L 273.3,282.4 L 277.8,282.4 L 282.3,282.4 L 286.8,282.2 L 291.2,281.6 L 295.7,281.4 L 300.2,281.2 L 304.7,281.0 L 309.1,281.0 L 313.6,280.8 L 318.1,280.8 L 322.6,280.8 L 327.0,280.2 L 331.5,280.2 L 336.0,280.2 L 340.5,279.8 L 344.9,279.2 L 349.4,279.2 L 353.9,279.0 L 358.4,278.8 L 362.8,278.8 L 367.3,278.8 L 371.8,278.4 L 376.3,278.4 L 380.7,277.3 L 385.2,277.1 L 389.7,276.9 L 394.2,276.9 L 398.6,276.7 L 403.1,276.7 L 407.6,276.7 L 412.1,276.7 L 416.5,276.7 L 421.0,276.7 L 425.5,276.3 L 429.9,276.1 L 434.4,275.1 L 438.9,275.3 L 443.4,275.3 L 447.8,275.1 L 452.3,275.1 L 456.8,275.1 L 461.3,274.7 L 465.7,274.7 L 470.2,274.7 L 474.7,274.7 L 479.2,274.7 L 483.6,274.7 L 488.1,274.5 L 492.6,274.5 L 497.1,273.7 L 501.5,273.7 L 506.0,273.5 L 510.5,273.3 L 515.0,273.1 L 519.4,272.9 L 523.9,272.5 L 528.4,272.5 L 532.9,272.0 L 537.3,272.0 L 541.8,271.8 L 546.3,271.6 L 550.8,271.6 L 555.2,271.6 L 559.7,271.6 L 564.2,271.6 L 568.7,271.6 L 573.1,271.0 L 577.6,271.0 L 582.1,270.6 L 586.6,270.2 L 591.0,269.6 L 595.5,269.4 L 600.0,269.4 L 604.4,268.4 L 608.9,268.2 L 613.4,268.2 L 617.9,267.6 L 622.3,267.6 L 626.8,267.4 L 631.3,267.4 L 635.8,267.6 L 640.2,267.8 L 644.7,267.6 L 649.2,267.2 L 653.7,267.4 L 658.1,267.2 L 662.6,267.0 L 667.1,267.0 L 671.6,267.0 L 676.0,267.0 L 680.5,266.6 L 685.0,266.6 L 689.5,266.6 L 693.9,265.9 L 698.4,265.9 L 702.9,265.9 L 707.4,265.9 L 711.8,265.9 L 716.3,265.9 L 720.8,265.5 L 725.3,265.5 L 729.7,265.1 L 734.2,264.3 L 738.7,264.1 L 743.2,264.1 L 747.6,264.1 L 752.1,264.1 L 756.6,263.7 L 761.1,263.5 L 765.5,263.5 L 770.0,263.3" fill="none" stroke="#34C759" stroke-width="2.5" stroke-linejoin="round" clip-path="url(#ca)"/>
<text x="96.6" y="55.0" text-anchor="middle" font-size="9" fill="#4F8EF7" opacity="0.85" clip-path="url(#ca)">+0.5% (+8)</text>
<text x="96.6" y="66.0" text-anchor="middle" font-size="9" fill="#BF5AF2" opacity="0.85" clip-path="url(#ca)">+1.0% (+10)</text>
<text x="96.6" y="77.0" text-anchor="middle" font-size="9" fill="#34C759" opacity="0.85" clip-path="url(#ca)">+1.5% (+11)</text>
<text x="181.6" y="55.0" text-anchor="middle" font-size="9" fill="#4F8EF7" opacity="0.85" clip-path="url(#ca)">+4.0% (+65)</text>
<text x="181.6" y="66.0" text-anchor="middle" font-size="9" fill="#BF5AF2" opacity="0.85" clip-path="url(#ca)">+3.5% (+35)</text>
<text x="181.6" y="77.0" text-anchor="middle" font-size="9" fill="#34C759" opacity="0.85" clip-path="url(#ca)">+3.6% (+27)</text>
<text x="300.2" y="55.0" text-anchor="middle" font-size="9" fill="#4F8EF7" opacity="0.85" clip-path="url(#ca)">+4.1% (+70)</text>
<text x="300.2" y="66.0" text-anchor="middle" font-size="9" fill="#BF5AF2" opacity="0.85" clip-path="url(#ca)">+3.5% (+36)</text>
<text x="300.2" y="77.0" text-anchor="middle" font-size="9" fill="#34C759" opacity="0.85" clip-path="url(#ca)">+3.3% (+26)</text>
<text x="421.0" y="55.0" text-anchor="middle" font-size="9" fill="#4F8EF7" opacity="0.85" clip-path="url(#ca)">+3.5% (+61)</text>
<text x="421.0" y="66.0" text-anchor="middle" font-size="9" fill="#BF5AF2" opacity="0.85" clip-path="url(#ca)">+2.7% (+29)</text>
<text x="421.0" y="77.0" text-anchor="middle" font-size="9" fill="#34C759" opacity="0.85" clip-path="url(#ca)">+2.6% (+21)</text>
<text x="541.8" y="55.0" text-anchor="middle" font-size="9" fill="#4F8EF7" opacity="0.85" clip-path="url(#ca)">+2.7% (+49)</text>
<text x="541.8" y="66.0" text-anchor="middle" font-size="9" fill="#BF5AF2" opacity="0.85" clip-path="url(#ca)">+3.0% (+33)</text>
<text x="541.8" y="77.0" text-anchor="middle" font-size="9" fill="#34C759" opacity="0.85" clip-path="url(#ca)">+3.2% (+27)</text>
<text x="660.4" y="55.0" text-anchor="middle" font-size="9" fill="#4F8EF7" opacity="0.85" clip-path="url(#ca)">+2.9% (+54)</text>
<text x="660.4" y="66.0" text-anchor="middle" font-size="9" fill="#BF5AF2" opacity="0.85" clip-path="url(#ca)">+1.9% (+22)</text>
<text x="660.4" y="77.0" text-anchor="middle" font-size="9" fill="#34C759" opacity="0.85" clip-path="url(#ca)">+1.5% (+13)</text>
<text x="745.4" y="55.0" text-anchor="middle" font-size="9" fill="#4F8EF7" opacity="0.85" clip-path="url(#ca)">+1.3% (+26)</text>
<text x="745.4" y="66.0" text-anchor="middle" font-size="9" fill="#BF5AF2" opacity="0.85" clip-path="url(#ca)">+1.4% (+16)</text>
<text x="745.4" y="77.0" text-anchor="middle" font-size="9" fill="#34C759" opacity="0.85" clip-path="url(#ca)">+1.3% (+11)</text>
<rect x="211" y="369" width="12" height="12" fill="#4F8EF7" rx="2"/>
<text x="227" y="379" font-size="12" fill="#111827">Authors</text>
<rect x="351" y="369" width="12" height="12" fill="#BF5AF2" rx="2"/>
<text x="367" y="379" font-size="12" fill="#111827">Contributors</text>
<rect x="491" y="369" width="12" height="12" fill="#34C759" rx="2"/>
<text x="507" y="379" font-size="12" fill="#111827">Non-author contributors</text>
<text x="72" y="394" font-size="8" fill="#e5e7eb">data since Dec 11, 2025</text>
</svg>