<svg xmlns="http://www.w3.org/2000/svg" width="800" height="400" viewBox="0 0 800 400">
<defs>
  <style>text { font-family: -apple-system, BlinkMacSystemFont, 'Segoe UI', Roboto, sans-serif; }</style>
  <linearGradient id="g2" x1="0" y1="0" x2="0" y2="1">
  <stop offset="0%" stop-color="#4F8EF7" stop-opacity="0.25"/>
  <stop offset="100%" stop-color="#4F8EF7" stop-opacity="0"/>
</linearGradient>
<linearGradient id="g3" x1="0" y1="0" x2="0" y2="1">
  <stop offset="0%" stop-color="#BF5AF2" stop-opacity="0.25"/>
  <stop offset="100%" stop-color="#BF5AF2" stop-opacity="0"/>
</linearGradient>
<linearGradient id="g4" x1="0" y1="0" x2="0" y2="1">
  <stop offset="0%" stop-color="#34C759" stop-opacity="0.25"/>
  <stop offset="100%" stop-color="#34C759" stop-opacity="0"/>
</linearGradient>
  <clipPath id="ca"><rect x="72" y="45" width="698" height="295"/></clipPath>
</defs>
<rect width="800" height="400" fill="#ffffff" rx="12"/>
<text x="400" y="26" text-anchor="middle" font-size="15" font-weight="600" fill="#111827">Community Growth Over Time</text>
<line x1="72" y1="340.0" x2="770" y2="340.0" stroke="#f3f4f6" stroke-width="1"/>
<text x="66" y="344.0" text-anchor="end" font-size="11" fill="#6b7280">500</text>
<line x1="72" y1="241.7" x2="770" y2="241.7" stroke="#f3f4f6" stroke-width="1"/>
<text x="66" y="245.7" text-anchor="end" font-size="11" fill="#6b7280">1.0k</text>
<line x1="72" y1="143.3" x2="770" y2="143.3" stroke="#f3f4f6" stroke-width="1"/>
<text x="66" y="147.3" text-anchor="end" font-size="11" fill="#6b7280">1.5k</text>
<line x1="72" y1="45.0" x2="770" y2="45.0" stroke="#f3f4f6" stroke-width="1"/>
<text x="66" y="49.0" text-anchor="end" font-size="11" fill="#6b7280">2.0k</text>
<line x1="124.0" y1="45" x2="124.0" y2="340" stroke="#e5e7eb" stroke-width="1" stroke-dasharray="3,3" clip-path="url(#ca)"/>
<line x1="236.7" y1="45" x2="236.7" y2="340" stroke="#e5e7eb" stroke-width="1" stroke-dasharray="3,3" clip-path="url(#ca)"/>
<line x1="353.8" y1="45" x2="353.8" y2="340" stroke="#e5e7eb" stroke-width="1" stroke-dasharray="3,3" clip-path="url(#ca)"/>
<line x1="470.9" y1="45" x2="470.9" y2="340" stroke="#e5e7eb" stroke-width="1" stroke-dasharray="3,3" clip-path="url(#ca)"/>
<line x1="587.9" y1="45" x2="587.9" y2="340" stroke="#e5e7eb" stroke-width="1" stroke-dasharray="3,3" clip-path="url(#ca)"/>
<line x1="700.6" y1="45" x2="700.6" y2="340" stroke="#e5e7eb" stroke-width="1" stroke-dasharray="3,3" clip-path="url(#ca)"/>
<text x="72.0" y="358.0" text-anchor="middle" font-size="11" fill="#6b7280">Dec 11</text>
<text x="210.7" y="358.0" text-anchor="middle" font-size="11" fill="#6b7280">Jan 26</text>
<text x="349.5" y="358.0" text-anchor="middle" font-size="11" fill="#6b7280">Feb 28</text>
<text x="492.5" y="358.0" text-anchor="middle" font-size="11" fill="#6b7280">Apr 7</text>
<text x="631.3" y="358.0" text-anchor="middle" font-size="11" fill="#6b7280">May 16</text>
<text x="770.0" y="358.0" text-anchor="middle" font-size="11" fill="#6b7280">Jun 22</text>
<line x1="72" y1="45" x2="72" y2="340" stroke="#e5e7eb" stroke-width="1"/>
<line x1="72" y1="340" x2="770" y2="340" stroke="#e5e7eb" stroke-width="1"/>
<text x="-192.5" y="18" text-anchor="middle" font-size="12" fill="#6b7280" transform="rotate(-90)">People</text>
<path d="M 72.0,340 L 72.0,120.1 L 76.3,120.1 L 80.7,120.1 L 85.0,119.5 L 89.3,119.5 L 93.7,119.1 L 98.0,118.9 L 102.3,119.1 L 106.7,118.6 L 111.0,118.6 L 115.4,118.6 L 119.7,118.6 L 124.0,118.6 L 128.4,118.6 L 132.7,118.6 L 137.0,118.6 L 141.4,118.4 L 145.7,117.8 L 150.0,116.6 L 154.4,116.0 L 158.7,115.8 L 163.0,115.8 L 167.4,115.2 L 171.7,113.8 L 176.0,113.0 L 180.4,113.0 L 184.7,112.1 L 189.1,111.7 L 193.4,110.9 L 197.7,110.3 L 202.1,109.7 L 206.4,109.1 L 210.7,109.1 L 215.1,107.7 L 219.4,106.9 L 223.7,106.9 L 228.1,106.2 L 232.4,105.8 L 236.7,105.6 L 241.1,105.4 L 245.4,105.4 L 249.8,104.8 L 254.1,102.4 L 258.4,101.0 L 262.8,100.3 L 267.1,100.1 L 271.4,99.7 L 275.8,98.9 L 280.1,98.5 L 284.4,98.1 L 288.8,97.7 L 293.1,97.3 L 297.4,96.9 L 301.8,96.9 L 306.1,95.0 L 310.4,95.0 L 314.8,94.8 L 319.1,94.6 L 323.5,94.2 L 327.8,94.2 L 332.1,93.2 L 336.5,92.0 L 340.8,91.6 L 345.1,92.0 L 349.5,91.8 L 353.8,91.6 L 358.1,91.6 L 362.5,91.2 L 366.8,90.4 L 371.1,90.0 L 375.5,89.6 L 379.8,89.4 L 384.1,89.4 L 388.5,88.7 L 392.8,88.3 L 397.2,88.3 L 401.5,86.7 L 405.8,86.7 L 410.2,86.7 L 414.5,86.7 L 418.8,86.5 L 423.2,85.9 L 427.5,85.1 L 431.8,84.7 L 436.2,84.7 L 440.5,84.3 L 444.8,82.8 L 449.2,81.8 L 453.5,81.6 L 457.9,81.4 L 462.2,80.8 L 466.5,79.6 L 470.9,79.2 L 475.2,78.8 L 479.5,77.6 L 483.9,77.4 L 488.2,77.4 L 492.5,77.4 L 496.9,77.3 L 501.2,76.1 L 505.5,75.9 L 509.9,75.7 L 514.2,75.7 L 518.5,75.3 L 522.9,73.7 L 527.2,73.5 L 531.6,73.3 L 535.9,73.3 L 540.2,72.5 L 544.6,72.3 L 548.9,72.1 L 553.2,71.6 L 557.6,70.8 L 561.9,70.8 L 566.2,70.8 L 570.6,70.8 L 574.9,70.4 L 579.2,69.8 L 583.6,69.6 L 587.9,69.0 L 592.2,68.8 L 596.6,68.6 L 600.9,67.8 L 605.3,67.2 L 609.6,67.0 L 613.9,67.0 L 618.3,65.3 L 622.6,64.7 L 626.9,64.5 L 631.3,64.5 L 635.6,63.5 L 639.9,63.5 L 644.3,62.9 L 648.6,62.3 L 652.9,60.9 L 657.3,60.7 L 661.6,60.5 L 666.0,60.3 L 670.3,60.3 L 674.6,60.1 L 679.0,59.2 L 683.3,58.6 L 687.6,58.6 L 692.0,58.4 L 696.3,58.4 L 700.6,57.8 L 705.0,57.6 L 709.3,57.4 L 713.6,56.8 L 718.0,56.0 L 722.3,56.0 L 726.6,55.8 L 731.0,55.6 L 735.3,54.6 L 739.7,53.3 L 744.0,53.1 L 748.3,52.7 L 752.7,52.3 L 757.0,52.1 L 761.3,51.5 L 765.7,50.7 L 770.0,50.5 L 770.0,340 Z" fill="url(#g2)" clip-path="url(#ca)"/>
<path d="M 72.0,120.1 L 76.3,120.1 L 80.7,120.1 L 85.0,119.5 L 89.3,119.5 L 93.7,119.1 L 98.0,118.9 L 102.3,119.1 L 106.7,118.6 L 111.0,118.6 L 115.4,118.6 L 119.7,118.6 L 124.0,118.6 L 128.4,118.6 L 132.7,118.6 L 137.0,118.6 L 141.4,118.4 L 145.7,117.8 L 150.0,116.6 L 154.4,116.0 L 158.7,115.8 L 163.0,115.8 L 167.4,115.2 L 171.7,113.8 L 176.0,113.0 L 180.4,113.0 L 184.7,112.1 L 189.1,111.7 L 193.4,110.9 L 197.7,110.3 L 202.1,109.7 L 206.4,109.1 L 210.7,109.1 L 215.1,107.7 L 219.4,106.9 L 223.7,106.9 L 228.1,106.2 L 232.4,105.8 L 236.7,105.6 L 241.1,105.4 L 245.4,105.4 L 249.8,104.8 L 254.1,102.4 L 258.4,101.0 L 262.8,100.3 L 267.1,100.1 L 271.4,99.7 L 275.8,98.9 L 280.1,98.5 L 284.4,98.1 L 288.8,97.7 L 293.1,97.3 L 297.4,96.9 L 301.8,96.9 L 306.1,95.0 L 310.4,95.0 L 314.8,94.8 L 319.1,94.6 L 323.5,94.2 L 327.8,94.2 L 332.1,93.2 L 336.5,92.0 L 340.8,91.6 L 345.1,92.0 L 349.5,91.8 L 353.8,91.6 L 358.1,91.6 L 362.5,91.2 L 366.8,90.4 L 371.1,90.0 L 375.5,89.6 L 379.8,89.4 L 384.1,89.4 L 388.5,88.7 L 392.8,88.3 L 397.2,88.3 L 401.5,86.7 L 405.8,86.7 L 410.2,86.7 L 414.5,86.7 L 418.8,86.5 L 423.2,85.9 L 427.5,85.1 L 431.8,84.7 L 436.2,84.7 L 440.5,84.3 L 444.8,82.8 L 449.2,81.8 L 453.5,81.6 L 457.9,81.4 L 462.2,80.8 L 466.5,79.6 L 470.9,79.2 L 475.2,78.8 L 479.5,77.6 L 483.9,77.4 L 488.2,77.4 L 492.5,77.4 L 496.9,77.3 L 501.2,76.1 L 505.5,75.9 L 509.9,75.7 L 514.2,75.7 L 518.5,75.3 L 522.9,73.7 L 527.2,73.5 L 531.6,73.3 L 535.9,73.3 L 540.2,72.5 L 544.6,72.3 L 548.9,72.1 L 553.2,71.6 L 557.6,70.8 L 561.9,70.8 L 566.2,70.8 L 570.6,70.8 L 574.9,70.4 L 579.2,69.8 L 583.6,69.6 L 587.9,69.0 L 592.2,68.8 L 596.6,68.6 L 600.9,67.8 L 605.3,67.2 L 609.6,67.0 L 613.9,67.0 L 618.3,65.3 L 622.6,64.7 L 626.9,64.5 L 631.3,64.5 L 635.6,63.5 L 639.9,63.5 L 644.3,62.9 L 648.6,62.3 L 652.9,60.9 L 657.3,60.7 L 661.6,60.5 L 666.0,60.3 L 670.3,60.3 L 674.6,60.1 L 679.0,59.2 L 683.3,58.6 L 687.6,58.6 L 692.0,58.4 L 696.3,58.4 L 700.6,57.8 L 705.0,57.6 L 709.3,57.4 L 713.6,56.8 L 718.0,56.0 L 722.3,56.0 L 726.6,55.8 L 731.0,55.6 L 735.3,54.6 L 739.7,53.3 L 744.0,53.1 L 748.3,52.7 L 752.7,52.3 L 757.0,52.1 L 761.3,51.5 L 765.7,50.7 L 770.0,50.5" fill="none" stroke="#4F8EF7" stroke-width="2.5" stroke-linejoin="round" clip-path="url(#ca)"/>
<path d="M 72.0,340 L 72.0,244.2 L 76.3,243.6 L 80.7,243.6 L 85.0,243.6 L 89.3,243.4 L 93.7,243.0 L 98.0,242.8 L 102.3,242.6 L 106.7,242.6 L 111.0,242.5 L 115.4,242.3 L 119.7,242.3 L 124.0,242.3 L 128.4,242.3 L 132.7,242.3 L 137.0,242.3 L 141.4,241.9 L 145.7,241.9 L 150.0,241.9 L 154.4,241.1 L 158.7,240.9 L 163.0,240.5 L 167.4,239.7 L 171.7,239.5 L 176.0,239.5 L 180.4,239.5 L 184.7,238.9 L 189.1,238.5 L 193.4,238.5 L 197.7,238.1 L 202.1,237.9 L 206.4,237.5 L 210.7,237.5 L 215.1,237.3 L 219.4,236.6 L 223.7,236.0 L 228.1,235.6 L 232.4,235.4 L 236.7,235.4 L 241.1,235.2 L 245.4,234.8 L 249.8,234.8 L 254.1,234.6 L 258.4,234.0 L 262.8,233.6 L 267.1,233.6 L 271.4,233.6 L 275.8,233.6 L 280.1,233.4 L 284.4,232.8 L 288.8,232.4 L 293.1,232.2 L 297.4,232.0 L 301.8,231.8 L 306.1,231.6 L 310.4,231.4 L 314.8,231.2 L 319.1,230.7 L 323.5,230.5 L 327.8,230.3 L 332.1,229.5 L 336.5,228.7 L 340.8,228.7 L 345.1,228.5 L 349.5,228.3 L 353.8,228.3 L 358.1,228.3 L 362.5,227.9 L 366.8,227.9 L 371.1,226.7 L 375.5,226.5 L 379.8,226.3 L 384.1,226.3 L 388.5,225.9 L 392.8,225.7 L 397.2,225.7 L 401.5,225.5 L 405.8,225.5 L 410.2,225.5 L 414.5,225.1 L 418.8,224.9 L 423.2,224.0 L 427.5,224.2 L 431.8,224.0 L 436.2,223.8 L 440.5,223.8 L 444.8,223.6 L 449.2,223.0 L 453.5,223.0 L 457.9,223.0 L 462.2,223.0 L 466.5,222.6 L 470.9,222.6 L 475.2,222.2 L 479.5,221.8 L 483.9,221.0 L 488.2,221.0 L 492.5,220.6 L 496.9,220.4 L 501.2,220.2 L 505.5,220.0 L 509.9,219.6 L 514.2,219.6 L 518.5,219.1 L 522.9,219.1 L 527.2,218.9 L 531.6,218.5 L 535.9,218.3 L 540.2,218.3 L 544.6,218.3 L 548.9,218.3 L 553.2,218.3 L 557.6,217.7 L 561.9,217.7 L 566.2,217.3 L 570.6,216.9 L 574.9,216.3 L 579.2,216.1 L 583.6,216.1 L 587.9,214.9 L 592.2,214.7 L 596.6,214.7 L 600.9,213.9 L 605.3,213.9 L 609.6,213.5 L 613.9,213.5 L 618.3,213.3 L 622.6,213.3 L 626.9,213.2 L 631.3,212.8 L 635.6,212.8 L 639.9,212.6 L 644.3,212.4 L 648.6,212.2 L 652.9,212.0 L 657.3,212.0 L 661.6,211.6 L 666.0,211.6 L 670.3,211.6 L 674.6,210.6 L 679.0,210.6 L 683.3,210.6 L 687.6,210.6 L 692.0,210.6 L 696.3,210.6 L 700.6,210.2 L 705.0,210.2 L 709.3,209.8 L 713.6,209.0 L 718.0,208.6 L 722.3,208.4 L 726.6,208.4 L 731.0,208.2 L 735.3,207.6 L 739.7,207.4 L 744.0,207.4 L 748.3,207.1 L 752.7,206.5 L 757.0,206.1 L 761.3,206.1 L 765.7,205.9 L 770.0,205.9 L 770.0,340 Z" fill="url(#g3)" clip-path="url(#ca)"/>
<path d="M 72.0,244.2 L 76.3,243.6 L 80.7,243.6 L 85.0,243.6 L 89.3,243.4 L 93.7,243.0 L 98.0,242.8 L 102.3,242.6 L 106.7,242.6 L 111.0,242.5 L 115.4,242.3 L 119.7,242.3 L 124.0,242.3 L 128.4,242.3 L 132.7,242.3 L 137.0,242.3 L 141.4,241.9 L 145.7,241.9 L 150.0,241.9 L 154.4,241.1 L 158.7,240.9 L 163.0,240.5 L 167.4,239.7 L 171.7,239.5 L 176.0,239.5 L 180.4,239.5 L 184.7,238.9 L 189.1,238.5 L 193.4,238.5 L 197.7,238.1 L 202.1,237.9 L 206.4,237.5 L 210.7,237.5 L 215.1,237.3 L 219.4,236.6 L 223.7,236.0 L 228.1,235.6 L 232.4,235.4 L 236.7,235.4 L 241.1,235.2 L 245.4,234.8 L 249.8,234.8 L 254.1,234.6 L 258.4,234.0 L 262.8,233.6 L 267.1,233.6 L 271.4,233.6 L 275.8,233.6 L 280.1,233.4 L 284.4,232.8 L 288.8,232.4 L 293.1,232.2 L 297.4,232.0 L 301.8,231.8 L 306.1,231.6 L 310.4,231.4 L 314.8,231.2 L 319.1,230.7 L 323.5,230.5 L 327.8,230.3 L 332.1,229.5 L 336.5,228.7 L 340.8,228.7 L 345.1,228.5 L 349.5,228.3 L 353.8,228.3 L 358.1,228.3 L 362.5,227.9 L 366.8,227.9 L 371.1,226.7 L 375.5,226.5 L 379.8,226.3 L 384.1,226.3 L 388.5,225.9 L 392.8,225.7 L 397.2,225.7 L 401.5,225.5 L 405.8,225.5 L 410.2,225.5 L 414.5,225.1 L 418.8,224.9 L 423.2,224.0 L 427.5,224.2 L 431.8,224.0 L 436.2,223.8 L 440.5,223.8 L 444.8,223.6 L 449.2,223.0 L 453.5,223.0 L 457.9,223.0 L 462.2,223.0 L 466.5,222.6 L 470.9,222.6 L 475.2,222.2 L 479.5,221.8 L 483.9,221.0 L 488.2,221.0 L 492.5,220.6 L 496.9,220.4 L 501.2,220.2 L 505.5,220.0 L 509.9,219.6 L 514.2,219.6 L 518.5,219.1 L 522.9,219.1 L 527.2,218.9 L 531.6,218.5 L 535.9,218.3 L 540.2,218.3 L 544.6,218.3 L 548.9,218.3 L 553.2,218.3 L 557.6,217.7 L 561.9,217.7 L 566.2,217.3 L 570.6,216.9 L 574.9,216.3 L 579.2,216.1 L 583.6,216.1 L 587.9,214.9 L 592.2,214.7 L 596.6,214.7 L 600.9,213.9 L 605.3,213.9 L 609.6,213.5 L 613.9,213.5 L 618.3,213.3 L 622.6,213.3 L 626.9,213.2 L 631.3,212.8 L 635.6,212.8 L 639.9,212.6 L 644.3,212.4 L 648.6,212.2 L 652.9,212.0 L 657.3,212.0 L 661.6,211.6 L 666.0,211.6 L 670.3,211.6 L 674.6,210.6 L 679.0,210.6 L 683.3,210.6 L 687.6,210.6 L 692.0,210.6 L 696.3,210.6 L 700.6,210.2 L 705.0,210.2 L 709.3,209.8 L 713.6,209.0 L 718.0,208.6 L 722.3,208.4 L 726.6,208.4 L 731.0,208.2 L 735.3,207.6 L 739.7,207.4 L 744.0,207.4 L 748.3,207.1 L 752.7,206.5 L 757.0,206.1 L 761.3,206.1 L 765.7,205.9 L 770.0,205.9" fill="none" stroke="#BF5AF2" stroke-width="2.5" stroke-linejoin="round" clip-path="url(#ca)"/>
<path d="M 72.0,340 L 72.0,291.4 L 76.3,290.8 L 80.7,290.8 L 85.0,290.8 L 89.3,290.6 L 93.7,290.2 L 98.0,290.0 L 102.3,289.7 L 106.7,289.7 L 111.0,289.5 L 115.4,289.3 L 119.7,289.3 L 124.0,289.3 L 128.4,289.3 L 132.7,289.3 L 137.0,289.3 L 141.4,288.9 L 145.7,288.9 L 150.0,289.1 L 154.4,288.5 L 158.7,288.7 L 163.0,288.1 L 167.4,287.5 L 171.7,287.3 L 176.0,287.5 L 180.4,287.5 L 184.7,286.9 L 189.1,286.7 L 193.4,286.7 L 197.7,286.3 L 202.1,286.1 L 206.4,285.7 L 210.7,285.7 L 215.1,285.5 L 219.4,284.9 L 223.7,284.3 L 228.1,283.9 L 232.4,283.9 L 236.7,283.9 L 241.1,283.8 L 245.4,283.4 L 249.8,283.4 L 254.1,283.2 L 258.4,282.6 L 262.8,282.4 L 267.1,282.4 L 271.4,282.4 L 275.8,282.4 L 280.1,282.2 L 284.4,281.6 L 288.8,281.4 L 293.1,281.2 L 297.4,281.0 L 301.8,281.0 L 306.1,280.8 L 310.4,280.8 L 314.8,280.8 L 319.1,280.2 L 323.5,280.2 L 327.8,280.2 L 332.1,279.8 L 336.5,279.2 L 340.8,279.2 L 345.1,279.0 L 349.5,278.8 L 353.8,278.8 L 358.1,278.8 L 362.5,278.4 L 366.8,278.4 L 371.1,277.3 L 375.5,277.1 L 379.8,276.9 L 384.1,276.9 L 388.5,276.7 L 392.8,276.7 L 397.2,276.7 L 401.5,276.7 L 405.8,276.7 L 410.2,276.7 L 414.5,276.3 L 418.8,276.1 L 423.2,275.1 L 427.5,275.3 L 431.8,275.3 L 436.2,275.1 L 440.5,275.1 L 444.8,275.1 L 449.2,274.7 L 453.5,274.7 L 457.9,274.7 L 462.2,274.7 L 466.5,274.7 L 470.9,274.7 L 475.2,274.5 L 479.5,274.5 L 483.9,273.7 L 488.2,273.7 L 492.5,273.5 L 496.9,273.3 L 501.2,273.1 L 505.5,272.9 L 509.9,272.5 L 514.2,272.5 L 518.5,272.0 L 522.9,272.0 L 527.2,271.8 L 531.6,271.6 L 535.9,271.6 L 540.2,271.6 L 544.6,271.6 L 548.9,271.6 L 553.2,271.6 L 557.6,271.0 L 561.9,271.0 L 566.2,270.6 L 570.6,270.2 L 574.9,269.6 L 579.2,269.4 L 583.6,269.4 L 587.9,268.4 L 592.2,268.2 L 596.6,268.2 L 600.9,267.6 L 605.3,267.6 L 609.6,267.4 L 613.9,267.4 L 618.3,267.6 L 622.6,267.8 L 626.9,267.6 L 631.3,267.2 L 635.6,267.4 L 639.9,267.2 L 644.3,267.0 L 648.6,267.0 L 652.9,267.0 L 657.3,267.0 L 661.6,266.6 L 666.0,266.6 L 670.3,266.6 L 674.6,265.9 L 679.0,265.9 L 683.3,265.9 L 687.6,265.9 L 692.0,265.9 L 696.3,265.9 L 700.6,265.5 L 705.0,265.5 L 709.3,265.1 L 713.6,264.3 L 718.0,264.1 L 722.3,264.1 L 726.6,264.1 L 731.0,264.1 L 735.3,263.7 L 739.7,263.5 L 744.0,263.5 L 748.3,263.3 L 752.7,262.7 L 757.0,262.3 L 761.3,262.3 L 765.7,262.1 L 770.0,262.1 L 770.0,340 Z" fill="url(#g4)" clip-path="url(#ca)"/>
<path d="M 72.0,291.4 L 76.3,290.8 L 80.7,290.8 L 85.0,290.8 L 89.3,290.6 L 93.7,290.2 L 98.0,290.0 L 102.3,289.7 L 106.7,289.7 L 111.0,289.5 L 115.4,289.3 L 119.7,289.3 L 124.0,289.3 L 128.4,289.3 L 132.7,289.3 L 137.0,289.3 L 141.4,288.9 L 145.7,288.9 L 150.0,289.1 L 154.4,288.5 L 158.7,288.7 L 163.0,288.1 L 167.4,287.5 L 171.7,287.3 L 176.0,287.5 L 180.4,287.5 L 184.7,286.9 L 189.1,286.7 L 193.4,286.7 L 197.7,286.3 L 202.1,286.1 L 206.4,285.7 L 210.7,285.7 L 215.1,285.5 L 219.4,284.9 L 223.7,284.3 L 228.1,283.9 L 232.4,283.9 L 236.7,283.9 L 241.1,283.8 L 245.4,283.4 L 249.8,283.4 L 254.1,283.2 L 258.4,282.6 L 262.8,282.4 L 267.1,282.4 L 271.4,282.4 L 275.8,282.4 L 280.1,282.2 L 284.4,281.6 L 288.8,281.4 L 293.1,281.2 L 297.4,281.0 L 301.8,281.0 L 306.1,280.8 L 310.4,280.8 L 314.8,280.8 L 319.1,280.2 L 323.5,280.2 L 327.8,280.2 L 332.1,279.8 L 336.5,279.2 L 340.8,279.2 L 345.1,279.0 L 349.5,278.8 L 353.8,278.8 L 358.1,278.8 L 362.5,278.4 L 366.8,278.4 L 371.1,277.3 L 375.5,277.1 L 379.8,276.9 L 384.1,276.9 L 388.5,276.7 L 392.8,276.7 L 397.2,276.7 L 401.5,276.7 L 405.8,276.7 L 410.2,276.7 L 414.5,276.3 L 418.8,276.1 L 423.2,275.1 L 427.5,275.3 L 431.8,275.3 L 436.2,275.1 L 440.5,275.1 L 444.8,275.1 L 449.2,274.7 L 453.5,274.7 L 457.9,274.7 L 462.2,274.7 L 466.5,274.7 L 470.9,274.7 L 475.2,274.5 L 479.5,274.5 L 483.9,273.7 L 488.2,273.7 L 492.5,273.5 L 496.9,273.3 L 501.2,273.1 L 505.5,272.9 L 509.9,272.5 L 514.2,272.5 L 518.5,272.0 L 522.9,272.0 L 527.2,271.8 L 531.6,271.6 L 535.9,271.6 L 540.2,271.6 L 544.6,271.6 L 548.9,271.6 L 553.2,271.6 L 557.6,271.0 L 561.9,271.0 L 566.2,270.6 L 570.6,270.2 L 574.9,269.6 L 579.2,269.4 L 583.6,269.4 L 587.9,268.4 L 592.2,268.2 L 596.6,268.2 L 600.9,267.6 L 605.3,267.6 L 609.6,267.4 L 613.9,267.4 L 618.3,267.6 L 622.6,267.8 L 626.9,267.6 L 631.3,267.2 L 635.6,267.4 L 639.9,267.2 L 644.3,267.0 L 648.6,267.0 L 652.9,267.0 L 657.3,267.0 L 661.6,266.6 L 666.0,266.6 L 670.3,266.6 L 674.6,265.9 L 679.0,265.9 L 683.3,265.9 L 687.6,265.9 L 692.0,265.9 L 696.3,265.9 L 700.6,265.5 L 705.0,265.5 L 709.3,265.1 L 713.6,264.3 L 718.0,264.1 L 722.3,264.1 L 726.6,264.1 L 731.0,264.1 L 735.3,263.7 L 739.7,263.5 L 744.0,263.5 L 748.3,263.3 L 752.7,262.7 L 757.0,262.3 L 761.3,262.3 L 765.7,262.1 L 770.0,262.1" fill="none" stroke="#34C759" stroke-width="2.5" stroke-linejoin="round" clip-path="url(#ca)"/>
<text x="95.8" y="55.0" text-anchor="middle" font-size="9" fill="#4F8EF7" opacity="0.85" clip-path="url(#ca)">+0.5% (+8)</text>
<text x="95.8" y="66.0" text-anchor="middle" font-size="9" fill="#BF5AF2" opacity="0.85" clip-path="url(#ca)">+1.0% (+10)</text>
<text x="95.8" y="77.0" text-anchor="middle" font-size="9" fill="#34C759" opacity="0.85" clip-path="url(#ca)">+1.5% (+11)</text>
<text x="178.2" y="55.0" text-anchor="middle" font-size="9" fill="#4F8EF7" opacity="0.85" clip-path="url(#ca)">+4.0% (+65)</text>
<text x="178.2" y="66.0" text-anchor="middle" font-size="9" fill="#BF5AF2" opacity="0.85" clip-path="url(#ca)">+3.5% (+35)</text>
<text x="178.2" y="77.0" text-anchor="middle" font-size="9" fill="#34C759" opacity="0.85" clip-path="url(#ca)">+3.6% (+27)</text>
<text x="293.1" y="55.0" text-anchor="middle" font-size="9" fill="#4F8EF7" opacity="0.85" clip-path="url(#ca)">+4.1% (+70)</text>
<text x="293.1" y="66.0" text-anchor="middle" font-size="9" fill="#BF5AF2" opacity="0.85" clip-path="url(#ca)">+3.5% (+36)</text>
<text x="293.1" y="77.0" text-anchor="middle" font-size="9" fill="#34C759" opacity="0.85" clip-path="url(#ca)">+3.3% (+26)</text>
<text x="410.2" y="55.0" text-anchor="middle" font-size="9" fill="#4F8EF7" opacity="0.85" clip-path="url(#ca)">+3.5% (+61)</text>
<text x="410.2" y="66.0" text-anchor="middle" font-size="9" fill="#BF5AF2" opacity="0.85" clip-path="url(#ca)">+2.7% (+29)</text>
<text x="410.2" y="77.0" text-anchor="middle" font-size="9" fill="#34C759" opacity="0.85" clip-path="url(#ca)">+2.6% (+21)</text>
<text x="527.2" y="55.0" text-anchor="middle" font-size="9" fill="#4F8EF7" opacity="0.85" clip-path="url(#ca)">+2.7% (+49)</text>
<text x="527.2" y="66.0" text-anchor="middle" font-size="9" fill="#BF5AF2" opacity="0.85" clip-path="url(#ca)">+3.0% (+33)</text>
<text x="527.2" y="77.0" text-anchor="middle" font-size="9" fill="#34C759" opacity="0.85" clip-path="url(#ca)">+3.2% (+27)</text>
<text x="642.1" y="55.0" text-anchor="middle" font-size="9" fill="#4F8EF7" opacity="0.85" clip-path="url(#ca)">+2.9% (+54)</text>
<text x="642.1" y="66.0" text-anchor="middle" font-size="9" fill="#BF5AF2" opacity="0.85" clip-path="url(#ca)">+1.9% (+22)</text>
<text x="642.1" y="77.0" text-anchor="middle" font-size="9" fill="#34C759" opacity="0.85" clip-path="url(#ca)">+1.5% (+13)</text>
<text x="735.3" y="55.0" text-anchor="middle" font-size="9" fill="#4F8EF7" opacity="0.85" clip-path="url(#ca)">+1.9% (+37)</text>
<text x="735.3" y="66.0" text-anchor="middle" font-size="9" fill="#BF5AF2" opacity="0.85" clip-path="url(#ca)">+1.9% (+22)</text>
<text x="735.3" y="77.0" text-anchor="middle" font-size="9" fill="#34C759" opacity="0.85" clip-path="url(#ca)">+1.9% (+17)</text>
<rect x="211" y="369" width="12" height="12" fill="#4F8EF7" rx="2"/>
<text x="227" y="379" font-size="12" fill="#111827">Authors</text>
<rect x="351" y="369" width="12" height="12" fill="#BF5AF2" rx="2"/>
<text x="367" y="379" font-size="12" fill="#111827">Contributors</text>
<rect x="491" y="369" width="12" height="12" fill="#34C759" rx="2"/>
<text x="507" y="379" font-size="12" fill="#111827">Non-author contributors</text>
<text x="72" y="394" font-size="8" fill="#e5e7eb">data since Dec 11, 2025</text>
</svg>