<svg xmlns="http://www.w3.org/2000/svg" width="800" height="400" viewBox="0 0 800 400">
<defs>
  <style>text { font-family: -apple-system, BlinkMacSystemFont, 'Segoe UI', Roboto, sans-serif; }</style>
  <linearGradient id="g2" x1="0" y1="0" x2="0" y2="1">
  <stop offset="0%" stop-color="#4F8EF7" stop-opacity="0.25"/>
  <stop offset="100%" stop-color="#4F8EF7" stop-opacity="0"/>
</linearGradient>
<linearGradient id="g3" x1="0" y1="0" x2="0" y2="1">
  <stop offset="0%" stop-color="#BF5AF2" stop-opacity="0.25"/>
  <stop offset="100%" stop-color="#BF5AF2" stop-opacity="0"/>
</linearGradient>
<linearGradient id="g4" x1="0" y1="0" x2="0" y2="1">
  <stop offset="0%" stop-color="#34C759" stop-opacity="0.25"/>
  <stop offset="100%" stop-color="#34C759" stop-opacity="0"/>
</linearGradient>
  <clipPath id="ca"><rect x="72" y="45" width="698" height="295"/></clipPath>
</defs>
<rect width="800" height="400" fill="#ffffff" rx="12"/>
<text x="400" y="26" text-anchor="middle" font-size="15" font-weight="600" fill="#111827">Community Growth Over Time</text>
<line x1="72" y1="340.0" x2="770" y2="340.0" stroke="#f3f4f6" stroke-width="1"/>
<text x="66" y="344.0" text-anchor="end" font-size="11" fill="#6b7280">500</text>
<line x1="72" y1="241.7" x2="770" y2="241.7" stroke="#f3f4f6" stroke-width="1"/>
<text x="66" y="245.7" text-anchor="end" font-size="11" fill="#6b7280">1.0k</text>
<line x1="72" y1="143.3" x2="770" y2="143.3" stroke="#f3f4f6" stroke-width="1"/>
<text x="66" y="147.3" text-anchor="end" font-size="11" fill="#6b7280">1.5k</text>
<line x1="72" y1="45.0" x2="770" y2="45.0" stroke="#f3f4f6" stroke-width="1"/>
<text x="66" y="49.0" text-anchor="end" font-size="11" fill="#6b7280">2.0k</text>
<line x1="137.4" y1="45" x2="137.4" y2="340" stroke="#e5e7eb" stroke-width="1" stroke-dasharray="3,3" clip-path="url(#ca)"/>
<line x1="279.2" y1="45" x2="279.2" y2="340" stroke="#e5e7eb" stroke-width="1" stroke-dasharray="3,3" clip-path="url(#ca)"/>
<line x1="426.5" y1="45" x2="426.5" y2="340" stroke="#e5e7eb" stroke-width="1" stroke-dasharray="3,3" clip-path="url(#ca)"/>
<line x1="573.7" y1="45" x2="573.7" y2="340" stroke="#e5e7eb" stroke-width="1" stroke-dasharray="3,3" clip-path="url(#ca)"/>
<line x1="720.9" y1="45" x2="720.9" y2="340" stroke="#e5e7eb" stroke-width="1" stroke-dasharray="3,3" clip-path="url(#ca)"/>
<text x="72.0" y="358.0" text-anchor="middle" font-size="11" fill="#6b7280">Dec 11</text>
<text x="213.8" y="358.0" text-anchor="middle" font-size="11" fill="#6b7280">Jan 20</text>
<text x="350.1" y="358.0" text-anchor="middle" font-size="11" fill="#6b7280">Feb 14</text>
<text x="491.9" y="358.0" text-anchor="middle" font-size="11" fill="#6b7280">Mar 14</text>
<text x="628.2" y="358.0" text-anchor="middle" font-size="11" fill="#6b7280">Apr 12</text>
<text x="770.0" y="358.0" text-anchor="middle" font-size="11" fill="#6b7280">May 14</text>
<line x1="72" y1="45" x2="72" y2="340" stroke="#e5e7eb" stroke-width="1"/>
<line x1="72" y1="340" x2="770" y2="340" stroke="#e5e7eb" stroke-width="1"/>
<text x="-192.5" y="18" text-anchor="middle" font-size="12" fill="#6b7280" transform="rotate(-90)">People</text>
<path d="M 72.0,340 L 72.0,120.1 L 77.5,120.1 L 82.9,120.1 L 88.4,119.5 L 93.8,119.5 L 99.3,119.1 L 104.7,118.9 L 110.2,119.1 L 115.6,118.6 L 121.1,118.6 L 126.5,118.6 L 132.0,118.6 L 137.4,118.6 L 142.9,118.6 L 148.3,118.6 L 153.8,118.6 L 159.3,118.4 L 164.7,117.8 L 170.2,116.6 L 175.6,116.0 L 181.1,115.8 L 186.5,115.8 L 192.0,115.2 L 197.4,113.8 L 202.9,113.0 L 208.3,113.0 L 213.8,112.1 L 219.2,111.7 L 224.7,110.9 L 230.1,110.3 L 235.6,109.7 L 241.0,109.1 L 246.5,109.1 L 252.0,107.7 L 257.4,106.9 L 262.9,106.9 L 268.3,106.2 L 273.8,105.8 L 279.2,105.6 L 284.7,105.4 L 290.1,105.4 L 295.6,104.8 L 301.0,102.4 L 306.5,101.0 L 311.9,100.3 L 317.4,100.1 L 322.8,99.7 L 328.3,98.9 L 333.8,98.5 L 339.2,98.1 L 344.7,97.7 L 350.1,97.3 L 355.6,96.9 L 361.0,96.9 L 366.5,95.0 L 371.9,95.0 L 377.4,94.8 L 382.8,94.6 L 388.3,94.2 L 393.7,94.2 L 399.2,93.2 L 404.6,92.0 L 410.1,91.6 L 415.5,92.0 L 421.0,91.8 L 426.5,91.6 L 431.9,91.6 L 437.4,91.2 L 442.8,90.4 L 448.3,90.0 L 453.7,89.6 L 459.2,89.4 L 464.6,89.4 L 470.1,88.7 L 475.5,88.3 L 481.0,88.3 L 486.4,86.7 L 491.9,86.7 L 497.3,86.7 L 502.8,86.7 L 508.3,86.5 L 513.7,85.9 L 519.2,85.1 L 524.6,84.7 L 530.1,84.7 L 535.5,84.3 L 541.0,82.8 L 546.4,81.8 L 551.9,81.6 L 557.3,81.4 L 562.8,80.8 L 568.2,79.6 L 573.7,79.2 L 579.1,78.8 L 584.6,77.6 L 590.0,77.4 L 595.5,77.4 L 601.0,77.4 L 606.4,77.3 L 611.9,76.1 L 617.3,75.9 L 622.8,75.7 L 628.2,75.7 L 633.7,75.3 L 639.1,73.7 L 644.6,73.5 L 650.0,73.3 L 655.5,73.3 L 660.9,72.5 L 666.4,72.3 L 671.8,72.1 L 677.3,71.6 L 682.8,70.8 L 688.2,70.8 L 693.7,70.8 L 699.1,70.8 L 704.6,70.4 L 710.0,69.8 L 715.5,69.6 L 720.9,69.0 L 726.4,68.8 L 731.8,68.6 L 737.3,67.8 L 742.7,67.2 L 748.2,67.0 L 753.6,67.0 L 759.1,65.3 L 764.5,64.7 L 770.0,64.5 L 770.0,340 Z" fill="url(#g2)" clip-path="url(#ca)"/>
<path d="M 72.0,120.1 L 77.5,120.1 L 82.9,120.1 L 88.4,119.5 L 93.8,119.5 L 99.3,119.1 L 104.7,118.9 L 110.2,119.1 L 115.6,118.6 L 121.1,118.6 L 126.5,118.6 L 132.0,118.6 L 137.4,118.6 L 142.9,118.6 L 148.3,118.6 L 153.8,118.6 L 159.3,118.4 L 164.7,117.8 L 170.2,116.6 L 175.6,116.0 L 181.1,115.8 L 186.5,115.8 L 192.0,115.2 L 197.4,113.8 L 202.9,113.0 L 208.3,113.0 L 213.8,112.1 L 219.2,111.7 L 224.7,110.9 L 230.1,110.3 L 235.6,109.7 L 241.0,109.1 L 246.5,109.1 L 252.0,107.7 L 257.4,106.9 L 262.9,106.9 L 268.3,106.2 L 273.8,105.8 L 279.2,105.6 L 284.7,105.4 L 290.1,105.4 L 295.6,104.8 L 301.0,102.4 L 306.5,101.0 L 311.9,100.3 L 317.4,100.1 L 322.8,99.7 L 328.3,98.9 L 333.8,98.5 L 339.2,98.1 L 344.7,97.7 L 350.1,97.3 L 355.6,96.9 L 361.0,96.9 L 366.5,95.0 L 371.9,95.0 L 377.4,94.8 L 382.8,94.6 L 388.3,94.2 L 393.7,94.2 L 399.2,93.2 L 404.6,92.0 L 410.1,91.6 L 415.5,92.0 L 421.0,91.8 L 426.5,91.6 L 431.9,91.6 L 437.4,91.2 L 442.8,90.4 L 448.3,90.0 L 453.7,89.6 L 459.2,89.4 L 464.6,89.4 L 470.1,88.7 L 475.5,88.3 L 481.0,88.3 L 486.4,86.7 L 491.9,86.7 L 497.3,86.7 L 502.8,86.7 L 508.3,86.5 L 513.7,85.9 L 519.2,85.1 L 524.6,84.7 L 530.1,84.7 L 535.5,84.3 L 541.0,82.8 L 546.4,81.8 L 551.9,81.6 L 557.3,81.4 L 562.8,80.8 L 568.2,79.6 L 573.7,79.2 L 579.1,78.8 L 584.6,77.6 L 590.0,77.4 L 595.5,77.4 L 601.0,77.4 L 606.4,77.3 L 611.9,76.1 L 617.3,75.9 L 622.8,75.7 L 628.2,75.7 L 633.7,75.3 L 639.1,73.7 L 644.6,73.5 L 650.0,73.3 L 655.5,73.3 L 660.9,72.5 L 666.4,72.3 L 671.8,72.1 L 677.3,71.6 L 682.8,70.8 L 688.2,70.8 L 693.7,70.8 L 699.1,70.8 L 704.6,70.4 L 710.0,69.8 L 715.5,69.6 L 720.9,69.0 L 726.4,68.8 L 731.8,68.6 L 737.3,67.8 L 742.7,67.2 L 748.2,67.0 L 753.6,67.0 L 759.1,65.3 L 764.5,64.7 L 770.0,64.5" fill="none" stroke="#4F8EF7" stroke-width="2.5" stroke-linejoin="round" clip-path="url(#ca)"/>
<path d="M 72.0,340 L 72.0,244.2 L 77.5,243.6 L 82.9,243.6 L 88.4,243.6 L 93.8,243.4 L 99.3,243.0 L 104.7,242.8 L 110.2,242.6 L 115.6,242.6 L 121.1,242.5 L 126.5,242.3 L 132.0,242.3 L 137.4,242.3 L 142.9,242.3 L 148.3,242.3 L 153.8,242.3 L 159.3,241.9 L 164.7,241.9 L 170.2,241.9 L 175.6,241.1 L 181.1,240.9 L 186.5,240.5 L 192.0,239.7 L 197.4,239.5 L 202.9,239.5 L 208.3,239.5 L 213.8,238.9 L 219.2,238.5 L 224.7,238.5 L 230.1,238.1 L 235.6,237.9 L 241.0,237.5 L 246.5,237.5 L 252.0,237.3 L 257.4,236.6 L 262.9,236.0 L 268.3,235.6 L 273.8,235.4 L 279.2,235.4 L 284.7,235.2 L 290.1,234.8 L 295.6,234.8 L 301.0,234.6 L 306.5,234.0 L 311.9,233.6 L 317.4,233.6 L 322.8,233.6 L 328.3,233.6 L 333.8,233.4 L 339.2,232.8 L 344.7,232.4 L 350.1,232.2 L 355.6,232.0 L 361.0,231.8 L 366.5,231.6 L 371.9,231.4 L 377.4,231.2 L 382.8,230.7 L 388.3,230.5 L 393.7,230.3 L 399.2,229.5 L 404.6,228.7 L 410.1,228.7 L 415.5,228.5 L 421.0,228.3 L 426.5,228.3 L 431.9,228.3 L 437.4,227.9 L 442.8,227.9 L 448.3,226.7 L 453.7,226.5 L 459.2,226.3 L 464.6,226.3 L 470.1,225.9 L 475.5,225.7 L 481.0,225.7 L 486.4,225.5 L 491.9,225.5 L 497.3,225.5 L 502.8,225.1 L 508.3,224.9 L 513.7,224.0 L 519.2,224.2 L 524.6,224.0 L 530.1,223.8 L 535.5,223.8 L 541.0,223.6 L 546.4,223.0 L 551.9,223.0 L 557.3,223.0 L 562.8,223.0 L 568.2,222.6 L 573.7,222.6 L 579.1,222.2 L 584.6,221.8 L 590.0,221.0 L 595.5,221.0 L 601.0,220.6 L 606.4,220.4 L 611.9,220.2 L 617.3,220.0 L 622.8,219.6 L 628.2,219.6 L 633.7,219.1 L 639.1,219.1 L 644.6,218.9 L 650.0,218.5 L 655.5,218.3 L 660.9,218.3 L 666.4,218.3 L 671.8,218.3 L 677.3,218.3 L 682.8,217.7 L 688.2,217.7 L 693.7,217.3 L 699.1,216.9 L 704.6,216.3 L 710.0,216.1 L 715.5,216.1 L 720.9,214.9 L 726.4,214.7 L 731.8,214.7 L 737.3,213.9 L 742.7,213.9 L 748.2,213.5 L 753.6,213.5 L 759.1,213.3 L 764.5,213.3 L 770.0,213.2 L 770.0,340 Z" fill="url(#g3)" clip-path="url(#ca)"/>
<path d="M 72.0,244.2 L 77.5,243.6 L 82.9,243.6 L 88.4,243.6 L 93.8,243.4 L 99.3,243.0 L 104.7,242.8 L 110.2,242.6 L 115.6,242.6 L 121.1,242.5 L 126.5,242.3 L 132.0,242.3 L 137.4,242.3 L 142.9,242.3 L 148.3,242.3 L 153.8,242.3 L 159.3,241.9 L 164.7,241.9 L 170.2,241.9 L 175.6,241.1 L 181.1,240.9 L 186.5,240.5 L 192.0,239.7 L 197.4,239.5 L 202.9,239.5 L 208.3,239.5 L 213.8,238.9 L 219.2,238.5 L 224.7,238.5 L 230.1,238.1 L 235.6,237.9 L 241.0,237.5 L 246.5,237.5 L 252.0,237.3 L 257.4,236.6 L 262.9,236.0 L 268.3,235.6 L 273.8,235.4 L 279.2,235.4 L 284.7,235.2 L 290.1,234.8 L 295.6,234.8 L 301.0,234.6 L 306.5,234.0 L 311.9,233.6 L 317.4,233.6 L 322.8,233.6 L 328.3,233.6 L 333.8,233.4 L 339.2,232.8 L 344.7,232.4 L 350.1,232.2 L 355.6,232.0 L 361.0,231.8 L 366.5,231.6 L 371.9,231.4 L 377.4,231.2 L 382.8,230.7 L 388.3,230.5 L 393.7,230.3 L 399.2,229.5 L 404.6,228.7 L 410.1,228.7 L 415.5,228.5 L 421.0,228.3 L 426.5,228.3 L 431.9,228.3 L 437.4,227.9 L 442.8,227.9 L 448.3,226.7 L 453.7,226.5 L 459.2,226.3 L 464.6,226.3 L 470.1,225.9 L 475.5,225.7 L 481.0,225.7 L 486.4,225.5 L 491.9,225.5 L 497.3,225.5 L 502.8,225.1 L 508.3,224.9 L 513.7,224.0 L 519.2,224.2 L 524.6,224.0 L 530.1,223.8 L 535.5,223.8 L 541.0,223.6 L 546.4,223.0 L 551.9,223.0 L 557.3,223.0 L 562.8,223.0 L 568.2,222.6 L 573.7,222.6 L 579.1,222.2 L 584.6,221.8 L 590.0,221.0 L 595.5,221.0 L 601.0,220.6 L 606.4,220.4 L 611.9,220.2 L 617.3,220.0 L 622.8,219.6 L 628.2,219.6 L 633.7,219.1 L 639.1,219.1 L 644.6,218.9 L 650.0,218.5 L 655.5,218.3 L 660.9,218.3 L 666.4,218.3 L 671.8,218.3 L 677.3,218.3 L 682.8,217.7 L 688.2,217.7 L 693.7,217.3 L 699.1,216.9 L 704.6,216.3 L 710.0,216.1 L 715.5,216.1 L 720.9,214.9 L 726.4,214.7 L 731.8,214.7 L 737.3,213.9 L 742.7,213.9 L 748.2,213.5 L 753.6,213.5 L 759.1,213.3 L 764.5,213.3 L 770.0,213.2" fill="none" stroke="#BF5AF2" stroke-width="2.5" stroke-linejoin="round" clip-path="url(#ca)"/>
<path d="M 72.0,340 L 72.0,291.4 L 77.5,290.8 L 82.9,290.8 L 88.4,290.8 L 93.8,290.6 L 99.3,290.2 L 104.7,290.0 L 110.2,289.7 L 115.6,289.7 L 121.1,289.5 L 126.5,289.3 L 132.0,289.3 L 137.4,289.3 L 142.9,289.3 L 148.3,289.3 L 153.8,289.3 L 159.3,288.9 L 164.7,288.9 L 170.2,289.1 L 175.6,288.5 L 181.1,288.7 L 186.5,288.1 L 192.0,287.5 L 197.4,287.3 L 202.9,287.5 L 208.3,287.5 L 213.8,286.9 L 219.2,286.7 L 224.7,286.7 L 230.1,286.3 L 235.6,286.1 L 241.0,285.7 L 246.5,285.7 L 252.0,285.5 L 257.4,284.9 L 262.9,284.3 L 268.3,283.9 L 273.8,283.9 L 279.2,283.9 L 284.7,283.8 L 290.1,283.4 L 295.6,283.4 L 301.0,283.2 L 306.5,282.6 L 311.9,282.4 L 317.4,282.4 L 322.8,282.4 L 328.3,282.4 L 333.8,282.2 L 339.2,281.6 L 344.7,281.4 L 350.1,281.2 L 355.6,281.0 L 361.0,281.0 L 366.5,280.8 L 371.9,280.8 L 377.4,280.8 L 382.8,280.2 L 388.3,280.2 L 393.7,280.2 L 399.2,279.8 L 404.6,279.2 L 410.1,279.2 L 415.5,279.0 L 421.0,278.8 L 426.5,278.8 L 431.9,278.8 L 437.4,278.4 L 442.8,278.4 L 448.3,277.3 L 453.7,277.1 L 459.2,276.9 L 464.6,276.9 L 470.1,276.7 L 475.5,276.7 L 481.0,276.7 L 486.4,276.7 L 491.9,276.7 L 497.3,276.7 L 502.8,276.3 L 508.3,276.1 L 513.7,275.1 L 519.2,275.3 L 524.6,275.3 L 530.1,275.1 L 535.5,275.1 L 541.0,275.1 L 546.4,274.7 L 551.9,274.7 L 557.3,274.7 L 562.8,274.7 L 568.2,274.7 L 573.7,274.7 L 579.1,274.5 L 584.6,274.5 L 590.0,273.7 L 595.5,273.7 L 601.0,273.5 L 606.4,273.3 L 611.9,273.1 L 617.3,272.9 L 622.8,272.5 L 628.2,272.5 L 633.7,272.0 L 639.1,272.0 L 644.6,271.8 L 650.0,271.6 L 655.5,271.6 L 660.9,271.6 L 666.4,271.6 L 671.8,271.6 L 677.3,271.6 L 682.8,271.0 L 688.2,271.0 L 693.7,270.6 L 699.1,270.2 L 704.6,269.6 L 710.0,269.4 L 715.5,269.4 L 720.9,268.4 L 726.4,268.2 L 731.8,268.2 L 737.3,267.6 L 742.7,267.6 L 748.2,267.4 L 753.6,267.4 L 759.1,267.6 L 764.5,267.8 L 770.0,267.6 L 770.0,340 Z" fill="url(#g4)" clip-path="url(#ca)"/>
<path d="M 72.0,291.4 L 77.5,290.8 L 82.9,290.8 L 88.4,290.8 L 93.8,290.6 L 99.3,290.2 L 104.7,290.0 L 110.2,289.7 L 115.6,289.7 L 121.1,289.5 L 126.5,289.3 L 132.0,289.3 L 137.4,289.3 L 142.9,289.3 L 148.3,289.3 L 153.8,289.3 L 159.3,288.9 L 164.7,288.9 L 170.2,289.1 L 175.6,288.5 L 181.1,288.7 L 186.5,288.1 L 192.0,287.5 L 197.4,287.3 L 202.9,287.5 L 208.3,287.5 L 213.8,286.9 L 219.2,286.7 L 224.7,286.7 L 230.1,286.3 L 235.6,286.1 L 241.0,285.7 L 246.5,285.7 L 252.0,285.5 L 257.4,284.9 L 262.9,284.3 L 268.3,283.9 L 273.8,283.9 L 279.2,283.9 L 284.7,283.8 L 290.1,283.4 L 295.6,283.4 L 301.0,283.2 L 306.5,282.6 L 311.9,282.4 L 317.4,282.4 L 322.8,282.4 L 328.3,282.4 L 333.8,282.2 L 339.2,281.6 L 344.7,281.4 L 350.1,281.2 L 355.6,281.0 L 361.0,281.0 L 366.5,280.8 L 371.9,280.8 L 377.4,280.8 L 382.8,280.2 L 388.3,280.2 L 393.7,280.2 L 399.2,279.8 L 404.6,279.2 L 410.1,279.2 L 415.5,279.0 L 421.0,278.8 L 426.5,278.8 L 431.9,278.8 L 437.4,278.4 L 442.8,278.4 L 448.3,277.3 L 453.7,277.1 L 459.2,276.9 L 464.6,276.9 L 470.1,276.7 L 475.5,276.7 L 481.0,276.7 L 486.4,276.7 L 491.9,276.7 L 497.3,276.7 L 502.8,276.3 L 508.3,276.1 L 513.7,275.1 L 519.2,275.3 L 524.6,275.3 L 530.1,275.1 L 535.5,275.1 L 541.0,275.1 L 546.4,274.7 L 551.9,274.7 L 557.3,274.7 L 562.8,274.7 L 568.2,274.7 L 573.7,274.7 L 579.1,274.5 L 584.6,274.5 L 590.0,273.7 L 595.5,273.7 L 601.0,273.5 L 606.4,273.3 L 611.9,273.1 L 617.3,272.9 L 622.8,272.5 L 628.2,272.5 L 633.7,272.0 L 639.1,272.0 L 644.6,271.8 L 650.0,271.6 L 655.5,271.6 L 660.9,271.6 L 666.4,271.6 L 671.8,271.6 L 677.3,271.6 L 682.8,271.0 L 688.2,271.0 L 693.7,270.6 L 699.1,270.2 L 704.6,269.6 L 710.0,269.4 L 715.5,269.4 L 720.9,268.4 L 726.4,268.2 L 731.8,268.2 L 737.3,267.6 L 742.7,267.6 L 748.2,267.4 L 753.6,267.4 L 759.1,267.6 L 764.5,267.8 L 770.0,267.6" fill="none" stroke="#34C759" stroke-width="2.5" stroke-linejoin="round" clip-path="url(#ca)"/>
<text x="102.0" y="55.0" text-anchor="middle" font-size="9" fill="#4F8EF7" opacity="0.85" clip-path="url(#ca)">+0.5% (+8)</text>
<text x="102.0" y="66.0" text-anchor="middle" font-size="9" fill="#BF5AF2" opacity="0.85" clip-path="url(#ca)">+1.0% (+10)</text>
<text x="102.0" y="77.0" text-anchor="middle" font-size="9" fill="#34C759" opacity="0.85" clip-path="url(#ca)">+1.5% (+11)</text>
<text x="205.6" y="55.0" text-anchor="middle" font-size="9" fill="#4F8EF7" opacity="0.85" clip-path="url(#ca)">+4.0% (+65)</text>
<text x="205.6" y="66.0" text-anchor="middle" font-size="9" fill="#BF5AF2" opacity="0.85" clip-path="url(#ca)">+3.5% (+35)</text>
<text x="205.6" y="77.0" text-anchor="middle" font-size="9" fill="#34C759" opacity="0.85" clip-path="url(#ca)">+3.6% (+27)</text>
<text x="350.1" y="55.0" text-anchor="middle" font-size="9" fill="#4F8EF7" opacity="0.85" clip-path="url(#ca)">+4.1% (+70)</text>
<text x="350.1" y="66.0" text-anchor="middle" font-size="9" fill="#BF5AF2" opacity="0.85" clip-path="url(#ca)">+3.5% (+36)</text>
<text x="350.1" y="77.0" text-anchor="middle" font-size="9" fill="#34C759" opacity="0.85" clip-path="url(#ca)">+3.3% (+26)</text>
<text x="497.3" y="55.0" text-anchor="middle" font-size="9" fill="#4F8EF7" opacity="0.85" clip-path="url(#ca)">+3.5% (+61)</text>
<text x="497.3" y="66.0" text-anchor="middle" font-size="9" fill="#BF5AF2" opacity="0.85" clip-path="url(#ca)">+2.7% (+29)</text>
<text x="497.3" y="77.0" text-anchor="middle" font-size="9" fill="#34C759" opacity="0.85" clip-path="url(#ca)">+2.6% (+21)</text>
<text x="644.6" y="55.0" text-anchor="middle" font-size="9" fill="#4F8EF7" opacity="0.85" clip-path="url(#ca)">+2.7% (+49)</text>
<text x="644.6" y="66.0" text-anchor="middle" font-size="9" fill="#BF5AF2" opacity="0.85" clip-path="url(#ca)">+3.0% (+33)</text>
<text x="644.6" y="77.0" text-anchor="middle" font-size="9" fill="#34C759" opacity="0.85" clip-path="url(#ca)">+3.2% (+27)</text>
<text x="745.5" y="55.0" text-anchor="middle" font-size="9" fill="#4F8EF7" opacity="0.85" clip-path="url(#ca)">+1.2% (+23)</text>
<text x="745.5" y="66.0" text-anchor="middle" font-size="9" fill="#BF5AF2" opacity="0.85" clip-path="url(#ca)">+0.8% (+9)</text>
<text x="745.5" y="77.0" text-anchor="middle" font-size="9" fill="#34C759" opacity="0.85" clip-path="url(#ca)">+0.5% (+4)</text>
<rect x="211" y="369" width="12" height="12" fill="#4F8EF7" rx="2"/>
<text x="227" y="379" font-size="12" fill="#111827">Authors</text>
<rect x="351" y="369" width="12" height="12" fill="#BF5AF2" rx="2"/>
<text x="367" y="379" font-size="12" fill="#111827">Contributors</text>
<rect x="491" y="369" width="12" height="12" fill="#34C759" rx="2"/>
<text x="507" y="379" font-size="12" fill="#111827">Non-author contributors</text>
<text x="72" y="394" font-size="8" fill="#e5e7eb">data since Dec 11, 2025</text>
</svg>