<svg xmlns="http://www.w3.org/2000/svg" width="800" height="400" viewBox="0 0 800 400">
<defs><style>text { font-family: -apple-system, BlinkMacSystemFont, 'Segoe UI', Roboto, sans-serif; }</style></defs>
<rect width="800" height="400" fill="#ffffff" rx="12"/>
<text x="400" y="26" text-anchor="middle" font-size="15" font-weight="600" fill="#111827">Packages by Last Updated Quarter</text>
<text x="400" y="44" text-anchor="middle" font-size="11" fill="#6b7280">last updated at · 2,864 packages with a known last-update date</text>
<line x1="60" y1="58" x2="60" y2="320" stroke="#e5e7eb" stroke-width="1"/>
<line x1="60" y1="320" x2="770" y2="320" stroke="#e5e7eb" stroke-width="1"/>
<text x="-189" y="18" text-anchor="middle" font-size="12" fill="#6b7280" transform="rotate(-90)">Number of packages</text>
<line x1="60" y1="320.0" x2="770" y2="320.0" stroke="#f3f4f6" stroke-width="1"/>
<text x="54" y="324.0" text-anchor="end" font-size="11" fill="#6b7280">0</text>
<line x1="60" y1="267.5" x2="770" y2="267.5" stroke="#f3f4f6" stroke-width="1"/>
<text x="54" y="271.5" text-anchor="end" font-size="11" fill="#6b7280">134</text>
<line x1="60" y1="215.0" x2="770" y2="215.0" stroke="#f3f4f6" stroke-width="1"/>
<text x="54" y="219.0" text-anchor="end" font-size="11" fill="#6b7280">268</text>
<line x1="60" y1="163.0" x2="770" y2="163.0" stroke="#f3f4f6" stroke-width="1"/>
<text x="54" y="167.0" text-anchor="end" font-size="11" fill="#6b7280">401</text>
<line x1="60" y1="110.5" x2="770" y2="110.5" stroke="#f3f4f6" stroke-width="1"/>
<text x="54" y="114.5" text-anchor="end" font-size="11" fill="#6b7280">535</text>
<line x1="60" y1="58.0" x2="770" y2="58.0" stroke="#f3f4f6" stroke-width="1"/>
<text x="54" y="62.0" text-anchor="end" font-size="11" fill="#6b7280">669</text>
<rect x="66.5" y="314.5" width="24.3" height="5.5" fill="#34C759" rx="3" opacity="0.85"/>
<text x="78.7" y="298.5" text-anchor="middle" font-size="10" fill="#6b7280">14</text>
<text x="78.7" y="310.5" text-anchor="middle" font-size="10" fill="#6b7280">(0.49%)</text>
<g transform="translate(78.7,330.0) rotate(-45)"><text text-anchor="end" font-size="10" fill="#111827">2021-Q4</text></g>
<rect x="103.9" y="308.6" width="24.3" height="11.4" fill="#34C759" rx="3" opacity="0.85"/>
<text x="116.1" y="292.6" text-anchor="middle" font-size="10" fill="#6b7280">29</text>
<text x="116.1" y="304.6" text-anchor="middle" font-size="10" fill="#6b7280">(1.01%)</text>
<g transform="translate(116.1,330.0) rotate(-45)"><text text-anchor="end" font-size="10" fill="#111827">2022-Q1</text></g>
<rect x="141.3" y="305.9" width="24.3" height="14.1" fill="#34C759" rx="3" opacity="0.85"/>
<text x="153.4" y="289.9" text-anchor="middle" font-size="10" fill="#6b7280">36</text>
<text x="153.4" y="301.9" text-anchor="middle" font-size="10" fill="#6b7280">(1.26%)</text>
<g transform="translate(153.4,330.0) rotate(-45)"><text text-anchor="end" font-size="10" fill="#111827">2022-Q2</text></g>
<rect x="178.6" y="303.6" width="24.3" height="16.4" fill="#34C759" rx="3" opacity="0.85"/>
<text x="190.8" y="287.6" text-anchor="middle" font-size="10" fill="#6b7280">42</text>
<text x="190.8" y="299.6" text-anchor="middle" font-size="10" fill="#6b7280">(1.47%)</text>
<g transform="translate(190.8,330.0) rotate(-45)"><text text-anchor="end" font-size="10" fill="#111827">2022-Q3</text></g>
<rect x="216.0" y="295.3" width="24.3" height="24.7" fill="#34C759" rx="3" opacity="0.85"/>
<text x="228.2" y="279.3" text-anchor="middle" font-size="10" fill="#6b7280">63</text>
<text x="228.2" y="291.3" text-anchor="middle" font-size="10" fill="#6b7280">(2.20%)</text>
<g transform="translate(228.2,330.0) rotate(-45)"><text text-anchor="end" font-size="10" fill="#111827">2022-Q4</text></g>
<rect x="253.4" y="284.4" width="24.3" height="35.6" fill="#34C759" rx="3" opacity="0.85"/>
<text x="265.5" y="268.4" text-anchor="middle" font-size="10" fill="#6b7280">91</text>
<text x="265.5" y="280.4" text-anchor="middle" font-size="10" fill="#6b7280">(3.18%)</text>
<g transform="translate(265.5,330.0) rotate(-45)"><text text-anchor="end" font-size="10" fill="#111827">2023-Q1</text></g>
<rect x="290.8" y="284.4" width="24.3" height="35.6" fill="#34C759" rx="3" opacity="0.85"/>
<text x="302.9" y="268.4" text-anchor="middle" font-size="10" fill="#6b7280">91</text>
<text x="302.9" y="280.4" text-anchor="middle" font-size="10" fill="#6b7280">(3.18%)</text>
<g transform="translate(302.9,330.0) rotate(-45)"><text text-anchor="end" font-size="10" fill="#111827">2023-Q2</text></g>
<rect x="328.1" y="285.9" width="24.3" height="34.1" fill="#34C759" rx="3" opacity="0.85"/>
<text x="340.3" y="269.9" text-anchor="middle" font-size="10" fill="#6b7280">87</text>
<text x="340.3" y="281.9" text-anchor="middle" font-size="10" fill="#6b7280">(3.04%)</text>
<g transform="translate(340.3,330.0) rotate(-45)"><text text-anchor="end" font-size="10" fill="#111827">2023-Q3</text></g>
<rect x="365.5" y="293.0" width="24.3" height="27.0" fill="#34C759" rx="3" opacity="0.85"/>
<text x="377.6" y="277.0" text-anchor="middle" font-size="10" fill="#6b7280">69</text>
<text x="377.6" y="289.0" text-anchor="middle" font-size="10" fill="#6b7280">(2.41%)</text>
<g transform="translate(377.6,330.0) rotate(-45)"><text text-anchor="end" font-size="10" fill="#111827">2023-Q4</text></g>
<rect x="402.9" y="272.2" width="24.3" height="47.8" fill="#34C759" rx="3" opacity="0.85"/>
<text x="415.0" y="256.2" text-anchor="middle" font-size="10" fill="#6b7280">122</text>
<text x="415.0" y="268.2" text-anchor="middle" font-size="10" fill="#6b7280">(4.26%)</text>
<g transform="translate(415.0,330.0) rotate(-45)"><text text-anchor="end" font-size="10" fill="#111827">2024-Q1</text></g>
<rect x="440.2" y="267.1" width="24.3" height="52.9" fill="#34C759" rx="3" opacity="0.85"/>
<text x="452.4" y="251.1" text-anchor="middle" font-size="10" fill="#6b7280">135</text>
<text x="452.4" y="263.1" text-anchor="middle" font-size="10" fill="#6b7280">(4.71%)</text>
<g transform="translate(452.4,330.0) rotate(-45)"><text text-anchor="end" font-size="10" fill="#111827">2024-Q2</text></g>
<rect x="477.6" y="269.5" width="24.3" height="50.5" fill="#34C759" rx="3" opacity="0.85"/>
<text x="489.7" y="253.5" text-anchor="middle" font-size="10" fill="#6b7280">129</text>
<text x="489.7" y="265.5" text-anchor="middle" font-size="10" fill="#6b7280">(4.50%)</text>
<g transform="translate(489.7,330.0) rotate(-45)"><text text-anchor="end" font-size="10" fill="#111827">2024-Q3</text></g>
<rect x="515.0" y="267.5" width="24.3" height="52.5" fill="#34C759" rx="3" opacity="0.85"/>
<text x="527.1" y="251.5" text-anchor="middle" font-size="10" fill="#6b7280">134</text>
<text x="527.1" y="263.5" text-anchor="middle" font-size="10" fill="#6b7280">(4.68%)</text>
<g transform="translate(527.1,330.0) rotate(-45)"><text text-anchor="end" font-size="10" fill="#111827">2024-Q4</text></g>
<rect x="552.3" y="239.7" width="24.3" height="80.3" fill="#34C759" rx="3" opacity="0.85"/>
<text x="564.5" y="223.7" text-anchor="middle" font-size="10" fill="#6b7280">205</text>
<text x="564.5" y="235.7" text-anchor="middle" font-size="10" fill="#6b7280">(7.16%)</text>
<g transform="translate(564.5,330.0) rotate(-45)"><text text-anchor="end" font-size="10" fill="#111827">2025-Q1</text></g>
<rect x="589.7" y="233.8" width="24.3" height="86.2" fill="#34C759" rx="3" opacity="0.85"/>
<text x="601.8" y="217.8" text-anchor="middle" font-size="10" fill="#6b7280">220</text>
<text x="601.8" y="229.8" text-anchor="middle" font-size="10" fill="#6b7280">(7.68%)</text>
<g transform="translate(601.8,330.0) rotate(-45)"><text text-anchor="end" font-size="10" fill="#111827">2025-Q2</text></g>
<rect x="627.1" y="234.6" width="24.3" height="85.4" fill="#34C759" rx="3" opacity="0.85"/>
<text x="639.2" y="218.6" text-anchor="middle" font-size="10" fill="#6b7280">218</text>
<text x="639.2" y="230.6" text-anchor="middle" font-size="10" fill="#6b7280">(7.61%)</text>
<g transform="translate(639.2,330.0) rotate(-45)"><text text-anchor="end" font-size="10" fill="#111827">2025-Q3</text></g>
<rect x="664.4" y="197.8" width="24.3" height="122.2" fill="#34C759" rx="3" opacity="0.85"/>
<text x="676.6" y="181.8" text-anchor="middle" font-size="10" fill="#6b7280">312</text>
<text x="676.6" y="193.8" text-anchor="middle" font-size="10" fill="#6b7280">(10.89%)</text>
<g transform="translate(676.6,330.0) rotate(-45)"><text text-anchor="end" font-size="10" fill="#111827">2025-Q4</text></g>
<rect x="701.8" y="58.0" width="24.3" height="262.0" fill="#34C759" rx="3" opacity="0.85"/>
<text x="713.9" y="72.0" text-anchor="middle" font-size="10" fill="#6b7280">669</text>
<text x="713.9" y="84.0" text-anchor="middle" font-size="10" fill="#6b7280">(23.36%)</text>
<g transform="translate(713.9,330.0) rotate(-45)"><text text-anchor="end" font-size="10" fill="#111827">2026-Q1</text></g>
<rect x="739.2" y="242.5" width="24.3" height="77.5" fill="#34C759" rx="3" opacity="0.85"/>
<text x="751.3" y="226.5" text-anchor="middle" font-size="10" fill="#6b7280">198</text>
<text x="751.3" y="238.5" text-anchor="middle" font-size="10" fill="#6b7280">(6.91%)</text>
<g transform="translate(751.3,330.0) rotate(-45)"><text text-anchor="end" font-size="10" fill="#111827">2026-Q2</text></g>
</svg>