<svg xmlns="http://www.w3.org/2000/svg" width="800" height="400" viewBox="0 0 800 400">
<defs><style>text { font-family: -apple-system, BlinkMacSystemFont, 'Segoe UI', Roboto, sans-serif; }</style></defs>
<rect width="800" height="400" fill="#ffffff" rx="12"/>
<text x="400" y="26" text-anchor="middle" font-size="15" font-weight="600" fill="#111827">Packages by Last Updated Quarter</text>
<text x="400" y="44" text-anchor="middle" font-size="11" fill="#6b7280">last updated at · 3,016 packages with a known last-update date</text>
<line x1="60" y1="58" x2="60" y2="320" stroke="#e5e7eb" stroke-width="1"/>
<line x1="60" y1="320" x2="770" y2="320" stroke="#e5e7eb" stroke-width="1"/>
<text x="-189" y="18" text-anchor="middle" font-size="12" fill="#6b7280" transform="rotate(-90)">Number of packages</text>
<line x1="60" y1="320.0" x2="770" y2="320.0" stroke="#f3f4f6" stroke-width="1"/>
<text x="54" y="324.0" text-anchor="end" font-size="11" fill="#6b7280">0</text>
<line x1="60" y1="267.4" x2="770" y2="267.4" stroke="#f3f4f6" stroke-width="1"/>
<text x="54" y="271.4" text-anchor="end" font-size="11" fill="#6b7280">127</text>
<line x1="60" y1="215.3" x2="770" y2="215.3" stroke="#f3f4f6" stroke-width="1"/>
<text x="54" y="219.3" text-anchor="end" font-size="11" fill="#6b7280">253</text>
<line x1="60" y1="162.7" x2="770" y2="162.7" stroke="#f3f4f6" stroke-width="1"/>
<text x="54" y="166.7" text-anchor="end" font-size="11" fill="#6b7280">380</text>
<line x1="60" y1="110.6" x2="770" y2="110.6" stroke="#f3f4f6" stroke-width="1"/>
<text x="54" y="114.6" text-anchor="end" font-size="11" fill="#6b7280">506</text>
<line x1="60" y1="58.0" x2="770" y2="58.0" stroke="#f3f4f6" stroke-width="1"/>
<text x="54" y="62.0" text-anchor="end" font-size="11" fill="#6b7280">633</text>
<rect x="66.5" y="314.6" width="24.3" height="5.4" fill="#34C759" rx="3" opacity="0.85"/>
<text x="78.7" y="298.6" text-anchor="middle" font-size="10" fill="#6b7280">13</text>
<text x="78.7" y="310.6" text-anchor="middle" font-size="10" fill="#6b7280">(0.43%)</text>
<g transform="translate(78.7,330.0) rotate(-45)"><text text-anchor="end" font-size="10" fill="#111827">2021-Q4</text></g>
<rect x="103.9" y="308.4" width="24.3" height="11.6" fill="#34C759" rx="3" opacity="0.85"/>
<text x="116.1" y="292.4" text-anchor="middle" font-size="10" fill="#6b7280">28</text>
<text x="116.1" y="304.4" text-anchor="middle" font-size="10" fill="#6b7280">(0.93%)</text>
<g transform="translate(116.1,330.0) rotate(-45)"><text text-anchor="end" font-size="10" fill="#111827">2022-Q1</text></g>
<rect x="141.3" y="305.5" width="24.3" height="14.5" fill="#34C759" rx="3" opacity="0.85"/>
<text x="153.4" y="289.5" text-anchor="middle" font-size="10" fill="#6b7280">35</text>
<text x="153.4" y="301.5" text-anchor="middle" font-size="10" fill="#6b7280">(1.16%)</text>
<g transform="translate(153.4,330.0) rotate(-45)"><text text-anchor="end" font-size="10" fill="#111827">2022-Q2</text></g>
<rect x="178.6" y="303.9" width="24.3" height="16.1" fill="#34C759" rx="3" opacity="0.85"/>
<text x="190.8" y="287.9" text-anchor="middle" font-size="10" fill="#6b7280">39</text>
<text x="190.8" y="299.9" text-anchor="middle" font-size="10" fill="#6b7280">(1.29%)</text>
<g transform="translate(190.8,330.0) rotate(-45)"><text text-anchor="end" font-size="10" fill="#111827">2022-Q3</text></g>
<rect x="216.0" y="294.3" width="24.3" height="25.7" fill="#34C759" rx="3" opacity="0.85"/>
<text x="228.2" y="278.3" text-anchor="middle" font-size="10" fill="#6b7280">62</text>
<text x="228.2" y="290.3" text-anchor="middle" font-size="10" fill="#6b7280">(2.06%)</text>
<g transform="translate(228.2,330.0) rotate(-45)"><text text-anchor="end" font-size="10" fill="#111827">2022-Q4</text></g>
<rect x="253.4" y="283.6" width="24.3" height="36.4" fill="#34C759" rx="3" opacity="0.85"/>
<text x="265.5" y="267.6" text-anchor="middle" font-size="10" fill="#6b7280">88</text>
<text x="265.5" y="279.6" text-anchor="middle" font-size="10" fill="#6b7280">(2.92%)</text>
<g transform="translate(265.5,330.0) rotate(-45)"><text text-anchor="end" font-size="10" fill="#111827">2023-Q1</text></g>
<rect x="290.8" y="283.2" width="24.3" height="36.8" fill="#34C759" rx="3" opacity="0.85"/>
<text x="302.9" y="267.2" text-anchor="middle" font-size="10" fill="#6b7280">89</text>
<text x="302.9" y="279.2" text-anchor="middle" font-size="10" fill="#6b7280">(2.95%)</text>
<g transform="translate(302.9,330.0) rotate(-45)"><text text-anchor="end" font-size="10" fill="#111827">2023-Q2</text></g>
<rect x="328.1" y="286.9" width="24.3" height="33.1" fill="#34C759" rx="3" opacity="0.85"/>
<text x="340.3" y="270.9" text-anchor="middle" font-size="10" fill="#6b7280">80</text>
<text x="340.3" y="282.9" text-anchor="middle" font-size="10" fill="#6b7280">(2.65%)</text>
<g transform="translate(340.3,330.0) rotate(-45)"><text text-anchor="end" font-size="10" fill="#111827">2023-Q3</text></g>
<rect x="365.5" y="294.3" width="24.3" height="25.7" fill="#34C759" rx="3" opacity="0.85"/>
<text x="377.6" y="278.3" text-anchor="middle" font-size="10" fill="#6b7280">62</text>
<text x="377.6" y="290.3" text-anchor="middle" font-size="10" fill="#6b7280">(2.06%)</text>
<g transform="translate(377.6,330.0) rotate(-45)"><text text-anchor="end" font-size="10" fill="#111827">2023-Q4</text></g>
<rect x="402.9" y="275.3" width="24.3" height="44.7" fill="#34C759" rx="3" opacity="0.85"/>
<text x="415.0" y="259.3" text-anchor="middle" font-size="10" fill="#6b7280">108</text>
<text x="415.0" y="271.3" text-anchor="middle" font-size="10" fill="#6b7280">(3.58%)</text>
<g transform="translate(415.0,330.0) rotate(-45)"><text text-anchor="end" font-size="10" fill="#111827">2024-Q1</text></g>
<rect x="440.2" y="268.3" width="24.3" height="51.7" fill="#34C759" rx="3" opacity="0.85"/>
<text x="452.4" y="252.3" text-anchor="middle" font-size="10" fill="#6b7280">125</text>
<text x="452.4" y="264.3" text-anchor="middle" font-size="10" fill="#6b7280">(4.14%)</text>
<g transform="translate(452.4,330.0) rotate(-45)"><text text-anchor="end" font-size="10" fill="#111827">2024-Q2</text></g>
<rect x="477.6" y="269.5" width="24.3" height="50.5" fill="#34C759" rx="3" opacity="0.85"/>
<text x="489.7" y="253.5" text-anchor="middle" font-size="10" fill="#6b7280">122</text>
<text x="489.7" y="265.5" text-anchor="middle" font-size="10" fill="#6b7280">(4.05%)</text>
<g transform="translate(489.7,330.0) rotate(-45)"><text text-anchor="end" font-size="10" fill="#111827">2024-Q3</text></g>
<rect x="515.0" y="272.8" width="24.3" height="47.2" fill="#34C759" rx="3" opacity="0.85"/>
<text x="527.1" y="256.8" text-anchor="middle" font-size="10" fill="#6b7280">114</text>
<text x="527.1" y="268.8" text-anchor="middle" font-size="10" fill="#6b7280">(3.78%)</text>
<g transform="translate(527.1,330.0) rotate(-45)"><text text-anchor="end" font-size="10" fill="#111827">2024-Q4</text></g>
<rect x="552.3" y="241.8" width="24.3" height="78.2" fill="#34C759" rx="3" opacity="0.85"/>
<text x="564.5" y="225.8" text-anchor="middle" font-size="10" fill="#6b7280">189</text>
<text x="564.5" y="237.8" text-anchor="middle" font-size="10" fill="#6b7280">(6.27%)</text>
<g transform="translate(564.5,330.0) rotate(-45)"><text text-anchor="end" font-size="10" fill="#111827">2025-Q1</text></g>
<rect x="589.7" y="234.7" width="24.3" height="85.3" fill="#34C759" rx="3" opacity="0.85"/>
<text x="601.8" y="218.7" text-anchor="middle" font-size="10" fill="#6b7280">206</text>
<text x="601.8" y="230.7" text-anchor="middle" font-size="10" fill="#6b7280">(6.83%)</text>
<g transform="translate(601.8,330.0) rotate(-45)"><text text-anchor="end" font-size="10" fill="#111827">2025-Q2</text></g>
<rect x="627.1" y="238.0" width="24.3" height="82.0" fill="#34C759" rx="3" opacity="0.85"/>
<text x="639.2" y="222.0" text-anchor="middle" font-size="10" fill="#6b7280">198</text>
<text x="639.2" y="234.0" text-anchor="middle" font-size="10" fill="#6b7280">(6.56%)</text>
<g transform="translate(639.2,330.0) rotate(-45)"><text text-anchor="end" font-size="10" fill="#111827">2025-Q3</text></g>
<rect x="664.4" y="202.5" width="24.3" height="117.5" fill="#34C759" rx="3" opacity="0.85"/>
<text x="676.6" y="186.5" text-anchor="middle" font-size="10" fill="#6b7280">284</text>
<text x="676.6" y="198.5" text-anchor="middle" font-size="10" fill="#6b7280">(9.42%)</text>
<g transform="translate(676.6,330.0) rotate(-45)"><text text-anchor="end" font-size="10" fill="#111827">2025-Q4</text></g>
<rect x="701.8" y="96.1" width="24.3" height="223.9" fill="#34C759" rx="3" opacity="0.85"/>
<text x="713.9" y="80.1" text-anchor="middle" font-size="10" fill="#6b7280">541</text>
<text x="713.9" y="92.1" text-anchor="middle" font-size="10" fill="#6b7280">(17.94%)</text>
<g transform="translate(713.9,330.0) rotate(-45)"><text text-anchor="end" font-size="10" fill="#111827">2026-Q1</text></g>
<rect x="739.2" y="58.0" width="24.3" height="262.0" fill="#34C759" rx="3" opacity="0.85"/>
<text x="751.3" y="72.0" text-anchor="middle" font-size="10" fill="#6b7280">633</text>
<text x="751.3" y="84.0" text-anchor="middle" font-size="10" fill="#6b7280">(20.99%)</text>
<g transform="translate(751.3,330.0) rotate(-45)"><text text-anchor="end" font-size="10" fill="#111827">2026-Q2</text></g>
</svg>