<svg xmlns="http://www.w3.org/2000/svg" width="800" height="400" viewBox="0 0 800 400">
<defs>
  <style>text { font-family: -apple-system, BlinkMacSystemFont, 'Segoe UI', Roboto, sans-serif; }</style>
  <linearGradient id="g2" x1="0" y1="0" x2="0" y2="1">
  <stop offset="0%" stop-color="#4F8EF7" stop-opacity="0.25"/>
  <stop offset="100%" stop-color="#4F8EF7" stop-opacity="0"/>
</linearGradient>
<linearGradient id="g3" x1="0" y1="0" x2="0" y2="1">
  <stop offset="0%" stop-color="#BF5AF2" stop-opacity="0.25"/>
  <stop offset="100%" stop-color="#BF5AF2" stop-opacity="0"/>
</linearGradient>
<linearGradient id="g4" x1="0" y1="0" x2="0" y2="1">
  <stop offset="0%" stop-color="#34C759" stop-opacity="0.25"/>
  <stop offset="100%" stop-color="#34C759" stop-opacity="0"/>
</linearGradient>
  <clipPath id="ca"><rect x="72" y="45" width="698" height="295"/></clipPath>
</defs>
<rect width="800" height="400" fill="#ffffff" rx="12"/>
<text x="400" y="26" text-anchor="middle" font-size="15" font-weight="600" fill="#111827">Community Growth Over Time</text>
<line x1="72" y1="340.0" x2="770" y2="340.0" stroke="#f3f4f6" stroke-width="1"/>
<text x="66" y="344.0" text-anchor="end" font-size="11" fill="#6b7280">500</text>
<line x1="72" y1="241.7" x2="770" y2="241.7" stroke="#f3f4f6" stroke-width="1"/>
<text x="66" y="245.7" text-anchor="end" font-size="11" fill="#6b7280">1.0k</text>
<line x1="72" y1="143.3" x2="770" y2="143.3" stroke="#f3f4f6" stroke-width="1"/>
<text x="66" y="147.3" text-anchor="end" font-size="11" fill="#6b7280">1.5k</text>
<line x1="72" y1="45.0" x2="770" y2="45.0" stroke="#f3f4f6" stroke-width="1"/>
<text x="66" y="49.0" text-anchor="end" font-size="11" fill="#6b7280">2.0k</text>
<line x1="139.5" y1="45" x2="139.5" y2="340" stroke="#e5e7eb" stroke-width="1" stroke-dasharray="3,3" clip-path="url(#ca)"/>
<line x1="285.9" y1="45" x2="285.9" y2="340" stroke="#e5e7eb" stroke-width="1" stroke-dasharray="3,3" clip-path="url(#ca)"/>
<line x1="437.9" y1="45" x2="437.9" y2="340" stroke="#e5e7eb" stroke-width="1" stroke-dasharray="3,3" clip-path="url(#ca)"/>
<line x1="589.9" y1="45" x2="589.9" y2="340" stroke="#e5e7eb" stroke-width="1" stroke-dasharray="3,3" clip-path="url(#ca)"/>
<line x1="741.9" y1="45" x2="741.9" y2="340" stroke="#e5e7eb" stroke-width="1" stroke-dasharray="3,3" clip-path="url(#ca)"/>
<text x="72.0" y="358.0" text-anchor="middle" font-size="11" fill="#6b7280">Dec 11</text>
<text x="212.7" y="358.0" text-anchor="middle" font-size="11" fill="#6b7280">Jan 18</text>
<text x="353.5" y="358.0" text-anchor="middle" font-size="11" fill="#6b7280">Feb 13</text>
<text x="488.5" y="358.0" text-anchor="middle" font-size="11" fill="#6b7280">Mar 11</text>
<text x="629.3" y="358.0" text-anchor="middle" font-size="11" fill="#6b7280">Apr 9</text>
<text x="770.0" y="358.0" text-anchor="middle" font-size="11" fill="#6b7280">May 8</text>
<line x1="72" y1="45" x2="72" y2="340" stroke="#e5e7eb" stroke-width="1"/>
<line x1="72" y1="340" x2="770" y2="340" stroke="#e5e7eb" stroke-width="1"/>
<text x="-192.5" y="18" text-anchor="middle" font-size="12" fill="#6b7280" transform="rotate(-90)">People</text>
<path d="M 72.0,340 L 72.0,120.1 L 77.6,120.1 L 83.3,120.1 L 88.9,119.5 L 94.5,119.5 L 100.1,119.1 L 105.8,118.9 L 111.4,119.1 L 117.0,118.6 L 122.7,118.6 L 128.3,118.6 L 133.9,118.6 L 139.5,118.6 L 145.2,118.6 L 150.8,118.6 L 156.4,118.6 L 162.1,118.4 L 167.7,117.8 L 173.3,116.6 L 179.0,116.0 L 184.6,115.8 L 190.2,115.8 L 195.8,115.2 L 201.5,113.8 L 207.1,113.0 L 212.7,113.0 L 218.4,112.1 L 224.0,111.7 L 229.6,110.9 L 235.2,110.3 L 240.9,109.7 L 246.5,109.1 L 252.1,109.1 L 257.8,107.7 L 263.4,106.9 L 269.0,106.9 L 274.6,106.2 L 280.3,105.8 L 285.9,105.6 L 291.5,105.4 L 297.2,105.4 L 302.8,104.8 L 308.4,102.4 L 314.0,101.0 L 319.7,100.3 L 325.3,100.1 L 330.9,99.7 L 336.6,98.9 L 342.2,98.5 L 347.8,98.1 L 353.5,97.7 L 359.1,97.3 L 364.7,96.9 L 370.3,96.9 L 376.0,95.0 L 381.6,95.0 L 387.2,94.8 L 392.9,94.6 L 398.5,94.2 L 404.1,94.2 L 409.7,93.2 L 415.4,92.0 L 421.0,91.6 L 426.6,92.0 L 432.3,91.8 L 437.9,91.6 L 443.5,91.6 L 449.1,91.2 L 454.8,90.4 L 460.4,90.0 L 466.0,89.6 L 471.7,89.4 L 477.3,89.4 L 482.9,88.7 L 488.5,88.3 L 494.2,88.3 L 499.8,86.7 L 505.4,86.7 L 511.1,86.7 L 516.7,86.7 L 522.3,86.5 L 528.0,85.9 L 533.6,85.1 L 539.2,84.7 L 544.8,84.7 L 550.5,84.3 L 556.1,82.8 L 561.7,81.8 L 567.4,81.6 L 573.0,81.4 L 578.6,80.8 L 584.2,79.6 L 589.9,79.2 L 595.5,78.8 L 601.1,77.6 L 606.8,77.4 L 612.4,77.4 L 618.0,77.4 L 623.6,77.3 L 629.3,76.1 L 634.9,75.9 L 640.5,75.7 L 646.2,75.7 L 651.8,75.3 L 657.4,73.7 L 663.0,73.5 L 668.7,73.3 L 674.3,73.3 L 679.9,72.5 L 685.6,72.3 L 691.2,72.1 L 696.8,71.6 L 702.5,70.8 L 708.1,70.8 L 713.7,70.8 L 719.3,70.8 L 725.0,70.4 L 730.6,69.8 L 736.2,69.6 L 741.9,69.0 L 747.5,68.8 L 753.1,68.6 L 758.7,67.8 L 764.4,67.2 L 770.0,67.0 L 770.0,340 Z" fill="url(#g2)" clip-path="url(#ca)"/>
<path d="M 72.0,120.1 L 77.6,120.1 L 83.3,120.1 L 88.9,119.5 L 94.5,119.5 L 100.1,119.1 L 105.8,118.9 L 111.4,119.1 L 117.0,118.6 L 122.7,118.6 L 128.3,118.6 L 133.9,118.6 L 139.5,118.6 L 145.2,118.6 L 150.8,118.6 L 156.4,118.6 L 162.1,118.4 L 167.7,117.8 L 173.3,116.6 L 179.0,116.0 L 184.6,115.8 L 190.2,115.8 L 195.8,115.2 L 201.5,113.8 L 207.1,113.0 L 212.7,113.0 L 218.4,112.1 L 224.0,111.7 L 229.6,110.9 L 235.2,110.3 L 240.9,109.7 L 246.5,109.1 L 252.1,109.1 L 257.8,107.7 L 263.4,106.9 L 269.0,106.9 L 274.6,106.2 L 280.3,105.8 L 285.9,105.6 L 291.5,105.4 L 297.2,105.4 L 302.8,104.8 L 308.4,102.4 L 314.0,101.0 L 319.7,100.3 L 325.3,100.1 L 330.9,99.7 L 336.6,98.9 L 342.2,98.5 L 347.8,98.1 L 353.5,97.7 L 359.1,97.3 L 364.7,96.9 L 370.3,96.9 L 376.0,95.0 L 381.6,95.0 L 387.2,94.8 L 392.9,94.6 L 398.5,94.2 L 404.1,94.2 L 409.7,93.2 L 415.4,92.0 L 421.0,91.6 L 426.6,92.0 L 432.3,91.8 L 437.9,91.6 L 443.5,91.6 L 449.1,91.2 L 454.8,90.4 L 460.4,90.0 L 466.0,89.6 L 471.7,89.4 L 477.3,89.4 L 482.9,88.7 L 488.5,88.3 L 494.2,88.3 L 499.8,86.7 L 505.4,86.7 L 511.1,86.7 L 516.7,86.7 L 522.3,86.5 L 528.0,85.9 L 533.6,85.1 L 539.2,84.7 L 544.8,84.7 L 550.5,84.3 L 556.1,82.8 L 561.7,81.8 L 567.4,81.6 L 573.0,81.4 L 578.6,80.8 L 584.2,79.6 L 589.9,79.2 L 595.5,78.8 L 601.1,77.6 L 606.8,77.4 L 612.4,77.4 L 618.0,77.4 L 623.6,77.3 L 629.3,76.1 L 634.9,75.9 L 640.5,75.7 L 646.2,75.7 L 651.8,75.3 L 657.4,73.7 L 663.0,73.5 L 668.7,73.3 L 674.3,73.3 L 679.9,72.5 L 685.6,72.3 L 691.2,72.1 L 696.8,71.6 L 702.5,70.8 L 708.1,70.8 L 713.7,70.8 L 719.3,70.8 L 725.0,70.4 L 730.6,69.8 L 736.2,69.6 L 741.9,69.0 L 747.5,68.8 L 753.1,68.6 L 758.7,67.8 L 764.4,67.2 L 770.0,67.0" fill="none" stroke="#4F8EF7" stroke-width="2.5" stroke-linejoin="round" clip-path="url(#ca)"/>
<path d="M 72.0,340 L 72.0,244.2 L 77.6,243.6 L 83.3,243.6 L 88.9,243.6 L 94.5,243.4 L 100.1,243.0 L 105.8,242.8 L 111.4,242.6 L 117.0,242.6 L 122.7,242.5 L 128.3,242.3 L 133.9,242.3 L 139.5,242.3 L 145.2,242.3 L 150.8,242.3 L 156.4,242.3 L 162.1,241.9 L 167.7,241.9 L 173.3,241.9 L 179.0,241.1 L 184.6,240.9 L 190.2,240.5 L 195.8,239.7 L 201.5,239.5 L 207.1,239.5 L 212.7,239.5 L 218.4,238.9 L 224.0,238.5 L 229.6,238.5 L 235.2,238.1 L 240.9,237.9 L 246.5,237.5 L 252.1,237.5 L 257.8,237.3 L 263.4,236.6 L 269.0,236.0 L 274.6,235.6 L 280.3,235.4 L 285.9,235.4 L 291.5,235.2 L 297.2,234.8 L 302.8,234.8 L 308.4,234.6 L 314.0,234.0 L 319.7,233.6 L 325.3,233.6 L 330.9,233.6 L 336.6,233.6 L 342.2,233.4 L 347.8,232.8 L 353.5,232.4 L 359.1,232.2 L 364.7,232.0 L 370.3,231.8 L 376.0,231.6 L 381.6,231.4 L 387.2,231.2 L 392.9,230.7 L 398.5,230.5 L 404.1,230.3 L 409.7,229.5 L 415.4,228.7 L 421.0,228.7 L 426.6,228.5 L 432.3,228.3 L 437.9,228.3 L 443.5,228.3 L 449.1,227.9 L 454.8,227.9 L 460.4,226.7 L 466.0,226.5 L 471.7,226.3 L 477.3,226.3 L 482.9,225.9 L 488.5,225.7 L 494.2,225.7 L 499.8,225.5 L 505.4,225.5 L 511.1,225.5 L 516.7,225.1 L 522.3,224.9 L 528.0,224.0 L 533.6,224.2 L 539.2,224.0 L 544.8,223.8 L 550.5,223.8 L 556.1,223.6 L 561.7,223.0 L 567.4,223.0 L 573.0,223.0 L 578.6,223.0 L 584.2,222.6 L 589.9,222.6 L 595.5,222.2 L 601.1,221.8 L 606.8,221.0 L 612.4,221.0 L 618.0,220.6 L 623.6,220.4 L 629.3,220.2 L 634.9,220.0 L 640.5,219.6 L 646.2,219.6 L 651.8,219.1 L 657.4,219.1 L 663.0,218.9 L 668.7,218.5 L 674.3,218.3 L 679.9,218.3 L 685.6,218.3 L 691.2,218.3 L 696.8,218.3 L 702.5,217.7 L 708.1,217.7 L 713.7,217.3 L 719.3,216.9 L 725.0,216.3 L 730.6,216.1 L 736.2,216.1 L 741.9,214.9 L 747.5,214.7 L 753.1,214.7 L 758.7,213.9 L 764.4,213.9 L 770.0,213.5 L 770.0,340 Z" fill="url(#g3)" clip-path="url(#ca)"/>
<path d="M 72.0,244.2 L 77.6,243.6 L 83.3,243.6 L 88.9,243.6 L 94.5,243.4 L 100.1,243.0 L 105.8,242.8 L 111.4,242.6 L 117.0,242.6 L 122.7,242.5 L 128.3,242.3 L 133.9,242.3 L 139.5,242.3 L 145.2,242.3 L 150.8,242.3 L 156.4,242.3 L 162.1,241.9 L 167.7,241.9 L 173.3,241.9 L 179.0,241.1 L 184.6,240.9 L 190.2,240.5 L 195.8,239.7 L 201.5,239.5 L 207.1,239.5 L 212.7,239.5 L 218.4,238.9 L 224.0,238.5 L 229.6,238.5 L 235.2,238.1 L 240.9,237.9 L 246.5,237.5 L 252.1,237.5 L 257.8,237.3 L 263.4,236.6 L 269.0,236.0 L 274.6,235.6 L 280.3,235.4 L 285.9,235.4 L 291.5,235.2 L 297.2,234.8 L 302.8,234.8 L 308.4,234.6 L 314.0,234.0 L 319.7,233.6 L 325.3,233.6 L 330.9,233.6 L 336.6,233.6 L 342.2,233.4 L 347.8,232.8 L 353.5,232.4 L 359.1,232.2 L 364.7,232.0 L 370.3,231.8 L 376.0,231.6 L 381.6,231.4 L 387.2,231.2 L 392.9,230.7 L 398.5,230.5 L 404.1,230.3 L 409.7,229.5 L 415.4,228.7 L 421.0,228.7 L 426.6,228.5 L 432.3,228.3 L 437.9,228.3 L 443.5,228.3 L 449.1,227.9 L 454.8,227.9 L 460.4,226.7 L 466.0,226.5 L 471.7,226.3 L 477.3,226.3 L 482.9,225.9 L 488.5,225.7 L 494.2,225.7 L 499.8,225.5 L 505.4,225.5 L 511.1,225.5 L 516.7,225.1 L 522.3,224.9 L 528.0,224.0 L 533.6,224.2 L 539.2,224.0 L 544.8,223.8 L 550.5,223.8 L 556.1,223.6 L 561.7,223.0 L 567.4,223.0 L 573.0,223.0 L 578.6,223.0 L 584.2,222.6 L 589.9,222.6 L 595.5,222.2 L 601.1,221.8 L 606.8,221.0 L 612.4,221.0 L 618.0,220.6 L 623.6,220.4 L 629.3,220.2 L 634.9,220.0 L 640.5,219.6 L 646.2,219.6 L 651.8,219.1 L 657.4,219.1 L 663.0,218.9 L 668.7,218.5 L 674.3,218.3 L 679.9,218.3 L 685.6,218.3 L 691.2,218.3 L 696.8,218.3 L 702.5,217.7 L 708.1,217.7 L 713.7,217.3 L 719.3,216.9 L 725.0,216.3 L 730.6,216.1 L 736.2,216.1 L 741.9,214.9 L 747.5,214.7 L 753.1,214.7 L 758.7,213.9 L 764.4,213.9 L 770.0,213.5" fill="none" stroke="#BF5AF2" stroke-width="2.5" stroke-linejoin="round" clip-path="url(#ca)"/>
<path d="M 72.0,340 L 72.0,291.4 L 77.6,290.8 L 83.3,290.8 L 88.9,290.8 L 94.5,290.6 L 100.1,290.2 L 105.8,290.0 L 111.4,289.7 L 117.0,289.7 L 122.7,289.5 L 128.3,289.3 L 133.9,289.3 L 139.5,289.3 L 145.2,289.3 L 150.8,289.3 L 156.4,289.3 L 162.1,288.9 L 167.7,288.9 L 173.3,289.1 L 179.0,288.5 L 184.6,288.7 L 190.2,288.1 L 195.8,287.5 L 201.5,287.3 L 207.1,287.5 L 212.7,287.5 L 218.4,286.9 L 224.0,286.7 L 229.6,286.7 L 235.2,286.3 L 240.9,286.1 L 246.5,285.7 L 252.1,285.7 L 257.8,285.5 L 263.4,284.9 L 269.0,284.3 L 274.6,283.9 L 280.3,283.9 L 285.9,283.9 L 291.5,283.8 L 297.2,283.4 L 302.8,283.4 L 308.4,283.2 L 314.0,282.6 L 319.7,282.4 L 325.3,282.4 L 330.9,282.4 L 336.6,282.4 L 342.2,282.2 L 347.8,281.6 L 353.5,281.4 L 359.1,281.2 L 364.7,281.0 L 370.3,281.0 L 376.0,280.8 L 381.6,280.8 L 387.2,280.8 L 392.9,280.2 L 398.5,280.2 L 404.1,280.2 L 409.7,279.8 L 415.4,279.2 L 421.0,279.2 L 426.6,279.0 L 432.3,278.8 L 437.9,278.8 L 443.5,278.8 L 449.1,278.4 L 454.8,278.4 L 460.4,277.3 L 466.0,277.1 L 471.7,276.9 L 477.3,276.9 L 482.9,276.7 L 488.5,276.7 L 494.2,276.7 L 499.8,276.7 L 505.4,276.7 L 511.1,276.7 L 516.7,276.3 L 522.3,276.1 L 528.0,275.1 L 533.6,275.3 L 539.2,275.3 L 544.8,275.1 L 550.5,275.1 L 556.1,275.1 L 561.7,274.7 L 567.4,274.7 L 573.0,274.7 L 578.6,274.7 L 584.2,274.7 L 589.9,274.7 L 595.5,274.5 L 601.1,274.5 L 606.8,273.7 L 612.4,273.7 L 618.0,273.5 L 623.6,273.3 L 629.3,273.1 L 634.9,272.9 L 640.5,272.5 L 646.2,272.5 L 651.8,272.0 L 657.4,272.0 L 663.0,271.8 L 668.7,271.6 L 674.3,271.6 L 679.9,271.6 L 685.6,271.6 L 691.2,271.6 L 696.8,271.6 L 702.5,271.0 L 708.1,271.0 L 713.7,270.6 L 719.3,270.2 L 725.0,269.6 L 730.6,269.4 L 736.2,269.4 L 741.9,268.4 L 747.5,268.2 L 753.1,268.2 L 758.7,267.6 L 764.4,267.6 L 770.0,267.4 L 770.0,340 Z" fill="url(#g4)" clip-path="url(#ca)"/>
<path d="M 72.0,291.4 L 77.6,290.8 L 83.3,290.8 L 88.9,290.8 L 94.5,290.6 L 100.1,290.2 L 105.8,290.0 L 111.4,289.7 L 117.0,289.7 L 122.7,289.5 L 128.3,289.3 L 133.9,289.3 L 139.5,289.3 L 145.2,289.3 L 150.8,289.3 L 156.4,289.3 L 162.1,288.9 L 167.7,288.9 L 173.3,289.1 L 179.0,288.5 L 184.6,288.7 L 190.2,288.1 L 195.8,287.5 L 201.5,287.3 L 207.1,287.5 L 212.7,287.5 L 218.4,286.9 L 224.0,286.7 L 229.6,286.7 L 235.2,286.3 L 240.9,286.1 L 246.5,285.7 L 252.1,285.7 L 257.8,285.5 L 263.4,284.9 L 269.0,284.3 L 274.6,283.9 L 280.3,283.9 L 285.9,283.9 L 291.5,283.8 L 297.2,283.4 L 302.8,283.4 L 308.4,283.2 L 314.0,282.6 L 319.7,282.4 L 325.3,282.4 L 330.9,282.4 L 336.6,282.4 L 342.2,282.2 L 347.8,281.6 L 353.5,281.4 L 359.1,281.2 L 364.7,281.0 L 370.3,281.0 L 376.0,280.8 L 381.6,280.8 L 387.2,280.8 L 392.9,280.2 L 398.5,280.2 L 404.1,280.2 L 409.7,279.8 L 415.4,279.2 L 421.0,279.2 L 426.6,279.0 L 432.3,278.8 L 437.9,278.8 L 443.5,278.8 L 449.1,278.4 L 454.8,278.4 L 460.4,277.3 L 466.0,277.1 L 471.7,276.9 L 477.3,276.9 L 482.9,276.7 L 488.5,276.7 L 494.2,276.7 L 499.8,276.7 L 505.4,276.7 L 511.1,276.7 L 516.7,276.3 L 522.3,276.1 L 528.0,275.1 L 533.6,275.3 L 539.2,275.3 L 544.8,275.1 L 550.5,275.1 L 556.1,275.1 L 561.7,274.7 L 567.4,274.7 L 573.0,274.7 L 578.6,274.7 L 584.2,274.7 L 589.9,274.7 L 595.5,274.5 L 601.1,274.5 L 606.8,273.7 L 612.4,273.7 L 618.0,273.5 L 623.6,273.3 L 629.3,273.1 L 634.9,272.9 L 640.5,272.5 L 646.2,272.5 L 651.8,272.0 L 657.4,272.0 L 663.0,271.8 L 668.7,271.6 L 674.3,271.6 L 679.9,271.6 L 685.6,271.6 L 691.2,271.6 L 696.8,271.6 L 702.5,271.0 L 708.1,271.0 L 713.7,270.6 L 719.3,270.2 L 725.0,269.6 L 730.6,269.4 L 736.2,269.4 L 741.9,268.4 L 747.5,268.2 L 753.1,268.2 L 758.7,267.6 L 764.4,267.6 L 770.0,267.4" fill="none" stroke="#34C759" stroke-width="2.5" stroke-linejoin="round" clip-path="url(#ca)"/>
<text x="103.0" y="55.0" text-anchor="middle" font-size="9" fill="#4F8EF7" opacity="0.85" clip-path="url(#ca)">+0.5% (+8)</text>
<text x="103.0" y="66.0" text-anchor="middle" font-size="9" fill="#BF5AF2" opacity="0.85" clip-path="url(#ca)">+1.0% (+10)</text>
<text x="103.0" y="77.0" text-anchor="middle" font-size="9" fill="#34C759" opacity="0.85" clip-path="url(#ca)">+1.5% (+11)</text>
<text x="209.9" y="55.0" text-anchor="middle" font-size="9" fill="#4F8EF7" opacity="0.85" clip-path="url(#ca)">+4.0% (+65)</text>
<text x="209.9" y="66.0" text-anchor="middle" font-size="9" fill="#BF5AF2" opacity="0.85" clip-path="url(#ca)">+3.5% (+35)</text>
<text x="209.9" y="77.0" text-anchor="middle" font-size="9" fill="#34C759" opacity="0.85" clip-path="url(#ca)">+3.6% (+27)</text>
<text x="359.1" y="55.0" text-anchor="middle" font-size="9" fill="#4F8EF7" opacity="0.85" clip-path="url(#ca)">+4.1% (+70)</text>
<text x="359.1" y="66.0" text-anchor="middle" font-size="9" fill="#BF5AF2" opacity="0.85" clip-path="url(#ca)">+3.5% (+36)</text>
<text x="359.1" y="77.0" text-anchor="middle" font-size="9" fill="#34C759" opacity="0.85" clip-path="url(#ca)">+3.3% (+26)</text>
<text x="511.1" y="55.0" text-anchor="middle" font-size="9" fill="#4F8EF7" opacity="0.85" clip-path="url(#ca)">+3.5% (+61)</text>
<text x="511.1" y="66.0" text-anchor="middle" font-size="9" fill="#BF5AF2" opacity="0.85" clip-path="url(#ca)">+2.7% (+29)</text>
<text x="511.1" y="77.0" text-anchor="middle" font-size="9" fill="#34C759" opacity="0.85" clip-path="url(#ca)">+2.6% (+21)</text>
<text x="663.0" y="55.0" text-anchor="middle" font-size="9" fill="#4F8EF7" opacity="0.85" clip-path="url(#ca)">+2.7% (+49)</text>
<text x="663.0" y="66.0" text-anchor="middle" font-size="9" fill="#BF5AF2" opacity="0.85" clip-path="url(#ca)">+3.0% (+33)</text>
<text x="663.0" y="77.0" text-anchor="middle" font-size="9" fill="#34C759" opacity="0.85" clip-path="url(#ca)">+3.2% (+27)</text>
<text x="755.9" y="55.0" text-anchor="middle" font-size="9" fill="#4F8EF7" opacity="0.85" clip-path="url(#ca)">+0.5% (+10)</text>
<text x="755.9" y="66.0" text-anchor="middle" font-size="9" fill="#BF5AF2" opacity="0.85" clip-path="url(#ca)">+0.6% (+7)</text>
<text x="755.9" y="77.0" text-anchor="middle" font-size="9" fill="#34C759" opacity="0.85" clip-path="url(#ca)">+0.6% (+5)</text>
<rect x="211" y="369" width="12" height="12" fill="#4F8EF7" rx="2"/>
<text x="227" y="379" font-size="12" fill="#111827">Authors</text>
<rect x="351" y="369" width="12" height="12" fill="#BF5AF2" rx="2"/>
<text x="367" y="379" font-size="12" fill="#111827">Contributors</text>
<rect x="491" y="369" width="12" height="12" fill="#34C759" rx="2"/>
<text x="507" y="379" font-size="12" fill="#111827">Non-author contributors</text>
<text x="72" y="394" font-size="8" fill="#e5e7eb">data since Dec 11, 2025</text>
</svg>