<svg xmlns="http://www.w3.org/2000/svg" width="800" height="400" viewBox="0 0 800 400">
<defs>
  <style>text { font-family: -apple-system, BlinkMacSystemFont, 'Segoe UI', Roboto, sans-serif; }</style>
  <linearGradient id="g2" x1="0" y1="0" x2="0" y2="1">
  <stop offset="0%" stop-color="#4F8EF7" stop-opacity="0.25"/>
  <stop offset="100%" stop-color="#4F8EF7" stop-opacity="0"/>
</linearGradient>
<linearGradient id="g3" x1="0" y1="0" x2="0" y2="1">
  <stop offset="0%" stop-color="#BF5AF2" stop-opacity="0.25"/>
  <stop offset="100%" stop-color="#BF5AF2" stop-opacity="0"/>
</linearGradient>
<linearGradient id="g4" x1="0" y1="0" x2="0" y2="1">
  <stop offset="0%" stop-color="#34C759" stop-opacity="0.25"/>
  <stop offset="100%" stop-color="#34C759" stop-opacity="0"/>
</linearGradient>
  <clipPath id="ca"><rect x="72" y="45" width="698" height="295"/></clipPath>
</defs>
<rect width="800" height="400" fill="#ffffff" rx="12"/>
<text x="400" y="26" text-anchor="middle" font-size="15" font-weight="600" fill="#111827">Community Growth Over Time</text>
<line x1="72" y1="340.0" x2="770" y2="340.0" stroke="#f3f4f6" stroke-width="1"/>
<text x="66" y="344.0" text-anchor="end" font-size="11" fill="#6b7280">500</text>
<line x1="72" y1="266.3" x2="770" y2="266.3" stroke="#f3f4f6" stroke-width="1"/>
<text x="66" y="270.3" text-anchor="end" font-size="11" fill="#6b7280">1.0k</text>
<line x1="72" y1="192.5" x2="770" y2="192.5" stroke="#f3f4f6" stroke-width="1"/>
<text x="66" y="196.5" text-anchor="end" font-size="11" fill="#6b7280">1.5k</text>
<line x1="72" y1="118.8" x2="770" y2="118.8" stroke="#f3f4f6" stroke-width="1"/>
<text x="66" y="122.8" text-anchor="end" font-size="11" fill="#6b7280">2.0k</text>
<line x1="72" y1="45.0" x2="770" y2="45.0" stroke="#f3f4f6" stroke-width="1"/>
<text x="66" y="49.0" text-anchor="end" font-size="11" fill="#6b7280">2.5k</text>
<line x1="119.1" y1="45" x2="119.1" y2="340" stroke="#e5e7eb" stroke-width="1" stroke-dasharray="3,3" clip-path="url(#ca)"/>
<line x1="221.0" y1="45" x2="221.0" y2="340" stroke="#e5e7eb" stroke-width="1" stroke-dasharray="3,3" clip-path="url(#ca)"/>
<line x1="326.9" y1="45" x2="326.9" y2="340" stroke="#e5e7eb" stroke-width="1" stroke-dasharray="3,3" clip-path="url(#ca)"/>
<line x1="432.8" y1="45" x2="432.8" y2="340" stroke="#e5e7eb" stroke-width="1" stroke-dasharray="3,3" clip-path="url(#ca)"/>
<line x1="538.6" y1="45" x2="538.6" y2="340" stroke="#e5e7eb" stroke-width="1" stroke-dasharray="3,3" clip-path="url(#ca)"/>
<line x1="640.6" y1="45" x2="640.6" y2="340" stroke="#e5e7eb" stroke-width="1" stroke-dasharray="3,3" clip-path="url(#ca)"/>
<line x1="734.7" y1="45" x2="734.7" y2="340" stroke="#e5e7eb" stroke-width="1" stroke-dasharray="3,3" clip-path="url(#ca)"/>
<text x="72.0" y="358.0" text-anchor="middle" font-size="11" fill="#6b7280">Dec 11</text>
<text x="213.2" y="358.0" text-anchor="middle" font-size="11" fill="#6b7280">Jan 30</text>
<text x="350.4" y="358.0" text-anchor="middle" font-size="11" fill="#6b7280">Mar 8</text>
<text x="491.6" y="358.0" text-anchor="middle" font-size="11" fill="#6b7280">Apr 17</text>
<text x="628.8" y="358.0" text-anchor="middle" font-size="11" fill="#6b7280">May 29</text>
<text x="770.0" y="358.0" text-anchor="middle" font-size="11" fill="#6b7280">Jul 11</text>
<line x1="72" y1="45" x2="72" y2="340" stroke="#e5e7eb" stroke-width="1"/>
<line x1="72" y1="340" x2="770" y2="340" stroke="#e5e7eb" stroke-width="1"/>
<text x="-192.5" y="18" text-anchor="middle" font-size="12" fill="#6b7280" transform="rotate(-90)">People</text>
<path d="M 72.0,340 L 72.0,175.1 L 75.9,175.1 L 79.8,175.1 L 83.8,174.7 L 87.7,174.7 L 91.6,174.4 L 95.5,174.2 L 99.4,174.4 L 103.4,173.9 L 107.3,173.9 L 111.2,173.9 L 115.1,173.9 L 119.1,173.9 L 123.0,173.9 L 126.9,173.9 L 130.8,173.9 L 134.7,173.8 L 138.7,173.3 L 142.6,172.4 L 146.5,172.0 L 150.4,171.9 L 154.3,171.9 L 158.3,171.4 L 162.2,170.4 L 166.1,169.8 L 170.0,169.8 L 174.0,169.0 L 177.9,168.8 L 181.8,168.2 L 185.7,167.7 L 189.6,167.3 L 193.6,166.8 L 197.5,166.8 L 201.4,165.8 L 205.3,165.2 L 209.2,165.2 L 213.2,164.6 L 217.1,164.3 L 221.0,164.2 L 224.9,164.0 L 228.9,164.0 L 232.8,163.6 L 236.7,161.8 L 240.6,160.8 L 244.5,160.2 L 248.5,160.1 L 252.4,159.8 L 256.3,159.2 L 260.2,158.9 L 264.1,158.6 L 268.1,158.3 L 272.0,158.0 L 275.9,157.7 L 279.8,157.7 L 283.8,156.2 L 287.7,156.2 L 291.6,156.1 L 295.5,155.9 L 299.4,155.6 L 303.4,155.6 L 307.3,154.9 L 311.2,154.0 L 315.1,153.7 L 319.0,154.0 L 323.0,153.9 L 326.9,153.7 L 330.8,153.7 L 334.7,153.4 L 338.7,152.8 L 342.6,152.5 L 346.5,152.2 L 350.4,152.1 L 354.3,152.1 L 358.3,151.5 L 362.2,151.2 L 366.1,151.2 L 370.0,150.0 L 373.9,150.0 L 377.9,150.0 L 381.8,150.0 L 385.7,149.9 L 389.6,149.4 L 393.6,148.8 L 397.5,148.5 L 401.4,148.5 L 405.3,148.3 L 409.2,147.1 L 413.2,146.3 L 417.1,146.2 L 421.0,146.0 L 424.9,145.6 L 428.8,144.7 L 432.8,144.4 L 436.7,144.1 L 440.6,143.2 L 444.5,143.1 L 448.4,143.1 L 452.4,143.1 L 456.3,142.9 L 460.2,142.1 L 464.1,141.9 L 468.1,141.8 L 472.0,141.8 L 475.9,141.5 L 479.8,140.3 L 483.7,140.1 L 487.7,140.0 L 491.6,140.0 L 495.5,139.4 L 499.4,139.3 L 503.3,139.1 L 507.3,138.7 L 511.2,138.1 L 515.1,138.1 L 519.0,138.1 L 523.0,138.1 L 526.9,137.8 L 530.8,137.3 L 534.7,137.2 L 538.6,136.7 L 542.6,136.6 L 546.5,136.5 L 550.4,135.9 L 554.3,135.4 L 558.2,135.3 L 562.2,135.3 L 566.1,133.9 L 570.0,133.5 L 573.9,133.4 L 577.9,133.4 L 581.8,132.6 L 585.7,132.6 L 589.6,132.2 L 593.5,131.7 L 597.5,130.7 L 601.4,130.6 L 605.3,130.4 L 609.2,130.3 L 613.1,130.3 L 617.1,130.1 L 621.0,129.4 L 624.9,128.9 L 628.8,128.9 L 632.8,128.8 L 636.7,128.8 L 640.6,128.3 L 644.5,128.2 L 648.4,128.0 L 652.4,127.6 L 656.3,127.0 L 660.2,127.0 L 664.1,126.9 L 668.0,126.7 L 672.0,126.0 L 675.9,124.9 L 679.8,124.8 L 683.7,124.5 L 687.7,124.2 L 691.6,124.1 L 695.5,123.6 L 699.4,123.0 L 703.3,122.9 L 707.3,122.4 L 711.2,122.1 L 715.1,121.4 L 719.0,121.3 L 722.9,121.0 L 726.9,121.0 L 730.8,120.7 L 734.7,120.4 L 738.6,120.1 L 742.6,119.9 L 746.5,119.6 L 750.4,119.6 L 754.3,119.3 L 758.2,119.2 L 762.2,119.2 L 766.1,118.3 L 770.0,117.9 L 770.0,340 Z" fill="url(#g2)" clip-path="url(#ca)"/>
<path d="M 72.0,175.1 L 75.9,175.1 L 79.8,175.1 L 83.8,174.7 L 87.7,174.7 L 91.6,174.4 L 95.5,174.2 L 99.4,174.4 L 103.4,173.9 L 107.3,173.9 L 111.2,173.9 L 115.1,173.9 L 119.1,173.9 L 123.0,173.9 L 126.9,173.9 L 130.8,173.9 L 134.7,173.8 L 138.7,173.3 L 142.6,172.4 L 146.5,172.0 L 150.4,171.9 L 154.3,171.9 L 158.3,171.4 L 162.2,170.4 L 166.1,169.8 L 170.0,169.8 L 174.0,169.0 L 177.9,168.8 L 181.8,168.2 L 185.7,167.7 L 189.6,167.3 L 193.6,166.8 L 197.5,166.8 L 201.4,165.8 L 205.3,165.2 L 209.2,165.2 L 213.2,164.6 L 217.1,164.3 L 221.0,164.2 L 224.9,164.0 L 228.9,164.0 L 232.8,163.6 L 236.7,161.8 L 240.6,160.8 L 244.5,160.2 L 248.5,160.1 L 252.4,159.8 L 256.3,159.2 L 260.2,158.9 L 264.1,158.6 L 268.1,158.3 L 272.0,158.0 L 275.9,157.7 L 279.8,157.7 L 283.8,156.2 L 287.7,156.2 L 291.6,156.1 L 295.5,155.9 L 299.4,155.6 L 303.4,155.6 L 307.3,154.9 L 311.2,154.0 L 315.1,153.7 L 319.0,154.0 L 323.0,153.9 L 326.9,153.7 L 330.8,153.7 L 334.7,153.4 L 338.7,152.8 L 342.6,152.5 L 346.5,152.2 L 350.4,152.1 L 354.3,152.1 L 358.3,151.5 L 362.2,151.2 L 366.1,151.2 L 370.0,150.0 L 373.9,150.0 L 377.9,150.0 L 381.8,150.0 L 385.7,149.9 L 389.6,149.4 L 393.6,148.8 L 397.5,148.5 L 401.4,148.5 L 405.3,148.3 L 409.2,147.1 L 413.2,146.3 L 417.1,146.2 L 421.0,146.0 L 424.9,145.6 L 428.8,144.7 L 432.8,144.4 L 436.7,144.1 L 440.6,143.2 L 444.5,143.1 L 448.4,143.1 L 452.4,143.1 L 456.3,142.9 L 460.2,142.1 L 464.1,141.9 L 468.1,141.8 L 472.0,141.8 L 475.9,141.5 L 479.8,140.3 L 483.7,140.1 L 487.7,140.0 L 491.6,140.0 L 495.5,139.4 L 499.4,139.3 L 503.3,139.1 L 507.3,138.7 L 511.2,138.1 L 515.1,138.1 L 519.0,138.1 L 523.0,138.1 L 526.9,137.8 L 530.8,137.3 L 534.7,137.2 L 538.6,136.7 L 542.6,136.6 L 546.5,136.5 L 550.4,135.9 L 554.3,135.4 L 558.2,135.3 L 562.2,135.3 L 566.1,133.9 L 570.0,133.5 L 573.9,133.4 L 577.9,133.4 L 581.8,132.6 L 585.7,132.6 L 589.6,132.2 L 593.5,131.7 L 597.5,130.7 L 601.4,130.6 L 605.3,130.4 L 609.2,130.3 L 613.1,130.3 L 617.1,130.1 L 621.0,129.4 L 624.9,128.9 L 628.8,128.9 L 632.8,128.8 L 636.7,128.8 L 640.6,128.3 L 644.5,128.2 L 648.4,128.0 L 652.4,127.6 L 656.3,127.0 L 660.2,127.0 L 664.1,126.9 L 668.0,126.7 L 672.0,126.0 L 675.9,124.9 L 679.8,124.8 L 683.7,124.5 L 687.7,124.2 L 691.6,124.1 L 695.5,123.6 L 699.4,123.0 L 703.3,122.9 L 707.3,122.4 L 711.2,122.1 L 715.1,121.4 L 719.0,121.3 L 722.9,121.0 L 726.9,121.0 L 730.8,120.7 L 734.7,120.4 L 738.6,120.1 L 742.6,119.9 L 746.5,119.6 L 750.4,119.6 L 754.3,119.3 L 758.2,119.2 L 762.2,119.2 L 766.1,118.3 L 770.0,117.9" fill="none" stroke="#4F8EF7" stroke-width="2.5" stroke-linejoin="round" clip-path="url(#ca)"/>
<path d="M 72.0,340 L 72.0,268.2 L 75.9,267.7 L 79.8,267.7 L 83.8,267.7 L 87.7,267.6 L 91.6,267.3 L 95.5,267.1 L 99.4,267.0 L 103.4,267.0 L 107.3,266.8 L 111.2,266.7 L 115.1,266.7 L 119.1,266.7 L 123.0,266.7 L 126.9,266.7 L 130.8,266.7 L 134.7,266.4 L 138.7,266.4 L 142.6,266.4 L 146.5,265.8 L 150.4,265.7 L 154.3,265.4 L 158.3,264.8 L 162.2,264.6 L 166.1,264.6 L 170.0,264.6 L 174.0,264.2 L 177.9,263.9 L 181.8,263.9 L 185.7,263.6 L 189.6,263.4 L 193.6,263.2 L 197.5,263.2 L 201.4,263.0 L 205.3,262.4 L 209.2,262.0 L 213.2,261.7 L 217.1,261.5 L 221.0,261.5 L 224.9,261.4 L 228.9,261.1 L 232.8,261.1 L 236.7,260.9 L 240.6,260.5 L 244.5,260.2 L 248.5,260.2 L 252.4,260.2 L 256.3,260.2 L 260.2,260.1 L 264.1,259.6 L 268.1,259.3 L 272.0,259.2 L 275.9,259.0 L 279.8,258.9 L 283.8,258.7 L 287.7,258.6 L 291.6,258.4 L 295.5,258.0 L 299.4,257.8 L 303.4,257.7 L 307.3,257.1 L 311.2,256.5 L 315.1,256.5 L 319.0,256.4 L 323.0,256.2 L 326.9,256.2 L 330.8,256.2 L 334.7,255.9 L 338.7,255.9 L 342.6,255.0 L 346.5,254.9 L 350.4,254.7 L 354.3,254.7 L 358.3,254.4 L 362.2,254.3 L 366.1,254.3 L 370.0,254.2 L 373.9,254.2 L 377.9,254.2 L 381.8,253.9 L 385.7,253.7 L 389.6,253.0 L 393.6,253.1 L 397.5,253.0 L 401.4,252.8 L 405.3,252.8 L 409.2,252.7 L 413.2,252.2 L 417.1,252.2 L 421.0,252.2 L 424.9,252.2 L 428.8,251.9 L 432.8,251.9 L 436.7,251.6 L 440.6,251.4 L 444.5,250.8 L 448.4,250.8 L 452.4,250.5 L 456.3,250.3 L 460.2,250.2 L 464.1,250.0 L 468.1,249.7 L 472.0,249.7 L 475.9,249.3 L 479.8,249.3 L 483.7,249.1 L 487.7,248.8 L 491.6,248.7 L 495.5,248.7 L 499.4,248.7 L 503.3,248.7 L 507.3,248.7 L 511.2,248.3 L 515.1,248.3 L 519.0,248.0 L 523.0,247.7 L 526.9,247.2 L 530.8,247.1 L 534.7,247.1 L 538.6,246.2 L 542.6,246.0 L 546.5,246.0 L 550.4,245.5 L 554.3,245.5 L 558.2,245.2 L 562.2,245.2 L 566.1,245.0 L 570.0,245.0 L 573.9,244.9 L 577.9,244.6 L 581.8,244.6 L 585.7,244.4 L 589.6,244.3 L 593.5,244.1 L 597.5,244.0 L 601.4,244.0 L 605.3,243.7 L 609.2,243.7 L 613.1,243.7 L 617.1,242.9 L 621.0,242.9 L 624.9,242.9 L 628.8,242.9 L 632.8,242.9 L 636.7,242.9 L 640.6,242.6 L 644.5,242.6 L 648.4,242.4 L 652.4,241.8 L 656.3,241.5 L 660.2,241.3 L 664.1,241.3 L 668.0,241.2 L 672.0,240.7 L 675.9,240.6 L 679.8,240.6 L 683.7,240.3 L 687.7,239.8 L 691.6,239.6 L 695.5,239.6 L 699.4,239.4 L 703.3,239.4 L 707.3,239.0 L 711.2,238.8 L 715.1,238.8 L 719.0,238.5 L 722.9,238.5 L 726.9,238.2 L 730.8,237.8 L 734.7,237.8 L 738.6,237.6 L 742.6,237.5 L 746.5,237.3 L 750.4,237.3 L 754.3,237.2 L 758.2,237.2 L 762.2,236.9 L 766.1,236.3 L 770.0,236.2 L 770.0,340 Z" fill="url(#g3)" clip-path="url(#ca)"/>
<path d="M 72.0,268.2 L 75.9,267.7 L 79.8,267.7 L 83.8,267.7 L 87.7,267.6 L 91.6,267.3 L 95.5,267.1 L 99.4,267.0 L 103.4,267.0 L 107.3,266.8 L 111.2,266.7 L 115.1,266.7 L 119.1,266.7 L 123.0,266.7 L 126.9,266.7 L 130.8,266.7 L 134.7,266.4 L 138.7,266.4 L 142.6,266.4 L 146.5,265.8 L 150.4,265.7 L 154.3,265.4 L 158.3,264.8 L 162.2,264.6 L 166.1,264.6 L 170.0,264.6 L 174.0,264.2 L 177.9,263.9 L 181.8,263.9 L 185.7,263.6 L 189.6,263.4 L 193.6,263.2 L 197.5,263.2 L 201.4,263.0 L 205.3,262.4 L 209.2,262.0 L 213.2,261.7 L 217.1,261.5 L 221.0,261.5 L 224.9,261.4 L 228.9,261.1 L 232.8,261.1 L 236.7,260.9 L 240.6,260.5 L 244.5,260.2 L 248.5,260.2 L 252.4,260.2 L 256.3,260.2 L 260.2,260.1 L 264.1,259.6 L 268.1,259.3 L 272.0,259.2 L 275.9,259.0 L 279.8,258.9 L 283.8,258.7 L 287.7,258.6 L 291.6,258.4 L 295.5,258.0 L 299.4,257.8 L 303.4,257.7 L 307.3,257.1 L 311.2,256.5 L 315.1,256.5 L 319.0,256.4 L 323.0,256.2 L 326.9,256.2 L 330.8,256.2 L 334.7,255.9 L 338.7,255.9 L 342.6,255.0 L 346.5,254.9 L 350.4,254.7 L 354.3,254.7 L 358.3,254.4 L 362.2,254.3 L 366.1,254.3 L 370.0,254.2 L 373.9,254.2 L 377.9,254.2 L 381.8,253.9 L 385.7,253.7 L 389.6,253.0 L 393.6,253.1 L 397.5,253.0 L 401.4,252.8 L 405.3,252.8 L 409.2,252.7 L 413.2,252.2 L 417.1,252.2 L 421.0,252.2 L 424.9,252.2 L 428.8,251.9 L 432.8,251.9 L 436.7,251.6 L 440.6,251.4 L 444.5,250.8 L 448.4,250.8 L 452.4,250.5 L 456.3,250.3 L 460.2,250.2 L 464.1,250.0 L 468.1,249.7 L 472.0,249.7 L 475.9,249.3 L 479.8,249.3 L 483.7,249.1 L 487.7,248.8 L 491.6,248.7 L 495.5,248.7 L 499.4,248.7 L 503.3,248.7 L 507.3,248.7 L 511.2,248.3 L 515.1,248.3 L 519.0,248.0 L 523.0,247.7 L 526.9,247.2 L 530.8,247.1 L 534.7,247.1 L 538.6,246.2 L 542.6,246.0 L 546.5,246.0 L 550.4,245.5 L 554.3,245.5 L 558.2,245.2 L 562.2,245.2 L 566.1,245.0 L 570.0,245.0 L 573.9,244.9 L 577.9,244.6 L 581.8,244.6 L 585.7,244.4 L 589.6,244.3 L 593.5,244.1 L 597.5,244.0 L 601.4,244.0 L 605.3,243.7 L 609.2,243.7 L 613.1,243.7 L 617.1,242.9 L 621.0,242.9 L 624.9,242.9 L 628.8,242.9 L 632.8,242.9 L 636.7,242.9 L 640.6,242.6 L 644.5,242.6 L 648.4,242.4 L 652.4,241.8 L 656.3,241.5 L 660.2,241.3 L 664.1,241.3 L 668.0,241.2 L 672.0,240.7 L 675.9,240.6 L 679.8,240.6 L 683.7,240.3 L 687.7,239.8 L 691.6,239.6 L 695.5,239.6 L 699.4,239.4 L 703.3,239.4 L 707.3,239.0 L 711.2,238.8 L 715.1,238.8 L 719.0,238.5 L 722.9,238.5 L 726.9,238.2 L 730.8,237.8 L 734.7,237.8 L 738.6,237.6 L 742.6,237.5 L 746.5,237.3 L 750.4,237.3 L 754.3,237.2 L 758.2,237.2 L 762.2,236.9 L 766.1,236.3 L 770.0,236.2" fill="none" stroke="#BF5AF2" stroke-width="2.5" stroke-linejoin="round" clip-path="url(#ca)"/>
<path d="M 72.0,340 L 72.0,303.6 L 75.9,303.1 L 79.8,303.1 L 83.8,303.1 L 87.7,303.0 L 91.6,302.7 L 95.5,302.5 L 99.4,302.2 L 103.4,302.2 L 107.3,302.1 L 111.2,301.9 L 115.1,301.9 L 119.1,301.9 L 123.0,301.9 L 126.9,301.9 L 130.8,301.9 L 134.7,301.6 L 138.7,301.6 L 142.6,301.8 L 146.5,301.4 L 150.4,301.5 L 154.3,301.1 L 158.3,300.6 L 162.2,300.5 L 166.1,300.6 L 170.0,300.6 L 174.0,300.2 L 177.9,300.0 L 181.8,300.0 L 185.7,299.7 L 189.6,299.6 L 193.6,299.3 L 197.5,299.3 L 201.4,299.1 L 205.3,298.7 L 209.2,298.3 L 213.2,298.0 L 217.1,298.0 L 221.0,298.0 L 224.9,297.8 L 228.9,297.5 L 232.8,297.5 L 236.7,297.4 L 240.6,296.9 L 244.5,296.8 L 248.5,296.8 L 252.4,296.8 L 256.3,296.8 L 260.2,296.6 L 264.1,296.2 L 268.1,296.0 L 272.0,295.9 L 275.9,295.8 L 279.8,295.8 L 283.8,295.6 L 287.7,295.6 L 291.6,295.6 L 295.5,295.2 L 299.4,295.2 L 303.4,295.2 L 307.3,294.9 L 311.2,294.4 L 315.1,294.4 L 319.0,294.3 L 323.0,294.1 L 326.9,294.1 L 330.8,294.1 L 334.7,293.8 L 338.7,293.8 L 342.6,292.9 L 346.5,292.8 L 350.4,292.7 L 354.3,292.7 L 358.3,292.5 L 362.2,292.5 L 366.1,292.5 L 370.0,292.5 L 373.9,292.5 L 377.9,292.5 L 381.8,292.2 L 385.7,292.1 L 389.6,291.3 L 393.6,291.5 L 397.5,291.5 L 401.4,291.3 L 405.3,291.3 L 409.2,291.3 L 413.2,291.0 L 417.1,291.0 L 421.0,291.0 L 424.9,291.0 L 428.8,291.0 L 432.8,291.0 L 436.7,290.9 L 440.6,290.9 L 444.5,290.3 L 448.4,290.3 L 452.4,290.1 L 456.3,290.0 L 460.2,289.9 L 464.1,289.7 L 468.1,289.4 L 472.0,289.4 L 475.9,289.0 L 479.8,289.0 L 483.7,288.8 L 487.7,288.7 L 491.6,288.7 L 495.5,288.7 L 499.4,288.7 L 503.3,288.7 L 507.3,288.7 L 511.2,288.2 L 515.1,288.2 L 519.0,287.9 L 523.0,287.6 L 526.9,287.2 L 530.8,287.0 L 534.7,287.0 L 538.6,286.3 L 542.6,286.2 L 546.5,286.2 L 550.4,285.7 L 554.3,285.7 L 558.2,285.6 L 562.2,285.6 L 566.1,285.7 L 570.0,285.9 L 573.9,285.7 L 577.9,285.4 L 581.8,285.6 L 585.7,285.4 L 589.6,285.3 L 593.5,285.3 L 597.5,285.3 L 601.4,285.3 L 605.3,285.0 L 609.2,285.0 L 613.1,285.0 L 617.1,284.4 L 621.0,284.4 L 624.9,284.4 L 628.8,284.4 L 632.8,284.4 L 636.7,284.4 L 640.6,284.1 L 644.5,284.1 L 648.4,283.8 L 652.4,283.2 L 656.3,283.1 L 660.2,283.1 L 664.1,283.1 L 668.0,283.1 L 672.0,282.8 L 675.9,282.6 L 679.8,282.6 L 683.7,282.5 L 687.7,282.0 L 691.6,281.7 L 695.5,281.7 L 699.4,281.6 L 703.3,281.6 L 707.3,281.4 L 711.2,281.3 L 715.1,281.3 L 719.0,281.1 L 722.9,281.1 L 726.9,280.9 L 730.8,280.4 L 734.7,280.4 L 738.6,280.3 L 742.6,280.4 L 746.5,280.3 L 750.4,280.3 L 754.3,280.1 L 758.2,280.1 L 762.2,280.0 L 766.1,279.5 L 770.0,279.5 L 770.0,340 Z" fill="url(#g4)" clip-path="url(#ca)"/>
<path d="M 72.0,303.6 L 75.9,303.1 L 79.8,303.1 L 83.8,303.1 L 87.7,303.0 L 91.6,302.7 L 95.5,302.5 L 99.4,302.2 L 103.4,302.2 L 107.3,302.1 L 111.2,301.9 L 115.1,301.9 L 119.1,301.9 L 123.0,301.9 L 126.9,301.9 L 130.8,301.9 L 134.7,301.6 L 138.7,301.6 L 142.6,301.8 L 146.5,301.4 L 150.4,301.5 L 154.3,301.1 L 158.3,300.6 L 162.2,300.5 L 166.1,300.6 L 170.0,300.6 L 174.0,300.2 L 177.9,300.0 L 181.8,300.0 L 185.7,299.7 L 189.6,299.6 L 193.6,299.3 L 197.5,299.3 L 201.4,299.1 L 205.3,298.7 L 209.2,298.3 L 213.2,298.0 L 217.1,298.0 L 221.0,298.0 L 224.9,297.8 L 228.9,297.5 L 232.8,297.5 L 236.7,297.4 L 240.6,296.9 L 244.5,296.8 L 248.5,296.8 L 252.4,296.8 L 256.3,296.8 L 260.2,296.6 L 264.1,296.2 L 268.1,296.0 L 272.0,295.9 L 275.9,295.8 L 279.8,295.8 L 283.8,295.6 L 287.7,295.6 L 291.6,295.6 L 295.5,295.2 L 299.4,295.2 L 303.4,295.2 L 307.3,294.9 L 311.2,294.4 L 315.1,294.4 L 319.0,294.3 L 323.0,294.1 L 326.9,294.1 L 330.8,294.1 L 334.7,293.8 L 338.7,293.8 L 342.6,292.9 L 346.5,292.8 L 350.4,292.7 L 354.3,292.7 L 358.3,292.5 L 362.2,292.5 L 366.1,292.5 L 370.0,292.5 L 373.9,292.5 L 377.9,292.5 L 381.8,292.2 L 385.7,292.1 L 389.6,291.3 L 393.6,291.5 L 397.5,291.5 L 401.4,291.3 L 405.3,291.3 L 409.2,291.3 L 413.2,291.0 L 417.1,291.0 L 421.0,291.0 L 424.9,291.0 L 428.8,291.0 L 432.8,291.0 L 436.7,290.9 L 440.6,290.9 L 444.5,290.3 L 448.4,290.3 L 452.4,290.1 L 456.3,290.0 L 460.2,289.9 L 464.1,289.7 L 468.1,289.4 L 472.0,289.4 L 475.9,289.0 L 479.8,289.0 L 483.7,288.8 L 487.7,288.7 L 491.6,288.7 L 495.5,288.7 L 499.4,288.7 L 503.3,288.7 L 507.3,288.7 L 511.2,288.2 L 515.1,288.2 L 519.0,287.9 L 523.0,287.6 L 526.9,287.2 L 530.8,287.0 L 534.7,287.0 L 538.6,286.3 L 542.6,286.2 L 546.5,286.2 L 550.4,285.7 L 554.3,285.7 L 558.2,285.6 L 562.2,285.6 L 566.1,285.7 L 570.0,285.9 L 573.9,285.7 L 577.9,285.4 L 581.8,285.6 L 585.7,285.4 L 589.6,285.3 L 593.5,285.3 L 597.5,285.3 L 601.4,285.3 L 605.3,285.0 L 609.2,285.0 L 613.1,285.0 L 617.1,284.4 L 621.0,284.4 L 624.9,284.4 L 628.8,284.4 L 632.8,284.4 L 636.7,284.4 L 640.6,284.1 L 644.5,284.1 L 648.4,283.8 L 652.4,283.2 L 656.3,283.1 L 660.2,283.1 L 664.1,283.1 L 668.0,283.1 L 672.0,282.8 L 675.9,282.6 L 679.8,282.6 L 683.7,282.5 L 687.7,282.0 L 691.6,281.7 L 695.5,281.7 L 699.4,281.6 L 703.3,281.6 L 707.3,281.4 L 711.2,281.3 L 715.1,281.3 L 719.0,281.1 L 722.9,281.1 L 726.9,280.9 L 730.8,280.4 L 734.7,280.4 L 738.6,280.3 L 742.6,280.4 L 746.5,280.3 L 750.4,280.3 L 754.3,280.1 L 758.2,280.1 L 762.2,280.0 L 766.1,279.5 L 770.0,279.5" fill="none" stroke="#34C759" stroke-width="2.5" stroke-linejoin="round" clip-path="url(#ca)"/>
<text x="93.6" y="55.0" text-anchor="middle" font-size="9" fill="#4F8EF7" opacity="0.85" clip-path="url(#ca)">+0.5% (+8)</text>
<text x="93.6" y="66.0" text-anchor="middle" font-size="9" fill="#BF5AF2" opacity="0.85" clip-path="url(#ca)">+1.0% (+10)</text>
<text x="93.6" y="77.0" text-anchor="middle" font-size="9" fill="#34C759" opacity="0.85" clip-path="url(#ca)">+1.5% (+11)</text>
<text x="168.1" y="55.0" text-anchor="middle" font-size="9" fill="#4F8EF7" opacity="0.85" clip-path="url(#ca)">+4.0% (+65)</text>
<text x="168.1" y="66.0" text-anchor="middle" font-size="9" fill="#BF5AF2" opacity="0.85" clip-path="url(#ca)">+3.5% (+35)</text>
<text x="168.1" y="77.0" text-anchor="middle" font-size="9" fill="#34C759" opacity="0.85" clip-path="url(#ca)">+3.6% (+27)</text>
<text x="272.0" y="55.0" text-anchor="middle" font-size="9" fill="#4F8EF7" opacity="0.85" clip-path="url(#ca)">+4.1% (+70)</text>
<text x="272.0" y="66.0" text-anchor="middle" font-size="9" fill="#BF5AF2" opacity="0.85" clip-path="url(#ca)">+3.5% (+36)</text>
<text x="272.0" y="77.0" text-anchor="middle" font-size="9" fill="#34C759" opacity="0.85" clip-path="url(#ca)">+3.3% (+26)</text>
<text x="377.9" y="55.0" text-anchor="middle" font-size="9" fill="#4F8EF7" opacity="0.85" clip-path="url(#ca)">+3.5% (+61)</text>
<text x="377.9" y="66.0" text-anchor="middle" font-size="9" fill="#BF5AF2" opacity="0.85" clip-path="url(#ca)">+2.7% (+29)</text>
<text x="377.9" y="77.0" text-anchor="middle" font-size="9" fill="#34C759" opacity="0.85" clip-path="url(#ca)">+2.6% (+21)</text>
<text x="483.7" y="55.0" text-anchor="middle" font-size="9" fill="#4F8EF7" opacity="0.85" clip-path="url(#ca)">+2.7% (+49)</text>
<text x="483.7" y="66.0" text-anchor="middle" font-size="9" fill="#BF5AF2" opacity="0.85" clip-path="url(#ca)">+3.0% (+33)</text>
<text x="483.7" y="77.0" text-anchor="middle" font-size="9" fill="#34C759" opacity="0.85" clip-path="url(#ca)">+3.2% (+27)</text>
<text x="587.7" y="55.0" text-anchor="middle" font-size="9" fill="#4F8EF7" opacity="0.85" clip-path="url(#ca)">+2.9% (+54)</text>
<text x="587.7" y="66.0" text-anchor="middle" font-size="9" fill="#BF5AF2" opacity="0.85" clip-path="url(#ca)">+1.9% (+22)</text>
<text x="587.7" y="77.0" text-anchor="middle" font-size="9" fill="#34C759" opacity="0.85" clip-path="url(#ca)">+1.5% (+13)</text>
<text x="685.7" y="55.0" text-anchor="middle" font-size="9" fill="#4F8EF7" opacity="0.85" clip-path="url(#ca)">+2.7% (+52)</text>
<text x="685.7" y="66.0" text-anchor="middle" font-size="9" fill="#BF5AF2" opacity="0.85" clip-path="url(#ca)">+2.8% (+33)</text>
<text x="685.7" y="77.0" text-anchor="middle" font-size="9" fill="#34C759" opacity="0.85" clip-path="url(#ca)">+2.8% (+25)</text>
<text x="752.4" y="55.0" text-anchor="middle" font-size="9" fill="#4F8EF7" opacity="0.85" clip-path="url(#ca)">+0.9% (+17)</text>
<text x="752.4" y="66.0" text-anchor="middle" font-size="9" fill="#BF5AF2" opacity="0.85" clip-path="url(#ca)">+0.9% (+11)</text>
<text x="752.4" y="77.0" text-anchor="middle" font-size="9" fill="#34C759" opacity="0.85" clip-path="url(#ca)">+0.7% (+6)</text>
<rect x="211" y="369" width="12" height="12" fill="#4F8EF7" rx="2"/>
<text x="227" y="379" font-size="12" fill="#111827">Authors</text>
<rect x="351" y="369" width="12" height="12" fill="#BF5AF2" rx="2"/>
<text x="367" y="379" font-size="12" fill="#111827">Contributors</text>
<rect x="491" y="369" width="12" height="12" fill="#34C759" rx="2"/>
<text x="507" y="379" font-size="12" fill="#111827">Non-author contributors</text>
<text x="72" y="394" font-size="8" fill="#e5e7eb">data since Dec 11, 2025</text>
</svg>