<svg xmlns="http://www.w3.org/2000/svg" width="800" height="400" viewBox="0 0 800 400">
<defs>
  <style>text { font-family: -apple-system, BlinkMacSystemFont, 'Segoe UI', Roboto, sans-serif; }</style>
  <linearGradient id="g1" x1="0" y1="0" x2="0" y2="1">
  <stop offset="0%" stop-color="#FF6363" stop-opacity="0.25"/>
  <stop offset="100%" stop-color="#FF6363" stop-opacity="0"/>
</linearGradient>
  <clipPath id="ca"><rect x="72" y="45" width="698" height="295"/></clipPath>
</defs>
<rect width="800" height="400" fill="#ffffff" rx="12"/>
<text x="400" y="26" text-anchor="middle" font-size="15" font-weight="600" fill="#111827">Packages Growth Over Time</text>
<line x1="72" y1="340.0" x2="770" y2="340.0" stroke="#f3f4f6" stroke-width="1"/>
<text x="66" y="344.0" text-anchor="end" font-size="11" fill="#6b7280">2.4k</text>
<line x1="72" y1="266.3" x2="770" y2="266.3" stroke="#f3f4f6" stroke-width="1"/>
<text x="66" y="270.3" text-anchor="end" font-size="11" fill="#6b7280">2.6k</text>
<line x1="72" y1="192.5" x2="770" y2="192.5" stroke="#f3f4f6" stroke-width="1"/>
<text x="66" y="196.5" text-anchor="end" font-size="11" fill="#6b7280">2.8k</text>
<line x1="72" y1="118.8" x2="770" y2="118.8" stroke="#f3f4f6" stroke-width="1"/>
<text x="66" y="122.8" text-anchor="end" font-size="11" fill="#6b7280">3.0k</text>
<line x1="72" y1="45.0" x2="770" y2="45.0" stroke="#f3f4f6" stroke-width="1"/>
<text x="66" y="49.0" text-anchor="end" font-size="11" fill="#6b7280">3.2k</text>
<line x1="125.4" y1="45" x2="125.4" y2="340" stroke="#e5e7eb" stroke-width="1" stroke-dasharray="3,3" clip-path="url(#ca)"/>
<line x1="240.9" y1="45" x2="240.9" y2="340" stroke="#e5e7eb" stroke-width="1" stroke-dasharray="3,3" clip-path="url(#ca)"/>
<line x1="361.0" y1="45" x2="361.0" y2="340" stroke="#e5e7eb" stroke-width="1" stroke-dasharray="3,3" clip-path="url(#ca)"/>
<line x1="481.0" y1="45" x2="481.0" y2="340" stroke="#e5e7eb" stroke-width="1" stroke-dasharray="3,3" clip-path="url(#ca)"/>
<line x1="601.1" y1="45" x2="601.1" y2="340" stroke="#e5e7eb" stroke-width="1" stroke-dasharray="3,3" clip-path="url(#ca)"/>
<line x1="716.6" y1="45" x2="716.6" y2="340" stroke="#e5e7eb" stroke-width="1" stroke-dasharray="3,3" clip-path="url(#ca)"/>
<text x="72.0" y="358.0" text-anchor="middle" font-size="11" fill="#6b7280">Dec 11</text>
<text x="209.8" y="358.0" text-anchor="middle" font-size="11" fill="#6b7280">Jan 25</text>
<text x="352.1" y="358.0" text-anchor="middle" font-size="11" fill="#6b7280">Feb 27</text>
<text x="489.9" y="358.0" text-anchor="middle" font-size="11" fill="#6b7280">Apr 3</text>
<text x="632.2" y="358.0" text-anchor="middle" font-size="11" fill="#6b7280">May 12</text>
<text x="770.0" y="358.0" text-anchor="middle" font-size="11" fill="#6b7280">Jun 17</text>
<line x1="72" y1="45" x2="72" y2="340" stroke="#e5e7eb" stroke-width="1"/>
<line x1="72" y1="340" x2="770" y2="340" stroke="#e5e7eb" stroke-width="1"/>
<text x="-192.5" y="18" text-anchor="middle" font-size="12" fill="#6b7280" transform="rotate(-90)">Extensions</text>
<path d="M 72.0,340 L 72.0,311.6 L 76.4,311.2 L 80.9,311.2 L 85.3,310.1 L 89.8,310.1 L 94.2,309.4 L 98.7,308.7 L 103.1,308.3 L 107.6,306.4 L 112.0,305.0 L 116.5,305.0 L 120.9,305.0 L 125.4,305.0 L 129.8,304.2 L 134.2,304.2 L 138.7,304.2 L 143.1,303.5 L 147.6,302.0 L 152.0,299.4 L 156.5,297.6 L 160.9,296.9 L 165.4,296.5 L 169.8,295.0 L 174.3,290.6 L 178.7,289.1 L 183.1,289.1 L 187.6,285.4 L 192.0,284.3 L 196.5,282.8 L 200.9,281.7 L 205.4,279.5 L 209.8,277.7 L 214.3,277.3 L 218.7,274.4 L 223.2,271.8 L 227.6,271.8 L 232.1,269.9 L 236.5,268.5 L 240.9,268.1 L 245.4,267.7 L 249.8,267.4 L 254.3,266.3 L 258.7,259.6 L 263.2,256.7 L 267.6,255.2 L 272.1,254.4 L 276.5,253.3 L 281.0,250.8 L 285.4,250.0 L 289.8,249.3 L 294.3,247.1 L 298.7,246.3 L 303.2,245.6 L 307.6,245.6 L 312.1,239.0 L 316.5,238.2 L 321.0,237.5 L 325.4,236.0 L 329.9,234.2 L 334.3,234.2 L 338.8,231.2 L 343.2,226.4 L 347.6,225.7 L 352.1,226.1 L 356.5,224.9 L 361.0,224.6 L 365.4,224.6 L 369.9,222.4 L 374.3,220.5 L 378.8,219.1 L 383.2,217.2 L 387.7,216.8 L 392.1,216.8 L 396.5,214.3 L 401.0,213.5 L 405.4,213.2 L 409.9,208.7 L 414.3,208.4 L 418.8,208.4 L 423.2,208.4 L 427.7,208.0 L 432.1,206.1 L 436.6,204.7 L 441.0,202.8 L 445.5,202.5 L 449.9,201.3 L 454.3,198.0 L 458.8,195.1 L 463.2,194.7 L 467.7,194.3 L 472.1,193.2 L 476.6,189.6 L 481.0,188.8 L 485.5,187.7 L 489.9,185.5 L 494.4,185.1 L 498.8,184.8 L 503.2,184.8 L 507.7,184.0 L 512.1,181.8 L 516.6,181.1 L 521.0,180.3 L 525.5,180.0 L 529.9,179.2 L 534.4,175.5 L 538.8,175.2 L 543.3,174.4 L 547.7,174.1 L 552.2,172.2 L 556.6,171.9 L 561.0,171.5 L 565.5,170.4 L 569.9,168.9 L 574.4,168.9 L 578.8,168.9 L 583.3,168.9 L 587.7,168.2 L 592.2,166.3 L 596.6,166.0 L 601.1,164.1 L 605.5,163.7 L 609.9,163.4 L 614.4,161.2 L 618.8,158.9 L 623.3,158.6 L 627.7,158.2 L 632.2,153.4 L 636.6,151.9 L 641.1,150.8 L 645.5,150.5 L 650.0,147.9 L 654.4,147.9 L 658.9,146.0 L 663.3,144.9 L 667.7,141.2 L 672.2,139.8 L 676.6,139.4 L 681.1,139.0 L 685.5,139.0 L 690.0,138.7 L 694.4,136.5 L 698.9,134.6 L 703.3,134.6 L 707.8,134.2 L 712.2,134.2 L 716.6,132.8 L 721.1,132.0 L 725.5,130.9 L 730.0,129.8 L 734.4,128.3 L 738.9,128.3 L 743.3,127.2 L 747.8,125.8 L 752.2,122.8 L 756.7,120.2 L 761.1,119.5 L 765.6,118.8 L 770.0,118.0 L 770.0,340 Z" fill="url(#g1)" clip-path="url(#ca)"/>
<path d="M 72.0,311.6 L 76.4,311.2 L 80.9,311.2 L 85.3,310.1 L 89.8,310.1 L 94.2,309.4 L 98.7,308.7 L 103.1,308.3 L 107.6,306.4 L 112.0,305.0 L 116.5,305.0 L 120.9,305.0 L 125.4,305.0 L 129.8,304.2 L 134.2,304.2 L 138.7,304.2 L 143.1,303.5 L 147.6,302.0 L 152.0,299.4 L 156.5,297.6 L 160.9,296.9 L 165.4,296.5 L 169.8,295.0 L 174.3,290.6 L 178.7,289.1 L 183.1,289.1 L 187.6,285.4 L 192.0,284.3 L 196.5,282.8 L 200.9,281.7 L 205.4,279.5 L 209.8,277.7 L 214.3,277.3 L 218.7,274.4 L 223.2,271.8 L 227.6,271.8 L 232.1,269.9 L 236.5,268.5 L 240.9,268.1 L 245.4,267.7 L 249.8,267.4 L 254.3,266.3 L 258.7,259.6 L 263.2,256.7 L 267.6,255.2 L 272.1,254.4 L 276.5,253.3 L 281.0,250.8 L 285.4,250.0 L 289.8,249.3 L 294.3,247.1 L 298.7,246.3 L 303.2,245.6 L 307.6,245.6 L 312.1,239.0 L 316.5,238.2 L 321.0,237.5 L 325.4,236.0 L 329.9,234.2 L 334.3,234.2 L 338.8,231.2 L 343.2,226.4 L 347.6,225.7 L 352.1,226.1 L 356.5,224.9 L 361.0,224.6 L 365.4,224.6 L 369.9,222.4 L 374.3,220.5 L 378.8,219.1 L 383.2,217.2 L 387.7,216.8 L 392.1,216.8 L 396.5,214.3 L 401.0,213.5 L 405.4,213.2 L 409.9,208.7 L 414.3,208.4 L 418.8,208.4 L 423.2,208.4 L 427.7,208.0 L 432.1,206.1 L 436.6,204.7 L 441.0,202.8 L 445.5,202.5 L 449.9,201.3 L 454.3,198.0 L 458.8,195.1 L 463.2,194.7 L 467.7,194.3 L 472.1,193.2 L 476.6,189.6 L 481.0,188.8 L 485.5,187.7 L 489.9,185.5 L 494.4,185.1 L 498.8,184.8 L 503.2,184.8 L 507.7,184.0 L 512.1,181.8 L 516.6,181.1 L 521.0,180.3 L 525.5,180.0 L 529.9,179.2 L 534.4,175.5 L 538.8,175.2 L 543.3,174.4 L 547.7,174.1 L 552.2,172.2 L 556.6,171.9 L 561.0,171.5 L 565.5,170.4 L 569.9,168.9 L 574.4,168.9 L 578.8,168.9 L 583.3,168.9 L 587.7,168.2 L 592.2,166.3 L 596.6,166.0 L 601.1,164.1 L 605.5,163.7 L 609.9,163.4 L 614.4,161.2 L 618.8,158.9 L 623.3,158.6 L 627.7,158.2 L 632.2,153.4 L 636.6,151.9 L 641.1,150.8 L 645.5,150.5 L 650.0,147.9 L 654.4,147.9 L 658.9,146.0 L 663.3,144.9 L 667.7,141.2 L 672.2,139.8 L 676.6,139.4 L 681.1,139.0 L 685.5,139.0 L 690.0,138.7 L 694.4,136.5 L 698.9,134.6 L 703.3,134.6 L 707.8,134.2 L 712.2,134.2 L 716.6,132.8 L 721.1,132.0 L 725.5,130.9 L 730.0,129.8 L 734.4,128.3 L 738.9,128.3 L 743.3,127.2 L 747.8,125.8 L 752.2,122.8 L 756.7,120.2 L 761.1,119.5 L 765.6,118.8 L 770.0,118.0" fill="none" stroke="#FF6363" stroke-width="2.5" stroke-linejoin="round" clip-path="url(#ca)"/>
<text x="96.5" y="55.0" text-anchor="middle" font-size="9" fill="#FF6363" opacity="0.85" clip-path="url(#ca)">+0.7% (+18)</text>
<text x="180.9" y="55.0" text-anchor="middle" font-size="9" fill="#FF6363" opacity="0.85" clip-path="url(#ca)">+4.0% (+99)</text>
<text x="298.7" y="55.0" text-anchor="middle" font-size="9" fill="#FF6363" opacity="0.85" clip-path="url(#ca)">+4.5% (+117)</text>
<text x="418.8" y="55.0" text-anchor="middle" font-size="9" fill="#FF6363" opacity="0.85" clip-path="url(#ca)">+3.5% (+95)</text>
<text x="538.8" y="55.0" text-anchor="middle" font-size="9" fill="#FF6363" opacity="0.85" clip-path="url(#ca)">+2.2% (+62)</text>
<text x="656.6" y="55.0" text-anchor="middle" font-size="9" fill="#FF6363" opacity="0.85" clip-path="url(#ca)">+2.8% (+81)</text>
<text x="743.3" y="55.0" text-anchor="middle" font-size="9" fill="#FF6363" opacity="0.85" clip-path="url(#ca)">+1.4% (+40)</text>
<rect x="351" y="369" width="12" height="12" fill="#FF6363" rx="2"/>
<text x="367" y="379" font-size="12" fill="#111827">Extensions</text>
<text x="72" y="394" font-size="8" fill="#e5e7eb">data since Dec 11, 2025</text>
</svg>