<svg xmlns="http://www.w3.org/2000/svg" width="800" height="400" viewBox="0 0 800 400">
<defs>
  <style>text { font-family: -apple-system, BlinkMacSystemFont, 'Segoe UI', Roboto, sans-serif; }</style>
  <linearGradient id="g2" x1="0" y1="0" x2="0" y2="1">
  <stop offset="0%" stop-color="#4F8EF7" stop-opacity="0.25"/>
  <stop offset="100%" stop-color="#4F8EF7" stop-opacity="0"/>
</linearGradient>
<linearGradient id="g3" x1="0" y1="0" x2="0" y2="1">
  <stop offset="0%" stop-color="#BF5AF2" stop-opacity="0.25"/>
  <stop offset="100%" stop-color="#BF5AF2" stop-opacity="0"/>
</linearGradient>
  <clipPath id="ca"><rect x="72" y="45" width="698" height="295"/></clipPath>
</defs>
<rect width="800" height="400" fill="#ffffff" rx="12"/>
<text x="400" y="26" text-anchor="middle" font-size="15" font-weight="600" fill="#111827">Community Growth Over Time</text>
<line x1="72" y1="340.0" x2="770" y2="340.0" stroke="#f3f4f6" stroke-width="1"/>
<text x="66" y="344.0" text-anchor="end" font-size="11" fill="#6b7280">907</text>
<line x1="72" y1="281.0" x2="770" y2="281.0" stroke="#f3f4f6" stroke-width="1"/>
<text x="66" y="285.0" text-anchor="end" font-size="11" fill="#6b7280">1.1k</text>
<line x1="72" y1="222.0" x2="770" y2="222.0" stroke="#f3f4f6" stroke-width="1"/>
<text x="66" y="226.0" text-anchor="end" font-size="11" fill="#6b7280">1.3k</text>
<line x1="72" y1="163.0" x2="770" y2="163.0" stroke="#f3f4f6" stroke-width="1"/>
<text x="66" y="167.0" text-anchor="end" font-size="11" fill="#6b7280">1.5k</text>
<line x1="72" y1="104.0" x2="770" y2="104.0" stroke="#f3f4f6" stroke-width="1"/>
<text x="66" y="108.0" text-anchor="end" font-size="11" fill="#6b7280">1.7k</text>
<line x1="72" y1="45.0" x2="770" y2="45.0" stroke="#f3f4f6" stroke-width="1"/>
<text x="66" y="49.0" text-anchor="end" font-size="11" fill="#6b7280">1.9k</text>
<line x1="175.4" y1="45" x2="175.4" y2="340" stroke="#e5e7eb" stroke-width="1" stroke-dasharray="3,3" clip-path="url(#ca)"/>
<line x1="399.5" y1="45" x2="399.5" y2="340" stroke="#e5e7eb" stroke-width="1" stroke-dasharray="3,3" clip-path="url(#ca)"/>
<line x1="632.1" y1="45" x2="632.1" y2="340" stroke="#e5e7eb" stroke-width="1" stroke-dasharray="3,3" clip-path="url(#ca)"/>
<text x="72.0" y="358.0" text-anchor="middle" font-size="11" fill="#6b7280">Dec 11</text>
<text x="209.9" y="358.0" text-anchor="middle" font-size="11" fill="#6b7280">Jan 7</text>
<text x="347.8" y="358.0" text-anchor="middle" font-size="11" fill="#6b7280">Jan 26</text>
<text x="494.2" y="358.0" text-anchor="middle" font-size="11" fill="#6b7280">Feb 12</text>
<text x="632.1" y="358.0" text-anchor="middle" font-size="11" fill="#6b7280">Mar 1</text>
<text x="770.0" y="358.0" text-anchor="middle" font-size="11" fill="#6b7280">Mar 18</text>
<line x1="72" y1="45" x2="72" y2="340" stroke="#e5e7eb" stroke-width="1"/>
<line x1="72" y1="340" x2="770" y2="340" stroke="#e5e7eb" stroke-width="1"/>
<text x="-192.5" y="18" text-anchor="middle" font-size="12" fill="#6b7280" transform="rotate(-90)">People</text>
<path d="M 72.0,340 L 72.0,122.7 L 80.6,122.7 L 89.2,122.7 L 97.9,121.8 L 106.5,121.8 L 115.1,121.2 L 123.7,120.9 L 132.3,121.2 L 140.9,120.3 L 149.6,120.3 L 158.2,120.3 L 166.8,120.3 L 175.4,120.3 L 184.0,120.3 L 192.6,120.3 L 201.3,120.3 L 209.9,120.0 L 218.5,119.1 L 227.1,117.2 L 235.7,116.3 L 244.3,116.0 L 253.0,116.0 L 261.6,115.1 L 270.2,112.9 L 278.8,111.7 L 287.4,111.7 L 296.0,110.2 L 304.7,109.6 L 313.3,108.4 L 321.9,107.5 L 330.5,106.5 L 339.1,105.6 L 347.8,105.6 L 356.4,103.5 L 365.0,102.3 L 373.6,102.3 L 382.2,101.0 L 390.8,100.4 L 399.5,100.1 L 408.1,99.8 L 416.7,99.8 L 425.3,98.9 L 433.9,95.2 L 442.5,93.1 L 451.2,91.9 L 459.8,91.6 L 468.4,91.0 L 477.0,89.7 L 485.6,89.1 L 494.2,88.5 L 502.9,87.9 L 511.5,87.3 L 520.1,86.7 L 528.7,86.7 L 537.3,83.6 L 546.0,83.6 L 554.6,83.3 L 563.2,83.0 L 571.8,82.4 L 580.4,82.4 L 589.0,80.9 L 597.7,79.1 L 606.3,78.4 L 614.9,79.1 L 623.5,78.7 L 632.1,78.4 L 640.7,78.4 L 649.4,77.8 L 658.0,76.6 L 666.6,76.0 L 675.2,75.4 L 683.8,75.1 L 692.4,75.1 L 701.1,73.9 L 709.7,73.2 L 718.3,73.2 L 726.9,70.8 L 735.5,70.8 L 744.1,70.8 L 752.8,70.8 L 761.4,70.5 L 770.0,69.6 L 770.0,340 Z" fill="url(#g2)" clip-path="url(#ca)"/>
<path d="M 72.0,122.7 L 80.6,122.7 L 89.2,122.7 L 97.9,121.8 L 106.5,121.8 L 115.1,121.2 L 123.7,120.9 L 132.3,121.2 L 140.9,120.3 L 149.6,120.3 L 158.2,120.3 L 166.8,120.3 L 175.4,120.3 L 184.0,120.3 L 192.6,120.3 L 201.3,120.3 L 209.9,120.0 L 218.5,119.1 L 227.1,117.2 L 235.7,116.3 L 244.3,116.0 L 253.0,116.0 L 261.6,115.1 L 270.2,112.9 L 278.8,111.7 L 287.4,111.7 L 296.0,110.2 L 304.7,109.6 L 313.3,108.4 L 321.9,107.5 L 330.5,106.5 L 339.1,105.6 L 347.8,105.6 L 356.4,103.5 L 365.0,102.3 L 373.6,102.3 L 382.2,101.0 L 390.8,100.4 L 399.5,100.1 L 408.1,99.8 L 416.7,99.8 L 425.3,98.9 L 433.9,95.2 L 442.5,93.1 L 451.2,91.9 L 459.8,91.6 L 468.4,91.0 L 477.0,89.7 L 485.6,89.1 L 494.2,88.5 L 502.9,87.9 L 511.5,87.3 L 520.1,86.7 L 528.7,86.7 L 537.3,83.6 L 546.0,83.6 L 554.6,83.3 L 563.2,83.0 L 571.8,82.4 L 580.4,82.4 L 589.0,80.9 L 597.7,79.1 L 606.3,78.4 L 614.9,79.1 L 623.5,78.7 L 632.1,78.4 L 640.7,78.4 L 649.4,77.8 L 658.0,76.6 L 666.6,76.0 L 675.2,75.4 L 683.8,75.1 L 692.4,75.1 L 701.1,73.9 L 709.7,73.2 L 718.3,73.2 L 726.9,70.8 L 735.5,70.8 L 744.1,70.8 L 752.8,70.8 L 761.4,70.5 L 770.0,69.6" fill="none" stroke="#4F8EF7" stroke-width="2.5" stroke-linejoin="round" clip-path="url(#ca)"/>
<path d="M 72.0,340 L 72.0,315.4 L 80.6,314.5 L 89.2,314.5 L 97.9,314.5 L 106.5,314.2 L 115.1,313.6 L 123.7,313.3 L 132.3,313.0 L 140.9,313.0 L 149.6,312.7 L 158.2,312.4 L 166.8,312.4 L 175.4,312.4 L 184.0,312.4 L 192.6,312.4 L 201.3,312.4 L 209.9,311.8 L 218.5,311.8 L 227.1,311.8 L 235.7,310.5 L 244.3,310.2 L 253.0,309.6 L 261.6,308.4 L 270.2,308.1 L 278.8,308.1 L 287.4,308.1 L 296.0,307.2 L 304.7,306.6 L 313.3,306.6 L 321.9,305.9 L 330.5,305.6 L 339.1,305.0 L 347.8,305.0 L 356.4,304.7 L 365.0,303.5 L 373.6,302.6 L 382.2,302.0 L 390.8,301.7 L 399.5,301.7 L 408.1,301.4 L 416.7,300.8 L 425.3,300.8 L 433.9,300.5 L 442.5,299.5 L 451.2,298.9 L 459.8,298.9 L 468.4,298.9 L 477.0,298.9 L 485.6,298.6 L 494.2,297.7 L 502.9,297.1 L 511.5,296.8 L 520.1,296.5 L 528.7,296.2 L 537.3,295.9 L 546.0,295.6 L 554.6,295.3 L 563.2,294.3 L 571.8,294.0 L 580.4,293.7 L 589.0,292.5 L 597.7,291.3 L 606.3,291.3 L 614.9,291.0 L 623.5,290.7 L 632.1,290.7 L 640.7,290.7 L 649.4,290.1 L 658.0,290.1 L 666.6,288.2 L 675.2,287.9 L 683.8,287.6 L 692.4,287.6 L 701.1,287.0 L 709.7,286.7 L 718.3,286.7 L 726.9,286.4 L 735.5,286.4 L 744.1,286.4 L 752.8,285.8 L 761.4,285.5 L 770.0,284.0 L 770.0,340 Z" fill="url(#g3)" clip-path="url(#ca)"/>
<path d="M 72.0,315.4 L 80.6,314.5 L 89.2,314.5 L 97.9,314.5 L 106.5,314.2 L 115.1,313.6 L 123.7,313.3 L 132.3,313.0 L 140.9,313.0 L 149.6,312.7 L 158.2,312.4 L 166.8,312.4 L 175.4,312.4 L 184.0,312.4 L 192.6,312.4 L 201.3,312.4 L 209.9,311.8 L 218.5,311.8 L 227.1,311.8 L 235.7,310.5 L 244.3,310.2 L 253.0,309.6 L 261.6,308.4 L 270.2,308.1 L 278.8,308.1 L 287.4,308.1 L 296.0,307.2 L 304.7,306.6 L 313.3,306.6 L 321.9,305.9 L 330.5,305.6 L 339.1,305.0 L 347.8,305.0 L 356.4,304.7 L 365.0,303.5 L 373.6,302.6 L 382.2,302.0 L 390.8,301.7 L 399.5,301.7 L 408.1,301.4 L 416.7,300.8 L 425.3,300.8 L 433.9,300.5 L 442.5,299.5 L 451.2,298.9 L 459.8,298.9 L 468.4,298.9 L 477.0,298.9 L 485.6,298.6 L 494.2,297.7 L 502.9,297.1 L 511.5,296.8 L 520.1,296.5 L 528.7,296.2 L 537.3,295.9 L 546.0,295.6 L 554.6,295.3 L 563.2,294.3 L 571.8,294.0 L 580.4,293.7 L 589.0,292.5 L 597.7,291.3 L 606.3,291.3 L 614.9,291.0 L 623.5,290.7 L 632.1,290.7 L 640.7,290.7 L 649.4,290.1 L 658.0,290.1 L 666.6,288.2 L 675.2,287.9 L 683.8,287.6 L 692.4,287.6 L 701.1,287.0 L 709.7,286.7 L 718.3,286.7 L 726.9,286.4 L 735.5,286.4 L 744.1,286.4 L 752.8,285.8 L 761.4,285.5 L 770.0,284.0" fill="none" stroke="#BF5AF2" stroke-width="2.5" stroke-linejoin="round" clip-path="url(#ca)"/>
<text x="119.4" y="55.0" text-anchor="middle" font-size="9" fill="#4F8EF7" opacity="0.85" clip-path="url(#ca)">+0.5%</text>
<text x="119.4" y="66.0" text-anchor="middle" font-size="9" fill="#BF5AF2" opacity="0.85" clip-path="url(#ca)">+1.0%</text>
<text x="283.1" y="55.0" text-anchor="middle" font-size="9" fill="#4F8EF7" opacity="0.85" clip-path="url(#ca)">+4.0%</text>
<text x="283.1" y="66.0" text-anchor="middle" font-size="9" fill="#BF5AF2" opacity="0.85" clip-path="url(#ca)">+3.5%</text>
<text x="511.5" y="55.0" text-anchor="middle" font-size="9" fill="#4F8EF7" opacity="0.85" clip-path="url(#ca)">+4.1%</text>
<text x="511.5" y="66.0" text-anchor="middle" font-size="9" fill="#BF5AF2" opacity="0.85" clip-path="url(#ca)">+3.5%</text>
<text x="701.1" y="55.0" text-anchor="middle" font-size="9" fill="#4F8EF7" opacity="0.85" clip-path="url(#ca)">+1.6%</text>
<text x="701.1" y="66.0" text-anchor="middle" font-size="9" fill="#BF5AF2" opacity="0.85" clip-path="url(#ca)">+2.1%</text>
<rect x="281" y="369" width="12" height="12" fill="#4F8EF7" rx="2"/>
<text x="297" y="379" font-size="12" fill="#111827">Authors</text>
<rect x="421" y="369" width="12" height="12" fill="#BF5AF2" rx="2"/>
<text x="437" y="379" font-size="12" fill="#111827">Contributors</text>
<text x="72" y="394" font-size="8" fill="#e5e7eb">data since Dec 11, 2025</text>
</svg>