<svg xmlns="http://www.w3.org/2000/svg" width="800" height="400" viewBox="0 0 800 400">
<defs>
  <style>text { font-family: -apple-system, BlinkMacSystemFont, 'Segoe UI', Roboto, sans-serif; }</style>
  <linearGradient id="g2" x1="0" y1="0" x2="0" y2="1">
  <stop offset="0%" stop-color="#4F8EF7" stop-opacity="0.25"/>
  <stop offset="100%" stop-color="#4F8EF7" stop-opacity="0"/>
</linearGradient>
<linearGradient id="g3" x1="0" y1="0" x2="0" y2="1">
  <stop offset="0%" stop-color="#BF5AF2" stop-opacity="0.25"/>
  <stop offset="100%" stop-color="#BF5AF2" stop-opacity="0"/>
</linearGradient>
<linearGradient id="g4" x1="0" y1="0" x2="0" y2="1">
  <stop offset="0%" stop-color="#34C759" stop-opacity="0.25"/>
  <stop offset="100%" stop-color="#34C759" stop-opacity="0"/>
</linearGradient>
  <clipPath id="ca"><rect x="72" y="45" width="698" height="295"/></clipPath>
</defs>
<rect width="800" height="400" fill="#ffffff" rx="12"/>
<text x="400" y="26" text-anchor="middle" font-size="15" font-weight="600" fill="#111827">Community Growth Over Time</text>
<line x1="72" y1="340.0" x2="770" y2="340.0" stroke="#f3f4f6" stroke-width="1"/>
<text x="66" y="344.0" text-anchor="end" font-size="11" fill="#6b7280">500</text>
<line x1="72" y1="241.7" x2="770" y2="241.7" stroke="#f3f4f6" stroke-width="1"/>
<text x="66" y="245.7" text-anchor="end" font-size="11" fill="#6b7280">1.0k</text>
<line x1="72" y1="143.3" x2="770" y2="143.3" stroke="#f3f4f6" stroke-width="1"/>
<text x="66" y="147.3" text-anchor="end" font-size="11" fill="#6b7280">1.5k</text>
<line x1="72" y1="45.0" x2="770" y2="45.0" stroke="#f3f4f6" stroke-width="1"/>
<text x="66" y="49.0" text-anchor="end" font-size="11" fill="#6b7280">2.0k</text>
<line x1="129.8" y1="45" x2="129.8" y2="340" stroke="#e5e7eb" stroke-width="1" stroke-dasharray="3,3" clip-path="url(#ca)"/>
<line x1="254.9" y1="45" x2="254.9" y2="340" stroke="#e5e7eb" stroke-width="1" stroke-dasharray="3,3" clip-path="url(#ca)"/>
<line x1="384.9" y1="45" x2="384.9" y2="340" stroke="#e5e7eb" stroke-width="1" stroke-dasharray="3,3" clip-path="url(#ca)"/>
<line x1="514.9" y1="45" x2="514.9" y2="340" stroke="#e5e7eb" stroke-width="1" stroke-dasharray="3,3" clip-path="url(#ca)"/>
<line x1="644.8" y1="45" x2="644.8" y2="340" stroke="#e5e7eb" stroke-width="1" stroke-dasharray="3,3" clip-path="url(#ca)"/>
<line x1="770.0" y1="45" x2="770.0" y2="340" stroke="#e5e7eb" stroke-width="1" stroke-dasharray="3,3" clip-path="url(#ca)"/>
<text x="72.0" y="358.0" text-anchor="middle" font-size="11" fill="#6b7280">Dec 11</text>
<text x="211.6" y="358.0" text-anchor="middle" font-size="11" fill="#6b7280">Jan 23</text>
<text x="351.2" y="358.0" text-anchor="middle" font-size="11" fill="#6b7280">Feb 21</text>
<text x="490.8" y="358.0" text-anchor="middle" font-size="11" fill="#6b7280">Mar 25</text>
<text x="630.4" y="358.0" text-anchor="middle" font-size="11" fill="#6b7280">Apr 28</text>
<text x="770.0" y="358.0" text-anchor="middle" font-size="11" fill="#6b7280">Jun 2</text>
<line x1="72" y1="45" x2="72" y2="340" stroke="#e5e7eb" stroke-width="1"/>
<line x1="72" y1="340" x2="770" y2="340" stroke="#e5e7eb" stroke-width="1"/>
<text x="-192.5" y="18" text-anchor="middle" font-size="12" fill="#6b7280" transform="rotate(-90)">People</text>
<path d="M 72.0,340 L 72.0,120.1 L 76.8,120.1 L 81.6,120.1 L 86.4,119.5 L 91.3,119.5 L 96.1,119.1 L 100.9,118.9 L 105.7,119.1 L 110.5,118.6 L 115.3,118.6 L 120.1,118.6 L 125.0,118.6 L 129.8,118.6 L 134.6,118.6 L 139.4,118.6 L 144.2,118.6 L 149.0,118.4 L 153.8,117.8 L 158.6,116.6 L 163.5,116.0 L 168.3,115.8 L 173.1,115.8 L 177.9,115.2 L 182.7,113.8 L 187.5,113.0 L 192.3,113.0 L 197.2,112.1 L 202.0,111.7 L 206.8,110.9 L 211.6,110.3 L 216.4,109.7 L 221.2,109.1 L 226.0,109.1 L 230.9,107.7 L 235.7,106.9 L 240.5,106.9 L 245.3,106.2 L 250.1,105.8 L 254.9,105.6 L 259.7,105.4 L 264.6,105.4 L 269.4,104.8 L 274.2,102.4 L 279.0,101.0 L 283.8,100.3 L 288.6,100.1 L 293.4,99.7 L 298.2,98.9 L 303.1,98.5 L 307.9,98.1 L 312.7,97.7 L 317.5,97.3 L 322.3,96.9 L 327.1,96.9 L 331.9,95.0 L 336.8,95.0 L 341.6,94.8 L 346.4,94.6 L 351.2,94.2 L 356.0,94.2 L 360.8,93.2 L 365.6,92.0 L 370.5,91.6 L 375.3,92.0 L 380.1,91.8 L 384.9,91.6 L 389.7,91.6 L 394.5,91.2 L 399.3,90.4 L 404.2,90.0 L 409.0,89.6 L 413.8,89.4 L 418.6,89.4 L 423.4,88.7 L 428.2,88.3 L 433.0,88.3 L 437.8,86.7 L 442.7,86.7 L 447.5,86.7 L 452.3,86.7 L 457.1,86.5 L 461.9,85.9 L 466.7,85.1 L 471.5,84.7 L 476.4,84.7 L 481.2,84.3 L 486.0,82.8 L 490.8,81.8 L 495.6,81.6 L 500.4,81.4 L 505.2,80.8 L 510.1,79.6 L 514.9,79.2 L 519.7,78.8 L 524.5,77.6 L 529.3,77.4 L 534.1,77.4 L 538.9,77.4 L 543.8,77.3 L 548.6,76.1 L 553.4,75.9 L 558.2,75.7 L 563.0,75.7 L 567.8,75.3 L 572.6,73.7 L 577.4,73.5 L 582.3,73.3 L 587.1,73.3 L 591.9,72.5 L 596.7,72.3 L 601.5,72.1 L 606.3,71.6 L 611.1,70.8 L 616.0,70.8 L 620.8,70.8 L 625.6,70.8 L 630.4,70.4 L 635.2,69.8 L 640.0,69.6 L 644.8,69.0 L 649.7,68.8 L 654.5,68.6 L 659.3,67.8 L 664.1,67.2 L 668.9,67.0 L 673.7,67.0 L 678.5,65.3 L 683.4,64.7 L 688.2,64.5 L 693.0,64.5 L 697.8,63.5 L 702.6,63.5 L 707.4,62.9 L 712.2,62.3 L 717.0,60.9 L 721.9,60.7 L 726.7,60.5 L 731.5,60.3 L 736.3,60.3 L 741.1,60.1 L 745.9,59.2 L 750.7,58.6 L 755.6,58.6 L 760.4,58.4 L 765.2,58.4 L 770.0,57.8 L 770.0,340 Z" fill="url(#g2)" clip-path="url(#ca)"/>
<path d="M 72.0,120.1 L 76.8,120.1 L 81.6,120.1 L 86.4,119.5 L 91.3,119.5 L 96.1,119.1 L 100.9,118.9 L 105.7,119.1 L 110.5,118.6 L 115.3,118.6 L 120.1,118.6 L 125.0,118.6 L 129.8,118.6 L 134.6,118.6 L 139.4,118.6 L 144.2,118.6 L 149.0,118.4 L 153.8,117.8 L 158.6,116.6 L 163.5,116.0 L 168.3,115.8 L 173.1,115.8 L 177.9,115.2 L 182.7,113.8 L 187.5,113.0 L 192.3,113.0 L 197.2,112.1 L 202.0,111.7 L 206.8,110.9 L 211.6,110.3 L 216.4,109.7 L 221.2,109.1 L 226.0,109.1 L 230.9,107.7 L 235.7,106.9 L 240.5,106.9 L 245.3,106.2 L 250.1,105.8 L 254.9,105.6 L 259.7,105.4 L 264.6,105.4 L 269.4,104.8 L 274.2,102.4 L 279.0,101.0 L 283.8,100.3 L 288.6,100.1 L 293.4,99.7 L 298.2,98.9 L 303.1,98.5 L 307.9,98.1 L 312.7,97.7 L 317.5,97.3 L 322.3,96.9 L 327.1,96.9 L 331.9,95.0 L 336.8,95.0 L 341.6,94.8 L 346.4,94.6 L 351.2,94.2 L 356.0,94.2 L 360.8,93.2 L 365.6,92.0 L 370.5,91.6 L 375.3,92.0 L 380.1,91.8 L 384.9,91.6 L 389.7,91.6 L 394.5,91.2 L 399.3,90.4 L 404.2,90.0 L 409.0,89.6 L 413.8,89.4 L 418.6,89.4 L 423.4,88.7 L 428.2,88.3 L 433.0,88.3 L 437.8,86.7 L 442.7,86.7 L 447.5,86.7 L 452.3,86.7 L 457.1,86.5 L 461.9,85.9 L 466.7,85.1 L 471.5,84.7 L 476.4,84.7 L 481.2,84.3 L 486.0,82.8 L 490.8,81.8 L 495.6,81.6 L 500.4,81.4 L 505.2,80.8 L 510.1,79.6 L 514.9,79.2 L 519.7,78.8 L 524.5,77.6 L 529.3,77.4 L 534.1,77.4 L 538.9,77.4 L 543.8,77.3 L 548.6,76.1 L 553.4,75.9 L 558.2,75.7 L 563.0,75.7 L 567.8,75.3 L 572.6,73.7 L 577.4,73.5 L 582.3,73.3 L 587.1,73.3 L 591.9,72.5 L 596.7,72.3 L 601.5,72.1 L 606.3,71.6 L 611.1,70.8 L 616.0,70.8 L 620.8,70.8 L 625.6,70.8 L 630.4,70.4 L 635.2,69.8 L 640.0,69.6 L 644.8,69.0 L 649.7,68.8 L 654.5,68.6 L 659.3,67.8 L 664.1,67.2 L 668.9,67.0 L 673.7,67.0 L 678.5,65.3 L 683.4,64.7 L 688.2,64.5 L 693.0,64.5 L 697.8,63.5 L 702.6,63.5 L 707.4,62.9 L 712.2,62.3 L 717.0,60.9 L 721.9,60.7 L 726.7,60.5 L 731.5,60.3 L 736.3,60.3 L 741.1,60.1 L 745.9,59.2 L 750.7,58.6 L 755.6,58.6 L 760.4,58.4 L 765.2,58.4 L 770.0,57.8" fill="none" stroke="#4F8EF7" stroke-width="2.5" stroke-linejoin="round" clip-path="url(#ca)"/>
<path d="M 72.0,340 L 72.0,244.2 L 76.8,243.6 L 81.6,243.6 L 86.4,243.6 L 91.3,243.4 L 96.1,243.0 L 100.9,242.8 L 105.7,242.6 L 110.5,242.6 L 115.3,242.5 L 120.1,242.3 L 125.0,242.3 L 129.8,242.3 L 134.6,242.3 L 139.4,242.3 L 144.2,242.3 L 149.0,241.9 L 153.8,241.9 L 158.6,241.9 L 163.5,241.1 L 168.3,240.9 L 173.1,240.5 L 177.9,239.7 L 182.7,239.5 L 187.5,239.5 L 192.3,239.5 L 197.2,238.9 L 202.0,238.5 L 206.8,238.5 L 211.6,238.1 L 216.4,237.9 L 221.2,237.5 L 226.0,237.5 L 230.9,237.3 L 235.7,236.6 L 240.5,236.0 L 245.3,235.6 L 250.1,235.4 L 254.9,235.4 L 259.7,235.2 L 264.6,234.8 L 269.4,234.8 L 274.2,234.6 L 279.0,234.0 L 283.8,233.6 L 288.6,233.6 L 293.4,233.6 L 298.2,233.6 L 303.1,233.4 L 307.9,232.8 L 312.7,232.4 L 317.5,232.2 L 322.3,232.0 L 327.1,231.8 L 331.9,231.6 L 336.8,231.4 L 341.6,231.2 L 346.4,230.7 L 351.2,230.5 L 356.0,230.3 L 360.8,229.5 L 365.6,228.7 L 370.5,228.7 L 375.3,228.5 L 380.1,228.3 L 384.9,228.3 L 389.7,228.3 L 394.5,227.9 L 399.3,227.9 L 404.2,226.7 L 409.0,226.5 L 413.8,226.3 L 418.6,226.3 L 423.4,225.9 L 428.2,225.7 L 433.0,225.7 L 437.8,225.5 L 442.7,225.5 L 447.5,225.5 L 452.3,225.1 L 457.1,224.9 L 461.9,224.0 L 466.7,224.2 L 471.5,224.0 L 476.4,223.8 L 481.2,223.8 L 486.0,223.6 L 490.8,223.0 L 495.6,223.0 L 500.4,223.0 L 505.2,223.0 L 510.1,222.6 L 514.9,222.6 L 519.7,222.2 L 524.5,221.8 L 529.3,221.0 L 534.1,221.0 L 538.9,220.6 L 543.8,220.4 L 548.6,220.2 L 553.4,220.0 L 558.2,219.6 L 563.0,219.6 L 567.8,219.1 L 572.6,219.1 L 577.4,218.9 L 582.3,218.5 L 587.1,218.3 L 591.9,218.3 L 596.7,218.3 L 601.5,218.3 L 606.3,218.3 L 611.1,217.7 L 616.0,217.7 L 620.8,217.3 L 625.6,216.9 L 630.4,216.3 L 635.2,216.1 L 640.0,216.1 L 644.8,214.9 L 649.7,214.7 L 654.5,214.7 L 659.3,213.9 L 664.1,213.9 L 668.9,213.5 L 673.7,213.5 L 678.5,213.3 L 683.4,213.3 L 688.2,213.2 L 693.0,212.8 L 697.8,212.8 L 702.6,212.6 L 707.4,212.4 L 712.2,212.2 L 717.0,212.0 L 721.9,212.0 L 726.7,211.6 L 731.5,211.6 L 736.3,211.6 L 741.1,210.6 L 745.9,210.6 L 750.7,210.6 L 755.6,210.6 L 760.4,210.6 L 765.2,210.6 L 770.0,210.2 L 770.0,340 Z" fill="url(#g3)" clip-path="url(#ca)"/>
<path d="M 72.0,244.2 L 76.8,243.6 L 81.6,243.6 L 86.4,243.6 L 91.3,243.4 L 96.1,243.0 L 100.9,242.8 L 105.7,242.6 L 110.5,242.6 L 115.3,242.5 L 120.1,242.3 L 125.0,242.3 L 129.8,242.3 L 134.6,242.3 L 139.4,242.3 L 144.2,242.3 L 149.0,241.9 L 153.8,241.9 L 158.6,241.9 L 163.5,241.1 L 168.3,240.9 L 173.1,240.5 L 177.9,239.7 L 182.7,239.5 L 187.5,239.5 L 192.3,239.5 L 197.2,238.9 L 202.0,238.5 L 206.8,238.5 L 211.6,238.1 L 216.4,237.9 L 221.2,237.5 L 226.0,237.5 L 230.9,237.3 L 235.7,236.6 L 240.5,236.0 L 245.3,235.6 L 250.1,235.4 L 254.9,235.4 L 259.7,235.2 L 264.6,234.8 L 269.4,234.8 L 274.2,234.6 L 279.0,234.0 L 283.8,233.6 L 288.6,233.6 L 293.4,233.6 L 298.2,233.6 L 303.1,233.4 L 307.9,232.8 L 312.7,232.4 L 317.5,232.2 L 322.3,232.0 L 327.1,231.8 L 331.9,231.6 L 336.8,231.4 L 341.6,231.2 L 346.4,230.7 L 351.2,230.5 L 356.0,230.3 L 360.8,229.5 L 365.6,228.7 L 370.5,228.7 L 375.3,228.5 L 380.1,228.3 L 384.9,228.3 L 389.7,228.3 L 394.5,227.9 L 399.3,227.9 L 404.2,226.7 L 409.0,226.5 L 413.8,226.3 L 418.6,226.3 L 423.4,225.9 L 428.2,225.7 L 433.0,225.7 L 437.8,225.5 L 442.7,225.5 L 447.5,225.5 L 452.3,225.1 L 457.1,224.9 L 461.9,224.0 L 466.7,224.2 L 471.5,224.0 L 476.4,223.8 L 481.2,223.8 L 486.0,223.6 L 490.8,223.0 L 495.6,223.0 L 500.4,223.0 L 505.2,223.0 L 510.1,222.6 L 514.9,222.6 L 519.7,222.2 L 524.5,221.8 L 529.3,221.0 L 534.1,221.0 L 538.9,220.6 L 543.8,220.4 L 548.6,220.2 L 553.4,220.0 L 558.2,219.6 L 563.0,219.6 L 567.8,219.1 L 572.6,219.1 L 577.4,218.9 L 582.3,218.5 L 587.1,218.3 L 591.9,218.3 L 596.7,218.3 L 601.5,218.3 L 606.3,218.3 L 611.1,217.7 L 616.0,217.7 L 620.8,217.3 L 625.6,216.9 L 630.4,216.3 L 635.2,216.1 L 640.0,216.1 L 644.8,214.9 L 649.7,214.7 L 654.5,214.7 L 659.3,213.9 L 664.1,213.9 L 668.9,213.5 L 673.7,213.5 L 678.5,213.3 L 683.4,213.3 L 688.2,213.2 L 693.0,212.8 L 697.8,212.8 L 702.6,212.6 L 707.4,212.4 L 712.2,212.2 L 717.0,212.0 L 721.9,212.0 L 726.7,211.6 L 731.5,211.6 L 736.3,211.6 L 741.1,210.6 L 745.9,210.6 L 750.7,210.6 L 755.6,210.6 L 760.4,210.6 L 765.2,210.6 L 770.0,210.2" fill="none" stroke="#BF5AF2" stroke-width="2.5" stroke-linejoin="round" clip-path="url(#ca)"/>
<path d="M 72.0,340 L 72.0,291.4 L 76.8,290.8 L 81.6,290.8 L 86.4,290.8 L 91.3,290.6 L 96.1,290.2 L 100.9,290.0 L 105.7,289.7 L 110.5,289.7 L 115.3,289.5 L 120.1,289.3 L 125.0,289.3 L 129.8,289.3 L 134.6,289.3 L 139.4,289.3 L 144.2,289.3 L 149.0,288.9 L 153.8,288.9 L 158.6,289.1 L 163.5,288.5 L 168.3,288.7 L 173.1,288.1 L 177.9,287.5 L 182.7,287.3 L 187.5,287.5 L 192.3,287.5 L 197.2,286.9 L 202.0,286.7 L 206.8,286.7 L 211.6,286.3 L 216.4,286.1 L 221.2,285.7 L 226.0,285.7 L 230.9,285.5 L 235.7,284.9 L 240.5,284.3 L 245.3,283.9 L 250.1,283.9 L 254.9,283.9 L 259.7,283.8 L 264.6,283.4 L 269.4,283.4 L 274.2,283.2 L 279.0,282.6 L 283.8,282.4 L 288.6,282.4 L 293.4,282.4 L 298.2,282.4 L 303.1,282.2 L 307.9,281.6 L 312.7,281.4 L 317.5,281.2 L 322.3,281.0 L 327.1,281.0 L 331.9,280.8 L 336.8,280.8 L 341.6,280.8 L 346.4,280.2 L 351.2,280.2 L 356.0,280.2 L 360.8,279.8 L 365.6,279.2 L 370.5,279.2 L 375.3,279.0 L 380.1,278.8 L 384.9,278.8 L 389.7,278.8 L 394.5,278.4 L 399.3,278.4 L 404.2,277.3 L 409.0,277.1 L 413.8,276.9 L 418.6,276.9 L 423.4,276.7 L 428.2,276.7 L 433.0,276.7 L 437.8,276.7 L 442.7,276.7 L 447.5,276.7 L 452.3,276.3 L 457.1,276.1 L 461.9,275.1 L 466.7,275.3 L 471.5,275.3 L 476.4,275.1 L 481.2,275.1 L 486.0,275.1 L 490.8,274.7 L 495.6,274.7 L 500.4,274.7 L 505.2,274.7 L 510.1,274.7 L 514.9,274.7 L 519.7,274.5 L 524.5,274.5 L 529.3,273.7 L 534.1,273.7 L 538.9,273.5 L 543.8,273.3 L 548.6,273.1 L 553.4,272.9 L 558.2,272.5 L 563.0,272.5 L 567.8,272.0 L 572.6,272.0 L 577.4,271.8 L 582.3,271.6 L 587.1,271.6 L 591.9,271.6 L 596.7,271.6 L 601.5,271.6 L 606.3,271.6 L 611.1,271.0 L 616.0,271.0 L 620.8,270.6 L 625.6,270.2 L 630.4,269.6 L 635.2,269.4 L 640.0,269.4 L 644.8,268.4 L 649.7,268.2 L 654.5,268.2 L 659.3,267.6 L 664.1,267.6 L 668.9,267.4 L 673.7,267.4 L 678.5,267.6 L 683.4,267.8 L 688.2,267.6 L 693.0,267.2 L 697.8,267.4 L 702.6,267.2 L 707.4,267.0 L 712.2,267.0 L 717.0,267.0 L 721.9,267.0 L 726.7,266.6 L 731.5,266.6 L 736.3,266.6 L 741.1,265.9 L 745.9,265.9 L 750.7,265.9 L 755.6,265.9 L 760.4,265.9 L 765.2,265.9 L 770.0,265.5 L 770.0,340 Z" fill="url(#g4)" clip-path="url(#ca)"/>
<path d="M 72.0,291.4 L 76.8,290.8 L 81.6,290.8 L 86.4,290.8 L 91.3,290.6 L 96.1,290.2 L 100.9,290.0 L 105.7,289.7 L 110.5,289.7 L 115.3,289.5 L 120.1,289.3 L 125.0,289.3 L 129.8,289.3 L 134.6,289.3 L 139.4,289.3 L 144.2,289.3 L 149.0,288.9 L 153.8,288.9 L 158.6,289.1 L 163.5,288.5 L 168.3,288.7 L 173.1,288.1 L 177.9,287.5 L 182.7,287.3 L 187.5,287.5 L 192.3,287.5 L 197.2,286.9 L 202.0,286.7 L 206.8,286.7 L 211.6,286.3 L 216.4,286.1 L 221.2,285.7 L 226.0,285.7 L 230.9,285.5 L 235.7,284.9 L 240.5,284.3 L 245.3,283.9 L 250.1,283.9 L 254.9,283.9 L 259.7,283.8 L 264.6,283.4 L 269.4,283.4 L 274.2,283.2 L 279.0,282.6 L 283.8,282.4 L 288.6,282.4 L 293.4,282.4 L 298.2,282.4 L 303.1,282.2 L 307.9,281.6 L 312.7,281.4 L 317.5,281.2 L 322.3,281.0 L 327.1,281.0 L 331.9,280.8 L 336.8,280.8 L 341.6,280.8 L 346.4,280.2 L 351.2,280.2 L 356.0,280.2 L 360.8,279.8 L 365.6,279.2 L 370.5,279.2 L 375.3,279.0 L 380.1,278.8 L 384.9,278.8 L 389.7,278.8 L 394.5,278.4 L 399.3,278.4 L 404.2,277.3 L 409.0,277.1 L 413.8,276.9 L 418.6,276.9 L 423.4,276.7 L 428.2,276.7 L 433.0,276.7 L 437.8,276.7 L 442.7,276.7 L 447.5,276.7 L 452.3,276.3 L 457.1,276.1 L 461.9,275.1 L 466.7,275.3 L 471.5,275.3 L 476.4,275.1 L 481.2,275.1 L 486.0,275.1 L 490.8,274.7 L 495.6,274.7 L 500.4,274.7 L 505.2,274.7 L 510.1,274.7 L 514.9,274.7 L 519.7,274.5 L 524.5,274.5 L 529.3,273.7 L 534.1,273.7 L 538.9,273.5 L 543.8,273.3 L 548.6,273.1 L 553.4,272.9 L 558.2,272.5 L 563.0,272.5 L 567.8,272.0 L 572.6,272.0 L 577.4,271.8 L 582.3,271.6 L 587.1,271.6 L 591.9,271.6 L 596.7,271.6 L 601.5,271.6 L 606.3,271.6 L 611.1,271.0 L 616.0,271.0 L 620.8,270.6 L 625.6,270.2 L 630.4,269.6 L 635.2,269.4 L 640.0,269.4 L 644.8,268.4 L 649.7,268.2 L 654.5,268.2 L 659.3,267.6 L 664.1,267.6 L 668.9,267.4 L 673.7,267.4 L 678.5,267.6 L 683.4,267.8 L 688.2,267.6 L 693.0,267.2 L 697.8,267.4 L 702.6,267.2 L 707.4,267.0 L 712.2,267.0 L 717.0,267.0 L 721.9,267.0 L 726.7,266.6 L 731.5,266.6 L 736.3,266.6 L 741.1,265.9 L 745.9,265.9 L 750.7,265.9 L 755.6,265.9 L 760.4,265.9 L 765.2,265.9 L 770.0,265.5" fill="none" stroke="#34C759" stroke-width="2.5" stroke-linejoin="round" clip-path="url(#ca)"/>
<text x="98.5" y="55.0" text-anchor="middle" font-size="9" fill="#4F8EF7" opacity="0.85" clip-path="url(#ca)">+0.5% (+8)</text>
<text x="98.5" y="66.0" text-anchor="middle" font-size="9" fill="#BF5AF2" opacity="0.85" clip-path="url(#ca)">+1.0% (+10)</text>
<text x="98.5" y="77.0" text-anchor="middle" font-size="9" fill="#34C759" opacity="0.85" clip-path="url(#ca)">+1.5% (+11)</text>
<text x="189.9" y="55.0" text-anchor="middle" font-size="9" fill="#4F8EF7" opacity="0.85" clip-path="url(#ca)">+4.0% (+65)</text>
<text x="189.9" y="66.0" text-anchor="middle" font-size="9" fill="#BF5AF2" opacity="0.85" clip-path="url(#ca)">+3.5% (+35)</text>
<text x="189.9" y="77.0" text-anchor="middle" font-size="9" fill="#34C759" opacity="0.85" clip-path="url(#ca)">+3.6% (+27)</text>
<text x="317.5" y="55.0" text-anchor="middle" font-size="9" fill="#4F8EF7" opacity="0.85" clip-path="url(#ca)">+4.1% (+70)</text>
<text x="317.5" y="66.0" text-anchor="middle" font-size="9" fill="#BF5AF2" opacity="0.85" clip-path="url(#ca)">+3.5% (+36)</text>
<text x="317.5" y="77.0" text-anchor="middle" font-size="9" fill="#34C759" opacity="0.85" clip-path="url(#ca)">+3.3% (+26)</text>
<text x="447.5" y="55.0" text-anchor="middle" font-size="9" fill="#4F8EF7" opacity="0.85" clip-path="url(#ca)">+3.5% (+61)</text>
<text x="447.5" y="66.0" text-anchor="middle" font-size="9" fill="#BF5AF2" opacity="0.85" clip-path="url(#ca)">+2.7% (+29)</text>
<text x="447.5" y="77.0" text-anchor="middle" font-size="9" fill="#34C759" opacity="0.85" clip-path="url(#ca)">+2.6% (+21)</text>
<text x="577.4" y="55.0" text-anchor="middle" font-size="9" fill="#4F8EF7" opacity="0.85" clip-path="url(#ca)">+2.7% (+49)</text>
<text x="577.4" y="66.0" text-anchor="middle" font-size="9" fill="#BF5AF2" opacity="0.85" clip-path="url(#ca)">+3.0% (+33)</text>
<text x="577.4" y="77.0" text-anchor="middle" font-size="9" fill="#34C759" opacity="0.85" clip-path="url(#ca)">+3.2% (+27)</text>
<text x="705.0" y="55.0" text-anchor="middle" font-size="9" fill="#4F8EF7" opacity="0.85" clip-path="url(#ca)">+2.9% (+54)</text>
<text x="705.0" y="66.0" text-anchor="middle" font-size="9" fill="#BF5AF2" opacity="0.85" clip-path="url(#ca)">+1.9% (+22)</text>
<text x="705.0" y="77.0" text-anchor="middle" font-size="9" fill="#34C759" opacity="0.85" clip-path="url(#ca)">+1.5% (+13)</text>
<text x="770.0" y="55.0" text-anchor="middle" font-size="9" fill="#4F8EF7" opacity="0.85" clip-path="url(#ca)">+0.0% (+0)</text>
<text x="770.0" y="66.0" text-anchor="middle" font-size="9" fill="#BF5AF2" opacity="0.85" clip-path="url(#ca)">+0.0% (+0)</text>
<text x="770.0" y="77.0" text-anchor="middle" font-size="9" fill="#34C759" opacity="0.85" clip-path="url(#ca)">+0.0% (+0)</text>
<rect x="211" y="369" width="12" height="12" fill="#4F8EF7" rx="2"/>
<text x="227" y="379" font-size="12" fill="#111827">Authors</text>
<rect x="351" y="369" width="12" height="12" fill="#BF5AF2" rx="2"/>
<text x="367" y="379" font-size="12" fill="#111827">Contributors</text>
<rect x="491" y="369" width="12" height="12" fill="#34C759" rx="2"/>
<text x="507" y="379" font-size="12" fill="#111827">Non-author contributors</text>
<text x="72" y="394" font-size="8" fill="#e5e7eb">data since Dec 11, 2025</text>
</svg>