<svg xmlns="http://www.w3.org/2000/svg" width="800" height="400" viewBox="0 0 800 400">
<defs>
  <style>text { font-family: -apple-system, BlinkMacSystemFont, 'Segoe UI', Roboto, sans-serif; }</style>
  <linearGradient id="g1" x1="0" y1="0" x2="0" y2="1">
  <stop offset="0%" stop-color="#FF6363" stop-opacity="0.25"/>
  <stop offset="100%" stop-color="#FF6363" stop-opacity="0"/>
</linearGradient>
  <clipPath id="ca"><rect x="72" y="45" width="698" height="295"/></clipPath>
</defs>
<rect width="800" height="400" fill="#ffffff" rx="12"/>
<text x="400" y="26" text-anchor="middle" font-size="15" font-weight="600" fill="#111827">Packages Growth Over Time</text>
<line x1="72" y1="340.0" x2="770" y2="340.0" stroke="#f3f4f6" stroke-width="1"/>
<text x="66" y="344.0" text-anchor="end" font-size="11" fill="#6b7280">2.4k</text>
<line x1="72" y1="281.0" x2="770" y2="281.0" stroke="#f3f4f6" stroke-width="1"/>
<text x="66" y="285.0" text-anchor="end" font-size="11" fill="#6b7280">2.5k</text>
<line x1="72" y1="222.0" x2="770" y2="222.0" stroke="#f3f4f6" stroke-width="1"/>
<text x="66" y="226.0" text-anchor="end" font-size="11" fill="#6b7280">2.6k</text>
<line x1="72" y1="163.0" x2="770" y2="163.0" stroke="#f3f4f6" stroke-width="1"/>
<text x="66" y="167.0" text-anchor="end" font-size="11" fill="#6b7280">2.7k</text>
<line x1="72" y1="104.0" x2="770" y2="104.0" stroke="#f3f4f6" stroke-width="1"/>
<text x="66" y="108.0" text-anchor="end" font-size="11" fill="#6b7280">2.8k</text>
<line x1="72" y1="45.0" x2="770" y2="45.0" stroke="#f3f4f6" stroke-width="1"/>
<text x="66" y="49.0" text-anchor="end" font-size="11" fill="#6b7280">2.9k</text>
<line x1="162.1" y1="45" x2="162.1" y2="340" stroke="#e5e7eb" stroke-width="1" stroke-dasharray="3,3" clip-path="url(#ca)"/>
<line x1="357.2" y1="45" x2="357.2" y2="340" stroke="#e5e7eb" stroke-width="1" stroke-dasharray="3,3" clip-path="url(#ca)"/>
<line x1="559.8" y1="45" x2="559.8" y2="340" stroke="#e5e7eb" stroke-width="1" stroke-dasharray="3,3" clip-path="url(#ca)"/>
<line x1="762.5" y1="45" x2="762.5" y2="340" stroke="#e5e7eb" stroke-width="1" stroke-dasharray="3,3" clip-path="url(#ca)"/>
<text x="72.0" y="358.0" text-anchor="middle" font-size="11" fill="#6b7280">Dec 11</text>
<text x="214.6" y="358.0" text-anchor="middle" font-size="11" fill="#6b7280">Jan 10</text>
<text x="349.7" y="358.0" text-anchor="middle" font-size="11" fill="#6b7280">Jan 31</text>
<text x="492.3" y="358.0" text-anchor="middle" font-size="11" fill="#6b7280">Feb 19</text>
<text x="627.4" y="358.0" text-anchor="middle" font-size="11" fill="#6b7280">Mar 11</text>
<text x="770.0" y="358.0" text-anchor="middle" font-size="11" fill="#6b7280">Apr 2</text>
<line x1="72" y1="45" x2="72" y2="340" stroke="#e5e7eb" stroke-width="1"/>
<line x1="72" y1="340" x2="770" y2="340" stroke="#e5e7eb" stroke-width="1"/>
<text x="-192.5" y="18" text-anchor="middle" font-size="12" fill="#6b7280" transform="rotate(-90)">Extensions</text>
<path d="M 72.0,340 L 72.0,294.6 L 79.5,294.0 L 87.0,294.0 L 94.5,292.2 L 102.0,292.2 L 109.5,291.0 L 117.0,289.9 L 124.5,289.3 L 132.0,286.3 L 139.5,283.9 L 147.1,283.9 L 154.6,283.9 L 162.1,283.9 L 169.6,282.8 L 177.1,282.8 L 184.6,282.8 L 192.1,281.6 L 199.6,279.2 L 207.1,275.1 L 214.6,272.1 L 222.1,271.0 L 229.6,270.4 L 237.1,268.0 L 244.6,260.9 L 252.1,258.6 L 259.6,258.6 L 267.1,252.7 L 274.6,250.9 L 282.2,248.6 L 289.7,246.8 L 297.2,243.2 L 304.7,240.3 L 312.2,239.7 L 319.7,235.0 L 327.2,230.8 L 334.7,230.8 L 342.2,227.9 L 349.7,225.5 L 357.2,224.9 L 364.7,224.4 L 372.2,223.8 L 379.7,222.0 L 387.2,211.4 L 394.7,206.7 L 402.2,204.3 L 409.7,203.1 L 417.2,201.3 L 424.8,197.2 L 432.3,196.0 L 439.8,194.9 L 447.3,191.3 L 454.8,190.1 L 462.3,189.0 L 469.8,189.0 L 477.3,178.3 L 484.8,177.2 L 492.3,176.0 L 499.8,173.6 L 507.3,170.7 L 514.8,170.7 L 522.3,166.0 L 529.8,158.3 L 537.3,157.1 L 544.8,157.7 L 552.3,155.9 L 559.8,155.3 L 567.4,155.3 L 574.9,151.8 L 582.4,148.8 L 589.9,146.5 L 597.4,143.5 L 604.9,142.9 L 612.4,142.9 L 619.9,138.8 L 627.4,137.6 L 634.9,137.0 L 642.4,130.0 L 649.9,129.4 L 657.4,129.4 L 664.9,129.4 L 672.4,128.8 L 679.9,125.8 L 687.4,123.5 L 694.9,120.5 L 702.5,119.9 L 710.0,118.2 L 717.5,112.8 L 725.0,108.1 L 732.5,107.5 L 740.0,106.9 L 747.5,105.2 L 755.0,99.3 L 762.5,98.1 L 770.0,96.3 L 770.0,340 Z" fill="url(#g1)" clip-path="url(#ca)"/>
<path d="M 72.0,294.6 L 79.5,294.0 L 87.0,294.0 L 94.5,292.2 L 102.0,292.2 L 109.5,291.0 L 117.0,289.9 L 124.5,289.3 L 132.0,286.3 L 139.5,283.9 L 147.1,283.9 L 154.6,283.9 L 162.1,283.9 L 169.6,282.8 L 177.1,282.8 L 184.6,282.8 L 192.1,281.6 L 199.6,279.2 L 207.1,275.1 L 214.6,272.1 L 222.1,271.0 L 229.6,270.4 L 237.1,268.0 L 244.6,260.9 L 252.1,258.6 L 259.6,258.6 L 267.1,252.7 L 274.6,250.9 L 282.2,248.6 L 289.7,246.8 L 297.2,243.2 L 304.7,240.3 L 312.2,239.7 L 319.7,235.0 L 327.2,230.8 L 334.7,230.8 L 342.2,227.9 L 349.7,225.5 L 357.2,224.9 L 364.7,224.4 L 372.2,223.8 L 379.7,222.0 L 387.2,211.4 L 394.7,206.7 L 402.2,204.3 L 409.7,203.1 L 417.2,201.3 L 424.8,197.2 L 432.3,196.0 L 439.8,194.9 L 447.3,191.3 L 454.8,190.1 L 462.3,189.0 L 469.8,189.0 L 477.3,178.3 L 484.8,177.2 L 492.3,176.0 L 499.8,173.6 L 507.3,170.7 L 514.8,170.7 L 522.3,166.0 L 529.8,158.3 L 537.3,157.1 L 544.8,157.7 L 552.3,155.9 L 559.8,155.3 L 567.4,155.3 L 574.9,151.8 L 582.4,148.8 L 589.9,146.5 L 597.4,143.5 L 604.9,142.9 L 612.4,142.9 L 619.9,138.8 L 627.4,137.6 L 634.9,137.0 L 642.4,130.0 L 649.9,129.4 L 657.4,129.4 L 664.9,129.4 L 672.4,128.8 L 679.9,125.8 L 687.4,123.5 L 694.9,120.5 L 702.5,119.9 L 710.0,118.2 L 717.5,112.8 L 725.0,108.1 L 732.5,107.5 L 740.0,106.9 L 747.5,105.2 L 755.0,99.3 L 762.5,98.1 L 770.0,96.3" fill="none" stroke="#FF6363" stroke-width="2.5" stroke-linejoin="round" clip-path="url(#ca)"/>
<text x="113.3" y="55.0" text-anchor="middle" font-size="9" fill="#FF6363" opacity="0.85" clip-path="url(#ca)">+0.7% (+18)</text>
<text x="255.9" y="55.0" text-anchor="middle" font-size="9" fill="#FF6363" opacity="0.85" clip-path="url(#ca)">+4.0% (+99)</text>
<text x="454.8" y="55.0" text-anchor="middle" font-size="9" fill="#FF6363" opacity="0.85" clip-path="url(#ca)">+4.5% (+117)</text>
<text x="657.4" y="55.0" text-anchor="middle" font-size="9" fill="#FF6363" opacity="0.85" clip-path="url(#ca)">+3.5% (+95)</text>
<text x="766.2" y="55.0" text-anchor="middle" font-size="9" fill="#FF6363" opacity="0.85" clip-path="url(#ca)">+0.1% (+3)</text>
<rect x="351" y="369" width="12" height="12" fill="#FF6363" rx="2"/>
<text x="367" y="379" font-size="12" fill="#111827">Extensions</text>
<text x="72" y="394" font-size="8" fill="#e5e7eb">data since Dec 11, 2025</text>
</svg>