<svg xmlns="http://www.w3.org/2000/svg" width="800" height="400" viewBox="0 0 800 400">
<defs>
  <style>text { font-family: -apple-system, BlinkMacSystemFont, 'Segoe UI', Roboto, sans-serif; }</style>
  <linearGradient id="g2" x1="0" y1="0" x2="0" y2="1">
  <stop offset="0%" stop-color="#4F8EF7" stop-opacity="0.25"/>
  <stop offset="100%" stop-color="#4F8EF7" stop-opacity="0"/>
</linearGradient>
<linearGradient id="g3" x1="0" y1="0" x2="0" y2="1">
  <stop offset="0%" stop-color="#BF5AF2" stop-opacity="0.25"/>
  <stop offset="100%" stop-color="#BF5AF2" stop-opacity="0"/>
</linearGradient>
<linearGradient id="g4" x1="0" y1="0" x2="0" y2="1">
  <stop offset="0%" stop-color="#34C759" stop-opacity="0.25"/>
  <stop offset="100%" stop-color="#34C759" stop-opacity="0"/>
</linearGradient>
  <clipPath id="ca"><rect x="72" y="45" width="698" height="295"/></clipPath>
</defs>
<rect width="800" height="400" fill="#ffffff" rx="12"/>
<text x="400" y="26" text-anchor="middle" font-size="15" font-weight="600" fill="#111827">Community Growth Over Time</text>
<line x1="72" y1="340.0" x2="770" y2="340.0" stroke="#f3f4f6" stroke-width="1"/>
<text x="66" y="344.0" text-anchor="end" font-size="11" fill="#6b7280">500</text>
<line x1="72" y1="241.7" x2="770" y2="241.7" stroke="#f3f4f6" stroke-width="1"/>
<text x="66" y="245.7" text-anchor="end" font-size="11" fill="#6b7280">1.0k</text>
<line x1="72" y1="143.3" x2="770" y2="143.3" stroke="#f3f4f6" stroke-width="1"/>
<text x="66" y="147.3" text-anchor="end" font-size="11" fill="#6b7280">1.5k</text>
<line x1="72" y1="45.0" x2="770" y2="45.0" stroke="#f3f4f6" stroke-width="1"/>
<text x="66" y="49.0" text-anchor="end" font-size="11" fill="#6b7280">2.0k</text>
<line x1="120.1" y1="45" x2="120.1" y2="340" stroke="#e5e7eb" stroke-width="1" stroke-dasharray="3,3" clip-path="url(#ca)"/>
<line x1="224.4" y1="45" x2="224.4" y2="340" stroke="#e5e7eb" stroke-width="1" stroke-dasharray="3,3" clip-path="url(#ca)"/>
<line x1="332.7" y1="45" x2="332.7" y2="340" stroke="#e5e7eb" stroke-width="1" stroke-dasharray="3,3" clip-path="url(#ca)"/>
<line x1="441.1" y1="45" x2="441.1" y2="340" stroke="#e5e7eb" stroke-width="1" stroke-dasharray="3,3" clip-path="url(#ca)"/>
<line x1="549.4" y1="45" x2="549.4" y2="340" stroke="#e5e7eb" stroke-width="1" stroke-dasharray="3,3" clip-path="url(#ca)"/>
<line x1="653.7" y1="45" x2="653.7" y2="340" stroke="#e5e7eb" stroke-width="1" stroke-dasharray="3,3" clip-path="url(#ca)"/>
<line x1="749.9" y1="45" x2="749.9" y2="340" stroke="#e5e7eb" stroke-width="1" stroke-dasharray="3,3" clip-path="url(#ca)"/>
<text x="72.0" y="358.0" text-anchor="middle" font-size="11" fill="#6b7280">Dec 11</text>
<text x="212.4" y="358.0" text-anchor="middle" font-size="11" fill="#6b7280">Jan 29</text>
<text x="352.8" y="358.0" text-anchor="middle" font-size="11" fill="#6b7280">Mar 6</text>
<text x="489.2" y="358.0" text-anchor="middle" font-size="11" fill="#6b7280">Apr 14</text>
<text x="629.6" y="358.0" text-anchor="middle" font-size="11" fill="#6b7280">May 26</text>
<text x="770.0" y="358.0" text-anchor="middle" font-size="11" fill="#6b7280">Jul 7</text>
<line x1="72" y1="45" x2="72" y2="340" stroke="#e5e7eb" stroke-width="1"/>
<line x1="72" y1="340" x2="770" y2="340" stroke="#e5e7eb" stroke-width="1"/>
<text x="-192.5" y="18" text-anchor="middle" font-size="12" fill="#6b7280" transform="rotate(-90)">People</text>
<path d="M 72.0,340 L 72.0,120.1 L 76.0,120.1 L 80.0,120.1 L 84.0,119.5 L 88.0,119.5 L 92.1,119.1 L 96.1,118.9 L 100.1,119.1 L 104.1,118.6 L 108.1,118.6 L 112.1,118.6 L 116.1,118.6 L 120.1,118.6 L 124.1,118.6 L 128.2,118.6 L 132.2,118.6 L 136.2,118.4 L 140.2,117.8 L 144.2,116.6 L 148.2,116.0 L 152.2,115.8 L 156.2,115.8 L 160.3,115.2 L 164.3,113.8 L 168.3,113.0 L 172.3,113.0 L 176.3,112.1 L 180.3,111.7 L 184.3,110.9 L 188.3,110.3 L 192.3,109.7 L 196.4,109.1 L 200.4,109.1 L 204.4,107.7 L 208.4,106.9 L 212.4,106.9 L 216.4,106.2 L 220.4,105.8 L 224.4,105.6 L 228.4,105.4 L 232.5,105.4 L 236.5,104.8 L 240.5,102.4 L 244.5,101.0 L 248.5,100.3 L 252.5,100.1 L 256.5,99.7 L 260.5,98.9 L 264.6,98.5 L 268.6,98.1 L 272.6,97.7 L 276.6,97.3 L 280.6,96.9 L 284.6,96.9 L 288.6,95.0 L 292.6,95.0 L 296.6,94.8 L 300.7,94.6 L 304.7,94.2 L 308.7,94.2 L 312.7,93.2 L 316.7,92.0 L 320.7,91.6 L 324.7,92.0 L 328.7,91.8 L 332.7,91.6 L 336.8,91.6 L 340.8,91.2 L 344.8,90.4 L 348.8,90.0 L 352.8,89.6 L 356.8,89.4 L 360.8,89.4 L 364.8,88.7 L 368.9,88.3 L 372.9,88.3 L 376.9,86.7 L 380.9,86.7 L 384.9,86.7 L 388.9,86.7 L 392.9,86.5 L 396.9,85.9 L 400.9,85.1 L 405.0,84.7 L 409.0,84.7 L 413.0,84.3 L 417.0,82.8 L 421.0,81.8 L 425.0,81.6 L 429.0,81.4 L 433.0,80.8 L 437.0,79.6 L 441.1,79.2 L 445.1,78.8 L 449.1,77.6 L 453.1,77.4 L 457.1,77.4 L 461.1,77.4 L 465.1,77.3 L 469.1,76.1 L 473.1,75.9 L 477.2,75.7 L 481.2,75.7 L 485.2,75.3 L 489.2,73.7 L 493.2,73.5 L 497.2,73.3 L 501.2,73.3 L 505.2,72.5 L 509.3,72.3 L 513.3,72.1 L 517.3,71.6 L 521.3,70.8 L 525.3,70.8 L 529.3,70.8 L 533.3,70.8 L 537.3,70.4 L 541.3,69.8 L 545.4,69.6 L 549.4,69.0 L 553.4,68.8 L 557.4,68.6 L 561.4,67.8 L 565.4,67.2 L 569.4,67.0 L 573.4,67.0 L 577.4,65.3 L 581.5,64.7 L 585.5,64.5 L 589.5,64.5 L 593.5,63.5 L 597.5,63.5 L 601.5,62.9 L 605.5,62.3 L 609.5,60.9 L 613.6,60.7 L 617.6,60.5 L 621.6,60.3 L 625.6,60.3 L 629.6,60.1 L 633.6,59.2 L 637.6,58.6 L 641.6,58.6 L 645.6,58.4 L 649.7,58.4 L 653.7,57.8 L 657.7,57.6 L 661.7,57.4 L 665.7,56.8 L 669.7,56.0 L 673.7,56.0 L 677.7,55.8 L 681.7,55.6 L 685.8,54.6 L 689.8,53.3 L 693.8,53.1 L 697.8,52.7 L 701.8,52.3 L 705.8,52.1 L 709.8,51.5 L 713.8,50.7 L 717.9,50.5 L 721.9,49.9 L 725.9,49.5 L 729.9,48.5 L 733.9,48.3 L 737.9,47.9 L 741.9,47.9 L 745.9,47.6 L 749.9,47.2 L 754.0,46.8 L 758.0,46.6 L 762.0,46.2 L 766.0,46.2 L 770.0,45.8 L 770.0,340 Z" fill="url(#g2)" clip-path="url(#ca)"/>
<path d="M 72.0,120.1 L 76.0,120.1 L 80.0,120.1 L 84.0,119.5 L 88.0,119.5 L 92.1,119.1 L 96.1,118.9 L 100.1,119.1 L 104.1,118.6 L 108.1,118.6 L 112.1,118.6 L 116.1,118.6 L 120.1,118.6 L 124.1,118.6 L 128.2,118.6 L 132.2,118.6 L 136.2,118.4 L 140.2,117.8 L 144.2,116.6 L 148.2,116.0 L 152.2,115.8 L 156.2,115.8 L 160.3,115.2 L 164.3,113.8 L 168.3,113.0 L 172.3,113.0 L 176.3,112.1 L 180.3,111.7 L 184.3,110.9 L 188.3,110.3 L 192.3,109.7 L 196.4,109.1 L 200.4,109.1 L 204.4,107.7 L 208.4,106.9 L 212.4,106.9 L 216.4,106.2 L 220.4,105.8 L 224.4,105.6 L 228.4,105.4 L 232.5,105.4 L 236.5,104.8 L 240.5,102.4 L 244.5,101.0 L 248.5,100.3 L 252.5,100.1 L 256.5,99.7 L 260.5,98.9 L 264.6,98.5 L 268.6,98.1 L 272.6,97.7 L 276.6,97.3 L 280.6,96.9 L 284.6,96.9 L 288.6,95.0 L 292.6,95.0 L 296.6,94.8 L 300.7,94.6 L 304.7,94.2 L 308.7,94.2 L 312.7,93.2 L 316.7,92.0 L 320.7,91.6 L 324.7,92.0 L 328.7,91.8 L 332.7,91.6 L 336.8,91.6 L 340.8,91.2 L 344.8,90.4 L 348.8,90.0 L 352.8,89.6 L 356.8,89.4 L 360.8,89.4 L 364.8,88.7 L 368.9,88.3 L 372.9,88.3 L 376.9,86.7 L 380.9,86.7 L 384.9,86.7 L 388.9,86.7 L 392.9,86.5 L 396.9,85.9 L 400.9,85.1 L 405.0,84.7 L 409.0,84.7 L 413.0,84.3 L 417.0,82.8 L 421.0,81.8 L 425.0,81.6 L 429.0,81.4 L 433.0,80.8 L 437.0,79.6 L 441.1,79.2 L 445.1,78.8 L 449.1,77.6 L 453.1,77.4 L 457.1,77.4 L 461.1,77.4 L 465.1,77.3 L 469.1,76.1 L 473.1,75.9 L 477.2,75.7 L 481.2,75.7 L 485.2,75.3 L 489.2,73.7 L 493.2,73.5 L 497.2,73.3 L 501.2,73.3 L 505.2,72.5 L 509.3,72.3 L 513.3,72.1 L 517.3,71.6 L 521.3,70.8 L 525.3,70.8 L 529.3,70.8 L 533.3,70.8 L 537.3,70.4 L 541.3,69.8 L 545.4,69.6 L 549.4,69.0 L 553.4,68.8 L 557.4,68.6 L 561.4,67.8 L 565.4,67.2 L 569.4,67.0 L 573.4,67.0 L 577.4,65.3 L 581.5,64.7 L 585.5,64.5 L 589.5,64.5 L 593.5,63.5 L 597.5,63.5 L 601.5,62.9 L 605.5,62.3 L 609.5,60.9 L 613.6,60.7 L 617.6,60.5 L 621.6,60.3 L 625.6,60.3 L 629.6,60.1 L 633.6,59.2 L 637.6,58.6 L 641.6,58.6 L 645.6,58.4 L 649.7,58.4 L 653.7,57.8 L 657.7,57.6 L 661.7,57.4 L 665.7,56.8 L 669.7,56.0 L 673.7,56.0 L 677.7,55.8 L 681.7,55.6 L 685.8,54.6 L 689.8,53.3 L 693.8,53.1 L 697.8,52.7 L 701.8,52.3 L 705.8,52.1 L 709.8,51.5 L 713.8,50.7 L 717.9,50.5 L 721.9,49.9 L 725.9,49.5 L 729.9,48.5 L 733.9,48.3 L 737.9,47.9 L 741.9,47.9 L 745.9,47.6 L 749.9,47.2 L 754.0,46.8 L 758.0,46.6 L 762.0,46.2 L 766.0,46.2 L 770.0,45.8" fill="none" stroke="#4F8EF7" stroke-width="2.5" stroke-linejoin="round" clip-path="url(#ca)"/>
<path d="M 72.0,340 L 72.0,244.2 L 76.0,243.6 L 80.0,243.6 L 84.0,243.6 L 88.0,243.4 L 92.1,243.0 L 96.1,242.8 L 100.1,242.6 L 104.1,242.6 L 108.1,242.5 L 112.1,242.3 L 116.1,242.3 L 120.1,242.3 L 124.1,242.3 L 128.2,242.3 L 132.2,242.3 L 136.2,241.9 L 140.2,241.9 L 144.2,241.9 L 148.2,241.1 L 152.2,240.9 L 156.2,240.5 L 160.3,239.7 L 164.3,239.5 L 168.3,239.5 L 172.3,239.5 L 176.3,238.9 L 180.3,238.5 L 184.3,238.5 L 188.3,238.1 L 192.3,237.9 L 196.4,237.5 L 200.4,237.5 L 204.4,237.3 L 208.4,236.6 L 212.4,236.0 L 216.4,235.6 L 220.4,235.4 L 224.4,235.4 L 228.4,235.2 L 232.5,234.8 L 236.5,234.8 L 240.5,234.6 L 244.5,234.0 L 248.5,233.6 L 252.5,233.6 L 256.5,233.6 L 260.5,233.6 L 264.6,233.4 L 268.6,232.8 L 272.6,232.4 L 276.6,232.2 L 280.6,232.0 L 284.6,231.8 L 288.6,231.6 L 292.6,231.4 L 296.6,231.2 L 300.7,230.7 L 304.7,230.5 L 308.7,230.3 L 312.7,229.5 L 316.7,228.7 L 320.7,228.7 L 324.7,228.5 L 328.7,228.3 L 332.7,228.3 L 336.8,228.3 L 340.8,227.9 L 344.8,227.9 L 348.8,226.7 L 352.8,226.5 L 356.8,226.3 L 360.8,226.3 L 364.8,225.9 L 368.9,225.7 L 372.9,225.7 L 376.9,225.5 L 380.9,225.5 L 384.9,225.5 L 388.9,225.1 L 392.9,224.9 L 396.9,224.0 L 400.9,224.2 L 405.0,224.0 L 409.0,223.8 L 413.0,223.8 L 417.0,223.6 L 421.0,223.0 L 425.0,223.0 L 429.0,223.0 L 433.0,223.0 L 437.0,222.6 L 441.1,222.6 L 445.1,222.2 L 449.1,221.8 L 453.1,221.0 L 457.1,221.0 L 461.1,220.6 L 465.1,220.4 L 469.1,220.2 L 473.1,220.0 L 477.2,219.6 L 481.2,219.6 L 485.2,219.1 L 489.2,219.1 L 493.2,218.9 L 497.2,218.5 L 501.2,218.3 L 505.2,218.3 L 509.3,218.3 L 513.3,218.3 L 517.3,218.3 L 521.3,217.7 L 525.3,217.7 L 529.3,217.3 L 533.3,216.9 L 537.3,216.3 L 541.3,216.1 L 545.4,216.1 L 549.4,214.9 L 553.4,214.7 L 557.4,214.7 L 561.4,213.9 L 565.4,213.9 L 569.4,213.5 L 573.4,213.5 L 577.4,213.3 L 581.5,213.3 L 585.5,213.2 L 589.5,212.8 L 593.5,212.8 L 597.5,212.6 L 601.5,212.4 L 605.5,212.2 L 609.5,212.0 L 613.6,212.0 L 617.6,211.6 L 621.6,211.6 L 625.6,211.6 L 629.6,210.6 L 633.6,210.6 L 637.6,210.6 L 641.6,210.6 L 645.6,210.6 L 649.7,210.6 L 653.7,210.2 L 657.7,210.2 L 661.7,209.8 L 665.7,209.0 L 669.7,208.6 L 673.7,208.4 L 677.7,208.4 L 681.7,208.2 L 685.8,207.6 L 689.8,207.4 L 693.8,207.4 L 697.8,207.1 L 701.8,206.5 L 705.8,206.1 L 709.8,206.1 L 713.8,205.9 L 717.9,205.9 L 721.9,205.3 L 725.9,205.1 L 729.9,205.1 L 733.9,204.7 L 737.9,204.7 L 741.9,204.3 L 745.9,203.7 L 749.9,203.7 L 754.0,203.5 L 758.0,203.3 L 762.0,203.1 L 766.0,203.1 L 770.0,202.9 L 770.0,340 Z" fill="url(#g3)" clip-path="url(#ca)"/>
<path d="M 72.0,244.2 L 76.0,243.6 L 80.0,243.6 L 84.0,243.6 L 88.0,243.4 L 92.1,243.0 L 96.1,242.8 L 100.1,242.6 L 104.1,242.6 L 108.1,242.5 L 112.1,242.3 L 116.1,242.3 L 120.1,242.3 L 124.1,242.3 L 128.2,242.3 L 132.2,242.3 L 136.2,241.9 L 140.2,241.9 L 144.2,241.9 L 148.2,241.1 L 152.2,240.9 L 156.2,240.5 L 160.3,239.7 L 164.3,239.5 L 168.3,239.5 L 172.3,239.5 L 176.3,238.9 L 180.3,238.5 L 184.3,238.5 L 188.3,238.1 L 192.3,237.9 L 196.4,237.5 L 200.4,237.5 L 204.4,237.3 L 208.4,236.6 L 212.4,236.0 L 216.4,235.6 L 220.4,235.4 L 224.4,235.4 L 228.4,235.2 L 232.5,234.8 L 236.5,234.8 L 240.5,234.6 L 244.5,234.0 L 248.5,233.6 L 252.5,233.6 L 256.5,233.6 L 260.5,233.6 L 264.6,233.4 L 268.6,232.8 L 272.6,232.4 L 276.6,232.2 L 280.6,232.0 L 284.6,231.8 L 288.6,231.6 L 292.6,231.4 L 296.6,231.2 L 300.7,230.7 L 304.7,230.5 L 308.7,230.3 L 312.7,229.5 L 316.7,228.7 L 320.7,228.7 L 324.7,228.5 L 328.7,228.3 L 332.7,228.3 L 336.8,228.3 L 340.8,227.9 L 344.8,227.9 L 348.8,226.7 L 352.8,226.5 L 356.8,226.3 L 360.8,226.3 L 364.8,225.9 L 368.9,225.7 L 372.9,225.7 L 376.9,225.5 L 380.9,225.5 L 384.9,225.5 L 388.9,225.1 L 392.9,224.9 L 396.9,224.0 L 400.9,224.2 L 405.0,224.0 L 409.0,223.8 L 413.0,223.8 L 417.0,223.6 L 421.0,223.0 L 425.0,223.0 L 429.0,223.0 L 433.0,223.0 L 437.0,222.6 L 441.1,222.6 L 445.1,222.2 L 449.1,221.8 L 453.1,221.0 L 457.1,221.0 L 461.1,220.6 L 465.1,220.4 L 469.1,220.2 L 473.1,220.0 L 477.2,219.6 L 481.2,219.6 L 485.2,219.1 L 489.2,219.1 L 493.2,218.9 L 497.2,218.5 L 501.2,218.3 L 505.2,218.3 L 509.3,218.3 L 513.3,218.3 L 517.3,218.3 L 521.3,217.7 L 525.3,217.7 L 529.3,217.3 L 533.3,216.9 L 537.3,216.3 L 541.3,216.1 L 545.4,216.1 L 549.4,214.9 L 553.4,214.7 L 557.4,214.7 L 561.4,213.9 L 565.4,213.9 L 569.4,213.5 L 573.4,213.5 L 577.4,213.3 L 581.5,213.3 L 585.5,213.2 L 589.5,212.8 L 593.5,212.8 L 597.5,212.6 L 601.5,212.4 L 605.5,212.2 L 609.5,212.0 L 613.6,212.0 L 617.6,211.6 L 621.6,211.6 L 625.6,211.6 L 629.6,210.6 L 633.6,210.6 L 637.6,210.6 L 641.6,210.6 L 645.6,210.6 L 649.7,210.6 L 653.7,210.2 L 657.7,210.2 L 661.7,209.8 L 665.7,209.0 L 669.7,208.6 L 673.7,208.4 L 677.7,208.4 L 681.7,208.2 L 685.8,207.6 L 689.8,207.4 L 693.8,207.4 L 697.8,207.1 L 701.8,206.5 L 705.8,206.1 L 709.8,206.1 L 713.8,205.9 L 717.9,205.9 L 721.9,205.3 L 725.9,205.1 L 729.9,205.1 L 733.9,204.7 L 737.9,204.7 L 741.9,204.3 L 745.9,203.7 L 749.9,203.7 L 754.0,203.5 L 758.0,203.3 L 762.0,203.1 L 766.0,203.1 L 770.0,202.9" fill="none" stroke="#BF5AF2" stroke-width="2.5" stroke-linejoin="round" clip-path="url(#ca)"/>
<path d="M 72.0,340 L 72.0,291.4 L 76.0,290.8 L 80.0,290.8 L 84.0,290.8 L 88.0,290.6 L 92.1,290.2 L 96.1,290.0 L 100.1,289.7 L 104.1,289.7 L 108.1,289.5 L 112.1,289.3 L 116.1,289.3 L 120.1,289.3 L 124.1,289.3 L 128.2,289.3 L 132.2,289.3 L 136.2,288.9 L 140.2,288.9 L 144.2,289.1 L 148.2,288.5 L 152.2,288.7 L 156.2,288.1 L 160.3,287.5 L 164.3,287.3 L 168.3,287.5 L 172.3,287.5 L 176.3,286.9 L 180.3,286.7 L 184.3,286.7 L 188.3,286.3 L 192.3,286.1 L 196.4,285.7 L 200.4,285.7 L 204.4,285.5 L 208.4,284.9 L 212.4,284.3 L 216.4,283.9 L 220.4,283.9 L 224.4,283.9 L 228.4,283.8 L 232.5,283.4 L 236.5,283.4 L 240.5,283.2 L 244.5,282.6 L 248.5,282.4 L 252.5,282.4 L 256.5,282.4 L 260.5,282.4 L 264.6,282.2 L 268.6,281.6 L 272.6,281.4 L 276.6,281.2 L 280.6,281.0 L 284.6,281.0 L 288.6,280.8 L 292.6,280.8 L 296.6,280.8 L 300.7,280.2 L 304.7,280.2 L 308.7,280.2 L 312.7,279.8 L 316.7,279.2 L 320.7,279.2 L 324.7,279.0 L 328.7,278.8 L 332.7,278.8 L 336.8,278.8 L 340.8,278.4 L 344.8,278.4 L 348.8,277.3 L 352.8,277.1 L 356.8,276.9 L 360.8,276.9 L 364.8,276.7 L 368.9,276.7 L 372.9,276.7 L 376.9,276.7 L 380.9,276.7 L 384.9,276.7 L 388.9,276.3 L 392.9,276.1 L 396.9,275.1 L 400.9,275.3 L 405.0,275.3 L 409.0,275.1 L 413.0,275.1 L 417.0,275.1 L 421.0,274.7 L 425.0,274.7 L 429.0,274.7 L 433.0,274.7 L 437.0,274.7 L 441.1,274.7 L 445.1,274.5 L 449.1,274.5 L 453.1,273.7 L 457.1,273.7 L 461.1,273.5 L 465.1,273.3 L 469.1,273.1 L 473.1,272.9 L 477.2,272.5 L 481.2,272.5 L 485.2,272.0 L 489.2,272.0 L 493.2,271.8 L 497.2,271.6 L 501.2,271.6 L 505.2,271.6 L 509.3,271.6 L 513.3,271.6 L 517.3,271.6 L 521.3,271.0 L 525.3,271.0 L 529.3,270.6 L 533.3,270.2 L 537.3,269.6 L 541.3,269.4 L 545.4,269.4 L 549.4,268.4 L 553.4,268.2 L 557.4,268.2 L 561.4,267.6 L 565.4,267.6 L 569.4,267.4 L 573.4,267.4 L 577.4,267.6 L 581.5,267.8 L 585.5,267.6 L 589.5,267.2 L 593.5,267.4 L 597.5,267.2 L 601.5,267.0 L 605.5,267.0 L 609.5,267.0 L 613.6,267.0 L 617.6,266.6 L 621.6,266.6 L 625.6,266.6 L 629.6,265.9 L 633.6,265.9 L 637.6,265.9 L 641.6,265.9 L 645.6,265.9 L 649.7,265.9 L 653.7,265.5 L 657.7,265.5 L 661.7,265.1 L 665.7,264.3 L 669.7,264.1 L 673.7,264.1 L 677.7,264.1 L 681.7,264.1 L 685.8,263.7 L 689.8,263.5 L 693.8,263.5 L 697.8,263.3 L 701.8,262.7 L 705.8,262.3 L 709.8,262.3 L 713.8,262.1 L 717.9,262.1 L 721.9,261.9 L 725.9,261.7 L 729.9,261.7 L 733.9,261.5 L 737.9,261.5 L 741.9,261.1 L 745.9,260.5 L 749.9,260.5 L 754.0,260.4 L 758.0,260.5 L 762.0,260.4 L 766.0,260.4 L 770.0,260.2 L 770.0,340 Z" fill="url(#g4)" clip-path="url(#ca)"/>
<path d="M 72.0,291.4 L 76.0,290.8 L 80.0,290.8 L 84.0,290.8 L 88.0,290.6 L 92.1,290.2 L 96.1,290.0 L 100.1,289.7 L 104.1,289.7 L 108.1,289.5 L 112.1,289.3 L 116.1,289.3 L 120.1,289.3 L 124.1,289.3 L 128.2,289.3 L 132.2,289.3 L 136.2,288.9 L 140.2,288.9 L 144.2,289.1 L 148.2,288.5 L 152.2,288.7 L 156.2,288.1 L 160.3,287.5 L 164.3,287.3 L 168.3,287.5 L 172.3,287.5 L 176.3,286.9 L 180.3,286.7 L 184.3,286.7 L 188.3,286.3 L 192.3,286.1 L 196.4,285.7 L 200.4,285.7 L 204.4,285.5 L 208.4,284.9 L 212.4,284.3 L 216.4,283.9 L 220.4,283.9 L 224.4,283.9 L 228.4,283.8 L 232.5,283.4 L 236.5,283.4 L 240.5,283.2 L 244.5,282.6 L 248.5,282.4 L 252.5,282.4 L 256.5,282.4 L 260.5,282.4 L 264.6,282.2 L 268.6,281.6 L 272.6,281.4 L 276.6,281.2 L 280.6,281.0 L 284.6,281.0 L 288.6,280.8 L 292.6,280.8 L 296.6,280.8 L 300.7,280.2 L 304.7,280.2 L 308.7,280.2 L 312.7,279.8 L 316.7,279.2 L 320.7,279.2 L 324.7,279.0 L 328.7,278.8 L 332.7,278.8 L 336.8,278.8 L 340.8,278.4 L 344.8,278.4 L 348.8,277.3 L 352.8,277.1 L 356.8,276.9 L 360.8,276.9 L 364.8,276.7 L 368.9,276.7 L 372.9,276.7 L 376.9,276.7 L 380.9,276.7 L 384.9,276.7 L 388.9,276.3 L 392.9,276.1 L 396.9,275.1 L 400.9,275.3 L 405.0,275.3 L 409.0,275.1 L 413.0,275.1 L 417.0,275.1 L 421.0,274.7 L 425.0,274.7 L 429.0,274.7 L 433.0,274.7 L 437.0,274.7 L 441.1,274.7 L 445.1,274.5 L 449.1,274.5 L 453.1,273.7 L 457.1,273.7 L 461.1,273.5 L 465.1,273.3 L 469.1,273.1 L 473.1,272.9 L 477.2,272.5 L 481.2,272.5 L 485.2,272.0 L 489.2,272.0 L 493.2,271.8 L 497.2,271.6 L 501.2,271.6 L 505.2,271.6 L 509.3,271.6 L 513.3,271.6 L 517.3,271.6 L 521.3,271.0 L 525.3,271.0 L 529.3,270.6 L 533.3,270.2 L 537.3,269.6 L 541.3,269.4 L 545.4,269.4 L 549.4,268.4 L 553.4,268.2 L 557.4,268.2 L 561.4,267.6 L 565.4,267.6 L 569.4,267.4 L 573.4,267.4 L 577.4,267.6 L 581.5,267.8 L 585.5,267.6 L 589.5,267.2 L 593.5,267.4 L 597.5,267.2 L 601.5,267.0 L 605.5,267.0 L 609.5,267.0 L 613.6,267.0 L 617.6,266.6 L 621.6,266.6 L 625.6,266.6 L 629.6,265.9 L 633.6,265.9 L 637.6,265.9 L 641.6,265.9 L 645.6,265.9 L 649.7,265.9 L 653.7,265.5 L 657.7,265.5 L 661.7,265.1 L 665.7,264.3 L 669.7,264.1 L 673.7,264.1 L 677.7,264.1 L 681.7,264.1 L 685.8,263.7 L 689.8,263.5 L 693.8,263.5 L 697.8,263.3 L 701.8,262.7 L 705.8,262.3 L 709.8,262.3 L 713.8,262.1 L 717.9,262.1 L 721.9,261.9 L 725.9,261.7 L 729.9,261.7 L 733.9,261.5 L 737.9,261.5 L 741.9,261.1 L 745.9,260.5 L 749.9,260.5 L 754.0,260.4 L 758.0,260.5 L 762.0,260.4 L 766.0,260.4 L 770.0,260.2" fill="none" stroke="#34C759" stroke-width="2.5" stroke-linejoin="round" clip-path="url(#ca)"/>
<text x="94.1" y="55.0" text-anchor="middle" font-size="9" fill="#4F8EF7" opacity="0.85" clip-path="url(#ca)">+0.5% (+8)</text>
<text x="94.1" y="66.0" text-anchor="middle" font-size="9" fill="#BF5AF2" opacity="0.85" clip-path="url(#ca)">+1.0% (+10)</text>
<text x="94.1" y="77.0" text-anchor="middle" font-size="9" fill="#34C759" opacity="0.85" clip-path="url(#ca)">+1.5% (+11)</text>
<text x="170.3" y="55.0" text-anchor="middle" font-size="9" fill="#4F8EF7" opacity="0.85" clip-path="url(#ca)">+4.0% (+65)</text>
<text x="170.3" y="66.0" text-anchor="middle" font-size="9" fill="#BF5AF2" opacity="0.85" clip-path="url(#ca)">+3.5% (+35)</text>
<text x="170.3" y="77.0" text-anchor="middle" font-size="9" fill="#34C759" opacity="0.85" clip-path="url(#ca)">+3.6% (+27)</text>
<text x="276.6" y="55.0" text-anchor="middle" font-size="9" fill="#4F8EF7" opacity="0.85" clip-path="url(#ca)">+4.1% (+70)</text>
<text x="276.6" y="66.0" text-anchor="middle" font-size="9" fill="#BF5AF2" opacity="0.85" clip-path="url(#ca)">+3.5% (+36)</text>
<text x="276.6" y="77.0" text-anchor="middle" font-size="9" fill="#34C759" opacity="0.85" clip-path="url(#ca)">+3.3% (+26)</text>
<text x="384.9" y="55.0" text-anchor="middle" font-size="9" fill="#4F8EF7" opacity="0.85" clip-path="url(#ca)">+3.5% (+61)</text>
<text x="384.9" y="66.0" text-anchor="middle" font-size="9" fill="#BF5AF2" opacity="0.85" clip-path="url(#ca)">+2.7% (+29)</text>
<text x="384.9" y="77.0" text-anchor="middle" font-size="9" fill="#34C759" opacity="0.85" clip-path="url(#ca)">+2.6% (+21)</text>
<text x="493.2" y="55.0" text-anchor="middle" font-size="9" fill="#4F8EF7" opacity="0.85" clip-path="url(#ca)">+2.7% (+49)</text>
<text x="493.2" y="66.0" text-anchor="middle" font-size="9" fill="#BF5AF2" opacity="0.85" clip-path="url(#ca)">+3.0% (+33)</text>
<text x="493.2" y="77.0" text-anchor="middle" font-size="9" fill="#34C759" opacity="0.85" clip-path="url(#ca)">+3.2% (+27)</text>
<text x="599.5" y="55.0" text-anchor="middle" font-size="9" fill="#4F8EF7" opacity="0.85" clip-path="url(#ca)">+2.9% (+54)</text>
<text x="599.5" y="66.0" text-anchor="middle" font-size="9" fill="#BF5AF2" opacity="0.85" clip-path="url(#ca)">+1.9% (+22)</text>
<text x="599.5" y="77.0" text-anchor="middle" font-size="9" fill="#34C759" opacity="0.85" clip-path="url(#ca)">+1.5% (+13)</text>
<text x="699.8" y="55.0" text-anchor="middle" font-size="9" fill="#4F8EF7" opacity="0.85" clip-path="url(#ca)">+2.7% (+52)</text>
<text x="699.8" y="66.0" text-anchor="middle" font-size="9" fill="#BF5AF2" opacity="0.85" clip-path="url(#ca)">+2.8% (+33)</text>
<text x="699.8" y="77.0" text-anchor="middle" font-size="9" fill="#34C759" opacity="0.85" clip-path="url(#ca)">+2.8% (+25)</text>
<text x="760.0" y="55.0" text-anchor="middle" font-size="9" fill="#4F8EF7" opacity="0.85" clip-path="url(#ca)">+0.4% (+7)</text>
<text x="760.0" y="66.0" text-anchor="middle" font-size="9" fill="#BF5AF2" opacity="0.85" clip-path="url(#ca)">+0.3% (+4)</text>
<text x="760.0" y="77.0" text-anchor="middle" font-size="9" fill="#34C759" opacity="0.85" clip-path="url(#ca)">+0.2% (+2)</text>
<rect x="211" y="369" width="12" height="12" fill="#4F8EF7" rx="2"/>
<text x="227" y="379" font-size="12" fill="#111827">Authors</text>
<rect x="351" y="369" width="12" height="12" fill="#BF5AF2" rx="2"/>
<text x="367" y="379" font-size="12" fill="#111827">Contributors</text>
<rect x="491" y="369" width="12" height="12" fill="#34C759" rx="2"/>
<text x="507" y="379" font-size="12" fill="#111827">Non-author contributors</text>
<text x="72" y="394" font-size="8" fill="#e5e7eb">data since Dec 11, 2025</text>
</svg>