<svg xmlns="http://www.w3.org/2000/svg" width="800" height="400" viewBox="0 0 800 400">
<defs>
  <style>text { font-family: -apple-system, BlinkMacSystemFont, 'Segoe UI', Roboto, sans-serif; }</style>
  <linearGradient id="g1" x1="0" y1="0" x2="0" y2="1">
  <stop offset="0%" stop-color="#FF6363" stop-opacity="0.25"/>
  <stop offset="100%" stop-color="#FF6363" stop-opacity="0"/>
</linearGradient>
  <clipPath id="ca"><rect x="72" y="45" width="698" height="295"/></clipPath>
</defs>
<rect width="800" height="400" fill="#ffffff" rx="12"/>
<text x="400" y="26" text-anchor="middle" font-size="15" font-weight="600" fill="#111827">Packages Growth Over Time</text>
<line x1="72" y1="340.0" x2="770" y2="340.0" stroke="#f3f4f6" stroke-width="1"/>
<text x="66" y="344.0" text-anchor="end" font-size="11" fill="#6b7280">2.4k</text>
<line x1="72" y1="266.3" x2="770" y2="266.3" stroke="#f3f4f6" stroke-width="1"/>
<text x="66" y="270.3" text-anchor="end" font-size="11" fill="#6b7280">2.6k</text>
<line x1="72" y1="192.5" x2="770" y2="192.5" stroke="#f3f4f6" stroke-width="1"/>
<text x="66" y="196.5" text-anchor="end" font-size="11" fill="#6b7280">2.8k</text>
<line x1="72" y1="118.8" x2="770" y2="118.8" stroke="#f3f4f6" stroke-width="1"/>
<text x="66" y="122.8" text-anchor="end" font-size="11" fill="#6b7280">3.0k</text>
<line x1="72" y1="45.0" x2="770" y2="45.0" stroke="#f3f4f6" stroke-width="1"/>
<text x="66" y="49.0" text-anchor="end" font-size="11" fill="#6b7280">3.2k</text>
<line x1="120.1" y1="45" x2="120.1" y2="340" stroke="#e5e7eb" stroke-width="1" stroke-dasharray="3,3" clip-path="url(#ca)"/>
<line x1="224.4" y1="45" x2="224.4" y2="340" stroke="#e5e7eb" stroke-width="1" stroke-dasharray="3,3" clip-path="url(#ca)"/>
<line x1="332.7" y1="45" x2="332.7" y2="340" stroke="#e5e7eb" stroke-width="1" stroke-dasharray="3,3" clip-path="url(#ca)"/>
<line x1="441.1" y1="45" x2="441.1" y2="340" stroke="#e5e7eb" stroke-width="1" stroke-dasharray="3,3" clip-path="url(#ca)"/>
<line x1="549.4" y1="45" x2="549.4" y2="340" stroke="#e5e7eb" stroke-width="1" stroke-dasharray="3,3" clip-path="url(#ca)"/>
<line x1="653.7" y1="45" x2="653.7" y2="340" stroke="#e5e7eb" stroke-width="1" stroke-dasharray="3,3" clip-path="url(#ca)"/>
<line x1="749.9" y1="45" x2="749.9" y2="340" stroke="#e5e7eb" stroke-width="1" stroke-dasharray="3,3" clip-path="url(#ca)"/>
<text x="72.0" y="358.0" text-anchor="middle" font-size="11" fill="#6b7280">Dec 11</text>
<text x="212.4" y="358.0" text-anchor="middle" font-size="11" fill="#6b7280">Jan 29</text>
<text x="352.8" y="358.0" text-anchor="middle" font-size="11" fill="#6b7280">Mar 6</text>
<text x="489.2" y="358.0" text-anchor="middle" font-size="11" fill="#6b7280">Apr 14</text>
<text x="629.6" y="358.0" text-anchor="middle" font-size="11" fill="#6b7280">May 26</text>
<text x="770.0" y="358.0" text-anchor="middle" font-size="11" fill="#6b7280">Jul 7</text>
<line x1="72" y1="45" x2="72" y2="340" stroke="#e5e7eb" stroke-width="1"/>
<line x1="72" y1="340" x2="770" y2="340" stroke="#e5e7eb" stroke-width="1"/>
<text x="-192.5" y="18" text-anchor="middle" font-size="12" fill="#6b7280" transform="rotate(-90)">Extensions</text>
<path d="M 72.0,340 L 72.0,311.6 L 76.0,311.2 L 80.0,311.2 L 84.0,310.1 L 88.0,310.1 L 92.1,309.4 L 96.1,308.7 L 100.1,308.3 L 104.1,306.4 L 108.1,305.0 L 112.1,305.0 L 116.1,305.0 L 120.1,305.0 L 124.1,304.2 L 128.2,304.2 L 132.2,304.2 L 136.2,303.5 L 140.2,302.0 L 144.2,299.4 L 148.2,297.6 L 152.2,296.9 L 156.2,296.5 L 160.3,295.0 L 164.3,290.6 L 168.3,289.1 L 172.3,289.1 L 176.3,285.4 L 180.3,284.3 L 184.3,282.8 L 188.3,281.7 L 192.3,279.5 L 196.4,277.7 L 200.4,277.3 L 204.4,274.4 L 208.4,271.8 L 212.4,271.8 L 216.4,269.9 L 220.4,268.5 L 224.4,268.1 L 228.4,267.7 L 232.5,267.4 L 236.5,266.3 L 240.5,259.6 L 244.5,256.7 L 248.5,255.2 L 252.5,254.4 L 256.5,253.3 L 260.5,250.8 L 264.6,250.0 L 268.6,249.3 L 272.6,247.1 L 276.6,246.3 L 280.6,245.6 L 284.6,245.6 L 288.6,239.0 L 292.6,238.2 L 296.6,237.5 L 300.7,236.0 L 304.7,234.2 L 308.7,234.2 L 312.7,231.2 L 316.7,226.4 L 320.7,225.7 L 324.7,226.1 L 328.7,224.9 L 332.7,224.6 L 336.8,224.6 L 340.8,222.4 L 344.8,220.5 L 348.8,219.1 L 352.8,217.2 L 356.8,216.8 L 360.8,216.8 L 364.8,214.3 L 368.9,213.5 L 372.9,213.2 L 376.9,208.7 L 380.9,208.4 L 384.9,208.4 L 388.9,208.4 L 392.9,208.0 L 396.9,206.1 L 400.9,204.7 L 405.0,202.8 L 409.0,202.5 L 413.0,201.3 L 417.0,198.0 L 421.0,195.1 L 425.0,194.7 L 429.0,194.3 L 433.0,193.2 L 437.0,189.6 L 441.1,188.8 L 445.1,187.7 L 449.1,185.5 L 453.1,185.1 L 457.1,184.8 L 461.1,184.8 L 465.1,184.0 L 469.1,181.8 L 473.1,181.1 L 477.2,180.3 L 481.2,180.0 L 485.2,179.2 L 489.2,175.5 L 493.2,175.2 L 497.2,174.4 L 501.2,174.1 L 505.2,172.2 L 509.3,171.9 L 513.3,171.5 L 517.3,170.4 L 521.3,168.9 L 525.3,168.9 L 529.3,168.9 L 533.3,168.9 L 537.3,168.2 L 541.3,166.3 L 545.4,166.0 L 549.4,164.1 L 553.4,163.7 L 557.4,163.4 L 561.4,161.2 L 565.4,158.9 L 569.4,158.6 L 573.4,158.2 L 577.4,153.4 L 581.5,151.9 L 585.5,150.8 L 589.5,150.5 L 593.5,147.9 L 597.5,147.9 L 601.5,146.0 L 605.5,144.9 L 609.5,141.2 L 613.6,139.8 L 617.6,139.4 L 621.6,139.0 L 625.6,139.0 L 629.6,138.7 L 633.6,136.5 L 637.6,134.6 L 641.6,134.6 L 645.6,134.2 L 649.7,134.2 L 653.7,132.8 L 657.7,132.0 L 661.7,130.9 L 665.7,129.8 L 669.7,128.3 L 673.7,128.3 L 677.7,127.2 L 681.7,125.8 L 685.8,122.8 L 689.8,120.2 L 693.8,119.5 L 697.8,118.8 L 701.8,118.0 L 705.8,117.6 L 709.8,116.5 L 713.8,114.3 L 717.9,114.0 L 721.9,112.5 L 725.9,111.0 L 729.9,108.4 L 733.9,107.3 L 737.9,106.6 L 741.9,106.6 L 745.9,105.1 L 749.9,104.4 L 754.0,103.6 L 758.0,103.3 L 762.0,102.2 L 766.0,102.2 L 770.0,100.7 L 770.0,340 Z" fill="url(#g1)" clip-path="url(#ca)"/>
<path d="M 72.0,311.6 L 76.0,311.2 L 80.0,311.2 L 84.0,310.1 L 88.0,310.1 L 92.1,309.4 L 96.1,308.7 L 100.1,308.3 L 104.1,306.4 L 108.1,305.0 L 112.1,305.0 L 116.1,305.0 L 120.1,305.0 L 124.1,304.2 L 128.2,304.2 L 132.2,304.2 L 136.2,303.5 L 140.2,302.0 L 144.2,299.4 L 148.2,297.6 L 152.2,296.9 L 156.2,296.5 L 160.3,295.0 L 164.3,290.6 L 168.3,289.1 L 172.3,289.1 L 176.3,285.4 L 180.3,284.3 L 184.3,282.8 L 188.3,281.7 L 192.3,279.5 L 196.4,277.7 L 200.4,277.3 L 204.4,274.4 L 208.4,271.8 L 212.4,271.8 L 216.4,269.9 L 220.4,268.5 L 224.4,268.1 L 228.4,267.7 L 232.5,267.4 L 236.5,266.3 L 240.5,259.6 L 244.5,256.7 L 248.5,255.2 L 252.5,254.4 L 256.5,253.3 L 260.5,250.8 L 264.6,250.0 L 268.6,249.3 L 272.6,247.1 L 276.6,246.3 L 280.6,245.6 L 284.6,245.6 L 288.6,239.0 L 292.6,238.2 L 296.6,237.5 L 300.7,236.0 L 304.7,234.2 L 308.7,234.2 L 312.7,231.2 L 316.7,226.4 L 320.7,225.7 L 324.7,226.1 L 328.7,224.9 L 332.7,224.6 L 336.8,224.6 L 340.8,222.4 L 344.8,220.5 L 348.8,219.1 L 352.8,217.2 L 356.8,216.8 L 360.8,216.8 L 364.8,214.3 L 368.9,213.5 L 372.9,213.2 L 376.9,208.7 L 380.9,208.4 L 384.9,208.4 L 388.9,208.4 L 392.9,208.0 L 396.9,206.1 L 400.9,204.7 L 405.0,202.8 L 409.0,202.5 L 413.0,201.3 L 417.0,198.0 L 421.0,195.1 L 425.0,194.7 L 429.0,194.3 L 433.0,193.2 L 437.0,189.6 L 441.1,188.8 L 445.1,187.7 L 449.1,185.5 L 453.1,185.1 L 457.1,184.8 L 461.1,184.8 L 465.1,184.0 L 469.1,181.8 L 473.1,181.1 L 477.2,180.3 L 481.2,180.0 L 485.2,179.2 L 489.2,175.5 L 493.2,175.2 L 497.2,174.4 L 501.2,174.1 L 505.2,172.2 L 509.3,171.9 L 513.3,171.5 L 517.3,170.4 L 521.3,168.9 L 525.3,168.9 L 529.3,168.9 L 533.3,168.9 L 537.3,168.2 L 541.3,166.3 L 545.4,166.0 L 549.4,164.1 L 553.4,163.7 L 557.4,163.4 L 561.4,161.2 L 565.4,158.9 L 569.4,158.6 L 573.4,158.2 L 577.4,153.4 L 581.5,151.9 L 585.5,150.8 L 589.5,150.5 L 593.5,147.9 L 597.5,147.9 L 601.5,146.0 L 605.5,144.9 L 609.5,141.2 L 613.6,139.8 L 617.6,139.4 L 621.6,139.0 L 625.6,139.0 L 629.6,138.7 L 633.6,136.5 L 637.6,134.6 L 641.6,134.6 L 645.6,134.2 L 649.7,134.2 L 653.7,132.8 L 657.7,132.0 L 661.7,130.9 L 665.7,129.8 L 669.7,128.3 L 673.7,128.3 L 677.7,127.2 L 681.7,125.8 L 685.8,122.8 L 689.8,120.2 L 693.8,119.5 L 697.8,118.8 L 701.8,118.0 L 705.8,117.6 L 709.8,116.5 L 713.8,114.3 L 717.9,114.0 L 721.9,112.5 L 725.9,111.0 L 729.9,108.4 L 733.9,107.3 L 737.9,106.6 L 741.9,106.6 L 745.9,105.1 L 749.9,104.4 L 754.0,103.6 L 758.0,103.3 L 762.0,102.2 L 766.0,102.2 L 770.0,100.7" fill="none" stroke="#FF6363" stroke-width="2.5" stroke-linejoin="round" clip-path="url(#ca)"/>
<text x="94.1" y="55.0" text-anchor="middle" font-size="9" fill="#FF6363" opacity="0.85" clip-path="url(#ca)">+0.7% (+18)</text>
<text x="170.3" y="55.0" text-anchor="middle" font-size="9" fill="#FF6363" opacity="0.85" clip-path="url(#ca)">+4.0% (+99)</text>
<text x="276.6" y="55.0" text-anchor="middle" font-size="9" fill="#FF6363" opacity="0.85" clip-path="url(#ca)">+4.5% (+117)</text>
<text x="384.9" y="55.0" text-anchor="middle" font-size="9" fill="#FF6363" opacity="0.85" clip-path="url(#ca)">+3.5% (+95)</text>
<text x="493.2" y="55.0" text-anchor="middle" font-size="9" fill="#FF6363" opacity="0.85" clip-path="url(#ca)">+2.2% (+62)</text>
<text x="599.5" y="55.0" text-anchor="middle" font-size="9" fill="#FF6363" opacity="0.85" clip-path="url(#ca)">+2.8% (+81)</text>
<text x="699.8" y="55.0" text-anchor="middle" font-size="9" fill="#FF6363" opacity="0.85" clip-path="url(#ca)">+2.5% (+75)</text>
<text x="760.0" y="55.0" text-anchor="middle" font-size="9" fill="#FF6363" opacity="0.85" clip-path="url(#ca)">+0.3% (+10)</text>
<rect x="351" y="369" width="12" height="12" fill="#FF6363" rx="2"/>
<text x="367" y="379" font-size="12" fill="#111827">Extensions</text>
<text x="72" y="394" font-size="8" fill="#e5e7eb">data since Dec 11, 2025</text>
</svg>