<svg xmlns="http://www.w3.org/2000/svg" width="800" height="400" viewBox="0 0 800 400">
<defs>
  <style>text { font-family: -apple-system, BlinkMacSystemFont, 'Segoe UI', Roboto, sans-serif; }</style>
  <linearGradient id="g2" x1="0" y1="0" x2="0" y2="1">
  <stop offset="0%" stop-color="#4F8EF7" stop-opacity="0.25"/>
  <stop offset="100%" stop-color="#4F8EF7" stop-opacity="0"/>
</linearGradient>
<linearGradient id="g3" x1="0" y1="0" x2="0" y2="1">
  <stop offset="0%" stop-color="#BF5AF2" stop-opacity="0.25"/>
  <stop offset="100%" stop-color="#BF5AF2" stop-opacity="0"/>
</linearGradient>
<linearGradient id="g4" x1="0" y1="0" x2="0" y2="1">
  <stop offset="0%" stop-color="#34C759" stop-opacity="0.25"/>
  <stop offset="100%" stop-color="#34C759" stop-opacity="0"/>
</linearGradient>
  <clipPath id="ca"><rect x="72" y="45" width="698" height="295"/></clipPath>
</defs>
<rect width="800" height="400" fill="#ffffff" rx="12"/>
<text x="400" y="26" text-anchor="middle" font-size="15" font-weight="600" fill="#111827">Community Growth Over Time</text>
<line x1="72" y1="340.0" x2="770" y2="340.0" stroke="#f3f4f6" stroke-width="1"/>
<text x="66" y="344.0" text-anchor="end" font-size="11" fill="#6b7280">500</text>
<line x1="72" y1="241.7" x2="770" y2="241.7" stroke="#f3f4f6" stroke-width="1"/>
<text x="66" y="245.7" text-anchor="end" font-size="11" fill="#6b7280">1.0k</text>
<line x1="72" y1="143.3" x2="770" y2="143.3" stroke="#f3f4f6" stroke-width="1"/>
<text x="66" y="147.3" text-anchor="end" font-size="11" fill="#6b7280">1.5k</text>
<line x1="72" y1="45.0" x2="770" y2="45.0" stroke="#f3f4f6" stroke-width="1"/>
<text x="66" y="49.0" text-anchor="end" font-size="11" fill="#6b7280">2.0k</text>
<line x1="123.4" y1="45" x2="123.4" y2="340" stroke="#e5e7eb" stroke-width="1" stroke-dasharray="3,3" clip-path="url(#ca)"/>
<line x1="234.7" y1="45" x2="234.7" y2="340" stroke="#e5e7eb" stroke-width="1" stroke-dasharray="3,3" clip-path="url(#ca)"/>
<line x1="350.3" y1="45" x2="350.3" y2="340" stroke="#e5e7eb" stroke-width="1" stroke-dasharray="3,3" clip-path="url(#ca)"/>
<line x1="466.0" y1="45" x2="466.0" y2="340" stroke="#e5e7eb" stroke-width="1" stroke-dasharray="3,3" clip-path="url(#ca)"/>
<line x1="581.6" y1="45" x2="581.6" y2="340" stroke="#e5e7eb" stroke-width="1" stroke-dasharray="3,3" clip-path="url(#ca)"/>
<line x1="692.9" y1="45" x2="692.9" y2="340" stroke="#e5e7eb" stroke-width="1" stroke-dasharray="3,3" clip-path="url(#ca)"/>
<text x="72.0" y="358.0" text-anchor="middle" font-size="11" fill="#6b7280">Dec 11</text>
<text x="213.3" y="358.0" text-anchor="middle" font-size="11" fill="#6b7280">Jan 27</text>
<text x="350.3" y="358.0" text-anchor="middle" font-size="11" fill="#6b7280">Mar 1</text>
<text x="491.7" y="358.0" text-anchor="middle" font-size="11" fill="#6b7280">Apr 8</text>
<text x="628.7" y="358.0" text-anchor="middle" font-size="11" fill="#6b7280">May 17</text>
<text x="770.0" y="358.0" text-anchor="middle" font-size="11" fill="#6b7280">Jun 24</text>
<line x1="72" y1="45" x2="72" y2="340" stroke="#e5e7eb" stroke-width="1"/>
<line x1="72" y1="340" x2="770" y2="340" stroke="#e5e7eb" stroke-width="1"/>
<text x="-192.5" y="18" text-anchor="middle" font-size="12" fill="#6b7280" transform="rotate(-90)">People</text>
<path d="M 72.0,340 L 72.0,120.1 L 76.3,120.1 L 80.6,120.1 L 84.8,119.5 L 89.1,119.5 L 93.4,119.1 L 97.7,118.9 L 102.0,119.1 L 106.3,118.6 L 110.5,118.6 L 114.8,118.6 L 119.1,118.6 L 123.4,118.6 L 127.7,118.6 L 132.0,118.6 L 136.2,118.6 L 140.5,118.4 L 144.8,117.8 L 149.1,116.6 L 153.4,116.0 L 157.6,115.8 L 161.9,115.8 L 166.2,115.2 L 170.5,113.8 L 174.8,113.0 L 179.1,113.0 L 183.3,112.1 L 187.6,111.7 L 191.9,110.9 L 196.2,110.3 L 200.5,109.7 L 204.7,109.1 L 209.0,109.1 L 213.3,107.7 L 217.6,106.9 L 221.9,106.9 L 226.2,106.2 L 230.4,105.8 L 234.7,105.6 L 239.0,105.4 L 243.3,105.4 L 247.6,104.8 L 251.9,102.4 L 256.1,101.0 L 260.4,100.3 L 264.7,100.1 L 269.0,99.7 L 273.3,98.9 L 277.5,98.5 L 281.8,98.1 L 286.1,97.7 L 290.4,97.3 L 294.7,96.9 L 299.0,96.9 L 303.2,95.0 L 307.5,95.0 L 311.8,94.8 L 316.1,94.6 L 320.4,94.2 L 324.7,94.2 L 328.9,93.2 L 333.2,92.0 L 337.5,91.6 L 341.8,92.0 L 346.1,91.8 L 350.3,91.6 L 354.6,91.6 L 358.9,91.2 L 363.2,90.4 L 367.5,90.0 L 371.8,89.6 L 376.0,89.4 L 380.3,89.4 L 384.6,88.7 L 388.9,88.3 L 393.2,88.3 L 397.4,86.7 L 401.7,86.7 L 406.0,86.7 L 410.3,86.7 L 414.6,86.5 L 418.9,85.9 L 423.1,85.1 L 427.4,84.7 L 431.7,84.7 L 436.0,84.3 L 440.3,82.8 L 444.6,81.8 L 448.8,81.6 L 453.1,81.4 L 457.4,80.8 L 461.7,79.6 L 466.0,79.2 L 470.2,78.8 L 474.5,77.6 L 478.8,77.4 L 483.1,77.4 L 487.4,77.4 L 491.7,77.3 L 495.9,76.1 L 500.2,75.9 L 504.5,75.7 L 508.8,75.7 L 513.1,75.3 L 517.3,73.7 L 521.6,73.5 L 525.9,73.3 L 530.2,73.3 L 534.5,72.5 L 538.8,72.3 L 543.0,72.1 L 547.3,71.6 L 551.6,70.8 L 555.9,70.8 L 560.2,70.8 L 564.5,70.8 L 568.7,70.4 L 573.0,69.8 L 577.3,69.6 L 581.6,69.0 L 585.9,68.8 L 590.1,68.6 L 594.4,67.8 L 598.7,67.2 L 603.0,67.0 L 607.3,67.0 L 611.6,65.3 L 615.8,64.7 L 620.1,64.5 L 624.4,64.5 L 628.7,63.5 L 633.0,63.5 L 637.3,62.9 L 641.5,62.3 L 645.8,60.9 L 650.1,60.7 L 654.4,60.5 L 658.7,60.3 L 662.9,60.3 L 667.2,60.1 L 671.5,59.2 L 675.8,58.6 L 680.1,58.6 L 684.4,58.4 L 688.6,58.4 L 692.9,57.8 L 697.2,57.6 L 701.5,57.4 L 705.8,56.8 L 710.0,56.0 L 714.3,56.0 L 718.6,55.8 L 722.9,55.6 L 727.2,54.6 L 731.5,53.3 L 735.7,53.1 L 740.0,52.7 L 744.3,52.3 L 748.6,52.1 L 752.9,51.5 L 757.2,50.7 L 761.4,50.5 L 765.7,49.9 L 770.0,49.5 L 770.0,340 Z" fill="url(#g2)" clip-path="url(#ca)"/>
<path d="M 72.0,120.1 L 76.3,120.1 L 80.6,120.1 L 84.8,119.5 L 89.1,119.5 L 93.4,119.1 L 97.7,118.9 L 102.0,119.1 L 106.3,118.6 L 110.5,118.6 L 114.8,118.6 L 119.1,118.6 L 123.4,118.6 L 127.7,118.6 L 132.0,118.6 L 136.2,118.6 L 140.5,118.4 L 144.8,117.8 L 149.1,116.6 L 153.4,116.0 L 157.6,115.8 L 161.9,115.8 L 166.2,115.2 L 170.5,113.8 L 174.8,113.0 L 179.1,113.0 L 183.3,112.1 L 187.6,111.7 L 191.9,110.9 L 196.2,110.3 L 200.5,109.7 L 204.7,109.1 L 209.0,109.1 L 213.3,107.7 L 217.6,106.9 L 221.9,106.9 L 226.2,106.2 L 230.4,105.8 L 234.7,105.6 L 239.0,105.4 L 243.3,105.4 L 247.6,104.8 L 251.9,102.4 L 256.1,101.0 L 260.4,100.3 L 264.7,100.1 L 269.0,99.7 L 273.3,98.9 L 277.5,98.5 L 281.8,98.1 L 286.1,97.7 L 290.4,97.3 L 294.7,96.9 L 299.0,96.9 L 303.2,95.0 L 307.5,95.0 L 311.8,94.8 L 316.1,94.6 L 320.4,94.2 L 324.7,94.2 L 328.9,93.2 L 333.2,92.0 L 337.5,91.6 L 341.8,92.0 L 346.1,91.8 L 350.3,91.6 L 354.6,91.6 L 358.9,91.2 L 363.2,90.4 L 367.5,90.0 L 371.8,89.6 L 376.0,89.4 L 380.3,89.4 L 384.6,88.7 L 388.9,88.3 L 393.2,88.3 L 397.4,86.7 L 401.7,86.7 L 406.0,86.7 L 410.3,86.7 L 414.6,86.5 L 418.9,85.9 L 423.1,85.1 L 427.4,84.7 L 431.7,84.7 L 436.0,84.3 L 440.3,82.8 L 444.6,81.8 L 448.8,81.6 L 453.1,81.4 L 457.4,80.8 L 461.7,79.6 L 466.0,79.2 L 470.2,78.8 L 474.5,77.6 L 478.8,77.4 L 483.1,77.4 L 487.4,77.4 L 491.7,77.3 L 495.9,76.1 L 500.2,75.9 L 504.5,75.7 L 508.8,75.7 L 513.1,75.3 L 517.3,73.7 L 521.6,73.5 L 525.9,73.3 L 530.2,73.3 L 534.5,72.5 L 538.8,72.3 L 543.0,72.1 L 547.3,71.6 L 551.6,70.8 L 555.9,70.8 L 560.2,70.8 L 564.5,70.8 L 568.7,70.4 L 573.0,69.8 L 577.3,69.6 L 581.6,69.0 L 585.9,68.8 L 590.1,68.6 L 594.4,67.8 L 598.7,67.2 L 603.0,67.0 L 607.3,67.0 L 611.6,65.3 L 615.8,64.7 L 620.1,64.5 L 624.4,64.5 L 628.7,63.5 L 633.0,63.5 L 637.3,62.9 L 641.5,62.3 L 645.8,60.9 L 650.1,60.7 L 654.4,60.5 L 658.7,60.3 L 662.9,60.3 L 667.2,60.1 L 671.5,59.2 L 675.8,58.6 L 680.1,58.6 L 684.4,58.4 L 688.6,58.4 L 692.9,57.8 L 697.2,57.6 L 701.5,57.4 L 705.8,56.8 L 710.0,56.0 L 714.3,56.0 L 718.6,55.8 L 722.9,55.6 L 727.2,54.6 L 731.5,53.3 L 735.7,53.1 L 740.0,52.7 L 744.3,52.3 L 748.6,52.1 L 752.9,51.5 L 757.2,50.7 L 761.4,50.5 L 765.7,49.9 L 770.0,49.5" fill="none" stroke="#4F8EF7" stroke-width="2.5" stroke-linejoin="round" clip-path="url(#ca)"/>
<path d="M 72.0,340 L 72.0,244.2 L 76.3,243.6 L 80.6,243.6 L 84.8,243.6 L 89.1,243.4 L 93.4,243.0 L 97.7,242.8 L 102.0,242.6 L 106.3,242.6 L 110.5,242.5 L 114.8,242.3 L 119.1,242.3 L 123.4,242.3 L 127.7,242.3 L 132.0,242.3 L 136.2,242.3 L 140.5,241.9 L 144.8,241.9 L 149.1,241.9 L 153.4,241.1 L 157.6,240.9 L 161.9,240.5 L 166.2,239.7 L 170.5,239.5 L 174.8,239.5 L 179.1,239.5 L 183.3,238.9 L 187.6,238.5 L 191.9,238.5 L 196.2,238.1 L 200.5,237.9 L 204.7,237.5 L 209.0,237.5 L 213.3,237.3 L 217.6,236.6 L 221.9,236.0 L 226.2,235.6 L 230.4,235.4 L 234.7,235.4 L 239.0,235.2 L 243.3,234.8 L 247.6,234.8 L 251.9,234.6 L 256.1,234.0 L 260.4,233.6 L 264.7,233.6 L 269.0,233.6 L 273.3,233.6 L 277.5,233.4 L 281.8,232.8 L 286.1,232.4 L 290.4,232.2 L 294.7,232.0 L 299.0,231.8 L 303.2,231.6 L 307.5,231.4 L 311.8,231.2 L 316.1,230.7 L 320.4,230.5 L 324.7,230.3 L 328.9,229.5 L 333.2,228.7 L 337.5,228.7 L 341.8,228.5 L 346.1,228.3 L 350.3,228.3 L 354.6,228.3 L 358.9,227.9 L 363.2,227.9 L 367.5,226.7 L 371.8,226.5 L 376.0,226.3 L 380.3,226.3 L 384.6,225.9 L 388.9,225.7 L 393.2,225.7 L 397.4,225.5 L 401.7,225.5 L 406.0,225.5 L 410.3,225.1 L 414.6,224.9 L 418.9,224.0 L 423.1,224.2 L 427.4,224.0 L 431.7,223.8 L 436.0,223.8 L 440.3,223.6 L 444.6,223.0 L 448.8,223.0 L 453.1,223.0 L 457.4,223.0 L 461.7,222.6 L 466.0,222.6 L 470.2,222.2 L 474.5,221.8 L 478.8,221.0 L 483.1,221.0 L 487.4,220.6 L 491.7,220.4 L 495.9,220.2 L 500.2,220.0 L 504.5,219.6 L 508.8,219.6 L 513.1,219.1 L 517.3,219.1 L 521.6,218.9 L 525.9,218.5 L 530.2,218.3 L 534.5,218.3 L 538.8,218.3 L 543.0,218.3 L 547.3,218.3 L 551.6,217.7 L 555.9,217.7 L 560.2,217.3 L 564.5,216.9 L 568.7,216.3 L 573.0,216.1 L 577.3,216.1 L 581.6,214.9 L 585.9,214.7 L 590.1,214.7 L 594.4,213.9 L 598.7,213.9 L 603.0,213.5 L 607.3,213.5 L 611.6,213.3 L 615.8,213.3 L 620.1,213.2 L 624.4,212.8 L 628.7,212.8 L 633.0,212.6 L 637.3,212.4 L 641.5,212.2 L 645.8,212.0 L 650.1,212.0 L 654.4,211.6 L 658.7,211.6 L 662.9,211.6 L 667.2,210.6 L 671.5,210.6 L 675.8,210.6 L 680.1,210.6 L 684.4,210.6 L 688.6,210.6 L 692.9,210.2 L 697.2,210.2 L 701.5,209.8 L 705.8,209.0 L 710.0,208.6 L 714.3,208.4 L 718.6,208.4 L 722.9,208.2 L 727.2,207.6 L 731.5,207.4 L 735.7,207.4 L 740.0,207.1 L 744.3,206.5 L 748.6,206.1 L 752.9,206.1 L 757.2,205.9 L 761.4,205.9 L 765.7,205.3 L 770.0,205.1 L 770.0,340 Z" fill="url(#g3)" clip-path="url(#ca)"/>
<path d="M 72.0,244.2 L 76.3,243.6 L 80.6,243.6 L 84.8,243.6 L 89.1,243.4 L 93.4,243.0 L 97.7,242.8 L 102.0,242.6 L 106.3,242.6 L 110.5,242.5 L 114.8,242.3 L 119.1,242.3 L 123.4,242.3 L 127.7,242.3 L 132.0,242.3 L 136.2,242.3 L 140.5,241.9 L 144.8,241.9 L 149.1,241.9 L 153.4,241.1 L 157.6,240.9 L 161.9,240.5 L 166.2,239.7 L 170.5,239.5 L 174.8,239.5 L 179.1,239.5 L 183.3,238.9 L 187.6,238.5 L 191.9,238.5 L 196.2,238.1 L 200.5,237.9 L 204.7,237.5 L 209.0,237.5 L 213.3,237.3 L 217.6,236.6 L 221.9,236.0 L 226.2,235.6 L 230.4,235.4 L 234.7,235.4 L 239.0,235.2 L 243.3,234.8 L 247.6,234.8 L 251.9,234.6 L 256.1,234.0 L 260.4,233.6 L 264.7,233.6 L 269.0,233.6 L 273.3,233.6 L 277.5,233.4 L 281.8,232.8 L 286.1,232.4 L 290.4,232.2 L 294.7,232.0 L 299.0,231.8 L 303.2,231.6 L 307.5,231.4 L 311.8,231.2 L 316.1,230.7 L 320.4,230.5 L 324.7,230.3 L 328.9,229.5 L 333.2,228.7 L 337.5,228.7 L 341.8,228.5 L 346.1,228.3 L 350.3,228.3 L 354.6,228.3 L 358.9,227.9 L 363.2,227.9 L 367.5,226.7 L 371.8,226.5 L 376.0,226.3 L 380.3,226.3 L 384.6,225.9 L 388.9,225.7 L 393.2,225.7 L 397.4,225.5 L 401.7,225.5 L 406.0,225.5 L 410.3,225.1 L 414.6,224.9 L 418.9,224.0 L 423.1,224.2 L 427.4,224.0 L 431.7,223.8 L 436.0,223.8 L 440.3,223.6 L 444.6,223.0 L 448.8,223.0 L 453.1,223.0 L 457.4,223.0 L 461.7,222.6 L 466.0,222.6 L 470.2,222.2 L 474.5,221.8 L 478.8,221.0 L 483.1,221.0 L 487.4,220.6 L 491.7,220.4 L 495.9,220.2 L 500.2,220.0 L 504.5,219.6 L 508.8,219.6 L 513.1,219.1 L 517.3,219.1 L 521.6,218.9 L 525.9,218.5 L 530.2,218.3 L 534.5,218.3 L 538.8,218.3 L 543.0,218.3 L 547.3,218.3 L 551.6,217.7 L 555.9,217.7 L 560.2,217.3 L 564.5,216.9 L 568.7,216.3 L 573.0,216.1 L 577.3,216.1 L 581.6,214.9 L 585.9,214.7 L 590.1,214.7 L 594.4,213.9 L 598.7,213.9 L 603.0,213.5 L 607.3,213.5 L 611.6,213.3 L 615.8,213.3 L 620.1,213.2 L 624.4,212.8 L 628.7,212.8 L 633.0,212.6 L 637.3,212.4 L 641.5,212.2 L 645.8,212.0 L 650.1,212.0 L 654.4,211.6 L 658.7,211.6 L 662.9,211.6 L 667.2,210.6 L 671.5,210.6 L 675.8,210.6 L 680.1,210.6 L 684.4,210.6 L 688.6,210.6 L 692.9,210.2 L 697.2,210.2 L 701.5,209.8 L 705.8,209.0 L 710.0,208.6 L 714.3,208.4 L 718.6,208.4 L 722.9,208.2 L 727.2,207.6 L 731.5,207.4 L 735.7,207.4 L 740.0,207.1 L 744.3,206.5 L 748.6,206.1 L 752.9,206.1 L 757.2,205.9 L 761.4,205.9 L 765.7,205.3 L 770.0,205.1" fill="none" stroke="#BF5AF2" stroke-width="2.5" stroke-linejoin="round" clip-path="url(#ca)"/>
<path d="M 72.0,340 L 72.0,291.4 L 76.3,290.8 L 80.6,290.8 L 84.8,290.8 L 89.1,290.6 L 93.4,290.2 L 97.7,290.0 L 102.0,289.7 L 106.3,289.7 L 110.5,289.5 L 114.8,289.3 L 119.1,289.3 L 123.4,289.3 L 127.7,289.3 L 132.0,289.3 L 136.2,289.3 L 140.5,288.9 L 144.8,288.9 L 149.1,289.1 L 153.4,288.5 L 157.6,288.7 L 161.9,288.1 L 166.2,287.5 L 170.5,287.3 L 174.8,287.5 L 179.1,287.5 L 183.3,286.9 L 187.6,286.7 L 191.9,286.7 L 196.2,286.3 L 200.5,286.1 L 204.7,285.7 L 209.0,285.7 L 213.3,285.5 L 217.6,284.9 L 221.9,284.3 L 226.2,283.9 L 230.4,283.9 L 234.7,283.9 L 239.0,283.8 L 243.3,283.4 L 247.6,283.4 L 251.9,283.2 L 256.1,282.6 L 260.4,282.4 L 264.7,282.4 L 269.0,282.4 L 273.3,282.4 L 277.5,282.2 L 281.8,281.6 L 286.1,281.4 L 290.4,281.2 L 294.7,281.0 L 299.0,281.0 L 303.2,280.8 L 307.5,280.8 L 311.8,280.8 L 316.1,280.2 L 320.4,280.2 L 324.7,280.2 L 328.9,279.8 L 333.2,279.2 L 337.5,279.2 L 341.8,279.0 L 346.1,278.8 L 350.3,278.8 L 354.6,278.8 L 358.9,278.4 L 363.2,278.4 L 367.5,277.3 L 371.8,277.1 L 376.0,276.9 L 380.3,276.9 L 384.6,276.7 L 388.9,276.7 L 393.2,276.7 L 397.4,276.7 L 401.7,276.7 L 406.0,276.7 L 410.3,276.3 L 414.6,276.1 L 418.9,275.1 L 423.1,275.3 L 427.4,275.3 L 431.7,275.1 L 436.0,275.1 L 440.3,275.1 L 444.6,274.7 L 448.8,274.7 L 453.1,274.7 L 457.4,274.7 L 461.7,274.7 L 466.0,274.7 L 470.2,274.5 L 474.5,274.5 L 478.8,273.7 L 483.1,273.7 L 487.4,273.5 L 491.7,273.3 L 495.9,273.1 L 500.2,272.9 L 504.5,272.5 L 508.8,272.5 L 513.1,272.0 L 517.3,272.0 L 521.6,271.8 L 525.9,271.6 L 530.2,271.6 L 534.5,271.6 L 538.8,271.6 L 543.0,271.6 L 547.3,271.6 L 551.6,271.0 L 555.9,271.0 L 560.2,270.6 L 564.5,270.2 L 568.7,269.6 L 573.0,269.4 L 577.3,269.4 L 581.6,268.4 L 585.9,268.2 L 590.1,268.2 L 594.4,267.6 L 598.7,267.6 L 603.0,267.4 L 607.3,267.4 L 611.6,267.6 L 615.8,267.8 L 620.1,267.6 L 624.4,267.2 L 628.7,267.4 L 633.0,267.2 L 637.3,267.0 L 641.5,267.0 L 645.8,267.0 L 650.1,267.0 L 654.4,266.6 L 658.7,266.6 L 662.9,266.6 L 667.2,265.9 L 671.5,265.9 L 675.8,265.9 L 680.1,265.9 L 684.4,265.9 L 688.6,265.9 L 692.9,265.5 L 697.2,265.5 L 701.5,265.1 L 705.8,264.3 L 710.0,264.1 L 714.3,264.1 L 718.6,264.1 L 722.9,264.1 L 727.2,263.7 L 731.5,263.5 L 735.7,263.5 L 740.0,263.3 L 744.3,262.7 L 748.6,262.3 L 752.9,262.3 L 757.2,262.1 L 761.4,262.1 L 765.7,261.9 L 770.0,261.7 L 770.0,340 Z" fill="url(#g4)" clip-path="url(#ca)"/>
<path d="M 72.0,291.4 L 76.3,290.8 L 80.6,290.8 L 84.8,290.8 L 89.1,290.6 L 93.4,290.2 L 97.7,290.0 L 102.0,289.7 L 106.3,289.7 L 110.5,289.5 L 114.8,289.3 L 119.1,289.3 L 123.4,289.3 L 127.7,289.3 L 132.0,289.3 L 136.2,289.3 L 140.5,288.9 L 144.8,288.9 L 149.1,289.1 L 153.4,288.5 L 157.6,288.7 L 161.9,288.1 L 166.2,287.5 L 170.5,287.3 L 174.8,287.5 L 179.1,287.5 L 183.3,286.9 L 187.6,286.7 L 191.9,286.7 L 196.2,286.3 L 200.5,286.1 L 204.7,285.7 L 209.0,285.7 L 213.3,285.5 L 217.6,284.9 L 221.9,284.3 L 226.2,283.9 L 230.4,283.9 L 234.7,283.9 L 239.0,283.8 L 243.3,283.4 L 247.6,283.4 L 251.9,283.2 L 256.1,282.6 L 260.4,282.4 L 264.7,282.4 L 269.0,282.4 L 273.3,282.4 L 277.5,282.2 L 281.8,281.6 L 286.1,281.4 L 290.4,281.2 L 294.7,281.0 L 299.0,281.0 L 303.2,280.8 L 307.5,280.8 L 311.8,280.8 L 316.1,280.2 L 320.4,280.2 L 324.7,280.2 L 328.9,279.8 L 333.2,279.2 L 337.5,279.2 L 341.8,279.0 L 346.1,278.8 L 350.3,278.8 L 354.6,278.8 L 358.9,278.4 L 363.2,278.4 L 367.5,277.3 L 371.8,277.1 L 376.0,276.9 L 380.3,276.9 L 384.6,276.7 L 388.9,276.7 L 393.2,276.7 L 397.4,276.7 L 401.7,276.7 L 406.0,276.7 L 410.3,276.3 L 414.6,276.1 L 418.9,275.1 L 423.1,275.3 L 427.4,275.3 L 431.7,275.1 L 436.0,275.1 L 440.3,275.1 L 444.6,274.7 L 448.8,274.7 L 453.1,274.7 L 457.4,274.7 L 461.7,274.7 L 466.0,274.7 L 470.2,274.5 L 474.5,274.5 L 478.8,273.7 L 483.1,273.7 L 487.4,273.5 L 491.7,273.3 L 495.9,273.1 L 500.2,272.9 L 504.5,272.5 L 508.8,272.5 L 513.1,272.0 L 517.3,272.0 L 521.6,271.8 L 525.9,271.6 L 530.2,271.6 L 534.5,271.6 L 538.8,271.6 L 543.0,271.6 L 547.3,271.6 L 551.6,271.0 L 555.9,271.0 L 560.2,270.6 L 564.5,270.2 L 568.7,269.6 L 573.0,269.4 L 577.3,269.4 L 581.6,268.4 L 585.9,268.2 L 590.1,268.2 L 594.4,267.6 L 598.7,267.6 L 603.0,267.4 L 607.3,267.4 L 611.6,267.6 L 615.8,267.8 L 620.1,267.6 L 624.4,267.2 L 628.7,267.4 L 633.0,267.2 L 637.3,267.0 L 641.5,267.0 L 645.8,267.0 L 650.1,267.0 L 654.4,266.6 L 658.7,266.6 L 662.9,266.6 L 667.2,265.9 L 671.5,265.9 L 675.8,265.9 L 680.1,265.9 L 684.4,265.9 L 688.6,265.9 L 692.9,265.5 L 697.2,265.5 L 701.5,265.1 L 705.8,264.3 L 710.0,264.1 L 714.3,264.1 L 718.6,264.1 L 722.9,264.1 L 727.2,263.7 L 731.5,263.5 L 735.7,263.5 L 740.0,263.3 L 744.3,262.7 L 748.6,262.3 L 752.9,262.3 L 757.2,262.1 L 761.4,262.1 L 765.7,261.9 L 770.0,261.7" fill="none" stroke="#34C759" stroke-width="2.5" stroke-linejoin="round" clip-path="url(#ca)"/>
<text x="95.6" y="55.0" text-anchor="middle" font-size="9" fill="#4F8EF7" opacity="0.85" clip-path="url(#ca)">+0.5% (+8)</text>
<text x="95.6" y="66.0" text-anchor="middle" font-size="9" fill="#BF5AF2" opacity="0.85" clip-path="url(#ca)">+1.0% (+10)</text>
<text x="95.6" y="77.0" text-anchor="middle" font-size="9" fill="#34C759" opacity="0.85" clip-path="url(#ca)">+1.5% (+11)</text>
<text x="176.9" y="55.0" text-anchor="middle" font-size="9" fill="#4F8EF7" opacity="0.85" clip-path="url(#ca)">+4.0% (+65)</text>
<text x="176.9" y="66.0" text-anchor="middle" font-size="9" fill="#BF5AF2" opacity="0.85" clip-path="url(#ca)">+3.5% (+35)</text>
<text x="176.9" y="77.0" text-anchor="middle" font-size="9" fill="#34C759" opacity="0.85" clip-path="url(#ca)">+3.6% (+27)</text>
<text x="290.4" y="55.0" text-anchor="middle" font-size="9" fill="#4F8EF7" opacity="0.85" clip-path="url(#ca)">+4.1% (+70)</text>
<text x="290.4" y="66.0" text-anchor="middle" font-size="9" fill="#BF5AF2" opacity="0.85" clip-path="url(#ca)">+3.5% (+36)</text>
<text x="290.4" y="77.0" text-anchor="middle" font-size="9" fill="#34C759" opacity="0.85" clip-path="url(#ca)">+3.3% (+26)</text>
<text x="406.0" y="55.0" text-anchor="middle" font-size="9" fill="#4F8EF7" opacity="0.85" clip-path="url(#ca)">+3.5% (+61)</text>
<text x="406.0" y="66.0" text-anchor="middle" font-size="9" fill="#BF5AF2" opacity="0.85" clip-path="url(#ca)">+2.7% (+29)</text>
<text x="406.0" y="77.0" text-anchor="middle" font-size="9" fill="#34C759" opacity="0.85" clip-path="url(#ca)">+2.6% (+21)</text>
<text x="521.6" y="55.0" text-anchor="middle" font-size="9" fill="#4F8EF7" opacity="0.85" clip-path="url(#ca)">+2.7% (+49)</text>
<text x="521.6" y="66.0" text-anchor="middle" font-size="9" fill="#BF5AF2" opacity="0.85" clip-path="url(#ca)">+3.0% (+33)</text>
<text x="521.6" y="77.0" text-anchor="middle" font-size="9" fill="#34C759" opacity="0.85" clip-path="url(#ca)">+3.2% (+27)</text>
<text x="635.1" y="55.0" text-anchor="middle" font-size="9" fill="#4F8EF7" opacity="0.85" clip-path="url(#ca)">+2.9% (+54)</text>
<text x="635.1" y="66.0" text-anchor="middle" font-size="9" fill="#BF5AF2" opacity="0.85" clip-path="url(#ca)">+1.9% (+22)</text>
<text x="635.1" y="77.0" text-anchor="middle" font-size="9" fill="#34C759" opacity="0.85" clip-path="url(#ca)">+1.5% (+13)</text>
<text x="731.5" y="55.0" text-anchor="middle" font-size="9" fill="#4F8EF7" opacity="0.85" clip-path="url(#ca)">+2.2% (+42)</text>
<text x="731.5" y="66.0" text-anchor="middle" font-size="9" fill="#BF5AF2" opacity="0.85" clip-path="url(#ca)">+2.2% (+26)</text>
<text x="731.5" y="77.0" text-anchor="middle" font-size="9" fill="#34C759" opacity="0.85" clip-path="url(#ca)">+2.2% (+19)</text>
<rect x="211" y="369" width="12" height="12" fill="#4F8EF7" rx="2"/>
<text x="227" y="379" font-size="12" fill="#111827">Authors</text>
<rect x="351" y="369" width="12" height="12" fill="#BF5AF2" rx="2"/>
<text x="367" y="379" font-size="12" fill="#111827">Contributors</text>
<rect x="491" y="369" width="12" height="12" fill="#34C759" rx="2"/>
<text x="507" y="379" font-size="12" fill="#111827">Non-author contributors</text>
<text x="72" y="394" font-size="8" fill="#e5e7eb">data since Dec 11, 2025</text>
</svg>