<svg xmlns="http://www.w3.org/2000/svg" width="800" height="400" viewBox="0 0 800 400">
<defs>
  <style>text { font-family: -apple-system, BlinkMacSystemFont, 'Segoe UI', Roboto, sans-serif; }</style>
  <linearGradient id="g5" x1="0" y1="0" x2="0" y2="1">
  <stop offset="0%" stop-color="#34C759" stop-opacity="0.25"/>
  <stop offset="100%" stop-color="#34C759" stop-opacity="0"/>
</linearGradient>
<linearGradient id="g6" x1="0" y1="0" x2="0" y2="1">
  <stop offset="0%" stop-color="#4F8EF7" stop-opacity="0.25"/>
  <stop offset="100%" stop-color="#4F8EF7" stop-opacity="0"/>
</linearGradient>
<linearGradient id="g7" x1="0" y1="0" x2="0" y2="1">
  <stop offset="0%" stop-color="#FF6363" stop-opacity="0.25"/>
  <stop offset="100%" stop-color="#FF6363" stop-opacity="0"/>
</linearGradient>
  <clipPath id="ca"><rect x="72" y="45" width="698" height="295"/></clipPath>
</defs>
<rect width="800" height="400" fill="#ffffff" rx="12"/>
<text x="400" y="26" text-anchor="middle" font-size="15" font-weight="600" fill="#111827">Platform Support Over Time</text>
<line x1="72" y1="340.0" x2="770" y2="340.0" stroke="#f3f4f6" stroke-width="1"/>
<text x="66" y="344.0" text-anchor="end" font-size="11" fill="#6b7280">0</text>
<line x1="72" y1="281.0" x2="770" y2="281.0" stroke="#f3f4f6" stroke-width="1"/>
<text x="66" y="285.0" text-anchor="end" font-size="11" fill="#6b7280">200</text>
<line x1="72" y1="222.0" x2="770" y2="222.0" stroke="#f3f4f6" stroke-width="1"/>
<text x="66" y="226.0" text-anchor="end" font-size="11" fill="#6b7280">400</text>
<line x1="72" y1="163.0" x2="770" y2="163.0" stroke="#f3f4f6" stroke-width="1"/>
<text x="66" y="167.0" text-anchor="end" font-size="11" fill="#6b7280">600</text>
<line x1="72" y1="104.0" x2="770" y2="104.0" stroke="#f3f4f6" stroke-width="1"/>
<text x="66" y="108.0" text-anchor="end" font-size="11" fill="#6b7280">800</text>
<line x1="72" y1="45.0" x2="770" y2="45.0" stroke="#f3f4f6" stroke-width="1"/>
<text x="66" y="49.0" text-anchor="end" font-size="11" fill="#6b7280">1.0k</text>
<line x1="132.7" y1="45" x2="132.7" y2="340" stroke="#e5e7eb" stroke-width="1" stroke-dasharray="3,3" clip-path="url(#ca)"/>
<line x1="264.2" y1="45" x2="264.2" y2="340" stroke="#e5e7eb" stroke-width="1" stroke-dasharray="3,3" clip-path="url(#ca)"/>
<line x1="400.8" y1="45" x2="400.8" y2="340" stroke="#e5e7eb" stroke-width="1" stroke-dasharray="3,3" clip-path="url(#ca)"/>
<line x1="537.3" y1="45" x2="537.3" y2="340" stroke="#e5e7eb" stroke-width="1" stroke-dasharray="3,3" clip-path="url(#ca)"/>
<line x1="673.9" y1="45" x2="673.9" y2="340" stroke="#e5e7eb" stroke-width="1" stroke-dasharray="3,3" clip-path="url(#ca)"/>
<text x="72.0" y="358.0" text-anchor="middle" font-size="11" fill="#6b7280">Dec 11</text>
<text x="213.6" y="358.0" text-anchor="middle" font-size="11" fill="#6b7280">Jan 22</text>
<text x="350.2" y="358.0" text-anchor="middle" font-size="11" fill="#6b7280">Feb 18</text>
<text x="491.8" y="358.0" text-anchor="middle" font-size="11" fill="#6b7280">Mar 20</text>
<text x="628.4" y="358.0" text-anchor="middle" font-size="11" fill="#6b7280">Apr 21</text>
<text x="770.0" y="358.0" text-anchor="middle" font-size="11" fill="#6b7280">May 25</text>
<line x1="72" y1="45" x2="72" y2="340" stroke="#e5e7eb" stroke-width="1"/>
<line x1="72" y1="340" x2="770" y2="340" stroke="#e5e7eb" stroke-width="1"/>
<text x="-192.5" y="18" text-anchor="middle" font-size="12" fill="#6b7280" transform="rotate(-90)">Extensions</text>
<path d="M 72.0,340 L 72.0,242.6 L 77.1,240.0 L 82.1,239.7 L 87.2,238.5 L 92.2,237.9 L 97.3,235.0 L 102.3,233.2 L 107.4,232.3 L 112.5,230.8 L 117.5,229.1 L 122.6,228.2 L 127.6,227.9 L 132.7,227.0 L 137.8,226.4 L 142.8,226.1 L 147.9,225.2 L 152.9,224.4 L 158.0,223.5 L 163.0,222.6 L 168.1,221.4 L 173.2,220.5 L 178.2,219.6 L 183.3,218.8 L 188.3,217.0 L 193.4,216.4 L 198.4,216.4 L 203.5,214.3 L 208.6,213.7 L 213.6,213.2 L 218.7,212.6 L 223.7,211.1 L 228.8,209.0 L 233.9,208.7 L 238.9,208.4 L 244.0,206.7 L 249.0,206.1 L 254.1,204.6 L 259.1,204.3 L 264.2,204.0 L 269.3,203.4 L 274.3,203.4 L 279.4,203.4 L 284.4,199.3 L 289.5,199.0 L 294.6,198.1 L 299.6,197.8 L 304.7,197.5 L 309.7,196.6 L 314.8,196.0 L 319.8,195.4 L 324.9,193.7 L 330.0,193.7 L 335.0,193.7 L 340.1,193.4 L 345.1,190.4 L 350.2,189.6 L 355.2,189.0 L 360.3,188.1 L 365.4,187.5 L 370.4,187.5 L 375.5,186.0 L 380.5,183.9 L 385.6,183.4 L 390.7,183.1 L 395.7,182.2 L 400.8,182.2 L 405.8,181.6 L 410.9,180.7 L 415.9,180.1 L 421.0,178.9 L 426.1,177.8 L 431.1,177.5 L 436.2,177.5 L 441.2,176.3 L 446.3,176.3 L 451.3,176.3 L 456.4,174.5 L 461.5,174.2 L 466.5,173.9 L 471.6,173.9 L 476.6,173.6 L 481.7,172.4 L 486.8,171.9 L 491.8,171.0 L 496.9,171.0 L 501.9,170.7 L 507.0,169.5 L 512.0,168.6 L 517.1,168.6 L 522.2,168.3 L 527.2,167.7 L 532.3,165.7 L 537.3,165.1 L 542.4,164.2 L 547.4,164.2 L 552.5,163.6 L 557.6,163.3 L 562.6,163.0 L 567.7,162.7 L 572.7,162.4 L 577.8,162.4 L 582.9,162.1 L 587.9,161.8 L 593.0,160.9 L 598.0,159.8 L 603.1,159.5 L 608.1,158.6 L 613.2,158.6 L 618.3,157.4 L 623.3,157.1 L 628.4,157.1 L 633.4,157.1 L 638.5,156.2 L 643.6,155.9 L 648.6,155.9 L 653.7,155.9 L 658.7,155.6 L 663.8,154.4 L 668.8,154.2 L 673.9,153.3 L 679.0,152.7 L 684.0,152.7 L 689.1,151.8 L 694.1,151.2 L 699.2,151.2 L 704.2,150.9 L 709.3,149.4 L 714.4,148.0 L 719.4,147.7 L 724.5,147.1 L 729.5,145.9 L 734.6,145.9 L 739.7,145.3 L 744.7,143.8 L 749.8,141.2 L 754.8,140.3 L 759.9,140.3 L 764.9,140.3 L 770.0,140.3 L 770.0,340 Z" fill="url(#g5)" clip-path="url(#ca)"/>
<path d="M 72.0,242.6 L 77.1,240.0 L 82.1,239.7 L 87.2,238.5 L 92.2,237.9 L 97.3,235.0 L 102.3,233.2 L 107.4,232.3 L 112.5,230.8 L 117.5,229.1 L 122.6,228.2 L 127.6,227.9 L 132.7,227.0 L 137.8,226.4 L 142.8,226.1 L 147.9,225.2 L 152.9,224.4 L 158.0,223.5 L 163.0,222.6 L 168.1,221.4 L 173.2,220.5 L 178.2,219.6 L 183.3,218.8 L 188.3,217.0 L 193.4,216.4 L 198.4,216.4 L 203.5,214.3 L 208.6,213.7 L 213.6,213.2 L 218.7,212.6 L 223.7,211.1 L 228.8,209.0 L 233.9,208.7 L 238.9,208.4 L 244.0,206.7 L 249.0,206.1 L 254.1,204.6 L 259.1,204.3 L 264.2,204.0 L 269.3,203.4 L 274.3,203.4 L 279.4,203.4 L 284.4,199.3 L 289.5,199.0 L 294.6,198.1 L 299.6,197.8 L 304.7,197.5 L 309.7,196.6 L 314.8,196.0 L 319.8,195.4 L 324.9,193.7 L 330.0,193.7 L 335.0,193.7 L 340.1,193.4 L 345.1,190.4 L 350.2,189.6 L 355.2,189.0 L 360.3,188.1 L 365.4,187.5 L 370.4,187.5 L 375.5,186.0 L 380.5,183.9 L 385.6,183.4 L 390.7,183.1 L 395.7,182.2 L 400.8,182.2 L 405.8,181.6 L 410.9,180.7 L 415.9,180.1 L 421.0,178.9 L 426.1,177.8 L 431.1,177.5 L 436.2,177.5 L 441.2,176.3 L 446.3,176.3 L 451.3,176.3 L 456.4,174.5 L 461.5,174.2 L 466.5,173.9 L 471.6,173.9 L 476.6,173.6 L 481.7,172.4 L 486.8,171.9 L 491.8,171.0 L 496.9,171.0 L 501.9,170.7 L 507.0,169.5 L 512.0,168.6 L 517.1,168.6 L 522.2,168.3 L 527.2,167.7 L 532.3,165.7 L 537.3,165.1 L 542.4,164.2 L 547.4,164.2 L 552.5,163.6 L 557.6,163.3 L 562.6,163.0 L 567.7,162.7 L 572.7,162.4 L 577.8,162.4 L 582.9,162.1 L 587.9,161.8 L 593.0,160.9 L 598.0,159.8 L 603.1,159.5 L 608.1,158.6 L 613.2,158.6 L 618.3,157.4 L 623.3,157.1 L 628.4,157.1 L 633.4,157.1 L 638.5,156.2 L 643.6,155.9 L 648.6,155.9 L 653.7,155.9 L 658.7,155.6 L 663.8,154.4 L 668.8,154.2 L 673.9,153.3 L 679.0,152.7 L 684.0,152.7 L 689.1,151.8 L 694.1,151.2 L 699.2,151.2 L 704.2,150.9 L 709.3,149.4 L 714.4,148.0 L 719.4,147.7 L 724.5,147.1 L 729.5,145.9 L 734.6,145.9 L 739.7,145.3 L 744.7,143.8 L 749.8,141.2 L 754.8,140.3 L 759.9,140.3 L 764.9,140.3 L 770.0,140.3" fill="none" stroke="#34C759" stroke-width="2.5" stroke-linejoin="round" clip-path="url(#ca)"/>
<path d="M 72.0,340 L 72.0,222.6 L 77.1,222.6 L 82.1,222.3 L 87.2,221.4 L 92.2,221.7 L 97.3,221.7 L 102.3,220.5 L 107.4,219.6 L 112.5,219.6 L 117.5,219.9 L 122.6,219.6 L 127.6,219.3 L 132.7,219.1 L 137.8,219.1 L 142.8,219.1 L 147.9,219.3 L 152.9,218.8 L 158.0,218.2 L 163.0,216.4 L 168.1,215.2 L 173.2,215.2 L 178.2,214.9 L 183.3,213.2 L 188.3,210.5 L 193.4,209.6 L 198.4,209.0 L 203.5,207.0 L 208.6,205.5 L 213.6,204.9 L 218.7,204.3 L 223.7,203.7 L 228.8,203.4 L 233.9,203.4 L 238.9,201.3 L 244.0,200.8 L 249.0,200.2 L 254.1,200.2 L 259.1,198.7 L 264.2,198.4 L 269.3,197.5 L 274.3,196.3 L 279.4,194.9 L 284.4,192.8 L 289.5,190.7 L 294.6,190.4 L 299.6,189.8 L 304.7,189.3 L 309.7,187.5 L 314.8,187.5 L 319.8,186.9 L 324.9,186.0 L 330.0,185.4 L 335.0,184.2 L 340.1,184.5 L 345.1,181.0 L 350.2,180.7 L 355.2,180.4 L 360.3,179.8 L 365.4,178.0 L 370.4,178.0 L 375.5,176.3 L 380.5,174.2 L 385.6,174.2 L 390.7,174.2 L 395.7,173.9 L 400.8,173.6 L 405.8,173.3 L 410.9,171.9 L 415.9,170.1 L 421.0,169.5 L 426.1,168.3 L 431.1,168.3 L 436.2,167.4 L 441.2,165.7 L 446.3,164.8 L 451.3,164.5 L 456.4,162.4 L 461.5,162.1 L 466.5,162.1 L 471.6,161.8 L 476.6,161.8 L 481.7,160.3 L 486.8,159.8 L 491.8,158.9 L 496.9,158.6 L 501.9,158.0 L 507.0,155.6 L 512.0,152.4 L 517.1,152.1 L 522.2,151.5 L 527.2,151.2 L 532.3,149.7 L 537.3,118.5 L 542.4,117.9 L 547.4,116.4 L 552.5,116.4 L 557.6,116.4 L 562.6,116.7 L 567.7,116.4 L 572.7,114.6 L 577.8,114.0 L 582.9,113.7 L 587.9,113.4 L 593.0,112.3 L 598.0,110.5 L 603.1,110.5 L 608.1,110.5 L 613.2,110.2 L 618.3,109.9 L 623.3,109.9 L 628.4,109.3 L 633.4,108.4 L 638.5,106.9 L 643.6,106.4 L 648.6,106.1 L 653.7,106.1 L 658.7,105.8 L 663.8,105.2 L 668.8,104.9 L 673.9,103.4 L 679.0,103.4 L 684.0,102.8 L 689.1,101.6 L 694.1,100.2 L 699.2,99.9 L 704.2,99.6 L 709.3,96.9 L 714.4,96.3 L 719.4,95.7 L 724.5,95.7 L 729.5,94.6 L 734.6,94.0 L 739.7,92.5 L 744.7,91.9 L 749.8,91.0 L 754.8,90.7 L 759.9,89.5 L 764.9,88.7 L 770.0,88.4 L 770.0,340 Z" fill="url(#g6)" clip-path="url(#ca)"/>
<path d="M 72.0,222.6 L 77.1,222.6 L 82.1,222.3 L 87.2,221.4 L 92.2,221.7 L 97.3,221.7 L 102.3,220.5 L 107.4,219.6 L 112.5,219.6 L 117.5,219.9 L 122.6,219.6 L 127.6,219.3 L 132.7,219.1 L 137.8,219.1 L 142.8,219.1 L 147.9,219.3 L 152.9,218.8 L 158.0,218.2 L 163.0,216.4 L 168.1,215.2 L 173.2,215.2 L 178.2,214.9 L 183.3,213.2 L 188.3,210.5 L 193.4,209.6 L 198.4,209.0 L 203.5,207.0 L 208.6,205.5 L 213.6,204.9 L 218.7,204.3 L 223.7,203.7 L 228.8,203.4 L 233.9,203.4 L 238.9,201.3 L 244.0,200.8 L 249.0,200.2 L 254.1,200.2 L 259.1,198.7 L 264.2,198.4 L 269.3,197.5 L 274.3,196.3 L 279.4,194.9 L 284.4,192.8 L 289.5,190.7 L 294.6,190.4 L 299.6,189.8 L 304.7,189.3 L 309.7,187.5 L 314.8,187.5 L 319.8,186.9 L 324.9,186.0 L 330.0,185.4 L 335.0,184.2 L 340.1,184.5 L 345.1,181.0 L 350.2,180.7 L 355.2,180.4 L 360.3,179.8 L 365.4,178.0 L 370.4,178.0 L 375.5,176.3 L 380.5,174.2 L 385.6,174.2 L 390.7,174.2 L 395.7,173.9 L 400.8,173.6 L 405.8,173.3 L 410.9,171.9 L 415.9,170.1 L 421.0,169.5 L 426.1,168.3 L 431.1,168.3 L 436.2,167.4 L 441.2,165.7 L 446.3,164.8 L 451.3,164.5 L 456.4,162.4 L 461.5,162.1 L 466.5,162.1 L 471.6,161.8 L 476.6,161.8 L 481.7,160.3 L 486.8,159.8 L 491.8,158.9 L 496.9,158.6 L 501.9,158.0 L 507.0,155.6 L 512.0,152.4 L 517.1,152.1 L 522.2,151.5 L 527.2,151.2 L 532.3,149.7 L 537.3,118.5 L 542.4,117.9 L 547.4,116.4 L 552.5,116.4 L 557.6,116.4 L 562.6,116.7 L 567.7,116.4 L 572.7,114.6 L 577.8,114.0 L 582.9,113.7 L 587.9,113.4 L 593.0,112.3 L 598.0,110.5 L 603.1,110.5 L 608.1,110.5 L 613.2,110.2 L 618.3,109.9 L 623.3,109.9 L 628.4,109.3 L 633.4,108.4 L 638.5,106.9 L 643.6,106.4 L 648.6,106.1 L 653.7,106.1 L 658.7,105.8 L 663.8,105.2 L 668.8,104.9 L 673.9,103.4 L 679.0,103.4 L 684.0,102.8 L 689.1,101.6 L 694.1,100.2 L 699.2,99.9 L 704.2,99.6 L 709.3,96.9 L 714.4,96.3 L 719.4,95.7 L 724.5,95.7 L 729.5,94.6 L 734.6,94.0 L 739.7,92.5 L 744.7,91.9 L 749.8,91.0 L 754.8,90.7 L 759.9,89.5 L 764.9,88.7 L 770.0,88.4" fill="none" stroke="#4F8EF7" stroke-width="2.5" stroke-linejoin="round" clip-path="url(#ca)"/>
<path d="M 72.0,340 L 72.0,338.2 L 77.1,337.9 L 82.1,337.9 L 87.2,337.6 L 92.2,337.6 L 97.3,337.6 L 102.3,337.6 L 107.4,337.6 L 112.5,337.1 L 117.5,337.1 L 122.6,337.1 L 127.6,337.1 L 132.7,337.1 L 137.8,336.8 L 142.8,336.8 L 147.9,336.8 L 152.9,336.8 L 158.0,336.8 L 163.0,336.5 L 168.1,335.9 L 173.2,335.6 L 178.2,335.6 L 183.3,335.6 L 188.3,335.3 L 193.4,335.3 L 198.4,335.3 L 203.5,335.0 L 208.6,335.0 L 213.6,335.0 L 218.7,334.7 L 223.7,334.7 L 228.8,334.7 L 233.9,334.7 L 238.9,334.4 L 244.0,334.4 L 249.0,334.4 L 254.1,334.4 L 259.1,334.4 L 264.2,334.4 L 269.3,334.4 L 274.3,334.4 L 279.4,334.4 L 284.4,334.4 L 289.5,334.4 L 294.6,334.4 L 299.6,334.4 L 304.7,334.1 L 309.7,334.1 L 314.8,334.1 L 319.8,334.1 L 324.9,334.1 L 330.0,334.1 L 335.0,334.1 L 340.1,334.1 L 345.1,334.1 L 350.2,334.1 L 355.2,334.1 L 360.3,334.1 L 365.4,333.8 L 370.4,333.8 L 375.5,333.8 L 380.5,333.8 L 385.6,333.8 L 390.7,333.8 L 395.7,333.8 L 400.8,333.8 L 405.8,333.8 L 410.9,333.8 L 415.9,333.8 L 421.0,333.8 L 426.1,333.8 L 431.1,333.8 L 436.2,333.8 L 441.2,333.8 L 446.3,333.8 L 451.3,333.8 L 456.4,333.8 L 461.5,333.8 L 466.5,333.8 L 471.6,333.8 L 476.6,333.8 L 481.7,333.8 L 486.8,333.8 L 491.8,333.8 L 496.9,333.8 L 501.9,333.8 L 507.0,333.8 L 512.0,333.8 L 517.1,333.8 L 522.2,333.8 L 527.2,333.8 L 532.3,333.8 L 537.3,333.8 L 542.4,333.8 L 547.4,333.5 L 552.5,333.5 L 557.6,333.5 L 562.6,333.5 L 567.7,333.5 L 572.7,333.2 L 577.8,333.2 L 582.9,333.2 L 587.9,333.2 L 593.0,332.9 L 598.0,332.9 L 603.1,332.6 L 608.1,332.6 L 613.2,332.6 L 618.3,332.6 L 623.3,332.6 L 628.4,332.6 L 633.4,332.6 L 638.5,332.6 L 643.6,332.6 L 648.6,332.6 L 653.7,332.6 L 658.7,332.6 L 663.8,332.6 L 668.8,332.6 L 673.9,332.6 L 679.0,332.6 L 684.0,332.6 L 689.1,332.6 L 694.1,332.6 L 699.2,332.6 L 704.2,332.6 L 709.3,332.6 L 714.4,332.6 L 719.4,332.6 L 724.5,332.6 L 729.5,332.6 L 734.6,332.6 L 739.7,332.6 L 744.7,332.6 L 749.8,332.6 L 754.8,332.6 L 759.9,332.6 L 764.9,332.6 L 770.0,332.6 L 770.0,340 Z" fill="url(#g7)" clip-path="url(#ca)"/>
<path d="M 72.0,338.2 L 77.1,337.9 L 82.1,337.9 L 87.2,337.6 L 92.2,337.6 L 97.3,337.6 L 102.3,337.6 L 107.4,337.6 L 112.5,337.1 L 117.5,337.1 L 122.6,337.1 L 127.6,337.1 L 132.7,337.1 L 137.8,336.8 L 142.8,336.8 L 147.9,336.8 L 152.9,336.8 L 158.0,336.8 L 163.0,336.5 L 168.1,335.9 L 173.2,335.6 L 178.2,335.6 L 183.3,335.6 L 188.3,335.3 L 193.4,335.3 L 198.4,335.3 L 203.5,335.0 L 208.6,335.0 L 213.6,335.0 L 218.7,334.7 L 223.7,334.7 L 228.8,334.7 L 233.9,334.7 L 238.9,334.4 L 244.0,334.4 L 249.0,334.4 L 254.1,334.4 L 259.1,334.4 L 264.2,334.4 L 269.3,334.4 L 274.3,334.4 L 279.4,334.4 L 284.4,334.4 L 289.5,334.4 L 294.6,334.4 L 299.6,334.4 L 304.7,334.1 L 309.7,334.1 L 314.8,334.1 L 319.8,334.1 L 324.9,334.1 L 330.0,334.1 L 335.0,334.1 L 340.1,334.1 L 345.1,334.1 L 350.2,334.1 L 355.2,334.1 L 360.3,334.1 L 365.4,333.8 L 370.4,333.8 L 375.5,333.8 L 380.5,333.8 L 385.6,333.8 L 390.7,333.8 L 395.7,333.8 L 400.8,333.8 L 405.8,333.8 L 410.9,333.8 L 415.9,333.8 L 421.0,333.8 L 426.1,333.8 L 431.1,333.8 L 436.2,333.8 L 441.2,333.8 L 446.3,333.8 L 451.3,333.8 L 456.4,333.8 L 461.5,333.8 L 466.5,333.8 L 471.6,333.8 L 476.6,333.8 L 481.7,333.8 L 486.8,333.8 L 491.8,333.8 L 496.9,333.8 L 501.9,333.8 L 507.0,333.8 L 512.0,333.8 L 517.1,333.8 L 522.2,333.8 L 527.2,333.8 L 532.3,333.8 L 537.3,333.8 L 542.4,333.8 L 547.4,333.5 L 552.5,333.5 L 557.6,333.5 L 562.6,333.5 L 567.7,333.5 L 572.7,333.2 L 577.8,333.2 L 582.9,333.2 L 587.9,333.2 L 593.0,332.9 L 598.0,332.9 L 603.1,332.6 L 608.1,332.6 L 613.2,332.6 L 618.3,332.6 L 623.3,332.6 L 628.4,332.6 L 633.4,332.6 L 638.5,332.6 L 643.6,332.6 L 648.6,332.6 L 653.7,332.6 L 658.7,332.6 L 663.8,332.6 L 668.8,332.6 L 673.9,332.6 L 679.0,332.6 L 684.0,332.6 L 689.1,332.6 L 694.1,332.6 L 699.2,332.6 L 704.2,332.6 L 709.3,332.6 L 714.4,332.6 L 719.4,332.6 L 724.5,332.6 L 729.5,332.6 L 734.6,332.6 L 739.7,332.6 L 744.7,332.6 L 749.8,332.6 L 754.8,332.6 L 759.9,332.6 L 764.9,332.6 L 770.0,332.6" fill="none" stroke="#FF6363" stroke-width="2.5" stroke-linejoin="round" clip-path="url(#ca)"/>
<text x="99.8" y="55.0" text-anchor="middle" font-size="9" fill="#34C759" opacity="0.85" clip-path="url(#ca)">+15.2% (+50)</text>
<text x="99.8" y="66.0" text-anchor="middle" font-size="9" fill="#4F8EF7" opacity="0.85" clip-path="url(#ca)">+2.8% (+11)</text>
<text x="99.8" y="77.0" text-anchor="middle" font-size="9" fill="#FF6363" opacity="0.85" clip-path="url(#ca)">+66.7% (+4)</text>
<text x="195.9" y="55.0" text-anchor="middle" font-size="9" fill="#34C759" opacity="0.85" clip-path="url(#ca)">+20.1% (+77)</text>
<text x="195.9" y="66.0" text-anchor="middle" font-size="9" fill="#4F8EF7" opacity="0.85" clip-path="url(#ca)">+16.8% (+69)</text>
<text x="195.9" y="77.0" text-anchor="middle" font-size="9" fill="#FF6363" opacity="0.85" clip-path="url(#ca)">+90.0% (+9)</text>
<text x="330.0" y="55.0" text-anchor="middle" font-size="9" fill="#34C759" opacity="0.85" clip-path="url(#ca)">+16.1% (+74)</text>
<text x="330.0" y="66.0" text-anchor="middle" font-size="9" fill="#4F8EF7" opacity="0.85" clip-path="url(#ca)">+17.3% (+83)</text>
<text x="330.0" y="77.0" text-anchor="middle" font-size="9" fill="#FF6363" opacity="0.85" clip-path="url(#ca)">+10.5% (+2)</text>
<text x="466.5" y="55.0" text-anchor="middle" font-size="9" fill="#34C759" opacity="0.85" clip-path="url(#ca)">+10.5% (+56)</text>
<text x="466.5" y="66.0" text-anchor="middle" font-size="9" fill="#4F8EF7" opacity="0.85" clip-path="url(#ca)">+14.4% (+81)</text>
<text x="466.5" y="77.0" text-anchor="middle" font-size="9" fill="#FF6363" opacity="0.85" clip-path="url(#ca)">+0.0% (+0)</text>
<text x="603.1" y="55.0" text-anchor="middle" font-size="9" fill="#34C759" opacity="0.85" clip-path="url(#ca)">+6.2% (+37)</text>
<text x="603.1" y="66.0" text-anchor="middle" font-size="9" fill="#4F8EF7" opacity="0.85" clip-path="url(#ca)">+6.1% (+46)</text>
<text x="603.1" y="77.0" text-anchor="middle" font-size="9" fill="#FF6363" opacity="0.85" clip-path="url(#ca)">+19.0% (+4)</text>
<text x="721.9" y="55.0" text-anchor="middle" font-size="9" fill="#34C759" opacity="0.85" clip-path="url(#ca)">+7.0% (+44)</text>
<text x="721.9" y="66.0" text-anchor="middle" font-size="9" fill="#4F8EF7" opacity="0.85" clip-path="url(#ca)">+6.4% (+51)</text>
<text x="721.9" y="77.0" text-anchor="middle" font-size="9" fill="#FF6363" opacity="0.85" clip-path="url(#ca)">+0.0% (+0)</text>
<rect x="211" y="369" width="12" height="12" fill="#34C759" rx="2"/>
<text x="227" y="379" font-size="12" fill="#111827">macOS + Windows</text>
<rect x="351" y="369" width="12" height="12" fill="#4F8EF7" rx="2"/>
<text x="367" y="379" font-size="12" fill="#111827">macOS only</text>
<rect x="491" y="369" width="12" height="12" fill="#FF6363" rx="2"/>
<text x="507" y="379" font-size="12" fill="#111827">Windows only</text>
<text x="72" y="394" font-size="8" fill="#e5e7eb">data since Dec 11, 2025</text>
</svg>