<svg xmlns="http://www.w3.org/2000/svg" width="800" height="400" viewBox="0 0 800 400">
<defs>
  <style>text { font-family: -apple-system, BlinkMacSystemFont, 'Segoe UI', Roboto, sans-serif; }</style>
  <linearGradient id="g2" x1="0" y1="0" x2="0" y2="1">
  <stop offset="0%" stop-color="#4F8EF7" stop-opacity="0.25"/>
  <stop offset="100%" stop-color="#4F8EF7" stop-opacity="0"/>
</linearGradient>
<linearGradient id="g3" x1="0" y1="0" x2="0" y2="1">
  <stop offset="0%" stop-color="#BF5AF2" stop-opacity="0.25"/>
  <stop offset="100%" stop-color="#BF5AF2" stop-opacity="0"/>
</linearGradient>
<linearGradient id="g4" x1="0" y1="0" x2="0" y2="1">
  <stop offset="0%" stop-color="#34C759" stop-opacity="0.25"/>
  <stop offset="100%" stop-color="#34C759" stop-opacity="0"/>
</linearGradient>
  <clipPath id="ca"><rect x="72" y="45" width="698" height="295"/></clipPath>
</defs>
<rect width="800" height="400" fill="#ffffff" rx="12"/>
<text x="400" y="26" text-anchor="middle" font-size="15" font-weight="600" fill="#111827">Community Growth Over Time</text>
<line x1="72" y1="340.0" x2="770" y2="340.0" stroke="#f3f4f6" stroke-width="1"/>
<text x="66" y="344.0" text-anchor="end" font-size="11" fill="#6b7280">500</text>
<line x1="72" y1="241.7" x2="770" y2="241.7" stroke="#f3f4f6" stroke-width="1"/>
<text x="66" y="245.7" text-anchor="end" font-size="11" fill="#6b7280">1.0k</text>
<line x1="72" y1="143.3" x2="770" y2="143.3" stroke="#f3f4f6" stroke-width="1"/>
<text x="66" y="147.3" text-anchor="end" font-size="11" fill="#6b7280">1.5k</text>
<line x1="72" y1="45.0" x2="770" y2="45.0" stroke="#f3f4f6" stroke-width="1"/>
<text x="66" y="49.0" text-anchor="end" font-size="11" fill="#6b7280">2.0k</text>
<line x1="138.0" y1="45" x2="138.0" y2="340" stroke="#e5e7eb" stroke-width="1" stroke-dasharray="3,3" clip-path="url(#ca)"/>
<line x1="280.9" y1="45" x2="280.9" y2="340" stroke="#e5e7eb" stroke-width="1" stroke-dasharray="3,3" clip-path="url(#ca)"/>
<line x1="429.2" y1="45" x2="429.2" y2="340" stroke="#e5e7eb" stroke-width="1" stroke-dasharray="3,3" clip-path="url(#ca)"/>
<line x1="577.6" y1="45" x2="577.6" y2="340" stroke="#e5e7eb" stroke-width="1" stroke-dasharray="3,3" clip-path="url(#ca)"/>
<line x1="726.0" y1="45" x2="726.0" y2="340" stroke="#e5e7eb" stroke-width="1" stroke-dasharray="3,3" clip-path="url(#ca)"/>
<text x="72.0" y="358.0" text-anchor="middle" font-size="11" fill="#6b7280">Dec 11</text>
<text x="209.4" y="358.0" text-anchor="middle" font-size="11" fill="#6b7280">Jan 18</text>
<text x="352.3" y="358.0" text-anchor="middle" font-size="11" fill="#6b7280">Feb 14</text>
<text x="489.7" y="358.0" text-anchor="middle" font-size="11" fill="#6b7280">Mar 13</text>
<text x="632.6" y="358.0" text-anchor="middle" font-size="11" fill="#6b7280">Apr 12</text>
<text x="770.0" y="358.0" text-anchor="middle" font-size="11" fill="#6b7280">May 13</text>
<line x1="72" y1="45" x2="72" y2="340" stroke="#e5e7eb" stroke-width="1"/>
<line x1="72" y1="340" x2="770" y2="340" stroke="#e5e7eb" stroke-width="1"/>
<text x="-192.5" y="18" text-anchor="middle" font-size="12" fill="#6b7280" transform="rotate(-90)">People</text>
<path d="M 72.0,340 L 72.0,120.1 L 77.5,120.1 L 83.0,120.1 L 88.5,119.5 L 94.0,119.5 L 99.5,119.1 L 105.0,118.9 L 110.5,119.1 L 116.0,118.6 L 121.5,118.6 L 127.0,118.6 L 132.5,118.6 L 138.0,118.6 L 143.4,118.6 L 148.9,118.6 L 154.4,118.6 L 159.9,118.4 L 165.4,117.8 L 170.9,116.6 L 176.4,116.0 L 181.9,115.8 L 187.4,115.8 L 192.9,115.2 L 198.4,113.8 L 203.9,113.0 L 209.4,113.0 L 214.9,112.1 L 220.4,111.7 L 225.9,110.9 L 231.4,110.3 L 236.9,109.7 L 242.4,109.1 L 247.9,109.1 L 253.4,107.7 L 258.9,106.9 L 264.4,106.9 L 269.9,106.2 L 275.4,105.8 L 280.9,105.6 L 286.3,105.4 L 291.8,105.4 L 297.3,104.8 L 302.8,102.4 L 308.3,101.0 L 313.8,100.3 L 319.3,100.1 L 324.8,99.7 L 330.3,98.9 L 335.8,98.5 L 341.3,98.1 L 346.8,97.7 L 352.3,97.3 L 357.8,96.9 L 363.3,96.9 L 368.8,95.0 L 374.3,95.0 L 379.8,94.8 L 385.3,94.6 L 390.8,94.2 L 396.3,94.2 L 401.8,93.2 L 407.3,92.0 L 412.8,91.6 L 418.3,92.0 L 423.7,91.8 L 429.2,91.6 L 434.7,91.6 L 440.2,91.2 L 445.7,90.4 L 451.2,90.0 L 456.7,89.6 L 462.2,89.4 L 467.7,89.4 L 473.2,88.7 L 478.7,88.3 L 484.2,88.3 L 489.7,86.7 L 495.2,86.7 L 500.7,86.7 L 506.2,86.7 L 511.7,86.5 L 517.2,85.9 L 522.7,85.1 L 528.2,84.7 L 533.7,84.7 L 539.2,84.3 L 544.7,82.8 L 550.2,81.8 L 555.7,81.6 L 561.1,81.4 L 566.6,80.8 L 572.1,79.6 L 577.6,79.2 L 583.1,78.8 L 588.6,77.6 L 594.1,77.4 L 599.6,77.4 L 605.1,77.4 L 610.6,77.3 L 616.1,76.1 L 621.6,75.9 L 627.1,75.7 L 632.6,75.7 L 638.1,75.3 L 643.6,73.7 L 649.1,73.5 L 654.6,73.3 L 660.1,73.3 L 665.6,72.5 L 671.1,72.3 L 676.6,72.1 L 682.1,71.6 L 687.6,70.8 L 693.1,70.8 L 698.6,70.8 L 704.0,70.8 L 709.5,70.4 L 715.0,69.8 L 720.5,69.6 L 726.0,69.0 L 731.5,68.8 L 737.0,68.6 L 742.5,67.8 L 748.0,67.2 L 753.5,67.0 L 759.0,67.0 L 764.5,65.3 L 770.0,64.7 L 770.0,340 Z" fill="url(#g2)" clip-path="url(#ca)"/>
<path d="M 72.0,120.1 L 77.5,120.1 L 83.0,120.1 L 88.5,119.5 L 94.0,119.5 L 99.5,119.1 L 105.0,118.9 L 110.5,119.1 L 116.0,118.6 L 121.5,118.6 L 127.0,118.6 L 132.5,118.6 L 138.0,118.6 L 143.4,118.6 L 148.9,118.6 L 154.4,118.6 L 159.9,118.4 L 165.4,117.8 L 170.9,116.6 L 176.4,116.0 L 181.9,115.8 L 187.4,115.8 L 192.9,115.2 L 198.4,113.8 L 203.9,113.0 L 209.4,113.0 L 214.9,112.1 L 220.4,111.7 L 225.9,110.9 L 231.4,110.3 L 236.9,109.7 L 242.4,109.1 L 247.9,109.1 L 253.4,107.7 L 258.9,106.9 L 264.4,106.9 L 269.9,106.2 L 275.4,105.8 L 280.9,105.6 L 286.3,105.4 L 291.8,105.4 L 297.3,104.8 L 302.8,102.4 L 308.3,101.0 L 313.8,100.3 L 319.3,100.1 L 324.8,99.7 L 330.3,98.9 L 335.8,98.5 L 341.3,98.1 L 346.8,97.7 L 352.3,97.3 L 357.8,96.9 L 363.3,96.9 L 368.8,95.0 L 374.3,95.0 L 379.8,94.8 L 385.3,94.6 L 390.8,94.2 L 396.3,94.2 L 401.8,93.2 L 407.3,92.0 L 412.8,91.6 L 418.3,92.0 L 423.7,91.8 L 429.2,91.6 L 434.7,91.6 L 440.2,91.2 L 445.7,90.4 L 451.2,90.0 L 456.7,89.6 L 462.2,89.4 L 467.7,89.4 L 473.2,88.7 L 478.7,88.3 L 484.2,88.3 L 489.7,86.7 L 495.2,86.7 L 500.7,86.7 L 506.2,86.7 L 511.7,86.5 L 517.2,85.9 L 522.7,85.1 L 528.2,84.7 L 533.7,84.7 L 539.2,84.3 L 544.7,82.8 L 550.2,81.8 L 555.7,81.6 L 561.1,81.4 L 566.6,80.8 L 572.1,79.6 L 577.6,79.2 L 583.1,78.8 L 588.6,77.6 L 594.1,77.4 L 599.6,77.4 L 605.1,77.4 L 610.6,77.3 L 616.1,76.1 L 621.6,75.9 L 627.1,75.7 L 632.6,75.7 L 638.1,75.3 L 643.6,73.7 L 649.1,73.5 L 654.6,73.3 L 660.1,73.3 L 665.6,72.5 L 671.1,72.3 L 676.6,72.1 L 682.1,71.6 L 687.6,70.8 L 693.1,70.8 L 698.6,70.8 L 704.0,70.8 L 709.5,70.4 L 715.0,69.8 L 720.5,69.6 L 726.0,69.0 L 731.5,68.8 L 737.0,68.6 L 742.5,67.8 L 748.0,67.2 L 753.5,67.0 L 759.0,67.0 L 764.5,65.3 L 770.0,64.7" fill="none" stroke="#4F8EF7" stroke-width="2.5" stroke-linejoin="round" clip-path="url(#ca)"/>
<path d="M 72.0,340 L 72.0,244.2 L 77.5,243.6 L 83.0,243.6 L 88.5,243.6 L 94.0,243.4 L 99.5,243.0 L 105.0,242.8 L 110.5,242.6 L 116.0,242.6 L 121.5,242.5 L 127.0,242.3 L 132.5,242.3 L 138.0,242.3 L 143.4,242.3 L 148.9,242.3 L 154.4,242.3 L 159.9,241.9 L 165.4,241.9 L 170.9,241.9 L 176.4,241.1 L 181.9,240.9 L 187.4,240.5 L 192.9,239.7 L 198.4,239.5 L 203.9,239.5 L 209.4,239.5 L 214.9,238.9 L 220.4,238.5 L 225.9,238.5 L 231.4,238.1 L 236.9,237.9 L 242.4,237.5 L 247.9,237.5 L 253.4,237.3 L 258.9,236.6 L 264.4,236.0 L 269.9,235.6 L 275.4,235.4 L 280.9,235.4 L 286.3,235.2 L 291.8,234.8 L 297.3,234.8 L 302.8,234.6 L 308.3,234.0 L 313.8,233.6 L 319.3,233.6 L 324.8,233.6 L 330.3,233.6 L 335.8,233.4 L 341.3,232.8 L 346.8,232.4 L 352.3,232.2 L 357.8,232.0 L 363.3,231.8 L 368.8,231.6 L 374.3,231.4 L 379.8,231.2 L 385.3,230.7 L 390.8,230.5 L 396.3,230.3 L 401.8,229.5 L 407.3,228.7 L 412.8,228.7 L 418.3,228.5 L 423.7,228.3 L 429.2,228.3 L 434.7,228.3 L 440.2,227.9 L 445.7,227.9 L 451.2,226.7 L 456.7,226.5 L 462.2,226.3 L 467.7,226.3 L 473.2,225.9 L 478.7,225.7 L 484.2,225.7 L 489.7,225.5 L 495.2,225.5 L 500.7,225.5 L 506.2,225.1 L 511.7,224.9 L 517.2,224.0 L 522.7,224.2 L 528.2,224.0 L 533.7,223.8 L 539.2,223.8 L 544.7,223.6 L 550.2,223.0 L 555.7,223.0 L 561.1,223.0 L 566.6,223.0 L 572.1,222.6 L 577.6,222.6 L 583.1,222.2 L 588.6,221.8 L 594.1,221.0 L 599.6,221.0 L 605.1,220.6 L 610.6,220.4 L 616.1,220.2 L 621.6,220.0 L 627.1,219.6 L 632.6,219.6 L 638.1,219.1 L 643.6,219.1 L 649.1,218.9 L 654.6,218.5 L 660.1,218.3 L 665.6,218.3 L 671.1,218.3 L 676.6,218.3 L 682.1,218.3 L 687.6,217.7 L 693.1,217.7 L 698.6,217.3 L 704.0,216.9 L 709.5,216.3 L 715.0,216.1 L 720.5,216.1 L 726.0,214.9 L 731.5,214.7 L 737.0,214.7 L 742.5,213.9 L 748.0,213.9 L 753.5,213.5 L 759.0,213.5 L 764.5,213.3 L 770.0,213.3 L 770.0,340 Z" fill="url(#g3)" clip-path="url(#ca)"/>
<path d="M 72.0,244.2 L 77.5,243.6 L 83.0,243.6 L 88.5,243.6 L 94.0,243.4 L 99.5,243.0 L 105.0,242.8 L 110.5,242.6 L 116.0,242.6 L 121.5,242.5 L 127.0,242.3 L 132.5,242.3 L 138.0,242.3 L 143.4,242.3 L 148.9,242.3 L 154.4,242.3 L 159.9,241.9 L 165.4,241.9 L 170.9,241.9 L 176.4,241.1 L 181.9,240.9 L 187.4,240.5 L 192.9,239.7 L 198.4,239.5 L 203.9,239.5 L 209.4,239.5 L 214.9,238.9 L 220.4,238.5 L 225.9,238.5 L 231.4,238.1 L 236.9,237.9 L 242.4,237.5 L 247.9,237.5 L 253.4,237.3 L 258.9,236.6 L 264.4,236.0 L 269.9,235.6 L 275.4,235.4 L 280.9,235.4 L 286.3,235.2 L 291.8,234.8 L 297.3,234.8 L 302.8,234.6 L 308.3,234.0 L 313.8,233.6 L 319.3,233.6 L 324.8,233.6 L 330.3,233.6 L 335.8,233.4 L 341.3,232.8 L 346.8,232.4 L 352.3,232.2 L 357.8,232.0 L 363.3,231.8 L 368.8,231.6 L 374.3,231.4 L 379.8,231.2 L 385.3,230.7 L 390.8,230.5 L 396.3,230.3 L 401.8,229.5 L 407.3,228.7 L 412.8,228.7 L 418.3,228.5 L 423.7,228.3 L 429.2,228.3 L 434.7,228.3 L 440.2,227.9 L 445.7,227.9 L 451.2,226.7 L 456.7,226.5 L 462.2,226.3 L 467.7,226.3 L 473.2,225.9 L 478.7,225.7 L 484.2,225.7 L 489.7,225.5 L 495.2,225.5 L 500.7,225.5 L 506.2,225.1 L 511.7,224.9 L 517.2,224.0 L 522.7,224.2 L 528.2,224.0 L 533.7,223.8 L 539.2,223.8 L 544.7,223.6 L 550.2,223.0 L 555.7,223.0 L 561.1,223.0 L 566.6,223.0 L 572.1,222.6 L 577.6,222.6 L 583.1,222.2 L 588.6,221.8 L 594.1,221.0 L 599.6,221.0 L 605.1,220.6 L 610.6,220.4 L 616.1,220.2 L 621.6,220.0 L 627.1,219.6 L 632.6,219.6 L 638.1,219.1 L 643.6,219.1 L 649.1,218.9 L 654.6,218.5 L 660.1,218.3 L 665.6,218.3 L 671.1,218.3 L 676.6,218.3 L 682.1,218.3 L 687.6,217.7 L 693.1,217.7 L 698.6,217.3 L 704.0,216.9 L 709.5,216.3 L 715.0,216.1 L 720.5,216.1 L 726.0,214.9 L 731.5,214.7 L 737.0,214.7 L 742.5,213.9 L 748.0,213.9 L 753.5,213.5 L 759.0,213.5 L 764.5,213.3 L 770.0,213.3" fill="none" stroke="#BF5AF2" stroke-width="2.5" stroke-linejoin="round" clip-path="url(#ca)"/>
<path d="M 72.0,340 L 72.0,291.4 L 77.5,290.8 L 83.0,290.8 L 88.5,290.8 L 94.0,290.6 L 99.5,290.2 L 105.0,290.0 L 110.5,289.7 L 116.0,289.7 L 121.5,289.5 L 127.0,289.3 L 132.5,289.3 L 138.0,289.3 L 143.4,289.3 L 148.9,289.3 L 154.4,289.3 L 159.9,288.9 L 165.4,288.9 L 170.9,289.1 L 176.4,288.5 L 181.9,288.7 L 187.4,288.1 L 192.9,287.5 L 198.4,287.3 L 203.9,287.5 L 209.4,287.5 L 214.9,286.9 L 220.4,286.7 L 225.9,286.7 L 231.4,286.3 L 236.9,286.1 L 242.4,285.7 L 247.9,285.7 L 253.4,285.5 L 258.9,284.9 L 264.4,284.3 L 269.9,283.9 L 275.4,283.9 L 280.9,283.9 L 286.3,283.8 L 291.8,283.4 L 297.3,283.4 L 302.8,283.2 L 308.3,282.6 L 313.8,282.4 L 319.3,282.4 L 324.8,282.4 L 330.3,282.4 L 335.8,282.2 L 341.3,281.6 L 346.8,281.4 L 352.3,281.2 L 357.8,281.0 L 363.3,281.0 L 368.8,280.8 L 374.3,280.8 L 379.8,280.8 L 385.3,280.2 L 390.8,280.2 L 396.3,280.2 L 401.8,279.8 L 407.3,279.2 L 412.8,279.2 L 418.3,279.0 L 423.7,278.8 L 429.2,278.8 L 434.7,278.8 L 440.2,278.4 L 445.7,278.4 L 451.2,277.3 L 456.7,277.1 L 462.2,276.9 L 467.7,276.9 L 473.2,276.7 L 478.7,276.7 L 484.2,276.7 L 489.7,276.7 L 495.2,276.7 L 500.7,276.7 L 506.2,276.3 L 511.7,276.1 L 517.2,275.1 L 522.7,275.3 L 528.2,275.3 L 533.7,275.1 L 539.2,275.1 L 544.7,275.1 L 550.2,274.7 L 555.7,274.7 L 561.1,274.7 L 566.6,274.7 L 572.1,274.7 L 577.6,274.7 L 583.1,274.5 L 588.6,274.5 L 594.1,273.7 L 599.6,273.7 L 605.1,273.5 L 610.6,273.3 L 616.1,273.1 L 621.6,272.9 L 627.1,272.5 L 632.6,272.5 L 638.1,272.0 L 643.6,272.0 L 649.1,271.8 L 654.6,271.6 L 660.1,271.6 L 665.6,271.6 L 671.1,271.6 L 676.6,271.6 L 682.1,271.6 L 687.6,271.0 L 693.1,271.0 L 698.6,270.6 L 704.0,270.2 L 709.5,269.6 L 715.0,269.4 L 720.5,269.4 L 726.0,268.4 L 731.5,268.2 L 737.0,268.2 L 742.5,267.6 L 748.0,267.6 L 753.5,267.4 L 759.0,267.4 L 764.5,267.6 L 770.0,267.8 L 770.0,340 Z" fill="url(#g4)" clip-path="url(#ca)"/>
<path d="M 72.0,291.4 L 77.5,290.8 L 83.0,290.8 L 88.5,290.8 L 94.0,290.6 L 99.5,290.2 L 105.0,290.0 L 110.5,289.7 L 116.0,289.7 L 121.5,289.5 L 127.0,289.3 L 132.5,289.3 L 138.0,289.3 L 143.4,289.3 L 148.9,289.3 L 154.4,289.3 L 159.9,288.9 L 165.4,288.9 L 170.9,289.1 L 176.4,288.5 L 181.9,288.7 L 187.4,288.1 L 192.9,287.5 L 198.4,287.3 L 203.9,287.5 L 209.4,287.5 L 214.9,286.9 L 220.4,286.7 L 225.9,286.7 L 231.4,286.3 L 236.9,286.1 L 242.4,285.7 L 247.9,285.7 L 253.4,285.5 L 258.9,284.9 L 264.4,284.3 L 269.9,283.9 L 275.4,283.9 L 280.9,283.9 L 286.3,283.8 L 291.8,283.4 L 297.3,283.4 L 302.8,283.2 L 308.3,282.6 L 313.8,282.4 L 319.3,282.4 L 324.8,282.4 L 330.3,282.4 L 335.8,282.2 L 341.3,281.6 L 346.8,281.4 L 352.3,281.2 L 357.8,281.0 L 363.3,281.0 L 368.8,280.8 L 374.3,280.8 L 379.8,280.8 L 385.3,280.2 L 390.8,280.2 L 396.3,280.2 L 401.8,279.8 L 407.3,279.2 L 412.8,279.2 L 418.3,279.0 L 423.7,278.8 L 429.2,278.8 L 434.7,278.8 L 440.2,278.4 L 445.7,278.4 L 451.2,277.3 L 456.7,277.1 L 462.2,276.9 L 467.7,276.9 L 473.2,276.7 L 478.7,276.7 L 484.2,276.7 L 489.7,276.7 L 495.2,276.7 L 500.7,276.7 L 506.2,276.3 L 511.7,276.1 L 517.2,275.1 L 522.7,275.3 L 528.2,275.3 L 533.7,275.1 L 539.2,275.1 L 544.7,275.1 L 550.2,274.7 L 555.7,274.7 L 561.1,274.7 L 566.6,274.7 L 572.1,274.7 L 577.6,274.7 L 583.1,274.5 L 588.6,274.5 L 594.1,273.7 L 599.6,273.7 L 605.1,273.5 L 610.6,273.3 L 616.1,273.1 L 621.6,272.9 L 627.1,272.5 L 632.6,272.5 L 638.1,272.0 L 643.6,272.0 L 649.1,271.8 L 654.6,271.6 L 660.1,271.6 L 665.6,271.6 L 671.1,271.6 L 676.6,271.6 L 682.1,271.6 L 687.6,271.0 L 693.1,271.0 L 698.6,270.6 L 704.0,270.2 L 709.5,269.6 L 715.0,269.4 L 720.5,269.4 L 726.0,268.4 L 731.5,268.2 L 737.0,268.2 L 742.5,267.6 L 748.0,267.6 L 753.5,267.4 L 759.0,267.4 L 764.5,267.6 L 770.0,267.8" fill="none" stroke="#34C759" stroke-width="2.5" stroke-linejoin="round" clip-path="url(#ca)"/>
<text x="102.2" y="55.0" text-anchor="middle" font-size="9" fill="#4F8EF7" opacity="0.85" clip-path="url(#ca)">+0.5% (+8)</text>
<text x="102.2" y="66.0" text-anchor="middle" font-size="9" fill="#BF5AF2" opacity="0.85" clip-path="url(#ca)">+1.0% (+10)</text>
<text x="102.2" y="77.0" text-anchor="middle" font-size="9" fill="#34C759" opacity="0.85" clip-path="url(#ca)">+1.5% (+11)</text>
<text x="206.7" y="55.0" text-anchor="middle" font-size="9" fill="#4F8EF7" opacity="0.85" clip-path="url(#ca)">+4.0% (+65)</text>
<text x="206.7" y="66.0" text-anchor="middle" font-size="9" fill="#BF5AF2" opacity="0.85" clip-path="url(#ca)">+3.5% (+35)</text>
<text x="206.7" y="77.0" text-anchor="middle" font-size="9" fill="#34C759" opacity="0.85" clip-path="url(#ca)">+3.6% (+27)</text>
<text x="352.3" y="55.0" text-anchor="middle" font-size="9" fill="#4F8EF7" opacity="0.85" clip-path="url(#ca)">+4.1% (+70)</text>
<text x="352.3" y="66.0" text-anchor="middle" font-size="9" fill="#BF5AF2" opacity="0.85" clip-path="url(#ca)">+3.5% (+36)</text>
<text x="352.3" y="77.0" text-anchor="middle" font-size="9" fill="#34C759" opacity="0.85" clip-path="url(#ca)">+3.3% (+26)</text>
<text x="500.7" y="55.0" text-anchor="middle" font-size="9" fill="#4F8EF7" opacity="0.85" clip-path="url(#ca)">+3.5% (+61)</text>
<text x="500.7" y="66.0" text-anchor="middle" font-size="9" fill="#BF5AF2" opacity="0.85" clip-path="url(#ca)">+2.7% (+29)</text>
<text x="500.7" y="77.0" text-anchor="middle" font-size="9" fill="#34C759" opacity="0.85" clip-path="url(#ca)">+2.6% (+21)</text>
<text x="649.1" y="55.0" text-anchor="middle" font-size="9" fill="#4F8EF7" opacity="0.85" clip-path="url(#ca)">+2.7% (+49)</text>
<text x="649.1" y="66.0" text-anchor="middle" font-size="9" fill="#BF5AF2" opacity="0.85" clip-path="url(#ca)">+3.0% (+33)</text>
<text x="649.1" y="77.0" text-anchor="middle" font-size="9" fill="#34C759" opacity="0.85" clip-path="url(#ca)">+3.2% (+27)</text>
<text x="748.0" y="55.0" text-anchor="middle" font-size="9" fill="#4F8EF7" opacity="0.85" clip-path="url(#ca)">+1.2% (+22)</text>
<text x="748.0" y="66.0" text-anchor="middle" font-size="9" fill="#BF5AF2" opacity="0.85" clip-path="url(#ca)">+0.7% (+8)</text>
<text x="748.0" y="77.0" text-anchor="middle" font-size="9" fill="#34C759" opacity="0.85" clip-path="url(#ca)">+0.3% (+3)</text>
<rect x="211" y="369" width="12" height="12" fill="#4F8EF7" rx="2"/>
<text x="227" y="379" font-size="12" fill="#111827">Authors</text>
<rect x="351" y="369" width="12" height="12" fill="#BF5AF2" rx="2"/>
<text x="367" y="379" font-size="12" fill="#111827">Contributors</text>
<rect x="491" y="369" width="12" height="12" fill="#34C759" rx="2"/>
<text x="507" y="379" font-size="12" fill="#111827">Non-author contributors</text>
<text x="72" y="394" font-size="8" fill="#e5e7eb">data since Dec 11, 2025</text>
</svg>