<svg xmlns="http://www.w3.org/2000/svg" width="800" height="400" viewBox="0 0 800 400">
<defs>
  <style>text { font-family: -apple-system, BlinkMacSystemFont, 'Segoe UI', Roboto, sans-serif; }</style>
  <linearGradient id="g2" x1="0" y1="0" x2="0" y2="1">
  <stop offset="0%" stop-color="#4F8EF7" stop-opacity="0.25"/>
  <stop offset="100%" stop-color="#4F8EF7" stop-opacity="0"/>
</linearGradient>
<linearGradient id="g3" x1="0" y1="0" x2="0" y2="1">
  <stop offset="0%" stop-color="#BF5AF2" stop-opacity="0.25"/>
  <stop offset="100%" stop-color="#BF5AF2" stop-opacity="0"/>
</linearGradient>
<linearGradient id="g4" x1="0" y1="0" x2="0" y2="1">
  <stop offset="0%" stop-color="#34C759" stop-opacity="0.25"/>
  <stop offset="100%" stop-color="#34C759" stop-opacity="0"/>
</linearGradient>
  <clipPath id="ca"><rect x="72" y="45" width="698" height="295"/></clipPath>
</defs>
<rect width="800" height="400" fill="#ffffff" rx="12"/>
<text x="400" y="26" text-anchor="middle" font-size="15" font-weight="600" fill="#111827">Community Growth Over Time</text>
<line x1="72" y1="340.0" x2="770" y2="340.0" stroke="#f3f4f6" stroke-width="1"/>
<text x="66" y="344.0" text-anchor="end" font-size="11" fill="#6b7280">500</text>
<line x1="72" y1="241.7" x2="770" y2="241.7" stroke="#f3f4f6" stroke-width="1"/>
<text x="66" y="245.7" text-anchor="end" font-size="11" fill="#6b7280">1.0k</text>
<line x1="72" y1="143.3" x2="770" y2="143.3" stroke="#f3f4f6" stroke-width="1"/>
<text x="66" y="147.3" text-anchor="end" font-size="11" fill="#6b7280">1.5k</text>
<line x1="72" y1="45.0" x2="770" y2="45.0" stroke="#f3f4f6" stroke-width="1"/>
<text x="66" y="49.0" text-anchor="end" font-size="11" fill="#6b7280">2.0k</text>
<line x1="151.0" y1="45" x2="151.0" y2="340" stroke="#e5e7eb" stroke-width="1" stroke-dasharray="3,3" clip-path="url(#ca)"/>
<line x1="322.2" y1="45" x2="322.2" y2="340" stroke="#e5e7eb" stroke-width="1" stroke-dasharray="3,3" clip-path="url(#ca)"/>
<line x1="500.0" y1="45" x2="500.0" y2="340" stroke="#e5e7eb" stroke-width="1" stroke-dasharray="3,3" clip-path="url(#ca)"/>
<line x1="677.8" y1="45" x2="677.8" y2="340" stroke="#e5e7eb" stroke-width="1" stroke-dasharray="3,3" clip-path="url(#ca)"/>
<text x="72.0" y="358.0" text-anchor="middle" font-size="11" fill="#6b7280">Dec 11</text>
<text x="210.3" y="358.0" text-anchor="middle" font-size="11" fill="#6b7280">Jan 14</text>
<text x="348.6" y="358.0" text-anchor="middle" font-size="11" fill="#6b7280">Feb 5</text>
<text x="493.4" y="358.0" text-anchor="middle" font-size="11" fill="#6b7280">Feb 28</text>
<text x="631.7" y="358.0" text-anchor="middle" font-size="11" fill="#6b7280">Mar 23</text>
<text x="770.0" y="358.0" text-anchor="middle" font-size="11" fill="#6b7280">Apr 16</text>
<line x1="72" y1="45" x2="72" y2="340" stroke="#e5e7eb" stroke-width="1"/>
<line x1="72" y1="340" x2="770" y2="340" stroke="#e5e7eb" stroke-width="1"/>
<text x="-192.5" y="18" text-anchor="middle" font-size="12" fill="#6b7280" transform="rotate(-90)">People</text>
<path d="M 72.0,340 L 72.0,120.1 L 78.6,120.1 L 85.2,120.1 L 91.8,119.5 L 98.3,119.5 L 104.9,119.1 L 111.5,118.9 L 118.1,119.1 L 124.7,118.6 L 131.3,118.6 L 137.8,118.6 L 144.4,118.6 L 151.0,118.6 L 157.6,118.6 L 164.2,118.6 L 170.8,118.6 L 177.4,118.4 L 183.9,117.8 L 190.5,116.6 L 197.1,116.0 L 203.7,115.8 L 210.3,115.8 L 216.9,115.2 L 223.5,113.8 L 230.0,113.0 L 236.6,113.0 L 243.2,112.1 L 249.8,111.7 L 256.4,110.9 L 263.0,110.3 L 269.5,109.7 L 276.1,109.1 L 282.7,109.1 L 289.3,107.7 L 295.9,106.9 L 302.5,106.9 L 309.1,106.2 L 315.6,105.8 L 322.2,105.6 L 328.8,105.4 L 335.4,105.4 L 342.0,104.8 L 348.6,102.4 L 355.2,101.0 L 361.7,100.3 L 368.3,100.1 L 374.9,99.7 L 381.5,98.9 L 388.1,98.5 L 394.7,98.1 L 401.2,97.7 L 407.8,97.3 L 414.4,96.9 L 421.0,96.9 L 427.6,95.0 L 434.2,95.0 L 440.8,94.8 L 447.3,94.6 L 453.9,94.2 L 460.5,94.2 L 467.1,93.2 L 473.7,92.0 L 480.3,91.6 L 486.8,92.0 L 493.4,91.8 L 500.0,91.6 L 506.6,91.6 L 513.2,91.2 L 519.8,90.4 L 526.4,90.0 L 532.9,89.6 L 539.5,89.4 L 546.1,89.4 L 552.7,88.7 L 559.3,88.3 L 565.9,88.3 L 572.5,86.7 L 579.0,86.7 L 585.6,86.7 L 592.2,86.7 L 598.8,86.5 L 605.4,85.9 L 612.0,85.1 L 618.5,84.7 L 625.1,84.7 L 631.7,84.3 L 638.3,82.8 L 644.9,81.8 L 651.5,81.6 L 658.1,81.4 L 664.6,80.8 L 671.2,79.6 L 677.8,79.2 L 684.4,78.8 L 691.0,77.6 L 697.6,77.4 L 704.2,77.4 L 710.7,77.4 L 717.3,77.3 L 723.9,76.1 L 730.5,75.9 L 737.1,75.7 L 743.7,75.7 L 750.2,75.3 L 756.8,73.7 L 763.4,73.5 L 770.0,73.3 L 770.0,340 Z" fill="url(#g2)" clip-path="url(#ca)"/>
<path d="M 72.0,120.1 L 78.6,120.1 L 85.2,120.1 L 91.8,119.5 L 98.3,119.5 L 104.9,119.1 L 111.5,118.9 L 118.1,119.1 L 124.7,118.6 L 131.3,118.6 L 137.8,118.6 L 144.4,118.6 L 151.0,118.6 L 157.6,118.6 L 164.2,118.6 L 170.8,118.6 L 177.4,118.4 L 183.9,117.8 L 190.5,116.6 L 197.1,116.0 L 203.7,115.8 L 210.3,115.8 L 216.9,115.2 L 223.5,113.8 L 230.0,113.0 L 236.6,113.0 L 243.2,112.1 L 249.8,111.7 L 256.4,110.9 L 263.0,110.3 L 269.5,109.7 L 276.1,109.1 L 282.7,109.1 L 289.3,107.7 L 295.9,106.9 L 302.5,106.9 L 309.1,106.2 L 315.6,105.8 L 322.2,105.6 L 328.8,105.4 L 335.4,105.4 L 342.0,104.8 L 348.6,102.4 L 355.2,101.0 L 361.7,100.3 L 368.3,100.1 L 374.9,99.7 L 381.5,98.9 L 388.1,98.5 L 394.7,98.1 L 401.2,97.7 L 407.8,97.3 L 414.4,96.9 L 421.0,96.9 L 427.6,95.0 L 434.2,95.0 L 440.8,94.8 L 447.3,94.6 L 453.9,94.2 L 460.5,94.2 L 467.1,93.2 L 473.7,92.0 L 480.3,91.6 L 486.8,92.0 L 493.4,91.8 L 500.0,91.6 L 506.6,91.6 L 513.2,91.2 L 519.8,90.4 L 526.4,90.0 L 532.9,89.6 L 539.5,89.4 L 546.1,89.4 L 552.7,88.7 L 559.3,88.3 L 565.9,88.3 L 572.5,86.7 L 579.0,86.7 L 585.6,86.7 L 592.2,86.7 L 598.8,86.5 L 605.4,85.9 L 612.0,85.1 L 618.5,84.7 L 625.1,84.7 L 631.7,84.3 L 638.3,82.8 L 644.9,81.8 L 651.5,81.6 L 658.1,81.4 L 664.6,80.8 L 671.2,79.6 L 677.8,79.2 L 684.4,78.8 L 691.0,77.6 L 697.6,77.4 L 704.2,77.4 L 710.7,77.4 L 717.3,77.3 L 723.9,76.1 L 730.5,75.9 L 737.1,75.7 L 743.7,75.7 L 750.2,75.3 L 756.8,73.7 L 763.4,73.5 L 770.0,73.3" fill="none" stroke="#4F8EF7" stroke-width="2.5" stroke-linejoin="round" clip-path="url(#ca)"/>
<path d="M 72.0,340 L 72.0,244.2 L 78.6,243.6 L 85.2,243.6 L 91.8,243.6 L 98.3,243.4 L 104.9,243.0 L 111.5,242.8 L 118.1,242.6 L 124.7,242.6 L 131.3,242.5 L 137.8,242.3 L 144.4,242.3 L 151.0,242.3 L 157.6,242.3 L 164.2,242.3 L 170.8,242.3 L 177.4,241.9 L 183.9,241.9 L 190.5,241.9 L 197.1,241.1 L 203.7,240.9 L 210.3,240.5 L 216.9,239.7 L 223.5,239.5 L 230.0,239.5 L 236.6,239.5 L 243.2,238.9 L 249.8,238.5 L 256.4,238.5 L 263.0,238.1 L 269.5,237.9 L 276.1,237.5 L 282.7,237.5 L 289.3,237.3 L 295.9,236.6 L 302.5,236.0 L 309.1,235.6 L 315.6,235.4 L 322.2,235.4 L 328.8,235.2 L 335.4,234.8 L 342.0,234.8 L 348.6,234.6 L 355.2,234.0 L 361.7,233.6 L 368.3,233.6 L 374.9,233.6 L 381.5,233.6 L 388.1,233.4 L 394.7,232.8 L 401.2,232.4 L 407.8,232.2 L 414.4,232.0 L 421.0,231.8 L 427.6,231.6 L 434.2,231.4 L 440.8,231.2 L 447.3,230.7 L 453.9,230.5 L 460.5,230.3 L 467.1,229.5 L 473.7,228.7 L 480.3,228.7 L 486.8,228.5 L 493.4,228.3 L 500.0,228.3 L 506.6,228.3 L 513.2,227.9 L 519.8,227.9 L 526.4,226.7 L 532.9,226.5 L 539.5,226.3 L 546.1,226.3 L 552.7,225.9 L 559.3,225.7 L 565.9,225.7 L 572.5,225.5 L 579.0,225.5 L 585.6,225.5 L 592.2,225.1 L 598.8,224.9 L 605.4,224.0 L 612.0,224.2 L 618.5,224.0 L 625.1,223.8 L 631.7,223.8 L 638.3,223.6 L 644.9,223.0 L 651.5,223.0 L 658.1,223.0 L 664.6,223.0 L 671.2,222.6 L 677.8,222.6 L 684.4,222.2 L 691.0,221.8 L 697.6,221.0 L 704.2,221.0 L 710.7,220.6 L 717.3,220.4 L 723.9,220.2 L 730.5,220.0 L 737.1,219.6 L 743.7,219.6 L 750.2,219.1 L 756.8,219.1 L 763.4,218.9 L 770.0,218.5 L 770.0,340 Z" fill="url(#g3)" clip-path="url(#ca)"/>
<path d="M 72.0,244.2 L 78.6,243.6 L 85.2,243.6 L 91.8,243.6 L 98.3,243.4 L 104.9,243.0 L 111.5,242.8 L 118.1,242.6 L 124.7,242.6 L 131.3,242.5 L 137.8,242.3 L 144.4,242.3 L 151.0,242.3 L 157.6,242.3 L 164.2,242.3 L 170.8,242.3 L 177.4,241.9 L 183.9,241.9 L 190.5,241.9 L 197.1,241.1 L 203.7,240.9 L 210.3,240.5 L 216.9,239.7 L 223.5,239.5 L 230.0,239.5 L 236.6,239.5 L 243.2,238.9 L 249.8,238.5 L 256.4,238.5 L 263.0,238.1 L 269.5,237.9 L 276.1,237.5 L 282.7,237.5 L 289.3,237.3 L 295.9,236.6 L 302.5,236.0 L 309.1,235.6 L 315.6,235.4 L 322.2,235.4 L 328.8,235.2 L 335.4,234.8 L 342.0,234.8 L 348.6,234.6 L 355.2,234.0 L 361.7,233.6 L 368.3,233.6 L 374.9,233.6 L 381.5,233.6 L 388.1,233.4 L 394.7,232.8 L 401.2,232.4 L 407.8,232.2 L 414.4,232.0 L 421.0,231.8 L 427.6,231.6 L 434.2,231.4 L 440.8,231.2 L 447.3,230.7 L 453.9,230.5 L 460.5,230.3 L 467.1,229.5 L 473.7,228.7 L 480.3,228.7 L 486.8,228.5 L 493.4,228.3 L 500.0,228.3 L 506.6,228.3 L 513.2,227.9 L 519.8,227.9 L 526.4,226.7 L 532.9,226.5 L 539.5,226.3 L 546.1,226.3 L 552.7,225.9 L 559.3,225.7 L 565.9,225.7 L 572.5,225.5 L 579.0,225.5 L 585.6,225.5 L 592.2,225.1 L 598.8,224.9 L 605.4,224.0 L 612.0,224.2 L 618.5,224.0 L 625.1,223.8 L 631.7,223.8 L 638.3,223.6 L 644.9,223.0 L 651.5,223.0 L 658.1,223.0 L 664.6,223.0 L 671.2,222.6 L 677.8,222.6 L 684.4,222.2 L 691.0,221.8 L 697.6,221.0 L 704.2,221.0 L 710.7,220.6 L 717.3,220.4 L 723.9,220.2 L 730.5,220.0 L 737.1,219.6 L 743.7,219.6 L 750.2,219.1 L 756.8,219.1 L 763.4,218.9 L 770.0,218.5" fill="none" stroke="#BF5AF2" stroke-width="2.5" stroke-linejoin="round" clip-path="url(#ca)"/>
<path d="M 72.0,340 L 72.0,291.4 L 78.6,290.8 L 85.2,290.8 L 91.8,290.8 L 98.3,290.6 L 104.9,290.2 L 111.5,290.0 L 118.1,289.7 L 124.7,289.7 L 131.3,289.5 L 137.8,289.3 L 144.4,289.3 L 151.0,289.3 L 157.6,289.3 L 164.2,289.3 L 170.8,289.3 L 177.4,288.9 L 183.9,288.9 L 190.5,289.1 L 197.1,288.5 L 203.7,288.7 L 210.3,288.1 L 216.9,287.5 L 223.5,287.3 L 230.0,287.5 L 236.6,287.5 L 243.2,286.9 L 249.8,286.7 L 256.4,286.7 L 263.0,286.3 L 269.5,286.1 L 276.1,285.7 L 282.7,285.7 L 289.3,285.5 L 295.9,284.9 L 302.5,284.3 L 309.1,283.9 L 315.6,283.9 L 322.2,283.9 L 328.8,283.8 L 335.4,283.4 L 342.0,283.4 L 348.6,283.2 L 355.2,282.6 L 361.7,282.4 L 368.3,282.4 L 374.9,282.4 L 381.5,282.4 L 388.1,282.2 L 394.7,281.6 L 401.2,281.4 L 407.8,281.2 L 414.4,281.0 L 421.0,281.0 L 427.6,280.8 L 434.2,280.8 L 440.8,280.8 L 447.3,280.2 L 453.9,280.2 L 460.5,280.2 L 467.1,279.8 L 473.7,279.2 L 480.3,279.2 L 486.8,279.0 L 493.4,278.8 L 500.0,278.8 L 506.6,278.8 L 513.2,278.4 L 519.8,278.4 L 526.4,277.3 L 532.9,277.1 L 539.5,276.9 L 546.1,276.9 L 552.7,276.7 L 559.3,276.7 L 565.9,276.7 L 572.5,276.7 L 579.0,276.7 L 585.6,276.7 L 592.2,276.3 L 598.8,276.1 L 605.4,275.1 L 612.0,275.3 L 618.5,275.3 L 625.1,275.1 L 631.7,275.1 L 638.3,275.1 L 644.9,274.7 L 651.5,274.7 L 658.1,274.7 L 664.6,274.7 L 671.2,274.7 L 677.8,274.7 L 684.4,274.5 L 691.0,274.5 L 697.6,273.7 L 704.2,273.7 L 710.7,273.5 L 717.3,273.3 L 723.9,273.1 L 730.5,272.9 L 737.1,272.5 L 743.7,272.5 L 750.2,272.0 L 756.8,272.0 L 763.4,271.8 L 770.0,271.6 L 770.0,340 Z" fill="url(#g4)" clip-path="url(#ca)"/>
<path d="M 72.0,291.4 L 78.6,290.8 L 85.2,290.8 L 91.8,290.8 L 98.3,290.6 L 104.9,290.2 L 111.5,290.0 L 118.1,289.7 L 124.7,289.7 L 131.3,289.5 L 137.8,289.3 L 144.4,289.3 L 151.0,289.3 L 157.6,289.3 L 164.2,289.3 L 170.8,289.3 L 177.4,288.9 L 183.9,288.9 L 190.5,289.1 L 197.1,288.5 L 203.7,288.7 L 210.3,288.1 L 216.9,287.5 L 223.5,287.3 L 230.0,287.5 L 236.6,287.5 L 243.2,286.9 L 249.8,286.7 L 256.4,286.7 L 263.0,286.3 L 269.5,286.1 L 276.1,285.7 L 282.7,285.7 L 289.3,285.5 L 295.9,284.9 L 302.5,284.3 L 309.1,283.9 L 315.6,283.9 L 322.2,283.9 L 328.8,283.8 L 335.4,283.4 L 342.0,283.4 L 348.6,283.2 L 355.2,282.6 L 361.7,282.4 L 368.3,282.4 L 374.9,282.4 L 381.5,282.4 L 388.1,282.2 L 394.7,281.6 L 401.2,281.4 L 407.8,281.2 L 414.4,281.0 L 421.0,281.0 L 427.6,280.8 L 434.2,280.8 L 440.8,280.8 L 447.3,280.2 L 453.9,280.2 L 460.5,280.2 L 467.1,279.8 L 473.7,279.2 L 480.3,279.2 L 486.8,279.0 L 493.4,278.8 L 500.0,278.8 L 506.6,278.8 L 513.2,278.4 L 519.8,278.4 L 526.4,277.3 L 532.9,277.1 L 539.5,276.9 L 546.1,276.9 L 552.7,276.7 L 559.3,276.7 L 565.9,276.7 L 572.5,276.7 L 579.0,276.7 L 585.6,276.7 L 592.2,276.3 L 598.8,276.1 L 605.4,275.1 L 612.0,275.3 L 618.5,275.3 L 625.1,275.1 L 631.7,275.1 L 638.3,275.1 L 644.9,274.7 L 651.5,274.7 L 658.1,274.7 L 664.6,274.7 L 671.2,274.7 L 677.8,274.7 L 684.4,274.5 L 691.0,274.5 L 697.6,273.7 L 704.2,273.7 L 710.7,273.5 L 717.3,273.3 L 723.9,273.1 L 730.5,272.9 L 737.1,272.5 L 743.7,272.5 L 750.2,272.0 L 756.8,272.0 L 763.4,271.8 L 770.0,271.6" fill="none" stroke="#34C759" stroke-width="2.5" stroke-linejoin="round" clip-path="url(#ca)"/>
<text x="108.2" y="55.0" text-anchor="middle" font-size="9" fill="#4F8EF7" opacity="0.85" clip-path="url(#ca)">+0.5% (+8)</text>
<text x="108.2" y="66.0" text-anchor="middle" font-size="9" fill="#BF5AF2" opacity="0.85" clip-path="url(#ca)">+1.0% (+10)</text>
<text x="108.2" y="77.0" text-anchor="middle" font-size="9" fill="#34C759" opacity="0.85" clip-path="url(#ca)">+1.5% (+11)</text>
<text x="233.3" y="55.0" text-anchor="middle" font-size="9" fill="#4F8EF7" opacity="0.85" clip-path="url(#ca)">+4.0% (+65)</text>
<text x="233.3" y="66.0" text-anchor="middle" font-size="9" fill="#BF5AF2" opacity="0.85" clip-path="url(#ca)">+3.5% (+35)</text>
<text x="233.3" y="77.0" text-anchor="middle" font-size="9" fill="#34C759" opacity="0.85" clip-path="url(#ca)">+3.6% (+27)</text>
<text x="407.8" y="55.0" text-anchor="middle" font-size="9" fill="#4F8EF7" opacity="0.85" clip-path="url(#ca)">+4.1% (+70)</text>
<text x="407.8" y="66.0" text-anchor="middle" font-size="9" fill="#BF5AF2" opacity="0.85" clip-path="url(#ca)">+3.5% (+36)</text>
<text x="407.8" y="77.0" text-anchor="middle" font-size="9" fill="#34C759" opacity="0.85" clip-path="url(#ca)">+3.3% (+26)</text>
<text x="585.6" y="55.0" text-anchor="middle" font-size="9" fill="#4F8EF7" opacity="0.85" clip-path="url(#ca)">+3.5% (+61)</text>
<text x="585.6" y="66.0" text-anchor="middle" font-size="9" fill="#BF5AF2" opacity="0.85" clip-path="url(#ca)">+2.7% (+29)</text>
<text x="585.6" y="77.0" text-anchor="middle" font-size="9" fill="#34C759" opacity="0.85" clip-path="url(#ca)">+2.6% (+21)</text>
<text x="723.9" y="55.0" text-anchor="middle" font-size="9" fill="#4F8EF7" opacity="0.85" clip-path="url(#ca)">+1.6% (+30)</text>
<text x="723.9" y="66.0" text-anchor="middle" font-size="9" fill="#BF5AF2" opacity="0.85" clip-path="url(#ca)">+1.9% (+21)</text>
<text x="723.9" y="77.0" text-anchor="middle" font-size="9" fill="#34C759" opacity="0.85" clip-path="url(#ca)">+1.9% (+16)</text>
<rect x="211" y="369" width="12" height="12" fill="#4F8EF7" rx="2"/>
<text x="227" y="379" font-size="12" fill="#111827">Authors</text>
<rect x="351" y="369" width="12" height="12" fill="#BF5AF2" rx="2"/>
<text x="367" y="379" font-size="12" fill="#111827">Contributors</text>
<rect x="491" y="369" width="12" height="12" fill="#34C759" rx="2"/>
<text x="507" y="379" font-size="12" fill="#111827">Non-author contributors</text>
<text x="72" y="394" font-size="8" fill="#e5e7eb">data since Dec 11, 2025</text>
</svg>