<svg xmlns="http://www.w3.org/2000/svg" width="800" height="400" viewBox="0 0 800 400">
<defs><style>text { font-family: -apple-system, BlinkMacSystemFont, 'Segoe UI', Roboto, sans-serif; }</style></defs>
<rect width="800" height="400" fill="#ffffff" rx="12"/>
<text x="400" y="26" text-anchor="middle" font-size="15" font-weight="600" fill="#111827">Package Updates by Quarter</text>
<text x="400" y="44" text-anchor="middle" font-size="11" fill="#6b7280">last updated at · 2,705 packages with a known last-update date</text>
<line x1="60" y1="58" x2="60" y2="320" stroke="#e5e7eb" stroke-width="1"/>
<line x1="60" y1="320" x2="770" y2="320" stroke="#e5e7eb" stroke-width="1"/>
<text x="-189" y="18" text-anchor="middle" font-size="12" fill="#6b7280" transform="rotate(-90)">Number of packages</text>
<line x1="60" y1="320.0" x2="770" y2="320.0" stroke="#f3f4f6" stroke-width="1"/>
<text x="54" y="324.0" text-anchor="end" font-size="11" fill="#6b7280">0</text>
<line x1="60" y1="267.7" x2="770" y2="267.7" stroke="#f3f4f6" stroke-width="1"/>
<text x="54" y="271.7" text-anchor="end" font-size="11" fill="#6b7280">125</text>
<line x1="60" y1="215.4" x2="770" y2="215.4" stroke="#f3f4f6" stroke-width="1"/>
<text x="54" y="219.4" text-anchor="end" font-size="11" fill="#6b7280">250</text>
<line x1="60" y1="162.6" x2="770" y2="162.6" stroke="#f3f4f6" stroke-width="1"/>
<text x="54" y="166.6" text-anchor="end" font-size="11" fill="#6b7280">376</text>
<line x1="60" y1="110.3" x2="770" y2="110.3" stroke="#f3f4f6" stroke-width="1"/>
<text x="54" y="114.3" text-anchor="end" font-size="11" fill="#6b7280">501</text>
<line x1="60" y1="58.0" x2="770" y2="58.0" stroke="#f3f4f6" stroke-width="1"/>
<text x="54" y="62.0" text-anchor="end" font-size="11" fill="#6b7280">626</text>
<rect x="67.3" y="317.9" width="27.1" height="2.1" fill="#34C759" rx="3" opacity="0.85"/>
<text x="80.9" y="301.9" text-anchor="middle" font-size="10" fill="#6b7280">5</text>
<text x="80.9" y="313.9" text-anchor="middle" font-size="10" fill="#6b7280">(0.18%)</text>
<g transform="translate(80.9,330.0) rotate(-45)"><text text-anchor="end" font-size="10" fill="#111827">2022-Q1</text></g>
<rect x="109.1" y="301.2" width="27.1" height="18.8" fill="#34C759" rx="3" opacity="0.85"/>
<text x="122.6" y="285.2" text-anchor="middle" font-size="10" fill="#6b7280">45</text>
<text x="122.6" y="297.2" text-anchor="middle" font-size="10" fill="#6b7280">(1.66%)</text>
<g transform="translate(122.6,330.0) rotate(-45)"><text text-anchor="end" font-size="10" fill="#111827">2022-Q2</text></g>
<rect x="150.8" y="298.7" width="27.1" height="21.3" fill="#34C759" rx="3" opacity="0.85"/>
<text x="164.4" y="282.7" text-anchor="middle" font-size="10" fill="#6b7280">51</text>
<text x="164.4" y="294.7" text-anchor="middle" font-size="10" fill="#6b7280">(1.89%)</text>
<g transform="translate(164.4,330.0) rotate(-45)"><text text-anchor="end" font-size="10" fill="#111827">2022-Q3</text></g>
<rect x="192.6" y="290.3" width="27.1" height="29.7" fill="#34C759" rx="3" opacity="0.85"/>
<text x="206.2" y="274.3" text-anchor="middle" font-size="10" fill="#6b7280">71</text>
<text x="206.2" y="286.3" text-anchor="middle" font-size="10" fill="#6b7280">(2.62%)</text>
<g transform="translate(206.2,330.0) rotate(-45)"><text text-anchor="end" font-size="10" fill="#111827">2022-Q4</text></g>
<rect x="234.4" y="281.1" width="27.1" height="38.9" fill="#34C759" rx="3" opacity="0.85"/>
<text x="247.9" y="265.1" text-anchor="middle" font-size="10" fill="#6b7280">93</text>
<text x="247.9" y="277.1" text-anchor="middle" font-size="10" fill="#6b7280">(3.44%)</text>
<g transform="translate(247.9,330.0) rotate(-45)"><text text-anchor="end" font-size="10" fill="#111827">2023-Q1</text></g>
<rect x="276.1" y="281.5" width="27.1" height="38.5" fill="#34C759" rx="3" opacity="0.85"/>
<text x="289.7" y="265.5" text-anchor="middle" font-size="10" fill="#6b7280">92</text>
<text x="289.7" y="277.5" text-anchor="middle" font-size="10" fill="#6b7280">(3.40%)</text>
<g transform="translate(289.7,330.0) rotate(-45)"><text text-anchor="end" font-size="10" fill="#111827">2023-Q2</text></g>
<rect x="317.9" y="282.3" width="27.1" height="37.7" fill="#34C759" rx="3" opacity="0.85"/>
<text x="331.5" y="266.3" text-anchor="middle" font-size="10" fill="#6b7280">90</text>
<text x="331.5" y="278.3" text-anchor="middle" font-size="10" fill="#6b7280">(3.33%)</text>
<g transform="translate(331.5,330.0) rotate(-45)"><text text-anchor="end" font-size="10" fill="#111827">2023-Q3</text></g>
<rect x="359.7" y="290.3" width="27.1" height="29.7" fill="#34C759" rx="3" opacity="0.85"/>
<text x="373.2" y="274.3" text-anchor="middle" font-size="10" fill="#6b7280">71</text>
<text x="373.2" y="286.3" text-anchor="middle" font-size="10" fill="#6b7280">(2.62%)</text>
<g transform="translate(373.2,330.0) rotate(-45)"><text text-anchor="end" font-size="10" fill="#111827">2023-Q4</text></g>
<rect x="401.4" y="267.3" width="27.1" height="52.7" fill="#34C759" rx="3" opacity="0.85"/>
<text x="415.0" y="251.3" text-anchor="middle" font-size="10" fill="#6b7280">126</text>
<text x="415.0" y="263.3" text-anchor="middle" font-size="10" fill="#6b7280">(4.66%)</text>
<g transform="translate(415.0,330.0) rotate(-45)"><text text-anchor="end" font-size="10" fill="#111827">2024-Q1</text></g>
<rect x="443.2" y="263.1" width="27.1" height="56.9" fill="#34C759" rx="3" opacity="0.85"/>
<text x="456.8" y="247.1" text-anchor="middle" font-size="10" fill="#6b7280">136</text>
<text x="456.8" y="259.1" text-anchor="middle" font-size="10" fill="#6b7280">(5.03%)</text>
<g transform="translate(456.8,330.0) rotate(-45)"><text text-anchor="end" font-size="10" fill="#111827">2024-Q2</text></g>
<rect x="485.0" y="263.1" width="27.1" height="56.9" fill="#34C759" rx="3" opacity="0.85"/>
<text x="498.5" y="247.1" text-anchor="middle" font-size="10" fill="#6b7280">136</text>
<text x="498.5" y="259.1" text-anchor="middle" font-size="10" fill="#6b7280">(5.03%)</text>
<g transform="translate(498.5,330.0) rotate(-45)"><text text-anchor="end" font-size="10" fill="#111827">2024-Q3</text></g>
<rect x="526.7" y="262.2" width="27.1" height="57.8" fill="#34C759" rx="3" opacity="0.85"/>
<text x="540.3" y="246.2" text-anchor="middle" font-size="10" fill="#6b7280">138</text>
<text x="540.3" y="258.2" text-anchor="middle" font-size="10" fill="#6b7280">(5.10%)</text>
<g transform="translate(540.3,330.0) rotate(-45)"><text text-anchor="end" font-size="10" fill="#111827">2024-Q4</text></g>
<rect x="568.5" y="229.6" width="27.1" height="90.4" fill="#34C759" rx="3" opacity="0.85"/>
<text x="582.1" y="213.6" text-anchor="middle" font-size="10" fill="#6b7280">216</text>
<text x="582.1" y="225.6" text-anchor="middle" font-size="10" fill="#6b7280">(7.99%)</text>
<g transform="translate(582.1,330.0) rotate(-45)"><text text-anchor="end" font-size="10" fill="#111827">2025-Q1</text></g>
<rect x="610.3" y="221.6" width="27.1" height="98.4" fill="#34C759" rx="3" opacity="0.85"/>
<text x="623.8" y="205.6" text-anchor="middle" font-size="10" fill="#6b7280">235</text>
<text x="623.8" y="217.6" text-anchor="middle" font-size="10" fill="#6b7280">(8.69%)</text>
<g transform="translate(623.8,330.0) rotate(-45)"><text text-anchor="end" font-size="10" fill="#111827">2025-Q2</text></g>
<rect x="652.0" y="222.5" width="27.1" height="97.5" fill="#34C759" rx="3" opacity="0.85"/>
<text x="665.6" y="206.5" text-anchor="middle" font-size="10" fill="#6b7280">233</text>
<text x="665.6" y="218.5" text-anchor="middle" font-size="10" fill="#6b7280">(8.61%)</text>
<g transform="translate(665.6,330.0) rotate(-45)"><text text-anchor="end" font-size="10" fill="#111827">2025-Q3</text></g>
<rect x="693.8" y="177.3" width="27.1" height="142.7" fill="#34C759" rx="3" opacity="0.85"/>
<text x="707.4" y="161.3" text-anchor="middle" font-size="10" fill="#6b7280">341</text>
<text x="707.4" y="173.3" text-anchor="middle" font-size="10" fill="#6b7280">(12.61%)</text>
<g transform="translate(707.4,330.0) rotate(-45)"><text text-anchor="end" font-size="10" fill="#111827">2025-Q4</text></g>
<rect x="735.5" y="58.0" width="27.1" height="262.0" fill="#34C759" rx="3" opacity="0.85"/>
<text x="749.1" y="72.0" text-anchor="middle" font-size="10" fill="#6b7280">626</text>
<text x="749.1" y="84.0" text-anchor="middle" font-size="10" fill="#6b7280">(23.14%)</text>
<g transform="translate(749.1,330.0) rotate(-45)"><text text-anchor="end" font-size="10" fill="#111827">2026-Q1</text></g>
</svg>