<svg xmlns="http://www.w3.org/2000/svg" width="800" height="400" viewBox="0 0 800 400">
<defs>
  <style>text { font-family: -apple-system, BlinkMacSystemFont, 'Segoe UI', Roboto, sans-serif; }</style>
  <linearGradient id="g5" x1="0" y1="0" x2="0" y2="1">
  <stop offset="0%" stop-color="#34C759" stop-opacity="0.25"/>
  <stop offset="100%" stop-color="#34C759" stop-opacity="0"/>
</linearGradient>
<linearGradient id="g6" x1="0" y1="0" x2="0" y2="1">
  <stop offset="0%" stop-color="#4F8EF7" stop-opacity="0.25"/>
  <stop offset="100%" stop-color="#4F8EF7" stop-opacity="0"/>
</linearGradient>
<linearGradient id="g7" x1="0" y1="0" x2="0" y2="1">
  <stop offset="0%" stop-color="#FF6363" stop-opacity="0.25"/>
  <stop offset="100%" stop-color="#FF6363" stop-opacity="0"/>
</linearGradient>
  <clipPath id="ca"><rect x="72" y="45" width="698" height="295"/></clipPath>
</defs>
<rect width="800" height="400" fill="#ffffff" rx="12"/>
<text x="400" y="26" text-anchor="middle" font-size="15" font-weight="600" fill="#111827">Platform Support Over Time</text>
<line x1="72" y1="340.0" x2="770" y2="340.0" stroke="#f3f4f6" stroke-width="1"/>
<text x="66" y="344.0" text-anchor="end" font-size="11" fill="#6b7280">0</text>
<line x1="72" y1="266.3" x2="770" y2="266.3" stroke="#f3f4f6" stroke-width="1"/>
<text x="66" y="270.3" text-anchor="end" font-size="11" fill="#6b7280">200</text>
<line x1="72" y1="192.5" x2="770" y2="192.5" stroke="#f3f4f6" stroke-width="1"/>
<text x="66" y="196.5" text-anchor="end" font-size="11" fill="#6b7280">400</text>
<line x1="72" y1="118.8" x2="770" y2="118.8" stroke="#f3f4f6" stroke-width="1"/>
<text x="66" y="122.8" text-anchor="end" font-size="11" fill="#6b7280">600</text>
<line x1="72" y1="45.0" x2="770" y2="45.0" stroke="#f3f4f6" stroke-width="1"/>
<text x="66" y="49.0" text-anchor="end" font-size="11" fill="#6b7280">800</text>
<line x1="158.4" y1="45" x2="158.4" y2="340" stroke="#e5e7eb" stroke-width="1" stroke-dasharray="3,3" clip-path="url(#ca)"/>
<line x1="345.4" y1="45" x2="345.4" y2="340" stroke="#e5e7eb" stroke-width="1" stroke-dasharray="3,3" clip-path="url(#ca)"/>
<line x1="539.7" y1="45" x2="539.7" y2="340" stroke="#e5e7eb" stroke-width="1" stroke-dasharray="3,3" clip-path="url(#ca)"/>
<line x1="734.0" y1="45" x2="734.0" y2="340" stroke="#e5e7eb" stroke-width="1" stroke-dasharray="3,3" clip-path="url(#ca)"/>
<text x="72.0" y="358.0" text-anchor="middle" font-size="11" fill="#6b7280">Dec 11</text>
<text x="208.7" y="358.0" text-anchor="middle" font-size="11" fill="#6b7280">Jan 10</text>
<text x="352.6" y="358.0" text-anchor="middle" font-size="11" fill="#6b7280">Feb 2</text>
<text x="489.4" y="358.0" text-anchor="middle" font-size="11" fill="#6b7280">Feb 21</text>
<text x="633.3" y="358.0" text-anchor="middle" font-size="11" fill="#6b7280">Mar 15</text>
<text x="770.0" y="358.0" text-anchor="middle" font-size="11" fill="#6b7280">Apr 7</text>
<line x1="72" y1="45" x2="72" y2="340" stroke="#e5e7eb" stroke-width="1"/>
<line x1="72" y1="340" x2="770" y2="340" stroke="#e5e7eb" stroke-width="1"/>
<text x="-192.5" y="18" text-anchor="middle" font-size="12" fill="#6b7280" transform="rotate(-90)">Extensions</text>
<path d="M 72.0,340 L 72.0,218.3 L 79.2,215.0 L 86.4,214.6 L 93.6,213.2 L 100.8,212.4 L 108.0,208.7 L 115.2,206.5 L 122.4,205.4 L 129.6,203.6 L 136.8,201.3 L 144.0,200.2 L 151.2,199.9 L 158.4,198.8 L 165.5,198.0 L 172.7,197.7 L 179.9,196.6 L 187.1,195.4 L 194.3,194.3 L 201.5,193.2 L 208.7,191.8 L 215.9,190.7 L 223.1,189.6 L 230.3,188.4 L 237.5,186.2 L 244.7,185.5 L 251.9,185.5 L 259.1,182.9 L 266.3,182.2 L 273.5,181.4 L 280.7,180.7 L 287.9,178.9 L 295.1,176.3 L 302.3,175.9 L 309.5,175.5 L 316.7,173.3 L 323.9,172.6 L 331.1,170.7 L 338.2,170.4 L 345.4,170.0 L 352.6,169.3 L 359.8,169.3 L 367.0,169.3 L 374.2,164.1 L 381.4,163.7 L 388.6,162.6 L 395.8,162.3 L 403.0,161.9 L 410.2,160.8 L 417.4,160.1 L 424.6,159.3 L 431.8,157.1 L 439.0,157.1 L 446.2,157.1 L 453.4,156.7 L 460.6,153.0 L 467.8,151.9 L 475.0,151.2 L 482.2,150.1 L 489.4,149.4 L 496.6,149.4 L 503.8,147.5 L 510.9,144.9 L 518.1,144.2 L 525.3,143.8 L 532.5,142.7 L 539.7,142.7 L 546.9,142.0 L 554.1,140.9 L 561.3,140.1 L 568.5,138.7 L 575.7,137.2 L 582.9,136.8 L 590.1,136.8 L 597.3,135.3 L 604.5,135.3 L 611.7,135.3 L 618.9,133.1 L 626.1,132.8 L 633.3,132.4 L 640.5,132.4 L 647.7,132.0 L 654.9,130.6 L 662.1,129.8 L 669.3,128.7 L 676.5,128.7 L 683.6,128.3 L 690.8,126.9 L 698.0,125.8 L 705.2,125.8 L 712.4,125.4 L 719.6,124.7 L 726.8,122.1 L 734.0,121.3 L 741.2,120.2 L 748.4,120.2 L 755.6,119.5 L 762.8,119.1 L 770.0,118.8 L 770.0,340 Z" fill="url(#g5)" clip-path="url(#ca)"/>
<path d="M 72.0,218.3 L 79.2,215.0 L 86.4,214.6 L 93.6,213.2 L 100.8,212.4 L 108.0,208.7 L 115.2,206.5 L 122.4,205.4 L 129.6,203.6 L 136.8,201.3 L 144.0,200.2 L 151.2,199.9 L 158.4,198.8 L 165.5,198.0 L 172.7,197.7 L 179.9,196.6 L 187.1,195.4 L 194.3,194.3 L 201.5,193.2 L 208.7,191.8 L 215.9,190.7 L 223.1,189.6 L 230.3,188.4 L 237.5,186.2 L 244.7,185.5 L 251.9,185.5 L 259.1,182.9 L 266.3,182.2 L 273.5,181.4 L 280.7,180.7 L 287.9,178.9 L 295.1,176.3 L 302.3,175.9 L 309.5,175.5 L 316.7,173.3 L 323.9,172.6 L 331.1,170.7 L 338.2,170.4 L 345.4,170.0 L 352.6,169.3 L 359.8,169.3 L 367.0,169.3 L 374.2,164.1 L 381.4,163.7 L 388.6,162.6 L 395.8,162.3 L 403.0,161.9 L 410.2,160.8 L 417.4,160.1 L 424.6,159.3 L 431.8,157.1 L 439.0,157.1 L 446.2,157.1 L 453.4,156.7 L 460.6,153.0 L 467.8,151.9 L 475.0,151.2 L 482.2,150.1 L 489.4,149.4 L 496.6,149.4 L 503.8,147.5 L 510.9,144.9 L 518.1,144.2 L 525.3,143.8 L 532.5,142.7 L 539.7,142.7 L 546.9,142.0 L 554.1,140.9 L 561.3,140.1 L 568.5,138.7 L 575.7,137.2 L 582.9,136.8 L 590.1,136.8 L 597.3,135.3 L 604.5,135.3 L 611.7,135.3 L 618.9,133.1 L 626.1,132.8 L 633.3,132.4 L 640.5,132.4 L 647.7,132.0 L 654.9,130.6 L 662.1,129.8 L 669.3,128.7 L 676.5,128.7 L 683.6,128.3 L 690.8,126.9 L 698.0,125.8 L 705.2,125.8 L 712.4,125.4 L 719.6,124.7 L 726.8,122.1 L 734.0,121.3 L 741.2,120.2 L 748.4,120.2 L 755.6,119.5 L 762.8,119.1 L 770.0,118.8" fill="none" stroke="#34C759" stroke-width="2.5" stroke-linejoin="round" clip-path="url(#ca)"/>
<path d="M 72.0,340 L 72.0,193.2 L 79.2,193.2 L 86.4,192.9 L 93.6,191.8 L 100.8,192.1 L 108.0,192.1 L 115.2,190.7 L 122.4,189.6 L 129.6,189.6 L 136.8,189.9 L 144.0,189.6 L 151.2,189.2 L 158.4,188.8 L 165.5,188.8 L 172.7,188.8 L 179.9,189.2 L 187.1,188.4 L 194.3,187.7 L 201.5,185.5 L 208.7,184.0 L 215.9,184.0 L 223.1,183.7 L 230.3,181.4 L 237.5,178.1 L 244.7,177.0 L 251.9,176.3 L 259.1,173.7 L 266.3,171.9 L 273.5,171.1 L 280.7,170.4 L 287.9,169.6 L 295.1,169.3 L 302.3,169.3 L 309.5,166.7 L 316.7,166.0 L 323.9,165.2 L 331.1,165.2 L 338.2,163.4 L 345.4,163.0 L 352.6,161.9 L 359.8,160.4 L 367.0,158.6 L 374.2,156.0 L 381.4,153.4 L 388.6,153.0 L 395.8,152.3 L 403.0,151.6 L 410.2,149.4 L 417.4,149.4 L 424.6,148.6 L 431.8,147.5 L 439.0,146.8 L 446.2,145.3 L 453.4,145.7 L 460.6,141.2 L 467.8,140.9 L 475.0,140.5 L 482.2,139.8 L 489.4,137.6 L 496.6,137.6 L 503.8,135.3 L 510.9,132.8 L 518.1,132.8 L 525.3,132.8 L 532.5,132.4 L 539.7,132.0 L 546.9,131.7 L 554.1,129.8 L 561.3,127.6 L 568.5,126.9 L 575.7,125.4 L 582.9,125.4 L 590.1,124.3 L 597.3,122.1 L 604.5,121.0 L 611.7,120.6 L 618.9,118.0 L 626.1,117.6 L 633.3,117.6 L 640.5,117.3 L 647.7,117.3 L 654.9,115.4 L 662.1,114.7 L 669.3,113.6 L 676.5,113.2 L 683.6,112.5 L 690.8,109.5 L 698.0,105.5 L 705.2,105.1 L 712.4,104.4 L 719.6,104.0 L 726.8,102.2 L 734.0,63.1 L 741.2,62.3 L 748.4,60.5 L 755.6,60.5 L 762.8,60.5 L 770.0,60.9 L 770.0,340 Z" fill="url(#g6)" clip-path="url(#ca)"/>
<path d="M 72.0,193.2 L 79.2,193.2 L 86.4,192.9 L 93.6,191.8 L 100.8,192.1 L 108.0,192.1 L 115.2,190.7 L 122.4,189.6 L 129.6,189.6 L 136.8,189.9 L 144.0,189.6 L 151.2,189.2 L 158.4,188.8 L 165.5,188.8 L 172.7,188.8 L 179.9,189.2 L 187.1,188.4 L 194.3,187.7 L 201.5,185.5 L 208.7,184.0 L 215.9,184.0 L 223.1,183.7 L 230.3,181.4 L 237.5,178.1 L 244.7,177.0 L 251.9,176.3 L 259.1,173.7 L 266.3,171.9 L 273.5,171.1 L 280.7,170.4 L 287.9,169.6 L 295.1,169.3 L 302.3,169.3 L 309.5,166.7 L 316.7,166.0 L 323.9,165.2 L 331.1,165.2 L 338.2,163.4 L 345.4,163.0 L 352.6,161.9 L 359.8,160.4 L 367.0,158.6 L 374.2,156.0 L 381.4,153.4 L 388.6,153.0 L 395.8,152.3 L 403.0,151.6 L 410.2,149.4 L 417.4,149.4 L 424.6,148.6 L 431.8,147.5 L 439.0,146.8 L 446.2,145.3 L 453.4,145.7 L 460.6,141.2 L 467.8,140.9 L 475.0,140.5 L 482.2,139.8 L 489.4,137.6 L 496.6,137.6 L 503.8,135.3 L 510.9,132.8 L 518.1,132.8 L 525.3,132.8 L 532.5,132.4 L 539.7,132.0 L 546.9,131.7 L 554.1,129.8 L 561.3,127.6 L 568.5,126.9 L 575.7,125.4 L 582.9,125.4 L 590.1,124.3 L 597.3,122.1 L 604.5,121.0 L 611.7,120.6 L 618.9,118.0 L 626.1,117.6 L 633.3,117.6 L 640.5,117.3 L 647.7,117.3 L 654.9,115.4 L 662.1,114.7 L 669.3,113.6 L 676.5,113.2 L 683.6,112.5 L 690.8,109.5 L 698.0,105.5 L 705.2,105.1 L 712.4,104.4 L 719.6,104.0 L 726.8,102.2 L 734.0,63.1 L 741.2,62.3 L 748.4,60.5 L 755.6,60.5 L 762.8,60.5 L 770.0,60.9" fill="none" stroke="#4F8EF7" stroke-width="2.5" stroke-linejoin="round" clip-path="url(#ca)"/>
<path d="M 72.0,340 L 72.0,337.8 L 79.2,337.4 L 86.4,337.4 L 93.6,337.1 L 100.8,337.1 L 108.0,337.1 L 115.2,337.1 L 122.4,337.1 L 129.6,336.3 L 136.8,336.3 L 144.0,336.3 L 151.2,336.3 L 158.4,336.3 L 165.5,335.9 L 172.7,335.9 L 179.9,335.9 L 187.1,335.9 L 194.3,335.9 L 201.5,335.6 L 208.7,334.8 L 215.9,334.5 L 223.1,334.5 L 230.3,334.5 L 237.5,334.1 L 244.7,334.1 L 251.9,334.1 L 259.1,333.7 L 266.3,333.7 L 273.5,333.7 L 280.7,333.4 L 287.9,333.4 L 295.1,333.4 L 302.3,333.4 L 309.5,333.0 L 316.7,333.0 L 323.9,333.0 L 331.1,333.0 L 338.2,333.0 L 345.4,333.0 L 352.6,333.0 L 359.8,333.0 L 367.0,333.0 L 374.2,333.0 L 381.4,333.0 L 388.6,333.0 L 395.8,333.0 L 403.0,332.6 L 410.2,332.6 L 417.4,332.6 L 424.6,332.6 L 431.8,332.6 L 439.0,332.6 L 446.2,332.6 L 453.4,332.6 L 460.6,332.6 L 467.8,332.6 L 475.0,332.6 L 482.2,332.6 L 489.4,332.3 L 496.6,332.3 L 503.8,332.3 L 510.9,332.3 L 518.1,332.3 L 525.3,332.3 L 532.5,332.3 L 539.7,332.3 L 546.9,332.3 L 554.1,332.3 L 561.3,332.3 L 568.5,332.3 L 575.7,332.3 L 582.9,332.3 L 590.1,332.3 L 597.3,332.3 L 604.5,332.3 L 611.7,332.3 L 618.9,332.3 L 626.1,332.3 L 633.3,332.3 L 640.5,332.3 L 647.7,332.3 L 654.9,332.3 L 662.1,332.3 L 669.3,332.3 L 676.5,332.3 L 683.6,332.3 L 690.8,332.3 L 698.0,332.3 L 705.2,332.3 L 712.4,332.3 L 719.6,332.3 L 726.8,332.3 L 734.0,332.3 L 741.2,332.3 L 748.4,331.9 L 755.6,331.9 L 762.8,331.9 L 770.0,331.9 L 770.0,340 Z" fill="url(#g7)" clip-path="url(#ca)"/>
<path d="M 72.0,337.8 L 79.2,337.4 L 86.4,337.4 L 93.6,337.1 L 100.8,337.1 L 108.0,337.1 L 115.2,337.1 L 122.4,337.1 L 129.6,336.3 L 136.8,336.3 L 144.0,336.3 L 151.2,336.3 L 158.4,336.3 L 165.5,335.9 L 172.7,335.9 L 179.9,335.9 L 187.1,335.9 L 194.3,335.9 L 201.5,335.6 L 208.7,334.8 L 215.9,334.5 L 223.1,334.5 L 230.3,334.5 L 237.5,334.1 L 244.7,334.1 L 251.9,334.1 L 259.1,333.7 L 266.3,333.7 L 273.5,333.7 L 280.7,333.4 L 287.9,333.4 L 295.1,333.4 L 302.3,333.4 L 309.5,333.0 L 316.7,333.0 L 323.9,333.0 L 331.1,333.0 L 338.2,333.0 L 345.4,333.0 L 352.6,333.0 L 359.8,333.0 L 367.0,333.0 L 374.2,333.0 L 381.4,333.0 L 388.6,333.0 L 395.8,333.0 L 403.0,332.6 L 410.2,332.6 L 417.4,332.6 L 424.6,332.6 L 431.8,332.6 L 439.0,332.6 L 446.2,332.6 L 453.4,332.6 L 460.6,332.6 L 467.8,332.6 L 475.0,332.6 L 482.2,332.6 L 489.4,332.3 L 496.6,332.3 L 503.8,332.3 L 510.9,332.3 L 518.1,332.3 L 525.3,332.3 L 532.5,332.3 L 539.7,332.3 L 546.9,332.3 L 554.1,332.3 L 561.3,332.3 L 568.5,332.3 L 575.7,332.3 L 582.9,332.3 L 590.1,332.3 L 597.3,332.3 L 604.5,332.3 L 611.7,332.3 L 618.9,332.3 L 626.1,332.3 L 633.3,332.3 L 640.5,332.3 L 647.7,332.3 L 654.9,332.3 L 662.1,332.3 L 669.3,332.3 L 676.5,332.3 L 683.6,332.3 L 690.8,332.3 L 698.0,332.3 L 705.2,332.3 L 712.4,332.3 L 719.6,332.3 L 726.8,332.3 L 734.0,332.3 L 741.2,332.3 L 748.4,331.9 L 755.6,331.9 L 762.8,331.9 L 770.0,331.9" fill="none" stroke="#FF6363" stroke-width="2.5" stroke-linejoin="round" clip-path="url(#ca)"/>
<text x="111.6" y="55.0" text-anchor="middle" font-size="9" fill="#34C759" opacity="0.85" clip-path="url(#ca)">+15.2% (+50)</text>
<text x="111.6" y="66.0" text-anchor="middle" font-size="9" fill="#4F8EF7" opacity="0.85" clip-path="url(#ca)">+2.8% (+11)</text>
<text x="111.6" y="77.0" text-anchor="middle" font-size="9" fill="#FF6363" opacity="0.85" clip-path="url(#ca)">+66.7% (+4)</text>
<text x="248.3" y="55.0" text-anchor="middle" font-size="9" fill="#34C759" opacity="0.85" clip-path="url(#ca)">+20.1% (+77)</text>
<text x="248.3" y="66.0" text-anchor="middle" font-size="9" fill="#4F8EF7" opacity="0.85" clip-path="url(#ca)">+16.8% (+69)</text>
<text x="248.3" y="77.0" text-anchor="middle" font-size="9" fill="#FF6363" opacity="0.85" clip-path="url(#ca)">+90.0% (+9)</text>
<text x="439.0" y="55.0" text-anchor="middle" font-size="9" fill="#34C759" opacity="0.85" clip-path="url(#ca)">+16.1% (+74)</text>
<text x="439.0" y="66.0" text-anchor="middle" font-size="9" fill="#4F8EF7" opacity="0.85" clip-path="url(#ca)">+17.3% (+83)</text>
<text x="439.0" y="77.0" text-anchor="middle" font-size="9" fill="#FF6363" opacity="0.85" clip-path="url(#ca)">+10.5% (+2)</text>
<text x="633.3" y="55.0" text-anchor="middle" font-size="9" fill="#34C759" opacity="0.85" clip-path="url(#ca)">+10.5% (+56)</text>
<text x="633.3" y="66.0" text-anchor="middle" font-size="9" fill="#4F8EF7" opacity="0.85" clip-path="url(#ca)">+14.4% (+81)</text>
<text x="633.3" y="77.0" text-anchor="middle" font-size="9" fill="#FF6363" opacity="0.85" clip-path="url(#ca)">+0.0% (+0)</text>
<text x="752.0" y="55.0" text-anchor="middle" font-size="9" fill="#34C759" opacity="0.85" clip-path="url(#ca)">+1.2% (+7)</text>
<text x="752.0" y="66.0" text-anchor="middle" font-size="9" fill="#4F8EF7" opacity="0.85" clip-path="url(#ca)">+0.8% (+6)</text>
<text x="752.0" y="77.0" text-anchor="middle" font-size="9" fill="#FF6363" opacity="0.85" clip-path="url(#ca)">+4.8% (+1)</text>
<rect x="211" y="369" width="12" height="12" fill="#34C759" rx="2"/>
<text x="227" y="379" font-size="12" fill="#111827">macOS + Windows</text>
<rect x="351" y="369" width="12" height="12" fill="#4F8EF7" rx="2"/>
<text x="367" y="379" font-size="12" fill="#111827">macOS only</text>
<rect x="491" y="369" width="12" height="12" fill="#FF6363" rx="2"/>
<text x="507" y="379" font-size="12" fill="#111827">Windows only</text>
<text x="72" y="394" font-size="8" fill="#e5e7eb">data since Dec 11, 2025</text>
</svg>