<svg xmlns="http://www.w3.org/2000/svg" width="800" height="400" viewBox="0 0 800 400">
<defs>
  <style>text { font-family: -apple-system, BlinkMacSystemFont, 'Segoe UI', Roboto, sans-serif; }</style>
  <linearGradient id="g2" x1="0" y1="0" x2="0" y2="1">
  <stop offset="0%" stop-color="#4F8EF7" stop-opacity="0.25"/>
  <stop offset="100%" stop-color="#4F8EF7" stop-opacity="0"/>
</linearGradient>
<linearGradient id="g3" x1="0" y1="0" x2="0" y2="1">
  <stop offset="0%" stop-color="#BF5AF2" stop-opacity="0.25"/>
  <stop offset="100%" stop-color="#BF5AF2" stop-opacity="0"/>
</linearGradient>
<linearGradient id="g4" x1="0" y1="0" x2="0" y2="1">
  <stop offset="0%" stop-color="#34C759" stop-opacity="0.25"/>
  <stop offset="100%" stop-color="#34C759" stop-opacity="0"/>
</linearGradient>
  <clipPath id="ca"><rect x="72" y="45" width="698" height="295"/></clipPath>
</defs>
<rect width="800" height="400" fill="#ffffff" rx="12"/>
<text x="400" y="26" text-anchor="middle" font-size="15" font-weight="600" fill="#111827">Community Growth Over Time</text>
<line x1="72" y1="340.0" x2="770" y2="340.0" stroke="#f3f4f6" stroke-width="1"/>
<text x="66" y="344.0" text-anchor="end" font-size="11" fill="#6b7280">500</text>
<line x1="72" y1="241.7" x2="770" y2="241.7" stroke="#f3f4f6" stroke-width="1"/>
<text x="66" y="245.7" text-anchor="end" font-size="11" fill="#6b7280">1.0k</text>
<line x1="72" y1="143.3" x2="770" y2="143.3" stroke="#f3f4f6" stroke-width="1"/>
<text x="66" y="147.3" text-anchor="end" font-size="11" fill="#6b7280">1.5k</text>
<line x1="72" y1="45.0" x2="770" y2="45.0" stroke="#f3f4f6" stroke-width="1"/>
<text x="66" y="49.0" text-anchor="end" font-size="11" fill="#6b7280">2.0k</text>
<line x1="119.9" y1="45" x2="119.9" y2="340" stroke="#e5e7eb" stroke-width="1" stroke-dasharray="3,3" clip-path="url(#ca)"/>
<line x1="223.6" y1="45" x2="223.6" y2="340" stroke="#e5e7eb" stroke-width="1" stroke-dasharray="3,3" clip-path="url(#ca)"/>
<line x1="331.3" y1="45" x2="331.3" y2="340" stroke="#e5e7eb" stroke-width="1" stroke-dasharray="3,3" clip-path="url(#ca)"/>
<line x1="438.9" y1="45" x2="438.9" y2="340" stroke="#e5e7eb" stroke-width="1" stroke-dasharray="3,3" clip-path="url(#ca)"/>
<line x1="546.6" y1="45" x2="546.6" y2="340" stroke="#e5e7eb" stroke-width="1" stroke-dasharray="3,3" clip-path="url(#ca)"/>
<line x1="650.3" y1="45" x2="650.3" y2="340" stroke="#e5e7eb" stroke-width="1" stroke-dasharray="3,3" clip-path="url(#ca)"/>
<line x1="746.1" y1="45" x2="746.1" y2="340" stroke="#e5e7eb" stroke-width="1" stroke-dasharray="3,3" clip-path="url(#ca)"/>
<text x="72.0" y="358.0" text-anchor="middle" font-size="11" fill="#6b7280">Dec 11</text>
<text x="211.6" y="358.0" text-anchor="middle" font-size="11" fill="#6b7280">Jan 29</text>
<text x="351.2" y="358.0" text-anchor="middle" font-size="11" fill="#6b7280">Mar 6</text>
<text x="490.8" y="358.0" text-anchor="middle" font-size="11" fill="#6b7280">Apr 15</text>
<text x="630.4" y="358.0" text-anchor="middle" font-size="11" fill="#6b7280">May 27</text>
<text x="770.0" y="358.0" text-anchor="middle" font-size="11" fill="#6b7280">Jul 8</text>
<line x1="72" y1="45" x2="72" y2="340" stroke="#e5e7eb" stroke-width="1"/>
<line x1="72" y1="340" x2="770" y2="340" stroke="#e5e7eb" stroke-width="1"/>
<text x="-192.5" y="18" text-anchor="middle" font-size="12" fill="#6b7280" transform="rotate(-90)">People</text>
<path d="M 72.0,340 L 72.0,120.1 L 76.0,120.1 L 80.0,120.1 L 84.0,119.5 L 88.0,119.5 L 91.9,119.1 L 95.9,118.9 L 99.9,119.1 L 103.9,118.6 L 107.9,118.6 L 111.9,118.6 L 115.9,118.6 L 119.9,118.6 L 123.9,118.6 L 127.8,118.6 L 131.8,118.6 L 135.8,118.4 L 139.8,117.8 L 143.8,116.6 L 147.8,116.0 L 151.8,115.8 L 155.8,115.8 L 159.7,115.2 L 163.7,113.8 L 167.7,113.0 L 171.7,113.0 L 175.7,112.1 L 179.7,111.7 L 183.7,110.9 L 187.7,110.3 L 191.7,109.7 L 195.6,109.1 L 199.6,109.1 L 203.6,107.7 L 207.6,106.9 L 211.6,106.9 L 215.6,106.2 L 219.6,105.8 L 223.6,105.6 L 227.6,105.4 L 231.5,105.4 L 235.5,104.8 L 239.5,102.4 L 243.5,101.0 L 247.5,100.3 L 251.5,100.1 L 255.5,99.7 L 259.5,98.9 L 263.5,98.5 L 267.4,98.1 L 271.4,97.7 L 275.4,97.3 L 279.4,96.9 L 283.4,96.9 L 287.4,95.0 L 291.4,95.0 L 295.4,94.8 L 299.3,94.6 L 303.3,94.2 L 307.3,94.2 L 311.3,93.2 L 315.3,92.0 L 319.3,91.6 L 323.3,92.0 L 327.3,91.8 L 331.3,91.6 L 335.2,91.6 L 339.2,91.2 L 343.2,90.4 L 347.2,90.0 L 351.2,89.6 L 355.2,89.4 L 359.2,89.4 L 363.2,88.7 L 367.2,88.3 L 371.1,88.3 L 375.1,86.7 L 379.1,86.7 L 383.1,86.7 L 387.1,86.7 L 391.1,86.5 L 395.1,85.9 L 399.1,85.1 L 403.1,84.7 L 407.0,84.7 L 411.0,84.3 L 415.0,82.8 L 419.0,81.8 L 423.0,81.6 L 427.0,81.4 L 431.0,80.8 L 435.0,79.6 L 438.9,79.2 L 442.9,78.8 L 446.9,77.6 L 450.9,77.4 L 454.9,77.4 L 458.9,77.4 L 462.9,77.3 L 466.9,76.1 L 470.9,75.9 L 474.8,75.7 L 478.8,75.7 L 482.8,75.3 L 486.8,73.7 L 490.8,73.5 L 494.8,73.3 L 498.8,73.3 L 502.8,72.5 L 506.8,72.3 L 510.7,72.1 L 514.7,71.6 L 518.7,70.8 L 522.7,70.8 L 526.7,70.8 L 530.7,70.8 L 534.7,70.4 L 538.7,69.8 L 542.7,69.6 L 546.6,69.0 L 550.6,68.8 L 554.6,68.6 L 558.6,67.8 L 562.6,67.2 L 566.6,67.0 L 570.6,67.0 L 574.6,65.3 L 578.5,64.7 L 582.5,64.5 L 586.5,64.5 L 590.5,63.5 L 594.5,63.5 L 598.5,62.9 L 602.5,62.3 L 606.5,60.9 L 610.5,60.7 L 614.4,60.5 L 618.4,60.3 L 622.4,60.3 L 626.4,60.1 L 630.4,59.2 L 634.4,58.6 L 638.4,58.6 L 642.4,58.4 L 646.4,58.4 L 650.3,57.8 L 654.3,57.6 L 658.3,57.4 L 662.3,56.8 L 666.3,56.0 L 670.3,56.0 L 674.3,55.8 L 678.3,55.6 L 682.3,54.6 L 686.2,53.3 L 690.2,53.1 L 694.2,52.7 L 698.2,52.3 L 702.2,52.1 L 706.2,51.5 L 710.2,50.7 L 714.2,50.5 L 718.1,49.9 L 722.1,49.5 L 726.1,48.5 L 730.1,48.3 L 734.1,47.9 L 738.1,47.9 L 742.1,47.6 L 746.1,47.2 L 750.1,46.8 L 754.0,46.6 L 758.0,46.2 L 762.0,46.2 L 766.0,45.8 L 770.0,45.6 L 770.0,340 Z" fill="url(#g2)" clip-path="url(#ca)"/>
<path d="M 72.0,120.1 L 76.0,120.1 L 80.0,120.1 L 84.0,119.5 L 88.0,119.5 L 91.9,119.1 L 95.9,118.9 L 99.9,119.1 L 103.9,118.6 L 107.9,118.6 L 111.9,118.6 L 115.9,118.6 L 119.9,118.6 L 123.9,118.6 L 127.8,118.6 L 131.8,118.6 L 135.8,118.4 L 139.8,117.8 L 143.8,116.6 L 147.8,116.0 L 151.8,115.8 L 155.8,115.8 L 159.7,115.2 L 163.7,113.8 L 167.7,113.0 L 171.7,113.0 L 175.7,112.1 L 179.7,111.7 L 183.7,110.9 L 187.7,110.3 L 191.7,109.7 L 195.6,109.1 L 199.6,109.1 L 203.6,107.7 L 207.6,106.9 L 211.6,106.9 L 215.6,106.2 L 219.6,105.8 L 223.6,105.6 L 227.6,105.4 L 231.5,105.4 L 235.5,104.8 L 239.5,102.4 L 243.5,101.0 L 247.5,100.3 L 251.5,100.1 L 255.5,99.7 L 259.5,98.9 L 263.5,98.5 L 267.4,98.1 L 271.4,97.7 L 275.4,97.3 L 279.4,96.9 L 283.4,96.9 L 287.4,95.0 L 291.4,95.0 L 295.4,94.8 L 299.3,94.6 L 303.3,94.2 L 307.3,94.2 L 311.3,93.2 L 315.3,92.0 L 319.3,91.6 L 323.3,92.0 L 327.3,91.8 L 331.3,91.6 L 335.2,91.6 L 339.2,91.2 L 343.2,90.4 L 347.2,90.0 L 351.2,89.6 L 355.2,89.4 L 359.2,89.4 L 363.2,88.7 L 367.2,88.3 L 371.1,88.3 L 375.1,86.7 L 379.1,86.7 L 383.1,86.7 L 387.1,86.7 L 391.1,86.5 L 395.1,85.9 L 399.1,85.1 L 403.1,84.7 L 407.0,84.7 L 411.0,84.3 L 415.0,82.8 L 419.0,81.8 L 423.0,81.6 L 427.0,81.4 L 431.0,80.8 L 435.0,79.6 L 438.9,79.2 L 442.9,78.8 L 446.9,77.6 L 450.9,77.4 L 454.9,77.4 L 458.9,77.4 L 462.9,77.3 L 466.9,76.1 L 470.9,75.9 L 474.8,75.7 L 478.8,75.7 L 482.8,75.3 L 486.8,73.7 L 490.8,73.5 L 494.8,73.3 L 498.8,73.3 L 502.8,72.5 L 506.8,72.3 L 510.7,72.1 L 514.7,71.6 L 518.7,70.8 L 522.7,70.8 L 526.7,70.8 L 530.7,70.8 L 534.7,70.4 L 538.7,69.8 L 542.7,69.6 L 546.6,69.0 L 550.6,68.8 L 554.6,68.6 L 558.6,67.8 L 562.6,67.2 L 566.6,67.0 L 570.6,67.0 L 574.6,65.3 L 578.5,64.7 L 582.5,64.5 L 586.5,64.5 L 590.5,63.5 L 594.5,63.5 L 598.5,62.9 L 602.5,62.3 L 606.5,60.9 L 610.5,60.7 L 614.4,60.5 L 618.4,60.3 L 622.4,60.3 L 626.4,60.1 L 630.4,59.2 L 634.4,58.6 L 638.4,58.6 L 642.4,58.4 L 646.4,58.4 L 650.3,57.8 L 654.3,57.6 L 658.3,57.4 L 662.3,56.8 L 666.3,56.0 L 670.3,56.0 L 674.3,55.8 L 678.3,55.6 L 682.3,54.6 L 686.2,53.3 L 690.2,53.1 L 694.2,52.7 L 698.2,52.3 L 702.2,52.1 L 706.2,51.5 L 710.2,50.7 L 714.2,50.5 L 718.1,49.9 L 722.1,49.5 L 726.1,48.5 L 730.1,48.3 L 734.1,47.9 L 738.1,47.9 L 742.1,47.6 L 746.1,47.2 L 750.1,46.8 L 754.0,46.6 L 758.0,46.2 L 762.0,46.2 L 766.0,45.8 L 770.0,45.6" fill="none" stroke="#4F8EF7" stroke-width="2.5" stroke-linejoin="round" clip-path="url(#ca)"/>
<path d="M 72.0,340 L 72.0,244.2 L 76.0,243.6 L 80.0,243.6 L 84.0,243.6 L 88.0,243.4 L 91.9,243.0 L 95.9,242.8 L 99.9,242.6 L 103.9,242.6 L 107.9,242.5 L 111.9,242.3 L 115.9,242.3 L 119.9,242.3 L 123.9,242.3 L 127.8,242.3 L 131.8,242.3 L 135.8,241.9 L 139.8,241.9 L 143.8,241.9 L 147.8,241.1 L 151.8,240.9 L 155.8,240.5 L 159.7,239.7 L 163.7,239.5 L 167.7,239.5 L 171.7,239.5 L 175.7,238.9 L 179.7,238.5 L 183.7,238.5 L 187.7,238.1 L 191.7,237.9 L 195.6,237.5 L 199.6,237.5 L 203.6,237.3 L 207.6,236.6 L 211.6,236.0 L 215.6,235.6 L 219.6,235.4 L 223.6,235.4 L 227.6,235.2 L 231.5,234.8 L 235.5,234.8 L 239.5,234.6 L 243.5,234.0 L 247.5,233.6 L 251.5,233.6 L 255.5,233.6 L 259.5,233.6 L 263.5,233.4 L 267.4,232.8 L 271.4,232.4 L 275.4,232.2 L 279.4,232.0 L 283.4,231.8 L 287.4,231.6 L 291.4,231.4 L 295.4,231.2 L 299.3,230.7 L 303.3,230.5 L 307.3,230.3 L 311.3,229.5 L 315.3,228.7 L 319.3,228.7 L 323.3,228.5 L 327.3,228.3 L 331.3,228.3 L 335.2,228.3 L 339.2,227.9 L 343.2,227.9 L 347.2,226.7 L 351.2,226.5 L 355.2,226.3 L 359.2,226.3 L 363.2,225.9 L 367.2,225.7 L 371.1,225.7 L 375.1,225.5 L 379.1,225.5 L 383.1,225.5 L 387.1,225.1 L 391.1,224.9 L 395.1,224.0 L 399.1,224.2 L 403.1,224.0 L 407.0,223.8 L 411.0,223.8 L 415.0,223.6 L 419.0,223.0 L 423.0,223.0 L 427.0,223.0 L 431.0,223.0 L 435.0,222.6 L 438.9,222.6 L 442.9,222.2 L 446.9,221.8 L 450.9,221.0 L 454.9,221.0 L 458.9,220.6 L 462.9,220.4 L 466.9,220.2 L 470.9,220.0 L 474.8,219.6 L 478.8,219.6 L 482.8,219.1 L 486.8,219.1 L 490.8,218.9 L 494.8,218.5 L 498.8,218.3 L 502.8,218.3 L 506.8,218.3 L 510.7,218.3 L 514.7,218.3 L 518.7,217.7 L 522.7,217.7 L 526.7,217.3 L 530.7,216.9 L 534.7,216.3 L 538.7,216.1 L 542.7,216.1 L 546.6,214.9 L 550.6,214.7 L 554.6,214.7 L 558.6,213.9 L 562.6,213.9 L 566.6,213.5 L 570.6,213.5 L 574.6,213.3 L 578.5,213.3 L 582.5,213.2 L 586.5,212.8 L 590.5,212.8 L 594.5,212.6 L 598.5,212.4 L 602.5,212.2 L 606.5,212.0 L 610.5,212.0 L 614.4,211.6 L 618.4,211.6 L 622.4,211.6 L 626.4,210.6 L 630.4,210.6 L 634.4,210.6 L 638.4,210.6 L 642.4,210.6 L 646.4,210.6 L 650.3,210.2 L 654.3,210.2 L 658.3,209.8 L 662.3,209.0 L 666.3,208.6 L 670.3,208.4 L 674.3,208.4 L 678.3,208.2 L 682.3,207.6 L 686.2,207.4 L 690.2,207.4 L 694.2,207.1 L 698.2,206.5 L 702.2,206.1 L 706.2,206.1 L 710.2,205.9 L 714.2,205.9 L 718.1,205.3 L 722.1,205.1 L 726.1,205.1 L 730.1,204.7 L 734.1,204.7 L 738.1,204.3 L 742.1,203.7 L 746.1,203.7 L 750.1,203.5 L 754.0,203.3 L 758.0,203.1 L 762.0,203.1 L 766.0,202.9 L 770.0,202.9 L 770.0,340 Z" fill="url(#g3)" clip-path="url(#ca)"/>
<path d="M 72.0,244.2 L 76.0,243.6 L 80.0,243.6 L 84.0,243.6 L 88.0,243.4 L 91.9,243.0 L 95.9,242.8 L 99.9,242.6 L 103.9,242.6 L 107.9,242.5 L 111.9,242.3 L 115.9,242.3 L 119.9,242.3 L 123.9,242.3 L 127.8,242.3 L 131.8,242.3 L 135.8,241.9 L 139.8,241.9 L 143.8,241.9 L 147.8,241.1 L 151.8,240.9 L 155.8,240.5 L 159.7,239.7 L 163.7,239.5 L 167.7,239.5 L 171.7,239.5 L 175.7,238.9 L 179.7,238.5 L 183.7,238.5 L 187.7,238.1 L 191.7,237.9 L 195.6,237.5 L 199.6,237.5 L 203.6,237.3 L 207.6,236.6 L 211.6,236.0 L 215.6,235.6 L 219.6,235.4 L 223.6,235.4 L 227.6,235.2 L 231.5,234.8 L 235.5,234.8 L 239.5,234.6 L 243.5,234.0 L 247.5,233.6 L 251.5,233.6 L 255.5,233.6 L 259.5,233.6 L 263.5,233.4 L 267.4,232.8 L 271.4,232.4 L 275.4,232.2 L 279.4,232.0 L 283.4,231.8 L 287.4,231.6 L 291.4,231.4 L 295.4,231.2 L 299.3,230.7 L 303.3,230.5 L 307.3,230.3 L 311.3,229.5 L 315.3,228.7 L 319.3,228.7 L 323.3,228.5 L 327.3,228.3 L 331.3,228.3 L 335.2,228.3 L 339.2,227.9 L 343.2,227.9 L 347.2,226.7 L 351.2,226.5 L 355.2,226.3 L 359.2,226.3 L 363.2,225.9 L 367.2,225.7 L 371.1,225.7 L 375.1,225.5 L 379.1,225.5 L 383.1,225.5 L 387.1,225.1 L 391.1,224.9 L 395.1,224.0 L 399.1,224.2 L 403.1,224.0 L 407.0,223.8 L 411.0,223.8 L 415.0,223.6 L 419.0,223.0 L 423.0,223.0 L 427.0,223.0 L 431.0,223.0 L 435.0,222.6 L 438.9,222.6 L 442.9,222.2 L 446.9,221.8 L 450.9,221.0 L 454.9,221.0 L 458.9,220.6 L 462.9,220.4 L 466.9,220.2 L 470.9,220.0 L 474.8,219.6 L 478.8,219.6 L 482.8,219.1 L 486.8,219.1 L 490.8,218.9 L 494.8,218.5 L 498.8,218.3 L 502.8,218.3 L 506.8,218.3 L 510.7,218.3 L 514.7,218.3 L 518.7,217.7 L 522.7,217.7 L 526.7,217.3 L 530.7,216.9 L 534.7,216.3 L 538.7,216.1 L 542.7,216.1 L 546.6,214.9 L 550.6,214.7 L 554.6,214.7 L 558.6,213.9 L 562.6,213.9 L 566.6,213.5 L 570.6,213.5 L 574.6,213.3 L 578.5,213.3 L 582.5,213.2 L 586.5,212.8 L 590.5,212.8 L 594.5,212.6 L 598.5,212.4 L 602.5,212.2 L 606.5,212.0 L 610.5,212.0 L 614.4,211.6 L 618.4,211.6 L 622.4,211.6 L 626.4,210.6 L 630.4,210.6 L 634.4,210.6 L 638.4,210.6 L 642.4,210.6 L 646.4,210.6 L 650.3,210.2 L 654.3,210.2 L 658.3,209.8 L 662.3,209.0 L 666.3,208.6 L 670.3,208.4 L 674.3,208.4 L 678.3,208.2 L 682.3,207.6 L 686.2,207.4 L 690.2,207.4 L 694.2,207.1 L 698.2,206.5 L 702.2,206.1 L 706.2,206.1 L 710.2,205.9 L 714.2,205.9 L 718.1,205.3 L 722.1,205.1 L 726.1,205.1 L 730.1,204.7 L 734.1,204.7 L 738.1,204.3 L 742.1,203.7 L 746.1,203.7 L 750.1,203.5 L 754.0,203.3 L 758.0,203.1 L 762.0,203.1 L 766.0,202.9 L 770.0,202.9" fill="none" stroke="#BF5AF2" stroke-width="2.5" stroke-linejoin="round" clip-path="url(#ca)"/>
<path d="M 72.0,340 L 72.0,291.4 L 76.0,290.8 L 80.0,290.8 L 84.0,290.8 L 88.0,290.6 L 91.9,290.2 L 95.9,290.0 L 99.9,289.7 L 103.9,289.7 L 107.9,289.5 L 111.9,289.3 L 115.9,289.3 L 119.9,289.3 L 123.9,289.3 L 127.8,289.3 L 131.8,289.3 L 135.8,288.9 L 139.8,288.9 L 143.8,289.1 L 147.8,288.5 L 151.8,288.7 L 155.8,288.1 L 159.7,287.5 L 163.7,287.3 L 167.7,287.5 L 171.7,287.5 L 175.7,286.9 L 179.7,286.7 L 183.7,286.7 L 187.7,286.3 L 191.7,286.1 L 195.6,285.7 L 199.6,285.7 L 203.6,285.5 L 207.6,284.9 L 211.6,284.3 L 215.6,283.9 L 219.6,283.9 L 223.6,283.9 L 227.6,283.8 L 231.5,283.4 L 235.5,283.4 L 239.5,283.2 L 243.5,282.6 L 247.5,282.4 L 251.5,282.4 L 255.5,282.4 L 259.5,282.4 L 263.5,282.2 L 267.4,281.6 L 271.4,281.4 L 275.4,281.2 L 279.4,281.0 L 283.4,281.0 L 287.4,280.8 L 291.4,280.8 L 295.4,280.8 L 299.3,280.2 L 303.3,280.2 L 307.3,280.2 L 311.3,279.8 L 315.3,279.2 L 319.3,279.2 L 323.3,279.0 L 327.3,278.8 L 331.3,278.8 L 335.2,278.8 L 339.2,278.4 L 343.2,278.4 L 347.2,277.3 L 351.2,277.1 L 355.2,276.9 L 359.2,276.9 L 363.2,276.7 L 367.2,276.7 L 371.1,276.7 L 375.1,276.7 L 379.1,276.7 L 383.1,276.7 L 387.1,276.3 L 391.1,276.1 L 395.1,275.1 L 399.1,275.3 L 403.1,275.3 L 407.0,275.1 L 411.0,275.1 L 415.0,275.1 L 419.0,274.7 L 423.0,274.7 L 427.0,274.7 L 431.0,274.7 L 435.0,274.7 L 438.9,274.7 L 442.9,274.5 L 446.9,274.5 L 450.9,273.7 L 454.9,273.7 L 458.9,273.5 L 462.9,273.3 L 466.9,273.1 L 470.9,272.9 L 474.8,272.5 L 478.8,272.5 L 482.8,272.0 L 486.8,272.0 L 490.8,271.8 L 494.8,271.6 L 498.8,271.6 L 502.8,271.6 L 506.8,271.6 L 510.7,271.6 L 514.7,271.6 L 518.7,271.0 L 522.7,271.0 L 526.7,270.6 L 530.7,270.2 L 534.7,269.6 L 538.7,269.4 L 542.7,269.4 L 546.6,268.4 L 550.6,268.2 L 554.6,268.2 L 558.6,267.6 L 562.6,267.6 L 566.6,267.4 L 570.6,267.4 L 574.6,267.6 L 578.5,267.8 L 582.5,267.6 L 586.5,267.2 L 590.5,267.4 L 594.5,267.2 L 598.5,267.0 L 602.5,267.0 L 606.5,267.0 L 610.5,267.0 L 614.4,266.6 L 618.4,266.6 L 622.4,266.6 L 626.4,265.9 L 630.4,265.9 L 634.4,265.9 L 638.4,265.9 L 642.4,265.9 L 646.4,265.9 L 650.3,265.5 L 654.3,265.5 L 658.3,265.1 L 662.3,264.3 L 666.3,264.1 L 670.3,264.1 L 674.3,264.1 L 678.3,264.1 L 682.3,263.7 L 686.2,263.5 L 690.2,263.5 L 694.2,263.3 L 698.2,262.7 L 702.2,262.3 L 706.2,262.3 L 710.2,262.1 L 714.2,262.1 L 718.1,261.9 L 722.1,261.7 L 726.1,261.7 L 730.1,261.5 L 734.1,261.5 L 738.1,261.1 L 742.1,260.5 L 746.1,260.5 L 750.1,260.4 L 754.0,260.5 L 758.0,260.4 L 762.0,260.4 L 766.0,260.2 L 770.0,260.2 L 770.0,340 Z" fill="url(#g4)" clip-path="url(#ca)"/>
<path d="M 72.0,291.4 L 76.0,290.8 L 80.0,290.8 L 84.0,290.8 L 88.0,290.6 L 91.9,290.2 L 95.9,290.0 L 99.9,289.7 L 103.9,289.7 L 107.9,289.5 L 111.9,289.3 L 115.9,289.3 L 119.9,289.3 L 123.9,289.3 L 127.8,289.3 L 131.8,289.3 L 135.8,288.9 L 139.8,288.9 L 143.8,289.1 L 147.8,288.5 L 151.8,288.7 L 155.8,288.1 L 159.7,287.5 L 163.7,287.3 L 167.7,287.5 L 171.7,287.5 L 175.7,286.9 L 179.7,286.7 L 183.7,286.7 L 187.7,286.3 L 191.7,286.1 L 195.6,285.7 L 199.6,285.7 L 203.6,285.5 L 207.6,284.9 L 211.6,284.3 L 215.6,283.9 L 219.6,283.9 L 223.6,283.9 L 227.6,283.8 L 231.5,283.4 L 235.5,283.4 L 239.5,283.2 L 243.5,282.6 L 247.5,282.4 L 251.5,282.4 L 255.5,282.4 L 259.5,282.4 L 263.5,282.2 L 267.4,281.6 L 271.4,281.4 L 275.4,281.2 L 279.4,281.0 L 283.4,281.0 L 287.4,280.8 L 291.4,280.8 L 295.4,280.8 L 299.3,280.2 L 303.3,280.2 L 307.3,280.2 L 311.3,279.8 L 315.3,279.2 L 319.3,279.2 L 323.3,279.0 L 327.3,278.8 L 331.3,278.8 L 335.2,278.8 L 339.2,278.4 L 343.2,278.4 L 347.2,277.3 L 351.2,277.1 L 355.2,276.9 L 359.2,276.9 L 363.2,276.7 L 367.2,276.7 L 371.1,276.7 L 375.1,276.7 L 379.1,276.7 L 383.1,276.7 L 387.1,276.3 L 391.1,276.1 L 395.1,275.1 L 399.1,275.3 L 403.1,275.3 L 407.0,275.1 L 411.0,275.1 L 415.0,275.1 L 419.0,274.7 L 423.0,274.7 L 427.0,274.7 L 431.0,274.7 L 435.0,274.7 L 438.9,274.7 L 442.9,274.5 L 446.9,274.5 L 450.9,273.7 L 454.9,273.7 L 458.9,273.5 L 462.9,273.3 L 466.9,273.1 L 470.9,272.9 L 474.8,272.5 L 478.8,272.5 L 482.8,272.0 L 486.8,272.0 L 490.8,271.8 L 494.8,271.6 L 498.8,271.6 L 502.8,271.6 L 506.8,271.6 L 510.7,271.6 L 514.7,271.6 L 518.7,271.0 L 522.7,271.0 L 526.7,270.6 L 530.7,270.2 L 534.7,269.6 L 538.7,269.4 L 542.7,269.4 L 546.6,268.4 L 550.6,268.2 L 554.6,268.2 L 558.6,267.6 L 562.6,267.6 L 566.6,267.4 L 570.6,267.4 L 574.6,267.6 L 578.5,267.8 L 582.5,267.6 L 586.5,267.2 L 590.5,267.4 L 594.5,267.2 L 598.5,267.0 L 602.5,267.0 L 606.5,267.0 L 610.5,267.0 L 614.4,266.6 L 618.4,266.6 L 622.4,266.6 L 626.4,265.9 L 630.4,265.9 L 634.4,265.9 L 638.4,265.9 L 642.4,265.9 L 646.4,265.9 L 650.3,265.5 L 654.3,265.5 L 658.3,265.1 L 662.3,264.3 L 666.3,264.1 L 670.3,264.1 L 674.3,264.1 L 678.3,264.1 L 682.3,263.7 L 686.2,263.5 L 690.2,263.5 L 694.2,263.3 L 698.2,262.7 L 702.2,262.3 L 706.2,262.3 L 710.2,262.1 L 714.2,262.1 L 718.1,261.9 L 722.1,261.7 L 726.1,261.7 L 730.1,261.5 L 734.1,261.5 L 738.1,261.1 L 742.1,260.5 L 746.1,260.5 L 750.1,260.4 L 754.0,260.5 L 758.0,260.4 L 762.0,260.4 L 766.0,260.2 L 770.0,260.2" fill="none" stroke="#34C759" stroke-width="2.5" stroke-linejoin="round" clip-path="url(#ca)"/>
<text x="93.9" y="55.0" text-anchor="middle" font-size="9" fill="#4F8EF7" opacity="0.85" clip-path="url(#ca)">+0.5% (+8)</text>
<text x="93.9" y="66.0" text-anchor="middle" font-size="9" fill="#BF5AF2" opacity="0.85" clip-path="url(#ca)">+1.0% (+10)</text>
<text x="93.9" y="77.0" text-anchor="middle" font-size="9" fill="#34C759" opacity="0.85" clip-path="url(#ca)">+1.5% (+11)</text>
<text x="169.7" y="55.0" text-anchor="middle" font-size="9" fill="#4F8EF7" opacity="0.85" clip-path="url(#ca)">+4.0% (+65)</text>
<text x="169.7" y="66.0" text-anchor="middle" font-size="9" fill="#BF5AF2" opacity="0.85" clip-path="url(#ca)">+3.5% (+35)</text>
<text x="169.7" y="77.0" text-anchor="middle" font-size="9" fill="#34C759" opacity="0.85" clip-path="url(#ca)">+3.6% (+27)</text>
<text x="275.4" y="55.0" text-anchor="middle" font-size="9" fill="#4F8EF7" opacity="0.85" clip-path="url(#ca)">+4.1% (+70)</text>
<text x="275.4" y="66.0" text-anchor="middle" font-size="9" fill="#BF5AF2" opacity="0.85" clip-path="url(#ca)">+3.5% (+36)</text>
<text x="275.4" y="77.0" text-anchor="middle" font-size="9" fill="#34C759" opacity="0.85" clip-path="url(#ca)">+3.3% (+26)</text>
<text x="383.1" y="55.0" text-anchor="middle" font-size="9" fill="#4F8EF7" opacity="0.85" clip-path="url(#ca)">+3.5% (+61)</text>
<text x="383.1" y="66.0" text-anchor="middle" font-size="9" fill="#BF5AF2" opacity="0.85" clip-path="url(#ca)">+2.7% (+29)</text>
<text x="383.1" y="77.0" text-anchor="middle" font-size="9" fill="#34C759" opacity="0.85" clip-path="url(#ca)">+2.6% (+21)</text>
<text x="490.8" y="55.0" text-anchor="middle" font-size="9" fill="#4F8EF7" opacity="0.85" clip-path="url(#ca)">+2.7% (+49)</text>
<text x="490.8" y="66.0" text-anchor="middle" font-size="9" fill="#BF5AF2" opacity="0.85" clip-path="url(#ca)">+3.0% (+33)</text>
<text x="490.8" y="77.0" text-anchor="middle" font-size="9" fill="#34C759" opacity="0.85" clip-path="url(#ca)">+3.2% (+27)</text>
<text x="596.5" y="55.0" text-anchor="middle" font-size="9" fill="#4F8EF7" opacity="0.85" clip-path="url(#ca)">+2.9% (+54)</text>
<text x="596.5" y="66.0" text-anchor="middle" font-size="9" fill="#BF5AF2" opacity="0.85" clip-path="url(#ca)">+1.9% (+22)</text>
<text x="596.5" y="77.0" text-anchor="middle" font-size="9" fill="#34C759" opacity="0.85" clip-path="url(#ca)">+1.5% (+13)</text>
<text x="696.2" y="55.0" text-anchor="middle" font-size="9" fill="#4F8EF7" opacity="0.85" clip-path="url(#ca)">+2.7% (+52)</text>
<text x="696.2" y="66.0" text-anchor="middle" font-size="9" fill="#BF5AF2" opacity="0.85" clip-path="url(#ca)">+2.8% (+33)</text>
<text x="696.2" y="77.0" text-anchor="middle" font-size="9" fill="#34C759" opacity="0.85" clip-path="url(#ca)">+2.8% (+25)</text>
<text x="758.0" y="55.0" text-anchor="middle" font-size="9" fill="#4F8EF7" opacity="0.85" clip-path="url(#ca)">+0.4% (+8)</text>
<text x="758.0" y="66.0" text-anchor="middle" font-size="9" fill="#BF5AF2" opacity="0.85" clip-path="url(#ca)">+0.3% (+4)</text>
<text x="758.0" y="77.0" text-anchor="middle" font-size="9" fill="#34C759" opacity="0.85" clip-path="url(#ca)">+0.2% (+2)</text>
<rect x="211" y="369" width="12" height="12" fill="#4F8EF7" rx="2"/>
<text x="227" y="379" font-size="12" fill="#111827">Authors</text>
<rect x="351" y="369" width="12" height="12" fill="#BF5AF2" rx="2"/>
<text x="367" y="379" font-size="12" fill="#111827">Contributors</text>
<rect x="491" y="369" width="12" height="12" fill="#34C759" rx="2"/>
<text x="507" y="379" font-size="12" fill="#111827">Non-author contributors</text>
<text x="72" y="394" font-size="8" fill="#e5e7eb">data since Dec 11, 2025</text>
</svg>