<svg xmlns="http://www.w3.org/2000/svg" width="800" height="400" viewBox="0 0 800 400">
<defs>
  <style>text { font-family: -apple-system, BlinkMacSystemFont, 'Segoe UI', Roboto, sans-serif; }</style>
  <linearGradient id="g5" x1="0" y1="0" x2="0" y2="1">
  <stop offset="0%" stop-color="#34C759" stop-opacity="0.25"/>
  <stop offset="100%" stop-color="#34C759" stop-opacity="0"/>
</linearGradient>
<linearGradient id="g6" x1="0" y1="0" x2="0" y2="1">
  <stop offset="0%" stop-color="#4F8EF7" stop-opacity="0.25"/>
  <stop offset="100%" stop-color="#4F8EF7" stop-opacity="0"/>
</linearGradient>
<linearGradient id="g7" x1="0" y1="0" x2="0" y2="1">
  <stop offset="0%" stop-color="#FF6363" stop-opacity="0.25"/>
  <stop offset="100%" stop-color="#FF6363" stop-opacity="0"/>
</linearGradient>
  <clipPath id="ca"><rect x="72" y="45" width="698" height="295"/></clipPath>
</defs>
<rect width="800" height="400" fill="#ffffff" rx="12"/>
<text x="400" y="26" text-anchor="middle" font-size="15" font-weight="600" fill="#111827">Platform Support Over Time</text>
<line x1="72" y1="340.0" x2="770" y2="340.0" stroke="#f3f4f6" stroke-width="1"/>
<text x="66" y="344.0" text-anchor="end" font-size="11" fill="#6b7280">0</text>
<line x1="72" y1="281.0" x2="770" y2="281.0" stroke="#f3f4f6" stroke-width="1"/>
<text x="66" y="285.0" text-anchor="end" font-size="11" fill="#6b7280">200</text>
<line x1="72" y1="222.0" x2="770" y2="222.0" stroke="#f3f4f6" stroke-width="1"/>
<text x="66" y="226.0" text-anchor="end" font-size="11" fill="#6b7280">400</text>
<line x1="72" y1="163.0" x2="770" y2="163.0" stroke="#f3f4f6" stroke-width="1"/>
<text x="66" y="167.0" text-anchor="end" font-size="11" fill="#6b7280">600</text>
<line x1="72" y1="104.0" x2="770" y2="104.0" stroke="#f3f4f6" stroke-width="1"/>
<text x="66" y="108.0" text-anchor="end" font-size="11" fill="#6b7280">800</text>
<line x1="72" y1="45.0" x2="770" y2="45.0" stroke="#f3f4f6" stroke-width="1"/>
<text x="66" y="49.0" text-anchor="end" font-size="11" fill="#6b7280">1.0k</text>
<line x1="130.2" y1="45" x2="130.2" y2="340" stroke="#e5e7eb" stroke-width="1" stroke-dasharray="3,3" clip-path="url(#ca)"/>
<line x1="256.2" y1="45" x2="256.2" y2="340" stroke="#e5e7eb" stroke-width="1" stroke-dasharray="3,3" clip-path="url(#ca)"/>
<line x1="387.1" y1="45" x2="387.1" y2="340" stroke="#e5e7eb" stroke-width="1" stroke-dasharray="3,3" clip-path="url(#ca)"/>
<line x1="517.9" y1="45" x2="517.9" y2="340" stroke="#e5e7eb" stroke-width="1" stroke-dasharray="3,3" clip-path="url(#ca)"/>
<line x1="648.8" y1="45" x2="648.8" y2="340" stroke="#e5e7eb" stroke-width="1" stroke-dasharray="3,3" clip-path="url(#ca)"/>
<text x="72.0" y="358.0" text-anchor="middle" font-size="11" fill="#6b7280">Dec 11</text>
<text x="212.6" y="358.0" text-anchor="middle" font-size="11" fill="#6b7280">Jan 23</text>
<text x="353.1" y="358.0" text-anchor="middle" font-size="11" fill="#6b7280">Feb 21</text>
<text x="488.9" y="358.0" text-anchor="middle" font-size="11" fill="#6b7280">Mar 24</text>
<text x="629.4" y="358.0" text-anchor="middle" font-size="11" fill="#6b7280">Apr 26</text>
<text x="770.0" y="358.0" text-anchor="middle" font-size="11" fill="#6b7280">May 31</text>
<line x1="72" y1="45" x2="72" y2="340" stroke="#e5e7eb" stroke-width="1"/>
<line x1="72" y1="340" x2="770" y2="340" stroke="#e5e7eb" stroke-width="1"/>
<text x="-192.5" y="18" text-anchor="middle" font-size="12" fill="#6b7280" transform="rotate(-90)">Extensions</text>
<path d="M 72.0,340 L 72.0,242.6 L 76.8,240.0 L 81.7,239.7 L 86.5,238.5 L 91.4,237.9 L 96.2,235.0 L 101.1,233.2 L 105.9,232.3 L 110.8,230.8 L 115.6,229.1 L 120.5,228.2 L 125.3,227.9 L 130.2,227.0 L 135.0,226.4 L 139.9,226.1 L 144.7,225.2 L 149.6,224.4 L 154.4,223.5 L 159.3,222.6 L 164.1,221.4 L 168.9,220.5 L 173.8,219.6 L 178.6,218.8 L 183.5,217.0 L 188.3,216.4 L 193.2,216.4 L 198.0,214.3 L 202.9,213.7 L 207.7,213.2 L 212.6,212.6 L 217.4,211.1 L 222.3,209.0 L 227.1,208.7 L 232.0,208.4 L 236.8,206.7 L 241.7,206.1 L 246.5,204.6 L 251.3,204.3 L 256.2,204.0 L 261.0,203.4 L 265.9,203.4 L 270.7,203.4 L 275.6,199.3 L 280.4,199.0 L 285.3,198.1 L 290.1,197.8 L 295.0,197.5 L 299.8,196.6 L 304.7,196.0 L 309.5,195.4 L 314.4,193.7 L 319.2,193.7 L 324.1,193.7 L 328.9,193.4 L 333.8,190.4 L 338.6,189.6 L 343.4,189.0 L 348.3,188.1 L 353.1,187.5 L 358.0,187.5 L 362.8,186.0 L 367.7,183.9 L 372.5,183.4 L 377.4,183.1 L 382.2,182.2 L 387.1,182.2 L 391.9,181.6 L 396.8,180.7 L 401.6,180.1 L 406.5,178.9 L 411.3,177.8 L 416.2,177.5 L 421.0,177.5 L 425.8,176.3 L 430.7,176.3 L 435.5,176.3 L 440.4,174.5 L 445.2,174.2 L 450.1,173.9 L 454.9,173.9 L 459.8,173.6 L 464.6,172.4 L 469.5,171.9 L 474.3,171.0 L 479.2,171.0 L 484.0,170.7 L 488.9,169.5 L 493.7,168.6 L 498.6,168.6 L 503.4,168.3 L 508.3,167.7 L 513.1,165.7 L 517.9,165.1 L 522.8,164.2 L 527.6,164.2 L 532.5,163.6 L 537.3,163.3 L 542.2,163.0 L 547.0,162.7 L 551.9,162.4 L 556.7,162.4 L 561.6,162.1 L 566.4,161.8 L 571.3,160.9 L 576.1,159.8 L 581.0,159.5 L 585.8,158.6 L 590.7,158.6 L 595.5,157.4 L 600.3,157.1 L 605.2,157.1 L 610.0,157.1 L 614.9,156.2 L 619.7,155.9 L 624.6,155.9 L 629.4,155.9 L 634.3,155.6 L 639.1,154.4 L 644.0,154.2 L 648.8,153.3 L 653.7,152.7 L 658.5,152.7 L 663.4,151.8 L 668.2,151.2 L 673.1,151.2 L 677.9,150.9 L 682.8,149.4 L 687.6,148.0 L 692.4,147.7 L 697.3,147.1 L 702.1,145.9 L 707.0,145.9 L 711.8,145.3 L 716.7,143.8 L 721.5,141.2 L 726.4,140.3 L 731.2,140.3 L 736.1,140.3 L 740.9,140.3 L 745.8,140.3 L 750.6,139.1 L 755.5,138.2 L 760.3,138.2 L 765.2,138.2 L 770.0,138.2 L 770.0,340 Z" fill="url(#g5)" clip-path="url(#ca)"/>
<path d="M 72.0,242.6 L 76.8,240.0 L 81.7,239.7 L 86.5,238.5 L 91.4,237.9 L 96.2,235.0 L 101.1,233.2 L 105.9,232.3 L 110.8,230.8 L 115.6,229.1 L 120.5,228.2 L 125.3,227.9 L 130.2,227.0 L 135.0,226.4 L 139.9,226.1 L 144.7,225.2 L 149.6,224.4 L 154.4,223.5 L 159.3,222.6 L 164.1,221.4 L 168.9,220.5 L 173.8,219.6 L 178.6,218.8 L 183.5,217.0 L 188.3,216.4 L 193.2,216.4 L 198.0,214.3 L 202.9,213.7 L 207.7,213.2 L 212.6,212.6 L 217.4,211.1 L 222.3,209.0 L 227.1,208.7 L 232.0,208.4 L 236.8,206.7 L 241.7,206.1 L 246.5,204.6 L 251.3,204.3 L 256.2,204.0 L 261.0,203.4 L 265.9,203.4 L 270.7,203.4 L 275.6,199.3 L 280.4,199.0 L 285.3,198.1 L 290.1,197.8 L 295.0,197.5 L 299.8,196.6 L 304.7,196.0 L 309.5,195.4 L 314.4,193.7 L 319.2,193.7 L 324.1,193.7 L 328.9,193.4 L 333.8,190.4 L 338.6,189.6 L 343.4,189.0 L 348.3,188.1 L 353.1,187.5 L 358.0,187.5 L 362.8,186.0 L 367.7,183.9 L 372.5,183.4 L 377.4,183.1 L 382.2,182.2 L 387.1,182.2 L 391.9,181.6 L 396.8,180.7 L 401.6,180.1 L 406.5,178.9 L 411.3,177.8 L 416.2,177.5 L 421.0,177.5 L 425.8,176.3 L 430.7,176.3 L 435.5,176.3 L 440.4,174.5 L 445.2,174.2 L 450.1,173.9 L 454.9,173.9 L 459.8,173.6 L 464.6,172.4 L 469.5,171.9 L 474.3,171.0 L 479.2,171.0 L 484.0,170.7 L 488.9,169.5 L 493.7,168.6 L 498.6,168.6 L 503.4,168.3 L 508.3,167.7 L 513.1,165.7 L 517.9,165.1 L 522.8,164.2 L 527.6,164.2 L 532.5,163.6 L 537.3,163.3 L 542.2,163.0 L 547.0,162.7 L 551.9,162.4 L 556.7,162.4 L 561.6,162.1 L 566.4,161.8 L 571.3,160.9 L 576.1,159.8 L 581.0,159.5 L 585.8,158.6 L 590.7,158.6 L 595.5,157.4 L 600.3,157.1 L 605.2,157.1 L 610.0,157.1 L 614.9,156.2 L 619.7,155.9 L 624.6,155.9 L 629.4,155.9 L 634.3,155.6 L 639.1,154.4 L 644.0,154.2 L 648.8,153.3 L 653.7,152.7 L 658.5,152.7 L 663.4,151.8 L 668.2,151.2 L 673.1,151.2 L 677.9,150.9 L 682.8,149.4 L 687.6,148.0 L 692.4,147.7 L 697.3,147.1 L 702.1,145.9 L 707.0,145.9 L 711.8,145.3 L 716.7,143.8 L 721.5,141.2 L 726.4,140.3 L 731.2,140.3 L 736.1,140.3 L 740.9,140.3 L 745.8,140.3 L 750.6,139.1 L 755.5,138.2 L 760.3,138.2 L 765.2,138.2 L 770.0,138.2" fill="none" stroke="#34C759" stroke-width="2.5" stroke-linejoin="round" clip-path="url(#ca)"/>
<path d="M 72.0,340 L 72.0,222.6 L 76.8,222.6 L 81.7,222.3 L 86.5,221.4 L 91.4,221.7 L 96.2,221.7 L 101.1,220.5 L 105.9,219.6 L 110.8,219.6 L 115.6,219.9 L 120.5,219.6 L 125.3,219.3 L 130.2,219.1 L 135.0,219.1 L 139.9,219.1 L 144.7,219.3 L 149.6,218.8 L 154.4,218.2 L 159.3,216.4 L 164.1,215.2 L 168.9,215.2 L 173.8,214.9 L 178.6,213.2 L 183.5,210.5 L 188.3,209.6 L 193.2,209.0 L 198.0,207.0 L 202.9,205.5 L 207.7,204.9 L 212.6,204.3 L 217.4,203.7 L 222.3,203.4 L 227.1,203.4 L 232.0,201.3 L 236.8,200.8 L 241.7,200.2 L 246.5,200.2 L 251.3,198.7 L 256.2,198.4 L 261.0,197.5 L 265.9,196.3 L 270.7,194.9 L 275.6,192.8 L 280.4,190.7 L 285.3,190.4 L 290.1,189.8 L 295.0,189.3 L 299.8,187.5 L 304.7,187.5 L 309.5,186.9 L 314.4,186.0 L 319.2,185.4 L 324.1,184.2 L 328.9,184.5 L 333.8,181.0 L 338.6,180.7 L 343.4,180.4 L 348.3,179.8 L 353.1,178.0 L 358.0,178.0 L 362.8,176.3 L 367.7,174.2 L 372.5,174.2 L 377.4,174.2 L 382.2,173.9 L 387.1,173.6 L 391.9,173.3 L 396.8,171.9 L 401.6,170.1 L 406.5,169.5 L 411.3,168.3 L 416.2,168.3 L 421.0,167.4 L 425.8,165.7 L 430.7,164.8 L 435.5,164.5 L 440.4,162.4 L 445.2,162.1 L 450.1,162.1 L 454.9,161.8 L 459.8,161.8 L 464.6,160.3 L 469.5,159.8 L 474.3,158.9 L 479.2,158.6 L 484.0,158.0 L 488.9,155.6 L 493.7,152.4 L 498.6,152.1 L 503.4,151.5 L 508.3,151.2 L 513.1,149.7 L 517.9,118.5 L 522.8,117.9 L 527.6,116.4 L 532.5,116.4 L 537.3,116.4 L 542.2,116.7 L 547.0,116.4 L 551.9,114.6 L 556.7,114.0 L 561.6,113.7 L 566.4,113.4 L 571.3,112.3 L 576.1,110.5 L 581.0,110.5 L 585.8,110.5 L 590.7,110.2 L 595.5,109.9 L 600.3,109.9 L 605.2,109.3 L 610.0,108.4 L 614.9,106.9 L 619.7,106.4 L 624.6,106.1 L 629.4,106.1 L 634.3,105.8 L 639.1,105.2 L 644.0,104.9 L 648.8,103.4 L 653.7,103.4 L 658.5,102.8 L 663.4,101.6 L 668.2,100.2 L 673.1,99.9 L 677.9,99.6 L 682.8,96.9 L 687.6,96.3 L 692.4,95.7 L 697.3,95.7 L 702.1,94.6 L 707.0,94.0 L 711.8,92.5 L 716.7,91.9 L 721.5,91.0 L 726.4,90.7 L 731.2,89.5 L 736.1,88.7 L 740.9,88.4 L 745.8,87.8 L 750.6,86.6 L 755.5,86.0 L 760.3,85.1 L 765.2,84.5 L 770.0,84.2 L 770.0,340 Z" fill="url(#g6)" clip-path="url(#ca)"/>
<path d="M 72.0,222.6 L 76.8,222.6 L 81.7,222.3 L 86.5,221.4 L 91.4,221.7 L 96.2,221.7 L 101.1,220.5 L 105.9,219.6 L 110.8,219.6 L 115.6,219.9 L 120.5,219.6 L 125.3,219.3 L 130.2,219.1 L 135.0,219.1 L 139.9,219.1 L 144.7,219.3 L 149.6,218.8 L 154.4,218.2 L 159.3,216.4 L 164.1,215.2 L 168.9,215.2 L 173.8,214.9 L 178.6,213.2 L 183.5,210.5 L 188.3,209.6 L 193.2,209.0 L 198.0,207.0 L 202.9,205.5 L 207.7,204.9 L 212.6,204.3 L 217.4,203.7 L 222.3,203.4 L 227.1,203.4 L 232.0,201.3 L 236.8,200.8 L 241.7,200.2 L 246.5,200.2 L 251.3,198.7 L 256.2,198.4 L 261.0,197.5 L 265.9,196.3 L 270.7,194.9 L 275.6,192.8 L 280.4,190.7 L 285.3,190.4 L 290.1,189.8 L 295.0,189.3 L 299.8,187.5 L 304.7,187.5 L 309.5,186.9 L 314.4,186.0 L 319.2,185.4 L 324.1,184.2 L 328.9,184.5 L 333.8,181.0 L 338.6,180.7 L 343.4,180.4 L 348.3,179.8 L 353.1,178.0 L 358.0,178.0 L 362.8,176.3 L 367.7,174.2 L 372.5,174.2 L 377.4,174.2 L 382.2,173.9 L 387.1,173.6 L 391.9,173.3 L 396.8,171.9 L 401.6,170.1 L 406.5,169.5 L 411.3,168.3 L 416.2,168.3 L 421.0,167.4 L 425.8,165.7 L 430.7,164.8 L 435.5,164.5 L 440.4,162.4 L 445.2,162.1 L 450.1,162.1 L 454.9,161.8 L 459.8,161.8 L 464.6,160.3 L 469.5,159.8 L 474.3,158.9 L 479.2,158.6 L 484.0,158.0 L 488.9,155.6 L 493.7,152.4 L 498.6,152.1 L 503.4,151.5 L 508.3,151.2 L 513.1,149.7 L 517.9,118.5 L 522.8,117.9 L 527.6,116.4 L 532.5,116.4 L 537.3,116.4 L 542.2,116.7 L 547.0,116.4 L 551.9,114.6 L 556.7,114.0 L 561.6,113.7 L 566.4,113.4 L 571.3,112.3 L 576.1,110.5 L 581.0,110.5 L 585.8,110.5 L 590.7,110.2 L 595.5,109.9 L 600.3,109.9 L 605.2,109.3 L 610.0,108.4 L 614.9,106.9 L 619.7,106.4 L 624.6,106.1 L 629.4,106.1 L 634.3,105.8 L 639.1,105.2 L 644.0,104.9 L 648.8,103.4 L 653.7,103.4 L 658.5,102.8 L 663.4,101.6 L 668.2,100.2 L 673.1,99.9 L 677.9,99.6 L 682.8,96.9 L 687.6,96.3 L 692.4,95.7 L 697.3,95.7 L 702.1,94.6 L 707.0,94.0 L 711.8,92.5 L 716.7,91.9 L 721.5,91.0 L 726.4,90.7 L 731.2,89.5 L 736.1,88.7 L 740.9,88.4 L 745.8,87.8 L 750.6,86.6 L 755.5,86.0 L 760.3,85.1 L 765.2,84.5 L 770.0,84.2" fill="none" stroke="#4F8EF7" stroke-width="2.5" stroke-linejoin="round" clip-path="url(#ca)"/>
<path d="M 72.0,340 L 72.0,338.2 L 76.8,337.9 L 81.7,337.9 L 86.5,337.6 L 91.4,337.6 L 96.2,337.6 L 101.1,337.6 L 105.9,337.6 L 110.8,337.1 L 115.6,337.1 L 120.5,337.1 L 125.3,337.1 L 130.2,337.1 L 135.0,336.8 L 139.9,336.8 L 144.7,336.8 L 149.6,336.8 L 154.4,336.8 L 159.3,336.5 L 164.1,335.9 L 168.9,335.6 L 173.8,335.6 L 178.6,335.6 L 183.5,335.3 L 188.3,335.3 L 193.2,335.3 L 198.0,335.0 L 202.9,335.0 L 207.7,335.0 L 212.6,334.7 L 217.4,334.7 L 222.3,334.7 L 227.1,334.7 L 232.0,334.4 L 236.8,334.4 L 241.7,334.4 L 246.5,334.4 L 251.3,334.4 L 256.2,334.4 L 261.0,334.4 L 265.9,334.4 L 270.7,334.4 L 275.6,334.4 L 280.4,334.4 L 285.3,334.4 L 290.1,334.4 L 295.0,334.1 L 299.8,334.1 L 304.7,334.1 L 309.5,334.1 L 314.4,334.1 L 319.2,334.1 L 324.1,334.1 L 328.9,334.1 L 333.8,334.1 L 338.6,334.1 L 343.4,334.1 L 348.3,334.1 L 353.1,333.8 L 358.0,333.8 L 362.8,333.8 L 367.7,333.8 L 372.5,333.8 L 377.4,333.8 L 382.2,333.8 L 387.1,333.8 L 391.9,333.8 L 396.8,333.8 L 401.6,333.8 L 406.5,333.8 L 411.3,333.8 L 416.2,333.8 L 421.0,333.8 L 425.8,333.8 L 430.7,333.8 L 435.5,333.8 L 440.4,333.8 L 445.2,333.8 L 450.1,333.8 L 454.9,333.8 L 459.8,333.8 L 464.6,333.8 L 469.5,333.8 L 474.3,333.8 L 479.2,333.8 L 484.0,333.8 L 488.9,333.8 L 493.7,333.8 L 498.6,333.8 L 503.4,333.8 L 508.3,333.8 L 513.1,333.8 L 517.9,333.8 L 522.8,333.8 L 527.6,333.5 L 532.5,333.5 L 537.3,333.5 L 542.2,333.5 L 547.0,333.5 L 551.9,333.2 L 556.7,333.2 L 561.6,333.2 L 566.4,333.2 L 571.3,332.9 L 576.1,332.9 L 581.0,332.6 L 585.8,332.6 L 590.7,332.6 L 595.5,332.6 L 600.3,332.6 L 605.2,332.6 L 610.0,332.6 L 614.9,332.6 L 619.7,332.6 L 624.6,332.6 L 629.4,332.6 L 634.3,332.6 L 639.1,332.6 L 644.0,332.6 L 648.8,332.6 L 653.7,332.6 L 658.5,332.6 L 663.4,332.6 L 668.2,332.6 L 673.1,332.6 L 677.9,332.6 L 682.8,332.6 L 687.6,332.6 L 692.4,332.6 L 697.3,332.6 L 702.1,332.6 L 707.0,332.6 L 711.8,332.6 L 716.7,332.6 L 721.5,332.6 L 726.4,332.6 L 731.2,332.6 L 736.1,332.6 L 740.9,332.6 L 745.8,332.6 L 750.6,332.6 L 755.5,332.6 L 760.3,332.6 L 765.2,332.6 L 770.0,332.6 L 770.0,340 Z" fill="url(#g7)" clip-path="url(#ca)"/>
<path d="M 72.0,338.2 L 76.8,337.9 L 81.7,337.9 L 86.5,337.6 L 91.4,337.6 L 96.2,337.6 L 101.1,337.6 L 105.9,337.6 L 110.8,337.1 L 115.6,337.1 L 120.5,337.1 L 125.3,337.1 L 130.2,337.1 L 135.0,336.8 L 139.9,336.8 L 144.7,336.8 L 149.6,336.8 L 154.4,336.8 L 159.3,336.5 L 164.1,335.9 L 168.9,335.6 L 173.8,335.6 L 178.6,335.6 L 183.5,335.3 L 188.3,335.3 L 193.2,335.3 L 198.0,335.0 L 202.9,335.0 L 207.7,335.0 L 212.6,334.7 L 217.4,334.7 L 222.3,334.7 L 227.1,334.7 L 232.0,334.4 L 236.8,334.4 L 241.7,334.4 L 246.5,334.4 L 251.3,334.4 L 256.2,334.4 L 261.0,334.4 L 265.9,334.4 L 270.7,334.4 L 275.6,334.4 L 280.4,334.4 L 285.3,334.4 L 290.1,334.4 L 295.0,334.1 L 299.8,334.1 L 304.7,334.1 L 309.5,334.1 L 314.4,334.1 L 319.2,334.1 L 324.1,334.1 L 328.9,334.1 L 333.8,334.1 L 338.6,334.1 L 343.4,334.1 L 348.3,334.1 L 353.1,333.8 L 358.0,333.8 L 362.8,333.8 L 367.7,333.8 L 372.5,333.8 L 377.4,333.8 L 382.2,333.8 L 387.1,333.8 L 391.9,333.8 L 396.8,333.8 L 401.6,333.8 L 406.5,333.8 L 411.3,333.8 L 416.2,333.8 L 421.0,333.8 L 425.8,333.8 L 430.7,333.8 L 435.5,333.8 L 440.4,333.8 L 445.2,333.8 L 450.1,333.8 L 454.9,333.8 L 459.8,333.8 L 464.6,333.8 L 469.5,333.8 L 474.3,333.8 L 479.2,333.8 L 484.0,333.8 L 488.9,333.8 L 493.7,333.8 L 498.6,333.8 L 503.4,333.8 L 508.3,333.8 L 513.1,333.8 L 517.9,333.8 L 522.8,333.8 L 527.6,333.5 L 532.5,333.5 L 537.3,333.5 L 542.2,333.5 L 547.0,333.5 L 551.9,333.2 L 556.7,333.2 L 561.6,333.2 L 566.4,333.2 L 571.3,332.9 L 576.1,332.9 L 581.0,332.6 L 585.8,332.6 L 590.7,332.6 L 595.5,332.6 L 600.3,332.6 L 605.2,332.6 L 610.0,332.6 L 614.9,332.6 L 619.7,332.6 L 624.6,332.6 L 629.4,332.6 L 634.3,332.6 L 639.1,332.6 L 644.0,332.6 L 648.8,332.6 L 653.7,332.6 L 658.5,332.6 L 663.4,332.6 L 668.2,332.6 L 673.1,332.6 L 677.9,332.6 L 682.8,332.6 L 687.6,332.6 L 692.4,332.6 L 697.3,332.6 L 702.1,332.6 L 707.0,332.6 L 711.8,332.6 L 716.7,332.6 L 721.5,332.6 L 726.4,332.6 L 731.2,332.6 L 736.1,332.6 L 740.9,332.6 L 745.8,332.6 L 750.6,332.6 L 755.5,332.6 L 760.3,332.6 L 765.2,332.6 L 770.0,332.6" fill="none" stroke="#FF6363" stroke-width="2.5" stroke-linejoin="round" clip-path="url(#ca)"/>
<text x="98.7" y="55.0" text-anchor="middle" font-size="9" fill="#34C759" opacity="0.85" clip-path="url(#ca)">+15.2% (+50)</text>
<text x="98.7" y="66.0" text-anchor="middle" font-size="9" fill="#4F8EF7" opacity="0.85" clip-path="url(#ca)">+2.8% (+11)</text>
<text x="98.7" y="77.0" text-anchor="middle" font-size="9" fill="#FF6363" opacity="0.85" clip-path="url(#ca)">+66.7% (+4)</text>
<text x="190.8" y="55.0" text-anchor="middle" font-size="9" fill="#34C759" opacity="0.85" clip-path="url(#ca)">+20.1% (+77)</text>
<text x="190.8" y="66.0" text-anchor="middle" font-size="9" fill="#4F8EF7" opacity="0.85" clip-path="url(#ca)">+16.8% (+69)</text>
<text x="190.8" y="77.0" text-anchor="middle" font-size="9" fill="#FF6363" opacity="0.85" clip-path="url(#ca)">+90.0% (+9)</text>
<text x="319.2" y="55.0" text-anchor="middle" font-size="9" fill="#34C759" opacity="0.85" clip-path="url(#ca)">+16.1% (+74)</text>
<text x="319.2" y="66.0" text-anchor="middle" font-size="9" fill="#4F8EF7" opacity="0.85" clip-path="url(#ca)">+17.3% (+83)</text>
<text x="319.2" y="77.0" text-anchor="middle" font-size="9" fill="#FF6363" opacity="0.85" clip-path="url(#ca)">+10.5% (+2)</text>
<text x="450.1" y="55.0" text-anchor="middle" font-size="9" fill="#34C759" opacity="0.85" clip-path="url(#ca)">+10.5% (+56)</text>
<text x="450.1" y="66.0" text-anchor="middle" font-size="9" fill="#4F8EF7" opacity="0.85" clip-path="url(#ca)">+14.4% (+81)</text>
<text x="450.1" y="77.0" text-anchor="middle" font-size="9" fill="#FF6363" opacity="0.85" clip-path="url(#ca)">+0.0% (+0)</text>
<text x="581.0" y="55.0" text-anchor="middle" font-size="9" fill="#34C759" opacity="0.85" clip-path="url(#ca)">+6.2% (+37)</text>
<text x="581.0" y="66.0" text-anchor="middle" font-size="9" fill="#4F8EF7" opacity="0.85" clip-path="url(#ca)">+6.1% (+46)</text>
<text x="581.0" y="77.0" text-anchor="middle" font-size="9" fill="#FF6363" opacity="0.85" clip-path="url(#ca)">+19.0% (+4)</text>
<text x="709.4" y="55.0" text-anchor="middle" font-size="9" fill="#34C759" opacity="0.85" clip-path="url(#ca)">+8.1% (+51)</text>
<text x="709.4" y="66.0" text-anchor="middle" font-size="9" fill="#4F8EF7" opacity="0.85" clip-path="url(#ca)">+8.1% (+65)</text>
<text x="709.4" y="77.0" text-anchor="middle" font-size="9" fill="#FF6363" opacity="0.85" clip-path="url(#ca)">+0.0% (+0)</text>
<rect x="211" y="369" width="12" height="12" fill="#34C759" rx="2"/>
<text x="227" y="379" font-size="12" fill="#111827">macOS + Windows</text>
<rect x="351" y="369" width="12" height="12" fill="#4F8EF7" rx="2"/>
<text x="367" y="379" font-size="12" fill="#111827">macOS only</text>
<rect x="491" y="369" width="12" height="12" fill="#FF6363" rx="2"/>
<text x="507" y="379" font-size="12" fill="#111827">Windows only</text>
<text x="72" y="394" font-size="8" fill="#e5e7eb">data since Dec 11, 2025</text>
</svg>