<svg xmlns="http://www.w3.org/2000/svg" width="800" height="400" viewBox="0 0 800 400">
<defs>
  <style>text { font-family: -apple-system, BlinkMacSystemFont, 'Segoe UI', Roboto, sans-serif; }</style>
  <linearGradient id="g5" x1="0" y1="0" x2="0" y2="1">
  <stop offset="0%" stop-color="#34C759" stop-opacity="0.25"/>
  <stop offset="100%" stop-color="#34C759" stop-opacity="0"/>
</linearGradient>
<linearGradient id="g6" x1="0" y1="0" x2="0" y2="1">
  <stop offset="0%" stop-color="#4F8EF7" stop-opacity="0.25"/>
  <stop offset="100%" stop-color="#4F8EF7" stop-opacity="0"/>
</linearGradient>
<linearGradient id="g7" x1="0" y1="0" x2="0" y2="1">
  <stop offset="0%" stop-color="#FF6363" stop-opacity="0.25"/>
  <stop offset="100%" stop-color="#FF6363" stop-opacity="0"/>
</linearGradient>
  <clipPath id="ca"><rect x="72" y="45" width="698" height="295"/></clipPath>
</defs>
<rect width="800" height="400" fill="#ffffff" rx="12"/>
<text x="400" y="26" text-anchor="middle" font-size="15" font-weight="600" fill="#111827">Platform Support Over Time</text>
<line x1="72" y1="340.0" x2="770" y2="340.0" stroke="#f3f4f6" stroke-width="1"/>
<text x="66" y="344.0" text-anchor="end" font-size="11" fill="#6b7280">0</text>
<line x1="72" y1="266.3" x2="770" y2="266.3" stroke="#f3f4f6" stroke-width="1"/>
<text x="66" y="270.3" text-anchor="end" font-size="11" fill="#6b7280">200</text>
<line x1="72" y1="192.5" x2="770" y2="192.5" stroke="#f3f4f6" stroke-width="1"/>
<text x="66" y="196.5" text-anchor="end" font-size="11" fill="#6b7280">400</text>
<line x1="72" y1="118.8" x2="770" y2="118.8" stroke="#f3f4f6" stroke-width="1"/>
<text x="66" y="122.8" text-anchor="end" font-size="11" fill="#6b7280">600</text>
<line x1="72" y1="45.0" x2="770" y2="45.0" stroke="#f3f4f6" stroke-width="1"/>
<text x="66" y="49.0" text-anchor="end" font-size="11" fill="#6b7280">800</text>
<line x1="150.3" y1="45" x2="150.3" y2="340" stroke="#e5e7eb" stroke-width="1" stroke-dasharray="3,3" clip-path="url(#ca)"/>
<line x1="319.9" y1="45" x2="319.9" y2="340" stroke="#e5e7eb" stroke-width="1" stroke-dasharray="3,3" clip-path="url(#ca)"/>
<line x1="496.0" y1="45" x2="496.0" y2="340" stroke="#e5e7eb" stroke-width="1" stroke-dasharray="3,3" clip-path="url(#ca)"/>
<line x1="672.1" y1="45" x2="672.1" y2="340" stroke="#e5e7eb" stroke-width="1" stroke-dasharray="3,3" clip-path="url(#ca)"/>
<text x="72.0" y="358.0" text-anchor="middle" font-size="11" fill="#6b7280">Dec 11</text>
<text x="209.0" y="358.0" text-anchor="middle" font-size="11" fill="#6b7280">Jan 14</text>
<text x="352.5" y="358.0" text-anchor="middle" font-size="11" fill="#6b7280">Feb 6</text>
<text x="489.5" y="358.0" text-anchor="middle" font-size="11" fill="#6b7280">Feb 28</text>
<text x="633.0" y="358.0" text-anchor="middle" font-size="11" fill="#6b7280">Mar 24</text>
<text x="770.0" y="358.0" text-anchor="middle" font-size="11" fill="#6b7280">Apr 17</text>
<line x1="72" y1="45" x2="72" y2="340" stroke="#e5e7eb" stroke-width="1"/>
<line x1="72" y1="340" x2="770" y2="340" stroke="#e5e7eb" stroke-width="1"/>
<text x="-192.5" y="18" text-anchor="middle" font-size="12" fill="#6b7280" transform="rotate(-90)">Extensions</text>
<path d="M 72.0,340 L 72.0,218.3 L 78.5,215.0 L 85.0,214.6 L 91.6,213.2 L 98.1,212.4 L 104.6,208.7 L 111.1,206.5 L 117.7,205.4 L 124.2,203.6 L 130.7,201.3 L 137.2,200.2 L 143.8,199.9 L 150.3,198.8 L 156.8,198.0 L 163.3,197.7 L 169.9,196.6 L 176.4,195.4 L 182.9,194.3 L 189.4,193.2 L 195.9,191.8 L 202.5,190.7 L 209.0,189.6 L 215.5,188.4 L 222.0,186.2 L 228.6,185.5 L 235.1,185.5 L 241.6,182.9 L 248.1,182.2 L 254.7,181.4 L 261.2,180.7 L 267.7,178.9 L 274.2,176.3 L 280.7,175.9 L 287.3,175.5 L 293.8,173.3 L 300.3,172.6 L 306.8,170.7 L 313.4,170.4 L 319.9,170.0 L 326.4,169.3 L 332.9,169.3 L 339.5,169.3 L 346.0,164.1 L 352.5,163.7 L 359.0,162.6 L 365.6,162.3 L 372.1,161.9 L 378.6,160.8 L 385.1,160.1 L 391.6,159.3 L 398.2,157.1 L 404.7,157.1 L 411.2,157.1 L 417.7,156.7 L 424.3,153.0 L 430.8,151.9 L 437.3,151.2 L 443.8,150.1 L 450.4,149.4 L 456.9,149.4 L 463.4,147.5 L 469.9,144.9 L 476.4,144.2 L 483.0,143.8 L 489.5,142.7 L 496.0,142.7 L 502.5,142.0 L 509.1,140.9 L 515.6,140.1 L 522.1,138.7 L 528.6,137.2 L 535.2,136.8 L 541.7,136.8 L 548.2,135.3 L 554.7,135.3 L 561.3,135.3 L 567.8,133.1 L 574.3,132.8 L 580.8,132.4 L 587.3,132.4 L 593.9,132.0 L 600.4,130.6 L 606.9,129.8 L 613.4,128.7 L 620.0,128.7 L 626.5,128.3 L 633.0,126.9 L 639.5,125.8 L 646.1,125.8 L 652.6,125.4 L 659.1,124.7 L 665.6,122.1 L 672.1,121.3 L 678.7,120.2 L 685.2,120.2 L 691.7,119.5 L 698.2,119.1 L 704.8,118.8 L 711.3,118.4 L 717.8,118.0 L 724.3,118.0 L 730.9,117.6 L 737.4,117.3 L 743.9,116.2 L 750.4,114.7 L 757.0,114.3 L 763.5,113.2 L 770.0,113.2 L 770.0,340 Z" fill="url(#g5)" clip-path="url(#ca)"/>
<path d="M 72.0,218.3 L 78.5,215.0 L 85.0,214.6 L 91.6,213.2 L 98.1,212.4 L 104.6,208.7 L 111.1,206.5 L 117.7,205.4 L 124.2,203.6 L 130.7,201.3 L 137.2,200.2 L 143.8,199.9 L 150.3,198.8 L 156.8,198.0 L 163.3,197.7 L 169.9,196.6 L 176.4,195.4 L 182.9,194.3 L 189.4,193.2 L 195.9,191.8 L 202.5,190.7 L 209.0,189.6 L 215.5,188.4 L 222.0,186.2 L 228.6,185.5 L 235.1,185.5 L 241.6,182.9 L 248.1,182.2 L 254.7,181.4 L 261.2,180.7 L 267.7,178.9 L 274.2,176.3 L 280.7,175.9 L 287.3,175.5 L 293.8,173.3 L 300.3,172.6 L 306.8,170.7 L 313.4,170.4 L 319.9,170.0 L 326.4,169.3 L 332.9,169.3 L 339.5,169.3 L 346.0,164.1 L 352.5,163.7 L 359.0,162.6 L 365.6,162.3 L 372.1,161.9 L 378.6,160.8 L 385.1,160.1 L 391.6,159.3 L 398.2,157.1 L 404.7,157.1 L 411.2,157.1 L 417.7,156.7 L 424.3,153.0 L 430.8,151.9 L 437.3,151.2 L 443.8,150.1 L 450.4,149.4 L 456.9,149.4 L 463.4,147.5 L 469.9,144.9 L 476.4,144.2 L 483.0,143.8 L 489.5,142.7 L 496.0,142.7 L 502.5,142.0 L 509.1,140.9 L 515.6,140.1 L 522.1,138.7 L 528.6,137.2 L 535.2,136.8 L 541.7,136.8 L 548.2,135.3 L 554.7,135.3 L 561.3,135.3 L 567.8,133.1 L 574.3,132.8 L 580.8,132.4 L 587.3,132.4 L 593.9,132.0 L 600.4,130.6 L 606.9,129.8 L 613.4,128.7 L 620.0,128.7 L 626.5,128.3 L 633.0,126.9 L 639.5,125.8 L 646.1,125.8 L 652.6,125.4 L 659.1,124.7 L 665.6,122.1 L 672.1,121.3 L 678.7,120.2 L 685.2,120.2 L 691.7,119.5 L 698.2,119.1 L 704.8,118.8 L 711.3,118.4 L 717.8,118.0 L 724.3,118.0 L 730.9,117.6 L 737.4,117.3 L 743.9,116.2 L 750.4,114.7 L 757.0,114.3 L 763.5,113.2 L 770.0,113.2" fill="none" stroke="#34C759" stroke-width="2.5" stroke-linejoin="round" clip-path="url(#ca)"/>
<path d="M 72.0,340 L 72.0,193.2 L 78.5,193.2 L 85.0,192.9 L 91.6,191.8 L 98.1,192.1 L 104.6,192.1 L 111.1,190.7 L 117.7,189.6 L 124.2,189.6 L 130.7,189.9 L 137.2,189.6 L 143.8,189.2 L 150.3,188.8 L 156.8,188.8 L 163.3,188.8 L 169.9,189.2 L 176.4,188.4 L 182.9,187.7 L 189.4,185.5 L 195.9,184.0 L 202.5,184.0 L 209.0,183.7 L 215.5,181.4 L 222.0,178.1 L 228.6,177.0 L 235.1,176.3 L 241.6,173.7 L 248.1,171.9 L 254.7,171.1 L 261.2,170.4 L 267.7,169.6 L 274.2,169.3 L 280.7,169.3 L 287.3,166.7 L 293.8,166.0 L 300.3,165.2 L 306.8,165.2 L 313.4,163.4 L 319.9,163.0 L 326.4,161.9 L 332.9,160.4 L 339.5,158.6 L 346.0,156.0 L 352.5,153.4 L 359.0,153.0 L 365.6,152.3 L 372.1,151.6 L 378.6,149.4 L 385.1,149.4 L 391.6,148.6 L 398.2,147.5 L 404.7,146.8 L 411.2,145.3 L 417.7,145.7 L 424.3,141.2 L 430.8,140.9 L 437.3,140.5 L 443.8,139.8 L 450.4,137.6 L 456.9,137.6 L 463.4,135.3 L 469.9,132.8 L 476.4,132.8 L 483.0,132.8 L 489.5,132.4 L 496.0,132.0 L 502.5,131.7 L 509.1,129.8 L 515.6,127.6 L 522.1,126.9 L 528.6,125.4 L 535.2,125.4 L 541.7,124.3 L 548.2,122.1 L 554.7,121.0 L 561.3,120.6 L 567.8,118.0 L 574.3,117.6 L 580.8,117.6 L 587.3,117.3 L 593.9,117.3 L 600.4,115.4 L 606.9,114.7 L 613.4,113.6 L 620.0,113.2 L 626.5,112.5 L 633.0,109.5 L 639.5,105.5 L 646.1,105.1 L 652.6,104.4 L 659.1,104.0 L 665.6,102.2 L 672.1,63.1 L 678.7,62.3 L 685.2,60.5 L 691.7,60.5 L 698.2,60.5 L 704.8,60.9 L 711.3,60.5 L 717.8,58.3 L 724.3,57.5 L 730.9,57.2 L 737.4,56.8 L 743.9,55.3 L 750.4,53.1 L 757.0,53.1 L 763.5,53.1 L 770.0,52.7 L 770.0,340 Z" fill="url(#g6)" clip-path="url(#ca)"/>
<path d="M 72.0,193.2 L 78.5,193.2 L 85.0,192.9 L 91.6,191.8 L 98.1,192.1 L 104.6,192.1 L 111.1,190.7 L 117.7,189.6 L 124.2,189.6 L 130.7,189.9 L 137.2,189.6 L 143.8,189.2 L 150.3,188.8 L 156.8,188.8 L 163.3,188.8 L 169.9,189.2 L 176.4,188.4 L 182.9,187.7 L 189.4,185.5 L 195.9,184.0 L 202.5,184.0 L 209.0,183.7 L 215.5,181.4 L 222.0,178.1 L 228.6,177.0 L 235.1,176.3 L 241.6,173.7 L 248.1,171.9 L 254.7,171.1 L 261.2,170.4 L 267.7,169.6 L 274.2,169.3 L 280.7,169.3 L 287.3,166.7 L 293.8,166.0 L 300.3,165.2 L 306.8,165.2 L 313.4,163.4 L 319.9,163.0 L 326.4,161.9 L 332.9,160.4 L 339.5,158.6 L 346.0,156.0 L 352.5,153.4 L 359.0,153.0 L 365.6,152.3 L 372.1,151.6 L 378.6,149.4 L 385.1,149.4 L 391.6,148.6 L 398.2,147.5 L 404.7,146.8 L 411.2,145.3 L 417.7,145.7 L 424.3,141.2 L 430.8,140.9 L 437.3,140.5 L 443.8,139.8 L 450.4,137.6 L 456.9,137.6 L 463.4,135.3 L 469.9,132.8 L 476.4,132.8 L 483.0,132.8 L 489.5,132.4 L 496.0,132.0 L 502.5,131.7 L 509.1,129.8 L 515.6,127.6 L 522.1,126.9 L 528.6,125.4 L 535.2,125.4 L 541.7,124.3 L 548.2,122.1 L 554.7,121.0 L 561.3,120.6 L 567.8,118.0 L 574.3,117.6 L 580.8,117.6 L 587.3,117.3 L 593.9,117.3 L 600.4,115.4 L 606.9,114.7 L 613.4,113.6 L 620.0,113.2 L 626.5,112.5 L 633.0,109.5 L 639.5,105.5 L 646.1,105.1 L 652.6,104.4 L 659.1,104.0 L 665.6,102.2 L 672.1,63.1 L 678.7,62.3 L 685.2,60.5 L 691.7,60.5 L 698.2,60.5 L 704.8,60.9 L 711.3,60.5 L 717.8,58.3 L 724.3,57.5 L 730.9,57.2 L 737.4,56.8 L 743.9,55.3 L 750.4,53.1 L 757.0,53.1 L 763.5,53.1 L 770.0,52.7" fill="none" stroke="#4F8EF7" stroke-width="2.5" stroke-linejoin="round" clip-path="url(#ca)"/>
<path d="M 72.0,340 L 72.0,337.8 L 78.5,337.4 L 85.0,337.4 L 91.6,337.1 L 98.1,337.1 L 104.6,337.1 L 111.1,337.1 L 117.7,337.1 L 124.2,336.3 L 130.7,336.3 L 137.2,336.3 L 143.8,336.3 L 150.3,336.3 L 156.8,335.9 L 163.3,335.9 L 169.9,335.9 L 176.4,335.9 L 182.9,335.9 L 189.4,335.6 L 195.9,334.8 L 202.5,334.5 L 209.0,334.5 L 215.5,334.5 L 222.0,334.1 L 228.6,334.1 L 235.1,334.1 L 241.6,333.7 L 248.1,333.7 L 254.7,333.7 L 261.2,333.4 L 267.7,333.4 L 274.2,333.4 L 280.7,333.4 L 287.3,333.0 L 293.8,333.0 L 300.3,333.0 L 306.8,333.0 L 313.4,333.0 L 319.9,333.0 L 326.4,333.0 L 332.9,333.0 L 339.5,333.0 L 346.0,333.0 L 352.5,333.0 L 359.0,333.0 L 365.6,333.0 L 372.1,332.6 L 378.6,332.6 L 385.1,332.6 L 391.6,332.6 L 398.2,332.6 L 404.7,332.6 L 411.2,332.6 L 417.7,332.6 L 424.3,332.6 L 430.8,332.6 L 437.3,332.6 L 443.8,332.6 L 450.4,332.3 L 456.9,332.3 L 463.4,332.3 L 469.9,332.3 L 476.4,332.3 L 483.0,332.3 L 489.5,332.3 L 496.0,332.3 L 502.5,332.3 L 509.1,332.3 L 515.6,332.3 L 522.1,332.3 L 528.6,332.3 L 535.2,332.3 L 541.7,332.3 L 548.2,332.3 L 554.7,332.3 L 561.3,332.3 L 567.8,332.3 L 574.3,332.3 L 580.8,332.3 L 587.3,332.3 L 593.9,332.3 L 600.4,332.3 L 606.9,332.3 L 613.4,332.3 L 620.0,332.3 L 626.5,332.3 L 633.0,332.3 L 639.5,332.3 L 646.1,332.3 L 652.6,332.3 L 659.1,332.3 L 665.6,332.3 L 672.1,332.3 L 678.7,332.3 L 685.2,331.9 L 691.7,331.9 L 698.2,331.9 L 704.8,331.9 L 711.3,331.9 L 717.8,331.5 L 724.3,331.5 L 730.9,331.5 L 737.4,331.5 L 743.9,331.1 L 750.4,331.1 L 757.0,330.8 L 763.5,330.8 L 770.0,330.8 L 770.0,340 Z" fill="url(#g7)" clip-path="url(#ca)"/>
<path d="M 72.0,337.8 L 78.5,337.4 L 85.0,337.4 L 91.6,337.1 L 98.1,337.1 L 104.6,337.1 L 111.1,337.1 L 117.7,337.1 L 124.2,336.3 L 130.7,336.3 L 137.2,336.3 L 143.8,336.3 L 150.3,336.3 L 156.8,335.9 L 163.3,335.9 L 169.9,335.9 L 176.4,335.9 L 182.9,335.9 L 189.4,335.6 L 195.9,334.8 L 202.5,334.5 L 209.0,334.5 L 215.5,334.5 L 222.0,334.1 L 228.6,334.1 L 235.1,334.1 L 241.6,333.7 L 248.1,333.7 L 254.7,333.7 L 261.2,333.4 L 267.7,333.4 L 274.2,333.4 L 280.7,333.4 L 287.3,333.0 L 293.8,333.0 L 300.3,333.0 L 306.8,333.0 L 313.4,333.0 L 319.9,333.0 L 326.4,333.0 L 332.9,333.0 L 339.5,333.0 L 346.0,333.0 L 352.5,333.0 L 359.0,333.0 L 365.6,333.0 L 372.1,332.6 L 378.6,332.6 L 385.1,332.6 L 391.6,332.6 L 398.2,332.6 L 404.7,332.6 L 411.2,332.6 L 417.7,332.6 L 424.3,332.6 L 430.8,332.6 L 437.3,332.6 L 443.8,332.6 L 450.4,332.3 L 456.9,332.3 L 463.4,332.3 L 469.9,332.3 L 476.4,332.3 L 483.0,332.3 L 489.5,332.3 L 496.0,332.3 L 502.5,332.3 L 509.1,332.3 L 515.6,332.3 L 522.1,332.3 L 528.6,332.3 L 535.2,332.3 L 541.7,332.3 L 548.2,332.3 L 554.7,332.3 L 561.3,332.3 L 567.8,332.3 L 574.3,332.3 L 580.8,332.3 L 587.3,332.3 L 593.9,332.3 L 600.4,332.3 L 606.9,332.3 L 613.4,332.3 L 620.0,332.3 L 626.5,332.3 L 633.0,332.3 L 639.5,332.3 L 646.1,332.3 L 652.6,332.3 L 659.1,332.3 L 665.6,332.3 L 672.1,332.3 L 678.7,332.3 L 685.2,331.9 L 691.7,331.9 L 698.2,331.9 L 704.8,331.9 L 711.3,331.9 L 717.8,331.5 L 724.3,331.5 L 730.9,331.5 L 737.4,331.5 L 743.9,331.1 L 750.4,331.1 L 757.0,330.8 L 763.5,330.8 L 770.0,330.8" fill="none" stroke="#FF6363" stroke-width="2.5" stroke-linejoin="round" clip-path="url(#ca)"/>
<text x="107.9" y="55.0" text-anchor="middle" font-size="9" fill="#34C759" opacity="0.85" clip-path="url(#ca)">+15.2% (+50)</text>
<text x="107.9" y="66.0" text-anchor="middle" font-size="9" fill="#4F8EF7" opacity="0.85" clip-path="url(#ca)">+2.8% (+11)</text>
<text x="107.9" y="77.0" text-anchor="middle" font-size="9" fill="#FF6363" opacity="0.85" clip-path="url(#ca)">+66.7% (+4)</text>
<text x="231.8" y="55.0" text-anchor="middle" font-size="9" fill="#34C759" opacity="0.85" clip-path="url(#ca)">+20.1% (+77)</text>
<text x="231.8" y="66.0" text-anchor="middle" font-size="9" fill="#4F8EF7" opacity="0.85" clip-path="url(#ca)">+16.8% (+69)</text>
<text x="231.8" y="77.0" text-anchor="middle" font-size="9" fill="#FF6363" opacity="0.85" clip-path="url(#ca)">+90.0% (+9)</text>
<text x="404.7" y="55.0" text-anchor="middle" font-size="9" fill="#34C759" opacity="0.85" clip-path="url(#ca)">+16.1% (+74)</text>
<text x="404.7" y="66.0" text-anchor="middle" font-size="9" fill="#4F8EF7" opacity="0.85" clip-path="url(#ca)">+17.3% (+83)</text>
<text x="404.7" y="77.0" text-anchor="middle" font-size="9" fill="#FF6363" opacity="0.85" clip-path="url(#ca)">+10.5% (+2)</text>
<text x="580.8" y="55.0" text-anchor="middle" font-size="9" fill="#34C759" opacity="0.85" clip-path="url(#ca)">+10.5% (+56)</text>
<text x="580.8" y="66.0" text-anchor="middle" font-size="9" fill="#4F8EF7" opacity="0.85" clip-path="url(#ca)">+14.4% (+81)</text>
<text x="580.8" y="77.0" text-anchor="middle" font-size="9" fill="#FF6363" opacity="0.85" clip-path="url(#ca)">+0.0% (+0)</text>
<text x="721.1" y="55.0" text-anchor="middle" font-size="9" fill="#34C759" opacity="0.85" clip-path="url(#ca)">+3.7% (+22)</text>
<text x="721.1" y="66.0" text-anchor="middle" font-size="9" fill="#4F8EF7" opacity="0.85" clip-path="url(#ca)">+3.7% (+28)</text>
<text x="721.1" y="77.0" text-anchor="middle" font-size="9" fill="#FF6363" opacity="0.85" clip-path="url(#ca)">+19.0% (+4)</text>
<rect x="211" y="369" width="12" height="12" fill="#34C759" rx="2"/>
<text x="227" y="379" font-size="12" fill="#111827">macOS + Windows</text>
<rect x="351" y="369" width="12" height="12" fill="#4F8EF7" rx="2"/>
<text x="367" y="379" font-size="12" fill="#111827">macOS only</text>
<rect x="491" y="369" width="12" height="12" fill="#FF6363" rx="2"/>
<text x="507" y="379" font-size="12" fill="#111827">Windows only</text>
<text x="72" y="394" font-size="8" fill="#e5e7eb">data since Dec 11, 2025</text>
</svg>