<svg xmlns="http://www.w3.org/2000/svg" width="800" height="400" viewBox="0 0 800 400">
<defs>
  <style>text { font-family: -apple-system, BlinkMacSystemFont, 'Segoe UI', Roboto, sans-serif; }</style>
  <linearGradient id="g5" x1="0" y1="0" x2="0" y2="1">
  <stop offset="0%" stop-color="#34C759" stop-opacity="0.25"/>
  <stop offset="100%" stop-color="#34C759" stop-opacity="0"/>
</linearGradient>
<linearGradient id="g6" x1="0" y1="0" x2="0" y2="1">
  <stop offset="0%" stop-color="#4F8EF7" stop-opacity="0.25"/>
  <stop offset="100%" stop-color="#4F8EF7" stop-opacity="0"/>
</linearGradient>
<linearGradient id="g7" x1="0" y1="0" x2="0" y2="1">
  <stop offset="0%" stop-color="#FF6363" stop-opacity="0.25"/>
  <stop offset="100%" stop-color="#FF6363" stop-opacity="0"/>
</linearGradient>
  <clipPath id="ca"><rect x="72" y="45" width="698" height="295"/></clipPath>
</defs>
<rect width="800" height="400" fill="#ffffff" rx="12"/>
<text x="400" y="26" text-anchor="middle" font-size="15" font-weight="600" fill="#111827">Platform Support Over Time</text>
<line x1="72" y1="340.0" x2="770" y2="340.0" stroke="#f3f4f6" stroke-width="1"/>
<text x="66" y="344.0" text-anchor="end" font-size="11" fill="#6b7280">0</text>
<line x1="72" y1="266.3" x2="770" y2="266.3" stroke="#f3f4f6" stroke-width="1"/>
<text x="66" y="270.3" text-anchor="end" font-size="11" fill="#6b7280">200</text>
<line x1="72" y1="192.5" x2="770" y2="192.5" stroke="#f3f4f6" stroke-width="1"/>
<text x="66" y="196.5" text-anchor="end" font-size="11" fill="#6b7280">400</text>
<line x1="72" y1="118.8" x2="770" y2="118.8" stroke="#f3f4f6" stroke-width="1"/>
<text x="66" y="122.8" text-anchor="end" font-size="11" fill="#6b7280">600</text>
<line x1="72" y1="45.0" x2="770" y2="45.0" stroke="#f3f4f6" stroke-width="1"/>
<text x="66" y="49.0" text-anchor="end" font-size="11" fill="#6b7280">800</text>
<line x1="145.5" y1="45" x2="145.5" y2="340" stroke="#e5e7eb" stroke-width="1" stroke-dasharray="3,3" clip-path="url(#ca)"/>
<line x1="304.7" y1="45" x2="304.7" y2="340" stroke="#e5e7eb" stroke-width="1" stroke-dasharray="3,3" clip-path="url(#ca)"/>
<line x1="470.0" y1="45" x2="470.0" y2="340" stroke="#e5e7eb" stroke-width="1" stroke-dasharray="3,3" clip-path="url(#ca)"/>
<line x1="635.3" y1="45" x2="635.3" y2="340" stroke="#e5e7eb" stroke-width="1" stroke-dasharray="3,3" clip-path="url(#ca)"/>
<text x="72.0" y="358.0" text-anchor="middle" font-size="11" fill="#6b7280">Dec 11</text>
<text x="212.8" y="358.0" text-anchor="middle" font-size="11" fill="#6b7280">Jan 16</text>
<text x="353.6" y="358.0" text-anchor="middle" font-size="11" fill="#6b7280">Feb 9</text>
<text x="488.4" y="358.0" text-anchor="middle" font-size="11" fill="#6b7280">Mar 4</text>
<text x="629.2" y="358.0" text-anchor="middle" font-size="11" fill="#6b7280">Mar 31</text>
<text x="770.0" y="358.0" text-anchor="middle" font-size="11" fill="#6b7280">Apr 25</text>
<line x1="72" y1="45" x2="72" y2="340" stroke="#e5e7eb" stroke-width="1"/>
<line x1="72" y1="340" x2="770" y2="340" stroke="#e5e7eb" stroke-width="1"/>
<text x="-192.5" y="18" text-anchor="middle" font-size="12" fill="#6b7280" transform="rotate(-90)">Extensions</text>
<path d="M 72.0,340 L 72.0,218.3 L 78.1,215.0 L 84.2,214.6 L 90.4,213.2 L 96.5,212.4 L 102.6,208.7 L 108.7,206.5 L 114.9,205.4 L 121.0,203.6 L 127.1,201.3 L 133.2,200.2 L 139.4,199.9 L 145.5,198.8 L 151.6,198.0 L 157.7,197.7 L 163.8,196.6 L 170.0,195.4 L 176.1,194.3 L 182.2,193.2 L 188.3,191.8 L 194.5,190.7 L 200.6,189.6 L 206.7,188.4 L 212.8,186.2 L 218.9,185.5 L 225.1,185.5 L 231.2,182.9 L 237.3,182.2 L 243.4,181.4 L 249.6,180.7 L 255.7,178.9 L 261.8,176.3 L 267.9,175.9 L 274.1,175.5 L 280.2,173.3 L 286.3,172.6 L 292.4,170.7 L 298.5,170.4 L 304.7,170.0 L 310.8,169.3 L 316.9,169.3 L 323.0,169.3 L 329.2,164.1 L 335.3,163.7 L 341.4,162.6 L 347.5,162.3 L 353.6,161.9 L 359.8,160.8 L 365.9,160.1 L 372.0,159.3 L 378.1,157.1 L 384.3,157.1 L 390.4,157.1 L 396.5,156.7 L 402.6,153.0 L 408.8,151.9 L 414.9,151.2 L 421.0,150.1 L 427.1,149.4 L 433.2,149.4 L 439.4,147.5 L 445.5,144.9 L 451.6,144.2 L 457.7,143.8 L 463.9,142.7 L 470.0,142.7 L 476.1,142.0 L 482.2,140.9 L 488.4,140.1 L 494.5,138.7 L 500.6,137.2 L 506.7,136.8 L 512.8,136.8 L 519.0,135.3 L 525.1,135.3 L 531.2,135.3 L 537.3,133.1 L 543.5,132.8 L 549.6,132.4 L 555.7,132.4 L 561.8,132.0 L 567.9,130.6 L 574.1,129.8 L 580.2,128.7 L 586.3,128.7 L 592.4,128.3 L 598.6,126.9 L 604.7,125.8 L 610.8,125.8 L 616.9,125.4 L 623.1,124.7 L 629.2,122.1 L 635.3,121.3 L 641.4,120.2 L 647.5,120.2 L 653.7,119.5 L 659.8,119.1 L 665.9,118.8 L 672.0,118.4 L 678.2,118.0 L 684.3,118.0 L 690.4,117.6 L 696.5,117.3 L 702.6,116.2 L 708.8,114.7 L 714.9,114.3 L 721.0,113.2 L 727.1,113.2 L 733.3,111.7 L 739.4,111.4 L 745.5,111.4 L 751.6,111.4 L 757.8,110.3 L 763.9,109.9 L 770.0,109.9 L 770.0,340 Z" fill="url(#g5)" clip-path="url(#ca)"/>
<path d="M 72.0,218.3 L 78.1,215.0 L 84.2,214.6 L 90.4,213.2 L 96.5,212.4 L 102.6,208.7 L 108.7,206.5 L 114.9,205.4 L 121.0,203.6 L 127.1,201.3 L 133.2,200.2 L 139.4,199.9 L 145.5,198.8 L 151.6,198.0 L 157.7,197.7 L 163.8,196.6 L 170.0,195.4 L 176.1,194.3 L 182.2,193.2 L 188.3,191.8 L 194.5,190.7 L 200.6,189.6 L 206.7,188.4 L 212.8,186.2 L 218.9,185.5 L 225.1,185.5 L 231.2,182.9 L 237.3,182.2 L 243.4,181.4 L 249.6,180.7 L 255.7,178.9 L 261.8,176.3 L 267.9,175.9 L 274.1,175.5 L 280.2,173.3 L 286.3,172.6 L 292.4,170.7 L 298.5,170.4 L 304.7,170.0 L 310.8,169.3 L 316.9,169.3 L 323.0,169.3 L 329.2,164.1 L 335.3,163.7 L 341.4,162.6 L 347.5,162.3 L 353.6,161.9 L 359.8,160.8 L 365.9,160.1 L 372.0,159.3 L 378.1,157.1 L 384.3,157.1 L 390.4,157.1 L 396.5,156.7 L 402.6,153.0 L 408.8,151.9 L 414.9,151.2 L 421.0,150.1 L 427.1,149.4 L 433.2,149.4 L 439.4,147.5 L 445.5,144.9 L 451.6,144.2 L 457.7,143.8 L 463.9,142.7 L 470.0,142.7 L 476.1,142.0 L 482.2,140.9 L 488.4,140.1 L 494.5,138.7 L 500.6,137.2 L 506.7,136.8 L 512.8,136.8 L 519.0,135.3 L 525.1,135.3 L 531.2,135.3 L 537.3,133.1 L 543.5,132.8 L 549.6,132.4 L 555.7,132.4 L 561.8,132.0 L 567.9,130.6 L 574.1,129.8 L 580.2,128.7 L 586.3,128.7 L 592.4,128.3 L 598.6,126.9 L 604.7,125.8 L 610.8,125.8 L 616.9,125.4 L 623.1,124.7 L 629.2,122.1 L 635.3,121.3 L 641.4,120.2 L 647.5,120.2 L 653.7,119.5 L 659.8,119.1 L 665.9,118.8 L 672.0,118.4 L 678.2,118.0 L 684.3,118.0 L 690.4,117.6 L 696.5,117.3 L 702.6,116.2 L 708.8,114.7 L 714.9,114.3 L 721.0,113.2 L 727.1,113.2 L 733.3,111.7 L 739.4,111.4 L 745.5,111.4 L 751.6,111.4 L 757.8,110.3 L 763.9,109.9 L 770.0,109.9" fill="none" stroke="#34C759" stroke-width="2.5" stroke-linejoin="round" clip-path="url(#ca)"/>
<path d="M 72.0,340 L 72.0,193.2 L 78.1,193.2 L 84.2,192.9 L 90.4,191.8 L 96.5,192.1 L 102.6,192.1 L 108.7,190.7 L 114.9,189.6 L 121.0,189.6 L 127.1,189.9 L 133.2,189.6 L 139.4,189.2 L 145.5,188.8 L 151.6,188.8 L 157.7,188.8 L 163.8,189.2 L 170.0,188.4 L 176.1,187.7 L 182.2,185.5 L 188.3,184.0 L 194.5,184.0 L 200.6,183.7 L 206.7,181.4 L 212.8,178.1 L 218.9,177.0 L 225.1,176.3 L 231.2,173.7 L 237.3,171.9 L 243.4,171.1 L 249.6,170.4 L 255.7,169.6 L 261.8,169.3 L 267.9,169.3 L 274.1,166.7 L 280.2,166.0 L 286.3,165.2 L 292.4,165.2 L 298.5,163.4 L 304.7,163.0 L 310.8,161.9 L 316.9,160.4 L 323.0,158.6 L 329.2,156.0 L 335.3,153.4 L 341.4,153.0 L 347.5,152.3 L 353.6,151.6 L 359.8,149.4 L 365.9,149.4 L 372.0,148.6 L 378.1,147.5 L 384.3,146.8 L 390.4,145.3 L 396.5,145.7 L 402.6,141.2 L 408.8,140.9 L 414.9,140.5 L 421.0,139.8 L 427.1,137.6 L 433.2,137.6 L 439.4,135.3 L 445.5,132.8 L 451.6,132.8 L 457.7,132.8 L 463.9,132.4 L 470.0,132.0 L 476.1,131.7 L 482.2,129.8 L 488.4,127.6 L 494.5,126.9 L 500.6,125.4 L 506.7,125.4 L 512.8,124.3 L 519.0,122.1 L 525.1,121.0 L 531.2,120.6 L 537.3,118.0 L 543.5,117.6 L 549.6,117.6 L 555.7,117.3 L 561.8,117.3 L 567.9,115.4 L 574.1,114.7 L 580.2,113.6 L 586.3,113.2 L 592.4,112.5 L 598.6,109.5 L 604.7,105.5 L 610.8,105.1 L 616.9,104.4 L 623.1,104.0 L 629.2,102.2 L 635.3,63.1 L 641.4,62.3 L 647.5,60.5 L 653.7,60.5 L 659.8,60.5 L 665.9,60.9 L 672.0,60.5 L 678.2,58.3 L 684.3,57.5 L 690.4,57.2 L 696.5,56.8 L 702.6,55.3 L 708.8,53.1 L 714.9,53.1 L 721.0,53.1 L 727.1,52.7 L 733.3,52.4 L 739.4,52.4 L 745.5,51.6 L 751.6,50.5 L 757.8,48.7 L 763.9,47.9 L 770.0,47.6 L 770.0,340 Z" fill="url(#g6)" clip-path="url(#ca)"/>
<path d="M 72.0,193.2 L 78.1,193.2 L 84.2,192.9 L 90.4,191.8 L 96.5,192.1 L 102.6,192.1 L 108.7,190.7 L 114.9,189.6 L 121.0,189.6 L 127.1,189.9 L 133.2,189.6 L 139.4,189.2 L 145.5,188.8 L 151.6,188.8 L 157.7,188.8 L 163.8,189.2 L 170.0,188.4 L 176.1,187.7 L 182.2,185.5 L 188.3,184.0 L 194.5,184.0 L 200.6,183.7 L 206.7,181.4 L 212.8,178.1 L 218.9,177.0 L 225.1,176.3 L 231.2,173.7 L 237.3,171.9 L 243.4,171.1 L 249.6,170.4 L 255.7,169.6 L 261.8,169.3 L 267.9,169.3 L 274.1,166.7 L 280.2,166.0 L 286.3,165.2 L 292.4,165.2 L 298.5,163.4 L 304.7,163.0 L 310.8,161.9 L 316.9,160.4 L 323.0,158.6 L 329.2,156.0 L 335.3,153.4 L 341.4,153.0 L 347.5,152.3 L 353.6,151.6 L 359.8,149.4 L 365.9,149.4 L 372.0,148.6 L 378.1,147.5 L 384.3,146.8 L 390.4,145.3 L 396.5,145.7 L 402.6,141.2 L 408.8,140.9 L 414.9,140.5 L 421.0,139.8 L 427.1,137.6 L 433.2,137.6 L 439.4,135.3 L 445.5,132.8 L 451.6,132.8 L 457.7,132.8 L 463.9,132.4 L 470.0,132.0 L 476.1,131.7 L 482.2,129.8 L 488.4,127.6 L 494.5,126.9 L 500.6,125.4 L 506.7,125.4 L 512.8,124.3 L 519.0,122.1 L 525.1,121.0 L 531.2,120.6 L 537.3,118.0 L 543.5,117.6 L 549.6,117.6 L 555.7,117.3 L 561.8,117.3 L 567.9,115.4 L 574.1,114.7 L 580.2,113.6 L 586.3,113.2 L 592.4,112.5 L 598.6,109.5 L 604.7,105.5 L 610.8,105.1 L 616.9,104.4 L 623.1,104.0 L 629.2,102.2 L 635.3,63.1 L 641.4,62.3 L 647.5,60.5 L 653.7,60.5 L 659.8,60.5 L 665.9,60.9 L 672.0,60.5 L 678.2,58.3 L 684.3,57.5 L 690.4,57.2 L 696.5,56.8 L 702.6,55.3 L 708.8,53.1 L 714.9,53.1 L 721.0,53.1 L 727.1,52.7 L 733.3,52.4 L 739.4,52.4 L 745.5,51.6 L 751.6,50.5 L 757.8,48.7 L 763.9,47.9 L 770.0,47.6" fill="none" stroke="#4F8EF7" stroke-width="2.5" stroke-linejoin="round" clip-path="url(#ca)"/>
<path d="M 72.0,340 L 72.0,337.8 L 78.1,337.4 L 84.2,337.4 L 90.4,337.1 L 96.5,337.1 L 102.6,337.1 L 108.7,337.1 L 114.9,337.1 L 121.0,336.3 L 127.1,336.3 L 133.2,336.3 L 139.4,336.3 L 145.5,336.3 L 151.6,335.9 L 157.7,335.9 L 163.8,335.9 L 170.0,335.9 L 176.1,335.9 L 182.2,335.6 L 188.3,334.8 L 194.5,334.5 L 200.6,334.5 L 206.7,334.5 L 212.8,334.1 L 218.9,334.1 L 225.1,334.1 L 231.2,333.7 L 237.3,333.7 L 243.4,333.7 L 249.6,333.4 L 255.7,333.4 L 261.8,333.4 L 267.9,333.4 L 274.1,333.0 L 280.2,333.0 L 286.3,333.0 L 292.4,333.0 L 298.5,333.0 L 304.7,333.0 L 310.8,333.0 L 316.9,333.0 L 323.0,333.0 L 329.2,333.0 L 335.3,333.0 L 341.4,333.0 L 347.5,333.0 L 353.6,332.6 L 359.8,332.6 L 365.9,332.6 L 372.0,332.6 L 378.1,332.6 L 384.3,332.6 L 390.4,332.6 L 396.5,332.6 L 402.6,332.6 L 408.8,332.6 L 414.9,332.6 L 421.0,332.6 L 427.1,332.3 L 433.2,332.3 L 439.4,332.3 L 445.5,332.3 L 451.6,332.3 L 457.7,332.3 L 463.9,332.3 L 470.0,332.3 L 476.1,332.3 L 482.2,332.3 L 488.4,332.3 L 494.5,332.3 L 500.6,332.3 L 506.7,332.3 L 512.8,332.3 L 519.0,332.3 L 525.1,332.3 L 531.2,332.3 L 537.3,332.3 L 543.5,332.3 L 549.6,332.3 L 555.7,332.3 L 561.8,332.3 L 567.9,332.3 L 574.1,332.3 L 580.2,332.3 L 586.3,332.3 L 592.4,332.3 L 598.6,332.3 L 604.7,332.3 L 610.8,332.3 L 616.9,332.3 L 623.1,332.3 L 629.2,332.3 L 635.3,332.3 L 641.4,332.3 L 647.5,331.9 L 653.7,331.9 L 659.8,331.9 L 665.9,331.9 L 672.0,331.9 L 678.2,331.5 L 684.3,331.5 L 690.4,331.5 L 696.5,331.5 L 702.6,331.1 L 708.8,331.1 L 714.9,330.8 L 721.0,330.8 L 727.1,330.8 L 733.3,330.8 L 739.4,330.8 L 745.5,330.8 L 751.6,330.8 L 757.8,330.8 L 763.9,330.8 L 770.0,330.8 L 770.0,340 Z" fill="url(#g7)" clip-path="url(#ca)"/>
<path d="M 72.0,337.8 L 78.1,337.4 L 84.2,337.4 L 90.4,337.1 L 96.5,337.1 L 102.6,337.1 L 108.7,337.1 L 114.9,337.1 L 121.0,336.3 L 127.1,336.3 L 133.2,336.3 L 139.4,336.3 L 145.5,336.3 L 151.6,335.9 L 157.7,335.9 L 163.8,335.9 L 170.0,335.9 L 176.1,335.9 L 182.2,335.6 L 188.3,334.8 L 194.5,334.5 L 200.6,334.5 L 206.7,334.5 L 212.8,334.1 L 218.9,334.1 L 225.1,334.1 L 231.2,333.7 L 237.3,333.7 L 243.4,333.7 L 249.6,333.4 L 255.7,333.4 L 261.8,333.4 L 267.9,333.4 L 274.1,333.0 L 280.2,333.0 L 286.3,333.0 L 292.4,333.0 L 298.5,333.0 L 304.7,333.0 L 310.8,333.0 L 316.9,333.0 L 323.0,333.0 L 329.2,333.0 L 335.3,333.0 L 341.4,333.0 L 347.5,333.0 L 353.6,332.6 L 359.8,332.6 L 365.9,332.6 L 372.0,332.6 L 378.1,332.6 L 384.3,332.6 L 390.4,332.6 L 396.5,332.6 L 402.6,332.6 L 408.8,332.6 L 414.9,332.6 L 421.0,332.6 L 427.1,332.3 L 433.2,332.3 L 439.4,332.3 L 445.5,332.3 L 451.6,332.3 L 457.7,332.3 L 463.9,332.3 L 470.0,332.3 L 476.1,332.3 L 482.2,332.3 L 488.4,332.3 L 494.5,332.3 L 500.6,332.3 L 506.7,332.3 L 512.8,332.3 L 519.0,332.3 L 525.1,332.3 L 531.2,332.3 L 537.3,332.3 L 543.5,332.3 L 549.6,332.3 L 555.7,332.3 L 561.8,332.3 L 567.9,332.3 L 574.1,332.3 L 580.2,332.3 L 586.3,332.3 L 592.4,332.3 L 598.6,332.3 L 604.7,332.3 L 610.8,332.3 L 616.9,332.3 L 623.1,332.3 L 629.2,332.3 L 635.3,332.3 L 641.4,332.3 L 647.5,331.9 L 653.7,331.9 L 659.8,331.9 L 665.9,331.9 L 672.0,331.9 L 678.2,331.5 L 684.3,331.5 L 690.4,331.5 L 696.5,331.5 L 702.6,331.1 L 708.8,331.1 L 714.9,330.8 L 721.0,330.8 L 727.1,330.8 L 733.3,330.8 L 739.4,330.8 L 745.5,330.8 L 751.6,330.8 L 757.8,330.8 L 763.9,330.8 L 770.0,330.8" fill="none" stroke="#FF6363" stroke-width="2.5" stroke-linejoin="round" clip-path="url(#ca)"/>
<text x="105.7" y="55.0" text-anchor="middle" font-size="9" fill="#34C759" opacity="0.85" clip-path="url(#ca)">+15.2% (+50)</text>
<text x="105.7" y="66.0" text-anchor="middle" font-size="9" fill="#4F8EF7" opacity="0.85" clip-path="url(#ca)">+2.8% (+11)</text>
<text x="105.7" y="77.0" text-anchor="middle" font-size="9" fill="#FF6363" opacity="0.85" clip-path="url(#ca)">+66.7% (+4)</text>
<text x="222.0" y="55.0" text-anchor="middle" font-size="9" fill="#34C759" opacity="0.85" clip-path="url(#ca)">+20.1% (+77)</text>
<text x="222.0" y="66.0" text-anchor="middle" font-size="9" fill="#4F8EF7" opacity="0.85" clip-path="url(#ca)">+16.8% (+69)</text>
<text x="222.0" y="77.0" text-anchor="middle" font-size="9" fill="#FF6363" opacity="0.85" clip-path="url(#ca)">+90.0% (+9)</text>
<text x="384.3" y="55.0" text-anchor="middle" font-size="9" fill="#34C759" opacity="0.85" clip-path="url(#ca)">+16.1% (+74)</text>
<text x="384.3" y="66.0" text-anchor="middle" font-size="9" fill="#4F8EF7" opacity="0.85" clip-path="url(#ca)">+17.3% (+83)</text>
<text x="384.3" y="77.0" text-anchor="middle" font-size="9" fill="#FF6363" opacity="0.85" clip-path="url(#ca)">+10.5% (+2)</text>
<text x="549.6" y="55.0" text-anchor="middle" font-size="9" fill="#34C759" opacity="0.85" clip-path="url(#ca)">+10.5% (+56)</text>
<text x="549.6" y="66.0" text-anchor="middle" font-size="9" fill="#4F8EF7" opacity="0.85" clip-path="url(#ca)">+14.4% (+81)</text>
<text x="549.6" y="77.0" text-anchor="middle" font-size="9" fill="#FF6363" opacity="0.85" clip-path="url(#ca)">+0.0% (+0)</text>
<text x="702.6" y="55.0" text-anchor="middle" font-size="9" fill="#34C759" opacity="0.85" clip-path="url(#ca)">+5.2% (+31)</text>
<text x="702.6" y="66.0" text-anchor="middle" font-size="9" fill="#4F8EF7" opacity="0.85" clip-path="url(#ca)">+5.6% (+42)</text>
<text x="702.6" y="77.0" text-anchor="middle" font-size="9" fill="#FF6363" opacity="0.85" clip-path="url(#ca)">+19.0% (+4)</text>
<rect x="211" y="369" width="12" height="12" fill="#34C759" rx="2"/>
<text x="227" y="379" font-size="12" fill="#111827">macOS + Windows</text>
<rect x="351" y="369" width="12" height="12" fill="#4F8EF7" rx="2"/>
<text x="367" y="379" font-size="12" fill="#111827">macOS only</text>
<rect x="491" y="369" width="12" height="12" fill="#FF6363" rx="2"/>
<text x="507" y="379" font-size="12" fill="#111827">Windows only</text>
<text x="72" y="394" font-size="8" fill="#e5e7eb">data since Dec 11, 2025</text>
</svg>