<svg xmlns="http://www.w3.org/2000/svg" width="800" height="400" viewBox="0 0 800 400">
<defs><style>text { font-family: -apple-system, BlinkMacSystemFont, 'Segoe UI', Roboto, sans-serif; }</style></defs>
<rect width="800" height="400" fill="#ffffff" rx="12"/>
<text x="400" y="26" text-anchor="middle" font-size="15" font-weight="600" fill="#111827">Packages by Last Updated Quarter</text>
<text x="400" y="44" text-anchor="middle" font-size="11" fill="#6b7280">last updated at · 3,072 packages with a known last-update date</text>
<line x1="60" y1="58" x2="60" y2="320" stroke="#e5e7eb" stroke-width="1"/>
<line x1="60" y1="320" x2="770" y2="320" stroke="#e5e7eb" stroke-width="1"/>
<text x="-189" y="18" text-anchor="middle" font-size="12" fill="#6b7280" transform="rotate(-90)">Number of packages</text>
<line x1="60" y1="320.0" x2="770" y2="320.0" stroke="#f3f4f6" stroke-width="1"/>
<text x="54" y="324.0" text-anchor="end" font-size="11" fill="#6b7280">0</text>
<line x1="60" y1="267.7" x2="770" y2="267.7" stroke="#f3f4f6" stroke-width="1"/>
<text x="54" y="271.7" text-anchor="end" font-size="11" fill="#6b7280">123</text>
<line x1="60" y1="215.4" x2="770" y2="215.4" stroke="#f3f4f6" stroke-width="1"/>
<text x="54" y="219.4" text-anchor="end" font-size="11" fill="#6b7280">246</text>
<line x1="60" y1="162.6" x2="770" y2="162.6" stroke="#f3f4f6" stroke-width="1"/>
<text x="54" y="166.6" text-anchor="end" font-size="11" fill="#6b7280">370</text>
<line x1="60" y1="110.3" x2="770" y2="110.3" stroke="#f3f4f6" stroke-width="1"/>
<text x="54" y="114.3" text-anchor="end" font-size="11" fill="#6b7280">493</text>
<line x1="60" y1="58.0" x2="770" y2="58.0" stroke="#f3f4f6" stroke-width="1"/>
<text x="54" y="62.0" text-anchor="end" font-size="11" fill="#6b7280">616</text>
<rect x="66.2" y="314.5" width="23.1" height="5.5" fill="#34C759" rx="3" opacity="0.85"/>
<text x="77.8" y="298.5" text-anchor="middle" font-size="10" fill="#6b7280">13</text>
<text x="77.8" y="310.5" text-anchor="middle" font-size="10" fill="#6b7280">(0.42%)</text>
<g transform="translate(77.8,330.0) rotate(-45)"><text text-anchor="end" font-size="10" fill="#111827">2021-Q4</text></g>
<rect x="101.7" y="308.5" width="23.1" height="11.5" fill="#34C759" rx="3" opacity="0.85"/>
<text x="113.3" y="292.5" text-anchor="middle" font-size="10" fill="#6b7280">27</text>
<text x="113.3" y="304.5" text-anchor="middle" font-size="10" fill="#6b7280">(0.88%)</text>
<g transform="translate(113.3,330.0) rotate(-45)"><text text-anchor="end" font-size="10" fill="#111827">2022-Q1</text></g>
<rect x="137.2" y="305.5" width="23.1" height="14.5" fill="#34C759" rx="3" opacity="0.85"/>
<text x="148.8" y="289.5" text-anchor="middle" font-size="10" fill="#6b7280">34</text>
<text x="148.8" y="301.5" text-anchor="middle" font-size="10" fill="#6b7280">(1.11%)</text>
<g transform="translate(148.8,330.0) rotate(-45)"><text text-anchor="end" font-size="10" fill="#111827">2022-Q2</text></g>
<rect x="172.7" y="304.7" width="23.1" height="15.3" fill="#34C759" rx="3" opacity="0.85"/>
<text x="184.3" y="288.7" text-anchor="middle" font-size="10" fill="#6b7280">36</text>
<text x="184.3" y="300.7" text-anchor="middle" font-size="10" fill="#6b7280">(1.17%)</text>
<g transform="translate(184.3,330.0) rotate(-45)"><text text-anchor="end" font-size="10" fill="#111827">2022-Q3</text></g>
<rect x="208.2" y="293.6" width="23.1" height="26.4" fill="#34C759" rx="3" opacity="0.85"/>
<text x="219.8" y="277.6" text-anchor="middle" font-size="10" fill="#6b7280">62</text>
<text x="219.8" y="289.6" text-anchor="middle" font-size="10" fill="#6b7280">(2.02%)</text>
<g transform="translate(219.8,330.0) rotate(-45)"><text text-anchor="end" font-size="10" fill="#111827">2022-Q4</text></g>
<rect x="243.7" y="282.6" width="23.1" height="37.4" fill="#34C759" rx="3" opacity="0.85"/>
<text x="255.3" y="266.6" text-anchor="middle" font-size="10" fill="#6b7280">88</text>
<text x="255.3" y="278.6" text-anchor="middle" font-size="10" fill="#6b7280">(2.86%)</text>
<g transform="translate(255.3,330.0) rotate(-45)"><text text-anchor="end" font-size="10" fill="#111827">2023-Q1</text></g>
<rect x="279.2" y="283.0" width="23.1" height="37.0" fill="#34C759" rx="3" opacity="0.85"/>
<text x="290.8" y="267.0" text-anchor="middle" font-size="10" fill="#6b7280">87</text>
<text x="290.8" y="279.0" text-anchor="middle" font-size="10" fill="#6b7280">(2.83%)</text>
<g transform="translate(290.8,330.0) rotate(-45)"><text text-anchor="end" font-size="10" fill="#111827">2023-Q2</text></g>
<rect x="314.7" y="286.4" width="23.1" height="33.6" fill="#34C759" rx="3" opacity="0.85"/>
<text x="326.3" y="270.4" text-anchor="middle" font-size="10" fill="#6b7280">79</text>
<text x="326.3" y="282.4" text-anchor="middle" font-size="10" fill="#6b7280">(2.57%)</text>
<g transform="translate(326.3,330.0) rotate(-45)"><text text-anchor="end" font-size="10" fill="#111827">2023-Q3</text></g>
<rect x="350.2" y="294.5" width="23.1" height="25.5" fill="#34C759" rx="3" opacity="0.85"/>
<text x="361.8" y="278.5" text-anchor="middle" font-size="10" fill="#6b7280">60</text>
<text x="361.8" y="290.5" text-anchor="middle" font-size="10" fill="#6b7280">(1.95%)</text>
<g transform="translate(361.8,330.0) rotate(-45)"><text text-anchor="end" font-size="10" fill="#111827">2023-Q4</text></g>
<rect x="385.7" y="274.5" width="23.1" height="45.5" fill="#34C759" rx="3" opacity="0.85"/>
<text x="397.3" y="258.5" text-anchor="middle" font-size="10" fill="#6b7280">107</text>
<text x="397.3" y="270.5" text-anchor="middle" font-size="10" fill="#6b7280">(3.48%)</text>
<g transform="translate(397.3,330.0) rotate(-45)"><text text-anchor="end" font-size="10" fill="#111827">2024-Q1</text></g>
<rect x="421.2" y="269.0" width="23.1" height="51.0" fill="#34C759" rx="3" opacity="0.85"/>
<text x="432.8" y="253.0" text-anchor="middle" font-size="10" fill="#6b7280">120</text>
<text x="432.8" y="265.0" text-anchor="middle" font-size="10" fill="#6b7280">(3.91%)</text>
<g transform="translate(432.8,330.0) rotate(-45)"><text text-anchor="end" font-size="10" fill="#111827">2024-Q2</text></g>
<rect x="456.7" y="269.4" width="23.1" height="50.6" fill="#34C759" rx="3" opacity="0.85"/>
<text x="468.3" y="253.4" text-anchor="middle" font-size="10" fill="#6b7280">119</text>
<text x="468.3" y="265.4" text-anchor="middle" font-size="10" fill="#6b7280">(3.87%)</text>
<g transform="translate(468.3,330.0) rotate(-45)"><text text-anchor="end" font-size="10" fill="#111827">2024-Q3</text></g>
<rect x="492.2" y="271.9" width="23.1" height="48.1" fill="#34C759" rx="3" opacity="0.85"/>
<text x="503.8" y="255.9" text-anchor="middle" font-size="10" fill="#6b7280">113</text>
<text x="503.8" y="267.9" text-anchor="middle" font-size="10" fill="#6b7280">(3.68%)</text>
<g transform="translate(503.8,330.0) rotate(-45)"><text text-anchor="end" font-size="10" fill="#111827">2024-Q4</text></g>
<rect x="527.7" y="240.0" width="23.1" height="80.0" fill="#34C759" rx="3" opacity="0.85"/>
<text x="539.3" y="224.0" text-anchor="middle" font-size="10" fill="#6b7280">188</text>
<text x="539.3" y="236.0" text-anchor="middle" font-size="10" fill="#6b7280">(6.12%)</text>
<g transform="translate(539.3,330.0) rotate(-45)"><text text-anchor="end" font-size="10" fill="#111827">2025-Q1</text></g>
<rect x="563.2" y="237.5" width="23.1" height="82.5" fill="#34C759" rx="3" opacity="0.85"/>
<text x="574.8" y="221.5" text-anchor="middle" font-size="10" fill="#6b7280">194</text>
<text x="574.8" y="233.5" text-anchor="middle" font-size="10" fill="#6b7280">(6.32%)</text>
<g transform="translate(574.8,330.0) rotate(-45)"><text text-anchor="end" font-size="10" fill="#111827">2025-Q2</text></g>
<rect x="598.7" y="237.9" width="23.1" height="82.1" fill="#34C759" rx="3" opacity="0.85"/>
<text x="610.3" y="221.9" text-anchor="middle" font-size="10" fill="#6b7280">193</text>
<text x="610.3" y="233.9" text-anchor="middle" font-size="10" fill="#6b7280">(6.28%)</text>
<g transform="translate(610.3,330.0) rotate(-45)"><text text-anchor="end" font-size="10" fill="#111827">2025-Q3</text></g>
<rect x="634.2" y="205.2" width="23.1" height="114.8" fill="#34C759" rx="3" opacity="0.85"/>
<text x="645.8" y="189.2" text-anchor="middle" font-size="10" fill="#6b7280">270</text>
<text x="645.8" y="201.2" text-anchor="middle" font-size="10" fill="#6b7280">(8.79%)</text>
<g transform="translate(645.8,330.0) rotate(-45)"><text text-anchor="end" font-size="10" fill="#111827">2025-Q4</text></g>
<rect x="669.7" y="103.1" width="23.1" height="216.9" fill="#34C759" rx="3" opacity="0.85"/>
<text x="681.3" y="87.1" text-anchor="middle" font-size="10" fill="#6b7280">510</text>
<text x="681.3" y="99.1" text-anchor="middle" font-size="10" fill="#6b7280">(16.60%)</text>
<g transform="translate(681.3,330.0) rotate(-45)"><text text-anchor="end" font-size="10" fill="#111827">2026-Q1</text></g>
<rect x="705.2" y="58.0" width="23.1" height="262.0" fill="#34C759" rx="3" opacity="0.85"/>
<text x="716.8" y="72.0" text-anchor="middle" font-size="10" fill="#6b7280">616</text>
<text x="716.8" y="84.0" text-anchor="middle" font-size="10" fill="#6b7280">(20.05%)</text>
<g transform="translate(716.8,330.0) rotate(-45)"><text text-anchor="end" font-size="10" fill="#111827">2026-Q2</text></g>
<rect x="740.7" y="253.6" width="23.1" height="66.4" fill="#34C759" rx="3" opacity="0.85"/>
<text x="752.3" y="237.6" text-anchor="middle" font-size="10" fill="#6b7280">156</text>
<text x="752.3" y="249.6" text-anchor="middle" font-size="10" fill="#6b7280">(5.08%)</text>
<g transform="translate(752.3,330.0) rotate(-45)"><text text-anchor="end" font-size="10" fill="#111827">2026-Q3</text></g>
</svg>