<svg xmlns="http://www.w3.org/2000/svg" width="800" height="400" viewBox="0 0 800 400">
<defs>
  <style>text { font-family: -apple-system, BlinkMacSystemFont, 'Segoe UI', Roboto, sans-serif; }</style>
  <linearGradient id="g2" x1="0" y1="0" x2="0" y2="1">
  <stop offset="0%" stop-color="#4F8EF7" stop-opacity="0.25"/>
  <stop offset="100%" stop-color="#4F8EF7" stop-opacity="0"/>
</linearGradient>
<linearGradient id="g3" x1="0" y1="0" x2="0" y2="1">
  <stop offset="0%" stop-color="#BF5AF2" stop-opacity="0.25"/>
  <stop offset="100%" stop-color="#BF5AF2" stop-opacity="0"/>
</linearGradient>
<linearGradient id="g4" x1="0" y1="0" x2="0" y2="1">
  <stop offset="0%" stop-color="#34C759" stop-opacity="0.25"/>
  <stop offset="100%" stop-color="#34C759" stop-opacity="0"/>
</linearGradient>
  <clipPath id="ca"><rect x="72" y="45" width="698" height="295"/></clipPath>
</defs>
<rect width="800" height="400" fill="#ffffff" rx="12"/>
<text x="400" y="26" text-anchor="middle" font-size="15" font-weight="600" fill="#111827">Community Growth Over Time</text>
<line x1="72" y1="340.0" x2="770" y2="340.0" stroke="#f3f4f6" stroke-width="1"/>
<text x="66" y="344.0" text-anchor="end" font-size="11" fill="#6b7280">500</text>
<line x1="72" y1="241.7" x2="770" y2="241.7" stroke="#f3f4f6" stroke-width="1"/>
<text x="66" y="245.7" text-anchor="end" font-size="11" fill="#6b7280">1.0k</text>
<line x1="72" y1="143.3" x2="770" y2="143.3" stroke="#f3f4f6" stroke-width="1"/>
<text x="66" y="147.3" text-anchor="end" font-size="11" fill="#6b7280">1.5k</text>
<line x1="72" y1="45.0" x2="770" y2="45.0" stroke="#f3f4f6" stroke-width="1"/>
<text x="66" y="49.0" text-anchor="end" font-size="11" fill="#6b7280">2.0k</text>
<line x1="154.1" y1="45" x2="154.1" y2="340" stroke="#e5e7eb" stroke-width="1" stroke-dasharray="3,3" clip-path="url(#ca)"/>
<line x1="332.0" y1="45" x2="332.0" y2="340" stroke="#e5e7eb" stroke-width="1" stroke-dasharray="3,3" clip-path="url(#ca)"/>
<line x1="516.8" y1="45" x2="516.8" y2="340" stroke="#e5e7eb" stroke-width="1" stroke-dasharray="3,3" clip-path="url(#ca)"/>
<line x1="701.6" y1="45" x2="701.6" y2="340" stroke="#e5e7eb" stroke-width="1" stroke-dasharray="3,3" clip-path="url(#ca)"/>
<text x="72.0" y="358.0" text-anchor="middle" font-size="11" fill="#6b7280">Dec 11</text>
<text x="208.9" y="358.0" text-anchor="middle" font-size="11" fill="#6b7280">Jan 13</text>
<text x="352.6" y="358.0" text-anchor="middle" font-size="11" fill="#6b7280">Feb 4</text>
<text x="489.4" y="358.0" text-anchor="middle" font-size="11" fill="#6b7280">Feb 25</text>
<text x="633.1" y="358.0" text-anchor="middle" font-size="11" fill="#6b7280">Mar 19</text>
<text x="770.0" y="358.0" text-anchor="middle" font-size="11" fill="#6b7280">Apr 12</text>
<line x1="72" y1="45" x2="72" y2="340" stroke="#e5e7eb" stroke-width="1"/>
<line x1="72" y1="340" x2="770" y2="340" stroke="#e5e7eb" stroke-width="1"/>
<text x="-192.5" y="18" text-anchor="middle" font-size="12" fill="#6b7280" transform="rotate(-90)">People</text>
<path d="M 72.0,340 L 72.0,120.1 L 78.8,120.1 L 85.7,120.1 L 92.5,119.5 L 99.4,119.5 L 106.2,119.1 L 113.1,118.9 L 119.9,119.1 L 126.7,118.6 L 133.6,118.6 L 140.4,118.6 L 147.3,118.6 L 154.1,118.6 L 161.0,118.6 L 167.8,118.6 L 174.6,118.6 L 181.5,118.4 L 188.3,117.8 L 195.2,116.6 L 202.0,116.0 L 208.9,115.8 L 215.7,115.8 L 222.5,115.2 L 229.4,113.8 L 236.2,113.0 L 243.1,113.0 L 249.9,112.1 L 256.8,111.7 L 263.6,110.9 L 270.5,110.3 L 277.3,109.7 L 284.1,109.1 L 291.0,109.1 L 297.8,107.7 L 304.7,106.9 L 311.5,106.9 L 318.4,106.2 L 325.2,105.8 L 332.0,105.6 L 338.9,105.4 L 345.7,105.4 L 352.6,104.8 L 359.4,102.4 L 366.3,101.0 L 373.1,100.3 L 379.9,100.1 L 386.8,99.7 L 393.6,98.9 L 400.5,98.5 L 407.3,98.1 L 414.2,97.7 L 421.0,97.3 L 427.8,96.9 L 434.7,96.9 L 441.5,95.0 L 448.4,95.0 L 455.2,94.8 L 462.1,94.6 L 468.9,94.2 L 475.7,94.2 L 482.6,93.2 L 489.4,92.0 L 496.3,91.6 L 503.1,92.0 L 510.0,91.8 L 516.8,91.6 L 523.6,91.6 L 530.5,91.2 L 537.3,90.4 L 544.2,90.0 L 551.0,89.6 L 557.9,89.4 L 564.7,89.4 L 571.5,88.7 L 578.4,88.3 L 585.2,88.3 L 592.1,86.7 L 598.9,86.7 L 605.8,86.7 L 612.6,86.7 L 619.5,86.5 L 626.3,85.9 L 633.1,85.1 L 640.0,84.7 L 646.8,84.7 L 653.7,84.3 L 660.5,82.8 L 667.4,81.8 L 674.2,81.6 L 681.0,81.4 L 687.9,80.8 L 694.7,79.6 L 701.6,79.2 L 708.4,78.8 L 715.3,77.6 L 722.1,77.4 L 728.9,77.4 L 735.8,77.4 L 742.6,77.3 L 749.5,76.1 L 756.3,75.9 L 763.2,75.7 L 770.0,75.7 L 770.0,340 Z" fill="url(#g2)" clip-path="url(#ca)"/>
<path d="M 72.0,120.1 L 78.8,120.1 L 85.7,120.1 L 92.5,119.5 L 99.4,119.5 L 106.2,119.1 L 113.1,118.9 L 119.9,119.1 L 126.7,118.6 L 133.6,118.6 L 140.4,118.6 L 147.3,118.6 L 154.1,118.6 L 161.0,118.6 L 167.8,118.6 L 174.6,118.6 L 181.5,118.4 L 188.3,117.8 L 195.2,116.6 L 202.0,116.0 L 208.9,115.8 L 215.7,115.8 L 222.5,115.2 L 229.4,113.8 L 236.2,113.0 L 243.1,113.0 L 249.9,112.1 L 256.8,111.7 L 263.6,110.9 L 270.5,110.3 L 277.3,109.7 L 284.1,109.1 L 291.0,109.1 L 297.8,107.7 L 304.7,106.9 L 311.5,106.9 L 318.4,106.2 L 325.2,105.8 L 332.0,105.6 L 338.9,105.4 L 345.7,105.4 L 352.6,104.8 L 359.4,102.4 L 366.3,101.0 L 373.1,100.3 L 379.9,100.1 L 386.8,99.7 L 393.6,98.9 L 400.5,98.5 L 407.3,98.1 L 414.2,97.7 L 421.0,97.3 L 427.8,96.9 L 434.7,96.9 L 441.5,95.0 L 448.4,95.0 L 455.2,94.8 L 462.1,94.6 L 468.9,94.2 L 475.7,94.2 L 482.6,93.2 L 489.4,92.0 L 496.3,91.6 L 503.1,92.0 L 510.0,91.8 L 516.8,91.6 L 523.6,91.6 L 530.5,91.2 L 537.3,90.4 L 544.2,90.0 L 551.0,89.6 L 557.9,89.4 L 564.7,89.4 L 571.5,88.7 L 578.4,88.3 L 585.2,88.3 L 592.1,86.7 L 598.9,86.7 L 605.8,86.7 L 612.6,86.7 L 619.5,86.5 L 626.3,85.9 L 633.1,85.1 L 640.0,84.7 L 646.8,84.7 L 653.7,84.3 L 660.5,82.8 L 667.4,81.8 L 674.2,81.6 L 681.0,81.4 L 687.9,80.8 L 694.7,79.6 L 701.6,79.2 L 708.4,78.8 L 715.3,77.6 L 722.1,77.4 L 728.9,77.4 L 735.8,77.4 L 742.6,77.3 L 749.5,76.1 L 756.3,75.9 L 763.2,75.7 L 770.0,75.7" fill="none" stroke="#4F8EF7" stroke-width="2.5" stroke-linejoin="round" clip-path="url(#ca)"/>
<path d="M 72.0,340 L 72.0,244.2 L 78.8,243.6 L 85.7,243.6 L 92.5,243.6 L 99.4,243.4 L 106.2,243.0 L 113.1,242.8 L 119.9,242.6 L 126.7,242.6 L 133.6,242.5 L 140.4,242.3 L 147.3,242.3 L 154.1,242.3 L 161.0,242.3 L 167.8,242.3 L 174.6,242.3 L 181.5,241.9 L 188.3,241.9 L 195.2,241.9 L 202.0,241.1 L 208.9,240.9 L 215.7,240.5 L 222.5,239.7 L 229.4,239.5 L 236.2,239.5 L 243.1,239.5 L 249.9,238.9 L 256.8,238.5 L 263.6,238.5 L 270.5,238.1 L 277.3,237.9 L 284.1,237.5 L 291.0,237.5 L 297.8,237.3 L 304.7,236.6 L 311.5,236.0 L 318.4,235.6 L 325.2,235.4 L 332.0,235.4 L 338.9,235.2 L 345.7,234.8 L 352.6,234.8 L 359.4,234.6 L 366.3,234.0 L 373.1,233.6 L 379.9,233.6 L 386.8,233.6 L 393.6,233.6 L 400.5,233.4 L 407.3,232.8 L 414.2,232.4 L 421.0,232.2 L 427.8,232.0 L 434.7,231.8 L 441.5,231.6 L 448.4,231.4 L 455.2,231.2 L 462.1,230.7 L 468.9,230.5 L 475.7,230.3 L 482.6,229.5 L 489.4,228.7 L 496.3,228.7 L 503.1,228.5 L 510.0,228.3 L 516.8,228.3 L 523.6,228.3 L 530.5,227.9 L 537.3,227.9 L 544.2,226.7 L 551.0,226.5 L 557.9,226.3 L 564.7,226.3 L 571.5,225.9 L 578.4,225.7 L 585.2,225.7 L 592.1,225.5 L 598.9,225.5 L 605.8,225.5 L 612.6,225.1 L 619.5,224.9 L 626.3,224.0 L 633.1,224.2 L 640.0,224.0 L 646.8,223.8 L 653.7,223.8 L 660.5,223.6 L 667.4,223.0 L 674.2,223.0 L 681.0,223.0 L 687.9,223.0 L 694.7,222.6 L 701.6,222.6 L 708.4,222.2 L 715.3,221.8 L 722.1,221.0 L 728.9,221.0 L 735.8,220.6 L 742.6,220.4 L 749.5,220.2 L 756.3,220.0 L 763.2,219.6 L 770.0,219.6 L 770.0,340 Z" fill="url(#g3)" clip-path="url(#ca)"/>
<path d="M 72.0,244.2 L 78.8,243.6 L 85.7,243.6 L 92.5,243.6 L 99.4,243.4 L 106.2,243.0 L 113.1,242.8 L 119.9,242.6 L 126.7,242.6 L 133.6,242.5 L 140.4,242.3 L 147.3,242.3 L 154.1,242.3 L 161.0,242.3 L 167.8,242.3 L 174.6,242.3 L 181.5,241.9 L 188.3,241.9 L 195.2,241.9 L 202.0,241.1 L 208.9,240.9 L 215.7,240.5 L 222.5,239.7 L 229.4,239.5 L 236.2,239.5 L 243.1,239.5 L 249.9,238.9 L 256.8,238.5 L 263.6,238.5 L 270.5,238.1 L 277.3,237.9 L 284.1,237.5 L 291.0,237.5 L 297.8,237.3 L 304.7,236.6 L 311.5,236.0 L 318.4,235.6 L 325.2,235.4 L 332.0,235.4 L 338.9,235.2 L 345.7,234.8 L 352.6,234.8 L 359.4,234.6 L 366.3,234.0 L 373.1,233.6 L 379.9,233.6 L 386.8,233.6 L 393.6,233.6 L 400.5,233.4 L 407.3,232.8 L 414.2,232.4 L 421.0,232.2 L 427.8,232.0 L 434.7,231.8 L 441.5,231.6 L 448.4,231.4 L 455.2,231.2 L 462.1,230.7 L 468.9,230.5 L 475.7,230.3 L 482.6,229.5 L 489.4,228.7 L 496.3,228.7 L 503.1,228.5 L 510.0,228.3 L 516.8,228.3 L 523.6,228.3 L 530.5,227.9 L 537.3,227.9 L 544.2,226.7 L 551.0,226.5 L 557.9,226.3 L 564.7,226.3 L 571.5,225.9 L 578.4,225.7 L 585.2,225.7 L 592.1,225.5 L 598.9,225.5 L 605.8,225.5 L 612.6,225.1 L 619.5,224.9 L 626.3,224.0 L 633.1,224.2 L 640.0,224.0 L 646.8,223.8 L 653.7,223.8 L 660.5,223.6 L 667.4,223.0 L 674.2,223.0 L 681.0,223.0 L 687.9,223.0 L 694.7,222.6 L 701.6,222.6 L 708.4,222.2 L 715.3,221.8 L 722.1,221.0 L 728.9,221.0 L 735.8,220.6 L 742.6,220.4 L 749.5,220.2 L 756.3,220.0 L 763.2,219.6 L 770.0,219.6" fill="none" stroke="#BF5AF2" stroke-width="2.5" stroke-linejoin="round" clip-path="url(#ca)"/>
<path d="M 72.0,340 L 72.0,291.4 L 78.8,290.8 L 85.7,290.8 L 92.5,290.8 L 99.4,290.6 L 106.2,290.2 L 113.1,290.0 L 119.9,289.7 L 126.7,289.7 L 133.6,289.5 L 140.4,289.3 L 147.3,289.3 L 154.1,289.3 L 161.0,289.3 L 167.8,289.3 L 174.6,289.3 L 181.5,288.9 L 188.3,288.9 L 195.2,289.1 L 202.0,288.5 L 208.9,288.7 L 215.7,288.1 L 222.5,287.5 L 229.4,287.3 L 236.2,287.5 L 243.1,287.5 L 249.9,286.9 L 256.8,286.7 L 263.6,286.7 L 270.5,286.3 L 277.3,286.1 L 284.1,285.7 L 291.0,285.7 L 297.8,285.5 L 304.7,284.9 L 311.5,284.3 L 318.4,283.9 L 325.2,283.9 L 332.0,283.9 L 338.9,283.8 L 345.7,283.4 L 352.6,283.4 L 359.4,283.2 L 366.3,282.6 L 373.1,282.4 L 379.9,282.4 L 386.8,282.4 L 393.6,282.4 L 400.5,282.2 L 407.3,281.6 L 414.2,281.4 L 421.0,281.2 L 427.8,281.0 L 434.7,281.0 L 441.5,280.8 L 448.4,280.8 L 455.2,280.8 L 462.1,280.2 L 468.9,280.2 L 475.7,280.2 L 482.6,279.8 L 489.4,279.2 L 496.3,279.2 L 503.1,279.0 L 510.0,278.8 L 516.8,278.8 L 523.6,278.8 L 530.5,278.4 L 537.3,278.4 L 544.2,277.3 L 551.0,277.1 L 557.9,276.9 L 564.7,276.9 L 571.5,276.7 L 578.4,276.7 L 585.2,276.7 L 592.1,276.7 L 598.9,276.7 L 605.8,276.7 L 612.6,276.3 L 619.5,276.1 L 626.3,275.1 L 633.1,275.3 L 640.0,275.3 L 646.8,275.1 L 653.7,275.1 L 660.5,275.1 L 667.4,274.7 L 674.2,274.7 L 681.0,274.7 L 687.9,274.7 L 694.7,274.7 L 701.6,274.7 L 708.4,274.5 L 715.3,274.5 L 722.1,273.7 L 728.9,273.7 L 735.8,273.5 L 742.6,273.3 L 749.5,273.1 L 756.3,272.9 L 763.2,272.5 L 770.0,272.5 L 770.0,340 Z" fill="url(#g4)" clip-path="url(#ca)"/>
<path d="M 72.0,291.4 L 78.8,290.8 L 85.7,290.8 L 92.5,290.8 L 99.4,290.6 L 106.2,290.2 L 113.1,290.0 L 119.9,289.7 L 126.7,289.7 L 133.6,289.5 L 140.4,289.3 L 147.3,289.3 L 154.1,289.3 L 161.0,289.3 L 167.8,289.3 L 174.6,289.3 L 181.5,288.9 L 188.3,288.9 L 195.2,289.1 L 202.0,288.5 L 208.9,288.7 L 215.7,288.1 L 222.5,287.5 L 229.4,287.3 L 236.2,287.5 L 243.1,287.5 L 249.9,286.9 L 256.8,286.7 L 263.6,286.7 L 270.5,286.3 L 277.3,286.1 L 284.1,285.7 L 291.0,285.7 L 297.8,285.5 L 304.7,284.9 L 311.5,284.3 L 318.4,283.9 L 325.2,283.9 L 332.0,283.9 L 338.9,283.8 L 345.7,283.4 L 352.6,283.4 L 359.4,283.2 L 366.3,282.6 L 373.1,282.4 L 379.9,282.4 L 386.8,282.4 L 393.6,282.4 L 400.5,282.2 L 407.3,281.6 L 414.2,281.4 L 421.0,281.2 L 427.8,281.0 L 434.7,281.0 L 441.5,280.8 L 448.4,280.8 L 455.2,280.8 L 462.1,280.2 L 468.9,280.2 L 475.7,280.2 L 482.6,279.8 L 489.4,279.2 L 496.3,279.2 L 503.1,279.0 L 510.0,278.8 L 516.8,278.8 L 523.6,278.8 L 530.5,278.4 L 537.3,278.4 L 544.2,277.3 L 551.0,277.1 L 557.9,276.9 L 564.7,276.9 L 571.5,276.7 L 578.4,276.7 L 585.2,276.7 L 592.1,276.7 L 598.9,276.7 L 605.8,276.7 L 612.6,276.3 L 619.5,276.1 L 626.3,275.1 L 633.1,275.3 L 640.0,275.3 L 646.8,275.1 L 653.7,275.1 L 660.5,275.1 L 667.4,274.7 L 674.2,274.7 L 681.0,274.7 L 687.9,274.7 L 694.7,274.7 L 701.6,274.7 L 708.4,274.5 L 715.3,274.5 L 722.1,273.7 L 728.9,273.7 L 735.8,273.5 L 742.6,273.3 L 749.5,273.1 L 756.3,272.9 L 763.2,272.5 L 770.0,272.5" fill="none" stroke="#34C759" stroke-width="2.5" stroke-linejoin="round" clip-path="url(#ca)"/>
<text x="109.6" y="55.0" text-anchor="middle" font-size="9" fill="#4F8EF7" opacity="0.85" clip-path="url(#ca)">+0.5% (+8)</text>
<text x="109.6" y="66.0" text-anchor="middle" font-size="9" fill="#BF5AF2" opacity="0.85" clip-path="url(#ca)">+1.0% (+10)</text>
<text x="109.6" y="77.0" text-anchor="middle" font-size="9" fill="#34C759" opacity="0.85" clip-path="url(#ca)">+1.5% (+11)</text>
<text x="239.7" y="55.0" text-anchor="middle" font-size="9" fill="#4F8EF7" opacity="0.85" clip-path="url(#ca)">+4.0% (+65)</text>
<text x="239.7" y="66.0" text-anchor="middle" font-size="9" fill="#BF5AF2" opacity="0.85" clip-path="url(#ca)">+3.5% (+35)</text>
<text x="239.7" y="77.0" text-anchor="middle" font-size="9" fill="#34C759" opacity="0.85" clip-path="url(#ca)">+3.6% (+27)</text>
<text x="421.0" y="55.0" text-anchor="middle" font-size="9" fill="#4F8EF7" opacity="0.85" clip-path="url(#ca)">+4.1% (+70)</text>
<text x="421.0" y="66.0" text-anchor="middle" font-size="9" fill="#BF5AF2" opacity="0.85" clip-path="url(#ca)">+3.5% (+36)</text>
<text x="421.0" y="77.0" text-anchor="middle" font-size="9" fill="#34C759" opacity="0.85" clip-path="url(#ca)">+3.3% (+26)</text>
<text x="605.8" y="55.0" text-anchor="middle" font-size="9" fill="#4F8EF7" opacity="0.85" clip-path="url(#ca)">+3.5% (+61)</text>
<text x="605.8" y="66.0" text-anchor="middle" font-size="9" fill="#BF5AF2" opacity="0.85" clip-path="url(#ca)">+2.7% (+29)</text>
<text x="605.8" y="77.0" text-anchor="middle" font-size="9" fill="#34C759" opacity="0.85" clip-path="url(#ca)">+2.6% (+21)</text>
<text x="735.8" y="55.0" text-anchor="middle" font-size="9" fill="#4F8EF7" opacity="0.85" clip-path="url(#ca)">+1.0% (+18)</text>
<text x="735.8" y="66.0" text-anchor="middle" font-size="9" fill="#BF5AF2" opacity="0.85" clip-path="url(#ca)">+1.4% (+15)</text>
<text x="735.8" y="77.0" text-anchor="middle" font-size="9" fill="#34C759" opacity="0.85" clip-path="url(#ca)">+1.3% (+11)</text>
<rect x="211" y="369" width="12" height="12" fill="#4F8EF7" rx="2"/>
<text x="227" y="379" font-size="12" fill="#111827">Authors</text>
<rect x="351" y="369" width="12" height="12" fill="#BF5AF2" rx="2"/>
<text x="367" y="379" font-size="12" fill="#111827">Contributors</text>
<rect x="491" y="369" width="12" height="12" fill="#34C759" rx="2"/>
<text x="507" y="379" font-size="12" fill="#111827">Non-author contributors</text>
<text x="72" y="394" font-size="8" fill="#e5e7eb">data since Dec 11, 2025</text>
</svg>