<svg xmlns="http://www.w3.org/2000/svg" width="800" height="400" viewBox="0 0 800 400">
<defs>
  <style>text { font-family: -apple-system, BlinkMacSystemFont, 'Segoe UI', Roboto, sans-serif; }</style>
  <linearGradient id="g1" x1="0" y1="0" x2="0" y2="1">
  <stop offset="0%" stop-color="#FF6363" stop-opacity="0.25"/>
  <stop offset="100%" stop-color="#FF6363" stop-opacity="0"/>
</linearGradient>
  <clipPath id="ca"><rect x="72" y="45" width="698" height="295"/></clipPath>
</defs>
<rect width="800" height="400" fill="#ffffff" rx="12"/>
<text x="400" y="26" text-anchor="middle" font-size="15" font-weight="600" fill="#111827">Packages Growth Over Time</text>
<line x1="72" y1="340.0" x2="770" y2="340.0" stroke="#f3f4f6" stroke-width="1"/>
<text x="66" y="344.0" text-anchor="end" font-size="11" fill="#6b7280">2.4k</text>
<line x1="72" y1="281.0" x2="770" y2="281.0" stroke="#f3f4f6" stroke-width="1"/>
<text x="66" y="285.0" text-anchor="end" font-size="11" fill="#6b7280">2.5k</text>
<line x1="72" y1="222.0" x2="770" y2="222.0" stroke="#f3f4f6" stroke-width="1"/>
<text x="66" y="226.0" text-anchor="end" font-size="11" fill="#6b7280">2.6k</text>
<line x1="72" y1="163.0" x2="770" y2="163.0" stroke="#f3f4f6" stroke-width="1"/>
<text x="66" y="167.0" text-anchor="end" font-size="11" fill="#6b7280">2.7k</text>
<line x1="72" y1="104.0" x2="770" y2="104.0" stroke="#f3f4f6" stroke-width="1"/>
<text x="66" y="108.0" text-anchor="end" font-size="11" fill="#6b7280">2.8k</text>
<line x1="72" y1="45.0" x2="770" y2="45.0" stroke="#f3f4f6" stroke-width="1"/>
<text x="66" y="49.0" text-anchor="end" font-size="11" fill="#6b7280">2.9k</text>
<line x1="145.5" y1="45" x2="145.5" y2="340" stroke="#e5e7eb" stroke-width="1" stroke-dasharray="3,3" clip-path="url(#ca)"/>
<line x1="304.7" y1="45" x2="304.7" y2="340" stroke="#e5e7eb" stroke-width="1" stroke-dasharray="3,3" clip-path="url(#ca)"/>
<line x1="470.0" y1="45" x2="470.0" y2="340" stroke="#e5e7eb" stroke-width="1" stroke-dasharray="3,3" clip-path="url(#ca)"/>
<line x1="635.3" y1="45" x2="635.3" y2="340" stroke="#e5e7eb" stroke-width="1" stroke-dasharray="3,3" clip-path="url(#ca)"/>
<text x="72.0" y="358.0" text-anchor="middle" font-size="11" fill="#6b7280">Dec 11</text>
<text x="212.8" y="358.0" text-anchor="middle" font-size="11" fill="#6b7280">Jan 16</text>
<text x="353.6" y="358.0" text-anchor="middle" font-size="11" fill="#6b7280">Feb 9</text>
<text x="488.4" y="358.0" text-anchor="middle" font-size="11" fill="#6b7280">Mar 4</text>
<text x="629.2" y="358.0" text-anchor="middle" font-size="11" fill="#6b7280">Mar 31</text>
<text x="770.0" y="358.0" text-anchor="middle" font-size="11" fill="#6b7280">Apr 25</text>
<line x1="72" y1="45" x2="72" y2="340" stroke="#e5e7eb" stroke-width="1"/>
<line x1="72" y1="340" x2="770" y2="340" stroke="#e5e7eb" stroke-width="1"/>
<text x="-192.5" y="18" text-anchor="middle" font-size="12" fill="#6b7280" transform="rotate(-90)">Extensions</text>
<path d="M 72.0,340 L 72.0,294.6 L 78.1,294.0 L 84.2,294.0 L 90.4,292.2 L 96.5,292.2 L 102.6,291.0 L 108.7,289.9 L 114.9,289.3 L 121.0,286.3 L 127.1,283.9 L 133.2,283.9 L 139.4,283.9 L 145.5,283.9 L 151.6,282.8 L 157.7,282.8 L 163.8,282.8 L 170.0,281.6 L 176.1,279.2 L 182.2,275.1 L 188.3,272.1 L 194.5,271.0 L 200.6,270.4 L 206.7,268.0 L 212.8,260.9 L 218.9,258.6 L 225.1,258.6 L 231.2,252.7 L 237.3,250.9 L 243.4,248.6 L 249.6,246.8 L 255.7,243.2 L 261.8,240.3 L 267.9,239.7 L 274.1,235.0 L 280.2,230.8 L 286.3,230.8 L 292.4,227.9 L 298.5,225.5 L 304.7,224.9 L 310.8,224.4 L 316.9,223.8 L 323.0,222.0 L 329.2,211.4 L 335.3,206.7 L 341.4,204.3 L 347.5,203.1 L 353.6,201.3 L 359.8,197.2 L 365.9,196.0 L 372.0,194.9 L 378.1,191.3 L 384.3,190.1 L 390.4,189.0 L 396.5,189.0 L 402.6,178.3 L 408.8,177.2 L 414.9,176.0 L 421.0,173.6 L 427.1,170.7 L 433.2,170.7 L 439.4,166.0 L 445.5,158.3 L 451.6,157.1 L 457.7,157.7 L 463.9,155.9 L 470.0,155.3 L 476.1,155.3 L 482.2,151.8 L 488.4,148.8 L 494.5,146.5 L 500.6,143.5 L 506.7,142.9 L 512.8,142.9 L 519.0,138.8 L 525.1,137.6 L 531.2,137.0 L 537.3,130.0 L 543.5,129.4 L 549.6,129.4 L 555.7,129.4 L 561.8,128.8 L 567.9,125.8 L 574.1,123.5 L 580.2,120.5 L 586.3,119.9 L 592.4,118.2 L 598.6,112.8 L 604.7,108.1 L 610.8,107.5 L 616.9,106.9 L 623.1,105.2 L 629.2,99.3 L 635.3,98.1 L 641.4,96.3 L 647.5,92.8 L 653.7,92.2 L 659.8,91.6 L 665.9,91.6 L 672.0,90.4 L 678.2,86.9 L 684.3,85.7 L 690.4,84.5 L 696.5,83.9 L 702.6,82.8 L 708.8,76.9 L 714.9,76.3 L 721.0,75.1 L 727.1,74.5 L 733.3,71.6 L 739.4,71.0 L 745.5,70.4 L 751.6,68.6 L 757.8,66.2 L 763.9,66.2 L 770.0,66.2 L 770.0,340 Z" fill="url(#g1)" clip-path="url(#ca)"/>
<path d="M 72.0,294.6 L 78.1,294.0 L 84.2,294.0 L 90.4,292.2 L 96.5,292.2 L 102.6,291.0 L 108.7,289.9 L 114.9,289.3 L 121.0,286.3 L 127.1,283.9 L 133.2,283.9 L 139.4,283.9 L 145.5,283.9 L 151.6,282.8 L 157.7,282.8 L 163.8,282.8 L 170.0,281.6 L 176.1,279.2 L 182.2,275.1 L 188.3,272.1 L 194.5,271.0 L 200.6,270.4 L 206.7,268.0 L 212.8,260.9 L 218.9,258.6 L 225.1,258.6 L 231.2,252.7 L 237.3,250.9 L 243.4,248.6 L 249.6,246.8 L 255.7,243.2 L 261.8,240.3 L 267.9,239.7 L 274.1,235.0 L 280.2,230.8 L 286.3,230.8 L 292.4,227.9 L 298.5,225.5 L 304.7,224.9 L 310.8,224.4 L 316.9,223.8 L 323.0,222.0 L 329.2,211.4 L 335.3,206.7 L 341.4,204.3 L 347.5,203.1 L 353.6,201.3 L 359.8,197.2 L 365.9,196.0 L 372.0,194.9 L 378.1,191.3 L 384.3,190.1 L 390.4,189.0 L 396.5,189.0 L 402.6,178.3 L 408.8,177.2 L 414.9,176.0 L 421.0,173.6 L 427.1,170.7 L 433.2,170.7 L 439.4,166.0 L 445.5,158.3 L 451.6,157.1 L 457.7,157.7 L 463.9,155.9 L 470.0,155.3 L 476.1,155.3 L 482.2,151.8 L 488.4,148.8 L 494.5,146.5 L 500.6,143.5 L 506.7,142.9 L 512.8,142.9 L 519.0,138.8 L 525.1,137.6 L 531.2,137.0 L 537.3,130.0 L 543.5,129.4 L 549.6,129.4 L 555.7,129.4 L 561.8,128.8 L 567.9,125.8 L 574.1,123.5 L 580.2,120.5 L 586.3,119.9 L 592.4,118.2 L 598.6,112.8 L 604.7,108.1 L 610.8,107.5 L 616.9,106.9 L 623.1,105.2 L 629.2,99.3 L 635.3,98.1 L 641.4,96.3 L 647.5,92.8 L 653.7,92.2 L 659.8,91.6 L 665.9,91.6 L 672.0,90.4 L 678.2,86.9 L 684.3,85.7 L 690.4,84.5 L 696.5,83.9 L 702.6,82.8 L 708.8,76.9 L 714.9,76.3 L 721.0,75.1 L 727.1,74.5 L 733.3,71.6 L 739.4,71.0 L 745.5,70.4 L 751.6,68.6 L 757.8,66.2 L 763.9,66.2 L 770.0,66.2" fill="none" stroke="#FF6363" stroke-width="2.5" stroke-linejoin="round" clip-path="url(#ca)"/>
<text x="105.7" y="55.0" text-anchor="middle" font-size="9" fill="#FF6363" opacity="0.85" clip-path="url(#ca)">+0.7% (+18)</text>
<text x="222.0" y="55.0" text-anchor="middle" font-size="9" fill="#FF6363" opacity="0.85" clip-path="url(#ca)">+4.0% (+99)</text>
<text x="384.3" y="55.0" text-anchor="middle" font-size="9" fill="#FF6363" opacity="0.85" clip-path="url(#ca)">+4.5% (+117)</text>
<text x="549.6" y="55.0" text-anchor="middle" font-size="9" fill="#FF6363" opacity="0.85" clip-path="url(#ca)">+3.5% (+95)</text>
<text x="702.6" y="55.0" text-anchor="middle" font-size="9" fill="#FF6363" opacity="0.85" clip-path="url(#ca)">+1.9% (+54)</text>
<rect x="351" y="369" width="12" height="12" fill="#FF6363" rx="2"/>
<text x="367" y="379" font-size="12" fill="#111827">Extensions</text>
<text x="72" y="394" font-size="8" fill="#e5e7eb">data since Dec 11, 2025</text>
</svg>