<svg xmlns="http://www.w3.org/2000/svg" width="800" height="400" viewBox="0 0 800 400">
<defs>
  <style>text { font-family: -apple-system, BlinkMacSystemFont, 'Segoe UI', Roboto, sans-serif; }</style>
  <linearGradient id="g2" x1="0" y1="0" x2="0" y2="1">
  <stop offset="0%" stop-color="#4F8EF7" stop-opacity="0.25"/>
  <stop offset="100%" stop-color="#4F8EF7" stop-opacity="0"/>
</linearGradient>
<linearGradient id="g3" x1="0" y1="0" x2="0" y2="1">
  <stop offset="0%" stop-color="#BF5AF2" stop-opacity="0.25"/>
  <stop offset="100%" stop-color="#BF5AF2" stop-opacity="0"/>
</linearGradient>
<linearGradient id="g4" x1="0" y1="0" x2="0" y2="1">
  <stop offset="0%" stop-color="#34C759" stop-opacity="0.25"/>
  <stop offset="100%" stop-color="#34C759" stop-opacity="0"/>
</linearGradient>
  <clipPath id="ca"><rect x="72" y="45" width="698" height="295"/></clipPath>
</defs>
<rect width="800" height="400" fill="#ffffff" rx="12"/>
<text x="400" y="26" text-anchor="middle" font-size="15" font-weight="600" fill="#111827">Community Growth Over Time</text>
<line x1="72" y1="340.0" x2="770" y2="340.0" stroke="#f3f4f6" stroke-width="1"/>
<text x="66" y="344.0" text-anchor="end" font-size="11" fill="#6b7280">500</text>
<line x1="72" y1="241.7" x2="770" y2="241.7" stroke="#f3f4f6" stroke-width="1"/>
<text x="66" y="245.7" text-anchor="end" font-size="11" fill="#6b7280">1.0k</text>
<line x1="72" y1="143.3" x2="770" y2="143.3" stroke="#f3f4f6" stroke-width="1"/>
<text x="66" y="147.3" text-anchor="end" font-size="11" fill="#6b7280">1.5k</text>
<line x1="72" y1="45.0" x2="770" y2="45.0" stroke="#f3f4f6" stroke-width="1"/>
<text x="66" y="49.0" text-anchor="end" font-size="11" fill="#6b7280">2.0k</text>
<line x1="127.8" y1="45" x2="127.8" y2="340" stroke="#e5e7eb" stroke-width="1" stroke-dasharray="3,3" clip-path="url(#ca)"/>
<line x1="248.8" y1="45" x2="248.8" y2="340" stroke="#e5e7eb" stroke-width="1" stroke-dasharray="3,3" clip-path="url(#ca)"/>
<line x1="374.5" y1="45" x2="374.5" y2="340" stroke="#e5e7eb" stroke-width="1" stroke-dasharray="3,3" clip-path="url(#ca)"/>
<line x1="500.1" y1="45" x2="500.1" y2="340" stroke="#e5e7eb" stroke-width="1" stroke-dasharray="3,3" clip-path="url(#ca)"/>
<line x1="625.7" y1="45" x2="625.7" y2="340" stroke="#e5e7eb" stroke-width="1" stroke-dasharray="3,3" clip-path="url(#ca)"/>
<line x1="746.7" y1="45" x2="746.7" y2="340" stroke="#e5e7eb" stroke-width="1" stroke-dasharray="3,3" clip-path="url(#ca)"/>
<text x="72.0" y="358.0" text-anchor="middle" font-size="11" fill="#6b7280">Dec 11</text>
<text x="211.6" y="358.0" text-anchor="middle" font-size="11" fill="#6b7280">Jan 24</text>
<text x="351.2" y="358.0" text-anchor="middle" font-size="11" fill="#6b7280">Feb 24</text>
<text x="490.8" y="358.0" text-anchor="middle" font-size="11" fill="#6b7280">Mar 28</text>
<text x="630.4" y="358.0" text-anchor="middle" font-size="11" fill="#6b7280">May 2</text>
<text x="770.0" y="358.0" text-anchor="middle" font-size="11" fill="#6b7280">Jun 8</text>
<line x1="72" y1="45" x2="72" y2="340" stroke="#e5e7eb" stroke-width="1"/>
<line x1="72" y1="340" x2="770" y2="340" stroke="#e5e7eb" stroke-width="1"/>
<text x="-192.5" y="18" text-anchor="middle" font-size="12" fill="#6b7280" transform="rotate(-90)">People</text>
<path d="M 72.0,340 L 72.0,120.1 L 76.7,120.1 L 81.3,120.1 L 86.0,119.5 L 90.6,119.5 L 95.3,119.1 L 99.9,118.9 L 104.6,119.1 L 109.2,118.6 L 113.9,118.6 L 118.5,118.6 L 123.2,118.6 L 127.8,118.6 L 132.5,118.6 L 137.1,118.6 L 141.8,118.6 L 146.5,118.4 L 151.1,117.8 L 155.8,116.6 L 160.4,116.0 L 165.1,115.8 L 169.7,115.8 L 174.4,115.2 L 179.0,113.8 L 183.7,113.0 L 188.3,113.0 L 193.0,112.1 L 197.6,111.7 L 202.3,110.9 L 206.9,110.3 L 211.6,109.7 L 216.3,109.1 L 220.9,109.1 L 225.6,107.7 L 230.2,106.9 L 234.9,106.9 L 239.5,106.2 L 244.2,105.8 L 248.8,105.6 L 253.5,105.4 L 258.1,105.4 L 262.8,104.8 L 267.4,102.4 L 272.1,101.0 L 276.7,100.3 L 281.4,100.1 L 286.1,99.7 L 290.7,98.9 L 295.4,98.5 L 300.0,98.1 L 304.7,97.7 L 309.3,97.3 L 314.0,96.9 L 318.6,96.9 L 323.3,95.0 L 327.9,95.0 L 332.6,94.8 L 337.2,94.6 L 341.9,94.2 L 346.5,94.2 L 351.2,93.2 L 355.9,92.0 L 360.5,91.6 L 365.2,92.0 L 369.8,91.8 L 374.5,91.6 L 379.1,91.6 L 383.8,91.2 L 388.4,90.4 L 393.1,90.0 L 397.7,89.6 L 402.4,89.4 L 407.0,89.4 L 411.7,88.7 L 416.3,88.3 L 421.0,88.3 L 425.7,86.7 L 430.3,86.7 L 435.0,86.7 L 439.6,86.7 L 444.3,86.5 L 448.9,85.9 L 453.6,85.1 L 458.2,84.7 L 462.9,84.7 L 467.5,84.3 L 472.2,82.8 L 476.8,81.8 L 481.5,81.6 L 486.1,81.4 L 490.8,80.8 L 495.5,79.6 L 500.1,79.2 L 504.8,78.8 L 509.4,77.6 L 514.1,77.4 L 518.7,77.4 L 523.4,77.4 L 528.0,77.3 L 532.7,76.1 L 537.3,75.9 L 542.0,75.7 L 546.6,75.7 L 551.3,75.3 L 555.9,73.7 L 560.6,73.5 L 565.3,73.3 L 569.9,73.3 L 574.6,72.5 L 579.2,72.3 L 583.9,72.1 L 588.5,71.6 L 593.2,70.8 L 597.8,70.8 L 602.5,70.8 L 607.1,70.8 L 611.8,70.4 L 616.4,69.8 L 621.1,69.6 L 625.7,69.0 L 630.4,68.8 L 635.1,68.6 L 639.7,67.8 L 644.4,67.2 L 649.0,67.0 L 653.7,67.0 L 658.3,65.3 L 663.0,64.7 L 667.6,64.5 L 672.3,64.5 L 676.9,63.5 L 681.6,63.5 L 686.2,62.9 L 690.9,62.3 L 695.5,60.9 L 700.2,60.7 L 704.9,60.5 L 709.5,60.3 L 714.2,60.3 L 718.8,60.1 L 723.5,59.2 L 728.1,58.6 L 732.8,58.6 L 737.4,58.4 L 742.1,58.4 L 746.7,57.8 L 751.4,57.6 L 756.0,57.4 L 760.7,56.8 L 765.3,56.0 L 770.0,56.0 L 770.0,340 Z" fill="url(#g2)" clip-path="url(#ca)"/>
<path d="M 72.0,120.1 L 76.7,120.1 L 81.3,120.1 L 86.0,119.5 L 90.6,119.5 L 95.3,119.1 L 99.9,118.9 L 104.6,119.1 L 109.2,118.6 L 113.9,118.6 L 118.5,118.6 L 123.2,118.6 L 127.8,118.6 L 132.5,118.6 L 137.1,118.6 L 141.8,118.6 L 146.5,118.4 L 151.1,117.8 L 155.8,116.6 L 160.4,116.0 L 165.1,115.8 L 169.7,115.8 L 174.4,115.2 L 179.0,113.8 L 183.7,113.0 L 188.3,113.0 L 193.0,112.1 L 197.6,111.7 L 202.3,110.9 L 206.9,110.3 L 211.6,109.7 L 216.3,109.1 L 220.9,109.1 L 225.6,107.7 L 230.2,106.9 L 234.9,106.9 L 239.5,106.2 L 244.2,105.8 L 248.8,105.6 L 253.5,105.4 L 258.1,105.4 L 262.8,104.8 L 267.4,102.4 L 272.1,101.0 L 276.7,100.3 L 281.4,100.1 L 286.1,99.7 L 290.7,98.9 L 295.4,98.5 L 300.0,98.1 L 304.7,97.7 L 309.3,97.3 L 314.0,96.9 L 318.6,96.9 L 323.3,95.0 L 327.9,95.0 L 332.6,94.8 L 337.2,94.6 L 341.9,94.2 L 346.5,94.2 L 351.2,93.2 L 355.9,92.0 L 360.5,91.6 L 365.2,92.0 L 369.8,91.8 L 374.5,91.6 L 379.1,91.6 L 383.8,91.2 L 388.4,90.4 L 393.1,90.0 L 397.7,89.6 L 402.4,89.4 L 407.0,89.4 L 411.7,88.7 L 416.3,88.3 L 421.0,88.3 L 425.7,86.7 L 430.3,86.7 L 435.0,86.7 L 439.6,86.7 L 444.3,86.5 L 448.9,85.9 L 453.6,85.1 L 458.2,84.7 L 462.9,84.7 L 467.5,84.3 L 472.2,82.8 L 476.8,81.8 L 481.5,81.6 L 486.1,81.4 L 490.8,80.8 L 495.5,79.6 L 500.1,79.2 L 504.8,78.8 L 509.4,77.6 L 514.1,77.4 L 518.7,77.4 L 523.4,77.4 L 528.0,77.3 L 532.7,76.1 L 537.3,75.9 L 542.0,75.7 L 546.6,75.7 L 551.3,75.3 L 555.9,73.7 L 560.6,73.5 L 565.3,73.3 L 569.9,73.3 L 574.6,72.5 L 579.2,72.3 L 583.9,72.1 L 588.5,71.6 L 593.2,70.8 L 597.8,70.8 L 602.5,70.8 L 607.1,70.8 L 611.8,70.4 L 616.4,69.8 L 621.1,69.6 L 625.7,69.0 L 630.4,68.8 L 635.1,68.6 L 639.7,67.8 L 644.4,67.2 L 649.0,67.0 L 653.7,67.0 L 658.3,65.3 L 663.0,64.7 L 667.6,64.5 L 672.3,64.5 L 676.9,63.5 L 681.6,63.5 L 686.2,62.9 L 690.9,62.3 L 695.5,60.9 L 700.2,60.7 L 704.9,60.5 L 709.5,60.3 L 714.2,60.3 L 718.8,60.1 L 723.5,59.2 L 728.1,58.6 L 732.8,58.6 L 737.4,58.4 L 742.1,58.4 L 746.7,57.8 L 751.4,57.6 L 756.0,57.4 L 760.7,56.8 L 765.3,56.0 L 770.0,56.0" fill="none" stroke="#4F8EF7" stroke-width="2.5" stroke-linejoin="round" clip-path="url(#ca)"/>
<path d="M 72.0,340 L 72.0,244.2 L 76.7,243.6 L 81.3,243.6 L 86.0,243.6 L 90.6,243.4 L 95.3,243.0 L 99.9,242.8 L 104.6,242.6 L 109.2,242.6 L 113.9,242.5 L 118.5,242.3 L 123.2,242.3 L 127.8,242.3 L 132.5,242.3 L 137.1,242.3 L 141.8,242.3 L 146.5,241.9 L 151.1,241.9 L 155.8,241.9 L 160.4,241.1 L 165.1,240.9 L 169.7,240.5 L 174.4,239.7 L 179.0,239.5 L 183.7,239.5 L 188.3,239.5 L 193.0,238.9 L 197.6,238.5 L 202.3,238.5 L 206.9,238.1 L 211.6,237.9 L 216.3,237.5 L 220.9,237.5 L 225.6,237.3 L 230.2,236.6 L 234.9,236.0 L 239.5,235.6 L 244.2,235.4 L 248.8,235.4 L 253.5,235.2 L 258.1,234.8 L 262.8,234.8 L 267.4,234.6 L 272.1,234.0 L 276.7,233.6 L 281.4,233.6 L 286.1,233.6 L 290.7,233.6 L 295.4,233.4 L 300.0,232.8 L 304.7,232.4 L 309.3,232.2 L 314.0,232.0 L 318.6,231.8 L 323.3,231.6 L 327.9,231.4 L 332.6,231.2 L 337.2,230.7 L 341.9,230.5 L 346.5,230.3 L 351.2,229.5 L 355.9,228.7 L 360.5,228.7 L 365.2,228.5 L 369.8,228.3 L 374.5,228.3 L 379.1,228.3 L 383.8,227.9 L 388.4,227.9 L 393.1,226.7 L 397.7,226.5 L 402.4,226.3 L 407.0,226.3 L 411.7,225.9 L 416.3,225.7 L 421.0,225.7 L 425.7,225.5 L 430.3,225.5 L 435.0,225.5 L 439.6,225.1 L 444.3,224.9 L 448.9,224.0 L 453.6,224.2 L 458.2,224.0 L 462.9,223.8 L 467.5,223.8 L 472.2,223.6 L 476.8,223.0 L 481.5,223.0 L 486.1,223.0 L 490.8,223.0 L 495.5,222.6 L 500.1,222.6 L 504.8,222.2 L 509.4,221.8 L 514.1,221.0 L 518.7,221.0 L 523.4,220.6 L 528.0,220.4 L 532.7,220.2 L 537.3,220.0 L 542.0,219.6 L 546.6,219.6 L 551.3,219.1 L 555.9,219.1 L 560.6,218.9 L 565.3,218.5 L 569.9,218.3 L 574.6,218.3 L 579.2,218.3 L 583.9,218.3 L 588.5,218.3 L 593.2,217.7 L 597.8,217.7 L 602.5,217.3 L 607.1,216.9 L 611.8,216.3 L 616.4,216.1 L 621.1,216.1 L 625.7,214.9 L 630.4,214.7 L 635.1,214.7 L 639.7,213.9 L 644.4,213.9 L 649.0,213.5 L 653.7,213.5 L 658.3,213.3 L 663.0,213.3 L 667.6,213.2 L 672.3,212.8 L 676.9,212.8 L 681.6,212.6 L 686.2,212.4 L 690.9,212.2 L 695.5,212.0 L 700.2,212.0 L 704.9,211.6 L 709.5,211.6 L 714.2,211.6 L 718.8,210.6 L 723.5,210.6 L 728.1,210.6 L 732.8,210.6 L 737.4,210.6 L 742.1,210.6 L 746.7,210.2 L 751.4,210.2 L 756.0,209.8 L 760.7,209.0 L 765.3,208.6 L 770.0,208.4 L 770.0,340 Z" fill="url(#g3)" clip-path="url(#ca)"/>
<path d="M 72.0,244.2 L 76.7,243.6 L 81.3,243.6 L 86.0,243.6 L 90.6,243.4 L 95.3,243.0 L 99.9,242.8 L 104.6,242.6 L 109.2,242.6 L 113.9,242.5 L 118.5,242.3 L 123.2,242.3 L 127.8,242.3 L 132.5,242.3 L 137.1,242.3 L 141.8,242.3 L 146.5,241.9 L 151.1,241.9 L 155.8,241.9 L 160.4,241.1 L 165.1,240.9 L 169.7,240.5 L 174.4,239.7 L 179.0,239.5 L 183.7,239.5 L 188.3,239.5 L 193.0,238.9 L 197.6,238.5 L 202.3,238.5 L 206.9,238.1 L 211.6,237.9 L 216.3,237.5 L 220.9,237.5 L 225.6,237.3 L 230.2,236.6 L 234.9,236.0 L 239.5,235.6 L 244.2,235.4 L 248.8,235.4 L 253.5,235.2 L 258.1,234.8 L 262.8,234.8 L 267.4,234.6 L 272.1,234.0 L 276.7,233.6 L 281.4,233.6 L 286.1,233.6 L 290.7,233.6 L 295.4,233.4 L 300.0,232.8 L 304.7,232.4 L 309.3,232.2 L 314.0,232.0 L 318.6,231.8 L 323.3,231.6 L 327.9,231.4 L 332.6,231.2 L 337.2,230.7 L 341.9,230.5 L 346.5,230.3 L 351.2,229.5 L 355.9,228.7 L 360.5,228.7 L 365.2,228.5 L 369.8,228.3 L 374.5,228.3 L 379.1,228.3 L 383.8,227.9 L 388.4,227.9 L 393.1,226.7 L 397.7,226.5 L 402.4,226.3 L 407.0,226.3 L 411.7,225.9 L 416.3,225.7 L 421.0,225.7 L 425.7,225.5 L 430.3,225.5 L 435.0,225.5 L 439.6,225.1 L 444.3,224.9 L 448.9,224.0 L 453.6,224.2 L 458.2,224.0 L 462.9,223.8 L 467.5,223.8 L 472.2,223.6 L 476.8,223.0 L 481.5,223.0 L 486.1,223.0 L 490.8,223.0 L 495.5,222.6 L 500.1,222.6 L 504.8,222.2 L 509.4,221.8 L 514.1,221.0 L 518.7,221.0 L 523.4,220.6 L 528.0,220.4 L 532.7,220.2 L 537.3,220.0 L 542.0,219.6 L 546.6,219.6 L 551.3,219.1 L 555.9,219.1 L 560.6,218.9 L 565.3,218.5 L 569.9,218.3 L 574.6,218.3 L 579.2,218.3 L 583.9,218.3 L 588.5,218.3 L 593.2,217.7 L 597.8,217.7 L 602.5,217.3 L 607.1,216.9 L 611.8,216.3 L 616.4,216.1 L 621.1,216.1 L 625.7,214.9 L 630.4,214.7 L 635.1,214.7 L 639.7,213.9 L 644.4,213.9 L 649.0,213.5 L 653.7,213.5 L 658.3,213.3 L 663.0,213.3 L 667.6,213.2 L 672.3,212.8 L 676.9,212.8 L 681.6,212.6 L 686.2,212.4 L 690.9,212.2 L 695.5,212.0 L 700.2,212.0 L 704.9,211.6 L 709.5,211.6 L 714.2,211.6 L 718.8,210.6 L 723.5,210.6 L 728.1,210.6 L 732.8,210.6 L 737.4,210.6 L 742.1,210.6 L 746.7,210.2 L 751.4,210.2 L 756.0,209.8 L 760.7,209.0 L 765.3,208.6 L 770.0,208.4" fill="none" stroke="#BF5AF2" stroke-width="2.5" stroke-linejoin="round" clip-path="url(#ca)"/>
<path d="M 72.0,340 L 72.0,291.4 L 76.7,290.8 L 81.3,290.8 L 86.0,290.8 L 90.6,290.6 L 95.3,290.2 L 99.9,290.0 L 104.6,289.7 L 109.2,289.7 L 113.9,289.5 L 118.5,289.3 L 123.2,289.3 L 127.8,289.3 L 132.5,289.3 L 137.1,289.3 L 141.8,289.3 L 146.5,288.9 L 151.1,288.9 L 155.8,289.1 L 160.4,288.5 L 165.1,288.7 L 169.7,288.1 L 174.4,287.5 L 179.0,287.3 L 183.7,287.5 L 188.3,287.5 L 193.0,286.9 L 197.6,286.7 L 202.3,286.7 L 206.9,286.3 L 211.6,286.1 L 216.3,285.7 L 220.9,285.7 L 225.6,285.5 L 230.2,284.9 L 234.9,284.3 L 239.5,283.9 L 244.2,283.9 L 248.8,283.9 L 253.5,283.8 L 258.1,283.4 L 262.8,283.4 L 267.4,283.2 L 272.1,282.6 L 276.7,282.4 L 281.4,282.4 L 286.1,282.4 L 290.7,282.4 L 295.4,282.2 L 300.0,281.6 L 304.7,281.4 L 309.3,281.2 L 314.0,281.0 L 318.6,281.0 L 323.3,280.8 L 327.9,280.8 L 332.6,280.8 L 337.2,280.2 L 341.9,280.2 L 346.5,280.2 L 351.2,279.8 L 355.9,279.2 L 360.5,279.2 L 365.2,279.0 L 369.8,278.8 L 374.5,278.8 L 379.1,278.8 L 383.8,278.4 L 388.4,278.4 L 393.1,277.3 L 397.7,277.1 L 402.4,276.9 L 407.0,276.9 L 411.7,276.7 L 416.3,276.7 L 421.0,276.7 L 425.7,276.7 L 430.3,276.7 L 435.0,276.7 L 439.6,276.3 L 444.3,276.1 L 448.9,275.1 L 453.6,275.3 L 458.2,275.3 L 462.9,275.1 L 467.5,275.1 L 472.2,275.1 L 476.8,274.7 L 481.5,274.7 L 486.1,274.7 L 490.8,274.7 L 495.5,274.7 L 500.1,274.7 L 504.8,274.5 L 509.4,274.5 L 514.1,273.7 L 518.7,273.7 L 523.4,273.5 L 528.0,273.3 L 532.7,273.1 L 537.3,272.9 L 542.0,272.5 L 546.6,272.5 L 551.3,272.0 L 555.9,272.0 L 560.6,271.8 L 565.3,271.6 L 569.9,271.6 L 574.6,271.6 L 579.2,271.6 L 583.9,271.6 L 588.5,271.6 L 593.2,271.0 L 597.8,271.0 L 602.5,270.6 L 607.1,270.2 L 611.8,269.6 L 616.4,269.4 L 621.1,269.4 L 625.7,268.4 L 630.4,268.2 L 635.1,268.2 L 639.7,267.6 L 644.4,267.6 L 649.0,267.4 L 653.7,267.4 L 658.3,267.6 L 663.0,267.8 L 667.6,267.6 L 672.3,267.2 L 676.9,267.4 L 681.6,267.2 L 686.2,267.0 L 690.9,267.0 L 695.5,267.0 L 700.2,267.0 L 704.9,266.6 L 709.5,266.6 L 714.2,266.6 L 718.8,265.9 L 723.5,265.9 L 728.1,265.9 L 732.8,265.9 L 737.4,265.9 L 742.1,265.9 L 746.7,265.5 L 751.4,265.5 L 756.0,265.1 L 760.7,264.3 L 765.3,264.1 L 770.0,264.1 L 770.0,340 Z" fill="url(#g4)" clip-path="url(#ca)"/>
<path d="M 72.0,291.4 L 76.7,290.8 L 81.3,290.8 L 86.0,290.8 L 90.6,290.6 L 95.3,290.2 L 99.9,290.0 L 104.6,289.7 L 109.2,289.7 L 113.9,289.5 L 118.5,289.3 L 123.2,289.3 L 127.8,289.3 L 132.5,289.3 L 137.1,289.3 L 141.8,289.3 L 146.5,288.9 L 151.1,288.9 L 155.8,289.1 L 160.4,288.5 L 165.1,288.7 L 169.7,288.1 L 174.4,287.5 L 179.0,287.3 L 183.7,287.5 L 188.3,287.5 L 193.0,286.9 L 197.6,286.7 L 202.3,286.7 L 206.9,286.3 L 211.6,286.1 L 216.3,285.7 L 220.9,285.7 L 225.6,285.5 L 230.2,284.9 L 234.9,284.3 L 239.5,283.9 L 244.2,283.9 L 248.8,283.9 L 253.5,283.8 L 258.1,283.4 L 262.8,283.4 L 267.4,283.2 L 272.1,282.6 L 276.7,282.4 L 281.4,282.4 L 286.1,282.4 L 290.7,282.4 L 295.4,282.2 L 300.0,281.6 L 304.7,281.4 L 309.3,281.2 L 314.0,281.0 L 318.6,281.0 L 323.3,280.8 L 327.9,280.8 L 332.6,280.8 L 337.2,280.2 L 341.9,280.2 L 346.5,280.2 L 351.2,279.8 L 355.9,279.2 L 360.5,279.2 L 365.2,279.0 L 369.8,278.8 L 374.5,278.8 L 379.1,278.8 L 383.8,278.4 L 388.4,278.4 L 393.1,277.3 L 397.7,277.1 L 402.4,276.9 L 407.0,276.9 L 411.7,276.7 L 416.3,276.7 L 421.0,276.7 L 425.7,276.7 L 430.3,276.7 L 435.0,276.7 L 439.6,276.3 L 444.3,276.1 L 448.9,275.1 L 453.6,275.3 L 458.2,275.3 L 462.9,275.1 L 467.5,275.1 L 472.2,275.1 L 476.8,274.7 L 481.5,274.7 L 486.1,274.7 L 490.8,274.7 L 495.5,274.7 L 500.1,274.7 L 504.8,274.5 L 509.4,274.5 L 514.1,273.7 L 518.7,273.7 L 523.4,273.5 L 528.0,273.3 L 532.7,273.1 L 537.3,272.9 L 542.0,272.5 L 546.6,272.5 L 551.3,272.0 L 555.9,272.0 L 560.6,271.8 L 565.3,271.6 L 569.9,271.6 L 574.6,271.6 L 579.2,271.6 L 583.9,271.6 L 588.5,271.6 L 593.2,271.0 L 597.8,271.0 L 602.5,270.6 L 607.1,270.2 L 611.8,269.6 L 616.4,269.4 L 621.1,269.4 L 625.7,268.4 L 630.4,268.2 L 635.1,268.2 L 639.7,267.6 L 644.4,267.6 L 649.0,267.4 L 653.7,267.4 L 658.3,267.6 L 663.0,267.8 L 667.6,267.6 L 672.3,267.2 L 676.9,267.4 L 681.6,267.2 L 686.2,267.0 L 690.9,267.0 L 695.5,267.0 L 700.2,267.0 L 704.9,266.6 L 709.5,266.6 L 714.2,266.6 L 718.8,265.9 L 723.5,265.9 L 728.1,265.9 L 732.8,265.9 L 737.4,265.9 L 742.1,265.9 L 746.7,265.5 L 751.4,265.5 L 756.0,265.1 L 760.7,264.3 L 765.3,264.1 L 770.0,264.1" fill="none" stroke="#34C759" stroke-width="2.5" stroke-linejoin="round" clip-path="url(#ca)"/>
<text x="97.6" y="55.0" text-anchor="middle" font-size="9" fill="#4F8EF7" opacity="0.85" clip-path="url(#ca)">+0.5% (+8)</text>
<text x="97.6" y="66.0" text-anchor="middle" font-size="9" fill="#BF5AF2" opacity="0.85" clip-path="url(#ca)">+1.0% (+10)</text>
<text x="97.6" y="77.0" text-anchor="middle" font-size="9" fill="#34C759" opacity="0.85" clip-path="url(#ca)">+1.5% (+11)</text>
<text x="186.0" y="55.0" text-anchor="middle" font-size="9" fill="#4F8EF7" opacity="0.85" clip-path="url(#ca)">+4.0% (+65)</text>
<text x="186.0" y="66.0" text-anchor="middle" font-size="9" fill="#BF5AF2" opacity="0.85" clip-path="url(#ca)">+3.5% (+35)</text>
<text x="186.0" y="77.0" text-anchor="middle" font-size="9" fill="#34C759" opacity="0.85" clip-path="url(#ca)">+3.6% (+27)</text>
<text x="309.3" y="55.0" text-anchor="middle" font-size="9" fill="#4F8EF7" opacity="0.85" clip-path="url(#ca)">+4.1% (+70)</text>
<text x="309.3" y="66.0" text-anchor="middle" font-size="9" fill="#BF5AF2" opacity="0.85" clip-path="url(#ca)">+3.5% (+36)</text>
<text x="309.3" y="77.0" text-anchor="middle" font-size="9" fill="#34C759" opacity="0.85" clip-path="url(#ca)">+3.3% (+26)</text>
<text x="435.0" y="55.0" text-anchor="middle" font-size="9" fill="#4F8EF7" opacity="0.85" clip-path="url(#ca)">+3.5% (+61)</text>
<text x="435.0" y="66.0" text-anchor="middle" font-size="9" fill="#BF5AF2" opacity="0.85" clip-path="url(#ca)">+2.7% (+29)</text>
<text x="435.0" y="77.0" text-anchor="middle" font-size="9" fill="#34C759" opacity="0.85" clip-path="url(#ca)">+2.6% (+21)</text>
<text x="560.6" y="55.0" text-anchor="middle" font-size="9" fill="#4F8EF7" opacity="0.85" clip-path="url(#ca)">+2.7% (+49)</text>
<text x="560.6" y="66.0" text-anchor="middle" font-size="9" fill="#BF5AF2" opacity="0.85" clip-path="url(#ca)">+3.0% (+33)</text>
<text x="560.6" y="77.0" text-anchor="middle" font-size="9" fill="#34C759" opacity="0.85" clip-path="url(#ca)">+3.2% (+27)</text>
<text x="683.9" y="55.0" text-anchor="middle" font-size="9" fill="#4F8EF7" opacity="0.85" clip-path="url(#ca)">+2.9% (+54)</text>
<text x="683.9" y="66.0" text-anchor="middle" font-size="9" fill="#BF5AF2" opacity="0.85" clip-path="url(#ca)">+1.9% (+22)</text>
<text x="683.9" y="77.0" text-anchor="middle" font-size="9" fill="#34C759" opacity="0.85" clip-path="url(#ca)">+1.5% (+13)</text>
<text x="758.4" y="55.0" text-anchor="middle" font-size="9" fill="#4F8EF7" opacity="0.85" clip-path="url(#ca)">+0.5% (+9)</text>
<text x="758.4" y="66.0" text-anchor="middle" font-size="9" fill="#BF5AF2" opacity="0.85" clip-path="url(#ca)">+0.8% (+9)</text>
<text x="758.4" y="77.0" text-anchor="middle" font-size="9" fill="#34C759" opacity="0.85" clip-path="url(#ca)">+0.8% (+7)</text>
<rect x="211" y="369" width="12" height="12" fill="#4F8EF7" rx="2"/>
<text x="227" y="379" font-size="12" fill="#111827">Authors</text>
<rect x="351" y="369" width="12" height="12" fill="#BF5AF2" rx="2"/>
<text x="367" y="379" font-size="12" fill="#111827">Contributors</text>
<rect x="491" y="369" width="12" height="12" fill="#34C759" rx="2"/>
<text x="507" y="379" font-size="12" fill="#111827">Non-author contributors</text>
<text x="72" y="394" font-size="8" fill="#e5e7eb">data since Dec 11, 2025</text>
</svg>