<svg xmlns="http://www.w3.org/2000/svg" width="800" height="400" viewBox="0 0 800 400">
<defs>
  <style>text { font-family: -apple-system, BlinkMacSystemFont, 'Segoe UI', Roboto, sans-serif; }</style>
  <linearGradient id="g5" x1="0" y1="0" x2="0" y2="1">
  <stop offset="0%" stop-color="#34C759" stop-opacity="0.25"/>
  <stop offset="100%" stop-color="#34C759" stop-opacity="0"/>
</linearGradient>
<linearGradient id="g6" x1="0" y1="0" x2="0" y2="1">
  <stop offset="0%" stop-color="#4F8EF7" stop-opacity="0.25"/>
  <stop offset="100%" stop-color="#4F8EF7" stop-opacity="0"/>
</linearGradient>
<linearGradient id="g7" x1="0" y1="0" x2="0" y2="1">
  <stop offset="0%" stop-color="#FF6363" stop-opacity="0.25"/>
  <stop offset="100%" stop-color="#FF6363" stop-opacity="0"/>
</linearGradient>
  <clipPath id="ca"><rect x="72" y="45" width="698" height="295"/></clipPath>
</defs>
<rect width="800" height="400" fill="#ffffff" rx="12"/>
<text x="400" y="26" text-anchor="middle" font-size="15" font-weight="600" fill="#111827">Platform Support Over Time</text>
<line x1="72" y1="340.0" x2="770" y2="340.0" stroke="#f3f4f6" stroke-width="1"/>
<text x="66" y="344.0" text-anchor="end" font-size="11" fill="#6b7280">0</text>
<line x1="72" y1="281.0" x2="770" y2="281.0" stroke="#f3f4f6" stroke-width="1"/>
<text x="66" y="285.0" text-anchor="end" font-size="11" fill="#6b7280">200</text>
<line x1="72" y1="222.0" x2="770" y2="222.0" stroke="#f3f4f6" stroke-width="1"/>
<text x="66" y="226.0" text-anchor="end" font-size="11" fill="#6b7280">400</text>
<line x1="72" y1="163.0" x2="770" y2="163.0" stroke="#f3f4f6" stroke-width="1"/>
<text x="66" y="167.0" text-anchor="end" font-size="11" fill="#6b7280">600</text>
<line x1="72" y1="104.0" x2="770" y2="104.0" stroke="#f3f4f6" stroke-width="1"/>
<text x="66" y="108.0" text-anchor="end" font-size="11" fill="#6b7280">800</text>
<line x1="72" y1="45.0" x2="770" y2="45.0" stroke="#f3f4f6" stroke-width="1"/>
<text x="66" y="49.0" text-anchor="end" font-size="11" fill="#6b7280">1.0k</text>
<line x1="131.8" y1="45" x2="131.8" y2="340" stroke="#e5e7eb" stroke-width="1" stroke-dasharray="3,3" clip-path="url(#ca)"/>
<line x1="261.5" y1="45" x2="261.5" y2="340" stroke="#e5e7eb" stroke-width="1" stroke-dasharray="3,3" clip-path="url(#ca)"/>
<line x1="396.1" y1="45" x2="396.1" y2="340" stroke="#e5e7eb" stroke-width="1" stroke-dasharray="3,3" clip-path="url(#ca)"/>
<line x1="530.7" y1="45" x2="530.7" y2="340" stroke="#e5e7eb" stroke-width="1" stroke-dasharray="3,3" clip-path="url(#ca)"/>
<line x1="665.3" y1="45" x2="665.3" y2="340" stroke="#e5e7eb" stroke-width="1" stroke-dasharray="3,3" clip-path="url(#ca)"/>
<text x="72.0" y="358.0" text-anchor="middle" font-size="11" fill="#6b7280">Dec 11</text>
<text x="211.6" y="358.0" text-anchor="middle" font-size="11" fill="#6b7280">Jan 22</text>
<text x="351.2" y="358.0" text-anchor="middle" font-size="11" fill="#6b7280">Feb 19</text>
<text x="490.8" y="358.0" text-anchor="middle" font-size="11" fill="#6b7280">Mar 21</text>
<text x="630.4" y="358.0" text-anchor="middle" font-size="11" fill="#6b7280">Apr 23</text>
<text x="770.0" y="358.0" text-anchor="middle" font-size="11" fill="#6b7280">May 27</text>
<line x1="72" y1="45" x2="72" y2="340" stroke="#e5e7eb" stroke-width="1"/>
<line x1="72" y1="340" x2="770" y2="340" stroke="#e5e7eb" stroke-width="1"/>
<text x="-192.5" y="18" text-anchor="middle" font-size="12" fill="#6b7280" transform="rotate(-90)">Extensions</text>
<path d="M 72.0,340 L 72.0,242.6 L 77.0,240.0 L 82.0,239.7 L 87.0,238.5 L 91.9,237.9 L 96.9,235.0 L 101.9,233.2 L 106.9,232.3 L 111.9,230.8 L 116.9,229.1 L 121.9,228.2 L 126.8,227.9 L 131.8,227.0 L 136.8,226.4 L 141.8,226.1 L 146.8,225.2 L 151.8,224.4 L 156.8,223.5 L 161.7,222.6 L 166.7,221.4 L 171.7,220.5 L 176.7,219.6 L 181.7,218.8 L 186.7,217.0 L 191.7,216.4 L 196.6,216.4 L 201.6,214.3 L 206.6,213.7 L 211.6,213.2 L 216.6,212.6 L 221.6,211.1 L 226.6,209.0 L 231.5,208.7 L 236.5,208.4 L 241.5,206.7 L 246.5,206.1 L 251.5,204.6 L 256.5,204.3 L 261.5,204.0 L 266.4,203.4 L 271.4,203.4 L 276.4,203.4 L 281.4,199.3 L 286.4,199.0 L 291.4,198.1 L 296.4,197.8 L 301.3,197.5 L 306.3,196.6 L 311.3,196.0 L 316.3,195.4 L 321.3,193.7 L 326.3,193.7 L 331.3,193.7 L 336.2,193.4 L 341.2,190.4 L 346.2,189.6 L 351.2,189.0 L 356.2,188.1 L 361.2,187.5 L 366.2,187.5 L 371.1,186.0 L 376.1,183.9 L 381.1,183.4 L 386.1,183.1 L 391.1,182.2 L 396.1,182.2 L 401.1,181.6 L 406.0,180.7 L 411.0,180.1 L 416.0,178.9 L 421.0,177.8 L 426.0,177.5 L 431.0,177.5 L 436.0,176.3 L 440.9,176.3 L 445.9,176.3 L 450.9,174.5 L 455.9,174.2 L 460.9,173.9 L 465.9,173.9 L 470.9,173.6 L 475.8,172.4 L 480.8,171.9 L 485.8,171.0 L 490.8,171.0 L 495.8,170.7 L 500.8,169.5 L 505.8,168.6 L 510.7,168.6 L 515.7,168.3 L 520.7,167.7 L 525.7,165.7 L 530.7,165.1 L 535.7,164.2 L 540.7,164.2 L 545.6,163.6 L 550.6,163.3 L 555.6,163.0 L 560.6,162.7 L 565.6,162.4 L 570.6,162.4 L 575.6,162.1 L 580.5,161.8 L 585.5,160.9 L 590.5,159.8 L 595.5,159.5 L 600.5,158.6 L 605.5,158.6 L 610.5,157.4 L 615.4,157.1 L 620.4,157.1 L 625.4,157.1 L 630.4,156.2 L 635.4,155.9 L 640.4,155.9 L 645.4,155.9 L 650.3,155.6 L 655.3,154.4 L 660.3,154.2 L 665.3,153.3 L 670.3,152.7 L 675.3,152.7 L 680.3,151.8 L 685.2,151.2 L 690.2,151.2 L 695.2,150.9 L 700.2,149.4 L 705.2,148.0 L 710.2,147.7 L 715.2,147.1 L 720.1,145.9 L 725.1,145.9 L 730.1,145.3 L 735.1,143.8 L 740.1,141.2 L 745.1,140.3 L 750.1,140.3 L 755.0,140.3 L 760.0,140.3 L 765.0,140.3 L 770.0,139.1 L 770.0,340 Z" fill="url(#g5)" clip-path="url(#ca)"/>
<path d="M 72.0,242.6 L 77.0,240.0 L 82.0,239.7 L 87.0,238.5 L 91.9,237.9 L 96.9,235.0 L 101.9,233.2 L 106.9,232.3 L 111.9,230.8 L 116.9,229.1 L 121.9,228.2 L 126.8,227.9 L 131.8,227.0 L 136.8,226.4 L 141.8,226.1 L 146.8,225.2 L 151.8,224.4 L 156.8,223.5 L 161.7,222.6 L 166.7,221.4 L 171.7,220.5 L 176.7,219.6 L 181.7,218.8 L 186.7,217.0 L 191.7,216.4 L 196.6,216.4 L 201.6,214.3 L 206.6,213.7 L 211.6,213.2 L 216.6,212.6 L 221.6,211.1 L 226.6,209.0 L 231.5,208.7 L 236.5,208.4 L 241.5,206.7 L 246.5,206.1 L 251.5,204.6 L 256.5,204.3 L 261.5,204.0 L 266.4,203.4 L 271.4,203.4 L 276.4,203.4 L 281.4,199.3 L 286.4,199.0 L 291.4,198.1 L 296.4,197.8 L 301.3,197.5 L 306.3,196.6 L 311.3,196.0 L 316.3,195.4 L 321.3,193.7 L 326.3,193.7 L 331.3,193.7 L 336.2,193.4 L 341.2,190.4 L 346.2,189.6 L 351.2,189.0 L 356.2,188.1 L 361.2,187.5 L 366.2,187.5 L 371.1,186.0 L 376.1,183.9 L 381.1,183.4 L 386.1,183.1 L 391.1,182.2 L 396.1,182.2 L 401.1,181.6 L 406.0,180.7 L 411.0,180.1 L 416.0,178.9 L 421.0,177.8 L 426.0,177.5 L 431.0,177.5 L 436.0,176.3 L 440.9,176.3 L 445.9,176.3 L 450.9,174.5 L 455.9,174.2 L 460.9,173.9 L 465.9,173.9 L 470.9,173.6 L 475.8,172.4 L 480.8,171.9 L 485.8,171.0 L 490.8,171.0 L 495.8,170.7 L 500.8,169.5 L 505.8,168.6 L 510.7,168.6 L 515.7,168.3 L 520.7,167.7 L 525.7,165.7 L 530.7,165.1 L 535.7,164.2 L 540.7,164.2 L 545.6,163.6 L 550.6,163.3 L 555.6,163.0 L 560.6,162.7 L 565.6,162.4 L 570.6,162.4 L 575.6,162.1 L 580.5,161.8 L 585.5,160.9 L 590.5,159.8 L 595.5,159.5 L 600.5,158.6 L 605.5,158.6 L 610.5,157.4 L 615.4,157.1 L 620.4,157.1 L 625.4,157.1 L 630.4,156.2 L 635.4,155.9 L 640.4,155.9 L 645.4,155.9 L 650.3,155.6 L 655.3,154.4 L 660.3,154.2 L 665.3,153.3 L 670.3,152.7 L 675.3,152.7 L 680.3,151.8 L 685.2,151.2 L 690.2,151.2 L 695.2,150.9 L 700.2,149.4 L 705.2,148.0 L 710.2,147.7 L 715.2,147.1 L 720.1,145.9 L 725.1,145.9 L 730.1,145.3 L 735.1,143.8 L 740.1,141.2 L 745.1,140.3 L 750.1,140.3 L 755.0,140.3 L 760.0,140.3 L 765.0,140.3 L 770.0,139.1" fill="none" stroke="#34C759" stroke-width="2.5" stroke-linejoin="round" clip-path="url(#ca)"/>
<path d="M 72.0,340 L 72.0,222.6 L 77.0,222.6 L 82.0,222.3 L 87.0,221.4 L 91.9,221.7 L 96.9,221.7 L 101.9,220.5 L 106.9,219.6 L 111.9,219.6 L 116.9,219.9 L 121.9,219.6 L 126.8,219.3 L 131.8,219.1 L 136.8,219.1 L 141.8,219.1 L 146.8,219.3 L 151.8,218.8 L 156.8,218.2 L 161.7,216.4 L 166.7,215.2 L 171.7,215.2 L 176.7,214.9 L 181.7,213.2 L 186.7,210.5 L 191.7,209.6 L 196.6,209.0 L 201.6,207.0 L 206.6,205.5 L 211.6,204.9 L 216.6,204.3 L 221.6,203.7 L 226.6,203.4 L 231.5,203.4 L 236.5,201.3 L 241.5,200.8 L 246.5,200.2 L 251.5,200.2 L 256.5,198.7 L 261.5,198.4 L 266.4,197.5 L 271.4,196.3 L 276.4,194.9 L 281.4,192.8 L 286.4,190.7 L 291.4,190.4 L 296.4,189.8 L 301.3,189.3 L 306.3,187.5 L 311.3,187.5 L 316.3,186.9 L 321.3,186.0 L 326.3,185.4 L 331.3,184.2 L 336.2,184.5 L 341.2,181.0 L 346.2,180.7 L 351.2,180.4 L 356.2,179.8 L 361.2,178.0 L 366.2,178.0 L 371.1,176.3 L 376.1,174.2 L 381.1,174.2 L 386.1,174.2 L 391.1,173.9 L 396.1,173.6 L 401.1,173.3 L 406.0,171.9 L 411.0,170.1 L 416.0,169.5 L 421.0,168.3 L 426.0,168.3 L 431.0,167.4 L 436.0,165.7 L 440.9,164.8 L 445.9,164.5 L 450.9,162.4 L 455.9,162.1 L 460.9,162.1 L 465.9,161.8 L 470.9,161.8 L 475.8,160.3 L 480.8,159.8 L 485.8,158.9 L 490.8,158.6 L 495.8,158.0 L 500.8,155.6 L 505.8,152.4 L 510.7,152.1 L 515.7,151.5 L 520.7,151.2 L 525.7,149.7 L 530.7,118.5 L 535.7,117.9 L 540.7,116.4 L 545.6,116.4 L 550.6,116.4 L 555.6,116.7 L 560.6,116.4 L 565.6,114.6 L 570.6,114.0 L 575.6,113.7 L 580.5,113.4 L 585.5,112.3 L 590.5,110.5 L 595.5,110.5 L 600.5,110.5 L 605.5,110.2 L 610.5,109.9 L 615.4,109.9 L 620.4,109.3 L 625.4,108.4 L 630.4,106.9 L 635.4,106.4 L 640.4,106.1 L 645.4,106.1 L 650.3,105.8 L 655.3,105.2 L 660.3,104.9 L 665.3,103.4 L 670.3,103.4 L 675.3,102.8 L 680.3,101.6 L 685.2,100.2 L 690.2,99.9 L 695.2,99.6 L 700.2,96.9 L 705.2,96.3 L 710.2,95.7 L 715.2,95.7 L 720.1,94.6 L 725.1,94.0 L 730.1,92.5 L 735.1,91.9 L 740.1,91.0 L 745.1,90.7 L 750.1,89.5 L 755.0,88.7 L 760.0,88.4 L 765.0,87.8 L 770.0,86.6 L 770.0,340 Z" fill="url(#g6)" clip-path="url(#ca)"/>
<path d="M 72.0,222.6 L 77.0,222.6 L 82.0,222.3 L 87.0,221.4 L 91.9,221.7 L 96.9,221.7 L 101.9,220.5 L 106.9,219.6 L 111.9,219.6 L 116.9,219.9 L 121.9,219.6 L 126.8,219.3 L 131.8,219.1 L 136.8,219.1 L 141.8,219.1 L 146.8,219.3 L 151.8,218.8 L 156.8,218.2 L 161.7,216.4 L 166.7,215.2 L 171.7,215.2 L 176.7,214.9 L 181.7,213.2 L 186.7,210.5 L 191.7,209.6 L 196.6,209.0 L 201.6,207.0 L 206.6,205.5 L 211.6,204.9 L 216.6,204.3 L 221.6,203.7 L 226.6,203.4 L 231.5,203.4 L 236.5,201.3 L 241.5,200.8 L 246.5,200.2 L 251.5,200.2 L 256.5,198.7 L 261.5,198.4 L 266.4,197.5 L 271.4,196.3 L 276.4,194.9 L 281.4,192.8 L 286.4,190.7 L 291.4,190.4 L 296.4,189.8 L 301.3,189.3 L 306.3,187.5 L 311.3,187.5 L 316.3,186.9 L 321.3,186.0 L 326.3,185.4 L 331.3,184.2 L 336.2,184.5 L 341.2,181.0 L 346.2,180.7 L 351.2,180.4 L 356.2,179.8 L 361.2,178.0 L 366.2,178.0 L 371.1,176.3 L 376.1,174.2 L 381.1,174.2 L 386.1,174.2 L 391.1,173.9 L 396.1,173.6 L 401.1,173.3 L 406.0,171.9 L 411.0,170.1 L 416.0,169.5 L 421.0,168.3 L 426.0,168.3 L 431.0,167.4 L 436.0,165.7 L 440.9,164.8 L 445.9,164.5 L 450.9,162.4 L 455.9,162.1 L 460.9,162.1 L 465.9,161.8 L 470.9,161.8 L 475.8,160.3 L 480.8,159.8 L 485.8,158.9 L 490.8,158.6 L 495.8,158.0 L 500.8,155.6 L 505.8,152.4 L 510.7,152.1 L 515.7,151.5 L 520.7,151.2 L 525.7,149.7 L 530.7,118.5 L 535.7,117.9 L 540.7,116.4 L 545.6,116.4 L 550.6,116.4 L 555.6,116.7 L 560.6,116.4 L 565.6,114.6 L 570.6,114.0 L 575.6,113.7 L 580.5,113.4 L 585.5,112.3 L 590.5,110.5 L 595.5,110.5 L 600.5,110.5 L 605.5,110.2 L 610.5,109.9 L 615.4,109.9 L 620.4,109.3 L 625.4,108.4 L 630.4,106.9 L 635.4,106.4 L 640.4,106.1 L 645.4,106.1 L 650.3,105.8 L 655.3,105.2 L 660.3,104.9 L 665.3,103.4 L 670.3,103.4 L 675.3,102.8 L 680.3,101.6 L 685.2,100.2 L 690.2,99.9 L 695.2,99.6 L 700.2,96.9 L 705.2,96.3 L 710.2,95.7 L 715.2,95.7 L 720.1,94.6 L 725.1,94.0 L 730.1,92.5 L 735.1,91.9 L 740.1,91.0 L 745.1,90.7 L 750.1,89.5 L 755.0,88.7 L 760.0,88.4 L 765.0,87.8 L 770.0,86.6" fill="none" stroke="#4F8EF7" stroke-width="2.5" stroke-linejoin="round" clip-path="url(#ca)"/>
<path d="M 72.0,340 L 72.0,338.2 L 77.0,337.9 L 82.0,337.9 L 87.0,337.6 L 91.9,337.6 L 96.9,337.6 L 101.9,337.6 L 106.9,337.6 L 111.9,337.1 L 116.9,337.1 L 121.9,337.1 L 126.8,337.1 L 131.8,337.1 L 136.8,336.8 L 141.8,336.8 L 146.8,336.8 L 151.8,336.8 L 156.8,336.8 L 161.7,336.5 L 166.7,335.9 L 171.7,335.6 L 176.7,335.6 L 181.7,335.6 L 186.7,335.3 L 191.7,335.3 L 196.6,335.3 L 201.6,335.0 L 206.6,335.0 L 211.6,335.0 L 216.6,334.7 L 221.6,334.7 L 226.6,334.7 L 231.5,334.7 L 236.5,334.4 L 241.5,334.4 L 246.5,334.4 L 251.5,334.4 L 256.5,334.4 L 261.5,334.4 L 266.4,334.4 L 271.4,334.4 L 276.4,334.4 L 281.4,334.4 L 286.4,334.4 L 291.4,334.4 L 296.4,334.4 L 301.3,334.1 L 306.3,334.1 L 311.3,334.1 L 316.3,334.1 L 321.3,334.1 L 326.3,334.1 L 331.3,334.1 L 336.2,334.1 L 341.2,334.1 L 346.2,334.1 L 351.2,334.1 L 356.2,334.1 L 361.2,333.8 L 366.2,333.8 L 371.1,333.8 L 376.1,333.8 L 381.1,333.8 L 386.1,333.8 L 391.1,333.8 L 396.1,333.8 L 401.1,333.8 L 406.0,333.8 L 411.0,333.8 L 416.0,333.8 L 421.0,333.8 L 426.0,333.8 L 431.0,333.8 L 436.0,333.8 L 440.9,333.8 L 445.9,333.8 L 450.9,333.8 L 455.9,333.8 L 460.9,333.8 L 465.9,333.8 L 470.9,333.8 L 475.8,333.8 L 480.8,333.8 L 485.8,333.8 L 490.8,333.8 L 495.8,333.8 L 500.8,333.8 L 505.8,333.8 L 510.7,333.8 L 515.7,333.8 L 520.7,333.8 L 525.7,333.8 L 530.7,333.8 L 535.7,333.8 L 540.7,333.5 L 545.6,333.5 L 550.6,333.5 L 555.6,333.5 L 560.6,333.5 L 565.6,333.2 L 570.6,333.2 L 575.6,333.2 L 580.5,333.2 L 585.5,332.9 L 590.5,332.9 L 595.5,332.6 L 600.5,332.6 L 605.5,332.6 L 610.5,332.6 L 615.4,332.6 L 620.4,332.6 L 625.4,332.6 L 630.4,332.6 L 635.4,332.6 L 640.4,332.6 L 645.4,332.6 L 650.3,332.6 L 655.3,332.6 L 660.3,332.6 L 665.3,332.6 L 670.3,332.6 L 675.3,332.6 L 680.3,332.6 L 685.2,332.6 L 690.2,332.6 L 695.2,332.6 L 700.2,332.6 L 705.2,332.6 L 710.2,332.6 L 715.2,332.6 L 720.1,332.6 L 725.1,332.6 L 730.1,332.6 L 735.1,332.6 L 740.1,332.6 L 745.1,332.6 L 750.1,332.6 L 755.0,332.6 L 760.0,332.6 L 765.0,332.6 L 770.0,332.6 L 770.0,340 Z" fill="url(#g7)" clip-path="url(#ca)"/>
<path d="M 72.0,338.2 L 77.0,337.9 L 82.0,337.9 L 87.0,337.6 L 91.9,337.6 L 96.9,337.6 L 101.9,337.6 L 106.9,337.6 L 111.9,337.1 L 116.9,337.1 L 121.9,337.1 L 126.8,337.1 L 131.8,337.1 L 136.8,336.8 L 141.8,336.8 L 146.8,336.8 L 151.8,336.8 L 156.8,336.8 L 161.7,336.5 L 166.7,335.9 L 171.7,335.6 L 176.7,335.6 L 181.7,335.6 L 186.7,335.3 L 191.7,335.3 L 196.6,335.3 L 201.6,335.0 L 206.6,335.0 L 211.6,335.0 L 216.6,334.7 L 221.6,334.7 L 226.6,334.7 L 231.5,334.7 L 236.5,334.4 L 241.5,334.4 L 246.5,334.4 L 251.5,334.4 L 256.5,334.4 L 261.5,334.4 L 266.4,334.4 L 271.4,334.4 L 276.4,334.4 L 281.4,334.4 L 286.4,334.4 L 291.4,334.4 L 296.4,334.4 L 301.3,334.1 L 306.3,334.1 L 311.3,334.1 L 316.3,334.1 L 321.3,334.1 L 326.3,334.1 L 331.3,334.1 L 336.2,334.1 L 341.2,334.1 L 346.2,334.1 L 351.2,334.1 L 356.2,334.1 L 361.2,333.8 L 366.2,333.8 L 371.1,333.8 L 376.1,333.8 L 381.1,333.8 L 386.1,333.8 L 391.1,333.8 L 396.1,333.8 L 401.1,333.8 L 406.0,333.8 L 411.0,333.8 L 416.0,333.8 L 421.0,333.8 L 426.0,333.8 L 431.0,333.8 L 436.0,333.8 L 440.9,333.8 L 445.9,333.8 L 450.9,333.8 L 455.9,333.8 L 460.9,333.8 L 465.9,333.8 L 470.9,333.8 L 475.8,333.8 L 480.8,333.8 L 485.8,333.8 L 490.8,333.8 L 495.8,333.8 L 500.8,333.8 L 505.8,333.8 L 510.7,333.8 L 515.7,333.8 L 520.7,333.8 L 525.7,333.8 L 530.7,333.8 L 535.7,333.8 L 540.7,333.5 L 545.6,333.5 L 550.6,333.5 L 555.6,333.5 L 560.6,333.5 L 565.6,333.2 L 570.6,333.2 L 575.6,333.2 L 580.5,333.2 L 585.5,332.9 L 590.5,332.9 L 595.5,332.6 L 600.5,332.6 L 605.5,332.6 L 610.5,332.6 L 615.4,332.6 L 620.4,332.6 L 625.4,332.6 L 630.4,332.6 L 635.4,332.6 L 640.4,332.6 L 645.4,332.6 L 650.3,332.6 L 655.3,332.6 L 660.3,332.6 L 665.3,332.6 L 670.3,332.6 L 675.3,332.6 L 680.3,332.6 L 685.2,332.6 L 690.2,332.6 L 695.2,332.6 L 700.2,332.6 L 705.2,332.6 L 710.2,332.6 L 715.2,332.6 L 720.1,332.6 L 725.1,332.6 L 730.1,332.6 L 735.1,332.6 L 740.1,332.6 L 745.1,332.6 L 750.1,332.6 L 755.0,332.6 L 760.0,332.6 L 765.0,332.6 L 770.0,332.6" fill="none" stroke="#FF6363" stroke-width="2.5" stroke-linejoin="round" clip-path="url(#ca)"/>
<text x="99.4" y="55.0" text-anchor="middle" font-size="9" fill="#34C759" opacity="0.85" clip-path="url(#ca)">+15.2% (+50)</text>
<text x="99.4" y="66.0" text-anchor="middle" font-size="9" fill="#4F8EF7" opacity="0.85" clip-path="url(#ca)">+2.8% (+11)</text>
<text x="99.4" y="77.0" text-anchor="middle" font-size="9" fill="#FF6363" opacity="0.85" clip-path="url(#ca)">+66.7% (+4)</text>
<text x="194.1" y="55.0" text-anchor="middle" font-size="9" fill="#34C759" opacity="0.85" clip-path="url(#ca)">+20.1% (+77)</text>
<text x="194.1" y="66.0" text-anchor="middle" font-size="9" fill="#4F8EF7" opacity="0.85" clip-path="url(#ca)">+16.8% (+69)</text>
<text x="194.1" y="77.0" text-anchor="middle" font-size="9" fill="#FF6363" opacity="0.85" clip-path="url(#ca)">+90.0% (+9)</text>
<text x="326.3" y="55.0" text-anchor="middle" font-size="9" fill="#34C759" opacity="0.85" clip-path="url(#ca)">+16.1% (+74)</text>
<text x="326.3" y="66.0" text-anchor="middle" font-size="9" fill="#4F8EF7" opacity="0.85" clip-path="url(#ca)">+17.3% (+83)</text>
<text x="326.3" y="77.0" text-anchor="middle" font-size="9" fill="#FF6363" opacity="0.85" clip-path="url(#ca)">+10.5% (+2)</text>
<text x="460.9" y="55.0" text-anchor="middle" font-size="9" fill="#34C759" opacity="0.85" clip-path="url(#ca)">+10.5% (+56)</text>
<text x="460.9" y="66.0" text-anchor="middle" font-size="9" fill="#4F8EF7" opacity="0.85" clip-path="url(#ca)">+14.4% (+81)</text>
<text x="460.9" y="77.0" text-anchor="middle" font-size="9" fill="#FF6363" opacity="0.85" clip-path="url(#ca)">+0.0% (+0)</text>
<text x="595.5" y="55.0" text-anchor="middle" font-size="9" fill="#34C759" opacity="0.85" clip-path="url(#ca)">+6.2% (+37)</text>
<text x="595.5" y="66.0" text-anchor="middle" font-size="9" fill="#4F8EF7" opacity="0.85" clip-path="url(#ca)">+6.1% (+46)</text>
<text x="595.5" y="77.0" text-anchor="middle" font-size="9" fill="#FF6363" opacity="0.85" clip-path="url(#ca)">+19.0% (+4)</text>
<text x="717.6" y="55.0" text-anchor="middle" font-size="9" fill="#34C759" opacity="0.85" clip-path="url(#ca)">+7.6% (+48)</text>
<text x="717.6" y="66.0" text-anchor="middle" font-size="9" fill="#4F8EF7" opacity="0.85" clip-path="url(#ca)">+7.1% (+57)</text>
<text x="717.6" y="77.0" text-anchor="middle" font-size="9" fill="#FF6363" opacity="0.85" clip-path="url(#ca)">+0.0% (+0)</text>
<rect x="211" y="369" width="12" height="12" fill="#34C759" rx="2"/>
<text x="227" y="379" font-size="12" fill="#111827">macOS + Windows</text>
<rect x="351" y="369" width="12" height="12" fill="#4F8EF7" rx="2"/>
<text x="367" y="379" font-size="12" fill="#111827">macOS only</text>
<rect x="491" y="369" width="12" height="12" fill="#FF6363" rx="2"/>
<text x="507" y="379" font-size="12" fill="#111827">Windows only</text>
<text x="72" y="394" font-size="8" fill="#e5e7eb">data since Dec 11, 2025</text>
</svg>