<svg xmlns="http://www.w3.org/2000/svg" width="800" height="400" viewBox="0 0 800 400">
<defs>
  <style>text { font-family: -apple-system, BlinkMacSystemFont, 'Segoe UI', Roboto, sans-serif; }</style>
  <linearGradient id="g5" x1="0" y1="0" x2="0" y2="1">
  <stop offset="0%" stop-color="#34C759" stop-opacity="0.25"/>
  <stop offset="100%" stop-color="#34C759" stop-opacity="0"/>
</linearGradient>
<linearGradient id="g6" x1="0" y1="0" x2="0" y2="1">
  <stop offset="0%" stop-color="#4F8EF7" stop-opacity="0.25"/>
  <stop offset="100%" stop-color="#4F8EF7" stop-opacity="0"/>
</linearGradient>
<linearGradient id="g7" x1="0" y1="0" x2="0" y2="1">
  <stop offset="0%" stop-color="#FF6363" stop-opacity="0.25"/>
  <stop offset="100%" stop-color="#FF6363" stop-opacity="0"/>
</linearGradient>
  <clipPath id="ca"><rect x="72" y="45" width="698" height="295"/></clipPath>
</defs>
<rect width="800" height="400" fill="#ffffff" rx="12"/>
<text x="400" y="26" text-anchor="middle" font-size="15" font-weight="600" fill="#111827">Platform Support Over Time</text>
<line x1="72" y1="340.0" x2="770" y2="340.0" stroke="#f3f4f6" stroke-width="1"/>
<text x="66" y="344.0" text-anchor="end" font-size="11" fill="#6b7280">0</text>
<line x1="72" y1="281.0" x2="770" y2="281.0" stroke="#f3f4f6" stroke-width="1"/>
<text x="66" y="285.0" text-anchor="end" font-size="11" fill="#6b7280">200</text>
<line x1="72" y1="222.0" x2="770" y2="222.0" stroke="#f3f4f6" stroke-width="1"/>
<text x="66" y="226.0" text-anchor="end" font-size="11" fill="#6b7280">400</text>
<line x1="72" y1="163.0" x2="770" y2="163.0" stroke="#f3f4f6" stroke-width="1"/>
<text x="66" y="167.0" text-anchor="end" font-size="11" fill="#6b7280">600</text>
<line x1="72" y1="104.0" x2="770" y2="104.0" stroke="#f3f4f6" stroke-width="1"/>
<text x="66" y="108.0" text-anchor="end" font-size="11" fill="#6b7280">800</text>
<line x1="72" y1="45.0" x2="770" y2="45.0" stroke="#f3f4f6" stroke-width="1"/>
<text x="66" y="49.0" text-anchor="end" font-size="11" fill="#6b7280">1.0k</text>
<line x1="126.0" y1="45" x2="126.0" y2="340" stroke="#e5e7eb" stroke-width="1" stroke-dasharray="3,3" clip-path="url(#ca)"/>
<line x1="243.1" y1="45" x2="243.1" y2="340" stroke="#e5e7eb" stroke-width="1" stroke-dasharray="3,3" clip-path="url(#ca)"/>
<line x1="364.7" y1="45" x2="364.7" y2="340" stroke="#e5e7eb" stroke-width="1" stroke-dasharray="3,3" clip-path="url(#ca)"/>
<line x1="486.3" y1="45" x2="486.3" y2="340" stroke="#e5e7eb" stroke-width="1" stroke-dasharray="3,3" clip-path="url(#ca)"/>
<line x1="607.9" y1="45" x2="607.9" y2="340" stroke="#e5e7eb" stroke-width="1" stroke-dasharray="3,3" clip-path="url(#ca)"/>
<line x1="725.0" y1="45" x2="725.0" y2="340" stroke="#e5e7eb" stroke-width="1" stroke-dasharray="3,3" clip-path="url(#ca)"/>
<text x="72.0" y="358.0" text-anchor="middle" font-size="11" fill="#6b7280">Dec 11</text>
<text x="211.6" y="358.0" text-anchor="middle" font-size="11" fill="#6b7280">Jan 25</text>
<text x="351.2" y="358.0" text-anchor="middle" font-size="11" fill="#6b7280">Feb 26</text>
<text x="490.8" y="358.0" text-anchor="middle" font-size="11" fill="#6b7280">Apr 2</text>
<text x="630.4" y="358.0" text-anchor="middle" font-size="11" fill="#6b7280">May 8</text>
<text x="770.0" y="358.0" text-anchor="middle" font-size="11" fill="#6b7280">Jun 13</text>
<line x1="72" y1="45" x2="72" y2="340" stroke="#e5e7eb" stroke-width="1"/>
<line x1="72" y1="340" x2="770" y2="340" stroke="#e5e7eb" stroke-width="1"/>
<text x="-192.5" y="18" text-anchor="middle" font-size="12" fill="#6b7280" transform="rotate(-90)">Extensions</text>
<path d="M 72.0,340 L 72.0,242.6 L 76.5,240.0 L 81.0,239.7 L 85.5,238.5 L 90.0,237.9 L 94.5,235.0 L 99.0,233.2 L 103.5,232.3 L 108.0,230.8 L 112.5,229.1 L 117.0,228.2 L 121.5,227.9 L 126.0,227.0 L 130.5,226.4 L 135.0,226.1 L 139.5,225.2 L 144.1,224.4 L 148.6,223.5 L 153.1,222.6 L 157.6,221.4 L 162.1,220.5 L 166.6,219.6 L 171.1,218.8 L 175.6,217.0 L 180.1,216.4 L 184.6,216.4 L 189.1,214.3 L 193.6,213.7 L 198.1,213.2 L 202.6,212.6 L 207.1,211.1 L 211.6,209.0 L 216.1,208.7 L 220.6,208.4 L 225.1,206.7 L 229.6,206.1 L 234.1,204.6 L 238.6,204.3 L 243.1,204.0 L 247.6,203.4 L 252.1,203.4 L 256.6,203.4 L 261.1,199.3 L 265.6,199.0 L 270.1,198.1 L 274.6,197.8 L 279.1,197.5 L 283.7,196.6 L 288.2,196.0 L 292.7,195.4 L 297.2,193.7 L 301.7,193.7 L 306.2,193.7 L 310.7,193.4 L 315.2,190.4 L 319.7,189.6 L 324.2,189.0 L 328.7,188.1 L 333.2,187.5 L 337.7,187.5 L 342.2,186.0 L 346.7,183.9 L 351.2,183.4 L 355.7,183.1 L 360.2,182.2 L 364.7,182.2 L 369.2,181.6 L 373.7,180.7 L 378.2,180.1 L 382.7,178.9 L 387.2,177.8 L 391.7,177.5 L 396.2,177.5 L 400.7,176.3 L 405.2,176.3 L 409.7,176.3 L 414.2,174.5 L 418.7,174.2 L 423.3,173.9 L 427.8,173.9 L 432.3,173.6 L 436.8,172.4 L 441.3,171.9 L 445.8,171.0 L 450.3,171.0 L 454.8,170.7 L 459.3,169.5 L 463.8,168.6 L 468.3,168.6 L 472.8,168.3 L 477.3,167.7 L 481.8,165.7 L 486.3,165.1 L 490.8,164.2 L 495.3,164.2 L 499.8,163.6 L 504.3,163.3 L 508.8,163.0 L 513.3,162.7 L 517.8,162.4 L 522.3,162.4 L 526.8,162.1 L 531.3,161.8 L 535.8,160.9 L 540.3,159.8 L 544.8,159.5 L 549.3,158.6 L 553.8,158.6 L 558.3,157.4 L 562.9,157.1 L 567.4,157.1 L 571.9,157.1 L 576.4,156.2 L 580.9,155.9 L 585.4,155.9 L 589.9,155.9 L 594.4,155.6 L 598.9,154.4 L 603.4,154.2 L 607.9,153.3 L 612.4,152.7 L 616.9,152.7 L 621.4,151.8 L 625.9,151.2 L 630.4,151.2 L 634.9,150.9 L 639.4,149.4 L 643.9,148.0 L 648.4,147.7 L 652.9,147.1 L 657.4,145.9 L 661.9,145.9 L 666.4,145.3 L 670.9,143.8 L 675.4,141.2 L 679.9,140.3 L 684.4,140.3 L 688.9,140.3 L 693.4,140.3 L 697.9,140.3 L 702.5,139.1 L 707.0,138.2 L 711.5,138.2 L 716.0,138.2 L 720.5,138.2 L 725.0,137.3 L 729.5,137.3 L 734.0,136.5 L 738.5,135.6 L 743.0,135.3 L 747.5,135.0 L 752.0,134.4 L 756.5,134.4 L 761.0,133.5 L 765.5,132.3 L 770.0,131.4 L 770.0,340 Z" fill="url(#g5)" clip-path="url(#ca)"/>
<path d="M 72.0,242.6 L 76.5,240.0 L 81.0,239.7 L 85.5,238.5 L 90.0,237.9 L 94.5,235.0 L 99.0,233.2 L 103.5,232.3 L 108.0,230.8 L 112.5,229.1 L 117.0,228.2 L 121.5,227.9 L 126.0,227.0 L 130.5,226.4 L 135.0,226.1 L 139.5,225.2 L 144.1,224.4 L 148.6,223.5 L 153.1,222.6 L 157.6,221.4 L 162.1,220.5 L 166.6,219.6 L 171.1,218.8 L 175.6,217.0 L 180.1,216.4 L 184.6,216.4 L 189.1,214.3 L 193.6,213.7 L 198.1,213.2 L 202.6,212.6 L 207.1,211.1 L 211.6,209.0 L 216.1,208.7 L 220.6,208.4 L 225.1,206.7 L 229.6,206.1 L 234.1,204.6 L 238.6,204.3 L 243.1,204.0 L 247.6,203.4 L 252.1,203.4 L 256.6,203.4 L 261.1,199.3 L 265.6,199.0 L 270.1,198.1 L 274.6,197.8 L 279.1,197.5 L 283.7,196.6 L 288.2,196.0 L 292.7,195.4 L 297.2,193.7 L 301.7,193.7 L 306.2,193.7 L 310.7,193.4 L 315.2,190.4 L 319.7,189.6 L 324.2,189.0 L 328.7,188.1 L 333.2,187.5 L 337.7,187.5 L 342.2,186.0 L 346.7,183.9 L 351.2,183.4 L 355.7,183.1 L 360.2,182.2 L 364.7,182.2 L 369.2,181.6 L 373.7,180.7 L 378.2,180.1 L 382.7,178.9 L 387.2,177.8 L 391.7,177.5 L 396.2,177.5 L 400.7,176.3 L 405.2,176.3 L 409.7,176.3 L 414.2,174.5 L 418.7,174.2 L 423.3,173.9 L 427.8,173.9 L 432.3,173.6 L 436.8,172.4 L 441.3,171.9 L 445.8,171.0 L 450.3,171.0 L 454.8,170.7 L 459.3,169.5 L 463.8,168.6 L 468.3,168.6 L 472.8,168.3 L 477.3,167.7 L 481.8,165.7 L 486.3,165.1 L 490.8,164.2 L 495.3,164.2 L 499.8,163.6 L 504.3,163.3 L 508.8,163.0 L 513.3,162.7 L 517.8,162.4 L 522.3,162.4 L 526.8,162.1 L 531.3,161.8 L 535.8,160.9 L 540.3,159.8 L 544.8,159.5 L 549.3,158.6 L 553.8,158.6 L 558.3,157.4 L 562.9,157.1 L 567.4,157.1 L 571.9,157.1 L 576.4,156.2 L 580.9,155.9 L 585.4,155.9 L 589.9,155.9 L 594.4,155.6 L 598.9,154.4 L 603.4,154.2 L 607.9,153.3 L 612.4,152.7 L 616.9,152.7 L 621.4,151.8 L 625.9,151.2 L 630.4,151.2 L 634.9,150.9 L 639.4,149.4 L 643.9,148.0 L 648.4,147.7 L 652.9,147.1 L 657.4,145.9 L 661.9,145.9 L 666.4,145.3 L 670.9,143.8 L 675.4,141.2 L 679.9,140.3 L 684.4,140.3 L 688.9,140.3 L 693.4,140.3 L 697.9,140.3 L 702.5,139.1 L 707.0,138.2 L 711.5,138.2 L 716.0,138.2 L 720.5,138.2 L 725.0,137.3 L 729.5,137.3 L 734.0,136.5 L 738.5,135.6 L 743.0,135.3 L 747.5,135.0 L 752.0,134.4 L 756.5,134.4 L 761.0,133.5 L 765.5,132.3 L 770.0,131.4" fill="none" stroke="#34C759" stroke-width="2.5" stroke-linejoin="round" clip-path="url(#ca)"/>
<path d="M 72.0,340 L 72.0,222.6 L 76.5,222.6 L 81.0,222.3 L 85.5,221.4 L 90.0,221.7 L 94.5,221.7 L 99.0,220.5 L 103.5,219.6 L 108.0,219.6 L 112.5,219.9 L 117.0,219.6 L 121.5,219.3 L 126.0,219.1 L 130.5,219.1 L 135.0,219.1 L 139.5,219.3 L 144.1,218.8 L 148.6,218.2 L 153.1,216.4 L 157.6,215.2 L 162.1,215.2 L 166.6,214.9 L 171.1,213.2 L 175.6,210.5 L 180.1,209.6 L 184.6,209.0 L 189.1,207.0 L 193.6,205.5 L 198.1,204.9 L 202.6,204.3 L 207.1,203.7 L 211.6,203.4 L 216.1,203.4 L 220.6,201.3 L 225.1,200.8 L 229.6,200.2 L 234.1,200.2 L 238.6,198.7 L 243.1,198.4 L 247.6,197.5 L 252.1,196.3 L 256.6,194.9 L 261.1,192.8 L 265.6,190.7 L 270.1,190.4 L 274.6,189.8 L 279.1,189.3 L 283.7,187.5 L 288.2,187.5 L 292.7,186.9 L 297.2,186.0 L 301.7,185.4 L 306.2,184.2 L 310.7,184.5 L 315.2,181.0 L 319.7,180.7 L 324.2,180.4 L 328.7,179.8 L 333.2,178.0 L 337.7,178.0 L 342.2,176.3 L 346.7,174.2 L 351.2,174.2 L 355.7,174.2 L 360.2,173.9 L 364.7,173.6 L 369.2,173.3 L 373.7,171.9 L 378.2,170.1 L 382.7,169.5 L 387.2,168.3 L 391.7,168.3 L 396.2,167.4 L 400.7,165.7 L 405.2,164.8 L 409.7,164.5 L 414.2,162.4 L 418.7,162.1 L 423.3,162.1 L 427.8,161.8 L 432.3,161.8 L 436.8,160.3 L 441.3,159.8 L 445.8,158.9 L 450.3,158.6 L 454.8,158.0 L 459.3,155.6 L 463.8,152.4 L 468.3,152.1 L 472.8,151.5 L 477.3,151.2 L 481.8,149.7 L 486.3,118.5 L 490.8,117.9 L 495.3,116.4 L 499.8,116.4 L 504.3,116.4 L 508.8,116.7 L 513.3,116.4 L 517.8,114.6 L 522.3,114.0 L 526.8,113.7 L 531.3,113.4 L 535.8,112.3 L 540.3,110.5 L 544.8,110.5 L 549.3,110.5 L 553.8,110.2 L 558.3,109.9 L 562.9,109.9 L 567.4,109.3 L 571.9,108.4 L 576.4,106.9 L 580.9,106.4 L 585.4,106.1 L 589.9,106.1 L 594.4,105.8 L 598.9,105.2 L 603.4,104.9 L 607.9,103.4 L 612.4,103.4 L 616.9,102.8 L 621.4,101.6 L 625.9,100.2 L 630.4,99.9 L 634.9,99.6 L 639.4,96.9 L 643.9,96.3 L 648.4,95.7 L 652.9,95.7 L 657.4,94.6 L 661.9,94.0 L 666.4,92.5 L 670.9,91.9 L 675.4,91.0 L 679.9,90.7 L 684.4,89.5 L 688.9,88.7 L 693.4,88.4 L 697.9,87.8 L 702.5,86.6 L 707.0,86.0 L 711.5,85.1 L 716.0,84.5 L 720.5,84.2 L 725.0,83.6 L 729.5,82.8 L 734.0,82.2 L 738.5,81.6 L 743.0,80.7 L 747.5,80.7 L 752.0,80.1 L 756.5,78.6 L 761.0,77.2 L 765.5,76.3 L 770.0,76.6 L 770.0,340 Z" fill="url(#g6)" clip-path="url(#ca)"/>
<path d="M 72.0,222.6 L 76.5,222.6 L 81.0,222.3 L 85.5,221.4 L 90.0,221.7 L 94.5,221.7 L 99.0,220.5 L 103.5,219.6 L 108.0,219.6 L 112.5,219.9 L 117.0,219.6 L 121.5,219.3 L 126.0,219.1 L 130.5,219.1 L 135.0,219.1 L 139.5,219.3 L 144.1,218.8 L 148.6,218.2 L 153.1,216.4 L 157.6,215.2 L 162.1,215.2 L 166.6,214.9 L 171.1,213.2 L 175.6,210.5 L 180.1,209.6 L 184.6,209.0 L 189.1,207.0 L 193.6,205.5 L 198.1,204.9 L 202.6,204.3 L 207.1,203.7 L 211.6,203.4 L 216.1,203.4 L 220.6,201.3 L 225.1,200.8 L 229.6,200.2 L 234.1,200.2 L 238.6,198.7 L 243.1,198.4 L 247.6,197.5 L 252.1,196.3 L 256.6,194.9 L 261.1,192.8 L 265.6,190.7 L 270.1,190.4 L 274.6,189.8 L 279.1,189.3 L 283.7,187.5 L 288.2,187.5 L 292.7,186.9 L 297.2,186.0 L 301.7,185.4 L 306.2,184.2 L 310.7,184.5 L 315.2,181.0 L 319.7,180.7 L 324.2,180.4 L 328.7,179.8 L 333.2,178.0 L 337.7,178.0 L 342.2,176.3 L 346.7,174.2 L 351.2,174.2 L 355.7,174.2 L 360.2,173.9 L 364.7,173.6 L 369.2,173.3 L 373.7,171.9 L 378.2,170.1 L 382.7,169.5 L 387.2,168.3 L 391.7,168.3 L 396.2,167.4 L 400.7,165.7 L 405.2,164.8 L 409.7,164.5 L 414.2,162.4 L 418.7,162.1 L 423.3,162.1 L 427.8,161.8 L 432.3,161.8 L 436.8,160.3 L 441.3,159.8 L 445.8,158.9 L 450.3,158.6 L 454.8,158.0 L 459.3,155.6 L 463.8,152.4 L 468.3,152.1 L 472.8,151.5 L 477.3,151.2 L 481.8,149.7 L 486.3,118.5 L 490.8,117.9 L 495.3,116.4 L 499.8,116.4 L 504.3,116.4 L 508.8,116.7 L 513.3,116.4 L 517.8,114.6 L 522.3,114.0 L 526.8,113.7 L 531.3,113.4 L 535.8,112.3 L 540.3,110.5 L 544.8,110.5 L 549.3,110.5 L 553.8,110.2 L 558.3,109.9 L 562.9,109.9 L 567.4,109.3 L 571.9,108.4 L 576.4,106.9 L 580.9,106.4 L 585.4,106.1 L 589.9,106.1 L 594.4,105.8 L 598.9,105.2 L 603.4,104.9 L 607.9,103.4 L 612.4,103.4 L 616.9,102.8 L 621.4,101.6 L 625.9,100.2 L 630.4,99.9 L 634.9,99.6 L 639.4,96.9 L 643.9,96.3 L 648.4,95.7 L 652.9,95.7 L 657.4,94.6 L 661.9,94.0 L 666.4,92.5 L 670.9,91.9 L 675.4,91.0 L 679.9,90.7 L 684.4,89.5 L 688.9,88.7 L 693.4,88.4 L 697.9,87.8 L 702.5,86.6 L 707.0,86.0 L 711.5,85.1 L 716.0,84.5 L 720.5,84.2 L 725.0,83.6 L 729.5,82.8 L 734.0,82.2 L 738.5,81.6 L 743.0,80.7 L 747.5,80.7 L 752.0,80.1 L 756.5,78.6 L 761.0,77.2 L 765.5,76.3 L 770.0,76.6" fill="none" stroke="#4F8EF7" stroke-width="2.5" stroke-linejoin="round" clip-path="url(#ca)"/>
<path d="M 72.0,340 L 72.0,338.2 L 76.5,337.9 L 81.0,337.9 L 85.5,337.6 L 90.0,337.6 L 94.5,337.6 L 99.0,337.6 L 103.5,337.6 L 108.0,337.1 L 112.5,337.1 L 117.0,337.1 L 121.5,337.1 L 126.0,337.1 L 130.5,336.8 L 135.0,336.8 L 139.5,336.8 L 144.1,336.8 L 148.6,336.8 L 153.1,336.5 L 157.6,335.9 L 162.1,335.6 L 166.6,335.6 L 171.1,335.6 L 175.6,335.3 L 180.1,335.3 L 184.6,335.3 L 189.1,335.0 L 193.6,335.0 L 198.1,335.0 L 202.6,334.7 L 207.1,334.7 L 211.6,334.7 L 216.1,334.7 L 220.6,334.4 L 225.1,334.4 L 229.6,334.4 L 234.1,334.4 L 238.6,334.4 L 243.1,334.4 L 247.6,334.4 L 252.1,334.4 L 256.6,334.4 L 261.1,334.4 L 265.6,334.4 L 270.1,334.4 L 274.6,334.4 L 279.1,334.1 L 283.7,334.1 L 288.2,334.1 L 292.7,334.1 L 297.2,334.1 L 301.7,334.1 L 306.2,334.1 L 310.7,334.1 L 315.2,334.1 L 319.7,334.1 L 324.2,334.1 L 328.7,334.1 L 333.2,333.8 L 337.7,333.8 L 342.2,333.8 L 346.7,333.8 L 351.2,333.8 L 355.7,333.8 L 360.2,333.8 L 364.7,333.8 L 369.2,333.8 L 373.7,333.8 L 378.2,333.8 L 382.7,333.8 L 387.2,333.8 L 391.7,333.8 L 396.2,333.8 L 400.7,333.8 L 405.2,333.8 L 409.7,333.8 L 414.2,333.8 L 418.7,333.8 L 423.3,333.8 L 427.8,333.8 L 432.3,333.8 L 436.8,333.8 L 441.3,333.8 L 445.8,333.8 L 450.3,333.8 L 454.8,333.8 L 459.3,333.8 L 463.8,333.8 L 468.3,333.8 L 472.8,333.8 L 477.3,333.8 L 481.8,333.8 L 486.3,333.8 L 490.8,333.8 L 495.3,333.5 L 499.8,333.5 L 504.3,333.5 L 508.8,333.5 L 513.3,333.5 L 517.8,333.2 L 522.3,333.2 L 526.8,333.2 L 531.3,333.2 L 535.8,332.9 L 540.3,332.9 L 544.8,332.6 L 549.3,332.6 L 553.8,332.6 L 558.3,332.6 L 562.9,332.6 L 567.4,332.6 L 571.9,332.6 L 576.4,332.6 L 580.9,332.6 L 585.4,332.6 L 589.9,332.6 L 594.4,332.6 L 598.9,332.6 L 603.4,332.6 L 607.9,332.6 L 612.4,332.6 L 616.9,332.6 L 621.4,332.6 L 625.9,332.6 L 630.4,332.6 L 634.9,332.6 L 639.4,332.6 L 643.9,332.6 L 648.4,332.6 L 652.9,332.6 L 657.4,332.6 L 661.9,332.6 L 666.4,332.6 L 670.9,332.6 L 675.4,332.6 L 679.9,332.6 L 684.4,332.6 L 688.9,332.6 L 693.4,332.6 L 697.9,332.6 L 702.5,332.6 L 707.0,332.6 L 711.5,332.6 L 716.0,332.6 L 720.5,332.6 L 725.0,332.6 L 729.5,332.6 L 734.0,332.6 L 738.5,332.6 L 743.0,332.6 L 747.5,332.6 L 752.0,332.6 L 756.5,332.6 L 761.0,332.3 L 765.5,332.3 L 770.0,332.3 L 770.0,340 Z" fill="url(#g7)" clip-path="url(#ca)"/>
<path d="M 72.0,338.2 L 76.5,337.9 L 81.0,337.9 L 85.5,337.6 L 90.0,337.6 L 94.5,337.6 L 99.0,337.6 L 103.5,337.6 L 108.0,337.1 L 112.5,337.1 L 117.0,337.1 L 121.5,337.1 L 126.0,337.1 L 130.5,336.8 L 135.0,336.8 L 139.5,336.8 L 144.1,336.8 L 148.6,336.8 L 153.1,336.5 L 157.6,335.9 L 162.1,335.6 L 166.6,335.6 L 171.1,335.6 L 175.6,335.3 L 180.1,335.3 L 184.6,335.3 L 189.1,335.0 L 193.6,335.0 L 198.1,335.0 L 202.6,334.7 L 207.1,334.7 L 211.6,334.7 L 216.1,334.7 L 220.6,334.4 L 225.1,334.4 L 229.6,334.4 L 234.1,334.4 L 238.6,334.4 L 243.1,334.4 L 247.6,334.4 L 252.1,334.4 L 256.6,334.4 L 261.1,334.4 L 265.6,334.4 L 270.1,334.4 L 274.6,334.4 L 279.1,334.1 L 283.7,334.1 L 288.2,334.1 L 292.7,334.1 L 297.2,334.1 L 301.7,334.1 L 306.2,334.1 L 310.7,334.1 L 315.2,334.1 L 319.7,334.1 L 324.2,334.1 L 328.7,334.1 L 333.2,333.8 L 337.7,333.8 L 342.2,333.8 L 346.7,333.8 L 351.2,333.8 L 355.7,333.8 L 360.2,333.8 L 364.7,333.8 L 369.2,333.8 L 373.7,333.8 L 378.2,333.8 L 382.7,333.8 L 387.2,333.8 L 391.7,333.8 L 396.2,333.8 L 400.7,333.8 L 405.2,333.8 L 409.7,333.8 L 414.2,333.8 L 418.7,333.8 L 423.3,333.8 L 427.8,333.8 L 432.3,333.8 L 436.8,333.8 L 441.3,333.8 L 445.8,333.8 L 450.3,333.8 L 454.8,333.8 L 459.3,333.8 L 463.8,333.8 L 468.3,333.8 L 472.8,333.8 L 477.3,333.8 L 481.8,333.8 L 486.3,333.8 L 490.8,333.8 L 495.3,333.5 L 499.8,333.5 L 504.3,333.5 L 508.8,333.5 L 513.3,333.5 L 517.8,333.2 L 522.3,333.2 L 526.8,333.2 L 531.3,333.2 L 535.8,332.9 L 540.3,332.9 L 544.8,332.6 L 549.3,332.6 L 553.8,332.6 L 558.3,332.6 L 562.9,332.6 L 567.4,332.6 L 571.9,332.6 L 576.4,332.6 L 580.9,332.6 L 585.4,332.6 L 589.9,332.6 L 594.4,332.6 L 598.9,332.6 L 603.4,332.6 L 607.9,332.6 L 612.4,332.6 L 616.9,332.6 L 621.4,332.6 L 625.9,332.6 L 630.4,332.6 L 634.9,332.6 L 639.4,332.6 L 643.9,332.6 L 648.4,332.6 L 652.9,332.6 L 657.4,332.6 L 661.9,332.6 L 666.4,332.6 L 670.9,332.6 L 675.4,332.6 L 679.9,332.6 L 684.4,332.6 L 688.9,332.6 L 693.4,332.6 L 697.9,332.6 L 702.5,332.6 L 707.0,332.6 L 711.5,332.6 L 716.0,332.6 L 720.5,332.6 L 725.0,332.6 L 729.5,332.6 L 734.0,332.6 L 738.5,332.6 L 743.0,332.6 L 747.5,332.6 L 752.0,332.6 L 756.5,332.6 L 761.0,332.3 L 765.5,332.3 L 770.0,332.3" fill="none" stroke="#FF6363" stroke-width="2.5" stroke-linejoin="round" clip-path="url(#ca)"/>
<text x="96.8" y="55.0" text-anchor="middle" font-size="9" fill="#34C759" opacity="0.85" clip-path="url(#ca)">+15.2% (+50)</text>
<text x="96.8" y="66.0" text-anchor="middle" font-size="9" fill="#4F8EF7" opacity="0.85" clip-path="url(#ca)">+2.8% (+11)</text>
<text x="96.8" y="77.0" text-anchor="middle" font-size="9" fill="#FF6363" opacity="0.85" clip-path="url(#ca)">+66.7% (+4)</text>
<text x="182.3" y="55.0" text-anchor="middle" font-size="9" fill="#34C759" opacity="0.85" clip-path="url(#ca)">+20.1% (+77)</text>
<text x="182.3" y="66.0" text-anchor="middle" font-size="9" fill="#4F8EF7" opacity="0.85" clip-path="url(#ca)">+16.8% (+69)</text>
<text x="182.3" y="77.0" text-anchor="middle" font-size="9" fill="#FF6363" opacity="0.85" clip-path="url(#ca)">+90.0% (+9)</text>
<text x="301.7" y="55.0" text-anchor="middle" font-size="9" fill="#34C759" opacity="0.85" clip-path="url(#ca)">+16.1% (+74)</text>
<text x="301.7" y="66.0" text-anchor="middle" font-size="9" fill="#4F8EF7" opacity="0.85" clip-path="url(#ca)">+17.3% (+83)</text>
<text x="301.7" y="77.0" text-anchor="middle" font-size="9" fill="#FF6363" opacity="0.85" clip-path="url(#ca)">+10.5% (+2)</text>
<text x="423.3" y="55.0" text-anchor="middle" font-size="9" fill="#34C759" opacity="0.85" clip-path="url(#ca)">+10.5% (+56)</text>
<text x="423.3" y="66.0" text-anchor="middle" font-size="9" fill="#4F8EF7" opacity="0.85" clip-path="url(#ca)">+14.4% (+81)</text>
<text x="423.3" y="77.0" text-anchor="middle" font-size="9" fill="#FF6363" opacity="0.85" clip-path="url(#ca)">+0.0% (+0)</text>
<text x="544.8" y="55.0" text-anchor="middle" font-size="9" fill="#34C759" opacity="0.85" clip-path="url(#ca)">+6.2% (+37)</text>
<text x="544.8" y="66.0" text-anchor="middle" font-size="9" fill="#4F8EF7" opacity="0.85" clip-path="url(#ca)">+6.1% (+46)</text>
<text x="544.8" y="77.0" text-anchor="middle" font-size="9" fill="#FF6363" opacity="0.85" clip-path="url(#ca)">+19.0% (+4)</text>
<text x="664.2" y="55.0" text-anchor="middle" font-size="9" fill="#34C759" opacity="0.85" clip-path="url(#ca)">+8.1% (+51)</text>
<text x="664.2" y="66.0" text-anchor="middle" font-size="9" fill="#4F8EF7" opacity="0.85" clip-path="url(#ca)">+8.1% (+65)</text>
<text x="664.2" y="77.0" text-anchor="middle" font-size="9" fill="#FF6363" opacity="0.85" clip-path="url(#ca)">+0.0% (+0)</text>
<text x="747.5" y="55.0" text-anchor="middle" font-size="9" fill="#34C759" opacity="0.85" clip-path="url(#ca)">+2.9% (+20)</text>
<text x="747.5" y="66.0" text-anchor="middle" font-size="9" fill="#4F8EF7" opacity="0.85" clip-path="url(#ca)">+2.8% (+24)</text>
<text x="747.5" y="77.0" text-anchor="middle" font-size="9" fill="#FF6363" opacity="0.85" clip-path="url(#ca)">+4.0% (+1)</text>
<rect x="211" y="369" width="12" height="12" fill="#34C759" rx="2"/>
<text x="227" y="379" font-size="12" fill="#111827">macOS + Windows</text>
<rect x="351" y="369" width="12" height="12" fill="#4F8EF7" rx="2"/>
<text x="367" y="379" font-size="12" fill="#111827">macOS only</text>
<rect x="491" y="369" width="12" height="12" fill="#FF6363" rx="2"/>
<text x="507" y="379" font-size="12" fill="#111827">Windows only</text>
<text x="72" y="394" font-size="8" fill="#e5e7eb">data since Dec 11, 2025</text>
</svg>