<svg xmlns="http://www.w3.org/2000/svg" width="800" height="400" viewBox="0 0 800 400">
<defs>
  <style>text { font-family: -apple-system, BlinkMacSystemFont, 'Segoe UI', Roboto, sans-serif; }</style>
  <linearGradient id="g1" x1="0" y1="0" x2="0" y2="1">
  <stop offset="0%" stop-color="#FF6363" stop-opacity="0.25"/>
  <stop offset="100%" stop-color="#FF6363" stop-opacity="0"/>
</linearGradient>
  <clipPath id="ca"><rect x="72" y="45" width="698" height="295"/></clipPath>
</defs>
<rect width="800" height="400" fill="#ffffff" rx="12"/>
<text x="400" y="26" text-anchor="middle" font-size="15" font-weight="600" fill="#111827">Packages Growth Over Time</text>
<line x1="72" y1="340.0" x2="770" y2="340.0" stroke="#f3f4f6" stroke-width="1"/>
<text x="66" y="344.0" text-anchor="end" font-size="11" fill="#6b7280">2.4k</text>
<line x1="72" y1="290.8" x2="770" y2="290.8" stroke="#f3f4f6" stroke-width="1"/>
<text x="66" y="294.8" text-anchor="end" font-size="11" fill="#6b7280">2.5k</text>
<line x1="72" y1="241.7" x2="770" y2="241.7" stroke="#f3f4f6" stroke-width="1"/>
<text x="66" y="245.7" text-anchor="end" font-size="11" fill="#6b7280">2.6k</text>
<line x1="72" y1="192.5" x2="770" y2="192.5" stroke="#f3f4f6" stroke-width="1"/>
<text x="66" y="196.5" text-anchor="end" font-size="11" fill="#6b7280">2.7k</text>
<line x1="72" y1="143.3" x2="770" y2="143.3" stroke="#f3f4f6" stroke-width="1"/>
<text x="66" y="147.3" text-anchor="end" font-size="11" fill="#6b7280">2.8k</text>
<line x1="72" y1="94.2" x2="770" y2="94.2" stroke="#f3f4f6" stroke-width="1"/>
<text x="66" y="98.2" text-anchor="end" font-size="11" fill="#6b7280">2.9k</text>
<line x1="72" y1="45.0" x2="770" y2="45.0" stroke="#f3f4f6" stroke-width="1"/>
<text x="66" y="49.0" text-anchor="end" font-size="11" fill="#6b7280">3.0k</text>
<line x1="133.1" y1="45" x2="133.1" y2="340" stroke="#e5e7eb" stroke-width="1" stroke-dasharray="3,3" clip-path="url(#ca)"/>
<line x1="265.6" y1="45" x2="265.6" y2="340" stroke="#e5e7eb" stroke-width="1" stroke-dasharray="3,3" clip-path="url(#ca)"/>
<line x1="403.2" y1="45" x2="403.2" y2="340" stroke="#e5e7eb" stroke-width="1" stroke-dasharray="3,3" clip-path="url(#ca)"/>
<line x1="540.7" y1="45" x2="540.7" y2="340" stroke="#e5e7eb" stroke-width="1" stroke-dasharray="3,3" clip-path="url(#ca)"/>
<line x1="678.3" y1="45" x2="678.3" y2="340" stroke="#e5e7eb" stroke-width="1" stroke-dasharray="3,3" clip-path="url(#ca)"/>
<text x="72.0" y="358.0" text-anchor="middle" font-size="11" fill="#6b7280">Dec 11</text>
<text x="209.6" y="358.0" text-anchor="middle" font-size="11" fill="#6b7280">Jan 21</text>
<text x="352.2" y="358.0" text-anchor="middle" font-size="11" fill="#6b7280">Feb 18</text>
<text x="489.8" y="358.0" text-anchor="middle" font-size="11" fill="#6b7280">Mar 19</text>
<text x="632.4" y="358.0" text-anchor="middle" font-size="11" fill="#6b7280">Apr 21</text>
<text x="770.0" y="358.0" text-anchor="middle" font-size="11" fill="#6b7280">May 24</text>
<line x1="72" y1="45" x2="72" y2="340" stroke="#e5e7eb" stroke-width="1"/>
<line x1="72" y1="340" x2="770" y2="340" stroke="#e5e7eb" stroke-width="1"/>
<text x="-192.5" y="18" text-anchor="middle" font-size="12" fill="#6b7280" transform="rotate(-90)">Extensions</text>
<path d="M 72.0,340 L 72.0,302.1 L 77.1,301.6 L 82.2,301.6 L 87.3,300.2 L 92.4,300.2 L 97.5,299.2 L 102.6,298.2 L 107.7,297.7 L 112.8,295.3 L 117.9,293.3 L 122.9,293.3 L 128.0,293.3 L 133.1,293.3 L 138.2,292.3 L 143.3,292.3 L 148.4,292.3 L 153.5,291.3 L 158.6,289.4 L 163.7,285.9 L 168.8,283.5 L 173.9,282.5 L 179.0,282.0 L 184.1,280.0 L 189.2,274.1 L 194.3,272.1 L 199.4,272.1 L 204.5,267.2 L 209.6,265.8 L 214.7,263.8 L 219.8,262.3 L 224.8,259.4 L 229.9,256.9 L 235.0,256.4 L 240.1,252.5 L 245.2,249.0 L 250.3,249.0 L 255.4,246.6 L 260.5,244.6 L 265.6,244.1 L 270.7,243.6 L 275.8,243.1 L 280.9,241.7 L 286.0,232.8 L 291.1,228.9 L 296.2,226.9 L 301.3,225.9 L 306.4,224.5 L 311.5,221.0 L 316.6,220.0 L 321.6,219.1 L 326.7,216.1 L 331.8,215.1 L 336.9,214.1 L 342.0,214.1 L 347.1,205.3 L 352.2,204.3 L 357.3,203.3 L 362.4,201.3 L 367.5,198.9 L 372.6,198.9 L 377.7,195.0 L 382.8,188.6 L 387.9,187.6 L 393.0,188.1 L 398.1,186.6 L 403.2,186.1 L 408.3,186.1 L 413.4,183.2 L 418.5,180.7 L 423.5,178.7 L 428.6,176.3 L 433.7,175.8 L 438.8,175.8 L 443.9,172.3 L 449.0,171.4 L 454.1,170.9 L 459.2,165.0 L 464.3,164.5 L 469.4,164.5 L 474.5,164.5 L 479.6,164.0 L 484.7,161.5 L 489.8,159.6 L 494.9,157.1 L 500.0,156.6 L 505.1,155.1 L 510.2,150.7 L 515.3,146.8 L 520.4,146.3 L 525.4,145.8 L 530.5,144.3 L 535.6,139.4 L 540.7,138.4 L 545.8,136.9 L 550.9,134.0 L 556.0,133.5 L 561.1,133.0 L 566.2,133.0 L 571.3,132.0 L 576.4,129.1 L 581.5,128.1 L 586.6,127.1 L 591.7,126.6 L 596.8,125.6 L 601.9,120.7 L 607.0,120.2 L 612.1,119.2 L 617.2,118.8 L 622.2,116.3 L 627.3,115.8 L 632.4,115.3 L 637.5,113.8 L 642.6,111.9 L 647.7,111.9 L 652.8,111.9 L 657.9,111.9 L 663.0,110.9 L 668.1,108.4 L 673.2,107.9 L 678.3,105.5 L 683.4,105.0 L 688.5,104.5 L 693.6,101.5 L 698.7,98.6 L 703.8,98.1 L 708.9,97.6 L 714.0,91.2 L 719.1,89.3 L 724.1,87.8 L 729.2,87.3 L 734.3,83.8 L 739.4,83.8 L 744.5,81.4 L 749.6,79.9 L 754.7,75.0 L 759.8,73.0 L 764.9,72.5 L 770.0,72.0 L 770.0,340 Z" fill="url(#g1)" clip-path="url(#ca)"/>
<path d="M 72.0,302.1 L 77.1,301.6 L 82.2,301.6 L 87.3,300.2 L 92.4,300.2 L 97.5,299.2 L 102.6,298.2 L 107.7,297.7 L 112.8,295.3 L 117.9,293.3 L 122.9,293.3 L 128.0,293.3 L 133.1,293.3 L 138.2,292.3 L 143.3,292.3 L 148.4,292.3 L 153.5,291.3 L 158.6,289.4 L 163.7,285.9 L 168.8,283.5 L 173.9,282.5 L 179.0,282.0 L 184.1,280.0 L 189.2,274.1 L 194.3,272.1 L 199.4,272.1 L 204.5,267.2 L 209.6,265.8 L 214.7,263.8 L 219.8,262.3 L 224.8,259.4 L 229.9,256.9 L 235.0,256.4 L 240.1,252.5 L 245.2,249.0 L 250.3,249.0 L 255.4,246.6 L 260.5,244.6 L 265.6,244.1 L 270.7,243.6 L 275.8,243.1 L 280.9,241.7 L 286.0,232.8 L 291.1,228.9 L 296.2,226.9 L 301.3,225.9 L 306.4,224.5 L 311.5,221.0 L 316.6,220.0 L 321.6,219.1 L 326.7,216.1 L 331.8,215.1 L 336.9,214.1 L 342.0,214.1 L 347.1,205.3 L 352.2,204.3 L 357.3,203.3 L 362.4,201.3 L 367.5,198.9 L 372.6,198.9 L 377.7,195.0 L 382.8,188.6 L 387.9,187.6 L 393.0,188.1 L 398.1,186.6 L 403.2,186.1 L 408.3,186.1 L 413.4,183.2 L 418.5,180.7 L 423.5,178.7 L 428.6,176.3 L 433.7,175.8 L 438.8,175.8 L 443.9,172.3 L 449.0,171.4 L 454.1,170.9 L 459.2,165.0 L 464.3,164.5 L 469.4,164.5 L 474.5,164.5 L 479.6,164.0 L 484.7,161.5 L 489.8,159.6 L 494.9,157.1 L 500.0,156.6 L 505.1,155.1 L 510.2,150.7 L 515.3,146.8 L 520.4,146.3 L 525.4,145.8 L 530.5,144.3 L 535.6,139.4 L 540.7,138.4 L 545.8,136.9 L 550.9,134.0 L 556.0,133.5 L 561.1,133.0 L 566.2,133.0 L 571.3,132.0 L 576.4,129.1 L 581.5,128.1 L 586.6,127.1 L 591.7,126.6 L 596.8,125.6 L 601.9,120.7 L 607.0,120.2 L 612.1,119.2 L 617.2,118.8 L 622.2,116.3 L 627.3,115.8 L 632.4,115.3 L 637.5,113.8 L 642.6,111.9 L 647.7,111.9 L 652.8,111.9 L 657.9,111.9 L 663.0,110.9 L 668.1,108.4 L 673.2,107.9 L 678.3,105.5 L 683.4,105.0 L 688.5,104.5 L 693.6,101.5 L 698.7,98.6 L 703.8,98.1 L 708.9,97.6 L 714.0,91.2 L 719.1,89.3 L 724.1,87.8 L 729.2,87.3 L 734.3,83.8 L 739.4,83.8 L 744.5,81.4 L 749.6,79.9 L 754.7,75.0 L 759.8,73.0 L 764.9,72.5 L 770.0,72.0" fill="none" stroke="#FF6363" stroke-width="2.5" stroke-linejoin="round" clip-path="url(#ca)"/>
<text x="100.0" y="55.0" text-anchor="middle" font-size="9" fill="#FF6363" opacity="0.85" clip-path="url(#ca)">+0.7% (+18)</text>
<text x="196.8" y="55.0" text-anchor="middle" font-size="9" fill="#FF6363" opacity="0.85" clip-path="url(#ca)">+4.0% (+99)</text>
<text x="331.8" y="55.0" text-anchor="middle" font-size="9" fill="#FF6363" opacity="0.85" clip-path="url(#ca)">+4.5% (+117)</text>
<text x="469.4" y="55.0" text-anchor="middle" font-size="9" fill="#FF6363" opacity="0.85" clip-path="url(#ca)">+3.5% (+95)</text>
<text x="607.0" y="55.0" text-anchor="middle" font-size="9" fill="#FF6363" opacity="0.85" clip-path="url(#ca)">+2.2% (+62)</text>
<text x="724.1" y="55.0" text-anchor="middle" font-size="9" fill="#FF6363" opacity="0.85" clip-path="url(#ca)">+2.4% (+68)</text>
<rect x="351" y="369" width="12" height="12" fill="#FF6363" rx="2"/>
<text x="367" y="379" font-size="12" fill="#111827">Extensions</text>
<text x="72" y="394" font-size="8" fill="#e5e7eb">data since Dec 11, 2025</text>
</svg>