<svg xmlns="http://www.w3.org/2000/svg" width="800" height="420" viewBox="0 0 800 420">
<defs><style>text { font-family: -apple-system, BlinkMacSystemFont, 'Segoe UI', Roboto, sans-serif; }</style></defs>
<rect width="800" height="420" fill="#ffffff" rx="12"/>
<text x="400" y="26" text-anchor="middle" font-size="15" font-weight="600" fill="#111827">Top @raycast/api Versions</text>
<line x1="120" y1="45" x2="120" y2="375" stroke="#e5e7eb" stroke-width="1"/>
<line x1="120" y1="375" x2="740" y2="375" stroke="#e5e7eb" stroke-width="1"/>
<line x1="120.0" y1="45" x2="120.0" y2="375" stroke="#f3f4f6" stroke-width="1"/>
<text x="120.0" y="391.0" text-anchor="middle" font-size="11" fill="#6b7280">0</text>
<line x1="275.0" y1="45" x2="275.0" y2="375" stroke="#f3f4f6" stroke-width="1"/>
<text x="275.0" y="391.0" text-anchor="middle" font-size="11" fill="#6b7280">71</text>
<line x1="430.0" y1="45" x2="430.0" y2="375" stroke="#f3f4f6" stroke-width="1"/>
<text x="430.0" y="391.0" text-anchor="middle" font-size="11" fill="#6b7280">142</text>
<line x1="585.0" y1="45" x2="585.0" y2="375" stroke="#f3f4f6" stroke-width="1"/>
<text x="585.0" y="391.0" text-anchor="middle" font-size="11" fill="#6b7280">213</text>
<line x1="740.0" y1="45" x2="740.0" y2="375" stroke="#f3f4f6" stroke-width="1"/>
<text x="740.0" y="391.0" text-anchor="middle" font-size="11" fill="#6b7280">284</text>
<rect x="120" y="50.8" width="620.0" height="16" fill="#FF6363" rx="3" opacity="0.85"/>
<text x="114" y="62.8" text-anchor="end" font-size="11" fill="#111827">1.93.2</text>
<text x="745.0" y="62.8" font-size="11" fill="#6b7280">284</text>
<rect x="120" y="78.3" width="473.7" height="16" fill="#FF6363" rx="3" opacity="0.85"/>
<text x="114" y="90.3" text-anchor="end" font-size="11" fill="#111827">1.104.1</text>
<text x="598.7" y="90.3" font-size="11" fill="#6b7280">217</text>
<rect x="120" y="105.8" width="207.4" height="16" fill="#FF6363" rx="3" opacity="0.85"/>
<text x="114" y="117.8" text-anchor="end" font-size="11" fill="#111827">1.103.10</text>
<text x="332.4" y="117.8" font-size="11" fill="#6b7280">95</text>
<rect x="120" y="133.3" width="181.2" height="16" fill="#FF6363" rx="3" opacity="0.85"/>
<text x="114" y="145.3" text-anchor="end" font-size="11" fill="#111827">1.104.6</text>
<text x="306.2" y="145.3" font-size="11" fill="#6b7280">83</text>
<rect x="120" y="160.8" width="135.4" height="16" fill="#FF6363" rx="3" opacity="0.85"/>
<text x="114" y="172.8" text-anchor="end" font-size="11" fill="#111827">1.100.3</text>
<text x="260.4" y="172.8" font-size="11" fill="#6b7280">62</text>
<rect x="120" y="188.3" width="128.8" height="16" fill="#FF6363" rx="3" opacity="0.85"/>
<text x="114" y="200.3" text-anchor="end" font-size="11" fill="#111827">1.104.3</text>
<text x="253.8" y="200.3" font-size="11" fill="#6b7280">59</text>
<rect x="120" y="215.8" width="124.4" height="16" fill="#FF6363" rx="3" opacity="0.85"/>
<text x="114" y="227.8" text-anchor="end" font-size="11" fill="#111827">1.103.3</text>
<text x="249.4" y="227.8" font-size="11" fill="#6b7280">57</text>
<rect x="120" y="243.3" width="115.7" height="16" fill="#FF6363" rx="3" opacity="0.85"/>
<text x="114" y="255.3" text-anchor="end" font-size="11" fill="#111827">1.103.6</text>
<text x="240.7" y="255.3" font-size="11" fill="#6b7280">53</text>
<rect x="120" y="270.8" width="93.9" height="16" fill="#FF6363" rx="3" opacity="0.85"/>
<text x="114" y="282.8" text-anchor="end" font-size="11" fill="#111827">1.103.5</text>
<text x="218.9" y="282.8" font-size="11" fill="#6b7280">43</text>
<rect x="120" y="298.3" width="80.8" height="16" fill="#FF6363" rx="3" opacity="0.85"/>
<text x="114" y="310.3" text-anchor="end" font-size="11" fill="#111827">1.104.4</text>
<text x="205.8" y="310.3" font-size="11" fill="#6b7280">37</text>
<rect x="120" y="325.8" width="76.4" height="16" fill="#FF6363" rx="3" opacity="0.85"/>
<text x="114" y="337.8" text-anchor="end" font-size="11" fill="#111827">1.102.6</text>
<text x="201.4" y="337.8" font-size="11" fill="#6b7280">35</text>
<rect x="120" y="353.3" width="74.2" height="16" fill="#FF6363" rx="3" opacity="0.85"/>
<text x="114" y="365.3" text-anchor="end" font-size="11" fill="#111827">1.104.8</text>
<text x="199.2" y="365.3" font-size="11" fill="#6b7280">34</text>
<text x="400" y="410" text-anchor="middle" font-size="12" fill="#6b7280">Number of extensions</text>
</svg>