<svg xmlns="http://www.w3.org/2000/svg" width="800" height="420" viewBox="0 0 800 420">
<defs><style>text { font-family: -apple-system, BlinkMacSystemFont, 'Segoe UI', Roboto, sans-serif; }</style></defs>
<rect width="800" height="420" fill="#ffffff" rx="12"/>
<text x="400" y="26" text-anchor="middle" font-size="15" font-weight="600" fill="#111827">Top @raycast/api Versions</text>
<line x1="120" y1="45" x2="120" y2="375" stroke="#e5e7eb" stroke-width="1"/>
<line x1="120" y1="375" x2="740" y2="375" stroke="#e5e7eb" stroke-width="1"/>
<line x1="120.0" y1="45" x2="120.0" y2="375" stroke="#f3f4f6" stroke-width="1"/>
<text x="120.0" y="391.0" text-anchor="middle" font-size="11" fill="#6b7280">0</text>
<line x1="275.0" y1="45" x2="275.0" y2="375" stroke="#f3f4f6" stroke-width="1"/>
<text x="275.0" y="391.0" text-anchor="middle" font-size="11" fill="#6b7280">67</text>
<line x1="430.0" y1="45" x2="430.0" y2="375" stroke="#f3f4f6" stroke-width="1"/>
<text x="430.0" y="391.0" text-anchor="middle" font-size="11" fill="#6b7280">134</text>
<line x1="585.0" y1="45" x2="585.0" y2="375" stroke="#f3f4f6" stroke-width="1"/>
<text x="585.0" y="391.0" text-anchor="middle" font-size="11" fill="#6b7280">201</text>
<line x1="740.0" y1="45" x2="740.0" y2="375" stroke="#f3f4f6" stroke-width="1"/>
<text x="740.0" y="391.0" text-anchor="middle" font-size="11" fill="#6b7280">268</text>
<rect x="120" y="50.8" width="620.0" height="16" fill="#FF6363" rx="3" opacity="0.85"/>
<text x="114" y="62.8" text-anchor="end" font-size="11" fill="#111827">1.93.2</text>
<text x="745.0" y="62.8" font-size="11" fill="#6b7280">268</text>
<rect x="120" y="78.3" width="377.1" height="16" fill="#FF6363" rx="3" opacity="0.85"/>
<text x="114" y="90.3" text-anchor="end" font-size="11" fill="#111827">1.104.1</text>
<text x="502.1" y="90.3" font-size="11" fill="#6b7280">163</text>
<rect x="120" y="105.8" width="233.7" height="16" fill="#FF6363" rx="3" opacity="0.85"/>
<text x="114" y="117.8" text-anchor="end" font-size="11" fill="#111827">1.104.19</text>
<text x="358.7" y="117.8" font-size="11" fill="#6b7280">101</text>
<rect x="120" y="133.3" width="199.0" height="16" fill="#FF6363" rx="3" opacity="0.85"/>
<text x="114" y="145.3" text-anchor="end" font-size="11" fill="#111827">1.103.10</text>
<text x="324.0" y="145.3" font-size="11" fill="#6b7280">86</text>
<rect x="120" y="160.8" width="187.4" height="16" fill="#FF6363" rx="3" opacity="0.85"/>
<text x="114" y="172.8" text-anchor="end" font-size="11" fill="#111827">1.104.6</text>
<text x="312.4" y="172.8" font-size="11" fill="#6b7280">81</text>
<rect x="120" y="188.3" width="175.8" height="16" fill="#FF6363" rx="3" opacity="0.85"/>
<text x="114" y="200.3" text-anchor="end" font-size="11" fill="#111827">1.104.11</text>
<text x="300.8" y="200.3" font-size="11" fill="#6b7280">76</text>
<rect x="120" y="215.8" width="152.7" height="16" fill="#FF6363" rx="3" opacity="0.85"/>
<text x="114" y="227.8" text-anchor="end" font-size="11" fill="#111827">1.104.15</text>
<text x="277.7" y="227.8" font-size="11" fill="#6b7280">66</text>
<rect x="120" y="243.3" width="138.8" height="16" fill="#FF6363" rx="3" opacity="0.85"/>
<text x="114" y="255.3" text-anchor="end" font-size="11" fill="#111827">1.100.3</text>
<text x="263.8" y="255.3" font-size="11" fill="#6b7280">60</text>
<rect x="120" y="270.8" width="127.2" height="16" fill="#FF6363" rx="3" opacity="0.85"/>
<text x="114" y="282.8" text-anchor="end" font-size="11" fill="#111827">1.103.3</text>
<text x="252.2" y="282.8" font-size="11" fill="#6b7280">55</text>
<rect x="120" y="298.3" width="120.3" height="16" fill="#FF6363" rx="3" opacity="0.85"/>
<text x="114" y="310.3" text-anchor="end" font-size="11" fill="#111827">1.104.3</text>
<text x="245.3" y="310.3" font-size="11" fill="#6b7280">52</text>
<rect x="120" y="325.8" width="113.4" height="16" fill="#FF6363" rx="3" opacity="0.85"/>
<text x="114" y="337.8" text-anchor="end" font-size="11" fill="#111827">1.103.6</text>
<text x="238.4" y="337.8" font-size="11" fill="#6b7280">49</text>
<rect x="120" y="353.3" width="97.2" height="16" fill="#FF6363" rx="3" opacity="0.85"/>
<text x="114" y="365.3" text-anchor="end" font-size="11" fill="#111827">1.104.20</text>
<text x="222.2" y="365.3" font-size="11" fill="#6b7280">42</text>
<text x="400" y="410" text-anchor="middle" font-size="12" fill="#6b7280">Number of extensions</text>
</svg>