<svg xmlns="http://www.w3.org/2000/svg" width="800" height="400" viewBox="0 0 800 400">
<defs>
  <style>text { font-family: -apple-system, BlinkMacSystemFont, 'Segoe UI', Roboto, sans-serif; }</style>
  <linearGradient id="g5" x1="0" y1="0" x2="0" y2="1">
  <stop offset="0%" stop-color="#34C759" stop-opacity="0.25"/>
  <stop offset="100%" stop-color="#34C759" stop-opacity="0"/>
</linearGradient>
<linearGradient id="g6" x1="0" y1="0" x2="0" y2="1">
  <stop offset="0%" stop-color="#4F8EF7" stop-opacity="0.25"/>
  <stop offset="100%" stop-color="#4F8EF7" stop-opacity="0"/>
</linearGradient>
<linearGradient id="g7" x1="0" y1="0" x2="0" y2="1">
  <stop offset="0%" stop-color="#FF6363" stop-opacity="0.25"/>
  <stop offset="100%" stop-color="#FF6363" stop-opacity="0"/>
</linearGradient>
  <clipPath id="ca"><rect x="72" y="45" width="698" height="295"/></clipPath>
</defs>
<rect width="800" height="400" fill="#ffffff" rx="12"/>
<text x="400" y="26" text-anchor="middle" font-size="15" font-weight="600" fill="#111827">Platform Support Over Time</text>
<line x1="72" y1="340.0" x2="770" y2="340.0" stroke="#f3f4f6" stroke-width="1"/>
<text x="66" y="344.0" text-anchor="end" font-size="11" fill="#6b7280">0</text>
<line x1="72" y1="281.0" x2="770" y2="281.0" stroke="#f3f4f6" stroke-width="1"/>
<text x="66" y="285.0" text-anchor="end" font-size="11" fill="#6b7280">200</text>
<line x1="72" y1="222.0" x2="770" y2="222.0" stroke="#f3f4f6" stroke-width="1"/>
<text x="66" y="226.0" text-anchor="end" font-size="11" fill="#6b7280">400</text>
<line x1="72" y1="163.0" x2="770" y2="163.0" stroke="#f3f4f6" stroke-width="1"/>
<text x="66" y="167.0" text-anchor="end" font-size="11" fill="#6b7280">600</text>
<line x1="72" y1="104.0" x2="770" y2="104.0" stroke="#f3f4f6" stroke-width="1"/>
<text x="66" y="108.0" text-anchor="end" font-size="11" fill="#6b7280">800</text>
<line x1="72" y1="45.0" x2="770" y2="45.0" stroke="#f3f4f6" stroke-width="1"/>
<text x="66" y="49.0" text-anchor="end" font-size="11" fill="#6b7280">1.0k</text>
<line x1="129.0" y1="45" x2="129.0" y2="340" stroke="#e5e7eb" stroke-width="1" stroke-dasharray="3,3" clip-path="url(#ca)"/>
<line x1="252.4" y1="45" x2="252.4" y2="340" stroke="#e5e7eb" stroke-width="1" stroke-dasharray="3,3" clip-path="url(#ca)"/>
<line x1="380.6" y1="45" x2="380.6" y2="340" stroke="#e5e7eb" stroke-width="1" stroke-dasharray="3,3" clip-path="url(#ca)"/>
<line x1="508.8" y1="45" x2="508.8" y2="340" stroke="#e5e7eb" stroke-width="1" stroke-dasharray="3,3" clip-path="url(#ca)"/>
<line x1="637.0" y1="45" x2="637.0" y2="340" stroke="#e5e7eb" stroke-width="1" stroke-dasharray="3,3" clip-path="url(#ca)"/>
<line x1="760.5" y1="45" x2="760.5" y2="340" stroke="#e5e7eb" stroke-width="1" stroke-dasharray="3,3" clip-path="url(#ca)"/>
<text x="72.0" y="358.0" text-anchor="middle" font-size="11" fill="#6b7280">Dec 11</text>
<text x="209.7" y="358.0" text-anchor="middle" font-size="11" fill="#6b7280">Jan 23</text>
<text x="352.1" y="358.0" text-anchor="middle" font-size="11" fill="#6b7280">Feb 22</text>
<text x="489.9" y="358.0" text-anchor="middle" font-size="11" fill="#6b7280">Mar 26</text>
<text x="632.3" y="358.0" text-anchor="middle" font-size="11" fill="#6b7280">Apr 30</text>
<text x="770.0" y="358.0" text-anchor="middle" font-size="11" fill="#6b7280">Jun 4</text>
<line x1="72" y1="45" x2="72" y2="340" stroke="#e5e7eb" stroke-width="1"/>
<line x1="72" y1="340" x2="770" y2="340" stroke="#e5e7eb" stroke-width="1"/>
<text x="-192.5" y="18" text-anchor="middle" font-size="12" fill="#6b7280" transform="rotate(-90)">Extensions</text>
<path d="M 72.0,340 L 72.0,242.6 L 76.7,240.0 L 81.5,239.7 L 86.2,238.5 L 91.0,237.9 L 95.7,235.0 L 100.5,233.2 L 105.2,232.3 L 110.0,230.8 L 114.7,229.1 L 119.5,228.2 L 124.2,227.9 L 129.0,227.0 L 133.7,226.4 L 138.5,226.1 L 143.2,225.2 L 148.0,224.4 L 152.7,223.5 L 157.5,222.6 L 162.2,221.4 L 167.0,220.5 L 171.7,219.6 L 176.5,218.8 L 181.2,217.0 L 186.0,216.4 L 190.7,216.4 L 195.5,214.3 L 200.2,213.7 L 205.0,213.2 L 209.7,212.6 L 214.4,211.1 L 219.2,209.0 L 223.9,208.7 L 228.7,208.4 L 233.4,206.7 L 238.2,206.1 L 242.9,204.6 L 247.7,204.3 L 252.4,204.0 L 257.2,203.4 L 261.9,203.4 L 266.7,203.4 L 271.4,199.3 L 276.2,199.0 L 280.9,198.1 L 285.7,197.8 L 290.4,197.5 L 295.2,196.6 L 299.9,196.0 L 304.7,195.4 L 309.4,193.7 L 314.2,193.7 L 318.9,193.7 L 323.7,193.4 L 328.4,190.4 L 333.2,189.6 L 337.9,189.0 L 342.7,188.1 L 347.4,187.5 L 352.1,187.5 L 356.9,186.0 L 361.6,183.9 L 366.4,183.4 L 371.1,183.1 L 375.9,182.2 L 380.6,182.2 L 385.4,181.6 L 390.1,180.7 L 394.9,180.1 L 399.6,178.9 L 404.4,177.8 L 409.1,177.5 L 413.9,177.5 L 418.6,176.3 L 423.4,176.3 L 428.1,176.3 L 432.9,174.5 L 437.6,174.2 L 442.4,173.9 L 447.1,173.9 L 451.9,173.6 L 456.6,172.4 L 461.4,171.9 L 466.1,171.0 L 470.9,171.0 L 475.6,170.7 L 480.4,169.5 L 485.1,168.6 L 489.9,168.6 L 494.6,168.3 L 499.3,167.7 L 504.1,165.7 L 508.8,165.1 L 513.6,164.2 L 518.3,164.2 L 523.1,163.6 L 527.8,163.3 L 532.6,163.0 L 537.3,162.7 L 542.1,162.4 L 546.8,162.4 L 551.6,162.1 L 556.3,161.8 L 561.1,160.9 L 565.8,159.8 L 570.6,159.5 L 575.3,158.6 L 580.1,158.6 L 584.8,157.4 L 589.6,157.1 L 594.3,157.1 L 599.1,157.1 L 603.8,156.2 L 608.6,155.9 L 613.3,155.9 L 618.1,155.9 L 622.8,155.6 L 627.6,154.4 L 632.3,154.2 L 637.0,153.3 L 641.8,152.7 L 646.5,152.7 L 651.3,151.8 L 656.0,151.2 L 660.8,151.2 L 665.5,150.9 L 670.3,149.4 L 675.0,148.0 L 679.8,147.7 L 684.5,147.1 L 689.3,145.9 L 694.0,145.9 L 698.8,145.3 L 703.5,143.8 L 708.3,141.2 L 713.0,140.3 L 717.8,140.3 L 722.5,140.3 L 727.3,140.3 L 732.0,140.3 L 736.8,139.1 L 741.5,138.2 L 746.3,138.2 L 751.0,138.2 L 755.8,138.2 L 760.5,137.3 L 765.3,137.3 L 770.0,136.5 L 770.0,340 Z" fill="url(#g5)" clip-path="url(#ca)"/>
<path d="M 72.0,242.6 L 76.7,240.0 L 81.5,239.7 L 86.2,238.5 L 91.0,237.9 L 95.7,235.0 L 100.5,233.2 L 105.2,232.3 L 110.0,230.8 L 114.7,229.1 L 119.5,228.2 L 124.2,227.9 L 129.0,227.0 L 133.7,226.4 L 138.5,226.1 L 143.2,225.2 L 148.0,224.4 L 152.7,223.5 L 157.5,222.6 L 162.2,221.4 L 167.0,220.5 L 171.7,219.6 L 176.5,218.8 L 181.2,217.0 L 186.0,216.4 L 190.7,216.4 L 195.5,214.3 L 200.2,213.7 L 205.0,213.2 L 209.7,212.6 L 214.4,211.1 L 219.2,209.0 L 223.9,208.7 L 228.7,208.4 L 233.4,206.7 L 238.2,206.1 L 242.9,204.6 L 247.7,204.3 L 252.4,204.0 L 257.2,203.4 L 261.9,203.4 L 266.7,203.4 L 271.4,199.3 L 276.2,199.0 L 280.9,198.1 L 285.7,197.8 L 290.4,197.5 L 295.2,196.6 L 299.9,196.0 L 304.7,195.4 L 309.4,193.7 L 314.2,193.7 L 318.9,193.7 L 323.7,193.4 L 328.4,190.4 L 333.2,189.6 L 337.9,189.0 L 342.7,188.1 L 347.4,187.5 L 352.1,187.5 L 356.9,186.0 L 361.6,183.9 L 366.4,183.4 L 371.1,183.1 L 375.9,182.2 L 380.6,182.2 L 385.4,181.6 L 390.1,180.7 L 394.9,180.1 L 399.6,178.9 L 404.4,177.8 L 409.1,177.5 L 413.9,177.5 L 418.6,176.3 L 423.4,176.3 L 428.1,176.3 L 432.9,174.5 L 437.6,174.2 L 442.4,173.9 L 447.1,173.9 L 451.9,173.6 L 456.6,172.4 L 461.4,171.9 L 466.1,171.0 L 470.9,171.0 L 475.6,170.7 L 480.4,169.5 L 485.1,168.6 L 489.9,168.6 L 494.6,168.3 L 499.3,167.7 L 504.1,165.7 L 508.8,165.1 L 513.6,164.2 L 518.3,164.2 L 523.1,163.6 L 527.8,163.3 L 532.6,163.0 L 537.3,162.7 L 542.1,162.4 L 546.8,162.4 L 551.6,162.1 L 556.3,161.8 L 561.1,160.9 L 565.8,159.8 L 570.6,159.5 L 575.3,158.6 L 580.1,158.6 L 584.8,157.4 L 589.6,157.1 L 594.3,157.1 L 599.1,157.1 L 603.8,156.2 L 608.6,155.9 L 613.3,155.9 L 618.1,155.9 L 622.8,155.6 L 627.6,154.4 L 632.3,154.2 L 637.0,153.3 L 641.8,152.7 L 646.5,152.7 L 651.3,151.8 L 656.0,151.2 L 660.8,151.2 L 665.5,150.9 L 670.3,149.4 L 675.0,148.0 L 679.8,147.7 L 684.5,147.1 L 689.3,145.9 L 694.0,145.9 L 698.8,145.3 L 703.5,143.8 L 708.3,141.2 L 713.0,140.3 L 717.8,140.3 L 722.5,140.3 L 727.3,140.3 L 732.0,140.3 L 736.8,139.1 L 741.5,138.2 L 746.3,138.2 L 751.0,138.2 L 755.8,138.2 L 760.5,137.3 L 765.3,137.3 L 770.0,136.5" fill="none" stroke="#34C759" stroke-width="2.5" stroke-linejoin="round" clip-path="url(#ca)"/>
<path d="M 72.0,340 L 72.0,222.6 L 76.7,222.6 L 81.5,222.3 L 86.2,221.4 L 91.0,221.7 L 95.7,221.7 L 100.5,220.5 L 105.2,219.6 L 110.0,219.6 L 114.7,219.9 L 119.5,219.6 L 124.2,219.3 L 129.0,219.1 L 133.7,219.1 L 138.5,219.1 L 143.2,219.3 L 148.0,218.8 L 152.7,218.2 L 157.5,216.4 L 162.2,215.2 L 167.0,215.2 L 171.7,214.9 L 176.5,213.2 L 181.2,210.5 L 186.0,209.6 L 190.7,209.0 L 195.5,207.0 L 200.2,205.5 L 205.0,204.9 L 209.7,204.3 L 214.4,203.7 L 219.2,203.4 L 223.9,203.4 L 228.7,201.3 L 233.4,200.8 L 238.2,200.2 L 242.9,200.2 L 247.7,198.7 L 252.4,198.4 L 257.2,197.5 L 261.9,196.3 L 266.7,194.9 L 271.4,192.8 L 276.2,190.7 L 280.9,190.4 L 285.7,189.8 L 290.4,189.3 L 295.2,187.5 L 299.9,187.5 L 304.7,186.9 L 309.4,186.0 L 314.2,185.4 L 318.9,184.2 L 323.7,184.5 L 328.4,181.0 L 333.2,180.7 L 337.9,180.4 L 342.7,179.8 L 347.4,178.0 L 352.1,178.0 L 356.9,176.3 L 361.6,174.2 L 366.4,174.2 L 371.1,174.2 L 375.9,173.9 L 380.6,173.6 L 385.4,173.3 L 390.1,171.9 L 394.9,170.1 L 399.6,169.5 L 404.4,168.3 L 409.1,168.3 L 413.9,167.4 L 418.6,165.7 L 423.4,164.8 L 428.1,164.5 L 432.9,162.4 L 437.6,162.1 L 442.4,162.1 L 447.1,161.8 L 451.9,161.8 L 456.6,160.3 L 461.4,159.8 L 466.1,158.9 L 470.9,158.6 L 475.6,158.0 L 480.4,155.6 L 485.1,152.4 L 489.9,152.1 L 494.6,151.5 L 499.3,151.2 L 504.1,149.7 L 508.8,118.5 L 513.6,117.9 L 518.3,116.4 L 523.1,116.4 L 527.8,116.4 L 532.6,116.7 L 537.3,116.4 L 542.1,114.6 L 546.8,114.0 L 551.6,113.7 L 556.3,113.4 L 561.1,112.3 L 565.8,110.5 L 570.6,110.5 L 575.3,110.5 L 580.1,110.2 L 584.8,109.9 L 589.6,109.9 L 594.3,109.3 L 599.1,108.4 L 603.8,106.9 L 608.6,106.4 L 613.3,106.1 L 618.1,106.1 L 622.8,105.8 L 627.6,105.2 L 632.3,104.9 L 637.0,103.4 L 641.8,103.4 L 646.5,102.8 L 651.3,101.6 L 656.0,100.2 L 660.8,99.9 L 665.5,99.6 L 670.3,96.9 L 675.0,96.3 L 679.8,95.7 L 684.5,95.7 L 689.3,94.6 L 694.0,94.0 L 698.8,92.5 L 703.5,91.9 L 708.3,91.0 L 713.0,90.7 L 717.8,89.5 L 722.5,88.7 L 727.3,88.4 L 732.0,87.8 L 736.8,86.6 L 741.5,86.0 L 746.3,85.1 L 751.0,84.5 L 755.8,84.2 L 760.5,83.6 L 765.3,82.8 L 770.0,82.2 L 770.0,340 Z" fill="url(#g6)" clip-path="url(#ca)"/>
<path d="M 72.0,222.6 L 76.7,222.6 L 81.5,222.3 L 86.2,221.4 L 91.0,221.7 L 95.7,221.7 L 100.5,220.5 L 105.2,219.6 L 110.0,219.6 L 114.7,219.9 L 119.5,219.6 L 124.2,219.3 L 129.0,219.1 L 133.7,219.1 L 138.5,219.1 L 143.2,219.3 L 148.0,218.8 L 152.7,218.2 L 157.5,216.4 L 162.2,215.2 L 167.0,215.2 L 171.7,214.9 L 176.5,213.2 L 181.2,210.5 L 186.0,209.6 L 190.7,209.0 L 195.5,207.0 L 200.2,205.5 L 205.0,204.9 L 209.7,204.3 L 214.4,203.7 L 219.2,203.4 L 223.9,203.4 L 228.7,201.3 L 233.4,200.8 L 238.2,200.2 L 242.9,200.2 L 247.7,198.7 L 252.4,198.4 L 257.2,197.5 L 261.9,196.3 L 266.7,194.9 L 271.4,192.8 L 276.2,190.7 L 280.9,190.4 L 285.7,189.8 L 290.4,189.3 L 295.2,187.5 L 299.9,187.5 L 304.7,186.9 L 309.4,186.0 L 314.2,185.4 L 318.9,184.2 L 323.7,184.5 L 328.4,181.0 L 333.2,180.7 L 337.9,180.4 L 342.7,179.8 L 347.4,178.0 L 352.1,178.0 L 356.9,176.3 L 361.6,174.2 L 366.4,174.2 L 371.1,174.2 L 375.9,173.9 L 380.6,173.6 L 385.4,173.3 L 390.1,171.9 L 394.9,170.1 L 399.6,169.5 L 404.4,168.3 L 409.1,168.3 L 413.9,167.4 L 418.6,165.7 L 423.4,164.8 L 428.1,164.5 L 432.9,162.4 L 437.6,162.1 L 442.4,162.1 L 447.1,161.8 L 451.9,161.8 L 456.6,160.3 L 461.4,159.8 L 466.1,158.9 L 470.9,158.6 L 475.6,158.0 L 480.4,155.6 L 485.1,152.4 L 489.9,152.1 L 494.6,151.5 L 499.3,151.2 L 504.1,149.7 L 508.8,118.5 L 513.6,117.9 L 518.3,116.4 L 523.1,116.4 L 527.8,116.4 L 532.6,116.7 L 537.3,116.4 L 542.1,114.6 L 546.8,114.0 L 551.6,113.7 L 556.3,113.4 L 561.1,112.3 L 565.8,110.5 L 570.6,110.5 L 575.3,110.5 L 580.1,110.2 L 584.8,109.9 L 589.6,109.9 L 594.3,109.3 L 599.1,108.4 L 603.8,106.9 L 608.6,106.4 L 613.3,106.1 L 618.1,106.1 L 622.8,105.8 L 627.6,105.2 L 632.3,104.9 L 637.0,103.4 L 641.8,103.4 L 646.5,102.8 L 651.3,101.6 L 656.0,100.2 L 660.8,99.9 L 665.5,99.6 L 670.3,96.9 L 675.0,96.3 L 679.8,95.7 L 684.5,95.7 L 689.3,94.6 L 694.0,94.0 L 698.8,92.5 L 703.5,91.9 L 708.3,91.0 L 713.0,90.7 L 717.8,89.5 L 722.5,88.7 L 727.3,88.4 L 732.0,87.8 L 736.8,86.6 L 741.5,86.0 L 746.3,85.1 L 751.0,84.5 L 755.8,84.2 L 760.5,83.6 L 765.3,82.8 L 770.0,82.2" fill="none" stroke="#4F8EF7" stroke-width="2.5" stroke-linejoin="round" clip-path="url(#ca)"/>
<path d="M 72.0,340 L 72.0,338.2 L 76.7,337.9 L 81.5,337.9 L 86.2,337.6 L 91.0,337.6 L 95.7,337.6 L 100.5,337.6 L 105.2,337.6 L 110.0,337.1 L 114.7,337.1 L 119.5,337.1 L 124.2,337.1 L 129.0,337.1 L 133.7,336.8 L 138.5,336.8 L 143.2,336.8 L 148.0,336.8 L 152.7,336.8 L 157.5,336.5 L 162.2,335.9 L 167.0,335.6 L 171.7,335.6 L 176.5,335.6 L 181.2,335.3 L 186.0,335.3 L 190.7,335.3 L 195.5,335.0 L 200.2,335.0 L 205.0,335.0 L 209.7,334.7 L 214.4,334.7 L 219.2,334.7 L 223.9,334.7 L 228.7,334.4 L 233.4,334.4 L 238.2,334.4 L 242.9,334.4 L 247.7,334.4 L 252.4,334.4 L 257.2,334.4 L 261.9,334.4 L 266.7,334.4 L 271.4,334.4 L 276.2,334.4 L 280.9,334.4 L 285.7,334.4 L 290.4,334.1 L 295.2,334.1 L 299.9,334.1 L 304.7,334.1 L 309.4,334.1 L 314.2,334.1 L 318.9,334.1 L 323.7,334.1 L 328.4,334.1 L 333.2,334.1 L 337.9,334.1 L 342.7,334.1 L 347.4,333.8 L 352.1,333.8 L 356.9,333.8 L 361.6,333.8 L 366.4,333.8 L 371.1,333.8 L 375.9,333.8 L 380.6,333.8 L 385.4,333.8 L 390.1,333.8 L 394.9,333.8 L 399.6,333.8 L 404.4,333.8 L 409.1,333.8 L 413.9,333.8 L 418.6,333.8 L 423.4,333.8 L 428.1,333.8 L 432.9,333.8 L 437.6,333.8 L 442.4,333.8 L 447.1,333.8 L 451.9,333.8 L 456.6,333.8 L 461.4,333.8 L 466.1,333.8 L 470.9,333.8 L 475.6,333.8 L 480.4,333.8 L 485.1,333.8 L 489.9,333.8 L 494.6,333.8 L 499.3,333.8 L 504.1,333.8 L 508.8,333.8 L 513.6,333.8 L 518.3,333.5 L 523.1,333.5 L 527.8,333.5 L 532.6,333.5 L 537.3,333.5 L 542.1,333.2 L 546.8,333.2 L 551.6,333.2 L 556.3,333.2 L 561.1,332.9 L 565.8,332.9 L 570.6,332.6 L 575.3,332.6 L 580.1,332.6 L 584.8,332.6 L 589.6,332.6 L 594.3,332.6 L 599.1,332.6 L 603.8,332.6 L 608.6,332.6 L 613.3,332.6 L 618.1,332.6 L 622.8,332.6 L 627.6,332.6 L 632.3,332.6 L 637.0,332.6 L 641.8,332.6 L 646.5,332.6 L 651.3,332.6 L 656.0,332.6 L 660.8,332.6 L 665.5,332.6 L 670.3,332.6 L 675.0,332.6 L 679.8,332.6 L 684.5,332.6 L 689.3,332.6 L 694.0,332.6 L 698.8,332.6 L 703.5,332.6 L 708.3,332.6 L 713.0,332.6 L 717.8,332.6 L 722.5,332.6 L 727.3,332.6 L 732.0,332.6 L 736.8,332.6 L 741.5,332.6 L 746.3,332.6 L 751.0,332.6 L 755.8,332.6 L 760.5,332.6 L 765.3,332.6 L 770.0,332.6 L 770.0,340 Z" fill="url(#g7)" clip-path="url(#ca)"/>
<path d="M 72.0,338.2 L 76.7,337.9 L 81.5,337.9 L 86.2,337.6 L 91.0,337.6 L 95.7,337.6 L 100.5,337.6 L 105.2,337.6 L 110.0,337.1 L 114.7,337.1 L 119.5,337.1 L 124.2,337.1 L 129.0,337.1 L 133.7,336.8 L 138.5,336.8 L 143.2,336.8 L 148.0,336.8 L 152.7,336.8 L 157.5,336.5 L 162.2,335.9 L 167.0,335.6 L 171.7,335.6 L 176.5,335.6 L 181.2,335.3 L 186.0,335.3 L 190.7,335.3 L 195.5,335.0 L 200.2,335.0 L 205.0,335.0 L 209.7,334.7 L 214.4,334.7 L 219.2,334.7 L 223.9,334.7 L 228.7,334.4 L 233.4,334.4 L 238.2,334.4 L 242.9,334.4 L 247.7,334.4 L 252.4,334.4 L 257.2,334.4 L 261.9,334.4 L 266.7,334.4 L 271.4,334.4 L 276.2,334.4 L 280.9,334.4 L 285.7,334.4 L 290.4,334.1 L 295.2,334.1 L 299.9,334.1 L 304.7,334.1 L 309.4,334.1 L 314.2,334.1 L 318.9,334.1 L 323.7,334.1 L 328.4,334.1 L 333.2,334.1 L 337.9,334.1 L 342.7,334.1 L 347.4,333.8 L 352.1,333.8 L 356.9,333.8 L 361.6,333.8 L 366.4,333.8 L 371.1,333.8 L 375.9,333.8 L 380.6,333.8 L 385.4,333.8 L 390.1,333.8 L 394.9,333.8 L 399.6,333.8 L 404.4,333.8 L 409.1,333.8 L 413.9,333.8 L 418.6,333.8 L 423.4,333.8 L 428.1,333.8 L 432.9,333.8 L 437.6,333.8 L 442.4,333.8 L 447.1,333.8 L 451.9,333.8 L 456.6,333.8 L 461.4,333.8 L 466.1,333.8 L 470.9,333.8 L 475.6,333.8 L 480.4,333.8 L 485.1,333.8 L 489.9,333.8 L 494.6,333.8 L 499.3,333.8 L 504.1,333.8 L 508.8,333.8 L 513.6,333.8 L 518.3,333.5 L 523.1,333.5 L 527.8,333.5 L 532.6,333.5 L 537.3,333.5 L 542.1,333.2 L 546.8,333.2 L 551.6,333.2 L 556.3,333.2 L 561.1,332.9 L 565.8,332.9 L 570.6,332.6 L 575.3,332.6 L 580.1,332.6 L 584.8,332.6 L 589.6,332.6 L 594.3,332.6 L 599.1,332.6 L 603.8,332.6 L 608.6,332.6 L 613.3,332.6 L 618.1,332.6 L 622.8,332.6 L 627.6,332.6 L 632.3,332.6 L 637.0,332.6 L 641.8,332.6 L 646.5,332.6 L 651.3,332.6 L 656.0,332.6 L 660.8,332.6 L 665.5,332.6 L 670.3,332.6 L 675.0,332.6 L 679.8,332.6 L 684.5,332.6 L 689.3,332.6 L 694.0,332.6 L 698.8,332.6 L 703.5,332.6 L 708.3,332.6 L 713.0,332.6 L 717.8,332.6 L 722.5,332.6 L 727.3,332.6 L 732.0,332.6 L 736.8,332.6 L 741.5,332.6 L 746.3,332.6 L 751.0,332.6 L 755.8,332.6 L 760.5,332.6 L 765.3,332.6 L 770.0,332.6" fill="none" stroke="#FF6363" stroke-width="2.5" stroke-linejoin="round" clip-path="url(#ca)"/>
<text x="98.1" y="55.0" text-anchor="middle" font-size="9" fill="#34C759" opacity="0.85" clip-path="url(#ca)">+15.2% (+50)</text>
<text x="98.1" y="66.0" text-anchor="middle" font-size="9" fill="#4F8EF7" opacity="0.85" clip-path="url(#ca)">+2.8% (+11)</text>
<text x="98.1" y="77.0" text-anchor="middle" font-size="9" fill="#FF6363" opacity="0.85" clip-path="url(#ca)">+66.7% (+4)</text>
<text x="188.3" y="55.0" text-anchor="middle" font-size="9" fill="#34C759" opacity="0.85" clip-path="url(#ca)">+20.1% (+77)</text>
<text x="188.3" y="66.0" text-anchor="middle" font-size="9" fill="#4F8EF7" opacity="0.85" clip-path="url(#ca)">+16.8% (+69)</text>
<text x="188.3" y="77.0" text-anchor="middle" font-size="9" fill="#FF6363" opacity="0.85" clip-path="url(#ca)">+90.0% (+9)</text>
<text x="314.2" y="55.0" text-anchor="middle" font-size="9" fill="#34C759" opacity="0.85" clip-path="url(#ca)">+16.1% (+74)</text>
<text x="314.2" y="66.0" text-anchor="middle" font-size="9" fill="#4F8EF7" opacity="0.85" clip-path="url(#ca)">+17.3% (+83)</text>
<text x="314.2" y="77.0" text-anchor="middle" font-size="9" fill="#FF6363" opacity="0.85" clip-path="url(#ca)">+10.5% (+2)</text>
<text x="442.4" y="55.0" text-anchor="middle" font-size="9" fill="#34C759" opacity="0.85" clip-path="url(#ca)">+10.5% (+56)</text>
<text x="442.4" y="66.0" text-anchor="middle" font-size="9" fill="#4F8EF7" opacity="0.85" clip-path="url(#ca)">+14.4% (+81)</text>
<text x="442.4" y="77.0" text-anchor="middle" font-size="9" fill="#FF6363" opacity="0.85" clip-path="url(#ca)">+0.0% (+0)</text>
<text x="570.6" y="55.0" text-anchor="middle" font-size="9" fill="#34C759" opacity="0.85" clip-path="url(#ca)">+6.2% (+37)</text>
<text x="570.6" y="66.0" text-anchor="middle" font-size="9" fill="#4F8EF7" opacity="0.85" clip-path="url(#ca)">+6.1% (+46)</text>
<text x="570.6" y="77.0" text-anchor="middle" font-size="9" fill="#FF6363" opacity="0.85" clip-path="url(#ca)">+19.0% (+4)</text>
<text x="696.4" y="55.0" text-anchor="middle" font-size="9" fill="#34C759" opacity="0.85" clip-path="url(#ca)">+8.1% (+51)</text>
<text x="696.4" y="66.0" text-anchor="middle" font-size="9" fill="#4F8EF7" opacity="0.85" clip-path="url(#ca)">+8.1% (+65)</text>
<text x="696.4" y="77.0" text-anchor="middle" font-size="9" fill="#FF6363" opacity="0.85" clip-path="url(#ca)">+0.0% (+0)</text>
<text x="765.3" y="55.0" text-anchor="middle" font-size="9" fill="#34C759" opacity="0.85" clip-path="url(#ca)">+0.4% (+3)</text>
<text x="765.3" y="66.0" text-anchor="middle" font-size="9" fill="#4F8EF7" opacity="0.85" clip-path="url(#ca)">+0.6% (+5)</text>
<text x="765.3" y="77.0" text-anchor="middle" font-size="9" fill="#FF6363" opacity="0.85" clip-path="url(#ca)">+0.0% (+0)</text>
<rect x="211" y="369" width="12" height="12" fill="#34C759" rx="2"/>
<text x="227" y="379" font-size="12" fill="#111827">macOS + Windows</text>
<rect x="351" y="369" width="12" height="12" fill="#4F8EF7" rx="2"/>
<text x="367" y="379" font-size="12" fill="#111827">macOS only</text>
<rect x="491" y="369" width="12" height="12" fill="#FF6363" rx="2"/>
<text x="507" y="379" font-size="12" fill="#111827">Windows only</text>
<text x="72" y="394" font-size="8" fill="#e5e7eb">data since Dec 11, 2025</text>
</svg>