<svg xmlns="http://www.w3.org/2000/svg" width="800" height="400" viewBox="0 0 800 400">
<defs>
  <style>text { font-family: -apple-system, BlinkMacSystemFont, 'Segoe UI', Roboto, sans-serif; }</style>
  <linearGradient id="g2" x1="0" y1="0" x2="0" y2="1">
  <stop offset="0%" stop-color="#4F8EF7" stop-opacity="0.25"/>
  <stop offset="100%" stop-color="#4F8EF7" stop-opacity="0"/>
</linearGradient>
<linearGradient id="g3" x1="0" y1="0" x2="0" y2="1">
  <stop offset="0%" stop-color="#BF5AF2" stop-opacity="0.25"/>
  <stop offset="100%" stop-color="#BF5AF2" stop-opacity="0"/>
</linearGradient>
<linearGradient id="g4" x1="0" y1="0" x2="0" y2="1">
  <stop offset="0%" stop-color="#34C759" stop-opacity="0.25"/>
  <stop offset="100%" stop-color="#34C759" stop-opacity="0"/>
</linearGradient>
  <clipPath id="ca"><rect x="72" y="45" width="698" height="295"/></clipPath>
</defs>
<rect width="800" height="400" fill="#ffffff" rx="12"/>
<text x="400" y="26" text-anchor="middle" font-size="15" font-weight="600" fill="#111827">Community Growth Over Time</text>
<line x1="72" y1="340.0" x2="770" y2="340.0" stroke="#f3f4f6" stroke-width="1"/>
<text x="66" y="344.0" text-anchor="end" font-size="11" fill="#6b7280">500</text>
<line x1="72" y1="241.7" x2="770" y2="241.7" stroke="#f3f4f6" stroke-width="1"/>
<text x="66" y="245.7" text-anchor="end" font-size="11" fill="#6b7280">1.0k</text>
<line x1="72" y1="143.3" x2="770" y2="143.3" stroke="#f3f4f6" stroke-width="1"/>
<text x="66" y="147.3" text-anchor="end" font-size="11" fill="#6b7280">1.5k</text>
<line x1="72" y1="45.0" x2="770" y2="45.0" stroke="#f3f4f6" stroke-width="1"/>
<text x="66" y="49.0" text-anchor="end" font-size="11" fill="#6b7280">2.0k</text>
<line x1="132.3" y1="45" x2="132.3" y2="340" stroke="#e5e7eb" stroke-width="1" stroke-dasharray="3,3" clip-path="url(#ca)"/>
<line x1="262.8" y1="45" x2="262.8" y2="340" stroke="#e5e7eb" stroke-width="1" stroke-dasharray="3,3" clip-path="url(#ca)"/>
<line x1="398.4" y1="45" x2="398.4" y2="340" stroke="#e5e7eb" stroke-width="1" stroke-dasharray="3,3" clip-path="url(#ca)"/>
<line x1="534.0" y1="45" x2="534.0" y2="340" stroke="#e5e7eb" stroke-width="1" stroke-dasharray="3,3" clip-path="url(#ca)"/>
<line x1="669.6" y1="45" x2="669.6" y2="340" stroke="#e5e7eb" stroke-width="1" stroke-dasharray="3,3" clip-path="url(#ca)"/>
<text x="72.0" y="358.0" text-anchor="middle" font-size="11" fill="#6b7280">Dec 11</text>
<text x="212.6" y="358.0" text-anchor="middle" font-size="11" fill="#6b7280">Jan 22</text>
<text x="353.2" y="358.0" text-anchor="middle" font-size="11" fill="#6b7280">Feb 19</text>
<text x="488.8" y="358.0" text-anchor="middle" font-size="11" fill="#6b7280">Mar 20</text>
<text x="629.4" y="358.0" text-anchor="middle" font-size="11" fill="#6b7280">Apr 22</text>
<text x="770.0" y="358.0" text-anchor="middle" font-size="11" fill="#6b7280">May 26</text>
<line x1="72" y1="45" x2="72" y2="340" stroke="#e5e7eb" stroke-width="1"/>
<line x1="72" y1="340" x2="770" y2="340" stroke="#e5e7eb" stroke-width="1"/>
<text x="-192.5" y="18" text-anchor="middle" font-size="12" fill="#6b7280" transform="rotate(-90)">People</text>
<path d="M 72.0,340 L 72.0,120.1 L 77.0,120.1 L 82.0,120.1 L 87.1,119.5 L 92.1,119.5 L 97.1,119.1 L 102.1,118.9 L 107.2,119.1 L 112.2,118.6 L 117.2,118.6 L 122.2,118.6 L 127.2,118.6 L 132.3,118.6 L 137.3,118.6 L 142.3,118.6 L 147.3,118.6 L 152.3,118.4 L 157.4,117.8 L 162.4,116.6 L 167.4,116.0 L 172.4,115.8 L 177.5,115.8 L 182.5,115.2 L 187.5,113.8 L 192.5,113.0 L 197.5,113.0 L 202.6,112.1 L 207.6,111.7 L 212.6,110.9 L 217.6,110.3 L 222.6,109.7 L 227.7,109.1 L 232.7,109.1 L 237.7,107.7 L 242.7,106.9 L 247.8,106.9 L 252.8,106.2 L 257.8,105.8 L 262.8,105.6 L 267.8,105.4 L 272.9,105.4 L 277.9,104.8 L 282.9,102.4 L 287.9,101.0 L 292.9,100.3 L 298.0,100.1 L 303.0,99.7 L 308.0,98.9 L 313.0,98.5 L 318.1,98.1 L 323.1,97.7 L 328.1,97.3 L 333.1,96.9 L 338.1,96.9 L 343.2,95.0 L 348.2,95.0 L 353.2,94.8 L 358.2,94.6 L 363.3,94.2 L 368.3,94.2 L 373.3,93.2 L 378.3,92.0 L 383.3,91.6 L 388.4,92.0 L 393.4,91.8 L 398.4,91.6 L 403.4,91.6 L 408.4,91.2 L 413.5,90.4 L 418.5,90.0 L 423.5,89.6 L 428.5,89.4 L 433.6,89.4 L 438.6,88.7 L 443.6,88.3 L 448.6,88.3 L 453.6,86.7 L 458.7,86.7 L 463.7,86.7 L 468.7,86.7 L 473.7,86.5 L 478.7,85.9 L 483.8,85.1 L 488.8,84.7 L 493.8,84.7 L 498.8,84.3 L 503.9,82.8 L 508.9,81.8 L 513.9,81.6 L 518.9,81.4 L 523.9,80.8 L 529.0,79.6 L 534.0,79.2 L 539.0,78.8 L 544.0,77.6 L 549.1,77.4 L 554.1,77.4 L 559.1,77.4 L 564.1,77.3 L 569.1,76.1 L 574.2,75.9 L 579.2,75.7 L 584.2,75.7 L 589.2,75.3 L 594.2,73.7 L 599.3,73.5 L 604.3,73.3 L 609.3,73.3 L 614.3,72.5 L 619.4,72.3 L 624.4,72.1 L 629.4,71.6 L 634.4,70.8 L 639.4,70.8 L 644.5,70.8 L 649.5,70.8 L 654.5,70.4 L 659.5,69.8 L 664.5,69.6 L 669.6,69.0 L 674.6,68.8 L 679.6,68.6 L 684.6,67.8 L 689.7,67.2 L 694.7,67.0 L 699.7,67.0 L 704.7,65.3 L 709.7,64.7 L 714.8,64.5 L 719.8,64.5 L 724.8,63.5 L 729.8,63.5 L 734.8,62.9 L 739.9,62.3 L 744.9,60.9 L 749.9,60.7 L 754.9,60.5 L 760.0,60.3 L 765.0,60.3 L 770.0,60.1 L 770.0,340 Z" fill="url(#g2)" clip-path="url(#ca)"/>
<path d="M 72.0,120.1 L 77.0,120.1 L 82.0,120.1 L 87.1,119.5 L 92.1,119.5 L 97.1,119.1 L 102.1,118.9 L 107.2,119.1 L 112.2,118.6 L 117.2,118.6 L 122.2,118.6 L 127.2,118.6 L 132.3,118.6 L 137.3,118.6 L 142.3,118.6 L 147.3,118.6 L 152.3,118.4 L 157.4,117.8 L 162.4,116.6 L 167.4,116.0 L 172.4,115.8 L 177.5,115.8 L 182.5,115.2 L 187.5,113.8 L 192.5,113.0 L 197.5,113.0 L 202.6,112.1 L 207.6,111.7 L 212.6,110.9 L 217.6,110.3 L 222.6,109.7 L 227.7,109.1 L 232.7,109.1 L 237.7,107.7 L 242.7,106.9 L 247.8,106.9 L 252.8,106.2 L 257.8,105.8 L 262.8,105.6 L 267.8,105.4 L 272.9,105.4 L 277.9,104.8 L 282.9,102.4 L 287.9,101.0 L 292.9,100.3 L 298.0,100.1 L 303.0,99.7 L 308.0,98.9 L 313.0,98.5 L 318.1,98.1 L 323.1,97.7 L 328.1,97.3 L 333.1,96.9 L 338.1,96.9 L 343.2,95.0 L 348.2,95.0 L 353.2,94.8 L 358.2,94.6 L 363.3,94.2 L 368.3,94.2 L 373.3,93.2 L 378.3,92.0 L 383.3,91.6 L 388.4,92.0 L 393.4,91.8 L 398.4,91.6 L 403.4,91.6 L 408.4,91.2 L 413.5,90.4 L 418.5,90.0 L 423.5,89.6 L 428.5,89.4 L 433.6,89.4 L 438.6,88.7 L 443.6,88.3 L 448.6,88.3 L 453.6,86.7 L 458.7,86.7 L 463.7,86.7 L 468.7,86.7 L 473.7,86.5 L 478.7,85.9 L 483.8,85.1 L 488.8,84.7 L 493.8,84.7 L 498.8,84.3 L 503.9,82.8 L 508.9,81.8 L 513.9,81.6 L 518.9,81.4 L 523.9,80.8 L 529.0,79.6 L 534.0,79.2 L 539.0,78.8 L 544.0,77.6 L 549.1,77.4 L 554.1,77.4 L 559.1,77.4 L 564.1,77.3 L 569.1,76.1 L 574.2,75.9 L 579.2,75.7 L 584.2,75.7 L 589.2,75.3 L 594.2,73.7 L 599.3,73.5 L 604.3,73.3 L 609.3,73.3 L 614.3,72.5 L 619.4,72.3 L 624.4,72.1 L 629.4,71.6 L 634.4,70.8 L 639.4,70.8 L 644.5,70.8 L 649.5,70.8 L 654.5,70.4 L 659.5,69.8 L 664.5,69.6 L 669.6,69.0 L 674.6,68.8 L 679.6,68.6 L 684.6,67.8 L 689.7,67.2 L 694.7,67.0 L 699.7,67.0 L 704.7,65.3 L 709.7,64.7 L 714.8,64.5 L 719.8,64.5 L 724.8,63.5 L 729.8,63.5 L 734.8,62.9 L 739.9,62.3 L 744.9,60.9 L 749.9,60.7 L 754.9,60.5 L 760.0,60.3 L 765.0,60.3 L 770.0,60.1" fill="none" stroke="#4F8EF7" stroke-width="2.5" stroke-linejoin="round" clip-path="url(#ca)"/>
<path d="M 72.0,340 L 72.0,244.2 L 77.0,243.6 L 82.0,243.6 L 87.1,243.6 L 92.1,243.4 L 97.1,243.0 L 102.1,242.8 L 107.2,242.6 L 112.2,242.6 L 117.2,242.5 L 122.2,242.3 L 127.2,242.3 L 132.3,242.3 L 137.3,242.3 L 142.3,242.3 L 147.3,242.3 L 152.3,241.9 L 157.4,241.9 L 162.4,241.9 L 167.4,241.1 L 172.4,240.9 L 177.5,240.5 L 182.5,239.7 L 187.5,239.5 L 192.5,239.5 L 197.5,239.5 L 202.6,238.9 L 207.6,238.5 L 212.6,238.5 L 217.6,238.1 L 222.6,237.9 L 227.7,237.5 L 232.7,237.5 L 237.7,237.3 L 242.7,236.6 L 247.8,236.0 L 252.8,235.6 L 257.8,235.4 L 262.8,235.4 L 267.8,235.2 L 272.9,234.8 L 277.9,234.8 L 282.9,234.6 L 287.9,234.0 L 292.9,233.6 L 298.0,233.6 L 303.0,233.6 L 308.0,233.6 L 313.0,233.4 L 318.1,232.8 L 323.1,232.4 L 328.1,232.2 L 333.1,232.0 L 338.1,231.8 L 343.2,231.6 L 348.2,231.4 L 353.2,231.2 L 358.2,230.7 L 363.3,230.5 L 368.3,230.3 L 373.3,229.5 L 378.3,228.7 L 383.3,228.7 L 388.4,228.5 L 393.4,228.3 L 398.4,228.3 L 403.4,228.3 L 408.4,227.9 L 413.5,227.9 L 418.5,226.7 L 423.5,226.5 L 428.5,226.3 L 433.6,226.3 L 438.6,225.9 L 443.6,225.7 L 448.6,225.7 L 453.6,225.5 L 458.7,225.5 L 463.7,225.5 L 468.7,225.1 L 473.7,224.9 L 478.7,224.0 L 483.8,224.2 L 488.8,224.0 L 493.8,223.8 L 498.8,223.8 L 503.9,223.6 L 508.9,223.0 L 513.9,223.0 L 518.9,223.0 L 523.9,223.0 L 529.0,222.6 L 534.0,222.6 L 539.0,222.2 L 544.0,221.8 L 549.1,221.0 L 554.1,221.0 L 559.1,220.6 L 564.1,220.4 L 569.1,220.2 L 574.2,220.0 L 579.2,219.6 L 584.2,219.6 L 589.2,219.1 L 594.2,219.1 L 599.3,218.9 L 604.3,218.5 L 609.3,218.3 L 614.3,218.3 L 619.4,218.3 L 624.4,218.3 L 629.4,218.3 L 634.4,217.7 L 639.4,217.7 L 644.5,217.3 L 649.5,216.9 L 654.5,216.3 L 659.5,216.1 L 664.5,216.1 L 669.6,214.9 L 674.6,214.7 L 679.6,214.7 L 684.6,213.9 L 689.7,213.9 L 694.7,213.5 L 699.7,213.5 L 704.7,213.3 L 709.7,213.3 L 714.8,213.2 L 719.8,212.8 L 724.8,212.8 L 729.8,212.6 L 734.8,212.4 L 739.9,212.2 L 744.9,212.0 L 749.9,212.0 L 754.9,211.6 L 760.0,211.6 L 765.0,211.6 L 770.0,210.6 L 770.0,340 Z" fill="url(#g3)" clip-path="url(#ca)"/>
<path d="M 72.0,244.2 L 77.0,243.6 L 82.0,243.6 L 87.1,243.6 L 92.1,243.4 L 97.1,243.0 L 102.1,242.8 L 107.2,242.6 L 112.2,242.6 L 117.2,242.5 L 122.2,242.3 L 127.2,242.3 L 132.3,242.3 L 137.3,242.3 L 142.3,242.3 L 147.3,242.3 L 152.3,241.9 L 157.4,241.9 L 162.4,241.9 L 167.4,241.1 L 172.4,240.9 L 177.5,240.5 L 182.5,239.7 L 187.5,239.5 L 192.5,239.5 L 197.5,239.5 L 202.6,238.9 L 207.6,238.5 L 212.6,238.5 L 217.6,238.1 L 222.6,237.9 L 227.7,237.5 L 232.7,237.5 L 237.7,237.3 L 242.7,236.6 L 247.8,236.0 L 252.8,235.6 L 257.8,235.4 L 262.8,235.4 L 267.8,235.2 L 272.9,234.8 L 277.9,234.8 L 282.9,234.6 L 287.9,234.0 L 292.9,233.6 L 298.0,233.6 L 303.0,233.6 L 308.0,233.6 L 313.0,233.4 L 318.1,232.8 L 323.1,232.4 L 328.1,232.2 L 333.1,232.0 L 338.1,231.8 L 343.2,231.6 L 348.2,231.4 L 353.2,231.2 L 358.2,230.7 L 363.3,230.5 L 368.3,230.3 L 373.3,229.5 L 378.3,228.7 L 383.3,228.7 L 388.4,228.5 L 393.4,228.3 L 398.4,228.3 L 403.4,228.3 L 408.4,227.9 L 413.5,227.9 L 418.5,226.7 L 423.5,226.5 L 428.5,226.3 L 433.6,226.3 L 438.6,225.9 L 443.6,225.7 L 448.6,225.7 L 453.6,225.5 L 458.7,225.5 L 463.7,225.5 L 468.7,225.1 L 473.7,224.9 L 478.7,224.0 L 483.8,224.2 L 488.8,224.0 L 493.8,223.8 L 498.8,223.8 L 503.9,223.6 L 508.9,223.0 L 513.9,223.0 L 518.9,223.0 L 523.9,223.0 L 529.0,222.6 L 534.0,222.6 L 539.0,222.2 L 544.0,221.8 L 549.1,221.0 L 554.1,221.0 L 559.1,220.6 L 564.1,220.4 L 569.1,220.2 L 574.2,220.0 L 579.2,219.6 L 584.2,219.6 L 589.2,219.1 L 594.2,219.1 L 599.3,218.9 L 604.3,218.5 L 609.3,218.3 L 614.3,218.3 L 619.4,218.3 L 624.4,218.3 L 629.4,218.3 L 634.4,217.7 L 639.4,217.7 L 644.5,217.3 L 649.5,216.9 L 654.5,216.3 L 659.5,216.1 L 664.5,216.1 L 669.6,214.9 L 674.6,214.7 L 679.6,214.7 L 684.6,213.9 L 689.7,213.9 L 694.7,213.5 L 699.7,213.5 L 704.7,213.3 L 709.7,213.3 L 714.8,213.2 L 719.8,212.8 L 724.8,212.8 L 729.8,212.6 L 734.8,212.4 L 739.9,212.2 L 744.9,212.0 L 749.9,212.0 L 754.9,211.6 L 760.0,211.6 L 765.0,211.6 L 770.0,210.6" fill="none" stroke="#BF5AF2" stroke-width="2.5" stroke-linejoin="round" clip-path="url(#ca)"/>
<path d="M 72.0,340 L 72.0,291.4 L 77.0,290.8 L 82.0,290.8 L 87.1,290.8 L 92.1,290.6 L 97.1,290.2 L 102.1,290.0 L 107.2,289.7 L 112.2,289.7 L 117.2,289.5 L 122.2,289.3 L 127.2,289.3 L 132.3,289.3 L 137.3,289.3 L 142.3,289.3 L 147.3,289.3 L 152.3,288.9 L 157.4,288.9 L 162.4,289.1 L 167.4,288.5 L 172.4,288.7 L 177.5,288.1 L 182.5,287.5 L 187.5,287.3 L 192.5,287.5 L 197.5,287.5 L 202.6,286.9 L 207.6,286.7 L 212.6,286.7 L 217.6,286.3 L 222.6,286.1 L 227.7,285.7 L 232.7,285.7 L 237.7,285.5 L 242.7,284.9 L 247.8,284.3 L 252.8,283.9 L 257.8,283.9 L 262.8,283.9 L 267.8,283.8 L 272.9,283.4 L 277.9,283.4 L 282.9,283.2 L 287.9,282.6 L 292.9,282.4 L 298.0,282.4 L 303.0,282.4 L 308.0,282.4 L 313.0,282.2 L 318.1,281.6 L 323.1,281.4 L 328.1,281.2 L 333.1,281.0 L 338.1,281.0 L 343.2,280.8 L 348.2,280.8 L 353.2,280.8 L 358.2,280.2 L 363.3,280.2 L 368.3,280.2 L 373.3,279.8 L 378.3,279.2 L 383.3,279.2 L 388.4,279.0 L 393.4,278.8 L 398.4,278.8 L 403.4,278.8 L 408.4,278.4 L 413.5,278.4 L 418.5,277.3 L 423.5,277.1 L 428.5,276.9 L 433.6,276.9 L 438.6,276.7 L 443.6,276.7 L 448.6,276.7 L 453.6,276.7 L 458.7,276.7 L 463.7,276.7 L 468.7,276.3 L 473.7,276.1 L 478.7,275.1 L 483.8,275.3 L 488.8,275.3 L 493.8,275.1 L 498.8,275.1 L 503.9,275.1 L 508.9,274.7 L 513.9,274.7 L 518.9,274.7 L 523.9,274.7 L 529.0,274.7 L 534.0,274.7 L 539.0,274.5 L 544.0,274.5 L 549.1,273.7 L 554.1,273.7 L 559.1,273.5 L 564.1,273.3 L 569.1,273.1 L 574.2,272.9 L 579.2,272.5 L 584.2,272.5 L 589.2,272.0 L 594.2,272.0 L 599.3,271.8 L 604.3,271.6 L 609.3,271.6 L 614.3,271.6 L 619.4,271.6 L 624.4,271.6 L 629.4,271.6 L 634.4,271.0 L 639.4,271.0 L 644.5,270.6 L 649.5,270.2 L 654.5,269.6 L 659.5,269.4 L 664.5,269.4 L 669.6,268.4 L 674.6,268.2 L 679.6,268.2 L 684.6,267.6 L 689.7,267.6 L 694.7,267.4 L 699.7,267.4 L 704.7,267.6 L 709.7,267.8 L 714.8,267.6 L 719.8,267.2 L 724.8,267.4 L 729.8,267.2 L 734.8,267.0 L 739.9,267.0 L 744.9,267.0 L 749.9,267.0 L 754.9,266.6 L 760.0,266.6 L 765.0,266.6 L 770.0,265.9 L 770.0,340 Z" fill="url(#g4)" clip-path="url(#ca)"/>
<path d="M 72.0,291.4 L 77.0,290.8 L 82.0,290.8 L 87.1,290.8 L 92.1,290.6 L 97.1,290.2 L 102.1,290.0 L 107.2,289.7 L 112.2,289.7 L 117.2,289.5 L 122.2,289.3 L 127.2,289.3 L 132.3,289.3 L 137.3,289.3 L 142.3,289.3 L 147.3,289.3 L 152.3,288.9 L 157.4,288.9 L 162.4,289.1 L 167.4,288.5 L 172.4,288.7 L 177.5,288.1 L 182.5,287.5 L 187.5,287.3 L 192.5,287.5 L 197.5,287.5 L 202.6,286.9 L 207.6,286.7 L 212.6,286.7 L 217.6,286.3 L 222.6,286.1 L 227.7,285.7 L 232.7,285.7 L 237.7,285.5 L 242.7,284.9 L 247.8,284.3 L 252.8,283.9 L 257.8,283.9 L 262.8,283.9 L 267.8,283.8 L 272.9,283.4 L 277.9,283.4 L 282.9,283.2 L 287.9,282.6 L 292.9,282.4 L 298.0,282.4 L 303.0,282.4 L 308.0,282.4 L 313.0,282.2 L 318.1,281.6 L 323.1,281.4 L 328.1,281.2 L 333.1,281.0 L 338.1,281.0 L 343.2,280.8 L 348.2,280.8 L 353.2,280.8 L 358.2,280.2 L 363.3,280.2 L 368.3,280.2 L 373.3,279.8 L 378.3,279.2 L 383.3,279.2 L 388.4,279.0 L 393.4,278.8 L 398.4,278.8 L 403.4,278.8 L 408.4,278.4 L 413.5,278.4 L 418.5,277.3 L 423.5,277.1 L 428.5,276.9 L 433.6,276.9 L 438.6,276.7 L 443.6,276.7 L 448.6,276.7 L 453.6,276.7 L 458.7,276.7 L 463.7,276.7 L 468.7,276.3 L 473.7,276.1 L 478.7,275.1 L 483.8,275.3 L 488.8,275.3 L 493.8,275.1 L 498.8,275.1 L 503.9,275.1 L 508.9,274.7 L 513.9,274.7 L 518.9,274.7 L 523.9,274.7 L 529.0,274.7 L 534.0,274.7 L 539.0,274.5 L 544.0,274.5 L 549.1,273.7 L 554.1,273.7 L 559.1,273.5 L 564.1,273.3 L 569.1,273.1 L 574.2,272.9 L 579.2,272.5 L 584.2,272.5 L 589.2,272.0 L 594.2,272.0 L 599.3,271.8 L 604.3,271.6 L 609.3,271.6 L 614.3,271.6 L 619.4,271.6 L 624.4,271.6 L 629.4,271.6 L 634.4,271.0 L 639.4,271.0 L 644.5,270.6 L 649.5,270.2 L 654.5,269.6 L 659.5,269.4 L 664.5,269.4 L 669.6,268.4 L 674.6,268.2 L 679.6,268.2 L 684.6,267.6 L 689.7,267.6 L 694.7,267.4 L 699.7,267.4 L 704.7,267.6 L 709.7,267.8 L 714.8,267.6 L 719.8,267.2 L 724.8,267.4 L 729.8,267.2 L 734.8,267.0 L 739.9,267.0 L 744.9,267.0 L 749.9,267.0 L 754.9,266.6 L 760.0,266.6 L 765.0,266.6 L 770.0,265.9" fill="none" stroke="#34C759" stroke-width="2.5" stroke-linejoin="round" clip-path="url(#ca)"/>
<text x="99.6" y="55.0" text-anchor="middle" font-size="9" fill="#4F8EF7" opacity="0.85" clip-path="url(#ca)">+0.5% (+8)</text>
<text x="99.6" y="66.0" text-anchor="middle" font-size="9" fill="#BF5AF2" opacity="0.85" clip-path="url(#ca)">+1.0% (+10)</text>
<text x="99.6" y="77.0" text-anchor="middle" font-size="9" fill="#34C759" opacity="0.85" clip-path="url(#ca)">+1.5% (+11)</text>
<text x="195.0" y="55.0" text-anchor="middle" font-size="9" fill="#4F8EF7" opacity="0.85" clip-path="url(#ca)">+4.0% (+65)</text>
<text x="195.0" y="66.0" text-anchor="middle" font-size="9" fill="#BF5AF2" opacity="0.85" clip-path="url(#ca)">+3.5% (+35)</text>
<text x="195.0" y="77.0" text-anchor="middle" font-size="9" fill="#34C759" opacity="0.85" clip-path="url(#ca)">+3.6% (+27)</text>
<text x="328.1" y="55.0" text-anchor="middle" font-size="9" fill="#4F8EF7" opacity="0.85" clip-path="url(#ca)">+4.1% (+70)</text>
<text x="328.1" y="66.0" text-anchor="middle" font-size="9" fill="#BF5AF2" opacity="0.85" clip-path="url(#ca)">+3.5% (+36)</text>
<text x="328.1" y="77.0" text-anchor="middle" font-size="9" fill="#34C759" opacity="0.85" clip-path="url(#ca)">+3.3% (+26)</text>
<text x="463.7" y="55.0" text-anchor="middle" font-size="9" fill="#4F8EF7" opacity="0.85" clip-path="url(#ca)">+3.5% (+61)</text>
<text x="463.7" y="66.0" text-anchor="middle" font-size="9" fill="#BF5AF2" opacity="0.85" clip-path="url(#ca)">+2.7% (+29)</text>
<text x="463.7" y="77.0" text-anchor="middle" font-size="9" fill="#34C759" opacity="0.85" clip-path="url(#ca)">+2.6% (+21)</text>
<text x="599.3" y="55.0" text-anchor="middle" font-size="9" fill="#4F8EF7" opacity="0.85" clip-path="url(#ca)">+2.7% (+49)</text>
<text x="599.3" y="66.0" text-anchor="middle" font-size="9" fill="#BF5AF2" opacity="0.85" clip-path="url(#ca)">+3.0% (+33)</text>
<text x="599.3" y="77.0" text-anchor="middle" font-size="9" fill="#34C759" opacity="0.85" clip-path="url(#ca)">+3.2% (+27)</text>
<text x="719.8" y="55.0" text-anchor="middle" font-size="9" fill="#4F8EF7" opacity="0.85" clip-path="url(#ca)">+2.4% (+45)</text>
<text x="719.8" y="66.0" text-anchor="middle" font-size="9" fill="#BF5AF2" opacity="0.85" clip-path="url(#ca)">+1.9% (+22)</text>
<text x="719.8" y="77.0" text-anchor="middle" font-size="9" fill="#34C759" opacity="0.85" clip-path="url(#ca)">+1.5% (+13)</text>
<rect x="211" y="369" width="12" height="12" fill="#4F8EF7" rx="2"/>
<text x="227" y="379" font-size="12" fill="#111827">Authors</text>
<rect x="351" y="369" width="12" height="12" fill="#BF5AF2" rx="2"/>
<text x="367" y="379" font-size="12" fill="#111827">Contributors</text>
<rect x="491" y="369" width="12" height="12" fill="#34C759" rx="2"/>
<text x="507" y="379" font-size="12" fill="#111827">Non-author contributors</text>
<text x="72" y="394" font-size="8" fill="#e5e7eb">data since Dec 11, 2025</text>
</svg>