<svg xmlns="http://www.w3.org/2000/svg" width="800" height="400" viewBox="0 0 800 400">
<defs>
  <style>text { font-family: -apple-system, BlinkMacSystemFont, 'Segoe UI', Roboto, sans-serif; }</style>
  <linearGradient id="g5" x1="0" y1="0" x2="0" y2="1">
  <stop offset="0%" stop-color="#34C759" stop-opacity="0.25"/>
  <stop offset="100%" stop-color="#34C759" stop-opacity="0"/>
</linearGradient>
<linearGradient id="g6" x1="0" y1="0" x2="0" y2="1">
  <stop offset="0%" stop-color="#4F8EF7" stop-opacity="0.25"/>
  <stop offset="100%" stop-color="#4F8EF7" stop-opacity="0"/>
</linearGradient>
<linearGradient id="g7" x1="0" y1="0" x2="0" y2="1">
  <stop offset="0%" stop-color="#FF6363" stop-opacity="0.25"/>
  <stop offset="100%" stop-color="#FF6363" stop-opacity="0"/>
</linearGradient>
  <clipPath id="ca"><rect x="72" y="45" width="698" height="295"/></clipPath>
</defs>
<rect width="800" height="400" fill="#ffffff" rx="12"/>
<text x="400" y="26" text-anchor="middle" font-size="15" font-weight="600" fill="#111827">Platform Support Over Time</text>
<line x1="72" y1="340.0" x2="770" y2="340.0" stroke="#f3f4f6" stroke-width="1"/>
<text x="66" y="344.0" text-anchor="end" font-size="11" fill="#6b7280">0</text>
<line x1="72" y1="281.0" x2="770" y2="281.0" stroke="#f3f4f6" stroke-width="1"/>
<text x="66" y="285.0" text-anchor="end" font-size="11" fill="#6b7280">200</text>
<line x1="72" y1="222.0" x2="770" y2="222.0" stroke="#f3f4f6" stroke-width="1"/>
<text x="66" y="226.0" text-anchor="end" font-size="11" fill="#6b7280">400</text>
<line x1="72" y1="163.0" x2="770" y2="163.0" stroke="#f3f4f6" stroke-width="1"/>
<text x="66" y="167.0" text-anchor="end" font-size="11" fill="#6b7280">600</text>
<line x1="72" y1="104.0" x2="770" y2="104.0" stroke="#f3f4f6" stroke-width="1"/>
<text x="66" y="108.0" text-anchor="end" font-size="11" fill="#6b7280">800</text>
<line x1="72" y1="45.0" x2="770" y2="45.0" stroke="#f3f4f6" stroke-width="1"/>
<text x="66" y="49.0" text-anchor="end" font-size="11" fill="#6b7280">1.0k</text>
<line x1="117.0" y1="45" x2="117.0" y2="340" stroke="#e5e7eb" stroke-width="1" stroke-dasharray="3,3" clip-path="url(#ca)"/>
<line x1="214.6" y1="45" x2="214.6" y2="340" stroke="#e5e7eb" stroke-width="1" stroke-dasharray="3,3" clip-path="url(#ca)"/>
<line x1="315.9" y1="45" x2="315.9" y2="340" stroke="#e5e7eb" stroke-width="1" stroke-dasharray="3,3" clip-path="url(#ca)"/>
<line x1="417.2" y1="45" x2="417.2" y2="340" stroke="#e5e7eb" stroke-width="1" stroke-dasharray="3,3" clip-path="url(#ca)"/>
<line x1="518.6" y1="45" x2="518.6" y2="340" stroke="#e5e7eb" stroke-width="1" stroke-dasharray="3,3" clip-path="url(#ca)"/>
<line x1="616.1" y1="45" x2="616.1" y2="340" stroke="#e5e7eb" stroke-width="1" stroke-dasharray="3,3" clip-path="url(#ca)"/>
<line x1="706.2" y1="45" x2="706.2" y2="340" stroke="#e5e7eb" stroke-width="1" stroke-dasharray="3,3" clip-path="url(#ca)"/>
<text x="72.0" y="358.0" text-anchor="middle" font-size="11" fill="#6b7280">Dec 11</text>
<text x="210.8" y="358.0" text-anchor="middle" font-size="11" fill="#6b7280">Jan 31</text>
<text x="349.7" y="358.0" text-anchor="middle" font-size="11" fill="#6b7280">Mar 11</text>
<text x="492.3" y="358.0" text-anchor="middle" font-size="11" fill="#6b7280">Apr 23</text>
<text x="631.2" y="358.0" text-anchor="middle" font-size="11" fill="#6b7280">Jun 6</text>
<text x="770.0" y="358.0" text-anchor="middle" font-size="11" fill="#6b7280">Jul 21</text>
<line x1="72" y1="45" x2="72" y2="340" stroke="#e5e7eb" stroke-width="1"/>
<line x1="72" y1="340" x2="770" y2="340" stroke="#e5e7eb" stroke-width="1"/>
<text x="-192.5" y="18" text-anchor="middle" font-size="12" fill="#6b7280" transform="rotate(-90)">Extensions</text>
<path d="M 72.0,340 L 72.0,242.6 L 75.8,240.0 L 79.5,239.7 L 83.3,238.5 L 87.0,237.9 L 90.8,235.0 L 94.5,233.2 L 98.3,232.3 L 102.0,230.8 L 105.8,229.1 L 109.5,228.2 L 113.3,227.9 L 117.0,227.0 L 120.8,226.4 L 124.5,226.1 L 128.3,225.2 L 132.0,224.4 L 135.8,223.5 L 139.5,222.6 L 143.3,221.4 L 147.1,220.5 L 150.8,219.6 L 154.6,218.8 L 158.3,217.0 L 162.1,216.4 L 165.8,216.4 L 169.6,214.3 L 173.3,213.7 L 177.1,213.2 L 180.8,212.6 L 184.6,211.1 L 188.3,209.0 L 192.1,208.7 L 195.8,208.4 L 199.6,206.7 L 203.3,206.1 L 207.1,204.6 L 210.8,204.3 L 214.6,204.0 L 218.4,203.4 L 222.1,203.4 L 225.9,203.4 L 229.6,199.3 L 233.4,199.0 L 237.1,198.1 L 240.9,197.8 L 244.6,197.5 L 248.4,196.6 L 252.1,196.0 L 255.9,195.4 L 259.6,193.7 L 263.4,193.7 L 267.1,193.7 L 270.9,193.4 L 274.6,190.4 L 278.4,189.6 L 282.2,189.0 L 285.9,188.1 L 289.7,187.5 L 293.4,187.5 L 297.2,186.0 L 300.9,183.9 L 304.7,183.4 L 308.4,183.1 L 312.2,182.2 L 315.9,182.2 L 319.7,181.6 L 323.4,180.7 L 327.2,180.1 L 330.9,178.9 L 334.7,177.8 L 338.4,177.5 L 342.2,177.5 L 345.9,176.3 L 349.7,176.3 L 353.5,176.3 L 357.2,174.5 L 361.0,174.2 L 364.7,173.9 L 368.5,173.9 L 372.2,173.6 L 376.0,172.4 L 379.7,171.9 L 383.5,171.0 L 387.2,171.0 L 391.0,170.7 L 394.7,169.5 L 398.5,168.6 L 402.2,168.6 L 406.0,168.3 L 409.7,167.7 L 413.5,165.7 L 417.2,165.1 L 421.0,164.2 L 424.8,164.2 L 428.5,163.6 L 432.3,163.3 L 436.0,163.0 L 439.8,162.7 L 443.5,162.4 L 447.3,162.4 L 451.0,162.1 L 454.8,161.8 L 458.5,160.9 L 462.3,159.8 L 466.0,159.5 L 469.8,158.6 L 473.5,158.6 L 477.3,157.4 L 481.0,157.1 L 484.8,157.1 L 488.5,157.1 L 492.3,156.2 L 496.1,155.9 L 499.8,155.9 L 503.6,155.9 L 507.3,155.6 L 511.1,154.4 L 514.8,154.2 L 518.6,153.3 L 522.3,152.7 L 526.1,152.7 L 529.8,151.8 L 533.6,151.2 L 537.3,151.2 L 541.1,150.9 L 544.8,149.4 L 548.6,148.0 L 552.3,147.7 L 556.1,147.1 L 559.8,145.9 L 563.6,145.9 L 567.4,145.3 L 571.1,143.8 L 574.9,141.2 L 578.6,140.3 L 582.4,140.3 L 586.1,140.3 L 589.9,140.3 L 593.6,140.3 L 597.4,139.1 L 601.1,138.2 L 604.9,138.2 L 608.6,138.2 L 612.4,138.2 L 616.1,137.3 L 619.9,137.3 L 623.6,136.5 L 627.4,135.6 L 631.2,135.3 L 634.9,135.0 L 638.7,134.4 L 642.4,134.4 L 646.2,133.5 L 649.9,132.3 L 653.7,131.4 L 657.4,129.7 L 661.2,129.1 L 664.9,128.8 L 668.7,128.5 L 672.4,127.9 L 676.2,127.6 L 679.9,126.1 L 683.7,125.2 L 687.4,123.8 L 691.2,123.5 L 694.9,123.5 L 698.7,123.2 L 702.5,122.0 L 706.2,121.7 L 710.0,121.4 L 713.7,121.1 L 717.5,119.9 L 721.2,119.6 L 725.0,118.2 L 728.7,117.3 L 732.5,117.0 L 736.2,115.2 L 740.0,115.2 L 743.7,115.2 L 747.5,115.2 L 751.2,114.6 L 755.0,114.6 L 758.7,114.3 L 762.5,114.3 L 766.2,114.0 L 770.0,113.7 L 770.0,340 Z" fill="url(#g5)" clip-path="url(#ca)"/>
<path d="M 72.0,242.6 L 75.8,240.0 L 79.5,239.7 L 83.3,238.5 L 87.0,237.9 L 90.8,235.0 L 94.5,233.2 L 98.3,232.3 L 102.0,230.8 L 105.8,229.1 L 109.5,228.2 L 113.3,227.9 L 117.0,227.0 L 120.8,226.4 L 124.5,226.1 L 128.3,225.2 L 132.0,224.4 L 135.8,223.5 L 139.5,222.6 L 143.3,221.4 L 147.1,220.5 L 150.8,219.6 L 154.6,218.8 L 158.3,217.0 L 162.1,216.4 L 165.8,216.4 L 169.6,214.3 L 173.3,213.7 L 177.1,213.2 L 180.8,212.6 L 184.6,211.1 L 188.3,209.0 L 192.1,208.7 L 195.8,208.4 L 199.6,206.7 L 203.3,206.1 L 207.1,204.6 L 210.8,204.3 L 214.6,204.0 L 218.4,203.4 L 222.1,203.4 L 225.9,203.4 L 229.6,199.3 L 233.4,199.0 L 237.1,198.1 L 240.9,197.8 L 244.6,197.5 L 248.4,196.6 L 252.1,196.0 L 255.9,195.4 L 259.6,193.7 L 263.4,193.7 L 267.1,193.7 L 270.9,193.4 L 274.6,190.4 L 278.4,189.6 L 282.2,189.0 L 285.9,188.1 L 289.7,187.5 L 293.4,187.5 L 297.2,186.0 L 300.9,183.9 L 304.7,183.4 L 308.4,183.1 L 312.2,182.2 L 315.9,182.2 L 319.7,181.6 L 323.4,180.7 L 327.2,180.1 L 330.9,178.9 L 334.7,177.8 L 338.4,177.5 L 342.2,177.5 L 345.9,176.3 L 349.7,176.3 L 353.5,176.3 L 357.2,174.5 L 361.0,174.2 L 364.7,173.9 L 368.5,173.9 L 372.2,173.6 L 376.0,172.4 L 379.7,171.9 L 383.5,171.0 L 387.2,171.0 L 391.0,170.7 L 394.7,169.5 L 398.5,168.6 L 402.2,168.6 L 406.0,168.3 L 409.7,167.7 L 413.5,165.7 L 417.2,165.1 L 421.0,164.2 L 424.8,164.2 L 428.5,163.6 L 432.3,163.3 L 436.0,163.0 L 439.8,162.7 L 443.5,162.4 L 447.3,162.4 L 451.0,162.1 L 454.8,161.8 L 458.5,160.9 L 462.3,159.8 L 466.0,159.5 L 469.8,158.6 L 473.5,158.6 L 477.3,157.4 L 481.0,157.1 L 484.8,157.1 L 488.5,157.1 L 492.3,156.2 L 496.1,155.9 L 499.8,155.9 L 503.6,155.9 L 507.3,155.6 L 511.1,154.4 L 514.8,154.2 L 518.6,153.3 L 522.3,152.7 L 526.1,152.7 L 529.8,151.8 L 533.6,151.2 L 537.3,151.2 L 541.1,150.9 L 544.8,149.4 L 548.6,148.0 L 552.3,147.7 L 556.1,147.1 L 559.8,145.9 L 563.6,145.9 L 567.4,145.3 L 571.1,143.8 L 574.9,141.2 L 578.6,140.3 L 582.4,140.3 L 586.1,140.3 L 589.9,140.3 L 593.6,140.3 L 597.4,139.1 L 601.1,138.2 L 604.9,138.2 L 608.6,138.2 L 612.4,138.2 L 616.1,137.3 L 619.9,137.3 L 623.6,136.5 L 627.4,135.6 L 631.2,135.3 L 634.9,135.0 L 638.7,134.4 L 642.4,134.4 L 646.2,133.5 L 649.9,132.3 L 653.7,131.4 L 657.4,129.7 L 661.2,129.1 L 664.9,128.8 L 668.7,128.5 L 672.4,127.9 L 676.2,127.6 L 679.9,126.1 L 683.7,125.2 L 687.4,123.8 L 691.2,123.5 L 694.9,123.5 L 698.7,123.2 L 702.5,122.0 L 706.2,121.7 L 710.0,121.4 L 713.7,121.1 L 717.5,119.9 L 721.2,119.6 L 725.0,118.2 L 728.7,117.3 L 732.5,117.0 L 736.2,115.2 L 740.0,115.2 L 743.7,115.2 L 747.5,115.2 L 751.2,114.6 L 755.0,114.6 L 758.7,114.3 L 762.5,114.3 L 766.2,114.0 L 770.0,113.7" fill="none" stroke="#34C759" stroke-width="2.5" stroke-linejoin="round" clip-path="url(#ca)"/>
<path d="M 72.0,340 L 72.0,222.6 L 75.8,222.6 L 79.5,222.3 L 83.3,221.4 L 87.0,221.7 L 90.8,221.7 L 94.5,220.5 L 98.3,219.6 L 102.0,219.6 L 105.8,219.9 L 109.5,219.6 L 113.3,219.3 L 117.0,219.1 L 120.8,219.1 L 124.5,219.1 L 128.3,219.3 L 132.0,218.8 L 135.8,218.2 L 139.5,216.4 L 143.3,215.2 L 147.1,215.2 L 150.8,214.9 L 154.6,213.2 L 158.3,210.5 L 162.1,209.6 L 165.8,209.0 L 169.6,207.0 L 173.3,205.5 L 177.1,204.9 L 180.8,204.3 L 184.6,203.7 L 188.3,203.4 L 192.1,203.4 L 195.8,201.3 L 199.6,200.8 L 203.3,200.2 L 207.1,200.2 L 210.8,198.7 L 214.6,198.4 L 218.4,197.5 L 222.1,196.3 L 225.9,194.9 L 229.6,192.8 L 233.4,190.7 L 237.1,190.4 L 240.9,189.8 L 244.6,189.3 L 248.4,187.5 L 252.1,187.5 L 255.9,186.9 L 259.6,186.0 L 263.4,185.4 L 267.1,184.2 L 270.9,184.5 L 274.6,181.0 L 278.4,180.7 L 282.2,180.4 L 285.9,179.8 L 289.7,178.0 L 293.4,178.0 L 297.2,176.3 L 300.9,174.2 L 304.7,174.2 L 308.4,174.2 L 312.2,173.9 L 315.9,173.6 L 319.7,173.3 L 323.4,171.9 L 327.2,170.1 L 330.9,169.5 L 334.7,168.3 L 338.4,168.3 L 342.2,167.4 L 345.9,165.7 L 349.7,164.8 L 353.5,164.5 L 357.2,162.4 L 361.0,162.1 L 364.7,162.1 L 368.5,161.8 L 372.2,161.8 L 376.0,160.3 L 379.7,159.8 L 383.5,158.9 L 387.2,158.6 L 391.0,158.0 L 394.7,155.6 L 398.5,152.4 L 402.2,152.1 L 406.0,151.5 L 409.7,151.2 L 413.5,149.7 L 417.2,118.5 L 421.0,117.9 L 424.8,116.4 L 428.5,116.4 L 432.3,116.4 L 436.0,116.7 L 439.8,116.4 L 443.5,114.6 L 447.3,114.0 L 451.0,113.7 L 454.8,113.4 L 458.5,112.3 L 462.3,110.5 L 466.0,110.5 L 469.8,110.5 L 473.5,110.2 L 477.3,109.9 L 481.0,109.9 L 484.8,109.3 L 488.5,108.4 L 492.3,106.9 L 496.1,106.4 L 499.8,106.1 L 503.6,106.1 L 507.3,105.8 L 511.1,105.2 L 514.8,104.9 L 518.6,103.4 L 522.3,103.4 L 526.1,102.8 L 529.8,101.6 L 533.6,100.2 L 537.3,99.9 L 541.1,99.6 L 544.8,96.9 L 548.6,96.3 L 552.3,95.7 L 556.1,95.7 L 559.8,94.6 L 563.6,94.0 L 567.4,92.5 L 571.1,91.9 L 574.9,91.0 L 578.6,90.7 L 582.4,89.5 L 586.1,88.7 L 589.9,88.4 L 593.6,87.8 L 597.4,86.6 L 601.1,86.0 L 604.9,85.1 L 608.6,84.5 L 612.4,84.2 L 616.1,83.6 L 619.9,82.8 L 623.6,82.2 L 627.4,81.6 L 631.2,80.7 L 634.9,80.7 L 638.7,80.1 L 642.4,78.6 L 646.2,77.2 L 649.9,76.3 L 653.7,76.6 L 657.4,76.0 L 661.2,75.7 L 664.9,75.4 L 668.7,74.8 L 672.4,73.3 L 676.2,73.3 L 679.9,73.0 L 683.7,72.1 L 687.4,71.3 L 691.2,70.1 L 694.9,69.5 L 698.7,69.5 L 702.5,68.6 L 706.2,68.0 L 710.0,67.4 L 713.7,66.5 L 717.5,65.9 L 721.2,65.9 L 725.0,65.6 L 728.7,66.2 L 732.5,65.6 L 736.2,64.2 L 740.0,63.3 L 743.7,62.7 L 747.5,62.1 L 751.2,60.9 L 755.0,58.9 L 758.7,58.6 L 762.5,58.0 L 766.2,57.1 L 770.0,57.1 L 770.0,340 Z" fill="url(#g6)" clip-path="url(#ca)"/>
<path d="M 72.0,222.6 L 75.8,222.6 L 79.5,222.3 L 83.3,221.4 L 87.0,221.7 L 90.8,221.7 L 94.5,220.5 L 98.3,219.6 L 102.0,219.6 L 105.8,219.9 L 109.5,219.6 L 113.3,219.3 L 117.0,219.1 L 120.8,219.1 L 124.5,219.1 L 128.3,219.3 L 132.0,218.8 L 135.8,218.2 L 139.5,216.4 L 143.3,215.2 L 147.1,215.2 L 150.8,214.9 L 154.6,213.2 L 158.3,210.5 L 162.1,209.6 L 165.8,209.0 L 169.6,207.0 L 173.3,205.5 L 177.1,204.9 L 180.8,204.3 L 184.6,203.7 L 188.3,203.4 L 192.1,203.4 L 195.8,201.3 L 199.6,200.8 L 203.3,200.2 L 207.1,200.2 L 210.8,198.7 L 214.6,198.4 L 218.4,197.5 L 222.1,196.3 L 225.9,194.9 L 229.6,192.8 L 233.4,190.7 L 237.1,190.4 L 240.9,189.8 L 244.6,189.3 L 248.4,187.5 L 252.1,187.5 L 255.9,186.9 L 259.6,186.0 L 263.4,185.4 L 267.1,184.2 L 270.9,184.5 L 274.6,181.0 L 278.4,180.7 L 282.2,180.4 L 285.9,179.8 L 289.7,178.0 L 293.4,178.0 L 297.2,176.3 L 300.9,174.2 L 304.7,174.2 L 308.4,174.2 L 312.2,173.9 L 315.9,173.6 L 319.7,173.3 L 323.4,171.9 L 327.2,170.1 L 330.9,169.5 L 334.7,168.3 L 338.4,168.3 L 342.2,167.4 L 345.9,165.7 L 349.7,164.8 L 353.5,164.5 L 357.2,162.4 L 361.0,162.1 L 364.7,162.1 L 368.5,161.8 L 372.2,161.8 L 376.0,160.3 L 379.7,159.8 L 383.5,158.9 L 387.2,158.6 L 391.0,158.0 L 394.7,155.6 L 398.5,152.4 L 402.2,152.1 L 406.0,151.5 L 409.7,151.2 L 413.5,149.7 L 417.2,118.5 L 421.0,117.9 L 424.8,116.4 L 428.5,116.4 L 432.3,116.4 L 436.0,116.7 L 439.8,116.4 L 443.5,114.6 L 447.3,114.0 L 451.0,113.7 L 454.8,113.4 L 458.5,112.3 L 462.3,110.5 L 466.0,110.5 L 469.8,110.5 L 473.5,110.2 L 477.3,109.9 L 481.0,109.9 L 484.8,109.3 L 488.5,108.4 L 492.3,106.9 L 496.1,106.4 L 499.8,106.1 L 503.6,106.1 L 507.3,105.8 L 511.1,105.2 L 514.8,104.9 L 518.6,103.4 L 522.3,103.4 L 526.1,102.8 L 529.8,101.6 L 533.6,100.2 L 537.3,99.9 L 541.1,99.6 L 544.8,96.9 L 548.6,96.3 L 552.3,95.7 L 556.1,95.7 L 559.8,94.6 L 563.6,94.0 L 567.4,92.5 L 571.1,91.9 L 574.9,91.0 L 578.6,90.7 L 582.4,89.5 L 586.1,88.7 L 589.9,88.4 L 593.6,87.8 L 597.4,86.6 L 601.1,86.0 L 604.9,85.1 L 608.6,84.5 L 612.4,84.2 L 616.1,83.6 L 619.9,82.8 L 623.6,82.2 L 627.4,81.6 L 631.2,80.7 L 634.9,80.7 L 638.7,80.1 L 642.4,78.6 L 646.2,77.2 L 649.9,76.3 L 653.7,76.6 L 657.4,76.0 L 661.2,75.7 L 664.9,75.4 L 668.7,74.8 L 672.4,73.3 L 676.2,73.3 L 679.9,73.0 L 683.7,72.1 L 687.4,71.3 L 691.2,70.1 L 694.9,69.5 L 698.7,69.5 L 702.5,68.6 L 706.2,68.0 L 710.0,67.4 L 713.7,66.5 L 717.5,65.9 L 721.2,65.9 L 725.0,65.6 L 728.7,66.2 L 732.5,65.6 L 736.2,64.2 L 740.0,63.3 L 743.7,62.7 L 747.5,62.1 L 751.2,60.9 L 755.0,58.9 L 758.7,58.6 L 762.5,58.0 L 766.2,57.1 L 770.0,57.1" fill="none" stroke="#4F8EF7" stroke-width="2.5" stroke-linejoin="round" clip-path="url(#ca)"/>
<path d="M 72.0,340 L 72.0,338.2 L 75.8,337.9 L 79.5,337.9 L 83.3,337.6 L 87.0,337.6 L 90.8,337.6 L 94.5,337.6 L 98.3,337.6 L 102.0,337.1 L 105.8,337.1 L 109.5,337.1 L 113.3,337.1 L 117.0,337.1 L 120.8,336.8 L 124.5,336.8 L 128.3,336.8 L 132.0,336.8 L 135.8,336.8 L 139.5,336.5 L 143.3,335.9 L 147.1,335.6 L 150.8,335.6 L 154.6,335.6 L 158.3,335.3 L 162.1,335.3 L 165.8,335.3 L 169.6,335.0 L 173.3,335.0 L 177.1,335.0 L 180.8,334.7 L 184.6,334.7 L 188.3,334.7 L 192.1,334.7 L 195.8,334.4 L 199.6,334.4 L 203.3,334.4 L 207.1,334.4 L 210.8,334.4 L 214.6,334.4 L 218.4,334.4 L 222.1,334.4 L 225.9,334.4 L 229.6,334.4 L 233.4,334.4 L 237.1,334.4 L 240.9,334.4 L 244.6,334.1 L 248.4,334.1 L 252.1,334.1 L 255.9,334.1 L 259.6,334.1 L 263.4,334.1 L 267.1,334.1 L 270.9,334.1 L 274.6,334.1 L 278.4,334.1 L 282.2,334.1 L 285.9,334.1 L 289.7,333.8 L 293.4,333.8 L 297.2,333.8 L 300.9,333.8 L 304.7,333.8 L 308.4,333.8 L 312.2,333.8 L 315.9,333.8 L 319.7,333.8 L 323.4,333.8 L 327.2,333.8 L 330.9,333.8 L 334.7,333.8 L 338.4,333.8 L 342.2,333.8 L 345.9,333.8 L 349.7,333.8 L 353.5,333.8 L 357.2,333.8 L 361.0,333.8 L 364.7,333.8 L 368.5,333.8 L 372.2,333.8 L 376.0,333.8 L 379.7,333.8 L 383.5,333.8 L 387.2,333.8 L 391.0,333.8 L 394.7,333.8 L 398.5,333.8 L 402.2,333.8 L 406.0,333.8 L 409.7,333.8 L 413.5,333.8 L 417.2,333.8 L 421.0,333.8 L 424.8,333.5 L 428.5,333.5 L 432.3,333.5 L 436.0,333.5 L 439.8,333.5 L 443.5,333.2 L 447.3,333.2 L 451.0,333.2 L 454.8,333.2 L 458.5,332.9 L 462.3,332.9 L 466.0,332.6 L 469.8,332.6 L 473.5,332.6 L 477.3,332.6 L 481.0,332.6 L 484.8,332.6 L 488.5,332.6 L 492.3,332.6 L 496.1,332.6 L 499.8,332.6 L 503.6,332.6 L 507.3,332.6 L 511.1,332.6 L 514.8,332.6 L 518.6,332.6 L 522.3,332.6 L 526.1,332.6 L 529.8,332.6 L 533.6,332.6 L 537.3,332.6 L 541.1,332.6 L 544.8,332.6 L 548.6,332.6 L 552.3,332.6 L 556.1,332.6 L 559.8,332.6 L 563.6,332.6 L 567.4,332.6 L 571.1,332.6 L 574.9,332.6 L 578.6,332.6 L 582.4,332.6 L 586.1,332.6 L 589.9,332.6 L 593.6,332.6 L 597.4,332.6 L 601.1,332.6 L 604.9,332.6 L 608.6,332.6 L 612.4,332.6 L 616.1,332.6 L 619.9,332.6 L 623.6,332.6 L 627.4,332.6 L 631.2,332.6 L 634.9,332.6 L 638.7,332.6 L 642.4,332.6 L 646.2,332.3 L 649.9,332.3 L 653.7,332.3 L 657.4,332.3 L 661.2,332.3 L 664.9,332.3 L 668.7,332.3 L 672.4,332.3 L 676.2,332.3 L 679.9,332.3 L 683.7,332.3 L 687.4,332.0 L 691.2,332.0 L 694.9,332.0 L 698.7,332.0 L 702.5,332.0 L 706.2,332.0 L 710.0,332.0 L 713.7,332.0 L 717.5,332.0 L 721.2,332.0 L 725.0,332.0 L 728.7,332.0 L 732.5,332.0 L 736.2,332.0 L 740.0,331.7 L 743.7,331.7 L 747.5,331.7 L 751.2,331.7 L 755.0,331.7 L 758.7,331.7 L 762.5,331.7 L 766.2,331.7 L 770.0,331.7 L 770.0,340 Z" fill="url(#g7)" clip-path="url(#ca)"/>
<path d="M 72.0,338.2 L 75.8,337.9 L 79.5,337.9 L 83.3,337.6 L 87.0,337.6 L 90.8,337.6 L 94.5,337.6 L 98.3,337.6 L 102.0,337.1 L 105.8,337.1 L 109.5,337.1 L 113.3,337.1 L 117.0,337.1 L 120.8,336.8 L 124.5,336.8 L 128.3,336.8 L 132.0,336.8 L 135.8,336.8 L 139.5,336.5 L 143.3,335.9 L 147.1,335.6 L 150.8,335.6 L 154.6,335.6 L 158.3,335.3 L 162.1,335.3 L 165.8,335.3 L 169.6,335.0 L 173.3,335.0 L 177.1,335.0 L 180.8,334.7 L 184.6,334.7 L 188.3,334.7 L 192.1,334.7 L 195.8,334.4 L 199.6,334.4 L 203.3,334.4 L 207.1,334.4 L 210.8,334.4 L 214.6,334.4 L 218.4,334.4 L 222.1,334.4 L 225.9,334.4 L 229.6,334.4 L 233.4,334.4 L 237.1,334.4 L 240.9,334.4 L 244.6,334.1 L 248.4,334.1 L 252.1,334.1 L 255.9,334.1 L 259.6,334.1 L 263.4,334.1 L 267.1,334.1 L 270.9,334.1 L 274.6,334.1 L 278.4,334.1 L 282.2,334.1 L 285.9,334.1 L 289.7,333.8 L 293.4,333.8 L 297.2,333.8 L 300.9,333.8 L 304.7,333.8 L 308.4,333.8 L 312.2,333.8 L 315.9,333.8 L 319.7,333.8 L 323.4,333.8 L 327.2,333.8 L 330.9,333.8 L 334.7,333.8 L 338.4,333.8 L 342.2,333.8 L 345.9,333.8 L 349.7,333.8 L 353.5,333.8 L 357.2,333.8 L 361.0,333.8 L 364.7,333.8 L 368.5,333.8 L 372.2,333.8 L 376.0,333.8 L 379.7,333.8 L 383.5,333.8 L 387.2,333.8 L 391.0,333.8 L 394.7,333.8 L 398.5,333.8 L 402.2,333.8 L 406.0,333.8 L 409.7,333.8 L 413.5,333.8 L 417.2,333.8 L 421.0,333.8 L 424.8,333.5 L 428.5,333.5 L 432.3,333.5 L 436.0,333.5 L 439.8,333.5 L 443.5,333.2 L 447.3,333.2 L 451.0,333.2 L 454.8,333.2 L 458.5,332.9 L 462.3,332.9 L 466.0,332.6 L 469.8,332.6 L 473.5,332.6 L 477.3,332.6 L 481.0,332.6 L 484.8,332.6 L 488.5,332.6 L 492.3,332.6 L 496.1,332.6 L 499.8,332.6 L 503.6,332.6 L 507.3,332.6 L 511.1,332.6 L 514.8,332.6 L 518.6,332.6 L 522.3,332.6 L 526.1,332.6 L 529.8,332.6 L 533.6,332.6 L 537.3,332.6 L 541.1,332.6 L 544.8,332.6 L 548.6,332.6 L 552.3,332.6 L 556.1,332.6 L 559.8,332.6 L 563.6,332.6 L 567.4,332.6 L 571.1,332.6 L 574.9,332.6 L 578.6,332.6 L 582.4,332.6 L 586.1,332.6 L 589.9,332.6 L 593.6,332.6 L 597.4,332.6 L 601.1,332.6 L 604.9,332.6 L 608.6,332.6 L 612.4,332.6 L 616.1,332.6 L 619.9,332.6 L 623.6,332.6 L 627.4,332.6 L 631.2,332.6 L 634.9,332.6 L 638.7,332.6 L 642.4,332.6 L 646.2,332.3 L 649.9,332.3 L 653.7,332.3 L 657.4,332.3 L 661.2,332.3 L 664.9,332.3 L 668.7,332.3 L 672.4,332.3 L 676.2,332.3 L 679.9,332.3 L 683.7,332.3 L 687.4,332.0 L 691.2,332.0 L 694.9,332.0 L 698.7,332.0 L 702.5,332.0 L 706.2,332.0 L 710.0,332.0 L 713.7,332.0 L 717.5,332.0 L 721.2,332.0 L 725.0,332.0 L 728.7,332.0 L 732.5,332.0 L 736.2,332.0 L 740.0,331.7 L 743.7,331.7 L 747.5,331.7 L 751.2,331.7 L 755.0,331.7 L 758.7,331.7 L 762.5,331.7 L 766.2,331.7 L 770.0,331.7" fill="none" stroke="#FF6363" stroke-width="2.5" stroke-linejoin="round" clip-path="url(#ca)"/>
<text x="92.6" y="55.0" text-anchor="middle" font-size="9" fill="#34C759" opacity="0.85" clip-path="url(#ca)">+15.2% (+50)</text>
<text x="92.6" y="66.0" text-anchor="middle" font-size="9" fill="#4F8EF7" opacity="0.85" clip-path="url(#ca)">+2.8% (+11)</text>
<text x="92.6" y="77.0" text-anchor="middle" font-size="9" fill="#FF6363" opacity="0.85" clip-path="url(#ca)">+66.7% (+4)</text>
<text x="163.9" y="55.0" text-anchor="middle" font-size="9" fill="#34C759" opacity="0.85" clip-path="url(#ca)">+20.1% (+77)</text>
<text x="163.9" y="66.0" text-anchor="middle" font-size="9" fill="#4F8EF7" opacity="0.85" clip-path="url(#ca)">+16.8% (+69)</text>
<text x="163.9" y="77.0" text-anchor="middle" font-size="9" fill="#FF6363" opacity="0.85" clip-path="url(#ca)">+90.0% (+9)</text>
<text x="263.4" y="55.0" text-anchor="middle" font-size="9" fill="#34C759" opacity="0.85" clip-path="url(#ca)">+16.1% (+74)</text>
<text x="263.4" y="66.0" text-anchor="middle" font-size="9" fill="#4F8EF7" opacity="0.85" clip-path="url(#ca)">+17.3% (+83)</text>
<text x="263.4" y="77.0" text-anchor="middle" font-size="9" fill="#FF6363" opacity="0.85" clip-path="url(#ca)">+10.5% (+2)</text>
<text x="364.7" y="55.0" text-anchor="middle" font-size="9" fill="#34C759" opacity="0.85" clip-path="url(#ca)">+10.5% (+56)</text>
<text x="364.7" y="66.0" text-anchor="middle" font-size="9" fill="#4F8EF7" opacity="0.85" clip-path="url(#ca)">+14.4% (+81)</text>
<text x="364.7" y="77.0" text-anchor="middle" font-size="9" fill="#FF6363" opacity="0.85" clip-path="url(#ca)">+0.0% (+0)</text>
<text x="466.0" y="55.0" text-anchor="middle" font-size="9" fill="#34C759" opacity="0.85" clip-path="url(#ca)">+6.2% (+37)</text>
<text x="466.0" y="66.0" text-anchor="middle" font-size="9" fill="#4F8EF7" opacity="0.85" clip-path="url(#ca)">+6.1% (+46)</text>
<text x="466.0" y="77.0" text-anchor="middle" font-size="9" fill="#FF6363" opacity="0.85" clip-path="url(#ca)">+19.0% (+4)</text>
<text x="565.5" y="55.0" text-anchor="middle" font-size="9" fill="#34C759" opacity="0.85" clip-path="url(#ca)">+8.1% (+51)</text>
<text x="565.5" y="66.0" text-anchor="middle" font-size="9" fill="#4F8EF7" opacity="0.85" clip-path="url(#ca)">+8.1% (+65)</text>
<text x="565.5" y="77.0" text-anchor="middle" font-size="9" fill="#FF6363" opacity="0.85" clip-path="url(#ca)">+0.0% (+0)</text>
<text x="659.3" y="55.0" text-anchor="middle" font-size="9" fill="#34C759" opacity="0.85" clip-path="url(#ca)">+7.6% (+52)</text>
<text x="659.3" y="66.0" text-anchor="middle" font-size="9" fill="#4F8EF7" opacity="0.85" clip-path="url(#ca)">+5.9% (+51)</text>
<text x="659.3" y="77.0" text-anchor="middle" font-size="9" fill="#FF6363" opacity="0.85" clip-path="url(#ca)">+8.0% (+2)</text>
<text x="738.1" y="55.0" text-anchor="middle" font-size="9" fill="#34C759" opacity="0.85" clip-path="url(#ca)">+3.6% (+27)</text>
<text x="738.1" y="66.0" text-anchor="middle" font-size="9" fill="#4F8EF7" opacity="0.85" clip-path="url(#ca)">+4.0% (+37)</text>
<text x="738.1" y="77.0" text-anchor="middle" font-size="9" fill="#FF6363" opacity="0.85" clip-path="url(#ca)">+3.7% (+1)</text>
<rect x="211" y="369" width="12" height="12" fill="#34C759" rx="2"/>
<text x="227" y="379" font-size="12" fill="#111827">macOS + Windows</text>
<rect x="351" y="369" width="12" height="12" fill="#4F8EF7" rx="2"/>
<text x="367" y="379" font-size="12" fill="#111827">macOS only</text>
<rect x="491" y="369" width="12" height="12" fill="#FF6363" rx="2"/>
<text x="507" y="379" font-size="12" fill="#111827">Windows only</text>
<text x="72" y="394" font-size="8" fill="#e5e7eb">data since Dec 11, 2025</text>
</svg>