<svg xmlns="http://www.w3.org/2000/svg" width="800" height="400" viewBox="0 0 800 400">
<defs>
  <style>text { font-family: -apple-system, BlinkMacSystemFont, 'Segoe UI', Roboto, sans-serif; }</style>
  <linearGradient id="g1" x1="0" y1="0" x2="0" y2="1">
  <stop offset="0%" stop-color="#FF6363" stop-opacity="0.25"/>
  <stop offset="100%" stop-color="#FF6363" stop-opacity="0"/>
</linearGradient>
  <clipPath id="ca"><rect x="72" y="45" width="698" height="295"/></clipPath>
</defs>
<rect width="800" height="400" fill="#ffffff" rx="12"/>
<text x="400" y="26" text-anchor="middle" font-size="15" font-weight="600" fill="#111827">Packages Growth Over Time</text>
<line x1="72" y1="340.0" x2="770" y2="340.0" stroke="#f3f4f6" stroke-width="1"/>
<text x="66" y="344.0" text-anchor="end" font-size="11" fill="#6b7280">2.4k</text>
<line x1="72" y1="290.8" x2="770" y2="290.8" stroke="#f3f4f6" stroke-width="1"/>
<text x="66" y="294.8" text-anchor="end" font-size="11" fill="#6b7280">2.5k</text>
<line x1="72" y1="241.7" x2="770" y2="241.7" stroke="#f3f4f6" stroke-width="1"/>
<text x="66" y="245.7" text-anchor="end" font-size="11" fill="#6b7280">2.6k</text>
<line x1="72" y1="192.5" x2="770" y2="192.5" stroke="#f3f4f6" stroke-width="1"/>
<text x="66" y="196.5" text-anchor="end" font-size="11" fill="#6b7280">2.7k</text>
<line x1="72" y1="143.3" x2="770" y2="143.3" stroke="#f3f4f6" stroke-width="1"/>
<text x="66" y="147.3" text-anchor="end" font-size="11" fill="#6b7280">2.8k</text>
<line x1="72" y1="94.2" x2="770" y2="94.2" stroke="#f3f4f6" stroke-width="1"/>
<text x="66" y="98.2" text-anchor="end" font-size="11" fill="#6b7280">2.9k</text>
<line x1="72" y1="45.0" x2="770" y2="45.0" stroke="#f3f4f6" stroke-width="1"/>
<text x="66" y="49.0" text-anchor="end" font-size="11" fill="#6b7280">3.0k</text>
<line x1="129.8" y1="45" x2="129.8" y2="340" stroke="#e5e7eb" stroke-width="1" stroke-dasharray="3,3" clip-path="url(#ca)"/>
<line x1="254.9" y1="45" x2="254.9" y2="340" stroke="#e5e7eb" stroke-width="1" stroke-dasharray="3,3" clip-path="url(#ca)"/>
<line x1="384.9" y1="45" x2="384.9" y2="340" stroke="#e5e7eb" stroke-width="1" stroke-dasharray="3,3" clip-path="url(#ca)"/>
<line x1="514.9" y1="45" x2="514.9" y2="340" stroke="#e5e7eb" stroke-width="1" stroke-dasharray="3,3" clip-path="url(#ca)"/>
<line x1="644.8" y1="45" x2="644.8" y2="340" stroke="#e5e7eb" stroke-width="1" stroke-dasharray="3,3" clip-path="url(#ca)"/>
<line x1="770.0" y1="45" x2="770.0" y2="340" stroke="#e5e7eb" stroke-width="1" stroke-dasharray="3,3" clip-path="url(#ca)"/>
<text x="72.0" y="358.0" text-anchor="middle" font-size="11" fill="#6b7280">Dec 11</text>
<text x="211.6" y="358.0" text-anchor="middle" font-size="11" fill="#6b7280">Jan 23</text>
<text x="351.2" y="358.0" text-anchor="middle" font-size="11" fill="#6b7280">Feb 21</text>
<text x="490.8" y="358.0" text-anchor="middle" font-size="11" fill="#6b7280">Mar 25</text>
<text x="630.4" y="358.0" text-anchor="middle" font-size="11" fill="#6b7280">Apr 28</text>
<text x="770.0" y="358.0" text-anchor="middle" font-size="11" fill="#6b7280">Jun 2</text>
<line x1="72" y1="45" x2="72" y2="340" stroke="#e5e7eb" stroke-width="1"/>
<line x1="72" y1="340" x2="770" y2="340" stroke="#e5e7eb" stroke-width="1"/>
<text x="-192.5" y="18" text-anchor="middle" font-size="12" fill="#6b7280" transform="rotate(-90)">Extensions</text>
<path d="M 72.0,340 L 72.0,302.1 L 76.8,301.6 L 81.6,301.6 L 86.4,300.2 L 91.3,300.2 L 96.1,299.2 L 100.9,298.2 L 105.7,297.7 L 110.5,295.3 L 115.3,293.3 L 120.1,293.3 L 125.0,293.3 L 129.8,293.3 L 134.6,292.3 L 139.4,292.3 L 144.2,292.3 L 149.0,291.3 L 153.8,289.4 L 158.6,285.9 L 163.5,283.5 L 168.3,282.5 L 173.1,282.0 L 177.9,280.0 L 182.7,274.1 L 187.5,272.1 L 192.3,272.1 L 197.2,267.2 L 202.0,265.8 L 206.8,263.8 L 211.6,262.3 L 216.4,259.4 L 221.2,256.9 L 226.0,256.4 L 230.9,252.5 L 235.7,249.0 L 240.5,249.0 L 245.3,246.6 L 250.1,244.6 L 254.9,244.1 L 259.7,243.6 L 264.6,243.1 L 269.4,241.7 L 274.2,232.8 L 279.0,228.9 L 283.8,226.9 L 288.6,225.9 L 293.4,224.5 L 298.2,221.0 L 303.1,220.0 L 307.9,219.1 L 312.7,216.1 L 317.5,215.1 L 322.3,214.1 L 327.1,214.1 L 331.9,205.3 L 336.8,204.3 L 341.6,203.3 L 346.4,201.3 L 351.2,198.9 L 356.0,198.9 L 360.8,195.0 L 365.6,188.6 L 370.5,187.6 L 375.3,188.1 L 380.1,186.6 L 384.9,186.1 L 389.7,186.1 L 394.5,183.2 L 399.3,180.7 L 404.2,178.7 L 409.0,176.3 L 413.8,175.8 L 418.6,175.8 L 423.4,172.3 L 428.2,171.4 L 433.0,170.9 L 437.8,165.0 L 442.7,164.5 L 447.5,164.5 L 452.3,164.5 L 457.1,164.0 L 461.9,161.5 L 466.7,159.6 L 471.5,157.1 L 476.4,156.6 L 481.2,155.1 L 486.0,150.7 L 490.8,146.8 L 495.6,146.3 L 500.4,145.8 L 505.2,144.3 L 510.1,139.4 L 514.9,138.4 L 519.7,136.9 L 524.5,134.0 L 529.3,133.5 L 534.1,133.0 L 538.9,133.0 L 543.8,132.0 L 548.6,129.1 L 553.4,128.1 L 558.2,127.1 L 563.0,126.6 L 567.8,125.6 L 572.6,120.7 L 577.4,120.2 L 582.3,119.2 L 587.1,118.8 L 591.9,116.3 L 596.7,115.8 L 601.5,115.3 L 606.3,113.8 L 611.1,111.9 L 616.0,111.9 L 620.8,111.9 L 625.6,111.9 L 630.4,110.9 L 635.2,108.4 L 640.0,107.9 L 644.8,105.5 L 649.7,105.0 L 654.5,104.5 L 659.3,101.5 L 664.1,98.6 L 668.9,98.1 L 673.7,97.6 L 678.5,91.2 L 683.4,89.3 L 688.2,87.8 L 693.0,87.3 L 697.8,83.8 L 702.6,83.8 L 707.4,81.4 L 712.2,79.9 L 717.0,75.0 L 721.9,73.0 L 726.7,72.5 L 731.5,72.0 L 736.3,72.0 L 741.1,71.6 L 745.9,68.6 L 750.7,66.1 L 755.6,66.1 L 760.4,65.6 L 765.2,65.6 L 770.0,63.7 L 770.0,340 Z" fill="url(#g1)" clip-path="url(#ca)"/>
<path d="M 72.0,302.1 L 76.8,301.6 L 81.6,301.6 L 86.4,300.2 L 91.3,300.2 L 96.1,299.2 L 100.9,298.2 L 105.7,297.7 L 110.5,295.3 L 115.3,293.3 L 120.1,293.3 L 125.0,293.3 L 129.8,293.3 L 134.6,292.3 L 139.4,292.3 L 144.2,292.3 L 149.0,291.3 L 153.8,289.4 L 158.6,285.9 L 163.5,283.5 L 168.3,282.5 L 173.1,282.0 L 177.9,280.0 L 182.7,274.1 L 187.5,272.1 L 192.3,272.1 L 197.2,267.2 L 202.0,265.8 L 206.8,263.8 L 211.6,262.3 L 216.4,259.4 L 221.2,256.9 L 226.0,256.4 L 230.9,252.5 L 235.7,249.0 L 240.5,249.0 L 245.3,246.6 L 250.1,244.6 L 254.9,244.1 L 259.7,243.6 L 264.6,243.1 L 269.4,241.7 L 274.2,232.8 L 279.0,228.9 L 283.8,226.9 L 288.6,225.9 L 293.4,224.5 L 298.2,221.0 L 303.1,220.0 L 307.9,219.1 L 312.7,216.1 L 317.5,215.1 L 322.3,214.1 L 327.1,214.1 L 331.9,205.3 L 336.8,204.3 L 341.6,203.3 L 346.4,201.3 L 351.2,198.9 L 356.0,198.9 L 360.8,195.0 L 365.6,188.6 L 370.5,187.6 L 375.3,188.1 L 380.1,186.6 L 384.9,186.1 L 389.7,186.1 L 394.5,183.2 L 399.3,180.7 L 404.2,178.7 L 409.0,176.3 L 413.8,175.8 L 418.6,175.8 L 423.4,172.3 L 428.2,171.4 L 433.0,170.9 L 437.8,165.0 L 442.7,164.5 L 447.5,164.5 L 452.3,164.5 L 457.1,164.0 L 461.9,161.5 L 466.7,159.6 L 471.5,157.1 L 476.4,156.6 L 481.2,155.1 L 486.0,150.7 L 490.8,146.8 L 495.6,146.3 L 500.4,145.8 L 505.2,144.3 L 510.1,139.4 L 514.9,138.4 L 519.7,136.9 L 524.5,134.0 L 529.3,133.5 L 534.1,133.0 L 538.9,133.0 L 543.8,132.0 L 548.6,129.1 L 553.4,128.1 L 558.2,127.1 L 563.0,126.6 L 567.8,125.6 L 572.6,120.7 L 577.4,120.2 L 582.3,119.2 L 587.1,118.8 L 591.9,116.3 L 596.7,115.8 L 601.5,115.3 L 606.3,113.8 L 611.1,111.9 L 616.0,111.9 L 620.8,111.9 L 625.6,111.9 L 630.4,110.9 L 635.2,108.4 L 640.0,107.9 L 644.8,105.5 L 649.7,105.0 L 654.5,104.5 L 659.3,101.5 L 664.1,98.6 L 668.9,98.1 L 673.7,97.6 L 678.5,91.2 L 683.4,89.3 L 688.2,87.8 L 693.0,87.3 L 697.8,83.8 L 702.6,83.8 L 707.4,81.4 L 712.2,79.9 L 717.0,75.0 L 721.9,73.0 L 726.7,72.5 L 731.5,72.0 L 736.3,72.0 L 741.1,71.6 L 745.9,68.6 L 750.7,66.1 L 755.6,66.1 L 760.4,65.6 L 765.2,65.6 L 770.0,63.7" fill="none" stroke="#FF6363" stroke-width="2.5" stroke-linejoin="round" clip-path="url(#ca)"/>
<text x="98.5" y="55.0" text-anchor="middle" font-size="9" fill="#FF6363" opacity="0.85" clip-path="url(#ca)">+0.7% (+18)</text>
<text x="189.9" y="55.0" text-anchor="middle" font-size="9" fill="#FF6363" opacity="0.85" clip-path="url(#ca)">+4.0% (+99)</text>
<text x="317.5" y="55.0" text-anchor="middle" font-size="9" fill="#FF6363" opacity="0.85" clip-path="url(#ca)">+4.5% (+117)</text>
<text x="447.5" y="55.0" text-anchor="middle" font-size="9" fill="#FF6363" opacity="0.85" clip-path="url(#ca)">+3.5% (+95)</text>
<text x="577.4" y="55.0" text-anchor="middle" font-size="9" fill="#FF6363" opacity="0.85" clip-path="url(#ca)">+2.2% (+62)</text>
<text x="705.0" y="55.0" text-anchor="middle" font-size="9" fill="#FF6363" opacity="0.85" clip-path="url(#ca)">+2.8% (+81)</text>
<text x="770.0" y="55.0" text-anchor="middle" font-size="9" fill="#FF6363" opacity="0.85" clip-path="url(#ca)">+0.0% (+0)</text>
<rect x="351" y="369" width="12" height="12" fill="#FF6363" rx="2"/>
<text x="367" y="379" font-size="12" fill="#111827">Extensions</text>
<text x="72" y="394" font-size="8" fill="#e5e7eb">data since Dec 11, 2025</text>
</svg>