<svg xmlns="http://www.w3.org/2000/svg" width="800" height="400" viewBox="0 0 800 400">
<defs><style>text { font-family: -apple-system, BlinkMacSystemFont, 'Segoe UI', Roboto, sans-serif; }</style></defs>
<rect width="800" height="400" fill="#ffffff" rx="12"/>
<text x="400" y="26" text-anchor="middle" font-size="15" font-weight="600" fill="#111827">Packages by Last Updated Quarter</text>
<text x="400" y="44" text-anchor="middle" font-size="11" fill="#6b7280">last updated at · 2,988 packages with a known last-update date</text>
<line x1="60" y1="58" x2="60" y2="320" stroke="#e5e7eb" stroke-width="1"/>
<line x1="60" y1="320" x2="770" y2="320" stroke="#e5e7eb" stroke-width="1"/>
<text x="-189" y="18" text-anchor="middle" font-size="12" fill="#6b7280" transform="rotate(-90)">Number of packages</text>
<line x1="60" y1="320.0" x2="770" y2="320.0" stroke="#f3f4f6" stroke-width="1"/>
<text x="54" y="324.0" text-anchor="end" font-size="11" fill="#6b7280">0</text>
<line x1="60" y1="267.4" x2="770" y2="267.4" stroke="#f3f4f6" stroke-width="1"/>
<text x="54" y="271.4" text-anchor="end" font-size="11" fill="#6b7280">116</text>
<line x1="60" y1="215.3" x2="770" y2="215.3" stroke="#f3f4f6" stroke-width="1"/>
<text x="54" y="219.3" text-anchor="end" font-size="11" fill="#6b7280">231</text>
<line x1="60" y1="162.7" x2="770" y2="162.7" stroke="#f3f4f6" stroke-width="1"/>
<text x="54" y="166.7" text-anchor="end" font-size="11" fill="#6b7280">347</text>
<line x1="60" y1="110.6" x2="770" y2="110.6" stroke="#f3f4f6" stroke-width="1"/>
<text x="54" y="114.6" text-anchor="end" font-size="11" fill="#6b7280">462</text>
<line x1="60" y1="58.0" x2="770" y2="58.0" stroke="#f3f4f6" stroke-width="1"/>
<text x="54" y="62.0" text-anchor="end" font-size="11" fill="#6b7280">578</text>
<rect x="66.5" y="314.1" width="24.3" height="5.9" fill="#34C759" rx="3" opacity="0.85"/>
<text x="78.7" y="298.1" text-anchor="middle" font-size="10" fill="#6b7280">13</text>
<text x="78.7" y="310.1" text-anchor="middle" font-size="10" fill="#6b7280">(0.44%)</text>
<g transform="translate(78.7,330.0) rotate(-45)"><text text-anchor="end" font-size="10" fill="#111827">2021-Q4</text></g>
<rect x="103.9" y="307.3" width="24.3" height="12.7" fill="#34C759" rx="3" opacity="0.85"/>
<text x="116.1" y="291.3" text-anchor="middle" font-size="10" fill="#6b7280">28</text>
<text x="116.1" y="303.3" text-anchor="middle" font-size="10" fill="#6b7280">(0.94%)</text>
<g transform="translate(116.1,330.0) rotate(-45)"><text text-anchor="end" font-size="10" fill="#111827">2022-Q1</text></g>
<rect x="141.3" y="304.1" width="24.3" height="15.9" fill="#34C759" rx="3" opacity="0.85"/>
<text x="153.4" y="288.1" text-anchor="middle" font-size="10" fill="#6b7280">35</text>
<text x="153.4" y="300.1" text-anchor="middle" font-size="10" fill="#6b7280">(1.17%)</text>
<g transform="translate(153.4,330.0) rotate(-45)"><text text-anchor="end" font-size="10" fill="#111827">2022-Q2</text></g>
<rect x="178.6" y="302.3" width="24.3" height="17.7" fill="#34C759" rx="3" opacity="0.85"/>
<text x="190.8" y="286.3" text-anchor="middle" font-size="10" fill="#6b7280">39</text>
<text x="190.8" y="298.3" text-anchor="middle" font-size="10" fill="#6b7280">(1.31%)</text>
<g transform="translate(190.8,330.0) rotate(-45)"><text text-anchor="end" font-size="10" fill="#111827">2022-Q3</text></g>
<rect x="216.0" y="291.9" width="24.3" height="28.1" fill="#34C759" rx="3" opacity="0.85"/>
<text x="228.2" y="275.9" text-anchor="middle" font-size="10" fill="#6b7280">62</text>
<text x="228.2" y="287.9" text-anchor="middle" font-size="10" fill="#6b7280">(2.07%)</text>
<g transform="translate(228.2,330.0) rotate(-45)"><text text-anchor="end" font-size="10" fill="#111827">2022-Q4</text></g>
<rect x="253.4" y="280.1" width="24.3" height="39.9" fill="#34C759" rx="3" opacity="0.85"/>
<text x="265.5" y="264.1" text-anchor="middle" font-size="10" fill="#6b7280">88</text>
<text x="265.5" y="276.1" text-anchor="middle" font-size="10" fill="#6b7280">(2.95%)</text>
<g transform="translate(265.5,330.0) rotate(-45)"><text text-anchor="end" font-size="10" fill="#111827">2023-Q1</text></g>
<rect x="290.8" y="279.7" width="24.3" height="40.3" fill="#34C759" rx="3" opacity="0.85"/>
<text x="302.9" y="263.7" text-anchor="middle" font-size="10" fill="#6b7280">89</text>
<text x="302.9" y="275.7" text-anchor="middle" font-size="10" fill="#6b7280">(2.98%)</text>
<g transform="translate(302.9,330.0) rotate(-45)"><text text-anchor="end" font-size="10" fill="#111827">2023-Q2</text></g>
<rect x="328.1" y="282.8" width="24.3" height="37.2" fill="#34C759" rx="3" opacity="0.85"/>
<text x="340.3" y="266.8" text-anchor="middle" font-size="10" fill="#6b7280">82</text>
<text x="340.3" y="278.8" text-anchor="middle" font-size="10" fill="#6b7280">(2.74%)</text>
<g transform="translate(340.3,330.0) rotate(-45)"><text text-anchor="end" font-size="10" fill="#111827">2023-Q3</text></g>
<rect x="365.5" y="291.4" width="24.3" height="28.6" fill="#34C759" rx="3" opacity="0.85"/>
<text x="377.6" y="275.4" text-anchor="middle" font-size="10" fill="#6b7280">63</text>
<text x="377.6" y="287.4" text-anchor="middle" font-size="10" fill="#6b7280">(2.11%)</text>
<g transform="translate(377.6,330.0) rotate(-45)"><text text-anchor="end" font-size="10" fill="#111827">2023-Q4</text></g>
<rect x="402.9" y="269.2" width="24.3" height="50.8" fill="#34C759" rx="3" opacity="0.85"/>
<text x="415.0" y="253.2" text-anchor="middle" font-size="10" fill="#6b7280">112</text>
<text x="415.0" y="265.2" text-anchor="middle" font-size="10" fill="#6b7280">(3.75%)</text>
<g transform="translate(415.0,330.0) rotate(-45)"><text text-anchor="end" font-size="10" fill="#111827">2024-Q1</text></g>
<rect x="440.2" y="262.9" width="24.3" height="57.1" fill="#34C759" rx="3" opacity="0.85"/>
<text x="452.4" y="246.9" text-anchor="middle" font-size="10" fill="#6b7280">126</text>
<text x="452.4" y="258.9" text-anchor="middle" font-size="10" fill="#6b7280">(4.22%)</text>
<g transform="translate(452.4,330.0) rotate(-45)"><text text-anchor="end" font-size="10" fill="#111827">2024-Q2</text></g>
<rect x="477.6" y="264.7" width="24.3" height="55.3" fill="#34C759" rx="3" opacity="0.85"/>
<text x="489.7" y="248.7" text-anchor="middle" font-size="10" fill="#6b7280">122</text>
<text x="489.7" y="260.7" text-anchor="middle" font-size="10" fill="#6b7280">(4.08%)</text>
<g transform="translate(489.7,330.0) rotate(-45)"><text text-anchor="end" font-size="10" fill="#111827">2024-Q3</text></g>
<rect x="515.0" y="268.3" width="24.3" height="51.7" fill="#34C759" rx="3" opacity="0.85"/>
<text x="527.1" y="252.3" text-anchor="middle" font-size="10" fill="#6b7280">114</text>
<text x="527.1" y="264.3" text-anchor="middle" font-size="10" fill="#6b7280">(3.82%)</text>
<g transform="translate(527.1,330.0) rotate(-45)"><text text-anchor="end" font-size="10" fill="#111827">2024-Q4</text></g>
<rect x="552.3" y="233.9" width="24.3" height="86.1" fill="#34C759" rx="3" opacity="0.85"/>
<text x="564.5" y="217.9" text-anchor="middle" font-size="10" fill="#6b7280">190</text>
<text x="564.5" y="229.9" text-anchor="middle" font-size="10" fill="#6b7280">(6.36%)</text>
<g transform="translate(564.5,330.0) rotate(-45)"><text text-anchor="end" font-size="10" fill="#111827">2025-Q1</text></g>
<rect x="589.7" y="226.2" width="24.3" height="93.8" fill="#34C759" rx="3" opacity="0.85"/>
<text x="601.8" y="210.2" text-anchor="middle" font-size="10" fill="#6b7280">207</text>
<text x="601.8" y="222.2" text-anchor="middle" font-size="10" fill="#6b7280">(6.93%)</text>
<g transform="translate(601.8,330.0) rotate(-45)"><text text-anchor="end" font-size="10" fill="#111827">2025-Q2</text></g>
<rect x="627.1" y="229.8" width="24.3" height="90.2" fill="#34C759" rx="3" opacity="0.85"/>
<text x="639.2" y="213.8" text-anchor="middle" font-size="10" fill="#6b7280">199</text>
<text x="639.2" y="225.8" text-anchor="middle" font-size="10" fill="#6b7280">(6.66%)</text>
<g transform="translate(639.2,330.0) rotate(-45)"><text text-anchor="end" font-size="10" fill="#111827">2025-Q3</text></g>
<rect x="664.4" y="189.5" width="24.3" height="130.5" fill="#34C759" rx="3" opacity="0.85"/>
<text x="676.6" y="173.5" text-anchor="middle" font-size="10" fill="#6b7280">288</text>
<text x="676.6" y="185.5" text-anchor="middle" font-size="10" fill="#6b7280">(9.64%)</text>
<g transform="translate(676.6,330.0) rotate(-45)"><text text-anchor="end" font-size="10" fill="#111827">2025-Q4</text></g>
<rect x="701.8" y="69.3" width="24.3" height="250.7" fill="#34C759" rx="3" opacity="0.85"/>
<text x="713.9" y="72.0" text-anchor="middle" font-size="10" fill="#6b7280">553</text>
<text x="713.9" y="84.0" text-anchor="middle" font-size="10" fill="#6b7280">(18.51%)</text>
<g transform="translate(713.9,330.0) rotate(-45)"><text text-anchor="end" font-size="10" fill="#111827">2026-Q1</text></g>
<rect x="739.2" y="58.0" width="24.3" height="262.0" fill="#34C759" rx="3" opacity="0.85"/>
<text x="751.3" y="72.0" text-anchor="middle" font-size="10" fill="#6b7280">578</text>
<text x="751.3" y="84.0" text-anchor="middle" font-size="10" fill="#6b7280">(19.34%)</text>
<g transform="translate(751.3,330.0) rotate(-45)"><text text-anchor="end" font-size="10" fill="#111827">2026-Q2</text></g>
</svg>