<svg xmlns="http://www.w3.org/2000/svg" width="800" height="400" viewBox="0 0 800 400">
<defs>
  <style>text { font-family: -apple-system, BlinkMacSystemFont, 'Segoe UI', Roboto, sans-serif; }</style>
  <linearGradient id="g5" x1="0" y1="0" x2="0" y2="1">
  <stop offset="0%" stop-color="#34C759" stop-opacity="0.25"/>
  <stop offset="100%" stop-color="#34C759" stop-opacity="0"/>
</linearGradient>
<linearGradient id="g6" x1="0" y1="0" x2="0" y2="1">
  <stop offset="0%" stop-color="#4F8EF7" stop-opacity="0.25"/>
  <stop offset="100%" stop-color="#4F8EF7" stop-opacity="0"/>
</linearGradient>
<linearGradient id="g7" x1="0" y1="0" x2="0" y2="1">
  <stop offset="0%" stop-color="#FF6363" stop-opacity="0.25"/>
  <stop offset="100%" stop-color="#FF6363" stop-opacity="0"/>
</linearGradient>
  <clipPath id="ca"><rect x="72" y="45" width="698" height="295"/></clipPath>
</defs>
<rect width="800" height="400" fill="#ffffff" rx="12"/>
<text x="400" y="26" text-anchor="middle" font-size="15" font-weight="600" fill="#111827">Platform Support Over Time</text>
<line x1="72" y1="340.0" x2="770" y2="340.0" stroke="#f3f4f6" stroke-width="1"/>
<text x="66" y="344.0" text-anchor="end" font-size="11" fill="#6b7280">0</text>
<line x1="72" y1="281.0" x2="770" y2="281.0" stroke="#f3f4f6" stroke-width="1"/>
<text x="66" y="285.0" text-anchor="end" font-size="11" fill="#6b7280">200</text>
<line x1="72" y1="222.0" x2="770" y2="222.0" stroke="#f3f4f6" stroke-width="1"/>
<text x="66" y="226.0" text-anchor="end" font-size="11" fill="#6b7280">400</text>
<line x1="72" y1="163.0" x2="770" y2="163.0" stroke="#f3f4f6" stroke-width="1"/>
<text x="66" y="167.0" text-anchor="end" font-size="11" fill="#6b7280">600</text>
<line x1="72" y1="104.0" x2="770" y2="104.0" stroke="#f3f4f6" stroke-width="1"/>
<text x="66" y="108.0" text-anchor="end" font-size="11" fill="#6b7280">800</text>
<line x1="72" y1="45.0" x2="770" y2="45.0" stroke="#f3f4f6" stroke-width="1"/>
<text x="66" y="49.0" text-anchor="end" font-size="11" fill="#6b7280">1.0k</text>
<line x1="119.3" y1="45" x2="119.3" y2="340" stroke="#e5e7eb" stroke-width="1" stroke-dasharray="3,3" clip-path="url(#ca)"/>
<line x1="221.9" y1="45" x2="221.9" y2="340" stroke="#e5e7eb" stroke-width="1" stroke-dasharray="3,3" clip-path="url(#ca)"/>
<line x1="328.3" y1="45" x2="328.3" y2="340" stroke="#e5e7eb" stroke-width="1" stroke-dasharray="3,3" clip-path="url(#ca)"/>
<line x1="434.8" y1="45" x2="434.8" y2="340" stroke="#e5e7eb" stroke-width="1" stroke-dasharray="3,3" clip-path="url(#ca)"/>
<line x1="541.3" y1="45" x2="541.3" y2="340" stroke="#e5e7eb" stroke-width="1" stroke-dasharray="3,3" clip-path="url(#ca)"/>
<line x1="643.8" y1="45" x2="643.8" y2="340" stroke="#e5e7eb" stroke-width="1" stroke-dasharray="3,3" clip-path="url(#ca)"/>
<line x1="738.5" y1="45" x2="738.5" y2="340" stroke="#e5e7eb" stroke-width="1" stroke-dasharray="3,3" clip-path="url(#ca)"/>
<text x="72.0" y="358.0" text-anchor="middle" font-size="11" fill="#6b7280">Dec 11</text>
<text x="210.0" y="358.0" text-anchor="middle" font-size="11" fill="#6b7280">Jan 29</text>
<text x="352.0" y="358.0" text-anchor="middle" font-size="11" fill="#6b7280">Mar 8</text>
<text x="490.0" y="358.0" text-anchor="middle" font-size="11" fill="#6b7280">Apr 16</text>
<text x="632.0" y="358.0" text-anchor="middle" font-size="11" fill="#6b7280">May 29</text>
<text x="770.0" y="358.0" text-anchor="middle" font-size="11" fill="#6b7280">Jul 10</text>
<line x1="72" y1="45" x2="72" y2="340" stroke="#e5e7eb" stroke-width="1"/>
<line x1="72" y1="340" x2="770" y2="340" stroke="#e5e7eb" stroke-width="1"/>
<text x="-192.5" y="18" text-anchor="middle" font-size="12" fill="#6b7280" transform="rotate(-90)">Extensions</text>
<path d="M 72.0,340 L 72.0,242.6 L 75.9,240.0 L 79.9,239.7 L 83.8,238.5 L 87.8,237.9 L 91.7,235.0 L 95.7,233.2 L 99.6,232.3 L 103.5,230.8 L 107.5,229.1 L 111.4,228.2 L 115.4,227.9 L 119.3,227.0 L 123.3,226.4 L 127.2,226.1 L 131.2,225.2 L 135.1,224.4 L 139.0,223.5 L 143.0,222.6 L 146.9,221.4 L 150.9,220.5 L 154.8,219.6 L 158.8,218.8 L 162.7,217.0 L 166.6,216.4 L 170.6,216.4 L 174.5,214.3 L 178.5,213.7 L 182.4,213.2 L 186.4,212.6 L 190.3,211.1 L 194.2,209.0 L 198.2,208.7 L 202.1,208.4 L 206.1,206.7 L 210.0,206.1 L 214.0,204.6 L 217.9,204.3 L 221.9,204.0 L 225.8,203.4 L 229.7,203.4 L 233.7,203.4 L 237.6,199.3 L 241.6,199.0 L 245.5,198.1 L 249.5,197.8 L 253.4,197.5 L 257.3,196.6 L 261.3,196.0 L 265.2,195.4 L 269.2,193.7 L 273.1,193.7 L 277.1,193.7 L 281.0,193.4 L 284.9,190.4 L 288.9,189.6 L 292.8,189.0 L 296.8,188.1 L 300.7,187.5 L 304.7,187.5 L 308.6,186.0 L 312.6,183.9 L 316.5,183.4 L 320.4,183.1 L 324.4,182.2 L 328.3,182.2 L 332.3,181.6 L 336.2,180.7 L 340.2,180.1 L 344.1,178.9 L 348.0,177.8 L 352.0,177.5 L 355.9,177.5 L 359.9,176.3 L 363.8,176.3 L 367.8,176.3 L 371.7,174.5 L 375.6,174.2 L 379.6,173.9 L 383.5,173.9 L 387.5,173.6 L 391.4,172.4 L 395.4,171.9 L 399.3,171.0 L 403.3,171.0 L 407.2,170.7 L 411.1,169.5 L 415.1,168.6 L 419.0,168.6 L 423.0,168.3 L 426.9,167.7 L 430.9,165.7 L 434.8,165.1 L 438.7,164.2 L 442.7,164.2 L 446.6,163.6 L 450.6,163.3 L 454.5,163.0 L 458.5,162.7 L 462.4,162.4 L 466.4,162.4 L 470.3,162.1 L 474.2,161.8 L 478.2,160.9 L 482.1,159.8 L 486.1,159.5 L 490.0,158.6 L 494.0,158.6 L 497.9,157.4 L 501.8,157.1 L 505.8,157.1 L 509.7,157.1 L 513.7,156.2 L 517.6,155.9 L 521.6,155.9 L 525.5,155.9 L 529.4,155.6 L 533.4,154.4 L 537.3,154.2 L 541.3,153.3 L 545.2,152.7 L 549.2,152.7 L 553.1,151.8 L 557.1,151.2 L 561.0,151.2 L 564.9,150.9 L 568.9,149.4 L 572.8,148.0 L 576.8,147.7 L 580.7,147.1 L 584.7,145.9 L 588.6,145.9 L 592.5,145.3 L 596.5,143.8 L 600.4,141.2 L 604.4,140.3 L 608.3,140.3 L 612.3,140.3 L 616.2,140.3 L 620.1,140.3 L 624.1,139.1 L 628.0,138.2 L 632.0,138.2 L 635.9,138.2 L 639.9,138.2 L 643.8,137.3 L 647.8,137.3 L 651.7,136.5 L 655.6,135.6 L 659.6,135.3 L 663.5,135.0 L 667.5,134.4 L 671.4,134.4 L 675.4,133.5 L 679.3,132.3 L 683.2,131.4 L 687.2,129.7 L 691.1,129.1 L 695.1,128.8 L 699.0,128.5 L 703.0,127.9 L 706.9,127.6 L 710.8,126.1 L 714.8,125.2 L 718.7,123.8 L 722.7,123.5 L 726.6,123.5 L 730.6,123.2 L 734.5,122.0 L 738.5,121.7 L 742.4,121.4 L 746.3,121.1 L 750.3,119.9 L 754.2,119.6 L 758.2,118.2 L 762.1,117.3 L 766.1,117.0 L 770.0,115.2 L 770.0,340 Z" fill="url(#g5)" clip-path="url(#ca)"/>
<path d="M 72.0,242.6 L 75.9,240.0 L 79.9,239.7 L 83.8,238.5 L 87.8,237.9 L 91.7,235.0 L 95.7,233.2 L 99.6,232.3 L 103.5,230.8 L 107.5,229.1 L 111.4,228.2 L 115.4,227.9 L 119.3,227.0 L 123.3,226.4 L 127.2,226.1 L 131.2,225.2 L 135.1,224.4 L 139.0,223.5 L 143.0,222.6 L 146.9,221.4 L 150.9,220.5 L 154.8,219.6 L 158.8,218.8 L 162.7,217.0 L 166.6,216.4 L 170.6,216.4 L 174.5,214.3 L 178.5,213.7 L 182.4,213.2 L 186.4,212.6 L 190.3,211.1 L 194.2,209.0 L 198.2,208.7 L 202.1,208.4 L 206.1,206.7 L 210.0,206.1 L 214.0,204.6 L 217.9,204.3 L 221.9,204.0 L 225.8,203.4 L 229.7,203.4 L 233.7,203.4 L 237.6,199.3 L 241.6,199.0 L 245.5,198.1 L 249.5,197.8 L 253.4,197.5 L 257.3,196.6 L 261.3,196.0 L 265.2,195.4 L 269.2,193.7 L 273.1,193.7 L 277.1,193.7 L 281.0,193.4 L 284.9,190.4 L 288.9,189.6 L 292.8,189.0 L 296.8,188.1 L 300.7,187.5 L 304.7,187.5 L 308.6,186.0 L 312.6,183.9 L 316.5,183.4 L 320.4,183.1 L 324.4,182.2 L 328.3,182.2 L 332.3,181.6 L 336.2,180.7 L 340.2,180.1 L 344.1,178.9 L 348.0,177.8 L 352.0,177.5 L 355.9,177.5 L 359.9,176.3 L 363.8,176.3 L 367.8,176.3 L 371.7,174.5 L 375.6,174.2 L 379.6,173.9 L 383.5,173.9 L 387.5,173.6 L 391.4,172.4 L 395.4,171.9 L 399.3,171.0 L 403.3,171.0 L 407.2,170.7 L 411.1,169.5 L 415.1,168.6 L 419.0,168.6 L 423.0,168.3 L 426.9,167.7 L 430.9,165.7 L 434.8,165.1 L 438.7,164.2 L 442.7,164.2 L 446.6,163.6 L 450.6,163.3 L 454.5,163.0 L 458.5,162.7 L 462.4,162.4 L 466.4,162.4 L 470.3,162.1 L 474.2,161.8 L 478.2,160.9 L 482.1,159.8 L 486.1,159.5 L 490.0,158.6 L 494.0,158.6 L 497.9,157.4 L 501.8,157.1 L 505.8,157.1 L 509.7,157.1 L 513.7,156.2 L 517.6,155.9 L 521.6,155.9 L 525.5,155.9 L 529.4,155.6 L 533.4,154.4 L 537.3,154.2 L 541.3,153.3 L 545.2,152.7 L 549.2,152.7 L 553.1,151.8 L 557.1,151.2 L 561.0,151.2 L 564.9,150.9 L 568.9,149.4 L 572.8,148.0 L 576.8,147.7 L 580.7,147.1 L 584.7,145.9 L 588.6,145.9 L 592.5,145.3 L 596.5,143.8 L 600.4,141.2 L 604.4,140.3 L 608.3,140.3 L 612.3,140.3 L 616.2,140.3 L 620.1,140.3 L 624.1,139.1 L 628.0,138.2 L 632.0,138.2 L 635.9,138.2 L 639.9,138.2 L 643.8,137.3 L 647.8,137.3 L 651.7,136.5 L 655.6,135.6 L 659.6,135.3 L 663.5,135.0 L 667.5,134.4 L 671.4,134.4 L 675.4,133.5 L 679.3,132.3 L 683.2,131.4 L 687.2,129.7 L 691.1,129.1 L 695.1,128.8 L 699.0,128.5 L 703.0,127.9 L 706.9,127.6 L 710.8,126.1 L 714.8,125.2 L 718.7,123.8 L 722.7,123.5 L 726.6,123.5 L 730.6,123.2 L 734.5,122.0 L 738.5,121.7 L 742.4,121.4 L 746.3,121.1 L 750.3,119.9 L 754.2,119.6 L 758.2,118.2 L 762.1,117.3 L 766.1,117.0 L 770.0,115.2" fill="none" stroke="#34C759" stroke-width="2.5" stroke-linejoin="round" clip-path="url(#ca)"/>
<path d="M 72.0,340 L 72.0,222.6 L 75.9,222.6 L 79.9,222.3 L 83.8,221.4 L 87.8,221.7 L 91.7,221.7 L 95.7,220.5 L 99.6,219.6 L 103.5,219.6 L 107.5,219.9 L 111.4,219.6 L 115.4,219.3 L 119.3,219.1 L 123.3,219.1 L 127.2,219.1 L 131.2,219.3 L 135.1,218.8 L 139.0,218.2 L 143.0,216.4 L 146.9,215.2 L 150.9,215.2 L 154.8,214.9 L 158.8,213.2 L 162.7,210.5 L 166.6,209.6 L 170.6,209.0 L 174.5,207.0 L 178.5,205.5 L 182.4,204.9 L 186.4,204.3 L 190.3,203.7 L 194.2,203.4 L 198.2,203.4 L 202.1,201.3 L 206.1,200.8 L 210.0,200.2 L 214.0,200.2 L 217.9,198.7 L 221.9,198.4 L 225.8,197.5 L 229.7,196.3 L 233.7,194.9 L 237.6,192.8 L 241.6,190.7 L 245.5,190.4 L 249.5,189.8 L 253.4,189.3 L 257.3,187.5 L 261.3,187.5 L 265.2,186.9 L 269.2,186.0 L 273.1,185.4 L 277.1,184.2 L 281.0,184.5 L 284.9,181.0 L 288.9,180.7 L 292.8,180.4 L 296.8,179.8 L 300.7,178.0 L 304.7,178.0 L 308.6,176.3 L 312.6,174.2 L 316.5,174.2 L 320.4,174.2 L 324.4,173.9 L 328.3,173.6 L 332.3,173.3 L 336.2,171.9 L 340.2,170.1 L 344.1,169.5 L 348.0,168.3 L 352.0,168.3 L 355.9,167.4 L 359.9,165.7 L 363.8,164.8 L 367.8,164.5 L 371.7,162.4 L 375.6,162.1 L 379.6,162.1 L 383.5,161.8 L 387.5,161.8 L 391.4,160.3 L 395.4,159.8 L 399.3,158.9 L 403.3,158.6 L 407.2,158.0 L 411.1,155.6 L 415.1,152.4 L 419.0,152.1 L 423.0,151.5 L 426.9,151.2 L 430.9,149.7 L 434.8,118.5 L 438.7,117.9 L 442.7,116.4 L 446.6,116.4 L 450.6,116.4 L 454.5,116.7 L 458.5,116.4 L 462.4,114.6 L 466.4,114.0 L 470.3,113.7 L 474.2,113.4 L 478.2,112.3 L 482.1,110.5 L 486.1,110.5 L 490.0,110.5 L 494.0,110.2 L 497.9,109.9 L 501.8,109.9 L 505.8,109.3 L 509.7,108.4 L 513.7,106.9 L 517.6,106.4 L 521.6,106.1 L 525.5,106.1 L 529.4,105.8 L 533.4,105.2 L 537.3,104.9 L 541.3,103.4 L 545.2,103.4 L 549.2,102.8 L 553.1,101.6 L 557.1,100.2 L 561.0,99.9 L 564.9,99.6 L 568.9,96.9 L 572.8,96.3 L 576.8,95.7 L 580.7,95.7 L 584.7,94.6 L 588.6,94.0 L 592.5,92.5 L 596.5,91.9 L 600.4,91.0 L 604.4,90.7 L 608.3,89.5 L 612.3,88.7 L 616.2,88.4 L 620.1,87.8 L 624.1,86.6 L 628.0,86.0 L 632.0,85.1 L 635.9,84.5 L 639.9,84.2 L 643.8,83.6 L 647.8,82.8 L 651.7,82.2 L 655.6,81.6 L 659.6,80.7 L 663.5,80.7 L 667.5,80.1 L 671.4,78.6 L 675.4,77.2 L 679.3,76.3 L 683.2,76.6 L 687.2,76.0 L 691.1,75.7 L 695.1,75.4 L 699.0,74.8 L 703.0,73.3 L 706.9,73.3 L 710.8,73.0 L 714.8,72.1 L 718.7,71.3 L 722.7,70.1 L 726.6,69.5 L 730.6,69.5 L 734.5,68.6 L 738.5,68.0 L 742.4,67.4 L 746.3,66.5 L 750.3,65.9 L 754.2,65.9 L 758.2,65.6 L 762.1,66.2 L 766.1,65.6 L 770.0,64.2 L 770.0,340 Z" fill="url(#g6)" clip-path="url(#ca)"/>
<path d="M 72.0,222.6 L 75.9,222.6 L 79.9,222.3 L 83.8,221.4 L 87.8,221.7 L 91.7,221.7 L 95.7,220.5 L 99.6,219.6 L 103.5,219.6 L 107.5,219.9 L 111.4,219.6 L 115.4,219.3 L 119.3,219.1 L 123.3,219.1 L 127.2,219.1 L 131.2,219.3 L 135.1,218.8 L 139.0,218.2 L 143.0,216.4 L 146.9,215.2 L 150.9,215.2 L 154.8,214.9 L 158.8,213.2 L 162.7,210.5 L 166.6,209.6 L 170.6,209.0 L 174.5,207.0 L 178.5,205.5 L 182.4,204.9 L 186.4,204.3 L 190.3,203.7 L 194.2,203.4 L 198.2,203.4 L 202.1,201.3 L 206.1,200.8 L 210.0,200.2 L 214.0,200.2 L 217.9,198.7 L 221.9,198.4 L 225.8,197.5 L 229.7,196.3 L 233.7,194.9 L 237.6,192.8 L 241.6,190.7 L 245.5,190.4 L 249.5,189.8 L 253.4,189.3 L 257.3,187.5 L 261.3,187.5 L 265.2,186.9 L 269.2,186.0 L 273.1,185.4 L 277.1,184.2 L 281.0,184.5 L 284.9,181.0 L 288.9,180.7 L 292.8,180.4 L 296.8,179.8 L 300.7,178.0 L 304.7,178.0 L 308.6,176.3 L 312.6,174.2 L 316.5,174.2 L 320.4,174.2 L 324.4,173.9 L 328.3,173.6 L 332.3,173.3 L 336.2,171.9 L 340.2,170.1 L 344.1,169.5 L 348.0,168.3 L 352.0,168.3 L 355.9,167.4 L 359.9,165.7 L 363.8,164.8 L 367.8,164.5 L 371.7,162.4 L 375.6,162.1 L 379.6,162.1 L 383.5,161.8 L 387.5,161.8 L 391.4,160.3 L 395.4,159.8 L 399.3,158.9 L 403.3,158.6 L 407.2,158.0 L 411.1,155.6 L 415.1,152.4 L 419.0,152.1 L 423.0,151.5 L 426.9,151.2 L 430.9,149.7 L 434.8,118.5 L 438.7,117.9 L 442.7,116.4 L 446.6,116.4 L 450.6,116.4 L 454.5,116.7 L 458.5,116.4 L 462.4,114.6 L 466.4,114.0 L 470.3,113.7 L 474.2,113.4 L 478.2,112.3 L 482.1,110.5 L 486.1,110.5 L 490.0,110.5 L 494.0,110.2 L 497.9,109.9 L 501.8,109.9 L 505.8,109.3 L 509.7,108.4 L 513.7,106.9 L 517.6,106.4 L 521.6,106.1 L 525.5,106.1 L 529.4,105.8 L 533.4,105.2 L 537.3,104.9 L 541.3,103.4 L 545.2,103.4 L 549.2,102.8 L 553.1,101.6 L 557.1,100.2 L 561.0,99.9 L 564.9,99.6 L 568.9,96.9 L 572.8,96.3 L 576.8,95.7 L 580.7,95.7 L 584.7,94.6 L 588.6,94.0 L 592.5,92.5 L 596.5,91.9 L 600.4,91.0 L 604.4,90.7 L 608.3,89.5 L 612.3,88.7 L 616.2,88.4 L 620.1,87.8 L 624.1,86.6 L 628.0,86.0 L 632.0,85.1 L 635.9,84.5 L 639.9,84.2 L 643.8,83.6 L 647.8,82.8 L 651.7,82.2 L 655.6,81.6 L 659.6,80.7 L 663.5,80.7 L 667.5,80.1 L 671.4,78.6 L 675.4,77.2 L 679.3,76.3 L 683.2,76.6 L 687.2,76.0 L 691.1,75.7 L 695.1,75.4 L 699.0,74.8 L 703.0,73.3 L 706.9,73.3 L 710.8,73.0 L 714.8,72.1 L 718.7,71.3 L 722.7,70.1 L 726.6,69.5 L 730.6,69.5 L 734.5,68.6 L 738.5,68.0 L 742.4,67.4 L 746.3,66.5 L 750.3,65.9 L 754.2,65.9 L 758.2,65.6 L 762.1,66.2 L 766.1,65.6 L 770.0,64.2" fill="none" stroke="#4F8EF7" stroke-width="2.5" stroke-linejoin="round" clip-path="url(#ca)"/>
<path d="M 72.0,340 L 72.0,338.2 L 75.9,337.9 L 79.9,337.9 L 83.8,337.6 L 87.8,337.6 L 91.7,337.6 L 95.7,337.6 L 99.6,337.6 L 103.5,337.1 L 107.5,337.1 L 111.4,337.1 L 115.4,337.1 L 119.3,337.1 L 123.3,336.8 L 127.2,336.8 L 131.2,336.8 L 135.1,336.8 L 139.0,336.8 L 143.0,336.5 L 146.9,335.9 L 150.9,335.6 L 154.8,335.6 L 158.8,335.6 L 162.7,335.3 L 166.6,335.3 L 170.6,335.3 L 174.5,335.0 L 178.5,335.0 L 182.4,335.0 L 186.4,334.7 L 190.3,334.7 L 194.2,334.7 L 198.2,334.7 L 202.1,334.4 L 206.1,334.4 L 210.0,334.4 L 214.0,334.4 L 217.9,334.4 L 221.9,334.4 L 225.8,334.4 L 229.7,334.4 L 233.7,334.4 L 237.6,334.4 L 241.6,334.4 L 245.5,334.4 L 249.5,334.4 L 253.4,334.1 L 257.3,334.1 L 261.3,334.1 L 265.2,334.1 L 269.2,334.1 L 273.1,334.1 L 277.1,334.1 L 281.0,334.1 L 284.9,334.1 L 288.9,334.1 L 292.8,334.1 L 296.8,334.1 L 300.7,333.8 L 304.7,333.8 L 308.6,333.8 L 312.6,333.8 L 316.5,333.8 L 320.4,333.8 L 324.4,333.8 L 328.3,333.8 L 332.3,333.8 L 336.2,333.8 L 340.2,333.8 L 344.1,333.8 L 348.0,333.8 L 352.0,333.8 L 355.9,333.8 L 359.9,333.8 L 363.8,333.8 L 367.8,333.8 L 371.7,333.8 L 375.6,333.8 L 379.6,333.8 L 383.5,333.8 L 387.5,333.8 L 391.4,333.8 L 395.4,333.8 L 399.3,333.8 L 403.3,333.8 L 407.2,333.8 L 411.1,333.8 L 415.1,333.8 L 419.0,333.8 L 423.0,333.8 L 426.9,333.8 L 430.9,333.8 L 434.8,333.8 L 438.7,333.8 L 442.7,333.5 L 446.6,333.5 L 450.6,333.5 L 454.5,333.5 L 458.5,333.5 L 462.4,333.2 L 466.4,333.2 L 470.3,333.2 L 474.2,333.2 L 478.2,332.9 L 482.1,332.9 L 486.1,332.6 L 490.0,332.6 L 494.0,332.6 L 497.9,332.6 L 501.8,332.6 L 505.8,332.6 L 509.7,332.6 L 513.7,332.6 L 517.6,332.6 L 521.6,332.6 L 525.5,332.6 L 529.4,332.6 L 533.4,332.6 L 537.3,332.6 L 541.3,332.6 L 545.2,332.6 L 549.2,332.6 L 553.1,332.6 L 557.1,332.6 L 561.0,332.6 L 564.9,332.6 L 568.9,332.6 L 572.8,332.6 L 576.8,332.6 L 580.7,332.6 L 584.7,332.6 L 588.6,332.6 L 592.5,332.6 L 596.5,332.6 L 600.4,332.6 L 604.4,332.6 L 608.3,332.6 L 612.3,332.6 L 616.2,332.6 L 620.1,332.6 L 624.1,332.6 L 628.0,332.6 L 632.0,332.6 L 635.9,332.6 L 639.9,332.6 L 643.8,332.6 L 647.8,332.6 L 651.7,332.6 L 655.6,332.6 L 659.6,332.6 L 663.5,332.6 L 667.5,332.6 L 671.4,332.6 L 675.4,332.3 L 679.3,332.3 L 683.2,332.3 L 687.2,332.3 L 691.1,332.3 L 695.1,332.3 L 699.0,332.3 L 703.0,332.3 L 706.9,332.3 L 710.8,332.3 L 714.8,332.3 L 718.7,332.0 L 722.7,332.0 L 726.6,332.0 L 730.6,332.0 L 734.5,332.0 L 738.5,332.0 L 742.4,332.0 L 746.3,332.0 L 750.3,332.0 L 754.2,332.0 L 758.2,332.0 L 762.1,332.0 L 766.1,332.0 L 770.0,332.0 L 770.0,340 Z" fill="url(#g7)" clip-path="url(#ca)"/>
<path d="M 72.0,338.2 L 75.9,337.9 L 79.9,337.9 L 83.8,337.6 L 87.8,337.6 L 91.7,337.6 L 95.7,337.6 L 99.6,337.6 L 103.5,337.1 L 107.5,337.1 L 111.4,337.1 L 115.4,337.1 L 119.3,337.1 L 123.3,336.8 L 127.2,336.8 L 131.2,336.8 L 135.1,336.8 L 139.0,336.8 L 143.0,336.5 L 146.9,335.9 L 150.9,335.6 L 154.8,335.6 L 158.8,335.6 L 162.7,335.3 L 166.6,335.3 L 170.6,335.3 L 174.5,335.0 L 178.5,335.0 L 182.4,335.0 L 186.4,334.7 L 190.3,334.7 L 194.2,334.7 L 198.2,334.7 L 202.1,334.4 L 206.1,334.4 L 210.0,334.4 L 214.0,334.4 L 217.9,334.4 L 221.9,334.4 L 225.8,334.4 L 229.7,334.4 L 233.7,334.4 L 237.6,334.4 L 241.6,334.4 L 245.5,334.4 L 249.5,334.4 L 253.4,334.1 L 257.3,334.1 L 261.3,334.1 L 265.2,334.1 L 269.2,334.1 L 273.1,334.1 L 277.1,334.1 L 281.0,334.1 L 284.9,334.1 L 288.9,334.1 L 292.8,334.1 L 296.8,334.1 L 300.7,333.8 L 304.7,333.8 L 308.6,333.8 L 312.6,333.8 L 316.5,333.8 L 320.4,333.8 L 324.4,333.8 L 328.3,333.8 L 332.3,333.8 L 336.2,333.8 L 340.2,333.8 L 344.1,333.8 L 348.0,333.8 L 352.0,333.8 L 355.9,333.8 L 359.9,333.8 L 363.8,333.8 L 367.8,333.8 L 371.7,333.8 L 375.6,333.8 L 379.6,333.8 L 383.5,333.8 L 387.5,333.8 L 391.4,333.8 L 395.4,333.8 L 399.3,333.8 L 403.3,333.8 L 407.2,333.8 L 411.1,333.8 L 415.1,333.8 L 419.0,333.8 L 423.0,333.8 L 426.9,333.8 L 430.9,333.8 L 434.8,333.8 L 438.7,333.8 L 442.7,333.5 L 446.6,333.5 L 450.6,333.5 L 454.5,333.5 L 458.5,333.5 L 462.4,333.2 L 466.4,333.2 L 470.3,333.2 L 474.2,333.2 L 478.2,332.9 L 482.1,332.9 L 486.1,332.6 L 490.0,332.6 L 494.0,332.6 L 497.9,332.6 L 501.8,332.6 L 505.8,332.6 L 509.7,332.6 L 513.7,332.6 L 517.6,332.6 L 521.6,332.6 L 525.5,332.6 L 529.4,332.6 L 533.4,332.6 L 537.3,332.6 L 541.3,332.6 L 545.2,332.6 L 549.2,332.6 L 553.1,332.6 L 557.1,332.6 L 561.0,332.6 L 564.9,332.6 L 568.9,332.6 L 572.8,332.6 L 576.8,332.6 L 580.7,332.6 L 584.7,332.6 L 588.6,332.6 L 592.5,332.6 L 596.5,332.6 L 600.4,332.6 L 604.4,332.6 L 608.3,332.6 L 612.3,332.6 L 616.2,332.6 L 620.1,332.6 L 624.1,332.6 L 628.0,332.6 L 632.0,332.6 L 635.9,332.6 L 639.9,332.6 L 643.8,332.6 L 647.8,332.6 L 651.7,332.6 L 655.6,332.6 L 659.6,332.6 L 663.5,332.6 L 667.5,332.6 L 671.4,332.6 L 675.4,332.3 L 679.3,332.3 L 683.2,332.3 L 687.2,332.3 L 691.1,332.3 L 695.1,332.3 L 699.0,332.3 L 703.0,332.3 L 706.9,332.3 L 710.8,332.3 L 714.8,332.3 L 718.7,332.0 L 722.7,332.0 L 726.6,332.0 L 730.6,332.0 L 734.5,332.0 L 738.5,332.0 L 742.4,332.0 L 746.3,332.0 L 750.3,332.0 L 754.2,332.0 L 758.2,332.0 L 762.1,332.0 L 766.1,332.0 L 770.0,332.0" fill="none" stroke="#FF6363" stroke-width="2.5" stroke-linejoin="round" clip-path="url(#ca)"/>
<text x="93.7" y="55.0" text-anchor="middle" font-size="9" fill="#34C759" opacity="0.85" clip-path="url(#ca)">+15.2% (+50)</text>
<text x="93.7" y="66.0" text-anchor="middle" font-size="9" fill="#4F8EF7" opacity="0.85" clip-path="url(#ca)">+2.8% (+11)</text>
<text x="93.7" y="77.0" text-anchor="middle" font-size="9" fill="#FF6363" opacity="0.85" clip-path="url(#ca)">+66.7% (+4)</text>
<text x="168.6" y="55.0" text-anchor="middle" font-size="9" fill="#34C759" opacity="0.85" clip-path="url(#ca)">+20.1% (+77)</text>
<text x="168.6" y="66.0" text-anchor="middle" font-size="9" fill="#4F8EF7" opacity="0.85" clip-path="url(#ca)">+16.8% (+69)</text>
<text x="168.6" y="77.0" text-anchor="middle" font-size="9" fill="#FF6363" opacity="0.85" clip-path="url(#ca)">+90.0% (+9)</text>
<text x="273.1" y="55.0" text-anchor="middle" font-size="9" fill="#34C759" opacity="0.85" clip-path="url(#ca)">+16.1% (+74)</text>
<text x="273.1" y="66.0" text-anchor="middle" font-size="9" fill="#4F8EF7" opacity="0.85" clip-path="url(#ca)">+17.3% (+83)</text>
<text x="273.1" y="77.0" text-anchor="middle" font-size="9" fill="#FF6363" opacity="0.85" clip-path="url(#ca)">+10.5% (+2)</text>
<text x="379.6" y="55.0" text-anchor="middle" font-size="9" fill="#34C759" opacity="0.85" clip-path="url(#ca)">+10.5% (+56)</text>
<text x="379.6" y="66.0" text-anchor="middle" font-size="9" fill="#4F8EF7" opacity="0.85" clip-path="url(#ca)">+14.4% (+81)</text>
<text x="379.6" y="77.0" text-anchor="middle" font-size="9" fill="#FF6363" opacity="0.85" clip-path="url(#ca)">+0.0% (+0)</text>
<text x="486.1" y="55.0" text-anchor="middle" font-size="9" fill="#34C759" opacity="0.85" clip-path="url(#ca)">+6.2% (+37)</text>
<text x="486.1" y="66.0" text-anchor="middle" font-size="9" fill="#4F8EF7" opacity="0.85" clip-path="url(#ca)">+6.1% (+46)</text>
<text x="486.1" y="77.0" text-anchor="middle" font-size="9" fill="#FF6363" opacity="0.85" clip-path="url(#ca)">+19.0% (+4)</text>
<text x="590.6" y="55.0" text-anchor="middle" font-size="9" fill="#34C759" opacity="0.85" clip-path="url(#ca)">+8.1% (+51)</text>
<text x="590.6" y="66.0" text-anchor="middle" font-size="9" fill="#4F8EF7" opacity="0.85" clip-path="url(#ca)">+8.1% (+65)</text>
<text x="590.6" y="77.0" text-anchor="middle" font-size="9" fill="#FF6363" opacity="0.85" clip-path="url(#ca)">+0.0% (+0)</text>
<text x="689.2" y="55.0" text-anchor="middle" font-size="9" fill="#34C759" opacity="0.85" clip-path="url(#ca)">+7.6% (+52)</text>
<text x="689.2" y="66.0" text-anchor="middle" font-size="9" fill="#4F8EF7" opacity="0.85" clip-path="url(#ca)">+5.9% (+51)</text>
<text x="689.2" y="77.0" text-anchor="middle" font-size="9" fill="#FF6363" opacity="0.85" clip-path="url(#ca)">+8.0% (+2)</text>
<text x="754.2" y="55.0" text-anchor="middle" font-size="9" fill="#34C759" opacity="0.85" clip-path="url(#ca)">+3.0% (+22)</text>
<text x="754.2" y="66.0" text-anchor="middle" font-size="9" fill="#4F8EF7" opacity="0.85" clip-path="url(#ca)">+1.4% (+13)</text>
<text x="754.2" y="77.0" text-anchor="middle" font-size="9" fill="#FF6363" opacity="0.85" clip-path="url(#ca)">+0.0% (+0)</text>
<rect x="211" y="369" width="12" height="12" fill="#34C759" rx="2"/>
<text x="227" y="379" font-size="12" fill="#111827">macOS + Windows</text>
<rect x="351" y="369" width="12" height="12" fill="#4F8EF7" rx="2"/>
<text x="367" y="379" font-size="12" fill="#111827">macOS only</text>
<rect x="491" y="369" width="12" height="12" fill="#FF6363" rx="2"/>
<text x="507" y="379" font-size="12" fill="#111827">Windows only</text>
<text x="72" y="394" font-size="8" fill="#e5e7eb">data since Dec 11, 2025</text>
</svg>