<svg xmlns="http://www.w3.org/2000/svg" width="800" height="400" viewBox="0 0 800 400">
<defs>
  <style>text { font-family: -apple-system, BlinkMacSystemFont, 'Segoe UI', Roboto, sans-serif; }</style>
  <linearGradient id="g1" x1="0" y1="0" x2="0" y2="1">
  <stop offset="0%" stop-color="#FF6363" stop-opacity="0.25"/>
  <stop offset="100%" stop-color="#FF6363" stop-opacity="0"/>
</linearGradient>
  <clipPath id="ca"><rect x="72" y="45" width="698" height="295"/></clipPath>
</defs>
<rect width="800" height="400" fill="#ffffff" rx="12"/>
<text x="400" y="26" text-anchor="middle" font-size="15" font-weight="600" fill="#111827">Packages Growth Over Time</text>
<line x1="72" y1="340.0" x2="770" y2="340.0" stroke="#f3f4f6" stroke-width="1"/>
<text x="66" y="344.0" text-anchor="end" font-size="11" fill="#6b7280">2.4k</text>
<line x1="72" y1="241.7" x2="770" y2="241.7" stroke="#f3f4f6" stroke-width="1"/>
<text x="66" y="245.7" text-anchor="end" font-size="11" fill="#6b7280">2.6k</text>
<line x1="72" y1="143.3" x2="770" y2="143.3" stroke="#f3f4f6" stroke-width="1"/>
<text x="66" y="147.3" text-anchor="end" font-size="11" fill="#6b7280">2.8k</text>
<line x1="72" y1="45.0" x2="770" y2="45.0" stroke="#f3f4f6" stroke-width="1"/>
<text x="66" y="49.0" text-anchor="end" font-size="11" fill="#6b7280">3.0k</text>
<line x1="126.7" y1="45" x2="126.7" y2="340" stroke="#e5e7eb" stroke-width="1" stroke-dasharray="3,3" clip-path="url(#ca)"/>
<line x1="245.4" y1="45" x2="245.4" y2="340" stroke="#e5e7eb" stroke-width="1" stroke-dasharray="3,3" clip-path="url(#ca)"/>
<line x1="368.5" y1="45" x2="368.5" y2="340" stroke="#e5e7eb" stroke-width="1" stroke-dasharray="3,3" clip-path="url(#ca)"/>
<line x1="491.7" y1="45" x2="491.7" y2="340" stroke="#e5e7eb" stroke-width="1" stroke-dasharray="3,3" clip-path="url(#ca)"/>
<line x1="614.9" y1="45" x2="614.9" y2="340" stroke="#e5e7eb" stroke-width="1" stroke-dasharray="3,3" clip-path="url(#ca)"/>
<line x1="733.5" y1="45" x2="733.5" y2="340" stroke="#e5e7eb" stroke-width="1" stroke-dasharray="3,3" clip-path="url(#ca)"/>
<text x="72.0" y="358.0" text-anchor="middle" font-size="11" fill="#6b7280">Dec 11</text>
<text x="213.4" y="358.0" text-anchor="middle" font-size="11" fill="#6b7280">Jan 25</text>
<text x="350.3" y="358.0" text-anchor="middle" font-size="11" fill="#6b7280">Feb 25</text>
<text x="491.7" y="358.0" text-anchor="middle" font-size="11" fill="#6b7280">Apr 1</text>
<text x="628.6" y="358.0" text-anchor="middle" font-size="11" fill="#6b7280">May 6</text>
<text x="770.0" y="358.0" text-anchor="middle" font-size="11" fill="#6b7280">Jun 11</text>
<line x1="72" y1="45" x2="72" y2="340" stroke="#e5e7eb" stroke-width="1"/>
<line x1="72" y1="340" x2="770" y2="340" stroke="#e5e7eb" stroke-width="1"/>
<text x="-192.5" y="18" text-anchor="middle" font-size="12" fill="#6b7280" transform="rotate(-90)">Extensions</text>
<path d="M 72.0,340 L 72.0,302.1 L 76.6,301.6 L 81.1,301.6 L 85.7,300.2 L 90.2,300.2 L 94.8,299.2 L 99.4,298.2 L 103.9,297.7 L 108.5,295.3 L 113.1,293.3 L 117.6,293.3 L 122.2,293.3 L 126.7,293.3 L 131.3,292.3 L 135.9,292.3 L 140.4,292.3 L 145.0,291.3 L 149.6,289.4 L 154.1,285.9 L 158.7,283.5 L 163.2,282.5 L 167.8,282.0 L 172.4,280.0 L 176.9,274.1 L 181.5,272.1 L 186.1,272.1 L 190.6,267.2 L 195.2,265.8 L 199.7,263.8 L 204.3,262.3 L 208.9,259.4 L 213.4,256.9 L 218.0,256.4 L 222.5,252.5 L 227.1,249.0 L 231.7,249.0 L 236.2,246.6 L 240.8,244.6 L 245.4,244.1 L 249.9,243.6 L 254.5,243.1 L 259.0,241.7 L 263.6,232.8 L 268.2,228.9 L 272.7,226.9 L 277.3,225.9 L 281.9,224.5 L 286.4,221.0 L 291.0,220.0 L 295.5,219.1 L 300.1,216.1 L 304.7,215.1 L 309.2,214.1 L 313.8,214.1 L 318.4,205.3 L 322.9,204.3 L 327.5,203.3 L 332.0,201.3 L 336.6,198.9 L 341.2,198.9 L 345.7,195.0 L 350.3,188.6 L 354.8,187.6 L 359.4,188.1 L 364.0,186.6 L 368.5,186.1 L 373.1,186.1 L 377.7,183.2 L 382.2,180.7 L 386.8,178.7 L 391.3,176.3 L 395.9,175.8 L 400.5,175.8 L 405.0,172.3 L 409.6,171.4 L 414.2,170.9 L 418.7,165.0 L 423.3,164.5 L 427.8,164.5 L 432.4,164.5 L 437.0,164.0 L 441.5,161.5 L 446.1,159.6 L 450.7,157.1 L 455.2,156.6 L 459.8,155.1 L 464.3,150.7 L 468.9,146.8 L 473.5,146.3 L 478.0,145.8 L 482.6,144.3 L 487.2,139.4 L 491.7,138.4 L 496.3,136.9 L 500.8,134.0 L 505.4,133.5 L 510.0,133.0 L 514.5,133.0 L 519.1,132.0 L 523.6,129.1 L 528.2,128.1 L 532.8,127.1 L 537.3,126.6 L 541.9,125.6 L 546.5,120.7 L 551.0,120.2 L 555.6,119.2 L 560.1,118.8 L 564.7,116.3 L 569.3,115.8 L 573.8,115.3 L 578.4,113.8 L 583.0,111.9 L 587.5,111.9 L 592.1,111.9 L 596.6,111.9 L 601.2,110.9 L 605.8,108.4 L 610.3,107.9 L 614.9,105.5 L 619.5,105.0 L 624.0,104.5 L 628.6,101.5 L 633.1,98.6 L 637.7,98.1 L 642.3,97.6 L 646.8,91.2 L 651.4,89.3 L 655.9,87.8 L 660.5,87.3 L 665.1,83.8 L 669.6,83.8 L 674.2,81.4 L 678.8,79.9 L 683.3,75.0 L 687.9,73.0 L 692.4,72.5 L 697.0,72.0 L 701.6,72.0 L 706.1,71.6 L 710.7,68.6 L 715.3,66.1 L 719.8,66.1 L 724.4,65.6 L 728.9,65.6 L 733.5,63.7 L 738.1,62.7 L 742.6,61.2 L 747.2,59.8 L 751.8,57.8 L 756.3,57.8 L 760.9,56.3 L 765.4,54.3 L 770.0,50.4 L 770.0,340 Z" fill="url(#g1)" clip-path="url(#ca)"/>
<path d="M 72.0,302.1 L 76.6,301.6 L 81.1,301.6 L 85.7,300.2 L 90.2,300.2 L 94.8,299.2 L 99.4,298.2 L 103.9,297.7 L 108.5,295.3 L 113.1,293.3 L 117.6,293.3 L 122.2,293.3 L 126.7,293.3 L 131.3,292.3 L 135.9,292.3 L 140.4,292.3 L 145.0,291.3 L 149.6,289.4 L 154.1,285.9 L 158.7,283.5 L 163.2,282.5 L 167.8,282.0 L 172.4,280.0 L 176.9,274.1 L 181.5,272.1 L 186.1,272.1 L 190.6,267.2 L 195.2,265.8 L 199.7,263.8 L 204.3,262.3 L 208.9,259.4 L 213.4,256.9 L 218.0,256.4 L 222.5,252.5 L 227.1,249.0 L 231.7,249.0 L 236.2,246.6 L 240.8,244.6 L 245.4,244.1 L 249.9,243.6 L 254.5,243.1 L 259.0,241.7 L 263.6,232.8 L 268.2,228.9 L 272.7,226.9 L 277.3,225.9 L 281.9,224.5 L 286.4,221.0 L 291.0,220.0 L 295.5,219.1 L 300.1,216.1 L 304.7,215.1 L 309.2,214.1 L 313.8,214.1 L 318.4,205.3 L 322.9,204.3 L 327.5,203.3 L 332.0,201.3 L 336.6,198.9 L 341.2,198.9 L 345.7,195.0 L 350.3,188.6 L 354.8,187.6 L 359.4,188.1 L 364.0,186.6 L 368.5,186.1 L 373.1,186.1 L 377.7,183.2 L 382.2,180.7 L 386.8,178.7 L 391.3,176.3 L 395.9,175.8 L 400.5,175.8 L 405.0,172.3 L 409.6,171.4 L 414.2,170.9 L 418.7,165.0 L 423.3,164.5 L 427.8,164.5 L 432.4,164.5 L 437.0,164.0 L 441.5,161.5 L 446.1,159.6 L 450.7,157.1 L 455.2,156.6 L 459.8,155.1 L 464.3,150.7 L 468.9,146.8 L 473.5,146.3 L 478.0,145.8 L 482.6,144.3 L 487.2,139.4 L 491.7,138.4 L 496.3,136.9 L 500.8,134.0 L 505.4,133.5 L 510.0,133.0 L 514.5,133.0 L 519.1,132.0 L 523.6,129.1 L 528.2,128.1 L 532.8,127.1 L 537.3,126.6 L 541.9,125.6 L 546.5,120.7 L 551.0,120.2 L 555.6,119.2 L 560.1,118.8 L 564.7,116.3 L 569.3,115.8 L 573.8,115.3 L 578.4,113.8 L 583.0,111.9 L 587.5,111.9 L 592.1,111.9 L 596.6,111.9 L 601.2,110.9 L 605.8,108.4 L 610.3,107.9 L 614.9,105.5 L 619.5,105.0 L 624.0,104.5 L 628.6,101.5 L 633.1,98.6 L 637.7,98.1 L 642.3,97.6 L 646.8,91.2 L 651.4,89.3 L 655.9,87.8 L 660.5,87.3 L 665.1,83.8 L 669.6,83.8 L 674.2,81.4 L 678.8,79.9 L 683.3,75.0 L 687.9,73.0 L 692.4,72.5 L 697.0,72.0 L 701.6,72.0 L 706.1,71.6 L 710.7,68.6 L 715.3,66.1 L 719.8,66.1 L 724.4,65.6 L 728.9,65.6 L 733.5,63.7 L 738.1,62.7 L 742.6,61.2 L 747.2,59.8 L 751.8,57.8 L 756.3,57.8 L 760.9,56.3 L 765.4,54.3 L 770.0,50.4" fill="none" stroke="#FF6363" stroke-width="2.5" stroke-linejoin="round" clip-path="url(#ca)"/>
<text x="97.1" y="55.0" text-anchor="middle" font-size="9" fill="#FF6363" opacity="0.85" clip-path="url(#ca)">+0.7% (+18)</text>
<text x="183.8" y="55.0" text-anchor="middle" font-size="9" fill="#FF6363" opacity="0.85" clip-path="url(#ca)">+4.0% (+99)</text>
<text x="304.7" y="55.0" text-anchor="middle" font-size="9" fill="#FF6363" opacity="0.85" clip-path="url(#ca)">+4.5% (+117)</text>
<text x="427.8" y="55.0" text-anchor="middle" font-size="9" fill="#FF6363" opacity="0.85" clip-path="url(#ca)">+3.5% (+95)</text>
<text x="551.0" y="55.0" text-anchor="middle" font-size="9" fill="#FF6363" opacity="0.85" clip-path="url(#ca)">+2.2% (+62)</text>
<text x="671.9" y="55.0" text-anchor="middle" font-size="9" fill="#FF6363" opacity="0.85" clip-path="url(#ca)">+2.8% (+81)</text>
<text x="751.8" y="55.0" text-anchor="middle" font-size="9" fill="#FF6363" opacity="0.85" clip-path="url(#ca)">+0.9% (+27)</text>
<rect x="351" y="369" width="12" height="12" fill="#FF6363" rx="2"/>
<text x="367" y="379" font-size="12" fill="#111827">Extensions</text>
<text x="72" y="394" font-size="8" fill="#e5e7eb">data since Dec 11, 2025</text>
</svg>