<svg xmlns="http://www.w3.org/2000/svg" width="800" height="400" viewBox="0 0 800 400">
<defs><style>text { font-family: -apple-system, BlinkMacSystemFont, 'Segoe UI', Roboto, sans-serif; }</style></defs>
<rect width="800" height="400" fill="#ffffff" rx="12"/>
<text x="400" y="26" text-anchor="middle" font-size="15" font-weight="600" fill="#111827">Packages by Last Updated Quarter</text>
<text x="400" y="44" text-anchor="middle" font-size="11" fill="#6b7280">last updated at · 2,823 packages with a known last-update date</text>
<line x1="60" y1="58" x2="60" y2="320" stroke="#e5e7eb" stroke-width="1"/>
<line x1="60" y1="320" x2="770" y2="320" stroke="#e5e7eb" stroke-width="1"/>
<text x="-189" y="18" text-anchor="middle" font-size="12" fill="#6b7280" transform="rotate(-90)">Number of packages</text>
<line x1="60" y1="320.0" x2="770" y2="320.0" stroke="#f3f4f6" stroke-width="1"/>
<text x="54" y="324.0" text-anchor="end" font-size="11" fill="#6b7280">0</text>
<line x1="60" y1="267.5" x2="770" y2="267.5" stroke="#f3f4f6" stroke-width="1"/>
<text x="54" y="271.5" text-anchor="end" font-size="11" fill="#6b7280">146</text>
<line x1="60" y1="215.3" x2="770" y2="215.3" stroke="#f3f4f6" stroke-width="1"/>
<text x="54" y="219.3" text-anchor="end" font-size="11" fill="#6b7280">291</text>
<line x1="60" y1="162.7" x2="770" y2="162.7" stroke="#f3f4f6" stroke-width="1"/>
<text x="54" y="166.7" text-anchor="end" font-size="11" fill="#6b7280">437</text>
<line x1="60" y1="110.5" x2="770" y2="110.5" stroke="#f3f4f6" stroke-width="1"/>
<text x="54" y="114.5" text-anchor="end" font-size="11" fill="#6b7280">582</text>
<line x1="60" y1="58.0" x2="770" y2="58.0" stroke="#f3f4f6" stroke-width="1"/>
<text x="54" y="62.0" text-anchor="end" font-size="11" fill="#6b7280">728</text>
<rect x="66.5" y="315.0" width="24.3" height="5.0" fill="#34C759" rx="3" opacity="0.85"/>
<text x="78.7" y="299.0" text-anchor="middle" font-size="10" fill="#6b7280">14</text>
<text x="78.7" y="311.0" text-anchor="middle" font-size="10" fill="#6b7280">(0.50%)</text>
<g transform="translate(78.7,330.0) rotate(-45)"><text text-anchor="end" font-size="10" fill="#111827">2021-Q4</text></g>
<rect x="103.9" y="309.6" width="24.3" height="10.4" fill="#34C759" rx="3" opacity="0.85"/>
<text x="116.1" y="293.6" text-anchor="middle" font-size="10" fill="#6b7280">29</text>
<text x="116.1" y="305.6" text-anchor="middle" font-size="10" fill="#6b7280">(1.03%)</text>
<g transform="translate(116.1,330.0) rotate(-45)"><text text-anchor="end" font-size="10" fill="#111827">2022-Q1</text></g>
<rect x="141.3" y="307.0" width="24.3" height="13.0" fill="#34C759" rx="3" opacity="0.85"/>
<text x="153.4" y="291.0" text-anchor="middle" font-size="10" fill="#6b7280">36</text>
<text x="153.4" y="303.0" text-anchor="middle" font-size="10" fill="#6b7280">(1.28%)</text>
<g transform="translate(153.4,330.0) rotate(-45)"><text text-anchor="end" font-size="10" fill="#111827">2022-Q2</text></g>
<rect x="178.6" y="304.9" width="24.3" height="15.1" fill="#34C759" rx="3" opacity="0.85"/>
<text x="190.8" y="288.9" text-anchor="middle" font-size="10" fill="#6b7280">42</text>
<text x="190.8" y="300.9" text-anchor="middle" font-size="10" fill="#6b7280">(1.49%)</text>
<g transform="translate(190.8,330.0) rotate(-45)"><text text-anchor="end" font-size="10" fill="#111827">2022-Q3</text></g>
<rect x="216.0" y="297.3" width="24.3" height="22.7" fill="#34C759" rx="3" opacity="0.85"/>
<text x="228.2" y="281.3" text-anchor="middle" font-size="10" fill="#6b7280">63</text>
<text x="228.2" y="293.3" text-anchor="middle" font-size="10" fill="#6b7280">(2.23%)</text>
<g transform="translate(228.2,330.0) rotate(-45)"><text text-anchor="end" font-size="10" fill="#111827">2022-Q4</text></g>
<rect x="253.4" y="287.3" width="24.3" height="32.8" fill="#34C759" rx="3" opacity="0.85"/>
<text x="265.5" y="271.3" text-anchor="middle" font-size="10" fill="#6b7280">91</text>
<text x="265.5" y="283.3" text-anchor="middle" font-size="10" fill="#6b7280">(3.22%)</text>
<g transform="translate(265.5,330.0) rotate(-45)"><text text-anchor="end" font-size="10" fill="#111827">2023-Q1</text></g>
<rect x="290.8" y="287.3" width="24.3" height="32.8" fill="#34C759" rx="3" opacity="0.85"/>
<text x="302.9" y="271.3" text-anchor="middle" font-size="10" fill="#6b7280">91</text>
<text x="302.9" y="283.3" text-anchor="middle" font-size="10" fill="#6b7280">(3.22%)</text>
<g transform="translate(302.9,330.0) rotate(-45)"><text text-anchor="end" font-size="10" fill="#111827">2023-Q2</text></g>
<rect x="328.1" y="288.3" width="24.3" height="31.7" fill="#34C759" rx="3" opacity="0.85"/>
<text x="340.3" y="272.3" text-anchor="middle" font-size="10" fill="#6b7280">88</text>
<text x="340.3" y="284.3" text-anchor="middle" font-size="10" fill="#6b7280">(3.12%)</text>
<g transform="translate(340.3,330.0) rotate(-45)"><text text-anchor="end" font-size="10" fill="#111827">2023-Q3</text></g>
<rect x="365.5" y="295.2" width="24.3" height="24.8" fill="#34C759" rx="3" opacity="0.85"/>
<text x="377.6" y="279.2" text-anchor="middle" font-size="10" fill="#6b7280">69</text>
<text x="377.6" y="291.2" text-anchor="middle" font-size="10" fill="#6b7280">(2.44%)</text>
<g transform="translate(377.6,330.0) rotate(-45)"><text text-anchor="end" font-size="10" fill="#111827">2023-Q4</text></g>
<rect x="402.9" y="276.1" width="24.3" height="43.9" fill="#34C759" rx="3" opacity="0.85"/>
<text x="415.0" y="260.1" text-anchor="middle" font-size="10" fill="#6b7280">122</text>
<text x="415.0" y="272.1" text-anchor="middle" font-size="10" fill="#6b7280">(4.32%)</text>
<g transform="translate(415.0,330.0) rotate(-45)"><text text-anchor="end" font-size="10" fill="#111827">2024-Q1</text></g>
<rect x="440.2" y="271.1" width="24.3" height="48.9" fill="#34C759" rx="3" opacity="0.85"/>
<text x="452.4" y="255.1" text-anchor="middle" font-size="10" fill="#6b7280">136</text>
<text x="452.4" y="267.1" text-anchor="middle" font-size="10" fill="#6b7280">(4.82%)</text>
<g transform="translate(452.4,330.0) rotate(-45)"><text text-anchor="end" font-size="10" fill="#111827">2024-Q2</text></g>
<rect x="477.6" y="272.5" width="24.3" height="47.5" fill="#34C759" rx="3" opacity="0.85"/>
<text x="489.7" y="256.5" text-anchor="middle" font-size="10" fill="#6b7280">132</text>
<text x="489.7" y="268.5" text-anchor="middle" font-size="10" fill="#6b7280">(4.68%)</text>
<g transform="translate(489.7,330.0) rotate(-45)"><text text-anchor="end" font-size="10" fill="#111827">2024-Q3</text></g>
<rect x="515.0" y="271.1" width="24.3" height="48.9" fill="#34C759" rx="3" opacity="0.85"/>
<text x="527.1" y="255.1" text-anchor="middle" font-size="10" fill="#6b7280">136</text>
<text x="527.1" y="267.1" text-anchor="middle" font-size="10" fill="#6b7280">(4.82%)</text>
<g transform="translate(527.1,330.0) rotate(-45)"><text text-anchor="end" font-size="10" fill="#111827">2024-Q4</text></g>
<rect x="552.3" y="245.5" width="24.3" height="74.5" fill="#34C759" rx="3" opacity="0.85"/>
<text x="564.5" y="229.5" text-anchor="middle" font-size="10" fill="#6b7280">207</text>
<text x="564.5" y="241.5" text-anchor="middle" font-size="10" fill="#6b7280">(7.33%)</text>
<g transform="translate(564.5,330.0) rotate(-45)"><text text-anchor="end" font-size="10" fill="#111827">2025-Q1</text></g>
<rect x="589.7" y="238.3" width="24.3" height="81.7" fill="#34C759" rx="3" opacity="0.85"/>
<text x="601.8" y="222.3" text-anchor="middle" font-size="10" fill="#6b7280">227</text>
<text x="601.8" y="234.3" text-anchor="middle" font-size="10" fill="#6b7280">(8.04%)</text>
<g transform="translate(601.8,330.0) rotate(-45)"><text text-anchor="end" font-size="10" fill="#111827">2025-Q2</text></g>
<rect x="627.1" y="239.7" width="24.3" height="80.3" fill="#34C759" rx="3" opacity="0.85"/>
<text x="639.2" y="223.7" text-anchor="middle" font-size="10" fill="#6b7280">223</text>
<text x="639.2" y="235.7" text-anchor="middle" font-size="10" fill="#6b7280">(7.90%)</text>
<g transform="translate(639.2,330.0) rotate(-45)"><text text-anchor="end" font-size="10" fill="#111827">2025-Q3</text></g>
<rect x="664.4" y="202.7" width="24.3" height="117.3" fill="#34C759" rx="3" opacity="0.85"/>
<text x="676.6" y="186.7" text-anchor="middle" font-size="10" fill="#6b7280">326</text>
<text x="676.6" y="198.7" text-anchor="middle" font-size="10" fill="#6b7280">(11.55%)</text>
<g transform="translate(676.6,330.0) rotate(-45)"><text text-anchor="end" font-size="10" fill="#111827">2025-Q4</text></g>
<rect x="701.8" y="58.0" width="24.3" height="262.0" fill="#34C759" rx="3" opacity="0.85"/>
<text x="713.9" y="72.0" text-anchor="middle" font-size="10" fill="#6b7280">728</text>
<text x="713.9" y="84.0" text-anchor="middle" font-size="10" fill="#6b7280">(25.79%)</text>
<g transform="translate(713.9,330.0) rotate(-45)"><text text-anchor="end" font-size="10" fill="#111827">2026-Q1</text></g>
<rect x="739.2" y="297.3" width="24.3" height="22.7" fill="#34C759" rx="3" opacity="0.85"/>
<text x="751.3" y="281.3" text-anchor="middle" font-size="10" fill="#6b7280">63</text>
<text x="751.3" y="293.3" text-anchor="middle" font-size="10" fill="#6b7280">(2.23%)</text>
<g transform="translate(751.3,330.0) rotate(-45)"><text text-anchor="end" font-size="10" fill="#111827">2026-Q2</text></g>
</svg>