<svg xmlns="http://www.w3.org/2000/svg" width="800" height="400" viewBox="0 0 800 400">
<defs>
  <style>text { font-family: -apple-system, BlinkMacSystemFont, 'Segoe UI', Roboto, sans-serif; }</style>
  <linearGradient id="g2" x1="0" y1="0" x2="0" y2="1">
  <stop offset="0%" stop-color="#4F8EF7" stop-opacity="0.25"/>
  <stop offset="100%" stop-color="#4F8EF7" stop-opacity="0"/>
</linearGradient>
<linearGradient id="g3" x1="0" y1="0" x2="0" y2="1">
  <stop offset="0%" stop-color="#BF5AF2" stop-opacity="0.25"/>
  <stop offset="100%" stop-color="#BF5AF2" stop-opacity="0"/>
</linearGradient>
<linearGradient id="g4" x1="0" y1="0" x2="0" y2="1">
  <stop offset="0%" stop-color="#34C759" stop-opacity="0.25"/>
  <stop offset="100%" stop-color="#34C759" stop-opacity="0"/>
</linearGradient>
  <clipPath id="ca"><rect x="72" y="45" width="698" height="295"/></clipPath>
</defs>
<rect width="800" height="400" fill="#ffffff" rx="12"/>
<text x="400" y="26" text-anchor="middle" font-size="15" font-weight="600" fill="#111827">Community Growth Over Time</text>
<line x1="72" y1="340.0" x2="770" y2="340.0" stroke="#f3f4f6" stroke-width="1"/>
<text x="66" y="344.0" text-anchor="end" font-size="11" fill="#6b7280">500</text>
<line x1="72" y1="241.7" x2="770" y2="241.7" stroke="#f3f4f6" stroke-width="1"/>
<text x="66" y="245.7" text-anchor="end" font-size="11" fill="#6b7280">1.0k</text>
<line x1="72" y1="143.3" x2="770" y2="143.3" stroke="#f3f4f6" stroke-width="1"/>
<text x="66" y="147.3" text-anchor="end" font-size="11" fill="#6b7280">1.5k</text>
<line x1="72" y1="45.0" x2="770" y2="45.0" stroke="#f3f4f6" stroke-width="1"/>
<text x="66" y="49.0" text-anchor="end" font-size="11" fill="#6b7280">2.0k</text>
<line x1="152.5" y1="45" x2="152.5" y2="340" stroke="#e5e7eb" stroke-width="1" stroke-dasharray="3,3" clip-path="url(#ca)"/>
<line x1="327.0" y1="45" x2="327.0" y2="340" stroke="#e5e7eb" stroke-width="1" stroke-dasharray="3,3" clip-path="url(#ca)"/>
<line x1="508.3" y1="45" x2="508.3" y2="340" stroke="#e5e7eb" stroke-width="1" stroke-dasharray="3,3" clip-path="url(#ca)"/>
<line x1="689.5" y1="45" x2="689.5" y2="340" stroke="#e5e7eb" stroke-width="1" stroke-dasharray="3,3" clip-path="url(#ca)"/>
<text x="72.0" y="358.0" text-anchor="middle" font-size="11" fill="#6b7280">Dec 11</text>
<text x="212.9" y="358.0" text-anchor="middle" font-size="11" fill="#6b7280">Jan 14</text>
<text x="353.9" y="358.0" text-anchor="middle" font-size="11" fill="#6b7280">Feb 5</text>
<text x="488.1" y="358.0" text-anchor="middle" font-size="11" fill="#6b7280">Feb 26</text>
<text x="629.1" y="358.0" text-anchor="middle" font-size="11" fill="#6b7280">Mar 20</text>
<text x="770.0" y="358.0" text-anchor="middle" font-size="11" fill="#6b7280">Apr 14</text>
<line x1="72" y1="45" x2="72" y2="340" stroke="#e5e7eb" stroke-width="1"/>
<line x1="72" y1="340" x2="770" y2="340" stroke="#e5e7eb" stroke-width="1"/>
<text x="-192.5" y="18" text-anchor="middle" font-size="12" fill="#6b7280" transform="rotate(-90)">People</text>
<path d="M 72.0,340 L 72.0,120.1 L 78.7,120.1 L 85.4,120.1 L 92.1,119.5 L 98.8,119.5 L 105.6,119.1 L 112.3,118.9 L 119.0,119.1 L 125.7,118.6 L 132.4,118.6 L 139.1,118.6 L 145.8,118.6 L 152.5,118.6 L 159.3,118.6 L 166.0,118.6 L 172.7,118.6 L 179.4,118.4 L 186.1,117.8 L 192.8,116.6 L 199.5,116.0 L 206.2,115.8 L 212.9,115.8 L 219.7,115.2 L 226.4,113.8 L 233.1,113.0 L 239.8,113.0 L 246.5,112.1 L 253.2,111.7 L 259.9,110.9 L 266.6,110.3 L 273.3,109.7 L 280.1,109.1 L 286.8,109.1 L 293.5,107.7 L 300.2,106.9 L 306.9,106.9 L 313.6,106.2 L 320.3,105.8 L 327.0,105.6 L 333.8,105.4 L 340.5,105.4 L 347.2,104.8 L 353.9,102.4 L 360.6,101.0 L 367.3,100.3 L 374.0,100.1 L 380.7,99.7 L 387.4,98.9 L 394.2,98.5 L 400.9,98.1 L 407.6,97.7 L 414.3,97.3 L 421.0,96.9 L 427.7,96.9 L 434.4,95.0 L 441.1,95.0 L 447.8,94.8 L 454.6,94.6 L 461.3,94.2 L 468.0,94.2 L 474.7,93.2 L 481.4,92.0 L 488.1,91.6 L 494.8,92.0 L 501.5,91.8 L 508.3,91.6 L 515.0,91.6 L 521.7,91.2 L 528.4,90.4 L 535.1,90.0 L 541.8,89.6 L 548.5,89.4 L 555.2,89.4 L 561.9,88.7 L 568.7,88.3 L 575.4,88.3 L 582.1,86.7 L 588.8,86.7 L 595.5,86.7 L 602.2,86.7 L 608.9,86.5 L 615.6,85.9 L 622.3,85.1 L 629.1,84.7 L 635.8,84.7 L 642.5,84.3 L 649.2,82.8 L 655.9,81.8 L 662.6,81.6 L 669.3,81.4 L 676.0,80.8 L 682.8,79.6 L 689.5,79.2 L 696.2,78.8 L 702.9,77.6 L 709.6,77.4 L 716.3,77.4 L 723.0,77.4 L 729.7,77.3 L 736.4,76.1 L 743.2,75.9 L 749.9,75.7 L 756.6,75.7 L 763.3,75.3 L 770.0,73.7 L 770.0,340 Z" fill="url(#g2)" clip-path="url(#ca)"/>
<path d="M 72.0,120.1 L 78.7,120.1 L 85.4,120.1 L 92.1,119.5 L 98.8,119.5 L 105.6,119.1 L 112.3,118.9 L 119.0,119.1 L 125.7,118.6 L 132.4,118.6 L 139.1,118.6 L 145.8,118.6 L 152.5,118.6 L 159.3,118.6 L 166.0,118.6 L 172.7,118.6 L 179.4,118.4 L 186.1,117.8 L 192.8,116.6 L 199.5,116.0 L 206.2,115.8 L 212.9,115.8 L 219.7,115.2 L 226.4,113.8 L 233.1,113.0 L 239.8,113.0 L 246.5,112.1 L 253.2,111.7 L 259.9,110.9 L 266.6,110.3 L 273.3,109.7 L 280.1,109.1 L 286.8,109.1 L 293.5,107.7 L 300.2,106.9 L 306.9,106.9 L 313.6,106.2 L 320.3,105.8 L 327.0,105.6 L 333.8,105.4 L 340.5,105.4 L 347.2,104.8 L 353.9,102.4 L 360.6,101.0 L 367.3,100.3 L 374.0,100.1 L 380.7,99.7 L 387.4,98.9 L 394.2,98.5 L 400.9,98.1 L 407.6,97.7 L 414.3,97.3 L 421.0,96.9 L 427.7,96.9 L 434.4,95.0 L 441.1,95.0 L 447.8,94.8 L 454.6,94.6 L 461.3,94.2 L 468.0,94.2 L 474.7,93.2 L 481.4,92.0 L 488.1,91.6 L 494.8,92.0 L 501.5,91.8 L 508.3,91.6 L 515.0,91.6 L 521.7,91.2 L 528.4,90.4 L 535.1,90.0 L 541.8,89.6 L 548.5,89.4 L 555.2,89.4 L 561.9,88.7 L 568.7,88.3 L 575.4,88.3 L 582.1,86.7 L 588.8,86.7 L 595.5,86.7 L 602.2,86.7 L 608.9,86.5 L 615.6,85.9 L 622.3,85.1 L 629.1,84.7 L 635.8,84.7 L 642.5,84.3 L 649.2,82.8 L 655.9,81.8 L 662.6,81.6 L 669.3,81.4 L 676.0,80.8 L 682.8,79.6 L 689.5,79.2 L 696.2,78.8 L 702.9,77.6 L 709.6,77.4 L 716.3,77.4 L 723.0,77.4 L 729.7,77.3 L 736.4,76.1 L 743.2,75.9 L 749.9,75.7 L 756.6,75.7 L 763.3,75.3 L 770.0,73.7" fill="none" stroke="#4F8EF7" stroke-width="2.5" stroke-linejoin="round" clip-path="url(#ca)"/>
<path d="M 72.0,340 L 72.0,244.2 L 78.7,243.6 L 85.4,243.6 L 92.1,243.6 L 98.8,243.4 L 105.6,243.0 L 112.3,242.8 L 119.0,242.6 L 125.7,242.6 L 132.4,242.5 L 139.1,242.3 L 145.8,242.3 L 152.5,242.3 L 159.3,242.3 L 166.0,242.3 L 172.7,242.3 L 179.4,241.9 L 186.1,241.9 L 192.8,241.9 L 199.5,241.1 L 206.2,240.9 L 212.9,240.5 L 219.7,239.7 L 226.4,239.5 L 233.1,239.5 L 239.8,239.5 L 246.5,238.9 L 253.2,238.5 L 259.9,238.5 L 266.6,238.1 L 273.3,237.9 L 280.1,237.5 L 286.8,237.5 L 293.5,237.3 L 300.2,236.6 L 306.9,236.0 L 313.6,235.6 L 320.3,235.4 L 327.0,235.4 L 333.8,235.2 L 340.5,234.8 L 347.2,234.8 L 353.9,234.6 L 360.6,234.0 L 367.3,233.6 L 374.0,233.6 L 380.7,233.6 L 387.4,233.6 L 394.2,233.4 L 400.9,232.8 L 407.6,232.4 L 414.3,232.2 L 421.0,232.0 L 427.7,231.8 L 434.4,231.6 L 441.1,231.4 L 447.8,231.2 L 454.6,230.7 L 461.3,230.5 L 468.0,230.3 L 474.7,229.5 L 481.4,228.7 L 488.1,228.7 L 494.8,228.5 L 501.5,228.3 L 508.3,228.3 L 515.0,228.3 L 521.7,227.9 L 528.4,227.9 L 535.1,226.7 L 541.8,226.5 L 548.5,226.3 L 555.2,226.3 L 561.9,225.9 L 568.7,225.7 L 575.4,225.7 L 582.1,225.5 L 588.8,225.5 L 595.5,225.5 L 602.2,225.1 L 608.9,224.9 L 615.6,224.0 L 622.3,224.2 L 629.1,224.0 L 635.8,223.8 L 642.5,223.8 L 649.2,223.6 L 655.9,223.0 L 662.6,223.0 L 669.3,223.0 L 676.0,223.0 L 682.8,222.6 L 689.5,222.6 L 696.2,222.2 L 702.9,221.8 L 709.6,221.0 L 716.3,221.0 L 723.0,220.6 L 729.7,220.4 L 736.4,220.2 L 743.2,220.0 L 749.9,219.6 L 756.6,219.6 L 763.3,219.1 L 770.0,219.1 L 770.0,340 Z" fill="url(#g3)" clip-path="url(#ca)"/>
<path d="M 72.0,244.2 L 78.7,243.6 L 85.4,243.6 L 92.1,243.6 L 98.8,243.4 L 105.6,243.0 L 112.3,242.8 L 119.0,242.6 L 125.7,242.6 L 132.4,242.5 L 139.1,242.3 L 145.8,242.3 L 152.5,242.3 L 159.3,242.3 L 166.0,242.3 L 172.7,242.3 L 179.4,241.9 L 186.1,241.9 L 192.8,241.9 L 199.5,241.1 L 206.2,240.9 L 212.9,240.5 L 219.7,239.7 L 226.4,239.5 L 233.1,239.5 L 239.8,239.5 L 246.5,238.9 L 253.2,238.5 L 259.9,238.5 L 266.6,238.1 L 273.3,237.9 L 280.1,237.5 L 286.8,237.5 L 293.5,237.3 L 300.2,236.6 L 306.9,236.0 L 313.6,235.6 L 320.3,235.4 L 327.0,235.4 L 333.8,235.2 L 340.5,234.8 L 347.2,234.8 L 353.9,234.6 L 360.6,234.0 L 367.3,233.6 L 374.0,233.6 L 380.7,233.6 L 387.4,233.6 L 394.2,233.4 L 400.9,232.8 L 407.6,232.4 L 414.3,232.2 L 421.0,232.0 L 427.7,231.8 L 434.4,231.6 L 441.1,231.4 L 447.8,231.2 L 454.6,230.7 L 461.3,230.5 L 468.0,230.3 L 474.7,229.5 L 481.4,228.7 L 488.1,228.7 L 494.8,228.5 L 501.5,228.3 L 508.3,228.3 L 515.0,228.3 L 521.7,227.9 L 528.4,227.9 L 535.1,226.7 L 541.8,226.5 L 548.5,226.3 L 555.2,226.3 L 561.9,225.9 L 568.7,225.7 L 575.4,225.7 L 582.1,225.5 L 588.8,225.5 L 595.5,225.5 L 602.2,225.1 L 608.9,224.9 L 615.6,224.0 L 622.3,224.2 L 629.1,224.0 L 635.8,223.8 L 642.5,223.8 L 649.2,223.6 L 655.9,223.0 L 662.6,223.0 L 669.3,223.0 L 676.0,223.0 L 682.8,222.6 L 689.5,222.6 L 696.2,222.2 L 702.9,221.8 L 709.6,221.0 L 716.3,221.0 L 723.0,220.6 L 729.7,220.4 L 736.4,220.2 L 743.2,220.0 L 749.9,219.6 L 756.6,219.6 L 763.3,219.1 L 770.0,219.1" fill="none" stroke="#BF5AF2" stroke-width="2.5" stroke-linejoin="round" clip-path="url(#ca)"/>
<path d="M 72.0,340 L 72.0,291.4 L 78.7,290.8 L 85.4,290.8 L 92.1,290.8 L 98.8,290.6 L 105.6,290.2 L 112.3,290.0 L 119.0,289.7 L 125.7,289.7 L 132.4,289.5 L 139.1,289.3 L 145.8,289.3 L 152.5,289.3 L 159.3,289.3 L 166.0,289.3 L 172.7,289.3 L 179.4,288.9 L 186.1,288.9 L 192.8,289.1 L 199.5,288.5 L 206.2,288.7 L 212.9,288.1 L 219.7,287.5 L 226.4,287.3 L 233.1,287.5 L 239.8,287.5 L 246.5,286.9 L 253.2,286.7 L 259.9,286.7 L 266.6,286.3 L 273.3,286.1 L 280.1,285.7 L 286.8,285.7 L 293.5,285.5 L 300.2,284.9 L 306.9,284.3 L 313.6,283.9 L 320.3,283.9 L 327.0,283.9 L 333.8,283.8 L 340.5,283.4 L 347.2,283.4 L 353.9,283.2 L 360.6,282.6 L 367.3,282.4 L 374.0,282.4 L 380.7,282.4 L 387.4,282.4 L 394.2,282.2 L 400.9,281.6 L 407.6,281.4 L 414.3,281.2 L 421.0,281.0 L 427.7,281.0 L 434.4,280.8 L 441.1,280.8 L 447.8,280.8 L 454.6,280.2 L 461.3,280.2 L 468.0,280.2 L 474.7,279.8 L 481.4,279.2 L 488.1,279.2 L 494.8,279.0 L 501.5,278.8 L 508.3,278.8 L 515.0,278.8 L 521.7,278.4 L 528.4,278.4 L 535.1,277.3 L 541.8,277.1 L 548.5,276.9 L 555.2,276.9 L 561.9,276.7 L 568.7,276.7 L 575.4,276.7 L 582.1,276.7 L 588.8,276.7 L 595.5,276.7 L 602.2,276.3 L 608.9,276.1 L 615.6,275.1 L 622.3,275.3 L 629.1,275.3 L 635.8,275.1 L 642.5,275.1 L 649.2,275.1 L 655.9,274.7 L 662.6,274.7 L 669.3,274.7 L 676.0,274.7 L 682.8,274.7 L 689.5,274.7 L 696.2,274.5 L 702.9,274.5 L 709.6,273.7 L 716.3,273.7 L 723.0,273.5 L 729.7,273.3 L 736.4,273.1 L 743.2,272.9 L 749.9,272.5 L 756.6,272.5 L 763.3,272.0 L 770.0,272.0 L 770.0,340 Z" fill="url(#g4)" clip-path="url(#ca)"/>
<path d="M 72.0,291.4 L 78.7,290.8 L 85.4,290.8 L 92.1,290.8 L 98.8,290.6 L 105.6,290.2 L 112.3,290.0 L 119.0,289.7 L 125.7,289.7 L 132.4,289.5 L 139.1,289.3 L 145.8,289.3 L 152.5,289.3 L 159.3,289.3 L 166.0,289.3 L 172.7,289.3 L 179.4,288.9 L 186.1,288.9 L 192.8,289.1 L 199.5,288.5 L 206.2,288.7 L 212.9,288.1 L 219.7,287.5 L 226.4,287.3 L 233.1,287.5 L 239.8,287.5 L 246.5,286.9 L 253.2,286.7 L 259.9,286.7 L 266.6,286.3 L 273.3,286.1 L 280.1,285.7 L 286.8,285.7 L 293.5,285.5 L 300.2,284.9 L 306.9,284.3 L 313.6,283.9 L 320.3,283.9 L 327.0,283.9 L 333.8,283.8 L 340.5,283.4 L 347.2,283.4 L 353.9,283.2 L 360.6,282.6 L 367.3,282.4 L 374.0,282.4 L 380.7,282.4 L 387.4,282.4 L 394.2,282.2 L 400.9,281.6 L 407.6,281.4 L 414.3,281.2 L 421.0,281.0 L 427.7,281.0 L 434.4,280.8 L 441.1,280.8 L 447.8,280.8 L 454.6,280.2 L 461.3,280.2 L 468.0,280.2 L 474.7,279.8 L 481.4,279.2 L 488.1,279.2 L 494.8,279.0 L 501.5,278.8 L 508.3,278.8 L 515.0,278.8 L 521.7,278.4 L 528.4,278.4 L 535.1,277.3 L 541.8,277.1 L 548.5,276.9 L 555.2,276.9 L 561.9,276.7 L 568.7,276.7 L 575.4,276.7 L 582.1,276.7 L 588.8,276.7 L 595.5,276.7 L 602.2,276.3 L 608.9,276.1 L 615.6,275.1 L 622.3,275.3 L 629.1,275.3 L 635.8,275.1 L 642.5,275.1 L 649.2,275.1 L 655.9,274.7 L 662.6,274.7 L 669.3,274.7 L 676.0,274.7 L 682.8,274.7 L 689.5,274.7 L 696.2,274.5 L 702.9,274.5 L 709.6,273.7 L 716.3,273.7 L 723.0,273.5 L 729.7,273.3 L 736.4,273.1 L 743.2,272.9 L 749.9,272.5 L 756.6,272.5 L 763.3,272.0 L 770.0,272.0" fill="none" stroke="#34C759" stroke-width="2.5" stroke-linejoin="round" clip-path="url(#ca)"/>
<text x="108.9" y="55.0" text-anchor="middle" font-size="9" fill="#4F8EF7" opacity="0.85" clip-path="url(#ca)">+0.5% (+8)</text>
<text x="108.9" y="66.0" text-anchor="middle" font-size="9" fill="#BF5AF2" opacity="0.85" clip-path="url(#ca)">+1.0% (+10)</text>
<text x="108.9" y="77.0" text-anchor="middle" font-size="9" fill="#34C759" opacity="0.85" clip-path="url(#ca)">+1.5% (+11)</text>
<text x="236.4" y="55.0" text-anchor="middle" font-size="9" fill="#4F8EF7" opacity="0.85" clip-path="url(#ca)">+4.0% (+65)</text>
<text x="236.4" y="66.0" text-anchor="middle" font-size="9" fill="#BF5AF2" opacity="0.85" clip-path="url(#ca)">+3.5% (+35)</text>
<text x="236.4" y="77.0" text-anchor="middle" font-size="9" fill="#34C759" opacity="0.85" clip-path="url(#ca)">+3.6% (+27)</text>
<text x="414.3" y="55.0" text-anchor="middle" font-size="9" fill="#4F8EF7" opacity="0.85" clip-path="url(#ca)">+4.1% (+70)</text>
<text x="414.3" y="66.0" text-anchor="middle" font-size="9" fill="#BF5AF2" opacity="0.85" clip-path="url(#ca)">+3.5% (+36)</text>
<text x="414.3" y="77.0" text-anchor="middle" font-size="9" fill="#34C759" opacity="0.85" clip-path="url(#ca)">+3.3% (+26)</text>
<text x="595.5" y="55.0" text-anchor="middle" font-size="9" fill="#4F8EF7" opacity="0.85" clip-path="url(#ca)">+3.5% (+61)</text>
<text x="595.5" y="66.0" text-anchor="middle" font-size="9" fill="#BF5AF2" opacity="0.85" clip-path="url(#ca)">+2.7% (+29)</text>
<text x="595.5" y="77.0" text-anchor="middle" font-size="9" fill="#34C759" opacity="0.85" clip-path="url(#ca)">+2.6% (+21)</text>
<text x="729.7" y="55.0" text-anchor="middle" font-size="9" fill="#4F8EF7" opacity="0.85" clip-path="url(#ca)">+1.5% (+28)</text>
<text x="729.7" y="66.0" text-anchor="middle" font-size="9" fill="#BF5AF2" opacity="0.85" clip-path="url(#ca)">+1.6% (+18)</text>
<text x="729.7" y="77.0" text-anchor="middle" font-size="9" fill="#34C759" opacity="0.85" clip-path="url(#ca)">+1.7% (+14)</text>
<rect x="211" y="369" width="12" height="12" fill="#4F8EF7" rx="2"/>
<text x="227" y="379" font-size="12" fill="#111827">Authors</text>
<rect x="351" y="369" width="12" height="12" fill="#BF5AF2" rx="2"/>
<text x="367" y="379" font-size="12" fill="#111827">Contributors</text>
<rect x="491" y="369" width="12" height="12" fill="#34C759" rx="2"/>
<text x="507" y="379" font-size="12" fill="#111827">Non-author contributors</text>
<text x="72" y="394" font-size="8" fill="#e5e7eb">data since Dec 11, 2025</text>
</svg>