<svg xmlns="http://www.w3.org/2000/svg" width="800" height="400" viewBox="0 0 800 400">
<defs>
  <style>text { font-family: -apple-system, BlinkMacSystemFont, 'Segoe UI', Roboto, sans-serif; }</style>
  <linearGradient id="g2" x1="0" y1="0" x2="0" y2="1">
  <stop offset="0%" stop-color="#4F8EF7" stop-opacity="0.25"/>
  <stop offset="100%" stop-color="#4F8EF7" stop-opacity="0"/>
</linearGradient>
<linearGradient id="g3" x1="0" y1="0" x2="0" y2="1">
  <stop offset="0%" stop-color="#BF5AF2" stop-opacity="0.25"/>
  <stop offset="100%" stop-color="#BF5AF2" stop-opacity="0"/>
</linearGradient>
<linearGradient id="g4" x1="0" y1="0" x2="0" y2="1">
  <stop offset="0%" stop-color="#34C759" stop-opacity="0.25"/>
  <stop offset="100%" stop-color="#34C759" stop-opacity="0"/>
</linearGradient>
  <clipPath id="ca"><rect x="72" y="45" width="698" height="295"/></clipPath>
</defs>
<rect width="800" height="400" fill="#ffffff" rx="12"/>
<text x="400" y="26" text-anchor="middle" font-size="15" font-weight="600" fill="#111827">Community Growth Over Time</text>
<line x1="72" y1="340.0" x2="770" y2="340.0" stroke="#f3f4f6" stroke-width="1"/>
<text x="66" y="344.0" text-anchor="end" font-size="11" fill="#6b7280">500</text>
<line x1="72" y1="241.7" x2="770" y2="241.7" stroke="#f3f4f6" stroke-width="1"/>
<text x="66" y="245.7" text-anchor="end" font-size="11" fill="#6b7280">1.0k</text>
<line x1="72" y1="143.3" x2="770" y2="143.3" stroke="#f3f4f6" stroke-width="1"/>
<text x="66" y="147.3" text-anchor="end" font-size="11" fill="#6b7280">1.5k</text>
<line x1="72" y1="45.0" x2="770" y2="45.0" stroke="#f3f4f6" stroke-width="1"/>
<text x="66" y="49.0" text-anchor="end" font-size="11" fill="#6b7280">2.0k</text>
<line x1="141.8" y1="45" x2="141.8" y2="340" stroke="#e5e7eb" stroke-width="1" stroke-dasharray="3,3" clip-path="url(#ca)"/>
<line x1="293.0" y1="45" x2="293.0" y2="340" stroke="#e5e7eb" stroke-width="1" stroke-dasharray="3,3" clip-path="url(#ca)"/>
<line x1="450.1" y1="45" x2="450.1" y2="340" stroke="#e5e7eb" stroke-width="1" stroke-dasharray="3,3" clip-path="url(#ca)"/>
<line x1="607.1" y1="45" x2="607.1" y2="340" stroke="#e5e7eb" stroke-width="1" stroke-dasharray="3,3" clip-path="url(#ca)"/>
<line x1="764.2" y1="45" x2="764.2" y2="340" stroke="#e5e7eb" stroke-width="1" stroke-dasharray="3,3" clip-path="url(#ca)"/>
<text x="72.0" y="358.0" text-anchor="middle" font-size="11" fill="#6b7280">Dec 11</text>
<text x="211.6" y="358.0" text-anchor="middle" font-size="11" fill="#6b7280">Jan 17</text>
<text x="351.2" y="358.0" text-anchor="middle" font-size="11" fill="#6b7280">Feb 11</text>
<text x="490.8" y="358.0" text-anchor="middle" font-size="11" fill="#6b7280">Mar 9</text>
<text x="630.4" y="358.0" text-anchor="middle" font-size="11" fill="#6b7280">Apr 5</text>
<text x="770.0" y="358.0" text-anchor="middle" font-size="11" fill="#6b7280">May 2</text>
<line x1="72" y1="45" x2="72" y2="340" stroke="#e5e7eb" stroke-width="1"/>
<line x1="72" y1="340" x2="770" y2="340" stroke="#e5e7eb" stroke-width="1"/>
<text x="-192.5" y="18" text-anchor="middle" font-size="12" fill="#6b7280" transform="rotate(-90)">People</text>
<path d="M 72.0,340 L 72.0,120.1 L 77.8,120.1 L 83.6,120.1 L 89.5,119.5 L 95.3,119.5 L 101.1,119.1 L 106.9,118.9 L 112.7,119.1 L 118.5,118.6 L 124.3,118.6 L 130.2,118.6 L 136.0,118.6 L 141.8,118.6 L 147.6,118.6 L 153.4,118.6 L 159.3,118.6 L 165.1,118.4 L 170.9,117.8 L 176.7,116.6 L 182.5,116.0 L 188.3,115.8 L 194.1,115.8 L 200.0,115.2 L 205.8,113.8 L 211.6,113.0 L 217.4,113.0 L 223.2,112.1 L 229.1,111.7 L 234.9,110.9 L 240.7,110.3 L 246.5,109.7 L 252.3,109.1 L 258.1,109.1 L 264.0,107.7 L 269.8,106.9 L 275.6,106.9 L 281.4,106.2 L 287.2,105.8 L 293.0,105.6 L 298.9,105.4 L 304.7,105.4 L 310.5,104.8 L 316.3,102.4 L 322.1,101.0 L 327.9,100.3 L 333.8,100.1 L 339.6,99.7 L 345.4,98.9 L 351.2,98.5 L 357.0,98.1 L 362.8,97.7 L 368.6,97.3 L 374.5,96.9 L 380.3,96.9 L 386.1,95.0 L 391.9,95.0 L 397.7,94.8 L 403.6,94.6 L 409.4,94.2 L 415.2,94.2 L 421.0,93.2 L 426.8,92.0 L 432.6,91.6 L 438.4,92.0 L 444.3,91.8 L 450.1,91.6 L 455.9,91.6 L 461.7,91.2 L 467.5,90.4 L 473.3,90.0 L 479.2,89.6 L 485.0,89.4 L 490.8,89.4 L 496.6,88.7 L 502.4,88.3 L 508.3,88.3 L 514.1,86.7 L 519.9,86.7 L 525.7,86.7 L 531.5,86.7 L 537.3,86.5 L 543.2,85.9 L 549.0,85.1 L 554.8,84.7 L 560.6,84.7 L 566.4,84.3 L 572.2,82.8 L 578.0,81.8 L 583.9,81.6 L 589.7,81.4 L 595.5,80.8 L 601.3,79.6 L 607.1,79.2 L 613.0,78.8 L 618.8,77.6 L 624.6,77.4 L 630.4,77.4 L 636.2,77.4 L 642.0,77.3 L 647.9,76.1 L 653.7,75.9 L 659.5,75.7 L 665.3,75.7 L 671.1,75.3 L 676.9,73.7 L 682.8,73.5 L 688.6,73.3 L 694.4,73.3 L 700.2,72.5 L 706.0,72.3 L 711.8,72.1 L 717.6,71.6 L 723.5,70.8 L 729.3,70.8 L 735.1,70.8 L 740.9,70.8 L 746.7,70.4 L 752.5,69.8 L 758.4,69.6 L 764.2,69.0 L 770.0,68.8 L 770.0,340 Z" fill="url(#g2)" clip-path="url(#ca)"/>
<path d="M 72.0,120.1 L 77.8,120.1 L 83.6,120.1 L 89.5,119.5 L 95.3,119.5 L 101.1,119.1 L 106.9,118.9 L 112.7,119.1 L 118.5,118.6 L 124.3,118.6 L 130.2,118.6 L 136.0,118.6 L 141.8,118.6 L 147.6,118.6 L 153.4,118.6 L 159.3,118.6 L 165.1,118.4 L 170.9,117.8 L 176.7,116.6 L 182.5,116.0 L 188.3,115.8 L 194.1,115.8 L 200.0,115.2 L 205.8,113.8 L 211.6,113.0 L 217.4,113.0 L 223.2,112.1 L 229.1,111.7 L 234.9,110.9 L 240.7,110.3 L 246.5,109.7 L 252.3,109.1 L 258.1,109.1 L 264.0,107.7 L 269.8,106.9 L 275.6,106.9 L 281.4,106.2 L 287.2,105.8 L 293.0,105.6 L 298.9,105.4 L 304.7,105.4 L 310.5,104.8 L 316.3,102.4 L 322.1,101.0 L 327.9,100.3 L 333.8,100.1 L 339.6,99.7 L 345.4,98.9 L 351.2,98.5 L 357.0,98.1 L 362.8,97.7 L 368.6,97.3 L 374.5,96.9 L 380.3,96.9 L 386.1,95.0 L 391.9,95.0 L 397.7,94.8 L 403.6,94.6 L 409.4,94.2 L 415.2,94.2 L 421.0,93.2 L 426.8,92.0 L 432.6,91.6 L 438.4,92.0 L 444.3,91.8 L 450.1,91.6 L 455.9,91.6 L 461.7,91.2 L 467.5,90.4 L 473.3,90.0 L 479.2,89.6 L 485.0,89.4 L 490.8,89.4 L 496.6,88.7 L 502.4,88.3 L 508.3,88.3 L 514.1,86.7 L 519.9,86.7 L 525.7,86.7 L 531.5,86.7 L 537.3,86.5 L 543.2,85.9 L 549.0,85.1 L 554.8,84.7 L 560.6,84.7 L 566.4,84.3 L 572.2,82.8 L 578.0,81.8 L 583.9,81.6 L 589.7,81.4 L 595.5,80.8 L 601.3,79.6 L 607.1,79.2 L 613.0,78.8 L 618.8,77.6 L 624.6,77.4 L 630.4,77.4 L 636.2,77.4 L 642.0,77.3 L 647.9,76.1 L 653.7,75.9 L 659.5,75.7 L 665.3,75.7 L 671.1,75.3 L 676.9,73.7 L 682.8,73.5 L 688.6,73.3 L 694.4,73.3 L 700.2,72.5 L 706.0,72.3 L 711.8,72.1 L 717.6,71.6 L 723.5,70.8 L 729.3,70.8 L 735.1,70.8 L 740.9,70.8 L 746.7,70.4 L 752.5,69.8 L 758.4,69.6 L 764.2,69.0 L 770.0,68.8" fill="none" stroke="#4F8EF7" stroke-width="2.5" stroke-linejoin="round" clip-path="url(#ca)"/>
<path d="M 72.0,340 L 72.0,244.2 L 77.8,243.6 L 83.6,243.6 L 89.5,243.6 L 95.3,243.4 L 101.1,243.0 L 106.9,242.8 L 112.7,242.6 L 118.5,242.6 L 124.3,242.5 L 130.2,242.3 L 136.0,242.3 L 141.8,242.3 L 147.6,242.3 L 153.4,242.3 L 159.3,242.3 L 165.1,241.9 L 170.9,241.9 L 176.7,241.9 L 182.5,241.1 L 188.3,240.9 L 194.1,240.5 L 200.0,239.7 L 205.8,239.5 L 211.6,239.5 L 217.4,239.5 L 223.2,238.9 L 229.1,238.5 L 234.9,238.5 L 240.7,238.1 L 246.5,237.9 L 252.3,237.5 L 258.1,237.5 L 264.0,237.3 L 269.8,236.6 L 275.6,236.0 L 281.4,235.6 L 287.2,235.4 L 293.0,235.4 L 298.9,235.2 L 304.7,234.8 L 310.5,234.8 L 316.3,234.6 L 322.1,234.0 L 327.9,233.6 L 333.8,233.6 L 339.6,233.6 L 345.4,233.6 L 351.2,233.4 L 357.0,232.8 L 362.8,232.4 L 368.6,232.2 L 374.5,232.0 L 380.3,231.8 L 386.1,231.6 L 391.9,231.4 L 397.7,231.2 L 403.6,230.7 L 409.4,230.5 L 415.2,230.3 L 421.0,229.5 L 426.8,228.7 L 432.6,228.7 L 438.4,228.5 L 444.3,228.3 L 450.1,228.3 L 455.9,228.3 L 461.7,227.9 L 467.5,227.9 L 473.3,226.7 L 479.2,226.5 L 485.0,226.3 L 490.8,226.3 L 496.6,225.9 L 502.4,225.7 L 508.3,225.7 L 514.1,225.5 L 519.9,225.5 L 525.7,225.5 L 531.5,225.1 L 537.3,224.9 L 543.2,224.0 L 549.0,224.2 L 554.8,224.0 L 560.6,223.8 L 566.4,223.8 L 572.2,223.6 L 578.0,223.0 L 583.9,223.0 L 589.7,223.0 L 595.5,223.0 L 601.3,222.6 L 607.1,222.6 L 613.0,222.2 L 618.8,221.8 L 624.6,221.0 L 630.4,221.0 L 636.2,220.6 L 642.0,220.4 L 647.9,220.2 L 653.7,220.0 L 659.5,219.6 L 665.3,219.6 L 671.1,219.1 L 676.9,219.1 L 682.8,218.9 L 688.6,218.5 L 694.4,218.3 L 700.2,218.3 L 706.0,218.3 L 711.8,218.3 L 717.6,218.3 L 723.5,217.7 L 729.3,217.7 L 735.1,217.3 L 740.9,216.9 L 746.7,216.3 L 752.5,216.1 L 758.4,216.1 L 764.2,214.9 L 770.0,214.7 L 770.0,340 Z" fill="url(#g3)" clip-path="url(#ca)"/>
<path d="M 72.0,244.2 L 77.8,243.6 L 83.6,243.6 L 89.5,243.6 L 95.3,243.4 L 101.1,243.0 L 106.9,242.8 L 112.7,242.6 L 118.5,242.6 L 124.3,242.5 L 130.2,242.3 L 136.0,242.3 L 141.8,242.3 L 147.6,242.3 L 153.4,242.3 L 159.3,242.3 L 165.1,241.9 L 170.9,241.9 L 176.7,241.9 L 182.5,241.1 L 188.3,240.9 L 194.1,240.5 L 200.0,239.7 L 205.8,239.5 L 211.6,239.5 L 217.4,239.5 L 223.2,238.9 L 229.1,238.5 L 234.9,238.5 L 240.7,238.1 L 246.5,237.9 L 252.3,237.5 L 258.1,237.5 L 264.0,237.3 L 269.8,236.6 L 275.6,236.0 L 281.4,235.6 L 287.2,235.4 L 293.0,235.4 L 298.9,235.2 L 304.7,234.8 L 310.5,234.8 L 316.3,234.6 L 322.1,234.0 L 327.9,233.6 L 333.8,233.6 L 339.6,233.6 L 345.4,233.6 L 351.2,233.4 L 357.0,232.8 L 362.8,232.4 L 368.6,232.2 L 374.5,232.0 L 380.3,231.8 L 386.1,231.6 L 391.9,231.4 L 397.7,231.2 L 403.6,230.7 L 409.4,230.5 L 415.2,230.3 L 421.0,229.5 L 426.8,228.7 L 432.6,228.7 L 438.4,228.5 L 444.3,228.3 L 450.1,228.3 L 455.9,228.3 L 461.7,227.9 L 467.5,227.9 L 473.3,226.7 L 479.2,226.5 L 485.0,226.3 L 490.8,226.3 L 496.6,225.9 L 502.4,225.7 L 508.3,225.7 L 514.1,225.5 L 519.9,225.5 L 525.7,225.5 L 531.5,225.1 L 537.3,224.9 L 543.2,224.0 L 549.0,224.2 L 554.8,224.0 L 560.6,223.8 L 566.4,223.8 L 572.2,223.6 L 578.0,223.0 L 583.9,223.0 L 589.7,223.0 L 595.5,223.0 L 601.3,222.6 L 607.1,222.6 L 613.0,222.2 L 618.8,221.8 L 624.6,221.0 L 630.4,221.0 L 636.2,220.6 L 642.0,220.4 L 647.9,220.2 L 653.7,220.0 L 659.5,219.6 L 665.3,219.6 L 671.1,219.1 L 676.9,219.1 L 682.8,218.9 L 688.6,218.5 L 694.4,218.3 L 700.2,218.3 L 706.0,218.3 L 711.8,218.3 L 717.6,218.3 L 723.5,217.7 L 729.3,217.7 L 735.1,217.3 L 740.9,216.9 L 746.7,216.3 L 752.5,216.1 L 758.4,216.1 L 764.2,214.9 L 770.0,214.7" fill="none" stroke="#BF5AF2" stroke-width="2.5" stroke-linejoin="round" clip-path="url(#ca)"/>
<path d="M 72.0,340 L 72.0,291.4 L 77.8,290.8 L 83.6,290.8 L 89.5,290.8 L 95.3,290.6 L 101.1,290.2 L 106.9,290.0 L 112.7,289.7 L 118.5,289.7 L 124.3,289.5 L 130.2,289.3 L 136.0,289.3 L 141.8,289.3 L 147.6,289.3 L 153.4,289.3 L 159.3,289.3 L 165.1,288.9 L 170.9,288.9 L 176.7,289.1 L 182.5,288.5 L 188.3,288.7 L 194.1,288.1 L 200.0,287.5 L 205.8,287.3 L 211.6,287.5 L 217.4,287.5 L 223.2,286.9 L 229.1,286.7 L 234.9,286.7 L 240.7,286.3 L 246.5,286.1 L 252.3,285.7 L 258.1,285.7 L 264.0,285.5 L 269.8,284.9 L 275.6,284.3 L 281.4,283.9 L 287.2,283.9 L 293.0,283.9 L 298.9,283.8 L 304.7,283.4 L 310.5,283.4 L 316.3,283.2 L 322.1,282.6 L 327.9,282.4 L 333.8,282.4 L 339.6,282.4 L 345.4,282.4 L 351.2,282.2 L 357.0,281.6 L 362.8,281.4 L 368.6,281.2 L 374.5,281.0 L 380.3,281.0 L 386.1,280.8 L 391.9,280.8 L 397.7,280.8 L 403.6,280.2 L 409.4,280.2 L 415.2,280.2 L 421.0,279.8 L 426.8,279.2 L 432.6,279.2 L 438.4,279.0 L 444.3,278.8 L 450.1,278.8 L 455.9,278.8 L 461.7,278.4 L 467.5,278.4 L 473.3,277.3 L 479.2,277.1 L 485.0,276.9 L 490.8,276.9 L 496.6,276.7 L 502.4,276.7 L 508.3,276.7 L 514.1,276.7 L 519.9,276.7 L 525.7,276.7 L 531.5,276.3 L 537.3,276.1 L 543.2,275.1 L 549.0,275.3 L 554.8,275.3 L 560.6,275.1 L 566.4,275.1 L 572.2,275.1 L 578.0,274.7 L 583.9,274.7 L 589.7,274.7 L 595.5,274.7 L 601.3,274.7 L 607.1,274.7 L 613.0,274.5 L 618.8,274.5 L 624.6,273.7 L 630.4,273.7 L 636.2,273.5 L 642.0,273.3 L 647.9,273.1 L 653.7,272.9 L 659.5,272.5 L 665.3,272.5 L 671.1,272.0 L 676.9,272.0 L 682.8,271.8 L 688.6,271.6 L 694.4,271.6 L 700.2,271.6 L 706.0,271.6 L 711.8,271.6 L 717.6,271.6 L 723.5,271.0 L 729.3,271.0 L 735.1,270.6 L 740.9,270.2 L 746.7,269.6 L 752.5,269.4 L 758.4,269.4 L 764.2,268.4 L 770.0,268.2 L 770.0,340 Z" fill="url(#g4)" clip-path="url(#ca)"/>
<path d="M 72.0,291.4 L 77.8,290.8 L 83.6,290.8 L 89.5,290.8 L 95.3,290.6 L 101.1,290.2 L 106.9,290.0 L 112.7,289.7 L 118.5,289.7 L 124.3,289.5 L 130.2,289.3 L 136.0,289.3 L 141.8,289.3 L 147.6,289.3 L 153.4,289.3 L 159.3,289.3 L 165.1,288.9 L 170.9,288.9 L 176.7,289.1 L 182.5,288.5 L 188.3,288.7 L 194.1,288.1 L 200.0,287.5 L 205.8,287.3 L 211.6,287.5 L 217.4,287.5 L 223.2,286.9 L 229.1,286.7 L 234.9,286.7 L 240.7,286.3 L 246.5,286.1 L 252.3,285.7 L 258.1,285.7 L 264.0,285.5 L 269.8,284.9 L 275.6,284.3 L 281.4,283.9 L 287.2,283.9 L 293.0,283.9 L 298.9,283.8 L 304.7,283.4 L 310.5,283.4 L 316.3,283.2 L 322.1,282.6 L 327.9,282.4 L 333.8,282.4 L 339.6,282.4 L 345.4,282.4 L 351.2,282.2 L 357.0,281.6 L 362.8,281.4 L 368.6,281.2 L 374.5,281.0 L 380.3,281.0 L 386.1,280.8 L 391.9,280.8 L 397.7,280.8 L 403.6,280.2 L 409.4,280.2 L 415.2,280.2 L 421.0,279.8 L 426.8,279.2 L 432.6,279.2 L 438.4,279.0 L 444.3,278.8 L 450.1,278.8 L 455.9,278.8 L 461.7,278.4 L 467.5,278.4 L 473.3,277.3 L 479.2,277.1 L 485.0,276.9 L 490.8,276.9 L 496.6,276.7 L 502.4,276.7 L 508.3,276.7 L 514.1,276.7 L 519.9,276.7 L 525.7,276.7 L 531.5,276.3 L 537.3,276.1 L 543.2,275.1 L 549.0,275.3 L 554.8,275.3 L 560.6,275.1 L 566.4,275.1 L 572.2,275.1 L 578.0,274.7 L 583.9,274.7 L 589.7,274.7 L 595.5,274.7 L 601.3,274.7 L 607.1,274.7 L 613.0,274.5 L 618.8,274.5 L 624.6,273.7 L 630.4,273.7 L 636.2,273.5 L 642.0,273.3 L 647.9,273.1 L 653.7,272.9 L 659.5,272.5 L 665.3,272.5 L 671.1,272.0 L 676.9,272.0 L 682.8,271.8 L 688.6,271.6 L 694.4,271.6 L 700.2,271.6 L 706.0,271.6 L 711.8,271.6 L 717.6,271.6 L 723.5,271.0 L 729.3,271.0 L 735.1,270.6 L 740.9,270.2 L 746.7,269.6 L 752.5,269.4 L 758.4,269.4 L 764.2,268.4 L 770.0,268.2" fill="none" stroke="#34C759" stroke-width="2.5" stroke-linejoin="round" clip-path="url(#ca)"/>
<text x="104.0" y="55.0" text-anchor="middle" font-size="9" fill="#4F8EF7" opacity="0.85" clip-path="url(#ca)">+0.5% (+8)</text>
<text x="104.0" y="66.0" text-anchor="middle" font-size="9" fill="#BF5AF2" opacity="0.85" clip-path="url(#ca)">+1.0% (+10)</text>
<text x="104.0" y="77.0" text-anchor="middle" font-size="9" fill="#34C759" opacity="0.85" clip-path="url(#ca)">+1.5% (+11)</text>
<text x="214.5" y="55.0" text-anchor="middle" font-size="9" fill="#4F8EF7" opacity="0.85" clip-path="url(#ca)">+4.0% (+65)</text>
<text x="214.5" y="66.0" text-anchor="middle" font-size="9" fill="#BF5AF2" opacity="0.85" clip-path="url(#ca)">+3.5% (+35)</text>
<text x="214.5" y="77.0" text-anchor="middle" font-size="9" fill="#34C759" opacity="0.85" clip-path="url(#ca)">+3.6% (+27)</text>
<text x="368.6" y="55.0" text-anchor="middle" font-size="9" fill="#4F8EF7" opacity="0.85" clip-path="url(#ca)">+4.1% (+70)</text>
<text x="368.6" y="66.0" text-anchor="middle" font-size="9" fill="#BF5AF2" opacity="0.85" clip-path="url(#ca)">+3.5% (+36)</text>
<text x="368.6" y="77.0" text-anchor="middle" font-size="9" fill="#34C759" opacity="0.85" clip-path="url(#ca)">+3.3% (+26)</text>
<text x="525.7" y="55.0" text-anchor="middle" font-size="9" fill="#4F8EF7" opacity="0.85" clip-path="url(#ca)">+3.5% (+61)</text>
<text x="525.7" y="66.0" text-anchor="middle" font-size="9" fill="#BF5AF2" opacity="0.85" clip-path="url(#ca)">+2.7% (+29)</text>
<text x="525.7" y="77.0" text-anchor="middle" font-size="9" fill="#34C759" opacity="0.85" clip-path="url(#ca)">+2.6% (+21)</text>
<text x="682.8" y="55.0" text-anchor="middle" font-size="9" fill="#4F8EF7" opacity="0.85" clip-path="url(#ca)">+2.7% (+49)</text>
<text x="682.8" y="66.0" text-anchor="middle" font-size="9" fill="#BF5AF2" opacity="0.85" clip-path="url(#ca)">+3.0% (+33)</text>
<text x="682.8" y="77.0" text-anchor="middle" font-size="9" fill="#34C759" opacity="0.85" clip-path="url(#ca)">+3.2% (+27)</text>
<text x="767.1" y="55.0" text-anchor="middle" font-size="9" fill="#4F8EF7" opacity="0.85" clip-path="url(#ca)">+0.1% (+1)</text>
<text x="767.1" y="66.0" text-anchor="middle" font-size="9" fill="#BF5AF2" opacity="0.85" clip-path="url(#ca)">+0.1% (+1)</text>
<text x="767.1" y="77.0" text-anchor="middle" font-size="9" fill="#34C759" opacity="0.85" clip-path="url(#ca)">+0.1% (+1)</text>
<rect x="211" y="369" width="12" height="12" fill="#4F8EF7" rx="2"/>
<text x="227" y="379" font-size="12" fill="#111827">Authors</text>
<rect x="351" y="369" width="12" height="12" fill="#BF5AF2" rx="2"/>
<text x="367" y="379" font-size="12" fill="#111827">Contributors</text>
<rect x="491" y="369" width="12" height="12" fill="#34C759" rx="2"/>
<text x="507" y="379" font-size="12" fill="#111827">Non-author contributors</text>
<text x="72" y="394" font-size="8" fill="#e5e7eb">data since Dec 11, 2025</text>
</svg>