<svg xmlns="http://www.w3.org/2000/svg" width="800" height="400" viewBox="0 0 800 400">
<defs><style>text { font-family: -apple-system, BlinkMacSystemFont, 'Segoe UI', Roboto, sans-serif; }</style></defs>
<rect width="800" height="400" fill="#ffffff" rx="12"/>
<text x="400" y="26" text-anchor="middle" font-size="15" font-weight="600" fill="#111827">Packages by Last Updated Quarter</text>
<text x="400" y="44" text-anchor="middle" font-size="11" fill="#6b7280">last updated at · 3,002 packages with a known last-update date</text>
<line x1="60" y1="58" x2="60" y2="320" stroke="#e5e7eb" stroke-width="1"/>
<line x1="60" y1="320" x2="770" y2="320" stroke="#e5e7eb" stroke-width="1"/>
<text x="-189" y="18" text-anchor="middle" font-size="12" fill="#6b7280" transform="rotate(-90)">Number of packages</text>
<line x1="60" y1="320.0" x2="770" y2="320.0" stroke="#f3f4f6" stroke-width="1"/>
<text x="54" y="324.0" text-anchor="end" font-size="11" fill="#6b7280">0</text>
<line x1="60" y1="267.8" x2="770" y2="267.8" stroke="#f3f4f6" stroke-width="1"/>
<text x="54" y="271.8" text-anchor="end" font-size="11" fill="#6b7280">121</text>
<line x1="60" y1="215.1" x2="770" y2="215.1" stroke="#f3f4f6" stroke-width="1"/>
<text x="54" y="219.1" text-anchor="end" font-size="11" fill="#6b7280">243</text>
<line x1="60" y1="162.9" x2="770" y2="162.9" stroke="#f3f4f6" stroke-width="1"/>
<text x="54" y="166.9" text-anchor="end" font-size="11" fill="#6b7280">364</text>
<line x1="60" y1="110.2" x2="770" y2="110.2" stroke="#f3f4f6" stroke-width="1"/>
<text x="54" y="114.2" text-anchor="end" font-size="11" fill="#6b7280">486</text>
<line x1="60" y1="58.0" x2="770" y2="58.0" stroke="#f3f4f6" stroke-width="1"/>
<text x="54" y="62.0" text-anchor="end" font-size="11" fill="#6b7280">607</text>
<rect x="66.5" y="314.4" width="24.3" height="5.6" fill="#34C759" rx="3" opacity="0.85"/>
<text x="78.7" y="298.4" text-anchor="middle" font-size="10" fill="#6b7280">13</text>
<text x="78.7" y="310.4" text-anchor="middle" font-size="10" fill="#6b7280">(0.43%)</text>
<g transform="translate(78.7,330.0) rotate(-45)"><text text-anchor="end" font-size="10" fill="#111827">2021-Q4</text></g>
<rect x="103.9" y="307.9" width="24.3" height="12.1" fill="#34C759" rx="3" opacity="0.85"/>
<text x="116.1" y="291.9" text-anchor="middle" font-size="10" fill="#6b7280">28</text>
<text x="116.1" y="303.9" text-anchor="middle" font-size="10" fill="#6b7280">(0.93%)</text>
<g transform="translate(116.1,330.0) rotate(-45)"><text text-anchor="end" font-size="10" fill="#111827">2022-Q1</text></g>
<rect x="141.3" y="304.9" width="24.3" height="15.1" fill="#34C759" rx="3" opacity="0.85"/>
<text x="153.4" y="288.9" text-anchor="middle" font-size="10" fill="#6b7280">35</text>
<text x="153.4" y="300.9" text-anchor="middle" font-size="10" fill="#6b7280">(1.17%)</text>
<g transform="translate(153.4,330.0) rotate(-45)"><text text-anchor="end" font-size="10" fill="#111827">2022-Q2</text></g>
<rect x="178.6" y="303.2" width="24.3" height="16.8" fill="#34C759" rx="3" opacity="0.85"/>
<text x="190.8" y="287.2" text-anchor="middle" font-size="10" fill="#6b7280">39</text>
<text x="190.8" y="299.2" text-anchor="middle" font-size="10" fill="#6b7280">(1.30%)</text>
<g transform="translate(190.8,330.0) rotate(-45)"><text text-anchor="end" font-size="10" fill="#111827">2022-Q3</text></g>
<rect x="216.0" y="293.2" width="24.3" height="26.8" fill="#34C759" rx="3" opacity="0.85"/>
<text x="228.2" y="277.2" text-anchor="middle" font-size="10" fill="#6b7280">62</text>
<text x="228.2" y="289.2" text-anchor="middle" font-size="10" fill="#6b7280">(2.07%)</text>
<g transform="translate(228.2,330.0) rotate(-45)"><text text-anchor="end" font-size="10" fill="#111827">2022-Q4</text></g>
<rect x="253.4" y="282.0" width="24.3" height="38.0" fill="#34C759" rx="3" opacity="0.85"/>
<text x="265.5" y="266.0" text-anchor="middle" font-size="10" fill="#6b7280">88</text>
<text x="265.5" y="278.0" text-anchor="middle" font-size="10" fill="#6b7280">(2.93%)</text>
<g transform="translate(265.5,330.0) rotate(-45)"><text text-anchor="end" font-size="10" fill="#111827">2023-Q1</text></g>
<rect x="290.8" y="281.6" width="24.3" height="38.4" fill="#34C759" rx="3" opacity="0.85"/>
<text x="302.9" y="265.6" text-anchor="middle" font-size="10" fill="#6b7280">89</text>
<text x="302.9" y="277.6" text-anchor="middle" font-size="10" fill="#6b7280">(2.96%)</text>
<g transform="translate(302.9,330.0) rotate(-45)"><text text-anchor="end" font-size="10" fill="#111827">2023-Q2</text></g>
<rect x="328.1" y="284.6" width="24.3" height="35.4" fill="#34C759" rx="3" opacity="0.85"/>
<text x="340.3" y="268.6" text-anchor="middle" font-size="10" fill="#6b7280">82</text>
<text x="340.3" y="280.6" text-anchor="middle" font-size="10" fill="#6b7280">(2.73%)</text>
<g transform="translate(340.3,330.0) rotate(-45)"><text text-anchor="end" font-size="10" fill="#111827">2023-Q3</text></g>
<rect x="365.5" y="293.2" width="24.3" height="26.8" fill="#34C759" rx="3" opacity="0.85"/>
<text x="377.6" y="277.2" text-anchor="middle" font-size="10" fill="#6b7280">62</text>
<text x="377.6" y="289.2" text-anchor="middle" font-size="10" fill="#6b7280">(2.07%)</text>
<g transform="translate(377.6,330.0) rotate(-45)"><text text-anchor="end" font-size="10" fill="#111827">2023-Q4</text></g>
<rect x="402.9" y="273.0" width="24.3" height="47.0" fill="#34C759" rx="3" opacity="0.85"/>
<text x="415.0" y="257.0" text-anchor="middle" font-size="10" fill="#6b7280">109</text>
<text x="415.0" y="269.0" text-anchor="middle" font-size="10" fill="#6b7280">(3.63%)</text>
<g transform="translate(415.0,330.0) rotate(-45)"><text text-anchor="end" font-size="10" fill="#111827">2024-Q1</text></g>
<rect x="440.2" y="266.0" width="24.3" height="54.0" fill="#34C759" rx="3" opacity="0.85"/>
<text x="452.4" y="250.0" text-anchor="middle" font-size="10" fill="#6b7280">125</text>
<text x="452.4" y="262.0" text-anchor="middle" font-size="10" fill="#6b7280">(4.16%)</text>
<g transform="translate(452.4,330.0) rotate(-45)"><text text-anchor="end" font-size="10" fill="#111827">2024-Q2</text></g>
<rect x="477.6" y="267.3" width="24.3" height="52.7" fill="#34C759" rx="3" opacity="0.85"/>
<text x="489.7" y="251.3" text-anchor="middle" font-size="10" fill="#6b7280">122</text>
<text x="489.7" y="263.3" text-anchor="middle" font-size="10" fill="#6b7280">(4.06%)</text>
<g transform="translate(489.7,330.0) rotate(-45)"><text text-anchor="end" font-size="10" fill="#111827">2024-Q3</text></g>
<rect x="515.0" y="270.8" width="24.3" height="49.2" fill="#34C759" rx="3" opacity="0.85"/>
<text x="527.1" y="254.8" text-anchor="middle" font-size="10" fill="#6b7280">114</text>
<text x="527.1" y="266.8" text-anchor="middle" font-size="10" fill="#6b7280">(3.80%)</text>
<g transform="translate(527.1,330.0) rotate(-45)"><text text-anchor="end" font-size="10" fill="#111827">2024-Q4</text></g>
<rect x="552.3" y="238.4" width="24.3" height="81.6" fill="#34C759" rx="3" opacity="0.85"/>
<text x="564.5" y="222.4" text-anchor="middle" font-size="10" fill="#6b7280">189</text>
<text x="564.5" y="234.4" text-anchor="middle" font-size="10" fill="#6b7280">(6.30%)</text>
<g transform="translate(564.5,330.0) rotate(-45)"><text text-anchor="end" font-size="10" fill="#111827">2025-Q1</text></g>
<rect x="589.7" y="230.7" width="24.3" height="89.3" fill="#34C759" rx="3" opacity="0.85"/>
<text x="601.8" y="214.7" text-anchor="middle" font-size="10" fill="#6b7280">207</text>
<text x="601.8" y="226.7" text-anchor="middle" font-size="10" fill="#6b7280">(6.90%)</text>
<g transform="translate(601.8,330.0) rotate(-45)"><text text-anchor="end" font-size="10" fill="#111827">2025-Q2</text></g>
<rect x="627.1" y="234.5" width="24.3" height="85.5" fill="#34C759" rx="3" opacity="0.85"/>
<text x="639.2" y="218.5" text-anchor="middle" font-size="10" fill="#6b7280">198</text>
<text x="639.2" y="230.5" text-anchor="middle" font-size="10" fill="#6b7280">(6.60%)</text>
<g transform="translate(639.2,330.0) rotate(-45)"><text text-anchor="end" font-size="10" fill="#111827">2025-Q3</text></g>
<rect x="664.4" y="196.1" width="24.3" height="123.9" fill="#34C759" rx="3" opacity="0.85"/>
<text x="676.6" y="180.1" text-anchor="middle" font-size="10" fill="#6b7280">287</text>
<text x="676.6" y="192.1" text-anchor="middle" font-size="10" fill="#6b7280">(9.56%)</text>
<g transform="translate(676.6,330.0) rotate(-45)"><text text-anchor="end" font-size="10" fill="#111827">2025-Q4</text></g>
<rect x="701.8" y="84.3" width="24.3" height="235.7" fill="#34C759" rx="3" opacity="0.85"/>
<text x="713.9" y="72.0" text-anchor="middle" font-size="10" fill="#6b7280">546</text>
<text x="713.9" y="84.0" text-anchor="middle" font-size="10" fill="#6b7280">(18.19%)</text>
<g transform="translate(713.9,330.0) rotate(-45)"><text text-anchor="end" font-size="10" fill="#111827">2026-Q1</text></g>
<rect x="739.2" y="58.0" width="24.3" height="262.0" fill="#34C759" rx="3" opacity="0.85"/>
<text x="751.3" y="72.0" text-anchor="middle" font-size="10" fill="#6b7280">607</text>
<text x="751.3" y="84.0" text-anchor="middle" font-size="10" fill="#6b7280">(20.22%)</text>
<g transform="translate(751.3,330.0) rotate(-45)"><text text-anchor="end" font-size="10" fill="#111827">2026-Q2</text></g>
</svg>