<svg xmlns="http://www.w3.org/2000/svg" width="800" height="400" viewBox="0 0 800 400">
<defs>
  <style>text { font-family: -apple-system, BlinkMacSystemFont, 'Segoe UI', Roboto, sans-serif; }</style>
  <linearGradient id="g2" x1="0" y1="0" x2="0" y2="1">
  <stop offset="0%" stop-color="#4F8EF7" stop-opacity="0.25"/>
  <stop offset="100%" stop-color="#4F8EF7" stop-opacity="0"/>
</linearGradient>
<linearGradient id="g3" x1="0" y1="0" x2="0" y2="1">
  <stop offset="0%" stop-color="#BF5AF2" stop-opacity="0.25"/>
  <stop offset="100%" stop-color="#BF5AF2" stop-opacity="0"/>
</linearGradient>
  <clipPath id="ca"><rect x="72" y="45" width="698" height="295"/></clipPath>
</defs>
<rect width="800" height="400" fill="#ffffff" rx="12"/>
<text x="400" y="26" text-anchor="middle" font-size="15" font-weight="600" fill="#111827">Community Growth Over Time</text>
<line x1="72" y1="340.0" x2="770" y2="340.0" stroke="#f3f4f6" stroke-width="1"/>
<text x="66" y="344.0" text-anchor="end" font-size="11" fill="#6b7280">907</text>
<line x1="72" y1="281.0" x2="770" y2="281.0" stroke="#f3f4f6" stroke-width="1"/>
<text x="66" y="285.0" text-anchor="end" font-size="11" fill="#6b7280">1.1k</text>
<line x1="72" y1="222.0" x2="770" y2="222.0" stroke="#f3f4f6" stroke-width="1"/>
<text x="66" y="226.0" text-anchor="end" font-size="11" fill="#6b7280">1.3k</text>
<line x1="72" y1="163.0" x2="770" y2="163.0" stroke="#f3f4f6" stroke-width="1"/>
<text x="66" y="167.0" text-anchor="end" font-size="11" fill="#6b7280">1.5k</text>
<line x1="72" y1="104.0" x2="770" y2="104.0" stroke="#f3f4f6" stroke-width="1"/>
<text x="66" y="108.0" text-anchor="end" font-size="11" fill="#6b7280">1.7k</text>
<line x1="72" y1="45.0" x2="770" y2="45.0" stroke="#f3f4f6" stroke-width="1"/>
<text x="66" y="49.0" text-anchor="end" font-size="11" fill="#6b7280">1.9k</text>
<line x1="182.2" y1="45" x2="182.2" y2="340" stroke="#e5e7eb" stroke-width="1" stroke-dasharray="3,3" clip-path="url(#ca)"/>
<line x1="421.0" y1="45" x2="421.0" y2="340" stroke="#e5e7eb" stroke-width="1" stroke-dasharray="3,3" clip-path="url(#ca)"/>
<line x1="669.0" y1="45" x2="669.0" y2="340" stroke="#e5e7eb" stroke-width="1" stroke-dasharray="3,3" clip-path="url(#ca)"/>
<text x="72.0" y="358.0" text-anchor="middle" font-size="11" fill="#6b7280">Dec 11</text>
<text x="209.8" y="358.0" text-anchor="middle" font-size="11" fill="#6b7280">Jan 6</text>
<text x="347.5" y="358.0" text-anchor="middle" font-size="11" fill="#6b7280">Jan 24</text>
<text x="494.5" y="358.0" text-anchor="middle" font-size="11" fill="#6b7280">Feb 9</text>
<text x="632.2" y="358.0" text-anchor="middle" font-size="11" fill="#6b7280">Feb 25</text>
<text x="770.0" y="358.0" text-anchor="middle" font-size="11" fill="#6b7280">Mar 13</text>
<line x1="72" y1="45" x2="72" y2="340" stroke="#e5e7eb" stroke-width="1"/>
<line x1="72" y1="340" x2="770" y2="340" stroke="#e5e7eb" stroke-width="1"/>
<text x="-192.5" y="18" text-anchor="middle" font-size="12" fill="#6b7280" transform="rotate(-90)">People</text>
<path d="M 72.0,340 L 72.0,121.8 L 81.2,121.8 L 90.4,121.8 L 99.6,120.8 L 108.7,120.8 L 117.9,120.2 L 127.1,119.9 L 136.3,120.2 L 145.5,119.3 L 154.7,119.3 L 163.8,119.3 L 173.0,119.3 L 182.2,119.3 L 191.4,119.3 L 200.6,119.3 L 209.8,119.3 L 218.9,119.0 L 228.1,118.1 L 237.3,116.2 L 246.5,115.3 L 255.7,115.0 L 264.9,115.0 L 274.1,114.1 L 283.2,111.9 L 292.4,110.7 L 301.6,110.7 L 310.8,109.2 L 320.0,108.6 L 329.2,107.3 L 338.3,106.4 L 347.5,105.5 L 356.7,104.6 L 365.9,104.6 L 375.1,102.4 L 384.3,101.2 L 393.4,101.2 L 402.6,100.0 L 411.8,99.4 L 421.0,99.0 L 430.2,98.7 L 439.4,98.7 L 448.6,97.8 L 457.7,94.1 L 466.9,92.0 L 476.1,90.8 L 485.3,90.5 L 494.5,89.8 L 503.7,88.6 L 512.8,88.0 L 522.0,87.4 L 531.2,86.8 L 540.4,86.2 L 549.6,85.5 L 558.8,85.5 L 567.9,82.5 L 577.1,82.5 L 586.3,82.2 L 595.5,81.9 L 604.7,81.2 L 613.9,81.2 L 623.1,79.7 L 632.2,77.9 L 641.4,77.3 L 650.6,77.9 L 659.8,77.6 L 669.0,77.3 L 678.2,77.3 L 687.3,76.6 L 696.5,75.4 L 705.7,74.8 L 714.9,74.2 L 724.1,73.9 L 733.3,73.9 L 742.4,72.7 L 751.6,72.0 L 760.8,72.0 L 770.0,69.6 L 770.0,340 Z" fill="url(#g2)" clip-path="url(#ca)"/>
<path d="M 72.0,121.8 L 81.2,121.8 L 90.4,121.8 L 99.6,120.8 L 108.7,120.8 L 117.9,120.2 L 127.1,119.9 L 136.3,120.2 L 145.5,119.3 L 154.7,119.3 L 163.8,119.3 L 173.0,119.3 L 182.2,119.3 L 191.4,119.3 L 200.6,119.3 L 209.8,119.3 L 218.9,119.0 L 228.1,118.1 L 237.3,116.2 L 246.5,115.3 L 255.7,115.0 L 264.9,115.0 L 274.1,114.1 L 283.2,111.9 L 292.4,110.7 L 301.6,110.7 L 310.8,109.2 L 320.0,108.6 L 329.2,107.3 L 338.3,106.4 L 347.5,105.5 L 356.7,104.6 L 365.9,104.6 L 375.1,102.4 L 384.3,101.2 L 393.4,101.2 L 402.6,100.0 L 411.8,99.4 L 421.0,99.0 L 430.2,98.7 L 439.4,98.7 L 448.6,97.8 L 457.7,94.1 L 466.9,92.0 L 476.1,90.8 L 485.3,90.5 L 494.5,89.8 L 503.7,88.6 L 512.8,88.0 L 522.0,87.4 L 531.2,86.8 L 540.4,86.2 L 549.6,85.5 L 558.8,85.5 L 567.9,82.5 L 577.1,82.5 L 586.3,82.2 L 595.5,81.9 L 604.7,81.2 L 613.9,81.2 L 623.1,79.7 L 632.2,77.9 L 641.4,77.3 L 650.6,77.9 L 659.8,77.6 L 669.0,77.3 L 678.2,77.3 L 687.3,76.6 L 696.5,75.4 L 705.7,74.8 L 714.9,74.2 L 724.1,73.9 L 733.3,73.9 L 742.4,72.7 L 751.6,72.0 L 760.8,72.0 L 770.0,69.6" fill="none" stroke="#4F8EF7" stroke-width="2.5" stroke-linejoin="round" clip-path="url(#ca)"/>
<path d="M 72.0,340 L 72.0,315.4 L 81.2,314.5 L 90.4,314.5 L 99.6,314.5 L 108.7,314.2 L 117.9,313.6 L 127.1,313.3 L 136.3,313.0 L 145.5,313.0 L 154.7,312.7 L 163.8,312.3 L 173.0,312.3 L 182.2,312.3 L 191.4,312.3 L 200.6,312.3 L 209.8,312.3 L 218.9,311.7 L 228.1,311.7 L 237.3,311.7 L 246.5,310.5 L 255.7,310.2 L 264.9,309.6 L 274.1,308.4 L 283.2,308.1 L 292.4,308.1 L 301.6,308.1 L 310.8,307.1 L 320.0,306.5 L 329.2,306.5 L 338.3,305.9 L 347.5,305.6 L 356.7,305.0 L 365.9,305.0 L 375.1,304.7 L 384.3,303.4 L 393.4,302.5 L 402.6,301.9 L 411.8,301.6 L 421.0,301.6 L 430.2,301.3 L 439.4,300.7 L 448.6,300.7 L 457.7,300.4 L 466.9,299.5 L 476.1,298.8 L 485.3,298.8 L 494.5,298.8 L 503.7,298.8 L 512.8,298.5 L 522.0,297.6 L 531.2,297.0 L 540.4,296.7 L 549.6,296.4 L 558.8,296.1 L 567.9,295.8 L 577.1,295.5 L 586.3,295.2 L 595.5,294.2 L 604.7,293.9 L 613.9,293.6 L 623.1,292.4 L 632.2,291.2 L 641.4,291.2 L 650.6,290.9 L 659.8,290.6 L 669.0,290.6 L 678.2,290.6 L 687.3,289.9 L 696.5,289.9 L 705.7,288.1 L 714.9,287.8 L 724.1,287.5 L 733.3,287.5 L 742.4,286.9 L 751.6,286.6 L 760.8,286.6 L 770.0,286.3 L 770.0,340 Z" fill="url(#g3)" clip-path="url(#ca)"/>
<path d="M 72.0,315.4 L 81.2,314.5 L 90.4,314.5 L 99.6,314.5 L 108.7,314.2 L 117.9,313.6 L 127.1,313.3 L 136.3,313.0 L 145.5,313.0 L 154.7,312.7 L 163.8,312.3 L 173.0,312.3 L 182.2,312.3 L 191.4,312.3 L 200.6,312.3 L 209.8,312.3 L 218.9,311.7 L 228.1,311.7 L 237.3,311.7 L 246.5,310.5 L 255.7,310.2 L 264.9,309.6 L 274.1,308.4 L 283.2,308.1 L 292.4,308.1 L 301.6,308.1 L 310.8,307.1 L 320.0,306.5 L 329.2,306.5 L 338.3,305.9 L 347.5,305.6 L 356.7,305.0 L 365.9,305.0 L 375.1,304.7 L 384.3,303.4 L 393.4,302.5 L 402.6,301.9 L 411.8,301.6 L 421.0,301.6 L 430.2,301.3 L 439.4,300.7 L 448.6,300.7 L 457.7,300.4 L 466.9,299.5 L 476.1,298.8 L 485.3,298.8 L 494.5,298.8 L 503.7,298.8 L 512.8,298.5 L 522.0,297.6 L 531.2,297.0 L 540.4,296.7 L 549.6,296.4 L 558.8,296.1 L 567.9,295.8 L 577.1,295.5 L 586.3,295.2 L 595.5,294.2 L 604.7,293.9 L 613.9,293.6 L 623.1,292.4 L 632.2,291.2 L 641.4,291.2 L 650.6,290.9 L 659.8,290.6 L 669.0,290.6 L 678.2,290.6 L 687.3,289.9 L 696.5,289.9 L 705.7,288.1 L 714.9,287.8 L 724.1,287.5 L 733.3,287.5 L 742.4,286.9 L 751.6,286.6 L 760.8,286.6 L 770.0,286.3" fill="none" stroke="#BF5AF2" stroke-width="2.5" stroke-linejoin="round" clip-path="url(#ca)"/>
<text x="122.5" y="55.0" text-anchor="middle" font-size="9" fill="#4F8EF7" opacity="0.85" clip-path="url(#ca)">+0.5%</text>
<text x="122.5" y="66.0" text-anchor="middle" font-size="9" fill="#BF5AF2" opacity="0.85" clip-path="url(#ca)">+1.0%</text>
<text x="297.0" y="55.0" text-anchor="middle" font-size="9" fill="#4F8EF7" opacity="0.85" clip-path="url(#ca)">+4.0%</text>
<text x="297.0" y="66.0" text-anchor="middle" font-size="9" fill="#BF5AF2" opacity="0.85" clip-path="url(#ca)">+3.5%</text>
<text x="540.4" y="55.0" text-anchor="middle" font-size="9" fill="#4F8EF7" opacity="0.85" clip-path="url(#ca)">+4.1%</text>
<text x="540.4" y="66.0" text-anchor="middle" font-size="9" fill="#BF5AF2" opacity="0.85" clip-path="url(#ca)">+3.5%</text>
<text x="719.5" y="55.0" text-anchor="middle" font-size="9" fill="#4F8EF7" opacity="0.85" clip-path="url(#ca)">+1.4%</text>
<text x="719.5" y="66.0" text-anchor="middle" font-size="9" fill="#BF5AF2" opacity="0.85" clip-path="url(#ca)">+1.3%</text>
<rect x="281" y="369" width="12" height="12" fill="#4F8EF7" rx="2"/>
<text x="297" y="379" font-size="12" fill="#111827">Authors</text>
<rect x="421" y="369" width="12" height="12" fill="#BF5AF2" rx="2"/>
<text x="437" y="379" font-size="12" fill="#111827">Contributors</text>
<text x="72" y="394" font-size="8" fill="#e5e7eb">data since Dec 11, 2025</text>
</svg>