<svg xmlns="http://www.w3.org/2000/svg" width="800" height="400" viewBox="0 0 800 400">
<defs>
  <style>text { font-family: -apple-system, BlinkMacSystemFont, 'Segoe UI', Roboto, sans-serif; }</style>
  <linearGradient id="g2" x1="0" y1="0" x2="0" y2="1">
  <stop offset="0%" stop-color="#4F8EF7" stop-opacity="0.25"/>
  <stop offset="100%" stop-color="#4F8EF7" stop-opacity="0"/>
</linearGradient>
<linearGradient id="g3" x1="0" y1="0" x2="0" y2="1">
  <stop offset="0%" stop-color="#BF5AF2" stop-opacity="0.25"/>
  <stop offset="100%" stop-color="#BF5AF2" stop-opacity="0"/>
</linearGradient>
<linearGradient id="g4" x1="0" y1="0" x2="0" y2="1">
  <stop offset="0%" stop-color="#34C759" stop-opacity="0.25"/>
  <stop offset="100%" stop-color="#34C759" stop-opacity="0"/>
</linearGradient>
  <clipPath id="ca"><rect x="72" y="45" width="698" height="295"/></clipPath>
</defs>
<rect width="800" height="400" fill="#ffffff" rx="12"/>
<text x="400" y="26" text-anchor="middle" font-size="15" font-weight="600" fill="#111827">Community Growth Over Time</text>
<line x1="72" y1="340.0" x2="770" y2="340.0" stroke="#f3f4f6" stroke-width="1"/>
<text x="66" y="344.0" text-anchor="end" font-size="11" fill="#6b7280">500</text>
<line x1="72" y1="241.7" x2="770" y2="241.7" stroke="#f3f4f6" stroke-width="1"/>
<text x="66" y="245.7" text-anchor="end" font-size="11" fill="#6b7280">1.0k</text>
<line x1="72" y1="143.3" x2="770" y2="143.3" stroke="#f3f4f6" stroke-width="1"/>
<text x="66" y="147.3" text-anchor="end" font-size="11" fill="#6b7280">1.5k</text>
<line x1="72" y1="45.0" x2="770" y2="45.0" stroke="#f3f4f6" stroke-width="1"/>
<text x="66" y="49.0" text-anchor="end" font-size="11" fill="#6b7280">2.0k</text>
<line x1="148.8" y1="45" x2="148.8" y2="340" stroke="#e5e7eb" stroke-width="1" stroke-dasharray="3,3" clip-path="url(#ca)"/>
<line x1="315.3" y1="45" x2="315.3" y2="340" stroke="#e5e7eb" stroke-width="1" stroke-dasharray="3,3" clip-path="url(#ca)"/>
<line x1="488.2" y1="45" x2="488.2" y2="340" stroke="#e5e7eb" stroke-width="1" stroke-dasharray="3,3" clip-path="url(#ca)"/>
<line x1="661.1" y1="45" x2="661.1" y2="340" stroke="#e5e7eb" stroke-width="1" stroke-dasharray="3,3" clip-path="url(#ca)"/>
<text x="72.0" y="358.0" text-anchor="middle" font-size="11" fill="#6b7280">Dec 11</text>
<text x="212.9" y="358.0" text-anchor="middle" font-size="11" fill="#6b7280">Jan 15</text>
<text x="353.8" y="358.0" text-anchor="middle" font-size="11" fill="#6b7280">Feb 7</text>
<text x="488.2" y="358.0" text-anchor="middle" font-size="11" fill="#6b7280">Mar 1</text>
<text x="629.1" y="358.0" text-anchor="middle" font-size="11" fill="#6b7280">Mar 25</text>
<text x="770.0" y="358.0" text-anchor="middle" font-size="11" fill="#6b7280">Apr 19</text>
<line x1="72" y1="45" x2="72" y2="340" stroke="#e5e7eb" stroke-width="1"/>
<line x1="72" y1="340" x2="770" y2="340" stroke="#e5e7eb" stroke-width="1"/>
<text x="-192.5" y="18" text-anchor="middle" font-size="12" fill="#6b7280" transform="rotate(-90)">People</text>
<path d="M 72.0,340 L 72.0,120.1 L 78.4,120.1 L 84.8,120.1 L 91.2,119.5 L 97.6,119.5 L 104.0,119.1 L 110.4,118.9 L 116.8,119.1 L 123.2,118.6 L 129.6,118.6 L 136.0,118.6 L 142.4,118.6 L 148.8,118.6 L 155.2,118.6 L 161.7,118.6 L 168.1,118.6 L 174.5,118.4 L 180.9,117.8 L 187.3,116.6 L 193.7,116.0 L 200.1,115.8 L 206.5,115.8 L 212.9,115.2 L 219.3,113.8 L 225.7,113.0 L 232.1,113.0 L 238.5,112.1 L 244.9,111.7 L 251.3,110.9 L 257.7,110.3 L 264.1,109.7 L 270.5,109.1 L 276.9,109.1 L 283.3,107.7 L 289.7,106.9 L 296.1,106.9 L 302.5,106.2 L 308.9,105.8 L 315.3,105.6 L 321.7,105.4 L 328.1,105.4 L 334.6,104.8 L 341.0,102.4 L 347.4,101.0 L 353.8,100.3 L 360.2,100.1 L 366.6,99.7 L 373.0,98.9 L 379.4,98.5 L 385.8,98.1 L 392.2,97.7 L 398.6,97.3 L 405.0,96.9 L 411.4,96.9 L 417.8,95.0 L 424.2,95.0 L 430.6,94.8 L 437.0,94.6 L 443.4,94.2 L 449.8,94.2 L 456.2,93.2 L 462.6,92.0 L 469.0,91.6 L 475.4,92.0 L 481.8,91.8 L 488.2,91.6 L 494.6,91.6 L 501.0,91.2 L 507.4,90.4 L 513.9,90.0 L 520.3,89.6 L 526.7,89.4 L 533.1,89.4 L 539.5,88.7 L 545.9,88.3 L 552.3,88.3 L 558.7,86.7 L 565.1,86.7 L 571.5,86.7 L 577.9,86.7 L 584.3,86.5 L 590.7,85.9 L 597.1,85.1 L 603.5,84.7 L 609.9,84.7 L 616.3,84.3 L 622.7,82.8 L 629.1,81.8 L 635.5,81.6 L 641.9,81.4 L 648.3,80.8 L 654.7,79.6 L 661.1,79.2 L 667.5,78.8 L 673.9,77.6 L 680.3,77.4 L 686.8,77.4 L 693.2,77.4 L 699.6,77.3 L 706.0,76.1 L 712.4,75.9 L 718.8,75.7 L 725.2,75.7 L 731.6,75.3 L 738.0,73.7 L 744.4,73.5 L 750.8,73.3 L 757.2,73.3 L 763.6,72.5 L 770.0,72.3 L 770.0,340 Z" fill="url(#g2)" clip-path="url(#ca)"/>
<path d="M 72.0,120.1 L 78.4,120.1 L 84.8,120.1 L 91.2,119.5 L 97.6,119.5 L 104.0,119.1 L 110.4,118.9 L 116.8,119.1 L 123.2,118.6 L 129.6,118.6 L 136.0,118.6 L 142.4,118.6 L 148.8,118.6 L 155.2,118.6 L 161.7,118.6 L 168.1,118.6 L 174.5,118.4 L 180.9,117.8 L 187.3,116.6 L 193.7,116.0 L 200.1,115.8 L 206.5,115.8 L 212.9,115.2 L 219.3,113.8 L 225.7,113.0 L 232.1,113.0 L 238.5,112.1 L 244.9,111.7 L 251.3,110.9 L 257.7,110.3 L 264.1,109.7 L 270.5,109.1 L 276.9,109.1 L 283.3,107.7 L 289.7,106.9 L 296.1,106.9 L 302.5,106.2 L 308.9,105.8 L 315.3,105.6 L 321.7,105.4 L 328.1,105.4 L 334.6,104.8 L 341.0,102.4 L 347.4,101.0 L 353.8,100.3 L 360.2,100.1 L 366.6,99.7 L 373.0,98.9 L 379.4,98.5 L 385.8,98.1 L 392.2,97.7 L 398.6,97.3 L 405.0,96.9 L 411.4,96.9 L 417.8,95.0 L 424.2,95.0 L 430.6,94.8 L 437.0,94.6 L 443.4,94.2 L 449.8,94.2 L 456.2,93.2 L 462.6,92.0 L 469.0,91.6 L 475.4,92.0 L 481.8,91.8 L 488.2,91.6 L 494.6,91.6 L 501.0,91.2 L 507.4,90.4 L 513.9,90.0 L 520.3,89.6 L 526.7,89.4 L 533.1,89.4 L 539.5,88.7 L 545.9,88.3 L 552.3,88.3 L 558.7,86.7 L 565.1,86.7 L 571.5,86.7 L 577.9,86.7 L 584.3,86.5 L 590.7,85.9 L 597.1,85.1 L 603.5,84.7 L 609.9,84.7 L 616.3,84.3 L 622.7,82.8 L 629.1,81.8 L 635.5,81.6 L 641.9,81.4 L 648.3,80.8 L 654.7,79.6 L 661.1,79.2 L 667.5,78.8 L 673.9,77.6 L 680.3,77.4 L 686.8,77.4 L 693.2,77.4 L 699.6,77.3 L 706.0,76.1 L 712.4,75.9 L 718.8,75.7 L 725.2,75.7 L 731.6,75.3 L 738.0,73.7 L 744.4,73.5 L 750.8,73.3 L 757.2,73.3 L 763.6,72.5 L 770.0,72.3" fill="none" stroke="#4F8EF7" stroke-width="2.5" stroke-linejoin="round" clip-path="url(#ca)"/>
<path d="M 72.0,340 L 72.0,244.2 L 78.4,243.6 L 84.8,243.6 L 91.2,243.6 L 97.6,243.4 L 104.0,243.0 L 110.4,242.8 L 116.8,242.6 L 123.2,242.6 L 129.6,242.5 L 136.0,242.3 L 142.4,242.3 L 148.8,242.3 L 155.2,242.3 L 161.7,242.3 L 168.1,242.3 L 174.5,241.9 L 180.9,241.9 L 187.3,241.9 L 193.7,241.1 L 200.1,240.9 L 206.5,240.5 L 212.9,239.7 L 219.3,239.5 L 225.7,239.5 L 232.1,239.5 L 238.5,238.9 L 244.9,238.5 L 251.3,238.5 L 257.7,238.1 L 264.1,237.9 L 270.5,237.5 L 276.9,237.5 L 283.3,237.3 L 289.7,236.6 L 296.1,236.0 L 302.5,235.6 L 308.9,235.4 L 315.3,235.4 L 321.7,235.2 L 328.1,234.8 L 334.6,234.8 L 341.0,234.6 L 347.4,234.0 L 353.8,233.6 L 360.2,233.6 L 366.6,233.6 L 373.0,233.6 L 379.4,233.4 L 385.8,232.8 L 392.2,232.4 L 398.6,232.2 L 405.0,232.0 L 411.4,231.8 L 417.8,231.6 L 424.2,231.4 L 430.6,231.2 L 437.0,230.7 L 443.4,230.5 L 449.8,230.3 L 456.2,229.5 L 462.6,228.7 L 469.0,228.7 L 475.4,228.5 L 481.8,228.3 L 488.2,228.3 L 494.6,228.3 L 501.0,227.9 L 507.4,227.9 L 513.9,226.7 L 520.3,226.5 L 526.7,226.3 L 533.1,226.3 L 539.5,225.9 L 545.9,225.7 L 552.3,225.7 L 558.7,225.5 L 565.1,225.5 L 571.5,225.5 L 577.9,225.1 L 584.3,224.9 L 590.7,224.0 L 597.1,224.2 L 603.5,224.0 L 609.9,223.8 L 616.3,223.8 L 622.7,223.6 L 629.1,223.0 L 635.5,223.0 L 641.9,223.0 L 648.3,223.0 L 654.7,222.6 L 661.1,222.6 L 667.5,222.2 L 673.9,221.8 L 680.3,221.0 L 686.8,221.0 L 693.2,220.6 L 699.6,220.4 L 706.0,220.2 L 712.4,220.0 L 718.8,219.6 L 725.2,219.6 L 731.6,219.1 L 738.0,219.1 L 744.4,218.9 L 750.8,218.5 L 757.2,218.3 L 763.6,218.3 L 770.0,218.3 L 770.0,340 Z" fill="url(#g3)" clip-path="url(#ca)"/>
<path d="M 72.0,244.2 L 78.4,243.6 L 84.8,243.6 L 91.2,243.6 L 97.6,243.4 L 104.0,243.0 L 110.4,242.8 L 116.8,242.6 L 123.2,242.6 L 129.6,242.5 L 136.0,242.3 L 142.4,242.3 L 148.8,242.3 L 155.2,242.3 L 161.7,242.3 L 168.1,242.3 L 174.5,241.9 L 180.9,241.9 L 187.3,241.9 L 193.7,241.1 L 200.1,240.9 L 206.5,240.5 L 212.9,239.7 L 219.3,239.5 L 225.7,239.5 L 232.1,239.5 L 238.5,238.9 L 244.9,238.5 L 251.3,238.5 L 257.7,238.1 L 264.1,237.9 L 270.5,237.5 L 276.9,237.5 L 283.3,237.3 L 289.7,236.6 L 296.1,236.0 L 302.5,235.6 L 308.9,235.4 L 315.3,235.4 L 321.7,235.2 L 328.1,234.8 L 334.6,234.8 L 341.0,234.6 L 347.4,234.0 L 353.8,233.6 L 360.2,233.6 L 366.6,233.6 L 373.0,233.6 L 379.4,233.4 L 385.8,232.8 L 392.2,232.4 L 398.6,232.2 L 405.0,232.0 L 411.4,231.8 L 417.8,231.6 L 424.2,231.4 L 430.6,231.2 L 437.0,230.7 L 443.4,230.5 L 449.8,230.3 L 456.2,229.5 L 462.6,228.7 L 469.0,228.7 L 475.4,228.5 L 481.8,228.3 L 488.2,228.3 L 494.6,228.3 L 501.0,227.9 L 507.4,227.9 L 513.9,226.7 L 520.3,226.5 L 526.7,226.3 L 533.1,226.3 L 539.5,225.9 L 545.9,225.7 L 552.3,225.7 L 558.7,225.5 L 565.1,225.5 L 571.5,225.5 L 577.9,225.1 L 584.3,224.9 L 590.7,224.0 L 597.1,224.2 L 603.5,224.0 L 609.9,223.8 L 616.3,223.8 L 622.7,223.6 L 629.1,223.0 L 635.5,223.0 L 641.9,223.0 L 648.3,223.0 L 654.7,222.6 L 661.1,222.6 L 667.5,222.2 L 673.9,221.8 L 680.3,221.0 L 686.8,221.0 L 693.2,220.6 L 699.6,220.4 L 706.0,220.2 L 712.4,220.0 L 718.8,219.6 L 725.2,219.6 L 731.6,219.1 L 738.0,219.1 L 744.4,218.9 L 750.8,218.5 L 757.2,218.3 L 763.6,218.3 L 770.0,218.3" fill="none" stroke="#BF5AF2" stroke-width="2.5" stroke-linejoin="round" clip-path="url(#ca)"/>
<path d="M 72.0,340 L 72.0,291.4 L 78.4,290.8 L 84.8,290.8 L 91.2,290.8 L 97.6,290.6 L 104.0,290.2 L 110.4,290.0 L 116.8,289.7 L 123.2,289.7 L 129.6,289.5 L 136.0,289.3 L 142.4,289.3 L 148.8,289.3 L 155.2,289.3 L 161.7,289.3 L 168.1,289.3 L 174.5,288.9 L 180.9,288.9 L 187.3,289.1 L 193.7,288.5 L 200.1,288.7 L 206.5,288.1 L 212.9,287.5 L 219.3,287.3 L 225.7,287.5 L 232.1,287.5 L 238.5,286.9 L 244.9,286.7 L 251.3,286.7 L 257.7,286.3 L 264.1,286.1 L 270.5,285.7 L 276.9,285.7 L 283.3,285.5 L 289.7,284.9 L 296.1,284.3 L 302.5,283.9 L 308.9,283.9 L 315.3,283.9 L 321.7,283.8 L 328.1,283.4 L 334.6,283.4 L 341.0,283.2 L 347.4,282.6 L 353.8,282.4 L 360.2,282.4 L 366.6,282.4 L 373.0,282.4 L 379.4,282.2 L 385.8,281.6 L 392.2,281.4 L 398.6,281.2 L 405.0,281.0 L 411.4,281.0 L 417.8,280.8 L 424.2,280.8 L 430.6,280.8 L 437.0,280.2 L 443.4,280.2 L 449.8,280.2 L 456.2,279.8 L 462.6,279.2 L 469.0,279.2 L 475.4,279.0 L 481.8,278.8 L 488.2,278.8 L 494.6,278.8 L 501.0,278.4 L 507.4,278.4 L 513.9,277.3 L 520.3,277.1 L 526.7,276.9 L 533.1,276.9 L 539.5,276.7 L 545.9,276.7 L 552.3,276.7 L 558.7,276.7 L 565.1,276.7 L 571.5,276.7 L 577.9,276.3 L 584.3,276.1 L 590.7,275.1 L 597.1,275.3 L 603.5,275.3 L 609.9,275.1 L 616.3,275.1 L 622.7,275.1 L 629.1,274.7 L 635.5,274.7 L 641.9,274.7 L 648.3,274.7 L 654.7,274.7 L 661.1,274.7 L 667.5,274.5 L 673.9,274.5 L 680.3,273.7 L 686.8,273.7 L 693.2,273.5 L 699.6,273.3 L 706.0,273.1 L 712.4,272.9 L 718.8,272.5 L 725.2,272.5 L 731.6,272.0 L 738.0,272.0 L 744.4,271.8 L 750.8,271.6 L 757.2,271.6 L 763.6,271.6 L 770.0,271.6 L 770.0,340 Z" fill="url(#g4)" clip-path="url(#ca)"/>
<path d="M 72.0,291.4 L 78.4,290.8 L 84.8,290.8 L 91.2,290.8 L 97.6,290.6 L 104.0,290.2 L 110.4,290.0 L 116.8,289.7 L 123.2,289.7 L 129.6,289.5 L 136.0,289.3 L 142.4,289.3 L 148.8,289.3 L 155.2,289.3 L 161.7,289.3 L 168.1,289.3 L 174.5,288.9 L 180.9,288.9 L 187.3,289.1 L 193.7,288.5 L 200.1,288.7 L 206.5,288.1 L 212.9,287.5 L 219.3,287.3 L 225.7,287.5 L 232.1,287.5 L 238.5,286.9 L 244.9,286.7 L 251.3,286.7 L 257.7,286.3 L 264.1,286.1 L 270.5,285.7 L 276.9,285.7 L 283.3,285.5 L 289.7,284.9 L 296.1,284.3 L 302.5,283.9 L 308.9,283.9 L 315.3,283.9 L 321.7,283.8 L 328.1,283.4 L 334.6,283.4 L 341.0,283.2 L 347.4,282.6 L 353.8,282.4 L 360.2,282.4 L 366.6,282.4 L 373.0,282.4 L 379.4,282.2 L 385.8,281.6 L 392.2,281.4 L 398.6,281.2 L 405.0,281.0 L 411.4,281.0 L 417.8,280.8 L 424.2,280.8 L 430.6,280.8 L 437.0,280.2 L 443.4,280.2 L 449.8,280.2 L 456.2,279.8 L 462.6,279.2 L 469.0,279.2 L 475.4,279.0 L 481.8,278.8 L 488.2,278.8 L 494.6,278.8 L 501.0,278.4 L 507.4,278.4 L 513.9,277.3 L 520.3,277.1 L 526.7,276.9 L 533.1,276.9 L 539.5,276.7 L 545.9,276.7 L 552.3,276.7 L 558.7,276.7 L 565.1,276.7 L 571.5,276.7 L 577.9,276.3 L 584.3,276.1 L 590.7,275.1 L 597.1,275.3 L 603.5,275.3 L 609.9,275.1 L 616.3,275.1 L 622.7,275.1 L 629.1,274.7 L 635.5,274.7 L 641.9,274.7 L 648.3,274.7 L 654.7,274.7 L 661.1,274.7 L 667.5,274.5 L 673.9,274.5 L 680.3,273.7 L 686.8,273.7 L 693.2,273.5 L 699.6,273.3 L 706.0,273.1 L 712.4,272.9 L 718.8,272.5 L 725.2,272.5 L 731.6,272.0 L 738.0,272.0 L 744.4,271.8 L 750.8,271.6 L 757.2,271.6 L 763.6,271.6 L 770.0,271.6" fill="none" stroke="#34C759" stroke-width="2.5" stroke-linejoin="round" clip-path="url(#ca)"/>
<text x="107.2" y="55.0" text-anchor="middle" font-size="9" fill="#4F8EF7" opacity="0.85" clip-path="url(#ca)">+0.5% (+8)</text>
<text x="107.2" y="66.0" text-anchor="middle" font-size="9" fill="#BF5AF2" opacity="0.85" clip-path="url(#ca)">+1.0% (+10)</text>
<text x="107.2" y="77.0" text-anchor="middle" font-size="9" fill="#34C759" opacity="0.85" clip-path="url(#ca)">+1.5% (+11)</text>
<text x="228.9" y="55.0" text-anchor="middle" font-size="9" fill="#4F8EF7" opacity="0.85" clip-path="url(#ca)">+4.0% (+65)</text>
<text x="228.9" y="66.0" text-anchor="middle" font-size="9" fill="#BF5AF2" opacity="0.85" clip-path="url(#ca)">+3.5% (+35)</text>
<text x="228.9" y="77.0" text-anchor="middle" font-size="9" fill="#34C759" opacity="0.85" clip-path="url(#ca)">+3.6% (+27)</text>
<text x="398.6" y="55.0" text-anchor="middle" font-size="9" fill="#4F8EF7" opacity="0.85" clip-path="url(#ca)">+4.1% (+70)</text>
<text x="398.6" y="66.0" text-anchor="middle" font-size="9" fill="#BF5AF2" opacity="0.85" clip-path="url(#ca)">+3.5% (+36)</text>
<text x="398.6" y="77.0" text-anchor="middle" font-size="9" fill="#34C759" opacity="0.85" clip-path="url(#ca)">+3.3% (+26)</text>
<text x="571.5" y="55.0" text-anchor="middle" font-size="9" fill="#4F8EF7" opacity="0.85" clip-path="url(#ca)">+3.5% (+61)</text>
<text x="571.5" y="66.0" text-anchor="middle" font-size="9" fill="#BF5AF2" opacity="0.85" clip-path="url(#ca)">+2.7% (+29)</text>
<text x="571.5" y="77.0" text-anchor="middle" font-size="9" fill="#34C759" opacity="0.85" clip-path="url(#ca)">+2.6% (+21)</text>
<text x="715.6" y="55.0" text-anchor="middle" font-size="9" fill="#4F8EF7" opacity="0.85" clip-path="url(#ca)">+1.9% (+35)</text>
<text x="715.6" y="66.0" text-anchor="middle" font-size="9" fill="#BF5AF2" opacity="0.85" clip-path="url(#ca)">+2.0% (+22)</text>
<text x="715.6" y="77.0" text-anchor="middle" font-size="9" fill="#34C759" opacity="0.85" clip-path="url(#ca)">+1.9% (+16)</text>
<rect x="211" y="369" width="12" height="12" fill="#4F8EF7" rx="2"/>
<text x="227" y="379" font-size="12" fill="#111827">Authors</text>
<rect x="351" y="369" width="12" height="12" fill="#BF5AF2" rx="2"/>
<text x="367" y="379" font-size="12" fill="#111827">Contributors</text>
<rect x="491" y="369" width="12" height="12" fill="#34C759" rx="2"/>
<text x="507" y="379" font-size="12" fill="#111827">Non-author contributors</text>
<text x="72" y="394" font-size="8" fill="#e5e7eb">data since Dec 11, 2025</text>
</svg>