<svg xmlns="http://www.w3.org/2000/svg" width="800" height="400" viewBox="0 0 800 400">
<defs><style>text { font-family: -apple-system, BlinkMacSystemFont, 'Segoe UI', Roboto, sans-serif; }</style></defs>
<rect width="800" height="400" fill="#ffffff" rx="12"/>
<text x="400" y="26" text-anchor="middle" font-size="15" font-weight="600" fill="#111827">Package Updates by Quarter</text>
<text x="400" y="44" text-anchor="middle" font-size="11" fill="#6b7280">last updated at · 2,671 packages with a known last-update date</text>
<line x1="60" y1="58" x2="60" y2="320" stroke="#e5e7eb" stroke-width="1"/>
<line x1="60" y1="320" x2="770" y2="320" stroke="#e5e7eb" stroke-width="1"/>
<text x="-189" y="18" text-anchor="middle" font-size="12" fill="#6b7280" transform="rotate(-90)">Number of packages</text>
<line x1="60" y1="320.0" x2="770" y2="320.0" stroke="#f3f4f6" stroke-width="1"/>
<text x="54" y="324.0" text-anchor="end" font-size="11" fill="#6b7280">0</text>
<line x1="60" y1="267.6" x2="770" y2="267.6" stroke="#f3f4f6" stroke-width="1"/>
<text x="54" y="271.6" text-anchor="end" font-size="11" fill="#6b7280">110</text>
<line x1="60" y1="215.2" x2="770" y2="215.2" stroke="#f3f4f6" stroke-width="1"/>
<text x="54" y="219.2" text-anchor="end" font-size="11" fill="#6b7280">220</text>
<line x1="60" y1="162.8" x2="770" y2="162.8" stroke="#f3f4f6" stroke-width="1"/>
<text x="54" y="166.8" text-anchor="end" font-size="11" fill="#6b7280">330</text>
<line x1="60" y1="110.4" x2="770" y2="110.4" stroke="#f3f4f6" stroke-width="1"/>
<text x="54" y="114.4" text-anchor="end" font-size="11" fill="#6b7280">440</text>
<line x1="60" y1="58.0" x2="770" y2="58.0" stroke="#f3f4f6" stroke-width="1"/>
<text x="54" y="62.0" text-anchor="end" font-size="11" fill="#6b7280">550</text>
<rect x="66.9" y="317.1" width="25.6" height="2.9" fill="#34C759" rx="3" opacity="0.85"/>
<text x="79.7" y="301.1" text-anchor="middle" font-size="10" fill="#6b7280">6</text>
<text x="79.7" y="313.1" text-anchor="middle" font-size="10" fill="#6b7280">(0.22%)</text>
<g transform="translate(79.7,330.0) rotate(-45)"><text text-anchor="end" font-size="10" fill="#111827">2022-Q1</text></g>
<rect x="106.3" y="298.6" width="25.6" height="21.4" fill="#34C759" rx="3" opacity="0.85"/>
<text x="119.2" y="282.6" text-anchor="middle" font-size="10" fill="#6b7280">45</text>
<text x="119.2" y="294.6" text-anchor="middle" font-size="10" fill="#6b7280">(1.68%)</text>
<g transform="translate(119.2,330.0) rotate(-45)"><text text-anchor="end" font-size="10" fill="#111827">2022-Q2</text></g>
<rect x="145.8" y="295.7" width="25.6" height="24.3" fill="#34C759" rx="3" opacity="0.85"/>
<text x="158.6" y="279.7" text-anchor="middle" font-size="10" fill="#6b7280">51</text>
<text x="158.6" y="291.7" text-anchor="middle" font-size="10" fill="#6b7280">(1.91%)</text>
<g transform="translate(158.6,330.0) rotate(-45)"><text text-anchor="end" font-size="10" fill="#111827">2022-Q3</text></g>
<rect x="185.2" y="285.7" width="25.6" height="34.3" fill="#34C759" rx="3" opacity="0.85"/>
<text x="198.1" y="269.7" text-anchor="middle" font-size="10" fill="#6b7280">72</text>
<text x="198.1" y="281.7" text-anchor="middle" font-size="10" fill="#6b7280">(2.70%)</text>
<g transform="translate(198.1,330.0) rotate(-45)"><text text-anchor="end" font-size="10" fill="#111827">2022-Q4</text></g>
<rect x="224.7" y="275.2" width="25.6" height="44.8" fill="#34C759" rx="3" opacity="0.85"/>
<text x="237.5" y="259.2" text-anchor="middle" font-size="10" fill="#6b7280">94</text>
<text x="237.5" y="271.2" text-anchor="middle" font-size="10" fill="#6b7280">(3.52%)</text>
<g transform="translate(237.5,330.0) rotate(-45)"><text text-anchor="end" font-size="10" fill="#111827">2023-Q1</text></g>
<rect x="264.1" y="275.2" width="25.6" height="44.8" fill="#34C759" rx="3" opacity="0.85"/>
<text x="276.9" y="259.2" text-anchor="middle" font-size="10" fill="#6b7280">94</text>
<text x="276.9" y="271.2" text-anchor="middle" font-size="10" fill="#6b7280">(3.52%)</text>
<g transform="translate(276.9,330.0) rotate(-45)"><text text-anchor="end" font-size="10" fill="#111827">2023-Q2</text></g>
<rect x="303.6" y="277.1" width="25.6" height="42.9" fill="#34C759" rx="3" opacity="0.85"/>
<text x="316.4" y="261.1" text-anchor="middle" font-size="10" fill="#6b7280">90</text>
<text x="316.4" y="273.1" text-anchor="middle" font-size="10" fill="#6b7280">(3.37%)</text>
<g transform="translate(316.4,330.0) rotate(-45)"><text text-anchor="end" font-size="10" fill="#111827">2023-Q3</text></g>
<rect x="343.0" y="286.7" width="25.6" height="33.3" fill="#34C759" rx="3" opacity="0.85"/>
<text x="355.8" y="270.7" text-anchor="middle" font-size="10" fill="#6b7280">70</text>
<text x="355.8" y="282.7" text-anchor="middle" font-size="10" fill="#6b7280">(2.62%)</text>
<g transform="translate(355.8,330.0) rotate(-45)"><text text-anchor="end" font-size="10" fill="#111827">2023-Q4</text></g>
<rect x="382.5" y="259.0" width="25.6" height="61.0" fill="#34C759" rx="3" opacity="0.85"/>
<text x="395.3" y="243.0" text-anchor="middle" font-size="10" fill="#6b7280">128</text>
<text x="395.3" y="255.0" text-anchor="middle" font-size="10" fill="#6b7280">(4.79%)</text>
<g transform="translate(395.3,330.0) rotate(-45)"><text text-anchor="end" font-size="10" fill="#111827">2024-Q1</text></g>
<rect x="421.9" y="254.3" width="25.6" height="65.7" fill="#34C759" rx="3" opacity="0.85"/>
<text x="434.7" y="238.3" text-anchor="middle" font-size="10" fill="#6b7280">138</text>
<text x="434.7" y="250.3" text-anchor="middle" font-size="10" fill="#6b7280">(5.17%)</text>
<g transform="translate(434.7,330.0) rotate(-45)"><text text-anchor="end" font-size="10" fill="#111827">2024-Q2</text></g>
<rect x="461.3" y="253.8" width="25.6" height="66.2" fill="#34C759" rx="3" opacity="0.85"/>
<text x="474.2" y="237.8" text-anchor="middle" font-size="10" fill="#6b7280">139</text>
<text x="474.2" y="249.8" text-anchor="middle" font-size="10" fill="#6b7280">(5.20%)</text>
<g transform="translate(474.2,330.0) rotate(-45)"><text text-anchor="end" font-size="10" fill="#111827">2024-Q3</text></g>
<rect x="500.8" y="252.8" width="25.6" height="67.2" fill="#34C759" rx="3" opacity="0.85"/>
<text x="513.6" y="236.8" text-anchor="middle" font-size="10" fill="#6b7280">141</text>
<text x="513.6" y="248.8" text-anchor="middle" font-size="10" fill="#6b7280">(5.28%)</text>
<g transform="translate(513.6,330.0) rotate(-45)"><text text-anchor="end" font-size="10" fill="#111827">2024-Q4</text></g>
<rect x="540.2" y="214.7" width="25.6" height="105.3" fill="#34C759" rx="3" opacity="0.85"/>
<text x="553.1" y="198.7" text-anchor="middle" font-size="10" fill="#6b7280">221</text>
<text x="553.1" y="210.7" text-anchor="middle" font-size="10" fill="#6b7280">(8.27%)</text>
<g transform="translate(553.1,330.0) rotate(-45)"><text text-anchor="end" font-size="10" fill="#111827">2025-Q1</text></g>
<rect x="579.7" y="204.7" width="25.6" height="115.3" fill="#34C759" rx="3" opacity="0.85"/>
<text x="592.5" y="188.7" text-anchor="middle" font-size="10" fill="#6b7280">242</text>
<text x="592.5" y="200.7" text-anchor="middle" font-size="10" fill="#6b7280">(9.06%)</text>
<g transform="translate(592.5,330.0) rotate(-45)"><text text-anchor="end" font-size="10" fill="#111827">2025-Q2</text></g>
<rect x="619.1" y="207.6" width="25.6" height="112.4" fill="#34C759" rx="3" opacity="0.85"/>
<text x="631.9" y="191.6" text-anchor="middle" font-size="10" fill="#6b7280">236</text>
<text x="631.9" y="203.6" text-anchor="middle" font-size="10" fill="#6b7280">(8.84%)</text>
<g transform="translate(631.9,330.0) rotate(-45)"><text text-anchor="end" font-size="10" fill="#111827">2025-Q3</text></g>
<rect x="658.6" y="151.8" width="25.6" height="168.2" fill="#34C759" rx="3" opacity="0.85"/>
<text x="671.4" y="135.8" text-anchor="middle" font-size="10" fill="#6b7280">353</text>
<text x="671.4" y="147.8" text-anchor="middle" font-size="10" fill="#6b7280">(13.22%)</text>
<g transform="translate(671.4,330.0) rotate(-45)"><text text-anchor="end" font-size="10" fill="#111827">2025-Q4</text></g>
<rect x="698.0" y="58.0" width="25.6" height="262.0" fill="#34C759" rx="3" opacity="0.85"/>
<text x="710.8" y="72.0" text-anchor="middle" font-size="10" fill="#6b7280">550</text>
<text x="710.8" y="84.0" text-anchor="middle" font-size="10" fill="#6b7280">(20.59%)</text>
<g transform="translate(710.8,330.0) rotate(-45)"><text text-anchor="end" font-size="10" fill="#111827">2026-Q1</text></g>
<rect x="737.5" y="319.5" width="25.6" height="0.5" fill="#34C759" rx="3" opacity="0.85"/>
<text x="750.3" y="303.5" text-anchor="middle" font-size="10" fill="#6b7280">1</text>
<text x="750.3" y="315.5" text-anchor="middle" font-size="10" fill="#6b7280">(0.04%)</text>
<g transform="translate(750.3,330.0) rotate(-45)"><text text-anchor="end" font-size="10" fill="#111827">2026-Q2</text></g>
</svg>