<svg xmlns="http://www.w3.org/2000/svg" width="800" height="400" viewBox="0 0 800 400">
<defs>
  <style>text { font-family: -apple-system, BlinkMacSystemFont, 'Segoe UI', Roboto, sans-serif; }</style>
  <linearGradient id="g1" x1="0" y1="0" x2="0" y2="1">
  <stop offset="0%" stop-color="#FF6363" stop-opacity="0.25"/>
  <stop offset="100%" stop-color="#FF6363" stop-opacity="0"/>
</linearGradient>
  <clipPath id="ca"><rect x="72" y="45" width="698" height="295"/></clipPath>
</defs>
<rect width="800" height="400" fill="#ffffff" rx="12"/>
<text x="400" y="26" text-anchor="middle" font-size="15" font-weight="600" fill="#111827">Packages Growth Over Time</text>
<line x1="72" y1="340.0" x2="770" y2="340.0" stroke="#f3f4f6" stroke-width="1"/>
<text x="66" y="344.0" text-anchor="end" font-size="11" fill="#6b7280">2.4k</text>
<line x1="72" y1="266.3" x2="770" y2="266.3" stroke="#f3f4f6" stroke-width="1"/>
<text x="66" y="270.3" text-anchor="end" font-size="11" fill="#6b7280">2.6k</text>
<line x1="72" y1="192.5" x2="770" y2="192.5" stroke="#f3f4f6" stroke-width="1"/>
<text x="66" y="196.5" text-anchor="end" font-size="11" fill="#6b7280">2.8k</text>
<line x1="72" y1="118.8" x2="770" y2="118.8" stroke="#f3f4f6" stroke-width="1"/>
<text x="66" y="122.8" text-anchor="end" font-size="11" fill="#6b7280">3.0k</text>
<line x1="72" y1="45.0" x2="770" y2="45.0" stroke="#f3f4f6" stroke-width="1"/>
<text x="66" y="49.0" text-anchor="end" font-size="11" fill="#6b7280">3.2k</text>
<line x1="118.3" y1="45" x2="118.3" y2="340" stroke="#e5e7eb" stroke-width="1" stroke-dasharray="3,3" clip-path="url(#ca)"/>
<line x1="218.5" y1="45" x2="218.5" y2="340" stroke="#e5e7eb" stroke-width="1" stroke-dasharray="3,3" clip-path="url(#ca)"/>
<line x1="322.7" y1="45" x2="322.7" y2="340" stroke="#e5e7eb" stroke-width="1" stroke-dasharray="3,3" clip-path="url(#ca)"/>
<line x1="426.8" y1="45" x2="426.8" y2="340" stroke="#e5e7eb" stroke-width="1" stroke-dasharray="3,3" clip-path="url(#ca)"/>
<line x1="530.9" y1="45" x2="530.9" y2="340" stroke="#e5e7eb" stroke-width="1" stroke-dasharray="3,3" clip-path="url(#ca)"/>
<line x1="631.2" y1="45" x2="631.2" y2="340" stroke="#e5e7eb" stroke-width="1" stroke-dasharray="3,3" clip-path="url(#ca)"/>
<line x1="723.7" y1="45" x2="723.7" y2="340" stroke="#e5e7eb" stroke-width="1" stroke-dasharray="3,3" clip-path="url(#ca)"/>
<text x="72.0" y="358.0" text-anchor="middle" font-size="11" fill="#6b7280">Dec 11</text>
<text x="210.8" y="358.0" text-anchor="middle" font-size="11" fill="#6b7280">Jan 30</text>
<text x="349.7" y="358.0" text-anchor="middle" font-size="11" fill="#6b7280">Mar 9</text>
<text x="492.3" y="358.0" text-anchor="middle" font-size="11" fill="#6b7280">Apr 19</text>
<text x="631.2" y="358.0" text-anchor="middle" font-size="11" fill="#6b7280">Jun 2</text>
<text x="770.0" y="358.0" text-anchor="middle" font-size="11" fill="#6b7280">Jul 16</text>
<line x1="72" y1="45" x2="72" y2="340" stroke="#e5e7eb" stroke-width="1"/>
<line x1="72" y1="340" x2="770" y2="340" stroke="#e5e7eb" stroke-width="1"/>
<text x="-192.5" y="18" text-anchor="middle" font-size="12" fill="#6b7280" transform="rotate(-90)">Extensions</text>
<path d="M 72.0,340 L 72.0,311.6 L 75.9,311.2 L 79.7,311.2 L 83.6,310.1 L 87.4,310.1 L 91.3,309.4 L 95.1,308.7 L 99.0,308.3 L 102.9,306.4 L 106.7,305.0 L 110.6,305.0 L 114.4,305.0 L 118.3,305.0 L 122.1,304.2 L 126.0,304.2 L 129.8,304.2 L 133.7,303.5 L 137.6,302.0 L 141.4,299.4 L 145.3,297.6 L 149.1,296.9 L 153.0,296.5 L 156.8,295.0 L 160.7,290.6 L 164.6,289.1 L 168.4,289.1 L 172.3,285.4 L 176.1,284.3 L 180.0,282.8 L 183.8,281.7 L 187.7,279.5 L 191.5,277.7 L 195.4,277.3 L 199.3,274.4 L 203.1,271.8 L 207.0,271.8 L 210.8,269.9 L 214.7,268.5 L 218.5,268.1 L 222.4,267.7 L 226.3,267.4 L 230.1,266.3 L 234.0,259.6 L 237.8,256.7 L 241.7,255.2 L 245.5,254.4 L 249.4,253.3 L 253.2,250.8 L 257.1,250.0 L 261.0,249.3 L 264.8,247.1 L 268.7,246.3 L 272.5,245.6 L 276.4,245.6 L 280.2,239.0 L 284.1,238.2 L 288.0,237.5 L 291.8,236.0 L 295.7,234.2 L 299.5,234.2 L 303.4,231.2 L 307.2,226.4 L 311.1,225.7 L 315.0,226.1 L 318.8,224.9 L 322.7,224.6 L 326.5,224.6 L 330.4,222.4 L 334.2,220.5 L 338.1,219.1 L 341.9,217.2 L 345.8,216.8 L 349.7,216.8 L 353.5,214.3 L 357.4,213.5 L 361.2,213.2 L 365.1,208.7 L 368.9,208.4 L 372.8,208.4 L 376.7,208.4 L 380.5,208.0 L 384.4,206.1 L 388.2,204.7 L 392.1,202.8 L 395.9,202.5 L 399.8,201.3 L 403.6,198.0 L 407.5,195.1 L 411.4,194.7 L 415.2,194.3 L 419.1,193.2 L 422.9,189.6 L 426.8,188.8 L 430.6,187.7 L 434.5,185.5 L 438.4,185.1 L 442.2,184.8 L 446.1,184.8 L 449.9,184.0 L 453.8,181.8 L 457.6,181.1 L 461.5,180.3 L 465.3,180.0 L 469.2,179.2 L 473.1,175.5 L 476.9,175.2 L 480.8,174.4 L 484.6,174.1 L 488.5,172.2 L 492.3,171.9 L 496.2,171.5 L 500.1,170.4 L 503.9,168.9 L 507.8,168.9 L 511.6,168.9 L 515.5,168.9 L 519.3,168.2 L 523.2,166.3 L 527.0,166.0 L 530.9,164.1 L 534.8,163.7 L 538.6,163.4 L 542.5,161.2 L 546.3,158.9 L 550.2,158.6 L 554.0,158.2 L 557.9,153.4 L 561.8,151.9 L 565.6,150.8 L 569.5,150.5 L 573.3,147.9 L 577.2,147.9 L 581.0,146.0 L 584.9,144.9 L 588.8,141.2 L 592.6,139.8 L 596.5,139.4 L 600.3,139.0 L 604.2,139.0 L 608.0,138.7 L 611.9,136.5 L 615.7,134.6 L 619.6,134.6 L 623.5,134.2 L 627.3,134.2 L 631.2,132.8 L 635.0,132.0 L 638.9,130.9 L 642.7,129.8 L 646.6,128.3 L 650.5,128.3 L 654.3,127.2 L 658.2,125.8 L 662.0,122.8 L 665.9,120.2 L 669.7,119.5 L 673.6,118.8 L 677.4,118.0 L 681.3,117.6 L 685.2,116.5 L 689.0,114.3 L 692.9,114.0 L 696.7,112.5 L 700.6,111.0 L 704.4,108.4 L 708.3,107.3 L 712.2,106.6 L 716.0,106.6 L 719.9,105.1 L 723.7,104.4 L 727.6,103.6 L 731.4,103.3 L 735.3,102.2 L 739.1,102.2 L 743.0,100.7 L 746.9,100.3 L 750.7,99.6 L 754.6,97.0 L 758.4,95.5 L 762.3,95.5 L 766.1,95.5 L 770.0,94.4 L 770.0,340 Z" fill="url(#g1)" clip-path="url(#ca)"/>
<path d="M 72.0,311.6 L 75.9,311.2 L 79.7,311.2 L 83.6,310.1 L 87.4,310.1 L 91.3,309.4 L 95.1,308.7 L 99.0,308.3 L 102.9,306.4 L 106.7,305.0 L 110.6,305.0 L 114.4,305.0 L 118.3,305.0 L 122.1,304.2 L 126.0,304.2 L 129.8,304.2 L 133.7,303.5 L 137.6,302.0 L 141.4,299.4 L 145.3,297.6 L 149.1,296.9 L 153.0,296.5 L 156.8,295.0 L 160.7,290.6 L 164.6,289.1 L 168.4,289.1 L 172.3,285.4 L 176.1,284.3 L 180.0,282.8 L 183.8,281.7 L 187.7,279.5 L 191.5,277.7 L 195.4,277.3 L 199.3,274.4 L 203.1,271.8 L 207.0,271.8 L 210.8,269.9 L 214.7,268.5 L 218.5,268.1 L 222.4,267.7 L 226.3,267.4 L 230.1,266.3 L 234.0,259.6 L 237.8,256.7 L 241.7,255.2 L 245.5,254.4 L 249.4,253.3 L 253.2,250.8 L 257.1,250.0 L 261.0,249.3 L 264.8,247.1 L 268.7,246.3 L 272.5,245.6 L 276.4,245.6 L 280.2,239.0 L 284.1,238.2 L 288.0,237.5 L 291.8,236.0 L 295.7,234.2 L 299.5,234.2 L 303.4,231.2 L 307.2,226.4 L 311.1,225.7 L 315.0,226.1 L 318.8,224.9 L 322.7,224.6 L 326.5,224.6 L 330.4,222.4 L 334.2,220.5 L 338.1,219.1 L 341.9,217.2 L 345.8,216.8 L 349.7,216.8 L 353.5,214.3 L 357.4,213.5 L 361.2,213.2 L 365.1,208.7 L 368.9,208.4 L 372.8,208.4 L 376.7,208.4 L 380.5,208.0 L 384.4,206.1 L 388.2,204.7 L 392.1,202.8 L 395.9,202.5 L 399.8,201.3 L 403.6,198.0 L 407.5,195.1 L 411.4,194.7 L 415.2,194.3 L 419.1,193.2 L 422.9,189.6 L 426.8,188.8 L 430.6,187.7 L 434.5,185.5 L 438.4,185.1 L 442.2,184.8 L 446.1,184.8 L 449.9,184.0 L 453.8,181.8 L 457.6,181.1 L 461.5,180.3 L 465.3,180.0 L 469.2,179.2 L 473.1,175.5 L 476.9,175.2 L 480.8,174.4 L 484.6,174.1 L 488.5,172.2 L 492.3,171.9 L 496.2,171.5 L 500.1,170.4 L 503.9,168.9 L 507.8,168.9 L 511.6,168.9 L 515.5,168.9 L 519.3,168.2 L 523.2,166.3 L 527.0,166.0 L 530.9,164.1 L 534.8,163.7 L 538.6,163.4 L 542.5,161.2 L 546.3,158.9 L 550.2,158.6 L 554.0,158.2 L 557.9,153.4 L 561.8,151.9 L 565.6,150.8 L 569.5,150.5 L 573.3,147.9 L 577.2,147.9 L 581.0,146.0 L 584.9,144.9 L 588.8,141.2 L 592.6,139.8 L 596.5,139.4 L 600.3,139.0 L 604.2,139.0 L 608.0,138.7 L 611.9,136.5 L 615.7,134.6 L 619.6,134.6 L 623.5,134.2 L 627.3,134.2 L 631.2,132.8 L 635.0,132.0 L 638.9,130.9 L 642.7,129.8 L 646.6,128.3 L 650.5,128.3 L 654.3,127.2 L 658.2,125.8 L 662.0,122.8 L 665.9,120.2 L 669.7,119.5 L 673.6,118.8 L 677.4,118.0 L 681.3,117.6 L 685.2,116.5 L 689.0,114.3 L 692.9,114.0 L 696.7,112.5 L 700.6,111.0 L 704.4,108.4 L 708.3,107.3 L 712.2,106.6 L 716.0,106.6 L 719.9,105.1 L 723.7,104.4 L 727.6,103.6 L 731.4,103.3 L 735.3,102.2 L 739.1,102.2 L 743.0,100.7 L 746.9,100.3 L 750.7,99.6 L 754.6,97.0 L 758.4,95.5 L 762.3,95.5 L 766.1,95.5 L 770.0,94.4" fill="none" stroke="#FF6363" stroke-width="2.5" stroke-linejoin="round" clip-path="url(#ca)"/>
<text x="93.2" y="55.0" text-anchor="middle" font-size="9" fill="#FF6363" opacity="0.85" clip-path="url(#ca)">+0.7% (+18)</text>
<text x="166.5" y="55.0" text-anchor="middle" font-size="9" fill="#FF6363" opacity="0.85" clip-path="url(#ca)">+4.0% (+99)</text>
<text x="268.7" y="55.0" text-anchor="middle" font-size="9" fill="#FF6363" opacity="0.85" clip-path="url(#ca)">+4.5% (+117)</text>
<text x="372.8" y="55.0" text-anchor="middle" font-size="9" fill="#FF6363" opacity="0.85" clip-path="url(#ca)">+3.5% (+95)</text>
<text x="476.9" y="55.0" text-anchor="middle" font-size="9" fill="#FF6363" opacity="0.85" clip-path="url(#ca)">+2.2% (+62)</text>
<text x="579.1" y="55.0" text-anchor="middle" font-size="9" fill="#FF6363" opacity="0.85" clip-path="url(#ca)">+2.8% (+81)</text>
<text x="675.5" y="55.0" text-anchor="middle" font-size="9" fill="#FF6363" opacity="0.85" clip-path="url(#ca)">+2.5% (+75)</text>
<text x="746.9" y="55.0" text-anchor="middle" font-size="9" fill="#FF6363" opacity="0.85" clip-path="url(#ca)">+0.9% (+27)</text>
<rect x="351" y="369" width="12" height="12" fill="#FF6363" rx="2"/>
<text x="367" y="379" font-size="12" fill="#111827">Extensions</text>
<text x="72" y="394" font-size="8" fill="#e5e7eb">data since Dec 11, 2025</text>
</svg>