<svg xmlns="http://www.w3.org/2000/svg" width="800" height="400" viewBox="0 0 800 400">
<defs>
  <style>text { font-family: -apple-system, BlinkMacSystemFont, 'Segoe UI', Roboto, sans-serif; }</style>
  <linearGradient id="g2" x1="0" y1="0" x2="0" y2="1">
  <stop offset="0%" stop-color="#4F8EF7" stop-opacity="0.25"/>
  <stop offset="100%" stop-color="#4F8EF7" stop-opacity="0"/>
</linearGradient>
<linearGradient id="g3" x1="0" y1="0" x2="0" y2="1">
  <stop offset="0%" stop-color="#BF5AF2" stop-opacity="0.25"/>
  <stop offset="100%" stop-color="#BF5AF2" stop-opacity="0"/>
</linearGradient>
<linearGradient id="g4" x1="0" y1="0" x2="0" y2="1">
  <stop offset="0%" stop-color="#34C759" stop-opacity="0.25"/>
  <stop offset="100%" stop-color="#34C759" stop-opacity="0"/>
</linearGradient>
  <clipPath id="ca"><rect x="72" y="45" width="698" height="295"/></clipPath>
</defs>
<rect width="800" height="400" fill="#ffffff" rx="12"/>
<text x="400" y="26" text-anchor="middle" font-size="15" font-weight="600" fill="#111827">Community Growth Over Time</text>
<line x1="72" y1="340.0" x2="770" y2="340.0" stroke="#f3f4f6" stroke-width="1"/>
<text x="66" y="344.0" text-anchor="end" font-size="11" fill="#6b7280">500</text>
<line x1="72" y1="241.7" x2="770" y2="241.7" stroke="#f3f4f6" stroke-width="1"/>
<text x="66" y="245.7" text-anchor="end" font-size="11" fill="#6b7280">1.0k</text>
<line x1="72" y1="143.3" x2="770" y2="143.3" stroke="#f3f4f6" stroke-width="1"/>
<text x="66" y="147.3" text-anchor="end" font-size="11" fill="#6b7280">1.5k</text>
<line x1="72" y1="45.0" x2="770" y2="45.0" stroke="#f3f4f6" stroke-width="1"/>
<text x="66" y="49.0" text-anchor="end" font-size="11" fill="#6b7280">2.0k</text>
<line x1="129.0" y1="45" x2="129.0" y2="340" stroke="#e5e7eb" stroke-width="1" stroke-dasharray="3,3" clip-path="url(#ca)"/>
<line x1="252.4" y1="45" x2="252.4" y2="340" stroke="#e5e7eb" stroke-width="1" stroke-dasharray="3,3" clip-path="url(#ca)"/>
<line x1="380.6" y1="45" x2="380.6" y2="340" stroke="#e5e7eb" stroke-width="1" stroke-dasharray="3,3" clip-path="url(#ca)"/>
<line x1="508.8" y1="45" x2="508.8" y2="340" stroke="#e5e7eb" stroke-width="1" stroke-dasharray="3,3" clip-path="url(#ca)"/>
<line x1="637.0" y1="45" x2="637.0" y2="340" stroke="#e5e7eb" stroke-width="1" stroke-dasharray="3,3" clip-path="url(#ca)"/>
<line x1="760.5" y1="45" x2="760.5" y2="340" stroke="#e5e7eb" stroke-width="1" stroke-dasharray="3,3" clip-path="url(#ca)"/>
<text x="72.0" y="358.0" text-anchor="middle" font-size="11" fill="#6b7280">Dec 11</text>
<text x="209.7" y="358.0" text-anchor="middle" font-size="11" fill="#6b7280">Jan 23</text>
<text x="352.1" y="358.0" text-anchor="middle" font-size="11" fill="#6b7280">Feb 22</text>
<text x="489.9" y="358.0" text-anchor="middle" font-size="11" fill="#6b7280">Mar 26</text>
<text x="632.3" y="358.0" text-anchor="middle" font-size="11" fill="#6b7280">Apr 30</text>
<text x="770.0" y="358.0" text-anchor="middle" font-size="11" fill="#6b7280">Jun 4</text>
<line x1="72" y1="45" x2="72" y2="340" stroke="#e5e7eb" stroke-width="1"/>
<line x1="72" y1="340" x2="770" y2="340" stroke="#e5e7eb" stroke-width="1"/>
<text x="-192.5" y="18" text-anchor="middle" font-size="12" fill="#6b7280" transform="rotate(-90)">People</text>
<path d="M 72.0,340 L 72.0,120.1 L 76.7,120.1 L 81.5,120.1 L 86.2,119.5 L 91.0,119.5 L 95.7,119.1 L 100.5,118.9 L 105.2,119.1 L 110.0,118.6 L 114.7,118.6 L 119.5,118.6 L 124.2,118.6 L 129.0,118.6 L 133.7,118.6 L 138.5,118.6 L 143.2,118.6 L 148.0,118.4 L 152.7,117.8 L 157.5,116.6 L 162.2,116.0 L 167.0,115.8 L 171.7,115.8 L 176.5,115.2 L 181.2,113.8 L 186.0,113.0 L 190.7,113.0 L 195.5,112.1 L 200.2,111.7 L 205.0,110.9 L 209.7,110.3 L 214.4,109.7 L 219.2,109.1 L 223.9,109.1 L 228.7,107.7 L 233.4,106.9 L 238.2,106.9 L 242.9,106.2 L 247.7,105.8 L 252.4,105.6 L 257.2,105.4 L 261.9,105.4 L 266.7,104.8 L 271.4,102.4 L 276.2,101.0 L 280.9,100.3 L 285.7,100.1 L 290.4,99.7 L 295.2,98.9 L 299.9,98.5 L 304.7,98.1 L 309.4,97.7 L 314.2,97.3 L 318.9,96.9 L 323.7,96.9 L 328.4,95.0 L 333.2,95.0 L 337.9,94.8 L 342.7,94.6 L 347.4,94.2 L 352.1,94.2 L 356.9,93.2 L 361.6,92.0 L 366.4,91.6 L 371.1,92.0 L 375.9,91.8 L 380.6,91.6 L 385.4,91.6 L 390.1,91.2 L 394.9,90.4 L 399.6,90.0 L 404.4,89.6 L 409.1,89.4 L 413.9,89.4 L 418.6,88.7 L 423.4,88.3 L 428.1,88.3 L 432.9,86.7 L 437.6,86.7 L 442.4,86.7 L 447.1,86.7 L 451.9,86.5 L 456.6,85.9 L 461.4,85.1 L 466.1,84.7 L 470.9,84.7 L 475.6,84.3 L 480.4,82.8 L 485.1,81.8 L 489.9,81.6 L 494.6,81.4 L 499.3,80.8 L 504.1,79.6 L 508.8,79.2 L 513.6,78.8 L 518.3,77.6 L 523.1,77.4 L 527.8,77.4 L 532.6,77.4 L 537.3,77.3 L 542.1,76.1 L 546.8,75.9 L 551.6,75.7 L 556.3,75.7 L 561.1,75.3 L 565.8,73.7 L 570.6,73.5 L 575.3,73.3 L 580.1,73.3 L 584.8,72.5 L 589.6,72.3 L 594.3,72.1 L 599.1,71.6 L 603.8,70.8 L 608.6,70.8 L 613.3,70.8 L 618.1,70.8 L 622.8,70.4 L 627.6,69.8 L 632.3,69.6 L 637.0,69.0 L 641.8,68.8 L 646.5,68.6 L 651.3,67.8 L 656.0,67.2 L 660.8,67.0 L 665.5,67.0 L 670.3,65.3 L 675.0,64.7 L 679.8,64.5 L 684.5,64.5 L 689.3,63.5 L 694.0,63.5 L 698.8,62.9 L 703.5,62.3 L 708.3,60.9 L 713.0,60.7 L 717.8,60.5 L 722.5,60.3 L 727.3,60.3 L 732.0,60.1 L 736.8,59.2 L 741.5,58.6 L 746.3,58.6 L 751.0,58.4 L 755.8,58.4 L 760.5,57.8 L 765.3,57.6 L 770.0,57.4 L 770.0,340 Z" fill="url(#g2)" clip-path="url(#ca)"/>
<path d="M 72.0,120.1 L 76.7,120.1 L 81.5,120.1 L 86.2,119.5 L 91.0,119.5 L 95.7,119.1 L 100.5,118.9 L 105.2,119.1 L 110.0,118.6 L 114.7,118.6 L 119.5,118.6 L 124.2,118.6 L 129.0,118.6 L 133.7,118.6 L 138.5,118.6 L 143.2,118.6 L 148.0,118.4 L 152.7,117.8 L 157.5,116.6 L 162.2,116.0 L 167.0,115.8 L 171.7,115.8 L 176.5,115.2 L 181.2,113.8 L 186.0,113.0 L 190.7,113.0 L 195.5,112.1 L 200.2,111.7 L 205.0,110.9 L 209.7,110.3 L 214.4,109.7 L 219.2,109.1 L 223.9,109.1 L 228.7,107.7 L 233.4,106.9 L 238.2,106.9 L 242.9,106.2 L 247.7,105.8 L 252.4,105.6 L 257.2,105.4 L 261.9,105.4 L 266.7,104.8 L 271.4,102.4 L 276.2,101.0 L 280.9,100.3 L 285.7,100.1 L 290.4,99.7 L 295.2,98.9 L 299.9,98.5 L 304.7,98.1 L 309.4,97.7 L 314.2,97.3 L 318.9,96.9 L 323.7,96.9 L 328.4,95.0 L 333.2,95.0 L 337.9,94.8 L 342.7,94.6 L 347.4,94.2 L 352.1,94.2 L 356.9,93.2 L 361.6,92.0 L 366.4,91.6 L 371.1,92.0 L 375.9,91.8 L 380.6,91.6 L 385.4,91.6 L 390.1,91.2 L 394.9,90.4 L 399.6,90.0 L 404.4,89.6 L 409.1,89.4 L 413.9,89.4 L 418.6,88.7 L 423.4,88.3 L 428.1,88.3 L 432.9,86.7 L 437.6,86.7 L 442.4,86.7 L 447.1,86.7 L 451.9,86.5 L 456.6,85.9 L 461.4,85.1 L 466.1,84.7 L 470.9,84.7 L 475.6,84.3 L 480.4,82.8 L 485.1,81.8 L 489.9,81.6 L 494.6,81.4 L 499.3,80.8 L 504.1,79.6 L 508.8,79.2 L 513.6,78.8 L 518.3,77.6 L 523.1,77.4 L 527.8,77.4 L 532.6,77.4 L 537.3,77.3 L 542.1,76.1 L 546.8,75.9 L 551.6,75.7 L 556.3,75.7 L 561.1,75.3 L 565.8,73.7 L 570.6,73.5 L 575.3,73.3 L 580.1,73.3 L 584.8,72.5 L 589.6,72.3 L 594.3,72.1 L 599.1,71.6 L 603.8,70.8 L 608.6,70.8 L 613.3,70.8 L 618.1,70.8 L 622.8,70.4 L 627.6,69.8 L 632.3,69.6 L 637.0,69.0 L 641.8,68.8 L 646.5,68.6 L 651.3,67.8 L 656.0,67.2 L 660.8,67.0 L 665.5,67.0 L 670.3,65.3 L 675.0,64.7 L 679.8,64.5 L 684.5,64.5 L 689.3,63.5 L 694.0,63.5 L 698.8,62.9 L 703.5,62.3 L 708.3,60.9 L 713.0,60.7 L 717.8,60.5 L 722.5,60.3 L 727.3,60.3 L 732.0,60.1 L 736.8,59.2 L 741.5,58.6 L 746.3,58.6 L 751.0,58.4 L 755.8,58.4 L 760.5,57.8 L 765.3,57.6 L 770.0,57.4" fill="none" stroke="#4F8EF7" stroke-width="2.5" stroke-linejoin="round" clip-path="url(#ca)"/>
<path d="M 72.0,340 L 72.0,244.2 L 76.7,243.6 L 81.5,243.6 L 86.2,243.6 L 91.0,243.4 L 95.7,243.0 L 100.5,242.8 L 105.2,242.6 L 110.0,242.6 L 114.7,242.5 L 119.5,242.3 L 124.2,242.3 L 129.0,242.3 L 133.7,242.3 L 138.5,242.3 L 143.2,242.3 L 148.0,241.9 L 152.7,241.9 L 157.5,241.9 L 162.2,241.1 L 167.0,240.9 L 171.7,240.5 L 176.5,239.7 L 181.2,239.5 L 186.0,239.5 L 190.7,239.5 L 195.5,238.9 L 200.2,238.5 L 205.0,238.5 L 209.7,238.1 L 214.4,237.9 L 219.2,237.5 L 223.9,237.5 L 228.7,237.3 L 233.4,236.6 L 238.2,236.0 L 242.9,235.6 L 247.7,235.4 L 252.4,235.4 L 257.2,235.2 L 261.9,234.8 L 266.7,234.8 L 271.4,234.6 L 276.2,234.0 L 280.9,233.6 L 285.7,233.6 L 290.4,233.6 L 295.2,233.6 L 299.9,233.4 L 304.7,232.8 L 309.4,232.4 L 314.2,232.2 L 318.9,232.0 L 323.7,231.8 L 328.4,231.6 L 333.2,231.4 L 337.9,231.2 L 342.7,230.7 L 347.4,230.5 L 352.1,230.3 L 356.9,229.5 L 361.6,228.7 L 366.4,228.7 L 371.1,228.5 L 375.9,228.3 L 380.6,228.3 L 385.4,228.3 L 390.1,227.9 L 394.9,227.9 L 399.6,226.7 L 404.4,226.5 L 409.1,226.3 L 413.9,226.3 L 418.6,225.9 L 423.4,225.7 L 428.1,225.7 L 432.9,225.5 L 437.6,225.5 L 442.4,225.5 L 447.1,225.1 L 451.9,224.9 L 456.6,224.0 L 461.4,224.2 L 466.1,224.0 L 470.9,223.8 L 475.6,223.8 L 480.4,223.6 L 485.1,223.0 L 489.9,223.0 L 494.6,223.0 L 499.3,223.0 L 504.1,222.6 L 508.8,222.6 L 513.6,222.2 L 518.3,221.8 L 523.1,221.0 L 527.8,221.0 L 532.6,220.6 L 537.3,220.4 L 542.1,220.2 L 546.8,220.0 L 551.6,219.6 L 556.3,219.6 L 561.1,219.1 L 565.8,219.1 L 570.6,218.9 L 575.3,218.5 L 580.1,218.3 L 584.8,218.3 L 589.6,218.3 L 594.3,218.3 L 599.1,218.3 L 603.8,217.7 L 608.6,217.7 L 613.3,217.3 L 618.1,216.9 L 622.8,216.3 L 627.6,216.1 L 632.3,216.1 L 637.0,214.9 L 641.8,214.7 L 646.5,214.7 L 651.3,213.9 L 656.0,213.9 L 660.8,213.5 L 665.5,213.5 L 670.3,213.3 L 675.0,213.3 L 679.8,213.2 L 684.5,212.8 L 689.3,212.8 L 694.0,212.6 L 698.8,212.4 L 703.5,212.2 L 708.3,212.0 L 713.0,212.0 L 717.8,211.6 L 722.5,211.6 L 727.3,211.6 L 732.0,210.6 L 736.8,210.6 L 741.5,210.6 L 746.3,210.6 L 751.0,210.6 L 755.8,210.6 L 760.5,210.2 L 765.3,210.2 L 770.0,209.8 L 770.0,340 Z" fill="url(#g3)" clip-path="url(#ca)"/>
<path d="M 72.0,244.2 L 76.7,243.6 L 81.5,243.6 L 86.2,243.6 L 91.0,243.4 L 95.7,243.0 L 100.5,242.8 L 105.2,242.6 L 110.0,242.6 L 114.7,242.5 L 119.5,242.3 L 124.2,242.3 L 129.0,242.3 L 133.7,242.3 L 138.5,242.3 L 143.2,242.3 L 148.0,241.9 L 152.7,241.9 L 157.5,241.9 L 162.2,241.1 L 167.0,240.9 L 171.7,240.5 L 176.5,239.7 L 181.2,239.5 L 186.0,239.5 L 190.7,239.5 L 195.5,238.9 L 200.2,238.5 L 205.0,238.5 L 209.7,238.1 L 214.4,237.9 L 219.2,237.5 L 223.9,237.5 L 228.7,237.3 L 233.4,236.6 L 238.2,236.0 L 242.9,235.6 L 247.7,235.4 L 252.4,235.4 L 257.2,235.2 L 261.9,234.8 L 266.7,234.8 L 271.4,234.6 L 276.2,234.0 L 280.9,233.6 L 285.7,233.6 L 290.4,233.6 L 295.2,233.6 L 299.9,233.4 L 304.7,232.8 L 309.4,232.4 L 314.2,232.2 L 318.9,232.0 L 323.7,231.8 L 328.4,231.6 L 333.2,231.4 L 337.9,231.2 L 342.7,230.7 L 347.4,230.5 L 352.1,230.3 L 356.9,229.5 L 361.6,228.7 L 366.4,228.7 L 371.1,228.5 L 375.9,228.3 L 380.6,228.3 L 385.4,228.3 L 390.1,227.9 L 394.9,227.9 L 399.6,226.7 L 404.4,226.5 L 409.1,226.3 L 413.9,226.3 L 418.6,225.9 L 423.4,225.7 L 428.1,225.7 L 432.9,225.5 L 437.6,225.5 L 442.4,225.5 L 447.1,225.1 L 451.9,224.9 L 456.6,224.0 L 461.4,224.2 L 466.1,224.0 L 470.9,223.8 L 475.6,223.8 L 480.4,223.6 L 485.1,223.0 L 489.9,223.0 L 494.6,223.0 L 499.3,223.0 L 504.1,222.6 L 508.8,222.6 L 513.6,222.2 L 518.3,221.8 L 523.1,221.0 L 527.8,221.0 L 532.6,220.6 L 537.3,220.4 L 542.1,220.2 L 546.8,220.0 L 551.6,219.6 L 556.3,219.6 L 561.1,219.1 L 565.8,219.1 L 570.6,218.9 L 575.3,218.5 L 580.1,218.3 L 584.8,218.3 L 589.6,218.3 L 594.3,218.3 L 599.1,218.3 L 603.8,217.7 L 608.6,217.7 L 613.3,217.3 L 618.1,216.9 L 622.8,216.3 L 627.6,216.1 L 632.3,216.1 L 637.0,214.9 L 641.8,214.7 L 646.5,214.7 L 651.3,213.9 L 656.0,213.9 L 660.8,213.5 L 665.5,213.5 L 670.3,213.3 L 675.0,213.3 L 679.8,213.2 L 684.5,212.8 L 689.3,212.8 L 694.0,212.6 L 698.8,212.4 L 703.5,212.2 L 708.3,212.0 L 713.0,212.0 L 717.8,211.6 L 722.5,211.6 L 727.3,211.6 L 732.0,210.6 L 736.8,210.6 L 741.5,210.6 L 746.3,210.6 L 751.0,210.6 L 755.8,210.6 L 760.5,210.2 L 765.3,210.2 L 770.0,209.8" fill="none" stroke="#BF5AF2" stroke-width="2.5" stroke-linejoin="round" clip-path="url(#ca)"/>
<path d="M 72.0,340 L 72.0,291.4 L 76.7,290.8 L 81.5,290.8 L 86.2,290.8 L 91.0,290.6 L 95.7,290.2 L 100.5,290.0 L 105.2,289.7 L 110.0,289.7 L 114.7,289.5 L 119.5,289.3 L 124.2,289.3 L 129.0,289.3 L 133.7,289.3 L 138.5,289.3 L 143.2,289.3 L 148.0,288.9 L 152.7,288.9 L 157.5,289.1 L 162.2,288.5 L 167.0,288.7 L 171.7,288.1 L 176.5,287.5 L 181.2,287.3 L 186.0,287.5 L 190.7,287.5 L 195.5,286.9 L 200.2,286.7 L 205.0,286.7 L 209.7,286.3 L 214.4,286.1 L 219.2,285.7 L 223.9,285.7 L 228.7,285.5 L 233.4,284.9 L 238.2,284.3 L 242.9,283.9 L 247.7,283.9 L 252.4,283.9 L 257.2,283.8 L 261.9,283.4 L 266.7,283.4 L 271.4,283.2 L 276.2,282.6 L 280.9,282.4 L 285.7,282.4 L 290.4,282.4 L 295.2,282.4 L 299.9,282.2 L 304.7,281.6 L 309.4,281.4 L 314.2,281.2 L 318.9,281.0 L 323.7,281.0 L 328.4,280.8 L 333.2,280.8 L 337.9,280.8 L 342.7,280.2 L 347.4,280.2 L 352.1,280.2 L 356.9,279.8 L 361.6,279.2 L 366.4,279.2 L 371.1,279.0 L 375.9,278.8 L 380.6,278.8 L 385.4,278.8 L 390.1,278.4 L 394.9,278.4 L 399.6,277.3 L 404.4,277.1 L 409.1,276.9 L 413.9,276.9 L 418.6,276.7 L 423.4,276.7 L 428.1,276.7 L 432.9,276.7 L 437.6,276.7 L 442.4,276.7 L 447.1,276.3 L 451.9,276.1 L 456.6,275.1 L 461.4,275.3 L 466.1,275.3 L 470.9,275.1 L 475.6,275.1 L 480.4,275.1 L 485.1,274.7 L 489.9,274.7 L 494.6,274.7 L 499.3,274.7 L 504.1,274.7 L 508.8,274.7 L 513.6,274.5 L 518.3,274.5 L 523.1,273.7 L 527.8,273.7 L 532.6,273.5 L 537.3,273.3 L 542.1,273.1 L 546.8,272.9 L 551.6,272.5 L 556.3,272.5 L 561.1,272.0 L 565.8,272.0 L 570.6,271.8 L 575.3,271.6 L 580.1,271.6 L 584.8,271.6 L 589.6,271.6 L 594.3,271.6 L 599.1,271.6 L 603.8,271.0 L 608.6,271.0 L 613.3,270.6 L 618.1,270.2 L 622.8,269.6 L 627.6,269.4 L 632.3,269.4 L 637.0,268.4 L 641.8,268.2 L 646.5,268.2 L 651.3,267.6 L 656.0,267.6 L 660.8,267.4 L 665.5,267.4 L 670.3,267.6 L 675.0,267.8 L 679.8,267.6 L 684.5,267.2 L 689.3,267.4 L 694.0,267.2 L 698.8,267.0 L 703.5,267.0 L 708.3,267.0 L 713.0,267.0 L 717.8,266.6 L 722.5,266.6 L 727.3,266.6 L 732.0,265.9 L 736.8,265.9 L 741.5,265.9 L 746.3,265.9 L 751.0,265.9 L 755.8,265.9 L 760.5,265.5 L 765.3,265.5 L 770.0,265.1 L 770.0,340 Z" fill="url(#g4)" clip-path="url(#ca)"/>
<path d="M 72.0,291.4 L 76.7,290.8 L 81.5,290.8 L 86.2,290.8 L 91.0,290.6 L 95.7,290.2 L 100.5,290.0 L 105.2,289.7 L 110.0,289.7 L 114.7,289.5 L 119.5,289.3 L 124.2,289.3 L 129.0,289.3 L 133.7,289.3 L 138.5,289.3 L 143.2,289.3 L 148.0,288.9 L 152.7,288.9 L 157.5,289.1 L 162.2,288.5 L 167.0,288.7 L 171.7,288.1 L 176.5,287.5 L 181.2,287.3 L 186.0,287.5 L 190.7,287.5 L 195.5,286.9 L 200.2,286.7 L 205.0,286.7 L 209.7,286.3 L 214.4,286.1 L 219.2,285.7 L 223.9,285.7 L 228.7,285.5 L 233.4,284.9 L 238.2,284.3 L 242.9,283.9 L 247.7,283.9 L 252.4,283.9 L 257.2,283.8 L 261.9,283.4 L 266.7,283.4 L 271.4,283.2 L 276.2,282.6 L 280.9,282.4 L 285.7,282.4 L 290.4,282.4 L 295.2,282.4 L 299.9,282.2 L 304.7,281.6 L 309.4,281.4 L 314.2,281.2 L 318.9,281.0 L 323.7,281.0 L 328.4,280.8 L 333.2,280.8 L 337.9,280.8 L 342.7,280.2 L 347.4,280.2 L 352.1,280.2 L 356.9,279.8 L 361.6,279.2 L 366.4,279.2 L 371.1,279.0 L 375.9,278.8 L 380.6,278.8 L 385.4,278.8 L 390.1,278.4 L 394.9,278.4 L 399.6,277.3 L 404.4,277.1 L 409.1,276.9 L 413.9,276.9 L 418.6,276.7 L 423.4,276.7 L 428.1,276.7 L 432.9,276.7 L 437.6,276.7 L 442.4,276.7 L 447.1,276.3 L 451.9,276.1 L 456.6,275.1 L 461.4,275.3 L 466.1,275.3 L 470.9,275.1 L 475.6,275.1 L 480.4,275.1 L 485.1,274.7 L 489.9,274.7 L 494.6,274.7 L 499.3,274.7 L 504.1,274.7 L 508.8,274.7 L 513.6,274.5 L 518.3,274.5 L 523.1,273.7 L 527.8,273.7 L 532.6,273.5 L 537.3,273.3 L 542.1,273.1 L 546.8,272.9 L 551.6,272.5 L 556.3,272.5 L 561.1,272.0 L 565.8,272.0 L 570.6,271.8 L 575.3,271.6 L 580.1,271.6 L 584.8,271.6 L 589.6,271.6 L 594.3,271.6 L 599.1,271.6 L 603.8,271.0 L 608.6,271.0 L 613.3,270.6 L 618.1,270.2 L 622.8,269.6 L 627.6,269.4 L 632.3,269.4 L 637.0,268.4 L 641.8,268.2 L 646.5,268.2 L 651.3,267.6 L 656.0,267.6 L 660.8,267.4 L 665.5,267.4 L 670.3,267.6 L 675.0,267.8 L 679.8,267.6 L 684.5,267.2 L 689.3,267.4 L 694.0,267.2 L 698.8,267.0 L 703.5,267.0 L 708.3,267.0 L 713.0,267.0 L 717.8,266.6 L 722.5,266.6 L 727.3,266.6 L 732.0,265.9 L 736.8,265.9 L 741.5,265.9 L 746.3,265.9 L 751.0,265.9 L 755.8,265.9 L 760.5,265.5 L 765.3,265.5 L 770.0,265.1" fill="none" stroke="#34C759" stroke-width="2.5" stroke-linejoin="round" clip-path="url(#ca)"/>
<text x="98.1" y="55.0" text-anchor="middle" font-size="9" fill="#4F8EF7" opacity="0.85" clip-path="url(#ca)">+0.5% (+8)</text>
<text x="98.1" y="66.0" text-anchor="middle" font-size="9" fill="#BF5AF2" opacity="0.85" clip-path="url(#ca)">+1.0% (+10)</text>
<text x="98.1" y="77.0" text-anchor="middle" font-size="9" fill="#34C759" opacity="0.85" clip-path="url(#ca)">+1.5% (+11)</text>
<text x="188.3" y="55.0" text-anchor="middle" font-size="9" fill="#4F8EF7" opacity="0.85" clip-path="url(#ca)">+4.0% (+65)</text>
<text x="188.3" y="66.0" text-anchor="middle" font-size="9" fill="#BF5AF2" opacity="0.85" clip-path="url(#ca)">+3.5% (+35)</text>
<text x="188.3" y="77.0" text-anchor="middle" font-size="9" fill="#34C759" opacity="0.85" clip-path="url(#ca)">+3.6% (+27)</text>
<text x="314.2" y="55.0" text-anchor="middle" font-size="9" fill="#4F8EF7" opacity="0.85" clip-path="url(#ca)">+4.1% (+70)</text>
<text x="314.2" y="66.0" text-anchor="middle" font-size="9" fill="#BF5AF2" opacity="0.85" clip-path="url(#ca)">+3.5% (+36)</text>
<text x="314.2" y="77.0" text-anchor="middle" font-size="9" fill="#34C759" opacity="0.85" clip-path="url(#ca)">+3.3% (+26)</text>
<text x="442.4" y="55.0" text-anchor="middle" font-size="9" fill="#4F8EF7" opacity="0.85" clip-path="url(#ca)">+3.5% (+61)</text>
<text x="442.4" y="66.0" text-anchor="middle" font-size="9" fill="#BF5AF2" opacity="0.85" clip-path="url(#ca)">+2.7% (+29)</text>
<text x="442.4" y="77.0" text-anchor="middle" font-size="9" fill="#34C759" opacity="0.85" clip-path="url(#ca)">+2.6% (+21)</text>
<text x="570.6" y="55.0" text-anchor="middle" font-size="9" fill="#4F8EF7" opacity="0.85" clip-path="url(#ca)">+2.7% (+49)</text>
<text x="570.6" y="66.0" text-anchor="middle" font-size="9" fill="#BF5AF2" opacity="0.85" clip-path="url(#ca)">+3.0% (+33)</text>
<text x="570.6" y="77.0" text-anchor="middle" font-size="9" fill="#34C759" opacity="0.85" clip-path="url(#ca)">+3.2% (+27)</text>
<text x="696.4" y="55.0" text-anchor="middle" font-size="9" fill="#4F8EF7" opacity="0.85" clip-path="url(#ca)">+2.9% (+54)</text>
<text x="696.4" y="66.0" text-anchor="middle" font-size="9" fill="#BF5AF2" opacity="0.85" clip-path="url(#ca)">+1.9% (+22)</text>
<text x="696.4" y="77.0" text-anchor="middle" font-size="9" fill="#34C759" opacity="0.85" clip-path="url(#ca)">+1.5% (+13)</text>
<text x="765.3" y="55.0" text-anchor="middle" font-size="9" fill="#4F8EF7" opacity="0.85" clip-path="url(#ca)">+0.1% (+2)</text>
<text x="765.3" y="66.0" text-anchor="middle" font-size="9" fill="#BF5AF2" opacity="0.85" clip-path="url(#ca)">+0.2% (+2)</text>
<text x="765.3" y="77.0" text-anchor="middle" font-size="9" fill="#34C759" opacity="0.85" clip-path="url(#ca)">+0.2% (+2)</text>
<rect x="211" y="369" width="12" height="12" fill="#4F8EF7" rx="2"/>
<text x="227" y="379" font-size="12" fill="#111827">Authors</text>
<rect x="351" y="369" width="12" height="12" fill="#BF5AF2" rx="2"/>
<text x="367" y="379" font-size="12" fill="#111827">Contributors</text>
<rect x="491" y="369" width="12" height="12" fill="#34C759" rx="2"/>
<text x="507" y="379" font-size="12" fill="#111827">Non-author contributors</text>
<text x="72" y="394" font-size="8" fill="#e5e7eb">data since Dec 11, 2025</text>
</svg>