<svg xmlns="http://www.w3.org/2000/svg" width="800" height="400" viewBox="0 0 800 400">
<defs><style>text { font-family: -apple-system, BlinkMacSystemFont, 'Segoe UI', Roboto, sans-serif; }</style></defs>
<rect width="800" height="400" fill="#ffffff" rx="12"/>
<text x="400" y="26" text-anchor="middle" font-size="15" font-weight="600" fill="#111827">Packages by Last Updated Quarter</text>
<text x="400" y="44" text-anchor="middle" font-size="11" fill="#6b7280">last updated at · 2,848 packages with a known last-update date</text>
<line x1="60" y1="58" x2="60" y2="320" stroke="#e5e7eb" stroke-width="1"/>
<line x1="60" y1="320" x2="770" y2="320" stroke="#e5e7eb" stroke-width="1"/>
<text x="-189" y="18" text-anchor="middle" font-size="12" fill="#6b7280" transform="rotate(-90)">Number of packages</text>
<line x1="60" y1="320.0" x2="770" y2="320.0" stroke="#f3f4f6" stroke-width="1"/>
<text x="54" y="324.0" text-anchor="end" font-size="11" fill="#6b7280">0</text>
<line x1="60" y1="267.4" x2="770" y2="267.4" stroke="#f3f4f6" stroke-width="1"/>
<text x="54" y="271.4" text-anchor="end" font-size="11" fill="#6b7280">139</text>
<line x1="60" y1="215.3" x2="770" y2="215.3" stroke="#f3f4f6" stroke-width="1"/>
<text x="54" y="219.3" text-anchor="end" font-size="11" fill="#6b7280">277</text>
<line x1="60" y1="162.7" x2="770" y2="162.7" stroke="#f3f4f6" stroke-width="1"/>
<text x="54" y="166.7" text-anchor="end" font-size="11" fill="#6b7280">416</text>
<line x1="60" y1="110.6" x2="770" y2="110.6" stroke="#f3f4f6" stroke-width="1"/>
<text x="54" y="114.6" text-anchor="end" font-size="11" fill="#6b7280">554</text>
<line x1="60" y1="58.0" x2="770" y2="58.0" stroke="#f3f4f6" stroke-width="1"/>
<text x="54" y="62.0" text-anchor="end" font-size="11" fill="#6b7280">693</text>
<rect x="66.5" y="314.7" width="24.3" height="5.3" fill="#34C759" rx="3" opacity="0.85"/>
<text x="78.7" y="298.7" text-anchor="middle" font-size="10" fill="#6b7280">14</text>
<text x="78.7" y="310.7" text-anchor="middle" font-size="10" fill="#6b7280">(0.49%)</text>
<g transform="translate(78.7,330.0) rotate(-45)"><text text-anchor="end" font-size="10" fill="#111827">2021-Q4</text></g>
<rect x="103.9" y="309.0" width="24.3" height="11.0" fill="#34C759" rx="3" opacity="0.85"/>
<text x="116.1" y="293.0" text-anchor="middle" font-size="10" fill="#6b7280">29</text>
<text x="116.1" y="305.0" text-anchor="middle" font-size="10" fill="#6b7280">(1.02%)</text>
<g transform="translate(116.1,330.0) rotate(-45)"><text text-anchor="end" font-size="10" fill="#111827">2022-Q1</text></g>
<rect x="141.3" y="306.4" width="24.3" height="13.6" fill="#34C759" rx="3" opacity="0.85"/>
<text x="153.4" y="290.4" text-anchor="middle" font-size="10" fill="#6b7280">36</text>
<text x="153.4" y="302.4" text-anchor="middle" font-size="10" fill="#6b7280">(1.26%)</text>
<g transform="translate(153.4,330.0) rotate(-45)"><text text-anchor="end" font-size="10" fill="#111827">2022-Q2</text></g>
<rect x="178.6" y="304.1" width="24.3" height="15.9" fill="#34C759" rx="3" opacity="0.85"/>
<text x="190.8" y="288.1" text-anchor="middle" font-size="10" fill="#6b7280">42</text>
<text x="190.8" y="300.1" text-anchor="middle" font-size="10" fill="#6b7280">(1.47%)</text>
<g transform="translate(190.8,330.0) rotate(-45)"><text text-anchor="end" font-size="10" fill="#111827">2022-Q3</text></g>
<rect x="216.0" y="296.2" width="24.3" height="23.8" fill="#34C759" rx="3" opacity="0.85"/>
<text x="228.2" y="280.2" text-anchor="middle" font-size="10" fill="#6b7280">63</text>
<text x="228.2" y="292.2" text-anchor="middle" font-size="10" fill="#6b7280">(2.21%)</text>
<g transform="translate(228.2,330.0) rotate(-45)"><text text-anchor="end" font-size="10" fill="#111827">2022-Q4</text></g>
<rect x="253.4" y="285.6" width="24.3" height="34.4" fill="#34C759" rx="3" opacity="0.85"/>
<text x="265.5" y="269.6" text-anchor="middle" font-size="10" fill="#6b7280">91</text>
<text x="265.5" y="281.6" text-anchor="middle" font-size="10" fill="#6b7280">(3.20%)</text>
<g transform="translate(265.5,330.0) rotate(-45)"><text text-anchor="end" font-size="10" fill="#111827">2023-Q1</text></g>
<rect x="290.8" y="285.6" width="24.3" height="34.4" fill="#34C759" rx="3" opacity="0.85"/>
<text x="302.9" y="269.6" text-anchor="middle" font-size="10" fill="#6b7280">91</text>
<text x="302.9" y="281.6" text-anchor="middle" font-size="10" fill="#6b7280">(3.20%)</text>
<g transform="translate(302.9,330.0) rotate(-45)"><text text-anchor="end" font-size="10" fill="#111827">2023-Q2</text></g>
<rect x="328.1" y="287.1" width="24.3" height="32.9" fill="#34C759" rx="3" opacity="0.85"/>
<text x="340.3" y="271.1" text-anchor="middle" font-size="10" fill="#6b7280">87</text>
<text x="340.3" y="283.1" text-anchor="middle" font-size="10" fill="#6b7280">(3.05%)</text>
<g transform="translate(340.3,330.0) rotate(-45)"><text text-anchor="end" font-size="10" fill="#111827">2023-Q3</text></g>
<rect x="365.5" y="293.9" width="24.3" height="26.1" fill="#34C759" rx="3" opacity="0.85"/>
<text x="377.6" y="277.9" text-anchor="middle" font-size="10" fill="#6b7280">69</text>
<text x="377.6" y="289.9" text-anchor="middle" font-size="10" fill="#6b7280">(2.42%)</text>
<g transform="translate(377.6,330.0) rotate(-45)"><text text-anchor="end" font-size="10" fill="#111827">2023-Q4</text></g>
<rect x="402.9" y="273.9" width="24.3" height="46.1" fill="#34C759" rx="3" opacity="0.85"/>
<text x="415.0" y="257.9" text-anchor="middle" font-size="10" fill="#6b7280">122</text>
<text x="415.0" y="269.9" text-anchor="middle" font-size="10" fill="#6b7280">(4.28%)</text>
<g transform="translate(415.0,330.0) rotate(-45)"><text text-anchor="end" font-size="10" fill="#111827">2024-Q1</text></g>
<rect x="440.2" y="268.6" width="24.3" height="51.4" fill="#34C759" rx="3" opacity="0.85"/>
<text x="452.4" y="252.6" text-anchor="middle" font-size="10" fill="#6b7280">136</text>
<text x="452.4" y="264.6" text-anchor="middle" font-size="10" fill="#6b7280">(4.78%)</text>
<g transform="translate(452.4,330.0) rotate(-45)"><text text-anchor="end" font-size="10" fill="#111827">2024-Q2</text></g>
<rect x="477.6" y="270.9" width="24.3" height="49.1" fill="#34C759" rx="3" opacity="0.85"/>
<text x="489.7" y="254.9" text-anchor="middle" font-size="10" fill="#6b7280">130</text>
<text x="489.7" y="266.9" text-anchor="middle" font-size="10" fill="#6b7280">(4.56%)</text>
<g transform="translate(489.7,330.0) rotate(-45)"><text text-anchor="end" font-size="10" fill="#111827">2024-Q3</text></g>
<rect x="515.0" y="269.3" width="24.3" height="50.7" fill="#34C759" rx="3" opacity="0.85"/>
<text x="527.1" y="253.3" text-anchor="middle" font-size="10" fill="#6b7280">134</text>
<text x="527.1" y="265.3" text-anchor="middle" font-size="10" fill="#6b7280">(4.71%)</text>
<g transform="translate(527.1,330.0) rotate(-45)"><text text-anchor="end" font-size="10" fill="#111827">2024-Q4</text></g>
<rect x="552.3" y="242.1" width="24.3" height="77.9" fill="#34C759" rx="3" opacity="0.85"/>
<text x="564.5" y="226.1" text-anchor="middle" font-size="10" fill="#6b7280">206</text>
<text x="564.5" y="238.1" text-anchor="middle" font-size="10" fill="#6b7280">(7.23%)</text>
<g transform="translate(564.5,330.0) rotate(-45)"><text text-anchor="end" font-size="10" fill="#111827">2025-Q1</text></g>
<rect x="589.7" y="236.1" width="24.3" height="83.9" fill="#34C759" rx="3" opacity="0.85"/>
<text x="601.8" y="220.1" text-anchor="middle" font-size="10" fill="#6b7280">222</text>
<text x="601.8" y="232.1" text-anchor="middle" font-size="10" fill="#6b7280">(7.79%)</text>
<g transform="translate(601.8,330.0) rotate(-45)"><text text-anchor="end" font-size="10" fill="#111827">2025-Q2</text></g>
<rect x="627.1" y="236.4" width="24.3" height="83.6" fill="#34C759" rx="3" opacity="0.85"/>
<text x="639.2" y="220.4" text-anchor="middle" font-size="10" fill="#6b7280">221</text>
<text x="639.2" y="232.4" text-anchor="middle" font-size="10" fill="#6b7280">(7.76%)</text>
<g transform="translate(639.2,330.0) rotate(-45)"><text text-anchor="end" font-size="10" fill="#111827">2025-Q3</text></g>
<rect x="664.4" y="198.6" width="24.3" height="121.4" fill="#34C759" rx="3" opacity="0.85"/>
<text x="676.6" y="182.6" text-anchor="middle" font-size="10" fill="#6b7280">321</text>
<text x="676.6" y="194.6" text-anchor="middle" font-size="10" fill="#6b7280">(11.27%)</text>
<g transform="translate(676.6,330.0) rotate(-45)"><text text-anchor="end" font-size="10" fill="#111827">2025-Q4</text></g>
<rect x="701.8" y="58.0" width="24.3" height="262.0" fill="#34C759" rx="3" opacity="0.85"/>
<text x="713.9" y="72.0" text-anchor="middle" font-size="10" fill="#6b7280">693</text>
<text x="713.9" y="84.0" text-anchor="middle" font-size="10" fill="#6b7280">(24.33%)</text>
<g transform="translate(713.9,330.0) rotate(-45)"><text text-anchor="end" font-size="10" fill="#111827">2026-Q1</text></g>
<rect x="739.2" y="266.7" width="24.3" height="53.3" fill="#34C759" rx="3" opacity="0.85"/>
<text x="751.3" y="250.7" text-anchor="middle" font-size="10" fill="#6b7280">141</text>
<text x="751.3" y="262.7" text-anchor="middle" font-size="10" fill="#6b7280">(4.95%)</text>
<g transform="translate(751.3,330.0) rotate(-45)"><text text-anchor="end" font-size="10" fill="#111827">2026-Q2</text></g>
</svg>