<svg xmlns="http://www.w3.org/2000/svg" width="800" height="400" viewBox="0 0 800 400">
<defs><style>text { font-family: -apple-system, BlinkMacSystemFont, 'Segoe UI', Roboto, sans-serif; }</style></defs>
<rect width="800" height="400" fill="#ffffff" rx="12"/>
<text x="400" y="26" text-anchor="middle" font-size="15" font-weight="600" fill="#111827">Packages by Last Updated Quarter</text>
<text x="400" y="44" text-anchor="middle" font-size="11" fill="#6b7280">last updated at · 3,061 packages with a known last-update date</text>
<line x1="60" y1="58" x2="60" y2="320" stroke="#e5e7eb" stroke-width="1"/>
<line x1="60" y1="320" x2="770" y2="320" stroke="#e5e7eb" stroke-width="1"/>
<text x="-189" y="18" text-anchor="middle" font-size="12" fill="#6b7280" transform="rotate(-90)">Number of packages</text>
<line x1="60" y1="320.0" x2="770" y2="320.0" stroke="#f3f4f6" stroke-width="1"/>
<text x="54" y="324.0" text-anchor="end" font-size="11" fill="#6b7280">0</text>
<line x1="60" y1="267.5" x2="770" y2="267.5" stroke="#f3f4f6" stroke-width="1"/>
<text x="54" y="271.5" text-anchor="end" font-size="11" fill="#6b7280">126</text>
<line x1="60" y1="215.0" x2="770" y2="215.0" stroke="#f3f4f6" stroke-width="1"/>
<text x="54" y="219.0" text-anchor="end" font-size="11" fill="#6b7280">252</text>
<line x1="60" y1="163.0" x2="770" y2="163.0" stroke="#f3f4f6" stroke-width="1"/>
<text x="54" y="167.0" text-anchor="end" font-size="11" fill="#6b7280">377</text>
<line x1="60" y1="110.5" x2="770" y2="110.5" stroke="#f3f4f6" stroke-width="1"/>
<text x="54" y="114.5" text-anchor="end" font-size="11" fill="#6b7280">503</text>
<line x1="60" y1="58.0" x2="770" y2="58.0" stroke="#f3f4f6" stroke-width="1"/>
<text x="54" y="62.0" text-anchor="end" font-size="11" fill="#6b7280">629</text>
<rect x="66.2" y="314.6" width="23.1" height="5.4" fill="#34C759" rx="3" opacity="0.85"/>
<text x="77.8" y="298.6" text-anchor="middle" font-size="10" fill="#6b7280">13</text>
<text x="77.8" y="310.6" text-anchor="middle" font-size="10" fill="#6b7280">(0.42%)</text>
<g transform="translate(77.8,330.0) rotate(-45)"><text text-anchor="end" font-size="10" fill="#111827">2021-Q4</text></g>
<rect x="101.7" y="308.8" width="23.1" height="11.2" fill="#34C759" rx="3" opacity="0.85"/>
<text x="113.3" y="292.8" text-anchor="middle" font-size="10" fill="#6b7280">27</text>
<text x="113.3" y="304.8" text-anchor="middle" font-size="10" fill="#6b7280">(0.88%)</text>
<g transform="translate(113.3,330.0) rotate(-45)"><text text-anchor="end" font-size="10" fill="#111827">2022-Q1</text></g>
<rect x="137.2" y="305.8" width="23.1" height="14.2" fill="#34C759" rx="3" opacity="0.85"/>
<text x="148.8" y="289.8" text-anchor="middle" font-size="10" fill="#6b7280">34</text>
<text x="148.8" y="301.8" text-anchor="middle" font-size="10" fill="#6b7280">(1.11%)</text>
<g transform="translate(148.8,330.0) rotate(-45)"><text text-anchor="end" font-size="10" fill="#111827">2022-Q2</text></g>
<rect x="172.7" y="304.6" width="23.1" height="15.4" fill="#34C759" rx="3" opacity="0.85"/>
<text x="184.3" y="288.6" text-anchor="middle" font-size="10" fill="#6b7280">37</text>
<text x="184.3" y="300.6" text-anchor="middle" font-size="10" fill="#6b7280">(1.21%)</text>
<g transform="translate(184.3,330.0) rotate(-45)"><text text-anchor="end" font-size="10" fill="#111827">2022-Q3</text></g>
<rect x="208.2" y="294.2" width="23.1" height="25.8" fill="#34C759" rx="3" opacity="0.85"/>
<text x="219.8" y="278.2" text-anchor="middle" font-size="10" fill="#6b7280">62</text>
<text x="219.8" y="290.2" text-anchor="middle" font-size="10" fill="#6b7280">(2.03%)</text>
<g transform="translate(219.8,330.0) rotate(-45)"><text text-anchor="end" font-size="10" fill="#111827">2022-Q4</text></g>
<rect x="243.7" y="283.3" width="23.1" height="36.7" fill="#34C759" rx="3" opacity="0.85"/>
<text x="255.3" y="267.3" text-anchor="middle" font-size="10" fill="#6b7280">88</text>
<text x="255.3" y="279.3" text-anchor="middle" font-size="10" fill="#6b7280">(2.87%)</text>
<g transform="translate(255.3,330.0) rotate(-45)"><text text-anchor="end" font-size="10" fill="#111827">2023-Q1</text></g>
<rect x="279.2" y="283.3" width="23.1" height="36.7" fill="#34C759" rx="3" opacity="0.85"/>
<text x="290.8" y="267.3" text-anchor="middle" font-size="10" fill="#6b7280">88</text>
<text x="290.8" y="279.3" text-anchor="middle" font-size="10" fill="#6b7280">(2.87%)</text>
<g transform="translate(290.8,330.0) rotate(-45)"><text text-anchor="end" font-size="10" fill="#111827">2023-Q2</text></g>
<rect x="314.7" y="287.1" width="23.1" height="32.9" fill="#34C759" rx="3" opacity="0.85"/>
<text x="326.3" y="271.1" text-anchor="middle" font-size="10" fill="#6b7280">79</text>
<text x="326.3" y="283.1" text-anchor="middle" font-size="10" fill="#6b7280">(2.58%)</text>
<g transform="translate(326.3,330.0) rotate(-45)"><text text-anchor="end" font-size="10" fill="#111827">2023-Q3</text></g>
<rect x="350.2" y="294.6" width="23.1" height="25.4" fill="#34C759" rx="3" opacity="0.85"/>
<text x="361.8" y="278.6" text-anchor="middle" font-size="10" fill="#6b7280">61</text>
<text x="361.8" y="290.6" text-anchor="middle" font-size="10" fill="#6b7280">(1.99%)</text>
<g transform="translate(361.8,330.0) rotate(-45)"><text text-anchor="end" font-size="10" fill="#111827">2023-Q4</text></g>
<rect x="385.7" y="275.4" width="23.1" height="44.6" fill="#34C759" rx="3" opacity="0.85"/>
<text x="397.3" y="259.4" text-anchor="middle" font-size="10" fill="#6b7280">107</text>
<text x="397.3" y="271.4" text-anchor="middle" font-size="10" fill="#6b7280">(3.50%)</text>
<g transform="translate(397.3,330.0) rotate(-45)"><text text-anchor="end" font-size="10" fill="#111827">2024-Q1</text></g>
<rect x="421.2" y="269.6" width="23.1" height="50.4" fill="#34C759" rx="3" opacity="0.85"/>
<text x="432.8" y="253.6" text-anchor="middle" font-size="10" fill="#6b7280">121</text>
<text x="432.8" y="265.6" text-anchor="middle" font-size="10" fill="#6b7280">(3.95%)</text>
<g transform="translate(432.8,330.0) rotate(-45)"><text text-anchor="end" font-size="10" fill="#111827">2024-Q2</text></g>
<rect x="456.7" y="270.0" width="23.1" height="50.0" fill="#34C759" rx="3" opacity="0.85"/>
<text x="468.3" y="254.0" text-anchor="middle" font-size="10" fill="#6b7280">120</text>
<text x="468.3" y="266.0" text-anchor="middle" font-size="10" fill="#6b7280">(3.92%)</text>
<g transform="translate(468.3,330.0) rotate(-45)"><text text-anchor="end" font-size="10" fill="#111827">2024-Q3</text></g>
<rect x="492.2" y="272.9" width="23.1" height="47.1" fill="#34C759" rx="3" opacity="0.85"/>
<text x="503.8" y="256.9" text-anchor="middle" font-size="10" fill="#6b7280">113</text>
<text x="503.8" y="268.9" text-anchor="middle" font-size="10" fill="#6b7280">(3.69%)</text>
<g transform="translate(503.8,330.0) rotate(-45)"><text text-anchor="end" font-size="10" fill="#111827">2024-Q4</text></g>
<rect x="527.7" y="241.7" width="23.1" height="78.3" fill="#34C759" rx="3" opacity="0.85"/>
<text x="539.3" y="225.7" text-anchor="middle" font-size="10" fill="#6b7280">188</text>
<text x="539.3" y="237.7" text-anchor="middle" font-size="10" fill="#6b7280">(6.14%)</text>
<g transform="translate(539.3,330.0) rotate(-45)"><text text-anchor="end" font-size="10" fill="#111827">2025-Q1</text></g>
<rect x="563.2" y="238.4" width="23.1" height="81.6" fill="#34C759" rx="3" opacity="0.85"/>
<text x="574.8" y="222.4" text-anchor="middle" font-size="10" fill="#6b7280">196</text>
<text x="574.8" y="234.4" text-anchor="middle" font-size="10" fill="#6b7280">(6.40%)</text>
<g transform="translate(574.8,330.0) rotate(-45)"><text text-anchor="end" font-size="10" fill="#111827">2025-Q2</text></g>
<rect x="598.7" y="239.6" width="23.1" height="80.4" fill="#34C759" rx="3" opacity="0.85"/>
<text x="610.3" y="223.6" text-anchor="middle" font-size="10" fill="#6b7280">193</text>
<text x="610.3" y="235.6" text-anchor="middle" font-size="10" fill="#6b7280">(6.31%)</text>
<g transform="translate(610.3,330.0) rotate(-45)"><text text-anchor="end" font-size="10" fill="#111827">2025-Q3</text></g>
<rect x="634.2" y="205.5" width="23.1" height="114.5" fill="#34C759" rx="3" opacity="0.85"/>
<text x="645.8" y="189.5" text-anchor="middle" font-size="10" fill="#6b7280">275</text>
<text x="645.8" y="201.5" text-anchor="middle" font-size="10" fill="#6b7280">(8.98%)</text>
<g transform="translate(645.8,330.0) rotate(-45)"><text text-anchor="end" font-size="10" fill="#111827">2025-Q4</text></g>
<rect x="669.7" y="105.1" width="23.1" height="214.9" fill="#34C759" rx="3" opacity="0.85"/>
<text x="681.3" y="89.1" text-anchor="middle" font-size="10" fill="#6b7280">516</text>
<text x="681.3" y="101.1" text-anchor="middle" font-size="10" fill="#6b7280">(16.86%)</text>
<g transform="translate(681.3,330.0) rotate(-45)"><text text-anchor="end" font-size="10" fill="#111827">2026-Q1</text></g>
<rect x="705.2" y="58.0" width="23.1" height="262.0" fill="#34C759" rx="3" opacity="0.85"/>
<text x="716.8" y="72.0" text-anchor="middle" font-size="10" fill="#6b7280">629</text>
<text x="716.8" y="84.0" text-anchor="middle" font-size="10" fill="#6b7280">(20.55%)</text>
<g transform="translate(716.8,330.0) rotate(-45)"><text text-anchor="end" font-size="10" fill="#111827">2026-Q2</text></g>
<rect x="740.7" y="272.5" width="23.1" height="47.5" fill="#34C759" rx="3" opacity="0.85"/>
<text x="752.3" y="256.5" text-anchor="middle" font-size="10" fill="#6b7280">114</text>
<text x="752.3" y="268.5" text-anchor="middle" font-size="10" fill="#6b7280">(3.72%)</text>
<g transform="translate(752.3,330.0) rotate(-45)"><text text-anchor="end" font-size="10" fill="#111827">2026-Q3</text></g>
</svg>