<svg xmlns="http://www.w3.org/2000/svg" width="800" height="400" viewBox="0 0 800 400">
<defs><style>text { font-family: -apple-system, BlinkMacSystemFont, 'Segoe UI', Roboto, sans-serif; }</style></defs>
<rect width="800" height="400" fill="#ffffff" rx="12"/>
<text x="400" y="26" text-anchor="middle" font-size="15" font-weight="600" fill="#111827">Packages by Last Updated Quarter</text>
<text x="400" y="44" text-anchor="middle" font-size="11" fill="#6b7280">last updated at · 2,745 packages with a known last-update date</text>
<line x1="60" y1="58" x2="60" y2="320" stroke="#e5e7eb" stroke-width="1"/>
<line x1="60" y1="320" x2="770" y2="320" stroke="#e5e7eb" stroke-width="1"/>
<text x="-189" y="18" text-anchor="middle" font-size="12" fill="#6b7280" transform="rotate(-90)">Number of packages</text>
<line x1="60" y1="320.0" x2="770" y2="320.0" stroke="#f3f4f6" stroke-width="1"/>
<text x="54" y="324.0" text-anchor="end" font-size="11" fill="#6b7280">0</text>
<line x1="60" y1="267.5" x2="770" y2="267.5" stroke="#f3f4f6" stroke-width="1"/>
<text x="54" y="271.5" text-anchor="end" font-size="11" fill="#6b7280">139</text>
<line x1="60" y1="215.0" x2="770" y2="215.0" stroke="#f3f4f6" stroke-width="1"/>
<text x="54" y="219.0" text-anchor="end" font-size="11" fill="#6b7280">278</text>
<line x1="60" y1="163.0" x2="770" y2="163.0" stroke="#f3f4f6" stroke-width="1"/>
<text x="54" y="167.0" text-anchor="end" font-size="11" fill="#6b7280">416</text>
<line x1="60" y1="110.5" x2="770" y2="110.5" stroke="#f3f4f6" stroke-width="1"/>
<text x="54" y="114.5" text-anchor="end" font-size="11" fill="#6b7280">555</text>
<line x1="60" y1="58.0" x2="770" y2="58.0" stroke="#f3f4f6" stroke-width="1"/>
<text x="54" y="62.0" text-anchor="end" font-size="11" fill="#6b7280">694</text>
<rect x="67.3" y="318.1" width="27.1" height="1.9" fill="#34C759" rx="3" opacity="0.85"/>
<text x="80.9" y="302.1" text-anchor="middle" font-size="10" fill="#6b7280">5</text>
<text x="80.9" y="314.1" text-anchor="middle" font-size="10" fill="#6b7280">(0.18%)</text>
<g transform="translate(80.9,330.0) rotate(-45)"><text text-anchor="end" font-size="10" fill="#111827">2022-Q1</text></g>
<rect x="109.1" y="303.0" width="27.1" height="17.0" fill="#34C759" rx="3" opacity="0.85"/>
<text x="122.6" y="287.0" text-anchor="middle" font-size="10" fill="#6b7280">45</text>
<text x="122.6" y="299.0" text-anchor="middle" font-size="10" fill="#6b7280">(1.64%)</text>
<g transform="translate(122.6,330.0) rotate(-45)"><text text-anchor="end" font-size="10" fill="#111827">2022-Q2</text></g>
<rect x="150.8" y="300.7" width="27.1" height="19.3" fill="#34C759" rx="3" opacity="0.85"/>
<text x="164.4" y="284.7" text-anchor="middle" font-size="10" fill="#6b7280">51</text>
<text x="164.4" y="296.7" text-anchor="middle" font-size="10" fill="#6b7280">(1.86%)</text>
<g transform="translate(164.4,330.0) rotate(-45)"><text text-anchor="end" font-size="10" fill="#111827">2022-Q3</text></g>
<rect x="192.6" y="293.2" width="27.1" height="26.8" fill="#34C759" rx="3" opacity="0.85"/>
<text x="206.2" y="277.2" text-anchor="middle" font-size="10" fill="#6b7280">71</text>
<text x="206.2" y="289.2" text-anchor="middle" font-size="10" fill="#6b7280">(2.59%)</text>
<g transform="translate(206.2,330.0) rotate(-45)"><text text-anchor="end" font-size="10" fill="#111827">2022-Q4</text></g>
<rect x="234.4" y="284.9" width="27.1" height="35.1" fill="#34C759" rx="3" opacity="0.85"/>
<text x="247.9" y="268.9" text-anchor="middle" font-size="10" fill="#6b7280">93</text>
<text x="247.9" y="280.9" text-anchor="middle" font-size="10" fill="#6b7280">(3.39%)</text>
<g transform="translate(247.9,330.0) rotate(-45)"><text text-anchor="end" font-size="10" fill="#111827">2023-Q1</text></g>
<rect x="276.1" y="285.3" width="27.1" height="34.7" fill="#34C759" rx="3" opacity="0.85"/>
<text x="289.7" y="269.3" text-anchor="middle" font-size="10" fill="#6b7280">92</text>
<text x="289.7" y="281.3" text-anchor="middle" font-size="10" fill="#6b7280">(3.35%)</text>
<g transform="translate(289.7,330.0) rotate(-45)"><text text-anchor="end" font-size="10" fill="#111827">2023-Q2</text></g>
<rect x="317.9" y="286.4" width="27.1" height="33.6" fill="#34C759" rx="3" opacity="0.85"/>
<text x="331.5" y="270.4" text-anchor="middle" font-size="10" fill="#6b7280">89</text>
<text x="331.5" y="282.4" text-anchor="middle" font-size="10" fill="#6b7280">(3.24%)</text>
<g transform="translate(331.5,330.0) rotate(-45)"><text text-anchor="end" font-size="10" fill="#111827">2023-Q3</text></g>
<rect x="359.7" y="293.6" width="27.1" height="26.4" fill="#34C759" rx="3" opacity="0.85"/>
<text x="373.2" y="277.6" text-anchor="middle" font-size="10" fill="#6b7280">70</text>
<text x="373.2" y="289.6" text-anchor="middle" font-size="10" fill="#6b7280">(2.55%)</text>
<g transform="translate(373.2,330.0) rotate(-45)"><text text-anchor="end" font-size="10" fill="#111827">2023-Q4</text></g>
<rect x="401.4" y="272.8" width="27.1" height="47.2" fill="#34C759" rx="3" opacity="0.85"/>
<text x="415.0" y="256.8" text-anchor="middle" font-size="10" fill="#6b7280">125</text>
<text x="415.0" y="268.8" text-anchor="middle" font-size="10" fill="#6b7280">(4.55%)</text>
<g transform="translate(415.0,330.0) rotate(-45)"><text text-anchor="end" font-size="10" fill="#111827">2024-Q1</text></g>
<rect x="443.2" y="268.7" width="27.1" height="51.3" fill="#34C759" rx="3" opacity="0.85"/>
<text x="456.8" y="252.7" text-anchor="middle" font-size="10" fill="#6b7280">136</text>
<text x="456.8" y="264.7" text-anchor="middle" font-size="10" fill="#6b7280">(4.95%)</text>
<g transform="translate(456.8,330.0) rotate(-45)"><text text-anchor="end" font-size="10" fill="#111827">2024-Q2</text></g>
<rect x="485.0" y="269.4" width="27.1" height="50.6" fill="#34C759" rx="3" opacity="0.85"/>
<text x="498.5" y="253.4" text-anchor="middle" font-size="10" fill="#6b7280">134</text>
<text x="498.5" y="265.4" text-anchor="middle" font-size="10" fill="#6b7280">(4.88%)</text>
<g transform="translate(498.5,330.0) rotate(-45)"><text text-anchor="end" font-size="10" fill="#111827">2024-Q3</text></g>
<rect x="526.7" y="268.3" width="27.1" height="51.7" fill="#34C759" rx="3" opacity="0.85"/>
<text x="540.3" y="252.3" text-anchor="middle" font-size="10" fill="#6b7280">137</text>
<text x="540.3" y="264.3" text-anchor="middle" font-size="10" fill="#6b7280">(4.99%)</text>
<g transform="translate(540.3,330.0) rotate(-45)"><text text-anchor="end" font-size="10" fill="#111827">2024-Q4</text></g>
<rect x="568.5" y="240.0" width="27.1" height="80.0" fill="#34C759" rx="3" opacity="0.85"/>
<text x="582.1" y="224.0" text-anchor="middle" font-size="10" fill="#6b7280">212</text>
<text x="582.1" y="236.0" text-anchor="middle" font-size="10" fill="#6b7280">(7.72%)</text>
<g transform="translate(582.1,330.0) rotate(-45)"><text text-anchor="end" font-size="10" fill="#111827">2025-Q1</text></g>
<rect x="610.3" y="232.4" width="27.1" height="87.6" fill="#34C759" rx="3" opacity="0.85"/>
<text x="623.8" y="216.4" text-anchor="middle" font-size="10" fill="#6b7280">232</text>
<text x="623.8" y="228.4" text-anchor="middle" font-size="10" fill="#6b7280">(8.45%)</text>
<g transform="translate(623.8,330.0) rotate(-45)"><text text-anchor="end" font-size="10" fill="#111827">2025-Q2</text></g>
<rect x="652.0" y="234.7" width="27.1" height="85.3" fill="#34C759" rx="3" opacity="0.85"/>
<text x="665.6" y="218.7" text-anchor="middle" font-size="10" fill="#6b7280">226</text>
<text x="665.6" y="230.7" text-anchor="middle" font-size="10" fill="#6b7280">(8.23%)</text>
<g transform="translate(665.6,330.0) rotate(-45)"><text text-anchor="end" font-size="10" fill="#111827">2025-Q3</text></g>
<rect x="693.8" y="194.3" width="27.1" height="125.7" fill="#34C759" rx="3" opacity="0.85"/>
<text x="707.4" y="178.3" text-anchor="middle" font-size="10" fill="#6b7280">333</text>
<text x="707.4" y="190.3" text-anchor="middle" font-size="10" fill="#6b7280">(12.13%)</text>
<g transform="translate(707.4,330.0) rotate(-45)"><text text-anchor="end" font-size="10" fill="#111827">2025-Q4</text></g>
<rect x="735.5" y="58.0" width="27.1" height="262.0" fill="#34C759" rx="3" opacity="0.85"/>
<text x="749.1" y="72.0" text-anchor="middle" font-size="10" fill="#6b7280">694</text>
<text x="749.1" y="84.0" text-anchor="middle" font-size="10" fill="#6b7280">(25.28%)</text>
<g transform="translate(749.1,330.0) rotate(-45)"><text text-anchor="end" font-size="10" fill="#111827">2026-Q1</text></g>
</svg>