<svg xmlns="http://www.w3.org/2000/svg" width="800" height="400" viewBox="0 0 800 400">
<defs><style>text { font-family: -apple-system, BlinkMacSystemFont, 'Segoe UI', Roboto, sans-serif; }</style></defs>
<rect width="800" height="400" fill="#ffffff" rx="12"/>
<text x="400" y="26" text-anchor="middle" font-size="15" font-weight="600" fill="#111827">Packages by Last Updated Quarter</text>
<text x="400" y="44" text-anchor="middle" font-size="11" fill="#6b7280">last updated at · 2,912 packages with a known last-update date</text>
<line x1="60" y1="58" x2="60" y2="320" stroke="#e5e7eb" stroke-width="1"/>
<line x1="60" y1="320" x2="770" y2="320" stroke="#e5e7eb" stroke-width="1"/>
<text x="-189" y="18" text-anchor="middle" font-size="12" fill="#6b7280" transform="rotate(-90)">Number of packages</text>
<line x1="60" y1="320.0" x2="770" y2="320.0" stroke="#f3f4f6" stroke-width="1"/>
<text x="54" y="324.0" text-anchor="end" font-size="11" fill="#6b7280">0</text>
<line x1="60" y1="267.8" x2="770" y2="267.8" stroke="#f3f4f6" stroke-width="1"/>
<text x="54" y="271.8" text-anchor="end" font-size="11" fill="#6b7280">124</text>
<line x1="60" y1="215.1" x2="770" y2="215.1" stroke="#f3f4f6" stroke-width="1"/>
<text x="54" y="219.1" text-anchor="end" font-size="11" fill="#6b7280">249</text>
<line x1="60" y1="162.9" x2="770" y2="162.9" stroke="#f3f4f6" stroke-width="1"/>
<text x="54" y="166.9" text-anchor="end" font-size="11" fill="#6b7280">373</text>
<line x1="60" y1="110.2" x2="770" y2="110.2" stroke="#f3f4f6" stroke-width="1"/>
<text x="54" y="114.2" text-anchor="end" font-size="11" fill="#6b7280">498</text>
<line x1="60" y1="58.0" x2="770" y2="58.0" stroke="#f3f4f6" stroke-width="1"/>
<text x="54" y="62.0" text-anchor="end" font-size="11" fill="#6b7280">622</text>
<rect x="66.5" y="314.5" width="24.3" height="5.5" fill="#34C759" rx="3" opacity="0.85"/>
<text x="78.7" y="298.5" text-anchor="middle" font-size="10" fill="#6b7280">13</text>
<text x="78.7" y="310.5" text-anchor="middle" font-size="10" fill="#6b7280">(0.45%)</text>
<g transform="translate(78.7,330.0) rotate(-45)"><text text-anchor="end" font-size="10" fill="#111827">2021-Q4</text></g>
<rect x="103.9" y="307.8" width="24.3" height="12.2" fill="#34C759" rx="3" opacity="0.85"/>
<text x="116.1" y="291.8" text-anchor="middle" font-size="10" fill="#6b7280">29</text>
<text x="116.1" y="303.8" text-anchor="middle" font-size="10" fill="#6b7280">(1.00%)</text>
<g transform="translate(116.1,330.0) rotate(-45)"><text text-anchor="end" font-size="10" fill="#111827">2022-Q1</text></g>
<rect x="141.3" y="304.8" width="24.3" height="15.2" fill="#34C759" rx="3" opacity="0.85"/>
<text x="153.4" y="288.8" text-anchor="middle" font-size="10" fill="#6b7280">36</text>
<text x="153.4" y="300.8" text-anchor="middle" font-size="10" fill="#6b7280">(1.24%)</text>
<g transform="translate(153.4,330.0) rotate(-45)"><text text-anchor="end" font-size="10" fill="#111827">2022-Q2</text></g>
<rect x="178.6" y="302.7" width="24.3" height="17.3" fill="#34C759" rx="3" opacity="0.85"/>
<text x="190.8" y="286.7" text-anchor="middle" font-size="10" fill="#6b7280">41</text>
<text x="190.8" y="298.7" text-anchor="middle" font-size="10" fill="#6b7280">(1.41%)</text>
<g transform="translate(190.8,330.0) rotate(-45)"><text text-anchor="end" font-size="10" fill="#111827">2022-Q3</text></g>
<rect x="216.0" y="293.5" width="24.3" height="26.5" fill="#34C759" rx="3" opacity="0.85"/>
<text x="228.2" y="277.5" text-anchor="middle" font-size="10" fill="#6b7280">63</text>
<text x="228.2" y="289.5" text-anchor="middle" font-size="10" fill="#6b7280">(2.16%)</text>
<g transform="translate(228.2,330.0) rotate(-45)"><text text-anchor="end" font-size="10" fill="#111827">2022-Q4</text></g>
<rect x="253.4" y="281.7" width="24.3" height="38.3" fill="#34C759" rx="3" opacity="0.85"/>
<text x="265.5" y="265.7" text-anchor="middle" font-size="10" fill="#6b7280">91</text>
<text x="265.5" y="277.7" text-anchor="middle" font-size="10" fill="#6b7280">(3.13%)</text>
<g transform="translate(265.5,330.0) rotate(-45)"><text text-anchor="end" font-size="10" fill="#111827">2023-Q1</text></g>
<rect x="290.8" y="281.7" width="24.3" height="38.3" fill="#34C759" rx="3" opacity="0.85"/>
<text x="302.9" y="265.7" text-anchor="middle" font-size="10" fill="#6b7280">91</text>
<text x="302.9" y="277.7" text-anchor="middle" font-size="10" fill="#6b7280">(3.13%)</text>
<g transform="translate(302.9,330.0) rotate(-45)"><text text-anchor="end" font-size="10" fill="#111827">2023-Q2</text></g>
<rect x="328.1" y="283.8" width="24.3" height="36.2" fill="#34C759" rx="3" opacity="0.85"/>
<text x="340.3" y="267.8" text-anchor="middle" font-size="10" fill="#6b7280">86</text>
<text x="340.3" y="279.8" text-anchor="middle" font-size="10" fill="#6b7280">(2.95%)</text>
<g transform="translate(340.3,330.0) rotate(-45)"><text text-anchor="end" font-size="10" fill="#111827">2023-Q3</text></g>
<rect x="365.5" y="291.4" width="24.3" height="28.6" fill="#34C759" rx="3" opacity="0.85"/>
<text x="377.6" y="275.4" text-anchor="middle" font-size="10" fill="#6b7280">68</text>
<text x="377.6" y="287.4" text-anchor="middle" font-size="10" fill="#6b7280">(2.34%)</text>
<g transform="translate(377.6,330.0) rotate(-45)"><text text-anchor="end" font-size="10" fill="#111827">2023-Q4</text></g>
<rect x="402.9" y="269.0" width="24.3" height="51.0" fill="#34C759" rx="3" opacity="0.85"/>
<text x="415.0" y="253.0" text-anchor="middle" font-size="10" fill="#6b7280">121</text>
<text x="415.0" y="265.0" text-anchor="middle" font-size="10" fill="#6b7280">(4.16%)</text>
<g transform="translate(415.0,330.0) rotate(-45)"><text text-anchor="end" font-size="10" fill="#111827">2024-Q1</text></g>
<rect x="440.2" y="264.0" width="24.3" height="56.0" fill="#34C759" rx="3" opacity="0.85"/>
<text x="452.4" y="248.0" text-anchor="middle" font-size="10" fill="#6b7280">133</text>
<text x="452.4" y="260.0" text-anchor="middle" font-size="10" fill="#6b7280">(4.57%)</text>
<g transform="translate(452.4,330.0) rotate(-45)"><text text-anchor="end" font-size="10" fill="#111827">2024-Q2</text></g>
<rect x="477.6" y="265.7" width="24.3" height="54.3" fill="#34C759" rx="3" opacity="0.85"/>
<text x="489.7" y="249.7" text-anchor="middle" font-size="10" fill="#6b7280">129</text>
<text x="489.7" y="261.7" text-anchor="middle" font-size="10" fill="#6b7280">(4.43%)</text>
<g transform="translate(489.7,330.0) rotate(-45)"><text text-anchor="end" font-size="10" fill="#111827">2024-Q3</text></g>
<rect x="515.0" y="265.2" width="24.3" height="54.8" fill="#34C759" rx="3" opacity="0.85"/>
<text x="527.1" y="249.2" text-anchor="middle" font-size="10" fill="#6b7280">130</text>
<text x="527.1" y="261.2" text-anchor="middle" font-size="10" fill="#6b7280">(4.46%)</text>
<g transform="translate(527.1,330.0) rotate(-45)"><text text-anchor="end" font-size="10" fill="#111827">2024-Q4</text></g>
<rect x="552.3" y="234.1" width="24.3" height="85.9" fill="#34C759" rx="3" opacity="0.85"/>
<text x="564.5" y="218.1" text-anchor="middle" font-size="10" fill="#6b7280">204</text>
<text x="564.5" y="230.1" text-anchor="middle" font-size="10" fill="#6b7280">(7.01%)</text>
<g transform="translate(564.5,330.0) rotate(-45)"><text text-anchor="end" font-size="10" fill="#111827">2025-Q1</text></g>
<rect x="589.7" y="229.4" width="24.3" height="90.6" fill="#34C759" rx="3" opacity="0.85"/>
<text x="601.8" y="213.4" text-anchor="middle" font-size="10" fill="#6b7280">215</text>
<text x="601.8" y="225.4" text-anchor="middle" font-size="10" fill="#6b7280">(7.38%)</text>
<g transform="translate(601.8,330.0) rotate(-45)"><text text-anchor="end" font-size="10" fill="#111827">2025-Q2</text></g>
<rect x="627.1" y="231.1" width="24.3" height="88.9" fill="#34C759" rx="3" opacity="0.85"/>
<text x="639.2" y="215.1" text-anchor="middle" font-size="10" fill="#6b7280">211</text>
<text x="639.2" y="227.1" text-anchor="middle" font-size="10" fill="#6b7280">(7.25%)</text>
<g transform="translate(639.2,330.0) rotate(-45)"><text text-anchor="end" font-size="10" fill="#111827">2025-Q3</text></g>
<rect x="664.4" y="191.5" width="24.3" height="128.5" fill="#34C759" rx="3" opacity="0.85"/>
<text x="676.6" y="175.5" text-anchor="middle" font-size="10" fill="#6b7280">305</text>
<text x="676.6" y="187.5" text-anchor="middle" font-size="10" fill="#6b7280">(10.47%)</text>
<g transform="translate(676.6,330.0) rotate(-45)"><text text-anchor="end" font-size="10" fill="#111827">2025-Q4</text></g>
<rect x="701.8" y="58.0" width="24.3" height="262.0" fill="#34C759" rx="3" opacity="0.85"/>
<text x="713.9" y="72.0" text-anchor="middle" font-size="10" fill="#6b7280">622</text>
<text x="713.9" y="84.0" text-anchor="middle" font-size="10" fill="#6b7280">(21.36%)</text>
<g transform="translate(713.9,330.0) rotate(-45)"><text text-anchor="end" font-size="10" fill="#111827">2026-Q1</text></g>
<rect x="739.2" y="183.5" width="24.3" height="136.5" fill="#34C759" rx="3" opacity="0.85"/>
<text x="751.3" y="167.5" text-anchor="middle" font-size="10" fill="#6b7280">324</text>
<text x="751.3" y="179.5" text-anchor="middle" font-size="10" fill="#6b7280">(11.13%)</text>
<g transform="translate(751.3,330.0) rotate(-45)"><text text-anchor="end" font-size="10" fill="#111827">2026-Q2</text></g>
</svg>