<svg xmlns="http://www.w3.org/2000/svg" width="800" height="400" viewBox="0 0 800 400">
<defs><style>text { font-family: -apple-system, BlinkMacSystemFont, 'Segoe UI', Roboto, sans-serif; }</style></defs>
<rect width="800" height="400" fill="#ffffff" rx="12"/>
<text x="400" y="26" text-anchor="middle" font-size="15" font-weight="600" fill="#111827">Packages by Last Updated Quarter</text>
<text x="400" y="44" text-anchor="middle" font-size="11" fill="#6b7280">last updated at · 3,011 packages with a known last-update date</text>
<line x1="60" y1="58" x2="60" y2="320" stroke="#e5e7eb" stroke-width="1"/>
<line x1="60" y1="320" x2="770" y2="320" stroke="#e5e7eb" stroke-width="1"/>
<text x="-189" y="18" text-anchor="middle" font-size="12" fill="#6b7280" transform="rotate(-90)">Number of packages</text>
<line x1="60" y1="320.0" x2="770" y2="320.0" stroke="#f3f4f6" stroke-width="1"/>
<text x="54" y="324.0" text-anchor="end" font-size="11" fill="#6b7280">0</text>
<line x1="60" y1="267.4" x2="770" y2="267.4" stroke="#f3f4f6" stroke-width="1"/>
<text x="54" y="271.4" text-anchor="end" font-size="11" fill="#6b7280">125</text>
<line x1="60" y1="215.3" x2="770" y2="215.3" stroke="#f3f4f6" stroke-width="1"/>
<text x="54" y="219.3" text-anchor="end" font-size="11" fill="#6b7280">249</text>
<line x1="60" y1="162.7" x2="770" y2="162.7" stroke="#f3f4f6" stroke-width="1"/>
<text x="54" y="166.7" text-anchor="end" font-size="11" fill="#6b7280">374</text>
<line x1="60" y1="110.6" x2="770" y2="110.6" stroke="#f3f4f6" stroke-width="1"/>
<text x="54" y="114.6" text-anchor="end" font-size="11" fill="#6b7280">498</text>
<line x1="60" y1="58.0" x2="770" y2="58.0" stroke="#f3f4f6" stroke-width="1"/>
<text x="54" y="62.0" text-anchor="end" font-size="11" fill="#6b7280">623</text>
<rect x="66.5" y="314.5" width="24.3" height="5.5" fill="#34C759" rx="3" opacity="0.85"/>
<text x="78.7" y="298.5" text-anchor="middle" font-size="10" fill="#6b7280">13</text>
<text x="78.7" y="310.5" text-anchor="middle" font-size="10" fill="#6b7280">(0.43%)</text>
<g transform="translate(78.7,330.0) rotate(-45)"><text text-anchor="end" font-size="10" fill="#111827">2021-Q4</text></g>
<rect x="103.9" y="308.2" width="24.3" height="11.8" fill="#34C759" rx="3" opacity="0.85"/>
<text x="116.1" y="292.2" text-anchor="middle" font-size="10" fill="#6b7280">28</text>
<text x="116.1" y="304.2" text-anchor="middle" font-size="10" fill="#6b7280">(0.93%)</text>
<g transform="translate(116.1,330.0) rotate(-45)"><text text-anchor="end" font-size="10" fill="#111827">2022-Q1</text></g>
<rect x="141.3" y="305.3" width="24.3" height="14.7" fill="#34C759" rx="3" opacity="0.85"/>
<text x="153.4" y="289.3" text-anchor="middle" font-size="10" fill="#6b7280">35</text>
<text x="153.4" y="301.3" text-anchor="middle" font-size="10" fill="#6b7280">(1.16%)</text>
<g transform="translate(153.4,330.0) rotate(-45)"><text text-anchor="end" font-size="10" fill="#111827">2022-Q2</text></g>
<rect x="178.6" y="303.6" width="24.3" height="16.4" fill="#34C759" rx="3" opacity="0.85"/>
<text x="190.8" y="287.6" text-anchor="middle" font-size="10" fill="#6b7280">39</text>
<text x="190.8" y="299.6" text-anchor="middle" font-size="10" fill="#6b7280">(1.30%)</text>
<g transform="translate(190.8,330.0) rotate(-45)"><text text-anchor="end" font-size="10" fill="#111827">2022-Q3</text></g>
<rect x="216.0" y="293.9" width="24.3" height="26.1" fill="#34C759" rx="3" opacity="0.85"/>
<text x="228.2" y="277.9" text-anchor="middle" font-size="10" fill="#6b7280">62</text>
<text x="228.2" y="289.9" text-anchor="middle" font-size="10" fill="#6b7280">(2.06%)</text>
<g transform="translate(228.2,330.0) rotate(-45)"><text text-anchor="end" font-size="10" fill="#111827">2022-Q4</text></g>
<rect x="253.4" y="283.0" width="24.3" height="37.0" fill="#34C759" rx="3" opacity="0.85"/>
<text x="265.5" y="267.0" text-anchor="middle" font-size="10" fill="#6b7280">88</text>
<text x="265.5" y="279.0" text-anchor="middle" font-size="10" fill="#6b7280">(2.92%)</text>
<g transform="translate(265.5,330.0) rotate(-45)"><text text-anchor="end" font-size="10" fill="#111827">2023-Q1</text></g>
<rect x="290.8" y="282.6" width="24.3" height="37.4" fill="#34C759" rx="3" opacity="0.85"/>
<text x="302.9" y="266.6" text-anchor="middle" font-size="10" fill="#6b7280">89</text>
<text x="302.9" y="278.6" text-anchor="middle" font-size="10" fill="#6b7280">(2.96%)</text>
<g transform="translate(302.9,330.0) rotate(-45)"><text text-anchor="end" font-size="10" fill="#111827">2023-Q2</text></g>
<rect x="328.1" y="285.5" width="24.3" height="34.5" fill="#34C759" rx="3" opacity="0.85"/>
<text x="340.3" y="269.5" text-anchor="middle" font-size="10" fill="#6b7280">82</text>
<text x="340.3" y="281.5" text-anchor="middle" font-size="10" fill="#6b7280">(2.72%)</text>
<g transform="translate(340.3,330.0) rotate(-45)"><text text-anchor="end" font-size="10" fill="#111827">2023-Q3</text></g>
<rect x="365.5" y="293.9" width="24.3" height="26.1" fill="#34C759" rx="3" opacity="0.85"/>
<text x="377.6" y="277.9" text-anchor="middle" font-size="10" fill="#6b7280">62</text>
<text x="377.6" y="289.9" text-anchor="middle" font-size="10" fill="#6b7280">(2.06%)</text>
<g transform="translate(377.6,330.0) rotate(-45)"><text text-anchor="end" font-size="10" fill="#111827">2023-Q4</text></g>
<rect x="402.9" y="274.2" width="24.3" height="45.8" fill="#34C759" rx="3" opacity="0.85"/>
<text x="415.0" y="258.2" text-anchor="middle" font-size="10" fill="#6b7280">109</text>
<text x="415.0" y="270.2" text-anchor="middle" font-size="10" fill="#6b7280">(3.62%)</text>
<g transform="translate(415.0,330.0) rotate(-45)"><text text-anchor="end" font-size="10" fill="#111827">2024-Q1</text></g>
<rect x="440.2" y="267.4" width="24.3" height="52.6" fill="#34C759" rx="3" opacity="0.85"/>
<text x="452.4" y="251.4" text-anchor="middle" font-size="10" fill="#6b7280">125</text>
<text x="452.4" y="263.4" text-anchor="middle" font-size="10" fill="#6b7280">(4.15%)</text>
<g transform="translate(452.4,330.0) rotate(-45)"><text text-anchor="end" font-size="10" fill="#111827">2024-Q2</text></g>
<rect x="477.6" y="268.7" width="24.3" height="51.3" fill="#34C759" rx="3" opacity="0.85"/>
<text x="489.7" y="252.7" text-anchor="middle" font-size="10" fill="#6b7280">122</text>
<text x="489.7" y="264.7" text-anchor="middle" font-size="10" fill="#6b7280">(4.05%)</text>
<g transform="translate(489.7,330.0) rotate(-45)"><text text-anchor="end" font-size="10" fill="#111827">2024-Q3</text></g>
<rect x="515.0" y="272.1" width="24.3" height="47.9" fill="#34C759" rx="3" opacity="0.85"/>
<text x="527.1" y="256.1" text-anchor="middle" font-size="10" fill="#6b7280">114</text>
<text x="527.1" y="268.1" text-anchor="middle" font-size="10" fill="#6b7280">(3.79%)</text>
<g transform="translate(527.1,330.0) rotate(-45)"><text text-anchor="end" font-size="10" fill="#111827">2024-Q4</text></g>
<rect x="552.3" y="240.5" width="24.3" height="79.5" fill="#34C759" rx="3" opacity="0.85"/>
<text x="564.5" y="224.5" text-anchor="middle" font-size="10" fill="#6b7280">189</text>
<text x="564.5" y="236.5" text-anchor="middle" font-size="10" fill="#6b7280">(6.28%)</text>
<g transform="translate(564.5,330.0) rotate(-45)"><text text-anchor="end" font-size="10" fill="#111827">2025-Q1</text></g>
<rect x="589.7" y="233.4" width="24.3" height="86.6" fill="#34C759" rx="3" opacity="0.85"/>
<text x="601.8" y="217.4" text-anchor="middle" font-size="10" fill="#6b7280">206</text>
<text x="601.8" y="229.4" text-anchor="middle" font-size="10" fill="#6b7280">(6.84%)</text>
<g transform="translate(601.8,330.0) rotate(-45)"><text text-anchor="end" font-size="10" fill="#111827">2025-Q2</text></g>
<rect x="627.1" y="236.7" width="24.3" height="83.3" fill="#34C759" rx="3" opacity="0.85"/>
<text x="639.2" y="220.7" text-anchor="middle" font-size="10" fill="#6b7280">198</text>
<text x="639.2" y="232.7" text-anchor="middle" font-size="10" fill="#6b7280">(6.58%)</text>
<g transform="translate(639.2,330.0) rotate(-45)"><text text-anchor="end" font-size="10" fill="#111827">2025-Q3</text></g>
<rect x="664.4" y="200.1" width="24.3" height="119.9" fill="#34C759" rx="3" opacity="0.85"/>
<text x="676.6" y="184.1" text-anchor="middle" font-size="10" fill="#6b7280">285</text>
<text x="676.6" y="196.1" text-anchor="middle" font-size="10" fill="#6b7280">(9.47%)</text>
<g transform="translate(676.6,330.0) rotate(-45)"><text text-anchor="end" font-size="10" fill="#111827">2025-Q4</text></g>
<rect x="701.8" y="92.1" width="24.3" height="227.9" fill="#34C759" rx="3" opacity="0.85"/>
<text x="713.9" y="76.1" text-anchor="middle" font-size="10" fill="#6b7280">542</text>
<text x="713.9" y="88.1" text-anchor="middle" font-size="10" fill="#6b7280">(18.00%)</text>
<g transform="translate(713.9,330.0) rotate(-45)"><text text-anchor="end" font-size="10" fill="#111827">2026-Q1</text></g>
<rect x="739.2" y="58.0" width="24.3" height="262.0" fill="#34C759" rx="3" opacity="0.85"/>
<text x="751.3" y="72.0" text-anchor="middle" font-size="10" fill="#6b7280">623</text>
<text x="751.3" y="84.0" text-anchor="middle" font-size="10" fill="#6b7280">(20.69%)</text>
<g transform="translate(751.3,330.0) rotate(-45)"><text text-anchor="end" font-size="10" fill="#111827">2026-Q2</text></g>
</svg>