<svg xmlns="http://www.w3.org/2000/svg" width="800" height="400" viewBox="0 0 800 400">
<defs><style>text { font-family: -apple-system, BlinkMacSystemFont, 'Segoe UI', Roboto, sans-serif; }</style></defs>
<rect width="800" height="400" fill="#ffffff" rx="12"/>
<text x="400" y="26" text-anchor="middle" font-size="15" font-weight="600" fill="#111827">Packages by Last Updated Quarter</text>
<text x="400" y="44" text-anchor="middle" font-size="11" fill="#6b7280">last updated at · 3,027 packages with a known last-update date</text>
<line x1="60" y1="58" x2="60" y2="320" stroke="#e5e7eb" stroke-width="1"/>
<line x1="60" y1="320" x2="770" y2="320" stroke="#e5e7eb" stroke-width="1"/>
<text x="-189" y="18" text-anchor="middle" font-size="12" fill="#6b7280" transform="rotate(-90)">Number of packages</text>
<line x1="60" y1="320.0" x2="770" y2="320.0" stroke="#f3f4f6" stroke-width="1"/>
<text x="54" y="324.0" text-anchor="end" font-size="11" fill="#6b7280">0</text>
<line x1="60" y1="267.4" x2="770" y2="267.4" stroke="#f3f4f6" stroke-width="1"/>
<text x="54" y="271.4" text-anchor="end" font-size="11" fill="#6b7280">131</text>
<line x1="60" y1="215.3" x2="770" y2="215.3" stroke="#f3f4f6" stroke-width="1"/>
<text x="54" y="219.3" text-anchor="end" font-size="11" fill="#6b7280">261</text>
<line x1="60" y1="162.7" x2="770" y2="162.7" stroke="#f3f4f6" stroke-width="1"/>
<text x="54" y="166.7" text-anchor="end" font-size="11" fill="#6b7280">392</text>
<line x1="60" y1="110.6" x2="770" y2="110.6" stroke="#f3f4f6" stroke-width="1"/>
<text x="54" y="114.6" text-anchor="end" font-size="11" fill="#6b7280">522</text>
<line x1="60" y1="58.0" x2="770" y2="58.0" stroke="#f3f4f6" stroke-width="1"/>
<text x="54" y="62.0" text-anchor="end" font-size="11" fill="#6b7280">653</text>
<rect x="66.5" y="314.8" width="24.3" height="5.2" fill="#34C759" rx="3" opacity="0.85"/>
<text x="78.7" y="298.8" text-anchor="middle" font-size="10" fill="#6b7280">13</text>
<text x="78.7" y="310.8" text-anchor="middle" font-size="10" fill="#6b7280">(0.43%)</text>
<g transform="translate(78.7,330.0) rotate(-45)"><text text-anchor="end" font-size="10" fill="#111827">2021-Q4</text></g>
<rect x="103.9" y="308.8" width="24.3" height="11.2" fill="#34C759" rx="3" opacity="0.85"/>
<text x="116.1" y="292.8" text-anchor="middle" font-size="10" fill="#6b7280">28</text>
<text x="116.1" y="304.8" text-anchor="middle" font-size="10" fill="#6b7280">(0.93%)</text>
<g transform="translate(116.1,330.0) rotate(-45)"><text text-anchor="end" font-size="10" fill="#111827">2022-Q1</text></g>
<rect x="141.3" y="306.0" width="24.3" height="14.0" fill="#34C759" rx="3" opacity="0.85"/>
<text x="153.4" y="290.0" text-anchor="middle" font-size="10" fill="#6b7280">35</text>
<text x="153.4" y="302.0" text-anchor="middle" font-size="10" fill="#6b7280">(1.16%)</text>
<g transform="translate(153.4,330.0) rotate(-45)"><text text-anchor="end" font-size="10" fill="#111827">2022-Q2</text></g>
<rect x="178.6" y="304.4" width="24.3" height="15.6" fill="#34C759" rx="3" opacity="0.85"/>
<text x="190.8" y="288.4" text-anchor="middle" font-size="10" fill="#6b7280">39</text>
<text x="190.8" y="300.4" text-anchor="middle" font-size="10" fill="#6b7280">(1.29%)</text>
<g transform="translate(190.8,330.0) rotate(-45)"><text text-anchor="end" font-size="10" fill="#111827">2022-Q3</text></g>
<rect x="216.0" y="295.1" width="24.3" height="24.9" fill="#34C759" rx="3" opacity="0.85"/>
<text x="228.2" y="279.1" text-anchor="middle" font-size="10" fill="#6b7280">62</text>
<text x="228.2" y="291.1" text-anchor="middle" font-size="10" fill="#6b7280">(2.05%)</text>
<g transform="translate(228.2,330.0) rotate(-45)"><text text-anchor="end" font-size="10" fill="#111827">2022-Q4</text></g>
<rect x="253.4" y="284.7" width="24.3" height="35.3" fill="#34C759" rx="3" opacity="0.85"/>
<text x="265.5" y="268.7" text-anchor="middle" font-size="10" fill="#6b7280">88</text>
<text x="265.5" y="280.7" text-anchor="middle" font-size="10" fill="#6b7280">(2.91%)</text>
<g transform="translate(265.5,330.0) rotate(-45)"><text text-anchor="end" font-size="10" fill="#111827">2023-Q1</text></g>
<rect x="290.8" y="284.7" width="24.3" height="35.3" fill="#34C759" rx="3" opacity="0.85"/>
<text x="302.9" y="268.7" text-anchor="middle" font-size="10" fill="#6b7280">88</text>
<text x="302.9" y="280.7" text-anchor="middle" font-size="10" fill="#6b7280">(2.91%)</text>
<g transform="translate(302.9,330.0) rotate(-45)"><text text-anchor="end" font-size="10" fill="#111827">2023-Q2</text></g>
<rect x="328.1" y="287.9" width="24.3" height="32.1" fill="#34C759" rx="3" opacity="0.85"/>
<text x="340.3" y="271.9" text-anchor="middle" font-size="10" fill="#6b7280">80</text>
<text x="340.3" y="283.9" text-anchor="middle" font-size="10" fill="#6b7280">(2.64%)</text>
<g transform="translate(340.3,330.0) rotate(-45)"><text text-anchor="end" font-size="10" fill="#111827">2023-Q3</text></g>
<rect x="365.5" y="295.1" width="24.3" height="24.9" fill="#34C759" rx="3" opacity="0.85"/>
<text x="377.6" y="279.1" text-anchor="middle" font-size="10" fill="#6b7280">62</text>
<text x="377.6" y="291.1" text-anchor="middle" font-size="10" fill="#6b7280">(2.05%)</text>
<g transform="translate(377.6,330.0) rotate(-45)"><text text-anchor="end" font-size="10" fill="#111827">2023-Q4</text></g>
<rect x="402.9" y="277.1" width="24.3" height="42.9" fill="#34C759" rx="3" opacity="0.85"/>
<text x="415.0" y="261.1" text-anchor="middle" font-size="10" fill="#6b7280">107</text>
<text x="415.0" y="273.1" text-anchor="middle" font-size="10" fill="#6b7280">(3.53%)</text>
<g transform="translate(415.0,330.0) rotate(-45)"><text text-anchor="end" font-size="10" fill="#111827">2024-Q1</text></g>
<rect x="440.2" y="270.2" width="24.3" height="49.8" fill="#34C759" rx="3" opacity="0.85"/>
<text x="452.4" y="254.2" text-anchor="middle" font-size="10" fill="#6b7280">124</text>
<text x="452.4" y="266.2" text-anchor="middle" font-size="10" fill="#6b7280">(4.10%)</text>
<g transform="translate(452.4,330.0) rotate(-45)"><text text-anchor="end" font-size="10" fill="#111827">2024-Q2</text></g>
<rect x="477.6" y="271.1" width="24.3" height="48.9" fill="#34C759" rx="3" opacity="0.85"/>
<text x="489.7" y="255.1" text-anchor="middle" font-size="10" fill="#6b7280">122</text>
<text x="489.7" y="267.1" text-anchor="middle" font-size="10" fill="#6b7280">(4.03%)</text>
<g transform="translate(489.7,330.0) rotate(-45)"><text text-anchor="end" font-size="10" fill="#111827">2024-Q3</text></g>
<rect x="515.0" y="274.3" width="24.3" height="45.7" fill="#34C759" rx="3" opacity="0.85"/>
<text x="527.1" y="258.3" text-anchor="middle" font-size="10" fill="#6b7280">114</text>
<text x="527.1" y="270.3" text-anchor="middle" font-size="10" fill="#6b7280">(3.77%)</text>
<g transform="translate(527.1,330.0) rotate(-45)"><text text-anchor="end" font-size="10" fill="#111827">2024-Q4</text></g>
<rect x="552.3" y="244.2" width="24.3" height="75.8" fill="#34C759" rx="3" opacity="0.85"/>
<text x="564.5" y="228.2" text-anchor="middle" font-size="10" fill="#6b7280">189</text>
<text x="564.5" y="240.2" text-anchor="middle" font-size="10" fill="#6b7280">(6.24%)</text>
<g transform="translate(564.5,330.0) rotate(-45)"><text text-anchor="end" font-size="10" fill="#111827">2025-Q1</text></g>
<rect x="589.7" y="237.7" width="24.3" height="82.3" fill="#34C759" rx="3" opacity="0.85"/>
<text x="601.8" y="221.7" text-anchor="middle" font-size="10" fill="#6b7280">205</text>
<text x="601.8" y="233.7" text-anchor="middle" font-size="10" fill="#6b7280">(6.77%)</text>
<g transform="translate(601.8,330.0) rotate(-45)"><text text-anchor="end" font-size="10" fill="#111827">2025-Q2</text></g>
<rect x="627.1" y="240.6" width="24.3" height="79.4" fill="#34C759" rx="3" opacity="0.85"/>
<text x="639.2" y="224.6" text-anchor="middle" font-size="10" fill="#6b7280">198</text>
<text x="639.2" y="236.6" text-anchor="middle" font-size="10" fill="#6b7280">(6.54%)</text>
<g transform="translate(639.2,330.0) rotate(-45)"><text text-anchor="end" font-size="10" fill="#111827">2025-Q3</text></g>
<rect x="664.4" y="206.1" width="24.3" height="113.9" fill="#34C759" rx="3" opacity="0.85"/>
<text x="676.6" y="190.1" text-anchor="middle" font-size="10" fill="#6b7280">284</text>
<text x="676.6" y="202.1" text-anchor="middle" font-size="10" fill="#6b7280">(9.38%)</text>
<g transform="translate(676.6,330.0) rotate(-45)"><text text-anchor="end" font-size="10" fill="#111827">2025-Q4</text></g>
<rect x="701.8" y="104.9" width="24.3" height="215.1" fill="#34C759" rx="3" opacity="0.85"/>
<text x="713.9" y="88.9" text-anchor="middle" font-size="10" fill="#6b7280">536</text>
<text x="713.9" y="100.9" text-anchor="middle" font-size="10" fill="#6b7280">(17.71%)</text>
<g transform="translate(713.9,330.0) rotate(-45)"><text text-anchor="end" font-size="10" fill="#111827">2026-Q1</text></g>
<rect x="739.2" y="58.0" width="24.3" height="262.0" fill="#34C759" rx="3" opacity="0.85"/>
<text x="751.3" y="72.0" text-anchor="middle" font-size="10" fill="#6b7280">653</text>
<text x="751.3" y="84.0" text-anchor="middle" font-size="10" fill="#6b7280">(21.57%)</text>
<g transform="translate(751.3,330.0) rotate(-45)"><text text-anchor="end" font-size="10" fill="#111827">2026-Q2</text></g>
</svg>