<svg xmlns="http://www.w3.org/2000/svg" width="800" height="400" viewBox="0 0 800 400">
<defs>
  <style>text { font-family: -apple-system, BlinkMacSystemFont, 'Segoe UI', Roboto, sans-serif; }</style>
  <linearGradient id="g2" x1="0" y1="0" x2="0" y2="1">
  <stop offset="0%" stop-color="#4F8EF7" stop-opacity="0.25"/>
  <stop offset="100%" stop-color="#4F8EF7" stop-opacity="0"/>
</linearGradient>
<linearGradient id="g3" x1="0" y1="0" x2="0" y2="1">
  <stop offset="0%" stop-color="#BF5AF2" stop-opacity="0.25"/>
  <stop offset="100%" stop-color="#BF5AF2" stop-opacity="0"/>
</linearGradient>
<linearGradient id="g4" x1="0" y1="0" x2="0" y2="1">
  <stop offset="0%" stop-color="#34C759" stop-opacity="0.25"/>
  <stop offset="100%" stop-color="#34C759" stop-opacity="0"/>
</linearGradient>
  <clipPath id="ca"><rect x="72" y="45" width="698" height="295"/></clipPath>
</defs>
<rect width="800" height="400" fill="#ffffff" rx="12"/>
<text x="400" y="26" text-anchor="middle" font-size="15" font-weight="600" fill="#111827">Community Growth Over Time</text>
<line x1="72" y1="340.0" x2="770" y2="340.0" stroke="#f3f4f6" stroke-width="1"/>
<text x="66" y="344.0" text-anchor="end" font-size="11" fill="#6b7280">500</text>
<line x1="72" y1="241.7" x2="770" y2="241.7" stroke="#f3f4f6" stroke-width="1"/>
<text x="66" y="245.7" text-anchor="end" font-size="11" fill="#6b7280">1.0k</text>
<line x1="72" y1="143.3" x2="770" y2="143.3" stroke="#f3f4f6" stroke-width="1"/>
<text x="66" y="147.3" text-anchor="end" font-size="11" fill="#6b7280">1.5k</text>
<line x1="72" y1="45.0" x2="770" y2="45.0" stroke="#f3f4f6" stroke-width="1"/>
<text x="66" y="49.0" text-anchor="end" font-size="11" fill="#6b7280">2.0k</text>
<line x1="144.2" y1="45" x2="144.2" y2="340" stroke="#e5e7eb" stroke-width="1" stroke-dasharray="3,3" clip-path="url(#ca)"/>
<line x1="300.7" y1="45" x2="300.7" y2="340" stroke="#e5e7eb" stroke-width="1" stroke-dasharray="3,3" clip-path="url(#ca)"/>
<line x1="463.1" y1="45" x2="463.1" y2="340" stroke="#e5e7eb" stroke-width="1" stroke-dasharray="3,3" clip-path="url(#ca)"/>
<line x1="625.6" y1="45" x2="625.6" y2="340" stroke="#e5e7eb" stroke-width="1" stroke-dasharray="3,3" clip-path="url(#ca)"/>
<text x="72.0" y="358.0" text-anchor="middle" font-size="11" fill="#6b7280">Dec 11</text>
<text x="210.4" y="358.0" text-anchor="middle" font-size="11" fill="#6b7280">Jan 16</text>
<text x="348.8" y="358.0" text-anchor="middle" font-size="11" fill="#6b7280">Feb 9</text>
<text x="493.2" y="358.0" text-anchor="middle" font-size="11" fill="#6b7280">Mar 6</text>
<text x="631.6" y="358.0" text-anchor="middle" font-size="11" fill="#6b7280">Apr 2</text>
<text x="770.0" y="358.0" text-anchor="middle" font-size="11" fill="#6b7280">Apr 28</text>
<line x1="72" y1="45" x2="72" y2="340" stroke="#e5e7eb" stroke-width="1"/>
<line x1="72" y1="340" x2="770" y2="340" stroke="#e5e7eb" stroke-width="1"/>
<text x="-192.5" y="18" text-anchor="middle" font-size="12" fill="#6b7280" transform="rotate(-90)">People</text>
<path d="M 72.0,340 L 72.0,120.1 L 78.0,120.1 L 84.0,120.1 L 90.1,119.5 L 96.1,119.5 L 102.1,119.1 L 108.1,118.9 L 114.1,119.1 L 120.1,118.6 L 126.2,118.6 L 132.2,118.6 L 138.2,118.6 L 144.2,118.6 L 150.2,118.6 L 156.2,118.6 L 162.3,118.6 L 168.3,118.4 L 174.3,117.8 L 180.3,116.6 L 186.3,116.0 L 192.3,115.8 L 198.4,115.8 L 204.4,115.2 L 210.4,113.8 L 216.4,113.0 L 222.4,113.0 L 228.4,112.1 L 234.5,111.7 L 240.5,110.9 L 246.5,110.3 L 252.5,109.7 L 258.5,109.1 L 264.6,109.1 L 270.6,107.7 L 276.6,106.9 L 282.6,106.9 L 288.6,106.2 L 294.6,105.8 L 300.7,105.6 L 306.7,105.4 L 312.7,105.4 L 318.7,104.8 L 324.7,102.4 L 330.7,101.0 L 336.8,100.3 L 342.8,100.1 L 348.8,99.7 L 354.8,98.9 L 360.8,98.5 L 366.8,98.1 L 372.9,97.7 L 378.9,97.3 L 384.9,96.9 L 390.9,96.9 L 396.9,95.0 L 402.9,95.0 L 409.0,94.8 L 415.0,94.6 L 421.0,94.2 L 427.0,94.2 L 433.0,93.2 L 439.1,92.0 L 445.1,91.6 L 451.1,92.0 L 457.1,91.8 L 463.1,91.6 L 469.1,91.6 L 475.2,91.2 L 481.2,90.4 L 487.2,90.0 L 493.2,89.6 L 499.2,89.4 L 505.2,89.4 L 511.3,88.7 L 517.3,88.3 L 523.3,88.3 L 529.3,86.7 L 535.3,86.7 L 541.3,86.7 L 547.4,86.7 L 553.4,86.5 L 559.4,85.9 L 565.4,85.1 L 571.4,84.7 L 577.4,84.7 L 583.5,84.3 L 589.5,82.8 L 595.5,81.8 L 601.5,81.6 L 607.5,81.4 L 613.6,80.8 L 619.6,79.6 L 625.6,79.2 L 631.6,78.8 L 637.6,77.6 L 643.6,77.4 L 649.7,77.4 L 655.7,77.4 L 661.7,77.3 L 667.7,76.1 L 673.7,75.9 L 679.7,75.7 L 685.8,75.7 L 691.8,75.3 L 697.8,73.7 L 703.8,73.5 L 709.8,73.3 L 715.8,73.3 L 721.9,72.5 L 727.9,72.3 L 733.9,72.1 L 739.9,71.6 L 745.9,70.8 L 751.9,70.8 L 758.0,70.8 L 764.0,70.8 L 770.0,70.4 L 770.0,340 Z" fill="url(#g2)" clip-path="url(#ca)"/>
<path d="M 72.0,120.1 L 78.0,120.1 L 84.0,120.1 L 90.1,119.5 L 96.1,119.5 L 102.1,119.1 L 108.1,118.9 L 114.1,119.1 L 120.1,118.6 L 126.2,118.6 L 132.2,118.6 L 138.2,118.6 L 144.2,118.6 L 150.2,118.6 L 156.2,118.6 L 162.3,118.6 L 168.3,118.4 L 174.3,117.8 L 180.3,116.6 L 186.3,116.0 L 192.3,115.8 L 198.4,115.8 L 204.4,115.2 L 210.4,113.8 L 216.4,113.0 L 222.4,113.0 L 228.4,112.1 L 234.5,111.7 L 240.5,110.9 L 246.5,110.3 L 252.5,109.7 L 258.5,109.1 L 264.6,109.1 L 270.6,107.7 L 276.6,106.9 L 282.6,106.9 L 288.6,106.2 L 294.6,105.8 L 300.7,105.6 L 306.7,105.4 L 312.7,105.4 L 318.7,104.8 L 324.7,102.4 L 330.7,101.0 L 336.8,100.3 L 342.8,100.1 L 348.8,99.7 L 354.8,98.9 L 360.8,98.5 L 366.8,98.1 L 372.9,97.7 L 378.9,97.3 L 384.9,96.9 L 390.9,96.9 L 396.9,95.0 L 402.9,95.0 L 409.0,94.8 L 415.0,94.6 L 421.0,94.2 L 427.0,94.2 L 433.0,93.2 L 439.1,92.0 L 445.1,91.6 L 451.1,92.0 L 457.1,91.8 L 463.1,91.6 L 469.1,91.6 L 475.2,91.2 L 481.2,90.4 L 487.2,90.0 L 493.2,89.6 L 499.2,89.4 L 505.2,89.4 L 511.3,88.7 L 517.3,88.3 L 523.3,88.3 L 529.3,86.7 L 535.3,86.7 L 541.3,86.7 L 547.4,86.7 L 553.4,86.5 L 559.4,85.9 L 565.4,85.1 L 571.4,84.7 L 577.4,84.7 L 583.5,84.3 L 589.5,82.8 L 595.5,81.8 L 601.5,81.6 L 607.5,81.4 L 613.6,80.8 L 619.6,79.6 L 625.6,79.2 L 631.6,78.8 L 637.6,77.6 L 643.6,77.4 L 649.7,77.4 L 655.7,77.4 L 661.7,77.3 L 667.7,76.1 L 673.7,75.9 L 679.7,75.7 L 685.8,75.7 L 691.8,75.3 L 697.8,73.7 L 703.8,73.5 L 709.8,73.3 L 715.8,73.3 L 721.9,72.5 L 727.9,72.3 L 733.9,72.1 L 739.9,71.6 L 745.9,70.8 L 751.9,70.8 L 758.0,70.8 L 764.0,70.8 L 770.0,70.4" fill="none" stroke="#4F8EF7" stroke-width="2.5" stroke-linejoin="round" clip-path="url(#ca)"/>
<path d="M 72.0,340 L 72.0,244.2 L 78.0,243.6 L 84.0,243.6 L 90.1,243.6 L 96.1,243.4 L 102.1,243.0 L 108.1,242.8 L 114.1,242.6 L 120.1,242.6 L 126.2,242.5 L 132.2,242.3 L 138.2,242.3 L 144.2,242.3 L 150.2,242.3 L 156.2,242.3 L 162.3,242.3 L 168.3,241.9 L 174.3,241.9 L 180.3,241.9 L 186.3,241.1 L 192.3,240.9 L 198.4,240.5 L 204.4,239.7 L 210.4,239.5 L 216.4,239.5 L 222.4,239.5 L 228.4,238.9 L 234.5,238.5 L 240.5,238.5 L 246.5,238.1 L 252.5,237.9 L 258.5,237.5 L 264.6,237.5 L 270.6,237.3 L 276.6,236.6 L 282.6,236.0 L 288.6,235.6 L 294.6,235.4 L 300.7,235.4 L 306.7,235.2 L 312.7,234.8 L 318.7,234.8 L 324.7,234.6 L 330.7,234.0 L 336.8,233.6 L 342.8,233.6 L 348.8,233.6 L 354.8,233.6 L 360.8,233.4 L 366.8,232.8 L 372.9,232.4 L 378.9,232.2 L 384.9,232.0 L 390.9,231.8 L 396.9,231.6 L 402.9,231.4 L 409.0,231.2 L 415.0,230.7 L 421.0,230.5 L 427.0,230.3 L 433.0,229.5 L 439.1,228.7 L 445.1,228.7 L 451.1,228.5 L 457.1,228.3 L 463.1,228.3 L 469.1,228.3 L 475.2,227.9 L 481.2,227.9 L 487.2,226.7 L 493.2,226.5 L 499.2,226.3 L 505.2,226.3 L 511.3,225.9 L 517.3,225.7 L 523.3,225.7 L 529.3,225.5 L 535.3,225.5 L 541.3,225.5 L 547.4,225.1 L 553.4,224.9 L 559.4,224.0 L 565.4,224.2 L 571.4,224.0 L 577.4,223.8 L 583.5,223.8 L 589.5,223.6 L 595.5,223.0 L 601.5,223.0 L 607.5,223.0 L 613.6,223.0 L 619.6,222.6 L 625.6,222.6 L 631.6,222.2 L 637.6,221.8 L 643.6,221.0 L 649.7,221.0 L 655.7,220.6 L 661.7,220.4 L 667.7,220.2 L 673.7,220.0 L 679.7,219.6 L 685.8,219.6 L 691.8,219.1 L 697.8,219.1 L 703.8,218.9 L 709.8,218.5 L 715.8,218.3 L 721.9,218.3 L 727.9,218.3 L 733.9,218.3 L 739.9,218.3 L 745.9,217.7 L 751.9,217.7 L 758.0,217.3 L 764.0,216.9 L 770.0,216.3 L 770.0,340 Z" fill="url(#g3)" clip-path="url(#ca)"/>
<path d="M 72.0,244.2 L 78.0,243.6 L 84.0,243.6 L 90.1,243.6 L 96.1,243.4 L 102.1,243.0 L 108.1,242.8 L 114.1,242.6 L 120.1,242.6 L 126.2,242.5 L 132.2,242.3 L 138.2,242.3 L 144.2,242.3 L 150.2,242.3 L 156.2,242.3 L 162.3,242.3 L 168.3,241.9 L 174.3,241.9 L 180.3,241.9 L 186.3,241.1 L 192.3,240.9 L 198.4,240.5 L 204.4,239.7 L 210.4,239.5 L 216.4,239.5 L 222.4,239.5 L 228.4,238.9 L 234.5,238.5 L 240.5,238.5 L 246.5,238.1 L 252.5,237.9 L 258.5,237.5 L 264.6,237.5 L 270.6,237.3 L 276.6,236.6 L 282.6,236.0 L 288.6,235.6 L 294.6,235.4 L 300.7,235.4 L 306.7,235.2 L 312.7,234.8 L 318.7,234.8 L 324.7,234.6 L 330.7,234.0 L 336.8,233.6 L 342.8,233.6 L 348.8,233.6 L 354.8,233.6 L 360.8,233.4 L 366.8,232.8 L 372.9,232.4 L 378.9,232.2 L 384.9,232.0 L 390.9,231.8 L 396.9,231.6 L 402.9,231.4 L 409.0,231.2 L 415.0,230.7 L 421.0,230.5 L 427.0,230.3 L 433.0,229.5 L 439.1,228.7 L 445.1,228.7 L 451.1,228.5 L 457.1,228.3 L 463.1,228.3 L 469.1,228.3 L 475.2,227.9 L 481.2,227.9 L 487.2,226.7 L 493.2,226.5 L 499.2,226.3 L 505.2,226.3 L 511.3,225.9 L 517.3,225.7 L 523.3,225.7 L 529.3,225.5 L 535.3,225.5 L 541.3,225.5 L 547.4,225.1 L 553.4,224.9 L 559.4,224.0 L 565.4,224.2 L 571.4,224.0 L 577.4,223.8 L 583.5,223.8 L 589.5,223.6 L 595.5,223.0 L 601.5,223.0 L 607.5,223.0 L 613.6,223.0 L 619.6,222.6 L 625.6,222.6 L 631.6,222.2 L 637.6,221.8 L 643.6,221.0 L 649.7,221.0 L 655.7,220.6 L 661.7,220.4 L 667.7,220.2 L 673.7,220.0 L 679.7,219.6 L 685.8,219.6 L 691.8,219.1 L 697.8,219.1 L 703.8,218.9 L 709.8,218.5 L 715.8,218.3 L 721.9,218.3 L 727.9,218.3 L 733.9,218.3 L 739.9,218.3 L 745.9,217.7 L 751.9,217.7 L 758.0,217.3 L 764.0,216.9 L 770.0,216.3" fill="none" stroke="#BF5AF2" stroke-width="2.5" stroke-linejoin="round" clip-path="url(#ca)"/>
<path d="M 72.0,340 L 72.0,291.4 L 78.0,290.8 L 84.0,290.8 L 90.1,290.8 L 96.1,290.6 L 102.1,290.2 L 108.1,290.0 L 114.1,289.7 L 120.1,289.7 L 126.2,289.5 L 132.2,289.3 L 138.2,289.3 L 144.2,289.3 L 150.2,289.3 L 156.2,289.3 L 162.3,289.3 L 168.3,288.9 L 174.3,288.9 L 180.3,289.1 L 186.3,288.5 L 192.3,288.7 L 198.4,288.1 L 204.4,287.5 L 210.4,287.3 L 216.4,287.5 L 222.4,287.5 L 228.4,286.9 L 234.5,286.7 L 240.5,286.7 L 246.5,286.3 L 252.5,286.1 L 258.5,285.7 L 264.6,285.7 L 270.6,285.5 L 276.6,284.9 L 282.6,284.3 L 288.6,283.9 L 294.6,283.9 L 300.7,283.9 L 306.7,283.8 L 312.7,283.4 L 318.7,283.4 L 324.7,283.2 L 330.7,282.6 L 336.8,282.4 L 342.8,282.4 L 348.8,282.4 L 354.8,282.4 L 360.8,282.2 L 366.8,281.6 L 372.9,281.4 L 378.9,281.2 L 384.9,281.0 L 390.9,281.0 L 396.9,280.8 L 402.9,280.8 L 409.0,280.8 L 415.0,280.2 L 421.0,280.2 L 427.0,280.2 L 433.0,279.8 L 439.1,279.2 L 445.1,279.2 L 451.1,279.0 L 457.1,278.8 L 463.1,278.8 L 469.1,278.8 L 475.2,278.4 L 481.2,278.4 L 487.2,277.3 L 493.2,277.1 L 499.2,276.9 L 505.2,276.9 L 511.3,276.7 L 517.3,276.7 L 523.3,276.7 L 529.3,276.7 L 535.3,276.7 L 541.3,276.7 L 547.4,276.3 L 553.4,276.1 L 559.4,275.1 L 565.4,275.3 L 571.4,275.3 L 577.4,275.1 L 583.5,275.1 L 589.5,275.1 L 595.5,274.7 L 601.5,274.7 L 607.5,274.7 L 613.6,274.7 L 619.6,274.7 L 625.6,274.7 L 631.6,274.5 L 637.6,274.5 L 643.6,273.7 L 649.7,273.7 L 655.7,273.5 L 661.7,273.3 L 667.7,273.1 L 673.7,272.9 L 679.7,272.5 L 685.8,272.5 L 691.8,272.0 L 697.8,272.0 L 703.8,271.8 L 709.8,271.6 L 715.8,271.6 L 721.9,271.6 L 727.9,271.6 L 733.9,271.6 L 739.9,271.6 L 745.9,271.0 L 751.9,271.0 L 758.0,270.6 L 764.0,270.2 L 770.0,269.6 L 770.0,340 Z" fill="url(#g4)" clip-path="url(#ca)"/>
<path d="M 72.0,291.4 L 78.0,290.8 L 84.0,290.8 L 90.1,290.8 L 96.1,290.6 L 102.1,290.2 L 108.1,290.0 L 114.1,289.7 L 120.1,289.7 L 126.2,289.5 L 132.2,289.3 L 138.2,289.3 L 144.2,289.3 L 150.2,289.3 L 156.2,289.3 L 162.3,289.3 L 168.3,288.9 L 174.3,288.9 L 180.3,289.1 L 186.3,288.5 L 192.3,288.7 L 198.4,288.1 L 204.4,287.5 L 210.4,287.3 L 216.4,287.5 L 222.4,287.5 L 228.4,286.9 L 234.5,286.7 L 240.5,286.7 L 246.5,286.3 L 252.5,286.1 L 258.5,285.7 L 264.6,285.7 L 270.6,285.5 L 276.6,284.9 L 282.6,284.3 L 288.6,283.9 L 294.6,283.9 L 300.7,283.9 L 306.7,283.8 L 312.7,283.4 L 318.7,283.4 L 324.7,283.2 L 330.7,282.6 L 336.8,282.4 L 342.8,282.4 L 348.8,282.4 L 354.8,282.4 L 360.8,282.2 L 366.8,281.6 L 372.9,281.4 L 378.9,281.2 L 384.9,281.0 L 390.9,281.0 L 396.9,280.8 L 402.9,280.8 L 409.0,280.8 L 415.0,280.2 L 421.0,280.2 L 427.0,280.2 L 433.0,279.8 L 439.1,279.2 L 445.1,279.2 L 451.1,279.0 L 457.1,278.8 L 463.1,278.8 L 469.1,278.8 L 475.2,278.4 L 481.2,278.4 L 487.2,277.3 L 493.2,277.1 L 499.2,276.9 L 505.2,276.9 L 511.3,276.7 L 517.3,276.7 L 523.3,276.7 L 529.3,276.7 L 535.3,276.7 L 541.3,276.7 L 547.4,276.3 L 553.4,276.1 L 559.4,275.1 L 565.4,275.3 L 571.4,275.3 L 577.4,275.1 L 583.5,275.1 L 589.5,275.1 L 595.5,274.7 L 601.5,274.7 L 607.5,274.7 L 613.6,274.7 L 619.6,274.7 L 625.6,274.7 L 631.6,274.5 L 637.6,274.5 L 643.6,273.7 L 649.7,273.7 L 655.7,273.5 L 661.7,273.3 L 667.7,273.1 L 673.7,272.9 L 679.7,272.5 L 685.8,272.5 L 691.8,272.0 L 697.8,272.0 L 703.8,271.8 L 709.8,271.6 L 715.8,271.6 L 721.9,271.6 L 727.9,271.6 L 733.9,271.6 L 739.9,271.6 L 745.9,271.0 L 751.9,271.0 L 758.0,270.6 L 764.0,270.2 L 770.0,269.6" fill="none" stroke="#34C759" stroke-width="2.5" stroke-linejoin="round" clip-path="url(#ca)"/>
<text x="105.1" y="55.0" text-anchor="middle" font-size="9" fill="#4F8EF7" opacity="0.85" clip-path="url(#ca)">+0.5% (+8)</text>
<text x="105.1" y="66.0" text-anchor="middle" font-size="9" fill="#BF5AF2" opacity="0.85" clip-path="url(#ca)">+1.0% (+10)</text>
<text x="105.1" y="77.0" text-anchor="middle" font-size="9" fill="#34C759" opacity="0.85" clip-path="url(#ca)">+1.5% (+11)</text>
<text x="219.4" y="55.0" text-anchor="middle" font-size="9" fill="#4F8EF7" opacity="0.85" clip-path="url(#ca)">+4.0% (+65)</text>
<text x="219.4" y="66.0" text-anchor="middle" font-size="9" fill="#BF5AF2" opacity="0.85" clip-path="url(#ca)">+3.5% (+35)</text>
<text x="219.4" y="77.0" text-anchor="middle" font-size="9" fill="#34C759" opacity="0.85" clip-path="url(#ca)">+3.6% (+27)</text>
<text x="378.9" y="55.0" text-anchor="middle" font-size="9" fill="#4F8EF7" opacity="0.85" clip-path="url(#ca)">+4.1% (+70)</text>
<text x="378.9" y="66.0" text-anchor="middle" font-size="9" fill="#BF5AF2" opacity="0.85" clip-path="url(#ca)">+3.5% (+36)</text>
<text x="378.9" y="77.0" text-anchor="middle" font-size="9" fill="#34C759" opacity="0.85" clip-path="url(#ca)">+3.3% (+26)</text>
<text x="541.3" y="55.0" text-anchor="middle" font-size="9" fill="#4F8EF7" opacity="0.85" clip-path="url(#ca)">+3.5% (+61)</text>
<text x="541.3" y="66.0" text-anchor="middle" font-size="9" fill="#BF5AF2" opacity="0.85" clip-path="url(#ca)">+2.7% (+29)</text>
<text x="541.3" y="77.0" text-anchor="middle" font-size="9" fill="#34C759" opacity="0.85" clip-path="url(#ca)">+2.6% (+21)</text>
<text x="697.8" y="55.0" text-anchor="middle" font-size="9" fill="#4F8EF7" opacity="0.85" clip-path="url(#ca)">+2.5% (+45)</text>
<text x="697.8" y="66.0" text-anchor="middle" font-size="9" fill="#BF5AF2" opacity="0.85" clip-path="url(#ca)">+2.9% (+32)</text>
<text x="697.8" y="77.0" text-anchor="middle" font-size="9" fill="#34C759" opacity="0.85" clip-path="url(#ca)">+3.1% (+26)</text>
<rect x="211" y="369" width="12" height="12" fill="#4F8EF7" rx="2"/>
<text x="227" y="379" font-size="12" fill="#111827">Authors</text>
<rect x="351" y="369" width="12" height="12" fill="#BF5AF2" rx="2"/>
<text x="367" y="379" font-size="12" fill="#111827">Contributors</text>
<rect x="491" y="369" width="12" height="12" fill="#34C759" rx="2"/>
<text x="507" y="379" font-size="12" fill="#111827">Non-author contributors</text>
<text x="72" y="394" font-size="8" fill="#e5e7eb">data since Dec 11, 2025</text>
</svg>