<svg xmlns="http://www.w3.org/2000/svg" width="800" height="400" viewBox="0 0 800 400">
<defs>
  <style>text { font-family: -apple-system, BlinkMacSystemFont, 'Segoe UI', Roboto, sans-serif; }</style>
  <linearGradient id="g2" x1="0" y1="0" x2="0" y2="1">
  <stop offset="0%" stop-color="#4F8EF7" stop-opacity="0.25"/>
  <stop offset="100%" stop-color="#4F8EF7" stop-opacity="0"/>
</linearGradient>
<linearGradient id="g3" x1="0" y1="0" x2="0" y2="1">
  <stop offset="0%" stop-color="#BF5AF2" stop-opacity="0.25"/>
  <stop offset="100%" stop-color="#BF5AF2" stop-opacity="0"/>
</linearGradient>
<linearGradient id="g4" x1="0" y1="0" x2="0" y2="1">
  <stop offset="0%" stop-color="#34C759" stop-opacity="0.25"/>
  <stop offset="100%" stop-color="#34C759" stop-opacity="0"/>
</linearGradient>
  <clipPath id="ca"><rect x="72" y="45" width="698" height="295"/></clipPath>
</defs>
<rect width="800" height="400" fill="#ffffff" rx="12"/>
<text x="400" y="26" text-anchor="middle" font-size="15" font-weight="600" fill="#111827">Community Growth Over Time</text>
<line x1="72" y1="340.0" x2="770" y2="340.0" stroke="#f3f4f6" stroke-width="1"/>
<text x="66" y="344.0" text-anchor="end" font-size="11" fill="#6b7280">500</text>
<line x1="72" y1="241.7" x2="770" y2="241.7" stroke="#f3f4f6" stroke-width="1"/>
<text x="66" y="245.7" text-anchor="end" font-size="11" fill="#6b7280">1.0k</text>
<line x1="72" y1="143.3" x2="770" y2="143.3" stroke="#f3f4f6" stroke-width="1"/>
<text x="66" y="147.3" text-anchor="end" font-size="11" fill="#6b7280">1.5k</text>
<line x1="72" y1="45.0" x2="770" y2="45.0" stroke="#f3f4f6" stroke-width="1"/>
<text x="66" y="49.0" text-anchor="end" font-size="11" fill="#6b7280">2.0k</text>
<line x1="141.2" y1="45" x2="141.2" y2="340" stroke="#e5e7eb" stroke-width="1" stroke-dasharray="3,3" clip-path="url(#ca)"/>
<line x1="291.2" y1="45" x2="291.2" y2="340" stroke="#e5e7eb" stroke-width="1" stroke-dasharray="3,3" clip-path="url(#ca)"/>
<line x1="447.0" y1="45" x2="447.0" y2="340" stroke="#e5e7eb" stroke-width="1" stroke-dasharray="3,3" clip-path="url(#ca)"/>
<line x1="602.7" y1="45" x2="602.7" y2="340" stroke="#e5e7eb" stroke-width="1" stroke-dasharray="3,3" clip-path="url(#ca)"/>
<line x1="758.5" y1="45" x2="758.5" y2="340" stroke="#e5e7eb" stroke-width="1" stroke-dasharray="3,3" clip-path="url(#ca)"/>
<text x="72.0" y="358.0" text-anchor="middle" font-size="11" fill="#6b7280">Dec 11</text>
<text x="210.4" y="358.0" text-anchor="middle" font-size="11" fill="#6b7280">Jan 17</text>
<text x="348.9" y="358.0" text-anchor="middle" font-size="11" fill="#6b7280">Feb 11</text>
<text x="493.1" y="358.0" text-anchor="middle" font-size="11" fill="#6b7280">Mar 10</text>
<text x="631.6" y="358.0" text-anchor="middle" font-size="11" fill="#6b7280">Apr 7</text>
<text x="770.0" y="358.0" text-anchor="middle" font-size="11" fill="#6b7280">May 5</text>
<line x1="72" y1="45" x2="72" y2="340" stroke="#e5e7eb" stroke-width="1"/>
<line x1="72" y1="340" x2="770" y2="340" stroke="#e5e7eb" stroke-width="1"/>
<text x="-192.5" y="18" text-anchor="middle" font-size="12" fill="#6b7280" transform="rotate(-90)">People</text>
<path d="M 72.0,340 L 72.0,120.1 L 77.8,120.1 L 83.5,120.1 L 89.3,119.5 L 95.1,119.5 L 100.8,119.1 L 106.6,118.9 L 112.4,119.1 L 118.1,118.6 L 123.9,118.6 L 129.7,118.6 L 135.5,118.6 L 141.2,118.6 L 147.0,118.6 L 152.8,118.6 L 158.5,118.6 L 164.3,118.4 L 170.1,117.8 L 175.8,116.6 L 181.6,116.0 L 187.4,115.8 L 193.1,115.8 L 198.9,115.2 L 204.7,113.8 L 210.4,113.0 L 216.2,113.0 L 222.0,112.1 L 227.8,111.7 L 233.5,110.9 L 239.3,110.3 L 245.1,109.7 L 250.8,109.1 L 256.6,109.1 L 262.4,107.7 L 268.1,106.9 L 273.9,106.9 L 279.7,106.2 L 285.4,105.8 L 291.2,105.6 L 297.0,105.4 L 302.7,105.4 L 308.5,104.8 L 314.3,102.4 L 320.0,101.0 L 325.8,100.3 L 331.6,100.1 L 337.4,99.7 L 343.1,98.9 L 348.9,98.5 L 354.7,98.1 L 360.4,97.7 L 366.2,97.3 L 372.0,96.9 L 377.7,96.9 L 383.5,95.0 L 389.3,95.0 L 395.0,94.8 L 400.8,94.6 L 406.6,94.2 L 412.3,94.2 L 418.1,93.2 L 423.9,92.0 L 429.7,91.6 L 435.4,92.0 L 441.2,91.8 L 447.0,91.6 L 452.7,91.6 L 458.5,91.2 L 464.3,90.4 L 470.0,90.0 L 475.8,89.6 L 481.6,89.4 L 487.3,89.4 L 493.1,88.7 L 498.9,88.3 L 504.6,88.3 L 510.4,86.7 L 516.2,86.7 L 522.0,86.7 L 527.7,86.7 L 533.5,86.5 L 539.3,85.9 L 545.0,85.1 L 550.8,84.7 L 556.6,84.7 L 562.3,84.3 L 568.1,82.8 L 573.9,81.8 L 579.6,81.6 L 585.4,81.4 L 591.2,80.8 L 596.9,79.6 L 602.7,79.2 L 608.5,78.8 L 614.2,77.6 L 620.0,77.4 L 625.8,77.4 L 631.6,77.4 L 637.3,77.3 L 643.1,76.1 L 648.9,75.9 L 654.6,75.7 L 660.4,75.7 L 666.2,75.3 L 671.9,73.7 L 677.7,73.5 L 683.5,73.3 L 689.2,73.3 L 695.0,72.5 L 700.8,72.3 L 706.5,72.1 L 712.3,71.6 L 718.1,70.8 L 723.9,70.8 L 729.6,70.8 L 735.4,70.8 L 741.2,70.4 L 746.9,69.8 L 752.7,69.6 L 758.5,69.0 L 764.2,68.8 L 770.0,68.6 L 770.0,340 Z" fill="url(#g2)" clip-path="url(#ca)"/>
<path d="M 72.0,120.1 L 77.8,120.1 L 83.5,120.1 L 89.3,119.5 L 95.1,119.5 L 100.8,119.1 L 106.6,118.9 L 112.4,119.1 L 118.1,118.6 L 123.9,118.6 L 129.7,118.6 L 135.5,118.6 L 141.2,118.6 L 147.0,118.6 L 152.8,118.6 L 158.5,118.6 L 164.3,118.4 L 170.1,117.8 L 175.8,116.6 L 181.6,116.0 L 187.4,115.8 L 193.1,115.8 L 198.9,115.2 L 204.7,113.8 L 210.4,113.0 L 216.2,113.0 L 222.0,112.1 L 227.8,111.7 L 233.5,110.9 L 239.3,110.3 L 245.1,109.7 L 250.8,109.1 L 256.6,109.1 L 262.4,107.7 L 268.1,106.9 L 273.9,106.9 L 279.7,106.2 L 285.4,105.8 L 291.2,105.6 L 297.0,105.4 L 302.7,105.4 L 308.5,104.8 L 314.3,102.4 L 320.0,101.0 L 325.8,100.3 L 331.6,100.1 L 337.4,99.7 L 343.1,98.9 L 348.9,98.5 L 354.7,98.1 L 360.4,97.7 L 366.2,97.3 L 372.0,96.9 L 377.7,96.9 L 383.5,95.0 L 389.3,95.0 L 395.0,94.8 L 400.8,94.6 L 406.6,94.2 L 412.3,94.2 L 418.1,93.2 L 423.9,92.0 L 429.7,91.6 L 435.4,92.0 L 441.2,91.8 L 447.0,91.6 L 452.7,91.6 L 458.5,91.2 L 464.3,90.4 L 470.0,90.0 L 475.8,89.6 L 481.6,89.4 L 487.3,89.4 L 493.1,88.7 L 498.9,88.3 L 504.6,88.3 L 510.4,86.7 L 516.2,86.7 L 522.0,86.7 L 527.7,86.7 L 533.5,86.5 L 539.3,85.9 L 545.0,85.1 L 550.8,84.7 L 556.6,84.7 L 562.3,84.3 L 568.1,82.8 L 573.9,81.8 L 579.6,81.6 L 585.4,81.4 L 591.2,80.8 L 596.9,79.6 L 602.7,79.2 L 608.5,78.8 L 614.2,77.6 L 620.0,77.4 L 625.8,77.4 L 631.6,77.4 L 637.3,77.3 L 643.1,76.1 L 648.9,75.9 L 654.6,75.7 L 660.4,75.7 L 666.2,75.3 L 671.9,73.7 L 677.7,73.5 L 683.5,73.3 L 689.2,73.3 L 695.0,72.5 L 700.8,72.3 L 706.5,72.1 L 712.3,71.6 L 718.1,70.8 L 723.9,70.8 L 729.6,70.8 L 735.4,70.8 L 741.2,70.4 L 746.9,69.8 L 752.7,69.6 L 758.5,69.0 L 764.2,68.8 L 770.0,68.6" fill="none" stroke="#4F8EF7" stroke-width="2.5" stroke-linejoin="round" clip-path="url(#ca)"/>
<path d="M 72.0,340 L 72.0,244.2 L 77.8,243.6 L 83.5,243.6 L 89.3,243.6 L 95.1,243.4 L 100.8,243.0 L 106.6,242.8 L 112.4,242.6 L 118.1,242.6 L 123.9,242.5 L 129.7,242.3 L 135.5,242.3 L 141.2,242.3 L 147.0,242.3 L 152.8,242.3 L 158.5,242.3 L 164.3,241.9 L 170.1,241.9 L 175.8,241.9 L 181.6,241.1 L 187.4,240.9 L 193.1,240.5 L 198.9,239.7 L 204.7,239.5 L 210.4,239.5 L 216.2,239.5 L 222.0,238.9 L 227.8,238.5 L 233.5,238.5 L 239.3,238.1 L 245.1,237.9 L 250.8,237.5 L 256.6,237.5 L 262.4,237.3 L 268.1,236.6 L 273.9,236.0 L 279.7,235.6 L 285.4,235.4 L 291.2,235.4 L 297.0,235.2 L 302.7,234.8 L 308.5,234.8 L 314.3,234.6 L 320.0,234.0 L 325.8,233.6 L 331.6,233.6 L 337.4,233.6 L 343.1,233.6 L 348.9,233.4 L 354.7,232.8 L 360.4,232.4 L 366.2,232.2 L 372.0,232.0 L 377.7,231.8 L 383.5,231.6 L 389.3,231.4 L 395.0,231.2 L 400.8,230.7 L 406.6,230.5 L 412.3,230.3 L 418.1,229.5 L 423.9,228.7 L 429.7,228.7 L 435.4,228.5 L 441.2,228.3 L 447.0,228.3 L 452.7,228.3 L 458.5,227.9 L 464.3,227.9 L 470.0,226.7 L 475.8,226.5 L 481.6,226.3 L 487.3,226.3 L 493.1,225.9 L 498.9,225.7 L 504.6,225.7 L 510.4,225.5 L 516.2,225.5 L 522.0,225.5 L 527.7,225.1 L 533.5,224.9 L 539.3,224.0 L 545.0,224.2 L 550.8,224.0 L 556.6,223.8 L 562.3,223.8 L 568.1,223.6 L 573.9,223.0 L 579.6,223.0 L 585.4,223.0 L 591.2,223.0 L 596.9,222.6 L 602.7,222.6 L 608.5,222.2 L 614.2,221.8 L 620.0,221.0 L 625.8,221.0 L 631.6,220.6 L 637.3,220.4 L 643.1,220.2 L 648.9,220.0 L 654.6,219.6 L 660.4,219.6 L 666.2,219.1 L 671.9,219.1 L 677.7,218.9 L 683.5,218.5 L 689.2,218.3 L 695.0,218.3 L 700.8,218.3 L 706.5,218.3 L 712.3,218.3 L 718.1,217.7 L 723.9,217.7 L 729.6,217.3 L 735.4,216.9 L 741.2,216.3 L 746.9,216.1 L 752.7,216.1 L 758.5,214.9 L 764.2,214.7 L 770.0,214.7 L 770.0,340 Z" fill="url(#g3)" clip-path="url(#ca)"/>
<path d="M 72.0,244.2 L 77.8,243.6 L 83.5,243.6 L 89.3,243.6 L 95.1,243.4 L 100.8,243.0 L 106.6,242.8 L 112.4,242.6 L 118.1,242.6 L 123.9,242.5 L 129.7,242.3 L 135.5,242.3 L 141.2,242.3 L 147.0,242.3 L 152.8,242.3 L 158.5,242.3 L 164.3,241.9 L 170.1,241.9 L 175.8,241.9 L 181.6,241.1 L 187.4,240.9 L 193.1,240.5 L 198.9,239.7 L 204.7,239.5 L 210.4,239.5 L 216.2,239.5 L 222.0,238.9 L 227.8,238.5 L 233.5,238.5 L 239.3,238.1 L 245.1,237.9 L 250.8,237.5 L 256.6,237.5 L 262.4,237.3 L 268.1,236.6 L 273.9,236.0 L 279.7,235.6 L 285.4,235.4 L 291.2,235.4 L 297.0,235.2 L 302.7,234.8 L 308.5,234.8 L 314.3,234.6 L 320.0,234.0 L 325.8,233.6 L 331.6,233.6 L 337.4,233.6 L 343.1,233.6 L 348.9,233.4 L 354.7,232.8 L 360.4,232.4 L 366.2,232.2 L 372.0,232.0 L 377.7,231.8 L 383.5,231.6 L 389.3,231.4 L 395.0,231.2 L 400.8,230.7 L 406.6,230.5 L 412.3,230.3 L 418.1,229.5 L 423.9,228.7 L 429.7,228.7 L 435.4,228.5 L 441.2,228.3 L 447.0,228.3 L 452.7,228.3 L 458.5,227.9 L 464.3,227.9 L 470.0,226.7 L 475.8,226.5 L 481.6,226.3 L 487.3,226.3 L 493.1,225.9 L 498.9,225.7 L 504.6,225.7 L 510.4,225.5 L 516.2,225.5 L 522.0,225.5 L 527.7,225.1 L 533.5,224.9 L 539.3,224.0 L 545.0,224.2 L 550.8,224.0 L 556.6,223.8 L 562.3,223.8 L 568.1,223.6 L 573.9,223.0 L 579.6,223.0 L 585.4,223.0 L 591.2,223.0 L 596.9,222.6 L 602.7,222.6 L 608.5,222.2 L 614.2,221.8 L 620.0,221.0 L 625.8,221.0 L 631.6,220.6 L 637.3,220.4 L 643.1,220.2 L 648.9,220.0 L 654.6,219.6 L 660.4,219.6 L 666.2,219.1 L 671.9,219.1 L 677.7,218.9 L 683.5,218.5 L 689.2,218.3 L 695.0,218.3 L 700.8,218.3 L 706.5,218.3 L 712.3,218.3 L 718.1,217.7 L 723.9,217.7 L 729.6,217.3 L 735.4,216.9 L 741.2,216.3 L 746.9,216.1 L 752.7,216.1 L 758.5,214.9 L 764.2,214.7 L 770.0,214.7" fill="none" stroke="#BF5AF2" stroke-width="2.5" stroke-linejoin="round" clip-path="url(#ca)"/>
<path d="M 72.0,340 L 72.0,291.4 L 77.8,290.8 L 83.5,290.8 L 89.3,290.8 L 95.1,290.6 L 100.8,290.2 L 106.6,290.0 L 112.4,289.7 L 118.1,289.7 L 123.9,289.5 L 129.7,289.3 L 135.5,289.3 L 141.2,289.3 L 147.0,289.3 L 152.8,289.3 L 158.5,289.3 L 164.3,288.9 L 170.1,288.9 L 175.8,289.1 L 181.6,288.5 L 187.4,288.7 L 193.1,288.1 L 198.9,287.5 L 204.7,287.3 L 210.4,287.5 L 216.2,287.5 L 222.0,286.9 L 227.8,286.7 L 233.5,286.7 L 239.3,286.3 L 245.1,286.1 L 250.8,285.7 L 256.6,285.7 L 262.4,285.5 L 268.1,284.9 L 273.9,284.3 L 279.7,283.9 L 285.4,283.9 L 291.2,283.9 L 297.0,283.8 L 302.7,283.4 L 308.5,283.4 L 314.3,283.2 L 320.0,282.6 L 325.8,282.4 L 331.6,282.4 L 337.4,282.4 L 343.1,282.4 L 348.9,282.2 L 354.7,281.6 L 360.4,281.4 L 366.2,281.2 L 372.0,281.0 L 377.7,281.0 L 383.5,280.8 L 389.3,280.8 L 395.0,280.8 L 400.8,280.2 L 406.6,280.2 L 412.3,280.2 L 418.1,279.8 L 423.9,279.2 L 429.7,279.2 L 435.4,279.0 L 441.2,278.8 L 447.0,278.8 L 452.7,278.8 L 458.5,278.4 L 464.3,278.4 L 470.0,277.3 L 475.8,277.1 L 481.6,276.9 L 487.3,276.9 L 493.1,276.7 L 498.9,276.7 L 504.6,276.7 L 510.4,276.7 L 516.2,276.7 L 522.0,276.7 L 527.7,276.3 L 533.5,276.1 L 539.3,275.1 L 545.0,275.3 L 550.8,275.3 L 556.6,275.1 L 562.3,275.1 L 568.1,275.1 L 573.9,274.7 L 579.6,274.7 L 585.4,274.7 L 591.2,274.7 L 596.9,274.7 L 602.7,274.7 L 608.5,274.5 L 614.2,274.5 L 620.0,273.7 L 625.8,273.7 L 631.6,273.5 L 637.3,273.3 L 643.1,273.1 L 648.9,272.9 L 654.6,272.5 L 660.4,272.5 L 666.2,272.0 L 671.9,272.0 L 677.7,271.8 L 683.5,271.6 L 689.2,271.6 L 695.0,271.6 L 700.8,271.6 L 706.5,271.6 L 712.3,271.6 L 718.1,271.0 L 723.9,271.0 L 729.6,270.6 L 735.4,270.2 L 741.2,269.6 L 746.9,269.4 L 752.7,269.4 L 758.5,268.4 L 764.2,268.2 L 770.0,268.2 L 770.0,340 Z" fill="url(#g4)" clip-path="url(#ca)"/>
<path d="M 72.0,291.4 L 77.8,290.8 L 83.5,290.8 L 89.3,290.8 L 95.1,290.6 L 100.8,290.2 L 106.6,290.0 L 112.4,289.7 L 118.1,289.7 L 123.9,289.5 L 129.7,289.3 L 135.5,289.3 L 141.2,289.3 L 147.0,289.3 L 152.8,289.3 L 158.5,289.3 L 164.3,288.9 L 170.1,288.9 L 175.8,289.1 L 181.6,288.5 L 187.4,288.7 L 193.1,288.1 L 198.9,287.5 L 204.7,287.3 L 210.4,287.5 L 216.2,287.5 L 222.0,286.9 L 227.8,286.7 L 233.5,286.7 L 239.3,286.3 L 245.1,286.1 L 250.8,285.7 L 256.6,285.7 L 262.4,285.5 L 268.1,284.9 L 273.9,284.3 L 279.7,283.9 L 285.4,283.9 L 291.2,283.9 L 297.0,283.8 L 302.7,283.4 L 308.5,283.4 L 314.3,283.2 L 320.0,282.6 L 325.8,282.4 L 331.6,282.4 L 337.4,282.4 L 343.1,282.4 L 348.9,282.2 L 354.7,281.6 L 360.4,281.4 L 366.2,281.2 L 372.0,281.0 L 377.7,281.0 L 383.5,280.8 L 389.3,280.8 L 395.0,280.8 L 400.8,280.2 L 406.6,280.2 L 412.3,280.2 L 418.1,279.8 L 423.9,279.2 L 429.7,279.2 L 435.4,279.0 L 441.2,278.8 L 447.0,278.8 L 452.7,278.8 L 458.5,278.4 L 464.3,278.4 L 470.0,277.3 L 475.8,277.1 L 481.6,276.9 L 487.3,276.9 L 493.1,276.7 L 498.9,276.7 L 504.6,276.7 L 510.4,276.7 L 516.2,276.7 L 522.0,276.7 L 527.7,276.3 L 533.5,276.1 L 539.3,275.1 L 545.0,275.3 L 550.8,275.3 L 556.6,275.1 L 562.3,275.1 L 568.1,275.1 L 573.9,274.7 L 579.6,274.7 L 585.4,274.7 L 591.2,274.7 L 596.9,274.7 L 602.7,274.7 L 608.5,274.5 L 614.2,274.5 L 620.0,273.7 L 625.8,273.7 L 631.6,273.5 L 637.3,273.3 L 643.1,273.1 L 648.9,272.9 L 654.6,272.5 L 660.4,272.5 L 666.2,272.0 L 671.9,272.0 L 677.7,271.8 L 683.5,271.6 L 689.2,271.6 L 695.0,271.6 L 700.8,271.6 L 706.5,271.6 L 712.3,271.6 L 718.1,271.0 L 723.9,271.0 L 729.6,270.6 L 735.4,270.2 L 741.2,269.6 L 746.9,269.4 L 752.7,269.4 L 758.5,268.4 L 764.2,268.2 L 770.0,268.2" fill="none" stroke="#34C759" stroke-width="2.5" stroke-linejoin="round" clip-path="url(#ca)"/>
<text x="103.7" y="55.0" text-anchor="middle" font-size="9" fill="#4F8EF7" opacity="0.85" clip-path="url(#ca)">+0.5% (+8)</text>
<text x="103.7" y="66.0" text-anchor="middle" font-size="9" fill="#BF5AF2" opacity="0.85" clip-path="url(#ca)">+1.0% (+10)</text>
<text x="103.7" y="77.0" text-anchor="middle" font-size="9" fill="#34C759" opacity="0.85" clip-path="url(#ca)">+1.5% (+11)</text>
<text x="213.3" y="55.0" text-anchor="middle" font-size="9" fill="#4F8EF7" opacity="0.85" clip-path="url(#ca)">+4.0% (+65)</text>
<text x="213.3" y="66.0" text-anchor="middle" font-size="9" fill="#BF5AF2" opacity="0.85" clip-path="url(#ca)">+3.5% (+35)</text>
<text x="213.3" y="77.0" text-anchor="middle" font-size="9" fill="#34C759" opacity="0.85" clip-path="url(#ca)">+3.6% (+27)</text>
<text x="366.2" y="55.0" text-anchor="middle" font-size="9" fill="#4F8EF7" opacity="0.85" clip-path="url(#ca)">+4.1% (+70)</text>
<text x="366.2" y="66.0" text-anchor="middle" font-size="9" fill="#BF5AF2" opacity="0.85" clip-path="url(#ca)">+3.5% (+36)</text>
<text x="366.2" y="77.0" text-anchor="middle" font-size="9" fill="#34C759" opacity="0.85" clip-path="url(#ca)">+3.3% (+26)</text>
<text x="522.0" y="55.0" text-anchor="middle" font-size="9" fill="#4F8EF7" opacity="0.85" clip-path="url(#ca)">+3.5% (+61)</text>
<text x="522.0" y="66.0" text-anchor="middle" font-size="9" fill="#BF5AF2" opacity="0.85" clip-path="url(#ca)">+2.7% (+29)</text>
<text x="522.0" y="77.0" text-anchor="middle" font-size="9" fill="#34C759" opacity="0.85" clip-path="url(#ca)">+2.6% (+21)</text>
<text x="677.7" y="55.0" text-anchor="middle" font-size="9" fill="#4F8EF7" opacity="0.85" clip-path="url(#ca)">+2.7% (+49)</text>
<text x="677.7" y="66.0" text-anchor="middle" font-size="9" fill="#BF5AF2" opacity="0.85" clip-path="url(#ca)">+3.0% (+33)</text>
<text x="677.7" y="77.0" text-anchor="middle" font-size="9" fill="#34C759" opacity="0.85" clip-path="url(#ca)">+3.2% (+27)</text>
<text x="764.2" y="55.0" text-anchor="middle" font-size="9" fill="#4F8EF7" opacity="0.85" clip-path="url(#ca)">+0.1% (+2)</text>
<text x="764.2" y="66.0" text-anchor="middle" font-size="9" fill="#BF5AF2" opacity="0.85" clip-path="url(#ca)">+0.1% (+1)</text>
<text x="764.2" y="77.0" text-anchor="middle" font-size="9" fill="#34C759" opacity="0.85" clip-path="url(#ca)">+0.1% (+1)</text>
<rect x="211" y="369" width="12" height="12" fill="#4F8EF7" rx="2"/>
<text x="227" y="379" font-size="12" fill="#111827">Authors</text>
<rect x="351" y="369" width="12" height="12" fill="#BF5AF2" rx="2"/>
<text x="367" y="379" font-size="12" fill="#111827">Contributors</text>
<rect x="491" y="369" width="12" height="12" fill="#34C759" rx="2"/>
<text x="507" y="379" font-size="12" fill="#111827">Non-author contributors</text>
<text x="72" y="394" font-size="8" fill="#e5e7eb">data since Dec 11, 2025</text>
</svg>