<svg xmlns="http://www.w3.org/2000/svg" width="800" height="400" viewBox="0 0 800 400">
<defs>
  <style>text { font-family: -apple-system, BlinkMacSystemFont, 'Segoe UI', Roboto, sans-serif; }</style>
  <linearGradient id="g5" x1="0" y1="0" x2="0" y2="1">
  <stop offset="0%" stop-color="#34C759" stop-opacity="0.25"/>
  <stop offset="100%" stop-color="#34C759" stop-opacity="0"/>
</linearGradient>
<linearGradient id="g6" x1="0" y1="0" x2="0" y2="1">
  <stop offset="0%" stop-color="#4F8EF7" stop-opacity="0.25"/>
  <stop offset="100%" stop-color="#4F8EF7" stop-opacity="0"/>
</linearGradient>
<linearGradient id="g7" x1="0" y1="0" x2="0" y2="1">
  <stop offset="0%" stop-color="#FF6363" stop-opacity="0.25"/>
  <stop offset="100%" stop-color="#FF6363" stop-opacity="0"/>
</linearGradient>
  <clipPath id="ca"><rect x="72" y="45" width="698" height="295"/></clipPath>
</defs>
<rect width="800" height="400" fill="#ffffff" rx="12"/>
<text x="400" y="26" text-anchor="middle" font-size="15" font-weight="600" fill="#111827">Platform Support Over Time</text>
<line x1="72" y1="340.0" x2="770" y2="340.0" stroke="#f3f4f6" stroke-width="1"/>
<text x="66" y="344.0" text-anchor="end" font-size="11" fill="#6b7280">0</text>
<line x1="72" y1="281.0" x2="770" y2="281.0" stroke="#f3f4f6" stroke-width="1"/>
<text x="66" y="285.0" text-anchor="end" font-size="11" fill="#6b7280">200</text>
<line x1="72" y1="222.0" x2="770" y2="222.0" stroke="#f3f4f6" stroke-width="1"/>
<text x="66" y="226.0" text-anchor="end" font-size="11" fill="#6b7280">400</text>
<line x1="72" y1="163.0" x2="770" y2="163.0" stroke="#f3f4f6" stroke-width="1"/>
<text x="66" y="167.0" text-anchor="end" font-size="11" fill="#6b7280">600</text>
<line x1="72" y1="104.0" x2="770" y2="104.0" stroke="#f3f4f6" stroke-width="1"/>
<text x="66" y="108.0" text-anchor="end" font-size="11" fill="#6b7280">800</text>
<line x1="72" y1="45.0" x2="770" y2="45.0" stroke="#f3f4f6" stroke-width="1"/>
<text x="66" y="49.0" text-anchor="end" font-size="11" fill="#6b7280">1.0k</text>
<line x1="135.9" y1="45" x2="135.9" y2="340" stroke="#e5e7eb" stroke-width="1" stroke-dasharray="3,3" clip-path="url(#ca)"/>
<line x1="274.5" y1="45" x2="274.5" y2="340" stroke="#e5e7eb" stroke-width="1" stroke-dasharray="3,3" clip-path="url(#ca)"/>
<line x1="418.3" y1="45" x2="418.3" y2="340" stroke="#e5e7eb" stroke-width="1" stroke-dasharray="3,3" clip-path="url(#ca)"/>
<line x1="562.2" y1="45" x2="562.2" y2="340" stroke="#e5e7eb" stroke-width="1" stroke-dasharray="3,3" clip-path="url(#ca)"/>
<line x1="706.1" y1="45" x2="706.1" y2="340" stroke="#e5e7eb" stroke-width="1" stroke-dasharray="3,3" clip-path="url(#ca)"/>
<text x="72.0" y="358.0" text-anchor="middle" font-size="11" fill="#6b7280">Dec 11</text>
<text x="210.5" y="358.0" text-anchor="middle" font-size="11" fill="#6b7280">Jan 20</text>
<text x="349.1" y="358.0" text-anchor="middle" font-size="11" fill="#6b7280">Feb 15</text>
<text x="492.9" y="358.0" text-anchor="middle" font-size="11" fill="#6b7280">Mar 16</text>
<text x="631.5" y="358.0" text-anchor="middle" font-size="11" fill="#6b7280">Apr 15</text>
<text x="770.0" y="358.0" text-anchor="middle" font-size="11" fill="#6b7280">May 18</text>
<line x1="72" y1="45" x2="72" y2="340" stroke="#e5e7eb" stroke-width="1"/>
<line x1="72" y1="340" x2="770" y2="340" stroke="#e5e7eb" stroke-width="1"/>
<text x="-192.5" y="18" text-anchor="middle" font-size="12" fill="#6b7280" transform="rotate(-90)">Extensions</text>
<path d="M 72.0,340 L 72.0,242.6 L 77.3,240.0 L 82.7,239.7 L 88.0,238.5 L 93.3,237.9 L 98.6,235.0 L 104.0,233.2 L 109.3,232.3 L 114.6,230.8 L 120.0,229.1 L 125.3,228.2 L 130.6,227.9 L 135.9,227.0 L 141.3,226.4 L 146.6,226.1 L 151.9,225.2 L 157.3,224.4 L 162.6,223.5 L 167.9,222.6 L 173.2,221.4 L 178.6,220.5 L 183.9,219.6 L 189.2,218.8 L 194.5,217.0 L 199.9,216.4 L 205.2,216.4 L 210.5,214.3 L 215.9,213.7 L 221.2,213.2 L 226.5,212.6 L 231.8,211.1 L 237.2,209.0 L 242.5,208.7 L 247.8,208.4 L 253.2,206.7 L 258.5,206.1 L 263.8,204.6 L 269.1,204.3 L 274.5,204.0 L 279.8,203.4 L 285.1,203.4 L 290.5,203.4 L 295.8,199.3 L 301.1,199.0 L 306.4,198.1 L 311.8,197.8 L 317.1,197.5 L 322.4,196.6 L 327.8,196.0 L 333.1,195.4 L 338.4,193.7 L 343.7,193.7 L 349.1,193.7 L 354.4,193.4 L 359.7,190.4 L 365.1,189.6 L 370.4,189.0 L 375.7,188.1 L 381.0,187.5 L 386.4,187.5 L 391.7,186.0 L 397.0,183.9 L 402.4,183.4 L 407.7,183.1 L 413.0,182.2 L 418.3,182.2 L 423.7,181.6 L 429.0,180.7 L 434.3,180.1 L 439.6,178.9 L 445.0,177.8 L 450.3,177.5 L 455.6,177.5 L 461.0,176.3 L 466.3,176.3 L 471.6,176.3 L 476.9,174.5 L 482.3,174.2 L 487.6,173.9 L 492.9,173.9 L 498.3,173.6 L 503.6,172.4 L 508.9,171.9 L 514.2,171.0 L 519.6,171.0 L 524.9,170.7 L 530.2,169.5 L 535.6,168.6 L 540.9,168.6 L 546.2,168.3 L 551.5,167.7 L 556.9,165.7 L 562.2,165.1 L 567.5,164.2 L 572.9,164.2 L 578.2,163.6 L 583.5,163.3 L 588.8,163.0 L 594.2,162.7 L 599.5,162.4 L 604.8,162.4 L 610.2,162.1 L 615.5,161.8 L 620.8,160.9 L 626.1,159.8 L 631.5,159.5 L 636.8,158.6 L 642.1,158.6 L 647.5,157.4 L 652.8,157.1 L 658.1,157.1 L 663.4,157.1 L 668.8,156.2 L 674.1,155.9 L 679.4,155.9 L 684.7,155.9 L 690.1,155.6 L 695.4,154.4 L 700.7,154.2 L 706.1,153.3 L 711.4,152.7 L 716.7,152.7 L 722.0,151.8 L 727.4,151.2 L 732.7,151.2 L 738.0,150.9 L 743.4,149.4 L 748.7,148.0 L 754.0,147.7 L 759.3,147.1 L 764.7,145.9 L 770.0,145.9 L 770.0,340 Z" fill="url(#g5)" clip-path="url(#ca)"/>
<path d="M 72.0,242.6 L 77.3,240.0 L 82.7,239.7 L 88.0,238.5 L 93.3,237.9 L 98.6,235.0 L 104.0,233.2 L 109.3,232.3 L 114.6,230.8 L 120.0,229.1 L 125.3,228.2 L 130.6,227.9 L 135.9,227.0 L 141.3,226.4 L 146.6,226.1 L 151.9,225.2 L 157.3,224.4 L 162.6,223.5 L 167.9,222.6 L 173.2,221.4 L 178.6,220.5 L 183.9,219.6 L 189.2,218.8 L 194.5,217.0 L 199.9,216.4 L 205.2,216.4 L 210.5,214.3 L 215.9,213.7 L 221.2,213.2 L 226.5,212.6 L 231.8,211.1 L 237.2,209.0 L 242.5,208.7 L 247.8,208.4 L 253.2,206.7 L 258.5,206.1 L 263.8,204.6 L 269.1,204.3 L 274.5,204.0 L 279.8,203.4 L 285.1,203.4 L 290.5,203.4 L 295.8,199.3 L 301.1,199.0 L 306.4,198.1 L 311.8,197.8 L 317.1,197.5 L 322.4,196.6 L 327.8,196.0 L 333.1,195.4 L 338.4,193.7 L 343.7,193.7 L 349.1,193.7 L 354.4,193.4 L 359.7,190.4 L 365.1,189.6 L 370.4,189.0 L 375.7,188.1 L 381.0,187.5 L 386.4,187.5 L 391.7,186.0 L 397.0,183.9 L 402.4,183.4 L 407.7,183.1 L 413.0,182.2 L 418.3,182.2 L 423.7,181.6 L 429.0,180.7 L 434.3,180.1 L 439.6,178.9 L 445.0,177.8 L 450.3,177.5 L 455.6,177.5 L 461.0,176.3 L 466.3,176.3 L 471.6,176.3 L 476.9,174.5 L 482.3,174.2 L 487.6,173.9 L 492.9,173.9 L 498.3,173.6 L 503.6,172.4 L 508.9,171.9 L 514.2,171.0 L 519.6,171.0 L 524.9,170.7 L 530.2,169.5 L 535.6,168.6 L 540.9,168.6 L 546.2,168.3 L 551.5,167.7 L 556.9,165.7 L 562.2,165.1 L 567.5,164.2 L 572.9,164.2 L 578.2,163.6 L 583.5,163.3 L 588.8,163.0 L 594.2,162.7 L 599.5,162.4 L 604.8,162.4 L 610.2,162.1 L 615.5,161.8 L 620.8,160.9 L 626.1,159.8 L 631.5,159.5 L 636.8,158.6 L 642.1,158.6 L 647.5,157.4 L 652.8,157.1 L 658.1,157.1 L 663.4,157.1 L 668.8,156.2 L 674.1,155.9 L 679.4,155.9 L 684.7,155.9 L 690.1,155.6 L 695.4,154.4 L 700.7,154.2 L 706.1,153.3 L 711.4,152.7 L 716.7,152.7 L 722.0,151.8 L 727.4,151.2 L 732.7,151.2 L 738.0,150.9 L 743.4,149.4 L 748.7,148.0 L 754.0,147.7 L 759.3,147.1 L 764.7,145.9 L 770.0,145.9" fill="none" stroke="#34C759" stroke-width="2.5" stroke-linejoin="round" clip-path="url(#ca)"/>
<path d="M 72.0,340 L 72.0,222.6 L 77.3,222.6 L 82.7,222.3 L 88.0,221.4 L 93.3,221.7 L 98.6,221.7 L 104.0,220.5 L 109.3,219.6 L 114.6,219.6 L 120.0,219.9 L 125.3,219.6 L 130.6,219.3 L 135.9,219.1 L 141.3,219.1 L 146.6,219.1 L 151.9,219.3 L 157.3,218.8 L 162.6,218.2 L 167.9,216.4 L 173.2,215.2 L 178.6,215.2 L 183.9,214.9 L 189.2,213.2 L 194.5,210.5 L 199.9,209.6 L 205.2,209.0 L 210.5,207.0 L 215.9,205.5 L 221.2,204.9 L 226.5,204.3 L 231.8,203.7 L 237.2,203.4 L 242.5,203.4 L 247.8,201.3 L 253.2,200.8 L 258.5,200.2 L 263.8,200.2 L 269.1,198.7 L 274.5,198.4 L 279.8,197.5 L 285.1,196.3 L 290.5,194.9 L 295.8,192.8 L 301.1,190.7 L 306.4,190.4 L 311.8,189.8 L 317.1,189.3 L 322.4,187.5 L 327.8,187.5 L 333.1,186.9 L 338.4,186.0 L 343.7,185.4 L 349.1,184.2 L 354.4,184.5 L 359.7,181.0 L 365.1,180.7 L 370.4,180.4 L 375.7,179.8 L 381.0,178.0 L 386.4,178.0 L 391.7,176.3 L 397.0,174.2 L 402.4,174.2 L 407.7,174.2 L 413.0,173.9 L 418.3,173.6 L 423.7,173.3 L 429.0,171.9 L 434.3,170.1 L 439.6,169.5 L 445.0,168.3 L 450.3,168.3 L 455.6,167.4 L 461.0,165.7 L 466.3,164.8 L 471.6,164.5 L 476.9,162.4 L 482.3,162.1 L 487.6,162.1 L 492.9,161.8 L 498.3,161.8 L 503.6,160.3 L 508.9,159.8 L 514.2,158.9 L 519.6,158.6 L 524.9,158.0 L 530.2,155.6 L 535.6,152.4 L 540.9,152.1 L 546.2,151.5 L 551.5,151.2 L 556.9,149.7 L 562.2,118.5 L 567.5,117.9 L 572.9,116.4 L 578.2,116.4 L 583.5,116.4 L 588.8,116.7 L 594.2,116.4 L 599.5,114.6 L 604.8,114.0 L 610.2,113.7 L 615.5,113.4 L 620.8,112.3 L 626.1,110.5 L 631.5,110.5 L 636.8,110.5 L 642.1,110.2 L 647.5,109.9 L 652.8,109.9 L 658.1,109.3 L 663.4,108.4 L 668.8,106.9 L 674.1,106.4 L 679.4,106.1 L 684.7,106.1 L 690.1,105.8 L 695.4,105.2 L 700.7,104.9 L 706.1,103.4 L 711.4,103.4 L 716.7,102.8 L 722.0,101.6 L 727.4,100.2 L 732.7,99.9 L 738.0,99.6 L 743.4,96.9 L 748.7,96.3 L 754.0,95.7 L 759.3,95.7 L 764.7,94.6 L 770.0,94.0 L 770.0,340 Z" fill="url(#g6)" clip-path="url(#ca)"/>
<path d="M 72.0,222.6 L 77.3,222.6 L 82.7,222.3 L 88.0,221.4 L 93.3,221.7 L 98.6,221.7 L 104.0,220.5 L 109.3,219.6 L 114.6,219.6 L 120.0,219.9 L 125.3,219.6 L 130.6,219.3 L 135.9,219.1 L 141.3,219.1 L 146.6,219.1 L 151.9,219.3 L 157.3,218.8 L 162.6,218.2 L 167.9,216.4 L 173.2,215.2 L 178.6,215.2 L 183.9,214.9 L 189.2,213.2 L 194.5,210.5 L 199.9,209.6 L 205.2,209.0 L 210.5,207.0 L 215.9,205.5 L 221.2,204.9 L 226.5,204.3 L 231.8,203.7 L 237.2,203.4 L 242.5,203.4 L 247.8,201.3 L 253.2,200.8 L 258.5,200.2 L 263.8,200.2 L 269.1,198.7 L 274.5,198.4 L 279.8,197.5 L 285.1,196.3 L 290.5,194.9 L 295.8,192.8 L 301.1,190.7 L 306.4,190.4 L 311.8,189.8 L 317.1,189.3 L 322.4,187.5 L 327.8,187.5 L 333.1,186.9 L 338.4,186.0 L 343.7,185.4 L 349.1,184.2 L 354.4,184.5 L 359.7,181.0 L 365.1,180.7 L 370.4,180.4 L 375.7,179.8 L 381.0,178.0 L 386.4,178.0 L 391.7,176.3 L 397.0,174.2 L 402.4,174.2 L 407.7,174.2 L 413.0,173.9 L 418.3,173.6 L 423.7,173.3 L 429.0,171.9 L 434.3,170.1 L 439.6,169.5 L 445.0,168.3 L 450.3,168.3 L 455.6,167.4 L 461.0,165.7 L 466.3,164.8 L 471.6,164.5 L 476.9,162.4 L 482.3,162.1 L 487.6,162.1 L 492.9,161.8 L 498.3,161.8 L 503.6,160.3 L 508.9,159.8 L 514.2,158.9 L 519.6,158.6 L 524.9,158.0 L 530.2,155.6 L 535.6,152.4 L 540.9,152.1 L 546.2,151.5 L 551.5,151.2 L 556.9,149.7 L 562.2,118.5 L 567.5,117.9 L 572.9,116.4 L 578.2,116.4 L 583.5,116.4 L 588.8,116.7 L 594.2,116.4 L 599.5,114.6 L 604.8,114.0 L 610.2,113.7 L 615.5,113.4 L 620.8,112.3 L 626.1,110.5 L 631.5,110.5 L 636.8,110.5 L 642.1,110.2 L 647.5,109.9 L 652.8,109.9 L 658.1,109.3 L 663.4,108.4 L 668.8,106.9 L 674.1,106.4 L 679.4,106.1 L 684.7,106.1 L 690.1,105.8 L 695.4,105.2 L 700.7,104.9 L 706.1,103.4 L 711.4,103.4 L 716.7,102.8 L 722.0,101.6 L 727.4,100.2 L 732.7,99.9 L 738.0,99.6 L 743.4,96.9 L 748.7,96.3 L 754.0,95.7 L 759.3,95.7 L 764.7,94.6 L 770.0,94.0" fill="none" stroke="#4F8EF7" stroke-width="2.5" stroke-linejoin="round" clip-path="url(#ca)"/>
<path d="M 72.0,340 L 72.0,338.2 L 77.3,337.9 L 82.7,337.9 L 88.0,337.6 L 93.3,337.6 L 98.6,337.6 L 104.0,337.6 L 109.3,337.6 L 114.6,337.1 L 120.0,337.1 L 125.3,337.1 L 130.6,337.1 L 135.9,337.1 L 141.3,336.8 L 146.6,336.8 L 151.9,336.8 L 157.3,336.8 L 162.6,336.8 L 167.9,336.5 L 173.2,335.9 L 178.6,335.6 L 183.9,335.6 L 189.2,335.6 L 194.5,335.3 L 199.9,335.3 L 205.2,335.3 L 210.5,335.0 L 215.9,335.0 L 221.2,335.0 L 226.5,334.7 L 231.8,334.7 L 237.2,334.7 L 242.5,334.7 L 247.8,334.4 L 253.2,334.4 L 258.5,334.4 L 263.8,334.4 L 269.1,334.4 L 274.5,334.4 L 279.8,334.4 L 285.1,334.4 L 290.5,334.4 L 295.8,334.4 L 301.1,334.4 L 306.4,334.4 L 311.8,334.4 L 317.1,334.1 L 322.4,334.1 L 327.8,334.1 L 333.1,334.1 L 338.4,334.1 L 343.7,334.1 L 349.1,334.1 L 354.4,334.1 L 359.7,334.1 L 365.1,334.1 L 370.4,334.1 L 375.7,334.1 L 381.0,333.8 L 386.4,333.8 L 391.7,333.8 L 397.0,333.8 L 402.4,333.8 L 407.7,333.8 L 413.0,333.8 L 418.3,333.8 L 423.7,333.8 L 429.0,333.8 L 434.3,333.8 L 439.6,333.8 L 445.0,333.8 L 450.3,333.8 L 455.6,333.8 L 461.0,333.8 L 466.3,333.8 L 471.6,333.8 L 476.9,333.8 L 482.3,333.8 L 487.6,333.8 L 492.9,333.8 L 498.3,333.8 L 503.6,333.8 L 508.9,333.8 L 514.2,333.8 L 519.6,333.8 L 524.9,333.8 L 530.2,333.8 L 535.6,333.8 L 540.9,333.8 L 546.2,333.8 L 551.5,333.8 L 556.9,333.8 L 562.2,333.8 L 567.5,333.8 L 572.9,333.5 L 578.2,333.5 L 583.5,333.5 L 588.8,333.5 L 594.2,333.5 L 599.5,333.2 L 604.8,333.2 L 610.2,333.2 L 615.5,333.2 L 620.8,332.9 L 626.1,332.9 L 631.5,332.6 L 636.8,332.6 L 642.1,332.6 L 647.5,332.6 L 652.8,332.6 L 658.1,332.6 L 663.4,332.6 L 668.8,332.6 L 674.1,332.6 L 679.4,332.6 L 684.7,332.6 L 690.1,332.6 L 695.4,332.6 L 700.7,332.6 L 706.1,332.6 L 711.4,332.6 L 716.7,332.6 L 722.0,332.6 L 727.4,332.6 L 732.7,332.6 L 738.0,332.6 L 743.4,332.6 L 748.7,332.6 L 754.0,332.6 L 759.3,332.6 L 764.7,332.6 L 770.0,332.6 L 770.0,340 Z" fill="url(#g7)" clip-path="url(#ca)"/>
<path d="M 72.0,338.2 L 77.3,337.9 L 82.7,337.9 L 88.0,337.6 L 93.3,337.6 L 98.6,337.6 L 104.0,337.6 L 109.3,337.6 L 114.6,337.1 L 120.0,337.1 L 125.3,337.1 L 130.6,337.1 L 135.9,337.1 L 141.3,336.8 L 146.6,336.8 L 151.9,336.8 L 157.3,336.8 L 162.6,336.8 L 167.9,336.5 L 173.2,335.9 L 178.6,335.6 L 183.9,335.6 L 189.2,335.6 L 194.5,335.3 L 199.9,335.3 L 205.2,335.3 L 210.5,335.0 L 215.9,335.0 L 221.2,335.0 L 226.5,334.7 L 231.8,334.7 L 237.2,334.7 L 242.5,334.7 L 247.8,334.4 L 253.2,334.4 L 258.5,334.4 L 263.8,334.4 L 269.1,334.4 L 274.5,334.4 L 279.8,334.4 L 285.1,334.4 L 290.5,334.4 L 295.8,334.4 L 301.1,334.4 L 306.4,334.4 L 311.8,334.4 L 317.1,334.1 L 322.4,334.1 L 327.8,334.1 L 333.1,334.1 L 338.4,334.1 L 343.7,334.1 L 349.1,334.1 L 354.4,334.1 L 359.7,334.1 L 365.1,334.1 L 370.4,334.1 L 375.7,334.1 L 381.0,333.8 L 386.4,333.8 L 391.7,333.8 L 397.0,333.8 L 402.4,333.8 L 407.7,333.8 L 413.0,333.8 L 418.3,333.8 L 423.7,333.8 L 429.0,333.8 L 434.3,333.8 L 439.6,333.8 L 445.0,333.8 L 450.3,333.8 L 455.6,333.8 L 461.0,333.8 L 466.3,333.8 L 471.6,333.8 L 476.9,333.8 L 482.3,333.8 L 487.6,333.8 L 492.9,333.8 L 498.3,333.8 L 503.6,333.8 L 508.9,333.8 L 514.2,333.8 L 519.6,333.8 L 524.9,333.8 L 530.2,333.8 L 535.6,333.8 L 540.9,333.8 L 546.2,333.8 L 551.5,333.8 L 556.9,333.8 L 562.2,333.8 L 567.5,333.8 L 572.9,333.5 L 578.2,333.5 L 583.5,333.5 L 588.8,333.5 L 594.2,333.5 L 599.5,333.2 L 604.8,333.2 L 610.2,333.2 L 615.5,333.2 L 620.8,332.9 L 626.1,332.9 L 631.5,332.6 L 636.8,332.6 L 642.1,332.6 L 647.5,332.6 L 652.8,332.6 L 658.1,332.6 L 663.4,332.6 L 668.8,332.6 L 674.1,332.6 L 679.4,332.6 L 684.7,332.6 L 690.1,332.6 L 695.4,332.6 L 700.7,332.6 L 706.1,332.6 L 711.4,332.6 L 716.7,332.6 L 722.0,332.6 L 727.4,332.6 L 732.7,332.6 L 738.0,332.6 L 743.4,332.6 L 748.7,332.6 L 754.0,332.6 L 759.3,332.6 L 764.7,332.6 L 770.0,332.6" fill="none" stroke="#FF6363" stroke-width="2.5" stroke-linejoin="round" clip-path="url(#ca)"/>
<text x="101.3" y="55.0" text-anchor="middle" font-size="9" fill="#34C759" opacity="0.85" clip-path="url(#ca)">+15.2% (+50)</text>
<text x="101.3" y="66.0" text-anchor="middle" font-size="9" fill="#4F8EF7" opacity="0.85" clip-path="url(#ca)">+2.8% (+11)</text>
<text x="101.3" y="77.0" text-anchor="middle" font-size="9" fill="#FF6363" opacity="0.85" clip-path="url(#ca)">+66.7% (+4)</text>
<text x="202.5" y="55.0" text-anchor="middle" font-size="9" fill="#34C759" opacity="0.85" clip-path="url(#ca)">+20.1% (+77)</text>
<text x="202.5" y="66.0" text-anchor="middle" font-size="9" fill="#4F8EF7" opacity="0.85" clip-path="url(#ca)">+16.8% (+69)</text>
<text x="202.5" y="77.0" text-anchor="middle" font-size="9" fill="#FF6363" opacity="0.85" clip-path="url(#ca)">+90.0% (+9)</text>
<text x="343.7" y="55.0" text-anchor="middle" font-size="9" fill="#34C759" opacity="0.85" clip-path="url(#ca)">+16.1% (+74)</text>
<text x="343.7" y="66.0" text-anchor="middle" font-size="9" fill="#4F8EF7" opacity="0.85" clip-path="url(#ca)">+17.3% (+83)</text>
<text x="343.7" y="77.0" text-anchor="middle" font-size="9" fill="#FF6363" opacity="0.85" clip-path="url(#ca)">+10.5% (+2)</text>
<text x="487.6" y="55.0" text-anchor="middle" font-size="9" fill="#34C759" opacity="0.85" clip-path="url(#ca)">+10.5% (+56)</text>
<text x="487.6" y="66.0" text-anchor="middle" font-size="9" fill="#4F8EF7" opacity="0.85" clip-path="url(#ca)">+14.4% (+81)</text>
<text x="487.6" y="77.0" text-anchor="middle" font-size="9" fill="#FF6363" opacity="0.85" clip-path="url(#ca)">+0.0% (+0)</text>
<text x="631.5" y="55.0" text-anchor="middle" font-size="9" fill="#34C759" opacity="0.85" clip-path="url(#ca)">+6.2% (+37)</text>
<text x="631.5" y="66.0" text-anchor="middle" font-size="9" fill="#4F8EF7" opacity="0.85" clip-path="url(#ca)">+6.1% (+46)</text>
<text x="631.5" y="77.0" text-anchor="middle" font-size="9" fill="#FF6363" opacity="0.85" clip-path="url(#ca)">+19.0% (+4)</text>
<text x="738.0" y="55.0" text-anchor="middle" font-size="9" fill="#34C759" opacity="0.85" clip-path="url(#ca)">+3.9% (+25)</text>
<text x="738.0" y="66.0" text-anchor="middle" font-size="9" fill="#4F8EF7" opacity="0.85" clip-path="url(#ca)">+4.0% (+32)</text>
<text x="738.0" y="77.0" text-anchor="middle" font-size="9" fill="#FF6363" opacity="0.85" clip-path="url(#ca)">+0.0% (+0)</text>
<rect x="211" y="369" width="12" height="12" fill="#34C759" rx="2"/>
<text x="227" y="379" font-size="12" fill="#111827">macOS + Windows</text>
<rect x="351" y="369" width="12" height="12" fill="#4F8EF7" rx="2"/>
<text x="367" y="379" font-size="12" fill="#111827">macOS only</text>
<rect x="491" y="369" width="12" height="12" fill="#FF6363" rx="2"/>
<text x="507" y="379" font-size="12" fill="#111827">Windows only</text>
<text x="72" y="394" font-size="8" fill="#e5e7eb">data since Dec 11, 2025</text>
</svg>