<svg xmlns="http://www.w3.org/2000/svg" width="800" height="400" viewBox="0 0 800 400">
<defs>
  <style>text { font-family: -apple-system, BlinkMacSystemFont, 'Segoe UI', Roboto, sans-serif; }</style>
  <linearGradient id="g2" x1="0" y1="0" x2="0" y2="1">
  <stop offset="0%" stop-color="#4F8EF7" stop-opacity="0.25"/>
  <stop offset="100%" stop-color="#4F8EF7" stop-opacity="0"/>
</linearGradient>
<linearGradient id="g3" x1="0" y1="0" x2="0" y2="1">
  <stop offset="0%" stop-color="#BF5AF2" stop-opacity="0.25"/>
  <stop offset="100%" stop-color="#BF5AF2" stop-opacity="0"/>
</linearGradient>
  <clipPath id="ca"><rect x="72" y="45" width="698" height="295"/></clipPath>
</defs>
<rect width="800" height="400" fill="#ffffff" rx="12"/>
<text x="400" y="26" text-anchor="middle" font-size="15" font-weight="600" fill="#111827">Community Growth Over Time</text>
<line x1="72" y1="340.0" x2="770" y2="340.0" stroke="#f3f4f6" stroke-width="1"/>
<text x="66" y="344.0" text-anchor="end" font-size="11" fill="#6b7280">908</text>
<line x1="72" y1="281.0" x2="770" y2="281.0" stroke="#f3f4f6" stroke-width="1"/>
<text x="66" y="285.0" text-anchor="end" font-size="11" fill="#6b7280">1.1k</text>
<line x1="72" y1="222.0" x2="770" y2="222.0" stroke="#f3f4f6" stroke-width="1"/>
<text x="66" y="226.0" text-anchor="end" font-size="11" fill="#6b7280">1.3k</text>
<line x1="72" y1="163.0" x2="770" y2="163.0" stroke="#f3f4f6" stroke-width="1"/>
<text x="66" y="167.0" text-anchor="end" font-size="11" fill="#6b7280">1.5k</text>
<line x1="72" y1="104.0" x2="770" y2="104.0" stroke="#f3f4f6" stroke-width="1"/>
<text x="66" y="108.0" text-anchor="end" font-size="11" fill="#6b7280">1.7k</text>
<line x1="72" y1="45.0" x2="770" y2="45.0" stroke="#f3f4f6" stroke-width="1"/>
<text x="66" y="49.0" text-anchor="end" font-size="11" fill="#6b7280">1.9k</text>
<line x1="185.2" y1="45" x2="185.2" y2="340" stroke="#e5e7eb" stroke-width="1" stroke-dasharray="3,3" clip-path="url(#ca)"/>
<line x1="430.4" y1="45" x2="430.4" y2="340" stroke="#e5e7eb" stroke-width="1" stroke-dasharray="3,3" clip-path="url(#ca)"/>
<line x1="685.1" y1="45" x2="685.1" y2="340" stroke="#e5e7eb" stroke-width="1" stroke-dasharray="3,3" clip-path="url(#ca)"/>
<text x="72.0" y="358.0" text-anchor="middle" font-size="11" fill="#6b7280">Dec 11</text>
<text x="213.5" y="358.0" text-anchor="middle" font-size="11" fill="#6b7280">Jan 6</text>
<text x="355.0" y="358.0" text-anchor="middle" font-size="11" fill="#6b7280">Jan 24</text>
<text x="487.0" y="358.0" text-anchor="middle" font-size="11" fill="#6b7280">Feb 7</text>
<text x="628.5" y="358.0" text-anchor="middle" font-size="11" fill="#6b7280">Feb 22</text>
<text x="770.0" y="358.0" text-anchor="middle" font-size="11" fill="#6b7280">Mar 11</text>
<line x1="72" y1="45" x2="72" y2="340" stroke="#e5e7eb" stroke-width="1"/>
<line x1="72" y1="340" x2="770" y2="340" stroke="#e5e7eb" stroke-width="1"/>
<text x="-192.5" y="18" text-anchor="middle" font-size="12" fill="#6b7280" transform="rotate(-90)">People</text>
<path d="M 72.0,340 L 72.0,119.8 L 81.4,119.8 L 90.9,119.8 L 100.3,118.9 L 109.7,118.9 L 119.2,118.3 L 128.6,117.9 L 138.0,118.3 L 147.5,117.3 L 156.9,117.3 L 166.3,117.3 L 175.8,117.3 L 185.2,117.3 L 194.6,117.3 L 204.1,117.3 L 213.5,117.3 L 222.9,117.0 L 232.4,116.1 L 241.8,114.2 L 251.2,113.3 L 260.6,113.0 L 270.1,113.0 L 279.5,112.1 L 288.9,109.9 L 298.4,108.6 L 307.8,108.6 L 317.2,107.1 L 326.7,106.5 L 336.1,105.2 L 345.5,104.3 L 355.0,103.4 L 364.4,102.4 L 373.8,102.4 L 383.3,100.3 L 392.7,99.0 L 402.1,99.0 L 411.6,97.8 L 421.0,97.2 L 430.4,96.9 L 439.9,96.6 L 449.3,96.6 L 458.7,95.6 L 468.2,91.9 L 477.6,89.7 L 487.0,88.5 L 496.5,88.2 L 505.9,87.6 L 515.3,86.3 L 524.8,85.7 L 534.2,85.1 L 543.6,84.5 L 553.1,83.8 L 562.5,83.2 L 571.9,83.2 L 581.4,80.1 L 590.8,80.1 L 600.2,79.8 L 609.6,79.5 L 619.1,78.9 L 628.5,78.9 L 637.9,77.3 L 647.4,75.5 L 656.8,74.9 L 666.2,75.5 L 675.7,75.2 L 685.1,74.9 L 694.5,74.9 L 704.0,74.2 L 713.4,73.0 L 722.8,72.4 L 732.3,71.8 L 741.7,71.4 L 751.1,71.4 L 760.6,70.2 L 770.0,69.6 L 770.0,340 Z" fill="url(#g2)" clip-path="url(#ca)"/>
<path d="M 72.0,119.8 L 81.4,119.8 L 90.9,119.8 L 100.3,118.9 L 109.7,118.9 L 119.2,118.3 L 128.6,117.9 L 138.0,118.3 L 147.5,117.3 L 156.9,117.3 L 166.3,117.3 L 175.8,117.3 L 185.2,117.3 L 194.6,117.3 L 204.1,117.3 L 213.5,117.3 L 222.9,117.0 L 232.4,116.1 L 241.8,114.2 L 251.2,113.3 L 260.6,113.0 L 270.1,113.0 L 279.5,112.1 L 288.9,109.9 L 298.4,108.6 L 307.8,108.6 L 317.2,107.1 L 326.7,106.5 L 336.1,105.2 L 345.5,104.3 L 355.0,103.4 L 364.4,102.4 L 373.8,102.4 L 383.3,100.3 L 392.7,99.0 L 402.1,99.0 L 411.6,97.8 L 421.0,97.2 L 430.4,96.9 L 439.9,96.6 L 449.3,96.6 L 458.7,95.6 L 468.2,91.9 L 477.6,89.7 L 487.0,88.5 L 496.5,88.2 L 505.9,87.6 L 515.3,86.3 L 524.8,85.7 L 534.2,85.1 L 543.6,84.5 L 553.1,83.8 L 562.5,83.2 L 571.9,83.2 L 581.4,80.1 L 590.8,80.1 L 600.2,79.8 L 609.6,79.5 L 619.1,78.9 L 628.5,78.9 L 637.9,77.3 L 647.4,75.5 L 656.8,74.9 L 666.2,75.5 L 675.7,75.2 L 685.1,74.9 L 694.5,74.9 L 704.0,74.2 L 713.4,73.0 L 722.8,72.4 L 732.3,71.8 L 741.7,71.4 L 751.1,71.4 L 760.6,70.2 L 770.0,69.6" fill="none" stroke="#4F8EF7" stroke-width="2.5" stroke-linejoin="round" clip-path="url(#ca)"/>
<path d="M 72.0,340 L 72.0,315.4 L 81.4,314.5 L 90.9,314.5 L 100.3,314.5 L 109.7,314.2 L 119.2,313.6 L 128.6,313.2 L 138.0,312.9 L 147.5,312.9 L 156.9,312.6 L 166.3,312.3 L 175.8,312.3 L 185.2,312.3 L 194.6,312.3 L 204.1,312.3 L 213.5,312.3 L 222.9,311.7 L 232.4,311.7 L 241.8,311.7 L 251.2,310.5 L 260.6,310.1 L 270.1,309.5 L 279.5,308.3 L 288.9,308.0 L 298.4,308.0 L 307.8,308.0 L 317.2,307.0 L 326.7,306.4 L 336.1,306.4 L 345.5,305.8 L 355.0,305.5 L 364.4,304.9 L 373.8,304.9 L 383.3,304.6 L 392.7,303.3 L 402.1,302.4 L 411.6,301.8 L 421.0,301.5 L 430.4,301.5 L 439.9,301.2 L 449.3,300.5 L 458.7,300.5 L 468.2,300.2 L 477.6,299.3 L 487.0,298.7 L 496.5,298.7 L 505.9,298.7 L 515.3,298.7 L 524.8,298.4 L 534.2,297.4 L 543.6,296.8 L 553.1,296.5 L 562.5,296.2 L 571.9,295.9 L 581.4,295.6 L 590.8,295.3 L 600.2,295.0 L 609.6,294.0 L 619.1,293.7 L 628.5,293.4 L 637.9,292.2 L 647.4,290.9 L 656.8,290.9 L 666.2,290.6 L 675.7,290.3 L 685.1,290.3 L 694.5,290.3 L 704.0,289.7 L 713.4,289.7 L 722.8,287.8 L 732.3,287.5 L 741.7,287.2 L 751.1,287.2 L 760.6,286.6 L 770.0,286.3 L 770.0,340 Z" fill="url(#g3)" clip-path="url(#ca)"/>
<path d="M 72.0,315.4 L 81.4,314.5 L 90.9,314.5 L 100.3,314.5 L 109.7,314.2 L 119.2,313.6 L 128.6,313.2 L 138.0,312.9 L 147.5,312.9 L 156.9,312.6 L 166.3,312.3 L 175.8,312.3 L 185.2,312.3 L 194.6,312.3 L 204.1,312.3 L 213.5,312.3 L 222.9,311.7 L 232.4,311.7 L 241.8,311.7 L 251.2,310.5 L 260.6,310.1 L 270.1,309.5 L 279.5,308.3 L 288.9,308.0 L 298.4,308.0 L 307.8,308.0 L 317.2,307.0 L 326.7,306.4 L 336.1,306.4 L 345.5,305.8 L 355.0,305.5 L 364.4,304.9 L 373.8,304.9 L 383.3,304.6 L 392.7,303.3 L 402.1,302.4 L 411.6,301.8 L 421.0,301.5 L 430.4,301.5 L 439.9,301.2 L 449.3,300.5 L 458.7,300.5 L 468.2,300.2 L 477.6,299.3 L 487.0,298.7 L 496.5,298.7 L 505.9,298.7 L 515.3,298.7 L 524.8,298.4 L 534.2,297.4 L 543.6,296.8 L 553.1,296.5 L 562.5,296.2 L 571.9,295.9 L 581.4,295.6 L 590.8,295.3 L 600.2,295.0 L 609.6,294.0 L 619.1,293.7 L 628.5,293.4 L 637.9,292.2 L 647.4,290.9 L 656.8,290.9 L 666.2,290.6 L 675.7,290.3 L 685.1,290.3 L 694.5,290.3 L 704.0,289.7 L 713.4,289.7 L 722.8,287.8 L 732.3,287.5 L 741.7,287.2 L 751.1,287.2 L 760.6,286.6 L 770.0,286.3" fill="none" stroke="#BF5AF2" stroke-width="2.5" stroke-linejoin="round" clip-path="url(#ca)"/>
<text x="123.9" y="55.0" text-anchor="middle" font-size="9" fill="#4F8EF7" opacity="0.85" clip-path="url(#ca)">+0.5%</text>
<text x="123.9" y="66.0" text-anchor="middle" font-size="9" fill="#BF5AF2" opacity="0.85" clip-path="url(#ca)">+1.0%</text>
<text x="303.1" y="55.0" text-anchor="middle" font-size="9" fill="#4F8EF7" opacity="0.85" clip-path="url(#ca)">+4.0%</text>
<text x="303.1" y="66.0" text-anchor="middle" font-size="9" fill="#BF5AF2" opacity="0.85" clip-path="url(#ca)">+3.5%</text>
<text x="553.1" y="55.0" text-anchor="middle" font-size="9" fill="#4F8EF7" opacity="0.85" clip-path="url(#ca)">+4.1%</text>
<text x="553.1" y="66.0" text-anchor="middle" font-size="9" fill="#BF5AF2" opacity="0.85" clip-path="url(#ca)">+3.5%</text>
<text x="727.6" y="55.0" text-anchor="middle" font-size="9" fill="#4F8EF7" opacity="0.85" clip-path="url(#ca)">+1.0%</text>
<text x="727.6" y="66.0" text-anchor="middle" font-size="9" fill="#BF5AF2" opacity="0.85" clip-path="url(#ca)">+1.2%</text>
<rect x="281" y="369" width="12" height="12" fill="#4F8EF7" rx="2"/>
<text x="297" y="379" font-size="12" fill="#111827">Authors</text>
<rect x="421" y="369" width="12" height="12" fill="#BF5AF2" rx="2"/>
<text x="437" y="379" font-size="12" fill="#111827">Contributors</text>
<text x="72" y="394" font-size="8" fill="#e5e7eb">data since Dec 11, 2025</text>
</svg>