<svg xmlns="http://www.w3.org/2000/svg" width="800" height="400" viewBox="0 0 800 400">
<defs>
  <style>text { font-family: -apple-system, BlinkMacSystemFont, 'Segoe UI', Roboto, sans-serif; }</style>
  <linearGradient id="g1" x1="0" y1="0" x2="0" y2="1">
  <stop offset="0%" stop-color="#FF6363" stop-opacity="0.25"/>
  <stop offset="100%" stop-color="#FF6363" stop-opacity="0"/>
</linearGradient>
  <clipPath id="ca"><rect x="72" y="45" width="698" height="295"/></clipPath>
</defs>
<rect width="800" height="400" fill="#ffffff" rx="12"/>
<text x="400" y="26" text-anchor="middle" font-size="15" font-weight="600" fill="#111827">Packages Growth Over Time</text>
<line x1="72" y1="340.0" x2="770" y2="340.0" stroke="#f3f4f6" stroke-width="1"/>
<text x="66" y="344.0" text-anchor="end" font-size="11" fill="#6b7280">2.4k</text>
<line x1="72" y1="241.7" x2="770" y2="241.7" stroke="#f3f4f6" stroke-width="1"/>
<text x="66" y="245.7" text-anchor="end" font-size="11" fill="#6b7280">2.6k</text>
<line x1="72" y1="143.3" x2="770" y2="143.3" stroke="#f3f4f6" stroke-width="1"/>
<text x="66" y="147.3" text-anchor="end" font-size="11" fill="#6b7280">2.8k</text>
<line x1="72" y1="45.0" x2="770" y2="45.0" stroke="#f3f4f6" stroke-width="1"/>
<text x="66" y="49.0" text-anchor="end" font-size="11" fill="#6b7280">3.0k</text>
<line x1="125.7" y1="45" x2="125.7" y2="340" stroke="#e5e7eb" stroke-width="1" stroke-dasharray="3,3" clip-path="url(#ca)"/>
<line x1="242.0" y1="45" x2="242.0" y2="340" stroke="#e5e7eb" stroke-width="1" stroke-dasharray="3,3" clip-path="url(#ca)"/>
<line x1="362.8" y1="45" x2="362.8" y2="340" stroke="#e5e7eb" stroke-width="1" stroke-dasharray="3,3" clip-path="url(#ca)"/>
<line x1="483.6" y1="45" x2="483.6" y2="340" stroke="#e5e7eb" stroke-width="1" stroke-dasharray="3,3" clip-path="url(#ca)"/>
<line x1="604.4" y1="45" x2="604.4" y2="340" stroke="#e5e7eb" stroke-width="1" stroke-dasharray="3,3" clip-path="url(#ca)"/>
<line x1="720.8" y1="45" x2="720.8" y2="340" stroke="#e5e7eb" stroke-width="1" stroke-dasharray="3,3" clip-path="url(#ca)"/>
<text x="72.0" y="358.0" text-anchor="middle" font-size="11" fill="#6b7280">Dec 11</text>
<text x="210.7" y="358.0" text-anchor="middle" font-size="11" fill="#6b7280">Jan 25</text>
<text x="349.4" y="358.0" text-anchor="middle" font-size="11" fill="#6b7280">Feb 26</text>
<text x="492.6" y="358.0" text-anchor="middle" font-size="11" fill="#6b7280">Apr 3</text>
<text x="631.3" y="358.0" text-anchor="middle" font-size="11" fill="#6b7280">May 10</text>
<text x="770.0" y="358.0" text-anchor="middle" font-size="11" fill="#6b7280">Jun 16</text>
<line x1="72" y1="45" x2="72" y2="340" stroke="#e5e7eb" stroke-width="1"/>
<line x1="72" y1="340" x2="770" y2="340" stroke="#e5e7eb" stroke-width="1"/>
<text x="-192.5" y="18" text-anchor="middle" font-size="12" fill="#6b7280" transform="rotate(-90)">Extensions</text>
<path d="M 72.0,340 L 72.0,302.1 L 76.5,301.6 L 80.9,301.6 L 85.4,300.2 L 89.9,300.2 L 94.4,299.2 L 98.8,298.2 L 103.3,297.7 L 107.8,295.3 L 112.3,293.3 L 116.7,293.3 L 121.2,293.3 L 125.7,293.3 L 130.2,292.3 L 134.6,292.3 L 139.1,292.3 L 143.6,291.3 L 148.1,289.4 L 152.5,285.9 L 157.0,283.5 L 161.5,282.5 L 166.0,282.0 L 170.4,280.0 L 174.9,274.1 L 179.4,272.1 L 183.9,272.1 L 188.3,267.2 L 192.8,265.8 L 197.3,263.8 L 201.8,262.3 L 206.2,259.4 L 210.7,256.9 L 215.2,256.4 L 219.7,252.5 L 224.1,249.0 L 228.6,249.0 L 233.1,246.6 L 237.6,244.6 L 242.0,244.1 L 246.5,243.6 L 251.0,243.1 L 255.4,241.7 L 259.9,232.8 L 264.4,228.9 L 268.9,226.9 L 273.3,225.9 L 277.8,224.5 L 282.3,221.0 L 286.8,220.0 L 291.2,219.1 L 295.7,216.1 L 300.2,215.1 L 304.7,214.1 L 309.1,214.1 L 313.6,205.3 L 318.1,204.3 L 322.6,203.3 L 327.0,201.3 L 331.5,198.9 L 336.0,198.9 L 340.5,195.0 L 344.9,188.6 L 349.4,187.6 L 353.9,188.1 L 358.4,186.6 L 362.8,186.1 L 367.3,186.1 L 371.8,183.2 L 376.3,180.7 L 380.7,178.7 L 385.2,176.3 L 389.7,175.8 L 394.2,175.8 L 398.6,172.3 L 403.1,171.4 L 407.6,170.9 L 412.1,165.0 L 416.5,164.5 L 421.0,164.5 L 425.5,164.5 L 429.9,164.0 L 434.4,161.5 L 438.9,159.6 L 443.4,157.1 L 447.8,156.6 L 452.3,155.1 L 456.8,150.7 L 461.3,146.8 L 465.7,146.3 L 470.2,145.8 L 474.7,144.3 L 479.2,139.4 L 483.6,138.4 L 488.1,136.9 L 492.6,134.0 L 497.1,133.5 L 501.5,133.0 L 506.0,133.0 L 510.5,132.0 L 515.0,129.1 L 519.4,128.1 L 523.9,127.1 L 528.4,126.6 L 532.9,125.6 L 537.3,120.7 L 541.8,120.2 L 546.3,119.2 L 550.8,118.8 L 555.2,116.3 L 559.7,115.8 L 564.2,115.3 L 568.7,113.8 L 573.1,111.9 L 577.6,111.9 L 582.1,111.9 L 586.6,111.9 L 591.0,110.9 L 595.5,108.4 L 600.0,107.9 L 604.4,105.5 L 608.9,105.0 L 613.4,104.5 L 617.9,101.5 L 622.3,98.6 L 626.8,98.1 L 631.3,97.6 L 635.8,91.2 L 640.2,89.3 L 644.7,87.8 L 649.2,87.3 L 653.7,83.8 L 658.1,83.8 L 662.6,81.4 L 667.1,79.9 L 671.6,75.0 L 676.0,73.0 L 680.5,72.5 L 685.0,72.0 L 689.5,72.0 L 693.9,71.6 L 698.4,68.6 L 702.9,66.1 L 707.4,66.1 L 711.8,65.6 L 716.3,65.6 L 720.8,63.7 L 725.3,62.7 L 729.7,61.2 L 734.2,59.8 L 738.7,57.8 L 743.2,57.8 L 747.6,56.3 L 752.1,54.3 L 756.6,50.4 L 761.1,47.0 L 765.5,46.0 L 770.0,45.0 L 770.0,340 Z" fill="url(#g1)" clip-path="url(#ca)"/>
<path d="M 72.0,302.1 L 76.5,301.6 L 80.9,301.6 L 85.4,300.2 L 89.9,300.2 L 94.4,299.2 L 98.8,298.2 L 103.3,297.7 L 107.8,295.3 L 112.3,293.3 L 116.7,293.3 L 121.2,293.3 L 125.7,293.3 L 130.2,292.3 L 134.6,292.3 L 139.1,292.3 L 143.6,291.3 L 148.1,289.4 L 152.5,285.9 L 157.0,283.5 L 161.5,282.5 L 166.0,282.0 L 170.4,280.0 L 174.9,274.1 L 179.4,272.1 L 183.9,272.1 L 188.3,267.2 L 192.8,265.8 L 197.3,263.8 L 201.8,262.3 L 206.2,259.4 L 210.7,256.9 L 215.2,256.4 L 219.7,252.5 L 224.1,249.0 L 228.6,249.0 L 233.1,246.6 L 237.6,244.6 L 242.0,244.1 L 246.5,243.6 L 251.0,243.1 L 255.4,241.7 L 259.9,232.8 L 264.4,228.9 L 268.9,226.9 L 273.3,225.9 L 277.8,224.5 L 282.3,221.0 L 286.8,220.0 L 291.2,219.1 L 295.7,216.1 L 300.2,215.1 L 304.7,214.1 L 309.1,214.1 L 313.6,205.3 L 318.1,204.3 L 322.6,203.3 L 327.0,201.3 L 331.5,198.9 L 336.0,198.9 L 340.5,195.0 L 344.9,188.6 L 349.4,187.6 L 353.9,188.1 L 358.4,186.6 L 362.8,186.1 L 367.3,186.1 L 371.8,183.2 L 376.3,180.7 L 380.7,178.7 L 385.2,176.3 L 389.7,175.8 L 394.2,175.8 L 398.6,172.3 L 403.1,171.4 L 407.6,170.9 L 412.1,165.0 L 416.5,164.5 L 421.0,164.5 L 425.5,164.5 L 429.9,164.0 L 434.4,161.5 L 438.9,159.6 L 443.4,157.1 L 447.8,156.6 L 452.3,155.1 L 456.8,150.7 L 461.3,146.8 L 465.7,146.3 L 470.2,145.8 L 474.7,144.3 L 479.2,139.4 L 483.6,138.4 L 488.1,136.9 L 492.6,134.0 L 497.1,133.5 L 501.5,133.0 L 506.0,133.0 L 510.5,132.0 L 515.0,129.1 L 519.4,128.1 L 523.9,127.1 L 528.4,126.6 L 532.9,125.6 L 537.3,120.7 L 541.8,120.2 L 546.3,119.2 L 550.8,118.8 L 555.2,116.3 L 559.7,115.8 L 564.2,115.3 L 568.7,113.8 L 573.1,111.9 L 577.6,111.9 L 582.1,111.9 L 586.6,111.9 L 591.0,110.9 L 595.5,108.4 L 600.0,107.9 L 604.4,105.5 L 608.9,105.0 L 613.4,104.5 L 617.9,101.5 L 622.3,98.6 L 626.8,98.1 L 631.3,97.6 L 635.8,91.2 L 640.2,89.3 L 644.7,87.8 L 649.2,87.3 L 653.7,83.8 L 658.1,83.8 L 662.6,81.4 L 667.1,79.9 L 671.6,75.0 L 676.0,73.0 L 680.5,72.5 L 685.0,72.0 L 689.5,72.0 L 693.9,71.6 L 698.4,68.6 L 702.9,66.1 L 707.4,66.1 L 711.8,65.6 L 716.3,65.6 L 720.8,63.7 L 725.3,62.7 L 729.7,61.2 L 734.2,59.8 L 738.7,57.8 L 743.2,57.8 L 747.6,56.3 L 752.1,54.3 L 756.6,50.4 L 761.1,47.0 L 765.5,46.0 L 770.0,45.0" fill="none" stroke="#FF6363" stroke-width="2.5" stroke-linejoin="round" clip-path="url(#ca)"/>
<text x="96.6" y="55.0" text-anchor="middle" font-size="9" fill="#FF6363" opacity="0.85" clip-path="url(#ca)">+0.7% (+18)</text>
<text x="181.6" y="55.0" text-anchor="middle" font-size="9" fill="#FF6363" opacity="0.85" clip-path="url(#ca)">+4.0% (+99)</text>
<text x="300.2" y="55.0" text-anchor="middle" font-size="9" fill="#FF6363" opacity="0.85" clip-path="url(#ca)">+4.5% (+117)</text>
<text x="421.0" y="55.0" text-anchor="middle" font-size="9" fill="#FF6363" opacity="0.85" clip-path="url(#ca)">+3.5% (+95)</text>
<text x="541.8" y="55.0" text-anchor="middle" font-size="9" fill="#FF6363" opacity="0.85" clip-path="url(#ca)">+2.2% (+62)</text>
<text x="660.4" y="55.0" text-anchor="middle" font-size="9" fill="#FF6363" opacity="0.85" clip-path="url(#ca)">+2.8% (+81)</text>
<text x="745.4" y="55.0" text-anchor="middle" font-size="9" fill="#FF6363" opacity="0.85" clip-path="url(#ca)">+1.3% (+38)</text>
<rect x="351" y="369" width="12" height="12" fill="#FF6363" rx="2"/>
<text x="367" y="379" font-size="12" fill="#111827">Extensions</text>
<text x="72" y="394" font-size="8" fill="#e5e7eb">data since Dec 11, 2025</text>
</svg>