<svg xmlns="http://www.w3.org/2000/svg" width="800" height="400" viewBox="0 0 800 400">
<defs>
  <style>text { font-family: -apple-system, BlinkMacSystemFont, 'Segoe UI', Roboto, sans-serif; }</style>
  <linearGradient id="g1" x1="0" y1="0" x2="0" y2="1">
  <stop offset="0%" stop-color="#FF6363" stop-opacity="0.25"/>
  <stop offset="100%" stop-color="#FF6363" stop-opacity="0"/>
</linearGradient>
  <clipPath id="ca"><rect x="72" y="45" width="698" height="295"/></clipPath>
</defs>
<rect width="800" height="400" fill="#ffffff" rx="12"/>
<text x="400" y="26" text-anchor="middle" font-size="15" font-weight="600" fill="#111827">Packages Growth Over Time</text>
<line x1="72" y1="340.0" x2="770" y2="340.0" stroke="#f3f4f6" stroke-width="1"/>
<text x="66" y="344.0" text-anchor="end" font-size="11" fill="#6b7280">2.4k</text>
<line x1="72" y1="241.7" x2="770" y2="241.7" stroke="#f3f4f6" stroke-width="1"/>
<text x="66" y="245.7" text-anchor="end" font-size="11" fill="#6b7280">2.6k</text>
<line x1="72" y1="143.3" x2="770" y2="143.3" stroke="#f3f4f6" stroke-width="1"/>
<text x="66" y="147.3" text-anchor="end" font-size="11" fill="#6b7280">2.8k</text>
<line x1="72" y1="45.0" x2="770" y2="45.0" stroke="#f3f4f6" stroke-width="1"/>
<text x="66" y="49.0" text-anchor="end" font-size="11" fill="#6b7280">3.0k</text>
<line x1="127.1" y1="45" x2="127.1" y2="340" stroke="#e5e7eb" stroke-width="1" stroke-dasharray="3,3" clip-path="url(#ca)"/>
<line x1="246.5" y1="45" x2="246.5" y2="340" stroke="#e5e7eb" stroke-width="1" stroke-dasharray="3,3" clip-path="url(#ca)"/>
<line x1="370.5" y1="45" x2="370.5" y2="340" stroke="#e5e7eb" stroke-width="1" stroke-dasharray="3,3" clip-path="url(#ca)"/>
<line x1="494.5" y1="45" x2="494.5" y2="340" stroke="#e5e7eb" stroke-width="1" stroke-dasharray="3,3" clip-path="url(#ca)"/>
<line x1="618.5" y1="45" x2="618.5" y2="340" stroke="#e5e7eb" stroke-width="1" stroke-dasharray="3,3" clip-path="url(#ca)"/>
<line x1="737.9" y1="45" x2="737.9" y2="340" stroke="#e5e7eb" stroke-width="1" stroke-dasharray="3,3" clip-path="url(#ca)"/>
<text x="72.0" y="358.0" text-anchor="middle" font-size="11" fill="#6b7280">Dec 11</text>
<text x="209.8" y="358.0" text-anchor="middle" font-size="11" fill="#6b7280">Jan 24</text>
<text x="352.1" y="358.0" text-anchor="middle" font-size="11" fill="#6b7280">Feb 25</text>
<text x="489.9" y="358.0" text-anchor="middle" font-size="11" fill="#6b7280">Mar 31</text>
<text x="632.2" y="358.0" text-anchor="middle" font-size="11" fill="#6b7280">May 6</text>
<text x="770.0" y="358.0" text-anchor="middle" font-size="11" fill="#6b7280">Jun 10</text>
<line x1="72" y1="45" x2="72" y2="340" stroke="#e5e7eb" stroke-width="1"/>
<line x1="72" y1="340" x2="770" y2="340" stroke="#e5e7eb" stroke-width="1"/>
<text x="-192.5" y="18" text-anchor="middle" font-size="12" fill="#6b7280" transform="rotate(-90)">Extensions</text>
<path d="M 72.0,340 L 72.0,302.1 L 76.6,301.6 L 81.2,301.6 L 85.8,300.2 L 90.4,300.2 L 95.0,299.2 L 99.6,298.2 L 104.1,297.7 L 108.7,295.3 L 113.3,293.3 L 117.9,293.3 L 122.5,293.3 L 127.1,293.3 L 131.7,292.3 L 136.3,292.3 L 140.9,292.3 L 145.5,291.3 L 150.1,289.4 L 154.7,285.9 L 159.3,283.5 L 163.8,282.5 L 168.4,282.0 L 173.0,280.0 L 177.6,274.1 L 182.2,272.1 L 186.8,272.1 L 191.4,267.2 L 196.0,265.8 L 200.6,263.8 L 205.2,262.3 L 209.8,259.4 L 214.4,256.9 L 218.9,256.4 L 223.5,252.5 L 228.1,249.0 L 232.7,249.0 L 237.3,246.6 L 241.9,244.6 L 246.5,244.1 L 251.1,243.6 L 255.7,243.1 L 260.3,241.7 L 264.9,232.8 L 269.5,228.9 L 274.1,226.9 L 278.6,225.9 L 283.2,224.5 L 287.8,221.0 L 292.4,220.0 L 297.0,219.1 L 301.6,216.1 L 306.2,215.1 L 310.8,214.1 L 315.4,214.1 L 320.0,205.3 L 324.6,204.3 L 329.2,203.3 L 333.8,201.3 L 338.3,198.9 L 342.9,198.9 L 347.5,195.0 L 352.1,188.6 L 356.7,187.6 L 361.3,188.1 L 365.9,186.6 L 370.5,186.1 L 375.1,186.1 L 379.7,183.2 L 384.3,180.7 L 388.9,178.7 L 393.4,176.3 L 398.0,175.8 L 402.6,175.8 L 407.2,172.3 L 411.8,171.4 L 416.4,170.9 L 421.0,165.0 L 425.6,164.5 L 430.2,164.5 L 434.8,164.5 L 439.4,164.0 L 444.0,161.5 L 448.6,159.6 L 453.1,157.1 L 457.7,156.6 L 462.3,155.1 L 466.9,150.7 L 471.5,146.8 L 476.1,146.3 L 480.7,145.8 L 485.3,144.3 L 489.9,139.4 L 494.5,138.4 L 499.1,136.9 L 503.7,134.0 L 508.3,133.5 L 512.8,133.0 L 517.4,133.0 L 522.0,132.0 L 526.6,129.1 L 531.2,128.1 L 535.8,127.1 L 540.4,126.6 L 545.0,125.6 L 549.6,120.7 L 554.2,120.2 L 558.8,119.2 L 563.4,118.8 L 567.9,116.3 L 572.5,115.8 L 577.1,115.3 L 581.7,113.8 L 586.3,111.9 L 590.9,111.9 L 595.5,111.9 L 600.1,111.9 L 604.7,110.9 L 609.3,108.4 L 613.9,107.9 L 618.5,105.5 L 623.1,105.0 L 627.6,104.5 L 632.2,101.5 L 636.8,98.6 L 641.4,98.1 L 646.0,97.6 L 650.6,91.2 L 655.2,89.3 L 659.8,87.8 L 664.4,87.3 L 669.0,83.8 L 673.6,83.8 L 678.2,81.4 L 682.8,79.9 L 687.3,75.0 L 691.9,73.0 L 696.5,72.5 L 701.1,72.0 L 705.7,72.0 L 710.3,71.6 L 714.9,68.6 L 719.5,66.1 L 724.1,66.1 L 728.7,65.6 L 733.3,65.6 L 737.9,63.7 L 742.4,62.7 L 747.0,61.2 L 751.6,59.8 L 756.2,57.8 L 760.8,57.8 L 765.4,56.3 L 770.0,54.3 L 770.0,340 Z" fill="url(#g1)" clip-path="url(#ca)"/>
<path d="M 72.0,302.1 L 76.6,301.6 L 81.2,301.6 L 85.8,300.2 L 90.4,300.2 L 95.0,299.2 L 99.6,298.2 L 104.1,297.7 L 108.7,295.3 L 113.3,293.3 L 117.9,293.3 L 122.5,293.3 L 127.1,293.3 L 131.7,292.3 L 136.3,292.3 L 140.9,292.3 L 145.5,291.3 L 150.1,289.4 L 154.7,285.9 L 159.3,283.5 L 163.8,282.5 L 168.4,282.0 L 173.0,280.0 L 177.6,274.1 L 182.2,272.1 L 186.8,272.1 L 191.4,267.2 L 196.0,265.8 L 200.6,263.8 L 205.2,262.3 L 209.8,259.4 L 214.4,256.9 L 218.9,256.4 L 223.5,252.5 L 228.1,249.0 L 232.7,249.0 L 237.3,246.6 L 241.9,244.6 L 246.5,244.1 L 251.1,243.6 L 255.7,243.1 L 260.3,241.7 L 264.9,232.8 L 269.5,228.9 L 274.1,226.9 L 278.6,225.9 L 283.2,224.5 L 287.8,221.0 L 292.4,220.0 L 297.0,219.1 L 301.6,216.1 L 306.2,215.1 L 310.8,214.1 L 315.4,214.1 L 320.0,205.3 L 324.6,204.3 L 329.2,203.3 L 333.8,201.3 L 338.3,198.9 L 342.9,198.9 L 347.5,195.0 L 352.1,188.6 L 356.7,187.6 L 361.3,188.1 L 365.9,186.6 L 370.5,186.1 L 375.1,186.1 L 379.7,183.2 L 384.3,180.7 L 388.9,178.7 L 393.4,176.3 L 398.0,175.8 L 402.6,175.8 L 407.2,172.3 L 411.8,171.4 L 416.4,170.9 L 421.0,165.0 L 425.6,164.5 L 430.2,164.5 L 434.8,164.5 L 439.4,164.0 L 444.0,161.5 L 448.6,159.6 L 453.1,157.1 L 457.7,156.6 L 462.3,155.1 L 466.9,150.7 L 471.5,146.8 L 476.1,146.3 L 480.7,145.8 L 485.3,144.3 L 489.9,139.4 L 494.5,138.4 L 499.1,136.9 L 503.7,134.0 L 508.3,133.5 L 512.8,133.0 L 517.4,133.0 L 522.0,132.0 L 526.6,129.1 L 531.2,128.1 L 535.8,127.1 L 540.4,126.6 L 545.0,125.6 L 549.6,120.7 L 554.2,120.2 L 558.8,119.2 L 563.4,118.8 L 567.9,116.3 L 572.5,115.8 L 577.1,115.3 L 581.7,113.8 L 586.3,111.9 L 590.9,111.9 L 595.5,111.9 L 600.1,111.9 L 604.7,110.9 L 609.3,108.4 L 613.9,107.9 L 618.5,105.5 L 623.1,105.0 L 627.6,104.5 L 632.2,101.5 L 636.8,98.6 L 641.4,98.1 L 646.0,97.6 L 650.6,91.2 L 655.2,89.3 L 659.8,87.8 L 664.4,87.3 L 669.0,83.8 L 673.6,83.8 L 678.2,81.4 L 682.8,79.9 L 687.3,75.0 L 691.9,73.0 L 696.5,72.5 L 701.1,72.0 L 705.7,72.0 L 710.3,71.6 L 714.9,68.6 L 719.5,66.1 L 724.1,66.1 L 728.7,65.6 L 733.3,65.6 L 737.9,63.7 L 742.4,62.7 L 747.0,61.2 L 751.6,59.8 L 756.2,57.8 L 760.8,57.8 L 765.4,56.3 L 770.0,54.3" fill="none" stroke="#FF6363" stroke-width="2.5" stroke-linejoin="round" clip-path="url(#ca)"/>
<text x="97.3" y="55.0" text-anchor="middle" font-size="9" fill="#FF6363" opacity="0.85" clip-path="url(#ca)">+0.7% (+18)</text>
<text x="184.5" y="55.0" text-anchor="middle" font-size="9" fill="#FF6363" opacity="0.85" clip-path="url(#ca)">+4.0% (+99)</text>
<text x="306.2" y="55.0" text-anchor="middle" font-size="9" fill="#FF6363" opacity="0.85" clip-path="url(#ca)">+4.5% (+117)</text>
<text x="430.2" y="55.0" text-anchor="middle" font-size="9" fill="#FF6363" opacity="0.85" clip-path="url(#ca)">+3.5% (+95)</text>
<text x="554.2" y="55.0" text-anchor="middle" font-size="9" fill="#FF6363" opacity="0.85" clip-path="url(#ca)">+2.2% (+62)</text>
<text x="675.9" y="55.0" text-anchor="middle" font-size="9" fill="#FF6363" opacity="0.85" clip-path="url(#ca)">+2.8% (+81)</text>
<text x="753.9" y="55.0" text-anchor="middle" font-size="9" fill="#FF6363" opacity="0.85" clip-path="url(#ca)">+0.6% (+19)</text>
<rect x="351" y="369" width="12" height="12" fill="#FF6363" rx="2"/>
<text x="367" y="379" font-size="12" fill="#111827">Extensions</text>
<text x="72" y="394" font-size="8" fill="#e5e7eb">data since Dec 11, 2025</text>
</svg>