<svg xmlns="http://www.w3.org/2000/svg" width="800" height="400" viewBox="0 0 800 400">
<defs>
  <style>text { font-family: -apple-system, BlinkMacSystemFont, 'Segoe UI', Roboto, sans-serif; }</style>
  <linearGradient id="g1" x1="0" y1="0" x2="0" y2="1">
  <stop offset="0%" stop-color="#FF6363" stop-opacity="0.25"/>
  <stop offset="100%" stop-color="#FF6363" stop-opacity="0"/>
</linearGradient>
  <clipPath id="ca"><rect x="72" y="45" width="698" height="295"/></clipPath>
</defs>
<rect width="800" height="400" fill="#ffffff" rx="12"/>
<text x="400" y="26" text-anchor="middle" font-size="15" font-weight="600" fill="#111827">Packages Growth Over Time</text>
<line x1="72" y1="340.0" x2="770" y2="340.0" stroke="#f3f4f6" stroke-width="1"/>
<text x="66" y="344.0" text-anchor="end" font-size="11" fill="#6b7280">2.4k</text>
<line x1="72" y1="290.8" x2="770" y2="290.8" stroke="#f3f4f6" stroke-width="1"/>
<text x="66" y="294.8" text-anchor="end" font-size="11" fill="#6b7280">2.5k</text>
<line x1="72" y1="241.7" x2="770" y2="241.7" stroke="#f3f4f6" stroke-width="1"/>
<text x="66" y="245.7" text-anchor="end" font-size="11" fill="#6b7280">2.6k</text>
<line x1="72" y1="192.5" x2="770" y2="192.5" stroke="#f3f4f6" stroke-width="1"/>
<text x="66" y="196.5" text-anchor="end" font-size="11" fill="#6b7280">2.7k</text>
<line x1="72" y1="143.3" x2="770" y2="143.3" stroke="#f3f4f6" stroke-width="1"/>
<text x="66" y="147.3" text-anchor="end" font-size="11" fill="#6b7280">2.8k</text>
<line x1="72" y1="94.2" x2="770" y2="94.2" stroke="#f3f4f6" stroke-width="1"/>
<text x="66" y="98.2" text-anchor="end" font-size="11" fill="#6b7280">2.9k</text>
<line x1="72" y1="45.0" x2="770" y2="45.0" stroke="#f3f4f6" stroke-width="1"/>
<text x="66" y="49.0" text-anchor="end" font-size="11" fill="#6b7280">3.0k</text>
<line x1="134.0" y1="45" x2="134.0" y2="340" stroke="#e5e7eb" stroke-width="1" stroke-dasharray="3,3" clip-path="url(#ca)"/>
<line x1="268.5" y1="45" x2="268.5" y2="340" stroke="#e5e7eb" stroke-width="1" stroke-dasharray="3,3" clip-path="url(#ca)"/>
<line x1="408.1" y1="45" x2="408.1" y2="340" stroke="#e5e7eb" stroke-width="1" stroke-dasharray="3,3" clip-path="url(#ca)"/>
<line x1="547.7" y1="45" x2="547.7" y2="340" stroke="#e5e7eb" stroke-width="1" stroke-dasharray="3,3" clip-path="url(#ca)"/>
<line x1="687.3" y1="45" x2="687.3" y2="340" stroke="#e5e7eb" stroke-width="1" stroke-dasharray="3,3" clip-path="url(#ca)"/>
<text x="72.0" y="358.0" text-anchor="middle" font-size="11" fill="#6b7280">Dec 11</text>
<text x="211.6" y="358.0" text-anchor="middle" font-size="11" fill="#6b7280">Jan 21</text>
<text x="351.2" y="358.0" text-anchor="middle" font-size="11" fill="#6b7280">Feb 17</text>
<text x="490.8" y="358.0" text-anchor="middle" font-size="11" fill="#6b7280">Mar 18</text>
<text x="630.4" y="358.0" text-anchor="middle" font-size="11" fill="#6b7280">Apr 18</text>
<text x="770.0" y="358.0" text-anchor="middle" font-size="11" fill="#6b7280">May 22</text>
<line x1="72" y1="45" x2="72" y2="340" stroke="#e5e7eb" stroke-width="1"/>
<line x1="72" y1="340" x2="770" y2="340" stroke="#e5e7eb" stroke-width="1"/>
<text x="-192.5" y="18" text-anchor="middle" font-size="12" fill="#6b7280" transform="rotate(-90)">Extensions</text>
<path d="M 72.0,340 L 72.0,302.1 L 77.2,301.6 L 82.3,301.6 L 87.5,300.2 L 92.7,300.2 L 97.9,299.2 L 103.0,298.2 L 108.2,297.7 L 113.4,295.3 L 118.5,293.3 L 123.7,293.3 L 128.9,293.3 L 134.0,293.3 L 139.2,292.3 L 144.4,292.3 L 149.6,292.3 L 154.7,291.3 L 159.9,289.4 L 165.1,285.9 L 170.2,283.5 L 175.4,282.5 L 180.6,282.0 L 185.7,280.0 L 190.9,274.1 L 196.1,272.1 L 201.3,272.1 L 206.4,267.2 L 211.6,265.8 L 216.8,263.8 L 221.9,262.3 L 227.1,259.4 L 232.3,256.9 L 237.5,256.4 L 242.6,252.5 L 247.8,249.0 L 253.0,249.0 L 258.1,246.6 L 263.3,244.6 L 268.5,244.1 L 273.6,243.6 L 278.8,243.1 L 284.0,241.7 L 289.2,232.8 L 294.3,228.9 L 299.5,226.9 L 304.7,225.9 L 309.8,224.5 L 315.0,221.0 L 320.2,220.0 L 325.3,219.1 L 330.5,216.1 L 335.7,215.1 L 340.9,214.1 L 346.0,214.1 L 351.2,205.3 L 356.4,204.3 L 361.5,203.3 L 366.7,201.3 L 371.9,198.9 L 377.1,198.9 L 382.2,195.0 L 387.4,188.6 L 392.6,187.6 L 397.7,188.1 L 402.9,186.6 L 408.1,186.1 L 413.2,186.1 L 418.4,183.2 L 423.6,180.7 L 428.8,178.7 L 433.9,176.3 L 439.1,175.8 L 444.3,175.8 L 449.4,172.3 L 454.6,171.4 L 459.8,170.9 L 464.9,165.0 L 470.1,164.5 L 475.3,164.5 L 480.5,164.5 L 485.6,164.0 L 490.8,161.5 L 496.0,159.6 L 501.1,157.1 L 506.3,156.6 L 511.5,155.1 L 516.7,150.7 L 521.8,146.8 L 527.0,146.3 L 532.2,145.8 L 537.3,144.3 L 542.5,139.4 L 547.7,138.4 L 552.8,136.9 L 558.0,134.0 L 563.2,133.5 L 568.4,133.0 L 573.5,133.0 L 578.7,132.0 L 583.9,129.1 L 589.0,128.1 L 594.2,127.1 L 599.4,126.6 L 604.5,125.6 L 609.7,120.7 L 614.9,120.2 L 620.1,119.2 L 625.2,118.8 L 630.4,116.3 L 635.6,115.8 L 640.7,115.3 L 645.9,113.8 L 651.1,111.9 L 656.3,111.9 L 661.4,111.9 L 666.6,111.9 L 671.8,110.9 L 676.9,108.4 L 682.1,107.9 L 687.3,105.5 L 692.4,105.0 L 697.6,104.5 L 702.8,101.5 L 708.0,98.6 L 713.1,98.1 L 718.3,97.6 L 723.5,91.2 L 728.6,89.3 L 733.8,87.8 L 739.0,87.3 L 744.1,83.8 L 749.3,83.8 L 754.5,81.4 L 759.7,79.9 L 764.8,75.0 L 770.0,73.0 L 770.0,340 Z" fill="url(#g1)" clip-path="url(#ca)"/>
<path d="M 72.0,302.1 L 77.2,301.6 L 82.3,301.6 L 87.5,300.2 L 92.7,300.2 L 97.9,299.2 L 103.0,298.2 L 108.2,297.7 L 113.4,295.3 L 118.5,293.3 L 123.7,293.3 L 128.9,293.3 L 134.0,293.3 L 139.2,292.3 L 144.4,292.3 L 149.6,292.3 L 154.7,291.3 L 159.9,289.4 L 165.1,285.9 L 170.2,283.5 L 175.4,282.5 L 180.6,282.0 L 185.7,280.0 L 190.9,274.1 L 196.1,272.1 L 201.3,272.1 L 206.4,267.2 L 211.6,265.8 L 216.8,263.8 L 221.9,262.3 L 227.1,259.4 L 232.3,256.9 L 237.5,256.4 L 242.6,252.5 L 247.8,249.0 L 253.0,249.0 L 258.1,246.6 L 263.3,244.6 L 268.5,244.1 L 273.6,243.6 L 278.8,243.1 L 284.0,241.7 L 289.2,232.8 L 294.3,228.9 L 299.5,226.9 L 304.7,225.9 L 309.8,224.5 L 315.0,221.0 L 320.2,220.0 L 325.3,219.1 L 330.5,216.1 L 335.7,215.1 L 340.9,214.1 L 346.0,214.1 L 351.2,205.3 L 356.4,204.3 L 361.5,203.3 L 366.7,201.3 L 371.9,198.9 L 377.1,198.9 L 382.2,195.0 L 387.4,188.6 L 392.6,187.6 L 397.7,188.1 L 402.9,186.6 L 408.1,186.1 L 413.2,186.1 L 418.4,183.2 L 423.6,180.7 L 428.8,178.7 L 433.9,176.3 L 439.1,175.8 L 444.3,175.8 L 449.4,172.3 L 454.6,171.4 L 459.8,170.9 L 464.9,165.0 L 470.1,164.5 L 475.3,164.5 L 480.5,164.5 L 485.6,164.0 L 490.8,161.5 L 496.0,159.6 L 501.1,157.1 L 506.3,156.6 L 511.5,155.1 L 516.7,150.7 L 521.8,146.8 L 527.0,146.3 L 532.2,145.8 L 537.3,144.3 L 542.5,139.4 L 547.7,138.4 L 552.8,136.9 L 558.0,134.0 L 563.2,133.5 L 568.4,133.0 L 573.5,133.0 L 578.7,132.0 L 583.9,129.1 L 589.0,128.1 L 594.2,127.1 L 599.4,126.6 L 604.5,125.6 L 609.7,120.7 L 614.9,120.2 L 620.1,119.2 L 625.2,118.8 L 630.4,116.3 L 635.6,115.8 L 640.7,115.3 L 645.9,113.8 L 651.1,111.9 L 656.3,111.9 L 661.4,111.9 L 666.6,111.9 L 671.8,110.9 L 676.9,108.4 L 682.1,107.9 L 687.3,105.5 L 692.4,105.0 L 697.6,104.5 L 702.8,101.5 L 708.0,98.6 L 713.1,98.1 L 718.3,97.6 L 723.5,91.2 L 728.6,89.3 L 733.8,87.8 L 739.0,87.3 L 744.1,83.8 L 749.3,83.8 L 754.5,81.4 L 759.7,79.9 L 764.8,75.0 L 770.0,73.0" fill="none" stroke="#FF6363" stroke-width="2.5" stroke-linejoin="round" clip-path="url(#ca)"/>
<text x="100.4" y="55.0" text-anchor="middle" font-size="9" fill="#FF6363" opacity="0.85" clip-path="url(#ca)">+0.7% (+18)</text>
<text x="198.7" y="55.0" text-anchor="middle" font-size="9" fill="#FF6363" opacity="0.85" clip-path="url(#ca)">+4.0% (+99)</text>
<text x="335.7" y="55.0" text-anchor="middle" font-size="9" fill="#FF6363" opacity="0.85" clip-path="url(#ca)">+4.5% (+117)</text>
<text x="475.3" y="55.0" text-anchor="middle" font-size="9" fill="#FF6363" opacity="0.85" clip-path="url(#ca)">+3.5% (+95)</text>
<text x="614.9" y="55.0" text-anchor="middle" font-size="9" fill="#FF6363" opacity="0.85" clip-path="url(#ca)">+2.2% (+62)</text>
<text x="728.6" y="55.0" text-anchor="middle" font-size="9" fill="#FF6363" opacity="0.85" clip-path="url(#ca)">+2.3% (+66)</text>
<rect x="351" y="369" width="12" height="12" fill="#FF6363" rx="2"/>
<text x="367" y="379" font-size="12" fill="#111827">Extensions</text>
<text x="72" y="394" font-size="8" fill="#e5e7eb">data since Dec 11, 2025</text>
</svg>