<svg xmlns="http://www.w3.org/2000/svg" width="800" height="400" viewBox="0 0 800 400">
<defs>
  <style>text { font-family: -apple-system, BlinkMacSystemFont, 'Segoe UI', Roboto, sans-serif; }</style>
  <linearGradient id="g2" x1="0" y1="0" x2="0" y2="1">
  <stop offset="0%" stop-color="#4F8EF7" stop-opacity="0.25"/>
  <stop offset="100%" stop-color="#4F8EF7" stop-opacity="0"/>
</linearGradient>
<linearGradient id="g3" x1="0" y1="0" x2="0" y2="1">
  <stop offset="0%" stop-color="#BF5AF2" stop-opacity="0.25"/>
  <stop offset="100%" stop-color="#BF5AF2" stop-opacity="0"/>
</linearGradient>
<linearGradient id="g4" x1="0" y1="0" x2="0" y2="1">
  <stop offset="0%" stop-color="#34C759" stop-opacity="0.25"/>
  <stop offset="100%" stop-color="#34C759" stop-opacity="0"/>
</linearGradient>
  <clipPath id="ca"><rect x="72" y="45" width="698" height="295"/></clipPath>
</defs>
<rect width="800" height="400" fill="#ffffff" rx="12"/>
<text x="400" y="26" text-anchor="middle" font-size="15" font-weight="600" fill="#111827">Community Growth Over Time</text>
<line x1="72" y1="340.0" x2="770" y2="340.0" stroke="#f3f4f6" stroke-width="1"/>
<text x="66" y="344.0" text-anchor="end" font-size="11" fill="#6b7280">500</text>
<line x1="72" y1="241.7" x2="770" y2="241.7" stroke="#f3f4f6" stroke-width="1"/>
<text x="66" y="245.7" text-anchor="end" font-size="11" fill="#6b7280">1.0k</text>
<line x1="72" y1="143.3" x2="770" y2="143.3" stroke="#f3f4f6" stroke-width="1"/>
<text x="66" y="147.3" text-anchor="end" font-size="11" fill="#6b7280">1.5k</text>
<line x1="72" y1="45.0" x2="770" y2="45.0" stroke="#f3f4f6" stroke-width="1"/>
<text x="66" y="49.0" text-anchor="end" font-size="11" fill="#6b7280">2.0k</text>
<line x1="162.1" y1="45" x2="162.1" y2="340" stroke="#e5e7eb" stroke-width="1" stroke-dasharray="3,3" clip-path="url(#ca)"/>
<line x1="357.2" y1="45" x2="357.2" y2="340" stroke="#e5e7eb" stroke-width="1" stroke-dasharray="3,3" clip-path="url(#ca)"/>
<line x1="559.8" y1="45" x2="559.8" y2="340" stroke="#e5e7eb" stroke-width="1" stroke-dasharray="3,3" clip-path="url(#ca)"/>
<line x1="762.5" y1="45" x2="762.5" y2="340" stroke="#e5e7eb" stroke-width="1" stroke-dasharray="3,3" clip-path="url(#ca)"/>
<text x="72.0" y="358.0" text-anchor="middle" font-size="11" fill="#6b7280">Dec 11</text>
<text x="214.6" y="358.0" text-anchor="middle" font-size="11" fill="#6b7280">Jan 10</text>
<text x="349.7" y="358.0" text-anchor="middle" font-size="11" fill="#6b7280">Jan 31</text>
<text x="492.3" y="358.0" text-anchor="middle" font-size="11" fill="#6b7280">Feb 19</text>
<text x="627.4" y="358.0" text-anchor="middle" font-size="11" fill="#6b7280">Mar 11</text>
<text x="770.0" y="358.0" text-anchor="middle" font-size="11" fill="#6b7280">Apr 2</text>
<line x1="72" y1="45" x2="72" y2="340" stroke="#e5e7eb" stroke-width="1"/>
<line x1="72" y1="340" x2="770" y2="340" stroke="#e5e7eb" stroke-width="1"/>
<text x="-192.5" y="18" text-anchor="middle" font-size="12" fill="#6b7280" transform="rotate(-90)">People</text>
<path d="M 72.0,340 L 72.0,120.1 L 79.5,120.1 L 87.0,120.1 L 94.5,119.5 L 102.0,119.5 L 109.5,119.1 L 117.0,118.9 L 124.5,119.1 L 132.0,118.6 L 139.5,118.6 L 147.1,118.6 L 154.6,118.6 L 162.1,118.6 L 169.6,118.6 L 177.1,118.6 L 184.6,118.6 L 192.1,118.4 L 199.6,117.8 L 207.1,116.6 L 214.6,116.0 L 222.1,115.8 L 229.6,115.8 L 237.1,115.2 L 244.6,113.8 L 252.1,113.0 L 259.6,113.0 L 267.1,112.1 L 274.6,111.7 L 282.2,110.9 L 289.7,110.3 L 297.2,109.7 L 304.7,109.1 L 312.2,109.1 L 319.7,107.7 L 327.2,106.9 L 334.7,106.9 L 342.2,106.2 L 349.7,105.8 L 357.2,105.6 L 364.7,105.4 L 372.2,105.4 L 379.7,104.8 L 387.2,102.4 L 394.7,101.0 L 402.2,100.3 L 409.7,100.1 L 417.2,99.7 L 424.8,98.9 L 432.3,98.5 L 439.8,98.1 L 447.3,97.7 L 454.8,97.3 L 462.3,96.9 L 469.8,96.9 L 477.3,95.0 L 484.8,95.0 L 492.3,94.8 L 499.8,94.6 L 507.3,94.2 L 514.8,94.2 L 522.3,93.2 L 529.8,92.0 L 537.3,91.6 L 544.8,92.0 L 552.3,91.8 L 559.8,91.6 L 567.4,91.6 L 574.9,91.2 L 582.4,90.4 L 589.9,90.0 L 597.4,89.6 L 604.9,89.4 L 612.4,89.4 L 619.9,88.7 L 627.4,88.3 L 634.9,88.3 L 642.4,86.7 L 649.9,86.7 L 657.4,86.7 L 664.9,86.7 L 672.4,86.5 L 679.9,85.9 L 687.4,85.1 L 694.9,84.7 L 702.5,84.7 L 710.0,84.3 L 717.5,82.8 L 725.0,81.8 L 732.5,81.6 L 740.0,81.4 L 747.5,80.8 L 755.0,79.6 L 762.5,79.2 L 770.0,78.8 L 770.0,340 Z" fill="url(#g2)" clip-path="url(#ca)"/>
<path d="M 72.0,120.1 L 79.5,120.1 L 87.0,120.1 L 94.5,119.5 L 102.0,119.5 L 109.5,119.1 L 117.0,118.9 L 124.5,119.1 L 132.0,118.6 L 139.5,118.6 L 147.1,118.6 L 154.6,118.6 L 162.1,118.6 L 169.6,118.6 L 177.1,118.6 L 184.6,118.6 L 192.1,118.4 L 199.6,117.8 L 207.1,116.6 L 214.6,116.0 L 222.1,115.8 L 229.6,115.8 L 237.1,115.2 L 244.6,113.8 L 252.1,113.0 L 259.6,113.0 L 267.1,112.1 L 274.6,111.7 L 282.2,110.9 L 289.7,110.3 L 297.2,109.7 L 304.7,109.1 L 312.2,109.1 L 319.7,107.7 L 327.2,106.9 L 334.7,106.9 L 342.2,106.2 L 349.7,105.8 L 357.2,105.6 L 364.7,105.4 L 372.2,105.4 L 379.7,104.8 L 387.2,102.4 L 394.7,101.0 L 402.2,100.3 L 409.7,100.1 L 417.2,99.7 L 424.8,98.9 L 432.3,98.5 L 439.8,98.1 L 447.3,97.7 L 454.8,97.3 L 462.3,96.9 L 469.8,96.9 L 477.3,95.0 L 484.8,95.0 L 492.3,94.8 L 499.8,94.6 L 507.3,94.2 L 514.8,94.2 L 522.3,93.2 L 529.8,92.0 L 537.3,91.6 L 544.8,92.0 L 552.3,91.8 L 559.8,91.6 L 567.4,91.6 L 574.9,91.2 L 582.4,90.4 L 589.9,90.0 L 597.4,89.6 L 604.9,89.4 L 612.4,89.4 L 619.9,88.7 L 627.4,88.3 L 634.9,88.3 L 642.4,86.7 L 649.9,86.7 L 657.4,86.7 L 664.9,86.7 L 672.4,86.5 L 679.9,85.9 L 687.4,85.1 L 694.9,84.7 L 702.5,84.7 L 710.0,84.3 L 717.5,82.8 L 725.0,81.8 L 732.5,81.6 L 740.0,81.4 L 747.5,80.8 L 755.0,79.6 L 762.5,79.2 L 770.0,78.8" fill="none" stroke="#4F8EF7" stroke-width="2.5" stroke-linejoin="round" clip-path="url(#ca)"/>
<path d="M 72.0,340 L 72.0,244.2 L 79.5,243.6 L 87.0,243.6 L 94.5,243.6 L 102.0,243.4 L 109.5,243.0 L 117.0,242.8 L 124.5,242.6 L 132.0,242.6 L 139.5,242.5 L 147.1,242.3 L 154.6,242.3 L 162.1,242.3 L 169.6,242.3 L 177.1,242.3 L 184.6,242.3 L 192.1,241.9 L 199.6,241.9 L 207.1,241.9 L 214.6,241.1 L 222.1,240.9 L 229.6,240.5 L 237.1,239.7 L 244.6,239.5 L 252.1,239.5 L 259.6,239.5 L 267.1,238.9 L 274.6,238.5 L 282.2,238.5 L 289.7,238.1 L 297.2,237.9 L 304.7,237.5 L 312.2,237.5 L 319.7,237.3 L 327.2,236.6 L 334.7,236.0 L 342.2,235.6 L 349.7,235.4 L 357.2,235.4 L 364.7,235.2 L 372.2,234.8 L 379.7,234.8 L 387.2,234.6 L 394.7,234.0 L 402.2,233.6 L 409.7,233.6 L 417.2,233.6 L 424.8,233.6 L 432.3,233.4 L 439.8,232.8 L 447.3,232.4 L 454.8,232.2 L 462.3,232.0 L 469.8,231.8 L 477.3,231.6 L 484.8,231.4 L 492.3,231.2 L 499.8,230.7 L 507.3,230.5 L 514.8,230.3 L 522.3,229.5 L 529.8,228.7 L 537.3,228.7 L 544.8,228.5 L 552.3,228.3 L 559.8,228.3 L 567.4,228.3 L 574.9,227.9 L 582.4,227.9 L 589.9,226.7 L 597.4,226.5 L 604.9,226.3 L 612.4,226.3 L 619.9,225.9 L 627.4,225.7 L 634.9,225.7 L 642.4,225.5 L 649.9,225.5 L 657.4,225.5 L 664.9,225.1 L 672.4,224.9 L 679.9,224.0 L 687.4,224.2 L 694.9,224.0 L 702.5,223.8 L 710.0,223.8 L 717.5,223.6 L 725.0,223.0 L 732.5,223.0 L 740.0,223.0 L 747.5,223.0 L 755.0,222.6 L 762.5,222.6 L 770.0,222.2 L 770.0,340 Z" fill="url(#g3)" clip-path="url(#ca)"/>
<path d="M 72.0,244.2 L 79.5,243.6 L 87.0,243.6 L 94.5,243.6 L 102.0,243.4 L 109.5,243.0 L 117.0,242.8 L 124.5,242.6 L 132.0,242.6 L 139.5,242.5 L 147.1,242.3 L 154.6,242.3 L 162.1,242.3 L 169.6,242.3 L 177.1,242.3 L 184.6,242.3 L 192.1,241.9 L 199.6,241.9 L 207.1,241.9 L 214.6,241.1 L 222.1,240.9 L 229.6,240.5 L 237.1,239.7 L 244.6,239.5 L 252.1,239.5 L 259.6,239.5 L 267.1,238.9 L 274.6,238.5 L 282.2,238.5 L 289.7,238.1 L 297.2,237.9 L 304.7,237.5 L 312.2,237.5 L 319.7,237.3 L 327.2,236.6 L 334.7,236.0 L 342.2,235.6 L 349.7,235.4 L 357.2,235.4 L 364.7,235.2 L 372.2,234.8 L 379.7,234.8 L 387.2,234.6 L 394.7,234.0 L 402.2,233.6 L 409.7,233.6 L 417.2,233.6 L 424.8,233.6 L 432.3,233.4 L 439.8,232.8 L 447.3,232.4 L 454.8,232.2 L 462.3,232.0 L 469.8,231.8 L 477.3,231.6 L 484.8,231.4 L 492.3,231.2 L 499.8,230.7 L 507.3,230.5 L 514.8,230.3 L 522.3,229.5 L 529.8,228.7 L 537.3,228.7 L 544.8,228.5 L 552.3,228.3 L 559.8,228.3 L 567.4,228.3 L 574.9,227.9 L 582.4,227.9 L 589.9,226.7 L 597.4,226.5 L 604.9,226.3 L 612.4,226.3 L 619.9,225.9 L 627.4,225.7 L 634.9,225.7 L 642.4,225.5 L 649.9,225.5 L 657.4,225.5 L 664.9,225.1 L 672.4,224.9 L 679.9,224.0 L 687.4,224.2 L 694.9,224.0 L 702.5,223.8 L 710.0,223.8 L 717.5,223.6 L 725.0,223.0 L 732.5,223.0 L 740.0,223.0 L 747.5,223.0 L 755.0,222.6 L 762.5,222.6 L 770.0,222.2" fill="none" stroke="#BF5AF2" stroke-width="2.5" stroke-linejoin="round" clip-path="url(#ca)"/>
<path d="M 72.0,340 L 72.0,291.4 L 79.5,290.8 L 87.0,290.8 L 94.5,290.8 L 102.0,290.6 L 109.5,290.2 L 117.0,290.0 L 124.5,289.7 L 132.0,289.7 L 139.5,289.5 L 147.1,289.3 L 154.6,289.3 L 162.1,289.3 L 169.6,289.3 L 177.1,289.3 L 184.6,289.3 L 192.1,288.9 L 199.6,288.9 L 207.1,289.1 L 214.6,288.5 L 222.1,288.7 L 229.6,288.1 L 237.1,287.5 L 244.6,287.3 L 252.1,287.5 L 259.6,287.5 L 267.1,286.9 L 274.6,286.7 L 282.2,286.7 L 289.7,286.3 L 297.2,286.1 L 304.7,285.7 L 312.2,285.7 L 319.7,285.5 L 327.2,284.9 L 334.7,284.3 L 342.2,283.9 L 349.7,283.9 L 357.2,283.9 L 364.7,283.8 L 372.2,283.4 L 379.7,283.4 L 387.2,283.2 L 394.7,282.6 L 402.2,282.4 L 409.7,282.4 L 417.2,282.4 L 424.8,282.4 L 432.3,282.2 L 439.8,281.6 L 447.3,281.4 L 454.8,281.2 L 462.3,281.0 L 469.8,281.0 L 477.3,280.8 L 484.8,280.8 L 492.3,280.8 L 499.8,280.2 L 507.3,280.2 L 514.8,280.2 L 522.3,279.8 L 529.8,279.2 L 537.3,279.2 L 544.8,279.0 L 552.3,278.8 L 559.8,278.8 L 567.4,278.8 L 574.9,278.4 L 582.4,278.4 L 589.9,277.3 L 597.4,277.1 L 604.9,276.9 L 612.4,276.9 L 619.9,276.7 L 627.4,276.7 L 634.9,276.7 L 642.4,276.7 L 649.9,276.7 L 657.4,276.7 L 664.9,276.3 L 672.4,276.1 L 679.9,275.1 L 687.4,275.3 L 694.9,275.3 L 702.5,275.1 L 710.0,275.1 L 717.5,275.1 L 725.0,274.7 L 732.5,274.7 L 740.0,274.7 L 747.5,274.7 L 755.0,274.7 L 762.5,274.7 L 770.0,274.5 L 770.0,340 Z" fill="url(#g4)" clip-path="url(#ca)"/>
<path d="M 72.0,291.4 L 79.5,290.8 L 87.0,290.8 L 94.5,290.8 L 102.0,290.6 L 109.5,290.2 L 117.0,290.0 L 124.5,289.7 L 132.0,289.7 L 139.5,289.5 L 147.1,289.3 L 154.6,289.3 L 162.1,289.3 L 169.6,289.3 L 177.1,289.3 L 184.6,289.3 L 192.1,288.9 L 199.6,288.9 L 207.1,289.1 L 214.6,288.5 L 222.1,288.7 L 229.6,288.1 L 237.1,287.5 L 244.6,287.3 L 252.1,287.5 L 259.6,287.5 L 267.1,286.9 L 274.6,286.7 L 282.2,286.7 L 289.7,286.3 L 297.2,286.1 L 304.7,285.7 L 312.2,285.7 L 319.7,285.5 L 327.2,284.9 L 334.7,284.3 L 342.2,283.9 L 349.7,283.9 L 357.2,283.9 L 364.7,283.8 L 372.2,283.4 L 379.7,283.4 L 387.2,283.2 L 394.7,282.6 L 402.2,282.4 L 409.7,282.4 L 417.2,282.4 L 424.8,282.4 L 432.3,282.2 L 439.8,281.6 L 447.3,281.4 L 454.8,281.2 L 462.3,281.0 L 469.8,281.0 L 477.3,280.8 L 484.8,280.8 L 492.3,280.8 L 499.8,280.2 L 507.3,280.2 L 514.8,280.2 L 522.3,279.8 L 529.8,279.2 L 537.3,279.2 L 544.8,279.0 L 552.3,278.8 L 559.8,278.8 L 567.4,278.8 L 574.9,278.4 L 582.4,278.4 L 589.9,277.3 L 597.4,277.1 L 604.9,276.9 L 612.4,276.9 L 619.9,276.7 L 627.4,276.7 L 634.9,276.7 L 642.4,276.7 L 649.9,276.7 L 657.4,276.7 L 664.9,276.3 L 672.4,276.1 L 679.9,275.1 L 687.4,275.3 L 694.9,275.3 L 702.5,275.1 L 710.0,275.1 L 717.5,275.1 L 725.0,274.7 L 732.5,274.7 L 740.0,274.7 L 747.5,274.7 L 755.0,274.7 L 762.5,274.7 L 770.0,274.5" fill="none" stroke="#34C759" stroke-width="2.5" stroke-linejoin="round" clip-path="url(#ca)"/>
<text x="113.3" y="55.0" text-anchor="middle" font-size="9" fill="#4F8EF7" opacity="0.85" clip-path="url(#ca)">+0.5% (+8)</text>
<text x="113.3" y="66.0" text-anchor="middle" font-size="9" fill="#BF5AF2" opacity="0.85" clip-path="url(#ca)">+1.0% (+10)</text>
<text x="113.3" y="77.0" text-anchor="middle" font-size="9" fill="#34C759" opacity="0.85" clip-path="url(#ca)">+1.5% (+11)</text>
<text x="255.9" y="55.0" text-anchor="middle" font-size="9" fill="#4F8EF7" opacity="0.85" clip-path="url(#ca)">+4.0% (+65)</text>
<text x="255.9" y="66.0" text-anchor="middle" font-size="9" fill="#BF5AF2" opacity="0.85" clip-path="url(#ca)">+3.5% (+35)</text>
<text x="255.9" y="77.0" text-anchor="middle" font-size="9" fill="#34C759" opacity="0.85" clip-path="url(#ca)">+3.6% (+27)</text>
<text x="454.8" y="55.0" text-anchor="middle" font-size="9" fill="#4F8EF7" opacity="0.85" clip-path="url(#ca)">+4.1% (+70)</text>
<text x="454.8" y="66.0" text-anchor="middle" font-size="9" fill="#BF5AF2" opacity="0.85" clip-path="url(#ca)">+3.5% (+36)</text>
<text x="454.8" y="77.0" text-anchor="middle" font-size="9" fill="#34C759" opacity="0.85" clip-path="url(#ca)">+3.3% (+26)</text>
<text x="657.4" y="55.0" text-anchor="middle" font-size="9" fill="#4F8EF7" opacity="0.85" clip-path="url(#ca)">+3.5% (+61)</text>
<text x="657.4" y="66.0" text-anchor="middle" font-size="9" fill="#BF5AF2" opacity="0.85" clip-path="url(#ca)">+2.7% (+29)</text>
<text x="657.4" y="77.0" text-anchor="middle" font-size="9" fill="#34C759" opacity="0.85" clip-path="url(#ca)">+2.6% (+21)</text>
<text x="766.2" y="55.0" text-anchor="middle" font-size="9" fill="#4F8EF7" opacity="0.85" clip-path="url(#ca)">+0.1% (+2)</text>
<text x="766.2" y="66.0" text-anchor="middle" font-size="9" fill="#BF5AF2" opacity="0.85" clip-path="url(#ca)">+0.2% (+2)</text>
<text x="766.2" y="77.0" text-anchor="middle" font-size="9" fill="#34C759" opacity="0.85" clip-path="url(#ca)">+0.1% (+1)</text>
<rect x="211" y="369" width="12" height="12" fill="#4F8EF7" rx="2"/>
<text x="227" y="379" font-size="12" fill="#111827">Authors</text>
<rect x="351" y="369" width="12" height="12" fill="#BF5AF2" rx="2"/>
<text x="367" y="379" font-size="12" fill="#111827">Contributors</text>
<rect x="491" y="369" width="12" height="12" fill="#34C759" rx="2"/>
<text x="507" y="379" font-size="12" fill="#111827">Non-author contributors</text>
<text x="72" y="394" font-size="8" fill="#e5e7eb">data since Dec 11, 2025</text>
</svg>