<svg xmlns="http://www.w3.org/2000/svg" width="800" height="400" viewBox="0 0 800 400">
<defs>
  <style>text { font-family: -apple-system, BlinkMacSystemFont, 'Segoe UI', Roboto, sans-serif; }</style>
  <linearGradient id="g2" x1="0" y1="0" x2="0" y2="1">
  <stop offset="0%" stop-color="#4F8EF7" stop-opacity="0.25"/>
  <stop offset="100%" stop-color="#4F8EF7" stop-opacity="0"/>
</linearGradient>
<linearGradient id="g3" x1="0" y1="0" x2="0" y2="1">
  <stop offset="0%" stop-color="#BF5AF2" stop-opacity="0.25"/>
  <stop offset="100%" stop-color="#BF5AF2" stop-opacity="0"/>
</linearGradient>
  <clipPath id="ca"><rect x="72" y="45" width="698" height="295"/></clipPath>
</defs>
<rect width="800" height="400" fill="#ffffff" rx="12"/>
<text x="400" y="26" text-anchor="middle" font-size="15" font-weight="600" fill="#111827">Community Growth Over Time</text>
<line x1="72" y1="340.0" x2="770" y2="340.0" stroke="#f3f4f6" stroke-width="1"/>
<text x="66" y="344.0" text-anchor="end" font-size="11" fill="#6b7280">906</text>
<line x1="72" y1="281.0" x2="770" y2="281.0" stroke="#f3f4f6" stroke-width="1"/>
<text x="66" y="285.0" text-anchor="end" font-size="11" fill="#6b7280">1.1k</text>
<line x1="72" y1="222.0" x2="770" y2="222.0" stroke="#f3f4f6" stroke-width="1"/>
<text x="66" y="226.0" text-anchor="end" font-size="11" fill="#6b7280">1.3k</text>
<line x1="72" y1="163.0" x2="770" y2="163.0" stroke="#f3f4f6" stroke-width="1"/>
<text x="66" y="167.0" text-anchor="end" font-size="11" fill="#6b7280">1.5k</text>
<line x1="72" y1="104.0" x2="770" y2="104.0" stroke="#f3f4f6" stroke-width="1"/>
<text x="66" y="108.0" text-anchor="end" font-size="11" fill="#6b7280">1.7k</text>
<line x1="72" y1="45.0" x2="770" y2="45.0" stroke="#f3f4f6" stroke-width="1"/>
<text x="66" y="49.0" text-anchor="end" font-size="11" fill="#6b7280">1.9k</text>
<line x1="171.7" y1="45" x2="171.7" y2="340" stroke="#e5e7eb" stroke-width="1" stroke-dasharray="3,3" clip-path="url(#ca)"/>
<line x1="387.8" y1="45" x2="387.8" y2="340" stroke="#e5e7eb" stroke-width="1" stroke-dasharray="3,3" clip-path="url(#ca)"/>
<line x1="612.1" y1="45" x2="612.1" y2="340" stroke="#e5e7eb" stroke-width="1" stroke-dasharray="3,3" clip-path="url(#ca)"/>
<text x="72.0" y="358.0" text-anchor="middle" font-size="11" fill="#6b7280">Dec 11</text>
<text x="213.3" y="358.0" text-anchor="middle" font-size="11" fill="#6b7280">Jan 8</text>
<text x="354.5" y="358.0" text-anchor="middle" font-size="11" fill="#6b7280">Jan 28</text>
<text x="487.5" y="358.0" text-anchor="middle" font-size="11" fill="#6b7280">Feb 13</text>
<text x="628.7" y="358.0" text-anchor="middle" font-size="11" fill="#6b7280">Mar 3</text>
<text x="770.0" y="358.0" text-anchor="middle" font-size="11" fill="#6b7280">Mar 21</text>
<line x1="72" y1="45" x2="72" y2="340" stroke="#e5e7eb" stroke-width="1"/>
<line x1="72" y1="340" x2="770" y2="340" stroke="#e5e7eb" stroke-width="1"/>
<text x="-192.5" y="18" text-anchor="middle" font-size="12" fill="#6b7280" transform="rotate(-90)">People</text>
<path d="M 72.0,340 L 72.0,124.1 L 80.3,124.1 L 88.6,124.1 L 96.9,123.2 L 105.2,123.2 L 113.5,122.6 L 121.9,122.3 L 130.2,122.6 L 138.5,121.7 L 146.8,121.7 L 155.1,121.7 L 163.4,121.7 L 171.7,121.7 L 180.0,121.7 L 188.3,121.7 L 196.6,121.7 L 205.0,121.4 L 213.3,120.5 L 221.6,118.7 L 229.9,117.8 L 238.2,117.5 L 246.5,117.5 L 254.8,116.6 L 263.1,114.4 L 271.4,113.2 L 279.7,113.2 L 288.0,111.7 L 296.4,111.1 L 304.7,109.9 L 313.0,109.0 L 321.3,108.1 L 329.6,107.2 L 337.9,107.2 L 346.2,105.0 L 354.5,103.8 L 362.8,103.8 L 371.1,102.6 L 379.5,102.0 L 387.8,101.7 L 396.1,101.4 L 404.4,101.4 L 412.7,100.5 L 421.0,96.9 L 429.3,94.7 L 437.6,93.5 L 445.9,93.2 L 454.2,92.6 L 462.5,91.4 L 470.9,90.8 L 479.2,90.2 L 487.5,89.6 L 495.8,89.0 L 504.1,88.4 L 512.4,88.4 L 520.7,85.3 L 529.0,85.3 L 537.3,85.0 L 545.6,84.7 L 554.0,84.1 L 562.3,84.1 L 570.6,82.6 L 578.9,80.8 L 587.2,80.2 L 595.5,80.8 L 603.8,80.5 L 612.1,80.2 L 620.4,80.2 L 628.7,79.6 L 637.0,78.4 L 645.4,77.8 L 653.7,77.2 L 662.0,76.9 L 670.3,76.9 L 678.6,75.6 L 686.9,75.0 L 695.2,75.0 L 703.5,72.6 L 711.8,72.6 L 720.1,72.6 L 728.5,72.6 L 736.8,72.3 L 745.1,71.4 L 753.4,70.2 L 761.7,69.6 L 770.0,69.6 L 770.0,340 Z" fill="url(#g2)" clip-path="url(#ca)"/>
<path d="M 72.0,124.1 L 80.3,124.1 L 88.6,124.1 L 96.9,123.2 L 105.2,123.2 L 113.5,122.6 L 121.9,122.3 L 130.2,122.6 L 138.5,121.7 L 146.8,121.7 L 155.1,121.7 L 163.4,121.7 L 171.7,121.7 L 180.0,121.7 L 188.3,121.7 L 196.6,121.7 L 205.0,121.4 L 213.3,120.5 L 221.6,118.7 L 229.9,117.8 L 238.2,117.5 L 246.5,117.5 L 254.8,116.6 L 263.1,114.4 L 271.4,113.2 L 279.7,113.2 L 288.0,111.7 L 296.4,111.1 L 304.7,109.9 L 313.0,109.0 L 321.3,108.1 L 329.6,107.2 L 337.9,107.2 L 346.2,105.0 L 354.5,103.8 L 362.8,103.8 L 371.1,102.6 L 379.5,102.0 L 387.8,101.7 L 396.1,101.4 L 404.4,101.4 L 412.7,100.5 L 421.0,96.9 L 429.3,94.7 L 437.6,93.5 L 445.9,93.2 L 454.2,92.6 L 462.5,91.4 L 470.9,90.8 L 479.2,90.2 L 487.5,89.6 L 495.8,89.0 L 504.1,88.4 L 512.4,88.4 L 520.7,85.3 L 529.0,85.3 L 537.3,85.0 L 545.6,84.7 L 554.0,84.1 L 562.3,84.1 L 570.6,82.6 L 578.9,80.8 L 587.2,80.2 L 595.5,80.8 L 603.8,80.5 L 612.1,80.2 L 620.4,80.2 L 628.7,79.6 L 637.0,78.4 L 645.4,77.8 L 653.7,77.2 L 662.0,76.9 L 670.3,76.9 L 678.6,75.6 L 686.9,75.0 L 695.2,75.0 L 703.5,72.6 L 711.8,72.6 L 720.1,72.6 L 728.5,72.6 L 736.8,72.3 L 745.1,71.4 L 753.4,70.2 L 761.7,69.6 L 770.0,69.6" fill="none" stroke="#4F8EF7" stroke-width="2.5" stroke-linejoin="round" clip-path="url(#ca)"/>
<path d="M 72.0,340 L 72.0,315.4 L 80.3,314.5 L 88.6,314.5 L 96.9,314.5 L 105.2,314.2 L 113.5,313.6 L 121.9,313.3 L 130.2,313.0 L 138.5,313.0 L 146.8,312.7 L 155.1,312.4 L 163.4,312.4 L 171.7,312.4 L 180.0,312.4 L 188.3,312.4 L 196.6,312.4 L 205.0,311.8 L 213.3,311.8 L 221.6,311.8 L 229.9,310.6 L 238.2,310.3 L 246.5,309.7 L 254.8,308.4 L 263.1,308.1 L 271.4,308.1 L 279.7,308.1 L 288.0,307.2 L 296.4,306.6 L 304.7,306.6 L 313.0,306.0 L 321.3,305.7 L 329.6,305.1 L 337.9,305.1 L 346.2,304.8 L 354.5,303.6 L 362.8,302.7 L 371.1,302.1 L 379.5,301.8 L 387.8,301.8 L 396.1,301.5 L 404.4,300.9 L 412.7,300.9 L 421.0,300.6 L 429.3,299.7 L 437.6,299.0 L 445.9,299.0 L 454.2,299.0 L 462.5,299.0 L 470.9,298.7 L 479.2,297.8 L 487.5,297.2 L 495.8,296.9 L 504.1,296.6 L 512.4,296.3 L 520.7,296.0 L 529.0,295.7 L 537.3,295.4 L 545.6,294.5 L 554.0,294.2 L 562.3,293.9 L 570.6,292.7 L 578.9,291.5 L 587.2,291.5 L 595.5,291.2 L 603.8,290.9 L 612.1,290.9 L 620.4,290.9 L 628.7,290.3 L 637.0,290.3 L 645.4,288.4 L 653.7,288.1 L 662.0,287.8 L 670.3,287.8 L 678.6,287.2 L 686.9,286.9 L 695.2,286.9 L 703.5,286.6 L 711.8,286.6 L 720.1,286.6 L 728.5,286.0 L 736.8,285.7 L 745.1,284.2 L 753.4,284.5 L 761.7,284.2 L 770.0,283.9 L 770.0,340 Z" fill="url(#g3)" clip-path="url(#ca)"/>
<path d="M 72.0,315.4 L 80.3,314.5 L 88.6,314.5 L 96.9,314.5 L 105.2,314.2 L 113.5,313.6 L 121.9,313.3 L 130.2,313.0 L 138.5,313.0 L 146.8,312.7 L 155.1,312.4 L 163.4,312.4 L 171.7,312.4 L 180.0,312.4 L 188.3,312.4 L 196.6,312.4 L 205.0,311.8 L 213.3,311.8 L 221.6,311.8 L 229.9,310.6 L 238.2,310.3 L 246.5,309.7 L 254.8,308.4 L 263.1,308.1 L 271.4,308.1 L 279.7,308.1 L 288.0,307.2 L 296.4,306.6 L 304.7,306.6 L 313.0,306.0 L 321.3,305.7 L 329.6,305.1 L 337.9,305.1 L 346.2,304.8 L 354.5,303.6 L 362.8,302.7 L 371.1,302.1 L 379.5,301.8 L 387.8,301.8 L 396.1,301.5 L 404.4,300.9 L 412.7,300.9 L 421.0,300.6 L 429.3,299.7 L 437.6,299.0 L 445.9,299.0 L 454.2,299.0 L 462.5,299.0 L 470.9,298.7 L 479.2,297.8 L 487.5,297.2 L 495.8,296.9 L 504.1,296.6 L 512.4,296.3 L 520.7,296.0 L 529.0,295.7 L 537.3,295.4 L 545.6,294.5 L 554.0,294.2 L 562.3,293.9 L 570.6,292.7 L 578.9,291.5 L 587.2,291.5 L 595.5,291.2 L 603.8,290.9 L 612.1,290.9 L 620.4,290.9 L 628.7,290.3 L 637.0,290.3 L 645.4,288.4 L 653.7,288.1 L 662.0,287.8 L 670.3,287.8 L 678.6,287.2 L 686.9,286.9 L 695.2,286.9 L 703.5,286.6 L 711.8,286.6 L 720.1,286.6 L 728.5,286.0 L 736.8,285.7 L 745.1,284.2 L 753.4,284.5 L 761.7,284.2 L 770.0,283.9" fill="none" stroke="#BF5AF2" stroke-width="2.5" stroke-linejoin="round" clip-path="url(#ca)"/>
<text x="117.7" y="55.0" text-anchor="middle" font-size="9" fill="#4F8EF7" opacity="0.85" clip-path="url(#ca)">+0.5%</text>
<text x="117.7" y="66.0" text-anchor="middle" font-size="9" fill="#BF5AF2" opacity="0.85" clip-path="url(#ca)">+1.0%</text>
<text x="275.6" y="55.0" text-anchor="middle" font-size="9" fill="#4F8EF7" opacity="0.85" clip-path="url(#ca)">+4.0%</text>
<text x="275.6" y="66.0" text-anchor="middle" font-size="9" fill="#BF5AF2" opacity="0.85" clip-path="url(#ca)">+3.5%</text>
<text x="495.8" y="55.0" text-anchor="middle" font-size="9" fill="#4F8EF7" opacity="0.85" clip-path="url(#ca)">+4.1%</text>
<text x="495.8" y="66.0" text-anchor="middle" font-size="9" fill="#BF5AF2" opacity="0.85" clip-path="url(#ca)">+3.5%</text>
<text x="691.1" y="55.0" text-anchor="middle" font-size="9" fill="#4F8EF7" opacity="0.85" clip-path="url(#ca)">+2.0%</text>
<text x="691.1" y="66.0" text-anchor="middle" font-size="9" fill="#BF5AF2" opacity="0.85" clip-path="url(#ca)">+2.2%</text>
<rect x="281" y="369" width="12" height="12" fill="#4F8EF7" rx="2"/>
<text x="297" y="379" font-size="12" fill="#111827">Authors</text>
<rect x="421" y="369" width="12" height="12" fill="#BF5AF2" rx="2"/>
<text x="437" y="379" font-size="12" fill="#111827">Contributors</text>
<text x="72" y="394" font-size="8" fill="#e5e7eb">data since Dec 11, 2025</text>
</svg>