<svg xmlns="http://www.w3.org/2000/svg" width="800" height="400" viewBox="0 0 800 400">
<defs><style>text { font-family: -apple-system, BlinkMacSystemFont, 'Segoe UI', Roboto, sans-serif; }</style></defs>
<rect width="800" height="400" fill="#ffffff" rx="12"/>
<text x="400" y="26" text-anchor="middle" font-size="15" font-weight="600" fill="#111827">Packages by Last Updated Quarter</text>
<text x="400" y="44" text-anchor="middle" font-size="11" fill="#6b7280">last updated at · 2,976 packages with a known last-update date</text>
<line x1="60" y1="58" x2="60" y2="320" stroke="#e5e7eb" stroke-width="1"/>
<line x1="60" y1="320" x2="770" y2="320" stroke="#e5e7eb" stroke-width="1"/>
<text x="-189" y="18" text-anchor="middle" font-size="12" fill="#6b7280" transform="rotate(-90)">Number of packages</text>
<line x1="60" y1="320.0" x2="770" y2="320.0" stroke="#f3f4f6" stroke-width="1"/>
<text x="54" y="324.0" text-anchor="end" font-size="11" fill="#6b7280">0</text>
<line x1="60" y1="267.8" x2="770" y2="267.8" stroke="#f3f4f6" stroke-width="1"/>
<text x="54" y="271.8" text-anchor="end" font-size="11" fill="#6b7280">112</text>
<line x1="60" y1="215.1" x2="770" y2="215.1" stroke="#f3f4f6" stroke-width="1"/>
<text x="54" y="219.1" text-anchor="end" font-size="11" fill="#6b7280">225</text>
<line x1="60" y1="162.9" x2="770" y2="162.9" stroke="#f3f4f6" stroke-width="1"/>
<text x="54" y="166.9" text-anchor="end" font-size="11" fill="#6b7280">337</text>
<line x1="60" y1="110.2" x2="770" y2="110.2" stroke="#f3f4f6" stroke-width="1"/>
<text x="54" y="114.2" text-anchor="end" font-size="11" fill="#6b7280">450</text>
<line x1="60" y1="58.0" x2="770" y2="58.0" stroke="#f3f4f6" stroke-width="1"/>
<text x="54" y="62.0" text-anchor="end" font-size="11" fill="#6b7280">562</text>
<rect x="66.5" y="313.9" width="24.3" height="6.1" fill="#34C759" rx="3" opacity="0.85"/>
<text x="78.7" y="297.9" text-anchor="middle" font-size="10" fill="#6b7280">13</text>
<text x="78.7" y="309.9" text-anchor="middle" font-size="10" fill="#6b7280">(0.44%)</text>
<g transform="translate(78.7,330.0) rotate(-45)"><text text-anchor="end" font-size="10" fill="#111827">2021-Q4</text></g>
<rect x="103.9" y="306.9" width="24.3" height="13.1" fill="#34C759" rx="3" opacity="0.85"/>
<text x="116.1" y="290.9" text-anchor="middle" font-size="10" fill="#6b7280">28</text>
<text x="116.1" y="302.9" text-anchor="middle" font-size="10" fill="#6b7280">(0.94%)</text>
<g transform="translate(116.1,330.0) rotate(-45)"><text text-anchor="end" font-size="10" fill="#111827">2022-Q1</text></g>
<rect x="141.3" y="303.7" width="24.3" height="16.3" fill="#34C759" rx="3" opacity="0.85"/>
<text x="153.4" y="287.7" text-anchor="middle" font-size="10" fill="#6b7280">35</text>
<text x="153.4" y="299.7" text-anchor="middle" font-size="10" fill="#6b7280">(1.18%)</text>
<g transform="translate(153.4,330.0) rotate(-45)"><text text-anchor="end" font-size="10" fill="#111827">2022-Q2</text></g>
<rect x="178.6" y="301.8" width="24.3" height="18.2" fill="#34C759" rx="3" opacity="0.85"/>
<text x="190.8" y="285.8" text-anchor="middle" font-size="10" fill="#6b7280">39</text>
<text x="190.8" y="297.8" text-anchor="middle" font-size="10" fill="#6b7280">(1.31%)</text>
<g transform="translate(190.8,330.0) rotate(-45)"><text text-anchor="end" font-size="10" fill="#111827">2022-Q3</text></g>
<rect x="216.0" y="291.1" width="24.3" height="28.9" fill="#34C759" rx="3" opacity="0.85"/>
<text x="228.2" y="275.1" text-anchor="middle" font-size="10" fill="#6b7280">62</text>
<text x="228.2" y="287.1" text-anchor="middle" font-size="10" fill="#6b7280">(2.08%)</text>
<g transform="translate(228.2,330.0) rotate(-45)"><text text-anchor="end" font-size="10" fill="#111827">2022-Q4</text></g>
<rect x="253.4" y="279.0" width="24.3" height="41.0" fill="#34C759" rx="3" opacity="0.85"/>
<text x="265.5" y="263.0" text-anchor="middle" font-size="10" fill="#6b7280">88</text>
<text x="265.5" y="275.0" text-anchor="middle" font-size="10" fill="#6b7280">(2.96%)</text>
<g transform="translate(265.5,330.0) rotate(-45)"><text text-anchor="end" font-size="10" fill="#111827">2023-Q1</text></g>
<rect x="290.8" y="278.5" width="24.3" height="41.5" fill="#34C759" rx="3" opacity="0.85"/>
<text x="302.9" y="262.5" text-anchor="middle" font-size="10" fill="#6b7280">89</text>
<text x="302.9" y="274.5" text-anchor="middle" font-size="10" fill="#6b7280">(2.99%)</text>
<g transform="translate(302.9,330.0) rotate(-45)"><text text-anchor="end" font-size="10" fill="#111827">2023-Q2</text></g>
<rect x="328.1" y="281.8" width="24.3" height="38.2" fill="#34C759" rx="3" opacity="0.85"/>
<text x="340.3" y="265.8" text-anchor="middle" font-size="10" fill="#6b7280">82</text>
<text x="340.3" y="277.8" text-anchor="middle" font-size="10" fill="#6b7280">(2.76%)</text>
<g transform="translate(340.3,330.0) rotate(-45)"><text text-anchor="end" font-size="10" fill="#111827">2023-Q3</text></g>
<rect x="365.5" y="290.6" width="24.3" height="29.4" fill="#34C759" rx="3" opacity="0.85"/>
<text x="377.6" y="274.6" text-anchor="middle" font-size="10" fill="#6b7280">63</text>
<text x="377.6" y="286.6" text-anchor="middle" font-size="10" fill="#6b7280">(2.12%)</text>
<g transform="translate(377.6,330.0) rotate(-45)"><text text-anchor="end" font-size="10" fill="#111827">2023-Q4</text></g>
<rect x="402.9" y="267.8" width="24.3" height="52.2" fill="#34C759" rx="3" opacity="0.85"/>
<text x="415.0" y="251.8" text-anchor="middle" font-size="10" fill="#6b7280">112</text>
<text x="415.0" y="263.8" text-anchor="middle" font-size="10" fill="#6b7280">(3.76%)</text>
<g transform="translate(415.0,330.0) rotate(-45)"><text text-anchor="end" font-size="10" fill="#111827">2024-Q1</text></g>
<rect x="440.2" y="261.3" width="24.3" height="58.7" fill="#34C759" rx="3" opacity="0.85"/>
<text x="452.4" y="245.3" text-anchor="middle" font-size="10" fill="#6b7280">126</text>
<text x="452.4" y="257.3" text-anchor="middle" font-size="10" fill="#6b7280">(4.23%)</text>
<g transform="translate(452.4,330.0) rotate(-45)"><text text-anchor="end" font-size="10" fill="#111827">2024-Q2</text></g>
<rect x="477.6" y="263.1" width="24.3" height="56.9" fill="#34C759" rx="3" opacity="0.85"/>
<text x="489.7" y="247.1" text-anchor="middle" font-size="10" fill="#6b7280">122</text>
<text x="489.7" y="259.1" text-anchor="middle" font-size="10" fill="#6b7280">(4.10%)</text>
<g transform="translate(489.7,330.0) rotate(-45)"><text text-anchor="end" font-size="10" fill="#111827">2024-Q3</text></g>
<rect x="515.0" y="265.9" width="24.3" height="54.1" fill="#34C759" rx="3" opacity="0.85"/>
<text x="527.1" y="249.9" text-anchor="middle" font-size="10" fill="#6b7280">116</text>
<text x="527.1" y="261.9" text-anchor="middle" font-size="10" fill="#6b7280">(3.90%)</text>
<g transform="translate(527.1,330.0) rotate(-45)"><text text-anchor="end" font-size="10" fill="#111827">2024-Q4</text></g>
<rect x="552.3" y="231.4" width="24.3" height="88.6" fill="#34C759" rx="3" opacity="0.85"/>
<text x="564.5" y="215.4" text-anchor="middle" font-size="10" fill="#6b7280">190</text>
<text x="564.5" y="227.4" text-anchor="middle" font-size="10" fill="#6b7280">(6.38%)</text>
<g transform="translate(564.5,330.0) rotate(-45)"><text text-anchor="end" font-size="10" fill="#111827">2025-Q1</text></g>
<rect x="589.7" y="223.5" width="24.3" height="96.5" fill="#34C759" rx="3" opacity="0.85"/>
<text x="601.8" y="207.5" text-anchor="middle" font-size="10" fill="#6b7280">207</text>
<text x="601.8" y="219.5" text-anchor="middle" font-size="10" fill="#6b7280">(6.96%)</text>
<g transform="translate(601.8,330.0) rotate(-45)"><text text-anchor="end" font-size="10" fill="#111827">2025-Q2</text></g>
<rect x="627.1" y="227.2" width="24.3" height="92.8" fill="#34C759" rx="3" opacity="0.85"/>
<text x="639.2" y="211.2" text-anchor="middle" font-size="10" fill="#6b7280">199</text>
<text x="639.2" y="223.2" text-anchor="middle" font-size="10" fill="#6b7280">(6.69%)</text>
<g transform="translate(639.2,330.0) rotate(-45)"><text text-anchor="end" font-size="10" fill="#111827">2025-Q3</text></g>
<rect x="664.4" y="185.3" width="24.3" height="134.7" fill="#34C759" rx="3" opacity="0.85"/>
<text x="676.6" y="169.3" text-anchor="middle" font-size="10" fill="#6b7280">289</text>
<text x="676.6" y="181.3" text-anchor="middle" font-size="10" fill="#6b7280">(9.71%)</text>
<g transform="translate(676.6,330.0) rotate(-45)"><text text-anchor="end" font-size="10" fill="#111827">2025-Q4</text></g>
<rect x="701.8" y="61.7" width="24.3" height="258.3" fill="#34C759" rx="3" opacity="0.85"/>
<text x="713.9" y="72.0" text-anchor="middle" font-size="10" fill="#6b7280">554</text>
<text x="713.9" y="84.0" text-anchor="middle" font-size="10" fill="#6b7280">(18.62%)</text>
<g transform="translate(713.9,330.0) rotate(-45)"><text text-anchor="end" font-size="10" fill="#111827">2026-Q1</text></g>
<rect x="739.2" y="58.0" width="24.3" height="262.0" fill="#34C759" rx="3" opacity="0.85"/>
<text x="751.3" y="72.0" text-anchor="middle" font-size="10" fill="#6b7280">562</text>
<text x="751.3" y="84.0" text-anchor="middle" font-size="10" fill="#6b7280">(18.88%)</text>
<g transform="translate(751.3,330.0) rotate(-45)"><text text-anchor="end" font-size="10" fill="#111827">2026-Q2</text></g>
</svg>