<svg xmlns="http://www.w3.org/2000/svg" width="800" height="400" viewBox="0 0 800 400">
<defs>
  <style>text { font-family: -apple-system, BlinkMacSystemFont, 'Segoe UI', Roboto, sans-serif; }</style>
  <linearGradient id="g1" x1="0" y1="0" x2="0" y2="1">
  <stop offset="0%" stop-color="#FF6363" stop-opacity="0.25"/>
  <stop offset="100%" stop-color="#FF6363" stop-opacity="0"/>
</linearGradient>
  <clipPath id="ca"><rect x="72" y="45" width="698" height="295"/></clipPath>
</defs>
<rect width="800" height="400" fill="#ffffff" rx="12"/>
<text x="400" y="26" text-anchor="middle" font-size="15" font-weight="600" fill="#111827">Packages Growth Over Time</text>
<line x1="72" y1="340.0" x2="770" y2="340.0" stroke="#f3f4f6" stroke-width="1"/>
<text x="66" y="344.0" text-anchor="end" font-size="11" fill="#6b7280">2.4k</text>
<line x1="72" y1="290.8" x2="770" y2="290.8" stroke="#f3f4f6" stroke-width="1"/>
<text x="66" y="294.8" text-anchor="end" font-size="11" fill="#6b7280">2.5k</text>
<line x1="72" y1="241.7" x2="770" y2="241.7" stroke="#f3f4f6" stroke-width="1"/>
<text x="66" y="245.7" text-anchor="end" font-size="11" fill="#6b7280">2.6k</text>
<line x1="72" y1="192.5" x2="770" y2="192.5" stroke="#f3f4f6" stroke-width="1"/>
<text x="66" y="196.5" text-anchor="end" font-size="11" fill="#6b7280">2.7k</text>
<line x1="72" y1="143.3" x2="770" y2="143.3" stroke="#f3f4f6" stroke-width="1"/>
<text x="66" y="147.3" text-anchor="end" font-size="11" fill="#6b7280">2.8k</text>
<line x1="72" y1="94.2" x2="770" y2="94.2" stroke="#f3f4f6" stroke-width="1"/>
<text x="66" y="98.2" text-anchor="end" font-size="11" fill="#6b7280">2.9k</text>
<line x1="72" y1="45.0" x2="770" y2="45.0" stroke="#f3f4f6" stroke-width="1"/>
<text x="66" y="49.0" text-anchor="end" font-size="11" fill="#6b7280">3.0k</text>
<line x1="128.6" y1="45" x2="128.6" y2="340" stroke="#e5e7eb" stroke-width="1" stroke-dasharray="3,3" clip-path="url(#ca)"/>
<line x1="251.2" y1="45" x2="251.2" y2="340" stroke="#e5e7eb" stroke-width="1" stroke-dasharray="3,3" clip-path="url(#ca)"/>
<line x1="378.6" y1="45" x2="378.6" y2="340" stroke="#e5e7eb" stroke-width="1" stroke-dasharray="3,3" clip-path="url(#ca)"/>
<line x1="505.9" y1="45" x2="505.9" y2="340" stroke="#e5e7eb" stroke-width="1" stroke-dasharray="3,3" clip-path="url(#ca)"/>
<line x1="633.2" y1="45" x2="633.2" y2="340" stroke="#e5e7eb" stroke-width="1" stroke-dasharray="3,3" clip-path="url(#ca)"/>
<line x1="755.9" y1="45" x2="755.9" y2="340" stroke="#e5e7eb" stroke-width="1" stroke-dasharray="3,3" clip-path="url(#ca)"/>
<text x="72.0" y="358.0" text-anchor="middle" font-size="11" fill="#6b7280">Dec 11</text>
<text x="213.5" y="358.0" text-anchor="middle" font-size="11" fill="#6b7280">Jan 24</text>
<text x="350.3" y="358.0" text-anchor="middle" font-size="11" fill="#6b7280">Feb 22</text>
<text x="491.7" y="358.0" text-anchor="middle" font-size="11" fill="#6b7280">Mar 27</text>
<text x="628.5" y="358.0" text-anchor="middle" font-size="11" fill="#6b7280">Apr 30</text>
<text x="770.0" y="358.0" text-anchor="middle" font-size="11" fill="#6b7280">Jun 5</text>
<line x1="72" y1="45" x2="72" y2="340" stroke="#e5e7eb" stroke-width="1"/>
<line x1="72" y1="340" x2="770" y2="340" stroke="#e5e7eb" stroke-width="1"/>
<text x="-192.5" y="18" text-anchor="middle" font-size="12" fill="#6b7280" transform="rotate(-90)">Extensions</text>
<path d="M 72.0,340 L 72.0,302.1 L 76.7,301.6 L 81.4,301.6 L 86.1,300.2 L 90.9,300.2 L 95.6,299.2 L 100.3,298.2 L 105.0,297.7 L 109.7,295.3 L 114.4,293.3 L 119.2,293.3 L 123.9,293.3 L 128.6,293.3 L 133.3,292.3 L 138.0,292.3 L 142.7,292.3 L 147.5,291.3 L 152.2,289.4 L 156.9,285.9 L 161.6,283.5 L 166.3,282.5 L 171.0,282.0 L 175.8,280.0 L 180.5,274.1 L 185.2,272.1 L 189.9,272.1 L 194.6,267.2 L 199.3,265.8 L 204.1,263.8 L 208.8,262.3 L 213.5,259.4 L 218.2,256.9 L 222.9,256.4 L 227.6,252.5 L 232.4,249.0 L 237.1,249.0 L 241.8,246.6 L 246.5,244.6 L 251.2,244.1 L 255.9,243.6 L 260.6,243.1 L 265.4,241.7 L 270.1,232.8 L 274.8,228.9 L 279.5,226.9 L 284.2,225.9 L 288.9,224.5 L 293.7,221.0 L 298.4,220.0 L 303.1,219.1 L 307.8,216.1 L 312.5,215.1 L 317.2,214.1 L 322.0,214.1 L 326.7,205.3 L 331.4,204.3 L 336.1,203.3 L 340.8,201.3 L 345.5,198.9 L 350.3,198.9 L 355.0,195.0 L 359.7,188.6 L 364.4,187.6 L 369.1,188.1 L 373.8,186.6 L 378.6,186.1 L 383.3,186.1 L 388.0,183.2 L 392.7,180.7 L 397.4,178.7 L 402.1,176.3 L 406.9,175.8 L 411.6,175.8 L 416.3,172.3 L 421.0,171.4 L 425.7,170.9 L 430.4,165.0 L 435.1,164.5 L 439.9,164.5 L 444.6,164.5 L 449.3,164.0 L 454.0,161.5 L 458.7,159.6 L 463.4,157.1 L 468.2,156.6 L 472.9,155.1 L 477.6,150.7 L 482.3,146.8 L 487.0,146.3 L 491.7,145.8 L 496.5,144.3 L 501.2,139.4 L 505.9,138.4 L 510.6,136.9 L 515.3,134.0 L 520.0,133.5 L 524.8,133.0 L 529.5,133.0 L 534.2,132.0 L 538.9,129.1 L 543.6,128.1 L 548.3,127.1 L 553.1,126.6 L 557.8,125.6 L 562.5,120.7 L 567.2,120.2 L 571.9,119.2 L 576.6,118.8 L 581.4,116.3 L 586.1,115.8 L 590.8,115.3 L 595.5,113.8 L 600.2,111.9 L 604.9,111.9 L 609.6,111.9 L 614.4,111.9 L 619.1,110.9 L 623.8,108.4 L 628.5,107.9 L 633.2,105.5 L 637.9,105.0 L 642.7,104.5 L 647.4,101.5 L 652.1,98.6 L 656.8,98.1 L 661.5,97.6 L 666.2,91.2 L 671.0,89.3 L 675.7,87.8 L 680.4,87.3 L 685.1,83.8 L 689.8,83.8 L 694.5,81.4 L 699.3,79.9 L 704.0,75.0 L 708.7,73.0 L 713.4,72.5 L 718.1,72.0 L 722.8,72.0 L 727.6,71.6 L 732.3,68.6 L 737.0,66.1 L 741.7,66.1 L 746.4,65.6 L 751.1,65.6 L 755.9,63.7 L 760.6,62.7 L 765.3,61.2 L 770.0,59.8 L 770.0,340 Z" fill="url(#g1)" clip-path="url(#ca)"/>
<path d="M 72.0,302.1 L 76.7,301.6 L 81.4,301.6 L 86.1,300.2 L 90.9,300.2 L 95.6,299.2 L 100.3,298.2 L 105.0,297.7 L 109.7,295.3 L 114.4,293.3 L 119.2,293.3 L 123.9,293.3 L 128.6,293.3 L 133.3,292.3 L 138.0,292.3 L 142.7,292.3 L 147.5,291.3 L 152.2,289.4 L 156.9,285.9 L 161.6,283.5 L 166.3,282.5 L 171.0,282.0 L 175.8,280.0 L 180.5,274.1 L 185.2,272.1 L 189.9,272.1 L 194.6,267.2 L 199.3,265.8 L 204.1,263.8 L 208.8,262.3 L 213.5,259.4 L 218.2,256.9 L 222.9,256.4 L 227.6,252.5 L 232.4,249.0 L 237.1,249.0 L 241.8,246.6 L 246.5,244.6 L 251.2,244.1 L 255.9,243.6 L 260.6,243.1 L 265.4,241.7 L 270.1,232.8 L 274.8,228.9 L 279.5,226.9 L 284.2,225.9 L 288.9,224.5 L 293.7,221.0 L 298.4,220.0 L 303.1,219.1 L 307.8,216.1 L 312.5,215.1 L 317.2,214.1 L 322.0,214.1 L 326.7,205.3 L 331.4,204.3 L 336.1,203.3 L 340.8,201.3 L 345.5,198.9 L 350.3,198.9 L 355.0,195.0 L 359.7,188.6 L 364.4,187.6 L 369.1,188.1 L 373.8,186.6 L 378.6,186.1 L 383.3,186.1 L 388.0,183.2 L 392.7,180.7 L 397.4,178.7 L 402.1,176.3 L 406.9,175.8 L 411.6,175.8 L 416.3,172.3 L 421.0,171.4 L 425.7,170.9 L 430.4,165.0 L 435.1,164.5 L 439.9,164.5 L 444.6,164.5 L 449.3,164.0 L 454.0,161.5 L 458.7,159.6 L 463.4,157.1 L 468.2,156.6 L 472.9,155.1 L 477.6,150.7 L 482.3,146.8 L 487.0,146.3 L 491.7,145.8 L 496.5,144.3 L 501.2,139.4 L 505.9,138.4 L 510.6,136.9 L 515.3,134.0 L 520.0,133.5 L 524.8,133.0 L 529.5,133.0 L 534.2,132.0 L 538.9,129.1 L 543.6,128.1 L 548.3,127.1 L 553.1,126.6 L 557.8,125.6 L 562.5,120.7 L 567.2,120.2 L 571.9,119.2 L 576.6,118.8 L 581.4,116.3 L 586.1,115.8 L 590.8,115.3 L 595.5,113.8 L 600.2,111.9 L 604.9,111.9 L 609.6,111.9 L 614.4,111.9 L 619.1,110.9 L 623.8,108.4 L 628.5,107.9 L 633.2,105.5 L 637.9,105.0 L 642.7,104.5 L 647.4,101.5 L 652.1,98.6 L 656.8,98.1 L 661.5,97.6 L 666.2,91.2 L 671.0,89.3 L 675.7,87.8 L 680.4,87.3 L 685.1,83.8 L 689.8,83.8 L 694.5,81.4 L 699.3,79.9 L 704.0,75.0 L 708.7,73.0 L 713.4,72.5 L 718.1,72.0 L 722.8,72.0 L 727.6,71.6 L 732.3,68.6 L 737.0,66.1 L 741.7,66.1 L 746.4,65.6 L 751.1,65.6 L 755.9,63.7 L 760.6,62.7 L 765.3,61.2 L 770.0,59.8" fill="none" stroke="#FF6363" stroke-width="2.5" stroke-linejoin="round" clip-path="url(#ca)"/>
<text x="97.9" y="55.0" text-anchor="middle" font-size="9" fill="#FF6363" opacity="0.85" clip-path="url(#ca)">+0.7% (+18)</text>
<text x="187.5" y="55.0" text-anchor="middle" font-size="9" fill="#FF6363" opacity="0.85" clip-path="url(#ca)">+4.0% (+99)</text>
<text x="312.5" y="55.0" text-anchor="middle" font-size="9" fill="#FF6363" opacity="0.85" clip-path="url(#ca)">+4.5% (+117)</text>
<text x="439.9" y="55.0" text-anchor="middle" font-size="9" fill="#FF6363" opacity="0.85" clip-path="url(#ca)">+3.5% (+95)</text>
<text x="567.2" y="55.0" text-anchor="middle" font-size="9" fill="#FF6363" opacity="0.85" clip-path="url(#ca)">+2.2% (+62)</text>
<text x="692.2" y="55.0" text-anchor="middle" font-size="9" fill="#FF6363" opacity="0.85" clip-path="url(#ca)">+2.8% (+81)</text>
<text x="762.9" y="55.0" text-anchor="middle" font-size="9" fill="#FF6363" opacity="0.85" clip-path="url(#ca)">+0.3% (+8)</text>
<rect x="351" y="369" width="12" height="12" fill="#FF6363" rx="2"/>
<text x="367" y="379" font-size="12" fill="#111827">Extensions</text>
<text x="72" y="394" font-size="8" fill="#e5e7eb">data since Dec 11, 2025</text>
</svg>