<svg xmlns="http://www.w3.org/2000/svg" width="800" height="400" viewBox="0 0 800 400">
<defs>
  <style>text { font-family: -apple-system, BlinkMacSystemFont, 'Segoe UI', Roboto, sans-serif; }</style>
  <linearGradient id="g1" x1="0" y1="0" x2="0" y2="1">
  <stop offset="0%" stop-color="#FF6363" stop-opacity="0.25"/>
  <stop offset="100%" stop-color="#FF6363" stop-opacity="0"/>
</linearGradient>
  <clipPath id="ca"><rect x="72" y="45" width="698" height="295"/></clipPath>
</defs>
<rect width="800" height="400" fill="#ffffff" rx="12"/>
<text x="400" y="26" text-anchor="middle" font-size="15" font-weight="600" fill="#111827">Packages Growth Over Time</text>
<line x1="72" y1="340.0" x2="770" y2="340.0" stroke="#f3f4f6" stroke-width="1"/>
<text x="66" y="344.0" text-anchor="end" font-size="11" fill="#6b7280">2.4k</text>
<line x1="72" y1="281.0" x2="770" y2="281.0" stroke="#f3f4f6" stroke-width="1"/>
<text x="66" y="285.0" text-anchor="end" font-size="11" fill="#6b7280">2.5k</text>
<line x1="72" y1="222.0" x2="770" y2="222.0" stroke="#f3f4f6" stroke-width="1"/>
<text x="66" y="226.0" text-anchor="end" font-size="11" fill="#6b7280">2.6k</text>
<line x1="72" y1="163.0" x2="770" y2="163.0" stroke="#f3f4f6" stroke-width="1"/>
<text x="66" y="167.0" text-anchor="end" font-size="11" fill="#6b7280">2.7k</text>
<line x1="72" y1="104.0" x2="770" y2="104.0" stroke="#f3f4f6" stroke-width="1"/>
<text x="66" y="108.0" text-anchor="end" font-size="11" fill="#6b7280">2.8k</text>
<line x1="72" y1="45.0" x2="770" y2="45.0" stroke="#f3f4f6" stroke-width="1"/>
<text x="66" y="49.0" text-anchor="end" font-size="11" fill="#6b7280">2.9k</text>
<line x1="160.2" y1="45" x2="160.2" y2="340" stroke="#e5e7eb" stroke-width="1" stroke-dasharray="3,3" clip-path="url(#ca)"/>
<line x1="351.2" y1="45" x2="351.2" y2="340" stroke="#e5e7eb" stroke-width="1" stroke-dasharray="3,3" clip-path="url(#ca)"/>
<line x1="549.6" y1="45" x2="549.6" y2="340" stroke="#e5e7eb" stroke-width="1" stroke-dasharray="3,3" clip-path="url(#ca)"/>
<line x1="748.0" y1="45" x2="748.0" y2="340" stroke="#e5e7eb" stroke-width="1" stroke-dasharray="3,3" clip-path="url(#ca)"/>
<text x="72.0" y="358.0" text-anchor="middle" font-size="11" fill="#6b7280">Dec 11</text>
<text x="211.6" y="358.0" text-anchor="middle" font-size="11" fill="#6b7280">Jan 10</text>
<text x="351.2" y="358.0" text-anchor="middle" font-size="11" fill="#6b7280">Feb 1</text>
<text x="490.8" y="358.0" text-anchor="middle" font-size="11" fill="#6b7280">Feb 20</text>
<text x="630.4" y="358.0" text-anchor="middle" font-size="11" fill="#6b7280">Mar 13</text>
<text x="770.0" y="358.0" text-anchor="middle" font-size="11" fill="#6b7280">Apr 4</text>
<line x1="72" y1="45" x2="72" y2="340" stroke="#e5e7eb" stroke-width="1"/>
<line x1="72" y1="340" x2="770" y2="340" stroke="#e5e7eb" stroke-width="1"/>
<text x="-192.5" y="18" text-anchor="middle" font-size="12" fill="#6b7280" transform="rotate(-90)">Extensions</text>
<path d="M 72.0,340 L 72.0,294.6 L 79.3,294.0 L 86.7,294.0 L 94.0,292.2 L 101.4,292.2 L 108.7,291.0 L 116.1,289.9 L 123.4,289.3 L 130.8,286.3 L 138.1,283.9 L 145.5,283.9 L 152.8,283.9 L 160.2,283.9 L 167.5,282.8 L 174.9,282.8 L 182.2,282.8 L 189.6,281.6 L 196.9,279.2 L 204.3,275.1 L 211.6,272.1 L 218.9,271.0 L 226.3,270.4 L 233.6,268.0 L 241.0,260.9 L 248.3,258.6 L 255.7,258.6 L 263.0,252.7 L 270.4,250.9 L 277.7,248.6 L 285.1,246.8 L 292.4,243.2 L 299.8,240.3 L 307.1,239.7 L 314.5,235.0 L 321.8,230.8 L 329.2,230.8 L 336.5,227.9 L 343.9,225.5 L 351.2,224.9 L 358.5,224.4 L 365.9,223.8 L 373.2,222.0 L 380.6,211.4 L 387.9,206.7 L 395.3,204.3 L 402.6,203.1 L 410.0,201.3 L 417.3,197.2 L 424.7,196.0 L 432.0,194.9 L 439.4,191.3 L 446.7,190.1 L 454.1,189.0 L 461.4,189.0 L 468.8,178.3 L 476.1,177.2 L 483.5,176.0 L 490.8,173.6 L 498.1,170.7 L 505.5,170.7 L 512.8,166.0 L 520.2,158.3 L 527.5,157.1 L 534.9,157.7 L 542.2,155.9 L 549.6,155.3 L 556.9,155.3 L 564.3,151.8 L 571.6,148.8 L 579.0,146.5 L 586.3,143.5 L 593.7,142.9 L 601.0,142.9 L 608.4,138.8 L 615.7,137.6 L 623.1,137.0 L 630.4,130.0 L 637.7,129.4 L 645.1,129.4 L 652.4,129.4 L 659.8,128.8 L 667.1,125.8 L 674.5,123.5 L 681.8,120.5 L 689.2,119.9 L 696.5,118.2 L 703.9,112.8 L 711.2,108.1 L 718.6,107.5 L 725.9,106.9 L 733.3,105.2 L 740.6,99.3 L 748.0,98.1 L 755.3,96.3 L 762.7,92.8 L 770.0,92.2 L 770.0,340 Z" fill="url(#g1)" clip-path="url(#ca)"/>
<path d="M 72.0,294.6 L 79.3,294.0 L 86.7,294.0 L 94.0,292.2 L 101.4,292.2 L 108.7,291.0 L 116.1,289.9 L 123.4,289.3 L 130.8,286.3 L 138.1,283.9 L 145.5,283.9 L 152.8,283.9 L 160.2,283.9 L 167.5,282.8 L 174.9,282.8 L 182.2,282.8 L 189.6,281.6 L 196.9,279.2 L 204.3,275.1 L 211.6,272.1 L 218.9,271.0 L 226.3,270.4 L 233.6,268.0 L 241.0,260.9 L 248.3,258.6 L 255.7,258.6 L 263.0,252.7 L 270.4,250.9 L 277.7,248.6 L 285.1,246.8 L 292.4,243.2 L 299.8,240.3 L 307.1,239.7 L 314.5,235.0 L 321.8,230.8 L 329.2,230.8 L 336.5,227.9 L 343.9,225.5 L 351.2,224.9 L 358.5,224.4 L 365.9,223.8 L 373.2,222.0 L 380.6,211.4 L 387.9,206.7 L 395.3,204.3 L 402.6,203.1 L 410.0,201.3 L 417.3,197.2 L 424.7,196.0 L 432.0,194.9 L 439.4,191.3 L 446.7,190.1 L 454.1,189.0 L 461.4,189.0 L 468.8,178.3 L 476.1,177.2 L 483.5,176.0 L 490.8,173.6 L 498.1,170.7 L 505.5,170.7 L 512.8,166.0 L 520.2,158.3 L 527.5,157.1 L 534.9,157.7 L 542.2,155.9 L 549.6,155.3 L 556.9,155.3 L 564.3,151.8 L 571.6,148.8 L 579.0,146.5 L 586.3,143.5 L 593.7,142.9 L 601.0,142.9 L 608.4,138.8 L 615.7,137.6 L 623.1,137.0 L 630.4,130.0 L 637.7,129.4 L 645.1,129.4 L 652.4,129.4 L 659.8,128.8 L 667.1,125.8 L 674.5,123.5 L 681.8,120.5 L 689.2,119.9 L 696.5,118.2 L 703.9,112.8 L 711.2,108.1 L 718.6,107.5 L 725.9,106.9 L 733.3,105.2 L 740.6,99.3 L 748.0,98.1 L 755.3,96.3 L 762.7,92.8 L 770.0,92.2" fill="none" stroke="#FF6363" stroke-width="2.5" stroke-linejoin="round" clip-path="url(#ca)"/>
<text x="112.4" y="55.0" text-anchor="middle" font-size="9" fill="#FF6363" opacity="0.85" clip-path="url(#ca)">+0.7% (+18)</text>
<text x="252.0" y="55.0" text-anchor="middle" font-size="9" fill="#FF6363" opacity="0.85" clip-path="url(#ca)">+4.0% (+99)</text>
<text x="446.7" y="55.0" text-anchor="middle" font-size="9" fill="#FF6363" opacity="0.85" clip-path="url(#ca)">+4.5% (+117)</text>
<text x="645.1" y="55.0" text-anchor="middle" font-size="9" fill="#FF6363" opacity="0.85" clip-path="url(#ca)">+3.5% (+95)</text>
<text x="759.0" y="55.0" text-anchor="middle" font-size="9" fill="#FF6363" opacity="0.85" clip-path="url(#ca)">+0.4% (+10)</text>
<rect x="351" y="369" width="12" height="12" fill="#FF6363" rx="2"/>
<text x="367" y="379" font-size="12" fill="#111827">Extensions</text>
<text x="72" y="394" font-size="8" fill="#e5e7eb">data since Dec 11, 2025</text>
</svg>