<svg xmlns="http://www.w3.org/2000/svg" width="800" height="400" viewBox="0 0 800 400">
<defs>
  <style>text { font-family: -apple-system, BlinkMacSystemFont, 'Segoe UI', Roboto, sans-serif; }</style>
  <linearGradient id="g5" x1="0" y1="0" x2="0" y2="1">
  <stop offset="0%" stop-color="#34C759" stop-opacity="0.25"/>
  <stop offset="100%" stop-color="#34C759" stop-opacity="0"/>
</linearGradient>
<linearGradient id="g6" x1="0" y1="0" x2="0" y2="1">
  <stop offset="0%" stop-color="#4F8EF7" stop-opacity="0.25"/>
  <stop offset="100%" stop-color="#4F8EF7" stop-opacity="0"/>
</linearGradient>
<linearGradient id="g7" x1="0" y1="0" x2="0" y2="1">
  <stop offset="0%" stop-color="#FF6363" stop-opacity="0.25"/>
  <stop offset="100%" stop-color="#FF6363" stop-opacity="0"/>
</linearGradient>
  <clipPath id="ca"><rect x="72" y="45" width="698" height="295"/></clipPath>
</defs>
<rect width="800" height="400" fill="#ffffff" rx="12"/>
<text x="400" y="26" text-anchor="middle" font-size="15" font-weight="600" fill="#111827">Platform Support Over Time</text>
<line x1="72" y1="340.0" x2="770" y2="340.0" stroke="#f3f4f6" stroke-width="1"/>
<text x="66" y="344.0" text-anchor="end" font-size="11" fill="#6b7280">0</text>
<line x1="72" y1="266.3" x2="770" y2="266.3" stroke="#f3f4f6" stroke-width="1"/>
<text x="66" y="270.3" text-anchor="end" font-size="11" fill="#6b7280">200</text>
<line x1="72" y1="192.5" x2="770" y2="192.5" stroke="#f3f4f6" stroke-width="1"/>
<text x="66" y="196.5" text-anchor="end" font-size="11" fill="#6b7280">400</text>
<line x1="72" y1="118.8" x2="770" y2="118.8" stroke="#f3f4f6" stroke-width="1"/>
<text x="66" y="122.8" text-anchor="end" font-size="11" fill="#6b7280">600</text>
<line x1="72" y1="45.0" x2="770" y2="45.0" stroke="#f3f4f6" stroke-width="1"/>
<text x="66" y="49.0" text-anchor="end" font-size="11" fill="#6b7280">800</text>
<line x1="148.1" y1="45" x2="148.1" y2="340" stroke="#e5e7eb" stroke-width="1" stroke-dasharray="3,3" clip-path="url(#ca)"/>
<line x1="313.1" y1="45" x2="313.1" y2="340" stroke="#e5e7eb" stroke-width="1" stroke-dasharray="3,3" clip-path="url(#ca)"/>
<line x1="484.5" y1="45" x2="484.5" y2="340" stroke="#e5e7eb" stroke-width="1" stroke-dasharray="3,3" clip-path="url(#ca)"/>
<line x1="655.8" y1="45" x2="655.8" y2="340" stroke="#e5e7eb" stroke-width="1" stroke-dasharray="3,3" clip-path="url(#ca)"/>
<text x="72.0" y="358.0" text-anchor="middle" font-size="11" fill="#6b7280">Dec 11</text>
<text x="211.6" y="358.0" text-anchor="middle" font-size="11" fill="#6b7280">Jan 15</text>
<text x="351.2" y="358.0" text-anchor="middle" font-size="11" fill="#6b7280">Feb 7</text>
<text x="490.8" y="358.0" text-anchor="middle" font-size="11" fill="#6b7280">Mar 2</text>
<text x="630.4" y="358.0" text-anchor="middle" font-size="11" fill="#6b7280">Mar 26</text>
<text x="770.0" y="358.0" text-anchor="middle" font-size="11" fill="#6b7280">Apr 21</text>
<line x1="72" y1="45" x2="72" y2="340" stroke="#e5e7eb" stroke-width="1"/>
<line x1="72" y1="340" x2="770" y2="340" stroke="#e5e7eb" stroke-width="1"/>
<text x="-192.5" y="18" text-anchor="middle" font-size="12" fill="#6b7280" transform="rotate(-90)">Extensions</text>
<path d="M 72.0,340 L 72.0,218.3 L 78.3,215.0 L 84.7,214.6 L 91.0,213.2 L 97.4,212.4 L 103.7,208.7 L 110.1,206.5 L 116.4,205.4 L 122.8,203.6 L 129.1,201.3 L 135.5,200.2 L 141.8,199.9 L 148.1,198.8 L 154.5,198.0 L 160.8,197.7 L 167.2,196.6 L 173.5,195.4 L 179.9,194.3 L 186.2,193.2 L 192.6,191.8 L 198.9,190.7 L 205.3,189.6 L 211.6,188.4 L 217.9,186.2 L 224.3,185.5 L 230.6,185.5 L 237.0,182.9 L 243.3,182.2 L 249.7,181.4 L 256.0,180.7 L 262.4,178.9 L 268.7,176.3 L 275.1,175.9 L 281.4,175.5 L 287.7,173.3 L 294.1,172.6 L 300.4,170.7 L 306.8,170.4 L 313.1,170.0 L 319.5,169.3 L 325.8,169.3 L 332.2,169.3 L 338.5,164.1 L 344.9,163.7 L 351.2,162.6 L 357.5,162.3 L 363.9,161.9 L 370.2,160.8 L 376.6,160.1 L 382.9,159.3 L 389.3,157.1 L 395.6,157.1 L 402.0,157.1 L 408.3,156.7 L 414.7,153.0 L 421.0,151.9 L 427.3,151.2 L 433.7,150.1 L 440.0,149.4 L 446.4,149.4 L 452.7,147.5 L 459.1,144.9 L 465.4,144.2 L 471.8,143.8 L 478.1,142.7 L 484.5,142.7 L 490.8,142.0 L 497.1,140.9 L 503.5,140.1 L 509.8,138.7 L 516.2,137.2 L 522.5,136.8 L 528.9,136.8 L 535.2,135.3 L 541.6,135.3 L 547.9,135.3 L 554.3,133.1 L 560.6,132.8 L 566.9,132.4 L 573.3,132.4 L 579.6,132.0 L 586.0,130.6 L 592.3,129.8 L 598.7,128.7 L 605.0,128.7 L 611.4,128.3 L 617.7,126.9 L 624.1,125.8 L 630.4,125.8 L 636.7,125.4 L 643.1,124.7 L 649.4,122.1 L 655.8,121.3 L 662.1,120.2 L 668.5,120.2 L 674.8,119.5 L 681.2,119.1 L 687.5,118.8 L 693.9,118.4 L 700.2,118.0 L 706.5,118.0 L 712.9,117.6 L 719.2,117.3 L 725.6,116.2 L 731.9,114.7 L 738.3,114.3 L 744.6,113.2 L 751.0,113.2 L 757.3,111.7 L 763.7,111.4 L 770.0,111.4 L 770.0,340 Z" fill="url(#g5)" clip-path="url(#ca)"/>
<path d="M 72.0,218.3 L 78.3,215.0 L 84.7,214.6 L 91.0,213.2 L 97.4,212.4 L 103.7,208.7 L 110.1,206.5 L 116.4,205.4 L 122.8,203.6 L 129.1,201.3 L 135.5,200.2 L 141.8,199.9 L 148.1,198.8 L 154.5,198.0 L 160.8,197.7 L 167.2,196.6 L 173.5,195.4 L 179.9,194.3 L 186.2,193.2 L 192.6,191.8 L 198.9,190.7 L 205.3,189.6 L 211.6,188.4 L 217.9,186.2 L 224.3,185.5 L 230.6,185.5 L 237.0,182.9 L 243.3,182.2 L 249.7,181.4 L 256.0,180.7 L 262.4,178.9 L 268.7,176.3 L 275.1,175.9 L 281.4,175.5 L 287.7,173.3 L 294.1,172.6 L 300.4,170.7 L 306.8,170.4 L 313.1,170.0 L 319.5,169.3 L 325.8,169.3 L 332.2,169.3 L 338.5,164.1 L 344.9,163.7 L 351.2,162.6 L 357.5,162.3 L 363.9,161.9 L 370.2,160.8 L 376.6,160.1 L 382.9,159.3 L 389.3,157.1 L 395.6,157.1 L 402.0,157.1 L 408.3,156.7 L 414.7,153.0 L 421.0,151.9 L 427.3,151.2 L 433.7,150.1 L 440.0,149.4 L 446.4,149.4 L 452.7,147.5 L 459.1,144.9 L 465.4,144.2 L 471.8,143.8 L 478.1,142.7 L 484.5,142.7 L 490.8,142.0 L 497.1,140.9 L 503.5,140.1 L 509.8,138.7 L 516.2,137.2 L 522.5,136.8 L 528.9,136.8 L 535.2,135.3 L 541.6,135.3 L 547.9,135.3 L 554.3,133.1 L 560.6,132.8 L 566.9,132.4 L 573.3,132.4 L 579.6,132.0 L 586.0,130.6 L 592.3,129.8 L 598.7,128.7 L 605.0,128.7 L 611.4,128.3 L 617.7,126.9 L 624.1,125.8 L 630.4,125.8 L 636.7,125.4 L 643.1,124.7 L 649.4,122.1 L 655.8,121.3 L 662.1,120.2 L 668.5,120.2 L 674.8,119.5 L 681.2,119.1 L 687.5,118.8 L 693.9,118.4 L 700.2,118.0 L 706.5,118.0 L 712.9,117.6 L 719.2,117.3 L 725.6,116.2 L 731.9,114.7 L 738.3,114.3 L 744.6,113.2 L 751.0,113.2 L 757.3,111.7 L 763.7,111.4 L 770.0,111.4" fill="none" stroke="#34C759" stroke-width="2.5" stroke-linejoin="round" clip-path="url(#ca)"/>
<path d="M 72.0,340 L 72.0,193.2 L 78.3,193.2 L 84.7,192.9 L 91.0,191.8 L 97.4,192.1 L 103.7,192.1 L 110.1,190.7 L 116.4,189.6 L 122.8,189.6 L 129.1,189.9 L 135.5,189.6 L 141.8,189.2 L 148.1,188.8 L 154.5,188.8 L 160.8,188.8 L 167.2,189.2 L 173.5,188.4 L 179.9,187.7 L 186.2,185.5 L 192.6,184.0 L 198.9,184.0 L 205.3,183.7 L 211.6,181.4 L 217.9,178.1 L 224.3,177.0 L 230.6,176.3 L 237.0,173.7 L 243.3,171.9 L 249.7,171.1 L 256.0,170.4 L 262.4,169.6 L 268.7,169.3 L 275.1,169.3 L 281.4,166.7 L 287.7,166.0 L 294.1,165.2 L 300.4,165.2 L 306.8,163.4 L 313.1,163.0 L 319.5,161.9 L 325.8,160.4 L 332.2,158.6 L 338.5,156.0 L 344.9,153.4 L 351.2,153.0 L 357.5,152.3 L 363.9,151.6 L 370.2,149.4 L 376.6,149.4 L 382.9,148.6 L 389.3,147.5 L 395.6,146.8 L 402.0,145.3 L 408.3,145.7 L 414.7,141.2 L 421.0,140.9 L 427.3,140.5 L 433.7,139.8 L 440.0,137.6 L 446.4,137.6 L 452.7,135.3 L 459.1,132.8 L 465.4,132.8 L 471.8,132.8 L 478.1,132.4 L 484.5,132.0 L 490.8,131.7 L 497.1,129.8 L 503.5,127.6 L 509.8,126.9 L 516.2,125.4 L 522.5,125.4 L 528.9,124.3 L 535.2,122.1 L 541.6,121.0 L 547.9,120.6 L 554.3,118.0 L 560.6,117.6 L 566.9,117.6 L 573.3,117.3 L 579.6,117.3 L 586.0,115.4 L 592.3,114.7 L 598.7,113.6 L 605.0,113.2 L 611.4,112.5 L 617.7,109.5 L 624.1,105.5 L 630.4,105.1 L 636.7,104.4 L 643.1,104.0 L 649.4,102.2 L 655.8,63.1 L 662.1,62.3 L 668.5,60.5 L 674.8,60.5 L 681.2,60.5 L 687.5,60.9 L 693.9,60.5 L 700.2,58.3 L 706.5,57.5 L 712.9,57.2 L 719.2,56.8 L 725.6,55.3 L 731.9,53.1 L 738.3,53.1 L 744.6,53.1 L 751.0,52.7 L 757.3,52.4 L 763.7,52.4 L 770.0,51.6 L 770.0,340 Z" fill="url(#g6)" clip-path="url(#ca)"/>
<path d="M 72.0,193.2 L 78.3,193.2 L 84.7,192.9 L 91.0,191.8 L 97.4,192.1 L 103.7,192.1 L 110.1,190.7 L 116.4,189.6 L 122.8,189.6 L 129.1,189.9 L 135.5,189.6 L 141.8,189.2 L 148.1,188.8 L 154.5,188.8 L 160.8,188.8 L 167.2,189.2 L 173.5,188.4 L 179.9,187.7 L 186.2,185.5 L 192.6,184.0 L 198.9,184.0 L 205.3,183.7 L 211.6,181.4 L 217.9,178.1 L 224.3,177.0 L 230.6,176.3 L 237.0,173.7 L 243.3,171.9 L 249.7,171.1 L 256.0,170.4 L 262.4,169.6 L 268.7,169.3 L 275.1,169.3 L 281.4,166.7 L 287.7,166.0 L 294.1,165.2 L 300.4,165.2 L 306.8,163.4 L 313.1,163.0 L 319.5,161.9 L 325.8,160.4 L 332.2,158.6 L 338.5,156.0 L 344.9,153.4 L 351.2,153.0 L 357.5,152.3 L 363.9,151.6 L 370.2,149.4 L 376.6,149.4 L 382.9,148.6 L 389.3,147.5 L 395.6,146.8 L 402.0,145.3 L 408.3,145.7 L 414.7,141.2 L 421.0,140.9 L 427.3,140.5 L 433.7,139.8 L 440.0,137.6 L 446.4,137.6 L 452.7,135.3 L 459.1,132.8 L 465.4,132.8 L 471.8,132.8 L 478.1,132.4 L 484.5,132.0 L 490.8,131.7 L 497.1,129.8 L 503.5,127.6 L 509.8,126.9 L 516.2,125.4 L 522.5,125.4 L 528.9,124.3 L 535.2,122.1 L 541.6,121.0 L 547.9,120.6 L 554.3,118.0 L 560.6,117.6 L 566.9,117.6 L 573.3,117.3 L 579.6,117.3 L 586.0,115.4 L 592.3,114.7 L 598.7,113.6 L 605.0,113.2 L 611.4,112.5 L 617.7,109.5 L 624.1,105.5 L 630.4,105.1 L 636.7,104.4 L 643.1,104.0 L 649.4,102.2 L 655.8,63.1 L 662.1,62.3 L 668.5,60.5 L 674.8,60.5 L 681.2,60.5 L 687.5,60.9 L 693.9,60.5 L 700.2,58.3 L 706.5,57.5 L 712.9,57.2 L 719.2,56.8 L 725.6,55.3 L 731.9,53.1 L 738.3,53.1 L 744.6,53.1 L 751.0,52.7 L 757.3,52.4 L 763.7,52.4 L 770.0,51.6" fill="none" stroke="#4F8EF7" stroke-width="2.5" stroke-linejoin="round" clip-path="url(#ca)"/>
<path d="M 72.0,340 L 72.0,337.8 L 78.3,337.4 L 84.7,337.4 L 91.0,337.1 L 97.4,337.1 L 103.7,337.1 L 110.1,337.1 L 116.4,337.1 L 122.8,336.3 L 129.1,336.3 L 135.5,336.3 L 141.8,336.3 L 148.1,336.3 L 154.5,335.9 L 160.8,335.9 L 167.2,335.9 L 173.5,335.9 L 179.9,335.9 L 186.2,335.6 L 192.6,334.8 L 198.9,334.5 L 205.3,334.5 L 211.6,334.5 L 217.9,334.1 L 224.3,334.1 L 230.6,334.1 L 237.0,333.7 L 243.3,333.7 L 249.7,333.7 L 256.0,333.4 L 262.4,333.4 L 268.7,333.4 L 275.1,333.4 L 281.4,333.0 L 287.7,333.0 L 294.1,333.0 L 300.4,333.0 L 306.8,333.0 L 313.1,333.0 L 319.5,333.0 L 325.8,333.0 L 332.2,333.0 L 338.5,333.0 L 344.9,333.0 L 351.2,333.0 L 357.5,333.0 L 363.9,332.6 L 370.2,332.6 L 376.6,332.6 L 382.9,332.6 L 389.3,332.6 L 395.6,332.6 L 402.0,332.6 L 408.3,332.6 L 414.7,332.6 L 421.0,332.6 L 427.3,332.6 L 433.7,332.6 L 440.0,332.3 L 446.4,332.3 L 452.7,332.3 L 459.1,332.3 L 465.4,332.3 L 471.8,332.3 L 478.1,332.3 L 484.5,332.3 L 490.8,332.3 L 497.1,332.3 L 503.5,332.3 L 509.8,332.3 L 516.2,332.3 L 522.5,332.3 L 528.9,332.3 L 535.2,332.3 L 541.6,332.3 L 547.9,332.3 L 554.3,332.3 L 560.6,332.3 L 566.9,332.3 L 573.3,332.3 L 579.6,332.3 L 586.0,332.3 L 592.3,332.3 L 598.7,332.3 L 605.0,332.3 L 611.4,332.3 L 617.7,332.3 L 624.1,332.3 L 630.4,332.3 L 636.7,332.3 L 643.1,332.3 L 649.4,332.3 L 655.8,332.3 L 662.1,332.3 L 668.5,331.9 L 674.8,331.9 L 681.2,331.9 L 687.5,331.9 L 693.9,331.9 L 700.2,331.5 L 706.5,331.5 L 712.9,331.5 L 719.2,331.5 L 725.6,331.1 L 731.9,331.1 L 738.3,330.8 L 744.6,330.8 L 751.0,330.8 L 757.3,330.8 L 763.7,330.8 L 770.0,330.8 L 770.0,340 Z" fill="url(#g7)" clip-path="url(#ca)"/>
<path d="M 72.0,337.8 L 78.3,337.4 L 84.7,337.4 L 91.0,337.1 L 97.4,337.1 L 103.7,337.1 L 110.1,337.1 L 116.4,337.1 L 122.8,336.3 L 129.1,336.3 L 135.5,336.3 L 141.8,336.3 L 148.1,336.3 L 154.5,335.9 L 160.8,335.9 L 167.2,335.9 L 173.5,335.9 L 179.9,335.9 L 186.2,335.6 L 192.6,334.8 L 198.9,334.5 L 205.3,334.5 L 211.6,334.5 L 217.9,334.1 L 224.3,334.1 L 230.6,334.1 L 237.0,333.7 L 243.3,333.7 L 249.7,333.7 L 256.0,333.4 L 262.4,333.4 L 268.7,333.4 L 275.1,333.4 L 281.4,333.0 L 287.7,333.0 L 294.1,333.0 L 300.4,333.0 L 306.8,333.0 L 313.1,333.0 L 319.5,333.0 L 325.8,333.0 L 332.2,333.0 L 338.5,333.0 L 344.9,333.0 L 351.2,333.0 L 357.5,333.0 L 363.9,332.6 L 370.2,332.6 L 376.6,332.6 L 382.9,332.6 L 389.3,332.6 L 395.6,332.6 L 402.0,332.6 L 408.3,332.6 L 414.7,332.6 L 421.0,332.6 L 427.3,332.6 L 433.7,332.6 L 440.0,332.3 L 446.4,332.3 L 452.7,332.3 L 459.1,332.3 L 465.4,332.3 L 471.8,332.3 L 478.1,332.3 L 484.5,332.3 L 490.8,332.3 L 497.1,332.3 L 503.5,332.3 L 509.8,332.3 L 516.2,332.3 L 522.5,332.3 L 528.9,332.3 L 535.2,332.3 L 541.6,332.3 L 547.9,332.3 L 554.3,332.3 L 560.6,332.3 L 566.9,332.3 L 573.3,332.3 L 579.6,332.3 L 586.0,332.3 L 592.3,332.3 L 598.7,332.3 L 605.0,332.3 L 611.4,332.3 L 617.7,332.3 L 624.1,332.3 L 630.4,332.3 L 636.7,332.3 L 643.1,332.3 L 649.4,332.3 L 655.8,332.3 L 662.1,332.3 L 668.5,331.9 L 674.8,331.9 L 681.2,331.9 L 687.5,331.9 L 693.9,331.9 L 700.2,331.5 L 706.5,331.5 L 712.9,331.5 L 719.2,331.5 L 725.6,331.1 L 731.9,331.1 L 738.3,330.8 L 744.6,330.8 L 751.0,330.8 L 757.3,330.8 L 763.7,330.8 L 770.0,330.8" fill="none" stroke="#FF6363" stroke-width="2.5" stroke-linejoin="round" clip-path="url(#ca)"/>
<text x="106.9" y="55.0" text-anchor="middle" font-size="9" fill="#34C759" opacity="0.85" clip-path="url(#ca)">+15.2% (+50)</text>
<text x="106.9" y="66.0" text-anchor="middle" font-size="9" fill="#4F8EF7" opacity="0.85" clip-path="url(#ca)">+2.8% (+11)</text>
<text x="106.9" y="77.0" text-anchor="middle" font-size="9" fill="#FF6363" opacity="0.85" clip-path="url(#ca)">+66.7% (+4)</text>
<text x="227.5" y="55.0" text-anchor="middle" font-size="9" fill="#34C759" opacity="0.85" clip-path="url(#ca)">+20.1% (+77)</text>
<text x="227.5" y="66.0" text-anchor="middle" font-size="9" fill="#4F8EF7" opacity="0.85" clip-path="url(#ca)">+16.8% (+69)</text>
<text x="227.5" y="77.0" text-anchor="middle" font-size="9" fill="#FF6363" opacity="0.85" clip-path="url(#ca)">+90.0% (+9)</text>
<text x="395.6" y="55.0" text-anchor="middle" font-size="9" fill="#34C759" opacity="0.85" clip-path="url(#ca)">+16.1% (+74)</text>
<text x="395.6" y="66.0" text-anchor="middle" font-size="9" fill="#4F8EF7" opacity="0.85" clip-path="url(#ca)">+17.3% (+83)</text>
<text x="395.6" y="77.0" text-anchor="middle" font-size="9" fill="#FF6363" opacity="0.85" clip-path="url(#ca)">+10.5% (+2)</text>
<text x="566.9" y="55.0" text-anchor="middle" font-size="9" fill="#34C759" opacity="0.85" clip-path="url(#ca)">+10.5% (+56)</text>
<text x="566.9" y="66.0" text-anchor="middle" font-size="9" fill="#4F8EF7" opacity="0.85" clip-path="url(#ca)">+14.4% (+81)</text>
<text x="566.9" y="77.0" text-anchor="middle" font-size="9" fill="#FF6363" opacity="0.85" clip-path="url(#ca)">+0.0% (+0)</text>
<text x="712.9" y="55.0" text-anchor="middle" font-size="9" fill="#34C759" opacity="0.85" clip-path="url(#ca)">+4.6% (+27)</text>
<text x="712.9" y="66.0" text-anchor="middle" font-size="9" fill="#4F8EF7" opacity="0.85" clip-path="url(#ca)">+4.1% (+31)</text>
<text x="712.9" y="77.0" text-anchor="middle" font-size="9" fill="#FF6363" opacity="0.85" clip-path="url(#ca)">+19.0% (+4)</text>
<rect x="211" y="369" width="12" height="12" fill="#34C759" rx="2"/>
<text x="227" y="379" font-size="12" fill="#111827">macOS + Windows</text>
<rect x="351" y="369" width="12" height="12" fill="#4F8EF7" rx="2"/>
<text x="367" y="379" font-size="12" fill="#111827">macOS only</text>
<rect x="491" y="369" width="12" height="12" fill="#FF6363" rx="2"/>
<text x="507" y="379" font-size="12" fill="#111827">Windows only</text>
<text x="72" y="394" font-size="8" fill="#e5e7eb">data since Dec 11, 2025</text>
</svg>