<svg xmlns="http://www.w3.org/2000/svg" width="800" height="400" viewBox="0 0 800 400">
<defs>
  <style>text { font-family: -apple-system, BlinkMacSystemFont, 'Segoe UI', Roboto, sans-serif; }</style>
  <linearGradient id="g2" x1="0" y1="0" x2="0" y2="1">
  <stop offset="0%" stop-color="#4F8EF7" stop-opacity="0.25"/>
  <stop offset="100%" stop-color="#4F8EF7" stop-opacity="0"/>
</linearGradient>
<linearGradient id="g3" x1="0" y1="0" x2="0" y2="1">
  <stop offset="0%" stop-color="#BF5AF2" stop-opacity="0.25"/>
  <stop offset="100%" stop-color="#BF5AF2" stop-opacity="0"/>
</linearGradient>
<linearGradient id="g4" x1="0" y1="0" x2="0" y2="1">
  <stop offset="0%" stop-color="#34C759" stop-opacity="0.25"/>
  <stop offset="100%" stop-color="#34C759" stop-opacity="0"/>
</linearGradient>
  <clipPath id="ca"><rect x="72" y="45" width="698" height="295"/></clipPath>
</defs>
<rect width="800" height="400" fill="#ffffff" rx="12"/>
<text x="400" y="26" text-anchor="middle" font-size="15" font-weight="600" fill="#111827">Community Growth Over Time</text>
<line x1="72" y1="340.0" x2="770" y2="340.0" stroke="#f3f4f6" stroke-width="1"/>
<text x="66" y="344.0" text-anchor="end" font-size="11" fill="#6b7280">500</text>
<line x1="72" y1="241.7" x2="770" y2="241.7" stroke="#f3f4f6" stroke-width="1"/>
<text x="66" y="245.7" text-anchor="end" font-size="11" fill="#6b7280">1.0k</text>
<line x1="72" y1="143.3" x2="770" y2="143.3" stroke="#f3f4f6" stroke-width="1"/>
<text x="66" y="147.3" text-anchor="end" font-size="11" fill="#6b7280">1.5k</text>
<line x1="72" y1="45.0" x2="770" y2="45.0" stroke="#f3f4f6" stroke-width="1"/>
<text x="66" y="49.0" text-anchor="end" font-size="11" fill="#6b7280">2.0k</text>
<line x1="168.3" y1="45" x2="168.3" y2="340" stroke="#e5e7eb" stroke-width="1" stroke-dasharray="3,3" clip-path="url(#ca)"/>
<line x1="376.9" y1="45" x2="376.9" y2="340" stroke="#e5e7eb" stroke-width="1" stroke-dasharray="3,3" clip-path="url(#ca)"/>
<line x1="593.5" y1="45" x2="593.5" y2="340" stroke="#e5e7eb" stroke-width="1" stroke-dasharray="3,3" clip-path="url(#ca)"/>
<text x="72.0" y="358.0" text-anchor="middle" font-size="11" fill="#6b7280">Dec 11</text>
<text x="208.4" y="358.0" text-anchor="middle" font-size="11" fill="#6b7280">Jan 8</text>
<text x="352.8" y="358.0" text-anchor="middle" font-size="11" fill="#6b7280">Jan 29</text>
<text x="489.2" y="358.0" text-anchor="middle" font-size="11" fill="#6b7280">Feb 15</text>
<text x="633.6" y="358.0" text-anchor="middle" font-size="11" fill="#6b7280">Mar 6</text>
<text x="770.0" y="358.0" text-anchor="middle" font-size="11" fill="#6b7280">Mar 25</text>
<line x1="72" y1="45" x2="72" y2="340" stroke="#e5e7eb" stroke-width="1"/>
<line x1="72" y1="340" x2="770" y2="340" stroke="#e5e7eb" stroke-width="1"/>
<text x="-192.5" y="18" text-anchor="middle" font-size="12" fill="#6b7280" transform="rotate(-90)">People</text>
<path d="M 72.0,340 L 72.0,120.1 L 80.0,120.1 L 88.0,120.1 L 96.1,119.5 L 104.1,119.5 L 112.1,119.1 L 120.1,118.9 L 128.2,119.1 L 136.2,118.6 L 144.2,118.6 L 152.2,118.6 L 160.3,118.6 L 168.3,118.6 L 176.3,118.6 L 184.3,118.6 L 192.3,118.6 L 200.4,118.4 L 208.4,117.8 L 216.4,116.6 L 224.4,116.0 L 232.5,115.8 L 240.5,115.8 L 248.5,115.2 L 256.5,113.8 L 264.6,113.0 L 272.6,113.0 L 280.6,112.1 L 288.6,111.7 L 296.6,110.9 L 304.7,110.3 L 312.7,109.7 L 320.7,109.1 L 328.7,109.1 L 336.8,107.7 L 344.8,106.9 L 352.8,106.9 L 360.8,106.2 L 368.9,105.8 L 376.9,105.6 L 384.9,105.4 L 392.9,105.4 L 400.9,104.8 L 409.0,102.4 L 417.0,101.0 L 425.0,100.3 L 433.0,100.1 L 441.1,99.7 L 449.1,98.9 L 457.1,98.5 L 465.1,98.1 L 473.1,97.7 L 481.2,97.3 L 489.2,96.9 L 497.2,96.9 L 505.2,95.0 L 513.3,95.0 L 521.3,94.8 L 529.3,94.6 L 537.3,94.2 L 545.4,94.2 L 553.4,93.2 L 561.4,92.0 L 569.4,91.6 L 577.4,92.0 L 585.5,91.8 L 593.5,91.6 L 601.5,91.6 L 609.5,91.2 L 617.6,90.4 L 625.6,90.0 L 633.6,89.6 L 641.6,89.4 L 649.7,89.4 L 657.7,88.7 L 665.7,88.3 L 673.7,88.3 L 681.7,86.7 L 689.8,86.7 L 697.8,86.7 L 705.8,86.7 L 713.8,86.5 L 721.9,85.9 L 729.9,85.1 L 737.9,84.7 L 745.9,84.7 L 754.0,84.3 L 762.0,82.8 L 770.0,81.8 L 770.0,340 Z" fill="url(#g2)" clip-path="url(#ca)"/>
<path d="M 72.0,120.1 L 80.0,120.1 L 88.0,120.1 L 96.1,119.5 L 104.1,119.5 L 112.1,119.1 L 120.1,118.9 L 128.2,119.1 L 136.2,118.6 L 144.2,118.6 L 152.2,118.6 L 160.3,118.6 L 168.3,118.6 L 176.3,118.6 L 184.3,118.6 L 192.3,118.6 L 200.4,118.4 L 208.4,117.8 L 216.4,116.6 L 224.4,116.0 L 232.5,115.8 L 240.5,115.8 L 248.5,115.2 L 256.5,113.8 L 264.6,113.0 L 272.6,113.0 L 280.6,112.1 L 288.6,111.7 L 296.6,110.9 L 304.7,110.3 L 312.7,109.7 L 320.7,109.1 L 328.7,109.1 L 336.8,107.7 L 344.8,106.9 L 352.8,106.9 L 360.8,106.2 L 368.9,105.8 L 376.9,105.6 L 384.9,105.4 L 392.9,105.4 L 400.9,104.8 L 409.0,102.4 L 417.0,101.0 L 425.0,100.3 L 433.0,100.1 L 441.1,99.7 L 449.1,98.9 L 457.1,98.5 L 465.1,98.1 L 473.1,97.7 L 481.2,97.3 L 489.2,96.9 L 497.2,96.9 L 505.2,95.0 L 513.3,95.0 L 521.3,94.8 L 529.3,94.6 L 537.3,94.2 L 545.4,94.2 L 553.4,93.2 L 561.4,92.0 L 569.4,91.6 L 577.4,92.0 L 585.5,91.8 L 593.5,91.6 L 601.5,91.6 L 609.5,91.2 L 617.6,90.4 L 625.6,90.0 L 633.6,89.6 L 641.6,89.4 L 649.7,89.4 L 657.7,88.7 L 665.7,88.3 L 673.7,88.3 L 681.7,86.7 L 689.8,86.7 L 697.8,86.7 L 705.8,86.7 L 713.8,86.5 L 721.9,85.9 L 729.9,85.1 L 737.9,84.7 L 745.9,84.7 L 754.0,84.3 L 762.0,82.8 L 770.0,81.8" fill="none" stroke="#4F8EF7" stroke-width="2.5" stroke-linejoin="round" clip-path="url(#ca)"/>
<path d="M 72.0,340 L 72.0,244.2 L 80.0,243.6 L 88.0,243.6 L 96.1,243.6 L 104.1,243.4 L 112.1,243.0 L 120.1,242.8 L 128.2,242.6 L 136.2,242.6 L 144.2,242.5 L 152.2,242.3 L 160.3,242.3 L 168.3,242.3 L 176.3,242.3 L 184.3,242.3 L 192.3,242.3 L 200.4,241.9 L 208.4,241.9 L 216.4,241.9 L 224.4,241.1 L 232.5,240.9 L 240.5,240.5 L 248.5,239.7 L 256.5,239.5 L 264.6,239.5 L 272.6,239.5 L 280.6,238.9 L 288.6,238.5 L 296.6,238.5 L 304.7,238.1 L 312.7,237.9 L 320.7,237.5 L 328.7,237.5 L 336.8,237.3 L 344.8,236.6 L 352.8,236.0 L 360.8,235.6 L 368.9,235.4 L 376.9,235.4 L 384.9,235.2 L 392.9,234.8 L 400.9,234.8 L 409.0,234.6 L 417.0,234.0 L 425.0,233.6 L 433.0,233.6 L 441.1,233.6 L 449.1,233.6 L 457.1,233.4 L 465.1,232.8 L 473.1,232.4 L 481.2,232.2 L 489.2,232.0 L 497.2,231.8 L 505.2,231.6 L 513.3,231.4 L 521.3,231.2 L 529.3,230.7 L 537.3,230.5 L 545.4,230.3 L 553.4,229.5 L 561.4,228.7 L 569.4,228.7 L 577.4,228.5 L 585.5,228.3 L 593.5,228.3 L 601.5,228.3 L 609.5,227.9 L 617.6,227.9 L 625.6,226.7 L 633.6,226.5 L 641.6,226.3 L 649.7,226.3 L 657.7,225.9 L 665.7,225.7 L 673.7,225.7 L 681.7,225.5 L 689.8,225.5 L 697.8,225.5 L 705.8,225.1 L 713.8,224.9 L 721.9,224.0 L 729.9,224.2 L 737.9,224.0 L 745.9,223.8 L 754.0,223.8 L 762.0,223.6 L 770.0,223.0 L 770.0,340 Z" fill="url(#g3)" clip-path="url(#ca)"/>
<path d="M 72.0,244.2 L 80.0,243.6 L 88.0,243.6 L 96.1,243.6 L 104.1,243.4 L 112.1,243.0 L 120.1,242.8 L 128.2,242.6 L 136.2,242.6 L 144.2,242.5 L 152.2,242.3 L 160.3,242.3 L 168.3,242.3 L 176.3,242.3 L 184.3,242.3 L 192.3,242.3 L 200.4,241.9 L 208.4,241.9 L 216.4,241.9 L 224.4,241.1 L 232.5,240.9 L 240.5,240.5 L 248.5,239.7 L 256.5,239.5 L 264.6,239.5 L 272.6,239.5 L 280.6,238.9 L 288.6,238.5 L 296.6,238.5 L 304.7,238.1 L 312.7,237.9 L 320.7,237.5 L 328.7,237.5 L 336.8,237.3 L 344.8,236.6 L 352.8,236.0 L 360.8,235.6 L 368.9,235.4 L 376.9,235.4 L 384.9,235.2 L 392.9,234.8 L 400.9,234.8 L 409.0,234.6 L 417.0,234.0 L 425.0,233.6 L 433.0,233.6 L 441.1,233.6 L 449.1,233.6 L 457.1,233.4 L 465.1,232.8 L 473.1,232.4 L 481.2,232.2 L 489.2,232.0 L 497.2,231.8 L 505.2,231.6 L 513.3,231.4 L 521.3,231.2 L 529.3,230.7 L 537.3,230.5 L 545.4,230.3 L 553.4,229.5 L 561.4,228.7 L 569.4,228.7 L 577.4,228.5 L 585.5,228.3 L 593.5,228.3 L 601.5,228.3 L 609.5,227.9 L 617.6,227.9 L 625.6,226.7 L 633.6,226.5 L 641.6,226.3 L 649.7,226.3 L 657.7,225.9 L 665.7,225.7 L 673.7,225.7 L 681.7,225.5 L 689.8,225.5 L 697.8,225.5 L 705.8,225.1 L 713.8,224.9 L 721.9,224.0 L 729.9,224.2 L 737.9,224.0 L 745.9,223.8 L 754.0,223.8 L 762.0,223.6 L 770.0,223.0" fill="none" stroke="#BF5AF2" stroke-width="2.5" stroke-linejoin="round" clip-path="url(#ca)"/>
<path d="M 72.0,340 L 72.0,291.4 L 80.0,290.8 L 88.0,290.8 L 96.1,290.8 L 104.1,290.6 L 112.1,290.2 L 120.1,290.0 L 128.2,289.7 L 136.2,289.7 L 144.2,289.5 L 152.2,289.3 L 160.3,289.3 L 168.3,289.3 L 176.3,289.3 L 184.3,289.3 L 192.3,289.3 L 200.4,288.9 L 208.4,288.9 L 216.4,289.1 L 224.4,288.5 L 232.5,288.7 L 240.5,288.1 L 248.5,287.5 L 256.5,287.3 L 264.6,287.5 L 272.6,287.5 L 280.6,286.9 L 288.6,286.7 L 296.6,286.7 L 304.7,286.3 L 312.7,286.1 L 320.7,285.7 L 328.7,285.7 L 336.8,285.5 L 344.8,284.9 L 352.8,284.3 L 360.8,283.9 L 368.9,283.9 L 376.9,283.9 L 384.9,283.8 L 392.9,283.4 L 400.9,283.4 L 409.0,283.2 L 417.0,282.6 L 425.0,282.4 L 433.0,282.4 L 441.1,282.4 L 449.1,282.4 L 457.1,282.2 L 465.1,281.6 L 473.1,281.4 L 481.2,281.2 L 489.2,281.0 L 497.2,281.0 L 505.2,280.8 L 513.3,280.8 L 521.3,280.8 L 529.3,280.2 L 537.3,280.2 L 545.4,280.2 L 553.4,279.8 L 561.4,279.2 L 569.4,279.2 L 577.4,279.0 L 585.5,278.8 L 593.5,278.8 L 601.5,278.8 L 609.5,278.4 L 617.6,278.4 L 625.6,277.3 L 633.6,277.1 L 641.6,276.9 L 649.7,276.9 L 657.7,276.7 L 665.7,276.7 L 673.7,276.7 L 681.7,276.7 L 689.8,276.7 L 697.8,276.7 L 705.8,276.3 L 713.8,276.1 L 721.9,275.1 L 729.9,275.3 L 737.9,275.3 L 745.9,275.1 L 754.0,275.1 L 762.0,275.1 L 770.0,274.7 L 770.0,340 Z" fill="url(#g4)" clip-path="url(#ca)"/>
<path d="M 72.0,291.4 L 80.0,290.8 L 88.0,290.8 L 96.1,290.8 L 104.1,290.6 L 112.1,290.2 L 120.1,290.0 L 128.2,289.7 L 136.2,289.7 L 144.2,289.5 L 152.2,289.3 L 160.3,289.3 L 168.3,289.3 L 176.3,289.3 L 184.3,289.3 L 192.3,289.3 L 200.4,288.9 L 208.4,288.9 L 216.4,289.1 L 224.4,288.5 L 232.5,288.7 L 240.5,288.1 L 248.5,287.5 L 256.5,287.3 L 264.6,287.5 L 272.6,287.5 L 280.6,286.9 L 288.6,286.7 L 296.6,286.7 L 304.7,286.3 L 312.7,286.1 L 320.7,285.7 L 328.7,285.7 L 336.8,285.5 L 344.8,284.9 L 352.8,284.3 L 360.8,283.9 L 368.9,283.9 L 376.9,283.9 L 384.9,283.8 L 392.9,283.4 L 400.9,283.4 L 409.0,283.2 L 417.0,282.6 L 425.0,282.4 L 433.0,282.4 L 441.1,282.4 L 449.1,282.4 L 457.1,282.2 L 465.1,281.6 L 473.1,281.4 L 481.2,281.2 L 489.2,281.0 L 497.2,281.0 L 505.2,280.8 L 513.3,280.8 L 521.3,280.8 L 529.3,280.2 L 537.3,280.2 L 545.4,280.2 L 553.4,279.8 L 561.4,279.2 L 569.4,279.2 L 577.4,279.0 L 585.5,278.8 L 593.5,278.8 L 601.5,278.8 L 609.5,278.4 L 617.6,278.4 L 625.6,277.3 L 633.6,277.1 L 641.6,276.9 L 649.7,276.9 L 657.7,276.7 L 665.7,276.7 L 673.7,276.7 L 681.7,276.7 L 689.8,276.7 L 697.8,276.7 L 705.8,276.3 L 713.8,276.1 L 721.9,275.1 L 729.9,275.3 L 737.9,275.3 L 745.9,275.1 L 754.0,275.1 L 762.0,275.1 L 770.0,274.7" fill="none" stroke="#34C759" stroke-width="2.5" stroke-linejoin="round" clip-path="url(#ca)"/>
<text x="116.1" y="55.0" text-anchor="middle" font-size="9" fill="#4F8EF7" opacity="0.85" clip-path="url(#ca)">+0.5% (+8)</text>
<text x="116.1" y="66.0" text-anchor="middle" font-size="9" fill="#BF5AF2" opacity="0.85" clip-path="url(#ca)">+1.0% (+10)</text>
<text x="116.1" y="77.0" text-anchor="middle" font-size="9" fill="#34C759" opacity="0.85" clip-path="url(#ca)">+1.5% (+11)</text>
<text x="268.6" y="55.0" text-anchor="middle" font-size="9" fill="#4F8EF7" opacity="0.85" clip-path="url(#ca)">+4.0% (+65)</text>
<text x="268.6" y="66.0" text-anchor="middle" font-size="9" fill="#BF5AF2" opacity="0.85" clip-path="url(#ca)">+3.5% (+35)</text>
<text x="268.6" y="77.0" text-anchor="middle" font-size="9" fill="#34C759" opacity="0.85" clip-path="url(#ca)">+3.6% (+27)</text>
<text x="481.2" y="55.0" text-anchor="middle" font-size="9" fill="#4F8EF7" opacity="0.85" clip-path="url(#ca)">+4.1% (+70)</text>
<text x="481.2" y="66.0" text-anchor="middle" font-size="9" fill="#BF5AF2" opacity="0.85" clip-path="url(#ca)">+3.5% (+36)</text>
<text x="481.2" y="77.0" text-anchor="middle" font-size="9" fill="#34C759" opacity="0.85" clip-path="url(#ca)">+3.3% (+26)</text>
<text x="681.7" y="55.0" text-anchor="middle" font-size="9" fill="#4F8EF7" opacity="0.85" clip-path="url(#ca)">+2.8% (+50)</text>
<text x="681.7" y="66.0" text-anchor="middle" font-size="9" fill="#BF5AF2" opacity="0.85" clip-path="url(#ca)">+2.5% (+27)</text>
<text x="681.7" y="77.0" text-anchor="middle" font-size="9" fill="#34C759" opacity="0.85" clip-path="url(#ca)">+2.6% (+21)</text>
<rect x="211" y="369" width="12" height="12" fill="#4F8EF7" rx="2"/>
<text x="227" y="379" font-size="12" fill="#111827">Authors</text>
<rect x="351" y="369" width="12" height="12" fill="#BF5AF2" rx="2"/>
<text x="367" y="379" font-size="12" fill="#111827">Contributors</text>
<rect x="491" y="369" width="12" height="12" fill="#34C759" rx="2"/>
<text x="507" y="379" font-size="12" fill="#111827">Non-author contributors</text>
<text x="72" y="394" font-size="8" fill="#e5e7eb">data since Dec 11, 2025</text>
</svg>