<svg xmlns="http://www.w3.org/2000/svg" width="800" height="400" viewBox="0 0 800 400">
<defs>
  <style>text { font-family: -apple-system, BlinkMacSystemFont, 'Segoe UI', Roboto, sans-serif; }</style>
  <linearGradient id="g1" x1="0" y1="0" x2="0" y2="1">
  <stop offset="0%" stop-color="#FF6363" stop-opacity="0.25"/>
  <stop offset="100%" stop-color="#FF6363" stop-opacity="0"/>
</linearGradient>
  <clipPath id="ca"><rect x="72" y="45" width="698" height="295"/></clipPath>
</defs>
<rect width="800" height="400" fill="#ffffff" rx="12"/>
<text x="400" y="26" text-anchor="middle" font-size="15" font-weight="600" fill="#111827">Packages Growth Over Time</text>
<line x1="72" y1="340.0" x2="770" y2="340.0" stroke="#f3f4f6" stroke-width="1"/>
<text x="66" y="344.0" text-anchor="end" font-size="11" fill="#6b7280">2.4k</text>
<line x1="72" y1="281.0" x2="770" y2="281.0" stroke="#f3f4f6" stroke-width="1"/>
<text x="66" y="285.0" text-anchor="end" font-size="11" fill="#6b7280">2.5k</text>
<line x1="72" y1="222.0" x2="770" y2="222.0" stroke="#f3f4f6" stroke-width="1"/>
<text x="66" y="226.0" text-anchor="end" font-size="11" fill="#6b7280">2.6k</text>
<line x1="72" y1="163.0" x2="770" y2="163.0" stroke="#f3f4f6" stroke-width="1"/>
<text x="66" y="167.0" text-anchor="end" font-size="11" fill="#6b7280">2.7k</text>
<line x1="72" y1="104.0" x2="770" y2="104.0" stroke="#f3f4f6" stroke-width="1"/>
<text x="66" y="108.0" text-anchor="end" font-size="11" fill="#6b7280">2.8k</text>
<line x1="72" y1="45.0" x2="770" y2="45.0" stroke="#f3f4f6" stroke-width="1"/>
<text x="66" y="49.0" text-anchor="end" font-size="11" fill="#6b7280">2.9k</text>
<line x1="154.1" y1="45" x2="154.1" y2="340" stroke="#e5e7eb" stroke-width="1" stroke-dasharray="3,3" clip-path="url(#ca)"/>
<line x1="332.0" y1="45" x2="332.0" y2="340" stroke="#e5e7eb" stroke-width="1" stroke-dasharray="3,3" clip-path="url(#ca)"/>
<line x1="516.8" y1="45" x2="516.8" y2="340" stroke="#e5e7eb" stroke-width="1" stroke-dasharray="3,3" clip-path="url(#ca)"/>
<line x1="701.6" y1="45" x2="701.6" y2="340" stroke="#e5e7eb" stroke-width="1" stroke-dasharray="3,3" clip-path="url(#ca)"/>
<text x="72.0" y="358.0" text-anchor="middle" font-size="11" fill="#6b7280">Dec 11</text>
<text x="208.9" y="358.0" text-anchor="middle" font-size="11" fill="#6b7280">Jan 13</text>
<text x="352.6" y="358.0" text-anchor="middle" font-size="11" fill="#6b7280">Feb 4</text>
<text x="489.4" y="358.0" text-anchor="middle" font-size="11" fill="#6b7280">Feb 25</text>
<text x="633.1" y="358.0" text-anchor="middle" font-size="11" fill="#6b7280">Mar 19</text>
<text x="770.0" y="358.0" text-anchor="middle" font-size="11" fill="#6b7280">Apr 12</text>
<line x1="72" y1="45" x2="72" y2="340" stroke="#e5e7eb" stroke-width="1"/>
<line x1="72" y1="340" x2="770" y2="340" stroke="#e5e7eb" stroke-width="1"/>
<text x="-192.5" y="18" text-anchor="middle" font-size="12" fill="#6b7280" transform="rotate(-90)">Extensions</text>
<path d="M 72.0,340 L 72.0,294.6 L 78.8,294.0 L 85.7,294.0 L 92.5,292.2 L 99.4,292.2 L 106.2,291.0 L 113.1,289.9 L 119.9,289.3 L 126.7,286.3 L 133.6,283.9 L 140.4,283.9 L 147.3,283.9 L 154.1,283.9 L 161.0,282.8 L 167.8,282.8 L 174.6,282.8 L 181.5,281.6 L 188.3,279.2 L 195.2,275.1 L 202.0,272.1 L 208.9,271.0 L 215.7,270.4 L 222.5,268.0 L 229.4,260.9 L 236.2,258.6 L 243.1,258.6 L 249.9,252.7 L 256.8,250.9 L 263.6,248.6 L 270.5,246.8 L 277.3,243.2 L 284.1,240.3 L 291.0,239.7 L 297.8,235.0 L 304.7,230.8 L 311.5,230.8 L 318.4,227.9 L 325.2,225.5 L 332.0,224.9 L 338.9,224.4 L 345.7,223.8 L 352.6,222.0 L 359.4,211.4 L 366.3,206.7 L 373.1,204.3 L 379.9,203.1 L 386.8,201.3 L 393.6,197.2 L 400.5,196.0 L 407.3,194.9 L 414.2,191.3 L 421.0,190.1 L 427.8,189.0 L 434.7,189.0 L 441.5,178.3 L 448.4,177.2 L 455.2,176.0 L 462.1,173.6 L 468.9,170.7 L 475.7,170.7 L 482.6,166.0 L 489.4,158.3 L 496.3,157.1 L 503.1,157.7 L 510.0,155.9 L 516.8,155.3 L 523.6,155.3 L 530.5,151.8 L 537.3,148.8 L 544.2,146.5 L 551.0,143.5 L 557.9,142.9 L 564.7,142.9 L 571.5,138.8 L 578.4,137.6 L 585.2,137.0 L 592.1,130.0 L 598.9,129.4 L 605.8,129.4 L 612.6,129.4 L 619.5,128.8 L 626.3,125.8 L 633.1,123.5 L 640.0,120.5 L 646.8,119.9 L 653.7,118.2 L 660.5,112.8 L 667.4,108.1 L 674.2,107.5 L 681.0,106.9 L 687.9,105.2 L 694.7,99.3 L 701.6,98.1 L 708.4,96.3 L 715.3,92.8 L 722.1,92.2 L 728.9,91.6 L 735.8,91.6 L 742.6,90.4 L 749.5,86.9 L 756.3,85.7 L 763.2,84.5 L 770.0,83.9 L 770.0,340 Z" fill="url(#g1)" clip-path="url(#ca)"/>
<path d="M 72.0,294.6 L 78.8,294.0 L 85.7,294.0 L 92.5,292.2 L 99.4,292.2 L 106.2,291.0 L 113.1,289.9 L 119.9,289.3 L 126.7,286.3 L 133.6,283.9 L 140.4,283.9 L 147.3,283.9 L 154.1,283.9 L 161.0,282.8 L 167.8,282.8 L 174.6,282.8 L 181.5,281.6 L 188.3,279.2 L 195.2,275.1 L 202.0,272.1 L 208.9,271.0 L 215.7,270.4 L 222.5,268.0 L 229.4,260.9 L 236.2,258.6 L 243.1,258.6 L 249.9,252.7 L 256.8,250.9 L 263.6,248.6 L 270.5,246.8 L 277.3,243.2 L 284.1,240.3 L 291.0,239.7 L 297.8,235.0 L 304.7,230.8 L 311.5,230.8 L 318.4,227.9 L 325.2,225.5 L 332.0,224.9 L 338.9,224.4 L 345.7,223.8 L 352.6,222.0 L 359.4,211.4 L 366.3,206.7 L 373.1,204.3 L 379.9,203.1 L 386.8,201.3 L 393.6,197.2 L 400.5,196.0 L 407.3,194.9 L 414.2,191.3 L 421.0,190.1 L 427.8,189.0 L 434.7,189.0 L 441.5,178.3 L 448.4,177.2 L 455.2,176.0 L 462.1,173.6 L 468.9,170.7 L 475.7,170.7 L 482.6,166.0 L 489.4,158.3 L 496.3,157.1 L 503.1,157.7 L 510.0,155.9 L 516.8,155.3 L 523.6,155.3 L 530.5,151.8 L 537.3,148.8 L 544.2,146.5 L 551.0,143.5 L 557.9,142.9 L 564.7,142.9 L 571.5,138.8 L 578.4,137.6 L 585.2,137.0 L 592.1,130.0 L 598.9,129.4 L 605.8,129.4 L 612.6,129.4 L 619.5,128.8 L 626.3,125.8 L 633.1,123.5 L 640.0,120.5 L 646.8,119.9 L 653.7,118.2 L 660.5,112.8 L 667.4,108.1 L 674.2,107.5 L 681.0,106.9 L 687.9,105.2 L 694.7,99.3 L 701.6,98.1 L 708.4,96.3 L 715.3,92.8 L 722.1,92.2 L 728.9,91.6 L 735.8,91.6 L 742.6,90.4 L 749.5,86.9 L 756.3,85.7 L 763.2,84.5 L 770.0,83.9" fill="none" stroke="#FF6363" stroke-width="2.5" stroke-linejoin="round" clip-path="url(#ca)"/>
<text x="109.6" y="55.0" text-anchor="middle" font-size="9" fill="#FF6363" opacity="0.85" clip-path="url(#ca)">+0.7% (+18)</text>
<text x="239.7" y="55.0" text-anchor="middle" font-size="9" fill="#FF6363" opacity="0.85" clip-path="url(#ca)">+4.0% (+99)</text>
<text x="421.0" y="55.0" text-anchor="middle" font-size="9" fill="#FF6363" opacity="0.85" clip-path="url(#ca)">+4.5% (+117)</text>
<text x="605.8" y="55.0" text-anchor="middle" font-size="9" fill="#FF6363" opacity="0.85" clip-path="url(#ca)">+3.5% (+95)</text>
<text x="735.8" y="55.0" text-anchor="middle" font-size="9" fill="#FF6363" opacity="0.85" clip-path="url(#ca)">+0.9% (+24)</text>
<rect x="351" y="369" width="12" height="12" fill="#FF6363" rx="2"/>
<text x="367" y="379" font-size="12" fill="#111827">Extensions</text>
<text x="72" y="394" font-size="8" fill="#e5e7eb">data since Dec 11, 2025</text>
</svg>