<svg xmlns="http://www.w3.org/2000/svg" width="800" height="400" viewBox="0 0 800 400">
<defs>
  <style>text { font-family: -apple-system, BlinkMacSystemFont, 'Segoe UI', Roboto, sans-serif; }</style>
  <linearGradient id="g1" x1="0" y1="0" x2="0" y2="1">
  <stop offset="0%" stop-color="#FF6363" stop-opacity="0.25"/>
  <stop offset="100%" stop-color="#FF6363" stop-opacity="0"/>
</linearGradient>
  <clipPath id="ca"><rect x="72" y="45" width="698" height="295"/></clipPath>
</defs>
<rect width="800" height="400" fill="#ffffff" rx="12"/>
<text x="400" y="26" text-anchor="middle" font-size="15" font-weight="600" fill="#111827">Packages Growth Over Time</text>
<line x1="72" y1="340.0" x2="770" y2="340.0" stroke="#f3f4f6" stroke-width="1"/>
<text x="66" y="344.0" text-anchor="end" font-size="11" fill="#6b7280">2.4k</text>
<line x1="72" y1="266.3" x2="770" y2="266.3" stroke="#f3f4f6" stroke-width="1"/>
<text x="66" y="270.3" text-anchor="end" font-size="11" fill="#6b7280">2.6k</text>
<line x1="72" y1="192.5" x2="770" y2="192.5" stroke="#f3f4f6" stroke-width="1"/>
<text x="66" y="196.5" text-anchor="end" font-size="11" fill="#6b7280">2.8k</text>
<line x1="72" y1="118.8" x2="770" y2="118.8" stroke="#f3f4f6" stroke-width="1"/>
<text x="66" y="122.8" text-anchor="end" font-size="11" fill="#6b7280">3.0k</text>
<line x1="72" y1="45.0" x2="770" y2="45.0" stroke="#f3f4f6" stroke-width="1"/>
<text x="66" y="49.0" text-anchor="end" font-size="11" fill="#6b7280">3.2k</text>
<line x1="123.1" y1="45" x2="123.1" y2="340" stroke="#e5e7eb" stroke-width="1" stroke-dasharray="3,3" clip-path="url(#ca)"/>
<line x1="233.7" y1="45" x2="233.7" y2="340" stroke="#e5e7eb" stroke-width="1" stroke-dasharray="3,3" clip-path="url(#ca)"/>
<line x1="348.6" y1="45" x2="348.6" y2="340" stroke="#e5e7eb" stroke-width="1" stroke-dasharray="3,3" clip-path="url(#ca)"/>
<line x1="463.6" y1="45" x2="463.6" y2="340" stroke="#e5e7eb" stroke-width="1" stroke-dasharray="3,3" clip-path="url(#ca)"/>
<line x1="578.5" y1="45" x2="578.5" y2="340" stroke="#e5e7eb" stroke-width="1" stroke-dasharray="3,3" clip-path="url(#ca)"/>
<line x1="689.1" y1="45" x2="689.1" y2="340" stroke="#e5e7eb" stroke-width="1" stroke-dasharray="3,3" clip-path="url(#ca)"/>
<text x="72.0" y="358.0" text-anchor="middle" font-size="11" fill="#6b7280">Dec 11</text>
<text x="212.5" y="358.0" text-anchor="middle" font-size="11" fill="#6b7280">Jan 27</text>
<text x="352.9" y="358.0" text-anchor="middle" font-size="11" fill="#6b7280">Mar 2</text>
<text x="489.1" y="358.0" text-anchor="middle" font-size="11" fill="#6b7280">Apr 8</text>
<text x="629.5" y="358.0" text-anchor="middle" font-size="11" fill="#6b7280">May 18</text>
<text x="770.0" y="358.0" text-anchor="middle" font-size="11" fill="#6b7280">Jun 25</text>
<line x1="72" y1="45" x2="72" y2="340" stroke="#e5e7eb" stroke-width="1"/>
<line x1="72" y1="340" x2="770" y2="340" stroke="#e5e7eb" stroke-width="1"/>
<text x="-192.5" y="18" text-anchor="middle" font-size="12" fill="#6b7280" transform="rotate(-90)">Extensions</text>
<path d="M 72.0,340 L 72.0,311.6 L 76.3,311.2 L 80.5,311.2 L 84.8,310.1 L 89.0,310.1 L 93.3,309.4 L 97.5,308.7 L 101.8,308.3 L 106.0,306.4 L 110.3,305.0 L 114.6,305.0 L 118.8,305.0 L 123.1,305.0 L 127.3,304.2 L 131.6,304.2 L 135.8,304.2 L 140.1,303.5 L 144.4,302.0 L 148.6,299.4 L 152.9,297.6 L 157.1,296.9 L 161.4,296.5 L 165.6,295.0 L 169.9,290.6 L 174.1,289.1 L 178.4,289.1 L 182.7,285.4 L 186.9,284.3 L 191.2,282.8 L 195.4,281.7 L 199.7,279.5 L 203.9,277.7 L 208.2,277.3 L 212.5,274.4 L 216.7,271.8 L 221.0,271.8 L 225.2,269.9 L 229.5,268.5 L 233.7,268.1 L 238.0,267.7 L 242.2,267.4 L 246.5,266.3 L 250.8,259.6 L 255.0,256.7 L 259.3,255.2 L 263.5,254.4 L 267.8,253.3 L 272.0,250.8 L 276.3,250.0 L 280.5,249.3 L 284.8,247.1 L 289.1,246.3 L 293.3,245.6 L 297.6,245.6 L 301.8,239.0 L 306.1,238.2 L 310.3,237.5 L 314.6,236.0 L 318.9,234.2 L 323.1,234.2 L 327.4,231.2 L 331.6,226.4 L 335.9,225.7 L 340.1,226.1 L 344.4,224.9 L 348.6,224.6 L 352.9,224.6 L 357.2,222.4 L 361.4,220.5 L 365.7,219.1 L 369.9,217.2 L 374.2,216.8 L 378.4,216.8 L 382.7,214.3 L 387.0,213.5 L 391.2,213.2 L 395.5,208.7 L 399.7,208.4 L 404.0,208.4 L 408.2,208.4 L 412.5,208.0 L 416.7,206.1 L 421.0,204.7 L 425.3,202.8 L 429.5,202.5 L 433.8,201.3 L 438.0,198.0 L 442.3,195.1 L 446.5,194.7 L 450.8,194.3 L 455.0,193.2 L 459.3,189.6 L 463.6,188.8 L 467.8,187.7 L 472.1,185.5 L 476.3,185.1 L 480.6,184.8 L 484.8,184.8 L 489.1,184.0 L 493.4,181.8 L 497.6,181.1 L 501.9,180.3 L 506.1,180.0 L 510.4,179.2 L 514.6,175.5 L 518.9,175.2 L 523.1,174.4 L 527.4,174.1 L 531.7,172.2 L 535.9,171.9 L 540.2,171.5 L 544.4,170.4 L 548.7,168.9 L 552.9,168.9 L 557.2,168.9 L 561.5,168.9 L 565.7,168.2 L 570.0,166.3 L 574.2,166.0 L 578.5,164.1 L 582.7,163.7 L 587.0,163.4 L 591.2,161.2 L 595.5,158.9 L 599.8,158.6 L 604.0,158.2 L 608.3,153.4 L 612.5,151.9 L 616.8,150.8 L 621.0,150.5 L 625.3,147.9 L 629.5,147.9 L 633.8,146.0 L 638.1,144.9 L 642.3,141.2 L 646.6,139.8 L 650.8,139.4 L 655.1,139.0 L 659.3,139.0 L 663.6,138.7 L 667.9,136.5 L 672.1,134.6 L 676.4,134.6 L 680.6,134.2 L 684.9,134.2 L 689.1,132.8 L 693.4,132.0 L 697.6,130.9 L 701.9,129.8 L 706.2,128.3 L 710.4,128.3 L 714.7,127.2 L 718.9,125.8 L 723.2,122.8 L 727.4,120.2 L 731.7,119.5 L 736.0,118.8 L 740.2,118.0 L 744.5,117.6 L 748.7,116.5 L 753.0,114.3 L 757.2,114.0 L 761.5,112.5 L 765.7,111.0 L 770.0,108.4 L 770.0,340 Z" fill="url(#g1)" clip-path="url(#ca)"/>
<path d="M 72.0,311.6 L 76.3,311.2 L 80.5,311.2 L 84.8,310.1 L 89.0,310.1 L 93.3,309.4 L 97.5,308.7 L 101.8,308.3 L 106.0,306.4 L 110.3,305.0 L 114.6,305.0 L 118.8,305.0 L 123.1,305.0 L 127.3,304.2 L 131.6,304.2 L 135.8,304.2 L 140.1,303.5 L 144.4,302.0 L 148.6,299.4 L 152.9,297.6 L 157.1,296.9 L 161.4,296.5 L 165.6,295.0 L 169.9,290.6 L 174.1,289.1 L 178.4,289.1 L 182.7,285.4 L 186.9,284.3 L 191.2,282.8 L 195.4,281.7 L 199.7,279.5 L 203.9,277.7 L 208.2,277.3 L 212.5,274.4 L 216.7,271.8 L 221.0,271.8 L 225.2,269.9 L 229.5,268.5 L 233.7,268.1 L 238.0,267.7 L 242.2,267.4 L 246.5,266.3 L 250.8,259.6 L 255.0,256.7 L 259.3,255.2 L 263.5,254.4 L 267.8,253.3 L 272.0,250.8 L 276.3,250.0 L 280.5,249.3 L 284.8,247.1 L 289.1,246.3 L 293.3,245.6 L 297.6,245.6 L 301.8,239.0 L 306.1,238.2 L 310.3,237.5 L 314.6,236.0 L 318.9,234.2 L 323.1,234.2 L 327.4,231.2 L 331.6,226.4 L 335.9,225.7 L 340.1,226.1 L 344.4,224.9 L 348.6,224.6 L 352.9,224.6 L 357.2,222.4 L 361.4,220.5 L 365.7,219.1 L 369.9,217.2 L 374.2,216.8 L 378.4,216.8 L 382.7,214.3 L 387.0,213.5 L 391.2,213.2 L 395.5,208.7 L 399.7,208.4 L 404.0,208.4 L 408.2,208.4 L 412.5,208.0 L 416.7,206.1 L 421.0,204.7 L 425.3,202.8 L 429.5,202.5 L 433.8,201.3 L 438.0,198.0 L 442.3,195.1 L 446.5,194.7 L 450.8,194.3 L 455.0,193.2 L 459.3,189.6 L 463.6,188.8 L 467.8,187.7 L 472.1,185.5 L 476.3,185.1 L 480.6,184.8 L 484.8,184.8 L 489.1,184.0 L 493.4,181.8 L 497.6,181.1 L 501.9,180.3 L 506.1,180.0 L 510.4,179.2 L 514.6,175.5 L 518.9,175.2 L 523.1,174.4 L 527.4,174.1 L 531.7,172.2 L 535.9,171.9 L 540.2,171.5 L 544.4,170.4 L 548.7,168.9 L 552.9,168.9 L 557.2,168.9 L 561.5,168.9 L 565.7,168.2 L 570.0,166.3 L 574.2,166.0 L 578.5,164.1 L 582.7,163.7 L 587.0,163.4 L 591.2,161.2 L 595.5,158.9 L 599.8,158.6 L 604.0,158.2 L 608.3,153.4 L 612.5,151.9 L 616.8,150.8 L 621.0,150.5 L 625.3,147.9 L 629.5,147.9 L 633.8,146.0 L 638.1,144.9 L 642.3,141.2 L 646.6,139.8 L 650.8,139.4 L 655.1,139.0 L 659.3,139.0 L 663.6,138.7 L 667.9,136.5 L 672.1,134.6 L 676.4,134.6 L 680.6,134.2 L 684.9,134.2 L 689.1,132.8 L 693.4,132.0 L 697.6,130.9 L 701.9,129.8 L 706.2,128.3 L 710.4,128.3 L 714.7,127.2 L 718.9,125.8 L 723.2,122.8 L 727.4,120.2 L 731.7,119.5 L 736.0,118.8 L 740.2,118.0 L 744.5,117.6 L 748.7,116.5 L 753.0,114.3 L 757.2,114.0 L 761.5,112.5 L 765.7,111.0 L 770.0,108.4" fill="none" stroke="#FF6363" stroke-width="2.5" stroke-linejoin="round" clip-path="url(#ca)"/>
<text x="95.4" y="55.0" text-anchor="middle" font-size="9" fill="#FF6363" opacity="0.85" clip-path="url(#ca)">+0.7% (+18)</text>
<text x="176.3" y="55.0" text-anchor="middle" font-size="9" fill="#FF6363" opacity="0.85" clip-path="url(#ca)">+4.0% (+99)</text>
<text x="289.1" y="55.0" text-anchor="middle" font-size="9" fill="#FF6363" opacity="0.85" clip-path="url(#ca)">+4.5% (+117)</text>
<text x="404.0" y="55.0" text-anchor="middle" font-size="9" fill="#FF6363" opacity="0.85" clip-path="url(#ca)">+3.5% (+95)</text>
<text x="518.9" y="55.0" text-anchor="middle" font-size="9" fill="#FF6363" opacity="0.85" clip-path="url(#ca)">+2.2% (+62)</text>
<text x="631.7" y="55.0" text-anchor="middle" font-size="9" fill="#FF6363" opacity="0.85" clip-path="url(#ca)">+2.8% (+81)</text>
<text x="729.6" y="55.0" text-anchor="middle" font-size="9" fill="#FF6363" opacity="0.85" clip-path="url(#ca)">+2.2% (+66)</text>
<rect x="351" y="369" width="12" height="12" fill="#FF6363" rx="2"/>
<text x="367" y="379" font-size="12" fill="#111827">Extensions</text>
<text x="72" y="394" font-size="8" fill="#e5e7eb">data since Dec 11, 2025</text>
</svg>