<svg xmlns="http://www.w3.org/2000/svg" width="800" height="400" viewBox="0 0 800 400">
<defs>
  <style>text { font-family: -apple-system, BlinkMacSystemFont, 'Segoe UI', Roboto, sans-serif; }</style>
  <linearGradient id="g2" x1="0" y1="0" x2="0" y2="1">
  <stop offset="0%" stop-color="#4F8EF7" stop-opacity="0.25"/>
  <stop offset="100%" stop-color="#4F8EF7" stop-opacity="0"/>
</linearGradient>
<linearGradient id="g3" x1="0" y1="0" x2="0" y2="1">
  <stop offset="0%" stop-color="#BF5AF2" stop-opacity="0.25"/>
  <stop offset="100%" stop-color="#BF5AF2" stop-opacity="0"/>
</linearGradient>
<linearGradient id="g4" x1="0" y1="0" x2="0" y2="1">
  <stop offset="0%" stop-color="#34C759" stop-opacity="0.25"/>
  <stop offset="100%" stop-color="#34C759" stop-opacity="0"/>
</linearGradient>
  <clipPath id="ca"><rect x="72" y="45" width="698" height="295"/></clipPath>
</defs>
<rect width="800" height="400" fill="#ffffff" rx="12"/>
<text x="400" y="26" text-anchor="middle" font-size="15" font-weight="600" fill="#111827">Community Growth Over Time</text>
<line x1="72" y1="340.0" x2="770" y2="340.0" stroke="#f3f4f6" stroke-width="1"/>
<text x="66" y="344.0" text-anchor="end" font-size="11" fill="#6b7280">500</text>
<line x1="72" y1="241.7" x2="770" y2="241.7" stroke="#f3f4f6" stroke-width="1"/>
<text x="66" y="245.7" text-anchor="end" font-size="11" fill="#6b7280">1.0k</text>
<line x1="72" y1="143.3" x2="770" y2="143.3" stroke="#f3f4f6" stroke-width="1"/>
<text x="66" y="147.3" text-anchor="end" font-size="11" fill="#6b7280">1.5k</text>
<line x1="72" y1="45.0" x2="770" y2="45.0" stroke="#f3f4f6" stroke-width="1"/>
<text x="66" y="49.0" text-anchor="end" font-size="11" fill="#6b7280">2.0k</text>
<line x1="144.8" y1="45" x2="144.8" y2="340" stroke="#e5e7eb" stroke-width="1" stroke-dasharray="3,3" clip-path="url(#ca)"/>
<line x1="302.6" y1="45" x2="302.6" y2="340" stroke="#e5e7eb" stroke-width="1" stroke-dasharray="3,3" clip-path="url(#ca)"/>
<line x1="466.5" y1="45" x2="466.5" y2="340" stroke="#e5e7eb" stroke-width="1" stroke-dasharray="3,3" clip-path="url(#ca)"/>
<line x1="630.4" y1="45" x2="630.4" y2="340" stroke="#e5e7eb" stroke-width="1" stroke-dasharray="3,3" clip-path="url(#ca)"/>
<text x="72.0" y="358.0" text-anchor="middle" font-size="11" fill="#6b7280">Dec 11</text>
<text x="211.6" y="358.0" text-anchor="middle" font-size="11" fill="#6b7280">Jan 16</text>
<text x="351.2" y="358.0" text-anchor="middle" font-size="11" fill="#6b7280">Feb 9</text>
<text x="490.8" y="358.0" text-anchor="middle" font-size="11" fill="#6b7280">Mar 5</text>
<text x="630.4" y="358.0" text-anchor="middle" font-size="11" fill="#6b7280">Apr 1</text>
<text x="770.0" y="358.0" text-anchor="middle" font-size="11" fill="#6b7280">Apr 26</text>
<line x1="72" y1="45" x2="72" y2="340" stroke="#e5e7eb" stroke-width="1"/>
<line x1="72" y1="340" x2="770" y2="340" stroke="#e5e7eb" stroke-width="1"/>
<text x="-192.5" y="18" text-anchor="middle" font-size="12" fill="#6b7280" transform="rotate(-90)">People</text>
<path d="M 72.0,340 L 72.0,120.1 L 78.1,120.1 L 84.1,120.1 L 90.2,119.5 L 96.3,119.5 L 102.3,119.1 L 108.4,118.9 L 114.5,119.1 L 120.6,118.6 L 126.6,118.6 L 132.7,118.6 L 138.8,118.6 L 144.8,118.6 L 150.9,118.6 L 157.0,118.6 L 163.0,118.6 L 169.1,118.4 L 175.2,117.8 L 181.3,116.6 L 187.3,116.0 L 193.4,115.8 L 199.5,115.8 L 205.5,115.2 L 211.6,113.8 L 217.7,113.0 L 223.7,113.0 L 229.8,112.1 L 235.9,111.7 L 241.9,110.9 L 248.0,110.3 L 254.1,109.7 L 260.2,109.1 L 266.2,109.1 L 272.3,107.7 L 278.4,106.9 L 284.4,106.9 L 290.5,106.2 L 296.6,105.8 L 302.6,105.6 L 308.7,105.4 L 314.8,105.4 L 320.9,104.8 L 326.9,102.4 L 333.0,101.0 L 339.1,100.3 L 345.1,100.1 L 351.2,99.7 L 357.3,98.9 L 363.3,98.5 L 369.4,98.1 L 375.5,97.7 L 381.5,97.3 L 387.6,96.9 L 393.7,96.9 L 399.8,95.0 L 405.8,95.0 L 411.9,94.8 L 418.0,94.6 L 424.0,94.2 L 430.1,94.2 L 436.2,93.2 L 442.2,92.0 L 448.3,91.6 L 454.4,92.0 L 460.5,91.8 L 466.5,91.6 L 472.6,91.6 L 478.7,91.2 L 484.7,90.4 L 490.8,90.0 L 496.9,89.6 L 502.9,89.4 L 509.0,89.4 L 515.1,88.7 L 521.1,88.3 L 527.2,88.3 L 533.3,86.7 L 539.4,86.7 L 545.4,86.7 L 551.5,86.7 L 557.6,86.5 L 563.6,85.9 L 569.7,85.1 L 575.8,84.7 L 581.8,84.7 L 587.9,84.3 L 594.0,82.8 L 600.1,81.8 L 606.1,81.6 L 612.2,81.4 L 618.3,80.8 L 624.3,79.6 L 630.4,79.2 L 636.5,78.8 L 642.5,77.6 L 648.6,77.4 L 654.7,77.4 L 660.7,77.4 L 666.8,77.3 L 672.9,76.1 L 679.0,75.9 L 685.0,75.7 L 691.1,75.7 L 697.2,75.3 L 703.2,73.7 L 709.3,73.5 L 715.4,73.3 L 721.4,73.3 L 727.5,72.5 L 733.6,72.3 L 739.7,72.1 L 745.7,71.6 L 751.8,70.8 L 757.9,70.8 L 763.9,70.8 L 770.0,70.8 L 770.0,340 Z" fill="url(#g2)" clip-path="url(#ca)"/>
<path d="M 72.0,120.1 L 78.1,120.1 L 84.1,120.1 L 90.2,119.5 L 96.3,119.5 L 102.3,119.1 L 108.4,118.9 L 114.5,119.1 L 120.6,118.6 L 126.6,118.6 L 132.7,118.6 L 138.8,118.6 L 144.8,118.6 L 150.9,118.6 L 157.0,118.6 L 163.0,118.6 L 169.1,118.4 L 175.2,117.8 L 181.3,116.6 L 187.3,116.0 L 193.4,115.8 L 199.5,115.8 L 205.5,115.2 L 211.6,113.8 L 217.7,113.0 L 223.7,113.0 L 229.8,112.1 L 235.9,111.7 L 241.9,110.9 L 248.0,110.3 L 254.1,109.7 L 260.2,109.1 L 266.2,109.1 L 272.3,107.7 L 278.4,106.9 L 284.4,106.9 L 290.5,106.2 L 296.6,105.8 L 302.6,105.6 L 308.7,105.4 L 314.8,105.4 L 320.9,104.8 L 326.9,102.4 L 333.0,101.0 L 339.1,100.3 L 345.1,100.1 L 351.2,99.7 L 357.3,98.9 L 363.3,98.5 L 369.4,98.1 L 375.5,97.7 L 381.5,97.3 L 387.6,96.9 L 393.7,96.9 L 399.8,95.0 L 405.8,95.0 L 411.9,94.8 L 418.0,94.6 L 424.0,94.2 L 430.1,94.2 L 436.2,93.2 L 442.2,92.0 L 448.3,91.6 L 454.4,92.0 L 460.5,91.8 L 466.5,91.6 L 472.6,91.6 L 478.7,91.2 L 484.7,90.4 L 490.8,90.0 L 496.9,89.6 L 502.9,89.4 L 509.0,89.4 L 515.1,88.7 L 521.1,88.3 L 527.2,88.3 L 533.3,86.7 L 539.4,86.7 L 545.4,86.7 L 551.5,86.7 L 557.6,86.5 L 563.6,85.9 L 569.7,85.1 L 575.8,84.7 L 581.8,84.7 L 587.9,84.3 L 594.0,82.8 L 600.1,81.8 L 606.1,81.6 L 612.2,81.4 L 618.3,80.8 L 624.3,79.6 L 630.4,79.2 L 636.5,78.8 L 642.5,77.6 L 648.6,77.4 L 654.7,77.4 L 660.7,77.4 L 666.8,77.3 L 672.9,76.1 L 679.0,75.9 L 685.0,75.7 L 691.1,75.7 L 697.2,75.3 L 703.2,73.7 L 709.3,73.5 L 715.4,73.3 L 721.4,73.3 L 727.5,72.5 L 733.6,72.3 L 739.7,72.1 L 745.7,71.6 L 751.8,70.8 L 757.9,70.8 L 763.9,70.8 L 770.0,70.8" fill="none" stroke="#4F8EF7" stroke-width="2.5" stroke-linejoin="round" clip-path="url(#ca)"/>
<path d="M 72.0,340 L 72.0,244.2 L 78.1,243.6 L 84.1,243.6 L 90.2,243.6 L 96.3,243.4 L 102.3,243.0 L 108.4,242.8 L 114.5,242.6 L 120.6,242.6 L 126.6,242.5 L 132.7,242.3 L 138.8,242.3 L 144.8,242.3 L 150.9,242.3 L 157.0,242.3 L 163.0,242.3 L 169.1,241.9 L 175.2,241.9 L 181.3,241.9 L 187.3,241.1 L 193.4,240.9 L 199.5,240.5 L 205.5,239.7 L 211.6,239.5 L 217.7,239.5 L 223.7,239.5 L 229.8,238.9 L 235.9,238.5 L 241.9,238.5 L 248.0,238.1 L 254.1,237.9 L 260.2,237.5 L 266.2,237.5 L 272.3,237.3 L 278.4,236.6 L 284.4,236.0 L 290.5,235.6 L 296.6,235.4 L 302.6,235.4 L 308.7,235.2 L 314.8,234.8 L 320.9,234.8 L 326.9,234.6 L 333.0,234.0 L 339.1,233.6 L 345.1,233.6 L 351.2,233.6 L 357.3,233.6 L 363.3,233.4 L 369.4,232.8 L 375.5,232.4 L 381.5,232.2 L 387.6,232.0 L 393.7,231.8 L 399.8,231.6 L 405.8,231.4 L 411.9,231.2 L 418.0,230.7 L 424.0,230.5 L 430.1,230.3 L 436.2,229.5 L 442.2,228.7 L 448.3,228.7 L 454.4,228.5 L 460.5,228.3 L 466.5,228.3 L 472.6,228.3 L 478.7,227.9 L 484.7,227.9 L 490.8,226.7 L 496.9,226.5 L 502.9,226.3 L 509.0,226.3 L 515.1,225.9 L 521.1,225.7 L 527.2,225.7 L 533.3,225.5 L 539.4,225.5 L 545.4,225.5 L 551.5,225.1 L 557.6,224.9 L 563.6,224.0 L 569.7,224.2 L 575.8,224.0 L 581.8,223.8 L 587.9,223.8 L 594.0,223.6 L 600.1,223.0 L 606.1,223.0 L 612.2,223.0 L 618.3,223.0 L 624.3,222.6 L 630.4,222.6 L 636.5,222.2 L 642.5,221.8 L 648.6,221.0 L 654.7,221.0 L 660.7,220.6 L 666.8,220.4 L 672.9,220.2 L 679.0,220.0 L 685.0,219.6 L 691.1,219.6 L 697.2,219.1 L 703.2,219.1 L 709.3,218.9 L 715.4,218.5 L 721.4,218.3 L 727.5,218.3 L 733.6,218.3 L 739.7,218.3 L 745.7,218.3 L 751.8,217.7 L 757.9,217.7 L 763.9,217.3 L 770.0,216.9 L 770.0,340 Z" fill="url(#g3)" clip-path="url(#ca)"/>
<path d="M 72.0,244.2 L 78.1,243.6 L 84.1,243.6 L 90.2,243.6 L 96.3,243.4 L 102.3,243.0 L 108.4,242.8 L 114.5,242.6 L 120.6,242.6 L 126.6,242.5 L 132.7,242.3 L 138.8,242.3 L 144.8,242.3 L 150.9,242.3 L 157.0,242.3 L 163.0,242.3 L 169.1,241.9 L 175.2,241.9 L 181.3,241.9 L 187.3,241.1 L 193.4,240.9 L 199.5,240.5 L 205.5,239.7 L 211.6,239.5 L 217.7,239.5 L 223.7,239.5 L 229.8,238.9 L 235.9,238.5 L 241.9,238.5 L 248.0,238.1 L 254.1,237.9 L 260.2,237.5 L 266.2,237.5 L 272.3,237.3 L 278.4,236.6 L 284.4,236.0 L 290.5,235.6 L 296.6,235.4 L 302.6,235.4 L 308.7,235.2 L 314.8,234.8 L 320.9,234.8 L 326.9,234.6 L 333.0,234.0 L 339.1,233.6 L 345.1,233.6 L 351.2,233.6 L 357.3,233.6 L 363.3,233.4 L 369.4,232.8 L 375.5,232.4 L 381.5,232.2 L 387.6,232.0 L 393.7,231.8 L 399.8,231.6 L 405.8,231.4 L 411.9,231.2 L 418.0,230.7 L 424.0,230.5 L 430.1,230.3 L 436.2,229.5 L 442.2,228.7 L 448.3,228.7 L 454.4,228.5 L 460.5,228.3 L 466.5,228.3 L 472.6,228.3 L 478.7,227.9 L 484.7,227.9 L 490.8,226.7 L 496.9,226.5 L 502.9,226.3 L 509.0,226.3 L 515.1,225.9 L 521.1,225.7 L 527.2,225.7 L 533.3,225.5 L 539.4,225.5 L 545.4,225.5 L 551.5,225.1 L 557.6,224.9 L 563.6,224.0 L 569.7,224.2 L 575.8,224.0 L 581.8,223.8 L 587.9,223.8 L 594.0,223.6 L 600.1,223.0 L 606.1,223.0 L 612.2,223.0 L 618.3,223.0 L 624.3,222.6 L 630.4,222.6 L 636.5,222.2 L 642.5,221.8 L 648.6,221.0 L 654.7,221.0 L 660.7,220.6 L 666.8,220.4 L 672.9,220.2 L 679.0,220.0 L 685.0,219.6 L 691.1,219.6 L 697.2,219.1 L 703.2,219.1 L 709.3,218.9 L 715.4,218.5 L 721.4,218.3 L 727.5,218.3 L 733.6,218.3 L 739.7,218.3 L 745.7,218.3 L 751.8,217.7 L 757.9,217.7 L 763.9,217.3 L 770.0,216.9" fill="none" stroke="#BF5AF2" stroke-width="2.5" stroke-linejoin="round" clip-path="url(#ca)"/>
<path d="M 72.0,340 L 72.0,291.4 L 78.1,290.8 L 84.1,290.8 L 90.2,290.8 L 96.3,290.6 L 102.3,290.2 L 108.4,290.0 L 114.5,289.7 L 120.6,289.7 L 126.6,289.5 L 132.7,289.3 L 138.8,289.3 L 144.8,289.3 L 150.9,289.3 L 157.0,289.3 L 163.0,289.3 L 169.1,288.9 L 175.2,288.9 L 181.3,289.1 L 187.3,288.5 L 193.4,288.7 L 199.5,288.1 L 205.5,287.5 L 211.6,287.3 L 217.7,287.5 L 223.7,287.5 L 229.8,286.9 L 235.9,286.7 L 241.9,286.7 L 248.0,286.3 L 254.1,286.1 L 260.2,285.7 L 266.2,285.7 L 272.3,285.5 L 278.4,284.9 L 284.4,284.3 L 290.5,283.9 L 296.6,283.9 L 302.6,283.9 L 308.7,283.8 L 314.8,283.4 L 320.9,283.4 L 326.9,283.2 L 333.0,282.6 L 339.1,282.4 L 345.1,282.4 L 351.2,282.4 L 357.3,282.4 L 363.3,282.2 L 369.4,281.6 L 375.5,281.4 L 381.5,281.2 L 387.6,281.0 L 393.7,281.0 L 399.8,280.8 L 405.8,280.8 L 411.9,280.8 L 418.0,280.2 L 424.0,280.2 L 430.1,280.2 L 436.2,279.8 L 442.2,279.2 L 448.3,279.2 L 454.4,279.0 L 460.5,278.8 L 466.5,278.8 L 472.6,278.8 L 478.7,278.4 L 484.7,278.4 L 490.8,277.3 L 496.9,277.1 L 502.9,276.9 L 509.0,276.9 L 515.1,276.7 L 521.1,276.7 L 527.2,276.7 L 533.3,276.7 L 539.4,276.7 L 545.4,276.7 L 551.5,276.3 L 557.6,276.1 L 563.6,275.1 L 569.7,275.3 L 575.8,275.3 L 581.8,275.1 L 587.9,275.1 L 594.0,275.1 L 600.1,274.7 L 606.1,274.7 L 612.2,274.7 L 618.3,274.7 L 624.3,274.7 L 630.4,274.7 L 636.5,274.5 L 642.5,274.5 L 648.6,273.7 L 654.7,273.7 L 660.7,273.5 L 666.8,273.3 L 672.9,273.1 L 679.0,272.9 L 685.0,272.5 L 691.1,272.5 L 697.2,272.0 L 703.2,272.0 L 709.3,271.8 L 715.4,271.6 L 721.4,271.6 L 727.5,271.6 L 733.6,271.6 L 739.7,271.6 L 745.7,271.6 L 751.8,271.0 L 757.9,271.0 L 763.9,270.6 L 770.0,270.2 L 770.0,340 Z" fill="url(#g4)" clip-path="url(#ca)"/>
<path d="M 72.0,291.4 L 78.1,290.8 L 84.1,290.8 L 90.2,290.8 L 96.3,290.6 L 102.3,290.2 L 108.4,290.0 L 114.5,289.7 L 120.6,289.7 L 126.6,289.5 L 132.7,289.3 L 138.8,289.3 L 144.8,289.3 L 150.9,289.3 L 157.0,289.3 L 163.0,289.3 L 169.1,288.9 L 175.2,288.9 L 181.3,289.1 L 187.3,288.5 L 193.4,288.7 L 199.5,288.1 L 205.5,287.5 L 211.6,287.3 L 217.7,287.5 L 223.7,287.5 L 229.8,286.9 L 235.9,286.7 L 241.9,286.7 L 248.0,286.3 L 254.1,286.1 L 260.2,285.7 L 266.2,285.7 L 272.3,285.5 L 278.4,284.9 L 284.4,284.3 L 290.5,283.9 L 296.6,283.9 L 302.6,283.9 L 308.7,283.8 L 314.8,283.4 L 320.9,283.4 L 326.9,283.2 L 333.0,282.6 L 339.1,282.4 L 345.1,282.4 L 351.2,282.4 L 357.3,282.4 L 363.3,282.2 L 369.4,281.6 L 375.5,281.4 L 381.5,281.2 L 387.6,281.0 L 393.7,281.0 L 399.8,280.8 L 405.8,280.8 L 411.9,280.8 L 418.0,280.2 L 424.0,280.2 L 430.1,280.2 L 436.2,279.8 L 442.2,279.2 L 448.3,279.2 L 454.4,279.0 L 460.5,278.8 L 466.5,278.8 L 472.6,278.8 L 478.7,278.4 L 484.7,278.4 L 490.8,277.3 L 496.9,277.1 L 502.9,276.9 L 509.0,276.9 L 515.1,276.7 L 521.1,276.7 L 527.2,276.7 L 533.3,276.7 L 539.4,276.7 L 545.4,276.7 L 551.5,276.3 L 557.6,276.1 L 563.6,275.1 L 569.7,275.3 L 575.8,275.3 L 581.8,275.1 L 587.9,275.1 L 594.0,275.1 L 600.1,274.7 L 606.1,274.7 L 612.2,274.7 L 618.3,274.7 L 624.3,274.7 L 630.4,274.7 L 636.5,274.5 L 642.5,274.5 L 648.6,273.7 L 654.7,273.7 L 660.7,273.5 L 666.8,273.3 L 672.9,273.1 L 679.0,272.9 L 685.0,272.5 L 691.1,272.5 L 697.2,272.0 L 703.2,272.0 L 709.3,271.8 L 715.4,271.6 L 721.4,271.6 L 727.5,271.6 L 733.6,271.6 L 739.7,271.6 L 745.7,271.6 L 751.8,271.0 L 757.9,271.0 L 763.9,270.6 L 770.0,270.2" fill="none" stroke="#34C759" stroke-width="2.5" stroke-linejoin="round" clip-path="url(#ca)"/>
<text x="105.4" y="55.0" text-anchor="middle" font-size="9" fill="#4F8EF7" opacity="0.85" clip-path="url(#ca)">+0.5% (+8)</text>
<text x="105.4" y="66.0" text-anchor="middle" font-size="9" fill="#BF5AF2" opacity="0.85" clip-path="url(#ca)">+1.0% (+10)</text>
<text x="105.4" y="77.0" text-anchor="middle" font-size="9" fill="#34C759" opacity="0.85" clip-path="url(#ca)">+1.5% (+11)</text>
<text x="220.7" y="55.0" text-anchor="middle" font-size="9" fill="#4F8EF7" opacity="0.85" clip-path="url(#ca)">+4.0% (+65)</text>
<text x="220.7" y="66.0" text-anchor="middle" font-size="9" fill="#BF5AF2" opacity="0.85" clip-path="url(#ca)">+3.5% (+35)</text>
<text x="220.7" y="77.0" text-anchor="middle" font-size="9" fill="#34C759" opacity="0.85" clip-path="url(#ca)">+3.6% (+27)</text>
<text x="381.5" y="55.0" text-anchor="middle" font-size="9" fill="#4F8EF7" opacity="0.85" clip-path="url(#ca)">+4.1% (+70)</text>
<text x="381.5" y="66.0" text-anchor="middle" font-size="9" fill="#BF5AF2" opacity="0.85" clip-path="url(#ca)">+3.5% (+36)</text>
<text x="381.5" y="77.0" text-anchor="middle" font-size="9" fill="#34C759" opacity="0.85" clip-path="url(#ca)">+3.3% (+26)</text>
<text x="545.4" y="55.0" text-anchor="middle" font-size="9" fill="#4F8EF7" opacity="0.85" clip-path="url(#ca)">+3.5% (+61)</text>
<text x="545.4" y="66.0" text-anchor="middle" font-size="9" fill="#BF5AF2" opacity="0.85" clip-path="url(#ca)">+2.7% (+29)</text>
<text x="545.4" y="77.0" text-anchor="middle" font-size="9" fill="#34C759" opacity="0.85" clip-path="url(#ca)">+2.6% (+21)</text>
<text x="700.2" y="55.0" text-anchor="middle" font-size="9" fill="#4F8EF7" opacity="0.85" clip-path="url(#ca)">+2.4% (+43)</text>
<text x="700.2" y="66.0" text-anchor="middle" font-size="9" fill="#BF5AF2" opacity="0.85" clip-path="url(#ca)">+2.6% (+29)</text>
<text x="700.2" y="77.0" text-anchor="middle" font-size="9" fill="#34C759" opacity="0.85" clip-path="url(#ca)">+2.8% (+23)</text>
<rect x="211" y="369" width="12" height="12" fill="#4F8EF7" rx="2"/>
<text x="227" y="379" font-size="12" fill="#111827">Authors</text>
<rect x="351" y="369" width="12" height="12" fill="#BF5AF2" rx="2"/>
<text x="367" y="379" font-size="12" fill="#111827">Contributors</text>
<rect x="491" y="369" width="12" height="12" fill="#34C759" rx="2"/>
<text x="507" y="379" font-size="12" fill="#111827">Non-author contributors</text>
<text x="72" y="394" font-size="8" fill="#e5e7eb">data since Dec 11, 2025</text>
</svg>