<svg xmlns="http://www.w3.org/2000/svg" width="800" height="400" viewBox="0 0 800 400">
<defs><style>text { font-family: -apple-system, BlinkMacSystemFont, 'Segoe UI', Roboto, sans-serif; }</style></defs>
<rect width="800" height="400" fill="#ffffff" rx="12"/>
<text x="400" y="26" text-anchor="middle" font-size="15" font-weight="600" fill="#111827">Packages by Last Updated Quarter</text>
<text x="400" y="44" text-anchor="middle" font-size="11" fill="#6b7280">last updated at · 3,098 packages with a known last-update date</text>
<line x1="60" y1="58" x2="60" y2="320" stroke="#e5e7eb" stroke-width="1"/>
<line x1="60" y1="320" x2="770" y2="320" stroke="#e5e7eb" stroke-width="1"/>
<text x="-189" y="18" text-anchor="middle" font-size="12" fill="#6b7280" transform="rotate(-90)">Number of packages</text>
<line x1="60" y1="320.0" x2="770" y2="320.0" stroke="#f3f4f6" stroke-width="1"/>
<text x="54" y="324.0" text-anchor="end" font-size="11" fill="#6b7280">0</text>
<line x1="60" y1="267.5" x2="770" y2="267.5" stroke="#f3f4f6" stroke-width="1"/>
<text x="54" y="271.5" text-anchor="end" font-size="11" fill="#6b7280">121</text>
<line x1="60" y1="215.0" x2="770" y2="215.0" stroke="#f3f4f6" stroke-width="1"/>
<text x="54" y="219.0" text-anchor="end" font-size="11" fill="#6b7280">242</text>
<line x1="60" y1="163.0" x2="770" y2="163.0" stroke="#f3f4f6" stroke-width="1"/>
<text x="54" y="167.0" text-anchor="end" font-size="11" fill="#6b7280">362</text>
<line x1="60" y1="110.5" x2="770" y2="110.5" stroke="#f3f4f6" stroke-width="1"/>
<text x="54" y="114.5" text-anchor="end" font-size="11" fill="#6b7280">483</text>
<line x1="60" y1="58.0" x2="770" y2="58.0" stroke="#f3f4f6" stroke-width="1"/>
<text x="54" y="62.0" text-anchor="end" font-size="11" fill="#6b7280">604</text>
<rect x="66.2" y="314.4" width="23.1" height="5.6" fill="#34C759" rx="3" opacity="0.85"/>
<text x="77.8" y="298.4" text-anchor="middle" font-size="10" fill="#6b7280">13</text>
<text x="77.8" y="310.4" text-anchor="middle" font-size="10" fill="#6b7280">(0.42%)</text>
<g transform="translate(77.8,330.0) rotate(-45)"><text text-anchor="end" font-size="10" fill="#111827">2021-Q4</text></g>
<rect x="101.7" y="308.3" width="23.1" height="11.7" fill="#34C759" rx="3" opacity="0.85"/>
<text x="113.3" y="292.3" text-anchor="middle" font-size="10" fill="#6b7280">27</text>
<text x="113.3" y="304.3" text-anchor="middle" font-size="10" fill="#6b7280">(0.87%)</text>
<g transform="translate(113.3,330.0) rotate(-45)"><text text-anchor="end" font-size="10" fill="#111827">2022-Q1</text></g>
<rect x="137.2" y="305.3" width="23.1" height="14.7" fill="#34C759" rx="3" opacity="0.85"/>
<text x="148.8" y="289.3" text-anchor="middle" font-size="10" fill="#6b7280">34</text>
<text x="148.8" y="301.3" text-anchor="middle" font-size="10" fill="#6b7280">(1.10%)</text>
<g transform="translate(148.8,330.0) rotate(-45)"><text text-anchor="end" font-size="10" fill="#111827">2022-Q2</text></g>
<rect x="172.7" y="304.4" width="23.1" height="15.6" fill="#34C759" rx="3" opacity="0.85"/>
<text x="184.3" y="288.4" text-anchor="middle" font-size="10" fill="#6b7280">36</text>
<text x="184.3" y="300.4" text-anchor="middle" font-size="10" fill="#6b7280">(1.16%)</text>
<g transform="translate(184.3,330.0) rotate(-45)"><text text-anchor="end" font-size="10" fill="#111827">2022-Q3</text></g>
<rect x="208.2" y="293.1" width="23.1" height="26.9" fill="#34C759" rx="3" opacity="0.85"/>
<text x="219.8" y="277.1" text-anchor="middle" font-size="10" fill="#6b7280">62</text>
<text x="219.8" y="289.1" text-anchor="middle" font-size="10" fill="#6b7280">(2.00%)</text>
<g transform="translate(219.8,330.0) rotate(-45)"><text text-anchor="end" font-size="10" fill="#111827">2022-Q4</text></g>
<rect x="243.7" y="281.8" width="23.1" height="38.2" fill="#34C759" rx="3" opacity="0.85"/>
<text x="255.3" y="265.8" text-anchor="middle" font-size="10" fill="#6b7280">88</text>
<text x="255.3" y="277.8" text-anchor="middle" font-size="10" fill="#6b7280">(2.84%)</text>
<g transform="translate(255.3,330.0) rotate(-45)"><text text-anchor="end" font-size="10" fill="#111827">2023-Q1</text></g>
<rect x="279.2" y="282.3" width="23.1" height="37.7" fill="#34C759" rx="3" opacity="0.85"/>
<text x="290.8" y="266.3" text-anchor="middle" font-size="10" fill="#6b7280">87</text>
<text x="290.8" y="278.3" text-anchor="middle" font-size="10" fill="#6b7280">(2.81%)</text>
<g transform="translate(290.8,330.0) rotate(-45)"><text text-anchor="end" font-size="10" fill="#111827">2023-Q2</text></g>
<rect x="314.7" y="285.7" width="23.1" height="34.3" fill="#34C759" rx="3" opacity="0.85"/>
<text x="326.3" y="269.7" text-anchor="middle" font-size="10" fill="#6b7280">79</text>
<text x="326.3" y="281.7" text-anchor="middle" font-size="10" fill="#6b7280">(2.55%)</text>
<g transform="translate(326.3,330.0) rotate(-45)"><text text-anchor="end" font-size="10" fill="#111827">2023-Q3</text></g>
<rect x="350.2" y="294.4" width="23.1" height="25.6" fill="#34C759" rx="3" opacity="0.85"/>
<text x="361.8" y="278.4" text-anchor="middle" font-size="10" fill="#6b7280">59</text>
<text x="361.8" y="290.4" text-anchor="middle" font-size="10" fill="#6b7280">(1.90%)</text>
<g transform="translate(361.8,330.0) rotate(-45)"><text text-anchor="end" font-size="10" fill="#111827">2023-Q4</text></g>
<rect x="385.7" y="273.6" width="23.1" height="46.4" fill="#34C759" rx="3" opacity="0.85"/>
<text x="397.3" y="257.6" text-anchor="middle" font-size="10" fill="#6b7280">107</text>
<text x="397.3" y="269.6" text-anchor="middle" font-size="10" fill="#6b7280">(3.45%)</text>
<g transform="translate(397.3,330.0) rotate(-45)"><text text-anchor="end" font-size="10" fill="#111827">2024-Q1</text></g>
<rect x="421.2" y="267.9" width="23.1" height="52.1" fill="#34C759" rx="3" opacity="0.85"/>
<text x="432.8" y="251.9" text-anchor="middle" font-size="10" fill="#6b7280">120</text>
<text x="432.8" y="263.9" text-anchor="middle" font-size="10" fill="#6b7280">(3.87%)</text>
<g transform="translate(432.8,330.0) rotate(-45)"><text text-anchor="end" font-size="10" fill="#111827">2024-Q2</text></g>
<rect x="456.7" y="268.4" width="23.1" height="51.6" fill="#34C759" rx="3" opacity="0.85"/>
<text x="468.3" y="252.4" text-anchor="middle" font-size="10" fill="#6b7280">119</text>
<text x="468.3" y="264.4" text-anchor="middle" font-size="10" fill="#6b7280">(3.84%)</text>
<g transform="translate(468.3,330.0) rotate(-45)"><text text-anchor="end" font-size="10" fill="#111827">2024-Q3</text></g>
<rect x="492.2" y="271.0" width="23.1" height="49.0" fill="#34C759" rx="3" opacity="0.85"/>
<text x="503.8" y="255.0" text-anchor="middle" font-size="10" fill="#6b7280">113</text>
<text x="503.8" y="267.0" text-anchor="middle" font-size="10" fill="#6b7280">(3.65%)</text>
<g transform="translate(503.8,330.0) rotate(-45)"><text text-anchor="end" font-size="10" fill="#111827">2024-Q4</text></g>
<rect x="527.7" y="239.3" width="23.1" height="80.7" fill="#34C759" rx="3" opacity="0.85"/>
<text x="539.3" y="223.3" text-anchor="middle" font-size="10" fill="#6b7280">186</text>
<text x="539.3" y="235.3" text-anchor="middle" font-size="10" fill="#6b7280">(6.00%)</text>
<g transform="translate(539.3,330.0) rotate(-45)"><text text-anchor="end" font-size="10" fill="#111827">2025-Q1</text></g>
<rect x="563.2" y="236.7" width="23.1" height="83.3" fill="#34C759" rx="3" opacity="0.85"/>
<text x="574.8" y="220.7" text-anchor="middle" font-size="10" fill="#6b7280">192</text>
<text x="574.8" y="232.7" text-anchor="middle" font-size="10" fill="#6b7280">(6.20%)</text>
<g transform="translate(574.8,330.0) rotate(-45)"><text text-anchor="end" font-size="10" fill="#111827">2025-Q2</text></g>
<rect x="598.7" y="237.1" width="23.1" height="82.9" fill="#34C759" rx="3" opacity="0.85"/>
<text x="610.3" y="221.1" text-anchor="middle" font-size="10" fill="#6b7280">191</text>
<text x="610.3" y="233.1" text-anchor="middle" font-size="10" fill="#6b7280">(6.17%)</text>
<g transform="translate(610.3,330.0) rotate(-45)"><text text-anchor="end" font-size="10" fill="#111827">2025-Q3</text></g>
<rect x="634.2" y="203.3" width="23.1" height="116.7" fill="#34C759" rx="3" opacity="0.85"/>
<text x="645.8" y="187.3" text-anchor="middle" font-size="10" fill="#6b7280">269</text>
<text x="645.8" y="199.3" text-anchor="middle" font-size="10" fill="#6b7280">(8.68%)</text>
<g transform="translate(645.8,330.0) rotate(-45)"><text text-anchor="end" font-size="10" fill="#111827">2025-Q4</text></g>
<rect x="669.7" y="102.2" width="23.1" height="217.8" fill="#34C759" rx="3" opacity="0.85"/>
<text x="681.3" y="86.2" text-anchor="middle" font-size="10" fill="#6b7280">502</text>
<text x="681.3" y="98.2" text-anchor="middle" font-size="10" fill="#6b7280">(16.20%)</text>
<g transform="translate(681.3,330.0) rotate(-45)"><text text-anchor="end" font-size="10" fill="#111827">2026-Q1</text></g>
<rect x="705.2" y="58.0" width="23.1" height="262.0" fill="#34C759" rx="3" opacity="0.85"/>
<text x="716.8" y="72.0" text-anchor="middle" font-size="10" fill="#6b7280">604</text>
<text x="716.8" y="84.0" text-anchor="middle" font-size="10" fill="#6b7280">(19.50%)</text>
<g transform="translate(716.8,330.0) rotate(-45)"><text text-anchor="end" font-size="10" fill="#111827">2026-Q2</text></g>
<rect x="740.7" y="228.9" width="23.1" height="91.1" fill="#34C759" rx="3" opacity="0.85"/>
<text x="752.3" y="212.9" text-anchor="middle" font-size="10" fill="#6b7280">210</text>
<text x="752.3" y="224.9" text-anchor="middle" font-size="10" fill="#6b7280">(6.78%)</text>
<g transform="translate(752.3,330.0) rotate(-45)"><text text-anchor="end" font-size="10" fill="#111827">2026-Q3</text></g>
</svg>