<svg xmlns="http://www.w3.org/2000/svg" width="800" height="400" viewBox="0 0 800 400">
<defs>
  <style>text { font-family: -apple-system, BlinkMacSystemFont, 'Segoe UI', Roboto, sans-serif; }</style>
  <linearGradient id="g1" x1="0" y1="0" x2="0" y2="1">
  <stop offset="0%" stop-color="#FF6363" stop-opacity="0.25"/>
  <stop offset="100%" stop-color="#FF6363" stop-opacity="0"/>
</linearGradient>
  <clipPath id="ca"><rect x="72" y="45" width="698" height="295"/></clipPath>
</defs>
<rect width="800" height="400" fill="#ffffff" rx="12"/>
<text x="400" y="26" text-anchor="middle" font-size="15" font-weight="600" fill="#111827">Packages Growth Over Time</text>
<line x1="72" y1="340.0" x2="770" y2="340.0" stroke="#f3f4f6" stroke-width="1"/>
<text x="66" y="344.0" text-anchor="end" font-size="11" fill="#6b7280">2.4k</text>
<line x1="72" y1="281.0" x2="770" y2="281.0" stroke="#f3f4f6" stroke-width="1"/>
<text x="66" y="285.0" text-anchor="end" font-size="11" fill="#6b7280">2.5k</text>
<line x1="72" y1="222.0" x2="770" y2="222.0" stroke="#f3f4f6" stroke-width="1"/>
<text x="66" y="226.0" text-anchor="end" font-size="11" fill="#6b7280">2.6k</text>
<line x1="72" y1="163.0" x2="770" y2="163.0" stroke="#f3f4f6" stroke-width="1"/>
<text x="66" y="167.0" text-anchor="end" font-size="11" fill="#6b7280">2.7k</text>
<line x1="72" y1="104.0" x2="770" y2="104.0" stroke="#f3f4f6" stroke-width="1"/>
<text x="66" y="108.0" text-anchor="end" font-size="11" fill="#6b7280">2.8k</text>
<line x1="72" y1="45.0" x2="770" y2="45.0" stroke="#f3f4f6" stroke-width="1"/>
<text x="66" y="49.0" text-anchor="end" font-size="11" fill="#6b7280">2.9k</text>
<line x1="141.8" y1="45" x2="141.8" y2="340" stroke="#e5e7eb" stroke-width="1" stroke-dasharray="3,3" clip-path="url(#ca)"/>
<line x1="293.0" y1="45" x2="293.0" y2="340" stroke="#e5e7eb" stroke-width="1" stroke-dasharray="3,3" clip-path="url(#ca)"/>
<line x1="450.1" y1="45" x2="450.1" y2="340" stroke="#e5e7eb" stroke-width="1" stroke-dasharray="3,3" clip-path="url(#ca)"/>
<line x1="607.1" y1="45" x2="607.1" y2="340" stroke="#e5e7eb" stroke-width="1" stroke-dasharray="3,3" clip-path="url(#ca)"/>
<line x1="764.2" y1="45" x2="764.2" y2="340" stroke="#e5e7eb" stroke-width="1" stroke-dasharray="3,3" clip-path="url(#ca)"/>
<text x="72.0" y="358.0" text-anchor="middle" font-size="11" fill="#6b7280">Dec 11</text>
<text x="211.6" y="358.0" text-anchor="middle" font-size="11" fill="#6b7280">Jan 17</text>
<text x="351.2" y="358.0" text-anchor="middle" font-size="11" fill="#6b7280">Feb 11</text>
<text x="490.8" y="358.0" text-anchor="middle" font-size="11" fill="#6b7280">Mar 9</text>
<text x="630.4" y="358.0" text-anchor="middle" font-size="11" fill="#6b7280">Apr 5</text>
<text x="770.0" y="358.0" text-anchor="middle" font-size="11" fill="#6b7280">May 2</text>
<line x1="72" y1="45" x2="72" y2="340" stroke="#e5e7eb" stroke-width="1"/>
<line x1="72" y1="340" x2="770" y2="340" stroke="#e5e7eb" stroke-width="1"/>
<text x="-192.5" y="18" text-anchor="middle" font-size="12" fill="#6b7280" transform="rotate(-90)">Extensions</text>
<path d="M 72.0,340 L 72.0,294.6 L 77.8,294.0 L 83.6,294.0 L 89.5,292.2 L 95.3,292.2 L 101.1,291.0 L 106.9,289.9 L 112.7,289.3 L 118.5,286.3 L 124.3,283.9 L 130.2,283.9 L 136.0,283.9 L 141.8,283.9 L 147.6,282.8 L 153.4,282.8 L 159.3,282.8 L 165.1,281.6 L 170.9,279.2 L 176.7,275.1 L 182.5,272.1 L 188.3,271.0 L 194.1,270.4 L 200.0,268.0 L 205.8,260.9 L 211.6,258.6 L 217.4,258.6 L 223.2,252.7 L 229.1,250.9 L 234.9,248.6 L 240.7,246.8 L 246.5,243.2 L 252.3,240.3 L 258.1,239.7 L 264.0,235.0 L 269.8,230.8 L 275.6,230.8 L 281.4,227.9 L 287.2,225.5 L 293.0,224.9 L 298.9,224.4 L 304.7,223.8 L 310.5,222.0 L 316.3,211.4 L 322.1,206.7 L 327.9,204.3 L 333.8,203.1 L 339.6,201.3 L 345.4,197.2 L 351.2,196.0 L 357.0,194.9 L 362.8,191.3 L 368.6,190.1 L 374.5,189.0 L 380.3,189.0 L 386.1,178.3 L 391.9,177.2 L 397.7,176.0 L 403.6,173.6 L 409.4,170.7 L 415.2,170.7 L 421.0,166.0 L 426.8,158.3 L 432.6,157.1 L 438.4,157.7 L 444.3,155.9 L 450.1,155.3 L 455.9,155.3 L 461.7,151.8 L 467.5,148.8 L 473.3,146.5 L 479.2,143.5 L 485.0,142.9 L 490.8,142.9 L 496.6,138.8 L 502.4,137.6 L 508.3,137.0 L 514.1,130.0 L 519.9,129.4 L 525.7,129.4 L 531.5,129.4 L 537.3,128.8 L 543.2,125.8 L 549.0,123.5 L 554.8,120.5 L 560.6,119.9 L 566.4,118.2 L 572.2,112.8 L 578.0,108.1 L 583.9,107.5 L 589.7,106.9 L 595.5,105.2 L 601.3,99.3 L 607.1,98.1 L 613.0,96.3 L 618.8,92.8 L 624.6,92.2 L 630.4,91.6 L 636.2,91.6 L 642.0,90.4 L 647.9,86.9 L 653.7,85.7 L 659.5,84.5 L 665.3,83.9 L 671.1,82.8 L 676.9,76.9 L 682.8,76.3 L 688.6,75.1 L 694.4,74.5 L 700.2,71.6 L 706.0,71.0 L 711.8,70.4 L 717.6,68.6 L 723.5,66.2 L 729.3,66.2 L 735.1,66.2 L 740.9,66.2 L 746.7,65.1 L 752.5,62.1 L 758.4,61.5 L 764.2,58.6 L 770.0,58.0 L 770.0,340 Z" fill="url(#g1)" clip-path="url(#ca)"/>
<path d="M 72.0,294.6 L 77.8,294.0 L 83.6,294.0 L 89.5,292.2 L 95.3,292.2 L 101.1,291.0 L 106.9,289.9 L 112.7,289.3 L 118.5,286.3 L 124.3,283.9 L 130.2,283.9 L 136.0,283.9 L 141.8,283.9 L 147.6,282.8 L 153.4,282.8 L 159.3,282.8 L 165.1,281.6 L 170.9,279.2 L 176.7,275.1 L 182.5,272.1 L 188.3,271.0 L 194.1,270.4 L 200.0,268.0 L 205.8,260.9 L 211.6,258.6 L 217.4,258.6 L 223.2,252.7 L 229.1,250.9 L 234.9,248.6 L 240.7,246.8 L 246.5,243.2 L 252.3,240.3 L 258.1,239.7 L 264.0,235.0 L 269.8,230.8 L 275.6,230.8 L 281.4,227.9 L 287.2,225.5 L 293.0,224.9 L 298.9,224.4 L 304.7,223.8 L 310.5,222.0 L 316.3,211.4 L 322.1,206.7 L 327.9,204.3 L 333.8,203.1 L 339.6,201.3 L 345.4,197.2 L 351.2,196.0 L 357.0,194.9 L 362.8,191.3 L 368.6,190.1 L 374.5,189.0 L 380.3,189.0 L 386.1,178.3 L 391.9,177.2 L 397.7,176.0 L 403.6,173.6 L 409.4,170.7 L 415.2,170.7 L 421.0,166.0 L 426.8,158.3 L 432.6,157.1 L 438.4,157.7 L 444.3,155.9 L 450.1,155.3 L 455.9,155.3 L 461.7,151.8 L 467.5,148.8 L 473.3,146.5 L 479.2,143.5 L 485.0,142.9 L 490.8,142.9 L 496.6,138.8 L 502.4,137.6 L 508.3,137.0 L 514.1,130.0 L 519.9,129.4 L 525.7,129.4 L 531.5,129.4 L 537.3,128.8 L 543.2,125.8 L 549.0,123.5 L 554.8,120.5 L 560.6,119.9 L 566.4,118.2 L 572.2,112.8 L 578.0,108.1 L 583.9,107.5 L 589.7,106.9 L 595.5,105.2 L 601.3,99.3 L 607.1,98.1 L 613.0,96.3 L 618.8,92.8 L 624.6,92.2 L 630.4,91.6 L 636.2,91.6 L 642.0,90.4 L 647.9,86.9 L 653.7,85.7 L 659.5,84.5 L 665.3,83.9 L 671.1,82.8 L 676.9,76.9 L 682.8,76.3 L 688.6,75.1 L 694.4,74.5 L 700.2,71.6 L 706.0,71.0 L 711.8,70.4 L 717.6,68.6 L 723.5,66.2 L 729.3,66.2 L 735.1,66.2 L 740.9,66.2 L 746.7,65.1 L 752.5,62.1 L 758.4,61.5 L 764.2,58.6 L 770.0,58.0" fill="none" stroke="#FF6363" stroke-width="2.5" stroke-linejoin="round" clip-path="url(#ca)"/>
<text x="104.0" y="55.0" text-anchor="middle" font-size="9" fill="#FF6363" opacity="0.85" clip-path="url(#ca)">+0.7% (+18)</text>
<text x="214.5" y="55.0" text-anchor="middle" font-size="9" fill="#FF6363" opacity="0.85" clip-path="url(#ca)">+4.0% (+99)</text>
<text x="368.6" y="55.0" text-anchor="middle" font-size="9" fill="#FF6363" opacity="0.85" clip-path="url(#ca)">+4.5% (+117)</text>
<text x="525.7" y="55.0" text-anchor="middle" font-size="9" fill="#FF6363" opacity="0.85" clip-path="url(#ca)">+3.5% (+95)</text>
<text x="682.8" y="55.0" text-anchor="middle" font-size="9" fill="#FF6363" opacity="0.85" clip-path="url(#ca)">+2.2% (+62)</text>
<text x="767.1" y="55.0" text-anchor="middle" font-size="9" fill="#FF6363" opacity="0.85" clip-path="url(#ca)">+0.0% (+1)</text>
<rect x="351" y="369" width="12" height="12" fill="#FF6363" rx="2"/>
<text x="367" y="379" font-size="12" fill="#111827">Extensions</text>
<text x="72" y="394" font-size="8" fill="#e5e7eb">data since Dec 11, 2025</text>
</svg>