<svg xmlns="http://www.w3.org/2000/svg" width="800" height="400" viewBox="0 0 800 400">
<defs>
  <style>text { font-family: -apple-system, BlinkMacSystemFont, 'Segoe UI', Roboto, sans-serif; }</style>
  <linearGradient id="g5" x1="0" y1="0" x2="0" y2="1">
  <stop offset="0%" stop-color="#34C759" stop-opacity="0.25"/>
  <stop offset="100%" stop-color="#34C759" stop-opacity="0"/>
</linearGradient>
<linearGradient id="g6" x1="0" y1="0" x2="0" y2="1">
  <stop offset="0%" stop-color="#4F8EF7" stop-opacity="0.25"/>
  <stop offset="100%" stop-color="#4F8EF7" stop-opacity="0"/>
</linearGradient>
<linearGradient id="g7" x1="0" y1="0" x2="0" y2="1">
  <stop offset="0%" stop-color="#FF6363" stop-opacity="0.25"/>
  <stop offset="100%" stop-color="#FF6363" stop-opacity="0"/>
</linearGradient>
  <clipPath id="ca"><rect x="72" y="45" width="698" height="295"/></clipPath>
</defs>
<rect width="800" height="400" fill="#ffffff" rx="12"/>
<text x="400" y="26" text-anchor="middle" font-size="15" font-weight="600" fill="#111827">Platform Support Over Time</text>
<line x1="72" y1="340.0" x2="770" y2="340.0" stroke="#f3f4f6" stroke-width="1"/>
<text x="66" y="344.0" text-anchor="end" font-size="11" fill="#6b7280">0</text>
<line x1="72" y1="281.0" x2="770" y2="281.0" stroke="#f3f4f6" stroke-width="1"/>
<text x="66" y="285.0" text-anchor="end" font-size="11" fill="#6b7280">200</text>
<line x1="72" y1="222.0" x2="770" y2="222.0" stroke="#f3f4f6" stroke-width="1"/>
<text x="66" y="226.0" text-anchor="end" font-size="11" fill="#6b7280">400</text>
<line x1="72" y1="163.0" x2="770" y2="163.0" stroke="#f3f4f6" stroke-width="1"/>
<text x="66" y="167.0" text-anchor="end" font-size="11" fill="#6b7280">600</text>
<line x1="72" y1="104.0" x2="770" y2="104.0" stroke="#f3f4f6" stroke-width="1"/>
<text x="66" y="108.0" text-anchor="end" font-size="11" fill="#6b7280">800</text>
<line x1="72" y1="45.0" x2="770" y2="45.0" stroke="#f3f4f6" stroke-width="1"/>
<text x="66" y="49.0" text-anchor="end" font-size="11" fill="#6b7280">1.0k</text>
<line x1="117.8" y1="45" x2="117.8" y2="340" stroke="#e5e7eb" stroke-width="1" stroke-dasharray="3,3" clip-path="url(#ca)"/>
<line x1="216.9" y1="45" x2="216.9" y2="340" stroke="#e5e7eb" stroke-width="1" stroke-dasharray="3,3" clip-path="url(#ca)"/>
<line x1="319.9" y1="45" x2="319.9" y2="340" stroke="#e5e7eb" stroke-width="1" stroke-dasharray="3,3" clip-path="url(#ca)"/>
<line x1="422.9" y1="45" x2="422.9" y2="340" stroke="#e5e7eb" stroke-width="1" stroke-dasharray="3,3" clip-path="url(#ca)"/>
<line x1="525.9" y1="45" x2="525.9" y2="340" stroke="#e5e7eb" stroke-width="1" stroke-dasharray="3,3" clip-path="url(#ca)"/>
<line x1="625.1" y1="45" x2="625.1" y2="340" stroke="#e5e7eb" stroke-width="1" stroke-dasharray="3,3" clip-path="url(#ca)"/>
<line x1="716.6" y1="45" x2="716.6" y2="340" stroke="#e5e7eb" stroke-width="1" stroke-dasharray="3,3" clip-path="url(#ca)"/>
<text x="72.0" y="358.0" text-anchor="middle" font-size="11" fill="#6b7280">Dec 11</text>
<text x="213.1" y="358.0" text-anchor="middle" font-size="11" fill="#6b7280">Jan 31</text>
<text x="350.4" y="358.0" text-anchor="middle" font-size="11" fill="#6b7280">Mar 10</text>
<text x="491.6" y="358.0" text-anchor="middle" font-size="11" fill="#6b7280">Apr 21</text>
<text x="628.9" y="358.0" text-anchor="middle" font-size="11" fill="#6b7280">Jun 3</text>
<text x="770.0" y="358.0" text-anchor="middle" font-size="11" fill="#6b7280">Jul 18</text>
<line x1="72" y1="45" x2="72" y2="340" stroke="#e5e7eb" stroke-width="1"/>
<line x1="72" y1="340" x2="770" y2="340" stroke="#e5e7eb" stroke-width="1"/>
<text x="-192.5" y="18" text-anchor="middle" font-size="12" fill="#6b7280" transform="rotate(-90)">Extensions</text>
<path d="M 72.0,340 L 72.0,242.6 L 75.8,240.0 L 79.6,239.7 L 83.4,238.5 L 87.3,237.9 L 91.1,235.0 L 94.9,233.2 L 98.7,232.3 L 102.5,230.8 L 106.3,229.1 L 110.1,228.2 L 114.0,227.9 L 117.8,227.0 L 121.6,226.4 L 125.4,226.1 L 129.2,225.2 L 133.0,224.4 L 136.8,223.5 L 140.7,222.6 L 144.5,221.4 L 148.3,220.5 L 152.1,219.6 L 155.9,218.8 L 159.7,217.0 L 163.5,216.4 L 167.4,216.4 L 171.2,214.3 L 175.0,213.7 L 178.8,213.2 L 182.6,212.6 L 186.4,211.1 L 190.2,209.0 L 194.1,208.7 L 197.9,208.4 L 201.7,206.7 L 205.5,206.1 L 209.3,204.6 L 213.1,204.3 L 216.9,204.0 L 220.8,203.4 L 224.6,203.4 L 228.4,203.4 L 232.2,199.3 L 236.0,199.0 L 239.8,198.1 L 243.6,197.8 L 247.5,197.5 L 251.3,196.6 L 255.1,196.0 L 258.9,195.4 L 262.7,193.7 L 266.5,193.7 L 270.3,193.7 L 274.2,193.4 L 278.0,190.4 L 281.8,189.6 L 285.6,189.0 L 289.4,188.1 L 293.2,187.5 L 297.0,187.5 L 300.9,186.0 L 304.7,183.9 L 308.5,183.4 L 312.3,183.1 L 316.1,182.2 L 319.9,182.2 L 323.7,181.6 L 327.6,180.7 L 331.4,180.1 L 335.2,178.9 L 339.0,177.8 L 342.8,177.5 L 346.6,177.5 L 350.4,176.3 L 354.3,176.3 L 358.1,176.3 L 361.9,174.5 L 365.7,174.2 L 369.5,173.9 L 373.3,173.9 L 377.1,173.6 L 381.0,172.4 L 384.8,171.9 L 388.6,171.0 L 392.4,171.0 L 396.2,170.7 L 400.0,169.5 L 403.8,168.6 L 407.7,168.6 L 411.5,168.3 L 415.3,167.7 L 419.1,165.7 L 422.9,165.1 L 426.7,164.2 L 430.5,164.2 L 434.3,163.6 L 438.2,163.3 L 442.0,163.0 L 445.8,162.7 L 449.6,162.4 L 453.4,162.4 L 457.2,162.1 L 461.0,161.8 L 464.9,160.9 L 468.7,159.8 L 472.5,159.5 L 476.3,158.6 L 480.1,158.6 L 483.9,157.4 L 487.7,157.1 L 491.6,157.1 L 495.4,157.1 L 499.2,156.2 L 503.0,155.9 L 506.8,155.9 L 510.6,155.9 L 514.4,155.6 L 518.3,154.4 L 522.1,154.2 L 525.9,153.3 L 529.7,152.7 L 533.5,152.7 L 537.3,151.8 L 541.1,151.2 L 545.0,151.2 L 548.8,150.9 L 552.6,149.4 L 556.4,148.0 L 560.2,147.7 L 564.0,147.1 L 567.8,145.9 L 571.7,145.9 L 575.5,145.3 L 579.3,143.8 L 583.1,141.2 L 586.9,140.3 L 590.7,140.3 L 594.5,140.3 L 598.4,140.3 L 602.2,140.3 L 606.0,139.1 L 609.8,138.2 L 613.6,138.2 L 617.4,138.2 L 621.2,138.2 L 625.1,137.3 L 628.9,137.3 L 632.7,136.5 L 636.5,135.6 L 640.3,135.3 L 644.1,135.0 L 647.9,134.4 L 651.8,134.4 L 655.6,133.5 L 659.4,132.3 L 663.2,131.4 L 667.0,129.7 L 670.8,129.1 L 674.6,128.8 L 678.5,128.5 L 682.3,127.9 L 686.1,127.6 L 689.9,126.1 L 693.7,125.2 L 697.5,123.8 L 701.3,123.5 L 705.2,123.5 L 709.0,123.2 L 712.8,122.0 L 716.6,121.7 L 720.4,121.4 L 724.2,121.1 L 728.0,119.9 L 731.9,119.6 L 735.7,118.2 L 739.5,117.3 L 743.3,117.0 L 747.1,115.2 L 750.9,115.2 L 754.7,115.2 L 758.6,115.2 L 762.4,114.6 L 766.2,114.6 L 770.0,114.3 L 770.0,340 Z" fill="url(#g5)" clip-path="url(#ca)"/>
<path d="M 72.0,242.6 L 75.8,240.0 L 79.6,239.7 L 83.4,238.5 L 87.3,237.9 L 91.1,235.0 L 94.9,233.2 L 98.7,232.3 L 102.5,230.8 L 106.3,229.1 L 110.1,228.2 L 114.0,227.9 L 117.8,227.0 L 121.6,226.4 L 125.4,226.1 L 129.2,225.2 L 133.0,224.4 L 136.8,223.5 L 140.7,222.6 L 144.5,221.4 L 148.3,220.5 L 152.1,219.6 L 155.9,218.8 L 159.7,217.0 L 163.5,216.4 L 167.4,216.4 L 171.2,214.3 L 175.0,213.7 L 178.8,213.2 L 182.6,212.6 L 186.4,211.1 L 190.2,209.0 L 194.1,208.7 L 197.9,208.4 L 201.7,206.7 L 205.5,206.1 L 209.3,204.6 L 213.1,204.3 L 216.9,204.0 L 220.8,203.4 L 224.6,203.4 L 228.4,203.4 L 232.2,199.3 L 236.0,199.0 L 239.8,198.1 L 243.6,197.8 L 247.5,197.5 L 251.3,196.6 L 255.1,196.0 L 258.9,195.4 L 262.7,193.7 L 266.5,193.7 L 270.3,193.7 L 274.2,193.4 L 278.0,190.4 L 281.8,189.6 L 285.6,189.0 L 289.4,188.1 L 293.2,187.5 L 297.0,187.5 L 300.9,186.0 L 304.7,183.9 L 308.5,183.4 L 312.3,183.1 L 316.1,182.2 L 319.9,182.2 L 323.7,181.6 L 327.6,180.7 L 331.4,180.1 L 335.2,178.9 L 339.0,177.8 L 342.8,177.5 L 346.6,177.5 L 350.4,176.3 L 354.3,176.3 L 358.1,176.3 L 361.9,174.5 L 365.7,174.2 L 369.5,173.9 L 373.3,173.9 L 377.1,173.6 L 381.0,172.4 L 384.8,171.9 L 388.6,171.0 L 392.4,171.0 L 396.2,170.7 L 400.0,169.5 L 403.8,168.6 L 407.7,168.6 L 411.5,168.3 L 415.3,167.7 L 419.1,165.7 L 422.9,165.1 L 426.7,164.2 L 430.5,164.2 L 434.3,163.6 L 438.2,163.3 L 442.0,163.0 L 445.8,162.7 L 449.6,162.4 L 453.4,162.4 L 457.2,162.1 L 461.0,161.8 L 464.9,160.9 L 468.7,159.8 L 472.5,159.5 L 476.3,158.6 L 480.1,158.6 L 483.9,157.4 L 487.7,157.1 L 491.6,157.1 L 495.4,157.1 L 499.2,156.2 L 503.0,155.9 L 506.8,155.9 L 510.6,155.9 L 514.4,155.6 L 518.3,154.4 L 522.1,154.2 L 525.9,153.3 L 529.7,152.7 L 533.5,152.7 L 537.3,151.8 L 541.1,151.2 L 545.0,151.2 L 548.8,150.9 L 552.6,149.4 L 556.4,148.0 L 560.2,147.7 L 564.0,147.1 L 567.8,145.9 L 571.7,145.9 L 575.5,145.3 L 579.3,143.8 L 583.1,141.2 L 586.9,140.3 L 590.7,140.3 L 594.5,140.3 L 598.4,140.3 L 602.2,140.3 L 606.0,139.1 L 609.8,138.2 L 613.6,138.2 L 617.4,138.2 L 621.2,138.2 L 625.1,137.3 L 628.9,137.3 L 632.7,136.5 L 636.5,135.6 L 640.3,135.3 L 644.1,135.0 L 647.9,134.4 L 651.8,134.4 L 655.6,133.5 L 659.4,132.3 L 663.2,131.4 L 667.0,129.7 L 670.8,129.1 L 674.6,128.8 L 678.5,128.5 L 682.3,127.9 L 686.1,127.6 L 689.9,126.1 L 693.7,125.2 L 697.5,123.8 L 701.3,123.5 L 705.2,123.5 L 709.0,123.2 L 712.8,122.0 L 716.6,121.7 L 720.4,121.4 L 724.2,121.1 L 728.0,119.9 L 731.9,119.6 L 735.7,118.2 L 739.5,117.3 L 743.3,117.0 L 747.1,115.2 L 750.9,115.2 L 754.7,115.2 L 758.6,115.2 L 762.4,114.6 L 766.2,114.6 L 770.0,114.3" fill="none" stroke="#34C759" stroke-width="2.5" stroke-linejoin="round" clip-path="url(#ca)"/>
<path d="M 72.0,340 L 72.0,222.6 L 75.8,222.6 L 79.6,222.3 L 83.4,221.4 L 87.3,221.7 L 91.1,221.7 L 94.9,220.5 L 98.7,219.6 L 102.5,219.6 L 106.3,219.9 L 110.1,219.6 L 114.0,219.3 L 117.8,219.1 L 121.6,219.1 L 125.4,219.1 L 129.2,219.3 L 133.0,218.8 L 136.8,218.2 L 140.7,216.4 L 144.5,215.2 L 148.3,215.2 L 152.1,214.9 L 155.9,213.2 L 159.7,210.5 L 163.5,209.6 L 167.4,209.0 L 171.2,207.0 L 175.0,205.5 L 178.8,204.9 L 182.6,204.3 L 186.4,203.7 L 190.2,203.4 L 194.1,203.4 L 197.9,201.3 L 201.7,200.8 L 205.5,200.2 L 209.3,200.2 L 213.1,198.7 L 216.9,198.4 L 220.8,197.5 L 224.6,196.3 L 228.4,194.9 L 232.2,192.8 L 236.0,190.7 L 239.8,190.4 L 243.6,189.8 L 247.5,189.3 L 251.3,187.5 L 255.1,187.5 L 258.9,186.9 L 262.7,186.0 L 266.5,185.4 L 270.3,184.2 L 274.2,184.5 L 278.0,181.0 L 281.8,180.7 L 285.6,180.4 L 289.4,179.8 L 293.2,178.0 L 297.0,178.0 L 300.9,176.3 L 304.7,174.2 L 308.5,174.2 L 312.3,174.2 L 316.1,173.9 L 319.9,173.6 L 323.7,173.3 L 327.6,171.9 L 331.4,170.1 L 335.2,169.5 L 339.0,168.3 L 342.8,168.3 L 346.6,167.4 L 350.4,165.7 L 354.3,164.8 L 358.1,164.5 L 361.9,162.4 L 365.7,162.1 L 369.5,162.1 L 373.3,161.8 L 377.1,161.8 L 381.0,160.3 L 384.8,159.8 L 388.6,158.9 L 392.4,158.6 L 396.2,158.0 L 400.0,155.6 L 403.8,152.4 L 407.7,152.1 L 411.5,151.5 L 415.3,151.2 L 419.1,149.7 L 422.9,118.5 L 426.7,117.9 L 430.5,116.4 L 434.3,116.4 L 438.2,116.4 L 442.0,116.7 L 445.8,116.4 L 449.6,114.6 L 453.4,114.0 L 457.2,113.7 L 461.0,113.4 L 464.9,112.3 L 468.7,110.5 L 472.5,110.5 L 476.3,110.5 L 480.1,110.2 L 483.9,109.9 L 487.7,109.9 L 491.6,109.3 L 495.4,108.4 L 499.2,106.9 L 503.0,106.4 L 506.8,106.1 L 510.6,106.1 L 514.4,105.8 L 518.3,105.2 L 522.1,104.9 L 525.9,103.4 L 529.7,103.4 L 533.5,102.8 L 537.3,101.6 L 541.1,100.2 L 545.0,99.9 L 548.8,99.6 L 552.6,96.9 L 556.4,96.3 L 560.2,95.7 L 564.0,95.7 L 567.8,94.6 L 571.7,94.0 L 575.5,92.5 L 579.3,91.9 L 583.1,91.0 L 586.9,90.7 L 590.7,89.5 L 594.5,88.7 L 598.4,88.4 L 602.2,87.8 L 606.0,86.6 L 609.8,86.0 L 613.6,85.1 L 617.4,84.5 L 621.2,84.2 L 625.1,83.6 L 628.9,82.8 L 632.7,82.2 L 636.5,81.6 L 640.3,80.7 L 644.1,80.7 L 647.9,80.1 L 651.8,78.6 L 655.6,77.2 L 659.4,76.3 L 663.2,76.6 L 667.0,76.0 L 670.8,75.7 L 674.6,75.4 L 678.5,74.8 L 682.3,73.3 L 686.1,73.3 L 689.9,73.0 L 693.7,72.1 L 697.5,71.3 L 701.3,70.1 L 705.2,69.5 L 709.0,69.5 L 712.8,68.6 L 716.6,68.0 L 720.4,67.4 L 724.2,66.5 L 728.0,65.9 L 731.9,65.9 L 735.7,65.6 L 739.5,66.2 L 743.3,65.6 L 747.1,64.2 L 750.9,63.3 L 754.7,62.7 L 758.6,62.1 L 762.4,60.9 L 766.2,58.9 L 770.0,58.6 L 770.0,340 Z" fill="url(#g6)" clip-path="url(#ca)"/>
<path d="M 72.0,222.6 L 75.8,222.6 L 79.6,222.3 L 83.4,221.4 L 87.3,221.7 L 91.1,221.7 L 94.9,220.5 L 98.7,219.6 L 102.5,219.6 L 106.3,219.9 L 110.1,219.6 L 114.0,219.3 L 117.8,219.1 L 121.6,219.1 L 125.4,219.1 L 129.2,219.3 L 133.0,218.8 L 136.8,218.2 L 140.7,216.4 L 144.5,215.2 L 148.3,215.2 L 152.1,214.9 L 155.9,213.2 L 159.7,210.5 L 163.5,209.6 L 167.4,209.0 L 171.2,207.0 L 175.0,205.5 L 178.8,204.9 L 182.6,204.3 L 186.4,203.7 L 190.2,203.4 L 194.1,203.4 L 197.9,201.3 L 201.7,200.8 L 205.5,200.2 L 209.3,200.2 L 213.1,198.7 L 216.9,198.4 L 220.8,197.5 L 224.6,196.3 L 228.4,194.9 L 232.2,192.8 L 236.0,190.7 L 239.8,190.4 L 243.6,189.8 L 247.5,189.3 L 251.3,187.5 L 255.1,187.5 L 258.9,186.9 L 262.7,186.0 L 266.5,185.4 L 270.3,184.2 L 274.2,184.5 L 278.0,181.0 L 281.8,180.7 L 285.6,180.4 L 289.4,179.8 L 293.2,178.0 L 297.0,178.0 L 300.9,176.3 L 304.7,174.2 L 308.5,174.2 L 312.3,174.2 L 316.1,173.9 L 319.9,173.6 L 323.7,173.3 L 327.6,171.9 L 331.4,170.1 L 335.2,169.5 L 339.0,168.3 L 342.8,168.3 L 346.6,167.4 L 350.4,165.7 L 354.3,164.8 L 358.1,164.5 L 361.9,162.4 L 365.7,162.1 L 369.5,162.1 L 373.3,161.8 L 377.1,161.8 L 381.0,160.3 L 384.8,159.8 L 388.6,158.9 L 392.4,158.6 L 396.2,158.0 L 400.0,155.6 L 403.8,152.4 L 407.7,152.1 L 411.5,151.5 L 415.3,151.2 L 419.1,149.7 L 422.9,118.5 L 426.7,117.9 L 430.5,116.4 L 434.3,116.4 L 438.2,116.4 L 442.0,116.7 L 445.8,116.4 L 449.6,114.6 L 453.4,114.0 L 457.2,113.7 L 461.0,113.4 L 464.9,112.3 L 468.7,110.5 L 472.5,110.5 L 476.3,110.5 L 480.1,110.2 L 483.9,109.9 L 487.7,109.9 L 491.6,109.3 L 495.4,108.4 L 499.2,106.9 L 503.0,106.4 L 506.8,106.1 L 510.6,106.1 L 514.4,105.8 L 518.3,105.2 L 522.1,104.9 L 525.9,103.4 L 529.7,103.4 L 533.5,102.8 L 537.3,101.6 L 541.1,100.2 L 545.0,99.9 L 548.8,99.6 L 552.6,96.9 L 556.4,96.3 L 560.2,95.7 L 564.0,95.7 L 567.8,94.6 L 571.7,94.0 L 575.5,92.5 L 579.3,91.9 L 583.1,91.0 L 586.9,90.7 L 590.7,89.5 L 594.5,88.7 L 598.4,88.4 L 602.2,87.8 L 606.0,86.6 L 609.8,86.0 L 613.6,85.1 L 617.4,84.5 L 621.2,84.2 L 625.1,83.6 L 628.9,82.8 L 632.7,82.2 L 636.5,81.6 L 640.3,80.7 L 644.1,80.7 L 647.9,80.1 L 651.8,78.6 L 655.6,77.2 L 659.4,76.3 L 663.2,76.6 L 667.0,76.0 L 670.8,75.7 L 674.6,75.4 L 678.5,74.8 L 682.3,73.3 L 686.1,73.3 L 689.9,73.0 L 693.7,72.1 L 697.5,71.3 L 701.3,70.1 L 705.2,69.5 L 709.0,69.5 L 712.8,68.6 L 716.6,68.0 L 720.4,67.4 L 724.2,66.5 L 728.0,65.9 L 731.9,65.9 L 735.7,65.6 L 739.5,66.2 L 743.3,65.6 L 747.1,64.2 L 750.9,63.3 L 754.7,62.7 L 758.6,62.1 L 762.4,60.9 L 766.2,58.9 L 770.0,58.6" fill="none" stroke="#4F8EF7" stroke-width="2.5" stroke-linejoin="round" clip-path="url(#ca)"/>
<path d="M 72.0,340 L 72.0,338.2 L 75.8,337.9 L 79.6,337.9 L 83.4,337.6 L 87.3,337.6 L 91.1,337.6 L 94.9,337.6 L 98.7,337.6 L 102.5,337.1 L 106.3,337.1 L 110.1,337.1 L 114.0,337.1 L 117.8,337.1 L 121.6,336.8 L 125.4,336.8 L 129.2,336.8 L 133.0,336.8 L 136.8,336.8 L 140.7,336.5 L 144.5,335.9 L 148.3,335.6 L 152.1,335.6 L 155.9,335.6 L 159.7,335.3 L 163.5,335.3 L 167.4,335.3 L 171.2,335.0 L 175.0,335.0 L 178.8,335.0 L 182.6,334.7 L 186.4,334.7 L 190.2,334.7 L 194.1,334.7 L 197.9,334.4 L 201.7,334.4 L 205.5,334.4 L 209.3,334.4 L 213.1,334.4 L 216.9,334.4 L 220.8,334.4 L 224.6,334.4 L 228.4,334.4 L 232.2,334.4 L 236.0,334.4 L 239.8,334.4 L 243.6,334.4 L 247.5,334.1 L 251.3,334.1 L 255.1,334.1 L 258.9,334.1 L 262.7,334.1 L 266.5,334.1 L 270.3,334.1 L 274.2,334.1 L 278.0,334.1 L 281.8,334.1 L 285.6,334.1 L 289.4,334.1 L 293.2,333.8 L 297.0,333.8 L 300.9,333.8 L 304.7,333.8 L 308.5,333.8 L 312.3,333.8 L 316.1,333.8 L 319.9,333.8 L 323.7,333.8 L 327.6,333.8 L 331.4,333.8 L 335.2,333.8 L 339.0,333.8 L 342.8,333.8 L 346.6,333.8 L 350.4,333.8 L 354.3,333.8 L 358.1,333.8 L 361.9,333.8 L 365.7,333.8 L 369.5,333.8 L 373.3,333.8 L 377.1,333.8 L 381.0,333.8 L 384.8,333.8 L 388.6,333.8 L 392.4,333.8 L 396.2,333.8 L 400.0,333.8 L 403.8,333.8 L 407.7,333.8 L 411.5,333.8 L 415.3,333.8 L 419.1,333.8 L 422.9,333.8 L 426.7,333.8 L 430.5,333.5 L 434.3,333.5 L 438.2,333.5 L 442.0,333.5 L 445.8,333.5 L 449.6,333.2 L 453.4,333.2 L 457.2,333.2 L 461.0,333.2 L 464.9,332.9 L 468.7,332.9 L 472.5,332.6 L 476.3,332.6 L 480.1,332.6 L 483.9,332.6 L 487.7,332.6 L 491.6,332.6 L 495.4,332.6 L 499.2,332.6 L 503.0,332.6 L 506.8,332.6 L 510.6,332.6 L 514.4,332.6 L 518.3,332.6 L 522.1,332.6 L 525.9,332.6 L 529.7,332.6 L 533.5,332.6 L 537.3,332.6 L 541.1,332.6 L 545.0,332.6 L 548.8,332.6 L 552.6,332.6 L 556.4,332.6 L 560.2,332.6 L 564.0,332.6 L 567.8,332.6 L 571.7,332.6 L 575.5,332.6 L 579.3,332.6 L 583.1,332.6 L 586.9,332.6 L 590.7,332.6 L 594.5,332.6 L 598.4,332.6 L 602.2,332.6 L 606.0,332.6 L 609.8,332.6 L 613.6,332.6 L 617.4,332.6 L 621.2,332.6 L 625.1,332.6 L 628.9,332.6 L 632.7,332.6 L 636.5,332.6 L 640.3,332.6 L 644.1,332.6 L 647.9,332.6 L 651.8,332.6 L 655.6,332.3 L 659.4,332.3 L 663.2,332.3 L 667.0,332.3 L 670.8,332.3 L 674.6,332.3 L 678.5,332.3 L 682.3,332.3 L 686.1,332.3 L 689.9,332.3 L 693.7,332.3 L 697.5,332.0 L 701.3,332.0 L 705.2,332.0 L 709.0,332.0 L 712.8,332.0 L 716.6,332.0 L 720.4,332.0 L 724.2,332.0 L 728.0,332.0 L 731.9,332.0 L 735.7,332.0 L 739.5,332.0 L 743.3,332.0 L 747.1,332.0 L 750.9,331.7 L 754.7,331.7 L 758.6,331.7 L 762.4,331.7 L 766.2,331.7 L 770.0,331.7 L 770.0,340 Z" fill="url(#g7)" clip-path="url(#ca)"/>
<path d="M 72.0,338.2 L 75.8,337.9 L 79.6,337.9 L 83.4,337.6 L 87.3,337.6 L 91.1,337.6 L 94.9,337.6 L 98.7,337.6 L 102.5,337.1 L 106.3,337.1 L 110.1,337.1 L 114.0,337.1 L 117.8,337.1 L 121.6,336.8 L 125.4,336.8 L 129.2,336.8 L 133.0,336.8 L 136.8,336.8 L 140.7,336.5 L 144.5,335.9 L 148.3,335.6 L 152.1,335.6 L 155.9,335.6 L 159.7,335.3 L 163.5,335.3 L 167.4,335.3 L 171.2,335.0 L 175.0,335.0 L 178.8,335.0 L 182.6,334.7 L 186.4,334.7 L 190.2,334.7 L 194.1,334.7 L 197.9,334.4 L 201.7,334.4 L 205.5,334.4 L 209.3,334.4 L 213.1,334.4 L 216.9,334.4 L 220.8,334.4 L 224.6,334.4 L 228.4,334.4 L 232.2,334.4 L 236.0,334.4 L 239.8,334.4 L 243.6,334.4 L 247.5,334.1 L 251.3,334.1 L 255.1,334.1 L 258.9,334.1 L 262.7,334.1 L 266.5,334.1 L 270.3,334.1 L 274.2,334.1 L 278.0,334.1 L 281.8,334.1 L 285.6,334.1 L 289.4,334.1 L 293.2,333.8 L 297.0,333.8 L 300.9,333.8 L 304.7,333.8 L 308.5,333.8 L 312.3,333.8 L 316.1,333.8 L 319.9,333.8 L 323.7,333.8 L 327.6,333.8 L 331.4,333.8 L 335.2,333.8 L 339.0,333.8 L 342.8,333.8 L 346.6,333.8 L 350.4,333.8 L 354.3,333.8 L 358.1,333.8 L 361.9,333.8 L 365.7,333.8 L 369.5,333.8 L 373.3,333.8 L 377.1,333.8 L 381.0,333.8 L 384.8,333.8 L 388.6,333.8 L 392.4,333.8 L 396.2,333.8 L 400.0,333.8 L 403.8,333.8 L 407.7,333.8 L 411.5,333.8 L 415.3,333.8 L 419.1,333.8 L 422.9,333.8 L 426.7,333.8 L 430.5,333.5 L 434.3,333.5 L 438.2,333.5 L 442.0,333.5 L 445.8,333.5 L 449.6,333.2 L 453.4,333.2 L 457.2,333.2 L 461.0,333.2 L 464.9,332.9 L 468.7,332.9 L 472.5,332.6 L 476.3,332.6 L 480.1,332.6 L 483.9,332.6 L 487.7,332.6 L 491.6,332.6 L 495.4,332.6 L 499.2,332.6 L 503.0,332.6 L 506.8,332.6 L 510.6,332.6 L 514.4,332.6 L 518.3,332.6 L 522.1,332.6 L 525.9,332.6 L 529.7,332.6 L 533.5,332.6 L 537.3,332.6 L 541.1,332.6 L 545.0,332.6 L 548.8,332.6 L 552.6,332.6 L 556.4,332.6 L 560.2,332.6 L 564.0,332.6 L 567.8,332.6 L 571.7,332.6 L 575.5,332.6 L 579.3,332.6 L 583.1,332.6 L 586.9,332.6 L 590.7,332.6 L 594.5,332.6 L 598.4,332.6 L 602.2,332.6 L 606.0,332.6 L 609.8,332.6 L 613.6,332.6 L 617.4,332.6 L 621.2,332.6 L 625.1,332.6 L 628.9,332.6 L 632.7,332.6 L 636.5,332.6 L 640.3,332.6 L 644.1,332.6 L 647.9,332.6 L 651.8,332.6 L 655.6,332.3 L 659.4,332.3 L 663.2,332.3 L 667.0,332.3 L 670.8,332.3 L 674.6,332.3 L 678.5,332.3 L 682.3,332.3 L 686.1,332.3 L 689.9,332.3 L 693.7,332.3 L 697.5,332.0 L 701.3,332.0 L 705.2,332.0 L 709.0,332.0 L 712.8,332.0 L 716.6,332.0 L 720.4,332.0 L 724.2,332.0 L 728.0,332.0 L 731.9,332.0 L 735.7,332.0 L 739.5,332.0 L 743.3,332.0 L 747.1,332.0 L 750.9,331.7 L 754.7,331.7 L 758.6,331.7 L 762.4,331.7 L 766.2,331.7 L 770.0,331.7" fill="none" stroke="#FF6363" stroke-width="2.5" stroke-linejoin="round" clip-path="url(#ca)"/>
<text x="93.0" y="55.0" text-anchor="middle" font-size="9" fill="#34C759" opacity="0.85" clip-path="url(#ca)">+15.2% (+50)</text>
<text x="93.0" y="66.0" text-anchor="middle" font-size="9" fill="#4F8EF7" opacity="0.85" clip-path="url(#ca)">+2.8% (+11)</text>
<text x="93.0" y="77.0" text-anchor="middle" font-size="9" fill="#FF6363" opacity="0.85" clip-path="url(#ca)">+66.7% (+4)</text>
<text x="165.4" y="55.0" text-anchor="middle" font-size="9" fill="#34C759" opacity="0.85" clip-path="url(#ca)">+20.1% (+77)</text>
<text x="165.4" y="66.0" text-anchor="middle" font-size="9" fill="#4F8EF7" opacity="0.85" clip-path="url(#ca)">+16.8% (+69)</text>
<text x="165.4" y="77.0" text-anchor="middle" font-size="9" fill="#FF6363" opacity="0.85" clip-path="url(#ca)">+90.0% (+9)</text>
<text x="266.5" y="55.0" text-anchor="middle" font-size="9" fill="#34C759" opacity="0.85" clip-path="url(#ca)">+16.1% (+74)</text>
<text x="266.5" y="66.0" text-anchor="middle" font-size="9" fill="#4F8EF7" opacity="0.85" clip-path="url(#ca)">+17.3% (+83)</text>
<text x="266.5" y="77.0" text-anchor="middle" font-size="9" fill="#FF6363" opacity="0.85" clip-path="url(#ca)">+10.5% (+2)</text>
<text x="369.5" y="55.0" text-anchor="middle" font-size="9" fill="#34C759" opacity="0.85" clip-path="url(#ca)">+10.5% (+56)</text>
<text x="369.5" y="66.0" text-anchor="middle" font-size="9" fill="#4F8EF7" opacity="0.85" clip-path="url(#ca)">+14.4% (+81)</text>
<text x="369.5" y="77.0" text-anchor="middle" font-size="9" fill="#FF6363" opacity="0.85" clip-path="url(#ca)">+0.0% (+0)</text>
<text x="472.5" y="55.0" text-anchor="middle" font-size="9" fill="#34C759" opacity="0.85" clip-path="url(#ca)">+6.2% (+37)</text>
<text x="472.5" y="66.0" text-anchor="middle" font-size="9" fill="#4F8EF7" opacity="0.85" clip-path="url(#ca)">+6.1% (+46)</text>
<text x="472.5" y="77.0" text-anchor="middle" font-size="9" fill="#FF6363" opacity="0.85" clip-path="url(#ca)">+19.0% (+4)</text>
<text x="573.6" y="55.0" text-anchor="middle" font-size="9" fill="#34C759" opacity="0.85" clip-path="url(#ca)">+8.1% (+51)</text>
<text x="573.6" y="66.0" text-anchor="middle" font-size="9" fill="#4F8EF7" opacity="0.85" clip-path="url(#ca)">+8.1% (+65)</text>
<text x="573.6" y="77.0" text-anchor="middle" font-size="9" fill="#FF6363" opacity="0.85" clip-path="url(#ca)">+0.0% (+0)</text>
<text x="668.9" y="55.0" text-anchor="middle" font-size="9" fill="#34C759" opacity="0.85" clip-path="url(#ca)">+7.6% (+52)</text>
<text x="668.9" y="66.0" text-anchor="middle" font-size="9" fill="#4F8EF7" opacity="0.85" clip-path="url(#ca)">+5.9% (+51)</text>
<text x="668.9" y="77.0" text-anchor="middle" font-size="9" fill="#FF6363" opacity="0.85" clip-path="url(#ca)">+8.0% (+2)</text>
<text x="743.3" y="55.0" text-anchor="middle" font-size="9" fill="#34C759" opacity="0.85" clip-path="url(#ca)">+3.4% (+25)</text>
<text x="743.3" y="66.0" text-anchor="middle" font-size="9" fill="#4F8EF7" opacity="0.85" clip-path="url(#ca)">+3.5% (+32)</text>
<text x="743.3" y="77.0" text-anchor="middle" font-size="9" fill="#FF6363" opacity="0.85" clip-path="url(#ca)">+3.7% (+1)</text>
<rect x="211" y="369" width="12" height="12" fill="#34C759" rx="2"/>
<text x="227" y="379" font-size="12" fill="#111827">macOS + Windows</text>
<rect x="351" y="369" width="12" height="12" fill="#4F8EF7" rx="2"/>
<text x="367" y="379" font-size="12" fill="#111827">macOS only</text>
<rect x="491" y="369" width="12" height="12" fill="#FF6363" rx="2"/>
<text x="507" y="379" font-size="12" fill="#111827">Windows only</text>
<text x="72" y="394" font-size="8" fill="#e5e7eb">data since Dec 11, 2025</text>
</svg>