<svg xmlns="http://www.w3.org/2000/svg" width="800" height="400" viewBox="0 0 800 400">
<defs>
  <style>text { font-family: -apple-system, BlinkMacSystemFont, 'Segoe UI', Roboto, sans-serif; }</style>
  <linearGradient id="g1" x1="0" y1="0" x2="0" y2="1">
  <stop offset="0%" stop-color="#FF6363" stop-opacity="0.25"/>
  <stop offset="100%" stop-color="#FF6363" stop-opacity="0"/>
</linearGradient>
  <clipPath id="ca"><rect x="72" y="45" width="698" height="295"/></clipPath>
</defs>
<rect width="800" height="400" fill="#ffffff" rx="12"/>
<text x="400" y="26" text-anchor="middle" font-size="15" font-weight="600" fill="#111827">Packages Growth Over Time</text>
<line x1="72" y1="340.0" x2="770" y2="340.0" stroke="#f3f4f6" stroke-width="1"/>
<text x="66" y="344.0" text-anchor="end" font-size="11" fill="#6b7280">2.4k</text>
<line x1="72" y1="290.8" x2="770" y2="290.8" stroke="#f3f4f6" stroke-width="1"/>
<text x="66" y="294.8" text-anchor="end" font-size="11" fill="#6b7280">2.5k</text>
<line x1="72" y1="241.7" x2="770" y2="241.7" stroke="#f3f4f6" stroke-width="1"/>
<text x="66" y="245.7" text-anchor="end" font-size="11" fill="#6b7280">2.6k</text>
<line x1="72" y1="192.5" x2="770" y2="192.5" stroke="#f3f4f6" stroke-width="1"/>
<text x="66" y="196.5" text-anchor="end" font-size="11" fill="#6b7280">2.7k</text>
<line x1="72" y1="143.3" x2="770" y2="143.3" stroke="#f3f4f6" stroke-width="1"/>
<text x="66" y="147.3" text-anchor="end" font-size="11" fill="#6b7280">2.8k</text>
<line x1="72" y1="94.2" x2="770" y2="94.2" stroke="#f3f4f6" stroke-width="1"/>
<text x="66" y="98.2" text-anchor="end" font-size="11" fill="#6b7280">2.9k</text>
<line x1="72" y1="45.0" x2="770" y2="45.0" stroke="#f3f4f6" stroke-width="1"/>
<text x="66" y="49.0" text-anchor="end" font-size="11" fill="#6b7280">3.0k</text>
<line x1="131.0" y1="45" x2="131.0" y2="340" stroke="#e5e7eb" stroke-width="1" stroke-dasharray="3,3" clip-path="url(#ca)"/>
<line x1="258.8" y1="45" x2="258.8" y2="340" stroke="#e5e7eb" stroke-width="1" stroke-dasharray="3,3" clip-path="url(#ca)"/>
<line x1="391.5" y1="45" x2="391.5" y2="340" stroke="#e5e7eb" stroke-width="1" stroke-dasharray="3,3" clip-path="url(#ca)"/>
<line x1="524.2" y1="45" x2="524.2" y2="340" stroke="#e5e7eb" stroke-width="1" stroke-dasharray="3,3" clip-path="url(#ca)"/>
<line x1="656.9" y1="45" x2="656.9" y2="340" stroke="#e5e7eb" stroke-width="1" stroke-dasharray="3,3" clip-path="url(#ca)"/>
<text x="72.0" y="358.0" text-anchor="middle" font-size="11" fill="#6b7280">Dec 11</text>
<text x="209.6" y="358.0" text-anchor="middle" font-size="11" fill="#6b7280">Jan 22</text>
<text x="352.2" y="358.0" text-anchor="middle" font-size="11" fill="#6b7280">Feb 20</text>
<text x="489.8" y="358.0" text-anchor="middle" font-size="11" fill="#6b7280">Mar 23</text>
<text x="632.4" y="358.0" text-anchor="middle" font-size="11" fill="#6b7280">Apr 25</text>
<text x="770.0" y="358.0" text-anchor="middle" font-size="11" fill="#6b7280">May 29</text>
<line x1="72" y1="45" x2="72" y2="340" stroke="#e5e7eb" stroke-width="1"/>
<line x1="72" y1="340" x2="770" y2="340" stroke="#e5e7eb" stroke-width="1"/>
<text x="-192.5" y="18" text-anchor="middle" font-size="12" fill="#6b7280" transform="rotate(-90)">Extensions</text>
<path d="M 72.0,340 L 72.0,302.1 L 76.9,301.6 L 81.8,301.6 L 86.7,300.2 L 91.7,300.2 L 96.6,299.2 L 101.5,298.2 L 106.4,297.7 L 111.3,295.3 L 116.2,293.3 L 121.2,293.3 L 126.1,293.3 L 131.0,293.3 L 135.9,292.3 L 140.8,292.3 L 145.7,292.3 L 150.6,291.3 L 155.6,289.4 L 160.5,285.9 L 165.4,283.5 L 170.3,282.5 L 175.2,282.0 L 180.1,280.0 L 185.1,274.1 L 190.0,272.1 L 194.9,272.1 L 199.8,267.2 L 204.7,265.8 L 209.6,263.8 L 214.5,262.3 L 219.5,259.4 L 224.4,256.9 L 229.3,256.4 L 234.2,252.5 L 239.1,249.0 L 244.0,249.0 L 249.0,246.6 L 253.9,244.6 L 258.8,244.1 L 263.7,243.6 L 268.6,243.1 L 273.5,241.7 L 278.5,232.8 L 283.4,228.9 L 288.3,226.9 L 293.2,225.9 L 298.1,224.5 L 303.0,221.0 L 307.9,220.0 L 312.9,219.1 L 317.8,216.1 L 322.7,215.1 L 327.6,214.1 L 332.5,214.1 L 337.4,205.3 L 342.4,204.3 L 347.3,203.3 L 352.2,201.3 L 357.1,198.9 L 362.0,198.9 L 366.9,195.0 L 371.8,188.6 L 376.8,187.6 L 381.7,188.1 L 386.6,186.6 L 391.5,186.1 L 396.4,186.1 L 401.3,183.2 L 406.3,180.7 L 411.2,178.7 L 416.1,176.3 L 421.0,175.8 L 425.9,175.8 L 430.8,172.3 L 435.7,171.4 L 440.7,170.9 L 445.6,165.0 L 450.5,164.5 L 455.4,164.5 L 460.3,164.5 L 465.2,164.0 L 470.2,161.5 L 475.1,159.6 L 480.0,157.1 L 484.9,156.6 L 489.8,155.1 L 494.7,150.7 L 499.6,146.8 L 504.6,146.3 L 509.5,145.8 L 514.4,144.3 L 519.3,139.4 L 524.2,138.4 L 529.1,136.9 L 534.1,134.0 L 539.0,133.5 L 543.9,133.0 L 548.8,133.0 L 553.7,132.0 L 558.6,129.1 L 563.5,128.1 L 568.5,127.1 L 573.4,126.6 L 578.3,125.6 L 583.2,120.7 L 588.1,120.2 L 593.0,119.2 L 598.0,118.8 L 602.9,116.3 L 607.8,115.8 L 612.7,115.3 L 617.6,113.8 L 622.5,111.9 L 627.5,111.9 L 632.4,111.9 L 637.3,111.9 L 642.2,110.9 L 647.1,108.4 L 652.0,107.9 L 656.9,105.5 L 661.9,105.0 L 666.8,104.5 L 671.7,101.5 L 676.6,98.6 L 681.5,98.1 L 686.4,97.6 L 691.4,91.2 L 696.3,89.3 L 701.2,87.8 L 706.1,87.3 L 711.0,83.8 L 715.9,83.8 L 720.8,81.4 L 725.8,79.9 L 730.7,75.0 L 735.6,73.0 L 740.5,72.5 L 745.4,72.0 L 750.3,72.0 L 755.3,71.6 L 760.2,68.6 L 765.1,66.1 L 770.0,66.1 L 770.0,340 Z" fill="url(#g1)" clip-path="url(#ca)"/>
<path d="M 72.0,302.1 L 76.9,301.6 L 81.8,301.6 L 86.7,300.2 L 91.7,300.2 L 96.6,299.2 L 101.5,298.2 L 106.4,297.7 L 111.3,295.3 L 116.2,293.3 L 121.2,293.3 L 126.1,293.3 L 131.0,293.3 L 135.9,292.3 L 140.8,292.3 L 145.7,292.3 L 150.6,291.3 L 155.6,289.4 L 160.5,285.9 L 165.4,283.5 L 170.3,282.5 L 175.2,282.0 L 180.1,280.0 L 185.1,274.1 L 190.0,272.1 L 194.9,272.1 L 199.8,267.2 L 204.7,265.8 L 209.6,263.8 L 214.5,262.3 L 219.5,259.4 L 224.4,256.9 L 229.3,256.4 L 234.2,252.5 L 239.1,249.0 L 244.0,249.0 L 249.0,246.6 L 253.9,244.6 L 258.8,244.1 L 263.7,243.6 L 268.6,243.1 L 273.5,241.7 L 278.5,232.8 L 283.4,228.9 L 288.3,226.9 L 293.2,225.9 L 298.1,224.5 L 303.0,221.0 L 307.9,220.0 L 312.9,219.1 L 317.8,216.1 L 322.7,215.1 L 327.6,214.1 L 332.5,214.1 L 337.4,205.3 L 342.4,204.3 L 347.3,203.3 L 352.2,201.3 L 357.1,198.9 L 362.0,198.9 L 366.9,195.0 L 371.8,188.6 L 376.8,187.6 L 381.7,188.1 L 386.6,186.6 L 391.5,186.1 L 396.4,186.1 L 401.3,183.2 L 406.3,180.7 L 411.2,178.7 L 416.1,176.3 L 421.0,175.8 L 425.9,175.8 L 430.8,172.3 L 435.7,171.4 L 440.7,170.9 L 445.6,165.0 L 450.5,164.5 L 455.4,164.5 L 460.3,164.5 L 465.2,164.0 L 470.2,161.5 L 475.1,159.6 L 480.0,157.1 L 484.9,156.6 L 489.8,155.1 L 494.7,150.7 L 499.6,146.8 L 504.6,146.3 L 509.5,145.8 L 514.4,144.3 L 519.3,139.4 L 524.2,138.4 L 529.1,136.9 L 534.1,134.0 L 539.0,133.5 L 543.9,133.0 L 548.8,133.0 L 553.7,132.0 L 558.6,129.1 L 563.5,128.1 L 568.5,127.1 L 573.4,126.6 L 578.3,125.6 L 583.2,120.7 L 588.1,120.2 L 593.0,119.2 L 598.0,118.8 L 602.9,116.3 L 607.8,115.8 L 612.7,115.3 L 617.6,113.8 L 622.5,111.9 L 627.5,111.9 L 632.4,111.9 L 637.3,111.9 L 642.2,110.9 L 647.1,108.4 L 652.0,107.9 L 656.9,105.5 L 661.9,105.0 L 666.8,104.5 L 671.7,101.5 L 676.6,98.6 L 681.5,98.1 L 686.4,97.6 L 691.4,91.2 L 696.3,89.3 L 701.2,87.8 L 706.1,87.3 L 711.0,83.8 L 715.9,83.8 L 720.8,81.4 L 725.8,79.9 L 730.7,75.0 L 735.6,73.0 L 740.5,72.5 L 745.4,72.0 L 750.3,72.0 L 755.3,71.6 L 760.2,68.6 L 765.1,66.1 L 770.0,66.1" fill="none" stroke="#FF6363" stroke-width="2.5" stroke-linejoin="round" clip-path="url(#ca)"/>
<text x="99.0" y="55.0" text-anchor="middle" font-size="9" fill="#FF6363" opacity="0.85" clip-path="url(#ca)">+0.7% (+18)</text>
<text x="192.4" y="55.0" text-anchor="middle" font-size="9" fill="#FF6363" opacity="0.85" clip-path="url(#ca)">+4.0% (+99)</text>
<text x="322.7" y="55.0" text-anchor="middle" font-size="9" fill="#FF6363" opacity="0.85" clip-path="url(#ca)">+4.5% (+117)</text>
<text x="455.4" y="55.0" text-anchor="middle" font-size="9" fill="#FF6363" opacity="0.85" clip-path="url(#ca)">+3.5% (+95)</text>
<text x="588.1" y="55.0" text-anchor="middle" font-size="9" fill="#FF6363" opacity="0.85" clip-path="url(#ca)">+2.2% (+62)</text>
<text x="713.5" y="55.0" text-anchor="middle" font-size="9" fill="#FF6363" opacity="0.85" clip-path="url(#ca)">+2.8% (+80)</text>
<rect x="351" y="369" width="12" height="12" fill="#FF6363" rx="2"/>
<text x="367" y="379" font-size="12" fill="#111827">Extensions</text>
<text x="72" y="394" font-size="8" fill="#e5e7eb">data since Dec 11, 2025</text>
</svg>