<svg xmlns="http://www.w3.org/2000/svg" width="800" height="400" viewBox="0 0 800 400">
<defs>
  <style>text { font-family: -apple-system, BlinkMacSystemFont, 'Segoe UI', Roboto, sans-serif; }</style>
  <linearGradient id="g1" x1="0" y1="0" x2="0" y2="1">
  <stop offset="0%" stop-color="#FF6363" stop-opacity="0.25"/>
  <stop offset="100%" stop-color="#FF6363" stop-opacity="0"/>
</linearGradient>
  <clipPath id="ca"><rect x="72" y="45" width="698" height="295"/></clipPath>
</defs>
<rect width="800" height="400" fill="#ffffff" rx="12"/>
<text x="400" y="26" text-anchor="middle" font-size="15" font-weight="600" fill="#111827">Packages Growth Over Time</text>
<line x1="72" y1="340.0" x2="770" y2="340.0" stroke="#f3f4f6" stroke-width="1"/>
<text x="66" y="344.0" text-anchor="end" font-size="11" fill="#6b7280">2.4k</text>
<line x1="72" y1="281.0" x2="770" y2="281.0" stroke="#f3f4f6" stroke-width="1"/>
<text x="66" y="285.0" text-anchor="end" font-size="11" fill="#6b7280">2.5k</text>
<line x1="72" y1="222.0" x2="770" y2="222.0" stroke="#f3f4f6" stroke-width="1"/>
<text x="66" y="226.0" text-anchor="end" font-size="11" fill="#6b7280">2.6k</text>
<line x1="72" y1="163.0" x2="770" y2="163.0" stroke="#f3f4f6" stroke-width="1"/>
<text x="66" y="167.0" text-anchor="end" font-size="11" fill="#6b7280">2.7k</text>
<line x1="72" y1="104.0" x2="770" y2="104.0" stroke="#f3f4f6" stroke-width="1"/>
<text x="66" y="108.0" text-anchor="end" font-size="11" fill="#6b7280">2.8k</text>
<line x1="72" y1="45.0" x2="770" y2="45.0" stroke="#f3f4f6" stroke-width="1"/>
<text x="66" y="49.0" text-anchor="end" font-size="11" fill="#6b7280">2.9k</text>
<line x1="140.1" y1="45" x2="140.1" y2="340" stroke="#e5e7eb" stroke-width="1" stroke-dasharray="3,3" clip-path="url(#ca)"/>
<line x1="287.6" y1="45" x2="287.6" y2="340" stroke="#e5e7eb" stroke-width="1" stroke-dasharray="3,3" clip-path="url(#ca)"/>
<line x1="440.9" y1="45" x2="440.9" y2="340" stroke="#e5e7eb" stroke-width="1" stroke-dasharray="3,3" clip-path="url(#ca)"/>
<line x1="594.1" y1="45" x2="594.1" y2="340" stroke="#e5e7eb" stroke-width="1" stroke-dasharray="3,3" clip-path="url(#ca)"/>
<line x1="747.3" y1="45" x2="747.3" y2="340" stroke="#e5e7eb" stroke-width="1" stroke-dasharray="3,3" clip-path="url(#ca)"/>
<text x="72.0" y="358.0" text-anchor="middle" font-size="11" fill="#6b7280">Dec 11</text>
<text x="213.9" y="358.0" text-anchor="middle" font-size="11" fill="#6b7280">Jan 18</text>
<text x="350.1" y="358.0" text-anchor="middle" font-size="11" fill="#6b7280">Feb 12</text>
<text x="491.9" y="358.0" text-anchor="middle" font-size="11" fill="#6b7280">Mar 11</text>
<text x="628.1" y="358.0" text-anchor="middle" font-size="11" fill="#6b7280">Apr 8</text>
<text x="770.0" y="358.0" text-anchor="middle" font-size="11" fill="#6b7280">May 7</text>
<line x1="72" y1="45" x2="72" y2="340" stroke="#e5e7eb" stroke-width="1"/>
<line x1="72" y1="340" x2="770" y2="340" stroke="#e5e7eb" stroke-width="1"/>
<text x="-192.5" y="18" text-anchor="middle" font-size="12" fill="#6b7280" transform="rotate(-90)">Extensions</text>
<path d="M 72.0,340 L 72.0,294.6 L 77.7,294.0 L 83.3,294.0 L 89.0,292.2 L 94.7,292.2 L 100.4,291.0 L 106.0,289.9 L 111.7,289.3 L 117.4,286.3 L 123.1,283.9 L 128.7,283.9 L 134.4,283.9 L 140.1,283.9 L 145.8,282.8 L 151.4,282.8 L 157.1,282.8 L 162.8,281.6 L 168.5,279.2 L 174.1,275.1 L 179.8,272.1 L 185.5,271.0 L 191.2,270.4 L 196.8,268.0 L 202.5,260.9 L 208.2,258.6 L 213.9,258.6 L 219.5,252.7 L 225.2,250.9 L 230.9,248.6 L 236.6,246.8 L 242.2,243.2 L 247.9,240.3 L 253.6,239.7 L 259.3,235.0 L 264.9,230.8 L 270.6,230.8 L 276.3,227.9 L 282.0,225.5 L 287.6,224.9 L 293.3,224.4 L 299.0,223.8 L 304.7,222.0 L 310.3,211.4 L 316.0,206.7 L 321.7,204.3 L 327.4,203.1 L 333.0,201.3 L 338.7,197.2 L 344.4,196.0 L 350.1,194.9 L 355.7,191.3 L 361.4,190.1 L 367.1,189.0 L 372.8,189.0 L 378.4,178.3 L 384.1,177.2 L 389.8,176.0 L 395.5,173.6 L 401.1,170.7 L 406.8,170.7 L 412.5,166.0 L 418.2,158.3 L 423.8,157.1 L 429.5,157.7 L 435.2,155.9 L 440.9,155.3 L 446.5,155.3 L 452.2,151.8 L 457.9,148.8 L 463.6,146.5 L 469.2,143.5 L 474.9,142.9 L 480.6,142.9 L 486.3,138.8 L 491.9,137.6 L 497.6,137.0 L 503.3,130.0 L 509.0,129.4 L 514.6,129.4 L 520.3,129.4 L 526.0,128.8 L 531.7,125.8 L 537.3,123.5 L 543.0,120.5 L 548.7,119.9 L 554.4,118.2 L 560.0,112.8 L 565.7,108.1 L 571.4,107.5 L 577.1,106.9 L 582.7,105.2 L 588.4,99.3 L 594.1,98.1 L 599.8,96.3 L 605.4,92.8 L 611.1,92.2 L 616.8,91.6 L 622.5,91.6 L 628.1,90.4 L 633.8,86.9 L 639.5,85.7 L 645.2,84.5 L 650.8,83.9 L 656.5,82.8 L 662.2,76.9 L 667.9,76.3 L 673.5,75.1 L 679.2,74.5 L 684.9,71.6 L 690.6,71.0 L 696.2,70.4 L 701.9,68.6 L 707.6,66.2 L 713.3,66.2 L 718.9,66.2 L 724.6,66.2 L 730.3,65.1 L 736.0,62.1 L 741.6,61.5 L 747.3,58.6 L 753.0,58.0 L 758.7,57.4 L 764.3,53.9 L 770.0,50.3 L 770.0,340 Z" fill="url(#g1)" clip-path="url(#ca)"/>
<path d="M 72.0,294.6 L 77.7,294.0 L 83.3,294.0 L 89.0,292.2 L 94.7,292.2 L 100.4,291.0 L 106.0,289.9 L 111.7,289.3 L 117.4,286.3 L 123.1,283.9 L 128.7,283.9 L 134.4,283.9 L 140.1,283.9 L 145.8,282.8 L 151.4,282.8 L 157.1,282.8 L 162.8,281.6 L 168.5,279.2 L 174.1,275.1 L 179.8,272.1 L 185.5,271.0 L 191.2,270.4 L 196.8,268.0 L 202.5,260.9 L 208.2,258.6 L 213.9,258.6 L 219.5,252.7 L 225.2,250.9 L 230.9,248.6 L 236.6,246.8 L 242.2,243.2 L 247.9,240.3 L 253.6,239.7 L 259.3,235.0 L 264.9,230.8 L 270.6,230.8 L 276.3,227.9 L 282.0,225.5 L 287.6,224.9 L 293.3,224.4 L 299.0,223.8 L 304.7,222.0 L 310.3,211.4 L 316.0,206.7 L 321.7,204.3 L 327.4,203.1 L 333.0,201.3 L 338.7,197.2 L 344.4,196.0 L 350.1,194.9 L 355.7,191.3 L 361.4,190.1 L 367.1,189.0 L 372.8,189.0 L 378.4,178.3 L 384.1,177.2 L 389.8,176.0 L 395.5,173.6 L 401.1,170.7 L 406.8,170.7 L 412.5,166.0 L 418.2,158.3 L 423.8,157.1 L 429.5,157.7 L 435.2,155.9 L 440.9,155.3 L 446.5,155.3 L 452.2,151.8 L 457.9,148.8 L 463.6,146.5 L 469.2,143.5 L 474.9,142.9 L 480.6,142.9 L 486.3,138.8 L 491.9,137.6 L 497.6,137.0 L 503.3,130.0 L 509.0,129.4 L 514.6,129.4 L 520.3,129.4 L 526.0,128.8 L 531.7,125.8 L 537.3,123.5 L 543.0,120.5 L 548.7,119.9 L 554.4,118.2 L 560.0,112.8 L 565.7,108.1 L 571.4,107.5 L 577.1,106.9 L 582.7,105.2 L 588.4,99.3 L 594.1,98.1 L 599.8,96.3 L 605.4,92.8 L 611.1,92.2 L 616.8,91.6 L 622.5,91.6 L 628.1,90.4 L 633.8,86.9 L 639.5,85.7 L 645.2,84.5 L 650.8,83.9 L 656.5,82.8 L 662.2,76.9 L 667.9,76.3 L 673.5,75.1 L 679.2,74.5 L 684.9,71.6 L 690.6,71.0 L 696.2,70.4 L 701.9,68.6 L 707.6,66.2 L 713.3,66.2 L 718.9,66.2 L 724.6,66.2 L 730.3,65.1 L 736.0,62.1 L 741.6,61.5 L 747.3,58.6 L 753.0,58.0 L 758.7,57.4 L 764.3,53.9 L 770.0,50.3" fill="none" stroke="#FF6363" stroke-width="2.5" stroke-linejoin="round" clip-path="url(#ca)"/>
<text x="103.2" y="55.0" text-anchor="middle" font-size="9" fill="#FF6363" opacity="0.85" clip-path="url(#ca)">+0.7% (+18)</text>
<text x="211.0" y="55.0" text-anchor="middle" font-size="9" fill="#FF6363" opacity="0.85" clip-path="url(#ca)">+4.0% (+99)</text>
<text x="361.4" y="55.0" text-anchor="middle" font-size="9" fill="#FF6363" opacity="0.85" clip-path="url(#ca)">+4.5% (+117)</text>
<text x="514.6" y="55.0" text-anchor="middle" font-size="9" fill="#FF6363" opacity="0.85" clip-path="url(#ca)">+3.5% (+95)</text>
<text x="667.9" y="55.0" text-anchor="middle" font-size="9" fill="#FF6363" opacity="0.85" clip-path="url(#ca)">+2.2% (+62)</text>
<text x="758.7" y="55.0" text-anchor="middle" font-size="9" fill="#FF6363" opacity="0.85" clip-path="url(#ca)">+0.5% (+14)</text>
<rect x="351" y="369" width="12" height="12" fill="#FF6363" rx="2"/>
<text x="367" y="379" font-size="12" fill="#111827">Extensions</text>
<text x="72" y="394" font-size="8" fill="#e5e7eb">data since Dec 11, 2025</text>
</svg>