<svg xmlns="http://www.w3.org/2000/svg" width="800" height="400" viewBox="0 0 800 400">
<defs>
  <style>text { font-family: -apple-system, BlinkMacSystemFont, 'Segoe UI', Roboto, sans-serif; }</style>
  <linearGradient id="g2" x1="0" y1="0" x2="0" y2="1">
  <stop offset="0%" stop-color="#4F8EF7" stop-opacity="0.25"/>
  <stop offset="100%" stop-color="#4F8EF7" stop-opacity="0"/>
</linearGradient>
<linearGradient id="g3" x1="0" y1="0" x2="0" y2="1">
  <stop offset="0%" stop-color="#BF5AF2" stop-opacity="0.25"/>
  <stop offset="100%" stop-color="#BF5AF2" stop-opacity="0"/>
</linearGradient>
<linearGradient id="g4" x1="0" y1="0" x2="0" y2="1">
  <stop offset="0%" stop-color="#34C759" stop-opacity="0.25"/>
  <stop offset="100%" stop-color="#34C759" stop-opacity="0"/>
</linearGradient>
  <clipPath id="ca"><rect x="72" y="45" width="698" height="295"/></clipPath>
</defs>
<rect width="800" height="400" fill="#ffffff" rx="12"/>
<text x="400" y="26" text-anchor="middle" font-size="15" font-weight="600" fill="#111827">Community Growth Over Time</text>
<line x1="72" y1="340.0" x2="770" y2="340.0" stroke="#f3f4f6" stroke-width="1"/>
<text x="66" y="344.0" text-anchor="end" font-size="11" fill="#6b7280">500</text>
<line x1="72" y1="241.7" x2="770" y2="241.7" stroke="#f3f4f6" stroke-width="1"/>
<text x="66" y="245.7" text-anchor="end" font-size="11" fill="#6b7280">1.0k</text>
<line x1="72" y1="143.3" x2="770" y2="143.3" stroke="#f3f4f6" stroke-width="1"/>
<text x="66" y="147.3" text-anchor="end" font-size="11" fill="#6b7280">1.5k</text>
<line x1="72" y1="45.0" x2="770" y2="45.0" stroke="#f3f4f6" stroke-width="1"/>
<text x="66" y="49.0" text-anchor="end" font-size="11" fill="#6b7280">2.0k</text>
<line x1="159.3" y1="45" x2="159.3" y2="340" stroke="#e5e7eb" stroke-width="1" stroke-dasharray="3,3" clip-path="url(#ca)"/>
<line x1="348.3" y1="45" x2="348.3" y2="340" stroke="#e5e7eb" stroke-width="1" stroke-dasharray="3,3" clip-path="url(#ca)"/>
<line x1="544.6" y1="45" x2="544.6" y2="340" stroke="#e5e7eb" stroke-width="1" stroke-dasharray="3,3" clip-path="url(#ca)"/>
<line x1="740.9" y1="45" x2="740.9" y2="340" stroke="#e5e7eb" stroke-width="1" stroke-dasharray="3,3" clip-path="url(#ca)"/>
<text x="72.0" y="358.0" text-anchor="middle" font-size="11" fill="#6b7280">Dec 11</text>
<text x="210.1" y="358.0" text-anchor="middle" font-size="11" fill="#6b7280">Jan 10</text>
<text x="348.3" y="358.0" text-anchor="middle" font-size="11" fill="#6b7280">Feb 1</text>
<text x="493.7" y="358.0" text-anchor="middle" font-size="11" fill="#6b7280">Feb 21</text>
<text x="631.9" y="358.0" text-anchor="middle" font-size="11" fill="#6b7280">Mar 14</text>
<text x="770.0" y="358.0" text-anchor="middle" font-size="11" fill="#6b7280">Apr 5</text>
<line x1="72" y1="45" x2="72" y2="340" stroke="#e5e7eb" stroke-width="1"/>
<line x1="72" y1="340" x2="770" y2="340" stroke="#e5e7eb" stroke-width="1"/>
<text x="-192.5" y="18" text-anchor="middle" font-size="12" fill="#6b7280" transform="rotate(-90)">People</text>
<path d="M 72.0,340 L 72.0,120.1 L 79.3,120.1 L 86.5,120.1 L 93.8,119.5 L 101.1,119.5 L 108.4,119.1 L 115.6,118.9 L 122.9,119.1 L 130.2,118.6 L 137.4,118.6 L 144.7,118.6 L 152.0,118.6 L 159.3,118.6 L 166.5,118.6 L 173.8,118.6 L 181.1,118.6 L 188.3,118.4 L 195.6,117.8 L 202.9,116.6 L 210.1,116.0 L 217.4,115.8 L 224.7,115.8 L 232.0,115.2 L 239.2,113.8 L 246.5,113.0 L 253.8,113.0 L 261.0,112.1 L 268.3,111.7 L 275.6,110.9 L 282.9,110.3 L 290.1,109.7 L 297.4,109.1 L 304.7,109.1 L 311.9,107.7 L 319.2,106.9 L 326.5,106.9 L 333.8,106.2 L 341.0,105.8 L 348.3,105.6 L 355.6,105.4 L 362.8,105.4 L 370.1,104.8 L 377.4,102.4 L 384.6,101.0 L 391.9,100.3 L 399.2,100.1 L 406.5,99.7 L 413.7,98.9 L 421.0,98.5 L 428.3,98.1 L 435.5,97.7 L 442.8,97.3 L 450.1,96.9 L 457.4,96.9 L 464.6,95.0 L 471.9,95.0 L 479.2,94.8 L 486.4,94.6 L 493.7,94.2 L 501.0,94.2 L 508.3,93.2 L 515.5,92.0 L 522.8,91.6 L 530.1,92.0 L 537.3,91.8 L 544.6,91.6 L 551.9,91.6 L 559.1,91.2 L 566.4,90.4 L 573.7,90.0 L 581.0,89.6 L 588.2,89.4 L 595.5,89.4 L 602.8,88.7 L 610.0,88.3 L 617.3,88.3 L 624.6,86.7 L 631.9,86.7 L 639.1,86.7 L 646.4,86.7 L 653.7,86.5 L 660.9,85.9 L 668.2,85.1 L 675.5,84.7 L 682.8,84.7 L 690.0,84.3 L 697.3,82.8 L 704.6,81.8 L 711.8,81.6 L 719.1,81.4 L 726.4,80.8 L 733.6,79.6 L 740.9,79.2 L 748.2,78.8 L 755.5,77.6 L 762.7,77.4 L 770.0,77.4 L 770.0,340 Z" fill="url(#g2)" clip-path="url(#ca)"/>
<path d="M 72.0,120.1 L 79.3,120.1 L 86.5,120.1 L 93.8,119.5 L 101.1,119.5 L 108.4,119.1 L 115.6,118.9 L 122.9,119.1 L 130.2,118.6 L 137.4,118.6 L 144.7,118.6 L 152.0,118.6 L 159.3,118.6 L 166.5,118.6 L 173.8,118.6 L 181.1,118.6 L 188.3,118.4 L 195.6,117.8 L 202.9,116.6 L 210.1,116.0 L 217.4,115.8 L 224.7,115.8 L 232.0,115.2 L 239.2,113.8 L 246.5,113.0 L 253.8,113.0 L 261.0,112.1 L 268.3,111.7 L 275.6,110.9 L 282.9,110.3 L 290.1,109.7 L 297.4,109.1 L 304.7,109.1 L 311.9,107.7 L 319.2,106.9 L 326.5,106.9 L 333.8,106.2 L 341.0,105.8 L 348.3,105.6 L 355.6,105.4 L 362.8,105.4 L 370.1,104.8 L 377.4,102.4 L 384.6,101.0 L 391.9,100.3 L 399.2,100.1 L 406.5,99.7 L 413.7,98.9 L 421.0,98.5 L 428.3,98.1 L 435.5,97.7 L 442.8,97.3 L 450.1,96.9 L 457.4,96.9 L 464.6,95.0 L 471.9,95.0 L 479.2,94.8 L 486.4,94.6 L 493.7,94.2 L 501.0,94.2 L 508.3,93.2 L 515.5,92.0 L 522.8,91.6 L 530.1,92.0 L 537.3,91.8 L 544.6,91.6 L 551.9,91.6 L 559.1,91.2 L 566.4,90.4 L 573.7,90.0 L 581.0,89.6 L 588.2,89.4 L 595.5,89.4 L 602.8,88.7 L 610.0,88.3 L 617.3,88.3 L 624.6,86.7 L 631.9,86.7 L 639.1,86.7 L 646.4,86.7 L 653.7,86.5 L 660.9,85.9 L 668.2,85.1 L 675.5,84.7 L 682.8,84.7 L 690.0,84.3 L 697.3,82.8 L 704.6,81.8 L 711.8,81.6 L 719.1,81.4 L 726.4,80.8 L 733.6,79.6 L 740.9,79.2 L 748.2,78.8 L 755.5,77.6 L 762.7,77.4 L 770.0,77.4" fill="none" stroke="#4F8EF7" stroke-width="2.5" stroke-linejoin="round" clip-path="url(#ca)"/>
<path d="M 72.0,340 L 72.0,244.2 L 79.3,243.6 L 86.5,243.6 L 93.8,243.6 L 101.1,243.4 L 108.4,243.0 L 115.6,242.8 L 122.9,242.6 L 130.2,242.6 L 137.4,242.5 L 144.7,242.3 L 152.0,242.3 L 159.3,242.3 L 166.5,242.3 L 173.8,242.3 L 181.1,242.3 L 188.3,241.9 L 195.6,241.9 L 202.9,241.9 L 210.1,241.1 L 217.4,240.9 L 224.7,240.5 L 232.0,239.7 L 239.2,239.5 L 246.5,239.5 L 253.8,239.5 L 261.0,238.9 L 268.3,238.5 L 275.6,238.5 L 282.9,238.1 L 290.1,237.9 L 297.4,237.5 L 304.7,237.5 L 311.9,237.3 L 319.2,236.6 L 326.5,236.0 L 333.8,235.6 L 341.0,235.4 L 348.3,235.4 L 355.6,235.2 L 362.8,234.8 L 370.1,234.8 L 377.4,234.6 L 384.6,234.0 L 391.9,233.6 L 399.2,233.6 L 406.5,233.6 L 413.7,233.6 L 421.0,233.4 L 428.3,232.8 L 435.5,232.4 L 442.8,232.2 L 450.1,232.0 L 457.4,231.8 L 464.6,231.6 L 471.9,231.4 L 479.2,231.2 L 486.4,230.7 L 493.7,230.5 L 501.0,230.3 L 508.3,229.5 L 515.5,228.7 L 522.8,228.7 L 530.1,228.5 L 537.3,228.3 L 544.6,228.3 L 551.9,228.3 L 559.1,227.9 L 566.4,227.9 L 573.7,226.7 L 581.0,226.5 L 588.2,226.3 L 595.5,226.3 L 602.8,225.9 L 610.0,225.7 L 617.3,225.7 L 624.6,225.5 L 631.9,225.5 L 639.1,225.5 L 646.4,225.1 L 653.7,224.9 L 660.9,224.0 L 668.2,224.2 L 675.5,224.0 L 682.8,223.8 L 690.0,223.8 L 697.3,223.6 L 704.6,223.0 L 711.8,223.0 L 719.1,223.0 L 726.4,223.0 L 733.6,222.6 L 740.9,222.6 L 748.2,222.2 L 755.5,221.8 L 762.7,221.0 L 770.0,221.0 L 770.0,340 Z" fill="url(#g3)" clip-path="url(#ca)"/>
<path d="M 72.0,244.2 L 79.3,243.6 L 86.5,243.6 L 93.8,243.6 L 101.1,243.4 L 108.4,243.0 L 115.6,242.8 L 122.9,242.6 L 130.2,242.6 L 137.4,242.5 L 144.7,242.3 L 152.0,242.3 L 159.3,242.3 L 166.5,242.3 L 173.8,242.3 L 181.1,242.3 L 188.3,241.9 L 195.6,241.9 L 202.9,241.9 L 210.1,241.1 L 217.4,240.9 L 224.7,240.5 L 232.0,239.7 L 239.2,239.5 L 246.5,239.5 L 253.8,239.5 L 261.0,238.9 L 268.3,238.5 L 275.6,238.5 L 282.9,238.1 L 290.1,237.9 L 297.4,237.5 L 304.7,237.5 L 311.9,237.3 L 319.2,236.6 L 326.5,236.0 L 333.8,235.6 L 341.0,235.4 L 348.3,235.4 L 355.6,235.2 L 362.8,234.8 L 370.1,234.8 L 377.4,234.6 L 384.6,234.0 L 391.9,233.6 L 399.2,233.6 L 406.5,233.6 L 413.7,233.6 L 421.0,233.4 L 428.3,232.8 L 435.5,232.4 L 442.8,232.2 L 450.1,232.0 L 457.4,231.8 L 464.6,231.6 L 471.9,231.4 L 479.2,231.2 L 486.4,230.7 L 493.7,230.5 L 501.0,230.3 L 508.3,229.5 L 515.5,228.7 L 522.8,228.7 L 530.1,228.5 L 537.3,228.3 L 544.6,228.3 L 551.9,228.3 L 559.1,227.9 L 566.4,227.9 L 573.7,226.7 L 581.0,226.5 L 588.2,226.3 L 595.5,226.3 L 602.8,225.9 L 610.0,225.7 L 617.3,225.7 L 624.6,225.5 L 631.9,225.5 L 639.1,225.5 L 646.4,225.1 L 653.7,224.9 L 660.9,224.0 L 668.2,224.2 L 675.5,224.0 L 682.8,223.8 L 690.0,223.8 L 697.3,223.6 L 704.6,223.0 L 711.8,223.0 L 719.1,223.0 L 726.4,223.0 L 733.6,222.6 L 740.9,222.6 L 748.2,222.2 L 755.5,221.8 L 762.7,221.0 L 770.0,221.0" fill="none" stroke="#BF5AF2" stroke-width="2.5" stroke-linejoin="round" clip-path="url(#ca)"/>
<path d="M 72.0,340 L 72.0,291.4 L 79.3,290.8 L 86.5,290.8 L 93.8,290.8 L 101.1,290.6 L 108.4,290.2 L 115.6,290.0 L 122.9,289.7 L 130.2,289.7 L 137.4,289.5 L 144.7,289.3 L 152.0,289.3 L 159.3,289.3 L 166.5,289.3 L 173.8,289.3 L 181.1,289.3 L 188.3,288.9 L 195.6,288.9 L 202.9,289.1 L 210.1,288.5 L 217.4,288.7 L 224.7,288.1 L 232.0,287.5 L 239.2,287.3 L 246.5,287.5 L 253.8,287.5 L 261.0,286.9 L 268.3,286.7 L 275.6,286.7 L 282.9,286.3 L 290.1,286.1 L 297.4,285.7 L 304.7,285.7 L 311.9,285.5 L 319.2,284.9 L 326.5,284.3 L 333.8,283.9 L 341.0,283.9 L 348.3,283.9 L 355.6,283.8 L 362.8,283.4 L 370.1,283.4 L 377.4,283.2 L 384.6,282.6 L 391.9,282.4 L 399.2,282.4 L 406.5,282.4 L 413.7,282.4 L 421.0,282.2 L 428.3,281.6 L 435.5,281.4 L 442.8,281.2 L 450.1,281.0 L 457.4,281.0 L 464.6,280.8 L 471.9,280.8 L 479.2,280.8 L 486.4,280.2 L 493.7,280.2 L 501.0,280.2 L 508.3,279.8 L 515.5,279.2 L 522.8,279.2 L 530.1,279.0 L 537.3,278.8 L 544.6,278.8 L 551.9,278.8 L 559.1,278.4 L 566.4,278.4 L 573.7,277.3 L 581.0,277.1 L 588.2,276.9 L 595.5,276.9 L 602.8,276.7 L 610.0,276.7 L 617.3,276.7 L 624.6,276.7 L 631.9,276.7 L 639.1,276.7 L 646.4,276.3 L 653.7,276.1 L 660.9,275.1 L 668.2,275.3 L 675.5,275.3 L 682.8,275.1 L 690.0,275.1 L 697.3,275.1 L 704.6,274.7 L 711.8,274.7 L 719.1,274.7 L 726.4,274.7 L 733.6,274.7 L 740.9,274.7 L 748.2,274.5 L 755.5,274.5 L 762.7,273.7 L 770.0,273.7 L 770.0,340 Z" fill="url(#g4)" clip-path="url(#ca)"/>
<path d="M 72.0,291.4 L 79.3,290.8 L 86.5,290.8 L 93.8,290.8 L 101.1,290.6 L 108.4,290.2 L 115.6,290.0 L 122.9,289.7 L 130.2,289.7 L 137.4,289.5 L 144.7,289.3 L 152.0,289.3 L 159.3,289.3 L 166.5,289.3 L 173.8,289.3 L 181.1,289.3 L 188.3,288.9 L 195.6,288.9 L 202.9,289.1 L 210.1,288.5 L 217.4,288.7 L 224.7,288.1 L 232.0,287.5 L 239.2,287.3 L 246.5,287.5 L 253.8,287.5 L 261.0,286.9 L 268.3,286.7 L 275.6,286.7 L 282.9,286.3 L 290.1,286.1 L 297.4,285.7 L 304.7,285.7 L 311.9,285.5 L 319.2,284.9 L 326.5,284.3 L 333.8,283.9 L 341.0,283.9 L 348.3,283.9 L 355.6,283.8 L 362.8,283.4 L 370.1,283.4 L 377.4,283.2 L 384.6,282.6 L 391.9,282.4 L 399.2,282.4 L 406.5,282.4 L 413.7,282.4 L 421.0,282.2 L 428.3,281.6 L 435.5,281.4 L 442.8,281.2 L 450.1,281.0 L 457.4,281.0 L 464.6,280.8 L 471.9,280.8 L 479.2,280.8 L 486.4,280.2 L 493.7,280.2 L 501.0,280.2 L 508.3,279.8 L 515.5,279.2 L 522.8,279.2 L 530.1,279.0 L 537.3,278.8 L 544.6,278.8 L 551.9,278.8 L 559.1,278.4 L 566.4,278.4 L 573.7,277.3 L 581.0,277.1 L 588.2,276.9 L 595.5,276.9 L 602.8,276.7 L 610.0,276.7 L 617.3,276.7 L 624.6,276.7 L 631.9,276.7 L 639.1,276.7 L 646.4,276.3 L 653.7,276.1 L 660.9,275.1 L 668.2,275.3 L 675.5,275.3 L 682.8,275.1 L 690.0,275.1 L 697.3,275.1 L 704.6,274.7 L 711.8,274.7 L 719.1,274.7 L 726.4,274.7 L 733.6,274.7 L 740.9,274.7 L 748.2,274.5 L 755.5,274.5 L 762.7,273.7 L 770.0,273.7" fill="none" stroke="#34C759" stroke-width="2.5" stroke-linejoin="round" clip-path="url(#ca)"/>
<text x="112.0" y="55.0" text-anchor="middle" font-size="9" fill="#4F8EF7" opacity="0.85" clip-path="url(#ca)">+0.5% (+8)</text>
<text x="112.0" y="66.0" text-anchor="middle" font-size="9" fill="#BF5AF2" opacity="0.85" clip-path="url(#ca)">+1.0% (+10)</text>
<text x="112.0" y="77.0" text-anchor="middle" font-size="9" fill="#34C759" opacity="0.85" clip-path="url(#ca)">+1.5% (+11)</text>
<text x="250.1" y="55.0" text-anchor="middle" font-size="9" fill="#4F8EF7" opacity="0.85" clip-path="url(#ca)">+4.0% (+65)</text>
<text x="250.1" y="66.0" text-anchor="middle" font-size="9" fill="#BF5AF2" opacity="0.85" clip-path="url(#ca)">+3.5% (+35)</text>
<text x="250.1" y="77.0" text-anchor="middle" font-size="9" fill="#34C759" opacity="0.85" clip-path="url(#ca)">+3.6% (+27)</text>
<text x="442.8" y="55.0" text-anchor="middle" font-size="9" fill="#4F8EF7" opacity="0.85" clip-path="url(#ca)">+4.1% (+70)</text>
<text x="442.8" y="66.0" text-anchor="middle" font-size="9" fill="#BF5AF2" opacity="0.85" clip-path="url(#ca)">+3.5% (+36)</text>
<text x="442.8" y="77.0" text-anchor="middle" font-size="9" fill="#34C759" opacity="0.85" clip-path="url(#ca)">+3.3% (+26)</text>
<text x="639.1" y="55.0" text-anchor="middle" font-size="9" fill="#4F8EF7" opacity="0.85" clip-path="url(#ca)">+3.5% (+61)</text>
<text x="639.1" y="66.0" text-anchor="middle" font-size="9" fill="#BF5AF2" opacity="0.85" clip-path="url(#ca)">+2.7% (+29)</text>
<text x="639.1" y="77.0" text-anchor="middle" font-size="9" fill="#34C759" opacity="0.85" clip-path="url(#ca)">+2.6% (+21)</text>
<text x="755.5" y="55.0" text-anchor="middle" font-size="9" fill="#4F8EF7" opacity="0.85" clip-path="url(#ca)">+0.5% (+9)</text>
<text x="755.5" y="66.0" text-anchor="middle" font-size="9" fill="#BF5AF2" opacity="0.85" clip-path="url(#ca)">+0.7% (+8)</text>
<text x="755.5" y="77.0" text-anchor="middle" font-size="9" fill="#34C759" opacity="0.85" clip-path="url(#ca)">+0.6% (+5)</text>
<rect x="211" y="369" width="12" height="12" fill="#4F8EF7" rx="2"/>
<text x="227" y="379" font-size="12" fill="#111827">Authors</text>
<rect x="351" y="369" width="12" height="12" fill="#BF5AF2" rx="2"/>
<text x="367" y="379" font-size="12" fill="#111827">Contributors</text>
<rect x="491" y="369" width="12" height="12" fill="#34C759" rx="2"/>
<text x="507" y="379" font-size="12" fill="#111827">Non-author contributors</text>
<text x="72" y="394" font-size="8" fill="#e5e7eb">data since Dec 11, 2025</text>
</svg>