<svg xmlns="http://www.w3.org/2000/svg" width="800" height="400" viewBox="0 0 800 400">
<defs>
  <style>text { font-family: -apple-system, BlinkMacSystemFont, 'Segoe UI', Roboto, sans-serif; }</style>
  <linearGradient id="g5" x1="0" y1="0" x2="0" y2="1">
  <stop offset="0%" stop-color="#34C759" stop-opacity="0.25"/>
  <stop offset="100%" stop-color="#34C759" stop-opacity="0"/>
</linearGradient>
<linearGradient id="g6" x1="0" y1="0" x2="0" y2="1">
  <stop offset="0%" stop-color="#4F8EF7" stop-opacity="0.25"/>
  <stop offset="100%" stop-color="#4F8EF7" stop-opacity="0"/>
</linearGradient>
<linearGradient id="g7" x1="0" y1="0" x2="0" y2="1">
  <stop offset="0%" stop-color="#FF6363" stop-opacity="0.25"/>
  <stop offset="100%" stop-color="#FF6363" stop-opacity="0"/>
</linearGradient>
  <clipPath id="ca"><rect x="72" y="45" width="698" height="295"/></clipPath>
</defs>
<rect width="800" height="400" fill="#ffffff" rx="12"/>
<text x="400" y="26" text-anchor="middle" font-size="15" font-weight="600" fill="#111827">Platform Support Over Time</text>
<line x1="72" y1="340.0" x2="770" y2="340.0" stroke="#f3f4f6" stroke-width="1"/>
<text x="66" y="344.0" text-anchor="end" font-size="11" fill="#6b7280">0</text>
<line x1="72" y1="281.0" x2="770" y2="281.0" stroke="#f3f4f6" stroke-width="1"/>
<text x="66" y="285.0" text-anchor="end" font-size="11" fill="#6b7280">200</text>
<line x1="72" y1="222.0" x2="770" y2="222.0" stroke="#f3f4f6" stroke-width="1"/>
<text x="66" y="226.0" text-anchor="end" font-size="11" fill="#6b7280">400</text>
<line x1="72" y1="163.0" x2="770" y2="163.0" stroke="#f3f4f6" stroke-width="1"/>
<text x="66" y="167.0" text-anchor="end" font-size="11" fill="#6b7280">600</text>
<line x1="72" y1="104.0" x2="770" y2="104.0" stroke="#f3f4f6" stroke-width="1"/>
<text x="66" y="108.0" text-anchor="end" font-size="11" fill="#6b7280">800</text>
<line x1="72" y1="45.0" x2="770" y2="45.0" stroke="#f3f4f6" stroke-width="1"/>
<text x="66" y="49.0" text-anchor="end" font-size="11" fill="#6b7280">1.0k</text>
<line x1="117.3" y1="45" x2="117.3" y2="340" stroke="#e5e7eb" stroke-width="1" stroke-dasharray="3,3" clip-path="url(#ca)"/>
<line x1="215.4" y1="45" x2="215.4" y2="340" stroke="#e5e7eb" stroke-width="1" stroke-dasharray="3,3" clip-path="url(#ca)"/>
<line x1="317.2" y1="45" x2="317.2" y2="340" stroke="#e5e7eb" stroke-width="1" stroke-dasharray="3,3" clip-path="url(#ca)"/>
<line x1="419.1" y1="45" x2="419.1" y2="340" stroke="#e5e7eb" stroke-width="1" stroke-dasharray="3,3" clip-path="url(#ca)"/>
<line x1="521.0" y1="45" x2="521.0" y2="340" stroke="#e5e7eb" stroke-width="1" stroke-dasharray="3,3" clip-path="url(#ca)"/>
<line x1="619.1" y1="45" x2="619.1" y2="340" stroke="#e5e7eb" stroke-width="1" stroke-dasharray="3,3" clip-path="url(#ca)"/>
<line x1="709.6" y1="45" x2="709.6" y2="340" stroke="#e5e7eb" stroke-width="1" stroke-dasharray="3,3" clip-path="url(#ca)"/>
<text x="72.0" y="358.0" text-anchor="middle" font-size="11" fill="#6b7280">Dec 11</text>
<text x="211.6" y="358.0" text-anchor="middle" font-size="11" fill="#6b7280">Jan 31</text>
<text x="351.2" y="358.0" text-anchor="middle" font-size="11" fill="#6b7280">Mar 11</text>
<text x="490.8" y="358.0" text-anchor="middle" font-size="11" fill="#6b7280">Apr 22</text>
<text x="630.4" y="358.0" text-anchor="middle" font-size="11" fill="#6b7280">Jun 5</text>
<text x="770.0" y="358.0" text-anchor="middle" font-size="11" fill="#6b7280">Jul 20</text>
<line x1="72" y1="45" x2="72" y2="340" stroke="#e5e7eb" stroke-width="1"/>
<line x1="72" y1="340" x2="770" y2="340" stroke="#e5e7eb" stroke-width="1"/>
<text x="-192.5" y="18" text-anchor="middle" font-size="12" fill="#6b7280" transform="rotate(-90)">Extensions</text>
<path d="M 72.0,340 L 72.0,242.6 L 75.8,240.0 L 79.5,239.7 L 83.3,238.5 L 87.1,237.9 L 90.9,235.0 L 94.6,233.2 L 98.4,232.3 L 102.2,230.8 L 106.0,229.1 L 109.7,228.2 L 113.5,227.9 L 117.3,227.0 L 121.0,226.4 L 124.8,226.1 L 128.6,225.2 L 132.4,224.4 L 136.1,223.5 L 139.9,222.6 L 143.7,221.4 L 147.5,220.5 L 151.2,219.6 L 155.0,218.8 L 158.8,217.0 L 162.6,216.4 L 166.3,216.4 L 170.1,214.3 L 173.9,213.7 L 177.6,213.2 L 181.4,212.6 L 185.2,211.1 L 189.0,209.0 L 192.7,208.7 L 196.5,208.4 L 200.3,206.7 L 204.1,206.1 L 207.8,204.6 L 211.6,204.3 L 215.4,204.0 L 219.1,203.4 L 222.9,203.4 L 226.7,203.4 L 230.5,199.3 L 234.2,199.0 L 238.0,198.1 L 241.8,197.8 L 245.6,197.5 L 249.3,196.6 L 253.1,196.0 L 256.9,195.4 L 260.6,193.7 L 264.4,193.7 L 268.2,193.7 L 272.0,193.4 L 275.7,190.4 L 279.5,189.6 L 283.3,189.0 L 287.1,188.1 L 290.8,187.5 L 294.6,187.5 L 298.4,186.0 L 302.2,183.9 L 305.9,183.4 L 309.7,183.1 L 313.5,182.2 L 317.2,182.2 L 321.0,181.6 L 324.8,180.7 L 328.6,180.1 L 332.3,178.9 L 336.1,177.8 L 339.9,177.5 L 343.7,177.5 L 347.4,176.3 L 351.2,176.3 L 355.0,176.3 L 358.7,174.5 L 362.5,174.2 L 366.3,173.9 L 370.1,173.9 L 373.8,173.6 L 377.6,172.4 L 381.4,171.9 L 385.2,171.0 L 388.9,171.0 L 392.7,170.7 L 396.5,169.5 L 400.2,168.6 L 404.0,168.6 L 407.8,168.3 L 411.6,167.7 L 415.3,165.7 L 419.1,165.1 L 422.9,164.2 L 426.7,164.2 L 430.4,163.6 L 434.2,163.3 L 438.0,163.0 L 441.8,162.7 L 445.5,162.4 L 449.3,162.4 L 453.1,162.1 L 456.8,161.8 L 460.6,160.9 L 464.4,159.8 L 468.2,159.5 L 471.9,158.6 L 475.7,158.6 L 479.5,157.4 L 483.3,157.1 L 487.0,157.1 L 490.8,157.1 L 494.6,156.2 L 498.3,155.9 L 502.1,155.9 L 505.9,155.9 L 509.7,155.6 L 513.4,154.4 L 517.2,154.2 L 521.0,153.3 L 524.8,152.7 L 528.5,152.7 L 532.3,151.8 L 536.1,151.2 L 539.8,151.2 L 543.6,150.9 L 547.4,149.4 L 551.2,148.0 L 554.9,147.7 L 558.7,147.1 L 562.5,145.9 L 566.3,145.9 L 570.0,145.3 L 573.8,143.8 L 577.6,141.2 L 581.4,140.3 L 585.1,140.3 L 588.9,140.3 L 592.7,140.3 L 596.4,140.3 L 600.2,139.1 L 604.0,138.2 L 607.8,138.2 L 611.5,138.2 L 615.3,138.2 L 619.1,137.3 L 622.9,137.3 L 626.6,136.5 L 630.4,135.6 L 634.2,135.3 L 637.9,135.0 L 641.7,134.4 L 645.5,134.4 L 649.3,133.5 L 653.0,132.3 L 656.8,131.4 L 660.6,129.7 L 664.4,129.1 L 668.1,128.8 L 671.9,128.5 L 675.7,127.9 L 679.4,127.6 L 683.2,126.1 L 687.0,125.2 L 690.8,123.8 L 694.5,123.5 L 698.3,123.5 L 702.1,123.2 L 705.9,122.0 L 709.6,121.7 L 713.4,121.4 L 717.2,121.1 L 721.0,119.9 L 724.7,119.6 L 728.5,118.2 L 732.3,117.3 L 736.0,117.0 L 739.8,115.2 L 743.6,115.2 L 747.4,115.2 L 751.1,115.2 L 754.9,114.6 L 758.7,114.6 L 762.5,114.3 L 766.2,114.3 L 770.0,114.0 L 770.0,340 Z" fill="url(#g5)" clip-path="url(#ca)"/>
<path d="M 72.0,242.6 L 75.8,240.0 L 79.5,239.7 L 83.3,238.5 L 87.1,237.9 L 90.9,235.0 L 94.6,233.2 L 98.4,232.3 L 102.2,230.8 L 106.0,229.1 L 109.7,228.2 L 113.5,227.9 L 117.3,227.0 L 121.0,226.4 L 124.8,226.1 L 128.6,225.2 L 132.4,224.4 L 136.1,223.5 L 139.9,222.6 L 143.7,221.4 L 147.5,220.5 L 151.2,219.6 L 155.0,218.8 L 158.8,217.0 L 162.6,216.4 L 166.3,216.4 L 170.1,214.3 L 173.9,213.7 L 177.6,213.2 L 181.4,212.6 L 185.2,211.1 L 189.0,209.0 L 192.7,208.7 L 196.5,208.4 L 200.3,206.7 L 204.1,206.1 L 207.8,204.6 L 211.6,204.3 L 215.4,204.0 L 219.1,203.4 L 222.9,203.4 L 226.7,203.4 L 230.5,199.3 L 234.2,199.0 L 238.0,198.1 L 241.8,197.8 L 245.6,197.5 L 249.3,196.6 L 253.1,196.0 L 256.9,195.4 L 260.6,193.7 L 264.4,193.7 L 268.2,193.7 L 272.0,193.4 L 275.7,190.4 L 279.5,189.6 L 283.3,189.0 L 287.1,188.1 L 290.8,187.5 L 294.6,187.5 L 298.4,186.0 L 302.2,183.9 L 305.9,183.4 L 309.7,183.1 L 313.5,182.2 L 317.2,182.2 L 321.0,181.6 L 324.8,180.7 L 328.6,180.1 L 332.3,178.9 L 336.1,177.8 L 339.9,177.5 L 343.7,177.5 L 347.4,176.3 L 351.2,176.3 L 355.0,176.3 L 358.7,174.5 L 362.5,174.2 L 366.3,173.9 L 370.1,173.9 L 373.8,173.6 L 377.6,172.4 L 381.4,171.9 L 385.2,171.0 L 388.9,171.0 L 392.7,170.7 L 396.5,169.5 L 400.2,168.6 L 404.0,168.6 L 407.8,168.3 L 411.6,167.7 L 415.3,165.7 L 419.1,165.1 L 422.9,164.2 L 426.7,164.2 L 430.4,163.6 L 434.2,163.3 L 438.0,163.0 L 441.8,162.7 L 445.5,162.4 L 449.3,162.4 L 453.1,162.1 L 456.8,161.8 L 460.6,160.9 L 464.4,159.8 L 468.2,159.5 L 471.9,158.6 L 475.7,158.6 L 479.5,157.4 L 483.3,157.1 L 487.0,157.1 L 490.8,157.1 L 494.6,156.2 L 498.3,155.9 L 502.1,155.9 L 505.9,155.9 L 509.7,155.6 L 513.4,154.4 L 517.2,154.2 L 521.0,153.3 L 524.8,152.7 L 528.5,152.7 L 532.3,151.8 L 536.1,151.2 L 539.8,151.2 L 543.6,150.9 L 547.4,149.4 L 551.2,148.0 L 554.9,147.7 L 558.7,147.1 L 562.5,145.9 L 566.3,145.9 L 570.0,145.3 L 573.8,143.8 L 577.6,141.2 L 581.4,140.3 L 585.1,140.3 L 588.9,140.3 L 592.7,140.3 L 596.4,140.3 L 600.2,139.1 L 604.0,138.2 L 607.8,138.2 L 611.5,138.2 L 615.3,138.2 L 619.1,137.3 L 622.9,137.3 L 626.6,136.5 L 630.4,135.6 L 634.2,135.3 L 637.9,135.0 L 641.7,134.4 L 645.5,134.4 L 649.3,133.5 L 653.0,132.3 L 656.8,131.4 L 660.6,129.7 L 664.4,129.1 L 668.1,128.8 L 671.9,128.5 L 675.7,127.9 L 679.4,127.6 L 683.2,126.1 L 687.0,125.2 L 690.8,123.8 L 694.5,123.5 L 698.3,123.5 L 702.1,123.2 L 705.9,122.0 L 709.6,121.7 L 713.4,121.4 L 717.2,121.1 L 721.0,119.9 L 724.7,119.6 L 728.5,118.2 L 732.3,117.3 L 736.0,117.0 L 739.8,115.2 L 743.6,115.2 L 747.4,115.2 L 751.1,115.2 L 754.9,114.6 L 758.7,114.6 L 762.5,114.3 L 766.2,114.3 L 770.0,114.0" fill="none" stroke="#34C759" stroke-width="2.5" stroke-linejoin="round" clip-path="url(#ca)"/>
<path d="M 72.0,340 L 72.0,222.6 L 75.8,222.6 L 79.5,222.3 L 83.3,221.4 L 87.1,221.7 L 90.9,221.7 L 94.6,220.5 L 98.4,219.6 L 102.2,219.6 L 106.0,219.9 L 109.7,219.6 L 113.5,219.3 L 117.3,219.1 L 121.0,219.1 L 124.8,219.1 L 128.6,219.3 L 132.4,218.8 L 136.1,218.2 L 139.9,216.4 L 143.7,215.2 L 147.5,215.2 L 151.2,214.9 L 155.0,213.2 L 158.8,210.5 L 162.6,209.6 L 166.3,209.0 L 170.1,207.0 L 173.9,205.5 L 177.6,204.9 L 181.4,204.3 L 185.2,203.7 L 189.0,203.4 L 192.7,203.4 L 196.5,201.3 L 200.3,200.8 L 204.1,200.2 L 207.8,200.2 L 211.6,198.7 L 215.4,198.4 L 219.1,197.5 L 222.9,196.3 L 226.7,194.9 L 230.5,192.8 L 234.2,190.7 L 238.0,190.4 L 241.8,189.8 L 245.6,189.3 L 249.3,187.5 L 253.1,187.5 L 256.9,186.9 L 260.6,186.0 L 264.4,185.4 L 268.2,184.2 L 272.0,184.5 L 275.7,181.0 L 279.5,180.7 L 283.3,180.4 L 287.1,179.8 L 290.8,178.0 L 294.6,178.0 L 298.4,176.3 L 302.2,174.2 L 305.9,174.2 L 309.7,174.2 L 313.5,173.9 L 317.2,173.6 L 321.0,173.3 L 324.8,171.9 L 328.6,170.1 L 332.3,169.5 L 336.1,168.3 L 339.9,168.3 L 343.7,167.4 L 347.4,165.7 L 351.2,164.8 L 355.0,164.5 L 358.7,162.4 L 362.5,162.1 L 366.3,162.1 L 370.1,161.8 L 373.8,161.8 L 377.6,160.3 L 381.4,159.8 L 385.2,158.9 L 388.9,158.6 L 392.7,158.0 L 396.5,155.6 L 400.2,152.4 L 404.0,152.1 L 407.8,151.5 L 411.6,151.2 L 415.3,149.7 L 419.1,118.5 L 422.9,117.9 L 426.7,116.4 L 430.4,116.4 L 434.2,116.4 L 438.0,116.7 L 441.8,116.4 L 445.5,114.6 L 449.3,114.0 L 453.1,113.7 L 456.8,113.4 L 460.6,112.3 L 464.4,110.5 L 468.2,110.5 L 471.9,110.5 L 475.7,110.2 L 479.5,109.9 L 483.3,109.9 L 487.0,109.3 L 490.8,108.4 L 494.6,106.9 L 498.3,106.4 L 502.1,106.1 L 505.9,106.1 L 509.7,105.8 L 513.4,105.2 L 517.2,104.9 L 521.0,103.4 L 524.8,103.4 L 528.5,102.8 L 532.3,101.6 L 536.1,100.2 L 539.8,99.9 L 543.6,99.6 L 547.4,96.9 L 551.2,96.3 L 554.9,95.7 L 558.7,95.7 L 562.5,94.6 L 566.3,94.0 L 570.0,92.5 L 573.8,91.9 L 577.6,91.0 L 581.4,90.7 L 585.1,89.5 L 588.9,88.7 L 592.7,88.4 L 596.4,87.8 L 600.2,86.6 L 604.0,86.0 L 607.8,85.1 L 611.5,84.5 L 615.3,84.2 L 619.1,83.6 L 622.9,82.8 L 626.6,82.2 L 630.4,81.6 L 634.2,80.7 L 637.9,80.7 L 641.7,80.1 L 645.5,78.6 L 649.3,77.2 L 653.0,76.3 L 656.8,76.6 L 660.6,76.0 L 664.4,75.7 L 668.1,75.4 L 671.9,74.8 L 675.7,73.3 L 679.4,73.3 L 683.2,73.0 L 687.0,72.1 L 690.8,71.3 L 694.5,70.1 L 698.3,69.5 L 702.1,69.5 L 705.9,68.6 L 709.6,68.0 L 713.4,67.4 L 717.2,66.5 L 721.0,65.9 L 724.7,65.9 L 728.5,65.6 L 732.3,66.2 L 736.0,65.6 L 739.8,64.2 L 743.6,63.3 L 747.4,62.7 L 751.1,62.1 L 754.9,60.9 L 758.7,58.9 L 762.5,58.6 L 766.2,58.0 L 770.0,57.1 L 770.0,340 Z" fill="url(#g6)" clip-path="url(#ca)"/>
<path d="M 72.0,222.6 L 75.8,222.6 L 79.5,222.3 L 83.3,221.4 L 87.1,221.7 L 90.9,221.7 L 94.6,220.5 L 98.4,219.6 L 102.2,219.6 L 106.0,219.9 L 109.7,219.6 L 113.5,219.3 L 117.3,219.1 L 121.0,219.1 L 124.8,219.1 L 128.6,219.3 L 132.4,218.8 L 136.1,218.2 L 139.9,216.4 L 143.7,215.2 L 147.5,215.2 L 151.2,214.9 L 155.0,213.2 L 158.8,210.5 L 162.6,209.6 L 166.3,209.0 L 170.1,207.0 L 173.9,205.5 L 177.6,204.9 L 181.4,204.3 L 185.2,203.7 L 189.0,203.4 L 192.7,203.4 L 196.5,201.3 L 200.3,200.8 L 204.1,200.2 L 207.8,200.2 L 211.6,198.7 L 215.4,198.4 L 219.1,197.5 L 222.9,196.3 L 226.7,194.9 L 230.5,192.8 L 234.2,190.7 L 238.0,190.4 L 241.8,189.8 L 245.6,189.3 L 249.3,187.5 L 253.1,187.5 L 256.9,186.9 L 260.6,186.0 L 264.4,185.4 L 268.2,184.2 L 272.0,184.5 L 275.7,181.0 L 279.5,180.7 L 283.3,180.4 L 287.1,179.8 L 290.8,178.0 L 294.6,178.0 L 298.4,176.3 L 302.2,174.2 L 305.9,174.2 L 309.7,174.2 L 313.5,173.9 L 317.2,173.6 L 321.0,173.3 L 324.8,171.9 L 328.6,170.1 L 332.3,169.5 L 336.1,168.3 L 339.9,168.3 L 343.7,167.4 L 347.4,165.7 L 351.2,164.8 L 355.0,164.5 L 358.7,162.4 L 362.5,162.1 L 366.3,162.1 L 370.1,161.8 L 373.8,161.8 L 377.6,160.3 L 381.4,159.8 L 385.2,158.9 L 388.9,158.6 L 392.7,158.0 L 396.5,155.6 L 400.2,152.4 L 404.0,152.1 L 407.8,151.5 L 411.6,151.2 L 415.3,149.7 L 419.1,118.5 L 422.9,117.9 L 426.7,116.4 L 430.4,116.4 L 434.2,116.4 L 438.0,116.7 L 441.8,116.4 L 445.5,114.6 L 449.3,114.0 L 453.1,113.7 L 456.8,113.4 L 460.6,112.3 L 464.4,110.5 L 468.2,110.5 L 471.9,110.5 L 475.7,110.2 L 479.5,109.9 L 483.3,109.9 L 487.0,109.3 L 490.8,108.4 L 494.6,106.9 L 498.3,106.4 L 502.1,106.1 L 505.9,106.1 L 509.7,105.8 L 513.4,105.2 L 517.2,104.9 L 521.0,103.4 L 524.8,103.4 L 528.5,102.8 L 532.3,101.6 L 536.1,100.2 L 539.8,99.9 L 543.6,99.6 L 547.4,96.9 L 551.2,96.3 L 554.9,95.7 L 558.7,95.7 L 562.5,94.6 L 566.3,94.0 L 570.0,92.5 L 573.8,91.9 L 577.6,91.0 L 581.4,90.7 L 585.1,89.5 L 588.9,88.7 L 592.7,88.4 L 596.4,87.8 L 600.2,86.6 L 604.0,86.0 L 607.8,85.1 L 611.5,84.5 L 615.3,84.2 L 619.1,83.6 L 622.9,82.8 L 626.6,82.2 L 630.4,81.6 L 634.2,80.7 L 637.9,80.7 L 641.7,80.1 L 645.5,78.6 L 649.3,77.2 L 653.0,76.3 L 656.8,76.6 L 660.6,76.0 L 664.4,75.7 L 668.1,75.4 L 671.9,74.8 L 675.7,73.3 L 679.4,73.3 L 683.2,73.0 L 687.0,72.1 L 690.8,71.3 L 694.5,70.1 L 698.3,69.5 L 702.1,69.5 L 705.9,68.6 L 709.6,68.0 L 713.4,67.4 L 717.2,66.5 L 721.0,65.9 L 724.7,65.9 L 728.5,65.6 L 732.3,66.2 L 736.0,65.6 L 739.8,64.2 L 743.6,63.3 L 747.4,62.7 L 751.1,62.1 L 754.9,60.9 L 758.7,58.9 L 762.5,58.6 L 766.2,58.0 L 770.0,57.1" fill="none" stroke="#4F8EF7" stroke-width="2.5" stroke-linejoin="round" clip-path="url(#ca)"/>
<path d="M 72.0,340 L 72.0,338.2 L 75.8,337.9 L 79.5,337.9 L 83.3,337.6 L 87.1,337.6 L 90.9,337.6 L 94.6,337.6 L 98.4,337.6 L 102.2,337.1 L 106.0,337.1 L 109.7,337.1 L 113.5,337.1 L 117.3,337.1 L 121.0,336.8 L 124.8,336.8 L 128.6,336.8 L 132.4,336.8 L 136.1,336.8 L 139.9,336.5 L 143.7,335.9 L 147.5,335.6 L 151.2,335.6 L 155.0,335.6 L 158.8,335.3 L 162.6,335.3 L 166.3,335.3 L 170.1,335.0 L 173.9,335.0 L 177.6,335.0 L 181.4,334.7 L 185.2,334.7 L 189.0,334.7 L 192.7,334.7 L 196.5,334.4 L 200.3,334.4 L 204.1,334.4 L 207.8,334.4 L 211.6,334.4 L 215.4,334.4 L 219.1,334.4 L 222.9,334.4 L 226.7,334.4 L 230.5,334.4 L 234.2,334.4 L 238.0,334.4 L 241.8,334.4 L 245.6,334.1 L 249.3,334.1 L 253.1,334.1 L 256.9,334.1 L 260.6,334.1 L 264.4,334.1 L 268.2,334.1 L 272.0,334.1 L 275.7,334.1 L 279.5,334.1 L 283.3,334.1 L 287.1,334.1 L 290.8,333.8 L 294.6,333.8 L 298.4,333.8 L 302.2,333.8 L 305.9,333.8 L 309.7,333.8 L 313.5,333.8 L 317.2,333.8 L 321.0,333.8 L 324.8,333.8 L 328.6,333.8 L 332.3,333.8 L 336.1,333.8 L 339.9,333.8 L 343.7,333.8 L 347.4,333.8 L 351.2,333.8 L 355.0,333.8 L 358.7,333.8 L 362.5,333.8 L 366.3,333.8 L 370.1,333.8 L 373.8,333.8 L 377.6,333.8 L 381.4,333.8 L 385.2,333.8 L 388.9,333.8 L 392.7,333.8 L 396.5,333.8 L 400.2,333.8 L 404.0,333.8 L 407.8,333.8 L 411.6,333.8 L 415.3,333.8 L 419.1,333.8 L 422.9,333.8 L 426.7,333.5 L 430.4,333.5 L 434.2,333.5 L 438.0,333.5 L 441.8,333.5 L 445.5,333.2 L 449.3,333.2 L 453.1,333.2 L 456.8,333.2 L 460.6,332.9 L 464.4,332.9 L 468.2,332.6 L 471.9,332.6 L 475.7,332.6 L 479.5,332.6 L 483.3,332.6 L 487.0,332.6 L 490.8,332.6 L 494.6,332.6 L 498.3,332.6 L 502.1,332.6 L 505.9,332.6 L 509.7,332.6 L 513.4,332.6 L 517.2,332.6 L 521.0,332.6 L 524.8,332.6 L 528.5,332.6 L 532.3,332.6 L 536.1,332.6 L 539.8,332.6 L 543.6,332.6 L 547.4,332.6 L 551.2,332.6 L 554.9,332.6 L 558.7,332.6 L 562.5,332.6 L 566.3,332.6 L 570.0,332.6 L 573.8,332.6 L 577.6,332.6 L 581.4,332.6 L 585.1,332.6 L 588.9,332.6 L 592.7,332.6 L 596.4,332.6 L 600.2,332.6 L 604.0,332.6 L 607.8,332.6 L 611.5,332.6 L 615.3,332.6 L 619.1,332.6 L 622.9,332.6 L 626.6,332.6 L 630.4,332.6 L 634.2,332.6 L 637.9,332.6 L 641.7,332.6 L 645.5,332.6 L 649.3,332.3 L 653.0,332.3 L 656.8,332.3 L 660.6,332.3 L 664.4,332.3 L 668.1,332.3 L 671.9,332.3 L 675.7,332.3 L 679.4,332.3 L 683.2,332.3 L 687.0,332.3 L 690.8,332.0 L 694.5,332.0 L 698.3,332.0 L 702.1,332.0 L 705.9,332.0 L 709.6,332.0 L 713.4,332.0 L 717.2,332.0 L 721.0,332.0 L 724.7,332.0 L 728.5,332.0 L 732.3,332.0 L 736.0,332.0 L 739.8,332.0 L 743.6,331.7 L 747.4,331.7 L 751.1,331.7 L 754.9,331.7 L 758.7,331.7 L 762.5,331.7 L 766.2,331.7 L 770.0,331.7 L 770.0,340 Z" fill="url(#g7)" clip-path="url(#ca)"/>
<path d="M 72.0,338.2 L 75.8,337.9 L 79.5,337.9 L 83.3,337.6 L 87.1,337.6 L 90.9,337.6 L 94.6,337.6 L 98.4,337.6 L 102.2,337.1 L 106.0,337.1 L 109.7,337.1 L 113.5,337.1 L 117.3,337.1 L 121.0,336.8 L 124.8,336.8 L 128.6,336.8 L 132.4,336.8 L 136.1,336.8 L 139.9,336.5 L 143.7,335.9 L 147.5,335.6 L 151.2,335.6 L 155.0,335.6 L 158.8,335.3 L 162.6,335.3 L 166.3,335.3 L 170.1,335.0 L 173.9,335.0 L 177.6,335.0 L 181.4,334.7 L 185.2,334.7 L 189.0,334.7 L 192.7,334.7 L 196.5,334.4 L 200.3,334.4 L 204.1,334.4 L 207.8,334.4 L 211.6,334.4 L 215.4,334.4 L 219.1,334.4 L 222.9,334.4 L 226.7,334.4 L 230.5,334.4 L 234.2,334.4 L 238.0,334.4 L 241.8,334.4 L 245.6,334.1 L 249.3,334.1 L 253.1,334.1 L 256.9,334.1 L 260.6,334.1 L 264.4,334.1 L 268.2,334.1 L 272.0,334.1 L 275.7,334.1 L 279.5,334.1 L 283.3,334.1 L 287.1,334.1 L 290.8,333.8 L 294.6,333.8 L 298.4,333.8 L 302.2,333.8 L 305.9,333.8 L 309.7,333.8 L 313.5,333.8 L 317.2,333.8 L 321.0,333.8 L 324.8,333.8 L 328.6,333.8 L 332.3,333.8 L 336.1,333.8 L 339.9,333.8 L 343.7,333.8 L 347.4,333.8 L 351.2,333.8 L 355.0,333.8 L 358.7,333.8 L 362.5,333.8 L 366.3,333.8 L 370.1,333.8 L 373.8,333.8 L 377.6,333.8 L 381.4,333.8 L 385.2,333.8 L 388.9,333.8 L 392.7,333.8 L 396.5,333.8 L 400.2,333.8 L 404.0,333.8 L 407.8,333.8 L 411.6,333.8 L 415.3,333.8 L 419.1,333.8 L 422.9,333.8 L 426.7,333.5 L 430.4,333.5 L 434.2,333.5 L 438.0,333.5 L 441.8,333.5 L 445.5,333.2 L 449.3,333.2 L 453.1,333.2 L 456.8,333.2 L 460.6,332.9 L 464.4,332.9 L 468.2,332.6 L 471.9,332.6 L 475.7,332.6 L 479.5,332.6 L 483.3,332.6 L 487.0,332.6 L 490.8,332.6 L 494.6,332.6 L 498.3,332.6 L 502.1,332.6 L 505.9,332.6 L 509.7,332.6 L 513.4,332.6 L 517.2,332.6 L 521.0,332.6 L 524.8,332.6 L 528.5,332.6 L 532.3,332.6 L 536.1,332.6 L 539.8,332.6 L 543.6,332.6 L 547.4,332.6 L 551.2,332.6 L 554.9,332.6 L 558.7,332.6 L 562.5,332.6 L 566.3,332.6 L 570.0,332.6 L 573.8,332.6 L 577.6,332.6 L 581.4,332.6 L 585.1,332.6 L 588.9,332.6 L 592.7,332.6 L 596.4,332.6 L 600.2,332.6 L 604.0,332.6 L 607.8,332.6 L 611.5,332.6 L 615.3,332.6 L 619.1,332.6 L 622.9,332.6 L 626.6,332.6 L 630.4,332.6 L 634.2,332.6 L 637.9,332.6 L 641.7,332.6 L 645.5,332.6 L 649.3,332.3 L 653.0,332.3 L 656.8,332.3 L 660.6,332.3 L 664.4,332.3 L 668.1,332.3 L 671.9,332.3 L 675.7,332.3 L 679.4,332.3 L 683.2,332.3 L 687.0,332.3 L 690.8,332.0 L 694.5,332.0 L 698.3,332.0 L 702.1,332.0 L 705.9,332.0 L 709.6,332.0 L 713.4,332.0 L 717.2,332.0 L 721.0,332.0 L 724.7,332.0 L 728.5,332.0 L 732.3,332.0 L 736.0,332.0 L 739.8,332.0 L 743.6,331.7 L 747.4,331.7 L 751.1,331.7 L 754.9,331.7 L 758.7,331.7 L 762.5,331.7 L 766.2,331.7 L 770.0,331.7" fill="none" stroke="#FF6363" stroke-width="2.5" stroke-linejoin="round" clip-path="url(#ca)"/>
<text x="92.8" y="55.0" text-anchor="middle" font-size="9" fill="#34C759" opacity="0.85" clip-path="url(#ca)">+15.2% (+50)</text>
<text x="92.8" y="66.0" text-anchor="middle" font-size="9" fill="#4F8EF7" opacity="0.85" clip-path="url(#ca)">+2.8% (+11)</text>
<text x="92.8" y="77.0" text-anchor="middle" font-size="9" fill="#FF6363" opacity="0.85" clip-path="url(#ca)">+66.7% (+4)</text>
<text x="164.4" y="55.0" text-anchor="middle" font-size="9" fill="#34C759" opacity="0.85" clip-path="url(#ca)">+20.1% (+77)</text>
<text x="164.4" y="66.0" text-anchor="middle" font-size="9" fill="#4F8EF7" opacity="0.85" clip-path="url(#ca)">+16.8% (+69)</text>
<text x="164.4" y="77.0" text-anchor="middle" font-size="9" fill="#FF6363" opacity="0.85" clip-path="url(#ca)">+90.0% (+9)</text>
<text x="264.4" y="55.0" text-anchor="middle" font-size="9" fill="#34C759" opacity="0.85" clip-path="url(#ca)">+16.1% (+74)</text>
<text x="264.4" y="66.0" text-anchor="middle" font-size="9" fill="#4F8EF7" opacity="0.85" clip-path="url(#ca)">+17.3% (+83)</text>
<text x="264.4" y="77.0" text-anchor="middle" font-size="9" fill="#FF6363" opacity="0.85" clip-path="url(#ca)">+10.5% (+2)</text>
<text x="366.3" y="55.0" text-anchor="middle" font-size="9" fill="#34C759" opacity="0.85" clip-path="url(#ca)">+10.5% (+56)</text>
<text x="366.3" y="66.0" text-anchor="middle" font-size="9" fill="#4F8EF7" opacity="0.85" clip-path="url(#ca)">+14.4% (+81)</text>
<text x="366.3" y="77.0" text-anchor="middle" font-size="9" fill="#FF6363" opacity="0.85" clip-path="url(#ca)">+0.0% (+0)</text>
<text x="468.2" y="55.0" text-anchor="middle" font-size="9" fill="#34C759" opacity="0.85" clip-path="url(#ca)">+6.2% (+37)</text>
<text x="468.2" y="66.0" text-anchor="middle" font-size="9" fill="#4F8EF7" opacity="0.85" clip-path="url(#ca)">+6.1% (+46)</text>
<text x="468.2" y="77.0" text-anchor="middle" font-size="9" fill="#FF6363" opacity="0.85" clip-path="url(#ca)">+19.0% (+4)</text>
<text x="568.1" y="55.0" text-anchor="middle" font-size="9" fill="#34C759" opacity="0.85" clip-path="url(#ca)">+8.1% (+51)</text>
<text x="568.1" y="66.0" text-anchor="middle" font-size="9" fill="#4F8EF7" opacity="0.85" clip-path="url(#ca)">+8.1% (+65)</text>
<text x="568.1" y="77.0" text-anchor="middle" font-size="9" fill="#FF6363" opacity="0.85" clip-path="url(#ca)">+0.0% (+0)</text>
<text x="662.5" y="55.0" text-anchor="middle" font-size="9" fill="#34C759" opacity="0.85" clip-path="url(#ca)">+7.6% (+52)</text>
<text x="662.5" y="66.0" text-anchor="middle" font-size="9" fill="#4F8EF7" opacity="0.85" clip-path="url(#ca)">+5.9% (+51)</text>
<text x="662.5" y="77.0" text-anchor="middle" font-size="9" fill="#FF6363" opacity="0.85" clip-path="url(#ca)">+8.0% (+2)</text>
<text x="739.8" y="55.0" text-anchor="middle" font-size="9" fill="#34C759" opacity="0.85" clip-path="url(#ca)">+3.5% (+26)</text>
<text x="739.8" y="66.0" text-anchor="middle" font-size="9" fill="#4F8EF7" opacity="0.85" clip-path="url(#ca)">+4.0% (+37)</text>
<text x="739.8" y="77.0" text-anchor="middle" font-size="9" fill="#FF6363" opacity="0.85" clip-path="url(#ca)">+3.7% (+1)</text>
<rect x="211" y="369" width="12" height="12" fill="#34C759" rx="2"/>
<text x="227" y="379" font-size="12" fill="#111827">macOS + Windows</text>
<rect x="351" y="369" width="12" height="12" fill="#4F8EF7" rx="2"/>
<text x="367" y="379" font-size="12" fill="#111827">macOS only</text>
<rect x="491" y="369" width="12" height="12" fill="#FF6363" rx="2"/>
<text x="507" y="379" font-size="12" fill="#111827">Windows only</text>
<text x="72" y="394" font-size="8" fill="#e5e7eb">data since Dec 11, 2025</text>
</svg>