<svg xmlns="http://www.w3.org/2000/svg" width="800" height="400" viewBox="0 0 800 400">
<defs>
  <style>text { font-family: -apple-system, BlinkMacSystemFont, 'Segoe UI', Roboto, sans-serif; }</style>
  <linearGradient id="g2" x1="0" y1="0" x2="0" y2="1">
  <stop offset="0%" stop-color="#4F8EF7" stop-opacity="0.25"/>
  <stop offset="100%" stop-color="#4F8EF7" stop-opacity="0"/>
</linearGradient>
<linearGradient id="g3" x1="0" y1="0" x2="0" y2="1">
  <stop offset="0%" stop-color="#BF5AF2" stop-opacity="0.25"/>
  <stop offset="100%" stop-color="#BF5AF2" stop-opacity="0"/>
</linearGradient>
<linearGradient id="g4" x1="0" y1="0" x2="0" y2="1">
  <stop offset="0%" stop-color="#34C759" stop-opacity="0.25"/>
  <stop offset="100%" stop-color="#34C759" stop-opacity="0"/>
</linearGradient>
  <clipPath id="ca"><rect x="72" y="45" width="698" height="295"/></clipPath>
</defs>
<rect width="800" height="400" fill="#ffffff" rx="12"/>
<text x="400" y="26" text-anchor="middle" font-size="15" font-weight="600" fill="#111827">Community Growth Over Time</text>
<line x1="72" y1="340.0" x2="770" y2="340.0" stroke="#f3f4f6" stroke-width="1"/>
<text x="66" y="344.0" text-anchor="end" font-size="11" fill="#6b7280">500</text>
<line x1="72" y1="241.7" x2="770" y2="241.7" stroke="#f3f4f6" stroke-width="1"/>
<text x="66" y="245.7" text-anchor="end" font-size="11" fill="#6b7280">1.0k</text>
<line x1="72" y1="143.3" x2="770" y2="143.3" stroke="#f3f4f6" stroke-width="1"/>
<text x="66" y="147.3" text-anchor="end" font-size="11" fill="#6b7280">1.5k</text>
<line x1="72" y1="45.0" x2="770" y2="45.0" stroke="#f3f4f6" stroke-width="1"/>
<text x="66" y="49.0" text-anchor="end" font-size="11" fill="#6b7280">2.0k</text>
<line x1="154.9" y1="45" x2="154.9" y2="340" stroke="#e5e7eb" stroke-width="1" stroke-dasharray="3,3" clip-path="url(#ca)"/>
<line x1="334.6" y1="45" x2="334.6" y2="340" stroke="#e5e7eb" stroke-width="1" stroke-dasharray="3,3" clip-path="url(#ca)"/>
<line x1="521.2" y1="45" x2="521.2" y2="340" stroke="#e5e7eb" stroke-width="1" stroke-dasharray="3,3" clip-path="url(#ca)"/>
<line x1="707.8" y1="45" x2="707.8" y2="340" stroke="#e5e7eb" stroke-width="1" stroke-dasharray="3,3" clip-path="url(#ca)"/>
<text x="72.0" y="358.0" text-anchor="middle" font-size="11" fill="#6b7280">Dec 11</text>
<text x="210.2" y="358.0" text-anchor="middle" font-size="11" fill="#6b7280">Jan 13</text>
<text x="348.4" y="358.0" text-anchor="middle" font-size="11" fill="#6b7280">Feb 3</text>
<text x="493.6" y="358.0" text-anchor="middle" font-size="11" fill="#6b7280">Feb 25</text>
<text x="631.8" y="358.0" text-anchor="middle" font-size="11" fill="#6b7280">Mar 18</text>
<text x="770.0" y="358.0" text-anchor="middle" font-size="11" fill="#6b7280">Apr 11</text>
<line x1="72" y1="45" x2="72" y2="340" stroke="#e5e7eb" stroke-width="1"/>
<line x1="72" y1="340" x2="770" y2="340" stroke="#e5e7eb" stroke-width="1"/>
<text x="-192.5" y="18" text-anchor="middle" font-size="12" fill="#6b7280" transform="rotate(-90)">People</text>
<path d="M 72.0,340 L 72.0,120.1 L 78.9,120.1 L 85.8,120.1 L 92.7,119.5 L 99.6,119.5 L 106.6,119.1 L 113.5,118.9 L 120.4,119.1 L 127.3,118.6 L 134.2,118.6 L 141.1,118.6 L 148.0,118.6 L 154.9,118.6 L 161.8,118.6 L 168.8,118.6 L 175.7,118.6 L 182.6,118.4 L 189.5,117.8 L 196.4,116.6 L 203.3,116.0 L 210.2,115.8 L 217.1,115.8 L 224.0,115.2 L 231.0,113.8 L 237.9,113.0 L 244.8,113.0 L 251.7,112.1 L 258.6,111.7 L 265.5,110.9 L 272.4,110.3 L 279.3,109.7 L 286.2,109.1 L 293.1,109.1 L 300.1,107.7 L 307.0,106.9 L 313.9,106.9 L 320.8,106.2 L 327.7,105.8 L 334.6,105.6 L 341.5,105.4 L 348.4,105.4 L 355.3,104.8 L 362.3,102.4 L 369.2,101.0 L 376.1,100.3 L 383.0,100.1 L 389.9,99.7 L 396.8,98.9 L 403.7,98.5 L 410.6,98.1 L 417.5,97.7 L 424.5,97.3 L 431.4,96.9 L 438.3,96.9 L 445.2,95.0 L 452.1,95.0 L 459.0,94.8 L 465.9,94.6 L 472.8,94.2 L 479.7,94.2 L 486.7,93.2 L 493.6,92.0 L 500.5,91.6 L 507.4,92.0 L 514.3,91.8 L 521.2,91.6 L 528.1,91.6 L 535.0,91.2 L 541.9,90.4 L 548.9,90.0 L 555.8,89.6 L 562.7,89.4 L 569.6,89.4 L 576.5,88.7 L 583.4,88.3 L 590.3,88.3 L 597.2,86.7 L 604.1,86.7 L 611.0,86.7 L 618.0,86.7 L 624.9,86.5 L 631.8,85.9 L 638.7,85.1 L 645.6,84.7 L 652.5,84.7 L 659.4,84.3 L 666.3,82.8 L 673.2,81.8 L 680.2,81.6 L 687.1,81.4 L 694.0,80.8 L 700.9,79.6 L 707.8,79.2 L 714.7,78.8 L 721.6,77.6 L 728.5,77.4 L 735.4,77.4 L 742.4,77.4 L 749.3,77.3 L 756.2,76.1 L 763.1,75.9 L 770.0,75.7 L 770.0,340 Z" fill="url(#g2)" clip-path="url(#ca)"/>
<path d="M 72.0,120.1 L 78.9,120.1 L 85.8,120.1 L 92.7,119.5 L 99.6,119.5 L 106.6,119.1 L 113.5,118.9 L 120.4,119.1 L 127.3,118.6 L 134.2,118.6 L 141.1,118.6 L 148.0,118.6 L 154.9,118.6 L 161.8,118.6 L 168.8,118.6 L 175.7,118.6 L 182.6,118.4 L 189.5,117.8 L 196.4,116.6 L 203.3,116.0 L 210.2,115.8 L 217.1,115.8 L 224.0,115.2 L 231.0,113.8 L 237.9,113.0 L 244.8,113.0 L 251.7,112.1 L 258.6,111.7 L 265.5,110.9 L 272.4,110.3 L 279.3,109.7 L 286.2,109.1 L 293.1,109.1 L 300.1,107.7 L 307.0,106.9 L 313.9,106.9 L 320.8,106.2 L 327.7,105.8 L 334.6,105.6 L 341.5,105.4 L 348.4,105.4 L 355.3,104.8 L 362.3,102.4 L 369.2,101.0 L 376.1,100.3 L 383.0,100.1 L 389.9,99.7 L 396.8,98.9 L 403.7,98.5 L 410.6,98.1 L 417.5,97.7 L 424.5,97.3 L 431.4,96.9 L 438.3,96.9 L 445.2,95.0 L 452.1,95.0 L 459.0,94.8 L 465.9,94.6 L 472.8,94.2 L 479.7,94.2 L 486.7,93.2 L 493.6,92.0 L 500.5,91.6 L 507.4,92.0 L 514.3,91.8 L 521.2,91.6 L 528.1,91.6 L 535.0,91.2 L 541.9,90.4 L 548.9,90.0 L 555.8,89.6 L 562.7,89.4 L 569.6,89.4 L 576.5,88.7 L 583.4,88.3 L 590.3,88.3 L 597.2,86.7 L 604.1,86.7 L 611.0,86.7 L 618.0,86.7 L 624.9,86.5 L 631.8,85.9 L 638.7,85.1 L 645.6,84.7 L 652.5,84.7 L 659.4,84.3 L 666.3,82.8 L 673.2,81.8 L 680.2,81.6 L 687.1,81.4 L 694.0,80.8 L 700.9,79.6 L 707.8,79.2 L 714.7,78.8 L 721.6,77.6 L 728.5,77.4 L 735.4,77.4 L 742.4,77.4 L 749.3,77.3 L 756.2,76.1 L 763.1,75.9 L 770.0,75.7" fill="none" stroke="#4F8EF7" stroke-width="2.5" stroke-linejoin="round" clip-path="url(#ca)"/>
<path d="M 72.0,340 L 72.0,244.2 L 78.9,243.6 L 85.8,243.6 L 92.7,243.6 L 99.6,243.4 L 106.6,243.0 L 113.5,242.8 L 120.4,242.6 L 127.3,242.6 L 134.2,242.5 L 141.1,242.3 L 148.0,242.3 L 154.9,242.3 L 161.8,242.3 L 168.8,242.3 L 175.7,242.3 L 182.6,241.9 L 189.5,241.9 L 196.4,241.9 L 203.3,241.1 L 210.2,240.9 L 217.1,240.5 L 224.0,239.7 L 231.0,239.5 L 237.9,239.5 L 244.8,239.5 L 251.7,238.9 L 258.6,238.5 L 265.5,238.5 L 272.4,238.1 L 279.3,237.9 L 286.2,237.5 L 293.1,237.5 L 300.1,237.3 L 307.0,236.6 L 313.9,236.0 L 320.8,235.6 L 327.7,235.4 L 334.6,235.4 L 341.5,235.2 L 348.4,234.8 L 355.3,234.8 L 362.3,234.6 L 369.2,234.0 L 376.1,233.6 L 383.0,233.6 L 389.9,233.6 L 396.8,233.6 L 403.7,233.4 L 410.6,232.8 L 417.5,232.4 L 424.5,232.2 L 431.4,232.0 L 438.3,231.8 L 445.2,231.6 L 452.1,231.4 L 459.0,231.2 L 465.9,230.7 L 472.8,230.5 L 479.7,230.3 L 486.7,229.5 L 493.6,228.7 L 500.5,228.7 L 507.4,228.5 L 514.3,228.3 L 521.2,228.3 L 528.1,228.3 L 535.0,227.9 L 541.9,227.9 L 548.9,226.7 L 555.8,226.5 L 562.7,226.3 L 569.6,226.3 L 576.5,225.9 L 583.4,225.7 L 590.3,225.7 L 597.2,225.5 L 604.1,225.5 L 611.0,225.5 L 618.0,225.1 L 624.9,224.9 L 631.8,224.0 L 638.7,224.2 L 645.6,224.0 L 652.5,223.8 L 659.4,223.8 L 666.3,223.6 L 673.2,223.0 L 680.2,223.0 L 687.1,223.0 L 694.0,223.0 L 700.9,222.6 L 707.8,222.6 L 714.7,222.2 L 721.6,221.8 L 728.5,221.0 L 735.4,221.0 L 742.4,220.6 L 749.3,220.4 L 756.2,220.2 L 763.1,220.0 L 770.0,219.6 L 770.0,340 Z" fill="url(#g3)" clip-path="url(#ca)"/>
<path d="M 72.0,244.2 L 78.9,243.6 L 85.8,243.6 L 92.7,243.6 L 99.6,243.4 L 106.6,243.0 L 113.5,242.8 L 120.4,242.6 L 127.3,242.6 L 134.2,242.5 L 141.1,242.3 L 148.0,242.3 L 154.9,242.3 L 161.8,242.3 L 168.8,242.3 L 175.7,242.3 L 182.6,241.9 L 189.5,241.9 L 196.4,241.9 L 203.3,241.1 L 210.2,240.9 L 217.1,240.5 L 224.0,239.7 L 231.0,239.5 L 237.9,239.5 L 244.8,239.5 L 251.7,238.9 L 258.6,238.5 L 265.5,238.5 L 272.4,238.1 L 279.3,237.9 L 286.2,237.5 L 293.1,237.5 L 300.1,237.3 L 307.0,236.6 L 313.9,236.0 L 320.8,235.6 L 327.7,235.4 L 334.6,235.4 L 341.5,235.2 L 348.4,234.8 L 355.3,234.8 L 362.3,234.6 L 369.2,234.0 L 376.1,233.6 L 383.0,233.6 L 389.9,233.6 L 396.8,233.6 L 403.7,233.4 L 410.6,232.8 L 417.5,232.4 L 424.5,232.2 L 431.4,232.0 L 438.3,231.8 L 445.2,231.6 L 452.1,231.4 L 459.0,231.2 L 465.9,230.7 L 472.8,230.5 L 479.7,230.3 L 486.7,229.5 L 493.6,228.7 L 500.5,228.7 L 507.4,228.5 L 514.3,228.3 L 521.2,228.3 L 528.1,228.3 L 535.0,227.9 L 541.9,227.9 L 548.9,226.7 L 555.8,226.5 L 562.7,226.3 L 569.6,226.3 L 576.5,225.9 L 583.4,225.7 L 590.3,225.7 L 597.2,225.5 L 604.1,225.5 L 611.0,225.5 L 618.0,225.1 L 624.9,224.9 L 631.8,224.0 L 638.7,224.2 L 645.6,224.0 L 652.5,223.8 L 659.4,223.8 L 666.3,223.6 L 673.2,223.0 L 680.2,223.0 L 687.1,223.0 L 694.0,223.0 L 700.9,222.6 L 707.8,222.6 L 714.7,222.2 L 721.6,221.8 L 728.5,221.0 L 735.4,221.0 L 742.4,220.6 L 749.3,220.4 L 756.2,220.2 L 763.1,220.0 L 770.0,219.6" fill="none" stroke="#BF5AF2" stroke-width="2.5" stroke-linejoin="round" clip-path="url(#ca)"/>
<path d="M 72.0,340 L 72.0,291.4 L 78.9,290.8 L 85.8,290.8 L 92.7,290.8 L 99.6,290.6 L 106.6,290.2 L 113.5,290.0 L 120.4,289.7 L 127.3,289.7 L 134.2,289.5 L 141.1,289.3 L 148.0,289.3 L 154.9,289.3 L 161.8,289.3 L 168.8,289.3 L 175.7,289.3 L 182.6,288.9 L 189.5,288.9 L 196.4,289.1 L 203.3,288.5 L 210.2,288.7 L 217.1,288.1 L 224.0,287.5 L 231.0,287.3 L 237.9,287.5 L 244.8,287.5 L 251.7,286.9 L 258.6,286.7 L 265.5,286.7 L 272.4,286.3 L 279.3,286.1 L 286.2,285.7 L 293.1,285.7 L 300.1,285.5 L 307.0,284.9 L 313.9,284.3 L 320.8,283.9 L 327.7,283.9 L 334.6,283.9 L 341.5,283.8 L 348.4,283.4 L 355.3,283.4 L 362.3,283.2 L 369.2,282.6 L 376.1,282.4 L 383.0,282.4 L 389.9,282.4 L 396.8,282.4 L 403.7,282.2 L 410.6,281.6 L 417.5,281.4 L 424.5,281.2 L 431.4,281.0 L 438.3,281.0 L 445.2,280.8 L 452.1,280.8 L 459.0,280.8 L 465.9,280.2 L 472.8,280.2 L 479.7,280.2 L 486.7,279.8 L 493.6,279.2 L 500.5,279.2 L 507.4,279.0 L 514.3,278.8 L 521.2,278.8 L 528.1,278.8 L 535.0,278.4 L 541.9,278.4 L 548.9,277.3 L 555.8,277.1 L 562.7,276.9 L 569.6,276.9 L 576.5,276.7 L 583.4,276.7 L 590.3,276.7 L 597.2,276.7 L 604.1,276.7 L 611.0,276.7 L 618.0,276.3 L 624.9,276.1 L 631.8,275.1 L 638.7,275.3 L 645.6,275.3 L 652.5,275.1 L 659.4,275.1 L 666.3,275.1 L 673.2,274.7 L 680.2,274.7 L 687.1,274.7 L 694.0,274.7 L 700.9,274.7 L 707.8,274.7 L 714.7,274.5 L 721.6,274.5 L 728.5,273.7 L 735.4,273.7 L 742.4,273.5 L 749.3,273.3 L 756.2,273.1 L 763.1,272.9 L 770.0,272.5 L 770.0,340 Z" fill="url(#g4)" clip-path="url(#ca)"/>
<path d="M 72.0,291.4 L 78.9,290.8 L 85.8,290.8 L 92.7,290.8 L 99.6,290.6 L 106.6,290.2 L 113.5,290.0 L 120.4,289.7 L 127.3,289.7 L 134.2,289.5 L 141.1,289.3 L 148.0,289.3 L 154.9,289.3 L 161.8,289.3 L 168.8,289.3 L 175.7,289.3 L 182.6,288.9 L 189.5,288.9 L 196.4,289.1 L 203.3,288.5 L 210.2,288.7 L 217.1,288.1 L 224.0,287.5 L 231.0,287.3 L 237.9,287.5 L 244.8,287.5 L 251.7,286.9 L 258.6,286.7 L 265.5,286.7 L 272.4,286.3 L 279.3,286.1 L 286.2,285.7 L 293.1,285.7 L 300.1,285.5 L 307.0,284.9 L 313.9,284.3 L 320.8,283.9 L 327.7,283.9 L 334.6,283.9 L 341.5,283.8 L 348.4,283.4 L 355.3,283.4 L 362.3,283.2 L 369.2,282.6 L 376.1,282.4 L 383.0,282.4 L 389.9,282.4 L 396.8,282.4 L 403.7,282.2 L 410.6,281.6 L 417.5,281.4 L 424.5,281.2 L 431.4,281.0 L 438.3,281.0 L 445.2,280.8 L 452.1,280.8 L 459.0,280.8 L 465.9,280.2 L 472.8,280.2 L 479.7,280.2 L 486.7,279.8 L 493.6,279.2 L 500.5,279.2 L 507.4,279.0 L 514.3,278.8 L 521.2,278.8 L 528.1,278.8 L 535.0,278.4 L 541.9,278.4 L 548.9,277.3 L 555.8,277.1 L 562.7,276.9 L 569.6,276.9 L 576.5,276.7 L 583.4,276.7 L 590.3,276.7 L 597.2,276.7 L 604.1,276.7 L 611.0,276.7 L 618.0,276.3 L 624.9,276.1 L 631.8,275.1 L 638.7,275.3 L 645.6,275.3 L 652.5,275.1 L 659.4,275.1 L 666.3,275.1 L 673.2,274.7 L 680.2,274.7 L 687.1,274.7 L 694.0,274.7 L 700.9,274.7 L 707.8,274.7 L 714.7,274.5 L 721.6,274.5 L 728.5,273.7 L 735.4,273.7 L 742.4,273.5 L 749.3,273.3 L 756.2,273.1 L 763.1,272.9 L 770.0,272.5" fill="none" stroke="#34C759" stroke-width="2.5" stroke-linejoin="round" clip-path="url(#ca)"/>
<text x="110.0" y="55.0" text-anchor="middle" font-size="9" fill="#4F8EF7" opacity="0.85" clip-path="url(#ca)">+0.5% (+8)</text>
<text x="110.0" y="66.0" text-anchor="middle" font-size="9" fill="#BF5AF2" opacity="0.85" clip-path="url(#ca)">+1.0% (+10)</text>
<text x="110.0" y="77.0" text-anchor="middle" font-size="9" fill="#34C759" opacity="0.85" clip-path="url(#ca)">+1.5% (+11)</text>
<text x="241.3" y="55.0" text-anchor="middle" font-size="9" fill="#4F8EF7" opacity="0.85" clip-path="url(#ca)">+4.0% (+65)</text>
<text x="241.3" y="66.0" text-anchor="middle" font-size="9" fill="#BF5AF2" opacity="0.85" clip-path="url(#ca)">+3.5% (+35)</text>
<text x="241.3" y="77.0" text-anchor="middle" font-size="9" fill="#34C759" opacity="0.85" clip-path="url(#ca)">+3.6% (+27)</text>
<text x="424.5" y="55.0" text-anchor="middle" font-size="9" fill="#4F8EF7" opacity="0.85" clip-path="url(#ca)">+4.1% (+70)</text>
<text x="424.5" y="66.0" text-anchor="middle" font-size="9" fill="#BF5AF2" opacity="0.85" clip-path="url(#ca)">+3.5% (+36)</text>
<text x="424.5" y="77.0" text-anchor="middle" font-size="9" fill="#34C759" opacity="0.85" clip-path="url(#ca)">+3.3% (+26)</text>
<text x="611.0" y="55.0" text-anchor="middle" font-size="9" fill="#4F8EF7" opacity="0.85" clip-path="url(#ca)">+3.5% (+61)</text>
<text x="611.0" y="66.0" text-anchor="middle" font-size="9" fill="#BF5AF2" opacity="0.85" clip-path="url(#ca)">+2.7% (+29)</text>
<text x="611.0" y="77.0" text-anchor="middle" font-size="9" fill="#34C759" opacity="0.85" clip-path="url(#ca)">+2.6% (+21)</text>
<text x="738.9" y="55.0" text-anchor="middle" font-size="9" fill="#4F8EF7" opacity="0.85" clip-path="url(#ca)">+1.0% (+18)</text>
<text x="738.9" y="66.0" text-anchor="middle" font-size="9" fill="#BF5AF2" opacity="0.85" clip-path="url(#ca)">+1.4% (+15)</text>
<text x="738.9" y="77.0" text-anchor="middle" font-size="9" fill="#34C759" opacity="0.85" clip-path="url(#ca)">+1.3% (+11)</text>
<rect x="211" y="369" width="12" height="12" fill="#4F8EF7" rx="2"/>
<text x="227" y="379" font-size="12" fill="#111827">Authors</text>
<rect x="351" y="369" width="12" height="12" fill="#BF5AF2" rx="2"/>
<text x="367" y="379" font-size="12" fill="#111827">Contributors</text>
<rect x="491" y="369" width="12" height="12" fill="#34C759" rx="2"/>
<text x="507" y="379" font-size="12" fill="#111827">Non-author contributors</text>
<text x="72" y="394" font-size="8" fill="#e5e7eb">data since Dec 11, 2025</text>
</svg>