<svg xmlns="http://www.w3.org/2000/svg" width="800" height="400" viewBox="0 0 800 400">
<defs>
  <style>text { font-family: -apple-system, BlinkMacSystemFont, 'Segoe UI', Roboto, sans-serif; }</style>
  <linearGradient id="g2" x1="0" y1="0" x2="0" y2="1">
  <stop offset="0%" stop-color="#4F8EF7" stop-opacity="0.25"/>
  <stop offset="100%" stop-color="#4F8EF7" stop-opacity="0"/>
</linearGradient>
<linearGradient id="g3" x1="0" y1="0" x2="0" y2="1">
  <stop offset="0%" stop-color="#BF5AF2" stop-opacity="0.25"/>
  <stop offset="100%" stop-color="#BF5AF2" stop-opacity="0"/>
</linearGradient>
<linearGradient id="g4" x1="0" y1="0" x2="0" y2="1">
  <stop offset="0%" stop-color="#34C759" stop-opacity="0.25"/>
  <stop offset="100%" stop-color="#34C759" stop-opacity="0"/>
</linearGradient>
  <clipPath id="ca"><rect x="72" y="45" width="698" height="295"/></clipPath>
</defs>
<rect width="800" height="400" fill="#ffffff" rx="12"/>
<text x="400" y="26" text-anchor="middle" font-size="15" font-weight="600" fill="#111827">Community Growth Over Time</text>
<line x1="72" y1="340.0" x2="770" y2="340.0" stroke="#f3f4f6" stroke-width="1"/>
<text x="66" y="344.0" text-anchor="end" font-size="11" fill="#6b7280">500</text>
<line x1="72" y1="241.7" x2="770" y2="241.7" stroke="#f3f4f6" stroke-width="1"/>
<text x="66" y="245.7" text-anchor="end" font-size="11" fill="#6b7280">1.0k</text>
<line x1="72" y1="143.3" x2="770" y2="143.3" stroke="#f3f4f6" stroke-width="1"/>
<text x="66" y="147.3" text-anchor="end" font-size="11" fill="#6b7280">1.5k</text>
<line x1="72" y1="45.0" x2="770" y2="45.0" stroke="#f3f4f6" stroke-width="1"/>
<text x="66" y="49.0" text-anchor="end" font-size="11" fill="#6b7280">2.0k</text>
<line x1="121.6" y1="45" x2="121.6" y2="340" stroke="#e5e7eb" stroke-width="1" stroke-dasharray="3,3" clip-path="url(#ca)"/>
<line x1="228.9" y1="45" x2="228.9" y2="340" stroke="#e5e7eb" stroke-width="1" stroke-dasharray="3,3" clip-path="url(#ca)"/>
<line x1="340.5" y1="45" x2="340.5" y2="340" stroke="#e5e7eb" stroke-width="1" stroke-dasharray="3,3" clip-path="url(#ca)"/>
<line x1="452.0" y1="45" x2="452.0" y2="340" stroke="#e5e7eb" stroke-width="1" stroke-dasharray="3,3" clip-path="url(#ca)"/>
<line x1="563.5" y1="45" x2="563.5" y2="340" stroke="#e5e7eb" stroke-width="1" stroke-dasharray="3,3" clip-path="url(#ca)"/>
<line x1="670.9" y1="45" x2="670.9" y2="340" stroke="#e5e7eb" stroke-width="1" stroke-dasharray="3,3" clip-path="url(#ca)"/>
<line x1="770.0" y1="45" x2="770.0" y2="340" stroke="#e5e7eb" stroke-width="1" stroke-dasharray="3,3" clip-path="url(#ca)"/>
<text x="72.0" y="358.0" text-anchor="middle" font-size="11" fill="#6b7280">Dec 11</text>
<text x="212.4" y="358.0" text-anchor="middle" font-size="11" fill="#6b7280">Jan 28</text>
<text x="352.9" y="358.0" text-anchor="middle" font-size="11" fill="#6b7280">Mar 4</text>
<text x="489.1" y="358.0" text-anchor="middle" font-size="11" fill="#6b7280">Apr 11</text>
<text x="629.6" y="358.0" text-anchor="middle" font-size="11" fill="#6b7280">May 22</text>
<text x="770.0" y="358.0" text-anchor="middle" font-size="11" fill="#6b7280">Jul 1</text>
<line x1="72" y1="45" x2="72" y2="340" stroke="#e5e7eb" stroke-width="1"/>
<line x1="72" y1="340" x2="770" y2="340" stroke="#e5e7eb" stroke-width="1"/>
<text x="-192.5" y="18" text-anchor="middle" font-size="12" fill="#6b7280" transform="rotate(-90)">People</text>
<path d="M 72.0,340 L 72.0,120.1 L 76.1,120.1 L 80.3,120.1 L 84.4,119.5 L 88.5,119.5 L 92.7,119.1 L 96.8,118.9 L 100.9,119.1 L 105.0,118.6 L 109.2,118.6 L 113.3,118.6 L 117.4,118.6 L 121.6,118.6 L 125.7,118.6 L 129.8,118.6 L 134.0,118.6 L 138.1,118.4 L 142.2,117.8 L 146.3,116.6 L 150.5,116.0 L 154.6,115.8 L 158.7,115.8 L 162.9,115.2 L 167.0,113.8 L 171.1,113.0 L 175.3,113.0 L 179.4,112.1 L 183.5,111.7 L 187.6,110.9 L 191.8,110.3 L 195.9,109.7 L 200.0,109.1 L 204.2,109.1 L 208.3,107.7 L 212.4,106.9 L 216.6,106.9 L 220.7,106.2 L 224.8,105.8 L 228.9,105.6 L 233.1,105.4 L 237.2,105.4 L 241.3,104.8 L 245.5,102.4 L 249.6,101.0 L 253.7,100.3 L 257.9,100.1 L 262.0,99.7 L 266.1,98.9 L 270.2,98.5 L 274.4,98.1 L 278.5,97.7 L 282.6,97.3 L 286.8,96.9 L 290.9,96.9 L 295.0,95.0 L 299.2,95.0 L 303.3,94.8 L 307.4,94.6 L 311.6,94.2 L 315.7,94.2 L 319.8,93.2 L 323.9,92.0 L 328.1,91.6 L 332.2,92.0 L 336.3,91.8 L 340.5,91.6 L 344.6,91.6 L 348.7,91.2 L 352.9,90.4 L 357.0,90.0 L 361.1,89.6 L 365.2,89.4 L 369.4,89.4 L 373.5,88.7 L 377.6,88.3 L 381.8,88.3 L 385.9,86.7 L 390.0,86.7 L 394.2,86.7 L 398.3,86.7 L 402.4,86.5 L 406.5,85.9 L 410.7,85.1 L 414.8,84.7 L 418.9,84.7 L 423.1,84.3 L 427.2,82.8 L 431.3,81.8 L 435.5,81.6 L 439.6,81.4 L 443.7,80.8 L 447.8,79.6 L 452.0,79.2 L 456.1,78.8 L 460.2,77.6 L 464.4,77.4 L 468.5,77.4 L 472.6,77.4 L 476.8,77.3 L 480.9,76.1 L 485.0,75.9 L 489.1,75.7 L 493.3,75.7 L 497.4,75.3 L 501.5,73.7 L 505.7,73.5 L 509.8,73.3 L 513.9,73.3 L 518.1,72.5 L 522.2,72.3 L 526.3,72.1 L 530.4,71.6 L 534.6,70.8 L 538.7,70.8 L 542.8,70.8 L 547.0,70.8 L 551.1,70.4 L 555.2,69.8 L 559.4,69.6 L 563.5,69.0 L 567.6,68.8 L 571.8,68.6 L 575.9,67.8 L 580.0,67.2 L 584.1,67.0 L 588.3,67.0 L 592.4,65.3 L 596.5,64.7 L 600.7,64.5 L 604.8,64.5 L 608.9,63.5 L 613.1,63.5 L 617.2,62.9 L 621.3,62.3 L 625.4,60.9 L 629.6,60.7 L 633.7,60.5 L 637.8,60.3 L 642.0,60.3 L 646.1,60.1 L 650.2,59.2 L 654.4,58.6 L 658.5,58.6 L 662.6,58.4 L 666.7,58.4 L 670.9,57.8 L 675.0,57.6 L 679.1,57.4 L 683.3,56.8 L 687.4,56.0 L 691.5,56.0 L 695.7,55.8 L 699.8,55.6 L 703.9,54.6 L 708.0,53.3 L 712.2,53.1 L 716.3,52.7 L 720.4,52.3 L 724.6,52.1 L 728.7,51.5 L 732.8,50.7 L 737.0,50.5 L 741.1,49.9 L 745.2,49.5 L 749.3,48.5 L 753.5,48.3 L 757.6,47.9 L 761.7,47.9 L 765.9,47.6 L 770.0,47.2 L 770.0,340 Z" fill="url(#g2)" clip-path="url(#ca)"/>
<path d="M 72.0,120.1 L 76.1,120.1 L 80.3,120.1 L 84.4,119.5 L 88.5,119.5 L 92.7,119.1 L 96.8,118.9 L 100.9,119.1 L 105.0,118.6 L 109.2,118.6 L 113.3,118.6 L 117.4,118.6 L 121.6,118.6 L 125.7,118.6 L 129.8,118.6 L 134.0,118.6 L 138.1,118.4 L 142.2,117.8 L 146.3,116.6 L 150.5,116.0 L 154.6,115.8 L 158.7,115.8 L 162.9,115.2 L 167.0,113.8 L 171.1,113.0 L 175.3,113.0 L 179.4,112.1 L 183.5,111.7 L 187.6,110.9 L 191.8,110.3 L 195.9,109.7 L 200.0,109.1 L 204.2,109.1 L 208.3,107.7 L 212.4,106.9 L 216.6,106.9 L 220.7,106.2 L 224.8,105.8 L 228.9,105.6 L 233.1,105.4 L 237.2,105.4 L 241.3,104.8 L 245.5,102.4 L 249.6,101.0 L 253.7,100.3 L 257.9,100.1 L 262.0,99.7 L 266.1,98.9 L 270.2,98.5 L 274.4,98.1 L 278.5,97.7 L 282.6,97.3 L 286.8,96.9 L 290.9,96.9 L 295.0,95.0 L 299.2,95.0 L 303.3,94.8 L 307.4,94.6 L 311.6,94.2 L 315.7,94.2 L 319.8,93.2 L 323.9,92.0 L 328.1,91.6 L 332.2,92.0 L 336.3,91.8 L 340.5,91.6 L 344.6,91.6 L 348.7,91.2 L 352.9,90.4 L 357.0,90.0 L 361.1,89.6 L 365.2,89.4 L 369.4,89.4 L 373.5,88.7 L 377.6,88.3 L 381.8,88.3 L 385.9,86.7 L 390.0,86.7 L 394.2,86.7 L 398.3,86.7 L 402.4,86.5 L 406.5,85.9 L 410.7,85.1 L 414.8,84.7 L 418.9,84.7 L 423.1,84.3 L 427.2,82.8 L 431.3,81.8 L 435.5,81.6 L 439.6,81.4 L 443.7,80.8 L 447.8,79.6 L 452.0,79.2 L 456.1,78.8 L 460.2,77.6 L 464.4,77.4 L 468.5,77.4 L 472.6,77.4 L 476.8,77.3 L 480.9,76.1 L 485.0,75.9 L 489.1,75.7 L 493.3,75.7 L 497.4,75.3 L 501.5,73.7 L 505.7,73.5 L 509.8,73.3 L 513.9,73.3 L 518.1,72.5 L 522.2,72.3 L 526.3,72.1 L 530.4,71.6 L 534.6,70.8 L 538.7,70.8 L 542.8,70.8 L 547.0,70.8 L 551.1,70.4 L 555.2,69.8 L 559.4,69.6 L 563.5,69.0 L 567.6,68.8 L 571.8,68.6 L 575.9,67.8 L 580.0,67.2 L 584.1,67.0 L 588.3,67.0 L 592.4,65.3 L 596.5,64.7 L 600.7,64.5 L 604.8,64.5 L 608.9,63.5 L 613.1,63.5 L 617.2,62.9 L 621.3,62.3 L 625.4,60.9 L 629.6,60.7 L 633.7,60.5 L 637.8,60.3 L 642.0,60.3 L 646.1,60.1 L 650.2,59.2 L 654.4,58.6 L 658.5,58.6 L 662.6,58.4 L 666.7,58.4 L 670.9,57.8 L 675.0,57.6 L 679.1,57.4 L 683.3,56.8 L 687.4,56.0 L 691.5,56.0 L 695.7,55.8 L 699.8,55.6 L 703.9,54.6 L 708.0,53.3 L 712.2,53.1 L 716.3,52.7 L 720.4,52.3 L 724.6,52.1 L 728.7,51.5 L 732.8,50.7 L 737.0,50.5 L 741.1,49.9 L 745.2,49.5 L 749.3,48.5 L 753.5,48.3 L 757.6,47.9 L 761.7,47.9 L 765.9,47.6 L 770.0,47.2" fill="none" stroke="#4F8EF7" stroke-width="2.5" stroke-linejoin="round" clip-path="url(#ca)"/>
<path d="M 72.0,340 L 72.0,244.2 L 76.1,243.6 L 80.3,243.6 L 84.4,243.6 L 88.5,243.4 L 92.7,243.0 L 96.8,242.8 L 100.9,242.6 L 105.0,242.6 L 109.2,242.5 L 113.3,242.3 L 117.4,242.3 L 121.6,242.3 L 125.7,242.3 L 129.8,242.3 L 134.0,242.3 L 138.1,241.9 L 142.2,241.9 L 146.3,241.9 L 150.5,241.1 L 154.6,240.9 L 158.7,240.5 L 162.9,239.7 L 167.0,239.5 L 171.1,239.5 L 175.3,239.5 L 179.4,238.9 L 183.5,238.5 L 187.6,238.5 L 191.8,238.1 L 195.9,237.9 L 200.0,237.5 L 204.2,237.5 L 208.3,237.3 L 212.4,236.6 L 216.6,236.0 L 220.7,235.6 L 224.8,235.4 L 228.9,235.4 L 233.1,235.2 L 237.2,234.8 L 241.3,234.8 L 245.5,234.6 L 249.6,234.0 L 253.7,233.6 L 257.9,233.6 L 262.0,233.6 L 266.1,233.6 L 270.2,233.4 L 274.4,232.8 L 278.5,232.4 L 282.6,232.2 L 286.8,232.0 L 290.9,231.8 L 295.0,231.6 L 299.2,231.4 L 303.3,231.2 L 307.4,230.7 L 311.6,230.5 L 315.7,230.3 L 319.8,229.5 L 323.9,228.7 L 328.1,228.7 L 332.2,228.5 L 336.3,228.3 L 340.5,228.3 L 344.6,228.3 L 348.7,227.9 L 352.9,227.9 L 357.0,226.7 L 361.1,226.5 L 365.2,226.3 L 369.4,226.3 L 373.5,225.9 L 377.6,225.7 L 381.8,225.7 L 385.9,225.5 L 390.0,225.5 L 394.2,225.5 L 398.3,225.1 L 402.4,224.9 L 406.5,224.0 L 410.7,224.2 L 414.8,224.0 L 418.9,223.8 L 423.1,223.8 L 427.2,223.6 L 431.3,223.0 L 435.5,223.0 L 439.6,223.0 L 443.7,223.0 L 447.8,222.6 L 452.0,222.6 L 456.1,222.2 L 460.2,221.8 L 464.4,221.0 L 468.5,221.0 L 472.6,220.6 L 476.8,220.4 L 480.9,220.2 L 485.0,220.0 L 489.1,219.6 L 493.3,219.6 L 497.4,219.1 L 501.5,219.1 L 505.7,218.9 L 509.8,218.5 L 513.9,218.3 L 518.1,218.3 L 522.2,218.3 L 526.3,218.3 L 530.4,218.3 L 534.6,217.7 L 538.7,217.7 L 542.8,217.3 L 547.0,216.9 L 551.1,216.3 L 555.2,216.1 L 559.4,216.1 L 563.5,214.9 L 567.6,214.7 L 571.8,214.7 L 575.9,213.9 L 580.0,213.9 L 584.1,213.5 L 588.3,213.5 L 592.4,213.3 L 596.5,213.3 L 600.7,213.2 L 604.8,212.8 L 608.9,212.8 L 613.1,212.6 L 617.2,212.4 L 621.3,212.2 L 625.4,212.0 L 629.6,212.0 L 633.7,211.6 L 637.8,211.6 L 642.0,211.6 L 646.1,210.6 L 650.2,210.6 L 654.4,210.6 L 658.5,210.6 L 662.6,210.6 L 666.7,210.6 L 670.9,210.2 L 675.0,210.2 L 679.1,209.8 L 683.3,209.0 L 687.4,208.6 L 691.5,208.4 L 695.7,208.4 L 699.8,208.2 L 703.9,207.6 L 708.0,207.4 L 712.2,207.4 L 716.3,207.1 L 720.4,206.5 L 724.6,206.1 L 728.7,206.1 L 732.8,205.9 L 737.0,205.9 L 741.1,205.3 L 745.2,205.1 L 749.3,205.1 L 753.5,204.7 L 757.6,204.7 L 761.7,204.3 L 765.9,203.7 L 770.0,203.7 L 770.0,340 Z" fill="url(#g3)" clip-path="url(#ca)"/>
<path d="M 72.0,244.2 L 76.1,243.6 L 80.3,243.6 L 84.4,243.6 L 88.5,243.4 L 92.7,243.0 L 96.8,242.8 L 100.9,242.6 L 105.0,242.6 L 109.2,242.5 L 113.3,242.3 L 117.4,242.3 L 121.6,242.3 L 125.7,242.3 L 129.8,242.3 L 134.0,242.3 L 138.1,241.9 L 142.2,241.9 L 146.3,241.9 L 150.5,241.1 L 154.6,240.9 L 158.7,240.5 L 162.9,239.7 L 167.0,239.5 L 171.1,239.5 L 175.3,239.5 L 179.4,238.9 L 183.5,238.5 L 187.6,238.5 L 191.8,238.1 L 195.9,237.9 L 200.0,237.5 L 204.2,237.5 L 208.3,237.3 L 212.4,236.6 L 216.6,236.0 L 220.7,235.6 L 224.8,235.4 L 228.9,235.4 L 233.1,235.2 L 237.2,234.8 L 241.3,234.8 L 245.5,234.6 L 249.6,234.0 L 253.7,233.6 L 257.9,233.6 L 262.0,233.6 L 266.1,233.6 L 270.2,233.4 L 274.4,232.8 L 278.5,232.4 L 282.6,232.2 L 286.8,232.0 L 290.9,231.8 L 295.0,231.6 L 299.2,231.4 L 303.3,231.2 L 307.4,230.7 L 311.6,230.5 L 315.7,230.3 L 319.8,229.5 L 323.9,228.7 L 328.1,228.7 L 332.2,228.5 L 336.3,228.3 L 340.5,228.3 L 344.6,228.3 L 348.7,227.9 L 352.9,227.9 L 357.0,226.7 L 361.1,226.5 L 365.2,226.3 L 369.4,226.3 L 373.5,225.9 L 377.6,225.7 L 381.8,225.7 L 385.9,225.5 L 390.0,225.5 L 394.2,225.5 L 398.3,225.1 L 402.4,224.9 L 406.5,224.0 L 410.7,224.2 L 414.8,224.0 L 418.9,223.8 L 423.1,223.8 L 427.2,223.6 L 431.3,223.0 L 435.5,223.0 L 439.6,223.0 L 443.7,223.0 L 447.8,222.6 L 452.0,222.6 L 456.1,222.2 L 460.2,221.8 L 464.4,221.0 L 468.5,221.0 L 472.6,220.6 L 476.8,220.4 L 480.9,220.2 L 485.0,220.0 L 489.1,219.6 L 493.3,219.6 L 497.4,219.1 L 501.5,219.1 L 505.7,218.9 L 509.8,218.5 L 513.9,218.3 L 518.1,218.3 L 522.2,218.3 L 526.3,218.3 L 530.4,218.3 L 534.6,217.7 L 538.7,217.7 L 542.8,217.3 L 547.0,216.9 L 551.1,216.3 L 555.2,216.1 L 559.4,216.1 L 563.5,214.9 L 567.6,214.7 L 571.8,214.7 L 575.9,213.9 L 580.0,213.9 L 584.1,213.5 L 588.3,213.5 L 592.4,213.3 L 596.5,213.3 L 600.7,213.2 L 604.8,212.8 L 608.9,212.8 L 613.1,212.6 L 617.2,212.4 L 621.3,212.2 L 625.4,212.0 L 629.6,212.0 L 633.7,211.6 L 637.8,211.6 L 642.0,211.6 L 646.1,210.6 L 650.2,210.6 L 654.4,210.6 L 658.5,210.6 L 662.6,210.6 L 666.7,210.6 L 670.9,210.2 L 675.0,210.2 L 679.1,209.8 L 683.3,209.0 L 687.4,208.6 L 691.5,208.4 L 695.7,208.4 L 699.8,208.2 L 703.9,207.6 L 708.0,207.4 L 712.2,207.4 L 716.3,207.1 L 720.4,206.5 L 724.6,206.1 L 728.7,206.1 L 732.8,205.9 L 737.0,205.9 L 741.1,205.3 L 745.2,205.1 L 749.3,205.1 L 753.5,204.7 L 757.6,204.7 L 761.7,204.3 L 765.9,203.7 L 770.0,203.7" fill="none" stroke="#BF5AF2" stroke-width="2.5" stroke-linejoin="round" clip-path="url(#ca)"/>
<path d="M 72.0,340 L 72.0,291.4 L 76.1,290.8 L 80.3,290.8 L 84.4,290.8 L 88.5,290.6 L 92.7,290.2 L 96.8,290.0 L 100.9,289.7 L 105.0,289.7 L 109.2,289.5 L 113.3,289.3 L 117.4,289.3 L 121.6,289.3 L 125.7,289.3 L 129.8,289.3 L 134.0,289.3 L 138.1,288.9 L 142.2,288.9 L 146.3,289.1 L 150.5,288.5 L 154.6,288.7 L 158.7,288.1 L 162.9,287.5 L 167.0,287.3 L 171.1,287.5 L 175.3,287.5 L 179.4,286.9 L 183.5,286.7 L 187.6,286.7 L 191.8,286.3 L 195.9,286.1 L 200.0,285.7 L 204.2,285.7 L 208.3,285.5 L 212.4,284.9 L 216.6,284.3 L 220.7,283.9 L 224.8,283.9 L 228.9,283.9 L 233.1,283.8 L 237.2,283.4 L 241.3,283.4 L 245.5,283.2 L 249.6,282.6 L 253.7,282.4 L 257.9,282.4 L 262.0,282.4 L 266.1,282.4 L 270.2,282.2 L 274.4,281.6 L 278.5,281.4 L 282.6,281.2 L 286.8,281.0 L 290.9,281.0 L 295.0,280.8 L 299.2,280.8 L 303.3,280.8 L 307.4,280.2 L 311.6,280.2 L 315.7,280.2 L 319.8,279.8 L 323.9,279.2 L 328.1,279.2 L 332.2,279.0 L 336.3,278.8 L 340.5,278.8 L 344.6,278.8 L 348.7,278.4 L 352.9,278.4 L 357.0,277.3 L 361.1,277.1 L 365.2,276.9 L 369.4,276.9 L 373.5,276.7 L 377.6,276.7 L 381.8,276.7 L 385.9,276.7 L 390.0,276.7 L 394.2,276.7 L 398.3,276.3 L 402.4,276.1 L 406.5,275.1 L 410.7,275.3 L 414.8,275.3 L 418.9,275.1 L 423.1,275.1 L 427.2,275.1 L 431.3,274.7 L 435.5,274.7 L 439.6,274.7 L 443.7,274.7 L 447.8,274.7 L 452.0,274.7 L 456.1,274.5 L 460.2,274.5 L 464.4,273.7 L 468.5,273.7 L 472.6,273.5 L 476.8,273.3 L 480.9,273.1 L 485.0,272.9 L 489.1,272.5 L 493.3,272.5 L 497.4,272.0 L 501.5,272.0 L 505.7,271.8 L 509.8,271.6 L 513.9,271.6 L 518.1,271.6 L 522.2,271.6 L 526.3,271.6 L 530.4,271.6 L 534.6,271.0 L 538.7,271.0 L 542.8,270.6 L 547.0,270.2 L 551.1,269.6 L 555.2,269.4 L 559.4,269.4 L 563.5,268.4 L 567.6,268.2 L 571.8,268.2 L 575.9,267.6 L 580.0,267.6 L 584.1,267.4 L 588.3,267.4 L 592.4,267.6 L 596.5,267.8 L 600.7,267.6 L 604.8,267.2 L 608.9,267.4 L 613.1,267.2 L 617.2,267.0 L 621.3,267.0 L 625.4,267.0 L 629.6,267.0 L 633.7,266.6 L 637.8,266.6 L 642.0,266.6 L 646.1,265.9 L 650.2,265.9 L 654.4,265.9 L 658.5,265.9 L 662.6,265.9 L 666.7,265.9 L 670.9,265.5 L 675.0,265.5 L 679.1,265.1 L 683.3,264.3 L 687.4,264.1 L 691.5,264.1 L 695.7,264.1 L 699.8,264.1 L 703.9,263.7 L 708.0,263.5 L 712.2,263.5 L 716.3,263.3 L 720.4,262.7 L 724.6,262.3 L 728.7,262.3 L 732.8,262.1 L 737.0,262.1 L 741.1,261.9 L 745.2,261.7 L 749.3,261.7 L 753.5,261.5 L 757.6,261.5 L 761.7,261.1 L 765.9,260.5 L 770.0,260.5 L 770.0,340 Z" fill="url(#g4)" clip-path="url(#ca)"/>
<path d="M 72.0,291.4 L 76.1,290.8 L 80.3,290.8 L 84.4,290.8 L 88.5,290.6 L 92.7,290.2 L 96.8,290.0 L 100.9,289.7 L 105.0,289.7 L 109.2,289.5 L 113.3,289.3 L 117.4,289.3 L 121.6,289.3 L 125.7,289.3 L 129.8,289.3 L 134.0,289.3 L 138.1,288.9 L 142.2,288.9 L 146.3,289.1 L 150.5,288.5 L 154.6,288.7 L 158.7,288.1 L 162.9,287.5 L 167.0,287.3 L 171.1,287.5 L 175.3,287.5 L 179.4,286.9 L 183.5,286.7 L 187.6,286.7 L 191.8,286.3 L 195.9,286.1 L 200.0,285.7 L 204.2,285.7 L 208.3,285.5 L 212.4,284.9 L 216.6,284.3 L 220.7,283.9 L 224.8,283.9 L 228.9,283.9 L 233.1,283.8 L 237.2,283.4 L 241.3,283.4 L 245.5,283.2 L 249.6,282.6 L 253.7,282.4 L 257.9,282.4 L 262.0,282.4 L 266.1,282.4 L 270.2,282.2 L 274.4,281.6 L 278.5,281.4 L 282.6,281.2 L 286.8,281.0 L 290.9,281.0 L 295.0,280.8 L 299.2,280.8 L 303.3,280.8 L 307.4,280.2 L 311.6,280.2 L 315.7,280.2 L 319.8,279.8 L 323.9,279.2 L 328.1,279.2 L 332.2,279.0 L 336.3,278.8 L 340.5,278.8 L 344.6,278.8 L 348.7,278.4 L 352.9,278.4 L 357.0,277.3 L 361.1,277.1 L 365.2,276.9 L 369.4,276.9 L 373.5,276.7 L 377.6,276.7 L 381.8,276.7 L 385.9,276.7 L 390.0,276.7 L 394.2,276.7 L 398.3,276.3 L 402.4,276.1 L 406.5,275.1 L 410.7,275.3 L 414.8,275.3 L 418.9,275.1 L 423.1,275.1 L 427.2,275.1 L 431.3,274.7 L 435.5,274.7 L 439.6,274.7 L 443.7,274.7 L 447.8,274.7 L 452.0,274.7 L 456.1,274.5 L 460.2,274.5 L 464.4,273.7 L 468.5,273.7 L 472.6,273.5 L 476.8,273.3 L 480.9,273.1 L 485.0,272.9 L 489.1,272.5 L 493.3,272.5 L 497.4,272.0 L 501.5,272.0 L 505.7,271.8 L 509.8,271.6 L 513.9,271.6 L 518.1,271.6 L 522.2,271.6 L 526.3,271.6 L 530.4,271.6 L 534.6,271.0 L 538.7,271.0 L 542.8,270.6 L 547.0,270.2 L 551.1,269.6 L 555.2,269.4 L 559.4,269.4 L 563.5,268.4 L 567.6,268.2 L 571.8,268.2 L 575.9,267.6 L 580.0,267.6 L 584.1,267.4 L 588.3,267.4 L 592.4,267.6 L 596.5,267.8 L 600.7,267.6 L 604.8,267.2 L 608.9,267.4 L 613.1,267.2 L 617.2,267.0 L 621.3,267.0 L 625.4,267.0 L 629.6,267.0 L 633.7,266.6 L 637.8,266.6 L 642.0,266.6 L 646.1,265.9 L 650.2,265.9 L 654.4,265.9 L 658.5,265.9 L 662.6,265.9 L 666.7,265.9 L 670.9,265.5 L 675.0,265.5 L 679.1,265.1 L 683.3,264.3 L 687.4,264.1 L 691.5,264.1 L 695.7,264.1 L 699.8,264.1 L 703.9,263.7 L 708.0,263.5 L 712.2,263.5 L 716.3,263.3 L 720.4,262.7 L 724.6,262.3 L 728.7,262.3 L 732.8,262.1 L 737.0,262.1 L 741.1,261.9 L 745.2,261.7 L 749.3,261.7 L 753.5,261.5 L 757.6,261.5 L 761.7,261.1 L 765.9,260.5 L 770.0,260.5" fill="none" stroke="#34C759" stroke-width="2.5" stroke-linejoin="round" clip-path="url(#ca)"/>
<text x="94.7" y="55.0" text-anchor="middle" font-size="9" fill="#4F8EF7" opacity="0.85" clip-path="url(#ca)">+0.5% (+8)</text>
<text x="94.7" y="66.0" text-anchor="middle" font-size="9" fill="#BF5AF2" opacity="0.85" clip-path="url(#ca)">+1.0% (+10)</text>
<text x="94.7" y="77.0" text-anchor="middle" font-size="9" fill="#34C759" opacity="0.85" clip-path="url(#ca)">+1.5% (+11)</text>
<text x="173.2" y="55.0" text-anchor="middle" font-size="9" fill="#4F8EF7" opacity="0.85" clip-path="url(#ca)">+4.0% (+65)</text>
<text x="173.2" y="66.0" text-anchor="middle" font-size="9" fill="#BF5AF2" opacity="0.85" clip-path="url(#ca)">+3.5% (+35)</text>
<text x="173.2" y="77.0" text-anchor="middle" font-size="9" fill="#34C759" opacity="0.85" clip-path="url(#ca)">+3.6% (+27)</text>
<text x="282.6" y="55.0" text-anchor="middle" font-size="9" fill="#4F8EF7" opacity="0.85" clip-path="url(#ca)">+4.1% (+70)</text>
<text x="282.6" y="66.0" text-anchor="middle" font-size="9" fill="#BF5AF2" opacity="0.85" clip-path="url(#ca)">+3.5% (+36)</text>
<text x="282.6" y="77.0" text-anchor="middle" font-size="9" fill="#34C759" opacity="0.85" clip-path="url(#ca)">+3.3% (+26)</text>
<text x="394.2" y="55.0" text-anchor="middle" font-size="9" fill="#4F8EF7" opacity="0.85" clip-path="url(#ca)">+3.5% (+61)</text>
<text x="394.2" y="66.0" text-anchor="middle" font-size="9" fill="#BF5AF2" opacity="0.85" clip-path="url(#ca)">+2.7% (+29)</text>
<text x="394.2" y="77.0" text-anchor="middle" font-size="9" fill="#34C759" opacity="0.85" clip-path="url(#ca)">+2.6% (+21)</text>
<text x="505.7" y="55.0" text-anchor="middle" font-size="9" fill="#4F8EF7" opacity="0.85" clip-path="url(#ca)">+2.7% (+49)</text>
<text x="505.7" y="66.0" text-anchor="middle" font-size="9" fill="#BF5AF2" opacity="0.85" clip-path="url(#ca)">+3.0% (+33)</text>
<text x="505.7" y="77.0" text-anchor="middle" font-size="9" fill="#34C759" opacity="0.85" clip-path="url(#ca)">+3.2% (+27)</text>
<text x="615.1" y="55.0" text-anchor="middle" font-size="9" fill="#4F8EF7" opacity="0.85" clip-path="url(#ca)">+2.9% (+54)</text>
<text x="615.1" y="66.0" text-anchor="middle" font-size="9" fill="#BF5AF2" opacity="0.85" clip-path="url(#ca)">+1.9% (+22)</text>
<text x="615.1" y="77.0" text-anchor="middle" font-size="9" fill="#34C759" opacity="0.85" clip-path="url(#ca)">+1.5% (+13)</text>
<text x="718.4" y="55.0" text-anchor="middle" font-size="9" fill="#4F8EF7" opacity="0.85" clip-path="url(#ca)">+2.7% (+52)</text>
<text x="718.4" y="66.0" text-anchor="middle" font-size="9" fill="#BF5AF2" opacity="0.85" clip-path="url(#ca)">+2.8% (+33)</text>
<text x="718.4" y="77.0" text-anchor="middle" font-size="9" fill="#34C759" opacity="0.85" clip-path="url(#ca)">+2.8% (+25)</text>
<text x="770.0" y="55.0" text-anchor="middle" font-size="9" fill="#4F8EF7" opacity="0.85" clip-path="url(#ca)">+0.0% (+0)</text>
<text x="770.0" y="66.0" text-anchor="middle" font-size="9" fill="#BF5AF2" opacity="0.85" clip-path="url(#ca)">+0.0% (+0)</text>
<text x="770.0" y="77.0" text-anchor="middle" font-size="9" fill="#34C759" opacity="0.85" clip-path="url(#ca)">+0.0% (+0)</text>
<rect x="211" y="369" width="12" height="12" fill="#4F8EF7" rx="2"/>
<text x="227" y="379" font-size="12" fill="#111827">Authors</text>
<rect x="351" y="369" width="12" height="12" fill="#BF5AF2" rx="2"/>
<text x="367" y="379" font-size="12" fill="#111827">Contributors</text>
<rect x="491" y="369" width="12" height="12" fill="#34C759" rx="2"/>
<text x="507" y="379" font-size="12" fill="#111827">Non-author contributors</text>
<text x="72" y="394" font-size="8" fill="#e5e7eb">data since Dec 11, 2025</text>
</svg>