<svg xmlns="http://www.w3.org/2000/svg" width="800" height="400" viewBox="0 0 800 400">
<defs>
  <style>text { font-family: -apple-system, BlinkMacSystemFont, 'Segoe UI', Roboto, sans-serif; }</style>
  <linearGradient id="g2" x1="0" y1="0" x2="0" y2="1">
  <stop offset="0%" stop-color="#4F8EF7" stop-opacity="0.25"/>
  <stop offset="100%" stop-color="#4F8EF7" stop-opacity="0"/>
</linearGradient>
<linearGradient id="g3" x1="0" y1="0" x2="0" y2="1">
  <stop offset="0%" stop-color="#BF5AF2" stop-opacity="0.25"/>
  <stop offset="100%" stop-color="#BF5AF2" stop-opacity="0"/>
</linearGradient>
<linearGradient id="g4" x1="0" y1="0" x2="0" y2="1">
  <stop offset="0%" stop-color="#34C759" stop-opacity="0.25"/>
  <stop offset="100%" stop-color="#34C759" stop-opacity="0"/>
</linearGradient>
  <clipPath id="ca"><rect x="72" y="45" width="698" height="295"/></clipPath>
</defs>
<rect width="800" height="400" fill="#ffffff" rx="12"/>
<text x="400" y="26" text-anchor="middle" font-size="15" font-weight="600" fill="#111827">Community Growth Over Time</text>
<line x1="72" y1="340.0" x2="770" y2="340.0" stroke="#f3f4f6" stroke-width="1"/>
<text x="66" y="344.0" text-anchor="end" font-size="11" fill="#6b7280">500</text>
<line x1="72" y1="241.7" x2="770" y2="241.7" stroke="#f3f4f6" stroke-width="1"/>
<text x="66" y="245.7" text-anchor="end" font-size="11" fill="#6b7280">1.0k</text>
<line x1="72" y1="143.3" x2="770" y2="143.3" stroke="#f3f4f6" stroke-width="1"/>
<text x="66" y="147.3" text-anchor="end" font-size="11" fill="#6b7280">1.5k</text>
<line x1="72" y1="45.0" x2="770" y2="45.0" stroke="#f3f4f6" stroke-width="1"/>
<text x="66" y="49.0" text-anchor="end" font-size="11" fill="#6b7280">2.0k</text>
<line x1="134.5" y1="45" x2="134.5" y2="340" stroke="#e5e7eb" stroke-width="1" stroke-dasharray="3,3" clip-path="url(#ca)"/>
<line x1="269.9" y1="45" x2="269.9" y2="340" stroke="#e5e7eb" stroke-width="1" stroke-dasharray="3,3" clip-path="url(#ca)"/>
<line x1="410.6" y1="45" x2="410.6" y2="340" stroke="#e5e7eb" stroke-width="1" stroke-dasharray="3,3" clip-path="url(#ca)"/>
<line x1="551.2" y1="45" x2="551.2" y2="340" stroke="#e5e7eb" stroke-width="1" stroke-dasharray="3,3" clip-path="url(#ca)"/>
<line x1="691.9" y1="45" x2="691.9" y2="340" stroke="#e5e7eb" stroke-width="1" stroke-dasharray="3,3" clip-path="url(#ca)"/>
<text x="72.0" y="358.0" text-anchor="middle" font-size="11" fill="#6b7280">Dec 11</text>
<text x="212.6" y="358.0" text-anchor="middle" font-size="11" fill="#6b7280">Jan 21</text>
<text x="353.3" y="358.0" text-anchor="middle" font-size="11" fill="#6b7280">Feb 17</text>
<text x="488.7" y="358.0" text-anchor="middle" font-size="11" fill="#6b7280">Mar 17</text>
<text x="629.4" y="358.0" text-anchor="middle" font-size="11" fill="#6b7280">Apr 17</text>
<text x="770.0" y="358.0" text-anchor="middle" font-size="11" fill="#6b7280">May 21</text>
<line x1="72" y1="45" x2="72" y2="340" stroke="#e5e7eb" stroke-width="1"/>
<line x1="72" y1="340" x2="770" y2="340" stroke="#e5e7eb" stroke-width="1"/>
<text x="-192.5" y="18" text-anchor="middle" font-size="12" fill="#6b7280" transform="rotate(-90)">People</text>
<path d="M 72.0,340 L 72.0,120.1 L 77.2,120.1 L 82.4,120.1 L 87.6,119.5 L 92.8,119.5 L 98.0,119.1 L 103.3,118.9 L 108.5,119.1 L 113.7,118.6 L 118.9,118.6 L 124.1,118.6 L 129.3,118.6 L 134.5,118.6 L 139.7,118.6 L 144.9,118.6 L 150.1,118.6 L 155.3,118.4 L 160.6,117.8 L 165.8,116.6 L 171.0,116.0 L 176.2,115.8 L 181.4,115.8 L 186.6,115.2 L 191.8,113.8 L 197.0,113.0 L 202.2,113.0 L 207.4,112.1 L 212.6,111.7 L 217.9,110.9 L 223.1,110.3 L 228.3,109.7 L 233.5,109.1 L 238.7,109.1 L 243.9,107.7 L 249.1,106.9 L 254.3,106.9 L 259.5,106.2 L 264.7,105.8 L 269.9,105.6 L 275.1,105.4 L 280.4,105.4 L 285.6,104.8 L 290.8,102.4 L 296.0,101.0 L 301.2,100.3 L 306.4,100.1 L 311.6,99.7 L 316.8,98.9 L 322.0,98.5 L 327.2,98.1 L 332.4,97.7 L 337.7,97.3 L 342.9,96.9 L 348.1,96.9 L 353.3,95.0 L 358.5,95.0 L 363.7,94.8 L 368.9,94.6 L 374.1,94.2 L 379.3,94.2 L 384.5,93.2 L 389.7,92.0 L 395.0,91.6 L 400.2,92.0 L 405.4,91.8 L 410.6,91.6 L 415.8,91.6 L 421.0,91.2 L 426.2,90.4 L 431.4,90.0 L 436.6,89.6 L 441.8,89.4 L 447.0,89.4 L 452.3,88.7 L 457.5,88.3 L 462.7,88.3 L 467.9,86.7 L 473.1,86.7 L 478.3,86.7 L 483.5,86.7 L 488.7,86.5 L 493.9,85.9 L 499.1,85.1 L 504.3,84.7 L 509.6,84.7 L 514.8,84.3 L 520.0,82.8 L 525.2,81.8 L 530.4,81.6 L 535.6,81.4 L 540.8,80.8 L 546.0,79.6 L 551.2,79.2 L 556.4,78.8 L 561.6,77.6 L 566.9,77.4 L 572.1,77.4 L 577.3,77.4 L 582.5,77.3 L 587.7,76.1 L 592.9,75.9 L 598.1,75.7 L 603.3,75.7 L 608.5,75.3 L 613.7,73.7 L 618.9,73.5 L 624.1,73.3 L 629.4,73.3 L 634.6,72.5 L 639.8,72.3 L 645.0,72.1 L 650.2,71.6 L 655.4,70.8 L 660.6,70.8 L 665.8,70.8 L 671.0,70.8 L 676.2,70.4 L 681.4,69.8 L 686.7,69.6 L 691.9,69.0 L 697.1,68.8 L 702.3,68.6 L 707.5,67.8 L 712.7,67.2 L 717.9,67.0 L 723.1,67.0 L 728.3,65.3 L 733.5,64.7 L 738.7,64.5 L 744.0,64.5 L 749.2,63.5 L 754.4,63.5 L 759.6,62.9 L 764.8,62.3 L 770.0,60.9 L 770.0,340 Z" fill="url(#g2)" clip-path="url(#ca)"/>
<path d="M 72.0,120.1 L 77.2,120.1 L 82.4,120.1 L 87.6,119.5 L 92.8,119.5 L 98.0,119.1 L 103.3,118.9 L 108.5,119.1 L 113.7,118.6 L 118.9,118.6 L 124.1,118.6 L 129.3,118.6 L 134.5,118.6 L 139.7,118.6 L 144.9,118.6 L 150.1,118.6 L 155.3,118.4 L 160.6,117.8 L 165.8,116.6 L 171.0,116.0 L 176.2,115.8 L 181.4,115.8 L 186.6,115.2 L 191.8,113.8 L 197.0,113.0 L 202.2,113.0 L 207.4,112.1 L 212.6,111.7 L 217.9,110.9 L 223.1,110.3 L 228.3,109.7 L 233.5,109.1 L 238.7,109.1 L 243.9,107.7 L 249.1,106.9 L 254.3,106.9 L 259.5,106.2 L 264.7,105.8 L 269.9,105.6 L 275.1,105.4 L 280.4,105.4 L 285.6,104.8 L 290.8,102.4 L 296.0,101.0 L 301.2,100.3 L 306.4,100.1 L 311.6,99.7 L 316.8,98.9 L 322.0,98.5 L 327.2,98.1 L 332.4,97.7 L 337.7,97.3 L 342.9,96.9 L 348.1,96.9 L 353.3,95.0 L 358.5,95.0 L 363.7,94.8 L 368.9,94.6 L 374.1,94.2 L 379.3,94.2 L 384.5,93.2 L 389.7,92.0 L 395.0,91.6 L 400.2,92.0 L 405.4,91.8 L 410.6,91.6 L 415.8,91.6 L 421.0,91.2 L 426.2,90.4 L 431.4,90.0 L 436.6,89.6 L 441.8,89.4 L 447.0,89.4 L 452.3,88.7 L 457.5,88.3 L 462.7,88.3 L 467.9,86.7 L 473.1,86.7 L 478.3,86.7 L 483.5,86.7 L 488.7,86.5 L 493.9,85.9 L 499.1,85.1 L 504.3,84.7 L 509.6,84.7 L 514.8,84.3 L 520.0,82.8 L 525.2,81.8 L 530.4,81.6 L 535.6,81.4 L 540.8,80.8 L 546.0,79.6 L 551.2,79.2 L 556.4,78.8 L 561.6,77.6 L 566.9,77.4 L 572.1,77.4 L 577.3,77.4 L 582.5,77.3 L 587.7,76.1 L 592.9,75.9 L 598.1,75.7 L 603.3,75.7 L 608.5,75.3 L 613.7,73.7 L 618.9,73.5 L 624.1,73.3 L 629.4,73.3 L 634.6,72.5 L 639.8,72.3 L 645.0,72.1 L 650.2,71.6 L 655.4,70.8 L 660.6,70.8 L 665.8,70.8 L 671.0,70.8 L 676.2,70.4 L 681.4,69.8 L 686.7,69.6 L 691.9,69.0 L 697.1,68.8 L 702.3,68.6 L 707.5,67.8 L 712.7,67.2 L 717.9,67.0 L 723.1,67.0 L 728.3,65.3 L 733.5,64.7 L 738.7,64.5 L 744.0,64.5 L 749.2,63.5 L 754.4,63.5 L 759.6,62.9 L 764.8,62.3 L 770.0,60.9" fill="none" stroke="#4F8EF7" stroke-width="2.5" stroke-linejoin="round" clip-path="url(#ca)"/>
<path d="M 72.0,340 L 72.0,244.2 L 77.2,243.6 L 82.4,243.6 L 87.6,243.6 L 92.8,243.4 L 98.0,243.0 L 103.3,242.8 L 108.5,242.6 L 113.7,242.6 L 118.9,242.5 L 124.1,242.3 L 129.3,242.3 L 134.5,242.3 L 139.7,242.3 L 144.9,242.3 L 150.1,242.3 L 155.3,241.9 L 160.6,241.9 L 165.8,241.9 L 171.0,241.1 L 176.2,240.9 L 181.4,240.5 L 186.6,239.7 L 191.8,239.5 L 197.0,239.5 L 202.2,239.5 L 207.4,238.9 L 212.6,238.5 L 217.9,238.5 L 223.1,238.1 L 228.3,237.9 L 233.5,237.5 L 238.7,237.5 L 243.9,237.3 L 249.1,236.6 L 254.3,236.0 L 259.5,235.6 L 264.7,235.4 L 269.9,235.4 L 275.1,235.2 L 280.4,234.8 L 285.6,234.8 L 290.8,234.6 L 296.0,234.0 L 301.2,233.6 L 306.4,233.6 L 311.6,233.6 L 316.8,233.6 L 322.0,233.4 L 327.2,232.8 L 332.4,232.4 L 337.7,232.2 L 342.9,232.0 L 348.1,231.8 L 353.3,231.6 L 358.5,231.4 L 363.7,231.2 L 368.9,230.7 L 374.1,230.5 L 379.3,230.3 L 384.5,229.5 L 389.7,228.7 L 395.0,228.7 L 400.2,228.5 L 405.4,228.3 L 410.6,228.3 L 415.8,228.3 L 421.0,227.9 L 426.2,227.9 L 431.4,226.7 L 436.6,226.5 L 441.8,226.3 L 447.0,226.3 L 452.3,225.9 L 457.5,225.7 L 462.7,225.7 L 467.9,225.5 L 473.1,225.5 L 478.3,225.5 L 483.5,225.1 L 488.7,224.9 L 493.9,224.0 L 499.1,224.2 L 504.3,224.0 L 509.6,223.8 L 514.8,223.8 L 520.0,223.6 L 525.2,223.0 L 530.4,223.0 L 535.6,223.0 L 540.8,223.0 L 546.0,222.6 L 551.2,222.6 L 556.4,222.2 L 561.6,221.8 L 566.9,221.0 L 572.1,221.0 L 577.3,220.6 L 582.5,220.4 L 587.7,220.2 L 592.9,220.0 L 598.1,219.6 L 603.3,219.6 L 608.5,219.1 L 613.7,219.1 L 618.9,218.9 L 624.1,218.5 L 629.4,218.3 L 634.6,218.3 L 639.8,218.3 L 645.0,218.3 L 650.2,218.3 L 655.4,217.7 L 660.6,217.7 L 665.8,217.3 L 671.0,216.9 L 676.2,216.3 L 681.4,216.1 L 686.7,216.1 L 691.9,214.9 L 697.1,214.7 L 702.3,214.7 L 707.5,213.9 L 712.7,213.9 L 717.9,213.5 L 723.1,213.5 L 728.3,213.3 L 733.5,213.3 L 738.7,213.2 L 744.0,212.8 L 749.2,212.8 L 754.4,212.6 L 759.6,212.4 L 764.8,212.2 L 770.0,212.0 L 770.0,340 Z" fill="url(#g3)" clip-path="url(#ca)"/>
<path d="M 72.0,244.2 L 77.2,243.6 L 82.4,243.6 L 87.6,243.6 L 92.8,243.4 L 98.0,243.0 L 103.3,242.8 L 108.5,242.6 L 113.7,242.6 L 118.9,242.5 L 124.1,242.3 L 129.3,242.3 L 134.5,242.3 L 139.7,242.3 L 144.9,242.3 L 150.1,242.3 L 155.3,241.9 L 160.6,241.9 L 165.8,241.9 L 171.0,241.1 L 176.2,240.9 L 181.4,240.5 L 186.6,239.7 L 191.8,239.5 L 197.0,239.5 L 202.2,239.5 L 207.4,238.9 L 212.6,238.5 L 217.9,238.5 L 223.1,238.1 L 228.3,237.9 L 233.5,237.5 L 238.7,237.5 L 243.9,237.3 L 249.1,236.6 L 254.3,236.0 L 259.5,235.6 L 264.7,235.4 L 269.9,235.4 L 275.1,235.2 L 280.4,234.8 L 285.6,234.8 L 290.8,234.6 L 296.0,234.0 L 301.2,233.6 L 306.4,233.6 L 311.6,233.6 L 316.8,233.6 L 322.0,233.4 L 327.2,232.8 L 332.4,232.4 L 337.7,232.2 L 342.9,232.0 L 348.1,231.8 L 353.3,231.6 L 358.5,231.4 L 363.7,231.2 L 368.9,230.7 L 374.1,230.5 L 379.3,230.3 L 384.5,229.5 L 389.7,228.7 L 395.0,228.7 L 400.2,228.5 L 405.4,228.3 L 410.6,228.3 L 415.8,228.3 L 421.0,227.9 L 426.2,227.9 L 431.4,226.7 L 436.6,226.5 L 441.8,226.3 L 447.0,226.3 L 452.3,225.9 L 457.5,225.7 L 462.7,225.7 L 467.9,225.5 L 473.1,225.5 L 478.3,225.5 L 483.5,225.1 L 488.7,224.9 L 493.9,224.0 L 499.1,224.2 L 504.3,224.0 L 509.6,223.8 L 514.8,223.8 L 520.0,223.6 L 525.2,223.0 L 530.4,223.0 L 535.6,223.0 L 540.8,223.0 L 546.0,222.6 L 551.2,222.6 L 556.4,222.2 L 561.6,221.8 L 566.9,221.0 L 572.1,221.0 L 577.3,220.6 L 582.5,220.4 L 587.7,220.2 L 592.9,220.0 L 598.1,219.6 L 603.3,219.6 L 608.5,219.1 L 613.7,219.1 L 618.9,218.9 L 624.1,218.5 L 629.4,218.3 L 634.6,218.3 L 639.8,218.3 L 645.0,218.3 L 650.2,218.3 L 655.4,217.7 L 660.6,217.7 L 665.8,217.3 L 671.0,216.9 L 676.2,216.3 L 681.4,216.1 L 686.7,216.1 L 691.9,214.9 L 697.1,214.7 L 702.3,214.7 L 707.5,213.9 L 712.7,213.9 L 717.9,213.5 L 723.1,213.5 L 728.3,213.3 L 733.5,213.3 L 738.7,213.2 L 744.0,212.8 L 749.2,212.8 L 754.4,212.6 L 759.6,212.4 L 764.8,212.2 L 770.0,212.0" fill="none" stroke="#BF5AF2" stroke-width="2.5" stroke-linejoin="round" clip-path="url(#ca)"/>
<path d="M 72.0,340 L 72.0,291.4 L 77.2,290.8 L 82.4,290.8 L 87.6,290.8 L 92.8,290.6 L 98.0,290.2 L 103.3,290.0 L 108.5,289.7 L 113.7,289.7 L 118.9,289.5 L 124.1,289.3 L 129.3,289.3 L 134.5,289.3 L 139.7,289.3 L 144.9,289.3 L 150.1,289.3 L 155.3,288.9 L 160.6,288.9 L 165.8,289.1 L 171.0,288.5 L 176.2,288.7 L 181.4,288.1 L 186.6,287.5 L 191.8,287.3 L 197.0,287.5 L 202.2,287.5 L 207.4,286.9 L 212.6,286.7 L 217.9,286.7 L 223.1,286.3 L 228.3,286.1 L 233.5,285.7 L 238.7,285.7 L 243.9,285.5 L 249.1,284.9 L 254.3,284.3 L 259.5,283.9 L 264.7,283.9 L 269.9,283.9 L 275.1,283.8 L 280.4,283.4 L 285.6,283.4 L 290.8,283.2 L 296.0,282.6 L 301.2,282.4 L 306.4,282.4 L 311.6,282.4 L 316.8,282.4 L 322.0,282.2 L 327.2,281.6 L 332.4,281.4 L 337.7,281.2 L 342.9,281.0 L 348.1,281.0 L 353.3,280.8 L 358.5,280.8 L 363.7,280.8 L 368.9,280.2 L 374.1,280.2 L 379.3,280.2 L 384.5,279.8 L 389.7,279.2 L 395.0,279.2 L 400.2,279.0 L 405.4,278.8 L 410.6,278.8 L 415.8,278.8 L 421.0,278.4 L 426.2,278.4 L 431.4,277.3 L 436.6,277.1 L 441.8,276.9 L 447.0,276.9 L 452.3,276.7 L 457.5,276.7 L 462.7,276.7 L 467.9,276.7 L 473.1,276.7 L 478.3,276.7 L 483.5,276.3 L 488.7,276.1 L 493.9,275.1 L 499.1,275.3 L 504.3,275.3 L 509.6,275.1 L 514.8,275.1 L 520.0,275.1 L 525.2,274.7 L 530.4,274.7 L 535.6,274.7 L 540.8,274.7 L 546.0,274.7 L 551.2,274.7 L 556.4,274.5 L 561.6,274.5 L 566.9,273.7 L 572.1,273.7 L 577.3,273.5 L 582.5,273.3 L 587.7,273.1 L 592.9,272.9 L 598.1,272.5 L 603.3,272.5 L 608.5,272.0 L 613.7,272.0 L 618.9,271.8 L 624.1,271.6 L 629.4,271.6 L 634.6,271.6 L 639.8,271.6 L 645.0,271.6 L 650.2,271.6 L 655.4,271.0 L 660.6,271.0 L 665.8,270.6 L 671.0,270.2 L 676.2,269.6 L 681.4,269.4 L 686.7,269.4 L 691.9,268.4 L 697.1,268.2 L 702.3,268.2 L 707.5,267.6 L 712.7,267.6 L 717.9,267.4 L 723.1,267.4 L 728.3,267.6 L 733.5,267.8 L 738.7,267.6 L 744.0,267.2 L 749.2,267.4 L 754.4,267.2 L 759.6,267.0 L 764.8,267.0 L 770.0,267.0 L 770.0,340 Z" fill="url(#g4)" clip-path="url(#ca)"/>
<path d="M 72.0,291.4 L 77.2,290.8 L 82.4,290.8 L 87.6,290.8 L 92.8,290.6 L 98.0,290.2 L 103.3,290.0 L 108.5,289.7 L 113.7,289.7 L 118.9,289.5 L 124.1,289.3 L 129.3,289.3 L 134.5,289.3 L 139.7,289.3 L 144.9,289.3 L 150.1,289.3 L 155.3,288.9 L 160.6,288.9 L 165.8,289.1 L 171.0,288.5 L 176.2,288.7 L 181.4,288.1 L 186.6,287.5 L 191.8,287.3 L 197.0,287.5 L 202.2,287.5 L 207.4,286.9 L 212.6,286.7 L 217.9,286.7 L 223.1,286.3 L 228.3,286.1 L 233.5,285.7 L 238.7,285.7 L 243.9,285.5 L 249.1,284.9 L 254.3,284.3 L 259.5,283.9 L 264.7,283.9 L 269.9,283.9 L 275.1,283.8 L 280.4,283.4 L 285.6,283.4 L 290.8,283.2 L 296.0,282.6 L 301.2,282.4 L 306.4,282.4 L 311.6,282.4 L 316.8,282.4 L 322.0,282.2 L 327.2,281.6 L 332.4,281.4 L 337.7,281.2 L 342.9,281.0 L 348.1,281.0 L 353.3,280.8 L 358.5,280.8 L 363.7,280.8 L 368.9,280.2 L 374.1,280.2 L 379.3,280.2 L 384.5,279.8 L 389.7,279.2 L 395.0,279.2 L 400.2,279.0 L 405.4,278.8 L 410.6,278.8 L 415.8,278.8 L 421.0,278.4 L 426.2,278.4 L 431.4,277.3 L 436.6,277.1 L 441.8,276.9 L 447.0,276.9 L 452.3,276.7 L 457.5,276.7 L 462.7,276.7 L 467.9,276.7 L 473.1,276.7 L 478.3,276.7 L 483.5,276.3 L 488.7,276.1 L 493.9,275.1 L 499.1,275.3 L 504.3,275.3 L 509.6,275.1 L 514.8,275.1 L 520.0,275.1 L 525.2,274.7 L 530.4,274.7 L 535.6,274.7 L 540.8,274.7 L 546.0,274.7 L 551.2,274.7 L 556.4,274.5 L 561.6,274.5 L 566.9,273.7 L 572.1,273.7 L 577.3,273.5 L 582.5,273.3 L 587.7,273.1 L 592.9,272.9 L 598.1,272.5 L 603.3,272.5 L 608.5,272.0 L 613.7,272.0 L 618.9,271.8 L 624.1,271.6 L 629.4,271.6 L 634.6,271.6 L 639.8,271.6 L 645.0,271.6 L 650.2,271.6 L 655.4,271.0 L 660.6,271.0 L 665.8,270.6 L 671.0,270.2 L 676.2,269.6 L 681.4,269.4 L 686.7,269.4 L 691.9,268.4 L 697.1,268.2 L 702.3,268.2 L 707.5,267.6 L 712.7,267.6 L 717.9,267.4 L 723.1,267.4 L 728.3,267.6 L 733.5,267.8 L 738.7,267.6 L 744.0,267.2 L 749.2,267.4 L 754.4,267.2 L 759.6,267.0 L 764.8,267.0 L 770.0,267.0" fill="none" stroke="#34C759" stroke-width="2.5" stroke-linejoin="round" clip-path="url(#ca)"/>
<text x="100.6" y="55.0" text-anchor="middle" font-size="9" fill="#4F8EF7" opacity="0.85" clip-path="url(#ca)">+0.5% (+8)</text>
<text x="100.6" y="66.0" text-anchor="middle" font-size="9" fill="#BF5AF2" opacity="0.85" clip-path="url(#ca)">+1.0% (+10)</text>
<text x="100.6" y="77.0" text-anchor="middle" font-size="9" fill="#34C759" opacity="0.85" clip-path="url(#ca)">+1.5% (+11)</text>
<text x="199.6" y="55.0" text-anchor="middle" font-size="9" fill="#4F8EF7" opacity="0.85" clip-path="url(#ca)">+4.0% (+65)</text>
<text x="199.6" y="66.0" text-anchor="middle" font-size="9" fill="#BF5AF2" opacity="0.85" clip-path="url(#ca)">+3.5% (+35)</text>
<text x="199.6" y="77.0" text-anchor="middle" font-size="9" fill="#34C759" opacity="0.85" clip-path="url(#ca)">+3.6% (+27)</text>
<text x="337.7" y="55.0" text-anchor="middle" font-size="9" fill="#4F8EF7" opacity="0.85" clip-path="url(#ca)">+4.1% (+70)</text>
<text x="337.7" y="66.0" text-anchor="middle" font-size="9" fill="#BF5AF2" opacity="0.85" clip-path="url(#ca)">+3.5% (+36)</text>
<text x="337.7" y="77.0" text-anchor="middle" font-size="9" fill="#34C759" opacity="0.85" clip-path="url(#ca)">+3.3% (+26)</text>
<text x="478.3" y="55.0" text-anchor="middle" font-size="9" fill="#4F8EF7" opacity="0.85" clip-path="url(#ca)">+3.5% (+61)</text>
<text x="478.3" y="66.0" text-anchor="middle" font-size="9" fill="#BF5AF2" opacity="0.85" clip-path="url(#ca)">+2.7% (+29)</text>
<text x="478.3" y="77.0" text-anchor="middle" font-size="9" fill="#34C759" opacity="0.85" clip-path="url(#ca)">+2.6% (+21)</text>
<text x="618.9" y="55.0" text-anchor="middle" font-size="9" fill="#4F8EF7" opacity="0.85" clip-path="url(#ca)">+2.7% (+49)</text>
<text x="618.9" y="66.0" text-anchor="middle" font-size="9" fill="#BF5AF2" opacity="0.85" clip-path="url(#ca)">+3.0% (+33)</text>
<text x="618.9" y="77.0" text-anchor="middle" font-size="9" fill="#34C759" opacity="0.85" clip-path="url(#ca)">+3.2% (+27)</text>
<text x="730.9" y="55.0" text-anchor="middle" font-size="9" fill="#4F8EF7" opacity="0.85" clip-path="url(#ca)">+2.2% (+41)</text>
<text x="730.9" y="66.0" text-anchor="middle" font-size="9" fill="#BF5AF2" opacity="0.85" clip-path="url(#ca)">+1.3% (+15)</text>
<text x="730.9" y="77.0" text-anchor="middle" font-size="9" fill="#34C759" opacity="0.85" clip-path="url(#ca)">+0.8% (+7)</text>
<rect x="211" y="369" width="12" height="12" fill="#4F8EF7" rx="2"/>
<text x="227" y="379" font-size="12" fill="#111827">Authors</text>
<rect x="351" y="369" width="12" height="12" fill="#BF5AF2" rx="2"/>
<text x="367" y="379" font-size="12" fill="#111827">Contributors</text>
<rect x="491" y="369" width="12" height="12" fill="#34C759" rx="2"/>
<text x="507" y="379" font-size="12" fill="#111827">Non-author contributors</text>
<text x="72" y="394" font-size="8" fill="#e5e7eb">data since Dec 11, 2025</text>
</svg>