<svg xmlns="http://www.w3.org/2000/svg" width="800" height="400" viewBox="0 0 800 400">
<defs>
  <style>text { font-family: -apple-system, BlinkMacSystemFont, 'Segoe UI', Roboto, sans-serif; }</style>
  <linearGradient id="g5" x1="0" y1="0" x2="0" y2="1">
  <stop offset="0%" stop-color="#34C759" stop-opacity="0.25"/>
  <stop offset="100%" stop-color="#34C759" stop-opacity="0"/>
</linearGradient>
<linearGradient id="g6" x1="0" y1="0" x2="0" y2="1">
  <stop offset="0%" stop-color="#4F8EF7" stop-opacity="0.25"/>
  <stop offset="100%" stop-color="#4F8EF7" stop-opacity="0"/>
</linearGradient>
<linearGradient id="g7" x1="0" y1="0" x2="0" y2="1">
  <stop offset="0%" stop-color="#FF6363" stop-opacity="0.25"/>
  <stop offset="100%" stop-color="#FF6363" stop-opacity="0"/>
</linearGradient>
  <clipPath id="ca"><rect x="72" y="45" width="698" height="295"/></clipPath>
</defs>
<rect width="800" height="400" fill="#ffffff" rx="12"/>
<text x="400" y="26" text-anchor="middle" font-size="15" font-weight="600" fill="#111827">Platform Support Over Time</text>
<line x1="72" y1="340.0" x2="770" y2="340.0" stroke="#f3f4f6" stroke-width="1"/>
<text x="66" y="344.0" text-anchor="end" font-size="11" fill="#6b7280">0</text>
<line x1="72" y1="266.3" x2="770" y2="266.3" stroke="#f3f4f6" stroke-width="1"/>
<text x="66" y="270.3" text-anchor="end" font-size="11" fill="#6b7280">200</text>
<line x1="72" y1="192.5" x2="770" y2="192.5" stroke="#f3f4f6" stroke-width="1"/>
<text x="66" y="196.5" text-anchor="end" font-size="11" fill="#6b7280">400</text>
<line x1="72" y1="118.8" x2="770" y2="118.8" stroke="#f3f4f6" stroke-width="1"/>
<text x="66" y="122.8" text-anchor="end" font-size="11" fill="#6b7280">600</text>
<line x1="72" y1="45.0" x2="770" y2="45.0" stroke="#f3f4f6" stroke-width="1"/>
<text x="66" y="49.0" text-anchor="end" font-size="11" fill="#6b7280">800</text>
<line x1="154.9" y1="45" x2="154.9" y2="340" stroke="#e5e7eb" stroke-width="1" stroke-dasharray="3,3" clip-path="url(#ca)"/>
<line x1="334.6" y1="45" x2="334.6" y2="340" stroke="#e5e7eb" stroke-width="1" stroke-dasharray="3,3" clip-path="url(#ca)"/>
<line x1="521.2" y1="45" x2="521.2" y2="340" stroke="#e5e7eb" stroke-width="1" stroke-dasharray="3,3" clip-path="url(#ca)"/>
<line x1="707.8" y1="45" x2="707.8" y2="340" stroke="#e5e7eb" stroke-width="1" stroke-dasharray="3,3" clip-path="url(#ca)"/>
<text x="72.0" y="358.0" text-anchor="middle" font-size="11" fill="#6b7280">Dec 11</text>
<text x="210.2" y="358.0" text-anchor="middle" font-size="11" fill="#6b7280">Jan 13</text>
<text x="348.4" y="358.0" text-anchor="middle" font-size="11" fill="#6b7280">Feb 3</text>
<text x="493.6" y="358.0" text-anchor="middle" font-size="11" fill="#6b7280">Feb 25</text>
<text x="631.8" y="358.0" text-anchor="middle" font-size="11" fill="#6b7280">Mar 18</text>
<text x="770.0" y="358.0" text-anchor="middle" font-size="11" fill="#6b7280">Apr 11</text>
<line x1="72" y1="45" x2="72" y2="340" stroke="#e5e7eb" stroke-width="1"/>
<line x1="72" y1="340" x2="770" y2="340" stroke="#e5e7eb" stroke-width="1"/>
<text x="-192.5" y="18" text-anchor="middle" font-size="12" fill="#6b7280" transform="rotate(-90)">Extensions</text>
<path d="M 72.0,340 L 72.0,218.3 L 78.9,215.0 L 85.8,214.6 L 92.7,213.2 L 99.6,212.4 L 106.6,208.7 L 113.5,206.5 L 120.4,205.4 L 127.3,203.6 L 134.2,201.3 L 141.1,200.2 L 148.0,199.9 L 154.9,198.8 L 161.8,198.0 L 168.8,197.7 L 175.7,196.6 L 182.6,195.4 L 189.5,194.3 L 196.4,193.2 L 203.3,191.8 L 210.2,190.7 L 217.1,189.6 L 224.0,188.4 L 231.0,186.2 L 237.9,185.5 L 244.8,185.5 L 251.7,182.9 L 258.6,182.2 L 265.5,181.4 L 272.4,180.7 L 279.3,178.9 L 286.2,176.3 L 293.1,175.9 L 300.1,175.5 L 307.0,173.3 L 313.9,172.6 L 320.8,170.7 L 327.7,170.4 L 334.6,170.0 L 341.5,169.3 L 348.4,169.3 L 355.3,169.3 L 362.3,164.1 L 369.2,163.7 L 376.1,162.6 L 383.0,162.3 L 389.9,161.9 L 396.8,160.8 L 403.7,160.1 L 410.6,159.3 L 417.5,157.1 L 424.5,157.1 L 431.4,157.1 L 438.3,156.7 L 445.2,153.0 L 452.1,151.9 L 459.0,151.2 L 465.9,150.1 L 472.8,149.4 L 479.7,149.4 L 486.7,147.5 L 493.6,144.9 L 500.5,144.2 L 507.4,143.8 L 514.3,142.7 L 521.2,142.7 L 528.1,142.0 L 535.0,140.9 L 541.9,140.1 L 548.9,138.7 L 555.8,137.2 L 562.7,136.8 L 569.6,136.8 L 576.5,135.3 L 583.4,135.3 L 590.3,135.3 L 597.2,133.1 L 604.1,132.8 L 611.0,132.4 L 618.0,132.4 L 624.9,132.0 L 631.8,130.6 L 638.7,129.8 L 645.6,128.7 L 652.5,128.7 L 659.4,128.3 L 666.3,126.9 L 673.2,125.8 L 680.2,125.8 L 687.1,125.4 L 694.0,124.7 L 700.9,122.1 L 707.8,121.3 L 714.7,120.2 L 721.6,120.2 L 728.5,119.5 L 735.4,119.1 L 742.4,118.8 L 749.3,118.4 L 756.2,118.0 L 763.1,118.0 L 770.0,117.6 L 770.0,340 Z" fill="url(#g5)" clip-path="url(#ca)"/>
<path d="M 72.0,218.3 L 78.9,215.0 L 85.8,214.6 L 92.7,213.2 L 99.6,212.4 L 106.6,208.7 L 113.5,206.5 L 120.4,205.4 L 127.3,203.6 L 134.2,201.3 L 141.1,200.2 L 148.0,199.9 L 154.9,198.8 L 161.8,198.0 L 168.8,197.7 L 175.7,196.6 L 182.6,195.4 L 189.5,194.3 L 196.4,193.2 L 203.3,191.8 L 210.2,190.7 L 217.1,189.6 L 224.0,188.4 L 231.0,186.2 L 237.9,185.5 L 244.8,185.5 L 251.7,182.9 L 258.6,182.2 L 265.5,181.4 L 272.4,180.7 L 279.3,178.9 L 286.2,176.3 L 293.1,175.9 L 300.1,175.5 L 307.0,173.3 L 313.9,172.6 L 320.8,170.7 L 327.7,170.4 L 334.6,170.0 L 341.5,169.3 L 348.4,169.3 L 355.3,169.3 L 362.3,164.1 L 369.2,163.7 L 376.1,162.6 L 383.0,162.3 L 389.9,161.9 L 396.8,160.8 L 403.7,160.1 L 410.6,159.3 L 417.5,157.1 L 424.5,157.1 L 431.4,157.1 L 438.3,156.7 L 445.2,153.0 L 452.1,151.9 L 459.0,151.2 L 465.9,150.1 L 472.8,149.4 L 479.7,149.4 L 486.7,147.5 L 493.6,144.9 L 500.5,144.2 L 507.4,143.8 L 514.3,142.7 L 521.2,142.7 L 528.1,142.0 L 535.0,140.9 L 541.9,140.1 L 548.9,138.7 L 555.8,137.2 L 562.7,136.8 L 569.6,136.8 L 576.5,135.3 L 583.4,135.3 L 590.3,135.3 L 597.2,133.1 L 604.1,132.8 L 611.0,132.4 L 618.0,132.4 L 624.9,132.0 L 631.8,130.6 L 638.7,129.8 L 645.6,128.7 L 652.5,128.7 L 659.4,128.3 L 666.3,126.9 L 673.2,125.8 L 680.2,125.8 L 687.1,125.4 L 694.0,124.7 L 700.9,122.1 L 707.8,121.3 L 714.7,120.2 L 721.6,120.2 L 728.5,119.5 L 735.4,119.1 L 742.4,118.8 L 749.3,118.4 L 756.2,118.0 L 763.1,118.0 L 770.0,117.6" fill="none" stroke="#34C759" stroke-width="2.5" stroke-linejoin="round" clip-path="url(#ca)"/>
<path d="M 72.0,340 L 72.0,193.2 L 78.9,193.2 L 85.8,192.9 L 92.7,191.8 L 99.6,192.1 L 106.6,192.1 L 113.5,190.7 L 120.4,189.6 L 127.3,189.6 L 134.2,189.9 L 141.1,189.6 L 148.0,189.2 L 154.9,188.8 L 161.8,188.8 L 168.8,188.8 L 175.7,189.2 L 182.6,188.4 L 189.5,187.7 L 196.4,185.5 L 203.3,184.0 L 210.2,184.0 L 217.1,183.7 L 224.0,181.4 L 231.0,178.1 L 237.9,177.0 L 244.8,176.3 L 251.7,173.7 L 258.6,171.9 L 265.5,171.1 L 272.4,170.4 L 279.3,169.6 L 286.2,169.3 L 293.1,169.3 L 300.1,166.7 L 307.0,166.0 L 313.9,165.2 L 320.8,165.2 L 327.7,163.4 L 334.6,163.0 L 341.5,161.9 L 348.4,160.4 L 355.3,158.6 L 362.3,156.0 L 369.2,153.4 L 376.1,153.0 L 383.0,152.3 L 389.9,151.6 L 396.8,149.4 L 403.7,149.4 L 410.6,148.6 L 417.5,147.5 L 424.5,146.8 L 431.4,145.3 L 438.3,145.7 L 445.2,141.2 L 452.1,140.9 L 459.0,140.5 L 465.9,139.8 L 472.8,137.6 L 479.7,137.6 L 486.7,135.3 L 493.6,132.8 L 500.5,132.8 L 507.4,132.8 L 514.3,132.4 L 521.2,132.0 L 528.1,131.7 L 535.0,129.8 L 541.9,127.6 L 548.9,126.9 L 555.8,125.4 L 562.7,125.4 L 569.6,124.3 L 576.5,122.1 L 583.4,121.0 L 590.3,120.6 L 597.2,118.0 L 604.1,117.6 L 611.0,117.6 L 618.0,117.3 L 624.9,117.3 L 631.8,115.4 L 638.7,114.7 L 645.6,113.6 L 652.5,113.2 L 659.4,112.5 L 666.3,109.5 L 673.2,105.5 L 680.2,105.1 L 687.1,104.4 L 694.0,104.0 L 700.9,102.2 L 707.8,63.1 L 714.7,62.3 L 721.6,60.5 L 728.5,60.5 L 735.4,60.5 L 742.4,60.9 L 749.3,60.5 L 756.2,58.3 L 763.1,57.5 L 770.0,57.2 L 770.0,340 Z" fill="url(#g6)" clip-path="url(#ca)"/>
<path d="M 72.0,193.2 L 78.9,193.2 L 85.8,192.9 L 92.7,191.8 L 99.6,192.1 L 106.6,192.1 L 113.5,190.7 L 120.4,189.6 L 127.3,189.6 L 134.2,189.9 L 141.1,189.6 L 148.0,189.2 L 154.9,188.8 L 161.8,188.8 L 168.8,188.8 L 175.7,189.2 L 182.6,188.4 L 189.5,187.7 L 196.4,185.5 L 203.3,184.0 L 210.2,184.0 L 217.1,183.7 L 224.0,181.4 L 231.0,178.1 L 237.9,177.0 L 244.8,176.3 L 251.7,173.7 L 258.6,171.9 L 265.5,171.1 L 272.4,170.4 L 279.3,169.6 L 286.2,169.3 L 293.1,169.3 L 300.1,166.7 L 307.0,166.0 L 313.9,165.2 L 320.8,165.2 L 327.7,163.4 L 334.6,163.0 L 341.5,161.9 L 348.4,160.4 L 355.3,158.6 L 362.3,156.0 L 369.2,153.4 L 376.1,153.0 L 383.0,152.3 L 389.9,151.6 L 396.8,149.4 L 403.7,149.4 L 410.6,148.6 L 417.5,147.5 L 424.5,146.8 L 431.4,145.3 L 438.3,145.7 L 445.2,141.2 L 452.1,140.9 L 459.0,140.5 L 465.9,139.8 L 472.8,137.6 L 479.7,137.6 L 486.7,135.3 L 493.6,132.8 L 500.5,132.8 L 507.4,132.8 L 514.3,132.4 L 521.2,132.0 L 528.1,131.7 L 535.0,129.8 L 541.9,127.6 L 548.9,126.9 L 555.8,125.4 L 562.7,125.4 L 569.6,124.3 L 576.5,122.1 L 583.4,121.0 L 590.3,120.6 L 597.2,118.0 L 604.1,117.6 L 611.0,117.6 L 618.0,117.3 L 624.9,117.3 L 631.8,115.4 L 638.7,114.7 L 645.6,113.6 L 652.5,113.2 L 659.4,112.5 L 666.3,109.5 L 673.2,105.5 L 680.2,105.1 L 687.1,104.4 L 694.0,104.0 L 700.9,102.2 L 707.8,63.1 L 714.7,62.3 L 721.6,60.5 L 728.5,60.5 L 735.4,60.5 L 742.4,60.9 L 749.3,60.5 L 756.2,58.3 L 763.1,57.5 L 770.0,57.2" fill="none" stroke="#4F8EF7" stroke-width="2.5" stroke-linejoin="round" clip-path="url(#ca)"/>
<path d="M 72.0,340 L 72.0,337.8 L 78.9,337.4 L 85.8,337.4 L 92.7,337.1 L 99.6,337.1 L 106.6,337.1 L 113.5,337.1 L 120.4,337.1 L 127.3,336.3 L 134.2,336.3 L 141.1,336.3 L 148.0,336.3 L 154.9,336.3 L 161.8,335.9 L 168.8,335.9 L 175.7,335.9 L 182.6,335.9 L 189.5,335.9 L 196.4,335.6 L 203.3,334.8 L 210.2,334.5 L 217.1,334.5 L 224.0,334.5 L 231.0,334.1 L 237.9,334.1 L 244.8,334.1 L 251.7,333.7 L 258.6,333.7 L 265.5,333.7 L 272.4,333.4 L 279.3,333.4 L 286.2,333.4 L 293.1,333.4 L 300.1,333.0 L 307.0,333.0 L 313.9,333.0 L 320.8,333.0 L 327.7,333.0 L 334.6,333.0 L 341.5,333.0 L 348.4,333.0 L 355.3,333.0 L 362.3,333.0 L 369.2,333.0 L 376.1,333.0 L 383.0,333.0 L 389.9,332.6 L 396.8,332.6 L 403.7,332.6 L 410.6,332.6 L 417.5,332.6 L 424.5,332.6 L 431.4,332.6 L 438.3,332.6 L 445.2,332.6 L 452.1,332.6 L 459.0,332.6 L 465.9,332.6 L 472.8,332.3 L 479.7,332.3 L 486.7,332.3 L 493.6,332.3 L 500.5,332.3 L 507.4,332.3 L 514.3,332.3 L 521.2,332.3 L 528.1,332.3 L 535.0,332.3 L 541.9,332.3 L 548.9,332.3 L 555.8,332.3 L 562.7,332.3 L 569.6,332.3 L 576.5,332.3 L 583.4,332.3 L 590.3,332.3 L 597.2,332.3 L 604.1,332.3 L 611.0,332.3 L 618.0,332.3 L 624.9,332.3 L 631.8,332.3 L 638.7,332.3 L 645.6,332.3 L 652.5,332.3 L 659.4,332.3 L 666.3,332.3 L 673.2,332.3 L 680.2,332.3 L 687.1,332.3 L 694.0,332.3 L 700.9,332.3 L 707.8,332.3 L 714.7,332.3 L 721.6,331.9 L 728.5,331.9 L 735.4,331.9 L 742.4,331.9 L 749.3,331.9 L 756.2,331.5 L 763.1,331.5 L 770.0,331.5 L 770.0,340 Z" fill="url(#g7)" clip-path="url(#ca)"/>
<path d="M 72.0,337.8 L 78.9,337.4 L 85.8,337.4 L 92.7,337.1 L 99.6,337.1 L 106.6,337.1 L 113.5,337.1 L 120.4,337.1 L 127.3,336.3 L 134.2,336.3 L 141.1,336.3 L 148.0,336.3 L 154.9,336.3 L 161.8,335.9 L 168.8,335.9 L 175.7,335.9 L 182.6,335.9 L 189.5,335.9 L 196.4,335.6 L 203.3,334.8 L 210.2,334.5 L 217.1,334.5 L 224.0,334.5 L 231.0,334.1 L 237.9,334.1 L 244.8,334.1 L 251.7,333.7 L 258.6,333.7 L 265.5,333.7 L 272.4,333.4 L 279.3,333.4 L 286.2,333.4 L 293.1,333.4 L 300.1,333.0 L 307.0,333.0 L 313.9,333.0 L 320.8,333.0 L 327.7,333.0 L 334.6,333.0 L 341.5,333.0 L 348.4,333.0 L 355.3,333.0 L 362.3,333.0 L 369.2,333.0 L 376.1,333.0 L 383.0,333.0 L 389.9,332.6 L 396.8,332.6 L 403.7,332.6 L 410.6,332.6 L 417.5,332.6 L 424.5,332.6 L 431.4,332.6 L 438.3,332.6 L 445.2,332.6 L 452.1,332.6 L 459.0,332.6 L 465.9,332.6 L 472.8,332.3 L 479.7,332.3 L 486.7,332.3 L 493.6,332.3 L 500.5,332.3 L 507.4,332.3 L 514.3,332.3 L 521.2,332.3 L 528.1,332.3 L 535.0,332.3 L 541.9,332.3 L 548.9,332.3 L 555.8,332.3 L 562.7,332.3 L 569.6,332.3 L 576.5,332.3 L 583.4,332.3 L 590.3,332.3 L 597.2,332.3 L 604.1,332.3 L 611.0,332.3 L 618.0,332.3 L 624.9,332.3 L 631.8,332.3 L 638.7,332.3 L 645.6,332.3 L 652.5,332.3 L 659.4,332.3 L 666.3,332.3 L 673.2,332.3 L 680.2,332.3 L 687.1,332.3 L 694.0,332.3 L 700.9,332.3 L 707.8,332.3 L 714.7,332.3 L 721.6,331.9 L 728.5,331.9 L 735.4,331.9 L 742.4,331.9 L 749.3,331.9 L 756.2,331.5 L 763.1,331.5 L 770.0,331.5" fill="none" stroke="#FF6363" stroke-width="2.5" stroke-linejoin="round" clip-path="url(#ca)"/>
<text x="110.0" y="55.0" text-anchor="middle" font-size="9" fill="#34C759" opacity="0.85" clip-path="url(#ca)">+15.2% (+50)</text>
<text x="110.0" y="66.0" text-anchor="middle" font-size="9" fill="#4F8EF7" opacity="0.85" clip-path="url(#ca)">+2.8% (+11)</text>
<text x="110.0" y="77.0" text-anchor="middle" font-size="9" fill="#FF6363" opacity="0.85" clip-path="url(#ca)">+66.7% (+4)</text>
<text x="241.3" y="55.0" text-anchor="middle" font-size="9" fill="#34C759" opacity="0.85" clip-path="url(#ca)">+20.1% (+77)</text>
<text x="241.3" y="66.0" text-anchor="middle" font-size="9" fill="#4F8EF7" opacity="0.85" clip-path="url(#ca)">+16.8% (+69)</text>
<text x="241.3" y="77.0" text-anchor="middle" font-size="9" fill="#FF6363" opacity="0.85" clip-path="url(#ca)">+90.0% (+9)</text>
<text x="424.5" y="55.0" text-anchor="middle" font-size="9" fill="#34C759" opacity="0.85" clip-path="url(#ca)">+16.1% (+74)</text>
<text x="424.5" y="66.0" text-anchor="middle" font-size="9" fill="#4F8EF7" opacity="0.85" clip-path="url(#ca)">+17.3% (+83)</text>
<text x="424.5" y="77.0" text-anchor="middle" font-size="9" fill="#FF6363" opacity="0.85" clip-path="url(#ca)">+10.5% (+2)</text>
<text x="611.0" y="55.0" text-anchor="middle" font-size="9" fill="#34C759" opacity="0.85" clip-path="url(#ca)">+10.5% (+56)</text>
<text x="611.0" y="66.0" text-anchor="middle" font-size="9" fill="#4F8EF7" opacity="0.85" clip-path="url(#ca)">+14.4% (+81)</text>
<text x="611.0" y="77.0" text-anchor="middle" font-size="9" fill="#FF6363" opacity="0.85" clip-path="url(#ca)">+0.0% (+0)</text>
<text x="738.9" y="55.0" text-anchor="middle" font-size="9" fill="#34C759" opacity="0.85" clip-path="url(#ca)">+1.7% (+10)</text>
<text x="738.9" y="66.0" text-anchor="middle" font-size="9" fill="#4F8EF7" opacity="0.85" clip-path="url(#ca)">+2.1% (+16)</text>
<text x="738.9" y="77.0" text-anchor="middle" font-size="9" fill="#FF6363" opacity="0.85" clip-path="url(#ca)">+9.5% (+2)</text>
<rect x="211" y="369" width="12" height="12" fill="#34C759" rx="2"/>
<text x="227" y="379" font-size="12" fill="#111827">macOS + Windows</text>
<rect x="351" y="369" width="12" height="12" fill="#4F8EF7" rx="2"/>
<text x="367" y="379" font-size="12" fill="#111827">macOS only</text>
<rect x="491" y="369" width="12" height="12" fill="#FF6363" rx="2"/>
<text x="507" y="379" font-size="12" fill="#111827">Windows only</text>
<text x="72" y="394" font-size="8" fill="#e5e7eb">data since Dec 11, 2025</text>
</svg>