<svg xmlns="http://www.w3.org/2000/svg" width="800" height="400" viewBox="0 0 800 400">
<defs>
  <style>text { font-family: -apple-system, BlinkMacSystemFont, 'Segoe UI', Roboto, sans-serif; }</style>
  <linearGradient id="g5" x1="0" y1="0" x2="0" y2="1">
  <stop offset="0%" stop-color="#34C759" stop-opacity="0.25"/>
  <stop offset="100%" stop-color="#34C759" stop-opacity="0"/>
</linearGradient>
<linearGradient id="g6" x1="0" y1="0" x2="0" y2="1">
  <stop offset="0%" stop-color="#4F8EF7" stop-opacity="0.25"/>
  <stop offset="100%" stop-color="#4F8EF7" stop-opacity="0"/>
</linearGradient>
<linearGradient id="g7" x1="0" y1="0" x2="0" y2="1">
  <stop offset="0%" stop-color="#FF6363" stop-opacity="0.25"/>
  <stop offset="100%" stop-color="#FF6363" stop-opacity="0"/>
</linearGradient>
  <clipPath id="ca"><rect x="72" y="45" width="698" height="295"/></clipPath>
</defs>
<rect width="800" height="400" fill="#ffffff" rx="12"/>
<text x="400" y="26" text-anchor="middle" font-size="15" font-weight="600" fill="#111827">Platform Support Over Time</text>
<line x1="72" y1="340.0" x2="770" y2="340.0" stroke="#f3f4f6" stroke-width="1"/>
<text x="66" y="344.0" text-anchor="end" font-size="11" fill="#6b7280">0</text>
<line x1="72" y1="281.0" x2="770" y2="281.0" stroke="#f3f4f6" stroke-width="1"/>
<text x="66" y="285.0" text-anchor="end" font-size="11" fill="#6b7280">200</text>
<line x1="72" y1="222.0" x2="770" y2="222.0" stroke="#f3f4f6" stroke-width="1"/>
<text x="66" y="226.0" text-anchor="end" font-size="11" fill="#6b7280">400</text>
<line x1="72" y1="163.0" x2="770" y2="163.0" stroke="#f3f4f6" stroke-width="1"/>
<text x="66" y="167.0" text-anchor="end" font-size="11" fill="#6b7280">600</text>
<line x1="72" y1="104.0" x2="770" y2="104.0" stroke="#f3f4f6" stroke-width="1"/>
<text x="66" y="108.0" text-anchor="end" font-size="11" fill="#6b7280">800</text>
<line x1="72" y1="45.0" x2="770" y2="45.0" stroke="#f3f4f6" stroke-width="1"/>
<text x="66" y="49.0" text-anchor="end" font-size="11" fill="#6b7280">1.0k</text>
<line x1="118.3" y1="45" x2="118.3" y2="340" stroke="#e5e7eb" stroke-width="1" stroke-dasharray="3,3" clip-path="url(#ca)"/>
<line x1="218.5" y1="45" x2="218.5" y2="340" stroke="#e5e7eb" stroke-width="1" stroke-dasharray="3,3" clip-path="url(#ca)"/>
<line x1="322.7" y1="45" x2="322.7" y2="340" stroke="#e5e7eb" stroke-width="1" stroke-dasharray="3,3" clip-path="url(#ca)"/>
<line x1="426.8" y1="45" x2="426.8" y2="340" stroke="#e5e7eb" stroke-width="1" stroke-dasharray="3,3" clip-path="url(#ca)"/>
<line x1="530.9" y1="45" x2="530.9" y2="340" stroke="#e5e7eb" stroke-width="1" stroke-dasharray="3,3" clip-path="url(#ca)"/>
<line x1="631.2" y1="45" x2="631.2" y2="340" stroke="#e5e7eb" stroke-width="1" stroke-dasharray="3,3" clip-path="url(#ca)"/>
<line x1="723.7" y1="45" x2="723.7" y2="340" stroke="#e5e7eb" stroke-width="1" stroke-dasharray="3,3" clip-path="url(#ca)"/>
<text x="72.0" y="358.0" text-anchor="middle" font-size="11" fill="#6b7280">Dec 11</text>
<text x="210.8" y="358.0" text-anchor="middle" font-size="11" fill="#6b7280">Jan 30</text>
<text x="349.7" y="358.0" text-anchor="middle" font-size="11" fill="#6b7280">Mar 9</text>
<text x="492.3" y="358.0" text-anchor="middle" font-size="11" fill="#6b7280">Apr 19</text>
<text x="631.2" y="358.0" text-anchor="middle" font-size="11" fill="#6b7280">Jun 2</text>
<text x="770.0" y="358.0" text-anchor="middle" font-size="11" fill="#6b7280">Jul 16</text>
<line x1="72" y1="45" x2="72" y2="340" stroke="#e5e7eb" stroke-width="1"/>
<line x1="72" y1="340" x2="770" y2="340" stroke="#e5e7eb" stroke-width="1"/>
<text x="-192.5" y="18" text-anchor="middle" font-size="12" fill="#6b7280" transform="rotate(-90)">Extensions</text>
<path d="M 72.0,340 L 72.0,242.6 L 75.9,240.0 L 79.7,239.7 L 83.6,238.5 L 87.4,237.9 L 91.3,235.0 L 95.1,233.2 L 99.0,232.3 L 102.9,230.8 L 106.7,229.1 L 110.6,228.2 L 114.4,227.9 L 118.3,227.0 L 122.1,226.4 L 126.0,226.1 L 129.8,225.2 L 133.7,224.4 L 137.6,223.5 L 141.4,222.6 L 145.3,221.4 L 149.1,220.5 L 153.0,219.6 L 156.8,218.8 L 160.7,217.0 L 164.6,216.4 L 168.4,216.4 L 172.3,214.3 L 176.1,213.7 L 180.0,213.2 L 183.8,212.6 L 187.7,211.1 L 191.5,209.0 L 195.4,208.7 L 199.3,208.4 L 203.1,206.7 L 207.0,206.1 L 210.8,204.6 L 214.7,204.3 L 218.5,204.0 L 222.4,203.4 L 226.3,203.4 L 230.1,203.4 L 234.0,199.3 L 237.8,199.0 L 241.7,198.1 L 245.5,197.8 L 249.4,197.5 L 253.2,196.6 L 257.1,196.0 L 261.0,195.4 L 264.8,193.7 L 268.7,193.7 L 272.5,193.7 L 276.4,193.4 L 280.2,190.4 L 284.1,189.6 L 288.0,189.0 L 291.8,188.1 L 295.7,187.5 L 299.5,187.5 L 303.4,186.0 L 307.2,183.9 L 311.1,183.4 L 315.0,183.1 L 318.8,182.2 L 322.7,182.2 L 326.5,181.6 L 330.4,180.7 L 334.2,180.1 L 338.1,178.9 L 341.9,177.8 L 345.8,177.5 L 349.7,177.5 L 353.5,176.3 L 357.4,176.3 L 361.2,176.3 L 365.1,174.5 L 368.9,174.2 L 372.8,173.9 L 376.7,173.9 L 380.5,173.6 L 384.4,172.4 L 388.2,171.9 L 392.1,171.0 L 395.9,171.0 L 399.8,170.7 L 403.6,169.5 L 407.5,168.6 L 411.4,168.6 L 415.2,168.3 L 419.1,167.7 L 422.9,165.7 L 426.8,165.1 L 430.6,164.2 L 434.5,164.2 L 438.4,163.6 L 442.2,163.3 L 446.1,163.0 L 449.9,162.7 L 453.8,162.4 L 457.6,162.4 L 461.5,162.1 L 465.3,161.8 L 469.2,160.9 L 473.1,159.8 L 476.9,159.5 L 480.8,158.6 L 484.6,158.6 L 488.5,157.4 L 492.3,157.1 L 496.2,157.1 L 500.1,157.1 L 503.9,156.2 L 507.8,155.9 L 511.6,155.9 L 515.5,155.9 L 519.3,155.6 L 523.2,154.4 L 527.0,154.2 L 530.9,153.3 L 534.8,152.7 L 538.6,152.7 L 542.5,151.8 L 546.3,151.2 L 550.2,151.2 L 554.0,150.9 L 557.9,149.4 L 561.8,148.0 L 565.6,147.7 L 569.5,147.1 L 573.3,145.9 L 577.2,145.9 L 581.0,145.3 L 584.9,143.8 L 588.8,141.2 L 592.6,140.3 L 596.5,140.3 L 600.3,140.3 L 604.2,140.3 L 608.0,140.3 L 611.9,139.1 L 615.7,138.2 L 619.6,138.2 L 623.5,138.2 L 627.3,138.2 L 631.2,137.3 L 635.0,137.3 L 638.9,136.5 L 642.7,135.6 L 646.6,135.3 L 650.5,135.0 L 654.3,134.4 L 658.2,134.4 L 662.0,133.5 L 665.9,132.3 L 669.7,131.4 L 673.6,129.7 L 677.4,129.1 L 681.3,128.8 L 685.2,128.5 L 689.0,127.9 L 692.9,127.6 L 696.7,126.1 L 700.6,125.2 L 704.4,123.8 L 708.3,123.5 L 712.2,123.5 L 716.0,123.2 L 719.9,122.0 L 723.7,121.7 L 727.6,121.4 L 731.4,121.1 L 735.3,119.9 L 739.1,119.6 L 743.0,118.2 L 746.9,117.3 L 750.7,117.0 L 754.6,115.2 L 758.4,115.2 L 762.3,115.2 L 766.1,115.2 L 770.0,114.6 L 770.0,340 Z" fill="url(#g5)" clip-path="url(#ca)"/>
<path d="M 72.0,242.6 L 75.9,240.0 L 79.7,239.7 L 83.6,238.5 L 87.4,237.9 L 91.3,235.0 L 95.1,233.2 L 99.0,232.3 L 102.9,230.8 L 106.7,229.1 L 110.6,228.2 L 114.4,227.9 L 118.3,227.0 L 122.1,226.4 L 126.0,226.1 L 129.8,225.2 L 133.7,224.4 L 137.6,223.5 L 141.4,222.6 L 145.3,221.4 L 149.1,220.5 L 153.0,219.6 L 156.8,218.8 L 160.7,217.0 L 164.6,216.4 L 168.4,216.4 L 172.3,214.3 L 176.1,213.7 L 180.0,213.2 L 183.8,212.6 L 187.7,211.1 L 191.5,209.0 L 195.4,208.7 L 199.3,208.4 L 203.1,206.7 L 207.0,206.1 L 210.8,204.6 L 214.7,204.3 L 218.5,204.0 L 222.4,203.4 L 226.3,203.4 L 230.1,203.4 L 234.0,199.3 L 237.8,199.0 L 241.7,198.1 L 245.5,197.8 L 249.4,197.5 L 253.2,196.6 L 257.1,196.0 L 261.0,195.4 L 264.8,193.7 L 268.7,193.7 L 272.5,193.7 L 276.4,193.4 L 280.2,190.4 L 284.1,189.6 L 288.0,189.0 L 291.8,188.1 L 295.7,187.5 L 299.5,187.5 L 303.4,186.0 L 307.2,183.9 L 311.1,183.4 L 315.0,183.1 L 318.8,182.2 L 322.7,182.2 L 326.5,181.6 L 330.4,180.7 L 334.2,180.1 L 338.1,178.9 L 341.9,177.8 L 345.8,177.5 L 349.7,177.5 L 353.5,176.3 L 357.4,176.3 L 361.2,176.3 L 365.1,174.5 L 368.9,174.2 L 372.8,173.9 L 376.7,173.9 L 380.5,173.6 L 384.4,172.4 L 388.2,171.9 L 392.1,171.0 L 395.9,171.0 L 399.8,170.7 L 403.6,169.5 L 407.5,168.6 L 411.4,168.6 L 415.2,168.3 L 419.1,167.7 L 422.9,165.7 L 426.8,165.1 L 430.6,164.2 L 434.5,164.2 L 438.4,163.6 L 442.2,163.3 L 446.1,163.0 L 449.9,162.7 L 453.8,162.4 L 457.6,162.4 L 461.5,162.1 L 465.3,161.8 L 469.2,160.9 L 473.1,159.8 L 476.9,159.5 L 480.8,158.6 L 484.6,158.6 L 488.5,157.4 L 492.3,157.1 L 496.2,157.1 L 500.1,157.1 L 503.9,156.2 L 507.8,155.9 L 511.6,155.9 L 515.5,155.9 L 519.3,155.6 L 523.2,154.4 L 527.0,154.2 L 530.9,153.3 L 534.8,152.7 L 538.6,152.7 L 542.5,151.8 L 546.3,151.2 L 550.2,151.2 L 554.0,150.9 L 557.9,149.4 L 561.8,148.0 L 565.6,147.7 L 569.5,147.1 L 573.3,145.9 L 577.2,145.9 L 581.0,145.3 L 584.9,143.8 L 588.8,141.2 L 592.6,140.3 L 596.5,140.3 L 600.3,140.3 L 604.2,140.3 L 608.0,140.3 L 611.9,139.1 L 615.7,138.2 L 619.6,138.2 L 623.5,138.2 L 627.3,138.2 L 631.2,137.3 L 635.0,137.3 L 638.9,136.5 L 642.7,135.6 L 646.6,135.3 L 650.5,135.0 L 654.3,134.4 L 658.2,134.4 L 662.0,133.5 L 665.9,132.3 L 669.7,131.4 L 673.6,129.7 L 677.4,129.1 L 681.3,128.8 L 685.2,128.5 L 689.0,127.9 L 692.9,127.6 L 696.7,126.1 L 700.6,125.2 L 704.4,123.8 L 708.3,123.5 L 712.2,123.5 L 716.0,123.2 L 719.9,122.0 L 723.7,121.7 L 727.6,121.4 L 731.4,121.1 L 735.3,119.9 L 739.1,119.6 L 743.0,118.2 L 746.9,117.3 L 750.7,117.0 L 754.6,115.2 L 758.4,115.2 L 762.3,115.2 L 766.1,115.2 L 770.0,114.6" fill="none" stroke="#34C759" stroke-width="2.5" stroke-linejoin="round" clip-path="url(#ca)"/>
<path d="M 72.0,340 L 72.0,222.6 L 75.9,222.6 L 79.7,222.3 L 83.6,221.4 L 87.4,221.7 L 91.3,221.7 L 95.1,220.5 L 99.0,219.6 L 102.9,219.6 L 106.7,219.9 L 110.6,219.6 L 114.4,219.3 L 118.3,219.1 L 122.1,219.1 L 126.0,219.1 L 129.8,219.3 L 133.7,218.8 L 137.6,218.2 L 141.4,216.4 L 145.3,215.2 L 149.1,215.2 L 153.0,214.9 L 156.8,213.2 L 160.7,210.5 L 164.6,209.6 L 168.4,209.0 L 172.3,207.0 L 176.1,205.5 L 180.0,204.9 L 183.8,204.3 L 187.7,203.7 L 191.5,203.4 L 195.4,203.4 L 199.3,201.3 L 203.1,200.8 L 207.0,200.2 L 210.8,200.2 L 214.7,198.7 L 218.5,198.4 L 222.4,197.5 L 226.3,196.3 L 230.1,194.9 L 234.0,192.8 L 237.8,190.7 L 241.7,190.4 L 245.5,189.8 L 249.4,189.3 L 253.2,187.5 L 257.1,187.5 L 261.0,186.9 L 264.8,186.0 L 268.7,185.4 L 272.5,184.2 L 276.4,184.5 L 280.2,181.0 L 284.1,180.7 L 288.0,180.4 L 291.8,179.8 L 295.7,178.0 L 299.5,178.0 L 303.4,176.3 L 307.2,174.2 L 311.1,174.2 L 315.0,174.2 L 318.8,173.9 L 322.7,173.6 L 326.5,173.3 L 330.4,171.9 L 334.2,170.1 L 338.1,169.5 L 341.9,168.3 L 345.8,168.3 L 349.7,167.4 L 353.5,165.7 L 357.4,164.8 L 361.2,164.5 L 365.1,162.4 L 368.9,162.1 L 372.8,162.1 L 376.7,161.8 L 380.5,161.8 L 384.4,160.3 L 388.2,159.8 L 392.1,158.9 L 395.9,158.6 L 399.8,158.0 L 403.6,155.6 L 407.5,152.4 L 411.4,152.1 L 415.2,151.5 L 419.1,151.2 L 422.9,149.7 L 426.8,118.5 L 430.6,117.9 L 434.5,116.4 L 438.4,116.4 L 442.2,116.4 L 446.1,116.7 L 449.9,116.4 L 453.8,114.6 L 457.6,114.0 L 461.5,113.7 L 465.3,113.4 L 469.2,112.3 L 473.1,110.5 L 476.9,110.5 L 480.8,110.5 L 484.6,110.2 L 488.5,109.9 L 492.3,109.9 L 496.2,109.3 L 500.1,108.4 L 503.9,106.9 L 507.8,106.4 L 511.6,106.1 L 515.5,106.1 L 519.3,105.8 L 523.2,105.2 L 527.0,104.9 L 530.9,103.4 L 534.8,103.4 L 538.6,102.8 L 542.5,101.6 L 546.3,100.2 L 550.2,99.9 L 554.0,99.6 L 557.9,96.9 L 561.8,96.3 L 565.6,95.7 L 569.5,95.7 L 573.3,94.6 L 577.2,94.0 L 581.0,92.5 L 584.9,91.9 L 588.8,91.0 L 592.6,90.7 L 596.5,89.5 L 600.3,88.7 L 604.2,88.4 L 608.0,87.8 L 611.9,86.6 L 615.7,86.0 L 619.6,85.1 L 623.5,84.5 L 627.3,84.2 L 631.2,83.6 L 635.0,82.8 L 638.9,82.2 L 642.7,81.6 L 646.6,80.7 L 650.5,80.7 L 654.3,80.1 L 658.2,78.6 L 662.0,77.2 L 665.9,76.3 L 669.7,76.6 L 673.6,76.0 L 677.4,75.7 L 681.3,75.4 L 685.2,74.8 L 689.0,73.3 L 692.9,73.3 L 696.7,73.0 L 700.6,72.1 L 704.4,71.3 L 708.3,70.1 L 712.2,69.5 L 716.0,69.5 L 719.9,68.6 L 723.7,68.0 L 727.6,67.4 L 731.4,66.5 L 735.3,65.9 L 739.1,65.9 L 743.0,65.6 L 746.9,66.2 L 750.7,65.6 L 754.6,64.2 L 758.4,63.3 L 762.3,62.7 L 766.1,62.1 L 770.0,60.9 L 770.0,340 Z" fill="url(#g6)" clip-path="url(#ca)"/>
<path d="M 72.0,222.6 L 75.9,222.6 L 79.7,222.3 L 83.6,221.4 L 87.4,221.7 L 91.3,221.7 L 95.1,220.5 L 99.0,219.6 L 102.9,219.6 L 106.7,219.9 L 110.6,219.6 L 114.4,219.3 L 118.3,219.1 L 122.1,219.1 L 126.0,219.1 L 129.8,219.3 L 133.7,218.8 L 137.6,218.2 L 141.4,216.4 L 145.3,215.2 L 149.1,215.2 L 153.0,214.9 L 156.8,213.2 L 160.7,210.5 L 164.6,209.6 L 168.4,209.0 L 172.3,207.0 L 176.1,205.5 L 180.0,204.9 L 183.8,204.3 L 187.7,203.7 L 191.5,203.4 L 195.4,203.4 L 199.3,201.3 L 203.1,200.8 L 207.0,200.2 L 210.8,200.2 L 214.7,198.7 L 218.5,198.4 L 222.4,197.5 L 226.3,196.3 L 230.1,194.9 L 234.0,192.8 L 237.8,190.7 L 241.7,190.4 L 245.5,189.8 L 249.4,189.3 L 253.2,187.5 L 257.1,187.5 L 261.0,186.9 L 264.8,186.0 L 268.7,185.4 L 272.5,184.2 L 276.4,184.5 L 280.2,181.0 L 284.1,180.7 L 288.0,180.4 L 291.8,179.8 L 295.7,178.0 L 299.5,178.0 L 303.4,176.3 L 307.2,174.2 L 311.1,174.2 L 315.0,174.2 L 318.8,173.9 L 322.7,173.6 L 326.5,173.3 L 330.4,171.9 L 334.2,170.1 L 338.1,169.5 L 341.9,168.3 L 345.8,168.3 L 349.7,167.4 L 353.5,165.7 L 357.4,164.8 L 361.2,164.5 L 365.1,162.4 L 368.9,162.1 L 372.8,162.1 L 376.7,161.8 L 380.5,161.8 L 384.4,160.3 L 388.2,159.8 L 392.1,158.9 L 395.9,158.6 L 399.8,158.0 L 403.6,155.6 L 407.5,152.4 L 411.4,152.1 L 415.2,151.5 L 419.1,151.2 L 422.9,149.7 L 426.8,118.5 L 430.6,117.9 L 434.5,116.4 L 438.4,116.4 L 442.2,116.4 L 446.1,116.7 L 449.9,116.4 L 453.8,114.6 L 457.6,114.0 L 461.5,113.7 L 465.3,113.4 L 469.2,112.3 L 473.1,110.5 L 476.9,110.5 L 480.8,110.5 L 484.6,110.2 L 488.5,109.9 L 492.3,109.9 L 496.2,109.3 L 500.1,108.4 L 503.9,106.9 L 507.8,106.4 L 511.6,106.1 L 515.5,106.1 L 519.3,105.8 L 523.2,105.2 L 527.0,104.9 L 530.9,103.4 L 534.8,103.4 L 538.6,102.8 L 542.5,101.6 L 546.3,100.2 L 550.2,99.9 L 554.0,99.6 L 557.9,96.9 L 561.8,96.3 L 565.6,95.7 L 569.5,95.7 L 573.3,94.6 L 577.2,94.0 L 581.0,92.5 L 584.9,91.9 L 588.8,91.0 L 592.6,90.7 L 596.5,89.5 L 600.3,88.7 L 604.2,88.4 L 608.0,87.8 L 611.9,86.6 L 615.7,86.0 L 619.6,85.1 L 623.5,84.5 L 627.3,84.2 L 631.2,83.6 L 635.0,82.8 L 638.9,82.2 L 642.7,81.6 L 646.6,80.7 L 650.5,80.7 L 654.3,80.1 L 658.2,78.6 L 662.0,77.2 L 665.9,76.3 L 669.7,76.6 L 673.6,76.0 L 677.4,75.7 L 681.3,75.4 L 685.2,74.8 L 689.0,73.3 L 692.9,73.3 L 696.7,73.0 L 700.6,72.1 L 704.4,71.3 L 708.3,70.1 L 712.2,69.5 L 716.0,69.5 L 719.9,68.6 L 723.7,68.0 L 727.6,67.4 L 731.4,66.5 L 735.3,65.9 L 739.1,65.9 L 743.0,65.6 L 746.9,66.2 L 750.7,65.6 L 754.6,64.2 L 758.4,63.3 L 762.3,62.7 L 766.1,62.1 L 770.0,60.9" fill="none" stroke="#4F8EF7" stroke-width="2.5" stroke-linejoin="round" clip-path="url(#ca)"/>
<path d="M 72.0,340 L 72.0,338.2 L 75.9,337.9 L 79.7,337.9 L 83.6,337.6 L 87.4,337.6 L 91.3,337.6 L 95.1,337.6 L 99.0,337.6 L 102.9,337.1 L 106.7,337.1 L 110.6,337.1 L 114.4,337.1 L 118.3,337.1 L 122.1,336.8 L 126.0,336.8 L 129.8,336.8 L 133.7,336.8 L 137.6,336.8 L 141.4,336.5 L 145.3,335.9 L 149.1,335.6 L 153.0,335.6 L 156.8,335.6 L 160.7,335.3 L 164.6,335.3 L 168.4,335.3 L 172.3,335.0 L 176.1,335.0 L 180.0,335.0 L 183.8,334.7 L 187.7,334.7 L 191.5,334.7 L 195.4,334.7 L 199.3,334.4 L 203.1,334.4 L 207.0,334.4 L 210.8,334.4 L 214.7,334.4 L 218.5,334.4 L 222.4,334.4 L 226.3,334.4 L 230.1,334.4 L 234.0,334.4 L 237.8,334.4 L 241.7,334.4 L 245.5,334.4 L 249.4,334.1 L 253.2,334.1 L 257.1,334.1 L 261.0,334.1 L 264.8,334.1 L 268.7,334.1 L 272.5,334.1 L 276.4,334.1 L 280.2,334.1 L 284.1,334.1 L 288.0,334.1 L 291.8,334.1 L 295.7,333.8 L 299.5,333.8 L 303.4,333.8 L 307.2,333.8 L 311.1,333.8 L 315.0,333.8 L 318.8,333.8 L 322.7,333.8 L 326.5,333.8 L 330.4,333.8 L 334.2,333.8 L 338.1,333.8 L 341.9,333.8 L 345.8,333.8 L 349.7,333.8 L 353.5,333.8 L 357.4,333.8 L 361.2,333.8 L 365.1,333.8 L 368.9,333.8 L 372.8,333.8 L 376.7,333.8 L 380.5,333.8 L 384.4,333.8 L 388.2,333.8 L 392.1,333.8 L 395.9,333.8 L 399.8,333.8 L 403.6,333.8 L 407.5,333.8 L 411.4,333.8 L 415.2,333.8 L 419.1,333.8 L 422.9,333.8 L 426.8,333.8 L 430.6,333.8 L 434.5,333.5 L 438.4,333.5 L 442.2,333.5 L 446.1,333.5 L 449.9,333.5 L 453.8,333.2 L 457.6,333.2 L 461.5,333.2 L 465.3,333.2 L 469.2,332.9 L 473.1,332.9 L 476.9,332.6 L 480.8,332.6 L 484.6,332.6 L 488.5,332.6 L 492.3,332.6 L 496.2,332.6 L 500.1,332.6 L 503.9,332.6 L 507.8,332.6 L 511.6,332.6 L 515.5,332.6 L 519.3,332.6 L 523.2,332.6 L 527.0,332.6 L 530.9,332.6 L 534.8,332.6 L 538.6,332.6 L 542.5,332.6 L 546.3,332.6 L 550.2,332.6 L 554.0,332.6 L 557.9,332.6 L 561.8,332.6 L 565.6,332.6 L 569.5,332.6 L 573.3,332.6 L 577.2,332.6 L 581.0,332.6 L 584.9,332.6 L 588.8,332.6 L 592.6,332.6 L 596.5,332.6 L 600.3,332.6 L 604.2,332.6 L 608.0,332.6 L 611.9,332.6 L 615.7,332.6 L 619.6,332.6 L 623.5,332.6 L 627.3,332.6 L 631.2,332.6 L 635.0,332.6 L 638.9,332.6 L 642.7,332.6 L 646.6,332.6 L 650.5,332.6 L 654.3,332.6 L 658.2,332.6 L 662.0,332.3 L 665.9,332.3 L 669.7,332.3 L 673.6,332.3 L 677.4,332.3 L 681.3,332.3 L 685.2,332.3 L 689.0,332.3 L 692.9,332.3 L 696.7,332.3 L 700.6,332.3 L 704.4,332.0 L 708.3,332.0 L 712.2,332.0 L 716.0,332.0 L 719.9,332.0 L 723.7,332.0 L 727.6,332.0 L 731.4,332.0 L 735.3,332.0 L 739.1,332.0 L 743.0,332.0 L 746.9,332.0 L 750.7,332.0 L 754.6,332.0 L 758.4,331.7 L 762.3,331.7 L 766.1,331.7 L 770.0,331.7 L 770.0,340 Z" fill="url(#g7)" clip-path="url(#ca)"/>
<path d="M 72.0,338.2 L 75.9,337.9 L 79.7,337.9 L 83.6,337.6 L 87.4,337.6 L 91.3,337.6 L 95.1,337.6 L 99.0,337.6 L 102.9,337.1 L 106.7,337.1 L 110.6,337.1 L 114.4,337.1 L 118.3,337.1 L 122.1,336.8 L 126.0,336.8 L 129.8,336.8 L 133.7,336.8 L 137.6,336.8 L 141.4,336.5 L 145.3,335.9 L 149.1,335.6 L 153.0,335.6 L 156.8,335.6 L 160.7,335.3 L 164.6,335.3 L 168.4,335.3 L 172.3,335.0 L 176.1,335.0 L 180.0,335.0 L 183.8,334.7 L 187.7,334.7 L 191.5,334.7 L 195.4,334.7 L 199.3,334.4 L 203.1,334.4 L 207.0,334.4 L 210.8,334.4 L 214.7,334.4 L 218.5,334.4 L 222.4,334.4 L 226.3,334.4 L 230.1,334.4 L 234.0,334.4 L 237.8,334.4 L 241.7,334.4 L 245.5,334.4 L 249.4,334.1 L 253.2,334.1 L 257.1,334.1 L 261.0,334.1 L 264.8,334.1 L 268.7,334.1 L 272.5,334.1 L 276.4,334.1 L 280.2,334.1 L 284.1,334.1 L 288.0,334.1 L 291.8,334.1 L 295.7,333.8 L 299.5,333.8 L 303.4,333.8 L 307.2,333.8 L 311.1,333.8 L 315.0,333.8 L 318.8,333.8 L 322.7,333.8 L 326.5,333.8 L 330.4,333.8 L 334.2,333.8 L 338.1,333.8 L 341.9,333.8 L 345.8,333.8 L 349.7,333.8 L 353.5,333.8 L 357.4,333.8 L 361.2,333.8 L 365.1,333.8 L 368.9,333.8 L 372.8,333.8 L 376.7,333.8 L 380.5,333.8 L 384.4,333.8 L 388.2,333.8 L 392.1,333.8 L 395.9,333.8 L 399.8,333.8 L 403.6,333.8 L 407.5,333.8 L 411.4,333.8 L 415.2,333.8 L 419.1,333.8 L 422.9,333.8 L 426.8,333.8 L 430.6,333.8 L 434.5,333.5 L 438.4,333.5 L 442.2,333.5 L 446.1,333.5 L 449.9,333.5 L 453.8,333.2 L 457.6,333.2 L 461.5,333.2 L 465.3,333.2 L 469.2,332.9 L 473.1,332.9 L 476.9,332.6 L 480.8,332.6 L 484.6,332.6 L 488.5,332.6 L 492.3,332.6 L 496.2,332.6 L 500.1,332.6 L 503.9,332.6 L 507.8,332.6 L 511.6,332.6 L 515.5,332.6 L 519.3,332.6 L 523.2,332.6 L 527.0,332.6 L 530.9,332.6 L 534.8,332.6 L 538.6,332.6 L 542.5,332.6 L 546.3,332.6 L 550.2,332.6 L 554.0,332.6 L 557.9,332.6 L 561.8,332.6 L 565.6,332.6 L 569.5,332.6 L 573.3,332.6 L 577.2,332.6 L 581.0,332.6 L 584.9,332.6 L 588.8,332.6 L 592.6,332.6 L 596.5,332.6 L 600.3,332.6 L 604.2,332.6 L 608.0,332.6 L 611.9,332.6 L 615.7,332.6 L 619.6,332.6 L 623.5,332.6 L 627.3,332.6 L 631.2,332.6 L 635.0,332.6 L 638.9,332.6 L 642.7,332.6 L 646.6,332.6 L 650.5,332.6 L 654.3,332.6 L 658.2,332.6 L 662.0,332.3 L 665.9,332.3 L 669.7,332.3 L 673.6,332.3 L 677.4,332.3 L 681.3,332.3 L 685.2,332.3 L 689.0,332.3 L 692.9,332.3 L 696.7,332.3 L 700.6,332.3 L 704.4,332.0 L 708.3,332.0 L 712.2,332.0 L 716.0,332.0 L 719.9,332.0 L 723.7,332.0 L 727.6,332.0 L 731.4,332.0 L 735.3,332.0 L 739.1,332.0 L 743.0,332.0 L 746.9,332.0 L 750.7,332.0 L 754.6,332.0 L 758.4,331.7 L 762.3,331.7 L 766.1,331.7 L 770.0,331.7" fill="none" stroke="#FF6363" stroke-width="2.5" stroke-linejoin="round" clip-path="url(#ca)"/>
<text x="93.2" y="55.0" text-anchor="middle" font-size="9" fill="#34C759" opacity="0.85" clip-path="url(#ca)">+15.2% (+50)</text>
<text x="93.2" y="66.0" text-anchor="middle" font-size="9" fill="#4F8EF7" opacity="0.85" clip-path="url(#ca)">+2.8% (+11)</text>
<text x="93.2" y="77.0" text-anchor="middle" font-size="9" fill="#FF6363" opacity="0.85" clip-path="url(#ca)">+66.7% (+4)</text>
<text x="166.5" y="55.0" text-anchor="middle" font-size="9" fill="#34C759" opacity="0.85" clip-path="url(#ca)">+20.1% (+77)</text>
<text x="166.5" y="66.0" text-anchor="middle" font-size="9" fill="#4F8EF7" opacity="0.85" clip-path="url(#ca)">+16.8% (+69)</text>
<text x="166.5" y="77.0" text-anchor="middle" font-size="9" fill="#FF6363" opacity="0.85" clip-path="url(#ca)">+90.0% (+9)</text>
<text x="268.7" y="55.0" text-anchor="middle" font-size="9" fill="#34C759" opacity="0.85" clip-path="url(#ca)">+16.1% (+74)</text>
<text x="268.7" y="66.0" text-anchor="middle" font-size="9" fill="#4F8EF7" opacity="0.85" clip-path="url(#ca)">+17.3% (+83)</text>
<text x="268.7" y="77.0" text-anchor="middle" font-size="9" fill="#FF6363" opacity="0.85" clip-path="url(#ca)">+10.5% (+2)</text>
<text x="372.8" y="55.0" text-anchor="middle" font-size="9" fill="#34C759" opacity="0.85" clip-path="url(#ca)">+10.5% (+56)</text>
<text x="372.8" y="66.0" text-anchor="middle" font-size="9" fill="#4F8EF7" opacity="0.85" clip-path="url(#ca)">+14.4% (+81)</text>
<text x="372.8" y="77.0" text-anchor="middle" font-size="9" fill="#FF6363" opacity="0.85" clip-path="url(#ca)">+0.0% (+0)</text>
<text x="476.9" y="55.0" text-anchor="middle" font-size="9" fill="#34C759" opacity="0.85" clip-path="url(#ca)">+6.2% (+37)</text>
<text x="476.9" y="66.0" text-anchor="middle" font-size="9" fill="#4F8EF7" opacity="0.85" clip-path="url(#ca)">+6.1% (+46)</text>
<text x="476.9" y="77.0" text-anchor="middle" font-size="9" fill="#FF6363" opacity="0.85" clip-path="url(#ca)">+19.0% (+4)</text>
<text x="579.1" y="55.0" text-anchor="middle" font-size="9" fill="#34C759" opacity="0.85" clip-path="url(#ca)">+8.1% (+51)</text>
<text x="579.1" y="66.0" text-anchor="middle" font-size="9" fill="#4F8EF7" opacity="0.85" clip-path="url(#ca)">+8.1% (+65)</text>
<text x="579.1" y="77.0" text-anchor="middle" font-size="9" fill="#FF6363" opacity="0.85" clip-path="url(#ca)">+0.0% (+0)</text>
<text x="675.5" y="55.0" text-anchor="middle" font-size="9" fill="#34C759" opacity="0.85" clip-path="url(#ca)">+7.6% (+52)</text>
<text x="675.5" y="66.0" text-anchor="middle" font-size="9" fill="#4F8EF7" opacity="0.85" clip-path="url(#ca)">+5.9% (+51)</text>
<text x="675.5" y="77.0" text-anchor="middle" font-size="9" fill="#FF6363" opacity="0.85" clip-path="url(#ca)">+8.0% (+2)</text>
<text x="746.9" y="55.0" text-anchor="middle" font-size="9" fill="#34C759" opacity="0.85" clip-path="url(#ca)">+3.2% (+24)</text>
<text x="746.9" y="66.0" text-anchor="middle" font-size="9" fill="#4F8EF7" opacity="0.85" clip-path="url(#ca)">+2.6% (+24)</text>
<text x="746.9" y="77.0" text-anchor="middle" font-size="9" fill="#FF6363" opacity="0.85" clip-path="url(#ca)">+3.7% (+1)</text>
<rect x="211" y="369" width="12" height="12" fill="#34C759" rx="2"/>
<text x="227" y="379" font-size="12" fill="#111827">macOS + Windows</text>
<rect x="351" y="369" width="12" height="12" fill="#4F8EF7" rx="2"/>
<text x="367" y="379" font-size="12" fill="#111827">macOS only</text>
<rect x="491" y="369" width="12" height="12" fill="#FF6363" rx="2"/>
<text x="507" y="379" font-size="12" fill="#111827">Windows only</text>
<text x="72" y="394" font-size="8" fill="#e5e7eb">data since Dec 11, 2025</text>
</svg>