<svg xmlns="http://www.w3.org/2000/svg" width="800" height="400" viewBox="0 0 800 400">
<defs>
  <style>text { font-family: -apple-system, BlinkMacSystemFont, 'Segoe UI', Roboto, sans-serif; }</style>
  <linearGradient id="g5" x1="0" y1="0" x2="0" y2="1">
  <stop offset="0%" stop-color="#34C759" stop-opacity="0.25"/>
  <stop offset="100%" stop-color="#34C759" stop-opacity="0"/>
</linearGradient>
<linearGradient id="g6" x1="0" y1="0" x2="0" y2="1">
  <stop offset="0%" stop-color="#4F8EF7" stop-opacity="0.25"/>
  <stop offset="100%" stop-color="#4F8EF7" stop-opacity="0"/>
</linearGradient>
<linearGradient id="g7" x1="0" y1="0" x2="0" y2="1">
  <stop offset="0%" stop-color="#FF6363" stop-opacity="0.25"/>
  <stop offset="100%" stop-color="#FF6363" stop-opacity="0"/>
</linearGradient>
  <clipPath id="ca"><rect x="72" y="45" width="698" height="295"/></clipPath>
</defs>
<rect width="800" height="400" fill="#ffffff" rx="12"/>
<text x="400" y="26" text-anchor="middle" font-size="15" font-weight="600" fill="#111827">Platform Support Over Time</text>
<line x1="72" y1="340.0" x2="770" y2="340.0" stroke="#f3f4f6" stroke-width="1"/>
<text x="66" y="344.0" text-anchor="end" font-size="11" fill="#6b7280">0</text>
<line x1="72" y1="281.0" x2="770" y2="281.0" stroke="#f3f4f6" stroke-width="1"/>
<text x="66" y="285.0" text-anchor="end" font-size="11" fill="#6b7280">200</text>
<line x1="72" y1="222.0" x2="770" y2="222.0" stroke="#f3f4f6" stroke-width="1"/>
<text x="66" y="226.0" text-anchor="end" font-size="11" fill="#6b7280">400</text>
<line x1="72" y1="163.0" x2="770" y2="163.0" stroke="#f3f4f6" stroke-width="1"/>
<text x="66" y="167.0" text-anchor="end" font-size="11" fill="#6b7280">600</text>
<line x1="72" y1="104.0" x2="770" y2="104.0" stroke="#f3f4f6" stroke-width="1"/>
<text x="66" y="108.0" text-anchor="end" font-size="11" fill="#6b7280">800</text>
<line x1="72" y1="45.0" x2="770" y2="45.0" stroke="#f3f4f6" stroke-width="1"/>
<text x="66" y="49.0" text-anchor="end" font-size="11" fill="#6b7280">1.0k</text>
<line x1="116.6" y1="45" x2="116.6" y2="340" stroke="#e5e7eb" stroke-width="1" stroke-dasharray="3,3" clip-path="url(#ca)"/>
<line x1="213.1" y1="45" x2="213.1" y2="340" stroke="#e5e7eb" stroke-width="1" stroke-dasharray="3,3" clip-path="url(#ca)"/>
<line x1="313.3" y1="45" x2="313.3" y2="340" stroke="#e5e7eb" stroke-width="1" stroke-dasharray="3,3" clip-path="url(#ca)"/>
<line x1="413.6" y1="45" x2="413.6" y2="340" stroke="#e5e7eb" stroke-width="1" stroke-dasharray="3,3" clip-path="url(#ca)"/>
<line x1="513.8" y1="45" x2="513.8" y2="340" stroke="#e5e7eb" stroke-width="1" stroke-dasharray="3,3" clip-path="url(#ca)"/>
<line x1="610.4" y1="45" x2="610.4" y2="340" stroke="#e5e7eb" stroke-width="1" stroke-dasharray="3,3" clip-path="url(#ca)"/>
<line x1="699.5" y1="45" x2="699.5" y2="340" stroke="#e5e7eb" stroke-width="1" stroke-dasharray="3,3" clip-path="url(#ca)"/>
<text x="72.0" y="358.0" text-anchor="middle" font-size="11" fill="#6b7280">Dec 11</text>
<text x="213.1" y="358.0" text-anchor="middle" font-size="11" fill="#6b7280">Feb 1</text>
<text x="350.5" y="358.0" text-anchor="middle" font-size="11" fill="#6b7280">Mar 12</text>
<text x="491.5" y="358.0" text-anchor="middle" font-size="11" fill="#6b7280">Apr 24</text>
<text x="628.9" y="358.0" text-anchor="middle" font-size="11" fill="#6b7280">Jun 8</text>
<text x="770.0" y="358.0" text-anchor="middle" font-size="11" fill="#6b7280">Jul 23</text>
<line x1="72" y1="45" x2="72" y2="340" stroke="#e5e7eb" stroke-width="1"/>
<line x1="72" y1="340" x2="770" y2="340" stroke="#e5e7eb" stroke-width="1"/>
<text x="-192.5" y="18" text-anchor="middle" font-size="12" fill="#6b7280" transform="rotate(-90)">Extensions</text>
<path d="M 72.0,340 L 72.0,242.6 L 75.7,240.0 L 79.4,239.7 L 83.1,238.5 L 86.9,237.9 L 90.6,235.0 L 94.3,233.2 L 98.0,232.3 L 101.7,230.8 L 105.4,229.1 L 109.1,228.2 L 112.8,227.9 L 116.6,227.0 L 120.3,226.4 L 124.0,226.1 L 127.7,225.2 L 131.4,224.4 L 135.1,223.5 L 138.8,222.6 L 142.5,221.4 L 146.3,220.5 L 150.0,219.6 L 153.7,218.8 L 157.4,217.0 L 161.1,216.4 L 164.8,216.4 L 168.5,214.3 L 172.2,213.7 L 176.0,213.2 L 179.7,212.6 L 183.4,211.1 L 187.1,209.0 L 190.8,208.7 L 194.5,208.4 L 198.2,206.7 L 201.9,206.1 L 205.7,204.6 L 209.4,204.3 L 213.1,204.0 L 216.8,203.4 L 220.5,203.4 L 224.2,203.4 L 227.9,199.3 L 231.6,199.0 L 235.4,198.1 L 239.1,197.8 L 242.8,197.5 L 246.5,196.6 L 250.2,196.0 L 253.9,195.4 L 257.6,193.7 L 261.4,193.7 L 265.1,193.7 L 268.8,193.4 L 272.5,190.4 L 276.2,189.6 L 279.9,189.0 L 283.6,188.1 L 287.3,187.5 L 291.1,187.5 L 294.8,186.0 L 298.5,183.9 L 302.2,183.4 L 305.9,183.1 L 309.6,182.2 L 313.3,182.2 L 317.0,181.6 L 320.8,180.7 L 324.5,180.1 L 328.2,178.9 L 331.9,177.8 L 335.6,177.5 L 339.3,177.5 L 343.0,176.3 L 346.7,176.3 L 350.5,176.3 L 354.2,174.5 L 357.9,174.2 L 361.6,173.9 L 365.3,173.9 L 369.0,173.6 L 372.7,172.4 L 376.4,171.9 L 380.2,171.0 L 383.9,171.0 L 387.6,170.7 L 391.3,169.5 L 395.0,168.6 L 398.7,168.6 L 402.4,168.3 L 406.1,167.7 L 409.9,165.7 L 413.6,165.1 L 417.3,164.2 L 421.0,164.2 L 424.7,163.6 L 428.4,163.3 L 432.1,163.0 L 435.9,162.7 L 439.6,162.4 L 443.3,162.4 L 447.0,162.1 L 450.7,161.8 L 454.4,160.9 L 458.1,159.8 L 461.8,159.5 L 465.6,158.6 L 469.3,158.6 L 473.0,157.4 L 476.7,157.1 L 480.4,157.1 L 484.1,157.1 L 487.8,156.2 L 491.5,155.9 L 495.3,155.9 L 499.0,155.9 L 502.7,155.6 L 506.4,154.4 L 510.1,154.2 L 513.8,153.3 L 517.5,152.7 L 521.2,152.7 L 525.0,151.8 L 528.7,151.2 L 532.4,151.2 L 536.1,150.9 L 539.8,149.4 L 543.5,148.0 L 547.2,147.7 L 550.9,147.1 L 554.7,145.9 L 558.4,145.9 L 562.1,145.3 L 565.8,143.8 L 569.5,141.2 L 573.2,140.3 L 576.9,140.3 L 580.6,140.3 L 584.4,140.3 L 588.1,140.3 L 591.8,139.1 L 595.5,138.2 L 599.2,138.2 L 602.9,138.2 L 606.6,138.2 L 610.4,137.3 L 614.1,137.3 L 617.8,136.5 L 621.5,135.6 L 625.2,135.3 L 628.9,135.0 L 632.6,134.4 L 636.3,134.4 L 640.1,133.5 L 643.8,132.3 L 647.5,131.4 L 651.2,129.7 L 654.9,129.1 L 658.6,128.8 L 662.3,128.5 L 666.0,127.9 L 669.8,127.6 L 673.5,126.1 L 677.2,125.2 L 680.9,123.8 L 684.6,123.5 L 688.3,123.5 L 692.0,123.2 L 695.7,122.0 L 699.5,121.7 L 703.2,121.4 L 706.9,121.1 L 710.6,119.9 L 714.3,119.6 L 718.0,118.2 L 721.7,117.3 L 725.4,117.0 L 729.2,115.2 L 732.9,115.2 L 736.6,115.2 L 740.3,115.2 L 744.0,114.6 L 747.7,114.6 L 751.4,114.3 L 755.1,114.3 L 758.9,114.0 L 762.6,113.7 L 766.3,113.4 L 770.0,112.3 L 770.0,340 Z" fill="url(#g5)" clip-path="url(#ca)"/>
<path d="M 72.0,242.6 L 75.7,240.0 L 79.4,239.7 L 83.1,238.5 L 86.9,237.9 L 90.6,235.0 L 94.3,233.2 L 98.0,232.3 L 101.7,230.8 L 105.4,229.1 L 109.1,228.2 L 112.8,227.9 L 116.6,227.0 L 120.3,226.4 L 124.0,226.1 L 127.7,225.2 L 131.4,224.4 L 135.1,223.5 L 138.8,222.6 L 142.5,221.4 L 146.3,220.5 L 150.0,219.6 L 153.7,218.8 L 157.4,217.0 L 161.1,216.4 L 164.8,216.4 L 168.5,214.3 L 172.2,213.7 L 176.0,213.2 L 179.7,212.6 L 183.4,211.1 L 187.1,209.0 L 190.8,208.7 L 194.5,208.4 L 198.2,206.7 L 201.9,206.1 L 205.7,204.6 L 209.4,204.3 L 213.1,204.0 L 216.8,203.4 L 220.5,203.4 L 224.2,203.4 L 227.9,199.3 L 231.6,199.0 L 235.4,198.1 L 239.1,197.8 L 242.8,197.5 L 246.5,196.6 L 250.2,196.0 L 253.9,195.4 L 257.6,193.7 L 261.4,193.7 L 265.1,193.7 L 268.8,193.4 L 272.5,190.4 L 276.2,189.6 L 279.9,189.0 L 283.6,188.1 L 287.3,187.5 L 291.1,187.5 L 294.8,186.0 L 298.5,183.9 L 302.2,183.4 L 305.9,183.1 L 309.6,182.2 L 313.3,182.2 L 317.0,181.6 L 320.8,180.7 L 324.5,180.1 L 328.2,178.9 L 331.9,177.8 L 335.6,177.5 L 339.3,177.5 L 343.0,176.3 L 346.7,176.3 L 350.5,176.3 L 354.2,174.5 L 357.9,174.2 L 361.6,173.9 L 365.3,173.9 L 369.0,173.6 L 372.7,172.4 L 376.4,171.9 L 380.2,171.0 L 383.9,171.0 L 387.6,170.7 L 391.3,169.5 L 395.0,168.6 L 398.7,168.6 L 402.4,168.3 L 406.1,167.7 L 409.9,165.7 L 413.6,165.1 L 417.3,164.2 L 421.0,164.2 L 424.7,163.6 L 428.4,163.3 L 432.1,163.0 L 435.9,162.7 L 439.6,162.4 L 443.3,162.4 L 447.0,162.1 L 450.7,161.8 L 454.4,160.9 L 458.1,159.8 L 461.8,159.5 L 465.6,158.6 L 469.3,158.6 L 473.0,157.4 L 476.7,157.1 L 480.4,157.1 L 484.1,157.1 L 487.8,156.2 L 491.5,155.9 L 495.3,155.9 L 499.0,155.9 L 502.7,155.6 L 506.4,154.4 L 510.1,154.2 L 513.8,153.3 L 517.5,152.7 L 521.2,152.7 L 525.0,151.8 L 528.7,151.2 L 532.4,151.2 L 536.1,150.9 L 539.8,149.4 L 543.5,148.0 L 547.2,147.7 L 550.9,147.1 L 554.7,145.9 L 558.4,145.9 L 562.1,145.3 L 565.8,143.8 L 569.5,141.2 L 573.2,140.3 L 576.9,140.3 L 580.6,140.3 L 584.4,140.3 L 588.1,140.3 L 591.8,139.1 L 595.5,138.2 L 599.2,138.2 L 602.9,138.2 L 606.6,138.2 L 610.4,137.3 L 614.1,137.3 L 617.8,136.5 L 621.5,135.6 L 625.2,135.3 L 628.9,135.0 L 632.6,134.4 L 636.3,134.4 L 640.1,133.5 L 643.8,132.3 L 647.5,131.4 L 651.2,129.7 L 654.9,129.1 L 658.6,128.8 L 662.3,128.5 L 666.0,127.9 L 669.8,127.6 L 673.5,126.1 L 677.2,125.2 L 680.9,123.8 L 684.6,123.5 L 688.3,123.5 L 692.0,123.2 L 695.7,122.0 L 699.5,121.7 L 703.2,121.4 L 706.9,121.1 L 710.6,119.9 L 714.3,119.6 L 718.0,118.2 L 721.7,117.3 L 725.4,117.0 L 729.2,115.2 L 732.9,115.2 L 736.6,115.2 L 740.3,115.2 L 744.0,114.6 L 747.7,114.6 L 751.4,114.3 L 755.1,114.3 L 758.9,114.0 L 762.6,113.7 L 766.3,113.4 L 770.0,112.3" fill="none" stroke="#34C759" stroke-width="2.5" stroke-linejoin="round" clip-path="url(#ca)"/>
<path d="M 72.0,340 L 72.0,222.6 L 75.7,222.6 L 79.4,222.3 L 83.1,221.4 L 86.9,221.7 L 90.6,221.7 L 94.3,220.5 L 98.0,219.6 L 101.7,219.6 L 105.4,219.9 L 109.1,219.6 L 112.8,219.3 L 116.6,219.1 L 120.3,219.1 L 124.0,219.1 L 127.7,219.3 L 131.4,218.8 L 135.1,218.2 L 138.8,216.4 L 142.5,215.2 L 146.3,215.2 L 150.0,214.9 L 153.7,213.2 L 157.4,210.5 L 161.1,209.6 L 164.8,209.0 L 168.5,207.0 L 172.2,205.5 L 176.0,204.9 L 179.7,204.3 L 183.4,203.7 L 187.1,203.4 L 190.8,203.4 L 194.5,201.3 L 198.2,200.8 L 201.9,200.2 L 205.7,200.2 L 209.4,198.7 L 213.1,198.4 L 216.8,197.5 L 220.5,196.3 L 224.2,194.9 L 227.9,192.8 L 231.6,190.7 L 235.4,190.4 L 239.1,189.8 L 242.8,189.3 L 246.5,187.5 L 250.2,187.5 L 253.9,186.9 L 257.6,186.0 L 261.4,185.4 L 265.1,184.2 L 268.8,184.5 L 272.5,181.0 L 276.2,180.7 L 279.9,180.4 L 283.6,179.8 L 287.3,178.0 L 291.1,178.0 L 294.8,176.3 L 298.5,174.2 L 302.2,174.2 L 305.9,174.2 L 309.6,173.9 L 313.3,173.6 L 317.0,173.3 L 320.8,171.9 L 324.5,170.1 L 328.2,169.5 L 331.9,168.3 L 335.6,168.3 L 339.3,167.4 L 343.0,165.7 L 346.7,164.8 L 350.5,164.5 L 354.2,162.4 L 357.9,162.1 L 361.6,162.1 L 365.3,161.8 L 369.0,161.8 L 372.7,160.3 L 376.4,159.8 L 380.2,158.9 L 383.9,158.6 L 387.6,158.0 L 391.3,155.6 L 395.0,152.4 L 398.7,152.1 L 402.4,151.5 L 406.1,151.2 L 409.9,149.7 L 413.6,118.5 L 417.3,117.9 L 421.0,116.4 L 424.7,116.4 L 428.4,116.4 L 432.1,116.7 L 435.9,116.4 L 439.6,114.6 L 443.3,114.0 L 447.0,113.7 L 450.7,113.4 L 454.4,112.3 L 458.1,110.5 L 461.8,110.5 L 465.6,110.5 L 469.3,110.2 L 473.0,109.9 L 476.7,109.9 L 480.4,109.3 L 484.1,108.4 L 487.8,106.9 L 491.5,106.4 L 495.3,106.1 L 499.0,106.1 L 502.7,105.8 L 506.4,105.2 L 510.1,104.9 L 513.8,103.4 L 517.5,103.4 L 521.2,102.8 L 525.0,101.6 L 528.7,100.2 L 532.4,99.9 L 536.1,99.6 L 539.8,96.9 L 543.5,96.3 L 547.2,95.7 L 550.9,95.7 L 554.7,94.6 L 558.4,94.0 L 562.1,92.5 L 565.8,91.9 L 569.5,91.0 L 573.2,90.7 L 576.9,89.5 L 580.6,88.7 L 584.4,88.4 L 588.1,87.8 L 591.8,86.6 L 595.5,86.0 L 599.2,85.1 L 602.9,84.5 L 606.6,84.2 L 610.4,83.6 L 614.1,82.8 L 617.8,82.2 L 621.5,81.6 L 625.2,80.7 L 628.9,80.7 L 632.6,80.1 L 636.3,78.6 L 640.1,77.2 L 643.8,76.3 L 647.5,76.6 L 651.2,76.0 L 654.9,75.7 L 658.6,75.4 L 662.3,74.8 L 666.0,73.3 L 669.8,73.3 L 673.5,73.0 L 677.2,72.1 L 680.9,71.3 L 684.6,70.1 L 688.3,69.5 L 692.0,69.5 L 695.7,68.6 L 699.5,68.0 L 703.2,67.4 L 706.9,66.5 L 710.6,65.9 L 714.3,65.9 L 718.0,65.6 L 721.7,66.2 L 725.4,65.6 L 729.2,64.2 L 732.9,63.3 L 736.6,62.7 L 740.3,62.1 L 744.0,60.9 L 747.7,58.9 L 751.4,58.6 L 755.1,58.0 L 758.9,57.1 L 762.6,57.1 L 766.3,56.2 L 770.0,54.7 L 770.0,340 Z" fill="url(#g6)" clip-path="url(#ca)"/>
<path d="M 72.0,222.6 L 75.7,222.6 L 79.4,222.3 L 83.1,221.4 L 86.9,221.7 L 90.6,221.7 L 94.3,220.5 L 98.0,219.6 L 101.7,219.6 L 105.4,219.9 L 109.1,219.6 L 112.8,219.3 L 116.6,219.1 L 120.3,219.1 L 124.0,219.1 L 127.7,219.3 L 131.4,218.8 L 135.1,218.2 L 138.8,216.4 L 142.5,215.2 L 146.3,215.2 L 150.0,214.9 L 153.7,213.2 L 157.4,210.5 L 161.1,209.6 L 164.8,209.0 L 168.5,207.0 L 172.2,205.5 L 176.0,204.9 L 179.7,204.3 L 183.4,203.7 L 187.1,203.4 L 190.8,203.4 L 194.5,201.3 L 198.2,200.8 L 201.9,200.2 L 205.7,200.2 L 209.4,198.7 L 213.1,198.4 L 216.8,197.5 L 220.5,196.3 L 224.2,194.9 L 227.9,192.8 L 231.6,190.7 L 235.4,190.4 L 239.1,189.8 L 242.8,189.3 L 246.5,187.5 L 250.2,187.5 L 253.9,186.9 L 257.6,186.0 L 261.4,185.4 L 265.1,184.2 L 268.8,184.5 L 272.5,181.0 L 276.2,180.7 L 279.9,180.4 L 283.6,179.8 L 287.3,178.0 L 291.1,178.0 L 294.8,176.3 L 298.5,174.2 L 302.2,174.2 L 305.9,174.2 L 309.6,173.9 L 313.3,173.6 L 317.0,173.3 L 320.8,171.9 L 324.5,170.1 L 328.2,169.5 L 331.9,168.3 L 335.6,168.3 L 339.3,167.4 L 343.0,165.7 L 346.7,164.8 L 350.5,164.5 L 354.2,162.4 L 357.9,162.1 L 361.6,162.1 L 365.3,161.8 L 369.0,161.8 L 372.7,160.3 L 376.4,159.8 L 380.2,158.9 L 383.9,158.6 L 387.6,158.0 L 391.3,155.6 L 395.0,152.4 L 398.7,152.1 L 402.4,151.5 L 406.1,151.2 L 409.9,149.7 L 413.6,118.5 L 417.3,117.9 L 421.0,116.4 L 424.7,116.4 L 428.4,116.4 L 432.1,116.7 L 435.9,116.4 L 439.6,114.6 L 443.3,114.0 L 447.0,113.7 L 450.7,113.4 L 454.4,112.3 L 458.1,110.5 L 461.8,110.5 L 465.6,110.5 L 469.3,110.2 L 473.0,109.9 L 476.7,109.9 L 480.4,109.3 L 484.1,108.4 L 487.8,106.9 L 491.5,106.4 L 495.3,106.1 L 499.0,106.1 L 502.7,105.8 L 506.4,105.2 L 510.1,104.9 L 513.8,103.4 L 517.5,103.4 L 521.2,102.8 L 525.0,101.6 L 528.7,100.2 L 532.4,99.9 L 536.1,99.6 L 539.8,96.9 L 543.5,96.3 L 547.2,95.7 L 550.9,95.7 L 554.7,94.6 L 558.4,94.0 L 562.1,92.5 L 565.8,91.9 L 569.5,91.0 L 573.2,90.7 L 576.9,89.5 L 580.6,88.7 L 584.4,88.4 L 588.1,87.8 L 591.8,86.6 L 595.5,86.0 L 599.2,85.1 L 602.9,84.5 L 606.6,84.2 L 610.4,83.6 L 614.1,82.8 L 617.8,82.2 L 621.5,81.6 L 625.2,80.7 L 628.9,80.7 L 632.6,80.1 L 636.3,78.6 L 640.1,77.2 L 643.8,76.3 L 647.5,76.6 L 651.2,76.0 L 654.9,75.7 L 658.6,75.4 L 662.3,74.8 L 666.0,73.3 L 669.8,73.3 L 673.5,73.0 L 677.2,72.1 L 680.9,71.3 L 684.6,70.1 L 688.3,69.5 L 692.0,69.5 L 695.7,68.6 L 699.5,68.0 L 703.2,67.4 L 706.9,66.5 L 710.6,65.9 L 714.3,65.9 L 718.0,65.6 L 721.7,66.2 L 725.4,65.6 L 729.2,64.2 L 732.9,63.3 L 736.6,62.7 L 740.3,62.1 L 744.0,60.9 L 747.7,58.9 L 751.4,58.6 L 755.1,58.0 L 758.9,57.1 L 762.6,57.1 L 766.3,56.2 L 770.0,54.7" fill="none" stroke="#4F8EF7" stroke-width="2.5" stroke-linejoin="round" clip-path="url(#ca)"/>
<path d="M 72.0,340 L 72.0,338.2 L 75.7,337.9 L 79.4,337.9 L 83.1,337.6 L 86.9,337.6 L 90.6,337.6 L 94.3,337.6 L 98.0,337.6 L 101.7,337.1 L 105.4,337.1 L 109.1,337.1 L 112.8,337.1 L 116.6,337.1 L 120.3,336.8 L 124.0,336.8 L 127.7,336.8 L 131.4,336.8 L 135.1,336.8 L 138.8,336.5 L 142.5,335.9 L 146.3,335.6 L 150.0,335.6 L 153.7,335.6 L 157.4,335.3 L 161.1,335.3 L 164.8,335.3 L 168.5,335.0 L 172.2,335.0 L 176.0,335.0 L 179.7,334.7 L 183.4,334.7 L 187.1,334.7 L 190.8,334.7 L 194.5,334.4 L 198.2,334.4 L 201.9,334.4 L 205.7,334.4 L 209.4,334.4 L 213.1,334.4 L 216.8,334.4 L 220.5,334.4 L 224.2,334.4 L 227.9,334.4 L 231.6,334.4 L 235.4,334.4 L 239.1,334.4 L 242.8,334.1 L 246.5,334.1 L 250.2,334.1 L 253.9,334.1 L 257.6,334.1 L 261.4,334.1 L 265.1,334.1 L 268.8,334.1 L 272.5,334.1 L 276.2,334.1 L 279.9,334.1 L 283.6,334.1 L 287.3,333.8 L 291.1,333.8 L 294.8,333.8 L 298.5,333.8 L 302.2,333.8 L 305.9,333.8 L 309.6,333.8 L 313.3,333.8 L 317.0,333.8 L 320.8,333.8 L 324.5,333.8 L 328.2,333.8 L 331.9,333.8 L 335.6,333.8 L 339.3,333.8 L 343.0,333.8 L 346.7,333.8 L 350.5,333.8 L 354.2,333.8 L 357.9,333.8 L 361.6,333.8 L 365.3,333.8 L 369.0,333.8 L 372.7,333.8 L 376.4,333.8 L 380.2,333.8 L 383.9,333.8 L 387.6,333.8 L 391.3,333.8 L 395.0,333.8 L 398.7,333.8 L 402.4,333.8 L 406.1,333.8 L 409.9,333.8 L 413.6,333.8 L 417.3,333.8 L 421.0,333.5 L 424.7,333.5 L 428.4,333.5 L 432.1,333.5 L 435.9,333.5 L 439.6,333.2 L 443.3,333.2 L 447.0,333.2 L 450.7,333.2 L 454.4,332.9 L 458.1,332.9 L 461.8,332.6 L 465.6,332.6 L 469.3,332.6 L 473.0,332.6 L 476.7,332.6 L 480.4,332.6 L 484.1,332.6 L 487.8,332.6 L 491.5,332.6 L 495.3,332.6 L 499.0,332.6 L 502.7,332.6 L 506.4,332.6 L 510.1,332.6 L 513.8,332.6 L 517.5,332.6 L 521.2,332.6 L 525.0,332.6 L 528.7,332.6 L 532.4,332.6 L 536.1,332.6 L 539.8,332.6 L 543.5,332.6 L 547.2,332.6 L 550.9,332.6 L 554.7,332.6 L 558.4,332.6 L 562.1,332.6 L 565.8,332.6 L 569.5,332.6 L 573.2,332.6 L 576.9,332.6 L 580.6,332.6 L 584.4,332.6 L 588.1,332.6 L 591.8,332.6 L 595.5,332.6 L 599.2,332.6 L 602.9,332.6 L 606.6,332.6 L 610.4,332.6 L 614.1,332.6 L 617.8,332.6 L 621.5,332.6 L 625.2,332.6 L 628.9,332.6 L 632.6,332.6 L 636.3,332.6 L 640.1,332.3 L 643.8,332.3 L 647.5,332.3 L 651.2,332.3 L 654.9,332.3 L 658.6,332.3 L 662.3,332.3 L 666.0,332.3 L 669.8,332.3 L 673.5,332.3 L 677.2,332.3 L 680.9,332.0 L 684.6,332.0 L 688.3,332.0 L 692.0,332.0 L 695.7,332.0 L 699.5,332.0 L 703.2,332.0 L 706.9,332.0 L 710.6,332.0 L 714.3,332.0 L 718.0,332.0 L 721.7,332.0 L 725.4,332.0 L 729.2,332.0 L 732.9,331.7 L 736.6,331.7 L 740.3,331.7 L 744.0,331.7 L 747.7,331.7 L 751.4,331.7 L 755.1,331.7 L 758.9,331.7 L 762.6,331.7 L 766.3,331.7 L 770.0,331.7 L 770.0,340 Z" fill="url(#g7)" clip-path="url(#ca)"/>
<path d="M 72.0,338.2 L 75.7,337.9 L 79.4,337.9 L 83.1,337.6 L 86.9,337.6 L 90.6,337.6 L 94.3,337.6 L 98.0,337.6 L 101.7,337.1 L 105.4,337.1 L 109.1,337.1 L 112.8,337.1 L 116.6,337.1 L 120.3,336.8 L 124.0,336.8 L 127.7,336.8 L 131.4,336.8 L 135.1,336.8 L 138.8,336.5 L 142.5,335.9 L 146.3,335.6 L 150.0,335.6 L 153.7,335.6 L 157.4,335.3 L 161.1,335.3 L 164.8,335.3 L 168.5,335.0 L 172.2,335.0 L 176.0,335.0 L 179.7,334.7 L 183.4,334.7 L 187.1,334.7 L 190.8,334.7 L 194.5,334.4 L 198.2,334.4 L 201.9,334.4 L 205.7,334.4 L 209.4,334.4 L 213.1,334.4 L 216.8,334.4 L 220.5,334.4 L 224.2,334.4 L 227.9,334.4 L 231.6,334.4 L 235.4,334.4 L 239.1,334.4 L 242.8,334.1 L 246.5,334.1 L 250.2,334.1 L 253.9,334.1 L 257.6,334.1 L 261.4,334.1 L 265.1,334.1 L 268.8,334.1 L 272.5,334.1 L 276.2,334.1 L 279.9,334.1 L 283.6,334.1 L 287.3,333.8 L 291.1,333.8 L 294.8,333.8 L 298.5,333.8 L 302.2,333.8 L 305.9,333.8 L 309.6,333.8 L 313.3,333.8 L 317.0,333.8 L 320.8,333.8 L 324.5,333.8 L 328.2,333.8 L 331.9,333.8 L 335.6,333.8 L 339.3,333.8 L 343.0,333.8 L 346.7,333.8 L 350.5,333.8 L 354.2,333.8 L 357.9,333.8 L 361.6,333.8 L 365.3,333.8 L 369.0,333.8 L 372.7,333.8 L 376.4,333.8 L 380.2,333.8 L 383.9,333.8 L 387.6,333.8 L 391.3,333.8 L 395.0,333.8 L 398.7,333.8 L 402.4,333.8 L 406.1,333.8 L 409.9,333.8 L 413.6,333.8 L 417.3,333.8 L 421.0,333.5 L 424.7,333.5 L 428.4,333.5 L 432.1,333.5 L 435.9,333.5 L 439.6,333.2 L 443.3,333.2 L 447.0,333.2 L 450.7,333.2 L 454.4,332.9 L 458.1,332.9 L 461.8,332.6 L 465.6,332.6 L 469.3,332.6 L 473.0,332.6 L 476.7,332.6 L 480.4,332.6 L 484.1,332.6 L 487.8,332.6 L 491.5,332.6 L 495.3,332.6 L 499.0,332.6 L 502.7,332.6 L 506.4,332.6 L 510.1,332.6 L 513.8,332.6 L 517.5,332.6 L 521.2,332.6 L 525.0,332.6 L 528.7,332.6 L 532.4,332.6 L 536.1,332.6 L 539.8,332.6 L 543.5,332.6 L 547.2,332.6 L 550.9,332.6 L 554.7,332.6 L 558.4,332.6 L 562.1,332.6 L 565.8,332.6 L 569.5,332.6 L 573.2,332.6 L 576.9,332.6 L 580.6,332.6 L 584.4,332.6 L 588.1,332.6 L 591.8,332.6 L 595.5,332.6 L 599.2,332.6 L 602.9,332.6 L 606.6,332.6 L 610.4,332.6 L 614.1,332.6 L 617.8,332.6 L 621.5,332.6 L 625.2,332.6 L 628.9,332.6 L 632.6,332.6 L 636.3,332.6 L 640.1,332.3 L 643.8,332.3 L 647.5,332.3 L 651.2,332.3 L 654.9,332.3 L 658.6,332.3 L 662.3,332.3 L 666.0,332.3 L 669.8,332.3 L 673.5,332.3 L 677.2,332.3 L 680.9,332.0 L 684.6,332.0 L 688.3,332.0 L 692.0,332.0 L 695.7,332.0 L 699.5,332.0 L 703.2,332.0 L 706.9,332.0 L 710.6,332.0 L 714.3,332.0 L 718.0,332.0 L 721.7,332.0 L 725.4,332.0 L 729.2,332.0 L 732.9,331.7 L 736.6,331.7 L 740.3,331.7 L 744.0,331.7 L 747.7,331.7 L 751.4,331.7 L 755.1,331.7 L 758.9,331.7 L 762.6,331.7 L 766.3,331.7 L 770.0,331.7" fill="none" stroke="#FF6363" stroke-width="2.5" stroke-linejoin="round" clip-path="url(#ca)"/>
<text x="92.4" y="55.0" text-anchor="middle" font-size="9" fill="#34C759" opacity="0.85" clip-path="url(#ca)">+15.2% (+50)</text>
<text x="92.4" y="66.0" text-anchor="middle" font-size="9" fill="#4F8EF7" opacity="0.85" clip-path="url(#ca)">+2.8% (+11)</text>
<text x="92.4" y="77.0" text-anchor="middle" font-size="9" fill="#FF6363" opacity="0.85" clip-path="url(#ca)">+66.7% (+4)</text>
<text x="163.0" y="55.0" text-anchor="middle" font-size="9" fill="#34C759" opacity="0.85" clip-path="url(#ca)">+20.1% (+77)</text>
<text x="163.0" y="66.0" text-anchor="middle" font-size="9" fill="#4F8EF7" opacity="0.85" clip-path="url(#ca)">+16.8% (+69)</text>
<text x="163.0" y="77.0" text-anchor="middle" font-size="9" fill="#FF6363" opacity="0.85" clip-path="url(#ca)">+90.0% (+9)</text>
<text x="261.4" y="55.0" text-anchor="middle" font-size="9" fill="#34C759" opacity="0.85" clip-path="url(#ca)">+16.1% (+74)</text>
<text x="261.4" y="66.0" text-anchor="middle" font-size="9" fill="#4F8EF7" opacity="0.85" clip-path="url(#ca)">+17.3% (+83)</text>
<text x="261.4" y="77.0" text-anchor="middle" font-size="9" fill="#FF6363" opacity="0.85" clip-path="url(#ca)">+10.5% (+2)</text>
<text x="361.6" y="55.0" text-anchor="middle" font-size="9" fill="#34C759" opacity="0.85" clip-path="url(#ca)">+10.5% (+56)</text>
<text x="361.6" y="66.0" text-anchor="middle" font-size="9" fill="#4F8EF7" opacity="0.85" clip-path="url(#ca)">+14.4% (+81)</text>
<text x="361.6" y="77.0" text-anchor="middle" font-size="9" fill="#FF6363" opacity="0.85" clip-path="url(#ca)">+0.0% (+0)</text>
<text x="461.8" y="55.0" text-anchor="middle" font-size="9" fill="#34C759" opacity="0.85" clip-path="url(#ca)">+6.2% (+37)</text>
<text x="461.8" y="66.0" text-anchor="middle" font-size="9" fill="#4F8EF7" opacity="0.85" clip-path="url(#ca)">+6.1% (+46)</text>
<text x="461.8" y="77.0" text-anchor="middle" font-size="9" fill="#FF6363" opacity="0.85" clip-path="url(#ca)">+19.0% (+4)</text>
<text x="560.2" y="55.0" text-anchor="middle" font-size="9" fill="#34C759" opacity="0.85" clip-path="url(#ca)">+8.1% (+51)</text>
<text x="560.2" y="66.0" text-anchor="middle" font-size="9" fill="#4F8EF7" opacity="0.85" clip-path="url(#ca)">+8.1% (+65)</text>
<text x="560.2" y="77.0" text-anchor="middle" font-size="9" fill="#FF6363" opacity="0.85" clip-path="url(#ca)">+0.0% (+0)</text>
<text x="653.0" y="55.0" text-anchor="middle" font-size="9" fill="#34C759" opacity="0.85" clip-path="url(#ca)">+7.6% (+52)</text>
<text x="653.0" y="66.0" text-anchor="middle" font-size="9" fill="#4F8EF7" opacity="0.85" clip-path="url(#ca)">+5.9% (+51)</text>
<text x="653.0" y="77.0" text-anchor="middle" font-size="9" fill="#FF6363" opacity="0.85" clip-path="url(#ca)">+8.0% (+2)</text>
<text x="734.7" y="55.0" text-anchor="middle" font-size="9" fill="#34C759" opacity="0.85" clip-path="url(#ca)">+4.3% (+32)</text>
<text x="734.7" y="66.0" text-anchor="middle" font-size="9" fill="#4F8EF7" opacity="0.85" clip-path="url(#ca)">+4.9% (+45)</text>
<text x="734.7" y="77.0" text-anchor="middle" font-size="9" fill="#FF6363" opacity="0.85" clip-path="url(#ca)">+3.7% (+1)</text>
<rect x="211" y="369" width="12" height="12" fill="#34C759" rx="2"/>
<text x="227" y="379" font-size="12" fill="#111827">macOS + Windows</text>
<rect x="351" y="369" width="12" height="12" fill="#4F8EF7" rx="2"/>
<text x="367" y="379" font-size="12" fill="#111827">macOS only</text>
<rect x="491" y="369" width="12" height="12" fill="#FF6363" rx="2"/>
<text x="507" y="379" font-size="12" fill="#111827">Windows only</text>
<text x="72" y="394" font-size="8" fill="#e5e7eb">data since Dec 11, 2025</text>
</svg>