<svg xmlns="http://www.w3.org/2000/svg" width="800" height="400" viewBox="0 0 800 400">
<defs>
  <style>text { font-family: -apple-system, BlinkMacSystemFont, 'Segoe UI', Roboto, sans-serif; }</style>
  <linearGradient id="g5" x1="0" y1="0" x2="0" y2="1">
  <stop offset="0%" stop-color="#34C759" stop-opacity="0.25"/>
  <stop offset="100%" stop-color="#34C759" stop-opacity="0"/>
</linearGradient>
<linearGradient id="g6" x1="0" y1="0" x2="0" y2="1">
  <stop offset="0%" stop-color="#4F8EF7" stop-opacity="0.25"/>
  <stop offset="100%" stop-color="#4F8EF7" stop-opacity="0"/>
</linearGradient>
<linearGradient id="g7" x1="0" y1="0" x2="0" y2="1">
  <stop offset="0%" stop-color="#FF6363" stop-opacity="0.25"/>
  <stop offset="100%" stop-color="#FF6363" stop-opacity="0"/>
</linearGradient>
  <clipPath id="ca"><rect x="72" y="45" width="698" height="295"/></clipPath>
</defs>
<rect width="800" height="400" fill="#ffffff" rx="12"/>
<text x="400" y="26" text-anchor="middle" font-size="15" font-weight="600" fill="#111827">Platform Support Over Time</text>
<line x1="72" y1="340.0" x2="770" y2="340.0" stroke="#f3f4f6" stroke-width="1"/>
<text x="66" y="344.0" text-anchor="end" font-size="11" fill="#6b7280">0</text>
<line x1="72" y1="266.3" x2="770" y2="266.3" stroke="#f3f4f6" stroke-width="1"/>
<text x="66" y="270.3" text-anchor="end" font-size="11" fill="#6b7280">200</text>
<line x1="72" y1="192.5" x2="770" y2="192.5" stroke="#f3f4f6" stroke-width="1"/>
<text x="66" y="196.5" text-anchor="end" font-size="11" fill="#6b7280">400</text>
<line x1="72" y1="118.8" x2="770" y2="118.8" stroke="#f3f4f6" stroke-width="1"/>
<text x="66" y="122.8" text-anchor="end" font-size="11" fill="#6b7280">600</text>
<line x1="72" y1="45.0" x2="770" y2="45.0" stroke="#f3f4f6" stroke-width="1"/>
<text x="66" y="49.0" text-anchor="end" font-size="11" fill="#6b7280">800</text>
<line x1="143.0" y1="45" x2="143.0" y2="340" stroke="#e5e7eb" stroke-width="1" stroke-dasharray="3,3" clip-path="url(#ca)"/>
<line x1="296.8" y1="45" x2="296.8" y2="340" stroke="#e5e7eb" stroke-width="1" stroke-dasharray="3,3" clip-path="url(#ca)"/>
<line x1="456.5" y1="45" x2="456.5" y2="340" stroke="#e5e7eb" stroke-width="1" stroke-dasharray="3,3" clip-path="url(#ca)"/>
<line x1="616.2" y1="45" x2="616.2" y2="340" stroke="#e5e7eb" stroke-width="1" stroke-dasharray="3,3" clip-path="url(#ca)"/>
<text x="72.0" y="358.0" text-anchor="middle" font-size="11" fill="#6b7280">Dec 11</text>
<text x="214.0" y="358.0" text-anchor="middle" font-size="11" fill="#6b7280">Jan 17</text>
<text x="350.0" y="358.0" text-anchor="middle" font-size="11" fill="#6b7280">Feb 10</text>
<text x="492.0" y="358.0" text-anchor="middle" font-size="11" fill="#6b7280">Mar 8</text>
<text x="628.0" y="358.0" text-anchor="middle" font-size="11" fill="#6b7280">Apr 3</text>
<text x="770.0" y="358.0" text-anchor="middle" font-size="11" fill="#6b7280">Apr 30</text>
<line x1="72" y1="45" x2="72" y2="340" stroke="#e5e7eb" stroke-width="1"/>
<line x1="72" y1="340" x2="770" y2="340" stroke="#e5e7eb" stroke-width="1"/>
<text x="-192.5" y="18" text-anchor="middle" font-size="12" fill="#6b7280" transform="rotate(-90)">Extensions</text>
<path d="M 72.0,340 L 72.0,218.3 L 77.9,215.0 L 83.8,214.6 L 89.7,213.2 L 95.7,212.4 L 101.6,208.7 L 107.5,206.5 L 113.4,205.4 L 119.3,203.6 L 125.2,201.3 L 131.2,200.2 L 137.1,199.9 L 143.0,198.8 L 148.9,198.0 L 154.8,197.7 L 160.7,196.6 L 166.6,195.4 L 172.6,194.3 L 178.5,193.2 L 184.4,191.8 L 190.3,190.7 L 196.2,189.6 L 202.1,188.4 L 208.1,186.2 L 214.0,185.5 L 219.9,185.5 L 225.8,182.9 L 231.7,182.2 L 237.6,181.4 L 243.5,180.7 L 249.5,178.9 L 255.4,176.3 L 261.3,175.9 L 267.2,175.5 L 273.1,173.3 L 279.0,172.6 L 284.9,170.7 L 290.9,170.4 L 296.8,170.0 L 302.7,169.3 L 308.6,169.3 L 314.5,169.3 L 320.4,164.1 L 326.4,163.7 L 332.3,162.6 L 338.2,162.3 L 344.1,161.9 L 350.0,160.8 L 355.9,160.1 L 361.8,159.3 L 367.8,157.1 L 373.7,157.1 L 379.6,157.1 L 385.5,156.7 L 391.4,153.0 L 397.3,151.9 L 403.3,151.2 L 409.2,150.1 L 415.1,149.4 L 421.0,149.4 L 426.9,147.5 L 432.8,144.9 L 438.7,144.2 L 444.7,143.8 L 450.6,142.7 L 456.5,142.7 L 462.4,142.0 L 468.3,140.9 L 474.2,140.1 L 480.2,138.7 L 486.1,137.2 L 492.0,136.8 L 497.9,136.8 L 503.8,135.3 L 509.7,135.3 L 515.6,135.3 L 521.6,133.1 L 527.5,132.8 L 533.4,132.4 L 539.3,132.4 L 545.2,132.0 L 551.1,130.6 L 557.1,129.8 L 563.0,128.7 L 568.9,128.7 L 574.8,128.3 L 580.7,126.9 L 586.6,125.8 L 592.5,125.8 L 598.5,125.4 L 604.4,124.7 L 610.3,122.1 L 616.2,121.3 L 622.1,120.2 L 628.0,120.2 L 633.9,119.5 L 639.9,119.1 L 645.8,118.8 L 651.7,118.4 L 657.6,118.0 L 663.5,118.0 L 669.4,117.6 L 675.4,117.3 L 681.3,116.2 L 687.2,114.7 L 693.1,114.3 L 699.0,113.2 L 704.9,113.2 L 710.8,111.7 L 716.8,111.4 L 722.7,111.4 L 728.6,111.4 L 734.5,110.3 L 740.4,109.9 L 746.3,109.9 L 752.3,109.9 L 758.2,109.5 L 764.1,108.1 L 770.0,107.7 L 770.0,340 Z" fill="url(#g5)" clip-path="url(#ca)"/>
<path d="M 72.0,218.3 L 77.9,215.0 L 83.8,214.6 L 89.7,213.2 L 95.7,212.4 L 101.6,208.7 L 107.5,206.5 L 113.4,205.4 L 119.3,203.6 L 125.2,201.3 L 131.2,200.2 L 137.1,199.9 L 143.0,198.8 L 148.9,198.0 L 154.8,197.7 L 160.7,196.6 L 166.6,195.4 L 172.6,194.3 L 178.5,193.2 L 184.4,191.8 L 190.3,190.7 L 196.2,189.6 L 202.1,188.4 L 208.1,186.2 L 214.0,185.5 L 219.9,185.5 L 225.8,182.9 L 231.7,182.2 L 237.6,181.4 L 243.5,180.7 L 249.5,178.9 L 255.4,176.3 L 261.3,175.9 L 267.2,175.5 L 273.1,173.3 L 279.0,172.6 L 284.9,170.7 L 290.9,170.4 L 296.8,170.0 L 302.7,169.3 L 308.6,169.3 L 314.5,169.3 L 320.4,164.1 L 326.4,163.7 L 332.3,162.6 L 338.2,162.3 L 344.1,161.9 L 350.0,160.8 L 355.9,160.1 L 361.8,159.3 L 367.8,157.1 L 373.7,157.1 L 379.6,157.1 L 385.5,156.7 L 391.4,153.0 L 397.3,151.9 L 403.3,151.2 L 409.2,150.1 L 415.1,149.4 L 421.0,149.4 L 426.9,147.5 L 432.8,144.9 L 438.7,144.2 L 444.7,143.8 L 450.6,142.7 L 456.5,142.7 L 462.4,142.0 L 468.3,140.9 L 474.2,140.1 L 480.2,138.7 L 486.1,137.2 L 492.0,136.8 L 497.9,136.8 L 503.8,135.3 L 509.7,135.3 L 515.6,135.3 L 521.6,133.1 L 527.5,132.8 L 533.4,132.4 L 539.3,132.4 L 545.2,132.0 L 551.1,130.6 L 557.1,129.8 L 563.0,128.7 L 568.9,128.7 L 574.8,128.3 L 580.7,126.9 L 586.6,125.8 L 592.5,125.8 L 598.5,125.4 L 604.4,124.7 L 610.3,122.1 L 616.2,121.3 L 622.1,120.2 L 628.0,120.2 L 633.9,119.5 L 639.9,119.1 L 645.8,118.8 L 651.7,118.4 L 657.6,118.0 L 663.5,118.0 L 669.4,117.6 L 675.4,117.3 L 681.3,116.2 L 687.2,114.7 L 693.1,114.3 L 699.0,113.2 L 704.9,113.2 L 710.8,111.7 L 716.8,111.4 L 722.7,111.4 L 728.6,111.4 L 734.5,110.3 L 740.4,109.9 L 746.3,109.9 L 752.3,109.9 L 758.2,109.5 L 764.1,108.1 L 770.0,107.7" fill="none" stroke="#34C759" stroke-width="2.5" stroke-linejoin="round" clip-path="url(#ca)"/>
<path d="M 72.0,340 L 72.0,193.2 L 77.9,193.2 L 83.8,192.9 L 89.7,191.8 L 95.7,192.1 L 101.6,192.1 L 107.5,190.7 L 113.4,189.6 L 119.3,189.6 L 125.2,189.9 L 131.2,189.6 L 137.1,189.2 L 143.0,188.8 L 148.9,188.8 L 154.8,188.8 L 160.7,189.2 L 166.6,188.4 L 172.6,187.7 L 178.5,185.5 L 184.4,184.0 L 190.3,184.0 L 196.2,183.7 L 202.1,181.4 L 208.1,178.1 L 214.0,177.0 L 219.9,176.3 L 225.8,173.7 L 231.7,171.9 L 237.6,171.1 L 243.5,170.4 L 249.5,169.6 L 255.4,169.3 L 261.3,169.3 L 267.2,166.7 L 273.1,166.0 L 279.0,165.2 L 284.9,165.2 L 290.9,163.4 L 296.8,163.0 L 302.7,161.9 L 308.6,160.4 L 314.5,158.6 L 320.4,156.0 L 326.4,153.4 L 332.3,153.0 L 338.2,152.3 L 344.1,151.6 L 350.0,149.4 L 355.9,149.4 L 361.8,148.6 L 367.8,147.5 L 373.7,146.8 L 379.6,145.3 L 385.5,145.7 L 391.4,141.2 L 397.3,140.9 L 403.3,140.5 L 409.2,139.8 L 415.1,137.6 L 421.0,137.6 L 426.9,135.3 L 432.8,132.8 L 438.7,132.8 L 444.7,132.8 L 450.6,132.4 L 456.5,132.0 L 462.4,131.7 L 468.3,129.8 L 474.2,127.6 L 480.2,126.9 L 486.1,125.4 L 492.0,125.4 L 497.9,124.3 L 503.8,122.1 L 509.7,121.0 L 515.6,120.6 L 521.6,118.0 L 527.5,117.6 L 533.4,117.6 L 539.3,117.3 L 545.2,117.3 L 551.1,115.4 L 557.1,114.7 L 563.0,113.6 L 568.9,113.2 L 574.8,112.5 L 580.7,109.5 L 586.6,105.5 L 592.5,105.1 L 598.5,104.4 L 604.4,104.0 L 610.3,102.2 L 616.2,63.1 L 622.1,62.3 L 628.0,60.5 L 633.9,60.5 L 639.9,60.5 L 645.8,60.9 L 651.7,60.5 L 657.6,58.3 L 663.5,57.5 L 669.4,57.2 L 675.4,56.8 L 681.3,55.3 L 687.2,53.1 L 693.1,53.1 L 699.0,53.1 L 704.9,52.7 L 710.8,52.4 L 716.8,52.4 L 722.7,51.6 L 728.6,50.5 L 734.5,48.7 L 740.4,47.9 L 746.3,47.6 L 752.3,47.6 L 758.2,47.2 L 764.1,46.5 L 770.0,46.1 L 770.0,340 Z" fill="url(#g6)" clip-path="url(#ca)"/>
<path d="M 72.0,193.2 L 77.9,193.2 L 83.8,192.9 L 89.7,191.8 L 95.7,192.1 L 101.6,192.1 L 107.5,190.7 L 113.4,189.6 L 119.3,189.6 L 125.2,189.9 L 131.2,189.6 L 137.1,189.2 L 143.0,188.8 L 148.9,188.8 L 154.8,188.8 L 160.7,189.2 L 166.6,188.4 L 172.6,187.7 L 178.5,185.5 L 184.4,184.0 L 190.3,184.0 L 196.2,183.7 L 202.1,181.4 L 208.1,178.1 L 214.0,177.0 L 219.9,176.3 L 225.8,173.7 L 231.7,171.9 L 237.6,171.1 L 243.5,170.4 L 249.5,169.6 L 255.4,169.3 L 261.3,169.3 L 267.2,166.7 L 273.1,166.0 L 279.0,165.2 L 284.9,165.2 L 290.9,163.4 L 296.8,163.0 L 302.7,161.9 L 308.6,160.4 L 314.5,158.6 L 320.4,156.0 L 326.4,153.4 L 332.3,153.0 L 338.2,152.3 L 344.1,151.6 L 350.0,149.4 L 355.9,149.4 L 361.8,148.6 L 367.8,147.5 L 373.7,146.8 L 379.6,145.3 L 385.5,145.7 L 391.4,141.2 L 397.3,140.9 L 403.3,140.5 L 409.2,139.8 L 415.1,137.6 L 421.0,137.6 L 426.9,135.3 L 432.8,132.8 L 438.7,132.8 L 444.7,132.8 L 450.6,132.4 L 456.5,132.0 L 462.4,131.7 L 468.3,129.8 L 474.2,127.6 L 480.2,126.9 L 486.1,125.4 L 492.0,125.4 L 497.9,124.3 L 503.8,122.1 L 509.7,121.0 L 515.6,120.6 L 521.6,118.0 L 527.5,117.6 L 533.4,117.6 L 539.3,117.3 L 545.2,117.3 L 551.1,115.4 L 557.1,114.7 L 563.0,113.6 L 568.9,113.2 L 574.8,112.5 L 580.7,109.5 L 586.6,105.5 L 592.5,105.1 L 598.5,104.4 L 604.4,104.0 L 610.3,102.2 L 616.2,63.1 L 622.1,62.3 L 628.0,60.5 L 633.9,60.5 L 639.9,60.5 L 645.8,60.9 L 651.7,60.5 L 657.6,58.3 L 663.5,57.5 L 669.4,57.2 L 675.4,56.8 L 681.3,55.3 L 687.2,53.1 L 693.1,53.1 L 699.0,53.1 L 704.9,52.7 L 710.8,52.4 L 716.8,52.4 L 722.7,51.6 L 728.6,50.5 L 734.5,48.7 L 740.4,47.9 L 746.3,47.6 L 752.3,47.6 L 758.2,47.2 L 764.1,46.5 L 770.0,46.1" fill="none" stroke="#4F8EF7" stroke-width="2.5" stroke-linejoin="round" clip-path="url(#ca)"/>
<path d="M 72.0,340 L 72.0,337.8 L 77.9,337.4 L 83.8,337.4 L 89.7,337.1 L 95.7,337.1 L 101.6,337.1 L 107.5,337.1 L 113.4,337.1 L 119.3,336.3 L 125.2,336.3 L 131.2,336.3 L 137.1,336.3 L 143.0,336.3 L 148.9,335.9 L 154.8,335.9 L 160.7,335.9 L 166.6,335.9 L 172.6,335.9 L 178.5,335.6 L 184.4,334.8 L 190.3,334.5 L 196.2,334.5 L 202.1,334.5 L 208.1,334.1 L 214.0,334.1 L 219.9,334.1 L 225.8,333.7 L 231.7,333.7 L 237.6,333.7 L 243.5,333.4 L 249.5,333.4 L 255.4,333.4 L 261.3,333.4 L 267.2,333.0 L 273.1,333.0 L 279.0,333.0 L 284.9,333.0 L 290.9,333.0 L 296.8,333.0 L 302.7,333.0 L 308.6,333.0 L 314.5,333.0 L 320.4,333.0 L 326.4,333.0 L 332.3,333.0 L 338.2,333.0 L 344.1,332.6 L 350.0,332.6 L 355.9,332.6 L 361.8,332.6 L 367.8,332.6 L 373.7,332.6 L 379.6,332.6 L 385.5,332.6 L 391.4,332.6 L 397.3,332.6 L 403.3,332.6 L 409.2,332.6 L 415.1,332.3 L 421.0,332.3 L 426.9,332.3 L 432.8,332.3 L 438.7,332.3 L 444.7,332.3 L 450.6,332.3 L 456.5,332.3 L 462.4,332.3 L 468.3,332.3 L 474.2,332.3 L 480.2,332.3 L 486.1,332.3 L 492.0,332.3 L 497.9,332.3 L 503.8,332.3 L 509.7,332.3 L 515.6,332.3 L 521.6,332.3 L 527.5,332.3 L 533.4,332.3 L 539.3,332.3 L 545.2,332.3 L 551.1,332.3 L 557.1,332.3 L 563.0,332.3 L 568.9,332.3 L 574.8,332.3 L 580.7,332.3 L 586.6,332.3 L 592.5,332.3 L 598.5,332.3 L 604.4,332.3 L 610.3,332.3 L 616.2,332.3 L 622.1,332.3 L 628.0,331.9 L 633.9,331.9 L 639.9,331.9 L 645.8,331.9 L 651.7,331.9 L 657.6,331.5 L 663.5,331.5 L 669.4,331.5 L 675.4,331.5 L 681.3,331.1 L 687.2,331.1 L 693.1,330.8 L 699.0,330.8 L 704.9,330.8 L 710.8,330.8 L 716.8,330.8 L 722.7,330.8 L 728.6,330.8 L 734.5,330.8 L 740.4,330.8 L 746.3,330.8 L 752.3,330.8 L 758.2,330.8 L 764.1,330.8 L 770.0,330.8 L 770.0,340 Z" fill="url(#g7)" clip-path="url(#ca)"/>
<path d="M 72.0,337.8 L 77.9,337.4 L 83.8,337.4 L 89.7,337.1 L 95.7,337.1 L 101.6,337.1 L 107.5,337.1 L 113.4,337.1 L 119.3,336.3 L 125.2,336.3 L 131.2,336.3 L 137.1,336.3 L 143.0,336.3 L 148.9,335.9 L 154.8,335.9 L 160.7,335.9 L 166.6,335.9 L 172.6,335.9 L 178.5,335.6 L 184.4,334.8 L 190.3,334.5 L 196.2,334.5 L 202.1,334.5 L 208.1,334.1 L 214.0,334.1 L 219.9,334.1 L 225.8,333.7 L 231.7,333.7 L 237.6,333.7 L 243.5,333.4 L 249.5,333.4 L 255.4,333.4 L 261.3,333.4 L 267.2,333.0 L 273.1,333.0 L 279.0,333.0 L 284.9,333.0 L 290.9,333.0 L 296.8,333.0 L 302.7,333.0 L 308.6,333.0 L 314.5,333.0 L 320.4,333.0 L 326.4,333.0 L 332.3,333.0 L 338.2,333.0 L 344.1,332.6 L 350.0,332.6 L 355.9,332.6 L 361.8,332.6 L 367.8,332.6 L 373.7,332.6 L 379.6,332.6 L 385.5,332.6 L 391.4,332.6 L 397.3,332.6 L 403.3,332.6 L 409.2,332.6 L 415.1,332.3 L 421.0,332.3 L 426.9,332.3 L 432.8,332.3 L 438.7,332.3 L 444.7,332.3 L 450.6,332.3 L 456.5,332.3 L 462.4,332.3 L 468.3,332.3 L 474.2,332.3 L 480.2,332.3 L 486.1,332.3 L 492.0,332.3 L 497.9,332.3 L 503.8,332.3 L 509.7,332.3 L 515.6,332.3 L 521.6,332.3 L 527.5,332.3 L 533.4,332.3 L 539.3,332.3 L 545.2,332.3 L 551.1,332.3 L 557.1,332.3 L 563.0,332.3 L 568.9,332.3 L 574.8,332.3 L 580.7,332.3 L 586.6,332.3 L 592.5,332.3 L 598.5,332.3 L 604.4,332.3 L 610.3,332.3 L 616.2,332.3 L 622.1,332.3 L 628.0,331.9 L 633.9,331.9 L 639.9,331.9 L 645.8,331.9 L 651.7,331.9 L 657.6,331.5 L 663.5,331.5 L 669.4,331.5 L 675.4,331.5 L 681.3,331.1 L 687.2,331.1 L 693.1,330.8 L 699.0,330.8 L 704.9,330.8 L 710.8,330.8 L 716.8,330.8 L 722.7,330.8 L 728.6,330.8 L 734.5,330.8 L 740.4,330.8 L 746.3,330.8 L 752.3,330.8 L 758.2,330.8 L 764.1,330.8 L 770.0,330.8" fill="none" stroke="#FF6363" stroke-width="2.5" stroke-linejoin="round" clip-path="url(#ca)"/>
<text x="104.5" y="55.0" text-anchor="middle" font-size="9" fill="#34C759" opacity="0.85" clip-path="url(#ca)">+15.2% (+50)</text>
<text x="104.5" y="66.0" text-anchor="middle" font-size="9" fill="#4F8EF7" opacity="0.85" clip-path="url(#ca)">+2.8% (+11)</text>
<text x="104.5" y="77.0" text-anchor="middle" font-size="9" fill="#FF6363" opacity="0.85" clip-path="url(#ca)">+66.7% (+4)</text>
<text x="216.9" y="55.0" text-anchor="middle" font-size="9" fill="#34C759" opacity="0.85" clip-path="url(#ca)">+20.1% (+77)</text>
<text x="216.9" y="66.0" text-anchor="middle" font-size="9" fill="#4F8EF7" opacity="0.85" clip-path="url(#ca)">+16.8% (+69)</text>
<text x="216.9" y="77.0" text-anchor="middle" font-size="9" fill="#FF6363" opacity="0.85" clip-path="url(#ca)">+90.0% (+9)</text>
<text x="373.7" y="55.0" text-anchor="middle" font-size="9" fill="#34C759" opacity="0.85" clip-path="url(#ca)">+16.1% (+74)</text>
<text x="373.7" y="66.0" text-anchor="middle" font-size="9" fill="#4F8EF7" opacity="0.85" clip-path="url(#ca)">+17.3% (+83)</text>
<text x="373.7" y="77.0" text-anchor="middle" font-size="9" fill="#FF6363" opacity="0.85" clip-path="url(#ca)">+10.5% (+2)</text>
<text x="533.4" y="55.0" text-anchor="middle" font-size="9" fill="#34C759" opacity="0.85" clip-path="url(#ca)">+10.5% (+56)</text>
<text x="533.4" y="66.0" text-anchor="middle" font-size="9" fill="#4F8EF7" opacity="0.85" clip-path="url(#ca)">+14.4% (+81)</text>
<text x="533.4" y="77.0" text-anchor="middle" font-size="9" fill="#FF6363" opacity="0.85" clip-path="url(#ca)">+0.0% (+0)</text>
<text x="693.1" y="55.0" text-anchor="middle" font-size="9" fill="#34C759" opacity="0.85" clip-path="url(#ca)">+6.2% (+37)</text>
<text x="693.1" y="66.0" text-anchor="middle" font-size="9" fill="#4F8EF7" opacity="0.85" clip-path="url(#ca)">+6.1% (+46)</text>
<text x="693.1" y="77.0" text-anchor="middle" font-size="9" fill="#FF6363" opacity="0.85" clip-path="url(#ca)">+19.0% (+4)</text>
<rect x="211" y="369" width="12" height="12" fill="#34C759" rx="2"/>
<text x="227" y="379" font-size="12" fill="#111827">macOS + Windows</text>
<rect x="351" y="369" width="12" height="12" fill="#4F8EF7" rx="2"/>
<text x="367" y="379" font-size="12" fill="#111827">macOS only</text>
<rect x="491" y="369" width="12" height="12" fill="#FF6363" rx="2"/>
<text x="507" y="379" font-size="12" fill="#111827">Windows only</text>
<text x="72" y="394" font-size="8" fill="#e5e7eb">data since Dec 11, 2025</text>
</svg>