<svg xmlns="http://www.w3.org/2000/svg" width="800" height="400" viewBox="0 0 800 400">
<defs>
  <style>text { font-family: -apple-system, BlinkMacSystemFont, 'Segoe UI', Roboto, sans-serif; }</style>
  <linearGradient id="g1" x1="0" y1="0" x2="0" y2="1">
  <stop offset="0%" stop-color="#FF6363" stop-opacity="0.25"/>
  <stop offset="100%" stop-color="#FF6363" stop-opacity="0"/>
</linearGradient>
  <clipPath id="ca"><rect x="72" y="45" width="698" height="295"/></clipPath>
</defs>
<rect width="800" height="400" fill="#ffffff" rx="12"/>
<text x="400" y="26" text-anchor="middle" font-size="15" font-weight="600" fill="#111827">Packages Growth Over Time</text>
<line x1="72" y1="340.0" x2="770" y2="340.0" stroke="#f3f4f6" stroke-width="1"/>
<text x="66" y="344.0" text-anchor="end" font-size="11" fill="#6b7280">2.4k</text>
<line x1="72" y1="241.7" x2="770" y2="241.7" stroke="#f3f4f6" stroke-width="1"/>
<text x="66" y="245.7" text-anchor="end" font-size="11" fill="#6b7280">2.6k</text>
<line x1="72" y1="143.3" x2="770" y2="143.3" stroke="#f3f4f6" stroke-width="1"/>
<text x="66" y="147.3" text-anchor="end" font-size="11" fill="#6b7280">2.8k</text>
<line x1="72" y1="45.0" x2="770" y2="45.0" stroke="#f3f4f6" stroke-width="1"/>
<text x="66" y="49.0" text-anchor="end" font-size="11" fill="#6b7280">3.0k</text>
<line x1="126.0" y1="45" x2="126.0" y2="340" stroke="#e5e7eb" stroke-width="1" stroke-dasharray="3,3" clip-path="url(#ca)"/>
<line x1="243.1" y1="45" x2="243.1" y2="340" stroke="#e5e7eb" stroke-width="1" stroke-dasharray="3,3" clip-path="url(#ca)"/>
<line x1="364.7" y1="45" x2="364.7" y2="340" stroke="#e5e7eb" stroke-width="1" stroke-dasharray="3,3" clip-path="url(#ca)"/>
<line x1="486.3" y1="45" x2="486.3" y2="340" stroke="#e5e7eb" stroke-width="1" stroke-dasharray="3,3" clip-path="url(#ca)"/>
<line x1="607.9" y1="45" x2="607.9" y2="340" stroke="#e5e7eb" stroke-width="1" stroke-dasharray="3,3" clip-path="url(#ca)"/>
<line x1="725.0" y1="45" x2="725.0" y2="340" stroke="#e5e7eb" stroke-width="1" stroke-dasharray="3,3" clip-path="url(#ca)"/>
<text x="72.0" y="358.0" text-anchor="middle" font-size="11" fill="#6b7280">Dec 11</text>
<text x="211.6" y="358.0" text-anchor="middle" font-size="11" fill="#6b7280">Jan 25</text>
<text x="351.2" y="358.0" text-anchor="middle" font-size="11" fill="#6b7280">Feb 26</text>
<text x="490.8" y="358.0" text-anchor="middle" font-size="11" fill="#6b7280">Apr 2</text>
<text x="630.4" y="358.0" text-anchor="middle" font-size="11" fill="#6b7280">May 8</text>
<text x="770.0" y="358.0" text-anchor="middle" font-size="11" fill="#6b7280">Jun 13</text>
<line x1="72" y1="45" x2="72" y2="340" stroke="#e5e7eb" stroke-width="1"/>
<line x1="72" y1="340" x2="770" y2="340" stroke="#e5e7eb" stroke-width="1"/>
<text x="-192.5" y="18" text-anchor="middle" font-size="12" fill="#6b7280" transform="rotate(-90)">Extensions</text>
<path d="M 72.0,340 L 72.0,302.1 L 76.5,301.6 L 81.0,301.6 L 85.5,300.2 L 90.0,300.2 L 94.5,299.2 L 99.0,298.2 L 103.5,297.7 L 108.0,295.3 L 112.5,293.3 L 117.0,293.3 L 121.5,293.3 L 126.0,293.3 L 130.5,292.3 L 135.0,292.3 L 139.5,292.3 L 144.1,291.3 L 148.6,289.4 L 153.1,285.9 L 157.6,283.5 L 162.1,282.5 L 166.6,282.0 L 171.1,280.0 L 175.6,274.1 L 180.1,272.1 L 184.6,272.1 L 189.1,267.2 L 193.6,265.8 L 198.1,263.8 L 202.6,262.3 L 207.1,259.4 L 211.6,256.9 L 216.1,256.4 L 220.6,252.5 L 225.1,249.0 L 229.6,249.0 L 234.1,246.6 L 238.6,244.6 L 243.1,244.1 L 247.6,243.6 L 252.1,243.1 L 256.6,241.7 L 261.1,232.8 L 265.6,228.9 L 270.1,226.9 L 274.6,225.9 L 279.1,224.5 L 283.7,221.0 L 288.2,220.0 L 292.7,219.1 L 297.2,216.1 L 301.7,215.1 L 306.2,214.1 L 310.7,214.1 L 315.2,205.3 L 319.7,204.3 L 324.2,203.3 L 328.7,201.3 L 333.2,198.9 L 337.7,198.9 L 342.2,195.0 L 346.7,188.6 L 351.2,187.6 L 355.7,188.1 L 360.2,186.6 L 364.7,186.1 L 369.2,186.1 L 373.7,183.2 L 378.2,180.7 L 382.7,178.7 L 387.2,176.3 L 391.7,175.8 L 396.2,175.8 L 400.7,172.3 L 405.2,171.4 L 409.7,170.9 L 414.2,165.0 L 418.7,164.5 L 423.3,164.5 L 427.8,164.5 L 432.3,164.0 L 436.8,161.5 L 441.3,159.6 L 445.8,157.1 L 450.3,156.6 L 454.8,155.1 L 459.3,150.7 L 463.8,146.8 L 468.3,146.3 L 472.8,145.8 L 477.3,144.3 L 481.8,139.4 L 486.3,138.4 L 490.8,136.9 L 495.3,134.0 L 499.8,133.5 L 504.3,133.0 L 508.8,133.0 L 513.3,132.0 L 517.8,129.1 L 522.3,128.1 L 526.8,127.1 L 531.3,126.6 L 535.8,125.6 L 540.3,120.7 L 544.8,120.2 L 549.3,119.2 L 553.8,118.8 L 558.3,116.3 L 562.9,115.8 L 567.4,115.3 L 571.9,113.8 L 576.4,111.9 L 580.9,111.9 L 585.4,111.9 L 589.9,111.9 L 594.4,110.9 L 598.9,108.4 L 603.4,107.9 L 607.9,105.5 L 612.4,105.0 L 616.9,104.5 L 621.4,101.5 L 625.9,98.6 L 630.4,98.1 L 634.9,97.6 L 639.4,91.2 L 643.9,89.3 L 648.4,87.8 L 652.9,87.3 L 657.4,83.8 L 661.9,83.8 L 666.4,81.4 L 670.9,79.9 L 675.4,75.0 L 679.9,73.0 L 684.4,72.5 L 688.9,72.0 L 693.4,72.0 L 697.9,71.6 L 702.5,68.6 L 707.0,66.1 L 711.5,66.1 L 716.0,65.6 L 720.5,65.6 L 725.0,63.7 L 729.5,62.7 L 734.0,61.2 L 738.5,59.8 L 743.0,57.8 L 747.5,57.8 L 752.0,56.3 L 756.5,54.3 L 761.0,50.4 L 765.5,47.0 L 770.0,46.0 L 770.0,340 Z" fill="url(#g1)" clip-path="url(#ca)"/>
<path d="M 72.0,302.1 L 76.5,301.6 L 81.0,301.6 L 85.5,300.2 L 90.0,300.2 L 94.5,299.2 L 99.0,298.2 L 103.5,297.7 L 108.0,295.3 L 112.5,293.3 L 117.0,293.3 L 121.5,293.3 L 126.0,293.3 L 130.5,292.3 L 135.0,292.3 L 139.5,292.3 L 144.1,291.3 L 148.6,289.4 L 153.1,285.9 L 157.6,283.5 L 162.1,282.5 L 166.6,282.0 L 171.1,280.0 L 175.6,274.1 L 180.1,272.1 L 184.6,272.1 L 189.1,267.2 L 193.6,265.8 L 198.1,263.8 L 202.6,262.3 L 207.1,259.4 L 211.6,256.9 L 216.1,256.4 L 220.6,252.5 L 225.1,249.0 L 229.6,249.0 L 234.1,246.6 L 238.6,244.6 L 243.1,244.1 L 247.6,243.6 L 252.1,243.1 L 256.6,241.7 L 261.1,232.8 L 265.6,228.9 L 270.1,226.9 L 274.6,225.9 L 279.1,224.5 L 283.7,221.0 L 288.2,220.0 L 292.7,219.1 L 297.2,216.1 L 301.7,215.1 L 306.2,214.1 L 310.7,214.1 L 315.2,205.3 L 319.7,204.3 L 324.2,203.3 L 328.7,201.3 L 333.2,198.9 L 337.7,198.9 L 342.2,195.0 L 346.7,188.6 L 351.2,187.6 L 355.7,188.1 L 360.2,186.6 L 364.7,186.1 L 369.2,186.1 L 373.7,183.2 L 378.2,180.7 L 382.7,178.7 L 387.2,176.3 L 391.7,175.8 L 396.2,175.8 L 400.7,172.3 L 405.2,171.4 L 409.7,170.9 L 414.2,165.0 L 418.7,164.5 L 423.3,164.5 L 427.8,164.5 L 432.3,164.0 L 436.8,161.5 L 441.3,159.6 L 445.8,157.1 L 450.3,156.6 L 454.8,155.1 L 459.3,150.7 L 463.8,146.8 L 468.3,146.3 L 472.8,145.8 L 477.3,144.3 L 481.8,139.4 L 486.3,138.4 L 490.8,136.9 L 495.3,134.0 L 499.8,133.5 L 504.3,133.0 L 508.8,133.0 L 513.3,132.0 L 517.8,129.1 L 522.3,128.1 L 526.8,127.1 L 531.3,126.6 L 535.8,125.6 L 540.3,120.7 L 544.8,120.2 L 549.3,119.2 L 553.8,118.8 L 558.3,116.3 L 562.9,115.8 L 567.4,115.3 L 571.9,113.8 L 576.4,111.9 L 580.9,111.9 L 585.4,111.9 L 589.9,111.9 L 594.4,110.9 L 598.9,108.4 L 603.4,107.9 L 607.9,105.5 L 612.4,105.0 L 616.9,104.5 L 621.4,101.5 L 625.9,98.6 L 630.4,98.1 L 634.9,97.6 L 639.4,91.2 L 643.9,89.3 L 648.4,87.8 L 652.9,87.3 L 657.4,83.8 L 661.9,83.8 L 666.4,81.4 L 670.9,79.9 L 675.4,75.0 L 679.9,73.0 L 684.4,72.5 L 688.9,72.0 L 693.4,72.0 L 697.9,71.6 L 702.5,68.6 L 707.0,66.1 L 711.5,66.1 L 716.0,65.6 L 720.5,65.6 L 725.0,63.7 L 729.5,62.7 L 734.0,61.2 L 738.5,59.8 L 743.0,57.8 L 747.5,57.8 L 752.0,56.3 L 756.5,54.3 L 761.0,50.4 L 765.5,47.0 L 770.0,46.0" fill="none" stroke="#FF6363" stroke-width="2.5" stroke-linejoin="round" clip-path="url(#ca)"/>
<text x="96.8" y="55.0" text-anchor="middle" font-size="9" fill="#FF6363" opacity="0.85" clip-path="url(#ca)">+0.7% (+18)</text>
<text x="182.3" y="55.0" text-anchor="middle" font-size="9" fill="#FF6363" opacity="0.85" clip-path="url(#ca)">+4.0% (+99)</text>
<text x="301.7" y="55.0" text-anchor="middle" font-size="9" fill="#FF6363" opacity="0.85" clip-path="url(#ca)">+4.5% (+117)</text>
<text x="423.3" y="55.0" text-anchor="middle" font-size="9" fill="#FF6363" opacity="0.85" clip-path="url(#ca)">+3.5% (+95)</text>
<text x="544.8" y="55.0" text-anchor="middle" font-size="9" fill="#FF6363" opacity="0.85" clip-path="url(#ca)">+2.2% (+62)</text>
<text x="664.2" y="55.0" text-anchor="middle" font-size="9" fill="#FF6363" opacity="0.85" clip-path="url(#ca)">+2.8% (+81)</text>
<text x="747.5" y="55.0" text-anchor="middle" font-size="9" fill="#FF6363" opacity="0.85" clip-path="url(#ca)">+1.2% (+36)</text>
<rect x="351" y="369" width="12" height="12" fill="#FF6363" rx="2"/>
<text x="367" y="379" font-size="12" fill="#111827">Extensions</text>
<text x="72" y="394" font-size="8" fill="#e5e7eb">data since Dec 11, 2025</text>
</svg>