<svg xmlns="http://www.w3.org/2000/svg" width="800" height="400" viewBox="0 0 800 400">
<defs>
  <style>text { font-family: -apple-system, BlinkMacSystemFont, 'Segoe UI', Roboto, sans-serif; }</style>
  <linearGradient id="g1" x1="0" y1="0" x2="0" y2="1">
  <stop offset="0%" stop-color="#FF6363" stop-opacity="0.25"/>
  <stop offset="100%" stop-color="#FF6363" stop-opacity="0"/>
</linearGradient>
  <clipPath id="ca"><rect x="72" y="45" width="698" height="295"/></clipPath>
</defs>
<rect width="800" height="400" fill="#ffffff" rx="12"/>
<text x="400" y="26" text-anchor="middle" font-size="15" font-weight="600" fill="#111827">Packages Growth Over Time</text>
<line x1="72" y1="340.0" x2="770" y2="340.0" stroke="#f3f4f6" stroke-width="1"/>
<text x="66" y="344.0" text-anchor="end" font-size="11" fill="#6b7280">2.4k</text>
<line x1="72" y1="266.3" x2="770" y2="266.3" stroke="#f3f4f6" stroke-width="1"/>
<text x="66" y="270.3" text-anchor="end" font-size="11" fill="#6b7280">2.6k</text>
<line x1="72" y1="192.5" x2="770" y2="192.5" stroke="#f3f4f6" stroke-width="1"/>
<text x="66" y="196.5" text-anchor="end" font-size="11" fill="#6b7280">2.8k</text>
<line x1="72" y1="118.8" x2="770" y2="118.8" stroke="#f3f4f6" stroke-width="1"/>
<text x="66" y="122.8" text-anchor="end" font-size="11" fill="#6b7280">3.0k</text>
<line x1="72" y1="45.0" x2="770" y2="45.0" stroke="#f3f4f6" stroke-width="1"/>
<text x="66" y="49.0" text-anchor="end" font-size="11" fill="#6b7280">3.2k</text>
<line x1="116.8" y1="45" x2="116.8" y2="340" stroke="#e5e7eb" stroke-width="1" stroke-dasharray="3,3" clip-path="url(#ca)"/>
<line x1="213.8" y1="45" x2="213.8" y2="340" stroke="#e5e7eb" stroke-width="1" stroke-dasharray="3,3" clip-path="url(#ca)"/>
<line x1="314.6" y1="45" x2="314.6" y2="340" stroke="#e5e7eb" stroke-width="1" stroke-dasharray="3,3" clip-path="url(#ca)"/>
<line x1="415.4" y1="45" x2="415.4" y2="340" stroke="#e5e7eb" stroke-width="1" stroke-dasharray="3,3" clip-path="url(#ca)"/>
<line x1="516.2" y1="45" x2="516.2" y2="340" stroke="#e5e7eb" stroke-width="1" stroke-dasharray="3,3" clip-path="url(#ca)"/>
<line x1="613.2" y1="45" x2="613.2" y2="340" stroke="#e5e7eb" stroke-width="1" stroke-dasharray="3,3" clip-path="url(#ca)"/>
<line x1="702.8" y1="45" x2="702.8" y2="340" stroke="#e5e7eb" stroke-width="1" stroke-dasharray="3,3" clip-path="url(#ca)"/>
<text x="72.0" y="358.0" text-anchor="middle" font-size="11" fill="#6b7280">Dec 11</text>
<text x="210.1" y="358.0" text-anchor="middle" font-size="11" fill="#6b7280">Jan 31</text>
<text x="351.9" y="358.0" text-anchor="middle" font-size="11" fill="#6b7280">Mar 12</text>
<text x="490.1" y="358.0" text-anchor="middle" font-size="11" fill="#6b7280">Apr 23</text>
<text x="631.9" y="358.0" text-anchor="middle" font-size="11" fill="#6b7280">Jun 8</text>
<text x="770.0" y="358.0" text-anchor="middle" font-size="11" fill="#6b7280">Jul 22</text>
<line x1="72" y1="45" x2="72" y2="340" stroke="#e5e7eb" stroke-width="1"/>
<line x1="72" y1="340" x2="770" y2="340" stroke="#e5e7eb" stroke-width="1"/>
<text x="-192.5" y="18" text-anchor="middle" font-size="12" fill="#6b7280" transform="rotate(-90)">Extensions</text>
<path d="M 72.0,340 L 72.0,311.6 L 75.7,311.2 L 79.5,311.2 L 83.2,310.1 L 86.9,310.1 L 90.7,309.4 L 94.4,308.7 L 98.1,308.3 L 101.9,306.4 L 105.6,305.0 L 109.3,305.0 L 113.1,305.0 L 116.8,305.0 L 120.5,304.2 L 124.3,304.2 L 128.0,304.2 L 131.7,303.5 L 135.5,302.0 L 139.2,299.4 L 142.9,297.6 L 146.7,296.9 L 150.4,296.5 L 154.1,295.0 L 157.9,290.6 L 161.6,289.1 L 165.3,289.1 L 169.0,285.4 L 172.8,284.3 L 176.5,282.8 L 180.2,281.7 L 184.0,279.5 L 187.7,277.7 L 191.4,277.3 L 195.2,274.4 L 198.9,271.8 L 202.6,271.8 L 206.4,269.9 L 210.1,268.5 L 213.8,268.1 L 217.6,267.7 L 221.3,267.4 L 225.0,266.3 L 228.8,259.6 L 232.5,256.7 L 236.2,255.2 L 240.0,254.4 L 243.7,253.3 L 247.4,250.8 L 251.2,250.0 L 254.9,249.3 L 258.6,247.1 L 262.4,246.3 L 266.1,245.6 L 269.8,245.6 L 273.6,239.0 L 277.3,238.2 L 281.0,237.5 L 284.8,236.0 L 288.5,234.2 L 292.2,234.2 L 296.0,231.2 L 299.7,226.4 L 303.4,225.7 L 307.2,226.1 L 310.9,224.9 L 314.6,224.6 L 318.4,224.6 L 322.1,222.4 L 325.8,220.5 L 329.6,219.1 L 333.3,217.2 L 337.0,216.8 L 340.7,216.8 L 344.5,214.3 L 348.2,213.5 L 351.9,213.2 L 355.7,208.7 L 359.4,208.4 L 363.1,208.4 L 366.9,208.4 L 370.6,208.0 L 374.3,206.1 L 378.1,204.7 L 381.8,202.8 L 385.5,202.5 L 389.3,201.3 L 393.0,198.0 L 396.7,195.1 L 400.5,194.7 L 404.2,194.3 L 407.9,193.2 L 411.7,189.6 L 415.4,188.8 L 419.1,187.7 L 422.9,185.5 L 426.6,185.1 L 430.3,184.8 L 434.1,184.8 L 437.8,184.0 L 441.5,181.8 L 445.3,181.1 L 449.0,180.3 L 452.7,180.0 L 456.5,179.2 L 460.2,175.5 L 463.9,175.2 L 467.7,174.4 L 471.4,174.1 L 475.1,172.2 L 478.9,171.9 L 482.6,171.5 L 486.3,170.4 L 490.1,168.9 L 493.8,168.9 L 497.5,168.9 L 501.3,168.9 L 505.0,168.2 L 508.7,166.3 L 512.4,166.0 L 516.2,164.1 L 519.9,163.7 L 523.6,163.4 L 527.4,161.2 L 531.1,158.9 L 534.8,158.6 L 538.6,158.2 L 542.3,153.4 L 546.0,151.9 L 549.8,150.8 L 553.5,150.5 L 557.2,147.9 L 561.0,147.9 L 564.7,146.0 L 568.4,144.9 L 572.2,141.2 L 575.9,139.8 L 579.6,139.4 L 583.4,139.0 L 587.1,139.0 L 590.8,138.7 L 594.6,136.5 L 598.3,134.6 L 602.0,134.6 L 605.8,134.2 L 609.5,134.2 L 613.2,132.8 L 617.0,132.0 L 620.7,130.9 L 624.4,129.8 L 628.2,128.3 L 631.9,128.3 L 635.6,127.2 L 639.4,125.8 L 643.1,122.8 L 646.8,120.2 L 650.6,119.5 L 654.3,118.8 L 658.0,118.0 L 661.8,117.6 L 665.5,116.5 L 669.2,114.3 L 673.0,114.0 L 676.7,112.5 L 680.4,111.0 L 684.1,108.4 L 687.9,107.3 L 691.6,106.6 L 695.3,106.6 L 699.1,105.1 L 702.8,104.4 L 706.5,103.6 L 710.3,103.3 L 714.0,102.2 L 717.7,102.2 L 721.5,100.7 L 725.2,100.3 L 728.9,99.6 L 732.7,97.0 L 736.4,95.5 L 740.1,95.5 L 743.9,95.5 L 747.6,94.4 L 751.3,92.2 L 755.1,91.5 L 758.8,90.7 L 762.5,89.6 L 766.3,89.3 L 770.0,88.1 L 770.0,340 Z" fill="url(#g1)" clip-path="url(#ca)"/>
<path d="M 72.0,311.6 L 75.7,311.2 L 79.5,311.2 L 83.2,310.1 L 86.9,310.1 L 90.7,309.4 L 94.4,308.7 L 98.1,308.3 L 101.9,306.4 L 105.6,305.0 L 109.3,305.0 L 113.1,305.0 L 116.8,305.0 L 120.5,304.2 L 124.3,304.2 L 128.0,304.2 L 131.7,303.5 L 135.5,302.0 L 139.2,299.4 L 142.9,297.6 L 146.7,296.9 L 150.4,296.5 L 154.1,295.0 L 157.9,290.6 L 161.6,289.1 L 165.3,289.1 L 169.0,285.4 L 172.8,284.3 L 176.5,282.8 L 180.2,281.7 L 184.0,279.5 L 187.7,277.7 L 191.4,277.3 L 195.2,274.4 L 198.9,271.8 L 202.6,271.8 L 206.4,269.9 L 210.1,268.5 L 213.8,268.1 L 217.6,267.7 L 221.3,267.4 L 225.0,266.3 L 228.8,259.6 L 232.5,256.7 L 236.2,255.2 L 240.0,254.4 L 243.7,253.3 L 247.4,250.8 L 251.2,250.0 L 254.9,249.3 L 258.6,247.1 L 262.4,246.3 L 266.1,245.6 L 269.8,245.6 L 273.6,239.0 L 277.3,238.2 L 281.0,237.5 L 284.8,236.0 L 288.5,234.2 L 292.2,234.2 L 296.0,231.2 L 299.7,226.4 L 303.4,225.7 L 307.2,226.1 L 310.9,224.9 L 314.6,224.6 L 318.4,224.6 L 322.1,222.4 L 325.8,220.5 L 329.6,219.1 L 333.3,217.2 L 337.0,216.8 L 340.7,216.8 L 344.5,214.3 L 348.2,213.5 L 351.9,213.2 L 355.7,208.7 L 359.4,208.4 L 363.1,208.4 L 366.9,208.4 L 370.6,208.0 L 374.3,206.1 L 378.1,204.7 L 381.8,202.8 L 385.5,202.5 L 389.3,201.3 L 393.0,198.0 L 396.7,195.1 L 400.5,194.7 L 404.2,194.3 L 407.9,193.2 L 411.7,189.6 L 415.4,188.8 L 419.1,187.7 L 422.9,185.5 L 426.6,185.1 L 430.3,184.8 L 434.1,184.8 L 437.8,184.0 L 441.5,181.8 L 445.3,181.1 L 449.0,180.3 L 452.7,180.0 L 456.5,179.2 L 460.2,175.5 L 463.9,175.2 L 467.7,174.4 L 471.4,174.1 L 475.1,172.2 L 478.9,171.9 L 482.6,171.5 L 486.3,170.4 L 490.1,168.9 L 493.8,168.9 L 497.5,168.9 L 501.3,168.9 L 505.0,168.2 L 508.7,166.3 L 512.4,166.0 L 516.2,164.1 L 519.9,163.7 L 523.6,163.4 L 527.4,161.2 L 531.1,158.9 L 534.8,158.6 L 538.6,158.2 L 542.3,153.4 L 546.0,151.9 L 549.8,150.8 L 553.5,150.5 L 557.2,147.9 L 561.0,147.9 L 564.7,146.0 L 568.4,144.9 L 572.2,141.2 L 575.9,139.8 L 579.6,139.4 L 583.4,139.0 L 587.1,139.0 L 590.8,138.7 L 594.6,136.5 L 598.3,134.6 L 602.0,134.6 L 605.8,134.2 L 609.5,134.2 L 613.2,132.8 L 617.0,132.0 L 620.7,130.9 L 624.4,129.8 L 628.2,128.3 L 631.9,128.3 L 635.6,127.2 L 639.4,125.8 L 643.1,122.8 L 646.8,120.2 L 650.6,119.5 L 654.3,118.8 L 658.0,118.0 L 661.8,117.6 L 665.5,116.5 L 669.2,114.3 L 673.0,114.0 L 676.7,112.5 L 680.4,111.0 L 684.1,108.4 L 687.9,107.3 L 691.6,106.6 L 695.3,106.6 L 699.1,105.1 L 702.8,104.4 L 706.5,103.6 L 710.3,103.3 L 714.0,102.2 L 717.7,102.2 L 721.5,100.7 L 725.2,100.3 L 728.9,99.6 L 732.7,97.0 L 736.4,95.5 L 740.1,95.5 L 743.9,95.5 L 747.6,94.4 L 751.3,92.2 L 755.1,91.5 L 758.8,90.7 L 762.5,89.6 L 766.3,89.3 L 770.0,88.1" fill="none" stroke="#FF6363" stroke-width="2.5" stroke-linejoin="round" clip-path="url(#ca)"/>
<text x="92.5" y="55.0" text-anchor="middle" font-size="9" fill="#FF6363" opacity="0.85" clip-path="url(#ca)">+0.7% (+18)</text>
<text x="163.4" y="55.0" text-anchor="middle" font-size="9" fill="#FF6363" opacity="0.85" clip-path="url(#ca)">+4.0% (+99)</text>
<text x="262.4" y="55.0" text-anchor="middle" font-size="9" fill="#FF6363" opacity="0.85" clip-path="url(#ca)">+4.5% (+117)</text>
<text x="363.1" y="55.0" text-anchor="middle" font-size="9" fill="#FF6363" opacity="0.85" clip-path="url(#ca)">+3.5% (+95)</text>
<text x="463.9" y="55.0" text-anchor="middle" font-size="9" fill="#FF6363" opacity="0.85" clip-path="url(#ca)">+2.2% (+62)</text>
<text x="562.8" y="55.0" text-anchor="middle" font-size="9" fill="#FF6363" opacity="0.85" clip-path="url(#ca)">+2.8% (+81)</text>
<text x="656.2" y="55.0" text-anchor="middle" font-size="9" fill="#FF6363" opacity="0.85" clip-path="url(#ca)">+2.5% (+75)</text>
<text x="736.4" y="55.0" text-anchor="middle" font-size="9" fill="#FF6363" opacity="0.85" clip-path="url(#ca)">+1.4% (+44)</text>
<rect x="351" y="369" width="12" height="12" fill="#FF6363" rx="2"/>
<text x="367" y="379" font-size="12" fill="#111827">Extensions</text>
<text x="72" y="394" font-size="8" fill="#e5e7eb">data since Dec 11, 2025</text>
</svg>