<svg xmlns="http://www.w3.org/2000/svg" width="800" height="400" viewBox="0 0 800 400">
<defs><style>text { font-family: -apple-system, BlinkMacSystemFont, 'Segoe UI', Roboto, sans-serif; }</style></defs>
<rect width="800" height="400" fill="#ffffff" rx="12"/>
<text x="400" y="26" text-anchor="middle" font-size="15" font-weight="600" fill="#111827">Packages by Last Updated Quarter</text>
<text x="400" y="44" text-anchor="middle" font-size="11" fill="#6b7280">last updated at · 2,891 packages with a known last-update date</text>
<line x1="60" y1="58" x2="60" y2="320" stroke="#e5e7eb" stroke-width="1"/>
<line x1="60" y1="320" x2="770" y2="320" stroke="#e5e7eb" stroke-width="1"/>
<text x="-189" y="18" text-anchor="middle" font-size="12" fill="#6b7280" transform="rotate(-90)">Number of packages</text>
<line x1="60" y1="320.0" x2="770" y2="320.0" stroke="#f3f4f6" stroke-width="1"/>
<text x="54" y="324.0" text-anchor="end" font-size="11" fill="#6b7280">0</text>
<line x1="60" y1="267.8" x2="770" y2="267.8" stroke="#f3f4f6" stroke-width="1"/>
<text x="54" y="271.8" text-anchor="end" font-size="11" fill="#6b7280">127</text>
<line x1="60" y1="215.1" x2="770" y2="215.1" stroke="#f3f4f6" stroke-width="1"/>
<text x="54" y="219.1" text-anchor="end" font-size="11" fill="#6b7280">255</text>
<line x1="60" y1="162.9" x2="770" y2="162.9" stroke="#f3f4f6" stroke-width="1"/>
<text x="54" y="166.9" text-anchor="end" font-size="11" fill="#6b7280">382</text>
<line x1="60" y1="110.2" x2="770" y2="110.2" stroke="#f3f4f6" stroke-width="1"/>
<text x="54" y="114.2" text-anchor="end" font-size="11" fill="#6b7280">510</text>
<line x1="60" y1="58.0" x2="770" y2="58.0" stroke="#f3f4f6" stroke-width="1"/>
<text x="54" y="62.0" text-anchor="end" font-size="11" fill="#6b7280">637</text>
<rect x="66.5" y="314.2" width="24.3" height="5.8" fill="#34C759" rx="3" opacity="0.85"/>
<text x="78.7" y="298.2" text-anchor="middle" font-size="10" fill="#6b7280">14</text>
<text x="78.7" y="310.2" text-anchor="middle" font-size="10" fill="#6b7280">(0.48%)</text>
<g transform="translate(78.7,330.0) rotate(-45)"><text text-anchor="end" font-size="10" fill="#111827">2021-Q4</text></g>
<rect x="103.9" y="308.1" width="24.3" height="11.9" fill="#34C759" rx="3" opacity="0.85"/>
<text x="116.1" y="292.1" text-anchor="middle" font-size="10" fill="#6b7280">29</text>
<text x="116.1" y="304.1" text-anchor="middle" font-size="10" fill="#6b7280">(1.00%)</text>
<g transform="translate(116.1,330.0) rotate(-45)"><text text-anchor="end" font-size="10" fill="#111827">2022-Q1</text></g>
<rect x="141.3" y="305.2" width="24.3" height="14.8" fill="#34C759" rx="3" opacity="0.85"/>
<text x="153.4" y="289.2" text-anchor="middle" font-size="10" fill="#6b7280">36</text>
<text x="153.4" y="301.2" text-anchor="middle" font-size="10" fill="#6b7280">(1.25%)</text>
<g transform="translate(153.4,330.0) rotate(-45)"><text text-anchor="end" font-size="10" fill="#111827">2022-Q2</text></g>
<rect x="178.6" y="302.7" width="24.3" height="17.3" fill="#34C759" rx="3" opacity="0.85"/>
<text x="190.8" y="286.7" text-anchor="middle" font-size="10" fill="#6b7280">42</text>
<text x="190.8" y="298.7" text-anchor="middle" font-size="10" fill="#6b7280">(1.45%)</text>
<g transform="translate(190.8,330.0) rotate(-45)"><text text-anchor="end" font-size="10" fill="#111827">2022-Q3</text></g>
<rect x="216.0" y="294.1" width="24.3" height="25.9" fill="#34C759" rx="3" opacity="0.85"/>
<text x="228.2" y="278.1" text-anchor="middle" font-size="10" fill="#6b7280">63</text>
<text x="228.2" y="290.1" text-anchor="middle" font-size="10" fill="#6b7280">(2.18%)</text>
<g transform="translate(228.2,330.0) rotate(-45)"><text text-anchor="end" font-size="10" fill="#111827">2022-Q4</text></g>
<rect x="253.4" y="282.6" width="24.3" height="37.4" fill="#34C759" rx="3" opacity="0.85"/>
<text x="265.5" y="266.6" text-anchor="middle" font-size="10" fill="#6b7280">91</text>
<text x="265.5" y="278.6" text-anchor="middle" font-size="10" fill="#6b7280">(3.15%)</text>
<g transform="translate(265.5,330.0) rotate(-45)"><text text-anchor="end" font-size="10" fill="#111827">2023-Q1</text></g>
<rect x="290.8" y="282.6" width="24.3" height="37.4" fill="#34C759" rx="3" opacity="0.85"/>
<text x="302.9" y="266.6" text-anchor="middle" font-size="10" fill="#6b7280">91</text>
<text x="302.9" y="278.6" text-anchor="middle" font-size="10" fill="#6b7280">(3.15%)</text>
<g transform="translate(302.9,330.0) rotate(-45)"><text text-anchor="end" font-size="10" fill="#111827">2023-Q2</text></g>
<rect x="328.1" y="284.6" width="24.3" height="35.4" fill="#34C759" rx="3" opacity="0.85"/>
<text x="340.3" y="268.6" text-anchor="middle" font-size="10" fill="#6b7280">86</text>
<text x="340.3" y="280.6" text-anchor="middle" font-size="10" fill="#6b7280">(2.97%)</text>
<g transform="translate(340.3,330.0) rotate(-45)"><text text-anchor="end" font-size="10" fill="#111827">2023-Q3</text></g>
<rect x="365.5" y="291.6" width="24.3" height="28.4" fill="#34C759" rx="3" opacity="0.85"/>
<text x="377.6" y="275.6" text-anchor="middle" font-size="10" fill="#6b7280">69</text>
<text x="377.6" y="287.6" text-anchor="middle" font-size="10" fill="#6b7280">(2.39%)</text>
<g transform="translate(377.6,330.0) rotate(-45)"><text text-anchor="end" font-size="10" fill="#111827">2023-Q4</text></g>
<rect x="402.9" y="270.2" width="24.3" height="49.8" fill="#34C759" rx="3" opacity="0.85"/>
<text x="415.0" y="254.2" text-anchor="middle" font-size="10" fill="#6b7280">121</text>
<text x="415.0" y="266.2" text-anchor="middle" font-size="10" fill="#6b7280">(4.19%)</text>
<g transform="translate(415.0,330.0) rotate(-45)"><text text-anchor="end" font-size="10" fill="#111827">2024-Q1</text></g>
<rect x="440.2" y="265.3" width="24.3" height="54.7" fill="#34C759" rx="3" opacity="0.85"/>
<text x="452.4" y="249.3" text-anchor="middle" font-size="10" fill="#6b7280">133</text>
<text x="452.4" y="261.3" text-anchor="middle" font-size="10" fill="#6b7280">(4.60%)</text>
<g transform="translate(452.4,330.0) rotate(-45)"><text text-anchor="end" font-size="10" fill="#111827">2024-Q2</text></g>
<rect x="477.6" y="266.9" width="24.3" height="53.1" fill="#34C759" rx="3" opacity="0.85"/>
<text x="489.7" y="250.9" text-anchor="middle" font-size="10" fill="#6b7280">129</text>
<text x="489.7" y="262.9" text-anchor="middle" font-size="10" fill="#6b7280">(4.46%)</text>
<g transform="translate(489.7,330.0) rotate(-45)"><text text-anchor="end" font-size="10" fill="#111827">2024-Q3</text></g>
<rect x="515.0" y="265.7" width="24.3" height="54.3" fill="#34C759" rx="3" opacity="0.85"/>
<text x="527.1" y="249.7" text-anchor="middle" font-size="10" fill="#6b7280">132</text>
<text x="527.1" y="261.7" text-anchor="middle" font-size="10" fill="#6b7280">(4.57%)</text>
<g transform="translate(527.1,330.0) rotate(-45)"><text text-anchor="end" font-size="10" fill="#111827">2024-Q4</text></g>
<rect x="552.3" y="235.3" width="24.3" height="84.7" fill="#34C759" rx="3" opacity="0.85"/>
<text x="564.5" y="219.3" text-anchor="middle" font-size="10" fill="#6b7280">206</text>
<text x="564.5" y="231.3" text-anchor="middle" font-size="10" fill="#6b7280">(7.13%)</text>
<g transform="translate(564.5,330.0) rotate(-45)"><text text-anchor="end" font-size="10" fill="#111827">2025-Q1</text></g>
<rect x="589.7" y="230.3" width="24.3" height="89.7" fill="#34C759" rx="3" opacity="0.85"/>
<text x="601.8" y="214.3" text-anchor="middle" font-size="10" fill="#6b7280">218</text>
<text x="601.8" y="226.3" text-anchor="middle" font-size="10" fill="#6b7280">(7.54%)</text>
<g transform="translate(601.8,330.0) rotate(-45)"><text text-anchor="end" font-size="10" fill="#111827">2025-Q2</text></g>
<rect x="627.1" y="232.4" width="24.3" height="87.6" fill="#34C759" rx="3" opacity="0.85"/>
<text x="639.2" y="216.4" text-anchor="middle" font-size="10" fill="#6b7280">213</text>
<text x="639.2" y="228.4" text-anchor="middle" font-size="10" fill="#6b7280">(7.37%)</text>
<g transform="translate(639.2,330.0) rotate(-45)"><text text-anchor="end" font-size="10" fill="#111827">2025-Q3</text></g>
<rect x="664.4" y="194.1" width="24.3" height="125.9" fill="#34C759" rx="3" opacity="0.85"/>
<text x="676.6" y="178.1" text-anchor="middle" font-size="10" fill="#6b7280">306</text>
<text x="676.6" y="190.1" text-anchor="middle" font-size="10" fill="#6b7280">(10.58%)</text>
<g transform="translate(676.6,330.0) rotate(-45)"><text text-anchor="end" font-size="10" fill="#111827">2025-Q4</text></g>
<rect x="701.8" y="58.0" width="24.3" height="262.0" fill="#34C759" rx="3" opacity="0.85"/>
<text x="713.9" y="72.0" text-anchor="middle" font-size="10" fill="#6b7280">637</text>
<text x="713.9" y="84.0" text-anchor="middle" font-size="10" fill="#6b7280">(22.03%)</text>
<g transform="translate(713.9,330.0) rotate(-45)"><text text-anchor="end" font-size="10" fill="#111827">2026-Q1</text></g>
<rect x="739.2" y="206.9" width="24.3" height="113.1" fill="#34C759" rx="3" opacity="0.85"/>
<text x="751.3" y="190.9" text-anchor="middle" font-size="10" fill="#6b7280">275</text>
<text x="751.3" y="202.9" text-anchor="middle" font-size="10" fill="#6b7280">(9.51%)</text>
<g transform="translate(751.3,330.0) rotate(-45)"><text text-anchor="end" font-size="10" fill="#111827">2026-Q2</text></g>
</svg>