<svg xmlns="http://www.w3.org/2000/svg" width="800" height="400" viewBox="0 0 800 400">
<defs>
  <style>text { font-family: -apple-system, BlinkMacSystemFont, 'Segoe UI', Roboto, sans-serif; }</style>
  <linearGradient id="g1" x1="0" y1="0" x2="0" y2="1">
  <stop offset="0%" stop-color="#FF6363" stop-opacity="0.25"/>
  <stop offset="100%" stop-color="#FF6363" stop-opacity="0"/>
</linearGradient>
  <clipPath id="ca"><rect x="72" y="45" width="698" height="295"/></clipPath>
</defs>
<rect width="800" height="400" fill="#ffffff" rx="12"/>
<text x="400" y="26" text-anchor="middle" font-size="15" font-weight="600" fill="#111827">Packages Growth Over Time</text>
<line x1="72" y1="340.0" x2="770" y2="340.0" stroke="#f3f4f6" stroke-width="1"/>
<text x="66" y="344.0" text-anchor="end" font-size="11" fill="#6b7280">2.4k</text>
<line x1="72" y1="281.0" x2="770" y2="281.0" stroke="#f3f4f6" stroke-width="1"/>
<text x="66" y="285.0" text-anchor="end" font-size="11" fill="#6b7280">2.5k</text>
<line x1="72" y1="222.0" x2="770" y2="222.0" stroke="#f3f4f6" stroke-width="1"/>
<text x="66" y="226.0" text-anchor="end" font-size="11" fill="#6b7280">2.6k</text>
<line x1="72" y1="163.0" x2="770" y2="163.0" stroke="#f3f4f6" stroke-width="1"/>
<text x="66" y="167.0" text-anchor="end" font-size="11" fill="#6b7280">2.7k</text>
<line x1="72" y1="104.0" x2="770" y2="104.0" stroke="#f3f4f6" stroke-width="1"/>
<text x="66" y="108.0" text-anchor="end" font-size="11" fill="#6b7280">2.8k</text>
<line x1="72" y1="45.0" x2="770" y2="45.0" stroke="#f3f4f6" stroke-width="1"/>
<text x="66" y="49.0" text-anchor="end" font-size="11" fill="#6b7280">2.9k</text>
<line x1="150.3" y1="45" x2="150.3" y2="340" stroke="#e5e7eb" stroke-width="1" stroke-dasharray="3,3" clip-path="url(#ca)"/>
<line x1="319.9" y1="45" x2="319.9" y2="340" stroke="#e5e7eb" stroke-width="1" stroke-dasharray="3,3" clip-path="url(#ca)"/>
<line x1="496.0" y1="45" x2="496.0" y2="340" stroke="#e5e7eb" stroke-width="1" stroke-dasharray="3,3" clip-path="url(#ca)"/>
<line x1="672.1" y1="45" x2="672.1" y2="340" stroke="#e5e7eb" stroke-width="1" stroke-dasharray="3,3" clip-path="url(#ca)"/>
<text x="72.0" y="358.0" text-anchor="middle" font-size="11" fill="#6b7280">Dec 11</text>
<text x="209.0" y="358.0" text-anchor="middle" font-size="11" fill="#6b7280">Jan 14</text>
<text x="352.5" y="358.0" text-anchor="middle" font-size="11" fill="#6b7280">Feb 6</text>
<text x="489.5" y="358.0" text-anchor="middle" font-size="11" fill="#6b7280">Feb 28</text>
<text x="633.0" y="358.0" text-anchor="middle" font-size="11" fill="#6b7280">Mar 24</text>
<text x="770.0" y="358.0" text-anchor="middle" font-size="11" fill="#6b7280">Apr 17</text>
<line x1="72" y1="45" x2="72" y2="340" stroke="#e5e7eb" stroke-width="1"/>
<line x1="72" y1="340" x2="770" y2="340" stroke="#e5e7eb" stroke-width="1"/>
<text x="-192.5" y="18" text-anchor="middle" font-size="12" fill="#6b7280" transform="rotate(-90)">Extensions</text>
<path d="M 72.0,340 L 72.0,294.6 L 78.5,294.0 L 85.0,294.0 L 91.6,292.2 L 98.1,292.2 L 104.6,291.0 L 111.1,289.9 L 117.7,289.3 L 124.2,286.3 L 130.7,283.9 L 137.2,283.9 L 143.8,283.9 L 150.3,283.9 L 156.8,282.8 L 163.3,282.8 L 169.9,282.8 L 176.4,281.6 L 182.9,279.2 L 189.4,275.1 L 195.9,272.1 L 202.5,271.0 L 209.0,270.4 L 215.5,268.0 L 222.0,260.9 L 228.6,258.6 L 235.1,258.6 L 241.6,252.7 L 248.1,250.9 L 254.7,248.6 L 261.2,246.8 L 267.7,243.2 L 274.2,240.3 L 280.7,239.7 L 287.3,235.0 L 293.8,230.8 L 300.3,230.8 L 306.8,227.9 L 313.4,225.5 L 319.9,224.9 L 326.4,224.4 L 332.9,223.8 L 339.5,222.0 L 346.0,211.4 L 352.5,206.7 L 359.0,204.3 L 365.6,203.1 L 372.1,201.3 L 378.6,197.2 L 385.1,196.0 L 391.6,194.9 L 398.2,191.3 L 404.7,190.1 L 411.2,189.0 L 417.7,189.0 L 424.3,178.3 L 430.8,177.2 L 437.3,176.0 L 443.8,173.6 L 450.4,170.7 L 456.9,170.7 L 463.4,166.0 L 469.9,158.3 L 476.4,157.1 L 483.0,157.7 L 489.5,155.9 L 496.0,155.3 L 502.5,155.3 L 509.1,151.8 L 515.6,148.8 L 522.1,146.5 L 528.6,143.5 L 535.2,142.9 L 541.7,142.9 L 548.2,138.8 L 554.7,137.6 L 561.3,137.0 L 567.8,130.0 L 574.3,129.4 L 580.8,129.4 L 587.3,129.4 L 593.9,128.8 L 600.4,125.8 L 606.9,123.5 L 613.4,120.5 L 620.0,119.9 L 626.5,118.2 L 633.0,112.8 L 639.5,108.1 L 646.1,107.5 L 652.6,106.9 L 659.1,105.2 L 665.6,99.3 L 672.1,98.1 L 678.7,96.3 L 685.2,92.8 L 691.7,92.2 L 698.2,91.6 L 704.8,91.6 L 711.3,90.4 L 717.8,86.9 L 724.3,85.7 L 730.9,84.5 L 737.4,83.9 L 743.9,82.8 L 750.4,76.9 L 757.0,76.3 L 763.5,75.1 L 770.0,74.5 L 770.0,340 Z" fill="url(#g1)" clip-path="url(#ca)"/>
<path d="M 72.0,294.6 L 78.5,294.0 L 85.0,294.0 L 91.6,292.2 L 98.1,292.2 L 104.6,291.0 L 111.1,289.9 L 117.7,289.3 L 124.2,286.3 L 130.7,283.9 L 137.2,283.9 L 143.8,283.9 L 150.3,283.9 L 156.8,282.8 L 163.3,282.8 L 169.9,282.8 L 176.4,281.6 L 182.9,279.2 L 189.4,275.1 L 195.9,272.1 L 202.5,271.0 L 209.0,270.4 L 215.5,268.0 L 222.0,260.9 L 228.6,258.6 L 235.1,258.6 L 241.6,252.7 L 248.1,250.9 L 254.7,248.6 L 261.2,246.8 L 267.7,243.2 L 274.2,240.3 L 280.7,239.7 L 287.3,235.0 L 293.8,230.8 L 300.3,230.8 L 306.8,227.9 L 313.4,225.5 L 319.9,224.9 L 326.4,224.4 L 332.9,223.8 L 339.5,222.0 L 346.0,211.4 L 352.5,206.7 L 359.0,204.3 L 365.6,203.1 L 372.1,201.3 L 378.6,197.2 L 385.1,196.0 L 391.6,194.9 L 398.2,191.3 L 404.7,190.1 L 411.2,189.0 L 417.7,189.0 L 424.3,178.3 L 430.8,177.2 L 437.3,176.0 L 443.8,173.6 L 450.4,170.7 L 456.9,170.7 L 463.4,166.0 L 469.9,158.3 L 476.4,157.1 L 483.0,157.7 L 489.5,155.9 L 496.0,155.3 L 502.5,155.3 L 509.1,151.8 L 515.6,148.8 L 522.1,146.5 L 528.6,143.5 L 535.2,142.9 L 541.7,142.9 L 548.2,138.8 L 554.7,137.6 L 561.3,137.0 L 567.8,130.0 L 574.3,129.4 L 580.8,129.4 L 587.3,129.4 L 593.9,128.8 L 600.4,125.8 L 606.9,123.5 L 613.4,120.5 L 620.0,119.9 L 626.5,118.2 L 633.0,112.8 L 639.5,108.1 L 646.1,107.5 L 652.6,106.9 L 659.1,105.2 L 665.6,99.3 L 672.1,98.1 L 678.7,96.3 L 685.2,92.8 L 691.7,92.2 L 698.2,91.6 L 704.8,91.6 L 711.3,90.4 L 717.8,86.9 L 724.3,85.7 L 730.9,84.5 L 737.4,83.9 L 743.9,82.8 L 750.4,76.9 L 757.0,76.3 L 763.5,75.1 L 770.0,74.5" fill="none" stroke="#FF6363" stroke-width="2.5" stroke-linejoin="round" clip-path="url(#ca)"/>
<text x="107.9" y="55.0" text-anchor="middle" font-size="9" fill="#FF6363" opacity="0.85" clip-path="url(#ca)">+0.7% (+18)</text>
<text x="231.8" y="55.0" text-anchor="middle" font-size="9" fill="#FF6363" opacity="0.85" clip-path="url(#ca)">+4.0% (+99)</text>
<text x="404.7" y="55.0" text-anchor="middle" font-size="9" fill="#FF6363" opacity="0.85" clip-path="url(#ca)">+4.5% (+117)</text>
<text x="580.8" y="55.0" text-anchor="middle" font-size="9" fill="#FF6363" opacity="0.85" clip-path="url(#ca)">+3.5% (+95)</text>
<text x="721.1" y="55.0" text-anchor="middle" font-size="9" fill="#FF6363" opacity="0.85" clip-path="url(#ca)">+1.4% (+40)</text>
<rect x="351" y="369" width="12" height="12" fill="#FF6363" rx="2"/>
<text x="367" y="379" font-size="12" fill="#111827">Extensions</text>
<text x="72" y="394" font-size="8" fill="#e5e7eb">data since Dec 11, 2025</text>
</svg>