<svg xmlns="http://www.w3.org/2000/svg" width="800" height="400" viewBox="0 0 800 400">
<defs>
  <style>text { font-family: -apple-system, BlinkMacSystemFont, 'Segoe UI', Roboto, sans-serif; }</style>
  <linearGradient id="g1" x1="0" y1="0" x2="0" y2="1">
  <stop offset="0%" stop-color="#FF6363" stop-opacity="0.25"/>
  <stop offset="100%" stop-color="#FF6363" stop-opacity="0"/>
</linearGradient>
  <clipPath id="ca"><rect x="72" y="45" width="698" height="295"/></clipPath>
</defs>
<rect width="800" height="400" fill="#ffffff" rx="12"/>
<text x="400" y="26" text-anchor="middle" font-size="15" font-weight="600" fill="#111827">Packages Growth Over Time</text>
<line x1="72" y1="340.0" x2="770" y2="340.0" stroke="#f3f4f6" stroke-width="1"/>
<text x="66" y="344.0" text-anchor="end" font-size="11" fill="#6b7280">2.4k</text>
<line x1="72" y1="281.0" x2="770" y2="281.0" stroke="#f3f4f6" stroke-width="1"/>
<text x="66" y="285.0" text-anchor="end" font-size="11" fill="#6b7280">2.5k</text>
<line x1="72" y1="222.0" x2="770" y2="222.0" stroke="#f3f4f6" stroke-width="1"/>
<text x="66" y="226.0" text-anchor="end" font-size="11" fill="#6b7280">2.6k</text>
<line x1="72" y1="163.0" x2="770" y2="163.0" stroke="#f3f4f6" stroke-width="1"/>
<text x="66" y="167.0" text-anchor="end" font-size="11" fill="#6b7280">2.7k</text>
<line x1="72" y1="104.0" x2="770" y2="104.0" stroke="#f3f4f6" stroke-width="1"/>
<text x="66" y="108.0" text-anchor="end" font-size="11" fill="#6b7280">2.8k</text>
<line x1="72" y1="45.0" x2="770" y2="45.0" stroke="#f3f4f6" stroke-width="1"/>
<text x="66" y="49.0" text-anchor="end" font-size="11" fill="#6b7280">2.9k</text>
<line x1="144.2" y1="45" x2="144.2" y2="340" stroke="#e5e7eb" stroke-width="1" stroke-dasharray="3,3" clip-path="url(#ca)"/>
<line x1="300.7" y1="45" x2="300.7" y2="340" stroke="#e5e7eb" stroke-width="1" stroke-dasharray="3,3" clip-path="url(#ca)"/>
<line x1="463.1" y1="45" x2="463.1" y2="340" stroke="#e5e7eb" stroke-width="1" stroke-dasharray="3,3" clip-path="url(#ca)"/>
<line x1="625.6" y1="45" x2="625.6" y2="340" stroke="#e5e7eb" stroke-width="1" stroke-dasharray="3,3" clip-path="url(#ca)"/>
<text x="72.0" y="358.0" text-anchor="middle" font-size="11" fill="#6b7280">Dec 11</text>
<text x="210.4" y="358.0" text-anchor="middle" font-size="11" fill="#6b7280">Jan 16</text>
<text x="348.8" y="358.0" text-anchor="middle" font-size="11" fill="#6b7280">Feb 9</text>
<text x="493.2" y="358.0" text-anchor="middle" font-size="11" fill="#6b7280">Mar 6</text>
<text x="631.6" y="358.0" text-anchor="middle" font-size="11" fill="#6b7280">Apr 2</text>
<text x="770.0" y="358.0" text-anchor="middle" font-size="11" fill="#6b7280">Apr 28</text>
<line x1="72" y1="45" x2="72" y2="340" stroke="#e5e7eb" stroke-width="1"/>
<line x1="72" y1="340" x2="770" y2="340" stroke="#e5e7eb" stroke-width="1"/>
<text x="-192.5" y="18" text-anchor="middle" font-size="12" fill="#6b7280" transform="rotate(-90)">Extensions</text>
<path d="M 72.0,340 L 72.0,294.6 L 78.0,294.0 L 84.0,294.0 L 90.1,292.2 L 96.1,292.2 L 102.1,291.0 L 108.1,289.9 L 114.1,289.3 L 120.1,286.3 L 126.2,283.9 L 132.2,283.9 L 138.2,283.9 L 144.2,283.9 L 150.2,282.8 L 156.2,282.8 L 162.3,282.8 L 168.3,281.6 L 174.3,279.2 L 180.3,275.1 L 186.3,272.1 L 192.3,271.0 L 198.4,270.4 L 204.4,268.0 L 210.4,260.9 L 216.4,258.6 L 222.4,258.6 L 228.4,252.7 L 234.5,250.9 L 240.5,248.6 L 246.5,246.8 L 252.5,243.2 L 258.5,240.3 L 264.6,239.7 L 270.6,235.0 L 276.6,230.8 L 282.6,230.8 L 288.6,227.9 L 294.6,225.5 L 300.7,224.9 L 306.7,224.4 L 312.7,223.8 L 318.7,222.0 L 324.7,211.4 L 330.7,206.7 L 336.8,204.3 L 342.8,203.1 L 348.8,201.3 L 354.8,197.2 L 360.8,196.0 L 366.8,194.9 L 372.9,191.3 L 378.9,190.1 L 384.9,189.0 L 390.9,189.0 L 396.9,178.3 L 402.9,177.2 L 409.0,176.0 L 415.0,173.6 L 421.0,170.7 L 427.0,170.7 L 433.0,166.0 L 439.1,158.3 L 445.1,157.1 L 451.1,157.7 L 457.1,155.9 L 463.1,155.3 L 469.1,155.3 L 475.2,151.8 L 481.2,148.8 L 487.2,146.5 L 493.2,143.5 L 499.2,142.9 L 505.2,142.9 L 511.3,138.8 L 517.3,137.6 L 523.3,137.0 L 529.3,130.0 L 535.3,129.4 L 541.3,129.4 L 547.4,129.4 L 553.4,128.8 L 559.4,125.8 L 565.4,123.5 L 571.4,120.5 L 577.4,119.9 L 583.5,118.2 L 589.5,112.8 L 595.5,108.1 L 601.5,107.5 L 607.5,106.9 L 613.6,105.2 L 619.6,99.3 L 625.6,98.1 L 631.6,96.3 L 637.6,92.8 L 643.6,92.2 L 649.7,91.6 L 655.7,91.6 L 661.7,90.4 L 667.7,86.9 L 673.7,85.7 L 679.7,84.5 L 685.8,83.9 L 691.8,82.8 L 697.8,76.9 L 703.8,76.3 L 709.8,75.1 L 715.8,74.5 L 721.9,71.6 L 727.9,71.0 L 733.9,70.4 L 739.9,68.6 L 745.9,66.2 L 751.9,66.2 L 758.0,66.2 L 764.0,66.2 L 770.0,65.1 L 770.0,340 Z" fill="url(#g1)" clip-path="url(#ca)"/>
<path d="M 72.0,294.6 L 78.0,294.0 L 84.0,294.0 L 90.1,292.2 L 96.1,292.2 L 102.1,291.0 L 108.1,289.9 L 114.1,289.3 L 120.1,286.3 L 126.2,283.9 L 132.2,283.9 L 138.2,283.9 L 144.2,283.9 L 150.2,282.8 L 156.2,282.8 L 162.3,282.8 L 168.3,281.6 L 174.3,279.2 L 180.3,275.1 L 186.3,272.1 L 192.3,271.0 L 198.4,270.4 L 204.4,268.0 L 210.4,260.9 L 216.4,258.6 L 222.4,258.6 L 228.4,252.7 L 234.5,250.9 L 240.5,248.6 L 246.5,246.8 L 252.5,243.2 L 258.5,240.3 L 264.6,239.7 L 270.6,235.0 L 276.6,230.8 L 282.6,230.8 L 288.6,227.9 L 294.6,225.5 L 300.7,224.9 L 306.7,224.4 L 312.7,223.8 L 318.7,222.0 L 324.7,211.4 L 330.7,206.7 L 336.8,204.3 L 342.8,203.1 L 348.8,201.3 L 354.8,197.2 L 360.8,196.0 L 366.8,194.9 L 372.9,191.3 L 378.9,190.1 L 384.9,189.0 L 390.9,189.0 L 396.9,178.3 L 402.9,177.2 L 409.0,176.0 L 415.0,173.6 L 421.0,170.7 L 427.0,170.7 L 433.0,166.0 L 439.1,158.3 L 445.1,157.1 L 451.1,157.7 L 457.1,155.9 L 463.1,155.3 L 469.1,155.3 L 475.2,151.8 L 481.2,148.8 L 487.2,146.5 L 493.2,143.5 L 499.2,142.9 L 505.2,142.9 L 511.3,138.8 L 517.3,137.6 L 523.3,137.0 L 529.3,130.0 L 535.3,129.4 L 541.3,129.4 L 547.4,129.4 L 553.4,128.8 L 559.4,125.8 L 565.4,123.5 L 571.4,120.5 L 577.4,119.9 L 583.5,118.2 L 589.5,112.8 L 595.5,108.1 L 601.5,107.5 L 607.5,106.9 L 613.6,105.2 L 619.6,99.3 L 625.6,98.1 L 631.6,96.3 L 637.6,92.8 L 643.6,92.2 L 649.7,91.6 L 655.7,91.6 L 661.7,90.4 L 667.7,86.9 L 673.7,85.7 L 679.7,84.5 L 685.8,83.9 L 691.8,82.8 L 697.8,76.9 L 703.8,76.3 L 709.8,75.1 L 715.8,74.5 L 721.9,71.6 L 727.9,71.0 L 733.9,70.4 L 739.9,68.6 L 745.9,66.2 L 751.9,66.2 L 758.0,66.2 L 764.0,66.2 L 770.0,65.1" fill="none" stroke="#FF6363" stroke-width="2.5" stroke-linejoin="round" clip-path="url(#ca)"/>
<text x="105.1" y="55.0" text-anchor="middle" font-size="9" fill="#FF6363" opacity="0.85" clip-path="url(#ca)">+0.7% (+18)</text>
<text x="219.4" y="55.0" text-anchor="middle" font-size="9" fill="#FF6363" opacity="0.85" clip-path="url(#ca)">+4.0% (+99)</text>
<text x="378.9" y="55.0" text-anchor="middle" font-size="9" fill="#FF6363" opacity="0.85" clip-path="url(#ca)">+4.5% (+117)</text>
<text x="541.3" y="55.0" text-anchor="middle" font-size="9" fill="#FF6363" opacity="0.85" clip-path="url(#ca)">+3.5% (+95)</text>
<text x="697.8" y="55.0" text-anchor="middle" font-size="9" fill="#FF6363" opacity="0.85" clip-path="url(#ca)">+2.0% (+56)</text>
<rect x="351" y="369" width="12" height="12" fill="#FF6363" rx="2"/>
<text x="367" y="379" font-size="12" fill="#111827">Extensions</text>
<text x="72" y="394" font-size="8" fill="#e5e7eb">data since Dec 11, 2025</text>
</svg>