<svg xmlns="http://www.w3.org/2000/svg" width="800" height="400" viewBox="0 0 800 400">
<defs>
  <style>text { font-family: -apple-system, BlinkMacSystemFont, 'Segoe UI', Roboto, sans-serif; }</style>
  <linearGradient id="g1" x1="0" y1="0" x2="0" y2="1">
  <stop offset="0%" stop-color="#FF6363" stop-opacity="0.25"/>
  <stop offset="100%" stop-color="#FF6363" stop-opacity="0"/>
</linearGradient>
  <clipPath id="ca"><rect x="72" y="45" width="698" height="295"/></clipPath>
</defs>
<rect width="800" height="400" fill="#ffffff" rx="12"/>
<text x="400" y="26" text-anchor="middle" font-size="15" font-weight="600" fill="#111827">Packages Growth Over Time</text>
<line x1="72" y1="340.0" x2="770" y2="340.0" stroke="#f3f4f6" stroke-width="1"/>
<text x="66" y="344.0" text-anchor="end" font-size="11" fill="#6b7280">2.4k</text>
<line x1="72" y1="290.8" x2="770" y2="290.8" stroke="#f3f4f6" stroke-width="1"/>
<text x="66" y="294.8" text-anchor="end" font-size="11" fill="#6b7280">2.5k</text>
<line x1="72" y1="241.7" x2="770" y2="241.7" stroke="#f3f4f6" stroke-width="1"/>
<text x="66" y="245.7" text-anchor="end" font-size="11" fill="#6b7280">2.6k</text>
<line x1="72" y1="192.5" x2="770" y2="192.5" stroke="#f3f4f6" stroke-width="1"/>
<text x="66" y="196.5" text-anchor="end" font-size="11" fill="#6b7280">2.7k</text>
<line x1="72" y1="143.3" x2="770" y2="143.3" stroke="#f3f4f6" stroke-width="1"/>
<text x="66" y="147.3" text-anchor="end" font-size="11" fill="#6b7280">2.8k</text>
<line x1="72" y1="94.2" x2="770" y2="94.2" stroke="#f3f4f6" stroke-width="1"/>
<text x="66" y="98.2" text-anchor="end" font-size="11" fill="#6b7280">2.9k</text>
<line x1="72" y1="45.0" x2="770" y2="45.0" stroke="#f3f4f6" stroke-width="1"/>
<text x="66" y="49.0" text-anchor="end" font-size="11" fill="#6b7280">3.0k</text>
<line x1="133.6" y1="45" x2="133.6" y2="340" stroke="#e5e7eb" stroke-width="1" stroke-dasharray="3,3" clip-path="url(#ca)"/>
<line x1="267.0" y1="45" x2="267.0" y2="340" stroke="#e5e7eb" stroke-width="1" stroke-dasharray="3,3" clip-path="url(#ca)"/>
<line x1="405.6" y1="45" x2="405.6" y2="340" stroke="#e5e7eb" stroke-width="1" stroke-dasharray="3,3" clip-path="url(#ca)"/>
<line x1="544.2" y1="45" x2="544.2" y2="340" stroke="#e5e7eb" stroke-width="1" stroke-dasharray="3,3" clip-path="url(#ca)"/>
<line x1="682.8" y1="45" x2="682.8" y2="340" stroke="#e5e7eb" stroke-width="1" stroke-dasharray="3,3" clip-path="url(#ca)"/>
<text x="72.0" y="358.0" text-anchor="middle" font-size="11" fill="#6b7280">Dec 11</text>
<text x="210.6" y="358.0" text-anchor="middle" font-size="11" fill="#6b7280">Jan 21</text>
<text x="349.1" y="358.0" text-anchor="middle" font-size="11" fill="#6b7280">Feb 17</text>
<text x="492.9" y="358.0" text-anchor="middle" font-size="11" fill="#6b7280">Mar 19</text>
<text x="631.4" y="358.0" text-anchor="middle" font-size="11" fill="#6b7280">Apr 19</text>
<text x="770.0" y="358.0" text-anchor="middle" font-size="11" fill="#6b7280">May 23</text>
<line x1="72" y1="45" x2="72" y2="340" stroke="#e5e7eb" stroke-width="1"/>
<line x1="72" y1="340" x2="770" y2="340" stroke="#e5e7eb" stroke-width="1"/>
<text x="-192.5" y="18" text-anchor="middle" font-size="12" fill="#6b7280" transform="rotate(-90)">Extensions</text>
<path d="M 72.0,340 L 72.0,302.1 L 77.1,301.6 L 82.3,301.6 L 87.4,300.2 L 92.5,300.2 L 97.7,299.2 L 102.8,298.2 L 107.9,297.7 L 113.1,295.3 L 118.2,293.3 L 123.3,293.3 L 128.5,293.3 L 133.6,293.3 L 138.7,292.3 L 143.9,292.3 L 149.0,292.3 L 154.1,291.3 L 159.3,289.4 L 164.4,285.9 L 169.5,283.5 L 174.6,282.5 L 179.8,282.0 L 184.9,280.0 L 190.0,274.1 L 195.2,272.1 L 200.3,272.1 L 205.4,267.2 L 210.6,265.8 L 215.7,263.8 L 220.8,262.3 L 226.0,259.4 L 231.1,256.9 L 236.2,256.4 L 241.4,252.5 L 246.5,249.0 L 251.6,249.0 L 256.8,246.6 L 261.9,244.6 L 267.0,244.1 L 272.2,243.6 L 277.3,243.1 L 282.4,241.7 L 287.6,232.8 L 292.7,228.9 L 297.8,226.9 L 303.0,225.9 L 308.1,224.5 L 313.2,221.0 L 318.4,220.0 L 323.5,219.1 L 328.6,216.1 L 333.8,215.1 L 338.9,214.1 L 344.0,214.1 L 349.1,205.3 L 354.3,204.3 L 359.4,203.3 L 364.5,201.3 L 369.7,198.9 L 374.8,198.9 L 379.9,195.0 L 385.1,188.6 L 390.2,187.6 L 395.3,188.1 L 400.5,186.6 L 405.6,186.1 L 410.7,186.1 L 415.9,183.2 L 421.0,180.7 L 426.1,178.7 L 431.3,176.3 L 436.4,175.8 L 441.5,175.8 L 446.7,172.3 L 451.8,171.4 L 456.9,170.9 L 462.1,165.0 L 467.2,164.5 L 472.3,164.5 L 477.5,164.5 L 482.6,164.0 L 487.7,161.5 L 492.9,159.6 L 498.0,157.1 L 503.1,156.6 L 508.3,155.1 L 513.4,150.7 L 518.5,146.8 L 523.6,146.3 L 528.8,145.8 L 533.9,144.3 L 539.0,139.4 L 544.2,138.4 L 549.3,136.9 L 554.4,134.0 L 559.6,133.5 L 564.7,133.0 L 569.8,133.0 L 575.0,132.0 L 580.1,129.1 L 585.2,128.1 L 590.4,127.1 L 595.5,126.6 L 600.6,125.6 L 605.8,120.7 L 610.9,120.2 L 616.0,119.2 L 621.2,118.8 L 626.3,116.3 L 631.4,115.8 L 636.6,115.3 L 641.7,113.8 L 646.8,111.9 L 652.0,111.9 L 657.1,111.9 L 662.2,111.9 L 667.4,110.9 L 672.5,108.4 L 677.6,107.9 L 682.8,105.5 L 687.9,105.0 L 693.0,104.5 L 698.1,101.5 L 703.3,98.6 L 708.4,98.1 L 713.5,97.6 L 718.7,91.2 L 723.8,89.3 L 728.9,87.8 L 734.1,87.3 L 739.2,83.8 L 744.3,83.8 L 749.5,81.4 L 754.6,79.9 L 759.7,75.0 L 764.9,73.0 L 770.0,72.5 L 770.0,340 Z" fill="url(#g1)" clip-path="url(#ca)"/>
<path d="M 72.0,302.1 L 77.1,301.6 L 82.3,301.6 L 87.4,300.2 L 92.5,300.2 L 97.7,299.2 L 102.8,298.2 L 107.9,297.7 L 113.1,295.3 L 118.2,293.3 L 123.3,293.3 L 128.5,293.3 L 133.6,293.3 L 138.7,292.3 L 143.9,292.3 L 149.0,292.3 L 154.1,291.3 L 159.3,289.4 L 164.4,285.9 L 169.5,283.5 L 174.6,282.5 L 179.8,282.0 L 184.9,280.0 L 190.0,274.1 L 195.2,272.1 L 200.3,272.1 L 205.4,267.2 L 210.6,265.8 L 215.7,263.8 L 220.8,262.3 L 226.0,259.4 L 231.1,256.9 L 236.2,256.4 L 241.4,252.5 L 246.5,249.0 L 251.6,249.0 L 256.8,246.6 L 261.9,244.6 L 267.0,244.1 L 272.2,243.6 L 277.3,243.1 L 282.4,241.7 L 287.6,232.8 L 292.7,228.9 L 297.8,226.9 L 303.0,225.9 L 308.1,224.5 L 313.2,221.0 L 318.4,220.0 L 323.5,219.1 L 328.6,216.1 L 333.8,215.1 L 338.9,214.1 L 344.0,214.1 L 349.1,205.3 L 354.3,204.3 L 359.4,203.3 L 364.5,201.3 L 369.7,198.9 L 374.8,198.9 L 379.9,195.0 L 385.1,188.6 L 390.2,187.6 L 395.3,188.1 L 400.5,186.6 L 405.6,186.1 L 410.7,186.1 L 415.9,183.2 L 421.0,180.7 L 426.1,178.7 L 431.3,176.3 L 436.4,175.8 L 441.5,175.8 L 446.7,172.3 L 451.8,171.4 L 456.9,170.9 L 462.1,165.0 L 467.2,164.5 L 472.3,164.5 L 477.5,164.5 L 482.6,164.0 L 487.7,161.5 L 492.9,159.6 L 498.0,157.1 L 503.1,156.6 L 508.3,155.1 L 513.4,150.7 L 518.5,146.8 L 523.6,146.3 L 528.8,145.8 L 533.9,144.3 L 539.0,139.4 L 544.2,138.4 L 549.3,136.9 L 554.4,134.0 L 559.6,133.5 L 564.7,133.0 L 569.8,133.0 L 575.0,132.0 L 580.1,129.1 L 585.2,128.1 L 590.4,127.1 L 595.5,126.6 L 600.6,125.6 L 605.8,120.7 L 610.9,120.2 L 616.0,119.2 L 621.2,118.8 L 626.3,116.3 L 631.4,115.8 L 636.6,115.3 L 641.7,113.8 L 646.8,111.9 L 652.0,111.9 L 657.1,111.9 L 662.2,111.9 L 667.4,110.9 L 672.5,108.4 L 677.6,107.9 L 682.8,105.5 L 687.9,105.0 L 693.0,104.5 L 698.1,101.5 L 703.3,98.6 L 708.4,98.1 L 713.5,97.6 L 718.7,91.2 L 723.8,89.3 L 728.9,87.8 L 734.1,87.3 L 739.2,83.8 L 744.3,83.8 L 749.5,81.4 L 754.6,79.9 L 759.7,75.0 L 764.9,73.0 L 770.0,72.5" fill="none" stroke="#FF6363" stroke-width="2.5" stroke-linejoin="round" clip-path="url(#ca)"/>
<text x="100.2" y="55.0" text-anchor="middle" font-size="9" fill="#FF6363" opacity="0.85" clip-path="url(#ca)">+0.7% (+18)</text>
<text x="197.7" y="55.0" text-anchor="middle" font-size="9" fill="#FF6363" opacity="0.85" clip-path="url(#ca)">+4.0% (+99)</text>
<text x="333.8" y="55.0" text-anchor="middle" font-size="9" fill="#FF6363" opacity="0.85" clip-path="url(#ca)">+4.5% (+117)</text>
<text x="472.3" y="55.0" text-anchor="middle" font-size="9" fill="#FF6363" opacity="0.85" clip-path="url(#ca)">+3.5% (+95)</text>
<text x="610.9" y="55.0" text-anchor="middle" font-size="9" fill="#FF6363" opacity="0.85" clip-path="url(#ca)">+2.2% (+62)</text>
<text x="726.4" y="55.0" text-anchor="middle" font-size="9" fill="#FF6363" opacity="0.85" clip-path="url(#ca)">+2.3% (+67)</text>
<rect x="351" y="369" width="12" height="12" fill="#FF6363" rx="2"/>
<text x="367" y="379" font-size="12" fill="#111827">Extensions</text>
<text x="72" y="394" font-size="8" fill="#e5e7eb">data since Dec 11, 2025</text>
</svg>