<svg xmlns="http://www.w3.org/2000/svg" width="800" height="400" viewBox="0 0 800 400">
<defs>
  <style>text { font-family: -apple-system, BlinkMacSystemFont, 'Segoe UI', Roboto, sans-serif; }</style>
  <linearGradient id="g5" x1="0" y1="0" x2="0" y2="1">
  <stop offset="0%" stop-color="#34C759" stop-opacity="0.25"/>
  <stop offset="100%" stop-color="#34C759" stop-opacity="0"/>
</linearGradient>
<linearGradient id="g6" x1="0" y1="0" x2="0" y2="1">
  <stop offset="0%" stop-color="#4F8EF7" stop-opacity="0.25"/>
  <stop offset="100%" stop-color="#4F8EF7" stop-opacity="0"/>
</linearGradient>
<linearGradient id="g7" x1="0" y1="0" x2="0" y2="1">
  <stop offset="0%" stop-color="#FF6363" stop-opacity="0.25"/>
  <stop offset="100%" stop-color="#FF6363" stop-opacity="0"/>
</linearGradient>
  <clipPath id="ca"><rect x="72" y="45" width="698" height="295"/></clipPath>
</defs>
<rect width="800" height="400" fill="#ffffff" rx="12"/>
<text x="400" y="26" text-anchor="middle" font-size="15" font-weight="600" fill="#111827">Platform Support Over Time</text>
<line x1="72" y1="340.0" x2="770" y2="340.0" stroke="#f3f4f6" stroke-width="1"/>
<text x="66" y="344.0" text-anchor="end" font-size="11" fill="#6b7280">0</text>
<line x1="72" y1="281.0" x2="770" y2="281.0" stroke="#f3f4f6" stroke-width="1"/>
<text x="66" y="285.0" text-anchor="end" font-size="11" fill="#6b7280">200</text>
<line x1="72" y1="222.0" x2="770" y2="222.0" stroke="#f3f4f6" stroke-width="1"/>
<text x="66" y="226.0" text-anchor="end" font-size="11" fill="#6b7280">400</text>
<line x1="72" y1="163.0" x2="770" y2="163.0" stroke="#f3f4f6" stroke-width="1"/>
<text x="66" y="167.0" text-anchor="end" font-size="11" fill="#6b7280">600</text>
<line x1="72" y1="104.0" x2="770" y2="104.0" stroke="#f3f4f6" stroke-width="1"/>
<text x="66" y="108.0" text-anchor="end" font-size="11" fill="#6b7280">800</text>
<line x1="72" y1="45.0" x2="770" y2="45.0" stroke="#f3f4f6" stroke-width="1"/>
<text x="66" y="49.0" text-anchor="end" font-size="11" fill="#6b7280">1.0k</text>
<line x1="121.6" y1="45" x2="121.6" y2="340" stroke="#e5e7eb" stroke-width="1" stroke-dasharray="3,3" clip-path="url(#ca)"/>
<line x1="228.9" y1="45" x2="228.9" y2="340" stroke="#e5e7eb" stroke-width="1" stroke-dasharray="3,3" clip-path="url(#ca)"/>
<line x1="340.5" y1="45" x2="340.5" y2="340" stroke="#e5e7eb" stroke-width="1" stroke-dasharray="3,3" clip-path="url(#ca)"/>
<line x1="452.0" y1="45" x2="452.0" y2="340" stroke="#e5e7eb" stroke-width="1" stroke-dasharray="3,3" clip-path="url(#ca)"/>
<line x1="563.5" y1="45" x2="563.5" y2="340" stroke="#e5e7eb" stroke-width="1" stroke-dasharray="3,3" clip-path="url(#ca)"/>
<line x1="670.9" y1="45" x2="670.9" y2="340" stroke="#e5e7eb" stroke-width="1" stroke-dasharray="3,3" clip-path="url(#ca)"/>
<line x1="770.0" y1="45" x2="770.0" y2="340" stroke="#e5e7eb" stroke-width="1" stroke-dasharray="3,3" clip-path="url(#ca)"/>
<text x="72.0" y="358.0" text-anchor="middle" font-size="11" fill="#6b7280">Dec 11</text>
<text x="212.4" y="358.0" text-anchor="middle" font-size="11" fill="#6b7280">Jan 28</text>
<text x="352.9" y="358.0" text-anchor="middle" font-size="11" fill="#6b7280">Mar 4</text>
<text x="489.1" y="358.0" text-anchor="middle" font-size="11" fill="#6b7280">Apr 11</text>
<text x="629.6" y="358.0" text-anchor="middle" font-size="11" fill="#6b7280">May 22</text>
<text x="770.0" y="358.0" text-anchor="middle" font-size="11" fill="#6b7280">Jul 1</text>
<line x1="72" y1="45" x2="72" y2="340" stroke="#e5e7eb" stroke-width="1"/>
<line x1="72" y1="340" x2="770" y2="340" stroke="#e5e7eb" stroke-width="1"/>
<text x="-192.5" y="18" text-anchor="middle" font-size="12" fill="#6b7280" transform="rotate(-90)">Extensions</text>
<path d="M 72.0,340 L 72.0,242.6 L 76.1,240.0 L 80.3,239.7 L 84.4,238.5 L 88.5,237.9 L 92.7,235.0 L 96.8,233.2 L 100.9,232.3 L 105.0,230.8 L 109.2,229.1 L 113.3,228.2 L 117.4,227.9 L 121.6,227.0 L 125.7,226.4 L 129.8,226.1 L 134.0,225.2 L 138.1,224.4 L 142.2,223.5 L 146.3,222.6 L 150.5,221.4 L 154.6,220.5 L 158.7,219.6 L 162.9,218.8 L 167.0,217.0 L 171.1,216.4 L 175.3,216.4 L 179.4,214.3 L 183.5,213.7 L 187.6,213.2 L 191.8,212.6 L 195.9,211.1 L 200.0,209.0 L 204.2,208.7 L 208.3,208.4 L 212.4,206.7 L 216.6,206.1 L 220.7,204.6 L 224.8,204.3 L 228.9,204.0 L 233.1,203.4 L 237.2,203.4 L 241.3,203.4 L 245.5,199.3 L 249.6,199.0 L 253.7,198.1 L 257.9,197.8 L 262.0,197.5 L 266.1,196.6 L 270.2,196.0 L 274.4,195.4 L 278.5,193.7 L 282.6,193.7 L 286.8,193.7 L 290.9,193.4 L 295.0,190.4 L 299.2,189.6 L 303.3,189.0 L 307.4,188.1 L 311.6,187.5 L 315.7,187.5 L 319.8,186.0 L 323.9,183.9 L 328.1,183.4 L 332.2,183.1 L 336.3,182.2 L 340.5,182.2 L 344.6,181.6 L 348.7,180.7 L 352.9,180.1 L 357.0,178.9 L 361.1,177.8 L 365.2,177.5 L 369.4,177.5 L 373.5,176.3 L 377.6,176.3 L 381.8,176.3 L 385.9,174.5 L 390.0,174.2 L 394.2,173.9 L 398.3,173.9 L 402.4,173.6 L 406.5,172.4 L 410.7,171.9 L 414.8,171.0 L 418.9,171.0 L 423.1,170.7 L 427.2,169.5 L 431.3,168.6 L 435.5,168.6 L 439.6,168.3 L 443.7,167.7 L 447.8,165.7 L 452.0,165.1 L 456.1,164.2 L 460.2,164.2 L 464.4,163.6 L 468.5,163.3 L 472.6,163.0 L 476.8,162.7 L 480.9,162.4 L 485.0,162.4 L 489.1,162.1 L 493.3,161.8 L 497.4,160.9 L 501.5,159.8 L 505.7,159.5 L 509.8,158.6 L 513.9,158.6 L 518.1,157.4 L 522.2,157.1 L 526.3,157.1 L 530.4,157.1 L 534.6,156.2 L 538.7,155.9 L 542.8,155.9 L 547.0,155.9 L 551.1,155.6 L 555.2,154.4 L 559.4,154.2 L 563.5,153.3 L 567.6,152.7 L 571.8,152.7 L 575.9,151.8 L 580.0,151.2 L 584.1,151.2 L 588.3,150.9 L 592.4,149.4 L 596.5,148.0 L 600.7,147.7 L 604.8,147.1 L 608.9,145.9 L 613.1,145.9 L 617.2,145.3 L 621.3,143.8 L 625.4,141.2 L 629.6,140.3 L 633.7,140.3 L 637.8,140.3 L 642.0,140.3 L 646.1,140.3 L 650.2,139.1 L 654.4,138.2 L 658.5,138.2 L 662.6,138.2 L 666.7,138.2 L 670.9,137.3 L 675.0,137.3 L 679.1,136.5 L 683.3,135.6 L 687.4,135.3 L 691.5,135.0 L 695.7,134.4 L 699.8,134.4 L 703.9,133.5 L 708.0,132.3 L 712.2,131.4 L 716.3,129.7 L 720.4,129.1 L 724.6,128.8 L 728.7,128.5 L 732.8,127.9 L 737.0,127.6 L 741.1,126.1 L 745.2,125.2 L 749.3,123.8 L 753.5,123.5 L 757.6,123.5 L 761.7,123.2 L 765.9,122.0 L 770.0,121.7 L 770.0,340 Z" fill="url(#g5)" clip-path="url(#ca)"/>
<path d="M 72.0,242.6 L 76.1,240.0 L 80.3,239.7 L 84.4,238.5 L 88.5,237.9 L 92.7,235.0 L 96.8,233.2 L 100.9,232.3 L 105.0,230.8 L 109.2,229.1 L 113.3,228.2 L 117.4,227.9 L 121.6,227.0 L 125.7,226.4 L 129.8,226.1 L 134.0,225.2 L 138.1,224.4 L 142.2,223.5 L 146.3,222.6 L 150.5,221.4 L 154.6,220.5 L 158.7,219.6 L 162.9,218.8 L 167.0,217.0 L 171.1,216.4 L 175.3,216.4 L 179.4,214.3 L 183.5,213.7 L 187.6,213.2 L 191.8,212.6 L 195.9,211.1 L 200.0,209.0 L 204.2,208.7 L 208.3,208.4 L 212.4,206.7 L 216.6,206.1 L 220.7,204.6 L 224.8,204.3 L 228.9,204.0 L 233.1,203.4 L 237.2,203.4 L 241.3,203.4 L 245.5,199.3 L 249.6,199.0 L 253.7,198.1 L 257.9,197.8 L 262.0,197.5 L 266.1,196.6 L 270.2,196.0 L 274.4,195.4 L 278.5,193.7 L 282.6,193.7 L 286.8,193.7 L 290.9,193.4 L 295.0,190.4 L 299.2,189.6 L 303.3,189.0 L 307.4,188.1 L 311.6,187.5 L 315.7,187.5 L 319.8,186.0 L 323.9,183.9 L 328.1,183.4 L 332.2,183.1 L 336.3,182.2 L 340.5,182.2 L 344.6,181.6 L 348.7,180.7 L 352.9,180.1 L 357.0,178.9 L 361.1,177.8 L 365.2,177.5 L 369.4,177.5 L 373.5,176.3 L 377.6,176.3 L 381.8,176.3 L 385.9,174.5 L 390.0,174.2 L 394.2,173.9 L 398.3,173.9 L 402.4,173.6 L 406.5,172.4 L 410.7,171.9 L 414.8,171.0 L 418.9,171.0 L 423.1,170.7 L 427.2,169.5 L 431.3,168.6 L 435.5,168.6 L 439.6,168.3 L 443.7,167.7 L 447.8,165.7 L 452.0,165.1 L 456.1,164.2 L 460.2,164.2 L 464.4,163.6 L 468.5,163.3 L 472.6,163.0 L 476.8,162.7 L 480.9,162.4 L 485.0,162.4 L 489.1,162.1 L 493.3,161.8 L 497.4,160.9 L 501.5,159.8 L 505.7,159.5 L 509.8,158.6 L 513.9,158.6 L 518.1,157.4 L 522.2,157.1 L 526.3,157.1 L 530.4,157.1 L 534.6,156.2 L 538.7,155.9 L 542.8,155.9 L 547.0,155.9 L 551.1,155.6 L 555.2,154.4 L 559.4,154.2 L 563.5,153.3 L 567.6,152.7 L 571.8,152.7 L 575.9,151.8 L 580.0,151.2 L 584.1,151.2 L 588.3,150.9 L 592.4,149.4 L 596.5,148.0 L 600.7,147.7 L 604.8,147.1 L 608.9,145.9 L 613.1,145.9 L 617.2,145.3 L 621.3,143.8 L 625.4,141.2 L 629.6,140.3 L 633.7,140.3 L 637.8,140.3 L 642.0,140.3 L 646.1,140.3 L 650.2,139.1 L 654.4,138.2 L 658.5,138.2 L 662.6,138.2 L 666.7,138.2 L 670.9,137.3 L 675.0,137.3 L 679.1,136.5 L 683.3,135.6 L 687.4,135.3 L 691.5,135.0 L 695.7,134.4 L 699.8,134.4 L 703.9,133.5 L 708.0,132.3 L 712.2,131.4 L 716.3,129.7 L 720.4,129.1 L 724.6,128.8 L 728.7,128.5 L 732.8,127.9 L 737.0,127.6 L 741.1,126.1 L 745.2,125.2 L 749.3,123.8 L 753.5,123.5 L 757.6,123.5 L 761.7,123.2 L 765.9,122.0 L 770.0,121.7" fill="none" stroke="#34C759" stroke-width="2.5" stroke-linejoin="round" clip-path="url(#ca)"/>
<path d="M 72.0,340 L 72.0,222.6 L 76.1,222.6 L 80.3,222.3 L 84.4,221.4 L 88.5,221.7 L 92.7,221.7 L 96.8,220.5 L 100.9,219.6 L 105.0,219.6 L 109.2,219.9 L 113.3,219.6 L 117.4,219.3 L 121.6,219.1 L 125.7,219.1 L 129.8,219.1 L 134.0,219.3 L 138.1,218.8 L 142.2,218.2 L 146.3,216.4 L 150.5,215.2 L 154.6,215.2 L 158.7,214.9 L 162.9,213.2 L 167.0,210.5 L 171.1,209.6 L 175.3,209.0 L 179.4,207.0 L 183.5,205.5 L 187.6,204.9 L 191.8,204.3 L 195.9,203.7 L 200.0,203.4 L 204.2,203.4 L 208.3,201.3 L 212.4,200.8 L 216.6,200.2 L 220.7,200.2 L 224.8,198.7 L 228.9,198.4 L 233.1,197.5 L 237.2,196.3 L 241.3,194.9 L 245.5,192.8 L 249.6,190.7 L 253.7,190.4 L 257.9,189.8 L 262.0,189.3 L 266.1,187.5 L 270.2,187.5 L 274.4,186.9 L 278.5,186.0 L 282.6,185.4 L 286.8,184.2 L 290.9,184.5 L 295.0,181.0 L 299.2,180.7 L 303.3,180.4 L 307.4,179.8 L 311.6,178.0 L 315.7,178.0 L 319.8,176.3 L 323.9,174.2 L 328.1,174.2 L 332.2,174.2 L 336.3,173.9 L 340.5,173.6 L 344.6,173.3 L 348.7,171.9 L 352.9,170.1 L 357.0,169.5 L 361.1,168.3 L 365.2,168.3 L 369.4,167.4 L 373.5,165.7 L 377.6,164.8 L 381.8,164.5 L 385.9,162.4 L 390.0,162.1 L 394.2,162.1 L 398.3,161.8 L 402.4,161.8 L 406.5,160.3 L 410.7,159.8 L 414.8,158.9 L 418.9,158.6 L 423.1,158.0 L 427.2,155.6 L 431.3,152.4 L 435.5,152.1 L 439.6,151.5 L 443.7,151.2 L 447.8,149.7 L 452.0,118.5 L 456.1,117.9 L 460.2,116.4 L 464.4,116.4 L 468.5,116.4 L 472.6,116.7 L 476.8,116.4 L 480.9,114.6 L 485.0,114.0 L 489.1,113.7 L 493.3,113.4 L 497.4,112.3 L 501.5,110.5 L 505.7,110.5 L 509.8,110.5 L 513.9,110.2 L 518.1,109.9 L 522.2,109.9 L 526.3,109.3 L 530.4,108.4 L 534.6,106.9 L 538.7,106.4 L 542.8,106.1 L 547.0,106.1 L 551.1,105.8 L 555.2,105.2 L 559.4,104.9 L 563.5,103.4 L 567.6,103.4 L 571.8,102.8 L 575.9,101.6 L 580.0,100.2 L 584.1,99.9 L 588.3,99.6 L 592.4,96.9 L 596.5,96.3 L 600.7,95.7 L 604.8,95.7 L 608.9,94.6 L 613.1,94.0 L 617.2,92.5 L 621.3,91.9 L 625.4,91.0 L 629.6,90.7 L 633.7,89.5 L 637.8,88.7 L 642.0,88.4 L 646.1,87.8 L 650.2,86.6 L 654.4,86.0 L 658.5,85.1 L 662.6,84.5 L 666.7,84.2 L 670.9,83.6 L 675.0,82.8 L 679.1,82.2 L 683.3,81.6 L 687.4,80.7 L 691.5,80.7 L 695.7,80.1 L 699.8,78.6 L 703.9,77.2 L 708.0,76.3 L 712.2,76.6 L 716.3,76.0 L 720.4,75.7 L 724.6,75.4 L 728.7,74.8 L 732.8,73.3 L 737.0,73.3 L 741.1,73.0 L 745.2,72.1 L 749.3,71.3 L 753.5,70.1 L 757.6,69.5 L 761.7,69.5 L 765.9,68.6 L 770.0,68.0 L 770.0,340 Z" fill="url(#g6)" clip-path="url(#ca)"/>
<path d="M 72.0,222.6 L 76.1,222.6 L 80.3,222.3 L 84.4,221.4 L 88.5,221.7 L 92.7,221.7 L 96.8,220.5 L 100.9,219.6 L 105.0,219.6 L 109.2,219.9 L 113.3,219.6 L 117.4,219.3 L 121.6,219.1 L 125.7,219.1 L 129.8,219.1 L 134.0,219.3 L 138.1,218.8 L 142.2,218.2 L 146.3,216.4 L 150.5,215.2 L 154.6,215.2 L 158.7,214.9 L 162.9,213.2 L 167.0,210.5 L 171.1,209.6 L 175.3,209.0 L 179.4,207.0 L 183.5,205.5 L 187.6,204.9 L 191.8,204.3 L 195.9,203.7 L 200.0,203.4 L 204.2,203.4 L 208.3,201.3 L 212.4,200.8 L 216.6,200.2 L 220.7,200.2 L 224.8,198.7 L 228.9,198.4 L 233.1,197.5 L 237.2,196.3 L 241.3,194.9 L 245.5,192.8 L 249.6,190.7 L 253.7,190.4 L 257.9,189.8 L 262.0,189.3 L 266.1,187.5 L 270.2,187.5 L 274.4,186.9 L 278.5,186.0 L 282.6,185.4 L 286.8,184.2 L 290.9,184.5 L 295.0,181.0 L 299.2,180.7 L 303.3,180.4 L 307.4,179.8 L 311.6,178.0 L 315.7,178.0 L 319.8,176.3 L 323.9,174.2 L 328.1,174.2 L 332.2,174.2 L 336.3,173.9 L 340.5,173.6 L 344.6,173.3 L 348.7,171.9 L 352.9,170.1 L 357.0,169.5 L 361.1,168.3 L 365.2,168.3 L 369.4,167.4 L 373.5,165.7 L 377.6,164.8 L 381.8,164.5 L 385.9,162.4 L 390.0,162.1 L 394.2,162.1 L 398.3,161.8 L 402.4,161.8 L 406.5,160.3 L 410.7,159.8 L 414.8,158.9 L 418.9,158.6 L 423.1,158.0 L 427.2,155.6 L 431.3,152.4 L 435.5,152.1 L 439.6,151.5 L 443.7,151.2 L 447.8,149.7 L 452.0,118.5 L 456.1,117.9 L 460.2,116.4 L 464.4,116.4 L 468.5,116.4 L 472.6,116.7 L 476.8,116.4 L 480.9,114.6 L 485.0,114.0 L 489.1,113.7 L 493.3,113.4 L 497.4,112.3 L 501.5,110.5 L 505.7,110.5 L 509.8,110.5 L 513.9,110.2 L 518.1,109.9 L 522.2,109.9 L 526.3,109.3 L 530.4,108.4 L 534.6,106.9 L 538.7,106.4 L 542.8,106.1 L 547.0,106.1 L 551.1,105.8 L 555.2,105.2 L 559.4,104.9 L 563.5,103.4 L 567.6,103.4 L 571.8,102.8 L 575.9,101.6 L 580.0,100.2 L 584.1,99.9 L 588.3,99.6 L 592.4,96.9 L 596.5,96.3 L 600.7,95.7 L 604.8,95.7 L 608.9,94.6 L 613.1,94.0 L 617.2,92.5 L 621.3,91.9 L 625.4,91.0 L 629.6,90.7 L 633.7,89.5 L 637.8,88.7 L 642.0,88.4 L 646.1,87.8 L 650.2,86.6 L 654.4,86.0 L 658.5,85.1 L 662.6,84.5 L 666.7,84.2 L 670.9,83.6 L 675.0,82.8 L 679.1,82.2 L 683.3,81.6 L 687.4,80.7 L 691.5,80.7 L 695.7,80.1 L 699.8,78.6 L 703.9,77.2 L 708.0,76.3 L 712.2,76.6 L 716.3,76.0 L 720.4,75.7 L 724.6,75.4 L 728.7,74.8 L 732.8,73.3 L 737.0,73.3 L 741.1,73.0 L 745.2,72.1 L 749.3,71.3 L 753.5,70.1 L 757.6,69.5 L 761.7,69.5 L 765.9,68.6 L 770.0,68.0" fill="none" stroke="#4F8EF7" stroke-width="2.5" stroke-linejoin="round" clip-path="url(#ca)"/>
<path d="M 72.0,340 L 72.0,338.2 L 76.1,337.9 L 80.3,337.9 L 84.4,337.6 L 88.5,337.6 L 92.7,337.6 L 96.8,337.6 L 100.9,337.6 L 105.0,337.1 L 109.2,337.1 L 113.3,337.1 L 117.4,337.1 L 121.6,337.1 L 125.7,336.8 L 129.8,336.8 L 134.0,336.8 L 138.1,336.8 L 142.2,336.8 L 146.3,336.5 L 150.5,335.9 L 154.6,335.6 L 158.7,335.6 L 162.9,335.6 L 167.0,335.3 L 171.1,335.3 L 175.3,335.3 L 179.4,335.0 L 183.5,335.0 L 187.6,335.0 L 191.8,334.7 L 195.9,334.7 L 200.0,334.7 L 204.2,334.7 L 208.3,334.4 L 212.4,334.4 L 216.6,334.4 L 220.7,334.4 L 224.8,334.4 L 228.9,334.4 L 233.1,334.4 L 237.2,334.4 L 241.3,334.4 L 245.5,334.4 L 249.6,334.4 L 253.7,334.4 L 257.9,334.4 L 262.0,334.1 L 266.1,334.1 L 270.2,334.1 L 274.4,334.1 L 278.5,334.1 L 282.6,334.1 L 286.8,334.1 L 290.9,334.1 L 295.0,334.1 L 299.2,334.1 L 303.3,334.1 L 307.4,334.1 L 311.6,333.8 L 315.7,333.8 L 319.8,333.8 L 323.9,333.8 L 328.1,333.8 L 332.2,333.8 L 336.3,333.8 L 340.5,333.8 L 344.6,333.8 L 348.7,333.8 L 352.9,333.8 L 357.0,333.8 L 361.1,333.8 L 365.2,333.8 L 369.4,333.8 L 373.5,333.8 L 377.6,333.8 L 381.8,333.8 L 385.9,333.8 L 390.0,333.8 L 394.2,333.8 L 398.3,333.8 L 402.4,333.8 L 406.5,333.8 L 410.7,333.8 L 414.8,333.8 L 418.9,333.8 L 423.1,333.8 L 427.2,333.8 L 431.3,333.8 L 435.5,333.8 L 439.6,333.8 L 443.7,333.8 L 447.8,333.8 L 452.0,333.8 L 456.1,333.8 L 460.2,333.5 L 464.4,333.5 L 468.5,333.5 L 472.6,333.5 L 476.8,333.5 L 480.9,333.2 L 485.0,333.2 L 489.1,333.2 L 493.3,333.2 L 497.4,332.9 L 501.5,332.9 L 505.7,332.6 L 509.8,332.6 L 513.9,332.6 L 518.1,332.6 L 522.2,332.6 L 526.3,332.6 L 530.4,332.6 L 534.6,332.6 L 538.7,332.6 L 542.8,332.6 L 547.0,332.6 L 551.1,332.6 L 555.2,332.6 L 559.4,332.6 L 563.5,332.6 L 567.6,332.6 L 571.8,332.6 L 575.9,332.6 L 580.0,332.6 L 584.1,332.6 L 588.3,332.6 L 592.4,332.6 L 596.5,332.6 L 600.7,332.6 L 604.8,332.6 L 608.9,332.6 L 613.1,332.6 L 617.2,332.6 L 621.3,332.6 L 625.4,332.6 L 629.6,332.6 L 633.7,332.6 L 637.8,332.6 L 642.0,332.6 L 646.1,332.6 L 650.2,332.6 L 654.4,332.6 L 658.5,332.6 L 662.6,332.6 L 666.7,332.6 L 670.9,332.6 L 675.0,332.6 L 679.1,332.6 L 683.3,332.6 L 687.4,332.6 L 691.5,332.6 L 695.7,332.6 L 699.8,332.6 L 703.9,332.3 L 708.0,332.3 L 712.2,332.3 L 716.3,332.3 L 720.4,332.3 L 724.6,332.3 L 728.7,332.3 L 732.8,332.3 L 737.0,332.3 L 741.1,332.3 L 745.2,332.3 L 749.3,332.0 L 753.5,332.0 L 757.6,332.0 L 761.7,332.0 L 765.9,332.0 L 770.0,332.0 L 770.0,340 Z" fill="url(#g7)" clip-path="url(#ca)"/>
<path d="M 72.0,338.2 L 76.1,337.9 L 80.3,337.9 L 84.4,337.6 L 88.5,337.6 L 92.7,337.6 L 96.8,337.6 L 100.9,337.6 L 105.0,337.1 L 109.2,337.1 L 113.3,337.1 L 117.4,337.1 L 121.6,337.1 L 125.7,336.8 L 129.8,336.8 L 134.0,336.8 L 138.1,336.8 L 142.2,336.8 L 146.3,336.5 L 150.5,335.9 L 154.6,335.6 L 158.7,335.6 L 162.9,335.6 L 167.0,335.3 L 171.1,335.3 L 175.3,335.3 L 179.4,335.0 L 183.5,335.0 L 187.6,335.0 L 191.8,334.7 L 195.9,334.7 L 200.0,334.7 L 204.2,334.7 L 208.3,334.4 L 212.4,334.4 L 216.6,334.4 L 220.7,334.4 L 224.8,334.4 L 228.9,334.4 L 233.1,334.4 L 237.2,334.4 L 241.3,334.4 L 245.5,334.4 L 249.6,334.4 L 253.7,334.4 L 257.9,334.4 L 262.0,334.1 L 266.1,334.1 L 270.2,334.1 L 274.4,334.1 L 278.5,334.1 L 282.6,334.1 L 286.8,334.1 L 290.9,334.1 L 295.0,334.1 L 299.2,334.1 L 303.3,334.1 L 307.4,334.1 L 311.6,333.8 L 315.7,333.8 L 319.8,333.8 L 323.9,333.8 L 328.1,333.8 L 332.2,333.8 L 336.3,333.8 L 340.5,333.8 L 344.6,333.8 L 348.7,333.8 L 352.9,333.8 L 357.0,333.8 L 361.1,333.8 L 365.2,333.8 L 369.4,333.8 L 373.5,333.8 L 377.6,333.8 L 381.8,333.8 L 385.9,333.8 L 390.0,333.8 L 394.2,333.8 L 398.3,333.8 L 402.4,333.8 L 406.5,333.8 L 410.7,333.8 L 414.8,333.8 L 418.9,333.8 L 423.1,333.8 L 427.2,333.8 L 431.3,333.8 L 435.5,333.8 L 439.6,333.8 L 443.7,333.8 L 447.8,333.8 L 452.0,333.8 L 456.1,333.8 L 460.2,333.5 L 464.4,333.5 L 468.5,333.5 L 472.6,333.5 L 476.8,333.5 L 480.9,333.2 L 485.0,333.2 L 489.1,333.2 L 493.3,333.2 L 497.4,332.9 L 501.5,332.9 L 505.7,332.6 L 509.8,332.6 L 513.9,332.6 L 518.1,332.6 L 522.2,332.6 L 526.3,332.6 L 530.4,332.6 L 534.6,332.6 L 538.7,332.6 L 542.8,332.6 L 547.0,332.6 L 551.1,332.6 L 555.2,332.6 L 559.4,332.6 L 563.5,332.6 L 567.6,332.6 L 571.8,332.6 L 575.9,332.6 L 580.0,332.6 L 584.1,332.6 L 588.3,332.6 L 592.4,332.6 L 596.5,332.6 L 600.7,332.6 L 604.8,332.6 L 608.9,332.6 L 613.1,332.6 L 617.2,332.6 L 621.3,332.6 L 625.4,332.6 L 629.6,332.6 L 633.7,332.6 L 637.8,332.6 L 642.0,332.6 L 646.1,332.6 L 650.2,332.6 L 654.4,332.6 L 658.5,332.6 L 662.6,332.6 L 666.7,332.6 L 670.9,332.6 L 675.0,332.6 L 679.1,332.6 L 683.3,332.6 L 687.4,332.6 L 691.5,332.6 L 695.7,332.6 L 699.8,332.6 L 703.9,332.3 L 708.0,332.3 L 712.2,332.3 L 716.3,332.3 L 720.4,332.3 L 724.6,332.3 L 728.7,332.3 L 732.8,332.3 L 737.0,332.3 L 741.1,332.3 L 745.2,332.3 L 749.3,332.0 L 753.5,332.0 L 757.6,332.0 L 761.7,332.0 L 765.9,332.0 L 770.0,332.0" fill="none" stroke="#FF6363" stroke-width="2.5" stroke-linejoin="round" clip-path="url(#ca)"/>
<text x="94.7" y="55.0" text-anchor="middle" font-size="9" fill="#34C759" opacity="0.85" clip-path="url(#ca)">+15.2% (+50)</text>
<text x="94.7" y="66.0" text-anchor="middle" font-size="9" fill="#4F8EF7" opacity="0.85" clip-path="url(#ca)">+2.8% (+11)</text>
<text x="94.7" y="77.0" text-anchor="middle" font-size="9" fill="#FF6363" opacity="0.85" clip-path="url(#ca)">+66.7% (+4)</text>
<text x="173.2" y="55.0" text-anchor="middle" font-size="9" fill="#34C759" opacity="0.85" clip-path="url(#ca)">+20.1% (+77)</text>
<text x="173.2" y="66.0" text-anchor="middle" font-size="9" fill="#4F8EF7" opacity="0.85" clip-path="url(#ca)">+16.8% (+69)</text>
<text x="173.2" y="77.0" text-anchor="middle" font-size="9" fill="#FF6363" opacity="0.85" clip-path="url(#ca)">+90.0% (+9)</text>
<text x="282.6" y="55.0" text-anchor="middle" font-size="9" fill="#34C759" opacity="0.85" clip-path="url(#ca)">+16.1% (+74)</text>
<text x="282.6" y="66.0" text-anchor="middle" font-size="9" fill="#4F8EF7" opacity="0.85" clip-path="url(#ca)">+17.3% (+83)</text>
<text x="282.6" y="77.0" text-anchor="middle" font-size="9" fill="#FF6363" opacity="0.85" clip-path="url(#ca)">+10.5% (+2)</text>
<text x="394.2" y="55.0" text-anchor="middle" font-size="9" fill="#34C759" opacity="0.85" clip-path="url(#ca)">+10.5% (+56)</text>
<text x="394.2" y="66.0" text-anchor="middle" font-size="9" fill="#4F8EF7" opacity="0.85" clip-path="url(#ca)">+14.4% (+81)</text>
<text x="394.2" y="77.0" text-anchor="middle" font-size="9" fill="#FF6363" opacity="0.85" clip-path="url(#ca)">+0.0% (+0)</text>
<text x="505.7" y="55.0" text-anchor="middle" font-size="9" fill="#34C759" opacity="0.85" clip-path="url(#ca)">+6.2% (+37)</text>
<text x="505.7" y="66.0" text-anchor="middle" font-size="9" fill="#4F8EF7" opacity="0.85" clip-path="url(#ca)">+6.1% (+46)</text>
<text x="505.7" y="77.0" text-anchor="middle" font-size="9" fill="#FF6363" opacity="0.85" clip-path="url(#ca)">+19.0% (+4)</text>
<text x="615.1" y="55.0" text-anchor="middle" font-size="9" fill="#34C759" opacity="0.85" clip-path="url(#ca)">+8.1% (+51)</text>
<text x="615.1" y="66.0" text-anchor="middle" font-size="9" fill="#4F8EF7" opacity="0.85" clip-path="url(#ca)">+8.1% (+65)</text>
<text x="615.1" y="77.0" text-anchor="middle" font-size="9" fill="#FF6363" opacity="0.85" clip-path="url(#ca)">+0.0% (+0)</text>
<text x="718.4" y="55.0" text-anchor="middle" font-size="9" fill="#34C759" opacity="0.85" clip-path="url(#ca)">+7.6% (+52)</text>
<text x="718.4" y="66.0" text-anchor="middle" font-size="9" fill="#4F8EF7" opacity="0.85" clip-path="url(#ca)">+5.9% (+51)</text>
<text x="718.4" y="77.0" text-anchor="middle" font-size="9" fill="#FF6363" opacity="0.85" clip-path="url(#ca)">+8.0% (+2)</text>
<text x="770.0" y="55.0" text-anchor="middle" font-size="9" fill="#34C759" opacity="0.85" clip-path="url(#ca)">+0.0% (+0)</text>
<text x="770.0" y="66.0" text-anchor="middle" font-size="9" fill="#4F8EF7" opacity="0.85" clip-path="url(#ca)">+0.0% (+0)</text>
<text x="770.0" y="77.0" text-anchor="middle" font-size="9" fill="#FF6363" opacity="0.85" clip-path="url(#ca)">+0.0% (+0)</text>
<rect x="211" y="369" width="12" height="12" fill="#34C759" rx="2"/>
<text x="227" y="379" font-size="12" fill="#111827">macOS + Windows</text>
<rect x="351" y="369" width="12" height="12" fill="#4F8EF7" rx="2"/>
<text x="367" y="379" font-size="12" fill="#111827">macOS only</text>
<rect x="491" y="369" width="12" height="12" fill="#FF6363" rx="2"/>
<text x="507" y="379" font-size="12" fill="#111827">Windows only</text>
<text x="72" y="394" font-size="8" fill="#e5e7eb">data since Dec 11, 2025</text>
</svg>