<svg xmlns="http://www.w3.org/2000/svg" width="800" height="400" viewBox="0 0 800 400">
<defs>
  <style>text { font-family: -apple-system, BlinkMacSystemFont, 'Segoe UI', Roboto, sans-serif; }</style>
  <linearGradient id="g1" x1="0" y1="0" x2="0" y2="1">
  <stop offset="0%" stop-color="#FF6363" stop-opacity="0.25"/>
  <stop offset="100%" stop-color="#FF6363" stop-opacity="0"/>
</linearGradient>
  <clipPath id="ca"><rect x="72" y="45" width="698" height="295"/></clipPath>
</defs>
<rect width="800" height="400" fill="#ffffff" rx="12"/>
<text x="400" y="26" text-anchor="middle" font-size="15" font-weight="600" fill="#111827">Packages Growth Over Time</text>
<line x1="72" y1="340.0" x2="770" y2="340.0" stroke="#f3f4f6" stroke-width="1"/>
<text x="66" y="344.0" text-anchor="end" font-size="11" fill="#6b7280">2.4k</text>
<line x1="72" y1="266.3" x2="770" y2="266.3" stroke="#f3f4f6" stroke-width="1"/>
<text x="66" y="270.3" text-anchor="end" font-size="11" fill="#6b7280">2.6k</text>
<line x1="72" y1="192.5" x2="770" y2="192.5" stroke="#f3f4f6" stroke-width="1"/>
<text x="66" y="196.5" text-anchor="end" font-size="11" fill="#6b7280">2.8k</text>
<line x1="72" y1="118.8" x2="770" y2="118.8" stroke="#f3f4f6" stroke-width="1"/>
<text x="66" y="122.8" text-anchor="end" font-size="11" fill="#6b7280">3.0k</text>
<line x1="72" y1="45.0" x2="770" y2="45.0" stroke="#f3f4f6" stroke-width="1"/>
<text x="66" y="49.0" text-anchor="end" font-size="11" fill="#6b7280">3.2k</text>
<line x1="119.1" y1="45" x2="119.1" y2="340" stroke="#e5e7eb" stroke-width="1" stroke-dasharray="3,3" clip-path="url(#ca)"/>
<line x1="221.0" y1="45" x2="221.0" y2="340" stroke="#e5e7eb" stroke-width="1" stroke-dasharray="3,3" clip-path="url(#ca)"/>
<line x1="326.9" y1="45" x2="326.9" y2="340" stroke="#e5e7eb" stroke-width="1" stroke-dasharray="3,3" clip-path="url(#ca)"/>
<line x1="432.8" y1="45" x2="432.8" y2="340" stroke="#e5e7eb" stroke-width="1" stroke-dasharray="3,3" clip-path="url(#ca)"/>
<line x1="538.6" y1="45" x2="538.6" y2="340" stroke="#e5e7eb" stroke-width="1" stroke-dasharray="3,3" clip-path="url(#ca)"/>
<line x1="640.6" y1="45" x2="640.6" y2="340" stroke="#e5e7eb" stroke-width="1" stroke-dasharray="3,3" clip-path="url(#ca)"/>
<line x1="734.7" y1="45" x2="734.7" y2="340" stroke="#e5e7eb" stroke-width="1" stroke-dasharray="3,3" clip-path="url(#ca)"/>
<text x="72.0" y="358.0" text-anchor="middle" font-size="11" fill="#6b7280">Dec 11</text>
<text x="213.2" y="358.0" text-anchor="middle" font-size="11" fill="#6b7280">Jan 30</text>
<text x="350.4" y="358.0" text-anchor="middle" font-size="11" fill="#6b7280">Mar 8</text>
<text x="491.6" y="358.0" text-anchor="middle" font-size="11" fill="#6b7280">Apr 17</text>
<text x="628.8" y="358.0" text-anchor="middle" font-size="11" fill="#6b7280">May 29</text>
<text x="770.0" y="358.0" text-anchor="middle" font-size="11" fill="#6b7280">Jul 11</text>
<line x1="72" y1="45" x2="72" y2="340" stroke="#e5e7eb" stroke-width="1"/>
<line x1="72" y1="340" x2="770" y2="340" stroke="#e5e7eb" stroke-width="1"/>
<text x="-192.5" y="18" text-anchor="middle" font-size="12" fill="#6b7280" transform="rotate(-90)">Extensions</text>
<path d="M 72.0,340 L 72.0,311.6 L 75.9,311.2 L 79.8,311.2 L 83.8,310.1 L 87.7,310.1 L 91.6,309.4 L 95.5,308.7 L 99.4,308.3 L 103.4,306.4 L 107.3,305.0 L 111.2,305.0 L 115.1,305.0 L 119.1,305.0 L 123.0,304.2 L 126.9,304.2 L 130.8,304.2 L 134.7,303.5 L 138.7,302.0 L 142.6,299.4 L 146.5,297.6 L 150.4,296.9 L 154.3,296.5 L 158.3,295.0 L 162.2,290.6 L 166.1,289.1 L 170.0,289.1 L 174.0,285.4 L 177.9,284.3 L 181.8,282.8 L 185.7,281.7 L 189.6,279.5 L 193.6,277.7 L 197.5,277.3 L 201.4,274.4 L 205.3,271.8 L 209.2,271.8 L 213.2,269.9 L 217.1,268.5 L 221.0,268.1 L 224.9,267.7 L 228.9,267.4 L 232.8,266.3 L 236.7,259.6 L 240.6,256.7 L 244.5,255.2 L 248.5,254.4 L 252.4,253.3 L 256.3,250.8 L 260.2,250.0 L 264.1,249.3 L 268.1,247.1 L 272.0,246.3 L 275.9,245.6 L 279.8,245.6 L 283.8,239.0 L 287.7,238.2 L 291.6,237.5 L 295.5,236.0 L 299.4,234.2 L 303.4,234.2 L 307.3,231.2 L 311.2,226.4 L 315.1,225.7 L 319.0,226.1 L 323.0,224.9 L 326.9,224.6 L 330.8,224.6 L 334.7,222.4 L 338.7,220.5 L 342.6,219.1 L 346.5,217.2 L 350.4,216.8 L 354.3,216.8 L 358.3,214.3 L 362.2,213.5 L 366.1,213.2 L 370.0,208.7 L 373.9,208.4 L 377.9,208.4 L 381.8,208.4 L 385.7,208.0 L 389.6,206.1 L 393.6,204.7 L 397.5,202.8 L 401.4,202.5 L 405.3,201.3 L 409.2,198.0 L 413.2,195.1 L 417.1,194.7 L 421.0,194.3 L 424.9,193.2 L 428.8,189.6 L 432.8,188.8 L 436.7,187.7 L 440.6,185.5 L 444.5,185.1 L 448.4,184.8 L 452.4,184.8 L 456.3,184.0 L 460.2,181.8 L 464.1,181.1 L 468.1,180.3 L 472.0,180.0 L 475.9,179.2 L 479.8,175.5 L 483.7,175.2 L 487.7,174.4 L 491.6,174.1 L 495.5,172.2 L 499.4,171.9 L 503.3,171.5 L 507.3,170.4 L 511.2,168.9 L 515.1,168.9 L 519.0,168.9 L 523.0,168.9 L 526.9,168.2 L 530.8,166.3 L 534.7,166.0 L 538.6,164.1 L 542.6,163.7 L 546.5,163.4 L 550.4,161.2 L 554.3,158.9 L 558.2,158.6 L 562.2,158.2 L 566.1,153.4 L 570.0,151.9 L 573.9,150.8 L 577.9,150.5 L 581.8,147.9 L 585.7,147.9 L 589.6,146.0 L 593.5,144.9 L 597.5,141.2 L 601.4,139.8 L 605.3,139.4 L 609.2,139.0 L 613.1,139.0 L 617.1,138.7 L 621.0,136.5 L 624.9,134.6 L 628.8,134.6 L 632.8,134.2 L 636.7,134.2 L 640.6,132.8 L 644.5,132.0 L 648.4,130.9 L 652.4,129.8 L 656.3,128.3 L 660.2,128.3 L 664.1,127.2 L 668.0,125.8 L 672.0,122.8 L 675.9,120.2 L 679.8,119.5 L 683.7,118.8 L 687.7,118.0 L 691.6,117.6 L 695.5,116.5 L 699.4,114.3 L 703.3,114.0 L 707.3,112.5 L 711.2,111.0 L 715.1,108.4 L 719.0,107.3 L 722.9,106.6 L 726.9,106.6 L 730.8,105.1 L 734.7,104.4 L 738.6,103.6 L 742.6,103.3 L 746.5,102.2 L 750.4,102.2 L 754.3,100.7 L 758.2,100.3 L 762.2,99.6 L 766.1,97.0 L 770.0,95.5 L 770.0,340 Z" fill="url(#g1)" clip-path="url(#ca)"/>
<path d="M 72.0,311.6 L 75.9,311.2 L 79.8,311.2 L 83.8,310.1 L 87.7,310.1 L 91.6,309.4 L 95.5,308.7 L 99.4,308.3 L 103.4,306.4 L 107.3,305.0 L 111.2,305.0 L 115.1,305.0 L 119.1,305.0 L 123.0,304.2 L 126.9,304.2 L 130.8,304.2 L 134.7,303.5 L 138.7,302.0 L 142.6,299.4 L 146.5,297.6 L 150.4,296.9 L 154.3,296.5 L 158.3,295.0 L 162.2,290.6 L 166.1,289.1 L 170.0,289.1 L 174.0,285.4 L 177.9,284.3 L 181.8,282.8 L 185.7,281.7 L 189.6,279.5 L 193.6,277.7 L 197.5,277.3 L 201.4,274.4 L 205.3,271.8 L 209.2,271.8 L 213.2,269.9 L 217.1,268.5 L 221.0,268.1 L 224.9,267.7 L 228.9,267.4 L 232.8,266.3 L 236.7,259.6 L 240.6,256.7 L 244.5,255.2 L 248.5,254.4 L 252.4,253.3 L 256.3,250.8 L 260.2,250.0 L 264.1,249.3 L 268.1,247.1 L 272.0,246.3 L 275.9,245.6 L 279.8,245.6 L 283.8,239.0 L 287.7,238.2 L 291.6,237.5 L 295.5,236.0 L 299.4,234.2 L 303.4,234.2 L 307.3,231.2 L 311.2,226.4 L 315.1,225.7 L 319.0,226.1 L 323.0,224.9 L 326.9,224.6 L 330.8,224.6 L 334.7,222.4 L 338.7,220.5 L 342.6,219.1 L 346.5,217.2 L 350.4,216.8 L 354.3,216.8 L 358.3,214.3 L 362.2,213.5 L 366.1,213.2 L 370.0,208.7 L 373.9,208.4 L 377.9,208.4 L 381.8,208.4 L 385.7,208.0 L 389.6,206.1 L 393.6,204.7 L 397.5,202.8 L 401.4,202.5 L 405.3,201.3 L 409.2,198.0 L 413.2,195.1 L 417.1,194.7 L 421.0,194.3 L 424.9,193.2 L 428.8,189.6 L 432.8,188.8 L 436.7,187.7 L 440.6,185.5 L 444.5,185.1 L 448.4,184.8 L 452.4,184.8 L 456.3,184.0 L 460.2,181.8 L 464.1,181.1 L 468.1,180.3 L 472.0,180.0 L 475.9,179.2 L 479.8,175.5 L 483.7,175.2 L 487.7,174.4 L 491.6,174.1 L 495.5,172.2 L 499.4,171.9 L 503.3,171.5 L 507.3,170.4 L 511.2,168.9 L 515.1,168.9 L 519.0,168.9 L 523.0,168.9 L 526.9,168.2 L 530.8,166.3 L 534.7,166.0 L 538.6,164.1 L 542.6,163.7 L 546.5,163.4 L 550.4,161.2 L 554.3,158.9 L 558.2,158.6 L 562.2,158.2 L 566.1,153.4 L 570.0,151.9 L 573.9,150.8 L 577.9,150.5 L 581.8,147.9 L 585.7,147.9 L 589.6,146.0 L 593.5,144.9 L 597.5,141.2 L 601.4,139.8 L 605.3,139.4 L 609.2,139.0 L 613.1,139.0 L 617.1,138.7 L 621.0,136.5 L 624.9,134.6 L 628.8,134.6 L 632.8,134.2 L 636.7,134.2 L 640.6,132.8 L 644.5,132.0 L 648.4,130.9 L 652.4,129.8 L 656.3,128.3 L 660.2,128.3 L 664.1,127.2 L 668.0,125.8 L 672.0,122.8 L 675.9,120.2 L 679.8,119.5 L 683.7,118.8 L 687.7,118.0 L 691.6,117.6 L 695.5,116.5 L 699.4,114.3 L 703.3,114.0 L 707.3,112.5 L 711.2,111.0 L 715.1,108.4 L 719.0,107.3 L 722.9,106.6 L 726.9,106.6 L 730.8,105.1 L 734.7,104.4 L 738.6,103.6 L 742.6,103.3 L 746.5,102.2 L 750.4,102.2 L 754.3,100.7 L 758.2,100.3 L 762.2,99.6 L 766.1,97.0 L 770.0,95.5" fill="none" stroke="#FF6363" stroke-width="2.5" stroke-linejoin="round" clip-path="url(#ca)"/>
<text x="93.6" y="55.0" text-anchor="middle" font-size="9" fill="#FF6363" opacity="0.85" clip-path="url(#ca)">+0.7% (+18)</text>
<text x="168.1" y="55.0" text-anchor="middle" font-size="9" fill="#FF6363" opacity="0.85" clip-path="url(#ca)">+4.0% (+99)</text>
<text x="272.0" y="55.0" text-anchor="middle" font-size="9" fill="#FF6363" opacity="0.85" clip-path="url(#ca)">+4.5% (+117)</text>
<text x="377.9" y="55.0" text-anchor="middle" font-size="9" fill="#FF6363" opacity="0.85" clip-path="url(#ca)">+3.5% (+95)</text>
<text x="483.7" y="55.0" text-anchor="middle" font-size="9" fill="#FF6363" opacity="0.85" clip-path="url(#ca)">+2.2% (+62)</text>
<text x="587.7" y="55.0" text-anchor="middle" font-size="9" fill="#FF6363" opacity="0.85" clip-path="url(#ca)">+2.8% (+81)</text>
<text x="685.7" y="55.0" text-anchor="middle" font-size="9" fill="#FF6363" opacity="0.85" clip-path="url(#ca)">+2.5% (+75)</text>
<text x="752.4" y="55.0" text-anchor="middle" font-size="9" fill="#FF6363" opacity="0.85" clip-path="url(#ca)">+0.8% (+24)</text>
<rect x="351" y="369" width="12" height="12" fill="#FF6363" rx="2"/>
<text x="367" y="379" font-size="12" fill="#111827">Extensions</text>
<text x="72" y="394" font-size="8" fill="#e5e7eb">data since Dec 11, 2025</text>
</svg>