<svg xmlns="http://www.w3.org/2000/svg" width="800" height="400" viewBox="0 0 800 400">
<defs>
  <style>text { font-family: -apple-system, BlinkMacSystemFont, 'Segoe UI', Roboto, sans-serif; }</style>
  <linearGradient id="g5" x1="0" y1="0" x2="0" y2="1">
  <stop offset="0%" stop-color="#34C759" stop-opacity="0.25"/>
  <stop offset="100%" stop-color="#34C759" stop-opacity="0"/>
</linearGradient>
<linearGradient id="g6" x1="0" y1="0" x2="0" y2="1">
  <stop offset="0%" stop-color="#4F8EF7" stop-opacity="0.25"/>
  <stop offset="100%" stop-color="#4F8EF7" stop-opacity="0"/>
</linearGradient>
<linearGradient id="g7" x1="0" y1="0" x2="0" y2="1">
  <stop offset="0%" stop-color="#FF6363" stop-opacity="0.25"/>
  <stop offset="100%" stop-color="#FF6363" stop-opacity="0"/>
</linearGradient>
  <clipPath id="ca"><rect x="72" y="45" width="698" height="295"/></clipPath>
</defs>
<rect width="800" height="400" fill="#ffffff" rx="12"/>
<text x="400" y="26" text-anchor="middle" font-size="15" font-weight="600" fill="#111827">Platform Support Over Time</text>
<line x1="72" y1="340.0" x2="770" y2="340.0" stroke="#f3f4f6" stroke-width="1"/>
<text x="66" y="344.0" text-anchor="end" font-size="11" fill="#6b7280">0</text>
<line x1="72" y1="281.0" x2="770" y2="281.0" stroke="#f3f4f6" stroke-width="1"/>
<text x="66" y="285.0" text-anchor="end" font-size="11" fill="#6b7280">200</text>
<line x1="72" y1="222.0" x2="770" y2="222.0" stroke="#f3f4f6" stroke-width="1"/>
<text x="66" y="226.0" text-anchor="end" font-size="11" fill="#6b7280">400</text>
<line x1="72" y1="163.0" x2="770" y2="163.0" stroke="#f3f4f6" stroke-width="1"/>
<text x="66" y="167.0" text-anchor="end" font-size="11" fill="#6b7280">600</text>
<line x1="72" y1="104.0" x2="770" y2="104.0" stroke="#f3f4f6" stroke-width="1"/>
<text x="66" y="108.0" text-anchor="end" font-size="11" fill="#6b7280">800</text>
<line x1="72" y1="45.0" x2="770" y2="45.0" stroke="#f3f4f6" stroke-width="1"/>
<text x="66" y="49.0" text-anchor="end" font-size="11" fill="#6b7280">1.0k</text>
<line x1="119.1" y1="45" x2="119.1" y2="340" stroke="#e5e7eb" stroke-width="1" stroke-dasharray="3,3" clip-path="url(#ca)"/>
<line x1="221.0" y1="45" x2="221.0" y2="340" stroke="#e5e7eb" stroke-width="1" stroke-dasharray="3,3" clip-path="url(#ca)"/>
<line x1="326.9" y1="45" x2="326.9" y2="340" stroke="#e5e7eb" stroke-width="1" stroke-dasharray="3,3" clip-path="url(#ca)"/>
<line x1="432.8" y1="45" x2="432.8" y2="340" stroke="#e5e7eb" stroke-width="1" stroke-dasharray="3,3" clip-path="url(#ca)"/>
<line x1="538.6" y1="45" x2="538.6" y2="340" stroke="#e5e7eb" stroke-width="1" stroke-dasharray="3,3" clip-path="url(#ca)"/>
<line x1="640.6" y1="45" x2="640.6" y2="340" stroke="#e5e7eb" stroke-width="1" stroke-dasharray="3,3" clip-path="url(#ca)"/>
<line x1="734.7" y1="45" x2="734.7" y2="340" stroke="#e5e7eb" stroke-width="1" stroke-dasharray="3,3" clip-path="url(#ca)"/>
<text x="72.0" y="358.0" text-anchor="middle" font-size="11" fill="#6b7280">Dec 11</text>
<text x="213.2" y="358.0" text-anchor="middle" font-size="11" fill="#6b7280">Jan 30</text>
<text x="350.4" y="358.0" text-anchor="middle" font-size="11" fill="#6b7280">Mar 8</text>
<text x="491.6" y="358.0" text-anchor="middle" font-size="11" fill="#6b7280">Apr 17</text>
<text x="628.8" y="358.0" text-anchor="middle" font-size="11" fill="#6b7280">May 29</text>
<text x="770.0" y="358.0" text-anchor="middle" font-size="11" fill="#6b7280">Jul 11</text>
<line x1="72" y1="45" x2="72" y2="340" stroke="#e5e7eb" stroke-width="1"/>
<line x1="72" y1="340" x2="770" y2="340" stroke="#e5e7eb" stroke-width="1"/>
<text x="-192.5" y="18" text-anchor="middle" font-size="12" fill="#6b7280" transform="rotate(-90)">Extensions</text>
<path d="M 72.0,340 L 72.0,242.6 L 75.9,240.0 L 79.8,239.7 L 83.8,238.5 L 87.7,237.9 L 91.6,235.0 L 95.5,233.2 L 99.4,232.3 L 103.4,230.8 L 107.3,229.1 L 111.2,228.2 L 115.1,227.9 L 119.1,227.0 L 123.0,226.4 L 126.9,226.1 L 130.8,225.2 L 134.7,224.4 L 138.7,223.5 L 142.6,222.6 L 146.5,221.4 L 150.4,220.5 L 154.3,219.6 L 158.3,218.8 L 162.2,217.0 L 166.1,216.4 L 170.0,216.4 L 174.0,214.3 L 177.9,213.7 L 181.8,213.2 L 185.7,212.6 L 189.6,211.1 L 193.6,209.0 L 197.5,208.7 L 201.4,208.4 L 205.3,206.7 L 209.2,206.1 L 213.2,204.6 L 217.1,204.3 L 221.0,204.0 L 224.9,203.4 L 228.9,203.4 L 232.8,203.4 L 236.7,199.3 L 240.6,199.0 L 244.5,198.1 L 248.5,197.8 L 252.4,197.5 L 256.3,196.6 L 260.2,196.0 L 264.1,195.4 L 268.1,193.7 L 272.0,193.7 L 275.9,193.7 L 279.8,193.4 L 283.8,190.4 L 287.7,189.6 L 291.6,189.0 L 295.5,188.1 L 299.4,187.5 L 303.4,187.5 L 307.3,186.0 L 311.2,183.9 L 315.1,183.4 L 319.0,183.1 L 323.0,182.2 L 326.9,182.2 L 330.8,181.6 L 334.7,180.7 L 338.7,180.1 L 342.6,178.9 L 346.5,177.8 L 350.4,177.5 L 354.3,177.5 L 358.3,176.3 L 362.2,176.3 L 366.1,176.3 L 370.0,174.5 L 373.9,174.2 L 377.9,173.9 L 381.8,173.9 L 385.7,173.6 L 389.6,172.4 L 393.6,171.9 L 397.5,171.0 L 401.4,171.0 L 405.3,170.7 L 409.2,169.5 L 413.2,168.6 L 417.1,168.6 L 421.0,168.3 L 424.9,167.7 L 428.8,165.7 L 432.8,165.1 L 436.7,164.2 L 440.6,164.2 L 444.5,163.6 L 448.4,163.3 L 452.4,163.0 L 456.3,162.7 L 460.2,162.4 L 464.1,162.4 L 468.1,162.1 L 472.0,161.8 L 475.9,160.9 L 479.8,159.8 L 483.7,159.5 L 487.7,158.6 L 491.6,158.6 L 495.5,157.4 L 499.4,157.1 L 503.3,157.1 L 507.3,157.1 L 511.2,156.2 L 515.1,155.9 L 519.0,155.9 L 523.0,155.9 L 526.9,155.6 L 530.8,154.4 L 534.7,154.2 L 538.6,153.3 L 542.6,152.7 L 546.5,152.7 L 550.4,151.8 L 554.3,151.2 L 558.2,151.2 L 562.2,150.9 L 566.1,149.4 L 570.0,148.0 L 573.9,147.7 L 577.9,147.1 L 581.8,145.9 L 585.7,145.9 L 589.6,145.3 L 593.5,143.8 L 597.5,141.2 L 601.4,140.3 L 605.3,140.3 L 609.2,140.3 L 613.1,140.3 L 617.1,140.3 L 621.0,139.1 L 624.9,138.2 L 628.8,138.2 L 632.8,138.2 L 636.7,138.2 L 640.6,137.3 L 644.5,137.3 L 648.4,136.5 L 652.4,135.6 L 656.3,135.3 L 660.2,135.0 L 664.1,134.4 L 668.0,134.4 L 672.0,133.5 L 675.9,132.3 L 679.8,131.4 L 683.7,129.7 L 687.7,129.1 L 691.6,128.8 L 695.5,128.5 L 699.4,127.9 L 703.3,127.6 L 707.3,126.1 L 711.2,125.2 L 715.1,123.8 L 719.0,123.5 L 722.9,123.5 L 726.9,123.2 L 730.8,122.0 L 734.7,121.7 L 738.6,121.4 L 742.6,121.1 L 746.5,119.9 L 750.4,119.6 L 754.3,118.2 L 758.2,117.3 L 762.2,117.0 L 766.1,115.2 L 770.0,115.2 L 770.0,340 Z" fill="url(#g5)" clip-path="url(#ca)"/>
<path d="M 72.0,242.6 L 75.9,240.0 L 79.8,239.7 L 83.8,238.5 L 87.7,237.9 L 91.6,235.0 L 95.5,233.2 L 99.4,232.3 L 103.4,230.8 L 107.3,229.1 L 111.2,228.2 L 115.1,227.9 L 119.1,227.0 L 123.0,226.4 L 126.9,226.1 L 130.8,225.2 L 134.7,224.4 L 138.7,223.5 L 142.6,222.6 L 146.5,221.4 L 150.4,220.5 L 154.3,219.6 L 158.3,218.8 L 162.2,217.0 L 166.1,216.4 L 170.0,216.4 L 174.0,214.3 L 177.9,213.7 L 181.8,213.2 L 185.7,212.6 L 189.6,211.1 L 193.6,209.0 L 197.5,208.7 L 201.4,208.4 L 205.3,206.7 L 209.2,206.1 L 213.2,204.6 L 217.1,204.3 L 221.0,204.0 L 224.9,203.4 L 228.9,203.4 L 232.8,203.4 L 236.7,199.3 L 240.6,199.0 L 244.5,198.1 L 248.5,197.8 L 252.4,197.5 L 256.3,196.6 L 260.2,196.0 L 264.1,195.4 L 268.1,193.7 L 272.0,193.7 L 275.9,193.7 L 279.8,193.4 L 283.8,190.4 L 287.7,189.6 L 291.6,189.0 L 295.5,188.1 L 299.4,187.5 L 303.4,187.5 L 307.3,186.0 L 311.2,183.9 L 315.1,183.4 L 319.0,183.1 L 323.0,182.2 L 326.9,182.2 L 330.8,181.6 L 334.7,180.7 L 338.7,180.1 L 342.6,178.9 L 346.5,177.8 L 350.4,177.5 L 354.3,177.5 L 358.3,176.3 L 362.2,176.3 L 366.1,176.3 L 370.0,174.5 L 373.9,174.2 L 377.9,173.9 L 381.8,173.9 L 385.7,173.6 L 389.6,172.4 L 393.6,171.9 L 397.5,171.0 L 401.4,171.0 L 405.3,170.7 L 409.2,169.5 L 413.2,168.6 L 417.1,168.6 L 421.0,168.3 L 424.9,167.7 L 428.8,165.7 L 432.8,165.1 L 436.7,164.2 L 440.6,164.2 L 444.5,163.6 L 448.4,163.3 L 452.4,163.0 L 456.3,162.7 L 460.2,162.4 L 464.1,162.4 L 468.1,162.1 L 472.0,161.8 L 475.9,160.9 L 479.8,159.8 L 483.7,159.5 L 487.7,158.6 L 491.6,158.6 L 495.5,157.4 L 499.4,157.1 L 503.3,157.1 L 507.3,157.1 L 511.2,156.2 L 515.1,155.9 L 519.0,155.9 L 523.0,155.9 L 526.9,155.6 L 530.8,154.4 L 534.7,154.2 L 538.6,153.3 L 542.6,152.7 L 546.5,152.7 L 550.4,151.8 L 554.3,151.2 L 558.2,151.2 L 562.2,150.9 L 566.1,149.4 L 570.0,148.0 L 573.9,147.7 L 577.9,147.1 L 581.8,145.9 L 585.7,145.9 L 589.6,145.3 L 593.5,143.8 L 597.5,141.2 L 601.4,140.3 L 605.3,140.3 L 609.2,140.3 L 613.1,140.3 L 617.1,140.3 L 621.0,139.1 L 624.9,138.2 L 628.8,138.2 L 632.8,138.2 L 636.7,138.2 L 640.6,137.3 L 644.5,137.3 L 648.4,136.5 L 652.4,135.6 L 656.3,135.3 L 660.2,135.0 L 664.1,134.4 L 668.0,134.4 L 672.0,133.5 L 675.9,132.3 L 679.8,131.4 L 683.7,129.7 L 687.7,129.1 L 691.6,128.8 L 695.5,128.5 L 699.4,127.9 L 703.3,127.6 L 707.3,126.1 L 711.2,125.2 L 715.1,123.8 L 719.0,123.5 L 722.9,123.5 L 726.9,123.2 L 730.8,122.0 L 734.7,121.7 L 738.6,121.4 L 742.6,121.1 L 746.5,119.9 L 750.4,119.6 L 754.3,118.2 L 758.2,117.3 L 762.2,117.0 L 766.1,115.2 L 770.0,115.2" fill="none" stroke="#34C759" stroke-width="2.5" stroke-linejoin="round" clip-path="url(#ca)"/>
<path d="M 72.0,340 L 72.0,222.6 L 75.9,222.6 L 79.8,222.3 L 83.8,221.4 L 87.7,221.7 L 91.6,221.7 L 95.5,220.5 L 99.4,219.6 L 103.4,219.6 L 107.3,219.9 L 111.2,219.6 L 115.1,219.3 L 119.1,219.1 L 123.0,219.1 L 126.9,219.1 L 130.8,219.3 L 134.7,218.8 L 138.7,218.2 L 142.6,216.4 L 146.5,215.2 L 150.4,215.2 L 154.3,214.9 L 158.3,213.2 L 162.2,210.5 L 166.1,209.6 L 170.0,209.0 L 174.0,207.0 L 177.9,205.5 L 181.8,204.9 L 185.7,204.3 L 189.6,203.7 L 193.6,203.4 L 197.5,203.4 L 201.4,201.3 L 205.3,200.8 L 209.2,200.2 L 213.2,200.2 L 217.1,198.7 L 221.0,198.4 L 224.9,197.5 L 228.9,196.3 L 232.8,194.9 L 236.7,192.8 L 240.6,190.7 L 244.5,190.4 L 248.5,189.8 L 252.4,189.3 L 256.3,187.5 L 260.2,187.5 L 264.1,186.9 L 268.1,186.0 L 272.0,185.4 L 275.9,184.2 L 279.8,184.5 L 283.8,181.0 L 287.7,180.7 L 291.6,180.4 L 295.5,179.8 L 299.4,178.0 L 303.4,178.0 L 307.3,176.3 L 311.2,174.2 L 315.1,174.2 L 319.0,174.2 L 323.0,173.9 L 326.9,173.6 L 330.8,173.3 L 334.7,171.9 L 338.7,170.1 L 342.6,169.5 L 346.5,168.3 L 350.4,168.3 L 354.3,167.4 L 358.3,165.7 L 362.2,164.8 L 366.1,164.5 L 370.0,162.4 L 373.9,162.1 L 377.9,162.1 L 381.8,161.8 L 385.7,161.8 L 389.6,160.3 L 393.6,159.8 L 397.5,158.9 L 401.4,158.6 L 405.3,158.0 L 409.2,155.6 L 413.2,152.4 L 417.1,152.1 L 421.0,151.5 L 424.9,151.2 L 428.8,149.7 L 432.8,118.5 L 436.7,117.9 L 440.6,116.4 L 444.5,116.4 L 448.4,116.4 L 452.4,116.7 L 456.3,116.4 L 460.2,114.6 L 464.1,114.0 L 468.1,113.7 L 472.0,113.4 L 475.9,112.3 L 479.8,110.5 L 483.7,110.5 L 487.7,110.5 L 491.6,110.2 L 495.5,109.9 L 499.4,109.9 L 503.3,109.3 L 507.3,108.4 L 511.2,106.9 L 515.1,106.4 L 519.0,106.1 L 523.0,106.1 L 526.9,105.8 L 530.8,105.2 L 534.7,104.9 L 538.6,103.4 L 542.6,103.4 L 546.5,102.8 L 550.4,101.6 L 554.3,100.2 L 558.2,99.9 L 562.2,99.6 L 566.1,96.9 L 570.0,96.3 L 573.9,95.7 L 577.9,95.7 L 581.8,94.6 L 585.7,94.0 L 589.6,92.5 L 593.5,91.9 L 597.5,91.0 L 601.4,90.7 L 605.3,89.5 L 609.2,88.7 L 613.1,88.4 L 617.1,87.8 L 621.0,86.6 L 624.9,86.0 L 628.8,85.1 L 632.8,84.5 L 636.7,84.2 L 640.6,83.6 L 644.5,82.8 L 648.4,82.2 L 652.4,81.6 L 656.3,80.7 L 660.2,80.7 L 664.1,80.1 L 668.0,78.6 L 672.0,77.2 L 675.9,76.3 L 679.8,76.6 L 683.7,76.0 L 687.7,75.7 L 691.6,75.4 L 695.5,74.8 L 699.4,73.3 L 703.3,73.3 L 707.3,73.0 L 711.2,72.1 L 715.1,71.3 L 719.0,70.1 L 722.9,69.5 L 726.9,69.5 L 730.8,68.6 L 734.7,68.0 L 738.6,67.4 L 742.6,66.5 L 746.5,65.9 L 750.4,65.9 L 754.3,65.6 L 758.2,66.2 L 762.2,65.6 L 766.1,64.2 L 770.0,63.3 L 770.0,340 Z" fill="url(#g6)" clip-path="url(#ca)"/>
<path d="M 72.0,222.6 L 75.9,222.6 L 79.8,222.3 L 83.8,221.4 L 87.7,221.7 L 91.6,221.7 L 95.5,220.5 L 99.4,219.6 L 103.4,219.6 L 107.3,219.9 L 111.2,219.6 L 115.1,219.3 L 119.1,219.1 L 123.0,219.1 L 126.9,219.1 L 130.8,219.3 L 134.7,218.8 L 138.7,218.2 L 142.6,216.4 L 146.5,215.2 L 150.4,215.2 L 154.3,214.9 L 158.3,213.2 L 162.2,210.5 L 166.1,209.6 L 170.0,209.0 L 174.0,207.0 L 177.9,205.5 L 181.8,204.9 L 185.7,204.3 L 189.6,203.7 L 193.6,203.4 L 197.5,203.4 L 201.4,201.3 L 205.3,200.8 L 209.2,200.2 L 213.2,200.2 L 217.1,198.7 L 221.0,198.4 L 224.9,197.5 L 228.9,196.3 L 232.8,194.9 L 236.7,192.8 L 240.6,190.7 L 244.5,190.4 L 248.5,189.8 L 252.4,189.3 L 256.3,187.5 L 260.2,187.5 L 264.1,186.9 L 268.1,186.0 L 272.0,185.4 L 275.9,184.2 L 279.8,184.5 L 283.8,181.0 L 287.7,180.7 L 291.6,180.4 L 295.5,179.8 L 299.4,178.0 L 303.4,178.0 L 307.3,176.3 L 311.2,174.2 L 315.1,174.2 L 319.0,174.2 L 323.0,173.9 L 326.9,173.6 L 330.8,173.3 L 334.7,171.9 L 338.7,170.1 L 342.6,169.5 L 346.5,168.3 L 350.4,168.3 L 354.3,167.4 L 358.3,165.7 L 362.2,164.8 L 366.1,164.5 L 370.0,162.4 L 373.9,162.1 L 377.9,162.1 L 381.8,161.8 L 385.7,161.8 L 389.6,160.3 L 393.6,159.8 L 397.5,158.9 L 401.4,158.6 L 405.3,158.0 L 409.2,155.6 L 413.2,152.4 L 417.1,152.1 L 421.0,151.5 L 424.9,151.2 L 428.8,149.7 L 432.8,118.5 L 436.7,117.9 L 440.6,116.4 L 444.5,116.4 L 448.4,116.4 L 452.4,116.7 L 456.3,116.4 L 460.2,114.6 L 464.1,114.0 L 468.1,113.7 L 472.0,113.4 L 475.9,112.3 L 479.8,110.5 L 483.7,110.5 L 487.7,110.5 L 491.6,110.2 L 495.5,109.9 L 499.4,109.9 L 503.3,109.3 L 507.3,108.4 L 511.2,106.9 L 515.1,106.4 L 519.0,106.1 L 523.0,106.1 L 526.9,105.8 L 530.8,105.2 L 534.7,104.9 L 538.6,103.4 L 542.6,103.4 L 546.5,102.8 L 550.4,101.6 L 554.3,100.2 L 558.2,99.9 L 562.2,99.6 L 566.1,96.9 L 570.0,96.3 L 573.9,95.7 L 577.9,95.7 L 581.8,94.6 L 585.7,94.0 L 589.6,92.5 L 593.5,91.9 L 597.5,91.0 L 601.4,90.7 L 605.3,89.5 L 609.2,88.7 L 613.1,88.4 L 617.1,87.8 L 621.0,86.6 L 624.9,86.0 L 628.8,85.1 L 632.8,84.5 L 636.7,84.2 L 640.6,83.6 L 644.5,82.8 L 648.4,82.2 L 652.4,81.6 L 656.3,80.7 L 660.2,80.7 L 664.1,80.1 L 668.0,78.6 L 672.0,77.2 L 675.9,76.3 L 679.8,76.6 L 683.7,76.0 L 687.7,75.7 L 691.6,75.4 L 695.5,74.8 L 699.4,73.3 L 703.3,73.3 L 707.3,73.0 L 711.2,72.1 L 715.1,71.3 L 719.0,70.1 L 722.9,69.5 L 726.9,69.5 L 730.8,68.6 L 734.7,68.0 L 738.6,67.4 L 742.6,66.5 L 746.5,65.9 L 750.4,65.9 L 754.3,65.6 L 758.2,66.2 L 762.2,65.6 L 766.1,64.2 L 770.0,63.3" fill="none" stroke="#4F8EF7" stroke-width="2.5" stroke-linejoin="round" clip-path="url(#ca)"/>
<path d="M 72.0,340 L 72.0,338.2 L 75.9,337.9 L 79.8,337.9 L 83.8,337.6 L 87.7,337.6 L 91.6,337.6 L 95.5,337.6 L 99.4,337.6 L 103.4,337.1 L 107.3,337.1 L 111.2,337.1 L 115.1,337.1 L 119.1,337.1 L 123.0,336.8 L 126.9,336.8 L 130.8,336.8 L 134.7,336.8 L 138.7,336.8 L 142.6,336.5 L 146.5,335.9 L 150.4,335.6 L 154.3,335.6 L 158.3,335.6 L 162.2,335.3 L 166.1,335.3 L 170.0,335.3 L 174.0,335.0 L 177.9,335.0 L 181.8,335.0 L 185.7,334.7 L 189.6,334.7 L 193.6,334.7 L 197.5,334.7 L 201.4,334.4 L 205.3,334.4 L 209.2,334.4 L 213.2,334.4 L 217.1,334.4 L 221.0,334.4 L 224.9,334.4 L 228.9,334.4 L 232.8,334.4 L 236.7,334.4 L 240.6,334.4 L 244.5,334.4 L 248.5,334.4 L 252.4,334.1 L 256.3,334.1 L 260.2,334.1 L 264.1,334.1 L 268.1,334.1 L 272.0,334.1 L 275.9,334.1 L 279.8,334.1 L 283.8,334.1 L 287.7,334.1 L 291.6,334.1 L 295.5,334.1 L 299.4,333.8 L 303.4,333.8 L 307.3,333.8 L 311.2,333.8 L 315.1,333.8 L 319.0,333.8 L 323.0,333.8 L 326.9,333.8 L 330.8,333.8 L 334.7,333.8 L 338.7,333.8 L 342.6,333.8 L 346.5,333.8 L 350.4,333.8 L 354.3,333.8 L 358.3,333.8 L 362.2,333.8 L 366.1,333.8 L 370.0,333.8 L 373.9,333.8 L 377.9,333.8 L 381.8,333.8 L 385.7,333.8 L 389.6,333.8 L 393.6,333.8 L 397.5,333.8 L 401.4,333.8 L 405.3,333.8 L 409.2,333.8 L 413.2,333.8 L 417.1,333.8 L 421.0,333.8 L 424.9,333.8 L 428.8,333.8 L 432.8,333.8 L 436.7,333.8 L 440.6,333.5 L 444.5,333.5 L 448.4,333.5 L 452.4,333.5 L 456.3,333.5 L 460.2,333.2 L 464.1,333.2 L 468.1,333.2 L 472.0,333.2 L 475.9,332.9 L 479.8,332.9 L 483.7,332.6 L 487.7,332.6 L 491.6,332.6 L 495.5,332.6 L 499.4,332.6 L 503.3,332.6 L 507.3,332.6 L 511.2,332.6 L 515.1,332.6 L 519.0,332.6 L 523.0,332.6 L 526.9,332.6 L 530.8,332.6 L 534.7,332.6 L 538.6,332.6 L 542.6,332.6 L 546.5,332.6 L 550.4,332.6 L 554.3,332.6 L 558.2,332.6 L 562.2,332.6 L 566.1,332.6 L 570.0,332.6 L 573.9,332.6 L 577.9,332.6 L 581.8,332.6 L 585.7,332.6 L 589.6,332.6 L 593.5,332.6 L 597.5,332.6 L 601.4,332.6 L 605.3,332.6 L 609.2,332.6 L 613.1,332.6 L 617.1,332.6 L 621.0,332.6 L 624.9,332.6 L 628.8,332.6 L 632.8,332.6 L 636.7,332.6 L 640.6,332.6 L 644.5,332.6 L 648.4,332.6 L 652.4,332.6 L 656.3,332.6 L 660.2,332.6 L 664.1,332.6 L 668.0,332.6 L 672.0,332.3 L 675.9,332.3 L 679.8,332.3 L 683.7,332.3 L 687.7,332.3 L 691.6,332.3 L 695.5,332.3 L 699.4,332.3 L 703.3,332.3 L 707.3,332.3 L 711.2,332.3 L 715.1,332.0 L 719.0,332.0 L 722.9,332.0 L 726.9,332.0 L 730.8,332.0 L 734.7,332.0 L 738.6,332.0 L 742.6,332.0 L 746.5,332.0 L 750.4,332.0 L 754.3,332.0 L 758.2,332.0 L 762.2,332.0 L 766.1,332.0 L 770.0,331.7 L 770.0,340 Z" fill="url(#g7)" clip-path="url(#ca)"/>
<path d="M 72.0,338.2 L 75.9,337.9 L 79.8,337.9 L 83.8,337.6 L 87.7,337.6 L 91.6,337.6 L 95.5,337.6 L 99.4,337.6 L 103.4,337.1 L 107.3,337.1 L 111.2,337.1 L 115.1,337.1 L 119.1,337.1 L 123.0,336.8 L 126.9,336.8 L 130.8,336.8 L 134.7,336.8 L 138.7,336.8 L 142.6,336.5 L 146.5,335.9 L 150.4,335.6 L 154.3,335.6 L 158.3,335.6 L 162.2,335.3 L 166.1,335.3 L 170.0,335.3 L 174.0,335.0 L 177.9,335.0 L 181.8,335.0 L 185.7,334.7 L 189.6,334.7 L 193.6,334.7 L 197.5,334.7 L 201.4,334.4 L 205.3,334.4 L 209.2,334.4 L 213.2,334.4 L 217.1,334.4 L 221.0,334.4 L 224.9,334.4 L 228.9,334.4 L 232.8,334.4 L 236.7,334.4 L 240.6,334.4 L 244.5,334.4 L 248.5,334.4 L 252.4,334.1 L 256.3,334.1 L 260.2,334.1 L 264.1,334.1 L 268.1,334.1 L 272.0,334.1 L 275.9,334.1 L 279.8,334.1 L 283.8,334.1 L 287.7,334.1 L 291.6,334.1 L 295.5,334.1 L 299.4,333.8 L 303.4,333.8 L 307.3,333.8 L 311.2,333.8 L 315.1,333.8 L 319.0,333.8 L 323.0,333.8 L 326.9,333.8 L 330.8,333.8 L 334.7,333.8 L 338.7,333.8 L 342.6,333.8 L 346.5,333.8 L 350.4,333.8 L 354.3,333.8 L 358.3,333.8 L 362.2,333.8 L 366.1,333.8 L 370.0,333.8 L 373.9,333.8 L 377.9,333.8 L 381.8,333.8 L 385.7,333.8 L 389.6,333.8 L 393.6,333.8 L 397.5,333.8 L 401.4,333.8 L 405.3,333.8 L 409.2,333.8 L 413.2,333.8 L 417.1,333.8 L 421.0,333.8 L 424.9,333.8 L 428.8,333.8 L 432.8,333.8 L 436.7,333.8 L 440.6,333.5 L 444.5,333.5 L 448.4,333.5 L 452.4,333.5 L 456.3,333.5 L 460.2,333.2 L 464.1,333.2 L 468.1,333.2 L 472.0,333.2 L 475.9,332.9 L 479.8,332.9 L 483.7,332.6 L 487.7,332.6 L 491.6,332.6 L 495.5,332.6 L 499.4,332.6 L 503.3,332.6 L 507.3,332.6 L 511.2,332.6 L 515.1,332.6 L 519.0,332.6 L 523.0,332.6 L 526.9,332.6 L 530.8,332.6 L 534.7,332.6 L 538.6,332.6 L 542.6,332.6 L 546.5,332.6 L 550.4,332.6 L 554.3,332.6 L 558.2,332.6 L 562.2,332.6 L 566.1,332.6 L 570.0,332.6 L 573.9,332.6 L 577.9,332.6 L 581.8,332.6 L 585.7,332.6 L 589.6,332.6 L 593.5,332.6 L 597.5,332.6 L 601.4,332.6 L 605.3,332.6 L 609.2,332.6 L 613.1,332.6 L 617.1,332.6 L 621.0,332.6 L 624.9,332.6 L 628.8,332.6 L 632.8,332.6 L 636.7,332.6 L 640.6,332.6 L 644.5,332.6 L 648.4,332.6 L 652.4,332.6 L 656.3,332.6 L 660.2,332.6 L 664.1,332.6 L 668.0,332.6 L 672.0,332.3 L 675.9,332.3 L 679.8,332.3 L 683.7,332.3 L 687.7,332.3 L 691.6,332.3 L 695.5,332.3 L 699.4,332.3 L 703.3,332.3 L 707.3,332.3 L 711.2,332.3 L 715.1,332.0 L 719.0,332.0 L 722.9,332.0 L 726.9,332.0 L 730.8,332.0 L 734.7,332.0 L 738.6,332.0 L 742.6,332.0 L 746.5,332.0 L 750.4,332.0 L 754.3,332.0 L 758.2,332.0 L 762.2,332.0 L 766.1,332.0 L 770.0,331.7" fill="none" stroke="#FF6363" stroke-width="2.5" stroke-linejoin="round" clip-path="url(#ca)"/>
<text x="93.6" y="55.0" text-anchor="middle" font-size="9" fill="#34C759" opacity="0.85" clip-path="url(#ca)">+15.2% (+50)</text>
<text x="93.6" y="66.0" text-anchor="middle" font-size="9" fill="#4F8EF7" opacity="0.85" clip-path="url(#ca)">+2.8% (+11)</text>
<text x="93.6" y="77.0" text-anchor="middle" font-size="9" fill="#FF6363" opacity="0.85" clip-path="url(#ca)">+66.7% (+4)</text>
<text x="168.1" y="55.0" text-anchor="middle" font-size="9" fill="#34C759" opacity="0.85" clip-path="url(#ca)">+20.1% (+77)</text>
<text x="168.1" y="66.0" text-anchor="middle" font-size="9" fill="#4F8EF7" opacity="0.85" clip-path="url(#ca)">+16.8% (+69)</text>
<text x="168.1" y="77.0" text-anchor="middle" font-size="9" fill="#FF6363" opacity="0.85" clip-path="url(#ca)">+90.0% (+9)</text>
<text x="272.0" y="55.0" text-anchor="middle" font-size="9" fill="#34C759" opacity="0.85" clip-path="url(#ca)">+16.1% (+74)</text>
<text x="272.0" y="66.0" text-anchor="middle" font-size="9" fill="#4F8EF7" opacity="0.85" clip-path="url(#ca)">+17.3% (+83)</text>
<text x="272.0" y="77.0" text-anchor="middle" font-size="9" fill="#FF6363" opacity="0.85" clip-path="url(#ca)">+10.5% (+2)</text>
<text x="377.9" y="55.0" text-anchor="middle" font-size="9" fill="#34C759" opacity="0.85" clip-path="url(#ca)">+10.5% (+56)</text>
<text x="377.9" y="66.0" text-anchor="middle" font-size="9" fill="#4F8EF7" opacity="0.85" clip-path="url(#ca)">+14.4% (+81)</text>
<text x="377.9" y="77.0" text-anchor="middle" font-size="9" fill="#FF6363" opacity="0.85" clip-path="url(#ca)">+0.0% (+0)</text>
<text x="483.7" y="55.0" text-anchor="middle" font-size="9" fill="#34C759" opacity="0.85" clip-path="url(#ca)">+6.2% (+37)</text>
<text x="483.7" y="66.0" text-anchor="middle" font-size="9" fill="#4F8EF7" opacity="0.85" clip-path="url(#ca)">+6.1% (+46)</text>
<text x="483.7" y="77.0" text-anchor="middle" font-size="9" fill="#FF6363" opacity="0.85" clip-path="url(#ca)">+19.0% (+4)</text>
<text x="587.7" y="55.0" text-anchor="middle" font-size="9" fill="#34C759" opacity="0.85" clip-path="url(#ca)">+8.1% (+51)</text>
<text x="587.7" y="66.0" text-anchor="middle" font-size="9" fill="#4F8EF7" opacity="0.85" clip-path="url(#ca)">+8.1% (+65)</text>
<text x="587.7" y="77.0" text-anchor="middle" font-size="9" fill="#FF6363" opacity="0.85" clip-path="url(#ca)">+0.0% (+0)</text>
<text x="685.7" y="55.0" text-anchor="middle" font-size="9" fill="#34C759" opacity="0.85" clip-path="url(#ca)">+7.6% (+52)</text>
<text x="685.7" y="66.0" text-anchor="middle" font-size="9" fill="#4F8EF7" opacity="0.85" clip-path="url(#ca)">+5.9% (+51)</text>
<text x="685.7" y="77.0" text-anchor="middle" font-size="9" fill="#FF6363" opacity="0.85" clip-path="url(#ca)">+8.0% (+2)</text>
<text x="752.4" y="55.0" text-anchor="middle" font-size="9" fill="#34C759" opacity="0.85" clip-path="url(#ca)">+3.0% (+22)</text>
<text x="752.4" y="66.0" text-anchor="middle" font-size="9" fill="#4F8EF7" opacity="0.85" clip-path="url(#ca)">+1.7% (+16)</text>
<text x="752.4" y="77.0" text-anchor="middle" font-size="9" fill="#FF6363" opacity="0.85" clip-path="url(#ca)">+3.7% (+1)</text>
<rect x="211" y="369" width="12" height="12" fill="#34C759" rx="2"/>
<text x="227" y="379" font-size="12" fill="#111827">macOS + Windows</text>
<rect x="351" y="369" width="12" height="12" fill="#4F8EF7" rx="2"/>
<text x="367" y="379" font-size="12" fill="#111827">macOS only</text>
<rect x="491" y="369" width="12" height="12" fill="#FF6363" rx="2"/>
<text x="507" y="379" font-size="12" fill="#111827">Windows only</text>
<text x="72" y="394" font-size="8" fill="#e5e7eb">data since Dec 11, 2025</text>
</svg>