<svg xmlns="http://www.w3.org/2000/svg" width="800" height="400" viewBox="0 0 800 400">
<defs>
  <style>text { font-family: -apple-system, BlinkMacSystemFont, 'Segoe UI', Roboto, sans-serif; }</style>
  <linearGradient id="g2" x1="0" y1="0" x2="0" y2="1">
  <stop offset="0%" stop-color="#4F8EF7" stop-opacity="0.25"/>
  <stop offset="100%" stop-color="#4F8EF7" stop-opacity="0"/>
</linearGradient>
<linearGradient id="g3" x1="0" y1="0" x2="0" y2="1">
  <stop offset="0%" stop-color="#BF5AF2" stop-opacity="0.25"/>
  <stop offset="100%" stop-color="#BF5AF2" stop-opacity="0"/>
</linearGradient>
<linearGradient id="g4" x1="0" y1="0" x2="0" y2="1">
  <stop offset="0%" stop-color="#34C759" stop-opacity="0.25"/>
  <stop offset="100%" stop-color="#34C759" stop-opacity="0"/>
</linearGradient>
  <clipPath id="ca"><rect x="72" y="45" width="698" height="295"/></clipPath>
</defs>
<rect width="800" height="400" fill="#ffffff" rx="12"/>
<text x="400" y="26" text-anchor="middle" font-size="15" font-weight="600" fill="#111827">Community Growth Over Time</text>
<line x1="72" y1="340.0" x2="770" y2="340.0" stroke="#f3f4f6" stroke-width="1"/>
<text x="66" y="344.0" text-anchor="end" font-size="11" fill="#6b7280">500</text>
<line x1="72" y1="266.3" x2="770" y2="266.3" stroke="#f3f4f6" stroke-width="1"/>
<text x="66" y="270.3" text-anchor="end" font-size="11" fill="#6b7280">1.0k</text>
<line x1="72" y1="192.5" x2="770" y2="192.5" stroke="#f3f4f6" stroke-width="1"/>
<text x="66" y="196.5" text-anchor="end" font-size="11" fill="#6b7280">1.5k</text>
<line x1="72" y1="118.8" x2="770" y2="118.8" stroke="#f3f4f6" stroke-width="1"/>
<text x="66" y="122.8" text-anchor="end" font-size="11" fill="#6b7280">2.0k</text>
<line x1="72" y1="45.0" x2="770" y2="45.0" stroke="#f3f4f6" stroke-width="1"/>
<text x="66" y="49.0" text-anchor="end" font-size="11" fill="#6b7280">2.5k</text>
<line x1="117.3" y1="45" x2="117.3" y2="340" stroke="#e5e7eb" stroke-width="1" stroke-dasharray="3,3" clip-path="url(#ca)"/>
<line x1="215.4" y1="45" x2="215.4" y2="340" stroke="#e5e7eb" stroke-width="1" stroke-dasharray="3,3" clip-path="url(#ca)"/>
<line x1="317.2" y1="45" x2="317.2" y2="340" stroke="#e5e7eb" stroke-width="1" stroke-dasharray="3,3" clip-path="url(#ca)"/>
<line x1="419.1" y1="45" x2="419.1" y2="340" stroke="#e5e7eb" stroke-width="1" stroke-dasharray="3,3" clip-path="url(#ca)"/>
<line x1="521.0" y1="45" x2="521.0" y2="340" stroke="#e5e7eb" stroke-width="1" stroke-dasharray="3,3" clip-path="url(#ca)"/>
<line x1="619.1" y1="45" x2="619.1" y2="340" stroke="#e5e7eb" stroke-width="1" stroke-dasharray="3,3" clip-path="url(#ca)"/>
<line x1="709.6" y1="45" x2="709.6" y2="340" stroke="#e5e7eb" stroke-width="1" stroke-dasharray="3,3" clip-path="url(#ca)"/>
<text x="72.0" y="358.0" text-anchor="middle" font-size="11" fill="#6b7280">Dec 11</text>
<text x="211.6" y="358.0" text-anchor="middle" font-size="11" fill="#6b7280">Jan 31</text>
<text x="351.2" y="358.0" text-anchor="middle" font-size="11" fill="#6b7280">Mar 11</text>
<text x="490.8" y="358.0" text-anchor="middle" font-size="11" fill="#6b7280">Apr 22</text>
<text x="630.4" y="358.0" text-anchor="middle" font-size="11" fill="#6b7280">Jun 5</text>
<text x="770.0" y="358.0" text-anchor="middle" font-size="11" fill="#6b7280">Jul 20</text>
<line x1="72" y1="45" x2="72" y2="340" stroke="#e5e7eb" stroke-width="1"/>
<line x1="72" y1="340" x2="770" y2="340" stroke="#e5e7eb" stroke-width="1"/>
<text x="-192.5" y="18" text-anchor="middle" font-size="12" fill="#6b7280" transform="rotate(-90)">People</text>
<path d="M 72.0,340 L 72.0,175.1 L 75.8,175.1 L 79.5,175.1 L 83.3,174.7 L 87.1,174.7 L 90.9,174.4 L 94.6,174.2 L 98.4,174.4 L 102.2,173.9 L 106.0,173.9 L 109.7,173.9 L 113.5,173.9 L 117.3,173.9 L 121.0,173.9 L 124.8,173.9 L 128.6,173.9 L 132.4,173.8 L 136.1,173.3 L 139.9,172.4 L 143.7,172.0 L 147.5,171.9 L 151.2,171.9 L 155.0,171.4 L 158.8,170.4 L 162.6,169.8 L 166.3,169.8 L 170.1,169.0 L 173.9,168.8 L 177.6,168.2 L 181.4,167.7 L 185.2,167.3 L 189.0,166.8 L 192.7,166.8 L 196.5,165.8 L 200.3,165.2 L 204.1,165.2 L 207.8,164.6 L 211.6,164.3 L 215.4,164.2 L 219.1,164.0 L 222.9,164.0 L 226.7,163.6 L 230.5,161.8 L 234.2,160.8 L 238.0,160.2 L 241.8,160.1 L 245.6,159.8 L 249.3,159.2 L 253.1,158.9 L 256.9,158.6 L 260.6,158.3 L 264.4,158.0 L 268.2,157.7 L 272.0,157.7 L 275.7,156.2 L 279.5,156.2 L 283.3,156.1 L 287.1,155.9 L 290.8,155.6 L 294.6,155.6 L 298.4,154.9 L 302.2,154.0 L 305.9,153.7 L 309.7,154.0 L 313.5,153.9 L 317.2,153.7 L 321.0,153.7 L 324.8,153.4 L 328.6,152.8 L 332.3,152.5 L 336.1,152.2 L 339.9,152.1 L 343.7,152.1 L 347.4,151.5 L 351.2,151.2 L 355.0,151.2 L 358.7,150.0 L 362.5,150.0 L 366.3,150.0 L 370.1,150.0 L 373.8,149.9 L 377.6,149.4 L 381.4,148.8 L 385.2,148.5 L 388.9,148.5 L 392.7,148.3 L 396.5,147.1 L 400.2,146.3 L 404.0,146.2 L 407.8,146.0 L 411.6,145.6 L 415.3,144.7 L 419.1,144.4 L 422.9,144.1 L 426.7,143.2 L 430.4,143.1 L 434.2,143.1 L 438.0,143.1 L 441.8,142.9 L 445.5,142.1 L 449.3,141.9 L 453.1,141.8 L 456.8,141.8 L 460.6,141.5 L 464.4,140.3 L 468.2,140.1 L 471.9,140.0 L 475.7,140.0 L 479.5,139.4 L 483.3,139.3 L 487.0,139.1 L 490.8,138.7 L 494.6,138.1 L 498.3,138.1 L 502.1,138.1 L 505.9,138.1 L 509.7,137.8 L 513.4,137.3 L 517.2,137.2 L 521.0,136.7 L 524.8,136.6 L 528.5,136.5 L 532.3,135.9 L 536.1,135.4 L 539.8,135.3 L 543.6,135.3 L 547.4,133.9 L 551.2,133.5 L 554.9,133.4 L 558.7,133.4 L 562.5,132.6 L 566.3,132.6 L 570.0,132.2 L 573.8,131.7 L 577.6,130.7 L 581.4,130.6 L 585.1,130.4 L 588.9,130.3 L 592.7,130.3 L 596.4,130.1 L 600.2,129.4 L 604.0,128.9 L 607.8,128.9 L 611.5,128.8 L 615.3,128.8 L 619.1,128.3 L 622.9,128.2 L 626.6,128.0 L 630.4,127.6 L 634.2,127.0 L 637.9,127.0 L 641.7,126.9 L 645.5,126.7 L 649.3,126.0 L 653.0,124.9 L 656.8,124.8 L 660.6,124.5 L 664.4,124.2 L 668.1,124.1 L 671.9,123.6 L 675.7,123.0 L 679.4,122.9 L 683.2,122.4 L 687.0,122.1 L 690.8,121.4 L 694.5,121.3 L 698.3,121.0 L 702.1,121.0 L 705.9,120.7 L 709.6,120.4 L 713.4,120.1 L 717.2,119.9 L 721.0,119.6 L 724.7,119.6 L 728.5,119.3 L 732.3,119.2 L 736.0,119.2 L 739.8,118.3 L 743.6,117.9 L 747.4,117.9 L 751.1,117.9 L 754.9,117.4 L 758.7,116.5 L 762.5,116.2 L 766.2,115.9 L 770.0,115.7 L 770.0,340 Z" fill="url(#g2)" clip-path="url(#ca)"/>
<path d="M 72.0,175.1 L 75.8,175.1 L 79.5,175.1 L 83.3,174.7 L 87.1,174.7 L 90.9,174.4 L 94.6,174.2 L 98.4,174.4 L 102.2,173.9 L 106.0,173.9 L 109.7,173.9 L 113.5,173.9 L 117.3,173.9 L 121.0,173.9 L 124.8,173.9 L 128.6,173.9 L 132.4,173.8 L 136.1,173.3 L 139.9,172.4 L 143.7,172.0 L 147.5,171.9 L 151.2,171.9 L 155.0,171.4 L 158.8,170.4 L 162.6,169.8 L 166.3,169.8 L 170.1,169.0 L 173.9,168.8 L 177.6,168.2 L 181.4,167.7 L 185.2,167.3 L 189.0,166.8 L 192.7,166.8 L 196.5,165.8 L 200.3,165.2 L 204.1,165.2 L 207.8,164.6 L 211.6,164.3 L 215.4,164.2 L 219.1,164.0 L 222.9,164.0 L 226.7,163.6 L 230.5,161.8 L 234.2,160.8 L 238.0,160.2 L 241.8,160.1 L 245.6,159.8 L 249.3,159.2 L 253.1,158.9 L 256.9,158.6 L 260.6,158.3 L 264.4,158.0 L 268.2,157.7 L 272.0,157.7 L 275.7,156.2 L 279.5,156.2 L 283.3,156.1 L 287.1,155.9 L 290.8,155.6 L 294.6,155.6 L 298.4,154.9 L 302.2,154.0 L 305.9,153.7 L 309.7,154.0 L 313.5,153.9 L 317.2,153.7 L 321.0,153.7 L 324.8,153.4 L 328.6,152.8 L 332.3,152.5 L 336.1,152.2 L 339.9,152.1 L 343.7,152.1 L 347.4,151.5 L 351.2,151.2 L 355.0,151.2 L 358.7,150.0 L 362.5,150.0 L 366.3,150.0 L 370.1,150.0 L 373.8,149.9 L 377.6,149.4 L 381.4,148.8 L 385.2,148.5 L 388.9,148.5 L 392.7,148.3 L 396.5,147.1 L 400.2,146.3 L 404.0,146.2 L 407.8,146.0 L 411.6,145.6 L 415.3,144.7 L 419.1,144.4 L 422.9,144.1 L 426.7,143.2 L 430.4,143.1 L 434.2,143.1 L 438.0,143.1 L 441.8,142.9 L 445.5,142.1 L 449.3,141.9 L 453.1,141.8 L 456.8,141.8 L 460.6,141.5 L 464.4,140.3 L 468.2,140.1 L 471.9,140.0 L 475.7,140.0 L 479.5,139.4 L 483.3,139.3 L 487.0,139.1 L 490.8,138.7 L 494.6,138.1 L 498.3,138.1 L 502.1,138.1 L 505.9,138.1 L 509.7,137.8 L 513.4,137.3 L 517.2,137.2 L 521.0,136.7 L 524.8,136.6 L 528.5,136.5 L 532.3,135.9 L 536.1,135.4 L 539.8,135.3 L 543.6,135.3 L 547.4,133.9 L 551.2,133.5 L 554.9,133.4 L 558.7,133.4 L 562.5,132.6 L 566.3,132.6 L 570.0,132.2 L 573.8,131.7 L 577.6,130.7 L 581.4,130.6 L 585.1,130.4 L 588.9,130.3 L 592.7,130.3 L 596.4,130.1 L 600.2,129.4 L 604.0,128.9 L 607.8,128.9 L 611.5,128.8 L 615.3,128.8 L 619.1,128.3 L 622.9,128.2 L 626.6,128.0 L 630.4,127.6 L 634.2,127.0 L 637.9,127.0 L 641.7,126.9 L 645.5,126.7 L 649.3,126.0 L 653.0,124.9 L 656.8,124.8 L 660.6,124.5 L 664.4,124.2 L 668.1,124.1 L 671.9,123.6 L 675.7,123.0 L 679.4,122.9 L 683.2,122.4 L 687.0,122.1 L 690.8,121.4 L 694.5,121.3 L 698.3,121.0 L 702.1,121.0 L 705.9,120.7 L 709.6,120.4 L 713.4,120.1 L 717.2,119.9 L 721.0,119.6 L 724.7,119.6 L 728.5,119.3 L 732.3,119.2 L 736.0,119.2 L 739.8,118.3 L 743.6,117.9 L 747.4,117.9 L 751.1,117.9 L 754.9,117.4 L 758.7,116.5 L 762.5,116.2 L 766.2,115.9 L 770.0,115.7" fill="none" stroke="#4F8EF7" stroke-width="2.5" stroke-linejoin="round" clip-path="url(#ca)"/>
<path d="M 72.0,340 L 72.0,268.2 L 75.8,267.7 L 79.5,267.7 L 83.3,267.7 L 87.1,267.6 L 90.9,267.3 L 94.6,267.1 L 98.4,267.0 L 102.2,267.0 L 106.0,266.8 L 109.7,266.7 L 113.5,266.7 L 117.3,266.7 L 121.0,266.7 L 124.8,266.7 L 128.6,266.7 L 132.4,266.4 L 136.1,266.4 L 139.9,266.4 L 143.7,265.8 L 147.5,265.7 L 151.2,265.4 L 155.0,264.8 L 158.8,264.6 L 162.6,264.6 L 166.3,264.6 L 170.1,264.2 L 173.9,263.9 L 177.6,263.9 L 181.4,263.6 L 185.2,263.4 L 189.0,263.2 L 192.7,263.2 L 196.5,263.0 L 200.3,262.4 L 204.1,262.0 L 207.8,261.7 L 211.6,261.5 L 215.4,261.5 L 219.1,261.4 L 222.9,261.1 L 226.7,261.1 L 230.5,260.9 L 234.2,260.5 L 238.0,260.2 L 241.8,260.2 L 245.6,260.2 L 249.3,260.2 L 253.1,260.1 L 256.9,259.6 L 260.6,259.3 L 264.4,259.2 L 268.2,259.0 L 272.0,258.9 L 275.7,258.7 L 279.5,258.6 L 283.3,258.4 L 287.1,258.0 L 290.8,257.8 L 294.6,257.7 L 298.4,257.1 L 302.2,256.5 L 305.9,256.5 L 309.7,256.4 L 313.5,256.2 L 317.2,256.2 L 321.0,256.2 L 324.8,255.9 L 328.6,255.9 L 332.3,255.0 L 336.1,254.9 L 339.9,254.7 L 343.7,254.7 L 347.4,254.4 L 351.2,254.3 L 355.0,254.3 L 358.7,254.2 L 362.5,254.2 L 366.3,254.2 L 370.1,253.9 L 373.8,253.7 L 377.6,253.0 L 381.4,253.1 L 385.2,253.0 L 388.9,252.8 L 392.7,252.8 L 396.5,252.7 L 400.2,252.2 L 404.0,252.2 L 407.8,252.2 L 411.6,252.2 L 415.3,251.9 L 419.1,251.9 L 422.9,251.6 L 426.7,251.4 L 430.4,250.8 L 434.2,250.8 L 438.0,250.5 L 441.8,250.3 L 445.5,250.2 L 449.3,250.0 L 453.1,249.7 L 456.8,249.7 L 460.6,249.3 L 464.4,249.3 L 468.2,249.1 L 471.9,248.8 L 475.7,248.7 L 479.5,248.7 L 483.3,248.7 L 487.0,248.7 L 490.8,248.7 L 494.6,248.3 L 498.3,248.3 L 502.1,248.0 L 505.9,247.7 L 509.7,247.2 L 513.4,247.1 L 517.2,247.1 L 521.0,246.2 L 524.8,246.0 L 528.5,246.0 L 532.3,245.5 L 536.1,245.5 L 539.8,245.2 L 543.6,245.2 L 547.4,245.0 L 551.2,245.0 L 554.9,244.9 L 558.7,244.6 L 562.5,244.6 L 566.3,244.4 L 570.0,244.3 L 573.8,244.1 L 577.6,244.0 L 581.4,244.0 L 585.1,243.7 L 588.9,243.7 L 592.7,243.7 L 596.4,242.9 L 600.2,242.9 L 604.0,242.9 L 607.8,242.9 L 611.5,242.9 L 615.3,242.9 L 619.1,242.6 L 622.9,242.6 L 626.6,242.4 L 630.4,241.8 L 634.2,241.5 L 637.9,241.3 L 641.7,241.3 L 645.5,241.2 L 649.3,240.7 L 653.0,240.6 L 656.8,240.6 L 660.6,240.3 L 664.4,239.8 L 668.1,239.6 L 671.9,239.6 L 675.7,239.4 L 679.4,239.4 L 683.2,239.0 L 687.0,238.8 L 690.8,238.8 L 694.5,238.5 L 698.3,238.5 L 702.1,238.2 L 705.9,237.8 L 709.6,237.8 L 713.4,237.6 L 717.2,237.5 L 721.0,237.3 L 724.7,237.3 L 728.5,237.2 L 732.3,237.2 L 736.0,236.9 L 739.8,236.3 L 743.6,236.2 L 747.4,236.2 L 751.1,235.0 L 754.9,235.0 L 758.7,234.5 L 762.5,234.5 L 766.2,234.5 L 770.0,234.5 L 770.0,340 Z" fill="url(#g3)" clip-path="url(#ca)"/>
<path d="M 72.0,268.2 L 75.8,267.7 L 79.5,267.7 L 83.3,267.7 L 87.1,267.6 L 90.9,267.3 L 94.6,267.1 L 98.4,267.0 L 102.2,267.0 L 106.0,266.8 L 109.7,266.7 L 113.5,266.7 L 117.3,266.7 L 121.0,266.7 L 124.8,266.7 L 128.6,266.7 L 132.4,266.4 L 136.1,266.4 L 139.9,266.4 L 143.7,265.8 L 147.5,265.7 L 151.2,265.4 L 155.0,264.8 L 158.8,264.6 L 162.6,264.6 L 166.3,264.6 L 170.1,264.2 L 173.9,263.9 L 177.6,263.9 L 181.4,263.6 L 185.2,263.4 L 189.0,263.2 L 192.7,263.2 L 196.5,263.0 L 200.3,262.4 L 204.1,262.0 L 207.8,261.7 L 211.6,261.5 L 215.4,261.5 L 219.1,261.4 L 222.9,261.1 L 226.7,261.1 L 230.5,260.9 L 234.2,260.5 L 238.0,260.2 L 241.8,260.2 L 245.6,260.2 L 249.3,260.2 L 253.1,260.1 L 256.9,259.6 L 260.6,259.3 L 264.4,259.2 L 268.2,259.0 L 272.0,258.9 L 275.7,258.7 L 279.5,258.6 L 283.3,258.4 L 287.1,258.0 L 290.8,257.8 L 294.6,257.7 L 298.4,257.1 L 302.2,256.5 L 305.9,256.5 L 309.7,256.4 L 313.5,256.2 L 317.2,256.2 L 321.0,256.2 L 324.8,255.9 L 328.6,255.9 L 332.3,255.0 L 336.1,254.9 L 339.9,254.7 L 343.7,254.7 L 347.4,254.4 L 351.2,254.3 L 355.0,254.3 L 358.7,254.2 L 362.5,254.2 L 366.3,254.2 L 370.1,253.9 L 373.8,253.7 L 377.6,253.0 L 381.4,253.1 L 385.2,253.0 L 388.9,252.8 L 392.7,252.8 L 396.5,252.7 L 400.2,252.2 L 404.0,252.2 L 407.8,252.2 L 411.6,252.2 L 415.3,251.9 L 419.1,251.9 L 422.9,251.6 L 426.7,251.4 L 430.4,250.8 L 434.2,250.8 L 438.0,250.5 L 441.8,250.3 L 445.5,250.2 L 449.3,250.0 L 453.1,249.7 L 456.8,249.7 L 460.6,249.3 L 464.4,249.3 L 468.2,249.1 L 471.9,248.8 L 475.7,248.7 L 479.5,248.7 L 483.3,248.7 L 487.0,248.7 L 490.8,248.7 L 494.6,248.3 L 498.3,248.3 L 502.1,248.0 L 505.9,247.7 L 509.7,247.2 L 513.4,247.1 L 517.2,247.1 L 521.0,246.2 L 524.8,246.0 L 528.5,246.0 L 532.3,245.5 L 536.1,245.5 L 539.8,245.2 L 543.6,245.2 L 547.4,245.0 L 551.2,245.0 L 554.9,244.9 L 558.7,244.6 L 562.5,244.6 L 566.3,244.4 L 570.0,244.3 L 573.8,244.1 L 577.6,244.0 L 581.4,244.0 L 585.1,243.7 L 588.9,243.7 L 592.7,243.7 L 596.4,242.9 L 600.2,242.9 L 604.0,242.9 L 607.8,242.9 L 611.5,242.9 L 615.3,242.9 L 619.1,242.6 L 622.9,242.6 L 626.6,242.4 L 630.4,241.8 L 634.2,241.5 L 637.9,241.3 L 641.7,241.3 L 645.5,241.2 L 649.3,240.7 L 653.0,240.6 L 656.8,240.6 L 660.6,240.3 L 664.4,239.8 L 668.1,239.6 L 671.9,239.6 L 675.7,239.4 L 679.4,239.4 L 683.2,239.0 L 687.0,238.8 L 690.8,238.8 L 694.5,238.5 L 698.3,238.5 L 702.1,238.2 L 705.9,237.8 L 709.6,237.8 L 713.4,237.6 L 717.2,237.5 L 721.0,237.3 L 724.7,237.3 L 728.5,237.2 L 732.3,237.2 L 736.0,236.9 L 739.8,236.3 L 743.6,236.2 L 747.4,236.2 L 751.1,235.0 L 754.9,235.0 L 758.7,234.5 L 762.5,234.5 L 766.2,234.5 L 770.0,234.5" fill="none" stroke="#BF5AF2" stroke-width="2.5" stroke-linejoin="round" clip-path="url(#ca)"/>
<path d="M 72.0,340 L 72.0,303.6 L 75.8,303.1 L 79.5,303.1 L 83.3,303.1 L 87.1,303.0 L 90.9,302.7 L 94.6,302.5 L 98.4,302.2 L 102.2,302.2 L 106.0,302.1 L 109.7,301.9 L 113.5,301.9 L 117.3,301.9 L 121.0,301.9 L 124.8,301.9 L 128.6,301.9 L 132.4,301.6 L 136.1,301.6 L 139.9,301.8 L 143.7,301.4 L 147.5,301.5 L 151.2,301.1 L 155.0,300.6 L 158.8,300.5 L 162.6,300.6 L 166.3,300.6 L 170.1,300.2 L 173.9,300.0 L 177.6,300.0 L 181.4,299.7 L 185.2,299.6 L 189.0,299.3 L 192.7,299.3 L 196.5,299.1 L 200.3,298.7 L 204.1,298.3 L 207.8,298.0 L 211.6,298.0 L 215.4,298.0 L 219.1,297.8 L 222.9,297.5 L 226.7,297.5 L 230.5,297.4 L 234.2,296.9 L 238.0,296.8 L 241.8,296.8 L 245.6,296.8 L 249.3,296.8 L 253.1,296.6 L 256.9,296.2 L 260.6,296.0 L 264.4,295.9 L 268.2,295.8 L 272.0,295.8 L 275.7,295.6 L 279.5,295.6 L 283.3,295.6 L 287.1,295.2 L 290.8,295.2 L 294.6,295.2 L 298.4,294.9 L 302.2,294.4 L 305.9,294.4 L 309.7,294.3 L 313.5,294.1 L 317.2,294.1 L 321.0,294.1 L 324.8,293.8 L 328.6,293.8 L 332.3,292.9 L 336.1,292.8 L 339.9,292.7 L 343.7,292.7 L 347.4,292.5 L 351.2,292.5 L 355.0,292.5 L 358.7,292.5 L 362.5,292.5 L 366.3,292.5 L 370.1,292.2 L 373.8,292.1 L 377.6,291.3 L 381.4,291.5 L 385.2,291.5 L 388.9,291.3 L 392.7,291.3 L 396.5,291.3 L 400.2,291.0 L 404.0,291.0 L 407.8,291.0 L 411.6,291.0 L 415.3,291.0 L 419.1,291.0 L 422.9,290.9 L 426.7,290.9 L 430.4,290.3 L 434.2,290.3 L 438.0,290.1 L 441.8,290.0 L 445.5,289.9 L 449.3,289.7 L 453.1,289.4 L 456.8,289.4 L 460.6,289.0 L 464.4,289.0 L 468.2,288.8 L 471.9,288.7 L 475.7,288.7 L 479.5,288.7 L 483.3,288.7 L 487.0,288.7 L 490.8,288.7 L 494.6,288.2 L 498.3,288.2 L 502.1,287.9 L 505.9,287.6 L 509.7,287.2 L 513.4,287.0 L 517.2,287.0 L 521.0,286.3 L 524.8,286.2 L 528.5,286.2 L 532.3,285.7 L 536.1,285.7 L 539.8,285.6 L 543.6,285.6 L 547.4,285.7 L 551.2,285.9 L 554.9,285.7 L 558.7,285.4 L 562.5,285.6 L 566.3,285.4 L 570.0,285.3 L 573.8,285.3 L 577.6,285.3 L 581.4,285.3 L 585.1,285.0 L 588.9,285.0 L 592.7,285.0 L 596.4,284.4 L 600.2,284.4 L 604.0,284.4 L 607.8,284.4 L 611.5,284.4 L 615.3,284.4 L 619.1,284.1 L 622.9,284.1 L 626.6,283.8 L 630.4,283.2 L 634.2,283.1 L 637.9,283.1 L 641.7,283.1 L 645.5,283.1 L 649.3,282.8 L 653.0,282.6 L 656.8,282.6 L 660.6,282.5 L 664.4,282.0 L 668.1,281.7 L 671.9,281.7 L 675.7,281.6 L 679.4,281.6 L 683.2,281.4 L 687.0,281.3 L 690.8,281.3 L 694.5,281.1 L 698.3,281.1 L 702.1,280.9 L 705.9,280.4 L 709.6,280.4 L 713.4,280.3 L 717.2,280.4 L 721.0,280.3 L 724.7,280.3 L 728.5,280.1 L 732.3,280.1 L 736.0,280.0 L 739.8,279.5 L 743.6,279.5 L 747.4,279.5 L 751.1,278.6 L 754.9,278.8 L 758.7,278.3 L 762.5,278.3 L 766.2,278.3 L 770.0,278.3 L 770.0,340 Z" fill="url(#g4)" clip-path="url(#ca)"/>
<path d="M 72.0,303.6 L 75.8,303.1 L 79.5,303.1 L 83.3,303.1 L 87.1,303.0 L 90.9,302.7 L 94.6,302.5 L 98.4,302.2 L 102.2,302.2 L 106.0,302.1 L 109.7,301.9 L 113.5,301.9 L 117.3,301.9 L 121.0,301.9 L 124.8,301.9 L 128.6,301.9 L 132.4,301.6 L 136.1,301.6 L 139.9,301.8 L 143.7,301.4 L 147.5,301.5 L 151.2,301.1 L 155.0,300.6 L 158.8,300.5 L 162.6,300.6 L 166.3,300.6 L 170.1,300.2 L 173.9,300.0 L 177.6,300.0 L 181.4,299.7 L 185.2,299.6 L 189.0,299.3 L 192.7,299.3 L 196.5,299.1 L 200.3,298.7 L 204.1,298.3 L 207.8,298.0 L 211.6,298.0 L 215.4,298.0 L 219.1,297.8 L 222.9,297.5 L 226.7,297.5 L 230.5,297.4 L 234.2,296.9 L 238.0,296.8 L 241.8,296.8 L 245.6,296.8 L 249.3,296.8 L 253.1,296.6 L 256.9,296.2 L 260.6,296.0 L 264.4,295.9 L 268.2,295.8 L 272.0,295.8 L 275.7,295.6 L 279.5,295.6 L 283.3,295.6 L 287.1,295.2 L 290.8,295.2 L 294.6,295.2 L 298.4,294.9 L 302.2,294.4 L 305.9,294.4 L 309.7,294.3 L 313.5,294.1 L 317.2,294.1 L 321.0,294.1 L 324.8,293.8 L 328.6,293.8 L 332.3,292.9 L 336.1,292.8 L 339.9,292.7 L 343.7,292.7 L 347.4,292.5 L 351.2,292.5 L 355.0,292.5 L 358.7,292.5 L 362.5,292.5 L 366.3,292.5 L 370.1,292.2 L 373.8,292.1 L 377.6,291.3 L 381.4,291.5 L 385.2,291.5 L 388.9,291.3 L 392.7,291.3 L 396.5,291.3 L 400.2,291.0 L 404.0,291.0 L 407.8,291.0 L 411.6,291.0 L 415.3,291.0 L 419.1,291.0 L 422.9,290.9 L 426.7,290.9 L 430.4,290.3 L 434.2,290.3 L 438.0,290.1 L 441.8,290.0 L 445.5,289.9 L 449.3,289.7 L 453.1,289.4 L 456.8,289.4 L 460.6,289.0 L 464.4,289.0 L 468.2,288.8 L 471.9,288.7 L 475.7,288.7 L 479.5,288.7 L 483.3,288.7 L 487.0,288.7 L 490.8,288.7 L 494.6,288.2 L 498.3,288.2 L 502.1,287.9 L 505.9,287.6 L 509.7,287.2 L 513.4,287.0 L 517.2,287.0 L 521.0,286.3 L 524.8,286.2 L 528.5,286.2 L 532.3,285.7 L 536.1,285.7 L 539.8,285.6 L 543.6,285.6 L 547.4,285.7 L 551.2,285.9 L 554.9,285.7 L 558.7,285.4 L 562.5,285.6 L 566.3,285.4 L 570.0,285.3 L 573.8,285.3 L 577.6,285.3 L 581.4,285.3 L 585.1,285.0 L 588.9,285.0 L 592.7,285.0 L 596.4,284.4 L 600.2,284.4 L 604.0,284.4 L 607.8,284.4 L 611.5,284.4 L 615.3,284.4 L 619.1,284.1 L 622.9,284.1 L 626.6,283.8 L 630.4,283.2 L 634.2,283.1 L 637.9,283.1 L 641.7,283.1 L 645.5,283.1 L 649.3,282.8 L 653.0,282.6 L 656.8,282.6 L 660.6,282.5 L 664.4,282.0 L 668.1,281.7 L 671.9,281.7 L 675.7,281.6 L 679.4,281.6 L 683.2,281.4 L 687.0,281.3 L 690.8,281.3 L 694.5,281.1 L 698.3,281.1 L 702.1,280.9 L 705.9,280.4 L 709.6,280.4 L 713.4,280.3 L 717.2,280.4 L 721.0,280.3 L 724.7,280.3 L 728.5,280.1 L 732.3,280.1 L 736.0,280.0 L 739.8,279.5 L 743.6,279.5 L 747.4,279.5 L 751.1,278.6 L 754.9,278.8 L 758.7,278.3 L 762.5,278.3 L 766.2,278.3 L 770.0,278.3" fill="none" stroke="#34C759" stroke-width="2.5" stroke-linejoin="round" clip-path="url(#ca)"/>
<text x="92.8" y="55.0" text-anchor="middle" font-size="9" fill="#4F8EF7" opacity="0.85" clip-path="url(#ca)">+0.5% (+8)</text>
<text x="92.8" y="66.0" text-anchor="middle" font-size="9" fill="#BF5AF2" opacity="0.85" clip-path="url(#ca)">+1.0% (+10)</text>
<text x="92.8" y="77.0" text-anchor="middle" font-size="9" fill="#34C759" opacity="0.85" clip-path="url(#ca)">+1.5% (+11)</text>
<text x="164.4" y="55.0" text-anchor="middle" font-size="9" fill="#4F8EF7" opacity="0.85" clip-path="url(#ca)">+4.0% (+65)</text>
<text x="164.4" y="66.0" text-anchor="middle" font-size="9" fill="#BF5AF2" opacity="0.85" clip-path="url(#ca)">+3.5% (+35)</text>
<text x="164.4" y="77.0" text-anchor="middle" font-size="9" fill="#34C759" opacity="0.85" clip-path="url(#ca)">+3.6% (+27)</text>
<text x="264.4" y="55.0" text-anchor="middle" font-size="9" fill="#4F8EF7" opacity="0.85" clip-path="url(#ca)">+4.1% (+70)</text>
<text x="264.4" y="66.0" text-anchor="middle" font-size="9" fill="#BF5AF2" opacity="0.85" clip-path="url(#ca)">+3.5% (+36)</text>
<text x="264.4" y="77.0" text-anchor="middle" font-size="9" fill="#34C759" opacity="0.85" clip-path="url(#ca)">+3.3% (+26)</text>
<text x="366.3" y="55.0" text-anchor="middle" font-size="9" fill="#4F8EF7" opacity="0.85" clip-path="url(#ca)">+3.5% (+61)</text>
<text x="366.3" y="66.0" text-anchor="middle" font-size="9" fill="#BF5AF2" opacity="0.85" clip-path="url(#ca)">+2.7% (+29)</text>
<text x="366.3" y="77.0" text-anchor="middle" font-size="9" fill="#34C759" opacity="0.85" clip-path="url(#ca)">+2.6% (+21)</text>
<text x="468.2" y="55.0" text-anchor="middle" font-size="9" fill="#4F8EF7" opacity="0.85" clip-path="url(#ca)">+2.7% (+49)</text>
<text x="468.2" y="66.0" text-anchor="middle" font-size="9" fill="#BF5AF2" opacity="0.85" clip-path="url(#ca)">+3.0% (+33)</text>
<text x="468.2" y="77.0" text-anchor="middle" font-size="9" fill="#34C759" opacity="0.85" clip-path="url(#ca)">+3.2% (+27)</text>
<text x="568.1" y="55.0" text-anchor="middle" font-size="9" fill="#4F8EF7" opacity="0.85" clip-path="url(#ca)">+2.9% (+54)</text>
<text x="568.1" y="66.0" text-anchor="middle" font-size="9" fill="#BF5AF2" opacity="0.85" clip-path="url(#ca)">+1.9% (+22)</text>
<text x="568.1" y="77.0" text-anchor="middle" font-size="9" fill="#34C759" opacity="0.85" clip-path="url(#ca)">+1.5% (+13)</text>
<text x="662.5" y="55.0" text-anchor="middle" font-size="9" fill="#4F8EF7" opacity="0.85" clip-path="url(#ca)">+2.7% (+52)</text>
<text x="662.5" y="66.0" text-anchor="middle" font-size="9" fill="#BF5AF2" opacity="0.85" clip-path="url(#ca)">+2.8% (+33)</text>
<text x="662.5" y="77.0" text-anchor="middle" font-size="9" fill="#34C759" opacity="0.85" clip-path="url(#ca)">+2.8% (+25)</text>
<text x="739.8" y="55.0" text-anchor="middle" font-size="9" fill="#4F8EF7" opacity="0.85" clip-path="url(#ca)">+1.6% (+32)</text>
<text x="739.8" y="66.0" text-anchor="middle" font-size="9" fill="#BF5AF2" opacity="0.85" clip-path="url(#ca)">+1.8% (+22)</text>
<text x="739.8" y="77.0" text-anchor="middle" font-size="9" fill="#34C759" opacity="0.85" clip-path="url(#ca)">+1.5% (+14)</text>
<rect x="211" y="369" width="12" height="12" fill="#4F8EF7" rx="2"/>
<text x="227" y="379" font-size="12" fill="#111827">Authors</text>
<rect x="351" y="369" width="12" height="12" fill="#BF5AF2" rx="2"/>
<text x="367" y="379" font-size="12" fill="#111827">Contributors</text>
<rect x="491" y="369" width="12" height="12" fill="#34C759" rx="2"/>
<text x="507" y="379" font-size="12" fill="#111827">Non-author contributors</text>
<text x="72" y="394" font-size="8" fill="#e5e7eb">data since Dec 11, 2025</text>
</svg>