<svg xmlns="http://www.w3.org/2000/svg" width="800" height="400" viewBox="0 0 800 400">
<defs>
  <style>text { font-family: -apple-system, BlinkMacSystemFont, 'Segoe UI', Roboto, sans-serif; }</style>
  <linearGradient id="g1" x1="0" y1="0" x2="0" y2="1">
  <stop offset="0%" stop-color="#FF6363" stop-opacity="0.25"/>
  <stop offset="100%" stop-color="#FF6363" stop-opacity="0"/>
</linearGradient>
  <clipPath id="ca"><rect x="72" y="45" width="698" height="295"/></clipPath>
</defs>
<rect width="800" height="400" fill="#ffffff" rx="12"/>
<text x="400" y="26" text-anchor="middle" font-size="15" font-weight="600" fill="#111827">Packages Growth Over Time</text>
<line x1="72" y1="340.0" x2="770" y2="340.0" stroke="#f3f4f6" stroke-width="1"/>
<text x="66" y="344.0" text-anchor="end" font-size="11" fill="#6b7280">2.4k</text>
<line x1="72" y1="290.8" x2="770" y2="290.8" stroke="#f3f4f6" stroke-width="1"/>
<text x="66" y="294.8" text-anchor="end" font-size="11" fill="#6b7280">2.5k</text>
<line x1="72" y1="241.7" x2="770" y2="241.7" stroke="#f3f4f6" stroke-width="1"/>
<text x="66" y="245.7" text-anchor="end" font-size="11" fill="#6b7280">2.6k</text>
<line x1="72" y1="192.5" x2="770" y2="192.5" stroke="#f3f4f6" stroke-width="1"/>
<text x="66" y="196.5" text-anchor="end" font-size="11" fill="#6b7280">2.7k</text>
<line x1="72" y1="143.3" x2="770" y2="143.3" stroke="#f3f4f6" stroke-width="1"/>
<text x="66" y="147.3" text-anchor="end" font-size="11" fill="#6b7280">2.8k</text>
<line x1="72" y1="94.2" x2="770" y2="94.2" stroke="#f3f4f6" stroke-width="1"/>
<text x="66" y="98.2" text-anchor="end" font-size="11" fill="#6b7280">2.9k</text>
<line x1="72" y1="45.0" x2="770" y2="45.0" stroke="#f3f4f6" stroke-width="1"/>
<text x="66" y="49.0" text-anchor="end" font-size="11" fill="#6b7280">3.0k</text>
<line x1="135.5" y1="45" x2="135.5" y2="340" stroke="#e5e7eb" stroke-width="1" stroke-dasharray="3,3" clip-path="url(#ca)"/>
<line x1="272.9" y1="45" x2="272.9" y2="340" stroke="#e5e7eb" stroke-width="1" stroke-dasharray="3,3" clip-path="url(#ca)"/>
<line x1="415.7" y1="45" x2="415.7" y2="340" stroke="#e5e7eb" stroke-width="1" stroke-dasharray="3,3" clip-path="url(#ca)"/>
<line x1="558.5" y1="45" x2="558.5" y2="340" stroke="#e5e7eb" stroke-width="1" stroke-dasharray="3,3" clip-path="url(#ca)"/>
<line x1="701.3" y1="45" x2="701.3" y2="340" stroke="#e5e7eb" stroke-width="1" stroke-dasharray="3,3" clip-path="url(#ca)"/>
<text x="72.0" y="358.0" text-anchor="middle" font-size="11" fill="#6b7280">Dec 11</text>
<text x="209.5" y="358.0" text-anchor="middle" font-size="11" fill="#6b7280">Jan 20</text>
<text x="352.3" y="358.0" text-anchor="middle" font-size="11" fill="#6b7280">Feb 16</text>
<text x="489.7" y="358.0" text-anchor="middle" font-size="11" fill="#6b7280">Mar 16</text>
<text x="632.5" y="358.0" text-anchor="middle" font-size="11" fill="#6b7280">Apr 16</text>
<text x="770.0" y="358.0" text-anchor="middle" font-size="11" fill="#6b7280">May 19</text>
<line x1="72" y1="45" x2="72" y2="340" stroke="#e5e7eb" stroke-width="1"/>
<line x1="72" y1="340" x2="770" y2="340" stroke="#e5e7eb" stroke-width="1"/>
<text x="-192.5" y="18" text-anchor="middle" font-size="12" fill="#6b7280" transform="rotate(-90)">Extensions</text>
<path d="M 72.0,340 L 72.0,302.1 L 77.3,301.6 L 82.6,301.6 L 87.9,300.2 L 93.2,300.2 L 98.4,299.2 L 103.7,298.2 L 109.0,297.7 L 114.3,295.3 L 119.6,293.3 L 124.9,293.3 L 130.2,293.3 L 135.5,293.3 L 140.7,292.3 L 146.0,292.3 L 151.3,292.3 L 156.6,291.3 L 161.9,289.4 L 167.2,285.9 L 172.5,283.5 L 177.8,282.5 L 183.0,282.0 L 188.3,280.0 L 193.6,274.1 L 198.9,272.1 L 204.2,272.1 L 209.5,267.2 L 214.8,265.8 L 220.1,263.8 L 225.3,262.3 L 230.6,259.4 L 235.9,256.9 L 241.2,256.4 L 246.5,252.5 L 251.8,249.0 L 257.1,249.0 L 262.4,246.6 L 267.7,244.6 L 272.9,244.1 L 278.2,243.6 L 283.5,243.1 L 288.8,241.7 L 294.1,232.8 L 299.4,228.9 L 304.7,226.9 L 310.0,225.9 L 315.2,224.5 L 320.5,221.0 L 325.8,220.0 L 331.1,219.1 L 336.4,216.1 L 341.7,215.1 L 347.0,214.1 L 352.3,214.1 L 357.5,205.3 L 362.8,204.3 L 368.1,203.3 L 373.4,201.3 L 378.7,198.9 L 384.0,198.9 L 389.3,195.0 L 394.6,188.6 L 399.8,187.6 L 405.1,188.1 L 410.4,186.6 L 415.7,186.1 L 421.0,186.1 L 426.3,183.2 L 431.6,180.7 L 436.9,178.7 L 442.2,176.3 L 447.4,175.8 L 452.7,175.8 L 458.0,172.3 L 463.3,171.4 L 468.6,170.9 L 473.9,165.0 L 479.2,164.5 L 484.5,164.5 L 489.7,164.5 L 495.0,164.0 L 500.3,161.5 L 505.6,159.6 L 510.9,157.1 L 516.2,156.6 L 521.5,155.1 L 526.8,150.7 L 532.0,146.8 L 537.3,146.3 L 542.6,145.8 L 547.9,144.3 L 553.2,139.4 L 558.5,138.4 L 563.8,136.9 L 569.1,134.0 L 574.3,133.5 L 579.6,133.0 L 584.9,133.0 L 590.2,132.0 L 595.5,129.1 L 600.8,128.1 L 606.1,127.1 L 611.4,126.6 L 616.7,125.6 L 621.9,120.7 L 627.2,120.2 L 632.5,119.2 L 637.8,118.8 L 643.1,116.3 L 648.4,115.8 L 653.7,115.3 L 659.0,113.8 L 664.2,111.9 L 669.5,111.9 L 674.8,111.9 L 680.1,111.9 L 685.4,110.9 L 690.7,108.4 L 696.0,107.9 L 701.3,105.5 L 706.5,105.0 L 711.8,104.5 L 717.1,101.5 L 722.4,98.6 L 727.7,98.1 L 733.0,97.6 L 738.3,91.2 L 743.6,89.3 L 748.8,87.8 L 754.1,87.3 L 759.4,83.8 L 764.7,83.8 L 770.0,81.4 L 770.0,340 Z" fill="url(#g1)" clip-path="url(#ca)"/>
<path d="M 72.0,302.1 L 77.3,301.6 L 82.6,301.6 L 87.9,300.2 L 93.2,300.2 L 98.4,299.2 L 103.7,298.2 L 109.0,297.7 L 114.3,295.3 L 119.6,293.3 L 124.9,293.3 L 130.2,293.3 L 135.5,293.3 L 140.7,292.3 L 146.0,292.3 L 151.3,292.3 L 156.6,291.3 L 161.9,289.4 L 167.2,285.9 L 172.5,283.5 L 177.8,282.5 L 183.0,282.0 L 188.3,280.0 L 193.6,274.1 L 198.9,272.1 L 204.2,272.1 L 209.5,267.2 L 214.8,265.8 L 220.1,263.8 L 225.3,262.3 L 230.6,259.4 L 235.9,256.9 L 241.2,256.4 L 246.5,252.5 L 251.8,249.0 L 257.1,249.0 L 262.4,246.6 L 267.7,244.6 L 272.9,244.1 L 278.2,243.6 L 283.5,243.1 L 288.8,241.7 L 294.1,232.8 L 299.4,228.9 L 304.7,226.9 L 310.0,225.9 L 315.2,224.5 L 320.5,221.0 L 325.8,220.0 L 331.1,219.1 L 336.4,216.1 L 341.7,215.1 L 347.0,214.1 L 352.3,214.1 L 357.5,205.3 L 362.8,204.3 L 368.1,203.3 L 373.4,201.3 L 378.7,198.9 L 384.0,198.9 L 389.3,195.0 L 394.6,188.6 L 399.8,187.6 L 405.1,188.1 L 410.4,186.6 L 415.7,186.1 L 421.0,186.1 L 426.3,183.2 L 431.6,180.7 L 436.9,178.7 L 442.2,176.3 L 447.4,175.8 L 452.7,175.8 L 458.0,172.3 L 463.3,171.4 L 468.6,170.9 L 473.9,165.0 L 479.2,164.5 L 484.5,164.5 L 489.7,164.5 L 495.0,164.0 L 500.3,161.5 L 505.6,159.6 L 510.9,157.1 L 516.2,156.6 L 521.5,155.1 L 526.8,150.7 L 532.0,146.8 L 537.3,146.3 L 542.6,145.8 L 547.9,144.3 L 553.2,139.4 L 558.5,138.4 L 563.8,136.9 L 569.1,134.0 L 574.3,133.5 L 579.6,133.0 L 584.9,133.0 L 590.2,132.0 L 595.5,129.1 L 600.8,128.1 L 606.1,127.1 L 611.4,126.6 L 616.7,125.6 L 621.9,120.7 L 627.2,120.2 L 632.5,119.2 L 637.8,118.8 L 643.1,116.3 L 648.4,115.8 L 653.7,115.3 L 659.0,113.8 L 664.2,111.9 L 669.5,111.9 L 674.8,111.9 L 680.1,111.9 L 685.4,110.9 L 690.7,108.4 L 696.0,107.9 L 701.3,105.5 L 706.5,105.0 L 711.8,104.5 L 717.1,101.5 L 722.4,98.6 L 727.7,98.1 L 733.0,97.6 L 738.3,91.2 L 743.6,89.3 L 748.8,87.8 L 754.1,87.3 L 759.4,83.8 L 764.7,83.8 L 770.0,81.4" fill="none" stroke="#FF6363" stroke-width="2.5" stroke-linejoin="round" clip-path="url(#ca)"/>
<text x="101.1" y="55.0" text-anchor="middle" font-size="9" fill="#FF6363" opacity="0.85" clip-path="url(#ca)">+0.7% (+18)</text>
<text x="201.6" y="55.0" text-anchor="middle" font-size="9" fill="#FF6363" opacity="0.85" clip-path="url(#ca)">+4.0% (+99)</text>
<text x="341.7" y="55.0" text-anchor="middle" font-size="9" fill="#FF6363" opacity="0.85" clip-path="url(#ca)">+4.5% (+117)</text>
<text x="484.5" y="55.0" text-anchor="middle" font-size="9" fill="#FF6363" opacity="0.85" clip-path="url(#ca)">+3.5% (+95)</text>
<text x="627.2" y="55.0" text-anchor="middle" font-size="9" fill="#FF6363" opacity="0.85" clip-path="url(#ca)">+2.2% (+62)</text>
<text x="735.6" y="55.0" text-anchor="middle" font-size="9" fill="#FF6363" opacity="0.85" clip-path="url(#ca)">+1.7% (+49)</text>
<rect x="351" y="369" width="12" height="12" fill="#FF6363" rx="2"/>
<text x="367" y="379" font-size="12" fill="#111827">Extensions</text>
<text x="72" y="394" font-size="8" fill="#e5e7eb">data since Dec 11, 2025</text>
</svg>