<svg xmlns="http://www.w3.org/2000/svg" width="800" height="400" viewBox="0 0 800 400">
<defs>
  <style>text { font-family: -apple-system, BlinkMacSystemFont, 'Segoe UI', Roboto, sans-serif; }</style>
  <linearGradient id="g1" x1="0" y1="0" x2="0" y2="1">
  <stop offset="0%" stop-color="#FF6363" stop-opacity="0.25"/>
  <stop offset="100%" stop-color="#FF6363" stop-opacity="0"/>
</linearGradient>
  <clipPath id="ca"><rect x="72" y="45" width="698" height="295"/></clipPath>
</defs>
<rect width="800" height="400" fill="#ffffff" rx="12"/>
<text x="400" y="26" text-anchor="middle" font-size="15" font-weight="600" fill="#111827">Packages Growth Over Time</text>
<line x1="72" y1="340.0" x2="770" y2="340.0" stroke="#f3f4f6" stroke-width="1"/>
<text x="66" y="344.0" text-anchor="end" font-size="11" fill="#6b7280">2.4k</text>
<line x1="72" y1="281.0" x2="770" y2="281.0" stroke="#f3f4f6" stroke-width="1"/>
<text x="66" y="285.0" text-anchor="end" font-size="11" fill="#6b7280">2.5k</text>
<line x1="72" y1="222.0" x2="770" y2="222.0" stroke="#f3f4f6" stroke-width="1"/>
<text x="66" y="226.0" text-anchor="end" font-size="11" fill="#6b7280">2.6k</text>
<line x1="72" y1="163.0" x2="770" y2="163.0" stroke="#f3f4f6" stroke-width="1"/>
<text x="66" y="167.0" text-anchor="end" font-size="11" fill="#6b7280">2.7k</text>
<line x1="72" y1="104.0" x2="770" y2="104.0" stroke="#f3f4f6" stroke-width="1"/>
<text x="66" y="108.0" text-anchor="end" font-size="11" fill="#6b7280">2.8k</text>
<line x1="72" y1="45.0" x2="770" y2="45.0" stroke="#f3f4f6" stroke-width="1"/>
<text x="66" y="49.0" text-anchor="end" font-size="11" fill="#6b7280">2.9k</text>
<line x1="149.6" y1="45" x2="149.6" y2="340" stroke="#e5e7eb" stroke-width="1" stroke-dasharray="3,3" clip-path="url(#ca)"/>
<line x1="317.6" y1="45" x2="317.6" y2="340" stroke="#e5e7eb" stroke-width="1" stroke-dasharray="3,3" clip-path="url(#ca)"/>
<line x1="492.1" y1="45" x2="492.1" y2="340" stroke="#e5e7eb" stroke-width="1" stroke-dasharray="3,3" clip-path="url(#ca)"/>
<line x1="666.6" y1="45" x2="666.6" y2="340" stroke="#e5e7eb" stroke-width="1" stroke-dasharray="3,3" clip-path="url(#ca)"/>
<text x="72.0" y="358.0" text-anchor="middle" font-size="11" fill="#6b7280">Dec 11</text>
<text x="214.2" y="358.0" text-anchor="middle" font-size="11" fill="#6b7280">Jan 15</text>
<text x="349.9" y="358.0" text-anchor="middle" font-size="11" fill="#6b7280">Feb 6</text>
<text x="492.1" y="358.0" text-anchor="middle" font-size="11" fill="#6b7280">Mar 1</text>
<text x="627.8" y="358.0" text-anchor="middle" font-size="11" fill="#6b7280">Mar 24</text>
<text x="770.0" y="358.0" text-anchor="middle" font-size="11" fill="#6b7280">Apr 18</text>
<line x1="72" y1="45" x2="72" y2="340" stroke="#e5e7eb" stroke-width="1"/>
<line x1="72" y1="340" x2="770" y2="340" stroke="#e5e7eb" stroke-width="1"/>
<text x="-192.5" y="18" text-anchor="middle" font-size="12" fill="#6b7280" transform="rotate(-90)">Extensions</text>
<path d="M 72.0,340 L 72.0,294.6 L 78.5,294.0 L 84.9,294.0 L 91.4,292.2 L 97.9,292.2 L 104.3,291.0 L 110.8,289.9 L 117.2,289.3 L 123.7,286.3 L 130.2,283.9 L 136.6,283.9 L 143.1,283.9 L 149.6,283.9 L 156.0,282.8 L 162.5,282.8 L 168.9,282.8 L 175.4,281.6 L 181.9,279.2 L 188.3,275.1 L 194.8,272.1 L 201.3,271.0 L 207.7,270.4 L 214.2,268.0 L 220.6,260.9 L 227.1,258.6 L 233.6,258.6 L 240.0,252.7 L 246.5,250.9 L 253.0,248.6 L 259.4,246.8 L 265.9,243.2 L 272.4,240.3 L 278.8,239.7 L 285.3,235.0 L 291.7,230.8 L 298.2,230.8 L 304.7,227.9 L 311.1,225.5 L 317.6,224.9 L 324.1,224.4 L 330.5,223.8 L 337.0,222.0 L 343.4,211.4 L 349.9,206.7 L 356.4,204.3 L 362.8,203.1 L 369.3,201.3 L 375.8,197.2 L 382.2,196.0 L 388.7,194.9 L 395.1,191.3 L 401.6,190.1 L 408.1,189.0 L 414.5,189.0 L 421.0,178.3 L 427.5,177.2 L 433.9,176.0 L 440.4,173.6 L 446.9,170.7 L 453.3,170.7 L 459.8,166.0 L 466.2,158.3 L 472.7,157.1 L 479.2,157.7 L 485.6,155.9 L 492.1,155.3 L 498.6,155.3 L 505.0,151.8 L 511.5,148.8 L 517.9,146.5 L 524.4,143.5 L 530.9,142.9 L 537.3,142.9 L 543.8,138.8 L 550.3,137.6 L 556.7,137.0 L 563.2,130.0 L 569.6,129.4 L 576.1,129.4 L 582.6,129.4 L 589.0,128.8 L 595.5,125.8 L 602.0,123.5 L 608.4,120.5 L 614.9,119.9 L 621.4,118.2 L 627.8,112.8 L 634.3,108.1 L 640.7,107.5 L 647.2,106.9 L 653.7,105.2 L 660.1,99.3 L 666.6,98.1 L 673.1,96.3 L 679.5,92.8 L 686.0,92.2 L 692.4,91.6 L 698.9,91.6 L 705.4,90.4 L 711.8,86.9 L 718.3,85.7 L 724.8,84.5 L 731.2,83.9 L 737.7,82.8 L 744.1,76.9 L 750.6,76.3 L 757.1,75.1 L 763.5,74.5 L 770.0,71.6 L 770.0,340 Z" fill="url(#g1)" clip-path="url(#ca)"/>
<path d="M 72.0,294.6 L 78.5,294.0 L 84.9,294.0 L 91.4,292.2 L 97.9,292.2 L 104.3,291.0 L 110.8,289.9 L 117.2,289.3 L 123.7,286.3 L 130.2,283.9 L 136.6,283.9 L 143.1,283.9 L 149.6,283.9 L 156.0,282.8 L 162.5,282.8 L 168.9,282.8 L 175.4,281.6 L 181.9,279.2 L 188.3,275.1 L 194.8,272.1 L 201.3,271.0 L 207.7,270.4 L 214.2,268.0 L 220.6,260.9 L 227.1,258.6 L 233.6,258.6 L 240.0,252.7 L 246.5,250.9 L 253.0,248.6 L 259.4,246.8 L 265.9,243.2 L 272.4,240.3 L 278.8,239.7 L 285.3,235.0 L 291.7,230.8 L 298.2,230.8 L 304.7,227.9 L 311.1,225.5 L 317.6,224.9 L 324.1,224.4 L 330.5,223.8 L 337.0,222.0 L 343.4,211.4 L 349.9,206.7 L 356.4,204.3 L 362.8,203.1 L 369.3,201.3 L 375.8,197.2 L 382.2,196.0 L 388.7,194.9 L 395.1,191.3 L 401.6,190.1 L 408.1,189.0 L 414.5,189.0 L 421.0,178.3 L 427.5,177.2 L 433.9,176.0 L 440.4,173.6 L 446.9,170.7 L 453.3,170.7 L 459.8,166.0 L 466.2,158.3 L 472.7,157.1 L 479.2,157.7 L 485.6,155.9 L 492.1,155.3 L 498.6,155.3 L 505.0,151.8 L 511.5,148.8 L 517.9,146.5 L 524.4,143.5 L 530.9,142.9 L 537.3,142.9 L 543.8,138.8 L 550.3,137.6 L 556.7,137.0 L 563.2,130.0 L 569.6,129.4 L 576.1,129.4 L 582.6,129.4 L 589.0,128.8 L 595.5,125.8 L 602.0,123.5 L 608.4,120.5 L 614.9,119.9 L 621.4,118.2 L 627.8,112.8 L 634.3,108.1 L 640.7,107.5 L 647.2,106.9 L 653.7,105.2 L 660.1,99.3 L 666.6,98.1 L 673.1,96.3 L 679.5,92.8 L 686.0,92.2 L 692.4,91.6 L 698.9,91.6 L 705.4,90.4 L 711.8,86.9 L 718.3,85.7 L 724.8,84.5 L 731.2,83.9 L 737.7,82.8 L 744.1,76.9 L 750.6,76.3 L 757.1,75.1 L 763.5,74.5 L 770.0,71.6" fill="none" stroke="#FF6363" stroke-width="2.5" stroke-linejoin="round" clip-path="url(#ca)"/>
<text x="107.5" y="55.0" text-anchor="middle" font-size="9" fill="#FF6363" opacity="0.85" clip-path="url(#ca)">+0.7% (+18)</text>
<text x="230.3" y="55.0" text-anchor="middle" font-size="9" fill="#FF6363" opacity="0.85" clip-path="url(#ca)">+4.0% (+99)</text>
<text x="401.6" y="55.0" text-anchor="middle" font-size="9" fill="#FF6363" opacity="0.85" clip-path="url(#ca)">+4.5% (+117)</text>
<text x="576.1" y="55.0" text-anchor="middle" font-size="9" fill="#FF6363" opacity="0.85" clip-path="url(#ca)">+3.5% (+95)</text>
<text x="718.3" y="55.0" text-anchor="middle" font-size="9" fill="#FF6363" opacity="0.85" clip-path="url(#ca)">+1.6% (+45)</text>
<rect x="351" y="369" width="12" height="12" fill="#FF6363" rx="2"/>
<text x="367" y="379" font-size="12" fill="#111827">Extensions</text>
<text x="72" y="394" font-size="8" fill="#e5e7eb">data since Dec 11, 2025</text>
</svg>