<svg xmlns="http://www.w3.org/2000/svg" width="800" height="400" viewBox="0 0 800 400">
<defs>
  <style>text { font-family: -apple-system, BlinkMacSystemFont, 'Segoe UI', Roboto, sans-serif; }</style>
  <linearGradient id="g5" x1="0" y1="0" x2="0" y2="1">
  <stop offset="0%" stop-color="#34C759" stop-opacity="0.25"/>
  <stop offset="100%" stop-color="#34C759" stop-opacity="0"/>
</linearGradient>
<linearGradient id="g6" x1="0" y1="0" x2="0" y2="1">
  <stop offset="0%" stop-color="#4F8EF7" stop-opacity="0.25"/>
  <stop offset="100%" stop-color="#4F8EF7" stop-opacity="0"/>
</linearGradient>
<linearGradient id="g7" x1="0" y1="0" x2="0" y2="1">
  <stop offset="0%" stop-color="#FF6363" stop-opacity="0.25"/>
  <stop offset="100%" stop-color="#FF6363" stop-opacity="0"/>
</linearGradient>
  <clipPath id="ca"><rect x="72" y="45" width="698" height="295"/></clipPath>
</defs>
<rect width="800" height="400" fill="#ffffff" rx="12"/>
<text x="400" y="26" text-anchor="middle" font-size="15" font-weight="600" fill="#111827">Platform Support Over Time</text>
<line x1="72" y1="340.0" x2="770" y2="340.0" stroke="#f3f4f6" stroke-width="1"/>
<text x="66" y="344.0" text-anchor="end" font-size="11" fill="#6b7280">0</text>
<line x1="72" y1="281.0" x2="770" y2="281.0" stroke="#f3f4f6" stroke-width="1"/>
<text x="66" y="285.0" text-anchor="end" font-size="11" fill="#6b7280">200</text>
<line x1="72" y1="222.0" x2="770" y2="222.0" stroke="#f3f4f6" stroke-width="1"/>
<text x="66" y="226.0" text-anchor="end" font-size="11" fill="#6b7280">400</text>
<line x1="72" y1="163.0" x2="770" y2="163.0" stroke="#f3f4f6" stroke-width="1"/>
<text x="66" y="167.0" text-anchor="end" font-size="11" fill="#6b7280">600</text>
<line x1="72" y1="104.0" x2="770" y2="104.0" stroke="#f3f4f6" stroke-width="1"/>
<text x="66" y="108.0" text-anchor="end" font-size="11" fill="#6b7280">800</text>
<line x1="72" y1="45.0" x2="770" y2="45.0" stroke="#f3f4f6" stroke-width="1"/>
<text x="66" y="49.0" text-anchor="end" font-size="11" fill="#6b7280">1.0k</text>
<line x1="127.1" y1="45" x2="127.1" y2="340" stroke="#e5e7eb" stroke-width="1" stroke-dasharray="3,3" clip-path="url(#ca)"/>
<line x1="246.5" y1="45" x2="246.5" y2="340" stroke="#e5e7eb" stroke-width="1" stroke-dasharray="3,3" clip-path="url(#ca)"/>
<line x1="370.5" y1="45" x2="370.5" y2="340" stroke="#e5e7eb" stroke-width="1" stroke-dasharray="3,3" clip-path="url(#ca)"/>
<line x1="494.5" y1="45" x2="494.5" y2="340" stroke="#e5e7eb" stroke-width="1" stroke-dasharray="3,3" clip-path="url(#ca)"/>
<line x1="618.5" y1="45" x2="618.5" y2="340" stroke="#e5e7eb" stroke-width="1" stroke-dasharray="3,3" clip-path="url(#ca)"/>
<line x1="737.9" y1="45" x2="737.9" y2="340" stroke="#e5e7eb" stroke-width="1" stroke-dasharray="3,3" clip-path="url(#ca)"/>
<text x="72.0" y="358.0" text-anchor="middle" font-size="11" fill="#6b7280">Dec 11</text>
<text x="209.8" y="358.0" text-anchor="middle" font-size="11" fill="#6b7280">Jan 24</text>
<text x="352.1" y="358.0" text-anchor="middle" font-size="11" fill="#6b7280">Feb 25</text>
<text x="489.9" y="358.0" text-anchor="middle" font-size="11" fill="#6b7280">Mar 31</text>
<text x="632.2" y="358.0" text-anchor="middle" font-size="11" fill="#6b7280">May 6</text>
<text x="770.0" y="358.0" text-anchor="middle" font-size="11" fill="#6b7280">Jun 10</text>
<line x1="72" y1="45" x2="72" y2="340" stroke="#e5e7eb" stroke-width="1"/>
<line x1="72" y1="340" x2="770" y2="340" stroke="#e5e7eb" stroke-width="1"/>
<text x="-192.5" y="18" text-anchor="middle" font-size="12" fill="#6b7280" transform="rotate(-90)">Extensions</text>
<path d="M 72.0,340 L 72.0,242.6 L 76.6,240.0 L 81.2,239.7 L 85.8,238.5 L 90.4,237.9 L 95.0,235.0 L 99.6,233.2 L 104.1,232.3 L 108.7,230.8 L 113.3,229.1 L 117.9,228.2 L 122.5,227.9 L 127.1,227.0 L 131.7,226.4 L 136.3,226.1 L 140.9,225.2 L 145.5,224.4 L 150.1,223.5 L 154.7,222.6 L 159.3,221.4 L 163.8,220.5 L 168.4,219.6 L 173.0,218.8 L 177.6,217.0 L 182.2,216.4 L 186.8,216.4 L 191.4,214.3 L 196.0,213.7 L 200.6,213.2 L 205.2,212.6 L 209.8,211.1 L 214.4,209.0 L 218.9,208.7 L 223.5,208.4 L 228.1,206.7 L 232.7,206.1 L 237.3,204.6 L 241.9,204.3 L 246.5,204.0 L 251.1,203.4 L 255.7,203.4 L 260.3,203.4 L 264.9,199.3 L 269.5,199.0 L 274.1,198.1 L 278.6,197.8 L 283.2,197.5 L 287.8,196.6 L 292.4,196.0 L 297.0,195.4 L 301.6,193.7 L 306.2,193.7 L 310.8,193.7 L 315.4,193.4 L 320.0,190.4 L 324.6,189.6 L 329.2,189.0 L 333.8,188.1 L 338.3,187.5 L 342.9,187.5 L 347.5,186.0 L 352.1,183.9 L 356.7,183.4 L 361.3,183.1 L 365.9,182.2 L 370.5,182.2 L 375.1,181.6 L 379.7,180.7 L 384.3,180.1 L 388.9,178.9 L 393.4,177.8 L 398.0,177.5 L 402.6,177.5 L 407.2,176.3 L 411.8,176.3 L 416.4,176.3 L 421.0,174.5 L 425.6,174.2 L 430.2,173.9 L 434.8,173.9 L 439.4,173.6 L 444.0,172.4 L 448.6,171.9 L 453.1,171.0 L 457.7,171.0 L 462.3,170.7 L 466.9,169.5 L 471.5,168.6 L 476.1,168.6 L 480.7,168.3 L 485.3,167.7 L 489.9,165.7 L 494.5,165.1 L 499.1,164.2 L 503.7,164.2 L 508.3,163.6 L 512.8,163.3 L 517.4,163.0 L 522.0,162.7 L 526.6,162.4 L 531.2,162.4 L 535.8,162.1 L 540.4,161.8 L 545.0,160.9 L 549.6,159.8 L 554.2,159.5 L 558.8,158.6 L 563.4,158.6 L 567.9,157.4 L 572.5,157.1 L 577.1,157.1 L 581.7,157.1 L 586.3,156.2 L 590.9,155.9 L 595.5,155.9 L 600.1,155.9 L 604.7,155.6 L 609.3,154.4 L 613.9,154.2 L 618.5,153.3 L 623.1,152.7 L 627.6,152.7 L 632.2,151.8 L 636.8,151.2 L 641.4,151.2 L 646.0,150.9 L 650.6,149.4 L 655.2,148.0 L 659.8,147.7 L 664.4,147.1 L 669.0,145.9 L 673.6,145.9 L 678.2,145.3 L 682.8,143.8 L 687.3,141.2 L 691.9,140.3 L 696.5,140.3 L 701.1,140.3 L 705.7,140.3 L 710.3,140.3 L 714.9,139.1 L 719.5,138.2 L 724.1,138.2 L 728.7,138.2 L 733.3,138.2 L 737.9,137.3 L 742.4,137.3 L 747.0,136.5 L 751.6,135.6 L 756.2,135.3 L 760.8,135.0 L 765.4,134.4 L 770.0,134.4 L 770.0,340 Z" fill="url(#g5)" clip-path="url(#ca)"/>
<path d="M 72.0,242.6 L 76.6,240.0 L 81.2,239.7 L 85.8,238.5 L 90.4,237.9 L 95.0,235.0 L 99.6,233.2 L 104.1,232.3 L 108.7,230.8 L 113.3,229.1 L 117.9,228.2 L 122.5,227.9 L 127.1,227.0 L 131.7,226.4 L 136.3,226.1 L 140.9,225.2 L 145.5,224.4 L 150.1,223.5 L 154.7,222.6 L 159.3,221.4 L 163.8,220.5 L 168.4,219.6 L 173.0,218.8 L 177.6,217.0 L 182.2,216.4 L 186.8,216.4 L 191.4,214.3 L 196.0,213.7 L 200.6,213.2 L 205.2,212.6 L 209.8,211.1 L 214.4,209.0 L 218.9,208.7 L 223.5,208.4 L 228.1,206.7 L 232.7,206.1 L 237.3,204.6 L 241.9,204.3 L 246.5,204.0 L 251.1,203.4 L 255.7,203.4 L 260.3,203.4 L 264.9,199.3 L 269.5,199.0 L 274.1,198.1 L 278.6,197.8 L 283.2,197.5 L 287.8,196.6 L 292.4,196.0 L 297.0,195.4 L 301.6,193.7 L 306.2,193.7 L 310.8,193.7 L 315.4,193.4 L 320.0,190.4 L 324.6,189.6 L 329.2,189.0 L 333.8,188.1 L 338.3,187.5 L 342.9,187.5 L 347.5,186.0 L 352.1,183.9 L 356.7,183.4 L 361.3,183.1 L 365.9,182.2 L 370.5,182.2 L 375.1,181.6 L 379.7,180.7 L 384.3,180.1 L 388.9,178.9 L 393.4,177.8 L 398.0,177.5 L 402.6,177.5 L 407.2,176.3 L 411.8,176.3 L 416.4,176.3 L 421.0,174.5 L 425.6,174.2 L 430.2,173.9 L 434.8,173.9 L 439.4,173.6 L 444.0,172.4 L 448.6,171.9 L 453.1,171.0 L 457.7,171.0 L 462.3,170.7 L 466.9,169.5 L 471.5,168.6 L 476.1,168.6 L 480.7,168.3 L 485.3,167.7 L 489.9,165.7 L 494.5,165.1 L 499.1,164.2 L 503.7,164.2 L 508.3,163.6 L 512.8,163.3 L 517.4,163.0 L 522.0,162.7 L 526.6,162.4 L 531.2,162.4 L 535.8,162.1 L 540.4,161.8 L 545.0,160.9 L 549.6,159.8 L 554.2,159.5 L 558.8,158.6 L 563.4,158.6 L 567.9,157.4 L 572.5,157.1 L 577.1,157.1 L 581.7,157.1 L 586.3,156.2 L 590.9,155.9 L 595.5,155.9 L 600.1,155.9 L 604.7,155.6 L 609.3,154.4 L 613.9,154.2 L 618.5,153.3 L 623.1,152.7 L 627.6,152.7 L 632.2,151.8 L 636.8,151.2 L 641.4,151.2 L 646.0,150.9 L 650.6,149.4 L 655.2,148.0 L 659.8,147.7 L 664.4,147.1 L 669.0,145.9 L 673.6,145.9 L 678.2,145.3 L 682.8,143.8 L 687.3,141.2 L 691.9,140.3 L 696.5,140.3 L 701.1,140.3 L 705.7,140.3 L 710.3,140.3 L 714.9,139.1 L 719.5,138.2 L 724.1,138.2 L 728.7,138.2 L 733.3,138.2 L 737.9,137.3 L 742.4,137.3 L 747.0,136.5 L 751.6,135.6 L 756.2,135.3 L 760.8,135.0 L 765.4,134.4 L 770.0,134.4" fill="none" stroke="#34C759" stroke-width="2.5" stroke-linejoin="round" clip-path="url(#ca)"/>
<path d="M 72.0,340 L 72.0,222.6 L 76.6,222.6 L 81.2,222.3 L 85.8,221.4 L 90.4,221.7 L 95.0,221.7 L 99.6,220.5 L 104.1,219.6 L 108.7,219.6 L 113.3,219.9 L 117.9,219.6 L 122.5,219.3 L 127.1,219.1 L 131.7,219.1 L 136.3,219.1 L 140.9,219.3 L 145.5,218.8 L 150.1,218.2 L 154.7,216.4 L 159.3,215.2 L 163.8,215.2 L 168.4,214.9 L 173.0,213.2 L 177.6,210.5 L 182.2,209.6 L 186.8,209.0 L 191.4,207.0 L 196.0,205.5 L 200.6,204.9 L 205.2,204.3 L 209.8,203.7 L 214.4,203.4 L 218.9,203.4 L 223.5,201.3 L 228.1,200.8 L 232.7,200.2 L 237.3,200.2 L 241.9,198.7 L 246.5,198.4 L 251.1,197.5 L 255.7,196.3 L 260.3,194.9 L 264.9,192.8 L 269.5,190.7 L 274.1,190.4 L 278.6,189.8 L 283.2,189.3 L 287.8,187.5 L 292.4,187.5 L 297.0,186.9 L 301.6,186.0 L 306.2,185.4 L 310.8,184.2 L 315.4,184.5 L 320.0,181.0 L 324.6,180.7 L 329.2,180.4 L 333.8,179.8 L 338.3,178.0 L 342.9,178.0 L 347.5,176.3 L 352.1,174.2 L 356.7,174.2 L 361.3,174.2 L 365.9,173.9 L 370.5,173.6 L 375.1,173.3 L 379.7,171.9 L 384.3,170.1 L 388.9,169.5 L 393.4,168.3 L 398.0,168.3 L 402.6,167.4 L 407.2,165.7 L 411.8,164.8 L 416.4,164.5 L 421.0,162.4 L 425.6,162.1 L 430.2,162.1 L 434.8,161.8 L 439.4,161.8 L 444.0,160.3 L 448.6,159.8 L 453.1,158.9 L 457.7,158.6 L 462.3,158.0 L 466.9,155.6 L 471.5,152.4 L 476.1,152.1 L 480.7,151.5 L 485.3,151.2 L 489.9,149.7 L 494.5,118.5 L 499.1,117.9 L 503.7,116.4 L 508.3,116.4 L 512.8,116.4 L 517.4,116.7 L 522.0,116.4 L 526.6,114.6 L 531.2,114.0 L 535.8,113.7 L 540.4,113.4 L 545.0,112.3 L 549.6,110.5 L 554.2,110.5 L 558.8,110.5 L 563.4,110.2 L 567.9,109.9 L 572.5,109.9 L 577.1,109.3 L 581.7,108.4 L 586.3,106.9 L 590.9,106.4 L 595.5,106.1 L 600.1,106.1 L 604.7,105.8 L 609.3,105.2 L 613.9,104.9 L 618.5,103.4 L 623.1,103.4 L 627.6,102.8 L 632.2,101.6 L 636.8,100.2 L 641.4,99.9 L 646.0,99.6 L 650.6,96.9 L 655.2,96.3 L 659.8,95.7 L 664.4,95.7 L 669.0,94.6 L 673.6,94.0 L 678.2,92.5 L 682.8,91.9 L 687.3,91.0 L 691.9,90.7 L 696.5,89.5 L 701.1,88.7 L 705.7,88.4 L 710.3,87.8 L 714.9,86.6 L 719.5,86.0 L 724.1,85.1 L 728.7,84.5 L 733.3,84.2 L 737.9,83.6 L 742.4,82.8 L 747.0,82.2 L 751.6,81.6 L 756.2,80.7 L 760.8,80.7 L 765.4,80.1 L 770.0,78.6 L 770.0,340 Z" fill="url(#g6)" clip-path="url(#ca)"/>
<path d="M 72.0,222.6 L 76.6,222.6 L 81.2,222.3 L 85.8,221.4 L 90.4,221.7 L 95.0,221.7 L 99.6,220.5 L 104.1,219.6 L 108.7,219.6 L 113.3,219.9 L 117.9,219.6 L 122.5,219.3 L 127.1,219.1 L 131.7,219.1 L 136.3,219.1 L 140.9,219.3 L 145.5,218.8 L 150.1,218.2 L 154.7,216.4 L 159.3,215.2 L 163.8,215.2 L 168.4,214.9 L 173.0,213.2 L 177.6,210.5 L 182.2,209.6 L 186.8,209.0 L 191.4,207.0 L 196.0,205.5 L 200.6,204.9 L 205.2,204.3 L 209.8,203.7 L 214.4,203.4 L 218.9,203.4 L 223.5,201.3 L 228.1,200.8 L 232.7,200.2 L 237.3,200.2 L 241.9,198.7 L 246.5,198.4 L 251.1,197.5 L 255.7,196.3 L 260.3,194.9 L 264.9,192.8 L 269.5,190.7 L 274.1,190.4 L 278.6,189.8 L 283.2,189.3 L 287.8,187.5 L 292.4,187.5 L 297.0,186.9 L 301.6,186.0 L 306.2,185.4 L 310.8,184.2 L 315.4,184.5 L 320.0,181.0 L 324.6,180.7 L 329.2,180.4 L 333.8,179.8 L 338.3,178.0 L 342.9,178.0 L 347.5,176.3 L 352.1,174.2 L 356.7,174.2 L 361.3,174.2 L 365.9,173.9 L 370.5,173.6 L 375.1,173.3 L 379.7,171.9 L 384.3,170.1 L 388.9,169.5 L 393.4,168.3 L 398.0,168.3 L 402.6,167.4 L 407.2,165.7 L 411.8,164.8 L 416.4,164.5 L 421.0,162.4 L 425.6,162.1 L 430.2,162.1 L 434.8,161.8 L 439.4,161.8 L 444.0,160.3 L 448.6,159.8 L 453.1,158.9 L 457.7,158.6 L 462.3,158.0 L 466.9,155.6 L 471.5,152.4 L 476.1,152.1 L 480.7,151.5 L 485.3,151.2 L 489.9,149.7 L 494.5,118.5 L 499.1,117.9 L 503.7,116.4 L 508.3,116.4 L 512.8,116.4 L 517.4,116.7 L 522.0,116.4 L 526.6,114.6 L 531.2,114.0 L 535.8,113.7 L 540.4,113.4 L 545.0,112.3 L 549.6,110.5 L 554.2,110.5 L 558.8,110.5 L 563.4,110.2 L 567.9,109.9 L 572.5,109.9 L 577.1,109.3 L 581.7,108.4 L 586.3,106.9 L 590.9,106.4 L 595.5,106.1 L 600.1,106.1 L 604.7,105.8 L 609.3,105.2 L 613.9,104.9 L 618.5,103.4 L 623.1,103.4 L 627.6,102.8 L 632.2,101.6 L 636.8,100.2 L 641.4,99.9 L 646.0,99.6 L 650.6,96.9 L 655.2,96.3 L 659.8,95.7 L 664.4,95.7 L 669.0,94.6 L 673.6,94.0 L 678.2,92.5 L 682.8,91.9 L 687.3,91.0 L 691.9,90.7 L 696.5,89.5 L 701.1,88.7 L 705.7,88.4 L 710.3,87.8 L 714.9,86.6 L 719.5,86.0 L 724.1,85.1 L 728.7,84.5 L 733.3,84.2 L 737.9,83.6 L 742.4,82.8 L 747.0,82.2 L 751.6,81.6 L 756.2,80.7 L 760.8,80.7 L 765.4,80.1 L 770.0,78.6" fill="none" stroke="#4F8EF7" stroke-width="2.5" stroke-linejoin="round" clip-path="url(#ca)"/>
<path d="M 72.0,340 L 72.0,338.2 L 76.6,337.9 L 81.2,337.9 L 85.8,337.6 L 90.4,337.6 L 95.0,337.6 L 99.6,337.6 L 104.1,337.6 L 108.7,337.1 L 113.3,337.1 L 117.9,337.1 L 122.5,337.1 L 127.1,337.1 L 131.7,336.8 L 136.3,336.8 L 140.9,336.8 L 145.5,336.8 L 150.1,336.8 L 154.7,336.5 L 159.3,335.9 L 163.8,335.6 L 168.4,335.6 L 173.0,335.6 L 177.6,335.3 L 182.2,335.3 L 186.8,335.3 L 191.4,335.0 L 196.0,335.0 L 200.6,335.0 L 205.2,334.7 L 209.8,334.7 L 214.4,334.7 L 218.9,334.7 L 223.5,334.4 L 228.1,334.4 L 232.7,334.4 L 237.3,334.4 L 241.9,334.4 L 246.5,334.4 L 251.1,334.4 L 255.7,334.4 L 260.3,334.4 L 264.9,334.4 L 269.5,334.4 L 274.1,334.4 L 278.6,334.4 L 283.2,334.1 L 287.8,334.1 L 292.4,334.1 L 297.0,334.1 L 301.6,334.1 L 306.2,334.1 L 310.8,334.1 L 315.4,334.1 L 320.0,334.1 L 324.6,334.1 L 329.2,334.1 L 333.8,334.1 L 338.3,333.8 L 342.9,333.8 L 347.5,333.8 L 352.1,333.8 L 356.7,333.8 L 361.3,333.8 L 365.9,333.8 L 370.5,333.8 L 375.1,333.8 L 379.7,333.8 L 384.3,333.8 L 388.9,333.8 L 393.4,333.8 L 398.0,333.8 L 402.6,333.8 L 407.2,333.8 L 411.8,333.8 L 416.4,333.8 L 421.0,333.8 L 425.6,333.8 L 430.2,333.8 L 434.8,333.8 L 439.4,333.8 L 444.0,333.8 L 448.6,333.8 L 453.1,333.8 L 457.7,333.8 L 462.3,333.8 L 466.9,333.8 L 471.5,333.8 L 476.1,333.8 L 480.7,333.8 L 485.3,333.8 L 489.9,333.8 L 494.5,333.8 L 499.1,333.8 L 503.7,333.5 L 508.3,333.5 L 512.8,333.5 L 517.4,333.5 L 522.0,333.5 L 526.6,333.2 L 531.2,333.2 L 535.8,333.2 L 540.4,333.2 L 545.0,332.9 L 549.6,332.9 L 554.2,332.6 L 558.8,332.6 L 563.4,332.6 L 567.9,332.6 L 572.5,332.6 L 577.1,332.6 L 581.7,332.6 L 586.3,332.6 L 590.9,332.6 L 595.5,332.6 L 600.1,332.6 L 604.7,332.6 L 609.3,332.6 L 613.9,332.6 L 618.5,332.6 L 623.1,332.6 L 627.6,332.6 L 632.2,332.6 L 636.8,332.6 L 641.4,332.6 L 646.0,332.6 L 650.6,332.6 L 655.2,332.6 L 659.8,332.6 L 664.4,332.6 L 669.0,332.6 L 673.6,332.6 L 678.2,332.6 L 682.8,332.6 L 687.3,332.6 L 691.9,332.6 L 696.5,332.6 L 701.1,332.6 L 705.7,332.6 L 710.3,332.6 L 714.9,332.6 L 719.5,332.6 L 724.1,332.6 L 728.7,332.6 L 733.3,332.6 L 737.9,332.6 L 742.4,332.6 L 747.0,332.6 L 751.6,332.6 L 756.2,332.6 L 760.8,332.6 L 765.4,332.6 L 770.0,332.6 L 770.0,340 Z" fill="url(#g7)" clip-path="url(#ca)"/>
<path d="M 72.0,338.2 L 76.6,337.9 L 81.2,337.9 L 85.8,337.6 L 90.4,337.6 L 95.0,337.6 L 99.6,337.6 L 104.1,337.6 L 108.7,337.1 L 113.3,337.1 L 117.9,337.1 L 122.5,337.1 L 127.1,337.1 L 131.7,336.8 L 136.3,336.8 L 140.9,336.8 L 145.5,336.8 L 150.1,336.8 L 154.7,336.5 L 159.3,335.9 L 163.8,335.6 L 168.4,335.6 L 173.0,335.6 L 177.6,335.3 L 182.2,335.3 L 186.8,335.3 L 191.4,335.0 L 196.0,335.0 L 200.6,335.0 L 205.2,334.7 L 209.8,334.7 L 214.4,334.7 L 218.9,334.7 L 223.5,334.4 L 228.1,334.4 L 232.7,334.4 L 237.3,334.4 L 241.9,334.4 L 246.5,334.4 L 251.1,334.4 L 255.7,334.4 L 260.3,334.4 L 264.9,334.4 L 269.5,334.4 L 274.1,334.4 L 278.6,334.4 L 283.2,334.1 L 287.8,334.1 L 292.4,334.1 L 297.0,334.1 L 301.6,334.1 L 306.2,334.1 L 310.8,334.1 L 315.4,334.1 L 320.0,334.1 L 324.6,334.1 L 329.2,334.1 L 333.8,334.1 L 338.3,333.8 L 342.9,333.8 L 347.5,333.8 L 352.1,333.8 L 356.7,333.8 L 361.3,333.8 L 365.9,333.8 L 370.5,333.8 L 375.1,333.8 L 379.7,333.8 L 384.3,333.8 L 388.9,333.8 L 393.4,333.8 L 398.0,333.8 L 402.6,333.8 L 407.2,333.8 L 411.8,333.8 L 416.4,333.8 L 421.0,333.8 L 425.6,333.8 L 430.2,333.8 L 434.8,333.8 L 439.4,333.8 L 444.0,333.8 L 448.6,333.8 L 453.1,333.8 L 457.7,333.8 L 462.3,333.8 L 466.9,333.8 L 471.5,333.8 L 476.1,333.8 L 480.7,333.8 L 485.3,333.8 L 489.9,333.8 L 494.5,333.8 L 499.1,333.8 L 503.7,333.5 L 508.3,333.5 L 512.8,333.5 L 517.4,333.5 L 522.0,333.5 L 526.6,333.2 L 531.2,333.2 L 535.8,333.2 L 540.4,333.2 L 545.0,332.9 L 549.6,332.9 L 554.2,332.6 L 558.8,332.6 L 563.4,332.6 L 567.9,332.6 L 572.5,332.6 L 577.1,332.6 L 581.7,332.6 L 586.3,332.6 L 590.9,332.6 L 595.5,332.6 L 600.1,332.6 L 604.7,332.6 L 609.3,332.6 L 613.9,332.6 L 618.5,332.6 L 623.1,332.6 L 627.6,332.6 L 632.2,332.6 L 636.8,332.6 L 641.4,332.6 L 646.0,332.6 L 650.6,332.6 L 655.2,332.6 L 659.8,332.6 L 664.4,332.6 L 669.0,332.6 L 673.6,332.6 L 678.2,332.6 L 682.8,332.6 L 687.3,332.6 L 691.9,332.6 L 696.5,332.6 L 701.1,332.6 L 705.7,332.6 L 710.3,332.6 L 714.9,332.6 L 719.5,332.6 L 724.1,332.6 L 728.7,332.6 L 733.3,332.6 L 737.9,332.6 L 742.4,332.6 L 747.0,332.6 L 751.6,332.6 L 756.2,332.6 L 760.8,332.6 L 765.4,332.6 L 770.0,332.6" fill="none" stroke="#FF6363" stroke-width="2.5" stroke-linejoin="round" clip-path="url(#ca)"/>
<text x="97.3" y="55.0" text-anchor="middle" font-size="9" fill="#34C759" opacity="0.85" clip-path="url(#ca)">+15.2% (+50)</text>
<text x="97.3" y="66.0" text-anchor="middle" font-size="9" fill="#4F8EF7" opacity="0.85" clip-path="url(#ca)">+2.8% (+11)</text>
<text x="97.3" y="77.0" text-anchor="middle" font-size="9" fill="#FF6363" opacity="0.85" clip-path="url(#ca)">+66.7% (+4)</text>
<text x="184.5" y="55.0" text-anchor="middle" font-size="9" fill="#34C759" opacity="0.85" clip-path="url(#ca)">+20.1% (+77)</text>
<text x="184.5" y="66.0" text-anchor="middle" font-size="9" fill="#4F8EF7" opacity="0.85" clip-path="url(#ca)">+16.8% (+69)</text>
<text x="184.5" y="77.0" text-anchor="middle" font-size="9" fill="#FF6363" opacity="0.85" clip-path="url(#ca)">+90.0% (+9)</text>
<text x="306.2" y="55.0" text-anchor="middle" font-size="9" fill="#34C759" opacity="0.85" clip-path="url(#ca)">+16.1% (+74)</text>
<text x="306.2" y="66.0" text-anchor="middle" font-size="9" fill="#4F8EF7" opacity="0.85" clip-path="url(#ca)">+17.3% (+83)</text>
<text x="306.2" y="77.0" text-anchor="middle" font-size="9" fill="#FF6363" opacity="0.85" clip-path="url(#ca)">+10.5% (+2)</text>
<text x="430.2" y="55.0" text-anchor="middle" font-size="9" fill="#34C759" opacity="0.85" clip-path="url(#ca)">+10.5% (+56)</text>
<text x="430.2" y="66.0" text-anchor="middle" font-size="9" fill="#4F8EF7" opacity="0.85" clip-path="url(#ca)">+14.4% (+81)</text>
<text x="430.2" y="77.0" text-anchor="middle" font-size="9" fill="#FF6363" opacity="0.85" clip-path="url(#ca)">+0.0% (+0)</text>
<text x="554.2" y="55.0" text-anchor="middle" font-size="9" fill="#34C759" opacity="0.85" clip-path="url(#ca)">+6.2% (+37)</text>
<text x="554.2" y="66.0" text-anchor="middle" font-size="9" fill="#4F8EF7" opacity="0.85" clip-path="url(#ca)">+6.1% (+46)</text>
<text x="554.2" y="77.0" text-anchor="middle" font-size="9" fill="#FF6363" opacity="0.85" clip-path="url(#ca)">+19.0% (+4)</text>
<text x="675.9" y="55.0" text-anchor="middle" font-size="9" fill="#34C759" opacity="0.85" clip-path="url(#ca)">+8.1% (+51)</text>
<text x="675.9" y="66.0" text-anchor="middle" font-size="9" fill="#4F8EF7" opacity="0.85" clip-path="url(#ca)">+8.1% (+65)</text>
<text x="675.9" y="77.0" text-anchor="middle" font-size="9" fill="#FF6363" opacity="0.85" clip-path="url(#ca)">+0.0% (+0)</text>
<text x="753.9" y="55.0" text-anchor="middle" font-size="9" fill="#34C759" opacity="0.85" clip-path="url(#ca)">+1.5% (+10)</text>
<text x="753.9" y="66.0" text-anchor="middle" font-size="9" fill="#4F8EF7" opacity="0.85" clip-path="url(#ca)">+2.0% (+17)</text>
<text x="753.9" y="77.0" text-anchor="middle" font-size="9" fill="#FF6363" opacity="0.85" clip-path="url(#ca)">+0.0% (+0)</text>
<rect x="211" y="369" width="12" height="12" fill="#34C759" rx="2"/>
<text x="227" y="379" font-size="12" fill="#111827">macOS + Windows</text>
<rect x="351" y="369" width="12" height="12" fill="#4F8EF7" rx="2"/>
<text x="367" y="379" font-size="12" fill="#111827">macOS only</text>
<rect x="491" y="369" width="12" height="12" fill="#FF6363" rx="2"/>
<text x="507" y="379" font-size="12" fill="#111827">Windows only</text>
<text x="72" y="394" font-size="8" fill="#e5e7eb">data since Dec 11, 2025</text>
</svg>