<svg xmlns="http://www.w3.org/2000/svg" width="800" height="400" viewBox="0 0 800 400">
<defs>
  <style>text { font-family: -apple-system, BlinkMacSystemFont, 'Segoe UI', Roboto, sans-serif; }</style>
  <linearGradient id="g2" x1="0" y1="0" x2="0" y2="1">
  <stop offset="0%" stop-color="#4F8EF7" stop-opacity="0.25"/>
  <stop offset="100%" stop-color="#4F8EF7" stop-opacity="0"/>
</linearGradient>
<linearGradient id="g3" x1="0" y1="0" x2="0" y2="1">
  <stop offset="0%" stop-color="#BF5AF2" stop-opacity="0.25"/>
  <stop offset="100%" stop-color="#BF5AF2" stop-opacity="0"/>
</linearGradient>
<linearGradient id="g4" x1="0" y1="0" x2="0" y2="1">
  <stop offset="0%" stop-color="#34C759" stop-opacity="0.25"/>
  <stop offset="100%" stop-color="#34C759" stop-opacity="0"/>
</linearGradient>
  <clipPath id="ca"><rect x="72" y="45" width="698" height="295"/></clipPath>
</defs>
<rect width="800" height="400" fill="#ffffff" rx="12"/>
<text x="400" y="26" text-anchor="middle" font-size="15" font-weight="600" fill="#111827">Community Growth Over Time</text>
<line x1="72" y1="340.0" x2="770" y2="340.0" stroke="#f3f4f6" stroke-width="1"/>
<text x="66" y="344.0" text-anchor="end" font-size="11" fill="#6b7280">500</text>
<line x1="72" y1="266.3" x2="770" y2="266.3" stroke="#f3f4f6" stroke-width="1"/>
<text x="66" y="270.3" text-anchor="end" font-size="11" fill="#6b7280">1.0k</text>
<line x1="72" y1="192.5" x2="770" y2="192.5" stroke="#f3f4f6" stroke-width="1"/>
<text x="66" y="196.5" text-anchor="end" font-size="11" fill="#6b7280">1.5k</text>
<line x1="72" y1="118.8" x2="770" y2="118.8" stroke="#f3f4f6" stroke-width="1"/>
<text x="66" y="122.8" text-anchor="end" font-size="11" fill="#6b7280">2.0k</text>
<line x1="72" y1="45.0" x2="770" y2="45.0" stroke="#f3f4f6" stroke-width="1"/>
<text x="66" y="49.0" text-anchor="end" font-size="11" fill="#6b7280">2.5k</text>
<line x1="118.5" y1="45" x2="118.5" y2="340" stroke="#e5e7eb" stroke-width="1" stroke-dasharray="3,3" clip-path="url(#ca)"/>
<line x1="219.4" y1="45" x2="219.4" y2="340" stroke="#e5e7eb" stroke-width="1" stroke-dasharray="3,3" clip-path="url(#ca)"/>
<line x1="324.1" y1="45" x2="324.1" y2="340" stroke="#e5e7eb" stroke-width="1" stroke-dasharray="3,3" clip-path="url(#ca)"/>
<line x1="428.8" y1="45" x2="428.8" y2="340" stroke="#e5e7eb" stroke-width="1" stroke-dasharray="3,3" clip-path="url(#ca)"/>
<line x1="533.5" y1="45" x2="533.5" y2="340" stroke="#e5e7eb" stroke-width="1" stroke-dasharray="3,3" clip-path="url(#ca)"/>
<line x1="634.3" y1="45" x2="634.3" y2="340" stroke="#e5e7eb" stroke-width="1" stroke-dasharray="3,3" clip-path="url(#ca)"/>
<line x1="727.3" y1="45" x2="727.3" y2="340" stroke="#e5e7eb" stroke-width="1" stroke-dasharray="3,3" clip-path="url(#ca)"/>
<text x="72.0" y="358.0" text-anchor="middle" font-size="11" fill="#6b7280">Dec 11</text>
<text x="211.6" y="358.0" text-anchor="middle" font-size="11" fill="#6b7280">Jan 30</text>
<text x="351.2" y="358.0" text-anchor="middle" font-size="11" fill="#6b7280">Mar 9</text>
<text x="490.8" y="358.0" text-anchor="middle" font-size="11" fill="#6b7280">Apr 18</text>
<text x="630.4" y="358.0" text-anchor="middle" font-size="11" fill="#6b7280">May 31</text>
<text x="770.0" y="358.0" text-anchor="middle" font-size="11" fill="#6b7280">Jul 15</text>
<line x1="72" y1="45" x2="72" y2="340" stroke="#e5e7eb" stroke-width="1"/>
<line x1="72" y1="340" x2="770" y2="340" stroke="#e5e7eb" stroke-width="1"/>
<text x="-192.5" y="18" text-anchor="middle" font-size="12" fill="#6b7280" transform="rotate(-90)">People</text>
<path d="M 72.0,340 L 72.0,175.1 L 75.9,175.1 L 79.8,175.1 L 83.6,174.7 L 87.5,174.7 L 91.4,174.4 L 95.3,174.2 L 99.1,174.4 L 103.0,173.9 L 106.9,173.9 L 110.8,173.9 L 114.7,173.9 L 118.5,173.9 L 122.4,173.9 L 126.3,173.9 L 130.2,173.9 L 134.0,173.8 L 137.9,173.3 L 141.8,172.4 L 145.7,172.0 L 149.6,171.9 L 153.4,171.9 L 157.3,171.4 L 161.2,170.4 L 165.1,169.8 L 168.9,169.8 L 172.8,169.0 L 176.7,168.8 L 180.6,168.2 L 184.5,167.7 L 188.3,167.3 L 192.2,166.8 L 196.1,166.8 L 200.0,165.8 L 203.8,165.2 L 207.7,165.2 L 211.6,164.6 L 215.5,164.3 L 219.4,164.2 L 223.2,164.0 L 227.1,164.0 L 231.0,163.6 L 234.9,161.8 L 238.7,160.8 L 242.6,160.2 L 246.5,160.1 L 250.4,159.8 L 254.3,159.2 L 258.1,158.9 L 262.0,158.6 L 265.9,158.3 L 269.8,158.0 L 273.6,157.7 L 277.5,157.7 L 281.4,156.2 L 285.3,156.2 L 289.2,156.1 L 293.0,155.9 L 296.9,155.6 L 300.8,155.6 L 304.7,154.9 L 308.5,154.0 L 312.4,153.7 L 316.3,154.0 L 320.2,153.9 L 324.1,153.7 L 327.9,153.7 L 331.8,153.4 L 335.7,152.8 L 339.6,152.5 L 343.4,152.2 L 347.3,152.1 L 351.2,152.1 L 355.1,151.5 L 359.0,151.2 L 362.8,151.2 L 366.7,150.0 L 370.6,150.0 L 374.5,150.0 L 378.3,150.0 L 382.2,149.9 L 386.1,149.4 L 390.0,148.8 L 393.9,148.5 L 397.7,148.5 L 401.6,148.3 L 405.5,147.1 L 409.4,146.3 L 413.2,146.2 L 417.1,146.0 L 421.0,145.6 L 424.9,144.7 L 428.8,144.4 L 432.6,144.1 L 436.5,143.2 L 440.4,143.1 L 444.3,143.1 L 448.1,143.1 L 452.0,142.9 L 455.9,142.1 L 459.8,141.9 L 463.7,141.8 L 467.5,141.8 L 471.4,141.5 L 475.3,140.3 L 479.2,140.1 L 483.0,140.0 L 486.9,140.0 L 490.8,139.4 L 494.7,139.3 L 498.6,139.1 L 502.4,138.7 L 506.3,138.1 L 510.2,138.1 L 514.1,138.1 L 517.9,138.1 L 521.8,137.8 L 525.7,137.3 L 529.6,137.2 L 533.5,136.7 L 537.3,136.6 L 541.2,136.5 L 545.1,135.9 L 549.0,135.4 L 552.8,135.3 L 556.7,135.3 L 560.6,133.9 L 564.5,133.5 L 568.4,133.4 L 572.2,133.4 L 576.1,132.6 L 580.0,132.6 L 583.9,132.2 L 587.7,131.7 L 591.6,130.7 L 595.5,130.6 L 599.4,130.4 L 603.3,130.3 L 607.1,130.3 L 611.0,130.1 L 614.9,129.4 L 618.8,128.9 L 622.6,128.9 L 626.5,128.8 L 630.4,128.8 L 634.3,128.3 L 638.2,128.2 L 642.0,128.0 L 645.9,127.6 L 649.8,127.0 L 653.7,127.0 L 657.5,126.9 L 661.4,126.7 L 665.3,126.0 L 669.2,124.9 L 673.1,124.8 L 676.9,124.5 L 680.8,124.2 L 684.7,124.1 L 688.6,123.6 L 692.4,123.0 L 696.3,122.9 L 700.2,122.4 L 704.1,122.1 L 708.0,121.4 L 711.8,121.3 L 715.7,121.0 L 719.6,121.0 L 723.5,120.7 L 727.3,120.4 L 731.2,120.1 L 735.1,119.9 L 739.0,119.6 L 742.9,119.6 L 746.7,119.3 L 750.6,119.2 L 754.5,119.2 L 758.4,118.3 L 762.2,117.9 L 766.1,117.9 L 770.0,117.9 L 770.0,340 Z" fill="url(#g2)" clip-path="url(#ca)"/>
<path d="M 72.0,175.1 L 75.9,175.1 L 79.8,175.1 L 83.6,174.7 L 87.5,174.7 L 91.4,174.4 L 95.3,174.2 L 99.1,174.4 L 103.0,173.9 L 106.9,173.9 L 110.8,173.9 L 114.7,173.9 L 118.5,173.9 L 122.4,173.9 L 126.3,173.9 L 130.2,173.9 L 134.0,173.8 L 137.9,173.3 L 141.8,172.4 L 145.7,172.0 L 149.6,171.9 L 153.4,171.9 L 157.3,171.4 L 161.2,170.4 L 165.1,169.8 L 168.9,169.8 L 172.8,169.0 L 176.7,168.8 L 180.6,168.2 L 184.5,167.7 L 188.3,167.3 L 192.2,166.8 L 196.1,166.8 L 200.0,165.8 L 203.8,165.2 L 207.7,165.2 L 211.6,164.6 L 215.5,164.3 L 219.4,164.2 L 223.2,164.0 L 227.1,164.0 L 231.0,163.6 L 234.9,161.8 L 238.7,160.8 L 242.6,160.2 L 246.5,160.1 L 250.4,159.8 L 254.3,159.2 L 258.1,158.9 L 262.0,158.6 L 265.9,158.3 L 269.8,158.0 L 273.6,157.7 L 277.5,157.7 L 281.4,156.2 L 285.3,156.2 L 289.2,156.1 L 293.0,155.9 L 296.9,155.6 L 300.8,155.6 L 304.7,154.9 L 308.5,154.0 L 312.4,153.7 L 316.3,154.0 L 320.2,153.9 L 324.1,153.7 L 327.9,153.7 L 331.8,153.4 L 335.7,152.8 L 339.6,152.5 L 343.4,152.2 L 347.3,152.1 L 351.2,152.1 L 355.1,151.5 L 359.0,151.2 L 362.8,151.2 L 366.7,150.0 L 370.6,150.0 L 374.5,150.0 L 378.3,150.0 L 382.2,149.9 L 386.1,149.4 L 390.0,148.8 L 393.9,148.5 L 397.7,148.5 L 401.6,148.3 L 405.5,147.1 L 409.4,146.3 L 413.2,146.2 L 417.1,146.0 L 421.0,145.6 L 424.9,144.7 L 428.8,144.4 L 432.6,144.1 L 436.5,143.2 L 440.4,143.1 L 444.3,143.1 L 448.1,143.1 L 452.0,142.9 L 455.9,142.1 L 459.8,141.9 L 463.7,141.8 L 467.5,141.8 L 471.4,141.5 L 475.3,140.3 L 479.2,140.1 L 483.0,140.0 L 486.9,140.0 L 490.8,139.4 L 494.7,139.3 L 498.6,139.1 L 502.4,138.7 L 506.3,138.1 L 510.2,138.1 L 514.1,138.1 L 517.9,138.1 L 521.8,137.8 L 525.7,137.3 L 529.6,137.2 L 533.5,136.7 L 537.3,136.6 L 541.2,136.5 L 545.1,135.9 L 549.0,135.4 L 552.8,135.3 L 556.7,135.3 L 560.6,133.9 L 564.5,133.5 L 568.4,133.4 L 572.2,133.4 L 576.1,132.6 L 580.0,132.6 L 583.9,132.2 L 587.7,131.7 L 591.6,130.7 L 595.5,130.6 L 599.4,130.4 L 603.3,130.3 L 607.1,130.3 L 611.0,130.1 L 614.9,129.4 L 618.8,128.9 L 622.6,128.9 L 626.5,128.8 L 630.4,128.8 L 634.3,128.3 L 638.2,128.2 L 642.0,128.0 L 645.9,127.6 L 649.8,127.0 L 653.7,127.0 L 657.5,126.9 L 661.4,126.7 L 665.3,126.0 L 669.2,124.9 L 673.1,124.8 L 676.9,124.5 L 680.8,124.2 L 684.7,124.1 L 688.6,123.6 L 692.4,123.0 L 696.3,122.9 L 700.2,122.4 L 704.1,122.1 L 708.0,121.4 L 711.8,121.3 L 715.7,121.0 L 719.6,121.0 L 723.5,120.7 L 727.3,120.4 L 731.2,120.1 L 735.1,119.9 L 739.0,119.6 L 742.9,119.6 L 746.7,119.3 L 750.6,119.2 L 754.5,119.2 L 758.4,118.3 L 762.2,117.9 L 766.1,117.9 L 770.0,117.9" fill="none" stroke="#4F8EF7" stroke-width="2.5" stroke-linejoin="round" clip-path="url(#ca)"/>
<path d="M 72.0,340 L 72.0,268.2 L 75.9,267.7 L 79.8,267.7 L 83.6,267.7 L 87.5,267.6 L 91.4,267.3 L 95.3,267.1 L 99.1,267.0 L 103.0,267.0 L 106.9,266.8 L 110.8,266.7 L 114.7,266.7 L 118.5,266.7 L 122.4,266.7 L 126.3,266.7 L 130.2,266.7 L 134.0,266.4 L 137.9,266.4 L 141.8,266.4 L 145.7,265.8 L 149.6,265.7 L 153.4,265.4 L 157.3,264.8 L 161.2,264.6 L 165.1,264.6 L 168.9,264.6 L 172.8,264.2 L 176.7,263.9 L 180.6,263.9 L 184.5,263.6 L 188.3,263.4 L 192.2,263.2 L 196.1,263.2 L 200.0,263.0 L 203.8,262.4 L 207.7,262.0 L 211.6,261.7 L 215.5,261.5 L 219.4,261.5 L 223.2,261.4 L 227.1,261.1 L 231.0,261.1 L 234.9,260.9 L 238.7,260.5 L 242.6,260.2 L 246.5,260.2 L 250.4,260.2 L 254.3,260.2 L 258.1,260.1 L 262.0,259.6 L 265.9,259.3 L 269.8,259.2 L 273.6,259.0 L 277.5,258.9 L 281.4,258.7 L 285.3,258.6 L 289.2,258.4 L 293.0,258.0 L 296.9,257.8 L 300.8,257.7 L 304.7,257.1 L 308.5,256.5 L 312.4,256.5 L 316.3,256.4 L 320.2,256.2 L 324.1,256.2 L 327.9,256.2 L 331.8,255.9 L 335.7,255.9 L 339.6,255.0 L 343.4,254.9 L 347.3,254.7 L 351.2,254.7 L 355.1,254.4 L 359.0,254.3 L 362.8,254.3 L 366.7,254.2 L 370.6,254.2 L 374.5,254.2 L 378.3,253.9 L 382.2,253.7 L 386.1,253.0 L 390.0,253.1 L 393.9,253.0 L 397.7,252.8 L 401.6,252.8 L 405.5,252.7 L 409.4,252.2 L 413.2,252.2 L 417.1,252.2 L 421.0,252.2 L 424.9,251.9 L 428.8,251.9 L 432.6,251.6 L 436.5,251.4 L 440.4,250.8 L 444.3,250.8 L 448.1,250.5 L 452.0,250.3 L 455.9,250.2 L 459.8,250.0 L 463.7,249.7 L 467.5,249.7 L 471.4,249.3 L 475.3,249.3 L 479.2,249.1 L 483.0,248.8 L 486.9,248.7 L 490.8,248.7 L 494.7,248.7 L 498.6,248.7 L 502.4,248.7 L 506.3,248.3 L 510.2,248.3 L 514.1,248.0 L 517.9,247.7 L 521.8,247.2 L 525.7,247.1 L 529.6,247.1 L 533.5,246.2 L 537.3,246.0 L 541.2,246.0 L 545.1,245.5 L 549.0,245.5 L 552.8,245.2 L 556.7,245.2 L 560.6,245.0 L 564.5,245.0 L 568.4,244.9 L 572.2,244.6 L 576.1,244.6 L 580.0,244.4 L 583.9,244.3 L 587.7,244.1 L 591.6,244.0 L 595.5,244.0 L 599.4,243.7 L 603.3,243.7 L 607.1,243.7 L 611.0,242.9 L 614.9,242.9 L 618.8,242.9 L 622.6,242.9 L 626.5,242.9 L 630.4,242.9 L 634.3,242.6 L 638.2,242.6 L 642.0,242.4 L 645.9,241.8 L 649.8,241.5 L 653.7,241.3 L 657.5,241.3 L 661.4,241.2 L 665.3,240.7 L 669.2,240.6 L 673.1,240.6 L 676.9,240.3 L 680.8,239.8 L 684.7,239.6 L 688.6,239.6 L 692.4,239.4 L 696.3,239.4 L 700.2,239.0 L 704.1,238.8 L 708.0,238.8 L 711.8,238.5 L 715.7,238.5 L 719.6,238.2 L 723.5,237.8 L 727.3,237.8 L 731.2,237.6 L 735.1,237.5 L 739.0,237.3 L 742.9,237.3 L 746.7,237.2 L 750.6,237.2 L 754.5,236.9 L 758.4,236.3 L 762.2,236.2 L 766.1,236.2 L 770.0,235.0 L 770.0,340 Z" fill="url(#g3)" clip-path="url(#ca)"/>
<path d="M 72.0,268.2 L 75.9,267.7 L 79.8,267.7 L 83.6,267.7 L 87.5,267.6 L 91.4,267.3 L 95.3,267.1 L 99.1,267.0 L 103.0,267.0 L 106.9,266.8 L 110.8,266.7 L 114.7,266.7 L 118.5,266.7 L 122.4,266.7 L 126.3,266.7 L 130.2,266.7 L 134.0,266.4 L 137.9,266.4 L 141.8,266.4 L 145.7,265.8 L 149.6,265.7 L 153.4,265.4 L 157.3,264.8 L 161.2,264.6 L 165.1,264.6 L 168.9,264.6 L 172.8,264.2 L 176.7,263.9 L 180.6,263.9 L 184.5,263.6 L 188.3,263.4 L 192.2,263.2 L 196.1,263.2 L 200.0,263.0 L 203.8,262.4 L 207.7,262.0 L 211.6,261.7 L 215.5,261.5 L 219.4,261.5 L 223.2,261.4 L 227.1,261.1 L 231.0,261.1 L 234.9,260.9 L 238.7,260.5 L 242.6,260.2 L 246.5,260.2 L 250.4,260.2 L 254.3,260.2 L 258.1,260.1 L 262.0,259.6 L 265.9,259.3 L 269.8,259.2 L 273.6,259.0 L 277.5,258.9 L 281.4,258.7 L 285.3,258.6 L 289.2,258.4 L 293.0,258.0 L 296.9,257.8 L 300.8,257.7 L 304.7,257.1 L 308.5,256.5 L 312.4,256.5 L 316.3,256.4 L 320.2,256.2 L 324.1,256.2 L 327.9,256.2 L 331.8,255.9 L 335.7,255.9 L 339.6,255.0 L 343.4,254.9 L 347.3,254.7 L 351.2,254.7 L 355.1,254.4 L 359.0,254.3 L 362.8,254.3 L 366.7,254.2 L 370.6,254.2 L 374.5,254.2 L 378.3,253.9 L 382.2,253.7 L 386.1,253.0 L 390.0,253.1 L 393.9,253.0 L 397.7,252.8 L 401.6,252.8 L 405.5,252.7 L 409.4,252.2 L 413.2,252.2 L 417.1,252.2 L 421.0,252.2 L 424.9,251.9 L 428.8,251.9 L 432.6,251.6 L 436.5,251.4 L 440.4,250.8 L 444.3,250.8 L 448.1,250.5 L 452.0,250.3 L 455.9,250.2 L 459.8,250.0 L 463.7,249.7 L 467.5,249.7 L 471.4,249.3 L 475.3,249.3 L 479.2,249.1 L 483.0,248.8 L 486.9,248.7 L 490.8,248.7 L 494.7,248.7 L 498.6,248.7 L 502.4,248.7 L 506.3,248.3 L 510.2,248.3 L 514.1,248.0 L 517.9,247.7 L 521.8,247.2 L 525.7,247.1 L 529.6,247.1 L 533.5,246.2 L 537.3,246.0 L 541.2,246.0 L 545.1,245.5 L 549.0,245.5 L 552.8,245.2 L 556.7,245.2 L 560.6,245.0 L 564.5,245.0 L 568.4,244.9 L 572.2,244.6 L 576.1,244.6 L 580.0,244.4 L 583.9,244.3 L 587.7,244.1 L 591.6,244.0 L 595.5,244.0 L 599.4,243.7 L 603.3,243.7 L 607.1,243.7 L 611.0,242.9 L 614.9,242.9 L 618.8,242.9 L 622.6,242.9 L 626.5,242.9 L 630.4,242.9 L 634.3,242.6 L 638.2,242.6 L 642.0,242.4 L 645.9,241.8 L 649.8,241.5 L 653.7,241.3 L 657.5,241.3 L 661.4,241.2 L 665.3,240.7 L 669.2,240.6 L 673.1,240.6 L 676.9,240.3 L 680.8,239.8 L 684.7,239.6 L 688.6,239.6 L 692.4,239.4 L 696.3,239.4 L 700.2,239.0 L 704.1,238.8 L 708.0,238.8 L 711.8,238.5 L 715.7,238.5 L 719.6,238.2 L 723.5,237.8 L 727.3,237.8 L 731.2,237.6 L 735.1,237.5 L 739.0,237.3 L 742.9,237.3 L 746.7,237.2 L 750.6,237.2 L 754.5,236.9 L 758.4,236.3 L 762.2,236.2 L 766.1,236.2 L 770.0,235.0" fill="none" stroke="#BF5AF2" stroke-width="2.5" stroke-linejoin="round" clip-path="url(#ca)"/>
<path d="M 72.0,340 L 72.0,303.6 L 75.9,303.1 L 79.8,303.1 L 83.6,303.1 L 87.5,303.0 L 91.4,302.7 L 95.3,302.5 L 99.1,302.2 L 103.0,302.2 L 106.9,302.1 L 110.8,301.9 L 114.7,301.9 L 118.5,301.9 L 122.4,301.9 L 126.3,301.9 L 130.2,301.9 L 134.0,301.6 L 137.9,301.6 L 141.8,301.8 L 145.7,301.4 L 149.6,301.5 L 153.4,301.1 L 157.3,300.6 L 161.2,300.5 L 165.1,300.6 L 168.9,300.6 L 172.8,300.2 L 176.7,300.0 L 180.6,300.0 L 184.5,299.7 L 188.3,299.6 L 192.2,299.3 L 196.1,299.3 L 200.0,299.1 L 203.8,298.7 L 207.7,298.3 L 211.6,298.0 L 215.5,298.0 L 219.4,298.0 L 223.2,297.8 L 227.1,297.5 L 231.0,297.5 L 234.9,297.4 L 238.7,296.9 L 242.6,296.8 L 246.5,296.8 L 250.4,296.8 L 254.3,296.8 L 258.1,296.6 L 262.0,296.2 L 265.9,296.0 L 269.8,295.9 L 273.6,295.8 L 277.5,295.8 L 281.4,295.6 L 285.3,295.6 L 289.2,295.6 L 293.0,295.2 L 296.9,295.2 L 300.8,295.2 L 304.7,294.9 L 308.5,294.4 L 312.4,294.4 L 316.3,294.3 L 320.2,294.1 L 324.1,294.1 L 327.9,294.1 L 331.8,293.8 L 335.7,293.8 L 339.6,292.9 L 343.4,292.8 L 347.3,292.7 L 351.2,292.7 L 355.1,292.5 L 359.0,292.5 L 362.8,292.5 L 366.7,292.5 L 370.6,292.5 L 374.5,292.5 L 378.3,292.2 L 382.2,292.1 L 386.1,291.3 L 390.0,291.5 L 393.9,291.5 L 397.7,291.3 L 401.6,291.3 L 405.5,291.3 L 409.4,291.0 L 413.2,291.0 L 417.1,291.0 L 421.0,291.0 L 424.9,291.0 L 428.8,291.0 L 432.6,290.9 L 436.5,290.9 L 440.4,290.3 L 444.3,290.3 L 448.1,290.1 L 452.0,290.0 L 455.9,289.9 L 459.8,289.7 L 463.7,289.4 L 467.5,289.4 L 471.4,289.0 L 475.3,289.0 L 479.2,288.8 L 483.0,288.7 L 486.9,288.7 L 490.8,288.7 L 494.7,288.7 L 498.6,288.7 L 502.4,288.7 L 506.3,288.2 L 510.2,288.2 L 514.1,287.9 L 517.9,287.6 L 521.8,287.2 L 525.7,287.0 L 529.6,287.0 L 533.5,286.3 L 537.3,286.2 L 541.2,286.2 L 545.1,285.7 L 549.0,285.7 L 552.8,285.6 L 556.7,285.6 L 560.6,285.7 L 564.5,285.9 L 568.4,285.7 L 572.2,285.4 L 576.1,285.6 L 580.0,285.4 L 583.9,285.3 L 587.7,285.3 L 591.6,285.3 L 595.5,285.3 L 599.4,285.0 L 603.3,285.0 L 607.1,285.0 L 611.0,284.4 L 614.9,284.4 L 618.8,284.4 L 622.6,284.4 L 626.5,284.4 L 630.4,284.4 L 634.3,284.1 L 638.2,284.1 L 642.0,283.8 L 645.9,283.2 L 649.8,283.1 L 653.7,283.1 L 657.5,283.1 L 661.4,283.1 L 665.3,282.8 L 669.2,282.6 L 673.1,282.6 L 676.9,282.5 L 680.8,282.0 L 684.7,281.7 L 688.6,281.7 L 692.4,281.6 L 696.3,281.6 L 700.2,281.4 L 704.1,281.3 L 708.0,281.3 L 711.8,281.1 L 715.7,281.1 L 719.6,280.9 L 723.5,280.4 L 727.3,280.4 L 731.2,280.3 L 735.1,280.4 L 739.0,280.3 L 742.9,280.3 L 746.7,280.1 L 750.6,280.1 L 754.5,280.0 L 758.4,279.5 L 762.2,279.5 L 766.1,279.5 L 770.0,278.6 L 770.0,340 Z" fill="url(#g4)" clip-path="url(#ca)"/>
<path d="M 72.0,303.6 L 75.9,303.1 L 79.8,303.1 L 83.6,303.1 L 87.5,303.0 L 91.4,302.7 L 95.3,302.5 L 99.1,302.2 L 103.0,302.2 L 106.9,302.1 L 110.8,301.9 L 114.7,301.9 L 118.5,301.9 L 122.4,301.9 L 126.3,301.9 L 130.2,301.9 L 134.0,301.6 L 137.9,301.6 L 141.8,301.8 L 145.7,301.4 L 149.6,301.5 L 153.4,301.1 L 157.3,300.6 L 161.2,300.5 L 165.1,300.6 L 168.9,300.6 L 172.8,300.2 L 176.7,300.0 L 180.6,300.0 L 184.5,299.7 L 188.3,299.6 L 192.2,299.3 L 196.1,299.3 L 200.0,299.1 L 203.8,298.7 L 207.7,298.3 L 211.6,298.0 L 215.5,298.0 L 219.4,298.0 L 223.2,297.8 L 227.1,297.5 L 231.0,297.5 L 234.9,297.4 L 238.7,296.9 L 242.6,296.8 L 246.5,296.8 L 250.4,296.8 L 254.3,296.8 L 258.1,296.6 L 262.0,296.2 L 265.9,296.0 L 269.8,295.9 L 273.6,295.8 L 277.5,295.8 L 281.4,295.6 L 285.3,295.6 L 289.2,295.6 L 293.0,295.2 L 296.9,295.2 L 300.8,295.2 L 304.7,294.9 L 308.5,294.4 L 312.4,294.4 L 316.3,294.3 L 320.2,294.1 L 324.1,294.1 L 327.9,294.1 L 331.8,293.8 L 335.7,293.8 L 339.6,292.9 L 343.4,292.8 L 347.3,292.7 L 351.2,292.7 L 355.1,292.5 L 359.0,292.5 L 362.8,292.5 L 366.7,292.5 L 370.6,292.5 L 374.5,292.5 L 378.3,292.2 L 382.2,292.1 L 386.1,291.3 L 390.0,291.5 L 393.9,291.5 L 397.7,291.3 L 401.6,291.3 L 405.5,291.3 L 409.4,291.0 L 413.2,291.0 L 417.1,291.0 L 421.0,291.0 L 424.9,291.0 L 428.8,291.0 L 432.6,290.9 L 436.5,290.9 L 440.4,290.3 L 444.3,290.3 L 448.1,290.1 L 452.0,290.0 L 455.9,289.9 L 459.8,289.7 L 463.7,289.4 L 467.5,289.4 L 471.4,289.0 L 475.3,289.0 L 479.2,288.8 L 483.0,288.7 L 486.9,288.7 L 490.8,288.7 L 494.7,288.7 L 498.6,288.7 L 502.4,288.7 L 506.3,288.2 L 510.2,288.2 L 514.1,287.9 L 517.9,287.6 L 521.8,287.2 L 525.7,287.0 L 529.6,287.0 L 533.5,286.3 L 537.3,286.2 L 541.2,286.2 L 545.1,285.7 L 549.0,285.7 L 552.8,285.6 L 556.7,285.6 L 560.6,285.7 L 564.5,285.9 L 568.4,285.7 L 572.2,285.4 L 576.1,285.6 L 580.0,285.4 L 583.9,285.3 L 587.7,285.3 L 591.6,285.3 L 595.5,285.3 L 599.4,285.0 L 603.3,285.0 L 607.1,285.0 L 611.0,284.4 L 614.9,284.4 L 618.8,284.4 L 622.6,284.4 L 626.5,284.4 L 630.4,284.4 L 634.3,284.1 L 638.2,284.1 L 642.0,283.8 L 645.9,283.2 L 649.8,283.1 L 653.7,283.1 L 657.5,283.1 L 661.4,283.1 L 665.3,282.8 L 669.2,282.6 L 673.1,282.6 L 676.9,282.5 L 680.8,282.0 L 684.7,281.7 L 688.6,281.7 L 692.4,281.6 L 696.3,281.6 L 700.2,281.4 L 704.1,281.3 L 708.0,281.3 L 711.8,281.1 L 715.7,281.1 L 719.6,280.9 L 723.5,280.4 L 727.3,280.4 L 731.2,280.3 L 735.1,280.4 L 739.0,280.3 L 742.9,280.3 L 746.7,280.1 L 750.6,280.1 L 754.5,280.0 L 758.4,279.5 L 762.2,279.5 L 766.1,279.5 L 770.0,278.6" fill="none" stroke="#34C759" stroke-width="2.5" stroke-linejoin="round" clip-path="url(#ca)"/>
<text x="93.3" y="55.0" text-anchor="middle" font-size="9" fill="#4F8EF7" opacity="0.85" clip-path="url(#ca)">+0.5% (+8)</text>
<text x="93.3" y="66.0" text-anchor="middle" font-size="9" fill="#BF5AF2" opacity="0.85" clip-path="url(#ca)">+1.0% (+10)</text>
<text x="93.3" y="77.0" text-anchor="middle" font-size="9" fill="#34C759" opacity="0.85" clip-path="url(#ca)">+1.5% (+11)</text>
<text x="167.0" y="55.0" text-anchor="middle" font-size="9" fill="#4F8EF7" opacity="0.85" clip-path="url(#ca)">+4.0% (+65)</text>
<text x="167.0" y="66.0" text-anchor="middle" font-size="9" fill="#BF5AF2" opacity="0.85" clip-path="url(#ca)">+3.5% (+35)</text>
<text x="167.0" y="77.0" text-anchor="middle" font-size="9" fill="#34C759" opacity="0.85" clip-path="url(#ca)">+3.6% (+27)</text>
<text x="269.8" y="55.0" text-anchor="middle" font-size="9" fill="#4F8EF7" opacity="0.85" clip-path="url(#ca)">+4.1% (+70)</text>
<text x="269.8" y="66.0" text-anchor="middle" font-size="9" fill="#BF5AF2" opacity="0.85" clip-path="url(#ca)">+3.5% (+36)</text>
<text x="269.8" y="77.0" text-anchor="middle" font-size="9" fill="#34C759" opacity="0.85" clip-path="url(#ca)">+3.3% (+26)</text>
<text x="374.5" y="55.0" text-anchor="middle" font-size="9" fill="#4F8EF7" opacity="0.85" clip-path="url(#ca)">+3.5% (+61)</text>
<text x="374.5" y="66.0" text-anchor="middle" font-size="9" fill="#BF5AF2" opacity="0.85" clip-path="url(#ca)">+2.7% (+29)</text>
<text x="374.5" y="77.0" text-anchor="middle" font-size="9" fill="#34C759" opacity="0.85" clip-path="url(#ca)">+2.6% (+21)</text>
<text x="479.2" y="55.0" text-anchor="middle" font-size="9" fill="#4F8EF7" opacity="0.85" clip-path="url(#ca)">+2.7% (+49)</text>
<text x="479.2" y="66.0" text-anchor="middle" font-size="9" fill="#BF5AF2" opacity="0.85" clip-path="url(#ca)">+3.0% (+33)</text>
<text x="479.2" y="77.0" text-anchor="middle" font-size="9" fill="#34C759" opacity="0.85" clip-path="url(#ca)">+3.2% (+27)</text>
<text x="581.9" y="55.0" text-anchor="middle" font-size="9" fill="#4F8EF7" opacity="0.85" clip-path="url(#ca)">+2.9% (+54)</text>
<text x="581.9" y="66.0" text-anchor="middle" font-size="9" fill="#BF5AF2" opacity="0.85" clip-path="url(#ca)">+1.9% (+22)</text>
<text x="581.9" y="77.0" text-anchor="middle" font-size="9" fill="#34C759" opacity="0.85" clip-path="url(#ca)">+1.5% (+13)</text>
<text x="678.9" y="55.0" text-anchor="middle" font-size="9" fill="#4F8EF7" opacity="0.85" clip-path="url(#ca)">+2.7% (+52)</text>
<text x="678.9" y="66.0" text-anchor="middle" font-size="9" fill="#BF5AF2" opacity="0.85" clip-path="url(#ca)">+2.8% (+33)</text>
<text x="678.9" y="77.0" text-anchor="middle" font-size="9" fill="#34C759" opacity="0.85" clip-path="url(#ca)">+2.8% (+25)</text>
<text x="748.7" y="55.0" text-anchor="middle" font-size="9" fill="#4F8EF7" opacity="0.85" clip-path="url(#ca)">+0.9% (+17)</text>
<text x="748.7" y="66.0" text-anchor="middle" font-size="9" fill="#BF5AF2" opacity="0.85" clip-path="url(#ca)">+1.6% (+19)</text>
<text x="748.7" y="77.0" text-anchor="middle" font-size="9" fill="#34C759" opacity="0.85" clip-path="url(#ca)">+1.3% (+12)</text>
<rect x="211" y="369" width="12" height="12" fill="#4F8EF7" rx="2"/>
<text x="227" y="379" font-size="12" fill="#111827">Authors</text>
<rect x="351" y="369" width="12" height="12" fill="#BF5AF2" rx="2"/>
<text x="367" y="379" font-size="12" fill="#111827">Contributors</text>
<rect x="491" y="369" width="12" height="12" fill="#34C759" rx="2"/>
<text x="507" y="379" font-size="12" fill="#111827">Non-author contributors</text>
<text x="72" y="394" font-size="8" fill="#e5e7eb">data since Dec 11, 2025</text>
</svg>