<svg xmlns="http://www.w3.org/2000/svg" width="800" height="400" viewBox="0 0 800 400">
<defs>
  <style>text { font-family: -apple-system, BlinkMacSystemFont, 'Segoe UI', Roboto, sans-serif; }</style>
  <linearGradient id="g5" x1="0" y1="0" x2="0" y2="1">
  <stop offset="0%" stop-color="#34C759" stop-opacity="0.25"/>
  <stop offset="100%" stop-color="#34C759" stop-opacity="0"/>
</linearGradient>
<linearGradient id="g6" x1="0" y1="0" x2="0" y2="1">
  <stop offset="0%" stop-color="#4F8EF7" stop-opacity="0.25"/>
  <stop offset="100%" stop-color="#4F8EF7" stop-opacity="0"/>
</linearGradient>
<linearGradient id="g7" x1="0" y1="0" x2="0" y2="1">
  <stop offset="0%" stop-color="#FF6363" stop-opacity="0.25"/>
  <stop offset="100%" stop-color="#FF6363" stop-opacity="0"/>
</linearGradient>
  <clipPath id="ca"><rect x="72" y="45" width="698" height="295"/></clipPath>
</defs>
<rect width="800" height="400" fill="#ffffff" rx="12"/>
<text x="400" y="26" text-anchor="middle" font-size="15" font-weight="600" fill="#111827">Platform Support Over Time</text>
<line x1="72" y1="340.0" x2="770" y2="340.0" stroke="#f3f4f6" stroke-width="1"/>
<text x="66" y="344.0" text-anchor="end" font-size="11" fill="#6b7280">0</text>
<line x1="72" y1="281.0" x2="770" y2="281.0" stroke="#f3f4f6" stroke-width="1"/>
<text x="66" y="285.0" text-anchor="end" font-size="11" fill="#6b7280">200</text>
<line x1="72" y1="222.0" x2="770" y2="222.0" stroke="#f3f4f6" stroke-width="1"/>
<text x="66" y="226.0" text-anchor="end" font-size="11" fill="#6b7280">400</text>
<line x1="72" y1="163.0" x2="770" y2="163.0" stroke="#f3f4f6" stroke-width="1"/>
<text x="66" y="167.0" text-anchor="end" font-size="11" fill="#6b7280">600</text>
<line x1="72" y1="104.0" x2="770" y2="104.0" stroke="#f3f4f6" stroke-width="1"/>
<text x="66" y="108.0" text-anchor="end" font-size="11" fill="#6b7280">800</text>
<line x1="72" y1="45.0" x2="770" y2="45.0" stroke="#f3f4f6" stroke-width="1"/>
<text x="66" y="49.0" text-anchor="end" font-size="11" fill="#6b7280">1.0k</text>
<line x1="122.8" y1="45" x2="122.8" y2="340" stroke="#e5e7eb" stroke-width="1" stroke-dasharray="3,3" clip-path="url(#ca)"/>
<line x1="232.8" y1="45" x2="232.8" y2="340" stroke="#e5e7eb" stroke-width="1" stroke-dasharray="3,3" clip-path="url(#ca)"/>
<line x1="347.0" y1="45" x2="347.0" y2="340" stroke="#e5e7eb" stroke-width="1" stroke-dasharray="3,3" clip-path="url(#ca)"/>
<line x1="461.2" y1="45" x2="461.2" y2="340" stroke="#e5e7eb" stroke-width="1" stroke-dasharray="3,3" clip-path="url(#ca)"/>
<line x1="575.4" y1="45" x2="575.4" y2="340" stroke="#e5e7eb" stroke-width="1" stroke-dasharray="3,3" clip-path="url(#ca)"/>
<line x1="685.4" y1="45" x2="685.4" y2="340" stroke="#e5e7eb" stroke-width="1" stroke-dasharray="3,3" clip-path="url(#ca)"/>
<text x="72.0" y="358.0" text-anchor="middle" font-size="11" fill="#6b7280">Dec 11</text>
<text x="211.6" y="358.0" text-anchor="middle" font-size="11" fill="#6b7280">Jan 27</text>
<text x="351.2" y="358.0" text-anchor="middle" font-size="11" fill="#6b7280">Mar 2</text>
<text x="490.8" y="358.0" text-anchor="middle" font-size="11" fill="#6b7280">Apr 9</text>
<text x="630.4" y="358.0" text-anchor="middle" font-size="11" fill="#6b7280">May 19</text>
<text x="770.0" y="358.0" text-anchor="middle" font-size="11" fill="#6b7280">Jun 26</text>
<line x1="72" y1="45" x2="72" y2="340" stroke="#e5e7eb" stroke-width="1"/>
<line x1="72" y1="340" x2="770" y2="340" stroke="#e5e7eb" stroke-width="1"/>
<text x="-192.5" y="18" text-anchor="middle" font-size="12" fill="#6b7280" transform="rotate(-90)">Extensions</text>
<path d="M 72.0,340 L 72.0,242.6 L 76.2,240.0 L 80.5,239.7 L 84.7,238.5 L 88.9,237.9 L 93.2,235.0 L 97.4,233.2 L 101.6,232.3 L 105.8,230.8 L 110.1,229.1 L 114.3,228.2 L 118.5,227.9 L 122.8,227.0 L 127.0,226.4 L 131.2,226.1 L 135.5,225.2 L 139.7,224.4 L 143.9,223.5 L 148.1,222.6 L 152.4,221.4 L 156.6,220.5 L 160.8,219.6 L 165.1,218.8 L 169.3,217.0 L 173.5,216.4 L 177.8,216.4 L 182.0,214.3 L 186.2,213.7 L 190.4,213.2 L 194.7,212.6 L 198.9,211.1 L 203.1,209.0 L 207.4,208.7 L 211.6,208.4 L 215.8,206.7 L 220.1,206.1 L 224.3,204.6 L 228.5,204.3 L 232.8,204.0 L 237.0,203.4 L 241.2,203.4 L 245.4,203.4 L 249.7,199.3 L 253.9,199.0 L 258.1,198.1 L 262.4,197.8 L 266.6,197.5 L 270.8,196.6 L 275.1,196.0 L 279.3,195.4 L 283.5,193.7 L 287.7,193.7 L 292.0,193.7 L 296.2,193.4 L 300.4,190.4 L 304.7,189.6 L 308.9,189.0 L 313.1,188.1 L 317.4,187.5 L 321.6,187.5 L 325.8,186.0 L 330.0,183.9 L 334.3,183.4 L 338.5,183.1 L 342.7,182.2 L 347.0,182.2 L 351.2,181.6 L 355.4,180.7 L 359.7,180.1 L 363.9,178.9 L 368.1,177.8 L 372.4,177.5 L 376.6,177.5 L 380.8,176.3 L 385.0,176.3 L 389.3,176.3 L 393.5,174.5 L 397.7,174.2 L 402.0,173.9 L 406.2,173.9 L 410.4,173.6 L 414.7,172.4 L 418.9,171.9 L 423.1,171.0 L 427.3,171.0 L 431.6,170.7 L 435.8,169.5 L 440.0,168.6 L 444.3,168.6 L 448.5,168.3 L 452.7,167.7 L 457.0,165.7 L 461.2,165.1 L 465.4,164.2 L 469.6,164.2 L 473.9,163.6 L 478.1,163.3 L 482.3,163.0 L 486.6,162.7 L 490.8,162.4 L 495.0,162.4 L 499.3,162.1 L 503.5,161.8 L 507.7,160.9 L 512.0,159.8 L 516.2,159.5 L 520.4,158.6 L 524.6,158.6 L 528.9,157.4 L 533.1,157.1 L 537.3,157.1 L 541.6,157.1 L 545.8,156.2 L 550.0,155.9 L 554.3,155.9 L 558.5,155.9 L 562.7,155.6 L 566.9,154.4 L 571.2,154.2 L 575.4,153.3 L 579.6,152.7 L 583.9,152.7 L 588.1,151.8 L 592.3,151.2 L 596.6,151.2 L 600.8,150.9 L 605.0,149.4 L 609.2,148.0 L 613.5,147.7 L 617.7,147.1 L 621.9,145.9 L 626.2,145.9 L 630.4,145.3 L 634.6,143.8 L 638.9,141.2 L 643.1,140.3 L 647.3,140.3 L 651.6,140.3 L 655.8,140.3 L 660.0,140.3 L 664.2,139.1 L 668.5,138.2 L 672.7,138.2 L 676.9,138.2 L 681.2,138.2 L 685.4,137.3 L 689.6,137.3 L 693.9,136.5 L 698.1,135.6 L 702.3,135.3 L 706.5,135.0 L 710.8,134.4 L 715.0,134.4 L 719.2,133.5 L 723.5,132.3 L 727.7,131.4 L 731.9,129.7 L 736.2,129.1 L 740.4,128.8 L 744.6,128.5 L 748.8,127.9 L 753.1,127.6 L 757.3,126.1 L 761.5,125.2 L 765.8,123.8 L 770.0,123.5 L 770.0,340 Z" fill="url(#g5)" clip-path="url(#ca)"/>
<path d="M 72.0,242.6 L 76.2,240.0 L 80.5,239.7 L 84.7,238.5 L 88.9,237.9 L 93.2,235.0 L 97.4,233.2 L 101.6,232.3 L 105.8,230.8 L 110.1,229.1 L 114.3,228.2 L 118.5,227.9 L 122.8,227.0 L 127.0,226.4 L 131.2,226.1 L 135.5,225.2 L 139.7,224.4 L 143.9,223.5 L 148.1,222.6 L 152.4,221.4 L 156.6,220.5 L 160.8,219.6 L 165.1,218.8 L 169.3,217.0 L 173.5,216.4 L 177.8,216.4 L 182.0,214.3 L 186.2,213.7 L 190.4,213.2 L 194.7,212.6 L 198.9,211.1 L 203.1,209.0 L 207.4,208.7 L 211.6,208.4 L 215.8,206.7 L 220.1,206.1 L 224.3,204.6 L 228.5,204.3 L 232.8,204.0 L 237.0,203.4 L 241.2,203.4 L 245.4,203.4 L 249.7,199.3 L 253.9,199.0 L 258.1,198.1 L 262.4,197.8 L 266.6,197.5 L 270.8,196.6 L 275.1,196.0 L 279.3,195.4 L 283.5,193.7 L 287.7,193.7 L 292.0,193.7 L 296.2,193.4 L 300.4,190.4 L 304.7,189.6 L 308.9,189.0 L 313.1,188.1 L 317.4,187.5 L 321.6,187.5 L 325.8,186.0 L 330.0,183.9 L 334.3,183.4 L 338.5,183.1 L 342.7,182.2 L 347.0,182.2 L 351.2,181.6 L 355.4,180.7 L 359.7,180.1 L 363.9,178.9 L 368.1,177.8 L 372.4,177.5 L 376.6,177.5 L 380.8,176.3 L 385.0,176.3 L 389.3,176.3 L 393.5,174.5 L 397.7,174.2 L 402.0,173.9 L 406.2,173.9 L 410.4,173.6 L 414.7,172.4 L 418.9,171.9 L 423.1,171.0 L 427.3,171.0 L 431.6,170.7 L 435.8,169.5 L 440.0,168.6 L 444.3,168.6 L 448.5,168.3 L 452.7,167.7 L 457.0,165.7 L 461.2,165.1 L 465.4,164.2 L 469.6,164.2 L 473.9,163.6 L 478.1,163.3 L 482.3,163.0 L 486.6,162.7 L 490.8,162.4 L 495.0,162.4 L 499.3,162.1 L 503.5,161.8 L 507.7,160.9 L 512.0,159.8 L 516.2,159.5 L 520.4,158.6 L 524.6,158.6 L 528.9,157.4 L 533.1,157.1 L 537.3,157.1 L 541.6,157.1 L 545.8,156.2 L 550.0,155.9 L 554.3,155.9 L 558.5,155.9 L 562.7,155.6 L 566.9,154.4 L 571.2,154.2 L 575.4,153.3 L 579.6,152.7 L 583.9,152.7 L 588.1,151.8 L 592.3,151.2 L 596.6,151.2 L 600.8,150.9 L 605.0,149.4 L 609.2,148.0 L 613.5,147.7 L 617.7,147.1 L 621.9,145.9 L 626.2,145.9 L 630.4,145.3 L 634.6,143.8 L 638.9,141.2 L 643.1,140.3 L 647.3,140.3 L 651.6,140.3 L 655.8,140.3 L 660.0,140.3 L 664.2,139.1 L 668.5,138.2 L 672.7,138.2 L 676.9,138.2 L 681.2,138.2 L 685.4,137.3 L 689.6,137.3 L 693.9,136.5 L 698.1,135.6 L 702.3,135.3 L 706.5,135.0 L 710.8,134.4 L 715.0,134.4 L 719.2,133.5 L 723.5,132.3 L 727.7,131.4 L 731.9,129.7 L 736.2,129.1 L 740.4,128.8 L 744.6,128.5 L 748.8,127.9 L 753.1,127.6 L 757.3,126.1 L 761.5,125.2 L 765.8,123.8 L 770.0,123.5" fill="none" stroke="#34C759" stroke-width="2.5" stroke-linejoin="round" clip-path="url(#ca)"/>
<path d="M 72.0,340 L 72.0,222.6 L 76.2,222.6 L 80.5,222.3 L 84.7,221.4 L 88.9,221.7 L 93.2,221.7 L 97.4,220.5 L 101.6,219.6 L 105.8,219.6 L 110.1,219.9 L 114.3,219.6 L 118.5,219.3 L 122.8,219.1 L 127.0,219.1 L 131.2,219.1 L 135.5,219.3 L 139.7,218.8 L 143.9,218.2 L 148.1,216.4 L 152.4,215.2 L 156.6,215.2 L 160.8,214.9 L 165.1,213.2 L 169.3,210.5 L 173.5,209.6 L 177.8,209.0 L 182.0,207.0 L 186.2,205.5 L 190.4,204.9 L 194.7,204.3 L 198.9,203.7 L 203.1,203.4 L 207.4,203.4 L 211.6,201.3 L 215.8,200.8 L 220.1,200.2 L 224.3,200.2 L 228.5,198.7 L 232.8,198.4 L 237.0,197.5 L 241.2,196.3 L 245.4,194.9 L 249.7,192.8 L 253.9,190.7 L 258.1,190.4 L 262.4,189.8 L 266.6,189.3 L 270.8,187.5 L 275.1,187.5 L 279.3,186.9 L 283.5,186.0 L 287.7,185.4 L 292.0,184.2 L 296.2,184.5 L 300.4,181.0 L 304.7,180.7 L 308.9,180.4 L 313.1,179.8 L 317.4,178.0 L 321.6,178.0 L 325.8,176.3 L 330.0,174.2 L 334.3,174.2 L 338.5,174.2 L 342.7,173.9 L 347.0,173.6 L 351.2,173.3 L 355.4,171.9 L 359.7,170.1 L 363.9,169.5 L 368.1,168.3 L 372.4,168.3 L 376.6,167.4 L 380.8,165.7 L 385.0,164.8 L 389.3,164.5 L 393.5,162.4 L 397.7,162.1 L 402.0,162.1 L 406.2,161.8 L 410.4,161.8 L 414.7,160.3 L 418.9,159.8 L 423.1,158.9 L 427.3,158.6 L 431.6,158.0 L 435.8,155.6 L 440.0,152.4 L 444.3,152.1 L 448.5,151.5 L 452.7,151.2 L 457.0,149.7 L 461.2,118.5 L 465.4,117.9 L 469.6,116.4 L 473.9,116.4 L 478.1,116.4 L 482.3,116.7 L 486.6,116.4 L 490.8,114.6 L 495.0,114.0 L 499.3,113.7 L 503.5,113.4 L 507.7,112.3 L 512.0,110.5 L 516.2,110.5 L 520.4,110.5 L 524.6,110.2 L 528.9,109.9 L 533.1,109.9 L 537.3,109.3 L 541.6,108.4 L 545.8,106.9 L 550.0,106.4 L 554.3,106.1 L 558.5,106.1 L 562.7,105.8 L 566.9,105.2 L 571.2,104.9 L 575.4,103.4 L 579.6,103.4 L 583.9,102.8 L 588.1,101.6 L 592.3,100.2 L 596.6,99.9 L 600.8,99.6 L 605.0,96.9 L 609.2,96.3 L 613.5,95.7 L 617.7,95.7 L 621.9,94.6 L 626.2,94.0 L 630.4,92.5 L 634.6,91.9 L 638.9,91.0 L 643.1,90.7 L 647.3,89.5 L 651.6,88.7 L 655.8,88.4 L 660.0,87.8 L 664.2,86.6 L 668.5,86.0 L 672.7,85.1 L 676.9,84.5 L 681.2,84.2 L 685.4,83.6 L 689.6,82.8 L 693.9,82.2 L 698.1,81.6 L 702.3,80.7 L 706.5,80.7 L 710.8,80.1 L 715.0,78.6 L 719.2,77.2 L 723.5,76.3 L 727.7,76.6 L 731.9,76.0 L 736.2,75.7 L 740.4,75.4 L 744.6,74.8 L 748.8,73.3 L 753.1,73.3 L 757.3,73.0 L 761.5,72.1 L 765.8,71.3 L 770.0,70.1 L 770.0,340 Z" fill="url(#g6)" clip-path="url(#ca)"/>
<path d="M 72.0,222.6 L 76.2,222.6 L 80.5,222.3 L 84.7,221.4 L 88.9,221.7 L 93.2,221.7 L 97.4,220.5 L 101.6,219.6 L 105.8,219.6 L 110.1,219.9 L 114.3,219.6 L 118.5,219.3 L 122.8,219.1 L 127.0,219.1 L 131.2,219.1 L 135.5,219.3 L 139.7,218.8 L 143.9,218.2 L 148.1,216.4 L 152.4,215.2 L 156.6,215.2 L 160.8,214.9 L 165.1,213.2 L 169.3,210.5 L 173.5,209.6 L 177.8,209.0 L 182.0,207.0 L 186.2,205.5 L 190.4,204.9 L 194.7,204.3 L 198.9,203.7 L 203.1,203.4 L 207.4,203.4 L 211.6,201.3 L 215.8,200.8 L 220.1,200.2 L 224.3,200.2 L 228.5,198.7 L 232.8,198.4 L 237.0,197.5 L 241.2,196.3 L 245.4,194.9 L 249.7,192.8 L 253.9,190.7 L 258.1,190.4 L 262.4,189.8 L 266.6,189.3 L 270.8,187.5 L 275.1,187.5 L 279.3,186.9 L 283.5,186.0 L 287.7,185.4 L 292.0,184.2 L 296.2,184.5 L 300.4,181.0 L 304.7,180.7 L 308.9,180.4 L 313.1,179.8 L 317.4,178.0 L 321.6,178.0 L 325.8,176.3 L 330.0,174.2 L 334.3,174.2 L 338.5,174.2 L 342.7,173.9 L 347.0,173.6 L 351.2,173.3 L 355.4,171.9 L 359.7,170.1 L 363.9,169.5 L 368.1,168.3 L 372.4,168.3 L 376.6,167.4 L 380.8,165.7 L 385.0,164.8 L 389.3,164.5 L 393.5,162.4 L 397.7,162.1 L 402.0,162.1 L 406.2,161.8 L 410.4,161.8 L 414.7,160.3 L 418.9,159.8 L 423.1,158.9 L 427.3,158.6 L 431.6,158.0 L 435.8,155.6 L 440.0,152.4 L 444.3,152.1 L 448.5,151.5 L 452.7,151.2 L 457.0,149.7 L 461.2,118.5 L 465.4,117.9 L 469.6,116.4 L 473.9,116.4 L 478.1,116.4 L 482.3,116.7 L 486.6,116.4 L 490.8,114.6 L 495.0,114.0 L 499.3,113.7 L 503.5,113.4 L 507.7,112.3 L 512.0,110.5 L 516.2,110.5 L 520.4,110.5 L 524.6,110.2 L 528.9,109.9 L 533.1,109.9 L 537.3,109.3 L 541.6,108.4 L 545.8,106.9 L 550.0,106.4 L 554.3,106.1 L 558.5,106.1 L 562.7,105.8 L 566.9,105.2 L 571.2,104.9 L 575.4,103.4 L 579.6,103.4 L 583.9,102.8 L 588.1,101.6 L 592.3,100.2 L 596.6,99.9 L 600.8,99.6 L 605.0,96.9 L 609.2,96.3 L 613.5,95.7 L 617.7,95.7 L 621.9,94.6 L 626.2,94.0 L 630.4,92.5 L 634.6,91.9 L 638.9,91.0 L 643.1,90.7 L 647.3,89.5 L 651.6,88.7 L 655.8,88.4 L 660.0,87.8 L 664.2,86.6 L 668.5,86.0 L 672.7,85.1 L 676.9,84.5 L 681.2,84.2 L 685.4,83.6 L 689.6,82.8 L 693.9,82.2 L 698.1,81.6 L 702.3,80.7 L 706.5,80.7 L 710.8,80.1 L 715.0,78.6 L 719.2,77.2 L 723.5,76.3 L 727.7,76.6 L 731.9,76.0 L 736.2,75.7 L 740.4,75.4 L 744.6,74.8 L 748.8,73.3 L 753.1,73.3 L 757.3,73.0 L 761.5,72.1 L 765.8,71.3 L 770.0,70.1" fill="none" stroke="#4F8EF7" stroke-width="2.5" stroke-linejoin="round" clip-path="url(#ca)"/>
<path d="M 72.0,340 L 72.0,338.2 L 76.2,337.9 L 80.5,337.9 L 84.7,337.6 L 88.9,337.6 L 93.2,337.6 L 97.4,337.6 L 101.6,337.6 L 105.8,337.1 L 110.1,337.1 L 114.3,337.1 L 118.5,337.1 L 122.8,337.1 L 127.0,336.8 L 131.2,336.8 L 135.5,336.8 L 139.7,336.8 L 143.9,336.8 L 148.1,336.5 L 152.4,335.9 L 156.6,335.6 L 160.8,335.6 L 165.1,335.6 L 169.3,335.3 L 173.5,335.3 L 177.8,335.3 L 182.0,335.0 L 186.2,335.0 L 190.4,335.0 L 194.7,334.7 L 198.9,334.7 L 203.1,334.7 L 207.4,334.7 L 211.6,334.4 L 215.8,334.4 L 220.1,334.4 L 224.3,334.4 L 228.5,334.4 L 232.8,334.4 L 237.0,334.4 L 241.2,334.4 L 245.4,334.4 L 249.7,334.4 L 253.9,334.4 L 258.1,334.4 L 262.4,334.4 L 266.6,334.1 L 270.8,334.1 L 275.1,334.1 L 279.3,334.1 L 283.5,334.1 L 287.7,334.1 L 292.0,334.1 L 296.2,334.1 L 300.4,334.1 L 304.7,334.1 L 308.9,334.1 L 313.1,334.1 L 317.4,333.8 L 321.6,333.8 L 325.8,333.8 L 330.0,333.8 L 334.3,333.8 L 338.5,333.8 L 342.7,333.8 L 347.0,333.8 L 351.2,333.8 L 355.4,333.8 L 359.7,333.8 L 363.9,333.8 L 368.1,333.8 L 372.4,333.8 L 376.6,333.8 L 380.8,333.8 L 385.0,333.8 L 389.3,333.8 L 393.5,333.8 L 397.7,333.8 L 402.0,333.8 L 406.2,333.8 L 410.4,333.8 L 414.7,333.8 L 418.9,333.8 L 423.1,333.8 L 427.3,333.8 L 431.6,333.8 L 435.8,333.8 L 440.0,333.8 L 444.3,333.8 L 448.5,333.8 L 452.7,333.8 L 457.0,333.8 L 461.2,333.8 L 465.4,333.8 L 469.6,333.5 L 473.9,333.5 L 478.1,333.5 L 482.3,333.5 L 486.6,333.5 L 490.8,333.2 L 495.0,333.2 L 499.3,333.2 L 503.5,333.2 L 507.7,332.9 L 512.0,332.9 L 516.2,332.6 L 520.4,332.6 L 524.6,332.6 L 528.9,332.6 L 533.1,332.6 L 537.3,332.6 L 541.6,332.6 L 545.8,332.6 L 550.0,332.6 L 554.3,332.6 L 558.5,332.6 L 562.7,332.6 L 566.9,332.6 L 571.2,332.6 L 575.4,332.6 L 579.6,332.6 L 583.9,332.6 L 588.1,332.6 L 592.3,332.6 L 596.6,332.6 L 600.8,332.6 L 605.0,332.6 L 609.2,332.6 L 613.5,332.6 L 617.7,332.6 L 621.9,332.6 L 626.2,332.6 L 630.4,332.6 L 634.6,332.6 L 638.9,332.6 L 643.1,332.6 L 647.3,332.6 L 651.6,332.6 L 655.8,332.6 L 660.0,332.6 L 664.2,332.6 L 668.5,332.6 L 672.7,332.6 L 676.9,332.6 L 681.2,332.6 L 685.4,332.6 L 689.6,332.6 L 693.9,332.6 L 698.1,332.6 L 702.3,332.6 L 706.5,332.6 L 710.8,332.6 L 715.0,332.6 L 719.2,332.3 L 723.5,332.3 L 727.7,332.3 L 731.9,332.3 L 736.2,332.3 L 740.4,332.3 L 744.6,332.3 L 748.8,332.3 L 753.1,332.3 L 757.3,332.3 L 761.5,332.3 L 765.8,332.0 L 770.0,332.0 L 770.0,340 Z" fill="url(#g7)" clip-path="url(#ca)"/>
<path d="M 72.0,338.2 L 76.2,337.9 L 80.5,337.9 L 84.7,337.6 L 88.9,337.6 L 93.2,337.6 L 97.4,337.6 L 101.6,337.6 L 105.8,337.1 L 110.1,337.1 L 114.3,337.1 L 118.5,337.1 L 122.8,337.1 L 127.0,336.8 L 131.2,336.8 L 135.5,336.8 L 139.7,336.8 L 143.9,336.8 L 148.1,336.5 L 152.4,335.9 L 156.6,335.6 L 160.8,335.6 L 165.1,335.6 L 169.3,335.3 L 173.5,335.3 L 177.8,335.3 L 182.0,335.0 L 186.2,335.0 L 190.4,335.0 L 194.7,334.7 L 198.9,334.7 L 203.1,334.7 L 207.4,334.7 L 211.6,334.4 L 215.8,334.4 L 220.1,334.4 L 224.3,334.4 L 228.5,334.4 L 232.8,334.4 L 237.0,334.4 L 241.2,334.4 L 245.4,334.4 L 249.7,334.4 L 253.9,334.4 L 258.1,334.4 L 262.4,334.4 L 266.6,334.1 L 270.8,334.1 L 275.1,334.1 L 279.3,334.1 L 283.5,334.1 L 287.7,334.1 L 292.0,334.1 L 296.2,334.1 L 300.4,334.1 L 304.7,334.1 L 308.9,334.1 L 313.1,334.1 L 317.4,333.8 L 321.6,333.8 L 325.8,333.8 L 330.0,333.8 L 334.3,333.8 L 338.5,333.8 L 342.7,333.8 L 347.0,333.8 L 351.2,333.8 L 355.4,333.8 L 359.7,333.8 L 363.9,333.8 L 368.1,333.8 L 372.4,333.8 L 376.6,333.8 L 380.8,333.8 L 385.0,333.8 L 389.3,333.8 L 393.5,333.8 L 397.7,333.8 L 402.0,333.8 L 406.2,333.8 L 410.4,333.8 L 414.7,333.8 L 418.9,333.8 L 423.1,333.8 L 427.3,333.8 L 431.6,333.8 L 435.8,333.8 L 440.0,333.8 L 444.3,333.8 L 448.5,333.8 L 452.7,333.8 L 457.0,333.8 L 461.2,333.8 L 465.4,333.8 L 469.6,333.5 L 473.9,333.5 L 478.1,333.5 L 482.3,333.5 L 486.6,333.5 L 490.8,333.2 L 495.0,333.2 L 499.3,333.2 L 503.5,333.2 L 507.7,332.9 L 512.0,332.9 L 516.2,332.6 L 520.4,332.6 L 524.6,332.6 L 528.9,332.6 L 533.1,332.6 L 537.3,332.6 L 541.6,332.6 L 545.8,332.6 L 550.0,332.6 L 554.3,332.6 L 558.5,332.6 L 562.7,332.6 L 566.9,332.6 L 571.2,332.6 L 575.4,332.6 L 579.6,332.6 L 583.9,332.6 L 588.1,332.6 L 592.3,332.6 L 596.6,332.6 L 600.8,332.6 L 605.0,332.6 L 609.2,332.6 L 613.5,332.6 L 617.7,332.6 L 621.9,332.6 L 626.2,332.6 L 630.4,332.6 L 634.6,332.6 L 638.9,332.6 L 643.1,332.6 L 647.3,332.6 L 651.6,332.6 L 655.8,332.6 L 660.0,332.6 L 664.2,332.6 L 668.5,332.6 L 672.7,332.6 L 676.9,332.6 L 681.2,332.6 L 685.4,332.6 L 689.6,332.6 L 693.9,332.6 L 698.1,332.6 L 702.3,332.6 L 706.5,332.6 L 710.8,332.6 L 715.0,332.6 L 719.2,332.3 L 723.5,332.3 L 727.7,332.3 L 731.9,332.3 L 736.2,332.3 L 740.4,332.3 L 744.6,332.3 L 748.8,332.3 L 753.1,332.3 L 757.3,332.3 L 761.5,332.3 L 765.8,332.0 L 770.0,332.0" fill="none" stroke="#FF6363" stroke-width="2.5" stroke-linejoin="round" clip-path="url(#ca)"/>
<text x="95.3" y="55.0" text-anchor="middle" font-size="9" fill="#34C759" opacity="0.85" clip-path="url(#ca)">+15.2% (+50)</text>
<text x="95.3" y="66.0" text-anchor="middle" font-size="9" fill="#4F8EF7" opacity="0.85" clip-path="url(#ca)">+2.8% (+11)</text>
<text x="95.3" y="77.0" text-anchor="middle" font-size="9" fill="#FF6363" opacity="0.85" clip-path="url(#ca)">+66.7% (+4)</text>
<text x="175.6" y="55.0" text-anchor="middle" font-size="9" fill="#34C759" opacity="0.85" clip-path="url(#ca)">+20.1% (+77)</text>
<text x="175.6" y="66.0" text-anchor="middle" font-size="9" fill="#4F8EF7" opacity="0.85" clip-path="url(#ca)">+16.8% (+69)</text>
<text x="175.6" y="77.0" text-anchor="middle" font-size="9" fill="#FF6363" opacity="0.85" clip-path="url(#ca)">+90.0% (+9)</text>
<text x="287.7" y="55.0" text-anchor="middle" font-size="9" fill="#34C759" opacity="0.85" clip-path="url(#ca)">+16.1% (+74)</text>
<text x="287.7" y="66.0" text-anchor="middle" font-size="9" fill="#4F8EF7" opacity="0.85" clip-path="url(#ca)">+17.3% (+83)</text>
<text x="287.7" y="77.0" text-anchor="middle" font-size="9" fill="#FF6363" opacity="0.85" clip-path="url(#ca)">+10.5% (+2)</text>
<text x="402.0" y="55.0" text-anchor="middle" font-size="9" fill="#34C759" opacity="0.85" clip-path="url(#ca)">+10.5% (+56)</text>
<text x="402.0" y="66.0" text-anchor="middle" font-size="9" fill="#4F8EF7" opacity="0.85" clip-path="url(#ca)">+14.4% (+81)</text>
<text x="402.0" y="77.0" text-anchor="middle" font-size="9" fill="#FF6363" opacity="0.85" clip-path="url(#ca)">+0.0% (+0)</text>
<text x="516.2" y="55.0" text-anchor="middle" font-size="9" fill="#34C759" opacity="0.85" clip-path="url(#ca)">+6.2% (+37)</text>
<text x="516.2" y="66.0" text-anchor="middle" font-size="9" fill="#4F8EF7" opacity="0.85" clip-path="url(#ca)">+6.1% (+46)</text>
<text x="516.2" y="77.0" text-anchor="middle" font-size="9" fill="#FF6363" opacity="0.85" clip-path="url(#ca)">+19.0% (+4)</text>
<text x="628.3" y="55.0" text-anchor="middle" font-size="9" fill="#34C759" opacity="0.85" clip-path="url(#ca)">+8.1% (+51)</text>
<text x="628.3" y="66.0" text-anchor="middle" font-size="9" fill="#4F8EF7" opacity="0.85" clip-path="url(#ca)">+8.1% (+65)</text>
<text x="628.3" y="77.0" text-anchor="middle" font-size="9" fill="#FF6363" opacity="0.85" clip-path="url(#ca)">+0.0% (+0)</text>
<text x="727.7" y="55.0" text-anchor="middle" font-size="9" fill="#34C759" opacity="0.85" clip-path="url(#ca)">+6.8% (+47)</text>
<text x="727.7" y="66.0" text-anchor="middle" font-size="9" fill="#4F8EF7" opacity="0.85" clip-path="url(#ca)">+5.3% (+46)</text>
<text x="727.7" y="77.0" text-anchor="middle" font-size="9" fill="#FF6363" opacity="0.85" clip-path="url(#ca)">+8.0% (+2)</text>
<rect x="211" y="369" width="12" height="12" fill="#34C759" rx="2"/>
<text x="227" y="379" font-size="12" fill="#111827">macOS + Windows</text>
<rect x="351" y="369" width="12" height="12" fill="#4F8EF7" rx="2"/>
<text x="367" y="379" font-size="12" fill="#111827">macOS only</text>
<rect x="491" y="369" width="12" height="12" fill="#FF6363" rx="2"/>
<text x="507" y="379" font-size="12" fill="#111827">Windows only</text>
<text x="72" y="394" font-size="8" fill="#e5e7eb">data since Dec 11, 2025</text>
</svg>