<svg xmlns="http://www.w3.org/2000/svg" width="800" height="400" viewBox="0 0 800 400">
<defs>
  <style>text { font-family: -apple-system, BlinkMacSystemFont, 'Segoe UI', Roboto, sans-serif; }</style>
  <linearGradient id="g2" x1="0" y1="0" x2="0" y2="1">
  <stop offset="0%" stop-color="#4F8EF7" stop-opacity="0.25"/>
  <stop offset="100%" stop-color="#4F8EF7" stop-opacity="0"/>
</linearGradient>
<linearGradient id="g3" x1="0" y1="0" x2="0" y2="1">
  <stop offset="0%" stop-color="#BF5AF2" stop-opacity="0.25"/>
  <stop offset="100%" stop-color="#BF5AF2" stop-opacity="0"/>
</linearGradient>
<linearGradient id="g4" x1="0" y1="0" x2="0" y2="1">
  <stop offset="0%" stop-color="#34C759" stop-opacity="0.25"/>
  <stop offset="100%" stop-color="#34C759" stop-opacity="0"/>
</linearGradient>
  <clipPath id="ca"><rect x="72" y="45" width="698" height="295"/></clipPath>
</defs>
<rect width="800" height="400" fill="#ffffff" rx="12"/>
<text x="400" y="26" text-anchor="middle" font-size="15" font-weight="600" fill="#111827">Community Growth Over Time</text>
<line x1="72" y1="340.0" x2="770" y2="340.0" stroke="#f3f4f6" stroke-width="1"/>
<text x="66" y="344.0" text-anchor="end" font-size="11" fill="#6b7280">500</text>
<line x1="72" y1="241.7" x2="770" y2="241.7" stroke="#f3f4f6" stroke-width="1"/>
<text x="66" y="245.7" text-anchor="end" font-size="11" fill="#6b7280">1.0k</text>
<line x1="72" y1="143.3" x2="770" y2="143.3" stroke="#f3f4f6" stroke-width="1"/>
<text x="66" y="147.3" text-anchor="end" font-size="11" fill="#6b7280">1.5k</text>
<line x1="72" y1="45.0" x2="770" y2="45.0" stroke="#f3f4f6" stroke-width="1"/>
<text x="66" y="49.0" text-anchor="end" font-size="11" fill="#6b7280">2.0k</text>
<line x1="136.9" y1="45" x2="136.9" y2="340" stroke="#e5e7eb" stroke-width="1" stroke-dasharray="3,3" clip-path="url(#ca)"/>
<line x1="277.6" y1="45" x2="277.6" y2="340" stroke="#e5e7eb" stroke-width="1" stroke-dasharray="3,3" clip-path="url(#ca)"/>
<line x1="423.7" y1="45" x2="423.7" y2="340" stroke="#e5e7eb" stroke-width="1" stroke-dasharray="3,3" clip-path="url(#ca)"/>
<line x1="569.8" y1="45" x2="569.8" y2="340" stroke="#e5e7eb" stroke-width="1" stroke-dasharray="3,3" clip-path="url(#ca)"/>
<line x1="715.9" y1="45" x2="715.9" y2="340" stroke="#e5e7eb" stroke-width="1" stroke-dasharray="3,3" clip-path="url(#ca)"/>
<text x="72.0" y="358.0" text-anchor="middle" font-size="11" fill="#6b7280">Dec 11</text>
<text x="212.7" y="358.0" text-anchor="middle" font-size="11" fill="#6b7280">Jan 20</text>
<text x="353.4" y="358.0" text-anchor="middle" font-size="11" fill="#6b7280">Feb 15</text>
<text x="488.6" y="358.0" text-anchor="middle" font-size="11" fill="#6b7280">Mar 14</text>
<text x="629.3" y="358.0" text-anchor="middle" font-size="11" fill="#6b7280">Apr 13</text>
<text x="770.0" y="358.0" text-anchor="middle" font-size="11" fill="#6b7280">May 16</text>
<line x1="72" y1="45" x2="72" y2="340" stroke="#e5e7eb" stroke-width="1"/>
<line x1="72" y1="340" x2="770" y2="340" stroke="#e5e7eb" stroke-width="1"/>
<text x="-192.5" y="18" text-anchor="middle" font-size="12" fill="#6b7280" transform="rotate(-90)">People</text>
<path d="M 72.0,340 L 72.0,120.1 L 77.4,120.1 L 82.8,120.1 L 88.2,119.5 L 93.6,119.5 L 99.1,119.1 L 104.5,118.9 L 109.9,119.1 L 115.3,118.6 L 120.7,118.6 L 126.1,118.6 L 131.5,118.6 L 136.9,118.6 L 142.3,118.6 L 147.8,118.6 L 153.2,118.6 L 158.6,118.4 L 164.0,117.8 L 169.4,116.6 L 174.8,116.0 L 180.2,115.8 L 185.6,115.8 L 191.0,115.2 L 196.4,113.8 L 201.9,113.0 L 207.3,113.0 L 212.7,112.1 L 218.1,111.7 L 223.5,110.9 L 228.9,110.3 L 234.3,109.7 L 239.7,109.1 L 245.1,109.1 L 250.6,107.7 L 256.0,106.9 L 261.4,106.9 L 266.8,106.2 L 272.2,105.8 L 277.6,105.6 L 283.0,105.4 L 288.4,105.4 L 293.8,104.8 L 299.3,102.4 L 304.7,101.0 L 310.1,100.3 L 315.5,100.1 L 320.9,99.7 L 326.3,98.9 L 331.7,98.5 L 337.1,98.1 L 342.5,97.7 L 348.0,97.3 L 353.4,96.9 L 358.8,96.9 L 364.2,95.0 L 369.6,95.0 L 375.0,94.8 L 380.4,94.6 L 385.8,94.2 L 391.2,94.2 L 396.7,93.2 L 402.1,92.0 L 407.5,91.6 L 412.9,92.0 L 418.3,91.8 L 423.7,91.6 L 429.1,91.6 L 434.5,91.2 L 439.9,90.4 L 445.3,90.0 L 450.8,89.6 L 456.2,89.4 L 461.6,89.4 L 467.0,88.7 L 472.4,88.3 L 477.8,88.3 L 483.2,86.7 L 488.6,86.7 L 494.0,86.7 L 499.5,86.7 L 504.9,86.5 L 510.3,85.9 L 515.7,85.1 L 521.1,84.7 L 526.5,84.7 L 531.9,84.3 L 537.3,82.8 L 542.7,81.8 L 548.2,81.6 L 553.6,81.4 L 559.0,80.8 L 564.4,79.6 L 569.8,79.2 L 575.2,78.8 L 580.6,77.6 L 586.0,77.4 L 591.4,77.4 L 596.9,77.4 L 602.3,77.3 L 607.7,76.1 L 613.1,75.9 L 618.5,75.7 L 623.9,75.7 L 629.3,75.3 L 634.7,73.7 L 640.1,73.5 L 645.6,73.3 L 651.0,73.3 L 656.4,72.5 L 661.8,72.3 L 667.2,72.1 L 672.6,71.6 L 678.0,70.8 L 683.4,70.8 L 688.8,70.8 L 694.2,70.8 L 699.7,70.4 L 705.1,69.8 L 710.5,69.6 L 715.9,69.0 L 721.3,68.8 L 726.7,68.6 L 732.1,67.8 L 737.5,67.2 L 742.9,67.0 L 748.4,67.0 L 753.8,65.3 L 759.2,64.7 L 764.6,64.5 L 770.0,64.5 L 770.0,340 Z" fill="url(#g2)" clip-path="url(#ca)"/>
<path d="M 72.0,120.1 L 77.4,120.1 L 82.8,120.1 L 88.2,119.5 L 93.6,119.5 L 99.1,119.1 L 104.5,118.9 L 109.9,119.1 L 115.3,118.6 L 120.7,118.6 L 126.1,118.6 L 131.5,118.6 L 136.9,118.6 L 142.3,118.6 L 147.8,118.6 L 153.2,118.6 L 158.6,118.4 L 164.0,117.8 L 169.4,116.6 L 174.8,116.0 L 180.2,115.8 L 185.6,115.8 L 191.0,115.2 L 196.4,113.8 L 201.9,113.0 L 207.3,113.0 L 212.7,112.1 L 218.1,111.7 L 223.5,110.9 L 228.9,110.3 L 234.3,109.7 L 239.7,109.1 L 245.1,109.1 L 250.6,107.7 L 256.0,106.9 L 261.4,106.9 L 266.8,106.2 L 272.2,105.8 L 277.6,105.6 L 283.0,105.4 L 288.4,105.4 L 293.8,104.8 L 299.3,102.4 L 304.7,101.0 L 310.1,100.3 L 315.5,100.1 L 320.9,99.7 L 326.3,98.9 L 331.7,98.5 L 337.1,98.1 L 342.5,97.7 L 348.0,97.3 L 353.4,96.9 L 358.8,96.9 L 364.2,95.0 L 369.6,95.0 L 375.0,94.8 L 380.4,94.6 L 385.8,94.2 L 391.2,94.2 L 396.7,93.2 L 402.1,92.0 L 407.5,91.6 L 412.9,92.0 L 418.3,91.8 L 423.7,91.6 L 429.1,91.6 L 434.5,91.2 L 439.9,90.4 L 445.3,90.0 L 450.8,89.6 L 456.2,89.4 L 461.6,89.4 L 467.0,88.7 L 472.4,88.3 L 477.8,88.3 L 483.2,86.7 L 488.6,86.7 L 494.0,86.7 L 499.5,86.7 L 504.9,86.5 L 510.3,85.9 L 515.7,85.1 L 521.1,84.7 L 526.5,84.7 L 531.9,84.3 L 537.3,82.8 L 542.7,81.8 L 548.2,81.6 L 553.6,81.4 L 559.0,80.8 L 564.4,79.6 L 569.8,79.2 L 575.2,78.8 L 580.6,77.6 L 586.0,77.4 L 591.4,77.4 L 596.9,77.4 L 602.3,77.3 L 607.7,76.1 L 613.1,75.9 L 618.5,75.7 L 623.9,75.7 L 629.3,75.3 L 634.7,73.7 L 640.1,73.5 L 645.6,73.3 L 651.0,73.3 L 656.4,72.5 L 661.8,72.3 L 667.2,72.1 L 672.6,71.6 L 678.0,70.8 L 683.4,70.8 L 688.8,70.8 L 694.2,70.8 L 699.7,70.4 L 705.1,69.8 L 710.5,69.6 L 715.9,69.0 L 721.3,68.8 L 726.7,68.6 L 732.1,67.8 L 737.5,67.2 L 742.9,67.0 L 748.4,67.0 L 753.8,65.3 L 759.2,64.7 L 764.6,64.5 L 770.0,64.5" fill="none" stroke="#4F8EF7" stroke-width="2.5" stroke-linejoin="round" clip-path="url(#ca)"/>
<path d="M 72.0,340 L 72.0,244.2 L 77.4,243.6 L 82.8,243.6 L 88.2,243.6 L 93.6,243.4 L 99.1,243.0 L 104.5,242.8 L 109.9,242.6 L 115.3,242.6 L 120.7,242.5 L 126.1,242.3 L 131.5,242.3 L 136.9,242.3 L 142.3,242.3 L 147.8,242.3 L 153.2,242.3 L 158.6,241.9 L 164.0,241.9 L 169.4,241.9 L 174.8,241.1 L 180.2,240.9 L 185.6,240.5 L 191.0,239.7 L 196.4,239.5 L 201.9,239.5 L 207.3,239.5 L 212.7,238.9 L 218.1,238.5 L 223.5,238.5 L 228.9,238.1 L 234.3,237.9 L 239.7,237.5 L 245.1,237.5 L 250.6,237.3 L 256.0,236.6 L 261.4,236.0 L 266.8,235.6 L 272.2,235.4 L 277.6,235.4 L 283.0,235.2 L 288.4,234.8 L 293.8,234.8 L 299.3,234.6 L 304.7,234.0 L 310.1,233.6 L 315.5,233.6 L 320.9,233.6 L 326.3,233.6 L 331.7,233.4 L 337.1,232.8 L 342.5,232.4 L 348.0,232.2 L 353.4,232.0 L 358.8,231.8 L 364.2,231.6 L 369.6,231.4 L 375.0,231.2 L 380.4,230.7 L 385.8,230.5 L 391.2,230.3 L 396.7,229.5 L 402.1,228.7 L 407.5,228.7 L 412.9,228.5 L 418.3,228.3 L 423.7,228.3 L 429.1,228.3 L 434.5,227.9 L 439.9,227.9 L 445.3,226.7 L 450.8,226.5 L 456.2,226.3 L 461.6,226.3 L 467.0,225.9 L 472.4,225.7 L 477.8,225.7 L 483.2,225.5 L 488.6,225.5 L 494.0,225.5 L 499.5,225.1 L 504.9,224.9 L 510.3,224.0 L 515.7,224.2 L 521.1,224.0 L 526.5,223.8 L 531.9,223.8 L 537.3,223.6 L 542.7,223.0 L 548.2,223.0 L 553.6,223.0 L 559.0,223.0 L 564.4,222.6 L 569.8,222.6 L 575.2,222.2 L 580.6,221.8 L 586.0,221.0 L 591.4,221.0 L 596.9,220.6 L 602.3,220.4 L 607.7,220.2 L 613.1,220.0 L 618.5,219.6 L 623.9,219.6 L 629.3,219.1 L 634.7,219.1 L 640.1,218.9 L 645.6,218.5 L 651.0,218.3 L 656.4,218.3 L 661.8,218.3 L 667.2,218.3 L 672.6,218.3 L 678.0,217.7 L 683.4,217.7 L 688.8,217.3 L 694.2,216.9 L 699.7,216.3 L 705.1,216.1 L 710.5,216.1 L 715.9,214.9 L 721.3,214.7 L 726.7,214.7 L 732.1,213.9 L 737.5,213.9 L 742.9,213.5 L 748.4,213.5 L 753.8,213.3 L 759.2,213.3 L 764.6,213.2 L 770.0,212.8 L 770.0,340 Z" fill="url(#g3)" clip-path="url(#ca)"/>
<path d="M 72.0,244.2 L 77.4,243.6 L 82.8,243.6 L 88.2,243.6 L 93.6,243.4 L 99.1,243.0 L 104.5,242.8 L 109.9,242.6 L 115.3,242.6 L 120.7,242.5 L 126.1,242.3 L 131.5,242.3 L 136.9,242.3 L 142.3,242.3 L 147.8,242.3 L 153.2,242.3 L 158.6,241.9 L 164.0,241.9 L 169.4,241.9 L 174.8,241.1 L 180.2,240.9 L 185.6,240.5 L 191.0,239.7 L 196.4,239.5 L 201.9,239.5 L 207.3,239.5 L 212.7,238.9 L 218.1,238.5 L 223.5,238.5 L 228.9,238.1 L 234.3,237.9 L 239.7,237.5 L 245.1,237.5 L 250.6,237.3 L 256.0,236.6 L 261.4,236.0 L 266.8,235.6 L 272.2,235.4 L 277.6,235.4 L 283.0,235.2 L 288.4,234.8 L 293.8,234.8 L 299.3,234.6 L 304.7,234.0 L 310.1,233.6 L 315.5,233.6 L 320.9,233.6 L 326.3,233.6 L 331.7,233.4 L 337.1,232.8 L 342.5,232.4 L 348.0,232.2 L 353.4,232.0 L 358.8,231.8 L 364.2,231.6 L 369.6,231.4 L 375.0,231.2 L 380.4,230.7 L 385.8,230.5 L 391.2,230.3 L 396.7,229.5 L 402.1,228.7 L 407.5,228.7 L 412.9,228.5 L 418.3,228.3 L 423.7,228.3 L 429.1,228.3 L 434.5,227.9 L 439.9,227.9 L 445.3,226.7 L 450.8,226.5 L 456.2,226.3 L 461.6,226.3 L 467.0,225.9 L 472.4,225.7 L 477.8,225.7 L 483.2,225.5 L 488.6,225.5 L 494.0,225.5 L 499.5,225.1 L 504.9,224.9 L 510.3,224.0 L 515.7,224.2 L 521.1,224.0 L 526.5,223.8 L 531.9,223.8 L 537.3,223.6 L 542.7,223.0 L 548.2,223.0 L 553.6,223.0 L 559.0,223.0 L 564.4,222.6 L 569.8,222.6 L 575.2,222.2 L 580.6,221.8 L 586.0,221.0 L 591.4,221.0 L 596.9,220.6 L 602.3,220.4 L 607.7,220.2 L 613.1,220.0 L 618.5,219.6 L 623.9,219.6 L 629.3,219.1 L 634.7,219.1 L 640.1,218.9 L 645.6,218.5 L 651.0,218.3 L 656.4,218.3 L 661.8,218.3 L 667.2,218.3 L 672.6,218.3 L 678.0,217.7 L 683.4,217.7 L 688.8,217.3 L 694.2,216.9 L 699.7,216.3 L 705.1,216.1 L 710.5,216.1 L 715.9,214.9 L 721.3,214.7 L 726.7,214.7 L 732.1,213.9 L 737.5,213.9 L 742.9,213.5 L 748.4,213.5 L 753.8,213.3 L 759.2,213.3 L 764.6,213.2 L 770.0,212.8" fill="none" stroke="#BF5AF2" stroke-width="2.5" stroke-linejoin="round" clip-path="url(#ca)"/>
<path d="M 72.0,340 L 72.0,291.4 L 77.4,290.8 L 82.8,290.8 L 88.2,290.8 L 93.6,290.6 L 99.1,290.2 L 104.5,290.0 L 109.9,289.7 L 115.3,289.7 L 120.7,289.5 L 126.1,289.3 L 131.5,289.3 L 136.9,289.3 L 142.3,289.3 L 147.8,289.3 L 153.2,289.3 L 158.6,288.9 L 164.0,288.9 L 169.4,289.1 L 174.8,288.5 L 180.2,288.7 L 185.6,288.1 L 191.0,287.5 L 196.4,287.3 L 201.9,287.5 L 207.3,287.5 L 212.7,286.9 L 218.1,286.7 L 223.5,286.7 L 228.9,286.3 L 234.3,286.1 L 239.7,285.7 L 245.1,285.7 L 250.6,285.5 L 256.0,284.9 L 261.4,284.3 L 266.8,283.9 L 272.2,283.9 L 277.6,283.9 L 283.0,283.8 L 288.4,283.4 L 293.8,283.4 L 299.3,283.2 L 304.7,282.6 L 310.1,282.4 L 315.5,282.4 L 320.9,282.4 L 326.3,282.4 L 331.7,282.2 L 337.1,281.6 L 342.5,281.4 L 348.0,281.2 L 353.4,281.0 L 358.8,281.0 L 364.2,280.8 L 369.6,280.8 L 375.0,280.8 L 380.4,280.2 L 385.8,280.2 L 391.2,280.2 L 396.7,279.8 L 402.1,279.2 L 407.5,279.2 L 412.9,279.0 L 418.3,278.8 L 423.7,278.8 L 429.1,278.8 L 434.5,278.4 L 439.9,278.4 L 445.3,277.3 L 450.8,277.1 L 456.2,276.9 L 461.6,276.9 L 467.0,276.7 L 472.4,276.7 L 477.8,276.7 L 483.2,276.7 L 488.6,276.7 L 494.0,276.7 L 499.5,276.3 L 504.9,276.1 L 510.3,275.1 L 515.7,275.3 L 521.1,275.3 L 526.5,275.1 L 531.9,275.1 L 537.3,275.1 L 542.7,274.7 L 548.2,274.7 L 553.6,274.7 L 559.0,274.7 L 564.4,274.7 L 569.8,274.7 L 575.2,274.5 L 580.6,274.5 L 586.0,273.7 L 591.4,273.7 L 596.9,273.5 L 602.3,273.3 L 607.7,273.1 L 613.1,272.9 L 618.5,272.5 L 623.9,272.5 L 629.3,272.0 L 634.7,272.0 L 640.1,271.8 L 645.6,271.6 L 651.0,271.6 L 656.4,271.6 L 661.8,271.6 L 667.2,271.6 L 672.6,271.6 L 678.0,271.0 L 683.4,271.0 L 688.8,270.6 L 694.2,270.2 L 699.7,269.6 L 705.1,269.4 L 710.5,269.4 L 715.9,268.4 L 721.3,268.2 L 726.7,268.2 L 732.1,267.6 L 737.5,267.6 L 742.9,267.4 L 748.4,267.4 L 753.8,267.6 L 759.2,267.8 L 764.6,267.6 L 770.0,267.2 L 770.0,340 Z" fill="url(#g4)" clip-path="url(#ca)"/>
<path d="M 72.0,291.4 L 77.4,290.8 L 82.8,290.8 L 88.2,290.8 L 93.6,290.6 L 99.1,290.2 L 104.5,290.0 L 109.9,289.7 L 115.3,289.7 L 120.7,289.5 L 126.1,289.3 L 131.5,289.3 L 136.9,289.3 L 142.3,289.3 L 147.8,289.3 L 153.2,289.3 L 158.6,288.9 L 164.0,288.9 L 169.4,289.1 L 174.8,288.5 L 180.2,288.7 L 185.6,288.1 L 191.0,287.5 L 196.4,287.3 L 201.9,287.5 L 207.3,287.5 L 212.7,286.9 L 218.1,286.7 L 223.5,286.7 L 228.9,286.3 L 234.3,286.1 L 239.7,285.7 L 245.1,285.7 L 250.6,285.5 L 256.0,284.9 L 261.4,284.3 L 266.8,283.9 L 272.2,283.9 L 277.6,283.9 L 283.0,283.8 L 288.4,283.4 L 293.8,283.4 L 299.3,283.2 L 304.7,282.6 L 310.1,282.4 L 315.5,282.4 L 320.9,282.4 L 326.3,282.4 L 331.7,282.2 L 337.1,281.6 L 342.5,281.4 L 348.0,281.2 L 353.4,281.0 L 358.8,281.0 L 364.2,280.8 L 369.6,280.8 L 375.0,280.8 L 380.4,280.2 L 385.8,280.2 L 391.2,280.2 L 396.7,279.8 L 402.1,279.2 L 407.5,279.2 L 412.9,279.0 L 418.3,278.8 L 423.7,278.8 L 429.1,278.8 L 434.5,278.4 L 439.9,278.4 L 445.3,277.3 L 450.8,277.1 L 456.2,276.9 L 461.6,276.9 L 467.0,276.7 L 472.4,276.7 L 477.8,276.7 L 483.2,276.7 L 488.6,276.7 L 494.0,276.7 L 499.5,276.3 L 504.9,276.1 L 510.3,275.1 L 515.7,275.3 L 521.1,275.3 L 526.5,275.1 L 531.9,275.1 L 537.3,275.1 L 542.7,274.7 L 548.2,274.7 L 553.6,274.7 L 559.0,274.7 L 564.4,274.7 L 569.8,274.7 L 575.2,274.5 L 580.6,274.5 L 586.0,273.7 L 591.4,273.7 L 596.9,273.5 L 602.3,273.3 L 607.7,273.1 L 613.1,272.9 L 618.5,272.5 L 623.9,272.5 L 629.3,272.0 L 634.7,272.0 L 640.1,271.8 L 645.6,271.6 L 651.0,271.6 L 656.4,271.6 L 661.8,271.6 L 667.2,271.6 L 672.6,271.6 L 678.0,271.0 L 683.4,271.0 L 688.8,270.6 L 694.2,270.2 L 699.7,269.6 L 705.1,269.4 L 710.5,269.4 L 715.9,268.4 L 721.3,268.2 L 726.7,268.2 L 732.1,267.6 L 737.5,267.6 L 742.9,267.4 L 748.4,267.4 L 753.8,267.6 L 759.2,267.8 L 764.6,267.6 L 770.0,267.2" fill="none" stroke="#34C759" stroke-width="2.5" stroke-linejoin="round" clip-path="url(#ca)"/>
<text x="101.8" y="55.0" text-anchor="middle" font-size="9" fill="#4F8EF7" opacity="0.85" clip-path="url(#ca)">+0.5% (+8)</text>
<text x="101.8" y="66.0" text-anchor="middle" font-size="9" fill="#BF5AF2" opacity="0.85" clip-path="url(#ca)">+1.0% (+10)</text>
<text x="101.8" y="77.0" text-anchor="middle" font-size="9" fill="#34C759" opacity="0.85" clip-path="url(#ca)">+1.5% (+11)</text>
<text x="204.6" y="55.0" text-anchor="middle" font-size="9" fill="#4F8EF7" opacity="0.85" clip-path="url(#ca)">+4.0% (+65)</text>
<text x="204.6" y="66.0" text-anchor="middle" font-size="9" fill="#BF5AF2" opacity="0.85" clip-path="url(#ca)">+3.5% (+35)</text>
<text x="204.6" y="77.0" text-anchor="middle" font-size="9" fill="#34C759" opacity="0.85" clip-path="url(#ca)">+3.6% (+27)</text>
<text x="348.0" y="55.0" text-anchor="middle" font-size="9" fill="#4F8EF7" opacity="0.85" clip-path="url(#ca)">+4.1% (+70)</text>
<text x="348.0" y="66.0" text-anchor="middle" font-size="9" fill="#BF5AF2" opacity="0.85" clip-path="url(#ca)">+3.5% (+36)</text>
<text x="348.0" y="77.0" text-anchor="middle" font-size="9" fill="#34C759" opacity="0.85" clip-path="url(#ca)">+3.3% (+26)</text>
<text x="494.0" y="55.0" text-anchor="middle" font-size="9" fill="#4F8EF7" opacity="0.85" clip-path="url(#ca)">+3.5% (+61)</text>
<text x="494.0" y="66.0" text-anchor="middle" font-size="9" fill="#BF5AF2" opacity="0.85" clip-path="url(#ca)">+2.7% (+29)</text>
<text x="494.0" y="77.0" text-anchor="middle" font-size="9" fill="#34C759" opacity="0.85" clip-path="url(#ca)">+2.6% (+21)</text>
<text x="640.1" y="55.0" text-anchor="middle" font-size="9" fill="#4F8EF7" opacity="0.85" clip-path="url(#ca)">+2.7% (+49)</text>
<text x="640.1" y="66.0" text-anchor="middle" font-size="9" fill="#BF5AF2" opacity="0.85" clip-path="url(#ca)">+3.0% (+33)</text>
<text x="640.1" y="77.0" text-anchor="middle" font-size="9" fill="#34C759" opacity="0.85" clip-path="url(#ca)">+3.2% (+27)</text>
<text x="742.9" y="55.0" text-anchor="middle" font-size="9" fill="#4F8EF7" opacity="0.85" clip-path="url(#ca)">+1.2% (+23)</text>
<text x="742.9" y="66.0" text-anchor="middle" font-size="9" fill="#BF5AF2" opacity="0.85" clip-path="url(#ca)">+1.0% (+11)</text>
<text x="742.9" y="77.0" text-anchor="middle" font-size="9" fill="#34C759" opacity="0.85" clip-path="url(#ca)">+0.7% (+6)</text>
<rect x="211" y="369" width="12" height="12" fill="#4F8EF7" rx="2"/>
<text x="227" y="379" font-size="12" fill="#111827">Authors</text>
<rect x="351" y="369" width="12" height="12" fill="#BF5AF2" rx="2"/>
<text x="367" y="379" font-size="12" fill="#111827">Contributors</text>
<rect x="491" y="369" width="12" height="12" fill="#34C759" rx="2"/>
<text x="507" y="379" font-size="12" fill="#111827">Non-author contributors</text>
<text x="72" y="394" font-size="8" fill="#e5e7eb">data since Dec 11, 2025</text>
</svg>