<svg xmlns="http://www.w3.org/2000/svg" width="800" height="400" viewBox="0 0 800 400">
<defs>
  <style>text { font-family: -apple-system, BlinkMacSystemFont, 'Segoe UI', Roboto, sans-serif; }</style>
  <linearGradient id="g1" x1="0" y1="0" x2="0" y2="1">
  <stop offset="0%" stop-color="#FF6363" stop-opacity="0.25"/>
  <stop offset="100%" stop-color="#FF6363" stop-opacity="0"/>
</linearGradient>
  <clipPath id="ca"><rect x="72" y="45" width="698" height="295"/></clipPath>
</defs>
<rect width="800" height="400" fill="#ffffff" rx="12"/>
<text x="400" y="26" text-anchor="middle" font-size="15" font-weight="600" fill="#111827">Packages Growth Over Time</text>
<line x1="72" y1="340.0" x2="770" y2="340.0" stroke="#f3f4f6" stroke-width="1"/>
<text x="66" y="344.0" text-anchor="end" font-size="11" fill="#6b7280">2.4k</text>
<line x1="72" y1="281.0" x2="770" y2="281.0" stroke="#f3f4f6" stroke-width="1"/>
<text x="66" y="285.0" text-anchor="end" font-size="11" fill="#6b7280">2.5k</text>
<line x1="72" y1="222.0" x2="770" y2="222.0" stroke="#f3f4f6" stroke-width="1"/>
<text x="66" y="226.0" text-anchor="end" font-size="11" fill="#6b7280">2.6k</text>
<line x1="72" y1="163.0" x2="770" y2="163.0" stroke="#f3f4f6" stroke-width="1"/>
<text x="66" y="167.0" text-anchor="end" font-size="11" fill="#6b7280">2.6k</text>
<line x1="72" y1="104.0" x2="770" y2="104.0" stroke="#f3f4f6" stroke-width="1"/>
<text x="66" y="108.0" text-anchor="end" font-size="11" fill="#6b7280">2.7k</text>
<line x1="72" y1="45.0" x2="770" y2="45.0" stroke="#f3f4f6" stroke-width="1"/>
<text x="66" y="49.0" text-anchor="end" font-size="11" fill="#6b7280">2.8k</text>
<line x1="182.2" y1="45" x2="182.2" y2="340" stroke="#e5e7eb" stroke-width="1" stroke-dasharray="3,3" clip-path="url(#ca)"/>
<line x1="421.0" y1="45" x2="421.0" y2="340" stroke="#e5e7eb" stroke-width="1" stroke-dasharray="3,3" clip-path="url(#ca)"/>
<line x1="669.0" y1="45" x2="669.0" y2="340" stroke="#e5e7eb" stroke-width="1" stroke-dasharray="3,3" clip-path="url(#ca)"/>
<text x="72.0" y="358.0" text-anchor="middle" font-size="11" fill="#6b7280">Dec 11</text>
<text x="209.8" y="358.0" text-anchor="middle" font-size="11" fill="#6b7280">Jan 6</text>
<text x="347.5" y="358.0" text-anchor="middle" font-size="11" fill="#6b7280">Jan 24</text>
<text x="494.5" y="358.0" text-anchor="middle" font-size="11" fill="#6b7280">Feb 9</text>
<text x="632.2" y="358.0" text-anchor="middle" font-size="11" fill="#6b7280">Feb 25</text>
<text x="770.0" y="358.0" text-anchor="middle" font-size="11" fill="#6b7280">Mar 13</text>
<line x1="72" y1="45" x2="72" y2="340" stroke="#e5e7eb" stroke-width="1"/>
<line x1="72" y1="340" x2="770" y2="340" stroke="#e5e7eb" stroke-width="1"/>
<text x="-192.5" y="18" text-anchor="middle" font-size="12" fill="#6b7280" transform="rotate(-90)">Extensions</text>
<path d="M 72.0,340 L 72.0,315.4 L 81.2,314.5 L 90.4,314.5 L 99.6,311.9 L 108.7,311.9 L 117.9,310.1 L 127.1,308.4 L 136.3,307.5 L 145.5,303.1 L 154.7,299.6 L 163.8,299.6 L 173.0,299.6 L 182.2,299.6 L 191.4,297.8 L 200.6,297.8 L 209.8,297.8 L 218.9,296.0 L 228.1,292.5 L 237.3,286.3 L 246.5,281.9 L 255.7,280.2 L 264.9,279.3 L 274.1,275.8 L 283.2,265.2 L 292.4,261.7 L 301.6,261.7 L 310.8,252.9 L 320.0,250.2 L 329.2,246.7 L 338.3,244.0 L 347.5,238.8 L 356.7,234.4 L 365.9,233.5 L 375.1,226.4 L 384.3,220.3 L 393.4,220.3 L 402.6,215.8 L 411.8,212.3 L 421.0,211.4 L 430.2,210.6 L 439.4,209.7 L 448.6,207.0 L 457.7,191.2 L 466.9,184.1 L 476.1,180.6 L 485.3,178.8 L 494.5,176.2 L 503.7,170.0 L 512.8,168.3 L 522.0,166.5 L 531.2,161.2 L 540.4,159.5 L 549.6,157.7 L 558.8,157.7 L 567.9,141.8 L 577.1,140.1 L 586.3,138.3 L 595.5,134.8 L 604.7,130.4 L 613.9,130.4 L 623.1,123.3 L 632.2,111.9 L 641.4,110.1 L 650.6,111.0 L 659.8,108.4 L 669.0,107.5 L 678.2,107.5 L 687.3,102.2 L 696.5,97.8 L 705.7,94.3 L 714.9,89.8 L 724.1,89.0 L 733.3,89.0 L 742.4,82.8 L 751.6,81.0 L 760.8,80.2 L 770.0,69.6 L 770.0,340 Z" fill="url(#g1)" clip-path="url(#ca)"/>
<path d="M 72.0,315.4 L 81.2,314.5 L 90.4,314.5 L 99.6,311.9 L 108.7,311.9 L 117.9,310.1 L 127.1,308.4 L 136.3,307.5 L 145.5,303.1 L 154.7,299.6 L 163.8,299.6 L 173.0,299.6 L 182.2,299.6 L 191.4,297.8 L 200.6,297.8 L 209.8,297.8 L 218.9,296.0 L 228.1,292.5 L 237.3,286.3 L 246.5,281.9 L 255.7,280.2 L 264.9,279.3 L 274.1,275.8 L 283.2,265.2 L 292.4,261.7 L 301.6,261.7 L 310.8,252.9 L 320.0,250.2 L 329.2,246.7 L 338.3,244.0 L 347.5,238.8 L 356.7,234.4 L 365.9,233.5 L 375.1,226.4 L 384.3,220.3 L 393.4,220.3 L 402.6,215.8 L 411.8,212.3 L 421.0,211.4 L 430.2,210.6 L 439.4,209.7 L 448.6,207.0 L 457.7,191.2 L 466.9,184.1 L 476.1,180.6 L 485.3,178.8 L 494.5,176.2 L 503.7,170.0 L 512.8,168.3 L 522.0,166.5 L 531.2,161.2 L 540.4,159.5 L 549.6,157.7 L 558.8,157.7 L 567.9,141.8 L 577.1,140.1 L 586.3,138.3 L 595.5,134.8 L 604.7,130.4 L 613.9,130.4 L 623.1,123.3 L 632.2,111.9 L 641.4,110.1 L 650.6,111.0 L 659.8,108.4 L 669.0,107.5 L 678.2,107.5 L 687.3,102.2 L 696.5,97.8 L 705.7,94.3 L 714.9,89.8 L 724.1,89.0 L 733.3,89.0 L 742.4,82.8 L 751.6,81.0 L 760.8,80.2 L 770.0,69.6" fill="none" stroke="#FF6363" stroke-width="2.5" stroke-linejoin="round" clip-path="url(#ca)"/>
<text x="122.5" y="55.0" text-anchor="middle" font-size="9" fill="#FF6363" opacity="0.85" clip-path="url(#ca)">+0.7%</text>
<text x="297.0" y="55.0" text-anchor="middle" font-size="9" fill="#FF6363" opacity="0.85" clip-path="url(#ca)">+4.0%</text>
<text x="540.4" y="55.0" text-anchor="middle" font-size="9" fill="#FF6363" opacity="0.85" clip-path="url(#ca)">+4.5%</text>
<text x="719.5" y="55.0" text-anchor="middle" font-size="9" fill="#FF6363" opacity="0.85" clip-path="url(#ca)">+1.6%</text>
<rect x="351" y="369" width="12" height="12" fill="#FF6363" rx="2"/>
<text x="367" y="379" font-size="12" fill="#111827">Extensions</text>
<text x="72" y="394" font-size="8" fill="#e5e7eb">data since Dec 11, 2025</text>
</svg>