<svg xmlns="http://www.w3.org/2000/svg" width="800" height="400" viewBox="0 0 800 400">
<defs><style>text { font-family: -apple-system, BlinkMacSystemFont, 'Segoe UI', Roboto, sans-serif; }</style></defs>
<rect width="800" height="400" fill="#ffffff" rx="12"/>
<text x="400" y="26" text-anchor="middle" font-size="15" font-weight="600" fill="#111827">Contributor Distribution</text>
<path d="M 220.00 60.00 A 140 140 0 1 1 102.41 275.98 L 147.77 246.67 A 86 86 0 1 0 220.00 114.00 Z" fill="#4F8EF7"/>
<path d="M 102.41 275.98 A 140 140 0 0 1 102.24 124.29 L 147.66 153.49 A 86 86 0 0 0 147.77 246.67 Z" fill="#34C759"/>
<path d="M 102.24 124.29 A 140 140 0 0 1 139.86 85.21 L 170.77 129.49 A 86 86 0 0 0 147.66 153.49 Z" fill="#BF5AF2"/>
<path d="M 139.86 85.21 A 140 140 0 0 1 165.63 70.99 L 186.60 120.75 A 86 86 0 0 0 170.77 129.49 Z" fill="#FF9F0A"/>
<path d="M 165.63 70.99 A 140 140 0 0 1 220.00 60.00 L 220.00 114.00 A 86 86 0 0 0 186.60 120.75 Z" fill="#FF6363"/>
<text x="220" y="190" text-anchor="middle" font-size="28" font-weight="700" fill="#111827">2,804</text>
<text x="220" y="214" text-anchor="middle" font-size="12" fill="#6b7280">extensions</text>
<rect x="430" y="80" width="14" height="14" fill="#4F8EF7" rx="3"/>
<text x="450" y="91" font-size="13" font-weight="500" fill="#111827">Only author</text>
<text x="450" y="107" font-size="11" fill="#6b7280">1,847 (65.9%)</text>
<rect x="430" y="132" width="14" height="14" fill="#34C759" rx="3"/>
<text x="450" y="143" font-size="13" font-weight="500" fill="#111827">1 contributor</text>
<text x="450" y="159" font-size="11" fill="#6b7280">511 (18.2%)</text>
<rect x="430" y="184" width="14" height="14" fill="#BF5AF2" rx="3"/>
<text x="450" y="195" font-size="13" font-weight="500" fill="#111827">2 contributors</text>
<text x="450" y="211" font-size="11" fill="#6b7280">174 (6.2%)</text>
<rect x="430" y="236" width="14" height="14" fill="#FF9F0A" rx="3"/>
<text x="450" y="247" font-size="13" font-weight="500" fill="#111827">3 contributors</text>
<text x="450" y="263" font-size="11" fill="#6b7280">94 (3.4%)</text>
<rect x="430" y="288" width="14" height="14" fill="#FF6363" rx="3"/>
<text x="450" y="299" font-size="13" font-weight="500" fill="#111827">4+ contributors</text>
<text x="450" y="315" font-size="11" fill="#6b7280">178 (6.3%)</text>
</svg>