<svg xmlns="http://www.w3.org/2000/svg" width="800" height="400" viewBox="0 0 800 400">
<defs>
  <style>text { font-family: -apple-system, BlinkMacSystemFont, 'Segoe UI', Roboto, sans-serif; }</style>
  <linearGradient id="g2" x1="0" y1="0" x2="0" y2="1">
  <stop offset="0%" stop-color="#4F8EF7" stop-opacity="0.25"/>
  <stop offset="100%" stop-color="#4F8EF7" stop-opacity="0"/>
</linearGradient>
<linearGradient id="g3" x1="0" y1="0" x2="0" y2="1">
  <stop offset="0%" stop-color="#BF5AF2" stop-opacity="0.25"/>
  <stop offset="100%" stop-color="#BF5AF2" stop-opacity="0"/>
</linearGradient>
<linearGradient id="g4" x1="0" y1="0" x2="0" y2="1">
  <stop offset="0%" stop-color="#34C759" stop-opacity="0.25"/>
  <stop offset="100%" stop-color="#34C759" stop-opacity="0"/>
</linearGradient>
  <clipPath id="ca"><rect x="72" y="45" width="698" height="295"/></clipPath>
</defs>
<rect width="800" height="400" fill="#ffffff" rx="12"/>
<text x="400" y="26" text-anchor="middle" font-size="15" font-weight="600" fill="#111827">Community Growth Over Time</text>
<line x1="72" y1="340.0" x2="770" y2="340.0" stroke="#f3f4f6" stroke-width="1"/>
<text x="66" y="344.0" text-anchor="end" font-size="11" fill="#6b7280">500</text>
<line x1="72" y1="241.7" x2="770" y2="241.7" stroke="#f3f4f6" stroke-width="1"/>
<text x="66" y="245.7" text-anchor="end" font-size="11" fill="#6b7280">1.0k</text>
<line x1="72" y1="143.3" x2="770" y2="143.3" stroke="#f3f4f6" stroke-width="1"/>
<text x="66" y="147.3" text-anchor="end" font-size="11" fill="#6b7280">1.5k</text>
<line x1="72" y1="45.0" x2="770" y2="45.0" stroke="#f3f4f6" stroke-width="1"/>
<text x="66" y="49.0" text-anchor="end" font-size="11" fill="#6b7280">2.0k</text>
<line x1="124.3" y1="45" x2="124.3" y2="340" stroke="#e5e7eb" stroke-width="1" stroke-dasharray="3,3" clip-path="url(#ca)"/>
<line x1="237.8" y1="45" x2="237.8" y2="340" stroke="#e5e7eb" stroke-width="1" stroke-dasharray="3,3" clip-path="url(#ca)"/>
<line x1="355.6" y1="45" x2="355.6" y2="340" stroke="#e5e7eb" stroke-width="1" stroke-dasharray="3,3" clip-path="url(#ca)"/>
<line x1="473.3" y1="45" x2="473.3" y2="340" stroke="#e5e7eb" stroke-width="1" stroke-dasharray="3,3" clip-path="url(#ca)"/>
<line x1="591.1" y1="45" x2="591.1" y2="340" stroke="#e5e7eb" stroke-width="1" stroke-dasharray="3,3" clip-path="url(#ca)"/>
<line x1="704.6" y1="45" x2="704.6" y2="340" stroke="#e5e7eb" stroke-width="1" stroke-dasharray="3,3" clip-path="url(#ca)"/>
<text x="72.0" y="358.0" text-anchor="middle" font-size="11" fill="#6b7280">Dec 11</text>
<text x="211.6" y="358.0" text-anchor="middle" font-size="11" fill="#6b7280">Jan 26</text>
<text x="351.2" y="358.0" text-anchor="middle" font-size="11" fill="#6b7280">Feb 28</text>
<text x="490.8" y="358.0" text-anchor="middle" font-size="11" fill="#6b7280">Apr 5</text>
<text x="630.4" y="358.0" text-anchor="middle" font-size="11" fill="#6b7280">May 14</text>
<text x="770.0" y="358.0" text-anchor="middle" font-size="11" fill="#6b7280">Jun 20</text>
<line x1="72" y1="45" x2="72" y2="340" stroke="#e5e7eb" stroke-width="1"/>
<line x1="72" y1="340" x2="770" y2="340" stroke="#e5e7eb" stroke-width="1"/>
<text x="-192.5" y="18" text-anchor="middle" font-size="12" fill="#6b7280" transform="rotate(-90)">People</text>
<path d="M 72.0,340 L 72.0,120.1 L 76.4,120.1 L 80.7,120.1 L 85.1,119.5 L 89.5,119.5 L 93.8,119.1 L 98.2,118.9 L 102.5,119.1 L 106.9,118.6 L 111.3,118.6 L 115.6,118.6 L 120.0,118.6 L 124.3,118.6 L 128.7,118.6 L 133.1,118.6 L 137.4,118.6 L 141.8,118.4 L 146.2,117.8 L 150.5,116.6 L 154.9,116.0 L 159.3,115.8 L 163.6,115.8 L 168.0,115.2 L 172.3,113.8 L 176.7,113.0 L 181.1,113.0 L 185.4,112.1 L 189.8,111.7 L 194.1,110.9 L 198.5,110.3 L 202.9,109.7 L 207.2,109.1 L 211.6,109.1 L 216.0,107.7 L 220.3,106.9 L 224.7,106.9 L 229.1,106.2 L 233.4,105.8 L 237.8,105.6 L 242.1,105.4 L 246.5,105.4 L 250.9,104.8 L 255.2,102.4 L 259.6,101.0 L 264.0,100.3 L 268.3,100.1 L 272.7,99.7 L 277.0,98.9 L 281.4,98.5 L 285.8,98.1 L 290.1,97.7 L 294.5,97.3 L 298.9,96.9 L 303.2,96.9 L 307.6,95.0 L 311.9,95.0 L 316.3,94.8 L 320.7,94.6 L 325.0,94.2 L 329.4,94.2 L 333.8,93.2 L 338.1,92.0 L 342.5,91.6 L 346.8,92.0 L 351.2,91.8 L 355.6,91.6 L 359.9,91.6 L 364.3,91.2 L 368.6,90.4 L 373.0,90.0 L 377.4,89.6 L 381.7,89.4 L 386.1,89.4 L 390.5,88.7 L 394.8,88.3 L 399.2,88.3 L 403.6,86.7 L 407.9,86.7 L 412.3,86.7 L 416.6,86.7 L 421.0,86.5 L 425.4,85.9 L 429.7,85.1 L 434.1,84.7 L 438.4,84.7 L 442.8,84.3 L 447.2,82.8 L 451.5,81.8 L 455.9,81.6 L 460.3,81.4 L 464.6,80.8 L 469.0,79.6 L 473.3,79.2 L 477.7,78.8 L 482.1,77.6 L 486.4,77.4 L 490.8,77.4 L 495.2,77.4 L 499.5,77.3 L 503.9,76.1 L 508.3,75.9 L 512.6,75.7 L 517.0,75.7 L 521.3,75.3 L 525.7,73.7 L 530.1,73.5 L 534.4,73.3 L 538.8,73.3 L 543.2,72.5 L 547.5,72.3 L 551.9,72.1 L 556.2,71.6 L 560.6,70.8 L 565.0,70.8 L 569.3,70.8 L 573.7,70.8 L 578.0,70.4 L 582.4,69.8 L 586.8,69.6 L 591.1,69.0 L 595.5,68.8 L 599.9,68.6 L 604.2,67.8 L 608.6,67.2 L 613.0,67.0 L 617.3,67.0 L 621.7,65.3 L 626.0,64.7 L 630.4,64.5 L 634.8,64.5 L 639.1,63.5 L 643.5,63.5 L 647.9,62.9 L 652.2,62.3 L 656.6,60.9 L 660.9,60.7 L 665.3,60.5 L 669.7,60.3 L 674.0,60.3 L 678.4,60.1 L 682.8,59.2 L 687.1,58.6 L 691.5,58.6 L 695.8,58.4 L 700.2,58.4 L 704.6,57.8 L 708.9,57.6 L 713.3,57.4 L 717.6,56.8 L 722.0,56.0 L 726.4,56.0 L 730.7,55.8 L 735.1,55.6 L 739.5,54.6 L 743.8,53.3 L 748.2,53.1 L 752.5,52.7 L 756.9,52.3 L 761.3,52.1 L 765.6,51.5 L 770.0,50.7 L 770.0,340 Z" fill="url(#g2)" clip-path="url(#ca)"/>
<path d="M 72.0,120.1 L 76.4,120.1 L 80.7,120.1 L 85.1,119.5 L 89.5,119.5 L 93.8,119.1 L 98.2,118.9 L 102.5,119.1 L 106.9,118.6 L 111.3,118.6 L 115.6,118.6 L 120.0,118.6 L 124.3,118.6 L 128.7,118.6 L 133.1,118.6 L 137.4,118.6 L 141.8,118.4 L 146.2,117.8 L 150.5,116.6 L 154.9,116.0 L 159.3,115.8 L 163.6,115.8 L 168.0,115.2 L 172.3,113.8 L 176.7,113.0 L 181.1,113.0 L 185.4,112.1 L 189.8,111.7 L 194.1,110.9 L 198.5,110.3 L 202.9,109.7 L 207.2,109.1 L 211.6,109.1 L 216.0,107.7 L 220.3,106.9 L 224.7,106.9 L 229.1,106.2 L 233.4,105.8 L 237.8,105.6 L 242.1,105.4 L 246.5,105.4 L 250.9,104.8 L 255.2,102.4 L 259.6,101.0 L 264.0,100.3 L 268.3,100.1 L 272.7,99.7 L 277.0,98.9 L 281.4,98.5 L 285.8,98.1 L 290.1,97.7 L 294.5,97.3 L 298.9,96.9 L 303.2,96.9 L 307.6,95.0 L 311.9,95.0 L 316.3,94.8 L 320.7,94.6 L 325.0,94.2 L 329.4,94.2 L 333.8,93.2 L 338.1,92.0 L 342.5,91.6 L 346.8,92.0 L 351.2,91.8 L 355.6,91.6 L 359.9,91.6 L 364.3,91.2 L 368.6,90.4 L 373.0,90.0 L 377.4,89.6 L 381.7,89.4 L 386.1,89.4 L 390.5,88.7 L 394.8,88.3 L 399.2,88.3 L 403.6,86.7 L 407.9,86.7 L 412.3,86.7 L 416.6,86.7 L 421.0,86.5 L 425.4,85.9 L 429.7,85.1 L 434.1,84.7 L 438.4,84.7 L 442.8,84.3 L 447.2,82.8 L 451.5,81.8 L 455.9,81.6 L 460.3,81.4 L 464.6,80.8 L 469.0,79.6 L 473.3,79.2 L 477.7,78.8 L 482.1,77.6 L 486.4,77.4 L 490.8,77.4 L 495.2,77.4 L 499.5,77.3 L 503.9,76.1 L 508.3,75.9 L 512.6,75.7 L 517.0,75.7 L 521.3,75.3 L 525.7,73.7 L 530.1,73.5 L 534.4,73.3 L 538.8,73.3 L 543.2,72.5 L 547.5,72.3 L 551.9,72.1 L 556.2,71.6 L 560.6,70.8 L 565.0,70.8 L 569.3,70.8 L 573.7,70.8 L 578.0,70.4 L 582.4,69.8 L 586.8,69.6 L 591.1,69.0 L 595.5,68.8 L 599.9,68.6 L 604.2,67.8 L 608.6,67.2 L 613.0,67.0 L 617.3,67.0 L 621.7,65.3 L 626.0,64.7 L 630.4,64.5 L 634.8,64.5 L 639.1,63.5 L 643.5,63.5 L 647.9,62.9 L 652.2,62.3 L 656.6,60.9 L 660.9,60.7 L 665.3,60.5 L 669.7,60.3 L 674.0,60.3 L 678.4,60.1 L 682.8,59.2 L 687.1,58.6 L 691.5,58.6 L 695.8,58.4 L 700.2,58.4 L 704.6,57.8 L 708.9,57.6 L 713.3,57.4 L 717.6,56.8 L 722.0,56.0 L 726.4,56.0 L 730.7,55.8 L 735.1,55.6 L 739.5,54.6 L 743.8,53.3 L 748.2,53.1 L 752.5,52.7 L 756.9,52.3 L 761.3,52.1 L 765.6,51.5 L 770.0,50.7" fill="none" stroke="#4F8EF7" stroke-width="2.5" stroke-linejoin="round" clip-path="url(#ca)"/>
<path d="M 72.0,340 L 72.0,244.2 L 76.4,243.6 L 80.7,243.6 L 85.1,243.6 L 89.5,243.4 L 93.8,243.0 L 98.2,242.8 L 102.5,242.6 L 106.9,242.6 L 111.3,242.5 L 115.6,242.3 L 120.0,242.3 L 124.3,242.3 L 128.7,242.3 L 133.1,242.3 L 137.4,242.3 L 141.8,241.9 L 146.2,241.9 L 150.5,241.9 L 154.9,241.1 L 159.3,240.9 L 163.6,240.5 L 168.0,239.7 L 172.3,239.5 L 176.7,239.5 L 181.1,239.5 L 185.4,238.9 L 189.8,238.5 L 194.1,238.5 L 198.5,238.1 L 202.9,237.9 L 207.2,237.5 L 211.6,237.5 L 216.0,237.3 L 220.3,236.6 L 224.7,236.0 L 229.1,235.6 L 233.4,235.4 L 237.8,235.4 L 242.1,235.2 L 246.5,234.8 L 250.9,234.8 L 255.2,234.6 L 259.6,234.0 L 264.0,233.6 L 268.3,233.6 L 272.7,233.6 L 277.0,233.6 L 281.4,233.4 L 285.8,232.8 L 290.1,232.4 L 294.5,232.2 L 298.9,232.0 L 303.2,231.8 L 307.6,231.6 L 311.9,231.4 L 316.3,231.2 L 320.7,230.7 L 325.0,230.5 L 329.4,230.3 L 333.8,229.5 L 338.1,228.7 L 342.5,228.7 L 346.8,228.5 L 351.2,228.3 L 355.6,228.3 L 359.9,228.3 L 364.3,227.9 L 368.6,227.9 L 373.0,226.7 L 377.4,226.5 L 381.7,226.3 L 386.1,226.3 L 390.5,225.9 L 394.8,225.7 L 399.2,225.7 L 403.6,225.5 L 407.9,225.5 L 412.3,225.5 L 416.6,225.1 L 421.0,224.9 L 425.4,224.0 L 429.7,224.2 L 434.1,224.0 L 438.4,223.8 L 442.8,223.8 L 447.2,223.6 L 451.5,223.0 L 455.9,223.0 L 460.3,223.0 L 464.6,223.0 L 469.0,222.6 L 473.3,222.6 L 477.7,222.2 L 482.1,221.8 L 486.4,221.0 L 490.8,221.0 L 495.2,220.6 L 499.5,220.4 L 503.9,220.2 L 508.3,220.0 L 512.6,219.6 L 517.0,219.6 L 521.3,219.1 L 525.7,219.1 L 530.1,218.9 L 534.4,218.5 L 538.8,218.3 L 543.2,218.3 L 547.5,218.3 L 551.9,218.3 L 556.2,218.3 L 560.6,217.7 L 565.0,217.7 L 569.3,217.3 L 573.7,216.9 L 578.0,216.3 L 582.4,216.1 L 586.8,216.1 L 591.1,214.9 L 595.5,214.7 L 599.9,214.7 L 604.2,213.9 L 608.6,213.9 L 613.0,213.5 L 617.3,213.5 L 621.7,213.3 L 626.0,213.3 L 630.4,213.2 L 634.8,212.8 L 639.1,212.8 L 643.5,212.6 L 647.9,212.4 L 652.2,212.2 L 656.6,212.0 L 660.9,212.0 L 665.3,211.6 L 669.7,211.6 L 674.0,211.6 L 678.4,210.6 L 682.8,210.6 L 687.1,210.6 L 691.5,210.6 L 695.8,210.6 L 700.2,210.6 L 704.6,210.2 L 708.9,210.2 L 713.3,209.8 L 717.6,209.0 L 722.0,208.6 L 726.4,208.4 L 730.7,208.4 L 735.1,208.2 L 739.5,207.6 L 743.8,207.4 L 748.2,207.4 L 752.5,207.1 L 756.9,206.5 L 761.3,206.1 L 765.6,206.1 L 770.0,205.9 L 770.0,340 Z" fill="url(#g3)" clip-path="url(#ca)"/>
<path d="M 72.0,244.2 L 76.4,243.6 L 80.7,243.6 L 85.1,243.6 L 89.5,243.4 L 93.8,243.0 L 98.2,242.8 L 102.5,242.6 L 106.9,242.6 L 111.3,242.5 L 115.6,242.3 L 120.0,242.3 L 124.3,242.3 L 128.7,242.3 L 133.1,242.3 L 137.4,242.3 L 141.8,241.9 L 146.2,241.9 L 150.5,241.9 L 154.9,241.1 L 159.3,240.9 L 163.6,240.5 L 168.0,239.7 L 172.3,239.5 L 176.7,239.5 L 181.1,239.5 L 185.4,238.9 L 189.8,238.5 L 194.1,238.5 L 198.5,238.1 L 202.9,237.9 L 207.2,237.5 L 211.6,237.5 L 216.0,237.3 L 220.3,236.6 L 224.7,236.0 L 229.1,235.6 L 233.4,235.4 L 237.8,235.4 L 242.1,235.2 L 246.5,234.8 L 250.9,234.8 L 255.2,234.6 L 259.6,234.0 L 264.0,233.6 L 268.3,233.6 L 272.7,233.6 L 277.0,233.6 L 281.4,233.4 L 285.8,232.8 L 290.1,232.4 L 294.5,232.2 L 298.9,232.0 L 303.2,231.8 L 307.6,231.6 L 311.9,231.4 L 316.3,231.2 L 320.7,230.7 L 325.0,230.5 L 329.4,230.3 L 333.8,229.5 L 338.1,228.7 L 342.5,228.7 L 346.8,228.5 L 351.2,228.3 L 355.6,228.3 L 359.9,228.3 L 364.3,227.9 L 368.6,227.9 L 373.0,226.7 L 377.4,226.5 L 381.7,226.3 L 386.1,226.3 L 390.5,225.9 L 394.8,225.7 L 399.2,225.7 L 403.6,225.5 L 407.9,225.5 L 412.3,225.5 L 416.6,225.1 L 421.0,224.9 L 425.4,224.0 L 429.7,224.2 L 434.1,224.0 L 438.4,223.8 L 442.8,223.8 L 447.2,223.6 L 451.5,223.0 L 455.9,223.0 L 460.3,223.0 L 464.6,223.0 L 469.0,222.6 L 473.3,222.6 L 477.7,222.2 L 482.1,221.8 L 486.4,221.0 L 490.8,221.0 L 495.2,220.6 L 499.5,220.4 L 503.9,220.2 L 508.3,220.0 L 512.6,219.6 L 517.0,219.6 L 521.3,219.1 L 525.7,219.1 L 530.1,218.9 L 534.4,218.5 L 538.8,218.3 L 543.2,218.3 L 547.5,218.3 L 551.9,218.3 L 556.2,218.3 L 560.6,217.7 L 565.0,217.7 L 569.3,217.3 L 573.7,216.9 L 578.0,216.3 L 582.4,216.1 L 586.8,216.1 L 591.1,214.9 L 595.5,214.7 L 599.9,214.7 L 604.2,213.9 L 608.6,213.9 L 613.0,213.5 L 617.3,213.5 L 621.7,213.3 L 626.0,213.3 L 630.4,213.2 L 634.8,212.8 L 639.1,212.8 L 643.5,212.6 L 647.9,212.4 L 652.2,212.2 L 656.6,212.0 L 660.9,212.0 L 665.3,211.6 L 669.7,211.6 L 674.0,211.6 L 678.4,210.6 L 682.8,210.6 L 687.1,210.6 L 691.5,210.6 L 695.8,210.6 L 700.2,210.6 L 704.6,210.2 L 708.9,210.2 L 713.3,209.8 L 717.6,209.0 L 722.0,208.6 L 726.4,208.4 L 730.7,208.4 L 735.1,208.2 L 739.5,207.6 L 743.8,207.4 L 748.2,207.4 L 752.5,207.1 L 756.9,206.5 L 761.3,206.1 L 765.6,206.1 L 770.0,205.9" fill="none" stroke="#BF5AF2" stroke-width="2.5" stroke-linejoin="round" clip-path="url(#ca)"/>
<path d="M 72.0,340 L 72.0,291.4 L 76.4,290.8 L 80.7,290.8 L 85.1,290.8 L 89.5,290.6 L 93.8,290.2 L 98.2,290.0 L 102.5,289.7 L 106.9,289.7 L 111.3,289.5 L 115.6,289.3 L 120.0,289.3 L 124.3,289.3 L 128.7,289.3 L 133.1,289.3 L 137.4,289.3 L 141.8,288.9 L 146.2,288.9 L 150.5,289.1 L 154.9,288.5 L 159.3,288.7 L 163.6,288.1 L 168.0,287.5 L 172.3,287.3 L 176.7,287.5 L 181.1,287.5 L 185.4,286.9 L 189.8,286.7 L 194.1,286.7 L 198.5,286.3 L 202.9,286.1 L 207.2,285.7 L 211.6,285.7 L 216.0,285.5 L 220.3,284.9 L 224.7,284.3 L 229.1,283.9 L 233.4,283.9 L 237.8,283.9 L 242.1,283.8 L 246.5,283.4 L 250.9,283.4 L 255.2,283.2 L 259.6,282.6 L 264.0,282.4 L 268.3,282.4 L 272.7,282.4 L 277.0,282.4 L 281.4,282.2 L 285.8,281.6 L 290.1,281.4 L 294.5,281.2 L 298.9,281.0 L 303.2,281.0 L 307.6,280.8 L 311.9,280.8 L 316.3,280.8 L 320.7,280.2 L 325.0,280.2 L 329.4,280.2 L 333.8,279.8 L 338.1,279.2 L 342.5,279.2 L 346.8,279.0 L 351.2,278.8 L 355.6,278.8 L 359.9,278.8 L 364.3,278.4 L 368.6,278.4 L 373.0,277.3 L 377.4,277.1 L 381.7,276.9 L 386.1,276.9 L 390.5,276.7 L 394.8,276.7 L 399.2,276.7 L 403.6,276.7 L 407.9,276.7 L 412.3,276.7 L 416.6,276.3 L 421.0,276.1 L 425.4,275.1 L 429.7,275.3 L 434.1,275.3 L 438.4,275.1 L 442.8,275.1 L 447.2,275.1 L 451.5,274.7 L 455.9,274.7 L 460.3,274.7 L 464.6,274.7 L 469.0,274.7 L 473.3,274.7 L 477.7,274.5 L 482.1,274.5 L 486.4,273.7 L 490.8,273.7 L 495.2,273.5 L 499.5,273.3 L 503.9,273.1 L 508.3,272.9 L 512.6,272.5 L 517.0,272.5 L 521.3,272.0 L 525.7,272.0 L 530.1,271.8 L 534.4,271.6 L 538.8,271.6 L 543.2,271.6 L 547.5,271.6 L 551.9,271.6 L 556.2,271.6 L 560.6,271.0 L 565.0,271.0 L 569.3,270.6 L 573.7,270.2 L 578.0,269.6 L 582.4,269.4 L 586.8,269.4 L 591.1,268.4 L 595.5,268.2 L 599.9,268.2 L 604.2,267.6 L 608.6,267.6 L 613.0,267.4 L 617.3,267.4 L 621.7,267.6 L 626.0,267.8 L 630.4,267.6 L 634.8,267.2 L 639.1,267.4 L 643.5,267.2 L 647.9,267.0 L 652.2,267.0 L 656.6,267.0 L 660.9,267.0 L 665.3,266.6 L 669.7,266.6 L 674.0,266.6 L 678.4,265.9 L 682.8,265.9 L 687.1,265.9 L 691.5,265.9 L 695.8,265.9 L 700.2,265.9 L 704.6,265.5 L 708.9,265.5 L 713.3,265.1 L 717.6,264.3 L 722.0,264.1 L 726.4,264.1 L 730.7,264.1 L 735.1,264.1 L 739.5,263.7 L 743.8,263.5 L 748.2,263.5 L 752.5,263.3 L 756.9,262.7 L 761.3,262.3 L 765.6,262.3 L 770.0,262.1 L 770.0,340 Z" fill="url(#g4)" clip-path="url(#ca)"/>
<path d="M 72.0,291.4 L 76.4,290.8 L 80.7,290.8 L 85.1,290.8 L 89.5,290.6 L 93.8,290.2 L 98.2,290.0 L 102.5,289.7 L 106.9,289.7 L 111.3,289.5 L 115.6,289.3 L 120.0,289.3 L 124.3,289.3 L 128.7,289.3 L 133.1,289.3 L 137.4,289.3 L 141.8,288.9 L 146.2,288.9 L 150.5,289.1 L 154.9,288.5 L 159.3,288.7 L 163.6,288.1 L 168.0,287.5 L 172.3,287.3 L 176.7,287.5 L 181.1,287.5 L 185.4,286.9 L 189.8,286.7 L 194.1,286.7 L 198.5,286.3 L 202.9,286.1 L 207.2,285.7 L 211.6,285.7 L 216.0,285.5 L 220.3,284.9 L 224.7,284.3 L 229.1,283.9 L 233.4,283.9 L 237.8,283.9 L 242.1,283.8 L 246.5,283.4 L 250.9,283.4 L 255.2,283.2 L 259.6,282.6 L 264.0,282.4 L 268.3,282.4 L 272.7,282.4 L 277.0,282.4 L 281.4,282.2 L 285.8,281.6 L 290.1,281.4 L 294.5,281.2 L 298.9,281.0 L 303.2,281.0 L 307.6,280.8 L 311.9,280.8 L 316.3,280.8 L 320.7,280.2 L 325.0,280.2 L 329.4,280.2 L 333.8,279.8 L 338.1,279.2 L 342.5,279.2 L 346.8,279.0 L 351.2,278.8 L 355.6,278.8 L 359.9,278.8 L 364.3,278.4 L 368.6,278.4 L 373.0,277.3 L 377.4,277.1 L 381.7,276.9 L 386.1,276.9 L 390.5,276.7 L 394.8,276.7 L 399.2,276.7 L 403.6,276.7 L 407.9,276.7 L 412.3,276.7 L 416.6,276.3 L 421.0,276.1 L 425.4,275.1 L 429.7,275.3 L 434.1,275.3 L 438.4,275.1 L 442.8,275.1 L 447.2,275.1 L 451.5,274.7 L 455.9,274.7 L 460.3,274.7 L 464.6,274.7 L 469.0,274.7 L 473.3,274.7 L 477.7,274.5 L 482.1,274.5 L 486.4,273.7 L 490.8,273.7 L 495.2,273.5 L 499.5,273.3 L 503.9,273.1 L 508.3,272.9 L 512.6,272.5 L 517.0,272.5 L 521.3,272.0 L 525.7,272.0 L 530.1,271.8 L 534.4,271.6 L 538.8,271.6 L 543.2,271.6 L 547.5,271.6 L 551.9,271.6 L 556.2,271.6 L 560.6,271.0 L 565.0,271.0 L 569.3,270.6 L 573.7,270.2 L 578.0,269.6 L 582.4,269.4 L 586.8,269.4 L 591.1,268.4 L 595.5,268.2 L 599.9,268.2 L 604.2,267.6 L 608.6,267.6 L 613.0,267.4 L 617.3,267.4 L 621.7,267.6 L 626.0,267.8 L 630.4,267.6 L 634.8,267.2 L 639.1,267.4 L 643.5,267.2 L 647.9,267.0 L 652.2,267.0 L 656.6,267.0 L 660.9,267.0 L 665.3,266.6 L 669.7,266.6 L 674.0,266.6 L 678.4,265.9 L 682.8,265.9 L 687.1,265.9 L 691.5,265.9 L 695.8,265.9 L 700.2,265.9 L 704.6,265.5 L 708.9,265.5 L 713.3,265.1 L 717.6,264.3 L 722.0,264.1 L 726.4,264.1 L 730.7,264.1 L 735.1,264.1 L 739.5,263.7 L 743.8,263.5 L 748.2,263.5 L 752.5,263.3 L 756.9,262.7 L 761.3,262.3 L 765.6,262.3 L 770.0,262.1" fill="none" stroke="#34C759" stroke-width="2.5" stroke-linejoin="round" clip-path="url(#ca)"/>
<text x="96.0" y="55.0" text-anchor="middle" font-size="9" fill="#4F8EF7" opacity="0.85" clip-path="url(#ca)">+0.5% (+8)</text>
<text x="96.0" y="66.0" text-anchor="middle" font-size="9" fill="#BF5AF2" opacity="0.85" clip-path="url(#ca)">+1.0% (+10)</text>
<text x="96.0" y="77.0" text-anchor="middle" font-size="9" fill="#34C759" opacity="0.85" clip-path="url(#ca)">+1.5% (+11)</text>
<text x="178.9" y="55.0" text-anchor="middle" font-size="9" fill="#4F8EF7" opacity="0.85" clip-path="url(#ca)">+4.0% (+65)</text>
<text x="178.9" y="66.0" text-anchor="middle" font-size="9" fill="#BF5AF2" opacity="0.85" clip-path="url(#ca)">+3.5% (+35)</text>
<text x="178.9" y="77.0" text-anchor="middle" font-size="9" fill="#34C759" opacity="0.85" clip-path="url(#ca)">+3.6% (+27)</text>
<text x="294.5" y="55.0" text-anchor="middle" font-size="9" fill="#4F8EF7" opacity="0.85" clip-path="url(#ca)">+4.1% (+70)</text>
<text x="294.5" y="66.0" text-anchor="middle" font-size="9" fill="#BF5AF2" opacity="0.85" clip-path="url(#ca)">+3.5% (+36)</text>
<text x="294.5" y="77.0" text-anchor="middle" font-size="9" fill="#34C759" opacity="0.85" clip-path="url(#ca)">+3.3% (+26)</text>
<text x="412.3" y="55.0" text-anchor="middle" font-size="9" fill="#4F8EF7" opacity="0.85" clip-path="url(#ca)">+3.5% (+61)</text>
<text x="412.3" y="66.0" text-anchor="middle" font-size="9" fill="#BF5AF2" opacity="0.85" clip-path="url(#ca)">+2.7% (+29)</text>
<text x="412.3" y="77.0" text-anchor="middle" font-size="9" fill="#34C759" opacity="0.85" clip-path="url(#ca)">+2.6% (+21)</text>
<text x="530.1" y="55.0" text-anchor="middle" font-size="9" fill="#4F8EF7" opacity="0.85" clip-path="url(#ca)">+2.7% (+49)</text>
<text x="530.1" y="66.0" text-anchor="middle" font-size="9" fill="#BF5AF2" opacity="0.85" clip-path="url(#ca)">+3.0% (+33)</text>
<text x="530.1" y="77.0" text-anchor="middle" font-size="9" fill="#34C759" opacity="0.85" clip-path="url(#ca)">+3.2% (+27)</text>
<text x="645.7" y="55.0" text-anchor="middle" font-size="9" fill="#4F8EF7" opacity="0.85" clip-path="url(#ca)">+2.9% (+54)</text>
<text x="645.7" y="66.0" text-anchor="middle" font-size="9" fill="#BF5AF2" opacity="0.85" clip-path="url(#ca)">+1.9% (+22)</text>
<text x="645.7" y="77.0" text-anchor="middle" font-size="9" fill="#34C759" opacity="0.85" clip-path="url(#ca)">+1.5% (+13)</text>
<text x="737.3" y="55.0" text-anchor="middle" font-size="9" fill="#4F8EF7" opacity="0.85" clip-path="url(#ca)">+1.9% (+36)</text>
<text x="737.3" y="66.0" text-anchor="middle" font-size="9" fill="#BF5AF2" opacity="0.85" clip-path="url(#ca)">+1.9% (+22)</text>
<text x="737.3" y="77.0" text-anchor="middle" font-size="9" fill="#34C759" opacity="0.85" clip-path="url(#ca)">+1.9% (+17)</text>
<rect x="211" y="369" width="12" height="12" fill="#4F8EF7" rx="2"/>
<text x="227" y="379" font-size="12" fill="#111827">Authors</text>
<rect x="351" y="369" width="12" height="12" fill="#BF5AF2" rx="2"/>
<text x="367" y="379" font-size="12" fill="#111827">Contributors</text>
<rect x="491" y="369" width="12" height="12" fill="#34C759" rx="2"/>
<text x="507" y="379" font-size="12" fill="#111827">Non-author contributors</text>
<text x="72" y="394" font-size="8" fill="#e5e7eb">data since Dec 11, 2025</text>
</svg>