<svg xmlns="http://www.w3.org/2000/svg" width="800" height="400" viewBox="0 0 800 400">
<defs>
  <style>text { font-family: -apple-system, BlinkMacSystemFont, 'Segoe UI', Roboto, sans-serif; }</style>
  <linearGradient id="g1" x1="0" y1="0" x2="0" y2="1">
  <stop offset="0%" stop-color="#FF6363" stop-opacity="0.25"/>
  <stop offset="100%" stop-color="#FF6363" stop-opacity="0"/>
</linearGradient>
  <clipPath id="ca"><rect x="72" y="45" width="698" height="295"/></clipPath>
</defs>
<rect width="800" height="400" fill="#ffffff" rx="12"/>
<text x="400" y="26" text-anchor="middle" font-size="15" font-weight="600" fill="#111827">Packages Growth Over Time</text>
<line x1="72" y1="340.0" x2="770" y2="340.0" stroke="#f3f4f6" stroke-width="1"/>
<text x="66" y="344.0" text-anchor="end" font-size="11" fill="#6b7280">2.4k</text>
<line x1="72" y1="290.8" x2="770" y2="290.8" stroke="#f3f4f6" stroke-width="1"/>
<text x="66" y="294.8" text-anchor="end" font-size="11" fill="#6b7280">2.5k</text>
<line x1="72" y1="241.7" x2="770" y2="241.7" stroke="#f3f4f6" stroke-width="1"/>
<text x="66" y="245.7" text-anchor="end" font-size="11" fill="#6b7280">2.6k</text>
<line x1="72" y1="192.5" x2="770" y2="192.5" stroke="#f3f4f6" stroke-width="1"/>
<text x="66" y="196.5" text-anchor="end" font-size="11" fill="#6b7280">2.7k</text>
<line x1="72" y1="143.3" x2="770" y2="143.3" stroke="#f3f4f6" stroke-width="1"/>
<text x="66" y="147.3" text-anchor="end" font-size="11" fill="#6b7280">2.8k</text>
<line x1="72" y1="94.2" x2="770" y2="94.2" stroke="#f3f4f6" stroke-width="1"/>
<text x="66" y="98.2" text-anchor="end" font-size="11" fill="#6b7280">2.9k</text>
<line x1="72" y1="45.0" x2="770" y2="45.0" stroke="#f3f4f6" stroke-width="1"/>
<text x="66" y="49.0" text-anchor="end" font-size="11" fill="#6b7280">3.0k</text>
<line x1="135.0" y1="45" x2="135.0" y2="340" stroke="#e5e7eb" stroke-width="1" stroke-dasharray="3,3" clip-path="url(#ca)"/>
<line x1="271.4" y1="45" x2="271.4" y2="340" stroke="#e5e7eb" stroke-width="1" stroke-dasharray="3,3" clip-path="url(#ca)"/>
<line x1="413.1" y1="45" x2="413.1" y2="340" stroke="#e5e7eb" stroke-width="1" stroke-dasharray="3,3" clip-path="url(#ca)"/>
<line x1="554.8" y1="45" x2="554.8" y2="340" stroke="#e5e7eb" stroke-width="1" stroke-dasharray="3,3" clip-path="url(#ca)"/>
<line x1="696.5" y1="45" x2="696.5" y2="340" stroke="#e5e7eb" stroke-width="1" stroke-dasharray="3,3" clip-path="url(#ca)"/>
<text x="72.0" y="358.0" text-anchor="middle" font-size="11" fill="#6b7280">Dec 11</text>
<text x="213.7" y="358.0" text-anchor="middle" font-size="11" fill="#6b7280">Jan 21</text>
<text x="350.2" y="358.0" text-anchor="middle" font-size="11" fill="#6b7280">Feb 16</text>
<text x="491.8" y="358.0" text-anchor="middle" font-size="11" fill="#6b7280">Mar 17</text>
<text x="628.3" y="358.0" text-anchor="middle" font-size="11" fill="#6b7280">Apr 16</text>
<text x="770.0" y="358.0" text-anchor="middle" font-size="11" fill="#6b7280">May 20</text>
<line x1="72" y1="45" x2="72" y2="340" stroke="#e5e7eb" stroke-width="1"/>
<line x1="72" y1="340" x2="770" y2="340" stroke="#e5e7eb" stroke-width="1"/>
<text x="-192.5" y="18" text-anchor="middle" font-size="12" fill="#6b7280" transform="rotate(-90)">Extensions</text>
<path d="M 72.0,340 L 72.0,302.1 L 77.2,301.6 L 82.5,301.6 L 87.7,300.2 L 93.0,300.2 L 98.2,299.2 L 103.5,298.2 L 108.7,297.7 L 114.0,295.3 L 119.2,293.3 L 124.5,293.3 L 129.7,293.3 L 135.0,293.3 L 140.2,292.3 L 145.5,292.3 L 150.7,292.3 L 156.0,291.3 L 161.2,289.4 L 166.5,285.9 L 171.7,283.5 L 177.0,282.5 L 182.2,282.0 L 187.5,280.0 L 192.7,274.1 L 198.0,272.1 L 203.2,272.1 L 208.5,267.2 L 213.7,265.8 L 218.9,263.8 L 224.2,262.3 L 229.4,259.4 L 234.7,256.9 L 239.9,256.4 L 245.2,252.5 L 250.4,249.0 L 255.7,249.0 L 260.9,246.6 L 266.2,244.6 L 271.4,244.1 L 276.7,243.6 L 281.9,243.1 L 287.2,241.7 L 292.4,232.8 L 297.7,228.9 L 302.9,226.9 L 308.2,225.9 L 313.4,224.5 L 318.7,221.0 L 323.9,220.0 L 329.2,219.1 L 334.4,216.1 L 339.7,215.1 L 344.9,214.1 L 350.2,214.1 L 355.4,205.3 L 360.6,204.3 L 365.9,203.3 L 371.1,201.3 L 376.4,198.9 L 381.6,198.9 L 386.9,195.0 L 392.1,188.6 L 397.4,187.6 L 402.6,188.1 L 407.9,186.6 L 413.1,186.1 L 418.4,186.1 L 423.6,183.2 L 428.9,180.7 L 434.1,178.7 L 439.4,176.3 L 444.6,175.8 L 449.9,175.8 L 455.1,172.3 L 460.4,171.4 L 465.6,170.9 L 470.9,165.0 L 476.1,164.5 L 481.4,164.5 L 486.6,164.5 L 491.8,164.0 L 497.1,161.5 L 502.3,159.6 L 507.6,157.1 L 512.8,156.6 L 518.1,155.1 L 523.3,150.7 L 528.6,146.8 L 533.8,146.3 L 539.1,145.8 L 544.3,144.3 L 549.6,139.4 L 554.8,138.4 L 560.1,136.9 L 565.3,134.0 L 570.6,133.5 L 575.8,133.0 L 581.1,133.0 L 586.3,132.0 L 591.6,129.1 L 596.8,128.1 L 602.1,127.1 L 607.3,126.6 L 612.6,125.6 L 617.8,120.7 L 623.1,120.2 L 628.3,119.2 L 633.5,118.8 L 638.8,116.3 L 644.0,115.8 L 649.3,115.3 L 654.5,113.8 L 659.8,111.9 L 665.0,111.9 L 670.3,111.9 L 675.5,111.9 L 680.8,110.9 L 686.0,108.4 L 691.3,107.9 L 696.5,105.5 L 701.8,105.0 L 707.0,104.5 L 712.3,101.5 L 717.5,98.6 L 722.8,98.1 L 728.0,97.6 L 733.3,91.2 L 738.5,89.3 L 743.8,87.8 L 749.0,87.3 L 754.3,83.8 L 759.5,83.8 L 764.8,81.4 L 770.0,79.9 L 770.0,340 Z" fill="url(#g1)" clip-path="url(#ca)"/>
<path d="M 72.0,302.1 L 77.2,301.6 L 82.5,301.6 L 87.7,300.2 L 93.0,300.2 L 98.2,299.2 L 103.5,298.2 L 108.7,297.7 L 114.0,295.3 L 119.2,293.3 L 124.5,293.3 L 129.7,293.3 L 135.0,293.3 L 140.2,292.3 L 145.5,292.3 L 150.7,292.3 L 156.0,291.3 L 161.2,289.4 L 166.5,285.9 L 171.7,283.5 L 177.0,282.5 L 182.2,282.0 L 187.5,280.0 L 192.7,274.1 L 198.0,272.1 L 203.2,272.1 L 208.5,267.2 L 213.7,265.8 L 218.9,263.8 L 224.2,262.3 L 229.4,259.4 L 234.7,256.9 L 239.9,256.4 L 245.2,252.5 L 250.4,249.0 L 255.7,249.0 L 260.9,246.6 L 266.2,244.6 L 271.4,244.1 L 276.7,243.6 L 281.9,243.1 L 287.2,241.7 L 292.4,232.8 L 297.7,228.9 L 302.9,226.9 L 308.2,225.9 L 313.4,224.5 L 318.7,221.0 L 323.9,220.0 L 329.2,219.1 L 334.4,216.1 L 339.7,215.1 L 344.9,214.1 L 350.2,214.1 L 355.4,205.3 L 360.6,204.3 L 365.9,203.3 L 371.1,201.3 L 376.4,198.9 L 381.6,198.9 L 386.9,195.0 L 392.1,188.6 L 397.4,187.6 L 402.6,188.1 L 407.9,186.6 L 413.1,186.1 L 418.4,186.1 L 423.6,183.2 L 428.9,180.7 L 434.1,178.7 L 439.4,176.3 L 444.6,175.8 L 449.9,175.8 L 455.1,172.3 L 460.4,171.4 L 465.6,170.9 L 470.9,165.0 L 476.1,164.5 L 481.4,164.5 L 486.6,164.5 L 491.8,164.0 L 497.1,161.5 L 502.3,159.6 L 507.6,157.1 L 512.8,156.6 L 518.1,155.1 L 523.3,150.7 L 528.6,146.8 L 533.8,146.3 L 539.1,145.8 L 544.3,144.3 L 549.6,139.4 L 554.8,138.4 L 560.1,136.9 L 565.3,134.0 L 570.6,133.5 L 575.8,133.0 L 581.1,133.0 L 586.3,132.0 L 591.6,129.1 L 596.8,128.1 L 602.1,127.1 L 607.3,126.6 L 612.6,125.6 L 617.8,120.7 L 623.1,120.2 L 628.3,119.2 L 633.5,118.8 L 638.8,116.3 L 644.0,115.8 L 649.3,115.3 L 654.5,113.8 L 659.8,111.9 L 665.0,111.9 L 670.3,111.9 L 675.5,111.9 L 680.8,110.9 L 686.0,108.4 L 691.3,107.9 L 696.5,105.5 L 701.8,105.0 L 707.0,104.5 L 712.3,101.5 L 717.5,98.6 L 722.8,98.1 L 728.0,97.6 L 733.3,91.2 L 738.5,89.3 L 743.8,87.8 L 749.0,87.3 L 754.3,83.8 L 759.5,83.8 L 764.8,81.4 L 770.0,79.9" fill="none" stroke="#FF6363" stroke-width="2.5" stroke-linejoin="round" clip-path="url(#ca)"/>
<text x="100.9" y="55.0" text-anchor="middle" font-size="9" fill="#FF6363" opacity="0.85" clip-path="url(#ca)">+0.7% (+18)</text>
<text x="200.6" y="55.0" text-anchor="middle" font-size="9" fill="#FF6363" opacity="0.85" clip-path="url(#ca)">+4.0% (+99)</text>
<text x="339.7" y="55.0" text-anchor="middle" font-size="9" fill="#FF6363" opacity="0.85" clip-path="url(#ca)">+4.5% (+117)</text>
<text x="481.4" y="55.0" text-anchor="middle" font-size="9" fill="#FF6363" opacity="0.85" clip-path="url(#ca)">+3.5% (+95)</text>
<text x="623.1" y="55.0" text-anchor="middle" font-size="9" fill="#FF6363" opacity="0.85" clip-path="url(#ca)">+2.2% (+62)</text>
<text x="733.3" y="55.0" text-anchor="middle" font-size="9" fill="#FF6363" opacity="0.85" clip-path="url(#ca)">+1.8% (+52)</text>
<rect x="351" y="369" width="12" height="12" fill="#FF6363" rx="2"/>
<text x="367" y="379" font-size="12" fill="#111827">Extensions</text>
<text x="72" y="394" font-size="8" fill="#e5e7eb">data since Dec 11, 2025</text>
</svg>