<svg xmlns="http://www.w3.org/2000/svg" width="800" height="400" viewBox="0 0 800 400">
<defs>
  <style>text { font-family: -apple-system, BlinkMacSystemFont, 'Segoe UI', Roboto, sans-serif; }</style>
  <linearGradient id="g5" x1="0" y1="0" x2="0" y2="1">
  <stop offset="0%" stop-color="#34C759" stop-opacity="0.25"/>
  <stop offset="100%" stop-color="#34C759" stop-opacity="0"/>
</linearGradient>
<linearGradient id="g6" x1="0" y1="0" x2="0" y2="1">
  <stop offset="0%" stop-color="#4F8EF7" stop-opacity="0.25"/>
  <stop offset="100%" stop-color="#4F8EF7" stop-opacity="0"/>
</linearGradient>
<linearGradient id="g7" x1="0" y1="0" x2="0" y2="1">
  <stop offset="0%" stop-color="#FF6363" stop-opacity="0.25"/>
  <stop offset="100%" stop-color="#FF6363" stop-opacity="0"/>
</linearGradient>
  <clipPath id="ca"><rect x="72" y="45" width="698" height="295"/></clipPath>
</defs>
<rect width="800" height="400" fill="#ffffff" rx="12"/>
<text x="400" y="26" text-anchor="middle" font-size="15" font-weight="600" fill="#111827">Platform Support Over Time</text>
<line x1="72" y1="340.0" x2="770" y2="340.0" stroke="#f3f4f6" stroke-width="1"/>
<text x="66" y="344.0" text-anchor="end" font-size="11" fill="#6b7280">0</text>
<line x1="72" y1="266.3" x2="770" y2="266.3" stroke="#f3f4f6" stroke-width="1"/>
<text x="66" y="270.3" text-anchor="end" font-size="11" fill="#6b7280">200</text>
<line x1="72" y1="192.5" x2="770" y2="192.5" stroke="#f3f4f6" stroke-width="1"/>
<text x="66" y="196.5" text-anchor="end" font-size="11" fill="#6b7280">400</text>
<line x1="72" y1="118.8" x2="770" y2="118.8" stroke="#f3f4f6" stroke-width="1"/>
<text x="66" y="122.8" text-anchor="end" font-size="11" fill="#6b7280">600</text>
<line x1="72" y1="45.0" x2="770" y2="45.0" stroke="#f3f4f6" stroke-width="1"/>
<text x="66" y="49.0" text-anchor="end" font-size="11" fill="#6b7280">800</text>
<line x1="151.8" y1="45" x2="151.8" y2="340" stroke="#e5e7eb" stroke-width="1" stroke-dasharray="3,3" clip-path="url(#ca)"/>
<line x1="324.6" y1="45" x2="324.6" y2="340" stroke="#e5e7eb" stroke-width="1" stroke-dasharray="3,3" clip-path="url(#ca)"/>
<line x1="504.1" y1="45" x2="504.1" y2="340" stroke="#e5e7eb" stroke-width="1" stroke-dasharray="3,3" clip-path="url(#ca)"/>
<line x1="683.6" y1="45" x2="683.6" y2="340" stroke="#e5e7eb" stroke-width="1" stroke-dasharray="3,3" clip-path="url(#ca)"/>
<text x="72.0" y="358.0" text-anchor="middle" font-size="11" fill="#6b7280">Dec 11</text>
<text x="211.6" y="358.0" text-anchor="middle" font-size="11" fill="#6b7280">Jan 14</text>
<text x="351.2" y="358.0" text-anchor="middle" font-size="11" fill="#6b7280">Feb 5</text>
<text x="490.8" y="358.0" text-anchor="middle" font-size="11" fill="#6b7280">Feb 27</text>
<text x="630.4" y="358.0" text-anchor="middle" font-size="11" fill="#6b7280">Mar 21</text>
<text x="770.0" y="358.0" text-anchor="middle" font-size="11" fill="#6b7280">Apr 15</text>
<line x1="72" y1="45" x2="72" y2="340" stroke="#e5e7eb" stroke-width="1"/>
<line x1="72" y1="340" x2="770" y2="340" stroke="#e5e7eb" stroke-width="1"/>
<text x="-192.5" y="18" text-anchor="middle" font-size="12" fill="#6b7280" transform="rotate(-90)">Extensions</text>
<path d="M 72.0,340 L 72.0,218.3 L 78.6,215.0 L 85.3,214.6 L 91.9,213.2 L 98.6,212.4 L 105.2,208.7 L 111.9,206.5 L 118.5,205.4 L 125.2,203.6 L 131.8,201.3 L 138.5,200.2 L 145.1,199.9 L 151.8,198.8 L 158.4,198.0 L 165.1,197.7 L 171.7,196.6 L 178.4,195.4 L 185.0,194.3 L 191.7,193.2 L 198.3,191.8 L 205.0,190.7 L 211.6,189.6 L 218.2,188.4 L 224.9,186.2 L 231.5,185.5 L 238.2,185.5 L 244.8,182.9 L 251.5,182.2 L 258.1,181.4 L 264.8,180.7 L 271.4,178.9 L 278.1,176.3 L 284.7,175.9 L 291.4,175.5 L 298.0,173.3 L 304.7,172.6 L 311.3,170.7 L 318.0,170.4 L 324.6,170.0 L 331.3,169.3 L 337.9,169.3 L 344.6,169.3 L 351.2,164.1 L 357.8,163.7 L 364.5,162.6 L 371.1,162.3 L 377.8,161.9 L 384.4,160.8 L 391.1,160.1 L 397.7,159.3 L 404.4,157.1 L 411.0,157.1 L 417.7,157.1 L 424.3,156.7 L 431.0,153.0 L 437.6,151.9 L 444.3,151.2 L 450.9,150.1 L 457.6,149.4 L 464.2,149.4 L 470.9,147.5 L 477.5,144.9 L 484.2,144.2 L 490.8,143.8 L 497.4,142.7 L 504.1,142.7 L 510.7,142.0 L 517.4,140.9 L 524.0,140.1 L 530.7,138.7 L 537.3,137.2 L 544.0,136.8 L 550.6,136.8 L 557.3,135.3 L 563.9,135.3 L 570.6,135.3 L 577.2,133.1 L 583.9,132.8 L 590.5,132.4 L 597.2,132.4 L 603.8,132.0 L 610.5,130.6 L 617.1,129.8 L 623.8,128.7 L 630.4,128.7 L 637.0,128.3 L 643.7,126.9 L 650.3,125.8 L 657.0,125.8 L 663.6,125.4 L 670.3,124.7 L 676.9,122.1 L 683.6,121.3 L 690.2,120.2 L 696.9,120.2 L 703.5,119.5 L 710.2,119.1 L 716.8,118.8 L 723.5,118.4 L 730.1,118.0 L 736.8,118.0 L 743.4,117.6 L 750.1,117.3 L 756.7,116.2 L 763.4,114.7 L 770.0,114.3 L 770.0,340 Z" fill="url(#g5)" clip-path="url(#ca)"/>
<path d="M 72.0,218.3 L 78.6,215.0 L 85.3,214.6 L 91.9,213.2 L 98.6,212.4 L 105.2,208.7 L 111.9,206.5 L 118.5,205.4 L 125.2,203.6 L 131.8,201.3 L 138.5,200.2 L 145.1,199.9 L 151.8,198.8 L 158.4,198.0 L 165.1,197.7 L 171.7,196.6 L 178.4,195.4 L 185.0,194.3 L 191.7,193.2 L 198.3,191.8 L 205.0,190.7 L 211.6,189.6 L 218.2,188.4 L 224.9,186.2 L 231.5,185.5 L 238.2,185.5 L 244.8,182.9 L 251.5,182.2 L 258.1,181.4 L 264.8,180.7 L 271.4,178.9 L 278.1,176.3 L 284.7,175.9 L 291.4,175.5 L 298.0,173.3 L 304.7,172.6 L 311.3,170.7 L 318.0,170.4 L 324.6,170.0 L 331.3,169.3 L 337.9,169.3 L 344.6,169.3 L 351.2,164.1 L 357.8,163.7 L 364.5,162.6 L 371.1,162.3 L 377.8,161.9 L 384.4,160.8 L 391.1,160.1 L 397.7,159.3 L 404.4,157.1 L 411.0,157.1 L 417.7,157.1 L 424.3,156.7 L 431.0,153.0 L 437.6,151.9 L 444.3,151.2 L 450.9,150.1 L 457.6,149.4 L 464.2,149.4 L 470.9,147.5 L 477.5,144.9 L 484.2,144.2 L 490.8,143.8 L 497.4,142.7 L 504.1,142.7 L 510.7,142.0 L 517.4,140.9 L 524.0,140.1 L 530.7,138.7 L 537.3,137.2 L 544.0,136.8 L 550.6,136.8 L 557.3,135.3 L 563.9,135.3 L 570.6,135.3 L 577.2,133.1 L 583.9,132.8 L 590.5,132.4 L 597.2,132.4 L 603.8,132.0 L 610.5,130.6 L 617.1,129.8 L 623.8,128.7 L 630.4,128.7 L 637.0,128.3 L 643.7,126.9 L 650.3,125.8 L 657.0,125.8 L 663.6,125.4 L 670.3,124.7 L 676.9,122.1 L 683.6,121.3 L 690.2,120.2 L 696.9,120.2 L 703.5,119.5 L 710.2,119.1 L 716.8,118.8 L 723.5,118.4 L 730.1,118.0 L 736.8,118.0 L 743.4,117.6 L 750.1,117.3 L 756.7,116.2 L 763.4,114.7 L 770.0,114.3" fill="none" stroke="#34C759" stroke-width="2.5" stroke-linejoin="round" clip-path="url(#ca)"/>
<path d="M 72.0,340 L 72.0,193.2 L 78.6,193.2 L 85.3,192.9 L 91.9,191.8 L 98.6,192.1 L 105.2,192.1 L 111.9,190.7 L 118.5,189.6 L 125.2,189.6 L 131.8,189.9 L 138.5,189.6 L 145.1,189.2 L 151.8,188.8 L 158.4,188.8 L 165.1,188.8 L 171.7,189.2 L 178.4,188.4 L 185.0,187.7 L 191.7,185.5 L 198.3,184.0 L 205.0,184.0 L 211.6,183.7 L 218.2,181.4 L 224.9,178.1 L 231.5,177.0 L 238.2,176.3 L 244.8,173.7 L 251.5,171.9 L 258.1,171.1 L 264.8,170.4 L 271.4,169.6 L 278.1,169.3 L 284.7,169.3 L 291.4,166.7 L 298.0,166.0 L 304.7,165.2 L 311.3,165.2 L 318.0,163.4 L 324.6,163.0 L 331.3,161.9 L 337.9,160.4 L 344.6,158.6 L 351.2,156.0 L 357.8,153.4 L 364.5,153.0 L 371.1,152.3 L 377.8,151.6 L 384.4,149.4 L 391.1,149.4 L 397.7,148.6 L 404.4,147.5 L 411.0,146.8 L 417.7,145.3 L 424.3,145.7 L 431.0,141.2 L 437.6,140.9 L 444.3,140.5 L 450.9,139.8 L 457.6,137.6 L 464.2,137.6 L 470.9,135.3 L 477.5,132.8 L 484.2,132.8 L 490.8,132.8 L 497.4,132.4 L 504.1,132.0 L 510.7,131.7 L 517.4,129.8 L 524.0,127.6 L 530.7,126.9 L 537.3,125.4 L 544.0,125.4 L 550.6,124.3 L 557.3,122.1 L 563.9,121.0 L 570.6,120.6 L 577.2,118.0 L 583.9,117.6 L 590.5,117.6 L 597.2,117.3 L 603.8,117.3 L 610.5,115.4 L 617.1,114.7 L 623.8,113.6 L 630.4,113.2 L 637.0,112.5 L 643.7,109.5 L 650.3,105.5 L 657.0,105.1 L 663.6,104.4 L 670.3,104.0 L 676.9,102.2 L 683.6,63.1 L 690.2,62.3 L 696.9,60.5 L 703.5,60.5 L 710.2,60.5 L 716.8,60.9 L 723.5,60.5 L 730.1,58.3 L 736.8,57.5 L 743.4,57.2 L 750.1,56.8 L 756.7,55.3 L 763.4,53.1 L 770.0,53.1 L 770.0,340 Z" fill="url(#g6)" clip-path="url(#ca)"/>
<path d="M 72.0,193.2 L 78.6,193.2 L 85.3,192.9 L 91.9,191.8 L 98.6,192.1 L 105.2,192.1 L 111.9,190.7 L 118.5,189.6 L 125.2,189.6 L 131.8,189.9 L 138.5,189.6 L 145.1,189.2 L 151.8,188.8 L 158.4,188.8 L 165.1,188.8 L 171.7,189.2 L 178.4,188.4 L 185.0,187.7 L 191.7,185.5 L 198.3,184.0 L 205.0,184.0 L 211.6,183.7 L 218.2,181.4 L 224.9,178.1 L 231.5,177.0 L 238.2,176.3 L 244.8,173.7 L 251.5,171.9 L 258.1,171.1 L 264.8,170.4 L 271.4,169.6 L 278.1,169.3 L 284.7,169.3 L 291.4,166.7 L 298.0,166.0 L 304.7,165.2 L 311.3,165.2 L 318.0,163.4 L 324.6,163.0 L 331.3,161.9 L 337.9,160.4 L 344.6,158.6 L 351.2,156.0 L 357.8,153.4 L 364.5,153.0 L 371.1,152.3 L 377.8,151.6 L 384.4,149.4 L 391.1,149.4 L 397.7,148.6 L 404.4,147.5 L 411.0,146.8 L 417.7,145.3 L 424.3,145.7 L 431.0,141.2 L 437.6,140.9 L 444.3,140.5 L 450.9,139.8 L 457.6,137.6 L 464.2,137.6 L 470.9,135.3 L 477.5,132.8 L 484.2,132.8 L 490.8,132.8 L 497.4,132.4 L 504.1,132.0 L 510.7,131.7 L 517.4,129.8 L 524.0,127.6 L 530.7,126.9 L 537.3,125.4 L 544.0,125.4 L 550.6,124.3 L 557.3,122.1 L 563.9,121.0 L 570.6,120.6 L 577.2,118.0 L 583.9,117.6 L 590.5,117.6 L 597.2,117.3 L 603.8,117.3 L 610.5,115.4 L 617.1,114.7 L 623.8,113.6 L 630.4,113.2 L 637.0,112.5 L 643.7,109.5 L 650.3,105.5 L 657.0,105.1 L 663.6,104.4 L 670.3,104.0 L 676.9,102.2 L 683.6,63.1 L 690.2,62.3 L 696.9,60.5 L 703.5,60.5 L 710.2,60.5 L 716.8,60.9 L 723.5,60.5 L 730.1,58.3 L 736.8,57.5 L 743.4,57.2 L 750.1,56.8 L 756.7,55.3 L 763.4,53.1 L 770.0,53.1" fill="none" stroke="#4F8EF7" stroke-width="2.5" stroke-linejoin="round" clip-path="url(#ca)"/>
<path d="M 72.0,340 L 72.0,337.8 L 78.6,337.4 L 85.3,337.4 L 91.9,337.1 L 98.6,337.1 L 105.2,337.1 L 111.9,337.1 L 118.5,337.1 L 125.2,336.3 L 131.8,336.3 L 138.5,336.3 L 145.1,336.3 L 151.8,336.3 L 158.4,335.9 L 165.1,335.9 L 171.7,335.9 L 178.4,335.9 L 185.0,335.9 L 191.7,335.6 L 198.3,334.8 L 205.0,334.5 L 211.6,334.5 L 218.2,334.5 L 224.9,334.1 L 231.5,334.1 L 238.2,334.1 L 244.8,333.7 L 251.5,333.7 L 258.1,333.7 L 264.8,333.4 L 271.4,333.4 L 278.1,333.4 L 284.7,333.4 L 291.4,333.0 L 298.0,333.0 L 304.7,333.0 L 311.3,333.0 L 318.0,333.0 L 324.6,333.0 L 331.3,333.0 L 337.9,333.0 L 344.6,333.0 L 351.2,333.0 L 357.8,333.0 L 364.5,333.0 L 371.1,333.0 L 377.8,332.6 L 384.4,332.6 L 391.1,332.6 L 397.7,332.6 L 404.4,332.6 L 411.0,332.6 L 417.7,332.6 L 424.3,332.6 L 431.0,332.6 L 437.6,332.6 L 444.3,332.6 L 450.9,332.6 L 457.6,332.3 L 464.2,332.3 L 470.9,332.3 L 477.5,332.3 L 484.2,332.3 L 490.8,332.3 L 497.4,332.3 L 504.1,332.3 L 510.7,332.3 L 517.4,332.3 L 524.0,332.3 L 530.7,332.3 L 537.3,332.3 L 544.0,332.3 L 550.6,332.3 L 557.3,332.3 L 563.9,332.3 L 570.6,332.3 L 577.2,332.3 L 583.9,332.3 L 590.5,332.3 L 597.2,332.3 L 603.8,332.3 L 610.5,332.3 L 617.1,332.3 L 623.8,332.3 L 630.4,332.3 L 637.0,332.3 L 643.7,332.3 L 650.3,332.3 L 657.0,332.3 L 663.6,332.3 L 670.3,332.3 L 676.9,332.3 L 683.6,332.3 L 690.2,332.3 L 696.9,331.9 L 703.5,331.9 L 710.2,331.9 L 716.8,331.9 L 723.5,331.9 L 730.1,331.5 L 736.8,331.5 L 743.4,331.5 L 750.1,331.5 L 756.7,331.1 L 763.4,331.1 L 770.0,330.8 L 770.0,340 Z" fill="url(#g7)" clip-path="url(#ca)"/>
<path d="M 72.0,337.8 L 78.6,337.4 L 85.3,337.4 L 91.9,337.1 L 98.6,337.1 L 105.2,337.1 L 111.9,337.1 L 118.5,337.1 L 125.2,336.3 L 131.8,336.3 L 138.5,336.3 L 145.1,336.3 L 151.8,336.3 L 158.4,335.9 L 165.1,335.9 L 171.7,335.9 L 178.4,335.9 L 185.0,335.9 L 191.7,335.6 L 198.3,334.8 L 205.0,334.5 L 211.6,334.5 L 218.2,334.5 L 224.9,334.1 L 231.5,334.1 L 238.2,334.1 L 244.8,333.7 L 251.5,333.7 L 258.1,333.7 L 264.8,333.4 L 271.4,333.4 L 278.1,333.4 L 284.7,333.4 L 291.4,333.0 L 298.0,333.0 L 304.7,333.0 L 311.3,333.0 L 318.0,333.0 L 324.6,333.0 L 331.3,333.0 L 337.9,333.0 L 344.6,333.0 L 351.2,333.0 L 357.8,333.0 L 364.5,333.0 L 371.1,333.0 L 377.8,332.6 L 384.4,332.6 L 391.1,332.6 L 397.7,332.6 L 404.4,332.6 L 411.0,332.6 L 417.7,332.6 L 424.3,332.6 L 431.0,332.6 L 437.6,332.6 L 444.3,332.6 L 450.9,332.6 L 457.6,332.3 L 464.2,332.3 L 470.9,332.3 L 477.5,332.3 L 484.2,332.3 L 490.8,332.3 L 497.4,332.3 L 504.1,332.3 L 510.7,332.3 L 517.4,332.3 L 524.0,332.3 L 530.7,332.3 L 537.3,332.3 L 544.0,332.3 L 550.6,332.3 L 557.3,332.3 L 563.9,332.3 L 570.6,332.3 L 577.2,332.3 L 583.9,332.3 L 590.5,332.3 L 597.2,332.3 L 603.8,332.3 L 610.5,332.3 L 617.1,332.3 L 623.8,332.3 L 630.4,332.3 L 637.0,332.3 L 643.7,332.3 L 650.3,332.3 L 657.0,332.3 L 663.6,332.3 L 670.3,332.3 L 676.9,332.3 L 683.6,332.3 L 690.2,332.3 L 696.9,331.9 L 703.5,331.9 L 710.2,331.9 L 716.8,331.9 L 723.5,331.9 L 730.1,331.5 L 736.8,331.5 L 743.4,331.5 L 750.1,331.5 L 756.7,331.1 L 763.4,331.1 L 770.0,330.8" fill="none" stroke="#FF6363" stroke-width="2.5" stroke-linejoin="round" clip-path="url(#ca)"/>
<text x="108.6" y="55.0" text-anchor="middle" font-size="9" fill="#34C759" opacity="0.85" clip-path="url(#ca)">+15.2% (+50)</text>
<text x="108.6" y="66.0" text-anchor="middle" font-size="9" fill="#4F8EF7" opacity="0.85" clip-path="url(#ca)">+2.8% (+11)</text>
<text x="108.6" y="77.0" text-anchor="middle" font-size="9" fill="#FF6363" opacity="0.85" clip-path="url(#ca)">+66.7% (+4)</text>
<text x="234.9" y="55.0" text-anchor="middle" font-size="9" fill="#34C759" opacity="0.85" clip-path="url(#ca)">+20.1% (+77)</text>
<text x="234.9" y="66.0" text-anchor="middle" font-size="9" fill="#4F8EF7" opacity="0.85" clip-path="url(#ca)">+16.8% (+69)</text>
<text x="234.9" y="77.0" text-anchor="middle" font-size="9" fill="#FF6363" opacity="0.85" clip-path="url(#ca)">+90.0% (+9)</text>
<text x="411.0" y="55.0" text-anchor="middle" font-size="9" fill="#34C759" opacity="0.85" clip-path="url(#ca)">+16.1% (+74)</text>
<text x="411.0" y="66.0" text-anchor="middle" font-size="9" fill="#4F8EF7" opacity="0.85" clip-path="url(#ca)">+17.3% (+83)</text>
<text x="411.0" y="77.0" text-anchor="middle" font-size="9" fill="#FF6363" opacity="0.85" clip-path="url(#ca)">+10.5% (+2)</text>
<text x="590.5" y="55.0" text-anchor="middle" font-size="9" fill="#34C759" opacity="0.85" clip-path="url(#ca)">+10.5% (+56)</text>
<text x="590.5" y="66.0" text-anchor="middle" font-size="9" fill="#4F8EF7" opacity="0.85" clip-path="url(#ca)">+14.4% (+81)</text>
<text x="590.5" y="77.0" text-anchor="middle" font-size="9" fill="#FF6363" opacity="0.85" clip-path="url(#ca)">+0.0% (+0)</text>
<text x="726.8" y="55.0" text-anchor="middle" font-size="9" fill="#34C759" opacity="0.85" clip-path="url(#ca)">+3.2% (+19)</text>
<text x="726.8" y="66.0" text-anchor="middle" font-size="9" fill="#4F8EF7" opacity="0.85" clip-path="url(#ca)">+3.6% (+27)</text>
<text x="726.8" y="77.0" text-anchor="middle" font-size="9" fill="#FF6363" opacity="0.85" clip-path="url(#ca)">+19.0% (+4)</text>
<rect x="211" y="369" width="12" height="12" fill="#34C759" rx="2"/>
<text x="227" y="379" font-size="12" fill="#111827">macOS + Windows</text>
<rect x="351" y="369" width="12" height="12" fill="#4F8EF7" rx="2"/>
<text x="367" y="379" font-size="12" fill="#111827">macOS only</text>
<rect x="491" y="369" width="12" height="12" fill="#FF6363" rx="2"/>
<text x="507" y="379" font-size="12" fill="#111827">Windows only</text>
<text x="72" y="394" font-size="8" fill="#e5e7eb">data since Dec 11, 2025</text>
</svg>