<svg xmlns="http://www.w3.org/2000/svg" width="800" height="400" viewBox="0 0 800 400">
<defs>
  <style>text { font-family: -apple-system, BlinkMacSystemFont, 'Segoe UI', Roboto, sans-serif; }</style>
  <linearGradient id="g2" x1="0" y1="0" x2="0" y2="1">
  <stop offset="0%" stop-color="#4F8EF7" stop-opacity="0.25"/>
  <stop offset="100%" stop-color="#4F8EF7" stop-opacity="0"/>
</linearGradient>
<linearGradient id="g3" x1="0" y1="0" x2="0" y2="1">
  <stop offset="0%" stop-color="#BF5AF2" stop-opacity="0.25"/>
  <stop offset="100%" stop-color="#BF5AF2" stop-opacity="0"/>
</linearGradient>
<linearGradient id="g4" x1="0" y1="0" x2="0" y2="1">
  <stop offset="0%" stop-color="#34C759" stop-opacity="0.25"/>
  <stop offset="100%" stop-color="#34C759" stop-opacity="0"/>
</linearGradient>
  <clipPath id="ca"><rect x="72" y="45" width="698" height="295"/></clipPath>
</defs>
<rect width="800" height="400" fill="#ffffff" rx="12"/>
<text x="400" y="26" text-anchor="middle" font-size="15" font-weight="600" fill="#111827">Community Growth Over Time</text>
<line x1="72" y1="340.0" x2="770" y2="340.0" stroke="#f3f4f6" stroke-width="1"/>
<text x="66" y="344.0" text-anchor="end" font-size="11" fill="#6b7280">500</text>
<line x1="72" y1="241.7" x2="770" y2="241.7" stroke="#f3f4f6" stroke-width="1"/>
<text x="66" y="245.7" text-anchor="end" font-size="11" fill="#6b7280">1.0k</text>
<line x1="72" y1="143.3" x2="770" y2="143.3" stroke="#f3f4f6" stroke-width="1"/>
<text x="66" y="147.3" text-anchor="end" font-size="11" fill="#6b7280">1.5k</text>
<line x1="72" y1="45.0" x2="770" y2="45.0" stroke="#f3f4f6" stroke-width="1"/>
<text x="66" y="49.0" text-anchor="end" font-size="11" fill="#6b7280">2.0k</text>
<line x1="125.0" y1="45" x2="125.0" y2="340" stroke="#e5e7eb" stroke-width="1" stroke-dasharray="3,3" clip-path="url(#ca)"/>
<line x1="239.9" y1="45" x2="239.9" y2="340" stroke="#e5e7eb" stroke-width="1" stroke-dasharray="3,3" clip-path="url(#ca)"/>
<line x1="359.2" y1="45" x2="359.2" y2="340" stroke="#e5e7eb" stroke-width="1" stroke-dasharray="3,3" clip-path="url(#ca)"/>
<line x1="478.4" y1="45" x2="478.4" y2="340" stroke="#e5e7eb" stroke-width="1" stroke-dasharray="3,3" clip-path="url(#ca)"/>
<line x1="597.7" y1="45" x2="597.7" y2="340" stroke="#e5e7eb" stroke-width="1" stroke-dasharray="3,3" clip-path="url(#ca)"/>
<line x1="712.6" y1="45" x2="712.6" y2="340" stroke="#e5e7eb" stroke-width="1" stroke-dasharray="3,3" clip-path="url(#ca)"/>
<text x="72.0" y="358.0" text-anchor="middle" font-size="11" fill="#6b7280">Dec 11</text>
<text x="213.4" y="358.0" text-anchor="middle" font-size="11" fill="#6b7280">Jan 26</text>
<text x="350.3" y="358.0" text-anchor="middle" font-size="11" fill="#6b7280">Feb 27</text>
<text x="491.7" y="358.0" text-anchor="middle" font-size="11" fill="#6b7280">Apr 4</text>
<text x="628.6" y="358.0" text-anchor="middle" font-size="11" fill="#6b7280">May 12</text>
<text x="770.0" y="358.0" text-anchor="middle" font-size="11" fill="#6b7280">Jun 18</text>
<line x1="72" y1="45" x2="72" y2="340" stroke="#e5e7eb" stroke-width="1"/>
<line x1="72" y1="340" x2="770" y2="340" stroke="#e5e7eb" stroke-width="1"/>
<text x="-192.5" y="18" text-anchor="middle" font-size="12" fill="#6b7280" transform="rotate(-90)">People</text>
<path d="M 72.0,340 L 72.0,120.1 L 76.4,120.1 L 80.8,120.1 L 85.3,119.5 L 89.7,119.5 L 94.1,119.1 L 98.5,118.9 L 102.9,119.1 L 107.3,118.6 L 111.8,118.6 L 116.2,118.6 L 120.6,118.6 L 125.0,118.6 L 129.4,118.6 L 133.8,118.6 L 138.3,118.6 L 142.7,118.4 L 147.1,117.8 L 151.5,116.6 L 155.9,116.0 L 160.4,115.8 L 164.8,115.8 L 169.2,115.2 L 173.6,113.8 L 178.0,113.0 L 182.4,113.0 L 186.9,112.1 L 191.3,111.7 L 195.7,110.9 L 200.1,110.3 L 204.5,109.7 L 208.9,109.1 L 213.4,109.1 L 217.8,107.7 L 222.2,106.9 L 226.6,106.9 L 231.0,106.2 L 235.5,105.8 L 239.9,105.6 L 244.3,105.4 L 248.7,105.4 L 253.1,104.8 L 257.5,102.4 L 262.0,101.0 L 266.4,100.3 L 270.8,100.1 L 275.2,99.7 L 279.6,98.9 L 284.1,98.5 L 288.5,98.1 L 292.9,97.7 L 297.3,97.3 L 301.7,96.9 L 306.1,96.9 L 310.6,95.0 L 315.0,95.0 L 319.4,94.8 L 323.8,94.6 L 328.2,94.2 L 332.6,94.2 L 337.1,93.2 L 341.5,92.0 L 345.9,91.6 L 350.3,92.0 L 354.7,91.8 L 359.2,91.6 L 363.6,91.6 L 368.0,91.2 L 372.4,90.4 L 376.8,90.0 L 381.2,89.6 L 385.7,89.4 L 390.1,89.4 L 394.5,88.7 L 398.9,88.3 L 403.3,88.3 L 407.7,86.7 L 412.2,86.7 L 416.6,86.7 L 421.0,86.7 L 425.4,86.5 L 429.8,85.9 L 434.3,85.1 L 438.7,84.7 L 443.1,84.7 L 447.5,84.3 L 451.9,82.8 L 456.3,81.8 L 460.8,81.6 L 465.2,81.4 L 469.6,80.8 L 474.0,79.6 L 478.4,79.2 L 482.8,78.8 L 487.3,77.6 L 491.7,77.4 L 496.1,77.4 L 500.5,77.4 L 504.9,77.3 L 509.4,76.1 L 513.8,75.9 L 518.2,75.7 L 522.6,75.7 L 527.0,75.3 L 531.4,73.7 L 535.9,73.5 L 540.3,73.3 L 544.7,73.3 L 549.1,72.5 L 553.5,72.3 L 557.9,72.1 L 562.4,71.6 L 566.8,70.8 L 571.2,70.8 L 575.6,70.8 L 580.0,70.8 L 584.5,70.4 L 588.9,69.8 L 593.3,69.6 L 597.7,69.0 L 602.1,68.8 L 606.5,68.6 L 611.0,67.8 L 615.4,67.2 L 619.8,67.0 L 624.2,67.0 L 628.6,65.3 L 633.1,64.7 L 637.5,64.5 L 641.9,64.5 L 646.3,63.5 L 650.7,63.5 L 655.1,62.9 L 659.6,62.3 L 664.0,60.9 L 668.4,60.7 L 672.8,60.5 L 677.2,60.3 L 681.6,60.3 L 686.1,60.1 L 690.5,59.2 L 694.9,58.6 L 699.3,58.6 L 703.7,58.4 L 708.2,58.4 L 712.6,57.8 L 717.0,57.6 L 721.4,57.4 L 725.8,56.8 L 730.2,56.0 L 734.7,56.0 L 739.1,55.8 L 743.5,55.6 L 747.9,54.6 L 752.3,53.3 L 756.7,53.1 L 761.2,52.7 L 765.6,52.3 L 770.0,52.1 L 770.0,340 Z" fill="url(#g2)" clip-path="url(#ca)"/>
<path d="M 72.0,120.1 L 76.4,120.1 L 80.8,120.1 L 85.3,119.5 L 89.7,119.5 L 94.1,119.1 L 98.5,118.9 L 102.9,119.1 L 107.3,118.6 L 111.8,118.6 L 116.2,118.6 L 120.6,118.6 L 125.0,118.6 L 129.4,118.6 L 133.8,118.6 L 138.3,118.6 L 142.7,118.4 L 147.1,117.8 L 151.5,116.6 L 155.9,116.0 L 160.4,115.8 L 164.8,115.8 L 169.2,115.2 L 173.6,113.8 L 178.0,113.0 L 182.4,113.0 L 186.9,112.1 L 191.3,111.7 L 195.7,110.9 L 200.1,110.3 L 204.5,109.7 L 208.9,109.1 L 213.4,109.1 L 217.8,107.7 L 222.2,106.9 L 226.6,106.9 L 231.0,106.2 L 235.5,105.8 L 239.9,105.6 L 244.3,105.4 L 248.7,105.4 L 253.1,104.8 L 257.5,102.4 L 262.0,101.0 L 266.4,100.3 L 270.8,100.1 L 275.2,99.7 L 279.6,98.9 L 284.1,98.5 L 288.5,98.1 L 292.9,97.7 L 297.3,97.3 L 301.7,96.9 L 306.1,96.9 L 310.6,95.0 L 315.0,95.0 L 319.4,94.8 L 323.8,94.6 L 328.2,94.2 L 332.6,94.2 L 337.1,93.2 L 341.5,92.0 L 345.9,91.6 L 350.3,92.0 L 354.7,91.8 L 359.2,91.6 L 363.6,91.6 L 368.0,91.2 L 372.4,90.4 L 376.8,90.0 L 381.2,89.6 L 385.7,89.4 L 390.1,89.4 L 394.5,88.7 L 398.9,88.3 L 403.3,88.3 L 407.7,86.7 L 412.2,86.7 L 416.6,86.7 L 421.0,86.7 L 425.4,86.5 L 429.8,85.9 L 434.3,85.1 L 438.7,84.7 L 443.1,84.7 L 447.5,84.3 L 451.9,82.8 L 456.3,81.8 L 460.8,81.6 L 465.2,81.4 L 469.6,80.8 L 474.0,79.6 L 478.4,79.2 L 482.8,78.8 L 487.3,77.6 L 491.7,77.4 L 496.1,77.4 L 500.5,77.4 L 504.9,77.3 L 509.4,76.1 L 513.8,75.9 L 518.2,75.7 L 522.6,75.7 L 527.0,75.3 L 531.4,73.7 L 535.9,73.5 L 540.3,73.3 L 544.7,73.3 L 549.1,72.5 L 553.5,72.3 L 557.9,72.1 L 562.4,71.6 L 566.8,70.8 L 571.2,70.8 L 575.6,70.8 L 580.0,70.8 L 584.5,70.4 L 588.9,69.8 L 593.3,69.6 L 597.7,69.0 L 602.1,68.8 L 606.5,68.6 L 611.0,67.8 L 615.4,67.2 L 619.8,67.0 L 624.2,67.0 L 628.6,65.3 L 633.1,64.7 L 637.5,64.5 L 641.9,64.5 L 646.3,63.5 L 650.7,63.5 L 655.1,62.9 L 659.6,62.3 L 664.0,60.9 L 668.4,60.7 L 672.8,60.5 L 677.2,60.3 L 681.6,60.3 L 686.1,60.1 L 690.5,59.2 L 694.9,58.6 L 699.3,58.6 L 703.7,58.4 L 708.2,58.4 L 712.6,57.8 L 717.0,57.6 L 721.4,57.4 L 725.8,56.8 L 730.2,56.0 L 734.7,56.0 L 739.1,55.8 L 743.5,55.6 L 747.9,54.6 L 752.3,53.3 L 756.7,53.1 L 761.2,52.7 L 765.6,52.3 L 770.0,52.1" fill="none" stroke="#4F8EF7" stroke-width="2.5" stroke-linejoin="round" clip-path="url(#ca)"/>
<path d="M 72.0,340 L 72.0,244.2 L 76.4,243.6 L 80.8,243.6 L 85.3,243.6 L 89.7,243.4 L 94.1,243.0 L 98.5,242.8 L 102.9,242.6 L 107.3,242.6 L 111.8,242.5 L 116.2,242.3 L 120.6,242.3 L 125.0,242.3 L 129.4,242.3 L 133.8,242.3 L 138.3,242.3 L 142.7,241.9 L 147.1,241.9 L 151.5,241.9 L 155.9,241.1 L 160.4,240.9 L 164.8,240.5 L 169.2,239.7 L 173.6,239.5 L 178.0,239.5 L 182.4,239.5 L 186.9,238.9 L 191.3,238.5 L 195.7,238.5 L 200.1,238.1 L 204.5,237.9 L 208.9,237.5 L 213.4,237.5 L 217.8,237.3 L 222.2,236.6 L 226.6,236.0 L 231.0,235.6 L 235.5,235.4 L 239.9,235.4 L 244.3,235.2 L 248.7,234.8 L 253.1,234.8 L 257.5,234.6 L 262.0,234.0 L 266.4,233.6 L 270.8,233.6 L 275.2,233.6 L 279.6,233.6 L 284.1,233.4 L 288.5,232.8 L 292.9,232.4 L 297.3,232.2 L 301.7,232.0 L 306.1,231.8 L 310.6,231.6 L 315.0,231.4 L 319.4,231.2 L 323.8,230.7 L 328.2,230.5 L 332.6,230.3 L 337.1,229.5 L 341.5,228.7 L 345.9,228.7 L 350.3,228.5 L 354.7,228.3 L 359.2,228.3 L 363.6,228.3 L 368.0,227.9 L 372.4,227.9 L 376.8,226.7 L 381.2,226.5 L 385.7,226.3 L 390.1,226.3 L 394.5,225.9 L 398.9,225.7 L 403.3,225.7 L 407.7,225.5 L 412.2,225.5 L 416.6,225.5 L 421.0,225.1 L 425.4,224.9 L 429.8,224.0 L 434.3,224.2 L 438.7,224.0 L 443.1,223.8 L 447.5,223.8 L 451.9,223.6 L 456.3,223.0 L 460.8,223.0 L 465.2,223.0 L 469.6,223.0 L 474.0,222.6 L 478.4,222.6 L 482.8,222.2 L 487.3,221.8 L 491.7,221.0 L 496.1,221.0 L 500.5,220.6 L 504.9,220.4 L 509.4,220.2 L 513.8,220.0 L 518.2,219.6 L 522.6,219.6 L 527.0,219.1 L 531.4,219.1 L 535.9,218.9 L 540.3,218.5 L 544.7,218.3 L 549.1,218.3 L 553.5,218.3 L 557.9,218.3 L 562.4,218.3 L 566.8,217.7 L 571.2,217.7 L 575.6,217.3 L 580.0,216.9 L 584.5,216.3 L 588.9,216.1 L 593.3,216.1 L 597.7,214.9 L 602.1,214.7 L 606.5,214.7 L 611.0,213.9 L 615.4,213.9 L 619.8,213.5 L 624.2,213.5 L 628.6,213.3 L 633.1,213.3 L 637.5,213.2 L 641.9,212.8 L 646.3,212.8 L 650.7,212.6 L 655.1,212.4 L 659.6,212.2 L 664.0,212.0 L 668.4,212.0 L 672.8,211.6 L 677.2,211.6 L 681.6,211.6 L 686.1,210.6 L 690.5,210.6 L 694.9,210.6 L 699.3,210.6 L 703.7,210.6 L 708.2,210.6 L 712.6,210.2 L 717.0,210.2 L 721.4,209.8 L 725.8,209.0 L 730.2,208.6 L 734.7,208.4 L 739.1,208.4 L 743.5,208.2 L 747.9,207.6 L 752.3,207.4 L 756.7,207.4 L 761.2,207.1 L 765.6,206.5 L 770.0,206.1 L 770.0,340 Z" fill="url(#g3)" clip-path="url(#ca)"/>
<path d="M 72.0,244.2 L 76.4,243.6 L 80.8,243.6 L 85.3,243.6 L 89.7,243.4 L 94.1,243.0 L 98.5,242.8 L 102.9,242.6 L 107.3,242.6 L 111.8,242.5 L 116.2,242.3 L 120.6,242.3 L 125.0,242.3 L 129.4,242.3 L 133.8,242.3 L 138.3,242.3 L 142.7,241.9 L 147.1,241.9 L 151.5,241.9 L 155.9,241.1 L 160.4,240.9 L 164.8,240.5 L 169.2,239.7 L 173.6,239.5 L 178.0,239.5 L 182.4,239.5 L 186.9,238.9 L 191.3,238.5 L 195.7,238.5 L 200.1,238.1 L 204.5,237.9 L 208.9,237.5 L 213.4,237.5 L 217.8,237.3 L 222.2,236.6 L 226.6,236.0 L 231.0,235.6 L 235.5,235.4 L 239.9,235.4 L 244.3,235.2 L 248.7,234.8 L 253.1,234.8 L 257.5,234.6 L 262.0,234.0 L 266.4,233.6 L 270.8,233.6 L 275.2,233.6 L 279.6,233.6 L 284.1,233.4 L 288.5,232.8 L 292.9,232.4 L 297.3,232.2 L 301.7,232.0 L 306.1,231.8 L 310.6,231.6 L 315.0,231.4 L 319.4,231.2 L 323.8,230.7 L 328.2,230.5 L 332.6,230.3 L 337.1,229.5 L 341.5,228.7 L 345.9,228.7 L 350.3,228.5 L 354.7,228.3 L 359.2,228.3 L 363.6,228.3 L 368.0,227.9 L 372.4,227.9 L 376.8,226.7 L 381.2,226.5 L 385.7,226.3 L 390.1,226.3 L 394.5,225.9 L 398.9,225.7 L 403.3,225.7 L 407.7,225.5 L 412.2,225.5 L 416.6,225.5 L 421.0,225.1 L 425.4,224.9 L 429.8,224.0 L 434.3,224.2 L 438.7,224.0 L 443.1,223.8 L 447.5,223.8 L 451.9,223.6 L 456.3,223.0 L 460.8,223.0 L 465.2,223.0 L 469.6,223.0 L 474.0,222.6 L 478.4,222.6 L 482.8,222.2 L 487.3,221.8 L 491.7,221.0 L 496.1,221.0 L 500.5,220.6 L 504.9,220.4 L 509.4,220.2 L 513.8,220.0 L 518.2,219.6 L 522.6,219.6 L 527.0,219.1 L 531.4,219.1 L 535.9,218.9 L 540.3,218.5 L 544.7,218.3 L 549.1,218.3 L 553.5,218.3 L 557.9,218.3 L 562.4,218.3 L 566.8,217.7 L 571.2,217.7 L 575.6,217.3 L 580.0,216.9 L 584.5,216.3 L 588.9,216.1 L 593.3,216.1 L 597.7,214.9 L 602.1,214.7 L 606.5,214.7 L 611.0,213.9 L 615.4,213.9 L 619.8,213.5 L 624.2,213.5 L 628.6,213.3 L 633.1,213.3 L 637.5,213.2 L 641.9,212.8 L 646.3,212.8 L 650.7,212.6 L 655.1,212.4 L 659.6,212.2 L 664.0,212.0 L 668.4,212.0 L 672.8,211.6 L 677.2,211.6 L 681.6,211.6 L 686.1,210.6 L 690.5,210.6 L 694.9,210.6 L 699.3,210.6 L 703.7,210.6 L 708.2,210.6 L 712.6,210.2 L 717.0,210.2 L 721.4,209.8 L 725.8,209.0 L 730.2,208.6 L 734.7,208.4 L 739.1,208.4 L 743.5,208.2 L 747.9,207.6 L 752.3,207.4 L 756.7,207.4 L 761.2,207.1 L 765.6,206.5 L 770.0,206.1" fill="none" stroke="#BF5AF2" stroke-width="2.5" stroke-linejoin="round" clip-path="url(#ca)"/>
<path d="M 72.0,340 L 72.0,291.4 L 76.4,290.8 L 80.8,290.8 L 85.3,290.8 L 89.7,290.6 L 94.1,290.2 L 98.5,290.0 L 102.9,289.7 L 107.3,289.7 L 111.8,289.5 L 116.2,289.3 L 120.6,289.3 L 125.0,289.3 L 129.4,289.3 L 133.8,289.3 L 138.3,289.3 L 142.7,288.9 L 147.1,288.9 L 151.5,289.1 L 155.9,288.5 L 160.4,288.7 L 164.8,288.1 L 169.2,287.5 L 173.6,287.3 L 178.0,287.5 L 182.4,287.5 L 186.9,286.9 L 191.3,286.7 L 195.7,286.7 L 200.1,286.3 L 204.5,286.1 L 208.9,285.7 L 213.4,285.7 L 217.8,285.5 L 222.2,284.9 L 226.6,284.3 L 231.0,283.9 L 235.5,283.9 L 239.9,283.9 L 244.3,283.8 L 248.7,283.4 L 253.1,283.4 L 257.5,283.2 L 262.0,282.6 L 266.4,282.4 L 270.8,282.4 L 275.2,282.4 L 279.6,282.4 L 284.1,282.2 L 288.5,281.6 L 292.9,281.4 L 297.3,281.2 L 301.7,281.0 L 306.1,281.0 L 310.6,280.8 L 315.0,280.8 L 319.4,280.8 L 323.8,280.2 L 328.2,280.2 L 332.6,280.2 L 337.1,279.8 L 341.5,279.2 L 345.9,279.2 L 350.3,279.0 L 354.7,278.8 L 359.2,278.8 L 363.6,278.8 L 368.0,278.4 L 372.4,278.4 L 376.8,277.3 L 381.2,277.1 L 385.7,276.9 L 390.1,276.9 L 394.5,276.7 L 398.9,276.7 L 403.3,276.7 L 407.7,276.7 L 412.2,276.7 L 416.6,276.7 L 421.0,276.3 L 425.4,276.1 L 429.8,275.1 L 434.3,275.3 L 438.7,275.3 L 443.1,275.1 L 447.5,275.1 L 451.9,275.1 L 456.3,274.7 L 460.8,274.7 L 465.2,274.7 L 469.6,274.7 L 474.0,274.7 L 478.4,274.7 L 482.8,274.5 L 487.3,274.5 L 491.7,273.7 L 496.1,273.7 L 500.5,273.5 L 504.9,273.3 L 509.4,273.1 L 513.8,272.9 L 518.2,272.5 L 522.6,272.5 L 527.0,272.0 L 531.4,272.0 L 535.9,271.8 L 540.3,271.6 L 544.7,271.6 L 549.1,271.6 L 553.5,271.6 L 557.9,271.6 L 562.4,271.6 L 566.8,271.0 L 571.2,271.0 L 575.6,270.6 L 580.0,270.2 L 584.5,269.6 L 588.9,269.4 L 593.3,269.4 L 597.7,268.4 L 602.1,268.2 L 606.5,268.2 L 611.0,267.6 L 615.4,267.6 L 619.8,267.4 L 624.2,267.4 L 628.6,267.6 L 633.1,267.8 L 637.5,267.6 L 641.9,267.2 L 646.3,267.4 L 650.7,267.2 L 655.1,267.0 L 659.6,267.0 L 664.0,267.0 L 668.4,267.0 L 672.8,266.6 L 677.2,266.6 L 681.6,266.6 L 686.1,265.9 L 690.5,265.9 L 694.9,265.9 L 699.3,265.9 L 703.7,265.9 L 708.2,265.9 L 712.6,265.5 L 717.0,265.5 L 721.4,265.1 L 725.8,264.3 L 730.2,264.1 L 734.7,264.1 L 739.1,264.1 L 743.5,264.1 L 747.9,263.7 L 752.3,263.5 L 756.7,263.5 L 761.2,263.3 L 765.6,262.7 L 770.0,262.3 L 770.0,340 Z" fill="url(#g4)" clip-path="url(#ca)"/>
<path d="M 72.0,291.4 L 76.4,290.8 L 80.8,290.8 L 85.3,290.8 L 89.7,290.6 L 94.1,290.2 L 98.5,290.0 L 102.9,289.7 L 107.3,289.7 L 111.8,289.5 L 116.2,289.3 L 120.6,289.3 L 125.0,289.3 L 129.4,289.3 L 133.8,289.3 L 138.3,289.3 L 142.7,288.9 L 147.1,288.9 L 151.5,289.1 L 155.9,288.5 L 160.4,288.7 L 164.8,288.1 L 169.2,287.5 L 173.6,287.3 L 178.0,287.5 L 182.4,287.5 L 186.9,286.9 L 191.3,286.7 L 195.7,286.7 L 200.1,286.3 L 204.5,286.1 L 208.9,285.7 L 213.4,285.7 L 217.8,285.5 L 222.2,284.9 L 226.6,284.3 L 231.0,283.9 L 235.5,283.9 L 239.9,283.9 L 244.3,283.8 L 248.7,283.4 L 253.1,283.4 L 257.5,283.2 L 262.0,282.6 L 266.4,282.4 L 270.8,282.4 L 275.2,282.4 L 279.6,282.4 L 284.1,282.2 L 288.5,281.6 L 292.9,281.4 L 297.3,281.2 L 301.7,281.0 L 306.1,281.0 L 310.6,280.8 L 315.0,280.8 L 319.4,280.8 L 323.8,280.2 L 328.2,280.2 L 332.6,280.2 L 337.1,279.8 L 341.5,279.2 L 345.9,279.2 L 350.3,279.0 L 354.7,278.8 L 359.2,278.8 L 363.6,278.8 L 368.0,278.4 L 372.4,278.4 L 376.8,277.3 L 381.2,277.1 L 385.7,276.9 L 390.1,276.9 L 394.5,276.7 L 398.9,276.7 L 403.3,276.7 L 407.7,276.7 L 412.2,276.7 L 416.6,276.7 L 421.0,276.3 L 425.4,276.1 L 429.8,275.1 L 434.3,275.3 L 438.7,275.3 L 443.1,275.1 L 447.5,275.1 L 451.9,275.1 L 456.3,274.7 L 460.8,274.7 L 465.2,274.7 L 469.6,274.7 L 474.0,274.7 L 478.4,274.7 L 482.8,274.5 L 487.3,274.5 L 491.7,273.7 L 496.1,273.7 L 500.5,273.5 L 504.9,273.3 L 509.4,273.1 L 513.8,272.9 L 518.2,272.5 L 522.6,272.5 L 527.0,272.0 L 531.4,272.0 L 535.9,271.8 L 540.3,271.6 L 544.7,271.6 L 549.1,271.6 L 553.5,271.6 L 557.9,271.6 L 562.4,271.6 L 566.8,271.0 L 571.2,271.0 L 575.6,270.6 L 580.0,270.2 L 584.5,269.6 L 588.9,269.4 L 593.3,269.4 L 597.7,268.4 L 602.1,268.2 L 606.5,268.2 L 611.0,267.6 L 615.4,267.6 L 619.8,267.4 L 624.2,267.4 L 628.6,267.6 L 633.1,267.8 L 637.5,267.6 L 641.9,267.2 L 646.3,267.4 L 650.7,267.2 L 655.1,267.0 L 659.6,267.0 L 664.0,267.0 L 668.4,267.0 L 672.8,266.6 L 677.2,266.6 L 681.6,266.6 L 686.1,265.9 L 690.5,265.9 L 694.9,265.9 L 699.3,265.9 L 703.7,265.9 L 708.2,265.9 L 712.6,265.5 L 717.0,265.5 L 721.4,265.1 L 725.8,264.3 L 730.2,264.1 L 734.7,264.1 L 739.1,264.1 L 743.5,264.1 L 747.9,263.7 L 752.3,263.5 L 756.7,263.5 L 761.2,263.3 L 765.6,262.7 L 770.0,262.3" fill="none" stroke="#34C759" stroke-width="2.5" stroke-linejoin="round" clip-path="url(#ca)"/>
<text x="96.3" y="55.0" text-anchor="middle" font-size="9" fill="#4F8EF7" opacity="0.85" clip-path="url(#ca)">+0.5% (+8)</text>
<text x="96.3" y="66.0" text-anchor="middle" font-size="9" fill="#BF5AF2" opacity="0.85" clip-path="url(#ca)">+1.0% (+10)</text>
<text x="96.3" y="77.0" text-anchor="middle" font-size="9" fill="#34C759" opacity="0.85" clip-path="url(#ca)">+1.5% (+11)</text>
<text x="180.2" y="55.0" text-anchor="middle" font-size="9" fill="#4F8EF7" opacity="0.85" clip-path="url(#ca)">+4.0% (+65)</text>
<text x="180.2" y="66.0" text-anchor="middle" font-size="9" fill="#BF5AF2" opacity="0.85" clip-path="url(#ca)">+3.5% (+35)</text>
<text x="180.2" y="77.0" text-anchor="middle" font-size="9" fill="#34C759" opacity="0.85" clip-path="url(#ca)">+3.6% (+27)</text>
<text x="297.3" y="55.0" text-anchor="middle" font-size="9" fill="#4F8EF7" opacity="0.85" clip-path="url(#ca)">+4.1% (+70)</text>
<text x="297.3" y="66.0" text-anchor="middle" font-size="9" fill="#BF5AF2" opacity="0.85" clip-path="url(#ca)">+3.5% (+36)</text>
<text x="297.3" y="77.0" text-anchor="middle" font-size="9" fill="#34C759" opacity="0.85" clip-path="url(#ca)">+3.3% (+26)</text>
<text x="416.6" y="55.0" text-anchor="middle" font-size="9" fill="#4F8EF7" opacity="0.85" clip-path="url(#ca)">+3.5% (+61)</text>
<text x="416.6" y="66.0" text-anchor="middle" font-size="9" fill="#BF5AF2" opacity="0.85" clip-path="url(#ca)">+2.7% (+29)</text>
<text x="416.6" y="77.0" text-anchor="middle" font-size="9" fill="#34C759" opacity="0.85" clip-path="url(#ca)">+2.6% (+21)</text>
<text x="535.9" y="55.0" text-anchor="middle" font-size="9" fill="#4F8EF7" opacity="0.85" clip-path="url(#ca)">+2.7% (+49)</text>
<text x="535.9" y="66.0" text-anchor="middle" font-size="9" fill="#BF5AF2" opacity="0.85" clip-path="url(#ca)">+3.0% (+33)</text>
<text x="535.9" y="77.0" text-anchor="middle" font-size="9" fill="#34C759" opacity="0.85" clip-path="url(#ca)">+3.2% (+27)</text>
<text x="652.9" y="55.0" text-anchor="middle" font-size="9" fill="#4F8EF7" opacity="0.85" clip-path="url(#ca)">+2.9% (+54)</text>
<text x="652.9" y="66.0" text-anchor="middle" font-size="9" fill="#BF5AF2" opacity="0.85" clip-path="url(#ca)">+1.9% (+22)</text>
<text x="652.9" y="77.0" text-anchor="middle" font-size="9" fill="#34C759" opacity="0.85" clip-path="url(#ca)">+1.5% (+13)</text>
<text x="741.3" y="55.0" text-anchor="middle" font-size="9" fill="#4F8EF7" opacity="0.85" clip-path="url(#ca)">+1.5% (+29)</text>
<text x="741.3" y="66.0" text-anchor="middle" font-size="9" fill="#BF5AF2" opacity="0.85" clip-path="url(#ca)">+1.8% (+21)</text>
<text x="741.3" y="77.0" text-anchor="middle" font-size="9" fill="#34C759" opacity="0.85" clip-path="url(#ca)">+1.8% (+16)</text>
<rect x="211" y="369" width="12" height="12" fill="#4F8EF7" rx="2"/>
<text x="227" y="379" font-size="12" fill="#111827">Authors</text>
<rect x="351" y="369" width="12" height="12" fill="#BF5AF2" rx="2"/>
<text x="367" y="379" font-size="12" fill="#111827">Contributors</text>
<rect x="491" y="369" width="12" height="12" fill="#34C759" rx="2"/>
<text x="507" y="379" font-size="12" fill="#111827">Non-author contributors</text>
<text x="72" y="394" font-size="8" fill="#e5e7eb">data since Dec 11, 2025</text>
</svg>