<svg xmlns="http://www.w3.org/2000/svg" width="800" height="400" viewBox="0 0 800 400">
<defs>
  <style>text { font-family: -apple-system, BlinkMacSystemFont, 'Segoe UI', Roboto, sans-serif; }</style>
  <linearGradient id="g2" x1="0" y1="0" x2="0" y2="1">
  <stop offset="0%" stop-color="#4F8EF7" stop-opacity="0.25"/>
  <stop offset="100%" stop-color="#4F8EF7" stop-opacity="0"/>
</linearGradient>
<linearGradient id="g3" x1="0" y1="0" x2="0" y2="1">
  <stop offset="0%" stop-color="#BF5AF2" stop-opacity="0.25"/>
  <stop offset="100%" stop-color="#BF5AF2" stop-opacity="0"/>
</linearGradient>
<linearGradient id="g4" x1="0" y1="0" x2="0" y2="1">
  <stop offset="0%" stop-color="#34C759" stop-opacity="0.25"/>
  <stop offset="100%" stop-color="#34C759" stop-opacity="0"/>
</linearGradient>
  <clipPath id="ca"><rect x="72" y="45" width="698" height="295"/></clipPath>
</defs>
<rect width="800" height="400" fill="#ffffff" rx="12"/>
<text x="400" y="26" text-anchor="middle" font-size="15" font-weight="600" fill="#111827">Community Growth Over Time</text>
<line x1="72" y1="340.0" x2="770" y2="340.0" stroke="#f3f4f6" stroke-width="1"/>
<text x="66" y="344.0" text-anchor="end" font-size="11" fill="#6b7280">500</text>
<line x1="72" y1="241.7" x2="770" y2="241.7" stroke="#f3f4f6" stroke-width="1"/>
<text x="66" y="245.7" text-anchor="end" font-size="11" fill="#6b7280">1.0k</text>
<line x1="72" y1="143.3" x2="770" y2="143.3" stroke="#f3f4f6" stroke-width="1"/>
<text x="66" y="147.3" text-anchor="end" font-size="11" fill="#6b7280">1.5k</text>
<line x1="72" y1="45.0" x2="770" y2="45.0" stroke="#f3f4f6" stroke-width="1"/>
<text x="66" y="49.0" text-anchor="end" font-size="11" fill="#6b7280">2.0k</text>
<line x1="155.8" y1="45" x2="155.8" y2="340" stroke="#e5e7eb" stroke-width="1" stroke-dasharray="3,3" clip-path="url(#ca)"/>
<line x1="337.2" y1="45" x2="337.2" y2="340" stroke="#e5e7eb" stroke-width="1" stroke-dasharray="3,3" clip-path="url(#ca)"/>
<line x1="525.7" y1="45" x2="525.7" y2="340" stroke="#e5e7eb" stroke-width="1" stroke-dasharray="3,3" clip-path="url(#ca)"/>
<line x1="714.2" y1="45" x2="714.2" y2="340" stroke="#e5e7eb" stroke-width="1" stroke-dasharray="3,3" clip-path="url(#ca)"/>
<text x="72.0" y="358.0" text-anchor="middle" font-size="11" fill="#6b7280">Dec 11</text>
<text x="211.6" y="358.0" text-anchor="middle" font-size="11" fill="#6b7280">Jan 13</text>
<text x="351.2" y="358.0" text-anchor="middle" font-size="11" fill="#6b7280">Feb 3</text>
<text x="490.8" y="358.0" text-anchor="middle" font-size="11" fill="#6b7280">Feb 24</text>
<text x="630.4" y="358.0" text-anchor="middle" font-size="11" fill="#6b7280">Mar 17</text>
<text x="770.0" y="358.0" text-anchor="middle" font-size="11" fill="#6b7280">Apr 10</text>
<line x1="72" y1="45" x2="72" y2="340" stroke="#e5e7eb" stroke-width="1"/>
<line x1="72" y1="340" x2="770" y2="340" stroke="#e5e7eb" stroke-width="1"/>
<text x="-192.5" y="18" text-anchor="middle" font-size="12" fill="#6b7280" transform="rotate(-90)">People</text>
<path d="M 72.0,340 L 72.0,120.1 L 79.0,120.1 L 86.0,120.1 L 92.9,119.5 L 99.9,119.5 L 106.9,119.1 L 113.9,118.9 L 120.9,119.1 L 127.8,118.6 L 134.8,118.6 L 141.8,118.6 L 148.8,118.6 L 155.8,118.6 L 162.7,118.6 L 169.7,118.6 L 176.7,118.6 L 183.7,118.4 L 190.7,117.8 L 197.6,116.6 L 204.6,116.0 L 211.6,115.8 L 218.6,115.8 L 225.6,115.2 L 232.5,113.8 L 239.5,113.0 L 246.5,113.0 L 253.5,112.1 L 260.5,111.7 L 267.4,110.9 L 274.4,110.3 L 281.4,109.7 L 288.4,109.1 L 295.4,109.1 L 302.3,107.7 L 309.3,106.9 L 316.3,106.9 L 323.3,106.2 L 330.3,105.8 L 337.2,105.6 L 344.2,105.4 L 351.2,105.4 L 358.2,104.8 L 365.2,102.4 L 372.1,101.0 L 379.1,100.3 L 386.1,100.1 L 393.1,99.7 L 400.1,98.9 L 407.0,98.5 L 414.0,98.1 L 421.0,97.7 L 428.0,97.3 L 435.0,96.9 L 441.9,96.9 L 448.9,95.0 L 455.9,95.0 L 462.9,94.8 L 469.9,94.6 L 476.8,94.2 L 483.8,94.2 L 490.8,93.2 L 497.8,92.0 L 504.8,91.6 L 511.7,92.0 L 518.7,91.8 L 525.7,91.6 L 532.7,91.6 L 539.7,91.2 L 546.6,90.4 L 553.6,90.0 L 560.6,89.6 L 567.6,89.4 L 574.6,89.4 L 581.5,88.7 L 588.5,88.3 L 595.5,88.3 L 602.5,86.7 L 609.5,86.7 L 616.4,86.7 L 623.4,86.7 L 630.4,86.5 L 637.4,85.9 L 644.4,85.1 L 651.3,84.7 L 658.3,84.7 L 665.3,84.3 L 672.3,82.8 L 679.3,81.8 L 686.2,81.6 L 693.2,81.4 L 700.2,80.8 L 707.2,79.6 L 714.2,79.2 L 721.1,78.8 L 728.1,77.6 L 735.1,77.4 L 742.1,77.4 L 749.1,77.4 L 756.0,77.3 L 763.0,76.1 L 770.0,75.9 L 770.0,340 Z" fill="url(#g2)" clip-path="url(#ca)"/>
<path d="M 72.0,120.1 L 79.0,120.1 L 86.0,120.1 L 92.9,119.5 L 99.9,119.5 L 106.9,119.1 L 113.9,118.9 L 120.9,119.1 L 127.8,118.6 L 134.8,118.6 L 141.8,118.6 L 148.8,118.6 L 155.8,118.6 L 162.7,118.6 L 169.7,118.6 L 176.7,118.6 L 183.7,118.4 L 190.7,117.8 L 197.6,116.6 L 204.6,116.0 L 211.6,115.8 L 218.6,115.8 L 225.6,115.2 L 232.5,113.8 L 239.5,113.0 L 246.5,113.0 L 253.5,112.1 L 260.5,111.7 L 267.4,110.9 L 274.4,110.3 L 281.4,109.7 L 288.4,109.1 L 295.4,109.1 L 302.3,107.7 L 309.3,106.9 L 316.3,106.9 L 323.3,106.2 L 330.3,105.8 L 337.2,105.6 L 344.2,105.4 L 351.2,105.4 L 358.2,104.8 L 365.2,102.4 L 372.1,101.0 L 379.1,100.3 L 386.1,100.1 L 393.1,99.7 L 400.1,98.9 L 407.0,98.5 L 414.0,98.1 L 421.0,97.7 L 428.0,97.3 L 435.0,96.9 L 441.9,96.9 L 448.9,95.0 L 455.9,95.0 L 462.9,94.8 L 469.9,94.6 L 476.8,94.2 L 483.8,94.2 L 490.8,93.2 L 497.8,92.0 L 504.8,91.6 L 511.7,92.0 L 518.7,91.8 L 525.7,91.6 L 532.7,91.6 L 539.7,91.2 L 546.6,90.4 L 553.6,90.0 L 560.6,89.6 L 567.6,89.4 L 574.6,89.4 L 581.5,88.7 L 588.5,88.3 L 595.5,88.3 L 602.5,86.7 L 609.5,86.7 L 616.4,86.7 L 623.4,86.7 L 630.4,86.5 L 637.4,85.9 L 644.4,85.1 L 651.3,84.7 L 658.3,84.7 L 665.3,84.3 L 672.3,82.8 L 679.3,81.8 L 686.2,81.6 L 693.2,81.4 L 700.2,80.8 L 707.2,79.6 L 714.2,79.2 L 721.1,78.8 L 728.1,77.6 L 735.1,77.4 L 742.1,77.4 L 749.1,77.4 L 756.0,77.3 L 763.0,76.1 L 770.0,75.9" fill="none" stroke="#4F8EF7" stroke-width="2.5" stroke-linejoin="round" clip-path="url(#ca)"/>
<path d="M 72.0,340 L 72.0,244.2 L 79.0,243.6 L 86.0,243.6 L 92.9,243.6 L 99.9,243.4 L 106.9,243.0 L 113.9,242.8 L 120.9,242.6 L 127.8,242.6 L 134.8,242.5 L 141.8,242.3 L 148.8,242.3 L 155.8,242.3 L 162.7,242.3 L 169.7,242.3 L 176.7,242.3 L 183.7,241.9 L 190.7,241.9 L 197.6,241.9 L 204.6,241.1 L 211.6,240.9 L 218.6,240.5 L 225.6,239.7 L 232.5,239.5 L 239.5,239.5 L 246.5,239.5 L 253.5,238.9 L 260.5,238.5 L 267.4,238.5 L 274.4,238.1 L 281.4,237.9 L 288.4,237.5 L 295.4,237.5 L 302.3,237.3 L 309.3,236.6 L 316.3,236.0 L 323.3,235.6 L 330.3,235.4 L 337.2,235.4 L 344.2,235.2 L 351.2,234.8 L 358.2,234.8 L 365.2,234.6 L 372.1,234.0 L 379.1,233.6 L 386.1,233.6 L 393.1,233.6 L 400.1,233.6 L 407.0,233.4 L 414.0,232.8 L 421.0,232.4 L 428.0,232.2 L 435.0,232.0 L 441.9,231.8 L 448.9,231.6 L 455.9,231.4 L 462.9,231.2 L 469.9,230.7 L 476.8,230.5 L 483.8,230.3 L 490.8,229.5 L 497.8,228.7 L 504.8,228.7 L 511.7,228.5 L 518.7,228.3 L 525.7,228.3 L 532.7,228.3 L 539.7,227.9 L 546.6,227.9 L 553.6,226.7 L 560.6,226.5 L 567.6,226.3 L 574.6,226.3 L 581.5,225.9 L 588.5,225.7 L 595.5,225.7 L 602.5,225.5 L 609.5,225.5 L 616.4,225.5 L 623.4,225.1 L 630.4,224.9 L 637.4,224.0 L 644.4,224.2 L 651.3,224.0 L 658.3,223.8 L 665.3,223.8 L 672.3,223.6 L 679.3,223.0 L 686.2,223.0 L 693.2,223.0 L 700.2,223.0 L 707.2,222.6 L 714.2,222.6 L 721.1,222.2 L 728.1,221.8 L 735.1,221.0 L 742.1,221.0 L 749.1,220.6 L 756.0,220.4 L 763.0,220.2 L 770.0,220.0 L 770.0,340 Z" fill="url(#g3)" clip-path="url(#ca)"/>
<path d="M 72.0,244.2 L 79.0,243.6 L 86.0,243.6 L 92.9,243.6 L 99.9,243.4 L 106.9,243.0 L 113.9,242.8 L 120.9,242.6 L 127.8,242.6 L 134.8,242.5 L 141.8,242.3 L 148.8,242.3 L 155.8,242.3 L 162.7,242.3 L 169.7,242.3 L 176.7,242.3 L 183.7,241.9 L 190.7,241.9 L 197.6,241.9 L 204.6,241.1 L 211.6,240.9 L 218.6,240.5 L 225.6,239.7 L 232.5,239.5 L 239.5,239.5 L 246.5,239.5 L 253.5,238.9 L 260.5,238.5 L 267.4,238.5 L 274.4,238.1 L 281.4,237.9 L 288.4,237.5 L 295.4,237.5 L 302.3,237.3 L 309.3,236.6 L 316.3,236.0 L 323.3,235.6 L 330.3,235.4 L 337.2,235.4 L 344.2,235.2 L 351.2,234.8 L 358.2,234.8 L 365.2,234.6 L 372.1,234.0 L 379.1,233.6 L 386.1,233.6 L 393.1,233.6 L 400.1,233.6 L 407.0,233.4 L 414.0,232.8 L 421.0,232.4 L 428.0,232.2 L 435.0,232.0 L 441.9,231.8 L 448.9,231.6 L 455.9,231.4 L 462.9,231.2 L 469.9,230.7 L 476.8,230.5 L 483.8,230.3 L 490.8,229.5 L 497.8,228.7 L 504.8,228.7 L 511.7,228.5 L 518.7,228.3 L 525.7,228.3 L 532.7,228.3 L 539.7,227.9 L 546.6,227.9 L 553.6,226.7 L 560.6,226.5 L 567.6,226.3 L 574.6,226.3 L 581.5,225.9 L 588.5,225.7 L 595.5,225.7 L 602.5,225.5 L 609.5,225.5 L 616.4,225.5 L 623.4,225.1 L 630.4,224.9 L 637.4,224.0 L 644.4,224.2 L 651.3,224.0 L 658.3,223.8 L 665.3,223.8 L 672.3,223.6 L 679.3,223.0 L 686.2,223.0 L 693.2,223.0 L 700.2,223.0 L 707.2,222.6 L 714.2,222.6 L 721.1,222.2 L 728.1,221.8 L 735.1,221.0 L 742.1,221.0 L 749.1,220.6 L 756.0,220.4 L 763.0,220.2 L 770.0,220.0" fill="none" stroke="#BF5AF2" stroke-width="2.5" stroke-linejoin="round" clip-path="url(#ca)"/>
<path d="M 72.0,340 L 72.0,291.4 L 79.0,290.8 L 86.0,290.8 L 92.9,290.8 L 99.9,290.6 L 106.9,290.2 L 113.9,290.0 L 120.9,289.7 L 127.8,289.7 L 134.8,289.5 L 141.8,289.3 L 148.8,289.3 L 155.8,289.3 L 162.7,289.3 L 169.7,289.3 L 176.7,289.3 L 183.7,288.9 L 190.7,288.9 L 197.6,289.1 L 204.6,288.5 L 211.6,288.7 L 218.6,288.1 L 225.6,287.5 L 232.5,287.3 L 239.5,287.5 L 246.5,287.5 L 253.5,286.9 L 260.5,286.7 L 267.4,286.7 L 274.4,286.3 L 281.4,286.1 L 288.4,285.7 L 295.4,285.7 L 302.3,285.5 L 309.3,284.9 L 316.3,284.3 L 323.3,283.9 L 330.3,283.9 L 337.2,283.9 L 344.2,283.8 L 351.2,283.4 L 358.2,283.4 L 365.2,283.2 L 372.1,282.6 L 379.1,282.4 L 386.1,282.4 L 393.1,282.4 L 400.1,282.4 L 407.0,282.2 L 414.0,281.6 L 421.0,281.4 L 428.0,281.2 L 435.0,281.0 L 441.9,281.0 L 448.9,280.8 L 455.9,280.8 L 462.9,280.8 L 469.9,280.2 L 476.8,280.2 L 483.8,280.2 L 490.8,279.8 L 497.8,279.2 L 504.8,279.2 L 511.7,279.0 L 518.7,278.8 L 525.7,278.8 L 532.7,278.8 L 539.7,278.4 L 546.6,278.4 L 553.6,277.3 L 560.6,277.1 L 567.6,276.9 L 574.6,276.9 L 581.5,276.7 L 588.5,276.7 L 595.5,276.7 L 602.5,276.7 L 609.5,276.7 L 616.4,276.7 L 623.4,276.3 L 630.4,276.1 L 637.4,275.1 L 644.4,275.3 L 651.3,275.3 L 658.3,275.1 L 665.3,275.1 L 672.3,275.1 L 679.3,274.7 L 686.2,274.7 L 693.2,274.7 L 700.2,274.7 L 707.2,274.7 L 714.2,274.7 L 721.1,274.5 L 728.1,274.5 L 735.1,273.7 L 742.1,273.7 L 749.1,273.5 L 756.0,273.3 L 763.0,273.1 L 770.0,272.9 L 770.0,340 Z" fill="url(#g4)" clip-path="url(#ca)"/>
<path d="M 72.0,291.4 L 79.0,290.8 L 86.0,290.8 L 92.9,290.8 L 99.9,290.6 L 106.9,290.2 L 113.9,290.0 L 120.9,289.7 L 127.8,289.7 L 134.8,289.5 L 141.8,289.3 L 148.8,289.3 L 155.8,289.3 L 162.7,289.3 L 169.7,289.3 L 176.7,289.3 L 183.7,288.9 L 190.7,288.9 L 197.6,289.1 L 204.6,288.5 L 211.6,288.7 L 218.6,288.1 L 225.6,287.5 L 232.5,287.3 L 239.5,287.5 L 246.5,287.5 L 253.5,286.9 L 260.5,286.7 L 267.4,286.7 L 274.4,286.3 L 281.4,286.1 L 288.4,285.7 L 295.4,285.7 L 302.3,285.5 L 309.3,284.9 L 316.3,284.3 L 323.3,283.9 L 330.3,283.9 L 337.2,283.9 L 344.2,283.8 L 351.2,283.4 L 358.2,283.4 L 365.2,283.2 L 372.1,282.6 L 379.1,282.4 L 386.1,282.4 L 393.1,282.4 L 400.1,282.4 L 407.0,282.2 L 414.0,281.6 L 421.0,281.4 L 428.0,281.2 L 435.0,281.0 L 441.9,281.0 L 448.9,280.8 L 455.9,280.8 L 462.9,280.8 L 469.9,280.2 L 476.8,280.2 L 483.8,280.2 L 490.8,279.8 L 497.8,279.2 L 504.8,279.2 L 511.7,279.0 L 518.7,278.8 L 525.7,278.8 L 532.7,278.8 L 539.7,278.4 L 546.6,278.4 L 553.6,277.3 L 560.6,277.1 L 567.6,276.9 L 574.6,276.9 L 581.5,276.7 L 588.5,276.7 L 595.5,276.7 L 602.5,276.7 L 609.5,276.7 L 616.4,276.7 L 623.4,276.3 L 630.4,276.1 L 637.4,275.1 L 644.4,275.3 L 651.3,275.3 L 658.3,275.1 L 665.3,275.1 L 672.3,275.1 L 679.3,274.7 L 686.2,274.7 L 693.2,274.7 L 700.2,274.7 L 707.2,274.7 L 714.2,274.7 L 721.1,274.5 L 728.1,274.5 L 735.1,273.7 L 742.1,273.7 L 749.1,273.5 L 756.0,273.3 L 763.0,273.1 L 770.0,272.9" fill="none" stroke="#34C759" stroke-width="2.5" stroke-linejoin="round" clip-path="url(#ca)"/>
<text x="110.4" y="55.0" text-anchor="middle" font-size="9" fill="#4F8EF7" opacity="0.85" clip-path="url(#ca)">+0.5% (+8)</text>
<text x="110.4" y="66.0" text-anchor="middle" font-size="9" fill="#BF5AF2" opacity="0.85" clip-path="url(#ca)">+1.0% (+10)</text>
<text x="110.4" y="77.0" text-anchor="middle" font-size="9" fill="#34C759" opacity="0.85" clip-path="url(#ca)">+1.5% (+11)</text>
<text x="243.0" y="55.0" text-anchor="middle" font-size="9" fill="#4F8EF7" opacity="0.85" clip-path="url(#ca)">+4.0% (+65)</text>
<text x="243.0" y="66.0" text-anchor="middle" font-size="9" fill="#BF5AF2" opacity="0.85" clip-path="url(#ca)">+3.5% (+35)</text>
<text x="243.0" y="77.0" text-anchor="middle" font-size="9" fill="#34C759" opacity="0.85" clip-path="url(#ca)">+3.6% (+27)</text>
<text x="428.0" y="55.0" text-anchor="middle" font-size="9" fill="#4F8EF7" opacity="0.85" clip-path="url(#ca)">+4.1% (+70)</text>
<text x="428.0" y="66.0" text-anchor="middle" font-size="9" fill="#BF5AF2" opacity="0.85" clip-path="url(#ca)">+3.5% (+36)</text>
<text x="428.0" y="77.0" text-anchor="middle" font-size="9" fill="#34C759" opacity="0.85" clip-path="url(#ca)">+3.3% (+26)</text>
<text x="616.4" y="55.0" text-anchor="middle" font-size="9" fill="#4F8EF7" opacity="0.85" clip-path="url(#ca)">+3.5% (+61)</text>
<text x="616.4" y="66.0" text-anchor="middle" font-size="9" fill="#BF5AF2" opacity="0.85" clip-path="url(#ca)">+2.7% (+29)</text>
<text x="616.4" y="77.0" text-anchor="middle" font-size="9" fill="#34C759" opacity="0.85" clip-path="url(#ca)">+2.6% (+21)</text>
<text x="742.1" y="55.0" text-anchor="middle" font-size="9" fill="#4F8EF7" opacity="0.85" clip-path="url(#ca)">+0.9% (+17)</text>
<text x="742.1" y="66.0" text-anchor="middle" font-size="9" fill="#BF5AF2" opacity="0.85" clip-path="url(#ca)">+1.2% (+13)</text>
<text x="742.1" y="77.0" text-anchor="middle" font-size="9" fill="#34C759" opacity="0.85" clip-path="url(#ca)">+1.1% (+9)</text>
<rect x="211" y="369" width="12" height="12" fill="#4F8EF7" rx="2"/>
<text x="227" y="379" font-size="12" fill="#111827">Authors</text>
<rect x="351" y="369" width="12" height="12" fill="#BF5AF2" rx="2"/>
<text x="367" y="379" font-size="12" fill="#111827">Contributors</text>
<rect x="491" y="369" width="12" height="12" fill="#34C759" rx="2"/>
<text x="507" y="379" font-size="12" fill="#111827">Non-author contributors</text>
<text x="72" y="394" font-size="8" fill="#e5e7eb">data since Dec 11, 2025</text>
</svg>