<svg xmlns="http://www.w3.org/2000/svg" width="800" height="400" viewBox="0 0 800 400">
<defs>
  <style>text { font-family: -apple-system, BlinkMacSystemFont, 'Segoe UI', Roboto, sans-serif; }</style>
  <linearGradient id="g2" x1="0" y1="0" x2="0" y2="1">
  <stop offset="0%" stop-color="#4F8EF7" stop-opacity="0.25"/>
  <stop offset="100%" stop-color="#4F8EF7" stop-opacity="0"/>
</linearGradient>
<linearGradient id="g3" x1="0" y1="0" x2="0" y2="1">
  <stop offset="0%" stop-color="#BF5AF2" stop-opacity="0.25"/>
  <stop offset="100%" stop-color="#BF5AF2" stop-opacity="0"/>
</linearGradient>
  <clipPath id="ca"><rect x="72" y="45" width="698" height="295"/></clipPath>
</defs>
<rect width="800" height="400" fill="#ffffff" rx="12"/>
<text x="400" y="26" text-anchor="middle" font-size="15" font-weight="600" fill="#111827">Community Growth Over Time</text>
<line x1="72" y1="340.0" x2="770" y2="340.0" stroke="#f3f4f6" stroke-width="1"/>
<text x="66" y="344.0" text-anchor="end" font-size="11" fill="#6b7280">905</text>
<line x1="72" y1="281.0" x2="770" y2="281.0" stroke="#f3f4f6" stroke-width="1"/>
<text x="66" y="285.0" text-anchor="end" font-size="11" fill="#6b7280">1.1k</text>
<line x1="72" y1="222.0" x2="770" y2="222.0" stroke="#f3f4f6" stroke-width="1"/>
<text x="66" y="226.0" text-anchor="end" font-size="11" fill="#6b7280">1.3k</text>
<line x1="72" y1="163.0" x2="770" y2="163.0" stroke="#f3f4f6" stroke-width="1"/>
<text x="66" y="167.0" text-anchor="end" font-size="11" fill="#6b7280">1.5k</text>
<line x1="72" y1="104.0" x2="770" y2="104.0" stroke="#f3f4f6" stroke-width="1"/>
<text x="66" y="108.0" text-anchor="end" font-size="11" fill="#6b7280">1.7k</text>
<line x1="72" y1="45.0" x2="770" y2="45.0" stroke="#f3f4f6" stroke-width="1"/>
<text x="66" y="49.0" text-anchor="end" font-size="11" fill="#6b7280">1.9k</text>
<line x1="168.3" y1="45" x2="168.3" y2="340" stroke="#e5e7eb" stroke-width="1" stroke-dasharray="3,3" clip-path="url(#ca)"/>
<line x1="376.9" y1="45" x2="376.9" y2="340" stroke="#e5e7eb" stroke-width="1" stroke-dasharray="3,3" clip-path="url(#ca)"/>
<line x1="593.5" y1="45" x2="593.5" y2="340" stroke="#e5e7eb" stroke-width="1" stroke-dasharray="3,3" clip-path="url(#ca)"/>
<text x="72.0" y="358.0" text-anchor="middle" font-size="11" fill="#6b7280">Dec 11</text>
<text x="208.4" y="358.0" text-anchor="middle" font-size="11" fill="#6b7280">Jan 8</text>
<text x="352.8" y="358.0" text-anchor="middle" font-size="11" fill="#6b7280">Jan 29</text>
<text x="489.2" y="358.0" text-anchor="middle" font-size="11" fill="#6b7280">Feb 15</text>
<text x="633.6" y="358.0" text-anchor="middle" font-size="11" fill="#6b7280">Mar 6</text>
<text x="770.0" y="358.0" text-anchor="middle" font-size="11" fill="#6b7280">Mar 25</text>
<line x1="72" y1="45" x2="72" y2="340" stroke="#e5e7eb" stroke-width="1"/>
<line x1="72" y1="340" x2="770" y2="340" stroke="#e5e7eb" stroke-width="1"/>
<text x="-192.5" y="18" text-anchor="middle" font-size="12" fill="#6b7280" transform="rotate(-90)">People</text>
<path d="M 72.0,340 L 72.0,126.7 L 80.0,126.7 L 88.0,126.7 L 96.1,125.8 L 104.1,125.8 L 112.1,125.2 L 120.1,124.9 L 128.2,125.2 L 136.2,124.3 L 144.2,124.3 L 152.2,124.3 L 160.3,124.3 L 168.3,124.3 L 176.3,124.3 L 184.3,124.3 L 192.3,124.3 L 200.4,124.0 L 208.4,123.1 L 216.4,121.3 L 224.4,120.4 L 232.5,120.1 L 240.5,120.1 L 248.5,119.2 L 256.5,117.1 L 264.6,115.9 L 272.6,115.9 L 280.6,114.4 L 288.6,113.8 L 296.6,112.6 L 304.7,111.8 L 312.7,110.9 L 320.7,110.0 L 328.7,110.0 L 336.8,107.9 L 344.8,106.7 L 352.8,106.7 L 360.8,105.5 L 368.9,104.9 L 376.9,104.6 L 384.9,104.3 L 392.9,104.3 L 400.9,103.4 L 409.0,99.8 L 417.0,97.7 L 425.0,96.5 L 433.0,96.2 L 441.1,95.6 L 449.1,94.4 L 457.1,93.8 L 465.1,93.2 L 473.1,92.6 L 481.2,92.0 L 489.2,91.4 L 497.2,91.4 L 505.2,88.4 L 513.3,88.4 L 521.3,88.1 L 529.3,87.8 L 537.3,87.2 L 545.4,87.2 L 553.4,85.7 L 561.4,83.9 L 569.4,83.3 L 577.4,83.9 L 585.5,83.6 L 593.5,83.3 L 601.5,83.3 L 609.5,82.7 L 617.6,81.5 L 625.6,80.9 L 633.6,80.3 L 641.6,80.1 L 649.7,80.1 L 657.7,78.9 L 665.7,78.3 L 673.7,78.3 L 681.7,75.9 L 689.8,75.9 L 697.8,75.9 L 705.8,75.9 L 713.8,75.6 L 721.9,74.7 L 729.9,73.5 L 737.9,72.9 L 745.9,72.9 L 754.0,72.3 L 762.0,69.9 L 770.0,69.6 L 770.0,340 Z" fill="url(#g2)" clip-path="url(#ca)"/>
<path d="M 72.0,126.7 L 80.0,126.7 L 88.0,126.7 L 96.1,125.8 L 104.1,125.8 L 112.1,125.2 L 120.1,124.9 L 128.2,125.2 L 136.2,124.3 L 144.2,124.3 L 152.2,124.3 L 160.3,124.3 L 168.3,124.3 L 176.3,124.3 L 184.3,124.3 L 192.3,124.3 L 200.4,124.0 L 208.4,123.1 L 216.4,121.3 L 224.4,120.4 L 232.5,120.1 L 240.5,120.1 L 248.5,119.2 L 256.5,117.1 L 264.6,115.9 L 272.6,115.9 L 280.6,114.4 L 288.6,113.8 L 296.6,112.6 L 304.7,111.8 L 312.7,110.9 L 320.7,110.0 L 328.7,110.0 L 336.8,107.9 L 344.8,106.7 L 352.8,106.7 L 360.8,105.5 L 368.9,104.9 L 376.9,104.6 L 384.9,104.3 L 392.9,104.3 L 400.9,103.4 L 409.0,99.8 L 417.0,97.7 L 425.0,96.5 L 433.0,96.2 L 441.1,95.6 L 449.1,94.4 L 457.1,93.8 L 465.1,93.2 L 473.1,92.6 L 481.2,92.0 L 489.2,91.4 L 497.2,91.4 L 505.2,88.4 L 513.3,88.4 L 521.3,88.1 L 529.3,87.8 L 537.3,87.2 L 545.4,87.2 L 553.4,85.7 L 561.4,83.9 L 569.4,83.3 L 577.4,83.9 L 585.5,83.6 L 593.5,83.3 L 601.5,83.3 L 609.5,82.7 L 617.6,81.5 L 625.6,80.9 L 633.6,80.3 L 641.6,80.1 L 649.7,80.1 L 657.7,78.9 L 665.7,78.3 L 673.7,78.3 L 681.7,75.9 L 689.8,75.9 L 697.8,75.9 L 705.8,75.9 L 713.8,75.6 L 721.9,74.7 L 729.9,73.5 L 737.9,72.9 L 745.9,72.9 L 754.0,72.3 L 762.0,69.9 L 770.0,69.6" fill="none" stroke="#4F8EF7" stroke-width="2.5" stroke-linejoin="round" clip-path="url(#ca)"/>
<path d="M 72.0,340 L 72.0,315.4 L 80.0,314.5 L 88.0,314.5 L 96.1,314.5 L 104.1,314.2 L 112.1,313.6 L 120.1,313.3 L 128.2,313.0 L 136.2,313.0 L 144.2,312.7 L 152.2,312.4 L 160.3,312.4 L 168.3,312.4 L 176.3,312.4 L 184.3,312.4 L 192.3,312.4 L 200.4,311.8 L 208.4,311.8 L 216.4,311.8 L 224.4,310.6 L 232.5,310.3 L 240.5,309.7 L 248.5,308.5 L 256.5,308.2 L 264.6,308.2 L 272.6,308.2 L 280.6,307.3 L 288.6,306.7 L 296.6,306.7 L 304.7,306.1 L 312.7,305.8 L 320.7,305.2 L 328.7,305.2 L 336.8,304.9 L 344.8,303.8 L 352.8,302.9 L 360.8,302.3 L 368.9,302.0 L 376.9,302.0 L 384.9,301.7 L 392.9,301.1 L 400.9,301.1 L 409.0,300.8 L 417.0,299.9 L 425.0,299.3 L 433.0,299.3 L 441.1,299.3 L 449.1,299.3 L 457.1,299.0 L 465.1,298.1 L 473.1,297.5 L 481.2,297.2 L 489.2,296.9 L 497.2,296.6 L 505.2,296.3 L 513.3,296.0 L 521.3,295.7 L 529.3,294.8 L 537.3,294.5 L 545.4,294.2 L 553.4,293.0 L 561.4,291.8 L 569.4,291.8 L 577.4,291.5 L 585.5,291.2 L 593.5,291.2 L 601.5,291.2 L 609.5,290.6 L 617.6,290.6 L 625.6,288.8 L 633.6,288.5 L 641.6,288.2 L 649.7,288.2 L 657.7,287.6 L 665.7,287.3 L 673.7,287.3 L 681.7,287.0 L 689.8,287.0 L 697.8,287.0 L 705.8,286.4 L 713.8,286.1 L 721.9,284.6 L 729.9,284.9 L 737.9,284.6 L 745.9,284.3 L 754.0,284.3 L 762.0,284.0 L 770.0,283.4 L 770.0,340 Z" fill="url(#g3)" clip-path="url(#ca)"/>
<path d="M 72.0,315.4 L 80.0,314.5 L 88.0,314.5 L 96.1,314.5 L 104.1,314.2 L 112.1,313.6 L 120.1,313.3 L 128.2,313.0 L 136.2,313.0 L 144.2,312.7 L 152.2,312.4 L 160.3,312.4 L 168.3,312.4 L 176.3,312.4 L 184.3,312.4 L 192.3,312.4 L 200.4,311.8 L 208.4,311.8 L 216.4,311.8 L 224.4,310.6 L 232.5,310.3 L 240.5,309.7 L 248.5,308.5 L 256.5,308.2 L 264.6,308.2 L 272.6,308.2 L 280.6,307.3 L 288.6,306.7 L 296.6,306.7 L 304.7,306.1 L 312.7,305.8 L 320.7,305.2 L 328.7,305.2 L 336.8,304.9 L 344.8,303.8 L 352.8,302.9 L 360.8,302.3 L 368.9,302.0 L 376.9,302.0 L 384.9,301.7 L 392.9,301.1 L 400.9,301.1 L 409.0,300.8 L 417.0,299.9 L 425.0,299.3 L 433.0,299.3 L 441.1,299.3 L 449.1,299.3 L 457.1,299.0 L 465.1,298.1 L 473.1,297.5 L 481.2,297.2 L 489.2,296.9 L 497.2,296.6 L 505.2,296.3 L 513.3,296.0 L 521.3,295.7 L 529.3,294.8 L 537.3,294.5 L 545.4,294.2 L 553.4,293.0 L 561.4,291.8 L 569.4,291.8 L 577.4,291.5 L 585.5,291.2 L 593.5,291.2 L 601.5,291.2 L 609.5,290.6 L 617.6,290.6 L 625.6,288.8 L 633.6,288.5 L 641.6,288.2 L 649.7,288.2 L 657.7,287.6 L 665.7,287.3 L 673.7,287.3 L 681.7,287.0 L 689.8,287.0 L 697.8,287.0 L 705.8,286.4 L 713.8,286.1 L 721.9,284.6 L 729.9,284.9 L 737.9,284.6 L 745.9,284.3 L 754.0,284.3 L 762.0,284.0 L 770.0,283.4" fill="none" stroke="#BF5AF2" stroke-width="2.5" stroke-linejoin="round" clip-path="url(#ca)"/>
<text x="116.1" y="55.0" text-anchor="middle" font-size="9" fill="#4F8EF7" opacity="0.85" clip-path="url(#ca)">+0.5%</text>
<text x="116.1" y="66.0" text-anchor="middle" font-size="9" fill="#BF5AF2" opacity="0.85" clip-path="url(#ca)">+1.0%</text>
<text x="268.6" y="55.0" text-anchor="middle" font-size="9" fill="#4F8EF7" opacity="0.85" clip-path="url(#ca)">+4.0%</text>
<text x="268.6" y="66.0" text-anchor="middle" font-size="9" fill="#BF5AF2" opacity="0.85" clip-path="url(#ca)">+3.5%</text>
<text x="481.2" y="55.0" text-anchor="middle" font-size="9" fill="#4F8EF7" opacity="0.85" clip-path="url(#ca)">+4.1%</text>
<text x="481.2" y="66.0" text-anchor="middle" font-size="9" fill="#BF5AF2" opacity="0.85" clip-path="url(#ca)">+3.5%</text>
<text x="681.7" y="55.0" text-anchor="middle" font-size="9" fill="#4F8EF7" opacity="0.85" clip-path="url(#ca)">+2.6%</text>
<text x="681.7" y="66.0" text-anchor="middle" font-size="9" fill="#BF5AF2" opacity="0.85" clip-path="url(#ca)">+2.4%</text>
<rect x="281" y="369" width="12" height="12" fill="#4F8EF7" rx="2"/>
<text x="297" y="379" font-size="12" fill="#111827">Authors</text>
<rect x="421" y="369" width="12" height="12" fill="#BF5AF2" rx="2"/>
<text x="437" y="379" font-size="12" fill="#111827">Contributors</text>
<text x="72" y="394" font-size="8" fill="#e5e7eb">data since Dec 11, 2025</text>
</svg>