<svg xmlns="http://www.w3.org/2000/svg" width="800" height="400" viewBox="0 0 800 400">
<defs>
  <style>text { font-family: -apple-system, BlinkMacSystemFont, 'Segoe UI', Roboto, sans-serif; }</style>
  <linearGradient id="g5" x1="0" y1="0" x2="0" y2="1">
  <stop offset="0%" stop-color="#34C759" stop-opacity="0.25"/>
  <stop offset="100%" stop-color="#34C759" stop-opacity="0"/>
</linearGradient>
<linearGradient id="g6" x1="0" y1="0" x2="0" y2="1">
  <stop offset="0%" stop-color="#4F8EF7" stop-opacity="0.25"/>
  <stop offset="100%" stop-color="#4F8EF7" stop-opacity="0"/>
</linearGradient>
<linearGradient id="g7" x1="0" y1="0" x2="0" y2="1">
  <stop offset="0%" stop-color="#FF6363" stop-opacity="0.25"/>
  <stop offset="100%" stop-color="#FF6363" stop-opacity="0"/>
</linearGradient>
  <clipPath id="ca"><rect x="72" y="45" width="698" height="295"/></clipPath>
</defs>
<rect width="800" height="400" fill="#ffffff" rx="12"/>
<text x="400" y="26" text-anchor="middle" font-size="15" font-weight="600" fill="#111827">Platform Support Over Time</text>
<line x1="72" y1="340.0" x2="770" y2="340.0" stroke="#f3f4f6" stroke-width="1"/>
<text x="66" y="344.0" text-anchor="end" font-size="11" fill="#6b7280">0</text>
<line x1="72" y1="281.0" x2="770" y2="281.0" stroke="#f3f4f6" stroke-width="1"/>
<text x="66" y="285.0" text-anchor="end" font-size="11" fill="#6b7280">200</text>
<line x1="72" y1="222.0" x2="770" y2="222.0" stroke="#f3f4f6" stroke-width="1"/>
<text x="66" y="226.0" text-anchor="end" font-size="11" fill="#6b7280">400</text>
<line x1="72" y1="163.0" x2="770" y2="163.0" stroke="#f3f4f6" stroke-width="1"/>
<text x="66" y="167.0" text-anchor="end" font-size="11" fill="#6b7280">600</text>
<line x1="72" y1="104.0" x2="770" y2="104.0" stroke="#f3f4f6" stroke-width="1"/>
<text x="66" y="108.0" text-anchor="end" font-size="11" fill="#6b7280">800</text>
<line x1="72" y1="45.0" x2="770" y2="45.0" stroke="#f3f4f6" stroke-width="1"/>
<text x="66" y="49.0" text-anchor="end" font-size="11" fill="#6b7280">1.0k</text>
<line x1="138.0" y1="45" x2="138.0" y2="340" stroke="#e5e7eb" stroke-width="1" stroke-dasharray="3,3" clip-path="url(#ca)"/>
<line x1="280.9" y1="45" x2="280.9" y2="340" stroke="#e5e7eb" stroke-width="1" stroke-dasharray="3,3" clip-path="url(#ca)"/>
<line x1="429.2" y1="45" x2="429.2" y2="340" stroke="#e5e7eb" stroke-width="1" stroke-dasharray="3,3" clip-path="url(#ca)"/>
<line x1="577.6" y1="45" x2="577.6" y2="340" stroke="#e5e7eb" stroke-width="1" stroke-dasharray="3,3" clip-path="url(#ca)"/>
<line x1="726.0" y1="45" x2="726.0" y2="340" stroke="#e5e7eb" stroke-width="1" stroke-dasharray="3,3" clip-path="url(#ca)"/>
<text x="72.0" y="358.0" text-anchor="middle" font-size="11" fill="#6b7280">Dec 11</text>
<text x="209.4" y="358.0" text-anchor="middle" font-size="11" fill="#6b7280">Jan 18</text>
<text x="352.3" y="358.0" text-anchor="middle" font-size="11" fill="#6b7280">Feb 14</text>
<text x="489.7" y="358.0" text-anchor="middle" font-size="11" fill="#6b7280">Mar 13</text>
<text x="632.6" y="358.0" text-anchor="middle" font-size="11" fill="#6b7280">Apr 12</text>
<text x="770.0" y="358.0" text-anchor="middle" font-size="11" fill="#6b7280">May 13</text>
<line x1="72" y1="45" x2="72" y2="340" stroke="#e5e7eb" stroke-width="1"/>
<line x1="72" y1="340" x2="770" y2="340" stroke="#e5e7eb" stroke-width="1"/>
<text x="-192.5" y="18" text-anchor="middle" font-size="12" fill="#6b7280" transform="rotate(-90)">Extensions</text>
<path d="M 72.0,340 L 72.0,242.6 L 77.5,240.0 L 83.0,239.7 L 88.5,238.5 L 94.0,237.9 L 99.5,235.0 L 105.0,233.2 L 110.5,232.3 L 116.0,230.8 L 121.5,229.1 L 127.0,228.2 L 132.5,227.9 L 138.0,227.0 L 143.4,226.4 L 148.9,226.1 L 154.4,225.2 L 159.9,224.4 L 165.4,223.5 L 170.9,222.6 L 176.4,221.4 L 181.9,220.5 L 187.4,219.6 L 192.9,218.8 L 198.4,217.0 L 203.9,216.4 L 209.4,216.4 L 214.9,214.3 L 220.4,213.7 L 225.9,213.2 L 231.4,212.6 L 236.9,211.1 L 242.4,209.0 L 247.9,208.7 L 253.4,208.4 L 258.9,206.7 L 264.4,206.1 L 269.9,204.6 L 275.4,204.3 L 280.9,204.0 L 286.3,203.4 L 291.8,203.4 L 297.3,203.4 L 302.8,199.3 L 308.3,199.0 L 313.8,198.1 L 319.3,197.8 L 324.8,197.5 L 330.3,196.6 L 335.8,196.0 L 341.3,195.4 L 346.8,193.7 L 352.3,193.7 L 357.8,193.7 L 363.3,193.4 L 368.8,190.4 L 374.3,189.6 L 379.8,189.0 L 385.3,188.1 L 390.8,187.5 L 396.3,187.5 L 401.8,186.0 L 407.3,183.9 L 412.8,183.4 L 418.3,183.1 L 423.7,182.2 L 429.2,182.2 L 434.7,181.6 L 440.2,180.7 L 445.7,180.1 L 451.2,178.9 L 456.7,177.8 L 462.2,177.5 L 467.7,177.5 L 473.2,176.3 L 478.7,176.3 L 484.2,176.3 L 489.7,174.5 L 495.2,174.2 L 500.7,173.9 L 506.2,173.9 L 511.7,173.6 L 517.2,172.4 L 522.7,171.9 L 528.2,171.0 L 533.7,171.0 L 539.2,170.7 L 544.7,169.5 L 550.2,168.6 L 555.7,168.6 L 561.1,168.3 L 566.6,167.7 L 572.1,165.7 L 577.6,165.1 L 583.1,164.2 L 588.6,164.2 L 594.1,163.6 L 599.6,163.3 L 605.1,163.0 L 610.6,162.7 L 616.1,162.4 L 621.6,162.4 L 627.1,162.1 L 632.6,161.8 L 638.1,160.9 L 643.6,159.8 L 649.1,159.5 L 654.6,158.6 L 660.1,158.6 L 665.6,157.4 L 671.1,157.1 L 676.6,157.1 L 682.1,157.1 L 687.6,156.2 L 693.1,155.9 L 698.6,155.9 L 704.0,155.9 L 709.5,155.6 L 715.0,154.4 L 720.5,154.2 L 726.0,153.3 L 731.5,152.7 L 737.0,152.7 L 742.5,151.8 L 748.0,151.2 L 753.5,151.2 L 759.0,150.9 L 764.5,149.4 L 770.0,148.0 L 770.0,340 Z" fill="url(#g5)" clip-path="url(#ca)"/>
<path d="M 72.0,242.6 L 77.5,240.0 L 83.0,239.7 L 88.5,238.5 L 94.0,237.9 L 99.5,235.0 L 105.0,233.2 L 110.5,232.3 L 116.0,230.8 L 121.5,229.1 L 127.0,228.2 L 132.5,227.9 L 138.0,227.0 L 143.4,226.4 L 148.9,226.1 L 154.4,225.2 L 159.9,224.4 L 165.4,223.5 L 170.9,222.6 L 176.4,221.4 L 181.9,220.5 L 187.4,219.6 L 192.9,218.8 L 198.4,217.0 L 203.9,216.4 L 209.4,216.4 L 214.9,214.3 L 220.4,213.7 L 225.9,213.2 L 231.4,212.6 L 236.9,211.1 L 242.4,209.0 L 247.9,208.7 L 253.4,208.4 L 258.9,206.7 L 264.4,206.1 L 269.9,204.6 L 275.4,204.3 L 280.9,204.0 L 286.3,203.4 L 291.8,203.4 L 297.3,203.4 L 302.8,199.3 L 308.3,199.0 L 313.8,198.1 L 319.3,197.8 L 324.8,197.5 L 330.3,196.6 L 335.8,196.0 L 341.3,195.4 L 346.8,193.7 L 352.3,193.7 L 357.8,193.7 L 363.3,193.4 L 368.8,190.4 L 374.3,189.6 L 379.8,189.0 L 385.3,188.1 L 390.8,187.5 L 396.3,187.5 L 401.8,186.0 L 407.3,183.9 L 412.8,183.4 L 418.3,183.1 L 423.7,182.2 L 429.2,182.2 L 434.7,181.6 L 440.2,180.7 L 445.7,180.1 L 451.2,178.9 L 456.7,177.8 L 462.2,177.5 L 467.7,177.5 L 473.2,176.3 L 478.7,176.3 L 484.2,176.3 L 489.7,174.5 L 495.2,174.2 L 500.7,173.9 L 506.2,173.9 L 511.7,173.6 L 517.2,172.4 L 522.7,171.9 L 528.2,171.0 L 533.7,171.0 L 539.2,170.7 L 544.7,169.5 L 550.2,168.6 L 555.7,168.6 L 561.1,168.3 L 566.6,167.7 L 572.1,165.7 L 577.6,165.1 L 583.1,164.2 L 588.6,164.2 L 594.1,163.6 L 599.6,163.3 L 605.1,163.0 L 610.6,162.7 L 616.1,162.4 L 621.6,162.4 L 627.1,162.1 L 632.6,161.8 L 638.1,160.9 L 643.6,159.8 L 649.1,159.5 L 654.6,158.6 L 660.1,158.6 L 665.6,157.4 L 671.1,157.1 L 676.6,157.1 L 682.1,157.1 L 687.6,156.2 L 693.1,155.9 L 698.6,155.9 L 704.0,155.9 L 709.5,155.6 L 715.0,154.4 L 720.5,154.2 L 726.0,153.3 L 731.5,152.7 L 737.0,152.7 L 742.5,151.8 L 748.0,151.2 L 753.5,151.2 L 759.0,150.9 L 764.5,149.4 L 770.0,148.0" fill="none" stroke="#34C759" stroke-width="2.5" stroke-linejoin="round" clip-path="url(#ca)"/>
<path d="M 72.0,340 L 72.0,222.6 L 77.5,222.6 L 83.0,222.3 L 88.5,221.4 L 94.0,221.7 L 99.5,221.7 L 105.0,220.5 L 110.5,219.6 L 116.0,219.6 L 121.5,219.9 L 127.0,219.6 L 132.5,219.3 L 138.0,219.1 L 143.4,219.1 L 148.9,219.1 L 154.4,219.3 L 159.9,218.8 L 165.4,218.2 L 170.9,216.4 L 176.4,215.2 L 181.9,215.2 L 187.4,214.9 L 192.9,213.2 L 198.4,210.5 L 203.9,209.6 L 209.4,209.0 L 214.9,207.0 L 220.4,205.5 L 225.9,204.9 L 231.4,204.3 L 236.9,203.7 L 242.4,203.4 L 247.9,203.4 L 253.4,201.3 L 258.9,200.8 L 264.4,200.2 L 269.9,200.2 L 275.4,198.7 L 280.9,198.4 L 286.3,197.5 L 291.8,196.3 L 297.3,194.9 L 302.8,192.8 L 308.3,190.7 L 313.8,190.4 L 319.3,189.8 L 324.8,189.3 L 330.3,187.5 L 335.8,187.5 L 341.3,186.9 L 346.8,186.0 L 352.3,185.4 L 357.8,184.2 L 363.3,184.5 L 368.8,181.0 L 374.3,180.7 L 379.8,180.4 L 385.3,179.8 L 390.8,178.0 L 396.3,178.0 L 401.8,176.3 L 407.3,174.2 L 412.8,174.2 L 418.3,174.2 L 423.7,173.9 L 429.2,173.6 L 434.7,173.3 L 440.2,171.9 L 445.7,170.1 L 451.2,169.5 L 456.7,168.3 L 462.2,168.3 L 467.7,167.4 L 473.2,165.7 L 478.7,164.8 L 484.2,164.5 L 489.7,162.4 L 495.2,162.1 L 500.7,162.1 L 506.2,161.8 L 511.7,161.8 L 517.2,160.3 L 522.7,159.8 L 528.2,158.9 L 533.7,158.6 L 539.2,158.0 L 544.7,155.6 L 550.2,152.4 L 555.7,152.1 L 561.1,151.5 L 566.6,151.2 L 572.1,149.7 L 577.6,118.5 L 583.1,117.9 L 588.6,116.4 L 594.1,116.4 L 599.6,116.4 L 605.1,116.7 L 610.6,116.4 L 616.1,114.6 L 621.6,114.0 L 627.1,113.7 L 632.6,113.4 L 638.1,112.3 L 643.6,110.5 L 649.1,110.5 L 654.6,110.5 L 660.1,110.2 L 665.6,109.9 L 671.1,109.9 L 676.6,109.3 L 682.1,108.4 L 687.6,106.9 L 693.1,106.4 L 698.6,106.1 L 704.0,106.1 L 709.5,105.8 L 715.0,105.2 L 720.5,104.9 L 726.0,103.4 L 731.5,103.4 L 737.0,102.8 L 742.5,101.6 L 748.0,100.2 L 753.5,99.9 L 759.0,99.6 L 764.5,96.9 L 770.0,96.3 L 770.0,340 Z" fill="url(#g6)" clip-path="url(#ca)"/>
<path d="M 72.0,222.6 L 77.5,222.6 L 83.0,222.3 L 88.5,221.4 L 94.0,221.7 L 99.5,221.7 L 105.0,220.5 L 110.5,219.6 L 116.0,219.6 L 121.5,219.9 L 127.0,219.6 L 132.5,219.3 L 138.0,219.1 L 143.4,219.1 L 148.9,219.1 L 154.4,219.3 L 159.9,218.8 L 165.4,218.2 L 170.9,216.4 L 176.4,215.2 L 181.9,215.2 L 187.4,214.9 L 192.9,213.2 L 198.4,210.5 L 203.9,209.6 L 209.4,209.0 L 214.9,207.0 L 220.4,205.5 L 225.9,204.9 L 231.4,204.3 L 236.9,203.7 L 242.4,203.4 L 247.9,203.4 L 253.4,201.3 L 258.9,200.8 L 264.4,200.2 L 269.9,200.2 L 275.4,198.7 L 280.9,198.4 L 286.3,197.5 L 291.8,196.3 L 297.3,194.9 L 302.8,192.8 L 308.3,190.7 L 313.8,190.4 L 319.3,189.8 L 324.8,189.3 L 330.3,187.5 L 335.8,187.5 L 341.3,186.9 L 346.8,186.0 L 352.3,185.4 L 357.8,184.2 L 363.3,184.5 L 368.8,181.0 L 374.3,180.7 L 379.8,180.4 L 385.3,179.8 L 390.8,178.0 L 396.3,178.0 L 401.8,176.3 L 407.3,174.2 L 412.8,174.2 L 418.3,174.2 L 423.7,173.9 L 429.2,173.6 L 434.7,173.3 L 440.2,171.9 L 445.7,170.1 L 451.2,169.5 L 456.7,168.3 L 462.2,168.3 L 467.7,167.4 L 473.2,165.7 L 478.7,164.8 L 484.2,164.5 L 489.7,162.4 L 495.2,162.1 L 500.7,162.1 L 506.2,161.8 L 511.7,161.8 L 517.2,160.3 L 522.7,159.8 L 528.2,158.9 L 533.7,158.6 L 539.2,158.0 L 544.7,155.6 L 550.2,152.4 L 555.7,152.1 L 561.1,151.5 L 566.6,151.2 L 572.1,149.7 L 577.6,118.5 L 583.1,117.9 L 588.6,116.4 L 594.1,116.4 L 599.6,116.4 L 605.1,116.7 L 610.6,116.4 L 616.1,114.6 L 621.6,114.0 L 627.1,113.7 L 632.6,113.4 L 638.1,112.3 L 643.6,110.5 L 649.1,110.5 L 654.6,110.5 L 660.1,110.2 L 665.6,109.9 L 671.1,109.9 L 676.6,109.3 L 682.1,108.4 L 687.6,106.9 L 693.1,106.4 L 698.6,106.1 L 704.0,106.1 L 709.5,105.8 L 715.0,105.2 L 720.5,104.9 L 726.0,103.4 L 731.5,103.4 L 737.0,102.8 L 742.5,101.6 L 748.0,100.2 L 753.5,99.9 L 759.0,99.6 L 764.5,96.9 L 770.0,96.3" fill="none" stroke="#4F8EF7" stroke-width="2.5" stroke-linejoin="round" clip-path="url(#ca)"/>
<path d="M 72.0,340 L 72.0,338.2 L 77.5,337.9 L 83.0,337.9 L 88.5,337.6 L 94.0,337.6 L 99.5,337.6 L 105.0,337.6 L 110.5,337.6 L 116.0,337.1 L 121.5,337.1 L 127.0,337.1 L 132.5,337.1 L 138.0,337.1 L 143.4,336.8 L 148.9,336.8 L 154.4,336.8 L 159.9,336.8 L 165.4,336.8 L 170.9,336.5 L 176.4,335.9 L 181.9,335.6 L 187.4,335.6 L 192.9,335.6 L 198.4,335.3 L 203.9,335.3 L 209.4,335.3 L 214.9,335.0 L 220.4,335.0 L 225.9,335.0 L 231.4,334.7 L 236.9,334.7 L 242.4,334.7 L 247.9,334.7 L 253.4,334.4 L 258.9,334.4 L 264.4,334.4 L 269.9,334.4 L 275.4,334.4 L 280.9,334.4 L 286.3,334.4 L 291.8,334.4 L 297.3,334.4 L 302.8,334.4 L 308.3,334.4 L 313.8,334.4 L 319.3,334.4 L 324.8,334.1 L 330.3,334.1 L 335.8,334.1 L 341.3,334.1 L 346.8,334.1 L 352.3,334.1 L 357.8,334.1 L 363.3,334.1 L 368.8,334.1 L 374.3,334.1 L 379.8,334.1 L 385.3,334.1 L 390.8,333.8 L 396.3,333.8 L 401.8,333.8 L 407.3,333.8 L 412.8,333.8 L 418.3,333.8 L 423.7,333.8 L 429.2,333.8 L 434.7,333.8 L 440.2,333.8 L 445.7,333.8 L 451.2,333.8 L 456.7,333.8 L 462.2,333.8 L 467.7,333.8 L 473.2,333.8 L 478.7,333.8 L 484.2,333.8 L 489.7,333.8 L 495.2,333.8 L 500.7,333.8 L 506.2,333.8 L 511.7,333.8 L 517.2,333.8 L 522.7,333.8 L 528.2,333.8 L 533.7,333.8 L 539.2,333.8 L 544.7,333.8 L 550.2,333.8 L 555.7,333.8 L 561.1,333.8 L 566.6,333.8 L 572.1,333.8 L 577.6,333.8 L 583.1,333.8 L 588.6,333.5 L 594.1,333.5 L 599.6,333.5 L 605.1,333.5 L 610.6,333.5 L 616.1,333.2 L 621.6,333.2 L 627.1,333.2 L 632.6,333.2 L 638.1,332.9 L 643.6,332.9 L 649.1,332.6 L 654.6,332.6 L 660.1,332.6 L 665.6,332.6 L 671.1,332.6 L 676.6,332.6 L 682.1,332.6 L 687.6,332.6 L 693.1,332.6 L 698.6,332.6 L 704.0,332.6 L 709.5,332.6 L 715.0,332.6 L 720.5,332.6 L 726.0,332.6 L 731.5,332.6 L 737.0,332.6 L 742.5,332.6 L 748.0,332.6 L 753.5,332.6 L 759.0,332.6 L 764.5,332.6 L 770.0,332.6 L 770.0,340 Z" fill="url(#g7)" clip-path="url(#ca)"/>
<path d="M 72.0,338.2 L 77.5,337.9 L 83.0,337.9 L 88.5,337.6 L 94.0,337.6 L 99.5,337.6 L 105.0,337.6 L 110.5,337.6 L 116.0,337.1 L 121.5,337.1 L 127.0,337.1 L 132.5,337.1 L 138.0,337.1 L 143.4,336.8 L 148.9,336.8 L 154.4,336.8 L 159.9,336.8 L 165.4,336.8 L 170.9,336.5 L 176.4,335.9 L 181.9,335.6 L 187.4,335.6 L 192.9,335.6 L 198.4,335.3 L 203.9,335.3 L 209.4,335.3 L 214.9,335.0 L 220.4,335.0 L 225.9,335.0 L 231.4,334.7 L 236.9,334.7 L 242.4,334.7 L 247.9,334.7 L 253.4,334.4 L 258.9,334.4 L 264.4,334.4 L 269.9,334.4 L 275.4,334.4 L 280.9,334.4 L 286.3,334.4 L 291.8,334.4 L 297.3,334.4 L 302.8,334.4 L 308.3,334.4 L 313.8,334.4 L 319.3,334.4 L 324.8,334.1 L 330.3,334.1 L 335.8,334.1 L 341.3,334.1 L 346.8,334.1 L 352.3,334.1 L 357.8,334.1 L 363.3,334.1 L 368.8,334.1 L 374.3,334.1 L 379.8,334.1 L 385.3,334.1 L 390.8,333.8 L 396.3,333.8 L 401.8,333.8 L 407.3,333.8 L 412.8,333.8 L 418.3,333.8 L 423.7,333.8 L 429.2,333.8 L 434.7,333.8 L 440.2,333.8 L 445.7,333.8 L 451.2,333.8 L 456.7,333.8 L 462.2,333.8 L 467.7,333.8 L 473.2,333.8 L 478.7,333.8 L 484.2,333.8 L 489.7,333.8 L 495.2,333.8 L 500.7,333.8 L 506.2,333.8 L 511.7,333.8 L 517.2,333.8 L 522.7,333.8 L 528.2,333.8 L 533.7,333.8 L 539.2,333.8 L 544.7,333.8 L 550.2,333.8 L 555.7,333.8 L 561.1,333.8 L 566.6,333.8 L 572.1,333.8 L 577.6,333.8 L 583.1,333.8 L 588.6,333.5 L 594.1,333.5 L 599.6,333.5 L 605.1,333.5 L 610.6,333.5 L 616.1,333.2 L 621.6,333.2 L 627.1,333.2 L 632.6,333.2 L 638.1,332.9 L 643.6,332.9 L 649.1,332.6 L 654.6,332.6 L 660.1,332.6 L 665.6,332.6 L 671.1,332.6 L 676.6,332.6 L 682.1,332.6 L 687.6,332.6 L 693.1,332.6 L 698.6,332.6 L 704.0,332.6 L 709.5,332.6 L 715.0,332.6 L 720.5,332.6 L 726.0,332.6 L 731.5,332.6 L 737.0,332.6 L 742.5,332.6 L 748.0,332.6 L 753.5,332.6 L 759.0,332.6 L 764.5,332.6 L 770.0,332.6" fill="none" stroke="#FF6363" stroke-width="2.5" stroke-linejoin="round" clip-path="url(#ca)"/>
<text x="102.2" y="55.0" text-anchor="middle" font-size="9" fill="#34C759" opacity="0.85" clip-path="url(#ca)">+15.2% (+50)</text>
<text x="102.2" y="66.0" text-anchor="middle" font-size="9" fill="#4F8EF7" opacity="0.85" clip-path="url(#ca)">+2.8% (+11)</text>
<text x="102.2" y="77.0" text-anchor="middle" font-size="9" fill="#FF6363" opacity="0.85" clip-path="url(#ca)">+66.7% (+4)</text>
<text x="206.7" y="55.0" text-anchor="middle" font-size="9" fill="#34C759" opacity="0.85" clip-path="url(#ca)">+20.1% (+77)</text>
<text x="206.7" y="66.0" text-anchor="middle" font-size="9" fill="#4F8EF7" opacity="0.85" clip-path="url(#ca)">+16.8% (+69)</text>
<text x="206.7" y="77.0" text-anchor="middle" font-size="9" fill="#FF6363" opacity="0.85" clip-path="url(#ca)">+90.0% (+9)</text>
<text x="352.3" y="55.0" text-anchor="middle" font-size="9" fill="#34C759" opacity="0.85" clip-path="url(#ca)">+16.1% (+74)</text>
<text x="352.3" y="66.0" text-anchor="middle" font-size="9" fill="#4F8EF7" opacity="0.85" clip-path="url(#ca)">+17.3% (+83)</text>
<text x="352.3" y="77.0" text-anchor="middle" font-size="9" fill="#FF6363" opacity="0.85" clip-path="url(#ca)">+10.5% (+2)</text>
<text x="500.7" y="55.0" text-anchor="middle" font-size="9" fill="#34C759" opacity="0.85" clip-path="url(#ca)">+10.5% (+56)</text>
<text x="500.7" y="66.0" text-anchor="middle" font-size="9" fill="#4F8EF7" opacity="0.85" clip-path="url(#ca)">+14.4% (+81)</text>
<text x="500.7" y="77.0" text-anchor="middle" font-size="9" fill="#FF6363" opacity="0.85" clip-path="url(#ca)">+0.0% (+0)</text>
<text x="649.1" y="55.0" text-anchor="middle" font-size="9" fill="#34C759" opacity="0.85" clip-path="url(#ca)">+6.2% (+37)</text>
<text x="649.1" y="66.0" text-anchor="middle" font-size="9" fill="#4F8EF7" opacity="0.85" clip-path="url(#ca)">+6.1% (+46)</text>
<text x="649.1" y="77.0" text-anchor="middle" font-size="9" fill="#FF6363" opacity="0.85" clip-path="url(#ca)">+19.0% (+4)</text>
<text x="748.0" y="55.0" text-anchor="middle" font-size="9" fill="#34C759" opacity="0.85" clip-path="url(#ca)">+2.8% (+18)</text>
<text x="748.0" y="66.0" text-anchor="middle" font-size="9" fill="#4F8EF7" opacity="0.85" clip-path="url(#ca)">+3.0% (+24)</text>
<text x="748.0" y="77.0" text-anchor="middle" font-size="9" fill="#FF6363" opacity="0.85" clip-path="url(#ca)">+0.0% (+0)</text>
<rect x="211" y="369" width="12" height="12" fill="#34C759" rx="2"/>
<text x="227" y="379" font-size="12" fill="#111827">macOS + Windows</text>
<rect x="351" y="369" width="12" height="12" fill="#4F8EF7" rx="2"/>
<text x="367" y="379" font-size="12" fill="#111827">macOS only</text>
<rect x="491" y="369" width="12" height="12" fill="#FF6363" rx="2"/>
<text x="507" y="379" font-size="12" fill="#111827">Windows only</text>
<text x="72" y="394" font-size="8" fill="#e5e7eb">data since Dec 11, 2025</text>
</svg>