<svg xmlns="http://www.w3.org/2000/svg" width="800" height="400" viewBox="0 0 800 400">
<defs>
  <style>text { font-family: -apple-system, BlinkMacSystemFont, 'Segoe UI', Roboto, sans-serif; }</style>
  <linearGradient id="g2" x1="0" y1="0" x2="0" y2="1">
  <stop offset="0%" stop-color="#4F8EF7" stop-opacity="0.25"/>
  <stop offset="100%" stop-color="#4F8EF7" stop-opacity="0"/>
</linearGradient>
<linearGradient id="g3" x1="0" y1="0" x2="0" y2="1">
  <stop offset="0%" stop-color="#BF5AF2" stop-opacity="0.25"/>
  <stop offset="100%" stop-color="#BF5AF2" stop-opacity="0"/>
</linearGradient>
<linearGradient id="g4" x1="0" y1="0" x2="0" y2="1">
  <stop offset="0%" stop-color="#34C759" stop-opacity="0.25"/>
  <stop offset="100%" stop-color="#34C759" stop-opacity="0"/>
</linearGradient>
  <clipPath id="ca"><rect x="72" y="45" width="698" height="295"/></clipPath>
</defs>
<rect width="800" height="400" fill="#ffffff" rx="12"/>
<text x="400" y="26" text-anchor="middle" font-size="15" font-weight="600" fill="#111827">Community Growth Over Time</text>
<line x1="72" y1="340.0" x2="770" y2="340.0" stroke="#f3f4f6" stroke-width="1"/>
<text x="66" y="344.0" text-anchor="end" font-size="11" fill="#6b7280">500</text>
<line x1="72" y1="241.7" x2="770" y2="241.7" stroke="#f3f4f6" stroke-width="1"/>
<text x="66" y="245.7" text-anchor="end" font-size="11" fill="#6b7280">1.0k</text>
<line x1="72" y1="143.3" x2="770" y2="143.3" stroke="#f3f4f6" stroke-width="1"/>
<text x="66" y="147.3" text-anchor="end" font-size="11" fill="#6b7280">1.5k</text>
<line x1="72" y1="45.0" x2="770" y2="45.0" stroke="#f3f4f6" stroke-width="1"/>
<text x="66" y="49.0" text-anchor="end" font-size="11" fill="#6b7280">2.0k</text>
<line x1="134.0" y1="45" x2="134.0" y2="340" stroke="#e5e7eb" stroke-width="1" stroke-dasharray="3,3" clip-path="url(#ca)"/>
<line x1="268.5" y1="45" x2="268.5" y2="340" stroke="#e5e7eb" stroke-width="1" stroke-dasharray="3,3" clip-path="url(#ca)"/>
<line x1="408.1" y1="45" x2="408.1" y2="340" stroke="#e5e7eb" stroke-width="1" stroke-dasharray="3,3" clip-path="url(#ca)"/>
<line x1="547.7" y1="45" x2="547.7" y2="340" stroke="#e5e7eb" stroke-width="1" stroke-dasharray="3,3" clip-path="url(#ca)"/>
<line x1="687.3" y1="45" x2="687.3" y2="340" stroke="#e5e7eb" stroke-width="1" stroke-dasharray="3,3" clip-path="url(#ca)"/>
<text x="72.0" y="358.0" text-anchor="middle" font-size="11" fill="#6b7280">Dec 11</text>
<text x="211.6" y="358.0" text-anchor="middle" font-size="11" fill="#6b7280">Jan 21</text>
<text x="351.2" y="358.0" text-anchor="middle" font-size="11" fill="#6b7280">Feb 17</text>
<text x="490.8" y="358.0" text-anchor="middle" font-size="11" fill="#6b7280">Mar 18</text>
<text x="630.4" y="358.0" text-anchor="middle" font-size="11" fill="#6b7280">Apr 18</text>
<text x="770.0" y="358.0" text-anchor="middle" font-size="11" fill="#6b7280">May 22</text>
<line x1="72" y1="45" x2="72" y2="340" stroke="#e5e7eb" stroke-width="1"/>
<line x1="72" y1="340" x2="770" y2="340" stroke="#e5e7eb" stroke-width="1"/>
<text x="-192.5" y="18" text-anchor="middle" font-size="12" fill="#6b7280" transform="rotate(-90)">People</text>
<path d="M 72.0,340 L 72.0,120.1 L 77.2,120.1 L 82.3,120.1 L 87.5,119.5 L 92.7,119.5 L 97.9,119.1 L 103.0,118.9 L 108.2,119.1 L 113.4,118.6 L 118.5,118.6 L 123.7,118.6 L 128.9,118.6 L 134.0,118.6 L 139.2,118.6 L 144.4,118.6 L 149.6,118.6 L 154.7,118.4 L 159.9,117.8 L 165.1,116.6 L 170.2,116.0 L 175.4,115.8 L 180.6,115.8 L 185.7,115.2 L 190.9,113.8 L 196.1,113.0 L 201.3,113.0 L 206.4,112.1 L 211.6,111.7 L 216.8,110.9 L 221.9,110.3 L 227.1,109.7 L 232.3,109.1 L 237.5,109.1 L 242.6,107.7 L 247.8,106.9 L 253.0,106.9 L 258.1,106.2 L 263.3,105.8 L 268.5,105.6 L 273.6,105.4 L 278.8,105.4 L 284.0,104.8 L 289.2,102.4 L 294.3,101.0 L 299.5,100.3 L 304.7,100.1 L 309.8,99.7 L 315.0,98.9 L 320.2,98.5 L 325.3,98.1 L 330.5,97.7 L 335.7,97.3 L 340.9,96.9 L 346.0,96.9 L 351.2,95.0 L 356.4,95.0 L 361.5,94.8 L 366.7,94.6 L 371.9,94.2 L 377.1,94.2 L 382.2,93.2 L 387.4,92.0 L 392.6,91.6 L 397.7,92.0 L 402.9,91.8 L 408.1,91.6 L 413.2,91.6 L 418.4,91.2 L 423.6,90.4 L 428.8,90.0 L 433.9,89.6 L 439.1,89.4 L 444.3,89.4 L 449.4,88.7 L 454.6,88.3 L 459.8,88.3 L 464.9,86.7 L 470.1,86.7 L 475.3,86.7 L 480.5,86.7 L 485.6,86.5 L 490.8,85.9 L 496.0,85.1 L 501.1,84.7 L 506.3,84.7 L 511.5,84.3 L 516.7,82.8 L 521.8,81.8 L 527.0,81.6 L 532.2,81.4 L 537.3,80.8 L 542.5,79.6 L 547.7,79.2 L 552.8,78.8 L 558.0,77.6 L 563.2,77.4 L 568.4,77.4 L 573.5,77.4 L 578.7,77.3 L 583.9,76.1 L 589.0,75.9 L 594.2,75.7 L 599.4,75.7 L 604.5,75.3 L 609.7,73.7 L 614.9,73.5 L 620.1,73.3 L 625.2,73.3 L 630.4,72.5 L 635.6,72.3 L 640.7,72.1 L 645.9,71.6 L 651.1,70.8 L 656.3,70.8 L 661.4,70.8 L 666.6,70.8 L 671.8,70.4 L 676.9,69.8 L 682.1,69.6 L 687.3,69.0 L 692.4,68.8 L 697.6,68.6 L 702.8,67.8 L 708.0,67.2 L 713.1,67.0 L 718.3,67.0 L 723.5,65.3 L 728.6,64.7 L 733.8,64.5 L 739.0,64.5 L 744.1,63.5 L 749.3,63.5 L 754.5,62.9 L 759.7,62.3 L 764.8,60.9 L 770.0,60.7 L 770.0,340 Z" fill="url(#g2)" clip-path="url(#ca)"/>
<path d="M 72.0,120.1 L 77.2,120.1 L 82.3,120.1 L 87.5,119.5 L 92.7,119.5 L 97.9,119.1 L 103.0,118.9 L 108.2,119.1 L 113.4,118.6 L 118.5,118.6 L 123.7,118.6 L 128.9,118.6 L 134.0,118.6 L 139.2,118.6 L 144.4,118.6 L 149.6,118.6 L 154.7,118.4 L 159.9,117.8 L 165.1,116.6 L 170.2,116.0 L 175.4,115.8 L 180.6,115.8 L 185.7,115.2 L 190.9,113.8 L 196.1,113.0 L 201.3,113.0 L 206.4,112.1 L 211.6,111.7 L 216.8,110.9 L 221.9,110.3 L 227.1,109.7 L 232.3,109.1 L 237.5,109.1 L 242.6,107.7 L 247.8,106.9 L 253.0,106.9 L 258.1,106.2 L 263.3,105.8 L 268.5,105.6 L 273.6,105.4 L 278.8,105.4 L 284.0,104.8 L 289.2,102.4 L 294.3,101.0 L 299.5,100.3 L 304.7,100.1 L 309.8,99.7 L 315.0,98.9 L 320.2,98.5 L 325.3,98.1 L 330.5,97.7 L 335.7,97.3 L 340.9,96.9 L 346.0,96.9 L 351.2,95.0 L 356.4,95.0 L 361.5,94.8 L 366.7,94.6 L 371.9,94.2 L 377.1,94.2 L 382.2,93.2 L 387.4,92.0 L 392.6,91.6 L 397.7,92.0 L 402.9,91.8 L 408.1,91.6 L 413.2,91.6 L 418.4,91.2 L 423.6,90.4 L 428.8,90.0 L 433.9,89.6 L 439.1,89.4 L 444.3,89.4 L 449.4,88.7 L 454.6,88.3 L 459.8,88.3 L 464.9,86.7 L 470.1,86.7 L 475.3,86.7 L 480.5,86.7 L 485.6,86.5 L 490.8,85.9 L 496.0,85.1 L 501.1,84.7 L 506.3,84.7 L 511.5,84.3 L 516.7,82.8 L 521.8,81.8 L 527.0,81.6 L 532.2,81.4 L 537.3,80.8 L 542.5,79.6 L 547.7,79.2 L 552.8,78.8 L 558.0,77.6 L 563.2,77.4 L 568.4,77.4 L 573.5,77.4 L 578.7,77.3 L 583.9,76.1 L 589.0,75.9 L 594.2,75.7 L 599.4,75.7 L 604.5,75.3 L 609.7,73.7 L 614.9,73.5 L 620.1,73.3 L 625.2,73.3 L 630.4,72.5 L 635.6,72.3 L 640.7,72.1 L 645.9,71.6 L 651.1,70.8 L 656.3,70.8 L 661.4,70.8 L 666.6,70.8 L 671.8,70.4 L 676.9,69.8 L 682.1,69.6 L 687.3,69.0 L 692.4,68.8 L 697.6,68.6 L 702.8,67.8 L 708.0,67.2 L 713.1,67.0 L 718.3,67.0 L 723.5,65.3 L 728.6,64.7 L 733.8,64.5 L 739.0,64.5 L 744.1,63.5 L 749.3,63.5 L 754.5,62.9 L 759.7,62.3 L 764.8,60.9 L 770.0,60.7" fill="none" stroke="#4F8EF7" stroke-width="2.5" stroke-linejoin="round" clip-path="url(#ca)"/>
<path d="M 72.0,340 L 72.0,244.2 L 77.2,243.6 L 82.3,243.6 L 87.5,243.6 L 92.7,243.4 L 97.9,243.0 L 103.0,242.8 L 108.2,242.6 L 113.4,242.6 L 118.5,242.5 L 123.7,242.3 L 128.9,242.3 L 134.0,242.3 L 139.2,242.3 L 144.4,242.3 L 149.6,242.3 L 154.7,241.9 L 159.9,241.9 L 165.1,241.9 L 170.2,241.1 L 175.4,240.9 L 180.6,240.5 L 185.7,239.7 L 190.9,239.5 L 196.1,239.5 L 201.3,239.5 L 206.4,238.9 L 211.6,238.5 L 216.8,238.5 L 221.9,238.1 L 227.1,237.9 L 232.3,237.5 L 237.5,237.5 L 242.6,237.3 L 247.8,236.6 L 253.0,236.0 L 258.1,235.6 L 263.3,235.4 L 268.5,235.4 L 273.6,235.2 L 278.8,234.8 L 284.0,234.8 L 289.2,234.6 L 294.3,234.0 L 299.5,233.6 L 304.7,233.6 L 309.8,233.6 L 315.0,233.6 L 320.2,233.4 L 325.3,232.8 L 330.5,232.4 L 335.7,232.2 L 340.9,232.0 L 346.0,231.8 L 351.2,231.6 L 356.4,231.4 L 361.5,231.2 L 366.7,230.7 L 371.9,230.5 L 377.1,230.3 L 382.2,229.5 L 387.4,228.7 L 392.6,228.7 L 397.7,228.5 L 402.9,228.3 L 408.1,228.3 L 413.2,228.3 L 418.4,227.9 L 423.6,227.9 L 428.8,226.7 L 433.9,226.5 L 439.1,226.3 L 444.3,226.3 L 449.4,225.9 L 454.6,225.7 L 459.8,225.7 L 464.9,225.5 L 470.1,225.5 L 475.3,225.5 L 480.5,225.1 L 485.6,224.9 L 490.8,224.0 L 496.0,224.2 L 501.1,224.0 L 506.3,223.8 L 511.5,223.8 L 516.7,223.6 L 521.8,223.0 L 527.0,223.0 L 532.2,223.0 L 537.3,223.0 L 542.5,222.6 L 547.7,222.6 L 552.8,222.2 L 558.0,221.8 L 563.2,221.0 L 568.4,221.0 L 573.5,220.6 L 578.7,220.4 L 583.9,220.2 L 589.0,220.0 L 594.2,219.6 L 599.4,219.6 L 604.5,219.1 L 609.7,219.1 L 614.9,218.9 L 620.1,218.5 L 625.2,218.3 L 630.4,218.3 L 635.6,218.3 L 640.7,218.3 L 645.9,218.3 L 651.1,217.7 L 656.3,217.7 L 661.4,217.3 L 666.6,216.9 L 671.8,216.3 L 676.9,216.1 L 682.1,216.1 L 687.3,214.9 L 692.4,214.7 L 697.6,214.7 L 702.8,213.9 L 708.0,213.9 L 713.1,213.5 L 718.3,213.5 L 723.5,213.3 L 728.6,213.3 L 733.8,213.2 L 739.0,212.8 L 744.1,212.8 L 749.3,212.6 L 754.5,212.4 L 759.7,212.2 L 764.8,212.0 L 770.0,212.0 L 770.0,340 Z" fill="url(#g3)" clip-path="url(#ca)"/>
<path d="M 72.0,244.2 L 77.2,243.6 L 82.3,243.6 L 87.5,243.6 L 92.7,243.4 L 97.9,243.0 L 103.0,242.8 L 108.2,242.6 L 113.4,242.6 L 118.5,242.5 L 123.7,242.3 L 128.9,242.3 L 134.0,242.3 L 139.2,242.3 L 144.4,242.3 L 149.6,242.3 L 154.7,241.9 L 159.9,241.9 L 165.1,241.9 L 170.2,241.1 L 175.4,240.9 L 180.6,240.5 L 185.7,239.7 L 190.9,239.5 L 196.1,239.5 L 201.3,239.5 L 206.4,238.9 L 211.6,238.5 L 216.8,238.5 L 221.9,238.1 L 227.1,237.9 L 232.3,237.5 L 237.5,237.5 L 242.6,237.3 L 247.8,236.6 L 253.0,236.0 L 258.1,235.6 L 263.3,235.4 L 268.5,235.4 L 273.6,235.2 L 278.8,234.8 L 284.0,234.8 L 289.2,234.6 L 294.3,234.0 L 299.5,233.6 L 304.7,233.6 L 309.8,233.6 L 315.0,233.6 L 320.2,233.4 L 325.3,232.8 L 330.5,232.4 L 335.7,232.2 L 340.9,232.0 L 346.0,231.8 L 351.2,231.6 L 356.4,231.4 L 361.5,231.2 L 366.7,230.7 L 371.9,230.5 L 377.1,230.3 L 382.2,229.5 L 387.4,228.7 L 392.6,228.7 L 397.7,228.5 L 402.9,228.3 L 408.1,228.3 L 413.2,228.3 L 418.4,227.9 L 423.6,227.9 L 428.8,226.7 L 433.9,226.5 L 439.1,226.3 L 444.3,226.3 L 449.4,225.9 L 454.6,225.7 L 459.8,225.7 L 464.9,225.5 L 470.1,225.5 L 475.3,225.5 L 480.5,225.1 L 485.6,224.9 L 490.8,224.0 L 496.0,224.2 L 501.1,224.0 L 506.3,223.8 L 511.5,223.8 L 516.7,223.6 L 521.8,223.0 L 527.0,223.0 L 532.2,223.0 L 537.3,223.0 L 542.5,222.6 L 547.7,222.6 L 552.8,222.2 L 558.0,221.8 L 563.2,221.0 L 568.4,221.0 L 573.5,220.6 L 578.7,220.4 L 583.9,220.2 L 589.0,220.0 L 594.2,219.6 L 599.4,219.6 L 604.5,219.1 L 609.7,219.1 L 614.9,218.9 L 620.1,218.5 L 625.2,218.3 L 630.4,218.3 L 635.6,218.3 L 640.7,218.3 L 645.9,218.3 L 651.1,217.7 L 656.3,217.7 L 661.4,217.3 L 666.6,216.9 L 671.8,216.3 L 676.9,216.1 L 682.1,216.1 L 687.3,214.9 L 692.4,214.7 L 697.6,214.7 L 702.8,213.9 L 708.0,213.9 L 713.1,213.5 L 718.3,213.5 L 723.5,213.3 L 728.6,213.3 L 733.8,213.2 L 739.0,212.8 L 744.1,212.8 L 749.3,212.6 L 754.5,212.4 L 759.7,212.2 L 764.8,212.0 L 770.0,212.0" fill="none" stroke="#BF5AF2" stroke-width="2.5" stroke-linejoin="round" clip-path="url(#ca)"/>
<path d="M 72.0,340 L 72.0,291.4 L 77.2,290.8 L 82.3,290.8 L 87.5,290.8 L 92.7,290.6 L 97.9,290.2 L 103.0,290.0 L 108.2,289.7 L 113.4,289.7 L 118.5,289.5 L 123.7,289.3 L 128.9,289.3 L 134.0,289.3 L 139.2,289.3 L 144.4,289.3 L 149.6,289.3 L 154.7,288.9 L 159.9,288.9 L 165.1,289.1 L 170.2,288.5 L 175.4,288.7 L 180.6,288.1 L 185.7,287.5 L 190.9,287.3 L 196.1,287.5 L 201.3,287.5 L 206.4,286.9 L 211.6,286.7 L 216.8,286.7 L 221.9,286.3 L 227.1,286.1 L 232.3,285.7 L 237.5,285.7 L 242.6,285.5 L 247.8,284.9 L 253.0,284.3 L 258.1,283.9 L 263.3,283.9 L 268.5,283.9 L 273.6,283.8 L 278.8,283.4 L 284.0,283.4 L 289.2,283.2 L 294.3,282.6 L 299.5,282.4 L 304.7,282.4 L 309.8,282.4 L 315.0,282.4 L 320.2,282.2 L 325.3,281.6 L 330.5,281.4 L 335.7,281.2 L 340.9,281.0 L 346.0,281.0 L 351.2,280.8 L 356.4,280.8 L 361.5,280.8 L 366.7,280.2 L 371.9,280.2 L 377.1,280.2 L 382.2,279.8 L 387.4,279.2 L 392.6,279.2 L 397.7,279.0 L 402.9,278.8 L 408.1,278.8 L 413.2,278.8 L 418.4,278.4 L 423.6,278.4 L 428.8,277.3 L 433.9,277.1 L 439.1,276.9 L 444.3,276.9 L 449.4,276.7 L 454.6,276.7 L 459.8,276.7 L 464.9,276.7 L 470.1,276.7 L 475.3,276.7 L 480.5,276.3 L 485.6,276.1 L 490.8,275.1 L 496.0,275.3 L 501.1,275.3 L 506.3,275.1 L 511.5,275.1 L 516.7,275.1 L 521.8,274.7 L 527.0,274.7 L 532.2,274.7 L 537.3,274.7 L 542.5,274.7 L 547.7,274.7 L 552.8,274.5 L 558.0,274.5 L 563.2,273.7 L 568.4,273.7 L 573.5,273.5 L 578.7,273.3 L 583.9,273.1 L 589.0,272.9 L 594.2,272.5 L 599.4,272.5 L 604.5,272.0 L 609.7,272.0 L 614.9,271.8 L 620.1,271.6 L 625.2,271.6 L 630.4,271.6 L 635.6,271.6 L 640.7,271.6 L 645.9,271.6 L 651.1,271.0 L 656.3,271.0 L 661.4,270.6 L 666.6,270.2 L 671.8,269.6 L 676.9,269.4 L 682.1,269.4 L 687.3,268.4 L 692.4,268.2 L 697.6,268.2 L 702.8,267.6 L 708.0,267.6 L 713.1,267.4 L 718.3,267.4 L 723.5,267.6 L 728.6,267.8 L 733.8,267.6 L 739.0,267.2 L 744.1,267.4 L 749.3,267.2 L 754.5,267.0 L 759.7,267.0 L 764.8,267.0 L 770.0,267.0 L 770.0,340 Z" fill="url(#g4)" clip-path="url(#ca)"/>
<path d="M 72.0,291.4 L 77.2,290.8 L 82.3,290.8 L 87.5,290.8 L 92.7,290.6 L 97.9,290.2 L 103.0,290.0 L 108.2,289.7 L 113.4,289.7 L 118.5,289.5 L 123.7,289.3 L 128.9,289.3 L 134.0,289.3 L 139.2,289.3 L 144.4,289.3 L 149.6,289.3 L 154.7,288.9 L 159.9,288.9 L 165.1,289.1 L 170.2,288.5 L 175.4,288.7 L 180.6,288.1 L 185.7,287.5 L 190.9,287.3 L 196.1,287.5 L 201.3,287.5 L 206.4,286.9 L 211.6,286.7 L 216.8,286.7 L 221.9,286.3 L 227.1,286.1 L 232.3,285.7 L 237.5,285.7 L 242.6,285.5 L 247.8,284.9 L 253.0,284.3 L 258.1,283.9 L 263.3,283.9 L 268.5,283.9 L 273.6,283.8 L 278.8,283.4 L 284.0,283.4 L 289.2,283.2 L 294.3,282.6 L 299.5,282.4 L 304.7,282.4 L 309.8,282.4 L 315.0,282.4 L 320.2,282.2 L 325.3,281.6 L 330.5,281.4 L 335.7,281.2 L 340.9,281.0 L 346.0,281.0 L 351.2,280.8 L 356.4,280.8 L 361.5,280.8 L 366.7,280.2 L 371.9,280.2 L 377.1,280.2 L 382.2,279.8 L 387.4,279.2 L 392.6,279.2 L 397.7,279.0 L 402.9,278.8 L 408.1,278.8 L 413.2,278.8 L 418.4,278.4 L 423.6,278.4 L 428.8,277.3 L 433.9,277.1 L 439.1,276.9 L 444.3,276.9 L 449.4,276.7 L 454.6,276.7 L 459.8,276.7 L 464.9,276.7 L 470.1,276.7 L 475.3,276.7 L 480.5,276.3 L 485.6,276.1 L 490.8,275.1 L 496.0,275.3 L 501.1,275.3 L 506.3,275.1 L 511.5,275.1 L 516.7,275.1 L 521.8,274.7 L 527.0,274.7 L 532.2,274.7 L 537.3,274.7 L 542.5,274.7 L 547.7,274.7 L 552.8,274.5 L 558.0,274.5 L 563.2,273.7 L 568.4,273.7 L 573.5,273.5 L 578.7,273.3 L 583.9,273.1 L 589.0,272.9 L 594.2,272.5 L 599.4,272.5 L 604.5,272.0 L 609.7,272.0 L 614.9,271.8 L 620.1,271.6 L 625.2,271.6 L 630.4,271.6 L 635.6,271.6 L 640.7,271.6 L 645.9,271.6 L 651.1,271.0 L 656.3,271.0 L 661.4,270.6 L 666.6,270.2 L 671.8,269.6 L 676.9,269.4 L 682.1,269.4 L 687.3,268.4 L 692.4,268.2 L 697.6,268.2 L 702.8,267.6 L 708.0,267.6 L 713.1,267.4 L 718.3,267.4 L 723.5,267.6 L 728.6,267.8 L 733.8,267.6 L 739.0,267.2 L 744.1,267.4 L 749.3,267.2 L 754.5,267.0 L 759.7,267.0 L 764.8,267.0 L 770.0,267.0" fill="none" stroke="#34C759" stroke-width="2.5" stroke-linejoin="round" clip-path="url(#ca)"/>
<text x="100.4" y="55.0" text-anchor="middle" font-size="9" fill="#4F8EF7" opacity="0.85" clip-path="url(#ca)">+0.5% (+8)</text>
<text x="100.4" y="66.0" text-anchor="middle" font-size="9" fill="#BF5AF2" opacity="0.85" clip-path="url(#ca)">+1.0% (+10)</text>
<text x="100.4" y="77.0" text-anchor="middle" font-size="9" fill="#34C759" opacity="0.85" clip-path="url(#ca)">+1.5% (+11)</text>
<text x="198.7" y="55.0" text-anchor="middle" font-size="9" fill="#4F8EF7" opacity="0.85" clip-path="url(#ca)">+4.0% (+65)</text>
<text x="198.7" y="66.0" text-anchor="middle" font-size="9" fill="#BF5AF2" opacity="0.85" clip-path="url(#ca)">+3.5% (+35)</text>
<text x="198.7" y="77.0" text-anchor="middle" font-size="9" fill="#34C759" opacity="0.85" clip-path="url(#ca)">+3.6% (+27)</text>
<text x="335.7" y="55.0" text-anchor="middle" font-size="9" fill="#4F8EF7" opacity="0.85" clip-path="url(#ca)">+4.1% (+70)</text>
<text x="335.7" y="66.0" text-anchor="middle" font-size="9" fill="#BF5AF2" opacity="0.85" clip-path="url(#ca)">+3.5% (+36)</text>
<text x="335.7" y="77.0" text-anchor="middle" font-size="9" fill="#34C759" opacity="0.85" clip-path="url(#ca)">+3.3% (+26)</text>
<text x="475.3" y="55.0" text-anchor="middle" font-size="9" fill="#4F8EF7" opacity="0.85" clip-path="url(#ca)">+3.5% (+61)</text>
<text x="475.3" y="66.0" text-anchor="middle" font-size="9" fill="#BF5AF2" opacity="0.85" clip-path="url(#ca)">+2.7% (+29)</text>
<text x="475.3" y="77.0" text-anchor="middle" font-size="9" fill="#34C759" opacity="0.85" clip-path="url(#ca)">+2.6% (+21)</text>
<text x="614.9" y="55.0" text-anchor="middle" font-size="9" fill="#4F8EF7" opacity="0.85" clip-path="url(#ca)">+2.7% (+49)</text>
<text x="614.9" y="66.0" text-anchor="middle" font-size="9" fill="#BF5AF2" opacity="0.85" clip-path="url(#ca)">+3.0% (+33)</text>
<text x="614.9" y="77.0" text-anchor="middle" font-size="9" fill="#34C759" opacity="0.85" clip-path="url(#ca)">+3.2% (+27)</text>
<text x="728.6" y="55.0" text-anchor="middle" font-size="9" fill="#4F8EF7" opacity="0.85" clip-path="url(#ca)">+2.2% (+42)</text>
<text x="728.6" y="66.0" text-anchor="middle" font-size="9" fill="#BF5AF2" opacity="0.85" clip-path="url(#ca)">+1.3% (+15)</text>
<text x="728.6" y="77.0" text-anchor="middle" font-size="9" fill="#34C759" opacity="0.85" clip-path="url(#ca)">+0.8% (+7)</text>
<rect x="211" y="369" width="12" height="12" fill="#4F8EF7" rx="2"/>
<text x="227" y="379" font-size="12" fill="#111827">Authors</text>
<rect x="351" y="369" width="12" height="12" fill="#BF5AF2" rx="2"/>
<text x="367" y="379" font-size="12" fill="#111827">Contributors</text>
<rect x="491" y="369" width="12" height="12" fill="#34C759" rx="2"/>
<text x="507" y="379" font-size="12" fill="#111827">Non-author contributors</text>
<text x="72" y="394" font-size="8" fill="#e5e7eb">data since Dec 11, 2025</text>
</svg>