<svg xmlns="http://www.w3.org/2000/svg" width="800" height="400" viewBox="0 0 800 400">
<defs>
  <style>text { font-family: -apple-system, BlinkMacSystemFont, 'Segoe UI', Roboto, sans-serif; }</style>
  <linearGradient id="g2" x1="0" y1="0" x2="0" y2="1">
  <stop offset="0%" stop-color="#4F8EF7" stop-opacity="0.25"/>
  <stop offset="100%" stop-color="#4F8EF7" stop-opacity="0"/>
</linearGradient>
<linearGradient id="g3" x1="0" y1="0" x2="0" y2="1">
  <stop offset="0%" stop-color="#BF5AF2" stop-opacity="0.25"/>
  <stop offset="100%" stop-color="#BF5AF2" stop-opacity="0"/>
</linearGradient>
<linearGradient id="g4" x1="0" y1="0" x2="0" y2="1">
  <stop offset="0%" stop-color="#34C759" stop-opacity="0.25"/>
  <stop offset="100%" stop-color="#34C759" stop-opacity="0"/>
</linearGradient>
  <clipPath id="ca"><rect x="72" y="45" width="698" height="295"/></clipPath>
</defs>
<rect width="800" height="400" fill="#ffffff" rx="12"/>
<text x="400" y="26" text-anchor="middle" font-size="15" font-weight="600" fill="#111827">Community Growth Over Time</text>
<line x1="72" y1="340.0" x2="770" y2="340.0" stroke="#f3f4f6" stroke-width="1"/>
<text x="66" y="344.0" text-anchor="end" font-size="11" fill="#6b7280">500</text>
<line x1="72" y1="241.7" x2="770" y2="241.7" stroke="#f3f4f6" stroke-width="1"/>
<text x="66" y="245.7" text-anchor="end" font-size="11" fill="#6b7280">1.0k</text>
<line x1="72" y1="143.3" x2="770" y2="143.3" stroke="#f3f4f6" stroke-width="1"/>
<text x="66" y="147.3" text-anchor="end" font-size="11" fill="#6b7280">1.5k</text>
<line x1="72" y1="45.0" x2="770" y2="45.0" stroke="#f3f4f6" stroke-width="1"/>
<text x="66" y="49.0" text-anchor="end" font-size="11" fill="#6b7280">2.0k</text>
<line x1="158.4" y1="45" x2="158.4" y2="340" stroke="#e5e7eb" stroke-width="1" stroke-dasharray="3,3" clip-path="url(#ca)"/>
<line x1="345.4" y1="45" x2="345.4" y2="340" stroke="#e5e7eb" stroke-width="1" stroke-dasharray="3,3" clip-path="url(#ca)"/>
<line x1="539.7" y1="45" x2="539.7" y2="340" stroke="#e5e7eb" stroke-width="1" stroke-dasharray="3,3" clip-path="url(#ca)"/>
<line x1="734.0" y1="45" x2="734.0" y2="340" stroke="#e5e7eb" stroke-width="1" stroke-dasharray="3,3" clip-path="url(#ca)"/>
<text x="72.0" y="358.0" text-anchor="middle" font-size="11" fill="#6b7280">Dec 11</text>
<text x="208.7" y="358.0" text-anchor="middle" font-size="11" fill="#6b7280">Jan 10</text>
<text x="352.6" y="358.0" text-anchor="middle" font-size="11" fill="#6b7280">Feb 2</text>
<text x="489.4" y="358.0" text-anchor="middle" font-size="11" fill="#6b7280">Feb 21</text>
<text x="633.3" y="358.0" text-anchor="middle" font-size="11" fill="#6b7280">Mar 15</text>
<text x="770.0" y="358.0" text-anchor="middle" font-size="11" fill="#6b7280">Apr 7</text>
<line x1="72" y1="45" x2="72" y2="340" stroke="#e5e7eb" stroke-width="1"/>
<line x1="72" y1="340" x2="770" y2="340" stroke="#e5e7eb" stroke-width="1"/>
<text x="-192.5" y="18" text-anchor="middle" font-size="12" fill="#6b7280" transform="rotate(-90)">People</text>
<path d="M 72.0,340 L 72.0,120.1 L 79.2,120.1 L 86.4,120.1 L 93.6,119.5 L 100.8,119.5 L 108.0,119.1 L 115.2,118.9 L 122.4,119.1 L 129.6,118.6 L 136.8,118.6 L 144.0,118.6 L 151.2,118.6 L 158.4,118.6 L 165.5,118.6 L 172.7,118.6 L 179.9,118.6 L 187.1,118.4 L 194.3,117.8 L 201.5,116.6 L 208.7,116.0 L 215.9,115.8 L 223.1,115.8 L 230.3,115.2 L 237.5,113.8 L 244.7,113.0 L 251.9,113.0 L 259.1,112.1 L 266.3,111.7 L 273.5,110.9 L 280.7,110.3 L 287.9,109.7 L 295.1,109.1 L 302.3,109.1 L 309.5,107.7 L 316.7,106.9 L 323.9,106.9 L 331.1,106.2 L 338.2,105.8 L 345.4,105.6 L 352.6,105.4 L 359.8,105.4 L 367.0,104.8 L 374.2,102.4 L 381.4,101.0 L 388.6,100.3 L 395.8,100.1 L 403.0,99.7 L 410.2,98.9 L 417.4,98.5 L 424.6,98.1 L 431.8,97.7 L 439.0,97.3 L 446.2,96.9 L 453.4,96.9 L 460.6,95.0 L 467.8,95.0 L 475.0,94.8 L 482.2,94.6 L 489.4,94.2 L 496.6,94.2 L 503.8,93.2 L 510.9,92.0 L 518.1,91.6 L 525.3,92.0 L 532.5,91.8 L 539.7,91.6 L 546.9,91.6 L 554.1,91.2 L 561.3,90.4 L 568.5,90.0 L 575.7,89.6 L 582.9,89.4 L 590.1,89.4 L 597.3,88.7 L 604.5,88.3 L 611.7,88.3 L 618.9,86.7 L 626.1,86.7 L 633.3,86.7 L 640.5,86.7 L 647.7,86.5 L 654.9,85.9 L 662.1,85.1 L 669.3,84.7 L 676.5,84.7 L 683.6,84.3 L 690.8,82.8 L 698.0,81.8 L 705.2,81.6 L 712.4,81.4 L 719.6,80.8 L 726.8,79.6 L 734.0,79.2 L 741.2,78.8 L 748.4,77.6 L 755.6,77.4 L 762.8,77.4 L 770.0,77.4 L 770.0,340 Z" fill="url(#g2)" clip-path="url(#ca)"/>
<path d="M 72.0,120.1 L 79.2,120.1 L 86.4,120.1 L 93.6,119.5 L 100.8,119.5 L 108.0,119.1 L 115.2,118.9 L 122.4,119.1 L 129.6,118.6 L 136.8,118.6 L 144.0,118.6 L 151.2,118.6 L 158.4,118.6 L 165.5,118.6 L 172.7,118.6 L 179.9,118.6 L 187.1,118.4 L 194.3,117.8 L 201.5,116.6 L 208.7,116.0 L 215.9,115.8 L 223.1,115.8 L 230.3,115.2 L 237.5,113.8 L 244.7,113.0 L 251.9,113.0 L 259.1,112.1 L 266.3,111.7 L 273.5,110.9 L 280.7,110.3 L 287.9,109.7 L 295.1,109.1 L 302.3,109.1 L 309.5,107.7 L 316.7,106.9 L 323.9,106.9 L 331.1,106.2 L 338.2,105.8 L 345.4,105.6 L 352.6,105.4 L 359.8,105.4 L 367.0,104.8 L 374.2,102.4 L 381.4,101.0 L 388.6,100.3 L 395.8,100.1 L 403.0,99.7 L 410.2,98.9 L 417.4,98.5 L 424.6,98.1 L 431.8,97.7 L 439.0,97.3 L 446.2,96.9 L 453.4,96.9 L 460.6,95.0 L 467.8,95.0 L 475.0,94.8 L 482.2,94.6 L 489.4,94.2 L 496.6,94.2 L 503.8,93.2 L 510.9,92.0 L 518.1,91.6 L 525.3,92.0 L 532.5,91.8 L 539.7,91.6 L 546.9,91.6 L 554.1,91.2 L 561.3,90.4 L 568.5,90.0 L 575.7,89.6 L 582.9,89.4 L 590.1,89.4 L 597.3,88.7 L 604.5,88.3 L 611.7,88.3 L 618.9,86.7 L 626.1,86.7 L 633.3,86.7 L 640.5,86.7 L 647.7,86.5 L 654.9,85.9 L 662.1,85.1 L 669.3,84.7 L 676.5,84.7 L 683.6,84.3 L 690.8,82.8 L 698.0,81.8 L 705.2,81.6 L 712.4,81.4 L 719.6,80.8 L 726.8,79.6 L 734.0,79.2 L 741.2,78.8 L 748.4,77.6 L 755.6,77.4 L 762.8,77.4 L 770.0,77.4" fill="none" stroke="#4F8EF7" stroke-width="2.5" stroke-linejoin="round" clip-path="url(#ca)"/>
<path d="M 72.0,340 L 72.0,244.2 L 79.2,243.6 L 86.4,243.6 L 93.6,243.6 L 100.8,243.4 L 108.0,243.0 L 115.2,242.8 L 122.4,242.6 L 129.6,242.6 L 136.8,242.5 L 144.0,242.3 L 151.2,242.3 L 158.4,242.3 L 165.5,242.3 L 172.7,242.3 L 179.9,242.3 L 187.1,241.9 L 194.3,241.9 L 201.5,241.9 L 208.7,241.1 L 215.9,240.9 L 223.1,240.5 L 230.3,239.7 L 237.5,239.5 L 244.7,239.5 L 251.9,239.5 L 259.1,238.9 L 266.3,238.5 L 273.5,238.5 L 280.7,238.1 L 287.9,237.9 L 295.1,237.5 L 302.3,237.5 L 309.5,237.3 L 316.7,236.6 L 323.9,236.0 L 331.1,235.6 L 338.2,235.4 L 345.4,235.4 L 352.6,235.2 L 359.8,234.8 L 367.0,234.8 L 374.2,234.6 L 381.4,234.0 L 388.6,233.6 L 395.8,233.6 L 403.0,233.6 L 410.2,233.6 L 417.4,233.4 L 424.6,232.8 L 431.8,232.4 L 439.0,232.2 L 446.2,232.0 L 453.4,231.8 L 460.6,231.6 L 467.8,231.4 L 475.0,231.2 L 482.2,230.7 L 489.4,230.5 L 496.6,230.3 L 503.8,229.5 L 510.9,228.7 L 518.1,228.7 L 525.3,228.5 L 532.5,228.3 L 539.7,228.3 L 546.9,228.3 L 554.1,227.9 L 561.3,227.9 L 568.5,226.7 L 575.7,226.5 L 582.9,226.3 L 590.1,226.3 L 597.3,225.9 L 604.5,225.7 L 611.7,225.7 L 618.9,225.5 L 626.1,225.5 L 633.3,225.5 L 640.5,225.1 L 647.7,224.9 L 654.9,224.0 L 662.1,224.2 L 669.3,224.0 L 676.5,223.8 L 683.6,223.8 L 690.8,223.6 L 698.0,223.0 L 705.2,223.0 L 712.4,223.0 L 719.6,223.0 L 726.8,222.6 L 734.0,222.6 L 741.2,222.2 L 748.4,221.8 L 755.6,221.0 L 762.8,221.0 L 770.0,220.6 L 770.0,340 Z" fill="url(#g3)" clip-path="url(#ca)"/>
<path d="M 72.0,244.2 L 79.2,243.6 L 86.4,243.6 L 93.6,243.6 L 100.8,243.4 L 108.0,243.0 L 115.2,242.8 L 122.4,242.6 L 129.6,242.6 L 136.8,242.5 L 144.0,242.3 L 151.2,242.3 L 158.4,242.3 L 165.5,242.3 L 172.7,242.3 L 179.9,242.3 L 187.1,241.9 L 194.3,241.9 L 201.5,241.9 L 208.7,241.1 L 215.9,240.9 L 223.1,240.5 L 230.3,239.7 L 237.5,239.5 L 244.7,239.5 L 251.9,239.5 L 259.1,238.9 L 266.3,238.5 L 273.5,238.5 L 280.7,238.1 L 287.9,237.9 L 295.1,237.5 L 302.3,237.5 L 309.5,237.3 L 316.7,236.6 L 323.9,236.0 L 331.1,235.6 L 338.2,235.4 L 345.4,235.4 L 352.6,235.2 L 359.8,234.8 L 367.0,234.8 L 374.2,234.6 L 381.4,234.0 L 388.6,233.6 L 395.8,233.6 L 403.0,233.6 L 410.2,233.6 L 417.4,233.4 L 424.6,232.8 L 431.8,232.4 L 439.0,232.2 L 446.2,232.0 L 453.4,231.8 L 460.6,231.6 L 467.8,231.4 L 475.0,231.2 L 482.2,230.7 L 489.4,230.5 L 496.6,230.3 L 503.8,229.5 L 510.9,228.7 L 518.1,228.7 L 525.3,228.5 L 532.5,228.3 L 539.7,228.3 L 546.9,228.3 L 554.1,227.9 L 561.3,227.9 L 568.5,226.7 L 575.7,226.5 L 582.9,226.3 L 590.1,226.3 L 597.3,225.9 L 604.5,225.7 L 611.7,225.7 L 618.9,225.5 L 626.1,225.5 L 633.3,225.5 L 640.5,225.1 L 647.7,224.9 L 654.9,224.0 L 662.1,224.2 L 669.3,224.0 L 676.5,223.8 L 683.6,223.8 L 690.8,223.6 L 698.0,223.0 L 705.2,223.0 L 712.4,223.0 L 719.6,223.0 L 726.8,222.6 L 734.0,222.6 L 741.2,222.2 L 748.4,221.8 L 755.6,221.0 L 762.8,221.0 L 770.0,220.6" fill="none" stroke="#BF5AF2" stroke-width="2.5" stroke-linejoin="round" clip-path="url(#ca)"/>
<path d="M 72.0,340 L 72.0,291.4 L 79.2,290.8 L 86.4,290.8 L 93.6,290.8 L 100.8,290.6 L 108.0,290.2 L 115.2,290.0 L 122.4,289.7 L 129.6,289.7 L 136.8,289.5 L 144.0,289.3 L 151.2,289.3 L 158.4,289.3 L 165.5,289.3 L 172.7,289.3 L 179.9,289.3 L 187.1,288.9 L 194.3,288.9 L 201.5,289.1 L 208.7,288.5 L 215.9,288.7 L 223.1,288.1 L 230.3,287.5 L 237.5,287.3 L 244.7,287.5 L 251.9,287.5 L 259.1,286.9 L 266.3,286.7 L 273.5,286.7 L 280.7,286.3 L 287.9,286.1 L 295.1,285.7 L 302.3,285.7 L 309.5,285.5 L 316.7,284.9 L 323.9,284.3 L 331.1,283.9 L 338.2,283.9 L 345.4,283.9 L 352.6,283.8 L 359.8,283.4 L 367.0,283.4 L 374.2,283.2 L 381.4,282.6 L 388.6,282.4 L 395.8,282.4 L 403.0,282.4 L 410.2,282.4 L 417.4,282.2 L 424.6,281.6 L 431.8,281.4 L 439.0,281.2 L 446.2,281.0 L 453.4,281.0 L 460.6,280.8 L 467.8,280.8 L 475.0,280.8 L 482.2,280.2 L 489.4,280.2 L 496.6,280.2 L 503.8,279.8 L 510.9,279.2 L 518.1,279.2 L 525.3,279.0 L 532.5,278.8 L 539.7,278.8 L 546.9,278.8 L 554.1,278.4 L 561.3,278.4 L 568.5,277.3 L 575.7,277.1 L 582.9,276.9 L 590.1,276.9 L 597.3,276.7 L 604.5,276.7 L 611.7,276.7 L 618.9,276.7 L 626.1,276.7 L 633.3,276.7 L 640.5,276.3 L 647.7,276.1 L 654.9,275.1 L 662.1,275.3 L 669.3,275.3 L 676.5,275.1 L 683.6,275.1 L 690.8,275.1 L 698.0,274.7 L 705.2,274.7 L 712.4,274.7 L 719.6,274.7 L 726.8,274.7 L 734.0,274.7 L 741.2,274.5 L 748.4,274.5 L 755.6,273.7 L 762.8,273.7 L 770.0,273.5 L 770.0,340 Z" fill="url(#g4)" clip-path="url(#ca)"/>
<path d="M 72.0,291.4 L 79.2,290.8 L 86.4,290.8 L 93.6,290.8 L 100.8,290.6 L 108.0,290.2 L 115.2,290.0 L 122.4,289.7 L 129.6,289.7 L 136.8,289.5 L 144.0,289.3 L 151.2,289.3 L 158.4,289.3 L 165.5,289.3 L 172.7,289.3 L 179.9,289.3 L 187.1,288.9 L 194.3,288.9 L 201.5,289.1 L 208.7,288.5 L 215.9,288.7 L 223.1,288.1 L 230.3,287.5 L 237.5,287.3 L 244.7,287.5 L 251.9,287.5 L 259.1,286.9 L 266.3,286.7 L 273.5,286.7 L 280.7,286.3 L 287.9,286.1 L 295.1,285.7 L 302.3,285.7 L 309.5,285.5 L 316.7,284.9 L 323.9,284.3 L 331.1,283.9 L 338.2,283.9 L 345.4,283.9 L 352.6,283.8 L 359.8,283.4 L 367.0,283.4 L 374.2,283.2 L 381.4,282.6 L 388.6,282.4 L 395.8,282.4 L 403.0,282.4 L 410.2,282.4 L 417.4,282.2 L 424.6,281.6 L 431.8,281.4 L 439.0,281.2 L 446.2,281.0 L 453.4,281.0 L 460.6,280.8 L 467.8,280.8 L 475.0,280.8 L 482.2,280.2 L 489.4,280.2 L 496.6,280.2 L 503.8,279.8 L 510.9,279.2 L 518.1,279.2 L 525.3,279.0 L 532.5,278.8 L 539.7,278.8 L 546.9,278.8 L 554.1,278.4 L 561.3,278.4 L 568.5,277.3 L 575.7,277.1 L 582.9,276.9 L 590.1,276.9 L 597.3,276.7 L 604.5,276.7 L 611.7,276.7 L 618.9,276.7 L 626.1,276.7 L 633.3,276.7 L 640.5,276.3 L 647.7,276.1 L 654.9,275.1 L 662.1,275.3 L 669.3,275.3 L 676.5,275.1 L 683.6,275.1 L 690.8,275.1 L 698.0,274.7 L 705.2,274.7 L 712.4,274.7 L 719.6,274.7 L 726.8,274.7 L 734.0,274.7 L 741.2,274.5 L 748.4,274.5 L 755.6,273.7 L 762.8,273.7 L 770.0,273.5" fill="none" stroke="#34C759" stroke-width="2.5" stroke-linejoin="round" clip-path="url(#ca)"/>
<text x="111.6" y="55.0" text-anchor="middle" font-size="9" fill="#4F8EF7" opacity="0.85" clip-path="url(#ca)">+0.5% (+8)</text>
<text x="111.6" y="66.0" text-anchor="middle" font-size="9" fill="#BF5AF2" opacity="0.85" clip-path="url(#ca)">+1.0% (+10)</text>
<text x="111.6" y="77.0" text-anchor="middle" font-size="9" fill="#34C759" opacity="0.85" clip-path="url(#ca)">+1.5% (+11)</text>
<text x="248.3" y="55.0" text-anchor="middle" font-size="9" fill="#4F8EF7" opacity="0.85" clip-path="url(#ca)">+4.0% (+65)</text>
<text x="248.3" y="66.0" text-anchor="middle" font-size="9" fill="#BF5AF2" opacity="0.85" clip-path="url(#ca)">+3.5% (+35)</text>
<text x="248.3" y="77.0" text-anchor="middle" font-size="9" fill="#34C759" opacity="0.85" clip-path="url(#ca)">+3.6% (+27)</text>
<text x="439.0" y="55.0" text-anchor="middle" font-size="9" fill="#4F8EF7" opacity="0.85" clip-path="url(#ca)">+4.1% (+70)</text>
<text x="439.0" y="66.0" text-anchor="middle" font-size="9" fill="#BF5AF2" opacity="0.85" clip-path="url(#ca)">+3.5% (+36)</text>
<text x="439.0" y="77.0" text-anchor="middle" font-size="9" fill="#34C759" opacity="0.85" clip-path="url(#ca)">+3.3% (+26)</text>
<text x="633.3" y="55.0" text-anchor="middle" font-size="9" fill="#4F8EF7" opacity="0.85" clip-path="url(#ca)">+3.5% (+61)</text>
<text x="633.3" y="66.0" text-anchor="middle" font-size="9" fill="#BF5AF2" opacity="0.85" clip-path="url(#ca)">+2.7% (+29)</text>
<text x="633.3" y="77.0" text-anchor="middle" font-size="9" fill="#34C759" opacity="0.85" clip-path="url(#ca)">+2.6% (+21)</text>
<text x="752.0" y="55.0" text-anchor="middle" font-size="9" fill="#4F8EF7" opacity="0.85" clip-path="url(#ca)">+0.5% (+9)</text>
<text x="752.0" y="66.0" text-anchor="middle" font-size="9" fill="#BF5AF2" opacity="0.85" clip-path="url(#ca)">+0.9% (+10)</text>
<text x="752.0" y="77.0" text-anchor="middle" font-size="9" fill="#34C759" opacity="0.85" clip-path="url(#ca)">+0.7% (+6)</text>
<rect x="211" y="369" width="12" height="12" fill="#4F8EF7" rx="2"/>
<text x="227" y="379" font-size="12" fill="#111827">Authors</text>
<rect x="351" y="369" width="12" height="12" fill="#BF5AF2" rx="2"/>
<text x="367" y="379" font-size="12" fill="#111827">Contributors</text>
<rect x="491" y="369" width="12" height="12" fill="#34C759" rx="2"/>
<text x="507" y="379" font-size="12" fill="#111827">Non-author contributors</text>
<text x="72" y="394" font-size="8" fill="#e5e7eb">data since Dec 11, 2025</text>
</svg>