<svg xmlns="http://www.w3.org/2000/svg" width="800" height="400" viewBox="0 0 800 400">
<defs>
  <style>text { font-family: -apple-system, BlinkMacSystemFont, 'Segoe UI', Roboto, sans-serif; }</style>
  <linearGradient id="g5" x1="0" y1="0" x2="0" y2="1">
  <stop offset="0%" stop-color="#34C759" stop-opacity="0.25"/>
  <stop offset="100%" stop-color="#34C759" stop-opacity="0"/>
</linearGradient>
<linearGradient id="g6" x1="0" y1="0" x2="0" y2="1">
  <stop offset="0%" stop-color="#4F8EF7" stop-opacity="0.25"/>
  <stop offset="100%" stop-color="#4F8EF7" stop-opacity="0"/>
</linearGradient>
<linearGradient id="g7" x1="0" y1="0" x2="0" y2="1">
  <stop offset="0%" stop-color="#FF6363" stop-opacity="0.25"/>
  <stop offset="100%" stop-color="#FF6363" stop-opacity="0"/>
</linearGradient>
  <clipPath id="ca"><rect x="72" y="45" width="698" height="295"/></clipPath>
</defs>
<rect width="800" height="400" fill="#ffffff" rx="12"/>
<text x="400" y="26" text-anchor="middle" font-size="15" font-weight="600" fill="#111827">Platform Support Over Time</text>
<line x1="72" y1="340.0" x2="770" y2="340.0" stroke="#f3f4f6" stroke-width="1"/>
<text x="66" y="344.0" text-anchor="end" font-size="11" fill="#6b7280">0</text>
<line x1="72" y1="281.0" x2="770" y2="281.0" stroke="#f3f4f6" stroke-width="1"/>
<text x="66" y="285.0" text-anchor="end" font-size="11" fill="#6b7280">200</text>
<line x1="72" y1="222.0" x2="770" y2="222.0" stroke="#f3f4f6" stroke-width="1"/>
<text x="66" y="226.0" text-anchor="end" font-size="11" fill="#6b7280">400</text>
<line x1="72" y1="163.0" x2="770" y2="163.0" stroke="#f3f4f6" stroke-width="1"/>
<text x="66" y="167.0" text-anchor="end" font-size="11" fill="#6b7280">600</text>
<line x1="72" y1="104.0" x2="770" y2="104.0" stroke="#f3f4f6" stroke-width="1"/>
<text x="66" y="108.0" text-anchor="end" font-size="11" fill="#6b7280">800</text>
<line x1="72" y1="45.0" x2="770" y2="45.0" stroke="#f3f4f6" stroke-width="1"/>
<text x="66" y="49.0" text-anchor="end" font-size="11" fill="#6b7280">1.0k</text>
<line x1="124.7" y1="45" x2="124.7" y2="340" stroke="#e5e7eb" stroke-width="1" stroke-dasharray="3,3" clip-path="url(#ca)"/>
<line x1="238.8" y1="45" x2="238.8" y2="340" stroke="#e5e7eb" stroke-width="1" stroke-dasharray="3,3" clip-path="url(#ca)"/>
<line x1="357.3" y1="45" x2="357.3" y2="340" stroke="#e5e7eb" stroke-width="1" stroke-dasharray="3,3" clip-path="url(#ca)"/>
<line x1="475.9" y1="45" x2="475.9" y2="340" stroke="#e5e7eb" stroke-width="1" stroke-dasharray="3,3" clip-path="url(#ca)"/>
<line x1="594.4" y1="45" x2="594.4" y2="340" stroke="#e5e7eb" stroke-width="1" stroke-dasharray="3,3" clip-path="url(#ca)"/>
<line x1="708.5" y1="45" x2="708.5" y2="340" stroke="#e5e7eb" stroke-width="1" stroke-dasharray="3,3" clip-path="url(#ca)"/>
<text x="72.0" y="358.0" text-anchor="middle" font-size="11" fill="#6b7280">Dec 11</text>
<text x="212.5" y="358.0" text-anchor="middle" font-size="11" fill="#6b7280">Jan 26</text>
<text x="353.0" y="358.0" text-anchor="middle" font-size="11" fill="#6b7280">Feb 28</text>
<text x="489.0" y="358.0" text-anchor="middle" font-size="11" fill="#6b7280">Apr 4</text>
<text x="629.5" y="358.0" text-anchor="middle" font-size="11" fill="#6b7280">May 13</text>
<text x="770.0" y="358.0" text-anchor="middle" font-size="11" fill="#6b7280">Jun 19</text>
<line x1="72" y1="45" x2="72" y2="340" stroke="#e5e7eb" stroke-width="1"/>
<line x1="72" y1="340" x2="770" y2="340" stroke="#e5e7eb" stroke-width="1"/>
<text x="-192.5" y="18" text-anchor="middle" font-size="12" fill="#6b7280" transform="rotate(-90)">Extensions</text>
<path d="M 72.0,340 L 72.0,242.6 L 76.4,240.0 L 80.8,239.7 L 85.2,238.5 L 89.6,237.9 L 93.9,235.0 L 98.3,233.2 L 102.7,232.3 L 107.1,230.8 L 111.5,229.1 L 115.9,228.2 L 120.3,227.9 L 124.7,227.0 L 129.1,226.4 L 133.5,226.1 L 137.8,225.2 L 142.2,224.4 L 146.6,223.5 L 151.0,222.6 L 155.4,221.4 L 159.8,220.5 L 164.2,219.6 L 168.6,218.8 L 173.0,217.0 L 177.4,216.4 L 181.7,216.4 L 186.1,214.3 L 190.5,213.7 L 194.9,213.2 L 199.3,212.6 L 203.7,211.1 L 208.1,209.0 L 212.5,208.7 L 216.9,208.4 L 221.3,206.7 L 225.6,206.1 L 230.0,204.6 L 234.4,204.3 L 238.8,204.0 L 243.2,203.4 L 247.6,203.4 L 252.0,203.4 L 256.4,199.3 L 260.8,199.0 L 265.2,198.1 L 269.5,197.8 L 273.9,197.5 L 278.3,196.6 L 282.7,196.0 L 287.1,195.4 L 291.5,193.7 L 295.9,193.7 L 300.3,193.7 L 304.7,193.4 L 309.1,190.4 L 313.4,189.6 L 317.8,189.0 L 322.2,188.1 L 326.6,187.5 L 331.0,187.5 L 335.4,186.0 L 339.8,183.9 L 344.2,183.4 L 348.6,183.1 L 353.0,182.2 L 357.3,182.2 L 361.7,181.6 L 366.1,180.7 L 370.5,180.1 L 374.9,178.9 L 379.3,177.8 L 383.7,177.5 L 388.1,177.5 L 392.5,176.3 L 396.9,176.3 L 401.2,176.3 L 405.6,174.5 L 410.0,174.2 L 414.4,173.9 L 418.8,173.9 L 423.2,173.6 L 427.6,172.4 L 432.0,171.9 L 436.4,171.0 L 440.8,171.0 L 445.1,170.7 L 449.5,169.5 L 453.9,168.6 L 458.3,168.6 L 462.7,168.3 L 467.1,167.7 L 471.5,165.7 L 475.9,165.1 L 480.3,164.2 L 484.7,164.2 L 489.0,163.6 L 493.4,163.3 L 497.8,163.0 L 502.2,162.7 L 506.6,162.4 L 511.0,162.4 L 515.4,162.1 L 519.8,161.8 L 524.2,160.9 L 528.6,159.8 L 532.9,159.5 L 537.3,158.6 L 541.7,158.6 L 546.1,157.4 L 550.5,157.1 L 554.9,157.1 L 559.3,157.1 L 563.7,156.2 L 568.1,155.9 L 572.5,155.9 L 576.8,155.9 L 581.2,155.6 L 585.6,154.4 L 590.0,154.2 L 594.4,153.3 L 598.8,152.7 L 603.2,152.7 L 607.6,151.8 L 612.0,151.2 L 616.4,151.2 L 620.7,150.9 L 625.1,149.4 L 629.5,148.0 L 633.9,147.7 L 638.3,147.1 L 642.7,145.9 L 647.1,145.9 L 651.5,145.3 L 655.9,143.8 L 660.3,141.2 L 664.6,140.3 L 669.0,140.3 L 673.4,140.3 L 677.8,140.3 L 682.2,140.3 L 686.6,139.1 L 691.0,138.2 L 695.4,138.2 L 699.8,138.2 L 704.2,138.2 L 708.5,137.3 L 712.9,137.3 L 717.3,136.5 L 721.7,135.6 L 726.1,135.3 L 730.5,135.0 L 734.9,134.4 L 739.3,134.4 L 743.7,133.5 L 748.1,132.3 L 752.4,131.4 L 756.8,129.7 L 761.2,129.1 L 765.6,128.8 L 770.0,128.5 L 770.0,340 Z" fill="url(#g5)" clip-path="url(#ca)"/>
<path d="M 72.0,242.6 L 76.4,240.0 L 80.8,239.7 L 85.2,238.5 L 89.6,237.9 L 93.9,235.0 L 98.3,233.2 L 102.7,232.3 L 107.1,230.8 L 111.5,229.1 L 115.9,228.2 L 120.3,227.9 L 124.7,227.0 L 129.1,226.4 L 133.5,226.1 L 137.8,225.2 L 142.2,224.4 L 146.6,223.5 L 151.0,222.6 L 155.4,221.4 L 159.8,220.5 L 164.2,219.6 L 168.6,218.8 L 173.0,217.0 L 177.4,216.4 L 181.7,216.4 L 186.1,214.3 L 190.5,213.7 L 194.9,213.2 L 199.3,212.6 L 203.7,211.1 L 208.1,209.0 L 212.5,208.7 L 216.9,208.4 L 221.3,206.7 L 225.6,206.1 L 230.0,204.6 L 234.4,204.3 L 238.8,204.0 L 243.2,203.4 L 247.6,203.4 L 252.0,203.4 L 256.4,199.3 L 260.8,199.0 L 265.2,198.1 L 269.5,197.8 L 273.9,197.5 L 278.3,196.6 L 282.7,196.0 L 287.1,195.4 L 291.5,193.7 L 295.9,193.7 L 300.3,193.7 L 304.7,193.4 L 309.1,190.4 L 313.4,189.6 L 317.8,189.0 L 322.2,188.1 L 326.6,187.5 L 331.0,187.5 L 335.4,186.0 L 339.8,183.9 L 344.2,183.4 L 348.6,183.1 L 353.0,182.2 L 357.3,182.2 L 361.7,181.6 L 366.1,180.7 L 370.5,180.1 L 374.9,178.9 L 379.3,177.8 L 383.7,177.5 L 388.1,177.5 L 392.5,176.3 L 396.9,176.3 L 401.2,176.3 L 405.6,174.5 L 410.0,174.2 L 414.4,173.9 L 418.8,173.9 L 423.2,173.6 L 427.6,172.4 L 432.0,171.9 L 436.4,171.0 L 440.8,171.0 L 445.1,170.7 L 449.5,169.5 L 453.9,168.6 L 458.3,168.6 L 462.7,168.3 L 467.1,167.7 L 471.5,165.7 L 475.9,165.1 L 480.3,164.2 L 484.7,164.2 L 489.0,163.6 L 493.4,163.3 L 497.8,163.0 L 502.2,162.7 L 506.6,162.4 L 511.0,162.4 L 515.4,162.1 L 519.8,161.8 L 524.2,160.9 L 528.6,159.8 L 532.9,159.5 L 537.3,158.6 L 541.7,158.6 L 546.1,157.4 L 550.5,157.1 L 554.9,157.1 L 559.3,157.1 L 563.7,156.2 L 568.1,155.9 L 572.5,155.9 L 576.8,155.9 L 581.2,155.6 L 585.6,154.4 L 590.0,154.2 L 594.4,153.3 L 598.8,152.7 L 603.2,152.7 L 607.6,151.8 L 612.0,151.2 L 616.4,151.2 L 620.7,150.9 L 625.1,149.4 L 629.5,148.0 L 633.9,147.7 L 638.3,147.1 L 642.7,145.9 L 647.1,145.9 L 651.5,145.3 L 655.9,143.8 L 660.3,141.2 L 664.6,140.3 L 669.0,140.3 L 673.4,140.3 L 677.8,140.3 L 682.2,140.3 L 686.6,139.1 L 691.0,138.2 L 695.4,138.2 L 699.8,138.2 L 704.2,138.2 L 708.5,137.3 L 712.9,137.3 L 717.3,136.5 L 721.7,135.6 L 726.1,135.3 L 730.5,135.0 L 734.9,134.4 L 739.3,134.4 L 743.7,133.5 L 748.1,132.3 L 752.4,131.4 L 756.8,129.7 L 761.2,129.1 L 765.6,128.8 L 770.0,128.5" fill="none" stroke="#34C759" stroke-width="2.5" stroke-linejoin="round" clip-path="url(#ca)"/>
<path d="M 72.0,340 L 72.0,222.6 L 76.4,222.6 L 80.8,222.3 L 85.2,221.4 L 89.6,221.7 L 93.9,221.7 L 98.3,220.5 L 102.7,219.6 L 107.1,219.6 L 111.5,219.9 L 115.9,219.6 L 120.3,219.3 L 124.7,219.1 L 129.1,219.1 L 133.5,219.1 L 137.8,219.3 L 142.2,218.8 L 146.6,218.2 L 151.0,216.4 L 155.4,215.2 L 159.8,215.2 L 164.2,214.9 L 168.6,213.2 L 173.0,210.5 L 177.4,209.6 L 181.7,209.0 L 186.1,207.0 L 190.5,205.5 L 194.9,204.9 L 199.3,204.3 L 203.7,203.7 L 208.1,203.4 L 212.5,203.4 L 216.9,201.3 L 221.3,200.8 L 225.6,200.2 L 230.0,200.2 L 234.4,198.7 L 238.8,198.4 L 243.2,197.5 L 247.6,196.3 L 252.0,194.9 L 256.4,192.8 L 260.8,190.7 L 265.2,190.4 L 269.5,189.8 L 273.9,189.3 L 278.3,187.5 L 282.7,187.5 L 287.1,186.9 L 291.5,186.0 L 295.9,185.4 L 300.3,184.2 L 304.7,184.5 L 309.1,181.0 L 313.4,180.7 L 317.8,180.4 L 322.2,179.8 L 326.6,178.0 L 331.0,178.0 L 335.4,176.3 L 339.8,174.2 L 344.2,174.2 L 348.6,174.2 L 353.0,173.9 L 357.3,173.6 L 361.7,173.3 L 366.1,171.9 L 370.5,170.1 L 374.9,169.5 L 379.3,168.3 L 383.7,168.3 L 388.1,167.4 L 392.5,165.7 L 396.9,164.8 L 401.2,164.5 L 405.6,162.4 L 410.0,162.1 L 414.4,162.1 L 418.8,161.8 L 423.2,161.8 L 427.6,160.3 L 432.0,159.8 L 436.4,158.9 L 440.8,158.6 L 445.1,158.0 L 449.5,155.6 L 453.9,152.4 L 458.3,152.1 L 462.7,151.5 L 467.1,151.2 L 471.5,149.7 L 475.9,118.5 L 480.3,117.9 L 484.7,116.4 L 489.0,116.4 L 493.4,116.4 L 497.8,116.7 L 502.2,116.4 L 506.6,114.6 L 511.0,114.0 L 515.4,113.7 L 519.8,113.4 L 524.2,112.3 L 528.6,110.5 L 532.9,110.5 L 537.3,110.5 L 541.7,110.2 L 546.1,109.9 L 550.5,109.9 L 554.9,109.3 L 559.3,108.4 L 563.7,106.9 L 568.1,106.4 L 572.5,106.1 L 576.8,106.1 L 581.2,105.8 L 585.6,105.2 L 590.0,104.9 L 594.4,103.4 L 598.8,103.4 L 603.2,102.8 L 607.6,101.6 L 612.0,100.2 L 616.4,99.9 L 620.7,99.6 L 625.1,96.9 L 629.5,96.3 L 633.9,95.7 L 638.3,95.7 L 642.7,94.6 L 647.1,94.0 L 651.5,92.5 L 655.9,91.9 L 660.3,91.0 L 664.6,90.7 L 669.0,89.5 L 673.4,88.7 L 677.8,88.4 L 682.2,87.8 L 686.6,86.6 L 691.0,86.0 L 695.4,85.1 L 699.8,84.5 L 704.2,84.2 L 708.5,83.6 L 712.9,82.8 L 717.3,82.2 L 721.7,81.6 L 726.1,80.7 L 730.5,80.7 L 734.9,80.1 L 739.3,78.6 L 743.7,77.2 L 748.1,76.3 L 752.4,76.6 L 756.8,76.0 L 761.2,75.7 L 765.6,75.4 L 770.0,74.8 L 770.0,340 Z" fill="url(#g6)" clip-path="url(#ca)"/>
<path d="M 72.0,222.6 L 76.4,222.6 L 80.8,222.3 L 85.2,221.4 L 89.6,221.7 L 93.9,221.7 L 98.3,220.5 L 102.7,219.6 L 107.1,219.6 L 111.5,219.9 L 115.9,219.6 L 120.3,219.3 L 124.7,219.1 L 129.1,219.1 L 133.5,219.1 L 137.8,219.3 L 142.2,218.8 L 146.6,218.2 L 151.0,216.4 L 155.4,215.2 L 159.8,215.2 L 164.2,214.9 L 168.6,213.2 L 173.0,210.5 L 177.4,209.6 L 181.7,209.0 L 186.1,207.0 L 190.5,205.5 L 194.9,204.9 L 199.3,204.3 L 203.7,203.7 L 208.1,203.4 L 212.5,203.4 L 216.9,201.3 L 221.3,200.8 L 225.6,200.2 L 230.0,200.2 L 234.4,198.7 L 238.8,198.4 L 243.2,197.5 L 247.6,196.3 L 252.0,194.9 L 256.4,192.8 L 260.8,190.7 L 265.2,190.4 L 269.5,189.8 L 273.9,189.3 L 278.3,187.5 L 282.7,187.5 L 287.1,186.9 L 291.5,186.0 L 295.9,185.4 L 300.3,184.2 L 304.7,184.5 L 309.1,181.0 L 313.4,180.7 L 317.8,180.4 L 322.2,179.8 L 326.6,178.0 L 331.0,178.0 L 335.4,176.3 L 339.8,174.2 L 344.2,174.2 L 348.6,174.2 L 353.0,173.9 L 357.3,173.6 L 361.7,173.3 L 366.1,171.9 L 370.5,170.1 L 374.9,169.5 L 379.3,168.3 L 383.7,168.3 L 388.1,167.4 L 392.5,165.7 L 396.9,164.8 L 401.2,164.5 L 405.6,162.4 L 410.0,162.1 L 414.4,162.1 L 418.8,161.8 L 423.2,161.8 L 427.6,160.3 L 432.0,159.8 L 436.4,158.9 L 440.8,158.6 L 445.1,158.0 L 449.5,155.6 L 453.9,152.4 L 458.3,152.1 L 462.7,151.5 L 467.1,151.2 L 471.5,149.7 L 475.9,118.5 L 480.3,117.9 L 484.7,116.4 L 489.0,116.4 L 493.4,116.4 L 497.8,116.7 L 502.2,116.4 L 506.6,114.6 L 511.0,114.0 L 515.4,113.7 L 519.8,113.4 L 524.2,112.3 L 528.6,110.5 L 532.9,110.5 L 537.3,110.5 L 541.7,110.2 L 546.1,109.9 L 550.5,109.9 L 554.9,109.3 L 559.3,108.4 L 563.7,106.9 L 568.1,106.4 L 572.5,106.1 L 576.8,106.1 L 581.2,105.8 L 585.6,105.2 L 590.0,104.9 L 594.4,103.4 L 598.8,103.4 L 603.2,102.8 L 607.6,101.6 L 612.0,100.2 L 616.4,99.9 L 620.7,99.6 L 625.1,96.9 L 629.5,96.3 L 633.9,95.7 L 638.3,95.7 L 642.7,94.6 L 647.1,94.0 L 651.5,92.5 L 655.9,91.9 L 660.3,91.0 L 664.6,90.7 L 669.0,89.5 L 673.4,88.7 L 677.8,88.4 L 682.2,87.8 L 686.6,86.6 L 691.0,86.0 L 695.4,85.1 L 699.8,84.5 L 704.2,84.2 L 708.5,83.6 L 712.9,82.8 L 717.3,82.2 L 721.7,81.6 L 726.1,80.7 L 730.5,80.7 L 734.9,80.1 L 739.3,78.6 L 743.7,77.2 L 748.1,76.3 L 752.4,76.6 L 756.8,76.0 L 761.2,75.7 L 765.6,75.4 L 770.0,74.8" fill="none" stroke="#4F8EF7" stroke-width="2.5" stroke-linejoin="round" clip-path="url(#ca)"/>
<path d="M 72.0,340 L 72.0,338.2 L 76.4,337.9 L 80.8,337.9 L 85.2,337.6 L 89.6,337.6 L 93.9,337.6 L 98.3,337.6 L 102.7,337.6 L 107.1,337.1 L 111.5,337.1 L 115.9,337.1 L 120.3,337.1 L 124.7,337.1 L 129.1,336.8 L 133.5,336.8 L 137.8,336.8 L 142.2,336.8 L 146.6,336.8 L 151.0,336.5 L 155.4,335.9 L 159.8,335.6 L 164.2,335.6 L 168.6,335.6 L 173.0,335.3 L 177.4,335.3 L 181.7,335.3 L 186.1,335.0 L 190.5,335.0 L 194.9,335.0 L 199.3,334.7 L 203.7,334.7 L 208.1,334.7 L 212.5,334.7 L 216.9,334.4 L 221.3,334.4 L 225.6,334.4 L 230.0,334.4 L 234.4,334.4 L 238.8,334.4 L 243.2,334.4 L 247.6,334.4 L 252.0,334.4 L 256.4,334.4 L 260.8,334.4 L 265.2,334.4 L 269.5,334.4 L 273.9,334.1 L 278.3,334.1 L 282.7,334.1 L 287.1,334.1 L 291.5,334.1 L 295.9,334.1 L 300.3,334.1 L 304.7,334.1 L 309.1,334.1 L 313.4,334.1 L 317.8,334.1 L 322.2,334.1 L 326.6,333.8 L 331.0,333.8 L 335.4,333.8 L 339.8,333.8 L 344.2,333.8 L 348.6,333.8 L 353.0,333.8 L 357.3,333.8 L 361.7,333.8 L 366.1,333.8 L 370.5,333.8 L 374.9,333.8 L 379.3,333.8 L 383.7,333.8 L 388.1,333.8 L 392.5,333.8 L 396.9,333.8 L 401.2,333.8 L 405.6,333.8 L 410.0,333.8 L 414.4,333.8 L 418.8,333.8 L 423.2,333.8 L 427.6,333.8 L 432.0,333.8 L 436.4,333.8 L 440.8,333.8 L 445.1,333.8 L 449.5,333.8 L 453.9,333.8 L 458.3,333.8 L 462.7,333.8 L 467.1,333.8 L 471.5,333.8 L 475.9,333.8 L 480.3,333.8 L 484.7,333.5 L 489.0,333.5 L 493.4,333.5 L 497.8,333.5 L 502.2,333.5 L 506.6,333.2 L 511.0,333.2 L 515.4,333.2 L 519.8,333.2 L 524.2,332.9 L 528.6,332.9 L 532.9,332.6 L 537.3,332.6 L 541.7,332.6 L 546.1,332.6 L 550.5,332.6 L 554.9,332.6 L 559.3,332.6 L 563.7,332.6 L 568.1,332.6 L 572.5,332.6 L 576.8,332.6 L 581.2,332.6 L 585.6,332.6 L 590.0,332.6 L 594.4,332.6 L 598.8,332.6 L 603.2,332.6 L 607.6,332.6 L 612.0,332.6 L 616.4,332.6 L 620.7,332.6 L 625.1,332.6 L 629.5,332.6 L 633.9,332.6 L 638.3,332.6 L 642.7,332.6 L 647.1,332.6 L 651.5,332.6 L 655.9,332.6 L 660.3,332.6 L 664.6,332.6 L 669.0,332.6 L 673.4,332.6 L 677.8,332.6 L 682.2,332.6 L 686.6,332.6 L 691.0,332.6 L 695.4,332.6 L 699.8,332.6 L 704.2,332.6 L 708.5,332.6 L 712.9,332.6 L 717.3,332.6 L 721.7,332.6 L 726.1,332.6 L 730.5,332.6 L 734.9,332.6 L 739.3,332.6 L 743.7,332.3 L 748.1,332.3 L 752.4,332.3 L 756.8,332.3 L 761.2,332.3 L 765.6,332.3 L 770.0,332.3 L 770.0,340 Z" fill="url(#g7)" clip-path="url(#ca)"/>
<path d="M 72.0,338.2 L 76.4,337.9 L 80.8,337.9 L 85.2,337.6 L 89.6,337.6 L 93.9,337.6 L 98.3,337.6 L 102.7,337.6 L 107.1,337.1 L 111.5,337.1 L 115.9,337.1 L 120.3,337.1 L 124.7,337.1 L 129.1,336.8 L 133.5,336.8 L 137.8,336.8 L 142.2,336.8 L 146.6,336.8 L 151.0,336.5 L 155.4,335.9 L 159.8,335.6 L 164.2,335.6 L 168.6,335.6 L 173.0,335.3 L 177.4,335.3 L 181.7,335.3 L 186.1,335.0 L 190.5,335.0 L 194.9,335.0 L 199.3,334.7 L 203.7,334.7 L 208.1,334.7 L 212.5,334.7 L 216.9,334.4 L 221.3,334.4 L 225.6,334.4 L 230.0,334.4 L 234.4,334.4 L 238.8,334.4 L 243.2,334.4 L 247.6,334.4 L 252.0,334.4 L 256.4,334.4 L 260.8,334.4 L 265.2,334.4 L 269.5,334.4 L 273.9,334.1 L 278.3,334.1 L 282.7,334.1 L 287.1,334.1 L 291.5,334.1 L 295.9,334.1 L 300.3,334.1 L 304.7,334.1 L 309.1,334.1 L 313.4,334.1 L 317.8,334.1 L 322.2,334.1 L 326.6,333.8 L 331.0,333.8 L 335.4,333.8 L 339.8,333.8 L 344.2,333.8 L 348.6,333.8 L 353.0,333.8 L 357.3,333.8 L 361.7,333.8 L 366.1,333.8 L 370.5,333.8 L 374.9,333.8 L 379.3,333.8 L 383.7,333.8 L 388.1,333.8 L 392.5,333.8 L 396.9,333.8 L 401.2,333.8 L 405.6,333.8 L 410.0,333.8 L 414.4,333.8 L 418.8,333.8 L 423.2,333.8 L 427.6,333.8 L 432.0,333.8 L 436.4,333.8 L 440.8,333.8 L 445.1,333.8 L 449.5,333.8 L 453.9,333.8 L 458.3,333.8 L 462.7,333.8 L 467.1,333.8 L 471.5,333.8 L 475.9,333.8 L 480.3,333.8 L 484.7,333.5 L 489.0,333.5 L 493.4,333.5 L 497.8,333.5 L 502.2,333.5 L 506.6,333.2 L 511.0,333.2 L 515.4,333.2 L 519.8,333.2 L 524.2,332.9 L 528.6,332.9 L 532.9,332.6 L 537.3,332.6 L 541.7,332.6 L 546.1,332.6 L 550.5,332.6 L 554.9,332.6 L 559.3,332.6 L 563.7,332.6 L 568.1,332.6 L 572.5,332.6 L 576.8,332.6 L 581.2,332.6 L 585.6,332.6 L 590.0,332.6 L 594.4,332.6 L 598.8,332.6 L 603.2,332.6 L 607.6,332.6 L 612.0,332.6 L 616.4,332.6 L 620.7,332.6 L 625.1,332.6 L 629.5,332.6 L 633.9,332.6 L 638.3,332.6 L 642.7,332.6 L 647.1,332.6 L 651.5,332.6 L 655.9,332.6 L 660.3,332.6 L 664.6,332.6 L 669.0,332.6 L 673.4,332.6 L 677.8,332.6 L 682.2,332.6 L 686.6,332.6 L 691.0,332.6 L 695.4,332.6 L 699.8,332.6 L 704.2,332.6 L 708.5,332.6 L 712.9,332.6 L 717.3,332.6 L 721.7,332.6 L 726.1,332.6 L 730.5,332.6 L 734.9,332.6 L 739.3,332.6 L 743.7,332.3 L 748.1,332.3 L 752.4,332.3 L 756.8,332.3 L 761.2,332.3 L 765.6,332.3 L 770.0,332.3" fill="none" stroke="#FF6363" stroke-width="2.5" stroke-linejoin="round" clip-path="url(#ca)"/>
<text x="96.1" y="55.0" text-anchor="middle" font-size="9" fill="#34C759" opacity="0.85" clip-path="url(#ca)">+15.2% (+50)</text>
<text x="96.1" y="66.0" text-anchor="middle" font-size="9" fill="#4F8EF7" opacity="0.85" clip-path="url(#ca)">+2.8% (+11)</text>
<text x="96.1" y="77.0" text-anchor="middle" font-size="9" fill="#FF6363" opacity="0.85" clip-path="url(#ca)">+66.7% (+4)</text>
<text x="179.6" y="55.0" text-anchor="middle" font-size="9" fill="#34C759" opacity="0.85" clip-path="url(#ca)">+20.1% (+77)</text>
<text x="179.6" y="66.0" text-anchor="middle" font-size="9" fill="#4F8EF7" opacity="0.85" clip-path="url(#ca)">+16.8% (+69)</text>
<text x="179.6" y="77.0" text-anchor="middle" font-size="9" fill="#FF6363" opacity="0.85" clip-path="url(#ca)">+90.0% (+9)</text>
<text x="295.9" y="55.0" text-anchor="middle" font-size="9" fill="#34C759" opacity="0.85" clip-path="url(#ca)">+16.1% (+74)</text>
<text x="295.9" y="66.0" text-anchor="middle" font-size="9" fill="#4F8EF7" opacity="0.85" clip-path="url(#ca)">+17.3% (+83)</text>
<text x="295.9" y="77.0" text-anchor="middle" font-size="9" fill="#FF6363" opacity="0.85" clip-path="url(#ca)">+10.5% (+2)</text>
<text x="414.4" y="55.0" text-anchor="middle" font-size="9" fill="#34C759" opacity="0.85" clip-path="url(#ca)">+10.5% (+56)</text>
<text x="414.4" y="66.0" text-anchor="middle" font-size="9" fill="#4F8EF7" opacity="0.85" clip-path="url(#ca)">+14.4% (+81)</text>
<text x="414.4" y="77.0" text-anchor="middle" font-size="9" fill="#FF6363" opacity="0.85" clip-path="url(#ca)">+0.0% (+0)</text>
<text x="532.9" y="55.0" text-anchor="middle" font-size="9" fill="#34C759" opacity="0.85" clip-path="url(#ca)">+6.2% (+37)</text>
<text x="532.9" y="66.0" text-anchor="middle" font-size="9" fill="#4F8EF7" opacity="0.85" clip-path="url(#ca)">+6.1% (+46)</text>
<text x="532.9" y="77.0" text-anchor="middle" font-size="9" fill="#FF6363" opacity="0.85" clip-path="url(#ca)">+19.0% (+4)</text>
<text x="649.3" y="55.0" text-anchor="middle" font-size="9" fill="#34C759" opacity="0.85" clip-path="url(#ca)">+8.1% (+51)</text>
<text x="649.3" y="66.0" text-anchor="middle" font-size="9" fill="#4F8EF7" opacity="0.85" clip-path="url(#ca)">+8.1% (+65)</text>
<text x="649.3" y="77.0" text-anchor="middle" font-size="9" fill="#FF6363" opacity="0.85" clip-path="url(#ca)">+0.0% (+0)</text>
<text x="739.3" y="55.0" text-anchor="middle" font-size="9" fill="#34C759" opacity="0.85" clip-path="url(#ca)">+4.4% (+30)</text>
<text x="739.3" y="66.0" text-anchor="middle" font-size="9" fill="#4F8EF7" opacity="0.85" clip-path="url(#ca)">+3.5% (+30)</text>
<text x="739.3" y="77.0" text-anchor="middle" font-size="9" fill="#FF6363" opacity="0.85" clip-path="url(#ca)">+4.0% (+1)</text>
<rect x="211" y="369" width="12" height="12" fill="#34C759" rx="2"/>
<text x="227" y="379" font-size="12" fill="#111827">macOS + Windows</text>
<rect x="351" y="369" width="12" height="12" fill="#4F8EF7" rx="2"/>
<text x="367" y="379" font-size="12" fill="#111827">macOS only</text>
<rect x="491" y="369" width="12" height="12" fill="#FF6363" rx="2"/>
<text x="507" y="379" font-size="12" fill="#111827">Windows only</text>
<text x="72" y="394" font-size="8" fill="#e5e7eb">data since Dec 11, 2025</text>
</svg>