<svg xmlns="http://www.w3.org/2000/svg" width="800" height="400" viewBox="0 0 800 400">
<defs>
  <style>text { font-family: -apple-system, BlinkMacSystemFont, 'Segoe UI', Roboto, sans-serif; }</style>
  <linearGradient id="g5" x1="0" y1="0" x2="0" y2="1">
  <stop offset="0%" stop-color="#34C759" stop-opacity="0.25"/>
  <stop offset="100%" stop-color="#34C759" stop-opacity="0"/>
</linearGradient>
<linearGradient id="g6" x1="0" y1="0" x2="0" y2="1">
  <stop offset="0%" stop-color="#4F8EF7" stop-opacity="0.25"/>
  <stop offset="100%" stop-color="#4F8EF7" stop-opacity="0"/>
</linearGradient>
<linearGradient id="g7" x1="0" y1="0" x2="0" y2="1">
  <stop offset="0%" stop-color="#FF6363" stop-opacity="0.25"/>
  <stop offset="100%" stop-color="#FF6363" stop-opacity="0"/>
</linearGradient>
  <clipPath id="ca"><rect x="72" y="45" width="698" height="295"/></clipPath>
</defs>
<rect width="800" height="400" fill="#ffffff" rx="12"/>
<text x="400" y="26" text-anchor="middle" font-size="15" font-weight="600" fill="#111827">Platform Support Over Time</text>
<line x1="72" y1="340.0" x2="770" y2="340.0" stroke="#f3f4f6" stroke-width="1"/>
<text x="66" y="344.0" text-anchor="end" font-size="11" fill="#6b7280">0</text>
<line x1="72" y1="266.3" x2="770" y2="266.3" stroke="#f3f4f6" stroke-width="1"/>
<text x="66" y="270.3" text-anchor="end" font-size="11" fill="#6b7280">200</text>
<line x1="72" y1="192.5" x2="770" y2="192.5" stroke="#f3f4f6" stroke-width="1"/>
<text x="66" y="196.5" text-anchor="end" font-size="11" fill="#6b7280">400</text>
<line x1="72" y1="118.8" x2="770" y2="118.8" stroke="#f3f4f6" stroke-width="1"/>
<text x="66" y="122.8" text-anchor="end" font-size="11" fill="#6b7280">600</text>
<line x1="72" y1="45.0" x2="770" y2="45.0" stroke="#f3f4f6" stroke-width="1"/>
<text x="66" y="49.0" text-anchor="end" font-size="11" fill="#6b7280">800</text>
<line x1="159.3" y1="45" x2="159.3" y2="340" stroke="#e5e7eb" stroke-width="1" stroke-dasharray="3,3" clip-path="url(#ca)"/>
<line x1="348.3" y1="45" x2="348.3" y2="340" stroke="#e5e7eb" stroke-width="1" stroke-dasharray="3,3" clip-path="url(#ca)"/>
<line x1="544.6" y1="45" x2="544.6" y2="340" stroke="#e5e7eb" stroke-width="1" stroke-dasharray="3,3" clip-path="url(#ca)"/>
<line x1="740.9" y1="45" x2="740.9" y2="340" stroke="#e5e7eb" stroke-width="1" stroke-dasharray="3,3" clip-path="url(#ca)"/>
<text x="72.0" y="358.0" text-anchor="middle" font-size="11" fill="#6b7280">Dec 11</text>
<text x="210.1" y="358.0" text-anchor="middle" font-size="11" fill="#6b7280">Jan 10</text>
<text x="348.3" y="358.0" text-anchor="middle" font-size="11" fill="#6b7280">Feb 1</text>
<text x="493.7" y="358.0" text-anchor="middle" font-size="11" fill="#6b7280">Feb 21</text>
<text x="631.9" y="358.0" text-anchor="middle" font-size="11" fill="#6b7280">Mar 14</text>
<text x="770.0" y="358.0" text-anchor="middle" font-size="11" fill="#6b7280">Apr 5</text>
<line x1="72" y1="45" x2="72" y2="340" stroke="#e5e7eb" stroke-width="1"/>
<line x1="72" y1="340" x2="770" y2="340" stroke="#e5e7eb" stroke-width="1"/>
<text x="-192.5" y="18" text-anchor="middle" font-size="12" fill="#6b7280" transform="rotate(-90)">Extensions</text>
<path d="M 72.0,340 L 72.0,218.3 L 79.3,215.0 L 86.5,214.6 L 93.8,213.2 L 101.1,212.4 L 108.4,208.7 L 115.6,206.5 L 122.9,205.4 L 130.2,203.6 L 137.4,201.3 L 144.7,200.2 L 152.0,199.9 L 159.3,198.8 L 166.5,198.0 L 173.8,197.7 L 181.1,196.6 L 188.3,195.4 L 195.6,194.3 L 202.9,193.2 L 210.1,191.8 L 217.4,190.7 L 224.7,189.6 L 232.0,188.4 L 239.2,186.2 L 246.5,185.5 L 253.8,185.5 L 261.0,182.9 L 268.3,182.2 L 275.6,181.4 L 282.9,180.7 L 290.1,178.9 L 297.4,176.3 L 304.7,175.9 L 311.9,175.5 L 319.2,173.3 L 326.5,172.6 L 333.8,170.7 L 341.0,170.4 L 348.3,170.0 L 355.6,169.3 L 362.8,169.3 L 370.1,169.3 L 377.4,164.1 L 384.6,163.7 L 391.9,162.6 L 399.2,162.3 L 406.5,161.9 L 413.7,160.8 L 421.0,160.1 L 428.3,159.3 L 435.5,157.1 L 442.8,157.1 L 450.1,157.1 L 457.4,156.7 L 464.6,153.0 L 471.9,151.9 L 479.2,151.2 L 486.4,150.1 L 493.7,149.4 L 501.0,149.4 L 508.3,147.5 L 515.5,144.9 L 522.8,144.2 L 530.1,143.8 L 537.3,142.7 L 544.6,142.7 L 551.9,142.0 L 559.1,140.9 L 566.4,140.1 L 573.7,138.7 L 581.0,137.2 L 588.2,136.8 L 595.5,136.8 L 602.8,135.3 L 610.0,135.3 L 617.3,135.3 L 624.6,133.1 L 631.9,132.8 L 639.1,132.4 L 646.4,132.4 L 653.7,132.0 L 660.9,130.6 L 668.2,129.8 L 675.5,128.7 L 682.8,128.7 L 690.0,128.3 L 697.3,126.9 L 704.6,125.8 L 711.8,125.8 L 719.1,125.4 L 726.4,124.7 L 733.6,122.1 L 740.9,121.3 L 748.2,120.2 L 755.5,120.2 L 762.7,119.5 L 770.0,119.1 L 770.0,340 Z" fill="url(#g5)" clip-path="url(#ca)"/>
<path d="M 72.0,218.3 L 79.3,215.0 L 86.5,214.6 L 93.8,213.2 L 101.1,212.4 L 108.4,208.7 L 115.6,206.5 L 122.9,205.4 L 130.2,203.6 L 137.4,201.3 L 144.7,200.2 L 152.0,199.9 L 159.3,198.8 L 166.5,198.0 L 173.8,197.7 L 181.1,196.6 L 188.3,195.4 L 195.6,194.3 L 202.9,193.2 L 210.1,191.8 L 217.4,190.7 L 224.7,189.6 L 232.0,188.4 L 239.2,186.2 L 246.5,185.5 L 253.8,185.5 L 261.0,182.9 L 268.3,182.2 L 275.6,181.4 L 282.9,180.7 L 290.1,178.9 L 297.4,176.3 L 304.7,175.9 L 311.9,175.5 L 319.2,173.3 L 326.5,172.6 L 333.8,170.7 L 341.0,170.4 L 348.3,170.0 L 355.6,169.3 L 362.8,169.3 L 370.1,169.3 L 377.4,164.1 L 384.6,163.7 L 391.9,162.6 L 399.2,162.3 L 406.5,161.9 L 413.7,160.8 L 421.0,160.1 L 428.3,159.3 L 435.5,157.1 L 442.8,157.1 L 450.1,157.1 L 457.4,156.7 L 464.6,153.0 L 471.9,151.9 L 479.2,151.2 L 486.4,150.1 L 493.7,149.4 L 501.0,149.4 L 508.3,147.5 L 515.5,144.9 L 522.8,144.2 L 530.1,143.8 L 537.3,142.7 L 544.6,142.7 L 551.9,142.0 L 559.1,140.9 L 566.4,140.1 L 573.7,138.7 L 581.0,137.2 L 588.2,136.8 L 595.5,136.8 L 602.8,135.3 L 610.0,135.3 L 617.3,135.3 L 624.6,133.1 L 631.9,132.8 L 639.1,132.4 L 646.4,132.4 L 653.7,132.0 L 660.9,130.6 L 668.2,129.8 L 675.5,128.7 L 682.8,128.7 L 690.0,128.3 L 697.3,126.9 L 704.6,125.8 L 711.8,125.8 L 719.1,125.4 L 726.4,124.7 L 733.6,122.1 L 740.9,121.3 L 748.2,120.2 L 755.5,120.2 L 762.7,119.5 L 770.0,119.1" fill="none" stroke="#34C759" stroke-width="2.5" stroke-linejoin="round" clip-path="url(#ca)"/>
<path d="M 72.0,340 L 72.0,193.2 L 79.3,193.2 L 86.5,192.9 L 93.8,191.8 L 101.1,192.1 L 108.4,192.1 L 115.6,190.7 L 122.9,189.6 L 130.2,189.6 L 137.4,189.9 L 144.7,189.6 L 152.0,189.2 L 159.3,188.8 L 166.5,188.8 L 173.8,188.8 L 181.1,189.2 L 188.3,188.4 L 195.6,187.7 L 202.9,185.5 L 210.1,184.0 L 217.4,184.0 L 224.7,183.7 L 232.0,181.4 L 239.2,178.1 L 246.5,177.0 L 253.8,176.3 L 261.0,173.7 L 268.3,171.9 L 275.6,171.1 L 282.9,170.4 L 290.1,169.6 L 297.4,169.3 L 304.7,169.3 L 311.9,166.7 L 319.2,166.0 L 326.5,165.2 L 333.8,165.2 L 341.0,163.4 L 348.3,163.0 L 355.6,161.9 L 362.8,160.4 L 370.1,158.6 L 377.4,156.0 L 384.6,153.4 L 391.9,153.0 L 399.2,152.3 L 406.5,151.6 L 413.7,149.4 L 421.0,149.4 L 428.3,148.6 L 435.5,147.5 L 442.8,146.8 L 450.1,145.3 L 457.4,145.7 L 464.6,141.2 L 471.9,140.9 L 479.2,140.5 L 486.4,139.8 L 493.7,137.6 L 501.0,137.6 L 508.3,135.3 L 515.5,132.8 L 522.8,132.8 L 530.1,132.8 L 537.3,132.4 L 544.6,132.0 L 551.9,131.7 L 559.1,129.8 L 566.4,127.6 L 573.7,126.9 L 581.0,125.4 L 588.2,125.4 L 595.5,124.3 L 602.8,122.1 L 610.0,121.0 L 617.3,120.6 L 624.6,118.0 L 631.9,117.6 L 639.1,117.6 L 646.4,117.3 L 653.7,117.3 L 660.9,115.4 L 668.2,114.7 L 675.5,113.6 L 682.8,113.2 L 690.0,112.5 L 697.3,109.5 L 704.6,105.5 L 711.8,105.1 L 719.1,104.4 L 726.4,104.0 L 733.6,102.2 L 740.9,63.1 L 748.2,62.3 L 755.5,60.5 L 762.7,60.5 L 770.0,60.5 L 770.0,340 Z" fill="url(#g6)" clip-path="url(#ca)"/>
<path d="M 72.0,193.2 L 79.3,193.2 L 86.5,192.9 L 93.8,191.8 L 101.1,192.1 L 108.4,192.1 L 115.6,190.7 L 122.9,189.6 L 130.2,189.6 L 137.4,189.9 L 144.7,189.6 L 152.0,189.2 L 159.3,188.8 L 166.5,188.8 L 173.8,188.8 L 181.1,189.2 L 188.3,188.4 L 195.6,187.7 L 202.9,185.5 L 210.1,184.0 L 217.4,184.0 L 224.7,183.7 L 232.0,181.4 L 239.2,178.1 L 246.5,177.0 L 253.8,176.3 L 261.0,173.7 L 268.3,171.9 L 275.6,171.1 L 282.9,170.4 L 290.1,169.6 L 297.4,169.3 L 304.7,169.3 L 311.9,166.7 L 319.2,166.0 L 326.5,165.2 L 333.8,165.2 L 341.0,163.4 L 348.3,163.0 L 355.6,161.9 L 362.8,160.4 L 370.1,158.6 L 377.4,156.0 L 384.6,153.4 L 391.9,153.0 L 399.2,152.3 L 406.5,151.6 L 413.7,149.4 L 421.0,149.4 L 428.3,148.6 L 435.5,147.5 L 442.8,146.8 L 450.1,145.3 L 457.4,145.7 L 464.6,141.2 L 471.9,140.9 L 479.2,140.5 L 486.4,139.8 L 493.7,137.6 L 501.0,137.6 L 508.3,135.3 L 515.5,132.8 L 522.8,132.8 L 530.1,132.8 L 537.3,132.4 L 544.6,132.0 L 551.9,131.7 L 559.1,129.8 L 566.4,127.6 L 573.7,126.9 L 581.0,125.4 L 588.2,125.4 L 595.5,124.3 L 602.8,122.1 L 610.0,121.0 L 617.3,120.6 L 624.6,118.0 L 631.9,117.6 L 639.1,117.6 L 646.4,117.3 L 653.7,117.3 L 660.9,115.4 L 668.2,114.7 L 675.5,113.6 L 682.8,113.2 L 690.0,112.5 L 697.3,109.5 L 704.6,105.5 L 711.8,105.1 L 719.1,104.4 L 726.4,104.0 L 733.6,102.2 L 740.9,63.1 L 748.2,62.3 L 755.5,60.5 L 762.7,60.5 L 770.0,60.5" fill="none" stroke="#4F8EF7" stroke-width="2.5" stroke-linejoin="round" clip-path="url(#ca)"/>
<path d="M 72.0,340 L 72.0,337.8 L 79.3,337.4 L 86.5,337.4 L 93.8,337.1 L 101.1,337.1 L 108.4,337.1 L 115.6,337.1 L 122.9,337.1 L 130.2,336.3 L 137.4,336.3 L 144.7,336.3 L 152.0,336.3 L 159.3,336.3 L 166.5,335.9 L 173.8,335.9 L 181.1,335.9 L 188.3,335.9 L 195.6,335.9 L 202.9,335.6 L 210.1,334.8 L 217.4,334.5 L 224.7,334.5 L 232.0,334.5 L 239.2,334.1 L 246.5,334.1 L 253.8,334.1 L 261.0,333.7 L 268.3,333.7 L 275.6,333.7 L 282.9,333.4 L 290.1,333.4 L 297.4,333.4 L 304.7,333.4 L 311.9,333.0 L 319.2,333.0 L 326.5,333.0 L 333.8,333.0 L 341.0,333.0 L 348.3,333.0 L 355.6,333.0 L 362.8,333.0 L 370.1,333.0 L 377.4,333.0 L 384.6,333.0 L 391.9,333.0 L 399.2,333.0 L 406.5,332.6 L 413.7,332.6 L 421.0,332.6 L 428.3,332.6 L 435.5,332.6 L 442.8,332.6 L 450.1,332.6 L 457.4,332.6 L 464.6,332.6 L 471.9,332.6 L 479.2,332.6 L 486.4,332.6 L 493.7,332.3 L 501.0,332.3 L 508.3,332.3 L 515.5,332.3 L 522.8,332.3 L 530.1,332.3 L 537.3,332.3 L 544.6,332.3 L 551.9,332.3 L 559.1,332.3 L 566.4,332.3 L 573.7,332.3 L 581.0,332.3 L 588.2,332.3 L 595.5,332.3 L 602.8,332.3 L 610.0,332.3 L 617.3,332.3 L 624.6,332.3 L 631.9,332.3 L 639.1,332.3 L 646.4,332.3 L 653.7,332.3 L 660.9,332.3 L 668.2,332.3 L 675.5,332.3 L 682.8,332.3 L 690.0,332.3 L 697.3,332.3 L 704.6,332.3 L 711.8,332.3 L 719.1,332.3 L 726.4,332.3 L 733.6,332.3 L 740.9,332.3 L 748.2,332.3 L 755.5,331.9 L 762.7,331.9 L 770.0,331.9 L 770.0,340 Z" fill="url(#g7)" clip-path="url(#ca)"/>
<path d="M 72.0,337.8 L 79.3,337.4 L 86.5,337.4 L 93.8,337.1 L 101.1,337.1 L 108.4,337.1 L 115.6,337.1 L 122.9,337.1 L 130.2,336.3 L 137.4,336.3 L 144.7,336.3 L 152.0,336.3 L 159.3,336.3 L 166.5,335.9 L 173.8,335.9 L 181.1,335.9 L 188.3,335.9 L 195.6,335.9 L 202.9,335.6 L 210.1,334.8 L 217.4,334.5 L 224.7,334.5 L 232.0,334.5 L 239.2,334.1 L 246.5,334.1 L 253.8,334.1 L 261.0,333.7 L 268.3,333.7 L 275.6,333.7 L 282.9,333.4 L 290.1,333.4 L 297.4,333.4 L 304.7,333.4 L 311.9,333.0 L 319.2,333.0 L 326.5,333.0 L 333.8,333.0 L 341.0,333.0 L 348.3,333.0 L 355.6,333.0 L 362.8,333.0 L 370.1,333.0 L 377.4,333.0 L 384.6,333.0 L 391.9,333.0 L 399.2,333.0 L 406.5,332.6 L 413.7,332.6 L 421.0,332.6 L 428.3,332.6 L 435.5,332.6 L 442.8,332.6 L 450.1,332.6 L 457.4,332.6 L 464.6,332.6 L 471.9,332.6 L 479.2,332.6 L 486.4,332.6 L 493.7,332.3 L 501.0,332.3 L 508.3,332.3 L 515.5,332.3 L 522.8,332.3 L 530.1,332.3 L 537.3,332.3 L 544.6,332.3 L 551.9,332.3 L 559.1,332.3 L 566.4,332.3 L 573.7,332.3 L 581.0,332.3 L 588.2,332.3 L 595.5,332.3 L 602.8,332.3 L 610.0,332.3 L 617.3,332.3 L 624.6,332.3 L 631.9,332.3 L 639.1,332.3 L 646.4,332.3 L 653.7,332.3 L 660.9,332.3 L 668.2,332.3 L 675.5,332.3 L 682.8,332.3 L 690.0,332.3 L 697.3,332.3 L 704.6,332.3 L 711.8,332.3 L 719.1,332.3 L 726.4,332.3 L 733.6,332.3 L 740.9,332.3 L 748.2,332.3 L 755.5,331.9 L 762.7,331.9 L 770.0,331.9" fill="none" stroke="#FF6363" stroke-width="2.5" stroke-linejoin="round" clip-path="url(#ca)"/>
<text x="112.0" y="55.0" text-anchor="middle" font-size="9" fill="#34C759" opacity="0.85" clip-path="url(#ca)">+15.2% (+50)</text>
<text x="112.0" y="66.0" text-anchor="middle" font-size="9" fill="#4F8EF7" opacity="0.85" clip-path="url(#ca)">+2.8% (+11)</text>
<text x="112.0" y="77.0" text-anchor="middle" font-size="9" fill="#FF6363" opacity="0.85" clip-path="url(#ca)">+66.7% (+4)</text>
<text x="250.1" y="55.0" text-anchor="middle" font-size="9" fill="#34C759" opacity="0.85" clip-path="url(#ca)">+20.1% (+77)</text>
<text x="250.1" y="66.0" text-anchor="middle" font-size="9" fill="#4F8EF7" opacity="0.85" clip-path="url(#ca)">+16.8% (+69)</text>
<text x="250.1" y="77.0" text-anchor="middle" font-size="9" fill="#FF6363" opacity="0.85" clip-path="url(#ca)">+90.0% (+9)</text>
<text x="442.8" y="55.0" text-anchor="middle" font-size="9" fill="#34C759" opacity="0.85" clip-path="url(#ca)">+16.1% (+74)</text>
<text x="442.8" y="66.0" text-anchor="middle" font-size="9" fill="#4F8EF7" opacity="0.85" clip-path="url(#ca)">+17.3% (+83)</text>
<text x="442.8" y="77.0" text-anchor="middle" font-size="9" fill="#FF6363" opacity="0.85" clip-path="url(#ca)">+10.5% (+2)</text>
<text x="639.1" y="55.0" text-anchor="middle" font-size="9" fill="#34C759" opacity="0.85" clip-path="url(#ca)">+10.5% (+56)</text>
<text x="639.1" y="66.0" text-anchor="middle" font-size="9" fill="#4F8EF7" opacity="0.85" clip-path="url(#ca)">+14.4% (+81)</text>
<text x="639.1" y="77.0" text-anchor="middle" font-size="9" fill="#FF6363" opacity="0.85" clip-path="url(#ca)">+0.0% (+0)</text>
<text x="755.5" y="55.0" text-anchor="middle" font-size="9" fill="#34C759" opacity="0.85" clip-path="url(#ca)">+1.0% (+6)</text>
<text x="755.5" y="66.0" text-anchor="middle" font-size="9" fill="#4F8EF7" opacity="0.85" clip-path="url(#ca)">+0.9% (+7)</text>
<text x="755.5" y="77.0" text-anchor="middle" font-size="9" fill="#FF6363" opacity="0.85" clip-path="url(#ca)">+4.8% (+1)</text>
<rect x="211" y="369" width="12" height="12" fill="#34C759" rx="2"/>
<text x="227" y="379" font-size="12" fill="#111827">macOS + Windows</text>
<rect x="351" y="369" width="12" height="12" fill="#4F8EF7" rx="2"/>
<text x="367" y="379" font-size="12" fill="#111827">macOS only</text>
<rect x="491" y="369" width="12" height="12" fill="#FF6363" rx="2"/>
<text x="507" y="379" font-size="12" fill="#111827">Windows only</text>
<text x="72" y="394" font-size="8" fill="#e5e7eb">data since Dec 11, 2025</text>
</svg>