<svg xmlns="http://www.w3.org/2000/svg" width="800" height="400" viewBox="0 0 800 400">
<defs>
  <style>text { font-family: -apple-system, BlinkMacSystemFont, 'Segoe UI', Roboto, sans-serif; }</style>
  <linearGradient id="g1" x1="0" y1="0" x2="0" y2="1">
  <stop offset="0%" stop-color="#FF6363" stop-opacity="0.25"/>
  <stop offset="100%" stop-color="#FF6363" stop-opacity="0"/>
</linearGradient>
  <clipPath id="ca"><rect x="72" y="45" width="698" height="295"/></clipPath>
</defs>
<rect width="800" height="400" fill="#ffffff" rx="12"/>
<text x="400" y="26" text-anchor="middle" font-size="15" font-weight="600" fill="#111827">Packages Growth Over Time</text>
<line x1="72" y1="340.0" x2="770" y2="340.0" stroke="#f3f4f6" stroke-width="1"/>
<text x="66" y="344.0" text-anchor="end" font-size="11" fill="#6b7280">2.4k</text>
<line x1="72" y1="281.0" x2="770" y2="281.0" stroke="#f3f4f6" stroke-width="1"/>
<text x="66" y="285.0" text-anchor="end" font-size="11" fill="#6b7280">2.5k</text>
<line x1="72" y1="222.0" x2="770" y2="222.0" stroke="#f3f4f6" stroke-width="1"/>
<text x="66" y="226.0" text-anchor="end" font-size="11" fill="#6b7280">2.6k</text>
<line x1="72" y1="163.0" x2="770" y2="163.0" stroke="#f3f4f6" stroke-width="1"/>
<text x="66" y="167.0" text-anchor="end" font-size="11" fill="#6b7280">2.7k</text>
<line x1="72" y1="104.0" x2="770" y2="104.0" stroke="#f3f4f6" stroke-width="1"/>
<text x="66" y="108.0" text-anchor="end" font-size="11" fill="#6b7280">2.8k</text>
<line x1="72" y1="45.0" x2="770" y2="45.0" stroke="#f3f4f6" stroke-width="1"/>
<text x="66" y="49.0" text-anchor="end" font-size="11" fill="#6b7280">2.9k</text>
<line x1="158.4" y1="45" x2="158.4" y2="340" stroke="#e5e7eb" stroke-width="1" stroke-dasharray="3,3" clip-path="url(#ca)"/>
<line x1="345.4" y1="45" x2="345.4" y2="340" stroke="#e5e7eb" stroke-width="1" stroke-dasharray="3,3" clip-path="url(#ca)"/>
<line x1="539.7" y1="45" x2="539.7" y2="340" stroke="#e5e7eb" stroke-width="1" stroke-dasharray="3,3" clip-path="url(#ca)"/>
<line x1="734.0" y1="45" x2="734.0" y2="340" stroke="#e5e7eb" stroke-width="1" stroke-dasharray="3,3" clip-path="url(#ca)"/>
<text x="72.0" y="358.0" text-anchor="middle" font-size="11" fill="#6b7280">Dec 11</text>
<text x="208.7" y="358.0" text-anchor="middle" font-size="11" fill="#6b7280">Jan 10</text>
<text x="352.6" y="358.0" text-anchor="middle" font-size="11" fill="#6b7280">Feb 2</text>
<text x="489.4" y="358.0" text-anchor="middle" font-size="11" fill="#6b7280">Feb 21</text>
<text x="633.3" y="358.0" text-anchor="middle" font-size="11" fill="#6b7280">Mar 15</text>
<text x="770.0" y="358.0" text-anchor="middle" font-size="11" fill="#6b7280">Apr 7</text>
<line x1="72" y1="45" x2="72" y2="340" stroke="#e5e7eb" stroke-width="1"/>
<line x1="72" y1="340" x2="770" y2="340" stroke="#e5e7eb" stroke-width="1"/>
<text x="-192.5" y="18" text-anchor="middle" font-size="12" fill="#6b7280" transform="rotate(-90)">Extensions</text>
<path d="M 72.0,340 L 72.0,294.6 L 79.2,294.0 L 86.4,294.0 L 93.6,292.2 L 100.8,292.2 L 108.0,291.0 L 115.2,289.9 L 122.4,289.3 L 129.6,286.3 L 136.8,283.9 L 144.0,283.9 L 151.2,283.9 L 158.4,283.9 L 165.5,282.8 L 172.7,282.8 L 179.9,282.8 L 187.1,281.6 L 194.3,279.2 L 201.5,275.1 L 208.7,272.1 L 215.9,271.0 L 223.1,270.4 L 230.3,268.0 L 237.5,260.9 L 244.7,258.6 L 251.9,258.6 L 259.1,252.7 L 266.3,250.9 L 273.5,248.6 L 280.7,246.8 L 287.9,243.2 L 295.1,240.3 L 302.3,239.7 L 309.5,235.0 L 316.7,230.8 L 323.9,230.8 L 331.1,227.9 L 338.2,225.5 L 345.4,224.9 L 352.6,224.4 L 359.8,223.8 L 367.0,222.0 L 374.2,211.4 L 381.4,206.7 L 388.6,204.3 L 395.8,203.1 L 403.0,201.3 L 410.2,197.2 L 417.4,196.0 L 424.6,194.9 L 431.8,191.3 L 439.0,190.1 L 446.2,189.0 L 453.4,189.0 L 460.6,178.3 L 467.8,177.2 L 475.0,176.0 L 482.2,173.6 L 489.4,170.7 L 496.6,170.7 L 503.8,166.0 L 510.9,158.3 L 518.1,157.1 L 525.3,157.7 L 532.5,155.9 L 539.7,155.3 L 546.9,155.3 L 554.1,151.8 L 561.3,148.8 L 568.5,146.5 L 575.7,143.5 L 582.9,142.9 L 590.1,142.9 L 597.3,138.8 L 604.5,137.6 L 611.7,137.0 L 618.9,130.0 L 626.1,129.4 L 633.3,129.4 L 640.5,129.4 L 647.7,128.8 L 654.9,125.8 L 662.1,123.5 L 669.3,120.5 L 676.5,119.9 L 683.6,118.2 L 690.8,112.8 L 698.0,108.1 L 705.2,107.5 L 712.4,106.9 L 719.6,105.2 L 726.8,99.3 L 734.0,98.1 L 741.2,96.3 L 748.4,92.8 L 755.6,92.2 L 762.8,91.6 L 770.0,91.6 L 770.0,340 Z" fill="url(#g1)" clip-path="url(#ca)"/>
<path d="M 72.0,294.6 L 79.2,294.0 L 86.4,294.0 L 93.6,292.2 L 100.8,292.2 L 108.0,291.0 L 115.2,289.9 L 122.4,289.3 L 129.6,286.3 L 136.8,283.9 L 144.0,283.9 L 151.2,283.9 L 158.4,283.9 L 165.5,282.8 L 172.7,282.8 L 179.9,282.8 L 187.1,281.6 L 194.3,279.2 L 201.5,275.1 L 208.7,272.1 L 215.9,271.0 L 223.1,270.4 L 230.3,268.0 L 237.5,260.9 L 244.7,258.6 L 251.9,258.6 L 259.1,252.7 L 266.3,250.9 L 273.5,248.6 L 280.7,246.8 L 287.9,243.2 L 295.1,240.3 L 302.3,239.7 L 309.5,235.0 L 316.7,230.8 L 323.9,230.8 L 331.1,227.9 L 338.2,225.5 L 345.4,224.9 L 352.6,224.4 L 359.8,223.8 L 367.0,222.0 L 374.2,211.4 L 381.4,206.7 L 388.6,204.3 L 395.8,203.1 L 403.0,201.3 L 410.2,197.2 L 417.4,196.0 L 424.6,194.9 L 431.8,191.3 L 439.0,190.1 L 446.2,189.0 L 453.4,189.0 L 460.6,178.3 L 467.8,177.2 L 475.0,176.0 L 482.2,173.6 L 489.4,170.7 L 496.6,170.7 L 503.8,166.0 L 510.9,158.3 L 518.1,157.1 L 525.3,157.7 L 532.5,155.9 L 539.7,155.3 L 546.9,155.3 L 554.1,151.8 L 561.3,148.8 L 568.5,146.5 L 575.7,143.5 L 582.9,142.9 L 590.1,142.9 L 597.3,138.8 L 604.5,137.6 L 611.7,137.0 L 618.9,130.0 L 626.1,129.4 L 633.3,129.4 L 640.5,129.4 L 647.7,128.8 L 654.9,125.8 L 662.1,123.5 L 669.3,120.5 L 676.5,119.9 L 683.6,118.2 L 690.8,112.8 L 698.0,108.1 L 705.2,107.5 L 712.4,106.9 L 719.6,105.2 L 726.8,99.3 L 734.0,98.1 L 741.2,96.3 L 748.4,92.8 L 755.6,92.2 L 762.8,91.6 L 770.0,91.6" fill="none" stroke="#FF6363" stroke-width="2.5" stroke-linejoin="round" clip-path="url(#ca)"/>
<text x="111.6" y="55.0" text-anchor="middle" font-size="9" fill="#FF6363" opacity="0.85" clip-path="url(#ca)">+0.7% (+18)</text>
<text x="248.3" y="55.0" text-anchor="middle" font-size="9" fill="#FF6363" opacity="0.85" clip-path="url(#ca)">+4.0% (+99)</text>
<text x="439.0" y="55.0" text-anchor="middle" font-size="9" fill="#FF6363" opacity="0.85" clip-path="url(#ca)">+4.5% (+117)</text>
<text x="633.3" y="55.0" text-anchor="middle" font-size="9" fill="#FF6363" opacity="0.85" clip-path="url(#ca)">+3.5% (+95)</text>
<text x="752.0" y="55.0" text-anchor="middle" font-size="9" fill="#FF6363" opacity="0.85" clip-path="url(#ca)">+0.4% (+11)</text>
<rect x="351" y="369" width="12" height="12" fill="#FF6363" rx="2"/>
<text x="367" y="379" font-size="12" fill="#111827">Extensions</text>
<text x="72" y="394" font-size="8" fill="#e5e7eb">data since Dec 11, 2025</text>
</svg>