<svg xmlns="http://www.w3.org/2000/svg" width="800" height="400" viewBox="0 0 800 400">
<defs>
  <style>text { font-family: -apple-system, BlinkMacSystemFont, 'Segoe UI', Roboto, sans-serif; }</style>
  <linearGradient id="g5" x1="0" y1="0" x2="0" y2="1">
  <stop offset="0%" stop-color="#34C759" stop-opacity="0.25"/>
  <stop offset="100%" stop-color="#34C759" stop-opacity="0"/>
</linearGradient>
<linearGradient id="g6" x1="0" y1="0" x2="0" y2="1">
  <stop offset="0%" stop-color="#4F8EF7" stop-opacity="0.25"/>
  <stop offset="100%" stop-color="#4F8EF7" stop-opacity="0"/>
</linearGradient>
<linearGradient id="g7" x1="0" y1="0" x2="0" y2="1">
  <stop offset="0%" stop-color="#FF6363" stop-opacity="0.25"/>
  <stop offset="100%" stop-color="#FF6363" stop-opacity="0"/>
</linearGradient>
  <clipPath id="ca"><rect x="72" y="45" width="698" height="295"/></clipPath>
</defs>
<rect width="800" height="400" fill="#ffffff" rx="12"/>
<text x="400" y="26" text-anchor="middle" font-size="15" font-weight="600" fill="#111827">Platform Support Over Time</text>
<line x1="72" y1="340.0" x2="770" y2="340.0" stroke="#f3f4f6" stroke-width="1"/>
<text x="66" y="344.0" text-anchor="end" font-size="11" fill="#6b7280">0</text>
<line x1="72" y1="281.0" x2="770" y2="281.0" stroke="#f3f4f6" stroke-width="1"/>
<text x="66" y="285.0" text-anchor="end" font-size="11" fill="#6b7280">200</text>
<line x1="72" y1="222.0" x2="770" y2="222.0" stroke="#f3f4f6" stroke-width="1"/>
<text x="66" y="226.0" text-anchor="end" font-size="11" fill="#6b7280">400</text>
<line x1="72" y1="163.0" x2="770" y2="163.0" stroke="#f3f4f6" stroke-width="1"/>
<text x="66" y="167.0" text-anchor="end" font-size="11" fill="#6b7280">600</text>
<line x1="72" y1="104.0" x2="770" y2="104.0" stroke="#f3f4f6" stroke-width="1"/>
<text x="66" y="108.0" text-anchor="end" font-size="11" fill="#6b7280">800</text>
<line x1="72" y1="45.0" x2="770" y2="45.0" stroke="#f3f4f6" stroke-width="1"/>
<text x="66" y="49.0" text-anchor="end" font-size="11" fill="#6b7280">1.0k</text>
<line x1="130.6" y1="45" x2="130.6" y2="340" stroke="#e5e7eb" stroke-width="1" stroke-dasharray="3,3" clip-path="url(#ca)"/>
<line x1="257.5" y1="45" x2="257.5" y2="340" stroke="#e5e7eb" stroke-width="1" stroke-dasharray="3,3" clip-path="url(#ca)"/>
<line x1="389.3" y1="45" x2="389.3" y2="340" stroke="#e5e7eb" stroke-width="1" stroke-dasharray="3,3" clip-path="url(#ca)"/>
<line x1="521.1" y1="45" x2="521.1" y2="340" stroke="#e5e7eb" stroke-width="1" stroke-dasharray="3,3" clip-path="url(#ca)"/>
<line x1="652.9" y1="45" x2="652.9" y2="340" stroke="#e5e7eb" stroke-width="1" stroke-dasharray="3,3" clip-path="url(#ca)"/>
<text x="72.0" y="358.0" text-anchor="middle" font-size="11" fill="#6b7280">Dec 11</text>
<text x="213.6" y="358.0" text-anchor="middle" font-size="11" fill="#6b7280">Jan 23</text>
<text x="350.2" y="358.0" text-anchor="middle" font-size="11" fill="#6b7280">Feb 20</text>
<text x="491.8" y="358.0" text-anchor="middle" font-size="11" fill="#6b7280">Mar 24</text>
<text x="628.4" y="358.0" text-anchor="middle" font-size="11" fill="#6b7280">Apr 25</text>
<text x="770.0" y="358.0" text-anchor="middle" font-size="11" fill="#6b7280">May 30</text>
<line x1="72" y1="45" x2="72" y2="340" stroke="#e5e7eb" stroke-width="1"/>
<line x1="72" y1="340" x2="770" y2="340" stroke="#e5e7eb" stroke-width="1"/>
<text x="-192.5" y="18" text-anchor="middle" font-size="12" fill="#6b7280" transform="rotate(-90)">Extensions</text>
<path d="M 72.0,340 L 72.0,242.6 L 76.9,240.0 L 81.8,239.7 L 86.6,238.5 L 91.5,237.9 L 96.4,235.0 L 101.3,233.2 L 106.2,232.3 L 111.0,230.8 L 115.9,229.1 L 120.8,228.2 L 125.7,227.9 L 130.6,227.0 L 135.5,226.4 L 140.3,226.1 L 145.2,225.2 L 150.1,224.4 L 155.0,223.5 L 159.9,222.6 L 164.7,221.4 L 169.6,220.5 L 174.5,219.6 L 179.4,218.8 L 184.3,217.0 L 189.1,216.4 L 194.0,216.4 L 198.9,214.3 L 203.8,213.7 L 208.7,213.2 L 213.6,212.6 L 218.4,211.1 L 223.3,209.0 L 228.2,208.7 L 233.1,208.4 L 238.0,206.7 L 242.8,206.1 L 247.7,204.6 L 252.6,204.3 L 257.5,204.0 L 262.4,203.4 L 267.2,203.4 L 272.1,203.4 L 277.0,199.3 L 281.9,199.0 L 286.8,198.1 L 291.7,197.8 L 296.5,197.5 L 301.4,196.6 L 306.3,196.0 L 311.2,195.4 L 316.1,193.7 L 320.9,193.7 L 325.8,193.7 L 330.7,193.4 L 335.6,190.4 L 340.5,189.6 L 345.3,189.0 L 350.2,188.1 L 355.1,187.5 L 360.0,187.5 L 364.9,186.0 L 369.7,183.9 L 374.6,183.4 L 379.5,183.1 L 384.4,182.2 L 389.3,182.2 L 394.2,181.6 L 399.0,180.7 L 403.9,180.1 L 408.8,178.9 L 413.7,177.8 L 418.6,177.5 L 423.4,177.5 L 428.3,176.3 L 433.2,176.3 L 438.1,176.3 L 443.0,174.5 L 447.8,174.2 L 452.7,173.9 L 457.6,173.9 L 462.5,173.6 L 467.4,172.4 L 472.3,171.9 L 477.1,171.0 L 482.0,171.0 L 486.9,170.7 L 491.8,169.5 L 496.7,168.6 L 501.5,168.6 L 506.4,168.3 L 511.3,167.7 L 516.2,165.7 L 521.1,165.1 L 525.9,164.2 L 530.8,164.2 L 535.7,163.6 L 540.6,163.3 L 545.5,163.0 L 550.3,162.7 L 555.2,162.4 L 560.1,162.4 L 565.0,162.1 L 569.9,161.8 L 574.8,160.9 L 579.6,159.8 L 584.5,159.5 L 589.4,158.6 L 594.3,158.6 L 599.2,157.4 L 604.0,157.1 L 608.9,157.1 L 613.8,157.1 L 618.7,156.2 L 623.6,155.9 L 628.4,155.9 L 633.3,155.9 L 638.2,155.6 L 643.1,154.4 L 648.0,154.2 L 652.9,153.3 L 657.7,152.7 L 662.6,152.7 L 667.5,151.8 L 672.4,151.2 L 677.3,151.2 L 682.1,150.9 L 687.0,149.4 L 691.9,148.0 L 696.8,147.7 L 701.7,147.1 L 706.5,145.9 L 711.4,145.9 L 716.3,145.3 L 721.2,143.8 L 726.1,141.2 L 731.0,140.3 L 735.8,140.3 L 740.7,140.3 L 745.6,140.3 L 750.5,140.3 L 755.4,139.1 L 760.2,138.2 L 765.1,138.2 L 770.0,138.2 L 770.0,340 Z" fill="url(#g5)" clip-path="url(#ca)"/>
<path d="M 72.0,242.6 L 76.9,240.0 L 81.8,239.7 L 86.6,238.5 L 91.5,237.9 L 96.4,235.0 L 101.3,233.2 L 106.2,232.3 L 111.0,230.8 L 115.9,229.1 L 120.8,228.2 L 125.7,227.9 L 130.6,227.0 L 135.5,226.4 L 140.3,226.1 L 145.2,225.2 L 150.1,224.4 L 155.0,223.5 L 159.9,222.6 L 164.7,221.4 L 169.6,220.5 L 174.5,219.6 L 179.4,218.8 L 184.3,217.0 L 189.1,216.4 L 194.0,216.4 L 198.9,214.3 L 203.8,213.7 L 208.7,213.2 L 213.6,212.6 L 218.4,211.1 L 223.3,209.0 L 228.2,208.7 L 233.1,208.4 L 238.0,206.7 L 242.8,206.1 L 247.7,204.6 L 252.6,204.3 L 257.5,204.0 L 262.4,203.4 L 267.2,203.4 L 272.1,203.4 L 277.0,199.3 L 281.9,199.0 L 286.8,198.1 L 291.7,197.8 L 296.5,197.5 L 301.4,196.6 L 306.3,196.0 L 311.2,195.4 L 316.1,193.7 L 320.9,193.7 L 325.8,193.7 L 330.7,193.4 L 335.6,190.4 L 340.5,189.6 L 345.3,189.0 L 350.2,188.1 L 355.1,187.5 L 360.0,187.5 L 364.9,186.0 L 369.7,183.9 L 374.6,183.4 L 379.5,183.1 L 384.4,182.2 L 389.3,182.2 L 394.2,181.6 L 399.0,180.7 L 403.9,180.1 L 408.8,178.9 L 413.7,177.8 L 418.6,177.5 L 423.4,177.5 L 428.3,176.3 L 433.2,176.3 L 438.1,176.3 L 443.0,174.5 L 447.8,174.2 L 452.7,173.9 L 457.6,173.9 L 462.5,173.6 L 467.4,172.4 L 472.3,171.9 L 477.1,171.0 L 482.0,171.0 L 486.9,170.7 L 491.8,169.5 L 496.7,168.6 L 501.5,168.6 L 506.4,168.3 L 511.3,167.7 L 516.2,165.7 L 521.1,165.1 L 525.9,164.2 L 530.8,164.2 L 535.7,163.6 L 540.6,163.3 L 545.5,163.0 L 550.3,162.7 L 555.2,162.4 L 560.1,162.4 L 565.0,162.1 L 569.9,161.8 L 574.8,160.9 L 579.6,159.8 L 584.5,159.5 L 589.4,158.6 L 594.3,158.6 L 599.2,157.4 L 604.0,157.1 L 608.9,157.1 L 613.8,157.1 L 618.7,156.2 L 623.6,155.9 L 628.4,155.9 L 633.3,155.9 L 638.2,155.6 L 643.1,154.4 L 648.0,154.2 L 652.9,153.3 L 657.7,152.7 L 662.6,152.7 L 667.5,151.8 L 672.4,151.2 L 677.3,151.2 L 682.1,150.9 L 687.0,149.4 L 691.9,148.0 L 696.8,147.7 L 701.7,147.1 L 706.5,145.9 L 711.4,145.9 L 716.3,145.3 L 721.2,143.8 L 726.1,141.2 L 731.0,140.3 L 735.8,140.3 L 740.7,140.3 L 745.6,140.3 L 750.5,140.3 L 755.4,139.1 L 760.2,138.2 L 765.1,138.2 L 770.0,138.2" fill="none" stroke="#34C759" stroke-width="2.5" stroke-linejoin="round" clip-path="url(#ca)"/>
<path d="M 72.0,340 L 72.0,222.6 L 76.9,222.6 L 81.8,222.3 L 86.6,221.4 L 91.5,221.7 L 96.4,221.7 L 101.3,220.5 L 106.2,219.6 L 111.0,219.6 L 115.9,219.9 L 120.8,219.6 L 125.7,219.3 L 130.6,219.1 L 135.5,219.1 L 140.3,219.1 L 145.2,219.3 L 150.1,218.8 L 155.0,218.2 L 159.9,216.4 L 164.7,215.2 L 169.6,215.2 L 174.5,214.9 L 179.4,213.2 L 184.3,210.5 L 189.1,209.6 L 194.0,209.0 L 198.9,207.0 L 203.8,205.5 L 208.7,204.9 L 213.6,204.3 L 218.4,203.7 L 223.3,203.4 L 228.2,203.4 L 233.1,201.3 L 238.0,200.8 L 242.8,200.2 L 247.7,200.2 L 252.6,198.7 L 257.5,198.4 L 262.4,197.5 L 267.2,196.3 L 272.1,194.9 L 277.0,192.8 L 281.9,190.7 L 286.8,190.4 L 291.7,189.8 L 296.5,189.3 L 301.4,187.5 L 306.3,187.5 L 311.2,186.9 L 316.1,186.0 L 320.9,185.4 L 325.8,184.2 L 330.7,184.5 L 335.6,181.0 L 340.5,180.7 L 345.3,180.4 L 350.2,179.8 L 355.1,178.0 L 360.0,178.0 L 364.9,176.3 L 369.7,174.2 L 374.6,174.2 L 379.5,174.2 L 384.4,173.9 L 389.3,173.6 L 394.2,173.3 L 399.0,171.9 L 403.9,170.1 L 408.8,169.5 L 413.7,168.3 L 418.6,168.3 L 423.4,167.4 L 428.3,165.7 L 433.2,164.8 L 438.1,164.5 L 443.0,162.4 L 447.8,162.1 L 452.7,162.1 L 457.6,161.8 L 462.5,161.8 L 467.4,160.3 L 472.3,159.8 L 477.1,158.9 L 482.0,158.6 L 486.9,158.0 L 491.8,155.6 L 496.7,152.4 L 501.5,152.1 L 506.4,151.5 L 511.3,151.2 L 516.2,149.7 L 521.1,118.5 L 525.9,117.9 L 530.8,116.4 L 535.7,116.4 L 540.6,116.4 L 545.5,116.7 L 550.3,116.4 L 555.2,114.6 L 560.1,114.0 L 565.0,113.7 L 569.9,113.4 L 574.8,112.3 L 579.6,110.5 L 584.5,110.5 L 589.4,110.5 L 594.3,110.2 L 599.2,109.9 L 604.0,109.9 L 608.9,109.3 L 613.8,108.4 L 618.7,106.9 L 623.6,106.4 L 628.4,106.1 L 633.3,106.1 L 638.2,105.8 L 643.1,105.2 L 648.0,104.9 L 652.9,103.4 L 657.7,103.4 L 662.6,102.8 L 667.5,101.6 L 672.4,100.2 L 677.3,99.9 L 682.1,99.6 L 687.0,96.9 L 691.9,96.3 L 696.8,95.7 L 701.7,95.7 L 706.5,94.6 L 711.4,94.0 L 716.3,92.5 L 721.2,91.9 L 726.1,91.0 L 731.0,90.7 L 735.8,89.5 L 740.7,88.7 L 745.6,88.4 L 750.5,87.8 L 755.4,86.6 L 760.2,86.0 L 765.1,85.1 L 770.0,84.5 L 770.0,340 Z" fill="url(#g6)" clip-path="url(#ca)"/>
<path d="M 72.0,222.6 L 76.9,222.6 L 81.8,222.3 L 86.6,221.4 L 91.5,221.7 L 96.4,221.7 L 101.3,220.5 L 106.2,219.6 L 111.0,219.6 L 115.9,219.9 L 120.8,219.6 L 125.7,219.3 L 130.6,219.1 L 135.5,219.1 L 140.3,219.1 L 145.2,219.3 L 150.1,218.8 L 155.0,218.2 L 159.9,216.4 L 164.7,215.2 L 169.6,215.2 L 174.5,214.9 L 179.4,213.2 L 184.3,210.5 L 189.1,209.6 L 194.0,209.0 L 198.9,207.0 L 203.8,205.5 L 208.7,204.9 L 213.6,204.3 L 218.4,203.7 L 223.3,203.4 L 228.2,203.4 L 233.1,201.3 L 238.0,200.8 L 242.8,200.2 L 247.7,200.2 L 252.6,198.7 L 257.5,198.4 L 262.4,197.5 L 267.2,196.3 L 272.1,194.9 L 277.0,192.8 L 281.9,190.7 L 286.8,190.4 L 291.7,189.8 L 296.5,189.3 L 301.4,187.5 L 306.3,187.5 L 311.2,186.9 L 316.1,186.0 L 320.9,185.4 L 325.8,184.2 L 330.7,184.5 L 335.6,181.0 L 340.5,180.7 L 345.3,180.4 L 350.2,179.8 L 355.1,178.0 L 360.0,178.0 L 364.9,176.3 L 369.7,174.2 L 374.6,174.2 L 379.5,174.2 L 384.4,173.9 L 389.3,173.6 L 394.2,173.3 L 399.0,171.9 L 403.9,170.1 L 408.8,169.5 L 413.7,168.3 L 418.6,168.3 L 423.4,167.4 L 428.3,165.7 L 433.2,164.8 L 438.1,164.5 L 443.0,162.4 L 447.8,162.1 L 452.7,162.1 L 457.6,161.8 L 462.5,161.8 L 467.4,160.3 L 472.3,159.8 L 477.1,158.9 L 482.0,158.6 L 486.9,158.0 L 491.8,155.6 L 496.7,152.4 L 501.5,152.1 L 506.4,151.5 L 511.3,151.2 L 516.2,149.7 L 521.1,118.5 L 525.9,117.9 L 530.8,116.4 L 535.7,116.4 L 540.6,116.4 L 545.5,116.7 L 550.3,116.4 L 555.2,114.6 L 560.1,114.0 L 565.0,113.7 L 569.9,113.4 L 574.8,112.3 L 579.6,110.5 L 584.5,110.5 L 589.4,110.5 L 594.3,110.2 L 599.2,109.9 L 604.0,109.9 L 608.9,109.3 L 613.8,108.4 L 618.7,106.9 L 623.6,106.4 L 628.4,106.1 L 633.3,106.1 L 638.2,105.8 L 643.1,105.2 L 648.0,104.9 L 652.9,103.4 L 657.7,103.4 L 662.6,102.8 L 667.5,101.6 L 672.4,100.2 L 677.3,99.9 L 682.1,99.6 L 687.0,96.9 L 691.9,96.3 L 696.8,95.7 L 701.7,95.7 L 706.5,94.6 L 711.4,94.0 L 716.3,92.5 L 721.2,91.9 L 726.1,91.0 L 731.0,90.7 L 735.8,89.5 L 740.7,88.7 L 745.6,88.4 L 750.5,87.8 L 755.4,86.6 L 760.2,86.0 L 765.1,85.1 L 770.0,84.5" fill="none" stroke="#4F8EF7" stroke-width="2.5" stroke-linejoin="round" clip-path="url(#ca)"/>
<path d="M 72.0,340 L 72.0,338.2 L 76.9,337.9 L 81.8,337.9 L 86.6,337.6 L 91.5,337.6 L 96.4,337.6 L 101.3,337.6 L 106.2,337.6 L 111.0,337.1 L 115.9,337.1 L 120.8,337.1 L 125.7,337.1 L 130.6,337.1 L 135.5,336.8 L 140.3,336.8 L 145.2,336.8 L 150.1,336.8 L 155.0,336.8 L 159.9,336.5 L 164.7,335.9 L 169.6,335.6 L 174.5,335.6 L 179.4,335.6 L 184.3,335.3 L 189.1,335.3 L 194.0,335.3 L 198.9,335.0 L 203.8,335.0 L 208.7,335.0 L 213.6,334.7 L 218.4,334.7 L 223.3,334.7 L 228.2,334.7 L 233.1,334.4 L 238.0,334.4 L 242.8,334.4 L 247.7,334.4 L 252.6,334.4 L 257.5,334.4 L 262.4,334.4 L 267.2,334.4 L 272.1,334.4 L 277.0,334.4 L 281.9,334.4 L 286.8,334.4 L 291.7,334.4 L 296.5,334.1 L 301.4,334.1 L 306.3,334.1 L 311.2,334.1 L 316.1,334.1 L 320.9,334.1 L 325.8,334.1 L 330.7,334.1 L 335.6,334.1 L 340.5,334.1 L 345.3,334.1 L 350.2,334.1 L 355.1,333.8 L 360.0,333.8 L 364.9,333.8 L 369.7,333.8 L 374.6,333.8 L 379.5,333.8 L 384.4,333.8 L 389.3,333.8 L 394.2,333.8 L 399.0,333.8 L 403.9,333.8 L 408.8,333.8 L 413.7,333.8 L 418.6,333.8 L 423.4,333.8 L 428.3,333.8 L 433.2,333.8 L 438.1,333.8 L 443.0,333.8 L 447.8,333.8 L 452.7,333.8 L 457.6,333.8 L 462.5,333.8 L 467.4,333.8 L 472.3,333.8 L 477.1,333.8 L 482.0,333.8 L 486.9,333.8 L 491.8,333.8 L 496.7,333.8 L 501.5,333.8 L 506.4,333.8 L 511.3,333.8 L 516.2,333.8 L 521.1,333.8 L 525.9,333.8 L 530.8,333.5 L 535.7,333.5 L 540.6,333.5 L 545.5,333.5 L 550.3,333.5 L 555.2,333.2 L 560.1,333.2 L 565.0,333.2 L 569.9,333.2 L 574.8,332.9 L 579.6,332.9 L 584.5,332.6 L 589.4,332.6 L 594.3,332.6 L 599.2,332.6 L 604.0,332.6 L 608.9,332.6 L 613.8,332.6 L 618.7,332.6 L 623.6,332.6 L 628.4,332.6 L 633.3,332.6 L 638.2,332.6 L 643.1,332.6 L 648.0,332.6 L 652.9,332.6 L 657.7,332.6 L 662.6,332.6 L 667.5,332.6 L 672.4,332.6 L 677.3,332.6 L 682.1,332.6 L 687.0,332.6 L 691.9,332.6 L 696.8,332.6 L 701.7,332.6 L 706.5,332.6 L 711.4,332.6 L 716.3,332.6 L 721.2,332.6 L 726.1,332.6 L 731.0,332.6 L 735.8,332.6 L 740.7,332.6 L 745.6,332.6 L 750.5,332.6 L 755.4,332.6 L 760.2,332.6 L 765.1,332.6 L 770.0,332.6 L 770.0,340 Z" fill="url(#g7)" clip-path="url(#ca)"/>
<path d="M 72.0,338.2 L 76.9,337.9 L 81.8,337.9 L 86.6,337.6 L 91.5,337.6 L 96.4,337.6 L 101.3,337.6 L 106.2,337.6 L 111.0,337.1 L 115.9,337.1 L 120.8,337.1 L 125.7,337.1 L 130.6,337.1 L 135.5,336.8 L 140.3,336.8 L 145.2,336.8 L 150.1,336.8 L 155.0,336.8 L 159.9,336.5 L 164.7,335.9 L 169.6,335.6 L 174.5,335.6 L 179.4,335.6 L 184.3,335.3 L 189.1,335.3 L 194.0,335.3 L 198.9,335.0 L 203.8,335.0 L 208.7,335.0 L 213.6,334.7 L 218.4,334.7 L 223.3,334.7 L 228.2,334.7 L 233.1,334.4 L 238.0,334.4 L 242.8,334.4 L 247.7,334.4 L 252.6,334.4 L 257.5,334.4 L 262.4,334.4 L 267.2,334.4 L 272.1,334.4 L 277.0,334.4 L 281.9,334.4 L 286.8,334.4 L 291.7,334.4 L 296.5,334.1 L 301.4,334.1 L 306.3,334.1 L 311.2,334.1 L 316.1,334.1 L 320.9,334.1 L 325.8,334.1 L 330.7,334.1 L 335.6,334.1 L 340.5,334.1 L 345.3,334.1 L 350.2,334.1 L 355.1,333.8 L 360.0,333.8 L 364.9,333.8 L 369.7,333.8 L 374.6,333.8 L 379.5,333.8 L 384.4,333.8 L 389.3,333.8 L 394.2,333.8 L 399.0,333.8 L 403.9,333.8 L 408.8,333.8 L 413.7,333.8 L 418.6,333.8 L 423.4,333.8 L 428.3,333.8 L 433.2,333.8 L 438.1,333.8 L 443.0,333.8 L 447.8,333.8 L 452.7,333.8 L 457.6,333.8 L 462.5,333.8 L 467.4,333.8 L 472.3,333.8 L 477.1,333.8 L 482.0,333.8 L 486.9,333.8 L 491.8,333.8 L 496.7,333.8 L 501.5,333.8 L 506.4,333.8 L 511.3,333.8 L 516.2,333.8 L 521.1,333.8 L 525.9,333.8 L 530.8,333.5 L 535.7,333.5 L 540.6,333.5 L 545.5,333.5 L 550.3,333.5 L 555.2,333.2 L 560.1,333.2 L 565.0,333.2 L 569.9,333.2 L 574.8,332.9 L 579.6,332.9 L 584.5,332.6 L 589.4,332.6 L 594.3,332.6 L 599.2,332.6 L 604.0,332.6 L 608.9,332.6 L 613.8,332.6 L 618.7,332.6 L 623.6,332.6 L 628.4,332.6 L 633.3,332.6 L 638.2,332.6 L 643.1,332.6 L 648.0,332.6 L 652.9,332.6 L 657.7,332.6 L 662.6,332.6 L 667.5,332.6 L 672.4,332.6 L 677.3,332.6 L 682.1,332.6 L 687.0,332.6 L 691.9,332.6 L 696.8,332.6 L 701.7,332.6 L 706.5,332.6 L 711.4,332.6 L 716.3,332.6 L 721.2,332.6 L 726.1,332.6 L 731.0,332.6 L 735.8,332.6 L 740.7,332.6 L 745.6,332.6 L 750.5,332.6 L 755.4,332.6 L 760.2,332.6 L 765.1,332.6 L 770.0,332.6" fill="none" stroke="#FF6363" stroke-width="2.5" stroke-linejoin="round" clip-path="url(#ca)"/>
<text x="98.8" y="55.0" text-anchor="middle" font-size="9" fill="#34C759" opacity="0.85" clip-path="url(#ca)">+15.2% (+50)</text>
<text x="98.8" y="66.0" text-anchor="middle" font-size="9" fill="#4F8EF7" opacity="0.85" clip-path="url(#ca)">+2.8% (+11)</text>
<text x="98.8" y="77.0" text-anchor="middle" font-size="9" fill="#FF6363" opacity="0.85" clip-path="url(#ca)">+66.7% (+4)</text>
<text x="191.6" y="55.0" text-anchor="middle" font-size="9" fill="#34C759" opacity="0.85" clip-path="url(#ca)">+20.1% (+77)</text>
<text x="191.6" y="66.0" text-anchor="middle" font-size="9" fill="#4F8EF7" opacity="0.85" clip-path="url(#ca)">+16.8% (+69)</text>
<text x="191.6" y="77.0" text-anchor="middle" font-size="9" fill="#FF6363" opacity="0.85" clip-path="url(#ca)">+90.0% (+9)</text>
<text x="320.9" y="55.0" text-anchor="middle" font-size="9" fill="#34C759" opacity="0.85" clip-path="url(#ca)">+16.1% (+74)</text>
<text x="320.9" y="66.0" text-anchor="middle" font-size="9" fill="#4F8EF7" opacity="0.85" clip-path="url(#ca)">+17.3% (+83)</text>
<text x="320.9" y="77.0" text-anchor="middle" font-size="9" fill="#FF6363" opacity="0.85" clip-path="url(#ca)">+10.5% (+2)</text>
<text x="452.7" y="55.0" text-anchor="middle" font-size="9" fill="#34C759" opacity="0.85" clip-path="url(#ca)">+10.5% (+56)</text>
<text x="452.7" y="66.0" text-anchor="middle" font-size="9" fill="#4F8EF7" opacity="0.85" clip-path="url(#ca)">+14.4% (+81)</text>
<text x="452.7" y="77.0" text-anchor="middle" font-size="9" fill="#FF6363" opacity="0.85" clip-path="url(#ca)">+0.0% (+0)</text>
<text x="584.5" y="55.0" text-anchor="middle" font-size="9" fill="#34C759" opacity="0.85" clip-path="url(#ca)">+6.2% (+37)</text>
<text x="584.5" y="66.0" text-anchor="middle" font-size="9" fill="#4F8EF7" opacity="0.85" clip-path="url(#ca)">+6.1% (+46)</text>
<text x="584.5" y="77.0" text-anchor="middle" font-size="9" fill="#FF6363" opacity="0.85" clip-path="url(#ca)">+19.0% (+4)</text>
<text x="711.4" y="55.0" text-anchor="middle" font-size="9" fill="#34C759" opacity="0.85" clip-path="url(#ca)">+8.1% (+51)</text>
<text x="711.4" y="66.0" text-anchor="middle" font-size="9" fill="#4F8EF7" opacity="0.85" clip-path="url(#ca)">+8.0% (+64)</text>
<text x="711.4" y="77.0" text-anchor="middle" font-size="9" fill="#FF6363" opacity="0.85" clip-path="url(#ca)">+0.0% (+0)</text>
<rect x="211" y="369" width="12" height="12" fill="#34C759" rx="2"/>
<text x="227" y="379" font-size="12" fill="#111827">macOS + Windows</text>
<rect x="351" y="369" width="12" height="12" fill="#4F8EF7" rx="2"/>
<text x="367" y="379" font-size="12" fill="#111827">macOS only</text>
<rect x="491" y="369" width="12" height="12" fill="#FF6363" rx="2"/>
<text x="507" y="379" font-size="12" fill="#111827">Windows only</text>
<text x="72" y="394" font-size="8" fill="#e5e7eb">data since Dec 11, 2025</text>
</svg>