<svg xmlns="http://www.w3.org/2000/svg" width="800" height="400" viewBox="0 0 800 400">
<defs>
  <style>text { font-family: -apple-system, BlinkMacSystemFont, 'Segoe UI', Roboto, sans-serif; }</style>
  <linearGradient id="g5" x1="0" y1="0" x2="0" y2="1">
  <stop offset="0%" stop-color="#34C759" stop-opacity="0.25"/>
  <stop offset="100%" stop-color="#34C759" stop-opacity="0"/>
</linearGradient>
<linearGradient id="g6" x1="0" y1="0" x2="0" y2="1">
  <stop offset="0%" stop-color="#4F8EF7" stop-opacity="0.25"/>
  <stop offset="100%" stop-color="#4F8EF7" stop-opacity="0"/>
</linearGradient>
<linearGradient id="g7" x1="0" y1="0" x2="0" y2="1">
  <stop offset="0%" stop-color="#FF6363" stop-opacity="0.25"/>
  <stop offset="100%" stop-color="#FF6363" stop-opacity="0"/>
</linearGradient>
  <clipPath id="ca"><rect x="72" y="45" width="698" height="295"/></clipPath>
</defs>
<rect width="800" height="400" fill="#ffffff" rx="12"/>
<text x="400" y="26" text-anchor="middle" font-size="15" font-weight="600" fill="#111827">Platform Support Over Time</text>
<line x1="72" y1="340.0" x2="770" y2="340.0" stroke="#f3f4f6" stroke-width="1"/>
<text x="66" y="344.0" text-anchor="end" font-size="11" fill="#6b7280">0</text>
<line x1="72" y1="281.0" x2="770" y2="281.0" stroke="#f3f4f6" stroke-width="1"/>
<text x="66" y="285.0" text-anchor="end" font-size="11" fill="#6b7280">200</text>
<line x1="72" y1="222.0" x2="770" y2="222.0" stroke="#f3f4f6" stroke-width="1"/>
<text x="66" y="226.0" text-anchor="end" font-size="11" fill="#6b7280">400</text>
<line x1="72" y1="163.0" x2="770" y2="163.0" stroke="#f3f4f6" stroke-width="1"/>
<text x="66" y="167.0" text-anchor="end" font-size="11" fill="#6b7280">600</text>
<line x1="72" y1="104.0" x2="770" y2="104.0" stroke="#f3f4f6" stroke-width="1"/>
<text x="66" y="108.0" text-anchor="end" font-size="11" fill="#6b7280">800</text>
<line x1="72" y1="45.0" x2="770" y2="45.0" stroke="#f3f4f6" stroke-width="1"/>
<text x="66" y="49.0" text-anchor="end" font-size="11" fill="#6b7280">1.0k</text>
<line x1="141.8" y1="45" x2="141.8" y2="340" stroke="#e5e7eb" stroke-width="1" stroke-dasharray="3,3" clip-path="url(#ca)"/>
<line x1="293.0" y1="45" x2="293.0" y2="340" stroke="#e5e7eb" stroke-width="1" stroke-dasharray="3,3" clip-path="url(#ca)"/>
<line x1="450.1" y1="45" x2="450.1" y2="340" stroke="#e5e7eb" stroke-width="1" stroke-dasharray="3,3" clip-path="url(#ca)"/>
<line x1="607.1" y1="45" x2="607.1" y2="340" stroke="#e5e7eb" stroke-width="1" stroke-dasharray="3,3" clip-path="url(#ca)"/>
<line x1="764.2" y1="45" x2="764.2" y2="340" stroke="#e5e7eb" stroke-width="1" stroke-dasharray="3,3" clip-path="url(#ca)"/>
<text x="72.0" y="358.0" text-anchor="middle" font-size="11" fill="#6b7280">Dec 11</text>
<text x="211.6" y="358.0" text-anchor="middle" font-size="11" fill="#6b7280">Jan 17</text>
<text x="351.2" y="358.0" text-anchor="middle" font-size="11" fill="#6b7280">Feb 11</text>
<text x="490.8" y="358.0" text-anchor="middle" font-size="11" fill="#6b7280">Mar 9</text>
<text x="630.4" y="358.0" text-anchor="middle" font-size="11" fill="#6b7280">Apr 5</text>
<text x="770.0" y="358.0" text-anchor="middle" font-size="11" fill="#6b7280">May 2</text>
<line x1="72" y1="45" x2="72" y2="340" stroke="#e5e7eb" stroke-width="1"/>
<line x1="72" y1="340" x2="770" y2="340" stroke="#e5e7eb" stroke-width="1"/>
<text x="-192.5" y="18" text-anchor="middle" font-size="12" fill="#6b7280" transform="rotate(-90)">Extensions</text>
<path d="M 72.0,340 L 72.0,242.6 L 77.8,240.0 L 83.6,239.7 L 89.5,238.5 L 95.3,237.9 L 101.1,235.0 L 106.9,233.2 L 112.7,232.3 L 118.5,230.8 L 124.3,229.1 L 130.2,228.2 L 136.0,227.9 L 141.8,227.0 L 147.6,226.4 L 153.4,226.1 L 159.3,225.2 L 165.1,224.4 L 170.9,223.5 L 176.7,222.6 L 182.5,221.4 L 188.3,220.5 L 194.1,219.6 L 200.0,218.8 L 205.8,217.0 L 211.6,216.4 L 217.4,216.4 L 223.2,214.3 L 229.1,213.7 L 234.9,213.2 L 240.7,212.6 L 246.5,211.1 L 252.3,209.0 L 258.1,208.7 L 264.0,208.4 L 269.8,206.7 L 275.6,206.1 L 281.4,204.6 L 287.2,204.3 L 293.0,204.0 L 298.9,203.4 L 304.7,203.4 L 310.5,203.4 L 316.3,199.3 L 322.1,199.0 L 327.9,198.1 L 333.8,197.8 L 339.6,197.5 L 345.4,196.6 L 351.2,196.0 L 357.0,195.4 L 362.8,193.7 L 368.6,193.7 L 374.5,193.7 L 380.3,193.4 L 386.1,190.4 L 391.9,189.6 L 397.7,189.0 L 403.6,188.1 L 409.4,187.5 L 415.2,187.5 L 421.0,186.0 L 426.8,183.9 L 432.6,183.4 L 438.4,183.1 L 444.3,182.2 L 450.1,182.2 L 455.9,181.6 L 461.7,180.7 L 467.5,180.1 L 473.3,178.9 L 479.2,177.8 L 485.0,177.5 L 490.8,177.5 L 496.6,176.3 L 502.4,176.3 L 508.3,176.3 L 514.1,174.5 L 519.9,174.2 L 525.7,173.9 L 531.5,173.9 L 537.3,173.6 L 543.2,172.4 L 549.0,171.9 L 554.8,171.0 L 560.6,171.0 L 566.4,170.7 L 572.2,169.5 L 578.0,168.6 L 583.9,168.6 L 589.7,168.3 L 595.5,167.7 L 601.3,165.7 L 607.1,165.1 L 613.0,164.2 L 618.8,164.2 L 624.6,163.6 L 630.4,163.3 L 636.2,163.0 L 642.0,162.7 L 647.9,162.4 L 653.7,162.4 L 659.5,162.1 L 665.3,161.8 L 671.1,160.9 L 676.9,159.8 L 682.8,159.5 L 688.6,158.6 L 694.4,158.6 L 700.2,157.4 L 706.0,157.1 L 711.8,157.1 L 717.6,157.1 L 723.5,156.2 L 729.3,155.9 L 735.1,155.9 L 740.9,155.9 L 746.7,155.6 L 752.5,154.4 L 758.4,154.2 L 764.2,153.3 L 770.0,152.7 L 770.0,340 Z" fill="url(#g5)" clip-path="url(#ca)"/>
<path d="M 72.0,242.6 L 77.8,240.0 L 83.6,239.7 L 89.5,238.5 L 95.3,237.9 L 101.1,235.0 L 106.9,233.2 L 112.7,232.3 L 118.5,230.8 L 124.3,229.1 L 130.2,228.2 L 136.0,227.9 L 141.8,227.0 L 147.6,226.4 L 153.4,226.1 L 159.3,225.2 L 165.1,224.4 L 170.9,223.5 L 176.7,222.6 L 182.5,221.4 L 188.3,220.5 L 194.1,219.6 L 200.0,218.8 L 205.8,217.0 L 211.6,216.4 L 217.4,216.4 L 223.2,214.3 L 229.1,213.7 L 234.9,213.2 L 240.7,212.6 L 246.5,211.1 L 252.3,209.0 L 258.1,208.7 L 264.0,208.4 L 269.8,206.7 L 275.6,206.1 L 281.4,204.6 L 287.2,204.3 L 293.0,204.0 L 298.9,203.4 L 304.7,203.4 L 310.5,203.4 L 316.3,199.3 L 322.1,199.0 L 327.9,198.1 L 333.8,197.8 L 339.6,197.5 L 345.4,196.6 L 351.2,196.0 L 357.0,195.4 L 362.8,193.7 L 368.6,193.7 L 374.5,193.7 L 380.3,193.4 L 386.1,190.4 L 391.9,189.6 L 397.7,189.0 L 403.6,188.1 L 409.4,187.5 L 415.2,187.5 L 421.0,186.0 L 426.8,183.9 L 432.6,183.4 L 438.4,183.1 L 444.3,182.2 L 450.1,182.2 L 455.9,181.6 L 461.7,180.7 L 467.5,180.1 L 473.3,178.9 L 479.2,177.8 L 485.0,177.5 L 490.8,177.5 L 496.6,176.3 L 502.4,176.3 L 508.3,176.3 L 514.1,174.5 L 519.9,174.2 L 525.7,173.9 L 531.5,173.9 L 537.3,173.6 L 543.2,172.4 L 549.0,171.9 L 554.8,171.0 L 560.6,171.0 L 566.4,170.7 L 572.2,169.5 L 578.0,168.6 L 583.9,168.6 L 589.7,168.3 L 595.5,167.7 L 601.3,165.7 L 607.1,165.1 L 613.0,164.2 L 618.8,164.2 L 624.6,163.6 L 630.4,163.3 L 636.2,163.0 L 642.0,162.7 L 647.9,162.4 L 653.7,162.4 L 659.5,162.1 L 665.3,161.8 L 671.1,160.9 L 676.9,159.8 L 682.8,159.5 L 688.6,158.6 L 694.4,158.6 L 700.2,157.4 L 706.0,157.1 L 711.8,157.1 L 717.6,157.1 L 723.5,156.2 L 729.3,155.9 L 735.1,155.9 L 740.9,155.9 L 746.7,155.6 L 752.5,154.4 L 758.4,154.2 L 764.2,153.3 L 770.0,152.7" fill="none" stroke="#34C759" stroke-width="2.5" stroke-linejoin="round" clip-path="url(#ca)"/>
<path d="M 72.0,340 L 72.0,222.6 L 77.8,222.6 L 83.6,222.3 L 89.5,221.4 L 95.3,221.7 L 101.1,221.7 L 106.9,220.5 L 112.7,219.6 L 118.5,219.6 L 124.3,219.9 L 130.2,219.6 L 136.0,219.3 L 141.8,219.1 L 147.6,219.1 L 153.4,219.1 L 159.3,219.3 L 165.1,218.8 L 170.9,218.2 L 176.7,216.4 L 182.5,215.2 L 188.3,215.2 L 194.1,214.9 L 200.0,213.2 L 205.8,210.5 L 211.6,209.6 L 217.4,209.0 L 223.2,207.0 L 229.1,205.5 L 234.9,204.9 L 240.7,204.3 L 246.5,203.7 L 252.3,203.4 L 258.1,203.4 L 264.0,201.3 L 269.8,200.8 L 275.6,200.2 L 281.4,200.2 L 287.2,198.7 L 293.0,198.4 L 298.9,197.5 L 304.7,196.3 L 310.5,194.9 L 316.3,192.8 L 322.1,190.7 L 327.9,190.4 L 333.8,189.8 L 339.6,189.3 L 345.4,187.5 L 351.2,187.5 L 357.0,186.9 L 362.8,186.0 L 368.6,185.4 L 374.5,184.2 L 380.3,184.5 L 386.1,181.0 L 391.9,180.7 L 397.7,180.4 L 403.6,179.8 L 409.4,178.0 L 415.2,178.0 L 421.0,176.3 L 426.8,174.2 L 432.6,174.2 L 438.4,174.2 L 444.3,173.9 L 450.1,173.6 L 455.9,173.3 L 461.7,171.9 L 467.5,170.1 L 473.3,169.5 L 479.2,168.3 L 485.0,168.3 L 490.8,167.4 L 496.6,165.7 L 502.4,164.8 L 508.3,164.5 L 514.1,162.4 L 519.9,162.1 L 525.7,162.1 L 531.5,161.8 L 537.3,161.8 L 543.2,160.3 L 549.0,159.8 L 554.8,158.9 L 560.6,158.6 L 566.4,158.0 L 572.2,155.6 L 578.0,152.4 L 583.9,152.1 L 589.7,151.5 L 595.5,151.2 L 601.3,149.7 L 607.1,118.5 L 613.0,117.9 L 618.8,116.4 L 624.6,116.4 L 630.4,116.4 L 636.2,116.7 L 642.0,116.4 L 647.9,114.6 L 653.7,114.0 L 659.5,113.7 L 665.3,113.4 L 671.1,112.3 L 676.9,110.5 L 682.8,110.5 L 688.6,110.5 L 694.4,110.2 L 700.2,109.9 L 706.0,109.9 L 711.8,109.3 L 717.6,108.4 L 723.5,106.9 L 729.3,106.4 L 735.1,106.1 L 740.9,106.1 L 746.7,105.8 L 752.5,105.2 L 758.4,104.9 L 764.2,103.4 L 770.0,103.4 L 770.0,340 Z" fill="url(#g6)" clip-path="url(#ca)"/>
<path d="M 72.0,222.6 L 77.8,222.6 L 83.6,222.3 L 89.5,221.4 L 95.3,221.7 L 101.1,221.7 L 106.9,220.5 L 112.7,219.6 L 118.5,219.6 L 124.3,219.9 L 130.2,219.6 L 136.0,219.3 L 141.8,219.1 L 147.6,219.1 L 153.4,219.1 L 159.3,219.3 L 165.1,218.8 L 170.9,218.2 L 176.7,216.4 L 182.5,215.2 L 188.3,215.2 L 194.1,214.9 L 200.0,213.2 L 205.8,210.5 L 211.6,209.6 L 217.4,209.0 L 223.2,207.0 L 229.1,205.5 L 234.9,204.9 L 240.7,204.3 L 246.5,203.7 L 252.3,203.4 L 258.1,203.4 L 264.0,201.3 L 269.8,200.8 L 275.6,200.2 L 281.4,200.2 L 287.2,198.7 L 293.0,198.4 L 298.9,197.5 L 304.7,196.3 L 310.5,194.9 L 316.3,192.8 L 322.1,190.7 L 327.9,190.4 L 333.8,189.8 L 339.6,189.3 L 345.4,187.5 L 351.2,187.5 L 357.0,186.9 L 362.8,186.0 L 368.6,185.4 L 374.5,184.2 L 380.3,184.5 L 386.1,181.0 L 391.9,180.7 L 397.7,180.4 L 403.6,179.8 L 409.4,178.0 L 415.2,178.0 L 421.0,176.3 L 426.8,174.2 L 432.6,174.2 L 438.4,174.2 L 444.3,173.9 L 450.1,173.6 L 455.9,173.3 L 461.7,171.9 L 467.5,170.1 L 473.3,169.5 L 479.2,168.3 L 485.0,168.3 L 490.8,167.4 L 496.6,165.7 L 502.4,164.8 L 508.3,164.5 L 514.1,162.4 L 519.9,162.1 L 525.7,162.1 L 531.5,161.8 L 537.3,161.8 L 543.2,160.3 L 549.0,159.8 L 554.8,158.9 L 560.6,158.6 L 566.4,158.0 L 572.2,155.6 L 578.0,152.4 L 583.9,152.1 L 589.7,151.5 L 595.5,151.2 L 601.3,149.7 L 607.1,118.5 L 613.0,117.9 L 618.8,116.4 L 624.6,116.4 L 630.4,116.4 L 636.2,116.7 L 642.0,116.4 L 647.9,114.6 L 653.7,114.0 L 659.5,113.7 L 665.3,113.4 L 671.1,112.3 L 676.9,110.5 L 682.8,110.5 L 688.6,110.5 L 694.4,110.2 L 700.2,109.9 L 706.0,109.9 L 711.8,109.3 L 717.6,108.4 L 723.5,106.9 L 729.3,106.4 L 735.1,106.1 L 740.9,106.1 L 746.7,105.8 L 752.5,105.2 L 758.4,104.9 L 764.2,103.4 L 770.0,103.4" fill="none" stroke="#4F8EF7" stroke-width="2.5" stroke-linejoin="round" clip-path="url(#ca)"/>
<path d="M 72.0,340 L 72.0,338.2 L 77.8,337.9 L 83.6,337.9 L 89.5,337.6 L 95.3,337.6 L 101.1,337.6 L 106.9,337.6 L 112.7,337.6 L 118.5,337.1 L 124.3,337.1 L 130.2,337.1 L 136.0,337.1 L 141.8,337.1 L 147.6,336.8 L 153.4,336.8 L 159.3,336.8 L 165.1,336.8 L 170.9,336.8 L 176.7,336.5 L 182.5,335.9 L 188.3,335.6 L 194.1,335.6 L 200.0,335.6 L 205.8,335.3 L 211.6,335.3 L 217.4,335.3 L 223.2,335.0 L 229.1,335.0 L 234.9,335.0 L 240.7,334.7 L 246.5,334.7 L 252.3,334.7 L 258.1,334.7 L 264.0,334.4 L 269.8,334.4 L 275.6,334.4 L 281.4,334.4 L 287.2,334.4 L 293.0,334.4 L 298.9,334.4 L 304.7,334.4 L 310.5,334.4 L 316.3,334.4 L 322.1,334.4 L 327.9,334.4 L 333.8,334.4 L 339.6,334.1 L 345.4,334.1 L 351.2,334.1 L 357.0,334.1 L 362.8,334.1 L 368.6,334.1 L 374.5,334.1 L 380.3,334.1 L 386.1,334.1 L 391.9,334.1 L 397.7,334.1 L 403.6,334.1 L 409.4,333.8 L 415.2,333.8 L 421.0,333.8 L 426.8,333.8 L 432.6,333.8 L 438.4,333.8 L 444.3,333.8 L 450.1,333.8 L 455.9,333.8 L 461.7,333.8 L 467.5,333.8 L 473.3,333.8 L 479.2,333.8 L 485.0,333.8 L 490.8,333.8 L 496.6,333.8 L 502.4,333.8 L 508.3,333.8 L 514.1,333.8 L 519.9,333.8 L 525.7,333.8 L 531.5,333.8 L 537.3,333.8 L 543.2,333.8 L 549.0,333.8 L 554.8,333.8 L 560.6,333.8 L 566.4,333.8 L 572.2,333.8 L 578.0,333.8 L 583.9,333.8 L 589.7,333.8 L 595.5,333.8 L 601.3,333.8 L 607.1,333.8 L 613.0,333.8 L 618.8,333.5 L 624.6,333.5 L 630.4,333.5 L 636.2,333.5 L 642.0,333.5 L 647.9,333.2 L 653.7,333.2 L 659.5,333.2 L 665.3,333.2 L 671.1,332.9 L 676.9,332.9 L 682.8,332.6 L 688.6,332.6 L 694.4,332.6 L 700.2,332.6 L 706.0,332.6 L 711.8,332.6 L 717.6,332.6 L 723.5,332.6 L 729.3,332.6 L 735.1,332.6 L 740.9,332.6 L 746.7,332.6 L 752.5,332.6 L 758.4,332.6 L 764.2,332.6 L 770.0,332.6 L 770.0,340 Z" fill="url(#g7)" clip-path="url(#ca)"/>
<path d="M 72.0,338.2 L 77.8,337.9 L 83.6,337.9 L 89.5,337.6 L 95.3,337.6 L 101.1,337.6 L 106.9,337.6 L 112.7,337.6 L 118.5,337.1 L 124.3,337.1 L 130.2,337.1 L 136.0,337.1 L 141.8,337.1 L 147.6,336.8 L 153.4,336.8 L 159.3,336.8 L 165.1,336.8 L 170.9,336.8 L 176.7,336.5 L 182.5,335.9 L 188.3,335.6 L 194.1,335.6 L 200.0,335.6 L 205.8,335.3 L 211.6,335.3 L 217.4,335.3 L 223.2,335.0 L 229.1,335.0 L 234.9,335.0 L 240.7,334.7 L 246.5,334.7 L 252.3,334.7 L 258.1,334.7 L 264.0,334.4 L 269.8,334.4 L 275.6,334.4 L 281.4,334.4 L 287.2,334.4 L 293.0,334.4 L 298.9,334.4 L 304.7,334.4 L 310.5,334.4 L 316.3,334.4 L 322.1,334.4 L 327.9,334.4 L 333.8,334.4 L 339.6,334.1 L 345.4,334.1 L 351.2,334.1 L 357.0,334.1 L 362.8,334.1 L 368.6,334.1 L 374.5,334.1 L 380.3,334.1 L 386.1,334.1 L 391.9,334.1 L 397.7,334.1 L 403.6,334.1 L 409.4,333.8 L 415.2,333.8 L 421.0,333.8 L 426.8,333.8 L 432.6,333.8 L 438.4,333.8 L 444.3,333.8 L 450.1,333.8 L 455.9,333.8 L 461.7,333.8 L 467.5,333.8 L 473.3,333.8 L 479.2,333.8 L 485.0,333.8 L 490.8,333.8 L 496.6,333.8 L 502.4,333.8 L 508.3,333.8 L 514.1,333.8 L 519.9,333.8 L 525.7,333.8 L 531.5,333.8 L 537.3,333.8 L 543.2,333.8 L 549.0,333.8 L 554.8,333.8 L 560.6,333.8 L 566.4,333.8 L 572.2,333.8 L 578.0,333.8 L 583.9,333.8 L 589.7,333.8 L 595.5,333.8 L 601.3,333.8 L 607.1,333.8 L 613.0,333.8 L 618.8,333.5 L 624.6,333.5 L 630.4,333.5 L 636.2,333.5 L 642.0,333.5 L 647.9,333.2 L 653.7,333.2 L 659.5,333.2 L 665.3,333.2 L 671.1,332.9 L 676.9,332.9 L 682.8,332.6 L 688.6,332.6 L 694.4,332.6 L 700.2,332.6 L 706.0,332.6 L 711.8,332.6 L 717.6,332.6 L 723.5,332.6 L 729.3,332.6 L 735.1,332.6 L 740.9,332.6 L 746.7,332.6 L 752.5,332.6 L 758.4,332.6 L 764.2,332.6 L 770.0,332.6" fill="none" stroke="#FF6363" stroke-width="2.5" stroke-linejoin="round" clip-path="url(#ca)"/>
<text x="104.0" y="55.0" text-anchor="middle" font-size="9" fill="#34C759" opacity="0.85" clip-path="url(#ca)">+15.2% (+50)</text>
<text x="104.0" y="66.0" text-anchor="middle" font-size="9" fill="#4F8EF7" opacity="0.85" clip-path="url(#ca)">+2.8% (+11)</text>
<text x="104.0" y="77.0" text-anchor="middle" font-size="9" fill="#FF6363" opacity="0.85" clip-path="url(#ca)">+66.7% (+4)</text>
<text x="214.5" y="55.0" text-anchor="middle" font-size="9" fill="#34C759" opacity="0.85" clip-path="url(#ca)">+20.1% (+77)</text>
<text x="214.5" y="66.0" text-anchor="middle" font-size="9" fill="#4F8EF7" opacity="0.85" clip-path="url(#ca)">+16.8% (+69)</text>
<text x="214.5" y="77.0" text-anchor="middle" font-size="9" fill="#FF6363" opacity="0.85" clip-path="url(#ca)">+90.0% (+9)</text>
<text x="368.6" y="55.0" text-anchor="middle" font-size="9" fill="#34C759" opacity="0.85" clip-path="url(#ca)">+16.1% (+74)</text>
<text x="368.6" y="66.0" text-anchor="middle" font-size="9" fill="#4F8EF7" opacity="0.85" clip-path="url(#ca)">+17.3% (+83)</text>
<text x="368.6" y="77.0" text-anchor="middle" font-size="9" fill="#FF6363" opacity="0.85" clip-path="url(#ca)">+10.5% (+2)</text>
<text x="525.7" y="55.0" text-anchor="middle" font-size="9" fill="#34C759" opacity="0.85" clip-path="url(#ca)">+10.5% (+56)</text>
<text x="525.7" y="66.0" text-anchor="middle" font-size="9" fill="#4F8EF7" opacity="0.85" clip-path="url(#ca)">+14.4% (+81)</text>
<text x="525.7" y="77.0" text-anchor="middle" font-size="9" fill="#FF6363" opacity="0.85" clip-path="url(#ca)">+0.0% (+0)</text>
<text x="682.8" y="55.0" text-anchor="middle" font-size="9" fill="#34C759" opacity="0.85" clip-path="url(#ca)">+6.2% (+37)</text>
<text x="682.8" y="66.0" text-anchor="middle" font-size="9" fill="#4F8EF7" opacity="0.85" clip-path="url(#ca)">+6.1% (+46)</text>
<text x="682.8" y="77.0" text-anchor="middle" font-size="9" fill="#FF6363" opacity="0.85" clip-path="url(#ca)">+19.0% (+4)</text>
<text x="767.1" y="55.0" text-anchor="middle" font-size="9" fill="#34C759" opacity="0.85" clip-path="url(#ca)">+0.3% (+2)</text>
<text x="767.1" y="66.0" text-anchor="middle" font-size="9" fill="#4F8EF7" opacity="0.85" clip-path="url(#ca)">+0.0% (+0)</text>
<text x="767.1" y="77.0" text-anchor="middle" font-size="9" fill="#FF6363" opacity="0.85" clip-path="url(#ca)">+0.0% (+0)</text>
<rect x="211" y="369" width="12" height="12" fill="#34C759" rx="2"/>
<text x="227" y="379" font-size="12" fill="#111827">macOS + Windows</text>
<rect x="351" y="369" width="12" height="12" fill="#4F8EF7" rx="2"/>
<text x="367" y="379" font-size="12" fill="#111827">macOS only</text>
<rect x="491" y="369" width="12" height="12" fill="#FF6363" rx="2"/>
<text x="507" y="379" font-size="12" fill="#111827">Windows only</text>
<text x="72" y="394" font-size="8" fill="#e5e7eb">data since Dec 11, 2025</text>
</svg>