<svg xmlns="http://www.w3.org/2000/svg" width="800" height="400" viewBox="0 0 800 400">
<defs><style>text { font-family: -apple-system, BlinkMacSystemFont, 'Segoe UI', Roboto, sans-serif; }</style></defs>
<rect width="800" height="400" fill="#ffffff" rx="12"/>
<text x="400" y="26" text-anchor="middle" font-size="15" font-weight="600" fill="#111827">Platform Distribution (Current)</text>
<path d="M 220.00 60.00 A 140 140 0 0 1 360.00 199.72 L 306.00 199.83 A 86 86 0 0 0 220.00 114.00 Z" fill="#34C759"/>
<path d="M 360.00 199.72 A 140 140 0 0 1 166.49 329.37 L 187.13 279.47 A 86 86 0 0 0 306.00 199.83 Z" fill="#4F8EF7"/>
<path d="M 166.49 329.37 A 140 140 0 0 1 159.22 326.12 L 182.66 277.47 A 86 86 0 0 0 187.13 279.47 Z" fill="#FF6363"/>
<path d="M 159.22 326.12 A 140 140 0 0 1 220.00 60.00 L 220.00 114.00 A 86 86 0 0 0 182.66 277.47 Z" fill="#e5e7eb"/>
<text x="220" y="190" text-anchor="middle" font-size="28" font-weight="700" fill="#111827">3,092</text>
<text x="220" y="214" text-anchor="middle" font-size="12" fill="#6b7280">extensions</text>
<rect x="430" y="106" width="14" height="14" fill="#34C759" rx="3"/>
<text x="450" y="117" font-size="13" font-weight="500" fill="#111827">macOS + Windows</text>
<text x="450" y="133" font-size="11" fill="#6b7280">772 (25.0%)</text>
<rect x="430" y="158" width="14" height="14" fill="#4F8EF7" rx="3"/>
<text x="450" y="169" font-size="13" font-weight="500" fill="#111827">macOS only</text>
<text x="450" y="185" font-size="11" fill="#6b7280">967 (31.3%)</text>
<rect x="430" y="210" width="14" height="14" fill="#FF6363" rx="3"/>
<text x="450" y="221" font-size="13" font-weight="500" fill="#111827">Windows only</text>
<text x="450" y="237" font-size="11" fill="#6b7280">28 (0.9%)</text>
<rect x="430" y="262" width="14" height="14" fill="#e5e7eb" rx="3"/>
<text x="450" y="273" font-size="13" font-weight="500" fill="#111827">No platform set</text>
<text x="450" y="289" font-size="11" fill="#6b7280">1,325 (42.9%)</text>
</svg>