<svg xmlns="http://www.w3.org/2000/svg" width="800" height="400" viewBox="0 0 800 400">
<defs>
  <style>text { font-family: -apple-system, BlinkMacSystemFont, 'Segoe UI', Roboto, sans-serif; }</style>
  <linearGradient id="g2" x1="0" y1="0" x2="0" y2="1">
  <stop offset="0%" stop-color="#4F8EF7" stop-opacity="0.25"/>
  <stop offset="100%" stop-color="#4F8EF7" stop-opacity="0"/>
</linearGradient>
<linearGradient id="g3" x1="0" y1="0" x2="0" y2="1">
  <stop offset="0%" stop-color="#BF5AF2" stop-opacity="0.25"/>
  <stop offset="100%" stop-color="#BF5AF2" stop-opacity="0"/>
</linearGradient>
<linearGradient id="g4" x1="0" y1="0" x2="0" y2="1">
  <stop offset="0%" stop-color="#34C759" stop-opacity="0.25"/>
  <stop offset="100%" stop-color="#34C759" stop-opacity="0"/>
</linearGradient>
  <clipPath id="ca"><rect x="72" y="45" width="698" height="295"/></clipPath>
</defs>
<rect width="800" height="400" fill="#ffffff" rx="12"/>
<text x="400" y="26" text-anchor="middle" font-size="15" font-weight="600" fill="#111827">Community Growth Over Time</text>
<line x1="72" y1="340.0" x2="770" y2="340.0" stroke="#f3f4f6" stroke-width="1"/>
<text x="66" y="344.0" text-anchor="end" font-size="11" fill="#6b7280">500</text>
<line x1="72" y1="241.7" x2="770" y2="241.7" stroke="#f3f4f6" stroke-width="1"/>
<text x="66" y="245.7" text-anchor="end" font-size="11" fill="#6b7280">1.0k</text>
<line x1="72" y1="143.3" x2="770" y2="143.3" stroke="#f3f4f6" stroke-width="1"/>
<text x="66" y="147.3" text-anchor="end" font-size="11" fill="#6b7280">1.5k</text>
<line x1="72" y1="45.0" x2="770" y2="45.0" stroke="#f3f4f6" stroke-width="1"/>
<text x="66" y="49.0" text-anchor="end" font-size="11" fill="#6b7280">2.0k</text>
<line x1="133.1" y1="45" x2="133.1" y2="340" stroke="#e5e7eb" stroke-width="1" stroke-dasharray="3,3" clip-path="url(#ca)"/>
<line x1="265.6" y1="45" x2="265.6" y2="340" stroke="#e5e7eb" stroke-width="1" stroke-dasharray="3,3" clip-path="url(#ca)"/>
<line x1="403.2" y1="45" x2="403.2" y2="340" stroke="#e5e7eb" stroke-width="1" stroke-dasharray="3,3" clip-path="url(#ca)"/>
<line x1="540.7" y1="45" x2="540.7" y2="340" stroke="#e5e7eb" stroke-width="1" stroke-dasharray="3,3" clip-path="url(#ca)"/>
<line x1="678.3" y1="45" x2="678.3" y2="340" stroke="#e5e7eb" stroke-width="1" stroke-dasharray="3,3" clip-path="url(#ca)"/>
<text x="72.0" y="358.0" text-anchor="middle" font-size="11" fill="#6b7280">Dec 11</text>
<text x="209.6" y="358.0" text-anchor="middle" font-size="11" fill="#6b7280">Jan 21</text>
<text x="352.2" y="358.0" text-anchor="middle" font-size="11" fill="#6b7280">Feb 18</text>
<text x="489.8" y="358.0" text-anchor="middle" font-size="11" fill="#6b7280">Mar 19</text>
<text x="632.4" y="358.0" text-anchor="middle" font-size="11" fill="#6b7280">Apr 21</text>
<text x="770.0" y="358.0" text-anchor="middle" font-size="11" fill="#6b7280">May 24</text>
<line x1="72" y1="45" x2="72" y2="340" stroke="#e5e7eb" stroke-width="1"/>
<line x1="72" y1="340" x2="770" y2="340" stroke="#e5e7eb" stroke-width="1"/>
<text x="-192.5" y="18" text-anchor="middle" font-size="12" fill="#6b7280" transform="rotate(-90)">People</text>
<path d="M 72.0,340 L 72.0,120.1 L 77.1,120.1 L 82.2,120.1 L 87.3,119.5 L 92.4,119.5 L 97.5,119.1 L 102.6,118.9 L 107.7,119.1 L 112.8,118.6 L 117.9,118.6 L 122.9,118.6 L 128.0,118.6 L 133.1,118.6 L 138.2,118.6 L 143.3,118.6 L 148.4,118.6 L 153.5,118.4 L 158.6,117.8 L 163.7,116.6 L 168.8,116.0 L 173.9,115.8 L 179.0,115.8 L 184.1,115.2 L 189.2,113.8 L 194.3,113.0 L 199.4,113.0 L 204.5,112.1 L 209.6,111.7 L 214.7,110.9 L 219.8,110.3 L 224.8,109.7 L 229.9,109.1 L 235.0,109.1 L 240.1,107.7 L 245.2,106.9 L 250.3,106.9 L 255.4,106.2 L 260.5,105.8 L 265.6,105.6 L 270.7,105.4 L 275.8,105.4 L 280.9,104.8 L 286.0,102.4 L 291.1,101.0 L 296.2,100.3 L 301.3,100.1 L 306.4,99.7 L 311.5,98.9 L 316.6,98.5 L 321.6,98.1 L 326.7,97.7 L 331.8,97.3 L 336.9,96.9 L 342.0,96.9 L 347.1,95.0 L 352.2,95.0 L 357.3,94.8 L 362.4,94.6 L 367.5,94.2 L 372.6,94.2 L 377.7,93.2 L 382.8,92.0 L 387.9,91.6 L 393.0,92.0 L 398.1,91.8 L 403.2,91.6 L 408.3,91.6 L 413.4,91.2 L 418.5,90.4 L 423.5,90.0 L 428.6,89.6 L 433.7,89.4 L 438.8,89.4 L 443.9,88.7 L 449.0,88.3 L 454.1,88.3 L 459.2,86.7 L 464.3,86.7 L 469.4,86.7 L 474.5,86.7 L 479.6,86.5 L 484.7,85.9 L 489.8,85.1 L 494.9,84.7 L 500.0,84.7 L 505.1,84.3 L 510.2,82.8 L 515.3,81.8 L 520.4,81.6 L 525.4,81.4 L 530.5,80.8 L 535.6,79.6 L 540.7,79.2 L 545.8,78.8 L 550.9,77.6 L 556.0,77.4 L 561.1,77.4 L 566.2,77.4 L 571.3,77.3 L 576.4,76.1 L 581.5,75.9 L 586.6,75.7 L 591.7,75.7 L 596.8,75.3 L 601.9,73.7 L 607.0,73.5 L 612.1,73.3 L 617.2,73.3 L 622.2,72.5 L 627.3,72.3 L 632.4,72.1 L 637.5,71.6 L 642.6,70.8 L 647.7,70.8 L 652.8,70.8 L 657.9,70.8 L 663.0,70.4 L 668.1,69.8 L 673.2,69.6 L 678.3,69.0 L 683.4,68.8 L 688.5,68.6 L 693.6,67.8 L 698.7,67.2 L 703.8,67.0 L 708.9,67.0 L 714.0,65.3 L 719.1,64.7 L 724.1,64.5 L 729.2,64.5 L 734.3,63.5 L 739.4,63.5 L 744.5,62.9 L 749.6,62.3 L 754.7,60.9 L 759.8,60.7 L 764.9,60.5 L 770.0,60.3 L 770.0,340 Z" fill="url(#g2)" clip-path="url(#ca)"/>
<path d="M 72.0,120.1 L 77.1,120.1 L 82.2,120.1 L 87.3,119.5 L 92.4,119.5 L 97.5,119.1 L 102.6,118.9 L 107.7,119.1 L 112.8,118.6 L 117.9,118.6 L 122.9,118.6 L 128.0,118.6 L 133.1,118.6 L 138.2,118.6 L 143.3,118.6 L 148.4,118.6 L 153.5,118.4 L 158.6,117.8 L 163.7,116.6 L 168.8,116.0 L 173.9,115.8 L 179.0,115.8 L 184.1,115.2 L 189.2,113.8 L 194.3,113.0 L 199.4,113.0 L 204.5,112.1 L 209.6,111.7 L 214.7,110.9 L 219.8,110.3 L 224.8,109.7 L 229.9,109.1 L 235.0,109.1 L 240.1,107.7 L 245.2,106.9 L 250.3,106.9 L 255.4,106.2 L 260.5,105.8 L 265.6,105.6 L 270.7,105.4 L 275.8,105.4 L 280.9,104.8 L 286.0,102.4 L 291.1,101.0 L 296.2,100.3 L 301.3,100.1 L 306.4,99.7 L 311.5,98.9 L 316.6,98.5 L 321.6,98.1 L 326.7,97.7 L 331.8,97.3 L 336.9,96.9 L 342.0,96.9 L 347.1,95.0 L 352.2,95.0 L 357.3,94.8 L 362.4,94.6 L 367.5,94.2 L 372.6,94.2 L 377.7,93.2 L 382.8,92.0 L 387.9,91.6 L 393.0,92.0 L 398.1,91.8 L 403.2,91.6 L 408.3,91.6 L 413.4,91.2 L 418.5,90.4 L 423.5,90.0 L 428.6,89.6 L 433.7,89.4 L 438.8,89.4 L 443.9,88.7 L 449.0,88.3 L 454.1,88.3 L 459.2,86.7 L 464.3,86.7 L 469.4,86.7 L 474.5,86.7 L 479.6,86.5 L 484.7,85.9 L 489.8,85.1 L 494.9,84.7 L 500.0,84.7 L 505.1,84.3 L 510.2,82.8 L 515.3,81.8 L 520.4,81.6 L 525.4,81.4 L 530.5,80.8 L 535.6,79.6 L 540.7,79.2 L 545.8,78.8 L 550.9,77.6 L 556.0,77.4 L 561.1,77.4 L 566.2,77.4 L 571.3,77.3 L 576.4,76.1 L 581.5,75.9 L 586.6,75.7 L 591.7,75.7 L 596.8,75.3 L 601.9,73.7 L 607.0,73.5 L 612.1,73.3 L 617.2,73.3 L 622.2,72.5 L 627.3,72.3 L 632.4,72.1 L 637.5,71.6 L 642.6,70.8 L 647.7,70.8 L 652.8,70.8 L 657.9,70.8 L 663.0,70.4 L 668.1,69.8 L 673.2,69.6 L 678.3,69.0 L 683.4,68.8 L 688.5,68.6 L 693.6,67.8 L 698.7,67.2 L 703.8,67.0 L 708.9,67.0 L 714.0,65.3 L 719.1,64.7 L 724.1,64.5 L 729.2,64.5 L 734.3,63.5 L 739.4,63.5 L 744.5,62.9 L 749.6,62.3 L 754.7,60.9 L 759.8,60.7 L 764.9,60.5 L 770.0,60.3" fill="none" stroke="#4F8EF7" stroke-width="2.5" stroke-linejoin="round" clip-path="url(#ca)"/>
<path d="M 72.0,340 L 72.0,244.2 L 77.1,243.6 L 82.2,243.6 L 87.3,243.6 L 92.4,243.4 L 97.5,243.0 L 102.6,242.8 L 107.7,242.6 L 112.8,242.6 L 117.9,242.5 L 122.9,242.3 L 128.0,242.3 L 133.1,242.3 L 138.2,242.3 L 143.3,242.3 L 148.4,242.3 L 153.5,241.9 L 158.6,241.9 L 163.7,241.9 L 168.8,241.1 L 173.9,240.9 L 179.0,240.5 L 184.1,239.7 L 189.2,239.5 L 194.3,239.5 L 199.4,239.5 L 204.5,238.9 L 209.6,238.5 L 214.7,238.5 L 219.8,238.1 L 224.8,237.9 L 229.9,237.5 L 235.0,237.5 L 240.1,237.3 L 245.2,236.6 L 250.3,236.0 L 255.4,235.6 L 260.5,235.4 L 265.6,235.4 L 270.7,235.2 L 275.8,234.8 L 280.9,234.8 L 286.0,234.6 L 291.1,234.0 L 296.2,233.6 L 301.3,233.6 L 306.4,233.6 L 311.5,233.6 L 316.6,233.4 L 321.6,232.8 L 326.7,232.4 L 331.8,232.2 L 336.9,232.0 L 342.0,231.8 L 347.1,231.6 L 352.2,231.4 L 357.3,231.2 L 362.4,230.7 L 367.5,230.5 L 372.6,230.3 L 377.7,229.5 L 382.8,228.7 L 387.9,228.7 L 393.0,228.5 L 398.1,228.3 L 403.2,228.3 L 408.3,228.3 L 413.4,227.9 L 418.5,227.9 L 423.5,226.7 L 428.6,226.5 L 433.7,226.3 L 438.8,226.3 L 443.9,225.9 L 449.0,225.7 L 454.1,225.7 L 459.2,225.5 L 464.3,225.5 L 469.4,225.5 L 474.5,225.1 L 479.6,224.9 L 484.7,224.0 L 489.8,224.2 L 494.9,224.0 L 500.0,223.8 L 505.1,223.8 L 510.2,223.6 L 515.3,223.0 L 520.4,223.0 L 525.4,223.0 L 530.5,223.0 L 535.6,222.6 L 540.7,222.6 L 545.8,222.2 L 550.9,221.8 L 556.0,221.0 L 561.1,221.0 L 566.2,220.6 L 571.3,220.4 L 576.4,220.2 L 581.5,220.0 L 586.6,219.6 L 591.7,219.6 L 596.8,219.1 L 601.9,219.1 L 607.0,218.9 L 612.1,218.5 L 617.2,218.3 L 622.2,218.3 L 627.3,218.3 L 632.4,218.3 L 637.5,218.3 L 642.6,217.7 L 647.7,217.7 L 652.8,217.3 L 657.9,216.9 L 663.0,216.3 L 668.1,216.1 L 673.2,216.1 L 678.3,214.9 L 683.4,214.7 L 688.5,214.7 L 693.6,213.9 L 698.7,213.9 L 703.8,213.5 L 708.9,213.5 L 714.0,213.3 L 719.1,213.3 L 724.1,213.2 L 729.2,212.8 L 734.3,212.8 L 739.4,212.6 L 744.5,212.4 L 749.6,212.2 L 754.7,212.0 L 759.8,212.0 L 764.9,211.6 L 770.0,211.6 L 770.0,340 Z" fill="url(#g3)" clip-path="url(#ca)"/>
<path d="M 72.0,244.2 L 77.1,243.6 L 82.2,243.6 L 87.3,243.6 L 92.4,243.4 L 97.5,243.0 L 102.6,242.8 L 107.7,242.6 L 112.8,242.6 L 117.9,242.5 L 122.9,242.3 L 128.0,242.3 L 133.1,242.3 L 138.2,242.3 L 143.3,242.3 L 148.4,242.3 L 153.5,241.9 L 158.6,241.9 L 163.7,241.9 L 168.8,241.1 L 173.9,240.9 L 179.0,240.5 L 184.1,239.7 L 189.2,239.5 L 194.3,239.5 L 199.4,239.5 L 204.5,238.9 L 209.6,238.5 L 214.7,238.5 L 219.8,238.1 L 224.8,237.9 L 229.9,237.5 L 235.0,237.5 L 240.1,237.3 L 245.2,236.6 L 250.3,236.0 L 255.4,235.6 L 260.5,235.4 L 265.6,235.4 L 270.7,235.2 L 275.8,234.8 L 280.9,234.8 L 286.0,234.6 L 291.1,234.0 L 296.2,233.6 L 301.3,233.6 L 306.4,233.6 L 311.5,233.6 L 316.6,233.4 L 321.6,232.8 L 326.7,232.4 L 331.8,232.2 L 336.9,232.0 L 342.0,231.8 L 347.1,231.6 L 352.2,231.4 L 357.3,231.2 L 362.4,230.7 L 367.5,230.5 L 372.6,230.3 L 377.7,229.5 L 382.8,228.7 L 387.9,228.7 L 393.0,228.5 L 398.1,228.3 L 403.2,228.3 L 408.3,228.3 L 413.4,227.9 L 418.5,227.9 L 423.5,226.7 L 428.6,226.5 L 433.7,226.3 L 438.8,226.3 L 443.9,225.9 L 449.0,225.7 L 454.1,225.7 L 459.2,225.5 L 464.3,225.5 L 469.4,225.5 L 474.5,225.1 L 479.6,224.9 L 484.7,224.0 L 489.8,224.2 L 494.9,224.0 L 500.0,223.8 L 505.1,223.8 L 510.2,223.6 L 515.3,223.0 L 520.4,223.0 L 525.4,223.0 L 530.5,223.0 L 535.6,222.6 L 540.7,222.6 L 545.8,222.2 L 550.9,221.8 L 556.0,221.0 L 561.1,221.0 L 566.2,220.6 L 571.3,220.4 L 576.4,220.2 L 581.5,220.0 L 586.6,219.6 L 591.7,219.6 L 596.8,219.1 L 601.9,219.1 L 607.0,218.9 L 612.1,218.5 L 617.2,218.3 L 622.2,218.3 L 627.3,218.3 L 632.4,218.3 L 637.5,218.3 L 642.6,217.7 L 647.7,217.7 L 652.8,217.3 L 657.9,216.9 L 663.0,216.3 L 668.1,216.1 L 673.2,216.1 L 678.3,214.9 L 683.4,214.7 L 688.5,214.7 L 693.6,213.9 L 698.7,213.9 L 703.8,213.5 L 708.9,213.5 L 714.0,213.3 L 719.1,213.3 L 724.1,213.2 L 729.2,212.8 L 734.3,212.8 L 739.4,212.6 L 744.5,212.4 L 749.6,212.2 L 754.7,212.0 L 759.8,212.0 L 764.9,211.6 L 770.0,211.6" fill="none" stroke="#BF5AF2" stroke-width="2.5" stroke-linejoin="round" clip-path="url(#ca)"/>
<path d="M 72.0,340 L 72.0,291.4 L 77.1,290.8 L 82.2,290.8 L 87.3,290.8 L 92.4,290.6 L 97.5,290.2 L 102.6,290.0 L 107.7,289.7 L 112.8,289.7 L 117.9,289.5 L 122.9,289.3 L 128.0,289.3 L 133.1,289.3 L 138.2,289.3 L 143.3,289.3 L 148.4,289.3 L 153.5,288.9 L 158.6,288.9 L 163.7,289.1 L 168.8,288.5 L 173.9,288.7 L 179.0,288.1 L 184.1,287.5 L 189.2,287.3 L 194.3,287.5 L 199.4,287.5 L 204.5,286.9 L 209.6,286.7 L 214.7,286.7 L 219.8,286.3 L 224.8,286.1 L 229.9,285.7 L 235.0,285.7 L 240.1,285.5 L 245.2,284.9 L 250.3,284.3 L 255.4,283.9 L 260.5,283.9 L 265.6,283.9 L 270.7,283.8 L 275.8,283.4 L 280.9,283.4 L 286.0,283.2 L 291.1,282.6 L 296.2,282.4 L 301.3,282.4 L 306.4,282.4 L 311.5,282.4 L 316.6,282.2 L 321.6,281.6 L 326.7,281.4 L 331.8,281.2 L 336.9,281.0 L 342.0,281.0 L 347.1,280.8 L 352.2,280.8 L 357.3,280.8 L 362.4,280.2 L 367.5,280.2 L 372.6,280.2 L 377.7,279.8 L 382.8,279.2 L 387.9,279.2 L 393.0,279.0 L 398.1,278.8 L 403.2,278.8 L 408.3,278.8 L 413.4,278.4 L 418.5,278.4 L 423.5,277.3 L 428.6,277.1 L 433.7,276.9 L 438.8,276.9 L 443.9,276.7 L 449.0,276.7 L 454.1,276.7 L 459.2,276.7 L 464.3,276.7 L 469.4,276.7 L 474.5,276.3 L 479.6,276.1 L 484.7,275.1 L 489.8,275.3 L 494.9,275.3 L 500.0,275.1 L 505.1,275.1 L 510.2,275.1 L 515.3,274.7 L 520.4,274.7 L 525.4,274.7 L 530.5,274.7 L 535.6,274.7 L 540.7,274.7 L 545.8,274.5 L 550.9,274.5 L 556.0,273.7 L 561.1,273.7 L 566.2,273.5 L 571.3,273.3 L 576.4,273.1 L 581.5,272.9 L 586.6,272.5 L 591.7,272.5 L 596.8,272.0 L 601.9,272.0 L 607.0,271.8 L 612.1,271.6 L 617.2,271.6 L 622.2,271.6 L 627.3,271.6 L 632.4,271.6 L 637.5,271.6 L 642.6,271.0 L 647.7,271.0 L 652.8,270.6 L 657.9,270.2 L 663.0,269.6 L 668.1,269.4 L 673.2,269.4 L 678.3,268.4 L 683.4,268.2 L 688.5,268.2 L 693.6,267.6 L 698.7,267.6 L 703.8,267.4 L 708.9,267.4 L 714.0,267.6 L 719.1,267.8 L 724.1,267.6 L 729.2,267.2 L 734.3,267.4 L 739.4,267.2 L 744.5,267.0 L 749.6,267.0 L 754.7,267.0 L 759.8,267.0 L 764.9,266.6 L 770.0,266.6 L 770.0,340 Z" fill="url(#g4)" clip-path="url(#ca)"/>
<path d="M 72.0,291.4 L 77.1,290.8 L 82.2,290.8 L 87.3,290.8 L 92.4,290.6 L 97.5,290.2 L 102.6,290.0 L 107.7,289.7 L 112.8,289.7 L 117.9,289.5 L 122.9,289.3 L 128.0,289.3 L 133.1,289.3 L 138.2,289.3 L 143.3,289.3 L 148.4,289.3 L 153.5,288.9 L 158.6,288.9 L 163.7,289.1 L 168.8,288.5 L 173.9,288.7 L 179.0,288.1 L 184.1,287.5 L 189.2,287.3 L 194.3,287.5 L 199.4,287.5 L 204.5,286.9 L 209.6,286.7 L 214.7,286.7 L 219.8,286.3 L 224.8,286.1 L 229.9,285.7 L 235.0,285.7 L 240.1,285.5 L 245.2,284.9 L 250.3,284.3 L 255.4,283.9 L 260.5,283.9 L 265.6,283.9 L 270.7,283.8 L 275.8,283.4 L 280.9,283.4 L 286.0,283.2 L 291.1,282.6 L 296.2,282.4 L 301.3,282.4 L 306.4,282.4 L 311.5,282.4 L 316.6,282.2 L 321.6,281.6 L 326.7,281.4 L 331.8,281.2 L 336.9,281.0 L 342.0,281.0 L 347.1,280.8 L 352.2,280.8 L 357.3,280.8 L 362.4,280.2 L 367.5,280.2 L 372.6,280.2 L 377.7,279.8 L 382.8,279.2 L 387.9,279.2 L 393.0,279.0 L 398.1,278.8 L 403.2,278.8 L 408.3,278.8 L 413.4,278.4 L 418.5,278.4 L 423.5,277.3 L 428.6,277.1 L 433.7,276.9 L 438.8,276.9 L 443.9,276.7 L 449.0,276.7 L 454.1,276.7 L 459.2,276.7 L 464.3,276.7 L 469.4,276.7 L 474.5,276.3 L 479.6,276.1 L 484.7,275.1 L 489.8,275.3 L 494.9,275.3 L 500.0,275.1 L 505.1,275.1 L 510.2,275.1 L 515.3,274.7 L 520.4,274.7 L 525.4,274.7 L 530.5,274.7 L 535.6,274.7 L 540.7,274.7 L 545.8,274.5 L 550.9,274.5 L 556.0,273.7 L 561.1,273.7 L 566.2,273.5 L 571.3,273.3 L 576.4,273.1 L 581.5,272.9 L 586.6,272.5 L 591.7,272.5 L 596.8,272.0 L 601.9,272.0 L 607.0,271.8 L 612.1,271.6 L 617.2,271.6 L 622.2,271.6 L 627.3,271.6 L 632.4,271.6 L 637.5,271.6 L 642.6,271.0 L 647.7,271.0 L 652.8,270.6 L 657.9,270.2 L 663.0,269.6 L 668.1,269.4 L 673.2,269.4 L 678.3,268.4 L 683.4,268.2 L 688.5,268.2 L 693.6,267.6 L 698.7,267.6 L 703.8,267.4 L 708.9,267.4 L 714.0,267.6 L 719.1,267.8 L 724.1,267.6 L 729.2,267.2 L 734.3,267.4 L 739.4,267.2 L 744.5,267.0 L 749.6,267.0 L 754.7,267.0 L 759.8,267.0 L 764.9,266.6 L 770.0,266.6" fill="none" stroke="#34C759" stroke-width="2.5" stroke-linejoin="round" clip-path="url(#ca)"/>
<text x="100.0" y="55.0" text-anchor="middle" font-size="9" fill="#4F8EF7" opacity="0.85" clip-path="url(#ca)">+0.5% (+8)</text>
<text x="100.0" y="66.0" text-anchor="middle" font-size="9" fill="#BF5AF2" opacity="0.85" clip-path="url(#ca)">+1.0% (+10)</text>
<text x="100.0" y="77.0" text-anchor="middle" font-size="9" fill="#34C759" opacity="0.85" clip-path="url(#ca)">+1.5% (+11)</text>
<text x="196.8" y="55.0" text-anchor="middle" font-size="9" fill="#4F8EF7" opacity="0.85" clip-path="url(#ca)">+4.0% (+65)</text>
<text x="196.8" y="66.0" text-anchor="middle" font-size="9" fill="#BF5AF2" opacity="0.85" clip-path="url(#ca)">+3.5% (+35)</text>
<text x="196.8" y="77.0" text-anchor="middle" font-size="9" fill="#34C759" opacity="0.85" clip-path="url(#ca)">+3.6% (+27)</text>
<text x="331.8" y="55.0" text-anchor="middle" font-size="9" fill="#4F8EF7" opacity="0.85" clip-path="url(#ca)">+4.1% (+70)</text>
<text x="331.8" y="66.0" text-anchor="middle" font-size="9" fill="#BF5AF2" opacity="0.85" clip-path="url(#ca)">+3.5% (+36)</text>
<text x="331.8" y="77.0" text-anchor="middle" font-size="9" fill="#34C759" opacity="0.85" clip-path="url(#ca)">+3.3% (+26)</text>
<text x="469.4" y="55.0" text-anchor="middle" font-size="9" fill="#4F8EF7" opacity="0.85" clip-path="url(#ca)">+3.5% (+61)</text>
<text x="469.4" y="66.0" text-anchor="middle" font-size="9" fill="#BF5AF2" opacity="0.85" clip-path="url(#ca)">+2.7% (+29)</text>
<text x="469.4" y="77.0" text-anchor="middle" font-size="9" fill="#34C759" opacity="0.85" clip-path="url(#ca)">+2.6% (+21)</text>
<text x="607.0" y="55.0" text-anchor="middle" font-size="9" fill="#4F8EF7" opacity="0.85" clip-path="url(#ca)">+2.7% (+49)</text>
<text x="607.0" y="66.0" text-anchor="middle" font-size="9" fill="#BF5AF2" opacity="0.85" clip-path="url(#ca)">+3.0% (+33)</text>
<text x="607.0" y="77.0" text-anchor="middle" font-size="9" fill="#34C759" opacity="0.85" clip-path="url(#ca)">+3.2% (+27)</text>
<text x="724.1" y="55.0" text-anchor="middle" font-size="9" fill="#4F8EF7" opacity="0.85" clip-path="url(#ca)">+2.3% (+44)</text>
<text x="724.1" y="66.0" text-anchor="middle" font-size="9" fill="#BF5AF2" opacity="0.85" clip-path="url(#ca)">+1.5% (+17)</text>
<text x="724.1" y="77.0" text-anchor="middle" font-size="9" fill="#34C759" opacity="0.85" clip-path="url(#ca)">+1.0% (+9)</text>
<rect x="211" y="369" width="12" height="12" fill="#4F8EF7" rx="2"/>
<text x="227" y="379" font-size="12" fill="#111827">Authors</text>
<rect x="351" y="369" width="12" height="12" fill="#BF5AF2" rx="2"/>
<text x="367" y="379" font-size="12" fill="#111827">Contributors</text>
<rect x="491" y="369" width="12" height="12" fill="#34C759" rx="2"/>
<text x="507" y="379" font-size="12" fill="#111827">Non-author contributors</text>
<text x="72" y="394" font-size="8" fill="#e5e7eb">data since Dec 11, 2025</text>
</svg>