<svg xmlns="http://www.w3.org/2000/svg" width="800" height="400" viewBox="0 0 800 400">
<defs>
  <style>text { font-family: -apple-system, BlinkMacSystemFont, 'Segoe UI', Roboto, sans-serif; }</style>
  <linearGradient id="g2" x1="0" y1="0" x2="0" y2="1">
  <stop offset="0%" stop-color="#4F8EF7" stop-opacity="0.25"/>
  <stop offset="100%" stop-color="#4F8EF7" stop-opacity="0"/>
</linearGradient>
<linearGradient id="g3" x1="0" y1="0" x2="0" y2="1">
  <stop offset="0%" stop-color="#BF5AF2" stop-opacity="0.25"/>
  <stop offset="100%" stop-color="#BF5AF2" stop-opacity="0"/>
</linearGradient>
<linearGradient id="g4" x1="0" y1="0" x2="0" y2="1">
  <stop offset="0%" stop-color="#34C759" stop-opacity="0.25"/>
  <stop offset="100%" stop-color="#34C759" stop-opacity="0"/>
</linearGradient>
  <clipPath id="ca"><rect x="72" y="45" width="698" height="295"/></clipPath>
</defs>
<rect width="800" height="400" fill="#ffffff" rx="12"/>
<text x="400" y="26" text-anchor="middle" font-size="15" font-weight="600" fill="#111827">Community Growth Over Time</text>
<line x1="72" y1="340.0" x2="770" y2="340.0" stroke="#f3f4f6" stroke-width="1"/>
<text x="66" y="344.0" text-anchor="end" font-size="11" fill="#6b7280">500</text>
<line x1="72" y1="241.7" x2="770" y2="241.7" stroke="#f3f4f6" stroke-width="1"/>
<text x="66" y="245.7" text-anchor="end" font-size="11" fill="#6b7280">1.0k</text>
<line x1="72" y1="143.3" x2="770" y2="143.3" stroke="#f3f4f6" stroke-width="1"/>
<text x="66" y="147.3" text-anchor="end" font-size="11" fill="#6b7280">1.5k</text>
<line x1="72" y1="45.0" x2="770" y2="45.0" stroke="#f3f4f6" stroke-width="1"/>
<text x="66" y="49.0" text-anchor="end" font-size="11" fill="#6b7280">2.0k</text>
<line x1="125.4" y1="45" x2="125.4" y2="340" stroke="#e5e7eb" stroke-width="1" stroke-dasharray="3,3" clip-path="url(#ca)"/>
<line x1="240.9" y1="45" x2="240.9" y2="340" stroke="#e5e7eb" stroke-width="1" stroke-dasharray="3,3" clip-path="url(#ca)"/>
<line x1="361.0" y1="45" x2="361.0" y2="340" stroke="#e5e7eb" stroke-width="1" stroke-dasharray="3,3" clip-path="url(#ca)"/>
<line x1="481.0" y1="45" x2="481.0" y2="340" stroke="#e5e7eb" stroke-width="1" stroke-dasharray="3,3" clip-path="url(#ca)"/>
<line x1="601.1" y1="45" x2="601.1" y2="340" stroke="#e5e7eb" stroke-width="1" stroke-dasharray="3,3" clip-path="url(#ca)"/>
<line x1="716.6" y1="45" x2="716.6" y2="340" stroke="#e5e7eb" stroke-width="1" stroke-dasharray="3,3" clip-path="url(#ca)"/>
<text x="72.0" y="358.0" text-anchor="middle" font-size="11" fill="#6b7280">Dec 11</text>
<text x="209.8" y="358.0" text-anchor="middle" font-size="11" fill="#6b7280">Jan 25</text>
<text x="352.1" y="358.0" text-anchor="middle" font-size="11" fill="#6b7280">Feb 27</text>
<text x="489.9" y="358.0" text-anchor="middle" font-size="11" fill="#6b7280">Apr 3</text>
<text x="632.2" y="358.0" text-anchor="middle" font-size="11" fill="#6b7280">May 12</text>
<text x="770.0" y="358.0" text-anchor="middle" font-size="11" fill="#6b7280">Jun 17</text>
<line x1="72" y1="45" x2="72" y2="340" stroke="#e5e7eb" stroke-width="1"/>
<line x1="72" y1="340" x2="770" y2="340" stroke="#e5e7eb" stroke-width="1"/>
<text x="-192.5" y="18" text-anchor="middle" font-size="12" fill="#6b7280" transform="rotate(-90)">People</text>
<path d="M 72.0,340 L 72.0,120.1 L 76.4,120.1 L 80.9,120.1 L 85.3,119.5 L 89.8,119.5 L 94.2,119.1 L 98.7,118.9 L 103.1,119.1 L 107.6,118.6 L 112.0,118.6 L 116.5,118.6 L 120.9,118.6 L 125.4,118.6 L 129.8,118.6 L 134.2,118.6 L 138.7,118.6 L 143.1,118.4 L 147.6,117.8 L 152.0,116.6 L 156.5,116.0 L 160.9,115.8 L 165.4,115.8 L 169.8,115.2 L 174.3,113.8 L 178.7,113.0 L 183.1,113.0 L 187.6,112.1 L 192.0,111.7 L 196.5,110.9 L 200.9,110.3 L 205.4,109.7 L 209.8,109.1 L 214.3,109.1 L 218.7,107.7 L 223.2,106.9 L 227.6,106.9 L 232.1,106.2 L 236.5,105.8 L 240.9,105.6 L 245.4,105.4 L 249.8,105.4 L 254.3,104.8 L 258.7,102.4 L 263.2,101.0 L 267.6,100.3 L 272.1,100.1 L 276.5,99.7 L 281.0,98.9 L 285.4,98.5 L 289.8,98.1 L 294.3,97.7 L 298.7,97.3 L 303.2,96.9 L 307.6,96.9 L 312.1,95.0 L 316.5,95.0 L 321.0,94.8 L 325.4,94.6 L 329.9,94.2 L 334.3,94.2 L 338.8,93.2 L 343.2,92.0 L 347.6,91.6 L 352.1,92.0 L 356.5,91.8 L 361.0,91.6 L 365.4,91.6 L 369.9,91.2 L 374.3,90.4 L 378.8,90.0 L 383.2,89.6 L 387.7,89.4 L 392.1,89.4 L 396.5,88.7 L 401.0,88.3 L 405.4,88.3 L 409.9,86.7 L 414.3,86.7 L 418.8,86.7 L 423.2,86.7 L 427.7,86.5 L 432.1,85.9 L 436.6,85.1 L 441.0,84.7 L 445.5,84.7 L 449.9,84.3 L 454.3,82.8 L 458.8,81.8 L 463.2,81.6 L 467.7,81.4 L 472.1,80.8 L 476.6,79.6 L 481.0,79.2 L 485.5,78.8 L 489.9,77.6 L 494.4,77.4 L 498.8,77.4 L 503.2,77.4 L 507.7,77.3 L 512.1,76.1 L 516.6,75.9 L 521.0,75.7 L 525.5,75.7 L 529.9,75.3 L 534.4,73.7 L 538.8,73.5 L 543.3,73.3 L 547.7,73.3 L 552.2,72.5 L 556.6,72.3 L 561.0,72.1 L 565.5,71.6 L 569.9,70.8 L 574.4,70.8 L 578.8,70.8 L 583.3,70.8 L 587.7,70.4 L 592.2,69.8 L 596.6,69.6 L 601.1,69.0 L 605.5,68.8 L 609.9,68.6 L 614.4,67.8 L 618.8,67.2 L 623.3,67.0 L 627.7,67.0 L 632.2,65.3 L 636.6,64.7 L 641.1,64.5 L 645.5,64.5 L 650.0,63.5 L 654.4,63.5 L 658.9,62.9 L 663.3,62.3 L 667.7,60.9 L 672.2,60.7 L 676.6,60.5 L 681.1,60.3 L 685.5,60.3 L 690.0,60.1 L 694.4,59.2 L 698.9,58.6 L 703.3,58.6 L 707.8,58.4 L 712.2,58.4 L 716.6,57.8 L 721.1,57.6 L 725.5,57.4 L 730.0,56.8 L 734.4,56.0 L 738.9,56.0 L 743.3,55.8 L 747.8,55.6 L 752.2,54.6 L 756.7,53.3 L 761.1,53.1 L 765.6,52.7 L 770.0,52.3 L 770.0,340 Z" fill="url(#g2)" clip-path="url(#ca)"/>
<path d="M 72.0,120.1 L 76.4,120.1 L 80.9,120.1 L 85.3,119.5 L 89.8,119.5 L 94.2,119.1 L 98.7,118.9 L 103.1,119.1 L 107.6,118.6 L 112.0,118.6 L 116.5,118.6 L 120.9,118.6 L 125.4,118.6 L 129.8,118.6 L 134.2,118.6 L 138.7,118.6 L 143.1,118.4 L 147.6,117.8 L 152.0,116.6 L 156.5,116.0 L 160.9,115.8 L 165.4,115.8 L 169.8,115.2 L 174.3,113.8 L 178.7,113.0 L 183.1,113.0 L 187.6,112.1 L 192.0,111.7 L 196.5,110.9 L 200.9,110.3 L 205.4,109.7 L 209.8,109.1 L 214.3,109.1 L 218.7,107.7 L 223.2,106.9 L 227.6,106.9 L 232.1,106.2 L 236.5,105.8 L 240.9,105.6 L 245.4,105.4 L 249.8,105.4 L 254.3,104.8 L 258.7,102.4 L 263.2,101.0 L 267.6,100.3 L 272.1,100.1 L 276.5,99.7 L 281.0,98.9 L 285.4,98.5 L 289.8,98.1 L 294.3,97.7 L 298.7,97.3 L 303.2,96.9 L 307.6,96.9 L 312.1,95.0 L 316.5,95.0 L 321.0,94.8 L 325.4,94.6 L 329.9,94.2 L 334.3,94.2 L 338.8,93.2 L 343.2,92.0 L 347.6,91.6 L 352.1,92.0 L 356.5,91.8 L 361.0,91.6 L 365.4,91.6 L 369.9,91.2 L 374.3,90.4 L 378.8,90.0 L 383.2,89.6 L 387.7,89.4 L 392.1,89.4 L 396.5,88.7 L 401.0,88.3 L 405.4,88.3 L 409.9,86.7 L 414.3,86.7 L 418.8,86.7 L 423.2,86.7 L 427.7,86.5 L 432.1,85.9 L 436.6,85.1 L 441.0,84.7 L 445.5,84.7 L 449.9,84.3 L 454.3,82.8 L 458.8,81.8 L 463.2,81.6 L 467.7,81.4 L 472.1,80.8 L 476.6,79.6 L 481.0,79.2 L 485.5,78.8 L 489.9,77.6 L 494.4,77.4 L 498.8,77.4 L 503.2,77.4 L 507.7,77.3 L 512.1,76.1 L 516.6,75.9 L 521.0,75.7 L 525.5,75.7 L 529.9,75.3 L 534.4,73.7 L 538.8,73.5 L 543.3,73.3 L 547.7,73.3 L 552.2,72.5 L 556.6,72.3 L 561.0,72.1 L 565.5,71.6 L 569.9,70.8 L 574.4,70.8 L 578.8,70.8 L 583.3,70.8 L 587.7,70.4 L 592.2,69.8 L 596.6,69.6 L 601.1,69.0 L 605.5,68.8 L 609.9,68.6 L 614.4,67.8 L 618.8,67.2 L 623.3,67.0 L 627.7,67.0 L 632.2,65.3 L 636.6,64.7 L 641.1,64.5 L 645.5,64.5 L 650.0,63.5 L 654.4,63.5 L 658.9,62.9 L 663.3,62.3 L 667.7,60.9 L 672.2,60.7 L 676.6,60.5 L 681.1,60.3 L 685.5,60.3 L 690.0,60.1 L 694.4,59.2 L 698.9,58.6 L 703.3,58.6 L 707.8,58.4 L 712.2,58.4 L 716.6,57.8 L 721.1,57.6 L 725.5,57.4 L 730.0,56.8 L 734.4,56.0 L 738.9,56.0 L 743.3,55.8 L 747.8,55.6 L 752.2,54.6 L 756.7,53.3 L 761.1,53.1 L 765.6,52.7 L 770.0,52.3" fill="none" stroke="#4F8EF7" stroke-width="2.5" stroke-linejoin="round" clip-path="url(#ca)"/>
<path d="M 72.0,340 L 72.0,244.2 L 76.4,243.6 L 80.9,243.6 L 85.3,243.6 L 89.8,243.4 L 94.2,243.0 L 98.7,242.8 L 103.1,242.6 L 107.6,242.6 L 112.0,242.5 L 116.5,242.3 L 120.9,242.3 L 125.4,242.3 L 129.8,242.3 L 134.2,242.3 L 138.7,242.3 L 143.1,241.9 L 147.6,241.9 L 152.0,241.9 L 156.5,241.1 L 160.9,240.9 L 165.4,240.5 L 169.8,239.7 L 174.3,239.5 L 178.7,239.5 L 183.1,239.5 L 187.6,238.9 L 192.0,238.5 L 196.5,238.5 L 200.9,238.1 L 205.4,237.9 L 209.8,237.5 L 214.3,237.5 L 218.7,237.3 L 223.2,236.6 L 227.6,236.0 L 232.1,235.6 L 236.5,235.4 L 240.9,235.4 L 245.4,235.2 L 249.8,234.8 L 254.3,234.8 L 258.7,234.6 L 263.2,234.0 L 267.6,233.6 L 272.1,233.6 L 276.5,233.6 L 281.0,233.6 L 285.4,233.4 L 289.8,232.8 L 294.3,232.4 L 298.7,232.2 L 303.2,232.0 L 307.6,231.8 L 312.1,231.6 L 316.5,231.4 L 321.0,231.2 L 325.4,230.7 L 329.9,230.5 L 334.3,230.3 L 338.8,229.5 L 343.2,228.7 L 347.6,228.7 L 352.1,228.5 L 356.5,228.3 L 361.0,228.3 L 365.4,228.3 L 369.9,227.9 L 374.3,227.9 L 378.8,226.7 L 383.2,226.5 L 387.7,226.3 L 392.1,226.3 L 396.5,225.9 L 401.0,225.7 L 405.4,225.7 L 409.9,225.5 L 414.3,225.5 L 418.8,225.5 L 423.2,225.1 L 427.7,224.9 L 432.1,224.0 L 436.6,224.2 L 441.0,224.0 L 445.5,223.8 L 449.9,223.8 L 454.3,223.6 L 458.8,223.0 L 463.2,223.0 L 467.7,223.0 L 472.1,223.0 L 476.6,222.6 L 481.0,222.6 L 485.5,222.2 L 489.9,221.8 L 494.4,221.0 L 498.8,221.0 L 503.2,220.6 L 507.7,220.4 L 512.1,220.2 L 516.6,220.0 L 521.0,219.6 L 525.5,219.6 L 529.9,219.1 L 534.4,219.1 L 538.8,218.9 L 543.3,218.5 L 547.7,218.3 L 552.2,218.3 L 556.6,218.3 L 561.0,218.3 L 565.5,218.3 L 569.9,217.7 L 574.4,217.7 L 578.8,217.3 L 583.3,216.9 L 587.7,216.3 L 592.2,216.1 L 596.6,216.1 L 601.1,214.9 L 605.5,214.7 L 609.9,214.7 L 614.4,213.9 L 618.8,213.9 L 623.3,213.5 L 627.7,213.5 L 632.2,213.3 L 636.6,213.3 L 641.1,213.2 L 645.5,212.8 L 650.0,212.8 L 654.4,212.6 L 658.9,212.4 L 663.3,212.2 L 667.7,212.0 L 672.2,212.0 L 676.6,211.6 L 681.1,211.6 L 685.5,211.6 L 690.0,210.6 L 694.4,210.6 L 698.9,210.6 L 703.3,210.6 L 707.8,210.6 L 712.2,210.6 L 716.6,210.2 L 721.1,210.2 L 725.5,209.8 L 730.0,209.0 L 734.4,208.6 L 738.9,208.4 L 743.3,208.4 L 747.8,208.2 L 752.2,207.6 L 756.7,207.4 L 761.1,207.4 L 765.6,207.1 L 770.0,206.5 L 770.0,340 Z" fill="url(#g3)" clip-path="url(#ca)"/>
<path d="M 72.0,244.2 L 76.4,243.6 L 80.9,243.6 L 85.3,243.6 L 89.8,243.4 L 94.2,243.0 L 98.7,242.8 L 103.1,242.6 L 107.6,242.6 L 112.0,242.5 L 116.5,242.3 L 120.9,242.3 L 125.4,242.3 L 129.8,242.3 L 134.2,242.3 L 138.7,242.3 L 143.1,241.9 L 147.6,241.9 L 152.0,241.9 L 156.5,241.1 L 160.9,240.9 L 165.4,240.5 L 169.8,239.7 L 174.3,239.5 L 178.7,239.5 L 183.1,239.5 L 187.6,238.9 L 192.0,238.5 L 196.5,238.5 L 200.9,238.1 L 205.4,237.9 L 209.8,237.5 L 214.3,237.5 L 218.7,237.3 L 223.2,236.6 L 227.6,236.0 L 232.1,235.6 L 236.5,235.4 L 240.9,235.4 L 245.4,235.2 L 249.8,234.8 L 254.3,234.8 L 258.7,234.6 L 263.2,234.0 L 267.6,233.6 L 272.1,233.6 L 276.5,233.6 L 281.0,233.6 L 285.4,233.4 L 289.8,232.8 L 294.3,232.4 L 298.7,232.2 L 303.2,232.0 L 307.6,231.8 L 312.1,231.6 L 316.5,231.4 L 321.0,231.2 L 325.4,230.7 L 329.9,230.5 L 334.3,230.3 L 338.8,229.5 L 343.2,228.7 L 347.6,228.7 L 352.1,228.5 L 356.5,228.3 L 361.0,228.3 L 365.4,228.3 L 369.9,227.9 L 374.3,227.9 L 378.8,226.7 L 383.2,226.5 L 387.7,226.3 L 392.1,226.3 L 396.5,225.9 L 401.0,225.7 L 405.4,225.7 L 409.9,225.5 L 414.3,225.5 L 418.8,225.5 L 423.2,225.1 L 427.7,224.9 L 432.1,224.0 L 436.6,224.2 L 441.0,224.0 L 445.5,223.8 L 449.9,223.8 L 454.3,223.6 L 458.8,223.0 L 463.2,223.0 L 467.7,223.0 L 472.1,223.0 L 476.6,222.6 L 481.0,222.6 L 485.5,222.2 L 489.9,221.8 L 494.4,221.0 L 498.8,221.0 L 503.2,220.6 L 507.7,220.4 L 512.1,220.2 L 516.6,220.0 L 521.0,219.6 L 525.5,219.6 L 529.9,219.1 L 534.4,219.1 L 538.8,218.9 L 543.3,218.5 L 547.7,218.3 L 552.2,218.3 L 556.6,218.3 L 561.0,218.3 L 565.5,218.3 L 569.9,217.7 L 574.4,217.7 L 578.8,217.3 L 583.3,216.9 L 587.7,216.3 L 592.2,216.1 L 596.6,216.1 L 601.1,214.9 L 605.5,214.7 L 609.9,214.7 L 614.4,213.9 L 618.8,213.9 L 623.3,213.5 L 627.7,213.5 L 632.2,213.3 L 636.6,213.3 L 641.1,213.2 L 645.5,212.8 L 650.0,212.8 L 654.4,212.6 L 658.9,212.4 L 663.3,212.2 L 667.7,212.0 L 672.2,212.0 L 676.6,211.6 L 681.1,211.6 L 685.5,211.6 L 690.0,210.6 L 694.4,210.6 L 698.9,210.6 L 703.3,210.6 L 707.8,210.6 L 712.2,210.6 L 716.6,210.2 L 721.1,210.2 L 725.5,209.8 L 730.0,209.0 L 734.4,208.6 L 738.9,208.4 L 743.3,208.4 L 747.8,208.2 L 752.2,207.6 L 756.7,207.4 L 761.1,207.4 L 765.6,207.1 L 770.0,206.5" fill="none" stroke="#BF5AF2" stroke-width="2.5" stroke-linejoin="round" clip-path="url(#ca)"/>
<path d="M 72.0,340 L 72.0,291.4 L 76.4,290.8 L 80.9,290.8 L 85.3,290.8 L 89.8,290.6 L 94.2,290.2 L 98.7,290.0 L 103.1,289.7 L 107.6,289.7 L 112.0,289.5 L 116.5,289.3 L 120.9,289.3 L 125.4,289.3 L 129.8,289.3 L 134.2,289.3 L 138.7,289.3 L 143.1,288.9 L 147.6,288.9 L 152.0,289.1 L 156.5,288.5 L 160.9,288.7 L 165.4,288.1 L 169.8,287.5 L 174.3,287.3 L 178.7,287.5 L 183.1,287.5 L 187.6,286.9 L 192.0,286.7 L 196.5,286.7 L 200.9,286.3 L 205.4,286.1 L 209.8,285.7 L 214.3,285.7 L 218.7,285.5 L 223.2,284.9 L 227.6,284.3 L 232.1,283.9 L 236.5,283.9 L 240.9,283.9 L 245.4,283.8 L 249.8,283.4 L 254.3,283.4 L 258.7,283.2 L 263.2,282.6 L 267.6,282.4 L 272.1,282.4 L 276.5,282.4 L 281.0,282.4 L 285.4,282.2 L 289.8,281.6 L 294.3,281.4 L 298.7,281.2 L 303.2,281.0 L 307.6,281.0 L 312.1,280.8 L 316.5,280.8 L 321.0,280.8 L 325.4,280.2 L 329.9,280.2 L 334.3,280.2 L 338.8,279.8 L 343.2,279.2 L 347.6,279.2 L 352.1,279.0 L 356.5,278.8 L 361.0,278.8 L 365.4,278.8 L 369.9,278.4 L 374.3,278.4 L 378.8,277.3 L 383.2,277.1 L 387.7,276.9 L 392.1,276.9 L 396.5,276.7 L 401.0,276.7 L 405.4,276.7 L 409.9,276.7 L 414.3,276.7 L 418.8,276.7 L 423.2,276.3 L 427.7,276.1 L 432.1,275.1 L 436.6,275.3 L 441.0,275.3 L 445.5,275.1 L 449.9,275.1 L 454.3,275.1 L 458.8,274.7 L 463.2,274.7 L 467.7,274.7 L 472.1,274.7 L 476.6,274.7 L 481.0,274.7 L 485.5,274.5 L 489.9,274.5 L 494.4,273.7 L 498.8,273.7 L 503.2,273.5 L 507.7,273.3 L 512.1,273.1 L 516.6,272.9 L 521.0,272.5 L 525.5,272.5 L 529.9,272.0 L 534.4,272.0 L 538.8,271.8 L 543.3,271.6 L 547.7,271.6 L 552.2,271.6 L 556.6,271.6 L 561.0,271.6 L 565.5,271.6 L 569.9,271.0 L 574.4,271.0 L 578.8,270.6 L 583.3,270.2 L 587.7,269.6 L 592.2,269.4 L 596.6,269.4 L 601.1,268.4 L 605.5,268.2 L 609.9,268.2 L 614.4,267.6 L 618.8,267.6 L 623.3,267.4 L 627.7,267.4 L 632.2,267.6 L 636.6,267.8 L 641.1,267.6 L 645.5,267.2 L 650.0,267.4 L 654.4,267.2 L 658.9,267.0 L 663.3,267.0 L 667.7,267.0 L 672.2,267.0 L 676.6,266.6 L 681.1,266.6 L 685.5,266.6 L 690.0,265.9 L 694.4,265.9 L 698.9,265.9 L 703.3,265.9 L 707.8,265.9 L 712.2,265.9 L 716.6,265.5 L 721.1,265.5 L 725.5,265.1 L 730.0,264.3 L 734.4,264.1 L 738.9,264.1 L 743.3,264.1 L 747.8,264.1 L 752.2,263.7 L 756.7,263.5 L 761.1,263.5 L 765.6,263.3 L 770.0,262.7 L 770.0,340 Z" fill="url(#g4)" clip-path="url(#ca)"/>
<path d="M 72.0,291.4 L 76.4,290.8 L 80.9,290.8 L 85.3,290.8 L 89.8,290.6 L 94.2,290.2 L 98.7,290.0 L 103.1,289.7 L 107.6,289.7 L 112.0,289.5 L 116.5,289.3 L 120.9,289.3 L 125.4,289.3 L 129.8,289.3 L 134.2,289.3 L 138.7,289.3 L 143.1,288.9 L 147.6,288.9 L 152.0,289.1 L 156.5,288.5 L 160.9,288.7 L 165.4,288.1 L 169.8,287.5 L 174.3,287.3 L 178.7,287.5 L 183.1,287.5 L 187.6,286.9 L 192.0,286.7 L 196.5,286.7 L 200.9,286.3 L 205.4,286.1 L 209.8,285.7 L 214.3,285.7 L 218.7,285.5 L 223.2,284.9 L 227.6,284.3 L 232.1,283.9 L 236.5,283.9 L 240.9,283.9 L 245.4,283.8 L 249.8,283.4 L 254.3,283.4 L 258.7,283.2 L 263.2,282.6 L 267.6,282.4 L 272.1,282.4 L 276.5,282.4 L 281.0,282.4 L 285.4,282.2 L 289.8,281.6 L 294.3,281.4 L 298.7,281.2 L 303.2,281.0 L 307.6,281.0 L 312.1,280.8 L 316.5,280.8 L 321.0,280.8 L 325.4,280.2 L 329.9,280.2 L 334.3,280.2 L 338.8,279.8 L 343.2,279.2 L 347.6,279.2 L 352.1,279.0 L 356.5,278.8 L 361.0,278.8 L 365.4,278.8 L 369.9,278.4 L 374.3,278.4 L 378.8,277.3 L 383.2,277.1 L 387.7,276.9 L 392.1,276.9 L 396.5,276.7 L 401.0,276.7 L 405.4,276.7 L 409.9,276.7 L 414.3,276.7 L 418.8,276.7 L 423.2,276.3 L 427.7,276.1 L 432.1,275.1 L 436.6,275.3 L 441.0,275.3 L 445.5,275.1 L 449.9,275.1 L 454.3,275.1 L 458.8,274.7 L 463.2,274.7 L 467.7,274.7 L 472.1,274.7 L 476.6,274.7 L 481.0,274.7 L 485.5,274.5 L 489.9,274.5 L 494.4,273.7 L 498.8,273.7 L 503.2,273.5 L 507.7,273.3 L 512.1,273.1 L 516.6,272.9 L 521.0,272.5 L 525.5,272.5 L 529.9,272.0 L 534.4,272.0 L 538.8,271.8 L 543.3,271.6 L 547.7,271.6 L 552.2,271.6 L 556.6,271.6 L 561.0,271.6 L 565.5,271.6 L 569.9,271.0 L 574.4,271.0 L 578.8,270.6 L 583.3,270.2 L 587.7,269.6 L 592.2,269.4 L 596.6,269.4 L 601.1,268.4 L 605.5,268.2 L 609.9,268.2 L 614.4,267.6 L 618.8,267.6 L 623.3,267.4 L 627.7,267.4 L 632.2,267.6 L 636.6,267.8 L 641.1,267.6 L 645.5,267.2 L 650.0,267.4 L 654.4,267.2 L 658.9,267.0 L 663.3,267.0 L 667.7,267.0 L 672.2,267.0 L 676.6,266.6 L 681.1,266.6 L 685.5,266.6 L 690.0,265.9 L 694.4,265.9 L 698.9,265.9 L 703.3,265.9 L 707.8,265.9 L 712.2,265.9 L 716.6,265.5 L 721.1,265.5 L 725.5,265.1 L 730.0,264.3 L 734.4,264.1 L 738.9,264.1 L 743.3,264.1 L 747.8,264.1 L 752.2,263.7 L 756.7,263.5 L 761.1,263.5 L 765.6,263.3 L 770.0,262.7" fill="none" stroke="#34C759" stroke-width="2.5" stroke-linejoin="round" clip-path="url(#ca)"/>
<text x="96.5" y="55.0" text-anchor="middle" font-size="9" fill="#4F8EF7" opacity="0.85" clip-path="url(#ca)">+0.5% (+8)</text>
<text x="96.5" y="66.0" text-anchor="middle" font-size="9" fill="#BF5AF2" opacity="0.85" clip-path="url(#ca)">+1.0% (+10)</text>
<text x="96.5" y="77.0" text-anchor="middle" font-size="9" fill="#34C759" opacity="0.85" clip-path="url(#ca)">+1.5% (+11)</text>
<text x="180.9" y="55.0" text-anchor="middle" font-size="9" fill="#4F8EF7" opacity="0.85" clip-path="url(#ca)">+4.0% (+65)</text>
<text x="180.9" y="66.0" text-anchor="middle" font-size="9" fill="#BF5AF2" opacity="0.85" clip-path="url(#ca)">+3.5% (+35)</text>
<text x="180.9" y="77.0" text-anchor="middle" font-size="9" fill="#34C759" opacity="0.85" clip-path="url(#ca)">+3.6% (+27)</text>
<text x="298.7" y="55.0" text-anchor="middle" font-size="9" fill="#4F8EF7" opacity="0.85" clip-path="url(#ca)">+4.1% (+70)</text>
<text x="298.7" y="66.0" text-anchor="middle" font-size="9" fill="#BF5AF2" opacity="0.85" clip-path="url(#ca)">+3.5% (+36)</text>
<text x="298.7" y="77.0" text-anchor="middle" font-size="9" fill="#34C759" opacity="0.85" clip-path="url(#ca)">+3.3% (+26)</text>
<text x="418.8" y="55.0" text-anchor="middle" font-size="9" fill="#4F8EF7" opacity="0.85" clip-path="url(#ca)">+3.5% (+61)</text>
<text x="418.8" y="66.0" text-anchor="middle" font-size="9" fill="#BF5AF2" opacity="0.85" clip-path="url(#ca)">+2.7% (+29)</text>
<text x="418.8" y="77.0" text-anchor="middle" font-size="9" fill="#34C759" opacity="0.85" clip-path="url(#ca)">+2.6% (+21)</text>
<text x="538.8" y="55.0" text-anchor="middle" font-size="9" fill="#4F8EF7" opacity="0.85" clip-path="url(#ca)">+2.7% (+49)</text>
<text x="538.8" y="66.0" text-anchor="middle" font-size="9" fill="#BF5AF2" opacity="0.85" clip-path="url(#ca)">+3.0% (+33)</text>
<text x="538.8" y="77.0" text-anchor="middle" font-size="9" fill="#34C759" opacity="0.85" clip-path="url(#ca)">+3.2% (+27)</text>
<text x="656.6" y="55.0" text-anchor="middle" font-size="9" fill="#4F8EF7" opacity="0.85" clip-path="url(#ca)">+2.9% (+54)</text>
<text x="656.6" y="66.0" text-anchor="middle" font-size="9" fill="#BF5AF2" opacity="0.85" clip-path="url(#ca)">+1.9% (+22)</text>
<text x="656.6" y="77.0" text-anchor="middle" font-size="9" fill="#34C759" opacity="0.85" clip-path="url(#ca)">+1.5% (+13)</text>
<text x="743.3" y="55.0" text-anchor="middle" font-size="9" fill="#4F8EF7" opacity="0.85" clip-path="url(#ca)">+1.4% (+28)</text>
<text x="743.3" y="66.0" text-anchor="middle" font-size="9" fill="#BF5AF2" opacity="0.85" clip-path="url(#ca)">+1.6% (+19)</text>
<text x="743.3" y="77.0" text-anchor="middle" font-size="9" fill="#34C759" opacity="0.85" clip-path="url(#ca)">+1.6% (+14)</text>
<rect x="211" y="369" width="12" height="12" fill="#4F8EF7" rx="2"/>
<text x="227" y="379" font-size="12" fill="#111827">Authors</text>
<rect x="351" y="369" width="12" height="12" fill="#BF5AF2" rx="2"/>
<text x="367" y="379" font-size="12" fill="#111827">Contributors</text>
<rect x="491" y="369" width="12" height="12" fill="#34C759" rx="2"/>
<text x="507" y="379" font-size="12" fill="#111827">Non-author contributors</text>
<text x="72" y="394" font-size="8" fill="#e5e7eb">data since Dec 11, 2025</text>
</svg>