<svg xmlns="http://www.w3.org/2000/svg" width="800" height="400" viewBox="0 0 800 400">
<defs>
  <style>text { font-family: -apple-system, BlinkMacSystemFont, 'Segoe UI', Roboto, sans-serif; }</style>
  <linearGradient id="g5" x1="0" y1="0" x2="0" y2="1">
  <stop offset="0%" stop-color="#34C759" stop-opacity="0.25"/>
  <stop offset="100%" stop-color="#34C759" stop-opacity="0"/>
</linearGradient>
<linearGradient id="g6" x1="0" y1="0" x2="0" y2="1">
  <stop offset="0%" stop-color="#4F8EF7" stop-opacity="0.25"/>
  <stop offset="100%" stop-color="#4F8EF7" stop-opacity="0"/>
</linearGradient>
<linearGradient id="g7" x1="0" y1="0" x2="0" y2="1">
  <stop offset="0%" stop-color="#FF6363" stop-opacity="0.25"/>
  <stop offset="100%" stop-color="#FF6363" stop-opacity="0"/>
</linearGradient>
  <clipPath id="ca"><rect x="72" y="45" width="698" height="295"/></clipPath>
</defs>
<rect width="800" height="400" fill="#ffffff" rx="12"/>
<text x="400" y="26" text-anchor="middle" font-size="15" font-weight="600" fill="#111827">Platform Support Over Time</text>
<line x1="72" y1="340.0" x2="770" y2="340.0" stroke="#f3f4f6" stroke-width="1"/>
<text x="66" y="344.0" text-anchor="end" font-size="11" fill="#6b7280">0</text>
<line x1="72" y1="266.3" x2="770" y2="266.3" stroke="#f3f4f6" stroke-width="1"/>
<text x="66" y="270.3" text-anchor="end" font-size="11" fill="#6b7280">200</text>
<line x1="72" y1="192.5" x2="770" y2="192.5" stroke="#f3f4f6" stroke-width="1"/>
<text x="66" y="196.5" text-anchor="end" font-size="11" fill="#6b7280">400</text>
<line x1="72" y1="118.8" x2="770" y2="118.8" stroke="#f3f4f6" stroke-width="1"/>
<text x="66" y="122.8" text-anchor="end" font-size="11" fill="#6b7280">600</text>
<line x1="72" y1="45.0" x2="770" y2="45.0" stroke="#f3f4f6" stroke-width="1"/>
<text x="66" y="49.0" text-anchor="end" font-size="11" fill="#6b7280">800</text>
<line x1="168.3" y1="45" x2="168.3" y2="340" stroke="#e5e7eb" stroke-width="1" stroke-dasharray="3,3" clip-path="url(#ca)"/>
<line x1="376.9" y1="45" x2="376.9" y2="340" stroke="#e5e7eb" stroke-width="1" stroke-dasharray="3,3" clip-path="url(#ca)"/>
<line x1="593.5" y1="45" x2="593.5" y2="340" stroke="#e5e7eb" stroke-width="1" stroke-dasharray="3,3" clip-path="url(#ca)"/>
<text x="72.0" y="358.0" text-anchor="middle" font-size="11" fill="#6b7280">Dec 11</text>
<text x="208.4" y="358.0" text-anchor="middle" font-size="11" fill="#6b7280">Jan 8</text>
<text x="352.8" y="358.0" text-anchor="middle" font-size="11" fill="#6b7280">Jan 29</text>
<text x="489.2" y="358.0" text-anchor="middle" font-size="11" fill="#6b7280">Feb 15</text>
<text x="633.6" y="358.0" text-anchor="middle" font-size="11" fill="#6b7280">Mar 6</text>
<text x="770.0" y="358.0" text-anchor="middle" font-size="11" fill="#6b7280">Mar 25</text>
<line x1="72" y1="45" x2="72" y2="340" stroke="#e5e7eb" stroke-width="1"/>
<line x1="72" y1="340" x2="770" y2="340" stroke="#e5e7eb" stroke-width="1"/>
<text x="-192.5" y="18" text-anchor="middle" font-size="12" fill="#6b7280" transform="rotate(-90)">Extensions</text>
<path d="M 72.0,340 L 72.0,218.3 L 80.0,215.0 L 88.0,214.6 L 96.1,213.2 L 104.1,212.4 L 112.1,208.7 L 120.1,206.5 L 128.2,205.4 L 136.2,203.6 L 144.2,201.3 L 152.2,200.2 L 160.3,199.9 L 168.3,198.8 L 176.3,198.0 L 184.3,197.7 L 192.3,196.6 L 200.4,195.4 L 208.4,194.3 L 216.4,193.2 L 224.4,191.8 L 232.5,190.7 L 240.5,189.6 L 248.5,188.4 L 256.5,186.2 L 264.6,185.5 L 272.6,185.5 L 280.6,182.9 L 288.6,182.2 L 296.6,181.4 L 304.7,180.7 L 312.7,178.9 L 320.7,176.3 L 328.7,175.9 L 336.8,175.5 L 344.8,173.3 L 352.8,172.6 L 360.8,170.7 L 368.9,170.4 L 376.9,170.0 L 384.9,169.3 L 392.9,169.3 L 400.9,169.3 L 409.0,164.1 L 417.0,163.7 L 425.0,162.6 L 433.0,162.3 L 441.1,161.9 L 449.1,160.8 L 457.1,160.1 L 465.1,159.3 L 473.1,157.1 L 481.2,157.1 L 489.2,157.1 L 497.2,156.7 L 505.2,153.0 L 513.3,151.9 L 521.3,151.2 L 529.3,150.1 L 537.3,149.4 L 545.4,149.4 L 553.4,147.5 L 561.4,144.9 L 569.4,144.2 L 577.4,143.8 L 585.5,142.7 L 593.5,142.7 L 601.5,142.0 L 609.5,140.9 L 617.6,140.1 L 625.6,138.7 L 633.6,137.2 L 641.6,136.8 L 649.7,136.8 L 657.7,135.3 L 665.7,135.3 L 673.7,135.3 L 681.7,133.1 L 689.8,132.8 L 697.8,132.4 L 705.8,132.4 L 713.8,132.0 L 721.9,130.6 L 729.9,129.8 L 737.9,128.7 L 745.9,128.7 L 754.0,128.3 L 762.0,126.9 L 770.0,125.8 L 770.0,340 Z" fill="url(#g5)" clip-path="url(#ca)"/>
<path d="M 72.0,218.3 L 80.0,215.0 L 88.0,214.6 L 96.1,213.2 L 104.1,212.4 L 112.1,208.7 L 120.1,206.5 L 128.2,205.4 L 136.2,203.6 L 144.2,201.3 L 152.2,200.2 L 160.3,199.9 L 168.3,198.8 L 176.3,198.0 L 184.3,197.7 L 192.3,196.6 L 200.4,195.4 L 208.4,194.3 L 216.4,193.2 L 224.4,191.8 L 232.5,190.7 L 240.5,189.6 L 248.5,188.4 L 256.5,186.2 L 264.6,185.5 L 272.6,185.5 L 280.6,182.9 L 288.6,182.2 L 296.6,181.4 L 304.7,180.7 L 312.7,178.9 L 320.7,176.3 L 328.7,175.9 L 336.8,175.5 L 344.8,173.3 L 352.8,172.6 L 360.8,170.7 L 368.9,170.4 L 376.9,170.0 L 384.9,169.3 L 392.9,169.3 L 400.9,169.3 L 409.0,164.1 L 417.0,163.7 L 425.0,162.6 L 433.0,162.3 L 441.1,161.9 L 449.1,160.8 L 457.1,160.1 L 465.1,159.3 L 473.1,157.1 L 481.2,157.1 L 489.2,157.1 L 497.2,156.7 L 505.2,153.0 L 513.3,151.9 L 521.3,151.2 L 529.3,150.1 L 537.3,149.4 L 545.4,149.4 L 553.4,147.5 L 561.4,144.9 L 569.4,144.2 L 577.4,143.8 L 585.5,142.7 L 593.5,142.7 L 601.5,142.0 L 609.5,140.9 L 617.6,140.1 L 625.6,138.7 L 633.6,137.2 L 641.6,136.8 L 649.7,136.8 L 657.7,135.3 L 665.7,135.3 L 673.7,135.3 L 681.7,133.1 L 689.8,132.8 L 697.8,132.4 L 705.8,132.4 L 713.8,132.0 L 721.9,130.6 L 729.9,129.8 L 737.9,128.7 L 745.9,128.7 L 754.0,128.3 L 762.0,126.9 L 770.0,125.8" fill="none" stroke="#34C759" stroke-width="2.5" stroke-linejoin="round" clip-path="url(#ca)"/>
<path d="M 72.0,340 L 72.0,193.2 L 80.0,193.2 L 88.0,192.9 L 96.1,191.8 L 104.1,192.1 L 112.1,192.1 L 120.1,190.7 L 128.2,189.6 L 136.2,189.6 L 144.2,189.9 L 152.2,189.6 L 160.3,189.2 L 168.3,188.8 L 176.3,188.8 L 184.3,188.8 L 192.3,189.2 L 200.4,188.4 L 208.4,187.7 L 216.4,185.5 L 224.4,184.0 L 232.5,184.0 L 240.5,183.7 L 248.5,181.4 L 256.5,178.1 L 264.6,177.0 L 272.6,176.3 L 280.6,173.7 L 288.6,171.9 L 296.6,171.1 L 304.7,170.4 L 312.7,169.6 L 320.7,169.3 L 328.7,169.3 L 336.8,166.7 L 344.8,166.0 L 352.8,165.2 L 360.8,165.2 L 368.9,163.4 L 376.9,163.0 L 384.9,161.9 L 392.9,160.4 L 400.9,158.6 L 409.0,156.0 L 417.0,153.4 L 425.0,153.0 L 433.0,152.3 L 441.1,151.6 L 449.1,149.4 L 457.1,149.4 L 465.1,148.6 L 473.1,147.5 L 481.2,146.8 L 489.2,145.3 L 497.2,145.7 L 505.2,141.2 L 513.3,140.9 L 521.3,140.5 L 529.3,139.8 L 537.3,137.6 L 545.4,137.6 L 553.4,135.3 L 561.4,132.8 L 569.4,132.8 L 577.4,132.8 L 585.5,132.4 L 593.5,132.0 L 601.5,131.7 L 609.5,129.8 L 617.6,127.6 L 625.6,126.9 L 633.6,125.4 L 641.6,125.4 L 649.7,124.3 L 657.7,122.1 L 665.7,121.0 L 673.7,120.6 L 681.7,118.0 L 689.8,117.6 L 697.8,117.6 L 705.8,117.3 L 713.8,117.3 L 721.9,115.4 L 729.9,114.7 L 737.9,113.6 L 745.9,113.2 L 754.0,112.5 L 762.0,109.5 L 770.0,105.5 L 770.0,340 Z" fill="url(#g6)" clip-path="url(#ca)"/>
<path d="M 72.0,193.2 L 80.0,193.2 L 88.0,192.9 L 96.1,191.8 L 104.1,192.1 L 112.1,192.1 L 120.1,190.7 L 128.2,189.6 L 136.2,189.6 L 144.2,189.9 L 152.2,189.6 L 160.3,189.2 L 168.3,188.8 L 176.3,188.8 L 184.3,188.8 L 192.3,189.2 L 200.4,188.4 L 208.4,187.7 L 216.4,185.5 L 224.4,184.0 L 232.5,184.0 L 240.5,183.7 L 248.5,181.4 L 256.5,178.1 L 264.6,177.0 L 272.6,176.3 L 280.6,173.7 L 288.6,171.9 L 296.6,171.1 L 304.7,170.4 L 312.7,169.6 L 320.7,169.3 L 328.7,169.3 L 336.8,166.7 L 344.8,166.0 L 352.8,165.2 L 360.8,165.2 L 368.9,163.4 L 376.9,163.0 L 384.9,161.9 L 392.9,160.4 L 400.9,158.6 L 409.0,156.0 L 417.0,153.4 L 425.0,153.0 L 433.0,152.3 L 441.1,151.6 L 449.1,149.4 L 457.1,149.4 L 465.1,148.6 L 473.1,147.5 L 481.2,146.8 L 489.2,145.3 L 497.2,145.7 L 505.2,141.2 L 513.3,140.9 L 521.3,140.5 L 529.3,139.8 L 537.3,137.6 L 545.4,137.6 L 553.4,135.3 L 561.4,132.8 L 569.4,132.8 L 577.4,132.8 L 585.5,132.4 L 593.5,132.0 L 601.5,131.7 L 609.5,129.8 L 617.6,127.6 L 625.6,126.9 L 633.6,125.4 L 641.6,125.4 L 649.7,124.3 L 657.7,122.1 L 665.7,121.0 L 673.7,120.6 L 681.7,118.0 L 689.8,117.6 L 697.8,117.6 L 705.8,117.3 L 713.8,117.3 L 721.9,115.4 L 729.9,114.7 L 737.9,113.6 L 745.9,113.2 L 754.0,112.5 L 762.0,109.5 L 770.0,105.5" fill="none" stroke="#4F8EF7" stroke-width="2.5" stroke-linejoin="round" clip-path="url(#ca)"/>
<path d="M 72.0,340 L 72.0,337.8 L 80.0,337.4 L 88.0,337.4 L 96.1,337.1 L 104.1,337.1 L 112.1,337.1 L 120.1,337.1 L 128.2,337.1 L 136.2,336.3 L 144.2,336.3 L 152.2,336.3 L 160.3,336.3 L 168.3,336.3 L 176.3,335.9 L 184.3,335.9 L 192.3,335.9 L 200.4,335.9 L 208.4,335.9 L 216.4,335.6 L 224.4,334.8 L 232.5,334.5 L 240.5,334.5 L 248.5,334.5 L 256.5,334.1 L 264.6,334.1 L 272.6,334.1 L 280.6,333.7 L 288.6,333.7 L 296.6,333.7 L 304.7,333.4 L 312.7,333.4 L 320.7,333.4 L 328.7,333.4 L 336.8,333.0 L 344.8,333.0 L 352.8,333.0 L 360.8,333.0 L 368.9,333.0 L 376.9,333.0 L 384.9,333.0 L 392.9,333.0 L 400.9,333.0 L 409.0,333.0 L 417.0,333.0 L 425.0,333.0 L 433.0,333.0 L 441.1,332.6 L 449.1,332.6 L 457.1,332.6 L 465.1,332.6 L 473.1,332.6 L 481.2,332.6 L 489.2,332.6 L 497.2,332.6 L 505.2,332.6 L 513.3,332.6 L 521.3,332.6 L 529.3,332.6 L 537.3,332.3 L 545.4,332.3 L 553.4,332.3 L 561.4,332.3 L 569.4,332.3 L 577.4,332.3 L 585.5,332.3 L 593.5,332.3 L 601.5,332.3 L 609.5,332.3 L 617.6,332.3 L 625.6,332.3 L 633.6,332.3 L 641.6,332.3 L 649.7,332.3 L 657.7,332.3 L 665.7,332.3 L 673.7,332.3 L 681.7,332.3 L 689.8,332.3 L 697.8,332.3 L 705.8,332.3 L 713.8,332.3 L 721.9,332.3 L 729.9,332.3 L 737.9,332.3 L 745.9,332.3 L 754.0,332.3 L 762.0,332.3 L 770.0,332.3 L 770.0,340 Z" fill="url(#g7)" clip-path="url(#ca)"/>
<path d="M 72.0,337.8 L 80.0,337.4 L 88.0,337.4 L 96.1,337.1 L 104.1,337.1 L 112.1,337.1 L 120.1,337.1 L 128.2,337.1 L 136.2,336.3 L 144.2,336.3 L 152.2,336.3 L 160.3,336.3 L 168.3,336.3 L 176.3,335.9 L 184.3,335.9 L 192.3,335.9 L 200.4,335.9 L 208.4,335.9 L 216.4,335.6 L 224.4,334.8 L 232.5,334.5 L 240.5,334.5 L 248.5,334.5 L 256.5,334.1 L 264.6,334.1 L 272.6,334.1 L 280.6,333.7 L 288.6,333.7 L 296.6,333.7 L 304.7,333.4 L 312.7,333.4 L 320.7,333.4 L 328.7,333.4 L 336.8,333.0 L 344.8,333.0 L 352.8,333.0 L 360.8,333.0 L 368.9,333.0 L 376.9,333.0 L 384.9,333.0 L 392.9,333.0 L 400.9,333.0 L 409.0,333.0 L 417.0,333.0 L 425.0,333.0 L 433.0,333.0 L 441.1,332.6 L 449.1,332.6 L 457.1,332.6 L 465.1,332.6 L 473.1,332.6 L 481.2,332.6 L 489.2,332.6 L 497.2,332.6 L 505.2,332.6 L 513.3,332.6 L 521.3,332.6 L 529.3,332.6 L 537.3,332.3 L 545.4,332.3 L 553.4,332.3 L 561.4,332.3 L 569.4,332.3 L 577.4,332.3 L 585.5,332.3 L 593.5,332.3 L 601.5,332.3 L 609.5,332.3 L 617.6,332.3 L 625.6,332.3 L 633.6,332.3 L 641.6,332.3 L 649.7,332.3 L 657.7,332.3 L 665.7,332.3 L 673.7,332.3 L 681.7,332.3 L 689.8,332.3 L 697.8,332.3 L 705.8,332.3 L 713.8,332.3 L 721.9,332.3 L 729.9,332.3 L 737.9,332.3 L 745.9,332.3 L 754.0,332.3 L 762.0,332.3 L 770.0,332.3" fill="none" stroke="#FF6363" stroke-width="2.5" stroke-linejoin="round" clip-path="url(#ca)"/>
<text x="116.1" y="55.0" text-anchor="middle" font-size="9" fill="#34C759" opacity="0.85" clip-path="url(#ca)">+15.2% (+50)</text>
<text x="116.1" y="66.0" text-anchor="middle" font-size="9" fill="#4F8EF7" opacity="0.85" clip-path="url(#ca)">+2.8% (+11)</text>
<text x="116.1" y="77.0" text-anchor="middle" font-size="9" fill="#FF6363" opacity="0.85" clip-path="url(#ca)">+66.7% (+4)</text>
<text x="268.6" y="55.0" text-anchor="middle" font-size="9" fill="#34C759" opacity="0.85" clip-path="url(#ca)">+20.1% (+77)</text>
<text x="268.6" y="66.0" text-anchor="middle" font-size="9" fill="#4F8EF7" opacity="0.85" clip-path="url(#ca)">+16.8% (+69)</text>
<text x="268.6" y="77.0" text-anchor="middle" font-size="9" fill="#FF6363" opacity="0.85" clip-path="url(#ca)">+90.0% (+9)</text>
<text x="481.2" y="55.0" text-anchor="middle" font-size="9" fill="#34C759" opacity="0.85" clip-path="url(#ca)">+16.1% (+74)</text>
<text x="481.2" y="66.0" text-anchor="middle" font-size="9" fill="#4F8EF7" opacity="0.85" clip-path="url(#ca)">+17.3% (+83)</text>
<text x="481.2" y="77.0" text-anchor="middle" font-size="9" fill="#FF6363" opacity="0.85" clip-path="url(#ca)">+10.5% (+2)</text>
<text x="681.7" y="55.0" text-anchor="middle" font-size="9" fill="#34C759" opacity="0.85" clip-path="url(#ca)">+8.6% (+46)</text>
<text x="681.7" y="66.0" text-anchor="middle" font-size="9" fill="#4F8EF7" opacity="0.85" clip-path="url(#ca)">+12.8% (+72)</text>
<text x="681.7" y="77.0" text-anchor="middle" font-size="9" fill="#FF6363" opacity="0.85" clip-path="url(#ca)">+0.0% (+0)</text>
<rect x="211" y="369" width="12" height="12" fill="#34C759" rx="2"/>
<text x="227" y="379" font-size="12" fill="#111827">macOS + Windows</text>
<rect x="351" y="369" width="12" height="12" fill="#4F8EF7" rx="2"/>
<text x="367" y="379" font-size="12" fill="#111827">macOS only</text>
<rect x="491" y="369" width="12" height="12" fill="#FF6363" rx="2"/>
<text x="507" y="379" font-size="12" fill="#111827">Windows only</text>
<text x="72" y="394" font-size="8" fill="#e5e7eb">data since Dec 11, 2025</text>
</svg>