<svg xmlns="http://www.w3.org/2000/svg" width="800" height="400" viewBox="0 0 800 400">
<defs>
  <style>text { font-family: -apple-system, BlinkMacSystemFont, 'Segoe UI', Roboto, sans-serif; }</style>
  <linearGradient id="g1" x1="0" y1="0" x2="0" y2="1">
  <stop offset="0%" stop-color="#FF6363" stop-opacity="0.25"/>
  <stop offset="100%" stop-color="#FF6363" stop-opacity="0"/>
</linearGradient>
  <clipPath id="ca"><rect x="72" y="45" width="698" height="295"/></clipPath>
</defs>
<rect width="800" height="400" fill="#ffffff" rx="12"/>
<text x="400" y="26" text-anchor="middle" font-size="15" font-weight="600" fill="#111827">Packages Growth Over Time</text>
<line x1="72" y1="340.0" x2="770" y2="340.0" stroke="#f3f4f6" stroke-width="1"/>
<text x="66" y="344.0" text-anchor="end" font-size="11" fill="#6b7280">2.4k</text>
<line x1="72" y1="290.8" x2="770" y2="290.8" stroke="#f3f4f6" stroke-width="1"/>
<text x="66" y="294.8" text-anchor="end" font-size="11" fill="#6b7280">2.5k</text>
<line x1="72" y1="241.7" x2="770" y2="241.7" stroke="#f3f4f6" stroke-width="1"/>
<text x="66" y="245.7" text-anchor="end" font-size="11" fill="#6b7280">2.6k</text>
<line x1="72" y1="192.5" x2="770" y2="192.5" stroke="#f3f4f6" stroke-width="1"/>
<text x="66" y="196.5" text-anchor="end" font-size="11" fill="#6b7280">2.7k</text>
<line x1="72" y1="143.3" x2="770" y2="143.3" stroke="#f3f4f6" stroke-width="1"/>
<text x="66" y="147.3" text-anchor="end" font-size="11" fill="#6b7280">2.8k</text>
<line x1="72" y1="94.2" x2="770" y2="94.2" stroke="#f3f4f6" stroke-width="1"/>
<text x="66" y="98.2" text-anchor="end" font-size="11" fill="#6b7280">2.9k</text>
<line x1="72" y1="45.0" x2="770" y2="45.0" stroke="#f3f4f6" stroke-width="1"/>
<text x="66" y="49.0" text-anchor="end" font-size="11" fill="#6b7280">3.0k</text>
<line x1="129.4" y1="45" x2="129.4" y2="340" stroke="#e5e7eb" stroke-width="1" stroke-dasharray="3,3" clip-path="url(#ca)"/>
<line x1="253.7" y1="45" x2="253.7" y2="340" stroke="#e5e7eb" stroke-width="1" stroke-dasharray="3,3" clip-path="url(#ca)"/>
<line x1="382.8" y1="45" x2="382.8" y2="340" stroke="#e5e7eb" stroke-width="1" stroke-dasharray="3,3" clip-path="url(#ca)"/>
<line x1="511.8" y1="45" x2="511.8" y2="340" stroke="#e5e7eb" stroke-width="1" stroke-dasharray="3,3" clip-path="url(#ca)"/>
<line x1="640.9" y1="45" x2="640.9" y2="340" stroke="#e5e7eb" stroke-width="1" stroke-dasharray="3,3" clip-path="url(#ca)"/>
<line x1="765.2" y1="45" x2="765.2" y2="340" stroke="#e5e7eb" stroke-width="1" stroke-dasharray="3,3" clip-path="url(#ca)"/>
<text x="72.0" y="358.0" text-anchor="middle" font-size="11" fill="#6b7280">Dec 11</text>
<text x="210.6" y="358.0" text-anchor="middle" font-size="11" fill="#6b7280">Jan 23</text>
<text x="349.3" y="358.0" text-anchor="middle" font-size="11" fill="#6b7280">Feb 21</text>
<text x="492.7" y="358.0" text-anchor="middle" font-size="11" fill="#6b7280">Mar 26</text>
<text x="631.4" y="358.0" text-anchor="middle" font-size="11" fill="#6b7280">Apr 29</text>
<text x="770.0" y="358.0" text-anchor="middle" font-size="11" fill="#6b7280">Jun 3</text>
<line x1="72" y1="45" x2="72" y2="340" stroke="#e5e7eb" stroke-width="1"/>
<line x1="72" y1="340" x2="770" y2="340" stroke="#e5e7eb" stroke-width="1"/>
<text x="-192.5" y="18" text-anchor="middle" font-size="12" fill="#6b7280" transform="rotate(-90)">Extensions</text>
<path d="M 72.0,340 L 72.0,302.1 L 76.8,301.6 L 81.6,301.6 L 86.3,300.2 L 91.1,300.2 L 95.9,299.2 L 100.7,298.2 L 105.5,297.7 L 110.2,295.3 L 115.0,293.3 L 119.8,293.3 L 124.6,293.3 L 129.4,293.3 L 134.2,292.3 L 138.9,292.3 L 143.7,292.3 L 148.5,291.3 L 153.3,289.4 L 158.1,285.9 L 162.8,283.5 L 167.6,282.5 L 172.4,282.0 L 177.2,280.0 L 182.0,274.1 L 186.7,272.1 L 191.5,272.1 L 196.3,267.2 L 201.1,265.8 L 205.9,263.8 L 210.6,262.3 L 215.4,259.4 L 220.2,256.9 L 225.0,256.4 L 229.8,252.5 L 234.5,249.0 L 239.3,249.0 L 244.1,246.6 L 248.9,244.6 L 253.7,244.1 L 258.5,243.6 L 263.2,243.1 L 268.0,241.7 L 272.8,232.8 L 277.6,228.9 L 282.4,226.9 L 287.1,225.9 L 291.9,224.5 L 296.7,221.0 L 301.5,220.0 L 306.3,219.1 L 311.0,216.1 L 315.8,215.1 L 320.6,214.1 L 325.4,214.1 L 330.2,205.3 L 334.9,204.3 L 339.7,203.3 L 344.5,201.3 L 349.3,198.9 L 354.1,198.9 L 358.8,195.0 L 363.6,188.6 L 368.4,187.6 L 373.2,188.1 L 378.0,186.6 L 382.8,186.1 L 387.5,186.1 L 392.3,183.2 L 397.1,180.7 L 401.9,178.7 L 406.7,176.3 L 411.4,175.8 L 416.2,175.8 L 421.0,172.3 L 425.8,171.4 L 430.6,170.9 L 435.3,165.0 L 440.1,164.5 L 444.9,164.5 L 449.7,164.5 L 454.5,164.0 L 459.2,161.5 L 464.0,159.6 L 468.8,157.1 L 473.6,156.6 L 478.4,155.1 L 483.2,150.7 L 487.9,146.8 L 492.7,146.3 L 497.5,145.8 L 502.3,144.3 L 507.1,139.4 L 511.8,138.4 L 516.6,136.9 L 521.4,134.0 L 526.2,133.5 L 531.0,133.0 L 535.7,133.0 L 540.5,132.0 L 545.3,129.1 L 550.1,128.1 L 554.9,127.1 L 559.6,126.6 L 564.4,125.6 L 569.2,120.7 L 574.0,120.2 L 578.8,119.2 L 583.5,118.8 L 588.3,116.3 L 593.1,115.8 L 597.9,115.3 L 602.7,113.8 L 607.5,111.9 L 612.2,111.9 L 617.0,111.9 L 621.8,111.9 L 626.6,110.9 L 631.4,108.4 L 636.1,107.9 L 640.9,105.5 L 645.7,105.0 L 650.5,104.5 L 655.3,101.5 L 660.0,98.6 L 664.8,98.1 L 669.6,97.6 L 674.4,91.2 L 679.2,89.3 L 683.9,87.8 L 688.7,87.3 L 693.5,83.8 L 698.3,83.8 L 703.1,81.4 L 707.8,79.9 L 712.6,75.0 L 717.4,73.0 L 722.2,72.5 L 727.0,72.0 L 731.8,72.0 L 736.5,71.6 L 741.3,68.6 L 746.1,66.1 L 750.9,66.1 L 755.7,65.6 L 760.4,65.6 L 765.2,63.7 L 770.0,62.7 L 770.0,340 Z" fill="url(#g1)" clip-path="url(#ca)"/>
<path d="M 72.0,302.1 L 76.8,301.6 L 81.6,301.6 L 86.3,300.2 L 91.1,300.2 L 95.9,299.2 L 100.7,298.2 L 105.5,297.7 L 110.2,295.3 L 115.0,293.3 L 119.8,293.3 L 124.6,293.3 L 129.4,293.3 L 134.2,292.3 L 138.9,292.3 L 143.7,292.3 L 148.5,291.3 L 153.3,289.4 L 158.1,285.9 L 162.8,283.5 L 167.6,282.5 L 172.4,282.0 L 177.2,280.0 L 182.0,274.1 L 186.7,272.1 L 191.5,272.1 L 196.3,267.2 L 201.1,265.8 L 205.9,263.8 L 210.6,262.3 L 215.4,259.4 L 220.2,256.9 L 225.0,256.4 L 229.8,252.5 L 234.5,249.0 L 239.3,249.0 L 244.1,246.6 L 248.9,244.6 L 253.7,244.1 L 258.5,243.6 L 263.2,243.1 L 268.0,241.7 L 272.8,232.8 L 277.6,228.9 L 282.4,226.9 L 287.1,225.9 L 291.9,224.5 L 296.7,221.0 L 301.5,220.0 L 306.3,219.1 L 311.0,216.1 L 315.8,215.1 L 320.6,214.1 L 325.4,214.1 L 330.2,205.3 L 334.9,204.3 L 339.7,203.3 L 344.5,201.3 L 349.3,198.9 L 354.1,198.9 L 358.8,195.0 L 363.6,188.6 L 368.4,187.6 L 373.2,188.1 L 378.0,186.6 L 382.8,186.1 L 387.5,186.1 L 392.3,183.2 L 397.1,180.7 L 401.9,178.7 L 406.7,176.3 L 411.4,175.8 L 416.2,175.8 L 421.0,172.3 L 425.8,171.4 L 430.6,170.9 L 435.3,165.0 L 440.1,164.5 L 444.9,164.5 L 449.7,164.5 L 454.5,164.0 L 459.2,161.5 L 464.0,159.6 L 468.8,157.1 L 473.6,156.6 L 478.4,155.1 L 483.2,150.7 L 487.9,146.8 L 492.7,146.3 L 497.5,145.8 L 502.3,144.3 L 507.1,139.4 L 511.8,138.4 L 516.6,136.9 L 521.4,134.0 L 526.2,133.5 L 531.0,133.0 L 535.7,133.0 L 540.5,132.0 L 545.3,129.1 L 550.1,128.1 L 554.9,127.1 L 559.6,126.6 L 564.4,125.6 L 569.2,120.7 L 574.0,120.2 L 578.8,119.2 L 583.5,118.8 L 588.3,116.3 L 593.1,115.8 L 597.9,115.3 L 602.7,113.8 L 607.5,111.9 L 612.2,111.9 L 617.0,111.9 L 621.8,111.9 L 626.6,110.9 L 631.4,108.4 L 636.1,107.9 L 640.9,105.5 L 645.7,105.0 L 650.5,104.5 L 655.3,101.5 L 660.0,98.6 L 664.8,98.1 L 669.6,97.6 L 674.4,91.2 L 679.2,89.3 L 683.9,87.8 L 688.7,87.3 L 693.5,83.8 L 698.3,83.8 L 703.1,81.4 L 707.8,79.9 L 712.6,75.0 L 717.4,73.0 L 722.2,72.5 L 727.0,72.0 L 731.8,72.0 L 736.5,71.6 L 741.3,68.6 L 746.1,66.1 L 750.9,66.1 L 755.7,65.6 L 760.4,65.6 L 765.2,63.7 L 770.0,62.7" fill="none" stroke="#FF6363" stroke-width="2.5" stroke-linejoin="round" clip-path="url(#ca)"/>
<text x="98.3" y="55.0" text-anchor="middle" font-size="9" fill="#FF6363" opacity="0.85" clip-path="url(#ca)">+0.7% (+18)</text>
<text x="189.1" y="55.0" text-anchor="middle" font-size="9" fill="#FF6363" opacity="0.85" clip-path="url(#ca)">+4.0% (+99)</text>
<text x="315.8" y="55.0" text-anchor="middle" font-size="9" fill="#FF6363" opacity="0.85" clip-path="url(#ca)">+4.5% (+117)</text>
<text x="444.9" y="55.0" text-anchor="middle" font-size="9" fill="#FF6363" opacity="0.85" clip-path="url(#ca)">+3.5% (+95)</text>
<text x="574.0" y="55.0" text-anchor="middle" font-size="9" fill="#FF6363" opacity="0.85" clip-path="url(#ca)">+2.2% (+62)</text>
<text x="700.7" y="55.0" text-anchor="middle" font-size="9" fill="#FF6363" opacity="0.85" clip-path="url(#ca)">+2.8% (+81)</text>
<text x="767.6" y="55.0" text-anchor="middle" font-size="9" fill="#FF6363" opacity="0.85" clip-path="url(#ca)">+0.1% (+2)</text>
<rect x="351" y="369" width="12" height="12" fill="#FF6363" rx="2"/>
<text x="367" y="379" font-size="12" fill="#111827">Extensions</text>
<text x="72" y="394" font-size="8" fill="#e5e7eb">data since Dec 11, 2025</text>
</svg>