<svg xmlns="http://www.w3.org/2000/svg" width="800" height="400" viewBox="0 0 800 400">
<defs>
  <style>text { font-family: -apple-system, BlinkMacSystemFont, 'Segoe UI', Roboto, sans-serif; }</style>
  <linearGradient id="g1" x1="0" y1="0" x2="0" y2="1">
  <stop offset="0%" stop-color="#FF6363" stop-opacity="0.25"/>
  <stop offset="100%" stop-color="#FF6363" stop-opacity="0"/>
</linearGradient>
  <clipPath id="ca"><rect x="72" y="45" width="698" height="295"/></clipPath>
</defs>
<rect width="800" height="400" fill="#ffffff" rx="12"/>
<text x="400" y="26" text-anchor="middle" font-size="15" font-weight="600" fill="#111827">Packages Growth Over Time</text>
<line x1="72" y1="340.0" x2="770" y2="340.0" stroke="#f3f4f6" stroke-width="1"/>
<text x="66" y="344.0" text-anchor="end" font-size="11" fill="#6b7280">2.4k</text>
<line x1="72" y1="281.0" x2="770" y2="281.0" stroke="#f3f4f6" stroke-width="1"/>
<text x="66" y="285.0" text-anchor="end" font-size="11" fill="#6b7280">2.5k</text>
<line x1="72" y1="222.0" x2="770" y2="222.0" stroke="#f3f4f6" stroke-width="1"/>
<text x="66" y="226.0" text-anchor="end" font-size="11" fill="#6b7280">2.6k</text>
<line x1="72" y1="163.0" x2="770" y2="163.0" stroke="#f3f4f6" stroke-width="1"/>
<text x="66" y="167.0" text-anchor="end" font-size="11" fill="#6b7280">2.7k</text>
<line x1="72" y1="104.0" x2="770" y2="104.0" stroke="#f3f4f6" stroke-width="1"/>
<text x="66" y="108.0" text-anchor="end" font-size="11" fill="#6b7280">2.8k</text>
<line x1="72" y1="45.0" x2="770" y2="45.0" stroke="#f3f4f6" stroke-width="1"/>
<text x="66" y="49.0" text-anchor="end" font-size="11" fill="#6b7280">2.9k</text>
<line x1="164.0" y1="45" x2="164.0" y2="340" stroke="#e5e7eb" stroke-width="1" stroke-dasharray="3,3" clip-path="url(#ca)"/>
<line x1="363.5" y1="45" x2="363.5" y2="340" stroke="#e5e7eb" stroke-width="1" stroke-dasharray="3,3" clip-path="url(#ca)"/>
<line x1="570.6" y1="45" x2="570.6" y2="340" stroke="#e5e7eb" stroke-width="1" stroke-dasharray="3,3" clip-path="url(#ca)"/>
<text x="72.0" y="358.0" text-anchor="middle" font-size="11" fill="#6b7280">Dec 11</text>
<text x="210.1" y="358.0" text-anchor="middle" font-size="11" fill="#6b7280">Jan 9</text>
<text x="348.1" y="358.0" text-anchor="middle" font-size="11" fill="#6b7280">Jan 30</text>
<text x="493.9" y="358.0" text-anchor="middle" font-size="11" fill="#6b7280">Feb 18</text>
<text x="631.9" y="358.0" text-anchor="middle" font-size="11" fill="#6b7280">Mar 10</text>
<text x="770.0" y="358.0" text-anchor="middle" font-size="11" fill="#6b7280">Mar 31</text>
<line x1="72" y1="45" x2="72" y2="340" stroke="#e5e7eb" stroke-width="1"/>
<line x1="72" y1="340" x2="770" y2="340" stroke="#e5e7eb" stroke-width="1"/>
<text x="-192.5" y="18" text-anchor="middle" font-size="12" fill="#6b7280" transform="rotate(-90)">Extensions</text>
<path d="M 72.0,340 L 72.0,294.6 L 79.7,294.0 L 87.3,294.0 L 95.0,292.2 L 102.7,292.2 L 110.4,291.0 L 118.0,289.9 L 125.7,289.3 L 133.4,286.3 L 141.0,283.9 L 148.7,283.9 L 156.4,283.9 L 164.0,283.9 L 171.7,282.8 L 179.4,282.8 L 187.1,282.8 L 194.7,281.6 L 202.4,279.2 L 210.1,275.1 L 217.7,272.1 L 225.4,271.0 L 233.1,270.4 L 240.7,268.0 L 248.4,260.9 L 256.1,258.6 L 263.8,258.6 L 271.4,252.7 L 279.1,250.9 L 286.8,248.6 L 294.4,246.8 L 302.1,243.2 L 309.8,240.3 L 317.5,239.7 L 325.1,235.0 L 332.8,230.8 L 340.5,230.8 L 348.1,227.9 L 355.8,225.5 L 363.5,224.9 L 371.1,224.4 L 378.8,223.8 L 386.5,222.0 L 394.2,211.4 L 401.8,206.7 L 409.5,204.3 L 417.2,203.1 L 424.8,201.3 L 432.5,197.2 L 440.2,196.0 L 447.8,194.9 L 455.5,191.3 L 463.2,190.1 L 470.9,189.0 L 478.5,189.0 L 486.2,178.3 L 493.9,177.2 L 501.5,176.0 L 509.2,173.6 L 516.9,170.7 L 524.5,170.7 L 532.2,166.0 L 539.9,158.3 L 547.6,157.1 L 555.2,157.7 L 562.9,155.9 L 570.6,155.3 L 578.2,155.3 L 585.9,151.8 L 593.6,148.8 L 601.3,146.5 L 608.9,143.5 L 616.6,142.9 L 624.3,142.9 L 631.9,138.8 L 639.6,137.6 L 647.3,137.0 L 654.9,130.0 L 662.6,129.4 L 670.3,129.4 L 678.0,129.4 L 685.6,128.8 L 693.3,125.8 L 701.0,123.5 L 708.6,120.5 L 716.3,119.9 L 724.0,118.2 L 731.6,112.8 L 739.3,108.1 L 747.0,107.5 L 754.7,106.9 L 762.3,105.2 L 770.0,101.6 L 770.0,340 Z" fill="url(#g1)" clip-path="url(#ca)"/>
<path d="M 72.0,294.6 L 79.7,294.0 L 87.3,294.0 L 95.0,292.2 L 102.7,292.2 L 110.4,291.0 L 118.0,289.9 L 125.7,289.3 L 133.4,286.3 L 141.0,283.9 L 148.7,283.9 L 156.4,283.9 L 164.0,283.9 L 171.7,282.8 L 179.4,282.8 L 187.1,282.8 L 194.7,281.6 L 202.4,279.2 L 210.1,275.1 L 217.7,272.1 L 225.4,271.0 L 233.1,270.4 L 240.7,268.0 L 248.4,260.9 L 256.1,258.6 L 263.8,258.6 L 271.4,252.7 L 279.1,250.9 L 286.8,248.6 L 294.4,246.8 L 302.1,243.2 L 309.8,240.3 L 317.5,239.7 L 325.1,235.0 L 332.8,230.8 L 340.5,230.8 L 348.1,227.9 L 355.8,225.5 L 363.5,224.9 L 371.1,224.4 L 378.8,223.8 L 386.5,222.0 L 394.2,211.4 L 401.8,206.7 L 409.5,204.3 L 417.2,203.1 L 424.8,201.3 L 432.5,197.2 L 440.2,196.0 L 447.8,194.9 L 455.5,191.3 L 463.2,190.1 L 470.9,189.0 L 478.5,189.0 L 486.2,178.3 L 493.9,177.2 L 501.5,176.0 L 509.2,173.6 L 516.9,170.7 L 524.5,170.7 L 532.2,166.0 L 539.9,158.3 L 547.6,157.1 L 555.2,157.7 L 562.9,155.9 L 570.6,155.3 L 578.2,155.3 L 585.9,151.8 L 593.6,148.8 L 601.3,146.5 L 608.9,143.5 L 616.6,142.9 L 624.3,142.9 L 631.9,138.8 L 639.6,137.6 L 647.3,137.0 L 654.9,130.0 L 662.6,129.4 L 670.3,129.4 L 678.0,129.4 L 685.6,128.8 L 693.3,125.8 L 701.0,123.5 L 708.6,120.5 L 716.3,119.9 L 724.0,118.2 L 731.6,112.8 L 739.3,108.1 L 747.0,107.5 L 754.7,106.9 L 762.3,105.2 L 770.0,101.6" fill="none" stroke="#FF6363" stroke-width="2.5" stroke-linejoin="round" clip-path="url(#ca)"/>
<text x="114.2" y="55.0" text-anchor="middle" font-size="9" fill="#FF6363" opacity="0.85" clip-path="url(#ca)">+0.7% (+18)</text>
<text x="259.9" y="55.0" text-anchor="middle" font-size="9" fill="#FF6363" opacity="0.85" clip-path="url(#ca)">+4.0% (+99)</text>
<text x="463.2" y="55.0" text-anchor="middle" font-size="9" fill="#FF6363" opacity="0.85" clip-path="url(#ca)">+4.5% (+117)</text>
<text x="670.3" y="55.0" text-anchor="middle" font-size="9" fill="#FF6363" opacity="0.85" clip-path="url(#ca)">+3.4% (+91)</text>
<rect x="351" y="369" width="12" height="12" fill="#FF6363" rx="2"/>
<text x="367" y="379" font-size="12" fill="#111827">Extensions</text>
<text x="72" y="394" font-size="8" fill="#e5e7eb">data since Dec 11, 2025</text>
</svg>