<svg xmlns="http://www.w3.org/2000/svg" width="800" height="400" viewBox="0 0 800 400">
<defs>
  <style>text { font-family: -apple-system, BlinkMacSystemFont, 'Segoe UI', Roboto, sans-serif; }</style>
  <linearGradient id="g5" x1="0" y1="0" x2="0" y2="1">
  <stop offset="0%" stop-color="#34C759" stop-opacity="0.25"/>
  <stop offset="100%" stop-color="#34C759" stop-opacity="0"/>
</linearGradient>
<linearGradient id="g6" x1="0" y1="0" x2="0" y2="1">
  <stop offset="0%" stop-color="#4F8EF7" stop-opacity="0.25"/>
  <stop offset="100%" stop-color="#4F8EF7" stop-opacity="0"/>
</linearGradient>
<linearGradient id="g7" x1="0" y1="0" x2="0" y2="1">
  <stop offset="0%" stop-color="#FF6363" stop-opacity="0.25"/>
  <stop offset="100%" stop-color="#FF6363" stop-opacity="0"/>
</linearGradient>
  <clipPath id="ca"><rect x="72" y="45" width="698" height="295"/></clipPath>
</defs>
<rect width="800" height="400" fill="#ffffff" rx="12"/>
<text x="400" y="26" text-anchor="middle" font-size="15" font-weight="600" fill="#111827">Platform Support Over Time</text>
<line x1="72" y1="340.0" x2="770" y2="340.0" stroke="#f3f4f6" stroke-width="1"/>
<text x="66" y="344.0" text-anchor="end" font-size="11" fill="#6b7280">0</text>
<line x1="72" y1="281.0" x2="770" y2="281.0" stroke="#f3f4f6" stroke-width="1"/>
<text x="66" y="285.0" text-anchor="end" font-size="11" fill="#6b7280">200</text>
<line x1="72" y1="222.0" x2="770" y2="222.0" stroke="#f3f4f6" stroke-width="1"/>
<text x="66" y="226.0" text-anchor="end" font-size="11" fill="#6b7280">400</text>
<line x1="72" y1="163.0" x2="770" y2="163.0" stroke="#f3f4f6" stroke-width="1"/>
<text x="66" y="167.0" text-anchor="end" font-size="11" fill="#6b7280">600</text>
<line x1="72" y1="104.0" x2="770" y2="104.0" stroke="#f3f4f6" stroke-width="1"/>
<text x="66" y="108.0" text-anchor="end" font-size="11" fill="#6b7280">800</text>
<line x1="72" y1="45.0" x2="770" y2="45.0" stroke="#f3f4f6" stroke-width="1"/>
<text x="66" y="49.0" text-anchor="end" font-size="11" fill="#6b7280">1.0k</text>
<line x1="122.5" y1="45" x2="122.5" y2="340" stroke="#e5e7eb" stroke-width="1" stroke-dasharray="3,3" clip-path="url(#ca)"/>
<line x1="231.8" y1="45" x2="231.8" y2="340" stroke="#e5e7eb" stroke-width="1" stroke-dasharray="3,3" clip-path="url(#ca)"/>
<line x1="345.3" y1="45" x2="345.3" y2="340" stroke="#e5e7eb" stroke-width="1" stroke-dasharray="3,3" clip-path="url(#ca)"/>
<line x1="458.8" y1="45" x2="458.8" y2="340" stroke="#e5e7eb" stroke-width="1" stroke-dasharray="3,3" clip-path="url(#ca)"/>
<line x1="572.4" y1="45" x2="572.4" y2="340" stroke="#e5e7eb" stroke-width="1" stroke-dasharray="3,3" clip-path="url(#ca)"/>
<line x1="681.7" y1="45" x2="681.7" y2="340" stroke="#e5e7eb" stroke-width="1" stroke-dasharray="3,3" clip-path="url(#ca)"/>
<text x="72.0" y="358.0" text-anchor="middle" font-size="11" fill="#6b7280">Dec 11</text>
<text x="210.8" y="358.0" text-anchor="middle" font-size="11" fill="#6b7280">Jan 27</text>
<text x="349.5" y="358.0" text-anchor="middle" font-size="11" fill="#6b7280">Mar 2</text>
<text x="492.5" y="358.0" text-anchor="middle" font-size="11" fill="#6b7280">Apr 10</text>
<text x="631.2" y="358.0" text-anchor="middle" font-size="11" fill="#6b7280">May 20</text>
<text x="770.0" y="358.0" text-anchor="middle" font-size="11" fill="#6b7280">Jun 27</text>
<line x1="72" y1="45" x2="72" y2="340" stroke="#e5e7eb" stroke-width="1"/>
<line x1="72" y1="340" x2="770" y2="340" stroke="#e5e7eb" stroke-width="1"/>
<text x="-192.5" y="18" text-anchor="middle" font-size="12" fill="#6b7280" transform="rotate(-90)">Extensions</text>
<path d="M 72.0,340 L 72.0,242.6 L 76.2,240.0 L 80.4,239.7 L 84.6,238.5 L 88.8,237.9 L 93.0,235.0 L 97.2,233.2 L 101.4,232.3 L 105.6,230.8 L 109.8,229.1 L 114.0,228.2 L 118.3,227.9 L 122.5,227.0 L 126.7,226.4 L 130.9,226.1 L 135.1,225.2 L 139.3,224.4 L 143.5,223.5 L 147.7,222.6 L 151.9,221.4 L 156.1,220.5 L 160.3,219.6 L 164.5,218.8 L 168.7,217.0 L 172.9,216.4 L 177.1,216.4 L 181.3,214.3 L 185.5,213.7 L 189.7,213.2 L 193.9,212.6 L 198.1,211.1 L 202.3,209.0 L 206.6,208.7 L 210.8,208.4 L 215.0,206.7 L 219.2,206.1 L 223.4,204.6 L 227.6,204.3 L 231.8,204.0 L 236.0,203.4 L 240.2,203.4 L 244.4,203.4 L 248.6,199.3 L 252.8,199.0 L 257.0,198.1 L 261.2,197.8 L 265.4,197.5 L 269.6,196.6 L 273.8,196.0 L 278.0,195.4 L 282.2,193.7 L 286.4,193.7 L 290.7,193.7 L 294.9,193.4 L 299.1,190.4 L 303.3,189.6 L 307.5,189.0 L 311.7,188.1 L 315.9,187.5 L 320.1,187.5 L 324.3,186.0 L 328.5,183.9 L 332.7,183.4 L 336.9,183.1 L 341.1,182.2 L 345.3,182.2 L 349.5,181.6 L 353.7,180.7 L 357.9,180.1 L 362.1,178.9 L 366.3,177.8 L 370.5,177.5 L 374.7,177.5 L 379.0,176.3 L 383.2,176.3 L 387.4,176.3 L 391.6,174.5 L 395.8,174.2 L 400.0,173.9 L 404.2,173.9 L 408.4,173.6 L 412.6,172.4 L 416.8,171.9 L 421.0,171.0 L 425.2,171.0 L 429.4,170.7 L 433.6,169.5 L 437.8,168.6 L 442.0,168.6 L 446.2,168.3 L 450.4,167.7 L 454.6,165.7 L 458.8,165.1 L 463.0,164.2 L 467.3,164.2 L 471.5,163.6 L 475.7,163.3 L 479.9,163.0 L 484.1,162.7 L 488.3,162.4 L 492.5,162.4 L 496.7,162.1 L 500.9,161.8 L 505.1,160.9 L 509.3,159.8 L 513.5,159.5 L 517.7,158.6 L 521.9,158.6 L 526.1,157.4 L 530.3,157.1 L 534.5,157.1 L 538.7,157.1 L 542.9,156.2 L 547.1,155.9 L 551.3,155.9 L 555.6,155.9 L 559.8,155.6 L 564.0,154.4 L 568.2,154.2 L 572.4,153.3 L 576.6,152.7 L 580.8,152.7 L 585.0,151.8 L 589.2,151.2 L 593.4,151.2 L 597.6,150.9 L 601.8,149.4 L 606.0,148.0 L 610.2,147.7 L 614.4,147.1 L 618.6,145.9 L 622.8,145.9 L 627.0,145.3 L 631.2,143.8 L 635.4,141.2 L 639.7,140.3 L 643.9,140.3 L 648.1,140.3 L 652.3,140.3 L 656.5,140.3 L 660.7,139.1 L 664.9,138.2 L 669.1,138.2 L 673.3,138.2 L 677.5,138.2 L 681.7,137.3 L 685.9,137.3 L 690.1,136.5 L 694.3,135.6 L 698.5,135.3 L 702.7,135.0 L 706.9,134.4 L 711.1,134.4 L 715.3,133.5 L 719.5,132.3 L 723.7,131.4 L 728.0,129.7 L 732.2,129.1 L 736.4,128.8 L 740.6,128.5 L 744.8,127.9 L 749.0,127.6 L 753.2,126.1 L 757.4,125.2 L 761.6,123.8 L 765.8,123.5 L 770.0,123.5 L 770.0,340 Z" fill="url(#g5)" clip-path="url(#ca)"/>
<path d="M 72.0,242.6 L 76.2,240.0 L 80.4,239.7 L 84.6,238.5 L 88.8,237.9 L 93.0,235.0 L 97.2,233.2 L 101.4,232.3 L 105.6,230.8 L 109.8,229.1 L 114.0,228.2 L 118.3,227.9 L 122.5,227.0 L 126.7,226.4 L 130.9,226.1 L 135.1,225.2 L 139.3,224.4 L 143.5,223.5 L 147.7,222.6 L 151.9,221.4 L 156.1,220.5 L 160.3,219.6 L 164.5,218.8 L 168.7,217.0 L 172.9,216.4 L 177.1,216.4 L 181.3,214.3 L 185.5,213.7 L 189.7,213.2 L 193.9,212.6 L 198.1,211.1 L 202.3,209.0 L 206.6,208.7 L 210.8,208.4 L 215.0,206.7 L 219.2,206.1 L 223.4,204.6 L 227.6,204.3 L 231.8,204.0 L 236.0,203.4 L 240.2,203.4 L 244.4,203.4 L 248.6,199.3 L 252.8,199.0 L 257.0,198.1 L 261.2,197.8 L 265.4,197.5 L 269.6,196.6 L 273.8,196.0 L 278.0,195.4 L 282.2,193.7 L 286.4,193.7 L 290.7,193.7 L 294.9,193.4 L 299.1,190.4 L 303.3,189.6 L 307.5,189.0 L 311.7,188.1 L 315.9,187.5 L 320.1,187.5 L 324.3,186.0 L 328.5,183.9 L 332.7,183.4 L 336.9,183.1 L 341.1,182.2 L 345.3,182.2 L 349.5,181.6 L 353.7,180.7 L 357.9,180.1 L 362.1,178.9 L 366.3,177.8 L 370.5,177.5 L 374.7,177.5 L 379.0,176.3 L 383.2,176.3 L 387.4,176.3 L 391.6,174.5 L 395.8,174.2 L 400.0,173.9 L 404.2,173.9 L 408.4,173.6 L 412.6,172.4 L 416.8,171.9 L 421.0,171.0 L 425.2,171.0 L 429.4,170.7 L 433.6,169.5 L 437.8,168.6 L 442.0,168.6 L 446.2,168.3 L 450.4,167.7 L 454.6,165.7 L 458.8,165.1 L 463.0,164.2 L 467.3,164.2 L 471.5,163.6 L 475.7,163.3 L 479.9,163.0 L 484.1,162.7 L 488.3,162.4 L 492.5,162.4 L 496.7,162.1 L 500.9,161.8 L 505.1,160.9 L 509.3,159.8 L 513.5,159.5 L 517.7,158.6 L 521.9,158.6 L 526.1,157.4 L 530.3,157.1 L 534.5,157.1 L 538.7,157.1 L 542.9,156.2 L 547.1,155.9 L 551.3,155.9 L 555.6,155.9 L 559.8,155.6 L 564.0,154.4 L 568.2,154.2 L 572.4,153.3 L 576.6,152.7 L 580.8,152.7 L 585.0,151.8 L 589.2,151.2 L 593.4,151.2 L 597.6,150.9 L 601.8,149.4 L 606.0,148.0 L 610.2,147.7 L 614.4,147.1 L 618.6,145.9 L 622.8,145.9 L 627.0,145.3 L 631.2,143.8 L 635.4,141.2 L 639.7,140.3 L 643.9,140.3 L 648.1,140.3 L 652.3,140.3 L 656.5,140.3 L 660.7,139.1 L 664.9,138.2 L 669.1,138.2 L 673.3,138.2 L 677.5,138.2 L 681.7,137.3 L 685.9,137.3 L 690.1,136.5 L 694.3,135.6 L 698.5,135.3 L 702.7,135.0 L 706.9,134.4 L 711.1,134.4 L 715.3,133.5 L 719.5,132.3 L 723.7,131.4 L 728.0,129.7 L 732.2,129.1 L 736.4,128.8 L 740.6,128.5 L 744.8,127.9 L 749.0,127.6 L 753.2,126.1 L 757.4,125.2 L 761.6,123.8 L 765.8,123.5 L 770.0,123.5" fill="none" stroke="#34C759" stroke-width="2.5" stroke-linejoin="round" clip-path="url(#ca)"/>
<path d="M 72.0,340 L 72.0,222.6 L 76.2,222.6 L 80.4,222.3 L 84.6,221.4 L 88.8,221.7 L 93.0,221.7 L 97.2,220.5 L 101.4,219.6 L 105.6,219.6 L 109.8,219.9 L 114.0,219.6 L 118.3,219.3 L 122.5,219.1 L 126.7,219.1 L 130.9,219.1 L 135.1,219.3 L 139.3,218.8 L 143.5,218.2 L 147.7,216.4 L 151.9,215.2 L 156.1,215.2 L 160.3,214.9 L 164.5,213.2 L 168.7,210.5 L 172.9,209.6 L 177.1,209.0 L 181.3,207.0 L 185.5,205.5 L 189.7,204.9 L 193.9,204.3 L 198.1,203.7 L 202.3,203.4 L 206.6,203.4 L 210.8,201.3 L 215.0,200.8 L 219.2,200.2 L 223.4,200.2 L 227.6,198.7 L 231.8,198.4 L 236.0,197.5 L 240.2,196.3 L 244.4,194.9 L 248.6,192.8 L 252.8,190.7 L 257.0,190.4 L 261.2,189.8 L 265.4,189.3 L 269.6,187.5 L 273.8,187.5 L 278.0,186.9 L 282.2,186.0 L 286.4,185.4 L 290.7,184.2 L 294.9,184.5 L 299.1,181.0 L 303.3,180.7 L 307.5,180.4 L 311.7,179.8 L 315.9,178.0 L 320.1,178.0 L 324.3,176.3 L 328.5,174.2 L 332.7,174.2 L 336.9,174.2 L 341.1,173.9 L 345.3,173.6 L 349.5,173.3 L 353.7,171.9 L 357.9,170.1 L 362.1,169.5 L 366.3,168.3 L 370.5,168.3 L 374.7,167.4 L 379.0,165.7 L 383.2,164.8 L 387.4,164.5 L 391.6,162.4 L 395.8,162.1 L 400.0,162.1 L 404.2,161.8 L 408.4,161.8 L 412.6,160.3 L 416.8,159.8 L 421.0,158.9 L 425.2,158.6 L 429.4,158.0 L 433.6,155.6 L 437.8,152.4 L 442.0,152.1 L 446.2,151.5 L 450.4,151.2 L 454.6,149.7 L 458.8,118.5 L 463.0,117.9 L 467.3,116.4 L 471.5,116.4 L 475.7,116.4 L 479.9,116.7 L 484.1,116.4 L 488.3,114.6 L 492.5,114.0 L 496.7,113.7 L 500.9,113.4 L 505.1,112.3 L 509.3,110.5 L 513.5,110.5 L 517.7,110.5 L 521.9,110.2 L 526.1,109.9 L 530.3,109.9 L 534.5,109.3 L 538.7,108.4 L 542.9,106.9 L 547.1,106.4 L 551.3,106.1 L 555.6,106.1 L 559.8,105.8 L 564.0,105.2 L 568.2,104.9 L 572.4,103.4 L 576.6,103.4 L 580.8,102.8 L 585.0,101.6 L 589.2,100.2 L 593.4,99.9 L 597.6,99.6 L 601.8,96.9 L 606.0,96.3 L 610.2,95.7 L 614.4,95.7 L 618.6,94.6 L 622.8,94.0 L 627.0,92.5 L 631.2,91.9 L 635.4,91.0 L 639.7,90.7 L 643.9,89.5 L 648.1,88.7 L 652.3,88.4 L 656.5,87.8 L 660.7,86.6 L 664.9,86.0 L 669.1,85.1 L 673.3,84.5 L 677.5,84.2 L 681.7,83.6 L 685.9,82.8 L 690.1,82.2 L 694.3,81.6 L 698.5,80.7 L 702.7,80.7 L 706.9,80.1 L 711.1,78.6 L 715.3,77.2 L 719.5,76.3 L 723.7,76.6 L 728.0,76.0 L 732.2,75.7 L 736.4,75.4 L 740.6,74.8 L 744.8,73.3 L 749.0,73.3 L 753.2,73.0 L 757.4,72.1 L 761.6,71.3 L 765.8,70.1 L 770.0,69.5 L 770.0,340 Z" fill="url(#g6)" clip-path="url(#ca)"/>
<path d="M 72.0,222.6 L 76.2,222.6 L 80.4,222.3 L 84.6,221.4 L 88.8,221.7 L 93.0,221.7 L 97.2,220.5 L 101.4,219.6 L 105.6,219.6 L 109.8,219.9 L 114.0,219.6 L 118.3,219.3 L 122.5,219.1 L 126.7,219.1 L 130.9,219.1 L 135.1,219.3 L 139.3,218.8 L 143.5,218.2 L 147.7,216.4 L 151.9,215.2 L 156.1,215.2 L 160.3,214.9 L 164.5,213.2 L 168.7,210.5 L 172.9,209.6 L 177.1,209.0 L 181.3,207.0 L 185.5,205.5 L 189.7,204.9 L 193.9,204.3 L 198.1,203.7 L 202.3,203.4 L 206.6,203.4 L 210.8,201.3 L 215.0,200.8 L 219.2,200.2 L 223.4,200.2 L 227.6,198.7 L 231.8,198.4 L 236.0,197.5 L 240.2,196.3 L 244.4,194.9 L 248.6,192.8 L 252.8,190.7 L 257.0,190.4 L 261.2,189.8 L 265.4,189.3 L 269.6,187.5 L 273.8,187.5 L 278.0,186.9 L 282.2,186.0 L 286.4,185.4 L 290.7,184.2 L 294.9,184.5 L 299.1,181.0 L 303.3,180.7 L 307.5,180.4 L 311.7,179.8 L 315.9,178.0 L 320.1,178.0 L 324.3,176.3 L 328.5,174.2 L 332.7,174.2 L 336.9,174.2 L 341.1,173.9 L 345.3,173.6 L 349.5,173.3 L 353.7,171.9 L 357.9,170.1 L 362.1,169.5 L 366.3,168.3 L 370.5,168.3 L 374.7,167.4 L 379.0,165.7 L 383.2,164.8 L 387.4,164.5 L 391.6,162.4 L 395.8,162.1 L 400.0,162.1 L 404.2,161.8 L 408.4,161.8 L 412.6,160.3 L 416.8,159.8 L 421.0,158.9 L 425.2,158.6 L 429.4,158.0 L 433.6,155.6 L 437.8,152.4 L 442.0,152.1 L 446.2,151.5 L 450.4,151.2 L 454.6,149.7 L 458.8,118.5 L 463.0,117.9 L 467.3,116.4 L 471.5,116.4 L 475.7,116.4 L 479.9,116.7 L 484.1,116.4 L 488.3,114.6 L 492.5,114.0 L 496.7,113.7 L 500.9,113.4 L 505.1,112.3 L 509.3,110.5 L 513.5,110.5 L 517.7,110.5 L 521.9,110.2 L 526.1,109.9 L 530.3,109.9 L 534.5,109.3 L 538.7,108.4 L 542.9,106.9 L 547.1,106.4 L 551.3,106.1 L 555.6,106.1 L 559.8,105.8 L 564.0,105.2 L 568.2,104.9 L 572.4,103.4 L 576.6,103.4 L 580.8,102.8 L 585.0,101.6 L 589.2,100.2 L 593.4,99.9 L 597.6,99.6 L 601.8,96.9 L 606.0,96.3 L 610.2,95.7 L 614.4,95.7 L 618.6,94.6 L 622.8,94.0 L 627.0,92.5 L 631.2,91.9 L 635.4,91.0 L 639.7,90.7 L 643.9,89.5 L 648.1,88.7 L 652.3,88.4 L 656.5,87.8 L 660.7,86.6 L 664.9,86.0 L 669.1,85.1 L 673.3,84.5 L 677.5,84.2 L 681.7,83.6 L 685.9,82.8 L 690.1,82.2 L 694.3,81.6 L 698.5,80.7 L 702.7,80.7 L 706.9,80.1 L 711.1,78.6 L 715.3,77.2 L 719.5,76.3 L 723.7,76.6 L 728.0,76.0 L 732.2,75.7 L 736.4,75.4 L 740.6,74.8 L 744.8,73.3 L 749.0,73.3 L 753.2,73.0 L 757.4,72.1 L 761.6,71.3 L 765.8,70.1 L 770.0,69.5" fill="none" stroke="#4F8EF7" stroke-width="2.5" stroke-linejoin="round" clip-path="url(#ca)"/>
<path d="M 72.0,340 L 72.0,338.2 L 76.2,337.9 L 80.4,337.9 L 84.6,337.6 L 88.8,337.6 L 93.0,337.6 L 97.2,337.6 L 101.4,337.6 L 105.6,337.1 L 109.8,337.1 L 114.0,337.1 L 118.3,337.1 L 122.5,337.1 L 126.7,336.8 L 130.9,336.8 L 135.1,336.8 L 139.3,336.8 L 143.5,336.8 L 147.7,336.5 L 151.9,335.9 L 156.1,335.6 L 160.3,335.6 L 164.5,335.6 L 168.7,335.3 L 172.9,335.3 L 177.1,335.3 L 181.3,335.0 L 185.5,335.0 L 189.7,335.0 L 193.9,334.7 L 198.1,334.7 L 202.3,334.7 L 206.6,334.7 L 210.8,334.4 L 215.0,334.4 L 219.2,334.4 L 223.4,334.4 L 227.6,334.4 L 231.8,334.4 L 236.0,334.4 L 240.2,334.4 L 244.4,334.4 L 248.6,334.4 L 252.8,334.4 L 257.0,334.4 L 261.2,334.4 L 265.4,334.1 L 269.6,334.1 L 273.8,334.1 L 278.0,334.1 L 282.2,334.1 L 286.4,334.1 L 290.7,334.1 L 294.9,334.1 L 299.1,334.1 L 303.3,334.1 L 307.5,334.1 L 311.7,334.1 L 315.9,333.8 L 320.1,333.8 L 324.3,333.8 L 328.5,333.8 L 332.7,333.8 L 336.9,333.8 L 341.1,333.8 L 345.3,333.8 L 349.5,333.8 L 353.7,333.8 L 357.9,333.8 L 362.1,333.8 L 366.3,333.8 L 370.5,333.8 L 374.7,333.8 L 379.0,333.8 L 383.2,333.8 L 387.4,333.8 L 391.6,333.8 L 395.8,333.8 L 400.0,333.8 L 404.2,333.8 L 408.4,333.8 L 412.6,333.8 L 416.8,333.8 L 421.0,333.8 L 425.2,333.8 L 429.4,333.8 L 433.6,333.8 L 437.8,333.8 L 442.0,333.8 L 446.2,333.8 L 450.4,333.8 L 454.6,333.8 L 458.8,333.8 L 463.0,333.8 L 467.3,333.5 L 471.5,333.5 L 475.7,333.5 L 479.9,333.5 L 484.1,333.5 L 488.3,333.2 L 492.5,333.2 L 496.7,333.2 L 500.9,333.2 L 505.1,332.9 L 509.3,332.9 L 513.5,332.6 L 517.7,332.6 L 521.9,332.6 L 526.1,332.6 L 530.3,332.6 L 534.5,332.6 L 538.7,332.6 L 542.9,332.6 L 547.1,332.6 L 551.3,332.6 L 555.6,332.6 L 559.8,332.6 L 564.0,332.6 L 568.2,332.6 L 572.4,332.6 L 576.6,332.6 L 580.8,332.6 L 585.0,332.6 L 589.2,332.6 L 593.4,332.6 L 597.6,332.6 L 601.8,332.6 L 606.0,332.6 L 610.2,332.6 L 614.4,332.6 L 618.6,332.6 L 622.8,332.6 L 627.0,332.6 L 631.2,332.6 L 635.4,332.6 L 639.7,332.6 L 643.9,332.6 L 648.1,332.6 L 652.3,332.6 L 656.5,332.6 L 660.7,332.6 L 664.9,332.6 L 669.1,332.6 L 673.3,332.6 L 677.5,332.6 L 681.7,332.6 L 685.9,332.6 L 690.1,332.6 L 694.3,332.6 L 698.5,332.6 L 702.7,332.6 L 706.9,332.6 L 711.1,332.6 L 715.3,332.3 L 719.5,332.3 L 723.7,332.3 L 728.0,332.3 L 732.2,332.3 L 736.4,332.3 L 740.6,332.3 L 744.8,332.3 L 749.0,332.3 L 753.2,332.3 L 757.4,332.3 L 761.6,332.0 L 765.8,332.0 L 770.0,332.0 L 770.0,340 Z" fill="url(#g7)" clip-path="url(#ca)"/>
<path d="M 72.0,338.2 L 76.2,337.9 L 80.4,337.9 L 84.6,337.6 L 88.8,337.6 L 93.0,337.6 L 97.2,337.6 L 101.4,337.6 L 105.6,337.1 L 109.8,337.1 L 114.0,337.1 L 118.3,337.1 L 122.5,337.1 L 126.7,336.8 L 130.9,336.8 L 135.1,336.8 L 139.3,336.8 L 143.5,336.8 L 147.7,336.5 L 151.9,335.9 L 156.1,335.6 L 160.3,335.6 L 164.5,335.6 L 168.7,335.3 L 172.9,335.3 L 177.1,335.3 L 181.3,335.0 L 185.5,335.0 L 189.7,335.0 L 193.9,334.7 L 198.1,334.7 L 202.3,334.7 L 206.6,334.7 L 210.8,334.4 L 215.0,334.4 L 219.2,334.4 L 223.4,334.4 L 227.6,334.4 L 231.8,334.4 L 236.0,334.4 L 240.2,334.4 L 244.4,334.4 L 248.6,334.4 L 252.8,334.4 L 257.0,334.4 L 261.2,334.4 L 265.4,334.1 L 269.6,334.1 L 273.8,334.1 L 278.0,334.1 L 282.2,334.1 L 286.4,334.1 L 290.7,334.1 L 294.9,334.1 L 299.1,334.1 L 303.3,334.1 L 307.5,334.1 L 311.7,334.1 L 315.9,333.8 L 320.1,333.8 L 324.3,333.8 L 328.5,333.8 L 332.7,333.8 L 336.9,333.8 L 341.1,333.8 L 345.3,333.8 L 349.5,333.8 L 353.7,333.8 L 357.9,333.8 L 362.1,333.8 L 366.3,333.8 L 370.5,333.8 L 374.7,333.8 L 379.0,333.8 L 383.2,333.8 L 387.4,333.8 L 391.6,333.8 L 395.8,333.8 L 400.0,333.8 L 404.2,333.8 L 408.4,333.8 L 412.6,333.8 L 416.8,333.8 L 421.0,333.8 L 425.2,333.8 L 429.4,333.8 L 433.6,333.8 L 437.8,333.8 L 442.0,333.8 L 446.2,333.8 L 450.4,333.8 L 454.6,333.8 L 458.8,333.8 L 463.0,333.8 L 467.3,333.5 L 471.5,333.5 L 475.7,333.5 L 479.9,333.5 L 484.1,333.5 L 488.3,333.2 L 492.5,333.2 L 496.7,333.2 L 500.9,333.2 L 505.1,332.9 L 509.3,332.9 L 513.5,332.6 L 517.7,332.6 L 521.9,332.6 L 526.1,332.6 L 530.3,332.6 L 534.5,332.6 L 538.7,332.6 L 542.9,332.6 L 547.1,332.6 L 551.3,332.6 L 555.6,332.6 L 559.8,332.6 L 564.0,332.6 L 568.2,332.6 L 572.4,332.6 L 576.6,332.6 L 580.8,332.6 L 585.0,332.6 L 589.2,332.6 L 593.4,332.6 L 597.6,332.6 L 601.8,332.6 L 606.0,332.6 L 610.2,332.6 L 614.4,332.6 L 618.6,332.6 L 622.8,332.6 L 627.0,332.6 L 631.2,332.6 L 635.4,332.6 L 639.7,332.6 L 643.9,332.6 L 648.1,332.6 L 652.3,332.6 L 656.5,332.6 L 660.7,332.6 L 664.9,332.6 L 669.1,332.6 L 673.3,332.6 L 677.5,332.6 L 681.7,332.6 L 685.9,332.6 L 690.1,332.6 L 694.3,332.6 L 698.5,332.6 L 702.7,332.6 L 706.9,332.6 L 711.1,332.6 L 715.3,332.3 L 719.5,332.3 L 723.7,332.3 L 728.0,332.3 L 732.2,332.3 L 736.4,332.3 L 740.6,332.3 L 744.8,332.3 L 749.0,332.3 L 753.2,332.3 L 757.4,332.3 L 761.6,332.0 L 765.8,332.0 L 770.0,332.0" fill="none" stroke="#FF6363" stroke-width="2.5" stroke-linejoin="round" clip-path="url(#ca)"/>
<text x="95.1" y="55.0" text-anchor="middle" font-size="9" fill="#34C759" opacity="0.85" clip-path="url(#ca)">+15.2% (+50)</text>
<text x="95.1" y="66.0" text-anchor="middle" font-size="9" fill="#4F8EF7" opacity="0.85" clip-path="url(#ca)">+2.8% (+11)</text>
<text x="95.1" y="77.0" text-anchor="middle" font-size="9" fill="#FF6363" opacity="0.85" clip-path="url(#ca)">+66.7% (+4)</text>
<text x="175.0" y="55.0" text-anchor="middle" font-size="9" fill="#34C759" opacity="0.85" clip-path="url(#ca)">+20.1% (+77)</text>
<text x="175.0" y="66.0" text-anchor="middle" font-size="9" fill="#4F8EF7" opacity="0.85" clip-path="url(#ca)">+16.8% (+69)</text>
<text x="175.0" y="77.0" text-anchor="middle" font-size="9" fill="#FF6363" opacity="0.85" clip-path="url(#ca)">+90.0% (+9)</text>
<text x="286.4" y="55.0" text-anchor="middle" font-size="9" fill="#34C759" opacity="0.85" clip-path="url(#ca)">+16.1% (+74)</text>
<text x="286.4" y="66.0" text-anchor="middle" font-size="9" fill="#4F8EF7" opacity="0.85" clip-path="url(#ca)">+17.3% (+83)</text>
<text x="286.4" y="77.0" text-anchor="middle" font-size="9" fill="#FF6363" opacity="0.85" clip-path="url(#ca)">+10.5% (+2)</text>
<text x="400.0" y="55.0" text-anchor="middle" font-size="9" fill="#34C759" opacity="0.85" clip-path="url(#ca)">+10.5% (+56)</text>
<text x="400.0" y="66.0" text-anchor="middle" font-size="9" fill="#4F8EF7" opacity="0.85" clip-path="url(#ca)">+14.4% (+81)</text>
<text x="400.0" y="77.0" text-anchor="middle" font-size="9" fill="#FF6363" opacity="0.85" clip-path="url(#ca)">+0.0% (+0)</text>
<text x="513.5" y="55.0" text-anchor="middle" font-size="9" fill="#34C759" opacity="0.85" clip-path="url(#ca)">+6.2% (+37)</text>
<text x="513.5" y="66.0" text-anchor="middle" font-size="9" fill="#4F8EF7" opacity="0.85" clip-path="url(#ca)">+6.1% (+46)</text>
<text x="513.5" y="77.0" text-anchor="middle" font-size="9" fill="#FF6363" opacity="0.85" clip-path="url(#ca)">+19.0% (+4)</text>
<text x="624.9" y="55.0" text-anchor="middle" font-size="9" fill="#34C759" opacity="0.85" clip-path="url(#ca)">+8.1% (+51)</text>
<text x="624.9" y="66.0" text-anchor="middle" font-size="9" fill="#4F8EF7" opacity="0.85" clip-path="url(#ca)">+8.1% (+65)</text>
<text x="624.9" y="77.0" text-anchor="middle" font-size="9" fill="#FF6363" opacity="0.85" clip-path="url(#ca)">+0.0% (+0)</text>
<text x="725.8" y="55.0" text-anchor="middle" font-size="9" fill="#34C759" opacity="0.85" clip-path="url(#ca)">+6.8% (+47)</text>
<text x="725.8" y="66.0" text-anchor="middle" font-size="9" fill="#4F8EF7" opacity="0.85" clip-path="url(#ca)">+5.5% (+48)</text>
<text x="725.8" y="77.0" text-anchor="middle" font-size="9" fill="#FF6363" opacity="0.85" clip-path="url(#ca)">+8.0% (+2)</text>
<rect x="211" y="369" width="12" height="12" fill="#34C759" rx="2"/>
<text x="227" y="379" font-size="12" fill="#111827">macOS + Windows</text>
<rect x="351" y="369" width="12" height="12" fill="#4F8EF7" rx="2"/>
<text x="367" y="379" font-size="12" fill="#111827">macOS only</text>
<rect x="491" y="369" width="12" height="12" fill="#FF6363" rx="2"/>
<text x="507" y="379" font-size="12" fill="#111827">Windows only</text>
<text x="72" y="394" font-size="8" fill="#e5e7eb">data since Dec 11, 2025</text>
</svg>