<svg xmlns="http://www.w3.org/2000/svg" width="800" height="400" viewBox="0 0 800 400">
<defs><style>text { font-family: -apple-system, BlinkMacSystemFont, 'Segoe UI', Roboto, sans-serif; }</style></defs>
<rect width="800" height="400" fill="#ffffff" rx="12"/>
<text x="400" y="26" text-anchor="middle" font-size="15" font-weight="600" fill="#111827">Packages by Last Updated Quarter</text>
<text x="400" y="44" text-anchor="middle" font-size="11" fill="#6b7280">last updated at · 3,138 packages with a known last-update date</text>
<line x1="60" y1="58" x2="60" y2="320" stroke="#e5e7eb" stroke-width="1"/>
<line x1="60" y1="320" x2="770" y2="320" stroke="#e5e7eb" stroke-width="1"/>
<text x="-189" y="18" text-anchor="middle" font-size="12" fill="#6b7280" transform="rotate(-90)">Number of packages</text>
<line x1="60" y1="320.0" x2="770" y2="320.0" stroke="#f3f4f6" stroke-width="1"/>
<text x="54" y="324.0" text-anchor="end" font-size="11" fill="#6b7280">0</text>
<line x1="60" y1="267.8" x2="770" y2="267.8" stroke="#f3f4f6" stroke-width="1"/>
<text x="54" y="271.8" text-anchor="end" font-size="11" fill="#6b7280">118</text>
<line x1="60" y1="215.1" x2="770" y2="215.1" stroke="#f3f4f6" stroke-width="1"/>
<text x="54" y="219.1" text-anchor="end" font-size="11" fill="#6b7280">237</text>
<line x1="60" y1="162.9" x2="770" y2="162.9" stroke="#f3f4f6" stroke-width="1"/>
<text x="54" y="166.9" text-anchor="end" font-size="11" fill="#6b7280">355</text>
<line x1="60" y1="110.2" x2="770" y2="110.2" stroke="#f3f4f6" stroke-width="1"/>
<text x="54" y="114.2" text-anchor="end" font-size="11" fill="#6b7280">474</text>
<line x1="60" y1="58.0" x2="770" y2="58.0" stroke="#f3f4f6" stroke-width="1"/>
<text x="54" y="62.0" text-anchor="end" font-size="11" fill="#6b7280">592</text>
<rect x="66.2" y="314.2" width="23.1" height="5.8" fill="#34C759" rx="3" opacity="0.85"/>
<text x="77.8" y="298.2" text-anchor="middle" font-size="10" fill="#6b7280">13</text>
<text x="77.8" y="310.2" text-anchor="middle" font-size="10" fill="#6b7280">(0.41%)</text>
<g transform="translate(77.8,330.0) rotate(-45)"><text text-anchor="end" font-size="10" fill="#111827">2021-Q4</text></g>
<rect x="101.7" y="308.5" width="23.1" height="11.5" fill="#34C759" rx="3" opacity="0.85"/>
<text x="113.3" y="292.5" text-anchor="middle" font-size="10" fill="#6b7280">26</text>
<text x="113.3" y="304.5" text-anchor="middle" font-size="10" fill="#6b7280">(0.83%)</text>
<g transform="translate(113.3,330.0) rotate(-45)"><text text-anchor="end" font-size="10" fill="#111827">2022-Q1</text></g>
<rect x="137.2" y="305.0" width="23.1" height="15.0" fill="#34C759" rx="3" opacity="0.85"/>
<text x="148.8" y="289.0" text-anchor="middle" font-size="10" fill="#6b7280">34</text>
<text x="148.8" y="301.0" text-anchor="middle" font-size="10" fill="#6b7280">(1.08%)</text>
<g transform="translate(148.8,330.0) rotate(-45)"><text text-anchor="end" font-size="10" fill="#111827">2022-Q2</text></g>
<rect x="172.7" y="304.1" width="23.1" height="15.9" fill="#34C759" rx="3" opacity="0.85"/>
<text x="184.3" y="288.1" text-anchor="middle" font-size="10" fill="#6b7280">36</text>
<text x="184.3" y="300.1" text-anchor="middle" font-size="10" fill="#6b7280">(1.15%)</text>
<g transform="translate(184.3,330.0) rotate(-45)"><text text-anchor="end" font-size="10" fill="#111827">2022-Q3</text></g>
<rect x="208.2" y="292.6" width="23.1" height="27.4" fill="#34C759" rx="3" opacity="0.85"/>
<text x="219.8" y="276.6" text-anchor="middle" font-size="10" fill="#6b7280">62</text>
<text x="219.8" y="288.6" text-anchor="middle" font-size="10" fill="#6b7280">(1.98%)</text>
<g transform="translate(219.8,330.0) rotate(-45)"><text text-anchor="end" font-size="10" fill="#111827">2022-Q4</text></g>
<rect x="243.7" y="281.1" width="23.1" height="38.9" fill="#34C759" rx="3" opacity="0.85"/>
<text x="255.3" y="265.1" text-anchor="middle" font-size="10" fill="#6b7280">88</text>
<text x="255.3" y="277.1" text-anchor="middle" font-size="10" fill="#6b7280">(2.80%)</text>
<g transform="translate(255.3,330.0) rotate(-45)"><text text-anchor="end" font-size="10" fill="#111827">2023-Q1</text></g>
<rect x="279.2" y="281.5" width="23.1" height="38.5" fill="#34C759" rx="3" opacity="0.85"/>
<text x="290.8" y="265.5" text-anchor="middle" font-size="10" fill="#6b7280">87</text>
<text x="290.8" y="277.5" text-anchor="middle" font-size="10" fill="#6b7280">(2.77%)</text>
<g transform="translate(290.8,330.0) rotate(-45)"><text text-anchor="end" font-size="10" fill="#111827">2023-Q2</text></g>
<rect x="314.7" y="285.0" width="23.1" height="35.0" fill="#34C759" rx="3" opacity="0.85"/>
<text x="326.3" y="269.0" text-anchor="middle" font-size="10" fill="#6b7280">79</text>
<text x="326.3" y="281.0" text-anchor="middle" font-size="10" fill="#6b7280">(2.52%)</text>
<g transform="translate(326.3,330.0) rotate(-45)"><text text-anchor="end" font-size="10" fill="#111827">2023-Q3</text></g>
<rect x="350.2" y="293.9" width="23.1" height="26.1" fill="#34C759" rx="3" opacity="0.85"/>
<text x="361.8" y="277.9" text-anchor="middle" font-size="10" fill="#6b7280">59</text>
<text x="361.8" y="289.9" text-anchor="middle" font-size="10" fill="#6b7280">(1.88%)</text>
<g transform="translate(361.8,330.0) rotate(-45)"><text text-anchor="end" font-size="10" fill="#111827">2023-Q4</text></g>
<rect x="385.7" y="273.1" width="23.1" height="46.9" fill="#34C759" rx="3" opacity="0.85"/>
<text x="397.3" y="257.1" text-anchor="middle" font-size="10" fill="#6b7280">106</text>
<text x="397.3" y="269.1" text-anchor="middle" font-size="10" fill="#6b7280">(3.38%)</text>
<g transform="translate(397.3,330.0) rotate(-45)"><text text-anchor="end" font-size="10" fill="#111827">2024-Q1</text></g>
<rect x="421.2" y="266.9" width="23.1" height="53.1" fill="#34C759" rx="3" opacity="0.85"/>
<text x="432.8" y="250.9" text-anchor="middle" font-size="10" fill="#6b7280">120</text>
<text x="432.8" y="262.9" text-anchor="middle" font-size="10" fill="#6b7280">(3.82%)</text>
<g transform="translate(432.8,330.0) rotate(-45)"><text text-anchor="end" font-size="10" fill="#111827">2024-Q2</text></g>
<rect x="456.7" y="267.3" width="23.1" height="52.7" fill="#34C759" rx="3" opacity="0.85"/>
<text x="468.3" y="251.3" text-anchor="middle" font-size="10" fill="#6b7280">119</text>
<text x="468.3" y="263.3" text-anchor="middle" font-size="10" fill="#6b7280">(3.79%)</text>
<g transform="translate(468.3,330.0) rotate(-45)"><text text-anchor="end" font-size="10" fill="#111827">2024-Q3</text></g>
<rect x="492.2" y="270.4" width="23.1" height="49.6" fill="#34C759" rx="3" opacity="0.85"/>
<text x="503.8" y="254.4" text-anchor="middle" font-size="10" fill="#6b7280">112</text>
<text x="503.8" y="266.4" text-anchor="middle" font-size="10" fill="#6b7280">(3.57%)</text>
<g transform="translate(503.8,330.0) rotate(-45)"><text text-anchor="end" font-size="10" fill="#111827">2024-Q4</text></g>
<rect x="527.7" y="237.7" width="23.1" height="82.3" fill="#34C759" rx="3" opacity="0.85"/>
<text x="539.3" y="221.7" text-anchor="middle" font-size="10" fill="#6b7280">186</text>
<text x="539.3" y="233.7" text-anchor="middle" font-size="10" fill="#6b7280">(5.93%)</text>
<g transform="translate(539.3,330.0) rotate(-45)"><text text-anchor="end" font-size="10" fill="#111827">2025-Q1</text></g>
<rect x="563.2" y="235.0" width="23.1" height="85.0" fill="#34C759" rx="3" opacity="0.85"/>
<text x="574.8" y="219.0" text-anchor="middle" font-size="10" fill="#6b7280">192</text>
<text x="574.8" y="231.0" text-anchor="middle" font-size="10" fill="#6b7280">(6.12%)</text>
<g transform="translate(574.8,330.0) rotate(-45)"><text text-anchor="end" font-size="10" fill="#111827">2025-Q2</text></g>
<rect x="598.7" y="235.5" width="23.1" height="84.5" fill="#34C759" rx="3" opacity="0.85"/>
<text x="610.3" y="219.5" text-anchor="middle" font-size="10" fill="#6b7280">191</text>
<text x="610.3" y="231.5" text-anchor="middle" font-size="10" fill="#6b7280">(6.09%)</text>
<g transform="translate(610.3,330.0) rotate(-45)"><text text-anchor="end" font-size="10" fill="#111827">2025-Q3</text></g>
<rect x="634.2" y="202.3" width="23.1" height="117.7" fill="#34C759" rx="3" opacity="0.85"/>
<text x="645.8" y="186.3" text-anchor="middle" font-size="10" fill="#6b7280">266</text>
<text x="645.8" y="198.3" text-anchor="middle" font-size="10" fill="#6b7280">(8.48%)</text>
<g transform="translate(645.8,330.0) rotate(-45)"><text text-anchor="end" font-size="10" fill="#111827">2025-Q4</text></g>
<rect x="669.7" y="100.5" width="23.1" height="219.5" fill="#34C759" rx="3" opacity="0.85"/>
<text x="681.3" y="84.5" text-anchor="middle" font-size="10" fill="#6b7280">496</text>
<text x="681.3" y="96.5" text-anchor="middle" font-size="10" fill="#6b7280">(15.81%)</text>
<g transform="translate(681.3,330.0) rotate(-45)"><text text-anchor="end" font-size="10" fill="#111827">2026-Q1</text></g>
<rect x="705.2" y="58.0" width="23.1" height="262.0" fill="#34C759" rx="3" opacity="0.85"/>
<text x="716.8" y="72.0" text-anchor="middle" font-size="10" fill="#6b7280">592</text>
<text x="716.8" y="84.0" text-anchor="middle" font-size="10" fill="#6b7280">(18.87%)</text>
<g transform="translate(716.8,330.0) rotate(-45)"><text text-anchor="end" font-size="10" fill="#111827">2026-Q2</text></g>
<rect x="740.7" y="198.7" width="23.1" height="121.3" fill="#34C759" rx="3" opacity="0.85"/>
<text x="752.3" y="182.7" text-anchor="middle" font-size="10" fill="#6b7280">274</text>
<text x="752.3" y="194.7" text-anchor="middle" font-size="10" fill="#6b7280">(8.73%)</text>
<g transform="translate(752.3,330.0) rotate(-45)"><text text-anchor="end" font-size="10" fill="#111827">2026-Q3</text></g>
</svg>