<svg xmlns="http://www.w3.org/2000/svg" width="800" height="400" viewBox="0 0 800 400">
<defs>
  <style>text { font-family: -apple-system, BlinkMacSystemFont, 'Segoe UI', Roboto, sans-serif; }</style>
  <linearGradient id="g2" x1="0" y1="0" x2="0" y2="1">
  <stop offset="0%" stop-color="#4F8EF7" stop-opacity="0.25"/>
  <stop offset="100%" stop-color="#4F8EF7" stop-opacity="0"/>
</linearGradient>
<linearGradient id="g3" x1="0" y1="0" x2="0" y2="1">
  <stop offset="0%" stop-color="#BF5AF2" stop-opacity="0.25"/>
  <stop offset="100%" stop-color="#BF5AF2" stop-opacity="0"/>
</linearGradient>
<linearGradient id="g4" x1="0" y1="0" x2="0" y2="1">
  <stop offset="0%" stop-color="#34C759" stop-opacity="0.25"/>
  <stop offset="100%" stop-color="#34C759" stop-opacity="0"/>
</linearGradient>
  <clipPath id="ca"><rect x="72" y="45" width="698" height="295"/></clipPath>
</defs>
<rect width="800" height="400" fill="#ffffff" rx="12"/>
<text x="400" y="26" text-anchor="middle" font-size="15" font-weight="600" fill="#111827">Community Growth Over Time</text>
<line x1="72" y1="340.0" x2="770" y2="340.0" stroke="#f3f4f6" stroke-width="1"/>
<text x="66" y="344.0" text-anchor="end" font-size="11" fill="#6b7280">500</text>
<line x1="72" y1="241.7" x2="770" y2="241.7" stroke="#f3f4f6" stroke-width="1"/>
<text x="66" y="245.7" text-anchor="end" font-size="11" fill="#6b7280">1.0k</text>
<line x1="72" y1="143.3" x2="770" y2="143.3" stroke="#f3f4f6" stroke-width="1"/>
<text x="66" y="147.3" text-anchor="end" font-size="11" fill="#6b7280">1.5k</text>
<line x1="72" y1="45.0" x2="770" y2="45.0" stroke="#f3f4f6" stroke-width="1"/>
<text x="66" y="49.0" text-anchor="end" font-size="11" fill="#6b7280">2.0k</text>
<line x1="131.0" y1="45" x2="131.0" y2="340" stroke="#e5e7eb" stroke-width="1" stroke-dasharray="3,3" clip-path="url(#ca)"/>
<line x1="258.8" y1="45" x2="258.8" y2="340" stroke="#e5e7eb" stroke-width="1" stroke-dasharray="3,3" clip-path="url(#ca)"/>
<line x1="391.5" y1="45" x2="391.5" y2="340" stroke="#e5e7eb" stroke-width="1" stroke-dasharray="3,3" clip-path="url(#ca)"/>
<line x1="524.2" y1="45" x2="524.2" y2="340" stroke="#e5e7eb" stroke-width="1" stroke-dasharray="3,3" clip-path="url(#ca)"/>
<line x1="656.9" y1="45" x2="656.9" y2="340" stroke="#e5e7eb" stroke-width="1" stroke-dasharray="3,3" clip-path="url(#ca)"/>
<text x="72.0" y="358.0" text-anchor="middle" font-size="11" fill="#6b7280">Dec 11</text>
<text x="209.6" y="358.0" text-anchor="middle" font-size="11" fill="#6b7280">Jan 22</text>
<text x="352.2" y="358.0" text-anchor="middle" font-size="11" fill="#6b7280">Feb 20</text>
<text x="489.8" y="358.0" text-anchor="middle" font-size="11" fill="#6b7280">Mar 23</text>
<text x="632.4" y="358.0" text-anchor="middle" font-size="11" fill="#6b7280">Apr 25</text>
<text x="770.0" y="358.0" text-anchor="middle" font-size="11" fill="#6b7280">May 29</text>
<line x1="72" y1="45" x2="72" y2="340" stroke="#e5e7eb" stroke-width="1"/>
<line x1="72" y1="340" x2="770" y2="340" stroke="#e5e7eb" stroke-width="1"/>
<text x="-192.5" y="18" text-anchor="middle" font-size="12" fill="#6b7280" transform="rotate(-90)">People</text>
<path d="M 72.0,340 L 72.0,120.1 L 76.9,120.1 L 81.8,120.1 L 86.7,119.5 L 91.7,119.5 L 96.6,119.1 L 101.5,118.9 L 106.4,119.1 L 111.3,118.6 L 116.2,118.6 L 121.2,118.6 L 126.1,118.6 L 131.0,118.6 L 135.9,118.6 L 140.8,118.6 L 145.7,118.6 L 150.6,118.4 L 155.6,117.8 L 160.5,116.6 L 165.4,116.0 L 170.3,115.8 L 175.2,115.8 L 180.1,115.2 L 185.1,113.8 L 190.0,113.0 L 194.9,113.0 L 199.8,112.1 L 204.7,111.7 L 209.6,110.9 L 214.5,110.3 L 219.5,109.7 L 224.4,109.1 L 229.3,109.1 L 234.2,107.7 L 239.1,106.9 L 244.0,106.9 L 249.0,106.2 L 253.9,105.8 L 258.8,105.6 L 263.7,105.4 L 268.6,105.4 L 273.5,104.8 L 278.5,102.4 L 283.4,101.0 L 288.3,100.3 L 293.2,100.1 L 298.1,99.7 L 303.0,98.9 L 307.9,98.5 L 312.9,98.1 L 317.8,97.7 L 322.7,97.3 L 327.6,96.9 L 332.5,96.9 L 337.4,95.0 L 342.4,95.0 L 347.3,94.8 L 352.2,94.6 L 357.1,94.2 L 362.0,94.2 L 366.9,93.2 L 371.8,92.0 L 376.8,91.6 L 381.7,92.0 L 386.6,91.8 L 391.5,91.6 L 396.4,91.6 L 401.3,91.2 L 406.3,90.4 L 411.2,90.0 L 416.1,89.6 L 421.0,89.4 L 425.9,89.4 L 430.8,88.7 L 435.7,88.3 L 440.7,88.3 L 445.6,86.7 L 450.5,86.7 L 455.4,86.7 L 460.3,86.7 L 465.2,86.5 L 470.2,85.9 L 475.1,85.1 L 480.0,84.7 L 484.9,84.7 L 489.8,84.3 L 494.7,82.8 L 499.6,81.8 L 504.6,81.6 L 509.5,81.4 L 514.4,80.8 L 519.3,79.6 L 524.2,79.2 L 529.1,78.8 L 534.1,77.6 L 539.0,77.4 L 543.9,77.4 L 548.8,77.4 L 553.7,77.3 L 558.6,76.1 L 563.5,75.9 L 568.5,75.7 L 573.4,75.7 L 578.3,75.3 L 583.2,73.7 L 588.1,73.5 L 593.0,73.3 L 598.0,73.3 L 602.9,72.5 L 607.8,72.3 L 612.7,72.1 L 617.6,71.6 L 622.5,70.8 L 627.5,70.8 L 632.4,70.8 L 637.3,70.8 L 642.2,70.4 L 647.1,69.8 L 652.0,69.6 L 656.9,69.0 L 661.9,68.8 L 666.8,68.6 L 671.7,67.8 L 676.6,67.2 L 681.5,67.0 L 686.4,67.0 L 691.4,65.3 L 696.3,64.7 L 701.2,64.5 L 706.1,64.5 L 711.0,63.5 L 715.9,63.5 L 720.8,62.9 L 725.8,62.3 L 730.7,60.9 L 735.6,60.7 L 740.5,60.5 L 745.4,60.3 L 750.3,60.3 L 755.3,60.1 L 760.2,59.2 L 765.1,58.6 L 770.0,58.6 L 770.0,340 Z" fill="url(#g2)" clip-path="url(#ca)"/>
<path d="M 72.0,120.1 L 76.9,120.1 L 81.8,120.1 L 86.7,119.5 L 91.7,119.5 L 96.6,119.1 L 101.5,118.9 L 106.4,119.1 L 111.3,118.6 L 116.2,118.6 L 121.2,118.6 L 126.1,118.6 L 131.0,118.6 L 135.9,118.6 L 140.8,118.6 L 145.7,118.6 L 150.6,118.4 L 155.6,117.8 L 160.5,116.6 L 165.4,116.0 L 170.3,115.8 L 175.2,115.8 L 180.1,115.2 L 185.1,113.8 L 190.0,113.0 L 194.9,113.0 L 199.8,112.1 L 204.7,111.7 L 209.6,110.9 L 214.5,110.3 L 219.5,109.7 L 224.4,109.1 L 229.3,109.1 L 234.2,107.7 L 239.1,106.9 L 244.0,106.9 L 249.0,106.2 L 253.9,105.8 L 258.8,105.6 L 263.7,105.4 L 268.6,105.4 L 273.5,104.8 L 278.5,102.4 L 283.4,101.0 L 288.3,100.3 L 293.2,100.1 L 298.1,99.7 L 303.0,98.9 L 307.9,98.5 L 312.9,98.1 L 317.8,97.7 L 322.7,97.3 L 327.6,96.9 L 332.5,96.9 L 337.4,95.0 L 342.4,95.0 L 347.3,94.8 L 352.2,94.6 L 357.1,94.2 L 362.0,94.2 L 366.9,93.2 L 371.8,92.0 L 376.8,91.6 L 381.7,92.0 L 386.6,91.8 L 391.5,91.6 L 396.4,91.6 L 401.3,91.2 L 406.3,90.4 L 411.2,90.0 L 416.1,89.6 L 421.0,89.4 L 425.9,89.4 L 430.8,88.7 L 435.7,88.3 L 440.7,88.3 L 445.6,86.7 L 450.5,86.7 L 455.4,86.7 L 460.3,86.7 L 465.2,86.5 L 470.2,85.9 L 475.1,85.1 L 480.0,84.7 L 484.9,84.7 L 489.8,84.3 L 494.7,82.8 L 499.6,81.8 L 504.6,81.6 L 509.5,81.4 L 514.4,80.8 L 519.3,79.6 L 524.2,79.2 L 529.1,78.8 L 534.1,77.6 L 539.0,77.4 L 543.9,77.4 L 548.8,77.4 L 553.7,77.3 L 558.6,76.1 L 563.5,75.9 L 568.5,75.7 L 573.4,75.7 L 578.3,75.3 L 583.2,73.7 L 588.1,73.5 L 593.0,73.3 L 598.0,73.3 L 602.9,72.5 L 607.8,72.3 L 612.7,72.1 L 617.6,71.6 L 622.5,70.8 L 627.5,70.8 L 632.4,70.8 L 637.3,70.8 L 642.2,70.4 L 647.1,69.8 L 652.0,69.6 L 656.9,69.0 L 661.9,68.8 L 666.8,68.6 L 671.7,67.8 L 676.6,67.2 L 681.5,67.0 L 686.4,67.0 L 691.4,65.3 L 696.3,64.7 L 701.2,64.5 L 706.1,64.5 L 711.0,63.5 L 715.9,63.5 L 720.8,62.9 L 725.8,62.3 L 730.7,60.9 L 735.6,60.7 L 740.5,60.5 L 745.4,60.3 L 750.3,60.3 L 755.3,60.1 L 760.2,59.2 L 765.1,58.6 L 770.0,58.6" fill="none" stroke="#4F8EF7" stroke-width="2.5" stroke-linejoin="round" clip-path="url(#ca)"/>
<path d="M 72.0,340 L 72.0,244.2 L 76.9,243.6 L 81.8,243.6 L 86.7,243.6 L 91.7,243.4 L 96.6,243.0 L 101.5,242.8 L 106.4,242.6 L 111.3,242.6 L 116.2,242.5 L 121.2,242.3 L 126.1,242.3 L 131.0,242.3 L 135.9,242.3 L 140.8,242.3 L 145.7,242.3 L 150.6,241.9 L 155.6,241.9 L 160.5,241.9 L 165.4,241.1 L 170.3,240.9 L 175.2,240.5 L 180.1,239.7 L 185.1,239.5 L 190.0,239.5 L 194.9,239.5 L 199.8,238.9 L 204.7,238.5 L 209.6,238.5 L 214.5,238.1 L 219.5,237.9 L 224.4,237.5 L 229.3,237.5 L 234.2,237.3 L 239.1,236.6 L 244.0,236.0 L 249.0,235.6 L 253.9,235.4 L 258.8,235.4 L 263.7,235.2 L 268.6,234.8 L 273.5,234.8 L 278.5,234.6 L 283.4,234.0 L 288.3,233.6 L 293.2,233.6 L 298.1,233.6 L 303.0,233.6 L 307.9,233.4 L 312.9,232.8 L 317.8,232.4 L 322.7,232.2 L 327.6,232.0 L 332.5,231.8 L 337.4,231.6 L 342.4,231.4 L 347.3,231.2 L 352.2,230.7 L 357.1,230.5 L 362.0,230.3 L 366.9,229.5 L 371.8,228.7 L 376.8,228.7 L 381.7,228.5 L 386.6,228.3 L 391.5,228.3 L 396.4,228.3 L 401.3,227.9 L 406.3,227.9 L 411.2,226.7 L 416.1,226.5 L 421.0,226.3 L 425.9,226.3 L 430.8,225.9 L 435.7,225.7 L 440.7,225.7 L 445.6,225.5 L 450.5,225.5 L 455.4,225.5 L 460.3,225.1 L 465.2,224.9 L 470.2,224.0 L 475.1,224.2 L 480.0,224.0 L 484.9,223.8 L 489.8,223.8 L 494.7,223.6 L 499.6,223.0 L 504.6,223.0 L 509.5,223.0 L 514.4,223.0 L 519.3,222.6 L 524.2,222.6 L 529.1,222.2 L 534.1,221.8 L 539.0,221.0 L 543.9,221.0 L 548.8,220.6 L 553.7,220.4 L 558.6,220.2 L 563.5,220.0 L 568.5,219.6 L 573.4,219.6 L 578.3,219.1 L 583.2,219.1 L 588.1,218.9 L 593.0,218.5 L 598.0,218.3 L 602.9,218.3 L 607.8,218.3 L 612.7,218.3 L 617.6,218.3 L 622.5,217.7 L 627.5,217.7 L 632.4,217.3 L 637.3,216.9 L 642.2,216.3 L 647.1,216.1 L 652.0,216.1 L 656.9,214.9 L 661.9,214.7 L 666.8,214.7 L 671.7,213.9 L 676.6,213.9 L 681.5,213.5 L 686.4,213.5 L 691.4,213.3 L 696.3,213.3 L 701.2,213.2 L 706.1,212.8 L 711.0,212.8 L 715.9,212.6 L 720.8,212.4 L 725.8,212.2 L 730.7,212.0 L 735.6,212.0 L 740.5,211.6 L 745.4,211.6 L 750.3,211.6 L 755.3,210.6 L 760.2,210.6 L 765.1,210.6 L 770.0,210.6 L 770.0,340 Z" fill="url(#g3)" clip-path="url(#ca)"/>
<path d="M 72.0,244.2 L 76.9,243.6 L 81.8,243.6 L 86.7,243.6 L 91.7,243.4 L 96.6,243.0 L 101.5,242.8 L 106.4,242.6 L 111.3,242.6 L 116.2,242.5 L 121.2,242.3 L 126.1,242.3 L 131.0,242.3 L 135.9,242.3 L 140.8,242.3 L 145.7,242.3 L 150.6,241.9 L 155.6,241.9 L 160.5,241.9 L 165.4,241.1 L 170.3,240.9 L 175.2,240.5 L 180.1,239.7 L 185.1,239.5 L 190.0,239.5 L 194.9,239.5 L 199.8,238.9 L 204.7,238.5 L 209.6,238.5 L 214.5,238.1 L 219.5,237.9 L 224.4,237.5 L 229.3,237.5 L 234.2,237.3 L 239.1,236.6 L 244.0,236.0 L 249.0,235.6 L 253.9,235.4 L 258.8,235.4 L 263.7,235.2 L 268.6,234.8 L 273.5,234.8 L 278.5,234.6 L 283.4,234.0 L 288.3,233.6 L 293.2,233.6 L 298.1,233.6 L 303.0,233.6 L 307.9,233.4 L 312.9,232.8 L 317.8,232.4 L 322.7,232.2 L 327.6,232.0 L 332.5,231.8 L 337.4,231.6 L 342.4,231.4 L 347.3,231.2 L 352.2,230.7 L 357.1,230.5 L 362.0,230.3 L 366.9,229.5 L 371.8,228.7 L 376.8,228.7 L 381.7,228.5 L 386.6,228.3 L 391.5,228.3 L 396.4,228.3 L 401.3,227.9 L 406.3,227.9 L 411.2,226.7 L 416.1,226.5 L 421.0,226.3 L 425.9,226.3 L 430.8,225.9 L 435.7,225.7 L 440.7,225.7 L 445.6,225.5 L 450.5,225.5 L 455.4,225.5 L 460.3,225.1 L 465.2,224.9 L 470.2,224.0 L 475.1,224.2 L 480.0,224.0 L 484.9,223.8 L 489.8,223.8 L 494.7,223.6 L 499.6,223.0 L 504.6,223.0 L 509.5,223.0 L 514.4,223.0 L 519.3,222.6 L 524.2,222.6 L 529.1,222.2 L 534.1,221.8 L 539.0,221.0 L 543.9,221.0 L 548.8,220.6 L 553.7,220.4 L 558.6,220.2 L 563.5,220.0 L 568.5,219.6 L 573.4,219.6 L 578.3,219.1 L 583.2,219.1 L 588.1,218.9 L 593.0,218.5 L 598.0,218.3 L 602.9,218.3 L 607.8,218.3 L 612.7,218.3 L 617.6,218.3 L 622.5,217.7 L 627.5,217.7 L 632.4,217.3 L 637.3,216.9 L 642.2,216.3 L 647.1,216.1 L 652.0,216.1 L 656.9,214.9 L 661.9,214.7 L 666.8,214.7 L 671.7,213.9 L 676.6,213.9 L 681.5,213.5 L 686.4,213.5 L 691.4,213.3 L 696.3,213.3 L 701.2,213.2 L 706.1,212.8 L 711.0,212.8 L 715.9,212.6 L 720.8,212.4 L 725.8,212.2 L 730.7,212.0 L 735.6,212.0 L 740.5,211.6 L 745.4,211.6 L 750.3,211.6 L 755.3,210.6 L 760.2,210.6 L 765.1,210.6 L 770.0,210.6" fill="none" stroke="#BF5AF2" stroke-width="2.5" stroke-linejoin="round" clip-path="url(#ca)"/>
<path d="M 72.0,340 L 72.0,291.4 L 76.9,290.8 L 81.8,290.8 L 86.7,290.8 L 91.7,290.6 L 96.6,290.2 L 101.5,290.0 L 106.4,289.7 L 111.3,289.7 L 116.2,289.5 L 121.2,289.3 L 126.1,289.3 L 131.0,289.3 L 135.9,289.3 L 140.8,289.3 L 145.7,289.3 L 150.6,288.9 L 155.6,288.9 L 160.5,289.1 L 165.4,288.5 L 170.3,288.7 L 175.2,288.1 L 180.1,287.5 L 185.1,287.3 L 190.0,287.5 L 194.9,287.5 L 199.8,286.9 L 204.7,286.7 L 209.6,286.7 L 214.5,286.3 L 219.5,286.1 L 224.4,285.7 L 229.3,285.7 L 234.2,285.5 L 239.1,284.9 L 244.0,284.3 L 249.0,283.9 L 253.9,283.9 L 258.8,283.9 L 263.7,283.8 L 268.6,283.4 L 273.5,283.4 L 278.5,283.2 L 283.4,282.6 L 288.3,282.4 L 293.2,282.4 L 298.1,282.4 L 303.0,282.4 L 307.9,282.2 L 312.9,281.6 L 317.8,281.4 L 322.7,281.2 L 327.6,281.0 L 332.5,281.0 L 337.4,280.8 L 342.4,280.8 L 347.3,280.8 L 352.2,280.2 L 357.1,280.2 L 362.0,280.2 L 366.9,279.8 L 371.8,279.2 L 376.8,279.2 L 381.7,279.0 L 386.6,278.8 L 391.5,278.8 L 396.4,278.8 L 401.3,278.4 L 406.3,278.4 L 411.2,277.3 L 416.1,277.1 L 421.0,276.9 L 425.9,276.9 L 430.8,276.7 L 435.7,276.7 L 440.7,276.7 L 445.6,276.7 L 450.5,276.7 L 455.4,276.7 L 460.3,276.3 L 465.2,276.1 L 470.2,275.1 L 475.1,275.3 L 480.0,275.3 L 484.9,275.1 L 489.8,275.1 L 494.7,275.1 L 499.6,274.7 L 504.6,274.7 L 509.5,274.7 L 514.4,274.7 L 519.3,274.7 L 524.2,274.7 L 529.1,274.5 L 534.1,274.5 L 539.0,273.7 L 543.9,273.7 L 548.8,273.5 L 553.7,273.3 L 558.6,273.1 L 563.5,272.9 L 568.5,272.5 L 573.4,272.5 L 578.3,272.0 L 583.2,272.0 L 588.1,271.8 L 593.0,271.6 L 598.0,271.6 L 602.9,271.6 L 607.8,271.6 L 612.7,271.6 L 617.6,271.6 L 622.5,271.0 L 627.5,271.0 L 632.4,270.6 L 637.3,270.2 L 642.2,269.6 L 647.1,269.4 L 652.0,269.4 L 656.9,268.4 L 661.9,268.2 L 666.8,268.2 L 671.7,267.6 L 676.6,267.6 L 681.5,267.4 L 686.4,267.4 L 691.4,267.6 L 696.3,267.8 L 701.2,267.6 L 706.1,267.2 L 711.0,267.4 L 715.9,267.2 L 720.8,267.0 L 725.8,267.0 L 730.7,267.0 L 735.6,267.0 L 740.5,266.6 L 745.4,266.6 L 750.3,266.6 L 755.3,265.9 L 760.2,265.9 L 765.1,265.9 L 770.0,265.9 L 770.0,340 Z" fill="url(#g4)" clip-path="url(#ca)"/>
<path d="M 72.0,291.4 L 76.9,290.8 L 81.8,290.8 L 86.7,290.8 L 91.7,290.6 L 96.6,290.2 L 101.5,290.0 L 106.4,289.7 L 111.3,289.7 L 116.2,289.5 L 121.2,289.3 L 126.1,289.3 L 131.0,289.3 L 135.9,289.3 L 140.8,289.3 L 145.7,289.3 L 150.6,288.9 L 155.6,288.9 L 160.5,289.1 L 165.4,288.5 L 170.3,288.7 L 175.2,288.1 L 180.1,287.5 L 185.1,287.3 L 190.0,287.5 L 194.9,287.5 L 199.8,286.9 L 204.7,286.7 L 209.6,286.7 L 214.5,286.3 L 219.5,286.1 L 224.4,285.7 L 229.3,285.7 L 234.2,285.5 L 239.1,284.9 L 244.0,284.3 L 249.0,283.9 L 253.9,283.9 L 258.8,283.9 L 263.7,283.8 L 268.6,283.4 L 273.5,283.4 L 278.5,283.2 L 283.4,282.6 L 288.3,282.4 L 293.2,282.4 L 298.1,282.4 L 303.0,282.4 L 307.9,282.2 L 312.9,281.6 L 317.8,281.4 L 322.7,281.2 L 327.6,281.0 L 332.5,281.0 L 337.4,280.8 L 342.4,280.8 L 347.3,280.8 L 352.2,280.2 L 357.1,280.2 L 362.0,280.2 L 366.9,279.8 L 371.8,279.2 L 376.8,279.2 L 381.7,279.0 L 386.6,278.8 L 391.5,278.8 L 396.4,278.8 L 401.3,278.4 L 406.3,278.4 L 411.2,277.3 L 416.1,277.1 L 421.0,276.9 L 425.9,276.9 L 430.8,276.7 L 435.7,276.7 L 440.7,276.7 L 445.6,276.7 L 450.5,276.7 L 455.4,276.7 L 460.3,276.3 L 465.2,276.1 L 470.2,275.1 L 475.1,275.3 L 480.0,275.3 L 484.9,275.1 L 489.8,275.1 L 494.7,275.1 L 499.6,274.7 L 504.6,274.7 L 509.5,274.7 L 514.4,274.7 L 519.3,274.7 L 524.2,274.7 L 529.1,274.5 L 534.1,274.5 L 539.0,273.7 L 543.9,273.7 L 548.8,273.5 L 553.7,273.3 L 558.6,273.1 L 563.5,272.9 L 568.5,272.5 L 573.4,272.5 L 578.3,272.0 L 583.2,272.0 L 588.1,271.8 L 593.0,271.6 L 598.0,271.6 L 602.9,271.6 L 607.8,271.6 L 612.7,271.6 L 617.6,271.6 L 622.5,271.0 L 627.5,271.0 L 632.4,270.6 L 637.3,270.2 L 642.2,269.6 L 647.1,269.4 L 652.0,269.4 L 656.9,268.4 L 661.9,268.2 L 666.8,268.2 L 671.7,267.6 L 676.6,267.6 L 681.5,267.4 L 686.4,267.4 L 691.4,267.6 L 696.3,267.8 L 701.2,267.6 L 706.1,267.2 L 711.0,267.4 L 715.9,267.2 L 720.8,267.0 L 725.8,267.0 L 730.7,267.0 L 735.6,267.0 L 740.5,266.6 L 745.4,266.6 L 750.3,266.6 L 755.3,265.9 L 760.2,265.9 L 765.1,265.9 L 770.0,265.9" fill="none" stroke="#34C759" stroke-width="2.5" stroke-linejoin="round" clip-path="url(#ca)"/>
<text x="99.0" y="55.0" text-anchor="middle" font-size="9" fill="#4F8EF7" opacity="0.85" clip-path="url(#ca)">+0.5% (+8)</text>
<text x="99.0" y="66.0" text-anchor="middle" font-size="9" fill="#BF5AF2" opacity="0.85" clip-path="url(#ca)">+1.0% (+10)</text>
<text x="99.0" y="77.0" text-anchor="middle" font-size="9" fill="#34C759" opacity="0.85" clip-path="url(#ca)">+1.5% (+11)</text>
<text x="192.4" y="55.0" text-anchor="middle" font-size="9" fill="#4F8EF7" opacity="0.85" clip-path="url(#ca)">+4.0% (+65)</text>
<text x="192.4" y="66.0" text-anchor="middle" font-size="9" fill="#BF5AF2" opacity="0.85" clip-path="url(#ca)">+3.5% (+35)</text>
<text x="192.4" y="77.0" text-anchor="middle" font-size="9" fill="#34C759" opacity="0.85" clip-path="url(#ca)">+3.6% (+27)</text>
<text x="322.7" y="55.0" text-anchor="middle" font-size="9" fill="#4F8EF7" opacity="0.85" clip-path="url(#ca)">+4.1% (+70)</text>
<text x="322.7" y="66.0" text-anchor="middle" font-size="9" fill="#BF5AF2" opacity="0.85" clip-path="url(#ca)">+3.5% (+36)</text>
<text x="322.7" y="77.0" text-anchor="middle" font-size="9" fill="#34C759" opacity="0.85" clip-path="url(#ca)">+3.3% (+26)</text>
<text x="455.4" y="55.0" text-anchor="middle" font-size="9" fill="#4F8EF7" opacity="0.85" clip-path="url(#ca)">+3.5% (+61)</text>
<text x="455.4" y="66.0" text-anchor="middle" font-size="9" fill="#BF5AF2" opacity="0.85" clip-path="url(#ca)">+2.7% (+29)</text>
<text x="455.4" y="77.0" text-anchor="middle" font-size="9" fill="#34C759" opacity="0.85" clip-path="url(#ca)">+2.6% (+21)</text>
<text x="588.1" y="55.0" text-anchor="middle" font-size="9" fill="#4F8EF7" opacity="0.85" clip-path="url(#ca)">+2.7% (+49)</text>
<text x="588.1" y="66.0" text-anchor="middle" font-size="9" fill="#BF5AF2" opacity="0.85" clip-path="url(#ca)">+3.0% (+33)</text>
<text x="588.1" y="77.0" text-anchor="middle" font-size="9" fill="#34C759" opacity="0.85" clip-path="url(#ca)">+3.2% (+27)</text>
<text x="713.5" y="55.0" text-anchor="middle" font-size="9" fill="#4F8EF7" opacity="0.85" clip-path="url(#ca)">+2.8% (+53)</text>
<text x="713.5" y="66.0" text-anchor="middle" font-size="9" fill="#BF5AF2" opacity="0.85" clip-path="url(#ca)">+1.9% (+22)</text>
<text x="713.5" y="77.0" text-anchor="middle" font-size="9" fill="#34C759" opacity="0.85" clip-path="url(#ca)">+1.5% (+13)</text>
<rect x="211" y="369" width="12" height="12" fill="#4F8EF7" rx="2"/>
<text x="227" y="379" font-size="12" fill="#111827">Authors</text>
<rect x="351" y="369" width="12" height="12" fill="#BF5AF2" rx="2"/>
<text x="367" y="379" font-size="12" fill="#111827">Contributors</text>
<rect x="491" y="369" width="12" height="12" fill="#34C759" rx="2"/>
<text x="507" y="379" font-size="12" fill="#111827">Non-author contributors</text>
<text x="72" y="394" font-size="8" fill="#e5e7eb">data since Dec 11, 2025</text>
</svg>