<svg xmlns="http://www.w3.org/2000/svg" width="800" height="400" viewBox="0 0 800 400">
<defs>
  <style>text { font-family: -apple-system, BlinkMacSystemFont, 'Segoe UI', Roboto, sans-serif; }</style>
  <linearGradient id="g2" x1="0" y1="0" x2="0" y2="1">
  <stop offset="0%" stop-color="#4F8EF7" stop-opacity="0.25"/>
  <stop offset="100%" stop-color="#4F8EF7" stop-opacity="0"/>
</linearGradient>
<linearGradient id="g3" x1="0" y1="0" x2="0" y2="1">
  <stop offset="0%" stop-color="#BF5AF2" stop-opacity="0.25"/>
  <stop offset="100%" stop-color="#BF5AF2" stop-opacity="0"/>
</linearGradient>
<linearGradient id="g4" x1="0" y1="0" x2="0" y2="1">
  <stop offset="0%" stop-color="#34C759" stop-opacity="0.25"/>
  <stop offset="100%" stop-color="#34C759" stop-opacity="0"/>
</linearGradient>
  <clipPath id="ca"><rect x="72" y="45" width="698" height="295"/></clipPath>
</defs>
<rect width="800" height="400" fill="#ffffff" rx="12"/>
<text x="400" y="26" text-anchor="middle" font-size="15" font-weight="600" fill="#111827">Community Growth Over Time</text>
<line x1="72" y1="340.0" x2="770" y2="340.0" stroke="#f3f4f6" stroke-width="1"/>
<text x="66" y="344.0" text-anchor="end" font-size="11" fill="#6b7280">500</text>
<line x1="72" y1="241.7" x2="770" y2="241.7" stroke="#f3f4f6" stroke-width="1"/>
<text x="66" y="245.7" text-anchor="end" font-size="11" fill="#6b7280">1.0k</text>
<line x1="72" y1="143.3" x2="770" y2="143.3" stroke="#f3f4f6" stroke-width="1"/>
<text x="66" y="147.3" text-anchor="end" font-size="11" fill="#6b7280">1.5k</text>
<line x1="72" y1="45.0" x2="770" y2="45.0" stroke="#f3f4f6" stroke-width="1"/>
<text x="66" y="49.0" text-anchor="end" font-size="11" fill="#6b7280">2.0k</text>
<line x1="126.7" y1="45" x2="126.7" y2="340" stroke="#e5e7eb" stroke-width="1" stroke-dasharray="3,3" clip-path="url(#ca)"/>
<line x1="245.4" y1="45" x2="245.4" y2="340" stroke="#e5e7eb" stroke-width="1" stroke-dasharray="3,3" clip-path="url(#ca)"/>
<line x1="368.5" y1="45" x2="368.5" y2="340" stroke="#e5e7eb" stroke-width="1" stroke-dasharray="3,3" clip-path="url(#ca)"/>
<line x1="491.7" y1="45" x2="491.7" y2="340" stroke="#e5e7eb" stroke-width="1" stroke-dasharray="3,3" clip-path="url(#ca)"/>
<line x1="614.9" y1="45" x2="614.9" y2="340" stroke="#e5e7eb" stroke-width="1" stroke-dasharray="3,3" clip-path="url(#ca)"/>
<line x1="733.5" y1="45" x2="733.5" y2="340" stroke="#e5e7eb" stroke-width="1" stroke-dasharray="3,3" clip-path="url(#ca)"/>
<text x="72.0" y="358.0" text-anchor="middle" font-size="11" fill="#6b7280">Dec 11</text>
<text x="213.4" y="358.0" text-anchor="middle" font-size="11" fill="#6b7280">Jan 25</text>
<text x="350.3" y="358.0" text-anchor="middle" font-size="11" fill="#6b7280">Feb 25</text>
<text x="491.7" y="358.0" text-anchor="middle" font-size="11" fill="#6b7280">Apr 1</text>
<text x="628.6" y="358.0" text-anchor="middle" font-size="11" fill="#6b7280">May 6</text>
<text x="770.0" y="358.0" text-anchor="middle" font-size="11" fill="#6b7280">Jun 11</text>
<line x1="72" y1="45" x2="72" y2="340" stroke="#e5e7eb" stroke-width="1"/>
<line x1="72" y1="340" x2="770" y2="340" stroke="#e5e7eb" stroke-width="1"/>
<text x="-192.5" y="18" text-anchor="middle" font-size="12" fill="#6b7280" transform="rotate(-90)">People</text>
<path d="M 72.0,340 L 72.0,120.1 L 76.6,120.1 L 81.1,120.1 L 85.7,119.5 L 90.2,119.5 L 94.8,119.1 L 99.4,118.9 L 103.9,119.1 L 108.5,118.6 L 113.1,118.6 L 117.6,118.6 L 122.2,118.6 L 126.7,118.6 L 131.3,118.6 L 135.9,118.6 L 140.4,118.6 L 145.0,118.4 L 149.6,117.8 L 154.1,116.6 L 158.7,116.0 L 163.2,115.8 L 167.8,115.8 L 172.4,115.2 L 176.9,113.8 L 181.5,113.0 L 186.1,113.0 L 190.6,112.1 L 195.2,111.7 L 199.7,110.9 L 204.3,110.3 L 208.9,109.7 L 213.4,109.1 L 218.0,109.1 L 222.5,107.7 L 227.1,106.9 L 231.7,106.9 L 236.2,106.2 L 240.8,105.8 L 245.4,105.6 L 249.9,105.4 L 254.5,105.4 L 259.0,104.8 L 263.6,102.4 L 268.2,101.0 L 272.7,100.3 L 277.3,100.1 L 281.9,99.7 L 286.4,98.9 L 291.0,98.5 L 295.5,98.1 L 300.1,97.7 L 304.7,97.3 L 309.2,96.9 L 313.8,96.9 L 318.4,95.0 L 322.9,95.0 L 327.5,94.8 L 332.0,94.6 L 336.6,94.2 L 341.2,94.2 L 345.7,93.2 L 350.3,92.0 L 354.8,91.6 L 359.4,92.0 L 364.0,91.8 L 368.5,91.6 L 373.1,91.6 L 377.7,91.2 L 382.2,90.4 L 386.8,90.0 L 391.3,89.6 L 395.9,89.4 L 400.5,89.4 L 405.0,88.7 L 409.6,88.3 L 414.2,88.3 L 418.7,86.7 L 423.3,86.7 L 427.8,86.7 L 432.4,86.7 L 437.0,86.5 L 441.5,85.9 L 446.1,85.1 L 450.7,84.7 L 455.2,84.7 L 459.8,84.3 L 464.3,82.8 L 468.9,81.8 L 473.5,81.6 L 478.0,81.4 L 482.6,80.8 L 487.2,79.6 L 491.7,79.2 L 496.3,78.8 L 500.8,77.6 L 505.4,77.4 L 510.0,77.4 L 514.5,77.4 L 519.1,77.3 L 523.6,76.1 L 528.2,75.9 L 532.8,75.7 L 537.3,75.7 L 541.9,75.3 L 546.5,73.7 L 551.0,73.5 L 555.6,73.3 L 560.1,73.3 L 564.7,72.5 L 569.3,72.3 L 573.8,72.1 L 578.4,71.6 L 583.0,70.8 L 587.5,70.8 L 592.1,70.8 L 596.6,70.8 L 601.2,70.4 L 605.8,69.8 L 610.3,69.6 L 614.9,69.0 L 619.5,68.8 L 624.0,68.6 L 628.6,67.8 L 633.1,67.2 L 637.7,67.0 L 642.3,67.0 L 646.8,65.3 L 651.4,64.7 L 655.9,64.5 L 660.5,64.5 L 665.1,63.5 L 669.6,63.5 L 674.2,62.9 L 678.8,62.3 L 683.3,60.9 L 687.9,60.7 L 692.4,60.5 L 697.0,60.3 L 701.6,60.3 L 706.1,60.1 L 710.7,59.2 L 715.3,58.6 L 719.8,58.6 L 724.4,58.4 L 728.9,58.4 L 733.5,57.8 L 738.1,57.6 L 742.6,57.4 L 747.2,56.8 L 751.8,56.0 L 756.3,56.0 L 760.9,55.8 L 765.4,55.6 L 770.0,54.6 L 770.0,340 Z" fill="url(#g2)" clip-path="url(#ca)"/>
<path d="M 72.0,120.1 L 76.6,120.1 L 81.1,120.1 L 85.7,119.5 L 90.2,119.5 L 94.8,119.1 L 99.4,118.9 L 103.9,119.1 L 108.5,118.6 L 113.1,118.6 L 117.6,118.6 L 122.2,118.6 L 126.7,118.6 L 131.3,118.6 L 135.9,118.6 L 140.4,118.6 L 145.0,118.4 L 149.6,117.8 L 154.1,116.6 L 158.7,116.0 L 163.2,115.8 L 167.8,115.8 L 172.4,115.2 L 176.9,113.8 L 181.5,113.0 L 186.1,113.0 L 190.6,112.1 L 195.2,111.7 L 199.7,110.9 L 204.3,110.3 L 208.9,109.7 L 213.4,109.1 L 218.0,109.1 L 222.5,107.7 L 227.1,106.9 L 231.7,106.9 L 236.2,106.2 L 240.8,105.8 L 245.4,105.6 L 249.9,105.4 L 254.5,105.4 L 259.0,104.8 L 263.6,102.4 L 268.2,101.0 L 272.7,100.3 L 277.3,100.1 L 281.9,99.7 L 286.4,98.9 L 291.0,98.5 L 295.5,98.1 L 300.1,97.7 L 304.7,97.3 L 309.2,96.9 L 313.8,96.9 L 318.4,95.0 L 322.9,95.0 L 327.5,94.8 L 332.0,94.6 L 336.6,94.2 L 341.2,94.2 L 345.7,93.2 L 350.3,92.0 L 354.8,91.6 L 359.4,92.0 L 364.0,91.8 L 368.5,91.6 L 373.1,91.6 L 377.7,91.2 L 382.2,90.4 L 386.8,90.0 L 391.3,89.6 L 395.9,89.4 L 400.5,89.4 L 405.0,88.7 L 409.6,88.3 L 414.2,88.3 L 418.7,86.7 L 423.3,86.7 L 427.8,86.7 L 432.4,86.7 L 437.0,86.5 L 441.5,85.9 L 446.1,85.1 L 450.7,84.7 L 455.2,84.7 L 459.8,84.3 L 464.3,82.8 L 468.9,81.8 L 473.5,81.6 L 478.0,81.4 L 482.6,80.8 L 487.2,79.6 L 491.7,79.2 L 496.3,78.8 L 500.8,77.6 L 505.4,77.4 L 510.0,77.4 L 514.5,77.4 L 519.1,77.3 L 523.6,76.1 L 528.2,75.9 L 532.8,75.7 L 537.3,75.7 L 541.9,75.3 L 546.5,73.7 L 551.0,73.5 L 555.6,73.3 L 560.1,73.3 L 564.7,72.5 L 569.3,72.3 L 573.8,72.1 L 578.4,71.6 L 583.0,70.8 L 587.5,70.8 L 592.1,70.8 L 596.6,70.8 L 601.2,70.4 L 605.8,69.8 L 610.3,69.6 L 614.9,69.0 L 619.5,68.8 L 624.0,68.6 L 628.6,67.8 L 633.1,67.2 L 637.7,67.0 L 642.3,67.0 L 646.8,65.3 L 651.4,64.7 L 655.9,64.5 L 660.5,64.5 L 665.1,63.5 L 669.6,63.5 L 674.2,62.9 L 678.8,62.3 L 683.3,60.9 L 687.9,60.7 L 692.4,60.5 L 697.0,60.3 L 701.6,60.3 L 706.1,60.1 L 710.7,59.2 L 715.3,58.6 L 719.8,58.6 L 724.4,58.4 L 728.9,58.4 L 733.5,57.8 L 738.1,57.6 L 742.6,57.4 L 747.2,56.8 L 751.8,56.0 L 756.3,56.0 L 760.9,55.8 L 765.4,55.6 L 770.0,54.6" fill="none" stroke="#4F8EF7" stroke-width="2.5" stroke-linejoin="round" clip-path="url(#ca)"/>
<path d="M 72.0,340 L 72.0,244.2 L 76.6,243.6 L 81.1,243.6 L 85.7,243.6 L 90.2,243.4 L 94.8,243.0 L 99.4,242.8 L 103.9,242.6 L 108.5,242.6 L 113.1,242.5 L 117.6,242.3 L 122.2,242.3 L 126.7,242.3 L 131.3,242.3 L 135.9,242.3 L 140.4,242.3 L 145.0,241.9 L 149.6,241.9 L 154.1,241.9 L 158.7,241.1 L 163.2,240.9 L 167.8,240.5 L 172.4,239.7 L 176.9,239.5 L 181.5,239.5 L 186.1,239.5 L 190.6,238.9 L 195.2,238.5 L 199.7,238.5 L 204.3,238.1 L 208.9,237.9 L 213.4,237.5 L 218.0,237.5 L 222.5,237.3 L 227.1,236.6 L 231.7,236.0 L 236.2,235.6 L 240.8,235.4 L 245.4,235.4 L 249.9,235.2 L 254.5,234.8 L 259.0,234.8 L 263.6,234.6 L 268.2,234.0 L 272.7,233.6 L 277.3,233.6 L 281.9,233.6 L 286.4,233.6 L 291.0,233.4 L 295.5,232.8 L 300.1,232.4 L 304.7,232.2 L 309.2,232.0 L 313.8,231.8 L 318.4,231.6 L 322.9,231.4 L 327.5,231.2 L 332.0,230.7 L 336.6,230.5 L 341.2,230.3 L 345.7,229.5 L 350.3,228.7 L 354.8,228.7 L 359.4,228.5 L 364.0,228.3 L 368.5,228.3 L 373.1,228.3 L 377.7,227.9 L 382.2,227.9 L 386.8,226.7 L 391.3,226.5 L 395.9,226.3 L 400.5,226.3 L 405.0,225.9 L 409.6,225.7 L 414.2,225.7 L 418.7,225.5 L 423.3,225.5 L 427.8,225.5 L 432.4,225.1 L 437.0,224.9 L 441.5,224.0 L 446.1,224.2 L 450.7,224.0 L 455.2,223.8 L 459.8,223.8 L 464.3,223.6 L 468.9,223.0 L 473.5,223.0 L 478.0,223.0 L 482.6,223.0 L 487.2,222.6 L 491.7,222.6 L 496.3,222.2 L 500.8,221.8 L 505.4,221.0 L 510.0,221.0 L 514.5,220.6 L 519.1,220.4 L 523.6,220.2 L 528.2,220.0 L 532.8,219.6 L 537.3,219.6 L 541.9,219.1 L 546.5,219.1 L 551.0,218.9 L 555.6,218.5 L 560.1,218.3 L 564.7,218.3 L 569.3,218.3 L 573.8,218.3 L 578.4,218.3 L 583.0,217.7 L 587.5,217.7 L 592.1,217.3 L 596.6,216.9 L 601.2,216.3 L 605.8,216.1 L 610.3,216.1 L 614.9,214.9 L 619.5,214.7 L 624.0,214.7 L 628.6,213.9 L 633.1,213.9 L 637.7,213.5 L 642.3,213.5 L 646.8,213.3 L 651.4,213.3 L 655.9,213.2 L 660.5,212.8 L 665.1,212.8 L 669.6,212.6 L 674.2,212.4 L 678.8,212.2 L 683.3,212.0 L 687.9,212.0 L 692.4,211.6 L 697.0,211.6 L 701.6,211.6 L 706.1,210.6 L 710.7,210.6 L 715.3,210.6 L 719.8,210.6 L 724.4,210.6 L 728.9,210.6 L 733.5,210.2 L 738.1,210.2 L 742.6,209.8 L 747.2,209.0 L 751.8,208.6 L 756.3,208.4 L 760.9,208.4 L 765.4,208.2 L 770.0,207.6 L 770.0,340 Z" fill="url(#g3)" clip-path="url(#ca)"/>
<path d="M 72.0,244.2 L 76.6,243.6 L 81.1,243.6 L 85.7,243.6 L 90.2,243.4 L 94.8,243.0 L 99.4,242.8 L 103.9,242.6 L 108.5,242.6 L 113.1,242.5 L 117.6,242.3 L 122.2,242.3 L 126.7,242.3 L 131.3,242.3 L 135.9,242.3 L 140.4,242.3 L 145.0,241.9 L 149.6,241.9 L 154.1,241.9 L 158.7,241.1 L 163.2,240.9 L 167.8,240.5 L 172.4,239.7 L 176.9,239.5 L 181.5,239.5 L 186.1,239.5 L 190.6,238.9 L 195.2,238.5 L 199.7,238.5 L 204.3,238.1 L 208.9,237.9 L 213.4,237.5 L 218.0,237.5 L 222.5,237.3 L 227.1,236.6 L 231.7,236.0 L 236.2,235.6 L 240.8,235.4 L 245.4,235.4 L 249.9,235.2 L 254.5,234.8 L 259.0,234.8 L 263.6,234.6 L 268.2,234.0 L 272.7,233.6 L 277.3,233.6 L 281.9,233.6 L 286.4,233.6 L 291.0,233.4 L 295.5,232.8 L 300.1,232.4 L 304.7,232.2 L 309.2,232.0 L 313.8,231.8 L 318.4,231.6 L 322.9,231.4 L 327.5,231.2 L 332.0,230.7 L 336.6,230.5 L 341.2,230.3 L 345.7,229.5 L 350.3,228.7 L 354.8,228.7 L 359.4,228.5 L 364.0,228.3 L 368.5,228.3 L 373.1,228.3 L 377.7,227.9 L 382.2,227.9 L 386.8,226.7 L 391.3,226.5 L 395.9,226.3 L 400.5,226.3 L 405.0,225.9 L 409.6,225.7 L 414.2,225.7 L 418.7,225.5 L 423.3,225.5 L 427.8,225.5 L 432.4,225.1 L 437.0,224.9 L 441.5,224.0 L 446.1,224.2 L 450.7,224.0 L 455.2,223.8 L 459.8,223.8 L 464.3,223.6 L 468.9,223.0 L 473.5,223.0 L 478.0,223.0 L 482.6,223.0 L 487.2,222.6 L 491.7,222.6 L 496.3,222.2 L 500.8,221.8 L 505.4,221.0 L 510.0,221.0 L 514.5,220.6 L 519.1,220.4 L 523.6,220.2 L 528.2,220.0 L 532.8,219.6 L 537.3,219.6 L 541.9,219.1 L 546.5,219.1 L 551.0,218.9 L 555.6,218.5 L 560.1,218.3 L 564.7,218.3 L 569.3,218.3 L 573.8,218.3 L 578.4,218.3 L 583.0,217.7 L 587.5,217.7 L 592.1,217.3 L 596.6,216.9 L 601.2,216.3 L 605.8,216.1 L 610.3,216.1 L 614.9,214.9 L 619.5,214.7 L 624.0,214.7 L 628.6,213.9 L 633.1,213.9 L 637.7,213.5 L 642.3,213.5 L 646.8,213.3 L 651.4,213.3 L 655.9,213.2 L 660.5,212.8 L 665.1,212.8 L 669.6,212.6 L 674.2,212.4 L 678.8,212.2 L 683.3,212.0 L 687.9,212.0 L 692.4,211.6 L 697.0,211.6 L 701.6,211.6 L 706.1,210.6 L 710.7,210.6 L 715.3,210.6 L 719.8,210.6 L 724.4,210.6 L 728.9,210.6 L 733.5,210.2 L 738.1,210.2 L 742.6,209.8 L 747.2,209.0 L 751.8,208.6 L 756.3,208.4 L 760.9,208.4 L 765.4,208.2 L 770.0,207.6" fill="none" stroke="#BF5AF2" stroke-width="2.5" stroke-linejoin="round" clip-path="url(#ca)"/>
<path d="M 72.0,340 L 72.0,291.4 L 76.6,290.8 L 81.1,290.8 L 85.7,290.8 L 90.2,290.6 L 94.8,290.2 L 99.4,290.0 L 103.9,289.7 L 108.5,289.7 L 113.1,289.5 L 117.6,289.3 L 122.2,289.3 L 126.7,289.3 L 131.3,289.3 L 135.9,289.3 L 140.4,289.3 L 145.0,288.9 L 149.6,288.9 L 154.1,289.1 L 158.7,288.5 L 163.2,288.7 L 167.8,288.1 L 172.4,287.5 L 176.9,287.3 L 181.5,287.5 L 186.1,287.5 L 190.6,286.9 L 195.2,286.7 L 199.7,286.7 L 204.3,286.3 L 208.9,286.1 L 213.4,285.7 L 218.0,285.7 L 222.5,285.5 L 227.1,284.9 L 231.7,284.3 L 236.2,283.9 L 240.8,283.9 L 245.4,283.9 L 249.9,283.8 L 254.5,283.4 L 259.0,283.4 L 263.6,283.2 L 268.2,282.6 L 272.7,282.4 L 277.3,282.4 L 281.9,282.4 L 286.4,282.4 L 291.0,282.2 L 295.5,281.6 L 300.1,281.4 L 304.7,281.2 L 309.2,281.0 L 313.8,281.0 L 318.4,280.8 L 322.9,280.8 L 327.5,280.8 L 332.0,280.2 L 336.6,280.2 L 341.2,280.2 L 345.7,279.8 L 350.3,279.2 L 354.8,279.2 L 359.4,279.0 L 364.0,278.8 L 368.5,278.8 L 373.1,278.8 L 377.7,278.4 L 382.2,278.4 L 386.8,277.3 L 391.3,277.1 L 395.9,276.9 L 400.5,276.9 L 405.0,276.7 L 409.6,276.7 L 414.2,276.7 L 418.7,276.7 L 423.3,276.7 L 427.8,276.7 L 432.4,276.3 L 437.0,276.1 L 441.5,275.1 L 446.1,275.3 L 450.7,275.3 L 455.2,275.1 L 459.8,275.1 L 464.3,275.1 L 468.9,274.7 L 473.5,274.7 L 478.0,274.7 L 482.6,274.7 L 487.2,274.7 L 491.7,274.7 L 496.3,274.5 L 500.8,274.5 L 505.4,273.7 L 510.0,273.7 L 514.5,273.5 L 519.1,273.3 L 523.6,273.1 L 528.2,272.9 L 532.8,272.5 L 537.3,272.5 L 541.9,272.0 L 546.5,272.0 L 551.0,271.8 L 555.6,271.6 L 560.1,271.6 L 564.7,271.6 L 569.3,271.6 L 573.8,271.6 L 578.4,271.6 L 583.0,271.0 L 587.5,271.0 L 592.1,270.6 L 596.6,270.2 L 601.2,269.6 L 605.8,269.4 L 610.3,269.4 L 614.9,268.4 L 619.5,268.2 L 624.0,268.2 L 628.6,267.6 L 633.1,267.6 L 637.7,267.4 L 642.3,267.4 L 646.8,267.6 L 651.4,267.8 L 655.9,267.6 L 660.5,267.2 L 665.1,267.4 L 669.6,267.2 L 674.2,267.0 L 678.8,267.0 L 683.3,267.0 L 687.9,267.0 L 692.4,266.6 L 697.0,266.6 L 701.6,266.6 L 706.1,265.9 L 710.7,265.9 L 715.3,265.9 L 719.8,265.9 L 724.4,265.9 L 728.9,265.9 L 733.5,265.5 L 738.1,265.5 L 742.6,265.1 L 747.2,264.3 L 751.8,264.1 L 756.3,264.1 L 760.9,264.1 L 765.4,264.1 L 770.0,263.7 L 770.0,340 Z" fill="url(#g4)" clip-path="url(#ca)"/>
<path d="M 72.0,291.4 L 76.6,290.8 L 81.1,290.8 L 85.7,290.8 L 90.2,290.6 L 94.8,290.2 L 99.4,290.0 L 103.9,289.7 L 108.5,289.7 L 113.1,289.5 L 117.6,289.3 L 122.2,289.3 L 126.7,289.3 L 131.3,289.3 L 135.9,289.3 L 140.4,289.3 L 145.0,288.9 L 149.6,288.9 L 154.1,289.1 L 158.7,288.5 L 163.2,288.7 L 167.8,288.1 L 172.4,287.5 L 176.9,287.3 L 181.5,287.5 L 186.1,287.5 L 190.6,286.9 L 195.2,286.7 L 199.7,286.7 L 204.3,286.3 L 208.9,286.1 L 213.4,285.7 L 218.0,285.7 L 222.5,285.5 L 227.1,284.9 L 231.7,284.3 L 236.2,283.9 L 240.8,283.9 L 245.4,283.9 L 249.9,283.8 L 254.5,283.4 L 259.0,283.4 L 263.6,283.2 L 268.2,282.6 L 272.7,282.4 L 277.3,282.4 L 281.9,282.4 L 286.4,282.4 L 291.0,282.2 L 295.5,281.6 L 300.1,281.4 L 304.7,281.2 L 309.2,281.0 L 313.8,281.0 L 318.4,280.8 L 322.9,280.8 L 327.5,280.8 L 332.0,280.2 L 336.6,280.2 L 341.2,280.2 L 345.7,279.8 L 350.3,279.2 L 354.8,279.2 L 359.4,279.0 L 364.0,278.8 L 368.5,278.8 L 373.1,278.8 L 377.7,278.4 L 382.2,278.4 L 386.8,277.3 L 391.3,277.1 L 395.9,276.9 L 400.5,276.9 L 405.0,276.7 L 409.6,276.7 L 414.2,276.7 L 418.7,276.7 L 423.3,276.7 L 427.8,276.7 L 432.4,276.3 L 437.0,276.1 L 441.5,275.1 L 446.1,275.3 L 450.7,275.3 L 455.2,275.1 L 459.8,275.1 L 464.3,275.1 L 468.9,274.7 L 473.5,274.7 L 478.0,274.7 L 482.6,274.7 L 487.2,274.7 L 491.7,274.7 L 496.3,274.5 L 500.8,274.5 L 505.4,273.7 L 510.0,273.7 L 514.5,273.5 L 519.1,273.3 L 523.6,273.1 L 528.2,272.9 L 532.8,272.5 L 537.3,272.5 L 541.9,272.0 L 546.5,272.0 L 551.0,271.8 L 555.6,271.6 L 560.1,271.6 L 564.7,271.6 L 569.3,271.6 L 573.8,271.6 L 578.4,271.6 L 583.0,271.0 L 587.5,271.0 L 592.1,270.6 L 596.6,270.2 L 601.2,269.6 L 605.8,269.4 L 610.3,269.4 L 614.9,268.4 L 619.5,268.2 L 624.0,268.2 L 628.6,267.6 L 633.1,267.6 L 637.7,267.4 L 642.3,267.4 L 646.8,267.6 L 651.4,267.8 L 655.9,267.6 L 660.5,267.2 L 665.1,267.4 L 669.6,267.2 L 674.2,267.0 L 678.8,267.0 L 683.3,267.0 L 687.9,267.0 L 692.4,266.6 L 697.0,266.6 L 701.6,266.6 L 706.1,265.9 L 710.7,265.9 L 715.3,265.9 L 719.8,265.9 L 724.4,265.9 L 728.9,265.9 L 733.5,265.5 L 738.1,265.5 L 742.6,265.1 L 747.2,264.3 L 751.8,264.1 L 756.3,264.1 L 760.9,264.1 L 765.4,264.1 L 770.0,263.7" fill="none" stroke="#34C759" stroke-width="2.5" stroke-linejoin="round" clip-path="url(#ca)"/>
<text x="97.1" y="55.0" text-anchor="middle" font-size="9" fill="#4F8EF7" opacity="0.85" clip-path="url(#ca)">+0.5% (+8)</text>
<text x="97.1" y="66.0" text-anchor="middle" font-size="9" fill="#BF5AF2" opacity="0.85" clip-path="url(#ca)">+1.0% (+10)</text>
<text x="97.1" y="77.0" text-anchor="middle" font-size="9" fill="#34C759" opacity="0.85" clip-path="url(#ca)">+1.5% (+11)</text>
<text x="183.8" y="55.0" text-anchor="middle" font-size="9" fill="#4F8EF7" opacity="0.85" clip-path="url(#ca)">+4.0% (+65)</text>
<text x="183.8" y="66.0" text-anchor="middle" font-size="9" fill="#BF5AF2" opacity="0.85" clip-path="url(#ca)">+3.5% (+35)</text>
<text x="183.8" y="77.0" text-anchor="middle" font-size="9" fill="#34C759" opacity="0.85" clip-path="url(#ca)">+3.6% (+27)</text>
<text x="304.7" y="55.0" text-anchor="middle" font-size="9" fill="#4F8EF7" opacity="0.85" clip-path="url(#ca)">+4.1% (+70)</text>
<text x="304.7" y="66.0" text-anchor="middle" font-size="9" fill="#BF5AF2" opacity="0.85" clip-path="url(#ca)">+3.5% (+36)</text>
<text x="304.7" y="77.0" text-anchor="middle" font-size="9" fill="#34C759" opacity="0.85" clip-path="url(#ca)">+3.3% (+26)</text>
<text x="427.8" y="55.0" text-anchor="middle" font-size="9" fill="#4F8EF7" opacity="0.85" clip-path="url(#ca)">+3.5% (+61)</text>
<text x="427.8" y="66.0" text-anchor="middle" font-size="9" fill="#BF5AF2" opacity="0.85" clip-path="url(#ca)">+2.7% (+29)</text>
<text x="427.8" y="77.0" text-anchor="middle" font-size="9" fill="#34C759" opacity="0.85" clip-path="url(#ca)">+2.6% (+21)</text>
<text x="551.0" y="55.0" text-anchor="middle" font-size="9" fill="#4F8EF7" opacity="0.85" clip-path="url(#ca)">+2.7% (+49)</text>
<text x="551.0" y="66.0" text-anchor="middle" font-size="9" fill="#BF5AF2" opacity="0.85" clip-path="url(#ca)">+3.0% (+33)</text>
<text x="551.0" y="77.0" text-anchor="middle" font-size="9" fill="#34C759" opacity="0.85" clip-path="url(#ca)">+3.2% (+27)</text>
<text x="671.9" y="55.0" text-anchor="middle" font-size="9" fill="#4F8EF7" opacity="0.85" clip-path="url(#ca)">+2.9% (+54)</text>
<text x="671.9" y="66.0" text-anchor="middle" font-size="9" fill="#BF5AF2" opacity="0.85" clip-path="url(#ca)">+1.9% (+22)</text>
<text x="671.9" y="77.0" text-anchor="middle" font-size="9" fill="#34C759" opacity="0.85" clip-path="url(#ca)">+1.5% (+13)</text>
<text x="751.8" y="55.0" text-anchor="middle" font-size="9" fill="#4F8EF7" opacity="0.85" clip-path="url(#ca)">+0.8% (+16)</text>
<text x="751.8" y="66.0" text-anchor="middle" font-size="9" fill="#BF5AF2" opacity="0.85" clip-path="url(#ca)">+1.1% (+13)</text>
<text x="751.8" y="77.0" text-anchor="middle" font-size="9" fill="#34C759" opacity="0.85" clip-path="url(#ca)">+1.0% (+9)</text>
<rect x="211" y="369" width="12" height="12" fill="#4F8EF7" rx="2"/>
<text x="227" y="379" font-size="12" fill="#111827">Authors</text>
<rect x="351" y="369" width="12" height="12" fill="#BF5AF2" rx="2"/>
<text x="367" y="379" font-size="12" fill="#111827">Contributors</text>
<rect x="491" y="369" width="12" height="12" fill="#34C759" rx="2"/>
<text x="507" y="379" font-size="12" fill="#111827">Non-author contributors</text>
<text x="72" y="394" font-size="8" fill="#e5e7eb">data since Dec 11, 2025</text>
</svg>