<svg xmlns="http://www.w3.org/2000/svg" width="800" height="400" viewBox="0 0 800 400">
<defs>
  <style>text { font-family: -apple-system, BlinkMacSystemFont, 'Segoe UI', Roboto, sans-serif; }</style>
  <linearGradient id="g5" x1="0" y1="0" x2="0" y2="1">
  <stop offset="0%" stop-color="#34C759" stop-opacity="0.25"/>
  <stop offset="100%" stop-color="#34C759" stop-opacity="0"/>
</linearGradient>
<linearGradient id="g6" x1="0" y1="0" x2="0" y2="1">
  <stop offset="0%" stop-color="#4F8EF7" stop-opacity="0.25"/>
  <stop offset="100%" stop-color="#4F8EF7" stop-opacity="0"/>
</linearGradient>
<linearGradient id="g7" x1="0" y1="0" x2="0" y2="1">
  <stop offset="0%" stop-color="#FF6363" stop-opacity="0.25"/>
  <stop offset="100%" stop-color="#FF6363" stop-opacity="0"/>
</linearGradient>
  <clipPath id="ca"><rect x="72" y="45" width="698" height="295"/></clipPath>
</defs>
<rect width="800" height="400" fill="#ffffff" rx="12"/>
<text x="400" y="26" text-anchor="middle" font-size="15" font-weight="600" fill="#111827">Platform Support Over Time</text>
<line x1="72" y1="340.0" x2="770" y2="340.0" stroke="#f3f4f6" stroke-width="1"/>
<text x="66" y="344.0" text-anchor="end" font-size="11" fill="#6b7280">0</text>
<line x1="72" y1="266.3" x2="770" y2="266.3" stroke="#f3f4f6" stroke-width="1"/>
<text x="66" y="270.3" text-anchor="end" font-size="11" fill="#6b7280">200</text>
<line x1="72" y1="192.5" x2="770" y2="192.5" stroke="#f3f4f6" stroke-width="1"/>
<text x="66" y="196.5" text-anchor="end" font-size="11" fill="#6b7280">400</text>
<line x1="72" y1="118.8" x2="770" y2="118.8" stroke="#f3f4f6" stroke-width="1"/>
<text x="66" y="122.8" text-anchor="end" font-size="11" fill="#6b7280">600</text>
<line x1="72" y1="45.0" x2="770" y2="45.0" stroke="#f3f4f6" stroke-width="1"/>
<text x="66" y="49.0" text-anchor="end" font-size="11" fill="#6b7280">800</text>
<line x1="147.5" y1="45" x2="147.5" y2="340" stroke="#e5e7eb" stroke-width="1" stroke-dasharray="3,3" clip-path="url(#ca)"/>
<line x1="311.0" y1="45" x2="311.0" y2="340" stroke="#e5e7eb" stroke-width="1" stroke-dasharray="3,3" clip-path="url(#ca)"/>
<line x1="480.7" y1="45" x2="480.7" y2="340" stroke="#e5e7eb" stroke-width="1" stroke-dasharray="3,3" clip-path="url(#ca)"/>
<line x1="650.5" y1="45" x2="650.5" y2="340" stroke="#e5e7eb" stroke-width="1" stroke-dasharray="3,3" clip-path="url(#ca)"/>
<text x="72.0" y="358.0" text-anchor="middle" font-size="11" fill="#6b7280">Dec 11</text>
<text x="210.3" y="358.0" text-anchor="middle" font-size="11" fill="#6b7280">Jan 15</text>
<text x="348.7" y="358.0" text-anchor="middle" font-size="11" fill="#6b7280">Feb 7</text>
<text x="493.3" y="358.0" text-anchor="middle" font-size="11" fill="#6b7280">Mar 3</text>
<text x="631.7" y="358.0" text-anchor="middle" font-size="11" fill="#6b7280">Mar 27</text>
<text x="770.0" y="358.0" text-anchor="middle" font-size="11" fill="#6b7280">Apr 22</text>
<line x1="72" y1="45" x2="72" y2="340" stroke="#e5e7eb" stroke-width="1"/>
<line x1="72" y1="340" x2="770" y2="340" stroke="#e5e7eb" stroke-width="1"/>
<text x="-192.5" y="18" text-anchor="middle" font-size="12" fill="#6b7280" transform="rotate(-90)">Extensions</text>
<path d="M 72.0,340 L 72.0,218.3 L 78.3,215.0 L 84.6,214.6 L 90.9,213.2 L 97.2,212.4 L 103.4,208.7 L 109.7,206.5 L 116.0,205.4 L 122.3,203.6 L 128.6,201.3 L 134.9,200.2 L 141.2,199.9 L 147.5,198.8 L 153.7,198.0 L 160.0,197.7 L 166.3,196.6 L 172.6,195.4 L 178.9,194.3 L 185.2,193.2 L 191.5,191.8 L 197.8,190.7 L 204.1,189.6 L 210.3,188.4 L 216.6,186.2 L 222.9,185.5 L 229.2,185.5 L 235.5,182.9 L 241.8,182.2 L 248.1,181.4 L 254.4,180.7 L 260.6,178.9 L 266.9,176.3 L 273.2,175.9 L 279.5,175.5 L 285.8,173.3 L 292.1,172.6 L 298.4,170.7 L 304.7,170.4 L 311.0,170.0 L 317.2,169.3 L 323.5,169.3 L 329.8,169.3 L 336.1,164.1 L 342.4,163.7 L 348.7,162.6 L 355.0,162.3 L 361.3,161.9 L 367.5,160.8 L 373.8,160.1 L 380.1,159.3 L 386.4,157.1 L 392.7,157.1 L 399.0,157.1 L 405.3,156.7 L 411.6,153.0 L 417.9,151.9 L 424.1,151.2 L 430.4,150.1 L 436.7,149.4 L 443.0,149.4 L 449.3,147.5 L 455.6,144.9 L 461.9,144.2 L 468.2,143.8 L 474.5,142.7 L 480.7,142.7 L 487.0,142.0 L 493.3,140.9 L 499.6,140.1 L 505.9,138.7 L 512.2,137.2 L 518.5,136.8 L 524.8,136.8 L 531.0,135.3 L 537.3,135.3 L 543.6,135.3 L 549.9,133.1 L 556.2,132.8 L 562.5,132.4 L 568.8,132.4 L 575.1,132.0 L 581.4,130.6 L 587.6,129.8 L 593.9,128.7 L 600.2,128.7 L 606.5,128.3 L 612.8,126.9 L 619.1,125.8 L 625.4,125.8 L 631.7,125.4 L 637.9,124.7 L 644.2,122.1 L 650.5,121.3 L 656.8,120.2 L 663.1,120.2 L 669.4,119.5 L 675.7,119.1 L 682.0,118.8 L 688.3,118.4 L 694.5,118.0 L 700.8,118.0 L 707.1,117.6 L 713.4,117.3 L 719.7,116.2 L 726.0,114.7 L 732.3,114.3 L 738.6,113.2 L 744.8,113.2 L 751.1,111.7 L 757.4,111.4 L 763.7,111.4 L 770.0,111.4 L 770.0,340 Z" fill="url(#g5)" clip-path="url(#ca)"/>
<path d="M 72.0,218.3 L 78.3,215.0 L 84.6,214.6 L 90.9,213.2 L 97.2,212.4 L 103.4,208.7 L 109.7,206.5 L 116.0,205.4 L 122.3,203.6 L 128.6,201.3 L 134.9,200.2 L 141.2,199.9 L 147.5,198.8 L 153.7,198.0 L 160.0,197.7 L 166.3,196.6 L 172.6,195.4 L 178.9,194.3 L 185.2,193.2 L 191.5,191.8 L 197.8,190.7 L 204.1,189.6 L 210.3,188.4 L 216.6,186.2 L 222.9,185.5 L 229.2,185.5 L 235.5,182.9 L 241.8,182.2 L 248.1,181.4 L 254.4,180.7 L 260.6,178.9 L 266.9,176.3 L 273.2,175.9 L 279.5,175.5 L 285.8,173.3 L 292.1,172.6 L 298.4,170.7 L 304.7,170.4 L 311.0,170.0 L 317.2,169.3 L 323.5,169.3 L 329.8,169.3 L 336.1,164.1 L 342.4,163.7 L 348.7,162.6 L 355.0,162.3 L 361.3,161.9 L 367.5,160.8 L 373.8,160.1 L 380.1,159.3 L 386.4,157.1 L 392.7,157.1 L 399.0,157.1 L 405.3,156.7 L 411.6,153.0 L 417.9,151.9 L 424.1,151.2 L 430.4,150.1 L 436.7,149.4 L 443.0,149.4 L 449.3,147.5 L 455.6,144.9 L 461.9,144.2 L 468.2,143.8 L 474.5,142.7 L 480.7,142.7 L 487.0,142.0 L 493.3,140.9 L 499.6,140.1 L 505.9,138.7 L 512.2,137.2 L 518.5,136.8 L 524.8,136.8 L 531.0,135.3 L 537.3,135.3 L 543.6,135.3 L 549.9,133.1 L 556.2,132.8 L 562.5,132.4 L 568.8,132.4 L 575.1,132.0 L 581.4,130.6 L 587.6,129.8 L 593.9,128.7 L 600.2,128.7 L 606.5,128.3 L 612.8,126.9 L 619.1,125.8 L 625.4,125.8 L 631.7,125.4 L 637.9,124.7 L 644.2,122.1 L 650.5,121.3 L 656.8,120.2 L 663.1,120.2 L 669.4,119.5 L 675.7,119.1 L 682.0,118.8 L 688.3,118.4 L 694.5,118.0 L 700.8,118.0 L 707.1,117.6 L 713.4,117.3 L 719.7,116.2 L 726.0,114.7 L 732.3,114.3 L 738.6,113.2 L 744.8,113.2 L 751.1,111.7 L 757.4,111.4 L 763.7,111.4 L 770.0,111.4" fill="none" stroke="#34C759" stroke-width="2.5" stroke-linejoin="round" clip-path="url(#ca)"/>
<path d="M 72.0,340 L 72.0,193.2 L 78.3,193.2 L 84.6,192.9 L 90.9,191.8 L 97.2,192.1 L 103.4,192.1 L 109.7,190.7 L 116.0,189.6 L 122.3,189.6 L 128.6,189.9 L 134.9,189.6 L 141.2,189.2 L 147.5,188.8 L 153.7,188.8 L 160.0,188.8 L 166.3,189.2 L 172.6,188.4 L 178.9,187.7 L 185.2,185.5 L 191.5,184.0 L 197.8,184.0 L 204.1,183.7 L 210.3,181.4 L 216.6,178.1 L 222.9,177.0 L 229.2,176.3 L 235.5,173.7 L 241.8,171.9 L 248.1,171.1 L 254.4,170.4 L 260.6,169.6 L 266.9,169.3 L 273.2,169.3 L 279.5,166.7 L 285.8,166.0 L 292.1,165.2 L 298.4,165.2 L 304.7,163.4 L 311.0,163.0 L 317.2,161.9 L 323.5,160.4 L 329.8,158.6 L 336.1,156.0 L 342.4,153.4 L 348.7,153.0 L 355.0,152.3 L 361.3,151.6 L 367.5,149.4 L 373.8,149.4 L 380.1,148.6 L 386.4,147.5 L 392.7,146.8 L 399.0,145.3 L 405.3,145.7 L 411.6,141.2 L 417.9,140.9 L 424.1,140.5 L 430.4,139.8 L 436.7,137.6 L 443.0,137.6 L 449.3,135.3 L 455.6,132.8 L 461.9,132.8 L 468.2,132.8 L 474.5,132.4 L 480.7,132.0 L 487.0,131.7 L 493.3,129.8 L 499.6,127.6 L 505.9,126.9 L 512.2,125.4 L 518.5,125.4 L 524.8,124.3 L 531.0,122.1 L 537.3,121.0 L 543.6,120.6 L 549.9,118.0 L 556.2,117.6 L 562.5,117.6 L 568.8,117.3 L 575.1,117.3 L 581.4,115.4 L 587.6,114.7 L 593.9,113.6 L 600.2,113.2 L 606.5,112.5 L 612.8,109.5 L 619.1,105.5 L 625.4,105.1 L 631.7,104.4 L 637.9,104.0 L 644.2,102.2 L 650.5,63.1 L 656.8,62.3 L 663.1,60.5 L 669.4,60.5 L 675.7,60.5 L 682.0,60.9 L 688.3,60.5 L 694.5,58.3 L 700.8,57.5 L 707.1,57.2 L 713.4,56.8 L 719.7,55.3 L 726.0,53.1 L 732.3,53.1 L 738.6,53.1 L 744.8,52.7 L 751.1,52.4 L 757.4,52.4 L 763.7,51.6 L 770.0,50.5 L 770.0,340 Z" fill="url(#g6)" clip-path="url(#ca)"/>
<path d="M 72.0,193.2 L 78.3,193.2 L 84.6,192.9 L 90.9,191.8 L 97.2,192.1 L 103.4,192.1 L 109.7,190.7 L 116.0,189.6 L 122.3,189.6 L 128.6,189.9 L 134.9,189.6 L 141.2,189.2 L 147.5,188.8 L 153.7,188.8 L 160.0,188.8 L 166.3,189.2 L 172.6,188.4 L 178.9,187.7 L 185.2,185.5 L 191.5,184.0 L 197.8,184.0 L 204.1,183.7 L 210.3,181.4 L 216.6,178.1 L 222.9,177.0 L 229.2,176.3 L 235.5,173.7 L 241.8,171.9 L 248.1,171.1 L 254.4,170.4 L 260.6,169.6 L 266.9,169.3 L 273.2,169.3 L 279.5,166.7 L 285.8,166.0 L 292.1,165.2 L 298.4,165.2 L 304.7,163.4 L 311.0,163.0 L 317.2,161.9 L 323.5,160.4 L 329.8,158.6 L 336.1,156.0 L 342.4,153.4 L 348.7,153.0 L 355.0,152.3 L 361.3,151.6 L 367.5,149.4 L 373.8,149.4 L 380.1,148.6 L 386.4,147.5 L 392.7,146.8 L 399.0,145.3 L 405.3,145.7 L 411.6,141.2 L 417.9,140.9 L 424.1,140.5 L 430.4,139.8 L 436.7,137.6 L 443.0,137.6 L 449.3,135.3 L 455.6,132.8 L 461.9,132.8 L 468.2,132.8 L 474.5,132.4 L 480.7,132.0 L 487.0,131.7 L 493.3,129.8 L 499.6,127.6 L 505.9,126.9 L 512.2,125.4 L 518.5,125.4 L 524.8,124.3 L 531.0,122.1 L 537.3,121.0 L 543.6,120.6 L 549.9,118.0 L 556.2,117.6 L 562.5,117.6 L 568.8,117.3 L 575.1,117.3 L 581.4,115.4 L 587.6,114.7 L 593.9,113.6 L 600.2,113.2 L 606.5,112.5 L 612.8,109.5 L 619.1,105.5 L 625.4,105.1 L 631.7,104.4 L 637.9,104.0 L 644.2,102.2 L 650.5,63.1 L 656.8,62.3 L 663.1,60.5 L 669.4,60.5 L 675.7,60.5 L 682.0,60.9 L 688.3,60.5 L 694.5,58.3 L 700.8,57.5 L 707.1,57.2 L 713.4,56.8 L 719.7,55.3 L 726.0,53.1 L 732.3,53.1 L 738.6,53.1 L 744.8,52.7 L 751.1,52.4 L 757.4,52.4 L 763.7,51.6 L 770.0,50.5" fill="none" stroke="#4F8EF7" stroke-width="2.5" stroke-linejoin="round" clip-path="url(#ca)"/>
<path d="M 72.0,340 L 72.0,337.8 L 78.3,337.4 L 84.6,337.4 L 90.9,337.1 L 97.2,337.1 L 103.4,337.1 L 109.7,337.1 L 116.0,337.1 L 122.3,336.3 L 128.6,336.3 L 134.9,336.3 L 141.2,336.3 L 147.5,336.3 L 153.7,335.9 L 160.0,335.9 L 166.3,335.9 L 172.6,335.9 L 178.9,335.9 L 185.2,335.6 L 191.5,334.8 L 197.8,334.5 L 204.1,334.5 L 210.3,334.5 L 216.6,334.1 L 222.9,334.1 L 229.2,334.1 L 235.5,333.7 L 241.8,333.7 L 248.1,333.7 L 254.4,333.4 L 260.6,333.4 L 266.9,333.4 L 273.2,333.4 L 279.5,333.0 L 285.8,333.0 L 292.1,333.0 L 298.4,333.0 L 304.7,333.0 L 311.0,333.0 L 317.2,333.0 L 323.5,333.0 L 329.8,333.0 L 336.1,333.0 L 342.4,333.0 L 348.7,333.0 L 355.0,333.0 L 361.3,332.6 L 367.5,332.6 L 373.8,332.6 L 380.1,332.6 L 386.4,332.6 L 392.7,332.6 L 399.0,332.6 L 405.3,332.6 L 411.6,332.6 L 417.9,332.6 L 424.1,332.6 L 430.4,332.6 L 436.7,332.3 L 443.0,332.3 L 449.3,332.3 L 455.6,332.3 L 461.9,332.3 L 468.2,332.3 L 474.5,332.3 L 480.7,332.3 L 487.0,332.3 L 493.3,332.3 L 499.6,332.3 L 505.9,332.3 L 512.2,332.3 L 518.5,332.3 L 524.8,332.3 L 531.0,332.3 L 537.3,332.3 L 543.6,332.3 L 549.9,332.3 L 556.2,332.3 L 562.5,332.3 L 568.8,332.3 L 575.1,332.3 L 581.4,332.3 L 587.6,332.3 L 593.9,332.3 L 600.2,332.3 L 606.5,332.3 L 612.8,332.3 L 619.1,332.3 L 625.4,332.3 L 631.7,332.3 L 637.9,332.3 L 644.2,332.3 L 650.5,332.3 L 656.8,332.3 L 663.1,331.9 L 669.4,331.9 L 675.7,331.9 L 682.0,331.9 L 688.3,331.9 L 694.5,331.5 L 700.8,331.5 L 707.1,331.5 L 713.4,331.5 L 719.7,331.1 L 726.0,331.1 L 732.3,330.8 L 738.6,330.8 L 744.8,330.8 L 751.1,330.8 L 757.4,330.8 L 763.7,330.8 L 770.0,330.8 L 770.0,340 Z" fill="url(#g7)" clip-path="url(#ca)"/>
<path d="M 72.0,337.8 L 78.3,337.4 L 84.6,337.4 L 90.9,337.1 L 97.2,337.1 L 103.4,337.1 L 109.7,337.1 L 116.0,337.1 L 122.3,336.3 L 128.6,336.3 L 134.9,336.3 L 141.2,336.3 L 147.5,336.3 L 153.7,335.9 L 160.0,335.9 L 166.3,335.9 L 172.6,335.9 L 178.9,335.9 L 185.2,335.6 L 191.5,334.8 L 197.8,334.5 L 204.1,334.5 L 210.3,334.5 L 216.6,334.1 L 222.9,334.1 L 229.2,334.1 L 235.5,333.7 L 241.8,333.7 L 248.1,333.7 L 254.4,333.4 L 260.6,333.4 L 266.9,333.4 L 273.2,333.4 L 279.5,333.0 L 285.8,333.0 L 292.1,333.0 L 298.4,333.0 L 304.7,333.0 L 311.0,333.0 L 317.2,333.0 L 323.5,333.0 L 329.8,333.0 L 336.1,333.0 L 342.4,333.0 L 348.7,333.0 L 355.0,333.0 L 361.3,332.6 L 367.5,332.6 L 373.8,332.6 L 380.1,332.6 L 386.4,332.6 L 392.7,332.6 L 399.0,332.6 L 405.3,332.6 L 411.6,332.6 L 417.9,332.6 L 424.1,332.6 L 430.4,332.6 L 436.7,332.3 L 443.0,332.3 L 449.3,332.3 L 455.6,332.3 L 461.9,332.3 L 468.2,332.3 L 474.5,332.3 L 480.7,332.3 L 487.0,332.3 L 493.3,332.3 L 499.6,332.3 L 505.9,332.3 L 512.2,332.3 L 518.5,332.3 L 524.8,332.3 L 531.0,332.3 L 537.3,332.3 L 543.6,332.3 L 549.9,332.3 L 556.2,332.3 L 562.5,332.3 L 568.8,332.3 L 575.1,332.3 L 581.4,332.3 L 587.6,332.3 L 593.9,332.3 L 600.2,332.3 L 606.5,332.3 L 612.8,332.3 L 619.1,332.3 L 625.4,332.3 L 631.7,332.3 L 637.9,332.3 L 644.2,332.3 L 650.5,332.3 L 656.8,332.3 L 663.1,331.9 L 669.4,331.9 L 675.7,331.9 L 682.0,331.9 L 688.3,331.9 L 694.5,331.5 L 700.8,331.5 L 707.1,331.5 L 713.4,331.5 L 719.7,331.1 L 726.0,331.1 L 732.3,330.8 L 738.6,330.8 L 744.8,330.8 L 751.1,330.8 L 757.4,330.8 L 763.7,330.8 L 770.0,330.8" fill="none" stroke="#FF6363" stroke-width="2.5" stroke-linejoin="round" clip-path="url(#ca)"/>
<text x="106.6" y="55.0" text-anchor="middle" font-size="9" fill="#34C759" opacity="0.85" clip-path="url(#ca)">+15.2% (+50)</text>
<text x="106.6" y="66.0" text-anchor="middle" font-size="9" fill="#4F8EF7" opacity="0.85" clip-path="url(#ca)">+2.8% (+11)</text>
<text x="106.6" y="77.0" text-anchor="middle" font-size="9" fill="#FF6363" opacity="0.85" clip-path="url(#ca)">+66.7% (+4)</text>
<text x="226.1" y="55.0" text-anchor="middle" font-size="9" fill="#34C759" opacity="0.85" clip-path="url(#ca)">+20.1% (+77)</text>
<text x="226.1" y="66.0" text-anchor="middle" font-size="9" fill="#4F8EF7" opacity="0.85" clip-path="url(#ca)">+16.8% (+69)</text>
<text x="226.1" y="77.0" text-anchor="middle" font-size="9" fill="#FF6363" opacity="0.85" clip-path="url(#ca)">+90.0% (+9)</text>
<text x="392.7" y="55.0" text-anchor="middle" font-size="9" fill="#34C759" opacity="0.85" clip-path="url(#ca)">+16.1% (+74)</text>
<text x="392.7" y="66.0" text-anchor="middle" font-size="9" fill="#4F8EF7" opacity="0.85" clip-path="url(#ca)">+17.3% (+83)</text>
<text x="392.7" y="77.0" text-anchor="middle" font-size="9" fill="#FF6363" opacity="0.85" clip-path="url(#ca)">+10.5% (+2)</text>
<text x="562.5" y="55.0" text-anchor="middle" font-size="9" fill="#34C759" opacity="0.85" clip-path="url(#ca)">+10.5% (+56)</text>
<text x="562.5" y="66.0" text-anchor="middle" font-size="9" fill="#4F8EF7" opacity="0.85" clip-path="url(#ca)">+14.4% (+81)</text>
<text x="562.5" y="77.0" text-anchor="middle" font-size="9" fill="#FF6363" opacity="0.85" clip-path="url(#ca)">+0.0% (+0)</text>
<text x="710.3" y="55.0" text-anchor="middle" font-size="9" fill="#34C759" opacity="0.85" clip-path="url(#ca)">+4.6% (+27)</text>
<text x="710.3" y="66.0" text-anchor="middle" font-size="9" fill="#4F8EF7" opacity="0.85" clip-path="url(#ca)">+4.5% (+34)</text>
<text x="710.3" y="77.0" text-anchor="middle" font-size="9" fill="#FF6363" opacity="0.85" clip-path="url(#ca)">+19.0% (+4)</text>
<rect x="211" y="369" width="12" height="12" fill="#34C759" rx="2"/>
<text x="227" y="379" font-size="12" fill="#111827">macOS + Windows</text>
<rect x="351" y="369" width="12" height="12" fill="#4F8EF7" rx="2"/>
<text x="367" y="379" font-size="12" fill="#111827">macOS only</text>
<rect x="491" y="369" width="12" height="12" fill="#FF6363" rx="2"/>
<text x="507" y="379" font-size="12" fill="#111827">Windows only</text>
<text x="72" y="394" font-size="8" fill="#e5e7eb">data since Dec 11, 2025</text>
</svg>