<svg xmlns="http://www.w3.org/2000/svg" width="800" height="400" viewBox="0 0 800 400">
<defs>
  <style>text { font-family: -apple-system, BlinkMacSystemFont, 'Segoe UI', Roboto, sans-serif; }</style>
  <linearGradient id="g5" x1="0" y1="0" x2="0" y2="1">
  <stop offset="0%" stop-color="#34C759" stop-opacity="0.25"/>
  <stop offset="100%" stop-color="#34C759" stop-opacity="0"/>
</linearGradient>
<linearGradient id="g6" x1="0" y1="0" x2="0" y2="1">
  <stop offset="0%" stop-color="#4F8EF7" stop-opacity="0.25"/>
  <stop offset="100%" stop-color="#4F8EF7" stop-opacity="0"/>
</linearGradient>
<linearGradient id="g7" x1="0" y1="0" x2="0" y2="1">
  <stop offset="0%" stop-color="#FF6363" stop-opacity="0.25"/>
  <stop offset="100%" stop-color="#FF6363" stop-opacity="0"/>
</linearGradient>
  <clipPath id="ca"><rect x="72" y="45" width="698" height="295"/></clipPath>
</defs>
<rect width="800" height="400" fill="#ffffff" rx="12"/>
<text x="400" y="26" text-anchor="middle" font-size="15" font-weight="600" fill="#111827">Platform Support Over Time</text>
<line x1="72" y1="340.0" x2="770" y2="340.0" stroke="#f3f4f6" stroke-width="1"/>
<text x="66" y="344.0" text-anchor="end" font-size="11" fill="#6b7280">0</text>
<line x1="72" y1="266.3" x2="770" y2="266.3" stroke="#f3f4f6" stroke-width="1"/>
<text x="66" y="270.3" text-anchor="end" font-size="11" fill="#6b7280">200</text>
<line x1="72" y1="192.5" x2="770" y2="192.5" stroke="#f3f4f6" stroke-width="1"/>
<text x="66" y="196.5" text-anchor="end" font-size="11" fill="#6b7280">400</text>
<line x1="72" y1="118.8" x2="770" y2="118.8" stroke="#f3f4f6" stroke-width="1"/>
<text x="66" y="122.8" text-anchor="end" font-size="11" fill="#6b7280">600</text>
<line x1="72" y1="45.0" x2="770" y2="45.0" stroke="#f3f4f6" stroke-width="1"/>
<text x="66" y="49.0" text-anchor="end" font-size="11" fill="#6b7280">800</text>
<line x1="146.8" y1="45" x2="146.8" y2="340" stroke="#e5e7eb" stroke-width="1" stroke-dasharray="3,3" clip-path="url(#ca)"/>
<line x1="308.8" y1="45" x2="308.8" y2="340" stroke="#e5e7eb" stroke-width="1" stroke-dasharray="3,3" clip-path="url(#ca)"/>
<line x1="477.1" y1="45" x2="477.1" y2="340" stroke="#e5e7eb" stroke-width="1" stroke-dasharray="3,3" clip-path="url(#ca)"/>
<line x1="645.4" y1="45" x2="645.4" y2="340" stroke="#e5e7eb" stroke-width="1" stroke-dasharray="3,3" clip-path="url(#ca)"/>
<text x="72.0" y="358.0" text-anchor="middle" font-size="11" fill="#6b7280">Dec 11</text>
<text x="209.1" y="358.0" text-anchor="middle" font-size="11" fill="#6b7280">Jan 15</text>
<text x="352.4" y="358.0" text-anchor="middle" font-size="11" fill="#6b7280">Feb 8</text>
<text x="489.6" y="358.0" text-anchor="middle" font-size="11" fill="#6b7280">Mar 3</text>
<text x="632.9" y="358.0" text-anchor="middle" font-size="11" fill="#6b7280">Mar 28</text>
<text x="770.0" y="358.0" text-anchor="middle" font-size="11" fill="#6b7280">Apr 23</text>
<line x1="72" y1="45" x2="72" y2="340" stroke="#e5e7eb" stroke-width="1"/>
<line x1="72" y1="340" x2="770" y2="340" stroke="#e5e7eb" stroke-width="1"/>
<text x="-192.5" y="18" text-anchor="middle" font-size="12" fill="#6b7280" transform="rotate(-90)">Extensions</text>
<path d="M 72.0,340 L 72.0,218.3 L 78.2,215.0 L 84.5,214.6 L 90.7,213.2 L 96.9,212.4 L 103.2,208.7 L 109.4,206.5 L 115.6,205.4 L 121.9,203.6 L 128.1,201.3 L 134.3,200.2 L 140.6,199.9 L 146.8,198.8 L 153.0,198.0 L 159.3,197.7 L 165.5,196.6 L 171.7,195.4 L 177.9,194.3 L 184.2,193.2 L 190.4,191.8 L 196.6,190.7 L 202.9,189.6 L 209.1,188.4 L 215.3,186.2 L 221.6,185.5 L 227.8,185.5 L 234.0,182.9 L 240.3,182.2 L 246.5,181.4 L 252.7,180.7 L 259.0,178.9 L 265.2,176.3 L 271.4,175.9 L 277.7,175.5 L 283.9,173.3 L 290.1,172.6 L 296.4,170.7 L 302.6,170.4 L 308.8,170.0 L 315.1,169.3 L 321.3,169.3 L 327.5,169.3 L 333.8,164.1 L 340.0,163.7 L 346.2,162.6 L 352.4,162.3 L 358.7,161.9 L 364.9,160.8 L 371.1,160.1 L 377.4,159.3 L 383.6,157.1 L 389.8,157.1 L 396.1,157.1 L 402.3,156.7 L 408.5,153.0 L 414.8,151.9 L 421.0,151.2 L 427.2,150.1 L 433.5,149.4 L 439.7,149.4 L 445.9,147.5 L 452.2,144.9 L 458.4,144.2 L 464.6,143.8 L 470.9,142.7 L 477.1,142.7 L 483.3,142.0 L 489.6,140.9 L 495.8,140.1 L 502.0,138.7 L 508.3,137.2 L 514.5,136.8 L 520.7,136.8 L 526.9,135.3 L 533.2,135.3 L 539.4,135.3 L 545.6,133.1 L 551.9,132.8 L 558.1,132.4 L 564.3,132.4 L 570.6,132.0 L 576.8,130.6 L 583.0,129.8 L 589.3,128.7 L 595.5,128.7 L 601.7,128.3 L 608.0,126.9 L 614.2,125.8 L 620.4,125.8 L 626.7,125.4 L 632.9,124.7 L 639.1,122.1 L 645.4,121.3 L 651.6,120.2 L 657.8,120.2 L 664.1,119.5 L 670.3,119.1 L 676.5,118.8 L 682.8,118.4 L 689.0,118.0 L 695.2,118.0 L 701.4,117.6 L 707.7,117.3 L 713.9,116.2 L 720.1,114.7 L 726.4,114.3 L 732.6,113.2 L 738.8,113.2 L 745.1,111.7 L 751.3,111.4 L 757.5,111.4 L 763.8,111.4 L 770.0,110.3 L 770.0,340 Z" fill="url(#g5)" clip-path="url(#ca)"/>
<path d="M 72.0,218.3 L 78.2,215.0 L 84.5,214.6 L 90.7,213.2 L 96.9,212.4 L 103.2,208.7 L 109.4,206.5 L 115.6,205.4 L 121.9,203.6 L 128.1,201.3 L 134.3,200.2 L 140.6,199.9 L 146.8,198.8 L 153.0,198.0 L 159.3,197.7 L 165.5,196.6 L 171.7,195.4 L 177.9,194.3 L 184.2,193.2 L 190.4,191.8 L 196.6,190.7 L 202.9,189.6 L 209.1,188.4 L 215.3,186.2 L 221.6,185.5 L 227.8,185.5 L 234.0,182.9 L 240.3,182.2 L 246.5,181.4 L 252.7,180.7 L 259.0,178.9 L 265.2,176.3 L 271.4,175.9 L 277.7,175.5 L 283.9,173.3 L 290.1,172.6 L 296.4,170.7 L 302.6,170.4 L 308.8,170.0 L 315.1,169.3 L 321.3,169.3 L 327.5,169.3 L 333.8,164.1 L 340.0,163.7 L 346.2,162.6 L 352.4,162.3 L 358.7,161.9 L 364.9,160.8 L 371.1,160.1 L 377.4,159.3 L 383.6,157.1 L 389.8,157.1 L 396.1,157.1 L 402.3,156.7 L 408.5,153.0 L 414.8,151.9 L 421.0,151.2 L 427.2,150.1 L 433.5,149.4 L 439.7,149.4 L 445.9,147.5 L 452.2,144.9 L 458.4,144.2 L 464.6,143.8 L 470.9,142.7 L 477.1,142.7 L 483.3,142.0 L 489.6,140.9 L 495.8,140.1 L 502.0,138.7 L 508.3,137.2 L 514.5,136.8 L 520.7,136.8 L 526.9,135.3 L 533.2,135.3 L 539.4,135.3 L 545.6,133.1 L 551.9,132.8 L 558.1,132.4 L 564.3,132.4 L 570.6,132.0 L 576.8,130.6 L 583.0,129.8 L 589.3,128.7 L 595.5,128.7 L 601.7,128.3 L 608.0,126.9 L 614.2,125.8 L 620.4,125.8 L 626.7,125.4 L 632.9,124.7 L 639.1,122.1 L 645.4,121.3 L 651.6,120.2 L 657.8,120.2 L 664.1,119.5 L 670.3,119.1 L 676.5,118.8 L 682.8,118.4 L 689.0,118.0 L 695.2,118.0 L 701.4,117.6 L 707.7,117.3 L 713.9,116.2 L 720.1,114.7 L 726.4,114.3 L 732.6,113.2 L 738.8,113.2 L 745.1,111.7 L 751.3,111.4 L 757.5,111.4 L 763.8,111.4 L 770.0,110.3" fill="none" stroke="#34C759" stroke-width="2.5" stroke-linejoin="round" clip-path="url(#ca)"/>
<path d="M 72.0,340 L 72.0,193.2 L 78.2,193.2 L 84.5,192.9 L 90.7,191.8 L 96.9,192.1 L 103.2,192.1 L 109.4,190.7 L 115.6,189.6 L 121.9,189.6 L 128.1,189.9 L 134.3,189.6 L 140.6,189.2 L 146.8,188.8 L 153.0,188.8 L 159.3,188.8 L 165.5,189.2 L 171.7,188.4 L 177.9,187.7 L 184.2,185.5 L 190.4,184.0 L 196.6,184.0 L 202.9,183.7 L 209.1,181.4 L 215.3,178.1 L 221.6,177.0 L 227.8,176.3 L 234.0,173.7 L 240.3,171.9 L 246.5,171.1 L 252.7,170.4 L 259.0,169.6 L 265.2,169.3 L 271.4,169.3 L 277.7,166.7 L 283.9,166.0 L 290.1,165.2 L 296.4,165.2 L 302.6,163.4 L 308.8,163.0 L 315.1,161.9 L 321.3,160.4 L 327.5,158.6 L 333.8,156.0 L 340.0,153.4 L 346.2,153.0 L 352.4,152.3 L 358.7,151.6 L 364.9,149.4 L 371.1,149.4 L 377.4,148.6 L 383.6,147.5 L 389.8,146.8 L 396.1,145.3 L 402.3,145.7 L 408.5,141.2 L 414.8,140.9 L 421.0,140.5 L 427.2,139.8 L 433.5,137.6 L 439.7,137.6 L 445.9,135.3 L 452.2,132.8 L 458.4,132.8 L 464.6,132.8 L 470.9,132.4 L 477.1,132.0 L 483.3,131.7 L 489.6,129.8 L 495.8,127.6 L 502.0,126.9 L 508.3,125.4 L 514.5,125.4 L 520.7,124.3 L 526.9,122.1 L 533.2,121.0 L 539.4,120.6 L 545.6,118.0 L 551.9,117.6 L 558.1,117.6 L 564.3,117.3 L 570.6,117.3 L 576.8,115.4 L 583.0,114.7 L 589.3,113.6 L 595.5,113.2 L 601.7,112.5 L 608.0,109.5 L 614.2,105.5 L 620.4,105.1 L 626.7,104.4 L 632.9,104.0 L 639.1,102.2 L 645.4,63.1 L 651.6,62.3 L 657.8,60.5 L 664.1,60.5 L 670.3,60.5 L 676.5,60.9 L 682.8,60.5 L 689.0,58.3 L 695.2,57.5 L 701.4,57.2 L 707.7,56.8 L 713.9,55.3 L 720.1,53.1 L 726.4,53.1 L 732.6,53.1 L 738.8,52.7 L 745.1,52.4 L 751.3,52.4 L 757.5,51.6 L 763.8,50.5 L 770.0,48.7 L 770.0,340 Z" fill="url(#g6)" clip-path="url(#ca)"/>
<path d="M 72.0,193.2 L 78.2,193.2 L 84.5,192.9 L 90.7,191.8 L 96.9,192.1 L 103.2,192.1 L 109.4,190.7 L 115.6,189.6 L 121.9,189.6 L 128.1,189.9 L 134.3,189.6 L 140.6,189.2 L 146.8,188.8 L 153.0,188.8 L 159.3,188.8 L 165.5,189.2 L 171.7,188.4 L 177.9,187.7 L 184.2,185.5 L 190.4,184.0 L 196.6,184.0 L 202.9,183.7 L 209.1,181.4 L 215.3,178.1 L 221.6,177.0 L 227.8,176.3 L 234.0,173.7 L 240.3,171.9 L 246.5,171.1 L 252.7,170.4 L 259.0,169.6 L 265.2,169.3 L 271.4,169.3 L 277.7,166.7 L 283.9,166.0 L 290.1,165.2 L 296.4,165.2 L 302.6,163.4 L 308.8,163.0 L 315.1,161.9 L 321.3,160.4 L 327.5,158.6 L 333.8,156.0 L 340.0,153.4 L 346.2,153.0 L 352.4,152.3 L 358.7,151.6 L 364.9,149.4 L 371.1,149.4 L 377.4,148.6 L 383.6,147.5 L 389.8,146.8 L 396.1,145.3 L 402.3,145.7 L 408.5,141.2 L 414.8,140.9 L 421.0,140.5 L 427.2,139.8 L 433.5,137.6 L 439.7,137.6 L 445.9,135.3 L 452.2,132.8 L 458.4,132.8 L 464.6,132.8 L 470.9,132.4 L 477.1,132.0 L 483.3,131.7 L 489.6,129.8 L 495.8,127.6 L 502.0,126.9 L 508.3,125.4 L 514.5,125.4 L 520.7,124.3 L 526.9,122.1 L 533.2,121.0 L 539.4,120.6 L 545.6,118.0 L 551.9,117.6 L 558.1,117.6 L 564.3,117.3 L 570.6,117.3 L 576.8,115.4 L 583.0,114.7 L 589.3,113.6 L 595.5,113.2 L 601.7,112.5 L 608.0,109.5 L 614.2,105.5 L 620.4,105.1 L 626.7,104.4 L 632.9,104.0 L 639.1,102.2 L 645.4,63.1 L 651.6,62.3 L 657.8,60.5 L 664.1,60.5 L 670.3,60.5 L 676.5,60.9 L 682.8,60.5 L 689.0,58.3 L 695.2,57.5 L 701.4,57.2 L 707.7,56.8 L 713.9,55.3 L 720.1,53.1 L 726.4,53.1 L 732.6,53.1 L 738.8,52.7 L 745.1,52.4 L 751.3,52.4 L 757.5,51.6 L 763.8,50.5 L 770.0,48.7" fill="none" stroke="#4F8EF7" stroke-width="2.5" stroke-linejoin="round" clip-path="url(#ca)"/>
<path d="M 72.0,340 L 72.0,337.8 L 78.2,337.4 L 84.5,337.4 L 90.7,337.1 L 96.9,337.1 L 103.2,337.1 L 109.4,337.1 L 115.6,337.1 L 121.9,336.3 L 128.1,336.3 L 134.3,336.3 L 140.6,336.3 L 146.8,336.3 L 153.0,335.9 L 159.3,335.9 L 165.5,335.9 L 171.7,335.9 L 177.9,335.9 L 184.2,335.6 L 190.4,334.8 L 196.6,334.5 L 202.9,334.5 L 209.1,334.5 L 215.3,334.1 L 221.6,334.1 L 227.8,334.1 L 234.0,333.7 L 240.3,333.7 L 246.5,333.7 L 252.7,333.4 L 259.0,333.4 L 265.2,333.4 L 271.4,333.4 L 277.7,333.0 L 283.9,333.0 L 290.1,333.0 L 296.4,333.0 L 302.6,333.0 L 308.8,333.0 L 315.1,333.0 L 321.3,333.0 L 327.5,333.0 L 333.8,333.0 L 340.0,333.0 L 346.2,333.0 L 352.4,333.0 L 358.7,332.6 L 364.9,332.6 L 371.1,332.6 L 377.4,332.6 L 383.6,332.6 L 389.8,332.6 L 396.1,332.6 L 402.3,332.6 L 408.5,332.6 L 414.8,332.6 L 421.0,332.6 L 427.2,332.6 L 433.5,332.3 L 439.7,332.3 L 445.9,332.3 L 452.2,332.3 L 458.4,332.3 L 464.6,332.3 L 470.9,332.3 L 477.1,332.3 L 483.3,332.3 L 489.6,332.3 L 495.8,332.3 L 502.0,332.3 L 508.3,332.3 L 514.5,332.3 L 520.7,332.3 L 526.9,332.3 L 533.2,332.3 L 539.4,332.3 L 545.6,332.3 L 551.9,332.3 L 558.1,332.3 L 564.3,332.3 L 570.6,332.3 L 576.8,332.3 L 583.0,332.3 L 589.3,332.3 L 595.5,332.3 L 601.7,332.3 L 608.0,332.3 L 614.2,332.3 L 620.4,332.3 L 626.7,332.3 L 632.9,332.3 L 639.1,332.3 L 645.4,332.3 L 651.6,332.3 L 657.8,331.9 L 664.1,331.9 L 670.3,331.9 L 676.5,331.9 L 682.8,331.9 L 689.0,331.5 L 695.2,331.5 L 701.4,331.5 L 707.7,331.5 L 713.9,331.1 L 720.1,331.1 L 726.4,330.8 L 732.6,330.8 L 738.8,330.8 L 745.1,330.8 L 751.3,330.8 L 757.5,330.8 L 763.8,330.8 L 770.0,330.8 L 770.0,340 Z" fill="url(#g7)" clip-path="url(#ca)"/>
<path d="M 72.0,337.8 L 78.2,337.4 L 84.5,337.4 L 90.7,337.1 L 96.9,337.1 L 103.2,337.1 L 109.4,337.1 L 115.6,337.1 L 121.9,336.3 L 128.1,336.3 L 134.3,336.3 L 140.6,336.3 L 146.8,336.3 L 153.0,335.9 L 159.3,335.9 L 165.5,335.9 L 171.7,335.9 L 177.9,335.9 L 184.2,335.6 L 190.4,334.8 L 196.6,334.5 L 202.9,334.5 L 209.1,334.5 L 215.3,334.1 L 221.6,334.1 L 227.8,334.1 L 234.0,333.7 L 240.3,333.7 L 246.5,333.7 L 252.7,333.4 L 259.0,333.4 L 265.2,333.4 L 271.4,333.4 L 277.7,333.0 L 283.9,333.0 L 290.1,333.0 L 296.4,333.0 L 302.6,333.0 L 308.8,333.0 L 315.1,333.0 L 321.3,333.0 L 327.5,333.0 L 333.8,333.0 L 340.0,333.0 L 346.2,333.0 L 352.4,333.0 L 358.7,332.6 L 364.9,332.6 L 371.1,332.6 L 377.4,332.6 L 383.6,332.6 L 389.8,332.6 L 396.1,332.6 L 402.3,332.6 L 408.5,332.6 L 414.8,332.6 L 421.0,332.6 L 427.2,332.6 L 433.5,332.3 L 439.7,332.3 L 445.9,332.3 L 452.2,332.3 L 458.4,332.3 L 464.6,332.3 L 470.9,332.3 L 477.1,332.3 L 483.3,332.3 L 489.6,332.3 L 495.8,332.3 L 502.0,332.3 L 508.3,332.3 L 514.5,332.3 L 520.7,332.3 L 526.9,332.3 L 533.2,332.3 L 539.4,332.3 L 545.6,332.3 L 551.9,332.3 L 558.1,332.3 L 564.3,332.3 L 570.6,332.3 L 576.8,332.3 L 583.0,332.3 L 589.3,332.3 L 595.5,332.3 L 601.7,332.3 L 608.0,332.3 L 614.2,332.3 L 620.4,332.3 L 626.7,332.3 L 632.9,332.3 L 639.1,332.3 L 645.4,332.3 L 651.6,332.3 L 657.8,331.9 L 664.1,331.9 L 670.3,331.9 L 676.5,331.9 L 682.8,331.9 L 689.0,331.5 L 695.2,331.5 L 701.4,331.5 L 707.7,331.5 L 713.9,331.1 L 720.1,331.1 L 726.4,330.8 L 732.6,330.8 L 738.8,330.8 L 745.1,330.8 L 751.3,330.8 L 757.5,330.8 L 763.8,330.8 L 770.0,330.8" fill="none" stroke="#FF6363" stroke-width="2.5" stroke-linejoin="round" clip-path="url(#ca)"/>
<text x="106.3" y="55.0" text-anchor="middle" font-size="9" fill="#34C759" opacity="0.85" clip-path="url(#ca)">+15.2% (+50)</text>
<text x="106.3" y="66.0" text-anchor="middle" font-size="9" fill="#4F8EF7" opacity="0.85" clip-path="url(#ca)">+2.8% (+11)</text>
<text x="106.3" y="77.0" text-anchor="middle" font-size="9" fill="#FF6363" opacity="0.85" clip-path="url(#ca)">+66.7% (+4)</text>
<text x="224.7" y="55.0" text-anchor="middle" font-size="9" fill="#34C759" opacity="0.85" clip-path="url(#ca)">+20.1% (+77)</text>
<text x="224.7" y="66.0" text-anchor="middle" font-size="9" fill="#4F8EF7" opacity="0.85" clip-path="url(#ca)">+16.8% (+69)</text>
<text x="224.7" y="77.0" text-anchor="middle" font-size="9" fill="#FF6363" opacity="0.85" clip-path="url(#ca)">+90.0% (+9)</text>
<text x="389.8" y="55.0" text-anchor="middle" font-size="9" fill="#34C759" opacity="0.85" clip-path="url(#ca)">+16.1% (+74)</text>
<text x="389.8" y="66.0" text-anchor="middle" font-size="9" fill="#4F8EF7" opacity="0.85" clip-path="url(#ca)">+17.3% (+83)</text>
<text x="389.8" y="77.0" text-anchor="middle" font-size="9" fill="#FF6363" opacity="0.85" clip-path="url(#ca)">+10.5% (+2)</text>
<text x="558.1" y="55.0" text-anchor="middle" font-size="9" fill="#34C759" opacity="0.85" clip-path="url(#ca)">+10.5% (+56)</text>
<text x="558.1" y="66.0" text-anchor="middle" font-size="9" fill="#4F8EF7" opacity="0.85" clip-path="url(#ca)">+14.4% (+81)</text>
<text x="558.1" y="77.0" text-anchor="middle" font-size="9" fill="#FF6363" opacity="0.85" clip-path="url(#ca)">+0.0% (+0)</text>
<text x="707.7" y="55.0" text-anchor="middle" font-size="9" fill="#34C759" opacity="0.85" clip-path="url(#ca)">+5.1% (+30)</text>
<text x="707.7" y="66.0" text-anchor="middle" font-size="9" fill="#4F8EF7" opacity="0.85" clip-path="url(#ca)">+5.2% (+39)</text>
<text x="707.7" y="77.0" text-anchor="middle" font-size="9" fill="#FF6363" opacity="0.85" clip-path="url(#ca)">+19.0% (+4)</text>
<rect x="211" y="369" width="12" height="12" fill="#34C759" rx="2"/>
<text x="227" y="379" font-size="12" fill="#111827">macOS + Windows</text>
<rect x="351" y="369" width="12" height="12" fill="#4F8EF7" rx="2"/>
<text x="367" y="379" font-size="12" fill="#111827">macOS only</text>
<rect x="491" y="369" width="12" height="12" fill="#FF6363" rx="2"/>
<text x="507" y="379" font-size="12" fill="#111827">Windows only</text>
<text x="72" y="394" font-size="8" fill="#e5e7eb">data since Dec 11, 2025</text>
</svg>