<svg xmlns="http://www.w3.org/2000/svg" width="800" height="400" viewBox="0 0 800 400">
<defs>
  <style>text { font-family: -apple-system, BlinkMacSystemFont, 'Segoe UI', Roboto, sans-serif; }</style>
  <linearGradient id="g5" x1="0" y1="0" x2="0" y2="1">
  <stop offset="0%" stop-color="#34C759" stop-opacity="0.25"/>
  <stop offset="100%" stop-color="#34C759" stop-opacity="0"/>
</linearGradient>
<linearGradient id="g6" x1="0" y1="0" x2="0" y2="1">
  <stop offset="0%" stop-color="#4F8EF7" stop-opacity="0.25"/>
  <stop offset="100%" stop-color="#4F8EF7" stop-opacity="0"/>
</linearGradient>
<linearGradient id="g7" x1="0" y1="0" x2="0" y2="1">
  <stop offset="0%" stop-color="#FF6363" stop-opacity="0.25"/>
  <stop offset="100%" stop-color="#FF6363" stop-opacity="0"/>
</linearGradient>
  <clipPath id="ca"><rect x="72" y="45" width="698" height="295"/></clipPath>
</defs>
<rect width="800" height="400" fill="#ffffff" rx="12"/>
<text x="400" y="26" text-anchor="middle" font-size="15" font-weight="600" fill="#111827">Platform Support Over Time</text>
<line x1="72" y1="340.0" x2="770" y2="340.0" stroke="#f3f4f6" stroke-width="1"/>
<text x="66" y="344.0" text-anchor="end" font-size="11" fill="#6b7280">0</text>
<line x1="72" y1="266.3" x2="770" y2="266.3" stroke="#f3f4f6" stroke-width="1"/>
<text x="66" y="270.3" text-anchor="end" font-size="11" fill="#6b7280">200</text>
<line x1="72" y1="192.5" x2="770" y2="192.5" stroke="#f3f4f6" stroke-width="1"/>
<text x="66" y="196.5" text-anchor="end" font-size="11" fill="#6b7280">400</text>
<line x1="72" y1="118.8" x2="770" y2="118.8" stroke="#f3f4f6" stroke-width="1"/>
<text x="66" y="122.8" text-anchor="end" font-size="11" fill="#6b7280">600</text>
<line x1="72" y1="45.0" x2="770" y2="45.0" stroke="#f3f4f6" stroke-width="1"/>
<text x="66" y="49.0" text-anchor="end" font-size="11" fill="#6b7280">800</text>
<line x1="164.0" y1="45" x2="164.0" y2="340" stroke="#e5e7eb" stroke-width="1" stroke-dasharray="3,3" clip-path="url(#ca)"/>
<line x1="363.5" y1="45" x2="363.5" y2="340" stroke="#e5e7eb" stroke-width="1" stroke-dasharray="3,3" clip-path="url(#ca)"/>
<line x1="570.6" y1="45" x2="570.6" y2="340" stroke="#e5e7eb" stroke-width="1" stroke-dasharray="3,3" clip-path="url(#ca)"/>
<text x="72.0" y="358.0" text-anchor="middle" font-size="11" fill="#6b7280">Dec 11</text>
<text x="210.1" y="358.0" text-anchor="middle" font-size="11" fill="#6b7280">Jan 9</text>
<text x="348.1" y="358.0" text-anchor="middle" font-size="11" fill="#6b7280">Jan 30</text>
<text x="493.9" y="358.0" text-anchor="middle" font-size="11" fill="#6b7280">Feb 18</text>
<text x="631.9" y="358.0" text-anchor="middle" font-size="11" fill="#6b7280">Mar 10</text>
<text x="770.0" y="358.0" text-anchor="middle" font-size="11" fill="#6b7280">Mar 31</text>
<line x1="72" y1="45" x2="72" y2="340" stroke="#e5e7eb" stroke-width="1"/>
<line x1="72" y1="340" x2="770" y2="340" stroke="#e5e7eb" stroke-width="1"/>
<text x="-192.5" y="18" text-anchor="middle" font-size="12" fill="#6b7280" transform="rotate(-90)">Extensions</text>
<path d="M 72.0,340 L 72.0,218.3 L 79.7,215.0 L 87.3,214.6 L 95.0,213.2 L 102.7,212.4 L 110.4,208.7 L 118.0,206.5 L 125.7,205.4 L 133.4,203.6 L 141.0,201.3 L 148.7,200.2 L 156.4,199.9 L 164.0,198.8 L 171.7,198.0 L 179.4,197.7 L 187.1,196.6 L 194.7,195.4 L 202.4,194.3 L 210.1,193.2 L 217.7,191.8 L 225.4,190.7 L 233.1,189.6 L 240.7,188.4 L 248.4,186.2 L 256.1,185.5 L 263.8,185.5 L 271.4,182.9 L 279.1,182.2 L 286.8,181.4 L 294.4,180.7 L 302.1,178.9 L 309.8,176.3 L 317.5,175.9 L 325.1,175.5 L 332.8,173.3 L 340.5,172.6 L 348.1,170.7 L 355.8,170.4 L 363.5,170.0 L 371.1,169.3 L 378.8,169.3 L 386.5,169.3 L 394.2,164.1 L 401.8,163.7 L 409.5,162.6 L 417.2,162.3 L 424.8,161.9 L 432.5,160.8 L 440.2,160.1 L 447.8,159.3 L 455.5,157.1 L 463.2,157.1 L 470.9,157.1 L 478.5,156.7 L 486.2,153.0 L 493.9,151.9 L 501.5,151.2 L 509.2,150.1 L 516.9,149.4 L 524.5,149.4 L 532.2,147.5 L 539.9,144.9 L 547.6,144.2 L 555.2,143.8 L 562.9,142.7 L 570.6,142.7 L 578.2,142.0 L 585.9,140.9 L 593.6,140.1 L 601.3,138.7 L 608.9,137.2 L 616.6,136.8 L 624.3,136.8 L 631.9,135.3 L 639.6,135.3 L 647.3,135.3 L 654.9,133.1 L 662.6,132.8 L 670.3,132.4 L 678.0,132.4 L 685.6,132.0 L 693.3,130.6 L 701.0,129.8 L 708.6,128.7 L 716.3,128.7 L 724.0,128.3 L 731.6,126.9 L 739.3,125.8 L 747.0,125.8 L 754.7,125.4 L 762.3,124.7 L 770.0,122.1 L 770.0,340 Z" fill="url(#g5)" clip-path="url(#ca)"/>
<path d="M 72.0,218.3 L 79.7,215.0 L 87.3,214.6 L 95.0,213.2 L 102.7,212.4 L 110.4,208.7 L 118.0,206.5 L 125.7,205.4 L 133.4,203.6 L 141.0,201.3 L 148.7,200.2 L 156.4,199.9 L 164.0,198.8 L 171.7,198.0 L 179.4,197.7 L 187.1,196.6 L 194.7,195.4 L 202.4,194.3 L 210.1,193.2 L 217.7,191.8 L 225.4,190.7 L 233.1,189.6 L 240.7,188.4 L 248.4,186.2 L 256.1,185.5 L 263.8,185.5 L 271.4,182.9 L 279.1,182.2 L 286.8,181.4 L 294.4,180.7 L 302.1,178.9 L 309.8,176.3 L 317.5,175.9 L 325.1,175.5 L 332.8,173.3 L 340.5,172.6 L 348.1,170.7 L 355.8,170.4 L 363.5,170.0 L 371.1,169.3 L 378.8,169.3 L 386.5,169.3 L 394.2,164.1 L 401.8,163.7 L 409.5,162.6 L 417.2,162.3 L 424.8,161.9 L 432.5,160.8 L 440.2,160.1 L 447.8,159.3 L 455.5,157.1 L 463.2,157.1 L 470.9,157.1 L 478.5,156.7 L 486.2,153.0 L 493.9,151.9 L 501.5,151.2 L 509.2,150.1 L 516.9,149.4 L 524.5,149.4 L 532.2,147.5 L 539.9,144.9 L 547.6,144.2 L 555.2,143.8 L 562.9,142.7 L 570.6,142.7 L 578.2,142.0 L 585.9,140.9 L 593.6,140.1 L 601.3,138.7 L 608.9,137.2 L 616.6,136.8 L 624.3,136.8 L 631.9,135.3 L 639.6,135.3 L 647.3,135.3 L 654.9,133.1 L 662.6,132.8 L 670.3,132.4 L 678.0,132.4 L 685.6,132.0 L 693.3,130.6 L 701.0,129.8 L 708.6,128.7 L 716.3,128.7 L 724.0,128.3 L 731.6,126.9 L 739.3,125.8 L 747.0,125.8 L 754.7,125.4 L 762.3,124.7 L 770.0,122.1" fill="none" stroke="#34C759" stroke-width="2.5" stroke-linejoin="round" clip-path="url(#ca)"/>
<path d="M 72.0,340 L 72.0,193.2 L 79.7,193.2 L 87.3,192.9 L 95.0,191.8 L 102.7,192.1 L 110.4,192.1 L 118.0,190.7 L 125.7,189.6 L 133.4,189.6 L 141.0,189.9 L 148.7,189.6 L 156.4,189.2 L 164.0,188.8 L 171.7,188.8 L 179.4,188.8 L 187.1,189.2 L 194.7,188.4 L 202.4,187.7 L 210.1,185.5 L 217.7,184.0 L 225.4,184.0 L 233.1,183.7 L 240.7,181.4 L 248.4,178.1 L 256.1,177.0 L 263.8,176.3 L 271.4,173.7 L 279.1,171.9 L 286.8,171.1 L 294.4,170.4 L 302.1,169.6 L 309.8,169.3 L 317.5,169.3 L 325.1,166.7 L 332.8,166.0 L 340.5,165.2 L 348.1,165.2 L 355.8,163.4 L 363.5,163.0 L 371.1,161.9 L 378.8,160.4 L 386.5,158.6 L 394.2,156.0 L 401.8,153.4 L 409.5,153.0 L 417.2,152.3 L 424.8,151.6 L 432.5,149.4 L 440.2,149.4 L 447.8,148.6 L 455.5,147.5 L 463.2,146.8 L 470.9,145.3 L 478.5,145.7 L 486.2,141.2 L 493.9,140.9 L 501.5,140.5 L 509.2,139.8 L 516.9,137.6 L 524.5,137.6 L 532.2,135.3 L 539.9,132.8 L 547.6,132.8 L 555.2,132.8 L 562.9,132.4 L 570.6,132.0 L 578.2,131.7 L 585.9,129.8 L 593.6,127.6 L 601.3,126.9 L 608.9,125.4 L 616.6,125.4 L 624.3,124.3 L 631.9,122.1 L 639.6,121.0 L 647.3,120.6 L 654.9,118.0 L 662.6,117.6 L 670.3,117.6 L 678.0,117.3 L 685.6,117.3 L 693.3,115.4 L 701.0,114.7 L 708.6,113.6 L 716.3,113.2 L 724.0,112.5 L 731.6,109.5 L 739.3,105.5 L 747.0,105.1 L 754.7,104.4 L 762.3,104.0 L 770.0,102.2 L 770.0,340 Z" fill="url(#g6)" clip-path="url(#ca)"/>
<path d="M 72.0,193.2 L 79.7,193.2 L 87.3,192.9 L 95.0,191.8 L 102.7,192.1 L 110.4,192.1 L 118.0,190.7 L 125.7,189.6 L 133.4,189.6 L 141.0,189.9 L 148.7,189.6 L 156.4,189.2 L 164.0,188.8 L 171.7,188.8 L 179.4,188.8 L 187.1,189.2 L 194.7,188.4 L 202.4,187.7 L 210.1,185.5 L 217.7,184.0 L 225.4,184.0 L 233.1,183.7 L 240.7,181.4 L 248.4,178.1 L 256.1,177.0 L 263.8,176.3 L 271.4,173.7 L 279.1,171.9 L 286.8,171.1 L 294.4,170.4 L 302.1,169.6 L 309.8,169.3 L 317.5,169.3 L 325.1,166.7 L 332.8,166.0 L 340.5,165.2 L 348.1,165.2 L 355.8,163.4 L 363.5,163.0 L 371.1,161.9 L 378.8,160.4 L 386.5,158.6 L 394.2,156.0 L 401.8,153.4 L 409.5,153.0 L 417.2,152.3 L 424.8,151.6 L 432.5,149.4 L 440.2,149.4 L 447.8,148.6 L 455.5,147.5 L 463.2,146.8 L 470.9,145.3 L 478.5,145.7 L 486.2,141.2 L 493.9,140.9 L 501.5,140.5 L 509.2,139.8 L 516.9,137.6 L 524.5,137.6 L 532.2,135.3 L 539.9,132.8 L 547.6,132.8 L 555.2,132.8 L 562.9,132.4 L 570.6,132.0 L 578.2,131.7 L 585.9,129.8 L 593.6,127.6 L 601.3,126.9 L 608.9,125.4 L 616.6,125.4 L 624.3,124.3 L 631.9,122.1 L 639.6,121.0 L 647.3,120.6 L 654.9,118.0 L 662.6,117.6 L 670.3,117.6 L 678.0,117.3 L 685.6,117.3 L 693.3,115.4 L 701.0,114.7 L 708.6,113.6 L 716.3,113.2 L 724.0,112.5 L 731.6,109.5 L 739.3,105.5 L 747.0,105.1 L 754.7,104.4 L 762.3,104.0 L 770.0,102.2" fill="none" stroke="#4F8EF7" stroke-width="2.5" stroke-linejoin="round" clip-path="url(#ca)"/>
<path d="M 72.0,340 L 72.0,337.8 L 79.7,337.4 L 87.3,337.4 L 95.0,337.1 L 102.7,337.1 L 110.4,337.1 L 118.0,337.1 L 125.7,337.1 L 133.4,336.3 L 141.0,336.3 L 148.7,336.3 L 156.4,336.3 L 164.0,336.3 L 171.7,335.9 L 179.4,335.9 L 187.1,335.9 L 194.7,335.9 L 202.4,335.9 L 210.1,335.6 L 217.7,334.8 L 225.4,334.5 L 233.1,334.5 L 240.7,334.5 L 248.4,334.1 L 256.1,334.1 L 263.8,334.1 L 271.4,333.7 L 279.1,333.7 L 286.8,333.7 L 294.4,333.4 L 302.1,333.4 L 309.8,333.4 L 317.5,333.4 L 325.1,333.0 L 332.8,333.0 L 340.5,333.0 L 348.1,333.0 L 355.8,333.0 L 363.5,333.0 L 371.1,333.0 L 378.8,333.0 L 386.5,333.0 L 394.2,333.0 L 401.8,333.0 L 409.5,333.0 L 417.2,333.0 L 424.8,332.6 L 432.5,332.6 L 440.2,332.6 L 447.8,332.6 L 455.5,332.6 L 463.2,332.6 L 470.9,332.6 L 478.5,332.6 L 486.2,332.6 L 493.9,332.6 L 501.5,332.6 L 509.2,332.6 L 516.9,332.3 L 524.5,332.3 L 532.2,332.3 L 539.9,332.3 L 547.6,332.3 L 555.2,332.3 L 562.9,332.3 L 570.6,332.3 L 578.2,332.3 L 585.9,332.3 L 593.6,332.3 L 601.3,332.3 L 608.9,332.3 L 616.6,332.3 L 624.3,332.3 L 631.9,332.3 L 639.6,332.3 L 647.3,332.3 L 654.9,332.3 L 662.6,332.3 L 670.3,332.3 L 678.0,332.3 L 685.6,332.3 L 693.3,332.3 L 701.0,332.3 L 708.6,332.3 L 716.3,332.3 L 724.0,332.3 L 731.6,332.3 L 739.3,332.3 L 747.0,332.3 L 754.7,332.3 L 762.3,332.3 L 770.0,332.3 L 770.0,340 Z" fill="url(#g7)" clip-path="url(#ca)"/>
<path d="M 72.0,337.8 L 79.7,337.4 L 87.3,337.4 L 95.0,337.1 L 102.7,337.1 L 110.4,337.1 L 118.0,337.1 L 125.7,337.1 L 133.4,336.3 L 141.0,336.3 L 148.7,336.3 L 156.4,336.3 L 164.0,336.3 L 171.7,335.9 L 179.4,335.9 L 187.1,335.9 L 194.7,335.9 L 202.4,335.9 L 210.1,335.6 L 217.7,334.8 L 225.4,334.5 L 233.1,334.5 L 240.7,334.5 L 248.4,334.1 L 256.1,334.1 L 263.8,334.1 L 271.4,333.7 L 279.1,333.7 L 286.8,333.7 L 294.4,333.4 L 302.1,333.4 L 309.8,333.4 L 317.5,333.4 L 325.1,333.0 L 332.8,333.0 L 340.5,333.0 L 348.1,333.0 L 355.8,333.0 L 363.5,333.0 L 371.1,333.0 L 378.8,333.0 L 386.5,333.0 L 394.2,333.0 L 401.8,333.0 L 409.5,333.0 L 417.2,333.0 L 424.8,332.6 L 432.5,332.6 L 440.2,332.6 L 447.8,332.6 L 455.5,332.6 L 463.2,332.6 L 470.9,332.6 L 478.5,332.6 L 486.2,332.6 L 493.9,332.6 L 501.5,332.6 L 509.2,332.6 L 516.9,332.3 L 524.5,332.3 L 532.2,332.3 L 539.9,332.3 L 547.6,332.3 L 555.2,332.3 L 562.9,332.3 L 570.6,332.3 L 578.2,332.3 L 585.9,332.3 L 593.6,332.3 L 601.3,332.3 L 608.9,332.3 L 616.6,332.3 L 624.3,332.3 L 631.9,332.3 L 639.6,332.3 L 647.3,332.3 L 654.9,332.3 L 662.6,332.3 L 670.3,332.3 L 678.0,332.3 L 685.6,332.3 L 693.3,332.3 L 701.0,332.3 L 708.6,332.3 L 716.3,332.3 L 724.0,332.3 L 731.6,332.3 L 739.3,332.3 L 747.0,332.3 L 754.7,332.3 L 762.3,332.3 L 770.0,332.3" fill="none" stroke="#FF6363" stroke-width="2.5" stroke-linejoin="round" clip-path="url(#ca)"/>
<text x="114.2" y="55.0" text-anchor="middle" font-size="9" fill="#34C759" opacity="0.85" clip-path="url(#ca)">+15.2% (+50)</text>
<text x="114.2" y="66.0" text-anchor="middle" font-size="9" fill="#4F8EF7" opacity="0.85" clip-path="url(#ca)">+2.8% (+11)</text>
<text x="114.2" y="77.0" text-anchor="middle" font-size="9" fill="#FF6363" opacity="0.85" clip-path="url(#ca)">+66.7% (+4)</text>
<text x="259.9" y="55.0" text-anchor="middle" font-size="9" fill="#34C759" opacity="0.85" clip-path="url(#ca)">+20.1% (+77)</text>
<text x="259.9" y="66.0" text-anchor="middle" font-size="9" fill="#4F8EF7" opacity="0.85" clip-path="url(#ca)">+16.8% (+69)</text>
<text x="259.9" y="77.0" text-anchor="middle" font-size="9" fill="#FF6363" opacity="0.85" clip-path="url(#ca)">+90.0% (+9)</text>
<text x="463.2" y="55.0" text-anchor="middle" font-size="9" fill="#34C759" opacity="0.85" clip-path="url(#ca)">+16.1% (+74)</text>
<text x="463.2" y="66.0" text-anchor="middle" font-size="9" fill="#4F8EF7" opacity="0.85" clip-path="url(#ca)">+17.3% (+83)</text>
<text x="463.2" y="77.0" text-anchor="middle" font-size="9" fill="#FF6363" opacity="0.85" clip-path="url(#ca)">+10.5% (+2)</text>
<text x="670.3" y="55.0" text-anchor="middle" font-size="9" fill="#34C759" opacity="0.85" clip-path="url(#ca)">+10.5% (+56)</text>
<text x="670.3" y="66.0" text-anchor="middle" font-size="9" fill="#4F8EF7" opacity="0.85" clip-path="url(#ca)">+14.4% (+81)</text>
<text x="670.3" y="77.0" text-anchor="middle" font-size="9" fill="#FF6363" opacity="0.85" clip-path="url(#ca)">+0.0% (+0)</text>
<rect x="211" y="369" width="12" height="12" fill="#34C759" rx="2"/>
<text x="227" y="379" font-size="12" fill="#111827">macOS + Windows</text>
<rect x="351" y="369" width="12" height="12" fill="#4F8EF7" rx="2"/>
<text x="367" y="379" font-size="12" fill="#111827">macOS only</text>
<rect x="491" y="369" width="12" height="12" fill="#FF6363" rx="2"/>
<text x="507" y="379" font-size="12" fill="#111827">Windows only</text>
<text x="72" y="394" font-size="8" fill="#e5e7eb">data since Dec 11, 2025</text>
</svg>