<svg xmlns="http://www.w3.org/2000/svg" width="800" height="400" viewBox="0 0 800 400">
<defs>
  <style>text { font-family: -apple-system, BlinkMacSystemFont, 'Segoe UI', Roboto, sans-serif; }</style>
  <linearGradient id="g1" x1="0" y1="0" x2="0" y2="1">
  <stop offset="0%" stop-color="#FF6363" stop-opacity="0.25"/>
  <stop offset="100%" stop-color="#FF6363" stop-opacity="0"/>
</linearGradient>
  <clipPath id="ca"><rect x="72" y="45" width="698" height="295"/></clipPath>
</defs>
<rect width="800" height="400" fill="#ffffff" rx="12"/>
<text x="400" y="26" text-anchor="middle" font-size="15" font-weight="600" fill="#111827">Packages Growth Over Time</text>
<line x1="72" y1="340.0" x2="770" y2="340.0" stroke="#f3f4f6" stroke-width="1"/>
<text x="66" y="344.0" text-anchor="end" font-size="11" fill="#6b7280">2.4k</text>
<line x1="72" y1="290.8" x2="770" y2="290.8" stroke="#f3f4f6" stroke-width="1"/>
<text x="66" y="294.8" text-anchor="end" font-size="11" fill="#6b7280">2.5k</text>
<line x1="72" y1="241.7" x2="770" y2="241.7" stroke="#f3f4f6" stroke-width="1"/>
<text x="66" y="245.7" text-anchor="end" font-size="11" fill="#6b7280">2.6k</text>
<line x1="72" y1="192.5" x2="770" y2="192.5" stroke="#f3f4f6" stroke-width="1"/>
<text x="66" y="196.5" text-anchor="end" font-size="11" fill="#6b7280">2.7k</text>
<line x1="72" y1="143.3" x2="770" y2="143.3" stroke="#f3f4f6" stroke-width="1"/>
<text x="66" y="147.3" text-anchor="end" font-size="11" fill="#6b7280">2.8k</text>
<line x1="72" y1="94.2" x2="770" y2="94.2" stroke="#f3f4f6" stroke-width="1"/>
<text x="66" y="98.2" text-anchor="end" font-size="11" fill="#6b7280">2.9k</text>
<line x1="72" y1="45.0" x2="770" y2="45.0" stroke="#f3f4f6" stroke-width="1"/>
<text x="66" y="49.0" text-anchor="end" font-size="11" fill="#6b7280">3.0k</text>
<line x1="129.0" y1="45" x2="129.0" y2="340" stroke="#e5e7eb" stroke-width="1" stroke-dasharray="3,3" clip-path="url(#ca)"/>
<line x1="252.4" y1="45" x2="252.4" y2="340" stroke="#e5e7eb" stroke-width="1" stroke-dasharray="3,3" clip-path="url(#ca)"/>
<line x1="380.6" y1="45" x2="380.6" y2="340" stroke="#e5e7eb" stroke-width="1" stroke-dasharray="3,3" clip-path="url(#ca)"/>
<line x1="508.8" y1="45" x2="508.8" y2="340" stroke="#e5e7eb" stroke-width="1" stroke-dasharray="3,3" clip-path="url(#ca)"/>
<line x1="637.0" y1="45" x2="637.0" y2="340" stroke="#e5e7eb" stroke-width="1" stroke-dasharray="3,3" clip-path="url(#ca)"/>
<line x1="760.5" y1="45" x2="760.5" y2="340" stroke="#e5e7eb" stroke-width="1" stroke-dasharray="3,3" clip-path="url(#ca)"/>
<text x="72.0" y="358.0" text-anchor="middle" font-size="11" fill="#6b7280">Dec 11</text>
<text x="209.7" y="358.0" text-anchor="middle" font-size="11" fill="#6b7280">Jan 23</text>
<text x="352.1" y="358.0" text-anchor="middle" font-size="11" fill="#6b7280">Feb 22</text>
<text x="489.9" y="358.0" text-anchor="middle" font-size="11" fill="#6b7280">Mar 26</text>
<text x="632.3" y="358.0" text-anchor="middle" font-size="11" fill="#6b7280">Apr 30</text>
<text x="770.0" y="358.0" text-anchor="middle" font-size="11" fill="#6b7280">Jun 4</text>
<line x1="72" y1="45" x2="72" y2="340" stroke="#e5e7eb" stroke-width="1"/>
<line x1="72" y1="340" x2="770" y2="340" stroke="#e5e7eb" stroke-width="1"/>
<text x="-192.5" y="18" text-anchor="middle" font-size="12" fill="#6b7280" transform="rotate(-90)">Extensions</text>
<path d="M 72.0,340 L 72.0,302.1 L 76.7,301.6 L 81.5,301.6 L 86.2,300.2 L 91.0,300.2 L 95.7,299.2 L 100.5,298.2 L 105.2,297.7 L 110.0,295.3 L 114.7,293.3 L 119.5,293.3 L 124.2,293.3 L 129.0,293.3 L 133.7,292.3 L 138.5,292.3 L 143.2,292.3 L 148.0,291.3 L 152.7,289.4 L 157.5,285.9 L 162.2,283.5 L 167.0,282.5 L 171.7,282.0 L 176.5,280.0 L 181.2,274.1 L 186.0,272.1 L 190.7,272.1 L 195.5,267.2 L 200.2,265.8 L 205.0,263.8 L 209.7,262.3 L 214.4,259.4 L 219.2,256.9 L 223.9,256.4 L 228.7,252.5 L 233.4,249.0 L 238.2,249.0 L 242.9,246.6 L 247.7,244.6 L 252.4,244.1 L 257.2,243.6 L 261.9,243.1 L 266.7,241.7 L 271.4,232.8 L 276.2,228.9 L 280.9,226.9 L 285.7,225.9 L 290.4,224.5 L 295.2,221.0 L 299.9,220.0 L 304.7,219.1 L 309.4,216.1 L 314.2,215.1 L 318.9,214.1 L 323.7,214.1 L 328.4,205.3 L 333.2,204.3 L 337.9,203.3 L 342.7,201.3 L 347.4,198.9 L 352.1,198.9 L 356.9,195.0 L 361.6,188.6 L 366.4,187.6 L 371.1,188.1 L 375.9,186.6 L 380.6,186.1 L 385.4,186.1 L 390.1,183.2 L 394.9,180.7 L 399.6,178.7 L 404.4,176.3 L 409.1,175.8 L 413.9,175.8 L 418.6,172.3 L 423.4,171.4 L 428.1,170.9 L 432.9,165.0 L 437.6,164.5 L 442.4,164.5 L 447.1,164.5 L 451.9,164.0 L 456.6,161.5 L 461.4,159.6 L 466.1,157.1 L 470.9,156.6 L 475.6,155.1 L 480.4,150.7 L 485.1,146.8 L 489.9,146.3 L 494.6,145.8 L 499.3,144.3 L 504.1,139.4 L 508.8,138.4 L 513.6,136.9 L 518.3,134.0 L 523.1,133.5 L 527.8,133.0 L 532.6,133.0 L 537.3,132.0 L 542.1,129.1 L 546.8,128.1 L 551.6,127.1 L 556.3,126.6 L 561.1,125.6 L 565.8,120.7 L 570.6,120.2 L 575.3,119.2 L 580.1,118.8 L 584.8,116.3 L 589.6,115.8 L 594.3,115.3 L 599.1,113.8 L 603.8,111.9 L 608.6,111.9 L 613.3,111.9 L 618.1,111.9 L 622.8,110.9 L 627.6,108.4 L 632.3,107.9 L 637.0,105.5 L 641.8,105.0 L 646.5,104.5 L 651.3,101.5 L 656.0,98.6 L 660.8,98.1 L 665.5,97.6 L 670.3,91.2 L 675.0,89.3 L 679.8,87.8 L 684.5,87.3 L 689.3,83.8 L 694.0,83.8 L 698.8,81.4 L 703.5,79.9 L 708.3,75.0 L 713.0,73.0 L 717.8,72.5 L 722.5,72.0 L 727.3,72.0 L 732.0,71.6 L 736.8,68.6 L 741.5,66.1 L 746.3,66.1 L 751.0,65.6 L 755.8,65.6 L 760.5,63.7 L 765.3,62.7 L 770.0,61.2 L 770.0,340 Z" fill="url(#g1)" clip-path="url(#ca)"/>
<path d="M 72.0,302.1 L 76.7,301.6 L 81.5,301.6 L 86.2,300.2 L 91.0,300.2 L 95.7,299.2 L 100.5,298.2 L 105.2,297.7 L 110.0,295.3 L 114.7,293.3 L 119.5,293.3 L 124.2,293.3 L 129.0,293.3 L 133.7,292.3 L 138.5,292.3 L 143.2,292.3 L 148.0,291.3 L 152.7,289.4 L 157.5,285.9 L 162.2,283.5 L 167.0,282.5 L 171.7,282.0 L 176.5,280.0 L 181.2,274.1 L 186.0,272.1 L 190.7,272.1 L 195.5,267.2 L 200.2,265.8 L 205.0,263.8 L 209.7,262.3 L 214.4,259.4 L 219.2,256.9 L 223.9,256.4 L 228.7,252.5 L 233.4,249.0 L 238.2,249.0 L 242.9,246.6 L 247.7,244.6 L 252.4,244.1 L 257.2,243.6 L 261.9,243.1 L 266.7,241.7 L 271.4,232.8 L 276.2,228.9 L 280.9,226.9 L 285.7,225.9 L 290.4,224.5 L 295.2,221.0 L 299.9,220.0 L 304.7,219.1 L 309.4,216.1 L 314.2,215.1 L 318.9,214.1 L 323.7,214.1 L 328.4,205.3 L 333.2,204.3 L 337.9,203.3 L 342.7,201.3 L 347.4,198.9 L 352.1,198.9 L 356.9,195.0 L 361.6,188.6 L 366.4,187.6 L 371.1,188.1 L 375.9,186.6 L 380.6,186.1 L 385.4,186.1 L 390.1,183.2 L 394.9,180.7 L 399.6,178.7 L 404.4,176.3 L 409.1,175.8 L 413.9,175.8 L 418.6,172.3 L 423.4,171.4 L 428.1,170.9 L 432.9,165.0 L 437.6,164.5 L 442.4,164.5 L 447.1,164.5 L 451.9,164.0 L 456.6,161.5 L 461.4,159.6 L 466.1,157.1 L 470.9,156.6 L 475.6,155.1 L 480.4,150.7 L 485.1,146.8 L 489.9,146.3 L 494.6,145.8 L 499.3,144.3 L 504.1,139.4 L 508.8,138.4 L 513.6,136.9 L 518.3,134.0 L 523.1,133.5 L 527.8,133.0 L 532.6,133.0 L 537.3,132.0 L 542.1,129.1 L 546.8,128.1 L 551.6,127.1 L 556.3,126.6 L 561.1,125.6 L 565.8,120.7 L 570.6,120.2 L 575.3,119.2 L 580.1,118.8 L 584.8,116.3 L 589.6,115.8 L 594.3,115.3 L 599.1,113.8 L 603.8,111.9 L 608.6,111.9 L 613.3,111.9 L 618.1,111.9 L 622.8,110.9 L 627.6,108.4 L 632.3,107.9 L 637.0,105.5 L 641.8,105.0 L 646.5,104.5 L 651.3,101.5 L 656.0,98.6 L 660.8,98.1 L 665.5,97.6 L 670.3,91.2 L 675.0,89.3 L 679.8,87.8 L 684.5,87.3 L 689.3,83.8 L 694.0,83.8 L 698.8,81.4 L 703.5,79.9 L 708.3,75.0 L 713.0,73.0 L 717.8,72.5 L 722.5,72.0 L 727.3,72.0 L 732.0,71.6 L 736.8,68.6 L 741.5,66.1 L 746.3,66.1 L 751.0,65.6 L 755.8,65.6 L 760.5,63.7 L 765.3,62.7 L 770.0,61.2" fill="none" stroke="#FF6363" stroke-width="2.5" stroke-linejoin="round" clip-path="url(#ca)"/>
<text x="98.1" y="55.0" text-anchor="middle" font-size="9" fill="#FF6363" opacity="0.85" clip-path="url(#ca)">+0.7% (+18)</text>
<text x="188.3" y="55.0" text-anchor="middle" font-size="9" fill="#FF6363" opacity="0.85" clip-path="url(#ca)">+4.0% (+99)</text>
<text x="314.2" y="55.0" text-anchor="middle" font-size="9" fill="#FF6363" opacity="0.85" clip-path="url(#ca)">+4.5% (+117)</text>
<text x="442.4" y="55.0" text-anchor="middle" font-size="9" fill="#FF6363" opacity="0.85" clip-path="url(#ca)">+3.5% (+95)</text>
<text x="570.6" y="55.0" text-anchor="middle" font-size="9" fill="#FF6363" opacity="0.85" clip-path="url(#ca)">+2.2% (+62)</text>
<text x="696.4" y="55.0" text-anchor="middle" font-size="9" fill="#FF6363" opacity="0.85" clip-path="url(#ca)">+2.8% (+81)</text>
<text x="765.3" y="55.0" text-anchor="middle" font-size="9" fill="#FF6363" opacity="0.85" clip-path="url(#ca)">+0.2% (+5)</text>
<rect x="351" y="369" width="12" height="12" fill="#FF6363" rx="2"/>
<text x="367" y="379" font-size="12" fill="#111827">Extensions</text>
<text x="72" y="394" font-size="8" fill="#e5e7eb">data since Dec 11, 2025</text>
</svg>