<svg xmlns="http://www.w3.org/2000/svg" width="800" height="400" viewBox="0 0 800 400">
<defs>
  <style>text { font-family: -apple-system, BlinkMacSystemFont, 'Segoe UI', Roboto, sans-serif; }</style>
  <linearGradient id="g5" x1="0" y1="0" x2="0" y2="1">
  <stop offset="0%" stop-color="#34C759" stop-opacity="0.25"/>
  <stop offset="100%" stop-color="#34C759" stop-opacity="0"/>
</linearGradient>
<linearGradient id="g6" x1="0" y1="0" x2="0" y2="1">
  <stop offset="0%" stop-color="#4F8EF7" stop-opacity="0.25"/>
  <stop offset="100%" stop-color="#4F8EF7" stop-opacity="0"/>
</linearGradient>
<linearGradient id="g7" x1="0" y1="0" x2="0" y2="1">
  <stop offset="0%" stop-color="#FF6363" stop-opacity="0.25"/>
  <stop offset="100%" stop-color="#FF6363" stop-opacity="0"/>
</linearGradient>
  <clipPath id="ca"><rect x="72" y="45" width="698" height="295"/></clipPath>
</defs>
<rect width="800" height="400" fill="#ffffff" rx="12"/>
<text x="400" y="26" text-anchor="middle" font-size="15" font-weight="600" fill="#111827">Platform Support Over Time</text>
<line x1="72" y1="340.0" x2="770" y2="340.0" stroke="#f3f4f6" stroke-width="1"/>
<text x="66" y="344.0" text-anchor="end" font-size="11" fill="#6b7280">0</text>
<line x1="72" y1="241.7" x2="770" y2="241.7" stroke="#f3f4f6" stroke-width="1"/>
<text x="66" y="245.7" text-anchor="end" font-size="11" fill="#6b7280">500</text>
<line x1="72" y1="143.3" x2="770" y2="143.3" stroke="#f3f4f6" stroke-width="1"/>
<text x="66" y="147.3" text-anchor="end" font-size="11" fill="#6b7280">1.0k</text>
<line x1="72" y1="45.0" x2="770" y2="45.0" stroke="#f3f4f6" stroke-width="1"/>
<text x="66" y="49.0" text-anchor="end" font-size="11" fill="#6b7280">1.5k</text>
<line x1="111.5" y1="45" x2="111.5" y2="340" stroke="#e5e7eb" stroke-width="1" stroke-dasharray="3,3" clip-path="url(#ca)"/>
<line x1="197.1" y1="45" x2="197.1" y2="340" stroke="#e5e7eb" stroke-width="1" stroke-dasharray="3,3" clip-path="url(#ca)"/>
<line x1="286.0" y1="45" x2="286.0" y2="340" stroke="#e5e7eb" stroke-width="1" stroke-dasharray="3,3" clip-path="url(#ca)"/>
<line x1="374.9" y1="45" x2="374.9" y2="340" stroke="#e5e7eb" stroke-width="1" stroke-dasharray="3,3" clip-path="url(#ca)"/>
<line x1="463.8" y1="45" x2="463.8" y2="340" stroke="#e5e7eb" stroke-width="1" stroke-dasharray="3,3" clip-path="url(#ca)"/>
<line x1="549.4" y1="45" x2="549.4" y2="340" stroke="#e5e7eb" stroke-width="1" stroke-dasharray="3,3" clip-path="url(#ca)"/>
<line x1="628.4" y1="45" x2="628.4" y2="340" stroke="#e5e7eb" stroke-width="1" stroke-dasharray="3,3" clip-path="url(#ca)"/>
<line x1="717.3" y1="45" x2="717.3" y2="340" stroke="#e5e7eb" stroke-width="1" stroke-dasharray="3,3" clip-path="url(#ca)"/>
<text x="72.0" y="358.0" text-anchor="middle" font-size="11" fill="#6b7280">Dec 11</text>
<text x="210.3" y="358.0" text-anchor="middle" font-size="11" fill="#6b7280">Feb 5</text>
<text x="351.9" y="358.0" text-anchor="middle" font-size="11" fill="#6b7280">Mar 23</text>
<text x="490.1" y="358.0" text-anchor="middle" font-size="11" fill="#6b7280">May 13</text>
<text x="631.7" y="358.0" text-anchor="middle" font-size="11" fill="#6b7280">Jul 2</text>
<text x="770.0" y="358.0" text-anchor="middle" font-size="11" fill="#6b7280">Aug 18</text>
<line x1="72" y1="45" x2="72" y2="340" stroke="#e5e7eb" stroke-width="1"/>
<line x1="72" y1="340" x2="770" y2="340" stroke="#e5e7eb" stroke-width="1"/>
<text x="-192.5" y="18" text-anchor="middle" font-size="12" fill="#6b7280" transform="rotate(-90)">Extensions</text>
<path d="M 72.0,340 L 72.0,275.1 L 75.3,273.3 L 78.6,273.1 L 81.9,272.3 L 85.2,272.0 L 88.5,270.0 L 91.8,268.8 L 95.0,268.2 L 98.3,267.2 L 101.6,266.1 L 104.9,265.5 L 108.2,265.3 L 111.5,264.7 L 114.8,264.3 L 118.1,264.1 L 121.4,263.5 L 124.7,262.9 L 128.0,262.3 L 131.3,261.7 L 134.6,260.9 L 137.8,260.4 L 141.1,259.8 L 144.4,259.2 L 147.7,258.0 L 151.0,257.6 L 154.3,257.6 L 157.6,256.2 L 160.9,255.8 L 164.2,255.4 L 167.5,255.0 L 170.8,254.1 L 174.1,252.7 L 177.4,252.5 L 180.7,252.3 L 183.9,251.1 L 187.2,250.7 L 190.5,249.7 L 193.8,249.5 L 197.1,249.3 L 200.4,248.9 L 203.7,248.9 L 207.0,248.9 L 210.3,246.2 L 213.6,246.0 L 216.9,245.4 L 220.2,245.2 L 223.5,245.0 L 226.7,244.4 L 230.0,244.0 L 233.3,243.6 L 236.6,242.5 L 239.9,242.5 L 243.2,242.5 L 246.5,242.3 L 249.8,240.3 L 253.1,239.7 L 256.4,239.3 L 259.7,238.7 L 263.0,238.3 L 266.3,238.3 L 269.5,237.3 L 272.8,236.0 L 276.1,235.6 L 279.4,235.4 L 282.7,234.8 L 286.0,234.8 L 289.3,234.4 L 292.6,233.8 L 295.9,233.4 L 299.2,232.6 L 302.5,231.8 L 305.8,231.6 L 309.1,231.6 L 312.3,230.8 L 315.6,230.8 L 318.9,230.8 L 322.2,229.7 L 325.5,229.5 L 328.8,229.3 L 332.1,229.3 L 335.4,229.1 L 338.7,228.3 L 342.0,227.9 L 345.3,227.3 L 348.6,227.3 L 351.9,227.1 L 355.2,226.3 L 358.4,225.7 L 361.7,225.7 L 365.0,225.5 L 368.3,225.1 L 371.6,223.8 L 374.9,223.4 L 378.2,222.8 L 381.5,222.8 L 384.8,222.4 L 388.1,222.2 L 391.4,222.0 L 394.7,221.8 L 398.0,221.6 L 401.2,221.6 L 404.5,221.4 L 407.8,221.2 L 411.1,220.6 L 414.4,219.8 L 417.7,219.6 L 421.0,219.1 L 424.3,219.1 L 427.6,218.3 L 430.9,218.1 L 434.2,218.1 L 437.5,218.1 L 440.8,217.5 L 444.0,217.3 L 447.3,217.3 L 450.6,217.3 L 453.9,217.1 L 457.2,216.3 L 460.5,216.1 L 463.8,215.5 L 467.1,215.1 L 470.4,215.1 L 473.7,214.5 L 477.0,214.1 L 480.3,214.1 L 483.6,213.9 L 486.8,213.0 L 490.1,212.0 L 493.4,211.8 L 496.7,211.4 L 500.0,210.6 L 503.3,210.6 L 506.6,210.2 L 509.9,209.2 L 513.2,207.4 L 516.5,206.9 L 519.8,206.9 L 523.1,206.9 L 526.4,206.9 L 529.7,206.9 L 532.9,206.1 L 536.2,205.5 L 539.5,205.5 L 542.8,205.5 L 546.1,205.5 L 549.4,204.9 L 552.7,204.9 L 556.0,204.3 L 559.3,203.7 L 562.6,203.5 L 565.9,203.3 L 569.2,202.9 L 572.5,202.9 L 575.7,202.3 L 579.0,201.5 L 582.3,201.0 L 585.6,199.8 L 588.9,199.4 L 592.2,199.2 L 595.5,199.0 L 598.8,198.6 L 602.1,198.4 L 605.4,197.4 L 608.7,196.8 L 612.0,195.8 L 615.3,195.6 L 618.5,195.6 L 621.8,195.4 L 625.1,194.7 L 628.4,194.5 L 631.7,194.3 L 635.0,194.1 L 638.3,193.3 L 641.6,193.1 L 644.9,192.1 L 648.2,191.5 L 651.5,191.3 L 654.8,190.1 L 658.1,190.1 L 661.3,190.1 L 664.6,190.1 L 667.9,189.7 L 671.2,189.7 L 674.5,189.6 L 677.8,189.6 L 681.1,189.4 L 684.4,189.2 L 687.7,189.0 L 691.0,188.2 L 694.3,188.0 L 697.6,187.8 L 700.9,187.6 L 704.2,187.4 L 707.4,186.4 L 710.7,185.8 L 714.0,185.2 L 717.3,184.4 L 720.6,184.2 L 723.9,184.2 L 727.2,183.3 L 730.5,182.7 L 733.8,182.7 L 737.1,182.3 L 740.4,182.3 L 743.7,182.3 L 747.0,181.5 L 750.2,181.3 L 753.5,180.5 L 756.8,179.5 L 760.1,179.3 L 763.4,179.1 L 766.7,178.5 L 770.0,177.8 L 770.0,340 Z" fill="url(#g5)" clip-path="url(#ca)"/>
<path d="M 72.0,275.1 L 75.3,273.3 L 78.6,273.1 L 81.9,272.3 L 85.2,272.0 L 88.5,270.0 L 91.8,268.8 L 95.0,268.2 L 98.3,267.2 L 101.6,266.1 L 104.9,265.5 L 108.2,265.3 L 111.5,264.7 L 114.8,264.3 L 118.1,264.1 L 121.4,263.5 L 124.7,262.9 L 128.0,262.3 L 131.3,261.7 L 134.6,260.9 L 137.8,260.4 L 141.1,259.8 L 144.4,259.2 L 147.7,258.0 L 151.0,257.6 L 154.3,257.6 L 157.6,256.2 L 160.9,255.8 L 164.2,255.4 L 167.5,255.0 L 170.8,254.1 L 174.1,252.7 L 177.4,252.5 L 180.7,252.3 L 183.9,251.1 L 187.2,250.7 L 190.5,249.7 L 193.8,249.5 L 197.1,249.3 L 200.4,248.9 L 203.7,248.9 L 207.0,248.9 L 210.3,246.2 L 213.6,246.0 L 216.9,245.4 L 220.2,245.2 L 223.5,245.0 L 226.7,244.4 L 230.0,244.0 L 233.3,243.6 L 236.6,242.5 L 239.9,242.5 L 243.2,242.5 L 246.5,242.3 L 249.8,240.3 L 253.1,239.7 L 256.4,239.3 L 259.7,238.7 L 263.0,238.3 L 266.3,238.3 L 269.5,237.3 L 272.8,236.0 L 276.1,235.6 L 279.4,235.4 L 282.7,234.8 L 286.0,234.8 L 289.3,234.4 L 292.6,233.8 L 295.9,233.4 L 299.2,232.6 L 302.5,231.8 L 305.8,231.6 L 309.1,231.6 L 312.3,230.8 L 315.6,230.8 L 318.9,230.8 L 322.2,229.7 L 325.5,229.5 L 328.8,229.3 L 332.1,229.3 L 335.4,229.1 L 338.7,228.3 L 342.0,227.9 L 345.3,227.3 L 348.6,227.3 L 351.9,227.1 L 355.2,226.3 L 358.4,225.7 L 361.7,225.7 L 365.0,225.5 L 368.3,225.1 L 371.6,223.8 L 374.9,223.4 L 378.2,222.8 L 381.5,222.8 L 384.8,222.4 L 388.1,222.2 L 391.4,222.0 L 394.7,221.8 L 398.0,221.6 L 401.2,221.6 L 404.5,221.4 L 407.8,221.2 L 411.1,220.6 L 414.4,219.8 L 417.7,219.6 L 421.0,219.1 L 424.3,219.1 L 427.6,218.3 L 430.9,218.1 L 434.2,218.1 L 437.5,218.1 L 440.8,217.5 L 444.0,217.3 L 447.3,217.3 L 450.6,217.3 L 453.9,217.1 L 457.2,216.3 L 460.5,216.1 L 463.8,215.5 L 467.1,215.1 L 470.4,215.1 L 473.7,214.5 L 477.0,214.1 L 480.3,214.1 L 483.6,213.9 L 486.8,213.0 L 490.1,212.0 L 493.4,211.8 L 496.7,211.4 L 500.0,210.6 L 503.3,210.6 L 506.6,210.2 L 509.9,209.2 L 513.2,207.4 L 516.5,206.9 L 519.8,206.9 L 523.1,206.9 L 526.4,206.9 L 529.7,206.9 L 532.9,206.1 L 536.2,205.5 L 539.5,205.5 L 542.8,205.5 L 546.1,205.5 L 549.4,204.9 L 552.7,204.9 L 556.0,204.3 L 559.3,203.7 L 562.6,203.5 L 565.9,203.3 L 569.2,202.9 L 572.5,202.9 L 575.7,202.3 L 579.0,201.5 L 582.3,201.0 L 585.6,199.8 L 588.9,199.4 L 592.2,199.2 L 595.5,199.0 L 598.8,198.6 L 602.1,198.4 L 605.4,197.4 L 608.7,196.8 L 612.0,195.8 L 615.3,195.6 L 618.5,195.6 L 621.8,195.4 L 625.1,194.7 L 628.4,194.5 L 631.7,194.3 L 635.0,194.1 L 638.3,193.3 L 641.6,193.1 L 644.9,192.1 L 648.2,191.5 L 651.5,191.3 L 654.8,190.1 L 658.1,190.1 L 661.3,190.1 L 664.6,190.1 L 667.9,189.7 L 671.2,189.7 L 674.5,189.6 L 677.8,189.6 L 681.1,189.4 L 684.4,189.2 L 687.7,189.0 L 691.0,188.2 L 694.3,188.0 L 697.6,187.8 L 700.9,187.6 L 704.2,187.4 L 707.4,186.4 L 710.7,185.8 L 714.0,185.2 L 717.3,184.4 L 720.6,184.2 L 723.9,184.2 L 727.2,183.3 L 730.5,182.7 L 733.8,182.7 L 737.1,182.3 L 740.4,182.3 L 743.7,182.3 L 747.0,181.5 L 750.2,181.3 L 753.5,180.5 L 756.8,179.5 L 760.1,179.3 L 763.4,179.1 L 766.7,178.5 L 770.0,177.8" fill="none" stroke="#34C759" stroke-width="2.5" stroke-linejoin="round" clip-path="url(#ca)"/>
<path d="M 72.0,340 L 72.0,261.7 L 75.3,261.7 L 78.6,261.5 L 81.9,260.9 L 85.2,261.1 L 88.5,261.1 L 91.8,260.4 L 95.0,259.8 L 98.3,259.8 L 101.6,260.0 L 104.9,259.8 L 108.2,259.6 L 111.5,259.4 L 114.8,259.4 L 118.1,259.4 L 121.4,259.6 L 124.7,259.2 L 128.0,258.8 L 131.3,257.6 L 134.6,256.8 L 137.8,256.8 L 141.1,256.6 L 144.4,255.4 L 147.7,253.7 L 151.0,253.1 L 154.3,252.7 L 157.6,251.3 L 160.9,250.3 L 164.2,249.9 L 167.5,249.5 L 170.8,249.1 L 174.1,248.9 L 177.4,248.9 L 180.7,247.6 L 183.9,247.2 L 187.2,246.8 L 190.5,246.8 L 193.8,245.8 L 197.1,245.6 L 200.4,245.0 L 203.7,244.2 L 207.0,243.2 L 210.3,241.9 L 213.6,240.5 L 216.9,240.3 L 220.2,239.9 L 223.5,239.5 L 226.7,238.3 L 230.0,238.3 L 233.3,237.9 L 236.6,237.3 L 239.9,236.9 L 243.2,236.2 L 246.5,236.4 L 249.8,234.0 L 253.1,233.8 L 256.4,233.6 L 259.7,233.2 L 263.0,232.0 L 266.3,232.0 L 269.5,230.8 L 272.8,229.5 L 276.1,229.5 L 279.4,229.5 L 282.7,229.3 L 286.0,229.1 L 289.3,228.9 L 292.6,227.9 L 295.9,226.7 L 299.2,226.3 L 302.5,225.5 L 305.8,225.5 L 309.1,224.9 L 312.3,223.8 L 315.6,223.2 L 318.9,223.0 L 322.2,221.6 L 325.5,221.4 L 328.8,221.4 L 332.1,221.2 L 335.4,221.2 L 338.7,220.2 L 342.0,219.8 L 345.3,219.2 L 348.6,219.1 L 351.9,218.7 L 355.2,217.1 L 358.4,214.9 L 361.7,214.7 L 365.0,214.3 L 368.3,214.1 L 371.6,213.2 L 374.9,192.3 L 378.2,191.9 L 381.5,190.9 L 384.8,190.9 L 388.1,190.9 L 391.4,191.1 L 394.7,190.9 L 398.0,189.7 L 401.2,189.4 L 404.5,189.2 L 407.8,189.0 L 411.1,188.2 L 414.4,187.0 L 417.7,187.0 L 421.0,187.0 L 424.3,186.8 L 427.6,186.6 L 430.9,186.6 L 434.2,186.2 L 437.5,185.6 L 440.8,184.6 L 444.0,184.2 L 447.3,184.0 L 450.6,184.0 L 453.9,183.8 L 457.2,183.5 L 460.5,183.3 L 463.8,182.3 L 467.1,182.3 L 470.4,181.9 L 473.7,181.1 L 477.0,180.1 L 480.3,179.9 L 483.6,179.7 L 486.8,177.9 L 490.1,177.6 L 493.4,177.2 L 496.7,177.2 L 500.0,176.4 L 503.3,176.0 L 506.6,175.0 L 509.9,174.6 L 513.2,174.0 L 516.5,173.8 L 519.8,173.0 L 523.1,172.4 L 526.4,172.2 L 529.7,171.9 L 532.9,171.1 L 536.2,170.7 L 539.5,170.1 L 542.8,169.7 L 546.1,169.5 L 549.4,169.1 L 552.7,168.5 L 556.0,168.1 L 559.3,167.7 L 562.6,167.1 L 565.9,167.1 L 569.2,166.7 L 572.5,165.8 L 575.7,164.8 L 579.0,164.2 L 582.3,164.4 L 585.6,164.0 L 588.9,163.8 L 592.2,163.6 L 595.5,163.2 L 598.8,162.2 L 602.1,162.2 L 605.4,162.0 L 608.7,161.4 L 612.0,160.8 L 615.3,160.1 L 618.5,159.7 L 621.8,159.7 L 625.1,159.1 L 628.4,158.7 L 631.7,158.3 L 635.0,157.7 L 638.3,157.3 L 641.6,157.3 L 644.9,157.1 L 648.2,157.5 L 651.5,157.1 L 654.8,156.1 L 658.1,155.5 L 661.3,155.1 L 664.6,154.7 L 667.9,154.0 L 671.2,152.6 L 674.5,152.4 L 677.8,152.0 L 681.1,151.4 L 684.4,151.4 L 687.7,150.8 L 691.0,149.8 L 694.3,148.4 L 697.6,147.9 L 700.9,147.9 L 704.2,146.5 L 707.4,145.5 L 710.7,145.1 L 714.0,144.7 L 717.3,144.3 L 720.6,144.3 L 723.9,143.1 L 727.2,142.5 L 730.5,141.6 L 733.8,141.2 L 737.1,141.2 L 740.4,141.2 L 743.7,141.0 L 747.0,140.6 L 750.2,140.8 L 753.5,140.4 L 756.8,139.6 L 760.1,138.8 L 763.4,138.8 L 766.7,138.2 L 770.0,137.6 L 770.0,340 Z" fill="url(#g6)" clip-path="url(#ca)"/>
<path d="M 72.0,261.7 L 75.3,261.7 L 78.6,261.5 L 81.9,260.9 L 85.2,261.1 L 88.5,261.1 L 91.8,260.4 L 95.0,259.8 L 98.3,259.8 L 101.6,260.0 L 104.9,259.8 L 108.2,259.6 L 111.5,259.4 L 114.8,259.4 L 118.1,259.4 L 121.4,259.6 L 124.7,259.2 L 128.0,258.8 L 131.3,257.6 L 134.6,256.8 L 137.8,256.8 L 141.1,256.6 L 144.4,255.4 L 147.7,253.7 L 151.0,253.1 L 154.3,252.7 L 157.6,251.3 L 160.9,250.3 L 164.2,249.9 L 167.5,249.5 L 170.8,249.1 L 174.1,248.9 L 177.4,248.9 L 180.7,247.6 L 183.9,247.2 L 187.2,246.8 L 190.5,246.8 L 193.8,245.8 L 197.1,245.6 L 200.4,245.0 L 203.7,244.2 L 207.0,243.2 L 210.3,241.9 L 213.6,240.5 L 216.9,240.3 L 220.2,239.9 L 223.5,239.5 L 226.7,238.3 L 230.0,238.3 L 233.3,237.9 L 236.6,237.3 L 239.9,236.9 L 243.2,236.2 L 246.5,236.4 L 249.8,234.0 L 253.1,233.8 L 256.4,233.6 L 259.7,233.2 L 263.0,232.0 L 266.3,232.0 L 269.5,230.8 L 272.8,229.5 L 276.1,229.5 L 279.4,229.5 L 282.7,229.3 L 286.0,229.1 L 289.3,228.9 L 292.6,227.9 L 295.9,226.7 L 299.2,226.3 L 302.5,225.5 L 305.8,225.5 L 309.1,224.9 L 312.3,223.8 L 315.6,223.2 L 318.9,223.0 L 322.2,221.6 L 325.5,221.4 L 328.8,221.4 L 332.1,221.2 L 335.4,221.2 L 338.7,220.2 L 342.0,219.8 L 345.3,219.2 L 348.6,219.1 L 351.9,218.7 L 355.2,217.1 L 358.4,214.9 L 361.7,214.7 L 365.0,214.3 L 368.3,214.1 L 371.6,213.2 L 374.9,192.3 L 378.2,191.9 L 381.5,190.9 L 384.8,190.9 L 388.1,190.9 L 391.4,191.1 L 394.7,190.9 L 398.0,189.7 L 401.2,189.4 L 404.5,189.2 L 407.8,189.0 L 411.1,188.2 L 414.4,187.0 L 417.7,187.0 L 421.0,187.0 L 424.3,186.8 L 427.6,186.6 L 430.9,186.6 L 434.2,186.2 L 437.5,185.6 L 440.8,184.6 L 444.0,184.2 L 447.3,184.0 L 450.6,184.0 L 453.9,183.8 L 457.2,183.5 L 460.5,183.3 L 463.8,182.3 L 467.1,182.3 L 470.4,181.9 L 473.7,181.1 L 477.0,180.1 L 480.3,179.9 L 483.6,179.7 L 486.8,177.9 L 490.1,177.6 L 493.4,177.2 L 496.7,177.2 L 500.0,176.4 L 503.3,176.0 L 506.6,175.0 L 509.9,174.6 L 513.2,174.0 L 516.5,173.8 L 519.8,173.0 L 523.1,172.4 L 526.4,172.2 L 529.7,171.9 L 532.9,171.1 L 536.2,170.7 L 539.5,170.1 L 542.8,169.7 L 546.1,169.5 L 549.4,169.1 L 552.7,168.5 L 556.0,168.1 L 559.3,167.7 L 562.6,167.1 L 565.9,167.1 L 569.2,166.7 L 572.5,165.8 L 575.7,164.8 L 579.0,164.2 L 582.3,164.4 L 585.6,164.0 L 588.9,163.8 L 592.2,163.6 L 595.5,163.2 L 598.8,162.2 L 602.1,162.2 L 605.4,162.0 L 608.7,161.4 L 612.0,160.8 L 615.3,160.1 L 618.5,159.7 L 621.8,159.7 L 625.1,159.1 L 628.4,158.7 L 631.7,158.3 L 635.0,157.7 L 638.3,157.3 L 641.6,157.3 L 644.9,157.1 L 648.2,157.5 L 651.5,157.1 L 654.8,156.1 L 658.1,155.5 L 661.3,155.1 L 664.6,154.7 L 667.9,154.0 L 671.2,152.6 L 674.5,152.4 L 677.8,152.0 L 681.1,151.4 L 684.4,151.4 L 687.7,150.8 L 691.0,149.8 L 694.3,148.4 L 697.6,147.9 L 700.9,147.9 L 704.2,146.5 L 707.4,145.5 L 710.7,145.1 L 714.0,144.7 L 717.3,144.3 L 720.6,144.3 L 723.9,143.1 L 727.2,142.5 L 730.5,141.6 L 733.8,141.2 L 737.1,141.2 L 740.4,141.2 L 743.7,141.0 L 747.0,140.6 L 750.2,140.8 L 753.5,140.4 L 756.8,139.6 L 760.1,138.8 L 763.4,138.8 L 766.7,138.2 L 770.0,137.6" fill="none" stroke="#4F8EF7" stroke-width="2.5" stroke-linejoin="round" clip-path="url(#ca)"/>
<path d="M 72.0,340 L 72.0,338.8 L 75.3,338.6 L 78.6,338.6 L 81.9,338.4 L 85.2,338.4 L 88.5,338.4 L 91.8,338.4 L 95.0,338.4 L 98.3,338.0 L 101.6,338.0 L 104.9,338.0 L 108.2,338.0 L 111.5,338.0 L 114.8,337.8 L 118.1,337.8 L 121.4,337.8 L 124.7,337.8 L 128.0,337.8 L 131.3,337.6 L 134.6,337.2 L 137.8,337.1 L 141.1,337.1 L 144.4,337.1 L 147.7,336.9 L 151.0,336.9 L 154.3,336.9 L 157.6,336.7 L 160.9,336.7 L 164.2,336.7 L 167.5,336.5 L 170.8,336.5 L 174.1,336.5 L 177.4,336.5 L 180.7,336.3 L 183.9,336.3 L 187.2,336.3 L 190.5,336.3 L 193.8,336.3 L 197.1,336.3 L 200.4,336.3 L 203.7,336.3 L 207.0,336.3 L 210.3,336.3 L 213.6,336.3 L 216.9,336.3 L 220.2,336.3 L 223.5,336.1 L 226.7,336.1 L 230.0,336.1 L 233.3,336.1 L 236.6,336.1 L 239.9,336.1 L 243.2,336.1 L 246.5,336.1 L 249.8,336.1 L 253.1,336.1 L 256.4,336.1 L 259.7,336.1 L 263.0,335.9 L 266.3,335.9 L 269.5,335.9 L 272.8,335.9 L 276.1,335.9 L 279.4,335.9 L 282.7,335.9 L 286.0,335.9 L 289.3,335.9 L 292.6,335.9 L 295.9,335.9 L 299.2,335.9 L 302.5,335.9 L 305.8,335.9 L 309.1,335.9 L 312.3,335.9 L 315.6,335.9 L 318.9,335.9 L 322.2,335.9 L 325.5,335.9 L 328.8,335.9 L 332.1,335.9 L 335.4,335.9 L 338.7,335.9 L 342.0,335.9 L 345.3,335.9 L 348.6,335.9 L 351.9,335.9 L 355.2,335.9 L 358.4,335.9 L 361.7,335.9 L 365.0,335.9 L 368.3,335.9 L 371.6,335.9 L 374.9,335.9 L 378.2,335.9 L 381.5,335.7 L 384.8,335.7 L 388.1,335.7 L 391.4,335.7 L 394.7,335.7 L 398.0,335.5 L 401.2,335.5 L 404.5,335.5 L 407.8,335.5 L 411.1,335.3 L 414.4,335.3 L 417.7,335.1 L 421.0,335.1 L 424.3,335.1 L 427.6,335.1 L 430.9,335.1 L 434.2,335.1 L 437.5,335.1 L 440.8,335.1 L 444.0,335.1 L 447.3,335.1 L 450.6,335.1 L 453.9,335.1 L 457.2,335.1 L 460.5,335.1 L 463.8,335.1 L 467.1,335.1 L 470.4,335.1 L 473.7,335.1 L 477.0,335.1 L 480.3,335.1 L 483.6,335.1 L 486.8,335.1 L 490.1,335.1 L 493.4,335.1 L 496.7,335.1 L 500.0,335.1 L 503.3,335.1 L 506.6,335.1 L 509.9,335.1 L 513.2,335.1 L 516.5,335.1 L 519.8,335.1 L 523.1,335.1 L 526.4,335.1 L 529.7,335.1 L 532.9,335.1 L 536.2,335.1 L 539.5,335.1 L 542.8,335.1 L 546.1,335.1 L 549.4,335.1 L 552.7,335.1 L 556.0,335.1 L 559.3,335.1 L 562.6,335.1 L 565.9,335.1 L 569.2,335.1 L 572.5,335.1 L 575.7,334.9 L 579.0,334.9 L 582.3,334.9 L 585.6,334.9 L 588.9,334.9 L 592.2,334.9 L 595.5,334.9 L 598.8,334.9 L 602.1,334.9 L 605.4,334.9 L 608.7,334.9 L 612.0,334.7 L 615.3,334.7 L 618.5,334.7 L 621.8,334.7 L 625.1,334.7 L 628.4,334.7 L 631.7,334.7 L 635.0,334.7 L 638.3,334.7 L 641.6,334.7 L 644.9,334.7 L 648.2,334.7 L 651.5,334.7 L 654.8,334.7 L 658.1,334.5 L 661.3,334.5 L 664.6,334.5 L 667.9,334.5 L 671.2,334.5 L 674.5,334.5 L 677.8,334.5 L 681.1,334.5 L 684.4,334.5 L 687.7,334.5 L 691.0,334.5 L 694.3,334.5 L 697.6,334.3 L 700.9,334.3 L 704.2,334.3 L 707.4,334.3 L 710.7,334.1 L 714.0,334.1 L 717.3,333.9 L 720.6,333.9 L 723.9,333.7 L 727.2,333.7 L 730.5,333.7 L 733.8,333.7 L 737.1,333.7 L 740.4,333.7 L 743.7,333.7 L 747.0,333.7 L 750.2,333.7 L 753.5,333.7 L 756.8,333.7 L 760.1,333.7 L 763.4,333.7 L 766.7,333.7 L 770.0,333.7 L 770.0,340 Z" fill="url(#g7)" clip-path="url(#ca)"/>
<path d="M 72.0,338.8 L 75.3,338.6 L 78.6,338.6 L 81.9,338.4 L 85.2,338.4 L 88.5,338.4 L 91.8,338.4 L 95.0,338.4 L 98.3,338.0 L 101.6,338.0 L 104.9,338.0 L 108.2,338.0 L 111.5,338.0 L 114.8,337.8 L 118.1,337.8 L 121.4,337.8 L 124.7,337.8 L 128.0,337.8 L 131.3,337.6 L 134.6,337.2 L 137.8,337.1 L 141.1,337.1 L 144.4,337.1 L 147.7,336.9 L 151.0,336.9 L 154.3,336.9 L 157.6,336.7 L 160.9,336.7 L 164.2,336.7 L 167.5,336.5 L 170.8,336.5 L 174.1,336.5 L 177.4,336.5 L 180.7,336.3 L 183.9,336.3 L 187.2,336.3 L 190.5,336.3 L 193.8,336.3 L 197.1,336.3 L 200.4,336.3 L 203.7,336.3 L 207.0,336.3 L 210.3,336.3 L 213.6,336.3 L 216.9,336.3 L 220.2,336.3 L 223.5,336.1 L 226.7,336.1 L 230.0,336.1 L 233.3,336.1 L 236.6,336.1 L 239.9,336.1 L 243.2,336.1 L 246.5,336.1 L 249.8,336.1 L 253.1,336.1 L 256.4,336.1 L 259.7,336.1 L 263.0,335.9 L 266.3,335.9 L 269.5,335.9 L 272.8,335.9 L 276.1,335.9 L 279.4,335.9 L 282.7,335.9 L 286.0,335.9 L 289.3,335.9 L 292.6,335.9 L 295.9,335.9 L 299.2,335.9 L 302.5,335.9 L 305.8,335.9 L 309.1,335.9 L 312.3,335.9 L 315.6,335.9 L 318.9,335.9 L 322.2,335.9 L 325.5,335.9 L 328.8,335.9 L 332.1,335.9 L 335.4,335.9 L 338.7,335.9 L 342.0,335.9 L 345.3,335.9 L 348.6,335.9 L 351.9,335.9 L 355.2,335.9 L 358.4,335.9 L 361.7,335.9 L 365.0,335.9 L 368.3,335.9 L 371.6,335.9 L 374.9,335.9 L 378.2,335.9 L 381.5,335.7 L 384.8,335.7 L 388.1,335.7 L 391.4,335.7 L 394.7,335.7 L 398.0,335.5 L 401.2,335.5 L 404.5,335.5 L 407.8,335.5 L 411.1,335.3 L 414.4,335.3 L 417.7,335.1 L 421.0,335.1 L 424.3,335.1 L 427.6,335.1 L 430.9,335.1 L 434.2,335.1 L 437.5,335.1 L 440.8,335.1 L 444.0,335.1 L 447.3,335.1 L 450.6,335.1 L 453.9,335.1 L 457.2,335.1 L 460.5,335.1 L 463.8,335.1 L 467.1,335.1 L 470.4,335.1 L 473.7,335.1 L 477.0,335.1 L 480.3,335.1 L 483.6,335.1 L 486.8,335.1 L 490.1,335.1 L 493.4,335.1 L 496.7,335.1 L 500.0,335.1 L 503.3,335.1 L 506.6,335.1 L 509.9,335.1 L 513.2,335.1 L 516.5,335.1 L 519.8,335.1 L 523.1,335.1 L 526.4,335.1 L 529.7,335.1 L 532.9,335.1 L 536.2,335.1 L 539.5,335.1 L 542.8,335.1 L 546.1,335.1 L 549.4,335.1 L 552.7,335.1 L 556.0,335.1 L 559.3,335.1 L 562.6,335.1 L 565.9,335.1 L 569.2,335.1 L 572.5,335.1 L 575.7,334.9 L 579.0,334.9 L 582.3,334.9 L 585.6,334.9 L 588.9,334.9 L 592.2,334.9 L 595.5,334.9 L 598.8,334.9 L 602.1,334.9 L 605.4,334.9 L 608.7,334.9 L 612.0,334.7 L 615.3,334.7 L 618.5,334.7 L 621.8,334.7 L 625.1,334.7 L 628.4,334.7 L 631.7,334.7 L 635.0,334.7 L 638.3,334.7 L 641.6,334.7 L 644.9,334.7 L 648.2,334.7 L 651.5,334.7 L 654.8,334.7 L 658.1,334.5 L 661.3,334.5 L 664.6,334.5 L 667.9,334.5 L 671.2,334.5 L 674.5,334.5 L 677.8,334.5 L 681.1,334.5 L 684.4,334.5 L 687.7,334.5 L 691.0,334.5 L 694.3,334.5 L 697.6,334.3 L 700.9,334.3 L 704.2,334.3 L 707.4,334.3 L 710.7,334.1 L 714.0,334.1 L 717.3,333.9 L 720.6,333.9 L 723.9,333.7 L 727.2,333.7 L 730.5,333.7 L 733.8,333.7 L 737.1,333.7 L 740.4,333.7 L 743.7,333.7 L 747.0,333.7 L 750.2,333.7 L 753.5,333.7 L 756.8,333.7 L 760.1,333.7 L 763.4,333.7 L 766.7,333.7 L 770.0,333.7" fill="none" stroke="#FF6363" stroke-width="2.5" stroke-linejoin="round" clip-path="url(#ca)"/>
<text x="90.1" y="55.0" text-anchor="middle" font-size="9" fill="#34C759" opacity="0.85" clip-path="url(#ca)">+15.2% (+50)</text>
<text x="90.1" y="66.0" text-anchor="middle" font-size="9" fill="#4F8EF7" opacity="0.85" clip-path="url(#ca)">+2.8% (+11)</text>
<text x="90.1" y="77.0" text-anchor="middle" font-size="9" fill="#FF6363" opacity="0.85" clip-path="url(#ca)">+66.7% (+4)</text>
<text x="152.7" y="55.0" text-anchor="middle" font-size="9" fill="#34C759" opacity="0.85" clip-path="url(#ca)">+20.1% (+77)</text>
<text x="152.7" y="66.0" text-anchor="middle" font-size="9" fill="#4F8EF7" opacity="0.85" clip-path="url(#ca)">+16.8% (+69)</text>
<text x="152.7" y="77.0" text-anchor="middle" font-size="9" fill="#FF6363" opacity="0.85" clip-path="url(#ca)">+90.0% (+9)</text>
<text x="239.9" y="55.0" text-anchor="middle" font-size="9" fill="#34C759" opacity="0.85" clip-path="url(#ca)">+16.1% (+74)</text>
<text x="239.9" y="66.0" text-anchor="middle" font-size="9" fill="#4F8EF7" opacity="0.85" clip-path="url(#ca)">+17.3% (+83)</text>
<text x="239.9" y="77.0" text-anchor="middle" font-size="9" fill="#FF6363" opacity="0.85" clip-path="url(#ca)">+10.5% (+2)</text>
<text x="328.8" y="55.0" text-anchor="middle" font-size="9" fill="#34C759" opacity="0.85" clip-path="url(#ca)">+10.5% (+56)</text>
<text x="328.8" y="66.0" text-anchor="middle" font-size="9" fill="#4F8EF7" opacity="0.85" clip-path="url(#ca)">+14.4% (+81)</text>
<text x="328.8" y="77.0" text-anchor="middle" font-size="9" fill="#FF6363" opacity="0.85" clip-path="url(#ca)">+0.0% (+0)</text>
<text x="417.7" y="55.0" text-anchor="middle" font-size="9" fill="#34C759" opacity="0.85" clip-path="url(#ca)">+6.2% (+37)</text>
<text x="417.7" y="66.0" text-anchor="middle" font-size="9" fill="#4F8EF7" opacity="0.85" clip-path="url(#ca)">+6.1% (+46)</text>
<text x="417.7" y="77.0" text-anchor="middle" font-size="9" fill="#FF6363" opacity="0.85" clip-path="url(#ca)">+19.0% (+4)</text>
<text x="505.0" y="55.0" text-anchor="middle" font-size="9" fill="#34C759" opacity="0.85" clip-path="url(#ca)">+8.1% (+51)</text>
<text x="505.0" y="66.0" text-anchor="middle" font-size="9" fill="#4F8EF7" opacity="0.85" clip-path="url(#ca)">+8.1% (+65)</text>
<text x="505.0" y="77.0" text-anchor="middle" font-size="9" fill="#FF6363" opacity="0.85" clip-path="url(#ca)">+0.0% (+0)</text>
<text x="587.3" y="55.0" text-anchor="middle" font-size="9" fill="#34C759" opacity="0.85" clip-path="url(#ca)">+7.6% (+52)</text>
<text x="587.3" y="66.0" text-anchor="middle" font-size="9" fill="#4F8EF7" opacity="0.85" clip-path="url(#ca)">+5.9% (+51)</text>
<text x="587.3" y="77.0" text-anchor="middle" font-size="9" fill="#FF6363" opacity="0.85" clip-path="url(#ca)">+8.0% (+2)</text>
<text x="671.2" y="55.0" text-anchor="middle" font-size="9" fill="#34C759" opacity="0.85" clip-path="url(#ca)">+6.4% (+47)</text>
<text x="671.2" y="66.0" text-anchor="middle" font-size="9" fill="#4F8EF7" opacity="0.85" clip-path="url(#ca)">+7.7% (+71)</text>
<text x="671.2" y="77.0" text-anchor="middle" font-size="9" fill="#FF6363" opacity="0.85" clip-path="url(#ca)">+11.1% (+3)</text>
<text x="743.7" y="55.0" text-anchor="middle" font-size="9" fill="#34C759" opacity="0.85" clip-path="url(#ca)">+4.3% (+34)</text>
<text x="743.7" y="66.0" text-anchor="middle" font-size="9" fill="#4F8EF7" opacity="0.85" clip-path="url(#ca)">+3.4% (+34)</text>
<text x="743.7" y="77.0" text-anchor="middle" font-size="9" fill="#FF6363" opacity="0.85" clip-path="url(#ca)">+3.2% (+1)</text>
<rect x="211" y="369" width="12" height="12" fill="#34C759" rx="2"/>
<text x="227" y="379" font-size="12" fill="#111827">macOS + Windows</text>
<rect x="351" y="369" width="12" height="12" fill="#4F8EF7" rx="2"/>
<text x="367" y="379" font-size="12" fill="#111827">macOS only</text>
<rect x="491" y="369" width="12" height="12" fill="#FF6363" rx="2"/>
<text x="507" y="379" font-size="12" fill="#111827">Windows only</text>
<text x="72" y="394" font-size="8" fill="#e5e7eb">data since Dec 11, 2025</text>
</svg>