<svg xmlns="http://www.w3.org/2000/svg" width="800" height="400" viewBox="0 0 800 400">
<defs><style>text { font-family: -apple-system, BlinkMacSystemFont, 'Segoe UI', Roboto, sans-serif; }</style></defs>
<rect width="800" height="400" fill="#ffffff" rx="12"/>
<text x="400" y="26" text-anchor="middle" font-size="15" font-weight="600" fill="#111827">Package Updates by Quarter</text>
<text x="400" y="44" text-anchor="middle" font-size="11" fill="#6b7280">last updated at · 2,682 packages with a known last-update date</text>
<line x1="60" y1="58" x2="60" y2="320" stroke="#e5e7eb" stroke-width="1"/>
<line x1="60" y1="320" x2="770" y2="320" stroke="#e5e7eb" stroke-width="1"/>
<text x="-189" y="18" text-anchor="middle" font-size="12" fill="#6b7280" transform="rotate(-90)">Number of packages</text>
<line x1="60" y1="320.0" x2="770" y2="320.0" stroke="#f3f4f6" stroke-width="1"/>
<text x="54" y="324.0" text-anchor="end" font-size="11" fill="#6b7280">0</text>
<line x1="60" y1="267.5" x2="770" y2="267.5" stroke="#f3f4f6" stroke-width="1"/>
<text x="54" y="271.5" text-anchor="end" font-size="11" fill="#6b7280">115</text>
<line x1="60" y1="215.0" x2="770" y2="215.0" stroke="#f3f4f6" stroke-width="1"/>
<text x="54" y="219.0" text-anchor="end" font-size="11" fill="#6b7280">230</text>
<line x1="60" y1="163.0" x2="770" y2="163.0" stroke="#f3f4f6" stroke-width="1"/>
<text x="54" y="167.0" text-anchor="end" font-size="11" fill="#6b7280">344</text>
<line x1="60" y1="110.5" x2="770" y2="110.5" stroke="#f3f4f6" stroke-width="1"/>
<text x="54" y="114.5" text-anchor="end" font-size="11" fill="#6b7280">459</text>
<line x1="60" y1="58.0" x2="770" y2="58.0" stroke="#f3f4f6" stroke-width="1"/>
<text x="54" y="62.0" text-anchor="end" font-size="11" fill="#6b7280">574</text>
<rect x="67.3" y="317.7" width="27.1" height="2.3" fill="#34C759" rx="3" opacity="0.85"/>
<text x="80.9" y="301.7" text-anchor="middle" font-size="10" fill="#6b7280">5</text>
<text x="80.9" y="313.7" text-anchor="middle" font-size="10" fill="#6b7280">(0.19%)</text>
<g transform="translate(80.9,330.0) rotate(-45)"><text text-anchor="end" font-size="10" fill="#111827">2022-Q1</text></g>
<rect x="109.1" y="299.5" width="27.1" height="20.5" fill="#34C759" rx="3" opacity="0.85"/>
<text x="122.6" y="283.5" text-anchor="middle" font-size="10" fill="#6b7280">45</text>
<text x="122.6" y="295.5" text-anchor="middle" font-size="10" fill="#6b7280">(1.68%)</text>
<g transform="translate(122.6,330.0) rotate(-45)"><text text-anchor="end" font-size="10" fill="#111827">2022-Q2</text></g>
<rect x="150.8" y="296.7" width="27.1" height="23.3" fill="#34C759" rx="3" opacity="0.85"/>
<text x="164.4" y="280.7" text-anchor="middle" font-size="10" fill="#6b7280">51</text>
<text x="164.4" y="292.7" text-anchor="middle" font-size="10" fill="#6b7280">(1.90%)</text>
<g transform="translate(164.4,330.0) rotate(-45)"><text text-anchor="end" font-size="10" fill="#111827">2022-Q3</text></g>
<rect x="192.6" y="287.1" width="27.1" height="32.9" fill="#34C759" rx="3" opacity="0.85"/>
<text x="206.2" y="271.1" text-anchor="middle" font-size="10" fill="#6b7280">72</text>
<text x="206.2" y="283.1" text-anchor="middle" font-size="10" fill="#6b7280">(2.68%)</text>
<g transform="translate(206.2,330.0) rotate(-45)"><text text-anchor="end" font-size="10" fill="#111827">2022-Q4</text></g>
<rect x="234.4" y="277.6" width="27.1" height="42.4" fill="#34C759" rx="3" opacity="0.85"/>
<text x="247.9" y="261.6" text-anchor="middle" font-size="10" fill="#6b7280">93</text>
<text x="247.9" y="273.6" text-anchor="middle" font-size="10" fill="#6b7280">(3.47%)</text>
<g transform="translate(247.9,330.0) rotate(-45)"><text text-anchor="end" font-size="10" fill="#111827">2023-Q1</text></g>
<rect x="276.1" y="277.6" width="27.1" height="42.4" fill="#34C759" rx="3" opacity="0.85"/>
<text x="289.7" y="261.6" text-anchor="middle" font-size="10" fill="#6b7280">93</text>
<text x="289.7" y="273.6" text-anchor="middle" font-size="10" fill="#6b7280">(3.47%)</text>
<g transform="translate(289.7,330.0) rotate(-45)"><text text-anchor="end" font-size="10" fill="#111827">2023-Q2</text></g>
<rect x="317.9" y="278.9" width="27.1" height="41.1" fill="#34C759" rx="3" opacity="0.85"/>
<text x="331.5" y="262.9" text-anchor="middle" font-size="10" fill="#6b7280">90</text>
<text x="331.5" y="274.9" text-anchor="middle" font-size="10" fill="#6b7280">(3.36%)</text>
<g transform="translate(331.5,330.0) rotate(-45)"><text text-anchor="end" font-size="10" fill="#111827">2023-Q3</text></g>
<rect x="359.7" y="287.6" width="27.1" height="32.4" fill="#34C759" rx="3" opacity="0.85"/>
<text x="373.2" y="271.6" text-anchor="middle" font-size="10" fill="#6b7280">71</text>
<text x="373.2" y="283.6" text-anchor="middle" font-size="10" fill="#6b7280">(2.65%)</text>
<g transform="translate(373.2,330.0) rotate(-45)"><text text-anchor="end" font-size="10" fill="#111827">2023-Q4</text></g>
<rect x="401.4" y="262.0" width="27.1" height="58.0" fill="#34C759" rx="3" opacity="0.85"/>
<text x="415.0" y="246.0" text-anchor="middle" font-size="10" fill="#6b7280">127</text>
<text x="415.0" y="258.0" text-anchor="middle" font-size="10" fill="#6b7280">(4.74%)</text>
<g transform="translate(415.0,330.0) rotate(-45)"><text text-anchor="end" font-size="10" fill="#111827">2024-Q1</text></g>
<rect x="443.2" y="257.0" width="27.1" height="63.0" fill="#34C759" rx="3" opacity="0.85"/>
<text x="456.8" y="241.0" text-anchor="middle" font-size="10" fill="#6b7280">138</text>
<text x="456.8" y="253.0" text-anchor="middle" font-size="10" fill="#6b7280">(5.15%)</text>
<g transform="translate(456.8,330.0) rotate(-45)"><text text-anchor="end" font-size="10" fill="#111827">2024-Q2</text></g>
<rect x="485.0" y="257.0" width="27.1" height="63.0" fill="#34C759" rx="3" opacity="0.85"/>
<text x="498.5" y="241.0" text-anchor="middle" font-size="10" fill="#6b7280">138</text>
<text x="498.5" y="253.0" text-anchor="middle" font-size="10" fill="#6b7280">(5.15%)</text>
<g transform="translate(498.5,330.0) rotate(-45)"><text text-anchor="end" font-size="10" fill="#111827">2024-Q3</text></g>
<rect x="526.7" y="256.6" width="27.1" height="63.4" fill="#34C759" rx="3" opacity="0.85"/>
<text x="540.3" y="240.6" text-anchor="middle" font-size="10" fill="#6b7280">139</text>
<text x="540.3" y="252.6" text-anchor="middle" font-size="10" fill="#6b7280">(5.18%)</text>
<g transform="translate(540.3,330.0) rotate(-45)"><text text-anchor="end" font-size="10" fill="#111827">2024-Q4</text></g>
<rect x="568.5" y="220.0" width="27.1" height="100.0" fill="#34C759" rx="3" opacity="0.85"/>
<text x="582.1" y="204.0" text-anchor="middle" font-size="10" fill="#6b7280">219</text>
<text x="582.1" y="216.0" text-anchor="middle" font-size="10" fill="#6b7280">(8.17%)</text>
<g transform="translate(582.1,330.0) rotate(-45)"><text text-anchor="end" font-size="10" fill="#111827">2025-Q1</text></g>
<rect x="610.3" y="210.0" width="27.1" height="110.0" fill="#34C759" rx="3" opacity="0.85"/>
<text x="623.8" y="194.0" text-anchor="middle" font-size="10" fill="#6b7280">241</text>
<text x="623.8" y="206.0" text-anchor="middle" font-size="10" fill="#6b7280">(8.99%)</text>
<g transform="translate(623.8,330.0) rotate(-45)"><text text-anchor="end" font-size="10" fill="#111827">2025-Q2</text></g>
<rect x="652.0" y="212.7" width="27.1" height="107.3" fill="#34C759" rx="3" opacity="0.85"/>
<text x="665.6" y="196.7" text-anchor="middle" font-size="10" fill="#6b7280">235</text>
<text x="665.6" y="208.7" text-anchor="middle" font-size="10" fill="#6b7280">(8.76%)</text>
<g transform="translate(665.6,330.0) rotate(-45)"><text text-anchor="end" font-size="10" fill="#111827">2025-Q3</text></g>
<rect x="693.8" y="159.8" width="27.1" height="160.2" fill="#34C759" rx="3" opacity="0.85"/>
<text x="707.4" y="143.8" text-anchor="middle" font-size="10" fill="#6b7280">351</text>
<text x="707.4" y="155.8" text-anchor="middle" font-size="10" fill="#6b7280">(13.09%)</text>
<g transform="translate(707.4,330.0) rotate(-45)"><text text-anchor="end" font-size="10" fill="#111827">2025-Q4</text></g>
<rect x="735.5" y="58.0" width="27.1" height="262.0" fill="#34C759" rx="3" opacity="0.85"/>
<text x="749.1" y="72.0" text-anchor="middle" font-size="10" fill="#6b7280">574</text>
<text x="749.1" y="84.0" text-anchor="middle" font-size="10" fill="#6b7280">(21.40%)</text>
<g transform="translate(749.1,330.0) rotate(-45)"><text text-anchor="end" font-size="10" fill="#111827">2026-Q1</text></g>
</svg>