<svg xmlns="http://www.w3.org/2000/svg" width="800" height="400" viewBox="0 0 800 400">
<defs>
  <style>text { font-family: -apple-system, BlinkMacSystemFont, 'Segoe UI', Roboto, sans-serif; }</style>
  <linearGradient id="g2" x1="0" y1="0" x2="0" y2="1">
  <stop offset="0%" stop-color="#4F8EF7" stop-opacity="0.25"/>
  <stop offset="100%" stop-color="#4F8EF7" stop-opacity="0"/>
</linearGradient>
<linearGradient id="g3" x1="0" y1="0" x2="0" y2="1">
  <stop offset="0%" stop-color="#BF5AF2" stop-opacity="0.25"/>
  <stop offset="100%" stop-color="#BF5AF2" stop-opacity="0"/>
</linearGradient>
<linearGradient id="g4" x1="0" y1="0" x2="0" y2="1">
  <stop offset="0%" stop-color="#34C759" stop-opacity="0.25"/>
  <stop offset="100%" stop-color="#34C759" stop-opacity="0"/>
</linearGradient>
  <clipPath id="ca"><rect x="72" y="45" width="698" height="295"/></clipPath>
</defs>
<rect width="800" height="400" fill="#ffffff" rx="12"/>
<text x="400" y="26" text-anchor="middle" font-size="15" font-weight="600" fill="#111827">Community Growth Over Time</text>
<line x1="72" y1="340.0" x2="770" y2="340.0" stroke="#f3f4f6" stroke-width="1"/>
<text x="66" y="344.0" text-anchor="end" font-size="11" fill="#6b7280">500</text>
<line x1="72" y1="266.3" x2="770" y2="266.3" stroke="#f3f4f6" stroke-width="1"/>
<text x="66" y="270.3" text-anchor="end" font-size="11" fill="#6b7280">1.0k</text>
<line x1="72" y1="192.5" x2="770" y2="192.5" stroke="#f3f4f6" stroke-width="1"/>
<text x="66" y="196.5" text-anchor="end" font-size="11" fill="#6b7280">1.5k</text>
<line x1="72" y1="118.8" x2="770" y2="118.8" stroke="#f3f4f6" stroke-width="1"/>
<text x="66" y="122.8" text-anchor="end" font-size="11" fill="#6b7280">2.0k</text>
<line x1="72" y1="45.0" x2="770" y2="45.0" stroke="#f3f4f6" stroke-width="1"/>
<text x="66" y="49.0" text-anchor="end" font-size="11" fill="#6b7280">2.5k</text>
<line x1="117.8" y1="45" x2="117.8" y2="340" stroke="#e5e7eb" stroke-width="1" stroke-dasharray="3,3" clip-path="url(#ca)"/>
<line x1="216.9" y1="45" x2="216.9" y2="340" stroke="#e5e7eb" stroke-width="1" stroke-dasharray="3,3" clip-path="url(#ca)"/>
<line x1="319.9" y1="45" x2="319.9" y2="340" stroke="#e5e7eb" stroke-width="1" stroke-dasharray="3,3" clip-path="url(#ca)"/>
<line x1="422.9" y1="45" x2="422.9" y2="340" stroke="#e5e7eb" stroke-width="1" stroke-dasharray="3,3" clip-path="url(#ca)"/>
<line x1="525.9" y1="45" x2="525.9" y2="340" stroke="#e5e7eb" stroke-width="1" stroke-dasharray="3,3" clip-path="url(#ca)"/>
<line x1="625.1" y1="45" x2="625.1" y2="340" stroke="#e5e7eb" stroke-width="1" stroke-dasharray="3,3" clip-path="url(#ca)"/>
<line x1="716.6" y1="45" x2="716.6" y2="340" stroke="#e5e7eb" stroke-width="1" stroke-dasharray="3,3" clip-path="url(#ca)"/>
<text x="72.0" y="358.0" text-anchor="middle" font-size="11" fill="#6b7280">Dec 11</text>
<text x="213.1" y="358.0" text-anchor="middle" font-size="11" fill="#6b7280">Jan 31</text>
<text x="350.4" y="358.0" text-anchor="middle" font-size="11" fill="#6b7280">Mar 10</text>
<text x="491.6" y="358.0" text-anchor="middle" font-size="11" fill="#6b7280">Apr 21</text>
<text x="628.9" y="358.0" text-anchor="middle" font-size="11" fill="#6b7280">Jun 3</text>
<text x="770.0" y="358.0" text-anchor="middle" font-size="11" fill="#6b7280">Jul 18</text>
<line x1="72" y1="45" x2="72" y2="340" stroke="#e5e7eb" stroke-width="1"/>
<line x1="72" y1="340" x2="770" y2="340" stroke="#e5e7eb" stroke-width="1"/>
<text x="-192.5" y="18" text-anchor="middle" font-size="12" fill="#6b7280" transform="rotate(-90)">People</text>
<path d="M 72.0,340 L 72.0,175.1 L 75.8,175.1 L 79.6,175.1 L 83.4,174.7 L 87.3,174.7 L 91.1,174.4 L 94.9,174.2 L 98.7,174.4 L 102.5,173.9 L 106.3,173.9 L 110.1,173.9 L 114.0,173.9 L 117.8,173.9 L 121.6,173.9 L 125.4,173.9 L 129.2,173.9 L 133.0,173.8 L 136.8,173.3 L 140.7,172.4 L 144.5,172.0 L 148.3,171.9 L 152.1,171.9 L 155.9,171.4 L 159.7,170.4 L 163.5,169.8 L 167.4,169.8 L 171.2,169.0 L 175.0,168.8 L 178.8,168.2 L 182.6,167.7 L 186.4,167.3 L 190.2,166.8 L 194.1,166.8 L 197.9,165.8 L 201.7,165.2 L 205.5,165.2 L 209.3,164.6 L 213.1,164.3 L 216.9,164.2 L 220.8,164.0 L 224.6,164.0 L 228.4,163.6 L 232.2,161.8 L 236.0,160.8 L 239.8,160.2 L 243.6,160.1 L 247.5,159.8 L 251.3,159.2 L 255.1,158.9 L 258.9,158.6 L 262.7,158.3 L 266.5,158.0 L 270.3,157.7 L 274.2,157.7 L 278.0,156.2 L 281.8,156.2 L 285.6,156.1 L 289.4,155.9 L 293.2,155.6 L 297.0,155.6 L 300.9,154.9 L 304.7,154.0 L 308.5,153.7 L 312.3,154.0 L 316.1,153.9 L 319.9,153.7 L 323.7,153.7 L 327.6,153.4 L 331.4,152.8 L 335.2,152.5 L 339.0,152.2 L 342.8,152.1 L 346.6,152.1 L 350.4,151.5 L 354.3,151.2 L 358.1,151.2 L 361.9,150.0 L 365.7,150.0 L 369.5,150.0 L 373.3,150.0 L 377.1,149.9 L 381.0,149.4 L 384.8,148.8 L 388.6,148.5 L 392.4,148.5 L 396.2,148.3 L 400.0,147.1 L 403.8,146.3 L 407.7,146.2 L 411.5,146.0 L 415.3,145.6 L 419.1,144.7 L 422.9,144.4 L 426.7,144.1 L 430.5,143.2 L 434.3,143.1 L 438.2,143.1 L 442.0,143.1 L 445.8,142.9 L 449.6,142.1 L 453.4,141.9 L 457.2,141.8 L 461.0,141.8 L 464.9,141.5 L 468.7,140.3 L 472.5,140.1 L 476.3,140.0 L 480.1,140.0 L 483.9,139.4 L 487.7,139.3 L 491.6,139.1 L 495.4,138.7 L 499.2,138.1 L 503.0,138.1 L 506.8,138.1 L 510.6,138.1 L 514.4,137.8 L 518.3,137.3 L 522.1,137.2 L 525.9,136.7 L 529.7,136.6 L 533.5,136.5 L 537.3,135.9 L 541.1,135.4 L 545.0,135.3 L 548.8,135.3 L 552.6,133.9 L 556.4,133.5 L 560.2,133.4 L 564.0,133.4 L 567.8,132.6 L 571.7,132.6 L 575.5,132.2 L 579.3,131.7 L 583.1,130.7 L 586.9,130.6 L 590.7,130.4 L 594.5,130.3 L 598.4,130.3 L 602.2,130.1 L 606.0,129.4 L 609.8,128.9 L 613.6,128.9 L 617.4,128.8 L 621.2,128.8 L 625.1,128.3 L 628.9,128.2 L 632.7,128.0 L 636.5,127.6 L 640.3,127.0 L 644.1,127.0 L 647.9,126.9 L 651.8,126.7 L 655.6,126.0 L 659.4,124.9 L 663.2,124.8 L 667.0,124.5 L 670.8,124.2 L 674.6,124.1 L 678.5,123.6 L 682.3,123.0 L 686.1,122.9 L 689.9,122.4 L 693.7,122.1 L 697.5,121.4 L 701.3,121.3 L 705.2,121.0 L 709.0,121.0 L 712.8,120.7 L 716.6,120.4 L 720.4,120.1 L 724.2,119.9 L 728.0,119.6 L 731.9,119.6 L 735.7,119.3 L 739.5,119.2 L 743.3,119.2 L 747.1,118.3 L 750.9,117.9 L 754.7,117.9 L 758.6,117.9 L 762.4,117.4 L 766.2,116.5 L 770.0,116.2 L 770.0,340 Z" fill="url(#g2)" clip-path="url(#ca)"/>
<path d="M 72.0,175.1 L 75.8,175.1 L 79.6,175.1 L 83.4,174.7 L 87.3,174.7 L 91.1,174.4 L 94.9,174.2 L 98.7,174.4 L 102.5,173.9 L 106.3,173.9 L 110.1,173.9 L 114.0,173.9 L 117.8,173.9 L 121.6,173.9 L 125.4,173.9 L 129.2,173.9 L 133.0,173.8 L 136.8,173.3 L 140.7,172.4 L 144.5,172.0 L 148.3,171.9 L 152.1,171.9 L 155.9,171.4 L 159.7,170.4 L 163.5,169.8 L 167.4,169.8 L 171.2,169.0 L 175.0,168.8 L 178.8,168.2 L 182.6,167.7 L 186.4,167.3 L 190.2,166.8 L 194.1,166.8 L 197.9,165.8 L 201.7,165.2 L 205.5,165.2 L 209.3,164.6 L 213.1,164.3 L 216.9,164.2 L 220.8,164.0 L 224.6,164.0 L 228.4,163.6 L 232.2,161.8 L 236.0,160.8 L 239.8,160.2 L 243.6,160.1 L 247.5,159.8 L 251.3,159.2 L 255.1,158.9 L 258.9,158.6 L 262.7,158.3 L 266.5,158.0 L 270.3,157.7 L 274.2,157.7 L 278.0,156.2 L 281.8,156.2 L 285.6,156.1 L 289.4,155.9 L 293.2,155.6 L 297.0,155.6 L 300.9,154.9 L 304.7,154.0 L 308.5,153.7 L 312.3,154.0 L 316.1,153.9 L 319.9,153.7 L 323.7,153.7 L 327.6,153.4 L 331.4,152.8 L 335.2,152.5 L 339.0,152.2 L 342.8,152.1 L 346.6,152.1 L 350.4,151.5 L 354.3,151.2 L 358.1,151.2 L 361.9,150.0 L 365.7,150.0 L 369.5,150.0 L 373.3,150.0 L 377.1,149.9 L 381.0,149.4 L 384.8,148.8 L 388.6,148.5 L 392.4,148.5 L 396.2,148.3 L 400.0,147.1 L 403.8,146.3 L 407.7,146.2 L 411.5,146.0 L 415.3,145.6 L 419.1,144.7 L 422.9,144.4 L 426.7,144.1 L 430.5,143.2 L 434.3,143.1 L 438.2,143.1 L 442.0,143.1 L 445.8,142.9 L 449.6,142.1 L 453.4,141.9 L 457.2,141.8 L 461.0,141.8 L 464.9,141.5 L 468.7,140.3 L 472.5,140.1 L 476.3,140.0 L 480.1,140.0 L 483.9,139.4 L 487.7,139.3 L 491.6,139.1 L 495.4,138.7 L 499.2,138.1 L 503.0,138.1 L 506.8,138.1 L 510.6,138.1 L 514.4,137.8 L 518.3,137.3 L 522.1,137.2 L 525.9,136.7 L 529.7,136.6 L 533.5,136.5 L 537.3,135.9 L 541.1,135.4 L 545.0,135.3 L 548.8,135.3 L 552.6,133.9 L 556.4,133.5 L 560.2,133.4 L 564.0,133.4 L 567.8,132.6 L 571.7,132.6 L 575.5,132.2 L 579.3,131.7 L 583.1,130.7 L 586.9,130.6 L 590.7,130.4 L 594.5,130.3 L 598.4,130.3 L 602.2,130.1 L 606.0,129.4 L 609.8,128.9 L 613.6,128.9 L 617.4,128.8 L 621.2,128.8 L 625.1,128.3 L 628.9,128.2 L 632.7,128.0 L 636.5,127.6 L 640.3,127.0 L 644.1,127.0 L 647.9,126.9 L 651.8,126.7 L 655.6,126.0 L 659.4,124.9 L 663.2,124.8 L 667.0,124.5 L 670.8,124.2 L 674.6,124.1 L 678.5,123.6 L 682.3,123.0 L 686.1,122.9 L 689.9,122.4 L 693.7,122.1 L 697.5,121.4 L 701.3,121.3 L 705.2,121.0 L 709.0,121.0 L 712.8,120.7 L 716.6,120.4 L 720.4,120.1 L 724.2,119.9 L 728.0,119.6 L 731.9,119.6 L 735.7,119.3 L 739.5,119.2 L 743.3,119.2 L 747.1,118.3 L 750.9,117.9 L 754.7,117.9 L 758.6,117.9 L 762.4,117.4 L 766.2,116.5 L 770.0,116.2" fill="none" stroke="#4F8EF7" stroke-width="2.5" stroke-linejoin="round" clip-path="url(#ca)"/>
<path d="M 72.0,340 L 72.0,268.2 L 75.8,267.7 L 79.6,267.7 L 83.4,267.7 L 87.3,267.6 L 91.1,267.3 L 94.9,267.1 L 98.7,267.0 L 102.5,267.0 L 106.3,266.8 L 110.1,266.7 L 114.0,266.7 L 117.8,266.7 L 121.6,266.7 L 125.4,266.7 L 129.2,266.7 L 133.0,266.4 L 136.8,266.4 L 140.7,266.4 L 144.5,265.8 L 148.3,265.7 L 152.1,265.4 L 155.9,264.8 L 159.7,264.6 L 163.5,264.6 L 167.4,264.6 L 171.2,264.2 L 175.0,263.9 L 178.8,263.9 L 182.6,263.6 L 186.4,263.4 L 190.2,263.2 L 194.1,263.2 L 197.9,263.0 L 201.7,262.4 L 205.5,262.0 L 209.3,261.7 L 213.1,261.5 L 216.9,261.5 L 220.8,261.4 L 224.6,261.1 L 228.4,261.1 L 232.2,260.9 L 236.0,260.5 L 239.8,260.2 L 243.6,260.2 L 247.5,260.2 L 251.3,260.2 L 255.1,260.1 L 258.9,259.6 L 262.7,259.3 L 266.5,259.2 L 270.3,259.0 L 274.2,258.9 L 278.0,258.7 L 281.8,258.6 L 285.6,258.4 L 289.4,258.0 L 293.2,257.8 L 297.0,257.7 L 300.9,257.1 L 304.7,256.5 L 308.5,256.5 L 312.3,256.4 L 316.1,256.2 L 319.9,256.2 L 323.7,256.2 L 327.6,255.9 L 331.4,255.9 L 335.2,255.0 L 339.0,254.9 L 342.8,254.7 L 346.6,254.7 L 350.4,254.4 L 354.3,254.3 L 358.1,254.3 L 361.9,254.2 L 365.7,254.2 L 369.5,254.2 L 373.3,253.9 L 377.1,253.7 L 381.0,253.0 L 384.8,253.1 L 388.6,253.0 L 392.4,252.8 L 396.2,252.8 L 400.0,252.7 L 403.8,252.2 L 407.7,252.2 L 411.5,252.2 L 415.3,252.2 L 419.1,251.9 L 422.9,251.9 L 426.7,251.6 L 430.5,251.4 L 434.3,250.8 L 438.2,250.8 L 442.0,250.5 L 445.8,250.3 L 449.6,250.2 L 453.4,250.0 L 457.2,249.7 L 461.0,249.7 L 464.9,249.3 L 468.7,249.3 L 472.5,249.1 L 476.3,248.8 L 480.1,248.7 L 483.9,248.7 L 487.7,248.7 L 491.6,248.7 L 495.4,248.7 L 499.2,248.3 L 503.0,248.3 L 506.8,248.0 L 510.6,247.7 L 514.4,247.2 L 518.3,247.1 L 522.1,247.1 L 525.9,246.2 L 529.7,246.0 L 533.5,246.0 L 537.3,245.5 L 541.1,245.5 L 545.0,245.2 L 548.8,245.2 L 552.6,245.0 L 556.4,245.0 L 560.2,244.9 L 564.0,244.6 L 567.8,244.6 L 571.7,244.4 L 575.5,244.3 L 579.3,244.1 L 583.1,244.0 L 586.9,244.0 L 590.7,243.7 L 594.5,243.7 L 598.4,243.7 L 602.2,242.9 L 606.0,242.9 L 609.8,242.9 L 613.6,242.9 L 617.4,242.9 L 621.2,242.9 L 625.1,242.6 L 628.9,242.6 L 632.7,242.4 L 636.5,241.8 L 640.3,241.5 L 644.1,241.3 L 647.9,241.3 L 651.8,241.2 L 655.6,240.7 L 659.4,240.6 L 663.2,240.6 L 667.0,240.3 L 670.8,239.8 L 674.6,239.6 L 678.5,239.6 L 682.3,239.4 L 686.1,239.4 L 689.9,239.0 L 693.7,238.8 L 697.5,238.8 L 701.3,238.5 L 705.2,238.5 L 709.0,238.2 L 712.8,237.8 L 716.6,237.8 L 720.4,237.6 L 724.2,237.5 L 728.0,237.3 L 731.9,237.3 L 735.7,237.2 L 739.5,237.2 L 743.3,236.9 L 747.1,236.3 L 750.9,236.2 L 754.7,236.2 L 758.6,235.0 L 762.4,235.0 L 766.2,234.5 L 770.0,234.5 L 770.0,340 Z" fill="url(#g3)" clip-path="url(#ca)"/>
<path d="M 72.0,268.2 L 75.8,267.7 L 79.6,267.7 L 83.4,267.7 L 87.3,267.6 L 91.1,267.3 L 94.9,267.1 L 98.7,267.0 L 102.5,267.0 L 106.3,266.8 L 110.1,266.7 L 114.0,266.7 L 117.8,266.7 L 121.6,266.7 L 125.4,266.7 L 129.2,266.7 L 133.0,266.4 L 136.8,266.4 L 140.7,266.4 L 144.5,265.8 L 148.3,265.7 L 152.1,265.4 L 155.9,264.8 L 159.7,264.6 L 163.5,264.6 L 167.4,264.6 L 171.2,264.2 L 175.0,263.9 L 178.8,263.9 L 182.6,263.6 L 186.4,263.4 L 190.2,263.2 L 194.1,263.2 L 197.9,263.0 L 201.7,262.4 L 205.5,262.0 L 209.3,261.7 L 213.1,261.5 L 216.9,261.5 L 220.8,261.4 L 224.6,261.1 L 228.4,261.1 L 232.2,260.9 L 236.0,260.5 L 239.8,260.2 L 243.6,260.2 L 247.5,260.2 L 251.3,260.2 L 255.1,260.1 L 258.9,259.6 L 262.7,259.3 L 266.5,259.2 L 270.3,259.0 L 274.2,258.9 L 278.0,258.7 L 281.8,258.6 L 285.6,258.4 L 289.4,258.0 L 293.2,257.8 L 297.0,257.7 L 300.9,257.1 L 304.7,256.5 L 308.5,256.5 L 312.3,256.4 L 316.1,256.2 L 319.9,256.2 L 323.7,256.2 L 327.6,255.9 L 331.4,255.9 L 335.2,255.0 L 339.0,254.9 L 342.8,254.7 L 346.6,254.7 L 350.4,254.4 L 354.3,254.3 L 358.1,254.3 L 361.9,254.2 L 365.7,254.2 L 369.5,254.2 L 373.3,253.9 L 377.1,253.7 L 381.0,253.0 L 384.8,253.1 L 388.6,253.0 L 392.4,252.8 L 396.2,252.8 L 400.0,252.7 L 403.8,252.2 L 407.7,252.2 L 411.5,252.2 L 415.3,252.2 L 419.1,251.9 L 422.9,251.9 L 426.7,251.6 L 430.5,251.4 L 434.3,250.8 L 438.2,250.8 L 442.0,250.5 L 445.8,250.3 L 449.6,250.2 L 453.4,250.0 L 457.2,249.7 L 461.0,249.7 L 464.9,249.3 L 468.7,249.3 L 472.5,249.1 L 476.3,248.8 L 480.1,248.7 L 483.9,248.7 L 487.7,248.7 L 491.6,248.7 L 495.4,248.7 L 499.2,248.3 L 503.0,248.3 L 506.8,248.0 L 510.6,247.7 L 514.4,247.2 L 518.3,247.1 L 522.1,247.1 L 525.9,246.2 L 529.7,246.0 L 533.5,246.0 L 537.3,245.5 L 541.1,245.5 L 545.0,245.2 L 548.8,245.2 L 552.6,245.0 L 556.4,245.0 L 560.2,244.9 L 564.0,244.6 L 567.8,244.6 L 571.7,244.4 L 575.5,244.3 L 579.3,244.1 L 583.1,244.0 L 586.9,244.0 L 590.7,243.7 L 594.5,243.7 L 598.4,243.7 L 602.2,242.9 L 606.0,242.9 L 609.8,242.9 L 613.6,242.9 L 617.4,242.9 L 621.2,242.9 L 625.1,242.6 L 628.9,242.6 L 632.7,242.4 L 636.5,241.8 L 640.3,241.5 L 644.1,241.3 L 647.9,241.3 L 651.8,241.2 L 655.6,240.7 L 659.4,240.6 L 663.2,240.6 L 667.0,240.3 L 670.8,239.8 L 674.6,239.6 L 678.5,239.6 L 682.3,239.4 L 686.1,239.4 L 689.9,239.0 L 693.7,238.8 L 697.5,238.8 L 701.3,238.5 L 705.2,238.5 L 709.0,238.2 L 712.8,237.8 L 716.6,237.8 L 720.4,237.6 L 724.2,237.5 L 728.0,237.3 L 731.9,237.3 L 735.7,237.2 L 739.5,237.2 L 743.3,236.9 L 747.1,236.3 L 750.9,236.2 L 754.7,236.2 L 758.6,235.0 L 762.4,235.0 L 766.2,234.5 L 770.0,234.5" fill="none" stroke="#BF5AF2" stroke-width="2.5" stroke-linejoin="round" clip-path="url(#ca)"/>
<path d="M 72.0,340 L 72.0,303.6 L 75.8,303.1 L 79.6,303.1 L 83.4,303.1 L 87.3,303.0 L 91.1,302.7 L 94.9,302.5 L 98.7,302.2 L 102.5,302.2 L 106.3,302.1 L 110.1,301.9 L 114.0,301.9 L 117.8,301.9 L 121.6,301.9 L 125.4,301.9 L 129.2,301.9 L 133.0,301.6 L 136.8,301.6 L 140.7,301.8 L 144.5,301.4 L 148.3,301.5 L 152.1,301.1 L 155.9,300.6 L 159.7,300.5 L 163.5,300.6 L 167.4,300.6 L 171.2,300.2 L 175.0,300.0 L 178.8,300.0 L 182.6,299.7 L 186.4,299.6 L 190.2,299.3 L 194.1,299.3 L 197.9,299.1 L 201.7,298.7 L 205.5,298.3 L 209.3,298.0 L 213.1,298.0 L 216.9,298.0 L 220.8,297.8 L 224.6,297.5 L 228.4,297.5 L 232.2,297.4 L 236.0,296.9 L 239.8,296.8 L 243.6,296.8 L 247.5,296.8 L 251.3,296.8 L 255.1,296.6 L 258.9,296.2 L 262.7,296.0 L 266.5,295.9 L 270.3,295.8 L 274.2,295.8 L 278.0,295.6 L 281.8,295.6 L 285.6,295.6 L 289.4,295.2 L 293.2,295.2 L 297.0,295.2 L 300.9,294.9 L 304.7,294.4 L 308.5,294.4 L 312.3,294.3 L 316.1,294.1 L 319.9,294.1 L 323.7,294.1 L 327.6,293.8 L 331.4,293.8 L 335.2,292.9 L 339.0,292.8 L 342.8,292.7 L 346.6,292.7 L 350.4,292.5 L 354.3,292.5 L 358.1,292.5 L 361.9,292.5 L 365.7,292.5 L 369.5,292.5 L 373.3,292.2 L 377.1,292.1 L 381.0,291.3 L 384.8,291.5 L 388.6,291.5 L 392.4,291.3 L 396.2,291.3 L 400.0,291.3 L 403.8,291.0 L 407.7,291.0 L 411.5,291.0 L 415.3,291.0 L 419.1,291.0 L 422.9,291.0 L 426.7,290.9 L 430.5,290.9 L 434.3,290.3 L 438.2,290.3 L 442.0,290.1 L 445.8,290.0 L 449.6,289.9 L 453.4,289.7 L 457.2,289.4 L 461.0,289.4 L 464.9,289.0 L 468.7,289.0 L 472.5,288.8 L 476.3,288.7 L 480.1,288.7 L 483.9,288.7 L 487.7,288.7 L 491.6,288.7 L 495.4,288.7 L 499.2,288.2 L 503.0,288.2 L 506.8,287.9 L 510.6,287.6 L 514.4,287.2 L 518.3,287.0 L 522.1,287.0 L 525.9,286.3 L 529.7,286.2 L 533.5,286.2 L 537.3,285.7 L 541.1,285.7 L 545.0,285.6 L 548.8,285.6 L 552.6,285.7 L 556.4,285.9 L 560.2,285.7 L 564.0,285.4 L 567.8,285.6 L 571.7,285.4 L 575.5,285.3 L 579.3,285.3 L 583.1,285.3 L 586.9,285.3 L 590.7,285.0 L 594.5,285.0 L 598.4,285.0 L 602.2,284.4 L 606.0,284.4 L 609.8,284.4 L 613.6,284.4 L 617.4,284.4 L 621.2,284.4 L 625.1,284.1 L 628.9,284.1 L 632.7,283.8 L 636.5,283.2 L 640.3,283.1 L 644.1,283.1 L 647.9,283.1 L 651.8,283.1 L 655.6,282.8 L 659.4,282.6 L 663.2,282.6 L 667.0,282.5 L 670.8,282.0 L 674.6,281.7 L 678.5,281.7 L 682.3,281.6 L 686.1,281.6 L 689.9,281.4 L 693.7,281.3 L 697.5,281.3 L 701.3,281.1 L 705.2,281.1 L 709.0,280.9 L 712.8,280.4 L 716.6,280.4 L 720.4,280.3 L 724.2,280.4 L 728.0,280.3 L 731.9,280.3 L 735.7,280.1 L 739.5,280.1 L 743.3,280.0 L 747.1,279.5 L 750.9,279.5 L 754.7,279.5 L 758.6,278.6 L 762.4,278.8 L 766.2,278.3 L 770.0,278.3 L 770.0,340 Z" fill="url(#g4)" clip-path="url(#ca)"/>
<path d="M 72.0,303.6 L 75.8,303.1 L 79.6,303.1 L 83.4,303.1 L 87.3,303.0 L 91.1,302.7 L 94.9,302.5 L 98.7,302.2 L 102.5,302.2 L 106.3,302.1 L 110.1,301.9 L 114.0,301.9 L 117.8,301.9 L 121.6,301.9 L 125.4,301.9 L 129.2,301.9 L 133.0,301.6 L 136.8,301.6 L 140.7,301.8 L 144.5,301.4 L 148.3,301.5 L 152.1,301.1 L 155.9,300.6 L 159.7,300.5 L 163.5,300.6 L 167.4,300.6 L 171.2,300.2 L 175.0,300.0 L 178.8,300.0 L 182.6,299.7 L 186.4,299.6 L 190.2,299.3 L 194.1,299.3 L 197.9,299.1 L 201.7,298.7 L 205.5,298.3 L 209.3,298.0 L 213.1,298.0 L 216.9,298.0 L 220.8,297.8 L 224.6,297.5 L 228.4,297.5 L 232.2,297.4 L 236.0,296.9 L 239.8,296.8 L 243.6,296.8 L 247.5,296.8 L 251.3,296.8 L 255.1,296.6 L 258.9,296.2 L 262.7,296.0 L 266.5,295.9 L 270.3,295.8 L 274.2,295.8 L 278.0,295.6 L 281.8,295.6 L 285.6,295.6 L 289.4,295.2 L 293.2,295.2 L 297.0,295.2 L 300.9,294.9 L 304.7,294.4 L 308.5,294.4 L 312.3,294.3 L 316.1,294.1 L 319.9,294.1 L 323.7,294.1 L 327.6,293.8 L 331.4,293.8 L 335.2,292.9 L 339.0,292.8 L 342.8,292.7 L 346.6,292.7 L 350.4,292.5 L 354.3,292.5 L 358.1,292.5 L 361.9,292.5 L 365.7,292.5 L 369.5,292.5 L 373.3,292.2 L 377.1,292.1 L 381.0,291.3 L 384.8,291.5 L 388.6,291.5 L 392.4,291.3 L 396.2,291.3 L 400.0,291.3 L 403.8,291.0 L 407.7,291.0 L 411.5,291.0 L 415.3,291.0 L 419.1,291.0 L 422.9,291.0 L 426.7,290.9 L 430.5,290.9 L 434.3,290.3 L 438.2,290.3 L 442.0,290.1 L 445.8,290.0 L 449.6,289.9 L 453.4,289.7 L 457.2,289.4 L 461.0,289.4 L 464.9,289.0 L 468.7,289.0 L 472.5,288.8 L 476.3,288.7 L 480.1,288.7 L 483.9,288.7 L 487.7,288.7 L 491.6,288.7 L 495.4,288.7 L 499.2,288.2 L 503.0,288.2 L 506.8,287.9 L 510.6,287.6 L 514.4,287.2 L 518.3,287.0 L 522.1,287.0 L 525.9,286.3 L 529.7,286.2 L 533.5,286.2 L 537.3,285.7 L 541.1,285.7 L 545.0,285.6 L 548.8,285.6 L 552.6,285.7 L 556.4,285.9 L 560.2,285.7 L 564.0,285.4 L 567.8,285.6 L 571.7,285.4 L 575.5,285.3 L 579.3,285.3 L 583.1,285.3 L 586.9,285.3 L 590.7,285.0 L 594.5,285.0 L 598.4,285.0 L 602.2,284.4 L 606.0,284.4 L 609.8,284.4 L 613.6,284.4 L 617.4,284.4 L 621.2,284.4 L 625.1,284.1 L 628.9,284.1 L 632.7,283.8 L 636.5,283.2 L 640.3,283.1 L 644.1,283.1 L 647.9,283.1 L 651.8,283.1 L 655.6,282.8 L 659.4,282.6 L 663.2,282.6 L 667.0,282.5 L 670.8,282.0 L 674.6,281.7 L 678.5,281.7 L 682.3,281.6 L 686.1,281.6 L 689.9,281.4 L 693.7,281.3 L 697.5,281.3 L 701.3,281.1 L 705.2,281.1 L 709.0,280.9 L 712.8,280.4 L 716.6,280.4 L 720.4,280.3 L 724.2,280.4 L 728.0,280.3 L 731.9,280.3 L 735.7,280.1 L 739.5,280.1 L 743.3,280.0 L 747.1,279.5 L 750.9,279.5 L 754.7,279.5 L 758.6,278.6 L 762.4,278.8 L 766.2,278.3 L 770.0,278.3" fill="none" stroke="#34C759" stroke-width="2.5" stroke-linejoin="round" clip-path="url(#ca)"/>
<text x="93.0" y="55.0" text-anchor="middle" font-size="9" fill="#4F8EF7" opacity="0.85" clip-path="url(#ca)">+0.5% (+8)</text>
<text x="93.0" y="66.0" text-anchor="middle" font-size="9" fill="#BF5AF2" opacity="0.85" clip-path="url(#ca)">+1.0% (+10)</text>
<text x="93.0" y="77.0" text-anchor="middle" font-size="9" fill="#34C759" opacity="0.85" clip-path="url(#ca)">+1.5% (+11)</text>
<text x="165.4" y="55.0" text-anchor="middle" font-size="9" fill="#4F8EF7" opacity="0.85" clip-path="url(#ca)">+4.0% (+65)</text>
<text x="165.4" y="66.0" text-anchor="middle" font-size="9" fill="#BF5AF2" opacity="0.85" clip-path="url(#ca)">+3.5% (+35)</text>
<text x="165.4" y="77.0" text-anchor="middle" font-size="9" fill="#34C759" opacity="0.85" clip-path="url(#ca)">+3.6% (+27)</text>
<text x="266.5" y="55.0" text-anchor="middle" font-size="9" fill="#4F8EF7" opacity="0.85" clip-path="url(#ca)">+4.1% (+70)</text>
<text x="266.5" y="66.0" text-anchor="middle" font-size="9" fill="#BF5AF2" opacity="0.85" clip-path="url(#ca)">+3.5% (+36)</text>
<text x="266.5" y="77.0" text-anchor="middle" font-size="9" fill="#34C759" opacity="0.85" clip-path="url(#ca)">+3.3% (+26)</text>
<text x="369.5" y="55.0" text-anchor="middle" font-size="9" fill="#4F8EF7" opacity="0.85" clip-path="url(#ca)">+3.5% (+61)</text>
<text x="369.5" y="66.0" text-anchor="middle" font-size="9" fill="#BF5AF2" opacity="0.85" clip-path="url(#ca)">+2.7% (+29)</text>
<text x="369.5" y="77.0" text-anchor="middle" font-size="9" fill="#34C759" opacity="0.85" clip-path="url(#ca)">+2.6% (+21)</text>
<text x="472.5" y="55.0" text-anchor="middle" font-size="9" fill="#4F8EF7" opacity="0.85" clip-path="url(#ca)">+2.7% (+49)</text>
<text x="472.5" y="66.0" text-anchor="middle" font-size="9" fill="#BF5AF2" opacity="0.85" clip-path="url(#ca)">+3.0% (+33)</text>
<text x="472.5" y="77.0" text-anchor="middle" font-size="9" fill="#34C759" opacity="0.85" clip-path="url(#ca)">+3.2% (+27)</text>
<text x="573.6" y="55.0" text-anchor="middle" font-size="9" fill="#4F8EF7" opacity="0.85" clip-path="url(#ca)">+2.9% (+54)</text>
<text x="573.6" y="66.0" text-anchor="middle" font-size="9" fill="#BF5AF2" opacity="0.85" clip-path="url(#ca)">+1.9% (+22)</text>
<text x="573.6" y="77.0" text-anchor="middle" font-size="9" fill="#34C759" opacity="0.85" clip-path="url(#ca)">+1.5% (+13)</text>
<text x="668.9" y="55.0" text-anchor="middle" font-size="9" fill="#4F8EF7" opacity="0.85" clip-path="url(#ca)">+2.7% (+52)</text>
<text x="668.9" y="66.0" text-anchor="middle" font-size="9" fill="#BF5AF2" opacity="0.85" clip-path="url(#ca)">+2.8% (+33)</text>
<text x="668.9" y="77.0" text-anchor="middle" font-size="9" fill="#34C759" opacity="0.85" clip-path="url(#ca)">+2.8% (+25)</text>
<text x="743.3" y="55.0" text-anchor="middle" font-size="9" fill="#4F8EF7" opacity="0.85" clip-path="url(#ca)">+1.4% (+28)</text>
<text x="743.3" y="66.0" text-anchor="middle" font-size="9" fill="#BF5AF2" opacity="0.85" clip-path="url(#ca)">+1.8% (+22)</text>
<text x="743.3" y="77.0" text-anchor="middle" font-size="9" fill="#34C759" opacity="0.85" clip-path="url(#ca)">+1.5% (+14)</text>
<rect x="211" y="369" width="12" height="12" fill="#4F8EF7" rx="2"/>
<text x="227" y="379" font-size="12" fill="#111827">Authors</text>
<rect x="351" y="369" width="12" height="12" fill="#BF5AF2" rx="2"/>
<text x="367" y="379" font-size="12" fill="#111827">Contributors</text>
<rect x="491" y="369" width="12" height="12" fill="#34C759" rx="2"/>
<text x="507" y="379" font-size="12" fill="#111827">Non-author contributors</text>
<text x="72" y="394" font-size="8" fill="#e5e7eb">data since Dec 11, 2025</text>
</svg>