<svg xmlns="http://www.w3.org/2000/svg" width="800" height="400" viewBox="0 0 800 400">
<defs><style>text { font-family: -apple-system, BlinkMacSystemFont, 'Segoe UI', Roboto, sans-serif; }</style></defs>
<rect width="800" height="400" fill="#ffffff" rx="12"/>
<text x="400" y="26" text-anchor="middle" font-size="15" font-weight="600" fill="#111827">Packages by Last Updated Quarter</text>
<text x="400" y="44" text-anchor="middle" font-size="11" fill="#6b7280">last updated at · 3,049 packages with a known last-update date</text>
<line x1="60" y1="58" x2="60" y2="320" stroke="#e5e7eb" stroke-width="1"/>
<line x1="60" y1="320" x2="770" y2="320" stroke="#e5e7eb" stroke-width="1"/>
<text x="-189" y="18" text-anchor="middle" font-size="12" fill="#6b7280" transform="rotate(-90)">Number of packages</text>
<line x1="60" y1="320.0" x2="770" y2="320.0" stroke="#f3f4f6" stroke-width="1"/>
<text x="54" y="324.0" text-anchor="end" font-size="11" fill="#6b7280">0</text>
<line x1="60" y1="267.5" x2="770" y2="267.5" stroke="#f3f4f6" stroke-width="1"/>
<text x="54" y="271.5" text-anchor="end" font-size="11" fill="#6b7280">130</text>
<line x1="60" y1="215.0" x2="770" y2="215.0" stroke="#f3f4f6" stroke-width="1"/>
<text x="54" y="219.0" text-anchor="end" font-size="11" fill="#6b7280">260</text>
<line x1="60" y1="163.0" x2="770" y2="163.0" stroke="#f3f4f6" stroke-width="1"/>
<text x="54" y="167.0" text-anchor="end" font-size="11" fill="#6b7280">389</text>
<line x1="60" y1="110.5" x2="770" y2="110.5" stroke="#f3f4f6" stroke-width="1"/>
<text x="54" y="114.5" text-anchor="end" font-size="11" fill="#6b7280">519</text>
<line x1="60" y1="58.0" x2="770" y2="58.0" stroke="#f3f4f6" stroke-width="1"/>
<text x="54" y="62.0" text-anchor="end" font-size="11" fill="#6b7280">649</text>
<rect x="66.2" y="314.8" width="23.1" height="5.2" fill="#34C759" rx="3" opacity="0.85"/>
<text x="77.8" y="298.8" text-anchor="middle" font-size="10" fill="#6b7280">13</text>
<text x="77.8" y="310.8" text-anchor="middle" font-size="10" fill="#6b7280">(0.43%)</text>
<g transform="translate(77.8,330.0) rotate(-45)"><text text-anchor="end" font-size="10" fill="#111827">2021-Q4</text></g>
<rect x="101.7" y="309.1" width="23.1" height="10.9" fill="#34C759" rx="3" opacity="0.85"/>
<text x="113.3" y="293.1" text-anchor="middle" font-size="10" fill="#6b7280">27</text>
<text x="113.3" y="305.1" text-anchor="middle" font-size="10" fill="#6b7280">(0.89%)</text>
<g transform="translate(113.3,330.0) rotate(-45)"><text text-anchor="end" font-size="10" fill="#111827">2022-Q1</text></g>
<rect x="137.2" y="306.3" width="23.1" height="13.7" fill="#34C759" rx="3" opacity="0.85"/>
<text x="148.8" y="290.3" text-anchor="middle" font-size="10" fill="#6b7280">34</text>
<text x="148.8" y="302.3" text-anchor="middle" font-size="10" fill="#6b7280">(1.12%)</text>
<g transform="translate(148.8,330.0) rotate(-45)"><text text-anchor="end" font-size="10" fill="#111827">2022-Q2</text></g>
<rect x="172.7" y="305.1" width="23.1" height="14.9" fill="#34C759" rx="3" opacity="0.85"/>
<text x="184.3" y="289.1" text-anchor="middle" font-size="10" fill="#6b7280">37</text>
<text x="184.3" y="301.1" text-anchor="middle" font-size="10" fill="#6b7280">(1.21%)</text>
<g transform="translate(184.3,330.0) rotate(-45)"><text text-anchor="end" font-size="10" fill="#111827">2022-Q3</text></g>
<rect x="208.2" y="295.0" width="23.1" height="25.0" fill="#34C759" rx="3" opacity="0.85"/>
<text x="219.8" y="279.0" text-anchor="middle" font-size="10" fill="#6b7280">62</text>
<text x="219.8" y="291.0" text-anchor="middle" font-size="10" fill="#6b7280">(2.03%)</text>
<g transform="translate(219.8,330.0) rotate(-45)"><text text-anchor="end" font-size="10" fill="#111827">2022-Q4</text></g>
<rect x="243.7" y="284.5" width="23.1" height="35.5" fill="#34C759" rx="3" opacity="0.85"/>
<text x="255.3" y="268.5" text-anchor="middle" font-size="10" fill="#6b7280">88</text>
<text x="255.3" y="280.5" text-anchor="middle" font-size="10" fill="#6b7280">(2.89%)</text>
<g transform="translate(255.3,330.0) rotate(-45)"><text text-anchor="end" font-size="10" fill="#111827">2023-Q1</text></g>
<rect x="279.2" y="284.5" width="23.1" height="35.5" fill="#34C759" rx="3" opacity="0.85"/>
<text x="290.8" y="268.5" text-anchor="middle" font-size="10" fill="#6b7280">88</text>
<text x="290.8" y="280.5" text-anchor="middle" font-size="10" fill="#6b7280">(2.89%)</text>
<g transform="translate(290.8,330.0) rotate(-45)"><text text-anchor="end" font-size="10" fill="#111827">2023-Q2</text></g>
<rect x="314.7" y="288.1" width="23.1" height="31.9" fill="#34C759" rx="3" opacity="0.85"/>
<text x="326.3" y="272.1" text-anchor="middle" font-size="10" fill="#6b7280">79</text>
<text x="326.3" y="284.1" text-anchor="middle" font-size="10" fill="#6b7280">(2.59%)</text>
<g transform="translate(326.3,330.0) rotate(-45)"><text text-anchor="end" font-size="10" fill="#111827">2023-Q3</text></g>
<rect x="350.2" y="295.4" width="23.1" height="24.6" fill="#34C759" rx="3" opacity="0.85"/>
<text x="361.8" y="279.4" text-anchor="middle" font-size="10" fill="#6b7280">61</text>
<text x="361.8" y="291.4" text-anchor="middle" font-size="10" fill="#6b7280">(2.00%)</text>
<g transform="translate(361.8,330.0) rotate(-45)"><text text-anchor="end" font-size="10" fill="#111827">2023-Q4</text></g>
<rect x="385.7" y="276.8" width="23.1" height="43.2" fill="#34C759" rx="3" opacity="0.85"/>
<text x="397.3" y="260.8" text-anchor="middle" font-size="10" fill="#6b7280">107</text>
<text x="397.3" y="272.8" text-anchor="middle" font-size="10" fill="#6b7280">(3.51%)</text>
<g transform="translate(397.3,330.0) rotate(-45)"><text text-anchor="end" font-size="10" fill="#111827">2024-Q1</text></g>
<rect x="421.2" y="270.7" width="23.1" height="49.3" fill="#34C759" rx="3" opacity="0.85"/>
<text x="432.8" y="254.7" text-anchor="middle" font-size="10" fill="#6b7280">122</text>
<text x="432.8" y="266.7" text-anchor="middle" font-size="10" fill="#6b7280">(4.00%)</text>
<g transform="translate(432.8,330.0) rotate(-45)"><text text-anchor="end" font-size="10" fill="#111827">2024-Q2</text></g>
<rect x="456.7" y="271.2" width="23.1" height="48.8" fill="#34C759" rx="3" opacity="0.85"/>
<text x="468.3" y="255.2" text-anchor="middle" font-size="10" fill="#6b7280">121</text>
<text x="468.3" y="267.2" text-anchor="middle" font-size="10" fill="#6b7280">(3.97%)</text>
<g transform="translate(468.3,330.0) rotate(-45)"><text text-anchor="end" font-size="10" fill="#111827">2024-Q3</text></g>
<rect x="492.2" y="274.4" width="23.1" height="45.6" fill="#34C759" rx="3" opacity="0.85"/>
<text x="503.8" y="258.4" text-anchor="middle" font-size="10" fill="#6b7280">113</text>
<text x="503.8" y="270.4" text-anchor="middle" font-size="10" fill="#6b7280">(3.71%)</text>
<g transform="translate(503.8,330.0) rotate(-45)"><text text-anchor="end" font-size="10" fill="#111827">2024-Q4</text></g>
<rect x="527.7" y="244.1" width="23.1" height="75.9" fill="#34C759" rx="3" opacity="0.85"/>
<text x="539.3" y="228.1" text-anchor="middle" font-size="10" fill="#6b7280">188</text>
<text x="539.3" y="240.1" text-anchor="middle" font-size="10" fill="#6b7280">(6.17%)</text>
<g transform="translate(539.3,330.0) rotate(-45)"><text text-anchor="end" font-size="10" fill="#111827">2025-Q1</text></g>
<rect x="563.2" y="239.3" width="23.1" height="80.7" fill="#34C759" rx="3" opacity="0.85"/>
<text x="574.8" y="223.3" text-anchor="middle" font-size="10" fill="#6b7280">200</text>
<text x="574.8" y="235.3" text-anchor="middle" font-size="10" fill="#6b7280">(6.56%)</text>
<g transform="translate(574.8,330.0) rotate(-45)"><text text-anchor="end" font-size="10" fill="#111827">2025-Q2</text></g>
<rect x="598.7" y="241.3" width="23.1" height="78.7" fill="#34C759" rx="3" opacity="0.85"/>
<text x="610.3" y="225.3" text-anchor="middle" font-size="10" fill="#6b7280">195</text>
<text x="610.3" y="237.3" text-anchor="middle" font-size="10" fill="#6b7280">(6.40%)</text>
<g transform="translate(610.3,330.0) rotate(-45)"><text text-anchor="end" font-size="10" fill="#111827">2025-Q3</text></g>
<rect x="634.2" y="208.2" width="23.1" height="111.8" fill="#34C759" rx="3" opacity="0.85"/>
<text x="645.8" y="192.2" text-anchor="middle" font-size="10" fill="#6b7280">277</text>
<text x="645.8" y="204.2" text-anchor="middle" font-size="10" fill="#6b7280">(9.08%)</text>
<g transform="translate(645.8,330.0) rotate(-45)"><text text-anchor="end" font-size="10" fill="#111827">2025-Q4</text></g>
<rect x="669.7" y="110.1" width="23.1" height="209.9" fill="#34C759" rx="3" opacity="0.85"/>
<text x="681.3" y="94.1" text-anchor="middle" font-size="10" fill="#6b7280">520</text>
<text x="681.3" y="106.1" text-anchor="middle" font-size="10" fill="#6b7280">(17.05%)</text>
<g transform="translate(681.3,330.0) rotate(-45)"><text text-anchor="end" font-size="10" fill="#111827">2026-Q1</text></g>
<rect x="705.2" y="58.0" width="23.1" height="262.0" fill="#34C759" rx="3" opacity="0.85"/>
<text x="716.8" y="72.0" text-anchor="middle" font-size="10" fill="#6b7280">649</text>
<text x="716.8" y="84.0" text-anchor="middle" font-size="10" fill="#6b7280">(21.29%)</text>
<g transform="translate(716.8,330.0) rotate(-45)"><text text-anchor="end" font-size="10" fill="#111827">2026-Q2</text></g>
<rect x="740.7" y="292.5" width="23.1" height="27.5" fill="#34C759" rx="3" opacity="0.85"/>
<text x="752.3" y="276.5" text-anchor="middle" font-size="10" fill="#6b7280">68</text>
<text x="752.3" y="288.5" text-anchor="middle" font-size="10" fill="#6b7280">(2.23%)</text>
<g transform="translate(752.3,330.0) rotate(-45)"><text text-anchor="end" font-size="10" fill="#111827">2026-Q3</text></g>
</svg>