<svg xmlns="http://www.w3.org/2000/svg" width="800" height="400" viewBox="0 0 800 400">
<defs>
  <style>text { font-family: -apple-system, BlinkMacSystemFont, 'Segoe UI', Roboto, sans-serif; }</style>
  <linearGradient id="g2" x1="0" y1="0" x2="0" y2="1">
  <stop offset="0%" stop-color="#4F8EF7" stop-opacity="0.25"/>
  <stop offset="100%" stop-color="#4F8EF7" stop-opacity="0"/>
</linearGradient>
<linearGradient id="g3" x1="0" y1="0" x2="0" y2="1">
  <stop offset="0%" stop-color="#BF5AF2" stop-opacity="0.25"/>
  <stop offset="100%" stop-color="#BF5AF2" stop-opacity="0"/>
</linearGradient>
<linearGradient id="g4" x1="0" y1="0" x2="0" y2="1">
  <stop offset="0%" stop-color="#34C759" stop-opacity="0.25"/>
  <stop offset="100%" stop-color="#34C759" stop-opacity="0"/>
</linearGradient>
  <clipPath id="ca"><rect x="72" y="45" width="698" height="295"/></clipPath>
</defs>
<rect width="800" height="400" fill="#ffffff" rx="12"/>
<text x="400" y="26" text-anchor="middle" font-size="15" font-weight="600" fill="#111827">Community Growth Over Time</text>
<line x1="72" y1="340.0" x2="770" y2="340.0" stroke="#f3f4f6" stroke-width="1"/>
<text x="66" y="344.0" text-anchor="end" font-size="11" fill="#6b7280">500</text>
<line x1="72" y1="241.7" x2="770" y2="241.7" stroke="#f3f4f6" stroke-width="1"/>
<text x="66" y="245.7" text-anchor="end" font-size="11" fill="#6b7280">1.0k</text>
<line x1="72" y1="143.3" x2="770" y2="143.3" stroke="#f3f4f6" stroke-width="1"/>
<text x="66" y="147.3" text-anchor="end" font-size="11" fill="#6b7280">1.5k</text>
<line x1="72" y1="45.0" x2="770" y2="45.0" stroke="#f3f4f6" stroke-width="1"/>
<text x="66" y="49.0" text-anchor="end" font-size="11" fill="#6b7280">2.0k</text>
<line x1="142.4" y1="45" x2="142.4" y2="340" stroke="#e5e7eb" stroke-width="1" stroke-dasharray="3,3" clip-path="url(#ca)"/>
<line x1="294.9" y1="45" x2="294.9" y2="340" stroke="#e5e7eb" stroke-width="1" stroke-dasharray="3,3" clip-path="url(#ca)"/>
<line x1="453.3" y1="45" x2="453.3" y2="340" stroke="#e5e7eb" stroke-width="1" stroke-dasharray="3,3" clip-path="url(#ca)"/>
<line x1="611.6" y1="45" x2="611.6" y2="340" stroke="#e5e7eb" stroke-width="1" stroke-dasharray="3,3" clip-path="url(#ca)"/>
<line x1="770.0" y1="45" x2="770.0" y2="340" stroke="#e5e7eb" stroke-width="1" stroke-dasharray="3,3" clip-path="url(#ca)"/>
<text x="72.0" y="358.0" text-anchor="middle" font-size="11" fill="#6b7280">Dec 11</text>
<text x="212.8" y="358.0" text-anchor="middle" font-size="11" fill="#6b7280">Jan 17</text>
<text x="353.5" y="358.0" text-anchor="middle" font-size="11" fill="#6b7280">Feb 11</text>
<text x="488.5" y="358.0" text-anchor="middle" font-size="11" fill="#6b7280">Mar 8</text>
<text x="629.2" y="358.0" text-anchor="middle" font-size="11" fill="#6b7280">Apr 4</text>
<text x="770.0" y="358.0" text-anchor="middle" font-size="11" fill="#6b7280">May 1</text>
<line x1="72" y1="45" x2="72" y2="340" stroke="#e5e7eb" stroke-width="1"/>
<line x1="72" y1="340" x2="770" y2="340" stroke="#e5e7eb" stroke-width="1"/>
<text x="-192.5" y="18" text-anchor="middle" font-size="12" fill="#6b7280" transform="rotate(-90)">People</text>
<path d="M 72.0,340 L 72.0,120.1 L 77.9,120.1 L 83.7,120.1 L 89.6,119.5 L 95.5,119.5 L 101.3,119.1 L 107.2,118.9 L 113.1,119.1 L 118.9,118.6 L 124.8,118.6 L 130.7,118.6 L 136.5,118.6 L 142.4,118.6 L 148.3,118.6 L 154.1,118.6 L 160.0,118.6 L 165.8,118.4 L 171.7,117.8 L 177.6,116.6 L 183.4,116.0 L 189.3,115.8 L 195.2,115.8 L 201.0,115.2 L 206.9,113.8 L 212.8,113.0 L 218.6,113.0 L 224.5,112.1 L 230.4,111.7 L 236.2,110.9 L 242.1,110.3 L 248.0,109.7 L 253.8,109.1 L 259.7,109.1 L 265.6,107.7 L 271.4,106.9 L 277.3,106.9 L 283.2,106.2 L 289.0,105.8 L 294.9,105.6 L 300.8,105.4 L 306.6,105.4 L 312.5,104.8 L 318.4,102.4 L 324.2,101.0 L 330.1,100.3 L 335.9,100.1 L 341.8,99.7 L 347.7,98.9 L 353.5,98.5 L 359.4,98.1 L 365.3,97.7 L 371.1,97.3 L 377.0,96.9 L 382.9,96.9 L 388.7,95.0 L 394.6,95.0 L 400.5,94.8 L 406.3,94.6 L 412.2,94.2 L 418.1,94.2 L 423.9,93.2 L 429.8,92.0 L 435.7,91.6 L 441.5,92.0 L 447.4,91.8 L 453.3,91.6 L 459.1,91.6 L 465.0,91.2 L 470.9,90.4 L 476.7,90.0 L 482.6,89.6 L 488.5,89.4 L 494.3,89.4 L 500.2,88.7 L 506.1,88.3 L 511.9,88.3 L 517.8,86.7 L 523.6,86.7 L 529.5,86.7 L 535.4,86.7 L 541.2,86.5 L 547.1,85.9 L 553.0,85.1 L 558.8,84.7 L 564.7,84.7 L 570.6,84.3 L 576.4,82.8 L 582.3,81.8 L 588.2,81.6 L 594.0,81.4 L 599.9,80.8 L 605.8,79.6 L 611.6,79.2 L 617.5,78.8 L 623.4,77.6 L 629.2,77.4 L 635.1,77.4 L 641.0,77.4 L 646.8,77.3 L 652.7,76.1 L 658.6,75.9 L 664.4,75.7 L 670.3,75.7 L 676.2,75.3 L 682.0,73.7 L 687.9,73.5 L 693.7,73.3 L 699.6,73.3 L 705.5,72.5 L 711.3,72.3 L 717.2,72.1 L 723.1,71.6 L 728.9,70.8 L 734.8,70.8 L 740.7,70.8 L 746.5,70.8 L 752.4,70.4 L 758.3,69.8 L 764.1,69.6 L 770.0,69.0 L 770.0,340 Z" fill="url(#g2)" clip-path="url(#ca)"/>
<path d="M 72.0,120.1 L 77.9,120.1 L 83.7,120.1 L 89.6,119.5 L 95.5,119.5 L 101.3,119.1 L 107.2,118.9 L 113.1,119.1 L 118.9,118.6 L 124.8,118.6 L 130.7,118.6 L 136.5,118.6 L 142.4,118.6 L 148.3,118.6 L 154.1,118.6 L 160.0,118.6 L 165.8,118.4 L 171.7,117.8 L 177.6,116.6 L 183.4,116.0 L 189.3,115.8 L 195.2,115.8 L 201.0,115.2 L 206.9,113.8 L 212.8,113.0 L 218.6,113.0 L 224.5,112.1 L 230.4,111.7 L 236.2,110.9 L 242.1,110.3 L 248.0,109.7 L 253.8,109.1 L 259.7,109.1 L 265.6,107.7 L 271.4,106.9 L 277.3,106.9 L 283.2,106.2 L 289.0,105.8 L 294.9,105.6 L 300.8,105.4 L 306.6,105.4 L 312.5,104.8 L 318.4,102.4 L 324.2,101.0 L 330.1,100.3 L 335.9,100.1 L 341.8,99.7 L 347.7,98.9 L 353.5,98.5 L 359.4,98.1 L 365.3,97.7 L 371.1,97.3 L 377.0,96.9 L 382.9,96.9 L 388.7,95.0 L 394.6,95.0 L 400.5,94.8 L 406.3,94.6 L 412.2,94.2 L 418.1,94.2 L 423.9,93.2 L 429.8,92.0 L 435.7,91.6 L 441.5,92.0 L 447.4,91.8 L 453.3,91.6 L 459.1,91.6 L 465.0,91.2 L 470.9,90.4 L 476.7,90.0 L 482.6,89.6 L 488.5,89.4 L 494.3,89.4 L 500.2,88.7 L 506.1,88.3 L 511.9,88.3 L 517.8,86.7 L 523.6,86.7 L 529.5,86.7 L 535.4,86.7 L 541.2,86.5 L 547.1,85.9 L 553.0,85.1 L 558.8,84.7 L 564.7,84.7 L 570.6,84.3 L 576.4,82.8 L 582.3,81.8 L 588.2,81.6 L 594.0,81.4 L 599.9,80.8 L 605.8,79.6 L 611.6,79.2 L 617.5,78.8 L 623.4,77.6 L 629.2,77.4 L 635.1,77.4 L 641.0,77.4 L 646.8,77.3 L 652.7,76.1 L 658.6,75.9 L 664.4,75.7 L 670.3,75.7 L 676.2,75.3 L 682.0,73.7 L 687.9,73.5 L 693.7,73.3 L 699.6,73.3 L 705.5,72.5 L 711.3,72.3 L 717.2,72.1 L 723.1,71.6 L 728.9,70.8 L 734.8,70.8 L 740.7,70.8 L 746.5,70.8 L 752.4,70.4 L 758.3,69.8 L 764.1,69.6 L 770.0,69.0" fill="none" stroke="#4F8EF7" stroke-width="2.5" stroke-linejoin="round" clip-path="url(#ca)"/>
<path d="M 72.0,340 L 72.0,244.2 L 77.9,243.6 L 83.7,243.6 L 89.6,243.6 L 95.5,243.4 L 101.3,243.0 L 107.2,242.8 L 113.1,242.6 L 118.9,242.6 L 124.8,242.5 L 130.7,242.3 L 136.5,242.3 L 142.4,242.3 L 148.3,242.3 L 154.1,242.3 L 160.0,242.3 L 165.8,241.9 L 171.7,241.9 L 177.6,241.9 L 183.4,241.1 L 189.3,240.9 L 195.2,240.5 L 201.0,239.7 L 206.9,239.5 L 212.8,239.5 L 218.6,239.5 L 224.5,238.9 L 230.4,238.5 L 236.2,238.5 L 242.1,238.1 L 248.0,237.9 L 253.8,237.5 L 259.7,237.5 L 265.6,237.3 L 271.4,236.6 L 277.3,236.0 L 283.2,235.6 L 289.0,235.4 L 294.9,235.4 L 300.8,235.2 L 306.6,234.8 L 312.5,234.8 L 318.4,234.6 L 324.2,234.0 L 330.1,233.6 L 335.9,233.6 L 341.8,233.6 L 347.7,233.6 L 353.5,233.4 L 359.4,232.8 L 365.3,232.4 L 371.1,232.2 L 377.0,232.0 L 382.9,231.8 L 388.7,231.6 L 394.6,231.4 L 400.5,231.2 L 406.3,230.7 L 412.2,230.5 L 418.1,230.3 L 423.9,229.5 L 429.8,228.7 L 435.7,228.7 L 441.5,228.5 L 447.4,228.3 L 453.3,228.3 L 459.1,228.3 L 465.0,227.9 L 470.9,227.9 L 476.7,226.7 L 482.6,226.5 L 488.5,226.3 L 494.3,226.3 L 500.2,225.9 L 506.1,225.7 L 511.9,225.7 L 517.8,225.5 L 523.6,225.5 L 529.5,225.5 L 535.4,225.1 L 541.2,224.9 L 547.1,224.0 L 553.0,224.2 L 558.8,224.0 L 564.7,223.8 L 570.6,223.8 L 576.4,223.6 L 582.3,223.0 L 588.2,223.0 L 594.0,223.0 L 599.9,223.0 L 605.8,222.6 L 611.6,222.6 L 617.5,222.2 L 623.4,221.8 L 629.2,221.0 L 635.1,221.0 L 641.0,220.6 L 646.8,220.4 L 652.7,220.2 L 658.6,220.0 L 664.4,219.6 L 670.3,219.6 L 676.2,219.1 L 682.0,219.1 L 687.9,218.9 L 693.7,218.5 L 699.6,218.3 L 705.5,218.3 L 711.3,218.3 L 717.2,218.3 L 723.1,218.3 L 728.9,217.7 L 734.8,217.7 L 740.7,217.3 L 746.5,216.9 L 752.4,216.3 L 758.3,216.1 L 764.1,216.1 L 770.0,214.9 L 770.0,340 Z" fill="url(#g3)" clip-path="url(#ca)"/>
<path d="M 72.0,244.2 L 77.9,243.6 L 83.7,243.6 L 89.6,243.6 L 95.5,243.4 L 101.3,243.0 L 107.2,242.8 L 113.1,242.6 L 118.9,242.6 L 124.8,242.5 L 130.7,242.3 L 136.5,242.3 L 142.4,242.3 L 148.3,242.3 L 154.1,242.3 L 160.0,242.3 L 165.8,241.9 L 171.7,241.9 L 177.6,241.9 L 183.4,241.1 L 189.3,240.9 L 195.2,240.5 L 201.0,239.7 L 206.9,239.5 L 212.8,239.5 L 218.6,239.5 L 224.5,238.9 L 230.4,238.5 L 236.2,238.5 L 242.1,238.1 L 248.0,237.9 L 253.8,237.5 L 259.7,237.5 L 265.6,237.3 L 271.4,236.6 L 277.3,236.0 L 283.2,235.6 L 289.0,235.4 L 294.9,235.4 L 300.8,235.2 L 306.6,234.8 L 312.5,234.8 L 318.4,234.6 L 324.2,234.0 L 330.1,233.6 L 335.9,233.6 L 341.8,233.6 L 347.7,233.6 L 353.5,233.4 L 359.4,232.8 L 365.3,232.4 L 371.1,232.2 L 377.0,232.0 L 382.9,231.8 L 388.7,231.6 L 394.6,231.4 L 400.5,231.2 L 406.3,230.7 L 412.2,230.5 L 418.1,230.3 L 423.9,229.5 L 429.8,228.7 L 435.7,228.7 L 441.5,228.5 L 447.4,228.3 L 453.3,228.3 L 459.1,228.3 L 465.0,227.9 L 470.9,227.9 L 476.7,226.7 L 482.6,226.5 L 488.5,226.3 L 494.3,226.3 L 500.2,225.9 L 506.1,225.7 L 511.9,225.7 L 517.8,225.5 L 523.6,225.5 L 529.5,225.5 L 535.4,225.1 L 541.2,224.9 L 547.1,224.0 L 553.0,224.2 L 558.8,224.0 L 564.7,223.8 L 570.6,223.8 L 576.4,223.6 L 582.3,223.0 L 588.2,223.0 L 594.0,223.0 L 599.9,223.0 L 605.8,222.6 L 611.6,222.6 L 617.5,222.2 L 623.4,221.8 L 629.2,221.0 L 635.1,221.0 L 641.0,220.6 L 646.8,220.4 L 652.7,220.2 L 658.6,220.0 L 664.4,219.6 L 670.3,219.6 L 676.2,219.1 L 682.0,219.1 L 687.9,218.9 L 693.7,218.5 L 699.6,218.3 L 705.5,218.3 L 711.3,218.3 L 717.2,218.3 L 723.1,218.3 L 728.9,217.7 L 734.8,217.7 L 740.7,217.3 L 746.5,216.9 L 752.4,216.3 L 758.3,216.1 L 764.1,216.1 L 770.0,214.9" fill="none" stroke="#BF5AF2" stroke-width="2.5" stroke-linejoin="round" clip-path="url(#ca)"/>
<path d="M 72.0,340 L 72.0,291.4 L 77.9,290.8 L 83.7,290.8 L 89.6,290.8 L 95.5,290.6 L 101.3,290.2 L 107.2,290.0 L 113.1,289.7 L 118.9,289.7 L 124.8,289.5 L 130.7,289.3 L 136.5,289.3 L 142.4,289.3 L 148.3,289.3 L 154.1,289.3 L 160.0,289.3 L 165.8,288.9 L 171.7,288.9 L 177.6,289.1 L 183.4,288.5 L 189.3,288.7 L 195.2,288.1 L 201.0,287.5 L 206.9,287.3 L 212.8,287.5 L 218.6,287.5 L 224.5,286.9 L 230.4,286.7 L 236.2,286.7 L 242.1,286.3 L 248.0,286.1 L 253.8,285.7 L 259.7,285.7 L 265.6,285.5 L 271.4,284.9 L 277.3,284.3 L 283.2,283.9 L 289.0,283.9 L 294.9,283.9 L 300.8,283.8 L 306.6,283.4 L 312.5,283.4 L 318.4,283.2 L 324.2,282.6 L 330.1,282.4 L 335.9,282.4 L 341.8,282.4 L 347.7,282.4 L 353.5,282.2 L 359.4,281.6 L 365.3,281.4 L 371.1,281.2 L 377.0,281.0 L 382.9,281.0 L 388.7,280.8 L 394.6,280.8 L 400.5,280.8 L 406.3,280.2 L 412.2,280.2 L 418.1,280.2 L 423.9,279.8 L 429.8,279.2 L 435.7,279.2 L 441.5,279.0 L 447.4,278.8 L 453.3,278.8 L 459.1,278.8 L 465.0,278.4 L 470.9,278.4 L 476.7,277.3 L 482.6,277.1 L 488.5,276.9 L 494.3,276.9 L 500.2,276.7 L 506.1,276.7 L 511.9,276.7 L 517.8,276.7 L 523.6,276.7 L 529.5,276.7 L 535.4,276.3 L 541.2,276.1 L 547.1,275.1 L 553.0,275.3 L 558.8,275.3 L 564.7,275.1 L 570.6,275.1 L 576.4,275.1 L 582.3,274.7 L 588.2,274.7 L 594.0,274.7 L 599.9,274.7 L 605.8,274.7 L 611.6,274.7 L 617.5,274.5 L 623.4,274.5 L 629.2,273.7 L 635.1,273.7 L 641.0,273.5 L 646.8,273.3 L 652.7,273.1 L 658.6,272.9 L 664.4,272.5 L 670.3,272.5 L 676.2,272.0 L 682.0,272.0 L 687.9,271.8 L 693.7,271.6 L 699.6,271.6 L 705.5,271.6 L 711.3,271.6 L 717.2,271.6 L 723.1,271.6 L 728.9,271.0 L 734.8,271.0 L 740.7,270.6 L 746.5,270.2 L 752.4,269.6 L 758.3,269.4 L 764.1,269.4 L 770.0,268.4 L 770.0,340 Z" fill="url(#g4)" clip-path="url(#ca)"/>
<path d="M 72.0,291.4 L 77.9,290.8 L 83.7,290.8 L 89.6,290.8 L 95.5,290.6 L 101.3,290.2 L 107.2,290.0 L 113.1,289.7 L 118.9,289.7 L 124.8,289.5 L 130.7,289.3 L 136.5,289.3 L 142.4,289.3 L 148.3,289.3 L 154.1,289.3 L 160.0,289.3 L 165.8,288.9 L 171.7,288.9 L 177.6,289.1 L 183.4,288.5 L 189.3,288.7 L 195.2,288.1 L 201.0,287.5 L 206.9,287.3 L 212.8,287.5 L 218.6,287.5 L 224.5,286.9 L 230.4,286.7 L 236.2,286.7 L 242.1,286.3 L 248.0,286.1 L 253.8,285.7 L 259.7,285.7 L 265.6,285.5 L 271.4,284.9 L 277.3,284.3 L 283.2,283.9 L 289.0,283.9 L 294.9,283.9 L 300.8,283.8 L 306.6,283.4 L 312.5,283.4 L 318.4,283.2 L 324.2,282.6 L 330.1,282.4 L 335.9,282.4 L 341.8,282.4 L 347.7,282.4 L 353.5,282.2 L 359.4,281.6 L 365.3,281.4 L 371.1,281.2 L 377.0,281.0 L 382.9,281.0 L 388.7,280.8 L 394.6,280.8 L 400.5,280.8 L 406.3,280.2 L 412.2,280.2 L 418.1,280.2 L 423.9,279.8 L 429.8,279.2 L 435.7,279.2 L 441.5,279.0 L 447.4,278.8 L 453.3,278.8 L 459.1,278.8 L 465.0,278.4 L 470.9,278.4 L 476.7,277.3 L 482.6,277.1 L 488.5,276.9 L 494.3,276.9 L 500.2,276.7 L 506.1,276.7 L 511.9,276.7 L 517.8,276.7 L 523.6,276.7 L 529.5,276.7 L 535.4,276.3 L 541.2,276.1 L 547.1,275.1 L 553.0,275.3 L 558.8,275.3 L 564.7,275.1 L 570.6,275.1 L 576.4,275.1 L 582.3,274.7 L 588.2,274.7 L 594.0,274.7 L 599.9,274.7 L 605.8,274.7 L 611.6,274.7 L 617.5,274.5 L 623.4,274.5 L 629.2,273.7 L 635.1,273.7 L 641.0,273.5 L 646.8,273.3 L 652.7,273.1 L 658.6,272.9 L 664.4,272.5 L 670.3,272.5 L 676.2,272.0 L 682.0,272.0 L 687.9,271.8 L 693.7,271.6 L 699.6,271.6 L 705.5,271.6 L 711.3,271.6 L 717.2,271.6 L 723.1,271.6 L 728.9,271.0 L 734.8,271.0 L 740.7,270.6 L 746.5,270.2 L 752.4,269.6 L 758.3,269.4 L 764.1,269.4 L 770.0,268.4" fill="none" stroke="#34C759" stroke-width="2.5" stroke-linejoin="round" clip-path="url(#ca)"/>
<text x="104.3" y="55.0" text-anchor="middle" font-size="9" fill="#4F8EF7" opacity="0.85" clip-path="url(#ca)">+0.5% (+8)</text>
<text x="104.3" y="66.0" text-anchor="middle" font-size="9" fill="#BF5AF2" opacity="0.85" clip-path="url(#ca)">+1.0% (+10)</text>
<text x="104.3" y="77.0" text-anchor="middle" font-size="9" fill="#34C759" opacity="0.85" clip-path="url(#ca)">+1.5% (+11)</text>
<text x="215.7" y="55.0" text-anchor="middle" font-size="9" fill="#4F8EF7" opacity="0.85" clip-path="url(#ca)">+4.0% (+65)</text>
<text x="215.7" y="66.0" text-anchor="middle" font-size="9" fill="#BF5AF2" opacity="0.85" clip-path="url(#ca)">+3.5% (+35)</text>
<text x="215.7" y="77.0" text-anchor="middle" font-size="9" fill="#34C759" opacity="0.85" clip-path="url(#ca)">+3.6% (+27)</text>
<text x="371.1" y="55.0" text-anchor="middle" font-size="9" fill="#4F8EF7" opacity="0.85" clip-path="url(#ca)">+4.1% (+70)</text>
<text x="371.1" y="66.0" text-anchor="middle" font-size="9" fill="#BF5AF2" opacity="0.85" clip-path="url(#ca)">+3.5% (+36)</text>
<text x="371.1" y="77.0" text-anchor="middle" font-size="9" fill="#34C759" opacity="0.85" clip-path="url(#ca)">+3.3% (+26)</text>
<text x="529.5" y="55.0" text-anchor="middle" font-size="9" fill="#4F8EF7" opacity="0.85" clip-path="url(#ca)">+3.5% (+61)</text>
<text x="529.5" y="66.0" text-anchor="middle" font-size="9" fill="#BF5AF2" opacity="0.85" clip-path="url(#ca)">+2.7% (+29)</text>
<text x="529.5" y="77.0" text-anchor="middle" font-size="9" fill="#34C759" opacity="0.85" clip-path="url(#ca)">+2.6% (+21)</text>
<text x="687.9" y="55.0" text-anchor="middle" font-size="9" fill="#4F8EF7" opacity="0.85" clip-path="url(#ca)">+2.7% (+49)</text>
<text x="687.9" y="66.0" text-anchor="middle" font-size="9" fill="#BF5AF2" opacity="0.85" clip-path="url(#ca)">+3.0% (+33)</text>
<text x="687.9" y="77.0" text-anchor="middle" font-size="9" fill="#34C759" opacity="0.85" clip-path="url(#ca)">+3.2% (+27)</text>
<text x="770.0" y="55.0" text-anchor="middle" font-size="9" fill="#4F8EF7" opacity="0.85" clip-path="url(#ca)">+0.0% (+0)</text>
<text x="770.0" y="66.0" text-anchor="middle" font-size="9" fill="#BF5AF2" opacity="0.85" clip-path="url(#ca)">+0.0% (+0)</text>
<text x="770.0" y="77.0" text-anchor="middle" font-size="9" fill="#34C759" opacity="0.85" clip-path="url(#ca)">+0.0% (+0)</text>
<rect x="211" y="369" width="12" height="12" fill="#4F8EF7" rx="2"/>
<text x="227" y="379" font-size="12" fill="#111827">Authors</text>
<rect x="351" y="369" width="12" height="12" fill="#BF5AF2" rx="2"/>
<text x="367" y="379" font-size="12" fill="#111827">Contributors</text>
<rect x="491" y="369" width="12" height="12" fill="#34C759" rx="2"/>
<text x="507" y="379" font-size="12" fill="#111827">Non-author contributors</text>
<text x="72" y="394" font-size="8" fill="#e5e7eb">data since Dec 11, 2025</text>
</svg>