<svg xmlns="http://www.w3.org/2000/svg" width="800" height="400" viewBox="0 0 800 400">
<defs>
  <style>text { font-family: -apple-system, BlinkMacSystemFont, 'Segoe UI', Roboto, sans-serif; }</style>
  <linearGradient id="g1" x1="0" y1="0" x2="0" y2="1">
  <stop offset="0%" stop-color="#FF6363" stop-opacity="0.25"/>
  <stop offset="100%" stop-color="#FF6363" stop-opacity="0"/>
</linearGradient>
  <clipPath id="ca"><rect x="72" y="45" width="698" height="295"/></clipPath>
</defs>
<rect width="800" height="400" fill="#ffffff" rx="12"/>
<text x="400" y="26" text-anchor="middle" font-size="15" font-weight="600" fill="#111827">Packages Growth Over Time</text>
<line x1="72" y1="340.0" x2="770" y2="340.0" stroke="#f3f4f6" stroke-width="1"/>
<text x="66" y="344.0" text-anchor="end" font-size="11" fill="#6b7280">2.5k</text>
<line x1="72" y1="281.0" x2="770" y2="281.0" stroke="#f3f4f6" stroke-width="1"/>
<text x="66" y="285.0" text-anchor="end" font-size="11" fill="#6b7280">2.5k</text>
<line x1="72" y1="222.0" x2="770" y2="222.0" stroke="#f3f4f6" stroke-width="1"/>
<text x="66" y="226.0" text-anchor="end" font-size="11" fill="#6b7280">2.6k</text>
<line x1="72" y1="163.0" x2="770" y2="163.0" stroke="#f3f4f6" stroke-width="1"/>
<text x="66" y="167.0" text-anchor="end" font-size="11" fill="#6b7280">2.6k</text>
<line x1="72" y1="104.0" x2="770" y2="104.0" stroke="#f3f4f6" stroke-width="1"/>
<text x="66" y="108.0" text-anchor="end" font-size="11" fill="#6b7280">2.7k</text>
<line x1="72" y1="45.0" x2="770" y2="45.0" stroke="#f3f4f6" stroke-width="1"/>
<text x="66" y="49.0" text-anchor="end" font-size="11" fill="#6b7280">2.8k</text>
<line x1="185.2" y1="45" x2="185.2" y2="340" stroke="#e5e7eb" stroke-width="1" stroke-dasharray="3,3" clip-path="url(#ca)"/>
<line x1="430.4" y1="45" x2="430.4" y2="340" stroke="#e5e7eb" stroke-width="1" stroke-dasharray="3,3" clip-path="url(#ca)"/>
<line x1="685.1" y1="45" x2="685.1" y2="340" stroke="#e5e7eb" stroke-width="1" stroke-dasharray="3,3" clip-path="url(#ca)"/>
<text x="72.0" y="358.0" text-anchor="middle" font-size="11" fill="#6b7280">Dec 11</text>
<text x="213.5" y="358.0" text-anchor="middle" font-size="11" fill="#6b7280">Jan 6</text>
<text x="355.0" y="358.0" text-anchor="middle" font-size="11" fill="#6b7280">Jan 24</text>
<text x="487.0" y="358.0" text-anchor="middle" font-size="11" fill="#6b7280">Feb 7</text>
<text x="628.5" y="358.0" text-anchor="middle" font-size="11" fill="#6b7280">Feb 22</text>
<text x="770.0" y="358.0" text-anchor="middle" font-size="11" fill="#6b7280">Mar 11</text>
<line x1="72" y1="45" x2="72" y2="340" stroke="#e5e7eb" stroke-width="1"/>
<line x1="72" y1="340" x2="770" y2="340" stroke="#e5e7eb" stroke-width="1"/>
<text x="-192.5" y="18" text-anchor="middle" font-size="12" fill="#6b7280" transform="rotate(-90)">Extensions</text>
<path d="M 72.0,340 L 72.0,315.4 L 81.4,314.5 L 90.9,314.5 L 100.3,311.7 L 109.7,311.7 L 119.2,309.9 L 128.6,308.0 L 138.0,307.1 L 147.5,302.5 L 156.9,298.8 L 166.3,298.8 L 175.8,298.8 L 185.2,298.8 L 194.6,296.9 L 204.1,296.9 L 213.5,296.9 L 222.9,295.1 L 232.4,291.4 L 241.8,284.9 L 251.2,280.3 L 260.6,278.4 L 270.1,277.5 L 279.5,273.8 L 288.9,262.7 L 298.4,259.0 L 307.8,259.0 L 317.2,249.8 L 326.7,247.0 L 336.1,243.3 L 345.5,240.6 L 355.0,235.0 L 364.4,230.4 L 373.8,229.5 L 383.3,222.1 L 392.7,215.6 L 402.1,215.6 L 411.6,211.0 L 421.0,207.3 L 430.4,206.4 L 439.9,205.4 L 449.3,204.5 L 458.7,201.7 L 468.2,185.1 L 477.6,177.7 L 487.0,174.0 L 496.5,172.2 L 505.9,169.4 L 515.3,162.9 L 524.8,161.1 L 534.2,159.2 L 543.6,153.7 L 553.1,151.8 L 562.5,150.0 L 571.9,150.0 L 581.4,133.4 L 590.8,131.5 L 600.2,129.7 L 609.6,126.0 L 619.1,121.3 L 628.5,121.3 L 637.9,113.9 L 647.4,101.9 L 656.8,100.1 L 666.2,101.0 L 675.7,98.2 L 685.1,97.3 L 694.5,97.3 L 704.0,91.8 L 713.4,87.1 L 722.8,83.4 L 732.3,78.8 L 741.7,77.9 L 751.1,77.9 L 760.6,71.4 L 770.0,69.6 L 770.0,340 Z" fill="url(#g1)" clip-path="url(#ca)"/>
<path d="M 72.0,315.4 L 81.4,314.5 L 90.9,314.5 L 100.3,311.7 L 109.7,311.7 L 119.2,309.9 L 128.6,308.0 L 138.0,307.1 L 147.5,302.5 L 156.9,298.8 L 166.3,298.8 L 175.8,298.8 L 185.2,298.8 L 194.6,296.9 L 204.1,296.9 L 213.5,296.9 L 222.9,295.1 L 232.4,291.4 L 241.8,284.9 L 251.2,280.3 L 260.6,278.4 L 270.1,277.5 L 279.5,273.8 L 288.9,262.7 L 298.4,259.0 L 307.8,259.0 L 317.2,249.8 L 326.7,247.0 L 336.1,243.3 L 345.5,240.6 L 355.0,235.0 L 364.4,230.4 L 373.8,229.5 L 383.3,222.1 L 392.7,215.6 L 402.1,215.6 L 411.6,211.0 L 421.0,207.3 L 430.4,206.4 L 439.9,205.4 L 449.3,204.5 L 458.7,201.7 L 468.2,185.1 L 477.6,177.7 L 487.0,174.0 L 496.5,172.2 L 505.9,169.4 L 515.3,162.9 L 524.8,161.1 L 534.2,159.2 L 543.6,153.7 L 553.1,151.8 L 562.5,150.0 L 571.9,150.0 L 581.4,133.4 L 590.8,131.5 L 600.2,129.7 L 609.6,126.0 L 619.1,121.3 L 628.5,121.3 L 637.9,113.9 L 647.4,101.9 L 656.8,100.1 L 666.2,101.0 L 675.7,98.2 L 685.1,97.3 L 694.5,97.3 L 704.0,91.8 L 713.4,87.1 L 722.8,83.4 L 732.3,78.8 L 741.7,77.9 L 751.1,77.9 L 760.6,71.4 L 770.0,69.6" fill="none" stroke="#FF6363" stroke-width="2.5" stroke-linejoin="round" clip-path="url(#ca)"/>
<text x="123.9" y="55.0" text-anchor="middle" font-size="9" fill="#FF6363" opacity="0.85" clip-path="url(#ca)">+0.7%</text>
<text x="303.1" y="55.0" text-anchor="middle" font-size="9" fill="#FF6363" opacity="0.85" clip-path="url(#ca)">+4.0%</text>
<text x="553.1" y="55.0" text-anchor="middle" font-size="9" fill="#FF6363" opacity="0.85" clip-path="url(#ca)">+4.5%</text>
<text x="727.6" y="55.0" text-anchor="middle" font-size="9" fill="#FF6363" opacity="0.85" clip-path="url(#ca)">+1.1%</text>
<rect x="351" y="369" width="12" height="12" fill="#FF6363" rx="2"/>
<text x="367" y="379" font-size="12" fill="#111827">Extensions</text>
<text x="72" y="394" font-size="8" fill="#e5e7eb">data since Dec 11, 2025</text>
</svg>