<svg xmlns="http://www.w3.org/2000/svg" width="800" height="400" viewBox="0 0 800 400">
<defs>
  <style>text { font-family: -apple-system, BlinkMacSystemFont, 'Segoe UI', Roboto, sans-serif; }</style>
  <linearGradient id="g1" x1="0" y1="0" x2="0" y2="1">
  <stop offset="0%" stop-color="#FF6363" stop-opacity="0.25"/>
  <stop offset="100%" stop-color="#FF6363" stop-opacity="0"/>
</linearGradient>
  <clipPath id="ca"><rect x="72" y="45" width="698" height="295"/></clipPath>
</defs>
<rect width="800" height="400" fill="#ffffff" rx="12"/>
<text x="400" y="26" text-anchor="middle" font-size="15" font-weight="600" fill="#111827">Packages Growth Over Time</text>
<line x1="72" y1="340.0" x2="770" y2="340.0" stroke="#f3f4f6" stroke-width="1"/>
<text x="66" y="344.0" text-anchor="end" font-size="11" fill="#6b7280">2.4k</text>
<line x1="72" y1="281.0" x2="770" y2="281.0" stroke="#f3f4f6" stroke-width="1"/>
<text x="66" y="285.0" text-anchor="end" font-size="11" fill="#6b7280">2.5k</text>
<line x1="72" y1="222.0" x2="770" y2="222.0" stroke="#f3f4f6" stroke-width="1"/>
<text x="66" y="226.0" text-anchor="end" font-size="11" fill="#6b7280">2.6k</text>
<line x1="72" y1="163.0" x2="770" y2="163.0" stroke="#f3f4f6" stroke-width="1"/>
<text x="66" y="167.0" text-anchor="end" font-size="11" fill="#6b7280">2.7k</text>
<line x1="72" y1="104.0" x2="770" y2="104.0" stroke="#f3f4f6" stroke-width="1"/>
<text x="66" y="108.0" text-anchor="end" font-size="11" fill="#6b7280">2.8k</text>
<line x1="72" y1="45.0" x2="770" y2="45.0" stroke="#f3f4f6" stroke-width="1"/>
<text x="66" y="49.0" text-anchor="end" font-size="11" fill="#6b7280">2.9k</text>
<line x1="144.8" y1="45" x2="144.8" y2="340" stroke="#e5e7eb" stroke-width="1" stroke-dasharray="3,3" clip-path="url(#ca)"/>
<line x1="302.6" y1="45" x2="302.6" y2="340" stroke="#e5e7eb" stroke-width="1" stroke-dasharray="3,3" clip-path="url(#ca)"/>
<line x1="466.5" y1="45" x2="466.5" y2="340" stroke="#e5e7eb" stroke-width="1" stroke-dasharray="3,3" clip-path="url(#ca)"/>
<line x1="630.4" y1="45" x2="630.4" y2="340" stroke="#e5e7eb" stroke-width="1" stroke-dasharray="3,3" clip-path="url(#ca)"/>
<text x="72.0" y="358.0" text-anchor="middle" font-size="11" fill="#6b7280">Dec 11</text>
<text x="211.6" y="358.0" text-anchor="middle" font-size="11" fill="#6b7280">Jan 16</text>
<text x="351.2" y="358.0" text-anchor="middle" font-size="11" fill="#6b7280">Feb 9</text>
<text x="490.8" y="358.0" text-anchor="middle" font-size="11" fill="#6b7280">Mar 5</text>
<text x="630.4" y="358.0" text-anchor="middle" font-size="11" fill="#6b7280">Apr 1</text>
<text x="770.0" y="358.0" text-anchor="middle" font-size="11" fill="#6b7280">Apr 26</text>
<line x1="72" y1="45" x2="72" y2="340" stroke="#e5e7eb" stroke-width="1"/>
<line x1="72" y1="340" x2="770" y2="340" stroke="#e5e7eb" stroke-width="1"/>
<text x="-192.5" y="18" text-anchor="middle" font-size="12" fill="#6b7280" transform="rotate(-90)">Extensions</text>
<path d="M 72.0,340 L 72.0,294.6 L 78.1,294.0 L 84.1,294.0 L 90.2,292.2 L 96.3,292.2 L 102.3,291.0 L 108.4,289.9 L 114.5,289.3 L 120.6,286.3 L 126.6,283.9 L 132.7,283.9 L 138.8,283.9 L 144.8,283.9 L 150.9,282.8 L 157.0,282.8 L 163.0,282.8 L 169.1,281.6 L 175.2,279.2 L 181.3,275.1 L 187.3,272.1 L 193.4,271.0 L 199.5,270.4 L 205.5,268.0 L 211.6,260.9 L 217.7,258.6 L 223.7,258.6 L 229.8,252.7 L 235.9,250.9 L 241.9,248.6 L 248.0,246.8 L 254.1,243.2 L 260.2,240.3 L 266.2,239.7 L 272.3,235.0 L 278.4,230.8 L 284.4,230.8 L 290.5,227.9 L 296.6,225.5 L 302.6,224.9 L 308.7,224.4 L 314.8,223.8 L 320.9,222.0 L 326.9,211.4 L 333.0,206.7 L 339.1,204.3 L 345.1,203.1 L 351.2,201.3 L 357.3,197.2 L 363.3,196.0 L 369.4,194.9 L 375.5,191.3 L 381.5,190.1 L 387.6,189.0 L 393.7,189.0 L 399.8,178.3 L 405.8,177.2 L 411.9,176.0 L 418.0,173.6 L 424.0,170.7 L 430.1,170.7 L 436.2,166.0 L 442.2,158.3 L 448.3,157.1 L 454.4,157.7 L 460.5,155.9 L 466.5,155.3 L 472.6,155.3 L 478.7,151.8 L 484.7,148.8 L 490.8,146.5 L 496.9,143.5 L 502.9,142.9 L 509.0,142.9 L 515.1,138.8 L 521.1,137.6 L 527.2,137.0 L 533.3,130.0 L 539.4,129.4 L 545.4,129.4 L 551.5,129.4 L 557.6,128.8 L 563.6,125.8 L 569.7,123.5 L 575.8,120.5 L 581.8,119.9 L 587.9,118.2 L 594.0,112.8 L 600.1,108.1 L 606.1,107.5 L 612.2,106.9 L 618.3,105.2 L 624.3,99.3 L 630.4,98.1 L 636.5,96.3 L 642.5,92.8 L 648.6,92.2 L 654.7,91.6 L 660.7,91.6 L 666.8,90.4 L 672.9,86.9 L 679.0,85.7 L 685.0,84.5 L 691.1,83.9 L 697.2,82.8 L 703.2,76.9 L 709.3,76.3 L 715.4,75.1 L 721.4,74.5 L 727.5,71.6 L 733.6,71.0 L 739.7,70.4 L 745.7,68.6 L 751.8,66.2 L 757.9,66.2 L 763.9,66.2 L 770.0,66.2 L 770.0,340 Z" fill="url(#g1)" clip-path="url(#ca)"/>
<path d="M 72.0,294.6 L 78.1,294.0 L 84.1,294.0 L 90.2,292.2 L 96.3,292.2 L 102.3,291.0 L 108.4,289.9 L 114.5,289.3 L 120.6,286.3 L 126.6,283.9 L 132.7,283.9 L 138.8,283.9 L 144.8,283.9 L 150.9,282.8 L 157.0,282.8 L 163.0,282.8 L 169.1,281.6 L 175.2,279.2 L 181.3,275.1 L 187.3,272.1 L 193.4,271.0 L 199.5,270.4 L 205.5,268.0 L 211.6,260.9 L 217.7,258.6 L 223.7,258.6 L 229.8,252.7 L 235.9,250.9 L 241.9,248.6 L 248.0,246.8 L 254.1,243.2 L 260.2,240.3 L 266.2,239.7 L 272.3,235.0 L 278.4,230.8 L 284.4,230.8 L 290.5,227.9 L 296.6,225.5 L 302.6,224.9 L 308.7,224.4 L 314.8,223.8 L 320.9,222.0 L 326.9,211.4 L 333.0,206.7 L 339.1,204.3 L 345.1,203.1 L 351.2,201.3 L 357.3,197.2 L 363.3,196.0 L 369.4,194.9 L 375.5,191.3 L 381.5,190.1 L 387.6,189.0 L 393.7,189.0 L 399.8,178.3 L 405.8,177.2 L 411.9,176.0 L 418.0,173.6 L 424.0,170.7 L 430.1,170.7 L 436.2,166.0 L 442.2,158.3 L 448.3,157.1 L 454.4,157.7 L 460.5,155.9 L 466.5,155.3 L 472.6,155.3 L 478.7,151.8 L 484.7,148.8 L 490.8,146.5 L 496.9,143.5 L 502.9,142.9 L 509.0,142.9 L 515.1,138.8 L 521.1,137.6 L 527.2,137.0 L 533.3,130.0 L 539.4,129.4 L 545.4,129.4 L 551.5,129.4 L 557.6,128.8 L 563.6,125.8 L 569.7,123.5 L 575.8,120.5 L 581.8,119.9 L 587.9,118.2 L 594.0,112.8 L 600.1,108.1 L 606.1,107.5 L 612.2,106.9 L 618.3,105.2 L 624.3,99.3 L 630.4,98.1 L 636.5,96.3 L 642.5,92.8 L 648.6,92.2 L 654.7,91.6 L 660.7,91.6 L 666.8,90.4 L 672.9,86.9 L 679.0,85.7 L 685.0,84.5 L 691.1,83.9 L 697.2,82.8 L 703.2,76.9 L 709.3,76.3 L 715.4,75.1 L 721.4,74.5 L 727.5,71.6 L 733.6,71.0 L 739.7,70.4 L 745.7,68.6 L 751.8,66.2 L 757.9,66.2 L 763.9,66.2 L 770.0,66.2" fill="none" stroke="#FF6363" stroke-width="2.5" stroke-linejoin="round" clip-path="url(#ca)"/>
<text x="105.4" y="55.0" text-anchor="middle" font-size="9" fill="#FF6363" opacity="0.85" clip-path="url(#ca)">+0.7% (+18)</text>
<text x="220.7" y="55.0" text-anchor="middle" font-size="9" fill="#FF6363" opacity="0.85" clip-path="url(#ca)">+4.0% (+99)</text>
<text x="381.5" y="55.0" text-anchor="middle" font-size="9" fill="#FF6363" opacity="0.85" clip-path="url(#ca)">+4.5% (+117)</text>
<text x="545.4" y="55.0" text-anchor="middle" font-size="9" fill="#FF6363" opacity="0.85" clip-path="url(#ca)">+3.5% (+95)</text>
<text x="700.2" y="55.0" text-anchor="middle" font-size="9" fill="#FF6363" opacity="0.85" clip-path="url(#ca)">+1.9% (+54)</text>
<rect x="351" y="369" width="12" height="12" fill="#FF6363" rx="2"/>
<text x="367" y="379" font-size="12" fill="#111827">Extensions</text>
<text x="72" y="394" font-size="8" fill="#e5e7eb">data since Dec 11, 2025</text>
</svg>