<svg xmlns="http://www.w3.org/2000/svg" width="800" height="400" viewBox="0 0 800 400">
<defs><style>text { font-family: -apple-system, BlinkMacSystemFont, 'Segoe UI', Roboto, sans-serif; }</style></defs>
<rect width="800" height="400" fill="#ffffff" rx="12"/>
<text x="400" y="26" text-anchor="middle" font-size="15" font-weight="600" fill="#111827">Packages by Last Updated Quarter</text>
<text x="400" y="44" text-anchor="middle" font-size="11" fill="#6b7280">last updated at · 3,081 packages with a known last-update date</text>
<line x1="60" y1="58" x2="60" y2="320" stroke="#e5e7eb" stroke-width="1"/>
<line x1="60" y1="320" x2="770" y2="320" stroke="#e5e7eb" stroke-width="1"/>
<text x="-189" y="18" text-anchor="middle" font-size="12" fill="#6b7280" transform="rotate(-90)">Number of packages</text>
<line x1="60" y1="320.0" x2="770" y2="320.0" stroke="#f3f4f6" stroke-width="1"/>
<text x="54" y="324.0" text-anchor="end" font-size="11" fill="#6b7280">0</text>
<line x1="60" y1="267.4" x2="770" y2="267.4" stroke="#f3f4f6" stroke-width="1"/>
<text x="54" y="271.4" text-anchor="end" font-size="11" fill="#6b7280">122</text>
<line x1="60" y1="215.3" x2="770" y2="215.3" stroke="#f3f4f6" stroke-width="1"/>
<text x="54" y="219.3" text-anchor="end" font-size="11" fill="#6b7280">243</text>
<line x1="60" y1="162.7" x2="770" y2="162.7" stroke="#f3f4f6" stroke-width="1"/>
<text x="54" y="166.7" text-anchor="end" font-size="11" fill="#6b7280">365</text>
<line x1="60" y1="110.6" x2="770" y2="110.6" stroke="#f3f4f6" stroke-width="1"/>
<text x="54" y="114.6" text-anchor="end" font-size="11" fill="#6b7280">486</text>
<line x1="60" y1="58.0" x2="770" y2="58.0" stroke="#f3f4f6" stroke-width="1"/>
<text x="54" y="62.0" text-anchor="end" font-size="11" fill="#6b7280">608</text>
<rect x="66.2" y="314.4" width="23.1" height="5.6" fill="#34C759" rx="3" opacity="0.85"/>
<text x="77.8" y="298.4" text-anchor="middle" font-size="10" fill="#6b7280">13</text>
<text x="77.8" y="310.4" text-anchor="middle" font-size="10" fill="#6b7280">(0.42%)</text>
<g transform="translate(77.8,330.0) rotate(-45)"><text text-anchor="end" font-size="10" fill="#111827">2021-Q4</text></g>
<rect x="101.7" y="308.4" width="23.1" height="11.6" fill="#34C759" rx="3" opacity="0.85"/>
<text x="113.3" y="292.4" text-anchor="middle" font-size="10" fill="#6b7280">27</text>
<text x="113.3" y="304.4" text-anchor="middle" font-size="10" fill="#6b7280">(0.88%)</text>
<g transform="translate(113.3,330.0) rotate(-45)"><text text-anchor="end" font-size="10" fill="#111827">2022-Q1</text></g>
<rect x="137.2" y="305.3" width="23.1" height="14.7" fill="#34C759" rx="3" opacity="0.85"/>
<text x="148.8" y="289.3" text-anchor="middle" font-size="10" fill="#6b7280">34</text>
<text x="148.8" y="301.3" text-anchor="middle" font-size="10" fill="#6b7280">(1.10%)</text>
<g transform="translate(148.8,330.0) rotate(-45)"><text text-anchor="end" font-size="10" fill="#111827">2022-Q2</text></g>
<rect x="172.7" y="304.5" width="23.1" height="15.5" fill="#34C759" rx="3" opacity="0.85"/>
<text x="184.3" y="288.5" text-anchor="middle" font-size="10" fill="#6b7280">36</text>
<text x="184.3" y="300.5" text-anchor="middle" font-size="10" fill="#6b7280">(1.17%)</text>
<g transform="translate(184.3,330.0) rotate(-45)"><text text-anchor="end" font-size="10" fill="#111827">2022-Q3</text></g>
<rect x="208.2" y="293.3" width="23.1" height="26.7" fill="#34C759" rx="3" opacity="0.85"/>
<text x="219.8" y="277.3" text-anchor="middle" font-size="10" fill="#6b7280">62</text>
<text x="219.8" y="289.3" text-anchor="middle" font-size="10" fill="#6b7280">(2.01%)</text>
<g transform="translate(219.8,330.0) rotate(-45)"><text text-anchor="end" font-size="10" fill="#111827">2022-Q4</text></g>
<rect x="243.7" y="282.1" width="23.1" height="37.9" fill="#34C759" rx="3" opacity="0.85"/>
<text x="255.3" y="266.1" text-anchor="middle" font-size="10" fill="#6b7280">88</text>
<text x="255.3" y="278.1" text-anchor="middle" font-size="10" fill="#6b7280">(2.86%)</text>
<g transform="translate(255.3,330.0) rotate(-45)"><text text-anchor="end" font-size="10" fill="#111827">2023-Q1</text></g>
<rect x="279.2" y="282.5" width="23.1" height="37.5" fill="#34C759" rx="3" opacity="0.85"/>
<text x="290.8" y="266.5" text-anchor="middle" font-size="10" fill="#6b7280">87</text>
<text x="290.8" y="278.5" text-anchor="middle" font-size="10" fill="#6b7280">(2.82%)</text>
<g transform="translate(290.8,330.0) rotate(-45)"><text text-anchor="end" font-size="10" fill="#111827">2023-Q2</text></g>
<rect x="314.7" y="286.0" width="23.1" height="34.0" fill="#34C759" rx="3" opacity="0.85"/>
<text x="326.3" y="270.0" text-anchor="middle" font-size="10" fill="#6b7280">79</text>
<text x="326.3" y="282.0" text-anchor="middle" font-size="10" fill="#6b7280">(2.56%)</text>
<g transform="translate(326.3,330.0) rotate(-45)"><text text-anchor="end" font-size="10" fill="#111827">2023-Q3</text></g>
<rect x="350.2" y="294.6" width="23.1" height="25.4" fill="#34C759" rx="3" opacity="0.85"/>
<text x="361.8" y="278.6" text-anchor="middle" font-size="10" fill="#6b7280">59</text>
<text x="361.8" y="290.6" text-anchor="middle" font-size="10" fill="#6b7280">(1.91%)</text>
<g transform="translate(361.8,330.0) rotate(-45)"><text text-anchor="end" font-size="10" fill="#111827">2023-Q4</text></g>
<rect x="385.7" y="273.9" width="23.1" height="46.1" fill="#34C759" rx="3" opacity="0.85"/>
<text x="397.3" y="257.9" text-anchor="middle" font-size="10" fill="#6b7280">107</text>
<text x="397.3" y="269.9" text-anchor="middle" font-size="10" fill="#6b7280">(3.47%)</text>
<g transform="translate(397.3,330.0) rotate(-45)"><text text-anchor="end" font-size="10" fill="#111827">2024-Q1</text></g>
<rect x="421.2" y="268.3" width="23.1" height="51.7" fill="#34C759" rx="3" opacity="0.85"/>
<text x="432.8" y="252.3" text-anchor="middle" font-size="10" fill="#6b7280">120</text>
<text x="432.8" y="264.3" text-anchor="middle" font-size="10" fill="#6b7280">(3.89%)</text>
<g transform="translate(432.8,330.0) rotate(-45)"><text text-anchor="end" font-size="10" fill="#111827">2024-Q2</text></g>
<rect x="456.7" y="268.7" width="23.1" height="51.3" fill="#34C759" rx="3" opacity="0.85"/>
<text x="468.3" y="252.7" text-anchor="middle" font-size="10" fill="#6b7280">119</text>
<text x="468.3" y="264.7" text-anchor="middle" font-size="10" fill="#6b7280">(3.86%)</text>
<g transform="translate(468.3,330.0) rotate(-45)"><text text-anchor="end" font-size="10" fill="#111827">2024-Q3</text></g>
<rect x="492.2" y="271.3" width="23.1" height="48.7" fill="#34C759" rx="3" opacity="0.85"/>
<text x="503.8" y="255.3" text-anchor="middle" font-size="10" fill="#6b7280">113</text>
<text x="503.8" y="267.3" text-anchor="middle" font-size="10" fill="#6b7280">(3.67%)</text>
<g transform="translate(503.8,330.0) rotate(-45)"><text text-anchor="end" font-size="10" fill="#111827">2024-Q4</text></g>
<rect x="527.7" y="239.4" width="23.1" height="80.6" fill="#34C759" rx="3" opacity="0.85"/>
<text x="539.3" y="223.4" text-anchor="middle" font-size="10" fill="#6b7280">187</text>
<text x="539.3" y="235.4" text-anchor="middle" font-size="10" fill="#6b7280">(6.07%)</text>
<g transform="translate(539.3,330.0) rotate(-45)"><text text-anchor="end" font-size="10" fill="#111827">2025-Q1</text></g>
<rect x="563.2" y="237.3" width="23.1" height="82.7" fill="#34C759" rx="3" opacity="0.85"/>
<text x="574.8" y="221.3" text-anchor="middle" font-size="10" fill="#6b7280">192</text>
<text x="574.8" y="233.3" text-anchor="middle" font-size="10" fill="#6b7280">(6.23%)</text>
<g transform="translate(574.8,330.0) rotate(-45)"><text text-anchor="end" font-size="10" fill="#111827">2025-Q2</text></g>
<rect x="598.7" y="237.3" width="23.1" height="82.7" fill="#34C759" rx="3" opacity="0.85"/>
<text x="610.3" y="221.3" text-anchor="middle" font-size="10" fill="#6b7280">192</text>
<text x="610.3" y="233.3" text-anchor="middle" font-size="10" fill="#6b7280">(6.23%)</text>
<g transform="translate(610.3,330.0) rotate(-45)"><text text-anchor="end" font-size="10" fill="#111827">2025-Q3</text></g>
<rect x="634.2" y="204.1" width="23.1" height="115.9" fill="#34C759" rx="3" opacity="0.85"/>
<text x="645.8" y="188.1" text-anchor="middle" font-size="10" fill="#6b7280">269</text>
<text x="645.8" y="200.1" text-anchor="middle" font-size="10" fill="#6b7280">(8.73%)</text>
<g transform="translate(645.8,330.0) rotate(-45)"><text text-anchor="end" font-size="10" fill="#111827">2025-Q4</text></g>
<rect x="669.7" y="101.5" width="23.1" height="218.5" fill="#34C759" rx="3" opacity="0.85"/>
<text x="681.3" y="85.5" text-anchor="middle" font-size="10" fill="#6b7280">507</text>
<text x="681.3" y="97.5" text-anchor="middle" font-size="10" fill="#6b7280">(16.46%)</text>
<g transform="translate(681.3,330.0) rotate(-45)"><text text-anchor="end" font-size="10" fill="#111827">2026-Q1</text></g>
<rect x="705.2" y="58.0" width="23.1" height="262.0" fill="#34C759" rx="3" opacity="0.85"/>
<text x="716.8" y="72.0" text-anchor="middle" font-size="10" fill="#6b7280">608</text>
<text x="716.8" y="84.0" text-anchor="middle" font-size="10" fill="#6b7280">(19.73%)</text>
<g transform="translate(716.8,330.0) rotate(-45)"><text text-anchor="end" font-size="10" fill="#111827">2026-Q2</text></g>
<rect x="740.7" y="241.6" width="23.1" height="78.4" fill="#34C759" rx="3" opacity="0.85"/>
<text x="752.3" y="225.6" text-anchor="middle" font-size="10" fill="#6b7280">182</text>
<text x="752.3" y="237.6" text-anchor="middle" font-size="10" fill="#6b7280">(5.91%)</text>
<g transform="translate(752.3,330.0) rotate(-45)"><text text-anchor="end" font-size="10" fill="#111827">2026-Q3</text></g>
</svg>