<svg xmlns="http://www.w3.org/2000/svg" width="800" height="400" viewBox="0 0 800 400">
<defs><style>text { font-family: -apple-system, BlinkMacSystemFont, 'Segoe UI', Roboto, sans-serif; }</style></defs>
<rect width="800" height="400" fill="#ffffff" rx="12"/>
<text x="400" y="26" text-anchor="middle" font-size="15" font-weight="600" fill="#111827">Packages by Last Updated Quarter</text>
<text x="400" y="44" text-anchor="middle" font-size="11" fill="#6b7280">last updated at · 3,044 packages with a known last-update date</text>
<line x1="60" y1="58" x2="60" y2="320" stroke="#e5e7eb" stroke-width="1"/>
<line x1="60" y1="320" x2="770" y2="320" stroke="#e5e7eb" stroke-width="1"/>
<text x="-189" y="18" text-anchor="middle" font-size="12" fill="#6b7280" transform="rotate(-90)">Number of packages</text>
<line x1="60" y1="320.0" x2="770" y2="320.0" stroke="#f3f4f6" stroke-width="1"/>
<text x="54" y="324.0" text-anchor="end" font-size="11" fill="#6b7280">0</text>
<line x1="60" y1="267.8" x2="770" y2="267.8" stroke="#f3f4f6" stroke-width="1"/>
<text x="54" y="271.8" text-anchor="end" font-size="11" fill="#6b7280">131</text>
<line x1="60" y1="215.1" x2="770" y2="215.1" stroke="#f3f4f6" stroke-width="1"/>
<text x="54" y="219.1" text-anchor="end" font-size="11" fill="#6b7280">263</text>
<line x1="60" y1="162.9" x2="770" y2="162.9" stroke="#f3f4f6" stroke-width="1"/>
<text x="54" y="166.9" text-anchor="end" font-size="11" fill="#6b7280">394</text>
<line x1="60" y1="110.2" x2="770" y2="110.2" stroke="#f3f4f6" stroke-width="1"/>
<text x="54" y="114.2" text-anchor="end" font-size="11" fill="#6b7280">526</text>
<line x1="60" y1="58.0" x2="770" y2="58.0" stroke="#f3f4f6" stroke-width="1"/>
<text x="54" y="62.0" text-anchor="end" font-size="11" fill="#6b7280">657</text>
<rect x="66.2" y="314.8" width="23.1" height="5.2" fill="#34C759" rx="3" opacity="0.85"/>
<text x="77.8" y="298.8" text-anchor="middle" font-size="10" fill="#6b7280">13</text>
<text x="77.8" y="310.8" text-anchor="middle" font-size="10" fill="#6b7280">(0.43%)</text>
<g transform="translate(77.8,330.0) rotate(-45)"><text text-anchor="end" font-size="10" fill="#111827">2021-Q4</text></g>
<rect x="101.7" y="309.2" width="23.1" height="10.8" fill="#34C759" rx="3" opacity="0.85"/>
<text x="113.3" y="293.2" text-anchor="middle" font-size="10" fill="#6b7280">27</text>
<text x="113.3" y="305.2" text-anchor="middle" font-size="10" fill="#6b7280">(0.89%)</text>
<g transform="translate(113.3,330.0) rotate(-45)"><text text-anchor="end" font-size="10" fill="#111827">2022-Q1</text></g>
<rect x="137.2" y="306.0" width="23.1" height="14.0" fill="#34C759" rx="3" opacity="0.85"/>
<text x="148.8" y="290.0" text-anchor="middle" font-size="10" fill="#6b7280">35</text>
<text x="148.8" y="302.0" text-anchor="middle" font-size="10" fill="#6b7280">(1.15%)</text>
<g transform="translate(148.8,330.0) rotate(-45)"><text text-anchor="end" font-size="10" fill="#111827">2022-Q2</text></g>
<rect x="172.7" y="304.8" width="23.1" height="15.2" fill="#34C759" rx="3" opacity="0.85"/>
<text x="184.3" y="288.8" text-anchor="middle" font-size="10" fill="#6b7280">38</text>
<text x="184.3" y="300.8" text-anchor="middle" font-size="10" fill="#6b7280">(1.25%)</text>
<g transform="translate(184.3,330.0) rotate(-45)"><text text-anchor="end" font-size="10" fill="#111827">2022-Q3</text></g>
<rect x="208.2" y="295.3" width="23.1" height="24.7" fill="#34C759" rx="3" opacity="0.85"/>
<text x="219.8" y="279.3" text-anchor="middle" font-size="10" fill="#6b7280">62</text>
<text x="219.8" y="291.3" text-anchor="middle" font-size="10" fill="#6b7280">(2.04%)</text>
<g transform="translate(219.8,330.0) rotate(-45)"><text text-anchor="end" font-size="10" fill="#111827">2022-Q4</text></g>
<rect x="243.7" y="284.9" width="23.1" height="35.1" fill="#34C759" rx="3" opacity="0.85"/>
<text x="255.3" y="268.9" text-anchor="middle" font-size="10" fill="#6b7280">88</text>
<text x="255.3" y="280.9" text-anchor="middle" font-size="10" fill="#6b7280">(2.89%)</text>
<g transform="translate(255.3,330.0) rotate(-45)"><text text-anchor="end" font-size="10" fill="#111827">2023-Q1</text></g>
<rect x="279.2" y="284.9" width="23.1" height="35.1" fill="#34C759" rx="3" opacity="0.85"/>
<text x="290.8" y="268.9" text-anchor="middle" font-size="10" fill="#6b7280">88</text>
<text x="290.8" y="280.9" text-anchor="middle" font-size="10" fill="#6b7280">(2.89%)</text>
<g transform="translate(290.8,330.0) rotate(-45)"><text text-anchor="end" font-size="10" fill="#111827">2023-Q2</text></g>
<rect x="314.7" y="288.1" width="23.1" height="31.9" fill="#34C759" rx="3" opacity="0.85"/>
<text x="326.3" y="272.1" text-anchor="middle" font-size="10" fill="#6b7280">80</text>
<text x="326.3" y="284.1" text-anchor="middle" font-size="10" fill="#6b7280">(2.63%)</text>
<g transform="translate(326.3,330.0) rotate(-45)"><text text-anchor="end" font-size="10" fill="#111827">2023-Q3</text></g>
<rect x="350.2" y="295.7" width="23.1" height="24.3" fill="#34C759" rx="3" opacity="0.85"/>
<text x="361.8" y="279.7" text-anchor="middle" font-size="10" fill="#6b7280">61</text>
<text x="361.8" y="291.7" text-anchor="middle" font-size="10" fill="#6b7280">(2.00%)</text>
<g transform="translate(361.8,330.0) rotate(-45)"><text text-anchor="end" font-size="10" fill="#111827">2023-Q4</text></g>
<rect x="385.7" y="277.3" width="23.1" height="42.7" fill="#34C759" rx="3" opacity="0.85"/>
<text x="397.3" y="261.3" text-anchor="middle" font-size="10" fill="#6b7280">107</text>
<text x="397.3" y="273.3" text-anchor="middle" font-size="10" fill="#6b7280">(3.52%)</text>
<g transform="translate(397.3,330.0) rotate(-45)"><text text-anchor="end" font-size="10" fill="#111827">2024-Q1</text></g>
<rect x="421.2" y="271.3" width="23.1" height="48.7" fill="#34C759" rx="3" opacity="0.85"/>
<text x="432.8" y="255.3" text-anchor="middle" font-size="10" fill="#6b7280">122</text>
<text x="432.8" y="267.3" text-anchor="middle" font-size="10" fill="#6b7280">(4.01%)</text>
<g transform="translate(432.8,330.0) rotate(-45)"><text text-anchor="end" font-size="10" fill="#111827">2024-Q2</text></g>
<rect x="456.7" y="271.3" width="23.1" height="48.7" fill="#34C759" rx="3" opacity="0.85"/>
<text x="468.3" y="255.3" text-anchor="middle" font-size="10" fill="#6b7280">122</text>
<text x="468.3" y="267.3" text-anchor="middle" font-size="10" fill="#6b7280">(4.01%)</text>
<g transform="translate(468.3,330.0) rotate(-45)"><text text-anchor="end" font-size="10" fill="#111827">2024-Q3</text></g>
<rect x="492.2" y="274.9" width="23.1" height="45.1" fill="#34C759" rx="3" opacity="0.85"/>
<text x="503.8" y="258.9" text-anchor="middle" font-size="10" fill="#6b7280">113</text>
<text x="503.8" y="270.9" text-anchor="middle" font-size="10" fill="#6b7280">(3.71%)</text>
<g transform="translate(503.8,330.0) rotate(-45)"><text text-anchor="end" font-size="10" fill="#111827">2024-Q4</text></g>
<rect x="527.7" y="245.0" width="23.1" height="75.0" fill="#34C759" rx="3" opacity="0.85"/>
<text x="539.3" y="229.0" text-anchor="middle" font-size="10" fill="#6b7280">188</text>
<text x="539.3" y="241.0" text-anchor="middle" font-size="10" fill="#6b7280">(6.18%)</text>
<g transform="translate(539.3,330.0) rotate(-45)"><text text-anchor="end" font-size="10" fill="#111827">2025-Q1</text></g>
<rect x="563.2" y="240.2" width="23.1" height="79.8" fill="#34C759" rx="3" opacity="0.85"/>
<text x="574.8" y="224.2" text-anchor="middle" font-size="10" fill="#6b7280">200</text>
<text x="574.8" y="236.2" text-anchor="middle" font-size="10" fill="#6b7280">(6.57%)</text>
<g transform="translate(574.8,330.0) rotate(-45)"><text text-anchor="end" font-size="10" fill="#111827">2025-Q2</text></g>
<rect x="598.7" y="241.8" width="23.1" height="78.2" fill="#34C759" rx="3" opacity="0.85"/>
<text x="610.3" y="225.8" text-anchor="middle" font-size="10" fill="#6b7280">196</text>
<text x="610.3" y="237.8" text-anchor="middle" font-size="10" fill="#6b7280">(6.44%)</text>
<g transform="translate(610.3,330.0) rotate(-45)"><text text-anchor="end" font-size="10" fill="#111827">2025-Q3</text></g>
<rect x="634.2" y="208.7" width="23.1" height="111.3" fill="#34C759" rx="3" opacity="0.85"/>
<text x="645.8" y="192.7" text-anchor="middle" font-size="10" fill="#6b7280">279</text>
<text x="645.8" y="204.7" text-anchor="middle" font-size="10" fill="#6b7280">(9.17%)</text>
<g transform="translate(645.8,330.0) rotate(-45)"><text text-anchor="end" font-size="10" fill="#111827">2025-Q4</text></g>
<rect x="669.7" y="111.4" width="23.1" height="208.6" fill="#34C759" rx="3" opacity="0.85"/>
<text x="681.3" y="95.4" text-anchor="middle" font-size="10" fill="#6b7280">523</text>
<text x="681.3" y="107.4" text-anchor="middle" font-size="10" fill="#6b7280">(17.18%)</text>
<g transform="translate(681.3,330.0) rotate(-45)"><text text-anchor="end" font-size="10" fill="#111827">2026-Q1</text></g>
<rect x="705.2" y="58.0" width="23.1" height="262.0" fill="#34C759" rx="3" opacity="0.85"/>
<text x="716.8" y="72.0" text-anchor="middle" font-size="10" fill="#6b7280">657</text>
<text x="716.8" y="84.0" text-anchor="middle" font-size="10" fill="#6b7280">(21.58%)</text>
<g transform="translate(716.8,330.0) rotate(-45)"><text text-anchor="end" font-size="10" fill="#111827">2026-Q2</text></g>
<rect x="740.7" y="302.1" width="23.1" height="17.9" fill="#34C759" rx="3" opacity="0.85"/>
<text x="752.3" y="286.1" text-anchor="middle" font-size="10" fill="#6b7280">45</text>
<text x="752.3" y="298.1" text-anchor="middle" font-size="10" fill="#6b7280">(1.48%)</text>
<g transform="translate(752.3,330.0) rotate(-45)"><text text-anchor="end" font-size="10" fill="#111827">2026-Q3</text></g>
</svg>