<svg xmlns="http://www.w3.org/2000/svg" width="800" height="400" viewBox="0 0 800 400">
<defs>
  <style>text { font-family: -apple-system, BlinkMacSystemFont, 'Segoe UI', Roboto, sans-serif; }</style>
  <linearGradient id="g1" x1="0" y1="0" x2="0" y2="1">
  <stop offset="0%" stop-color="#FF6363" stop-opacity="0.25"/>
  <stop offset="100%" stop-color="#FF6363" stop-opacity="0"/>
</linearGradient>
  <clipPath id="ca"><rect x="72" y="45" width="698" height="295"/></clipPath>
</defs>
<rect width="800" height="400" fill="#ffffff" rx="12"/>
<text x="400" y="26" text-anchor="middle" font-size="15" font-weight="600" fill="#111827">Packages Growth Over Time</text>
<line x1="72" y1="340.0" x2="770" y2="340.0" stroke="#f3f4f6" stroke-width="1"/>
<text x="66" y="344.0" text-anchor="end" font-size="11" fill="#6b7280">2.4k</text>
<line x1="72" y1="266.3" x2="770" y2="266.3" stroke="#f3f4f6" stroke-width="1"/>
<text x="66" y="270.3" text-anchor="end" font-size="11" fill="#6b7280">2.6k</text>
<line x1="72" y1="192.5" x2="770" y2="192.5" stroke="#f3f4f6" stroke-width="1"/>
<text x="66" y="196.5" text-anchor="end" font-size="11" fill="#6b7280">2.8k</text>
<line x1="72" y1="118.8" x2="770" y2="118.8" stroke="#f3f4f6" stroke-width="1"/>
<text x="66" y="122.8" text-anchor="end" font-size="11" fill="#6b7280">3.0k</text>
<line x1="72" y1="45.0" x2="770" y2="45.0" stroke="#f3f4f6" stroke-width="1"/>
<text x="66" y="49.0" text-anchor="end" font-size="11" fill="#6b7280">3.2k</text>
<line x1="123.7" y1="45" x2="123.7" y2="340" stroke="#e5e7eb" stroke-width="1" stroke-dasharray="3,3" clip-path="url(#ca)"/>
<line x1="235.7" y1="45" x2="235.7" y2="340" stroke="#e5e7eb" stroke-width="1" stroke-dasharray="3,3" clip-path="url(#ca)"/>
<line x1="352.1" y1="45" x2="352.1" y2="340" stroke="#e5e7eb" stroke-width="1" stroke-dasharray="3,3" clip-path="url(#ca)"/>
<line x1="468.4" y1="45" x2="468.4" y2="340" stroke="#e5e7eb" stroke-width="1" stroke-dasharray="3,3" clip-path="url(#ca)"/>
<line x1="584.7" y1="45" x2="584.7" y2="340" stroke="#e5e7eb" stroke-width="1" stroke-dasharray="3,3" clip-path="url(#ca)"/>
<line x1="696.8" y1="45" x2="696.8" y2="340" stroke="#e5e7eb" stroke-width="1" stroke-dasharray="3,3" clip-path="url(#ca)"/>
<text x="72.0" y="358.0" text-anchor="middle" font-size="11" fill="#6b7280">Dec 11</text>
<text x="209.9" y="358.0" text-anchor="middle" font-size="11" fill="#6b7280">Jan 26</text>
<text x="352.1" y="358.0" text-anchor="middle" font-size="11" fill="#6b7280">Mar 1</text>
<text x="489.9" y="358.0" text-anchor="middle" font-size="11" fill="#6b7280">Apr 7</text>
<text x="632.1" y="358.0" text-anchor="middle" font-size="11" fill="#6b7280">May 17</text>
<text x="770.0" y="358.0" text-anchor="middle" font-size="11" fill="#6b7280">Jun 23</text>
<line x1="72" y1="45" x2="72" y2="340" stroke="#e5e7eb" stroke-width="1"/>
<line x1="72" y1="340" x2="770" y2="340" stroke="#e5e7eb" stroke-width="1"/>
<text x="-192.5" y="18" text-anchor="middle" font-size="12" fill="#6b7280" transform="rotate(-90)">Extensions</text>
<path d="M 72.0,340 L 72.0,311.6 L 76.3,311.2 L 80.6,311.2 L 84.9,310.1 L 89.2,310.1 L 93.5,309.4 L 97.9,308.7 L 102.2,308.3 L 106.5,306.4 L 110.8,305.0 L 115.1,305.0 L 119.4,305.0 L 123.7,305.0 L 128.0,304.2 L 132.3,304.2 L 136.6,304.2 L 140.9,303.5 L 145.2,302.0 L 149.6,299.4 L 153.9,297.6 L 158.2,296.9 L 162.5,296.5 L 166.8,295.0 L 171.1,290.6 L 175.4,289.1 L 179.7,289.1 L 184.0,285.4 L 188.3,284.3 L 192.6,282.8 L 197.0,281.7 L 201.3,279.5 L 205.6,277.7 L 209.9,277.3 L 214.2,274.4 L 218.5,271.8 L 222.8,271.8 L 227.1,269.9 L 231.4,268.5 L 235.7,268.1 L 240.0,267.7 L 244.3,267.4 L 248.7,266.3 L 253.0,259.6 L 257.3,256.7 L 261.6,255.2 L 265.9,254.4 L 270.2,253.3 L 274.5,250.8 L 278.8,250.0 L 283.1,249.3 L 287.4,247.1 L 291.7,246.3 L 296.0,245.6 L 300.4,245.6 L 304.7,239.0 L 309.0,238.2 L 313.3,237.5 L 317.6,236.0 L 321.9,234.2 L 326.2,234.2 L 330.5,231.2 L 334.8,226.4 L 339.1,225.7 L 343.4,226.1 L 347.8,224.9 L 352.1,224.6 L 356.4,224.6 L 360.7,222.4 L 365.0,220.5 L 369.3,219.1 L 373.6,217.2 L 377.9,216.8 L 382.2,216.8 L 386.5,214.3 L 390.8,213.5 L 395.1,213.2 L 399.5,208.7 L 403.8,208.4 L 408.1,208.4 L 412.4,208.4 L 416.7,208.0 L 421.0,206.1 L 425.3,204.7 L 429.6,202.8 L 433.9,202.5 L 438.2,201.3 L 442.5,198.0 L 446.9,195.1 L 451.2,194.7 L 455.5,194.3 L 459.8,193.2 L 464.1,189.6 L 468.4,188.8 L 472.7,187.7 L 477.0,185.5 L 481.3,185.1 L 485.6,184.8 L 489.9,184.8 L 494.2,184.0 L 498.6,181.8 L 502.9,181.1 L 507.2,180.3 L 511.5,180.0 L 515.8,179.2 L 520.1,175.5 L 524.4,175.2 L 528.7,174.4 L 533.0,174.1 L 537.3,172.2 L 541.6,171.9 L 546.0,171.5 L 550.3,170.4 L 554.6,168.9 L 558.9,168.9 L 563.2,168.9 L 567.5,168.9 L 571.8,168.2 L 576.1,166.3 L 580.4,166.0 L 584.7,164.1 L 589.0,163.7 L 593.3,163.4 L 597.7,161.2 L 602.0,158.9 L 606.3,158.6 L 610.6,158.2 L 614.9,153.4 L 619.2,151.9 L 623.5,150.8 L 627.8,150.5 L 632.1,147.9 L 636.4,147.9 L 640.7,146.0 L 645.0,144.9 L 649.4,141.2 L 653.7,139.8 L 658.0,139.4 L 662.3,139.0 L 666.6,139.0 L 670.9,138.7 L 675.2,136.5 L 679.5,134.6 L 683.8,134.6 L 688.1,134.2 L 692.4,134.2 L 696.8,132.8 L 701.1,132.0 L 705.4,130.9 L 709.7,129.8 L 714.0,128.3 L 718.3,128.3 L 722.6,127.2 L 726.9,125.8 L 731.2,122.8 L 735.5,120.2 L 739.8,119.5 L 744.1,118.8 L 748.5,118.0 L 752.8,117.6 L 757.1,116.5 L 761.4,114.3 L 765.7,114.0 L 770.0,112.5 L 770.0,340 Z" fill="url(#g1)" clip-path="url(#ca)"/>
<path d="M 72.0,311.6 L 76.3,311.2 L 80.6,311.2 L 84.9,310.1 L 89.2,310.1 L 93.5,309.4 L 97.9,308.7 L 102.2,308.3 L 106.5,306.4 L 110.8,305.0 L 115.1,305.0 L 119.4,305.0 L 123.7,305.0 L 128.0,304.2 L 132.3,304.2 L 136.6,304.2 L 140.9,303.5 L 145.2,302.0 L 149.6,299.4 L 153.9,297.6 L 158.2,296.9 L 162.5,296.5 L 166.8,295.0 L 171.1,290.6 L 175.4,289.1 L 179.7,289.1 L 184.0,285.4 L 188.3,284.3 L 192.6,282.8 L 197.0,281.7 L 201.3,279.5 L 205.6,277.7 L 209.9,277.3 L 214.2,274.4 L 218.5,271.8 L 222.8,271.8 L 227.1,269.9 L 231.4,268.5 L 235.7,268.1 L 240.0,267.7 L 244.3,267.4 L 248.7,266.3 L 253.0,259.6 L 257.3,256.7 L 261.6,255.2 L 265.9,254.4 L 270.2,253.3 L 274.5,250.8 L 278.8,250.0 L 283.1,249.3 L 287.4,247.1 L 291.7,246.3 L 296.0,245.6 L 300.4,245.6 L 304.7,239.0 L 309.0,238.2 L 313.3,237.5 L 317.6,236.0 L 321.9,234.2 L 326.2,234.2 L 330.5,231.2 L 334.8,226.4 L 339.1,225.7 L 343.4,226.1 L 347.8,224.9 L 352.1,224.6 L 356.4,224.6 L 360.7,222.4 L 365.0,220.5 L 369.3,219.1 L 373.6,217.2 L 377.9,216.8 L 382.2,216.8 L 386.5,214.3 L 390.8,213.5 L 395.1,213.2 L 399.5,208.7 L 403.8,208.4 L 408.1,208.4 L 412.4,208.4 L 416.7,208.0 L 421.0,206.1 L 425.3,204.7 L 429.6,202.8 L 433.9,202.5 L 438.2,201.3 L 442.5,198.0 L 446.9,195.1 L 451.2,194.7 L 455.5,194.3 L 459.8,193.2 L 464.1,189.6 L 468.4,188.8 L 472.7,187.7 L 477.0,185.5 L 481.3,185.1 L 485.6,184.8 L 489.9,184.8 L 494.2,184.0 L 498.6,181.8 L 502.9,181.1 L 507.2,180.3 L 511.5,180.0 L 515.8,179.2 L 520.1,175.5 L 524.4,175.2 L 528.7,174.4 L 533.0,174.1 L 537.3,172.2 L 541.6,171.9 L 546.0,171.5 L 550.3,170.4 L 554.6,168.9 L 558.9,168.9 L 563.2,168.9 L 567.5,168.9 L 571.8,168.2 L 576.1,166.3 L 580.4,166.0 L 584.7,164.1 L 589.0,163.7 L 593.3,163.4 L 597.7,161.2 L 602.0,158.9 L 606.3,158.6 L 610.6,158.2 L 614.9,153.4 L 619.2,151.9 L 623.5,150.8 L 627.8,150.5 L 632.1,147.9 L 636.4,147.9 L 640.7,146.0 L 645.0,144.9 L 649.4,141.2 L 653.7,139.8 L 658.0,139.4 L 662.3,139.0 L 666.6,139.0 L 670.9,138.7 L 675.2,136.5 L 679.5,134.6 L 683.8,134.6 L 688.1,134.2 L 692.4,134.2 L 696.8,132.8 L 701.1,132.0 L 705.4,130.9 L 709.7,129.8 L 714.0,128.3 L 718.3,128.3 L 722.6,127.2 L 726.9,125.8 L 731.2,122.8 L 735.5,120.2 L 739.8,119.5 L 744.1,118.8 L 748.5,118.0 L 752.8,117.6 L 757.1,116.5 L 761.4,114.3 L 765.7,114.0 L 770.0,112.5" fill="none" stroke="#FF6363" stroke-width="2.5" stroke-linejoin="round" clip-path="url(#ca)"/>
<text x="95.7" y="55.0" text-anchor="middle" font-size="9" fill="#FF6363" opacity="0.85" clip-path="url(#ca)">+0.7% (+18)</text>
<text x="177.6" y="55.0" text-anchor="middle" font-size="9" fill="#FF6363" opacity="0.85" clip-path="url(#ca)">+4.0% (+99)</text>
<text x="291.7" y="55.0" text-anchor="middle" font-size="9" fill="#FF6363" opacity="0.85" clip-path="url(#ca)">+4.5% (+117)</text>
<text x="408.1" y="55.0" text-anchor="middle" font-size="9" fill="#FF6363" opacity="0.85" clip-path="url(#ca)">+3.5% (+95)</text>
<text x="524.4" y="55.0" text-anchor="middle" font-size="9" fill="#FF6363" opacity="0.85" clip-path="url(#ca)">+2.2% (+62)</text>
<text x="638.6" y="55.0" text-anchor="middle" font-size="9" fill="#FF6363" opacity="0.85" clip-path="url(#ca)">+2.8% (+81)</text>
<text x="733.4" y="55.0" text-anchor="middle" font-size="9" fill="#FF6363" opacity="0.85" clip-path="url(#ca)">+1.9% (+55)</text>
<rect x="351" y="369" width="12" height="12" fill="#FF6363" rx="2"/>
<text x="367" y="379" font-size="12" fill="#111827">Extensions</text>
<text x="72" y="394" font-size="8" fill="#e5e7eb">data since Dec 11, 2025</text>
</svg>