<svg xmlns="http://www.w3.org/2000/svg" width="800" height="400" viewBox="0 0 800 400">
<defs>
  <style>text { font-family: -apple-system, BlinkMacSystemFont, 'Segoe UI', Roboto, sans-serif; }</style>
  <linearGradient id="g1" x1="0" y1="0" x2="0" y2="1">
  <stop offset="0%" stop-color="#FF6363" stop-opacity="0.25"/>
  <stop offset="100%" stop-color="#FF6363" stop-opacity="0"/>
</linearGradient>
  <clipPath id="ca"><rect x="72" y="45" width="698" height="295"/></clipPath>
</defs>
<rect width="800" height="400" fill="#ffffff" rx="12"/>
<text x="400" y="26" text-anchor="middle" font-size="15" font-weight="600" fill="#111827">Packages Growth Over Time</text>
<line x1="72" y1="340.0" x2="770" y2="340.0" stroke="#f3f4f6" stroke-width="1"/>
<text x="66" y="344.0" text-anchor="end" font-size="11" fill="#6b7280">2.4k</text>
<line x1="72" y1="281.0" x2="770" y2="281.0" stroke="#f3f4f6" stroke-width="1"/>
<text x="66" y="285.0" text-anchor="end" font-size="11" fill="#6b7280">2.5k</text>
<line x1="72" y1="222.0" x2="770" y2="222.0" stroke="#f3f4f6" stroke-width="1"/>
<text x="66" y="226.0" text-anchor="end" font-size="11" fill="#6b7280">2.6k</text>
<line x1="72" y1="163.0" x2="770" y2="163.0" stroke="#f3f4f6" stroke-width="1"/>
<text x="66" y="167.0" text-anchor="end" font-size="11" fill="#6b7280">2.7k</text>
<line x1="72" y1="104.0" x2="770" y2="104.0" stroke="#f3f4f6" stroke-width="1"/>
<text x="66" y="108.0" text-anchor="end" font-size="11" fill="#6b7280">2.8k</text>
<line x1="72" y1="45.0" x2="770" y2="45.0" stroke="#f3f4f6" stroke-width="1"/>
<text x="66" y="49.0" text-anchor="end" font-size="11" fill="#6b7280">2.9k</text>
<line x1="153.3" y1="45" x2="153.3" y2="340" stroke="#e5e7eb" stroke-width="1" stroke-dasharray="3,3" clip-path="url(#ca)"/>
<line x1="329.5" y1="45" x2="329.5" y2="340" stroke="#e5e7eb" stroke-width="1" stroke-dasharray="3,3" clip-path="url(#ca)"/>
<line x1="512.5" y1="45" x2="512.5" y2="340" stroke="#e5e7eb" stroke-width="1" stroke-dasharray="3,3" clip-path="url(#ca)"/>
<line x1="695.5" y1="45" x2="695.5" y2="340" stroke="#e5e7eb" stroke-width="1" stroke-dasharray="3,3" clip-path="url(#ca)"/>
<text x="72.0" y="358.0" text-anchor="middle" font-size="11" fill="#6b7280">Dec 11</text>
<text x="214.3" y="358.0" text-anchor="middle" font-size="11" fill="#6b7280">Jan 14</text>
<text x="349.8" y="358.0" text-anchor="middle" font-size="11" fill="#6b7280">Feb 4</text>
<text x="492.2" y="358.0" text-anchor="middle" font-size="11" fill="#6b7280">Feb 26</text>
<text x="627.7" y="358.0" text-anchor="middle" font-size="11" fill="#6b7280">Mar 19</text>
<text x="770.0" y="358.0" text-anchor="middle" font-size="11" fill="#6b7280">Apr 13</text>
<line x1="72" y1="45" x2="72" y2="340" stroke="#e5e7eb" stroke-width="1"/>
<line x1="72" y1="340" x2="770" y2="340" stroke="#e5e7eb" stroke-width="1"/>
<text x="-192.5" y="18" text-anchor="middle" font-size="12" fill="#6b7280" transform="rotate(-90)">Extensions</text>
<path d="M 72.0,340 L 72.0,294.6 L 78.8,294.0 L 85.6,294.0 L 92.3,292.2 L 99.1,292.2 L 105.9,291.0 L 112.7,289.9 L 119.4,289.3 L 126.2,286.3 L 133.0,283.9 L 139.8,283.9 L 146.5,283.9 L 153.3,283.9 L 160.1,282.8 L 166.9,282.8 L 173.7,282.8 L 180.4,281.6 L 187.2,279.2 L 194.0,275.1 L 200.8,272.1 L 207.5,271.0 L 214.3,270.4 L 221.1,268.0 L 227.9,260.9 L 234.6,258.6 L 241.4,258.6 L 248.2,252.7 L 255.0,250.9 L 261.7,248.6 L 268.5,246.8 L 275.3,243.2 L 282.1,240.3 L 288.9,239.7 L 295.6,235.0 L 302.4,230.8 L 309.2,230.8 L 316.0,227.9 L 322.7,225.5 L 329.5,224.9 L 336.3,224.4 L 343.1,223.8 L 349.8,222.0 L 356.6,211.4 L 363.4,206.7 L 370.2,204.3 L 377.0,203.1 L 383.7,201.3 L 390.5,197.2 L 397.3,196.0 L 404.1,194.9 L 410.8,191.3 L 417.6,190.1 L 424.4,189.0 L 431.2,189.0 L 437.9,178.3 L 444.7,177.2 L 451.5,176.0 L 458.3,173.6 L 465.0,170.7 L 471.8,170.7 L 478.6,166.0 L 485.4,158.3 L 492.2,157.1 L 498.9,157.7 L 505.7,155.9 L 512.5,155.3 L 519.3,155.3 L 526.0,151.8 L 532.8,148.8 L 539.6,146.5 L 546.4,143.5 L 553.1,142.9 L 559.9,142.9 L 566.7,138.8 L 573.5,137.6 L 580.3,137.0 L 587.0,130.0 L 593.8,129.4 L 600.6,129.4 L 607.4,129.4 L 614.1,128.8 L 620.9,125.8 L 627.7,123.5 L 634.5,120.5 L 641.2,119.9 L 648.0,118.2 L 654.8,112.8 L 661.6,108.1 L 668.3,107.5 L 675.1,106.9 L 681.9,105.2 L 688.7,99.3 L 695.5,98.1 L 702.2,96.3 L 709.0,92.8 L 715.8,92.2 L 722.6,91.6 L 729.3,91.6 L 736.1,90.4 L 742.9,86.9 L 749.7,85.7 L 756.4,84.5 L 763.2,83.9 L 770.0,82.8 L 770.0,340 Z" fill="url(#g1)" clip-path="url(#ca)"/>
<path d="M 72.0,294.6 L 78.8,294.0 L 85.6,294.0 L 92.3,292.2 L 99.1,292.2 L 105.9,291.0 L 112.7,289.9 L 119.4,289.3 L 126.2,286.3 L 133.0,283.9 L 139.8,283.9 L 146.5,283.9 L 153.3,283.9 L 160.1,282.8 L 166.9,282.8 L 173.7,282.8 L 180.4,281.6 L 187.2,279.2 L 194.0,275.1 L 200.8,272.1 L 207.5,271.0 L 214.3,270.4 L 221.1,268.0 L 227.9,260.9 L 234.6,258.6 L 241.4,258.6 L 248.2,252.7 L 255.0,250.9 L 261.7,248.6 L 268.5,246.8 L 275.3,243.2 L 282.1,240.3 L 288.9,239.7 L 295.6,235.0 L 302.4,230.8 L 309.2,230.8 L 316.0,227.9 L 322.7,225.5 L 329.5,224.9 L 336.3,224.4 L 343.1,223.8 L 349.8,222.0 L 356.6,211.4 L 363.4,206.7 L 370.2,204.3 L 377.0,203.1 L 383.7,201.3 L 390.5,197.2 L 397.3,196.0 L 404.1,194.9 L 410.8,191.3 L 417.6,190.1 L 424.4,189.0 L 431.2,189.0 L 437.9,178.3 L 444.7,177.2 L 451.5,176.0 L 458.3,173.6 L 465.0,170.7 L 471.8,170.7 L 478.6,166.0 L 485.4,158.3 L 492.2,157.1 L 498.9,157.7 L 505.7,155.9 L 512.5,155.3 L 519.3,155.3 L 526.0,151.8 L 532.8,148.8 L 539.6,146.5 L 546.4,143.5 L 553.1,142.9 L 559.9,142.9 L 566.7,138.8 L 573.5,137.6 L 580.3,137.0 L 587.0,130.0 L 593.8,129.4 L 600.6,129.4 L 607.4,129.4 L 614.1,128.8 L 620.9,125.8 L 627.7,123.5 L 634.5,120.5 L 641.2,119.9 L 648.0,118.2 L 654.8,112.8 L 661.6,108.1 L 668.3,107.5 L 675.1,106.9 L 681.9,105.2 L 688.7,99.3 L 695.5,98.1 L 702.2,96.3 L 709.0,92.8 L 715.8,92.2 L 722.6,91.6 L 729.3,91.6 L 736.1,90.4 L 742.9,86.9 L 749.7,85.7 L 756.4,84.5 L 763.2,83.9 L 770.0,82.8" fill="none" stroke="#FF6363" stroke-width="2.5" stroke-linejoin="round" clip-path="url(#ca)"/>
<text x="109.3" y="55.0" text-anchor="middle" font-size="9" fill="#FF6363" opacity="0.85" clip-path="url(#ca)">+0.7% (+18)</text>
<text x="238.0" y="55.0" text-anchor="middle" font-size="9" fill="#FF6363" opacity="0.85" clip-path="url(#ca)">+4.0% (+99)</text>
<text x="417.6" y="55.0" text-anchor="middle" font-size="9" fill="#FF6363" opacity="0.85" clip-path="url(#ca)">+4.5% (+117)</text>
<text x="600.6" y="55.0" text-anchor="middle" font-size="9" fill="#FF6363" opacity="0.85" clip-path="url(#ca)">+3.5% (+95)</text>
<text x="732.7" y="55.0" text-anchor="middle" font-size="9" fill="#FF6363" opacity="0.85" clip-path="url(#ca)">+0.9% (+26)</text>
<rect x="351" y="369" width="12" height="12" fill="#FF6363" rx="2"/>
<text x="367" y="379" font-size="12" fill="#111827">Extensions</text>
<text x="72" y="394" font-size="8" fill="#e5e7eb">data since Dec 11, 2025</text>
</svg>