<svg xmlns="http://www.w3.org/2000/svg" width="800" height="400" viewBox="0 0 800 400">
<defs>
  <style>text { font-family: -apple-system, BlinkMacSystemFont, 'Segoe UI', Roboto, sans-serif; }</style>
  <linearGradient id="g5" x1="0" y1="0" x2="0" y2="1">
  <stop offset="0%" stop-color="#34C759" stop-opacity="0.25"/>
  <stop offset="100%" stop-color="#34C759" stop-opacity="0"/>
</linearGradient>
<linearGradient id="g6" x1="0" y1="0" x2="0" y2="1">
  <stop offset="0%" stop-color="#4F8EF7" stop-opacity="0.25"/>
  <stop offset="100%" stop-color="#4F8EF7" stop-opacity="0"/>
</linearGradient>
<linearGradient id="g7" x1="0" y1="0" x2="0" y2="1">
  <stop offset="0%" stop-color="#FF6363" stop-opacity="0.25"/>
  <stop offset="100%" stop-color="#FF6363" stop-opacity="0"/>
</linearGradient>
  <clipPath id="ca"><rect x="72" y="45" width="698" height="295"/></clipPath>
</defs>
<rect width="800" height="400" fill="#ffffff" rx="12"/>
<text x="400" y="26" text-anchor="middle" font-size="15" font-weight="600" fill="#111827">Platform Support Over Time</text>
<line x1="72" y1="340.0" x2="770" y2="340.0" stroke="#f3f4f6" stroke-width="1"/>
<text x="66" y="344.0" text-anchor="end" font-size="11" fill="#6b7280">0</text>
<line x1="72" y1="266.3" x2="770" y2="266.3" stroke="#f3f4f6" stroke-width="1"/>
<text x="66" y="270.3" text-anchor="end" font-size="11" fill="#6b7280">200</text>
<line x1="72" y1="192.5" x2="770" y2="192.5" stroke="#f3f4f6" stroke-width="1"/>
<text x="66" y="196.5" text-anchor="end" font-size="11" fill="#6b7280">400</text>
<line x1="72" y1="118.8" x2="770" y2="118.8" stroke="#f3f4f6" stroke-width="1"/>
<text x="66" y="122.8" text-anchor="end" font-size="11" fill="#6b7280">600</text>
<line x1="72" y1="45.0" x2="770" y2="45.0" stroke="#f3f4f6" stroke-width="1"/>
<text x="66" y="49.0" text-anchor="end" font-size="11" fill="#6b7280">800</text>
<line x1="148.8" y1="45" x2="148.8" y2="340" stroke="#e5e7eb" stroke-width="1" stroke-dasharray="3,3" clip-path="url(#ca)"/>
<line x1="315.3" y1="45" x2="315.3" y2="340" stroke="#e5e7eb" stroke-width="1" stroke-dasharray="3,3" clip-path="url(#ca)"/>
<line x1="488.2" y1="45" x2="488.2" y2="340" stroke="#e5e7eb" stroke-width="1" stroke-dasharray="3,3" clip-path="url(#ca)"/>
<line x1="661.1" y1="45" x2="661.1" y2="340" stroke="#e5e7eb" stroke-width="1" stroke-dasharray="3,3" clip-path="url(#ca)"/>
<text x="72.0" y="358.0" text-anchor="middle" font-size="11" fill="#6b7280">Dec 11</text>
<text x="212.9" y="358.0" text-anchor="middle" font-size="11" fill="#6b7280">Jan 15</text>
<text x="353.8" y="358.0" text-anchor="middle" font-size="11" fill="#6b7280">Feb 7</text>
<text x="488.2" y="358.0" text-anchor="middle" font-size="11" fill="#6b7280">Mar 1</text>
<text x="629.1" y="358.0" text-anchor="middle" font-size="11" fill="#6b7280">Mar 25</text>
<text x="770.0" y="358.0" text-anchor="middle" font-size="11" fill="#6b7280">Apr 19</text>
<line x1="72" y1="45" x2="72" y2="340" stroke="#e5e7eb" stroke-width="1"/>
<line x1="72" y1="340" x2="770" y2="340" stroke="#e5e7eb" stroke-width="1"/>
<text x="-192.5" y="18" text-anchor="middle" font-size="12" fill="#6b7280" transform="rotate(-90)">Extensions</text>
<path d="M 72.0,340 L 72.0,218.3 L 78.4,215.0 L 84.8,214.6 L 91.2,213.2 L 97.6,212.4 L 104.0,208.7 L 110.4,206.5 L 116.8,205.4 L 123.2,203.6 L 129.6,201.3 L 136.0,200.2 L 142.4,199.9 L 148.8,198.8 L 155.2,198.0 L 161.7,197.7 L 168.1,196.6 L 174.5,195.4 L 180.9,194.3 L 187.3,193.2 L 193.7,191.8 L 200.1,190.7 L 206.5,189.6 L 212.9,188.4 L 219.3,186.2 L 225.7,185.5 L 232.1,185.5 L 238.5,182.9 L 244.9,182.2 L 251.3,181.4 L 257.7,180.7 L 264.1,178.9 L 270.5,176.3 L 276.9,175.9 L 283.3,175.5 L 289.7,173.3 L 296.1,172.6 L 302.5,170.7 L 308.9,170.4 L 315.3,170.0 L 321.7,169.3 L 328.1,169.3 L 334.6,169.3 L 341.0,164.1 L 347.4,163.7 L 353.8,162.6 L 360.2,162.3 L 366.6,161.9 L 373.0,160.8 L 379.4,160.1 L 385.8,159.3 L 392.2,157.1 L 398.6,157.1 L 405.0,157.1 L 411.4,156.7 L 417.8,153.0 L 424.2,151.9 L 430.6,151.2 L 437.0,150.1 L 443.4,149.4 L 449.8,149.4 L 456.2,147.5 L 462.6,144.9 L 469.0,144.2 L 475.4,143.8 L 481.8,142.7 L 488.2,142.7 L 494.6,142.0 L 501.0,140.9 L 507.4,140.1 L 513.9,138.7 L 520.3,137.2 L 526.7,136.8 L 533.1,136.8 L 539.5,135.3 L 545.9,135.3 L 552.3,135.3 L 558.7,133.1 L 565.1,132.8 L 571.5,132.4 L 577.9,132.4 L 584.3,132.0 L 590.7,130.6 L 597.1,129.8 L 603.5,128.7 L 609.9,128.7 L 616.3,128.3 L 622.7,126.9 L 629.1,125.8 L 635.5,125.8 L 641.9,125.4 L 648.3,124.7 L 654.7,122.1 L 661.1,121.3 L 667.5,120.2 L 673.9,120.2 L 680.3,119.5 L 686.8,119.1 L 693.2,118.8 L 699.6,118.4 L 706.0,118.0 L 712.4,118.0 L 718.8,117.6 L 725.2,117.3 L 731.6,116.2 L 738.0,114.7 L 744.4,114.3 L 750.8,113.2 L 757.2,113.2 L 763.6,111.7 L 770.0,111.4 L 770.0,340 Z" fill="url(#g5)" clip-path="url(#ca)"/>
<path d="M 72.0,218.3 L 78.4,215.0 L 84.8,214.6 L 91.2,213.2 L 97.6,212.4 L 104.0,208.7 L 110.4,206.5 L 116.8,205.4 L 123.2,203.6 L 129.6,201.3 L 136.0,200.2 L 142.4,199.9 L 148.8,198.8 L 155.2,198.0 L 161.7,197.7 L 168.1,196.6 L 174.5,195.4 L 180.9,194.3 L 187.3,193.2 L 193.7,191.8 L 200.1,190.7 L 206.5,189.6 L 212.9,188.4 L 219.3,186.2 L 225.7,185.5 L 232.1,185.5 L 238.5,182.9 L 244.9,182.2 L 251.3,181.4 L 257.7,180.7 L 264.1,178.9 L 270.5,176.3 L 276.9,175.9 L 283.3,175.5 L 289.7,173.3 L 296.1,172.6 L 302.5,170.7 L 308.9,170.4 L 315.3,170.0 L 321.7,169.3 L 328.1,169.3 L 334.6,169.3 L 341.0,164.1 L 347.4,163.7 L 353.8,162.6 L 360.2,162.3 L 366.6,161.9 L 373.0,160.8 L 379.4,160.1 L 385.8,159.3 L 392.2,157.1 L 398.6,157.1 L 405.0,157.1 L 411.4,156.7 L 417.8,153.0 L 424.2,151.9 L 430.6,151.2 L 437.0,150.1 L 443.4,149.4 L 449.8,149.4 L 456.2,147.5 L 462.6,144.9 L 469.0,144.2 L 475.4,143.8 L 481.8,142.7 L 488.2,142.7 L 494.6,142.0 L 501.0,140.9 L 507.4,140.1 L 513.9,138.7 L 520.3,137.2 L 526.7,136.8 L 533.1,136.8 L 539.5,135.3 L 545.9,135.3 L 552.3,135.3 L 558.7,133.1 L 565.1,132.8 L 571.5,132.4 L 577.9,132.4 L 584.3,132.0 L 590.7,130.6 L 597.1,129.8 L 603.5,128.7 L 609.9,128.7 L 616.3,128.3 L 622.7,126.9 L 629.1,125.8 L 635.5,125.8 L 641.9,125.4 L 648.3,124.7 L 654.7,122.1 L 661.1,121.3 L 667.5,120.2 L 673.9,120.2 L 680.3,119.5 L 686.8,119.1 L 693.2,118.8 L 699.6,118.4 L 706.0,118.0 L 712.4,118.0 L 718.8,117.6 L 725.2,117.3 L 731.6,116.2 L 738.0,114.7 L 744.4,114.3 L 750.8,113.2 L 757.2,113.2 L 763.6,111.7 L 770.0,111.4" fill="none" stroke="#34C759" stroke-width="2.5" stroke-linejoin="round" clip-path="url(#ca)"/>
<path d="M 72.0,340 L 72.0,193.2 L 78.4,193.2 L 84.8,192.9 L 91.2,191.8 L 97.6,192.1 L 104.0,192.1 L 110.4,190.7 L 116.8,189.6 L 123.2,189.6 L 129.6,189.9 L 136.0,189.6 L 142.4,189.2 L 148.8,188.8 L 155.2,188.8 L 161.7,188.8 L 168.1,189.2 L 174.5,188.4 L 180.9,187.7 L 187.3,185.5 L 193.7,184.0 L 200.1,184.0 L 206.5,183.7 L 212.9,181.4 L 219.3,178.1 L 225.7,177.0 L 232.1,176.3 L 238.5,173.7 L 244.9,171.9 L 251.3,171.1 L 257.7,170.4 L 264.1,169.6 L 270.5,169.3 L 276.9,169.3 L 283.3,166.7 L 289.7,166.0 L 296.1,165.2 L 302.5,165.2 L 308.9,163.4 L 315.3,163.0 L 321.7,161.9 L 328.1,160.4 L 334.6,158.6 L 341.0,156.0 L 347.4,153.4 L 353.8,153.0 L 360.2,152.3 L 366.6,151.6 L 373.0,149.4 L 379.4,149.4 L 385.8,148.6 L 392.2,147.5 L 398.6,146.8 L 405.0,145.3 L 411.4,145.7 L 417.8,141.2 L 424.2,140.9 L 430.6,140.5 L 437.0,139.8 L 443.4,137.6 L 449.8,137.6 L 456.2,135.3 L 462.6,132.8 L 469.0,132.8 L 475.4,132.8 L 481.8,132.4 L 488.2,132.0 L 494.6,131.7 L 501.0,129.8 L 507.4,127.6 L 513.9,126.9 L 520.3,125.4 L 526.7,125.4 L 533.1,124.3 L 539.5,122.1 L 545.9,121.0 L 552.3,120.6 L 558.7,118.0 L 565.1,117.6 L 571.5,117.6 L 577.9,117.3 L 584.3,117.3 L 590.7,115.4 L 597.1,114.7 L 603.5,113.6 L 609.9,113.2 L 616.3,112.5 L 622.7,109.5 L 629.1,105.5 L 635.5,105.1 L 641.9,104.4 L 648.3,104.0 L 654.7,102.2 L 661.1,63.1 L 667.5,62.3 L 673.9,60.5 L 680.3,60.5 L 686.8,60.5 L 693.2,60.9 L 699.6,60.5 L 706.0,58.3 L 712.4,57.5 L 718.8,57.2 L 725.2,56.8 L 731.6,55.3 L 738.0,53.1 L 744.4,53.1 L 750.8,53.1 L 757.2,52.7 L 763.6,52.4 L 770.0,52.4 L 770.0,340 Z" fill="url(#g6)" clip-path="url(#ca)"/>
<path d="M 72.0,193.2 L 78.4,193.2 L 84.8,192.9 L 91.2,191.8 L 97.6,192.1 L 104.0,192.1 L 110.4,190.7 L 116.8,189.6 L 123.2,189.6 L 129.6,189.9 L 136.0,189.6 L 142.4,189.2 L 148.8,188.8 L 155.2,188.8 L 161.7,188.8 L 168.1,189.2 L 174.5,188.4 L 180.9,187.7 L 187.3,185.5 L 193.7,184.0 L 200.1,184.0 L 206.5,183.7 L 212.9,181.4 L 219.3,178.1 L 225.7,177.0 L 232.1,176.3 L 238.5,173.7 L 244.9,171.9 L 251.3,171.1 L 257.7,170.4 L 264.1,169.6 L 270.5,169.3 L 276.9,169.3 L 283.3,166.7 L 289.7,166.0 L 296.1,165.2 L 302.5,165.2 L 308.9,163.4 L 315.3,163.0 L 321.7,161.9 L 328.1,160.4 L 334.6,158.6 L 341.0,156.0 L 347.4,153.4 L 353.8,153.0 L 360.2,152.3 L 366.6,151.6 L 373.0,149.4 L 379.4,149.4 L 385.8,148.6 L 392.2,147.5 L 398.6,146.8 L 405.0,145.3 L 411.4,145.7 L 417.8,141.2 L 424.2,140.9 L 430.6,140.5 L 437.0,139.8 L 443.4,137.6 L 449.8,137.6 L 456.2,135.3 L 462.6,132.8 L 469.0,132.8 L 475.4,132.8 L 481.8,132.4 L 488.2,132.0 L 494.6,131.7 L 501.0,129.8 L 507.4,127.6 L 513.9,126.9 L 520.3,125.4 L 526.7,125.4 L 533.1,124.3 L 539.5,122.1 L 545.9,121.0 L 552.3,120.6 L 558.7,118.0 L 565.1,117.6 L 571.5,117.6 L 577.9,117.3 L 584.3,117.3 L 590.7,115.4 L 597.1,114.7 L 603.5,113.6 L 609.9,113.2 L 616.3,112.5 L 622.7,109.5 L 629.1,105.5 L 635.5,105.1 L 641.9,104.4 L 648.3,104.0 L 654.7,102.2 L 661.1,63.1 L 667.5,62.3 L 673.9,60.5 L 680.3,60.5 L 686.8,60.5 L 693.2,60.9 L 699.6,60.5 L 706.0,58.3 L 712.4,57.5 L 718.8,57.2 L 725.2,56.8 L 731.6,55.3 L 738.0,53.1 L 744.4,53.1 L 750.8,53.1 L 757.2,52.7 L 763.6,52.4 L 770.0,52.4" fill="none" stroke="#4F8EF7" stroke-width="2.5" stroke-linejoin="round" clip-path="url(#ca)"/>
<path d="M 72.0,340 L 72.0,337.8 L 78.4,337.4 L 84.8,337.4 L 91.2,337.1 L 97.6,337.1 L 104.0,337.1 L 110.4,337.1 L 116.8,337.1 L 123.2,336.3 L 129.6,336.3 L 136.0,336.3 L 142.4,336.3 L 148.8,336.3 L 155.2,335.9 L 161.7,335.9 L 168.1,335.9 L 174.5,335.9 L 180.9,335.9 L 187.3,335.6 L 193.7,334.8 L 200.1,334.5 L 206.5,334.5 L 212.9,334.5 L 219.3,334.1 L 225.7,334.1 L 232.1,334.1 L 238.5,333.7 L 244.9,333.7 L 251.3,333.7 L 257.7,333.4 L 264.1,333.4 L 270.5,333.4 L 276.9,333.4 L 283.3,333.0 L 289.7,333.0 L 296.1,333.0 L 302.5,333.0 L 308.9,333.0 L 315.3,333.0 L 321.7,333.0 L 328.1,333.0 L 334.6,333.0 L 341.0,333.0 L 347.4,333.0 L 353.8,333.0 L 360.2,333.0 L 366.6,332.6 L 373.0,332.6 L 379.4,332.6 L 385.8,332.6 L 392.2,332.6 L 398.6,332.6 L 405.0,332.6 L 411.4,332.6 L 417.8,332.6 L 424.2,332.6 L 430.6,332.6 L 437.0,332.6 L 443.4,332.3 L 449.8,332.3 L 456.2,332.3 L 462.6,332.3 L 469.0,332.3 L 475.4,332.3 L 481.8,332.3 L 488.2,332.3 L 494.6,332.3 L 501.0,332.3 L 507.4,332.3 L 513.9,332.3 L 520.3,332.3 L 526.7,332.3 L 533.1,332.3 L 539.5,332.3 L 545.9,332.3 L 552.3,332.3 L 558.7,332.3 L 565.1,332.3 L 571.5,332.3 L 577.9,332.3 L 584.3,332.3 L 590.7,332.3 L 597.1,332.3 L 603.5,332.3 L 609.9,332.3 L 616.3,332.3 L 622.7,332.3 L 629.1,332.3 L 635.5,332.3 L 641.9,332.3 L 648.3,332.3 L 654.7,332.3 L 661.1,332.3 L 667.5,332.3 L 673.9,331.9 L 680.3,331.9 L 686.8,331.9 L 693.2,331.9 L 699.6,331.9 L 706.0,331.5 L 712.4,331.5 L 718.8,331.5 L 725.2,331.5 L 731.6,331.1 L 738.0,331.1 L 744.4,330.8 L 750.8,330.8 L 757.2,330.8 L 763.6,330.8 L 770.0,330.8 L 770.0,340 Z" fill="url(#g7)" clip-path="url(#ca)"/>
<path d="M 72.0,337.8 L 78.4,337.4 L 84.8,337.4 L 91.2,337.1 L 97.6,337.1 L 104.0,337.1 L 110.4,337.1 L 116.8,337.1 L 123.2,336.3 L 129.6,336.3 L 136.0,336.3 L 142.4,336.3 L 148.8,336.3 L 155.2,335.9 L 161.7,335.9 L 168.1,335.9 L 174.5,335.9 L 180.9,335.9 L 187.3,335.6 L 193.7,334.8 L 200.1,334.5 L 206.5,334.5 L 212.9,334.5 L 219.3,334.1 L 225.7,334.1 L 232.1,334.1 L 238.5,333.7 L 244.9,333.7 L 251.3,333.7 L 257.7,333.4 L 264.1,333.4 L 270.5,333.4 L 276.9,333.4 L 283.3,333.0 L 289.7,333.0 L 296.1,333.0 L 302.5,333.0 L 308.9,333.0 L 315.3,333.0 L 321.7,333.0 L 328.1,333.0 L 334.6,333.0 L 341.0,333.0 L 347.4,333.0 L 353.8,333.0 L 360.2,333.0 L 366.6,332.6 L 373.0,332.6 L 379.4,332.6 L 385.8,332.6 L 392.2,332.6 L 398.6,332.6 L 405.0,332.6 L 411.4,332.6 L 417.8,332.6 L 424.2,332.6 L 430.6,332.6 L 437.0,332.6 L 443.4,332.3 L 449.8,332.3 L 456.2,332.3 L 462.6,332.3 L 469.0,332.3 L 475.4,332.3 L 481.8,332.3 L 488.2,332.3 L 494.6,332.3 L 501.0,332.3 L 507.4,332.3 L 513.9,332.3 L 520.3,332.3 L 526.7,332.3 L 533.1,332.3 L 539.5,332.3 L 545.9,332.3 L 552.3,332.3 L 558.7,332.3 L 565.1,332.3 L 571.5,332.3 L 577.9,332.3 L 584.3,332.3 L 590.7,332.3 L 597.1,332.3 L 603.5,332.3 L 609.9,332.3 L 616.3,332.3 L 622.7,332.3 L 629.1,332.3 L 635.5,332.3 L 641.9,332.3 L 648.3,332.3 L 654.7,332.3 L 661.1,332.3 L 667.5,332.3 L 673.9,331.9 L 680.3,331.9 L 686.8,331.9 L 693.2,331.9 L 699.6,331.9 L 706.0,331.5 L 712.4,331.5 L 718.8,331.5 L 725.2,331.5 L 731.6,331.1 L 738.0,331.1 L 744.4,330.8 L 750.8,330.8 L 757.2,330.8 L 763.6,330.8 L 770.0,330.8" fill="none" stroke="#FF6363" stroke-width="2.5" stroke-linejoin="round" clip-path="url(#ca)"/>
<text x="107.2" y="55.0" text-anchor="middle" font-size="9" fill="#34C759" opacity="0.85" clip-path="url(#ca)">+15.2% (+50)</text>
<text x="107.2" y="66.0" text-anchor="middle" font-size="9" fill="#4F8EF7" opacity="0.85" clip-path="url(#ca)">+2.8% (+11)</text>
<text x="107.2" y="77.0" text-anchor="middle" font-size="9" fill="#FF6363" opacity="0.85" clip-path="url(#ca)">+66.7% (+4)</text>
<text x="228.9" y="55.0" text-anchor="middle" font-size="9" fill="#34C759" opacity="0.85" clip-path="url(#ca)">+20.1% (+77)</text>
<text x="228.9" y="66.0" text-anchor="middle" font-size="9" fill="#4F8EF7" opacity="0.85" clip-path="url(#ca)">+16.8% (+69)</text>
<text x="228.9" y="77.0" text-anchor="middle" font-size="9" fill="#FF6363" opacity="0.85" clip-path="url(#ca)">+90.0% (+9)</text>
<text x="398.6" y="55.0" text-anchor="middle" font-size="9" fill="#34C759" opacity="0.85" clip-path="url(#ca)">+16.1% (+74)</text>
<text x="398.6" y="66.0" text-anchor="middle" font-size="9" fill="#4F8EF7" opacity="0.85" clip-path="url(#ca)">+17.3% (+83)</text>
<text x="398.6" y="77.0" text-anchor="middle" font-size="9" fill="#FF6363" opacity="0.85" clip-path="url(#ca)">+10.5% (+2)</text>
<text x="571.5" y="55.0" text-anchor="middle" font-size="9" fill="#34C759" opacity="0.85" clip-path="url(#ca)">+10.5% (+56)</text>
<text x="571.5" y="66.0" text-anchor="middle" font-size="9" fill="#4F8EF7" opacity="0.85" clip-path="url(#ca)">+14.4% (+81)</text>
<text x="571.5" y="77.0" text-anchor="middle" font-size="9" fill="#FF6363" opacity="0.85" clip-path="url(#ca)">+0.0% (+0)</text>
<text x="715.6" y="55.0" text-anchor="middle" font-size="9" fill="#34C759" opacity="0.85" clip-path="url(#ca)">+4.6% (+27)</text>
<text x="715.6" y="66.0" text-anchor="middle" font-size="9" fill="#4F8EF7" opacity="0.85" clip-path="url(#ca)">+3.9% (+29)</text>
<text x="715.6" y="77.0" text-anchor="middle" font-size="9" fill="#FF6363" opacity="0.85" clip-path="url(#ca)">+19.0% (+4)</text>
<rect x="211" y="369" width="12" height="12" fill="#34C759" rx="2"/>
<text x="227" y="379" font-size="12" fill="#111827">macOS + Windows</text>
<rect x="351" y="369" width="12" height="12" fill="#4F8EF7" rx="2"/>
<text x="367" y="379" font-size="12" fill="#111827">macOS only</text>
<rect x="491" y="369" width="12" height="12" fill="#FF6363" rx="2"/>
<text x="507" y="379" font-size="12" fill="#111827">Windows only</text>
<text x="72" y="394" font-size="8" fill="#e5e7eb">data since Dec 11, 2025</text>
</svg>