<svg xmlns="http://www.w3.org/2000/svg" width="800" height="400" viewBox="0 0 800 400">
<defs>
  <style>text { font-family: -apple-system, BlinkMacSystemFont, 'Segoe UI', Roboto, sans-serif; }</style>
  <linearGradient id="g2" x1="0" y1="0" x2="0" y2="1">
  <stop offset="0%" stop-color="#4F8EF7" stop-opacity="0.25"/>
  <stop offset="100%" stop-color="#4F8EF7" stop-opacity="0"/>
</linearGradient>
<linearGradient id="g3" x1="0" y1="0" x2="0" y2="1">
  <stop offset="0%" stop-color="#BF5AF2" stop-opacity="0.25"/>
  <stop offset="100%" stop-color="#BF5AF2" stop-opacity="0"/>
</linearGradient>
<linearGradient id="g4" x1="0" y1="0" x2="0" y2="1">
  <stop offset="0%" stop-color="#34C759" stop-opacity="0.25"/>
  <stop offset="100%" stop-color="#34C759" stop-opacity="0"/>
</linearGradient>
  <clipPath id="ca"><rect x="72" y="45" width="698" height="295"/></clipPath>
</defs>
<rect width="800" height="400" fill="#ffffff" rx="12"/>
<text x="400" y="26" text-anchor="middle" font-size="15" font-weight="600" fill="#111827">Community Growth Over Time</text>
<line x1="72" y1="340.0" x2="770" y2="340.0" stroke="#f3f4f6" stroke-width="1"/>
<text x="66" y="344.0" text-anchor="end" font-size="11" fill="#6b7280">500</text>
<line x1="72" y1="266.3" x2="770" y2="266.3" stroke="#f3f4f6" stroke-width="1"/>
<text x="66" y="270.3" text-anchor="end" font-size="11" fill="#6b7280">1.0k</text>
<line x1="72" y1="192.5" x2="770" y2="192.5" stroke="#f3f4f6" stroke-width="1"/>
<text x="66" y="196.5" text-anchor="end" font-size="11" fill="#6b7280">1.5k</text>
<line x1="72" y1="118.8" x2="770" y2="118.8" stroke="#f3f4f6" stroke-width="1"/>
<text x="66" y="122.8" text-anchor="end" font-size="11" fill="#6b7280">2.0k</text>
<line x1="72" y1="45.0" x2="770" y2="45.0" stroke="#f3f4f6" stroke-width="1"/>
<text x="66" y="49.0" text-anchor="end" font-size="11" fill="#6b7280">2.5k</text>
<line x1="116.6" y1="45" x2="116.6" y2="340" stroke="#e5e7eb" stroke-width="1" stroke-dasharray="3,3" clip-path="url(#ca)"/>
<line x1="213.1" y1="45" x2="213.1" y2="340" stroke="#e5e7eb" stroke-width="1" stroke-dasharray="3,3" clip-path="url(#ca)"/>
<line x1="313.3" y1="45" x2="313.3" y2="340" stroke="#e5e7eb" stroke-width="1" stroke-dasharray="3,3" clip-path="url(#ca)"/>
<line x1="413.6" y1="45" x2="413.6" y2="340" stroke="#e5e7eb" stroke-width="1" stroke-dasharray="3,3" clip-path="url(#ca)"/>
<line x1="513.8" y1="45" x2="513.8" y2="340" stroke="#e5e7eb" stroke-width="1" stroke-dasharray="3,3" clip-path="url(#ca)"/>
<line x1="610.4" y1="45" x2="610.4" y2="340" stroke="#e5e7eb" stroke-width="1" stroke-dasharray="3,3" clip-path="url(#ca)"/>
<line x1="699.5" y1="45" x2="699.5" y2="340" stroke="#e5e7eb" stroke-width="1" stroke-dasharray="3,3" clip-path="url(#ca)"/>
<text x="72.0" y="358.0" text-anchor="middle" font-size="11" fill="#6b7280">Dec 11</text>
<text x="213.1" y="358.0" text-anchor="middle" font-size="11" fill="#6b7280">Feb 1</text>
<text x="350.5" y="358.0" text-anchor="middle" font-size="11" fill="#6b7280">Mar 12</text>
<text x="491.5" y="358.0" text-anchor="middle" font-size="11" fill="#6b7280">Apr 24</text>
<text x="628.9" y="358.0" text-anchor="middle" font-size="11" fill="#6b7280">Jun 8</text>
<text x="770.0" y="358.0" text-anchor="middle" font-size="11" fill="#6b7280">Jul 23</text>
<line x1="72" y1="45" x2="72" y2="340" stroke="#e5e7eb" stroke-width="1"/>
<line x1="72" y1="340" x2="770" y2="340" stroke="#e5e7eb" stroke-width="1"/>
<text x="-192.5" y="18" text-anchor="middle" font-size="12" fill="#6b7280" transform="rotate(-90)">People</text>
<path d="M 72.0,340 L 72.0,175.1 L 75.7,175.1 L 79.4,175.1 L 83.1,174.7 L 86.9,174.7 L 90.6,174.4 L 94.3,174.2 L 98.0,174.4 L 101.7,173.9 L 105.4,173.9 L 109.1,173.9 L 112.8,173.9 L 116.6,173.9 L 120.3,173.9 L 124.0,173.9 L 127.7,173.9 L 131.4,173.8 L 135.1,173.3 L 138.8,172.4 L 142.5,172.0 L 146.3,171.9 L 150.0,171.9 L 153.7,171.4 L 157.4,170.4 L 161.1,169.8 L 164.8,169.8 L 168.5,169.0 L 172.2,168.8 L 176.0,168.2 L 179.7,167.7 L 183.4,167.3 L 187.1,166.8 L 190.8,166.8 L 194.5,165.8 L 198.2,165.2 L 201.9,165.2 L 205.7,164.6 L 209.4,164.3 L 213.1,164.2 L 216.8,164.0 L 220.5,164.0 L 224.2,163.6 L 227.9,161.8 L 231.6,160.8 L 235.4,160.2 L 239.1,160.1 L 242.8,159.8 L 246.5,159.2 L 250.2,158.9 L 253.9,158.6 L 257.6,158.3 L 261.4,158.0 L 265.1,157.7 L 268.8,157.7 L 272.5,156.2 L 276.2,156.2 L 279.9,156.1 L 283.6,155.9 L 287.3,155.6 L 291.1,155.6 L 294.8,154.9 L 298.5,154.0 L 302.2,153.7 L 305.9,154.0 L 309.6,153.9 L 313.3,153.7 L 317.0,153.7 L 320.8,153.4 L 324.5,152.8 L 328.2,152.5 L 331.9,152.2 L 335.6,152.1 L 339.3,152.1 L 343.0,151.5 L 346.7,151.2 L 350.5,151.2 L 354.2,150.0 L 357.9,150.0 L 361.6,150.0 L 365.3,150.0 L 369.0,149.9 L 372.7,149.4 L 376.4,148.8 L 380.2,148.5 L 383.9,148.5 L 387.6,148.3 L 391.3,147.1 L 395.0,146.3 L 398.7,146.2 L 402.4,146.0 L 406.1,145.6 L 409.9,144.7 L 413.6,144.4 L 417.3,144.1 L 421.0,143.2 L 424.7,143.1 L 428.4,143.1 L 432.1,143.1 L 435.9,142.9 L 439.6,142.1 L 443.3,141.9 L 447.0,141.8 L 450.7,141.8 L 454.4,141.5 L 458.1,140.3 L 461.8,140.1 L 465.6,140.0 L 469.3,140.0 L 473.0,139.4 L 476.7,139.3 L 480.4,139.1 L 484.1,138.7 L 487.8,138.1 L 491.5,138.1 L 495.3,138.1 L 499.0,138.1 L 502.7,137.8 L 506.4,137.3 L 510.1,137.2 L 513.8,136.7 L 517.5,136.6 L 521.2,136.5 L 525.0,135.9 L 528.7,135.4 L 532.4,135.3 L 536.1,135.3 L 539.8,133.9 L 543.5,133.5 L 547.2,133.4 L 550.9,133.4 L 554.7,132.6 L 558.4,132.6 L 562.1,132.2 L 565.8,131.7 L 569.5,130.7 L 573.2,130.6 L 576.9,130.4 L 580.6,130.3 L 584.4,130.3 L 588.1,130.1 L 591.8,129.4 L 595.5,128.9 L 599.2,128.9 L 602.9,128.8 L 606.6,128.8 L 610.4,128.3 L 614.1,128.2 L 617.8,128.0 L 621.5,127.6 L 625.2,127.0 L 628.9,127.0 L 632.6,126.9 L 636.3,126.7 L 640.1,126.0 L 643.8,124.9 L 647.5,124.8 L 651.2,124.5 L 654.9,124.2 L 658.6,124.1 L 662.3,123.6 L 666.0,123.0 L 669.8,122.9 L 673.5,122.4 L 677.2,122.1 L 680.9,121.4 L 684.6,121.3 L 688.3,121.0 L 692.0,121.0 L 695.7,120.7 L 699.5,120.4 L 703.2,120.1 L 706.9,119.9 L 710.6,119.6 L 714.3,119.6 L 718.0,119.3 L 721.7,119.2 L 725.4,119.2 L 729.2,118.3 L 732.9,117.9 L 736.6,117.9 L 740.3,117.9 L 744.0,117.4 L 747.7,116.5 L 751.4,116.2 L 755.1,115.9 L 758.9,115.7 L 762.6,115.7 L 766.3,115.2 L 770.0,114.2 L 770.0,340 Z" fill="url(#g2)" clip-path="url(#ca)"/>
<path d="M 72.0,175.1 L 75.7,175.1 L 79.4,175.1 L 83.1,174.7 L 86.9,174.7 L 90.6,174.4 L 94.3,174.2 L 98.0,174.4 L 101.7,173.9 L 105.4,173.9 L 109.1,173.9 L 112.8,173.9 L 116.6,173.9 L 120.3,173.9 L 124.0,173.9 L 127.7,173.9 L 131.4,173.8 L 135.1,173.3 L 138.8,172.4 L 142.5,172.0 L 146.3,171.9 L 150.0,171.9 L 153.7,171.4 L 157.4,170.4 L 161.1,169.8 L 164.8,169.8 L 168.5,169.0 L 172.2,168.8 L 176.0,168.2 L 179.7,167.7 L 183.4,167.3 L 187.1,166.8 L 190.8,166.8 L 194.5,165.8 L 198.2,165.2 L 201.9,165.2 L 205.7,164.6 L 209.4,164.3 L 213.1,164.2 L 216.8,164.0 L 220.5,164.0 L 224.2,163.6 L 227.9,161.8 L 231.6,160.8 L 235.4,160.2 L 239.1,160.1 L 242.8,159.8 L 246.5,159.2 L 250.2,158.9 L 253.9,158.6 L 257.6,158.3 L 261.4,158.0 L 265.1,157.7 L 268.8,157.7 L 272.5,156.2 L 276.2,156.2 L 279.9,156.1 L 283.6,155.9 L 287.3,155.6 L 291.1,155.6 L 294.8,154.9 L 298.5,154.0 L 302.2,153.7 L 305.9,154.0 L 309.6,153.9 L 313.3,153.7 L 317.0,153.7 L 320.8,153.4 L 324.5,152.8 L 328.2,152.5 L 331.9,152.2 L 335.6,152.1 L 339.3,152.1 L 343.0,151.5 L 346.7,151.2 L 350.5,151.2 L 354.2,150.0 L 357.9,150.0 L 361.6,150.0 L 365.3,150.0 L 369.0,149.9 L 372.7,149.4 L 376.4,148.8 L 380.2,148.5 L 383.9,148.5 L 387.6,148.3 L 391.3,147.1 L 395.0,146.3 L 398.7,146.2 L 402.4,146.0 L 406.1,145.6 L 409.9,144.7 L 413.6,144.4 L 417.3,144.1 L 421.0,143.2 L 424.7,143.1 L 428.4,143.1 L 432.1,143.1 L 435.9,142.9 L 439.6,142.1 L 443.3,141.9 L 447.0,141.8 L 450.7,141.8 L 454.4,141.5 L 458.1,140.3 L 461.8,140.1 L 465.6,140.0 L 469.3,140.0 L 473.0,139.4 L 476.7,139.3 L 480.4,139.1 L 484.1,138.7 L 487.8,138.1 L 491.5,138.1 L 495.3,138.1 L 499.0,138.1 L 502.7,137.8 L 506.4,137.3 L 510.1,137.2 L 513.8,136.7 L 517.5,136.6 L 521.2,136.5 L 525.0,135.9 L 528.7,135.4 L 532.4,135.3 L 536.1,135.3 L 539.8,133.9 L 543.5,133.5 L 547.2,133.4 L 550.9,133.4 L 554.7,132.6 L 558.4,132.6 L 562.1,132.2 L 565.8,131.7 L 569.5,130.7 L 573.2,130.6 L 576.9,130.4 L 580.6,130.3 L 584.4,130.3 L 588.1,130.1 L 591.8,129.4 L 595.5,128.9 L 599.2,128.9 L 602.9,128.8 L 606.6,128.8 L 610.4,128.3 L 614.1,128.2 L 617.8,128.0 L 621.5,127.6 L 625.2,127.0 L 628.9,127.0 L 632.6,126.9 L 636.3,126.7 L 640.1,126.0 L 643.8,124.9 L 647.5,124.8 L 651.2,124.5 L 654.9,124.2 L 658.6,124.1 L 662.3,123.6 L 666.0,123.0 L 669.8,122.9 L 673.5,122.4 L 677.2,122.1 L 680.9,121.4 L 684.6,121.3 L 688.3,121.0 L 692.0,121.0 L 695.7,120.7 L 699.5,120.4 L 703.2,120.1 L 706.9,119.9 L 710.6,119.6 L 714.3,119.6 L 718.0,119.3 L 721.7,119.2 L 725.4,119.2 L 729.2,118.3 L 732.9,117.9 L 736.6,117.9 L 740.3,117.9 L 744.0,117.4 L 747.7,116.5 L 751.4,116.2 L 755.1,115.9 L 758.9,115.7 L 762.6,115.7 L 766.3,115.2 L 770.0,114.2" fill="none" stroke="#4F8EF7" stroke-width="2.5" stroke-linejoin="round" clip-path="url(#ca)"/>
<path d="M 72.0,340 L 72.0,268.2 L 75.7,267.7 L 79.4,267.7 L 83.1,267.7 L 86.9,267.6 L 90.6,267.3 L 94.3,267.1 L 98.0,267.0 L 101.7,267.0 L 105.4,266.8 L 109.1,266.7 L 112.8,266.7 L 116.6,266.7 L 120.3,266.7 L 124.0,266.7 L 127.7,266.7 L 131.4,266.4 L 135.1,266.4 L 138.8,266.4 L 142.5,265.8 L 146.3,265.7 L 150.0,265.4 L 153.7,264.8 L 157.4,264.6 L 161.1,264.6 L 164.8,264.6 L 168.5,264.2 L 172.2,263.9 L 176.0,263.9 L 179.7,263.6 L 183.4,263.4 L 187.1,263.2 L 190.8,263.2 L 194.5,263.0 L 198.2,262.4 L 201.9,262.0 L 205.7,261.7 L 209.4,261.5 L 213.1,261.5 L 216.8,261.4 L 220.5,261.1 L 224.2,261.1 L 227.9,260.9 L 231.6,260.5 L 235.4,260.2 L 239.1,260.2 L 242.8,260.2 L 246.5,260.2 L 250.2,260.1 L 253.9,259.6 L 257.6,259.3 L 261.4,259.2 L 265.1,259.0 L 268.8,258.9 L 272.5,258.7 L 276.2,258.6 L 279.9,258.4 L 283.6,258.0 L 287.3,257.8 L 291.1,257.7 L 294.8,257.1 L 298.5,256.5 L 302.2,256.5 L 305.9,256.4 L 309.6,256.2 L 313.3,256.2 L 317.0,256.2 L 320.8,255.9 L 324.5,255.9 L 328.2,255.0 L 331.9,254.9 L 335.6,254.7 L 339.3,254.7 L 343.0,254.4 L 346.7,254.3 L 350.5,254.3 L 354.2,254.2 L 357.9,254.2 L 361.6,254.2 L 365.3,253.9 L 369.0,253.7 L 372.7,253.0 L 376.4,253.1 L 380.2,253.0 L 383.9,252.8 L 387.6,252.8 L 391.3,252.7 L 395.0,252.2 L 398.7,252.2 L 402.4,252.2 L 406.1,252.2 L 409.9,251.9 L 413.6,251.9 L 417.3,251.6 L 421.0,251.4 L 424.7,250.8 L 428.4,250.8 L 432.1,250.5 L 435.9,250.3 L 439.6,250.2 L 443.3,250.0 L 447.0,249.7 L 450.7,249.7 L 454.4,249.3 L 458.1,249.3 L 461.8,249.1 L 465.6,248.8 L 469.3,248.7 L 473.0,248.7 L 476.7,248.7 L 480.4,248.7 L 484.1,248.7 L 487.8,248.3 L 491.5,248.3 L 495.3,248.0 L 499.0,247.7 L 502.7,247.2 L 506.4,247.1 L 510.1,247.1 L 513.8,246.2 L 517.5,246.0 L 521.2,246.0 L 525.0,245.5 L 528.7,245.5 L 532.4,245.2 L 536.1,245.2 L 539.8,245.0 L 543.5,245.0 L 547.2,244.9 L 550.9,244.6 L 554.7,244.6 L 558.4,244.4 L 562.1,244.3 L 565.8,244.1 L 569.5,244.0 L 573.2,244.0 L 576.9,243.7 L 580.6,243.7 L 584.4,243.7 L 588.1,242.9 L 591.8,242.9 L 595.5,242.9 L 599.2,242.9 L 602.9,242.9 L 606.6,242.9 L 610.4,242.6 L 614.1,242.6 L 617.8,242.4 L 621.5,241.8 L 625.2,241.5 L 628.9,241.3 L 632.6,241.3 L 636.3,241.2 L 640.1,240.7 L 643.8,240.6 L 647.5,240.6 L 651.2,240.3 L 654.9,239.8 L 658.6,239.6 L 662.3,239.6 L 666.0,239.4 L 669.8,239.4 L 673.5,239.0 L 677.2,238.8 L 680.9,238.8 L 684.6,238.5 L 688.3,238.5 L 692.0,238.2 L 695.7,237.8 L 699.5,237.8 L 703.2,237.6 L 706.9,237.5 L 710.6,237.3 L 714.3,237.3 L 718.0,237.2 L 721.7,237.2 L 725.4,236.9 L 729.2,236.3 L 732.9,236.2 L 736.6,236.2 L 740.3,235.0 L 744.0,235.0 L 747.7,234.5 L 751.4,234.5 L 755.1,234.5 L 758.9,234.5 L 762.6,234.5 L 766.3,234.5 L 770.0,234.2 L 770.0,340 Z" fill="url(#g3)" clip-path="url(#ca)"/>
<path d="M 72.0,268.2 L 75.7,267.7 L 79.4,267.7 L 83.1,267.7 L 86.9,267.6 L 90.6,267.3 L 94.3,267.1 L 98.0,267.0 L 101.7,267.0 L 105.4,266.8 L 109.1,266.7 L 112.8,266.7 L 116.6,266.7 L 120.3,266.7 L 124.0,266.7 L 127.7,266.7 L 131.4,266.4 L 135.1,266.4 L 138.8,266.4 L 142.5,265.8 L 146.3,265.7 L 150.0,265.4 L 153.7,264.8 L 157.4,264.6 L 161.1,264.6 L 164.8,264.6 L 168.5,264.2 L 172.2,263.9 L 176.0,263.9 L 179.7,263.6 L 183.4,263.4 L 187.1,263.2 L 190.8,263.2 L 194.5,263.0 L 198.2,262.4 L 201.9,262.0 L 205.7,261.7 L 209.4,261.5 L 213.1,261.5 L 216.8,261.4 L 220.5,261.1 L 224.2,261.1 L 227.9,260.9 L 231.6,260.5 L 235.4,260.2 L 239.1,260.2 L 242.8,260.2 L 246.5,260.2 L 250.2,260.1 L 253.9,259.6 L 257.6,259.3 L 261.4,259.2 L 265.1,259.0 L 268.8,258.9 L 272.5,258.7 L 276.2,258.6 L 279.9,258.4 L 283.6,258.0 L 287.3,257.8 L 291.1,257.7 L 294.8,257.1 L 298.5,256.5 L 302.2,256.5 L 305.9,256.4 L 309.6,256.2 L 313.3,256.2 L 317.0,256.2 L 320.8,255.9 L 324.5,255.9 L 328.2,255.0 L 331.9,254.9 L 335.6,254.7 L 339.3,254.7 L 343.0,254.4 L 346.7,254.3 L 350.5,254.3 L 354.2,254.2 L 357.9,254.2 L 361.6,254.2 L 365.3,253.9 L 369.0,253.7 L 372.7,253.0 L 376.4,253.1 L 380.2,253.0 L 383.9,252.8 L 387.6,252.8 L 391.3,252.7 L 395.0,252.2 L 398.7,252.2 L 402.4,252.2 L 406.1,252.2 L 409.9,251.9 L 413.6,251.9 L 417.3,251.6 L 421.0,251.4 L 424.7,250.8 L 428.4,250.8 L 432.1,250.5 L 435.9,250.3 L 439.6,250.2 L 443.3,250.0 L 447.0,249.7 L 450.7,249.7 L 454.4,249.3 L 458.1,249.3 L 461.8,249.1 L 465.6,248.8 L 469.3,248.7 L 473.0,248.7 L 476.7,248.7 L 480.4,248.7 L 484.1,248.7 L 487.8,248.3 L 491.5,248.3 L 495.3,248.0 L 499.0,247.7 L 502.7,247.2 L 506.4,247.1 L 510.1,247.1 L 513.8,246.2 L 517.5,246.0 L 521.2,246.0 L 525.0,245.5 L 528.7,245.5 L 532.4,245.2 L 536.1,245.2 L 539.8,245.0 L 543.5,245.0 L 547.2,244.9 L 550.9,244.6 L 554.7,244.6 L 558.4,244.4 L 562.1,244.3 L 565.8,244.1 L 569.5,244.0 L 573.2,244.0 L 576.9,243.7 L 580.6,243.7 L 584.4,243.7 L 588.1,242.9 L 591.8,242.9 L 595.5,242.9 L 599.2,242.9 L 602.9,242.9 L 606.6,242.9 L 610.4,242.6 L 614.1,242.6 L 617.8,242.4 L 621.5,241.8 L 625.2,241.5 L 628.9,241.3 L 632.6,241.3 L 636.3,241.2 L 640.1,240.7 L 643.8,240.6 L 647.5,240.6 L 651.2,240.3 L 654.9,239.8 L 658.6,239.6 L 662.3,239.6 L 666.0,239.4 L 669.8,239.4 L 673.5,239.0 L 677.2,238.8 L 680.9,238.8 L 684.6,238.5 L 688.3,238.5 L 692.0,238.2 L 695.7,237.8 L 699.5,237.8 L 703.2,237.6 L 706.9,237.5 L 710.6,237.3 L 714.3,237.3 L 718.0,237.2 L 721.7,237.2 L 725.4,236.9 L 729.2,236.3 L 732.9,236.2 L 736.6,236.2 L 740.3,235.0 L 744.0,235.0 L 747.7,234.5 L 751.4,234.5 L 755.1,234.5 L 758.9,234.5 L 762.6,234.5 L 766.3,234.5 L 770.0,234.2" fill="none" stroke="#BF5AF2" stroke-width="2.5" stroke-linejoin="round" clip-path="url(#ca)"/>
<path d="M 72.0,340 L 72.0,303.6 L 75.7,303.1 L 79.4,303.1 L 83.1,303.1 L 86.9,303.0 L 90.6,302.7 L 94.3,302.5 L 98.0,302.2 L 101.7,302.2 L 105.4,302.1 L 109.1,301.9 L 112.8,301.9 L 116.6,301.9 L 120.3,301.9 L 124.0,301.9 L 127.7,301.9 L 131.4,301.6 L 135.1,301.6 L 138.8,301.8 L 142.5,301.4 L 146.3,301.5 L 150.0,301.1 L 153.7,300.6 L 157.4,300.5 L 161.1,300.6 L 164.8,300.6 L 168.5,300.2 L 172.2,300.0 L 176.0,300.0 L 179.7,299.7 L 183.4,299.6 L 187.1,299.3 L 190.8,299.3 L 194.5,299.1 L 198.2,298.7 L 201.9,298.3 L 205.7,298.0 L 209.4,298.0 L 213.1,298.0 L 216.8,297.8 L 220.5,297.5 L 224.2,297.5 L 227.9,297.4 L 231.6,296.9 L 235.4,296.8 L 239.1,296.8 L 242.8,296.8 L 246.5,296.8 L 250.2,296.6 L 253.9,296.2 L 257.6,296.0 L 261.4,295.9 L 265.1,295.8 L 268.8,295.8 L 272.5,295.6 L 276.2,295.6 L 279.9,295.6 L 283.6,295.2 L 287.3,295.2 L 291.1,295.2 L 294.8,294.9 L 298.5,294.4 L 302.2,294.4 L 305.9,294.3 L 309.6,294.1 L 313.3,294.1 L 317.0,294.1 L 320.8,293.8 L 324.5,293.8 L 328.2,292.9 L 331.9,292.8 L 335.6,292.7 L 339.3,292.7 L 343.0,292.5 L 346.7,292.5 L 350.5,292.5 L 354.2,292.5 L 357.9,292.5 L 361.6,292.5 L 365.3,292.2 L 369.0,292.1 L 372.7,291.3 L 376.4,291.5 L 380.2,291.5 L 383.9,291.3 L 387.6,291.3 L 391.3,291.3 L 395.0,291.0 L 398.7,291.0 L 402.4,291.0 L 406.1,291.0 L 409.9,291.0 L 413.6,291.0 L 417.3,290.9 L 421.0,290.9 L 424.7,290.3 L 428.4,290.3 L 432.1,290.1 L 435.9,290.0 L 439.6,289.9 L 443.3,289.7 L 447.0,289.4 L 450.7,289.4 L 454.4,289.0 L 458.1,289.0 L 461.8,288.8 L 465.6,288.7 L 469.3,288.7 L 473.0,288.7 L 476.7,288.7 L 480.4,288.7 L 484.1,288.7 L 487.8,288.2 L 491.5,288.2 L 495.3,287.9 L 499.0,287.6 L 502.7,287.2 L 506.4,287.0 L 510.1,287.0 L 513.8,286.3 L 517.5,286.2 L 521.2,286.2 L 525.0,285.7 L 528.7,285.7 L 532.4,285.6 L 536.1,285.6 L 539.8,285.7 L 543.5,285.9 L 547.2,285.7 L 550.9,285.4 L 554.7,285.6 L 558.4,285.4 L 562.1,285.3 L 565.8,285.3 L 569.5,285.3 L 573.2,285.3 L 576.9,285.0 L 580.6,285.0 L 584.4,285.0 L 588.1,284.4 L 591.8,284.4 L 595.5,284.4 L 599.2,284.4 L 602.9,284.4 L 606.6,284.4 L 610.4,284.1 L 614.1,284.1 L 617.8,283.8 L 621.5,283.2 L 625.2,283.1 L 628.9,283.1 L 632.6,283.1 L 636.3,283.1 L 640.1,282.8 L 643.8,282.6 L 647.5,282.6 L 651.2,282.5 L 654.9,282.0 L 658.6,281.7 L 662.3,281.7 L 666.0,281.6 L 669.8,281.6 L 673.5,281.4 L 677.2,281.3 L 680.9,281.3 L 684.6,281.1 L 688.3,281.1 L 692.0,280.9 L 695.7,280.4 L 699.5,280.4 L 703.2,280.3 L 706.9,280.4 L 710.6,280.3 L 714.3,280.3 L 718.0,280.1 L 721.7,280.1 L 725.4,280.0 L 729.2,279.5 L 732.9,279.5 L 736.6,279.5 L 740.3,278.6 L 744.0,278.8 L 747.7,278.3 L 751.4,278.3 L 755.1,278.3 L 758.9,278.3 L 762.6,278.3 L 766.3,278.5 L 770.0,278.2 L 770.0,340 Z" fill="url(#g4)" clip-path="url(#ca)"/>
<path d="M 72.0,303.6 L 75.7,303.1 L 79.4,303.1 L 83.1,303.1 L 86.9,303.0 L 90.6,302.7 L 94.3,302.5 L 98.0,302.2 L 101.7,302.2 L 105.4,302.1 L 109.1,301.9 L 112.8,301.9 L 116.6,301.9 L 120.3,301.9 L 124.0,301.9 L 127.7,301.9 L 131.4,301.6 L 135.1,301.6 L 138.8,301.8 L 142.5,301.4 L 146.3,301.5 L 150.0,301.1 L 153.7,300.6 L 157.4,300.5 L 161.1,300.6 L 164.8,300.6 L 168.5,300.2 L 172.2,300.0 L 176.0,300.0 L 179.7,299.7 L 183.4,299.6 L 187.1,299.3 L 190.8,299.3 L 194.5,299.1 L 198.2,298.7 L 201.9,298.3 L 205.7,298.0 L 209.4,298.0 L 213.1,298.0 L 216.8,297.8 L 220.5,297.5 L 224.2,297.5 L 227.9,297.4 L 231.6,296.9 L 235.4,296.8 L 239.1,296.8 L 242.8,296.8 L 246.5,296.8 L 250.2,296.6 L 253.9,296.2 L 257.6,296.0 L 261.4,295.9 L 265.1,295.8 L 268.8,295.8 L 272.5,295.6 L 276.2,295.6 L 279.9,295.6 L 283.6,295.2 L 287.3,295.2 L 291.1,295.2 L 294.8,294.9 L 298.5,294.4 L 302.2,294.4 L 305.9,294.3 L 309.6,294.1 L 313.3,294.1 L 317.0,294.1 L 320.8,293.8 L 324.5,293.8 L 328.2,292.9 L 331.9,292.8 L 335.6,292.7 L 339.3,292.7 L 343.0,292.5 L 346.7,292.5 L 350.5,292.5 L 354.2,292.5 L 357.9,292.5 L 361.6,292.5 L 365.3,292.2 L 369.0,292.1 L 372.7,291.3 L 376.4,291.5 L 380.2,291.5 L 383.9,291.3 L 387.6,291.3 L 391.3,291.3 L 395.0,291.0 L 398.7,291.0 L 402.4,291.0 L 406.1,291.0 L 409.9,291.0 L 413.6,291.0 L 417.3,290.9 L 421.0,290.9 L 424.7,290.3 L 428.4,290.3 L 432.1,290.1 L 435.9,290.0 L 439.6,289.9 L 443.3,289.7 L 447.0,289.4 L 450.7,289.4 L 454.4,289.0 L 458.1,289.0 L 461.8,288.8 L 465.6,288.7 L 469.3,288.7 L 473.0,288.7 L 476.7,288.7 L 480.4,288.7 L 484.1,288.7 L 487.8,288.2 L 491.5,288.2 L 495.3,287.9 L 499.0,287.6 L 502.7,287.2 L 506.4,287.0 L 510.1,287.0 L 513.8,286.3 L 517.5,286.2 L 521.2,286.2 L 525.0,285.7 L 528.7,285.7 L 532.4,285.6 L 536.1,285.6 L 539.8,285.7 L 543.5,285.9 L 547.2,285.7 L 550.9,285.4 L 554.7,285.6 L 558.4,285.4 L 562.1,285.3 L 565.8,285.3 L 569.5,285.3 L 573.2,285.3 L 576.9,285.0 L 580.6,285.0 L 584.4,285.0 L 588.1,284.4 L 591.8,284.4 L 595.5,284.4 L 599.2,284.4 L 602.9,284.4 L 606.6,284.4 L 610.4,284.1 L 614.1,284.1 L 617.8,283.8 L 621.5,283.2 L 625.2,283.1 L 628.9,283.1 L 632.6,283.1 L 636.3,283.1 L 640.1,282.8 L 643.8,282.6 L 647.5,282.6 L 651.2,282.5 L 654.9,282.0 L 658.6,281.7 L 662.3,281.7 L 666.0,281.6 L 669.8,281.6 L 673.5,281.4 L 677.2,281.3 L 680.9,281.3 L 684.6,281.1 L 688.3,281.1 L 692.0,280.9 L 695.7,280.4 L 699.5,280.4 L 703.2,280.3 L 706.9,280.4 L 710.6,280.3 L 714.3,280.3 L 718.0,280.1 L 721.7,280.1 L 725.4,280.0 L 729.2,279.5 L 732.9,279.5 L 736.6,279.5 L 740.3,278.6 L 744.0,278.8 L 747.7,278.3 L 751.4,278.3 L 755.1,278.3 L 758.9,278.3 L 762.6,278.3 L 766.3,278.5 L 770.0,278.2" fill="none" stroke="#34C759" stroke-width="2.5" stroke-linejoin="round" clip-path="url(#ca)"/>
<text x="92.4" y="55.0" text-anchor="middle" font-size="9" fill="#4F8EF7" opacity="0.85" clip-path="url(#ca)">+0.5% (+8)</text>
<text x="92.4" y="66.0" text-anchor="middle" font-size="9" fill="#BF5AF2" opacity="0.85" clip-path="url(#ca)">+1.0% (+10)</text>
<text x="92.4" y="77.0" text-anchor="middle" font-size="9" fill="#34C759" opacity="0.85" clip-path="url(#ca)">+1.5% (+11)</text>
<text x="163.0" y="55.0" text-anchor="middle" font-size="9" fill="#4F8EF7" opacity="0.85" clip-path="url(#ca)">+4.0% (+65)</text>
<text x="163.0" y="66.0" text-anchor="middle" font-size="9" fill="#BF5AF2" opacity="0.85" clip-path="url(#ca)">+3.5% (+35)</text>
<text x="163.0" y="77.0" text-anchor="middle" font-size="9" fill="#34C759" opacity="0.85" clip-path="url(#ca)">+3.6% (+27)</text>
<text x="261.4" y="55.0" text-anchor="middle" font-size="9" fill="#4F8EF7" opacity="0.85" clip-path="url(#ca)">+4.1% (+70)</text>
<text x="261.4" y="66.0" text-anchor="middle" font-size="9" fill="#BF5AF2" opacity="0.85" clip-path="url(#ca)">+3.5% (+36)</text>
<text x="261.4" y="77.0" text-anchor="middle" font-size="9" fill="#34C759" opacity="0.85" clip-path="url(#ca)">+3.3% (+26)</text>
<text x="361.6" y="55.0" text-anchor="middle" font-size="9" fill="#4F8EF7" opacity="0.85" clip-path="url(#ca)">+3.5% (+61)</text>
<text x="361.6" y="66.0" text-anchor="middle" font-size="9" fill="#BF5AF2" opacity="0.85" clip-path="url(#ca)">+2.7% (+29)</text>
<text x="361.6" y="77.0" text-anchor="middle" font-size="9" fill="#34C759" opacity="0.85" clip-path="url(#ca)">+2.6% (+21)</text>
<text x="461.8" y="55.0" text-anchor="middle" font-size="9" fill="#4F8EF7" opacity="0.85" clip-path="url(#ca)">+2.7% (+49)</text>
<text x="461.8" y="66.0" text-anchor="middle" font-size="9" fill="#BF5AF2" opacity="0.85" clip-path="url(#ca)">+3.0% (+33)</text>
<text x="461.8" y="77.0" text-anchor="middle" font-size="9" fill="#34C759" opacity="0.85" clip-path="url(#ca)">+3.2% (+27)</text>
<text x="560.2" y="55.0" text-anchor="middle" font-size="9" fill="#4F8EF7" opacity="0.85" clip-path="url(#ca)">+2.9% (+54)</text>
<text x="560.2" y="66.0" text-anchor="middle" font-size="9" fill="#BF5AF2" opacity="0.85" clip-path="url(#ca)">+1.9% (+22)</text>
<text x="560.2" y="77.0" text-anchor="middle" font-size="9" fill="#34C759" opacity="0.85" clip-path="url(#ca)">+1.5% (+13)</text>
<text x="653.0" y="55.0" text-anchor="middle" font-size="9" fill="#4F8EF7" opacity="0.85" clip-path="url(#ca)">+2.7% (+52)</text>
<text x="653.0" y="66.0" text-anchor="middle" font-size="9" fill="#BF5AF2" opacity="0.85" clip-path="url(#ca)">+2.8% (+33)</text>
<text x="653.0" y="77.0" text-anchor="middle" font-size="9" fill="#34C759" opacity="0.85" clip-path="url(#ca)">+2.8% (+25)</text>
<text x="734.7" y="55.0" text-anchor="middle" font-size="9" fill="#4F8EF7" opacity="0.85" clip-path="url(#ca)">+2.1% (+42)</text>
<text x="734.7" y="66.0" text-anchor="middle" font-size="9" fill="#BF5AF2" opacity="0.85" clip-path="url(#ca)">+2.0% (+24)</text>
<text x="734.7" y="77.0" text-anchor="middle" font-size="9" fill="#34C759" opacity="0.85" clip-path="url(#ca)">+1.7% (+15)</text>
<rect x="211" y="369" width="12" height="12" fill="#4F8EF7" rx="2"/>
<text x="227" y="379" font-size="12" fill="#111827">Authors</text>
<rect x="351" y="369" width="12" height="12" fill="#BF5AF2" rx="2"/>
<text x="367" y="379" font-size="12" fill="#111827">Contributors</text>
<rect x="491" y="369" width="12" height="12" fill="#34C759" rx="2"/>
<text x="507" y="379" font-size="12" fill="#111827">Non-author contributors</text>
<text x="72" y="394" font-size="8" fill="#e5e7eb">data since Dec 11, 2025</text>
</svg>