<svg xmlns="http://www.w3.org/2000/svg" width="800" height="400" viewBox="0 0 800 400">
<defs>
  <style>text { font-family: -apple-system, BlinkMacSystemFont, 'Segoe UI', Roboto, sans-serif; }</style>
  <linearGradient id="g2" x1="0" y1="0" x2="0" y2="1">
  <stop offset="0%" stop-color="#4F8EF7" stop-opacity="0.25"/>
  <stop offset="100%" stop-color="#4F8EF7" stop-opacity="0"/>
</linearGradient>
<linearGradient id="g3" x1="0" y1="0" x2="0" y2="1">
  <stop offset="0%" stop-color="#BF5AF2" stop-opacity="0.25"/>
  <stop offset="100%" stop-color="#BF5AF2" stop-opacity="0"/>
</linearGradient>
  <clipPath id="ca"><rect x="72" y="45" width="698" height="295"/></clipPath>
</defs>
<rect width="800" height="400" fill="#ffffff" rx="12"/>
<text x="400" y="26" text-anchor="middle" font-size="15" font-weight="600" fill="#111827">Community Growth Over Time</text>
<line x1="72" y1="340.0" x2="770" y2="340.0" stroke="#f3f4f6" stroke-width="1"/>
<text x="66" y="344.0" text-anchor="end" font-size="11" fill="#6b7280">907</text>
<line x1="72" y1="281.0" x2="770" y2="281.0" stroke="#f3f4f6" stroke-width="1"/>
<text x="66" y="285.0" text-anchor="end" font-size="11" fill="#6b7280">1.1k</text>
<line x1="72" y1="222.0" x2="770" y2="222.0" stroke="#f3f4f6" stroke-width="1"/>
<text x="66" y="226.0" text-anchor="end" font-size="11" fill="#6b7280">1.3k</text>
<line x1="72" y1="163.0" x2="770" y2="163.0" stroke="#f3f4f6" stroke-width="1"/>
<text x="66" y="167.0" text-anchor="end" font-size="11" fill="#6b7280">1.5k</text>
<line x1="72" y1="104.0" x2="770" y2="104.0" stroke="#f3f4f6" stroke-width="1"/>
<text x="66" y="108.0" text-anchor="end" font-size="11" fill="#6b7280">1.7k</text>
<line x1="72" y1="45.0" x2="770" y2="45.0" stroke="#f3f4f6" stroke-width="1"/>
<text x="66" y="49.0" text-anchor="end" font-size="11" fill="#6b7280">1.9k</text>
<line x1="180.8" y1="45" x2="180.8" y2="340" stroke="#e5e7eb" stroke-width="1" stroke-dasharray="3,3" clip-path="url(#ca)"/>
<line x1="416.5" y1="45" x2="416.5" y2="340" stroke="#e5e7eb" stroke-width="1" stroke-dasharray="3,3" clip-path="url(#ca)"/>
<line x1="661.2" y1="45" x2="661.2" y2="340" stroke="#e5e7eb" stroke-width="1" stroke-dasharray="3,3" clip-path="url(#ca)"/>
<text x="72.0" y="358.0" text-anchor="middle" font-size="11" fill="#6b7280">Dec 11</text>
<text x="208.0" y="358.0" text-anchor="middle" font-size="11" fill="#6b7280">Jan 6</text>
<text x="353.0" y="358.0" text-anchor="middle" font-size="11" fill="#6b7280">Jan 25</text>
<text x="489.0" y="358.0" text-anchor="middle" font-size="11" fill="#6b7280">Feb 9</text>
<text x="634.0" y="358.0" text-anchor="middle" font-size="11" fill="#6b7280">Feb 26</text>
<text x="770.0" y="358.0" text-anchor="middle" font-size="11" fill="#6b7280">Mar 14</text>
<line x1="72" y1="45" x2="72" y2="340" stroke="#e5e7eb" stroke-width="1"/>
<line x1="72" y1="340" x2="770" y2="340" stroke="#e5e7eb" stroke-width="1"/>
<text x="-192.5" y="18" text-anchor="middle" font-size="12" fill="#6b7280" transform="rotate(-90)">People</text>
<path d="M 72.0,340 L 72.0,121.8 L 81.1,121.8 L 90.1,121.8 L 99.2,120.8 L 108.3,120.8 L 117.3,120.2 L 126.4,119.9 L 135.5,120.2 L 144.5,119.3 L 153.6,119.3 L 162.6,119.3 L 171.7,119.3 L 180.8,119.3 L 189.8,119.3 L 198.9,119.3 L 208.0,119.3 L 217.0,119.0 L 226.1,118.1 L 235.2,116.2 L 244.2,115.3 L 253.3,115.0 L 262.4,115.0 L 271.4,114.1 L 280.5,111.9 L 289.6,110.7 L 298.6,110.7 L 307.7,109.2 L 316.8,108.6 L 325.8,107.3 L 334.9,106.4 L 343.9,105.5 L 353.0,104.6 L 362.1,104.6 L 371.1,102.4 L 380.2,101.2 L 389.3,101.2 L 398.3,100.0 L 407.4,99.4 L 416.5,99.0 L 425.5,98.7 L 434.6,98.7 L 443.7,97.8 L 452.7,94.1 L 461.8,92.0 L 470.9,90.8 L 479.9,90.5 L 489.0,89.8 L 498.1,88.6 L 507.1,88.0 L 516.2,87.4 L 525.2,86.8 L 534.3,86.2 L 543.4,85.5 L 552.4,85.5 L 561.5,82.5 L 570.6,82.5 L 579.6,82.2 L 588.7,81.9 L 597.8,81.2 L 606.8,81.2 L 615.9,79.7 L 625.0,77.9 L 634.0,77.3 L 643.1,77.9 L 652.2,77.6 L 661.2,77.3 L 670.3,77.3 L 679.4,76.6 L 688.4,75.4 L 697.5,74.8 L 706.5,74.2 L 715.6,73.9 L 724.7,73.9 L 733.7,72.7 L 742.8,72.0 L 751.9,72.0 L 760.9,69.6 L 770.0,69.6 L 770.0,340 Z" fill="url(#g2)" clip-path="url(#ca)"/>
<path d="M 72.0,121.8 L 81.1,121.8 L 90.1,121.8 L 99.2,120.8 L 108.3,120.8 L 117.3,120.2 L 126.4,119.9 L 135.5,120.2 L 144.5,119.3 L 153.6,119.3 L 162.6,119.3 L 171.7,119.3 L 180.8,119.3 L 189.8,119.3 L 198.9,119.3 L 208.0,119.3 L 217.0,119.0 L 226.1,118.1 L 235.2,116.2 L 244.2,115.3 L 253.3,115.0 L 262.4,115.0 L 271.4,114.1 L 280.5,111.9 L 289.6,110.7 L 298.6,110.7 L 307.7,109.2 L 316.8,108.6 L 325.8,107.3 L 334.9,106.4 L 343.9,105.5 L 353.0,104.6 L 362.1,104.6 L 371.1,102.4 L 380.2,101.2 L 389.3,101.2 L 398.3,100.0 L 407.4,99.4 L 416.5,99.0 L 425.5,98.7 L 434.6,98.7 L 443.7,97.8 L 452.7,94.1 L 461.8,92.0 L 470.9,90.8 L 479.9,90.5 L 489.0,89.8 L 498.1,88.6 L 507.1,88.0 L 516.2,87.4 L 525.2,86.8 L 534.3,86.2 L 543.4,85.5 L 552.4,85.5 L 561.5,82.5 L 570.6,82.5 L 579.6,82.2 L 588.7,81.9 L 597.8,81.2 L 606.8,81.2 L 615.9,79.7 L 625.0,77.9 L 634.0,77.3 L 643.1,77.9 L 652.2,77.6 L 661.2,77.3 L 670.3,77.3 L 679.4,76.6 L 688.4,75.4 L 697.5,74.8 L 706.5,74.2 L 715.6,73.9 L 724.7,73.9 L 733.7,72.7 L 742.8,72.0 L 751.9,72.0 L 760.9,69.6 L 770.0,69.6" fill="none" stroke="#4F8EF7" stroke-width="2.5" stroke-linejoin="round" clip-path="url(#ca)"/>
<path d="M 72.0,340 L 72.0,315.4 L 81.1,314.5 L 90.1,314.5 L 99.2,314.5 L 108.3,314.2 L 117.3,313.6 L 126.4,313.3 L 135.5,313.0 L 144.5,313.0 L 153.6,312.7 L 162.6,312.3 L 171.7,312.3 L 180.8,312.3 L 189.8,312.3 L 198.9,312.3 L 208.0,312.3 L 217.0,311.7 L 226.1,311.7 L 235.2,311.7 L 244.2,310.5 L 253.3,310.2 L 262.4,309.6 L 271.4,308.4 L 280.5,308.1 L 289.6,308.1 L 298.6,308.1 L 307.7,307.1 L 316.8,306.5 L 325.8,306.5 L 334.9,305.9 L 343.9,305.6 L 353.0,305.0 L 362.1,305.0 L 371.1,304.7 L 380.2,303.4 L 389.3,302.5 L 398.3,301.9 L 407.4,301.6 L 416.5,301.6 L 425.5,301.3 L 434.6,300.7 L 443.7,300.7 L 452.7,300.4 L 461.8,299.5 L 470.9,298.8 L 479.9,298.8 L 489.0,298.8 L 498.1,298.8 L 507.1,298.5 L 516.2,297.6 L 525.2,297.0 L 534.3,296.7 L 543.4,296.4 L 552.4,296.1 L 561.5,295.8 L 570.6,295.5 L 579.6,295.2 L 588.7,294.2 L 597.8,293.9 L 606.8,293.6 L 615.9,292.4 L 625.0,291.2 L 634.0,291.2 L 643.1,290.9 L 652.2,290.6 L 661.2,290.6 L 670.3,290.6 L 679.4,289.9 L 688.4,289.9 L 697.5,288.1 L 706.5,287.8 L 715.6,287.5 L 724.7,287.5 L 733.7,286.9 L 742.8,286.6 L 751.9,286.6 L 760.9,286.3 L 770.0,286.3 L 770.0,340 Z" fill="url(#g3)" clip-path="url(#ca)"/>
<path d="M 72.0,315.4 L 81.1,314.5 L 90.1,314.5 L 99.2,314.5 L 108.3,314.2 L 117.3,313.6 L 126.4,313.3 L 135.5,313.0 L 144.5,313.0 L 153.6,312.7 L 162.6,312.3 L 171.7,312.3 L 180.8,312.3 L 189.8,312.3 L 198.9,312.3 L 208.0,312.3 L 217.0,311.7 L 226.1,311.7 L 235.2,311.7 L 244.2,310.5 L 253.3,310.2 L 262.4,309.6 L 271.4,308.4 L 280.5,308.1 L 289.6,308.1 L 298.6,308.1 L 307.7,307.1 L 316.8,306.5 L 325.8,306.5 L 334.9,305.9 L 343.9,305.6 L 353.0,305.0 L 362.1,305.0 L 371.1,304.7 L 380.2,303.4 L 389.3,302.5 L 398.3,301.9 L 407.4,301.6 L 416.5,301.6 L 425.5,301.3 L 434.6,300.7 L 443.7,300.7 L 452.7,300.4 L 461.8,299.5 L 470.9,298.8 L 479.9,298.8 L 489.0,298.8 L 498.1,298.8 L 507.1,298.5 L 516.2,297.6 L 525.2,297.0 L 534.3,296.7 L 543.4,296.4 L 552.4,296.1 L 561.5,295.8 L 570.6,295.5 L 579.6,295.2 L 588.7,294.2 L 597.8,293.9 L 606.8,293.6 L 615.9,292.4 L 625.0,291.2 L 634.0,291.2 L 643.1,290.9 L 652.2,290.6 L 661.2,290.6 L 670.3,290.6 L 679.4,289.9 L 688.4,289.9 L 697.5,288.1 L 706.5,287.8 L 715.6,287.5 L 724.7,287.5 L 733.7,286.9 L 742.8,286.6 L 751.9,286.6 L 760.9,286.3 L 770.0,286.3" fill="none" stroke="#BF5AF2" stroke-width="2.5" stroke-linejoin="round" clip-path="url(#ca)"/>
<text x="121.9" y="55.0" text-anchor="middle" font-size="9" fill="#4F8EF7" opacity="0.85" clip-path="url(#ca)">+0.5%</text>
<text x="121.9" y="66.0" text-anchor="middle" font-size="9" fill="#BF5AF2" opacity="0.85" clip-path="url(#ca)">+1.0%</text>
<text x="294.1" y="55.0" text-anchor="middle" font-size="9" fill="#4F8EF7" opacity="0.85" clip-path="url(#ca)">+4.0%</text>
<text x="294.1" y="66.0" text-anchor="middle" font-size="9" fill="#BF5AF2" opacity="0.85" clip-path="url(#ca)">+3.5%</text>
<text x="534.3" y="55.0" text-anchor="middle" font-size="9" fill="#4F8EF7" opacity="0.85" clip-path="url(#ca)">+4.1%</text>
<text x="534.3" y="66.0" text-anchor="middle" font-size="9" fill="#BF5AF2" opacity="0.85" clip-path="url(#ca)">+3.5%</text>
<text x="715.6" y="55.0" text-anchor="middle" font-size="9" fill="#4F8EF7" opacity="0.85" clip-path="url(#ca)">+1.4%</text>
<text x="715.6" y="66.0" text-anchor="middle" font-size="9" fill="#BF5AF2" opacity="0.85" clip-path="url(#ca)">+1.3%</text>
<rect x="281" y="369" width="12" height="12" fill="#4F8EF7" rx="2"/>
<text x="297" y="379" font-size="12" fill="#111827">Authors</text>
<rect x="421" y="369" width="12" height="12" fill="#BF5AF2" rx="2"/>
<text x="437" y="379" font-size="12" fill="#111827">Contributors</text>
<text x="72" y="394" font-size="8" fill="#e5e7eb">data since Dec 11, 2025</text>
</svg>