<svg xmlns="http://www.w3.org/2000/svg" width="800" height="400" viewBox="0 0 800 400">
<defs>
  <style>text { font-family: -apple-system, BlinkMacSystemFont, 'Segoe UI', Roboto, sans-serif; }</style>
  <linearGradient id="g1" x1="0" y1="0" x2="0" y2="1">
  <stop offset="0%" stop-color="#FF6363" stop-opacity="0.25"/>
  <stop offset="100%" stop-color="#FF6363" stop-opacity="0"/>
</linearGradient>
  <clipPath id="ca"><rect x="72" y="45" width="698" height="295"/></clipPath>
</defs>
<rect width="800" height="400" fill="#ffffff" rx="12"/>
<text x="400" y="26" text-anchor="middle" font-size="15" font-weight="600" fill="#111827">Packages Growth Over Time</text>
<line x1="72" y1="340.0" x2="770" y2="340.0" stroke="#f3f4f6" stroke-width="1"/>
<text x="66" y="344.0" text-anchor="end" font-size="11" fill="#6b7280">2.4k</text>
<line x1="72" y1="266.3" x2="770" y2="266.3" stroke="#f3f4f6" stroke-width="1"/>
<text x="66" y="270.3" text-anchor="end" font-size="11" fill="#6b7280">2.6k</text>
<line x1="72" y1="192.5" x2="770" y2="192.5" stroke="#f3f4f6" stroke-width="1"/>
<text x="66" y="196.5" text-anchor="end" font-size="11" fill="#6b7280">2.8k</text>
<line x1="72" y1="118.8" x2="770" y2="118.8" stroke="#f3f4f6" stroke-width="1"/>
<text x="66" y="122.8" text-anchor="end" font-size="11" fill="#6b7280">3.0k</text>
<line x1="72" y1="45.0" x2="770" y2="45.0" stroke="#f3f4f6" stroke-width="1"/>
<text x="66" y="49.0" text-anchor="end" font-size="11" fill="#6b7280">3.2k</text>
<line x1="120.4" y1="45" x2="120.4" y2="340" stroke="#e5e7eb" stroke-width="1" stroke-dasharray="3,3" clip-path="url(#ca)"/>
<line x1="225.3" y1="45" x2="225.3" y2="340" stroke="#e5e7eb" stroke-width="1" stroke-dasharray="3,3" clip-path="url(#ca)"/>
<line x1="334.3" y1="45" x2="334.3" y2="340" stroke="#e5e7eb" stroke-width="1" stroke-dasharray="3,3" clip-path="url(#ca)"/>
<line x1="443.2" y1="45" x2="443.2" y2="340" stroke="#e5e7eb" stroke-width="1" stroke-dasharray="3,3" clip-path="url(#ca)"/>
<line x1="552.1" y1="45" x2="552.1" y2="340" stroke="#e5e7eb" stroke-width="1" stroke-dasharray="3,3" clip-path="url(#ca)"/>
<line x1="657.0" y1="45" x2="657.0" y2="340" stroke="#e5e7eb" stroke-width="1" stroke-dasharray="3,3" clip-path="url(#ca)"/>
<line x1="753.9" y1="45" x2="753.9" y2="340" stroke="#e5e7eb" stroke-width="1" stroke-dasharray="3,3" clip-path="url(#ca)"/>
<text x="72.0" y="358.0" text-anchor="middle" font-size="11" fill="#6b7280">Dec 11</text>
<text x="213.2" y="358.0" text-anchor="middle" font-size="11" fill="#6b7280">Jan 29</text>
<text x="350.4" y="358.0" text-anchor="middle" font-size="11" fill="#6b7280">Mar 5</text>
<text x="491.6" y="358.0" text-anchor="middle" font-size="11" fill="#6b7280">Apr 14</text>
<text x="628.8" y="358.0" text-anchor="middle" font-size="11" fill="#6b7280">May 25</text>
<text x="770.0" y="358.0" text-anchor="middle" font-size="11" fill="#6b7280">Jul 5</text>
<line x1="72" y1="45" x2="72" y2="340" stroke="#e5e7eb" stroke-width="1"/>
<line x1="72" y1="340" x2="770" y2="340" stroke="#e5e7eb" stroke-width="1"/>
<text x="-192.5" y="18" text-anchor="middle" font-size="12" fill="#6b7280" transform="rotate(-90)">Extensions</text>
<path d="M 72.0,340 L 72.0,311.6 L 76.0,311.2 L 80.1,311.2 L 84.1,310.1 L 88.1,310.1 L 92.2,309.4 L 96.2,308.7 L 100.2,308.3 L 104.3,306.4 L 108.3,305.0 L 112.3,305.0 L 116.4,305.0 L 120.4,305.0 L 124.5,304.2 L 128.5,304.2 L 132.5,304.2 L 136.6,303.5 L 140.6,302.0 L 144.6,299.4 L 148.7,297.6 L 152.7,296.9 L 156.7,296.5 L 160.8,295.0 L 164.8,290.6 L 168.8,289.1 L 172.9,289.1 L 176.9,285.4 L 180.9,284.3 L 185.0,282.8 L 189.0,281.7 L 193.0,279.5 L 197.1,277.7 L 201.1,277.3 L 205.1,274.4 L 209.2,271.8 L 213.2,271.8 L 217.2,269.9 L 221.3,268.5 L 225.3,268.1 L 229.4,267.7 L 233.4,267.4 L 237.4,266.3 L 241.5,259.6 L 245.5,256.7 L 249.5,255.2 L 253.6,254.4 L 257.6,253.3 L 261.6,250.8 L 265.7,250.0 L 269.7,249.3 L 273.7,247.1 L 277.8,246.3 L 281.8,245.6 L 285.8,245.6 L 289.9,239.0 L 293.9,238.2 L 297.9,237.5 L 302.0,236.0 L 306.0,234.2 L 310.0,234.2 L 314.1,231.2 L 318.1,226.4 L 322.2,225.7 L 326.2,226.1 L 330.2,224.9 L 334.3,224.6 L 338.3,224.6 L 342.3,222.4 L 346.4,220.5 L 350.4,219.1 L 354.4,217.2 L 358.5,216.8 L 362.5,216.8 L 366.5,214.3 L 370.6,213.5 L 374.6,213.2 L 378.6,208.7 L 382.7,208.4 L 386.7,208.4 L 390.7,208.4 L 394.8,208.0 L 398.8,206.1 L 402.8,204.7 L 406.9,202.8 L 410.9,202.5 L 414.9,201.3 L 419.0,198.0 L 423.0,195.1 L 427.1,194.7 L 431.1,194.3 L 435.1,193.2 L 439.2,189.6 L 443.2,188.8 L 447.2,187.7 L 451.3,185.5 L 455.3,185.1 L 459.3,184.8 L 463.4,184.8 L 467.4,184.0 L 471.4,181.8 L 475.5,181.1 L 479.5,180.3 L 483.5,180.0 L 487.6,179.2 L 491.6,175.5 L 495.6,175.2 L 499.7,174.4 L 503.7,174.1 L 507.7,172.2 L 511.8,171.9 L 515.8,171.5 L 519.8,170.4 L 523.9,168.9 L 527.9,168.9 L 532.0,168.9 L 536.0,168.9 L 540.0,168.2 L 544.1,166.3 L 548.1,166.0 L 552.1,164.1 L 556.2,163.7 L 560.2,163.4 L 564.2,161.2 L 568.3,158.9 L 572.3,158.6 L 576.3,158.2 L 580.4,153.4 L 584.4,151.9 L 588.4,150.8 L 592.5,150.5 L 596.5,147.9 L 600.5,147.9 L 604.6,146.0 L 608.6,144.9 L 612.6,141.2 L 616.7,139.8 L 620.7,139.4 L 624.8,139.0 L 628.8,139.0 L 632.8,138.7 L 636.9,136.5 L 640.9,134.6 L 644.9,134.6 L 649.0,134.2 L 653.0,134.2 L 657.0,132.8 L 661.1,132.0 L 665.1,130.9 L 669.1,129.8 L 673.2,128.3 L 677.2,128.3 L 681.2,127.2 L 685.3,125.8 L 689.3,122.8 L 693.3,120.2 L 697.4,119.5 L 701.4,118.8 L 705.4,118.0 L 709.5,117.6 L 713.5,116.5 L 717.5,114.3 L 721.6,114.0 L 725.6,112.5 L 729.7,111.0 L 733.7,108.4 L 737.7,107.3 L 741.8,106.6 L 745.8,106.6 L 749.8,105.1 L 753.9,104.4 L 757.9,103.6 L 761.9,103.3 L 766.0,102.2 L 770.0,102.2 L 770.0,340 Z" fill="url(#g1)" clip-path="url(#ca)"/>
<path d="M 72.0,311.6 L 76.0,311.2 L 80.1,311.2 L 84.1,310.1 L 88.1,310.1 L 92.2,309.4 L 96.2,308.7 L 100.2,308.3 L 104.3,306.4 L 108.3,305.0 L 112.3,305.0 L 116.4,305.0 L 120.4,305.0 L 124.5,304.2 L 128.5,304.2 L 132.5,304.2 L 136.6,303.5 L 140.6,302.0 L 144.6,299.4 L 148.7,297.6 L 152.7,296.9 L 156.7,296.5 L 160.8,295.0 L 164.8,290.6 L 168.8,289.1 L 172.9,289.1 L 176.9,285.4 L 180.9,284.3 L 185.0,282.8 L 189.0,281.7 L 193.0,279.5 L 197.1,277.7 L 201.1,277.3 L 205.1,274.4 L 209.2,271.8 L 213.2,271.8 L 217.2,269.9 L 221.3,268.5 L 225.3,268.1 L 229.4,267.7 L 233.4,267.4 L 237.4,266.3 L 241.5,259.6 L 245.5,256.7 L 249.5,255.2 L 253.6,254.4 L 257.6,253.3 L 261.6,250.8 L 265.7,250.0 L 269.7,249.3 L 273.7,247.1 L 277.8,246.3 L 281.8,245.6 L 285.8,245.6 L 289.9,239.0 L 293.9,238.2 L 297.9,237.5 L 302.0,236.0 L 306.0,234.2 L 310.0,234.2 L 314.1,231.2 L 318.1,226.4 L 322.2,225.7 L 326.2,226.1 L 330.2,224.9 L 334.3,224.6 L 338.3,224.6 L 342.3,222.4 L 346.4,220.5 L 350.4,219.1 L 354.4,217.2 L 358.5,216.8 L 362.5,216.8 L 366.5,214.3 L 370.6,213.5 L 374.6,213.2 L 378.6,208.7 L 382.7,208.4 L 386.7,208.4 L 390.7,208.4 L 394.8,208.0 L 398.8,206.1 L 402.8,204.7 L 406.9,202.8 L 410.9,202.5 L 414.9,201.3 L 419.0,198.0 L 423.0,195.1 L 427.1,194.7 L 431.1,194.3 L 435.1,193.2 L 439.2,189.6 L 443.2,188.8 L 447.2,187.7 L 451.3,185.5 L 455.3,185.1 L 459.3,184.8 L 463.4,184.8 L 467.4,184.0 L 471.4,181.8 L 475.5,181.1 L 479.5,180.3 L 483.5,180.0 L 487.6,179.2 L 491.6,175.5 L 495.6,175.2 L 499.7,174.4 L 503.7,174.1 L 507.7,172.2 L 511.8,171.9 L 515.8,171.5 L 519.8,170.4 L 523.9,168.9 L 527.9,168.9 L 532.0,168.9 L 536.0,168.9 L 540.0,168.2 L 544.1,166.3 L 548.1,166.0 L 552.1,164.1 L 556.2,163.7 L 560.2,163.4 L 564.2,161.2 L 568.3,158.9 L 572.3,158.6 L 576.3,158.2 L 580.4,153.4 L 584.4,151.9 L 588.4,150.8 L 592.5,150.5 L 596.5,147.9 L 600.5,147.9 L 604.6,146.0 L 608.6,144.9 L 612.6,141.2 L 616.7,139.8 L 620.7,139.4 L 624.8,139.0 L 628.8,139.0 L 632.8,138.7 L 636.9,136.5 L 640.9,134.6 L 644.9,134.6 L 649.0,134.2 L 653.0,134.2 L 657.0,132.8 L 661.1,132.0 L 665.1,130.9 L 669.1,129.8 L 673.2,128.3 L 677.2,128.3 L 681.2,127.2 L 685.3,125.8 L 689.3,122.8 L 693.3,120.2 L 697.4,119.5 L 701.4,118.8 L 705.4,118.0 L 709.5,117.6 L 713.5,116.5 L 717.5,114.3 L 721.6,114.0 L 725.6,112.5 L 729.7,111.0 L 733.7,108.4 L 737.7,107.3 L 741.8,106.6 L 745.8,106.6 L 749.8,105.1 L 753.9,104.4 L 757.9,103.6 L 761.9,103.3 L 766.0,102.2 L 770.0,102.2" fill="none" stroke="#FF6363" stroke-width="2.5" stroke-linejoin="round" clip-path="url(#ca)"/>
<text x="94.2" y="55.0" text-anchor="middle" font-size="9" fill="#FF6363" opacity="0.85" clip-path="url(#ca)">+0.7% (+18)</text>
<text x="170.8" y="55.0" text-anchor="middle" font-size="9" fill="#FF6363" opacity="0.85" clip-path="url(#ca)">+4.0% (+99)</text>
<text x="277.8" y="55.0" text-anchor="middle" font-size="9" fill="#FF6363" opacity="0.85" clip-path="url(#ca)">+4.5% (+117)</text>
<text x="386.7" y="55.0" text-anchor="middle" font-size="9" fill="#FF6363" opacity="0.85" clip-path="url(#ca)">+3.5% (+95)</text>
<text x="495.6" y="55.0" text-anchor="middle" font-size="9" fill="#FF6363" opacity="0.85" clip-path="url(#ca)">+2.2% (+62)</text>
<text x="602.6" y="55.0" text-anchor="middle" font-size="9" fill="#FF6363" opacity="0.85" clip-path="url(#ca)">+2.8% (+81)</text>
<text x="703.4" y="55.0" text-anchor="middle" font-size="9" fill="#FF6363" opacity="0.85" clip-path="url(#ca)">+2.5% (+75)</text>
<text x="761.9" y="55.0" text-anchor="middle" font-size="9" fill="#FF6363" opacity="0.85" clip-path="url(#ca)">+0.2% (+6)</text>
<rect x="351" y="369" width="12" height="12" fill="#FF6363" rx="2"/>
<text x="367" y="379" font-size="12" fill="#111827">Extensions</text>
<text x="72" y="394" font-size="8" fill="#e5e7eb">data since Dec 11, 2025</text>
</svg>