<svg xmlns="http://www.w3.org/2000/svg" width="800" height="400" viewBox="0 0 800 400">
<defs>
  <style>text { font-family: -apple-system, BlinkMacSystemFont, 'Segoe UI', Roboto, sans-serif; }</style>
  <linearGradient id="g1" x1="0" y1="0" x2="0" y2="1">
  <stop offset="0%" stop-color="#FF6363" stop-opacity="0.25"/>
  <stop offset="100%" stop-color="#FF6363" stop-opacity="0"/>
</linearGradient>
  <clipPath id="ca"><rect x="72" y="45" width="698" height="295"/></clipPath>
</defs>
<rect width="800" height="400" fill="#ffffff" rx="12"/>
<text x="400" y="26" text-anchor="middle" font-size="15" font-weight="600" fill="#111827">Packages Growth Over Time</text>
<line x1="72" y1="340.0" x2="770" y2="340.0" stroke="#f3f4f6" stroke-width="1"/>
<text x="66" y="344.0" text-anchor="end" font-size="11" fill="#6b7280">2.4k</text>
<line x1="72" y1="266.3" x2="770" y2="266.3" stroke="#f3f4f6" stroke-width="1"/>
<text x="66" y="270.3" text-anchor="end" font-size="11" fill="#6b7280">2.6k</text>
<line x1="72" y1="192.5" x2="770" y2="192.5" stroke="#f3f4f6" stroke-width="1"/>
<text x="66" y="196.5" text-anchor="end" font-size="11" fill="#6b7280">2.8k</text>
<line x1="72" y1="118.8" x2="770" y2="118.8" stroke="#f3f4f6" stroke-width="1"/>
<text x="66" y="122.8" text-anchor="end" font-size="11" fill="#6b7280">3.0k</text>
<line x1="72" y1="45.0" x2="770" y2="45.0" stroke="#f3f4f6" stroke-width="1"/>
<text x="66" y="49.0" text-anchor="end" font-size="11" fill="#6b7280">3.2k</text>
<line x1="125.0" y1="45" x2="125.0" y2="340" stroke="#e5e7eb" stroke-width="1" stroke-dasharray="3,3" clip-path="url(#ca)"/>
<line x1="239.9" y1="45" x2="239.9" y2="340" stroke="#e5e7eb" stroke-width="1" stroke-dasharray="3,3" clip-path="url(#ca)"/>
<line x1="359.2" y1="45" x2="359.2" y2="340" stroke="#e5e7eb" stroke-width="1" stroke-dasharray="3,3" clip-path="url(#ca)"/>
<line x1="478.4" y1="45" x2="478.4" y2="340" stroke="#e5e7eb" stroke-width="1" stroke-dasharray="3,3" clip-path="url(#ca)"/>
<line x1="597.7" y1="45" x2="597.7" y2="340" stroke="#e5e7eb" stroke-width="1" stroke-dasharray="3,3" clip-path="url(#ca)"/>
<line x1="712.6" y1="45" x2="712.6" y2="340" stroke="#e5e7eb" stroke-width="1" stroke-dasharray="3,3" clip-path="url(#ca)"/>
<text x="72.0" y="358.0" text-anchor="middle" font-size="11" fill="#6b7280">Dec 11</text>
<text x="213.4" y="358.0" text-anchor="middle" font-size="11" fill="#6b7280">Jan 26</text>
<text x="350.3" y="358.0" text-anchor="middle" font-size="11" fill="#6b7280">Feb 27</text>
<text x="491.7" y="358.0" text-anchor="middle" font-size="11" fill="#6b7280">Apr 4</text>
<text x="628.6" y="358.0" text-anchor="middle" font-size="11" fill="#6b7280">May 12</text>
<text x="770.0" y="358.0" text-anchor="middle" font-size="11" fill="#6b7280">Jun 18</text>
<line x1="72" y1="45" x2="72" y2="340" stroke="#e5e7eb" stroke-width="1"/>
<line x1="72" y1="340" x2="770" y2="340" stroke="#e5e7eb" stroke-width="1"/>
<text x="-192.5" y="18" text-anchor="middle" font-size="12" fill="#6b7280" transform="rotate(-90)">Extensions</text>
<path d="M 72.0,340 L 72.0,311.6 L 76.4,311.2 L 80.8,311.2 L 85.3,310.1 L 89.7,310.1 L 94.1,309.4 L 98.5,308.7 L 102.9,308.3 L 107.3,306.4 L 111.8,305.0 L 116.2,305.0 L 120.6,305.0 L 125.0,305.0 L 129.4,304.2 L 133.8,304.2 L 138.3,304.2 L 142.7,303.5 L 147.1,302.0 L 151.5,299.4 L 155.9,297.6 L 160.4,296.9 L 164.8,296.5 L 169.2,295.0 L 173.6,290.6 L 178.0,289.1 L 182.4,289.1 L 186.9,285.4 L 191.3,284.3 L 195.7,282.8 L 200.1,281.7 L 204.5,279.5 L 208.9,277.7 L 213.4,277.3 L 217.8,274.4 L 222.2,271.8 L 226.6,271.8 L 231.0,269.9 L 235.5,268.5 L 239.9,268.1 L 244.3,267.7 L 248.7,267.4 L 253.1,266.3 L 257.5,259.6 L 262.0,256.7 L 266.4,255.2 L 270.8,254.4 L 275.2,253.3 L 279.6,250.8 L 284.1,250.0 L 288.5,249.3 L 292.9,247.1 L 297.3,246.3 L 301.7,245.6 L 306.1,245.6 L 310.6,239.0 L 315.0,238.2 L 319.4,237.5 L 323.8,236.0 L 328.2,234.2 L 332.6,234.2 L 337.1,231.2 L 341.5,226.4 L 345.9,225.7 L 350.3,226.1 L 354.7,224.9 L 359.2,224.6 L 363.6,224.6 L 368.0,222.4 L 372.4,220.5 L 376.8,219.1 L 381.2,217.2 L 385.7,216.8 L 390.1,216.8 L 394.5,214.3 L 398.9,213.5 L 403.3,213.2 L 407.7,208.7 L 412.2,208.4 L 416.6,208.4 L 421.0,208.4 L 425.4,208.0 L 429.8,206.1 L 434.3,204.7 L 438.7,202.8 L 443.1,202.5 L 447.5,201.3 L 451.9,198.0 L 456.3,195.1 L 460.8,194.7 L 465.2,194.3 L 469.6,193.2 L 474.0,189.6 L 478.4,188.8 L 482.8,187.7 L 487.3,185.5 L 491.7,185.1 L 496.1,184.8 L 500.5,184.8 L 504.9,184.0 L 509.4,181.8 L 513.8,181.1 L 518.2,180.3 L 522.6,180.0 L 527.0,179.2 L 531.4,175.5 L 535.9,175.2 L 540.3,174.4 L 544.7,174.1 L 549.1,172.2 L 553.5,171.9 L 557.9,171.5 L 562.4,170.4 L 566.8,168.9 L 571.2,168.9 L 575.6,168.9 L 580.0,168.9 L 584.5,168.2 L 588.9,166.3 L 593.3,166.0 L 597.7,164.1 L 602.1,163.7 L 606.5,163.4 L 611.0,161.2 L 615.4,158.9 L 619.8,158.6 L 624.2,158.2 L 628.6,153.4 L 633.1,151.9 L 637.5,150.8 L 641.9,150.5 L 646.3,147.9 L 650.7,147.9 L 655.1,146.0 L 659.6,144.9 L 664.0,141.2 L 668.4,139.8 L 672.8,139.4 L 677.2,139.0 L 681.6,139.0 L 686.1,138.7 L 690.5,136.5 L 694.9,134.6 L 699.3,134.6 L 703.7,134.2 L 708.2,134.2 L 712.6,132.8 L 717.0,132.0 L 721.4,130.9 L 725.8,129.8 L 730.2,128.3 L 734.7,128.3 L 739.1,127.2 L 743.5,125.8 L 747.9,122.8 L 752.3,120.2 L 756.7,119.5 L 761.2,118.8 L 765.6,118.0 L 770.0,117.6 L 770.0,340 Z" fill="url(#g1)" clip-path="url(#ca)"/>
<path d="M 72.0,311.6 L 76.4,311.2 L 80.8,311.2 L 85.3,310.1 L 89.7,310.1 L 94.1,309.4 L 98.5,308.7 L 102.9,308.3 L 107.3,306.4 L 111.8,305.0 L 116.2,305.0 L 120.6,305.0 L 125.0,305.0 L 129.4,304.2 L 133.8,304.2 L 138.3,304.2 L 142.7,303.5 L 147.1,302.0 L 151.5,299.4 L 155.9,297.6 L 160.4,296.9 L 164.8,296.5 L 169.2,295.0 L 173.6,290.6 L 178.0,289.1 L 182.4,289.1 L 186.9,285.4 L 191.3,284.3 L 195.7,282.8 L 200.1,281.7 L 204.5,279.5 L 208.9,277.7 L 213.4,277.3 L 217.8,274.4 L 222.2,271.8 L 226.6,271.8 L 231.0,269.9 L 235.5,268.5 L 239.9,268.1 L 244.3,267.7 L 248.7,267.4 L 253.1,266.3 L 257.5,259.6 L 262.0,256.7 L 266.4,255.2 L 270.8,254.4 L 275.2,253.3 L 279.6,250.8 L 284.1,250.0 L 288.5,249.3 L 292.9,247.1 L 297.3,246.3 L 301.7,245.6 L 306.1,245.6 L 310.6,239.0 L 315.0,238.2 L 319.4,237.5 L 323.8,236.0 L 328.2,234.2 L 332.6,234.2 L 337.1,231.2 L 341.5,226.4 L 345.9,225.7 L 350.3,226.1 L 354.7,224.9 L 359.2,224.6 L 363.6,224.6 L 368.0,222.4 L 372.4,220.5 L 376.8,219.1 L 381.2,217.2 L 385.7,216.8 L 390.1,216.8 L 394.5,214.3 L 398.9,213.5 L 403.3,213.2 L 407.7,208.7 L 412.2,208.4 L 416.6,208.4 L 421.0,208.4 L 425.4,208.0 L 429.8,206.1 L 434.3,204.7 L 438.7,202.8 L 443.1,202.5 L 447.5,201.3 L 451.9,198.0 L 456.3,195.1 L 460.8,194.7 L 465.2,194.3 L 469.6,193.2 L 474.0,189.6 L 478.4,188.8 L 482.8,187.7 L 487.3,185.5 L 491.7,185.1 L 496.1,184.8 L 500.5,184.8 L 504.9,184.0 L 509.4,181.8 L 513.8,181.1 L 518.2,180.3 L 522.6,180.0 L 527.0,179.2 L 531.4,175.5 L 535.9,175.2 L 540.3,174.4 L 544.7,174.1 L 549.1,172.2 L 553.5,171.9 L 557.9,171.5 L 562.4,170.4 L 566.8,168.9 L 571.2,168.9 L 575.6,168.9 L 580.0,168.9 L 584.5,168.2 L 588.9,166.3 L 593.3,166.0 L 597.7,164.1 L 602.1,163.7 L 606.5,163.4 L 611.0,161.2 L 615.4,158.9 L 619.8,158.6 L 624.2,158.2 L 628.6,153.4 L 633.1,151.9 L 637.5,150.8 L 641.9,150.5 L 646.3,147.9 L 650.7,147.9 L 655.1,146.0 L 659.6,144.9 L 664.0,141.2 L 668.4,139.8 L 672.8,139.4 L 677.2,139.0 L 681.6,139.0 L 686.1,138.7 L 690.5,136.5 L 694.9,134.6 L 699.3,134.6 L 703.7,134.2 L 708.2,134.2 L 712.6,132.8 L 717.0,132.0 L 721.4,130.9 L 725.8,129.8 L 730.2,128.3 L 734.7,128.3 L 739.1,127.2 L 743.5,125.8 L 747.9,122.8 L 752.3,120.2 L 756.7,119.5 L 761.2,118.8 L 765.6,118.0 L 770.0,117.6" fill="none" stroke="#FF6363" stroke-width="2.5" stroke-linejoin="round" clip-path="url(#ca)"/>
<text x="96.3" y="55.0" text-anchor="middle" font-size="9" fill="#FF6363" opacity="0.85" clip-path="url(#ca)">+0.7% (+18)</text>
<text x="180.2" y="55.0" text-anchor="middle" font-size="9" fill="#FF6363" opacity="0.85" clip-path="url(#ca)">+4.0% (+99)</text>
<text x="297.3" y="55.0" text-anchor="middle" font-size="9" fill="#FF6363" opacity="0.85" clip-path="url(#ca)">+4.5% (+117)</text>
<text x="416.6" y="55.0" text-anchor="middle" font-size="9" fill="#FF6363" opacity="0.85" clip-path="url(#ca)">+3.5% (+95)</text>
<text x="535.9" y="55.0" text-anchor="middle" font-size="9" fill="#FF6363" opacity="0.85" clip-path="url(#ca)">+2.2% (+62)</text>
<text x="652.9" y="55.0" text-anchor="middle" font-size="9" fill="#FF6363" opacity="0.85" clip-path="url(#ca)">+2.8% (+81)</text>
<text x="741.3" y="55.0" text-anchor="middle" font-size="9" fill="#FF6363" opacity="0.85" clip-path="url(#ca)">+1.4% (+41)</text>
<rect x="351" y="369" width="12" height="12" fill="#FF6363" rx="2"/>
<text x="367" y="379" font-size="12" fill="#111827">Extensions</text>
<text x="72" y="394" font-size="8" fill="#e5e7eb">data since Dec 11, 2025</text>
</svg>