<svg xmlns="http://www.w3.org/2000/svg" width="800" height="400" viewBox="0 0 800 400">
<defs>
  <style>text { font-family: -apple-system, BlinkMacSystemFont, 'Segoe UI', Roboto, sans-serif; }</style>
  <linearGradient id="g2" x1="0" y1="0" x2="0" y2="1">
  <stop offset="0%" stop-color="#4F8EF7" stop-opacity="0.25"/>
  <stop offset="100%" stop-color="#4F8EF7" stop-opacity="0"/>
</linearGradient>
<linearGradient id="g3" x1="0" y1="0" x2="0" y2="1">
  <stop offset="0%" stop-color="#BF5AF2" stop-opacity="0.25"/>
  <stop offset="100%" stop-color="#BF5AF2" stop-opacity="0"/>
</linearGradient>
<linearGradient id="g4" x1="0" y1="0" x2="0" y2="1">
  <stop offset="0%" stop-color="#34C759" stop-opacity="0.25"/>
  <stop offset="100%" stop-color="#34C759" stop-opacity="0"/>
</linearGradient>
  <clipPath id="ca"><rect x="72" y="45" width="698" height="295"/></clipPath>
</defs>
<rect width="800" height="400" fill="#ffffff" rx="12"/>
<text x="400" y="26" text-anchor="middle" font-size="15" font-weight="600" fill="#111827">Community Growth Over Time</text>
<line x1="72" y1="340.0" x2="770" y2="340.0" stroke="#f3f4f6" stroke-width="1"/>
<text x="66" y="344.0" text-anchor="end" font-size="11" fill="#6b7280">500</text>
<line x1="72" y1="241.7" x2="770" y2="241.7" stroke="#f3f4f6" stroke-width="1"/>
<text x="66" y="245.7" text-anchor="end" font-size="11" fill="#6b7280">1.0k</text>
<line x1="72" y1="143.3" x2="770" y2="143.3" stroke="#f3f4f6" stroke-width="1"/>
<text x="66" y="147.3" text-anchor="end" font-size="11" fill="#6b7280">1.5k</text>
<line x1="72" y1="45.0" x2="770" y2="45.0" stroke="#f3f4f6" stroke-width="1"/>
<text x="66" y="49.0" text-anchor="end" font-size="11" fill="#6b7280">2.0k</text>
<line x1="135.0" y1="45" x2="135.0" y2="340" stroke="#e5e7eb" stroke-width="1" stroke-dasharray="3,3" clip-path="url(#ca)"/>
<line x1="271.4" y1="45" x2="271.4" y2="340" stroke="#e5e7eb" stroke-width="1" stroke-dasharray="3,3" clip-path="url(#ca)"/>
<line x1="413.1" y1="45" x2="413.1" y2="340" stroke="#e5e7eb" stroke-width="1" stroke-dasharray="3,3" clip-path="url(#ca)"/>
<line x1="554.8" y1="45" x2="554.8" y2="340" stroke="#e5e7eb" stroke-width="1" stroke-dasharray="3,3" clip-path="url(#ca)"/>
<line x1="696.5" y1="45" x2="696.5" y2="340" stroke="#e5e7eb" stroke-width="1" stroke-dasharray="3,3" clip-path="url(#ca)"/>
<text x="72.0" y="358.0" text-anchor="middle" font-size="11" fill="#6b7280">Dec 11</text>
<text x="213.7" y="358.0" text-anchor="middle" font-size="11" fill="#6b7280">Jan 21</text>
<text x="350.2" y="358.0" text-anchor="middle" font-size="11" fill="#6b7280">Feb 16</text>
<text x="491.8" y="358.0" text-anchor="middle" font-size="11" fill="#6b7280">Mar 17</text>
<text x="628.3" y="358.0" text-anchor="middle" font-size="11" fill="#6b7280">Apr 16</text>
<text x="770.0" y="358.0" text-anchor="middle" font-size="11" fill="#6b7280">May 20</text>
<line x1="72" y1="45" x2="72" y2="340" stroke="#e5e7eb" stroke-width="1"/>
<line x1="72" y1="340" x2="770" y2="340" stroke="#e5e7eb" stroke-width="1"/>
<text x="-192.5" y="18" text-anchor="middle" font-size="12" fill="#6b7280" transform="rotate(-90)">People</text>
<path d="M 72.0,340 L 72.0,120.1 L 77.2,120.1 L 82.5,120.1 L 87.7,119.5 L 93.0,119.5 L 98.2,119.1 L 103.5,118.9 L 108.7,119.1 L 114.0,118.6 L 119.2,118.6 L 124.5,118.6 L 129.7,118.6 L 135.0,118.6 L 140.2,118.6 L 145.5,118.6 L 150.7,118.6 L 156.0,118.4 L 161.2,117.8 L 166.5,116.6 L 171.7,116.0 L 177.0,115.8 L 182.2,115.8 L 187.5,115.2 L 192.7,113.8 L 198.0,113.0 L 203.2,113.0 L 208.5,112.1 L 213.7,111.7 L 218.9,110.9 L 224.2,110.3 L 229.4,109.7 L 234.7,109.1 L 239.9,109.1 L 245.2,107.7 L 250.4,106.9 L 255.7,106.9 L 260.9,106.2 L 266.2,105.8 L 271.4,105.6 L 276.7,105.4 L 281.9,105.4 L 287.2,104.8 L 292.4,102.4 L 297.7,101.0 L 302.9,100.3 L 308.2,100.1 L 313.4,99.7 L 318.7,98.9 L 323.9,98.5 L 329.2,98.1 L 334.4,97.7 L 339.7,97.3 L 344.9,96.9 L 350.2,96.9 L 355.4,95.0 L 360.6,95.0 L 365.9,94.8 L 371.1,94.6 L 376.4,94.2 L 381.6,94.2 L 386.9,93.2 L 392.1,92.0 L 397.4,91.6 L 402.6,92.0 L 407.9,91.8 L 413.1,91.6 L 418.4,91.6 L 423.6,91.2 L 428.9,90.4 L 434.1,90.0 L 439.4,89.6 L 444.6,89.4 L 449.9,89.4 L 455.1,88.7 L 460.4,88.3 L 465.6,88.3 L 470.9,86.7 L 476.1,86.7 L 481.4,86.7 L 486.6,86.7 L 491.8,86.5 L 497.1,85.9 L 502.3,85.1 L 507.6,84.7 L 512.8,84.7 L 518.1,84.3 L 523.3,82.8 L 528.6,81.8 L 533.8,81.6 L 539.1,81.4 L 544.3,80.8 L 549.6,79.6 L 554.8,79.2 L 560.1,78.8 L 565.3,77.6 L 570.6,77.4 L 575.8,77.4 L 581.1,77.4 L 586.3,77.3 L 591.6,76.1 L 596.8,75.9 L 602.1,75.7 L 607.3,75.7 L 612.6,75.3 L 617.8,73.7 L 623.1,73.5 L 628.3,73.3 L 633.5,73.3 L 638.8,72.5 L 644.0,72.3 L 649.3,72.1 L 654.5,71.6 L 659.8,70.8 L 665.0,70.8 L 670.3,70.8 L 675.5,70.8 L 680.8,70.4 L 686.0,69.8 L 691.3,69.6 L 696.5,69.0 L 701.8,68.8 L 707.0,68.6 L 712.3,67.8 L 717.5,67.2 L 722.8,67.0 L 728.0,67.0 L 733.3,65.3 L 738.5,64.7 L 743.8,64.5 L 749.0,64.5 L 754.3,63.5 L 759.5,63.5 L 764.8,62.9 L 770.0,62.3 L 770.0,340 Z" fill="url(#g2)" clip-path="url(#ca)"/>
<path d="M 72.0,120.1 L 77.2,120.1 L 82.5,120.1 L 87.7,119.5 L 93.0,119.5 L 98.2,119.1 L 103.5,118.9 L 108.7,119.1 L 114.0,118.6 L 119.2,118.6 L 124.5,118.6 L 129.7,118.6 L 135.0,118.6 L 140.2,118.6 L 145.5,118.6 L 150.7,118.6 L 156.0,118.4 L 161.2,117.8 L 166.5,116.6 L 171.7,116.0 L 177.0,115.8 L 182.2,115.8 L 187.5,115.2 L 192.7,113.8 L 198.0,113.0 L 203.2,113.0 L 208.5,112.1 L 213.7,111.7 L 218.9,110.9 L 224.2,110.3 L 229.4,109.7 L 234.7,109.1 L 239.9,109.1 L 245.2,107.7 L 250.4,106.9 L 255.7,106.9 L 260.9,106.2 L 266.2,105.8 L 271.4,105.6 L 276.7,105.4 L 281.9,105.4 L 287.2,104.8 L 292.4,102.4 L 297.7,101.0 L 302.9,100.3 L 308.2,100.1 L 313.4,99.7 L 318.7,98.9 L 323.9,98.5 L 329.2,98.1 L 334.4,97.7 L 339.7,97.3 L 344.9,96.9 L 350.2,96.9 L 355.4,95.0 L 360.6,95.0 L 365.9,94.8 L 371.1,94.6 L 376.4,94.2 L 381.6,94.2 L 386.9,93.2 L 392.1,92.0 L 397.4,91.6 L 402.6,92.0 L 407.9,91.8 L 413.1,91.6 L 418.4,91.6 L 423.6,91.2 L 428.9,90.4 L 434.1,90.0 L 439.4,89.6 L 444.6,89.4 L 449.9,89.4 L 455.1,88.7 L 460.4,88.3 L 465.6,88.3 L 470.9,86.7 L 476.1,86.7 L 481.4,86.7 L 486.6,86.7 L 491.8,86.5 L 497.1,85.9 L 502.3,85.1 L 507.6,84.7 L 512.8,84.7 L 518.1,84.3 L 523.3,82.8 L 528.6,81.8 L 533.8,81.6 L 539.1,81.4 L 544.3,80.8 L 549.6,79.6 L 554.8,79.2 L 560.1,78.8 L 565.3,77.6 L 570.6,77.4 L 575.8,77.4 L 581.1,77.4 L 586.3,77.3 L 591.6,76.1 L 596.8,75.9 L 602.1,75.7 L 607.3,75.7 L 612.6,75.3 L 617.8,73.7 L 623.1,73.5 L 628.3,73.3 L 633.5,73.3 L 638.8,72.5 L 644.0,72.3 L 649.3,72.1 L 654.5,71.6 L 659.8,70.8 L 665.0,70.8 L 670.3,70.8 L 675.5,70.8 L 680.8,70.4 L 686.0,69.8 L 691.3,69.6 L 696.5,69.0 L 701.8,68.8 L 707.0,68.6 L 712.3,67.8 L 717.5,67.2 L 722.8,67.0 L 728.0,67.0 L 733.3,65.3 L 738.5,64.7 L 743.8,64.5 L 749.0,64.5 L 754.3,63.5 L 759.5,63.5 L 764.8,62.9 L 770.0,62.3" fill="none" stroke="#4F8EF7" stroke-width="2.5" stroke-linejoin="round" clip-path="url(#ca)"/>
<path d="M 72.0,340 L 72.0,244.2 L 77.2,243.6 L 82.5,243.6 L 87.7,243.6 L 93.0,243.4 L 98.2,243.0 L 103.5,242.8 L 108.7,242.6 L 114.0,242.6 L 119.2,242.5 L 124.5,242.3 L 129.7,242.3 L 135.0,242.3 L 140.2,242.3 L 145.5,242.3 L 150.7,242.3 L 156.0,241.9 L 161.2,241.9 L 166.5,241.9 L 171.7,241.1 L 177.0,240.9 L 182.2,240.5 L 187.5,239.7 L 192.7,239.5 L 198.0,239.5 L 203.2,239.5 L 208.5,238.9 L 213.7,238.5 L 218.9,238.5 L 224.2,238.1 L 229.4,237.9 L 234.7,237.5 L 239.9,237.5 L 245.2,237.3 L 250.4,236.6 L 255.7,236.0 L 260.9,235.6 L 266.2,235.4 L 271.4,235.4 L 276.7,235.2 L 281.9,234.8 L 287.2,234.8 L 292.4,234.6 L 297.7,234.0 L 302.9,233.6 L 308.2,233.6 L 313.4,233.6 L 318.7,233.6 L 323.9,233.4 L 329.2,232.8 L 334.4,232.4 L 339.7,232.2 L 344.9,232.0 L 350.2,231.8 L 355.4,231.6 L 360.6,231.4 L 365.9,231.2 L 371.1,230.7 L 376.4,230.5 L 381.6,230.3 L 386.9,229.5 L 392.1,228.7 L 397.4,228.7 L 402.6,228.5 L 407.9,228.3 L 413.1,228.3 L 418.4,228.3 L 423.6,227.9 L 428.9,227.9 L 434.1,226.7 L 439.4,226.5 L 444.6,226.3 L 449.9,226.3 L 455.1,225.9 L 460.4,225.7 L 465.6,225.7 L 470.9,225.5 L 476.1,225.5 L 481.4,225.5 L 486.6,225.1 L 491.8,224.9 L 497.1,224.0 L 502.3,224.2 L 507.6,224.0 L 512.8,223.8 L 518.1,223.8 L 523.3,223.6 L 528.6,223.0 L 533.8,223.0 L 539.1,223.0 L 544.3,223.0 L 549.6,222.6 L 554.8,222.6 L 560.1,222.2 L 565.3,221.8 L 570.6,221.0 L 575.8,221.0 L 581.1,220.6 L 586.3,220.4 L 591.6,220.2 L 596.8,220.0 L 602.1,219.6 L 607.3,219.6 L 612.6,219.1 L 617.8,219.1 L 623.1,218.9 L 628.3,218.5 L 633.5,218.3 L 638.8,218.3 L 644.0,218.3 L 649.3,218.3 L 654.5,218.3 L 659.8,217.7 L 665.0,217.7 L 670.3,217.3 L 675.5,216.9 L 680.8,216.3 L 686.0,216.1 L 691.3,216.1 L 696.5,214.9 L 701.8,214.7 L 707.0,214.7 L 712.3,213.9 L 717.5,213.9 L 722.8,213.5 L 728.0,213.5 L 733.3,213.3 L 738.5,213.3 L 743.8,213.2 L 749.0,212.8 L 754.3,212.8 L 759.5,212.6 L 764.8,212.4 L 770.0,212.2 L 770.0,340 Z" fill="url(#g3)" clip-path="url(#ca)"/>
<path d="M 72.0,244.2 L 77.2,243.6 L 82.5,243.6 L 87.7,243.6 L 93.0,243.4 L 98.2,243.0 L 103.5,242.8 L 108.7,242.6 L 114.0,242.6 L 119.2,242.5 L 124.5,242.3 L 129.7,242.3 L 135.0,242.3 L 140.2,242.3 L 145.5,242.3 L 150.7,242.3 L 156.0,241.9 L 161.2,241.9 L 166.5,241.9 L 171.7,241.1 L 177.0,240.9 L 182.2,240.5 L 187.5,239.7 L 192.7,239.5 L 198.0,239.5 L 203.2,239.5 L 208.5,238.9 L 213.7,238.5 L 218.9,238.5 L 224.2,238.1 L 229.4,237.9 L 234.7,237.5 L 239.9,237.5 L 245.2,237.3 L 250.4,236.6 L 255.7,236.0 L 260.9,235.6 L 266.2,235.4 L 271.4,235.4 L 276.7,235.2 L 281.9,234.8 L 287.2,234.8 L 292.4,234.6 L 297.7,234.0 L 302.9,233.6 L 308.2,233.6 L 313.4,233.6 L 318.7,233.6 L 323.9,233.4 L 329.2,232.8 L 334.4,232.4 L 339.7,232.2 L 344.9,232.0 L 350.2,231.8 L 355.4,231.6 L 360.6,231.4 L 365.9,231.2 L 371.1,230.7 L 376.4,230.5 L 381.6,230.3 L 386.9,229.5 L 392.1,228.7 L 397.4,228.7 L 402.6,228.5 L 407.9,228.3 L 413.1,228.3 L 418.4,228.3 L 423.6,227.9 L 428.9,227.9 L 434.1,226.7 L 439.4,226.5 L 444.6,226.3 L 449.9,226.3 L 455.1,225.9 L 460.4,225.7 L 465.6,225.7 L 470.9,225.5 L 476.1,225.5 L 481.4,225.5 L 486.6,225.1 L 491.8,224.9 L 497.1,224.0 L 502.3,224.2 L 507.6,224.0 L 512.8,223.8 L 518.1,223.8 L 523.3,223.6 L 528.6,223.0 L 533.8,223.0 L 539.1,223.0 L 544.3,223.0 L 549.6,222.6 L 554.8,222.6 L 560.1,222.2 L 565.3,221.8 L 570.6,221.0 L 575.8,221.0 L 581.1,220.6 L 586.3,220.4 L 591.6,220.2 L 596.8,220.0 L 602.1,219.6 L 607.3,219.6 L 612.6,219.1 L 617.8,219.1 L 623.1,218.9 L 628.3,218.5 L 633.5,218.3 L 638.8,218.3 L 644.0,218.3 L 649.3,218.3 L 654.5,218.3 L 659.8,217.7 L 665.0,217.7 L 670.3,217.3 L 675.5,216.9 L 680.8,216.3 L 686.0,216.1 L 691.3,216.1 L 696.5,214.9 L 701.8,214.7 L 707.0,214.7 L 712.3,213.9 L 717.5,213.9 L 722.8,213.5 L 728.0,213.5 L 733.3,213.3 L 738.5,213.3 L 743.8,213.2 L 749.0,212.8 L 754.3,212.8 L 759.5,212.6 L 764.8,212.4 L 770.0,212.2" fill="none" stroke="#BF5AF2" stroke-width="2.5" stroke-linejoin="round" clip-path="url(#ca)"/>
<path d="M 72.0,340 L 72.0,291.4 L 77.2,290.8 L 82.5,290.8 L 87.7,290.8 L 93.0,290.6 L 98.2,290.2 L 103.5,290.0 L 108.7,289.7 L 114.0,289.7 L 119.2,289.5 L 124.5,289.3 L 129.7,289.3 L 135.0,289.3 L 140.2,289.3 L 145.5,289.3 L 150.7,289.3 L 156.0,288.9 L 161.2,288.9 L 166.5,289.1 L 171.7,288.5 L 177.0,288.7 L 182.2,288.1 L 187.5,287.5 L 192.7,287.3 L 198.0,287.5 L 203.2,287.5 L 208.5,286.9 L 213.7,286.7 L 218.9,286.7 L 224.2,286.3 L 229.4,286.1 L 234.7,285.7 L 239.9,285.7 L 245.2,285.5 L 250.4,284.9 L 255.7,284.3 L 260.9,283.9 L 266.2,283.9 L 271.4,283.9 L 276.7,283.8 L 281.9,283.4 L 287.2,283.4 L 292.4,283.2 L 297.7,282.6 L 302.9,282.4 L 308.2,282.4 L 313.4,282.4 L 318.7,282.4 L 323.9,282.2 L 329.2,281.6 L 334.4,281.4 L 339.7,281.2 L 344.9,281.0 L 350.2,281.0 L 355.4,280.8 L 360.6,280.8 L 365.9,280.8 L 371.1,280.2 L 376.4,280.2 L 381.6,280.2 L 386.9,279.8 L 392.1,279.2 L 397.4,279.2 L 402.6,279.0 L 407.9,278.8 L 413.1,278.8 L 418.4,278.8 L 423.6,278.4 L 428.9,278.4 L 434.1,277.3 L 439.4,277.1 L 444.6,276.9 L 449.9,276.9 L 455.1,276.7 L 460.4,276.7 L 465.6,276.7 L 470.9,276.7 L 476.1,276.7 L 481.4,276.7 L 486.6,276.3 L 491.8,276.1 L 497.1,275.1 L 502.3,275.3 L 507.6,275.3 L 512.8,275.1 L 518.1,275.1 L 523.3,275.1 L 528.6,274.7 L 533.8,274.7 L 539.1,274.7 L 544.3,274.7 L 549.6,274.7 L 554.8,274.7 L 560.1,274.5 L 565.3,274.5 L 570.6,273.7 L 575.8,273.7 L 581.1,273.5 L 586.3,273.3 L 591.6,273.1 L 596.8,272.9 L 602.1,272.5 L 607.3,272.5 L 612.6,272.0 L 617.8,272.0 L 623.1,271.8 L 628.3,271.6 L 633.5,271.6 L 638.8,271.6 L 644.0,271.6 L 649.3,271.6 L 654.5,271.6 L 659.8,271.0 L 665.0,271.0 L 670.3,270.6 L 675.5,270.2 L 680.8,269.6 L 686.0,269.4 L 691.3,269.4 L 696.5,268.4 L 701.8,268.2 L 707.0,268.2 L 712.3,267.6 L 717.5,267.6 L 722.8,267.4 L 728.0,267.4 L 733.3,267.6 L 738.5,267.8 L 743.8,267.6 L 749.0,267.2 L 754.3,267.4 L 759.5,267.2 L 764.8,267.0 L 770.0,267.0 L 770.0,340 Z" fill="url(#g4)" clip-path="url(#ca)"/>
<path d="M 72.0,291.4 L 77.2,290.8 L 82.5,290.8 L 87.7,290.8 L 93.0,290.6 L 98.2,290.2 L 103.5,290.0 L 108.7,289.7 L 114.0,289.7 L 119.2,289.5 L 124.5,289.3 L 129.7,289.3 L 135.0,289.3 L 140.2,289.3 L 145.5,289.3 L 150.7,289.3 L 156.0,288.9 L 161.2,288.9 L 166.5,289.1 L 171.7,288.5 L 177.0,288.7 L 182.2,288.1 L 187.5,287.5 L 192.7,287.3 L 198.0,287.5 L 203.2,287.5 L 208.5,286.9 L 213.7,286.7 L 218.9,286.7 L 224.2,286.3 L 229.4,286.1 L 234.7,285.7 L 239.9,285.7 L 245.2,285.5 L 250.4,284.9 L 255.7,284.3 L 260.9,283.9 L 266.2,283.9 L 271.4,283.9 L 276.7,283.8 L 281.9,283.4 L 287.2,283.4 L 292.4,283.2 L 297.7,282.6 L 302.9,282.4 L 308.2,282.4 L 313.4,282.4 L 318.7,282.4 L 323.9,282.2 L 329.2,281.6 L 334.4,281.4 L 339.7,281.2 L 344.9,281.0 L 350.2,281.0 L 355.4,280.8 L 360.6,280.8 L 365.9,280.8 L 371.1,280.2 L 376.4,280.2 L 381.6,280.2 L 386.9,279.8 L 392.1,279.2 L 397.4,279.2 L 402.6,279.0 L 407.9,278.8 L 413.1,278.8 L 418.4,278.8 L 423.6,278.4 L 428.9,278.4 L 434.1,277.3 L 439.4,277.1 L 444.6,276.9 L 449.9,276.9 L 455.1,276.7 L 460.4,276.7 L 465.6,276.7 L 470.9,276.7 L 476.1,276.7 L 481.4,276.7 L 486.6,276.3 L 491.8,276.1 L 497.1,275.1 L 502.3,275.3 L 507.6,275.3 L 512.8,275.1 L 518.1,275.1 L 523.3,275.1 L 528.6,274.7 L 533.8,274.7 L 539.1,274.7 L 544.3,274.7 L 549.6,274.7 L 554.8,274.7 L 560.1,274.5 L 565.3,274.5 L 570.6,273.7 L 575.8,273.7 L 581.1,273.5 L 586.3,273.3 L 591.6,273.1 L 596.8,272.9 L 602.1,272.5 L 607.3,272.5 L 612.6,272.0 L 617.8,272.0 L 623.1,271.8 L 628.3,271.6 L 633.5,271.6 L 638.8,271.6 L 644.0,271.6 L 649.3,271.6 L 654.5,271.6 L 659.8,271.0 L 665.0,271.0 L 670.3,270.6 L 675.5,270.2 L 680.8,269.6 L 686.0,269.4 L 691.3,269.4 L 696.5,268.4 L 701.8,268.2 L 707.0,268.2 L 712.3,267.6 L 717.5,267.6 L 722.8,267.4 L 728.0,267.4 L 733.3,267.6 L 738.5,267.8 L 743.8,267.6 L 749.0,267.2 L 754.3,267.4 L 759.5,267.2 L 764.8,267.0 L 770.0,267.0" fill="none" stroke="#34C759" stroke-width="2.5" stroke-linejoin="round" clip-path="url(#ca)"/>
<text x="100.9" y="55.0" text-anchor="middle" font-size="9" fill="#4F8EF7" opacity="0.85" clip-path="url(#ca)">+0.5% (+8)</text>
<text x="100.9" y="66.0" text-anchor="middle" font-size="9" fill="#BF5AF2" opacity="0.85" clip-path="url(#ca)">+1.0% (+10)</text>
<text x="100.9" y="77.0" text-anchor="middle" font-size="9" fill="#34C759" opacity="0.85" clip-path="url(#ca)">+1.5% (+11)</text>
<text x="200.6" y="55.0" text-anchor="middle" font-size="9" fill="#4F8EF7" opacity="0.85" clip-path="url(#ca)">+4.0% (+65)</text>
<text x="200.6" y="66.0" text-anchor="middle" font-size="9" fill="#BF5AF2" opacity="0.85" clip-path="url(#ca)">+3.5% (+35)</text>
<text x="200.6" y="77.0" text-anchor="middle" font-size="9" fill="#34C759" opacity="0.85" clip-path="url(#ca)">+3.6% (+27)</text>
<text x="339.7" y="55.0" text-anchor="middle" font-size="9" fill="#4F8EF7" opacity="0.85" clip-path="url(#ca)">+4.1% (+70)</text>
<text x="339.7" y="66.0" text-anchor="middle" font-size="9" fill="#BF5AF2" opacity="0.85" clip-path="url(#ca)">+3.5% (+36)</text>
<text x="339.7" y="77.0" text-anchor="middle" font-size="9" fill="#34C759" opacity="0.85" clip-path="url(#ca)">+3.3% (+26)</text>
<text x="481.4" y="55.0" text-anchor="middle" font-size="9" fill="#4F8EF7" opacity="0.85" clip-path="url(#ca)">+3.5% (+61)</text>
<text x="481.4" y="66.0" text-anchor="middle" font-size="9" fill="#BF5AF2" opacity="0.85" clip-path="url(#ca)">+2.7% (+29)</text>
<text x="481.4" y="77.0" text-anchor="middle" font-size="9" fill="#34C759" opacity="0.85" clip-path="url(#ca)">+2.6% (+21)</text>
<text x="623.1" y="55.0" text-anchor="middle" font-size="9" fill="#4F8EF7" opacity="0.85" clip-path="url(#ca)">+2.7% (+49)</text>
<text x="623.1" y="66.0" text-anchor="middle" font-size="9" fill="#BF5AF2" opacity="0.85" clip-path="url(#ca)">+3.0% (+33)</text>
<text x="623.1" y="77.0" text-anchor="middle" font-size="9" fill="#34C759" opacity="0.85" clip-path="url(#ca)">+3.2% (+27)</text>
<text x="733.3" y="55.0" text-anchor="middle" font-size="9" fill="#4F8EF7" opacity="0.85" clip-path="url(#ca)">+1.8% (+34)</text>
<text x="733.3" y="66.0" text-anchor="middle" font-size="9" fill="#BF5AF2" opacity="0.85" clip-path="url(#ca)">+1.2% (+14)</text>
<text x="733.3" y="77.0" text-anchor="middle" font-size="9" fill="#34C759" opacity="0.85" clip-path="url(#ca)">+0.8% (+7)</text>
<rect x="211" y="369" width="12" height="12" fill="#4F8EF7" rx="2"/>
<text x="227" y="379" font-size="12" fill="#111827">Authors</text>
<rect x="351" y="369" width="12" height="12" fill="#BF5AF2" rx="2"/>
<text x="367" y="379" font-size="12" fill="#111827">Contributors</text>
<rect x="491" y="369" width="12" height="12" fill="#34C759" rx="2"/>
<text x="507" y="379" font-size="12" fill="#111827">Non-author contributors</text>
<text x="72" y="394" font-size="8" fill="#e5e7eb">data since Dec 11, 2025</text>
</svg>