<svg xmlns="http://www.w3.org/2000/svg" width="800" height="400" viewBox="0 0 800 400">
<defs>
  <style>text { font-family: -apple-system, BlinkMacSystemFont, 'Segoe UI', Roboto, sans-serif; }</style>
  <linearGradient id="g2" x1="0" y1="0" x2="0" y2="1">
  <stop offset="0%" stop-color="#4F8EF7" stop-opacity="0.25"/>
  <stop offset="100%" stop-color="#4F8EF7" stop-opacity="0"/>
</linearGradient>
<linearGradient id="g3" x1="0" y1="0" x2="0" y2="1">
  <stop offset="0%" stop-color="#BF5AF2" stop-opacity="0.25"/>
  <stop offset="100%" stop-color="#BF5AF2" stop-opacity="0"/>
</linearGradient>
<linearGradient id="g4" x1="0" y1="0" x2="0" y2="1">
  <stop offset="0%" stop-color="#34C759" stop-opacity="0.25"/>
  <stop offset="100%" stop-color="#34C759" stop-opacity="0"/>
</linearGradient>
  <clipPath id="ca"><rect x="72" y="45" width="698" height="295"/></clipPath>
</defs>
<rect width="800" height="400" fill="#ffffff" rx="12"/>
<text x="400" y="26" text-anchor="middle" font-size="15" font-weight="600" fill="#111827">Community Growth Over Time</text>
<line x1="72" y1="340.0" x2="770" y2="340.0" stroke="#f3f4f6" stroke-width="1"/>
<text x="66" y="344.0" text-anchor="end" font-size="11" fill="#6b7280">500</text>
<line x1="72" y1="241.7" x2="770" y2="241.7" stroke="#f3f4f6" stroke-width="1"/>
<text x="66" y="245.7" text-anchor="end" font-size="11" fill="#6b7280">1.0k</text>
<line x1="72" y1="143.3" x2="770" y2="143.3" stroke="#f3f4f6" stroke-width="1"/>
<text x="66" y="147.3" text-anchor="end" font-size="11" fill="#6b7280">1.5k</text>
<line x1="72" y1="45.0" x2="770" y2="45.0" stroke="#f3f4f6" stroke-width="1"/>
<text x="66" y="49.0" text-anchor="end" font-size="11" fill="#6b7280">2.0k</text>
<line x1="143.6" y1="45" x2="143.6" y2="340" stroke="#e5e7eb" stroke-width="1" stroke-dasharray="3,3" clip-path="url(#ca)"/>
<line x1="298.7" y1="45" x2="298.7" y2="340" stroke="#e5e7eb" stroke-width="1" stroke-dasharray="3,3" clip-path="url(#ca)"/>
<line x1="459.8" y1="45" x2="459.8" y2="340" stroke="#e5e7eb" stroke-width="1" stroke-dasharray="3,3" clip-path="url(#ca)"/>
<line x1="620.9" y1="45" x2="620.9" y2="340" stroke="#e5e7eb" stroke-width="1" stroke-dasharray="3,3" clip-path="url(#ca)"/>
<text x="72.0" y="358.0" text-anchor="middle" font-size="11" fill="#6b7280">Dec 11</text>
<text x="209.2" y="358.0" text-anchor="middle" font-size="11" fill="#6b7280">Jan 16</text>
<text x="352.4" y="358.0" text-anchor="middle" font-size="11" fill="#6b7280">Feb 10</text>
<text x="489.6" y="358.0" text-anchor="middle" font-size="11" fill="#6b7280">Mar 6</text>
<text x="632.8" y="358.0" text-anchor="middle" font-size="11" fill="#6b7280">Apr 3</text>
<text x="770.0" y="358.0" text-anchor="middle" font-size="11" fill="#6b7280">Apr 29</text>
<line x1="72" y1="45" x2="72" y2="340" stroke="#e5e7eb" stroke-width="1"/>
<line x1="72" y1="340" x2="770" y2="340" stroke="#e5e7eb" stroke-width="1"/>
<text x="-192.5" y="18" text-anchor="middle" font-size="12" fill="#6b7280" transform="rotate(-90)">People</text>
<path d="M 72.0,340 L 72.0,120.1 L 78.0,120.1 L 83.9,120.1 L 89.9,119.5 L 95.9,119.5 L 101.8,119.1 L 107.8,118.9 L 113.8,119.1 L 119.7,118.6 L 125.7,118.6 L 131.7,118.6 L 137.6,118.6 L 143.6,118.6 L 149.6,118.6 L 155.5,118.6 L 161.5,118.6 L 167.5,118.4 L 173.4,117.8 L 179.4,116.6 L 185.4,116.0 L 191.3,115.8 L 197.3,115.8 L 203.2,115.2 L 209.2,113.8 L 215.2,113.0 L 221.1,113.0 L 227.1,112.1 L 233.1,111.7 L 239.0,110.9 L 245.0,110.3 L 251.0,109.7 L 256.9,109.1 L 262.9,109.1 L 268.9,107.7 L 274.8,106.9 L 280.8,106.9 L 286.8,106.2 L 292.7,105.8 L 298.7,105.6 L 304.7,105.4 L 310.6,105.4 L 316.6,104.8 L 322.6,102.4 L 328.5,101.0 L 334.5,100.3 L 340.5,100.1 L 346.4,99.7 L 352.4,98.9 L 358.4,98.5 L 364.3,98.1 L 370.3,97.7 L 376.3,97.3 L 382.2,96.9 L 388.2,96.9 L 394.2,95.0 L 400.1,95.0 L 406.1,94.8 L 412.1,94.6 L 418.0,94.2 L 424.0,94.2 L 429.9,93.2 L 435.9,92.0 L 441.9,91.6 L 447.8,92.0 L 453.8,91.8 L 459.8,91.6 L 465.7,91.6 L 471.7,91.2 L 477.7,90.4 L 483.6,90.0 L 489.6,89.6 L 495.6,89.4 L 501.5,89.4 L 507.5,88.7 L 513.5,88.3 L 519.4,88.3 L 525.4,86.7 L 531.4,86.7 L 537.3,86.7 L 543.3,86.7 L 549.3,86.5 L 555.2,85.9 L 561.2,85.1 L 567.2,84.7 L 573.1,84.7 L 579.1,84.3 L 585.1,82.8 L 591.0,81.8 L 597.0,81.6 L 603.0,81.4 L 608.9,80.8 L 614.9,79.6 L 620.9,79.2 L 626.8,78.8 L 632.8,77.6 L 638.8,77.4 L 644.7,77.4 L 650.7,77.4 L 656.6,77.3 L 662.6,76.1 L 668.6,75.9 L 674.5,75.7 L 680.5,75.7 L 686.5,75.3 L 692.4,73.7 L 698.4,73.5 L 704.4,73.3 L 710.3,73.3 L 716.3,72.5 L 722.3,72.3 L 728.2,72.1 L 734.2,71.6 L 740.2,70.8 L 746.1,70.8 L 752.1,70.8 L 758.1,70.8 L 764.0,70.4 L 770.0,69.8 L 770.0,340 Z" fill="url(#g2)" clip-path="url(#ca)"/>
<path d="M 72.0,120.1 L 78.0,120.1 L 83.9,120.1 L 89.9,119.5 L 95.9,119.5 L 101.8,119.1 L 107.8,118.9 L 113.8,119.1 L 119.7,118.6 L 125.7,118.6 L 131.7,118.6 L 137.6,118.6 L 143.6,118.6 L 149.6,118.6 L 155.5,118.6 L 161.5,118.6 L 167.5,118.4 L 173.4,117.8 L 179.4,116.6 L 185.4,116.0 L 191.3,115.8 L 197.3,115.8 L 203.2,115.2 L 209.2,113.8 L 215.2,113.0 L 221.1,113.0 L 227.1,112.1 L 233.1,111.7 L 239.0,110.9 L 245.0,110.3 L 251.0,109.7 L 256.9,109.1 L 262.9,109.1 L 268.9,107.7 L 274.8,106.9 L 280.8,106.9 L 286.8,106.2 L 292.7,105.8 L 298.7,105.6 L 304.7,105.4 L 310.6,105.4 L 316.6,104.8 L 322.6,102.4 L 328.5,101.0 L 334.5,100.3 L 340.5,100.1 L 346.4,99.7 L 352.4,98.9 L 358.4,98.5 L 364.3,98.1 L 370.3,97.7 L 376.3,97.3 L 382.2,96.9 L 388.2,96.9 L 394.2,95.0 L 400.1,95.0 L 406.1,94.8 L 412.1,94.6 L 418.0,94.2 L 424.0,94.2 L 429.9,93.2 L 435.9,92.0 L 441.9,91.6 L 447.8,92.0 L 453.8,91.8 L 459.8,91.6 L 465.7,91.6 L 471.7,91.2 L 477.7,90.4 L 483.6,90.0 L 489.6,89.6 L 495.6,89.4 L 501.5,89.4 L 507.5,88.7 L 513.5,88.3 L 519.4,88.3 L 525.4,86.7 L 531.4,86.7 L 537.3,86.7 L 543.3,86.7 L 549.3,86.5 L 555.2,85.9 L 561.2,85.1 L 567.2,84.7 L 573.1,84.7 L 579.1,84.3 L 585.1,82.8 L 591.0,81.8 L 597.0,81.6 L 603.0,81.4 L 608.9,80.8 L 614.9,79.6 L 620.9,79.2 L 626.8,78.8 L 632.8,77.6 L 638.8,77.4 L 644.7,77.4 L 650.7,77.4 L 656.6,77.3 L 662.6,76.1 L 668.6,75.9 L 674.5,75.7 L 680.5,75.7 L 686.5,75.3 L 692.4,73.7 L 698.4,73.5 L 704.4,73.3 L 710.3,73.3 L 716.3,72.5 L 722.3,72.3 L 728.2,72.1 L 734.2,71.6 L 740.2,70.8 L 746.1,70.8 L 752.1,70.8 L 758.1,70.8 L 764.0,70.4 L 770.0,69.8" fill="none" stroke="#4F8EF7" stroke-width="2.5" stroke-linejoin="round" clip-path="url(#ca)"/>
<path d="M 72.0,340 L 72.0,244.2 L 78.0,243.6 L 83.9,243.6 L 89.9,243.6 L 95.9,243.4 L 101.8,243.0 L 107.8,242.8 L 113.8,242.6 L 119.7,242.6 L 125.7,242.5 L 131.7,242.3 L 137.6,242.3 L 143.6,242.3 L 149.6,242.3 L 155.5,242.3 L 161.5,242.3 L 167.5,241.9 L 173.4,241.9 L 179.4,241.9 L 185.4,241.1 L 191.3,240.9 L 197.3,240.5 L 203.2,239.7 L 209.2,239.5 L 215.2,239.5 L 221.1,239.5 L 227.1,238.9 L 233.1,238.5 L 239.0,238.5 L 245.0,238.1 L 251.0,237.9 L 256.9,237.5 L 262.9,237.5 L 268.9,237.3 L 274.8,236.6 L 280.8,236.0 L 286.8,235.6 L 292.7,235.4 L 298.7,235.4 L 304.7,235.2 L 310.6,234.8 L 316.6,234.8 L 322.6,234.6 L 328.5,234.0 L 334.5,233.6 L 340.5,233.6 L 346.4,233.6 L 352.4,233.6 L 358.4,233.4 L 364.3,232.8 L 370.3,232.4 L 376.3,232.2 L 382.2,232.0 L 388.2,231.8 L 394.2,231.6 L 400.1,231.4 L 406.1,231.2 L 412.1,230.7 L 418.0,230.5 L 424.0,230.3 L 429.9,229.5 L 435.9,228.7 L 441.9,228.7 L 447.8,228.5 L 453.8,228.3 L 459.8,228.3 L 465.7,228.3 L 471.7,227.9 L 477.7,227.9 L 483.6,226.7 L 489.6,226.5 L 495.6,226.3 L 501.5,226.3 L 507.5,225.9 L 513.5,225.7 L 519.4,225.7 L 525.4,225.5 L 531.4,225.5 L 537.3,225.5 L 543.3,225.1 L 549.3,224.9 L 555.2,224.0 L 561.2,224.2 L 567.2,224.0 L 573.1,223.8 L 579.1,223.8 L 585.1,223.6 L 591.0,223.0 L 597.0,223.0 L 603.0,223.0 L 608.9,223.0 L 614.9,222.6 L 620.9,222.6 L 626.8,222.2 L 632.8,221.8 L 638.8,221.0 L 644.7,221.0 L 650.7,220.6 L 656.6,220.4 L 662.6,220.2 L 668.6,220.0 L 674.5,219.6 L 680.5,219.6 L 686.5,219.1 L 692.4,219.1 L 698.4,218.9 L 704.4,218.5 L 710.3,218.3 L 716.3,218.3 L 722.3,218.3 L 728.2,218.3 L 734.2,218.3 L 740.2,217.7 L 746.1,217.7 L 752.1,217.3 L 758.1,216.9 L 764.0,216.3 L 770.0,216.1 L 770.0,340 Z" fill="url(#g3)" clip-path="url(#ca)"/>
<path d="M 72.0,244.2 L 78.0,243.6 L 83.9,243.6 L 89.9,243.6 L 95.9,243.4 L 101.8,243.0 L 107.8,242.8 L 113.8,242.6 L 119.7,242.6 L 125.7,242.5 L 131.7,242.3 L 137.6,242.3 L 143.6,242.3 L 149.6,242.3 L 155.5,242.3 L 161.5,242.3 L 167.5,241.9 L 173.4,241.9 L 179.4,241.9 L 185.4,241.1 L 191.3,240.9 L 197.3,240.5 L 203.2,239.7 L 209.2,239.5 L 215.2,239.5 L 221.1,239.5 L 227.1,238.9 L 233.1,238.5 L 239.0,238.5 L 245.0,238.1 L 251.0,237.9 L 256.9,237.5 L 262.9,237.5 L 268.9,237.3 L 274.8,236.6 L 280.8,236.0 L 286.8,235.6 L 292.7,235.4 L 298.7,235.4 L 304.7,235.2 L 310.6,234.8 L 316.6,234.8 L 322.6,234.6 L 328.5,234.0 L 334.5,233.6 L 340.5,233.6 L 346.4,233.6 L 352.4,233.6 L 358.4,233.4 L 364.3,232.8 L 370.3,232.4 L 376.3,232.2 L 382.2,232.0 L 388.2,231.8 L 394.2,231.6 L 400.1,231.4 L 406.1,231.2 L 412.1,230.7 L 418.0,230.5 L 424.0,230.3 L 429.9,229.5 L 435.9,228.7 L 441.9,228.7 L 447.8,228.5 L 453.8,228.3 L 459.8,228.3 L 465.7,228.3 L 471.7,227.9 L 477.7,227.9 L 483.6,226.7 L 489.6,226.5 L 495.6,226.3 L 501.5,226.3 L 507.5,225.9 L 513.5,225.7 L 519.4,225.7 L 525.4,225.5 L 531.4,225.5 L 537.3,225.5 L 543.3,225.1 L 549.3,224.9 L 555.2,224.0 L 561.2,224.2 L 567.2,224.0 L 573.1,223.8 L 579.1,223.8 L 585.1,223.6 L 591.0,223.0 L 597.0,223.0 L 603.0,223.0 L 608.9,223.0 L 614.9,222.6 L 620.9,222.6 L 626.8,222.2 L 632.8,221.8 L 638.8,221.0 L 644.7,221.0 L 650.7,220.6 L 656.6,220.4 L 662.6,220.2 L 668.6,220.0 L 674.5,219.6 L 680.5,219.6 L 686.5,219.1 L 692.4,219.1 L 698.4,218.9 L 704.4,218.5 L 710.3,218.3 L 716.3,218.3 L 722.3,218.3 L 728.2,218.3 L 734.2,218.3 L 740.2,217.7 L 746.1,217.7 L 752.1,217.3 L 758.1,216.9 L 764.0,216.3 L 770.0,216.1" fill="none" stroke="#BF5AF2" stroke-width="2.5" stroke-linejoin="round" clip-path="url(#ca)"/>
<path d="M 72.0,340 L 72.0,291.4 L 78.0,290.8 L 83.9,290.8 L 89.9,290.8 L 95.9,290.6 L 101.8,290.2 L 107.8,290.0 L 113.8,289.7 L 119.7,289.7 L 125.7,289.5 L 131.7,289.3 L 137.6,289.3 L 143.6,289.3 L 149.6,289.3 L 155.5,289.3 L 161.5,289.3 L 167.5,288.9 L 173.4,288.9 L 179.4,289.1 L 185.4,288.5 L 191.3,288.7 L 197.3,288.1 L 203.2,287.5 L 209.2,287.3 L 215.2,287.5 L 221.1,287.5 L 227.1,286.9 L 233.1,286.7 L 239.0,286.7 L 245.0,286.3 L 251.0,286.1 L 256.9,285.7 L 262.9,285.7 L 268.9,285.5 L 274.8,284.9 L 280.8,284.3 L 286.8,283.9 L 292.7,283.9 L 298.7,283.9 L 304.7,283.8 L 310.6,283.4 L 316.6,283.4 L 322.6,283.2 L 328.5,282.6 L 334.5,282.4 L 340.5,282.4 L 346.4,282.4 L 352.4,282.4 L 358.4,282.2 L 364.3,281.6 L 370.3,281.4 L 376.3,281.2 L 382.2,281.0 L 388.2,281.0 L 394.2,280.8 L 400.1,280.8 L 406.1,280.8 L 412.1,280.2 L 418.0,280.2 L 424.0,280.2 L 429.9,279.8 L 435.9,279.2 L 441.9,279.2 L 447.8,279.0 L 453.8,278.8 L 459.8,278.8 L 465.7,278.8 L 471.7,278.4 L 477.7,278.4 L 483.6,277.3 L 489.6,277.1 L 495.6,276.9 L 501.5,276.9 L 507.5,276.7 L 513.5,276.7 L 519.4,276.7 L 525.4,276.7 L 531.4,276.7 L 537.3,276.7 L 543.3,276.3 L 549.3,276.1 L 555.2,275.1 L 561.2,275.3 L 567.2,275.3 L 573.1,275.1 L 579.1,275.1 L 585.1,275.1 L 591.0,274.7 L 597.0,274.7 L 603.0,274.7 L 608.9,274.7 L 614.9,274.7 L 620.9,274.7 L 626.8,274.5 L 632.8,274.5 L 638.8,273.7 L 644.7,273.7 L 650.7,273.5 L 656.6,273.3 L 662.6,273.1 L 668.6,272.9 L 674.5,272.5 L 680.5,272.5 L 686.5,272.0 L 692.4,272.0 L 698.4,271.8 L 704.4,271.6 L 710.3,271.6 L 716.3,271.6 L 722.3,271.6 L 728.2,271.6 L 734.2,271.6 L 740.2,271.0 L 746.1,271.0 L 752.1,270.6 L 758.1,270.2 L 764.0,269.6 L 770.0,269.4 L 770.0,340 Z" fill="url(#g4)" clip-path="url(#ca)"/>
<path d="M 72.0,291.4 L 78.0,290.8 L 83.9,290.8 L 89.9,290.8 L 95.9,290.6 L 101.8,290.2 L 107.8,290.0 L 113.8,289.7 L 119.7,289.7 L 125.7,289.5 L 131.7,289.3 L 137.6,289.3 L 143.6,289.3 L 149.6,289.3 L 155.5,289.3 L 161.5,289.3 L 167.5,288.9 L 173.4,288.9 L 179.4,289.1 L 185.4,288.5 L 191.3,288.7 L 197.3,288.1 L 203.2,287.5 L 209.2,287.3 L 215.2,287.5 L 221.1,287.5 L 227.1,286.9 L 233.1,286.7 L 239.0,286.7 L 245.0,286.3 L 251.0,286.1 L 256.9,285.7 L 262.9,285.7 L 268.9,285.5 L 274.8,284.9 L 280.8,284.3 L 286.8,283.9 L 292.7,283.9 L 298.7,283.9 L 304.7,283.8 L 310.6,283.4 L 316.6,283.4 L 322.6,283.2 L 328.5,282.6 L 334.5,282.4 L 340.5,282.4 L 346.4,282.4 L 352.4,282.4 L 358.4,282.2 L 364.3,281.6 L 370.3,281.4 L 376.3,281.2 L 382.2,281.0 L 388.2,281.0 L 394.2,280.8 L 400.1,280.8 L 406.1,280.8 L 412.1,280.2 L 418.0,280.2 L 424.0,280.2 L 429.9,279.8 L 435.9,279.2 L 441.9,279.2 L 447.8,279.0 L 453.8,278.8 L 459.8,278.8 L 465.7,278.8 L 471.7,278.4 L 477.7,278.4 L 483.6,277.3 L 489.6,277.1 L 495.6,276.9 L 501.5,276.9 L 507.5,276.7 L 513.5,276.7 L 519.4,276.7 L 525.4,276.7 L 531.4,276.7 L 537.3,276.7 L 543.3,276.3 L 549.3,276.1 L 555.2,275.1 L 561.2,275.3 L 567.2,275.3 L 573.1,275.1 L 579.1,275.1 L 585.1,275.1 L 591.0,274.7 L 597.0,274.7 L 603.0,274.7 L 608.9,274.7 L 614.9,274.7 L 620.9,274.7 L 626.8,274.5 L 632.8,274.5 L 638.8,273.7 L 644.7,273.7 L 650.7,273.5 L 656.6,273.3 L 662.6,273.1 L 668.6,272.9 L 674.5,272.5 L 680.5,272.5 L 686.5,272.0 L 692.4,272.0 L 698.4,271.8 L 704.4,271.6 L 710.3,271.6 L 716.3,271.6 L 722.3,271.6 L 728.2,271.6 L 734.2,271.6 L 740.2,271.0 L 746.1,271.0 L 752.1,270.6 L 758.1,270.2 L 764.0,269.6 L 770.0,269.4" fill="none" stroke="#34C759" stroke-width="2.5" stroke-linejoin="round" clip-path="url(#ca)"/>
<text x="104.8" y="55.0" text-anchor="middle" font-size="9" fill="#4F8EF7" opacity="0.85" clip-path="url(#ca)">+0.5% (+8)</text>
<text x="104.8" y="66.0" text-anchor="middle" font-size="9" fill="#BF5AF2" opacity="0.85" clip-path="url(#ca)">+1.0% (+10)</text>
<text x="104.8" y="77.0" text-anchor="middle" font-size="9" fill="#34C759" opacity="0.85" clip-path="url(#ca)">+1.5% (+11)</text>
<text x="218.2" y="55.0" text-anchor="middle" font-size="9" fill="#4F8EF7" opacity="0.85" clip-path="url(#ca)">+4.0% (+65)</text>
<text x="218.2" y="66.0" text-anchor="middle" font-size="9" fill="#BF5AF2" opacity="0.85" clip-path="url(#ca)">+3.5% (+35)</text>
<text x="218.2" y="77.0" text-anchor="middle" font-size="9" fill="#34C759" opacity="0.85" clip-path="url(#ca)">+3.6% (+27)</text>
<text x="376.3" y="55.0" text-anchor="middle" font-size="9" fill="#4F8EF7" opacity="0.85" clip-path="url(#ca)">+4.1% (+70)</text>
<text x="376.3" y="66.0" text-anchor="middle" font-size="9" fill="#BF5AF2" opacity="0.85" clip-path="url(#ca)">+3.5% (+36)</text>
<text x="376.3" y="77.0" text-anchor="middle" font-size="9" fill="#34C759" opacity="0.85" clip-path="url(#ca)">+3.3% (+26)</text>
<text x="537.3" y="55.0" text-anchor="middle" font-size="9" fill="#4F8EF7" opacity="0.85" clip-path="url(#ca)">+3.5% (+61)</text>
<text x="537.3" y="66.0" text-anchor="middle" font-size="9" fill="#BF5AF2" opacity="0.85" clip-path="url(#ca)">+2.7% (+29)</text>
<text x="537.3" y="77.0" text-anchor="middle" font-size="9" fill="#34C759" opacity="0.85" clip-path="url(#ca)">+2.6% (+21)</text>
<text x="695.4" y="55.0" text-anchor="middle" font-size="9" fill="#4F8EF7" opacity="0.85" clip-path="url(#ca)">+2.6% (+48)</text>
<text x="695.4" y="66.0" text-anchor="middle" font-size="9" fill="#BF5AF2" opacity="0.85" clip-path="url(#ca)">+3.0% (+33)</text>
<text x="695.4" y="77.0" text-anchor="middle" font-size="9" fill="#34C759" opacity="0.85" clip-path="url(#ca)">+3.2% (+27)</text>
<rect x="211" y="369" width="12" height="12" fill="#4F8EF7" rx="2"/>
<text x="227" y="379" font-size="12" fill="#111827">Authors</text>
<rect x="351" y="369" width="12" height="12" fill="#BF5AF2" rx="2"/>
<text x="367" y="379" font-size="12" fill="#111827">Contributors</text>
<rect x="491" y="369" width="12" height="12" fill="#34C759" rx="2"/>
<text x="507" y="379" font-size="12" fill="#111827">Non-author contributors</text>
<text x="72" y="394" font-size="8" fill="#e5e7eb">data since Dec 11, 2025</text>
</svg>