<svg xmlns="http://www.w3.org/2000/svg" width="800" height="400" viewBox="0 0 800 400">
<defs>
  <style>text { font-family: -apple-system, BlinkMacSystemFont, 'Segoe UI', Roboto, sans-serif; }</style>
  <linearGradient id="g5" x1="0" y1="0" x2="0" y2="1">
  <stop offset="0%" stop-color="#34C759" stop-opacity="0.25"/>
  <stop offset="100%" stop-color="#34C759" stop-opacity="0"/>
</linearGradient>
<linearGradient id="g6" x1="0" y1="0" x2="0" y2="1">
  <stop offset="0%" stop-color="#4F8EF7" stop-opacity="0.25"/>
  <stop offset="100%" stop-color="#4F8EF7" stop-opacity="0"/>
</linearGradient>
<linearGradient id="g7" x1="0" y1="0" x2="0" y2="1">
  <stop offset="0%" stop-color="#FF6363" stop-opacity="0.25"/>
  <stop offset="100%" stop-color="#FF6363" stop-opacity="0"/>
</linearGradient>
  <clipPath id="ca"><rect x="72" y="45" width="698" height="295"/></clipPath>
</defs>
<rect width="800" height="400" fill="#ffffff" rx="12"/>
<text x="400" y="26" text-anchor="middle" font-size="15" font-weight="600" fill="#111827">Platform Support Over Time</text>
<line x1="72" y1="340.0" x2="770" y2="340.0" stroke="#f3f4f6" stroke-width="1"/>
<text x="66" y="344.0" text-anchor="end" font-size="11" fill="#6b7280">0</text>
<line x1="72" y1="281.0" x2="770" y2="281.0" stroke="#f3f4f6" stroke-width="1"/>
<text x="66" y="285.0" text-anchor="end" font-size="11" fill="#6b7280">200</text>
<line x1="72" y1="222.0" x2="770" y2="222.0" stroke="#f3f4f6" stroke-width="1"/>
<text x="66" y="226.0" text-anchor="end" font-size="11" fill="#6b7280">400</text>
<line x1="72" y1="163.0" x2="770" y2="163.0" stroke="#f3f4f6" stroke-width="1"/>
<text x="66" y="167.0" text-anchor="end" font-size="11" fill="#6b7280">600</text>
<line x1="72" y1="104.0" x2="770" y2="104.0" stroke="#f3f4f6" stroke-width="1"/>
<text x="66" y="108.0" text-anchor="end" font-size="11" fill="#6b7280">800</text>
<line x1="72" y1="45.0" x2="770" y2="45.0" stroke="#f3f4f6" stroke-width="1"/>
<text x="66" y="49.0" text-anchor="end" font-size="11" fill="#6b7280">1.0k</text>
<line x1="116.3" y1="45" x2="116.3" y2="340" stroke="#e5e7eb" stroke-width="1" stroke-dasharray="3,3" clip-path="url(#ca)"/>
<line x1="212.3" y1="45" x2="212.3" y2="340" stroke="#e5e7eb" stroke-width="1" stroke-dasharray="3,3" clip-path="url(#ca)"/>
<line x1="312.1" y1="45" x2="312.1" y2="340" stroke="#e5e7eb" stroke-width="1" stroke-dasharray="3,3" clip-path="url(#ca)"/>
<line x1="411.8" y1="45" x2="411.8" y2="340" stroke="#e5e7eb" stroke-width="1" stroke-dasharray="3,3" clip-path="url(#ca)"/>
<line x1="511.5" y1="45" x2="511.5" y2="340" stroke="#e5e7eb" stroke-width="1" stroke-dasharray="3,3" clip-path="url(#ca)"/>
<line x1="607.5" y1="45" x2="607.5" y2="340" stroke="#e5e7eb" stroke-width="1" stroke-dasharray="3,3" clip-path="url(#ca)"/>
<line x1="696.1" y1="45" x2="696.1" y2="340" stroke="#e5e7eb" stroke-width="1" stroke-dasharray="3,3" clip-path="url(#ca)"/>
<text x="72.0" y="358.0" text-anchor="middle" font-size="11" fill="#6b7280">Dec 11</text>
<text x="212.3" y="358.0" text-anchor="middle" font-size="11" fill="#6b7280">Feb 1</text>
<text x="352.7" y="358.0" text-anchor="middle" font-size="11" fill="#6b7280">Mar 13</text>
<text x="489.3" y="358.0" text-anchor="middle" font-size="11" fill="#6b7280">Apr 24</text>
<text x="629.7" y="358.0" text-anchor="middle" font-size="11" fill="#6b7280">Jun 9</text>
<text x="770.0" y="358.0" text-anchor="middle" font-size="11" fill="#6b7280">Jul 24</text>
<line x1="72" y1="45" x2="72" y2="340" stroke="#e5e7eb" stroke-width="1"/>
<line x1="72" y1="340" x2="770" y2="340" stroke="#e5e7eb" stroke-width="1"/>
<text x="-192.5" y="18" text-anchor="middle" font-size="12" fill="#6b7280" transform="rotate(-90)">Extensions</text>
<path d="M 72.0,340 L 72.0,242.6 L 75.7,240.0 L 79.4,239.7 L 83.1,238.5 L 86.8,237.9 L 90.5,235.0 L 94.2,233.2 L 97.9,232.3 L 101.5,230.8 L 105.2,229.1 L 108.9,228.2 L 112.6,227.9 L 116.3,227.0 L 120.0,226.4 L 123.7,226.1 L 127.4,225.2 L 131.1,224.4 L 134.8,223.5 L 138.5,222.6 L 142.2,221.4 L 145.9,220.5 L 149.6,219.6 L 153.2,218.8 L 156.9,217.0 L 160.6,216.4 L 164.3,216.4 L 168.0,214.3 L 171.7,213.7 L 175.4,213.2 L 179.1,212.6 L 182.8,211.1 L 186.5,209.0 L 190.2,208.7 L 193.9,208.4 L 197.6,206.7 L 201.3,206.1 L 205.0,204.6 L 208.6,204.3 L 212.3,204.0 L 216.0,203.4 L 219.7,203.4 L 223.4,203.4 L 227.1,199.3 L 230.8,199.0 L 234.5,198.1 L 238.2,197.8 L 241.9,197.5 L 245.6,196.6 L 249.3,196.0 L 253.0,195.4 L 256.7,193.7 L 260.3,193.7 L 264.0,193.7 L 267.7,193.4 L 271.4,190.4 L 275.1,189.6 L 278.8,189.0 L 282.5,188.1 L 286.2,187.5 L 289.9,187.5 L 293.6,186.0 L 297.3,183.9 L 301.0,183.4 L 304.7,183.1 L 308.4,182.2 L 312.1,182.2 L 315.7,181.6 L 319.4,180.7 L 323.1,180.1 L 326.8,178.9 L 330.5,177.8 L 334.2,177.5 L 337.9,177.5 L 341.6,176.3 L 345.3,176.3 L 349.0,176.3 L 352.7,174.5 L 356.4,174.2 L 360.1,173.9 L 363.8,173.9 L 367.4,173.6 L 371.1,172.4 L 374.8,171.9 L 378.5,171.0 L 382.2,171.0 L 385.9,170.7 L 389.6,169.5 L 393.3,168.6 L 397.0,168.6 L 400.7,168.3 L 404.4,167.7 L 408.1,165.7 L 411.8,165.1 L 415.5,164.2 L 419.2,164.2 L 422.8,163.6 L 426.5,163.3 L 430.2,163.0 L 433.9,162.7 L 437.6,162.4 L 441.3,162.4 L 445.0,162.1 L 448.7,161.8 L 452.4,160.9 L 456.1,159.8 L 459.8,159.5 L 463.5,158.6 L 467.2,158.6 L 470.9,157.4 L 474.6,157.1 L 478.2,157.1 L 481.9,157.1 L 485.6,156.2 L 489.3,155.9 L 493.0,155.9 L 496.7,155.9 L 500.4,155.6 L 504.1,154.4 L 507.8,154.2 L 511.5,153.3 L 515.2,152.7 L 518.9,152.7 L 522.6,151.8 L 526.3,151.2 L 529.9,151.2 L 533.6,150.9 L 537.3,149.4 L 541.0,148.0 L 544.7,147.7 L 548.4,147.1 L 552.1,145.9 L 555.8,145.9 L 559.5,145.3 L 563.2,143.8 L 566.9,141.2 L 570.6,140.3 L 574.3,140.3 L 578.0,140.3 L 581.7,140.3 L 585.3,140.3 L 589.0,139.1 L 592.7,138.2 L 596.4,138.2 L 600.1,138.2 L 603.8,138.2 L 607.5,137.3 L 611.2,137.3 L 614.9,136.5 L 618.6,135.6 L 622.3,135.3 L 626.0,135.0 L 629.7,134.4 L 633.4,134.4 L 637.0,133.5 L 640.7,132.3 L 644.4,131.4 L 648.1,129.7 L 651.8,129.1 L 655.5,128.8 L 659.2,128.5 L 662.9,127.9 L 666.6,127.6 L 670.3,126.1 L 674.0,125.2 L 677.7,123.8 L 681.4,123.5 L 685.1,123.5 L 688.8,123.2 L 692.4,122.0 L 696.1,121.7 L 699.8,121.4 L 703.5,121.1 L 707.2,119.9 L 710.9,119.6 L 714.6,118.2 L 718.3,117.3 L 722.0,117.0 L 725.7,115.2 L 729.4,115.2 L 733.1,115.2 L 736.8,115.2 L 740.5,114.6 L 744.1,114.6 L 747.8,114.3 L 751.5,114.3 L 755.2,114.0 L 758.9,113.7 L 762.6,113.4 L 766.3,112.3 L 770.0,112.0 L 770.0,340 Z" fill="url(#g5)" clip-path="url(#ca)"/>
<path d="M 72.0,242.6 L 75.7,240.0 L 79.4,239.7 L 83.1,238.5 L 86.8,237.9 L 90.5,235.0 L 94.2,233.2 L 97.9,232.3 L 101.5,230.8 L 105.2,229.1 L 108.9,228.2 L 112.6,227.9 L 116.3,227.0 L 120.0,226.4 L 123.7,226.1 L 127.4,225.2 L 131.1,224.4 L 134.8,223.5 L 138.5,222.6 L 142.2,221.4 L 145.9,220.5 L 149.6,219.6 L 153.2,218.8 L 156.9,217.0 L 160.6,216.4 L 164.3,216.4 L 168.0,214.3 L 171.7,213.7 L 175.4,213.2 L 179.1,212.6 L 182.8,211.1 L 186.5,209.0 L 190.2,208.7 L 193.9,208.4 L 197.6,206.7 L 201.3,206.1 L 205.0,204.6 L 208.6,204.3 L 212.3,204.0 L 216.0,203.4 L 219.7,203.4 L 223.4,203.4 L 227.1,199.3 L 230.8,199.0 L 234.5,198.1 L 238.2,197.8 L 241.9,197.5 L 245.6,196.6 L 249.3,196.0 L 253.0,195.4 L 256.7,193.7 L 260.3,193.7 L 264.0,193.7 L 267.7,193.4 L 271.4,190.4 L 275.1,189.6 L 278.8,189.0 L 282.5,188.1 L 286.2,187.5 L 289.9,187.5 L 293.6,186.0 L 297.3,183.9 L 301.0,183.4 L 304.7,183.1 L 308.4,182.2 L 312.1,182.2 L 315.7,181.6 L 319.4,180.7 L 323.1,180.1 L 326.8,178.9 L 330.5,177.8 L 334.2,177.5 L 337.9,177.5 L 341.6,176.3 L 345.3,176.3 L 349.0,176.3 L 352.7,174.5 L 356.4,174.2 L 360.1,173.9 L 363.8,173.9 L 367.4,173.6 L 371.1,172.4 L 374.8,171.9 L 378.5,171.0 L 382.2,171.0 L 385.9,170.7 L 389.6,169.5 L 393.3,168.6 L 397.0,168.6 L 400.7,168.3 L 404.4,167.7 L 408.1,165.7 L 411.8,165.1 L 415.5,164.2 L 419.2,164.2 L 422.8,163.6 L 426.5,163.3 L 430.2,163.0 L 433.9,162.7 L 437.6,162.4 L 441.3,162.4 L 445.0,162.1 L 448.7,161.8 L 452.4,160.9 L 456.1,159.8 L 459.8,159.5 L 463.5,158.6 L 467.2,158.6 L 470.9,157.4 L 474.6,157.1 L 478.2,157.1 L 481.9,157.1 L 485.6,156.2 L 489.3,155.9 L 493.0,155.9 L 496.7,155.9 L 500.4,155.6 L 504.1,154.4 L 507.8,154.2 L 511.5,153.3 L 515.2,152.7 L 518.9,152.7 L 522.6,151.8 L 526.3,151.2 L 529.9,151.2 L 533.6,150.9 L 537.3,149.4 L 541.0,148.0 L 544.7,147.7 L 548.4,147.1 L 552.1,145.9 L 555.8,145.9 L 559.5,145.3 L 563.2,143.8 L 566.9,141.2 L 570.6,140.3 L 574.3,140.3 L 578.0,140.3 L 581.7,140.3 L 585.3,140.3 L 589.0,139.1 L 592.7,138.2 L 596.4,138.2 L 600.1,138.2 L 603.8,138.2 L 607.5,137.3 L 611.2,137.3 L 614.9,136.5 L 618.6,135.6 L 622.3,135.3 L 626.0,135.0 L 629.7,134.4 L 633.4,134.4 L 637.0,133.5 L 640.7,132.3 L 644.4,131.4 L 648.1,129.7 L 651.8,129.1 L 655.5,128.8 L 659.2,128.5 L 662.9,127.9 L 666.6,127.6 L 670.3,126.1 L 674.0,125.2 L 677.7,123.8 L 681.4,123.5 L 685.1,123.5 L 688.8,123.2 L 692.4,122.0 L 696.1,121.7 L 699.8,121.4 L 703.5,121.1 L 707.2,119.9 L 710.9,119.6 L 714.6,118.2 L 718.3,117.3 L 722.0,117.0 L 725.7,115.2 L 729.4,115.2 L 733.1,115.2 L 736.8,115.2 L 740.5,114.6 L 744.1,114.6 L 747.8,114.3 L 751.5,114.3 L 755.2,114.0 L 758.9,113.7 L 762.6,113.4 L 766.3,112.3 L 770.0,112.0" fill="none" stroke="#34C759" stroke-width="2.5" stroke-linejoin="round" clip-path="url(#ca)"/>
<path d="M 72.0,340 L 72.0,222.6 L 75.7,222.6 L 79.4,222.3 L 83.1,221.4 L 86.8,221.7 L 90.5,221.7 L 94.2,220.5 L 97.9,219.6 L 101.5,219.6 L 105.2,219.9 L 108.9,219.6 L 112.6,219.3 L 116.3,219.1 L 120.0,219.1 L 123.7,219.1 L 127.4,219.3 L 131.1,218.8 L 134.8,218.2 L 138.5,216.4 L 142.2,215.2 L 145.9,215.2 L 149.6,214.9 L 153.2,213.2 L 156.9,210.5 L 160.6,209.6 L 164.3,209.0 L 168.0,207.0 L 171.7,205.5 L 175.4,204.9 L 179.1,204.3 L 182.8,203.7 L 186.5,203.4 L 190.2,203.4 L 193.9,201.3 L 197.6,200.8 L 201.3,200.2 L 205.0,200.2 L 208.6,198.7 L 212.3,198.4 L 216.0,197.5 L 219.7,196.3 L 223.4,194.9 L 227.1,192.8 L 230.8,190.7 L 234.5,190.4 L 238.2,189.8 L 241.9,189.3 L 245.6,187.5 L 249.3,187.5 L 253.0,186.9 L 256.7,186.0 L 260.3,185.4 L 264.0,184.2 L 267.7,184.5 L 271.4,181.0 L 275.1,180.7 L 278.8,180.4 L 282.5,179.8 L 286.2,178.0 L 289.9,178.0 L 293.6,176.3 L 297.3,174.2 L 301.0,174.2 L 304.7,174.2 L 308.4,173.9 L 312.1,173.6 L 315.7,173.3 L 319.4,171.9 L 323.1,170.1 L 326.8,169.5 L 330.5,168.3 L 334.2,168.3 L 337.9,167.4 L 341.6,165.7 L 345.3,164.8 L 349.0,164.5 L 352.7,162.4 L 356.4,162.1 L 360.1,162.1 L 363.8,161.8 L 367.4,161.8 L 371.1,160.3 L 374.8,159.8 L 378.5,158.9 L 382.2,158.6 L 385.9,158.0 L 389.6,155.6 L 393.3,152.4 L 397.0,152.1 L 400.7,151.5 L 404.4,151.2 L 408.1,149.7 L 411.8,118.5 L 415.5,117.9 L 419.2,116.4 L 422.8,116.4 L 426.5,116.4 L 430.2,116.7 L 433.9,116.4 L 437.6,114.6 L 441.3,114.0 L 445.0,113.7 L 448.7,113.4 L 452.4,112.3 L 456.1,110.5 L 459.8,110.5 L 463.5,110.5 L 467.2,110.2 L 470.9,109.9 L 474.6,109.9 L 478.2,109.3 L 481.9,108.4 L 485.6,106.9 L 489.3,106.4 L 493.0,106.1 L 496.7,106.1 L 500.4,105.8 L 504.1,105.2 L 507.8,104.9 L 511.5,103.4 L 515.2,103.4 L 518.9,102.8 L 522.6,101.6 L 526.3,100.2 L 529.9,99.9 L 533.6,99.6 L 537.3,96.9 L 541.0,96.3 L 544.7,95.7 L 548.4,95.7 L 552.1,94.6 L 555.8,94.0 L 559.5,92.5 L 563.2,91.9 L 566.9,91.0 L 570.6,90.7 L 574.3,89.5 L 578.0,88.7 L 581.7,88.4 L 585.3,87.8 L 589.0,86.6 L 592.7,86.0 L 596.4,85.1 L 600.1,84.5 L 603.8,84.2 L 607.5,83.6 L 611.2,82.8 L 614.9,82.2 L 618.6,81.6 L 622.3,80.7 L 626.0,80.7 L 629.7,80.1 L 633.4,78.6 L 637.0,77.2 L 640.7,76.3 L 644.4,76.6 L 648.1,76.0 L 651.8,75.7 L 655.5,75.4 L 659.2,74.8 L 662.9,73.3 L 666.6,73.3 L 670.3,73.0 L 674.0,72.1 L 677.7,71.3 L 681.4,70.1 L 685.1,69.5 L 688.8,69.5 L 692.4,68.6 L 696.1,68.0 L 699.8,67.4 L 703.5,66.5 L 707.2,65.9 L 710.9,65.9 L 714.6,65.6 L 718.3,66.2 L 722.0,65.6 L 725.7,64.2 L 729.4,63.3 L 733.1,62.7 L 736.8,62.1 L 740.5,60.9 L 744.1,58.9 L 747.8,58.6 L 751.5,58.0 L 755.2,57.1 L 758.9,57.1 L 762.6,56.2 L 766.3,54.7 L 770.0,52.7 L 770.0,340 Z" fill="url(#g6)" clip-path="url(#ca)"/>
<path d="M 72.0,222.6 L 75.7,222.6 L 79.4,222.3 L 83.1,221.4 L 86.8,221.7 L 90.5,221.7 L 94.2,220.5 L 97.9,219.6 L 101.5,219.6 L 105.2,219.9 L 108.9,219.6 L 112.6,219.3 L 116.3,219.1 L 120.0,219.1 L 123.7,219.1 L 127.4,219.3 L 131.1,218.8 L 134.8,218.2 L 138.5,216.4 L 142.2,215.2 L 145.9,215.2 L 149.6,214.9 L 153.2,213.2 L 156.9,210.5 L 160.6,209.6 L 164.3,209.0 L 168.0,207.0 L 171.7,205.5 L 175.4,204.9 L 179.1,204.3 L 182.8,203.7 L 186.5,203.4 L 190.2,203.4 L 193.9,201.3 L 197.6,200.8 L 201.3,200.2 L 205.0,200.2 L 208.6,198.7 L 212.3,198.4 L 216.0,197.5 L 219.7,196.3 L 223.4,194.9 L 227.1,192.8 L 230.8,190.7 L 234.5,190.4 L 238.2,189.8 L 241.9,189.3 L 245.6,187.5 L 249.3,187.5 L 253.0,186.9 L 256.7,186.0 L 260.3,185.4 L 264.0,184.2 L 267.7,184.5 L 271.4,181.0 L 275.1,180.7 L 278.8,180.4 L 282.5,179.8 L 286.2,178.0 L 289.9,178.0 L 293.6,176.3 L 297.3,174.2 L 301.0,174.2 L 304.7,174.2 L 308.4,173.9 L 312.1,173.6 L 315.7,173.3 L 319.4,171.9 L 323.1,170.1 L 326.8,169.5 L 330.5,168.3 L 334.2,168.3 L 337.9,167.4 L 341.6,165.7 L 345.3,164.8 L 349.0,164.5 L 352.7,162.4 L 356.4,162.1 L 360.1,162.1 L 363.8,161.8 L 367.4,161.8 L 371.1,160.3 L 374.8,159.8 L 378.5,158.9 L 382.2,158.6 L 385.9,158.0 L 389.6,155.6 L 393.3,152.4 L 397.0,152.1 L 400.7,151.5 L 404.4,151.2 L 408.1,149.7 L 411.8,118.5 L 415.5,117.9 L 419.2,116.4 L 422.8,116.4 L 426.5,116.4 L 430.2,116.7 L 433.9,116.4 L 437.6,114.6 L 441.3,114.0 L 445.0,113.7 L 448.7,113.4 L 452.4,112.3 L 456.1,110.5 L 459.8,110.5 L 463.5,110.5 L 467.2,110.2 L 470.9,109.9 L 474.6,109.9 L 478.2,109.3 L 481.9,108.4 L 485.6,106.9 L 489.3,106.4 L 493.0,106.1 L 496.7,106.1 L 500.4,105.8 L 504.1,105.2 L 507.8,104.9 L 511.5,103.4 L 515.2,103.4 L 518.9,102.8 L 522.6,101.6 L 526.3,100.2 L 529.9,99.9 L 533.6,99.6 L 537.3,96.9 L 541.0,96.3 L 544.7,95.7 L 548.4,95.7 L 552.1,94.6 L 555.8,94.0 L 559.5,92.5 L 563.2,91.9 L 566.9,91.0 L 570.6,90.7 L 574.3,89.5 L 578.0,88.7 L 581.7,88.4 L 585.3,87.8 L 589.0,86.6 L 592.7,86.0 L 596.4,85.1 L 600.1,84.5 L 603.8,84.2 L 607.5,83.6 L 611.2,82.8 L 614.9,82.2 L 618.6,81.6 L 622.3,80.7 L 626.0,80.7 L 629.7,80.1 L 633.4,78.6 L 637.0,77.2 L 640.7,76.3 L 644.4,76.6 L 648.1,76.0 L 651.8,75.7 L 655.5,75.4 L 659.2,74.8 L 662.9,73.3 L 666.6,73.3 L 670.3,73.0 L 674.0,72.1 L 677.7,71.3 L 681.4,70.1 L 685.1,69.5 L 688.8,69.5 L 692.4,68.6 L 696.1,68.0 L 699.8,67.4 L 703.5,66.5 L 707.2,65.9 L 710.9,65.9 L 714.6,65.6 L 718.3,66.2 L 722.0,65.6 L 725.7,64.2 L 729.4,63.3 L 733.1,62.7 L 736.8,62.1 L 740.5,60.9 L 744.1,58.9 L 747.8,58.6 L 751.5,58.0 L 755.2,57.1 L 758.9,57.1 L 762.6,56.2 L 766.3,54.7 L 770.0,52.7" fill="none" stroke="#4F8EF7" stroke-width="2.5" stroke-linejoin="round" clip-path="url(#ca)"/>
<path d="M 72.0,340 L 72.0,338.2 L 75.7,337.9 L 79.4,337.9 L 83.1,337.6 L 86.8,337.6 L 90.5,337.6 L 94.2,337.6 L 97.9,337.6 L 101.5,337.1 L 105.2,337.1 L 108.9,337.1 L 112.6,337.1 L 116.3,337.1 L 120.0,336.8 L 123.7,336.8 L 127.4,336.8 L 131.1,336.8 L 134.8,336.8 L 138.5,336.5 L 142.2,335.9 L 145.9,335.6 L 149.6,335.6 L 153.2,335.6 L 156.9,335.3 L 160.6,335.3 L 164.3,335.3 L 168.0,335.0 L 171.7,335.0 L 175.4,335.0 L 179.1,334.7 L 182.8,334.7 L 186.5,334.7 L 190.2,334.7 L 193.9,334.4 L 197.6,334.4 L 201.3,334.4 L 205.0,334.4 L 208.6,334.4 L 212.3,334.4 L 216.0,334.4 L 219.7,334.4 L 223.4,334.4 L 227.1,334.4 L 230.8,334.4 L 234.5,334.4 L 238.2,334.4 L 241.9,334.1 L 245.6,334.1 L 249.3,334.1 L 253.0,334.1 L 256.7,334.1 L 260.3,334.1 L 264.0,334.1 L 267.7,334.1 L 271.4,334.1 L 275.1,334.1 L 278.8,334.1 L 282.5,334.1 L 286.2,333.8 L 289.9,333.8 L 293.6,333.8 L 297.3,333.8 L 301.0,333.8 L 304.7,333.8 L 308.4,333.8 L 312.1,333.8 L 315.7,333.8 L 319.4,333.8 L 323.1,333.8 L 326.8,333.8 L 330.5,333.8 L 334.2,333.8 L 337.9,333.8 L 341.6,333.8 L 345.3,333.8 L 349.0,333.8 L 352.7,333.8 L 356.4,333.8 L 360.1,333.8 L 363.8,333.8 L 367.4,333.8 L 371.1,333.8 L 374.8,333.8 L 378.5,333.8 L 382.2,333.8 L 385.9,333.8 L 389.6,333.8 L 393.3,333.8 L 397.0,333.8 L 400.7,333.8 L 404.4,333.8 L 408.1,333.8 L 411.8,333.8 L 415.5,333.8 L 419.2,333.5 L 422.8,333.5 L 426.5,333.5 L 430.2,333.5 L 433.9,333.5 L 437.6,333.2 L 441.3,333.2 L 445.0,333.2 L 448.7,333.2 L 452.4,332.9 L 456.1,332.9 L 459.8,332.6 L 463.5,332.6 L 467.2,332.6 L 470.9,332.6 L 474.6,332.6 L 478.2,332.6 L 481.9,332.6 L 485.6,332.6 L 489.3,332.6 L 493.0,332.6 L 496.7,332.6 L 500.4,332.6 L 504.1,332.6 L 507.8,332.6 L 511.5,332.6 L 515.2,332.6 L 518.9,332.6 L 522.6,332.6 L 526.3,332.6 L 529.9,332.6 L 533.6,332.6 L 537.3,332.6 L 541.0,332.6 L 544.7,332.6 L 548.4,332.6 L 552.1,332.6 L 555.8,332.6 L 559.5,332.6 L 563.2,332.6 L 566.9,332.6 L 570.6,332.6 L 574.3,332.6 L 578.0,332.6 L 581.7,332.6 L 585.3,332.6 L 589.0,332.6 L 592.7,332.6 L 596.4,332.6 L 600.1,332.6 L 603.8,332.6 L 607.5,332.6 L 611.2,332.6 L 614.9,332.6 L 618.6,332.6 L 622.3,332.6 L 626.0,332.6 L 629.7,332.6 L 633.4,332.6 L 637.0,332.3 L 640.7,332.3 L 644.4,332.3 L 648.1,332.3 L 651.8,332.3 L 655.5,332.3 L 659.2,332.3 L 662.9,332.3 L 666.6,332.3 L 670.3,332.3 L 674.0,332.3 L 677.7,332.0 L 681.4,332.0 L 685.1,332.0 L 688.8,332.0 L 692.4,332.0 L 696.1,332.0 L 699.8,332.0 L 703.5,332.0 L 707.2,332.0 L 710.9,332.0 L 714.6,332.0 L 718.3,332.0 L 722.0,332.0 L 725.7,332.0 L 729.4,331.7 L 733.1,331.7 L 736.8,331.7 L 740.5,331.7 L 744.1,331.7 L 747.8,331.7 L 751.5,331.7 L 755.2,331.7 L 758.9,331.7 L 762.6,331.7 L 766.3,331.7 L 770.0,331.7 L 770.0,340 Z" fill="url(#g7)" clip-path="url(#ca)"/>
<path d="M 72.0,338.2 L 75.7,337.9 L 79.4,337.9 L 83.1,337.6 L 86.8,337.6 L 90.5,337.6 L 94.2,337.6 L 97.9,337.6 L 101.5,337.1 L 105.2,337.1 L 108.9,337.1 L 112.6,337.1 L 116.3,337.1 L 120.0,336.8 L 123.7,336.8 L 127.4,336.8 L 131.1,336.8 L 134.8,336.8 L 138.5,336.5 L 142.2,335.9 L 145.9,335.6 L 149.6,335.6 L 153.2,335.6 L 156.9,335.3 L 160.6,335.3 L 164.3,335.3 L 168.0,335.0 L 171.7,335.0 L 175.4,335.0 L 179.1,334.7 L 182.8,334.7 L 186.5,334.7 L 190.2,334.7 L 193.9,334.4 L 197.6,334.4 L 201.3,334.4 L 205.0,334.4 L 208.6,334.4 L 212.3,334.4 L 216.0,334.4 L 219.7,334.4 L 223.4,334.4 L 227.1,334.4 L 230.8,334.4 L 234.5,334.4 L 238.2,334.4 L 241.9,334.1 L 245.6,334.1 L 249.3,334.1 L 253.0,334.1 L 256.7,334.1 L 260.3,334.1 L 264.0,334.1 L 267.7,334.1 L 271.4,334.1 L 275.1,334.1 L 278.8,334.1 L 282.5,334.1 L 286.2,333.8 L 289.9,333.8 L 293.6,333.8 L 297.3,333.8 L 301.0,333.8 L 304.7,333.8 L 308.4,333.8 L 312.1,333.8 L 315.7,333.8 L 319.4,333.8 L 323.1,333.8 L 326.8,333.8 L 330.5,333.8 L 334.2,333.8 L 337.9,333.8 L 341.6,333.8 L 345.3,333.8 L 349.0,333.8 L 352.7,333.8 L 356.4,333.8 L 360.1,333.8 L 363.8,333.8 L 367.4,333.8 L 371.1,333.8 L 374.8,333.8 L 378.5,333.8 L 382.2,333.8 L 385.9,333.8 L 389.6,333.8 L 393.3,333.8 L 397.0,333.8 L 400.7,333.8 L 404.4,333.8 L 408.1,333.8 L 411.8,333.8 L 415.5,333.8 L 419.2,333.5 L 422.8,333.5 L 426.5,333.5 L 430.2,333.5 L 433.9,333.5 L 437.6,333.2 L 441.3,333.2 L 445.0,333.2 L 448.7,333.2 L 452.4,332.9 L 456.1,332.9 L 459.8,332.6 L 463.5,332.6 L 467.2,332.6 L 470.9,332.6 L 474.6,332.6 L 478.2,332.6 L 481.9,332.6 L 485.6,332.6 L 489.3,332.6 L 493.0,332.6 L 496.7,332.6 L 500.4,332.6 L 504.1,332.6 L 507.8,332.6 L 511.5,332.6 L 515.2,332.6 L 518.9,332.6 L 522.6,332.6 L 526.3,332.6 L 529.9,332.6 L 533.6,332.6 L 537.3,332.6 L 541.0,332.6 L 544.7,332.6 L 548.4,332.6 L 552.1,332.6 L 555.8,332.6 L 559.5,332.6 L 563.2,332.6 L 566.9,332.6 L 570.6,332.6 L 574.3,332.6 L 578.0,332.6 L 581.7,332.6 L 585.3,332.6 L 589.0,332.6 L 592.7,332.6 L 596.4,332.6 L 600.1,332.6 L 603.8,332.6 L 607.5,332.6 L 611.2,332.6 L 614.9,332.6 L 618.6,332.6 L 622.3,332.6 L 626.0,332.6 L 629.7,332.6 L 633.4,332.6 L 637.0,332.3 L 640.7,332.3 L 644.4,332.3 L 648.1,332.3 L 651.8,332.3 L 655.5,332.3 L 659.2,332.3 L 662.9,332.3 L 666.6,332.3 L 670.3,332.3 L 674.0,332.3 L 677.7,332.0 L 681.4,332.0 L 685.1,332.0 L 688.8,332.0 L 692.4,332.0 L 696.1,332.0 L 699.8,332.0 L 703.5,332.0 L 707.2,332.0 L 710.9,332.0 L 714.6,332.0 L 718.3,332.0 L 722.0,332.0 L 725.7,332.0 L 729.4,331.7 L 733.1,331.7 L 736.8,331.7 L 740.5,331.7 L 744.1,331.7 L 747.8,331.7 L 751.5,331.7 L 755.2,331.7 L 758.9,331.7 L 762.6,331.7 L 766.3,331.7 L 770.0,331.7" fill="none" stroke="#FF6363" stroke-width="2.5" stroke-linejoin="round" clip-path="url(#ca)"/>
<text x="92.3" y="55.0" text-anchor="middle" font-size="9" fill="#34C759" opacity="0.85" clip-path="url(#ca)">+15.2% (+50)</text>
<text x="92.3" y="66.0" text-anchor="middle" font-size="9" fill="#4F8EF7" opacity="0.85" clip-path="url(#ca)">+2.8% (+11)</text>
<text x="92.3" y="77.0" text-anchor="middle" font-size="9" fill="#FF6363" opacity="0.85" clip-path="url(#ca)">+66.7% (+4)</text>
<text x="162.5" y="55.0" text-anchor="middle" font-size="9" fill="#34C759" opacity="0.85" clip-path="url(#ca)">+20.1% (+77)</text>
<text x="162.5" y="66.0" text-anchor="middle" font-size="9" fill="#4F8EF7" opacity="0.85" clip-path="url(#ca)">+16.8% (+69)</text>
<text x="162.5" y="77.0" text-anchor="middle" font-size="9" fill="#FF6363" opacity="0.85" clip-path="url(#ca)">+90.0% (+9)</text>
<text x="260.3" y="55.0" text-anchor="middle" font-size="9" fill="#34C759" opacity="0.85" clip-path="url(#ca)">+16.1% (+74)</text>
<text x="260.3" y="66.0" text-anchor="middle" font-size="9" fill="#4F8EF7" opacity="0.85" clip-path="url(#ca)">+17.3% (+83)</text>
<text x="260.3" y="77.0" text-anchor="middle" font-size="9" fill="#FF6363" opacity="0.85" clip-path="url(#ca)">+10.5% (+2)</text>
<text x="360.1" y="55.0" text-anchor="middle" font-size="9" fill="#34C759" opacity="0.85" clip-path="url(#ca)">+10.5% (+56)</text>
<text x="360.1" y="66.0" text-anchor="middle" font-size="9" fill="#4F8EF7" opacity="0.85" clip-path="url(#ca)">+14.4% (+81)</text>
<text x="360.1" y="77.0" text-anchor="middle" font-size="9" fill="#FF6363" opacity="0.85" clip-path="url(#ca)">+0.0% (+0)</text>
<text x="459.8" y="55.0" text-anchor="middle" font-size="9" fill="#34C759" opacity="0.85" clip-path="url(#ca)">+6.2% (+37)</text>
<text x="459.8" y="66.0" text-anchor="middle" font-size="9" fill="#4F8EF7" opacity="0.85" clip-path="url(#ca)">+6.1% (+46)</text>
<text x="459.8" y="77.0" text-anchor="middle" font-size="9" fill="#FF6363" opacity="0.85" clip-path="url(#ca)">+19.0% (+4)</text>
<text x="557.6" y="55.0" text-anchor="middle" font-size="9" fill="#34C759" opacity="0.85" clip-path="url(#ca)">+8.1% (+51)</text>
<text x="557.6" y="66.0" text-anchor="middle" font-size="9" fill="#4F8EF7" opacity="0.85" clip-path="url(#ca)">+8.1% (+65)</text>
<text x="557.6" y="77.0" text-anchor="middle" font-size="9" fill="#FF6363" opacity="0.85" clip-path="url(#ca)">+0.0% (+0)</text>
<text x="650.0" y="55.0" text-anchor="middle" font-size="9" fill="#34C759" opacity="0.85" clip-path="url(#ca)">+7.6% (+52)</text>
<text x="650.0" y="66.0" text-anchor="middle" font-size="9" fill="#4F8EF7" opacity="0.85" clip-path="url(#ca)">+5.9% (+51)</text>
<text x="650.0" y="77.0" text-anchor="middle" font-size="9" fill="#FF6363" opacity="0.85" clip-path="url(#ca)">+8.0% (+2)</text>
<text x="733.1" y="55.0" text-anchor="middle" font-size="9" fill="#34C759" opacity="0.85" clip-path="url(#ca)">+4.5% (+33)</text>
<text x="733.1" y="66.0" text-anchor="middle" font-size="9" fill="#4F8EF7" opacity="0.85" clip-path="url(#ca)">+5.6% (+52)</text>
<text x="733.1" y="77.0" text-anchor="middle" font-size="9" fill="#FF6363" opacity="0.85" clip-path="url(#ca)">+3.7% (+1)</text>
<rect x="211" y="369" width="12" height="12" fill="#34C759" rx="2"/>
<text x="227" y="379" font-size="12" fill="#111827">macOS + Windows</text>
<rect x="351" y="369" width="12" height="12" fill="#4F8EF7" rx="2"/>
<text x="367" y="379" font-size="12" fill="#111827">macOS only</text>
<rect x="491" y="369" width="12" height="12" fill="#FF6363" rx="2"/>
<text x="507" y="379" font-size="12" fill="#111827">Windows only</text>
<text x="72" y="394" font-size="8" fill="#e5e7eb">data since Dec 11, 2025</text>
</svg>