<svg xmlns="http://www.w3.org/2000/svg" width="800" height="400" viewBox="0 0 800 400">
<defs>
  <style>text { font-family: -apple-system, BlinkMacSystemFont, 'Segoe UI', Roboto, sans-serif; }</style>
  <linearGradient id="g5" x1="0" y1="0" x2="0" y2="1">
  <stop offset="0%" stop-color="#34C759" stop-opacity="0.25"/>
  <stop offset="100%" stop-color="#34C759" stop-opacity="0"/>
</linearGradient>
<linearGradient id="g6" x1="0" y1="0" x2="0" y2="1">
  <stop offset="0%" stop-color="#4F8EF7" stop-opacity="0.25"/>
  <stop offset="100%" stop-color="#4F8EF7" stop-opacity="0"/>
</linearGradient>
<linearGradient id="g7" x1="0" y1="0" x2="0" y2="1">
  <stop offset="0%" stop-color="#FF6363" stop-opacity="0.25"/>
  <stop offset="100%" stop-color="#FF6363" stop-opacity="0"/>
</linearGradient>
  <clipPath id="ca"><rect x="72" y="45" width="698" height="295"/></clipPath>
</defs>
<rect width="800" height="400" fill="#ffffff" rx="12"/>
<text x="400" y="26" text-anchor="middle" font-size="15" font-weight="600" fill="#111827">Platform Support Over Time</text>
<line x1="72" y1="340.0" x2="770" y2="340.0" stroke="#f3f4f6" stroke-width="1"/>
<text x="66" y="344.0" text-anchor="end" font-size="11" fill="#6b7280">0</text>
<line x1="72" y1="281.0" x2="770" y2="281.0" stroke="#f3f4f6" stroke-width="1"/>
<text x="66" y="285.0" text-anchor="end" font-size="11" fill="#6b7280">200</text>
<line x1="72" y1="222.0" x2="770" y2="222.0" stroke="#f3f4f6" stroke-width="1"/>
<text x="66" y="226.0" text-anchor="end" font-size="11" fill="#6b7280">400</text>
<line x1="72" y1="163.0" x2="770" y2="163.0" stroke="#f3f4f6" stroke-width="1"/>
<text x="66" y="167.0" text-anchor="end" font-size="11" fill="#6b7280">600</text>
<line x1="72" y1="104.0" x2="770" y2="104.0" stroke="#f3f4f6" stroke-width="1"/>
<text x="66" y="108.0" text-anchor="end" font-size="11" fill="#6b7280">800</text>
<line x1="72" y1="45.0" x2="770" y2="45.0" stroke="#f3f4f6" stroke-width="1"/>
<text x="66" y="49.0" text-anchor="end" font-size="11" fill="#6b7280">1.0k</text>
<line x1="136.4" y1="45" x2="136.4" y2="340" stroke="#e5e7eb" stroke-width="1" stroke-dasharray="3,3" clip-path="url(#ca)"/>
<line x1="276.0" y1="45" x2="276.0" y2="340" stroke="#e5e7eb" stroke-width="1" stroke-dasharray="3,3" clip-path="url(#ca)"/>
<line x1="421.0" y1="45" x2="421.0" y2="340" stroke="#e5e7eb" stroke-width="1" stroke-dasharray="3,3" clip-path="url(#ca)"/>
<line x1="566.0" y1="45" x2="566.0" y2="340" stroke="#e5e7eb" stroke-width="1" stroke-dasharray="3,3" clip-path="url(#ca)"/>
<line x1="710.9" y1="45" x2="710.9" y2="340" stroke="#e5e7eb" stroke-width="1" stroke-dasharray="3,3" clip-path="url(#ca)"/>
<text x="72.0" y="358.0" text-anchor="middle" font-size="11" fill="#6b7280">Dec 11</text>
<text x="211.6" y="358.0" text-anchor="middle" font-size="11" fill="#6b7280">Jan 20</text>
<text x="351.2" y="358.0" text-anchor="middle" font-size="11" fill="#6b7280">Feb 15</text>
<text x="490.8" y="358.0" text-anchor="middle" font-size="11" fill="#6b7280">Mar 15</text>
<text x="630.4" y="358.0" text-anchor="middle" font-size="11" fill="#6b7280">Apr 14</text>
<text x="770.0" y="358.0" text-anchor="middle" font-size="11" fill="#6b7280">May 17</text>
<line x1="72" y1="45" x2="72" y2="340" stroke="#e5e7eb" stroke-width="1"/>
<line x1="72" y1="340" x2="770" y2="340" stroke="#e5e7eb" stroke-width="1"/>
<text x="-192.5" y="18" text-anchor="middle" font-size="12" fill="#6b7280" transform="rotate(-90)">Extensions</text>
<path d="M 72.0,340 L 72.0,242.6 L 77.4,240.0 L 82.7,239.7 L 88.1,238.5 L 93.5,237.9 L 98.8,235.0 L 104.2,233.2 L 109.6,232.3 L 115.0,230.8 L 120.3,229.1 L 125.7,228.2 L 131.1,227.9 L 136.4,227.0 L 141.8,226.4 L 147.2,226.1 L 152.5,225.2 L 157.9,224.4 L 163.3,223.5 L 168.6,222.6 L 174.0,221.4 L 179.4,220.5 L 184.8,219.6 L 190.1,218.8 L 195.5,217.0 L 200.9,216.4 L 206.2,216.4 L 211.6,214.3 L 217.0,213.7 L 222.3,213.2 L 227.7,212.6 L 233.1,211.1 L 238.4,209.0 L 243.8,208.7 L 249.2,208.4 L 254.6,206.7 L 259.9,206.1 L 265.3,204.6 L 270.7,204.3 L 276.0,204.0 L 281.4,203.4 L 286.8,203.4 L 292.1,203.4 L 297.5,199.3 L 302.9,199.0 L 308.2,198.1 L 313.6,197.8 L 319.0,197.5 L 324.4,196.6 L 329.7,196.0 L 335.1,195.4 L 340.5,193.7 L 345.8,193.7 L 351.2,193.7 L 356.6,193.4 L 361.9,190.4 L 367.3,189.6 L 372.7,189.0 L 378.0,188.1 L 383.4,187.5 L 388.8,187.5 L 394.2,186.0 L 399.5,183.9 L 404.9,183.4 L 410.3,183.1 L 415.6,182.2 L 421.0,182.2 L 426.4,181.6 L 431.7,180.7 L 437.1,180.1 L 442.5,178.9 L 447.8,177.8 L 453.2,177.5 L 458.6,177.5 L 464.0,176.3 L 469.3,176.3 L 474.7,176.3 L 480.1,174.5 L 485.4,174.2 L 490.8,173.9 L 496.2,173.9 L 501.5,173.6 L 506.9,172.4 L 512.3,171.9 L 517.6,171.0 L 523.0,171.0 L 528.4,170.7 L 533.8,169.5 L 539.1,168.6 L 544.5,168.6 L 549.9,168.3 L 555.2,167.7 L 560.6,165.7 L 566.0,165.1 L 571.3,164.2 L 576.7,164.2 L 582.1,163.6 L 587.4,163.3 L 592.8,163.0 L 598.2,162.7 L 603.6,162.4 L 608.9,162.4 L 614.3,162.1 L 619.7,161.8 L 625.0,160.9 L 630.4,159.8 L 635.8,159.5 L 641.1,158.6 L 646.5,158.6 L 651.9,157.4 L 657.2,157.1 L 662.6,157.1 L 668.0,157.1 L 673.4,156.2 L 678.7,155.9 L 684.1,155.9 L 689.5,155.9 L 694.8,155.6 L 700.2,154.4 L 705.6,154.2 L 710.9,153.3 L 716.3,152.7 L 721.7,152.7 L 727.0,151.8 L 732.4,151.2 L 737.8,151.2 L 743.2,150.9 L 748.5,149.4 L 753.9,148.0 L 759.3,147.7 L 764.6,147.1 L 770.0,145.9 L 770.0,340 Z" fill="url(#g5)" clip-path="url(#ca)"/>
<path d="M 72.0,242.6 L 77.4,240.0 L 82.7,239.7 L 88.1,238.5 L 93.5,237.9 L 98.8,235.0 L 104.2,233.2 L 109.6,232.3 L 115.0,230.8 L 120.3,229.1 L 125.7,228.2 L 131.1,227.9 L 136.4,227.0 L 141.8,226.4 L 147.2,226.1 L 152.5,225.2 L 157.9,224.4 L 163.3,223.5 L 168.6,222.6 L 174.0,221.4 L 179.4,220.5 L 184.8,219.6 L 190.1,218.8 L 195.5,217.0 L 200.9,216.4 L 206.2,216.4 L 211.6,214.3 L 217.0,213.7 L 222.3,213.2 L 227.7,212.6 L 233.1,211.1 L 238.4,209.0 L 243.8,208.7 L 249.2,208.4 L 254.6,206.7 L 259.9,206.1 L 265.3,204.6 L 270.7,204.3 L 276.0,204.0 L 281.4,203.4 L 286.8,203.4 L 292.1,203.4 L 297.5,199.3 L 302.9,199.0 L 308.2,198.1 L 313.6,197.8 L 319.0,197.5 L 324.4,196.6 L 329.7,196.0 L 335.1,195.4 L 340.5,193.7 L 345.8,193.7 L 351.2,193.7 L 356.6,193.4 L 361.9,190.4 L 367.3,189.6 L 372.7,189.0 L 378.0,188.1 L 383.4,187.5 L 388.8,187.5 L 394.2,186.0 L 399.5,183.9 L 404.9,183.4 L 410.3,183.1 L 415.6,182.2 L 421.0,182.2 L 426.4,181.6 L 431.7,180.7 L 437.1,180.1 L 442.5,178.9 L 447.8,177.8 L 453.2,177.5 L 458.6,177.5 L 464.0,176.3 L 469.3,176.3 L 474.7,176.3 L 480.1,174.5 L 485.4,174.2 L 490.8,173.9 L 496.2,173.9 L 501.5,173.6 L 506.9,172.4 L 512.3,171.9 L 517.6,171.0 L 523.0,171.0 L 528.4,170.7 L 533.8,169.5 L 539.1,168.6 L 544.5,168.6 L 549.9,168.3 L 555.2,167.7 L 560.6,165.7 L 566.0,165.1 L 571.3,164.2 L 576.7,164.2 L 582.1,163.6 L 587.4,163.3 L 592.8,163.0 L 598.2,162.7 L 603.6,162.4 L 608.9,162.4 L 614.3,162.1 L 619.7,161.8 L 625.0,160.9 L 630.4,159.8 L 635.8,159.5 L 641.1,158.6 L 646.5,158.6 L 651.9,157.4 L 657.2,157.1 L 662.6,157.1 L 668.0,157.1 L 673.4,156.2 L 678.7,155.9 L 684.1,155.9 L 689.5,155.9 L 694.8,155.6 L 700.2,154.4 L 705.6,154.2 L 710.9,153.3 L 716.3,152.7 L 721.7,152.7 L 727.0,151.8 L 732.4,151.2 L 737.8,151.2 L 743.2,150.9 L 748.5,149.4 L 753.9,148.0 L 759.3,147.7 L 764.6,147.1 L 770.0,145.9" fill="none" stroke="#34C759" stroke-width="2.5" stroke-linejoin="round" clip-path="url(#ca)"/>
<path d="M 72.0,340 L 72.0,222.6 L 77.4,222.6 L 82.7,222.3 L 88.1,221.4 L 93.5,221.7 L 98.8,221.7 L 104.2,220.5 L 109.6,219.6 L 115.0,219.6 L 120.3,219.9 L 125.7,219.6 L 131.1,219.3 L 136.4,219.1 L 141.8,219.1 L 147.2,219.1 L 152.5,219.3 L 157.9,218.8 L 163.3,218.2 L 168.6,216.4 L 174.0,215.2 L 179.4,215.2 L 184.8,214.9 L 190.1,213.2 L 195.5,210.5 L 200.9,209.6 L 206.2,209.0 L 211.6,207.0 L 217.0,205.5 L 222.3,204.9 L 227.7,204.3 L 233.1,203.7 L 238.4,203.4 L 243.8,203.4 L 249.2,201.3 L 254.6,200.8 L 259.9,200.2 L 265.3,200.2 L 270.7,198.7 L 276.0,198.4 L 281.4,197.5 L 286.8,196.3 L 292.1,194.9 L 297.5,192.8 L 302.9,190.7 L 308.2,190.4 L 313.6,189.8 L 319.0,189.3 L 324.4,187.5 L 329.7,187.5 L 335.1,186.9 L 340.5,186.0 L 345.8,185.4 L 351.2,184.2 L 356.6,184.5 L 361.9,181.0 L 367.3,180.7 L 372.7,180.4 L 378.0,179.8 L 383.4,178.0 L 388.8,178.0 L 394.2,176.3 L 399.5,174.2 L 404.9,174.2 L 410.3,174.2 L 415.6,173.9 L 421.0,173.6 L 426.4,173.3 L 431.7,171.9 L 437.1,170.1 L 442.5,169.5 L 447.8,168.3 L 453.2,168.3 L 458.6,167.4 L 464.0,165.7 L 469.3,164.8 L 474.7,164.5 L 480.1,162.4 L 485.4,162.1 L 490.8,162.1 L 496.2,161.8 L 501.5,161.8 L 506.9,160.3 L 512.3,159.8 L 517.6,158.9 L 523.0,158.6 L 528.4,158.0 L 533.8,155.6 L 539.1,152.4 L 544.5,152.1 L 549.9,151.5 L 555.2,151.2 L 560.6,149.7 L 566.0,118.5 L 571.3,117.9 L 576.7,116.4 L 582.1,116.4 L 587.4,116.4 L 592.8,116.7 L 598.2,116.4 L 603.6,114.6 L 608.9,114.0 L 614.3,113.7 L 619.7,113.4 L 625.0,112.3 L 630.4,110.5 L 635.8,110.5 L 641.1,110.5 L 646.5,110.2 L 651.9,109.9 L 657.2,109.9 L 662.6,109.3 L 668.0,108.4 L 673.4,106.9 L 678.7,106.4 L 684.1,106.1 L 689.5,106.1 L 694.8,105.8 L 700.2,105.2 L 705.6,104.9 L 710.9,103.4 L 716.3,103.4 L 721.7,102.8 L 727.0,101.6 L 732.4,100.2 L 737.8,99.9 L 743.2,99.6 L 748.5,96.9 L 753.9,96.3 L 759.3,95.7 L 764.6,95.7 L 770.0,94.6 L 770.0,340 Z" fill="url(#g6)" clip-path="url(#ca)"/>
<path d="M 72.0,222.6 L 77.4,222.6 L 82.7,222.3 L 88.1,221.4 L 93.5,221.7 L 98.8,221.7 L 104.2,220.5 L 109.6,219.6 L 115.0,219.6 L 120.3,219.9 L 125.7,219.6 L 131.1,219.3 L 136.4,219.1 L 141.8,219.1 L 147.2,219.1 L 152.5,219.3 L 157.9,218.8 L 163.3,218.2 L 168.6,216.4 L 174.0,215.2 L 179.4,215.2 L 184.8,214.9 L 190.1,213.2 L 195.5,210.5 L 200.9,209.6 L 206.2,209.0 L 211.6,207.0 L 217.0,205.5 L 222.3,204.9 L 227.7,204.3 L 233.1,203.7 L 238.4,203.4 L 243.8,203.4 L 249.2,201.3 L 254.6,200.8 L 259.9,200.2 L 265.3,200.2 L 270.7,198.7 L 276.0,198.4 L 281.4,197.5 L 286.8,196.3 L 292.1,194.9 L 297.5,192.8 L 302.9,190.7 L 308.2,190.4 L 313.6,189.8 L 319.0,189.3 L 324.4,187.5 L 329.7,187.5 L 335.1,186.9 L 340.5,186.0 L 345.8,185.4 L 351.2,184.2 L 356.6,184.5 L 361.9,181.0 L 367.3,180.7 L 372.7,180.4 L 378.0,179.8 L 383.4,178.0 L 388.8,178.0 L 394.2,176.3 L 399.5,174.2 L 404.9,174.2 L 410.3,174.2 L 415.6,173.9 L 421.0,173.6 L 426.4,173.3 L 431.7,171.9 L 437.1,170.1 L 442.5,169.5 L 447.8,168.3 L 453.2,168.3 L 458.6,167.4 L 464.0,165.7 L 469.3,164.8 L 474.7,164.5 L 480.1,162.4 L 485.4,162.1 L 490.8,162.1 L 496.2,161.8 L 501.5,161.8 L 506.9,160.3 L 512.3,159.8 L 517.6,158.9 L 523.0,158.6 L 528.4,158.0 L 533.8,155.6 L 539.1,152.4 L 544.5,152.1 L 549.9,151.5 L 555.2,151.2 L 560.6,149.7 L 566.0,118.5 L 571.3,117.9 L 576.7,116.4 L 582.1,116.4 L 587.4,116.4 L 592.8,116.7 L 598.2,116.4 L 603.6,114.6 L 608.9,114.0 L 614.3,113.7 L 619.7,113.4 L 625.0,112.3 L 630.4,110.5 L 635.8,110.5 L 641.1,110.5 L 646.5,110.2 L 651.9,109.9 L 657.2,109.9 L 662.6,109.3 L 668.0,108.4 L 673.4,106.9 L 678.7,106.4 L 684.1,106.1 L 689.5,106.1 L 694.8,105.8 L 700.2,105.2 L 705.6,104.9 L 710.9,103.4 L 716.3,103.4 L 721.7,102.8 L 727.0,101.6 L 732.4,100.2 L 737.8,99.9 L 743.2,99.6 L 748.5,96.9 L 753.9,96.3 L 759.3,95.7 L 764.6,95.7 L 770.0,94.6" fill="none" stroke="#4F8EF7" stroke-width="2.5" stroke-linejoin="round" clip-path="url(#ca)"/>
<path d="M 72.0,340 L 72.0,338.2 L 77.4,337.9 L 82.7,337.9 L 88.1,337.6 L 93.5,337.6 L 98.8,337.6 L 104.2,337.6 L 109.6,337.6 L 115.0,337.1 L 120.3,337.1 L 125.7,337.1 L 131.1,337.1 L 136.4,337.1 L 141.8,336.8 L 147.2,336.8 L 152.5,336.8 L 157.9,336.8 L 163.3,336.8 L 168.6,336.5 L 174.0,335.9 L 179.4,335.6 L 184.8,335.6 L 190.1,335.6 L 195.5,335.3 L 200.9,335.3 L 206.2,335.3 L 211.6,335.0 L 217.0,335.0 L 222.3,335.0 L 227.7,334.7 L 233.1,334.7 L 238.4,334.7 L 243.8,334.7 L 249.2,334.4 L 254.6,334.4 L 259.9,334.4 L 265.3,334.4 L 270.7,334.4 L 276.0,334.4 L 281.4,334.4 L 286.8,334.4 L 292.1,334.4 L 297.5,334.4 L 302.9,334.4 L 308.2,334.4 L 313.6,334.4 L 319.0,334.1 L 324.4,334.1 L 329.7,334.1 L 335.1,334.1 L 340.5,334.1 L 345.8,334.1 L 351.2,334.1 L 356.6,334.1 L 361.9,334.1 L 367.3,334.1 L 372.7,334.1 L 378.0,334.1 L 383.4,333.8 L 388.8,333.8 L 394.2,333.8 L 399.5,333.8 L 404.9,333.8 L 410.3,333.8 L 415.6,333.8 L 421.0,333.8 L 426.4,333.8 L 431.7,333.8 L 437.1,333.8 L 442.5,333.8 L 447.8,333.8 L 453.2,333.8 L 458.6,333.8 L 464.0,333.8 L 469.3,333.8 L 474.7,333.8 L 480.1,333.8 L 485.4,333.8 L 490.8,333.8 L 496.2,333.8 L 501.5,333.8 L 506.9,333.8 L 512.3,333.8 L 517.6,333.8 L 523.0,333.8 L 528.4,333.8 L 533.8,333.8 L 539.1,333.8 L 544.5,333.8 L 549.9,333.8 L 555.2,333.8 L 560.6,333.8 L 566.0,333.8 L 571.3,333.8 L 576.7,333.5 L 582.1,333.5 L 587.4,333.5 L 592.8,333.5 L 598.2,333.5 L 603.6,333.2 L 608.9,333.2 L 614.3,333.2 L 619.7,333.2 L 625.0,332.9 L 630.4,332.9 L 635.8,332.6 L 641.1,332.6 L 646.5,332.6 L 651.9,332.6 L 657.2,332.6 L 662.6,332.6 L 668.0,332.6 L 673.4,332.6 L 678.7,332.6 L 684.1,332.6 L 689.5,332.6 L 694.8,332.6 L 700.2,332.6 L 705.6,332.6 L 710.9,332.6 L 716.3,332.6 L 721.7,332.6 L 727.0,332.6 L 732.4,332.6 L 737.8,332.6 L 743.2,332.6 L 748.5,332.6 L 753.9,332.6 L 759.3,332.6 L 764.6,332.6 L 770.0,332.6 L 770.0,340 Z" fill="url(#g7)" clip-path="url(#ca)"/>
<path d="M 72.0,338.2 L 77.4,337.9 L 82.7,337.9 L 88.1,337.6 L 93.5,337.6 L 98.8,337.6 L 104.2,337.6 L 109.6,337.6 L 115.0,337.1 L 120.3,337.1 L 125.7,337.1 L 131.1,337.1 L 136.4,337.1 L 141.8,336.8 L 147.2,336.8 L 152.5,336.8 L 157.9,336.8 L 163.3,336.8 L 168.6,336.5 L 174.0,335.9 L 179.4,335.6 L 184.8,335.6 L 190.1,335.6 L 195.5,335.3 L 200.9,335.3 L 206.2,335.3 L 211.6,335.0 L 217.0,335.0 L 222.3,335.0 L 227.7,334.7 L 233.1,334.7 L 238.4,334.7 L 243.8,334.7 L 249.2,334.4 L 254.6,334.4 L 259.9,334.4 L 265.3,334.4 L 270.7,334.4 L 276.0,334.4 L 281.4,334.4 L 286.8,334.4 L 292.1,334.4 L 297.5,334.4 L 302.9,334.4 L 308.2,334.4 L 313.6,334.4 L 319.0,334.1 L 324.4,334.1 L 329.7,334.1 L 335.1,334.1 L 340.5,334.1 L 345.8,334.1 L 351.2,334.1 L 356.6,334.1 L 361.9,334.1 L 367.3,334.1 L 372.7,334.1 L 378.0,334.1 L 383.4,333.8 L 388.8,333.8 L 394.2,333.8 L 399.5,333.8 L 404.9,333.8 L 410.3,333.8 L 415.6,333.8 L 421.0,333.8 L 426.4,333.8 L 431.7,333.8 L 437.1,333.8 L 442.5,333.8 L 447.8,333.8 L 453.2,333.8 L 458.6,333.8 L 464.0,333.8 L 469.3,333.8 L 474.7,333.8 L 480.1,333.8 L 485.4,333.8 L 490.8,333.8 L 496.2,333.8 L 501.5,333.8 L 506.9,333.8 L 512.3,333.8 L 517.6,333.8 L 523.0,333.8 L 528.4,333.8 L 533.8,333.8 L 539.1,333.8 L 544.5,333.8 L 549.9,333.8 L 555.2,333.8 L 560.6,333.8 L 566.0,333.8 L 571.3,333.8 L 576.7,333.5 L 582.1,333.5 L 587.4,333.5 L 592.8,333.5 L 598.2,333.5 L 603.6,333.2 L 608.9,333.2 L 614.3,333.2 L 619.7,333.2 L 625.0,332.9 L 630.4,332.9 L 635.8,332.6 L 641.1,332.6 L 646.5,332.6 L 651.9,332.6 L 657.2,332.6 L 662.6,332.6 L 668.0,332.6 L 673.4,332.6 L 678.7,332.6 L 684.1,332.6 L 689.5,332.6 L 694.8,332.6 L 700.2,332.6 L 705.6,332.6 L 710.9,332.6 L 716.3,332.6 L 721.7,332.6 L 727.0,332.6 L 732.4,332.6 L 737.8,332.6 L 743.2,332.6 L 748.5,332.6 L 753.9,332.6 L 759.3,332.6 L 764.6,332.6 L 770.0,332.6" fill="none" stroke="#FF6363" stroke-width="2.5" stroke-linejoin="round" clip-path="url(#ca)"/>
<text x="101.5" y="55.0" text-anchor="middle" font-size="9" fill="#34C759" opacity="0.85" clip-path="url(#ca)">+15.2% (+50)</text>
<text x="101.5" y="66.0" text-anchor="middle" font-size="9" fill="#4F8EF7" opacity="0.85" clip-path="url(#ca)">+2.8% (+11)</text>
<text x="101.5" y="77.0" text-anchor="middle" font-size="9" fill="#FF6363" opacity="0.85" clip-path="url(#ca)">+66.7% (+4)</text>
<text x="203.5" y="55.0" text-anchor="middle" font-size="9" fill="#34C759" opacity="0.85" clip-path="url(#ca)">+20.1% (+77)</text>
<text x="203.5" y="66.0" text-anchor="middle" font-size="9" fill="#4F8EF7" opacity="0.85" clip-path="url(#ca)">+16.8% (+69)</text>
<text x="203.5" y="77.0" text-anchor="middle" font-size="9" fill="#FF6363" opacity="0.85" clip-path="url(#ca)">+90.0% (+9)</text>
<text x="345.8" y="55.0" text-anchor="middle" font-size="9" fill="#34C759" opacity="0.85" clip-path="url(#ca)">+16.1% (+74)</text>
<text x="345.8" y="66.0" text-anchor="middle" font-size="9" fill="#4F8EF7" opacity="0.85" clip-path="url(#ca)">+17.3% (+83)</text>
<text x="345.8" y="77.0" text-anchor="middle" font-size="9" fill="#FF6363" opacity="0.85" clip-path="url(#ca)">+10.5% (+2)</text>
<text x="490.8" y="55.0" text-anchor="middle" font-size="9" fill="#34C759" opacity="0.85" clip-path="url(#ca)">+10.5% (+56)</text>
<text x="490.8" y="66.0" text-anchor="middle" font-size="9" fill="#4F8EF7" opacity="0.85" clip-path="url(#ca)">+14.4% (+81)</text>
<text x="490.8" y="77.0" text-anchor="middle" font-size="9" fill="#FF6363" opacity="0.85" clip-path="url(#ca)">+0.0% (+0)</text>
<text x="635.8" y="55.0" text-anchor="middle" font-size="9" fill="#34C759" opacity="0.85" clip-path="url(#ca)">+6.2% (+37)</text>
<text x="635.8" y="66.0" text-anchor="middle" font-size="9" fill="#4F8EF7" opacity="0.85" clip-path="url(#ca)">+6.1% (+46)</text>
<text x="635.8" y="77.0" text-anchor="middle" font-size="9" fill="#FF6363" opacity="0.85" clip-path="url(#ca)">+19.0% (+4)</text>
<text x="740.5" y="55.0" text-anchor="middle" font-size="9" fill="#34C759" opacity="0.85" clip-path="url(#ca)">+3.9% (+25)</text>
<text x="740.5" y="66.0" text-anchor="middle" font-size="9" fill="#4F8EF7" opacity="0.85" clip-path="url(#ca)">+3.7% (+30)</text>
<text x="740.5" y="77.0" text-anchor="middle" font-size="9" fill="#FF6363" opacity="0.85" clip-path="url(#ca)">+0.0% (+0)</text>
<rect x="211" y="369" width="12" height="12" fill="#34C759" rx="2"/>
<text x="227" y="379" font-size="12" fill="#111827">macOS + Windows</text>
<rect x="351" y="369" width="12" height="12" fill="#4F8EF7" rx="2"/>
<text x="367" y="379" font-size="12" fill="#111827">macOS only</text>
<rect x="491" y="369" width="12" height="12" fill="#FF6363" rx="2"/>
<text x="507" y="379" font-size="12" fill="#111827">Windows only</text>
<text x="72" y="394" font-size="8" fill="#e5e7eb">data since Dec 11, 2025</text>
</svg>