<svg xmlns="http://www.w3.org/2000/svg" width="800" height="400" viewBox="0 0 800 400">
<defs>
  <style>text { font-family: -apple-system, BlinkMacSystemFont, 'Segoe UI', Roboto, sans-serif; }</style>
  <linearGradient id="g5" x1="0" y1="0" x2="0" y2="1">
  <stop offset="0%" stop-color="#34C759" stop-opacity="0.25"/>
  <stop offset="100%" stop-color="#34C759" stop-opacity="0"/>
</linearGradient>
<linearGradient id="g6" x1="0" y1="0" x2="0" y2="1">
  <stop offset="0%" stop-color="#4F8EF7" stop-opacity="0.25"/>
  <stop offset="100%" stop-color="#4F8EF7" stop-opacity="0"/>
</linearGradient>
<linearGradient id="g7" x1="0" y1="0" x2="0" y2="1">
  <stop offset="0%" stop-color="#FF6363" stop-opacity="0.25"/>
  <stop offset="100%" stop-color="#FF6363" stop-opacity="0"/>
</linearGradient>
  <clipPath id="ca"><rect x="72" y="45" width="698" height="295"/></clipPath>
</defs>
<rect width="800" height="400" fill="#ffffff" rx="12"/>
<text x="400" y="26" text-anchor="middle" font-size="15" font-weight="600" fill="#111827">Platform Support Over Time</text>
<line x1="72" y1="340.0" x2="770" y2="340.0" stroke="#f3f4f6" stroke-width="1"/>
<text x="66" y="344.0" text-anchor="end" font-size="11" fill="#6b7280">0</text>
<line x1="72" y1="266.3" x2="770" y2="266.3" stroke="#f3f4f6" stroke-width="1"/>
<text x="66" y="270.3" text-anchor="end" font-size="11" fill="#6b7280">200</text>
<line x1="72" y1="192.5" x2="770" y2="192.5" stroke="#f3f4f6" stroke-width="1"/>
<text x="66" y="196.5" text-anchor="end" font-size="11" fill="#6b7280">400</text>
<line x1="72" y1="118.8" x2="770" y2="118.8" stroke="#f3f4f6" stroke-width="1"/>
<text x="66" y="122.8" text-anchor="end" font-size="11" fill="#6b7280">600</text>
<line x1="72" y1="45.0" x2="770" y2="45.0" stroke="#f3f4f6" stroke-width="1"/>
<text x="66" y="49.0" text-anchor="end" font-size="11" fill="#6b7280">800</text>
<line x1="154.1" y1="45" x2="154.1" y2="340" stroke="#e5e7eb" stroke-width="1" stroke-dasharray="3,3" clip-path="url(#ca)"/>
<line x1="332.0" y1="45" x2="332.0" y2="340" stroke="#e5e7eb" stroke-width="1" stroke-dasharray="3,3" clip-path="url(#ca)"/>
<line x1="516.8" y1="45" x2="516.8" y2="340" stroke="#e5e7eb" stroke-width="1" stroke-dasharray="3,3" clip-path="url(#ca)"/>
<line x1="701.6" y1="45" x2="701.6" y2="340" stroke="#e5e7eb" stroke-width="1" stroke-dasharray="3,3" clip-path="url(#ca)"/>
<text x="72.0" y="358.0" text-anchor="middle" font-size="11" fill="#6b7280">Dec 11</text>
<text x="208.9" y="358.0" text-anchor="middle" font-size="11" fill="#6b7280">Jan 13</text>
<text x="352.6" y="358.0" text-anchor="middle" font-size="11" fill="#6b7280">Feb 4</text>
<text x="489.4" y="358.0" text-anchor="middle" font-size="11" fill="#6b7280">Feb 25</text>
<text x="633.1" y="358.0" text-anchor="middle" font-size="11" fill="#6b7280">Mar 19</text>
<text x="770.0" y="358.0" text-anchor="middle" font-size="11" fill="#6b7280">Apr 12</text>
<line x1="72" y1="45" x2="72" y2="340" stroke="#e5e7eb" stroke-width="1"/>
<line x1="72" y1="340" x2="770" y2="340" stroke="#e5e7eb" stroke-width="1"/>
<text x="-192.5" y="18" text-anchor="middle" font-size="12" fill="#6b7280" transform="rotate(-90)">Extensions</text>
<path d="M 72.0,340 L 72.0,218.3 L 78.8,215.0 L 85.7,214.6 L 92.5,213.2 L 99.4,212.4 L 106.2,208.7 L 113.1,206.5 L 119.9,205.4 L 126.7,203.6 L 133.6,201.3 L 140.4,200.2 L 147.3,199.9 L 154.1,198.8 L 161.0,198.0 L 167.8,197.7 L 174.6,196.6 L 181.5,195.4 L 188.3,194.3 L 195.2,193.2 L 202.0,191.8 L 208.9,190.7 L 215.7,189.6 L 222.5,188.4 L 229.4,186.2 L 236.2,185.5 L 243.1,185.5 L 249.9,182.9 L 256.8,182.2 L 263.6,181.4 L 270.5,180.7 L 277.3,178.9 L 284.1,176.3 L 291.0,175.9 L 297.8,175.5 L 304.7,173.3 L 311.5,172.6 L 318.4,170.7 L 325.2,170.4 L 332.0,170.0 L 338.9,169.3 L 345.7,169.3 L 352.6,169.3 L 359.4,164.1 L 366.3,163.7 L 373.1,162.6 L 379.9,162.3 L 386.8,161.9 L 393.6,160.8 L 400.5,160.1 L 407.3,159.3 L 414.2,157.1 L 421.0,157.1 L 427.8,157.1 L 434.7,156.7 L 441.5,153.0 L 448.4,151.9 L 455.2,151.2 L 462.1,150.1 L 468.9,149.4 L 475.7,149.4 L 482.6,147.5 L 489.4,144.9 L 496.3,144.2 L 503.1,143.8 L 510.0,142.7 L 516.8,142.7 L 523.6,142.0 L 530.5,140.9 L 537.3,140.1 L 544.2,138.7 L 551.0,137.2 L 557.9,136.8 L 564.7,136.8 L 571.5,135.3 L 578.4,135.3 L 585.2,135.3 L 592.1,133.1 L 598.9,132.8 L 605.8,132.4 L 612.6,132.4 L 619.5,132.0 L 626.3,130.6 L 633.1,129.8 L 640.0,128.7 L 646.8,128.7 L 653.7,128.3 L 660.5,126.9 L 667.4,125.8 L 674.2,125.8 L 681.0,125.4 L 687.9,124.7 L 694.7,122.1 L 701.6,121.3 L 708.4,120.2 L 715.3,120.2 L 722.1,119.5 L 728.9,119.1 L 735.8,118.8 L 742.6,118.4 L 749.5,118.0 L 756.3,118.0 L 763.2,117.6 L 770.0,117.3 L 770.0,340 Z" fill="url(#g5)" clip-path="url(#ca)"/>
<path d="M 72.0,218.3 L 78.8,215.0 L 85.7,214.6 L 92.5,213.2 L 99.4,212.4 L 106.2,208.7 L 113.1,206.5 L 119.9,205.4 L 126.7,203.6 L 133.6,201.3 L 140.4,200.2 L 147.3,199.9 L 154.1,198.8 L 161.0,198.0 L 167.8,197.7 L 174.6,196.6 L 181.5,195.4 L 188.3,194.3 L 195.2,193.2 L 202.0,191.8 L 208.9,190.7 L 215.7,189.6 L 222.5,188.4 L 229.4,186.2 L 236.2,185.5 L 243.1,185.5 L 249.9,182.9 L 256.8,182.2 L 263.6,181.4 L 270.5,180.7 L 277.3,178.9 L 284.1,176.3 L 291.0,175.9 L 297.8,175.5 L 304.7,173.3 L 311.5,172.6 L 318.4,170.7 L 325.2,170.4 L 332.0,170.0 L 338.9,169.3 L 345.7,169.3 L 352.6,169.3 L 359.4,164.1 L 366.3,163.7 L 373.1,162.6 L 379.9,162.3 L 386.8,161.9 L 393.6,160.8 L 400.5,160.1 L 407.3,159.3 L 414.2,157.1 L 421.0,157.1 L 427.8,157.1 L 434.7,156.7 L 441.5,153.0 L 448.4,151.9 L 455.2,151.2 L 462.1,150.1 L 468.9,149.4 L 475.7,149.4 L 482.6,147.5 L 489.4,144.9 L 496.3,144.2 L 503.1,143.8 L 510.0,142.7 L 516.8,142.7 L 523.6,142.0 L 530.5,140.9 L 537.3,140.1 L 544.2,138.7 L 551.0,137.2 L 557.9,136.8 L 564.7,136.8 L 571.5,135.3 L 578.4,135.3 L 585.2,135.3 L 592.1,133.1 L 598.9,132.8 L 605.8,132.4 L 612.6,132.4 L 619.5,132.0 L 626.3,130.6 L 633.1,129.8 L 640.0,128.7 L 646.8,128.7 L 653.7,128.3 L 660.5,126.9 L 667.4,125.8 L 674.2,125.8 L 681.0,125.4 L 687.9,124.7 L 694.7,122.1 L 701.6,121.3 L 708.4,120.2 L 715.3,120.2 L 722.1,119.5 L 728.9,119.1 L 735.8,118.8 L 742.6,118.4 L 749.5,118.0 L 756.3,118.0 L 763.2,117.6 L 770.0,117.3" fill="none" stroke="#34C759" stroke-width="2.5" stroke-linejoin="round" clip-path="url(#ca)"/>
<path d="M 72.0,340 L 72.0,193.2 L 78.8,193.2 L 85.7,192.9 L 92.5,191.8 L 99.4,192.1 L 106.2,192.1 L 113.1,190.7 L 119.9,189.6 L 126.7,189.6 L 133.6,189.9 L 140.4,189.6 L 147.3,189.2 L 154.1,188.8 L 161.0,188.8 L 167.8,188.8 L 174.6,189.2 L 181.5,188.4 L 188.3,187.7 L 195.2,185.5 L 202.0,184.0 L 208.9,184.0 L 215.7,183.7 L 222.5,181.4 L 229.4,178.1 L 236.2,177.0 L 243.1,176.3 L 249.9,173.7 L 256.8,171.9 L 263.6,171.1 L 270.5,170.4 L 277.3,169.6 L 284.1,169.3 L 291.0,169.3 L 297.8,166.7 L 304.7,166.0 L 311.5,165.2 L 318.4,165.2 L 325.2,163.4 L 332.0,163.0 L 338.9,161.9 L 345.7,160.4 L 352.6,158.6 L 359.4,156.0 L 366.3,153.4 L 373.1,153.0 L 379.9,152.3 L 386.8,151.6 L 393.6,149.4 L 400.5,149.4 L 407.3,148.6 L 414.2,147.5 L 421.0,146.8 L 427.8,145.3 L 434.7,145.7 L 441.5,141.2 L 448.4,140.9 L 455.2,140.5 L 462.1,139.8 L 468.9,137.6 L 475.7,137.6 L 482.6,135.3 L 489.4,132.8 L 496.3,132.8 L 503.1,132.8 L 510.0,132.4 L 516.8,132.0 L 523.6,131.7 L 530.5,129.8 L 537.3,127.6 L 544.2,126.9 L 551.0,125.4 L 557.9,125.4 L 564.7,124.3 L 571.5,122.1 L 578.4,121.0 L 585.2,120.6 L 592.1,118.0 L 598.9,117.6 L 605.8,117.6 L 612.6,117.3 L 619.5,117.3 L 626.3,115.4 L 633.1,114.7 L 640.0,113.6 L 646.8,113.2 L 653.7,112.5 L 660.5,109.5 L 667.4,105.5 L 674.2,105.1 L 681.0,104.4 L 687.9,104.0 L 694.7,102.2 L 701.6,63.1 L 708.4,62.3 L 715.3,60.5 L 722.1,60.5 L 728.9,60.5 L 735.8,60.9 L 742.6,60.5 L 749.5,58.3 L 756.3,57.5 L 763.2,57.2 L 770.0,56.8 L 770.0,340 Z" fill="url(#g6)" clip-path="url(#ca)"/>
<path d="M 72.0,193.2 L 78.8,193.2 L 85.7,192.9 L 92.5,191.8 L 99.4,192.1 L 106.2,192.1 L 113.1,190.7 L 119.9,189.6 L 126.7,189.6 L 133.6,189.9 L 140.4,189.6 L 147.3,189.2 L 154.1,188.8 L 161.0,188.8 L 167.8,188.8 L 174.6,189.2 L 181.5,188.4 L 188.3,187.7 L 195.2,185.5 L 202.0,184.0 L 208.9,184.0 L 215.7,183.7 L 222.5,181.4 L 229.4,178.1 L 236.2,177.0 L 243.1,176.3 L 249.9,173.7 L 256.8,171.9 L 263.6,171.1 L 270.5,170.4 L 277.3,169.6 L 284.1,169.3 L 291.0,169.3 L 297.8,166.7 L 304.7,166.0 L 311.5,165.2 L 318.4,165.2 L 325.2,163.4 L 332.0,163.0 L 338.9,161.9 L 345.7,160.4 L 352.6,158.6 L 359.4,156.0 L 366.3,153.4 L 373.1,153.0 L 379.9,152.3 L 386.8,151.6 L 393.6,149.4 L 400.5,149.4 L 407.3,148.6 L 414.2,147.5 L 421.0,146.8 L 427.8,145.3 L 434.7,145.7 L 441.5,141.2 L 448.4,140.9 L 455.2,140.5 L 462.1,139.8 L 468.9,137.6 L 475.7,137.6 L 482.6,135.3 L 489.4,132.8 L 496.3,132.8 L 503.1,132.8 L 510.0,132.4 L 516.8,132.0 L 523.6,131.7 L 530.5,129.8 L 537.3,127.6 L 544.2,126.9 L 551.0,125.4 L 557.9,125.4 L 564.7,124.3 L 571.5,122.1 L 578.4,121.0 L 585.2,120.6 L 592.1,118.0 L 598.9,117.6 L 605.8,117.6 L 612.6,117.3 L 619.5,117.3 L 626.3,115.4 L 633.1,114.7 L 640.0,113.6 L 646.8,113.2 L 653.7,112.5 L 660.5,109.5 L 667.4,105.5 L 674.2,105.1 L 681.0,104.4 L 687.9,104.0 L 694.7,102.2 L 701.6,63.1 L 708.4,62.3 L 715.3,60.5 L 722.1,60.5 L 728.9,60.5 L 735.8,60.9 L 742.6,60.5 L 749.5,58.3 L 756.3,57.5 L 763.2,57.2 L 770.0,56.8" fill="none" stroke="#4F8EF7" stroke-width="2.5" stroke-linejoin="round" clip-path="url(#ca)"/>
<path d="M 72.0,340 L 72.0,337.8 L 78.8,337.4 L 85.7,337.4 L 92.5,337.1 L 99.4,337.1 L 106.2,337.1 L 113.1,337.1 L 119.9,337.1 L 126.7,336.3 L 133.6,336.3 L 140.4,336.3 L 147.3,336.3 L 154.1,336.3 L 161.0,335.9 L 167.8,335.9 L 174.6,335.9 L 181.5,335.9 L 188.3,335.9 L 195.2,335.6 L 202.0,334.8 L 208.9,334.5 L 215.7,334.5 L 222.5,334.5 L 229.4,334.1 L 236.2,334.1 L 243.1,334.1 L 249.9,333.7 L 256.8,333.7 L 263.6,333.7 L 270.5,333.4 L 277.3,333.4 L 284.1,333.4 L 291.0,333.4 L 297.8,333.0 L 304.7,333.0 L 311.5,333.0 L 318.4,333.0 L 325.2,333.0 L 332.0,333.0 L 338.9,333.0 L 345.7,333.0 L 352.6,333.0 L 359.4,333.0 L 366.3,333.0 L 373.1,333.0 L 379.9,333.0 L 386.8,332.6 L 393.6,332.6 L 400.5,332.6 L 407.3,332.6 L 414.2,332.6 L 421.0,332.6 L 427.8,332.6 L 434.7,332.6 L 441.5,332.6 L 448.4,332.6 L 455.2,332.6 L 462.1,332.6 L 468.9,332.3 L 475.7,332.3 L 482.6,332.3 L 489.4,332.3 L 496.3,332.3 L 503.1,332.3 L 510.0,332.3 L 516.8,332.3 L 523.6,332.3 L 530.5,332.3 L 537.3,332.3 L 544.2,332.3 L 551.0,332.3 L 557.9,332.3 L 564.7,332.3 L 571.5,332.3 L 578.4,332.3 L 585.2,332.3 L 592.1,332.3 L 598.9,332.3 L 605.8,332.3 L 612.6,332.3 L 619.5,332.3 L 626.3,332.3 L 633.1,332.3 L 640.0,332.3 L 646.8,332.3 L 653.7,332.3 L 660.5,332.3 L 667.4,332.3 L 674.2,332.3 L 681.0,332.3 L 687.9,332.3 L 694.7,332.3 L 701.6,332.3 L 708.4,332.3 L 715.3,331.9 L 722.1,331.9 L 728.9,331.9 L 735.8,331.9 L 742.6,331.9 L 749.5,331.5 L 756.3,331.5 L 763.2,331.5 L 770.0,331.5 L 770.0,340 Z" fill="url(#g7)" clip-path="url(#ca)"/>
<path d="M 72.0,337.8 L 78.8,337.4 L 85.7,337.4 L 92.5,337.1 L 99.4,337.1 L 106.2,337.1 L 113.1,337.1 L 119.9,337.1 L 126.7,336.3 L 133.6,336.3 L 140.4,336.3 L 147.3,336.3 L 154.1,336.3 L 161.0,335.9 L 167.8,335.9 L 174.6,335.9 L 181.5,335.9 L 188.3,335.9 L 195.2,335.6 L 202.0,334.8 L 208.9,334.5 L 215.7,334.5 L 222.5,334.5 L 229.4,334.1 L 236.2,334.1 L 243.1,334.1 L 249.9,333.7 L 256.8,333.7 L 263.6,333.7 L 270.5,333.4 L 277.3,333.4 L 284.1,333.4 L 291.0,333.4 L 297.8,333.0 L 304.7,333.0 L 311.5,333.0 L 318.4,333.0 L 325.2,333.0 L 332.0,333.0 L 338.9,333.0 L 345.7,333.0 L 352.6,333.0 L 359.4,333.0 L 366.3,333.0 L 373.1,333.0 L 379.9,333.0 L 386.8,332.6 L 393.6,332.6 L 400.5,332.6 L 407.3,332.6 L 414.2,332.6 L 421.0,332.6 L 427.8,332.6 L 434.7,332.6 L 441.5,332.6 L 448.4,332.6 L 455.2,332.6 L 462.1,332.6 L 468.9,332.3 L 475.7,332.3 L 482.6,332.3 L 489.4,332.3 L 496.3,332.3 L 503.1,332.3 L 510.0,332.3 L 516.8,332.3 L 523.6,332.3 L 530.5,332.3 L 537.3,332.3 L 544.2,332.3 L 551.0,332.3 L 557.9,332.3 L 564.7,332.3 L 571.5,332.3 L 578.4,332.3 L 585.2,332.3 L 592.1,332.3 L 598.9,332.3 L 605.8,332.3 L 612.6,332.3 L 619.5,332.3 L 626.3,332.3 L 633.1,332.3 L 640.0,332.3 L 646.8,332.3 L 653.7,332.3 L 660.5,332.3 L 667.4,332.3 L 674.2,332.3 L 681.0,332.3 L 687.9,332.3 L 694.7,332.3 L 701.6,332.3 L 708.4,332.3 L 715.3,331.9 L 722.1,331.9 L 728.9,331.9 L 735.8,331.9 L 742.6,331.9 L 749.5,331.5 L 756.3,331.5 L 763.2,331.5 L 770.0,331.5" fill="none" stroke="#FF6363" stroke-width="2.5" stroke-linejoin="round" clip-path="url(#ca)"/>
<text x="109.6" y="55.0" text-anchor="middle" font-size="9" fill="#34C759" opacity="0.85" clip-path="url(#ca)">+15.2% (+50)</text>
<text x="109.6" y="66.0" text-anchor="middle" font-size="9" fill="#4F8EF7" opacity="0.85" clip-path="url(#ca)">+2.8% (+11)</text>
<text x="109.6" y="77.0" text-anchor="middle" font-size="9" fill="#FF6363" opacity="0.85" clip-path="url(#ca)">+66.7% (+4)</text>
<text x="239.7" y="55.0" text-anchor="middle" font-size="9" fill="#34C759" opacity="0.85" clip-path="url(#ca)">+20.1% (+77)</text>
<text x="239.7" y="66.0" text-anchor="middle" font-size="9" fill="#4F8EF7" opacity="0.85" clip-path="url(#ca)">+16.8% (+69)</text>
<text x="239.7" y="77.0" text-anchor="middle" font-size="9" fill="#FF6363" opacity="0.85" clip-path="url(#ca)">+90.0% (+9)</text>
<text x="421.0" y="55.0" text-anchor="middle" font-size="9" fill="#34C759" opacity="0.85" clip-path="url(#ca)">+16.1% (+74)</text>
<text x="421.0" y="66.0" text-anchor="middle" font-size="9" fill="#4F8EF7" opacity="0.85" clip-path="url(#ca)">+17.3% (+83)</text>
<text x="421.0" y="77.0" text-anchor="middle" font-size="9" fill="#FF6363" opacity="0.85" clip-path="url(#ca)">+10.5% (+2)</text>
<text x="605.8" y="55.0" text-anchor="middle" font-size="9" fill="#34C759" opacity="0.85" clip-path="url(#ca)">+10.5% (+56)</text>
<text x="605.8" y="66.0" text-anchor="middle" font-size="9" fill="#4F8EF7" opacity="0.85" clip-path="url(#ca)">+14.4% (+81)</text>
<text x="605.8" y="77.0" text-anchor="middle" font-size="9" fill="#FF6363" opacity="0.85" clip-path="url(#ca)">+0.0% (+0)</text>
<text x="735.8" y="55.0" text-anchor="middle" font-size="9" fill="#34C759" opacity="0.85" clip-path="url(#ca)">+1.9% (+11)</text>
<text x="735.8" y="66.0" text-anchor="middle" font-size="9" fill="#4F8EF7" opacity="0.85" clip-path="url(#ca)">+2.3% (+17)</text>
<text x="735.8" y="77.0" text-anchor="middle" font-size="9" fill="#FF6363" opacity="0.85" clip-path="url(#ca)">+9.5% (+2)</text>
<rect x="211" y="369" width="12" height="12" fill="#34C759" rx="2"/>
<text x="227" y="379" font-size="12" fill="#111827">macOS + Windows</text>
<rect x="351" y="369" width="12" height="12" fill="#4F8EF7" rx="2"/>
<text x="367" y="379" font-size="12" fill="#111827">macOS only</text>
<rect x="491" y="369" width="12" height="12" fill="#FF6363" rx="2"/>
<text x="507" y="379" font-size="12" fill="#111827">Windows only</text>
<text x="72" y="394" font-size="8" fill="#e5e7eb">data since Dec 11, 2025</text>
</svg>