<svg xmlns="http://www.w3.org/2000/svg" width="800" height="400" viewBox="0 0 800 400">
<defs>
  <style>text { font-family: -apple-system, BlinkMacSystemFont, 'Segoe UI', Roboto, sans-serif; }</style>
  <linearGradient id="g1" x1="0" y1="0" x2="0" y2="1">
  <stop offset="0%" stop-color="#FF6363" stop-opacity="0.25"/>
  <stop offset="100%" stop-color="#FF6363" stop-opacity="0"/>
</linearGradient>
  <clipPath id="ca"><rect x="72" y="45" width="698" height="295"/></clipPath>
</defs>
<rect width="800" height="400" fill="#ffffff" rx="12"/>
<text x="400" y="26" text-anchor="middle" font-size="15" font-weight="600" fill="#111827">Packages Growth Over Time</text>
<line x1="72" y1="340.0" x2="770" y2="340.0" stroke="#f3f4f6" stroke-width="1"/>
<text x="66" y="344.0" text-anchor="end" font-size="11" fill="#6b7280">2.4k</text>
<line x1="72" y1="266.3" x2="770" y2="266.3" stroke="#f3f4f6" stroke-width="1"/>
<text x="66" y="270.3" text-anchor="end" font-size="11" fill="#6b7280">2.6k</text>
<line x1="72" y1="192.5" x2="770" y2="192.5" stroke="#f3f4f6" stroke-width="1"/>
<text x="66" y="196.5" text-anchor="end" font-size="11" fill="#6b7280">2.8k</text>
<line x1="72" y1="118.8" x2="770" y2="118.8" stroke="#f3f4f6" stroke-width="1"/>
<text x="66" y="122.8" text-anchor="end" font-size="11" fill="#6b7280">3.0k</text>
<line x1="72" y1="45.0" x2="770" y2="45.0" stroke="#f3f4f6" stroke-width="1"/>
<text x="66" y="49.0" text-anchor="end" font-size="11" fill="#6b7280">3.2k</text>
<line x1="122.5" y1="45" x2="122.5" y2="340" stroke="#e5e7eb" stroke-width="1" stroke-dasharray="3,3" clip-path="url(#ca)"/>
<line x1="231.8" y1="45" x2="231.8" y2="340" stroke="#e5e7eb" stroke-width="1" stroke-dasharray="3,3" clip-path="url(#ca)"/>
<line x1="345.3" y1="45" x2="345.3" y2="340" stroke="#e5e7eb" stroke-width="1" stroke-dasharray="3,3" clip-path="url(#ca)"/>
<line x1="458.8" y1="45" x2="458.8" y2="340" stroke="#e5e7eb" stroke-width="1" stroke-dasharray="3,3" clip-path="url(#ca)"/>
<line x1="572.4" y1="45" x2="572.4" y2="340" stroke="#e5e7eb" stroke-width="1" stroke-dasharray="3,3" clip-path="url(#ca)"/>
<line x1="681.7" y1="45" x2="681.7" y2="340" stroke="#e5e7eb" stroke-width="1" stroke-dasharray="3,3" clip-path="url(#ca)"/>
<text x="72.0" y="358.0" text-anchor="middle" font-size="11" fill="#6b7280">Dec 11</text>
<text x="210.8" y="358.0" text-anchor="middle" font-size="11" fill="#6b7280">Jan 27</text>
<text x="349.5" y="358.0" text-anchor="middle" font-size="11" fill="#6b7280">Mar 2</text>
<text x="492.5" y="358.0" text-anchor="middle" font-size="11" fill="#6b7280">Apr 10</text>
<text x="631.2" y="358.0" text-anchor="middle" font-size="11" fill="#6b7280">May 20</text>
<text x="770.0" y="358.0" text-anchor="middle" font-size="11" fill="#6b7280">Jun 27</text>
<line x1="72" y1="45" x2="72" y2="340" stroke="#e5e7eb" stroke-width="1"/>
<line x1="72" y1="340" x2="770" y2="340" stroke="#e5e7eb" stroke-width="1"/>
<text x="-192.5" y="18" text-anchor="middle" font-size="12" fill="#6b7280" transform="rotate(-90)">Extensions</text>
<path d="M 72.0,340 L 72.0,311.6 L 76.2,311.2 L 80.4,311.2 L 84.6,310.1 L 88.8,310.1 L 93.0,309.4 L 97.2,308.7 L 101.4,308.3 L 105.6,306.4 L 109.8,305.0 L 114.0,305.0 L 118.3,305.0 L 122.5,305.0 L 126.7,304.2 L 130.9,304.2 L 135.1,304.2 L 139.3,303.5 L 143.5,302.0 L 147.7,299.4 L 151.9,297.6 L 156.1,296.9 L 160.3,296.5 L 164.5,295.0 L 168.7,290.6 L 172.9,289.1 L 177.1,289.1 L 181.3,285.4 L 185.5,284.3 L 189.7,282.8 L 193.9,281.7 L 198.1,279.5 L 202.3,277.7 L 206.6,277.3 L 210.8,274.4 L 215.0,271.8 L 219.2,271.8 L 223.4,269.9 L 227.6,268.5 L 231.8,268.1 L 236.0,267.7 L 240.2,267.4 L 244.4,266.3 L 248.6,259.6 L 252.8,256.7 L 257.0,255.2 L 261.2,254.4 L 265.4,253.3 L 269.6,250.8 L 273.8,250.0 L 278.0,249.3 L 282.2,247.1 L 286.4,246.3 L 290.7,245.6 L 294.9,245.6 L 299.1,239.0 L 303.3,238.2 L 307.5,237.5 L 311.7,236.0 L 315.9,234.2 L 320.1,234.2 L 324.3,231.2 L 328.5,226.4 L 332.7,225.7 L 336.9,226.1 L 341.1,224.9 L 345.3,224.6 L 349.5,224.6 L 353.7,222.4 L 357.9,220.5 L 362.1,219.1 L 366.3,217.2 L 370.5,216.8 L 374.7,216.8 L 379.0,214.3 L 383.2,213.5 L 387.4,213.2 L 391.6,208.7 L 395.8,208.4 L 400.0,208.4 L 404.2,208.4 L 408.4,208.0 L 412.6,206.1 L 416.8,204.7 L 421.0,202.8 L 425.2,202.5 L 429.4,201.3 L 433.6,198.0 L 437.8,195.1 L 442.0,194.7 L 446.2,194.3 L 450.4,193.2 L 454.6,189.6 L 458.8,188.8 L 463.0,187.7 L 467.3,185.5 L 471.5,185.1 L 475.7,184.8 L 479.9,184.8 L 484.1,184.0 L 488.3,181.8 L 492.5,181.1 L 496.7,180.3 L 500.9,180.0 L 505.1,179.2 L 509.3,175.5 L 513.5,175.2 L 517.7,174.4 L 521.9,174.1 L 526.1,172.2 L 530.3,171.9 L 534.5,171.5 L 538.7,170.4 L 542.9,168.9 L 547.1,168.9 L 551.3,168.9 L 555.6,168.9 L 559.8,168.2 L 564.0,166.3 L 568.2,166.0 L 572.4,164.1 L 576.6,163.7 L 580.8,163.4 L 585.0,161.2 L 589.2,158.9 L 593.4,158.6 L 597.6,158.2 L 601.8,153.4 L 606.0,151.9 L 610.2,150.8 L 614.4,150.5 L 618.6,147.9 L 622.8,147.9 L 627.0,146.0 L 631.2,144.9 L 635.4,141.2 L 639.7,139.8 L 643.9,139.4 L 648.1,139.0 L 652.3,139.0 L 656.5,138.7 L 660.7,136.5 L 664.9,134.6 L 669.1,134.6 L 673.3,134.2 L 677.5,134.2 L 681.7,132.8 L 685.9,132.0 L 690.1,130.9 L 694.3,129.8 L 698.5,128.3 L 702.7,128.3 L 706.9,127.2 L 711.1,125.8 L 715.3,122.8 L 719.5,120.2 L 723.7,119.5 L 728.0,118.8 L 732.2,118.0 L 736.4,117.6 L 740.6,116.5 L 744.8,114.3 L 749.0,114.0 L 753.2,112.5 L 757.4,111.0 L 761.6,108.4 L 765.8,107.3 L 770.0,106.6 L 770.0,340 Z" fill="url(#g1)" clip-path="url(#ca)"/>
<path d="M 72.0,311.6 L 76.2,311.2 L 80.4,311.2 L 84.6,310.1 L 88.8,310.1 L 93.0,309.4 L 97.2,308.7 L 101.4,308.3 L 105.6,306.4 L 109.8,305.0 L 114.0,305.0 L 118.3,305.0 L 122.5,305.0 L 126.7,304.2 L 130.9,304.2 L 135.1,304.2 L 139.3,303.5 L 143.5,302.0 L 147.7,299.4 L 151.9,297.6 L 156.1,296.9 L 160.3,296.5 L 164.5,295.0 L 168.7,290.6 L 172.9,289.1 L 177.1,289.1 L 181.3,285.4 L 185.5,284.3 L 189.7,282.8 L 193.9,281.7 L 198.1,279.5 L 202.3,277.7 L 206.6,277.3 L 210.8,274.4 L 215.0,271.8 L 219.2,271.8 L 223.4,269.9 L 227.6,268.5 L 231.8,268.1 L 236.0,267.7 L 240.2,267.4 L 244.4,266.3 L 248.6,259.6 L 252.8,256.7 L 257.0,255.2 L 261.2,254.4 L 265.4,253.3 L 269.6,250.8 L 273.8,250.0 L 278.0,249.3 L 282.2,247.1 L 286.4,246.3 L 290.7,245.6 L 294.9,245.6 L 299.1,239.0 L 303.3,238.2 L 307.5,237.5 L 311.7,236.0 L 315.9,234.2 L 320.1,234.2 L 324.3,231.2 L 328.5,226.4 L 332.7,225.7 L 336.9,226.1 L 341.1,224.9 L 345.3,224.6 L 349.5,224.6 L 353.7,222.4 L 357.9,220.5 L 362.1,219.1 L 366.3,217.2 L 370.5,216.8 L 374.7,216.8 L 379.0,214.3 L 383.2,213.5 L 387.4,213.2 L 391.6,208.7 L 395.8,208.4 L 400.0,208.4 L 404.2,208.4 L 408.4,208.0 L 412.6,206.1 L 416.8,204.7 L 421.0,202.8 L 425.2,202.5 L 429.4,201.3 L 433.6,198.0 L 437.8,195.1 L 442.0,194.7 L 446.2,194.3 L 450.4,193.2 L 454.6,189.6 L 458.8,188.8 L 463.0,187.7 L 467.3,185.5 L 471.5,185.1 L 475.7,184.8 L 479.9,184.8 L 484.1,184.0 L 488.3,181.8 L 492.5,181.1 L 496.7,180.3 L 500.9,180.0 L 505.1,179.2 L 509.3,175.5 L 513.5,175.2 L 517.7,174.4 L 521.9,174.1 L 526.1,172.2 L 530.3,171.9 L 534.5,171.5 L 538.7,170.4 L 542.9,168.9 L 547.1,168.9 L 551.3,168.9 L 555.6,168.9 L 559.8,168.2 L 564.0,166.3 L 568.2,166.0 L 572.4,164.1 L 576.6,163.7 L 580.8,163.4 L 585.0,161.2 L 589.2,158.9 L 593.4,158.6 L 597.6,158.2 L 601.8,153.4 L 606.0,151.9 L 610.2,150.8 L 614.4,150.5 L 618.6,147.9 L 622.8,147.9 L 627.0,146.0 L 631.2,144.9 L 635.4,141.2 L 639.7,139.8 L 643.9,139.4 L 648.1,139.0 L 652.3,139.0 L 656.5,138.7 L 660.7,136.5 L 664.9,134.6 L 669.1,134.6 L 673.3,134.2 L 677.5,134.2 L 681.7,132.8 L 685.9,132.0 L 690.1,130.9 L 694.3,129.8 L 698.5,128.3 L 702.7,128.3 L 706.9,127.2 L 711.1,125.8 L 715.3,122.8 L 719.5,120.2 L 723.7,119.5 L 728.0,118.8 L 732.2,118.0 L 736.4,117.6 L 740.6,116.5 L 744.8,114.3 L 749.0,114.0 L 753.2,112.5 L 757.4,111.0 L 761.6,108.4 L 765.8,107.3 L 770.0,106.6" fill="none" stroke="#FF6363" stroke-width="2.5" stroke-linejoin="round" clip-path="url(#ca)"/>
<text x="95.1" y="55.0" text-anchor="middle" font-size="9" fill="#FF6363" opacity="0.85" clip-path="url(#ca)">+0.7% (+18)</text>
<text x="175.0" y="55.0" text-anchor="middle" font-size="9" fill="#FF6363" opacity="0.85" clip-path="url(#ca)">+4.0% (+99)</text>
<text x="286.4" y="55.0" text-anchor="middle" font-size="9" fill="#FF6363" opacity="0.85" clip-path="url(#ca)">+4.5% (+117)</text>
<text x="400.0" y="55.0" text-anchor="middle" font-size="9" fill="#FF6363" opacity="0.85" clip-path="url(#ca)">+3.5% (+95)</text>
<text x="513.5" y="55.0" text-anchor="middle" font-size="9" fill="#FF6363" opacity="0.85" clip-path="url(#ca)">+2.2% (+62)</text>
<text x="624.9" y="55.0" text-anchor="middle" font-size="9" fill="#FF6363" opacity="0.85" clip-path="url(#ca)">+2.8% (+81)</text>
<text x="725.8" y="55.0" text-anchor="middle" font-size="9" fill="#FF6363" opacity="0.85" clip-path="url(#ca)">+2.4% (+71)</text>
<rect x="351" y="369" width="12" height="12" fill="#FF6363" rx="2"/>
<text x="367" y="379" font-size="12" fill="#111827">Extensions</text>
<text x="72" y="394" font-size="8" fill="#e5e7eb">data since Dec 11, 2025</text>
</svg>