<svg xmlns="http://www.w3.org/2000/svg" width="800" height="400" viewBox="0 0 800 400">
<defs>
  <style>text { font-family: -apple-system, BlinkMacSystemFont, 'Segoe UI', Roboto, sans-serif; }</style>
  <linearGradient id="g2" x1="0" y1="0" x2="0" y2="1">
  <stop offset="0%" stop-color="#4F8EF7" stop-opacity="0.25"/>
  <stop offset="100%" stop-color="#4F8EF7" stop-opacity="0"/>
</linearGradient>
<linearGradient id="g3" x1="0" y1="0" x2="0" y2="1">
  <stop offset="0%" stop-color="#BF5AF2" stop-opacity="0.25"/>
  <stop offset="100%" stop-color="#BF5AF2" stop-opacity="0"/>
</linearGradient>
<linearGradient id="g4" x1="0" y1="0" x2="0" y2="1">
  <stop offset="0%" stop-color="#34C759" stop-opacity="0.25"/>
  <stop offset="100%" stop-color="#34C759" stop-opacity="0"/>
</linearGradient>
  <clipPath id="ca"><rect x="72" y="45" width="698" height="295"/></clipPath>
</defs>
<rect width="800" height="400" fill="#ffffff" rx="12"/>
<text x="400" y="26" text-anchor="middle" font-size="15" font-weight="600" fill="#111827">Community Growth Over Time</text>
<line x1="72" y1="340.0" x2="770" y2="340.0" stroke="#f3f4f6" stroke-width="1"/>
<text x="66" y="344.0" text-anchor="end" font-size="11" fill="#6b7280">500</text>
<line x1="72" y1="241.7" x2="770" y2="241.7" stroke="#f3f4f6" stroke-width="1"/>
<text x="66" y="245.7" text-anchor="end" font-size="11" fill="#6b7280">1.0k</text>
<line x1="72" y1="143.3" x2="770" y2="143.3" stroke="#f3f4f6" stroke-width="1"/>
<text x="66" y="147.3" text-anchor="end" font-size="11" fill="#6b7280">1.5k</text>
<line x1="72" y1="45.0" x2="770" y2="45.0" stroke="#f3f4f6" stroke-width="1"/>
<text x="66" y="49.0" text-anchor="end" font-size="11" fill="#6b7280">2.0k</text>
<line x1="130.2" y1="45" x2="130.2" y2="340" stroke="#e5e7eb" stroke-width="1" stroke-dasharray="3,3" clip-path="url(#ca)"/>
<line x1="256.2" y1="45" x2="256.2" y2="340" stroke="#e5e7eb" stroke-width="1" stroke-dasharray="3,3" clip-path="url(#ca)"/>
<line x1="387.1" y1="45" x2="387.1" y2="340" stroke="#e5e7eb" stroke-width="1" stroke-dasharray="3,3" clip-path="url(#ca)"/>
<line x1="517.9" y1="45" x2="517.9" y2="340" stroke="#e5e7eb" stroke-width="1" stroke-dasharray="3,3" clip-path="url(#ca)"/>
<line x1="648.8" y1="45" x2="648.8" y2="340" stroke="#e5e7eb" stroke-width="1" stroke-dasharray="3,3" clip-path="url(#ca)"/>
<text x="72.0" y="358.0" text-anchor="middle" font-size="11" fill="#6b7280">Dec 11</text>
<text x="212.6" y="358.0" text-anchor="middle" font-size="11" fill="#6b7280">Jan 23</text>
<text x="353.1" y="358.0" text-anchor="middle" font-size="11" fill="#6b7280">Feb 21</text>
<text x="488.9" y="358.0" text-anchor="middle" font-size="11" fill="#6b7280">Mar 24</text>
<text x="629.4" y="358.0" text-anchor="middle" font-size="11" fill="#6b7280">Apr 26</text>
<text x="770.0" y="358.0" text-anchor="middle" font-size="11" fill="#6b7280">May 31</text>
<line x1="72" y1="45" x2="72" y2="340" stroke="#e5e7eb" stroke-width="1"/>
<line x1="72" y1="340" x2="770" y2="340" stroke="#e5e7eb" stroke-width="1"/>
<text x="-192.5" y="18" text-anchor="middle" font-size="12" fill="#6b7280" transform="rotate(-90)">People</text>
<path d="M 72.0,340 L 72.0,120.1 L 76.8,120.1 L 81.7,120.1 L 86.5,119.5 L 91.4,119.5 L 96.2,119.1 L 101.1,118.9 L 105.9,119.1 L 110.8,118.6 L 115.6,118.6 L 120.5,118.6 L 125.3,118.6 L 130.2,118.6 L 135.0,118.6 L 139.9,118.6 L 144.7,118.6 L 149.6,118.4 L 154.4,117.8 L 159.3,116.6 L 164.1,116.0 L 168.9,115.8 L 173.8,115.8 L 178.6,115.2 L 183.5,113.8 L 188.3,113.0 L 193.2,113.0 L 198.0,112.1 L 202.9,111.7 L 207.7,110.9 L 212.6,110.3 L 217.4,109.7 L 222.3,109.1 L 227.1,109.1 L 232.0,107.7 L 236.8,106.9 L 241.7,106.9 L 246.5,106.2 L 251.3,105.8 L 256.2,105.6 L 261.0,105.4 L 265.9,105.4 L 270.7,104.8 L 275.6,102.4 L 280.4,101.0 L 285.3,100.3 L 290.1,100.1 L 295.0,99.7 L 299.8,98.9 L 304.7,98.5 L 309.5,98.1 L 314.4,97.7 L 319.2,97.3 L 324.1,96.9 L 328.9,96.9 L 333.8,95.0 L 338.6,95.0 L 343.4,94.8 L 348.3,94.6 L 353.1,94.2 L 358.0,94.2 L 362.8,93.2 L 367.7,92.0 L 372.5,91.6 L 377.4,92.0 L 382.2,91.8 L 387.1,91.6 L 391.9,91.6 L 396.8,91.2 L 401.6,90.4 L 406.5,90.0 L 411.3,89.6 L 416.2,89.4 L 421.0,89.4 L 425.8,88.7 L 430.7,88.3 L 435.5,88.3 L 440.4,86.7 L 445.2,86.7 L 450.1,86.7 L 454.9,86.7 L 459.8,86.5 L 464.6,85.9 L 469.5,85.1 L 474.3,84.7 L 479.2,84.7 L 484.0,84.3 L 488.9,82.8 L 493.7,81.8 L 498.6,81.6 L 503.4,81.4 L 508.3,80.8 L 513.1,79.6 L 517.9,79.2 L 522.8,78.8 L 527.6,77.6 L 532.5,77.4 L 537.3,77.4 L 542.2,77.4 L 547.0,77.3 L 551.9,76.1 L 556.7,75.9 L 561.6,75.7 L 566.4,75.7 L 571.3,75.3 L 576.1,73.7 L 581.0,73.5 L 585.8,73.3 L 590.7,73.3 L 595.5,72.5 L 600.3,72.3 L 605.2,72.1 L 610.0,71.6 L 614.9,70.8 L 619.7,70.8 L 624.6,70.8 L 629.4,70.8 L 634.3,70.4 L 639.1,69.8 L 644.0,69.6 L 648.8,69.0 L 653.7,68.8 L 658.5,68.6 L 663.4,67.8 L 668.2,67.2 L 673.1,67.0 L 677.9,67.0 L 682.8,65.3 L 687.6,64.7 L 692.4,64.5 L 697.3,64.5 L 702.1,63.5 L 707.0,63.5 L 711.8,62.9 L 716.7,62.3 L 721.5,60.9 L 726.4,60.7 L 731.2,60.5 L 736.1,60.3 L 740.9,60.3 L 745.8,60.1 L 750.6,59.2 L 755.5,58.6 L 760.3,58.6 L 765.2,58.4 L 770.0,58.4 L 770.0,340 Z" fill="url(#g2)" clip-path="url(#ca)"/>
<path d="M 72.0,120.1 L 76.8,120.1 L 81.7,120.1 L 86.5,119.5 L 91.4,119.5 L 96.2,119.1 L 101.1,118.9 L 105.9,119.1 L 110.8,118.6 L 115.6,118.6 L 120.5,118.6 L 125.3,118.6 L 130.2,118.6 L 135.0,118.6 L 139.9,118.6 L 144.7,118.6 L 149.6,118.4 L 154.4,117.8 L 159.3,116.6 L 164.1,116.0 L 168.9,115.8 L 173.8,115.8 L 178.6,115.2 L 183.5,113.8 L 188.3,113.0 L 193.2,113.0 L 198.0,112.1 L 202.9,111.7 L 207.7,110.9 L 212.6,110.3 L 217.4,109.7 L 222.3,109.1 L 227.1,109.1 L 232.0,107.7 L 236.8,106.9 L 241.7,106.9 L 246.5,106.2 L 251.3,105.8 L 256.2,105.6 L 261.0,105.4 L 265.9,105.4 L 270.7,104.8 L 275.6,102.4 L 280.4,101.0 L 285.3,100.3 L 290.1,100.1 L 295.0,99.7 L 299.8,98.9 L 304.7,98.5 L 309.5,98.1 L 314.4,97.7 L 319.2,97.3 L 324.1,96.9 L 328.9,96.9 L 333.8,95.0 L 338.6,95.0 L 343.4,94.8 L 348.3,94.6 L 353.1,94.2 L 358.0,94.2 L 362.8,93.2 L 367.7,92.0 L 372.5,91.6 L 377.4,92.0 L 382.2,91.8 L 387.1,91.6 L 391.9,91.6 L 396.8,91.2 L 401.6,90.4 L 406.5,90.0 L 411.3,89.6 L 416.2,89.4 L 421.0,89.4 L 425.8,88.7 L 430.7,88.3 L 435.5,88.3 L 440.4,86.7 L 445.2,86.7 L 450.1,86.7 L 454.9,86.7 L 459.8,86.5 L 464.6,85.9 L 469.5,85.1 L 474.3,84.7 L 479.2,84.7 L 484.0,84.3 L 488.9,82.8 L 493.7,81.8 L 498.6,81.6 L 503.4,81.4 L 508.3,80.8 L 513.1,79.6 L 517.9,79.2 L 522.8,78.8 L 527.6,77.6 L 532.5,77.4 L 537.3,77.4 L 542.2,77.4 L 547.0,77.3 L 551.9,76.1 L 556.7,75.9 L 561.6,75.7 L 566.4,75.7 L 571.3,75.3 L 576.1,73.7 L 581.0,73.5 L 585.8,73.3 L 590.7,73.3 L 595.5,72.5 L 600.3,72.3 L 605.2,72.1 L 610.0,71.6 L 614.9,70.8 L 619.7,70.8 L 624.6,70.8 L 629.4,70.8 L 634.3,70.4 L 639.1,69.8 L 644.0,69.6 L 648.8,69.0 L 653.7,68.8 L 658.5,68.6 L 663.4,67.8 L 668.2,67.2 L 673.1,67.0 L 677.9,67.0 L 682.8,65.3 L 687.6,64.7 L 692.4,64.5 L 697.3,64.5 L 702.1,63.5 L 707.0,63.5 L 711.8,62.9 L 716.7,62.3 L 721.5,60.9 L 726.4,60.7 L 731.2,60.5 L 736.1,60.3 L 740.9,60.3 L 745.8,60.1 L 750.6,59.2 L 755.5,58.6 L 760.3,58.6 L 765.2,58.4 L 770.0,58.4" fill="none" stroke="#4F8EF7" stroke-width="2.5" stroke-linejoin="round" clip-path="url(#ca)"/>
<path d="M 72.0,340 L 72.0,244.2 L 76.8,243.6 L 81.7,243.6 L 86.5,243.6 L 91.4,243.4 L 96.2,243.0 L 101.1,242.8 L 105.9,242.6 L 110.8,242.6 L 115.6,242.5 L 120.5,242.3 L 125.3,242.3 L 130.2,242.3 L 135.0,242.3 L 139.9,242.3 L 144.7,242.3 L 149.6,241.9 L 154.4,241.9 L 159.3,241.9 L 164.1,241.1 L 168.9,240.9 L 173.8,240.5 L 178.6,239.7 L 183.5,239.5 L 188.3,239.5 L 193.2,239.5 L 198.0,238.9 L 202.9,238.5 L 207.7,238.5 L 212.6,238.1 L 217.4,237.9 L 222.3,237.5 L 227.1,237.5 L 232.0,237.3 L 236.8,236.6 L 241.7,236.0 L 246.5,235.6 L 251.3,235.4 L 256.2,235.4 L 261.0,235.2 L 265.9,234.8 L 270.7,234.8 L 275.6,234.6 L 280.4,234.0 L 285.3,233.6 L 290.1,233.6 L 295.0,233.6 L 299.8,233.6 L 304.7,233.4 L 309.5,232.8 L 314.4,232.4 L 319.2,232.2 L 324.1,232.0 L 328.9,231.8 L 333.8,231.6 L 338.6,231.4 L 343.4,231.2 L 348.3,230.7 L 353.1,230.5 L 358.0,230.3 L 362.8,229.5 L 367.7,228.7 L 372.5,228.7 L 377.4,228.5 L 382.2,228.3 L 387.1,228.3 L 391.9,228.3 L 396.8,227.9 L 401.6,227.9 L 406.5,226.7 L 411.3,226.5 L 416.2,226.3 L 421.0,226.3 L 425.8,225.9 L 430.7,225.7 L 435.5,225.7 L 440.4,225.5 L 445.2,225.5 L 450.1,225.5 L 454.9,225.1 L 459.8,224.9 L 464.6,224.0 L 469.5,224.2 L 474.3,224.0 L 479.2,223.8 L 484.0,223.8 L 488.9,223.6 L 493.7,223.0 L 498.6,223.0 L 503.4,223.0 L 508.3,223.0 L 513.1,222.6 L 517.9,222.6 L 522.8,222.2 L 527.6,221.8 L 532.5,221.0 L 537.3,221.0 L 542.2,220.6 L 547.0,220.4 L 551.9,220.2 L 556.7,220.0 L 561.6,219.6 L 566.4,219.6 L 571.3,219.1 L 576.1,219.1 L 581.0,218.9 L 585.8,218.5 L 590.7,218.3 L 595.5,218.3 L 600.3,218.3 L 605.2,218.3 L 610.0,218.3 L 614.9,217.7 L 619.7,217.7 L 624.6,217.3 L 629.4,216.9 L 634.3,216.3 L 639.1,216.1 L 644.0,216.1 L 648.8,214.9 L 653.7,214.7 L 658.5,214.7 L 663.4,213.9 L 668.2,213.9 L 673.1,213.5 L 677.9,213.5 L 682.8,213.3 L 687.6,213.3 L 692.4,213.2 L 697.3,212.8 L 702.1,212.8 L 707.0,212.6 L 711.8,212.4 L 716.7,212.2 L 721.5,212.0 L 726.4,212.0 L 731.2,211.6 L 736.1,211.6 L 740.9,211.6 L 745.8,210.6 L 750.6,210.6 L 755.5,210.6 L 760.3,210.6 L 765.2,210.6 L 770.0,210.6 L 770.0,340 Z" fill="url(#g3)" clip-path="url(#ca)"/>
<path d="M 72.0,244.2 L 76.8,243.6 L 81.7,243.6 L 86.5,243.6 L 91.4,243.4 L 96.2,243.0 L 101.1,242.8 L 105.9,242.6 L 110.8,242.6 L 115.6,242.5 L 120.5,242.3 L 125.3,242.3 L 130.2,242.3 L 135.0,242.3 L 139.9,242.3 L 144.7,242.3 L 149.6,241.9 L 154.4,241.9 L 159.3,241.9 L 164.1,241.1 L 168.9,240.9 L 173.8,240.5 L 178.6,239.7 L 183.5,239.5 L 188.3,239.5 L 193.2,239.5 L 198.0,238.9 L 202.9,238.5 L 207.7,238.5 L 212.6,238.1 L 217.4,237.9 L 222.3,237.5 L 227.1,237.5 L 232.0,237.3 L 236.8,236.6 L 241.7,236.0 L 246.5,235.6 L 251.3,235.4 L 256.2,235.4 L 261.0,235.2 L 265.9,234.8 L 270.7,234.8 L 275.6,234.6 L 280.4,234.0 L 285.3,233.6 L 290.1,233.6 L 295.0,233.6 L 299.8,233.6 L 304.7,233.4 L 309.5,232.8 L 314.4,232.4 L 319.2,232.2 L 324.1,232.0 L 328.9,231.8 L 333.8,231.6 L 338.6,231.4 L 343.4,231.2 L 348.3,230.7 L 353.1,230.5 L 358.0,230.3 L 362.8,229.5 L 367.7,228.7 L 372.5,228.7 L 377.4,228.5 L 382.2,228.3 L 387.1,228.3 L 391.9,228.3 L 396.8,227.9 L 401.6,227.9 L 406.5,226.7 L 411.3,226.5 L 416.2,226.3 L 421.0,226.3 L 425.8,225.9 L 430.7,225.7 L 435.5,225.7 L 440.4,225.5 L 445.2,225.5 L 450.1,225.5 L 454.9,225.1 L 459.8,224.9 L 464.6,224.0 L 469.5,224.2 L 474.3,224.0 L 479.2,223.8 L 484.0,223.8 L 488.9,223.6 L 493.7,223.0 L 498.6,223.0 L 503.4,223.0 L 508.3,223.0 L 513.1,222.6 L 517.9,222.6 L 522.8,222.2 L 527.6,221.8 L 532.5,221.0 L 537.3,221.0 L 542.2,220.6 L 547.0,220.4 L 551.9,220.2 L 556.7,220.0 L 561.6,219.6 L 566.4,219.6 L 571.3,219.1 L 576.1,219.1 L 581.0,218.9 L 585.8,218.5 L 590.7,218.3 L 595.5,218.3 L 600.3,218.3 L 605.2,218.3 L 610.0,218.3 L 614.9,217.7 L 619.7,217.7 L 624.6,217.3 L 629.4,216.9 L 634.3,216.3 L 639.1,216.1 L 644.0,216.1 L 648.8,214.9 L 653.7,214.7 L 658.5,214.7 L 663.4,213.9 L 668.2,213.9 L 673.1,213.5 L 677.9,213.5 L 682.8,213.3 L 687.6,213.3 L 692.4,213.2 L 697.3,212.8 L 702.1,212.8 L 707.0,212.6 L 711.8,212.4 L 716.7,212.2 L 721.5,212.0 L 726.4,212.0 L 731.2,211.6 L 736.1,211.6 L 740.9,211.6 L 745.8,210.6 L 750.6,210.6 L 755.5,210.6 L 760.3,210.6 L 765.2,210.6 L 770.0,210.6" fill="none" stroke="#BF5AF2" stroke-width="2.5" stroke-linejoin="round" clip-path="url(#ca)"/>
<path d="M 72.0,340 L 72.0,291.4 L 76.8,290.8 L 81.7,290.8 L 86.5,290.8 L 91.4,290.6 L 96.2,290.2 L 101.1,290.0 L 105.9,289.7 L 110.8,289.7 L 115.6,289.5 L 120.5,289.3 L 125.3,289.3 L 130.2,289.3 L 135.0,289.3 L 139.9,289.3 L 144.7,289.3 L 149.6,288.9 L 154.4,288.9 L 159.3,289.1 L 164.1,288.5 L 168.9,288.7 L 173.8,288.1 L 178.6,287.5 L 183.5,287.3 L 188.3,287.5 L 193.2,287.5 L 198.0,286.9 L 202.9,286.7 L 207.7,286.7 L 212.6,286.3 L 217.4,286.1 L 222.3,285.7 L 227.1,285.7 L 232.0,285.5 L 236.8,284.9 L 241.7,284.3 L 246.5,283.9 L 251.3,283.9 L 256.2,283.9 L 261.0,283.8 L 265.9,283.4 L 270.7,283.4 L 275.6,283.2 L 280.4,282.6 L 285.3,282.4 L 290.1,282.4 L 295.0,282.4 L 299.8,282.4 L 304.7,282.2 L 309.5,281.6 L 314.4,281.4 L 319.2,281.2 L 324.1,281.0 L 328.9,281.0 L 333.8,280.8 L 338.6,280.8 L 343.4,280.8 L 348.3,280.2 L 353.1,280.2 L 358.0,280.2 L 362.8,279.8 L 367.7,279.2 L 372.5,279.2 L 377.4,279.0 L 382.2,278.8 L 387.1,278.8 L 391.9,278.8 L 396.8,278.4 L 401.6,278.4 L 406.5,277.3 L 411.3,277.1 L 416.2,276.9 L 421.0,276.9 L 425.8,276.7 L 430.7,276.7 L 435.5,276.7 L 440.4,276.7 L 445.2,276.7 L 450.1,276.7 L 454.9,276.3 L 459.8,276.1 L 464.6,275.1 L 469.5,275.3 L 474.3,275.3 L 479.2,275.1 L 484.0,275.1 L 488.9,275.1 L 493.7,274.7 L 498.6,274.7 L 503.4,274.7 L 508.3,274.7 L 513.1,274.7 L 517.9,274.7 L 522.8,274.5 L 527.6,274.5 L 532.5,273.7 L 537.3,273.7 L 542.2,273.5 L 547.0,273.3 L 551.9,273.1 L 556.7,272.9 L 561.6,272.5 L 566.4,272.5 L 571.3,272.0 L 576.1,272.0 L 581.0,271.8 L 585.8,271.6 L 590.7,271.6 L 595.5,271.6 L 600.3,271.6 L 605.2,271.6 L 610.0,271.6 L 614.9,271.0 L 619.7,271.0 L 624.6,270.6 L 629.4,270.2 L 634.3,269.6 L 639.1,269.4 L 644.0,269.4 L 648.8,268.4 L 653.7,268.2 L 658.5,268.2 L 663.4,267.6 L 668.2,267.6 L 673.1,267.4 L 677.9,267.4 L 682.8,267.6 L 687.6,267.8 L 692.4,267.6 L 697.3,267.2 L 702.1,267.4 L 707.0,267.2 L 711.8,267.0 L 716.7,267.0 L 721.5,267.0 L 726.4,267.0 L 731.2,266.6 L 736.1,266.6 L 740.9,266.6 L 745.8,265.9 L 750.6,265.9 L 755.5,265.9 L 760.3,265.9 L 765.2,265.9 L 770.0,265.9 L 770.0,340 Z" fill="url(#g4)" clip-path="url(#ca)"/>
<path d="M 72.0,291.4 L 76.8,290.8 L 81.7,290.8 L 86.5,290.8 L 91.4,290.6 L 96.2,290.2 L 101.1,290.0 L 105.9,289.7 L 110.8,289.7 L 115.6,289.5 L 120.5,289.3 L 125.3,289.3 L 130.2,289.3 L 135.0,289.3 L 139.9,289.3 L 144.7,289.3 L 149.6,288.9 L 154.4,288.9 L 159.3,289.1 L 164.1,288.5 L 168.9,288.7 L 173.8,288.1 L 178.6,287.5 L 183.5,287.3 L 188.3,287.5 L 193.2,287.5 L 198.0,286.9 L 202.9,286.7 L 207.7,286.7 L 212.6,286.3 L 217.4,286.1 L 222.3,285.7 L 227.1,285.7 L 232.0,285.5 L 236.8,284.9 L 241.7,284.3 L 246.5,283.9 L 251.3,283.9 L 256.2,283.9 L 261.0,283.8 L 265.9,283.4 L 270.7,283.4 L 275.6,283.2 L 280.4,282.6 L 285.3,282.4 L 290.1,282.4 L 295.0,282.4 L 299.8,282.4 L 304.7,282.2 L 309.5,281.6 L 314.4,281.4 L 319.2,281.2 L 324.1,281.0 L 328.9,281.0 L 333.8,280.8 L 338.6,280.8 L 343.4,280.8 L 348.3,280.2 L 353.1,280.2 L 358.0,280.2 L 362.8,279.8 L 367.7,279.2 L 372.5,279.2 L 377.4,279.0 L 382.2,278.8 L 387.1,278.8 L 391.9,278.8 L 396.8,278.4 L 401.6,278.4 L 406.5,277.3 L 411.3,277.1 L 416.2,276.9 L 421.0,276.9 L 425.8,276.7 L 430.7,276.7 L 435.5,276.7 L 440.4,276.7 L 445.2,276.7 L 450.1,276.7 L 454.9,276.3 L 459.8,276.1 L 464.6,275.1 L 469.5,275.3 L 474.3,275.3 L 479.2,275.1 L 484.0,275.1 L 488.9,275.1 L 493.7,274.7 L 498.6,274.7 L 503.4,274.7 L 508.3,274.7 L 513.1,274.7 L 517.9,274.7 L 522.8,274.5 L 527.6,274.5 L 532.5,273.7 L 537.3,273.7 L 542.2,273.5 L 547.0,273.3 L 551.9,273.1 L 556.7,272.9 L 561.6,272.5 L 566.4,272.5 L 571.3,272.0 L 576.1,272.0 L 581.0,271.8 L 585.8,271.6 L 590.7,271.6 L 595.5,271.6 L 600.3,271.6 L 605.2,271.6 L 610.0,271.6 L 614.9,271.0 L 619.7,271.0 L 624.6,270.6 L 629.4,270.2 L 634.3,269.6 L 639.1,269.4 L 644.0,269.4 L 648.8,268.4 L 653.7,268.2 L 658.5,268.2 L 663.4,267.6 L 668.2,267.6 L 673.1,267.4 L 677.9,267.4 L 682.8,267.6 L 687.6,267.8 L 692.4,267.6 L 697.3,267.2 L 702.1,267.4 L 707.0,267.2 L 711.8,267.0 L 716.7,267.0 L 721.5,267.0 L 726.4,267.0 L 731.2,266.6 L 736.1,266.6 L 740.9,266.6 L 745.8,265.9 L 750.6,265.9 L 755.5,265.9 L 760.3,265.9 L 765.2,265.9 L 770.0,265.9" fill="none" stroke="#34C759" stroke-width="2.5" stroke-linejoin="round" clip-path="url(#ca)"/>
<text x="98.7" y="55.0" text-anchor="middle" font-size="9" fill="#4F8EF7" opacity="0.85" clip-path="url(#ca)">+0.5% (+8)</text>
<text x="98.7" y="66.0" text-anchor="middle" font-size="9" fill="#BF5AF2" opacity="0.85" clip-path="url(#ca)">+1.0% (+10)</text>
<text x="98.7" y="77.0" text-anchor="middle" font-size="9" fill="#34C759" opacity="0.85" clip-path="url(#ca)">+1.5% (+11)</text>
<text x="190.8" y="55.0" text-anchor="middle" font-size="9" fill="#4F8EF7" opacity="0.85" clip-path="url(#ca)">+4.0% (+65)</text>
<text x="190.8" y="66.0" text-anchor="middle" font-size="9" fill="#BF5AF2" opacity="0.85" clip-path="url(#ca)">+3.5% (+35)</text>
<text x="190.8" y="77.0" text-anchor="middle" font-size="9" fill="#34C759" opacity="0.85" clip-path="url(#ca)">+3.6% (+27)</text>
<text x="319.2" y="55.0" text-anchor="middle" font-size="9" fill="#4F8EF7" opacity="0.85" clip-path="url(#ca)">+4.1% (+70)</text>
<text x="319.2" y="66.0" text-anchor="middle" font-size="9" fill="#BF5AF2" opacity="0.85" clip-path="url(#ca)">+3.5% (+36)</text>
<text x="319.2" y="77.0" text-anchor="middle" font-size="9" fill="#34C759" opacity="0.85" clip-path="url(#ca)">+3.3% (+26)</text>
<text x="450.1" y="55.0" text-anchor="middle" font-size="9" fill="#4F8EF7" opacity="0.85" clip-path="url(#ca)">+3.5% (+61)</text>
<text x="450.1" y="66.0" text-anchor="middle" font-size="9" fill="#BF5AF2" opacity="0.85" clip-path="url(#ca)">+2.7% (+29)</text>
<text x="450.1" y="77.0" text-anchor="middle" font-size="9" fill="#34C759" opacity="0.85" clip-path="url(#ca)">+2.6% (+21)</text>
<text x="581.0" y="55.0" text-anchor="middle" font-size="9" fill="#4F8EF7" opacity="0.85" clip-path="url(#ca)">+2.7% (+49)</text>
<text x="581.0" y="66.0" text-anchor="middle" font-size="9" fill="#BF5AF2" opacity="0.85" clip-path="url(#ca)">+3.0% (+33)</text>
<text x="581.0" y="77.0" text-anchor="middle" font-size="9" fill="#34C759" opacity="0.85" clip-path="url(#ca)">+3.2% (+27)</text>
<text x="709.4" y="55.0" text-anchor="middle" font-size="9" fill="#4F8EF7" opacity="0.85" clip-path="url(#ca)">+2.9% (+54)</text>
<text x="709.4" y="66.0" text-anchor="middle" font-size="9" fill="#BF5AF2" opacity="0.85" clip-path="url(#ca)">+1.9% (+22)</text>
<text x="709.4" y="77.0" text-anchor="middle" font-size="9" fill="#34C759" opacity="0.85" clip-path="url(#ca)">+1.5% (+13)</text>
<rect x="211" y="369" width="12" height="12" fill="#4F8EF7" rx="2"/>
<text x="227" y="379" font-size="12" fill="#111827">Authors</text>
<rect x="351" y="369" width="12" height="12" fill="#BF5AF2" rx="2"/>
<text x="367" y="379" font-size="12" fill="#111827">Contributors</text>
<rect x="491" y="369" width="12" height="12" fill="#34C759" rx="2"/>
<text x="507" y="379" font-size="12" fill="#111827">Non-author contributors</text>
<text x="72" y="394" font-size="8" fill="#e5e7eb">data since Dec 11, 2025</text>
</svg>