<svg xmlns="http://www.w3.org/2000/svg" width="800" height="400" viewBox="0 0 800 400">
<defs>
  <style>text { font-family: -apple-system, BlinkMacSystemFont, 'Segoe UI', Roboto, sans-serif; }</style>
  <linearGradient id="g1" x1="0" y1="0" x2="0" y2="1">
  <stop offset="0%" stop-color="#FF6363" stop-opacity="0.25"/>
  <stop offset="100%" stop-color="#FF6363" stop-opacity="0"/>
</linearGradient>
  <clipPath id="ca"><rect x="72" y="45" width="698" height="295"/></clipPath>
</defs>
<rect width="800" height="400" fill="#ffffff" rx="12"/>
<text x="400" y="26" text-anchor="middle" font-size="15" font-weight="600" fill="#111827">Packages Growth Over Time</text>
<line x1="72" y1="340.0" x2="770" y2="340.0" stroke="#f3f4f6" stroke-width="1"/>
<text x="66" y="344.0" text-anchor="end" font-size="11" fill="#6b7280">2.4k</text>
<line x1="72" y1="266.3" x2="770" y2="266.3" stroke="#f3f4f6" stroke-width="1"/>
<text x="66" y="270.3" text-anchor="end" font-size="11" fill="#6b7280">2.6k</text>
<line x1="72" y1="192.5" x2="770" y2="192.5" stroke="#f3f4f6" stroke-width="1"/>
<text x="66" y="196.5" text-anchor="end" font-size="11" fill="#6b7280">2.8k</text>
<line x1="72" y1="118.8" x2="770" y2="118.8" stroke="#f3f4f6" stroke-width="1"/>
<text x="66" y="122.8" text-anchor="end" font-size="11" fill="#6b7280">3.0k</text>
<line x1="72" y1="45.0" x2="770" y2="45.0" stroke="#f3f4f6" stroke-width="1"/>
<text x="66" y="49.0" text-anchor="end" font-size="11" fill="#6b7280">3.2k</text>
<line x1="117.8" y1="45" x2="117.8" y2="340" stroke="#e5e7eb" stroke-width="1" stroke-dasharray="3,3" clip-path="url(#ca)"/>
<line x1="216.9" y1="45" x2="216.9" y2="340" stroke="#e5e7eb" stroke-width="1" stroke-dasharray="3,3" clip-path="url(#ca)"/>
<line x1="319.9" y1="45" x2="319.9" y2="340" stroke="#e5e7eb" stroke-width="1" stroke-dasharray="3,3" clip-path="url(#ca)"/>
<line x1="422.9" y1="45" x2="422.9" y2="340" stroke="#e5e7eb" stroke-width="1" stroke-dasharray="3,3" clip-path="url(#ca)"/>
<line x1="525.9" y1="45" x2="525.9" y2="340" stroke="#e5e7eb" stroke-width="1" stroke-dasharray="3,3" clip-path="url(#ca)"/>
<line x1="625.1" y1="45" x2="625.1" y2="340" stroke="#e5e7eb" stroke-width="1" stroke-dasharray="3,3" clip-path="url(#ca)"/>
<line x1="716.6" y1="45" x2="716.6" y2="340" stroke="#e5e7eb" stroke-width="1" stroke-dasharray="3,3" clip-path="url(#ca)"/>
<text x="72.0" y="358.0" text-anchor="middle" font-size="11" fill="#6b7280">Dec 11</text>
<text x="213.1" y="358.0" text-anchor="middle" font-size="11" fill="#6b7280">Jan 31</text>
<text x="350.4" y="358.0" text-anchor="middle" font-size="11" fill="#6b7280">Mar 10</text>
<text x="491.6" y="358.0" text-anchor="middle" font-size="11" fill="#6b7280">Apr 21</text>
<text x="628.9" y="358.0" text-anchor="middle" font-size="11" fill="#6b7280">Jun 3</text>
<text x="770.0" y="358.0" text-anchor="middle" font-size="11" fill="#6b7280">Jul 18</text>
<line x1="72" y1="45" x2="72" y2="340" stroke="#e5e7eb" stroke-width="1"/>
<line x1="72" y1="340" x2="770" y2="340" stroke="#e5e7eb" stroke-width="1"/>
<text x="-192.5" y="18" text-anchor="middle" font-size="12" fill="#6b7280" transform="rotate(-90)">Extensions</text>
<path d="M 72.0,340 L 72.0,311.6 L 75.8,311.2 L 79.6,311.2 L 83.4,310.1 L 87.3,310.1 L 91.1,309.4 L 94.9,308.7 L 98.7,308.3 L 102.5,306.4 L 106.3,305.0 L 110.1,305.0 L 114.0,305.0 L 117.8,305.0 L 121.6,304.2 L 125.4,304.2 L 129.2,304.2 L 133.0,303.5 L 136.8,302.0 L 140.7,299.4 L 144.5,297.6 L 148.3,296.9 L 152.1,296.5 L 155.9,295.0 L 159.7,290.6 L 163.5,289.1 L 167.4,289.1 L 171.2,285.4 L 175.0,284.3 L 178.8,282.8 L 182.6,281.7 L 186.4,279.5 L 190.2,277.7 L 194.1,277.3 L 197.9,274.4 L 201.7,271.8 L 205.5,271.8 L 209.3,269.9 L 213.1,268.5 L 216.9,268.1 L 220.8,267.7 L 224.6,267.4 L 228.4,266.3 L 232.2,259.6 L 236.0,256.7 L 239.8,255.2 L 243.6,254.4 L 247.5,253.3 L 251.3,250.8 L 255.1,250.0 L 258.9,249.3 L 262.7,247.1 L 266.5,246.3 L 270.3,245.6 L 274.2,245.6 L 278.0,239.0 L 281.8,238.2 L 285.6,237.5 L 289.4,236.0 L 293.2,234.2 L 297.0,234.2 L 300.9,231.2 L 304.7,226.4 L 308.5,225.7 L 312.3,226.1 L 316.1,224.9 L 319.9,224.6 L 323.7,224.6 L 327.6,222.4 L 331.4,220.5 L 335.2,219.1 L 339.0,217.2 L 342.8,216.8 L 346.6,216.8 L 350.4,214.3 L 354.3,213.5 L 358.1,213.2 L 361.9,208.7 L 365.7,208.4 L 369.5,208.4 L 373.3,208.4 L 377.1,208.0 L 381.0,206.1 L 384.8,204.7 L 388.6,202.8 L 392.4,202.5 L 396.2,201.3 L 400.0,198.0 L 403.8,195.1 L 407.7,194.7 L 411.5,194.3 L 415.3,193.2 L 419.1,189.6 L 422.9,188.8 L 426.7,187.7 L 430.5,185.5 L 434.3,185.1 L 438.2,184.8 L 442.0,184.8 L 445.8,184.0 L 449.6,181.8 L 453.4,181.1 L 457.2,180.3 L 461.0,180.0 L 464.9,179.2 L 468.7,175.5 L 472.5,175.2 L 476.3,174.4 L 480.1,174.1 L 483.9,172.2 L 487.7,171.9 L 491.6,171.5 L 495.4,170.4 L 499.2,168.9 L 503.0,168.9 L 506.8,168.9 L 510.6,168.9 L 514.4,168.2 L 518.3,166.3 L 522.1,166.0 L 525.9,164.1 L 529.7,163.7 L 533.5,163.4 L 537.3,161.2 L 541.1,158.9 L 545.0,158.6 L 548.8,158.2 L 552.6,153.4 L 556.4,151.9 L 560.2,150.8 L 564.0,150.5 L 567.8,147.9 L 571.7,147.9 L 575.5,146.0 L 579.3,144.9 L 583.1,141.2 L 586.9,139.8 L 590.7,139.4 L 594.5,139.0 L 598.4,139.0 L 602.2,138.7 L 606.0,136.5 L 609.8,134.6 L 613.6,134.6 L 617.4,134.2 L 621.2,134.2 L 625.1,132.8 L 628.9,132.0 L 632.7,130.9 L 636.5,129.8 L 640.3,128.3 L 644.1,128.3 L 647.9,127.2 L 651.8,125.8 L 655.6,122.8 L 659.4,120.2 L 663.2,119.5 L 667.0,118.8 L 670.8,118.0 L 674.6,117.6 L 678.5,116.5 L 682.3,114.3 L 686.1,114.0 L 689.9,112.5 L 693.7,111.0 L 697.5,108.4 L 701.3,107.3 L 705.2,106.6 L 709.0,106.6 L 712.8,105.1 L 716.6,104.4 L 720.4,103.6 L 724.2,103.3 L 728.0,102.2 L 731.9,102.2 L 735.7,100.7 L 739.5,100.3 L 743.3,99.6 L 747.1,97.0 L 750.9,95.5 L 754.7,95.5 L 758.6,95.5 L 762.4,94.4 L 766.2,92.2 L 770.0,91.5 L 770.0,340 Z" fill="url(#g1)" clip-path="url(#ca)"/>
<path d="M 72.0,311.6 L 75.8,311.2 L 79.6,311.2 L 83.4,310.1 L 87.3,310.1 L 91.1,309.4 L 94.9,308.7 L 98.7,308.3 L 102.5,306.4 L 106.3,305.0 L 110.1,305.0 L 114.0,305.0 L 117.8,305.0 L 121.6,304.2 L 125.4,304.2 L 129.2,304.2 L 133.0,303.5 L 136.8,302.0 L 140.7,299.4 L 144.5,297.6 L 148.3,296.9 L 152.1,296.5 L 155.9,295.0 L 159.7,290.6 L 163.5,289.1 L 167.4,289.1 L 171.2,285.4 L 175.0,284.3 L 178.8,282.8 L 182.6,281.7 L 186.4,279.5 L 190.2,277.7 L 194.1,277.3 L 197.9,274.4 L 201.7,271.8 L 205.5,271.8 L 209.3,269.9 L 213.1,268.5 L 216.9,268.1 L 220.8,267.7 L 224.6,267.4 L 228.4,266.3 L 232.2,259.6 L 236.0,256.7 L 239.8,255.2 L 243.6,254.4 L 247.5,253.3 L 251.3,250.8 L 255.1,250.0 L 258.9,249.3 L 262.7,247.1 L 266.5,246.3 L 270.3,245.6 L 274.2,245.6 L 278.0,239.0 L 281.8,238.2 L 285.6,237.5 L 289.4,236.0 L 293.2,234.2 L 297.0,234.2 L 300.9,231.2 L 304.7,226.4 L 308.5,225.7 L 312.3,226.1 L 316.1,224.9 L 319.9,224.6 L 323.7,224.6 L 327.6,222.4 L 331.4,220.5 L 335.2,219.1 L 339.0,217.2 L 342.8,216.8 L 346.6,216.8 L 350.4,214.3 L 354.3,213.5 L 358.1,213.2 L 361.9,208.7 L 365.7,208.4 L 369.5,208.4 L 373.3,208.4 L 377.1,208.0 L 381.0,206.1 L 384.8,204.7 L 388.6,202.8 L 392.4,202.5 L 396.2,201.3 L 400.0,198.0 L 403.8,195.1 L 407.7,194.7 L 411.5,194.3 L 415.3,193.2 L 419.1,189.6 L 422.9,188.8 L 426.7,187.7 L 430.5,185.5 L 434.3,185.1 L 438.2,184.8 L 442.0,184.8 L 445.8,184.0 L 449.6,181.8 L 453.4,181.1 L 457.2,180.3 L 461.0,180.0 L 464.9,179.2 L 468.7,175.5 L 472.5,175.2 L 476.3,174.4 L 480.1,174.1 L 483.9,172.2 L 487.7,171.9 L 491.6,171.5 L 495.4,170.4 L 499.2,168.9 L 503.0,168.9 L 506.8,168.9 L 510.6,168.9 L 514.4,168.2 L 518.3,166.3 L 522.1,166.0 L 525.9,164.1 L 529.7,163.7 L 533.5,163.4 L 537.3,161.2 L 541.1,158.9 L 545.0,158.6 L 548.8,158.2 L 552.6,153.4 L 556.4,151.9 L 560.2,150.8 L 564.0,150.5 L 567.8,147.9 L 571.7,147.9 L 575.5,146.0 L 579.3,144.9 L 583.1,141.2 L 586.9,139.8 L 590.7,139.4 L 594.5,139.0 L 598.4,139.0 L 602.2,138.7 L 606.0,136.5 L 609.8,134.6 L 613.6,134.6 L 617.4,134.2 L 621.2,134.2 L 625.1,132.8 L 628.9,132.0 L 632.7,130.9 L 636.5,129.8 L 640.3,128.3 L 644.1,128.3 L 647.9,127.2 L 651.8,125.8 L 655.6,122.8 L 659.4,120.2 L 663.2,119.5 L 667.0,118.8 L 670.8,118.0 L 674.6,117.6 L 678.5,116.5 L 682.3,114.3 L 686.1,114.0 L 689.9,112.5 L 693.7,111.0 L 697.5,108.4 L 701.3,107.3 L 705.2,106.6 L 709.0,106.6 L 712.8,105.1 L 716.6,104.4 L 720.4,103.6 L 724.2,103.3 L 728.0,102.2 L 731.9,102.2 L 735.7,100.7 L 739.5,100.3 L 743.3,99.6 L 747.1,97.0 L 750.9,95.5 L 754.7,95.5 L 758.6,95.5 L 762.4,94.4 L 766.2,92.2 L 770.0,91.5" fill="none" stroke="#FF6363" stroke-width="2.5" stroke-linejoin="round" clip-path="url(#ca)"/>
<text x="93.0" y="55.0" text-anchor="middle" font-size="9" fill="#FF6363" opacity="0.85" clip-path="url(#ca)">+0.7% (+18)</text>
<text x="165.4" y="55.0" text-anchor="middle" font-size="9" fill="#FF6363" opacity="0.85" clip-path="url(#ca)">+4.0% (+99)</text>
<text x="266.5" y="55.0" text-anchor="middle" font-size="9" fill="#FF6363" opacity="0.85" clip-path="url(#ca)">+4.5% (+117)</text>
<text x="369.5" y="55.0" text-anchor="middle" font-size="9" fill="#FF6363" opacity="0.85" clip-path="url(#ca)">+3.5% (+95)</text>
<text x="472.5" y="55.0" text-anchor="middle" font-size="9" fill="#FF6363" opacity="0.85" clip-path="url(#ca)">+2.2% (+62)</text>
<text x="573.6" y="55.0" text-anchor="middle" font-size="9" fill="#FF6363" opacity="0.85" clip-path="url(#ca)">+2.8% (+81)</text>
<text x="668.9" y="55.0" text-anchor="middle" font-size="9" fill="#FF6363" opacity="0.85" clip-path="url(#ca)">+2.5% (+75)</text>
<text x="743.3" y="55.0" text-anchor="middle" font-size="9" fill="#FF6363" opacity="0.85" clip-path="url(#ca)">+1.2% (+35)</text>
<rect x="351" y="369" width="12" height="12" fill="#FF6363" rx="2"/>
<text x="367" y="379" font-size="12" fill="#111827">Extensions</text>
<text x="72" y="394" font-size="8" fill="#e5e7eb">data since Dec 11, 2025</text>
</svg>