<svg xmlns="http://www.w3.org/2000/svg" width="800" height="400" viewBox="0 0 800 400">
<defs>
  <style>text { font-family: -apple-system, BlinkMacSystemFont, 'Segoe UI', Roboto, sans-serif; }</style>
  <linearGradient id="g1" x1="0" y1="0" x2="0" y2="1">
  <stop offset="0%" stop-color="#FF6363" stop-opacity="0.25"/>
  <stop offset="100%" stop-color="#FF6363" stop-opacity="0"/>
</linearGradient>
  <clipPath id="ca"><rect x="72" y="45" width="698" height="295"/></clipPath>
</defs>
<rect width="800" height="400" fill="#ffffff" rx="12"/>
<text x="400" y="26" text-anchor="middle" font-size="15" font-weight="600" fill="#111827">Packages Growth Over Time</text>
<line x1="72" y1="340.0" x2="770" y2="340.0" stroke="#f3f4f6" stroke-width="1"/>
<text x="66" y="344.0" text-anchor="end" font-size="11" fill="#6b7280">2.4k</text>
<line x1="72" y1="266.3" x2="770" y2="266.3" stroke="#f3f4f6" stroke-width="1"/>
<text x="66" y="270.3" text-anchor="end" font-size="11" fill="#6b7280">2.6k</text>
<line x1="72" y1="192.5" x2="770" y2="192.5" stroke="#f3f4f6" stroke-width="1"/>
<text x="66" y="196.5" text-anchor="end" font-size="11" fill="#6b7280">2.8k</text>
<line x1="72" y1="118.8" x2="770" y2="118.8" stroke="#f3f4f6" stroke-width="1"/>
<text x="66" y="122.8" text-anchor="end" font-size="11" fill="#6b7280">3.0k</text>
<line x1="72" y1="45.0" x2="770" y2="45.0" stroke="#f3f4f6" stroke-width="1"/>
<text x="66" y="49.0" text-anchor="end" font-size="11" fill="#6b7280">3.2k</text>
<line x1="121.0" y1="45" x2="121.0" y2="340" stroke="#e5e7eb" stroke-width="1" stroke-dasharray="3,3" clip-path="url(#ca)"/>
<line x1="227.1" y1="45" x2="227.1" y2="340" stroke="#e5e7eb" stroke-width="1" stroke-dasharray="3,3" clip-path="url(#ca)"/>
<line x1="337.3" y1="45" x2="337.3" y2="340" stroke="#e5e7eb" stroke-width="1" stroke-dasharray="3,3" clip-path="url(#ca)"/>
<line x1="447.5" y1="45" x2="447.5" y2="340" stroke="#e5e7eb" stroke-width="1" stroke-dasharray="3,3" clip-path="url(#ca)"/>
<line x1="557.7" y1="45" x2="557.7" y2="340" stroke="#e5e7eb" stroke-width="1" stroke-dasharray="3,3" clip-path="url(#ca)"/>
<line x1="663.9" y1="45" x2="663.9" y2="340" stroke="#e5e7eb" stroke-width="1" stroke-dasharray="3,3" clip-path="url(#ca)"/>
<line x1="761.8" y1="45" x2="761.8" y2="340" stroke="#e5e7eb" stroke-width="1" stroke-dasharray="3,3" clip-path="url(#ca)"/>
<text x="72.0" y="358.0" text-anchor="middle" font-size="11" fill="#6b7280">Dec 11</text>
<text x="210.8" y="358.0" text-anchor="middle" font-size="11" fill="#6b7280">Jan 28</text>
<text x="349.6" y="358.0" text-anchor="middle" font-size="11" fill="#6b7280">Mar 4</text>
<text x="492.4" y="358.0" text-anchor="middle" font-size="11" fill="#6b7280">Apr 13</text>
<text x="631.2" y="358.0" text-anchor="middle" font-size="11" fill="#6b7280">May 24</text>
<text x="770.0" y="358.0" text-anchor="middle" font-size="11" fill="#6b7280">Jul 3</text>
<line x1="72" y1="45" x2="72" y2="340" stroke="#e5e7eb" stroke-width="1"/>
<line x1="72" y1="340" x2="770" y2="340" stroke="#e5e7eb" stroke-width="1"/>
<text x="-192.5" y="18" text-anchor="middle" font-size="12" fill="#6b7280" transform="rotate(-90)">Extensions</text>
<path d="M 72.0,340 L 72.0,311.6 L 76.1,311.2 L 80.2,311.2 L 84.2,310.1 L 88.3,310.1 L 92.4,309.4 L 96.5,308.7 L 100.6,308.3 L 104.7,306.4 L 108.7,305.0 L 112.8,305.0 L 116.9,305.0 L 121.0,305.0 L 125.1,304.2 L 129.1,304.2 L 133.2,304.2 L 137.3,303.5 L 141.4,302.0 L 145.5,299.4 L 149.6,297.6 L 153.6,296.9 L 157.7,296.5 L 161.8,295.0 L 165.9,290.6 L 170.0,289.1 L 174.0,289.1 L 178.1,285.4 L 182.2,284.3 L 186.3,282.8 L 190.4,281.7 L 194.5,279.5 L 198.5,277.7 L 202.6,277.3 L 206.7,274.4 L 210.8,271.8 L 214.9,271.8 L 218.9,269.9 L 223.0,268.5 L 227.1,268.1 L 231.2,267.7 L 235.3,267.4 L 239.4,266.3 L 243.4,259.6 L 247.5,256.7 L 251.6,255.2 L 255.7,254.4 L 259.8,253.3 L 263.8,250.8 L 267.9,250.0 L 272.0,249.3 L 276.1,247.1 L 280.2,246.3 L 284.3,245.6 L 288.3,245.6 L 292.4,239.0 L 296.5,238.2 L 300.6,237.5 L 304.7,236.0 L 308.7,234.2 L 312.8,234.2 L 316.9,231.2 L 321.0,226.4 L 325.1,225.7 L 329.2,226.1 L 333.2,224.9 L 337.3,224.6 L 341.4,224.6 L 345.5,222.4 L 349.6,220.5 L 353.6,219.1 L 357.7,217.2 L 361.8,216.8 L 365.9,216.8 L 370.0,214.3 L 374.1,213.5 L 378.1,213.2 L 382.2,208.7 L 386.3,208.4 L 390.4,208.4 L 394.5,208.4 L 398.5,208.0 L 402.6,206.1 L 406.7,204.7 L 410.8,202.8 L 414.9,202.5 L 419.0,201.3 L 423.0,198.0 L 427.1,195.1 L 431.2,194.7 L 435.3,194.3 L 439.4,193.2 L 443.5,189.6 L 447.5,188.8 L 451.6,187.7 L 455.7,185.5 L 459.8,185.1 L 463.9,184.8 L 467.9,184.8 L 472.0,184.0 L 476.1,181.8 L 480.2,181.1 L 484.3,180.3 L 488.4,180.0 L 492.4,179.2 L 496.5,175.5 L 500.6,175.2 L 504.7,174.4 L 508.8,174.1 L 512.8,172.2 L 516.9,171.9 L 521.0,171.5 L 525.1,170.4 L 529.2,168.9 L 533.3,168.9 L 537.3,168.9 L 541.4,168.9 L 545.5,168.2 L 549.6,166.3 L 553.7,166.0 L 557.7,164.1 L 561.8,163.7 L 565.9,163.4 L 570.0,161.2 L 574.1,158.9 L 578.2,158.6 L 582.2,158.2 L 586.3,153.4 L 590.4,151.9 L 594.5,150.8 L 598.6,150.5 L 602.6,147.9 L 606.7,147.9 L 610.8,146.0 L 614.9,144.9 L 619.0,141.2 L 623.1,139.8 L 627.1,139.4 L 631.2,139.0 L 635.3,139.0 L 639.4,138.7 L 643.5,136.5 L 647.5,134.6 L 651.6,134.6 L 655.7,134.2 L 659.8,134.2 L 663.9,132.8 L 668.0,132.0 L 672.0,130.9 L 676.1,129.8 L 680.2,128.3 L 684.3,128.3 L 688.4,127.2 L 692.4,125.8 L 696.5,122.8 L 700.6,120.2 L 704.7,119.5 L 708.8,118.8 L 712.9,118.0 L 716.9,117.6 L 721.0,116.5 L 725.1,114.3 L 729.2,114.0 L 733.3,112.5 L 737.3,111.0 L 741.4,108.4 L 745.5,107.3 L 749.6,106.6 L 753.7,106.6 L 757.8,105.1 L 761.8,104.4 L 765.9,103.6 L 770.0,103.3 L 770.0,340 Z" fill="url(#g1)" clip-path="url(#ca)"/>
<path d="M 72.0,311.6 L 76.1,311.2 L 80.2,311.2 L 84.2,310.1 L 88.3,310.1 L 92.4,309.4 L 96.5,308.7 L 100.6,308.3 L 104.7,306.4 L 108.7,305.0 L 112.8,305.0 L 116.9,305.0 L 121.0,305.0 L 125.1,304.2 L 129.1,304.2 L 133.2,304.2 L 137.3,303.5 L 141.4,302.0 L 145.5,299.4 L 149.6,297.6 L 153.6,296.9 L 157.7,296.5 L 161.8,295.0 L 165.9,290.6 L 170.0,289.1 L 174.0,289.1 L 178.1,285.4 L 182.2,284.3 L 186.3,282.8 L 190.4,281.7 L 194.5,279.5 L 198.5,277.7 L 202.6,277.3 L 206.7,274.4 L 210.8,271.8 L 214.9,271.8 L 218.9,269.9 L 223.0,268.5 L 227.1,268.1 L 231.2,267.7 L 235.3,267.4 L 239.4,266.3 L 243.4,259.6 L 247.5,256.7 L 251.6,255.2 L 255.7,254.4 L 259.8,253.3 L 263.8,250.8 L 267.9,250.0 L 272.0,249.3 L 276.1,247.1 L 280.2,246.3 L 284.3,245.6 L 288.3,245.6 L 292.4,239.0 L 296.5,238.2 L 300.6,237.5 L 304.7,236.0 L 308.7,234.2 L 312.8,234.2 L 316.9,231.2 L 321.0,226.4 L 325.1,225.7 L 329.2,226.1 L 333.2,224.9 L 337.3,224.6 L 341.4,224.6 L 345.5,222.4 L 349.6,220.5 L 353.6,219.1 L 357.7,217.2 L 361.8,216.8 L 365.9,216.8 L 370.0,214.3 L 374.1,213.5 L 378.1,213.2 L 382.2,208.7 L 386.3,208.4 L 390.4,208.4 L 394.5,208.4 L 398.5,208.0 L 402.6,206.1 L 406.7,204.7 L 410.8,202.8 L 414.9,202.5 L 419.0,201.3 L 423.0,198.0 L 427.1,195.1 L 431.2,194.7 L 435.3,194.3 L 439.4,193.2 L 443.5,189.6 L 447.5,188.8 L 451.6,187.7 L 455.7,185.5 L 459.8,185.1 L 463.9,184.8 L 467.9,184.8 L 472.0,184.0 L 476.1,181.8 L 480.2,181.1 L 484.3,180.3 L 488.4,180.0 L 492.4,179.2 L 496.5,175.5 L 500.6,175.2 L 504.7,174.4 L 508.8,174.1 L 512.8,172.2 L 516.9,171.9 L 521.0,171.5 L 525.1,170.4 L 529.2,168.9 L 533.3,168.9 L 537.3,168.9 L 541.4,168.9 L 545.5,168.2 L 549.6,166.3 L 553.7,166.0 L 557.7,164.1 L 561.8,163.7 L 565.9,163.4 L 570.0,161.2 L 574.1,158.9 L 578.2,158.6 L 582.2,158.2 L 586.3,153.4 L 590.4,151.9 L 594.5,150.8 L 598.6,150.5 L 602.6,147.9 L 606.7,147.9 L 610.8,146.0 L 614.9,144.9 L 619.0,141.2 L 623.1,139.8 L 627.1,139.4 L 631.2,139.0 L 635.3,139.0 L 639.4,138.7 L 643.5,136.5 L 647.5,134.6 L 651.6,134.6 L 655.7,134.2 L 659.8,134.2 L 663.9,132.8 L 668.0,132.0 L 672.0,130.9 L 676.1,129.8 L 680.2,128.3 L 684.3,128.3 L 688.4,127.2 L 692.4,125.8 L 696.5,122.8 L 700.6,120.2 L 704.7,119.5 L 708.8,118.8 L 712.9,118.0 L 716.9,117.6 L 721.0,116.5 L 725.1,114.3 L 729.2,114.0 L 733.3,112.5 L 737.3,111.0 L 741.4,108.4 L 745.5,107.3 L 749.6,106.6 L 753.7,106.6 L 757.8,105.1 L 761.8,104.4 L 765.9,103.6 L 770.0,103.3" fill="none" stroke="#FF6363" stroke-width="2.5" stroke-linejoin="round" clip-path="url(#ca)"/>
<text x="94.5" y="55.0" text-anchor="middle" font-size="9" fill="#FF6363" opacity="0.85" clip-path="url(#ca)">+0.7% (+18)</text>
<text x="172.0" y="55.0" text-anchor="middle" font-size="9" fill="#FF6363" opacity="0.85" clip-path="url(#ca)">+4.0% (+99)</text>
<text x="280.2" y="55.0" text-anchor="middle" font-size="9" fill="#FF6363" opacity="0.85" clip-path="url(#ca)">+4.5% (+117)</text>
<text x="390.4" y="55.0" text-anchor="middle" font-size="9" fill="#FF6363" opacity="0.85" clip-path="url(#ca)">+3.5% (+95)</text>
<text x="500.6" y="55.0" text-anchor="middle" font-size="9" fill="#FF6363" opacity="0.85" clip-path="url(#ca)">+2.2% (+62)</text>
<text x="608.8" y="55.0" text-anchor="middle" font-size="9" fill="#FF6363" opacity="0.85" clip-path="url(#ca)">+2.8% (+81)</text>
<text x="710.8" y="55.0" text-anchor="middle" font-size="9" fill="#FF6363" opacity="0.85" clip-path="url(#ca)">+2.5% (+75)</text>
<text x="765.9" y="55.0" text-anchor="middle" font-size="9" fill="#FF6363" opacity="0.85" clip-path="url(#ca)">+0.1% (+3)</text>
<rect x="351" y="369" width="12" height="12" fill="#FF6363" rx="2"/>
<text x="367" y="379" font-size="12" fill="#111827">Extensions</text>
<text x="72" y="394" font-size="8" fill="#e5e7eb">data since Dec 11, 2025</text>
</svg>