<svg xmlns="http://www.w3.org/2000/svg" width="800" height="400" viewBox="0 0 800 400">
<defs>
  <style>text { font-family: -apple-system, BlinkMacSystemFont, 'Segoe UI', Roboto, sans-serif; }</style>
  <linearGradient id="g1" x1="0" y1="0" x2="0" y2="1">
  <stop offset="0%" stop-color="#FF6363" stop-opacity="0.25"/>
  <stop offset="100%" stop-color="#FF6363" stop-opacity="0"/>
</linearGradient>
  <clipPath id="ca"><rect x="72" y="45" width="698" height="295"/></clipPath>
</defs>
<rect width="800" height="400" fill="#ffffff" rx="12"/>
<text x="400" y="26" text-anchor="middle" font-size="15" font-weight="600" fill="#111827">Packages Growth Over Time</text>
<line x1="72" y1="340.0" x2="770" y2="340.0" stroke="#f3f4f6" stroke-width="1"/>
<text x="66" y="344.0" text-anchor="end" font-size="11" fill="#6b7280">2.4k</text>
<line x1="72" y1="290.8" x2="770" y2="290.8" stroke="#f3f4f6" stroke-width="1"/>
<text x="66" y="294.8" text-anchor="end" font-size="11" fill="#6b7280">2.5k</text>
<line x1="72" y1="241.7" x2="770" y2="241.7" stroke="#f3f4f6" stroke-width="1"/>
<text x="66" y="245.7" text-anchor="end" font-size="11" fill="#6b7280">2.6k</text>
<line x1="72" y1="192.5" x2="770" y2="192.5" stroke="#f3f4f6" stroke-width="1"/>
<text x="66" y="196.5" text-anchor="end" font-size="11" fill="#6b7280">2.7k</text>
<line x1="72" y1="143.3" x2="770" y2="143.3" stroke="#f3f4f6" stroke-width="1"/>
<text x="66" y="147.3" text-anchor="end" font-size="11" fill="#6b7280">2.8k</text>
<line x1="72" y1="94.2" x2="770" y2="94.2" stroke="#f3f4f6" stroke-width="1"/>
<text x="66" y="98.2" text-anchor="end" font-size="11" fill="#6b7280">2.9k</text>
<line x1="72" y1="45.0" x2="770" y2="45.0" stroke="#f3f4f6" stroke-width="1"/>
<text x="66" y="49.0" text-anchor="end" font-size="11" fill="#6b7280">3.0k</text>
<line x1="138.0" y1="45" x2="138.0" y2="340" stroke="#e5e7eb" stroke-width="1" stroke-dasharray="3,3" clip-path="url(#ca)"/>
<line x1="280.9" y1="45" x2="280.9" y2="340" stroke="#e5e7eb" stroke-width="1" stroke-dasharray="3,3" clip-path="url(#ca)"/>
<line x1="429.2" y1="45" x2="429.2" y2="340" stroke="#e5e7eb" stroke-width="1" stroke-dasharray="3,3" clip-path="url(#ca)"/>
<line x1="577.6" y1="45" x2="577.6" y2="340" stroke="#e5e7eb" stroke-width="1" stroke-dasharray="3,3" clip-path="url(#ca)"/>
<line x1="726.0" y1="45" x2="726.0" y2="340" stroke="#e5e7eb" stroke-width="1" stroke-dasharray="3,3" clip-path="url(#ca)"/>
<text x="72.0" y="358.0" text-anchor="middle" font-size="11" fill="#6b7280">Dec 11</text>
<text x="209.4" y="358.0" text-anchor="middle" font-size="11" fill="#6b7280">Jan 18</text>
<text x="352.3" y="358.0" text-anchor="middle" font-size="11" fill="#6b7280">Feb 14</text>
<text x="489.7" y="358.0" text-anchor="middle" font-size="11" fill="#6b7280">Mar 13</text>
<text x="632.6" y="358.0" text-anchor="middle" font-size="11" fill="#6b7280">Apr 12</text>
<text x="770.0" y="358.0" text-anchor="middle" font-size="11" fill="#6b7280">May 13</text>
<line x1="72" y1="45" x2="72" y2="340" stroke="#e5e7eb" stroke-width="1"/>
<line x1="72" y1="340" x2="770" y2="340" stroke="#e5e7eb" stroke-width="1"/>
<text x="-192.5" y="18" text-anchor="middle" font-size="12" fill="#6b7280" transform="rotate(-90)">Extensions</text>
<path d="M 72.0,340 L 72.0,302.1 L 77.5,301.6 L 83.0,301.6 L 88.5,300.2 L 94.0,300.2 L 99.5,299.2 L 105.0,298.2 L 110.5,297.7 L 116.0,295.3 L 121.5,293.3 L 127.0,293.3 L 132.5,293.3 L 138.0,293.3 L 143.4,292.3 L 148.9,292.3 L 154.4,292.3 L 159.9,291.3 L 165.4,289.4 L 170.9,285.9 L 176.4,283.5 L 181.9,282.5 L 187.4,282.0 L 192.9,280.0 L 198.4,274.1 L 203.9,272.1 L 209.4,272.1 L 214.9,267.2 L 220.4,265.8 L 225.9,263.8 L 231.4,262.3 L 236.9,259.4 L 242.4,256.9 L 247.9,256.4 L 253.4,252.5 L 258.9,249.0 L 264.4,249.0 L 269.9,246.6 L 275.4,244.6 L 280.9,244.1 L 286.3,243.6 L 291.8,243.1 L 297.3,241.7 L 302.8,232.8 L 308.3,228.9 L 313.8,226.9 L 319.3,225.9 L 324.8,224.5 L 330.3,221.0 L 335.8,220.0 L 341.3,219.1 L 346.8,216.1 L 352.3,215.1 L 357.8,214.1 L 363.3,214.1 L 368.8,205.3 L 374.3,204.3 L 379.8,203.3 L 385.3,201.3 L 390.8,198.9 L 396.3,198.9 L 401.8,195.0 L 407.3,188.6 L 412.8,187.6 L 418.3,188.1 L 423.7,186.6 L 429.2,186.1 L 434.7,186.1 L 440.2,183.2 L 445.7,180.7 L 451.2,178.7 L 456.7,176.3 L 462.2,175.8 L 467.7,175.8 L 473.2,172.3 L 478.7,171.4 L 484.2,170.9 L 489.7,165.0 L 495.2,164.5 L 500.7,164.5 L 506.2,164.5 L 511.7,164.0 L 517.2,161.5 L 522.7,159.6 L 528.2,157.1 L 533.7,156.6 L 539.2,155.1 L 544.7,150.7 L 550.2,146.8 L 555.7,146.3 L 561.1,145.8 L 566.6,144.3 L 572.1,139.4 L 577.6,138.4 L 583.1,136.9 L 588.6,134.0 L 594.1,133.5 L 599.6,133.0 L 605.1,133.0 L 610.6,132.0 L 616.1,129.1 L 621.6,128.1 L 627.1,127.1 L 632.6,126.6 L 638.1,125.6 L 643.6,120.7 L 649.1,120.2 L 654.6,119.2 L 660.1,118.8 L 665.6,116.3 L 671.1,115.8 L 676.6,115.3 L 682.1,113.8 L 687.6,111.9 L 693.1,111.9 L 698.6,111.9 L 704.0,111.9 L 709.5,110.9 L 715.0,108.4 L 720.5,107.9 L 726.0,105.5 L 731.5,105.0 L 737.0,104.5 L 742.5,101.5 L 748.0,98.6 L 753.5,98.1 L 759.0,97.6 L 764.5,91.2 L 770.0,89.3 L 770.0,340 Z" fill="url(#g1)" clip-path="url(#ca)"/>
<path d="M 72.0,302.1 L 77.5,301.6 L 83.0,301.6 L 88.5,300.2 L 94.0,300.2 L 99.5,299.2 L 105.0,298.2 L 110.5,297.7 L 116.0,295.3 L 121.5,293.3 L 127.0,293.3 L 132.5,293.3 L 138.0,293.3 L 143.4,292.3 L 148.9,292.3 L 154.4,292.3 L 159.9,291.3 L 165.4,289.4 L 170.9,285.9 L 176.4,283.5 L 181.9,282.5 L 187.4,282.0 L 192.9,280.0 L 198.4,274.1 L 203.9,272.1 L 209.4,272.1 L 214.9,267.2 L 220.4,265.8 L 225.9,263.8 L 231.4,262.3 L 236.9,259.4 L 242.4,256.9 L 247.9,256.4 L 253.4,252.5 L 258.9,249.0 L 264.4,249.0 L 269.9,246.6 L 275.4,244.6 L 280.9,244.1 L 286.3,243.6 L 291.8,243.1 L 297.3,241.7 L 302.8,232.8 L 308.3,228.9 L 313.8,226.9 L 319.3,225.9 L 324.8,224.5 L 330.3,221.0 L 335.8,220.0 L 341.3,219.1 L 346.8,216.1 L 352.3,215.1 L 357.8,214.1 L 363.3,214.1 L 368.8,205.3 L 374.3,204.3 L 379.8,203.3 L 385.3,201.3 L 390.8,198.9 L 396.3,198.9 L 401.8,195.0 L 407.3,188.6 L 412.8,187.6 L 418.3,188.1 L 423.7,186.6 L 429.2,186.1 L 434.7,186.1 L 440.2,183.2 L 445.7,180.7 L 451.2,178.7 L 456.7,176.3 L 462.2,175.8 L 467.7,175.8 L 473.2,172.3 L 478.7,171.4 L 484.2,170.9 L 489.7,165.0 L 495.2,164.5 L 500.7,164.5 L 506.2,164.5 L 511.7,164.0 L 517.2,161.5 L 522.7,159.6 L 528.2,157.1 L 533.7,156.6 L 539.2,155.1 L 544.7,150.7 L 550.2,146.8 L 555.7,146.3 L 561.1,145.8 L 566.6,144.3 L 572.1,139.4 L 577.6,138.4 L 583.1,136.9 L 588.6,134.0 L 594.1,133.5 L 599.6,133.0 L 605.1,133.0 L 610.6,132.0 L 616.1,129.1 L 621.6,128.1 L 627.1,127.1 L 632.6,126.6 L 638.1,125.6 L 643.6,120.7 L 649.1,120.2 L 654.6,119.2 L 660.1,118.8 L 665.6,116.3 L 671.1,115.8 L 676.6,115.3 L 682.1,113.8 L 687.6,111.9 L 693.1,111.9 L 698.6,111.9 L 704.0,111.9 L 709.5,110.9 L 715.0,108.4 L 720.5,107.9 L 726.0,105.5 L 731.5,105.0 L 737.0,104.5 L 742.5,101.5 L 748.0,98.6 L 753.5,98.1 L 759.0,97.6 L 764.5,91.2 L 770.0,89.3" fill="none" stroke="#FF6363" stroke-width="2.5" stroke-linejoin="round" clip-path="url(#ca)"/>
<text x="102.2" y="55.0" text-anchor="middle" font-size="9" fill="#FF6363" opacity="0.85" clip-path="url(#ca)">+0.7% (+18)</text>
<text x="206.7" y="55.0" text-anchor="middle" font-size="9" fill="#FF6363" opacity="0.85" clip-path="url(#ca)">+4.0% (+99)</text>
<text x="352.3" y="55.0" text-anchor="middle" font-size="9" fill="#FF6363" opacity="0.85" clip-path="url(#ca)">+4.5% (+117)</text>
<text x="500.7" y="55.0" text-anchor="middle" font-size="9" fill="#FF6363" opacity="0.85" clip-path="url(#ca)">+3.5% (+95)</text>
<text x="649.1" y="55.0" text-anchor="middle" font-size="9" fill="#FF6363" opacity="0.85" clip-path="url(#ca)">+2.2% (+62)</text>
<text x="748.0" y="55.0" text-anchor="middle" font-size="9" fill="#FF6363" opacity="0.85" clip-path="url(#ca)">+1.1% (+33)</text>
<rect x="351" y="369" width="12" height="12" fill="#FF6363" rx="2"/>
<text x="367" y="379" font-size="12" fill="#111827">Extensions</text>
<text x="72" y="394" font-size="8" fill="#e5e7eb">data since Dec 11, 2025</text>
</svg>