<svg xmlns="http://www.w3.org/2000/svg" width="800" height="400" viewBox="0 0 800 400">
<defs>
  <style>text { font-family: -apple-system, BlinkMacSystemFont, 'Segoe UI', Roboto, sans-serif; }</style>
  <linearGradient id="g2" x1="0" y1="0" x2="0" y2="1">
  <stop offset="0%" stop-color="#4F8EF7" stop-opacity="0.25"/>
  <stop offset="100%" stop-color="#4F8EF7" stop-opacity="0"/>
</linearGradient>
<linearGradient id="g3" x1="0" y1="0" x2="0" y2="1">
  <stop offset="0%" stop-color="#BF5AF2" stop-opacity="0.25"/>
  <stop offset="100%" stop-color="#BF5AF2" stop-opacity="0"/>
</linearGradient>
<linearGradient id="g4" x1="0" y1="0" x2="0" y2="1">
  <stop offset="0%" stop-color="#34C759" stop-opacity="0.25"/>
  <stop offset="100%" stop-color="#34C759" stop-opacity="0"/>
</linearGradient>
  <clipPath id="ca"><rect x="72" y="45" width="698" height="295"/></clipPath>
</defs>
<rect width="800" height="400" fill="#ffffff" rx="12"/>
<text x="400" y="26" text-anchor="middle" font-size="15" font-weight="600" fill="#111827">Community Growth Over Time</text>
<line x1="72" y1="340.0" x2="770" y2="340.0" stroke="#f3f4f6" stroke-width="1"/>
<text x="66" y="344.0" text-anchor="end" font-size="11" fill="#6b7280">500</text>
<line x1="72" y1="241.7" x2="770" y2="241.7" stroke="#f3f4f6" stroke-width="1"/>
<text x="66" y="245.7" text-anchor="end" font-size="11" fill="#6b7280">1.0k</text>
<line x1="72" y1="143.3" x2="770" y2="143.3" stroke="#f3f4f6" stroke-width="1"/>
<text x="66" y="147.3" text-anchor="end" font-size="11" fill="#6b7280">1.5k</text>
<line x1="72" y1="45.0" x2="770" y2="45.0" stroke="#f3f4f6" stroke-width="1"/>
<text x="66" y="49.0" text-anchor="end" font-size="11" fill="#6b7280">2.0k</text>
<line x1="131.4" y1="45" x2="131.4" y2="340" stroke="#e5e7eb" stroke-width="1" stroke-dasharray="3,3" clip-path="url(#ca)"/>
<line x1="260.1" y1="45" x2="260.1" y2="340" stroke="#e5e7eb" stroke-width="1" stroke-dasharray="3,3" clip-path="url(#ca)"/>
<line x1="393.8" y1="45" x2="393.8" y2="340" stroke="#e5e7eb" stroke-width="1" stroke-dasharray="3,3" clip-path="url(#ca)"/>
<line x1="527.4" y1="45" x2="527.4" y2="340" stroke="#e5e7eb" stroke-width="1" stroke-dasharray="3,3" clip-path="url(#ca)"/>
<line x1="661.1" y1="45" x2="661.1" y2="340" stroke="#e5e7eb" stroke-width="1" stroke-dasharray="3,3" clip-path="url(#ca)"/>
<text x="72.0" y="358.0" text-anchor="middle" font-size="11" fill="#6b7280">Dec 11</text>
<text x="210.6" y="358.0" text-anchor="middle" font-size="11" fill="#6b7280">Jan 22</text>
<text x="349.2" y="358.0" text-anchor="middle" font-size="11" fill="#6b7280">Feb 19</text>
<text x="492.8" y="358.0" text-anchor="middle" font-size="11" fill="#6b7280">Mar 23</text>
<text x="631.4" y="358.0" text-anchor="middle" font-size="11" fill="#6b7280">Apr 24</text>
<text x="770.0" y="358.0" text-anchor="middle" font-size="11" fill="#6b7280">May 28</text>
<line x1="72" y1="45" x2="72" y2="340" stroke="#e5e7eb" stroke-width="1"/>
<line x1="72" y1="340" x2="770" y2="340" stroke="#e5e7eb" stroke-width="1"/>
<text x="-192.5" y="18" text-anchor="middle" font-size="12" fill="#6b7280" transform="rotate(-90)">People</text>
<path d="M 72.0,340 L 72.0,120.1 L 77.0,120.1 L 81.9,120.1 L 86.9,119.5 L 91.8,119.5 L 96.8,119.1 L 101.7,118.9 L 106.7,119.1 L 111.6,118.6 L 116.6,118.6 L 121.5,118.6 L 126.5,118.6 L 131.4,118.6 L 136.4,118.6 L 141.3,118.6 L 146.3,118.6 L 151.2,118.4 L 156.2,117.8 L 161.1,116.6 L 166.1,116.0 L 171.0,115.8 L 176.0,115.8 L 180.9,115.2 L 185.9,113.8 L 190.8,113.0 L 195.8,113.0 L 200.7,112.1 L 205.7,111.7 L 210.6,110.9 L 215.6,110.3 L 220.5,109.7 L 225.5,109.1 L 230.4,109.1 L 235.4,107.7 L 240.3,106.9 L 245.3,106.9 L 250.2,106.2 L 255.2,105.8 L 260.1,105.6 L 265.1,105.4 L 270.0,105.4 L 275.0,104.8 L 279.9,102.4 L 284.9,101.0 L 289.8,100.3 L 294.8,100.1 L 299.7,99.7 L 304.7,98.9 L 309.6,98.5 L 314.6,98.1 L 319.5,97.7 L 324.5,97.3 L 329.4,96.9 L 334.4,96.9 L 339.3,95.0 L 344.3,95.0 L 349.2,94.8 L 354.2,94.6 L 359.1,94.2 L 364.1,94.2 L 369.0,93.2 L 374.0,92.0 L 378.9,91.6 L 383.9,92.0 L 388.8,91.8 L 393.8,91.6 L 398.7,91.6 L 403.7,91.2 L 408.6,90.4 L 413.6,90.0 L 418.5,89.6 L 423.5,89.4 L 428.4,89.4 L 433.4,88.7 L 438.3,88.3 L 443.3,88.3 L 448.2,86.7 L 453.2,86.7 L 458.1,86.7 L 463.1,86.7 L 468.0,86.5 L 473.0,85.9 L 477.9,85.1 L 482.9,84.7 L 487.8,84.7 L 492.8,84.3 L 497.7,82.8 L 502.7,81.8 L 507.6,81.6 L 512.6,81.4 L 517.5,80.8 L 522.5,79.6 L 527.4,79.2 L 532.4,78.8 L 537.3,77.6 L 542.3,77.4 L 547.2,77.4 L 552.2,77.4 L 557.1,77.3 L 562.1,76.1 L 567.0,75.9 L 572.0,75.7 L 576.9,75.7 L 581.9,75.3 L 586.8,73.7 L 591.8,73.5 L 596.7,73.3 L 601.7,73.3 L 606.6,72.5 L 611.6,72.3 L 616.5,72.1 L 621.5,71.6 L 626.4,70.8 L 631.4,70.8 L 636.3,70.8 L 641.3,70.8 L 646.2,70.4 L 651.2,69.8 L 656.1,69.6 L 661.1,69.0 L 666.0,68.8 L 671.0,68.6 L 675.9,67.8 L 680.9,67.2 L 685.8,67.0 L 690.8,67.0 L 695.7,65.3 L 700.7,64.7 L 705.6,64.5 L 710.6,64.5 L 715.5,63.5 L 720.5,63.5 L 725.4,62.9 L 730.4,62.3 L 735.3,60.9 L 740.3,60.7 L 745.2,60.5 L 750.2,60.3 L 755.1,60.3 L 760.1,60.1 L 765.0,59.2 L 770.0,58.6 L 770.0,340 Z" fill="url(#g2)" clip-path="url(#ca)"/>
<path d="M 72.0,120.1 L 77.0,120.1 L 81.9,120.1 L 86.9,119.5 L 91.8,119.5 L 96.8,119.1 L 101.7,118.9 L 106.7,119.1 L 111.6,118.6 L 116.6,118.6 L 121.5,118.6 L 126.5,118.6 L 131.4,118.6 L 136.4,118.6 L 141.3,118.6 L 146.3,118.6 L 151.2,118.4 L 156.2,117.8 L 161.1,116.6 L 166.1,116.0 L 171.0,115.8 L 176.0,115.8 L 180.9,115.2 L 185.9,113.8 L 190.8,113.0 L 195.8,113.0 L 200.7,112.1 L 205.7,111.7 L 210.6,110.9 L 215.6,110.3 L 220.5,109.7 L 225.5,109.1 L 230.4,109.1 L 235.4,107.7 L 240.3,106.9 L 245.3,106.9 L 250.2,106.2 L 255.2,105.8 L 260.1,105.6 L 265.1,105.4 L 270.0,105.4 L 275.0,104.8 L 279.9,102.4 L 284.9,101.0 L 289.8,100.3 L 294.8,100.1 L 299.7,99.7 L 304.7,98.9 L 309.6,98.5 L 314.6,98.1 L 319.5,97.7 L 324.5,97.3 L 329.4,96.9 L 334.4,96.9 L 339.3,95.0 L 344.3,95.0 L 349.2,94.8 L 354.2,94.6 L 359.1,94.2 L 364.1,94.2 L 369.0,93.2 L 374.0,92.0 L 378.9,91.6 L 383.9,92.0 L 388.8,91.8 L 393.8,91.6 L 398.7,91.6 L 403.7,91.2 L 408.6,90.4 L 413.6,90.0 L 418.5,89.6 L 423.5,89.4 L 428.4,89.4 L 433.4,88.7 L 438.3,88.3 L 443.3,88.3 L 448.2,86.7 L 453.2,86.7 L 458.1,86.7 L 463.1,86.7 L 468.0,86.5 L 473.0,85.9 L 477.9,85.1 L 482.9,84.7 L 487.8,84.7 L 492.8,84.3 L 497.7,82.8 L 502.7,81.8 L 507.6,81.6 L 512.6,81.4 L 517.5,80.8 L 522.5,79.6 L 527.4,79.2 L 532.4,78.8 L 537.3,77.6 L 542.3,77.4 L 547.2,77.4 L 552.2,77.4 L 557.1,77.3 L 562.1,76.1 L 567.0,75.9 L 572.0,75.7 L 576.9,75.7 L 581.9,75.3 L 586.8,73.7 L 591.8,73.5 L 596.7,73.3 L 601.7,73.3 L 606.6,72.5 L 611.6,72.3 L 616.5,72.1 L 621.5,71.6 L 626.4,70.8 L 631.4,70.8 L 636.3,70.8 L 641.3,70.8 L 646.2,70.4 L 651.2,69.8 L 656.1,69.6 L 661.1,69.0 L 666.0,68.8 L 671.0,68.6 L 675.9,67.8 L 680.9,67.2 L 685.8,67.0 L 690.8,67.0 L 695.7,65.3 L 700.7,64.7 L 705.6,64.5 L 710.6,64.5 L 715.5,63.5 L 720.5,63.5 L 725.4,62.9 L 730.4,62.3 L 735.3,60.9 L 740.3,60.7 L 745.2,60.5 L 750.2,60.3 L 755.1,60.3 L 760.1,60.1 L 765.0,59.2 L 770.0,58.6" fill="none" stroke="#4F8EF7" stroke-width="2.5" stroke-linejoin="round" clip-path="url(#ca)"/>
<path d="M 72.0,340 L 72.0,244.2 L 77.0,243.6 L 81.9,243.6 L 86.9,243.6 L 91.8,243.4 L 96.8,243.0 L 101.7,242.8 L 106.7,242.6 L 111.6,242.6 L 116.6,242.5 L 121.5,242.3 L 126.5,242.3 L 131.4,242.3 L 136.4,242.3 L 141.3,242.3 L 146.3,242.3 L 151.2,241.9 L 156.2,241.9 L 161.1,241.9 L 166.1,241.1 L 171.0,240.9 L 176.0,240.5 L 180.9,239.7 L 185.9,239.5 L 190.8,239.5 L 195.8,239.5 L 200.7,238.9 L 205.7,238.5 L 210.6,238.5 L 215.6,238.1 L 220.5,237.9 L 225.5,237.5 L 230.4,237.5 L 235.4,237.3 L 240.3,236.6 L 245.3,236.0 L 250.2,235.6 L 255.2,235.4 L 260.1,235.4 L 265.1,235.2 L 270.0,234.8 L 275.0,234.8 L 279.9,234.6 L 284.9,234.0 L 289.8,233.6 L 294.8,233.6 L 299.7,233.6 L 304.7,233.6 L 309.6,233.4 L 314.6,232.8 L 319.5,232.4 L 324.5,232.2 L 329.4,232.0 L 334.4,231.8 L 339.3,231.6 L 344.3,231.4 L 349.2,231.2 L 354.2,230.7 L 359.1,230.5 L 364.1,230.3 L 369.0,229.5 L 374.0,228.7 L 378.9,228.7 L 383.9,228.5 L 388.8,228.3 L 393.8,228.3 L 398.7,228.3 L 403.7,227.9 L 408.6,227.9 L 413.6,226.7 L 418.5,226.5 L 423.5,226.3 L 428.4,226.3 L 433.4,225.9 L 438.3,225.7 L 443.3,225.7 L 448.2,225.5 L 453.2,225.5 L 458.1,225.5 L 463.1,225.1 L 468.0,224.9 L 473.0,224.0 L 477.9,224.2 L 482.9,224.0 L 487.8,223.8 L 492.8,223.8 L 497.7,223.6 L 502.7,223.0 L 507.6,223.0 L 512.6,223.0 L 517.5,223.0 L 522.5,222.6 L 527.4,222.6 L 532.4,222.2 L 537.3,221.8 L 542.3,221.0 L 547.2,221.0 L 552.2,220.6 L 557.1,220.4 L 562.1,220.2 L 567.0,220.0 L 572.0,219.6 L 576.9,219.6 L 581.9,219.1 L 586.8,219.1 L 591.8,218.9 L 596.7,218.5 L 601.7,218.3 L 606.6,218.3 L 611.6,218.3 L 616.5,218.3 L 621.5,218.3 L 626.4,217.7 L 631.4,217.7 L 636.3,217.3 L 641.3,216.9 L 646.2,216.3 L 651.2,216.1 L 656.1,216.1 L 661.1,214.9 L 666.0,214.7 L 671.0,214.7 L 675.9,213.9 L 680.9,213.9 L 685.8,213.5 L 690.8,213.5 L 695.7,213.3 L 700.7,213.3 L 705.6,213.2 L 710.6,212.8 L 715.5,212.8 L 720.5,212.6 L 725.4,212.4 L 730.4,212.2 L 735.3,212.0 L 740.3,212.0 L 745.2,211.6 L 750.2,211.6 L 755.1,211.6 L 760.1,210.6 L 765.0,210.6 L 770.0,210.6 L 770.0,340 Z" fill="url(#g3)" clip-path="url(#ca)"/>
<path d="M 72.0,244.2 L 77.0,243.6 L 81.9,243.6 L 86.9,243.6 L 91.8,243.4 L 96.8,243.0 L 101.7,242.8 L 106.7,242.6 L 111.6,242.6 L 116.6,242.5 L 121.5,242.3 L 126.5,242.3 L 131.4,242.3 L 136.4,242.3 L 141.3,242.3 L 146.3,242.3 L 151.2,241.9 L 156.2,241.9 L 161.1,241.9 L 166.1,241.1 L 171.0,240.9 L 176.0,240.5 L 180.9,239.7 L 185.9,239.5 L 190.8,239.5 L 195.8,239.5 L 200.7,238.9 L 205.7,238.5 L 210.6,238.5 L 215.6,238.1 L 220.5,237.9 L 225.5,237.5 L 230.4,237.5 L 235.4,237.3 L 240.3,236.6 L 245.3,236.0 L 250.2,235.6 L 255.2,235.4 L 260.1,235.4 L 265.1,235.2 L 270.0,234.8 L 275.0,234.8 L 279.9,234.6 L 284.9,234.0 L 289.8,233.6 L 294.8,233.6 L 299.7,233.6 L 304.7,233.6 L 309.6,233.4 L 314.6,232.8 L 319.5,232.4 L 324.5,232.2 L 329.4,232.0 L 334.4,231.8 L 339.3,231.6 L 344.3,231.4 L 349.2,231.2 L 354.2,230.7 L 359.1,230.5 L 364.1,230.3 L 369.0,229.5 L 374.0,228.7 L 378.9,228.7 L 383.9,228.5 L 388.8,228.3 L 393.8,228.3 L 398.7,228.3 L 403.7,227.9 L 408.6,227.9 L 413.6,226.7 L 418.5,226.5 L 423.5,226.3 L 428.4,226.3 L 433.4,225.9 L 438.3,225.7 L 443.3,225.7 L 448.2,225.5 L 453.2,225.5 L 458.1,225.5 L 463.1,225.1 L 468.0,224.9 L 473.0,224.0 L 477.9,224.2 L 482.9,224.0 L 487.8,223.8 L 492.8,223.8 L 497.7,223.6 L 502.7,223.0 L 507.6,223.0 L 512.6,223.0 L 517.5,223.0 L 522.5,222.6 L 527.4,222.6 L 532.4,222.2 L 537.3,221.8 L 542.3,221.0 L 547.2,221.0 L 552.2,220.6 L 557.1,220.4 L 562.1,220.2 L 567.0,220.0 L 572.0,219.6 L 576.9,219.6 L 581.9,219.1 L 586.8,219.1 L 591.8,218.9 L 596.7,218.5 L 601.7,218.3 L 606.6,218.3 L 611.6,218.3 L 616.5,218.3 L 621.5,218.3 L 626.4,217.7 L 631.4,217.7 L 636.3,217.3 L 641.3,216.9 L 646.2,216.3 L 651.2,216.1 L 656.1,216.1 L 661.1,214.9 L 666.0,214.7 L 671.0,214.7 L 675.9,213.9 L 680.9,213.9 L 685.8,213.5 L 690.8,213.5 L 695.7,213.3 L 700.7,213.3 L 705.6,213.2 L 710.6,212.8 L 715.5,212.8 L 720.5,212.6 L 725.4,212.4 L 730.4,212.2 L 735.3,212.0 L 740.3,212.0 L 745.2,211.6 L 750.2,211.6 L 755.1,211.6 L 760.1,210.6 L 765.0,210.6 L 770.0,210.6" fill="none" stroke="#BF5AF2" stroke-width="2.5" stroke-linejoin="round" clip-path="url(#ca)"/>
<path d="M 72.0,340 L 72.0,291.4 L 77.0,290.8 L 81.9,290.8 L 86.9,290.8 L 91.8,290.6 L 96.8,290.2 L 101.7,290.0 L 106.7,289.7 L 111.6,289.7 L 116.6,289.5 L 121.5,289.3 L 126.5,289.3 L 131.4,289.3 L 136.4,289.3 L 141.3,289.3 L 146.3,289.3 L 151.2,288.9 L 156.2,288.9 L 161.1,289.1 L 166.1,288.5 L 171.0,288.7 L 176.0,288.1 L 180.9,287.5 L 185.9,287.3 L 190.8,287.5 L 195.8,287.5 L 200.7,286.9 L 205.7,286.7 L 210.6,286.7 L 215.6,286.3 L 220.5,286.1 L 225.5,285.7 L 230.4,285.7 L 235.4,285.5 L 240.3,284.9 L 245.3,284.3 L 250.2,283.9 L 255.2,283.9 L 260.1,283.9 L 265.1,283.8 L 270.0,283.4 L 275.0,283.4 L 279.9,283.2 L 284.9,282.6 L 289.8,282.4 L 294.8,282.4 L 299.7,282.4 L 304.7,282.4 L 309.6,282.2 L 314.6,281.6 L 319.5,281.4 L 324.5,281.2 L 329.4,281.0 L 334.4,281.0 L 339.3,280.8 L 344.3,280.8 L 349.2,280.8 L 354.2,280.2 L 359.1,280.2 L 364.1,280.2 L 369.0,279.8 L 374.0,279.2 L 378.9,279.2 L 383.9,279.0 L 388.8,278.8 L 393.8,278.8 L 398.7,278.8 L 403.7,278.4 L 408.6,278.4 L 413.6,277.3 L 418.5,277.1 L 423.5,276.9 L 428.4,276.9 L 433.4,276.7 L 438.3,276.7 L 443.3,276.7 L 448.2,276.7 L 453.2,276.7 L 458.1,276.7 L 463.1,276.3 L 468.0,276.1 L 473.0,275.1 L 477.9,275.3 L 482.9,275.3 L 487.8,275.1 L 492.8,275.1 L 497.7,275.1 L 502.7,274.7 L 507.6,274.7 L 512.6,274.7 L 517.5,274.7 L 522.5,274.7 L 527.4,274.7 L 532.4,274.5 L 537.3,274.5 L 542.3,273.7 L 547.2,273.7 L 552.2,273.5 L 557.1,273.3 L 562.1,273.1 L 567.0,272.9 L 572.0,272.5 L 576.9,272.5 L 581.9,272.0 L 586.8,272.0 L 591.8,271.8 L 596.7,271.6 L 601.7,271.6 L 606.6,271.6 L 611.6,271.6 L 616.5,271.6 L 621.5,271.6 L 626.4,271.0 L 631.4,271.0 L 636.3,270.6 L 641.3,270.2 L 646.2,269.6 L 651.2,269.4 L 656.1,269.4 L 661.1,268.4 L 666.0,268.2 L 671.0,268.2 L 675.9,267.6 L 680.9,267.6 L 685.8,267.4 L 690.8,267.4 L 695.7,267.6 L 700.7,267.8 L 705.6,267.6 L 710.6,267.2 L 715.5,267.4 L 720.5,267.2 L 725.4,267.0 L 730.4,267.0 L 735.3,267.0 L 740.3,267.0 L 745.2,266.6 L 750.2,266.6 L 755.1,266.6 L 760.1,265.9 L 765.0,265.9 L 770.0,265.9 L 770.0,340 Z" fill="url(#g4)" clip-path="url(#ca)"/>
<path d="M 72.0,291.4 L 77.0,290.8 L 81.9,290.8 L 86.9,290.8 L 91.8,290.6 L 96.8,290.2 L 101.7,290.0 L 106.7,289.7 L 111.6,289.7 L 116.6,289.5 L 121.5,289.3 L 126.5,289.3 L 131.4,289.3 L 136.4,289.3 L 141.3,289.3 L 146.3,289.3 L 151.2,288.9 L 156.2,288.9 L 161.1,289.1 L 166.1,288.5 L 171.0,288.7 L 176.0,288.1 L 180.9,287.5 L 185.9,287.3 L 190.8,287.5 L 195.8,287.5 L 200.7,286.9 L 205.7,286.7 L 210.6,286.7 L 215.6,286.3 L 220.5,286.1 L 225.5,285.7 L 230.4,285.7 L 235.4,285.5 L 240.3,284.9 L 245.3,284.3 L 250.2,283.9 L 255.2,283.9 L 260.1,283.9 L 265.1,283.8 L 270.0,283.4 L 275.0,283.4 L 279.9,283.2 L 284.9,282.6 L 289.8,282.4 L 294.8,282.4 L 299.7,282.4 L 304.7,282.4 L 309.6,282.2 L 314.6,281.6 L 319.5,281.4 L 324.5,281.2 L 329.4,281.0 L 334.4,281.0 L 339.3,280.8 L 344.3,280.8 L 349.2,280.8 L 354.2,280.2 L 359.1,280.2 L 364.1,280.2 L 369.0,279.8 L 374.0,279.2 L 378.9,279.2 L 383.9,279.0 L 388.8,278.8 L 393.8,278.8 L 398.7,278.8 L 403.7,278.4 L 408.6,278.4 L 413.6,277.3 L 418.5,277.1 L 423.5,276.9 L 428.4,276.9 L 433.4,276.7 L 438.3,276.7 L 443.3,276.7 L 448.2,276.7 L 453.2,276.7 L 458.1,276.7 L 463.1,276.3 L 468.0,276.1 L 473.0,275.1 L 477.9,275.3 L 482.9,275.3 L 487.8,275.1 L 492.8,275.1 L 497.7,275.1 L 502.7,274.7 L 507.6,274.7 L 512.6,274.7 L 517.5,274.7 L 522.5,274.7 L 527.4,274.7 L 532.4,274.5 L 537.3,274.5 L 542.3,273.7 L 547.2,273.7 L 552.2,273.5 L 557.1,273.3 L 562.1,273.1 L 567.0,272.9 L 572.0,272.5 L 576.9,272.5 L 581.9,272.0 L 586.8,272.0 L 591.8,271.8 L 596.7,271.6 L 601.7,271.6 L 606.6,271.6 L 611.6,271.6 L 616.5,271.6 L 621.5,271.6 L 626.4,271.0 L 631.4,271.0 L 636.3,270.6 L 641.3,270.2 L 646.2,269.6 L 651.2,269.4 L 656.1,269.4 L 661.1,268.4 L 666.0,268.2 L 671.0,268.2 L 675.9,267.6 L 680.9,267.6 L 685.8,267.4 L 690.8,267.4 L 695.7,267.6 L 700.7,267.8 L 705.6,267.6 L 710.6,267.2 L 715.5,267.4 L 720.5,267.2 L 725.4,267.0 L 730.4,267.0 L 735.3,267.0 L 740.3,267.0 L 745.2,266.6 L 750.2,266.6 L 755.1,266.6 L 760.1,265.9 L 765.0,265.9 L 770.0,265.9" fill="none" stroke="#34C759" stroke-width="2.5" stroke-linejoin="round" clip-path="url(#ca)"/>
<text x="99.2" y="55.0" text-anchor="middle" font-size="9" fill="#4F8EF7" opacity="0.85" clip-path="url(#ca)">+0.5% (+8)</text>
<text x="99.2" y="66.0" text-anchor="middle" font-size="9" fill="#BF5AF2" opacity="0.85" clip-path="url(#ca)">+1.0% (+10)</text>
<text x="99.2" y="77.0" text-anchor="middle" font-size="9" fill="#34C759" opacity="0.85" clip-path="url(#ca)">+1.5% (+11)</text>
<text x="193.3" y="55.0" text-anchor="middle" font-size="9" fill="#4F8EF7" opacity="0.85" clip-path="url(#ca)">+4.0% (+65)</text>
<text x="193.3" y="66.0" text-anchor="middle" font-size="9" fill="#BF5AF2" opacity="0.85" clip-path="url(#ca)">+3.5% (+35)</text>
<text x="193.3" y="77.0" text-anchor="middle" font-size="9" fill="#34C759" opacity="0.85" clip-path="url(#ca)">+3.6% (+27)</text>
<text x="324.5" y="55.0" text-anchor="middle" font-size="9" fill="#4F8EF7" opacity="0.85" clip-path="url(#ca)">+4.1% (+70)</text>
<text x="324.5" y="66.0" text-anchor="middle" font-size="9" fill="#BF5AF2" opacity="0.85" clip-path="url(#ca)">+3.5% (+36)</text>
<text x="324.5" y="77.0" text-anchor="middle" font-size="9" fill="#34C759" opacity="0.85" clip-path="url(#ca)">+3.3% (+26)</text>
<text x="458.1" y="55.0" text-anchor="middle" font-size="9" fill="#4F8EF7" opacity="0.85" clip-path="url(#ca)">+3.5% (+61)</text>
<text x="458.1" y="66.0" text-anchor="middle" font-size="9" fill="#BF5AF2" opacity="0.85" clip-path="url(#ca)">+2.7% (+29)</text>
<text x="458.1" y="77.0" text-anchor="middle" font-size="9" fill="#34C759" opacity="0.85" clip-path="url(#ca)">+2.6% (+21)</text>
<text x="591.8" y="55.0" text-anchor="middle" font-size="9" fill="#4F8EF7" opacity="0.85" clip-path="url(#ca)">+2.7% (+49)</text>
<text x="591.8" y="66.0" text-anchor="middle" font-size="9" fill="#BF5AF2" opacity="0.85" clip-path="url(#ca)">+3.0% (+33)</text>
<text x="591.8" y="77.0" text-anchor="middle" font-size="9" fill="#34C759" opacity="0.85" clip-path="url(#ca)">+3.2% (+27)</text>
<text x="715.5" y="55.0" text-anchor="middle" font-size="9" fill="#4F8EF7" opacity="0.85" clip-path="url(#ca)">+2.8% (+53)</text>
<text x="715.5" y="66.0" text-anchor="middle" font-size="9" fill="#BF5AF2" opacity="0.85" clip-path="url(#ca)">+1.9% (+22)</text>
<text x="715.5" y="77.0" text-anchor="middle" font-size="9" fill="#34C759" opacity="0.85" clip-path="url(#ca)">+1.5% (+13)</text>
<rect x="211" y="369" width="12" height="12" fill="#4F8EF7" rx="2"/>
<text x="227" y="379" font-size="12" fill="#111827">Authors</text>
<rect x="351" y="369" width="12" height="12" fill="#BF5AF2" rx="2"/>
<text x="367" y="379" font-size="12" fill="#111827">Contributors</text>
<rect x="491" y="369" width="12" height="12" fill="#34C759" rx="2"/>
<text x="507" y="379" font-size="12" fill="#111827">Non-author contributors</text>
<text x="72" y="394" font-size="8" fill="#e5e7eb">data since Dec 11, 2025</text>
</svg>