<svg xmlns="http://www.w3.org/2000/svg" width="800" height="400" viewBox="0 0 800 400">
<defs>
  <style>text { font-family: -apple-system, BlinkMacSystemFont, 'Segoe UI', Roboto, sans-serif; }</style>
  <linearGradient id="g5" x1="0" y1="0" x2="0" y2="1">
  <stop offset="0%" stop-color="#34C759" stop-opacity="0.25"/>
  <stop offset="100%" stop-color="#34C759" stop-opacity="0"/>
</linearGradient>
<linearGradient id="g6" x1="0" y1="0" x2="0" y2="1">
  <stop offset="0%" stop-color="#4F8EF7" stop-opacity="0.25"/>
  <stop offset="100%" stop-color="#4F8EF7" stop-opacity="0"/>
</linearGradient>
<linearGradient id="g7" x1="0" y1="0" x2="0" y2="1">
  <stop offset="0%" stop-color="#FF6363" stop-opacity="0.25"/>
  <stop offset="100%" stop-color="#FF6363" stop-opacity="0"/>
</linearGradient>
  <clipPath id="ca"><rect x="72" y="45" width="698" height="295"/></clipPath>
</defs>
<rect width="800" height="400" fill="#ffffff" rx="12"/>
<text x="400" y="26" text-anchor="middle" font-size="15" font-weight="600" fill="#111827">Platform Support Over Time</text>
<line x1="72" y1="340.0" x2="770" y2="340.0" stroke="#f3f4f6" stroke-width="1"/>
<text x="66" y="344.0" text-anchor="end" font-size="11" fill="#6b7280">0</text>
<line x1="72" y1="266.3" x2="770" y2="266.3" stroke="#f3f4f6" stroke-width="1"/>
<text x="66" y="270.3" text-anchor="end" font-size="11" fill="#6b7280">200</text>
<line x1="72" y1="192.5" x2="770" y2="192.5" stroke="#f3f4f6" stroke-width="1"/>
<text x="66" y="196.5" text-anchor="end" font-size="11" fill="#6b7280">400</text>
<line x1="72" y1="118.8" x2="770" y2="118.8" stroke="#f3f4f6" stroke-width="1"/>
<text x="66" y="122.8" text-anchor="end" font-size="11" fill="#6b7280">600</text>
<line x1="72" y1="45.0" x2="770" y2="45.0" stroke="#f3f4f6" stroke-width="1"/>
<text x="66" y="49.0" text-anchor="end" font-size="11" fill="#6b7280">800</text>
<line x1="144.2" y1="45" x2="144.2" y2="340" stroke="#e5e7eb" stroke-width="1" stroke-dasharray="3,3" clip-path="url(#ca)"/>
<line x1="300.7" y1="45" x2="300.7" y2="340" stroke="#e5e7eb" stroke-width="1" stroke-dasharray="3,3" clip-path="url(#ca)"/>
<line x1="463.1" y1="45" x2="463.1" y2="340" stroke="#e5e7eb" stroke-width="1" stroke-dasharray="3,3" clip-path="url(#ca)"/>
<line x1="625.6" y1="45" x2="625.6" y2="340" stroke="#e5e7eb" stroke-width="1" stroke-dasharray="3,3" clip-path="url(#ca)"/>
<text x="72.0" y="358.0" text-anchor="middle" font-size="11" fill="#6b7280">Dec 11</text>
<text x="210.4" y="358.0" text-anchor="middle" font-size="11" fill="#6b7280">Jan 16</text>
<text x="348.8" y="358.0" text-anchor="middle" font-size="11" fill="#6b7280">Feb 9</text>
<text x="493.2" y="358.0" text-anchor="middle" font-size="11" fill="#6b7280">Mar 6</text>
<text x="631.6" y="358.0" text-anchor="middle" font-size="11" fill="#6b7280">Apr 2</text>
<text x="770.0" y="358.0" text-anchor="middle" font-size="11" fill="#6b7280">Apr 28</text>
<line x1="72" y1="45" x2="72" y2="340" stroke="#e5e7eb" stroke-width="1"/>
<line x1="72" y1="340" x2="770" y2="340" stroke="#e5e7eb" stroke-width="1"/>
<text x="-192.5" y="18" text-anchor="middle" font-size="12" fill="#6b7280" transform="rotate(-90)">Extensions</text>
<path d="M 72.0,340 L 72.0,218.3 L 78.0,215.0 L 84.0,214.6 L 90.1,213.2 L 96.1,212.4 L 102.1,208.7 L 108.1,206.5 L 114.1,205.4 L 120.1,203.6 L 126.2,201.3 L 132.2,200.2 L 138.2,199.9 L 144.2,198.8 L 150.2,198.0 L 156.2,197.7 L 162.3,196.6 L 168.3,195.4 L 174.3,194.3 L 180.3,193.2 L 186.3,191.8 L 192.3,190.7 L 198.4,189.6 L 204.4,188.4 L 210.4,186.2 L 216.4,185.5 L 222.4,185.5 L 228.4,182.9 L 234.5,182.2 L 240.5,181.4 L 246.5,180.7 L 252.5,178.9 L 258.5,176.3 L 264.6,175.9 L 270.6,175.5 L 276.6,173.3 L 282.6,172.6 L 288.6,170.7 L 294.6,170.4 L 300.7,170.0 L 306.7,169.3 L 312.7,169.3 L 318.7,169.3 L 324.7,164.1 L 330.7,163.7 L 336.8,162.6 L 342.8,162.3 L 348.8,161.9 L 354.8,160.8 L 360.8,160.1 L 366.8,159.3 L 372.9,157.1 L 378.9,157.1 L 384.9,157.1 L 390.9,156.7 L 396.9,153.0 L 402.9,151.9 L 409.0,151.2 L 415.0,150.1 L 421.0,149.4 L 427.0,149.4 L 433.0,147.5 L 439.1,144.9 L 445.1,144.2 L 451.1,143.8 L 457.1,142.7 L 463.1,142.7 L 469.1,142.0 L 475.2,140.9 L 481.2,140.1 L 487.2,138.7 L 493.2,137.2 L 499.2,136.8 L 505.2,136.8 L 511.3,135.3 L 517.3,135.3 L 523.3,135.3 L 529.3,133.1 L 535.3,132.8 L 541.3,132.4 L 547.4,132.4 L 553.4,132.0 L 559.4,130.6 L 565.4,129.8 L 571.4,128.7 L 577.4,128.7 L 583.5,128.3 L 589.5,126.9 L 595.5,125.8 L 601.5,125.8 L 607.5,125.4 L 613.6,124.7 L 619.6,122.1 L 625.6,121.3 L 631.6,120.2 L 637.6,120.2 L 643.6,119.5 L 649.7,119.1 L 655.7,118.8 L 661.7,118.4 L 667.7,118.0 L 673.7,118.0 L 679.7,117.6 L 685.8,117.3 L 691.8,116.2 L 697.8,114.7 L 703.8,114.3 L 709.8,113.2 L 715.8,113.2 L 721.9,111.7 L 727.9,111.4 L 733.9,111.4 L 739.9,111.4 L 745.9,110.3 L 751.9,109.9 L 758.0,109.9 L 764.0,109.9 L 770.0,109.5 L 770.0,340 Z" fill="url(#g5)" clip-path="url(#ca)"/>
<path d="M 72.0,218.3 L 78.0,215.0 L 84.0,214.6 L 90.1,213.2 L 96.1,212.4 L 102.1,208.7 L 108.1,206.5 L 114.1,205.4 L 120.1,203.6 L 126.2,201.3 L 132.2,200.2 L 138.2,199.9 L 144.2,198.8 L 150.2,198.0 L 156.2,197.7 L 162.3,196.6 L 168.3,195.4 L 174.3,194.3 L 180.3,193.2 L 186.3,191.8 L 192.3,190.7 L 198.4,189.6 L 204.4,188.4 L 210.4,186.2 L 216.4,185.5 L 222.4,185.5 L 228.4,182.9 L 234.5,182.2 L 240.5,181.4 L 246.5,180.7 L 252.5,178.9 L 258.5,176.3 L 264.6,175.9 L 270.6,175.5 L 276.6,173.3 L 282.6,172.6 L 288.6,170.7 L 294.6,170.4 L 300.7,170.0 L 306.7,169.3 L 312.7,169.3 L 318.7,169.3 L 324.7,164.1 L 330.7,163.7 L 336.8,162.6 L 342.8,162.3 L 348.8,161.9 L 354.8,160.8 L 360.8,160.1 L 366.8,159.3 L 372.9,157.1 L 378.9,157.1 L 384.9,157.1 L 390.9,156.7 L 396.9,153.0 L 402.9,151.9 L 409.0,151.2 L 415.0,150.1 L 421.0,149.4 L 427.0,149.4 L 433.0,147.5 L 439.1,144.9 L 445.1,144.2 L 451.1,143.8 L 457.1,142.7 L 463.1,142.7 L 469.1,142.0 L 475.2,140.9 L 481.2,140.1 L 487.2,138.7 L 493.2,137.2 L 499.2,136.8 L 505.2,136.8 L 511.3,135.3 L 517.3,135.3 L 523.3,135.3 L 529.3,133.1 L 535.3,132.8 L 541.3,132.4 L 547.4,132.4 L 553.4,132.0 L 559.4,130.6 L 565.4,129.8 L 571.4,128.7 L 577.4,128.7 L 583.5,128.3 L 589.5,126.9 L 595.5,125.8 L 601.5,125.8 L 607.5,125.4 L 613.6,124.7 L 619.6,122.1 L 625.6,121.3 L 631.6,120.2 L 637.6,120.2 L 643.6,119.5 L 649.7,119.1 L 655.7,118.8 L 661.7,118.4 L 667.7,118.0 L 673.7,118.0 L 679.7,117.6 L 685.8,117.3 L 691.8,116.2 L 697.8,114.7 L 703.8,114.3 L 709.8,113.2 L 715.8,113.2 L 721.9,111.7 L 727.9,111.4 L 733.9,111.4 L 739.9,111.4 L 745.9,110.3 L 751.9,109.9 L 758.0,109.9 L 764.0,109.9 L 770.0,109.5" fill="none" stroke="#34C759" stroke-width="2.5" stroke-linejoin="round" clip-path="url(#ca)"/>
<path d="M 72.0,340 L 72.0,193.2 L 78.0,193.2 L 84.0,192.9 L 90.1,191.8 L 96.1,192.1 L 102.1,192.1 L 108.1,190.7 L 114.1,189.6 L 120.1,189.6 L 126.2,189.9 L 132.2,189.6 L 138.2,189.2 L 144.2,188.8 L 150.2,188.8 L 156.2,188.8 L 162.3,189.2 L 168.3,188.4 L 174.3,187.7 L 180.3,185.5 L 186.3,184.0 L 192.3,184.0 L 198.4,183.7 L 204.4,181.4 L 210.4,178.1 L 216.4,177.0 L 222.4,176.3 L 228.4,173.7 L 234.5,171.9 L 240.5,171.1 L 246.5,170.4 L 252.5,169.6 L 258.5,169.3 L 264.6,169.3 L 270.6,166.7 L 276.6,166.0 L 282.6,165.2 L 288.6,165.2 L 294.6,163.4 L 300.7,163.0 L 306.7,161.9 L 312.7,160.4 L 318.7,158.6 L 324.7,156.0 L 330.7,153.4 L 336.8,153.0 L 342.8,152.3 L 348.8,151.6 L 354.8,149.4 L 360.8,149.4 L 366.8,148.6 L 372.9,147.5 L 378.9,146.8 L 384.9,145.3 L 390.9,145.7 L 396.9,141.2 L 402.9,140.9 L 409.0,140.5 L 415.0,139.8 L 421.0,137.6 L 427.0,137.6 L 433.0,135.3 L 439.1,132.8 L 445.1,132.8 L 451.1,132.8 L 457.1,132.4 L 463.1,132.0 L 469.1,131.7 L 475.2,129.8 L 481.2,127.6 L 487.2,126.9 L 493.2,125.4 L 499.2,125.4 L 505.2,124.3 L 511.3,122.1 L 517.3,121.0 L 523.3,120.6 L 529.3,118.0 L 535.3,117.6 L 541.3,117.6 L 547.4,117.3 L 553.4,117.3 L 559.4,115.4 L 565.4,114.7 L 571.4,113.6 L 577.4,113.2 L 583.5,112.5 L 589.5,109.5 L 595.5,105.5 L 601.5,105.1 L 607.5,104.4 L 613.6,104.0 L 619.6,102.2 L 625.6,63.1 L 631.6,62.3 L 637.6,60.5 L 643.6,60.5 L 649.7,60.5 L 655.7,60.9 L 661.7,60.5 L 667.7,58.3 L 673.7,57.5 L 679.7,57.2 L 685.8,56.8 L 691.8,55.3 L 697.8,53.1 L 703.8,53.1 L 709.8,53.1 L 715.8,52.7 L 721.9,52.4 L 727.9,52.4 L 733.9,51.6 L 739.9,50.5 L 745.9,48.7 L 751.9,47.9 L 758.0,47.6 L 764.0,47.6 L 770.0,47.2 L 770.0,340 Z" fill="url(#g6)" clip-path="url(#ca)"/>
<path d="M 72.0,193.2 L 78.0,193.2 L 84.0,192.9 L 90.1,191.8 L 96.1,192.1 L 102.1,192.1 L 108.1,190.7 L 114.1,189.6 L 120.1,189.6 L 126.2,189.9 L 132.2,189.6 L 138.2,189.2 L 144.2,188.8 L 150.2,188.8 L 156.2,188.8 L 162.3,189.2 L 168.3,188.4 L 174.3,187.7 L 180.3,185.5 L 186.3,184.0 L 192.3,184.0 L 198.4,183.7 L 204.4,181.4 L 210.4,178.1 L 216.4,177.0 L 222.4,176.3 L 228.4,173.7 L 234.5,171.9 L 240.5,171.1 L 246.5,170.4 L 252.5,169.6 L 258.5,169.3 L 264.6,169.3 L 270.6,166.7 L 276.6,166.0 L 282.6,165.2 L 288.6,165.2 L 294.6,163.4 L 300.7,163.0 L 306.7,161.9 L 312.7,160.4 L 318.7,158.6 L 324.7,156.0 L 330.7,153.4 L 336.8,153.0 L 342.8,152.3 L 348.8,151.6 L 354.8,149.4 L 360.8,149.4 L 366.8,148.6 L 372.9,147.5 L 378.9,146.8 L 384.9,145.3 L 390.9,145.7 L 396.9,141.2 L 402.9,140.9 L 409.0,140.5 L 415.0,139.8 L 421.0,137.6 L 427.0,137.6 L 433.0,135.3 L 439.1,132.8 L 445.1,132.8 L 451.1,132.8 L 457.1,132.4 L 463.1,132.0 L 469.1,131.7 L 475.2,129.8 L 481.2,127.6 L 487.2,126.9 L 493.2,125.4 L 499.2,125.4 L 505.2,124.3 L 511.3,122.1 L 517.3,121.0 L 523.3,120.6 L 529.3,118.0 L 535.3,117.6 L 541.3,117.6 L 547.4,117.3 L 553.4,117.3 L 559.4,115.4 L 565.4,114.7 L 571.4,113.6 L 577.4,113.2 L 583.5,112.5 L 589.5,109.5 L 595.5,105.5 L 601.5,105.1 L 607.5,104.4 L 613.6,104.0 L 619.6,102.2 L 625.6,63.1 L 631.6,62.3 L 637.6,60.5 L 643.6,60.5 L 649.7,60.5 L 655.7,60.9 L 661.7,60.5 L 667.7,58.3 L 673.7,57.5 L 679.7,57.2 L 685.8,56.8 L 691.8,55.3 L 697.8,53.1 L 703.8,53.1 L 709.8,53.1 L 715.8,52.7 L 721.9,52.4 L 727.9,52.4 L 733.9,51.6 L 739.9,50.5 L 745.9,48.7 L 751.9,47.9 L 758.0,47.6 L 764.0,47.6 L 770.0,47.2" fill="none" stroke="#4F8EF7" stroke-width="2.5" stroke-linejoin="round" clip-path="url(#ca)"/>
<path d="M 72.0,340 L 72.0,337.8 L 78.0,337.4 L 84.0,337.4 L 90.1,337.1 L 96.1,337.1 L 102.1,337.1 L 108.1,337.1 L 114.1,337.1 L 120.1,336.3 L 126.2,336.3 L 132.2,336.3 L 138.2,336.3 L 144.2,336.3 L 150.2,335.9 L 156.2,335.9 L 162.3,335.9 L 168.3,335.9 L 174.3,335.9 L 180.3,335.6 L 186.3,334.8 L 192.3,334.5 L 198.4,334.5 L 204.4,334.5 L 210.4,334.1 L 216.4,334.1 L 222.4,334.1 L 228.4,333.7 L 234.5,333.7 L 240.5,333.7 L 246.5,333.4 L 252.5,333.4 L 258.5,333.4 L 264.6,333.4 L 270.6,333.0 L 276.6,333.0 L 282.6,333.0 L 288.6,333.0 L 294.6,333.0 L 300.7,333.0 L 306.7,333.0 L 312.7,333.0 L 318.7,333.0 L 324.7,333.0 L 330.7,333.0 L 336.8,333.0 L 342.8,333.0 L 348.8,332.6 L 354.8,332.6 L 360.8,332.6 L 366.8,332.6 L 372.9,332.6 L 378.9,332.6 L 384.9,332.6 L 390.9,332.6 L 396.9,332.6 L 402.9,332.6 L 409.0,332.6 L 415.0,332.6 L 421.0,332.3 L 427.0,332.3 L 433.0,332.3 L 439.1,332.3 L 445.1,332.3 L 451.1,332.3 L 457.1,332.3 L 463.1,332.3 L 469.1,332.3 L 475.2,332.3 L 481.2,332.3 L 487.2,332.3 L 493.2,332.3 L 499.2,332.3 L 505.2,332.3 L 511.3,332.3 L 517.3,332.3 L 523.3,332.3 L 529.3,332.3 L 535.3,332.3 L 541.3,332.3 L 547.4,332.3 L 553.4,332.3 L 559.4,332.3 L 565.4,332.3 L 571.4,332.3 L 577.4,332.3 L 583.5,332.3 L 589.5,332.3 L 595.5,332.3 L 601.5,332.3 L 607.5,332.3 L 613.6,332.3 L 619.6,332.3 L 625.6,332.3 L 631.6,332.3 L 637.6,331.9 L 643.6,331.9 L 649.7,331.9 L 655.7,331.9 L 661.7,331.9 L 667.7,331.5 L 673.7,331.5 L 679.7,331.5 L 685.8,331.5 L 691.8,331.1 L 697.8,331.1 L 703.8,330.8 L 709.8,330.8 L 715.8,330.8 L 721.9,330.8 L 727.9,330.8 L 733.9,330.8 L 739.9,330.8 L 745.9,330.8 L 751.9,330.8 L 758.0,330.8 L 764.0,330.8 L 770.0,330.8 L 770.0,340 Z" fill="url(#g7)" clip-path="url(#ca)"/>
<path d="M 72.0,337.8 L 78.0,337.4 L 84.0,337.4 L 90.1,337.1 L 96.1,337.1 L 102.1,337.1 L 108.1,337.1 L 114.1,337.1 L 120.1,336.3 L 126.2,336.3 L 132.2,336.3 L 138.2,336.3 L 144.2,336.3 L 150.2,335.9 L 156.2,335.9 L 162.3,335.9 L 168.3,335.9 L 174.3,335.9 L 180.3,335.6 L 186.3,334.8 L 192.3,334.5 L 198.4,334.5 L 204.4,334.5 L 210.4,334.1 L 216.4,334.1 L 222.4,334.1 L 228.4,333.7 L 234.5,333.7 L 240.5,333.7 L 246.5,333.4 L 252.5,333.4 L 258.5,333.4 L 264.6,333.4 L 270.6,333.0 L 276.6,333.0 L 282.6,333.0 L 288.6,333.0 L 294.6,333.0 L 300.7,333.0 L 306.7,333.0 L 312.7,333.0 L 318.7,333.0 L 324.7,333.0 L 330.7,333.0 L 336.8,333.0 L 342.8,333.0 L 348.8,332.6 L 354.8,332.6 L 360.8,332.6 L 366.8,332.6 L 372.9,332.6 L 378.9,332.6 L 384.9,332.6 L 390.9,332.6 L 396.9,332.6 L 402.9,332.6 L 409.0,332.6 L 415.0,332.6 L 421.0,332.3 L 427.0,332.3 L 433.0,332.3 L 439.1,332.3 L 445.1,332.3 L 451.1,332.3 L 457.1,332.3 L 463.1,332.3 L 469.1,332.3 L 475.2,332.3 L 481.2,332.3 L 487.2,332.3 L 493.2,332.3 L 499.2,332.3 L 505.2,332.3 L 511.3,332.3 L 517.3,332.3 L 523.3,332.3 L 529.3,332.3 L 535.3,332.3 L 541.3,332.3 L 547.4,332.3 L 553.4,332.3 L 559.4,332.3 L 565.4,332.3 L 571.4,332.3 L 577.4,332.3 L 583.5,332.3 L 589.5,332.3 L 595.5,332.3 L 601.5,332.3 L 607.5,332.3 L 613.6,332.3 L 619.6,332.3 L 625.6,332.3 L 631.6,332.3 L 637.6,331.9 L 643.6,331.9 L 649.7,331.9 L 655.7,331.9 L 661.7,331.9 L 667.7,331.5 L 673.7,331.5 L 679.7,331.5 L 685.8,331.5 L 691.8,331.1 L 697.8,331.1 L 703.8,330.8 L 709.8,330.8 L 715.8,330.8 L 721.9,330.8 L 727.9,330.8 L 733.9,330.8 L 739.9,330.8 L 745.9,330.8 L 751.9,330.8 L 758.0,330.8 L 764.0,330.8 L 770.0,330.8" fill="none" stroke="#FF6363" stroke-width="2.5" stroke-linejoin="round" clip-path="url(#ca)"/>
<text x="105.1" y="55.0" text-anchor="middle" font-size="9" fill="#34C759" opacity="0.85" clip-path="url(#ca)">+15.2% (+50)</text>
<text x="105.1" y="66.0" text-anchor="middle" font-size="9" fill="#4F8EF7" opacity="0.85" clip-path="url(#ca)">+2.8% (+11)</text>
<text x="105.1" y="77.0" text-anchor="middle" font-size="9" fill="#FF6363" opacity="0.85" clip-path="url(#ca)">+66.7% (+4)</text>
<text x="219.4" y="55.0" text-anchor="middle" font-size="9" fill="#34C759" opacity="0.85" clip-path="url(#ca)">+20.1% (+77)</text>
<text x="219.4" y="66.0" text-anchor="middle" font-size="9" fill="#4F8EF7" opacity="0.85" clip-path="url(#ca)">+16.8% (+69)</text>
<text x="219.4" y="77.0" text-anchor="middle" font-size="9" fill="#FF6363" opacity="0.85" clip-path="url(#ca)">+90.0% (+9)</text>
<text x="378.9" y="55.0" text-anchor="middle" font-size="9" fill="#34C759" opacity="0.85" clip-path="url(#ca)">+16.1% (+74)</text>
<text x="378.9" y="66.0" text-anchor="middle" font-size="9" fill="#4F8EF7" opacity="0.85" clip-path="url(#ca)">+17.3% (+83)</text>
<text x="378.9" y="77.0" text-anchor="middle" font-size="9" fill="#FF6363" opacity="0.85" clip-path="url(#ca)">+10.5% (+2)</text>
<text x="541.3" y="55.0" text-anchor="middle" font-size="9" fill="#34C759" opacity="0.85" clip-path="url(#ca)">+10.5% (+56)</text>
<text x="541.3" y="66.0" text-anchor="middle" font-size="9" fill="#4F8EF7" opacity="0.85" clip-path="url(#ca)">+14.4% (+81)</text>
<text x="541.3" y="77.0" text-anchor="middle" font-size="9" fill="#FF6363" opacity="0.85" clip-path="url(#ca)">+0.0% (+0)</text>
<text x="697.8" y="55.0" text-anchor="middle" font-size="9" fill="#34C759" opacity="0.85" clip-path="url(#ca)">+5.4% (+32)</text>
<text x="697.8" y="66.0" text-anchor="middle" font-size="9" fill="#4F8EF7" opacity="0.85" clip-path="url(#ca)">+5.7% (+43)</text>
<text x="697.8" y="77.0" text-anchor="middle" font-size="9" fill="#FF6363" opacity="0.85" clip-path="url(#ca)">+19.0% (+4)</text>
<rect x="211" y="369" width="12" height="12" fill="#34C759" rx="2"/>
<text x="227" y="379" font-size="12" fill="#111827">macOS + Windows</text>
<rect x="351" y="369" width="12" height="12" fill="#4F8EF7" rx="2"/>
<text x="367" y="379" font-size="12" fill="#111827">macOS only</text>
<rect x="491" y="369" width="12" height="12" fill="#FF6363" rx="2"/>
<text x="507" y="379" font-size="12" fill="#111827">Windows only</text>
<text x="72" y="394" font-size="8" fill="#e5e7eb">data since Dec 11, 2025</text>
</svg>