<svg xmlns="http://www.w3.org/2000/svg" width="800" height="400" viewBox="0 0 800 400">
<defs>
  <style>text { font-family: -apple-system, BlinkMacSystemFont, 'Segoe UI', Roboto, sans-serif; }</style>
  <linearGradient id="g2" x1="0" y1="0" x2="0" y2="1">
  <stop offset="0%" stop-color="#4F8EF7" stop-opacity="0.25"/>
  <stop offset="100%" stop-color="#4F8EF7" stop-opacity="0"/>
</linearGradient>
<linearGradient id="g3" x1="0" y1="0" x2="0" y2="1">
  <stop offset="0%" stop-color="#BF5AF2" stop-opacity="0.25"/>
  <stop offset="100%" stop-color="#BF5AF2" stop-opacity="0"/>
</linearGradient>
<linearGradient id="g4" x1="0" y1="0" x2="0" y2="1">
  <stop offset="0%" stop-color="#34C759" stop-opacity="0.25"/>
  <stop offset="100%" stop-color="#34C759" stop-opacity="0"/>
</linearGradient>
  <clipPath id="ca"><rect x="72" y="45" width="698" height="295"/></clipPath>
</defs>
<rect width="800" height="400" fill="#ffffff" rx="12"/>
<text x="400" y="26" text-anchor="middle" font-size="15" font-weight="600" fill="#111827">Community Growth Over Time</text>
<line x1="72" y1="340.0" x2="770" y2="340.0" stroke="#f3f4f6" stroke-width="1"/>
<text x="66" y="344.0" text-anchor="end" font-size="11" fill="#6b7280">500</text>
<line x1="72" y1="241.7" x2="770" y2="241.7" stroke="#f3f4f6" stroke-width="1"/>
<text x="66" y="245.7" text-anchor="end" font-size="11" fill="#6b7280">1.0k</text>
<line x1="72" y1="143.3" x2="770" y2="143.3" stroke="#f3f4f6" stroke-width="1"/>
<text x="66" y="147.3" text-anchor="end" font-size="11" fill="#6b7280">1.5k</text>
<line x1="72" y1="45.0" x2="770" y2="45.0" stroke="#f3f4f6" stroke-width="1"/>
<text x="66" y="49.0" text-anchor="end" font-size="11" fill="#6b7280">2.0k</text>
<line x1="120.4" y1="45" x2="120.4" y2="340" stroke="#e5e7eb" stroke-width="1" stroke-dasharray="3,3" clip-path="url(#ca)"/>
<line x1="225.3" y1="45" x2="225.3" y2="340" stroke="#e5e7eb" stroke-width="1" stroke-dasharray="3,3" clip-path="url(#ca)"/>
<line x1="334.3" y1="45" x2="334.3" y2="340" stroke="#e5e7eb" stroke-width="1" stroke-dasharray="3,3" clip-path="url(#ca)"/>
<line x1="443.2" y1="45" x2="443.2" y2="340" stroke="#e5e7eb" stroke-width="1" stroke-dasharray="3,3" clip-path="url(#ca)"/>
<line x1="552.1" y1="45" x2="552.1" y2="340" stroke="#e5e7eb" stroke-width="1" stroke-dasharray="3,3" clip-path="url(#ca)"/>
<line x1="657.0" y1="45" x2="657.0" y2="340" stroke="#e5e7eb" stroke-width="1" stroke-dasharray="3,3" clip-path="url(#ca)"/>
<line x1="753.9" y1="45" x2="753.9" y2="340" stroke="#e5e7eb" stroke-width="1" stroke-dasharray="3,3" clip-path="url(#ca)"/>
<text x="72.0" y="358.0" text-anchor="middle" font-size="11" fill="#6b7280">Dec 11</text>
<text x="213.2" y="358.0" text-anchor="middle" font-size="11" fill="#6b7280">Jan 29</text>
<text x="350.4" y="358.0" text-anchor="middle" font-size="11" fill="#6b7280">Mar 5</text>
<text x="491.6" y="358.0" text-anchor="middle" font-size="11" fill="#6b7280">Apr 14</text>
<text x="628.8" y="358.0" text-anchor="middle" font-size="11" fill="#6b7280">May 25</text>
<text x="770.0" y="358.0" text-anchor="middle" font-size="11" fill="#6b7280">Jul 5</text>
<line x1="72" y1="45" x2="72" y2="340" stroke="#e5e7eb" stroke-width="1"/>
<line x1="72" y1="340" x2="770" y2="340" stroke="#e5e7eb" stroke-width="1"/>
<text x="-192.5" y="18" text-anchor="middle" font-size="12" fill="#6b7280" transform="rotate(-90)">People</text>
<path d="M 72.0,340 L 72.0,120.1 L 76.0,120.1 L 80.1,120.1 L 84.1,119.5 L 88.1,119.5 L 92.2,119.1 L 96.2,118.9 L 100.2,119.1 L 104.3,118.6 L 108.3,118.6 L 112.3,118.6 L 116.4,118.6 L 120.4,118.6 L 124.5,118.6 L 128.5,118.6 L 132.5,118.6 L 136.6,118.4 L 140.6,117.8 L 144.6,116.6 L 148.7,116.0 L 152.7,115.8 L 156.7,115.8 L 160.8,115.2 L 164.8,113.8 L 168.8,113.0 L 172.9,113.0 L 176.9,112.1 L 180.9,111.7 L 185.0,110.9 L 189.0,110.3 L 193.0,109.7 L 197.1,109.1 L 201.1,109.1 L 205.1,107.7 L 209.2,106.9 L 213.2,106.9 L 217.2,106.2 L 221.3,105.8 L 225.3,105.6 L 229.4,105.4 L 233.4,105.4 L 237.4,104.8 L 241.5,102.4 L 245.5,101.0 L 249.5,100.3 L 253.6,100.1 L 257.6,99.7 L 261.6,98.9 L 265.7,98.5 L 269.7,98.1 L 273.7,97.7 L 277.8,97.3 L 281.8,96.9 L 285.8,96.9 L 289.9,95.0 L 293.9,95.0 L 297.9,94.8 L 302.0,94.6 L 306.0,94.2 L 310.0,94.2 L 314.1,93.2 L 318.1,92.0 L 322.2,91.6 L 326.2,92.0 L 330.2,91.8 L 334.3,91.6 L 338.3,91.6 L 342.3,91.2 L 346.4,90.4 L 350.4,90.0 L 354.4,89.6 L 358.5,89.4 L 362.5,89.4 L 366.5,88.7 L 370.6,88.3 L 374.6,88.3 L 378.6,86.7 L 382.7,86.7 L 386.7,86.7 L 390.7,86.7 L 394.8,86.5 L 398.8,85.9 L 402.8,85.1 L 406.9,84.7 L 410.9,84.7 L 414.9,84.3 L 419.0,82.8 L 423.0,81.8 L 427.1,81.6 L 431.1,81.4 L 435.1,80.8 L 439.2,79.6 L 443.2,79.2 L 447.2,78.8 L 451.3,77.6 L 455.3,77.4 L 459.3,77.4 L 463.4,77.4 L 467.4,77.3 L 471.4,76.1 L 475.5,75.9 L 479.5,75.7 L 483.5,75.7 L 487.6,75.3 L 491.6,73.7 L 495.6,73.5 L 499.7,73.3 L 503.7,73.3 L 507.7,72.5 L 511.8,72.3 L 515.8,72.1 L 519.8,71.6 L 523.9,70.8 L 527.9,70.8 L 532.0,70.8 L 536.0,70.8 L 540.0,70.4 L 544.1,69.8 L 548.1,69.6 L 552.1,69.0 L 556.2,68.8 L 560.2,68.6 L 564.2,67.8 L 568.3,67.2 L 572.3,67.0 L 576.3,67.0 L 580.4,65.3 L 584.4,64.7 L 588.4,64.5 L 592.5,64.5 L 596.5,63.5 L 600.5,63.5 L 604.6,62.9 L 608.6,62.3 L 612.6,60.9 L 616.7,60.7 L 620.7,60.5 L 624.8,60.3 L 628.8,60.3 L 632.8,60.1 L 636.9,59.2 L 640.9,58.6 L 644.9,58.6 L 649.0,58.4 L 653.0,58.4 L 657.0,57.8 L 661.1,57.6 L 665.1,57.4 L 669.1,56.8 L 673.2,56.0 L 677.2,56.0 L 681.2,55.8 L 685.3,55.6 L 689.3,54.6 L 693.3,53.3 L 697.4,53.1 L 701.4,52.7 L 705.4,52.3 L 709.5,52.1 L 713.5,51.5 L 717.5,50.7 L 721.6,50.5 L 725.6,49.9 L 729.7,49.5 L 733.7,48.5 L 737.7,48.3 L 741.8,47.9 L 745.8,47.9 L 749.8,47.6 L 753.9,47.2 L 757.9,46.8 L 761.9,46.6 L 766.0,46.2 L 770.0,46.2 L 770.0,340 Z" fill="url(#g2)" clip-path="url(#ca)"/>
<path d="M 72.0,120.1 L 76.0,120.1 L 80.1,120.1 L 84.1,119.5 L 88.1,119.5 L 92.2,119.1 L 96.2,118.9 L 100.2,119.1 L 104.3,118.6 L 108.3,118.6 L 112.3,118.6 L 116.4,118.6 L 120.4,118.6 L 124.5,118.6 L 128.5,118.6 L 132.5,118.6 L 136.6,118.4 L 140.6,117.8 L 144.6,116.6 L 148.7,116.0 L 152.7,115.8 L 156.7,115.8 L 160.8,115.2 L 164.8,113.8 L 168.8,113.0 L 172.9,113.0 L 176.9,112.1 L 180.9,111.7 L 185.0,110.9 L 189.0,110.3 L 193.0,109.7 L 197.1,109.1 L 201.1,109.1 L 205.1,107.7 L 209.2,106.9 L 213.2,106.9 L 217.2,106.2 L 221.3,105.8 L 225.3,105.6 L 229.4,105.4 L 233.4,105.4 L 237.4,104.8 L 241.5,102.4 L 245.5,101.0 L 249.5,100.3 L 253.6,100.1 L 257.6,99.7 L 261.6,98.9 L 265.7,98.5 L 269.7,98.1 L 273.7,97.7 L 277.8,97.3 L 281.8,96.9 L 285.8,96.9 L 289.9,95.0 L 293.9,95.0 L 297.9,94.8 L 302.0,94.6 L 306.0,94.2 L 310.0,94.2 L 314.1,93.2 L 318.1,92.0 L 322.2,91.6 L 326.2,92.0 L 330.2,91.8 L 334.3,91.6 L 338.3,91.6 L 342.3,91.2 L 346.4,90.4 L 350.4,90.0 L 354.4,89.6 L 358.5,89.4 L 362.5,89.4 L 366.5,88.7 L 370.6,88.3 L 374.6,88.3 L 378.6,86.7 L 382.7,86.7 L 386.7,86.7 L 390.7,86.7 L 394.8,86.5 L 398.8,85.9 L 402.8,85.1 L 406.9,84.7 L 410.9,84.7 L 414.9,84.3 L 419.0,82.8 L 423.0,81.8 L 427.1,81.6 L 431.1,81.4 L 435.1,80.8 L 439.2,79.6 L 443.2,79.2 L 447.2,78.8 L 451.3,77.6 L 455.3,77.4 L 459.3,77.4 L 463.4,77.4 L 467.4,77.3 L 471.4,76.1 L 475.5,75.9 L 479.5,75.7 L 483.5,75.7 L 487.6,75.3 L 491.6,73.7 L 495.6,73.5 L 499.7,73.3 L 503.7,73.3 L 507.7,72.5 L 511.8,72.3 L 515.8,72.1 L 519.8,71.6 L 523.9,70.8 L 527.9,70.8 L 532.0,70.8 L 536.0,70.8 L 540.0,70.4 L 544.1,69.8 L 548.1,69.6 L 552.1,69.0 L 556.2,68.8 L 560.2,68.6 L 564.2,67.8 L 568.3,67.2 L 572.3,67.0 L 576.3,67.0 L 580.4,65.3 L 584.4,64.7 L 588.4,64.5 L 592.5,64.5 L 596.5,63.5 L 600.5,63.5 L 604.6,62.9 L 608.6,62.3 L 612.6,60.9 L 616.7,60.7 L 620.7,60.5 L 624.8,60.3 L 628.8,60.3 L 632.8,60.1 L 636.9,59.2 L 640.9,58.6 L 644.9,58.6 L 649.0,58.4 L 653.0,58.4 L 657.0,57.8 L 661.1,57.6 L 665.1,57.4 L 669.1,56.8 L 673.2,56.0 L 677.2,56.0 L 681.2,55.8 L 685.3,55.6 L 689.3,54.6 L 693.3,53.3 L 697.4,53.1 L 701.4,52.7 L 705.4,52.3 L 709.5,52.1 L 713.5,51.5 L 717.5,50.7 L 721.6,50.5 L 725.6,49.9 L 729.7,49.5 L 733.7,48.5 L 737.7,48.3 L 741.8,47.9 L 745.8,47.9 L 749.8,47.6 L 753.9,47.2 L 757.9,46.8 L 761.9,46.6 L 766.0,46.2 L 770.0,46.2" fill="none" stroke="#4F8EF7" stroke-width="2.5" stroke-linejoin="round" clip-path="url(#ca)"/>
<path d="M 72.0,340 L 72.0,244.2 L 76.0,243.6 L 80.1,243.6 L 84.1,243.6 L 88.1,243.4 L 92.2,243.0 L 96.2,242.8 L 100.2,242.6 L 104.3,242.6 L 108.3,242.5 L 112.3,242.3 L 116.4,242.3 L 120.4,242.3 L 124.5,242.3 L 128.5,242.3 L 132.5,242.3 L 136.6,241.9 L 140.6,241.9 L 144.6,241.9 L 148.7,241.1 L 152.7,240.9 L 156.7,240.5 L 160.8,239.7 L 164.8,239.5 L 168.8,239.5 L 172.9,239.5 L 176.9,238.9 L 180.9,238.5 L 185.0,238.5 L 189.0,238.1 L 193.0,237.9 L 197.1,237.5 L 201.1,237.5 L 205.1,237.3 L 209.2,236.6 L 213.2,236.0 L 217.2,235.6 L 221.3,235.4 L 225.3,235.4 L 229.4,235.2 L 233.4,234.8 L 237.4,234.8 L 241.5,234.6 L 245.5,234.0 L 249.5,233.6 L 253.6,233.6 L 257.6,233.6 L 261.6,233.6 L 265.7,233.4 L 269.7,232.8 L 273.7,232.4 L 277.8,232.2 L 281.8,232.0 L 285.8,231.8 L 289.9,231.6 L 293.9,231.4 L 297.9,231.2 L 302.0,230.7 L 306.0,230.5 L 310.0,230.3 L 314.1,229.5 L 318.1,228.7 L 322.2,228.7 L 326.2,228.5 L 330.2,228.3 L 334.3,228.3 L 338.3,228.3 L 342.3,227.9 L 346.4,227.9 L 350.4,226.7 L 354.4,226.5 L 358.5,226.3 L 362.5,226.3 L 366.5,225.9 L 370.6,225.7 L 374.6,225.7 L 378.6,225.5 L 382.7,225.5 L 386.7,225.5 L 390.7,225.1 L 394.8,224.9 L 398.8,224.0 L 402.8,224.2 L 406.9,224.0 L 410.9,223.8 L 414.9,223.8 L 419.0,223.6 L 423.0,223.0 L 427.1,223.0 L 431.1,223.0 L 435.1,223.0 L 439.2,222.6 L 443.2,222.6 L 447.2,222.2 L 451.3,221.8 L 455.3,221.0 L 459.3,221.0 L 463.4,220.6 L 467.4,220.4 L 471.4,220.2 L 475.5,220.0 L 479.5,219.6 L 483.5,219.6 L 487.6,219.1 L 491.6,219.1 L 495.6,218.9 L 499.7,218.5 L 503.7,218.3 L 507.7,218.3 L 511.8,218.3 L 515.8,218.3 L 519.8,218.3 L 523.9,217.7 L 527.9,217.7 L 532.0,217.3 L 536.0,216.9 L 540.0,216.3 L 544.1,216.1 L 548.1,216.1 L 552.1,214.9 L 556.2,214.7 L 560.2,214.7 L 564.2,213.9 L 568.3,213.9 L 572.3,213.5 L 576.3,213.5 L 580.4,213.3 L 584.4,213.3 L 588.4,213.2 L 592.5,212.8 L 596.5,212.8 L 600.5,212.6 L 604.6,212.4 L 608.6,212.2 L 612.6,212.0 L 616.7,212.0 L 620.7,211.6 L 624.8,211.6 L 628.8,211.6 L 632.8,210.6 L 636.9,210.6 L 640.9,210.6 L 644.9,210.6 L 649.0,210.6 L 653.0,210.6 L 657.0,210.2 L 661.1,210.2 L 665.1,209.8 L 669.1,209.0 L 673.2,208.6 L 677.2,208.4 L 681.2,208.4 L 685.3,208.2 L 689.3,207.6 L 693.3,207.4 L 697.4,207.4 L 701.4,207.1 L 705.4,206.5 L 709.5,206.1 L 713.5,206.1 L 717.5,205.9 L 721.6,205.9 L 725.6,205.3 L 729.7,205.1 L 733.7,205.1 L 737.7,204.7 L 741.8,204.7 L 745.8,204.3 L 749.8,203.7 L 753.9,203.7 L 757.9,203.5 L 761.9,203.3 L 766.0,203.1 L 770.0,203.1 L 770.0,340 Z" fill="url(#g3)" clip-path="url(#ca)"/>
<path d="M 72.0,244.2 L 76.0,243.6 L 80.1,243.6 L 84.1,243.6 L 88.1,243.4 L 92.2,243.0 L 96.2,242.8 L 100.2,242.6 L 104.3,242.6 L 108.3,242.5 L 112.3,242.3 L 116.4,242.3 L 120.4,242.3 L 124.5,242.3 L 128.5,242.3 L 132.5,242.3 L 136.6,241.9 L 140.6,241.9 L 144.6,241.9 L 148.7,241.1 L 152.7,240.9 L 156.7,240.5 L 160.8,239.7 L 164.8,239.5 L 168.8,239.5 L 172.9,239.5 L 176.9,238.9 L 180.9,238.5 L 185.0,238.5 L 189.0,238.1 L 193.0,237.9 L 197.1,237.5 L 201.1,237.5 L 205.1,237.3 L 209.2,236.6 L 213.2,236.0 L 217.2,235.6 L 221.3,235.4 L 225.3,235.4 L 229.4,235.2 L 233.4,234.8 L 237.4,234.8 L 241.5,234.6 L 245.5,234.0 L 249.5,233.6 L 253.6,233.6 L 257.6,233.6 L 261.6,233.6 L 265.7,233.4 L 269.7,232.8 L 273.7,232.4 L 277.8,232.2 L 281.8,232.0 L 285.8,231.8 L 289.9,231.6 L 293.9,231.4 L 297.9,231.2 L 302.0,230.7 L 306.0,230.5 L 310.0,230.3 L 314.1,229.5 L 318.1,228.7 L 322.2,228.7 L 326.2,228.5 L 330.2,228.3 L 334.3,228.3 L 338.3,228.3 L 342.3,227.9 L 346.4,227.9 L 350.4,226.7 L 354.4,226.5 L 358.5,226.3 L 362.5,226.3 L 366.5,225.9 L 370.6,225.7 L 374.6,225.7 L 378.6,225.5 L 382.7,225.5 L 386.7,225.5 L 390.7,225.1 L 394.8,224.9 L 398.8,224.0 L 402.8,224.2 L 406.9,224.0 L 410.9,223.8 L 414.9,223.8 L 419.0,223.6 L 423.0,223.0 L 427.1,223.0 L 431.1,223.0 L 435.1,223.0 L 439.2,222.6 L 443.2,222.6 L 447.2,222.2 L 451.3,221.8 L 455.3,221.0 L 459.3,221.0 L 463.4,220.6 L 467.4,220.4 L 471.4,220.2 L 475.5,220.0 L 479.5,219.6 L 483.5,219.6 L 487.6,219.1 L 491.6,219.1 L 495.6,218.9 L 499.7,218.5 L 503.7,218.3 L 507.7,218.3 L 511.8,218.3 L 515.8,218.3 L 519.8,218.3 L 523.9,217.7 L 527.9,217.7 L 532.0,217.3 L 536.0,216.9 L 540.0,216.3 L 544.1,216.1 L 548.1,216.1 L 552.1,214.9 L 556.2,214.7 L 560.2,214.7 L 564.2,213.9 L 568.3,213.9 L 572.3,213.5 L 576.3,213.5 L 580.4,213.3 L 584.4,213.3 L 588.4,213.2 L 592.5,212.8 L 596.5,212.8 L 600.5,212.6 L 604.6,212.4 L 608.6,212.2 L 612.6,212.0 L 616.7,212.0 L 620.7,211.6 L 624.8,211.6 L 628.8,211.6 L 632.8,210.6 L 636.9,210.6 L 640.9,210.6 L 644.9,210.6 L 649.0,210.6 L 653.0,210.6 L 657.0,210.2 L 661.1,210.2 L 665.1,209.8 L 669.1,209.0 L 673.2,208.6 L 677.2,208.4 L 681.2,208.4 L 685.3,208.2 L 689.3,207.6 L 693.3,207.4 L 697.4,207.4 L 701.4,207.1 L 705.4,206.5 L 709.5,206.1 L 713.5,206.1 L 717.5,205.9 L 721.6,205.9 L 725.6,205.3 L 729.7,205.1 L 733.7,205.1 L 737.7,204.7 L 741.8,204.7 L 745.8,204.3 L 749.8,203.7 L 753.9,203.7 L 757.9,203.5 L 761.9,203.3 L 766.0,203.1 L 770.0,203.1" fill="none" stroke="#BF5AF2" stroke-width="2.5" stroke-linejoin="round" clip-path="url(#ca)"/>
<path d="M 72.0,340 L 72.0,291.4 L 76.0,290.8 L 80.1,290.8 L 84.1,290.8 L 88.1,290.6 L 92.2,290.2 L 96.2,290.0 L 100.2,289.7 L 104.3,289.7 L 108.3,289.5 L 112.3,289.3 L 116.4,289.3 L 120.4,289.3 L 124.5,289.3 L 128.5,289.3 L 132.5,289.3 L 136.6,288.9 L 140.6,288.9 L 144.6,289.1 L 148.7,288.5 L 152.7,288.7 L 156.7,288.1 L 160.8,287.5 L 164.8,287.3 L 168.8,287.5 L 172.9,287.5 L 176.9,286.9 L 180.9,286.7 L 185.0,286.7 L 189.0,286.3 L 193.0,286.1 L 197.1,285.7 L 201.1,285.7 L 205.1,285.5 L 209.2,284.9 L 213.2,284.3 L 217.2,283.9 L 221.3,283.9 L 225.3,283.9 L 229.4,283.8 L 233.4,283.4 L 237.4,283.4 L 241.5,283.2 L 245.5,282.6 L 249.5,282.4 L 253.6,282.4 L 257.6,282.4 L 261.6,282.4 L 265.7,282.2 L 269.7,281.6 L 273.7,281.4 L 277.8,281.2 L 281.8,281.0 L 285.8,281.0 L 289.9,280.8 L 293.9,280.8 L 297.9,280.8 L 302.0,280.2 L 306.0,280.2 L 310.0,280.2 L 314.1,279.8 L 318.1,279.2 L 322.2,279.2 L 326.2,279.0 L 330.2,278.8 L 334.3,278.8 L 338.3,278.8 L 342.3,278.4 L 346.4,278.4 L 350.4,277.3 L 354.4,277.1 L 358.5,276.9 L 362.5,276.9 L 366.5,276.7 L 370.6,276.7 L 374.6,276.7 L 378.6,276.7 L 382.7,276.7 L 386.7,276.7 L 390.7,276.3 L 394.8,276.1 L 398.8,275.1 L 402.8,275.3 L 406.9,275.3 L 410.9,275.1 L 414.9,275.1 L 419.0,275.1 L 423.0,274.7 L 427.1,274.7 L 431.1,274.7 L 435.1,274.7 L 439.2,274.7 L 443.2,274.7 L 447.2,274.5 L 451.3,274.5 L 455.3,273.7 L 459.3,273.7 L 463.4,273.5 L 467.4,273.3 L 471.4,273.1 L 475.5,272.9 L 479.5,272.5 L 483.5,272.5 L 487.6,272.0 L 491.6,272.0 L 495.6,271.8 L 499.7,271.6 L 503.7,271.6 L 507.7,271.6 L 511.8,271.6 L 515.8,271.6 L 519.8,271.6 L 523.9,271.0 L 527.9,271.0 L 532.0,270.6 L 536.0,270.2 L 540.0,269.6 L 544.1,269.4 L 548.1,269.4 L 552.1,268.4 L 556.2,268.2 L 560.2,268.2 L 564.2,267.6 L 568.3,267.6 L 572.3,267.4 L 576.3,267.4 L 580.4,267.6 L 584.4,267.8 L 588.4,267.6 L 592.5,267.2 L 596.5,267.4 L 600.5,267.2 L 604.6,267.0 L 608.6,267.0 L 612.6,267.0 L 616.7,267.0 L 620.7,266.6 L 624.8,266.6 L 628.8,266.6 L 632.8,265.9 L 636.9,265.9 L 640.9,265.9 L 644.9,265.9 L 649.0,265.9 L 653.0,265.9 L 657.0,265.5 L 661.1,265.5 L 665.1,265.1 L 669.1,264.3 L 673.2,264.1 L 677.2,264.1 L 681.2,264.1 L 685.3,264.1 L 689.3,263.7 L 693.3,263.5 L 697.4,263.5 L 701.4,263.3 L 705.4,262.7 L 709.5,262.3 L 713.5,262.3 L 717.5,262.1 L 721.6,262.1 L 725.6,261.9 L 729.7,261.7 L 733.7,261.7 L 737.7,261.5 L 741.8,261.5 L 745.8,261.1 L 749.8,260.5 L 753.9,260.5 L 757.9,260.4 L 761.9,260.5 L 766.0,260.4 L 770.0,260.4 L 770.0,340 Z" fill="url(#g4)" clip-path="url(#ca)"/>
<path d="M 72.0,291.4 L 76.0,290.8 L 80.1,290.8 L 84.1,290.8 L 88.1,290.6 L 92.2,290.2 L 96.2,290.0 L 100.2,289.7 L 104.3,289.7 L 108.3,289.5 L 112.3,289.3 L 116.4,289.3 L 120.4,289.3 L 124.5,289.3 L 128.5,289.3 L 132.5,289.3 L 136.6,288.9 L 140.6,288.9 L 144.6,289.1 L 148.7,288.5 L 152.7,288.7 L 156.7,288.1 L 160.8,287.5 L 164.8,287.3 L 168.8,287.5 L 172.9,287.5 L 176.9,286.9 L 180.9,286.7 L 185.0,286.7 L 189.0,286.3 L 193.0,286.1 L 197.1,285.7 L 201.1,285.7 L 205.1,285.5 L 209.2,284.9 L 213.2,284.3 L 217.2,283.9 L 221.3,283.9 L 225.3,283.9 L 229.4,283.8 L 233.4,283.4 L 237.4,283.4 L 241.5,283.2 L 245.5,282.6 L 249.5,282.4 L 253.6,282.4 L 257.6,282.4 L 261.6,282.4 L 265.7,282.2 L 269.7,281.6 L 273.7,281.4 L 277.8,281.2 L 281.8,281.0 L 285.8,281.0 L 289.9,280.8 L 293.9,280.8 L 297.9,280.8 L 302.0,280.2 L 306.0,280.2 L 310.0,280.2 L 314.1,279.8 L 318.1,279.2 L 322.2,279.2 L 326.2,279.0 L 330.2,278.8 L 334.3,278.8 L 338.3,278.8 L 342.3,278.4 L 346.4,278.4 L 350.4,277.3 L 354.4,277.1 L 358.5,276.9 L 362.5,276.9 L 366.5,276.7 L 370.6,276.7 L 374.6,276.7 L 378.6,276.7 L 382.7,276.7 L 386.7,276.7 L 390.7,276.3 L 394.8,276.1 L 398.8,275.1 L 402.8,275.3 L 406.9,275.3 L 410.9,275.1 L 414.9,275.1 L 419.0,275.1 L 423.0,274.7 L 427.1,274.7 L 431.1,274.7 L 435.1,274.7 L 439.2,274.7 L 443.2,274.7 L 447.2,274.5 L 451.3,274.5 L 455.3,273.7 L 459.3,273.7 L 463.4,273.5 L 467.4,273.3 L 471.4,273.1 L 475.5,272.9 L 479.5,272.5 L 483.5,272.5 L 487.6,272.0 L 491.6,272.0 L 495.6,271.8 L 499.7,271.6 L 503.7,271.6 L 507.7,271.6 L 511.8,271.6 L 515.8,271.6 L 519.8,271.6 L 523.9,271.0 L 527.9,271.0 L 532.0,270.6 L 536.0,270.2 L 540.0,269.6 L 544.1,269.4 L 548.1,269.4 L 552.1,268.4 L 556.2,268.2 L 560.2,268.2 L 564.2,267.6 L 568.3,267.6 L 572.3,267.4 L 576.3,267.4 L 580.4,267.6 L 584.4,267.8 L 588.4,267.6 L 592.5,267.2 L 596.5,267.4 L 600.5,267.2 L 604.6,267.0 L 608.6,267.0 L 612.6,267.0 L 616.7,267.0 L 620.7,266.6 L 624.8,266.6 L 628.8,266.6 L 632.8,265.9 L 636.9,265.9 L 640.9,265.9 L 644.9,265.9 L 649.0,265.9 L 653.0,265.9 L 657.0,265.5 L 661.1,265.5 L 665.1,265.1 L 669.1,264.3 L 673.2,264.1 L 677.2,264.1 L 681.2,264.1 L 685.3,264.1 L 689.3,263.7 L 693.3,263.5 L 697.4,263.5 L 701.4,263.3 L 705.4,262.7 L 709.5,262.3 L 713.5,262.3 L 717.5,262.1 L 721.6,262.1 L 725.6,261.9 L 729.7,261.7 L 733.7,261.7 L 737.7,261.5 L 741.8,261.5 L 745.8,261.1 L 749.8,260.5 L 753.9,260.5 L 757.9,260.4 L 761.9,260.5 L 766.0,260.4 L 770.0,260.4" fill="none" stroke="#34C759" stroke-width="2.5" stroke-linejoin="round" clip-path="url(#ca)"/>
<text x="94.2" y="55.0" text-anchor="middle" font-size="9" fill="#4F8EF7" opacity="0.85" clip-path="url(#ca)">+0.5% (+8)</text>
<text x="94.2" y="66.0" text-anchor="middle" font-size="9" fill="#BF5AF2" opacity="0.85" clip-path="url(#ca)">+1.0% (+10)</text>
<text x="94.2" y="77.0" text-anchor="middle" font-size="9" fill="#34C759" opacity="0.85" clip-path="url(#ca)">+1.5% (+11)</text>
<text x="170.8" y="55.0" text-anchor="middle" font-size="9" fill="#4F8EF7" opacity="0.85" clip-path="url(#ca)">+4.0% (+65)</text>
<text x="170.8" y="66.0" text-anchor="middle" font-size="9" fill="#BF5AF2" opacity="0.85" clip-path="url(#ca)">+3.5% (+35)</text>
<text x="170.8" y="77.0" text-anchor="middle" font-size="9" fill="#34C759" opacity="0.85" clip-path="url(#ca)">+3.6% (+27)</text>
<text x="277.8" y="55.0" text-anchor="middle" font-size="9" fill="#4F8EF7" opacity="0.85" clip-path="url(#ca)">+4.1% (+70)</text>
<text x="277.8" y="66.0" text-anchor="middle" font-size="9" fill="#BF5AF2" opacity="0.85" clip-path="url(#ca)">+3.5% (+36)</text>
<text x="277.8" y="77.0" text-anchor="middle" font-size="9" fill="#34C759" opacity="0.85" clip-path="url(#ca)">+3.3% (+26)</text>
<text x="386.7" y="55.0" text-anchor="middle" font-size="9" fill="#4F8EF7" opacity="0.85" clip-path="url(#ca)">+3.5% (+61)</text>
<text x="386.7" y="66.0" text-anchor="middle" font-size="9" fill="#BF5AF2" opacity="0.85" clip-path="url(#ca)">+2.7% (+29)</text>
<text x="386.7" y="77.0" text-anchor="middle" font-size="9" fill="#34C759" opacity="0.85" clip-path="url(#ca)">+2.6% (+21)</text>
<text x="495.6" y="55.0" text-anchor="middle" font-size="9" fill="#4F8EF7" opacity="0.85" clip-path="url(#ca)">+2.7% (+49)</text>
<text x="495.6" y="66.0" text-anchor="middle" font-size="9" fill="#BF5AF2" opacity="0.85" clip-path="url(#ca)">+3.0% (+33)</text>
<text x="495.6" y="77.0" text-anchor="middle" font-size="9" fill="#34C759" opacity="0.85" clip-path="url(#ca)">+3.2% (+27)</text>
<text x="602.6" y="55.0" text-anchor="middle" font-size="9" fill="#4F8EF7" opacity="0.85" clip-path="url(#ca)">+2.9% (+54)</text>
<text x="602.6" y="66.0" text-anchor="middle" font-size="9" fill="#BF5AF2" opacity="0.85" clip-path="url(#ca)">+1.9% (+22)</text>
<text x="602.6" y="77.0" text-anchor="middle" font-size="9" fill="#34C759" opacity="0.85" clip-path="url(#ca)">+1.5% (+13)</text>
<text x="703.4" y="55.0" text-anchor="middle" font-size="9" fill="#4F8EF7" opacity="0.85" clip-path="url(#ca)">+2.7% (+52)</text>
<text x="703.4" y="66.0" text-anchor="middle" font-size="9" fill="#BF5AF2" opacity="0.85" clip-path="url(#ca)">+2.8% (+33)</text>
<text x="703.4" y="77.0" text-anchor="middle" font-size="9" fill="#34C759" opacity="0.85" clip-path="url(#ca)">+2.8% (+25)</text>
<text x="761.9" y="55.0" text-anchor="middle" font-size="9" fill="#4F8EF7" opacity="0.85" clip-path="url(#ca)">+0.3% (+5)</text>
<text x="761.9" y="66.0" text-anchor="middle" font-size="9" fill="#BF5AF2" opacity="0.85" clip-path="url(#ca)">+0.3% (+3)</text>
<text x="761.9" y="77.0" text-anchor="middle" font-size="9" fill="#34C759" opacity="0.85" clip-path="url(#ca)">+0.1% (+1)</text>
<rect x="211" y="369" width="12" height="12" fill="#4F8EF7" rx="2"/>
<text x="227" y="379" font-size="12" fill="#111827">Authors</text>
<rect x="351" y="369" width="12" height="12" fill="#BF5AF2" rx="2"/>
<text x="367" y="379" font-size="12" fill="#111827">Contributors</text>
<rect x="491" y="369" width="12" height="12" fill="#34C759" rx="2"/>
<text x="507" y="379" font-size="12" fill="#111827">Non-author contributors</text>
<text x="72" y="394" font-size="8" fill="#e5e7eb">data since Dec 11, 2025</text>
</svg>