<svg xmlns="http://www.w3.org/2000/svg" width="800" height="400" viewBox="0 0 800 400">
<defs>
  <style>text { font-family: -apple-system, BlinkMacSystemFont, 'Segoe UI', Roboto, sans-serif; }</style>
  <linearGradient id="g2" x1="0" y1="0" x2="0" y2="1">
  <stop offset="0%" stop-color="#4F8EF7" stop-opacity="0.25"/>
  <stop offset="100%" stop-color="#4F8EF7" stop-opacity="0"/>
</linearGradient>
<linearGradient id="g3" x1="0" y1="0" x2="0" y2="1">
  <stop offset="0%" stop-color="#BF5AF2" stop-opacity="0.25"/>
  <stop offset="100%" stop-color="#BF5AF2" stop-opacity="0"/>
</linearGradient>
  <clipPath id="ca"><rect x="72" y="45" width="698" height="295"/></clipPath>
</defs>
<rect width="800" height="400" fill="#ffffff" rx="12"/>
<text x="400" y="26" text-anchor="middle" font-size="15" font-weight="600" fill="#111827">Community Growth Over Time</text>
<line x1="72" y1="340.0" x2="770" y2="340.0" stroke="#f3f4f6" stroke-width="1"/>
<text x="66" y="344.0" text-anchor="end" font-size="11" fill="#6b7280">908</text>
<line x1="72" y1="281.0" x2="770" y2="281.0" stroke="#f3f4f6" stroke-width="1"/>
<text x="66" y="285.0" text-anchor="end" font-size="11" fill="#6b7280">1.1k</text>
<line x1="72" y1="222.0" x2="770" y2="222.0" stroke="#f3f4f6" stroke-width="1"/>
<text x="66" y="226.0" text-anchor="end" font-size="11" fill="#6b7280">1.3k</text>
<line x1="72" y1="163.0" x2="770" y2="163.0" stroke="#f3f4f6" stroke-width="1"/>
<text x="66" y="167.0" text-anchor="end" font-size="11" fill="#6b7280">1.5k</text>
<line x1="72" y1="104.0" x2="770" y2="104.0" stroke="#f3f4f6" stroke-width="1"/>
<text x="66" y="108.0" text-anchor="end" font-size="11" fill="#6b7280">1.7k</text>
<line x1="72" y1="45.0" x2="770" y2="45.0" stroke="#f3f4f6" stroke-width="1"/>
<text x="66" y="49.0" text-anchor="end" font-size="11" fill="#6b7280">1.9k</text>
<line x1="191.7" y1="45" x2="191.7" y2="340" stroke="#e5e7eb" stroke-width="1" stroke-dasharray="3,3" clip-path="url(#ca)"/>
<line x1="450.9" y1="45" x2="450.9" y2="340" stroke="#e5e7eb" stroke-width="1" stroke-dasharray="3,3" clip-path="url(#ca)"/>
<line x1="720.1" y1="45" x2="720.1" y2="340" stroke="#e5e7eb" stroke-width="1" stroke-dasharray="3,3" clip-path="url(#ca)"/>
<text x="72.0" y="358.0" text-anchor="middle" font-size="11" fill="#6b7280">Dec 11</text>
<text x="211.6" y="358.0" text-anchor="middle" font-size="11" fill="#6b7280">Jan 5</text>
<text x="351.2" y="358.0" text-anchor="middle" font-size="11" fill="#6b7280">Jan 22</text>
<text x="490.8" y="358.0" text-anchor="middle" font-size="11" fill="#6b7280">Feb 5</text>
<text x="630.4" y="358.0" text-anchor="middle" font-size="11" fill="#6b7280">Feb 19</text>
<text x="770.0" y="358.0" text-anchor="middle" font-size="11" fill="#6b7280">Mar 6</text>
<line x1="72" y1="45" x2="72" y2="340" stroke="#e5e7eb" stroke-width="1"/>
<line x1="72" y1="340" x2="770" y2="340" stroke="#e5e7eb" stroke-width="1"/>
<text x="-192.5" y="18" text-anchor="middle" font-size="12" fill="#6b7280" transform="rotate(-90)">People</text>
<path d="M 72.0,340 L 72.0,118.1 L 82.0,118.1 L 91.9,118.1 L 101.9,117.1 L 111.9,117.1 L 121.9,116.5 L 131.8,116.2 L 141.8,116.5 L 151.8,115.6 L 161.7,115.6 L 171.7,115.6 L 181.7,115.6 L 191.7,115.6 L 201.6,115.6 L 211.6,115.6 L 221.6,115.6 L 231.5,115.2 L 241.5,114.3 L 251.5,112.4 L 261.5,111.5 L 271.4,111.2 L 281.4,111.2 L 291.4,110.2 L 301.3,108.1 L 311.3,106.8 L 321.3,106.8 L 331.3,105.2 L 341.2,104.6 L 351.2,103.4 L 361.2,102.4 L 371.1,101.5 L 381.1,100.5 L 391.1,100.5 L 401.1,98.4 L 411.0,97.1 L 421.0,97.1 L 431.0,95.9 L 440.9,95.2 L 450.9,94.9 L 460.9,94.6 L 470.9,94.6 L 480.8,93.7 L 490.8,89.9 L 500.8,87.7 L 510.7,86.5 L 520.7,86.2 L 530.7,85.5 L 540.7,84.3 L 550.6,83.7 L 560.6,83.0 L 570.6,82.4 L 580.5,81.8 L 590.5,81.2 L 600.5,81.2 L 610.5,78.0 L 620.4,78.0 L 630.4,77.7 L 640.4,77.4 L 650.3,76.8 L 660.3,76.8 L 670.3,75.2 L 680.3,73.3 L 690.2,72.7 L 700.2,73.3 L 710.2,73.0 L 720.1,72.7 L 730.1,72.7 L 740.1,72.1 L 750.1,70.8 L 760.0,70.2 L 770.0,69.6 L 770.0,340 Z" fill="url(#g2)" clip-path="url(#ca)"/>
<path d="M 72.0,118.1 L 82.0,118.1 L 91.9,118.1 L 101.9,117.1 L 111.9,117.1 L 121.9,116.5 L 131.8,116.2 L 141.8,116.5 L 151.8,115.6 L 161.7,115.6 L 171.7,115.6 L 181.7,115.6 L 191.7,115.6 L 201.6,115.6 L 211.6,115.6 L 221.6,115.6 L 231.5,115.2 L 241.5,114.3 L 251.5,112.4 L 261.5,111.5 L 271.4,111.2 L 281.4,111.2 L 291.4,110.2 L 301.3,108.1 L 311.3,106.8 L 321.3,106.8 L 331.3,105.2 L 341.2,104.6 L 351.2,103.4 L 361.2,102.4 L 371.1,101.5 L 381.1,100.5 L 391.1,100.5 L 401.1,98.4 L 411.0,97.1 L 421.0,97.1 L 431.0,95.9 L 440.9,95.2 L 450.9,94.9 L 460.9,94.6 L 470.9,94.6 L 480.8,93.7 L 490.8,89.9 L 500.8,87.7 L 510.7,86.5 L 520.7,86.2 L 530.7,85.5 L 540.7,84.3 L 550.6,83.7 L 560.6,83.0 L 570.6,82.4 L 580.5,81.8 L 590.5,81.2 L 600.5,81.2 L 610.5,78.0 L 620.4,78.0 L 630.4,77.7 L 640.4,77.4 L 650.3,76.8 L 660.3,76.8 L 670.3,75.2 L 680.3,73.3 L 690.2,72.7 L 700.2,73.3 L 710.2,73.0 L 720.1,72.7 L 730.1,72.7 L 740.1,72.1 L 750.1,70.8 L 760.0,70.2 L 770.0,69.6" fill="none" stroke="#4F8EF7" stroke-width="2.5" stroke-linejoin="round" clip-path="url(#ca)"/>
<path d="M 72.0,340 L 72.0,315.4 L 82.0,314.5 L 91.9,314.5 L 101.9,314.5 L 111.9,314.2 L 121.9,313.5 L 131.8,313.2 L 141.8,312.9 L 151.8,312.9 L 161.7,312.6 L 171.7,312.3 L 181.7,312.3 L 191.7,312.3 L 201.6,312.3 L 211.6,312.3 L 221.6,312.3 L 231.5,311.7 L 241.5,311.7 L 251.5,311.7 L 261.5,310.4 L 271.4,310.1 L 281.4,309.5 L 291.4,308.2 L 301.3,307.9 L 311.3,307.9 L 321.3,307.9 L 331.3,307.0 L 341.2,306.3 L 351.2,306.3 L 361.2,305.7 L 371.1,305.4 L 381.1,304.8 L 391.1,304.8 L 401.1,304.5 L 411.0,303.2 L 421.0,302.3 L 431.0,301.7 L 440.9,301.3 L 450.9,301.3 L 460.9,301.0 L 470.9,300.4 L 480.8,300.4 L 490.8,300.1 L 500.8,299.2 L 510.7,298.5 L 520.7,298.5 L 530.7,298.5 L 540.7,298.5 L 550.6,298.2 L 560.6,297.3 L 570.6,296.7 L 580.5,296.3 L 590.5,296.0 L 600.5,295.7 L 610.5,295.4 L 620.4,295.1 L 630.4,294.8 L 640.4,293.8 L 650.3,293.5 L 660.3,293.2 L 670.3,292.0 L 680.3,290.7 L 690.2,290.7 L 700.2,290.4 L 710.2,290.1 L 720.1,290.1 L 730.1,290.1 L 740.1,289.5 L 750.1,289.5 L 760.0,287.6 L 770.0,287.3 L 770.0,340 Z" fill="url(#g3)" clip-path="url(#ca)"/>
<path d="M 72.0,315.4 L 82.0,314.5 L 91.9,314.5 L 101.9,314.5 L 111.9,314.2 L 121.9,313.5 L 131.8,313.2 L 141.8,312.9 L 151.8,312.9 L 161.7,312.6 L 171.7,312.3 L 181.7,312.3 L 191.7,312.3 L 201.6,312.3 L 211.6,312.3 L 221.6,312.3 L 231.5,311.7 L 241.5,311.7 L 251.5,311.7 L 261.5,310.4 L 271.4,310.1 L 281.4,309.5 L 291.4,308.2 L 301.3,307.9 L 311.3,307.9 L 321.3,307.9 L 331.3,307.0 L 341.2,306.3 L 351.2,306.3 L 361.2,305.7 L 371.1,305.4 L 381.1,304.8 L 391.1,304.8 L 401.1,304.5 L 411.0,303.2 L 421.0,302.3 L 431.0,301.7 L 440.9,301.3 L 450.9,301.3 L 460.9,301.0 L 470.9,300.4 L 480.8,300.4 L 490.8,300.1 L 500.8,299.2 L 510.7,298.5 L 520.7,298.5 L 530.7,298.5 L 540.7,298.5 L 550.6,298.2 L 560.6,297.3 L 570.6,296.7 L 580.5,296.3 L 590.5,296.0 L 600.5,295.7 L 610.5,295.4 L 620.4,295.1 L 630.4,294.8 L 640.4,293.8 L 650.3,293.5 L 660.3,293.2 L 670.3,292.0 L 680.3,290.7 L 690.2,290.7 L 700.2,290.4 L 710.2,290.1 L 720.1,290.1 L 730.1,290.1 L 740.1,289.5 L 750.1,289.5 L 760.0,287.6 L 770.0,287.3" fill="none" stroke="#BF5AF2" stroke-width="2.5" stroke-linejoin="round" clip-path="url(#ca)"/>
<text x="126.8" y="55.0" text-anchor="middle" font-size="9" fill="#4F8EF7" opacity="0.85" clip-path="url(#ca)">+0.5%</text>
<text x="126.8" y="66.0" text-anchor="middle" font-size="9" fill="#BF5AF2" opacity="0.85" clip-path="url(#ca)">+1.0%</text>
<text x="316.3" y="55.0" text-anchor="middle" font-size="9" fill="#4F8EF7" opacity="0.85" clip-path="url(#ca)">+4.0%</text>
<text x="316.3" y="66.0" text-anchor="middle" font-size="9" fill="#BF5AF2" opacity="0.85" clip-path="url(#ca)">+3.5%</text>
<text x="580.5" y="55.0" text-anchor="middle" font-size="9" fill="#4F8EF7" opacity="0.85" clip-path="url(#ca)">+4.1%</text>
<text x="580.5" y="66.0" text-anchor="middle" font-size="9" fill="#BF5AF2" opacity="0.85" clip-path="url(#ca)">+3.5%</text>
<text x="745.1" y="55.0" text-anchor="middle" font-size="9" fill="#4F8EF7" opacity="0.85" clip-path="url(#ca)">+0.6%</text>
<text x="745.1" y="66.0" text-anchor="middle" font-size="9" fill="#BF5AF2" opacity="0.85" clip-path="url(#ca)">+0.8%</text>
<rect x="281" y="369" width="12" height="12" fill="#4F8EF7" rx="2"/>
<text x="297" y="379" font-size="12" fill="#111827">Authors</text>
<rect x="421" y="369" width="12" height="12" fill="#BF5AF2" rx="2"/>
<text x="437" y="379" font-size="12" fill="#111827">Contributors</text>
<text x="72" y="394" font-size="8" fill="#e5e7eb">data since Dec 11, 2025</text>
</svg>