<svg xmlns="http://www.w3.org/2000/svg" width="800" height="400" viewBox="0 0 800 400">
<defs>
  <style>text { font-family: -apple-system, BlinkMacSystemFont, 'Segoe UI', Roboto, sans-serif; }</style>
  <linearGradient id="g2" x1="0" y1="0" x2="0" y2="1">
  <stop offset="0%" stop-color="#4F8EF7" stop-opacity="0.25"/>
  <stop offset="100%" stop-color="#4F8EF7" stop-opacity="0"/>
</linearGradient>
<linearGradient id="g3" x1="0" y1="0" x2="0" y2="1">
  <stop offset="0%" stop-color="#BF5AF2" stop-opacity="0.25"/>
  <stop offset="100%" stop-color="#BF5AF2" stop-opacity="0"/>
</linearGradient>
  <clipPath id="ca"><rect x="72" y="45" width="698" height="295"/></clipPath>
</defs>
<rect width="800" height="400" fill="#ffffff" rx="12"/>
<text x="400" y="26" text-anchor="middle" font-size="15" font-weight="600" fill="#111827">Community Growth Over Time</text>
<line x1="72" y1="340.0" x2="770" y2="340.0" stroke="#f3f4f6" stroke-width="1"/>
<text x="66" y="344.0" text-anchor="end" font-size="11" fill="#6b7280">906</text>
<line x1="72" y1="281.0" x2="770" y2="281.0" stroke="#f3f4f6" stroke-width="1"/>
<text x="66" y="285.0" text-anchor="end" font-size="11" fill="#6b7280">1.1k</text>
<line x1="72" y1="222.0" x2="770" y2="222.0" stroke="#f3f4f6" stroke-width="1"/>
<text x="66" y="226.0" text-anchor="end" font-size="11" fill="#6b7280">1.3k</text>
<line x1="72" y1="163.0" x2="770" y2="163.0" stroke="#f3f4f6" stroke-width="1"/>
<text x="66" y="167.0" text-anchor="end" font-size="11" fill="#6b7280">1.5k</text>
<line x1="72" y1="104.0" x2="770" y2="104.0" stroke="#f3f4f6" stroke-width="1"/>
<text x="66" y="108.0" text-anchor="end" font-size="11" fill="#6b7280">1.7k</text>
<line x1="72" y1="45.0" x2="770" y2="45.0" stroke="#f3f4f6" stroke-width="1"/>
<text x="66" y="49.0" text-anchor="end" font-size="11" fill="#6b7280">1.9k</text>
<line x1="172.9" y1="45" x2="172.9" y2="340" stroke="#e5e7eb" stroke-width="1" stroke-dasharray="3,3" clip-path="url(#ca)"/>
<line x1="391.6" y1="45" x2="391.6" y2="340" stroke="#e5e7eb" stroke-width="1" stroke-dasharray="3,3" clip-path="url(#ca)"/>
<line x1="618.6" y1="45" x2="618.6" y2="340" stroke="#e5e7eb" stroke-width="1" stroke-dasharray="3,3" clip-path="url(#ca)"/>
<text x="72.0" y="358.0" text-anchor="middle" font-size="11" fill="#6b7280">Dec 11</text>
<text x="215.0" y="358.0" text-anchor="middle" font-size="11" fill="#6b7280">Jan 8</text>
<text x="349.5" y="358.0" text-anchor="middle" font-size="11" fill="#6b7280">Jan 27</text>
<text x="492.5" y="358.0" text-anchor="middle" font-size="11" fill="#6b7280">Feb 13</text>
<text x="627.0" y="358.0" text-anchor="middle" font-size="11" fill="#6b7280">Mar 2</text>
<text x="770.0" y="358.0" text-anchor="middle" font-size="11" fill="#6b7280">Mar 20</text>
<line x1="72" y1="45" x2="72" y2="340" stroke="#e5e7eb" stroke-width="1"/>
<line x1="72" y1="340" x2="770" y2="340" stroke="#e5e7eb" stroke-width="1"/>
<text x="-192.5" y="18" text-anchor="middle" font-size="12" fill="#6b7280" transform="rotate(-90)">People</text>
<path d="M 72.0,340 L 72.0,124.1 L 80.4,124.1 L 88.8,124.1 L 97.2,123.2 L 105.6,123.2 L 114.0,122.6 L 122.5,122.3 L 130.9,122.6 L 139.3,121.7 L 147.7,121.7 L 156.1,121.7 L 164.5,121.7 L 172.9,121.7 L 181.3,121.7 L 189.7,121.7 L 198.1,121.7 L 206.6,121.4 L 215.0,120.5 L 223.4,118.7 L 231.8,117.8 L 240.2,117.5 L 248.6,117.5 L 257.0,116.6 L 265.4,114.4 L 273.8,113.2 L 282.2,113.2 L 290.7,111.7 L 299.1,111.1 L 307.5,109.9 L 315.9,109.0 L 324.3,108.1 L 332.7,107.2 L 341.1,107.2 L 349.5,105.0 L 357.9,103.8 L 366.3,103.8 L 374.7,102.6 L 383.2,102.0 L 391.6,101.7 L 400.0,101.4 L 408.4,101.4 L 416.8,100.5 L 425.2,96.9 L 433.6,94.7 L 442.0,93.5 L 450.4,93.2 L 458.8,92.6 L 467.3,91.4 L 475.7,90.8 L 484.1,90.2 L 492.5,89.6 L 500.9,89.0 L 509.3,88.4 L 517.7,88.4 L 526.1,85.3 L 534.5,85.3 L 542.9,85.0 L 551.3,84.7 L 559.8,84.1 L 568.2,84.1 L 576.6,82.6 L 585.0,80.8 L 593.4,80.2 L 601.8,80.8 L 610.2,80.5 L 618.6,80.2 L 627.0,80.2 L 635.4,79.6 L 643.9,78.4 L 652.3,77.8 L 660.7,77.2 L 669.1,76.9 L 677.5,76.9 L 685.9,75.6 L 694.3,75.0 L 702.7,75.0 L 711.1,72.6 L 719.5,72.6 L 728.0,72.6 L 736.4,72.6 L 744.8,72.3 L 753.2,71.4 L 761.6,70.2 L 770.0,69.6 L 770.0,340 Z" fill="url(#g2)" clip-path="url(#ca)"/>
<path d="M 72.0,124.1 L 80.4,124.1 L 88.8,124.1 L 97.2,123.2 L 105.6,123.2 L 114.0,122.6 L 122.5,122.3 L 130.9,122.6 L 139.3,121.7 L 147.7,121.7 L 156.1,121.7 L 164.5,121.7 L 172.9,121.7 L 181.3,121.7 L 189.7,121.7 L 198.1,121.7 L 206.6,121.4 L 215.0,120.5 L 223.4,118.7 L 231.8,117.8 L 240.2,117.5 L 248.6,117.5 L 257.0,116.6 L 265.4,114.4 L 273.8,113.2 L 282.2,113.2 L 290.7,111.7 L 299.1,111.1 L 307.5,109.9 L 315.9,109.0 L 324.3,108.1 L 332.7,107.2 L 341.1,107.2 L 349.5,105.0 L 357.9,103.8 L 366.3,103.8 L 374.7,102.6 L 383.2,102.0 L 391.6,101.7 L 400.0,101.4 L 408.4,101.4 L 416.8,100.5 L 425.2,96.9 L 433.6,94.7 L 442.0,93.5 L 450.4,93.2 L 458.8,92.6 L 467.3,91.4 L 475.7,90.8 L 484.1,90.2 L 492.5,89.6 L 500.9,89.0 L 509.3,88.4 L 517.7,88.4 L 526.1,85.3 L 534.5,85.3 L 542.9,85.0 L 551.3,84.7 L 559.8,84.1 L 568.2,84.1 L 576.6,82.6 L 585.0,80.8 L 593.4,80.2 L 601.8,80.8 L 610.2,80.5 L 618.6,80.2 L 627.0,80.2 L 635.4,79.6 L 643.9,78.4 L 652.3,77.8 L 660.7,77.2 L 669.1,76.9 L 677.5,76.9 L 685.9,75.6 L 694.3,75.0 L 702.7,75.0 L 711.1,72.6 L 719.5,72.6 L 728.0,72.6 L 736.4,72.6 L 744.8,72.3 L 753.2,71.4 L 761.6,70.2 L 770.0,69.6" fill="none" stroke="#4F8EF7" stroke-width="2.5" stroke-linejoin="round" clip-path="url(#ca)"/>
<path d="M 72.0,340 L 72.0,315.4 L 80.4,314.5 L 88.8,314.5 L 97.2,314.5 L 105.6,314.2 L 114.0,313.6 L 122.5,313.3 L 130.9,313.0 L 139.3,313.0 L 147.7,312.7 L 156.1,312.4 L 164.5,312.4 L 172.9,312.4 L 181.3,312.4 L 189.7,312.4 L 198.1,312.4 L 206.6,311.8 L 215.0,311.8 L 223.4,311.8 L 231.8,310.6 L 240.2,310.3 L 248.6,309.7 L 257.0,308.4 L 265.4,308.1 L 273.8,308.1 L 282.2,308.1 L 290.7,307.2 L 299.1,306.6 L 307.5,306.6 L 315.9,306.0 L 324.3,305.7 L 332.7,305.1 L 341.1,305.1 L 349.5,304.8 L 357.9,303.6 L 366.3,302.7 L 374.7,302.1 L 383.2,301.8 L 391.6,301.8 L 400.0,301.5 L 408.4,300.9 L 416.8,300.9 L 425.2,300.6 L 433.6,299.7 L 442.0,299.0 L 450.4,299.0 L 458.8,299.0 L 467.3,299.0 L 475.7,298.7 L 484.1,297.8 L 492.5,297.2 L 500.9,296.9 L 509.3,296.6 L 517.7,296.3 L 526.1,296.0 L 534.5,295.7 L 542.9,295.4 L 551.3,294.5 L 559.8,294.2 L 568.2,293.9 L 576.6,292.7 L 585.0,291.5 L 593.4,291.5 L 601.8,291.2 L 610.2,290.9 L 618.6,290.9 L 627.0,290.9 L 635.4,290.3 L 643.9,290.3 L 652.3,288.4 L 660.7,288.1 L 669.1,287.8 L 677.5,287.8 L 685.9,287.2 L 694.3,286.9 L 702.7,286.9 L 711.1,286.6 L 719.5,286.6 L 728.0,286.6 L 736.4,286.0 L 744.8,285.7 L 753.2,284.2 L 761.6,284.5 L 770.0,284.2 L 770.0,340 Z" fill="url(#g3)" clip-path="url(#ca)"/>
<path d="M 72.0,315.4 L 80.4,314.5 L 88.8,314.5 L 97.2,314.5 L 105.6,314.2 L 114.0,313.6 L 122.5,313.3 L 130.9,313.0 L 139.3,313.0 L 147.7,312.7 L 156.1,312.4 L 164.5,312.4 L 172.9,312.4 L 181.3,312.4 L 189.7,312.4 L 198.1,312.4 L 206.6,311.8 L 215.0,311.8 L 223.4,311.8 L 231.8,310.6 L 240.2,310.3 L 248.6,309.7 L 257.0,308.4 L 265.4,308.1 L 273.8,308.1 L 282.2,308.1 L 290.7,307.2 L 299.1,306.6 L 307.5,306.6 L 315.9,306.0 L 324.3,305.7 L 332.7,305.1 L 341.1,305.1 L 349.5,304.8 L 357.9,303.6 L 366.3,302.7 L 374.7,302.1 L 383.2,301.8 L 391.6,301.8 L 400.0,301.5 L 408.4,300.9 L 416.8,300.9 L 425.2,300.6 L 433.6,299.7 L 442.0,299.0 L 450.4,299.0 L 458.8,299.0 L 467.3,299.0 L 475.7,298.7 L 484.1,297.8 L 492.5,297.2 L 500.9,296.9 L 509.3,296.6 L 517.7,296.3 L 526.1,296.0 L 534.5,295.7 L 542.9,295.4 L 551.3,294.5 L 559.8,294.2 L 568.2,293.9 L 576.6,292.7 L 585.0,291.5 L 593.4,291.5 L 601.8,291.2 L 610.2,290.9 L 618.6,290.9 L 627.0,290.9 L 635.4,290.3 L 643.9,290.3 L 652.3,288.4 L 660.7,288.1 L 669.1,287.8 L 677.5,287.8 L 685.9,287.2 L 694.3,286.9 L 702.7,286.9 L 711.1,286.6 L 719.5,286.6 L 728.0,286.6 L 736.4,286.0 L 744.8,285.7 L 753.2,284.2 L 761.6,284.5 L 770.0,284.2" fill="none" stroke="#BF5AF2" stroke-width="2.5" stroke-linejoin="round" clip-path="url(#ca)"/>
<text x="118.3" y="55.0" text-anchor="middle" font-size="9" fill="#4F8EF7" opacity="0.85" clip-path="url(#ca)">+0.5%</text>
<text x="118.3" y="66.0" text-anchor="middle" font-size="9" fill="#BF5AF2" opacity="0.85" clip-path="url(#ca)">+1.0%</text>
<text x="278.0" y="55.0" text-anchor="middle" font-size="9" fill="#4F8EF7" opacity="0.85" clip-path="url(#ca)">+4.0%</text>
<text x="278.0" y="66.0" text-anchor="middle" font-size="9" fill="#BF5AF2" opacity="0.85" clip-path="url(#ca)">+3.5%</text>
<text x="500.9" y="55.0" text-anchor="middle" font-size="9" fill="#4F8EF7" opacity="0.85" clip-path="url(#ca)">+4.1%</text>
<text x="500.9" y="66.0" text-anchor="middle" font-size="9" fill="#BF5AF2" opacity="0.85" clip-path="url(#ca)">+3.5%</text>
<text x="694.3" y="55.0" text-anchor="middle" font-size="9" fill="#4F8EF7" opacity="0.85" clip-path="url(#ca)">+2.0%</text>
<text x="694.3" y="66.0" text-anchor="middle" font-size="9" fill="#BF5AF2" opacity="0.85" clip-path="url(#ca)">+2.1%</text>
<rect x="281" y="369" width="12" height="12" fill="#4F8EF7" rx="2"/>
<text x="297" y="379" font-size="12" fill="#111827">Authors</text>
<rect x="421" y="369" width="12" height="12" fill="#BF5AF2" rx="2"/>
<text x="437" y="379" font-size="12" fill="#111827">Contributors</text>
<text x="72" y="394" font-size="8" fill="#e5e7eb">data since Dec 11, 2025</text>
</svg>