<svg xmlns="http://www.w3.org/2000/svg" width="800" height="400" viewBox="0 0 800 400">
<defs>
  <style>text { font-family: -apple-system, BlinkMacSystemFont, 'Segoe UI', Roboto, sans-serif; }</style>
  <linearGradient id="g5" x1="0" y1="0" x2="0" y2="1">
  <stop offset="0%" stop-color="#34C759" stop-opacity="0.25"/>
  <stop offset="100%" stop-color="#34C759" stop-opacity="0"/>
</linearGradient>
<linearGradient id="g6" x1="0" y1="0" x2="0" y2="1">
  <stop offset="0%" stop-color="#4F8EF7" stop-opacity="0.25"/>
  <stop offset="100%" stop-color="#4F8EF7" stop-opacity="0"/>
</linearGradient>
<linearGradient id="g7" x1="0" y1="0" x2="0" y2="1">
  <stop offset="0%" stop-color="#FF6363" stop-opacity="0.25"/>
  <stop offset="100%" stop-color="#FF6363" stop-opacity="0"/>
</linearGradient>
  <clipPath id="ca"><rect x="72" y="45" width="698" height="295"/></clipPath>
</defs>
<rect width="800" height="400" fill="#ffffff" rx="12"/>
<text x="400" y="26" text-anchor="middle" font-size="15" font-weight="600" fill="#111827">Platform Support Over Time</text>
<line x1="72" y1="340.0" x2="770" y2="340.0" stroke="#f3f4f6" stroke-width="1"/>
<text x="66" y="344.0" text-anchor="end" font-size="11" fill="#6b7280">0</text>
<line x1="72" y1="266.3" x2="770" y2="266.3" stroke="#f3f4f6" stroke-width="1"/>
<text x="66" y="270.3" text-anchor="end" font-size="11" fill="#6b7280">200</text>
<line x1="72" y1="192.5" x2="770" y2="192.5" stroke="#f3f4f6" stroke-width="1"/>
<text x="66" y="196.5" text-anchor="end" font-size="11" fill="#6b7280">400</text>
<line x1="72" y1="118.8" x2="770" y2="118.8" stroke="#f3f4f6" stroke-width="1"/>
<text x="66" y="122.8" text-anchor="end" font-size="11" fill="#6b7280">600</text>
<line x1="72" y1="45.0" x2="770" y2="45.0" stroke="#f3f4f6" stroke-width="1"/>
<text x="66" y="49.0" text-anchor="end" font-size="11" fill="#6b7280">800</text>
<line x1="162.1" y1="45" x2="162.1" y2="340" stroke="#e5e7eb" stroke-width="1" stroke-dasharray="3,3" clip-path="url(#ca)"/>
<line x1="357.2" y1="45" x2="357.2" y2="340" stroke="#e5e7eb" stroke-width="1" stroke-dasharray="3,3" clip-path="url(#ca)"/>
<line x1="559.8" y1="45" x2="559.8" y2="340" stroke="#e5e7eb" stroke-width="1" stroke-dasharray="3,3" clip-path="url(#ca)"/>
<line x1="762.5" y1="45" x2="762.5" y2="340" stroke="#e5e7eb" stroke-width="1" stroke-dasharray="3,3" clip-path="url(#ca)"/>
<text x="72.0" y="358.0" text-anchor="middle" font-size="11" fill="#6b7280">Dec 11</text>
<text x="214.6" y="358.0" text-anchor="middle" font-size="11" fill="#6b7280">Jan 10</text>
<text x="349.7" y="358.0" text-anchor="middle" font-size="11" fill="#6b7280">Jan 31</text>
<text x="492.3" y="358.0" text-anchor="middle" font-size="11" fill="#6b7280">Feb 19</text>
<text x="627.4" y="358.0" text-anchor="middle" font-size="11" fill="#6b7280">Mar 11</text>
<text x="770.0" y="358.0" text-anchor="middle" font-size="11" fill="#6b7280">Apr 2</text>
<line x1="72" y1="45" x2="72" y2="340" stroke="#e5e7eb" stroke-width="1"/>
<line x1="72" y1="340" x2="770" y2="340" stroke="#e5e7eb" stroke-width="1"/>
<text x="-192.5" y="18" text-anchor="middle" font-size="12" fill="#6b7280" transform="rotate(-90)">Extensions</text>
<path d="M 72.0,340 L 72.0,218.3 L 79.5,215.0 L 87.0,214.6 L 94.5,213.2 L 102.0,212.4 L 109.5,208.7 L 117.0,206.5 L 124.5,205.4 L 132.0,203.6 L 139.5,201.3 L 147.1,200.2 L 154.6,199.9 L 162.1,198.8 L 169.6,198.0 L 177.1,197.7 L 184.6,196.6 L 192.1,195.4 L 199.6,194.3 L 207.1,193.2 L 214.6,191.8 L 222.1,190.7 L 229.6,189.6 L 237.1,188.4 L 244.6,186.2 L 252.1,185.5 L 259.6,185.5 L 267.1,182.9 L 274.6,182.2 L 282.2,181.4 L 289.7,180.7 L 297.2,178.9 L 304.7,176.3 L 312.2,175.9 L 319.7,175.5 L 327.2,173.3 L 334.7,172.6 L 342.2,170.7 L 349.7,170.4 L 357.2,170.0 L 364.7,169.3 L 372.2,169.3 L 379.7,169.3 L 387.2,164.1 L 394.7,163.7 L 402.2,162.6 L 409.7,162.3 L 417.2,161.9 L 424.8,160.8 L 432.3,160.1 L 439.8,159.3 L 447.3,157.1 L 454.8,157.1 L 462.3,157.1 L 469.8,156.7 L 477.3,153.0 L 484.8,151.9 L 492.3,151.2 L 499.8,150.1 L 507.3,149.4 L 514.8,149.4 L 522.3,147.5 L 529.8,144.9 L 537.3,144.2 L 544.8,143.8 L 552.3,142.7 L 559.8,142.7 L 567.4,142.0 L 574.9,140.9 L 582.4,140.1 L 589.9,138.7 L 597.4,137.2 L 604.9,136.8 L 612.4,136.8 L 619.9,135.3 L 627.4,135.3 L 634.9,135.3 L 642.4,133.1 L 649.9,132.8 L 657.4,132.4 L 664.9,132.4 L 672.4,132.0 L 679.9,130.6 L 687.4,129.8 L 694.9,128.7 L 702.5,128.7 L 710.0,128.3 L 717.5,126.9 L 725.0,125.8 L 732.5,125.8 L 740.0,125.4 L 747.5,124.7 L 755.0,122.1 L 762.5,121.3 L 770.0,120.2 L 770.0,340 Z" fill="url(#g5)" clip-path="url(#ca)"/>
<path d="M 72.0,218.3 L 79.5,215.0 L 87.0,214.6 L 94.5,213.2 L 102.0,212.4 L 109.5,208.7 L 117.0,206.5 L 124.5,205.4 L 132.0,203.6 L 139.5,201.3 L 147.1,200.2 L 154.6,199.9 L 162.1,198.8 L 169.6,198.0 L 177.1,197.7 L 184.6,196.6 L 192.1,195.4 L 199.6,194.3 L 207.1,193.2 L 214.6,191.8 L 222.1,190.7 L 229.6,189.6 L 237.1,188.4 L 244.6,186.2 L 252.1,185.5 L 259.6,185.5 L 267.1,182.9 L 274.6,182.2 L 282.2,181.4 L 289.7,180.7 L 297.2,178.9 L 304.7,176.3 L 312.2,175.9 L 319.7,175.5 L 327.2,173.3 L 334.7,172.6 L 342.2,170.7 L 349.7,170.4 L 357.2,170.0 L 364.7,169.3 L 372.2,169.3 L 379.7,169.3 L 387.2,164.1 L 394.7,163.7 L 402.2,162.6 L 409.7,162.3 L 417.2,161.9 L 424.8,160.8 L 432.3,160.1 L 439.8,159.3 L 447.3,157.1 L 454.8,157.1 L 462.3,157.1 L 469.8,156.7 L 477.3,153.0 L 484.8,151.9 L 492.3,151.2 L 499.8,150.1 L 507.3,149.4 L 514.8,149.4 L 522.3,147.5 L 529.8,144.9 L 537.3,144.2 L 544.8,143.8 L 552.3,142.7 L 559.8,142.7 L 567.4,142.0 L 574.9,140.9 L 582.4,140.1 L 589.9,138.7 L 597.4,137.2 L 604.9,136.8 L 612.4,136.8 L 619.9,135.3 L 627.4,135.3 L 634.9,135.3 L 642.4,133.1 L 649.9,132.8 L 657.4,132.4 L 664.9,132.4 L 672.4,132.0 L 679.9,130.6 L 687.4,129.8 L 694.9,128.7 L 702.5,128.7 L 710.0,128.3 L 717.5,126.9 L 725.0,125.8 L 732.5,125.8 L 740.0,125.4 L 747.5,124.7 L 755.0,122.1 L 762.5,121.3 L 770.0,120.2" fill="none" stroke="#34C759" stroke-width="2.5" stroke-linejoin="round" clip-path="url(#ca)"/>
<path d="M 72.0,340 L 72.0,193.2 L 79.5,193.2 L 87.0,192.9 L 94.5,191.8 L 102.0,192.1 L 109.5,192.1 L 117.0,190.7 L 124.5,189.6 L 132.0,189.6 L 139.5,189.9 L 147.1,189.6 L 154.6,189.2 L 162.1,188.8 L 169.6,188.8 L 177.1,188.8 L 184.6,189.2 L 192.1,188.4 L 199.6,187.7 L 207.1,185.5 L 214.6,184.0 L 222.1,184.0 L 229.6,183.7 L 237.1,181.4 L 244.6,178.1 L 252.1,177.0 L 259.6,176.3 L 267.1,173.7 L 274.6,171.9 L 282.2,171.1 L 289.7,170.4 L 297.2,169.6 L 304.7,169.3 L 312.2,169.3 L 319.7,166.7 L 327.2,166.0 L 334.7,165.2 L 342.2,165.2 L 349.7,163.4 L 357.2,163.0 L 364.7,161.9 L 372.2,160.4 L 379.7,158.6 L 387.2,156.0 L 394.7,153.4 L 402.2,153.0 L 409.7,152.3 L 417.2,151.6 L 424.8,149.4 L 432.3,149.4 L 439.8,148.6 L 447.3,147.5 L 454.8,146.8 L 462.3,145.3 L 469.8,145.7 L 477.3,141.2 L 484.8,140.9 L 492.3,140.5 L 499.8,139.8 L 507.3,137.6 L 514.8,137.6 L 522.3,135.3 L 529.8,132.8 L 537.3,132.8 L 544.8,132.8 L 552.3,132.4 L 559.8,132.0 L 567.4,131.7 L 574.9,129.8 L 582.4,127.6 L 589.9,126.9 L 597.4,125.4 L 604.9,125.4 L 612.4,124.3 L 619.9,122.1 L 627.4,121.0 L 634.9,120.6 L 642.4,118.0 L 649.9,117.6 L 657.4,117.6 L 664.9,117.3 L 672.4,117.3 L 679.9,115.4 L 687.4,114.7 L 694.9,113.6 L 702.5,113.2 L 710.0,112.5 L 717.5,109.5 L 725.0,105.5 L 732.5,105.1 L 740.0,104.4 L 747.5,104.0 L 755.0,102.2 L 762.5,63.1 L 770.0,62.3 L 770.0,340 Z" fill="url(#g6)" clip-path="url(#ca)"/>
<path d="M 72.0,193.2 L 79.5,193.2 L 87.0,192.9 L 94.5,191.8 L 102.0,192.1 L 109.5,192.1 L 117.0,190.7 L 124.5,189.6 L 132.0,189.6 L 139.5,189.9 L 147.1,189.6 L 154.6,189.2 L 162.1,188.8 L 169.6,188.8 L 177.1,188.8 L 184.6,189.2 L 192.1,188.4 L 199.6,187.7 L 207.1,185.5 L 214.6,184.0 L 222.1,184.0 L 229.6,183.7 L 237.1,181.4 L 244.6,178.1 L 252.1,177.0 L 259.6,176.3 L 267.1,173.7 L 274.6,171.9 L 282.2,171.1 L 289.7,170.4 L 297.2,169.6 L 304.7,169.3 L 312.2,169.3 L 319.7,166.7 L 327.2,166.0 L 334.7,165.2 L 342.2,165.2 L 349.7,163.4 L 357.2,163.0 L 364.7,161.9 L 372.2,160.4 L 379.7,158.6 L 387.2,156.0 L 394.7,153.4 L 402.2,153.0 L 409.7,152.3 L 417.2,151.6 L 424.8,149.4 L 432.3,149.4 L 439.8,148.6 L 447.3,147.5 L 454.8,146.8 L 462.3,145.3 L 469.8,145.7 L 477.3,141.2 L 484.8,140.9 L 492.3,140.5 L 499.8,139.8 L 507.3,137.6 L 514.8,137.6 L 522.3,135.3 L 529.8,132.8 L 537.3,132.8 L 544.8,132.8 L 552.3,132.4 L 559.8,132.0 L 567.4,131.7 L 574.9,129.8 L 582.4,127.6 L 589.9,126.9 L 597.4,125.4 L 604.9,125.4 L 612.4,124.3 L 619.9,122.1 L 627.4,121.0 L 634.9,120.6 L 642.4,118.0 L 649.9,117.6 L 657.4,117.6 L 664.9,117.3 L 672.4,117.3 L 679.9,115.4 L 687.4,114.7 L 694.9,113.6 L 702.5,113.2 L 710.0,112.5 L 717.5,109.5 L 725.0,105.5 L 732.5,105.1 L 740.0,104.4 L 747.5,104.0 L 755.0,102.2 L 762.5,63.1 L 770.0,62.3" fill="none" stroke="#4F8EF7" stroke-width="2.5" stroke-linejoin="round" clip-path="url(#ca)"/>
<path d="M 72.0,340 L 72.0,337.8 L 79.5,337.4 L 87.0,337.4 L 94.5,337.1 L 102.0,337.1 L 109.5,337.1 L 117.0,337.1 L 124.5,337.1 L 132.0,336.3 L 139.5,336.3 L 147.1,336.3 L 154.6,336.3 L 162.1,336.3 L 169.6,335.9 L 177.1,335.9 L 184.6,335.9 L 192.1,335.9 L 199.6,335.9 L 207.1,335.6 L 214.6,334.8 L 222.1,334.5 L 229.6,334.5 L 237.1,334.5 L 244.6,334.1 L 252.1,334.1 L 259.6,334.1 L 267.1,333.7 L 274.6,333.7 L 282.2,333.7 L 289.7,333.4 L 297.2,333.4 L 304.7,333.4 L 312.2,333.4 L 319.7,333.0 L 327.2,333.0 L 334.7,333.0 L 342.2,333.0 L 349.7,333.0 L 357.2,333.0 L 364.7,333.0 L 372.2,333.0 L 379.7,333.0 L 387.2,333.0 L 394.7,333.0 L 402.2,333.0 L 409.7,333.0 L 417.2,332.6 L 424.8,332.6 L 432.3,332.6 L 439.8,332.6 L 447.3,332.6 L 454.8,332.6 L 462.3,332.6 L 469.8,332.6 L 477.3,332.6 L 484.8,332.6 L 492.3,332.6 L 499.8,332.6 L 507.3,332.3 L 514.8,332.3 L 522.3,332.3 L 529.8,332.3 L 537.3,332.3 L 544.8,332.3 L 552.3,332.3 L 559.8,332.3 L 567.4,332.3 L 574.9,332.3 L 582.4,332.3 L 589.9,332.3 L 597.4,332.3 L 604.9,332.3 L 612.4,332.3 L 619.9,332.3 L 627.4,332.3 L 634.9,332.3 L 642.4,332.3 L 649.9,332.3 L 657.4,332.3 L 664.9,332.3 L 672.4,332.3 L 679.9,332.3 L 687.4,332.3 L 694.9,332.3 L 702.5,332.3 L 710.0,332.3 L 717.5,332.3 L 725.0,332.3 L 732.5,332.3 L 740.0,332.3 L 747.5,332.3 L 755.0,332.3 L 762.5,332.3 L 770.0,332.3 L 770.0,340 Z" fill="url(#g7)" clip-path="url(#ca)"/>
<path d="M 72.0,337.8 L 79.5,337.4 L 87.0,337.4 L 94.5,337.1 L 102.0,337.1 L 109.5,337.1 L 117.0,337.1 L 124.5,337.1 L 132.0,336.3 L 139.5,336.3 L 147.1,336.3 L 154.6,336.3 L 162.1,336.3 L 169.6,335.9 L 177.1,335.9 L 184.6,335.9 L 192.1,335.9 L 199.6,335.9 L 207.1,335.6 L 214.6,334.8 L 222.1,334.5 L 229.6,334.5 L 237.1,334.5 L 244.6,334.1 L 252.1,334.1 L 259.6,334.1 L 267.1,333.7 L 274.6,333.7 L 282.2,333.7 L 289.7,333.4 L 297.2,333.4 L 304.7,333.4 L 312.2,333.4 L 319.7,333.0 L 327.2,333.0 L 334.7,333.0 L 342.2,333.0 L 349.7,333.0 L 357.2,333.0 L 364.7,333.0 L 372.2,333.0 L 379.7,333.0 L 387.2,333.0 L 394.7,333.0 L 402.2,333.0 L 409.7,333.0 L 417.2,332.6 L 424.8,332.6 L 432.3,332.6 L 439.8,332.6 L 447.3,332.6 L 454.8,332.6 L 462.3,332.6 L 469.8,332.6 L 477.3,332.6 L 484.8,332.6 L 492.3,332.6 L 499.8,332.6 L 507.3,332.3 L 514.8,332.3 L 522.3,332.3 L 529.8,332.3 L 537.3,332.3 L 544.8,332.3 L 552.3,332.3 L 559.8,332.3 L 567.4,332.3 L 574.9,332.3 L 582.4,332.3 L 589.9,332.3 L 597.4,332.3 L 604.9,332.3 L 612.4,332.3 L 619.9,332.3 L 627.4,332.3 L 634.9,332.3 L 642.4,332.3 L 649.9,332.3 L 657.4,332.3 L 664.9,332.3 L 672.4,332.3 L 679.9,332.3 L 687.4,332.3 L 694.9,332.3 L 702.5,332.3 L 710.0,332.3 L 717.5,332.3 L 725.0,332.3 L 732.5,332.3 L 740.0,332.3 L 747.5,332.3 L 755.0,332.3 L 762.5,332.3 L 770.0,332.3" fill="none" stroke="#FF6363" stroke-width="2.5" stroke-linejoin="round" clip-path="url(#ca)"/>
<text x="113.3" y="55.0" text-anchor="middle" font-size="9" fill="#34C759" opacity="0.85" clip-path="url(#ca)">+15.2% (+50)</text>
<text x="113.3" y="66.0" text-anchor="middle" font-size="9" fill="#4F8EF7" opacity="0.85" clip-path="url(#ca)">+2.8% (+11)</text>
<text x="113.3" y="77.0" text-anchor="middle" font-size="9" fill="#FF6363" opacity="0.85" clip-path="url(#ca)">+66.7% (+4)</text>
<text x="255.9" y="55.0" text-anchor="middle" font-size="9" fill="#34C759" opacity="0.85" clip-path="url(#ca)">+20.1% (+77)</text>
<text x="255.9" y="66.0" text-anchor="middle" font-size="9" fill="#4F8EF7" opacity="0.85" clip-path="url(#ca)">+16.8% (+69)</text>
<text x="255.9" y="77.0" text-anchor="middle" font-size="9" fill="#FF6363" opacity="0.85" clip-path="url(#ca)">+90.0% (+9)</text>
<text x="454.8" y="55.0" text-anchor="middle" font-size="9" fill="#34C759" opacity="0.85" clip-path="url(#ca)">+16.1% (+74)</text>
<text x="454.8" y="66.0" text-anchor="middle" font-size="9" fill="#4F8EF7" opacity="0.85" clip-path="url(#ca)">+17.3% (+83)</text>
<text x="454.8" y="77.0" text-anchor="middle" font-size="9" fill="#FF6363" opacity="0.85" clip-path="url(#ca)">+10.5% (+2)</text>
<text x="657.4" y="55.0" text-anchor="middle" font-size="9" fill="#34C759" opacity="0.85" clip-path="url(#ca)">+10.5% (+56)</text>
<text x="657.4" y="66.0" text-anchor="middle" font-size="9" fill="#4F8EF7" opacity="0.85" clip-path="url(#ca)">+14.4% (+81)</text>
<text x="657.4" y="77.0" text-anchor="middle" font-size="9" fill="#FF6363" opacity="0.85" clip-path="url(#ca)">+0.0% (+0)</text>
<text x="766.2" y="55.0" text-anchor="middle" font-size="9" fill="#34C759" opacity="0.85" clip-path="url(#ca)">+0.5% (+3)</text>
<text x="766.2" y="66.0" text-anchor="middle" font-size="9" fill="#4F8EF7" opacity="0.85" clip-path="url(#ca)">+0.3% (+2)</text>
<text x="766.2" y="77.0" text-anchor="middle" font-size="9" fill="#FF6363" opacity="0.85" clip-path="url(#ca)">+0.0% (+0)</text>
<rect x="211" y="369" width="12" height="12" fill="#34C759" rx="2"/>
<text x="227" y="379" font-size="12" fill="#111827">macOS + Windows</text>
<rect x="351" y="369" width="12" height="12" fill="#4F8EF7" rx="2"/>
<text x="367" y="379" font-size="12" fill="#111827">macOS only</text>
<rect x="491" y="369" width="12" height="12" fill="#FF6363" rx="2"/>
<text x="507" y="379" font-size="12" fill="#111827">Windows only</text>
<text x="72" y="394" font-size="8" fill="#e5e7eb">data since Dec 11, 2025</text>
</svg>