<svg xmlns="http://www.w3.org/2000/svg" width="800" height="400" viewBox="0 0 800 400">
<defs>
  <style>text { font-family: -apple-system, BlinkMacSystemFont, 'Segoe UI', Roboto, sans-serif; }</style>
  <linearGradient id="g1" x1="0" y1="0" x2="0" y2="1">
  <stop offset="0%" stop-color="#FF6363" stop-opacity="0.25"/>
  <stop offset="100%" stop-color="#FF6363" stop-opacity="0"/>
</linearGradient>
  <clipPath id="ca"><rect x="72" y="45" width="698" height="295"/></clipPath>
</defs>
<rect width="800" height="400" fill="#ffffff" rx="12"/>
<text x="400" y="26" text-anchor="middle" font-size="15" font-weight="600" fill="#111827">Packages Growth Over Time</text>
<line x1="72" y1="340.0" x2="770" y2="340.0" stroke="#f3f4f6" stroke-width="1"/>
<text x="66" y="344.0" text-anchor="end" font-size="11" fill="#6b7280">2.4k</text>
<line x1="72" y1="281.0" x2="770" y2="281.0" stroke="#f3f4f6" stroke-width="1"/>
<text x="66" y="285.0" text-anchor="end" font-size="11" fill="#6b7280">2.5k</text>
<line x1="72" y1="222.0" x2="770" y2="222.0" stroke="#f3f4f6" stroke-width="1"/>
<text x="66" y="226.0" text-anchor="end" font-size="11" fill="#6b7280">2.6k</text>
<line x1="72" y1="163.0" x2="770" y2="163.0" stroke="#f3f4f6" stroke-width="1"/>
<text x="66" y="167.0" text-anchor="end" font-size="11" fill="#6b7280">2.7k</text>
<line x1="72" y1="104.0" x2="770" y2="104.0" stroke="#f3f4f6" stroke-width="1"/>
<text x="66" y="108.0" text-anchor="end" font-size="11" fill="#6b7280">2.8k</text>
<line x1="72" y1="45.0" x2="770" y2="45.0" stroke="#f3f4f6" stroke-width="1"/>
<text x="66" y="49.0" text-anchor="end" font-size="11" fill="#6b7280">2.9k</text>
<line x1="139.0" y1="45" x2="139.0" y2="340" stroke="#e5e7eb" stroke-width="1" stroke-dasharray="3,3" clip-path="url(#ca)"/>
<line x1="284.2" y1="45" x2="284.2" y2="340" stroke="#e5e7eb" stroke-width="1" stroke-dasharray="3,3" clip-path="url(#ca)"/>
<line x1="435.0" y1="45" x2="435.0" y2="340" stroke="#e5e7eb" stroke-width="1" stroke-dasharray="3,3" clip-path="url(#ca)"/>
<line x1="585.7" y1="45" x2="585.7" y2="340" stroke="#e5e7eb" stroke-width="1" stroke-dasharray="3,3" clip-path="url(#ca)"/>
<line x1="736.5" y1="45" x2="736.5" y2="340" stroke="#e5e7eb" stroke-width="1" stroke-dasharray="3,3" clip-path="url(#ca)"/>
<text x="72.0" y="358.0" text-anchor="middle" font-size="11" fill="#6b7280">Dec 11</text>
<text x="211.6" y="358.0" text-anchor="middle" font-size="11" fill="#6b7280">Jan 18</text>
<text x="351.2" y="358.0" text-anchor="middle" font-size="11" fill="#6b7280">Feb 13</text>
<text x="490.8" y="358.0" text-anchor="middle" font-size="11" fill="#6b7280">Mar 12</text>
<text x="630.4" y="358.0" text-anchor="middle" font-size="11" fill="#6b7280">Apr 10</text>
<text x="770.0" y="358.0" text-anchor="middle" font-size="11" fill="#6b7280">May 10</text>
<line x1="72" y1="45" x2="72" y2="340" stroke="#e5e7eb" stroke-width="1"/>
<line x1="72" y1="340" x2="770" y2="340" stroke="#e5e7eb" stroke-width="1"/>
<text x="-192.5" y="18" text-anchor="middle" font-size="12" fill="#6b7280" transform="rotate(-90)">Extensions</text>
<path d="M 72.0,340 L 72.0,294.6 L 77.6,294.0 L 83.2,294.0 L 88.8,292.2 L 94.3,292.2 L 99.9,291.0 L 105.5,289.9 L 111.1,289.3 L 116.7,286.3 L 122.3,283.9 L 127.8,283.9 L 133.4,283.9 L 139.0,283.9 L 144.6,282.8 L 150.2,282.8 L 155.8,282.8 L 161.3,281.6 L 166.9,279.2 L 172.5,275.1 L 178.1,272.1 L 183.7,271.0 L 189.3,270.4 L 194.8,268.0 L 200.4,260.9 L 206.0,258.6 L 211.6,258.6 L 217.2,252.7 L 222.8,250.9 L 228.4,248.6 L 233.9,246.8 L 239.5,243.2 L 245.1,240.3 L 250.7,239.7 L 256.3,235.0 L 261.9,230.8 L 267.4,230.8 L 273.0,227.9 L 278.6,225.5 L 284.2,224.9 L 289.8,224.4 L 295.4,223.8 L 300.9,222.0 L 306.5,211.4 L 312.1,206.7 L 317.7,204.3 L 323.3,203.1 L 328.9,201.3 L 334.4,197.2 L 340.0,196.0 L 345.6,194.9 L 351.2,191.3 L 356.8,190.1 L 362.4,189.0 L 368.0,189.0 L 373.5,178.3 L 379.1,177.2 L 384.7,176.0 L 390.3,173.6 L 395.9,170.7 L 401.5,170.7 L 407.0,166.0 L 412.6,158.3 L 418.2,157.1 L 423.8,157.7 L 429.4,155.9 L 435.0,155.3 L 440.5,155.3 L 446.1,151.8 L 451.7,148.8 L 457.3,146.5 L 462.9,143.5 L 468.5,142.9 L 474.0,142.9 L 479.6,138.8 L 485.2,137.6 L 490.8,137.0 L 496.4,130.0 L 502.0,129.4 L 507.6,129.4 L 513.1,129.4 L 518.7,128.8 L 524.3,125.8 L 529.9,123.5 L 535.5,120.5 L 541.1,119.9 L 546.6,118.2 L 552.2,112.8 L 557.8,108.1 L 563.4,107.5 L 569.0,106.9 L 574.6,105.2 L 580.1,99.3 L 585.7,98.1 L 591.3,96.3 L 596.9,92.8 L 602.5,92.2 L 608.1,91.6 L 613.6,91.6 L 619.2,90.4 L 624.8,86.9 L 630.4,85.7 L 636.0,84.5 L 641.6,83.9 L 647.2,82.8 L 652.7,76.9 L 658.3,76.3 L 663.9,75.1 L 669.5,74.5 L 675.1,71.6 L 680.7,71.0 L 686.2,70.4 L 691.8,68.6 L 697.4,66.2 L 703.0,66.2 L 708.6,66.2 L 714.2,66.2 L 719.7,65.1 L 725.3,62.1 L 730.9,61.5 L 736.5,58.6 L 742.1,58.0 L 747.7,57.4 L 753.2,53.9 L 758.8,50.3 L 764.4,49.7 L 770.0,49.1 L 770.0,340 Z" fill="url(#g1)" clip-path="url(#ca)"/>
<path d="M 72.0,294.6 L 77.6,294.0 L 83.2,294.0 L 88.8,292.2 L 94.3,292.2 L 99.9,291.0 L 105.5,289.9 L 111.1,289.3 L 116.7,286.3 L 122.3,283.9 L 127.8,283.9 L 133.4,283.9 L 139.0,283.9 L 144.6,282.8 L 150.2,282.8 L 155.8,282.8 L 161.3,281.6 L 166.9,279.2 L 172.5,275.1 L 178.1,272.1 L 183.7,271.0 L 189.3,270.4 L 194.8,268.0 L 200.4,260.9 L 206.0,258.6 L 211.6,258.6 L 217.2,252.7 L 222.8,250.9 L 228.4,248.6 L 233.9,246.8 L 239.5,243.2 L 245.1,240.3 L 250.7,239.7 L 256.3,235.0 L 261.9,230.8 L 267.4,230.8 L 273.0,227.9 L 278.6,225.5 L 284.2,224.9 L 289.8,224.4 L 295.4,223.8 L 300.9,222.0 L 306.5,211.4 L 312.1,206.7 L 317.7,204.3 L 323.3,203.1 L 328.9,201.3 L 334.4,197.2 L 340.0,196.0 L 345.6,194.9 L 351.2,191.3 L 356.8,190.1 L 362.4,189.0 L 368.0,189.0 L 373.5,178.3 L 379.1,177.2 L 384.7,176.0 L 390.3,173.6 L 395.9,170.7 L 401.5,170.7 L 407.0,166.0 L 412.6,158.3 L 418.2,157.1 L 423.8,157.7 L 429.4,155.9 L 435.0,155.3 L 440.5,155.3 L 446.1,151.8 L 451.7,148.8 L 457.3,146.5 L 462.9,143.5 L 468.5,142.9 L 474.0,142.9 L 479.6,138.8 L 485.2,137.6 L 490.8,137.0 L 496.4,130.0 L 502.0,129.4 L 507.6,129.4 L 513.1,129.4 L 518.7,128.8 L 524.3,125.8 L 529.9,123.5 L 535.5,120.5 L 541.1,119.9 L 546.6,118.2 L 552.2,112.8 L 557.8,108.1 L 563.4,107.5 L 569.0,106.9 L 574.6,105.2 L 580.1,99.3 L 585.7,98.1 L 591.3,96.3 L 596.9,92.8 L 602.5,92.2 L 608.1,91.6 L 613.6,91.6 L 619.2,90.4 L 624.8,86.9 L 630.4,85.7 L 636.0,84.5 L 641.6,83.9 L 647.2,82.8 L 652.7,76.9 L 658.3,76.3 L 663.9,75.1 L 669.5,74.5 L 675.1,71.6 L 680.7,71.0 L 686.2,70.4 L 691.8,68.6 L 697.4,66.2 L 703.0,66.2 L 708.6,66.2 L 714.2,66.2 L 719.7,65.1 L 725.3,62.1 L 730.9,61.5 L 736.5,58.6 L 742.1,58.0 L 747.7,57.4 L 753.2,53.9 L 758.8,50.3 L 764.4,49.7 L 770.0,49.1" fill="none" stroke="#FF6363" stroke-width="2.5" stroke-linejoin="round" clip-path="url(#ca)"/>
<text x="102.7" y="55.0" text-anchor="middle" font-size="9" fill="#FF6363" opacity="0.85" clip-path="url(#ca)">+0.7% (+18)</text>
<text x="208.8" y="55.0" text-anchor="middle" font-size="9" fill="#FF6363" opacity="0.85" clip-path="url(#ca)">+4.0% (+99)</text>
<text x="356.8" y="55.0" text-anchor="middle" font-size="9" fill="#FF6363" opacity="0.85" clip-path="url(#ca)">+4.5% (+117)</text>
<text x="507.6" y="55.0" text-anchor="middle" font-size="9" fill="#FF6363" opacity="0.85" clip-path="url(#ca)">+3.5% (+95)</text>
<text x="658.3" y="55.0" text-anchor="middle" font-size="9" fill="#FF6363" opacity="0.85" clip-path="url(#ca)">+2.2% (+62)</text>
<text x="753.2" y="55.0" text-anchor="middle" font-size="9" fill="#FF6363" opacity="0.85" clip-path="url(#ca)">+0.6% (+16)</text>
<rect x="351" y="369" width="12" height="12" fill="#FF6363" rx="2"/>
<text x="367" y="379" font-size="12" fill="#111827">Extensions</text>
<text x="72" y="394" font-size="8" fill="#e5e7eb">data since Dec 11, 2025</text>
</svg>