<svg xmlns="http://www.w3.org/2000/svg" width="800" height="400" viewBox="0 0 800 400">
<defs>
  <style>text { font-family: -apple-system, BlinkMacSystemFont, 'Segoe UI', Roboto, sans-serif; }</style>
  <linearGradient id="g5" x1="0" y1="0" x2="0" y2="1">
  <stop offset="0%" stop-color="#34C759" stop-opacity="0.25"/>
  <stop offset="100%" stop-color="#34C759" stop-opacity="0"/>
</linearGradient>
<linearGradient id="g6" x1="0" y1="0" x2="0" y2="1">
  <stop offset="0%" stop-color="#4F8EF7" stop-opacity="0.25"/>
  <stop offset="100%" stop-color="#4F8EF7" stop-opacity="0"/>
</linearGradient>
<linearGradient id="g7" x1="0" y1="0" x2="0" y2="1">
  <stop offset="0%" stop-color="#FF6363" stop-opacity="0.25"/>
  <stop offset="100%" stop-color="#FF6363" stop-opacity="0"/>
</linearGradient>
  <clipPath id="ca"><rect x="72" y="45" width="698" height="295"/></clipPath>
</defs>
<rect width="800" height="400" fill="#ffffff" rx="12"/>
<text x="400" y="26" text-anchor="middle" font-size="15" font-weight="600" fill="#111827">Platform Support Over Time</text>
<line x1="72" y1="340.0" x2="770" y2="340.0" stroke="#f3f4f6" stroke-width="1"/>
<text x="66" y="344.0" text-anchor="end" font-size="11" fill="#6b7280">0</text>
<line x1="72" y1="281.0" x2="770" y2="281.0" stroke="#f3f4f6" stroke-width="1"/>
<text x="66" y="285.0" text-anchor="end" font-size="11" fill="#6b7280">200</text>
<line x1="72" y1="222.0" x2="770" y2="222.0" stroke="#f3f4f6" stroke-width="1"/>
<text x="66" y="226.0" text-anchor="end" font-size="11" fill="#6b7280">400</text>
<line x1="72" y1="163.0" x2="770" y2="163.0" stroke="#f3f4f6" stroke-width="1"/>
<text x="66" y="167.0" text-anchor="end" font-size="11" fill="#6b7280">600</text>
<line x1="72" y1="104.0" x2="770" y2="104.0" stroke="#f3f4f6" stroke-width="1"/>
<text x="66" y="108.0" text-anchor="end" font-size="11" fill="#6b7280">800</text>
<line x1="72" y1="45.0" x2="770" y2="45.0" stroke="#f3f4f6" stroke-width="1"/>
<text x="66" y="49.0" text-anchor="end" font-size="11" fill="#6b7280">1.0k</text>
<line x1="118.8" y1="45" x2="118.8" y2="340" stroke="#e5e7eb" stroke-width="1" stroke-dasharray="3,3" clip-path="url(#ca)"/>
<line x1="220.2" y1="45" x2="220.2" y2="340" stroke="#e5e7eb" stroke-width="1" stroke-dasharray="3,3" clip-path="url(#ca)"/>
<line x1="325.5" y1="45" x2="325.5" y2="340" stroke="#e5e7eb" stroke-width="1" stroke-dasharray="3,3" clip-path="url(#ca)"/>
<line x1="430.7" y1="45" x2="430.7" y2="340" stroke="#e5e7eb" stroke-width="1" stroke-dasharray="3,3" clip-path="url(#ca)"/>
<line x1="536.0" y1="45" x2="536.0" y2="340" stroke="#e5e7eb" stroke-width="1" stroke-dasharray="3,3" clip-path="url(#ca)"/>
<line x1="637.4" y1="45" x2="637.4" y2="340" stroke="#e5e7eb" stroke-width="1" stroke-dasharray="3,3" clip-path="url(#ca)"/>
<line x1="731.0" y1="45" x2="731.0" y2="340" stroke="#e5e7eb" stroke-width="1" stroke-dasharray="3,3" clip-path="url(#ca)"/>
<text x="72.0" y="358.0" text-anchor="middle" font-size="11" fill="#6b7280">Dec 11</text>
<text x="212.4" y="358.0" text-anchor="middle" font-size="11" fill="#6b7280">Jan 30</text>
<text x="352.8" y="358.0" text-anchor="middle" font-size="11" fill="#6b7280">Mar 9</text>
<text x="489.2" y="358.0" text-anchor="middle" font-size="11" fill="#6b7280">Apr 17</text>
<text x="629.6" y="358.0" text-anchor="middle" font-size="11" fill="#6b7280">May 30</text>
<text x="770.0" y="358.0" text-anchor="middle" font-size="11" fill="#6b7280">Jul 13</text>
<line x1="72" y1="45" x2="72" y2="340" stroke="#e5e7eb" stroke-width="1"/>
<line x1="72" y1="340" x2="770" y2="340" stroke="#e5e7eb" stroke-width="1"/>
<text x="-192.5" y="18" text-anchor="middle" font-size="12" fill="#6b7280" transform="rotate(-90)">Extensions</text>
<path d="M 72.0,340 L 72.0,242.6 L 75.9,240.0 L 79.8,239.7 L 83.7,238.5 L 87.6,237.9 L 91.5,235.0 L 95.4,233.2 L 99.3,232.3 L 103.2,230.8 L 107.1,229.1 L 111.0,228.2 L 114.9,227.9 L 118.8,227.0 L 122.7,226.4 L 126.6,226.1 L 130.5,225.2 L 134.4,224.4 L 138.3,223.5 L 142.2,222.6 L 146.1,221.4 L 150.0,220.5 L 153.9,219.6 L 157.8,218.8 L 161.7,217.0 L 165.6,216.4 L 169.5,216.4 L 173.4,214.3 L 177.3,213.7 L 181.2,213.2 L 185.1,212.6 L 189.0,211.1 L 192.9,209.0 L 196.8,208.7 L 200.7,208.4 L 204.6,206.7 L 208.5,206.1 L 212.4,204.6 L 216.3,204.3 L 220.2,204.0 L 224.1,203.4 L 228.0,203.4 L 231.9,203.4 L 235.8,199.3 L 239.7,199.0 L 243.6,198.1 L 247.5,197.8 L 251.4,197.5 L 255.3,196.6 L 259.2,196.0 L 263.1,195.4 L 267.0,193.7 L 270.9,193.7 L 274.8,193.7 L 278.7,193.4 L 282.6,190.4 L 286.5,189.6 L 290.4,189.0 L 294.3,188.1 L 298.2,187.5 L 302.1,187.5 L 306.0,186.0 L 309.9,183.9 L 313.8,183.4 L 317.7,183.1 L 321.6,182.2 L 325.5,182.2 L 329.4,181.6 L 333.3,180.7 L 337.2,180.1 L 341.1,178.9 L 345.0,177.8 L 348.9,177.5 L 352.8,177.5 L 356.7,176.3 L 360.6,176.3 L 364.5,176.3 L 368.4,174.5 L 372.3,174.2 L 376.2,173.9 L 380.1,173.9 L 384.0,173.6 L 387.9,172.4 L 391.8,171.9 L 395.7,171.0 L 399.6,171.0 L 403.5,170.7 L 407.4,169.5 L 411.3,168.6 L 415.2,168.6 L 419.1,168.3 L 422.9,167.7 L 426.8,165.7 L 430.7,165.1 L 434.6,164.2 L 438.5,164.2 L 442.4,163.6 L 446.3,163.3 L 450.2,163.0 L 454.1,162.7 L 458.0,162.4 L 461.9,162.4 L 465.8,162.1 L 469.7,161.8 L 473.6,160.9 L 477.5,159.8 L 481.4,159.5 L 485.3,158.6 L 489.2,158.6 L 493.1,157.4 L 497.0,157.1 L 500.9,157.1 L 504.8,157.1 L 508.7,156.2 L 512.6,155.9 L 516.5,155.9 L 520.4,155.9 L 524.3,155.6 L 528.2,154.4 L 532.1,154.2 L 536.0,153.3 L 539.9,152.7 L 543.8,152.7 L 547.7,151.8 L 551.6,151.2 L 555.5,151.2 L 559.4,150.9 L 563.3,149.4 L 567.2,148.0 L 571.1,147.7 L 575.0,147.1 L 578.9,145.9 L 582.8,145.9 L 586.7,145.3 L 590.6,143.8 L 594.5,141.2 L 598.4,140.3 L 602.3,140.3 L 606.2,140.3 L 610.1,140.3 L 614.0,140.3 L 617.9,139.1 L 621.8,138.2 L 625.7,138.2 L 629.6,138.2 L 633.5,138.2 L 637.4,137.3 L 641.3,137.3 L 645.2,136.5 L 649.1,135.6 L 653.0,135.3 L 656.9,135.0 L 660.8,134.4 L 664.7,134.4 L 668.6,133.5 L 672.5,132.3 L 676.4,131.4 L 680.3,129.7 L 684.2,129.1 L 688.1,128.8 L 692.0,128.5 L 695.9,127.9 L 699.8,127.6 L 703.7,126.1 L 707.6,125.2 L 711.5,123.8 L 715.4,123.5 L 719.3,123.5 L 723.2,123.2 L 727.1,122.0 L 731.0,121.7 L 734.9,121.4 L 738.8,121.1 L 742.7,119.9 L 746.6,119.6 L 750.5,118.2 L 754.4,117.3 L 758.3,117.0 L 762.2,115.2 L 766.1,115.2 L 770.0,115.2 L 770.0,340 Z" fill="url(#g5)" clip-path="url(#ca)"/>
<path d="M 72.0,242.6 L 75.9,240.0 L 79.8,239.7 L 83.7,238.5 L 87.6,237.9 L 91.5,235.0 L 95.4,233.2 L 99.3,232.3 L 103.2,230.8 L 107.1,229.1 L 111.0,228.2 L 114.9,227.9 L 118.8,227.0 L 122.7,226.4 L 126.6,226.1 L 130.5,225.2 L 134.4,224.4 L 138.3,223.5 L 142.2,222.6 L 146.1,221.4 L 150.0,220.5 L 153.9,219.6 L 157.8,218.8 L 161.7,217.0 L 165.6,216.4 L 169.5,216.4 L 173.4,214.3 L 177.3,213.7 L 181.2,213.2 L 185.1,212.6 L 189.0,211.1 L 192.9,209.0 L 196.8,208.7 L 200.7,208.4 L 204.6,206.7 L 208.5,206.1 L 212.4,204.6 L 216.3,204.3 L 220.2,204.0 L 224.1,203.4 L 228.0,203.4 L 231.9,203.4 L 235.8,199.3 L 239.7,199.0 L 243.6,198.1 L 247.5,197.8 L 251.4,197.5 L 255.3,196.6 L 259.2,196.0 L 263.1,195.4 L 267.0,193.7 L 270.9,193.7 L 274.8,193.7 L 278.7,193.4 L 282.6,190.4 L 286.5,189.6 L 290.4,189.0 L 294.3,188.1 L 298.2,187.5 L 302.1,187.5 L 306.0,186.0 L 309.9,183.9 L 313.8,183.4 L 317.7,183.1 L 321.6,182.2 L 325.5,182.2 L 329.4,181.6 L 333.3,180.7 L 337.2,180.1 L 341.1,178.9 L 345.0,177.8 L 348.9,177.5 L 352.8,177.5 L 356.7,176.3 L 360.6,176.3 L 364.5,176.3 L 368.4,174.5 L 372.3,174.2 L 376.2,173.9 L 380.1,173.9 L 384.0,173.6 L 387.9,172.4 L 391.8,171.9 L 395.7,171.0 L 399.6,171.0 L 403.5,170.7 L 407.4,169.5 L 411.3,168.6 L 415.2,168.6 L 419.1,168.3 L 422.9,167.7 L 426.8,165.7 L 430.7,165.1 L 434.6,164.2 L 438.5,164.2 L 442.4,163.6 L 446.3,163.3 L 450.2,163.0 L 454.1,162.7 L 458.0,162.4 L 461.9,162.4 L 465.8,162.1 L 469.7,161.8 L 473.6,160.9 L 477.5,159.8 L 481.4,159.5 L 485.3,158.6 L 489.2,158.6 L 493.1,157.4 L 497.0,157.1 L 500.9,157.1 L 504.8,157.1 L 508.7,156.2 L 512.6,155.9 L 516.5,155.9 L 520.4,155.9 L 524.3,155.6 L 528.2,154.4 L 532.1,154.2 L 536.0,153.3 L 539.9,152.7 L 543.8,152.7 L 547.7,151.8 L 551.6,151.2 L 555.5,151.2 L 559.4,150.9 L 563.3,149.4 L 567.2,148.0 L 571.1,147.7 L 575.0,147.1 L 578.9,145.9 L 582.8,145.9 L 586.7,145.3 L 590.6,143.8 L 594.5,141.2 L 598.4,140.3 L 602.3,140.3 L 606.2,140.3 L 610.1,140.3 L 614.0,140.3 L 617.9,139.1 L 621.8,138.2 L 625.7,138.2 L 629.6,138.2 L 633.5,138.2 L 637.4,137.3 L 641.3,137.3 L 645.2,136.5 L 649.1,135.6 L 653.0,135.3 L 656.9,135.0 L 660.8,134.4 L 664.7,134.4 L 668.6,133.5 L 672.5,132.3 L 676.4,131.4 L 680.3,129.7 L 684.2,129.1 L 688.1,128.8 L 692.0,128.5 L 695.9,127.9 L 699.8,127.6 L 703.7,126.1 L 707.6,125.2 L 711.5,123.8 L 715.4,123.5 L 719.3,123.5 L 723.2,123.2 L 727.1,122.0 L 731.0,121.7 L 734.9,121.4 L 738.8,121.1 L 742.7,119.9 L 746.6,119.6 L 750.5,118.2 L 754.4,117.3 L 758.3,117.0 L 762.2,115.2 L 766.1,115.2 L 770.0,115.2" fill="none" stroke="#34C759" stroke-width="2.5" stroke-linejoin="round" clip-path="url(#ca)"/>
<path d="M 72.0,340 L 72.0,222.6 L 75.9,222.6 L 79.8,222.3 L 83.7,221.4 L 87.6,221.7 L 91.5,221.7 L 95.4,220.5 L 99.3,219.6 L 103.2,219.6 L 107.1,219.9 L 111.0,219.6 L 114.9,219.3 L 118.8,219.1 L 122.7,219.1 L 126.6,219.1 L 130.5,219.3 L 134.4,218.8 L 138.3,218.2 L 142.2,216.4 L 146.1,215.2 L 150.0,215.2 L 153.9,214.9 L 157.8,213.2 L 161.7,210.5 L 165.6,209.6 L 169.5,209.0 L 173.4,207.0 L 177.3,205.5 L 181.2,204.9 L 185.1,204.3 L 189.0,203.7 L 192.9,203.4 L 196.8,203.4 L 200.7,201.3 L 204.6,200.8 L 208.5,200.2 L 212.4,200.2 L 216.3,198.7 L 220.2,198.4 L 224.1,197.5 L 228.0,196.3 L 231.9,194.9 L 235.8,192.8 L 239.7,190.7 L 243.6,190.4 L 247.5,189.8 L 251.4,189.3 L 255.3,187.5 L 259.2,187.5 L 263.1,186.9 L 267.0,186.0 L 270.9,185.4 L 274.8,184.2 L 278.7,184.5 L 282.6,181.0 L 286.5,180.7 L 290.4,180.4 L 294.3,179.8 L 298.2,178.0 L 302.1,178.0 L 306.0,176.3 L 309.9,174.2 L 313.8,174.2 L 317.7,174.2 L 321.6,173.9 L 325.5,173.6 L 329.4,173.3 L 333.3,171.9 L 337.2,170.1 L 341.1,169.5 L 345.0,168.3 L 348.9,168.3 L 352.8,167.4 L 356.7,165.7 L 360.6,164.8 L 364.5,164.5 L 368.4,162.4 L 372.3,162.1 L 376.2,162.1 L 380.1,161.8 L 384.0,161.8 L 387.9,160.3 L 391.8,159.8 L 395.7,158.9 L 399.6,158.6 L 403.5,158.0 L 407.4,155.6 L 411.3,152.4 L 415.2,152.1 L 419.1,151.5 L 422.9,151.2 L 426.8,149.7 L 430.7,118.5 L 434.6,117.9 L 438.5,116.4 L 442.4,116.4 L 446.3,116.4 L 450.2,116.7 L 454.1,116.4 L 458.0,114.6 L 461.9,114.0 L 465.8,113.7 L 469.7,113.4 L 473.6,112.3 L 477.5,110.5 L 481.4,110.5 L 485.3,110.5 L 489.2,110.2 L 493.1,109.9 L 497.0,109.9 L 500.9,109.3 L 504.8,108.4 L 508.7,106.9 L 512.6,106.4 L 516.5,106.1 L 520.4,106.1 L 524.3,105.8 L 528.2,105.2 L 532.1,104.9 L 536.0,103.4 L 539.9,103.4 L 543.8,102.8 L 547.7,101.6 L 551.6,100.2 L 555.5,99.9 L 559.4,99.6 L 563.3,96.9 L 567.2,96.3 L 571.1,95.7 L 575.0,95.7 L 578.9,94.6 L 582.8,94.0 L 586.7,92.5 L 590.6,91.9 L 594.5,91.0 L 598.4,90.7 L 602.3,89.5 L 606.2,88.7 L 610.1,88.4 L 614.0,87.8 L 617.9,86.6 L 621.8,86.0 L 625.7,85.1 L 629.6,84.5 L 633.5,84.2 L 637.4,83.6 L 641.3,82.8 L 645.2,82.2 L 649.1,81.6 L 653.0,80.7 L 656.9,80.7 L 660.8,80.1 L 664.7,78.6 L 668.6,77.2 L 672.5,76.3 L 676.4,76.6 L 680.3,76.0 L 684.2,75.7 L 688.1,75.4 L 692.0,74.8 L 695.9,73.3 L 699.8,73.3 L 703.7,73.0 L 707.6,72.1 L 711.5,71.3 L 715.4,70.1 L 719.3,69.5 L 723.2,69.5 L 727.1,68.6 L 731.0,68.0 L 734.9,67.4 L 738.8,66.5 L 742.7,65.9 L 746.6,65.9 L 750.5,65.6 L 754.4,66.2 L 758.3,65.6 L 762.2,64.2 L 766.1,63.3 L 770.0,62.7 L 770.0,340 Z" fill="url(#g6)" clip-path="url(#ca)"/>
<path d="M 72.0,222.6 L 75.9,222.6 L 79.8,222.3 L 83.7,221.4 L 87.6,221.7 L 91.5,221.7 L 95.4,220.5 L 99.3,219.6 L 103.2,219.6 L 107.1,219.9 L 111.0,219.6 L 114.9,219.3 L 118.8,219.1 L 122.7,219.1 L 126.6,219.1 L 130.5,219.3 L 134.4,218.8 L 138.3,218.2 L 142.2,216.4 L 146.1,215.2 L 150.0,215.2 L 153.9,214.9 L 157.8,213.2 L 161.7,210.5 L 165.6,209.6 L 169.5,209.0 L 173.4,207.0 L 177.3,205.5 L 181.2,204.9 L 185.1,204.3 L 189.0,203.7 L 192.9,203.4 L 196.8,203.4 L 200.7,201.3 L 204.6,200.8 L 208.5,200.2 L 212.4,200.2 L 216.3,198.7 L 220.2,198.4 L 224.1,197.5 L 228.0,196.3 L 231.9,194.9 L 235.8,192.8 L 239.7,190.7 L 243.6,190.4 L 247.5,189.8 L 251.4,189.3 L 255.3,187.5 L 259.2,187.5 L 263.1,186.9 L 267.0,186.0 L 270.9,185.4 L 274.8,184.2 L 278.7,184.5 L 282.6,181.0 L 286.5,180.7 L 290.4,180.4 L 294.3,179.8 L 298.2,178.0 L 302.1,178.0 L 306.0,176.3 L 309.9,174.2 L 313.8,174.2 L 317.7,174.2 L 321.6,173.9 L 325.5,173.6 L 329.4,173.3 L 333.3,171.9 L 337.2,170.1 L 341.1,169.5 L 345.0,168.3 L 348.9,168.3 L 352.8,167.4 L 356.7,165.7 L 360.6,164.8 L 364.5,164.5 L 368.4,162.4 L 372.3,162.1 L 376.2,162.1 L 380.1,161.8 L 384.0,161.8 L 387.9,160.3 L 391.8,159.8 L 395.7,158.9 L 399.6,158.6 L 403.5,158.0 L 407.4,155.6 L 411.3,152.4 L 415.2,152.1 L 419.1,151.5 L 422.9,151.2 L 426.8,149.7 L 430.7,118.5 L 434.6,117.9 L 438.5,116.4 L 442.4,116.4 L 446.3,116.4 L 450.2,116.7 L 454.1,116.4 L 458.0,114.6 L 461.9,114.0 L 465.8,113.7 L 469.7,113.4 L 473.6,112.3 L 477.5,110.5 L 481.4,110.5 L 485.3,110.5 L 489.2,110.2 L 493.1,109.9 L 497.0,109.9 L 500.9,109.3 L 504.8,108.4 L 508.7,106.9 L 512.6,106.4 L 516.5,106.1 L 520.4,106.1 L 524.3,105.8 L 528.2,105.2 L 532.1,104.9 L 536.0,103.4 L 539.9,103.4 L 543.8,102.8 L 547.7,101.6 L 551.6,100.2 L 555.5,99.9 L 559.4,99.6 L 563.3,96.9 L 567.2,96.3 L 571.1,95.7 L 575.0,95.7 L 578.9,94.6 L 582.8,94.0 L 586.7,92.5 L 590.6,91.9 L 594.5,91.0 L 598.4,90.7 L 602.3,89.5 L 606.2,88.7 L 610.1,88.4 L 614.0,87.8 L 617.9,86.6 L 621.8,86.0 L 625.7,85.1 L 629.6,84.5 L 633.5,84.2 L 637.4,83.6 L 641.3,82.8 L 645.2,82.2 L 649.1,81.6 L 653.0,80.7 L 656.9,80.7 L 660.8,80.1 L 664.7,78.6 L 668.6,77.2 L 672.5,76.3 L 676.4,76.6 L 680.3,76.0 L 684.2,75.7 L 688.1,75.4 L 692.0,74.8 L 695.9,73.3 L 699.8,73.3 L 703.7,73.0 L 707.6,72.1 L 711.5,71.3 L 715.4,70.1 L 719.3,69.5 L 723.2,69.5 L 727.1,68.6 L 731.0,68.0 L 734.9,67.4 L 738.8,66.5 L 742.7,65.9 L 746.6,65.9 L 750.5,65.6 L 754.4,66.2 L 758.3,65.6 L 762.2,64.2 L 766.1,63.3 L 770.0,62.7" fill="none" stroke="#4F8EF7" stroke-width="2.5" stroke-linejoin="round" clip-path="url(#ca)"/>
<path d="M 72.0,340 L 72.0,338.2 L 75.9,337.9 L 79.8,337.9 L 83.7,337.6 L 87.6,337.6 L 91.5,337.6 L 95.4,337.6 L 99.3,337.6 L 103.2,337.1 L 107.1,337.1 L 111.0,337.1 L 114.9,337.1 L 118.8,337.1 L 122.7,336.8 L 126.6,336.8 L 130.5,336.8 L 134.4,336.8 L 138.3,336.8 L 142.2,336.5 L 146.1,335.9 L 150.0,335.6 L 153.9,335.6 L 157.8,335.6 L 161.7,335.3 L 165.6,335.3 L 169.5,335.3 L 173.4,335.0 L 177.3,335.0 L 181.2,335.0 L 185.1,334.7 L 189.0,334.7 L 192.9,334.7 L 196.8,334.7 L 200.7,334.4 L 204.6,334.4 L 208.5,334.4 L 212.4,334.4 L 216.3,334.4 L 220.2,334.4 L 224.1,334.4 L 228.0,334.4 L 231.9,334.4 L 235.8,334.4 L 239.7,334.4 L 243.6,334.4 L 247.5,334.4 L 251.4,334.1 L 255.3,334.1 L 259.2,334.1 L 263.1,334.1 L 267.0,334.1 L 270.9,334.1 L 274.8,334.1 L 278.7,334.1 L 282.6,334.1 L 286.5,334.1 L 290.4,334.1 L 294.3,334.1 L 298.2,333.8 L 302.1,333.8 L 306.0,333.8 L 309.9,333.8 L 313.8,333.8 L 317.7,333.8 L 321.6,333.8 L 325.5,333.8 L 329.4,333.8 L 333.3,333.8 L 337.2,333.8 L 341.1,333.8 L 345.0,333.8 L 348.9,333.8 L 352.8,333.8 L 356.7,333.8 L 360.6,333.8 L 364.5,333.8 L 368.4,333.8 L 372.3,333.8 L 376.2,333.8 L 380.1,333.8 L 384.0,333.8 L 387.9,333.8 L 391.8,333.8 L 395.7,333.8 L 399.6,333.8 L 403.5,333.8 L 407.4,333.8 L 411.3,333.8 L 415.2,333.8 L 419.1,333.8 L 422.9,333.8 L 426.8,333.8 L 430.7,333.8 L 434.6,333.8 L 438.5,333.5 L 442.4,333.5 L 446.3,333.5 L 450.2,333.5 L 454.1,333.5 L 458.0,333.2 L 461.9,333.2 L 465.8,333.2 L 469.7,333.2 L 473.6,332.9 L 477.5,332.9 L 481.4,332.6 L 485.3,332.6 L 489.2,332.6 L 493.1,332.6 L 497.0,332.6 L 500.9,332.6 L 504.8,332.6 L 508.7,332.6 L 512.6,332.6 L 516.5,332.6 L 520.4,332.6 L 524.3,332.6 L 528.2,332.6 L 532.1,332.6 L 536.0,332.6 L 539.9,332.6 L 543.8,332.6 L 547.7,332.6 L 551.6,332.6 L 555.5,332.6 L 559.4,332.6 L 563.3,332.6 L 567.2,332.6 L 571.1,332.6 L 575.0,332.6 L 578.9,332.6 L 582.8,332.6 L 586.7,332.6 L 590.6,332.6 L 594.5,332.6 L 598.4,332.6 L 602.3,332.6 L 606.2,332.6 L 610.1,332.6 L 614.0,332.6 L 617.9,332.6 L 621.8,332.6 L 625.7,332.6 L 629.6,332.6 L 633.5,332.6 L 637.4,332.6 L 641.3,332.6 L 645.2,332.6 L 649.1,332.6 L 653.0,332.6 L 656.9,332.6 L 660.8,332.6 L 664.7,332.6 L 668.6,332.3 L 672.5,332.3 L 676.4,332.3 L 680.3,332.3 L 684.2,332.3 L 688.1,332.3 L 692.0,332.3 L 695.9,332.3 L 699.8,332.3 L 703.7,332.3 L 707.6,332.3 L 711.5,332.0 L 715.4,332.0 L 719.3,332.0 L 723.2,332.0 L 727.1,332.0 L 731.0,332.0 L 734.9,332.0 L 738.8,332.0 L 742.7,332.0 L 746.6,332.0 L 750.5,332.0 L 754.4,332.0 L 758.3,332.0 L 762.2,332.0 L 766.1,331.7 L 770.0,331.7 L 770.0,340 Z" fill="url(#g7)" clip-path="url(#ca)"/>
<path d="M 72.0,338.2 L 75.9,337.9 L 79.8,337.9 L 83.7,337.6 L 87.6,337.6 L 91.5,337.6 L 95.4,337.6 L 99.3,337.6 L 103.2,337.1 L 107.1,337.1 L 111.0,337.1 L 114.9,337.1 L 118.8,337.1 L 122.7,336.8 L 126.6,336.8 L 130.5,336.8 L 134.4,336.8 L 138.3,336.8 L 142.2,336.5 L 146.1,335.9 L 150.0,335.6 L 153.9,335.6 L 157.8,335.6 L 161.7,335.3 L 165.6,335.3 L 169.5,335.3 L 173.4,335.0 L 177.3,335.0 L 181.2,335.0 L 185.1,334.7 L 189.0,334.7 L 192.9,334.7 L 196.8,334.7 L 200.7,334.4 L 204.6,334.4 L 208.5,334.4 L 212.4,334.4 L 216.3,334.4 L 220.2,334.4 L 224.1,334.4 L 228.0,334.4 L 231.9,334.4 L 235.8,334.4 L 239.7,334.4 L 243.6,334.4 L 247.5,334.4 L 251.4,334.1 L 255.3,334.1 L 259.2,334.1 L 263.1,334.1 L 267.0,334.1 L 270.9,334.1 L 274.8,334.1 L 278.7,334.1 L 282.6,334.1 L 286.5,334.1 L 290.4,334.1 L 294.3,334.1 L 298.2,333.8 L 302.1,333.8 L 306.0,333.8 L 309.9,333.8 L 313.8,333.8 L 317.7,333.8 L 321.6,333.8 L 325.5,333.8 L 329.4,333.8 L 333.3,333.8 L 337.2,333.8 L 341.1,333.8 L 345.0,333.8 L 348.9,333.8 L 352.8,333.8 L 356.7,333.8 L 360.6,333.8 L 364.5,333.8 L 368.4,333.8 L 372.3,333.8 L 376.2,333.8 L 380.1,333.8 L 384.0,333.8 L 387.9,333.8 L 391.8,333.8 L 395.7,333.8 L 399.6,333.8 L 403.5,333.8 L 407.4,333.8 L 411.3,333.8 L 415.2,333.8 L 419.1,333.8 L 422.9,333.8 L 426.8,333.8 L 430.7,333.8 L 434.6,333.8 L 438.5,333.5 L 442.4,333.5 L 446.3,333.5 L 450.2,333.5 L 454.1,333.5 L 458.0,333.2 L 461.9,333.2 L 465.8,333.2 L 469.7,333.2 L 473.6,332.9 L 477.5,332.9 L 481.4,332.6 L 485.3,332.6 L 489.2,332.6 L 493.1,332.6 L 497.0,332.6 L 500.9,332.6 L 504.8,332.6 L 508.7,332.6 L 512.6,332.6 L 516.5,332.6 L 520.4,332.6 L 524.3,332.6 L 528.2,332.6 L 532.1,332.6 L 536.0,332.6 L 539.9,332.6 L 543.8,332.6 L 547.7,332.6 L 551.6,332.6 L 555.5,332.6 L 559.4,332.6 L 563.3,332.6 L 567.2,332.6 L 571.1,332.6 L 575.0,332.6 L 578.9,332.6 L 582.8,332.6 L 586.7,332.6 L 590.6,332.6 L 594.5,332.6 L 598.4,332.6 L 602.3,332.6 L 606.2,332.6 L 610.1,332.6 L 614.0,332.6 L 617.9,332.6 L 621.8,332.6 L 625.7,332.6 L 629.6,332.6 L 633.5,332.6 L 637.4,332.6 L 641.3,332.6 L 645.2,332.6 L 649.1,332.6 L 653.0,332.6 L 656.9,332.6 L 660.8,332.6 L 664.7,332.6 L 668.6,332.3 L 672.5,332.3 L 676.4,332.3 L 680.3,332.3 L 684.2,332.3 L 688.1,332.3 L 692.0,332.3 L 695.9,332.3 L 699.8,332.3 L 703.7,332.3 L 707.6,332.3 L 711.5,332.0 L 715.4,332.0 L 719.3,332.0 L 723.2,332.0 L 727.1,332.0 L 731.0,332.0 L 734.9,332.0 L 738.8,332.0 L 742.7,332.0 L 746.6,332.0 L 750.5,332.0 L 754.4,332.0 L 758.3,332.0 L 762.2,332.0 L 766.1,331.7 L 770.0,331.7" fill="none" stroke="#FF6363" stroke-width="2.5" stroke-linejoin="round" clip-path="url(#ca)"/>
<text x="93.4" y="55.0" text-anchor="middle" font-size="9" fill="#34C759" opacity="0.85" clip-path="url(#ca)">+15.2% (+50)</text>
<text x="93.4" y="66.0" text-anchor="middle" font-size="9" fill="#4F8EF7" opacity="0.85" clip-path="url(#ca)">+2.8% (+11)</text>
<text x="93.4" y="77.0" text-anchor="middle" font-size="9" fill="#FF6363" opacity="0.85" clip-path="url(#ca)">+66.7% (+4)</text>
<text x="167.5" y="55.0" text-anchor="middle" font-size="9" fill="#34C759" opacity="0.85" clip-path="url(#ca)">+20.1% (+77)</text>
<text x="167.5" y="66.0" text-anchor="middle" font-size="9" fill="#4F8EF7" opacity="0.85" clip-path="url(#ca)">+16.8% (+69)</text>
<text x="167.5" y="77.0" text-anchor="middle" font-size="9" fill="#FF6363" opacity="0.85" clip-path="url(#ca)">+90.0% (+9)</text>
<text x="270.9" y="55.0" text-anchor="middle" font-size="9" fill="#34C759" opacity="0.85" clip-path="url(#ca)">+16.1% (+74)</text>
<text x="270.9" y="66.0" text-anchor="middle" font-size="9" fill="#4F8EF7" opacity="0.85" clip-path="url(#ca)">+17.3% (+83)</text>
<text x="270.9" y="77.0" text-anchor="middle" font-size="9" fill="#FF6363" opacity="0.85" clip-path="url(#ca)">+10.5% (+2)</text>
<text x="376.2" y="55.0" text-anchor="middle" font-size="9" fill="#34C759" opacity="0.85" clip-path="url(#ca)">+10.5% (+56)</text>
<text x="376.2" y="66.0" text-anchor="middle" font-size="9" fill="#4F8EF7" opacity="0.85" clip-path="url(#ca)">+14.4% (+81)</text>
<text x="376.2" y="77.0" text-anchor="middle" font-size="9" fill="#FF6363" opacity="0.85" clip-path="url(#ca)">+0.0% (+0)</text>
<text x="481.4" y="55.0" text-anchor="middle" font-size="9" fill="#34C759" opacity="0.85" clip-path="url(#ca)">+6.2% (+37)</text>
<text x="481.4" y="66.0" text-anchor="middle" font-size="9" fill="#4F8EF7" opacity="0.85" clip-path="url(#ca)">+6.1% (+46)</text>
<text x="481.4" y="77.0" text-anchor="middle" font-size="9" fill="#FF6363" opacity="0.85" clip-path="url(#ca)">+19.0% (+4)</text>
<text x="584.8" y="55.0" text-anchor="middle" font-size="9" fill="#34C759" opacity="0.85" clip-path="url(#ca)">+8.1% (+51)</text>
<text x="584.8" y="66.0" text-anchor="middle" font-size="9" fill="#4F8EF7" opacity="0.85" clip-path="url(#ca)">+8.1% (+65)</text>
<text x="584.8" y="77.0" text-anchor="middle" font-size="9" fill="#FF6363" opacity="0.85" clip-path="url(#ca)">+0.0% (+0)</text>
<text x="682.3" y="55.0" text-anchor="middle" font-size="9" fill="#34C759" opacity="0.85" clip-path="url(#ca)">+7.6% (+52)</text>
<text x="682.3" y="66.0" text-anchor="middle" font-size="9" fill="#4F8EF7" opacity="0.85" clip-path="url(#ca)">+5.9% (+51)</text>
<text x="682.3" y="77.0" text-anchor="middle" font-size="9" fill="#FF6363" opacity="0.85" clip-path="url(#ca)">+8.0% (+2)</text>
<text x="750.5" y="55.0" text-anchor="middle" font-size="9" fill="#34C759" opacity="0.85" clip-path="url(#ca)">+3.0% (+22)</text>
<text x="750.5" y="66.0" text-anchor="middle" font-size="9" fill="#4F8EF7" opacity="0.85" clip-path="url(#ca)">+2.0% (+18)</text>
<text x="750.5" y="77.0" text-anchor="middle" font-size="9" fill="#FF6363" opacity="0.85" clip-path="url(#ca)">+3.7% (+1)</text>
<rect x="211" y="369" width="12" height="12" fill="#34C759" rx="2"/>
<text x="227" y="379" font-size="12" fill="#111827">macOS + Windows</text>
<rect x="351" y="369" width="12" height="12" fill="#4F8EF7" rx="2"/>
<text x="367" y="379" font-size="12" fill="#111827">macOS only</text>
<rect x="491" y="369" width="12" height="12" fill="#FF6363" rx="2"/>
<text x="507" y="379" font-size="12" fill="#111827">Windows only</text>
<text x="72" y="394" font-size="8" fill="#e5e7eb">data since Dec 11, 2025</text>
</svg>