<svg xmlns="http://www.w3.org/2000/svg" width="800" height="400" viewBox="0 0 800 400">
<defs>
  <style>text { font-family: -apple-system, BlinkMacSystemFont, 'Segoe UI', Roboto, sans-serif; }</style>
  <linearGradient id="g2" x1="0" y1="0" x2="0" y2="1">
  <stop offset="0%" stop-color="#4F8EF7" stop-opacity="0.25"/>
  <stop offset="100%" stop-color="#4F8EF7" stop-opacity="0"/>
</linearGradient>
<linearGradient id="g3" x1="0" y1="0" x2="0" y2="1">
  <stop offset="0%" stop-color="#BF5AF2" stop-opacity="0.25"/>
  <stop offset="100%" stop-color="#BF5AF2" stop-opacity="0"/>
</linearGradient>
<linearGradient id="g4" x1="0" y1="0" x2="0" y2="1">
  <stop offset="0%" stop-color="#34C759" stop-opacity="0.25"/>
  <stop offset="100%" stop-color="#34C759" stop-opacity="0"/>
</linearGradient>
  <clipPath id="ca"><rect x="72" y="45" width="698" height="295"/></clipPath>
</defs>
<rect width="800" height="400" fill="#ffffff" rx="12"/>
<text x="400" y="26" text-anchor="middle" font-size="15" font-weight="600" fill="#111827">Community Growth Over Time</text>
<line x1="72" y1="340.0" x2="770" y2="340.0" stroke="#f3f4f6" stroke-width="1"/>
<text x="66" y="344.0" text-anchor="end" font-size="11" fill="#6b7280">500</text>
<line x1="72" y1="241.7" x2="770" y2="241.7" stroke="#f3f4f6" stroke-width="1"/>
<text x="66" y="245.7" text-anchor="end" font-size="11" fill="#6b7280">1.0k</text>
<line x1="72" y1="143.3" x2="770" y2="143.3" stroke="#f3f4f6" stroke-width="1"/>
<text x="66" y="147.3" text-anchor="end" font-size="11" fill="#6b7280">1.5k</text>
<line x1="72" y1="45.0" x2="770" y2="45.0" stroke="#f3f4f6" stroke-width="1"/>
<text x="66" y="49.0" text-anchor="end" font-size="11" fill="#6b7280">2.0k</text>
<line x1="156.6" y1="45" x2="156.6" y2="340" stroke="#e5e7eb" stroke-width="1" stroke-dasharray="3,3" clip-path="url(#ca)"/>
<line x1="339.9" y1="45" x2="339.9" y2="340" stroke="#e5e7eb" stroke-width="1" stroke-dasharray="3,3" clip-path="url(#ca)"/>
<line x1="530.3" y1="45" x2="530.3" y2="340" stroke="#e5e7eb" stroke-width="1" stroke-dasharray="3,3" clip-path="url(#ca)"/>
<line x1="720.6" y1="45" x2="720.6" y2="340" stroke="#e5e7eb" stroke-width="1" stroke-dasharray="3,3" clip-path="url(#ca)"/>
<text x="72.0" y="358.0" text-anchor="middle" font-size="11" fill="#6b7280">Dec 11</text>
<text x="213.0" y="358.0" text-anchor="middle" font-size="11" fill="#6b7280">Jan 13</text>
<text x="354.0" y="358.0" text-anchor="middle" font-size="11" fill="#6b7280">Feb 3</text>
<text x="488.0" y="358.0" text-anchor="middle" font-size="11" fill="#6b7280">Feb 22</text>
<text x="629.0" y="358.0" text-anchor="middle" font-size="11" fill="#6b7280">Mar 16</text>
<text x="770.0" y="358.0" text-anchor="middle" font-size="11" fill="#6b7280">Apr 9</text>
<line x1="72" y1="45" x2="72" y2="340" stroke="#e5e7eb" stroke-width="1"/>
<line x1="72" y1="340" x2="770" y2="340" stroke="#e5e7eb" stroke-width="1"/>
<text x="-192.5" y="18" text-anchor="middle" font-size="12" fill="#6b7280" transform="rotate(-90)">People</text>
<path d="M 72.0,340 L 72.0,120.1 L 79.1,120.1 L 86.1,120.1 L 93.2,119.5 L 100.2,119.5 L 107.3,119.1 L 114.3,118.9 L 121.4,119.1 L 128.4,118.6 L 135.5,118.6 L 142.5,118.6 L 149.6,118.6 L 156.6,118.6 L 163.7,118.6 L 170.7,118.6 L 177.8,118.6 L 184.8,118.4 L 191.9,117.8 L 198.9,116.6 L 206.0,116.0 L 213.0,115.8 L 220.1,115.8 L 227.1,115.2 L 234.2,113.8 L 241.2,113.0 L 248.3,113.0 L 255.3,112.1 L 262.4,111.7 L 269.4,110.9 L 276.5,110.3 L 283.5,109.7 L 290.6,109.1 L 297.6,109.1 L 304.7,107.7 L 311.7,106.9 L 318.8,106.9 L 325.8,106.2 L 332.9,105.8 L 339.9,105.6 L 347.0,105.4 L 354.0,105.4 L 361.1,104.8 L 368.1,102.4 L 375.2,101.0 L 382.2,100.3 L 389.3,100.1 L 396.3,99.7 L 403.4,98.9 L 410.4,98.5 L 417.5,98.1 L 424.5,97.7 L 431.6,97.3 L 438.6,96.9 L 445.7,96.9 L 452.7,95.0 L 459.8,95.0 L 466.8,94.8 L 473.9,94.6 L 480.9,94.2 L 488.0,94.2 L 495.0,93.2 L 502.1,92.0 L 509.1,91.6 L 516.2,92.0 L 523.2,91.8 L 530.3,91.6 L 537.3,91.6 L 544.4,91.2 L 551.4,90.4 L 558.5,90.0 L 565.5,89.6 L 572.6,89.4 L 579.6,89.4 L 586.7,88.7 L 593.7,88.3 L 600.8,88.3 L 607.8,86.7 L 614.9,86.7 L 621.9,86.7 L 629.0,86.7 L 636.0,86.5 L 643.1,85.9 L 650.1,85.1 L 657.2,84.7 L 664.2,84.7 L 671.3,84.3 L 678.3,82.8 L 685.4,81.8 L 692.4,81.6 L 699.5,81.4 L 706.5,80.8 L 713.6,79.6 L 720.6,79.2 L 727.7,78.8 L 734.7,77.6 L 741.8,77.4 L 748.8,77.4 L 755.9,77.4 L 762.9,77.3 L 770.0,76.1 L 770.0,340 Z" fill="url(#g2)" clip-path="url(#ca)"/>
<path d="M 72.0,120.1 L 79.1,120.1 L 86.1,120.1 L 93.2,119.5 L 100.2,119.5 L 107.3,119.1 L 114.3,118.9 L 121.4,119.1 L 128.4,118.6 L 135.5,118.6 L 142.5,118.6 L 149.6,118.6 L 156.6,118.6 L 163.7,118.6 L 170.7,118.6 L 177.8,118.6 L 184.8,118.4 L 191.9,117.8 L 198.9,116.6 L 206.0,116.0 L 213.0,115.8 L 220.1,115.8 L 227.1,115.2 L 234.2,113.8 L 241.2,113.0 L 248.3,113.0 L 255.3,112.1 L 262.4,111.7 L 269.4,110.9 L 276.5,110.3 L 283.5,109.7 L 290.6,109.1 L 297.6,109.1 L 304.7,107.7 L 311.7,106.9 L 318.8,106.9 L 325.8,106.2 L 332.9,105.8 L 339.9,105.6 L 347.0,105.4 L 354.0,105.4 L 361.1,104.8 L 368.1,102.4 L 375.2,101.0 L 382.2,100.3 L 389.3,100.1 L 396.3,99.7 L 403.4,98.9 L 410.4,98.5 L 417.5,98.1 L 424.5,97.7 L 431.6,97.3 L 438.6,96.9 L 445.7,96.9 L 452.7,95.0 L 459.8,95.0 L 466.8,94.8 L 473.9,94.6 L 480.9,94.2 L 488.0,94.2 L 495.0,93.2 L 502.1,92.0 L 509.1,91.6 L 516.2,92.0 L 523.2,91.8 L 530.3,91.6 L 537.3,91.6 L 544.4,91.2 L 551.4,90.4 L 558.5,90.0 L 565.5,89.6 L 572.6,89.4 L 579.6,89.4 L 586.7,88.7 L 593.7,88.3 L 600.8,88.3 L 607.8,86.7 L 614.9,86.7 L 621.9,86.7 L 629.0,86.7 L 636.0,86.5 L 643.1,85.9 L 650.1,85.1 L 657.2,84.7 L 664.2,84.7 L 671.3,84.3 L 678.3,82.8 L 685.4,81.8 L 692.4,81.6 L 699.5,81.4 L 706.5,80.8 L 713.6,79.6 L 720.6,79.2 L 727.7,78.8 L 734.7,77.6 L 741.8,77.4 L 748.8,77.4 L 755.9,77.4 L 762.9,77.3 L 770.0,76.1" fill="none" stroke="#4F8EF7" stroke-width="2.5" stroke-linejoin="round" clip-path="url(#ca)"/>
<path d="M 72.0,340 L 72.0,244.2 L 79.1,243.6 L 86.1,243.6 L 93.2,243.6 L 100.2,243.4 L 107.3,243.0 L 114.3,242.8 L 121.4,242.6 L 128.4,242.6 L 135.5,242.5 L 142.5,242.3 L 149.6,242.3 L 156.6,242.3 L 163.7,242.3 L 170.7,242.3 L 177.8,242.3 L 184.8,241.9 L 191.9,241.9 L 198.9,241.9 L 206.0,241.1 L 213.0,240.9 L 220.1,240.5 L 227.1,239.7 L 234.2,239.5 L 241.2,239.5 L 248.3,239.5 L 255.3,238.9 L 262.4,238.5 L 269.4,238.5 L 276.5,238.1 L 283.5,237.9 L 290.6,237.5 L 297.6,237.5 L 304.7,237.3 L 311.7,236.6 L 318.8,236.0 L 325.8,235.6 L 332.9,235.4 L 339.9,235.4 L 347.0,235.2 L 354.0,234.8 L 361.1,234.8 L 368.1,234.6 L 375.2,234.0 L 382.2,233.6 L 389.3,233.6 L 396.3,233.6 L 403.4,233.6 L 410.4,233.4 L 417.5,232.8 L 424.5,232.4 L 431.6,232.2 L 438.6,232.0 L 445.7,231.8 L 452.7,231.6 L 459.8,231.4 L 466.8,231.2 L 473.9,230.7 L 480.9,230.5 L 488.0,230.3 L 495.0,229.5 L 502.1,228.7 L 509.1,228.7 L 516.2,228.5 L 523.2,228.3 L 530.3,228.3 L 537.3,228.3 L 544.4,227.9 L 551.4,227.9 L 558.5,226.7 L 565.5,226.5 L 572.6,226.3 L 579.6,226.3 L 586.7,225.9 L 593.7,225.7 L 600.8,225.7 L 607.8,225.5 L 614.9,225.5 L 621.9,225.5 L 629.0,225.1 L 636.0,224.9 L 643.1,224.0 L 650.1,224.2 L 657.2,224.0 L 664.2,223.8 L 671.3,223.8 L 678.3,223.6 L 685.4,223.0 L 692.4,223.0 L 699.5,223.0 L 706.5,223.0 L 713.6,222.6 L 720.6,222.6 L 727.7,222.2 L 734.7,221.8 L 741.8,221.0 L 748.8,221.0 L 755.9,220.6 L 762.9,220.4 L 770.0,220.2 L 770.0,340 Z" fill="url(#g3)" clip-path="url(#ca)"/>
<path d="M 72.0,244.2 L 79.1,243.6 L 86.1,243.6 L 93.2,243.6 L 100.2,243.4 L 107.3,243.0 L 114.3,242.8 L 121.4,242.6 L 128.4,242.6 L 135.5,242.5 L 142.5,242.3 L 149.6,242.3 L 156.6,242.3 L 163.7,242.3 L 170.7,242.3 L 177.8,242.3 L 184.8,241.9 L 191.9,241.9 L 198.9,241.9 L 206.0,241.1 L 213.0,240.9 L 220.1,240.5 L 227.1,239.7 L 234.2,239.5 L 241.2,239.5 L 248.3,239.5 L 255.3,238.9 L 262.4,238.5 L 269.4,238.5 L 276.5,238.1 L 283.5,237.9 L 290.6,237.5 L 297.6,237.5 L 304.7,237.3 L 311.7,236.6 L 318.8,236.0 L 325.8,235.6 L 332.9,235.4 L 339.9,235.4 L 347.0,235.2 L 354.0,234.8 L 361.1,234.8 L 368.1,234.6 L 375.2,234.0 L 382.2,233.6 L 389.3,233.6 L 396.3,233.6 L 403.4,233.6 L 410.4,233.4 L 417.5,232.8 L 424.5,232.4 L 431.6,232.2 L 438.6,232.0 L 445.7,231.8 L 452.7,231.6 L 459.8,231.4 L 466.8,231.2 L 473.9,230.7 L 480.9,230.5 L 488.0,230.3 L 495.0,229.5 L 502.1,228.7 L 509.1,228.7 L 516.2,228.5 L 523.2,228.3 L 530.3,228.3 L 537.3,228.3 L 544.4,227.9 L 551.4,227.9 L 558.5,226.7 L 565.5,226.5 L 572.6,226.3 L 579.6,226.3 L 586.7,225.9 L 593.7,225.7 L 600.8,225.7 L 607.8,225.5 L 614.9,225.5 L 621.9,225.5 L 629.0,225.1 L 636.0,224.9 L 643.1,224.0 L 650.1,224.2 L 657.2,224.0 L 664.2,223.8 L 671.3,223.8 L 678.3,223.6 L 685.4,223.0 L 692.4,223.0 L 699.5,223.0 L 706.5,223.0 L 713.6,222.6 L 720.6,222.6 L 727.7,222.2 L 734.7,221.8 L 741.8,221.0 L 748.8,221.0 L 755.9,220.6 L 762.9,220.4 L 770.0,220.2" fill="none" stroke="#BF5AF2" stroke-width="2.5" stroke-linejoin="round" clip-path="url(#ca)"/>
<path d="M 72.0,340 L 72.0,291.4 L 79.1,290.8 L 86.1,290.8 L 93.2,290.8 L 100.2,290.6 L 107.3,290.2 L 114.3,290.0 L 121.4,289.7 L 128.4,289.7 L 135.5,289.5 L 142.5,289.3 L 149.6,289.3 L 156.6,289.3 L 163.7,289.3 L 170.7,289.3 L 177.8,289.3 L 184.8,288.9 L 191.9,288.9 L 198.9,289.1 L 206.0,288.5 L 213.0,288.7 L 220.1,288.1 L 227.1,287.5 L 234.2,287.3 L 241.2,287.5 L 248.3,287.5 L 255.3,286.9 L 262.4,286.7 L 269.4,286.7 L 276.5,286.3 L 283.5,286.1 L 290.6,285.7 L 297.6,285.7 L 304.7,285.5 L 311.7,284.9 L 318.8,284.3 L 325.8,283.9 L 332.9,283.9 L 339.9,283.9 L 347.0,283.8 L 354.0,283.4 L 361.1,283.4 L 368.1,283.2 L 375.2,282.6 L 382.2,282.4 L 389.3,282.4 L 396.3,282.4 L 403.4,282.4 L 410.4,282.2 L 417.5,281.6 L 424.5,281.4 L 431.6,281.2 L 438.6,281.0 L 445.7,281.0 L 452.7,280.8 L 459.8,280.8 L 466.8,280.8 L 473.9,280.2 L 480.9,280.2 L 488.0,280.2 L 495.0,279.8 L 502.1,279.2 L 509.1,279.2 L 516.2,279.0 L 523.2,278.8 L 530.3,278.8 L 537.3,278.8 L 544.4,278.4 L 551.4,278.4 L 558.5,277.3 L 565.5,277.1 L 572.6,276.9 L 579.6,276.9 L 586.7,276.7 L 593.7,276.7 L 600.8,276.7 L 607.8,276.7 L 614.9,276.7 L 621.9,276.7 L 629.0,276.3 L 636.0,276.1 L 643.1,275.1 L 650.1,275.3 L 657.2,275.3 L 664.2,275.1 L 671.3,275.1 L 678.3,275.1 L 685.4,274.7 L 692.4,274.7 L 699.5,274.7 L 706.5,274.7 L 713.6,274.7 L 720.6,274.7 L 727.7,274.5 L 734.7,274.5 L 741.8,273.7 L 748.8,273.7 L 755.9,273.5 L 762.9,273.3 L 770.0,273.1 L 770.0,340 Z" fill="url(#g4)" clip-path="url(#ca)"/>
<path d="M 72.0,291.4 L 79.1,290.8 L 86.1,290.8 L 93.2,290.8 L 100.2,290.6 L 107.3,290.2 L 114.3,290.0 L 121.4,289.7 L 128.4,289.7 L 135.5,289.5 L 142.5,289.3 L 149.6,289.3 L 156.6,289.3 L 163.7,289.3 L 170.7,289.3 L 177.8,289.3 L 184.8,288.9 L 191.9,288.9 L 198.9,289.1 L 206.0,288.5 L 213.0,288.7 L 220.1,288.1 L 227.1,287.5 L 234.2,287.3 L 241.2,287.5 L 248.3,287.5 L 255.3,286.9 L 262.4,286.7 L 269.4,286.7 L 276.5,286.3 L 283.5,286.1 L 290.6,285.7 L 297.6,285.7 L 304.7,285.5 L 311.7,284.9 L 318.8,284.3 L 325.8,283.9 L 332.9,283.9 L 339.9,283.9 L 347.0,283.8 L 354.0,283.4 L 361.1,283.4 L 368.1,283.2 L 375.2,282.6 L 382.2,282.4 L 389.3,282.4 L 396.3,282.4 L 403.4,282.4 L 410.4,282.2 L 417.5,281.6 L 424.5,281.4 L 431.6,281.2 L 438.6,281.0 L 445.7,281.0 L 452.7,280.8 L 459.8,280.8 L 466.8,280.8 L 473.9,280.2 L 480.9,280.2 L 488.0,280.2 L 495.0,279.8 L 502.1,279.2 L 509.1,279.2 L 516.2,279.0 L 523.2,278.8 L 530.3,278.8 L 537.3,278.8 L 544.4,278.4 L 551.4,278.4 L 558.5,277.3 L 565.5,277.1 L 572.6,276.9 L 579.6,276.9 L 586.7,276.7 L 593.7,276.7 L 600.8,276.7 L 607.8,276.7 L 614.9,276.7 L 621.9,276.7 L 629.0,276.3 L 636.0,276.1 L 643.1,275.1 L 650.1,275.3 L 657.2,275.3 L 664.2,275.1 L 671.3,275.1 L 678.3,275.1 L 685.4,274.7 L 692.4,274.7 L 699.5,274.7 L 706.5,274.7 L 713.6,274.7 L 720.6,274.7 L 727.7,274.5 L 734.7,274.5 L 741.8,273.7 L 748.8,273.7 L 755.9,273.5 L 762.9,273.3 L 770.0,273.1" fill="none" stroke="#34C759" stroke-width="2.5" stroke-linejoin="round" clip-path="url(#ca)"/>
<text x="110.8" y="55.0" text-anchor="middle" font-size="9" fill="#4F8EF7" opacity="0.85" clip-path="url(#ca)">+0.5% (+8)</text>
<text x="110.8" y="66.0" text-anchor="middle" font-size="9" fill="#BF5AF2" opacity="0.85" clip-path="url(#ca)">+1.0% (+10)</text>
<text x="110.8" y="77.0" text-anchor="middle" font-size="9" fill="#34C759" opacity="0.85" clip-path="url(#ca)">+1.5% (+11)</text>
<text x="244.7" y="55.0" text-anchor="middle" font-size="9" fill="#4F8EF7" opacity="0.85" clip-path="url(#ca)">+4.0% (+65)</text>
<text x="244.7" y="66.0" text-anchor="middle" font-size="9" fill="#BF5AF2" opacity="0.85" clip-path="url(#ca)">+3.5% (+35)</text>
<text x="244.7" y="77.0" text-anchor="middle" font-size="9" fill="#34C759" opacity="0.85" clip-path="url(#ca)">+3.6% (+27)</text>
<text x="431.6" y="55.0" text-anchor="middle" font-size="9" fill="#4F8EF7" opacity="0.85" clip-path="url(#ca)">+4.1% (+70)</text>
<text x="431.6" y="66.0" text-anchor="middle" font-size="9" fill="#BF5AF2" opacity="0.85" clip-path="url(#ca)">+3.5% (+36)</text>
<text x="431.6" y="77.0" text-anchor="middle" font-size="9" fill="#34C759" opacity="0.85" clip-path="url(#ca)">+3.3% (+26)</text>
<text x="621.9" y="55.0" text-anchor="middle" font-size="9" fill="#4F8EF7" opacity="0.85" clip-path="url(#ca)">+3.5% (+61)</text>
<text x="621.9" y="66.0" text-anchor="middle" font-size="9" fill="#BF5AF2" opacity="0.85" clip-path="url(#ca)">+2.7% (+29)</text>
<text x="621.9" y="77.0" text-anchor="middle" font-size="9" fill="#34C759" opacity="0.85" clip-path="url(#ca)">+2.6% (+21)</text>
<text x="745.3" y="55.0" text-anchor="middle" font-size="9" fill="#4F8EF7" opacity="0.85" clip-path="url(#ca)">+0.9% (+16)</text>
<text x="745.3" y="66.0" text-anchor="middle" font-size="9" fill="#BF5AF2" opacity="0.85" clip-path="url(#ca)">+1.1% (+12)</text>
<text x="745.3" y="77.0" text-anchor="middle" font-size="9" fill="#34C759" opacity="0.85" clip-path="url(#ca)">+1.0% (+8)</text>
<rect x="211" y="369" width="12" height="12" fill="#4F8EF7" rx="2"/>
<text x="227" y="379" font-size="12" fill="#111827">Authors</text>
<rect x="351" y="369" width="12" height="12" fill="#BF5AF2" rx="2"/>
<text x="367" y="379" font-size="12" fill="#111827">Contributors</text>
<rect x="491" y="369" width="12" height="12" fill="#34C759" rx="2"/>
<text x="507" y="379" font-size="12" fill="#111827">Non-author contributors</text>
<text x="72" y="394" font-size="8" fill="#e5e7eb">data since Dec 11, 2025</text>
</svg>