<svg xmlns="http://www.w3.org/2000/svg" width="800" height="400" viewBox="0 0 800 400">
<defs>
  <style>text { font-family: -apple-system, BlinkMacSystemFont, 'Segoe UI', Roboto, sans-serif; }</style>
  <linearGradient id="g5" x1="0" y1="0" x2="0" y2="1">
  <stop offset="0%" stop-color="#34C759" stop-opacity="0.25"/>
  <stop offset="100%" stop-color="#34C759" stop-opacity="0"/>
</linearGradient>
<linearGradient id="g6" x1="0" y1="0" x2="0" y2="1">
  <stop offset="0%" stop-color="#4F8EF7" stop-opacity="0.25"/>
  <stop offset="100%" stop-color="#4F8EF7" stop-opacity="0"/>
</linearGradient>
<linearGradient id="g7" x1="0" y1="0" x2="0" y2="1">
  <stop offset="0%" stop-color="#FF6363" stop-opacity="0.25"/>
  <stop offset="100%" stop-color="#FF6363" stop-opacity="0"/>
</linearGradient>
  <clipPath id="ca"><rect x="72" y="45" width="698" height="295"/></clipPath>
</defs>
<rect width="800" height="400" fill="#ffffff" rx="12"/>
<text x="400" y="26" text-anchor="middle" font-size="15" font-weight="600" fill="#111827">Platform Support Over Time</text>
<line x1="72" y1="340.0" x2="770" y2="340.0" stroke="#f3f4f6" stroke-width="1"/>
<text x="66" y="344.0" text-anchor="end" font-size="11" fill="#6b7280">0</text>
<line x1="72" y1="281.0" x2="770" y2="281.0" stroke="#f3f4f6" stroke-width="1"/>
<text x="66" y="285.0" text-anchor="end" font-size="11" fill="#6b7280">200</text>
<line x1="72" y1="222.0" x2="770" y2="222.0" stroke="#f3f4f6" stroke-width="1"/>
<text x="66" y="226.0" text-anchor="end" font-size="11" fill="#6b7280">400</text>
<line x1="72" y1="163.0" x2="770" y2="163.0" stroke="#f3f4f6" stroke-width="1"/>
<text x="66" y="167.0" text-anchor="end" font-size="11" fill="#6b7280">600</text>
<line x1="72" y1="104.0" x2="770" y2="104.0" stroke="#f3f4f6" stroke-width="1"/>
<text x="66" y="108.0" text-anchor="end" font-size="11" fill="#6b7280">800</text>
<line x1="72" y1="45.0" x2="770" y2="45.0" stroke="#f3f4f6" stroke-width="1"/>
<text x="66" y="49.0" text-anchor="end" font-size="11" fill="#6b7280">1.0k</text>
<line x1="127.8" y1="45" x2="127.8" y2="340" stroke="#e5e7eb" stroke-width="1" stroke-dasharray="3,3" clip-path="url(#ca)"/>
<line x1="248.8" y1="45" x2="248.8" y2="340" stroke="#e5e7eb" stroke-width="1" stroke-dasharray="3,3" clip-path="url(#ca)"/>
<line x1="374.5" y1="45" x2="374.5" y2="340" stroke="#e5e7eb" stroke-width="1" stroke-dasharray="3,3" clip-path="url(#ca)"/>
<line x1="500.1" y1="45" x2="500.1" y2="340" stroke="#e5e7eb" stroke-width="1" stroke-dasharray="3,3" clip-path="url(#ca)"/>
<line x1="625.7" y1="45" x2="625.7" y2="340" stroke="#e5e7eb" stroke-width="1" stroke-dasharray="3,3" clip-path="url(#ca)"/>
<line x1="746.7" y1="45" x2="746.7" y2="340" stroke="#e5e7eb" stroke-width="1" stroke-dasharray="3,3" clip-path="url(#ca)"/>
<text x="72.0" y="358.0" text-anchor="middle" font-size="11" fill="#6b7280">Dec 11</text>
<text x="211.6" y="358.0" text-anchor="middle" font-size="11" fill="#6b7280">Jan 24</text>
<text x="351.2" y="358.0" text-anchor="middle" font-size="11" fill="#6b7280">Feb 24</text>
<text x="490.8" y="358.0" text-anchor="middle" font-size="11" fill="#6b7280">Mar 28</text>
<text x="630.4" y="358.0" text-anchor="middle" font-size="11" fill="#6b7280">May 2</text>
<text x="770.0" y="358.0" text-anchor="middle" font-size="11" fill="#6b7280">Jun 8</text>
<line x1="72" y1="45" x2="72" y2="340" stroke="#e5e7eb" stroke-width="1"/>
<line x1="72" y1="340" x2="770" y2="340" stroke="#e5e7eb" stroke-width="1"/>
<text x="-192.5" y="18" text-anchor="middle" font-size="12" fill="#6b7280" transform="rotate(-90)">Extensions</text>
<path d="M 72.0,340 L 72.0,242.6 L 76.7,240.0 L 81.3,239.7 L 86.0,238.5 L 90.6,237.9 L 95.3,235.0 L 99.9,233.2 L 104.6,232.3 L 109.2,230.8 L 113.9,229.1 L 118.5,228.2 L 123.2,227.9 L 127.8,227.0 L 132.5,226.4 L 137.1,226.1 L 141.8,225.2 L 146.5,224.4 L 151.1,223.5 L 155.8,222.6 L 160.4,221.4 L 165.1,220.5 L 169.7,219.6 L 174.4,218.8 L 179.0,217.0 L 183.7,216.4 L 188.3,216.4 L 193.0,214.3 L 197.6,213.7 L 202.3,213.2 L 206.9,212.6 L 211.6,211.1 L 216.3,209.0 L 220.9,208.7 L 225.6,208.4 L 230.2,206.7 L 234.9,206.1 L 239.5,204.6 L 244.2,204.3 L 248.8,204.0 L 253.5,203.4 L 258.1,203.4 L 262.8,203.4 L 267.4,199.3 L 272.1,199.0 L 276.7,198.1 L 281.4,197.8 L 286.1,197.5 L 290.7,196.6 L 295.4,196.0 L 300.0,195.4 L 304.7,193.7 L 309.3,193.7 L 314.0,193.7 L 318.6,193.4 L 323.3,190.4 L 327.9,189.6 L 332.6,189.0 L 337.2,188.1 L 341.9,187.5 L 346.5,187.5 L 351.2,186.0 L 355.9,183.9 L 360.5,183.4 L 365.2,183.1 L 369.8,182.2 L 374.5,182.2 L 379.1,181.6 L 383.8,180.7 L 388.4,180.1 L 393.1,178.9 L 397.7,177.8 L 402.4,177.5 L 407.0,177.5 L 411.7,176.3 L 416.3,176.3 L 421.0,176.3 L 425.7,174.5 L 430.3,174.2 L 435.0,173.9 L 439.6,173.9 L 444.3,173.6 L 448.9,172.4 L 453.6,171.9 L 458.2,171.0 L 462.9,171.0 L 467.5,170.7 L 472.2,169.5 L 476.8,168.6 L 481.5,168.6 L 486.1,168.3 L 490.8,167.7 L 495.5,165.7 L 500.1,165.1 L 504.8,164.2 L 509.4,164.2 L 514.1,163.6 L 518.7,163.3 L 523.4,163.0 L 528.0,162.7 L 532.7,162.4 L 537.3,162.4 L 542.0,162.1 L 546.6,161.8 L 551.3,160.9 L 555.9,159.8 L 560.6,159.5 L 565.3,158.6 L 569.9,158.6 L 574.6,157.4 L 579.2,157.1 L 583.9,157.1 L 588.5,157.1 L 593.2,156.2 L 597.8,155.9 L 602.5,155.9 L 607.1,155.9 L 611.8,155.6 L 616.4,154.4 L 621.1,154.2 L 625.7,153.3 L 630.4,152.7 L 635.1,152.7 L 639.7,151.8 L 644.4,151.2 L 649.0,151.2 L 653.7,150.9 L 658.3,149.4 L 663.0,148.0 L 667.6,147.7 L 672.3,147.1 L 676.9,145.9 L 681.6,145.9 L 686.2,145.3 L 690.9,143.8 L 695.5,141.2 L 700.2,140.3 L 704.9,140.3 L 709.5,140.3 L 714.2,140.3 L 718.8,140.3 L 723.5,139.1 L 728.1,138.2 L 732.8,138.2 L 737.4,138.2 L 742.1,138.2 L 746.7,137.3 L 751.4,137.3 L 756.0,136.5 L 760.7,135.6 L 765.3,135.3 L 770.0,135.0 L 770.0,340 Z" fill="url(#g5)" clip-path="url(#ca)"/>
<path d="M 72.0,242.6 L 76.7,240.0 L 81.3,239.7 L 86.0,238.5 L 90.6,237.9 L 95.3,235.0 L 99.9,233.2 L 104.6,232.3 L 109.2,230.8 L 113.9,229.1 L 118.5,228.2 L 123.2,227.9 L 127.8,227.0 L 132.5,226.4 L 137.1,226.1 L 141.8,225.2 L 146.5,224.4 L 151.1,223.5 L 155.8,222.6 L 160.4,221.4 L 165.1,220.5 L 169.7,219.6 L 174.4,218.8 L 179.0,217.0 L 183.7,216.4 L 188.3,216.4 L 193.0,214.3 L 197.6,213.7 L 202.3,213.2 L 206.9,212.6 L 211.6,211.1 L 216.3,209.0 L 220.9,208.7 L 225.6,208.4 L 230.2,206.7 L 234.9,206.1 L 239.5,204.6 L 244.2,204.3 L 248.8,204.0 L 253.5,203.4 L 258.1,203.4 L 262.8,203.4 L 267.4,199.3 L 272.1,199.0 L 276.7,198.1 L 281.4,197.8 L 286.1,197.5 L 290.7,196.6 L 295.4,196.0 L 300.0,195.4 L 304.7,193.7 L 309.3,193.7 L 314.0,193.7 L 318.6,193.4 L 323.3,190.4 L 327.9,189.6 L 332.6,189.0 L 337.2,188.1 L 341.9,187.5 L 346.5,187.5 L 351.2,186.0 L 355.9,183.9 L 360.5,183.4 L 365.2,183.1 L 369.8,182.2 L 374.5,182.2 L 379.1,181.6 L 383.8,180.7 L 388.4,180.1 L 393.1,178.9 L 397.7,177.8 L 402.4,177.5 L 407.0,177.5 L 411.7,176.3 L 416.3,176.3 L 421.0,176.3 L 425.7,174.5 L 430.3,174.2 L 435.0,173.9 L 439.6,173.9 L 444.3,173.6 L 448.9,172.4 L 453.6,171.9 L 458.2,171.0 L 462.9,171.0 L 467.5,170.7 L 472.2,169.5 L 476.8,168.6 L 481.5,168.6 L 486.1,168.3 L 490.8,167.7 L 495.5,165.7 L 500.1,165.1 L 504.8,164.2 L 509.4,164.2 L 514.1,163.6 L 518.7,163.3 L 523.4,163.0 L 528.0,162.7 L 532.7,162.4 L 537.3,162.4 L 542.0,162.1 L 546.6,161.8 L 551.3,160.9 L 555.9,159.8 L 560.6,159.5 L 565.3,158.6 L 569.9,158.6 L 574.6,157.4 L 579.2,157.1 L 583.9,157.1 L 588.5,157.1 L 593.2,156.2 L 597.8,155.9 L 602.5,155.9 L 607.1,155.9 L 611.8,155.6 L 616.4,154.4 L 621.1,154.2 L 625.7,153.3 L 630.4,152.7 L 635.1,152.7 L 639.7,151.8 L 644.4,151.2 L 649.0,151.2 L 653.7,150.9 L 658.3,149.4 L 663.0,148.0 L 667.6,147.7 L 672.3,147.1 L 676.9,145.9 L 681.6,145.9 L 686.2,145.3 L 690.9,143.8 L 695.5,141.2 L 700.2,140.3 L 704.9,140.3 L 709.5,140.3 L 714.2,140.3 L 718.8,140.3 L 723.5,139.1 L 728.1,138.2 L 732.8,138.2 L 737.4,138.2 L 742.1,138.2 L 746.7,137.3 L 751.4,137.3 L 756.0,136.5 L 760.7,135.6 L 765.3,135.3 L 770.0,135.0" fill="none" stroke="#34C759" stroke-width="2.5" stroke-linejoin="round" clip-path="url(#ca)"/>
<path d="M 72.0,340 L 72.0,222.6 L 76.7,222.6 L 81.3,222.3 L 86.0,221.4 L 90.6,221.7 L 95.3,221.7 L 99.9,220.5 L 104.6,219.6 L 109.2,219.6 L 113.9,219.9 L 118.5,219.6 L 123.2,219.3 L 127.8,219.1 L 132.5,219.1 L 137.1,219.1 L 141.8,219.3 L 146.5,218.8 L 151.1,218.2 L 155.8,216.4 L 160.4,215.2 L 165.1,215.2 L 169.7,214.9 L 174.4,213.2 L 179.0,210.5 L 183.7,209.6 L 188.3,209.0 L 193.0,207.0 L 197.6,205.5 L 202.3,204.9 L 206.9,204.3 L 211.6,203.7 L 216.3,203.4 L 220.9,203.4 L 225.6,201.3 L 230.2,200.8 L 234.9,200.2 L 239.5,200.2 L 244.2,198.7 L 248.8,198.4 L 253.5,197.5 L 258.1,196.3 L 262.8,194.9 L 267.4,192.8 L 272.1,190.7 L 276.7,190.4 L 281.4,189.8 L 286.1,189.3 L 290.7,187.5 L 295.4,187.5 L 300.0,186.9 L 304.7,186.0 L 309.3,185.4 L 314.0,184.2 L 318.6,184.5 L 323.3,181.0 L 327.9,180.7 L 332.6,180.4 L 337.2,179.8 L 341.9,178.0 L 346.5,178.0 L 351.2,176.3 L 355.9,174.2 L 360.5,174.2 L 365.2,174.2 L 369.8,173.9 L 374.5,173.6 L 379.1,173.3 L 383.8,171.9 L 388.4,170.1 L 393.1,169.5 L 397.7,168.3 L 402.4,168.3 L 407.0,167.4 L 411.7,165.7 L 416.3,164.8 L 421.0,164.5 L 425.7,162.4 L 430.3,162.1 L 435.0,162.1 L 439.6,161.8 L 444.3,161.8 L 448.9,160.3 L 453.6,159.8 L 458.2,158.9 L 462.9,158.6 L 467.5,158.0 L 472.2,155.6 L 476.8,152.4 L 481.5,152.1 L 486.1,151.5 L 490.8,151.2 L 495.5,149.7 L 500.1,118.5 L 504.8,117.9 L 509.4,116.4 L 514.1,116.4 L 518.7,116.4 L 523.4,116.7 L 528.0,116.4 L 532.7,114.6 L 537.3,114.0 L 542.0,113.7 L 546.6,113.4 L 551.3,112.3 L 555.9,110.5 L 560.6,110.5 L 565.3,110.5 L 569.9,110.2 L 574.6,109.9 L 579.2,109.9 L 583.9,109.3 L 588.5,108.4 L 593.2,106.9 L 597.8,106.4 L 602.5,106.1 L 607.1,106.1 L 611.8,105.8 L 616.4,105.2 L 621.1,104.9 L 625.7,103.4 L 630.4,103.4 L 635.1,102.8 L 639.7,101.6 L 644.4,100.2 L 649.0,99.9 L 653.7,99.6 L 658.3,96.9 L 663.0,96.3 L 667.6,95.7 L 672.3,95.7 L 676.9,94.6 L 681.6,94.0 L 686.2,92.5 L 690.9,91.9 L 695.5,91.0 L 700.2,90.7 L 704.9,89.5 L 709.5,88.7 L 714.2,88.4 L 718.8,87.8 L 723.5,86.6 L 728.1,86.0 L 732.8,85.1 L 737.4,84.5 L 742.1,84.2 L 746.7,83.6 L 751.4,82.8 L 756.0,82.2 L 760.7,81.6 L 765.3,80.7 L 770.0,80.7 L 770.0,340 Z" fill="url(#g6)" clip-path="url(#ca)"/>
<path d="M 72.0,222.6 L 76.7,222.6 L 81.3,222.3 L 86.0,221.4 L 90.6,221.7 L 95.3,221.7 L 99.9,220.5 L 104.6,219.6 L 109.2,219.6 L 113.9,219.9 L 118.5,219.6 L 123.2,219.3 L 127.8,219.1 L 132.5,219.1 L 137.1,219.1 L 141.8,219.3 L 146.5,218.8 L 151.1,218.2 L 155.8,216.4 L 160.4,215.2 L 165.1,215.2 L 169.7,214.9 L 174.4,213.2 L 179.0,210.5 L 183.7,209.6 L 188.3,209.0 L 193.0,207.0 L 197.6,205.5 L 202.3,204.9 L 206.9,204.3 L 211.6,203.7 L 216.3,203.4 L 220.9,203.4 L 225.6,201.3 L 230.2,200.8 L 234.9,200.2 L 239.5,200.2 L 244.2,198.7 L 248.8,198.4 L 253.5,197.5 L 258.1,196.3 L 262.8,194.9 L 267.4,192.8 L 272.1,190.7 L 276.7,190.4 L 281.4,189.8 L 286.1,189.3 L 290.7,187.5 L 295.4,187.5 L 300.0,186.9 L 304.7,186.0 L 309.3,185.4 L 314.0,184.2 L 318.6,184.5 L 323.3,181.0 L 327.9,180.7 L 332.6,180.4 L 337.2,179.8 L 341.9,178.0 L 346.5,178.0 L 351.2,176.3 L 355.9,174.2 L 360.5,174.2 L 365.2,174.2 L 369.8,173.9 L 374.5,173.6 L 379.1,173.3 L 383.8,171.9 L 388.4,170.1 L 393.1,169.5 L 397.7,168.3 L 402.4,168.3 L 407.0,167.4 L 411.7,165.7 L 416.3,164.8 L 421.0,164.5 L 425.7,162.4 L 430.3,162.1 L 435.0,162.1 L 439.6,161.8 L 444.3,161.8 L 448.9,160.3 L 453.6,159.8 L 458.2,158.9 L 462.9,158.6 L 467.5,158.0 L 472.2,155.6 L 476.8,152.4 L 481.5,152.1 L 486.1,151.5 L 490.8,151.2 L 495.5,149.7 L 500.1,118.5 L 504.8,117.9 L 509.4,116.4 L 514.1,116.4 L 518.7,116.4 L 523.4,116.7 L 528.0,116.4 L 532.7,114.6 L 537.3,114.0 L 542.0,113.7 L 546.6,113.4 L 551.3,112.3 L 555.9,110.5 L 560.6,110.5 L 565.3,110.5 L 569.9,110.2 L 574.6,109.9 L 579.2,109.9 L 583.9,109.3 L 588.5,108.4 L 593.2,106.9 L 597.8,106.4 L 602.5,106.1 L 607.1,106.1 L 611.8,105.8 L 616.4,105.2 L 621.1,104.9 L 625.7,103.4 L 630.4,103.4 L 635.1,102.8 L 639.7,101.6 L 644.4,100.2 L 649.0,99.9 L 653.7,99.6 L 658.3,96.9 L 663.0,96.3 L 667.6,95.7 L 672.3,95.7 L 676.9,94.6 L 681.6,94.0 L 686.2,92.5 L 690.9,91.9 L 695.5,91.0 L 700.2,90.7 L 704.9,89.5 L 709.5,88.7 L 714.2,88.4 L 718.8,87.8 L 723.5,86.6 L 728.1,86.0 L 732.8,85.1 L 737.4,84.5 L 742.1,84.2 L 746.7,83.6 L 751.4,82.8 L 756.0,82.2 L 760.7,81.6 L 765.3,80.7 L 770.0,80.7" fill="none" stroke="#4F8EF7" stroke-width="2.5" stroke-linejoin="round" clip-path="url(#ca)"/>
<path d="M 72.0,340 L 72.0,338.2 L 76.7,337.9 L 81.3,337.9 L 86.0,337.6 L 90.6,337.6 L 95.3,337.6 L 99.9,337.6 L 104.6,337.6 L 109.2,337.1 L 113.9,337.1 L 118.5,337.1 L 123.2,337.1 L 127.8,337.1 L 132.5,336.8 L 137.1,336.8 L 141.8,336.8 L 146.5,336.8 L 151.1,336.8 L 155.8,336.5 L 160.4,335.9 L 165.1,335.6 L 169.7,335.6 L 174.4,335.6 L 179.0,335.3 L 183.7,335.3 L 188.3,335.3 L 193.0,335.0 L 197.6,335.0 L 202.3,335.0 L 206.9,334.7 L 211.6,334.7 L 216.3,334.7 L 220.9,334.7 L 225.6,334.4 L 230.2,334.4 L 234.9,334.4 L 239.5,334.4 L 244.2,334.4 L 248.8,334.4 L 253.5,334.4 L 258.1,334.4 L 262.8,334.4 L 267.4,334.4 L 272.1,334.4 L 276.7,334.4 L 281.4,334.4 L 286.1,334.1 L 290.7,334.1 L 295.4,334.1 L 300.0,334.1 L 304.7,334.1 L 309.3,334.1 L 314.0,334.1 L 318.6,334.1 L 323.3,334.1 L 327.9,334.1 L 332.6,334.1 L 337.2,334.1 L 341.9,333.8 L 346.5,333.8 L 351.2,333.8 L 355.9,333.8 L 360.5,333.8 L 365.2,333.8 L 369.8,333.8 L 374.5,333.8 L 379.1,333.8 L 383.8,333.8 L 388.4,333.8 L 393.1,333.8 L 397.7,333.8 L 402.4,333.8 L 407.0,333.8 L 411.7,333.8 L 416.3,333.8 L 421.0,333.8 L 425.7,333.8 L 430.3,333.8 L 435.0,333.8 L 439.6,333.8 L 444.3,333.8 L 448.9,333.8 L 453.6,333.8 L 458.2,333.8 L 462.9,333.8 L 467.5,333.8 L 472.2,333.8 L 476.8,333.8 L 481.5,333.8 L 486.1,333.8 L 490.8,333.8 L 495.5,333.8 L 500.1,333.8 L 504.8,333.8 L 509.4,333.5 L 514.1,333.5 L 518.7,333.5 L 523.4,333.5 L 528.0,333.5 L 532.7,333.2 L 537.3,333.2 L 542.0,333.2 L 546.6,333.2 L 551.3,332.9 L 555.9,332.9 L 560.6,332.6 L 565.3,332.6 L 569.9,332.6 L 574.6,332.6 L 579.2,332.6 L 583.9,332.6 L 588.5,332.6 L 593.2,332.6 L 597.8,332.6 L 602.5,332.6 L 607.1,332.6 L 611.8,332.6 L 616.4,332.6 L 621.1,332.6 L 625.7,332.6 L 630.4,332.6 L 635.1,332.6 L 639.7,332.6 L 644.4,332.6 L 649.0,332.6 L 653.7,332.6 L 658.3,332.6 L 663.0,332.6 L 667.6,332.6 L 672.3,332.6 L 676.9,332.6 L 681.6,332.6 L 686.2,332.6 L 690.9,332.6 L 695.5,332.6 L 700.2,332.6 L 704.9,332.6 L 709.5,332.6 L 714.2,332.6 L 718.8,332.6 L 723.5,332.6 L 728.1,332.6 L 732.8,332.6 L 737.4,332.6 L 742.1,332.6 L 746.7,332.6 L 751.4,332.6 L 756.0,332.6 L 760.7,332.6 L 765.3,332.6 L 770.0,332.6 L 770.0,340 Z" fill="url(#g7)" clip-path="url(#ca)"/>
<path d="M 72.0,338.2 L 76.7,337.9 L 81.3,337.9 L 86.0,337.6 L 90.6,337.6 L 95.3,337.6 L 99.9,337.6 L 104.6,337.6 L 109.2,337.1 L 113.9,337.1 L 118.5,337.1 L 123.2,337.1 L 127.8,337.1 L 132.5,336.8 L 137.1,336.8 L 141.8,336.8 L 146.5,336.8 L 151.1,336.8 L 155.8,336.5 L 160.4,335.9 L 165.1,335.6 L 169.7,335.6 L 174.4,335.6 L 179.0,335.3 L 183.7,335.3 L 188.3,335.3 L 193.0,335.0 L 197.6,335.0 L 202.3,335.0 L 206.9,334.7 L 211.6,334.7 L 216.3,334.7 L 220.9,334.7 L 225.6,334.4 L 230.2,334.4 L 234.9,334.4 L 239.5,334.4 L 244.2,334.4 L 248.8,334.4 L 253.5,334.4 L 258.1,334.4 L 262.8,334.4 L 267.4,334.4 L 272.1,334.4 L 276.7,334.4 L 281.4,334.4 L 286.1,334.1 L 290.7,334.1 L 295.4,334.1 L 300.0,334.1 L 304.7,334.1 L 309.3,334.1 L 314.0,334.1 L 318.6,334.1 L 323.3,334.1 L 327.9,334.1 L 332.6,334.1 L 337.2,334.1 L 341.9,333.8 L 346.5,333.8 L 351.2,333.8 L 355.9,333.8 L 360.5,333.8 L 365.2,333.8 L 369.8,333.8 L 374.5,333.8 L 379.1,333.8 L 383.8,333.8 L 388.4,333.8 L 393.1,333.8 L 397.7,333.8 L 402.4,333.8 L 407.0,333.8 L 411.7,333.8 L 416.3,333.8 L 421.0,333.8 L 425.7,333.8 L 430.3,333.8 L 435.0,333.8 L 439.6,333.8 L 444.3,333.8 L 448.9,333.8 L 453.6,333.8 L 458.2,333.8 L 462.9,333.8 L 467.5,333.8 L 472.2,333.8 L 476.8,333.8 L 481.5,333.8 L 486.1,333.8 L 490.8,333.8 L 495.5,333.8 L 500.1,333.8 L 504.8,333.8 L 509.4,333.5 L 514.1,333.5 L 518.7,333.5 L 523.4,333.5 L 528.0,333.5 L 532.7,333.2 L 537.3,333.2 L 542.0,333.2 L 546.6,333.2 L 551.3,332.9 L 555.9,332.9 L 560.6,332.6 L 565.3,332.6 L 569.9,332.6 L 574.6,332.6 L 579.2,332.6 L 583.9,332.6 L 588.5,332.6 L 593.2,332.6 L 597.8,332.6 L 602.5,332.6 L 607.1,332.6 L 611.8,332.6 L 616.4,332.6 L 621.1,332.6 L 625.7,332.6 L 630.4,332.6 L 635.1,332.6 L 639.7,332.6 L 644.4,332.6 L 649.0,332.6 L 653.7,332.6 L 658.3,332.6 L 663.0,332.6 L 667.6,332.6 L 672.3,332.6 L 676.9,332.6 L 681.6,332.6 L 686.2,332.6 L 690.9,332.6 L 695.5,332.6 L 700.2,332.6 L 704.9,332.6 L 709.5,332.6 L 714.2,332.6 L 718.8,332.6 L 723.5,332.6 L 728.1,332.6 L 732.8,332.6 L 737.4,332.6 L 742.1,332.6 L 746.7,332.6 L 751.4,332.6 L 756.0,332.6 L 760.7,332.6 L 765.3,332.6 L 770.0,332.6" fill="none" stroke="#FF6363" stroke-width="2.5" stroke-linejoin="round" clip-path="url(#ca)"/>
<text x="97.6" y="55.0" text-anchor="middle" font-size="9" fill="#34C759" opacity="0.85" clip-path="url(#ca)">+15.2% (+50)</text>
<text x="97.6" y="66.0" text-anchor="middle" font-size="9" fill="#4F8EF7" opacity="0.85" clip-path="url(#ca)">+2.8% (+11)</text>
<text x="97.6" y="77.0" text-anchor="middle" font-size="9" fill="#FF6363" opacity="0.85" clip-path="url(#ca)">+66.7% (+4)</text>
<text x="186.0" y="55.0" text-anchor="middle" font-size="9" fill="#34C759" opacity="0.85" clip-path="url(#ca)">+20.1% (+77)</text>
<text x="186.0" y="66.0" text-anchor="middle" font-size="9" fill="#4F8EF7" opacity="0.85" clip-path="url(#ca)">+16.8% (+69)</text>
<text x="186.0" y="77.0" text-anchor="middle" font-size="9" fill="#FF6363" opacity="0.85" clip-path="url(#ca)">+90.0% (+9)</text>
<text x="309.3" y="55.0" text-anchor="middle" font-size="9" fill="#34C759" opacity="0.85" clip-path="url(#ca)">+16.1% (+74)</text>
<text x="309.3" y="66.0" text-anchor="middle" font-size="9" fill="#4F8EF7" opacity="0.85" clip-path="url(#ca)">+17.3% (+83)</text>
<text x="309.3" y="77.0" text-anchor="middle" font-size="9" fill="#FF6363" opacity="0.85" clip-path="url(#ca)">+10.5% (+2)</text>
<text x="435.0" y="55.0" text-anchor="middle" font-size="9" fill="#34C759" opacity="0.85" clip-path="url(#ca)">+10.5% (+56)</text>
<text x="435.0" y="66.0" text-anchor="middle" font-size="9" fill="#4F8EF7" opacity="0.85" clip-path="url(#ca)">+14.4% (+81)</text>
<text x="435.0" y="77.0" text-anchor="middle" font-size="9" fill="#FF6363" opacity="0.85" clip-path="url(#ca)">+0.0% (+0)</text>
<text x="560.6" y="55.0" text-anchor="middle" font-size="9" fill="#34C759" opacity="0.85" clip-path="url(#ca)">+6.2% (+37)</text>
<text x="560.6" y="66.0" text-anchor="middle" font-size="9" fill="#4F8EF7" opacity="0.85" clip-path="url(#ca)">+6.1% (+46)</text>
<text x="560.6" y="77.0" text-anchor="middle" font-size="9" fill="#FF6363" opacity="0.85" clip-path="url(#ca)">+19.0% (+4)</text>
<text x="683.9" y="55.0" text-anchor="middle" font-size="9" fill="#34C759" opacity="0.85" clip-path="url(#ca)">+8.1% (+51)</text>
<text x="683.9" y="66.0" text-anchor="middle" font-size="9" fill="#4F8EF7" opacity="0.85" clip-path="url(#ca)">+8.1% (+65)</text>
<text x="683.9" y="77.0" text-anchor="middle" font-size="9" fill="#FF6363" opacity="0.85" clip-path="url(#ca)">+0.0% (+0)</text>
<text x="758.4" y="55.0" text-anchor="middle" font-size="9" fill="#34C759" opacity="0.85" clip-path="url(#ca)">+1.2% (+8)</text>
<text x="758.4" y="66.0" text-anchor="middle" font-size="9" fill="#4F8EF7" opacity="0.85" clip-path="url(#ca)">+1.2% (+10)</text>
<text x="758.4" y="77.0" text-anchor="middle" font-size="9" fill="#FF6363" opacity="0.85" clip-path="url(#ca)">+0.0% (+0)</text>
<rect x="211" y="369" width="12" height="12" fill="#34C759" rx="2"/>
<text x="227" y="379" font-size="12" fill="#111827">macOS + Windows</text>
<rect x="351" y="369" width="12" height="12" fill="#4F8EF7" rx="2"/>
<text x="367" y="379" font-size="12" fill="#111827">macOS only</text>
<rect x="491" y="369" width="12" height="12" fill="#FF6363" rx="2"/>
<text x="507" y="379" font-size="12" fill="#111827">Windows only</text>
<text x="72" y="394" font-size="8" fill="#e5e7eb">data since Dec 11, 2025</text>
</svg>