<svg xmlns="http://www.w3.org/2000/svg" width="800" height="400" viewBox="0 0 800 400">
<defs>
  <style>text { font-family: -apple-system, BlinkMacSystemFont, 'Segoe UI', Roboto, sans-serif; }</style>
  <linearGradient id="g2" x1="0" y1="0" x2="0" y2="1">
  <stop offset="0%" stop-color="#4F8EF7" stop-opacity="0.25"/>
  <stop offset="100%" stop-color="#4F8EF7" stop-opacity="0"/>
</linearGradient>
<linearGradient id="g3" x1="0" y1="0" x2="0" y2="1">
  <stop offset="0%" stop-color="#BF5AF2" stop-opacity="0.25"/>
  <stop offset="100%" stop-color="#BF5AF2" stop-opacity="0"/>
</linearGradient>
<linearGradient id="g4" x1="0" y1="0" x2="0" y2="1">
  <stop offset="0%" stop-color="#34C759" stop-opacity="0.25"/>
  <stop offset="100%" stop-color="#34C759" stop-opacity="0"/>
</linearGradient>
  <clipPath id="ca"><rect x="72" y="45" width="698" height="295"/></clipPath>
</defs>
<rect width="800" height="400" fill="#ffffff" rx="12"/>
<text x="400" y="26" text-anchor="middle" font-size="15" font-weight="600" fill="#111827">Community Growth Over Time</text>
<line x1="72" y1="340.0" x2="770" y2="340.0" stroke="#f3f4f6" stroke-width="1"/>
<text x="66" y="344.0" text-anchor="end" font-size="11" fill="#6b7280">500</text>
<line x1="72" y1="241.7" x2="770" y2="241.7" stroke="#f3f4f6" stroke-width="1"/>
<text x="66" y="245.7" text-anchor="end" font-size="11" fill="#6b7280">1.0k</text>
<line x1="72" y1="143.3" x2="770" y2="143.3" stroke="#f3f4f6" stroke-width="1"/>
<text x="66" y="147.3" text-anchor="end" font-size="11" fill="#6b7280">1.5k</text>
<line x1="72" y1="45.0" x2="770" y2="45.0" stroke="#f3f4f6" stroke-width="1"/>
<text x="66" y="49.0" text-anchor="end" font-size="11" fill="#6b7280">2.0k</text>
<line x1="122.5" y1="45" x2="122.5" y2="340" stroke="#e5e7eb" stroke-width="1" stroke-dasharray="3,3" clip-path="url(#ca)"/>
<line x1="231.8" y1="45" x2="231.8" y2="340" stroke="#e5e7eb" stroke-width="1" stroke-dasharray="3,3" clip-path="url(#ca)"/>
<line x1="345.3" y1="45" x2="345.3" y2="340" stroke="#e5e7eb" stroke-width="1" stroke-dasharray="3,3" clip-path="url(#ca)"/>
<line x1="458.8" y1="45" x2="458.8" y2="340" stroke="#e5e7eb" stroke-width="1" stroke-dasharray="3,3" clip-path="url(#ca)"/>
<line x1="572.4" y1="45" x2="572.4" y2="340" stroke="#e5e7eb" stroke-width="1" stroke-dasharray="3,3" clip-path="url(#ca)"/>
<line x1="681.7" y1="45" x2="681.7" y2="340" stroke="#e5e7eb" stroke-width="1" stroke-dasharray="3,3" clip-path="url(#ca)"/>
<text x="72.0" y="358.0" text-anchor="middle" font-size="11" fill="#6b7280">Dec 11</text>
<text x="210.8" y="358.0" text-anchor="middle" font-size="11" fill="#6b7280">Jan 27</text>
<text x="349.5" y="358.0" text-anchor="middle" font-size="11" fill="#6b7280">Mar 2</text>
<text x="492.5" y="358.0" text-anchor="middle" font-size="11" fill="#6b7280">Apr 10</text>
<text x="631.2" y="358.0" text-anchor="middle" font-size="11" fill="#6b7280">May 20</text>
<text x="770.0" y="358.0" text-anchor="middle" font-size="11" fill="#6b7280">Jun 27</text>
<line x1="72" y1="45" x2="72" y2="340" stroke="#e5e7eb" stroke-width="1"/>
<line x1="72" y1="340" x2="770" y2="340" stroke="#e5e7eb" stroke-width="1"/>
<text x="-192.5" y="18" text-anchor="middle" font-size="12" fill="#6b7280" transform="rotate(-90)">People</text>
<path d="M 72.0,340 L 72.0,120.1 L 76.2,120.1 L 80.4,120.1 L 84.6,119.5 L 88.8,119.5 L 93.0,119.1 L 97.2,118.9 L 101.4,119.1 L 105.6,118.6 L 109.8,118.6 L 114.0,118.6 L 118.3,118.6 L 122.5,118.6 L 126.7,118.6 L 130.9,118.6 L 135.1,118.6 L 139.3,118.4 L 143.5,117.8 L 147.7,116.6 L 151.9,116.0 L 156.1,115.8 L 160.3,115.8 L 164.5,115.2 L 168.7,113.8 L 172.9,113.0 L 177.1,113.0 L 181.3,112.1 L 185.5,111.7 L 189.7,110.9 L 193.9,110.3 L 198.1,109.7 L 202.3,109.1 L 206.6,109.1 L 210.8,107.7 L 215.0,106.9 L 219.2,106.9 L 223.4,106.2 L 227.6,105.8 L 231.8,105.6 L 236.0,105.4 L 240.2,105.4 L 244.4,104.8 L 248.6,102.4 L 252.8,101.0 L 257.0,100.3 L 261.2,100.1 L 265.4,99.7 L 269.6,98.9 L 273.8,98.5 L 278.0,98.1 L 282.2,97.7 L 286.4,97.3 L 290.7,96.9 L 294.9,96.9 L 299.1,95.0 L 303.3,95.0 L 307.5,94.8 L 311.7,94.6 L 315.9,94.2 L 320.1,94.2 L 324.3,93.2 L 328.5,92.0 L 332.7,91.6 L 336.9,92.0 L 341.1,91.8 L 345.3,91.6 L 349.5,91.6 L 353.7,91.2 L 357.9,90.4 L 362.1,90.0 L 366.3,89.6 L 370.5,89.4 L 374.7,89.4 L 379.0,88.7 L 383.2,88.3 L 387.4,88.3 L 391.6,86.7 L 395.8,86.7 L 400.0,86.7 L 404.2,86.7 L 408.4,86.5 L 412.6,85.9 L 416.8,85.1 L 421.0,84.7 L 425.2,84.7 L 429.4,84.3 L 433.6,82.8 L 437.8,81.8 L 442.0,81.6 L 446.2,81.4 L 450.4,80.8 L 454.6,79.6 L 458.8,79.2 L 463.0,78.8 L 467.3,77.6 L 471.5,77.4 L 475.7,77.4 L 479.9,77.4 L 484.1,77.3 L 488.3,76.1 L 492.5,75.9 L 496.7,75.7 L 500.9,75.7 L 505.1,75.3 L 509.3,73.7 L 513.5,73.5 L 517.7,73.3 L 521.9,73.3 L 526.1,72.5 L 530.3,72.3 L 534.5,72.1 L 538.7,71.6 L 542.9,70.8 L 547.1,70.8 L 551.3,70.8 L 555.6,70.8 L 559.8,70.4 L 564.0,69.8 L 568.2,69.6 L 572.4,69.0 L 576.6,68.8 L 580.8,68.6 L 585.0,67.8 L 589.2,67.2 L 593.4,67.0 L 597.6,67.0 L 601.8,65.3 L 606.0,64.7 L 610.2,64.5 L 614.4,64.5 L 618.6,63.5 L 622.8,63.5 L 627.0,62.9 L 631.2,62.3 L 635.4,60.9 L 639.7,60.7 L 643.9,60.5 L 648.1,60.3 L 652.3,60.3 L 656.5,60.1 L 660.7,59.2 L 664.9,58.6 L 669.1,58.6 L 673.3,58.4 L 677.5,58.4 L 681.7,57.8 L 685.9,57.6 L 690.1,57.4 L 694.3,56.8 L 698.5,56.0 L 702.7,56.0 L 706.9,55.8 L 711.1,55.6 L 715.3,54.6 L 719.5,53.3 L 723.7,53.1 L 728.0,52.7 L 732.2,52.3 L 736.4,52.1 L 740.6,51.5 L 744.8,50.7 L 749.0,50.5 L 753.2,49.9 L 757.4,49.5 L 761.6,48.5 L 765.8,48.3 L 770.0,47.9 L 770.0,340 Z" fill="url(#g2)" clip-path="url(#ca)"/>
<path d="M 72.0,120.1 L 76.2,120.1 L 80.4,120.1 L 84.6,119.5 L 88.8,119.5 L 93.0,119.1 L 97.2,118.9 L 101.4,119.1 L 105.6,118.6 L 109.8,118.6 L 114.0,118.6 L 118.3,118.6 L 122.5,118.6 L 126.7,118.6 L 130.9,118.6 L 135.1,118.6 L 139.3,118.4 L 143.5,117.8 L 147.7,116.6 L 151.9,116.0 L 156.1,115.8 L 160.3,115.8 L 164.5,115.2 L 168.7,113.8 L 172.9,113.0 L 177.1,113.0 L 181.3,112.1 L 185.5,111.7 L 189.7,110.9 L 193.9,110.3 L 198.1,109.7 L 202.3,109.1 L 206.6,109.1 L 210.8,107.7 L 215.0,106.9 L 219.2,106.9 L 223.4,106.2 L 227.6,105.8 L 231.8,105.6 L 236.0,105.4 L 240.2,105.4 L 244.4,104.8 L 248.6,102.4 L 252.8,101.0 L 257.0,100.3 L 261.2,100.1 L 265.4,99.7 L 269.6,98.9 L 273.8,98.5 L 278.0,98.1 L 282.2,97.7 L 286.4,97.3 L 290.7,96.9 L 294.9,96.9 L 299.1,95.0 L 303.3,95.0 L 307.5,94.8 L 311.7,94.6 L 315.9,94.2 L 320.1,94.2 L 324.3,93.2 L 328.5,92.0 L 332.7,91.6 L 336.9,92.0 L 341.1,91.8 L 345.3,91.6 L 349.5,91.6 L 353.7,91.2 L 357.9,90.4 L 362.1,90.0 L 366.3,89.6 L 370.5,89.4 L 374.7,89.4 L 379.0,88.7 L 383.2,88.3 L 387.4,88.3 L 391.6,86.7 L 395.8,86.7 L 400.0,86.7 L 404.2,86.7 L 408.4,86.5 L 412.6,85.9 L 416.8,85.1 L 421.0,84.7 L 425.2,84.7 L 429.4,84.3 L 433.6,82.8 L 437.8,81.8 L 442.0,81.6 L 446.2,81.4 L 450.4,80.8 L 454.6,79.6 L 458.8,79.2 L 463.0,78.8 L 467.3,77.6 L 471.5,77.4 L 475.7,77.4 L 479.9,77.4 L 484.1,77.3 L 488.3,76.1 L 492.5,75.9 L 496.7,75.7 L 500.9,75.7 L 505.1,75.3 L 509.3,73.7 L 513.5,73.5 L 517.7,73.3 L 521.9,73.3 L 526.1,72.5 L 530.3,72.3 L 534.5,72.1 L 538.7,71.6 L 542.9,70.8 L 547.1,70.8 L 551.3,70.8 L 555.6,70.8 L 559.8,70.4 L 564.0,69.8 L 568.2,69.6 L 572.4,69.0 L 576.6,68.8 L 580.8,68.6 L 585.0,67.8 L 589.2,67.2 L 593.4,67.0 L 597.6,67.0 L 601.8,65.3 L 606.0,64.7 L 610.2,64.5 L 614.4,64.5 L 618.6,63.5 L 622.8,63.5 L 627.0,62.9 L 631.2,62.3 L 635.4,60.9 L 639.7,60.7 L 643.9,60.5 L 648.1,60.3 L 652.3,60.3 L 656.5,60.1 L 660.7,59.2 L 664.9,58.6 L 669.1,58.6 L 673.3,58.4 L 677.5,58.4 L 681.7,57.8 L 685.9,57.6 L 690.1,57.4 L 694.3,56.8 L 698.5,56.0 L 702.7,56.0 L 706.9,55.8 L 711.1,55.6 L 715.3,54.6 L 719.5,53.3 L 723.7,53.1 L 728.0,52.7 L 732.2,52.3 L 736.4,52.1 L 740.6,51.5 L 744.8,50.7 L 749.0,50.5 L 753.2,49.9 L 757.4,49.5 L 761.6,48.5 L 765.8,48.3 L 770.0,47.9" fill="none" stroke="#4F8EF7" stroke-width="2.5" stroke-linejoin="round" clip-path="url(#ca)"/>
<path d="M 72.0,340 L 72.0,244.2 L 76.2,243.6 L 80.4,243.6 L 84.6,243.6 L 88.8,243.4 L 93.0,243.0 L 97.2,242.8 L 101.4,242.6 L 105.6,242.6 L 109.8,242.5 L 114.0,242.3 L 118.3,242.3 L 122.5,242.3 L 126.7,242.3 L 130.9,242.3 L 135.1,242.3 L 139.3,241.9 L 143.5,241.9 L 147.7,241.9 L 151.9,241.1 L 156.1,240.9 L 160.3,240.5 L 164.5,239.7 L 168.7,239.5 L 172.9,239.5 L 177.1,239.5 L 181.3,238.9 L 185.5,238.5 L 189.7,238.5 L 193.9,238.1 L 198.1,237.9 L 202.3,237.5 L 206.6,237.5 L 210.8,237.3 L 215.0,236.6 L 219.2,236.0 L 223.4,235.6 L 227.6,235.4 L 231.8,235.4 L 236.0,235.2 L 240.2,234.8 L 244.4,234.8 L 248.6,234.6 L 252.8,234.0 L 257.0,233.6 L 261.2,233.6 L 265.4,233.6 L 269.6,233.6 L 273.8,233.4 L 278.0,232.8 L 282.2,232.4 L 286.4,232.2 L 290.7,232.0 L 294.9,231.8 L 299.1,231.6 L 303.3,231.4 L 307.5,231.2 L 311.7,230.7 L 315.9,230.5 L 320.1,230.3 L 324.3,229.5 L 328.5,228.7 L 332.7,228.7 L 336.9,228.5 L 341.1,228.3 L 345.3,228.3 L 349.5,228.3 L 353.7,227.9 L 357.9,227.9 L 362.1,226.7 L 366.3,226.5 L 370.5,226.3 L 374.7,226.3 L 379.0,225.9 L 383.2,225.7 L 387.4,225.7 L 391.6,225.5 L 395.8,225.5 L 400.0,225.5 L 404.2,225.1 L 408.4,224.9 L 412.6,224.0 L 416.8,224.2 L 421.0,224.0 L 425.2,223.8 L 429.4,223.8 L 433.6,223.6 L 437.8,223.0 L 442.0,223.0 L 446.2,223.0 L 450.4,223.0 L 454.6,222.6 L 458.8,222.6 L 463.0,222.2 L 467.3,221.8 L 471.5,221.0 L 475.7,221.0 L 479.9,220.6 L 484.1,220.4 L 488.3,220.2 L 492.5,220.0 L 496.7,219.6 L 500.9,219.6 L 505.1,219.1 L 509.3,219.1 L 513.5,218.9 L 517.7,218.5 L 521.9,218.3 L 526.1,218.3 L 530.3,218.3 L 534.5,218.3 L 538.7,218.3 L 542.9,217.7 L 547.1,217.7 L 551.3,217.3 L 555.6,216.9 L 559.8,216.3 L 564.0,216.1 L 568.2,216.1 L 572.4,214.9 L 576.6,214.7 L 580.8,214.7 L 585.0,213.9 L 589.2,213.9 L 593.4,213.5 L 597.6,213.5 L 601.8,213.3 L 606.0,213.3 L 610.2,213.2 L 614.4,212.8 L 618.6,212.8 L 622.8,212.6 L 627.0,212.4 L 631.2,212.2 L 635.4,212.0 L 639.7,212.0 L 643.9,211.6 L 648.1,211.6 L 652.3,211.6 L 656.5,210.6 L 660.7,210.6 L 664.9,210.6 L 669.1,210.6 L 673.3,210.6 L 677.5,210.6 L 681.7,210.2 L 685.9,210.2 L 690.1,209.8 L 694.3,209.0 L 698.5,208.6 L 702.7,208.4 L 706.9,208.4 L 711.1,208.2 L 715.3,207.6 L 719.5,207.4 L 723.7,207.4 L 728.0,207.1 L 732.2,206.5 L 736.4,206.1 L 740.6,206.1 L 744.8,205.9 L 749.0,205.9 L 753.2,205.3 L 757.4,205.1 L 761.6,205.1 L 765.8,204.7 L 770.0,204.7 L 770.0,340 Z" fill="url(#g3)" clip-path="url(#ca)"/>
<path d="M 72.0,244.2 L 76.2,243.6 L 80.4,243.6 L 84.6,243.6 L 88.8,243.4 L 93.0,243.0 L 97.2,242.8 L 101.4,242.6 L 105.6,242.6 L 109.8,242.5 L 114.0,242.3 L 118.3,242.3 L 122.5,242.3 L 126.7,242.3 L 130.9,242.3 L 135.1,242.3 L 139.3,241.9 L 143.5,241.9 L 147.7,241.9 L 151.9,241.1 L 156.1,240.9 L 160.3,240.5 L 164.5,239.7 L 168.7,239.5 L 172.9,239.5 L 177.1,239.5 L 181.3,238.9 L 185.5,238.5 L 189.7,238.5 L 193.9,238.1 L 198.1,237.9 L 202.3,237.5 L 206.6,237.5 L 210.8,237.3 L 215.0,236.6 L 219.2,236.0 L 223.4,235.6 L 227.6,235.4 L 231.8,235.4 L 236.0,235.2 L 240.2,234.8 L 244.4,234.8 L 248.6,234.6 L 252.8,234.0 L 257.0,233.6 L 261.2,233.6 L 265.4,233.6 L 269.6,233.6 L 273.8,233.4 L 278.0,232.8 L 282.2,232.4 L 286.4,232.2 L 290.7,232.0 L 294.9,231.8 L 299.1,231.6 L 303.3,231.4 L 307.5,231.2 L 311.7,230.7 L 315.9,230.5 L 320.1,230.3 L 324.3,229.5 L 328.5,228.7 L 332.7,228.7 L 336.9,228.5 L 341.1,228.3 L 345.3,228.3 L 349.5,228.3 L 353.7,227.9 L 357.9,227.9 L 362.1,226.7 L 366.3,226.5 L 370.5,226.3 L 374.7,226.3 L 379.0,225.9 L 383.2,225.7 L 387.4,225.7 L 391.6,225.5 L 395.8,225.5 L 400.0,225.5 L 404.2,225.1 L 408.4,224.9 L 412.6,224.0 L 416.8,224.2 L 421.0,224.0 L 425.2,223.8 L 429.4,223.8 L 433.6,223.6 L 437.8,223.0 L 442.0,223.0 L 446.2,223.0 L 450.4,223.0 L 454.6,222.6 L 458.8,222.6 L 463.0,222.2 L 467.3,221.8 L 471.5,221.0 L 475.7,221.0 L 479.9,220.6 L 484.1,220.4 L 488.3,220.2 L 492.5,220.0 L 496.7,219.6 L 500.9,219.6 L 505.1,219.1 L 509.3,219.1 L 513.5,218.9 L 517.7,218.5 L 521.9,218.3 L 526.1,218.3 L 530.3,218.3 L 534.5,218.3 L 538.7,218.3 L 542.9,217.7 L 547.1,217.7 L 551.3,217.3 L 555.6,216.9 L 559.8,216.3 L 564.0,216.1 L 568.2,216.1 L 572.4,214.9 L 576.6,214.7 L 580.8,214.7 L 585.0,213.9 L 589.2,213.9 L 593.4,213.5 L 597.6,213.5 L 601.8,213.3 L 606.0,213.3 L 610.2,213.2 L 614.4,212.8 L 618.6,212.8 L 622.8,212.6 L 627.0,212.4 L 631.2,212.2 L 635.4,212.0 L 639.7,212.0 L 643.9,211.6 L 648.1,211.6 L 652.3,211.6 L 656.5,210.6 L 660.7,210.6 L 664.9,210.6 L 669.1,210.6 L 673.3,210.6 L 677.5,210.6 L 681.7,210.2 L 685.9,210.2 L 690.1,209.8 L 694.3,209.0 L 698.5,208.6 L 702.7,208.4 L 706.9,208.4 L 711.1,208.2 L 715.3,207.6 L 719.5,207.4 L 723.7,207.4 L 728.0,207.1 L 732.2,206.5 L 736.4,206.1 L 740.6,206.1 L 744.8,205.9 L 749.0,205.9 L 753.2,205.3 L 757.4,205.1 L 761.6,205.1 L 765.8,204.7 L 770.0,204.7" fill="none" stroke="#BF5AF2" stroke-width="2.5" stroke-linejoin="round" clip-path="url(#ca)"/>
<path d="M 72.0,340 L 72.0,291.4 L 76.2,290.8 L 80.4,290.8 L 84.6,290.8 L 88.8,290.6 L 93.0,290.2 L 97.2,290.0 L 101.4,289.7 L 105.6,289.7 L 109.8,289.5 L 114.0,289.3 L 118.3,289.3 L 122.5,289.3 L 126.7,289.3 L 130.9,289.3 L 135.1,289.3 L 139.3,288.9 L 143.5,288.9 L 147.7,289.1 L 151.9,288.5 L 156.1,288.7 L 160.3,288.1 L 164.5,287.5 L 168.7,287.3 L 172.9,287.5 L 177.1,287.5 L 181.3,286.9 L 185.5,286.7 L 189.7,286.7 L 193.9,286.3 L 198.1,286.1 L 202.3,285.7 L 206.6,285.7 L 210.8,285.5 L 215.0,284.9 L 219.2,284.3 L 223.4,283.9 L 227.6,283.9 L 231.8,283.9 L 236.0,283.8 L 240.2,283.4 L 244.4,283.4 L 248.6,283.2 L 252.8,282.6 L 257.0,282.4 L 261.2,282.4 L 265.4,282.4 L 269.6,282.4 L 273.8,282.2 L 278.0,281.6 L 282.2,281.4 L 286.4,281.2 L 290.7,281.0 L 294.9,281.0 L 299.1,280.8 L 303.3,280.8 L 307.5,280.8 L 311.7,280.2 L 315.9,280.2 L 320.1,280.2 L 324.3,279.8 L 328.5,279.2 L 332.7,279.2 L 336.9,279.0 L 341.1,278.8 L 345.3,278.8 L 349.5,278.8 L 353.7,278.4 L 357.9,278.4 L 362.1,277.3 L 366.3,277.1 L 370.5,276.9 L 374.7,276.9 L 379.0,276.7 L 383.2,276.7 L 387.4,276.7 L 391.6,276.7 L 395.8,276.7 L 400.0,276.7 L 404.2,276.3 L 408.4,276.1 L 412.6,275.1 L 416.8,275.3 L 421.0,275.3 L 425.2,275.1 L 429.4,275.1 L 433.6,275.1 L 437.8,274.7 L 442.0,274.7 L 446.2,274.7 L 450.4,274.7 L 454.6,274.7 L 458.8,274.7 L 463.0,274.5 L 467.3,274.5 L 471.5,273.7 L 475.7,273.7 L 479.9,273.5 L 484.1,273.3 L 488.3,273.1 L 492.5,272.9 L 496.7,272.5 L 500.9,272.5 L 505.1,272.0 L 509.3,272.0 L 513.5,271.8 L 517.7,271.6 L 521.9,271.6 L 526.1,271.6 L 530.3,271.6 L 534.5,271.6 L 538.7,271.6 L 542.9,271.0 L 547.1,271.0 L 551.3,270.6 L 555.6,270.2 L 559.8,269.6 L 564.0,269.4 L 568.2,269.4 L 572.4,268.4 L 576.6,268.2 L 580.8,268.2 L 585.0,267.6 L 589.2,267.6 L 593.4,267.4 L 597.6,267.4 L 601.8,267.6 L 606.0,267.8 L 610.2,267.6 L 614.4,267.2 L 618.6,267.4 L 622.8,267.2 L 627.0,267.0 L 631.2,267.0 L 635.4,267.0 L 639.7,267.0 L 643.9,266.6 L 648.1,266.6 L 652.3,266.6 L 656.5,265.9 L 660.7,265.9 L 664.9,265.9 L 669.1,265.9 L 673.3,265.9 L 677.5,265.9 L 681.7,265.5 L 685.9,265.5 L 690.1,265.1 L 694.3,264.3 L 698.5,264.1 L 702.7,264.1 L 706.9,264.1 L 711.1,264.1 L 715.3,263.7 L 719.5,263.5 L 723.7,263.5 L 728.0,263.3 L 732.2,262.7 L 736.4,262.3 L 740.6,262.3 L 744.8,262.1 L 749.0,262.1 L 753.2,261.9 L 757.4,261.7 L 761.6,261.7 L 765.8,261.5 L 770.0,261.5 L 770.0,340 Z" fill="url(#g4)" clip-path="url(#ca)"/>
<path d="M 72.0,291.4 L 76.2,290.8 L 80.4,290.8 L 84.6,290.8 L 88.8,290.6 L 93.0,290.2 L 97.2,290.0 L 101.4,289.7 L 105.6,289.7 L 109.8,289.5 L 114.0,289.3 L 118.3,289.3 L 122.5,289.3 L 126.7,289.3 L 130.9,289.3 L 135.1,289.3 L 139.3,288.9 L 143.5,288.9 L 147.7,289.1 L 151.9,288.5 L 156.1,288.7 L 160.3,288.1 L 164.5,287.5 L 168.7,287.3 L 172.9,287.5 L 177.1,287.5 L 181.3,286.9 L 185.5,286.7 L 189.7,286.7 L 193.9,286.3 L 198.1,286.1 L 202.3,285.7 L 206.6,285.7 L 210.8,285.5 L 215.0,284.9 L 219.2,284.3 L 223.4,283.9 L 227.6,283.9 L 231.8,283.9 L 236.0,283.8 L 240.2,283.4 L 244.4,283.4 L 248.6,283.2 L 252.8,282.6 L 257.0,282.4 L 261.2,282.4 L 265.4,282.4 L 269.6,282.4 L 273.8,282.2 L 278.0,281.6 L 282.2,281.4 L 286.4,281.2 L 290.7,281.0 L 294.9,281.0 L 299.1,280.8 L 303.3,280.8 L 307.5,280.8 L 311.7,280.2 L 315.9,280.2 L 320.1,280.2 L 324.3,279.8 L 328.5,279.2 L 332.7,279.2 L 336.9,279.0 L 341.1,278.8 L 345.3,278.8 L 349.5,278.8 L 353.7,278.4 L 357.9,278.4 L 362.1,277.3 L 366.3,277.1 L 370.5,276.9 L 374.7,276.9 L 379.0,276.7 L 383.2,276.7 L 387.4,276.7 L 391.6,276.7 L 395.8,276.7 L 400.0,276.7 L 404.2,276.3 L 408.4,276.1 L 412.6,275.1 L 416.8,275.3 L 421.0,275.3 L 425.2,275.1 L 429.4,275.1 L 433.6,275.1 L 437.8,274.7 L 442.0,274.7 L 446.2,274.7 L 450.4,274.7 L 454.6,274.7 L 458.8,274.7 L 463.0,274.5 L 467.3,274.5 L 471.5,273.7 L 475.7,273.7 L 479.9,273.5 L 484.1,273.3 L 488.3,273.1 L 492.5,272.9 L 496.7,272.5 L 500.9,272.5 L 505.1,272.0 L 509.3,272.0 L 513.5,271.8 L 517.7,271.6 L 521.9,271.6 L 526.1,271.6 L 530.3,271.6 L 534.5,271.6 L 538.7,271.6 L 542.9,271.0 L 547.1,271.0 L 551.3,270.6 L 555.6,270.2 L 559.8,269.6 L 564.0,269.4 L 568.2,269.4 L 572.4,268.4 L 576.6,268.2 L 580.8,268.2 L 585.0,267.6 L 589.2,267.6 L 593.4,267.4 L 597.6,267.4 L 601.8,267.6 L 606.0,267.8 L 610.2,267.6 L 614.4,267.2 L 618.6,267.4 L 622.8,267.2 L 627.0,267.0 L 631.2,267.0 L 635.4,267.0 L 639.7,267.0 L 643.9,266.6 L 648.1,266.6 L 652.3,266.6 L 656.5,265.9 L 660.7,265.9 L 664.9,265.9 L 669.1,265.9 L 673.3,265.9 L 677.5,265.9 L 681.7,265.5 L 685.9,265.5 L 690.1,265.1 L 694.3,264.3 L 698.5,264.1 L 702.7,264.1 L 706.9,264.1 L 711.1,264.1 L 715.3,263.7 L 719.5,263.5 L 723.7,263.5 L 728.0,263.3 L 732.2,262.7 L 736.4,262.3 L 740.6,262.3 L 744.8,262.1 L 749.0,262.1 L 753.2,261.9 L 757.4,261.7 L 761.6,261.7 L 765.8,261.5 L 770.0,261.5" fill="none" stroke="#34C759" stroke-width="2.5" stroke-linejoin="round" clip-path="url(#ca)"/>
<text x="95.1" y="55.0" text-anchor="middle" font-size="9" fill="#4F8EF7" opacity="0.85" clip-path="url(#ca)">+0.5% (+8)</text>
<text x="95.1" y="66.0" text-anchor="middle" font-size="9" fill="#BF5AF2" opacity="0.85" clip-path="url(#ca)">+1.0% (+10)</text>
<text x="95.1" y="77.0" text-anchor="middle" font-size="9" fill="#34C759" opacity="0.85" clip-path="url(#ca)">+1.5% (+11)</text>
<text x="175.0" y="55.0" text-anchor="middle" font-size="9" fill="#4F8EF7" opacity="0.85" clip-path="url(#ca)">+4.0% (+65)</text>
<text x="175.0" y="66.0" text-anchor="middle" font-size="9" fill="#BF5AF2" opacity="0.85" clip-path="url(#ca)">+3.5% (+35)</text>
<text x="175.0" y="77.0" text-anchor="middle" font-size="9" fill="#34C759" opacity="0.85" clip-path="url(#ca)">+3.6% (+27)</text>
<text x="286.4" y="55.0" text-anchor="middle" font-size="9" fill="#4F8EF7" opacity="0.85" clip-path="url(#ca)">+4.1% (+70)</text>
<text x="286.4" y="66.0" text-anchor="middle" font-size="9" fill="#BF5AF2" opacity="0.85" clip-path="url(#ca)">+3.5% (+36)</text>
<text x="286.4" y="77.0" text-anchor="middle" font-size="9" fill="#34C759" opacity="0.85" clip-path="url(#ca)">+3.3% (+26)</text>
<text x="400.0" y="55.0" text-anchor="middle" font-size="9" fill="#4F8EF7" opacity="0.85" clip-path="url(#ca)">+3.5% (+61)</text>
<text x="400.0" y="66.0" text-anchor="middle" font-size="9" fill="#BF5AF2" opacity="0.85" clip-path="url(#ca)">+2.7% (+29)</text>
<text x="400.0" y="77.0" text-anchor="middle" font-size="9" fill="#34C759" opacity="0.85" clip-path="url(#ca)">+2.6% (+21)</text>
<text x="513.5" y="55.0" text-anchor="middle" font-size="9" fill="#4F8EF7" opacity="0.85" clip-path="url(#ca)">+2.7% (+49)</text>
<text x="513.5" y="66.0" text-anchor="middle" font-size="9" fill="#BF5AF2" opacity="0.85" clip-path="url(#ca)">+3.0% (+33)</text>
<text x="513.5" y="77.0" text-anchor="middle" font-size="9" fill="#34C759" opacity="0.85" clip-path="url(#ca)">+3.2% (+27)</text>
<text x="624.9" y="55.0" text-anchor="middle" font-size="9" fill="#4F8EF7" opacity="0.85" clip-path="url(#ca)">+2.9% (+54)</text>
<text x="624.9" y="66.0" text-anchor="middle" font-size="9" fill="#BF5AF2" opacity="0.85" clip-path="url(#ca)">+1.9% (+22)</text>
<text x="624.9" y="77.0" text-anchor="middle" font-size="9" fill="#34C759" opacity="0.85" clip-path="url(#ca)">+1.5% (+13)</text>
<text x="725.8" y="55.0" text-anchor="middle" font-size="9" fill="#4F8EF7" opacity="0.85" clip-path="url(#ca)">+2.6% (+50)</text>
<text x="725.8" y="66.0" text-anchor="middle" font-size="9" fill="#BF5AF2" opacity="0.85" clip-path="url(#ca)">+2.4% (+28)</text>
<text x="725.8" y="77.0" text-anchor="middle" font-size="9" fill="#34C759" opacity="0.85" clip-path="url(#ca)">+2.3% (+20)</text>
<rect x="211" y="369" width="12" height="12" fill="#4F8EF7" rx="2"/>
<text x="227" y="379" font-size="12" fill="#111827">Authors</text>
<rect x="351" y="369" width="12" height="12" fill="#BF5AF2" rx="2"/>
<text x="367" y="379" font-size="12" fill="#111827">Contributors</text>
<rect x="491" y="369" width="12" height="12" fill="#34C759" rx="2"/>
<text x="507" y="379" font-size="12" fill="#111827">Non-author contributors</text>
<text x="72" y="394" font-size="8" fill="#e5e7eb">data since Dec 11, 2025</text>
</svg>