<svg xmlns="http://www.w3.org/2000/svg" width="800" height="400" viewBox="0 0 800 400">
<defs>
  <style>text { font-family: -apple-system, BlinkMacSystemFont, 'Segoe UI', Roboto, sans-serif; }</style>
  <linearGradient id="g2" x1="0" y1="0" x2="0" y2="1">
  <stop offset="0%" stop-color="#4F8EF7" stop-opacity="0.25"/>
  <stop offset="100%" stop-color="#4F8EF7" stop-opacity="0"/>
</linearGradient>
<linearGradient id="g3" x1="0" y1="0" x2="0" y2="1">
  <stop offset="0%" stop-color="#BF5AF2" stop-opacity="0.25"/>
  <stop offset="100%" stop-color="#BF5AF2" stop-opacity="0"/>
</linearGradient>
<linearGradient id="g4" x1="0" y1="0" x2="0" y2="1">
  <stop offset="0%" stop-color="#34C759" stop-opacity="0.25"/>
  <stop offset="100%" stop-color="#34C759" stop-opacity="0"/>
</linearGradient>
  <clipPath id="ca"><rect x="72" y="45" width="698" height="295"/></clipPath>
</defs>
<rect width="800" height="400" fill="#ffffff" rx="12"/>
<text x="400" y="26" text-anchor="middle" font-size="15" font-weight="600" fill="#111827">Community Growth Over Time</text>
<line x1="72" y1="340.0" x2="770" y2="340.0" stroke="#f3f4f6" stroke-width="1"/>
<text x="66" y="344.0" text-anchor="end" font-size="11" fill="#6b7280">500</text>
<line x1="72" y1="266.3" x2="770" y2="266.3" stroke="#f3f4f6" stroke-width="1"/>
<text x="66" y="270.3" text-anchor="end" font-size="11" fill="#6b7280">1.0k</text>
<line x1="72" y1="192.5" x2="770" y2="192.5" stroke="#f3f4f6" stroke-width="1"/>
<text x="66" y="196.5" text-anchor="end" font-size="11" fill="#6b7280">1.5k</text>
<line x1="72" y1="118.8" x2="770" y2="118.8" stroke="#f3f4f6" stroke-width="1"/>
<text x="66" y="122.8" text-anchor="end" font-size="11" fill="#6b7280">2.0k</text>
<line x1="72" y1="45.0" x2="770" y2="45.0" stroke="#f3f4f6" stroke-width="1"/>
<text x="66" y="49.0" text-anchor="end" font-size="11" fill="#6b7280">2.5k</text>
<line x1="118.0" y1="45" x2="118.0" y2="340" stroke="#e5e7eb" stroke-width="1" stroke-dasharray="3,3" clip-path="url(#ca)"/>
<line x1="217.7" y1="45" x2="217.7" y2="340" stroke="#e5e7eb" stroke-width="1" stroke-dasharray="3,3" clip-path="url(#ca)"/>
<line x1="321.3" y1="45" x2="321.3" y2="340" stroke="#e5e7eb" stroke-width="1" stroke-dasharray="3,3" clip-path="url(#ca)"/>
<line x1="424.8" y1="45" x2="424.8" y2="340" stroke="#e5e7eb" stroke-width="1" stroke-dasharray="3,3" clip-path="url(#ca)"/>
<line x1="528.4" y1="45" x2="528.4" y2="340" stroke="#e5e7eb" stroke-width="1" stroke-dasharray="3,3" clip-path="url(#ca)"/>
<line x1="628.1" y1="45" x2="628.1" y2="340" stroke="#e5e7eb" stroke-width="1" stroke-dasharray="3,3" clip-path="url(#ca)"/>
<line x1="720.1" y1="45" x2="720.1" y2="340" stroke="#e5e7eb" stroke-width="1" stroke-dasharray="3,3" clip-path="url(#ca)"/>
<text x="72.0" y="358.0" text-anchor="middle" font-size="11" fill="#6b7280">Dec 11</text>
<text x="210.1" y="358.0" text-anchor="middle" font-size="11" fill="#6b7280">Jan 30</text>
<text x="352.0" y="358.0" text-anchor="middle" font-size="11" fill="#6b7280">Mar 10</text>
<text x="490.0" y="358.0" text-anchor="middle" font-size="11" fill="#6b7280">Apr 19</text>
<text x="631.9" y="358.0" text-anchor="middle" font-size="11" fill="#6b7280">Jun 3</text>
<text x="770.0" y="358.0" text-anchor="middle" font-size="11" fill="#6b7280">Jul 17</text>
<line x1="72" y1="45" x2="72" y2="340" stroke="#e5e7eb" stroke-width="1"/>
<line x1="72" y1="340" x2="770" y2="340" stroke="#e5e7eb" stroke-width="1"/>
<text x="-192.5" y="18" text-anchor="middle" font-size="12" fill="#6b7280" transform="rotate(-90)">People</text>
<path d="M 72.0,340 L 72.0,175.1 L 75.8,175.1 L 79.7,175.1 L 83.5,174.7 L 87.3,174.7 L 91.2,174.4 L 95.0,174.2 L 98.8,174.4 L 102.7,173.9 L 106.5,173.9 L 110.4,173.9 L 114.2,173.9 L 118.0,173.9 L 121.9,173.9 L 125.7,173.9 L 129.5,173.9 L 133.4,173.8 L 137.2,173.3 L 141.0,172.4 L 144.9,172.0 L 148.7,171.9 L 152.5,171.9 L 156.4,171.4 L 160.2,170.4 L 164.0,169.8 L 167.9,169.8 L 171.7,169.0 L 175.5,168.8 L 179.4,168.2 L 183.2,167.7 L 187.1,167.3 L 190.9,166.8 L 194.7,166.8 L 198.6,165.8 L 202.4,165.2 L 206.2,165.2 L 210.1,164.6 L 213.9,164.3 L 217.7,164.2 L 221.6,164.0 L 225.4,164.0 L 229.2,163.6 L 233.1,161.8 L 236.9,160.8 L 240.7,160.2 L 244.6,160.1 L 248.4,159.8 L 252.3,159.2 L 256.1,158.9 L 259.9,158.6 L 263.8,158.3 L 267.6,158.0 L 271.4,157.7 L 275.3,157.7 L 279.1,156.2 L 282.9,156.2 L 286.8,156.1 L 290.6,155.9 L 294.4,155.6 L 298.3,155.6 L 302.1,154.9 L 305.9,154.0 L 309.8,153.7 L 313.6,154.0 L 317.5,153.9 L 321.3,153.7 L 325.1,153.7 L 329.0,153.4 L 332.8,152.8 L 336.6,152.5 L 340.5,152.2 L 344.3,152.1 L 348.1,152.1 L 352.0,151.5 L 355.8,151.2 L 359.6,151.2 L 363.5,150.0 L 367.3,150.0 L 371.1,150.0 L 375.0,150.0 L 378.8,149.9 L 382.6,149.4 L 386.5,148.8 L 390.3,148.5 L 394.2,148.5 L 398.0,148.3 L 401.8,147.1 L 405.7,146.3 L 409.5,146.2 L 413.3,146.0 L 417.2,145.6 L 421.0,144.7 L 424.8,144.4 L 428.7,144.1 L 432.5,143.2 L 436.3,143.1 L 440.2,143.1 L 444.0,143.1 L 447.8,142.9 L 451.7,142.1 L 455.5,141.9 L 459.4,141.8 L 463.2,141.8 L 467.0,141.5 L 470.9,140.3 L 474.7,140.1 L 478.5,140.0 L 482.4,140.0 L 486.2,139.4 L 490.0,139.3 L 493.9,139.1 L 497.7,138.7 L 501.5,138.1 L 505.4,138.1 L 509.2,138.1 L 513.0,138.1 L 516.9,137.8 L 520.7,137.3 L 524.5,137.2 L 528.4,136.7 L 532.2,136.6 L 536.1,136.5 L 539.9,135.9 L 543.7,135.4 L 547.6,135.3 L 551.4,135.3 L 555.2,133.9 L 559.1,133.5 L 562.9,133.4 L 566.7,133.4 L 570.6,132.6 L 574.4,132.6 L 578.2,132.2 L 582.1,131.7 L 585.9,130.7 L 589.7,130.6 L 593.6,130.4 L 597.4,130.3 L 601.3,130.3 L 605.1,130.1 L 608.9,129.4 L 612.8,128.9 L 616.6,128.9 L 620.4,128.8 L 624.3,128.8 L 628.1,128.3 L 631.9,128.2 L 635.8,128.0 L 639.6,127.6 L 643.4,127.0 L 647.3,127.0 L 651.1,126.9 L 654.9,126.7 L 658.8,126.0 L 662.6,124.9 L 666.5,124.8 L 670.3,124.5 L 674.1,124.2 L 678.0,124.1 L 681.8,123.6 L 685.6,123.0 L 689.5,122.9 L 693.3,122.4 L 697.1,122.1 L 701.0,121.4 L 704.8,121.3 L 708.6,121.0 L 712.5,121.0 L 716.3,120.7 L 720.1,120.4 L 724.0,120.1 L 727.8,119.9 L 731.6,119.6 L 735.5,119.6 L 739.3,119.3 L 743.2,119.2 L 747.0,119.2 L 750.8,118.3 L 754.7,117.9 L 758.5,117.9 L 762.3,117.9 L 766.2,117.4 L 770.0,116.5 L 770.0,340 Z" fill="url(#g2)" clip-path="url(#ca)"/>
<path d="M 72.0,175.1 L 75.8,175.1 L 79.7,175.1 L 83.5,174.7 L 87.3,174.7 L 91.2,174.4 L 95.0,174.2 L 98.8,174.4 L 102.7,173.9 L 106.5,173.9 L 110.4,173.9 L 114.2,173.9 L 118.0,173.9 L 121.9,173.9 L 125.7,173.9 L 129.5,173.9 L 133.4,173.8 L 137.2,173.3 L 141.0,172.4 L 144.9,172.0 L 148.7,171.9 L 152.5,171.9 L 156.4,171.4 L 160.2,170.4 L 164.0,169.8 L 167.9,169.8 L 171.7,169.0 L 175.5,168.8 L 179.4,168.2 L 183.2,167.7 L 187.1,167.3 L 190.9,166.8 L 194.7,166.8 L 198.6,165.8 L 202.4,165.2 L 206.2,165.2 L 210.1,164.6 L 213.9,164.3 L 217.7,164.2 L 221.6,164.0 L 225.4,164.0 L 229.2,163.6 L 233.1,161.8 L 236.9,160.8 L 240.7,160.2 L 244.6,160.1 L 248.4,159.8 L 252.3,159.2 L 256.1,158.9 L 259.9,158.6 L 263.8,158.3 L 267.6,158.0 L 271.4,157.7 L 275.3,157.7 L 279.1,156.2 L 282.9,156.2 L 286.8,156.1 L 290.6,155.9 L 294.4,155.6 L 298.3,155.6 L 302.1,154.9 L 305.9,154.0 L 309.8,153.7 L 313.6,154.0 L 317.5,153.9 L 321.3,153.7 L 325.1,153.7 L 329.0,153.4 L 332.8,152.8 L 336.6,152.5 L 340.5,152.2 L 344.3,152.1 L 348.1,152.1 L 352.0,151.5 L 355.8,151.2 L 359.6,151.2 L 363.5,150.0 L 367.3,150.0 L 371.1,150.0 L 375.0,150.0 L 378.8,149.9 L 382.6,149.4 L 386.5,148.8 L 390.3,148.5 L 394.2,148.5 L 398.0,148.3 L 401.8,147.1 L 405.7,146.3 L 409.5,146.2 L 413.3,146.0 L 417.2,145.6 L 421.0,144.7 L 424.8,144.4 L 428.7,144.1 L 432.5,143.2 L 436.3,143.1 L 440.2,143.1 L 444.0,143.1 L 447.8,142.9 L 451.7,142.1 L 455.5,141.9 L 459.4,141.8 L 463.2,141.8 L 467.0,141.5 L 470.9,140.3 L 474.7,140.1 L 478.5,140.0 L 482.4,140.0 L 486.2,139.4 L 490.0,139.3 L 493.9,139.1 L 497.7,138.7 L 501.5,138.1 L 505.4,138.1 L 509.2,138.1 L 513.0,138.1 L 516.9,137.8 L 520.7,137.3 L 524.5,137.2 L 528.4,136.7 L 532.2,136.6 L 536.1,136.5 L 539.9,135.9 L 543.7,135.4 L 547.6,135.3 L 551.4,135.3 L 555.2,133.9 L 559.1,133.5 L 562.9,133.4 L 566.7,133.4 L 570.6,132.6 L 574.4,132.6 L 578.2,132.2 L 582.1,131.7 L 585.9,130.7 L 589.7,130.6 L 593.6,130.4 L 597.4,130.3 L 601.3,130.3 L 605.1,130.1 L 608.9,129.4 L 612.8,128.9 L 616.6,128.9 L 620.4,128.8 L 624.3,128.8 L 628.1,128.3 L 631.9,128.2 L 635.8,128.0 L 639.6,127.6 L 643.4,127.0 L 647.3,127.0 L 651.1,126.9 L 654.9,126.7 L 658.8,126.0 L 662.6,124.9 L 666.5,124.8 L 670.3,124.5 L 674.1,124.2 L 678.0,124.1 L 681.8,123.6 L 685.6,123.0 L 689.5,122.9 L 693.3,122.4 L 697.1,122.1 L 701.0,121.4 L 704.8,121.3 L 708.6,121.0 L 712.5,121.0 L 716.3,120.7 L 720.1,120.4 L 724.0,120.1 L 727.8,119.9 L 731.6,119.6 L 735.5,119.6 L 739.3,119.3 L 743.2,119.2 L 747.0,119.2 L 750.8,118.3 L 754.7,117.9 L 758.5,117.9 L 762.3,117.9 L 766.2,117.4 L 770.0,116.5" fill="none" stroke="#4F8EF7" stroke-width="2.5" stroke-linejoin="round" clip-path="url(#ca)"/>
<path d="M 72.0,340 L 72.0,268.2 L 75.8,267.7 L 79.7,267.7 L 83.5,267.7 L 87.3,267.6 L 91.2,267.3 L 95.0,267.1 L 98.8,267.0 L 102.7,267.0 L 106.5,266.8 L 110.4,266.7 L 114.2,266.7 L 118.0,266.7 L 121.9,266.7 L 125.7,266.7 L 129.5,266.7 L 133.4,266.4 L 137.2,266.4 L 141.0,266.4 L 144.9,265.8 L 148.7,265.7 L 152.5,265.4 L 156.4,264.8 L 160.2,264.6 L 164.0,264.6 L 167.9,264.6 L 171.7,264.2 L 175.5,263.9 L 179.4,263.9 L 183.2,263.6 L 187.1,263.4 L 190.9,263.2 L 194.7,263.2 L 198.6,263.0 L 202.4,262.4 L 206.2,262.0 L 210.1,261.7 L 213.9,261.5 L 217.7,261.5 L 221.6,261.4 L 225.4,261.1 L 229.2,261.1 L 233.1,260.9 L 236.9,260.5 L 240.7,260.2 L 244.6,260.2 L 248.4,260.2 L 252.3,260.2 L 256.1,260.1 L 259.9,259.6 L 263.8,259.3 L 267.6,259.2 L 271.4,259.0 L 275.3,258.9 L 279.1,258.7 L 282.9,258.6 L 286.8,258.4 L 290.6,258.0 L 294.4,257.8 L 298.3,257.7 L 302.1,257.1 L 305.9,256.5 L 309.8,256.5 L 313.6,256.4 L 317.5,256.2 L 321.3,256.2 L 325.1,256.2 L 329.0,255.9 L 332.8,255.9 L 336.6,255.0 L 340.5,254.9 L 344.3,254.7 L 348.1,254.7 L 352.0,254.4 L 355.8,254.3 L 359.6,254.3 L 363.5,254.2 L 367.3,254.2 L 371.1,254.2 L 375.0,253.9 L 378.8,253.7 L 382.6,253.0 L 386.5,253.1 L 390.3,253.0 L 394.2,252.8 L 398.0,252.8 L 401.8,252.7 L 405.7,252.2 L 409.5,252.2 L 413.3,252.2 L 417.2,252.2 L 421.0,251.9 L 424.8,251.9 L 428.7,251.6 L 432.5,251.4 L 436.3,250.8 L 440.2,250.8 L 444.0,250.5 L 447.8,250.3 L 451.7,250.2 L 455.5,250.0 L 459.4,249.7 L 463.2,249.7 L 467.0,249.3 L 470.9,249.3 L 474.7,249.1 L 478.5,248.8 L 482.4,248.7 L 486.2,248.7 L 490.0,248.7 L 493.9,248.7 L 497.7,248.7 L 501.5,248.3 L 505.4,248.3 L 509.2,248.0 L 513.0,247.7 L 516.9,247.2 L 520.7,247.1 L 524.5,247.1 L 528.4,246.2 L 532.2,246.0 L 536.1,246.0 L 539.9,245.5 L 543.7,245.5 L 547.6,245.2 L 551.4,245.2 L 555.2,245.0 L 559.1,245.0 L 562.9,244.9 L 566.7,244.6 L 570.6,244.6 L 574.4,244.4 L 578.2,244.3 L 582.1,244.1 L 585.9,244.0 L 589.7,244.0 L 593.6,243.7 L 597.4,243.7 L 601.3,243.7 L 605.1,242.9 L 608.9,242.9 L 612.8,242.9 L 616.6,242.9 L 620.4,242.9 L 624.3,242.9 L 628.1,242.6 L 631.9,242.6 L 635.8,242.4 L 639.6,241.8 L 643.4,241.5 L 647.3,241.3 L 651.1,241.3 L 654.9,241.2 L 658.8,240.7 L 662.6,240.6 L 666.5,240.6 L 670.3,240.3 L 674.1,239.8 L 678.0,239.6 L 681.8,239.6 L 685.6,239.4 L 689.5,239.4 L 693.3,239.0 L 697.1,238.8 L 701.0,238.8 L 704.8,238.5 L 708.6,238.5 L 712.5,238.2 L 716.3,237.8 L 720.1,237.8 L 724.0,237.6 L 727.8,237.5 L 731.6,237.3 L 735.5,237.3 L 739.3,237.2 L 743.2,237.2 L 747.0,236.9 L 750.8,236.3 L 754.7,236.2 L 758.5,236.2 L 762.3,235.0 L 766.2,235.0 L 770.0,234.5 L 770.0,340 Z" fill="url(#g3)" clip-path="url(#ca)"/>
<path d="M 72.0,268.2 L 75.8,267.7 L 79.7,267.7 L 83.5,267.7 L 87.3,267.6 L 91.2,267.3 L 95.0,267.1 L 98.8,267.0 L 102.7,267.0 L 106.5,266.8 L 110.4,266.7 L 114.2,266.7 L 118.0,266.7 L 121.9,266.7 L 125.7,266.7 L 129.5,266.7 L 133.4,266.4 L 137.2,266.4 L 141.0,266.4 L 144.9,265.8 L 148.7,265.7 L 152.5,265.4 L 156.4,264.8 L 160.2,264.6 L 164.0,264.6 L 167.9,264.6 L 171.7,264.2 L 175.5,263.9 L 179.4,263.9 L 183.2,263.6 L 187.1,263.4 L 190.9,263.2 L 194.7,263.2 L 198.6,263.0 L 202.4,262.4 L 206.2,262.0 L 210.1,261.7 L 213.9,261.5 L 217.7,261.5 L 221.6,261.4 L 225.4,261.1 L 229.2,261.1 L 233.1,260.9 L 236.9,260.5 L 240.7,260.2 L 244.6,260.2 L 248.4,260.2 L 252.3,260.2 L 256.1,260.1 L 259.9,259.6 L 263.8,259.3 L 267.6,259.2 L 271.4,259.0 L 275.3,258.9 L 279.1,258.7 L 282.9,258.6 L 286.8,258.4 L 290.6,258.0 L 294.4,257.8 L 298.3,257.7 L 302.1,257.1 L 305.9,256.5 L 309.8,256.5 L 313.6,256.4 L 317.5,256.2 L 321.3,256.2 L 325.1,256.2 L 329.0,255.9 L 332.8,255.9 L 336.6,255.0 L 340.5,254.9 L 344.3,254.7 L 348.1,254.7 L 352.0,254.4 L 355.8,254.3 L 359.6,254.3 L 363.5,254.2 L 367.3,254.2 L 371.1,254.2 L 375.0,253.9 L 378.8,253.7 L 382.6,253.0 L 386.5,253.1 L 390.3,253.0 L 394.2,252.8 L 398.0,252.8 L 401.8,252.7 L 405.7,252.2 L 409.5,252.2 L 413.3,252.2 L 417.2,252.2 L 421.0,251.9 L 424.8,251.9 L 428.7,251.6 L 432.5,251.4 L 436.3,250.8 L 440.2,250.8 L 444.0,250.5 L 447.8,250.3 L 451.7,250.2 L 455.5,250.0 L 459.4,249.7 L 463.2,249.7 L 467.0,249.3 L 470.9,249.3 L 474.7,249.1 L 478.5,248.8 L 482.4,248.7 L 486.2,248.7 L 490.0,248.7 L 493.9,248.7 L 497.7,248.7 L 501.5,248.3 L 505.4,248.3 L 509.2,248.0 L 513.0,247.7 L 516.9,247.2 L 520.7,247.1 L 524.5,247.1 L 528.4,246.2 L 532.2,246.0 L 536.1,246.0 L 539.9,245.5 L 543.7,245.5 L 547.6,245.2 L 551.4,245.2 L 555.2,245.0 L 559.1,245.0 L 562.9,244.9 L 566.7,244.6 L 570.6,244.6 L 574.4,244.4 L 578.2,244.3 L 582.1,244.1 L 585.9,244.0 L 589.7,244.0 L 593.6,243.7 L 597.4,243.7 L 601.3,243.7 L 605.1,242.9 L 608.9,242.9 L 612.8,242.9 L 616.6,242.9 L 620.4,242.9 L 624.3,242.9 L 628.1,242.6 L 631.9,242.6 L 635.8,242.4 L 639.6,241.8 L 643.4,241.5 L 647.3,241.3 L 651.1,241.3 L 654.9,241.2 L 658.8,240.7 L 662.6,240.6 L 666.5,240.6 L 670.3,240.3 L 674.1,239.8 L 678.0,239.6 L 681.8,239.6 L 685.6,239.4 L 689.5,239.4 L 693.3,239.0 L 697.1,238.8 L 701.0,238.8 L 704.8,238.5 L 708.6,238.5 L 712.5,238.2 L 716.3,237.8 L 720.1,237.8 L 724.0,237.6 L 727.8,237.5 L 731.6,237.3 L 735.5,237.3 L 739.3,237.2 L 743.2,237.2 L 747.0,236.9 L 750.8,236.3 L 754.7,236.2 L 758.5,236.2 L 762.3,235.0 L 766.2,235.0 L 770.0,234.5" fill="none" stroke="#BF5AF2" stroke-width="2.5" stroke-linejoin="round" clip-path="url(#ca)"/>
<path d="M 72.0,340 L 72.0,303.6 L 75.8,303.1 L 79.7,303.1 L 83.5,303.1 L 87.3,303.0 L 91.2,302.7 L 95.0,302.5 L 98.8,302.2 L 102.7,302.2 L 106.5,302.1 L 110.4,301.9 L 114.2,301.9 L 118.0,301.9 L 121.9,301.9 L 125.7,301.9 L 129.5,301.9 L 133.4,301.6 L 137.2,301.6 L 141.0,301.8 L 144.9,301.4 L 148.7,301.5 L 152.5,301.1 L 156.4,300.6 L 160.2,300.5 L 164.0,300.6 L 167.9,300.6 L 171.7,300.2 L 175.5,300.0 L 179.4,300.0 L 183.2,299.7 L 187.1,299.6 L 190.9,299.3 L 194.7,299.3 L 198.6,299.1 L 202.4,298.7 L 206.2,298.3 L 210.1,298.0 L 213.9,298.0 L 217.7,298.0 L 221.6,297.8 L 225.4,297.5 L 229.2,297.5 L 233.1,297.4 L 236.9,296.9 L 240.7,296.8 L 244.6,296.8 L 248.4,296.8 L 252.3,296.8 L 256.1,296.6 L 259.9,296.2 L 263.8,296.0 L 267.6,295.9 L 271.4,295.8 L 275.3,295.8 L 279.1,295.6 L 282.9,295.6 L 286.8,295.6 L 290.6,295.2 L 294.4,295.2 L 298.3,295.2 L 302.1,294.9 L 305.9,294.4 L 309.8,294.4 L 313.6,294.3 L 317.5,294.1 L 321.3,294.1 L 325.1,294.1 L 329.0,293.8 L 332.8,293.8 L 336.6,292.9 L 340.5,292.8 L 344.3,292.7 L 348.1,292.7 L 352.0,292.5 L 355.8,292.5 L 359.6,292.5 L 363.5,292.5 L 367.3,292.5 L 371.1,292.5 L 375.0,292.2 L 378.8,292.1 L 382.6,291.3 L 386.5,291.5 L 390.3,291.5 L 394.2,291.3 L 398.0,291.3 L 401.8,291.3 L 405.7,291.0 L 409.5,291.0 L 413.3,291.0 L 417.2,291.0 L 421.0,291.0 L 424.8,291.0 L 428.7,290.9 L 432.5,290.9 L 436.3,290.3 L 440.2,290.3 L 444.0,290.1 L 447.8,290.0 L 451.7,289.9 L 455.5,289.7 L 459.4,289.4 L 463.2,289.4 L 467.0,289.0 L 470.9,289.0 L 474.7,288.8 L 478.5,288.7 L 482.4,288.7 L 486.2,288.7 L 490.0,288.7 L 493.9,288.7 L 497.7,288.7 L 501.5,288.2 L 505.4,288.2 L 509.2,287.9 L 513.0,287.6 L 516.9,287.2 L 520.7,287.0 L 524.5,287.0 L 528.4,286.3 L 532.2,286.2 L 536.1,286.2 L 539.9,285.7 L 543.7,285.7 L 547.6,285.6 L 551.4,285.6 L 555.2,285.7 L 559.1,285.9 L 562.9,285.7 L 566.7,285.4 L 570.6,285.6 L 574.4,285.4 L 578.2,285.3 L 582.1,285.3 L 585.9,285.3 L 589.7,285.3 L 593.6,285.0 L 597.4,285.0 L 601.3,285.0 L 605.1,284.4 L 608.9,284.4 L 612.8,284.4 L 616.6,284.4 L 620.4,284.4 L 624.3,284.4 L 628.1,284.1 L 631.9,284.1 L 635.8,283.8 L 639.6,283.2 L 643.4,283.1 L 647.3,283.1 L 651.1,283.1 L 654.9,283.1 L 658.8,282.8 L 662.6,282.6 L 666.5,282.6 L 670.3,282.5 L 674.1,282.0 L 678.0,281.7 L 681.8,281.7 L 685.6,281.6 L 689.5,281.6 L 693.3,281.4 L 697.1,281.3 L 701.0,281.3 L 704.8,281.1 L 708.6,281.1 L 712.5,280.9 L 716.3,280.4 L 720.1,280.4 L 724.0,280.3 L 727.8,280.4 L 731.6,280.3 L 735.5,280.3 L 739.3,280.1 L 743.2,280.1 L 747.0,280.0 L 750.8,279.5 L 754.7,279.5 L 758.5,279.5 L 762.3,278.6 L 766.2,278.8 L 770.0,278.3 L 770.0,340 Z" fill="url(#g4)" clip-path="url(#ca)"/>
<path d="M 72.0,303.6 L 75.8,303.1 L 79.7,303.1 L 83.5,303.1 L 87.3,303.0 L 91.2,302.7 L 95.0,302.5 L 98.8,302.2 L 102.7,302.2 L 106.5,302.1 L 110.4,301.9 L 114.2,301.9 L 118.0,301.9 L 121.9,301.9 L 125.7,301.9 L 129.5,301.9 L 133.4,301.6 L 137.2,301.6 L 141.0,301.8 L 144.9,301.4 L 148.7,301.5 L 152.5,301.1 L 156.4,300.6 L 160.2,300.5 L 164.0,300.6 L 167.9,300.6 L 171.7,300.2 L 175.5,300.0 L 179.4,300.0 L 183.2,299.7 L 187.1,299.6 L 190.9,299.3 L 194.7,299.3 L 198.6,299.1 L 202.4,298.7 L 206.2,298.3 L 210.1,298.0 L 213.9,298.0 L 217.7,298.0 L 221.6,297.8 L 225.4,297.5 L 229.2,297.5 L 233.1,297.4 L 236.9,296.9 L 240.7,296.8 L 244.6,296.8 L 248.4,296.8 L 252.3,296.8 L 256.1,296.6 L 259.9,296.2 L 263.8,296.0 L 267.6,295.9 L 271.4,295.8 L 275.3,295.8 L 279.1,295.6 L 282.9,295.6 L 286.8,295.6 L 290.6,295.2 L 294.4,295.2 L 298.3,295.2 L 302.1,294.9 L 305.9,294.4 L 309.8,294.4 L 313.6,294.3 L 317.5,294.1 L 321.3,294.1 L 325.1,294.1 L 329.0,293.8 L 332.8,293.8 L 336.6,292.9 L 340.5,292.8 L 344.3,292.7 L 348.1,292.7 L 352.0,292.5 L 355.8,292.5 L 359.6,292.5 L 363.5,292.5 L 367.3,292.5 L 371.1,292.5 L 375.0,292.2 L 378.8,292.1 L 382.6,291.3 L 386.5,291.5 L 390.3,291.5 L 394.2,291.3 L 398.0,291.3 L 401.8,291.3 L 405.7,291.0 L 409.5,291.0 L 413.3,291.0 L 417.2,291.0 L 421.0,291.0 L 424.8,291.0 L 428.7,290.9 L 432.5,290.9 L 436.3,290.3 L 440.2,290.3 L 444.0,290.1 L 447.8,290.0 L 451.7,289.9 L 455.5,289.7 L 459.4,289.4 L 463.2,289.4 L 467.0,289.0 L 470.9,289.0 L 474.7,288.8 L 478.5,288.7 L 482.4,288.7 L 486.2,288.7 L 490.0,288.7 L 493.9,288.7 L 497.7,288.7 L 501.5,288.2 L 505.4,288.2 L 509.2,287.9 L 513.0,287.6 L 516.9,287.2 L 520.7,287.0 L 524.5,287.0 L 528.4,286.3 L 532.2,286.2 L 536.1,286.2 L 539.9,285.7 L 543.7,285.7 L 547.6,285.6 L 551.4,285.6 L 555.2,285.7 L 559.1,285.9 L 562.9,285.7 L 566.7,285.4 L 570.6,285.6 L 574.4,285.4 L 578.2,285.3 L 582.1,285.3 L 585.9,285.3 L 589.7,285.3 L 593.6,285.0 L 597.4,285.0 L 601.3,285.0 L 605.1,284.4 L 608.9,284.4 L 612.8,284.4 L 616.6,284.4 L 620.4,284.4 L 624.3,284.4 L 628.1,284.1 L 631.9,284.1 L 635.8,283.8 L 639.6,283.2 L 643.4,283.1 L 647.3,283.1 L 651.1,283.1 L 654.9,283.1 L 658.8,282.8 L 662.6,282.6 L 666.5,282.6 L 670.3,282.5 L 674.1,282.0 L 678.0,281.7 L 681.8,281.7 L 685.6,281.6 L 689.5,281.6 L 693.3,281.4 L 697.1,281.3 L 701.0,281.3 L 704.8,281.1 L 708.6,281.1 L 712.5,280.9 L 716.3,280.4 L 720.1,280.4 L 724.0,280.3 L 727.8,280.4 L 731.6,280.3 L 735.5,280.3 L 739.3,280.1 L 743.2,280.1 L 747.0,280.0 L 750.8,279.5 L 754.7,279.5 L 758.5,279.5 L 762.3,278.6 L 766.2,278.8 L 770.0,278.3" fill="none" stroke="#34C759" stroke-width="2.5" stroke-linejoin="round" clip-path="url(#ca)"/>
<text x="93.1" y="55.0" text-anchor="middle" font-size="9" fill="#4F8EF7" opacity="0.85" clip-path="url(#ca)">+0.5% (+8)</text>
<text x="93.1" y="66.0" text-anchor="middle" font-size="9" fill="#BF5AF2" opacity="0.85" clip-path="url(#ca)">+1.0% (+10)</text>
<text x="93.1" y="77.0" text-anchor="middle" font-size="9" fill="#34C759" opacity="0.85" clip-path="url(#ca)">+1.5% (+11)</text>
<text x="166.0" y="55.0" text-anchor="middle" font-size="9" fill="#4F8EF7" opacity="0.85" clip-path="url(#ca)">+4.0% (+65)</text>
<text x="166.0" y="66.0" text-anchor="middle" font-size="9" fill="#BF5AF2" opacity="0.85" clip-path="url(#ca)">+3.5% (+35)</text>
<text x="166.0" y="77.0" text-anchor="middle" font-size="9" fill="#34C759" opacity="0.85" clip-path="url(#ca)">+3.6% (+27)</text>
<text x="267.6" y="55.0" text-anchor="middle" font-size="9" fill="#4F8EF7" opacity="0.85" clip-path="url(#ca)">+4.1% (+70)</text>
<text x="267.6" y="66.0" text-anchor="middle" font-size="9" fill="#BF5AF2" opacity="0.85" clip-path="url(#ca)">+3.5% (+36)</text>
<text x="267.6" y="77.0" text-anchor="middle" font-size="9" fill="#34C759" opacity="0.85" clip-path="url(#ca)">+3.3% (+26)</text>
<text x="371.1" y="55.0" text-anchor="middle" font-size="9" fill="#4F8EF7" opacity="0.85" clip-path="url(#ca)">+3.5% (+61)</text>
<text x="371.1" y="66.0" text-anchor="middle" font-size="9" fill="#BF5AF2" opacity="0.85" clip-path="url(#ca)">+2.7% (+29)</text>
<text x="371.1" y="77.0" text-anchor="middle" font-size="9" fill="#34C759" opacity="0.85" clip-path="url(#ca)">+2.6% (+21)</text>
<text x="474.7" y="55.0" text-anchor="middle" font-size="9" fill="#4F8EF7" opacity="0.85" clip-path="url(#ca)">+2.7% (+49)</text>
<text x="474.7" y="66.0" text-anchor="middle" font-size="9" fill="#BF5AF2" opacity="0.85" clip-path="url(#ca)">+3.0% (+33)</text>
<text x="474.7" y="77.0" text-anchor="middle" font-size="9" fill="#34C759" opacity="0.85" clip-path="url(#ca)">+3.2% (+27)</text>
<text x="576.3" y="55.0" text-anchor="middle" font-size="9" fill="#4F8EF7" opacity="0.85" clip-path="url(#ca)">+2.9% (+54)</text>
<text x="576.3" y="66.0" text-anchor="middle" font-size="9" fill="#BF5AF2" opacity="0.85" clip-path="url(#ca)">+1.9% (+22)</text>
<text x="576.3" y="77.0" text-anchor="middle" font-size="9" fill="#34C759" opacity="0.85" clip-path="url(#ca)">+1.5% (+13)</text>
<text x="672.2" y="55.0" text-anchor="middle" font-size="9" fill="#4F8EF7" opacity="0.85" clip-path="url(#ca)">+2.7% (+52)</text>
<text x="672.2" y="66.0" text-anchor="middle" font-size="9" fill="#BF5AF2" opacity="0.85" clip-path="url(#ca)">+2.8% (+33)</text>
<text x="672.2" y="77.0" text-anchor="middle" font-size="9" fill="#34C759" opacity="0.85" clip-path="url(#ca)">+2.8% (+25)</text>
<text x="745.1" y="55.0" text-anchor="middle" font-size="9" fill="#4F8EF7" opacity="0.85" clip-path="url(#ca)">+1.3% (+26)</text>
<text x="745.1" y="66.0" text-anchor="middle" font-size="9" fill="#BF5AF2" opacity="0.85" clip-path="url(#ca)">+1.8% (+22)</text>
<text x="745.1" y="77.0" text-anchor="middle" font-size="9" fill="#34C759" opacity="0.85" clip-path="url(#ca)">+1.5% (+14)</text>
<rect x="211" y="369" width="12" height="12" fill="#4F8EF7" rx="2"/>
<text x="227" y="379" font-size="12" fill="#111827">Authors</text>
<rect x="351" y="369" width="12" height="12" fill="#BF5AF2" rx="2"/>
<text x="367" y="379" font-size="12" fill="#111827">Contributors</text>
<rect x="491" y="369" width="12" height="12" fill="#34C759" rx="2"/>
<text x="507" y="379" font-size="12" fill="#111827">Non-author contributors</text>
<text x="72" y="394" font-size="8" fill="#e5e7eb">data since Dec 11, 2025</text>
</svg>