<svg xmlns="http://www.w3.org/2000/svg" width="800" height="400" viewBox="0 0 800 400">
<defs><style>text { font-family: -apple-system, BlinkMacSystemFont, 'Segoe UI', Roboto, sans-serif; }</style></defs>
<rect width="800" height="400" fill="#ffffff" rx="12"/>
<text x="400" y="26" text-anchor="middle" font-size="15" font-weight="600" fill="#111827">Packages by Last Updated Quarter</text>
<text x="400" y="44" text-anchor="middle" font-size="11" fill="#6b7280">last updated at · 2,999 packages with a known last-update date</text>
<line x1="60" y1="58" x2="60" y2="320" stroke="#e5e7eb" stroke-width="1"/>
<line x1="60" y1="320" x2="770" y2="320" stroke="#e5e7eb" stroke-width="1"/>
<text x="-189" y="18" text-anchor="middle" font-size="12" fill="#6b7280" transform="rotate(-90)">Number of packages</text>
<line x1="60" y1="320.0" x2="770" y2="320.0" stroke="#f3f4f6" stroke-width="1"/>
<text x="54" y="324.0" text-anchor="end" font-size="11" fill="#6b7280">0</text>
<line x1="60" y1="267.5" x2="770" y2="267.5" stroke="#f3f4f6" stroke-width="1"/>
<text x="54" y="271.5" text-anchor="end" font-size="11" fill="#6b7280">120</text>
<line x1="60" y1="215.0" x2="770" y2="215.0" stroke="#f3f4f6" stroke-width="1"/>
<text x="54" y="219.0" text-anchor="end" font-size="11" fill="#6b7280">240</text>
<line x1="60" y1="163.0" x2="770" y2="163.0" stroke="#f3f4f6" stroke-width="1"/>
<text x="54" y="167.0" text-anchor="end" font-size="11" fill="#6b7280">359</text>
<line x1="60" y1="110.5" x2="770" y2="110.5" stroke="#f3f4f6" stroke-width="1"/>
<text x="54" y="114.5" text-anchor="end" font-size="11" fill="#6b7280">479</text>
<line x1="60" y1="58.0" x2="770" y2="58.0" stroke="#f3f4f6" stroke-width="1"/>
<text x="54" y="62.0" text-anchor="end" font-size="11" fill="#6b7280">599</text>
<rect x="66.5" y="314.3" width="24.3" height="5.7" fill="#34C759" rx="3" opacity="0.85"/>
<text x="78.7" y="298.3" text-anchor="middle" font-size="10" fill="#6b7280">13</text>
<text x="78.7" y="310.3" text-anchor="middle" font-size="10" fill="#6b7280">(0.43%)</text>
<g transform="translate(78.7,330.0) rotate(-45)"><text text-anchor="end" font-size="10" fill="#111827">2021-Q4</text></g>
<rect x="103.9" y="307.8" width="24.3" height="12.2" fill="#34C759" rx="3" opacity="0.85"/>
<text x="116.1" y="291.8" text-anchor="middle" font-size="10" fill="#6b7280">28</text>
<text x="116.1" y="303.8" text-anchor="middle" font-size="10" fill="#6b7280">(0.93%)</text>
<g transform="translate(116.1,330.0) rotate(-45)"><text text-anchor="end" font-size="10" fill="#111827">2022-Q1</text></g>
<rect x="141.3" y="304.7" width="24.3" height="15.3" fill="#34C759" rx="3" opacity="0.85"/>
<text x="153.4" y="288.7" text-anchor="middle" font-size="10" fill="#6b7280">35</text>
<text x="153.4" y="300.7" text-anchor="middle" font-size="10" fill="#6b7280">(1.17%)</text>
<g transform="translate(153.4,330.0) rotate(-45)"><text text-anchor="end" font-size="10" fill="#111827">2022-Q2</text></g>
<rect x="178.6" y="302.9" width="24.3" height="17.1" fill="#34C759" rx="3" opacity="0.85"/>
<text x="190.8" y="286.9" text-anchor="middle" font-size="10" fill="#6b7280">39</text>
<text x="190.8" y="298.9" text-anchor="middle" font-size="10" fill="#6b7280">(1.30%)</text>
<g transform="translate(190.8,330.0) rotate(-45)"><text text-anchor="end" font-size="10" fill="#111827">2022-Q3</text></g>
<rect x="216.0" y="292.9" width="24.3" height="27.1" fill="#34C759" rx="3" opacity="0.85"/>
<text x="228.2" y="276.9" text-anchor="middle" font-size="10" fill="#6b7280">62</text>
<text x="228.2" y="288.9" text-anchor="middle" font-size="10" fill="#6b7280">(2.07%)</text>
<g transform="translate(228.2,330.0) rotate(-45)"><text text-anchor="end" font-size="10" fill="#111827">2022-Q4</text></g>
<rect x="253.4" y="281.5" width="24.3" height="38.5" fill="#34C759" rx="3" opacity="0.85"/>
<text x="265.5" y="265.5" text-anchor="middle" font-size="10" fill="#6b7280">88</text>
<text x="265.5" y="277.5" text-anchor="middle" font-size="10" fill="#6b7280">(2.93%)</text>
<g transform="translate(265.5,330.0) rotate(-45)"><text text-anchor="end" font-size="10" fill="#111827">2023-Q1</text></g>
<rect x="290.8" y="281.1" width="24.3" height="38.9" fill="#34C759" rx="3" opacity="0.85"/>
<text x="302.9" y="265.1" text-anchor="middle" font-size="10" fill="#6b7280">89</text>
<text x="302.9" y="277.1" text-anchor="middle" font-size="10" fill="#6b7280">(2.97%)</text>
<g transform="translate(302.9,330.0) rotate(-45)"><text text-anchor="end" font-size="10" fill="#111827">2023-Q2</text></g>
<rect x="328.1" y="284.1" width="24.3" height="35.9" fill="#34C759" rx="3" opacity="0.85"/>
<text x="340.3" y="268.1" text-anchor="middle" font-size="10" fill="#6b7280">82</text>
<text x="340.3" y="280.1" text-anchor="middle" font-size="10" fill="#6b7280">(2.73%)</text>
<g transform="translate(340.3,330.0) rotate(-45)"><text text-anchor="end" font-size="10" fill="#111827">2023-Q3</text></g>
<rect x="365.5" y="292.4" width="24.3" height="27.6" fill="#34C759" rx="3" opacity="0.85"/>
<text x="377.6" y="276.4" text-anchor="middle" font-size="10" fill="#6b7280">63</text>
<text x="377.6" y="288.4" text-anchor="middle" font-size="10" fill="#6b7280">(2.10%)</text>
<g transform="translate(377.6,330.0) rotate(-45)"><text text-anchor="end" font-size="10" fill="#111827">2023-Q4</text></g>
<rect x="402.9" y="272.3" width="24.3" height="47.7" fill="#34C759" rx="3" opacity="0.85"/>
<text x="415.0" y="256.3" text-anchor="middle" font-size="10" fill="#6b7280">109</text>
<text x="415.0" y="268.3" text-anchor="middle" font-size="10" fill="#6b7280">(3.63%)</text>
<g transform="translate(415.0,330.0) rotate(-45)"><text text-anchor="end" font-size="10" fill="#111827">2024-Q1</text></g>
<rect x="440.2" y="265.3" width="24.3" height="54.7" fill="#34C759" rx="3" opacity="0.85"/>
<text x="452.4" y="249.3" text-anchor="middle" font-size="10" fill="#6b7280">125</text>
<text x="452.4" y="261.3" text-anchor="middle" font-size="10" fill="#6b7280">(4.17%)</text>
<g transform="translate(452.4,330.0) rotate(-45)"><text text-anchor="end" font-size="10" fill="#111827">2024-Q2</text></g>
<rect x="477.6" y="266.6" width="24.3" height="53.4" fill="#34C759" rx="3" opacity="0.85"/>
<text x="489.7" y="250.6" text-anchor="middle" font-size="10" fill="#6b7280">122</text>
<text x="489.7" y="262.6" text-anchor="middle" font-size="10" fill="#6b7280">(4.07%)</text>
<g transform="translate(489.7,330.0) rotate(-45)"><text text-anchor="end" font-size="10" fill="#111827">2024-Q3</text></g>
<rect x="515.0" y="270.1" width="24.3" height="49.9" fill="#34C759" rx="3" opacity="0.85"/>
<text x="527.1" y="254.1" text-anchor="middle" font-size="10" fill="#6b7280">114</text>
<text x="527.1" y="266.1" text-anchor="middle" font-size="10" fill="#6b7280">(3.80%)</text>
<g transform="translate(527.1,330.0) rotate(-45)"><text text-anchor="end" font-size="10" fill="#111827">2024-Q4</text></g>
<rect x="552.3" y="237.3" width="24.3" height="82.7" fill="#34C759" rx="3" opacity="0.85"/>
<text x="564.5" y="221.3" text-anchor="middle" font-size="10" fill="#6b7280">189</text>
<text x="564.5" y="233.3" text-anchor="middle" font-size="10" fill="#6b7280">(6.30%)</text>
<g transform="translate(564.5,330.0) rotate(-45)"><text text-anchor="end" font-size="10" fill="#111827">2025-Q1</text></g>
<rect x="589.7" y="229.5" width="24.3" height="90.5" fill="#34C759" rx="3" opacity="0.85"/>
<text x="601.8" y="213.5" text-anchor="middle" font-size="10" fill="#6b7280">207</text>
<text x="601.8" y="225.5" text-anchor="middle" font-size="10" fill="#6b7280">(6.90%)</text>
<g transform="translate(601.8,330.0) rotate(-45)"><text text-anchor="end" font-size="10" fill="#111827">2025-Q2</text></g>
<rect x="627.1" y="233.0" width="24.3" height="87.0" fill="#34C759" rx="3" opacity="0.85"/>
<text x="639.2" y="217.0" text-anchor="middle" font-size="10" fill="#6b7280">199</text>
<text x="639.2" y="229.0" text-anchor="middle" font-size="10" fill="#6b7280">(6.64%)</text>
<g transform="translate(639.2,330.0) rotate(-45)"><text text-anchor="end" font-size="10" fill="#111827">2025-Q3</text></g>
<rect x="664.4" y="194.5" width="24.3" height="125.5" fill="#34C759" rx="3" opacity="0.85"/>
<text x="676.6" y="178.5" text-anchor="middle" font-size="10" fill="#6b7280">287</text>
<text x="676.6" y="190.5" text-anchor="middle" font-size="10" fill="#6b7280">(9.57%)</text>
<g transform="translate(676.6,330.0) rotate(-45)"><text text-anchor="end" font-size="10" fill="#111827">2025-Q4</text></g>
<rect x="701.8" y="79.9" width="24.3" height="240.1" fill="#34C759" rx="3" opacity="0.85"/>
<text x="713.9" y="72.0" text-anchor="middle" font-size="10" fill="#6b7280">549</text>
<text x="713.9" y="84.0" text-anchor="middle" font-size="10" fill="#6b7280">(18.31%)</text>
<g transform="translate(713.9,330.0) rotate(-45)"><text text-anchor="end" font-size="10" fill="#111827">2026-Q1</text></g>
<rect x="739.2" y="58.0" width="24.3" height="262.0" fill="#34C759" rx="3" opacity="0.85"/>
<text x="751.3" y="72.0" text-anchor="middle" font-size="10" fill="#6b7280">599</text>
<text x="751.3" y="84.0" text-anchor="middle" font-size="10" fill="#6b7280">(19.97%)</text>
<g transform="translate(751.3,330.0) rotate(-45)"><text text-anchor="end" font-size="10" fill="#111827">2026-Q2</text></g>
</svg>