<svg xmlns="http://www.w3.org/2000/svg" width="800" height="400" viewBox="0 0 800 400">
<defs>
  <style>text { font-family: -apple-system, BlinkMacSystemFont, 'Segoe UI', Roboto, sans-serif; }</style>
  <linearGradient id="g2" x1="0" y1="0" x2="0" y2="1">
  <stop offset="0%" stop-color="#4F8EF7" stop-opacity="0.25"/>
  <stop offset="100%" stop-color="#4F8EF7" stop-opacity="0"/>
</linearGradient>
<linearGradient id="g3" x1="0" y1="0" x2="0" y2="1">
  <stop offset="0%" stop-color="#BF5AF2" stop-opacity="0.25"/>
  <stop offset="100%" stop-color="#BF5AF2" stop-opacity="0"/>
</linearGradient>
<linearGradient id="g4" x1="0" y1="0" x2="0" y2="1">
  <stop offset="0%" stop-color="#34C759" stop-opacity="0.25"/>
  <stop offset="100%" stop-color="#34C759" stop-opacity="0"/>
</linearGradient>
  <clipPath id="ca"><rect x="72" y="45" width="698" height="295"/></clipPath>
</defs>
<rect width="800" height="400" fill="#ffffff" rx="12"/>
<text x="400" y="26" text-anchor="middle" font-size="15" font-weight="600" fill="#111827">Community Growth Over Time</text>
<line x1="72" y1="340.0" x2="770" y2="340.0" stroke="#f3f4f6" stroke-width="1"/>
<text x="66" y="344.0" text-anchor="end" font-size="11" fill="#6b7280">500</text>
<line x1="72" y1="241.7" x2="770" y2="241.7" stroke="#f3f4f6" stroke-width="1"/>
<text x="66" y="245.7" text-anchor="end" font-size="11" fill="#6b7280">1.0k</text>
<line x1="72" y1="143.3" x2="770" y2="143.3" stroke="#f3f4f6" stroke-width="1"/>
<text x="66" y="147.3" text-anchor="end" font-size="11" fill="#6b7280">1.5k</text>
<line x1="72" y1="45.0" x2="770" y2="45.0" stroke="#f3f4f6" stroke-width="1"/>
<text x="66" y="49.0" text-anchor="end" font-size="11" fill="#6b7280">2.0k</text>
<line x1="128.6" y1="45" x2="128.6" y2="340" stroke="#e5e7eb" stroke-width="1" stroke-dasharray="3,3" clip-path="url(#ca)"/>
<line x1="251.2" y1="45" x2="251.2" y2="340" stroke="#e5e7eb" stroke-width="1" stroke-dasharray="3,3" clip-path="url(#ca)"/>
<line x1="378.6" y1="45" x2="378.6" y2="340" stroke="#e5e7eb" stroke-width="1" stroke-dasharray="3,3" clip-path="url(#ca)"/>
<line x1="505.9" y1="45" x2="505.9" y2="340" stroke="#e5e7eb" stroke-width="1" stroke-dasharray="3,3" clip-path="url(#ca)"/>
<line x1="633.2" y1="45" x2="633.2" y2="340" stroke="#e5e7eb" stroke-width="1" stroke-dasharray="3,3" clip-path="url(#ca)"/>
<line x1="755.9" y1="45" x2="755.9" y2="340" stroke="#e5e7eb" stroke-width="1" stroke-dasharray="3,3" clip-path="url(#ca)"/>
<text x="72.0" y="358.0" text-anchor="middle" font-size="11" fill="#6b7280">Dec 11</text>
<text x="213.5" y="358.0" text-anchor="middle" font-size="11" fill="#6b7280">Jan 24</text>
<text x="350.3" y="358.0" text-anchor="middle" font-size="11" fill="#6b7280">Feb 22</text>
<text x="491.7" y="358.0" text-anchor="middle" font-size="11" fill="#6b7280">Mar 27</text>
<text x="628.5" y="358.0" text-anchor="middle" font-size="11" fill="#6b7280">Apr 30</text>
<text x="770.0" y="358.0" text-anchor="middle" font-size="11" fill="#6b7280">Jun 5</text>
<line x1="72" y1="45" x2="72" y2="340" stroke="#e5e7eb" stroke-width="1"/>
<line x1="72" y1="340" x2="770" y2="340" stroke="#e5e7eb" stroke-width="1"/>
<text x="-192.5" y="18" text-anchor="middle" font-size="12" fill="#6b7280" transform="rotate(-90)">People</text>
<path d="M 72.0,340 L 72.0,120.1 L 76.7,120.1 L 81.4,120.1 L 86.1,119.5 L 90.9,119.5 L 95.6,119.1 L 100.3,118.9 L 105.0,119.1 L 109.7,118.6 L 114.4,118.6 L 119.2,118.6 L 123.9,118.6 L 128.6,118.6 L 133.3,118.6 L 138.0,118.6 L 142.7,118.6 L 147.5,118.4 L 152.2,117.8 L 156.9,116.6 L 161.6,116.0 L 166.3,115.8 L 171.0,115.8 L 175.8,115.2 L 180.5,113.8 L 185.2,113.0 L 189.9,113.0 L 194.6,112.1 L 199.3,111.7 L 204.1,110.9 L 208.8,110.3 L 213.5,109.7 L 218.2,109.1 L 222.9,109.1 L 227.6,107.7 L 232.4,106.9 L 237.1,106.9 L 241.8,106.2 L 246.5,105.8 L 251.2,105.6 L 255.9,105.4 L 260.6,105.4 L 265.4,104.8 L 270.1,102.4 L 274.8,101.0 L 279.5,100.3 L 284.2,100.1 L 288.9,99.7 L 293.7,98.9 L 298.4,98.5 L 303.1,98.1 L 307.8,97.7 L 312.5,97.3 L 317.2,96.9 L 322.0,96.9 L 326.7,95.0 L 331.4,95.0 L 336.1,94.8 L 340.8,94.6 L 345.5,94.2 L 350.3,94.2 L 355.0,93.2 L 359.7,92.0 L 364.4,91.6 L 369.1,92.0 L 373.8,91.8 L 378.6,91.6 L 383.3,91.6 L 388.0,91.2 L 392.7,90.4 L 397.4,90.0 L 402.1,89.6 L 406.9,89.4 L 411.6,89.4 L 416.3,88.7 L 421.0,88.3 L 425.7,88.3 L 430.4,86.7 L 435.1,86.7 L 439.9,86.7 L 444.6,86.7 L 449.3,86.5 L 454.0,85.9 L 458.7,85.1 L 463.4,84.7 L 468.2,84.7 L 472.9,84.3 L 477.6,82.8 L 482.3,81.8 L 487.0,81.6 L 491.7,81.4 L 496.5,80.8 L 501.2,79.6 L 505.9,79.2 L 510.6,78.8 L 515.3,77.6 L 520.0,77.4 L 524.8,77.4 L 529.5,77.4 L 534.2,77.3 L 538.9,76.1 L 543.6,75.9 L 548.3,75.7 L 553.1,75.7 L 557.8,75.3 L 562.5,73.7 L 567.2,73.5 L 571.9,73.3 L 576.6,73.3 L 581.4,72.5 L 586.1,72.3 L 590.8,72.1 L 595.5,71.6 L 600.2,70.8 L 604.9,70.8 L 609.6,70.8 L 614.4,70.8 L 619.1,70.4 L 623.8,69.8 L 628.5,69.6 L 633.2,69.0 L 637.9,68.8 L 642.7,68.6 L 647.4,67.8 L 652.1,67.2 L 656.8,67.0 L 661.5,67.0 L 666.2,65.3 L 671.0,64.7 L 675.7,64.5 L 680.4,64.5 L 685.1,63.5 L 689.8,63.5 L 694.5,62.9 L 699.3,62.3 L 704.0,60.9 L 708.7,60.7 L 713.4,60.5 L 718.1,60.3 L 722.8,60.3 L 727.6,60.1 L 732.3,59.2 L 737.0,58.6 L 741.7,58.6 L 746.4,58.4 L 751.1,58.4 L 755.9,57.8 L 760.6,57.6 L 765.3,57.4 L 770.0,56.8 L 770.0,340 Z" fill="url(#g2)" clip-path="url(#ca)"/>
<path d="M 72.0,120.1 L 76.7,120.1 L 81.4,120.1 L 86.1,119.5 L 90.9,119.5 L 95.6,119.1 L 100.3,118.9 L 105.0,119.1 L 109.7,118.6 L 114.4,118.6 L 119.2,118.6 L 123.9,118.6 L 128.6,118.6 L 133.3,118.6 L 138.0,118.6 L 142.7,118.6 L 147.5,118.4 L 152.2,117.8 L 156.9,116.6 L 161.6,116.0 L 166.3,115.8 L 171.0,115.8 L 175.8,115.2 L 180.5,113.8 L 185.2,113.0 L 189.9,113.0 L 194.6,112.1 L 199.3,111.7 L 204.1,110.9 L 208.8,110.3 L 213.5,109.7 L 218.2,109.1 L 222.9,109.1 L 227.6,107.7 L 232.4,106.9 L 237.1,106.9 L 241.8,106.2 L 246.5,105.8 L 251.2,105.6 L 255.9,105.4 L 260.6,105.4 L 265.4,104.8 L 270.1,102.4 L 274.8,101.0 L 279.5,100.3 L 284.2,100.1 L 288.9,99.7 L 293.7,98.9 L 298.4,98.5 L 303.1,98.1 L 307.8,97.7 L 312.5,97.3 L 317.2,96.9 L 322.0,96.9 L 326.7,95.0 L 331.4,95.0 L 336.1,94.8 L 340.8,94.6 L 345.5,94.2 L 350.3,94.2 L 355.0,93.2 L 359.7,92.0 L 364.4,91.6 L 369.1,92.0 L 373.8,91.8 L 378.6,91.6 L 383.3,91.6 L 388.0,91.2 L 392.7,90.4 L 397.4,90.0 L 402.1,89.6 L 406.9,89.4 L 411.6,89.4 L 416.3,88.7 L 421.0,88.3 L 425.7,88.3 L 430.4,86.7 L 435.1,86.7 L 439.9,86.7 L 444.6,86.7 L 449.3,86.5 L 454.0,85.9 L 458.7,85.1 L 463.4,84.7 L 468.2,84.7 L 472.9,84.3 L 477.6,82.8 L 482.3,81.8 L 487.0,81.6 L 491.7,81.4 L 496.5,80.8 L 501.2,79.6 L 505.9,79.2 L 510.6,78.8 L 515.3,77.6 L 520.0,77.4 L 524.8,77.4 L 529.5,77.4 L 534.2,77.3 L 538.9,76.1 L 543.6,75.9 L 548.3,75.7 L 553.1,75.7 L 557.8,75.3 L 562.5,73.7 L 567.2,73.5 L 571.9,73.3 L 576.6,73.3 L 581.4,72.5 L 586.1,72.3 L 590.8,72.1 L 595.5,71.6 L 600.2,70.8 L 604.9,70.8 L 609.6,70.8 L 614.4,70.8 L 619.1,70.4 L 623.8,69.8 L 628.5,69.6 L 633.2,69.0 L 637.9,68.8 L 642.7,68.6 L 647.4,67.8 L 652.1,67.2 L 656.8,67.0 L 661.5,67.0 L 666.2,65.3 L 671.0,64.7 L 675.7,64.5 L 680.4,64.5 L 685.1,63.5 L 689.8,63.5 L 694.5,62.9 L 699.3,62.3 L 704.0,60.9 L 708.7,60.7 L 713.4,60.5 L 718.1,60.3 L 722.8,60.3 L 727.6,60.1 L 732.3,59.2 L 737.0,58.6 L 741.7,58.6 L 746.4,58.4 L 751.1,58.4 L 755.9,57.8 L 760.6,57.6 L 765.3,57.4 L 770.0,56.8" fill="none" stroke="#4F8EF7" stroke-width="2.5" stroke-linejoin="round" clip-path="url(#ca)"/>
<path d="M 72.0,340 L 72.0,244.2 L 76.7,243.6 L 81.4,243.6 L 86.1,243.6 L 90.9,243.4 L 95.6,243.0 L 100.3,242.8 L 105.0,242.6 L 109.7,242.6 L 114.4,242.5 L 119.2,242.3 L 123.9,242.3 L 128.6,242.3 L 133.3,242.3 L 138.0,242.3 L 142.7,242.3 L 147.5,241.9 L 152.2,241.9 L 156.9,241.9 L 161.6,241.1 L 166.3,240.9 L 171.0,240.5 L 175.8,239.7 L 180.5,239.5 L 185.2,239.5 L 189.9,239.5 L 194.6,238.9 L 199.3,238.5 L 204.1,238.5 L 208.8,238.1 L 213.5,237.9 L 218.2,237.5 L 222.9,237.5 L 227.6,237.3 L 232.4,236.6 L 237.1,236.0 L 241.8,235.6 L 246.5,235.4 L 251.2,235.4 L 255.9,235.2 L 260.6,234.8 L 265.4,234.8 L 270.1,234.6 L 274.8,234.0 L 279.5,233.6 L 284.2,233.6 L 288.9,233.6 L 293.7,233.6 L 298.4,233.4 L 303.1,232.8 L 307.8,232.4 L 312.5,232.2 L 317.2,232.0 L 322.0,231.8 L 326.7,231.6 L 331.4,231.4 L 336.1,231.2 L 340.8,230.7 L 345.5,230.5 L 350.3,230.3 L 355.0,229.5 L 359.7,228.7 L 364.4,228.7 L 369.1,228.5 L 373.8,228.3 L 378.6,228.3 L 383.3,228.3 L 388.0,227.9 L 392.7,227.9 L 397.4,226.7 L 402.1,226.5 L 406.9,226.3 L 411.6,226.3 L 416.3,225.9 L 421.0,225.7 L 425.7,225.7 L 430.4,225.5 L 435.1,225.5 L 439.9,225.5 L 444.6,225.1 L 449.3,224.9 L 454.0,224.0 L 458.7,224.2 L 463.4,224.0 L 468.2,223.8 L 472.9,223.8 L 477.6,223.6 L 482.3,223.0 L 487.0,223.0 L 491.7,223.0 L 496.5,223.0 L 501.2,222.6 L 505.9,222.6 L 510.6,222.2 L 515.3,221.8 L 520.0,221.0 L 524.8,221.0 L 529.5,220.6 L 534.2,220.4 L 538.9,220.2 L 543.6,220.0 L 548.3,219.6 L 553.1,219.6 L 557.8,219.1 L 562.5,219.1 L 567.2,218.9 L 571.9,218.5 L 576.6,218.3 L 581.4,218.3 L 586.1,218.3 L 590.8,218.3 L 595.5,218.3 L 600.2,217.7 L 604.9,217.7 L 609.6,217.3 L 614.4,216.9 L 619.1,216.3 L 623.8,216.1 L 628.5,216.1 L 633.2,214.9 L 637.9,214.7 L 642.7,214.7 L 647.4,213.9 L 652.1,213.9 L 656.8,213.5 L 661.5,213.5 L 666.2,213.3 L 671.0,213.3 L 675.7,213.2 L 680.4,212.8 L 685.1,212.8 L 689.8,212.6 L 694.5,212.4 L 699.3,212.2 L 704.0,212.0 L 708.7,212.0 L 713.4,211.6 L 718.1,211.6 L 722.8,211.6 L 727.6,210.6 L 732.3,210.6 L 737.0,210.6 L 741.7,210.6 L 746.4,210.6 L 751.1,210.6 L 755.9,210.2 L 760.6,210.2 L 765.3,209.8 L 770.0,209.0 L 770.0,340 Z" fill="url(#g3)" clip-path="url(#ca)"/>
<path d="M 72.0,244.2 L 76.7,243.6 L 81.4,243.6 L 86.1,243.6 L 90.9,243.4 L 95.6,243.0 L 100.3,242.8 L 105.0,242.6 L 109.7,242.6 L 114.4,242.5 L 119.2,242.3 L 123.9,242.3 L 128.6,242.3 L 133.3,242.3 L 138.0,242.3 L 142.7,242.3 L 147.5,241.9 L 152.2,241.9 L 156.9,241.9 L 161.6,241.1 L 166.3,240.9 L 171.0,240.5 L 175.8,239.7 L 180.5,239.5 L 185.2,239.5 L 189.9,239.5 L 194.6,238.9 L 199.3,238.5 L 204.1,238.5 L 208.8,238.1 L 213.5,237.9 L 218.2,237.5 L 222.9,237.5 L 227.6,237.3 L 232.4,236.6 L 237.1,236.0 L 241.8,235.6 L 246.5,235.4 L 251.2,235.4 L 255.9,235.2 L 260.6,234.8 L 265.4,234.8 L 270.1,234.6 L 274.8,234.0 L 279.5,233.6 L 284.2,233.6 L 288.9,233.6 L 293.7,233.6 L 298.4,233.4 L 303.1,232.8 L 307.8,232.4 L 312.5,232.2 L 317.2,232.0 L 322.0,231.8 L 326.7,231.6 L 331.4,231.4 L 336.1,231.2 L 340.8,230.7 L 345.5,230.5 L 350.3,230.3 L 355.0,229.5 L 359.7,228.7 L 364.4,228.7 L 369.1,228.5 L 373.8,228.3 L 378.6,228.3 L 383.3,228.3 L 388.0,227.9 L 392.7,227.9 L 397.4,226.7 L 402.1,226.5 L 406.9,226.3 L 411.6,226.3 L 416.3,225.9 L 421.0,225.7 L 425.7,225.7 L 430.4,225.5 L 435.1,225.5 L 439.9,225.5 L 444.6,225.1 L 449.3,224.9 L 454.0,224.0 L 458.7,224.2 L 463.4,224.0 L 468.2,223.8 L 472.9,223.8 L 477.6,223.6 L 482.3,223.0 L 487.0,223.0 L 491.7,223.0 L 496.5,223.0 L 501.2,222.6 L 505.9,222.6 L 510.6,222.2 L 515.3,221.8 L 520.0,221.0 L 524.8,221.0 L 529.5,220.6 L 534.2,220.4 L 538.9,220.2 L 543.6,220.0 L 548.3,219.6 L 553.1,219.6 L 557.8,219.1 L 562.5,219.1 L 567.2,218.9 L 571.9,218.5 L 576.6,218.3 L 581.4,218.3 L 586.1,218.3 L 590.8,218.3 L 595.5,218.3 L 600.2,217.7 L 604.9,217.7 L 609.6,217.3 L 614.4,216.9 L 619.1,216.3 L 623.8,216.1 L 628.5,216.1 L 633.2,214.9 L 637.9,214.7 L 642.7,214.7 L 647.4,213.9 L 652.1,213.9 L 656.8,213.5 L 661.5,213.5 L 666.2,213.3 L 671.0,213.3 L 675.7,213.2 L 680.4,212.8 L 685.1,212.8 L 689.8,212.6 L 694.5,212.4 L 699.3,212.2 L 704.0,212.0 L 708.7,212.0 L 713.4,211.6 L 718.1,211.6 L 722.8,211.6 L 727.6,210.6 L 732.3,210.6 L 737.0,210.6 L 741.7,210.6 L 746.4,210.6 L 751.1,210.6 L 755.9,210.2 L 760.6,210.2 L 765.3,209.8 L 770.0,209.0" fill="none" stroke="#BF5AF2" stroke-width="2.5" stroke-linejoin="round" clip-path="url(#ca)"/>
<path d="M 72.0,340 L 72.0,291.4 L 76.7,290.8 L 81.4,290.8 L 86.1,290.8 L 90.9,290.6 L 95.6,290.2 L 100.3,290.0 L 105.0,289.7 L 109.7,289.7 L 114.4,289.5 L 119.2,289.3 L 123.9,289.3 L 128.6,289.3 L 133.3,289.3 L 138.0,289.3 L 142.7,289.3 L 147.5,288.9 L 152.2,288.9 L 156.9,289.1 L 161.6,288.5 L 166.3,288.7 L 171.0,288.1 L 175.8,287.5 L 180.5,287.3 L 185.2,287.5 L 189.9,287.5 L 194.6,286.9 L 199.3,286.7 L 204.1,286.7 L 208.8,286.3 L 213.5,286.1 L 218.2,285.7 L 222.9,285.7 L 227.6,285.5 L 232.4,284.9 L 237.1,284.3 L 241.8,283.9 L 246.5,283.9 L 251.2,283.9 L 255.9,283.8 L 260.6,283.4 L 265.4,283.4 L 270.1,283.2 L 274.8,282.6 L 279.5,282.4 L 284.2,282.4 L 288.9,282.4 L 293.7,282.4 L 298.4,282.2 L 303.1,281.6 L 307.8,281.4 L 312.5,281.2 L 317.2,281.0 L 322.0,281.0 L 326.7,280.8 L 331.4,280.8 L 336.1,280.8 L 340.8,280.2 L 345.5,280.2 L 350.3,280.2 L 355.0,279.8 L 359.7,279.2 L 364.4,279.2 L 369.1,279.0 L 373.8,278.8 L 378.6,278.8 L 383.3,278.8 L 388.0,278.4 L 392.7,278.4 L 397.4,277.3 L 402.1,277.1 L 406.9,276.9 L 411.6,276.9 L 416.3,276.7 L 421.0,276.7 L 425.7,276.7 L 430.4,276.7 L 435.1,276.7 L 439.9,276.7 L 444.6,276.3 L 449.3,276.1 L 454.0,275.1 L 458.7,275.3 L 463.4,275.3 L 468.2,275.1 L 472.9,275.1 L 477.6,275.1 L 482.3,274.7 L 487.0,274.7 L 491.7,274.7 L 496.5,274.7 L 501.2,274.7 L 505.9,274.7 L 510.6,274.5 L 515.3,274.5 L 520.0,273.7 L 524.8,273.7 L 529.5,273.5 L 534.2,273.3 L 538.9,273.1 L 543.6,272.9 L 548.3,272.5 L 553.1,272.5 L 557.8,272.0 L 562.5,272.0 L 567.2,271.8 L 571.9,271.6 L 576.6,271.6 L 581.4,271.6 L 586.1,271.6 L 590.8,271.6 L 595.5,271.6 L 600.2,271.0 L 604.9,271.0 L 609.6,270.6 L 614.4,270.2 L 619.1,269.6 L 623.8,269.4 L 628.5,269.4 L 633.2,268.4 L 637.9,268.2 L 642.7,268.2 L 647.4,267.6 L 652.1,267.6 L 656.8,267.4 L 661.5,267.4 L 666.2,267.6 L 671.0,267.8 L 675.7,267.6 L 680.4,267.2 L 685.1,267.4 L 689.8,267.2 L 694.5,267.0 L 699.3,267.0 L 704.0,267.0 L 708.7,267.0 L 713.4,266.6 L 718.1,266.6 L 722.8,266.6 L 727.6,265.9 L 732.3,265.9 L 737.0,265.9 L 741.7,265.9 L 746.4,265.9 L 751.1,265.9 L 755.9,265.5 L 760.6,265.5 L 765.3,265.1 L 770.0,264.3 L 770.0,340 Z" fill="url(#g4)" clip-path="url(#ca)"/>
<path d="M 72.0,291.4 L 76.7,290.8 L 81.4,290.8 L 86.1,290.8 L 90.9,290.6 L 95.6,290.2 L 100.3,290.0 L 105.0,289.7 L 109.7,289.7 L 114.4,289.5 L 119.2,289.3 L 123.9,289.3 L 128.6,289.3 L 133.3,289.3 L 138.0,289.3 L 142.7,289.3 L 147.5,288.9 L 152.2,288.9 L 156.9,289.1 L 161.6,288.5 L 166.3,288.7 L 171.0,288.1 L 175.8,287.5 L 180.5,287.3 L 185.2,287.5 L 189.9,287.5 L 194.6,286.9 L 199.3,286.7 L 204.1,286.7 L 208.8,286.3 L 213.5,286.1 L 218.2,285.7 L 222.9,285.7 L 227.6,285.5 L 232.4,284.9 L 237.1,284.3 L 241.8,283.9 L 246.5,283.9 L 251.2,283.9 L 255.9,283.8 L 260.6,283.4 L 265.4,283.4 L 270.1,283.2 L 274.8,282.6 L 279.5,282.4 L 284.2,282.4 L 288.9,282.4 L 293.7,282.4 L 298.4,282.2 L 303.1,281.6 L 307.8,281.4 L 312.5,281.2 L 317.2,281.0 L 322.0,281.0 L 326.7,280.8 L 331.4,280.8 L 336.1,280.8 L 340.8,280.2 L 345.5,280.2 L 350.3,280.2 L 355.0,279.8 L 359.7,279.2 L 364.4,279.2 L 369.1,279.0 L 373.8,278.8 L 378.6,278.8 L 383.3,278.8 L 388.0,278.4 L 392.7,278.4 L 397.4,277.3 L 402.1,277.1 L 406.9,276.9 L 411.6,276.9 L 416.3,276.7 L 421.0,276.7 L 425.7,276.7 L 430.4,276.7 L 435.1,276.7 L 439.9,276.7 L 444.6,276.3 L 449.3,276.1 L 454.0,275.1 L 458.7,275.3 L 463.4,275.3 L 468.2,275.1 L 472.9,275.1 L 477.6,275.1 L 482.3,274.7 L 487.0,274.7 L 491.7,274.7 L 496.5,274.7 L 501.2,274.7 L 505.9,274.7 L 510.6,274.5 L 515.3,274.5 L 520.0,273.7 L 524.8,273.7 L 529.5,273.5 L 534.2,273.3 L 538.9,273.1 L 543.6,272.9 L 548.3,272.5 L 553.1,272.5 L 557.8,272.0 L 562.5,272.0 L 567.2,271.8 L 571.9,271.6 L 576.6,271.6 L 581.4,271.6 L 586.1,271.6 L 590.8,271.6 L 595.5,271.6 L 600.2,271.0 L 604.9,271.0 L 609.6,270.6 L 614.4,270.2 L 619.1,269.6 L 623.8,269.4 L 628.5,269.4 L 633.2,268.4 L 637.9,268.2 L 642.7,268.2 L 647.4,267.6 L 652.1,267.6 L 656.8,267.4 L 661.5,267.4 L 666.2,267.6 L 671.0,267.8 L 675.7,267.6 L 680.4,267.2 L 685.1,267.4 L 689.8,267.2 L 694.5,267.0 L 699.3,267.0 L 704.0,267.0 L 708.7,267.0 L 713.4,266.6 L 718.1,266.6 L 722.8,266.6 L 727.6,265.9 L 732.3,265.9 L 737.0,265.9 L 741.7,265.9 L 746.4,265.9 L 751.1,265.9 L 755.9,265.5 L 760.6,265.5 L 765.3,265.1 L 770.0,264.3" fill="none" stroke="#34C759" stroke-width="2.5" stroke-linejoin="round" clip-path="url(#ca)"/>
<text x="97.9" y="55.0" text-anchor="middle" font-size="9" fill="#4F8EF7" opacity="0.85" clip-path="url(#ca)">+0.5% (+8)</text>
<text x="97.9" y="66.0" text-anchor="middle" font-size="9" fill="#BF5AF2" opacity="0.85" clip-path="url(#ca)">+1.0% (+10)</text>
<text x="97.9" y="77.0" text-anchor="middle" font-size="9" fill="#34C759" opacity="0.85" clip-path="url(#ca)">+1.5% (+11)</text>
<text x="187.5" y="55.0" text-anchor="middle" font-size="9" fill="#4F8EF7" opacity="0.85" clip-path="url(#ca)">+4.0% (+65)</text>
<text x="187.5" y="66.0" text-anchor="middle" font-size="9" fill="#BF5AF2" opacity="0.85" clip-path="url(#ca)">+3.5% (+35)</text>
<text x="187.5" y="77.0" text-anchor="middle" font-size="9" fill="#34C759" opacity="0.85" clip-path="url(#ca)">+3.6% (+27)</text>
<text x="312.5" y="55.0" text-anchor="middle" font-size="9" fill="#4F8EF7" opacity="0.85" clip-path="url(#ca)">+4.1% (+70)</text>
<text x="312.5" y="66.0" text-anchor="middle" font-size="9" fill="#BF5AF2" opacity="0.85" clip-path="url(#ca)">+3.5% (+36)</text>
<text x="312.5" y="77.0" text-anchor="middle" font-size="9" fill="#34C759" opacity="0.85" clip-path="url(#ca)">+3.3% (+26)</text>
<text x="439.9" y="55.0" text-anchor="middle" font-size="9" fill="#4F8EF7" opacity="0.85" clip-path="url(#ca)">+3.5% (+61)</text>
<text x="439.9" y="66.0" text-anchor="middle" font-size="9" fill="#BF5AF2" opacity="0.85" clip-path="url(#ca)">+2.7% (+29)</text>
<text x="439.9" y="77.0" text-anchor="middle" font-size="9" fill="#34C759" opacity="0.85" clip-path="url(#ca)">+2.6% (+21)</text>
<text x="567.2" y="55.0" text-anchor="middle" font-size="9" fill="#4F8EF7" opacity="0.85" clip-path="url(#ca)">+2.7% (+49)</text>
<text x="567.2" y="66.0" text-anchor="middle" font-size="9" fill="#BF5AF2" opacity="0.85" clip-path="url(#ca)">+3.0% (+33)</text>
<text x="567.2" y="77.0" text-anchor="middle" font-size="9" fill="#34C759" opacity="0.85" clip-path="url(#ca)">+3.2% (+27)</text>
<text x="692.2" y="55.0" text-anchor="middle" font-size="9" fill="#4F8EF7" opacity="0.85" clip-path="url(#ca)">+2.9% (+54)</text>
<text x="692.2" y="66.0" text-anchor="middle" font-size="9" fill="#BF5AF2" opacity="0.85" clip-path="url(#ca)">+1.9% (+22)</text>
<text x="692.2" y="77.0" text-anchor="middle" font-size="9" fill="#34C759" opacity="0.85" clip-path="url(#ca)">+1.5% (+13)</text>
<text x="762.9" y="55.0" text-anchor="middle" font-size="9" fill="#4F8EF7" opacity="0.85" clip-path="url(#ca)">+0.3% (+5)</text>
<text x="762.9" y="66.0" text-anchor="middle" font-size="9" fill="#BF5AF2" opacity="0.85" clip-path="url(#ca)">+0.5% (+6)</text>
<text x="762.9" y="77.0" text-anchor="middle" font-size="9" fill="#34C759" opacity="0.85" clip-path="url(#ca)">+0.7% (+6)</text>
<rect x="211" y="369" width="12" height="12" fill="#4F8EF7" rx="2"/>
<text x="227" y="379" font-size="12" fill="#111827">Authors</text>
<rect x="351" y="369" width="12" height="12" fill="#BF5AF2" rx="2"/>
<text x="367" y="379" font-size="12" fill="#111827">Contributors</text>
<rect x="491" y="369" width="12" height="12" fill="#34C759" rx="2"/>
<text x="507" y="379" font-size="12" fill="#111827">Non-author contributors</text>
<text x="72" y="394" font-size="8" fill="#e5e7eb">data since Dec 11, 2025</text>
</svg>