<svg xmlns="http://www.w3.org/2000/svg" width="800" height="400" viewBox="0 0 800 400">
<defs>
  <style>text { font-family: -apple-system, BlinkMacSystemFont, 'Segoe UI', Roboto, sans-serif; }</style>
  <linearGradient id="g5" x1="0" y1="0" x2="0" y2="1">
  <stop offset="0%" stop-color="#34C759" stop-opacity="0.25"/>
  <stop offset="100%" stop-color="#34C759" stop-opacity="0"/>
</linearGradient>
<linearGradient id="g6" x1="0" y1="0" x2="0" y2="1">
  <stop offset="0%" stop-color="#4F8EF7" stop-opacity="0.25"/>
  <stop offset="100%" stop-color="#4F8EF7" stop-opacity="0"/>
</linearGradient>
<linearGradient id="g7" x1="0" y1="0" x2="0" y2="1">
  <stop offset="0%" stop-color="#FF6363" stop-opacity="0.25"/>
  <stop offset="100%" stop-color="#FF6363" stop-opacity="0"/>
</linearGradient>
  <clipPath id="ca"><rect x="72" y="45" width="698" height="295"/></clipPath>
</defs>
<rect width="800" height="400" fill="#ffffff" rx="12"/>
<text x="400" y="26" text-anchor="middle" font-size="15" font-weight="600" fill="#111827">Platform Support Over Time</text>
<line x1="72" y1="340.0" x2="770" y2="340.0" stroke="#f3f4f6" stroke-width="1"/>
<text x="66" y="344.0" text-anchor="end" font-size="11" fill="#6b7280">0</text>
<line x1="72" y1="281.0" x2="770" y2="281.0" stroke="#f3f4f6" stroke-width="1"/>
<text x="66" y="285.0" text-anchor="end" font-size="11" fill="#6b7280">200</text>
<line x1="72" y1="222.0" x2="770" y2="222.0" stroke="#f3f4f6" stroke-width="1"/>
<text x="66" y="226.0" text-anchor="end" font-size="11" fill="#6b7280">400</text>
<line x1="72" y1="163.0" x2="770" y2="163.0" stroke="#f3f4f6" stroke-width="1"/>
<text x="66" y="167.0" text-anchor="end" font-size="11" fill="#6b7280">600</text>
<line x1="72" y1="104.0" x2="770" y2="104.0" stroke="#f3f4f6" stroke-width="1"/>
<text x="66" y="108.0" text-anchor="end" font-size="11" fill="#6b7280">800</text>
<line x1="72" y1="45.0" x2="770" y2="45.0" stroke="#f3f4f6" stroke-width="1"/>
<text x="66" y="49.0" text-anchor="end" font-size="11" fill="#6b7280">1.0k</text>
<line x1="121.0" y1="45" x2="121.0" y2="340" stroke="#e5e7eb" stroke-width="1" stroke-dasharray="3,3" clip-path="url(#ca)"/>
<line x1="227.1" y1="45" x2="227.1" y2="340" stroke="#e5e7eb" stroke-width="1" stroke-dasharray="3,3" clip-path="url(#ca)"/>
<line x1="337.3" y1="45" x2="337.3" y2="340" stroke="#e5e7eb" stroke-width="1" stroke-dasharray="3,3" clip-path="url(#ca)"/>
<line x1="447.5" y1="45" x2="447.5" y2="340" stroke="#e5e7eb" stroke-width="1" stroke-dasharray="3,3" clip-path="url(#ca)"/>
<line x1="557.7" y1="45" x2="557.7" y2="340" stroke="#e5e7eb" stroke-width="1" stroke-dasharray="3,3" clip-path="url(#ca)"/>
<line x1="663.9" y1="45" x2="663.9" y2="340" stroke="#e5e7eb" stroke-width="1" stroke-dasharray="3,3" clip-path="url(#ca)"/>
<line x1="761.8" y1="45" x2="761.8" y2="340" stroke="#e5e7eb" stroke-width="1" stroke-dasharray="3,3" clip-path="url(#ca)"/>
<text x="72.0" y="358.0" text-anchor="middle" font-size="11" fill="#6b7280">Dec 11</text>
<text x="210.8" y="358.0" text-anchor="middle" font-size="11" fill="#6b7280">Jan 28</text>
<text x="349.6" y="358.0" text-anchor="middle" font-size="11" fill="#6b7280">Mar 4</text>
<text x="492.4" y="358.0" text-anchor="middle" font-size="11" fill="#6b7280">Apr 13</text>
<text x="631.2" y="358.0" text-anchor="middle" font-size="11" fill="#6b7280">May 24</text>
<text x="770.0" y="358.0" text-anchor="middle" font-size="11" fill="#6b7280">Jul 3</text>
<line x1="72" y1="45" x2="72" y2="340" stroke="#e5e7eb" stroke-width="1"/>
<line x1="72" y1="340" x2="770" y2="340" stroke="#e5e7eb" stroke-width="1"/>
<text x="-192.5" y="18" text-anchor="middle" font-size="12" fill="#6b7280" transform="rotate(-90)">Extensions</text>
<path d="M 72.0,340 L 72.0,242.6 L 76.1,240.0 L 80.2,239.7 L 84.2,238.5 L 88.3,237.9 L 92.4,235.0 L 96.5,233.2 L 100.6,232.3 L 104.7,230.8 L 108.7,229.1 L 112.8,228.2 L 116.9,227.9 L 121.0,227.0 L 125.1,226.4 L 129.1,226.1 L 133.2,225.2 L 137.3,224.4 L 141.4,223.5 L 145.5,222.6 L 149.6,221.4 L 153.6,220.5 L 157.7,219.6 L 161.8,218.8 L 165.9,217.0 L 170.0,216.4 L 174.0,216.4 L 178.1,214.3 L 182.2,213.7 L 186.3,213.2 L 190.4,212.6 L 194.5,211.1 L 198.5,209.0 L 202.6,208.7 L 206.7,208.4 L 210.8,206.7 L 214.9,206.1 L 218.9,204.6 L 223.0,204.3 L 227.1,204.0 L 231.2,203.4 L 235.3,203.4 L 239.4,203.4 L 243.4,199.3 L 247.5,199.0 L 251.6,198.1 L 255.7,197.8 L 259.8,197.5 L 263.8,196.6 L 267.9,196.0 L 272.0,195.4 L 276.1,193.7 L 280.2,193.7 L 284.3,193.7 L 288.3,193.4 L 292.4,190.4 L 296.5,189.6 L 300.6,189.0 L 304.7,188.1 L 308.7,187.5 L 312.8,187.5 L 316.9,186.0 L 321.0,183.9 L 325.1,183.4 L 329.2,183.1 L 333.2,182.2 L 337.3,182.2 L 341.4,181.6 L 345.5,180.7 L 349.6,180.1 L 353.6,178.9 L 357.7,177.8 L 361.8,177.5 L 365.9,177.5 L 370.0,176.3 L 374.1,176.3 L 378.1,176.3 L 382.2,174.5 L 386.3,174.2 L 390.4,173.9 L 394.5,173.9 L 398.5,173.6 L 402.6,172.4 L 406.7,171.9 L 410.8,171.0 L 414.9,171.0 L 419.0,170.7 L 423.0,169.5 L 427.1,168.6 L 431.2,168.6 L 435.3,168.3 L 439.4,167.7 L 443.5,165.7 L 447.5,165.1 L 451.6,164.2 L 455.7,164.2 L 459.8,163.6 L 463.9,163.3 L 467.9,163.0 L 472.0,162.7 L 476.1,162.4 L 480.2,162.4 L 484.3,162.1 L 488.4,161.8 L 492.4,160.9 L 496.5,159.8 L 500.6,159.5 L 504.7,158.6 L 508.8,158.6 L 512.8,157.4 L 516.9,157.1 L 521.0,157.1 L 525.1,157.1 L 529.2,156.2 L 533.3,155.9 L 537.3,155.9 L 541.4,155.9 L 545.5,155.6 L 549.6,154.4 L 553.7,154.2 L 557.7,153.3 L 561.8,152.7 L 565.9,152.7 L 570.0,151.8 L 574.1,151.2 L 578.2,151.2 L 582.2,150.9 L 586.3,149.4 L 590.4,148.0 L 594.5,147.7 L 598.6,147.1 L 602.6,145.9 L 606.7,145.9 L 610.8,145.3 L 614.9,143.8 L 619.0,141.2 L 623.1,140.3 L 627.1,140.3 L 631.2,140.3 L 635.3,140.3 L 639.4,140.3 L 643.5,139.1 L 647.5,138.2 L 651.6,138.2 L 655.7,138.2 L 659.8,138.2 L 663.9,137.3 L 668.0,137.3 L 672.0,136.5 L 676.1,135.6 L 680.2,135.3 L 684.3,135.0 L 688.4,134.4 L 692.4,134.4 L 696.5,133.5 L 700.6,132.3 L 704.7,131.4 L 708.8,129.7 L 712.9,129.1 L 716.9,128.8 L 721.0,128.5 L 725.1,127.9 L 729.2,127.6 L 733.3,126.1 L 737.3,125.2 L 741.4,123.8 L 745.5,123.5 L 749.6,123.5 L 753.7,123.2 L 757.8,122.0 L 761.8,121.7 L 765.9,121.4 L 770.0,121.1 L 770.0,340 Z" fill="url(#g5)" clip-path="url(#ca)"/>
<path d="M 72.0,242.6 L 76.1,240.0 L 80.2,239.7 L 84.2,238.5 L 88.3,237.9 L 92.4,235.0 L 96.5,233.2 L 100.6,232.3 L 104.7,230.8 L 108.7,229.1 L 112.8,228.2 L 116.9,227.9 L 121.0,227.0 L 125.1,226.4 L 129.1,226.1 L 133.2,225.2 L 137.3,224.4 L 141.4,223.5 L 145.5,222.6 L 149.6,221.4 L 153.6,220.5 L 157.7,219.6 L 161.8,218.8 L 165.9,217.0 L 170.0,216.4 L 174.0,216.4 L 178.1,214.3 L 182.2,213.7 L 186.3,213.2 L 190.4,212.6 L 194.5,211.1 L 198.5,209.0 L 202.6,208.7 L 206.7,208.4 L 210.8,206.7 L 214.9,206.1 L 218.9,204.6 L 223.0,204.3 L 227.1,204.0 L 231.2,203.4 L 235.3,203.4 L 239.4,203.4 L 243.4,199.3 L 247.5,199.0 L 251.6,198.1 L 255.7,197.8 L 259.8,197.5 L 263.8,196.6 L 267.9,196.0 L 272.0,195.4 L 276.1,193.7 L 280.2,193.7 L 284.3,193.7 L 288.3,193.4 L 292.4,190.4 L 296.5,189.6 L 300.6,189.0 L 304.7,188.1 L 308.7,187.5 L 312.8,187.5 L 316.9,186.0 L 321.0,183.9 L 325.1,183.4 L 329.2,183.1 L 333.2,182.2 L 337.3,182.2 L 341.4,181.6 L 345.5,180.7 L 349.6,180.1 L 353.6,178.9 L 357.7,177.8 L 361.8,177.5 L 365.9,177.5 L 370.0,176.3 L 374.1,176.3 L 378.1,176.3 L 382.2,174.5 L 386.3,174.2 L 390.4,173.9 L 394.5,173.9 L 398.5,173.6 L 402.6,172.4 L 406.7,171.9 L 410.8,171.0 L 414.9,171.0 L 419.0,170.7 L 423.0,169.5 L 427.1,168.6 L 431.2,168.6 L 435.3,168.3 L 439.4,167.7 L 443.5,165.7 L 447.5,165.1 L 451.6,164.2 L 455.7,164.2 L 459.8,163.6 L 463.9,163.3 L 467.9,163.0 L 472.0,162.7 L 476.1,162.4 L 480.2,162.4 L 484.3,162.1 L 488.4,161.8 L 492.4,160.9 L 496.5,159.8 L 500.6,159.5 L 504.7,158.6 L 508.8,158.6 L 512.8,157.4 L 516.9,157.1 L 521.0,157.1 L 525.1,157.1 L 529.2,156.2 L 533.3,155.9 L 537.3,155.9 L 541.4,155.9 L 545.5,155.6 L 549.6,154.4 L 553.7,154.2 L 557.7,153.3 L 561.8,152.7 L 565.9,152.7 L 570.0,151.8 L 574.1,151.2 L 578.2,151.2 L 582.2,150.9 L 586.3,149.4 L 590.4,148.0 L 594.5,147.7 L 598.6,147.1 L 602.6,145.9 L 606.7,145.9 L 610.8,145.3 L 614.9,143.8 L 619.0,141.2 L 623.1,140.3 L 627.1,140.3 L 631.2,140.3 L 635.3,140.3 L 639.4,140.3 L 643.5,139.1 L 647.5,138.2 L 651.6,138.2 L 655.7,138.2 L 659.8,138.2 L 663.9,137.3 L 668.0,137.3 L 672.0,136.5 L 676.1,135.6 L 680.2,135.3 L 684.3,135.0 L 688.4,134.4 L 692.4,134.4 L 696.5,133.5 L 700.6,132.3 L 704.7,131.4 L 708.8,129.7 L 712.9,129.1 L 716.9,128.8 L 721.0,128.5 L 725.1,127.9 L 729.2,127.6 L 733.3,126.1 L 737.3,125.2 L 741.4,123.8 L 745.5,123.5 L 749.6,123.5 L 753.7,123.2 L 757.8,122.0 L 761.8,121.7 L 765.9,121.4 L 770.0,121.1" fill="none" stroke="#34C759" stroke-width="2.5" stroke-linejoin="round" clip-path="url(#ca)"/>
<path d="M 72.0,340 L 72.0,222.6 L 76.1,222.6 L 80.2,222.3 L 84.2,221.4 L 88.3,221.7 L 92.4,221.7 L 96.5,220.5 L 100.6,219.6 L 104.7,219.6 L 108.7,219.9 L 112.8,219.6 L 116.9,219.3 L 121.0,219.1 L 125.1,219.1 L 129.1,219.1 L 133.2,219.3 L 137.3,218.8 L 141.4,218.2 L 145.5,216.4 L 149.6,215.2 L 153.6,215.2 L 157.7,214.9 L 161.8,213.2 L 165.9,210.5 L 170.0,209.6 L 174.0,209.0 L 178.1,207.0 L 182.2,205.5 L 186.3,204.9 L 190.4,204.3 L 194.5,203.7 L 198.5,203.4 L 202.6,203.4 L 206.7,201.3 L 210.8,200.8 L 214.9,200.2 L 218.9,200.2 L 223.0,198.7 L 227.1,198.4 L 231.2,197.5 L 235.3,196.3 L 239.4,194.9 L 243.4,192.8 L 247.5,190.7 L 251.6,190.4 L 255.7,189.8 L 259.8,189.3 L 263.8,187.5 L 267.9,187.5 L 272.0,186.9 L 276.1,186.0 L 280.2,185.4 L 284.3,184.2 L 288.3,184.5 L 292.4,181.0 L 296.5,180.7 L 300.6,180.4 L 304.7,179.8 L 308.7,178.0 L 312.8,178.0 L 316.9,176.3 L 321.0,174.2 L 325.1,174.2 L 329.2,174.2 L 333.2,173.9 L 337.3,173.6 L 341.4,173.3 L 345.5,171.9 L 349.6,170.1 L 353.6,169.5 L 357.7,168.3 L 361.8,168.3 L 365.9,167.4 L 370.0,165.7 L 374.1,164.8 L 378.1,164.5 L 382.2,162.4 L 386.3,162.1 L 390.4,162.1 L 394.5,161.8 L 398.5,161.8 L 402.6,160.3 L 406.7,159.8 L 410.8,158.9 L 414.9,158.6 L 419.0,158.0 L 423.0,155.6 L 427.1,152.4 L 431.2,152.1 L 435.3,151.5 L 439.4,151.2 L 443.5,149.7 L 447.5,118.5 L 451.6,117.9 L 455.7,116.4 L 459.8,116.4 L 463.9,116.4 L 467.9,116.7 L 472.0,116.4 L 476.1,114.6 L 480.2,114.0 L 484.3,113.7 L 488.4,113.4 L 492.4,112.3 L 496.5,110.5 L 500.6,110.5 L 504.7,110.5 L 508.8,110.2 L 512.8,109.9 L 516.9,109.9 L 521.0,109.3 L 525.1,108.4 L 529.2,106.9 L 533.3,106.4 L 537.3,106.1 L 541.4,106.1 L 545.5,105.8 L 549.6,105.2 L 553.7,104.9 L 557.7,103.4 L 561.8,103.4 L 565.9,102.8 L 570.0,101.6 L 574.1,100.2 L 578.2,99.9 L 582.2,99.6 L 586.3,96.9 L 590.4,96.3 L 594.5,95.7 L 598.6,95.7 L 602.6,94.6 L 606.7,94.0 L 610.8,92.5 L 614.9,91.9 L 619.0,91.0 L 623.1,90.7 L 627.1,89.5 L 631.2,88.7 L 635.3,88.4 L 639.4,87.8 L 643.5,86.6 L 647.5,86.0 L 651.6,85.1 L 655.7,84.5 L 659.8,84.2 L 663.9,83.6 L 668.0,82.8 L 672.0,82.2 L 676.1,81.6 L 680.2,80.7 L 684.3,80.7 L 688.4,80.1 L 692.4,78.6 L 696.5,77.2 L 700.6,76.3 L 704.7,76.6 L 708.8,76.0 L 712.9,75.7 L 716.9,75.4 L 721.0,74.8 L 725.1,73.3 L 729.2,73.3 L 733.3,73.0 L 737.3,72.1 L 741.4,71.3 L 745.5,70.1 L 749.6,69.5 L 753.7,69.5 L 757.8,68.6 L 761.8,68.0 L 765.9,67.4 L 770.0,66.5 L 770.0,340 Z" fill="url(#g6)" clip-path="url(#ca)"/>
<path d="M 72.0,222.6 L 76.1,222.6 L 80.2,222.3 L 84.2,221.4 L 88.3,221.7 L 92.4,221.7 L 96.5,220.5 L 100.6,219.6 L 104.7,219.6 L 108.7,219.9 L 112.8,219.6 L 116.9,219.3 L 121.0,219.1 L 125.1,219.1 L 129.1,219.1 L 133.2,219.3 L 137.3,218.8 L 141.4,218.2 L 145.5,216.4 L 149.6,215.2 L 153.6,215.2 L 157.7,214.9 L 161.8,213.2 L 165.9,210.5 L 170.0,209.6 L 174.0,209.0 L 178.1,207.0 L 182.2,205.5 L 186.3,204.9 L 190.4,204.3 L 194.5,203.7 L 198.5,203.4 L 202.6,203.4 L 206.7,201.3 L 210.8,200.8 L 214.9,200.2 L 218.9,200.2 L 223.0,198.7 L 227.1,198.4 L 231.2,197.5 L 235.3,196.3 L 239.4,194.9 L 243.4,192.8 L 247.5,190.7 L 251.6,190.4 L 255.7,189.8 L 259.8,189.3 L 263.8,187.5 L 267.9,187.5 L 272.0,186.9 L 276.1,186.0 L 280.2,185.4 L 284.3,184.2 L 288.3,184.5 L 292.4,181.0 L 296.5,180.7 L 300.6,180.4 L 304.7,179.8 L 308.7,178.0 L 312.8,178.0 L 316.9,176.3 L 321.0,174.2 L 325.1,174.2 L 329.2,174.2 L 333.2,173.9 L 337.3,173.6 L 341.4,173.3 L 345.5,171.9 L 349.6,170.1 L 353.6,169.5 L 357.7,168.3 L 361.8,168.3 L 365.9,167.4 L 370.0,165.7 L 374.1,164.8 L 378.1,164.5 L 382.2,162.4 L 386.3,162.1 L 390.4,162.1 L 394.5,161.8 L 398.5,161.8 L 402.6,160.3 L 406.7,159.8 L 410.8,158.9 L 414.9,158.6 L 419.0,158.0 L 423.0,155.6 L 427.1,152.4 L 431.2,152.1 L 435.3,151.5 L 439.4,151.2 L 443.5,149.7 L 447.5,118.5 L 451.6,117.9 L 455.7,116.4 L 459.8,116.4 L 463.9,116.4 L 467.9,116.7 L 472.0,116.4 L 476.1,114.6 L 480.2,114.0 L 484.3,113.7 L 488.4,113.4 L 492.4,112.3 L 496.5,110.5 L 500.6,110.5 L 504.7,110.5 L 508.8,110.2 L 512.8,109.9 L 516.9,109.9 L 521.0,109.3 L 525.1,108.4 L 529.2,106.9 L 533.3,106.4 L 537.3,106.1 L 541.4,106.1 L 545.5,105.8 L 549.6,105.2 L 553.7,104.9 L 557.7,103.4 L 561.8,103.4 L 565.9,102.8 L 570.0,101.6 L 574.1,100.2 L 578.2,99.9 L 582.2,99.6 L 586.3,96.9 L 590.4,96.3 L 594.5,95.7 L 598.6,95.7 L 602.6,94.6 L 606.7,94.0 L 610.8,92.5 L 614.9,91.9 L 619.0,91.0 L 623.1,90.7 L 627.1,89.5 L 631.2,88.7 L 635.3,88.4 L 639.4,87.8 L 643.5,86.6 L 647.5,86.0 L 651.6,85.1 L 655.7,84.5 L 659.8,84.2 L 663.9,83.6 L 668.0,82.8 L 672.0,82.2 L 676.1,81.6 L 680.2,80.7 L 684.3,80.7 L 688.4,80.1 L 692.4,78.6 L 696.5,77.2 L 700.6,76.3 L 704.7,76.6 L 708.8,76.0 L 712.9,75.7 L 716.9,75.4 L 721.0,74.8 L 725.1,73.3 L 729.2,73.3 L 733.3,73.0 L 737.3,72.1 L 741.4,71.3 L 745.5,70.1 L 749.6,69.5 L 753.7,69.5 L 757.8,68.6 L 761.8,68.0 L 765.9,67.4 L 770.0,66.5" fill="none" stroke="#4F8EF7" stroke-width="2.5" stroke-linejoin="round" clip-path="url(#ca)"/>
<path d="M 72.0,340 L 72.0,338.2 L 76.1,337.9 L 80.2,337.9 L 84.2,337.6 L 88.3,337.6 L 92.4,337.6 L 96.5,337.6 L 100.6,337.6 L 104.7,337.1 L 108.7,337.1 L 112.8,337.1 L 116.9,337.1 L 121.0,337.1 L 125.1,336.8 L 129.1,336.8 L 133.2,336.8 L 137.3,336.8 L 141.4,336.8 L 145.5,336.5 L 149.6,335.9 L 153.6,335.6 L 157.7,335.6 L 161.8,335.6 L 165.9,335.3 L 170.0,335.3 L 174.0,335.3 L 178.1,335.0 L 182.2,335.0 L 186.3,335.0 L 190.4,334.7 L 194.5,334.7 L 198.5,334.7 L 202.6,334.7 L 206.7,334.4 L 210.8,334.4 L 214.9,334.4 L 218.9,334.4 L 223.0,334.4 L 227.1,334.4 L 231.2,334.4 L 235.3,334.4 L 239.4,334.4 L 243.4,334.4 L 247.5,334.4 L 251.6,334.4 L 255.7,334.4 L 259.8,334.1 L 263.8,334.1 L 267.9,334.1 L 272.0,334.1 L 276.1,334.1 L 280.2,334.1 L 284.3,334.1 L 288.3,334.1 L 292.4,334.1 L 296.5,334.1 L 300.6,334.1 L 304.7,334.1 L 308.7,333.8 L 312.8,333.8 L 316.9,333.8 L 321.0,333.8 L 325.1,333.8 L 329.2,333.8 L 333.2,333.8 L 337.3,333.8 L 341.4,333.8 L 345.5,333.8 L 349.6,333.8 L 353.6,333.8 L 357.7,333.8 L 361.8,333.8 L 365.9,333.8 L 370.0,333.8 L 374.1,333.8 L 378.1,333.8 L 382.2,333.8 L 386.3,333.8 L 390.4,333.8 L 394.5,333.8 L 398.5,333.8 L 402.6,333.8 L 406.7,333.8 L 410.8,333.8 L 414.9,333.8 L 419.0,333.8 L 423.0,333.8 L 427.1,333.8 L 431.2,333.8 L 435.3,333.8 L 439.4,333.8 L 443.5,333.8 L 447.5,333.8 L 451.6,333.8 L 455.7,333.5 L 459.8,333.5 L 463.9,333.5 L 467.9,333.5 L 472.0,333.5 L 476.1,333.2 L 480.2,333.2 L 484.3,333.2 L 488.4,333.2 L 492.4,332.9 L 496.5,332.9 L 500.6,332.6 L 504.7,332.6 L 508.8,332.6 L 512.8,332.6 L 516.9,332.6 L 521.0,332.6 L 525.1,332.6 L 529.2,332.6 L 533.3,332.6 L 537.3,332.6 L 541.4,332.6 L 545.5,332.6 L 549.6,332.6 L 553.7,332.6 L 557.7,332.6 L 561.8,332.6 L 565.9,332.6 L 570.0,332.6 L 574.1,332.6 L 578.2,332.6 L 582.2,332.6 L 586.3,332.6 L 590.4,332.6 L 594.5,332.6 L 598.6,332.6 L 602.6,332.6 L 606.7,332.6 L 610.8,332.6 L 614.9,332.6 L 619.0,332.6 L 623.1,332.6 L 627.1,332.6 L 631.2,332.6 L 635.3,332.6 L 639.4,332.6 L 643.5,332.6 L 647.5,332.6 L 651.6,332.6 L 655.7,332.6 L 659.8,332.6 L 663.9,332.6 L 668.0,332.6 L 672.0,332.6 L 676.1,332.6 L 680.2,332.6 L 684.3,332.6 L 688.4,332.6 L 692.4,332.6 L 696.5,332.3 L 700.6,332.3 L 704.7,332.3 L 708.8,332.3 L 712.9,332.3 L 716.9,332.3 L 721.0,332.3 L 725.1,332.3 L 729.2,332.3 L 733.3,332.3 L 737.3,332.3 L 741.4,332.0 L 745.5,332.0 L 749.6,332.0 L 753.7,332.0 L 757.8,332.0 L 761.8,332.0 L 765.9,332.0 L 770.0,332.0 L 770.0,340 Z" fill="url(#g7)" clip-path="url(#ca)"/>
<path d="M 72.0,338.2 L 76.1,337.9 L 80.2,337.9 L 84.2,337.6 L 88.3,337.6 L 92.4,337.6 L 96.5,337.6 L 100.6,337.6 L 104.7,337.1 L 108.7,337.1 L 112.8,337.1 L 116.9,337.1 L 121.0,337.1 L 125.1,336.8 L 129.1,336.8 L 133.2,336.8 L 137.3,336.8 L 141.4,336.8 L 145.5,336.5 L 149.6,335.9 L 153.6,335.6 L 157.7,335.6 L 161.8,335.6 L 165.9,335.3 L 170.0,335.3 L 174.0,335.3 L 178.1,335.0 L 182.2,335.0 L 186.3,335.0 L 190.4,334.7 L 194.5,334.7 L 198.5,334.7 L 202.6,334.7 L 206.7,334.4 L 210.8,334.4 L 214.9,334.4 L 218.9,334.4 L 223.0,334.4 L 227.1,334.4 L 231.2,334.4 L 235.3,334.4 L 239.4,334.4 L 243.4,334.4 L 247.5,334.4 L 251.6,334.4 L 255.7,334.4 L 259.8,334.1 L 263.8,334.1 L 267.9,334.1 L 272.0,334.1 L 276.1,334.1 L 280.2,334.1 L 284.3,334.1 L 288.3,334.1 L 292.4,334.1 L 296.5,334.1 L 300.6,334.1 L 304.7,334.1 L 308.7,333.8 L 312.8,333.8 L 316.9,333.8 L 321.0,333.8 L 325.1,333.8 L 329.2,333.8 L 333.2,333.8 L 337.3,333.8 L 341.4,333.8 L 345.5,333.8 L 349.6,333.8 L 353.6,333.8 L 357.7,333.8 L 361.8,333.8 L 365.9,333.8 L 370.0,333.8 L 374.1,333.8 L 378.1,333.8 L 382.2,333.8 L 386.3,333.8 L 390.4,333.8 L 394.5,333.8 L 398.5,333.8 L 402.6,333.8 L 406.7,333.8 L 410.8,333.8 L 414.9,333.8 L 419.0,333.8 L 423.0,333.8 L 427.1,333.8 L 431.2,333.8 L 435.3,333.8 L 439.4,333.8 L 443.5,333.8 L 447.5,333.8 L 451.6,333.8 L 455.7,333.5 L 459.8,333.5 L 463.9,333.5 L 467.9,333.5 L 472.0,333.5 L 476.1,333.2 L 480.2,333.2 L 484.3,333.2 L 488.4,333.2 L 492.4,332.9 L 496.5,332.9 L 500.6,332.6 L 504.7,332.6 L 508.8,332.6 L 512.8,332.6 L 516.9,332.6 L 521.0,332.6 L 525.1,332.6 L 529.2,332.6 L 533.3,332.6 L 537.3,332.6 L 541.4,332.6 L 545.5,332.6 L 549.6,332.6 L 553.7,332.6 L 557.7,332.6 L 561.8,332.6 L 565.9,332.6 L 570.0,332.6 L 574.1,332.6 L 578.2,332.6 L 582.2,332.6 L 586.3,332.6 L 590.4,332.6 L 594.5,332.6 L 598.6,332.6 L 602.6,332.6 L 606.7,332.6 L 610.8,332.6 L 614.9,332.6 L 619.0,332.6 L 623.1,332.6 L 627.1,332.6 L 631.2,332.6 L 635.3,332.6 L 639.4,332.6 L 643.5,332.6 L 647.5,332.6 L 651.6,332.6 L 655.7,332.6 L 659.8,332.6 L 663.9,332.6 L 668.0,332.6 L 672.0,332.6 L 676.1,332.6 L 680.2,332.6 L 684.3,332.6 L 688.4,332.6 L 692.4,332.6 L 696.5,332.3 L 700.6,332.3 L 704.7,332.3 L 708.8,332.3 L 712.9,332.3 L 716.9,332.3 L 721.0,332.3 L 725.1,332.3 L 729.2,332.3 L 733.3,332.3 L 737.3,332.3 L 741.4,332.0 L 745.5,332.0 L 749.6,332.0 L 753.7,332.0 L 757.8,332.0 L 761.8,332.0 L 765.9,332.0 L 770.0,332.0" fill="none" stroke="#FF6363" stroke-width="2.5" stroke-linejoin="round" clip-path="url(#ca)"/>
<text x="94.5" y="55.0" text-anchor="middle" font-size="9" fill="#34C759" opacity="0.85" clip-path="url(#ca)">+15.2% (+50)</text>
<text x="94.5" y="66.0" text-anchor="middle" font-size="9" fill="#4F8EF7" opacity="0.85" clip-path="url(#ca)">+2.8% (+11)</text>
<text x="94.5" y="77.0" text-anchor="middle" font-size="9" fill="#FF6363" opacity="0.85" clip-path="url(#ca)">+66.7% (+4)</text>
<text x="172.0" y="55.0" text-anchor="middle" font-size="9" fill="#34C759" opacity="0.85" clip-path="url(#ca)">+20.1% (+77)</text>
<text x="172.0" y="66.0" text-anchor="middle" font-size="9" fill="#4F8EF7" opacity="0.85" clip-path="url(#ca)">+16.8% (+69)</text>
<text x="172.0" y="77.0" text-anchor="middle" font-size="9" fill="#FF6363" opacity="0.85" clip-path="url(#ca)">+90.0% (+9)</text>
<text x="280.2" y="55.0" text-anchor="middle" font-size="9" fill="#34C759" opacity="0.85" clip-path="url(#ca)">+16.1% (+74)</text>
<text x="280.2" y="66.0" text-anchor="middle" font-size="9" fill="#4F8EF7" opacity="0.85" clip-path="url(#ca)">+17.3% (+83)</text>
<text x="280.2" y="77.0" text-anchor="middle" font-size="9" fill="#FF6363" opacity="0.85" clip-path="url(#ca)">+10.5% (+2)</text>
<text x="390.4" y="55.0" text-anchor="middle" font-size="9" fill="#34C759" opacity="0.85" clip-path="url(#ca)">+10.5% (+56)</text>
<text x="390.4" y="66.0" text-anchor="middle" font-size="9" fill="#4F8EF7" opacity="0.85" clip-path="url(#ca)">+14.4% (+81)</text>
<text x="390.4" y="77.0" text-anchor="middle" font-size="9" fill="#FF6363" opacity="0.85" clip-path="url(#ca)">+0.0% (+0)</text>
<text x="500.6" y="55.0" text-anchor="middle" font-size="9" fill="#34C759" opacity="0.85" clip-path="url(#ca)">+6.2% (+37)</text>
<text x="500.6" y="66.0" text-anchor="middle" font-size="9" fill="#4F8EF7" opacity="0.85" clip-path="url(#ca)">+6.1% (+46)</text>
<text x="500.6" y="77.0" text-anchor="middle" font-size="9" fill="#FF6363" opacity="0.85" clip-path="url(#ca)">+19.0% (+4)</text>
<text x="608.8" y="55.0" text-anchor="middle" font-size="9" fill="#34C759" opacity="0.85" clip-path="url(#ca)">+8.1% (+51)</text>
<text x="608.8" y="66.0" text-anchor="middle" font-size="9" fill="#4F8EF7" opacity="0.85" clip-path="url(#ca)">+8.1% (+65)</text>
<text x="608.8" y="77.0" text-anchor="middle" font-size="9" fill="#FF6363" opacity="0.85" clip-path="url(#ca)">+0.0% (+0)</text>
<text x="710.8" y="55.0" text-anchor="middle" font-size="9" fill="#34C759" opacity="0.85" clip-path="url(#ca)">+7.6% (+52)</text>
<text x="710.8" y="66.0" text-anchor="middle" font-size="9" fill="#4F8EF7" opacity="0.85" clip-path="url(#ca)">+5.9% (+51)</text>
<text x="710.8" y="77.0" text-anchor="middle" font-size="9" fill="#FF6363" opacity="0.85" clip-path="url(#ca)">+8.0% (+2)</text>
<text x="765.9" y="55.0" text-anchor="middle" font-size="9" fill="#34C759" opacity="0.85" clip-path="url(#ca)">+0.3% (+2)</text>
<text x="765.9" y="66.0" text-anchor="middle" font-size="9" fill="#4F8EF7" opacity="0.85" clip-path="url(#ca)">+0.5% (+5)</text>
<text x="765.9" y="77.0" text-anchor="middle" font-size="9" fill="#FF6363" opacity="0.85" clip-path="url(#ca)">+0.0% (+0)</text>
<rect x="211" y="369" width="12" height="12" fill="#34C759" rx="2"/>
<text x="227" y="379" font-size="12" fill="#111827">macOS + Windows</text>
<rect x="351" y="369" width="12" height="12" fill="#4F8EF7" rx="2"/>
<text x="367" y="379" font-size="12" fill="#111827">macOS only</text>
<rect x="491" y="369" width="12" height="12" fill="#FF6363" rx="2"/>
<text x="507" y="379" font-size="12" fill="#111827">Windows only</text>
<text x="72" y="394" font-size="8" fill="#e5e7eb">data since Dec 11, 2025</text>
</svg>