<svg xmlns="http://www.w3.org/2000/svg" width="800" height="400" viewBox="0 0 800 400">
<defs>
  <style>text { font-family: -apple-system, BlinkMacSystemFont, 'Segoe UI', Roboto, sans-serif; }</style>
  <linearGradient id="g5" x1="0" y1="0" x2="0" y2="1">
  <stop offset="0%" stop-color="#34C759" stop-opacity="0.25"/>
  <stop offset="100%" stop-color="#34C759" stop-opacity="0"/>
</linearGradient>
<linearGradient id="g6" x1="0" y1="0" x2="0" y2="1">
  <stop offset="0%" stop-color="#4F8EF7" stop-opacity="0.25"/>
  <stop offset="100%" stop-color="#4F8EF7" stop-opacity="0"/>
</linearGradient>
<linearGradient id="g7" x1="0" y1="0" x2="0" y2="1">
  <stop offset="0%" stop-color="#FF6363" stop-opacity="0.25"/>
  <stop offset="100%" stop-color="#FF6363" stop-opacity="0"/>
</linearGradient>
  <clipPath id="ca"><rect x="72" y="45" width="698" height="295"/></clipPath>
</defs>
<rect width="800" height="400" fill="#ffffff" rx="12"/>
<text x="400" y="26" text-anchor="middle" font-size="15" font-weight="600" fill="#111827">Platform Support Over Time</text>
<line x1="72" y1="340.0" x2="770" y2="340.0" stroke="#f3f4f6" stroke-width="1"/>
<text x="66" y="344.0" text-anchor="end" font-size="11" fill="#6b7280">0</text>
<line x1="72" y1="281.0" x2="770" y2="281.0" stroke="#f3f4f6" stroke-width="1"/>
<text x="66" y="285.0" text-anchor="end" font-size="11" fill="#6b7280">200</text>
<line x1="72" y1="222.0" x2="770" y2="222.0" stroke="#f3f4f6" stroke-width="1"/>
<text x="66" y="226.0" text-anchor="end" font-size="11" fill="#6b7280">400</text>
<line x1="72" y1="163.0" x2="770" y2="163.0" stroke="#f3f4f6" stroke-width="1"/>
<text x="66" y="167.0" text-anchor="end" font-size="11" fill="#6b7280">600</text>
<line x1="72" y1="104.0" x2="770" y2="104.0" stroke="#f3f4f6" stroke-width="1"/>
<text x="66" y="108.0" text-anchor="end" font-size="11" fill="#6b7280">800</text>
<line x1="72" y1="45.0" x2="770" y2="45.0" stroke="#f3f4f6" stroke-width="1"/>
<text x="66" y="49.0" text-anchor="end" font-size="11" fill="#6b7280">1.0k</text>
<line x1="125.0" y1="45" x2="125.0" y2="340" stroke="#e5e7eb" stroke-width="1" stroke-dasharray="3,3" clip-path="url(#ca)"/>
<line x1="239.9" y1="45" x2="239.9" y2="340" stroke="#e5e7eb" stroke-width="1" stroke-dasharray="3,3" clip-path="url(#ca)"/>
<line x1="359.2" y1="45" x2="359.2" y2="340" stroke="#e5e7eb" stroke-width="1" stroke-dasharray="3,3" clip-path="url(#ca)"/>
<line x1="478.4" y1="45" x2="478.4" y2="340" stroke="#e5e7eb" stroke-width="1" stroke-dasharray="3,3" clip-path="url(#ca)"/>
<line x1="597.7" y1="45" x2="597.7" y2="340" stroke="#e5e7eb" stroke-width="1" stroke-dasharray="3,3" clip-path="url(#ca)"/>
<line x1="712.6" y1="45" x2="712.6" y2="340" stroke="#e5e7eb" stroke-width="1" stroke-dasharray="3,3" clip-path="url(#ca)"/>
<text x="72.0" y="358.0" text-anchor="middle" font-size="11" fill="#6b7280">Dec 11</text>
<text x="213.4" y="358.0" text-anchor="middle" font-size="11" fill="#6b7280">Jan 26</text>
<text x="350.3" y="358.0" text-anchor="middle" font-size="11" fill="#6b7280">Feb 27</text>
<text x="491.7" y="358.0" text-anchor="middle" font-size="11" fill="#6b7280">Apr 4</text>
<text x="628.6" y="358.0" text-anchor="middle" font-size="11" fill="#6b7280">May 12</text>
<text x="770.0" y="358.0" text-anchor="middle" font-size="11" fill="#6b7280">Jun 18</text>
<line x1="72" y1="45" x2="72" y2="340" stroke="#e5e7eb" stroke-width="1"/>
<line x1="72" y1="340" x2="770" y2="340" stroke="#e5e7eb" stroke-width="1"/>
<text x="-192.5" y="18" text-anchor="middle" font-size="12" fill="#6b7280" transform="rotate(-90)">Extensions</text>
<path d="M 72.0,340 L 72.0,242.6 L 76.4,240.0 L 80.8,239.7 L 85.3,238.5 L 89.7,237.9 L 94.1,235.0 L 98.5,233.2 L 102.9,232.3 L 107.3,230.8 L 111.8,229.1 L 116.2,228.2 L 120.6,227.9 L 125.0,227.0 L 129.4,226.4 L 133.8,226.1 L 138.3,225.2 L 142.7,224.4 L 147.1,223.5 L 151.5,222.6 L 155.9,221.4 L 160.4,220.5 L 164.8,219.6 L 169.2,218.8 L 173.6,217.0 L 178.0,216.4 L 182.4,216.4 L 186.9,214.3 L 191.3,213.7 L 195.7,213.2 L 200.1,212.6 L 204.5,211.1 L 208.9,209.0 L 213.4,208.7 L 217.8,208.4 L 222.2,206.7 L 226.6,206.1 L 231.0,204.6 L 235.5,204.3 L 239.9,204.0 L 244.3,203.4 L 248.7,203.4 L 253.1,203.4 L 257.5,199.3 L 262.0,199.0 L 266.4,198.1 L 270.8,197.8 L 275.2,197.5 L 279.6,196.6 L 284.1,196.0 L 288.5,195.4 L 292.9,193.7 L 297.3,193.7 L 301.7,193.7 L 306.1,193.4 L 310.6,190.4 L 315.0,189.6 L 319.4,189.0 L 323.8,188.1 L 328.2,187.5 L 332.6,187.5 L 337.1,186.0 L 341.5,183.9 L 345.9,183.4 L 350.3,183.1 L 354.7,182.2 L 359.2,182.2 L 363.6,181.6 L 368.0,180.7 L 372.4,180.1 L 376.8,178.9 L 381.2,177.8 L 385.7,177.5 L 390.1,177.5 L 394.5,176.3 L 398.9,176.3 L 403.3,176.3 L 407.7,174.5 L 412.2,174.2 L 416.6,173.9 L 421.0,173.9 L 425.4,173.6 L 429.8,172.4 L 434.3,171.9 L 438.7,171.0 L 443.1,171.0 L 447.5,170.7 L 451.9,169.5 L 456.3,168.6 L 460.8,168.6 L 465.2,168.3 L 469.6,167.7 L 474.0,165.7 L 478.4,165.1 L 482.8,164.2 L 487.3,164.2 L 491.7,163.6 L 496.1,163.3 L 500.5,163.0 L 504.9,162.7 L 509.4,162.4 L 513.8,162.4 L 518.2,162.1 L 522.6,161.8 L 527.0,160.9 L 531.4,159.8 L 535.9,159.5 L 540.3,158.6 L 544.7,158.6 L 549.1,157.4 L 553.5,157.1 L 557.9,157.1 L 562.4,157.1 L 566.8,156.2 L 571.2,155.9 L 575.6,155.9 L 580.0,155.9 L 584.5,155.6 L 588.9,154.4 L 593.3,154.2 L 597.7,153.3 L 602.1,152.7 L 606.5,152.7 L 611.0,151.8 L 615.4,151.2 L 619.8,151.2 L 624.2,150.9 L 628.6,149.4 L 633.1,148.0 L 637.5,147.7 L 641.9,147.1 L 646.3,145.9 L 650.7,145.9 L 655.1,145.3 L 659.6,143.8 L 664.0,141.2 L 668.4,140.3 L 672.8,140.3 L 677.2,140.3 L 681.6,140.3 L 686.1,140.3 L 690.5,139.1 L 694.9,138.2 L 699.3,138.2 L 703.7,138.2 L 708.2,138.2 L 712.6,137.3 L 717.0,137.3 L 721.4,136.5 L 725.8,135.6 L 730.2,135.3 L 734.7,135.0 L 739.1,134.4 L 743.5,134.4 L 747.9,133.5 L 752.3,132.3 L 756.7,131.4 L 761.2,129.7 L 765.6,129.1 L 770.0,128.8 L 770.0,340 Z" fill="url(#g5)" clip-path="url(#ca)"/>
<path d="M 72.0,242.6 L 76.4,240.0 L 80.8,239.7 L 85.3,238.5 L 89.7,237.9 L 94.1,235.0 L 98.5,233.2 L 102.9,232.3 L 107.3,230.8 L 111.8,229.1 L 116.2,228.2 L 120.6,227.9 L 125.0,227.0 L 129.4,226.4 L 133.8,226.1 L 138.3,225.2 L 142.7,224.4 L 147.1,223.5 L 151.5,222.6 L 155.9,221.4 L 160.4,220.5 L 164.8,219.6 L 169.2,218.8 L 173.6,217.0 L 178.0,216.4 L 182.4,216.4 L 186.9,214.3 L 191.3,213.7 L 195.7,213.2 L 200.1,212.6 L 204.5,211.1 L 208.9,209.0 L 213.4,208.7 L 217.8,208.4 L 222.2,206.7 L 226.6,206.1 L 231.0,204.6 L 235.5,204.3 L 239.9,204.0 L 244.3,203.4 L 248.7,203.4 L 253.1,203.4 L 257.5,199.3 L 262.0,199.0 L 266.4,198.1 L 270.8,197.8 L 275.2,197.5 L 279.6,196.6 L 284.1,196.0 L 288.5,195.4 L 292.9,193.7 L 297.3,193.7 L 301.7,193.7 L 306.1,193.4 L 310.6,190.4 L 315.0,189.6 L 319.4,189.0 L 323.8,188.1 L 328.2,187.5 L 332.6,187.5 L 337.1,186.0 L 341.5,183.9 L 345.9,183.4 L 350.3,183.1 L 354.7,182.2 L 359.2,182.2 L 363.6,181.6 L 368.0,180.7 L 372.4,180.1 L 376.8,178.9 L 381.2,177.8 L 385.7,177.5 L 390.1,177.5 L 394.5,176.3 L 398.9,176.3 L 403.3,176.3 L 407.7,174.5 L 412.2,174.2 L 416.6,173.9 L 421.0,173.9 L 425.4,173.6 L 429.8,172.4 L 434.3,171.9 L 438.7,171.0 L 443.1,171.0 L 447.5,170.7 L 451.9,169.5 L 456.3,168.6 L 460.8,168.6 L 465.2,168.3 L 469.6,167.7 L 474.0,165.7 L 478.4,165.1 L 482.8,164.2 L 487.3,164.2 L 491.7,163.6 L 496.1,163.3 L 500.5,163.0 L 504.9,162.7 L 509.4,162.4 L 513.8,162.4 L 518.2,162.1 L 522.6,161.8 L 527.0,160.9 L 531.4,159.8 L 535.9,159.5 L 540.3,158.6 L 544.7,158.6 L 549.1,157.4 L 553.5,157.1 L 557.9,157.1 L 562.4,157.1 L 566.8,156.2 L 571.2,155.9 L 575.6,155.9 L 580.0,155.9 L 584.5,155.6 L 588.9,154.4 L 593.3,154.2 L 597.7,153.3 L 602.1,152.7 L 606.5,152.7 L 611.0,151.8 L 615.4,151.2 L 619.8,151.2 L 624.2,150.9 L 628.6,149.4 L 633.1,148.0 L 637.5,147.7 L 641.9,147.1 L 646.3,145.9 L 650.7,145.9 L 655.1,145.3 L 659.6,143.8 L 664.0,141.2 L 668.4,140.3 L 672.8,140.3 L 677.2,140.3 L 681.6,140.3 L 686.1,140.3 L 690.5,139.1 L 694.9,138.2 L 699.3,138.2 L 703.7,138.2 L 708.2,138.2 L 712.6,137.3 L 717.0,137.3 L 721.4,136.5 L 725.8,135.6 L 730.2,135.3 L 734.7,135.0 L 739.1,134.4 L 743.5,134.4 L 747.9,133.5 L 752.3,132.3 L 756.7,131.4 L 761.2,129.7 L 765.6,129.1 L 770.0,128.8" fill="none" stroke="#34C759" stroke-width="2.5" stroke-linejoin="round" clip-path="url(#ca)"/>
<path d="M 72.0,340 L 72.0,222.6 L 76.4,222.6 L 80.8,222.3 L 85.3,221.4 L 89.7,221.7 L 94.1,221.7 L 98.5,220.5 L 102.9,219.6 L 107.3,219.6 L 111.8,219.9 L 116.2,219.6 L 120.6,219.3 L 125.0,219.1 L 129.4,219.1 L 133.8,219.1 L 138.3,219.3 L 142.7,218.8 L 147.1,218.2 L 151.5,216.4 L 155.9,215.2 L 160.4,215.2 L 164.8,214.9 L 169.2,213.2 L 173.6,210.5 L 178.0,209.6 L 182.4,209.0 L 186.9,207.0 L 191.3,205.5 L 195.7,204.9 L 200.1,204.3 L 204.5,203.7 L 208.9,203.4 L 213.4,203.4 L 217.8,201.3 L 222.2,200.8 L 226.6,200.2 L 231.0,200.2 L 235.5,198.7 L 239.9,198.4 L 244.3,197.5 L 248.7,196.3 L 253.1,194.9 L 257.5,192.8 L 262.0,190.7 L 266.4,190.4 L 270.8,189.8 L 275.2,189.3 L 279.6,187.5 L 284.1,187.5 L 288.5,186.9 L 292.9,186.0 L 297.3,185.4 L 301.7,184.2 L 306.1,184.5 L 310.6,181.0 L 315.0,180.7 L 319.4,180.4 L 323.8,179.8 L 328.2,178.0 L 332.6,178.0 L 337.1,176.3 L 341.5,174.2 L 345.9,174.2 L 350.3,174.2 L 354.7,173.9 L 359.2,173.6 L 363.6,173.3 L 368.0,171.9 L 372.4,170.1 L 376.8,169.5 L 381.2,168.3 L 385.7,168.3 L 390.1,167.4 L 394.5,165.7 L 398.9,164.8 L 403.3,164.5 L 407.7,162.4 L 412.2,162.1 L 416.6,162.1 L 421.0,161.8 L 425.4,161.8 L 429.8,160.3 L 434.3,159.8 L 438.7,158.9 L 443.1,158.6 L 447.5,158.0 L 451.9,155.6 L 456.3,152.4 L 460.8,152.1 L 465.2,151.5 L 469.6,151.2 L 474.0,149.7 L 478.4,118.5 L 482.8,117.9 L 487.3,116.4 L 491.7,116.4 L 496.1,116.4 L 500.5,116.7 L 504.9,116.4 L 509.4,114.6 L 513.8,114.0 L 518.2,113.7 L 522.6,113.4 L 527.0,112.3 L 531.4,110.5 L 535.9,110.5 L 540.3,110.5 L 544.7,110.2 L 549.1,109.9 L 553.5,109.9 L 557.9,109.3 L 562.4,108.4 L 566.8,106.9 L 571.2,106.4 L 575.6,106.1 L 580.0,106.1 L 584.5,105.8 L 588.9,105.2 L 593.3,104.9 L 597.7,103.4 L 602.1,103.4 L 606.5,102.8 L 611.0,101.6 L 615.4,100.2 L 619.8,99.9 L 624.2,99.6 L 628.6,96.9 L 633.1,96.3 L 637.5,95.7 L 641.9,95.7 L 646.3,94.6 L 650.7,94.0 L 655.1,92.5 L 659.6,91.9 L 664.0,91.0 L 668.4,90.7 L 672.8,89.5 L 677.2,88.7 L 681.6,88.4 L 686.1,87.8 L 690.5,86.6 L 694.9,86.0 L 699.3,85.1 L 703.7,84.5 L 708.2,84.2 L 712.6,83.6 L 717.0,82.8 L 721.4,82.2 L 725.8,81.6 L 730.2,80.7 L 734.7,80.7 L 739.1,80.1 L 743.5,78.6 L 747.9,77.2 L 752.3,76.3 L 756.7,76.6 L 761.2,76.0 L 765.6,75.7 L 770.0,75.4 L 770.0,340 Z" fill="url(#g6)" clip-path="url(#ca)"/>
<path d="M 72.0,222.6 L 76.4,222.6 L 80.8,222.3 L 85.3,221.4 L 89.7,221.7 L 94.1,221.7 L 98.5,220.5 L 102.9,219.6 L 107.3,219.6 L 111.8,219.9 L 116.2,219.6 L 120.6,219.3 L 125.0,219.1 L 129.4,219.1 L 133.8,219.1 L 138.3,219.3 L 142.7,218.8 L 147.1,218.2 L 151.5,216.4 L 155.9,215.2 L 160.4,215.2 L 164.8,214.9 L 169.2,213.2 L 173.6,210.5 L 178.0,209.6 L 182.4,209.0 L 186.9,207.0 L 191.3,205.5 L 195.7,204.9 L 200.1,204.3 L 204.5,203.7 L 208.9,203.4 L 213.4,203.4 L 217.8,201.3 L 222.2,200.8 L 226.6,200.2 L 231.0,200.2 L 235.5,198.7 L 239.9,198.4 L 244.3,197.5 L 248.7,196.3 L 253.1,194.9 L 257.5,192.8 L 262.0,190.7 L 266.4,190.4 L 270.8,189.8 L 275.2,189.3 L 279.6,187.5 L 284.1,187.5 L 288.5,186.9 L 292.9,186.0 L 297.3,185.4 L 301.7,184.2 L 306.1,184.5 L 310.6,181.0 L 315.0,180.7 L 319.4,180.4 L 323.8,179.8 L 328.2,178.0 L 332.6,178.0 L 337.1,176.3 L 341.5,174.2 L 345.9,174.2 L 350.3,174.2 L 354.7,173.9 L 359.2,173.6 L 363.6,173.3 L 368.0,171.9 L 372.4,170.1 L 376.8,169.5 L 381.2,168.3 L 385.7,168.3 L 390.1,167.4 L 394.5,165.7 L 398.9,164.8 L 403.3,164.5 L 407.7,162.4 L 412.2,162.1 L 416.6,162.1 L 421.0,161.8 L 425.4,161.8 L 429.8,160.3 L 434.3,159.8 L 438.7,158.9 L 443.1,158.6 L 447.5,158.0 L 451.9,155.6 L 456.3,152.4 L 460.8,152.1 L 465.2,151.5 L 469.6,151.2 L 474.0,149.7 L 478.4,118.5 L 482.8,117.9 L 487.3,116.4 L 491.7,116.4 L 496.1,116.4 L 500.5,116.7 L 504.9,116.4 L 509.4,114.6 L 513.8,114.0 L 518.2,113.7 L 522.6,113.4 L 527.0,112.3 L 531.4,110.5 L 535.9,110.5 L 540.3,110.5 L 544.7,110.2 L 549.1,109.9 L 553.5,109.9 L 557.9,109.3 L 562.4,108.4 L 566.8,106.9 L 571.2,106.4 L 575.6,106.1 L 580.0,106.1 L 584.5,105.8 L 588.9,105.2 L 593.3,104.9 L 597.7,103.4 L 602.1,103.4 L 606.5,102.8 L 611.0,101.6 L 615.4,100.2 L 619.8,99.9 L 624.2,99.6 L 628.6,96.9 L 633.1,96.3 L 637.5,95.7 L 641.9,95.7 L 646.3,94.6 L 650.7,94.0 L 655.1,92.5 L 659.6,91.9 L 664.0,91.0 L 668.4,90.7 L 672.8,89.5 L 677.2,88.7 L 681.6,88.4 L 686.1,87.8 L 690.5,86.6 L 694.9,86.0 L 699.3,85.1 L 703.7,84.5 L 708.2,84.2 L 712.6,83.6 L 717.0,82.8 L 721.4,82.2 L 725.8,81.6 L 730.2,80.7 L 734.7,80.7 L 739.1,80.1 L 743.5,78.6 L 747.9,77.2 L 752.3,76.3 L 756.7,76.6 L 761.2,76.0 L 765.6,75.7 L 770.0,75.4" fill="none" stroke="#4F8EF7" stroke-width="2.5" stroke-linejoin="round" clip-path="url(#ca)"/>
<path d="M 72.0,340 L 72.0,338.2 L 76.4,337.9 L 80.8,337.9 L 85.3,337.6 L 89.7,337.6 L 94.1,337.6 L 98.5,337.6 L 102.9,337.6 L 107.3,337.1 L 111.8,337.1 L 116.2,337.1 L 120.6,337.1 L 125.0,337.1 L 129.4,336.8 L 133.8,336.8 L 138.3,336.8 L 142.7,336.8 L 147.1,336.8 L 151.5,336.5 L 155.9,335.9 L 160.4,335.6 L 164.8,335.6 L 169.2,335.6 L 173.6,335.3 L 178.0,335.3 L 182.4,335.3 L 186.9,335.0 L 191.3,335.0 L 195.7,335.0 L 200.1,334.7 L 204.5,334.7 L 208.9,334.7 L 213.4,334.7 L 217.8,334.4 L 222.2,334.4 L 226.6,334.4 L 231.0,334.4 L 235.5,334.4 L 239.9,334.4 L 244.3,334.4 L 248.7,334.4 L 253.1,334.4 L 257.5,334.4 L 262.0,334.4 L 266.4,334.4 L 270.8,334.4 L 275.2,334.1 L 279.6,334.1 L 284.1,334.1 L 288.5,334.1 L 292.9,334.1 L 297.3,334.1 L 301.7,334.1 L 306.1,334.1 L 310.6,334.1 L 315.0,334.1 L 319.4,334.1 L 323.8,334.1 L 328.2,333.8 L 332.6,333.8 L 337.1,333.8 L 341.5,333.8 L 345.9,333.8 L 350.3,333.8 L 354.7,333.8 L 359.2,333.8 L 363.6,333.8 L 368.0,333.8 L 372.4,333.8 L 376.8,333.8 L 381.2,333.8 L 385.7,333.8 L 390.1,333.8 L 394.5,333.8 L 398.9,333.8 L 403.3,333.8 L 407.7,333.8 L 412.2,333.8 L 416.6,333.8 L 421.0,333.8 L 425.4,333.8 L 429.8,333.8 L 434.3,333.8 L 438.7,333.8 L 443.1,333.8 L 447.5,333.8 L 451.9,333.8 L 456.3,333.8 L 460.8,333.8 L 465.2,333.8 L 469.6,333.8 L 474.0,333.8 L 478.4,333.8 L 482.8,333.8 L 487.3,333.5 L 491.7,333.5 L 496.1,333.5 L 500.5,333.5 L 504.9,333.5 L 509.4,333.2 L 513.8,333.2 L 518.2,333.2 L 522.6,333.2 L 527.0,332.9 L 531.4,332.9 L 535.9,332.6 L 540.3,332.6 L 544.7,332.6 L 549.1,332.6 L 553.5,332.6 L 557.9,332.6 L 562.4,332.6 L 566.8,332.6 L 571.2,332.6 L 575.6,332.6 L 580.0,332.6 L 584.5,332.6 L 588.9,332.6 L 593.3,332.6 L 597.7,332.6 L 602.1,332.6 L 606.5,332.6 L 611.0,332.6 L 615.4,332.6 L 619.8,332.6 L 624.2,332.6 L 628.6,332.6 L 633.1,332.6 L 637.5,332.6 L 641.9,332.6 L 646.3,332.6 L 650.7,332.6 L 655.1,332.6 L 659.6,332.6 L 664.0,332.6 L 668.4,332.6 L 672.8,332.6 L 677.2,332.6 L 681.6,332.6 L 686.1,332.6 L 690.5,332.6 L 694.9,332.6 L 699.3,332.6 L 703.7,332.6 L 708.2,332.6 L 712.6,332.6 L 717.0,332.6 L 721.4,332.6 L 725.8,332.6 L 730.2,332.6 L 734.7,332.6 L 739.1,332.6 L 743.5,332.6 L 747.9,332.3 L 752.3,332.3 L 756.7,332.3 L 761.2,332.3 L 765.6,332.3 L 770.0,332.3 L 770.0,340 Z" fill="url(#g7)" clip-path="url(#ca)"/>
<path d="M 72.0,338.2 L 76.4,337.9 L 80.8,337.9 L 85.3,337.6 L 89.7,337.6 L 94.1,337.6 L 98.5,337.6 L 102.9,337.6 L 107.3,337.1 L 111.8,337.1 L 116.2,337.1 L 120.6,337.1 L 125.0,337.1 L 129.4,336.8 L 133.8,336.8 L 138.3,336.8 L 142.7,336.8 L 147.1,336.8 L 151.5,336.5 L 155.9,335.9 L 160.4,335.6 L 164.8,335.6 L 169.2,335.6 L 173.6,335.3 L 178.0,335.3 L 182.4,335.3 L 186.9,335.0 L 191.3,335.0 L 195.7,335.0 L 200.1,334.7 L 204.5,334.7 L 208.9,334.7 L 213.4,334.7 L 217.8,334.4 L 222.2,334.4 L 226.6,334.4 L 231.0,334.4 L 235.5,334.4 L 239.9,334.4 L 244.3,334.4 L 248.7,334.4 L 253.1,334.4 L 257.5,334.4 L 262.0,334.4 L 266.4,334.4 L 270.8,334.4 L 275.2,334.1 L 279.6,334.1 L 284.1,334.1 L 288.5,334.1 L 292.9,334.1 L 297.3,334.1 L 301.7,334.1 L 306.1,334.1 L 310.6,334.1 L 315.0,334.1 L 319.4,334.1 L 323.8,334.1 L 328.2,333.8 L 332.6,333.8 L 337.1,333.8 L 341.5,333.8 L 345.9,333.8 L 350.3,333.8 L 354.7,333.8 L 359.2,333.8 L 363.6,333.8 L 368.0,333.8 L 372.4,333.8 L 376.8,333.8 L 381.2,333.8 L 385.7,333.8 L 390.1,333.8 L 394.5,333.8 L 398.9,333.8 L 403.3,333.8 L 407.7,333.8 L 412.2,333.8 L 416.6,333.8 L 421.0,333.8 L 425.4,333.8 L 429.8,333.8 L 434.3,333.8 L 438.7,333.8 L 443.1,333.8 L 447.5,333.8 L 451.9,333.8 L 456.3,333.8 L 460.8,333.8 L 465.2,333.8 L 469.6,333.8 L 474.0,333.8 L 478.4,333.8 L 482.8,333.8 L 487.3,333.5 L 491.7,333.5 L 496.1,333.5 L 500.5,333.5 L 504.9,333.5 L 509.4,333.2 L 513.8,333.2 L 518.2,333.2 L 522.6,333.2 L 527.0,332.9 L 531.4,332.9 L 535.9,332.6 L 540.3,332.6 L 544.7,332.6 L 549.1,332.6 L 553.5,332.6 L 557.9,332.6 L 562.4,332.6 L 566.8,332.6 L 571.2,332.6 L 575.6,332.6 L 580.0,332.6 L 584.5,332.6 L 588.9,332.6 L 593.3,332.6 L 597.7,332.6 L 602.1,332.6 L 606.5,332.6 L 611.0,332.6 L 615.4,332.6 L 619.8,332.6 L 624.2,332.6 L 628.6,332.6 L 633.1,332.6 L 637.5,332.6 L 641.9,332.6 L 646.3,332.6 L 650.7,332.6 L 655.1,332.6 L 659.6,332.6 L 664.0,332.6 L 668.4,332.6 L 672.8,332.6 L 677.2,332.6 L 681.6,332.6 L 686.1,332.6 L 690.5,332.6 L 694.9,332.6 L 699.3,332.6 L 703.7,332.6 L 708.2,332.6 L 712.6,332.6 L 717.0,332.6 L 721.4,332.6 L 725.8,332.6 L 730.2,332.6 L 734.7,332.6 L 739.1,332.6 L 743.5,332.6 L 747.9,332.3 L 752.3,332.3 L 756.7,332.3 L 761.2,332.3 L 765.6,332.3 L 770.0,332.3" fill="none" stroke="#FF6363" stroke-width="2.5" stroke-linejoin="round" clip-path="url(#ca)"/>
<text x="96.3" y="55.0" text-anchor="middle" font-size="9" fill="#34C759" opacity="0.85" clip-path="url(#ca)">+15.2% (+50)</text>
<text x="96.3" y="66.0" text-anchor="middle" font-size="9" fill="#4F8EF7" opacity="0.85" clip-path="url(#ca)">+2.8% (+11)</text>
<text x="96.3" y="77.0" text-anchor="middle" font-size="9" fill="#FF6363" opacity="0.85" clip-path="url(#ca)">+66.7% (+4)</text>
<text x="180.2" y="55.0" text-anchor="middle" font-size="9" fill="#34C759" opacity="0.85" clip-path="url(#ca)">+20.1% (+77)</text>
<text x="180.2" y="66.0" text-anchor="middle" font-size="9" fill="#4F8EF7" opacity="0.85" clip-path="url(#ca)">+16.8% (+69)</text>
<text x="180.2" y="77.0" text-anchor="middle" font-size="9" fill="#FF6363" opacity="0.85" clip-path="url(#ca)">+90.0% (+9)</text>
<text x="297.3" y="55.0" text-anchor="middle" font-size="9" fill="#34C759" opacity="0.85" clip-path="url(#ca)">+16.1% (+74)</text>
<text x="297.3" y="66.0" text-anchor="middle" font-size="9" fill="#4F8EF7" opacity="0.85" clip-path="url(#ca)">+17.3% (+83)</text>
<text x="297.3" y="77.0" text-anchor="middle" font-size="9" fill="#FF6363" opacity="0.85" clip-path="url(#ca)">+10.5% (+2)</text>
<text x="416.6" y="55.0" text-anchor="middle" font-size="9" fill="#34C759" opacity="0.85" clip-path="url(#ca)">+10.5% (+56)</text>
<text x="416.6" y="66.0" text-anchor="middle" font-size="9" fill="#4F8EF7" opacity="0.85" clip-path="url(#ca)">+14.4% (+81)</text>
<text x="416.6" y="77.0" text-anchor="middle" font-size="9" fill="#FF6363" opacity="0.85" clip-path="url(#ca)">+0.0% (+0)</text>
<text x="535.9" y="55.0" text-anchor="middle" font-size="9" fill="#34C759" opacity="0.85" clip-path="url(#ca)">+6.2% (+37)</text>
<text x="535.9" y="66.0" text-anchor="middle" font-size="9" fill="#4F8EF7" opacity="0.85" clip-path="url(#ca)">+6.1% (+46)</text>
<text x="535.9" y="77.0" text-anchor="middle" font-size="9" fill="#FF6363" opacity="0.85" clip-path="url(#ca)">+19.0% (+4)</text>
<text x="652.9" y="55.0" text-anchor="middle" font-size="9" fill="#34C759" opacity="0.85" clip-path="url(#ca)">+8.1% (+51)</text>
<text x="652.9" y="66.0" text-anchor="middle" font-size="9" fill="#4F8EF7" opacity="0.85" clip-path="url(#ca)">+8.1% (+65)</text>
<text x="652.9" y="77.0" text-anchor="middle" font-size="9" fill="#FF6363" opacity="0.85" clip-path="url(#ca)">+0.0% (+0)</text>
<text x="741.3" y="55.0" text-anchor="middle" font-size="9" fill="#34C759" opacity="0.85" clip-path="url(#ca)">+4.2% (+29)</text>
<text x="741.3" y="66.0" text-anchor="middle" font-size="9" fill="#4F8EF7" opacity="0.85" clip-path="url(#ca)">+3.2% (+28)</text>
<text x="741.3" y="77.0" text-anchor="middle" font-size="9" fill="#FF6363" opacity="0.85" clip-path="url(#ca)">+4.0% (+1)</text>
<rect x="211" y="369" width="12" height="12" fill="#34C759" rx="2"/>
<text x="227" y="379" font-size="12" fill="#111827">macOS + Windows</text>
<rect x="351" y="369" width="12" height="12" fill="#4F8EF7" rx="2"/>
<text x="367" y="379" font-size="12" fill="#111827">macOS only</text>
<rect x="491" y="369" width="12" height="12" fill="#FF6363" rx="2"/>
<text x="507" y="379" font-size="12" fill="#111827">Windows only</text>
<text x="72" y="394" font-size="8" fill="#e5e7eb">data since Dec 11, 2025</text>
</svg>