<svg xmlns="http://www.w3.org/2000/svg" width="800" height="400" viewBox="0 0 800 400">
<defs><style>text { font-family: -apple-system, BlinkMacSystemFont, 'Segoe UI', Roboto, sans-serif; }</style></defs>
<rect width="800" height="400" fill="#ffffff" rx="12"/>
<text x="400" y="26" text-anchor="middle" font-size="15" font-weight="600" fill="#111827">Packages by Last Updated Quarter</text>
<text x="400" y="44" text-anchor="middle" font-size="11" fill="#6b7280">last updated at · 2,844 packages with a known last-update date</text>
<line x1="60" y1="58" x2="60" y2="320" stroke="#e5e7eb" stroke-width="1"/>
<line x1="60" y1="320" x2="770" y2="320" stroke="#e5e7eb" stroke-width="1"/>
<text x="-189" y="18" text-anchor="middle" font-size="12" fill="#6b7280" transform="rotate(-90)">Number of packages</text>
<line x1="60" y1="320.0" x2="770" y2="320.0" stroke="#f3f4f6" stroke-width="1"/>
<text x="54" y="324.0" text-anchor="end" font-size="11" fill="#6b7280">0</text>
<line x1="60" y1="267.7" x2="770" y2="267.7" stroke="#f3f4f6" stroke-width="1"/>
<text x="54" y="271.7" text-anchor="end" font-size="11" fill="#6b7280">140</text>
<line x1="60" y1="215.3" x2="770" y2="215.3" stroke="#f3f4f6" stroke-width="1"/>
<text x="54" y="219.3" text-anchor="end" font-size="11" fill="#6b7280">280</text>
<line x1="60" y1="162.7" x2="770" y2="162.7" stroke="#f3f4f6" stroke-width="1"/>
<text x="54" y="166.7" text-anchor="end" font-size="11" fill="#6b7280">421</text>
<line x1="60" y1="110.3" x2="770" y2="110.3" stroke="#f3f4f6" stroke-width="1"/>
<text x="54" y="114.3" text-anchor="end" font-size="11" fill="#6b7280">561</text>
<line x1="60" y1="58.0" x2="770" y2="58.0" stroke="#f3f4f6" stroke-width="1"/>
<text x="54" y="62.0" text-anchor="end" font-size="11" fill="#6b7280">701</text>
<rect x="66.5" y="314.8" width="24.3" height="5.2" fill="#34C759" rx="3" opacity="0.85"/>
<text x="78.7" y="298.8" text-anchor="middle" font-size="10" fill="#6b7280">14</text>
<text x="78.7" y="310.8" text-anchor="middle" font-size="10" fill="#6b7280">(0.49%)</text>
<g transform="translate(78.7,330.0) rotate(-45)"><text text-anchor="end" font-size="10" fill="#111827">2021-Q4</text></g>
<rect x="103.9" y="309.2" width="24.3" height="10.8" fill="#34C759" rx="3" opacity="0.85"/>
<text x="116.1" y="293.2" text-anchor="middle" font-size="10" fill="#6b7280">29</text>
<text x="116.1" y="305.2" text-anchor="middle" font-size="10" fill="#6b7280">(1.02%)</text>
<g transform="translate(116.1,330.0) rotate(-45)"><text text-anchor="end" font-size="10" fill="#111827">2022-Q1</text></g>
<rect x="141.3" y="306.5" width="24.3" height="13.5" fill="#34C759" rx="3" opacity="0.85"/>
<text x="153.4" y="290.5" text-anchor="middle" font-size="10" fill="#6b7280">36</text>
<text x="153.4" y="302.5" text-anchor="middle" font-size="10" fill="#6b7280">(1.27%)</text>
<g transform="translate(153.4,330.0) rotate(-45)"><text text-anchor="end" font-size="10" fill="#111827">2022-Q2</text></g>
<rect x="178.6" y="304.3" width="24.3" height="15.7" fill="#34C759" rx="3" opacity="0.85"/>
<text x="190.8" y="288.3" text-anchor="middle" font-size="10" fill="#6b7280">42</text>
<text x="190.8" y="300.3" text-anchor="middle" font-size="10" fill="#6b7280">(1.48%)</text>
<g transform="translate(190.8,330.0) rotate(-45)"><text text-anchor="end" font-size="10" fill="#111827">2022-Q3</text></g>
<rect x="216.0" y="296.5" width="24.3" height="23.5" fill="#34C759" rx="3" opacity="0.85"/>
<text x="228.2" y="280.5" text-anchor="middle" font-size="10" fill="#6b7280">63</text>
<text x="228.2" y="292.5" text-anchor="middle" font-size="10" fill="#6b7280">(2.22%)</text>
<g transform="translate(228.2,330.0) rotate(-45)"><text text-anchor="end" font-size="10" fill="#111827">2022-Q4</text></g>
<rect x="253.4" y="286.0" width="24.3" height="34.0" fill="#34C759" rx="3" opacity="0.85"/>
<text x="265.5" y="270.0" text-anchor="middle" font-size="10" fill="#6b7280">91</text>
<text x="265.5" y="282.0" text-anchor="middle" font-size="10" fill="#6b7280">(3.20%)</text>
<g transform="translate(265.5,330.0) rotate(-45)"><text text-anchor="end" font-size="10" fill="#111827">2023-Q1</text></g>
<rect x="290.8" y="286.0" width="24.3" height="34.0" fill="#34C759" rx="3" opacity="0.85"/>
<text x="302.9" y="270.0" text-anchor="middle" font-size="10" fill="#6b7280">91</text>
<text x="302.9" y="282.0" text-anchor="middle" font-size="10" fill="#6b7280">(3.20%)</text>
<g transform="translate(302.9,330.0) rotate(-45)"><text text-anchor="end" font-size="10" fill="#111827">2023-Q2</text></g>
<rect x="328.1" y="287.1" width="24.3" height="32.9" fill="#34C759" rx="3" opacity="0.85"/>
<text x="340.3" y="271.1" text-anchor="middle" font-size="10" fill="#6b7280">88</text>
<text x="340.3" y="283.1" text-anchor="middle" font-size="10" fill="#6b7280">(3.09%)</text>
<g transform="translate(340.3,330.0) rotate(-45)"><text text-anchor="end" font-size="10" fill="#111827">2023-Q3</text></g>
<rect x="365.5" y="294.2" width="24.3" height="25.8" fill="#34C759" rx="3" opacity="0.85"/>
<text x="377.6" y="278.2" text-anchor="middle" font-size="10" fill="#6b7280">69</text>
<text x="377.6" y="290.2" text-anchor="middle" font-size="10" fill="#6b7280">(2.43%)</text>
<g transform="translate(377.6,330.0) rotate(-45)"><text text-anchor="end" font-size="10" fill="#111827">2023-Q4</text></g>
<rect x="402.9" y="274.4" width="24.3" height="45.6" fill="#34C759" rx="3" opacity="0.85"/>
<text x="415.0" y="258.4" text-anchor="middle" font-size="10" fill="#6b7280">122</text>
<text x="415.0" y="270.4" text-anchor="middle" font-size="10" fill="#6b7280">(4.29%)</text>
<g transform="translate(415.0,330.0) rotate(-45)"><text text-anchor="end" font-size="10" fill="#111827">2024-Q1</text></g>
<rect x="440.2" y="269.2" width="24.3" height="50.8" fill="#34C759" rx="3" opacity="0.85"/>
<text x="452.4" y="253.2" text-anchor="middle" font-size="10" fill="#6b7280">136</text>
<text x="452.4" y="265.2" text-anchor="middle" font-size="10" fill="#6b7280">(4.78%)</text>
<g transform="translate(452.4,330.0) rotate(-45)"><text text-anchor="end" font-size="10" fill="#111827">2024-Q2</text></g>
<rect x="477.6" y="271.4" width="24.3" height="48.6" fill="#34C759" rx="3" opacity="0.85"/>
<text x="489.7" y="255.4" text-anchor="middle" font-size="10" fill="#6b7280">130</text>
<text x="489.7" y="267.4" text-anchor="middle" font-size="10" fill="#6b7280">(4.57%)</text>
<g transform="translate(489.7,330.0) rotate(-45)"><text text-anchor="end" font-size="10" fill="#111827">2024-Q3</text></g>
<rect x="515.0" y="269.9" width="24.3" height="50.1" fill="#34C759" rx="3" opacity="0.85"/>
<text x="527.1" y="253.9" text-anchor="middle" font-size="10" fill="#6b7280">134</text>
<text x="527.1" y="265.9" text-anchor="middle" font-size="10" fill="#6b7280">(4.71%)</text>
<g transform="translate(527.1,330.0) rotate(-45)"><text text-anchor="end" font-size="10" fill="#111827">2024-Q4</text></g>
<rect x="552.3" y="242.6" width="24.3" height="77.4" fill="#34C759" rx="3" opacity="0.85"/>
<text x="564.5" y="226.6" text-anchor="middle" font-size="10" fill="#6b7280">207</text>
<text x="564.5" y="238.6" text-anchor="middle" font-size="10" fill="#6b7280">(7.28%)</text>
<g transform="translate(564.5,330.0) rotate(-45)"><text text-anchor="end" font-size="10" fill="#111827">2025-Q1</text></g>
<rect x="589.7" y="236.7" width="24.3" height="83.3" fill="#34C759" rx="3" opacity="0.85"/>
<text x="601.8" y="220.7" text-anchor="middle" font-size="10" fill="#6b7280">223</text>
<text x="601.8" y="232.7" text-anchor="middle" font-size="10" fill="#6b7280">(7.84%)</text>
<g transform="translate(601.8,330.0) rotate(-45)"><text text-anchor="end" font-size="10" fill="#111827">2025-Q2</text></g>
<rect x="627.1" y="237.4" width="24.3" height="82.6" fill="#34C759" rx="3" opacity="0.85"/>
<text x="639.2" y="221.4" text-anchor="middle" font-size="10" fill="#6b7280">221</text>
<text x="639.2" y="233.4" text-anchor="middle" font-size="10" fill="#6b7280">(7.77%)</text>
<g transform="translate(639.2,330.0) rotate(-45)"><text text-anchor="end" font-size="10" fill="#111827">2025-Q3</text></g>
<rect x="664.4" y="198.9" width="24.3" height="121.1" fill="#34C759" rx="3" opacity="0.85"/>
<text x="676.6" y="182.9" text-anchor="middle" font-size="10" fill="#6b7280">324</text>
<text x="676.6" y="194.9" text-anchor="middle" font-size="10" fill="#6b7280">(11.39%)</text>
<g transform="translate(676.6,330.0) rotate(-45)"><text text-anchor="end" font-size="10" fill="#111827">2025-Q4</text></g>
<rect x="701.8" y="58.0" width="24.3" height="262.0" fill="#34C759" rx="3" opacity="0.85"/>
<text x="713.9" y="72.0" text-anchor="middle" font-size="10" fill="#6b7280">701</text>
<text x="713.9" y="84.0" text-anchor="middle" font-size="10" fill="#6b7280">(24.65%)</text>
<g transform="translate(713.9,330.0) rotate(-45)"><text text-anchor="end" font-size="10" fill="#111827">2026-Q1</text></g>
<rect x="739.2" y="274.0" width="24.3" height="46.0" fill="#34C759" rx="3" opacity="0.85"/>
<text x="751.3" y="258.0" text-anchor="middle" font-size="10" fill="#6b7280">123</text>
<text x="751.3" y="270.0" text-anchor="middle" font-size="10" fill="#6b7280">(4.32%)</text>
<g transform="translate(751.3,330.0) rotate(-45)"><text text-anchor="end" font-size="10" fill="#111827">2026-Q2</text></g>
</svg>