<svg xmlns="http://www.w3.org/2000/svg" width="800" height="400" viewBox="0 0 800 400">
<defs>
  <style>text { font-family: -apple-system, BlinkMacSystemFont, 'Segoe UI', Roboto, sans-serif; }</style>
  <linearGradient id="g5" x1="0" y1="0" x2="0" y2="1">
  <stop offset="0%" stop-color="#34C759" stop-opacity="0.25"/>
  <stop offset="100%" stop-color="#34C759" stop-opacity="0"/>
</linearGradient>
<linearGradient id="g6" x1="0" y1="0" x2="0" y2="1">
  <stop offset="0%" stop-color="#4F8EF7" stop-opacity="0.25"/>
  <stop offset="100%" stop-color="#4F8EF7" stop-opacity="0"/>
</linearGradient>
<linearGradient id="g7" x1="0" y1="0" x2="0" y2="1">
  <stop offset="0%" stop-color="#FF6363" stop-opacity="0.25"/>
  <stop offset="100%" stop-color="#FF6363" stop-opacity="0"/>
</linearGradient>
  <clipPath id="ca"><rect x="72" y="45" width="698" height="295"/></clipPath>
</defs>
<rect width="800" height="400" fill="#ffffff" rx="12"/>
<text x="400" y="26" text-anchor="middle" font-size="15" font-weight="600" fill="#111827">Platform Support Over Time</text>
<line x1="72" y1="340.0" x2="770" y2="340.0" stroke="#f3f4f6" stroke-width="1"/>
<text x="66" y="344.0" text-anchor="end" font-size="11" fill="#6b7280">0</text>
<line x1="72" y1="266.3" x2="770" y2="266.3" stroke="#f3f4f6" stroke-width="1"/>
<text x="66" y="270.3" text-anchor="end" font-size="11" fill="#6b7280">200</text>
<line x1="72" y1="192.5" x2="770" y2="192.5" stroke="#f3f4f6" stroke-width="1"/>
<text x="66" y="196.5" text-anchor="end" font-size="11" fill="#6b7280">400</text>
<line x1="72" y1="118.8" x2="770" y2="118.8" stroke="#f3f4f6" stroke-width="1"/>
<text x="66" y="122.8" text-anchor="end" font-size="11" fill="#6b7280">600</text>
<line x1="72" y1="45.0" x2="770" y2="45.0" stroke="#f3f4f6" stroke-width="1"/>
<text x="66" y="49.0" text-anchor="end" font-size="11" fill="#6b7280">800</text>
<line x1="157.5" y1="45" x2="157.5" y2="340" stroke="#e5e7eb" stroke-width="1" stroke-dasharray="3,3" clip-path="url(#ca)"/>
<line x1="342.7" y1="45" x2="342.7" y2="340" stroke="#e5e7eb" stroke-width="1" stroke-dasharray="3,3" clip-path="url(#ca)"/>
<line x1="535.0" y1="45" x2="535.0" y2="340" stroke="#e5e7eb" stroke-width="1" stroke-dasharray="3,3" clip-path="url(#ca)"/>
<line x1="727.3" y1="45" x2="727.3" y2="340" stroke="#e5e7eb" stroke-width="1" stroke-dasharray="3,3" clip-path="url(#ca)"/>
<text x="72.0" y="358.0" text-anchor="middle" font-size="11" fill="#6b7280">Dec 11</text>
<text x="214.4" y="358.0" text-anchor="middle" font-size="11" fill="#6b7280">Jan 13</text>
<text x="349.8" y="358.0" text-anchor="middle" font-size="11" fill="#6b7280">Feb 2</text>
<text x="492.2" y="358.0" text-anchor="middle" font-size="11" fill="#6b7280">Feb 22</text>
<text x="627.6" y="358.0" text-anchor="middle" font-size="11" fill="#6b7280">Mar 15</text>
<text x="770.0" y="358.0" text-anchor="middle" font-size="11" fill="#6b7280">Apr 8</text>
<line x1="72" y1="45" x2="72" y2="340" stroke="#e5e7eb" stroke-width="1"/>
<line x1="72" y1="340" x2="770" y2="340" stroke="#e5e7eb" stroke-width="1"/>
<text x="-192.5" y="18" text-anchor="middle" font-size="12" fill="#6b7280" transform="rotate(-90)">Extensions</text>
<path d="M 72.0,340 L 72.0,218.3 L 79.1,215.0 L 86.2,214.6 L 93.4,213.2 L 100.5,212.4 L 107.6,208.7 L 114.7,206.5 L 121.9,205.4 L 129.0,203.6 L 136.1,201.3 L 143.2,200.2 L 150.3,199.9 L 157.5,198.8 L 164.6,198.0 L 171.7,197.7 L 178.8,196.6 L 186.0,195.4 L 193.1,194.3 L 200.2,193.2 L 207.3,191.8 L 214.4,190.7 L 221.6,189.6 L 228.7,188.4 L 235.8,186.2 L 242.9,185.5 L 250.1,185.5 L 257.2,182.9 L 264.3,182.2 L 271.4,181.4 L 278.6,180.7 L 285.7,178.9 L 292.8,176.3 L 299.9,175.9 L 307.0,175.5 L 314.2,173.3 L 321.3,172.6 L 328.4,170.7 L 335.5,170.4 L 342.7,170.0 L 349.8,169.3 L 356.9,169.3 L 364.0,169.3 L 371.1,164.1 L 378.3,163.7 L 385.4,162.6 L 392.5,162.3 L 399.6,161.9 L 406.8,160.8 L 413.9,160.1 L 421.0,159.3 L 428.1,157.1 L 435.2,157.1 L 442.4,157.1 L 449.5,156.7 L 456.6,153.0 L 463.7,151.9 L 470.9,151.2 L 478.0,150.1 L 485.1,149.4 L 492.2,149.4 L 499.3,147.5 L 506.5,144.9 L 513.6,144.2 L 520.7,143.8 L 527.8,142.7 L 535.0,142.7 L 542.1,142.0 L 549.2,140.9 L 556.3,140.1 L 563.4,138.7 L 570.6,137.2 L 577.7,136.8 L 584.8,136.8 L 591.9,135.3 L 599.1,135.3 L 606.2,135.3 L 613.3,133.1 L 620.4,132.8 L 627.6,132.4 L 634.7,132.4 L 641.8,132.0 L 648.9,130.6 L 656.0,129.8 L 663.2,128.7 L 670.3,128.7 L 677.4,128.3 L 684.5,126.9 L 691.7,125.8 L 698.8,125.8 L 705.9,125.4 L 713.0,124.7 L 720.1,122.1 L 727.3,121.3 L 734.4,120.2 L 741.5,120.2 L 748.6,119.5 L 755.8,119.1 L 762.9,118.8 L 770.0,118.4 L 770.0,340 Z" fill="url(#g5)" clip-path="url(#ca)"/>
<path d="M 72.0,218.3 L 79.1,215.0 L 86.2,214.6 L 93.4,213.2 L 100.5,212.4 L 107.6,208.7 L 114.7,206.5 L 121.9,205.4 L 129.0,203.6 L 136.1,201.3 L 143.2,200.2 L 150.3,199.9 L 157.5,198.8 L 164.6,198.0 L 171.7,197.7 L 178.8,196.6 L 186.0,195.4 L 193.1,194.3 L 200.2,193.2 L 207.3,191.8 L 214.4,190.7 L 221.6,189.6 L 228.7,188.4 L 235.8,186.2 L 242.9,185.5 L 250.1,185.5 L 257.2,182.9 L 264.3,182.2 L 271.4,181.4 L 278.6,180.7 L 285.7,178.9 L 292.8,176.3 L 299.9,175.9 L 307.0,175.5 L 314.2,173.3 L 321.3,172.6 L 328.4,170.7 L 335.5,170.4 L 342.7,170.0 L 349.8,169.3 L 356.9,169.3 L 364.0,169.3 L 371.1,164.1 L 378.3,163.7 L 385.4,162.6 L 392.5,162.3 L 399.6,161.9 L 406.8,160.8 L 413.9,160.1 L 421.0,159.3 L 428.1,157.1 L 435.2,157.1 L 442.4,157.1 L 449.5,156.7 L 456.6,153.0 L 463.7,151.9 L 470.9,151.2 L 478.0,150.1 L 485.1,149.4 L 492.2,149.4 L 499.3,147.5 L 506.5,144.9 L 513.6,144.2 L 520.7,143.8 L 527.8,142.7 L 535.0,142.7 L 542.1,142.0 L 549.2,140.9 L 556.3,140.1 L 563.4,138.7 L 570.6,137.2 L 577.7,136.8 L 584.8,136.8 L 591.9,135.3 L 599.1,135.3 L 606.2,135.3 L 613.3,133.1 L 620.4,132.8 L 627.6,132.4 L 634.7,132.4 L 641.8,132.0 L 648.9,130.6 L 656.0,129.8 L 663.2,128.7 L 670.3,128.7 L 677.4,128.3 L 684.5,126.9 L 691.7,125.8 L 698.8,125.8 L 705.9,125.4 L 713.0,124.7 L 720.1,122.1 L 727.3,121.3 L 734.4,120.2 L 741.5,120.2 L 748.6,119.5 L 755.8,119.1 L 762.9,118.8 L 770.0,118.4" fill="none" stroke="#34C759" stroke-width="2.5" stroke-linejoin="round" clip-path="url(#ca)"/>
<path d="M 72.0,340 L 72.0,193.2 L 79.1,193.2 L 86.2,192.9 L 93.4,191.8 L 100.5,192.1 L 107.6,192.1 L 114.7,190.7 L 121.9,189.6 L 129.0,189.6 L 136.1,189.9 L 143.2,189.6 L 150.3,189.2 L 157.5,188.8 L 164.6,188.8 L 171.7,188.8 L 178.8,189.2 L 186.0,188.4 L 193.1,187.7 L 200.2,185.5 L 207.3,184.0 L 214.4,184.0 L 221.6,183.7 L 228.7,181.4 L 235.8,178.1 L 242.9,177.0 L 250.1,176.3 L 257.2,173.7 L 264.3,171.9 L 271.4,171.1 L 278.6,170.4 L 285.7,169.6 L 292.8,169.3 L 299.9,169.3 L 307.0,166.7 L 314.2,166.0 L 321.3,165.2 L 328.4,165.2 L 335.5,163.4 L 342.7,163.0 L 349.8,161.9 L 356.9,160.4 L 364.0,158.6 L 371.1,156.0 L 378.3,153.4 L 385.4,153.0 L 392.5,152.3 L 399.6,151.6 L 406.8,149.4 L 413.9,149.4 L 421.0,148.6 L 428.1,147.5 L 435.2,146.8 L 442.4,145.3 L 449.5,145.7 L 456.6,141.2 L 463.7,140.9 L 470.9,140.5 L 478.0,139.8 L 485.1,137.6 L 492.2,137.6 L 499.3,135.3 L 506.5,132.8 L 513.6,132.8 L 520.7,132.8 L 527.8,132.4 L 535.0,132.0 L 542.1,131.7 L 549.2,129.8 L 556.3,127.6 L 563.4,126.9 L 570.6,125.4 L 577.7,125.4 L 584.8,124.3 L 591.9,122.1 L 599.1,121.0 L 606.2,120.6 L 613.3,118.0 L 620.4,117.6 L 627.6,117.6 L 634.7,117.3 L 641.8,117.3 L 648.9,115.4 L 656.0,114.7 L 663.2,113.6 L 670.3,113.2 L 677.4,112.5 L 684.5,109.5 L 691.7,105.5 L 698.8,105.1 L 705.9,104.4 L 713.0,104.0 L 720.1,102.2 L 727.3,63.1 L 734.4,62.3 L 741.5,60.5 L 748.6,60.5 L 755.8,60.5 L 762.9,60.9 L 770.0,60.5 L 770.0,340 Z" fill="url(#g6)" clip-path="url(#ca)"/>
<path d="M 72.0,193.2 L 79.1,193.2 L 86.2,192.9 L 93.4,191.8 L 100.5,192.1 L 107.6,192.1 L 114.7,190.7 L 121.9,189.6 L 129.0,189.6 L 136.1,189.9 L 143.2,189.6 L 150.3,189.2 L 157.5,188.8 L 164.6,188.8 L 171.7,188.8 L 178.8,189.2 L 186.0,188.4 L 193.1,187.7 L 200.2,185.5 L 207.3,184.0 L 214.4,184.0 L 221.6,183.7 L 228.7,181.4 L 235.8,178.1 L 242.9,177.0 L 250.1,176.3 L 257.2,173.7 L 264.3,171.9 L 271.4,171.1 L 278.6,170.4 L 285.7,169.6 L 292.8,169.3 L 299.9,169.3 L 307.0,166.7 L 314.2,166.0 L 321.3,165.2 L 328.4,165.2 L 335.5,163.4 L 342.7,163.0 L 349.8,161.9 L 356.9,160.4 L 364.0,158.6 L 371.1,156.0 L 378.3,153.4 L 385.4,153.0 L 392.5,152.3 L 399.6,151.6 L 406.8,149.4 L 413.9,149.4 L 421.0,148.6 L 428.1,147.5 L 435.2,146.8 L 442.4,145.3 L 449.5,145.7 L 456.6,141.2 L 463.7,140.9 L 470.9,140.5 L 478.0,139.8 L 485.1,137.6 L 492.2,137.6 L 499.3,135.3 L 506.5,132.8 L 513.6,132.8 L 520.7,132.8 L 527.8,132.4 L 535.0,132.0 L 542.1,131.7 L 549.2,129.8 L 556.3,127.6 L 563.4,126.9 L 570.6,125.4 L 577.7,125.4 L 584.8,124.3 L 591.9,122.1 L 599.1,121.0 L 606.2,120.6 L 613.3,118.0 L 620.4,117.6 L 627.6,117.6 L 634.7,117.3 L 641.8,117.3 L 648.9,115.4 L 656.0,114.7 L 663.2,113.6 L 670.3,113.2 L 677.4,112.5 L 684.5,109.5 L 691.7,105.5 L 698.8,105.1 L 705.9,104.4 L 713.0,104.0 L 720.1,102.2 L 727.3,63.1 L 734.4,62.3 L 741.5,60.5 L 748.6,60.5 L 755.8,60.5 L 762.9,60.9 L 770.0,60.5" fill="none" stroke="#4F8EF7" stroke-width="2.5" stroke-linejoin="round" clip-path="url(#ca)"/>
<path d="M 72.0,340 L 72.0,337.8 L 79.1,337.4 L 86.2,337.4 L 93.4,337.1 L 100.5,337.1 L 107.6,337.1 L 114.7,337.1 L 121.9,337.1 L 129.0,336.3 L 136.1,336.3 L 143.2,336.3 L 150.3,336.3 L 157.5,336.3 L 164.6,335.9 L 171.7,335.9 L 178.8,335.9 L 186.0,335.9 L 193.1,335.9 L 200.2,335.6 L 207.3,334.8 L 214.4,334.5 L 221.6,334.5 L 228.7,334.5 L 235.8,334.1 L 242.9,334.1 L 250.1,334.1 L 257.2,333.7 L 264.3,333.7 L 271.4,333.7 L 278.6,333.4 L 285.7,333.4 L 292.8,333.4 L 299.9,333.4 L 307.0,333.0 L 314.2,333.0 L 321.3,333.0 L 328.4,333.0 L 335.5,333.0 L 342.7,333.0 L 349.8,333.0 L 356.9,333.0 L 364.0,333.0 L 371.1,333.0 L 378.3,333.0 L 385.4,333.0 L 392.5,333.0 L 399.6,332.6 L 406.8,332.6 L 413.9,332.6 L 421.0,332.6 L 428.1,332.6 L 435.2,332.6 L 442.4,332.6 L 449.5,332.6 L 456.6,332.6 L 463.7,332.6 L 470.9,332.6 L 478.0,332.6 L 485.1,332.3 L 492.2,332.3 L 499.3,332.3 L 506.5,332.3 L 513.6,332.3 L 520.7,332.3 L 527.8,332.3 L 535.0,332.3 L 542.1,332.3 L 549.2,332.3 L 556.3,332.3 L 563.4,332.3 L 570.6,332.3 L 577.7,332.3 L 584.8,332.3 L 591.9,332.3 L 599.1,332.3 L 606.2,332.3 L 613.3,332.3 L 620.4,332.3 L 627.6,332.3 L 634.7,332.3 L 641.8,332.3 L 648.9,332.3 L 656.0,332.3 L 663.2,332.3 L 670.3,332.3 L 677.4,332.3 L 684.5,332.3 L 691.7,332.3 L 698.8,332.3 L 705.9,332.3 L 713.0,332.3 L 720.1,332.3 L 727.3,332.3 L 734.4,332.3 L 741.5,331.9 L 748.6,331.9 L 755.8,331.9 L 762.9,331.9 L 770.0,331.9 L 770.0,340 Z" fill="url(#g7)" clip-path="url(#ca)"/>
<path d="M 72.0,337.8 L 79.1,337.4 L 86.2,337.4 L 93.4,337.1 L 100.5,337.1 L 107.6,337.1 L 114.7,337.1 L 121.9,337.1 L 129.0,336.3 L 136.1,336.3 L 143.2,336.3 L 150.3,336.3 L 157.5,336.3 L 164.6,335.9 L 171.7,335.9 L 178.8,335.9 L 186.0,335.9 L 193.1,335.9 L 200.2,335.6 L 207.3,334.8 L 214.4,334.5 L 221.6,334.5 L 228.7,334.5 L 235.8,334.1 L 242.9,334.1 L 250.1,334.1 L 257.2,333.7 L 264.3,333.7 L 271.4,333.7 L 278.6,333.4 L 285.7,333.4 L 292.8,333.4 L 299.9,333.4 L 307.0,333.0 L 314.2,333.0 L 321.3,333.0 L 328.4,333.0 L 335.5,333.0 L 342.7,333.0 L 349.8,333.0 L 356.9,333.0 L 364.0,333.0 L 371.1,333.0 L 378.3,333.0 L 385.4,333.0 L 392.5,333.0 L 399.6,332.6 L 406.8,332.6 L 413.9,332.6 L 421.0,332.6 L 428.1,332.6 L 435.2,332.6 L 442.4,332.6 L 449.5,332.6 L 456.6,332.6 L 463.7,332.6 L 470.9,332.6 L 478.0,332.6 L 485.1,332.3 L 492.2,332.3 L 499.3,332.3 L 506.5,332.3 L 513.6,332.3 L 520.7,332.3 L 527.8,332.3 L 535.0,332.3 L 542.1,332.3 L 549.2,332.3 L 556.3,332.3 L 563.4,332.3 L 570.6,332.3 L 577.7,332.3 L 584.8,332.3 L 591.9,332.3 L 599.1,332.3 L 606.2,332.3 L 613.3,332.3 L 620.4,332.3 L 627.6,332.3 L 634.7,332.3 L 641.8,332.3 L 648.9,332.3 L 656.0,332.3 L 663.2,332.3 L 670.3,332.3 L 677.4,332.3 L 684.5,332.3 L 691.7,332.3 L 698.8,332.3 L 705.9,332.3 L 713.0,332.3 L 720.1,332.3 L 727.3,332.3 L 734.4,332.3 L 741.5,331.9 L 748.6,331.9 L 755.8,331.9 L 762.9,331.9 L 770.0,331.9" fill="none" stroke="#FF6363" stroke-width="2.5" stroke-linejoin="round" clip-path="url(#ca)"/>
<text x="111.2" y="55.0" text-anchor="middle" font-size="9" fill="#34C759" opacity="0.85" clip-path="url(#ca)">+15.2% (+50)</text>
<text x="111.2" y="66.0" text-anchor="middle" font-size="9" fill="#4F8EF7" opacity="0.85" clip-path="url(#ca)">+2.8% (+11)</text>
<text x="111.2" y="77.0" text-anchor="middle" font-size="9" fill="#FF6363" opacity="0.85" clip-path="url(#ca)">+66.7% (+4)</text>
<text x="246.5" y="55.0" text-anchor="middle" font-size="9" fill="#34C759" opacity="0.85" clip-path="url(#ca)">+20.1% (+77)</text>
<text x="246.5" y="66.0" text-anchor="middle" font-size="9" fill="#4F8EF7" opacity="0.85" clip-path="url(#ca)">+16.8% (+69)</text>
<text x="246.5" y="77.0" text-anchor="middle" font-size="9" fill="#FF6363" opacity="0.85" clip-path="url(#ca)">+90.0% (+9)</text>
<text x="435.2" y="55.0" text-anchor="middle" font-size="9" fill="#34C759" opacity="0.85" clip-path="url(#ca)">+16.1% (+74)</text>
<text x="435.2" y="66.0" text-anchor="middle" font-size="9" fill="#4F8EF7" opacity="0.85" clip-path="url(#ca)">+17.3% (+83)</text>
<text x="435.2" y="77.0" text-anchor="middle" font-size="9" fill="#FF6363" opacity="0.85" clip-path="url(#ca)">+10.5% (+2)</text>
<text x="627.6" y="55.0" text-anchor="middle" font-size="9" fill="#34C759" opacity="0.85" clip-path="url(#ca)">+10.5% (+56)</text>
<text x="627.6" y="66.0" text-anchor="middle" font-size="9" fill="#4F8EF7" opacity="0.85" clip-path="url(#ca)">+14.4% (+81)</text>
<text x="627.6" y="77.0" text-anchor="middle" font-size="9" fill="#FF6363" opacity="0.85" clip-path="url(#ca)">+0.0% (+0)</text>
<text x="748.6" y="55.0" text-anchor="middle" font-size="9" fill="#34C759" opacity="0.85" clip-path="url(#ca)">+1.3% (+8)</text>
<text x="748.6" y="66.0" text-anchor="middle" font-size="9" fill="#4F8EF7" opacity="0.85" clip-path="url(#ca)">+0.9% (+7)</text>
<text x="748.6" y="77.0" text-anchor="middle" font-size="9" fill="#FF6363" opacity="0.85" clip-path="url(#ca)">+4.8% (+1)</text>
<rect x="211" y="369" width="12" height="12" fill="#34C759" rx="2"/>
<text x="227" y="379" font-size="12" fill="#111827">macOS + Windows</text>
<rect x="351" y="369" width="12" height="12" fill="#4F8EF7" rx="2"/>
<text x="367" y="379" font-size="12" fill="#111827">macOS only</text>
<rect x="491" y="369" width="12" height="12" fill="#FF6363" rx="2"/>
<text x="507" y="379" font-size="12" fill="#111827">Windows only</text>
<text x="72" y="394" font-size="8" fill="#e5e7eb">data since Dec 11, 2025</text>
</svg>