<svg xmlns="http://www.w3.org/2000/svg" width="800" height="400" viewBox="0 0 800 400">
<defs>
  <style>text { font-family: -apple-system, BlinkMacSystemFont, 'Segoe UI', Roboto, sans-serif; }</style>
  <linearGradient id="g5" x1="0" y1="0" x2="0" y2="1">
  <stop offset="0%" stop-color="#34C759" stop-opacity="0.25"/>
  <stop offset="100%" stop-color="#34C759" stop-opacity="0"/>
</linearGradient>
<linearGradient id="g6" x1="0" y1="0" x2="0" y2="1">
  <stop offset="0%" stop-color="#4F8EF7" stop-opacity="0.25"/>
  <stop offset="100%" stop-color="#4F8EF7" stop-opacity="0"/>
</linearGradient>
<linearGradient id="g7" x1="0" y1="0" x2="0" y2="1">
  <stop offset="0%" stop-color="#FF6363" stop-opacity="0.25"/>
  <stop offset="100%" stop-color="#FF6363" stop-opacity="0"/>
</linearGradient>
  <clipPath id="ca"><rect x="72" y="45" width="698" height="295"/></clipPath>
</defs>
<rect width="800" height="400" fill="#ffffff" rx="12"/>
<text x="400" y="26" text-anchor="middle" font-size="15" font-weight="600" fill="#111827">Platform Support Over Time</text>
<line x1="72" y1="340.0" x2="770" y2="340.0" stroke="#f3f4f6" stroke-width="1"/>
<text x="66" y="344.0" text-anchor="end" font-size="11" fill="#6b7280">0</text>
<line x1="72" y1="281.0" x2="770" y2="281.0" stroke="#f3f4f6" stroke-width="1"/>
<text x="66" y="285.0" text-anchor="end" font-size="11" fill="#6b7280">200</text>
<line x1="72" y1="222.0" x2="770" y2="222.0" stroke="#f3f4f6" stroke-width="1"/>
<text x="66" y="226.0" text-anchor="end" font-size="11" fill="#6b7280">400</text>
<line x1="72" y1="163.0" x2="770" y2="163.0" stroke="#f3f4f6" stroke-width="1"/>
<text x="66" y="167.0" text-anchor="end" font-size="11" fill="#6b7280">600</text>
<line x1="72" y1="104.0" x2="770" y2="104.0" stroke="#f3f4f6" stroke-width="1"/>
<text x="66" y="108.0" text-anchor="end" font-size="11" fill="#6b7280">800</text>
<line x1="72" y1="45.0" x2="770" y2="45.0" stroke="#f3f4f6" stroke-width="1"/>
<text x="66" y="49.0" text-anchor="end" font-size="11" fill="#6b7280">1.0k</text>
<line x1="137.4" y1="45" x2="137.4" y2="340" stroke="#e5e7eb" stroke-width="1" stroke-dasharray="3,3" clip-path="url(#ca)"/>
<line x1="279.2" y1="45" x2="279.2" y2="340" stroke="#e5e7eb" stroke-width="1" stroke-dasharray="3,3" clip-path="url(#ca)"/>
<line x1="426.5" y1="45" x2="426.5" y2="340" stroke="#e5e7eb" stroke-width="1" stroke-dasharray="3,3" clip-path="url(#ca)"/>
<line x1="573.7" y1="45" x2="573.7" y2="340" stroke="#e5e7eb" stroke-width="1" stroke-dasharray="3,3" clip-path="url(#ca)"/>
<line x1="720.9" y1="45" x2="720.9" y2="340" stroke="#e5e7eb" stroke-width="1" stroke-dasharray="3,3" clip-path="url(#ca)"/>
<text x="72.0" y="358.0" text-anchor="middle" font-size="11" fill="#6b7280">Dec 11</text>
<text x="213.8" y="358.0" text-anchor="middle" font-size="11" fill="#6b7280">Jan 20</text>
<text x="350.1" y="358.0" text-anchor="middle" font-size="11" fill="#6b7280">Feb 14</text>
<text x="491.9" y="358.0" text-anchor="middle" font-size="11" fill="#6b7280">Mar 14</text>
<text x="628.2" y="358.0" text-anchor="middle" font-size="11" fill="#6b7280">Apr 12</text>
<text x="770.0" y="358.0" text-anchor="middle" font-size="11" fill="#6b7280">May 14</text>
<line x1="72" y1="45" x2="72" y2="340" stroke="#e5e7eb" stroke-width="1"/>
<line x1="72" y1="340" x2="770" y2="340" stroke="#e5e7eb" stroke-width="1"/>
<text x="-192.5" y="18" text-anchor="middle" font-size="12" fill="#6b7280" transform="rotate(-90)">Extensions</text>
<path d="M 72.0,340 L 72.0,242.6 L 77.5,240.0 L 82.9,239.7 L 88.4,238.5 L 93.8,237.9 L 99.3,235.0 L 104.7,233.2 L 110.2,232.3 L 115.6,230.8 L 121.1,229.1 L 126.5,228.2 L 132.0,227.9 L 137.4,227.0 L 142.9,226.4 L 148.3,226.1 L 153.8,225.2 L 159.3,224.4 L 164.7,223.5 L 170.2,222.6 L 175.6,221.4 L 181.1,220.5 L 186.5,219.6 L 192.0,218.8 L 197.4,217.0 L 202.9,216.4 L 208.3,216.4 L 213.8,214.3 L 219.2,213.7 L 224.7,213.2 L 230.1,212.6 L 235.6,211.1 L 241.0,209.0 L 246.5,208.7 L 252.0,208.4 L 257.4,206.7 L 262.9,206.1 L 268.3,204.6 L 273.8,204.3 L 279.2,204.0 L 284.7,203.4 L 290.1,203.4 L 295.6,203.4 L 301.0,199.3 L 306.5,199.0 L 311.9,198.1 L 317.4,197.8 L 322.8,197.5 L 328.3,196.6 L 333.8,196.0 L 339.2,195.4 L 344.7,193.7 L 350.1,193.7 L 355.6,193.7 L 361.0,193.4 L 366.5,190.4 L 371.9,189.6 L 377.4,189.0 L 382.8,188.1 L 388.3,187.5 L 393.7,187.5 L 399.2,186.0 L 404.6,183.9 L 410.1,183.4 L 415.5,183.1 L 421.0,182.2 L 426.5,182.2 L 431.9,181.6 L 437.4,180.7 L 442.8,180.1 L 448.3,178.9 L 453.7,177.8 L 459.2,177.5 L 464.6,177.5 L 470.1,176.3 L 475.5,176.3 L 481.0,176.3 L 486.4,174.5 L 491.9,174.2 L 497.3,173.9 L 502.8,173.9 L 508.3,173.6 L 513.7,172.4 L 519.2,171.9 L 524.6,171.0 L 530.1,171.0 L 535.5,170.7 L 541.0,169.5 L 546.4,168.6 L 551.9,168.6 L 557.3,168.3 L 562.8,167.7 L 568.2,165.7 L 573.7,165.1 L 579.1,164.2 L 584.6,164.2 L 590.0,163.6 L 595.5,163.3 L 601.0,163.0 L 606.4,162.7 L 611.9,162.4 L 617.3,162.4 L 622.8,162.1 L 628.2,161.8 L 633.7,160.9 L 639.1,159.8 L 644.6,159.5 L 650.0,158.6 L 655.5,158.6 L 660.9,157.4 L 666.4,157.1 L 671.8,157.1 L 677.3,157.1 L 682.8,156.2 L 688.2,155.9 L 693.7,155.9 L 699.1,155.9 L 704.6,155.6 L 710.0,154.4 L 715.5,154.2 L 720.9,153.3 L 726.4,152.7 L 731.8,152.7 L 737.3,151.8 L 742.7,151.2 L 748.2,151.2 L 753.6,150.9 L 759.1,149.4 L 764.5,148.0 L 770.0,147.7 L 770.0,340 Z" fill="url(#g5)" clip-path="url(#ca)"/>
<path d="M 72.0,242.6 L 77.5,240.0 L 82.9,239.7 L 88.4,238.5 L 93.8,237.9 L 99.3,235.0 L 104.7,233.2 L 110.2,232.3 L 115.6,230.8 L 121.1,229.1 L 126.5,228.2 L 132.0,227.9 L 137.4,227.0 L 142.9,226.4 L 148.3,226.1 L 153.8,225.2 L 159.3,224.4 L 164.7,223.5 L 170.2,222.6 L 175.6,221.4 L 181.1,220.5 L 186.5,219.6 L 192.0,218.8 L 197.4,217.0 L 202.9,216.4 L 208.3,216.4 L 213.8,214.3 L 219.2,213.7 L 224.7,213.2 L 230.1,212.6 L 235.6,211.1 L 241.0,209.0 L 246.5,208.7 L 252.0,208.4 L 257.4,206.7 L 262.9,206.1 L 268.3,204.6 L 273.8,204.3 L 279.2,204.0 L 284.7,203.4 L 290.1,203.4 L 295.6,203.4 L 301.0,199.3 L 306.5,199.0 L 311.9,198.1 L 317.4,197.8 L 322.8,197.5 L 328.3,196.6 L 333.8,196.0 L 339.2,195.4 L 344.7,193.7 L 350.1,193.7 L 355.6,193.7 L 361.0,193.4 L 366.5,190.4 L 371.9,189.6 L 377.4,189.0 L 382.8,188.1 L 388.3,187.5 L 393.7,187.5 L 399.2,186.0 L 404.6,183.9 L 410.1,183.4 L 415.5,183.1 L 421.0,182.2 L 426.5,182.2 L 431.9,181.6 L 437.4,180.7 L 442.8,180.1 L 448.3,178.9 L 453.7,177.8 L 459.2,177.5 L 464.6,177.5 L 470.1,176.3 L 475.5,176.3 L 481.0,176.3 L 486.4,174.5 L 491.9,174.2 L 497.3,173.9 L 502.8,173.9 L 508.3,173.6 L 513.7,172.4 L 519.2,171.9 L 524.6,171.0 L 530.1,171.0 L 535.5,170.7 L 541.0,169.5 L 546.4,168.6 L 551.9,168.6 L 557.3,168.3 L 562.8,167.7 L 568.2,165.7 L 573.7,165.1 L 579.1,164.2 L 584.6,164.2 L 590.0,163.6 L 595.5,163.3 L 601.0,163.0 L 606.4,162.7 L 611.9,162.4 L 617.3,162.4 L 622.8,162.1 L 628.2,161.8 L 633.7,160.9 L 639.1,159.8 L 644.6,159.5 L 650.0,158.6 L 655.5,158.6 L 660.9,157.4 L 666.4,157.1 L 671.8,157.1 L 677.3,157.1 L 682.8,156.2 L 688.2,155.9 L 693.7,155.9 L 699.1,155.9 L 704.6,155.6 L 710.0,154.4 L 715.5,154.2 L 720.9,153.3 L 726.4,152.7 L 731.8,152.7 L 737.3,151.8 L 742.7,151.2 L 748.2,151.2 L 753.6,150.9 L 759.1,149.4 L 764.5,148.0 L 770.0,147.7" fill="none" stroke="#34C759" stroke-width="2.5" stroke-linejoin="round" clip-path="url(#ca)"/>
<path d="M 72.0,340 L 72.0,222.6 L 77.5,222.6 L 82.9,222.3 L 88.4,221.4 L 93.8,221.7 L 99.3,221.7 L 104.7,220.5 L 110.2,219.6 L 115.6,219.6 L 121.1,219.9 L 126.5,219.6 L 132.0,219.3 L 137.4,219.1 L 142.9,219.1 L 148.3,219.1 L 153.8,219.3 L 159.3,218.8 L 164.7,218.2 L 170.2,216.4 L 175.6,215.2 L 181.1,215.2 L 186.5,214.9 L 192.0,213.2 L 197.4,210.5 L 202.9,209.6 L 208.3,209.0 L 213.8,207.0 L 219.2,205.5 L 224.7,204.9 L 230.1,204.3 L 235.6,203.7 L 241.0,203.4 L 246.5,203.4 L 252.0,201.3 L 257.4,200.8 L 262.9,200.2 L 268.3,200.2 L 273.8,198.7 L 279.2,198.4 L 284.7,197.5 L 290.1,196.3 L 295.6,194.9 L 301.0,192.8 L 306.5,190.7 L 311.9,190.4 L 317.4,189.8 L 322.8,189.3 L 328.3,187.5 L 333.8,187.5 L 339.2,186.9 L 344.7,186.0 L 350.1,185.4 L 355.6,184.2 L 361.0,184.5 L 366.5,181.0 L 371.9,180.7 L 377.4,180.4 L 382.8,179.8 L 388.3,178.0 L 393.7,178.0 L 399.2,176.3 L 404.6,174.2 L 410.1,174.2 L 415.5,174.2 L 421.0,173.9 L 426.5,173.6 L 431.9,173.3 L 437.4,171.9 L 442.8,170.1 L 448.3,169.5 L 453.7,168.3 L 459.2,168.3 L 464.6,167.4 L 470.1,165.7 L 475.5,164.8 L 481.0,164.5 L 486.4,162.4 L 491.9,162.1 L 497.3,162.1 L 502.8,161.8 L 508.3,161.8 L 513.7,160.3 L 519.2,159.8 L 524.6,158.9 L 530.1,158.6 L 535.5,158.0 L 541.0,155.6 L 546.4,152.4 L 551.9,152.1 L 557.3,151.5 L 562.8,151.2 L 568.2,149.7 L 573.7,118.5 L 579.1,117.9 L 584.6,116.4 L 590.0,116.4 L 595.5,116.4 L 601.0,116.7 L 606.4,116.4 L 611.9,114.6 L 617.3,114.0 L 622.8,113.7 L 628.2,113.4 L 633.7,112.3 L 639.1,110.5 L 644.6,110.5 L 650.0,110.5 L 655.5,110.2 L 660.9,109.9 L 666.4,109.9 L 671.8,109.3 L 677.3,108.4 L 682.8,106.9 L 688.2,106.4 L 693.7,106.1 L 699.1,106.1 L 704.6,105.8 L 710.0,105.2 L 715.5,104.9 L 720.9,103.4 L 726.4,103.4 L 731.8,102.8 L 737.3,101.6 L 742.7,100.2 L 748.2,99.9 L 753.6,99.6 L 759.1,96.9 L 764.5,96.3 L 770.0,95.7 L 770.0,340 Z" fill="url(#g6)" clip-path="url(#ca)"/>
<path d="M 72.0,222.6 L 77.5,222.6 L 82.9,222.3 L 88.4,221.4 L 93.8,221.7 L 99.3,221.7 L 104.7,220.5 L 110.2,219.6 L 115.6,219.6 L 121.1,219.9 L 126.5,219.6 L 132.0,219.3 L 137.4,219.1 L 142.9,219.1 L 148.3,219.1 L 153.8,219.3 L 159.3,218.8 L 164.7,218.2 L 170.2,216.4 L 175.6,215.2 L 181.1,215.2 L 186.5,214.9 L 192.0,213.2 L 197.4,210.5 L 202.9,209.6 L 208.3,209.0 L 213.8,207.0 L 219.2,205.5 L 224.7,204.9 L 230.1,204.3 L 235.6,203.7 L 241.0,203.4 L 246.5,203.4 L 252.0,201.3 L 257.4,200.8 L 262.9,200.2 L 268.3,200.2 L 273.8,198.7 L 279.2,198.4 L 284.7,197.5 L 290.1,196.3 L 295.6,194.9 L 301.0,192.8 L 306.5,190.7 L 311.9,190.4 L 317.4,189.8 L 322.8,189.3 L 328.3,187.5 L 333.8,187.5 L 339.2,186.9 L 344.7,186.0 L 350.1,185.4 L 355.6,184.2 L 361.0,184.5 L 366.5,181.0 L 371.9,180.7 L 377.4,180.4 L 382.8,179.8 L 388.3,178.0 L 393.7,178.0 L 399.2,176.3 L 404.6,174.2 L 410.1,174.2 L 415.5,174.2 L 421.0,173.9 L 426.5,173.6 L 431.9,173.3 L 437.4,171.9 L 442.8,170.1 L 448.3,169.5 L 453.7,168.3 L 459.2,168.3 L 464.6,167.4 L 470.1,165.7 L 475.5,164.8 L 481.0,164.5 L 486.4,162.4 L 491.9,162.1 L 497.3,162.1 L 502.8,161.8 L 508.3,161.8 L 513.7,160.3 L 519.2,159.8 L 524.6,158.9 L 530.1,158.6 L 535.5,158.0 L 541.0,155.6 L 546.4,152.4 L 551.9,152.1 L 557.3,151.5 L 562.8,151.2 L 568.2,149.7 L 573.7,118.5 L 579.1,117.9 L 584.6,116.4 L 590.0,116.4 L 595.5,116.4 L 601.0,116.7 L 606.4,116.4 L 611.9,114.6 L 617.3,114.0 L 622.8,113.7 L 628.2,113.4 L 633.7,112.3 L 639.1,110.5 L 644.6,110.5 L 650.0,110.5 L 655.5,110.2 L 660.9,109.9 L 666.4,109.9 L 671.8,109.3 L 677.3,108.4 L 682.8,106.9 L 688.2,106.4 L 693.7,106.1 L 699.1,106.1 L 704.6,105.8 L 710.0,105.2 L 715.5,104.9 L 720.9,103.4 L 726.4,103.4 L 731.8,102.8 L 737.3,101.6 L 742.7,100.2 L 748.2,99.9 L 753.6,99.6 L 759.1,96.9 L 764.5,96.3 L 770.0,95.7" fill="none" stroke="#4F8EF7" stroke-width="2.5" stroke-linejoin="round" clip-path="url(#ca)"/>
<path d="M 72.0,340 L 72.0,338.2 L 77.5,337.9 L 82.9,337.9 L 88.4,337.6 L 93.8,337.6 L 99.3,337.6 L 104.7,337.6 L 110.2,337.6 L 115.6,337.1 L 121.1,337.1 L 126.5,337.1 L 132.0,337.1 L 137.4,337.1 L 142.9,336.8 L 148.3,336.8 L 153.8,336.8 L 159.3,336.8 L 164.7,336.8 L 170.2,336.5 L 175.6,335.9 L 181.1,335.6 L 186.5,335.6 L 192.0,335.6 L 197.4,335.3 L 202.9,335.3 L 208.3,335.3 L 213.8,335.0 L 219.2,335.0 L 224.7,335.0 L 230.1,334.7 L 235.6,334.7 L 241.0,334.7 L 246.5,334.7 L 252.0,334.4 L 257.4,334.4 L 262.9,334.4 L 268.3,334.4 L 273.8,334.4 L 279.2,334.4 L 284.7,334.4 L 290.1,334.4 L 295.6,334.4 L 301.0,334.4 L 306.5,334.4 L 311.9,334.4 L 317.4,334.4 L 322.8,334.1 L 328.3,334.1 L 333.8,334.1 L 339.2,334.1 L 344.7,334.1 L 350.1,334.1 L 355.6,334.1 L 361.0,334.1 L 366.5,334.1 L 371.9,334.1 L 377.4,334.1 L 382.8,334.1 L 388.3,333.8 L 393.7,333.8 L 399.2,333.8 L 404.6,333.8 L 410.1,333.8 L 415.5,333.8 L 421.0,333.8 L 426.5,333.8 L 431.9,333.8 L 437.4,333.8 L 442.8,333.8 L 448.3,333.8 L 453.7,333.8 L 459.2,333.8 L 464.6,333.8 L 470.1,333.8 L 475.5,333.8 L 481.0,333.8 L 486.4,333.8 L 491.9,333.8 L 497.3,333.8 L 502.8,333.8 L 508.3,333.8 L 513.7,333.8 L 519.2,333.8 L 524.6,333.8 L 530.1,333.8 L 535.5,333.8 L 541.0,333.8 L 546.4,333.8 L 551.9,333.8 L 557.3,333.8 L 562.8,333.8 L 568.2,333.8 L 573.7,333.8 L 579.1,333.8 L 584.6,333.5 L 590.0,333.5 L 595.5,333.5 L 601.0,333.5 L 606.4,333.5 L 611.9,333.2 L 617.3,333.2 L 622.8,333.2 L 628.2,333.2 L 633.7,332.9 L 639.1,332.9 L 644.6,332.6 L 650.0,332.6 L 655.5,332.6 L 660.9,332.6 L 666.4,332.6 L 671.8,332.6 L 677.3,332.6 L 682.8,332.6 L 688.2,332.6 L 693.7,332.6 L 699.1,332.6 L 704.6,332.6 L 710.0,332.6 L 715.5,332.6 L 720.9,332.6 L 726.4,332.6 L 731.8,332.6 L 737.3,332.6 L 742.7,332.6 L 748.2,332.6 L 753.6,332.6 L 759.1,332.6 L 764.5,332.6 L 770.0,332.6 L 770.0,340 Z" fill="url(#g7)" clip-path="url(#ca)"/>
<path d="M 72.0,338.2 L 77.5,337.9 L 82.9,337.9 L 88.4,337.6 L 93.8,337.6 L 99.3,337.6 L 104.7,337.6 L 110.2,337.6 L 115.6,337.1 L 121.1,337.1 L 126.5,337.1 L 132.0,337.1 L 137.4,337.1 L 142.9,336.8 L 148.3,336.8 L 153.8,336.8 L 159.3,336.8 L 164.7,336.8 L 170.2,336.5 L 175.6,335.9 L 181.1,335.6 L 186.5,335.6 L 192.0,335.6 L 197.4,335.3 L 202.9,335.3 L 208.3,335.3 L 213.8,335.0 L 219.2,335.0 L 224.7,335.0 L 230.1,334.7 L 235.6,334.7 L 241.0,334.7 L 246.5,334.7 L 252.0,334.4 L 257.4,334.4 L 262.9,334.4 L 268.3,334.4 L 273.8,334.4 L 279.2,334.4 L 284.7,334.4 L 290.1,334.4 L 295.6,334.4 L 301.0,334.4 L 306.5,334.4 L 311.9,334.4 L 317.4,334.4 L 322.8,334.1 L 328.3,334.1 L 333.8,334.1 L 339.2,334.1 L 344.7,334.1 L 350.1,334.1 L 355.6,334.1 L 361.0,334.1 L 366.5,334.1 L 371.9,334.1 L 377.4,334.1 L 382.8,334.1 L 388.3,333.8 L 393.7,333.8 L 399.2,333.8 L 404.6,333.8 L 410.1,333.8 L 415.5,333.8 L 421.0,333.8 L 426.5,333.8 L 431.9,333.8 L 437.4,333.8 L 442.8,333.8 L 448.3,333.8 L 453.7,333.8 L 459.2,333.8 L 464.6,333.8 L 470.1,333.8 L 475.5,333.8 L 481.0,333.8 L 486.4,333.8 L 491.9,333.8 L 497.3,333.8 L 502.8,333.8 L 508.3,333.8 L 513.7,333.8 L 519.2,333.8 L 524.6,333.8 L 530.1,333.8 L 535.5,333.8 L 541.0,333.8 L 546.4,333.8 L 551.9,333.8 L 557.3,333.8 L 562.8,333.8 L 568.2,333.8 L 573.7,333.8 L 579.1,333.8 L 584.6,333.5 L 590.0,333.5 L 595.5,333.5 L 601.0,333.5 L 606.4,333.5 L 611.9,333.2 L 617.3,333.2 L 622.8,333.2 L 628.2,333.2 L 633.7,332.9 L 639.1,332.9 L 644.6,332.6 L 650.0,332.6 L 655.5,332.6 L 660.9,332.6 L 666.4,332.6 L 671.8,332.6 L 677.3,332.6 L 682.8,332.6 L 688.2,332.6 L 693.7,332.6 L 699.1,332.6 L 704.6,332.6 L 710.0,332.6 L 715.5,332.6 L 720.9,332.6 L 726.4,332.6 L 731.8,332.6 L 737.3,332.6 L 742.7,332.6 L 748.2,332.6 L 753.6,332.6 L 759.1,332.6 L 764.5,332.6 L 770.0,332.6" fill="none" stroke="#FF6363" stroke-width="2.5" stroke-linejoin="round" clip-path="url(#ca)"/>
<text x="102.0" y="55.0" text-anchor="middle" font-size="9" fill="#34C759" opacity="0.85" clip-path="url(#ca)">+15.2% (+50)</text>
<text x="102.0" y="66.0" text-anchor="middle" font-size="9" fill="#4F8EF7" opacity="0.85" clip-path="url(#ca)">+2.8% (+11)</text>
<text x="102.0" y="77.0" text-anchor="middle" font-size="9" fill="#FF6363" opacity="0.85" clip-path="url(#ca)">+66.7% (+4)</text>
<text x="205.6" y="55.0" text-anchor="middle" font-size="9" fill="#34C759" opacity="0.85" clip-path="url(#ca)">+20.1% (+77)</text>
<text x="205.6" y="66.0" text-anchor="middle" font-size="9" fill="#4F8EF7" opacity="0.85" clip-path="url(#ca)">+16.8% (+69)</text>
<text x="205.6" y="77.0" text-anchor="middle" font-size="9" fill="#FF6363" opacity="0.85" clip-path="url(#ca)">+90.0% (+9)</text>
<text x="350.1" y="55.0" text-anchor="middle" font-size="9" fill="#34C759" opacity="0.85" clip-path="url(#ca)">+16.1% (+74)</text>
<text x="350.1" y="66.0" text-anchor="middle" font-size="9" fill="#4F8EF7" opacity="0.85" clip-path="url(#ca)">+17.3% (+83)</text>
<text x="350.1" y="77.0" text-anchor="middle" font-size="9" fill="#FF6363" opacity="0.85" clip-path="url(#ca)">+10.5% (+2)</text>
<text x="497.3" y="55.0" text-anchor="middle" font-size="9" fill="#34C759" opacity="0.85" clip-path="url(#ca)">+10.5% (+56)</text>
<text x="497.3" y="66.0" text-anchor="middle" font-size="9" fill="#4F8EF7" opacity="0.85" clip-path="url(#ca)">+14.4% (+81)</text>
<text x="497.3" y="77.0" text-anchor="middle" font-size="9" fill="#FF6363" opacity="0.85" clip-path="url(#ca)">+0.0% (+0)</text>
<text x="644.6" y="55.0" text-anchor="middle" font-size="9" fill="#34C759" opacity="0.85" clip-path="url(#ca)">+6.2% (+37)</text>
<text x="644.6" y="66.0" text-anchor="middle" font-size="9" fill="#4F8EF7" opacity="0.85" clip-path="url(#ca)">+6.1% (+46)</text>
<text x="644.6" y="77.0" text-anchor="middle" font-size="9" fill="#FF6363" opacity="0.85" clip-path="url(#ca)">+19.0% (+4)</text>
<text x="745.5" y="55.0" text-anchor="middle" font-size="9" fill="#34C759" opacity="0.85" clip-path="url(#ca)">+3.0% (+19)</text>
<text x="745.5" y="66.0" text-anchor="middle" font-size="9" fill="#4F8EF7" opacity="0.85" clip-path="url(#ca)">+3.2% (+26)</text>
<text x="745.5" y="77.0" text-anchor="middle" font-size="9" fill="#FF6363" opacity="0.85" clip-path="url(#ca)">+0.0% (+0)</text>
<rect x="211" y="369" width="12" height="12" fill="#34C759" rx="2"/>
<text x="227" y="379" font-size="12" fill="#111827">macOS + Windows</text>
<rect x="351" y="369" width="12" height="12" fill="#4F8EF7" rx="2"/>
<text x="367" y="379" font-size="12" fill="#111827">macOS only</text>
<rect x="491" y="369" width="12" height="12" fill="#FF6363" rx="2"/>
<text x="507" y="379" font-size="12" fill="#111827">Windows only</text>
<text x="72" y="394" font-size="8" fill="#e5e7eb">data since Dec 11, 2025</text>
</svg>