<svg xmlns="http://www.w3.org/2000/svg" width="800" height="400" viewBox="0 0 800 400">
<defs>
  <style>text { font-family: -apple-system, BlinkMacSystemFont, 'Segoe UI', Roboto, sans-serif; }</style>
  <linearGradient id="g5" x1="0" y1="0" x2="0" y2="1">
  <stop offset="0%" stop-color="#34C759" stop-opacity="0.25"/>
  <stop offset="100%" stop-color="#34C759" stop-opacity="0"/>
</linearGradient>
<linearGradient id="g6" x1="0" y1="0" x2="0" y2="1">
  <stop offset="0%" stop-color="#4F8EF7" stop-opacity="0.25"/>
  <stop offset="100%" stop-color="#4F8EF7" stop-opacity="0"/>
</linearGradient>
<linearGradient id="g7" x1="0" y1="0" x2="0" y2="1">
  <stop offset="0%" stop-color="#FF6363" stop-opacity="0.25"/>
  <stop offset="100%" stop-color="#FF6363" stop-opacity="0"/>
</linearGradient>
  <clipPath id="ca"><rect x="72" y="45" width="698" height="295"/></clipPath>
</defs>
<rect width="800" height="400" fill="#ffffff" rx="12"/>
<text x="400" y="26" text-anchor="middle" font-size="15" font-weight="600" fill="#111827">Platform Support Over Time</text>
<line x1="72" y1="340.0" x2="770" y2="340.0" stroke="#f3f4f6" stroke-width="1"/>
<text x="66" y="344.0" text-anchor="end" font-size="11" fill="#6b7280">0</text>
<line x1="72" y1="281.0" x2="770" y2="281.0" stroke="#f3f4f6" stroke-width="1"/>
<text x="66" y="285.0" text-anchor="end" font-size="11" fill="#6b7280">200</text>
<line x1="72" y1="222.0" x2="770" y2="222.0" stroke="#f3f4f6" stroke-width="1"/>
<text x="66" y="226.0" text-anchor="end" font-size="11" fill="#6b7280">400</text>
<line x1="72" y1="163.0" x2="770" y2="163.0" stroke="#f3f4f6" stroke-width="1"/>
<text x="66" y="167.0" text-anchor="end" font-size="11" fill="#6b7280">600</text>
<line x1="72" y1="104.0" x2="770" y2="104.0" stroke="#f3f4f6" stroke-width="1"/>
<text x="66" y="108.0" text-anchor="end" font-size="11" fill="#6b7280">800</text>
<line x1="72" y1="45.0" x2="770" y2="45.0" stroke="#f3f4f6" stroke-width="1"/>
<text x="66" y="49.0" text-anchor="end" font-size="11" fill="#6b7280">1.0k</text>
<line x1="125.7" y1="45" x2="125.7" y2="340" stroke="#e5e7eb" stroke-width="1" stroke-dasharray="3,3" clip-path="url(#ca)"/>
<line x1="242.0" y1="45" x2="242.0" y2="340" stroke="#e5e7eb" stroke-width="1" stroke-dasharray="3,3" clip-path="url(#ca)"/>
<line x1="362.8" y1="45" x2="362.8" y2="340" stroke="#e5e7eb" stroke-width="1" stroke-dasharray="3,3" clip-path="url(#ca)"/>
<line x1="483.6" y1="45" x2="483.6" y2="340" stroke="#e5e7eb" stroke-width="1" stroke-dasharray="3,3" clip-path="url(#ca)"/>
<line x1="604.4" y1="45" x2="604.4" y2="340" stroke="#e5e7eb" stroke-width="1" stroke-dasharray="3,3" clip-path="url(#ca)"/>
<line x1="720.8" y1="45" x2="720.8" y2="340" stroke="#e5e7eb" stroke-width="1" stroke-dasharray="3,3" clip-path="url(#ca)"/>
<text x="72.0" y="358.0" text-anchor="middle" font-size="11" fill="#6b7280">Dec 11</text>
<text x="210.7" y="358.0" text-anchor="middle" font-size="11" fill="#6b7280">Jan 25</text>
<text x="349.4" y="358.0" text-anchor="middle" font-size="11" fill="#6b7280">Feb 26</text>
<text x="492.6" y="358.0" text-anchor="middle" font-size="11" fill="#6b7280">Apr 3</text>
<text x="631.3" y="358.0" text-anchor="middle" font-size="11" fill="#6b7280">May 10</text>
<text x="770.0" y="358.0" text-anchor="middle" font-size="11" fill="#6b7280">Jun 16</text>
<line x1="72" y1="45" x2="72" y2="340" stroke="#e5e7eb" stroke-width="1"/>
<line x1="72" y1="340" x2="770" y2="340" stroke="#e5e7eb" stroke-width="1"/>
<text x="-192.5" y="18" text-anchor="middle" font-size="12" fill="#6b7280" transform="rotate(-90)">Extensions</text>
<path d="M 72.0,340 L 72.0,242.6 L 76.5,240.0 L 80.9,239.7 L 85.4,238.5 L 89.9,237.9 L 94.4,235.0 L 98.8,233.2 L 103.3,232.3 L 107.8,230.8 L 112.3,229.1 L 116.7,228.2 L 121.2,227.9 L 125.7,227.0 L 130.2,226.4 L 134.6,226.1 L 139.1,225.2 L 143.6,224.4 L 148.1,223.5 L 152.5,222.6 L 157.0,221.4 L 161.5,220.5 L 166.0,219.6 L 170.4,218.8 L 174.9,217.0 L 179.4,216.4 L 183.9,216.4 L 188.3,214.3 L 192.8,213.7 L 197.3,213.2 L 201.8,212.6 L 206.2,211.1 L 210.7,209.0 L 215.2,208.7 L 219.7,208.4 L 224.1,206.7 L 228.6,206.1 L 233.1,204.6 L 237.6,204.3 L 242.0,204.0 L 246.5,203.4 L 251.0,203.4 L 255.4,203.4 L 259.9,199.3 L 264.4,199.0 L 268.9,198.1 L 273.3,197.8 L 277.8,197.5 L 282.3,196.6 L 286.8,196.0 L 291.2,195.4 L 295.7,193.7 L 300.2,193.7 L 304.7,193.7 L 309.1,193.4 L 313.6,190.4 L 318.1,189.6 L 322.6,189.0 L 327.0,188.1 L 331.5,187.5 L 336.0,187.5 L 340.5,186.0 L 344.9,183.9 L 349.4,183.4 L 353.9,183.1 L 358.4,182.2 L 362.8,182.2 L 367.3,181.6 L 371.8,180.7 L 376.3,180.1 L 380.7,178.9 L 385.2,177.8 L 389.7,177.5 L 394.2,177.5 L 398.6,176.3 L 403.1,176.3 L 407.6,176.3 L 412.1,174.5 L 416.5,174.2 L 421.0,173.9 L 425.5,173.9 L 429.9,173.6 L 434.4,172.4 L 438.9,171.9 L 443.4,171.0 L 447.8,171.0 L 452.3,170.7 L 456.8,169.5 L 461.3,168.6 L 465.7,168.6 L 470.2,168.3 L 474.7,167.7 L 479.2,165.7 L 483.6,165.1 L 488.1,164.2 L 492.6,164.2 L 497.1,163.6 L 501.5,163.3 L 506.0,163.0 L 510.5,162.7 L 515.0,162.4 L 519.4,162.4 L 523.9,162.1 L 528.4,161.8 L 532.9,160.9 L 537.3,159.8 L 541.8,159.5 L 546.3,158.6 L 550.8,158.6 L 555.2,157.4 L 559.7,157.1 L 564.2,157.1 L 568.7,157.1 L 573.1,156.2 L 577.6,155.9 L 582.1,155.9 L 586.6,155.9 L 591.0,155.6 L 595.5,154.4 L 600.0,154.2 L 604.4,153.3 L 608.9,152.7 L 613.4,152.7 L 617.9,151.8 L 622.3,151.2 L 626.8,151.2 L 631.3,150.9 L 635.8,149.4 L 640.2,148.0 L 644.7,147.7 L 649.2,147.1 L 653.7,145.9 L 658.1,145.9 L 662.6,145.3 L 667.1,143.8 L 671.6,141.2 L 676.0,140.3 L 680.5,140.3 L 685.0,140.3 L 689.5,140.3 L 693.9,140.3 L 698.4,139.1 L 702.9,138.2 L 707.4,138.2 L 711.8,138.2 L 716.3,138.2 L 720.8,137.3 L 725.3,137.3 L 729.7,136.5 L 734.2,135.6 L 738.7,135.3 L 743.2,135.0 L 747.6,134.4 L 752.1,134.4 L 756.6,133.5 L 761.1,132.3 L 765.5,131.4 L 770.0,129.7 L 770.0,340 Z" fill="url(#g5)" clip-path="url(#ca)"/>
<path d="M 72.0,242.6 L 76.5,240.0 L 80.9,239.7 L 85.4,238.5 L 89.9,237.9 L 94.4,235.0 L 98.8,233.2 L 103.3,232.3 L 107.8,230.8 L 112.3,229.1 L 116.7,228.2 L 121.2,227.9 L 125.7,227.0 L 130.2,226.4 L 134.6,226.1 L 139.1,225.2 L 143.6,224.4 L 148.1,223.5 L 152.5,222.6 L 157.0,221.4 L 161.5,220.5 L 166.0,219.6 L 170.4,218.8 L 174.9,217.0 L 179.4,216.4 L 183.9,216.4 L 188.3,214.3 L 192.8,213.7 L 197.3,213.2 L 201.8,212.6 L 206.2,211.1 L 210.7,209.0 L 215.2,208.7 L 219.7,208.4 L 224.1,206.7 L 228.6,206.1 L 233.1,204.6 L 237.6,204.3 L 242.0,204.0 L 246.5,203.4 L 251.0,203.4 L 255.4,203.4 L 259.9,199.3 L 264.4,199.0 L 268.9,198.1 L 273.3,197.8 L 277.8,197.5 L 282.3,196.6 L 286.8,196.0 L 291.2,195.4 L 295.7,193.7 L 300.2,193.7 L 304.7,193.7 L 309.1,193.4 L 313.6,190.4 L 318.1,189.6 L 322.6,189.0 L 327.0,188.1 L 331.5,187.5 L 336.0,187.5 L 340.5,186.0 L 344.9,183.9 L 349.4,183.4 L 353.9,183.1 L 358.4,182.2 L 362.8,182.2 L 367.3,181.6 L 371.8,180.7 L 376.3,180.1 L 380.7,178.9 L 385.2,177.8 L 389.7,177.5 L 394.2,177.5 L 398.6,176.3 L 403.1,176.3 L 407.6,176.3 L 412.1,174.5 L 416.5,174.2 L 421.0,173.9 L 425.5,173.9 L 429.9,173.6 L 434.4,172.4 L 438.9,171.9 L 443.4,171.0 L 447.8,171.0 L 452.3,170.7 L 456.8,169.5 L 461.3,168.6 L 465.7,168.6 L 470.2,168.3 L 474.7,167.7 L 479.2,165.7 L 483.6,165.1 L 488.1,164.2 L 492.6,164.2 L 497.1,163.6 L 501.5,163.3 L 506.0,163.0 L 510.5,162.7 L 515.0,162.4 L 519.4,162.4 L 523.9,162.1 L 528.4,161.8 L 532.9,160.9 L 537.3,159.8 L 541.8,159.5 L 546.3,158.6 L 550.8,158.6 L 555.2,157.4 L 559.7,157.1 L 564.2,157.1 L 568.7,157.1 L 573.1,156.2 L 577.6,155.9 L 582.1,155.9 L 586.6,155.9 L 591.0,155.6 L 595.5,154.4 L 600.0,154.2 L 604.4,153.3 L 608.9,152.7 L 613.4,152.7 L 617.9,151.8 L 622.3,151.2 L 626.8,151.2 L 631.3,150.9 L 635.8,149.4 L 640.2,148.0 L 644.7,147.7 L 649.2,147.1 L 653.7,145.9 L 658.1,145.9 L 662.6,145.3 L 667.1,143.8 L 671.6,141.2 L 676.0,140.3 L 680.5,140.3 L 685.0,140.3 L 689.5,140.3 L 693.9,140.3 L 698.4,139.1 L 702.9,138.2 L 707.4,138.2 L 711.8,138.2 L 716.3,138.2 L 720.8,137.3 L 725.3,137.3 L 729.7,136.5 L 734.2,135.6 L 738.7,135.3 L 743.2,135.0 L 747.6,134.4 L 752.1,134.4 L 756.6,133.5 L 761.1,132.3 L 765.5,131.4 L 770.0,129.7" fill="none" stroke="#34C759" stroke-width="2.5" stroke-linejoin="round" clip-path="url(#ca)"/>
<path d="M 72.0,340 L 72.0,222.6 L 76.5,222.6 L 80.9,222.3 L 85.4,221.4 L 89.9,221.7 L 94.4,221.7 L 98.8,220.5 L 103.3,219.6 L 107.8,219.6 L 112.3,219.9 L 116.7,219.6 L 121.2,219.3 L 125.7,219.1 L 130.2,219.1 L 134.6,219.1 L 139.1,219.3 L 143.6,218.8 L 148.1,218.2 L 152.5,216.4 L 157.0,215.2 L 161.5,215.2 L 166.0,214.9 L 170.4,213.2 L 174.9,210.5 L 179.4,209.6 L 183.9,209.0 L 188.3,207.0 L 192.8,205.5 L 197.3,204.9 L 201.8,204.3 L 206.2,203.7 L 210.7,203.4 L 215.2,203.4 L 219.7,201.3 L 224.1,200.8 L 228.6,200.2 L 233.1,200.2 L 237.6,198.7 L 242.0,198.4 L 246.5,197.5 L 251.0,196.3 L 255.4,194.9 L 259.9,192.8 L 264.4,190.7 L 268.9,190.4 L 273.3,189.8 L 277.8,189.3 L 282.3,187.5 L 286.8,187.5 L 291.2,186.9 L 295.7,186.0 L 300.2,185.4 L 304.7,184.2 L 309.1,184.5 L 313.6,181.0 L 318.1,180.7 L 322.6,180.4 L 327.0,179.8 L 331.5,178.0 L 336.0,178.0 L 340.5,176.3 L 344.9,174.2 L 349.4,174.2 L 353.9,174.2 L 358.4,173.9 L 362.8,173.6 L 367.3,173.3 L 371.8,171.9 L 376.3,170.1 L 380.7,169.5 L 385.2,168.3 L 389.7,168.3 L 394.2,167.4 L 398.6,165.7 L 403.1,164.8 L 407.6,164.5 L 412.1,162.4 L 416.5,162.1 L 421.0,162.1 L 425.5,161.8 L 429.9,161.8 L 434.4,160.3 L 438.9,159.8 L 443.4,158.9 L 447.8,158.6 L 452.3,158.0 L 456.8,155.6 L 461.3,152.4 L 465.7,152.1 L 470.2,151.5 L 474.7,151.2 L 479.2,149.7 L 483.6,118.5 L 488.1,117.9 L 492.6,116.4 L 497.1,116.4 L 501.5,116.4 L 506.0,116.7 L 510.5,116.4 L 515.0,114.6 L 519.4,114.0 L 523.9,113.7 L 528.4,113.4 L 532.9,112.3 L 537.3,110.5 L 541.8,110.5 L 546.3,110.5 L 550.8,110.2 L 555.2,109.9 L 559.7,109.9 L 564.2,109.3 L 568.7,108.4 L 573.1,106.9 L 577.6,106.4 L 582.1,106.1 L 586.6,106.1 L 591.0,105.8 L 595.5,105.2 L 600.0,104.9 L 604.4,103.4 L 608.9,103.4 L 613.4,102.8 L 617.9,101.6 L 622.3,100.2 L 626.8,99.9 L 631.3,99.6 L 635.8,96.9 L 640.2,96.3 L 644.7,95.7 L 649.2,95.7 L 653.7,94.6 L 658.1,94.0 L 662.6,92.5 L 667.1,91.9 L 671.6,91.0 L 676.0,90.7 L 680.5,89.5 L 685.0,88.7 L 689.5,88.4 L 693.9,87.8 L 698.4,86.6 L 702.9,86.0 L 707.4,85.1 L 711.8,84.5 L 716.3,84.2 L 720.8,83.6 L 725.3,82.8 L 729.7,82.2 L 734.2,81.6 L 738.7,80.7 L 743.2,80.7 L 747.6,80.1 L 752.1,78.6 L 756.6,77.2 L 761.1,76.3 L 765.5,76.6 L 770.0,76.0 L 770.0,340 Z" fill="url(#g6)" clip-path="url(#ca)"/>
<path d="M 72.0,222.6 L 76.5,222.6 L 80.9,222.3 L 85.4,221.4 L 89.9,221.7 L 94.4,221.7 L 98.8,220.5 L 103.3,219.6 L 107.8,219.6 L 112.3,219.9 L 116.7,219.6 L 121.2,219.3 L 125.7,219.1 L 130.2,219.1 L 134.6,219.1 L 139.1,219.3 L 143.6,218.8 L 148.1,218.2 L 152.5,216.4 L 157.0,215.2 L 161.5,215.2 L 166.0,214.9 L 170.4,213.2 L 174.9,210.5 L 179.4,209.6 L 183.9,209.0 L 188.3,207.0 L 192.8,205.5 L 197.3,204.9 L 201.8,204.3 L 206.2,203.7 L 210.7,203.4 L 215.2,203.4 L 219.7,201.3 L 224.1,200.8 L 228.6,200.2 L 233.1,200.2 L 237.6,198.7 L 242.0,198.4 L 246.5,197.5 L 251.0,196.3 L 255.4,194.9 L 259.9,192.8 L 264.4,190.7 L 268.9,190.4 L 273.3,189.8 L 277.8,189.3 L 282.3,187.5 L 286.8,187.5 L 291.2,186.9 L 295.7,186.0 L 300.2,185.4 L 304.7,184.2 L 309.1,184.5 L 313.6,181.0 L 318.1,180.7 L 322.6,180.4 L 327.0,179.8 L 331.5,178.0 L 336.0,178.0 L 340.5,176.3 L 344.9,174.2 L 349.4,174.2 L 353.9,174.2 L 358.4,173.9 L 362.8,173.6 L 367.3,173.3 L 371.8,171.9 L 376.3,170.1 L 380.7,169.5 L 385.2,168.3 L 389.7,168.3 L 394.2,167.4 L 398.6,165.7 L 403.1,164.8 L 407.6,164.5 L 412.1,162.4 L 416.5,162.1 L 421.0,162.1 L 425.5,161.8 L 429.9,161.8 L 434.4,160.3 L 438.9,159.8 L 443.4,158.9 L 447.8,158.6 L 452.3,158.0 L 456.8,155.6 L 461.3,152.4 L 465.7,152.1 L 470.2,151.5 L 474.7,151.2 L 479.2,149.7 L 483.6,118.5 L 488.1,117.9 L 492.6,116.4 L 497.1,116.4 L 501.5,116.4 L 506.0,116.7 L 510.5,116.4 L 515.0,114.6 L 519.4,114.0 L 523.9,113.7 L 528.4,113.4 L 532.9,112.3 L 537.3,110.5 L 541.8,110.5 L 546.3,110.5 L 550.8,110.2 L 555.2,109.9 L 559.7,109.9 L 564.2,109.3 L 568.7,108.4 L 573.1,106.9 L 577.6,106.4 L 582.1,106.1 L 586.6,106.1 L 591.0,105.8 L 595.5,105.2 L 600.0,104.9 L 604.4,103.4 L 608.9,103.4 L 613.4,102.8 L 617.9,101.6 L 622.3,100.2 L 626.8,99.9 L 631.3,99.6 L 635.8,96.9 L 640.2,96.3 L 644.7,95.7 L 649.2,95.7 L 653.7,94.6 L 658.1,94.0 L 662.6,92.5 L 667.1,91.9 L 671.6,91.0 L 676.0,90.7 L 680.5,89.5 L 685.0,88.7 L 689.5,88.4 L 693.9,87.8 L 698.4,86.6 L 702.9,86.0 L 707.4,85.1 L 711.8,84.5 L 716.3,84.2 L 720.8,83.6 L 725.3,82.8 L 729.7,82.2 L 734.2,81.6 L 738.7,80.7 L 743.2,80.7 L 747.6,80.1 L 752.1,78.6 L 756.6,77.2 L 761.1,76.3 L 765.5,76.6 L 770.0,76.0" fill="none" stroke="#4F8EF7" stroke-width="2.5" stroke-linejoin="round" clip-path="url(#ca)"/>
<path d="M 72.0,340 L 72.0,338.2 L 76.5,337.9 L 80.9,337.9 L 85.4,337.6 L 89.9,337.6 L 94.4,337.6 L 98.8,337.6 L 103.3,337.6 L 107.8,337.1 L 112.3,337.1 L 116.7,337.1 L 121.2,337.1 L 125.7,337.1 L 130.2,336.8 L 134.6,336.8 L 139.1,336.8 L 143.6,336.8 L 148.1,336.8 L 152.5,336.5 L 157.0,335.9 L 161.5,335.6 L 166.0,335.6 L 170.4,335.6 L 174.9,335.3 L 179.4,335.3 L 183.9,335.3 L 188.3,335.0 L 192.8,335.0 L 197.3,335.0 L 201.8,334.7 L 206.2,334.7 L 210.7,334.7 L 215.2,334.7 L 219.7,334.4 L 224.1,334.4 L 228.6,334.4 L 233.1,334.4 L 237.6,334.4 L 242.0,334.4 L 246.5,334.4 L 251.0,334.4 L 255.4,334.4 L 259.9,334.4 L 264.4,334.4 L 268.9,334.4 L 273.3,334.4 L 277.8,334.1 L 282.3,334.1 L 286.8,334.1 L 291.2,334.1 L 295.7,334.1 L 300.2,334.1 L 304.7,334.1 L 309.1,334.1 L 313.6,334.1 L 318.1,334.1 L 322.6,334.1 L 327.0,334.1 L 331.5,333.8 L 336.0,333.8 L 340.5,333.8 L 344.9,333.8 L 349.4,333.8 L 353.9,333.8 L 358.4,333.8 L 362.8,333.8 L 367.3,333.8 L 371.8,333.8 L 376.3,333.8 L 380.7,333.8 L 385.2,333.8 L 389.7,333.8 L 394.2,333.8 L 398.6,333.8 L 403.1,333.8 L 407.6,333.8 L 412.1,333.8 L 416.5,333.8 L 421.0,333.8 L 425.5,333.8 L 429.9,333.8 L 434.4,333.8 L 438.9,333.8 L 443.4,333.8 L 447.8,333.8 L 452.3,333.8 L 456.8,333.8 L 461.3,333.8 L 465.7,333.8 L 470.2,333.8 L 474.7,333.8 L 479.2,333.8 L 483.6,333.8 L 488.1,333.8 L 492.6,333.5 L 497.1,333.5 L 501.5,333.5 L 506.0,333.5 L 510.5,333.5 L 515.0,333.2 L 519.4,333.2 L 523.9,333.2 L 528.4,333.2 L 532.9,332.9 L 537.3,332.9 L 541.8,332.6 L 546.3,332.6 L 550.8,332.6 L 555.2,332.6 L 559.7,332.6 L 564.2,332.6 L 568.7,332.6 L 573.1,332.6 L 577.6,332.6 L 582.1,332.6 L 586.6,332.6 L 591.0,332.6 L 595.5,332.6 L 600.0,332.6 L 604.4,332.6 L 608.9,332.6 L 613.4,332.6 L 617.9,332.6 L 622.3,332.6 L 626.8,332.6 L 631.3,332.6 L 635.8,332.6 L 640.2,332.6 L 644.7,332.6 L 649.2,332.6 L 653.7,332.6 L 658.1,332.6 L 662.6,332.6 L 667.1,332.6 L 671.6,332.6 L 676.0,332.6 L 680.5,332.6 L 685.0,332.6 L 689.5,332.6 L 693.9,332.6 L 698.4,332.6 L 702.9,332.6 L 707.4,332.6 L 711.8,332.6 L 716.3,332.6 L 720.8,332.6 L 725.3,332.6 L 729.7,332.6 L 734.2,332.6 L 738.7,332.6 L 743.2,332.6 L 747.6,332.6 L 752.1,332.6 L 756.6,332.3 L 761.1,332.3 L 765.5,332.3 L 770.0,332.3 L 770.0,340 Z" fill="url(#g7)" clip-path="url(#ca)"/>
<path d="M 72.0,338.2 L 76.5,337.9 L 80.9,337.9 L 85.4,337.6 L 89.9,337.6 L 94.4,337.6 L 98.8,337.6 L 103.3,337.6 L 107.8,337.1 L 112.3,337.1 L 116.7,337.1 L 121.2,337.1 L 125.7,337.1 L 130.2,336.8 L 134.6,336.8 L 139.1,336.8 L 143.6,336.8 L 148.1,336.8 L 152.5,336.5 L 157.0,335.9 L 161.5,335.6 L 166.0,335.6 L 170.4,335.6 L 174.9,335.3 L 179.4,335.3 L 183.9,335.3 L 188.3,335.0 L 192.8,335.0 L 197.3,335.0 L 201.8,334.7 L 206.2,334.7 L 210.7,334.7 L 215.2,334.7 L 219.7,334.4 L 224.1,334.4 L 228.6,334.4 L 233.1,334.4 L 237.6,334.4 L 242.0,334.4 L 246.5,334.4 L 251.0,334.4 L 255.4,334.4 L 259.9,334.4 L 264.4,334.4 L 268.9,334.4 L 273.3,334.4 L 277.8,334.1 L 282.3,334.1 L 286.8,334.1 L 291.2,334.1 L 295.7,334.1 L 300.2,334.1 L 304.7,334.1 L 309.1,334.1 L 313.6,334.1 L 318.1,334.1 L 322.6,334.1 L 327.0,334.1 L 331.5,333.8 L 336.0,333.8 L 340.5,333.8 L 344.9,333.8 L 349.4,333.8 L 353.9,333.8 L 358.4,333.8 L 362.8,333.8 L 367.3,333.8 L 371.8,333.8 L 376.3,333.8 L 380.7,333.8 L 385.2,333.8 L 389.7,333.8 L 394.2,333.8 L 398.6,333.8 L 403.1,333.8 L 407.6,333.8 L 412.1,333.8 L 416.5,333.8 L 421.0,333.8 L 425.5,333.8 L 429.9,333.8 L 434.4,333.8 L 438.9,333.8 L 443.4,333.8 L 447.8,333.8 L 452.3,333.8 L 456.8,333.8 L 461.3,333.8 L 465.7,333.8 L 470.2,333.8 L 474.7,333.8 L 479.2,333.8 L 483.6,333.8 L 488.1,333.8 L 492.6,333.5 L 497.1,333.5 L 501.5,333.5 L 506.0,333.5 L 510.5,333.5 L 515.0,333.2 L 519.4,333.2 L 523.9,333.2 L 528.4,333.2 L 532.9,332.9 L 537.3,332.9 L 541.8,332.6 L 546.3,332.6 L 550.8,332.6 L 555.2,332.6 L 559.7,332.6 L 564.2,332.6 L 568.7,332.6 L 573.1,332.6 L 577.6,332.6 L 582.1,332.6 L 586.6,332.6 L 591.0,332.6 L 595.5,332.6 L 600.0,332.6 L 604.4,332.6 L 608.9,332.6 L 613.4,332.6 L 617.9,332.6 L 622.3,332.6 L 626.8,332.6 L 631.3,332.6 L 635.8,332.6 L 640.2,332.6 L 644.7,332.6 L 649.2,332.6 L 653.7,332.6 L 658.1,332.6 L 662.6,332.6 L 667.1,332.6 L 671.6,332.6 L 676.0,332.6 L 680.5,332.6 L 685.0,332.6 L 689.5,332.6 L 693.9,332.6 L 698.4,332.6 L 702.9,332.6 L 707.4,332.6 L 711.8,332.6 L 716.3,332.6 L 720.8,332.6 L 725.3,332.6 L 729.7,332.6 L 734.2,332.6 L 738.7,332.6 L 743.2,332.6 L 747.6,332.6 L 752.1,332.6 L 756.6,332.3 L 761.1,332.3 L 765.5,332.3 L 770.0,332.3" fill="none" stroke="#FF6363" stroke-width="2.5" stroke-linejoin="round" clip-path="url(#ca)"/>
<text x="96.6" y="55.0" text-anchor="middle" font-size="9" fill="#34C759" opacity="0.85" clip-path="url(#ca)">+15.2% (+50)</text>
<text x="96.6" y="66.0" text-anchor="middle" font-size="9" fill="#4F8EF7" opacity="0.85" clip-path="url(#ca)">+2.8% (+11)</text>
<text x="96.6" y="77.0" text-anchor="middle" font-size="9" fill="#FF6363" opacity="0.85" clip-path="url(#ca)">+66.7% (+4)</text>
<text x="181.6" y="55.0" text-anchor="middle" font-size="9" fill="#34C759" opacity="0.85" clip-path="url(#ca)">+20.1% (+77)</text>
<text x="181.6" y="66.0" text-anchor="middle" font-size="9" fill="#4F8EF7" opacity="0.85" clip-path="url(#ca)">+16.8% (+69)</text>
<text x="181.6" y="77.0" text-anchor="middle" font-size="9" fill="#FF6363" opacity="0.85" clip-path="url(#ca)">+90.0% (+9)</text>
<text x="300.2" y="55.0" text-anchor="middle" font-size="9" fill="#34C759" opacity="0.85" clip-path="url(#ca)">+16.1% (+74)</text>
<text x="300.2" y="66.0" text-anchor="middle" font-size="9" fill="#4F8EF7" opacity="0.85" clip-path="url(#ca)">+17.3% (+83)</text>
<text x="300.2" y="77.0" text-anchor="middle" font-size="9" fill="#FF6363" opacity="0.85" clip-path="url(#ca)">+10.5% (+2)</text>
<text x="421.0" y="55.0" text-anchor="middle" font-size="9" fill="#34C759" opacity="0.85" clip-path="url(#ca)">+10.5% (+56)</text>
<text x="421.0" y="66.0" text-anchor="middle" font-size="9" fill="#4F8EF7" opacity="0.85" clip-path="url(#ca)">+14.4% (+81)</text>
<text x="421.0" y="77.0" text-anchor="middle" font-size="9" fill="#FF6363" opacity="0.85" clip-path="url(#ca)">+0.0% (+0)</text>
<text x="541.8" y="55.0" text-anchor="middle" font-size="9" fill="#34C759" opacity="0.85" clip-path="url(#ca)">+6.2% (+37)</text>
<text x="541.8" y="66.0" text-anchor="middle" font-size="9" fill="#4F8EF7" opacity="0.85" clip-path="url(#ca)">+6.1% (+46)</text>
<text x="541.8" y="77.0" text-anchor="middle" font-size="9" fill="#FF6363" opacity="0.85" clip-path="url(#ca)">+19.0% (+4)</text>
<text x="660.4" y="55.0" text-anchor="middle" font-size="9" fill="#34C759" opacity="0.85" clip-path="url(#ca)">+8.1% (+51)</text>
<text x="660.4" y="66.0" text-anchor="middle" font-size="9" fill="#4F8EF7" opacity="0.85" clip-path="url(#ca)">+8.1% (+65)</text>
<text x="660.4" y="77.0" text-anchor="middle" font-size="9" fill="#FF6363" opacity="0.85" clip-path="url(#ca)">+0.0% (+0)</text>
<text x="745.4" y="55.0" text-anchor="middle" font-size="9" fill="#34C759" opacity="0.85" clip-path="url(#ca)">+3.8% (+26)</text>
<text x="745.4" y="66.0" text-anchor="middle" font-size="9" fill="#4F8EF7" opacity="0.85" clip-path="url(#ca)">+3.0% (+26)</text>
<text x="745.4" y="77.0" text-anchor="middle" font-size="9" fill="#FF6363" opacity="0.85" clip-path="url(#ca)">+4.0% (+1)</text>
<rect x="211" y="369" width="12" height="12" fill="#34C759" rx="2"/>
<text x="227" y="379" font-size="12" fill="#111827">macOS + Windows</text>
<rect x="351" y="369" width="12" height="12" fill="#4F8EF7" rx="2"/>
<text x="367" y="379" font-size="12" fill="#111827">macOS only</text>
<rect x="491" y="369" width="12" height="12" fill="#FF6363" rx="2"/>
<text x="507" y="379" font-size="12" fill="#111827">Windows only</text>
<text x="72" y="394" font-size="8" fill="#e5e7eb">data since Dec 11, 2025</text>
</svg>