<svg xmlns="http://www.w3.org/2000/svg" width="800" height="400" viewBox="0 0 800 400">
<defs>
  <style>text { font-family: -apple-system, BlinkMacSystemFont, 'Segoe UI', Roboto, sans-serif; }</style>
  <linearGradient id="g1" x1="0" y1="0" x2="0" y2="1">
  <stop offset="0%" stop-color="#FF6363" stop-opacity="0.25"/>
  <stop offset="100%" stop-color="#FF6363" stop-opacity="0"/>
</linearGradient>
  <clipPath id="ca"><rect x="72" y="45" width="698" height="295"/></clipPath>
</defs>
<rect width="800" height="400" fill="#ffffff" rx="12"/>
<text x="400" y="26" text-anchor="middle" font-size="15" font-weight="600" fill="#111827">Packages Growth Over Time</text>
<line x1="72" y1="340.0" x2="770" y2="340.0" stroke="#f3f4f6" stroke-width="1"/>
<text x="66" y="344.0" text-anchor="end" font-size="11" fill="#6b7280">2.4k</text>
<line x1="72" y1="290.8" x2="770" y2="290.8" stroke="#f3f4f6" stroke-width="1"/>
<text x="66" y="294.8" text-anchor="end" font-size="11" fill="#6b7280">2.5k</text>
<line x1="72" y1="241.7" x2="770" y2="241.7" stroke="#f3f4f6" stroke-width="1"/>
<text x="66" y="245.7" text-anchor="end" font-size="11" fill="#6b7280">2.6k</text>
<line x1="72" y1="192.5" x2="770" y2="192.5" stroke="#f3f4f6" stroke-width="1"/>
<text x="66" y="196.5" text-anchor="end" font-size="11" fill="#6b7280">2.7k</text>
<line x1="72" y1="143.3" x2="770" y2="143.3" stroke="#f3f4f6" stroke-width="1"/>
<text x="66" y="147.3" text-anchor="end" font-size="11" fill="#6b7280">2.8k</text>
<line x1="72" y1="94.2" x2="770" y2="94.2" stroke="#f3f4f6" stroke-width="1"/>
<text x="66" y="98.2" text-anchor="end" font-size="11" fill="#6b7280">2.9k</text>
<line x1="72" y1="45.0" x2="770" y2="45.0" stroke="#f3f4f6" stroke-width="1"/>
<text x="66" y="49.0" text-anchor="end" font-size="11" fill="#6b7280">3.0k</text>
<line x1="130.6" y1="45" x2="130.6" y2="340" stroke="#e5e7eb" stroke-width="1" stroke-dasharray="3,3" clip-path="url(#ca)"/>
<line x1="257.5" y1="45" x2="257.5" y2="340" stroke="#e5e7eb" stroke-width="1" stroke-dasharray="3,3" clip-path="url(#ca)"/>
<line x1="389.3" y1="45" x2="389.3" y2="340" stroke="#e5e7eb" stroke-width="1" stroke-dasharray="3,3" clip-path="url(#ca)"/>
<line x1="521.1" y1="45" x2="521.1" y2="340" stroke="#e5e7eb" stroke-width="1" stroke-dasharray="3,3" clip-path="url(#ca)"/>
<line x1="652.9" y1="45" x2="652.9" y2="340" stroke="#e5e7eb" stroke-width="1" stroke-dasharray="3,3" clip-path="url(#ca)"/>
<text x="72.0" y="358.0" text-anchor="middle" font-size="11" fill="#6b7280">Dec 11</text>
<text x="213.6" y="358.0" text-anchor="middle" font-size="11" fill="#6b7280">Jan 23</text>
<text x="350.2" y="358.0" text-anchor="middle" font-size="11" fill="#6b7280">Feb 20</text>
<text x="491.8" y="358.0" text-anchor="middle" font-size="11" fill="#6b7280">Mar 24</text>
<text x="628.4" y="358.0" text-anchor="middle" font-size="11" fill="#6b7280">Apr 25</text>
<text x="770.0" y="358.0" text-anchor="middle" font-size="11" fill="#6b7280">May 30</text>
<line x1="72" y1="45" x2="72" y2="340" stroke="#e5e7eb" stroke-width="1"/>
<line x1="72" y1="340" x2="770" y2="340" stroke="#e5e7eb" stroke-width="1"/>
<text x="-192.5" y="18" text-anchor="middle" font-size="12" fill="#6b7280" transform="rotate(-90)">Extensions</text>
<path d="M 72.0,340 L 72.0,302.1 L 76.9,301.6 L 81.8,301.6 L 86.6,300.2 L 91.5,300.2 L 96.4,299.2 L 101.3,298.2 L 106.2,297.7 L 111.0,295.3 L 115.9,293.3 L 120.8,293.3 L 125.7,293.3 L 130.6,293.3 L 135.5,292.3 L 140.3,292.3 L 145.2,292.3 L 150.1,291.3 L 155.0,289.4 L 159.9,285.9 L 164.7,283.5 L 169.6,282.5 L 174.5,282.0 L 179.4,280.0 L 184.3,274.1 L 189.1,272.1 L 194.0,272.1 L 198.9,267.2 L 203.8,265.8 L 208.7,263.8 L 213.6,262.3 L 218.4,259.4 L 223.3,256.9 L 228.2,256.4 L 233.1,252.5 L 238.0,249.0 L 242.8,249.0 L 247.7,246.6 L 252.6,244.6 L 257.5,244.1 L 262.4,243.6 L 267.2,243.1 L 272.1,241.7 L 277.0,232.8 L 281.9,228.9 L 286.8,226.9 L 291.7,225.9 L 296.5,224.5 L 301.4,221.0 L 306.3,220.0 L 311.2,219.1 L 316.1,216.1 L 320.9,215.1 L 325.8,214.1 L 330.7,214.1 L 335.6,205.3 L 340.5,204.3 L 345.3,203.3 L 350.2,201.3 L 355.1,198.9 L 360.0,198.9 L 364.9,195.0 L 369.7,188.6 L 374.6,187.6 L 379.5,188.1 L 384.4,186.6 L 389.3,186.1 L 394.2,186.1 L 399.0,183.2 L 403.9,180.7 L 408.8,178.7 L 413.7,176.3 L 418.6,175.8 L 423.4,175.8 L 428.3,172.3 L 433.2,171.4 L 438.1,170.9 L 443.0,165.0 L 447.8,164.5 L 452.7,164.5 L 457.6,164.5 L 462.5,164.0 L 467.4,161.5 L 472.3,159.6 L 477.1,157.1 L 482.0,156.6 L 486.9,155.1 L 491.8,150.7 L 496.7,146.8 L 501.5,146.3 L 506.4,145.8 L 511.3,144.3 L 516.2,139.4 L 521.1,138.4 L 525.9,136.9 L 530.8,134.0 L 535.7,133.5 L 540.6,133.0 L 545.5,133.0 L 550.3,132.0 L 555.2,129.1 L 560.1,128.1 L 565.0,127.1 L 569.9,126.6 L 574.8,125.6 L 579.6,120.7 L 584.5,120.2 L 589.4,119.2 L 594.3,118.8 L 599.2,116.3 L 604.0,115.8 L 608.9,115.3 L 613.8,113.8 L 618.7,111.9 L 623.6,111.9 L 628.4,111.9 L 633.3,111.9 L 638.2,110.9 L 643.1,108.4 L 648.0,107.9 L 652.9,105.5 L 657.7,105.0 L 662.6,104.5 L 667.5,101.5 L 672.4,98.6 L 677.3,98.1 L 682.1,97.6 L 687.0,91.2 L 691.9,89.3 L 696.8,87.8 L 701.7,87.3 L 706.5,83.8 L 711.4,83.8 L 716.3,81.4 L 721.2,79.9 L 726.1,75.0 L 731.0,73.0 L 735.8,72.5 L 740.7,72.0 L 745.6,72.0 L 750.5,71.6 L 755.4,68.6 L 760.2,66.1 L 765.1,66.1 L 770.0,65.6 L 770.0,340 Z" fill="url(#g1)" clip-path="url(#ca)"/>
<path d="M 72.0,302.1 L 76.9,301.6 L 81.8,301.6 L 86.6,300.2 L 91.5,300.2 L 96.4,299.2 L 101.3,298.2 L 106.2,297.7 L 111.0,295.3 L 115.9,293.3 L 120.8,293.3 L 125.7,293.3 L 130.6,293.3 L 135.5,292.3 L 140.3,292.3 L 145.2,292.3 L 150.1,291.3 L 155.0,289.4 L 159.9,285.9 L 164.7,283.5 L 169.6,282.5 L 174.5,282.0 L 179.4,280.0 L 184.3,274.1 L 189.1,272.1 L 194.0,272.1 L 198.9,267.2 L 203.8,265.8 L 208.7,263.8 L 213.6,262.3 L 218.4,259.4 L 223.3,256.9 L 228.2,256.4 L 233.1,252.5 L 238.0,249.0 L 242.8,249.0 L 247.7,246.6 L 252.6,244.6 L 257.5,244.1 L 262.4,243.6 L 267.2,243.1 L 272.1,241.7 L 277.0,232.8 L 281.9,228.9 L 286.8,226.9 L 291.7,225.9 L 296.5,224.5 L 301.4,221.0 L 306.3,220.0 L 311.2,219.1 L 316.1,216.1 L 320.9,215.1 L 325.8,214.1 L 330.7,214.1 L 335.6,205.3 L 340.5,204.3 L 345.3,203.3 L 350.2,201.3 L 355.1,198.9 L 360.0,198.9 L 364.9,195.0 L 369.7,188.6 L 374.6,187.6 L 379.5,188.1 L 384.4,186.6 L 389.3,186.1 L 394.2,186.1 L 399.0,183.2 L 403.9,180.7 L 408.8,178.7 L 413.7,176.3 L 418.6,175.8 L 423.4,175.8 L 428.3,172.3 L 433.2,171.4 L 438.1,170.9 L 443.0,165.0 L 447.8,164.5 L 452.7,164.5 L 457.6,164.5 L 462.5,164.0 L 467.4,161.5 L 472.3,159.6 L 477.1,157.1 L 482.0,156.6 L 486.9,155.1 L 491.8,150.7 L 496.7,146.8 L 501.5,146.3 L 506.4,145.8 L 511.3,144.3 L 516.2,139.4 L 521.1,138.4 L 525.9,136.9 L 530.8,134.0 L 535.7,133.5 L 540.6,133.0 L 545.5,133.0 L 550.3,132.0 L 555.2,129.1 L 560.1,128.1 L 565.0,127.1 L 569.9,126.6 L 574.8,125.6 L 579.6,120.7 L 584.5,120.2 L 589.4,119.2 L 594.3,118.8 L 599.2,116.3 L 604.0,115.8 L 608.9,115.3 L 613.8,113.8 L 618.7,111.9 L 623.6,111.9 L 628.4,111.9 L 633.3,111.9 L 638.2,110.9 L 643.1,108.4 L 648.0,107.9 L 652.9,105.5 L 657.7,105.0 L 662.6,104.5 L 667.5,101.5 L 672.4,98.6 L 677.3,98.1 L 682.1,97.6 L 687.0,91.2 L 691.9,89.3 L 696.8,87.8 L 701.7,87.3 L 706.5,83.8 L 711.4,83.8 L 716.3,81.4 L 721.2,79.9 L 726.1,75.0 L 731.0,73.0 L 735.8,72.5 L 740.7,72.0 L 745.6,72.0 L 750.5,71.6 L 755.4,68.6 L 760.2,66.1 L 765.1,66.1 L 770.0,65.6" fill="none" stroke="#FF6363" stroke-width="2.5" stroke-linejoin="round" clip-path="url(#ca)"/>
<text x="98.8" y="55.0" text-anchor="middle" font-size="9" fill="#FF6363" opacity="0.85" clip-path="url(#ca)">+0.7% (+18)</text>
<text x="191.6" y="55.0" text-anchor="middle" font-size="9" fill="#FF6363" opacity="0.85" clip-path="url(#ca)">+4.0% (+99)</text>
<text x="320.9" y="55.0" text-anchor="middle" font-size="9" fill="#FF6363" opacity="0.85" clip-path="url(#ca)">+4.5% (+117)</text>
<text x="452.7" y="55.0" text-anchor="middle" font-size="9" fill="#FF6363" opacity="0.85" clip-path="url(#ca)">+3.5% (+95)</text>
<text x="584.5" y="55.0" text-anchor="middle" font-size="9" fill="#FF6363" opacity="0.85" clip-path="url(#ca)">+2.2% (+62)</text>
<text x="711.4" y="55.0" text-anchor="middle" font-size="9" fill="#FF6363" opacity="0.85" clip-path="url(#ca)">+2.8% (+81)</text>
<rect x="351" y="369" width="12" height="12" fill="#FF6363" rx="2"/>
<text x="367" y="379" font-size="12" fill="#111827">Extensions</text>
<text x="72" y="394" font-size="8" fill="#e5e7eb">data since Dec 11, 2025</text>
</svg>