<svg xmlns="http://www.w3.org/2000/svg" width="800" height="400" viewBox="0 0 800 400">
<defs>
  <style>text { font-family: -apple-system, BlinkMacSystemFont, 'Segoe UI', Roboto, sans-serif; }</style>
  <linearGradient id="g2" x1="0" y1="0" x2="0" y2="1">
  <stop offset="0%" stop-color="#4F8EF7" stop-opacity="0.25"/>
  <stop offset="100%" stop-color="#4F8EF7" stop-opacity="0"/>
</linearGradient>
<linearGradient id="g3" x1="0" y1="0" x2="0" y2="1">
  <stop offset="0%" stop-color="#BF5AF2" stop-opacity="0.25"/>
  <stop offset="100%" stop-color="#BF5AF2" stop-opacity="0"/>
</linearGradient>
<linearGradient id="g4" x1="0" y1="0" x2="0" y2="1">
  <stop offset="0%" stop-color="#34C759" stop-opacity="0.25"/>
  <stop offset="100%" stop-color="#34C759" stop-opacity="0"/>
</linearGradient>
  <clipPath id="ca"><rect x="72" y="45" width="698" height="295"/></clipPath>
</defs>
<rect width="800" height="400" fill="#ffffff" rx="12"/>
<text x="400" y="26" text-anchor="middle" font-size="15" font-weight="600" fill="#111827">Community Growth Over Time</text>
<line x1="72" y1="340.0" x2="770" y2="340.0" stroke="#f3f4f6" stroke-width="1"/>
<text x="66" y="344.0" text-anchor="end" font-size="11" fill="#6b7280">500</text>
<line x1="72" y1="241.7" x2="770" y2="241.7" stroke="#f3f4f6" stroke-width="1"/>
<text x="66" y="245.7" text-anchor="end" font-size="11" fill="#6b7280">1.0k</text>
<line x1="72" y1="143.3" x2="770" y2="143.3" stroke="#f3f4f6" stroke-width="1"/>
<text x="66" y="147.3" text-anchor="end" font-size="11" fill="#6b7280">1.5k</text>
<line x1="72" y1="45.0" x2="770" y2="45.0" stroke="#f3f4f6" stroke-width="1"/>
<text x="66" y="49.0" text-anchor="end" font-size="11" fill="#6b7280">2.0k</text>
<line x1="151.8" y1="45" x2="151.8" y2="340" stroke="#e5e7eb" stroke-width="1" stroke-dasharray="3,3" clip-path="url(#ca)"/>
<line x1="324.6" y1="45" x2="324.6" y2="340" stroke="#e5e7eb" stroke-width="1" stroke-dasharray="3,3" clip-path="url(#ca)"/>
<line x1="504.1" y1="45" x2="504.1" y2="340" stroke="#e5e7eb" stroke-width="1" stroke-dasharray="3,3" clip-path="url(#ca)"/>
<line x1="683.6" y1="45" x2="683.6" y2="340" stroke="#e5e7eb" stroke-width="1" stroke-dasharray="3,3" clip-path="url(#ca)"/>
<text x="72.0" y="358.0" text-anchor="middle" font-size="11" fill="#6b7280">Dec 11</text>
<text x="211.6" y="358.0" text-anchor="middle" font-size="11" fill="#6b7280">Jan 14</text>
<text x="351.2" y="358.0" text-anchor="middle" font-size="11" fill="#6b7280">Feb 5</text>
<text x="490.8" y="358.0" text-anchor="middle" font-size="11" fill="#6b7280">Feb 27</text>
<text x="630.4" y="358.0" text-anchor="middle" font-size="11" fill="#6b7280">Mar 21</text>
<text x="770.0" y="358.0" text-anchor="middle" font-size="11" fill="#6b7280">Apr 15</text>
<line x1="72" y1="45" x2="72" y2="340" stroke="#e5e7eb" stroke-width="1"/>
<line x1="72" y1="340" x2="770" y2="340" stroke="#e5e7eb" stroke-width="1"/>
<text x="-192.5" y="18" text-anchor="middle" font-size="12" fill="#6b7280" transform="rotate(-90)">People</text>
<path d="M 72.0,340 L 72.0,120.1 L 78.6,120.1 L 85.3,120.1 L 91.9,119.5 L 98.6,119.5 L 105.2,119.1 L 111.9,118.9 L 118.5,119.1 L 125.2,118.6 L 131.8,118.6 L 138.5,118.6 L 145.1,118.6 L 151.8,118.6 L 158.4,118.6 L 165.1,118.6 L 171.7,118.6 L 178.4,118.4 L 185.0,117.8 L 191.7,116.6 L 198.3,116.0 L 205.0,115.8 L 211.6,115.8 L 218.2,115.2 L 224.9,113.8 L 231.5,113.0 L 238.2,113.0 L 244.8,112.1 L 251.5,111.7 L 258.1,110.9 L 264.8,110.3 L 271.4,109.7 L 278.1,109.1 L 284.7,109.1 L 291.4,107.7 L 298.0,106.9 L 304.7,106.9 L 311.3,106.2 L 318.0,105.8 L 324.6,105.6 L 331.3,105.4 L 337.9,105.4 L 344.6,104.8 L 351.2,102.4 L 357.8,101.0 L 364.5,100.3 L 371.1,100.1 L 377.8,99.7 L 384.4,98.9 L 391.1,98.5 L 397.7,98.1 L 404.4,97.7 L 411.0,97.3 L 417.7,96.9 L 424.3,96.9 L 431.0,95.0 L 437.6,95.0 L 444.3,94.8 L 450.9,94.6 L 457.6,94.2 L 464.2,94.2 L 470.9,93.2 L 477.5,92.0 L 484.2,91.6 L 490.8,92.0 L 497.4,91.8 L 504.1,91.6 L 510.7,91.6 L 517.4,91.2 L 524.0,90.4 L 530.7,90.0 L 537.3,89.6 L 544.0,89.4 L 550.6,89.4 L 557.3,88.7 L 563.9,88.3 L 570.6,88.3 L 577.2,86.7 L 583.9,86.7 L 590.5,86.7 L 597.2,86.7 L 603.8,86.5 L 610.5,85.9 L 617.1,85.1 L 623.8,84.7 L 630.4,84.7 L 637.0,84.3 L 643.7,82.8 L 650.3,81.8 L 657.0,81.6 L 663.6,81.4 L 670.3,80.8 L 676.9,79.6 L 683.6,79.2 L 690.2,78.8 L 696.9,77.6 L 703.5,77.4 L 710.2,77.4 L 716.8,77.4 L 723.5,77.3 L 730.1,76.1 L 736.8,75.9 L 743.4,75.7 L 750.1,75.7 L 756.7,75.3 L 763.4,73.7 L 770.0,73.5 L 770.0,340 Z" fill="url(#g2)" clip-path="url(#ca)"/>
<path d="M 72.0,120.1 L 78.6,120.1 L 85.3,120.1 L 91.9,119.5 L 98.6,119.5 L 105.2,119.1 L 111.9,118.9 L 118.5,119.1 L 125.2,118.6 L 131.8,118.6 L 138.5,118.6 L 145.1,118.6 L 151.8,118.6 L 158.4,118.6 L 165.1,118.6 L 171.7,118.6 L 178.4,118.4 L 185.0,117.8 L 191.7,116.6 L 198.3,116.0 L 205.0,115.8 L 211.6,115.8 L 218.2,115.2 L 224.9,113.8 L 231.5,113.0 L 238.2,113.0 L 244.8,112.1 L 251.5,111.7 L 258.1,110.9 L 264.8,110.3 L 271.4,109.7 L 278.1,109.1 L 284.7,109.1 L 291.4,107.7 L 298.0,106.9 L 304.7,106.9 L 311.3,106.2 L 318.0,105.8 L 324.6,105.6 L 331.3,105.4 L 337.9,105.4 L 344.6,104.8 L 351.2,102.4 L 357.8,101.0 L 364.5,100.3 L 371.1,100.1 L 377.8,99.7 L 384.4,98.9 L 391.1,98.5 L 397.7,98.1 L 404.4,97.7 L 411.0,97.3 L 417.7,96.9 L 424.3,96.9 L 431.0,95.0 L 437.6,95.0 L 444.3,94.8 L 450.9,94.6 L 457.6,94.2 L 464.2,94.2 L 470.9,93.2 L 477.5,92.0 L 484.2,91.6 L 490.8,92.0 L 497.4,91.8 L 504.1,91.6 L 510.7,91.6 L 517.4,91.2 L 524.0,90.4 L 530.7,90.0 L 537.3,89.6 L 544.0,89.4 L 550.6,89.4 L 557.3,88.7 L 563.9,88.3 L 570.6,88.3 L 577.2,86.7 L 583.9,86.7 L 590.5,86.7 L 597.2,86.7 L 603.8,86.5 L 610.5,85.9 L 617.1,85.1 L 623.8,84.7 L 630.4,84.7 L 637.0,84.3 L 643.7,82.8 L 650.3,81.8 L 657.0,81.6 L 663.6,81.4 L 670.3,80.8 L 676.9,79.6 L 683.6,79.2 L 690.2,78.8 L 696.9,77.6 L 703.5,77.4 L 710.2,77.4 L 716.8,77.4 L 723.5,77.3 L 730.1,76.1 L 736.8,75.9 L 743.4,75.7 L 750.1,75.7 L 756.7,75.3 L 763.4,73.7 L 770.0,73.5" fill="none" stroke="#4F8EF7" stroke-width="2.5" stroke-linejoin="round" clip-path="url(#ca)"/>
<path d="M 72.0,340 L 72.0,244.2 L 78.6,243.6 L 85.3,243.6 L 91.9,243.6 L 98.6,243.4 L 105.2,243.0 L 111.9,242.8 L 118.5,242.6 L 125.2,242.6 L 131.8,242.5 L 138.5,242.3 L 145.1,242.3 L 151.8,242.3 L 158.4,242.3 L 165.1,242.3 L 171.7,242.3 L 178.4,241.9 L 185.0,241.9 L 191.7,241.9 L 198.3,241.1 L 205.0,240.9 L 211.6,240.5 L 218.2,239.7 L 224.9,239.5 L 231.5,239.5 L 238.2,239.5 L 244.8,238.9 L 251.5,238.5 L 258.1,238.5 L 264.8,238.1 L 271.4,237.9 L 278.1,237.5 L 284.7,237.5 L 291.4,237.3 L 298.0,236.6 L 304.7,236.0 L 311.3,235.6 L 318.0,235.4 L 324.6,235.4 L 331.3,235.2 L 337.9,234.8 L 344.6,234.8 L 351.2,234.6 L 357.8,234.0 L 364.5,233.6 L 371.1,233.6 L 377.8,233.6 L 384.4,233.6 L 391.1,233.4 L 397.7,232.8 L 404.4,232.4 L 411.0,232.2 L 417.7,232.0 L 424.3,231.8 L 431.0,231.6 L 437.6,231.4 L 444.3,231.2 L 450.9,230.7 L 457.6,230.5 L 464.2,230.3 L 470.9,229.5 L 477.5,228.7 L 484.2,228.7 L 490.8,228.5 L 497.4,228.3 L 504.1,228.3 L 510.7,228.3 L 517.4,227.9 L 524.0,227.9 L 530.7,226.7 L 537.3,226.5 L 544.0,226.3 L 550.6,226.3 L 557.3,225.9 L 563.9,225.7 L 570.6,225.7 L 577.2,225.5 L 583.9,225.5 L 590.5,225.5 L 597.2,225.1 L 603.8,224.9 L 610.5,224.0 L 617.1,224.2 L 623.8,224.0 L 630.4,223.8 L 637.0,223.8 L 643.7,223.6 L 650.3,223.0 L 657.0,223.0 L 663.6,223.0 L 670.3,223.0 L 676.9,222.6 L 683.6,222.6 L 690.2,222.2 L 696.9,221.8 L 703.5,221.0 L 710.2,221.0 L 716.8,220.6 L 723.5,220.4 L 730.1,220.2 L 736.8,220.0 L 743.4,219.6 L 750.1,219.6 L 756.7,219.1 L 763.4,219.1 L 770.0,218.9 L 770.0,340 Z" fill="url(#g3)" clip-path="url(#ca)"/>
<path d="M 72.0,244.2 L 78.6,243.6 L 85.3,243.6 L 91.9,243.6 L 98.6,243.4 L 105.2,243.0 L 111.9,242.8 L 118.5,242.6 L 125.2,242.6 L 131.8,242.5 L 138.5,242.3 L 145.1,242.3 L 151.8,242.3 L 158.4,242.3 L 165.1,242.3 L 171.7,242.3 L 178.4,241.9 L 185.0,241.9 L 191.7,241.9 L 198.3,241.1 L 205.0,240.9 L 211.6,240.5 L 218.2,239.7 L 224.9,239.5 L 231.5,239.5 L 238.2,239.5 L 244.8,238.9 L 251.5,238.5 L 258.1,238.5 L 264.8,238.1 L 271.4,237.9 L 278.1,237.5 L 284.7,237.5 L 291.4,237.3 L 298.0,236.6 L 304.7,236.0 L 311.3,235.6 L 318.0,235.4 L 324.6,235.4 L 331.3,235.2 L 337.9,234.8 L 344.6,234.8 L 351.2,234.6 L 357.8,234.0 L 364.5,233.6 L 371.1,233.6 L 377.8,233.6 L 384.4,233.6 L 391.1,233.4 L 397.7,232.8 L 404.4,232.4 L 411.0,232.2 L 417.7,232.0 L 424.3,231.8 L 431.0,231.6 L 437.6,231.4 L 444.3,231.2 L 450.9,230.7 L 457.6,230.5 L 464.2,230.3 L 470.9,229.5 L 477.5,228.7 L 484.2,228.7 L 490.8,228.5 L 497.4,228.3 L 504.1,228.3 L 510.7,228.3 L 517.4,227.9 L 524.0,227.9 L 530.7,226.7 L 537.3,226.5 L 544.0,226.3 L 550.6,226.3 L 557.3,225.9 L 563.9,225.7 L 570.6,225.7 L 577.2,225.5 L 583.9,225.5 L 590.5,225.5 L 597.2,225.1 L 603.8,224.9 L 610.5,224.0 L 617.1,224.2 L 623.8,224.0 L 630.4,223.8 L 637.0,223.8 L 643.7,223.6 L 650.3,223.0 L 657.0,223.0 L 663.6,223.0 L 670.3,223.0 L 676.9,222.6 L 683.6,222.6 L 690.2,222.2 L 696.9,221.8 L 703.5,221.0 L 710.2,221.0 L 716.8,220.6 L 723.5,220.4 L 730.1,220.2 L 736.8,220.0 L 743.4,219.6 L 750.1,219.6 L 756.7,219.1 L 763.4,219.1 L 770.0,218.9" fill="none" stroke="#BF5AF2" stroke-width="2.5" stroke-linejoin="round" clip-path="url(#ca)"/>
<path d="M 72.0,340 L 72.0,291.4 L 78.6,290.8 L 85.3,290.8 L 91.9,290.8 L 98.6,290.6 L 105.2,290.2 L 111.9,290.0 L 118.5,289.7 L 125.2,289.7 L 131.8,289.5 L 138.5,289.3 L 145.1,289.3 L 151.8,289.3 L 158.4,289.3 L 165.1,289.3 L 171.7,289.3 L 178.4,288.9 L 185.0,288.9 L 191.7,289.1 L 198.3,288.5 L 205.0,288.7 L 211.6,288.1 L 218.2,287.5 L 224.9,287.3 L 231.5,287.5 L 238.2,287.5 L 244.8,286.9 L 251.5,286.7 L 258.1,286.7 L 264.8,286.3 L 271.4,286.1 L 278.1,285.7 L 284.7,285.7 L 291.4,285.5 L 298.0,284.9 L 304.7,284.3 L 311.3,283.9 L 318.0,283.9 L 324.6,283.9 L 331.3,283.8 L 337.9,283.4 L 344.6,283.4 L 351.2,283.2 L 357.8,282.6 L 364.5,282.4 L 371.1,282.4 L 377.8,282.4 L 384.4,282.4 L 391.1,282.2 L 397.7,281.6 L 404.4,281.4 L 411.0,281.2 L 417.7,281.0 L 424.3,281.0 L 431.0,280.8 L 437.6,280.8 L 444.3,280.8 L 450.9,280.2 L 457.6,280.2 L 464.2,280.2 L 470.9,279.8 L 477.5,279.2 L 484.2,279.2 L 490.8,279.0 L 497.4,278.8 L 504.1,278.8 L 510.7,278.8 L 517.4,278.4 L 524.0,278.4 L 530.7,277.3 L 537.3,277.1 L 544.0,276.9 L 550.6,276.9 L 557.3,276.7 L 563.9,276.7 L 570.6,276.7 L 577.2,276.7 L 583.9,276.7 L 590.5,276.7 L 597.2,276.3 L 603.8,276.1 L 610.5,275.1 L 617.1,275.3 L 623.8,275.3 L 630.4,275.1 L 637.0,275.1 L 643.7,275.1 L 650.3,274.7 L 657.0,274.7 L 663.6,274.7 L 670.3,274.7 L 676.9,274.7 L 683.6,274.7 L 690.2,274.5 L 696.9,274.5 L 703.5,273.7 L 710.2,273.7 L 716.8,273.5 L 723.5,273.3 L 730.1,273.1 L 736.8,272.9 L 743.4,272.5 L 750.1,272.5 L 756.7,272.0 L 763.4,272.0 L 770.0,271.8 L 770.0,340 Z" fill="url(#g4)" clip-path="url(#ca)"/>
<path d="M 72.0,291.4 L 78.6,290.8 L 85.3,290.8 L 91.9,290.8 L 98.6,290.6 L 105.2,290.2 L 111.9,290.0 L 118.5,289.7 L 125.2,289.7 L 131.8,289.5 L 138.5,289.3 L 145.1,289.3 L 151.8,289.3 L 158.4,289.3 L 165.1,289.3 L 171.7,289.3 L 178.4,288.9 L 185.0,288.9 L 191.7,289.1 L 198.3,288.5 L 205.0,288.7 L 211.6,288.1 L 218.2,287.5 L 224.9,287.3 L 231.5,287.5 L 238.2,287.5 L 244.8,286.9 L 251.5,286.7 L 258.1,286.7 L 264.8,286.3 L 271.4,286.1 L 278.1,285.7 L 284.7,285.7 L 291.4,285.5 L 298.0,284.9 L 304.7,284.3 L 311.3,283.9 L 318.0,283.9 L 324.6,283.9 L 331.3,283.8 L 337.9,283.4 L 344.6,283.4 L 351.2,283.2 L 357.8,282.6 L 364.5,282.4 L 371.1,282.4 L 377.8,282.4 L 384.4,282.4 L 391.1,282.2 L 397.7,281.6 L 404.4,281.4 L 411.0,281.2 L 417.7,281.0 L 424.3,281.0 L 431.0,280.8 L 437.6,280.8 L 444.3,280.8 L 450.9,280.2 L 457.6,280.2 L 464.2,280.2 L 470.9,279.8 L 477.5,279.2 L 484.2,279.2 L 490.8,279.0 L 497.4,278.8 L 504.1,278.8 L 510.7,278.8 L 517.4,278.4 L 524.0,278.4 L 530.7,277.3 L 537.3,277.1 L 544.0,276.9 L 550.6,276.9 L 557.3,276.7 L 563.9,276.7 L 570.6,276.7 L 577.2,276.7 L 583.9,276.7 L 590.5,276.7 L 597.2,276.3 L 603.8,276.1 L 610.5,275.1 L 617.1,275.3 L 623.8,275.3 L 630.4,275.1 L 637.0,275.1 L 643.7,275.1 L 650.3,274.7 L 657.0,274.7 L 663.6,274.7 L 670.3,274.7 L 676.9,274.7 L 683.6,274.7 L 690.2,274.5 L 696.9,274.5 L 703.5,273.7 L 710.2,273.7 L 716.8,273.5 L 723.5,273.3 L 730.1,273.1 L 736.8,272.9 L 743.4,272.5 L 750.1,272.5 L 756.7,272.0 L 763.4,272.0 L 770.0,271.8" fill="none" stroke="#34C759" stroke-width="2.5" stroke-linejoin="round" clip-path="url(#ca)"/>
<text x="108.6" y="55.0" text-anchor="middle" font-size="9" fill="#4F8EF7" opacity="0.85" clip-path="url(#ca)">+0.5% (+8)</text>
<text x="108.6" y="66.0" text-anchor="middle" font-size="9" fill="#BF5AF2" opacity="0.85" clip-path="url(#ca)">+1.0% (+10)</text>
<text x="108.6" y="77.0" text-anchor="middle" font-size="9" fill="#34C759" opacity="0.85" clip-path="url(#ca)">+1.5% (+11)</text>
<text x="234.9" y="55.0" text-anchor="middle" font-size="9" fill="#4F8EF7" opacity="0.85" clip-path="url(#ca)">+4.0% (+65)</text>
<text x="234.9" y="66.0" text-anchor="middle" font-size="9" fill="#BF5AF2" opacity="0.85" clip-path="url(#ca)">+3.5% (+35)</text>
<text x="234.9" y="77.0" text-anchor="middle" font-size="9" fill="#34C759" opacity="0.85" clip-path="url(#ca)">+3.6% (+27)</text>
<text x="411.0" y="55.0" text-anchor="middle" font-size="9" fill="#4F8EF7" opacity="0.85" clip-path="url(#ca)">+4.1% (+70)</text>
<text x="411.0" y="66.0" text-anchor="middle" font-size="9" fill="#BF5AF2" opacity="0.85" clip-path="url(#ca)">+3.5% (+36)</text>
<text x="411.0" y="77.0" text-anchor="middle" font-size="9" fill="#34C759" opacity="0.85" clip-path="url(#ca)">+3.3% (+26)</text>
<text x="590.5" y="55.0" text-anchor="middle" font-size="9" fill="#4F8EF7" opacity="0.85" clip-path="url(#ca)">+3.5% (+61)</text>
<text x="590.5" y="66.0" text-anchor="middle" font-size="9" fill="#BF5AF2" opacity="0.85" clip-path="url(#ca)">+2.7% (+29)</text>
<text x="590.5" y="77.0" text-anchor="middle" font-size="9" fill="#34C759" opacity="0.85" clip-path="url(#ca)">+2.6% (+21)</text>
<text x="726.8" y="55.0" text-anchor="middle" font-size="9" fill="#4F8EF7" opacity="0.85" clip-path="url(#ca)">+1.6% (+29)</text>
<text x="726.8" y="66.0" text-anchor="middle" font-size="9" fill="#BF5AF2" opacity="0.85" clip-path="url(#ca)">+1.7% (+19)</text>
<text x="726.8" y="77.0" text-anchor="middle" font-size="9" fill="#34C759" opacity="0.85" clip-path="url(#ca)">+1.8% (+15)</text>
<rect x="211" y="369" width="12" height="12" fill="#4F8EF7" rx="2"/>
<text x="227" y="379" font-size="12" fill="#111827">Authors</text>
<rect x="351" y="369" width="12" height="12" fill="#BF5AF2" rx="2"/>
<text x="367" y="379" font-size="12" fill="#111827">Contributors</text>
<rect x="491" y="369" width="12" height="12" fill="#34C759" rx="2"/>
<text x="507" y="379" font-size="12" fill="#111827">Non-author contributors</text>
<text x="72" y="394" font-size="8" fill="#e5e7eb">data since Dec 11, 2025</text>
</svg>