<svg xmlns="http://www.w3.org/2000/svg" width="800" height="400" viewBox="0 0 800 400">
<defs><style>text { font-family: -apple-system, BlinkMacSystemFont, 'Segoe UI', Roboto, sans-serif; }</style></defs>
<rect width="800" height="400" fill="#ffffff" rx="12"/>
<text x="400" y="26" text-anchor="middle" font-size="15" font-weight="600" fill="#111827">Packages by Last Updated Quarter</text>
<text x="400" y="44" text-anchor="middle" font-size="11" fill="#6b7280">last updated at · 2,995 packages with a known last-update date</text>
<line x1="60" y1="58" x2="60" y2="320" stroke="#e5e7eb" stroke-width="1"/>
<line x1="60" y1="320" x2="770" y2="320" stroke="#e5e7eb" stroke-width="1"/>
<text x="-189" y="18" text-anchor="middle" font-size="12" fill="#6b7280" transform="rotate(-90)">Number of packages</text>
<line x1="60" y1="320.0" x2="770" y2="320.0" stroke="#f3f4f6" stroke-width="1"/>
<text x="54" y="324.0" text-anchor="end" font-size="11" fill="#6b7280">0</text>
<line x1="60" y1="267.7" x2="770" y2="267.7" stroke="#f3f4f6" stroke-width="1"/>
<text x="54" y="271.7" text-anchor="end" font-size="11" fill="#6b7280">117</text>
<line x1="60" y1="215.4" x2="770" y2="215.4" stroke="#f3f4f6" stroke-width="1"/>
<text x="54" y="219.4" text-anchor="end" font-size="11" fill="#6b7280">234</text>
<line x1="60" y1="162.6" x2="770" y2="162.6" stroke="#f3f4f6" stroke-width="1"/>
<text x="54" y="166.6" text-anchor="end" font-size="11" fill="#6b7280">352</text>
<line x1="60" y1="110.3" x2="770" y2="110.3" stroke="#f3f4f6" stroke-width="1"/>
<text x="54" y="114.3" text-anchor="end" font-size="11" fill="#6b7280">469</text>
<line x1="60" y1="58.0" x2="770" y2="58.0" stroke="#f3f4f6" stroke-width="1"/>
<text x="54" y="62.0" text-anchor="end" font-size="11" fill="#6b7280">586</text>
<rect x="66.5" y="314.2" width="24.3" height="5.8" fill="#34C759" rx="3" opacity="0.85"/>
<text x="78.7" y="298.2" text-anchor="middle" font-size="10" fill="#6b7280">13</text>
<text x="78.7" y="310.2" text-anchor="middle" font-size="10" fill="#6b7280">(0.43%)</text>
<g transform="translate(78.7,330.0) rotate(-45)"><text text-anchor="end" font-size="10" fill="#111827">2021-Q4</text></g>
<rect x="103.9" y="307.5" width="24.3" height="12.5" fill="#34C759" rx="3" opacity="0.85"/>
<text x="116.1" y="291.5" text-anchor="middle" font-size="10" fill="#6b7280">28</text>
<text x="116.1" y="303.5" text-anchor="middle" font-size="10" fill="#6b7280">(0.93%)</text>
<g transform="translate(116.1,330.0) rotate(-45)"><text text-anchor="end" font-size="10" fill="#111827">2022-Q1</text></g>
<rect x="141.3" y="304.4" width="24.3" height="15.6" fill="#34C759" rx="3" opacity="0.85"/>
<text x="153.4" y="288.4" text-anchor="middle" font-size="10" fill="#6b7280">35</text>
<text x="153.4" y="300.4" text-anchor="middle" font-size="10" fill="#6b7280">(1.17%)</text>
<g transform="translate(153.4,330.0) rotate(-45)"><text text-anchor="end" font-size="10" fill="#111827">2022-Q2</text></g>
<rect x="178.6" y="302.6" width="24.3" height="17.4" fill="#34C759" rx="3" opacity="0.85"/>
<text x="190.8" y="286.6" text-anchor="middle" font-size="10" fill="#6b7280">39</text>
<text x="190.8" y="298.6" text-anchor="middle" font-size="10" fill="#6b7280">(1.30%)</text>
<g transform="translate(190.8,330.0) rotate(-45)"><text text-anchor="end" font-size="10" fill="#111827">2022-Q3</text></g>
<rect x="216.0" y="292.3" width="24.3" height="27.7" fill="#34C759" rx="3" opacity="0.85"/>
<text x="228.2" y="276.3" text-anchor="middle" font-size="10" fill="#6b7280">62</text>
<text x="228.2" y="288.3" text-anchor="middle" font-size="10" fill="#6b7280">(2.07%)</text>
<g transform="translate(228.2,330.0) rotate(-45)"><text text-anchor="end" font-size="10" fill="#111827">2022-Q4</text></g>
<rect x="253.4" y="280.7" width="24.3" height="39.3" fill="#34C759" rx="3" opacity="0.85"/>
<text x="265.5" y="264.7" text-anchor="middle" font-size="10" fill="#6b7280">88</text>
<text x="265.5" y="276.7" text-anchor="middle" font-size="10" fill="#6b7280">(2.94%)</text>
<g transform="translate(265.5,330.0) rotate(-45)"><text text-anchor="end" font-size="10" fill="#111827">2023-Q1</text></g>
<rect x="290.8" y="280.2" width="24.3" height="39.8" fill="#34C759" rx="3" opacity="0.85"/>
<text x="302.9" y="264.2" text-anchor="middle" font-size="10" fill="#6b7280">89</text>
<text x="302.9" y="276.2" text-anchor="middle" font-size="10" fill="#6b7280">(2.97%)</text>
<g transform="translate(302.9,330.0) rotate(-45)"><text text-anchor="end" font-size="10" fill="#111827">2023-Q2</text></g>
<rect x="328.1" y="283.3" width="24.3" height="36.7" fill="#34C759" rx="3" opacity="0.85"/>
<text x="340.3" y="267.3" text-anchor="middle" font-size="10" fill="#6b7280">82</text>
<text x="340.3" y="279.3" text-anchor="middle" font-size="10" fill="#6b7280">(2.74%)</text>
<g transform="translate(340.3,330.0) rotate(-45)"><text text-anchor="end" font-size="10" fill="#111827">2023-Q3</text></g>
<rect x="365.5" y="291.8" width="24.3" height="28.2" fill="#34C759" rx="3" opacity="0.85"/>
<text x="377.6" y="275.8" text-anchor="middle" font-size="10" fill="#6b7280">63</text>
<text x="377.6" y="287.8" text-anchor="middle" font-size="10" fill="#6b7280">(2.10%)</text>
<g transform="translate(377.6,330.0) rotate(-45)"><text text-anchor="end" font-size="10" fill="#111827">2023-Q4</text></g>
<rect x="402.9" y="269.9" width="24.3" height="50.1" fill="#34C759" rx="3" opacity="0.85"/>
<text x="415.0" y="253.9" text-anchor="middle" font-size="10" fill="#6b7280">112</text>
<text x="415.0" y="265.9" text-anchor="middle" font-size="10" fill="#6b7280">(3.74%)</text>
<g transform="translate(415.0,330.0) rotate(-45)"><text text-anchor="end" font-size="10" fill="#111827">2024-Q1</text></g>
<rect x="440.2" y="263.7" width="24.3" height="56.3" fill="#34C759" rx="3" opacity="0.85"/>
<text x="452.4" y="247.7" text-anchor="middle" font-size="10" fill="#6b7280">126</text>
<text x="452.4" y="259.7" text-anchor="middle" font-size="10" fill="#6b7280">(4.21%)</text>
<g transform="translate(452.4,330.0) rotate(-45)"><text text-anchor="end" font-size="10" fill="#111827">2024-Q2</text></g>
<rect x="477.6" y="265.5" width="24.3" height="54.5" fill="#34C759" rx="3" opacity="0.85"/>
<text x="489.7" y="249.5" text-anchor="middle" font-size="10" fill="#6b7280">122</text>
<text x="489.7" y="261.5" text-anchor="middle" font-size="10" fill="#6b7280">(4.07%)</text>
<g transform="translate(489.7,330.0) rotate(-45)"><text text-anchor="end" font-size="10" fill="#111827">2024-Q3</text></g>
<rect x="515.0" y="269.0" width="24.3" height="51.0" fill="#34C759" rx="3" opacity="0.85"/>
<text x="527.1" y="253.0" text-anchor="middle" font-size="10" fill="#6b7280">114</text>
<text x="527.1" y="265.0" text-anchor="middle" font-size="10" fill="#6b7280">(3.81%)</text>
<g transform="translate(527.1,330.0) rotate(-45)"><text text-anchor="end" font-size="10" fill="#111827">2024-Q4</text></g>
<rect x="552.3" y="235.5" width="24.3" height="84.5" fill="#34C759" rx="3" opacity="0.85"/>
<text x="564.5" y="219.5" text-anchor="middle" font-size="10" fill="#6b7280">189</text>
<text x="564.5" y="231.5" text-anchor="middle" font-size="10" fill="#6b7280">(6.31%)</text>
<g transform="translate(564.5,330.0) rotate(-45)"><text text-anchor="end" font-size="10" fill="#111827">2025-Q1</text></g>
<rect x="589.7" y="227.5" width="24.3" height="92.5" fill="#34C759" rx="3" opacity="0.85"/>
<text x="601.8" y="211.5" text-anchor="middle" font-size="10" fill="#6b7280">207</text>
<text x="601.8" y="223.5" text-anchor="middle" font-size="10" fill="#6b7280">(6.91%)</text>
<g transform="translate(601.8,330.0) rotate(-45)"><text text-anchor="end" font-size="10" fill="#111827">2025-Q2</text></g>
<rect x="627.1" y="231.0" width="24.3" height="89.0" fill="#34C759" rx="3" opacity="0.85"/>
<text x="639.2" y="215.0" text-anchor="middle" font-size="10" fill="#6b7280">199</text>
<text x="639.2" y="227.0" text-anchor="middle" font-size="10" fill="#6b7280">(6.64%)</text>
<g transform="translate(639.2,330.0) rotate(-45)"><text text-anchor="end" font-size="10" fill="#111827">2025-Q3</text></g>
<rect x="664.4" y="191.2" width="24.3" height="128.8" fill="#34C759" rx="3" opacity="0.85"/>
<text x="676.6" y="175.2" text-anchor="middle" font-size="10" fill="#6b7280">288</text>
<text x="676.6" y="187.2" text-anchor="middle" font-size="10" fill="#6b7280">(9.62%)</text>
<g transform="translate(676.6,330.0) rotate(-45)"><text text-anchor="end" font-size="10" fill="#111827">2025-Q4</text></g>
<rect x="701.8" y="72.8" width="24.3" height="247.2" fill="#34C759" rx="3" opacity="0.85"/>
<text x="713.9" y="72.0" text-anchor="middle" font-size="10" fill="#6b7280">553</text>
<text x="713.9" y="84.0" text-anchor="middle" font-size="10" fill="#6b7280">(18.46%)</text>
<g transform="translate(713.9,330.0) rotate(-45)"><text text-anchor="end" font-size="10" fill="#111827">2026-Q1</text></g>
<rect x="739.2" y="58.0" width="24.3" height="262.0" fill="#34C759" rx="3" opacity="0.85"/>
<text x="751.3" y="72.0" text-anchor="middle" font-size="10" fill="#6b7280">586</text>
<text x="751.3" y="84.0" text-anchor="middle" font-size="10" fill="#6b7280">(19.57%)</text>
<g transform="translate(751.3,330.0) rotate(-45)"><text text-anchor="end" font-size="10" fill="#111827">2026-Q2</text></g>
</svg>