<svg xmlns="http://www.w3.org/2000/svg" width="800" height="400" viewBox="0 0 800 400">
<defs>
  <style>text { font-family: -apple-system, BlinkMacSystemFont, 'Segoe UI', Roboto, sans-serif; }</style>
  <linearGradient id="g2" x1="0" y1="0" x2="0" y2="1">
  <stop offset="0%" stop-color="#4F8EF7" stop-opacity="0.25"/>
  <stop offset="100%" stop-color="#4F8EF7" stop-opacity="0"/>
</linearGradient>
<linearGradient id="g3" x1="0" y1="0" x2="0" y2="1">
  <stop offset="0%" stop-color="#BF5AF2" stop-opacity="0.25"/>
  <stop offset="100%" stop-color="#BF5AF2" stop-opacity="0"/>
</linearGradient>
<linearGradient id="g4" x1="0" y1="0" x2="0" y2="1">
  <stop offset="0%" stop-color="#34C759" stop-opacity="0.25"/>
  <stop offset="100%" stop-color="#34C759" stop-opacity="0"/>
</linearGradient>
  <clipPath id="ca"><rect x="72" y="45" width="698" height="295"/></clipPath>
</defs>
<rect width="800" height="400" fill="#ffffff" rx="12"/>
<text x="400" y="26" text-anchor="middle" font-size="15" font-weight="600" fill="#111827">Community Growth Over Time</text>
<line x1="72" y1="340.0" x2="770" y2="340.0" stroke="#f3f4f6" stroke-width="1"/>
<text x="66" y="344.0" text-anchor="end" font-size="11" fill="#6b7280">500</text>
<line x1="72" y1="241.7" x2="770" y2="241.7" stroke="#f3f4f6" stroke-width="1"/>
<text x="66" y="245.7" text-anchor="end" font-size="11" fill="#6b7280">1.0k</text>
<line x1="72" y1="143.3" x2="770" y2="143.3" stroke="#f3f4f6" stroke-width="1"/>
<text x="66" y="147.3" text-anchor="end" font-size="11" fill="#6b7280">1.5k</text>
<line x1="72" y1="45.0" x2="770" y2="45.0" stroke="#f3f4f6" stroke-width="1"/>
<text x="66" y="49.0" text-anchor="end" font-size="11" fill="#6b7280">2.0k</text>
<line x1="153.3" y1="45" x2="153.3" y2="340" stroke="#e5e7eb" stroke-width="1" stroke-dasharray="3,3" clip-path="url(#ca)"/>
<line x1="329.5" y1="45" x2="329.5" y2="340" stroke="#e5e7eb" stroke-width="1" stroke-dasharray="3,3" clip-path="url(#ca)"/>
<line x1="512.5" y1="45" x2="512.5" y2="340" stroke="#e5e7eb" stroke-width="1" stroke-dasharray="3,3" clip-path="url(#ca)"/>
<line x1="695.5" y1="45" x2="695.5" y2="340" stroke="#e5e7eb" stroke-width="1" stroke-dasharray="3,3" clip-path="url(#ca)"/>
<text x="72.0" y="358.0" text-anchor="middle" font-size="11" fill="#6b7280">Dec 11</text>
<text x="214.3" y="358.0" text-anchor="middle" font-size="11" fill="#6b7280">Jan 14</text>
<text x="349.8" y="358.0" text-anchor="middle" font-size="11" fill="#6b7280">Feb 4</text>
<text x="492.2" y="358.0" text-anchor="middle" font-size="11" fill="#6b7280">Feb 26</text>
<text x="627.7" y="358.0" text-anchor="middle" font-size="11" fill="#6b7280">Mar 19</text>
<text x="770.0" y="358.0" text-anchor="middle" font-size="11" fill="#6b7280">Apr 13</text>
<line x1="72" y1="45" x2="72" y2="340" stroke="#e5e7eb" stroke-width="1"/>
<line x1="72" y1="340" x2="770" y2="340" stroke="#e5e7eb" stroke-width="1"/>
<text x="-192.5" y="18" text-anchor="middle" font-size="12" fill="#6b7280" transform="rotate(-90)">People</text>
<path d="M 72.0,340 L 72.0,120.1 L 78.8,120.1 L 85.6,120.1 L 92.3,119.5 L 99.1,119.5 L 105.9,119.1 L 112.7,118.9 L 119.4,119.1 L 126.2,118.6 L 133.0,118.6 L 139.8,118.6 L 146.5,118.6 L 153.3,118.6 L 160.1,118.6 L 166.9,118.6 L 173.7,118.6 L 180.4,118.4 L 187.2,117.8 L 194.0,116.6 L 200.8,116.0 L 207.5,115.8 L 214.3,115.8 L 221.1,115.2 L 227.9,113.8 L 234.6,113.0 L 241.4,113.0 L 248.2,112.1 L 255.0,111.7 L 261.7,110.9 L 268.5,110.3 L 275.3,109.7 L 282.1,109.1 L 288.9,109.1 L 295.6,107.7 L 302.4,106.9 L 309.2,106.9 L 316.0,106.2 L 322.7,105.8 L 329.5,105.6 L 336.3,105.4 L 343.1,105.4 L 349.8,104.8 L 356.6,102.4 L 363.4,101.0 L 370.2,100.3 L 377.0,100.1 L 383.7,99.7 L 390.5,98.9 L 397.3,98.5 L 404.1,98.1 L 410.8,97.7 L 417.6,97.3 L 424.4,96.9 L 431.2,96.9 L 437.9,95.0 L 444.7,95.0 L 451.5,94.8 L 458.3,94.6 L 465.0,94.2 L 471.8,94.2 L 478.6,93.2 L 485.4,92.0 L 492.2,91.6 L 498.9,92.0 L 505.7,91.8 L 512.5,91.6 L 519.3,91.6 L 526.0,91.2 L 532.8,90.4 L 539.6,90.0 L 546.4,89.6 L 553.1,89.4 L 559.9,89.4 L 566.7,88.7 L 573.5,88.3 L 580.3,88.3 L 587.0,86.7 L 593.8,86.7 L 600.6,86.7 L 607.4,86.7 L 614.1,86.5 L 620.9,85.9 L 627.7,85.1 L 634.5,84.7 L 641.2,84.7 L 648.0,84.3 L 654.8,82.8 L 661.6,81.8 L 668.3,81.6 L 675.1,81.4 L 681.9,80.8 L 688.7,79.6 L 695.5,79.2 L 702.2,78.8 L 709.0,77.6 L 715.8,77.4 L 722.6,77.4 L 729.3,77.4 L 736.1,77.3 L 742.9,76.1 L 749.7,75.9 L 756.4,75.7 L 763.2,75.7 L 770.0,75.3 L 770.0,340 Z" fill="url(#g2)" clip-path="url(#ca)"/>
<path d="M 72.0,120.1 L 78.8,120.1 L 85.6,120.1 L 92.3,119.5 L 99.1,119.5 L 105.9,119.1 L 112.7,118.9 L 119.4,119.1 L 126.2,118.6 L 133.0,118.6 L 139.8,118.6 L 146.5,118.6 L 153.3,118.6 L 160.1,118.6 L 166.9,118.6 L 173.7,118.6 L 180.4,118.4 L 187.2,117.8 L 194.0,116.6 L 200.8,116.0 L 207.5,115.8 L 214.3,115.8 L 221.1,115.2 L 227.9,113.8 L 234.6,113.0 L 241.4,113.0 L 248.2,112.1 L 255.0,111.7 L 261.7,110.9 L 268.5,110.3 L 275.3,109.7 L 282.1,109.1 L 288.9,109.1 L 295.6,107.7 L 302.4,106.9 L 309.2,106.9 L 316.0,106.2 L 322.7,105.8 L 329.5,105.6 L 336.3,105.4 L 343.1,105.4 L 349.8,104.8 L 356.6,102.4 L 363.4,101.0 L 370.2,100.3 L 377.0,100.1 L 383.7,99.7 L 390.5,98.9 L 397.3,98.5 L 404.1,98.1 L 410.8,97.7 L 417.6,97.3 L 424.4,96.9 L 431.2,96.9 L 437.9,95.0 L 444.7,95.0 L 451.5,94.8 L 458.3,94.6 L 465.0,94.2 L 471.8,94.2 L 478.6,93.2 L 485.4,92.0 L 492.2,91.6 L 498.9,92.0 L 505.7,91.8 L 512.5,91.6 L 519.3,91.6 L 526.0,91.2 L 532.8,90.4 L 539.6,90.0 L 546.4,89.6 L 553.1,89.4 L 559.9,89.4 L 566.7,88.7 L 573.5,88.3 L 580.3,88.3 L 587.0,86.7 L 593.8,86.7 L 600.6,86.7 L 607.4,86.7 L 614.1,86.5 L 620.9,85.9 L 627.7,85.1 L 634.5,84.7 L 641.2,84.7 L 648.0,84.3 L 654.8,82.8 L 661.6,81.8 L 668.3,81.6 L 675.1,81.4 L 681.9,80.8 L 688.7,79.6 L 695.5,79.2 L 702.2,78.8 L 709.0,77.6 L 715.8,77.4 L 722.6,77.4 L 729.3,77.4 L 736.1,77.3 L 742.9,76.1 L 749.7,75.9 L 756.4,75.7 L 763.2,75.7 L 770.0,75.3" fill="none" stroke="#4F8EF7" stroke-width="2.5" stroke-linejoin="round" clip-path="url(#ca)"/>
<path d="M 72.0,340 L 72.0,244.2 L 78.8,243.6 L 85.6,243.6 L 92.3,243.6 L 99.1,243.4 L 105.9,243.0 L 112.7,242.8 L 119.4,242.6 L 126.2,242.6 L 133.0,242.5 L 139.8,242.3 L 146.5,242.3 L 153.3,242.3 L 160.1,242.3 L 166.9,242.3 L 173.7,242.3 L 180.4,241.9 L 187.2,241.9 L 194.0,241.9 L 200.8,241.1 L 207.5,240.9 L 214.3,240.5 L 221.1,239.7 L 227.9,239.5 L 234.6,239.5 L 241.4,239.5 L 248.2,238.9 L 255.0,238.5 L 261.7,238.5 L 268.5,238.1 L 275.3,237.9 L 282.1,237.5 L 288.9,237.5 L 295.6,237.3 L 302.4,236.6 L 309.2,236.0 L 316.0,235.6 L 322.7,235.4 L 329.5,235.4 L 336.3,235.2 L 343.1,234.8 L 349.8,234.8 L 356.6,234.6 L 363.4,234.0 L 370.2,233.6 L 377.0,233.6 L 383.7,233.6 L 390.5,233.6 L 397.3,233.4 L 404.1,232.8 L 410.8,232.4 L 417.6,232.2 L 424.4,232.0 L 431.2,231.8 L 437.9,231.6 L 444.7,231.4 L 451.5,231.2 L 458.3,230.7 L 465.0,230.5 L 471.8,230.3 L 478.6,229.5 L 485.4,228.7 L 492.2,228.7 L 498.9,228.5 L 505.7,228.3 L 512.5,228.3 L 519.3,228.3 L 526.0,227.9 L 532.8,227.9 L 539.6,226.7 L 546.4,226.5 L 553.1,226.3 L 559.9,226.3 L 566.7,225.9 L 573.5,225.7 L 580.3,225.7 L 587.0,225.5 L 593.8,225.5 L 600.6,225.5 L 607.4,225.1 L 614.1,224.9 L 620.9,224.0 L 627.7,224.2 L 634.5,224.0 L 641.2,223.8 L 648.0,223.8 L 654.8,223.6 L 661.6,223.0 L 668.3,223.0 L 675.1,223.0 L 681.9,223.0 L 688.7,222.6 L 695.5,222.6 L 702.2,222.2 L 709.0,221.8 L 715.8,221.0 L 722.6,221.0 L 729.3,220.6 L 736.1,220.4 L 742.9,220.2 L 749.7,220.0 L 756.4,219.6 L 763.2,219.6 L 770.0,219.1 L 770.0,340 Z" fill="url(#g3)" clip-path="url(#ca)"/>
<path d="M 72.0,244.2 L 78.8,243.6 L 85.6,243.6 L 92.3,243.6 L 99.1,243.4 L 105.9,243.0 L 112.7,242.8 L 119.4,242.6 L 126.2,242.6 L 133.0,242.5 L 139.8,242.3 L 146.5,242.3 L 153.3,242.3 L 160.1,242.3 L 166.9,242.3 L 173.7,242.3 L 180.4,241.9 L 187.2,241.9 L 194.0,241.9 L 200.8,241.1 L 207.5,240.9 L 214.3,240.5 L 221.1,239.7 L 227.9,239.5 L 234.6,239.5 L 241.4,239.5 L 248.2,238.9 L 255.0,238.5 L 261.7,238.5 L 268.5,238.1 L 275.3,237.9 L 282.1,237.5 L 288.9,237.5 L 295.6,237.3 L 302.4,236.6 L 309.2,236.0 L 316.0,235.6 L 322.7,235.4 L 329.5,235.4 L 336.3,235.2 L 343.1,234.8 L 349.8,234.8 L 356.6,234.6 L 363.4,234.0 L 370.2,233.6 L 377.0,233.6 L 383.7,233.6 L 390.5,233.6 L 397.3,233.4 L 404.1,232.8 L 410.8,232.4 L 417.6,232.2 L 424.4,232.0 L 431.2,231.8 L 437.9,231.6 L 444.7,231.4 L 451.5,231.2 L 458.3,230.7 L 465.0,230.5 L 471.8,230.3 L 478.6,229.5 L 485.4,228.7 L 492.2,228.7 L 498.9,228.5 L 505.7,228.3 L 512.5,228.3 L 519.3,228.3 L 526.0,227.9 L 532.8,227.9 L 539.6,226.7 L 546.4,226.5 L 553.1,226.3 L 559.9,226.3 L 566.7,225.9 L 573.5,225.7 L 580.3,225.7 L 587.0,225.5 L 593.8,225.5 L 600.6,225.5 L 607.4,225.1 L 614.1,224.9 L 620.9,224.0 L 627.7,224.2 L 634.5,224.0 L 641.2,223.8 L 648.0,223.8 L 654.8,223.6 L 661.6,223.0 L 668.3,223.0 L 675.1,223.0 L 681.9,223.0 L 688.7,222.6 L 695.5,222.6 L 702.2,222.2 L 709.0,221.8 L 715.8,221.0 L 722.6,221.0 L 729.3,220.6 L 736.1,220.4 L 742.9,220.2 L 749.7,220.0 L 756.4,219.6 L 763.2,219.6 L 770.0,219.1" fill="none" stroke="#BF5AF2" stroke-width="2.5" stroke-linejoin="round" clip-path="url(#ca)"/>
<path d="M 72.0,340 L 72.0,291.4 L 78.8,290.8 L 85.6,290.8 L 92.3,290.8 L 99.1,290.6 L 105.9,290.2 L 112.7,290.0 L 119.4,289.7 L 126.2,289.7 L 133.0,289.5 L 139.8,289.3 L 146.5,289.3 L 153.3,289.3 L 160.1,289.3 L 166.9,289.3 L 173.7,289.3 L 180.4,288.9 L 187.2,288.9 L 194.0,289.1 L 200.8,288.5 L 207.5,288.7 L 214.3,288.1 L 221.1,287.5 L 227.9,287.3 L 234.6,287.5 L 241.4,287.5 L 248.2,286.9 L 255.0,286.7 L 261.7,286.7 L 268.5,286.3 L 275.3,286.1 L 282.1,285.7 L 288.9,285.7 L 295.6,285.5 L 302.4,284.9 L 309.2,284.3 L 316.0,283.9 L 322.7,283.9 L 329.5,283.9 L 336.3,283.8 L 343.1,283.4 L 349.8,283.4 L 356.6,283.2 L 363.4,282.6 L 370.2,282.4 L 377.0,282.4 L 383.7,282.4 L 390.5,282.4 L 397.3,282.2 L 404.1,281.6 L 410.8,281.4 L 417.6,281.2 L 424.4,281.0 L 431.2,281.0 L 437.9,280.8 L 444.7,280.8 L 451.5,280.8 L 458.3,280.2 L 465.0,280.2 L 471.8,280.2 L 478.6,279.8 L 485.4,279.2 L 492.2,279.2 L 498.9,279.0 L 505.7,278.8 L 512.5,278.8 L 519.3,278.8 L 526.0,278.4 L 532.8,278.4 L 539.6,277.3 L 546.4,277.1 L 553.1,276.9 L 559.9,276.9 L 566.7,276.7 L 573.5,276.7 L 580.3,276.7 L 587.0,276.7 L 593.8,276.7 L 600.6,276.7 L 607.4,276.3 L 614.1,276.1 L 620.9,275.1 L 627.7,275.3 L 634.5,275.3 L 641.2,275.1 L 648.0,275.1 L 654.8,275.1 L 661.6,274.7 L 668.3,274.7 L 675.1,274.7 L 681.9,274.7 L 688.7,274.7 L 695.5,274.7 L 702.2,274.5 L 709.0,274.5 L 715.8,273.7 L 722.6,273.7 L 729.3,273.5 L 736.1,273.3 L 742.9,273.1 L 749.7,272.9 L 756.4,272.5 L 763.2,272.5 L 770.0,272.0 L 770.0,340 Z" fill="url(#g4)" clip-path="url(#ca)"/>
<path d="M 72.0,291.4 L 78.8,290.8 L 85.6,290.8 L 92.3,290.8 L 99.1,290.6 L 105.9,290.2 L 112.7,290.0 L 119.4,289.7 L 126.2,289.7 L 133.0,289.5 L 139.8,289.3 L 146.5,289.3 L 153.3,289.3 L 160.1,289.3 L 166.9,289.3 L 173.7,289.3 L 180.4,288.9 L 187.2,288.9 L 194.0,289.1 L 200.8,288.5 L 207.5,288.7 L 214.3,288.1 L 221.1,287.5 L 227.9,287.3 L 234.6,287.5 L 241.4,287.5 L 248.2,286.9 L 255.0,286.7 L 261.7,286.7 L 268.5,286.3 L 275.3,286.1 L 282.1,285.7 L 288.9,285.7 L 295.6,285.5 L 302.4,284.9 L 309.2,284.3 L 316.0,283.9 L 322.7,283.9 L 329.5,283.9 L 336.3,283.8 L 343.1,283.4 L 349.8,283.4 L 356.6,283.2 L 363.4,282.6 L 370.2,282.4 L 377.0,282.4 L 383.7,282.4 L 390.5,282.4 L 397.3,282.2 L 404.1,281.6 L 410.8,281.4 L 417.6,281.2 L 424.4,281.0 L 431.2,281.0 L 437.9,280.8 L 444.7,280.8 L 451.5,280.8 L 458.3,280.2 L 465.0,280.2 L 471.8,280.2 L 478.6,279.8 L 485.4,279.2 L 492.2,279.2 L 498.9,279.0 L 505.7,278.8 L 512.5,278.8 L 519.3,278.8 L 526.0,278.4 L 532.8,278.4 L 539.6,277.3 L 546.4,277.1 L 553.1,276.9 L 559.9,276.9 L 566.7,276.7 L 573.5,276.7 L 580.3,276.7 L 587.0,276.7 L 593.8,276.7 L 600.6,276.7 L 607.4,276.3 L 614.1,276.1 L 620.9,275.1 L 627.7,275.3 L 634.5,275.3 L 641.2,275.1 L 648.0,275.1 L 654.8,275.1 L 661.6,274.7 L 668.3,274.7 L 675.1,274.7 L 681.9,274.7 L 688.7,274.7 L 695.5,274.7 L 702.2,274.5 L 709.0,274.5 L 715.8,273.7 L 722.6,273.7 L 729.3,273.5 L 736.1,273.3 L 742.9,273.1 L 749.7,272.9 L 756.4,272.5 L 763.2,272.5 L 770.0,272.0" fill="none" stroke="#34C759" stroke-width="2.5" stroke-linejoin="round" clip-path="url(#ca)"/>
<text x="109.3" y="55.0" text-anchor="middle" font-size="9" fill="#4F8EF7" opacity="0.85" clip-path="url(#ca)">+0.5% (+8)</text>
<text x="109.3" y="66.0" text-anchor="middle" font-size="9" fill="#BF5AF2" opacity="0.85" clip-path="url(#ca)">+1.0% (+10)</text>
<text x="109.3" y="77.0" text-anchor="middle" font-size="9" fill="#34C759" opacity="0.85" clip-path="url(#ca)">+1.5% (+11)</text>
<text x="238.0" y="55.0" text-anchor="middle" font-size="9" fill="#4F8EF7" opacity="0.85" clip-path="url(#ca)">+4.0% (+65)</text>
<text x="238.0" y="66.0" text-anchor="middle" font-size="9" fill="#BF5AF2" opacity="0.85" clip-path="url(#ca)">+3.5% (+35)</text>
<text x="238.0" y="77.0" text-anchor="middle" font-size="9" fill="#34C759" opacity="0.85" clip-path="url(#ca)">+3.6% (+27)</text>
<text x="417.6" y="55.0" text-anchor="middle" font-size="9" fill="#4F8EF7" opacity="0.85" clip-path="url(#ca)">+4.1% (+70)</text>
<text x="417.6" y="66.0" text-anchor="middle" font-size="9" fill="#BF5AF2" opacity="0.85" clip-path="url(#ca)">+3.5% (+36)</text>
<text x="417.6" y="77.0" text-anchor="middle" font-size="9" fill="#34C759" opacity="0.85" clip-path="url(#ca)">+3.3% (+26)</text>
<text x="600.6" y="55.0" text-anchor="middle" font-size="9" fill="#4F8EF7" opacity="0.85" clip-path="url(#ca)">+3.5% (+61)</text>
<text x="600.6" y="66.0" text-anchor="middle" font-size="9" fill="#BF5AF2" opacity="0.85" clip-path="url(#ca)">+2.7% (+29)</text>
<text x="600.6" y="77.0" text-anchor="middle" font-size="9" fill="#34C759" opacity="0.85" clip-path="url(#ca)">+2.6% (+21)</text>
<text x="732.7" y="55.0" text-anchor="middle" font-size="9" fill="#4F8EF7" opacity="0.85" clip-path="url(#ca)">+1.1% (+20)</text>
<text x="732.7" y="66.0" text-anchor="middle" font-size="9" fill="#BF5AF2" opacity="0.85" clip-path="url(#ca)">+1.6% (+18)</text>
<text x="732.7" y="77.0" text-anchor="middle" font-size="9" fill="#34C759" opacity="0.85" clip-path="url(#ca)">+1.7% (+14)</text>
<rect x="211" y="369" width="12" height="12" fill="#4F8EF7" rx="2"/>
<text x="227" y="379" font-size="12" fill="#111827">Authors</text>
<rect x="351" y="369" width="12" height="12" fill="#BF5AF2" rx="2"/>
<text x="367" y="379" font-size="12" fill="#111827">Contributors</text>
<rect x="491" y="369" width="12" height="12" fill="#34C759" rx="2"/>
<text x="507" y="379" font-size="12" fill="#111827">Non-author contributors</text>
<text x="72" y="394" font-size="8" fill="#e5e7eb">data since Dec 11, 2025</text>
</svg>