<svg xmlns="http://www.w3.org/2000/svg" width="800" height="400" viewBox="0 0 800 400">
<defs>
  <style>text { font-family: -apple-system, BlinkMacSystemFont, 'Segoe UI', Roboto, sans-serif; }</style>
  <linearGradient id="g1" x1="0" y1="0" x2="0" y2="1">
  <stop offset="0%" stop-color="#FF6363" stop-opacity="0.25"/>
  <stop offset="100%" stop-color="#FF6363" stop-opacity="0"/>
</linearGradient>
  <clipPath id="ca"><rect x="72" y="45" width="698" height="295"/></clipPath>
</defs>
<rect width="800" height="400" fill="#ffffff" rx="12"/>
<text x="400" y="26" text-anchor="middle" font-size="15" font-weight="600" fill="#111827">Packages Growth Over Time</text>
<line x1="72" y1="340.0" x2="770" y2="340.0" stroke="#f3f4f6" stroke-width="1"/>
<text x="66" y="344.0" text-anchor="end" font-size="11" fill="#6b7280">2.4k</text>
<line x1="72" y1="266.3" x2="770" y2="266.3" stroke="#f3f4f6" stroke-width="1"/>
<text x="66" y="270.3" text-anchor="end" font-size="11" fill="#6b7280">2.6k</text>
<line x1="72" y1="192.5" x2="770" y2="192.5" stroke="#f3f4f6" stroke-width="1"/>
<text x="66" y="196.5" text-anchor="end" font-size="11" fill="#6b7280">2.8k</text>
<line x1="72" y1="118.8" x2="770" y2="118.8" stroke="#f3f4f6" stroke-width="1"/>
<text x="66" y="122.8" text-anchor="end" font-size="11" fill="#6b7280">3.0k</text>
<line x1="72" y1="45.0" x2="770" y2="45.0" stroke="#f3f4f6" stroke-width="1"/>
<text x="66" y="49.0" text-anchor="end" font-size="11" fill="#6b7280">3.2k</text>
<line x1="118.8" y1="45" x2="118.8" y2="340" stroke="#e5e7eb" stroke-width="1" stroke-dasharray="3,3" clip-path="url(#ca)"/>
<line x1="220.2" y1="45" x2="220.2" y2="340" stroke="#e5e7eb" stroke-width="1" stroke-dasharray="3,3" clip-path="url(#ca)"/>
<line x1="325.5" y1="45" x2="325.5" y2="340" stroke="#e5e7eb" stroke-width="1" stroke-dasharray="3,3" clip-path="url(#ca)"/>
<line x1="430.7" y1="45" x2="430.7" y2="340" stroke="#e5e7eb" stroke-width="1" stroke-dasharray="3,3" clip-path="url(#ca)"/>
<line x1="536.0" y1="45" x2="536.0" y2="340" stroke="#e5e7eb" stroke-width="1" stroke-dasharray="3,3" clip-path="url(#ca)"/>
<line x1="637.4" y1="45" x2="637.4" y2="340" stroke="#e5e7eb" stroke-width="1" stroke-dasharray="3,3" clip-path="url(#ca)"/>
<line x1="731.0" y1="45" x2="731.0" y2="340" stroke="#e5e7eb" stroke-width="1" stroke-dasharray="3,3" clip-path="url(#ca)"/>
<text x="72.0" y="358.0" text-anchor="middle" font-size="11" fill="#6b7280">Dec 11</text>
<text x="212.4" y="358.0" text-anchor="middle" font-size="11" fill="#6b7280">Jan 30</text>
<text x="352.8" y="358.0" text-anchor="middle" font-size="11" fill="#6b7280">Mar 9</text>
<text x="489.2" y="358.0" text-anchor="middle" font-size="11" fill="#6b7280">Apr 17</text>
<text x="629.6" y="358.0" text-anchor="middle" font-size="11" fill="#6b7280">May 30</text>
<text x="770.0" y="358.0" text-anchor="middle" font-size="11" fill="#6b7280">Jul 13</text>
<line x1="72" y1="45" x2="72" y2="340" stroke="#e5e7eb" stroke-width="1"/>
<line x1="72" y1="340" x2="770" y2="340" stroke="#e5e7eb" stroke-width="1"/>
<text x="-192.5" y="18" text-anchor="middle" font-size="12" fill="#6b7280" transform="rotate(-90)">Extensions</text>
<path d="M 72.0,340 L 72.0,311.6 L 75.9,311.2 L 79.8,311.2 L 83.7,310.1 L 87.6,310.1 L 91.5,309.4 L 95.4,308.7 L 99.3,308.3 L 103.2,306.4 L 107.1,305.0 L 111.0,305.0 L 114.9,305.0 L 118.8,305.0 L 122.7,304.2 L 126.6,304.2 L 130.5,304.2 L 134.4,303.5 L 138.3,302.0 L 142.2,299.4 L 146.1,297.6 L 150.0,296.9 L 153.9,296.5 L 157.8,295.0 L 161.7,290.6 L 165.6,289.1 L 169.5,289.1 L 173.4,285.4 L 177.3,284.3 L 181.2,282.8 L 185.1,281.7 L 189.0,279.5 L 192.9,277.7 L 196.8,277.3 L 200.7,274.4 L 204.6,271.8 L 208.5,271.8 L 212.4,269.9 L 216.3,268.5 L 220.2,268.1 L 224.1,267.7 L 228.0,267.4 L 231.9,266.3 L 235.8,259.6 L 239.7,256.7 L 243.6,255.2 L 247.5,254.4 L 251.4,253.3 L 255.3,250.8 L 259.2,250.0 L 263.1,249.3 L 267.0,247.1 L 270.9,246.3 L 274.8,245.6 L 278.7,245.6 L 282.6,239.0 L 286.5,238.2 L 290.4,237.5 L 294.3,236.0 L 298.2,234.2 L 302.1,234.2 L 306.0,231.2 L 309.9,226.4 L 313.8,225.7 L 317.7,226.1 L 321.6,224.9 L 325.5,224.6 L 329.4,224.6 L 333.3,222.4 L 337.2,220.5 L 341.1,219.1 L 345.0,217.2 L 348.9,216.8 L 352.8,216.8 L 356.7,214.3 L 360.6,213.5 L 364.5,213.2 L 368.4,208.7 L 372.3,208.4 L 376.2,208.4 L 380.1,208.4 L 384.0,208.0 L 387.9,206.1 L 391.8,204.7 L 395.7,202.8 L 399.6,202.5 L 403.5,201.3 L 407.4,198.0 L 411.3,195.1 L 415.2,194.7 L 419.1,194.3 L 422.9,193.2 L 426.8,189.6 L 430.7,188.8 L 434.6,187.7 L 438.5,185.5 L 442.4,185.1 L 446.3,184.8 L 450.2,184.8 L 454.1,184.0 L 458.0,181.8 L 461.9,181.1 L 465.8,180.3 L 469.7,180.0 L 473.6,179.2 L 477.5,175.5 L 481.4,175.2 L 485.3,174.4 L 489.2,174.1 L 493.1,172.2 L 497.0,171.9 L 500.9,171.5 L 504.8,170.4 L 508.7,168.9 L 512.6,168.9 L 516.5,168.9 L 520.4,168.9 L 524.3,168.2 L 528.2,166.3 L 532.1,166.0 L 536.0,164.1 L 539.9,163.7 L 543.8,163.4 L 547.7,161.2 L 551.6,158.9 L 555.5,158.6 L 559.4,158.2 L 563.3,153.4 L 567.2,151.9 L 571.1,150.8 L 575.0,150.5 L 578.9,147.9 L 582.8,147.9 L 586.7,146.0 L 590.6,144.9 L 594.5,141.2 L 598.4,139.8 L 602.3,139.4 L 606.2,139.0 L 610.1,139.0 L 614.0,138.7 L 617.9,136.5 L 621.8,134.6 L 625.7,134.6 L 629.6,134.2 L 633.5,134.2 L 637.4,132.8 L 641.3,132.0 L 645.2,130.9 L 649.1,129.8 L 653.0,128.3 L 656.9,128.3 L 660.8,127.2 L 664.7,125.8 L 668.6,122.8 L 672.5,120.2 L 676.4,119.5 L 680.3,118.8 L 684.2,118.0 L 688.1,117.6 L 692.0,116.5 L 695.9,114.3 L 699.8,114.0 L 703.7,112.5 L 707.6,111.0 L 711.5,108.4 L 715.4,107.3 L 719.3,106.6 L 723.2,106.6 L 727.1,105.1 L 731.0,104.4 L 734.9,103.6 L 738.8,103.3 L 742.7,102.2 L 746.6,102.2 L 750.5,100.7 L 754.4,100.3 L 758.3,99.6 L 762.2,97.0 L 766.1,95.5 L 770.0,95.5 L 770.0,340 Z" fill="url(#g1)" clip-path="url(#ca)"/>
<path d="M 72.0,311.6 L 75.9,311.2 L 79.8,311.2 L 83.7,310.1 L 87.6,310.1 L 91.5,309.4 L 95.4,308.7 L 99.3,308.3 L 103.2,306.4 L 107.1,305.0 L 111.0,305.0 L 114.9,305.0 L 118.8,305.0 L 122.7,304.2 L 126.6,304.2 L 130.5,304.2 L 134.4,303.5 L 138.3,302.0 L 142.2,299.4 L 146.1,297.6 L 150.0,296.9 L 153.9,296.5 L 157.8,295.0 L 161.7,290.6 L 165.6,289.1 L 169.5,289.1 L 173.4,285.4 L 177.3,284.3 L 181.2,282.8 L 185.1,281.7 L 189.0,279.5 L 192.9,277.7 L 196.8,277.3 L 200.7,274.4 L 204.6,271.8 L 208.5,271.8 L 212.4,269.9 L 216.3,268.5 L 220.2,268.1 L 224.1,267.7 L 228.0,267.4 L 231.9,266.3 L 235.8,259.6 L 239.7,256.7 L 243.6,255.2 L 247.5,254.4 L 251.4,253.3 L 255.3,250.8 L 259.2,250.0 L 263.1,249.3 L 267.0,247.1 L 270.9,246.3 L 274.8,245.6 L 278.7,245.6 L 282.6,239.0 L 286.5,238.2 L 290.4,237.5 L 294.3,236.0 L 298.2,234.2 L 302.1,234.2 L 306.0,231.2 L 309.9,226.4 L 313.8,225.7 L 317.7,226.1 L 321.6,224.9 L 325.5,224.6 L 329.4,224.6 L 333.3,222.4 L 337.2,220.5 L 341.1,219.1 L 345.0,217.2 L 348.9,216.8 L 352.8,216.8 L 356.7,214.3 L 360.6,213.5 L 364.5,213.2 L 368.4,208.7 L 372.3,208.4 L 376.2,208.4 L 380.1,208.4 L 384.0,208.0 L 387.9,206.1 L 391.8,204.7 L 395.7,202.8 L 399.6,202.5 L 403.5,201.3 L 407.4,198.0 L 411.3,195.1 L 415.2,194.7 L 419.1,194.3 L 422.9,193.2 L 426.8,189.6 L 430.7,188.8 L 434.6,187.7 L 438.5,185.5 L 442.4,185.1 L 446.3,184.8 L 450.2,184.8 L 454.1,184.0 L 458.0,181.8 L 461.9,181.1 L 465.8,180.3 L 469.7,180.0 L 473.6,179.2 L 477.5,175.5 L 481.4,175.2 L 485.3,174.4 L 489.2,174.1 L 493.1,172.2 L 497.0,171.9 L 500.9,171.5 L 504.8,170.4 L 508.7,168.9 L 512.6,168.9 L 516.5,168.9 L 520.4,168.9 L 524.3,168.2 L 528.2,166.3 L 532.1,166.0 L 536.0,164.1 L 539.9,163.7 L 543.8,163.4 L 547.7,161.2 L 551.6,158.9 L 555.5,158.6 L 559.4,158.2 L 563.3,153.4 L 567.2,151.9 L 571.1,150.8 L 575.0,150.5 L 578.9,147.9 L 582.8,147.9 L 586.7,146.0 L 590.6,144.9 L 594.5,141.2 L 598.4,139.8 L 602.3,139.4 L 606.2,139.0 L 610.1,139.0 L 614.0,138.7 L 617.9,136.5 L 621.8,134.6 L 625.7,134.6 L 629.6,134.2 L 633.5,134.2 L 637.4,132.8 L 641.3,132.0 L 645.2,130.9 L 649.1,129.8 L 653.0,128.3 L 656.9,128.3 L 660.8,127.2 L 664.7,125.8 L 668.6,122.8 L 672.5,120.2 L 676.4,119.5 L 680.3,118.8 L 684.2,118.0 L 688.1,117.6 L 692.0,116.5 L 695.9,114.3 L 699.8,114.0 L 703.7,112.5 L 707.6,111.0 L 711.5,108.4 L 715.4,107.3 L 719.3,106.6 L 723.2,106.6 L 727.1,105.1 L 731.0,104.4 L 734.9,103.6 L 738.8,103.3 L 742.7,102.2 L 746.6,102.2 L 750.5,100.7 L 754.4,100.3 L 758.3,99.6 L 762.2,97.0 L 766.1,95.5 L 770.0,95.5" fill="none" stroke="#FF6363" stroke-width="2.5" stroke-linejoin="round" clip-path="url(#ca)"/>
<text x="93.4" y="55.0" text-anchor="middle" font-size="9" fill="#FF6363" opacity="0.85" clip-path="url(#ca)">+0.7% (+18)</text>
<text x="167.5" y="55.0" text-anchor="middle" font-size="9" fill="#FF6363" opacity="0.85" clip-path="url(#ca)">+4.0% (+99)</text>
<text x="270.9" y="55.0" text-anchor="middle" font-size="9" fill="#FF6363" opacity="0.85" clip-path="url(#ca)">+4.5% (+117)</text>
<text x="376.2" y="55.0" text-anchor="middle" font-size="9" fill="#FF6363" opacity="0.85" clip-path="url(#ca)">+3.5% (+95)</text>
<text x="481.4" y="55.0" text-anchor="middle" font-size="9" fill="#FF6363" opacity="0.85" clip-path="url(#ca)">+2.2% (+62)</text>
<text x="584.8" y="55.0" text-anchor="middle" font-size="9" fill="#FF6363" opacity="0.85" clip-path="url(#ca)">+2.8% (+81)</text>
<text x="682.3" y="55.0" text-anchor="middle" font-size="9" fill="#FF6363" opacity="0.85" clip-path="url(#ca)">+2.5% (+75)</text>
<text x="750.5" y="55.0" text-anchor="middle" font-size="9" fill="#FF6363" opacity="0.85" clip-path="url(#ca)">+0.8% (+24)</text>
<rect x="351" y="369" width="12" height="12" fill="#FF6363" rx="2"/>
<text x="367" y="379" font-size="12" fill="#111827">Extensions</text>
<text x="72" y="394" font-size="8" fill="#e5e7eb">data since Dec 11, 2025</text>
</svg>