<svg xmlns="http://www.w3.org/2000/svg" width="800" height="400" viewBox="0 0 800 400">
<defs>
  <style>text { font-family: -apple-system, BlinkMacSystemFont, 'Segoe UI', Roboto, sans-serif; }</style>
  <linearGradient id="g5" x1="0" y1="0" x2="0" y2="1">
  <stop offset="0%" stop-color="#34C759" stop-opacity="0.25"/>
  <stop offset="100%" stop-color="#34C759" stop-opacity="0"/>
</linearGradient>
<linearGradient id="g6" x1="0" y1="0" x2="0" y2="1">
  <stop offset="0%" stop-color="#4F8EF7" stop-opacity="0.25"/>
  <stop offset="100%" stop-color="#4F8EF7" stop-opacity="0"/>
</linearGradient>
<linearGradient id="g7" x1="0" y1="0" x2="0" y2="1">
  <stop offset="0%" stop-color="#FF6363" stop-opacity="0.25"/>
  <stop offset="100%" stop-color="#FF6363" stop-opacity="0"/>
</linearGradient>
  <clipPath id="ca"><rect x="72" y="45" width="698" height="295"/></clipPath>
</defs>
<rect width="800" height="400" fill="#ffffff" rx="12"/>
<text x="400" y="26" text-anchor="middle" font-size="15" font-weight="600" fill="#111827">Platform Support Over Time</text>
<line x1="72" y1="340.0" x2="770" y2="340.0" stroke="#f3f4f6" stroke-width="1"/>
<text x="66" y="344.0" text-anchor="end" font-size="11" fill="#6b7280">0</text>
<line x1="72" y1="281.0" x2="770" y2="281.0" stroke="#f3f4f6" stroke-width="1"/>
<text x="66" y="285.0" text-anchor="end" font-size="11" fill="#6b7280">200</text>
<line x1="72" y1="222.0" x2="770" y2="222.0" stroke="#f3f4f6" stroke-width="1"/>
<text x="66" y="226.0" text-anchor="end" font-size="11" fill="#6b7280">400</text>
<line x1="72" y1="163.0" x2="770" y2="163.0" stroke="#f3f4f6" stroke-width="1"/>
<text x="66" y="167.0" text-anchor="end" font-size="11" fill="#6b7280">600</text>
<line x1="72" y1="104.0" x2="770" y2="104.0" stroke="#f3f4f6" stroke-width="1"/>
<text x="66" y="108.0" text-anchor="end" font-size="11" fill="#6b7280">800</text>
<line x1="72" y1="45.0" x2="770" y2="45.0" stroke="#f3f4f6" stroke-width="1"/>
<text x="66" y="49.0" text-anchor="end" font-size="11" fill="#6b7280">1.0k</text>
<line x1="123.4" y1="45" x2="123.4" y2="340" stroke="#e5e7eb" stroke-width="1" stroke-dasharray="3,3" clip-path="url(#ca)"/>
<line x1="234.7" y1="45" x2="234.7" y2="340" stroke="#e5e7eb" stroke-width="1" stroke-dasharray="3,3" clip-path="url(#ca)"/>
<line x1="350.3" y1="45" x2="350.3" y2="340" stroke="#e5e7eb" stroke-width="1" stroke-dasharray="3,3" clip-path="url(#ca)"/>
<line x1="466.0" y1="45" x2="466.0" y2="340" stroke="#e5e7eb" stroke-width="1" stroke-dasharray="3,3" clip-path="url(#ca)"/>
<line x1="581.6" y1="45" x2="581.6" y2="340" stroke="#e5e7eb" stroke-width="1" stroke-dasharray="3,3" clip-path="url(#ca)"/>
<line x1="692.9" y1="45" x2="692.9" y2="340" stroke="#e5e7eb" stroke-width="1" stroke-dasharray="3,3" clip-path="url(#ca)"/>
<text x="72.0" y="358.0" text-anchor="middle" font-size="11" fill="#6b7280">Dec 11</text>
<text x="213.3" y="358.0" text-anchor="middle" font-size="11" fill="#6b7280">Jan 27</text>
<text x="350.3" y="358.0" text-anchor="middle" font-size="11" fill="#6b7280">Mar 1</text>
<text x="491.7" y="358.0" text-anchor="middle" font-size="11" fill="#6b7280">Apr 8</text>
<text x="628.7" y="358.0" text-anchor="middle" font-size="11" fill="#6b7280">May 17</text>
<text x="770.0" y="358.0" text-anchor="middle" font-size="11" fill="#6b7280">Jun 24</text>
<line x1="72" y1="45" x2="72" y2="340" stroke="#e5e7eb" stroke-width="1"/>
<line x1="72" y1="340" x2="770" y2="340" stroke="#e5e7eb" stroke-width="1"/>
<text x="-192.5" y="18" text-anchor="middle" font-size="12" fill="#6b7280" transform="rotate(-90)">Extensions</text>
<path d="M 72.0,340 L 72.0,242.6 L 76.3,240.0 L 80.6,239.7 L 84.8,238.5 L 89.1,237.9 L 93.4,235.0 L 97.7,233.2 L 102.0,232.3 L 106.3,230.8 L 110.5,229.1 L 114.8,228.2 L 119.1,227.9 L 123.4,227.0 L 127.7,226.4 L 132.0,226.1 L 136.2,225.2 L 140.5,224.4 L 144.8,223.5 L 149.1,222.6 L 153.4,221.4 L 157.6,220.5 L 161.9,219.6 L 166.2,218.8 L 170.5,217.0 L 174.8,216.4 L 179.1,216.4 L 183.3,214.3 L 187.6,213.7 L 191.9,213.2 L 196.2,212.6 L 200.5,211.1 L 204.7,209.0 L 209.0,208.7 L 213.3,208.4 L 217.6,206.7 L 221.9,206.1 L 226.2,204.6 L 230.4,204.3 L 234.7,204.0 L 239.0,203.4 L 243.3,203.4 L 247.6,203.4 L 251.9,199.3 L 256.1,199.0 L 260.4,198.1 L 264.7,197.8 L 269.0,197.5 L 273.3,196.6 L 277.5,196.0 L 281.8,195.4 L 286.1,193.7 L 290.4,193.7 L 294.7,193.7 L 299.0,193.4 L 303.2,190.4 L 307.5,189.6 L 311.8,189.0 L 316.1,188.1 L 320.4,187.5 L 324.7,187.5 L 328.9,186.0 L 333.2,183.9 L 337.5,183.4 L 341.8,183.1 L 346.1,182.2 L 350.3,182.2 L 354.6,181.6 L 358.9,180.7 L 363.2,180.1 L 367.5,178.9 L 371.8,177.8 L 376.0,177.5 L 380.3,177.5 L 384.6,176.3 L 388.9,176.3 L 393.2,176.3 L 397.4,174.5 L 401.7,174.2 L 406.0,173.9 L 410.3,173.9 L 414.6,173.6 L 418.9,172.4 L 423.1,171.9 L 427.4,171.0 L 431.7,171.0 L 436.0,170.7 L 440.3,169.5 L 444.6,168.6 L 448.8,168.6 L 453.1,168.3 L 457.4,167.7 L 461.7,165.7 L 466.0,165.1 L 470.2,164.2 L 474.5,164.2 L 478.8,163.6 L 483.1,163.3 L 487.4,163.0 L 491.7,162.7 L 495.9,162.4 L 500.2,162.4 L 504.5,162.1 L 508.8,161.8 L 513.1,160.9 L 517.3,159.8 L 521.6,159.5 L 525.9,158.6 L 530.2,158.6 L 534.5,157.4 L 538.8,157.1 L 543.0,157.1 L 547.3,157.1 L 551.6,156.2 L 555.9,155.9 L 560.2,155.9 L 564.5,155.9 L 568.7,155.6 L 573.0,154.4 L 577.3,154.2 L 581.6,153.3 L 585.9,152.7 L 590.1,152.7 L 594.4,151.8 L 598.7,151.2 L 603.0,151.2 L 607.3,150.9 L 611.6,149.4 L 615.8,148.0 L 620.1,147.7 L 624.4,147.1 L 628.7,145.9 L 633.0,145.9 L 637.3,145.3 L 641.5,143.8 L 645.8,141.2 L 650.1,140.3 L 654.4,140.3 L 658.7,140.3 L 662.9,140.3 L 667.2,140.3 L 671.5,139.1 L 675.8,138.2 L 680.1,138.2 L 684.4,138.2 L 688.6,138.2 L 692.9,137.3 L 697.2,137.3 L 701.5,136.5 L 705.8,135.6 L 710.0,135.3 L 714.3,135.0 L 718.6,134.4 L 722.9,134.4 L 727.2,133.5 L 731.5,132.3 L 735.7,131.4 L 740.0,129.7 L 744.3,129.1 L 748.6,128.8 L 752.9,128.5 L 757.2,127.9 L 761.4,127.6 L 765.7,126.1 L 770.0,125.2 L 770.0,340 Z" fill="url(#g5)" clip-path="url(#ca)"/>
<path d="M 72.0,242.6 L 76.3,240.0 L 80.6,239.7 L 84.8,238.5 L 89.1,237.9 L 93.4,235.0 L 97.7,233.2 L 102.0,232.3 L 106.3,230.8 L 110.5,229.1 L 114.8,228.2 L 119.1,227.9 L 123.4,227.0 L 127.7,226.4 L 132.0,226.1 L 136.2,225.2 L 140.5,224.4 L 144.8,223.5 L 149.1,222.6 L 153.4,221.4 L 157.6,220.5 L 161.9,219.6 L 166.2,218.8 L 170.5,217.0 L 174.8,216.4 L 179.1,216.4 L 183.3,214.3 L 187.6,213.7 L 191.9,213.2 L 196.2,212.6 L 200.5,211.1 L 204.7,209.0 L 209.0,208.7 L 213.3,208.4 L 217.6,206.7 L 221.9,206.1 L 226.2,204.6 L 230.4,204.3 L 234.7,204.0 L 239.0,203.4 L 243.3,203.4 L 247.6,203.4 L 251.9,199.3 L 256.1,199.0 L 260.4,198.1 L 264.7,197.8 L 269.0,197.5 L 273.3,196.6 L 277.5,196.0 L 281.8,195.4 L 286.1,193.7 L 290.4,193.7 L 294.7,193.7 L 299.0,193.4 L 303.2,190.4 L 307.5,189.6 L 311.8,189.0 L 316.1,188.1 L 320.4,187.5 L 324.7,187.5 L 328.9,186.0 L 333.2,183.9 L 337.5,183.4 L 341.8,183.1 L 346.1,182.2 L 350.3,182.2 L 354.6,181.6 L 358.9,180.7 L 363.2,180.1 L 367.5,178.9 L 371.8,177.8 L 376.0,177.5 L 380.3,177.5 L 384.6,176.3 L 388.9,176.3 L 393.2,176.3 L 397.4,174.5 L 401.7,174.2 L 406.0,173.9 L 410.3,173.9 L 414.6,173.6 L 418.9,172.4 L 423.1,171.9 L 427.4,171.0 L 431.7,171.0 L 436.0,170.7 L 440.3,169.5 L 444.6,168.6 L 448.8,168.6 L 453.1,168.3 L 457.4,167.7 L 461.7,165.7 L 466.0,165.1 L 470.2,164.2 L 474.5,164.2 L 478.8,163.6 L 483.1,163.3 L 487.4,163.0 L 491.7,162.7 L 495.9,162.4 L 500.2,162.4 L 504.5,162.1 L 508.8,161.8 L 513.1,160.9 L 517.3,159.8 L 521.6,159.5 L 525.9,158.6 L 530.2,158.6 L 534.5,157.4 L 538.8,157.1 L 543.0,157.1 L 547.3,157.1 L 551.6,156.2 L 555.9,155.9 L 560.2,155.9 L 564.5,155.9 L 568.7,155.6 L 573.0,154.4 L 577.3,154.2 L 581.6,153.3 L 585.9,152.7 L 590.1,152.7 L 594.4,151.8 L 598.7,151.2 L 603.0,151.2 L 607.3,150.9 L 611.6,149.4 L 615.8,148.0 L 620.1,147.7 L 624.4,147.1 L 628.7,145.9 L 633.0,145.9 L 637.3,145.3 L 641.5,143.8 L 645.8,141.2 L 650.1,140.3 L 654.4,140.3 L 658.7,140.3 L 662.9,140.3 L 667.2,140.3 L 671.5,139.1 L 675.8,138.2 L 680.1,138.2 L 684.4,138.2 L 688.6,138.2 L 692.9,137.3 L 697.2,137.3 L 701.5,136.5 L 705.8,135.6 L 710.0,135.3 L 714.3,135.0 L 718.6,134.4 L 722.9,134.4 L 727.2,133.5 L 731.5,132.3 L 735.7,131.4 L 740.0,129.7 L 744.3,129.1 L 748.6,128.8 L 752.9,128.5 L 757.2,127.9 L 761.4,127.6 L 765.7,126.1 L 770.0,125.2" fill="none" stroke="#34C759" stroke-width="2.5" stroke-linejoin="round" clip-path="url(#ca)"/>
<path d="M 72.0,340 L 72.0,222.6 L 76.3,222.6 L 80.6,222.3 L 84.8,221.4 L 89.1,221.7 L 93.4,221.7 L 97.7,220.5 L 102.0,219.6 L 106.3,219.6 L 110.5,219.9 L 114.8,219.6 L 119.1,219.3 L 123.4,219.1 L 127.7,219.1 L 132.0,219.1 L 136.2,219.3 L 140.5,218.8 L 144.8,218.2 L 149.1,216.4 L 153.4,215.2 L 157.6,215.2 L 161.9,214.9 L 166.2,213.2 L 170.5,210.5 L 174.8,209.6 L 179.1,209.0 L 183.3,207.0 L 187.6,205.5 L 191.9,204.9 L 196.2,204.3 L 200.5,203.7 L 204.7,203.4 L 209.0,203.4 L 213.3,201.3 L 217.6,200.8 L 221.9,200.2 L 226.2,200.2 L 230.4,198.7 L 234.7,198.4 L 239.0,197.5 L 243.3,196.3 L 247.6,194.9 L 251.9,192.8 L 256.1,190.7 L 260.4,190.4 L 264.7,189.8 L 269.0,189.3 L 273.3,187.5 L 277.5,187.5 L 281.8,186.9 L 286.1,186.0 L 290.4,185.4 L 294.7,184.2 L 299.0,184.5 L 303.2,181.0 L 307.5,180.7 L 311.8,180.4 L 316.1,179.8 L 320.4,178.0 L 324.7,178.0 L 328.9,176.3 L 333.2,174.2 L 337.5,174.2 L 341.8,174.2 L 346.1,173.9 L 350.3,173.6 L 354.6,173.3 L 358.9,171.9 L 363.2,170.1 L 367.5,169.5 L 371.8,168.3 L 376.0,168.3 L 380.3,167.4 L 384.6,165.7 L 388.9,164.8 L 393.2,164.5 L 397.4,162.4 L 401.7,162.1 L 406.0,162.1 L 410.3,161.8 L 414.6,161.8 L 418.9,160.3 L 423.1,159.8 L 427.4,158.9 L 431.7,158.6 L 436.0,158.0 L 440.3,155.6 L 444.6,152.4 L 448.8,152.1 L 453.1,151.5 L 457.4,151.2 L 461.7,149.7 L 466.0,118.5 L 470.2,117.9 L 474.5,116.4 L 478.8,116.4 L 483.1,116.4 L 487.4,116.7 L 491.7,116.4 L 495.9,114.6 L 500.2,114.0 L 504.5,113.7 L 508.8,113.4 L 513.1,112.3 L 517.3,110.5 L 521.6,110.5 L 525.9,110.5 L 530.2,110.2 L 534.5,109.9 L 538.8,109.9 L 543.0,109.3 L 547.3,108.4 L 551.6,106.9 L 555.9,106.4 L 560.2,106.1 L 564.5,106.1 L 568.7,105.8 L 573.0,105.2 L 577.3,104.9 L 581.6,103.4 L 585.9,103.4 L 590.1,102.8 L 594.4,101.6 L 598.7,100.2 L 603.0,99.9 L 607.3,99.6 L 611.6,96.9 L 615.8,96.3 L 620.1,95.7 L 624.4,95.7 L 628.7,94.6 L 633.0,94.0 L 637.3,92.5 L 641.5,91.9 L 645.8,91.0 L 650.1,90.7 L 654.4,89.5 L 658.7,88.7 L 662.9,88.4 L 667.2,87.8 L 671.5,86.6 L 675.8,86.0 L 680.1,85.1 L 684.4,84.5 L 688.6,84.2 L 692.9,83.6 L 697.2,82.8 L 701.5,82.2 L 705.8,81.6 L 710.0,80.7 L 714.3,80.7 L 718.6,80.1 L 722.9,78.6 L 727.2,77.2 L 731.5,76.3 L 735.7,76.6 L 740.0,76.0 L 744.3,75.7 L 748.6,75.4 L 752.9,74.8 L 757.2,73.3 L 761.4,73.3 L 765.7,73.0 L 770.0,72.1 L 770.0,340 Z" fill="url(#g6)" clip-path="url(#ca)"/>
<path d="M 72.0,222.6 L 76.3,222.6 L 80.6,222.3 L 84.8,221.4 L 89.1,221.7 L 93.4,221.7 L 97.7,220.5 L 102.0,219.6 L 106.3,219.6 L 110.5,219.9 L 114.8,219.6 L 119.1,219.3 L 123.4,219.1 L 127.7,219.1 L 132.0,219.1 L 136.2,219.3 L 140.5,218.8 L 144.8,218.2 L 149.1,216.4 L 153.4,215.2 L 157.6,215.2 L 161.9,214.9 L 166.2,213.2 L 170.5,210.5 L 174.8,209.6 L 179.1,209.0 L 183.3,207.0 L 187.6,205.5 L 191.9,204.9 L 196.2,204.3 L 200.5,203.7 L 204.7,203.4 L 209.0,203.4 L 213.3,201.3 L 217.6,200.8 L 221.9,200.2 L 226.2,200.2 L 230.4,198.7 L 234.7,198.4 L 239.0,197.5 L 243.3,196.3 L 247.6,194.9 L 251.9,192.8 L 256.1,190.7 L 260.4,190.4 L 264.7,189.8 L 269.0,189.3 L 273.3,187.5 L 277.5,187.5 L 281.8,186.9 L 286.1,186.0 L 290.4,185.4 L 294.7,184.2 L 299.0,184.5 L 303.2,181.0 L 307.5,180.7 L 311.8,180.4 L 316.1,179.8 L 320.4,178.0 L 324.7,178.0 L 328.9,176.3 L 333.2,174.2 L 337.5,174.2 L 341.8,174.2 L 346.1,173.9 L 350.3,173.6 L 354.6,173.3 L 358.9,171.9 L 363.2,170.1 L 367.5,169.5 L 371.8,168.3 L 376.0,168.3 L 380.3,167.4 L 384.6,165.7 L 388.9,164.8 L 393.2,164.5 L 397.4,162.4 L 401.7,162.1 L 406.0,162.1 L 410.3,161.8 L 414.6,161.8 L 418.9,160.3 L 423.1,159.8 L 427.4,158.9 L 431.7,158.6 L 436.0,158.0 L 440.3,155.6 L 444.6,152.4 L 448.8,152.1 L 453.1,151.5 L 457.4,151.2 L 461.7,149.7 L 466.0,118.5 L 470.2,117.9 L 474.5,116.4 L 478.8,116.4 L 483.1,116.4 L 487.4,116.7 L 491.7,116.4 L 495.9,114.6 L 500.2,114.0 L 504.5,113.7 L 508.8,113.4 L 513.1,112.3 L 517.3,110.5 L 521.6,110.5 L 525.9,110.5 L 530.2,110.2 L 534.5,109.9 L 538.8,109.9 L 543.0,109.3 L 547.3,108.4 L 551.6,106.9 L 555.9,106.4 L 560.2,106.1 L 564.5,106.1 L 568.7,105.8 L 573.0,105.2 L 577.3,104.9 L 581.6,103.4 L 585.9,103.4 L 590.1,102.8 L 594.4,101.6 L 598.7,100.2 L 603.0,99.9 L 607.3,99.6 L 611.6,96.9 L 615.8,96.3 L 620.1,95.7 L 624.4,95.7 L 628.7,94.6 L 633.0,94.0 L 637.3,92.5 L 641.5,91.9 L 645.8,91.0 L 650.1,90.7 L 654.4,89.5 L 658.7,88.7 L 662.9,88.4 L 667.2,87.8 L 671.5,86.6 L 675.8,86.0 L 680.1,85.1 L 684.4,84.5 L 688.6,84.2 L 692.9,83.6 L 697.2,82.8 L 701.5,82.2 L 705.8,81.6 L 710.0,80.7 L 714.3,80.7 L 718.6,80.1 L 722.9,78.6 L 727.2,77.2 L 731.5,76.3 L 735.7,76.6 L 740.0,76.0 L 744.3,75.7 L 748.6,75.4 L 752.9,74.8 L 757.2,73.3 L 761.4,73.3 L 765.7,73.0 L 770.0,72.1" fill="none" stroke="#4F8EF7" stroke-width="2.5" stroke-linejoin="round" clip-path="url(#ca)"/>
<path d="M 72.0,340 L 72.0,338.2 L 76.3,337.9 L 80.6,337.9 L 84.8,337.6 L 89.1,337.6 L 93.4,337.6 L 97.7,337.6 L 102.0,337.6 L 106.3,337.1 L 110.5,337.1 L 114.8,337.1 L 119.1,337.1 L 123.4,337.1 L 127.7,336.8 L 132.0,336.8 L 136.2,336.8 L 140.5,336.8 L 144.8,336.8 L 149.1,336.5 L 153.4,335.9 L 157.6,335.6 L 161.9,335.6 L 166.2,335.6 L 170.5,335.3 L 174.8,335.3 L 179.1,335.3 L 183.3,335.0 L 187.6,335.0 L 191.9,335.0 L 196.2,334.7 L 200.5,334.7 L 204.7,334.7 L 209.0,334.7 L 213.3,334.4 L 217.6,334.4 L 221.9,334.4 L 226.2,334.4 L 230.4,334.4 L 234.7,334.4 L 239.0,334.4 L 243.3,334.4 L 247.6,334.4 L 251.9,334.4 L 256.1,334.4 L 260.4,334.4 L 264.7,334.4 L 269.0,334.1 L 273.3,334.1 L 277.5,334.1 L 281.8,334.1 L 286.1,334.1 L 290.4,334.1 L 294.7,334.1 L 299.0,334.1 L 303.2,334.1 L 307.5,334.1 L 311.8,334.1 L 316.1,334.1 L 320.4,333.8 L 324.7,333.8 L 328.9,333.8 L 333.2,333.8 L 337.5,333.8 L 341.8,333.8 L 346.1,333.8 L 350.3,333.8 L 354.6,333.8 L 358.9,333.8 L 363.2,333.8 L 367.5,333.8 L 371.8,333.8 L 376.0,333.8 L 380.3,333.8 L 384.6,333.8 L 388.9,333.8 L 393.2,333.8 L 397.4,333.8 L 401.7,333.8 L 406.0,333.8 L 410.3,333.8 L 414.6,333.8 L 418.9,333.8 L 423.1,333.8 L 427.4,333.8 L 431.7,333.8 L 436.0,333.8 L 440.3,333.8 L 444.6,333.8 L 448.8,333.8 L 453.1,333.8 L 457.4,333.8 L 461.7,333.8 L 466.0,333.8 L 470.2,333.8 L 474.5,333.5 L 478.8,333.5 L 483.1,333.5 L 487.4,333.5 L 491.7,333.5 L 495.9,333.2 L 500.2,333.2 L 504.5,333.2 L 508.8,333.2 L 513.1,332.9 L 517.3,332.9 L 521.6,332.6 L 525.9,332.6 L 530.2,332.6 L 534.5,332.6 L 538.8,332.6 L 543.0,332.6 L 547.3,332.6 L 551.6,332.6 L 555.9,332.6 L 560.2,332.6 L 564.5,332.6 L 568.7,332.6 L 573.0,332.6 L 577.3,332.6 L 581.6,332.6 L 585.9,332.6 L 590.1,332.6 L 594.4,332.6 L 598.7,332.6 L 603.0,332.6 L 607.3,332.6 L 611.6,332.6 L 615.8,332.6 L 620.1,332.6 L 624.4,332.6 L 628.7,332.6 L 633.0,332.6 L 637.3,332.6 L 641.5,332.6 L 645.8,332.6 L 650.1,332.6 L 654.4,332.6 L 658.7,332.6 L 662.9,332.6 L 667.2,332.6 L 671.5,332.6 L 675.8,332.6 L 680.1,332.6 L 684.4,332.6 L 688.6,332.6 L 692.9,332.6 L 697.2,332.6 L 701.5,332.6 L 705.8,332.6 L 710.0,332.6 L 714.3,332.6 L 718.6,332.6 L 722.9,332.6 L 727.2,332.3 L 731.5,332.3 L 735.7,332.3 L 740.0,332.3 L 744.3,332.3 L 748.6,332.3 L 752.9,332.3 L 757.2,332.3 L 761.4,332.3 L 765.7,332.3 L 770.0,332.3 L 770.0,340 Z" fill="url(#g7)" clip-path="url(#ca)"/>
<path d="M 72.0,338.2 L 76.3,337.9 L 80.6,337.9 L 84.8,337.6 L 89.1,337.6 L 93.4,337.6 L 97.7,337.6 L 102.0,337.6 L 106.3,337.1 L 110.5,337.1 L 114.8,337.1 L 119.1,337.1 L 123.4,337.1 L 127.7,336.8 L 132.0,336.8 L 136.2,336.8 L 140.5,336.8 L 144.8,336.8 L 149.1,336.5 L 153.4,335.9 L 157.6,335.6 L 161.9,335.6 L 166.2,335.6 L 170.5,335.3 L 174.8,335.3 L 179.1,335.3 L 183.3,335.0 L 187.6,335.0 L 191.9,335.0 L 196.2,334.7 L 200.5,334.7 L 204.7,334.7 L 209.0,334.7 L 213.3,334.4 L 217.6,334.4 L 221.9,334.4 L 226.2,334.4 L 230.4,334.4 L 234.7,334.4 L 239.0,334.4 L 243.3,334.4 L 247.6,334.4 L 251.9,334.4 L 256.1,334.4 L 260.4,334.4 L 264.7,334.4 L 269.0,334.1 L 273.3,334.1 L 277.5,334.1 L 281.8,334.1 L 286.1,334.1 L 290.4,334.1 L 294.7,334.1 L 299.0,334.1 L 303.2,334.1 L 307.5,334.1 L 311.8,334.1 L 316.1,334.1 L 320.4,333.8 L 324.7,333.8 L 328.9,333.8 L 333.2,333.8 L 337.5,333.8 L 341.8,333.8 L 346.1,333.8 L 350.3,333.8 L 354.6,333.8 L 358.9,333.8 L 363.2,333.8 L 367.5,333.8 L 371.8,333.8 L 376.0,333.8 L 380.3,333.8 L 384.6,333.8 L 388.9,333.8 L 393.2,333.8 L 397.4,333.8 L 401.7,333.8 L 406.0,333.8 L 410.3,333.8 L 414.6,333.8 L 418.9,333.8 L 423.1,333.8 L 427.4,333.8 L 431.7,333.8 L 436.0,333.8 L 440.3,333.8 L 444.6,333.8 L 448.8,333.8 L 453.1,333.8 L 457.4,333.8 L 461.7,333.8 L 466.0,333.8 L 470.2,333.8 L 474.5,333.5 L 478.8,333.5 L 483.1,333.5 L 487.4,333.5 L 491.7,333.5 L 495.9,333.2 L 500.2,333.2 L 504.5,333.2 L 508.8,333.2 L 513.1,332.9 L 517.3,332.9 L 521.6,332.6 L 525.9,332.6 L 530.2,332.6 L 534.5,332.6 L 538.8,332.6 L 543.0,332.6 L 547.3,332.6 L 551.6,332.6 L 555.9,332.6 L 560.2,332.6 L 564.5,332.6 L 568.7,332.6 L 573.0,332.6 L 577.3,332.6 L 581.6,332.6 L 585.9,332.6 L 590.1,332.6 L 594.4,332.6 L 598.7,332.6 L 603.0,332.6 L 607.3,332.6 L 611.6,332.6 L 615.8,332.6 L 620.1,332.6 L 624.4,332.6 L 628.7,332.6 L 633.0,332.6 L 637.3,332.6 L 641.5,332.6 L 645.8,332.6 L 650.1,332.6 L 654.4,332.6 L 658.7,332.6 L 662.9,332.6 L 667.2,332.6 L 671.5,332.6 L 675.8,332.6 L 680.1,332.6 L 684.4,332.6 L 688.6,332.6 L 692.9,332.6 L 697.2,332.6 L 701.5,332.6 L 705.8,332.6 L 710.0,332.6 L 714.3,332.6 L 718.6,332.6 L 722.9,332.6 L 727.2,332.3 L 731.5,332.3 L 735.7,332.3 L 740.0,332.3 L 744.3,332.3 L 748.6,332.3 L 752.9,332.3 L 757.2,332.3 L 761.4,332.3 L 765.7,332.3 L 770.0,332.3" fill="none" stroke="#FF6363" stroke-width="2.5" stroke-linejoin="round" clip-path="url(#ca)"/>
<text x="95.6" y="55.0" text-anchor="middle" font-size="9" fill="#34C759" opacity="0.85" clip-path="url(#ca)">+15.2% (+50)</text>
<text x="95.6" y="66.0" text-anchor="middle" font-size="9" fill="#4F8EF7" opacity="0.85" clip-path="url(#ca)">+2.8% (+11)</text>
<text x="95.6" y="77.0" text-anchor="middle" font-size="9" fill="#FF6363" opacity="0.85" clip-path="url(#ca)">+66.7% (+4)</text>
<text x="176.9" y="55.0" text-anchor="middle" font-size="9" fill="#34C759" opacity="0.85" clip-path="url(#ca)">+20.1% (+77)</text>
<text x="176.9" y="66.0" text-anchor="middle" font-size="9" fill="#4F8EF7" opacity="0.85" clip-path="url(#ca)">+16.8% (+69)</text>
<text x="176.9" y="77.0" text-anchor="middle" font-size="9" fill="#FF6363" opacity="0.85" clip-path="url(#ca)">+90.0% (+9)</text>
<text x="290.4" y="55.0" text-anchor="middle" font-size="9" fill="#34C759" opacity="0.85" clip-path="url(#ca)">+16.1% (+74)</text>
<text x="290.4" y="66.0" text-anchor="middle" font-size="9" fill="#4F8EF7" opacity="0.85" clip-path="url(#ca)">+17.3% (+83)</text>
<text x="290.4" y="77.0" text-anchor="middle" font-size="9" fill="#FF6363" opacity="0.85" clip-path="url(#ca)">+10.5% (+2)</text>
<text x="406.0" y="55.0" text-anchor="middle" font-size="9" fill="#34C759" opacity="0.85" clip-path="url(#ca)">+10.5% (+56)</text>
<text x="406.0" y="66.0" text-anchor="middle" font-size="9" fill="#4F8EF7" opacity="0.85" clip-path="url(#ca)">+14.4% (+81)</text>
<text x="406.0" y="77.0" text-anchor="middle" font-size="9" fill="#FF6363" opacity="0.85" clip-path="url(#ca)">+0.0% (+0)</text>
<text x="521.6" y="55.0" text-anchor="middle" font-size="9" fill="#34C759" opacity="0.85" clip-path="url(#ca)">+6.2% (+37)</text>
<text x="521.6" y="66.0" text-anchor="middle" font-size="9" fill="#4F8EF7" opacity="0.85" clip-path="url(#ca)">+6.1% (+46)</text>
<text x="521.6" y="77.0" text-anchor="middle" font-size="9" fill="#FF6363" opacity="0.85" clip-path="url(#ca)">+19.0% (+4)</text>
<text x="635.1" y="55.0" text-anchor="middle" font-size="9" fill="#34C759" opacity="0.85" clip-path="url(#ca)">+8.1% (+51)</text>
<text x="635.1" y="66.0" text-anchor="middle" font-size="9" fill="#4F8EF7" opacity="0.85" clip-path="url(#ca)">+8.1% (+65)</text>
<text x="635.1" y="77.0" text-anchor="middle" font-size="9" fill="#FF6363" opacity="0.85" clip-path="url(#ca)">+0.0% (+0)</text>
<text x="731.5" y="55.0" text-anchor="middle" font-size="9" fill="#34C759" opacity="0.85" clip-path="url(#ca)">+6.0% (+41)</text>
<text x="731.5" y="66.0" text-anchor="middle" font-size="9" fill="#4F8EF7" opacity="0.85" clip-path="url(#ca)">+4.5% (+39)</text>
<text x="731.5" y="77.0" text-anchor="middle" font-size="9" fill="#FF6363" opacity="0.85" clip-path="url(#ca)">+4.0% (+1)</text>
<rect x="211" y="369" width="12" height="12" fill="#34C759" rx="2"/>
<text x="227" y="379" font-size="12" fill="#111827">macOS + Windows</text>
<rect x="351" y="369" width="12" height="12" fill="#4F8EF7" rx="2"/>
<text x="367" y="379" font-size="12" fill="#111827">macOS only</text>
<rect x="491" y="369" width="12" height="12" fill="#FF6363" rx="2"/>
<text x="507" y="379" font-size="12" fill="#111827">Windows only</text>
<text x="72" y="394" font-size="8" fill="#e5e7eb">data since Dec 11, 2025</text>
</svg>