<svg xmlns="http://www.w3.org/2000/svg" width="800" height="400" viewBox="0 0 800 400">
<defs>
  <style>text { font-family: -apple-system, BlinkMacSystemFont, 'Segoe UI', Roboto, sans-serif; }</style>
  <linearGradient id="g2" x1="0" y1="0" x2="0" y2="1">
  <stop offset="0%" stop-color="#4F8EF7" stop-opacity="0.25"/>
  <stop offset="100%" stop-color="#4F8EF7" stop-opacity="0"/>
</linearGradient>
<linearGradient id="g3" x1="0" y1="0" x2="0" y2="1">
  <stop offset="0%" stop-color="#BF5AF2" stop-opacity="0.25"/>
  <stop offset="100%" stop-color="#BF5AF2" stop-opacity="0"/>
</linearGradient>
<linearGradient id="g4" x1="0" y1="0" x2="0" y2="1">
  <stop offset="0%" stop-color="#34C759" stop-opacity="0.25"/>
  <stop offset="100%" stop-color="#34C759" stop-opacity="0"/>
</linearGradient>
  <clipPath id="ca"><rect x="72" y="45" width="698" height="295"/></clipPath>
</defs>
<rect width="800" height="400" fill="#ffffff" rx="12"/>
<text x="400" y="26" text-anchor="middle" font-size="15" font-weight="600" fill="#111827">Community Growth Over Time</text>
<line x1="72" y1="340.0" x2="770" y2="340.0" stroke="#f3f4f6" stroke-width="1"/>
<text x="66" y="344.0" text-anchor="end" font-size="11" fill="#6b7280">500</text>
<line x1="72" y1="241.7" x2="770" y2="241.7" stroke="#f3f4f6" stroke-width="1"/>
<text x="66" y="245.7" text-anchor="end" font-size="11" fill="#6b7280">1.0k</text>
<line x1="72" y1="143.3" x2="770" y2="143.3" stroke="#f3f4f6" stroke-width="1"/>
<text x="66" y="147.3" text-anchor="end" font-size="11" fill="#6b7280">1.5k</text>
<line x1="72" y1="45.0" x2="770" y2="45.0" stroke="#f3f4f6" stroke-width="1"/>
<text x="66" y="49.0" text-anchor="end" font-size="11" fill="#6b7280">2.0k</text>
<line x1="127.1" y1="45" x2="127.1" y2="340" stroke="#e5e7eb" stroke-width="1" stroke-dasharray="3,3" clip-path="url(#ca)"/>
<line x1="246.5" y1="45" x2="246.5" y2="340" stroke="#e5e7eb" stroke-width="1" stroke-dasharray="3,3" clip-path="url(#ca)"/>
<line x1="370.5" y1="45" x2="370.5" y2="340" stroke="#e5e7eb" stroke-width="1" stroke-dasharray="3,3" clip-path="url(#ca)"/>
<line x1="494.5" y1="45" x2="494.5" y2="340" stroke="#e5e7eb" stroke-width="1" stroke-dasharray="3,3" clip-path="url(#ca)"/>
<line x1="618.5" y1="45" x2="618.5" y2="340" stroke="#e5e7eb" stroke-width="1" stroke-dasharray="3,3" clip-path="url(#ca)"/>
<line x1="737.9" y1="45" x2="737.9" y2="340" stroke="#e5e7eb" stroke-width="1" stroke-dasharray="3,3" clip-path="url(#ca)"/>
<text x="72.0" y="358.0" text-anchor="middle" font-size="11" fill="#6b7280">Dec 11</text>
<text x="209.8" y="358.0" text-anchor="middle" font-size="11" fill="#6b7280">Jan 24</text>
<text x="352.1" y="358.0" text-anchor="middle" font-size="11" fill="#6b7280">Feb 25</text>
<text x="489.9" y="358.0" text-anchor="middle" font-size="11" fill="#6b7280">Mar 31</text>
<text x="632.2" y="358.0" text-anchor="middle" font-size="11" fill="#6b7280">May 6</text>
<text x="770.0" y="358.0" text-anchor="middle" font-size="11" fill="#6b7280">Jun 10</text>
<line x1="72" y1="45" x2="72" y2="340" stroke="#e5e7eb" stroke-width="1"/>
<line x1="72" y1="340" x2="770" y2="340" stroke="#e5e7eb" stroke-width="1"/>
<text x="-192.5" y="18" text-anchor="middle" font-size="12" fill="#6b7280" transform="rotate(-90)">People</text>
<path d="M 72.0,340 L 72.0,120.1 L 76.6,120.1 L 81.2,120.1 L 85.8,119.5 L 90.4,119.5 L 95.0,119.1 L 99.6,118.9 L 104.1,119.1 L 108.7,118.6 L 113.3,118.6 L 117.9,118.6 L 122.5,118.6 L 127.1,118.6 L 131.7,118.6 L 136.3,118.6 L 140.9,118.6 L 145.5,118.4 L 150.1,117.8 L 154.7,116.6 L 159.3,116.0 L 163.8,115.8 L 168.4,115.8 L 173.0,115.2 L 177.6,113.8 L 182.2,113.0 L 186.8,113.0 L 191.4,112.1 L 196.0,111.7 L 200.6,110.9 L 205.2,110.3 L 209.8,109.7 L 214.4,109.1 L 218.9,109.1 L 223.5,107.7 L 228.1,106.9 L 232.7,106.9 L 237.3,106.2 L 241.9,105.8 L 246.5,105.6 L 251.1,105.4 L 255.7,105.4 L 260.3,104.8 L 264.9,102.4 L 269.5,101.0 L 274.1,100.3 L 278.6,100.1 L 283.2,99.7 L 287.8,98.9 L 292.4,98.5 L 297.0,98.1 L 301.6,97.7 L 306.2,97.3 L 310.8,96.9 L 315.4,96.9 L 320.0,95.0 L 324.6,95.0 L 329.2,94.8 L 333.8,94.6 L 338.3,94.2 L 342.9,94.2 L 347.5,93.2 L 352.1,92.0 L 356.7,91.6 L 361.3,92.0 L 365.9,91.8 L 370.5,91.6 L 375.1,91.6 L 379.7,91.2 L 384.3,90.4 L 388.9,90.0 L 393.4,89.6 L 398.0,89.4 L 402.6,89.4 L 407.2,88.7 L 411.8,88.3 L 416.4,88.3 L 421.0,86.7 L 425.6,86.7 L 430.2,86.7 L 434.8,86.7 L 439.4,86.5 L 444.0,85.9 L 448.6,85.1 L 453.1,84.7 L 457.7,84.7 L 462.3,84.3 L 466.9,82.8 L 471.5,81.8 L 476.1,81.6 L 480.7,81.4 L 485.3,80.8 L 489.9,79.6 L 494.5,79.2 L 499.1,78.8 L 503.7,77.6 L 508.3,77.4 L 512.8,77.4 L 517.4,77.4 L 522.0,77.3 L 526.6,76.1 L 531.2,75.9 L 535.8,75.7 L 540.4,75.7 L 545.0,75.3 L 549.6,73.7 L 554.2,73.5 L 558.8,73.3 L 563.4,73.3 L 567.9,72.5 L 572.5,72.3 L 577.1,72.1 L 581.7,71.6 L 586.3,70.8 L 590.9,70.8 L 595.5,70.8 L 600.1,70.8 L 604.7,70.4 L 609.3,69.8 L 613.9,69.6 L 618.5,69.0 L 623.1,68.8 L 627.6,68.6 L 632.2,67.8 L 636.8,67.2 L 641.4,67.0 L 646.0,67.0 L 650.6,65.3 L 655.2,64.7 L 659.8,64.5 L 664.4,64.5 L 669.0,63.5 L 673.6,63.5 L 678.2,62.9 L 682.8,62.3 L 687.3,60.9 L 691.9,60.7 L 696.5,60.5 L 701.1,60.3 L 705.7,60.3 L 710.3,60.1 L 714.9,59.2 L 719.5,58.6 L 724.1,58.6 L 728.7,58.4 L 733.3,58.4 L 737.9,57.8 L 742.4,57.6 L 747.0,57.4 L 751.6,56.8 L 756.2,56.0 L 760.8,56.0 L 765.4,55.8 L 770.0,55.6 L 770.0,340 Z" fill="url(#g2)" clip-path="url(#ca)"/>
<path d="M 72.0,120.1 L 76.6,120.1 L 81.2,120.1 L 85.8,119.5 L 90.4,119.5 L 95.0,119.1 L 99.6,118.9 L 104.1,119.1 L 108.7,118.6 L 113.3,118.6 L 117.9,118.6 L 122.5,118.6 L 127.1,118.6 L 131.7,118.6 L 136.3,118.6 L 140.9,118.6 L 145.5,118.4 L 150.1,117.8 L 154.7,116.6 L 159.3,116.0 L 163.8,115.8 L 168.4,115.8 L 173.0,115.2 L 177.6,113.8 L 182.2,113.0 L 186.8,113.0 L 191.4,112.1 L 196.0,111.7 L 200.6,110.9 L 205.2,110.3 L 209.8,109.7 L 214.4,109.1 L 218.9,109.1 L 223.5,107.7 L 228.1,106.9 L 232.7,106.9 L 237.3,106.2 L 241.9,105.8 L 246.5,105.6 L 251.1,105.4 L 255.7,105.4 L 260.3,104.8 L 264.9,102.4 L 269.5,101.0 L 274.1,100.3 L 278.6,100.1 L 283.2,99.7 L 287.8,98.9 L 292.4,98.5 L 297.0,98.1 L 301.6,97.7 L 306.2,97.3 L 310.8,96.9 L 315.4,96.9 L 320.0,95.0 L 324.6,95.0 L 329.2,94.8 L 333.8,94.6 L 338.3,94.2 L 342.9,94.2 L 347.5,93.2 L 352.1,92.0 L 356.7,91.6 L 361.3,92.0 L 365.9,91.8 L 370.5,91.6 L 375.1,91.6 L 379.7,91.2 L 384.3,90.4 L 388.9,90.0 L 393.4,89.6 L 398.0,89.4 L 402.6,89.4 L 407.2,88.7 L 411.8,88.3 L 416.4,88.3 L 421.0,86.7 L 425.6,86.7 L 430.2,86.7 L 434.8,86.7 L 439.4,86.5 L 444.0,85.9 L 448.6,85.1 L 453.1,84.7 L 457.7,84.7 L 462.3,84.3 L 466.9,82.8 L 471.5,81.8 L 476.1,81.6 L 480.7,81.4 L 485.3,80.8 L 489.9,79.6 L 494.5,79.2 L 499.1,78.8 L 503.7,77.6 L 508.3,77.4 L 512.8,77.4 L 517.4,77.4 L 522.0,77.3 L 526.6,76.1 L 531.2,75.9 L 535.8,75.7 L 540.4,75.7 L 545.0,75.3 L 549.6,73.7 L 554.2,73.5 L 558.8,73.3 L 563.4,73.3 L 567.9,72.5 L 572.5,72.3 L 577.1,72.1 L 581.7,71.6 L 586.3,70.8 L 590.9,70.8 L 595.5,70.8 L 600.1,70.8 L 604.7,70.4 L 609.3,69.8 L 613.9,69.6 L 618.5,69.0 L 623.1,68.8 L 627.6,68.6 L 632.2,67.8 L 636.8,67.2 L 641.4,67.0 L 646.0,67.0 L 650.6,65.3 L 655.2,64.7 L 659.8,64.5 L 664.4,64.5 L 669.0,63.5 L 673.6,63.5 L 678.2,62.9 L 682.8,62.3 L 687.3,60.9 L 691.9,60.7 L 696.5,60.5 L 701.1,60.3 L 705.7,60.3 L 710.3,60.1 L 714.9,59.2 L 719.5,58.6 L 724.1,58.6 L 728.7,58.4 L 733.3,58.4 L 737.9,57.8 L 742.4,57.6 L 747.0,57.4 L 751.6,56.8 L 756.2,56.0 L 760.8,56.0 L 765.4,55.8 L 770.0,55.6" fill="none" stroke="#4F8EF7" stroke-width="2.5" stroke-linejoin="round" clip-path="url(#ca)"/>
<path d="M 72.0,340 L 72.0,244.2 L 76.6,243.6 L 81.2,243.6 L 85.8,243.6 L 90.4,243.4 L 95.0,243.0 L 99.6,242.8 L 104.1,242.6 L 108.7,242.6 L 113.3,242.5 L 117.9,242.3 L 122.5,242.3 L 127.1,242.3 L 131.7,242.3 L 136.3,242.3 L 140.9,242.3 L 145.5,241.9 L 150.1,241.9 L 154.7,241.9 L 159.3,241.1 L 163.8,240.9 L 168.4,240.5 L 173.0,239.7 L 177.6,239.5 L 182.2,239.5 L 186.8,239.5 L 191.4,238.9 L 196.0,238.5 L 200.6,238.5 L 205.2,238.1 L 209.8,237.9 L 214.4,237.5 L 218.9,237.5 L 223.5,237.3 L 228.1,236.6 L 232.7,236.0 L 237.3,235.6 L 241.9,235.4 L 246.5,235.4 L 251.1,235.2 L 255.7,234.8 L 260.3,234.8 L 264.9,234.6 L 269.5,234.0 L 274.1,233.6 L 278.6,233.6 L 283.2,233.6 L 287.8,233.6 L 292.4,233.4 L 297.0,232.8 L 301.6,232.4 L 306.2,232.2 L 310.8,232.0 L 315.4,231.8 L 320.0,231.6 L 324.6,231.4 L 329.2,231.2 L 333.8,230.7 L 338.3,230.5 L 342.9,230.3 L 347.5,229.5 L 352.1,228.7 L 356.7,228.7 L 361.3,228.5 L 365.9,228.3 L 370.5,228.3 L 375.1,228.3 L 379.7,227.9 L 384.3,227.9 L 388.9,226.7 L 393.4,226.5 L 398.0,226.3 L 402.6,226.3 L 407.2,225.9 L 411.8,225.7 L 416.4,225.7 L 421.0,225.5 L 425.6,225.5 L 430.2,225.5 L 434.8,225.1 L 439.4,224.9 L 444.0,224.0 L 448.6,224.2 L 453.1,224.0 L 457.7,223.8 L 462.3,223.8 L 466.9,223.6 L 471.5,223.0 L 476.1,223.0 L 480.7,223.0 L 485.3,223.0 L 489.9,222.6 L 494.5,222.6 L 499.1,222.2 L 503.7,221.8 L 508.3,221.0 L 512.8,221.0 L 517.4,220.6 L 522.0,220.4 L 526.6,220.2 L 531.2,220.0 L 535.8,219.6 L 540.4,219.6 L 545.0,219.1 L 549.6,219.1 L 554.2,218.9 L 558.8,218.5 L 563.4,218.3 L 567.9,218.3 L 572.5,218.3 L 577.1,218.3 L 581.7,218.3 L 586.3,217.7 L 590.9,217.7 L 595.5,217.3 L 600.1,216.9 L 604.7,216.3 L 609.3,216.1 L 613.9,216.1 L 618.5,214.9 L 623.1,214.7 L 627.6,214.7 L 632.2,213.9 L 636.8,213.9 L 641.4,213.5 L 646.0,213.5 L 650.6,213.3 L 655.2,213.3 L 659.8,213.2 L 664.4,212.8 L 669.0,212.8 L 673.6,212.6 L 678.2,212.4 L 682.8,212.2 L 687.3,212.0 L 691.9,212.0 L 696.5,211.6 L 701.1,211.6 L 705.7,211.6 L 710.3,210.6 L 714.9,210.6 L 719.5,210.6 L 724.1,210.6 L 728.7,210.6 L 733.3,210.6 L 737.9,210.2 L 742.4,210.2 L 747.0,209.8 L 751.6,209.0 L 756.2,208.6 L 760.8,208.4 L 765.4,208.4 L 770.0,208.2 L 770.0,340 Z" fill="url(#g3)" clip-path="url(#ca)"/>
<path d="M 72.0,244.2 L 76.6,243.6 L 81.2,243.6 L 85.8,243.6 L 90.4,243.4 L 95.0,243.0 L 99.6,242.8 L 104.1,242.6 L 108.7,242.6 L 113.3,242.5 L 117.9,242.3 L 122.5,242.3 L 127.1,242.3 L 131.7,242.3 L 136.3,242.3 L 140.9,242.3 L 145.5,241.9 L 150.1,241.9 L 154.7,241.9 L 159.3,241.1 L 163.8,240.9 L 168.4,240.5 L 173.0,239.7 L 177.6,239.5 L 182.2,239.5 L 186.8,239.5 L 191.4,238.9 L 196.0,238.5 L 200.6,238.5 L 205.2,238.1 L 209.8,237.9 L 214.4,237.5 L 218.9,237.5 L 223.5,237.3 L 228.1,236.6 L 232.7,236.0 L 237.3,235.6 L 241.9,235.4 L 246.5,235.4 L 251.1,235.2 L 255.7,234.8 L 260.3,234.8 L 264.9,234.6 L 269.5,234.0 L 274.1,233.6 L 278.6,233.6 L 283.2,233.6 L 287.8,233.6 L 292.4,233.4 L 297.0,232.8 L 301.6,232.4 L 306.2,232.2 L 310.8,232.0 L 315.4,231.8 L 320.0,231.6 L 324.6,231.4 L 329.2,231.2 L 333.8,230.7 L 338.3,230.5 L 342.9,230.3 L 347.5,229.5 L 352.1,228.7 L 356.7,228.7 L 361.3,228.5 L 365.9,228.3 L 370.5,228.3 L 375.1,228.3 L 379.7,227.9 L 384.3,227.9 L 388.9,226.7 L 393.4,226.5 L 398.0,226.3 L 402.6,226.3 L 407.2,225.9 L 411.8,225.7 L 416.4,225.7 L 421.0,225.5 L 425.6,225.5 L 430.2,225.5 L 434.8,225.1 L 439.4,224.9 L 444.0,224.0 L 448.6,224.2 L 453.1,224.0 L 457.7,223.8 L 462.3,223.8 L 466.9,223.6 L 471.5,223.0 L 476.1,223.0 L 480.7,223.0 L 485.3,223.0 L 489.9,222.6 L 494.5,222.6 L 499.1,222.2 L 503.7,221.8 L 508.3,221.0 L 512.8,221.0 L 517.4,220.6 L 522.0,220.4 L 526.6,220.2 L 531.2,220.0 L 535.8,219.6 L 540.4,219.6 L 545.0,219.1 L 549.6,219.1 L 554.2,218.9 L 558.8,218.5 L 563.4,218.3 L 567.9,218.3 L 572.5,218.3 L 577.1,218.3 L 581.7,218.3 L 586.3,217.7 L 590.9,217.7 L 595.5,217.3 L 600.1,216.9 L 604.7,216.3 L 609.3,216.1 L 613.9,216.1 L 618.5,214.9 L 623.1,214.7 L 627.6,214.7 L 632.2,213.9 L 636.8,213.9 L 641.4,213.5 L 646.0,213.5 L 650.6,213.3 L 655.2,213.3 L 659.8,213.2 L 664.4,212.8 L 669.0,212.8 L 673.6,212.6 L 678.2,212.4 L 682.8,212.2 L 687.3,212.0 L 691.9,212.0 L 696.5,211.6 L 701.1,211.6 L 705.7,211.6 L 710.3,210.6 L 714.9,210.6 L 719.5,210.6 L 724.1,210.6 L 728.7,210.6 L 733.3,210.6 L 737.9,210.2 L 742.4,210.2 L 747.0,209.8 L 751.6,209.0 L 756.2,208.6 L 760.8,208.4 L 765.4,208.4 L 770.0,208.2" fill="none" stroke="#BF5AF2" stroke-width="2.5" stroke-linejoin="round" clip-path="url(#ca)"/>
<path d="M 72.0,340 L 72.0,291.4 L 76.6,290.8 L 81.2,290.8 L 85.8,290.8 L 90.4,290.6 L 95.0,290.2 L 99.6,290.0 L 104.1,289.7 L 108.7,289.7 L 113.3,289.5 L 117.9,289.3 L 122.5,289.3 L 127.1,289.3 L 131.7,289.3 L 136.3,289.3 L 140.9,289.3 L 145.5,288.9 L 150.1,288.9 L 154.7,289.1 L 159.3,288.5 L 163.8,288.7 L 168.4,288.1 L 173.0,287.5 L 177.6,287.3 L 182.2,287.5 L 186.8,287.5 L 191.4,286.9 L 196.0,286.7 L 200.6,286.7 L 205.2,286.3 L 209.8,286.1 L 214.4,285.7 L 218.9,285.7 L 223.5,285.5 L 228.1,284.9 L 232.7,284.3 L 237.3,283.9 L 241.9,283.9 L 246.5,283.9 L 251.1,283.8 L 255.7,283.4 L 260.3,283.4 L 264.9,283.2 L 269.5,282.6 L 274.1,282.4 L 278.6,282.4 L 283.2,282.4 L 287.8,282.4 L 292.4,282.2 L 297.0,281.6 L 301.6,281.4 L 306.2,281.2 L 310.8,281.0 L 315.4,281.0 L 320.0,280.8 L 324.6,280.8 L 329.2,280.8 L 333.8,280.2 L 338.3,280.2 L 342.9,280.2 L 347.5,279.8 L 352.1,279.2 L 356.7,279.2 L 361.3,279.0 L 365.9,278.8 L 370.5,278.8 L 375.1,278.8 L 379.7,278.4 L 384.3,278.4 L 388.9,277.3 L 393.4,277.1 L 398.0,276.9 L 402.6,276.9 L 407.2,276.7 L 411.8,276.7 L 416.4,276.7 L 421.0,276.7 L 425.6,276.7 L 430.2,276.7 L 434.8,276.3 L 439.4,276.1 L 444.0,275.1 L 448.6,275.3 L 453.1,275.3 L 457.7,275.1 L 462.3,275.1 L 466.9,275.1 L 471.5,274.7 L 476.1,274.7 L 480.7,274.7 L 485.3,274.7 L 489.9,274.7 L 494.5,274.7 L 499.1,274.5 L 503.7,274.5 L 508.3,273.7 L 512.8,273.7 L 517.4,273.5 L 522.0,273.3 L 526.6,273.1 L 531.2,272.9 L 535.8,272.5 L 540.4,272.5 L 545.0,272.0 L 549.6,272.0 L 554.2,271.8 L 558.8,271.6 L 563.4,271.6 L 567.9,271.6 L 572.5,271.6 L 577.1,271.6 L 581.7,271.6 L 586.3,271.0 L 590.9,271.0 L 595.5,270.6 L 600.1,270.2 L 604.7,269.6 L 609.3,269.4 L 613.9,269.4 L 618.5,268.4 L 623.1,268.2 L 627.6,268.2 L 632.2,267.6 L 636.8,267.6 L 641.4,267.4 L 646.0,267.4 L 650.6,267.6 L 655.2,267.8 L 659.8,267.6 L 664.4,267.2 L 669.0,267.4 L 673.6,267.2 L 678.2,267.0 L 682.8,267.0 L 687.3,267.0 L 691.9,267.0 L 696.5,266.6 L 701.1,266.6 L 705.7,266.6 L 710.3,265.9 L 714.9,265.9 L 719.5,265.9 L 724.1,265.9 L 728.7,265.9 L 733.3,265.9 L 737.9,265.5 L 742.4,265.5 L 747.0,265.1 L 751.6,264.3 L 756.2,264.1 L 760.8,264.1 L 765.4,264.1 L 770.0,264.1 L 770.0,340 Z" fill="url(#g4)" clip-path="url(#ca)"/>
<path d="M 72.0,291.4 L 76.6,290.8 L 81.2,290.8 L 85.8,290.8 L 90.4,290.6 L 95.0,290.2 L 99.6,290.0 L 104.1,289.7 L 108.7,289.7 L 113.3,289.5 L 117.9,289.3 L 122.5,289.3 L 127.1,289.3 L 131.7,289.3 L 136.3,289.3 L 140.9,289.3 L 145.5,288.9 L 150.1,288.9 L 154.7,289.1 L 159.3,288.5 L 163.8,288.7 L 168.4,288.1 L 173.0,287.5 L 177.6,287.3 L 182.2,287.5 L 186.8,287.5 L 191.4,286.9 L 196.0,286.7 L 200.6,286.7 L 205.2,286.3 L 209.8,286.1 L 214.4,285.7 L 218.9,285.7 L 223.5,285.5 L 228.1,284.9 L 232.7,284.3 L 237.3,283.9 L 241.9,283.9 L 246.5,283.9 L 251.1,283.8 L 255.7,283.4 L 260.3,283.4 L 264.9,283.2 L 269.5,282.6 L 274.1,282.4 L 278.6,282.4 L 283.2,282.4 L 287.8,282.4 L 292.4,282.2 L 297.0,281.6 L 301.6,281.4 L 306.2,281.2 L 310.8,281.0 L 315.4,281.0 L 320.0,280.8 L 324.6,280.8 L 329.2,280.8 L 333.8,280.2 L 338.3,280.2 L 342.9,280.2 L 347.5,279.8 L 352.1,279.2 L 356.7,279.2 L 361.3,279.0 L 365.9,278.8 L 370.5,278.8 L 375.1,278.8 L 379.7,278.4 L 384.3,278.4 L 388.9,277.3 L 393.4,277.1 L 398.0,276.9 L 402.6,276.9 L 407.2,276.7 L 411.8,276.7 L 416.4,276.7 L 421.0,276.7 L 425.6,276.7 L 430.2,276.7 L 434.8,276.3 L 439.4,276.1 L 444.0,275.1 L 448.6,275.3 L 453.1,275.3 L 457.7,275.1 L 462.3,275.1 L 466.9,275.1 L 471.5,274.7 L 476.1,274.7 L 480.7,274.7 L 485.3,274.7 L 489.9,274.7 L 494.5,274.7 L 499.1,274.5 L 503.7,274.5 L 508.3,273.7 L 512.8,273.7 L 517.4,273.5 L 522.0,273.3 L 526.6,273.1 L 531.2,272.9 L 535.8,272.5 L 540.4,272.5 L 545.0,272.0 L 549.6,272.0 L 554.2,271.8 L 558.8,271.6 L 563.4,271.6 L 567.9,271.6 L 572.5,271.6 L 577.1,271.6 L 581.7,271.6 L 586.3,271.0 L 590.9,271.0 L 595.5,270.6 L 600.1,270.2 L 604.7,269.6 L 609.3,269.4 L 613.9,269.4 L 618.5,268.4 L 623.1,268.2 L 627.6,268.2 L 632.2,267.6 L 636.8,267.6 L 641.4,267.4 L 646.0,267.4 L 650.6,267.6 L 655.2,267.8 L 659.8,267.6 L 664.4,267.2 L 669.0,267.4 L 673.6,267.2 L 678.2,267.0 L 682.8,267.0 L 687.3,267.0 L 691.9,267.0 L 696.5,266.6 L 701.1,266.6 L 705.7,266.6 L 710.3,265.9 L 714.9,265.9 L 719.5,265.9 L 724.1,265.9 L 728.7,265.9 L 733.3,265.9 L 737.9,265.5 L 742.4,265.5 L 747.0,265.1 L 751.6,264.3 L 756.2,264.1 L 760.8,264.1 L 765.4,264.1 L 770.0,264.1" fill="none" stroke="#34C759" stroke-width="2.5" stroke-linejoin="round" clip-path="url(#ca)"/>
<text x="97.3" y="55.0" text-anchor="middle" font-size="9" fill="#4F8EF7" opacity="0.85" clip-path="url(#ca)">+0.5% (+8)</text>
<text x="97.3" y="66.0" text-anchor="middle" font-size="9" fill="#BF5AF2" opacity="0.85" clip-path="url(#ca)">+1.0% (+10)</text>
<text x="97.3" y="77.0" text-anchor="middle" font-size="9" fill="#34C759" opacity="0.85" clip-path="url(#ca)">+1.5% (+11)</text>
<text x="184.5" y="55.0" text-anchor="middle" font-size="9" fill="#4F8EF7" opacity="0.85" clip-path="url(#ca)">+4.0% (+65)</text>
<text x="184.5" y="66.0" text-anchor="middle" font-size="9" fill="#BF5AF2" opacity="0.85" clip-path="url(#ca)">+3.5% (+35)</text>
<text x="184.5" y="77.0" text-anchor="middle" font-size="9" fill="#34C759" opacity="0.85" clip-path="url(#ca)">+3.6% (+27)</text>
<text x="306.2" y="55.0" text-anchor="middle" font-size="9" fill="#4F8EF7" opacity="0.85" clip-path="url(#ca)">+4.1% (+70)</text>
<text x="306.2" y="66.0" text-anchor="middle" font-size="9" fill="#BF5AF2" opacity="0.85" clip-path="url(#ca)">+3.5% (+36)</text>
<text x="306.2" y="77.0" text-anchor="middle" font-size="9" fill="#34C759" opacity="0.85" clip-path="url(#ca)">+3.3% (+26)</text>
<text x="430.2" y="55.0" text-anchor="middle" font-size="9" fill="#4F8EF7" opacity="0.85" clip-path="url(#ca)">+3.5% (+61)</text>
<text x="430.2" y="66.0" text-anchor="middle" font-size="9" fill="#BF5AF2" opacity="0.85" clip-path="url(#ca)">+2.7% (+29)</text>
<text x="430.2" y="77.0" text-anchor="middle" font-size="9" fill="#34C759" opacity="0.85" clip-path="url(#ca)">+2.6% (+21)</text>
<text x="554.2" y="55.0" text-anchor="middle" font-size="9" fill="#4F8EF7" opacity="0.85" clip-path="url(#ca)">+2.7% (+49)</text>
<text x="554.2" y="66.0" text-anchor="middle" font-size="9" fill="#BF5AF2" opacity="0.85" clip-path="url(#ca)">+3.0% (+33)</text>
<text x="554.2" y="77.0" text-anchor="middle" font-size="9" fill="#34C759" opacity="0.85" clip-path="url(#ca)">+3.2% (+27)</text>
<text x="675.9" y="55.0" text-anchor="middle" font-size="9" fill="#4F8EF7" opacity="0.85" clip-path="url(#ca)">+2.9% (+54)</text>
<text x="675.9" y="66.0" text-anchor="middle" font-size="9" fill="#BF5AF2" opacity="0.85" clip-path="url(#ca)">+1.9% (+22)</text>
<text x="675.9" y="77.0" text-anchor="middle" font-size="9" fill="#34C759" opacity="0.85" clip-path="url(#ca)">+1.5% (+13)</text>
<text x="753.9" y="55.0" text-anchor="middle" font-size="9" fill="#4F8EF7" opacity="0.85" clip-path="url(#ca)">+0.6% (+11)</text>
<text x="753.9" y="66.0" text-anchor="middle" font-size="9" fill="#BF5AF2" opacity="0.85" clip-path="url(#ca)">+0.9% (+10)</text>
<text x="753.9" y="77.0" text-anchor="middle" font-size="9" fill="#34C759" opacity="0.85" clip-path="url(#ca)">+0.8% (+7)</text>
<rect x="211" y="369" width="12" height="12" fill="#4F8EF7" rx="2"/>
<text x="227" y="379" font-size="12" fill="#111827">Authors</text>
<rect x="351" y="369" width="12" height="12" fill="#BF5AF2" rx="2"/>
<text x="367" y="379" font-size="12" fill="#111827">Contributors</text>
<rect x="491" y="369" width="12" height="12" fill="#34C759" rx="2"/>
<text x="507" y="379" font-size="12" fill="#111827">Non-author contributors</text>
<text x="72" y="394" font-size="8" fill="#e5e7eb">data since Dec 11, 2025</text>
</svg>