<svg xmlns="http://www.w3.org/2000/svg" width="800" height="400" viewBox="0 0 800 400">
<defs>
  <style>text { font-family: -apple-system, BlinkMacSystemFont, 'Segoe UI', Roboto, sans-serif; }</style>
  <linearGradient id="g2" x1="0" y1="0" x2="0" y2="1">
  <stop offset="0%" stop-color="#4F8EF7" stop-opacity="0.25"/>
  <stop offset="100%" stop-color="#4F8EF7" stop-opacity="0"/>
</linearGradient>
<linearGradient id="g3" x1="0" y1="0" x2="0" y2="1">
  <stop offset="0%" stop-color="#BF5AF2" stop-opacity="0.25"/>
  <stop offset="100%" stop-color="#BF5AF2" stop-opacity="0"/>
</linearGradient>
<linearGradient id="g4" x1="0" y1="0" x2="0" y2="1">
  <stop offset="0%" stop-color="#34C759" stop-opacity="0.25"/>
  <stop offset="100%" stop-color="#34C759" stop-opacity="0"/>
</linearGradient>
  <clipPath id="ca"><rect x="72" y="45" width="698" height="295"/></clipPath>
</defs>
<rect width="800" height="400" fill="#ffffff" rx="12"/>
<text x="400" y="26" text-anchor="middle" font-size="15" font-weight="600" fill="#111827">Community Growth Over Time</text>
<line x1="72" y1="340.0" x2="770" y2="340.0" stroke="#f3f4f6" stroke-width="1"/>
<text x="66" y="344.0" text-anchor="end" font-size="11" fill="#6b7280">500</text>
<line x1="72" y1="241.7" x2="770" y2="241.7" stroke="#f3f4f6" stroke-width="1"/>
<text x="66" y="245.7" text-anchor="end" font-size="11" fill="#6b7280">1.0k</text>
<line x1="72" y1="143.3" x2="770" y2="143.3" stroke="#f3f4f6" stroke-width="1"/>
<text x="66" y="147.3" text-anchor="end" font-size="11" fill="#6b7280">1.5k</text>
<line x1="72" y1="45.0" x2="770" y2="45.0" stroke="#f3f4f6" stroke-width="1"/>
<text x="66" y="49.0" text-anchor="end" font-size="11" fill="#6b7280">2.0k</text>
<line x1="149.6" y1="45" x2="149.6" y2="340" stroke="#e5e7eb" stroke-width="1" stroke-dasharray="3,3" clip-path="url(#ca)"/>
<line x1="317.6" y1="45" x2="317.6" y2="340" stroke="#e5e7eb" stroke-width="1" stroke-dasharray="3,3" clip-path="url(#ca)"/>
<line x1="492.1" y1="45" x2="492.1" y2="340" stroke="#e5e7eb" stroke-width="1" stroke-dasharray="3,3" clip-path="url(#ca)"/>
<line x1="666.6" y1="45" x2="666.6" y2="340" stroke="#e5e7eb" stroke-width="1" stroke-dasharray="3,3" clip-path="url(#ca)"/>
<text x="72.0" y="358.0" text-anchor="middle" font-size="11" fill="#6b7280">Dec 11</text>
<text x="214.2" y="358.0" text-anchor="middle" font-size="11" fill="#6b7280">Jan 15</text>
<text x="349.9" y="358.0" text-anchor="middle" font-size="11" fill="#6b7280">Feb 6</text>
<text x="492.1" y="358.0" text-anchor="middle" font-size="11" fill="#6b7280">Mar 1</text>
<text x="627.8" y="358.0" text-anchor="middle" font-size="11" fill="#6b7280">Mar 24</text>
<text x="770.0" y="358.0" text-anchor="middle" font-size="11" fill="#6b7280">Apr 18</text>
<line x1="72" y1="45" x2="72" y2="340" stroke="#e5e7eb" stroke-width="1"/>
<line x1="72" y1="340" x2="770" y2="340" stroke="#e5e7eb" stroke-width="1"/>
<text x="-192.5" y="18" text-anchor="middle" font-size="12" fill="#6b7280" transform="rotate(-90)">People</text>
<path d="M 72.0,340 L 72.0,120.1 L 78.5,120.1 L 84.9,120.1 L 91.4,119.5 L 97.9,119.5 L 104.3,119.1 L 110.8,118.9 L 117.2,119.1 L 123.7,118.6 L 130.2,118.6 L 136.6,118.6 L 143.1,118.6 L 149.6,118.6 L 156.0,118.6 L 162.5,118.6 L 168.9,118.6 L 175.4,118.4 L 181.9,117.8 L 188.3,116.6 L 194.8,116.0 L 201.3,115.8 L 207.7,115.8 L 214.2,115.2 L 220.6,113.8 L 227.1,113.0 L 233.6,113.0 L 240.0,112.1 L 246.5,111.7 L 253.0,110.9 L 259.4,110.3 L 265.9,109.7 L 272.4,109.1 L 278.8,109.1 L 285.3,107.7 L 291.7,106.9 L 298.2,106.9 L 304.7,106.2 L 311.1,105.8 L 317.6,105.6 L 324.1,105.4 L 330.5,105.4 L 337.0,104.8 L 343.4,102.4 L 349.9,101.0 L 356.4,100.3 L 362.8,100.1 L 369.3,99.7 L 375.8,98.9 L 382.2,98.5 L 388.7,98.1 L 395.1,97.7 L 401.6,97.3 L 408.1,96.9 L 414.5,96.9 L 421.0,95.0 L 427.5,95.0 L 433.9,94.8 L 440.4,94.6 L 446.9,94.2 L 453.3,94.2 L 459.8,93.2 L 466.2,92.0 L 472.7,91.6 L 479.2,92.0 L 485.6,91.8 L 492.1,91.6 L 498.6,91.6 L 505.0,91.2 L 511.5,90.4 L 517.9,90.0 L 524.4,89.6 L 530.9,89.4 L 537.3,89.4 L 543.8,88.7 L 550.3,88.3 L 556.7,88.3 L 563.2,86.7 L 569.6,86.7 L 576.1,86.7 L 582.6,86.7 L 589.0,86.5 L 595.5,85.9 L 602.0,85.1 L 608.4,84.7 L 614.9,84.7 L 621.4,84.3 L 627.8,82.8 L 634.3,81.8 L 640.7,81.6 L 647.2,81.4 L 653.7,80.8 L 660.1,79.6 L 666.6,79.2 L 673.1,78.8 L 679.5,77.6 L 686.0,77.4 L 692.4,77.4 L 698.9,77.4 L 705.4,77.3 L 711.8,76.1 L 718.3,75.9 L 724.8,75.7 L 731.2,75.7 L 737.7,75.3 L 744.1,73.7 L 750.6,73.5 L 757.1,73.3 L 763.5,73.3 L 770.0,72.5 L 770.0,340 Z" fill="url(#g2)" clip-path="url(#ca)"/>
<path d="M 72.0,120.1 L 78.5,120.1 L 84.9,120.1 L 91.4,119.5 L 97.9,119.5 L 104.3,119.1 L 110.8,118.9 L 117.2,119.1 L 123.7,118.6 L 130.2,118.6 L 136.6,118.6 L 143.1,118.6 L 149.6,118.6 L 156.0,118.6 L 162.5,118.6 L 168.9,118.6 L 175.4,118.4 L 181.9,117.8 L 188.3,116.6 L 194.8,116.0 L 201.3,115.8 L 207.7,115.8 L 214.2,115.2 L 220.6,113.8 L 227.1,113.0 L 233.6,113.0 L 240.0,112.1 L 246.5,111.7 L 253.0,110.9 L 259.4,110.3 L 265.9,109.7 L 272.4,109.1 L 278.8,109.1 L 285.3,107.7 L 291.7,106.9 L 298.2,106.9 L 304.7,106.2 L 311.1,105.8 L 317.6,105.6 L 324.1,105.4 L 330.5,105.4 L 337.0,104.8 L 343.4,102.4 L 349.9,101.0 L 356.4,100.3 L 362.8,100.1 L 369.3,99.7 L 375.8,98.9 L 382.2,98.5 L 388.7,98.1 L 395.1,97.7 L 401.6,97.3 L 408.1,96.9 L 414.5,96.9 L 421.0,95.0 L 427.5,95.0 L 433.9,94.8 L 440.4,94.6 L 446.9,94.2 L 453.3,94.2 L 459.8,93.2 L 466.2,92.0 L 472.7,91.6 L 479.2,92.0 L 485.6,91.8 L 492.1,91.6 L 498.6,91.6 L 505.0,91.2 L 511.5,90.4 L 517.9,90.0 L 524.4,89.6 L 530.9,89.4 L 537.3,89.4 L 543.8,88.7 L 550.3,88.3 L 556.7,88.3 L 563.2,86.7 L 569.6,86.7 L 576.1,86.7 L 582.6,86.7 L 589.0,86.5 L 595.5,85.9 L 602.0,85.1 L 608.4,84.7 L 614.9,84.7 L 621.4,84.3 L 627.8,82.8 L 634.3,81.8 L 640.7,81.6 L 647.2,81.4 L 653.7,80.8 L 660.1,79.6 L 666.6,79.2 L 673.1,78.8 L 679.5,77.6 L 686.0,77.4 L 692.4,77.4 L 698.9,77.4 L 705.4,77.3 L 711.8,76.1 L 718.3,75.9 L 724.8,75.7 L 731.2,75.7 L 737.7,75.3 L 744.1,73.7 L 750.6,73.5 L 757.1,73.3 L 763.5,73.3 L 770.0,72.5" fill="none" stroke="#4F8EF7" stroke-width="2.5" stroke-linejoin="round" clip-path="url(#ca)"/>
<path d="M 72.0,340 L 72.0,244.2 L 78.5,243.6 L 84.9,243.6 L 91.4,243.6 L 97.9,243.4 L 104.3,243.0 L 110.8,242.8 L 117.2,242.6 L 123.7,242.6 L 130.2,242.5 L 136.6,242.3 L 143.1,242.3 L 149.6,242.3 L 156.0,242.3 L 162.5,242.3 L 168.9,242.3 L 175.4,241.9 L 181.9,241.9 L 188.3,241.9 L 194.8,241.1 L 201.3,240.9 L 207.7,240.5 L 214.2,239.7 L 220.6,239.5 L 227.1,239.5 L 233.6,239.5 L 240.0,238.9 L 246.5,238.5 L 253.0,238.5 L 259.4,238.1 L 265.9,237.9 L 272.4,237.5 L 278.8,237.5 L 285.3,237.3 L 291.7,236.6 L 298.2,236.0 L 304.7,235.6 L 311.1,235.4 L 317.6,235.4 L 324.1,235.2 L 330.5,234.8 L 337.0,234.8 L 343.4,234.6 L 349.9,234.0 L 356.4,233.6 L 362.8,233.6 L 369.3,233.6 L 375.8,233.6 L 382.2,233.4 L 388.7,232.8 L 395.1,232.4 L 401.6,232.2 L 408.1,232.0 L 414.5,231.8 L 421.0,231.6 L 427.5,231.4 L 433.9,231.2 L 440.4,230.7 L 446.9,230.5 L 453.3,230.3 L 459.8,229.5 L 466.2,228.7 L 472.7,228.7 L 479.2,228.5 L 485.6,228.3 L 492.1,228.3 L 498.6,228.3 L 505.0,227.9 L 511.5,227.9 L 517.9,226.7 L 524.4,226.5 L 530.9,226.3 L 537.3,226.3 L 543.8,225.9 L 550.3,225.7 L 556.7,225.7 L 563.2,225.5 L 569.6,225.5 L 576.1,225.5 L 582.6,225.1 L 589.0,224.9 L 595.5,224.0 L 602.0,224.2 L 608.4,224.0 L 614.9,223.8 L 621.4,223.8 L 627.8,223.6 L 634.3,223.0 L 640.7,223.0 L 647.2,223.0 L 653.7,223.0 L 660.1,222.6 L 666.6,222.6 L 673.1,222.2 L 679.5,221.8 L 686.0,221.0 L 692.4,221.0 L 698.9,220.6 L 705.4,220.4 L 711.8,220.2 L 718.3,220.0 L 724.8,219.6 L 731.2,219.6 L 737.7,219.1 L 744.1,219.1 L 750.6,218.9 L 757.1,218.5 L 763.5,218.3 L 770.0,218.3 L 770.0,340 Z" fill="url(#g3)" clip-path="url(#ca)"/>
<path d="M 72.0,244.2 L 78.5,243.6 L 84.9,243.6 L 91.4,243.6 L 97.9,243.4 L 104.3,243.0 L 110.8,242.8 L 117.2,242.6 L 123.7,242.6 L 130.2,242.5 L 136.6,242.3 L 143.1,242.3 L 149.6,242.3 L 156.0,242.3 L 162.5,242.3 L 168.9,242.3 L 175.4,241.9 L 181.9,241.9 L 188.3,241.9 L 194.8,241.1 L 201.3,240.9 L 207.7,240.5 L 214.2,239.7 L 220.6,239.5 L 227.1,239.5 L 233.6,239.5 L 240.0,238.9 L 246.5,238.5 L 253.0,238.5 L 259.4,238.1 L 265.9,237.9 L 272.4,237.5 L 278.8,237.5 L 285.3,237.3 L 291.7,236.6 L 298.2,236.0 L 304.7,235.6 L 311.1,235.4 L 317.6,235.4 L 324.1,235.2 L 330.5,234.8 L 337.0,234.8 L 343.4,234.6 L 349.9,234.0 L 356.4,233.6 L 362.8,233.6 L 369.3,233.6 L 375.8,233.6 L 382.2,233.4 L 388.7,232.8 L 395.1,232.4 L 401.6,232.2 L 408.1,232.0 L 414.5,231.8 L 421.0,231.6 L 427.5,231.4 L 433.9,231.2 L 440.4,230.7 L 446.9,230.5 L 453.3,230.3 L 459.8,229.5 L 466.2,228.7 L 472.7,228.7 L 479.2,228.5 L 485.6,228.3 L 492.1,228.3 L 498.6,228.3 L 505.0,227.9 L 511.5,227.9 L 517.9,226.7 L 524.4,226.5 L 530.9,226.3 L 537.3,226.3 L 543.8,225.9 L 550.3,225.7 L 556.7,225.7 L 563.2,225.5 L 569.6,225.5 L 576.1,225.5 L 582.6,225.1 L 589.0,224.9 L 595.5,224.0 L 602.0,224.2 L 608.4,224.0 L 614.9,223.8 L 621.4,223.8 L 627.8,223.6 L 634.3,223.0 L 640.7,223.0 L 647.2,223.0 L 653.7,223.0 L 660.1,222.6 L 666.6,222.6 L 673.1,222.2 L 679.5,221.8 L 686.0,221.0 L 692.4,221.0 L 698.9,220.6 L 705.4,220.4 L 711.8,220.2 L 718.3,220.0 L 724.8,219.6 L 731.2,219.6 L 737.7,219.1 L 744.1,219.1 L 750.6,218.9 L 757.1,218.5 L 763.5,218.3 L 770.0,218.3" fill="none" stroke="#BF5AF2" stroke-width="2.5" stroke-linejoin="round" clip-path="url(#ca)"/>
<path d="M 72.0,340 L 72.0,291.4 L 78.5,290.8 L 84.9,290.8 L 91.4,290.8 L 97.9,290.6 L 104.3,290.2 L 110.8,290.0 L 117.2,289.7 L 123.7,289.7 L 130.2,289.5 L 136.6,289.3 L 143.1,289.3 L 149.6,289.3 L 156.0,289.3 L 162.5,289.3 L 168.9,289.3 L 175.4,288.9 L 181.9,288.9 L 188.3,289.1 L 194.8,288.5 L 201.3,288.7 L 207.7,288.1 L 214.2,287.5 L 220.6,287.3 L 227.1,287.5 L 233.6,287.5 L 240.0,286.9 L 246.5,286.7 L 253.0,286.7 L 259.4,286.3 L 265.9,286.1 L 272.4,285.7 L 278.8,285.7 L 285.3,285.5 L 291.7,284.9 L 298.2,284.3 L 304.7,283.9 L 311.1,283.9 L 317.6,283.9 L 324.1,283.8 L 330.5,283.4 L 337.0,283.4 L 343.4,283.2 L 349.9,282.6 L 356.4,282.4 L 362.8,282.4 L 369.3,282.4 L 375.8,282.4 L 382.2,282.2 L 388.7,281.6 L 395.1,281.4 L 401.6,281.2 L 408.1,281.0 L 414.5,281.0 L 421.0,280.8 L 427.5,280.8 L 433.9,280.8 L 440.4,280.2 L 446.9,280.2 L 453.3,280.2 L 459.8,279.8 L 466.2,279.2 L 472.7,279.2 L 479.2,279.0 L 485.6,278.8 L 492.1,278.8 L 498.6,278.8 L 505.0,278.4 L 511.5,278.4 L 517.9,277.3 L 524.4,277.1 L 530.9,276.9 L 537.3,276.9 L 543.8,276.7 L 550.3,276.7 L 556.7,276.7 L 563.2,276.7 L 569.6,276.7 L 576.1,276.7 L 582.6,276.3 L 589.0,276.1 L 595.5,275.1 L 602.0,275.3 L 608.4,275.3 L 614.9,275.1 L 621.4,275.1 L 627.8,275.1 L 634.3,274.7 L 640.7,274.7 L 647.2,274.7 L 653.7,274.7 L 660.1,274.7 L 666.6,274.7 L 673.1,274.5 L 679.5,274.5 L 686.0,273.7 L 692.4,273.7 L 698.9,273.5 L 705.4,273.3 L 711.8,273.1 L 718.3,272.9 L 724.8,272.5 L 731.2,272.5 L 737.7,272.0 L 744.1,272.0 L 750.6,271.8 L 757.1,271.6 L 763.5,271.6 L 770.0,271.6 L 770.0,340 Z" fill="url(#g4)" clip-path="url(#ca)"/>
<path d="M 72.0,291.4 L 78.5,290.8 L 84.9,290.8 L 91.4,290.8 L 97.9,290.6 L 104.3,290.2 L 110.8,290.0 L 117.2,289.7 L 123.7,289.7 L 130.2,289.5 L 136.6,289.3 L 143.1,289.3 L 149.6,289.3 L 156.0,289.3 L 162.5,289.3 L 168.9,289.3 L 175.4,288.9 L 181.9,288.9 L 188.3,289.1 L 194.8,288.5 L 201.3,288.7 L 207.7,288.1 L 214.2,287.5 L 220.6,287.3 L 227.1,287.5 L 233.6,287.5 L 240.0,286.9 L 246.5,286.7 L 253.0,286.7 L 259.4,286.3 L 265.9,286.1 L 272.4,285.7 L 278.8,285.7 L 285.3,285.5 L 291.7,284.9 L 298.2,284.3 L 304.7,283.9 L 311.1,283.9 L 317.6,283.9 L 324.1,283.8 L 330.5,283.4 L 337.0,283.4 L 343.4,283.2 L 349.9,282.6 L 356.4,282.4 L 362.8,282.4 L 369.3,282.4 L 375.8,282.4 L 382.2,282.2 L 388.7,281.6 L 395.1,281.4 L 401.6,281.2 L 408.1,281.0 L 414.5,281.0 L 421.0,280.8 L 427.5,280.8 L 433.9,280.8 L 440.4,280.2 L 446.9,280.2 L 453.3,280.2 L 459.8,279.8 L 466.2,279.2 L 472.7,279.2 L 479.2,279.0 L 485.6,278.8 L 492.1,278.8 L 498.6,278.8 L 505.0,278.4 L 511.5,278.4 L 517.9,277.3 L 524.4,277.1 L 530.9,276.9 L 537.3,276.9 L 543.8,276.7 L 550.3,276.7 L 556.7,276.7 L 563.2,276.7 L 569.6,276.7 L 576.1,276.7 L 582.6,276.3 L 589.0,276.1 L 595.5,275.1 L 602.0,275.3 L 608.4,275.3 L 614.9,275.1 L 621.4,275.1 L 627.8,275.1 L 634.3,274.7 L 640.7,274.7 L 647.2,274.7 L 653.7,274.7 L 660.1,274.7 L 666.6,274.7 L 673.1,274.5 L 679.5,274.5 L 686.0,273.7 L 692.4,273.7 L 698.9,273.5 L 705.4,273.3 L 711.8,273.1 L 718.3,272.9 L 724.8,272.5 L 731.2,272.5 L 737.7,272.0 L 744.1,272.0 L 750.6,271.8 L 757.1,271.6 L 763.5,271.6 L 770.0,271.6" fill="none" stroke="#34C759" stroke-width="2.5" stroke-linejoin="round" clip-path="url(#ca)"/>
<text x="107.5" y="55.0" text-anchor="middle" font-size="9" fill="#4F8EF7" opacity="0.85" clip-path="url(#ca)">+0.5% (+8)</text>
<text x="107.5" y="66.0" text-anchor="middle" font-size="9" fill="#BF5AF2" opacity="0.85" clip-path="url(#ca)">+1.0% (+10)</text>
<text x="107.5" y="77.0" text-anchor="middle" font-size="9" fill="#34C759" opacity="0.85" clip-path="url(#ca)">+1.5% (+11)</text>
<text x="230.3" y="55.0" text-anchor="middle" font-size="9" fill="#4F8EF7" opacity="0.85" clip-path="url(#ca)">+4.0% (+65)</text>
<text x="230.3" y="66.0" text-anchor="middle" font-size="9" fill="#BF5AF2" opacity="0.85" clip-path="url(#ca)">+3.5% (+35)</text>
<text x="230.3" y="77.0" text-anchor="middle" font-size="9" fill="#34C759" opacity="0.85" clip-path="url(#ca)">+3.6% (+27)</text>
<text x="401.6" y="55.0" text-anchor="middle" font-size="9" fill="#4F8EF7" opacity="0.85" clip-path="url(#ca)">+4.1% (+70)</text>
<text x="401.6" y="66.0" text-anchor="middle" font-size="9" fill="#BF5AF2" opacity="0.85" clip-path="url(#ca)">+3.5% (+36)</text>
<text x="401.6" y="77.0" text-anchor="middle" font-size="9" fill="#34C759" opacity="0.85" clip-path="url(#ca)">+3.3% (+26)</text>
<text x="576.1" y="55.0" text-anchor="middle" font-size="9" fill="#4F8EF7" opacity="0.85" clip-path="url(#ca)">+3.5% (+61)</text>
<text x="576.1" y="66.0" text-anchor="middle" font-size="9" fill="#BF5AF2" opacity="0.85" clip-path="url(#ca)">+2.7% (+29)</text>
<text x="576.1" y="77.0" text-anchor="middle" font-size="9" fill="#34C759" opacity="0.85" clip-path="url(#ca)">+2.6% (+21)</text>
<text x="718.3" y="55.0" text-anchor="middle" font-size="9" fill="#4F8EF7" opacity="0.85" clip-path="url(#ca)">+1.9% (+34)</text>
<text x="718.3" y="66.0" text-anchor="middle" font-size="9" fill="#BF5AF2" opacity="0.85" clip-path="url(#ca)">+2.0% (+22)</text>
<text x="718.3" y="77.0" text-anchor="middle" font-size="9" fill="#34C759" opacity="0.85" clip-path="url(#ca)">+1.9% (+16)</text>
<rect x="211" y="369" width="12" height="12" fill="#4F8EF7" rx="2"/>
<text x="227" y="379" font-size="12" fill="#111827">Authors</text>
<rect x="351" y="369" width="12" height="12" fill="#BF5AF2" rx="2"/>
<text x="367" y="379" font-size="12" fill="#111827">Contributors</text>
<rect x="491" y="369" width="12" height="12" fill="#34C759" rx="2"/>
<text x="507" y="379" font-size="12" fill="#111827">Non-author contributors</text>
<text x="72" y="394" font-size="8" fill="#e5e7eb">data since Dec 11, 2025</text>
</svg>