<svg xmlns="http://www.w3.org/2000/svg" width="800" height="400" viewBox="0 0 800 400">
<defs>
  <style>text { font-family: -apple-system, BlinkMacSystemFont, 'Segoe UI', Roboto, sans-serif; }</style>
  <linearGradient id="g2" x1="0" y1="0" x2="0" y2="1">
  <stop offset="0%" stop-color="#4F8EF7" stop-opacity="0.25"/>
  <stop offset="100%" stop-color="#4F8EF7" stop-opacity="0"/>
</linearGradient>
<linearGradient id="g3" x1="0" y1="0" x2="0" y2="1">
  <stop offset="0%" stop-color="#BF5AF2" stop-opacity="0.25"/>
  <stop offset="100%" stop-color="#BF5AF2" stop-opacity="0"/>
</linearGradient>
<linearGradient id="g4" x1="0" y1="0" x2="0" y2="1">
  <stop offset="0%" stop-color="#34C759" stop-opacity="0.25"/>
  <stop offset="100%" stop-color="#34C759" stop-opacity="0"/>
</linearGradient>
  <clipPath id="ca"><rect x="72" y="45" width="698" height="295"/></clipPath>
</defs>
<rect width="800" height="400" fill="#ffffff" rx="12"/>
<text x="400" y="26" text-anchor="middle" font-size="15" font-weight="600" fill="#111827">Community Growth Over Time</text>
<line x1="72" y1="340.0" x2="770" y2="340.0" stroke="#f3f4f6" stroke-width="1"/>
<text x="66" y="344.0" text-anchor="end" font-size="11" fill="#6b7280">500</text>
<line x1="72" y1="241.7" x2="770" y2="241.7" stroke="#f3f4f6" stroke-width="1"/>
<text x="66" y="245.7" text-anchor="end" font-size="11" fill="#6b7280">1.0k</text>
<line x1="72" y1="143.3" x2="770" y2="143.3" stroke="#f3f4f6" stroke-width="1"/>
<text x="66" y="147.3" text-anchor="end" font-size="11" fill="#6b7280">1.5k</text>
<line x1="72" y1="45.0" x2="770" y2="45.0" stroke="#f3f4f6" stroke-width="1"/>
<text x="66" y="49.0" text-anchor="end" font-size="11" fill="#6b7280">2.0k</text>
<line x1="147.5" y1="45" x2="147.5" y2="340" stroke="#e5e7eb" stroke-width="1" stroke-dasharray="3,3" clip-path="url(#ca)"/>
<line x1="311.0" y1="45" x2="311.0" y2="340" stroke="#e5e7eb" stroke-width="1" stroke-dasharray="3,3" clip-path="url(#ca)"/>
<line x1="480.7" y1="45" x2="480.7" y2="340" stroke="#e5e7eb" stroke-width="1" stroke-dasharray="3,3" clip-path="url(#ca)"/>
<line x1="650.5" y1="45" x2="650.5" y2="340" stroke="#e5e7eb" stroke-width="1" stroke-dasharray="3,3" clip-path="url(#ca)"/>
<text x="72.0" y="358.0" text-anchor="middle" font-size="11" fill="#6b7280">Dec 11</text>
<text x="210.3" y="358.0" text-anchor="middle" font-size="11" fill="#6b7280">Jan 15</text>
<text x="348.7" y="358.0" text-anchor="middle" font-size="11" fill="#6b7280">Feb 7</text>
<text x="493.3" y="358.0" text-anchor="middle" font-size="11" fill="#6b7280">Mar 3</text>
<text x="631.7" y="358.0" text-anchor="middle" font-size="11" fill="#6b7280">Mar 27</text>
<text x="770.0" y="358.0" text-anchor="middle" font-size="11" fill="#6b7280">Apr 22</text>
<line x1="72" y1="45" x2="72" y2="340" stroke="#e5e7eb" stroke-width="1"/>
<line x1="72" y1="340" x2="770" y2="340" stroke="#e5e7eb" stroke-width="1"/>
<text x="-192.5" y="18" text-anchor="middle" font-size="12" fill="#6b7280" transform="rotate(-90)">People</text>
<path d="M 72.0,340 L 72.0,120.1 L 78.3,120.1 L 84.6,120.1 L 90.9,119.5 L 97.2,119.5 L 103.4,119.1 L 109.7,118.9 L 116.0,119.1 L 122.3,118.6 L 128.6,118.6 L 134.9,118.6 L 141.2,118.6 L 147.5,118.6 L 153.7,118.6 L 160.0,118.6 L 166.3,118.6 L 172.6,118.4 L 178.9,117.8 L 185.2,116.6 L 191.5,116.0 L 197.8,115.8 L 204.1,115.8 L 210.3,115.2 L 216.6,113.8 L 222.9,113.0 L 229.2,113.0 L 235.5,112.1 L 241.8,111.7 L 248.1,110.9 L 254.4,110.3 L 260.6,109.7 L 266.9,109.1 L 273.2,109.1 L 279.5,107.7 L 285.8,106.9 L 292.1,106.9 L 298.4,106.2 L 304.7,105.8 L 311.0,105.6 L 317.2,105.4 L 323.5,105.4 L 329.8,104.8 L 336.1,102.4 L 342.4,101.0 L 348.7,100.3 L 355.0,100.1 L 361.3,99.7 L 367.5,98.9 L 373.8,98.5 L 380.1,98.1 L 386.4,97.7 L 392.7,97.3 L 399.0,96.9 L 405.3,96.9 L 411.6,95.0 L 417.9,95.0 L 424.1,94.8 L 430.4,94.6 L 436.7,94.2 L 443.0,94.2 L 449.3,93.2 L 455.6,92.0 L 461.9,91.6 L 468.2,92.0 L 474.5,91.8 L 480.7,91.6 L 487.0,91.6 L 493.3,91.2 L 499.6,90.4 L 505.9,90.0 L 512.2,89.6 L 518.5,89.4 L 524.8,89.4 L 531.0,88.7 L 537.3,88.3 L 543.6,88.3 L 549.9,86.7 L 556.2,86.7 L 562.5,86.7 L 568.8,86.7 L 575.1,86.5 L 581.4,85.9 L 587.6,85.1 L 593.9,84.7 L 600.2,84.7 L 606.5,84.3 L 612.8,82.8 L 619.1,81.8 L 625.4,81.6 L 631.7,81.4 L 637.9,80.8 L 644.2,79.6 L 650.5,79.2 L 656.8,78.8 L 663.1,77.6 L 669.4,77.4 L 675.7,77.4 L 682.0,77.4 L 688.3,77.3 L 694.5,76.1 L 700.8,75.9 L 707.1,75.7 L 713.4,75.7 L 719.7,75.3 L 726.0,73.7 L 732.3,73.5 L 738.6,73.3 L 744.8,73.3 L 751.1,72.5 L 757.4,72.3 L 763.7,72.1 L 770.0,71.6 L 770.0,340 Z" fill="url(#g2)" clip-path="url(#ca)"/>
<path d="M 72.0,120.1 L 78.3,120.1 L 84.6,120.1 L 90.9,119.5 L 97.2,119.5 L 103.4,119.1 L 109.7,118.9 L 116.0,119.1 L 122.3,118.6 L 128.6,118.6 L 134.9,118.6 L 141.2,118.6 L 147.5,118.6 L 153.7,118.6 L 160.0,118.6 L 166.3,118.6 L 172.6,118.4 L 178.9,117.8 L 185.2,116.6 L 191.5,116.0 L 197.8,115.8 L 204.1,115.8 L 210.3,115.2 L 216.6,113.8 L 222.9,113.0 L 229.2,113.0 L 235.5,112.1 L 241.8,111.7 L 248.1,110.9 L 254.4,110.3 L 260.6,109.7 L 266.9,109.1 L 273.2,109.1 L 279.5,107.7 L 285.8,106.9 L 292.1,106.9 L 298.4,106.2 L 304.7,105.8 L 311.0,105.6 L 317.2,105.4 L 323.5,105.4 L 329.8,104.8 L 336.1,102.4 L 342.4,101.0 L 348.7,100.3 L 355.0,100.1 L 361.3,99.7 L 367.5,98.9 L 373.8,98.5 L 380.1,98.1 L 386.4,97.7 L 392.7,97.3 L 399.0,96.9 L 405.3,96.9 L 411.6,95.0 L 417.9,95.0 L 424.1,94.8 L 430.4,94.6 L 436.7,94.2 L 443.0,94.2 L 449.3,93.2 L 455.6,92.0 L 461.9,91.6 L 468.2,92.0 L 474.5,91.8 L 480.7,91.6 L 487.0,91.6 L 493.3,91.2 L 499.6,90.4 L 505.9,90.0 L 512.2,89.6 L 518.5,89.4 L 524.8,89.4 L 531.0,88.7 L 537.3,88.3 L 543.6,88.3 L 549.9,86.7 L 556.2,86.7 L 562.5,86.7 L 568.8,86.7 L 575.1,86.5 L 581.4,85.9 L 587.6,85.1 L 593.9,84.7 L 600.2,84.7 L 606.5,84.3 L 612.8,82.8 L 619.1,81.8 L 625.4,81.6 L 631.7,81.4 L 637.9,80.8 L 644.2,79.6 L 650.5,79.2 L 656.8,78.8 L 663.1,77.6 L 669.4,77.4 L 675.7,77.4 L 682.0,77.4 L 688.3,77.3 L 694.5,76.1 L 700.8,75.9 L 707.1,75.7 L 713.4,75.7 L 719.7,75.3 L 726.0,73.7 L 732.3,73.5 L 738.6,73.3 L 744.8,73.3 L 751.1,72.5 L 757.4,72.3 L 763.7,72.1 L 770.0,71.6" fill="none" stroke="#4F8EF7" stroke-width="2.5" stroke-linejoin="round" clip-path="url(#ca)"/>
<path d="M 72.0,340 L 72.0,244.2 L 78.3,243.6 L 84.6,243.6 L 90.9,243.6 L 97.2,243.4 L 103.4,243.0 L 109.7,242.8 L 116.0,242.6 L 122.3,242.6 L 128.6,242.5 L 134.9,242.3 L 141.2,242.3 L 147.5,242.3 L 153.7,242.3 L 160.0,242.3 L 166.3,242.3 L 172.6,241.9 L 178.9,241.9 L 185.2,241.9 L 191.5,241.1 L 197.8,240.9 L 204.1,240.5 L 210.3,239.7 L 216.6,239.5 L 222.9,239.5 L 229.2,239.5 L 235.5,238.9 L 241.8,238.5 L 248.1,238.5 L 254.4,238.1 L 260.6,237.9 L 266.9,237.5 L 273.2,237.5 L 279.5,237.3 L 285.8,236.6 L 292.1,236.0 L 298.4,235.6 L 304.7,235.4 L 311.0,235.4 L 317.2,235.2 L 323.5,234.8 L 329.8,234.8 L 336.1,234.6 L 342.4,234.0 L 348.7,233.6 L 355.0,233.6 L 361.3,233.6 L 367.5,233.6 L 373.8,233.4 L 380.1,232.8 L 386.4,232.4 L 392.7,232.2 L 399.0,232.0 L 405.3,231.8 L 411.6,231.6 L 417.9,231.4 L 424.1,231.2 L 430.4,230.7 L 436.7,230.5 L 443.0,230.3 L 449.3,229.5 L 455.6,228.7 L 461.9,228.7 L 468.2,228.5 L 474.5,228.3 L 480.7,228.3 L 487.0,228.3 L 493.3,227.9 L 499.6,227.9 L 505.9,226.7 L 512.2,226.5 L 518.5,226.3 L 524.8,226.3 L 531.0,225.9 L 537.3,225.7 L 543.6,225.7 L 549.9,225.5 L 556.2,225.5 L 562.5,225.5 L 568.8,225.1 L 575.1,224.9 L 581.4,224.0 L 587.6,224.2 L 593.9,224.0 L 600.2,223.8 L 606.5,223.8 L 612.8,223.6 L 619.1,223.0 L 625.4,223.0 L 631.7,223.0 L 637.9,223.0 L 644.2,222.6 L 650.5,222.6 L 656.8,222.2 L 663.1,221.8 L 669.4,221.0 L 675.7,221.0 L 682.0,220.6 L 688.3,220.4 L 694.5,220.2 L 700.8,220.0 L 707.1,219.6 L 713.4,219.6 L 719.7,219.1 L 726.0,219.1 L 732.3,218.9 L 738.6,218.5 L 744.8,218.3 L 751.1,218.3 L 757.4,218.3 L 763.7,218.3 L 770.0,218.3 L 770.0,340 Z" fill="url(#g3)" clip-path="url(#ca)"/>
<path d="M 72.0,244.2 L 78.3,243.6 L 84.6,243.6 L 90.9,243.6 L 97.2,243.4 L 103.4,243.0 L 109.7,242.8 L 116.0,242.6 L 122.3,242.6 L 128.6,242.5 L 134.9,242.3 L 141.2,242.3 L 147.5,242.3 L 153.7,242.3 L 160.0,242.3 L 166.3,242.3 L 172.6,241.9 L 178.9,241.9 L 185.2,241.9 L 191.5,241.1 L 197.8,240.9 L 204.1,240.5 L 210.3,239.7 L 216.6,239.5 L 222.9,239.5 L 229.2,239.5 L 235.5,238.9 L 241.8,238.5 L 248.1,238.5 L 254.4,238.1 L 260.6,237.9 L 266.9,237.5 L 273.2,237.5 L 279.5,237.3 L 285.8,236.6 L 292.1,236.0 L 298.4,235.6 L 304.7,235.4 L 311.0,235.4 L 317.2,235.2 L 323.5,234.8 L 329.8,234.8 L 336.1,234.6 L 342.4,234.0 L 348.7,233.6 L 355.0,233.6 L 361.3,233.6 L 367.5,233.6 L 373.8,233.4 L 380.1,232.8 L 386.4,232.4 L 392.7,232.2 L 399.0,232.0 L 405.3,231.8 L 411.6,231.6 L 417.9,231.4 L 424.1,231.2 L 430.4,230.7 L 436.7,230.5 L 443.0,230.3 L 449.3,229.5 L 455.6,228.7 L 461.9,228.7 L 468.2,228.5 L 474.5,228.3 L 480.7,228.3 L 487.0,228.3 L 493.3,227.9 L 499.6,227.9 L 505.9,226.7 L 512.2,226.5 L 518.5,226.3 L 524.8,226.3 L 531.0,225.9 L 537.3,225.7 L 543.6,225.7 L 549.9,225.5 L 556.2,225.5 L 562.5,225.5 L 568.8,225.1 L 575.1,224.9 L 581.4,224.0 L 587.6,224.2 L 593.9,224.0 L 600.2,223.8 L 606.5,223.8 L 612.8,223.6 L 619.1,223.0 L 625.4,223.0 L 631.7,223.0 L 637.9,223.0 L 644.2,222.6 L 650.5,222.6 L 656.8,222.2 L 663.1,221.8 L 669.4,221.0 L 675.7,221.0 L 682.0,220.6 L 688.3,220.4 L 694.5,220.2 L 700.8,220.0 L 707.1,219.6 L 713.4,219.6 L 719.7,219.1 L 726.0,219.1 L 732.3,218.9 L 738.6,218.5 L 744.8,218.3 L 751.1,218.3 L 757.4,218.3 L 763.7,218.3 L 770.0,218.3" fill="none" stroke="#BF5AF2" stroke-width="2.5" stroke-linejoin="round" clip-path="url(#ca)"/>
<path d="M 72.0,340 L 72.0,291.4 L 78.3,290.8 L 84.6,290.8 L 90.9,290.8 L 97.2,290.6 L 103.4,290.2 L 109.7,290.0 L 116.0,289.7 L 122.3,289.7 L 128.6,289.5 L 134.9,289.3 L 141.2,289.3 L 147.5,289.3 L 153.7,289.3 L 160.0,289.3 L 166.3,289.3 L 172.6,288.9 L 178.9,288.9 L 185.2,289.1 L 191.5,288.5 L 197.8,288.7 L 204.1,288.1 L 210.3,287.5 L 216.6,287.3 L 222.9,287.5 L 229.2,287.5 L 235.5,286.9 L 241.8,286.7 L 248.1,286.7 L 254.4,286.3 L 260.6,286.1 L 266.9,285.7 L 273.2,285.7 L 279.5,285.5 L 285.8,284.9 L 292.1,284.3 L 298.4,283.9 L 304.7,283.9 L 311.0,283.9 L 317.2,283.8 L 323.5,283.4 L 329.8,283.4 L 336.1,283.2 L 342.4,282.6 L 348.7,282.4 L 355.0,282.4 L 361.3,282.4 L 367.5,282.4 L 373.8,282.2 L 380.1,281.6 L 386.4,281.4 L 392.7,281.2 L 399.0,281.0 L 405.3,281.0 L 411.6,280.8 L 417.9,280.8 L 424.1,280.8 L 430.4,280.2 L 436.7,280.2 L 443.0,280.2 L 449.3,279.8 L 455.6,279.2 L 461.9,279.2 L 468.2,279.0 L 474.5,278.8 L 480.7,278.8 L 487.0,278.8 L 493.3,278.4 L 499.6,278.4 L 505.9,277.3 L 512.2,277.1 L 518.5,276.9 L 524.8,276.9 L 531.0,276.7 L 537.3,276.7 L 543.6,276.7 L 549.9,276.7 L 556.2,276.7 L 562.5,276.7 L 568.8,276.3 L 575.1,276.1 L 581.4,275.1 L 587.6,275.3 L 593.9,275.3 L 600.2,275.1 L 606.5,275.1 L 612.8,275.1 L 619.1,274.7 L 625.4,274.7 L 631.7,274.7 L 637.9,274.7 L 644.2,274.7 L 650.5,274.7 L 656.8,274.5 L 663.1,274.5 L 669.4,273.7 L 675.7,273.7 L 682.0,273.5 L 688.3,273.3 L 694.5,273.1 L 700.8,272.9 L 707.1,272.5 L 713.4,272.5 L 719.7,272.0 L 726.0,272.0 L 732.3,271.8 L 738.6,271.6 L 744.8,271.6 L 751.1,271.6 L 757.4,271.6 L 763.7,271.6 L 770.0,271.6 L 770.0,340 Z" fill="url(#g4)" clip-path="url(#ca)"/>
<path d="M 72.0,291.4 L 78.3,290.8 L 84.6,290.8 L 90.9,290.8 L 97.2,290.6 L 103.4,290.2 L 109.7,290.0 L 116.0,289.7 L 122.3,289.7 L 128.6,289.5 L 134.9,289.3 L 141.2,289.3 L 147.5,289.3 L 153.7,289.3 L 160.0,289.3 L 166.3,289.3 L 172.6,288.9 L 178.9,288.9 L 185.2,289.1 L 191.5,288.5 L 197.8,288.7 L 204.1,288.1 L 210.3,287.5 L 216.6,287.3 L 222.9,287.5 L 229.2,287.5 L 235.5,286.9 L 241.8,286.7 L 248.1,286.7 L 254.4,286.3 L 260.6,286.1 L 266.9,285.7 L 273.2,285.7 L 279.5,285.5 L 285.8,284.9 L 292.1,284.3 L 298.4,283.9 L 304.7,283.9 L 311.0,283.9 L 317.2,283.8 L 323.5,283.4 L 329.8,283.4 L 336.1,283.2 L 342.4,282.6 L 348.7,282.4 L 355.0,282.4 L 361.3,282.4 L 367.5,282.4 L 373.8,282.2 L 380.1,281.6 L 386.4,281.4 L 392.7,281.2 L 399.0,281.0 L 405.3,281.0 L 411.6,280.8 L 417.9,280.8 L 424.1,280.8 L 430.4,280.2 L 436.7,280.2 L 443.0,280.2 L 449.3,279.8 L 455.6,279.2 L 461.9,279.2 L 468.2,279.0 L 474.5,278.8 L 480.7,278.8 L 487.0,278.8 L 493.3,278.4 L 499.6,278.4 L 505.9,277.3 L 512.2,277.1 L 518.5,276.9 L 524.8,276.9 L 531.0,276.7 L 537.3,276.7 L 543.6,276.7 L 549.9,276.7 L 556.2,276.7 L 562.5,276.7 L 568.8,276.3 L 575.1,276.1 L 581.4,275.1 L 587.6,275.3 L 593.9,275.3 L 600.2,275.1 L 606.5,275.1 L 612.8,275.1 L 619.1,274.7 L 625.4,274.7 L 631.7,274.7 L 637.9,274.7 L 644.2,274.7 L 650.5,274.7 L 656.8,274.5 L 663.1,274.5 L 669.4,273.7 L 675.7,273.7 L 682.0,273.5 L 688.3,273.3 L 694.5,273.1 L 700.8,272.9 L 707.1,272.5 L 713.4,272.5 L 719.7,272.0 L 726.0,272.0 L 732.3,271.8 L 738.6,271.6 L 744.8,271.6 L 751.1,271.6 L 757.4,271.6 L 763.7,271.6 L 770.0,271.6" fill="none" stroke="#34C759" stroke-width="2.5" stroke-linejoin="round" clip-path="url(#ca)"/>
<text x="106.6" y="55.0" text-anchor="middle" font-size="9" fill="#4F8EF7" opacity="0.85" clip-path="url(#ca)">+0.5% (+8)</text>
<text x="106.6" y="66.0" text-anchor="middle" font-size="9" fill="#BF5AF2" opacity="0.85" clip-path="url(#ca)">+1.0% (+10)</text>
<text x="106.6" y="77.0" text-anchor="middle" font-size="9" fill="#34C759" opacity="0.85" clip-path="url(#ca)">+1.5% (+11)</text>
<text x="226.1" y="55.0" text-anchor="middle" font-size="9" fill="#4F8EF7" opacity="0.85" clip-path="url(#ca)">+4.0% (+65)</text>
<text x="226.1" y="66.0" text-anchor="middle" font-size="9" fill="#BF5AF2" opacity="0.85" clip-path="url(#ca)">+3.5% (+35)</text>
<text x="226.1" y="77.0" text-anchor="middle" font-size="9" fill="#34C759" opacity="0.85" clip-path="url(#ca)">+3.6% (+27)</text>
<text x="392.7" y="55.0" text-anchor="middle" font-size="9" fill="#4F8EF7" opacity="0.85" clip-path="url(#ca)">+4.1% (+70)</text>
<text x="392.7" y="66.0" text-anchor="middle" font-size="9" fill="#BF5AF2" opacity="0.85" clip-path="url(#ca)">+3.5% (+36)</text>
<text x="392.7" y="77.0" text-anchor="middle" font-size="9" fill="#34C759" opacity="0.85" clip-path="url(#ca)">+3.3% (+26)</text>
<text x="562.5" y="55.0" text-anchor="middle" font-size="9" fill="#4F8EF7" opacity="0.85" clip-path="url(#ca)">+3.5% (+61)</text>
<text x="562.5" y="66.0" text-anchor="middle" font-size="9" fill="#BF5AF2" opacity="0.85" clip-path="url(#ca)">+2.7% (+29)</text>
<text x="562.5" y="77.0" text-anchor="middle" font-size="9" fill="#34C759" opacity="0.85" clip-path="url(#ca)">+2.6% (+21)</text>
<text x="710.3" y="55.0" text-anchor="middle" font-size="9" fill="#4F8EF7" opacity="0.85" clip-path="url(#ca)">+2.1% (+39)</text>
<text x="710.3" y="66.0" text-anchor="middle" font-size="9" fill="#BF5AF2" opacity="0.85" clip-path="url(#ca)">+2.0% (+22)</text>
<text x="710.3" y="77.0" text-anchor="middle" font-size="9" fill="#34C759" opacity="0.85" clip-path="url(#ca)">+1.9% (+16)</text>
<rect x="211" y="369" width="12" height="12" fill="#4F8EF7" rx="2"/>
<text x="227" y="379" font-size="12" fill="#111827">Authors</text>
<rect x="351" y="369" width="12" height="12" fill="#BF5AF2" rx="2"/>
<text x="367" y="379" font-size="12" fill="#111827">Contributors</text>
<rect x="491" y="369" width="12" height="12" fill="#34C759" rx="2"/>
<text x="507" y="379" font-size="12" fill="#111827">Non-author contributors</text>
<text x="72" y="394" font-size="8" fill="#e5e7eb">data since Dec 11, 2025</text>
</svg>