<svg xmlns="http://www.w3.org/2000/svg" width="800" height="400" viewBox="0 0 800 400">
<defs>
  <style>text { font-family: -apple-system, BlinkMacSystemFont, 'Segoe UI', Roboto, sans-serif; }</style>
  <linearGradient id="g2" x1="0" y1="0" x2="0" y2="1">
  <stop offset="0%" stop-color="#4F8EF7" stop-opacity="0.25"/>
  <stop offset="100%" stop-color="#4F8EF7" stop-opacity="0"/>
</linearGradient>
<linearGradient id="g3" x1="0" y1="0" x2="0" y2="1">
  <stop offset="0%" stop-color="#BF5AF2" stop-opacity="0.25"/>
  <stop offset="100%" stop-color="#BF5AF2" stop-opacity="0"/>
</linearGradient>
<linearGradient id="g4" x1="0" y1="0" x2="0" y2="1">
  <stop offset="0%" stop-color="#34C759" stop-opacity="0.25"/>
  <stop offset="100%" stop-color="#34C759" stop-opacity="0"/>
</linearGradient>
  <clipPath id="ca"><rect x="72" y="45" width="698" height="295"/></clipPath>
</defs>
<rect width="800" height="400" fill="#ffffff" rx="12"/>
<text x="400" y="26" text-anchor="middle" font-size="15" font-weight="600" fill="#111827">Community Growth Over Time</text>
<line x1="72" y1="340.0" x2="770" y2="340.0" stroke="#f3f4f6" stroke-width="1"/>
<text x="66" y="344.0" text-anchor="end" font-size="11" fill="#6b7280">500</text>
<line x1="72" y1="241.7" x2="770" y2="241.7" stroke="#f3f4f6" stroke-width="1"/>
<text x="66" y="245.7" text-anchor="end" font-size="11" fill="#6b7280">1.0k</text>
<line x1="72" y1="143.3" x2="770" y2="143.3" stroke="#f3f4f6" stroke-width="1"/>
<text x="66" y="147.3" text-anchor="end" font-size="11" fill="#6b7280">1.5k</text>
<line x1="72" y1="45.0" x2="770" y2="45.0" stroke="#f3f4f6" stroke-width="1"/>
<text x="66" y="49.0" text-anchor="end" font-size="11" fill="#6b7280">2.0k</text>
<line x1="130.6" y1="45" x2="130.6" y2="340" stroke="#e5e7eb" stroke-width="1" stroke-dasharray="3,3" clip-path="url(#ca)"/>
<line x1="257.5" y1="45" x2="257.5" y2="340" stroke="#e5e7eb" stroke-width="1" stroke-dasharray="3,3" clip-path="url(#ca)"/>
<line x1="389.3" y1="45" x2="389.3" y2="340" stroke="#e5e7eb" stroke-width="1" stroke-dasharray="3,3" clip-path="url(#ca)"/>
<line x1="521.1" y1="45" x2="521.1" y2="340" stroke="#e5e7eb" stroke-width="1" stroke-dasharray="3,3" clip-path="url(#ca)"/>
<line x1="652.9" y1="45" x2="652.9" y2="340" stroke="#e5e7eb" stroke-width="1" stroke-dasharray="3,3" clip-path="url(#ca)"/>
<text x="72.0" y="358.0" text-anchor="middle" font-size="11" fill="#6b7280">Dec 11</text>
<text x="213.6" y="358.0" text-anchor="middle" font-size="11" fill="#6b7280">Jan 23</text>
<text x="350.2" y="358.0" text-anchor="middle" font-size="11" fill="#6b7280">Feb 20</text>
<text x="491.8" y="358.0" text-anchor="middle" font-size="11" fill="#6b7280">Mar 24</text>
<text x="628.4" y="358.0" text-anchor="middle" font-size="11" fill="#6b7280">Apr 25</text>
<text x="770.0" y="358.0" text-anchor="middle" font-size="11" fill="#6b7280">May 30</text>
<line x1="72" y1="45" x2="72" y2="340" stroke="#e5e7eb" stroke-width="1"/>
<line x1="72" y1="340" x2="770" y2="340" stroke="#e5e7eb" stroke-width="1"/>
<text x="-192.5" y="18" text-anchor="middle" font-size="12" fill="#6b7280" transform="rotate(-90)">People</text>
<path d="M 72.0,340 L 72.0,120.1 L 76.9,120.1 L 81.8,120.1 L 86.6,119.5 L 91.5,119.5 L 96.4,119.1 L 101.3,118.9 L 106.2,119.1 L 111.0,118.6 L 115.9,118.6 L 120.8,118.6 L 125.7,118.6 L 130.6,118.6 L 135.5,118.6 L 140.3,118.6 L 145.2,118.6 L 150.1,118.4 L 155.0,117.8 L 159.9,116.6 L 164.7,116.0 L 169.6,115.8 L 174.5,115.8 L 179.4,115.2 L 184.3,113.8 L 189.1,113.0 L 194.0,113.0 L 198.9,112.1 L 203.8,111.7 L 208.7,110.9 L 213.6,110.3 L 218.4,109.7 L 223.3,109.1 L 228.2,109.1 L 233.1,107.7 L 238.0,106.9 L 242.8,106.9 L 247.7,106.2 L 252.6,105.8 L 257.5,105.6 L 262.4,105.4 L 267.2,105.4 L 272.1,104.8 L 277.0,102.4 L 281.9,101.0 L 286.8,100.3 L 291.7,100.1 L 296.5,99.7 L 301.4,98.9 L 306.3,98.5 L 311.2,98.1 L 316.1,97.7 L 320.9,97.3 L 325.8,96.9 L 330.7,96.9 L 335.6,95.0 L 340.5,95.0 L 345.3,94.8 L 350.2,94.6 L 355.1,94.2 L 360.0,94.2 L 364.9,93.2 L 369.7,92.0 L 374.6,91.6 L 379.5,92.0 L 384.4,91.8 L 389.3,91.6 L 394.2,91.6 L 399.0,91.2 L 403.9,90.4 L 408.8,90.0 L 413.7,89.6 L 418.6,89.4 L 423.4,89.4 L 428.3,88.7 L 433.2,88.3 L 438.1,88.3 L 443.0,86.7 L 447.8,86.7 L 452.7,86.7 L 457.6,86.7 L 462.5,86.5 L 467.4,85.9 L 472.3,85.1 L 477.1,84.7 L 482.0,84.7 L 486.9,84.3 L 491.8,82.8 L 496.7,81.8 L 501.5,81.6 L 506.4,81.4 L 511.3,80.8 L 516.2,79.6 L 521.1,79.2 L 525.9,78.8 L 530.8,77.6 L 535.7,77.4 L 540.6,77.4 L 545.5,77.4 L 550.3,77.3 L 555.2,76.1 L 560.1,75.9 L 565.0,75.7 L 569.9,75.7 L 574.8,75.3 L 579.6,73.7 L 584.5,73.5 L 589.4,73.3 L 594.3,73.3 L 599.2,72.5 L 604.0,72.3 L 608.9,72.1 L 613.8,71.6 L 618.7,70.8 L 623.6,70.8 L 628.4,70.8 L 633.3,70.8 L 638.2,70.4 L 643.1,69.8 L 648.0,69.6 L 652.9,69.0 L 657.7,68.8 L 662.6,68.6 L 667.5,67.8 L 672.4,67.2 L 677.3,67.0 L 682.1,67.0 L 687.0,65.3 L 691.9,64.7 L 696.8,64.5 L 701.7,64.5 L 706.5,63.5 L 711.4,63.5 L 716.3,62.9 L 721.2,62.3 L 726.1,60.9 L 731.0,60.7 L 735.8,60.5 L 740.7,60.3 L 745.6,60.3 L 750.5,60.1 L 755.4,59.2 L 760.2,58.6 L 765.1,58.6 L 770.0,58.4 L 770.0,340 Z" fill="url(#g2)" clip-path="url(#ca)"/>
<path d="M 72.0,120.1 L 76.9,120.1 L 81.8,120.1 L 86.6,119.5 L 91.5,119.5 L 96.4,119.1 L 101.3,118.9 L 106.2,119.1 L 111.0,118.6 L 115.9,118.6 L 120.8,118.6 L 125.7,118.6 L 130.6,118.6 L 135.5,118.6 L 140.3,118.6 L 145.2,118.6 L 150.1,118.4 L 155.0,117.8 L 159.9,116.6 L 164.7,116.0 L 169.6,115.8 L 174.5,115.8 L 179.4,115.2 L 184.3,113.8 L 189.1,113.0 L 194.0,113.0 L 198.9,112.1 L 203.8,111.7 L 208.7,110.9 L 213.6,110.3 L 218.4,109.7 L 223.3,109.1 L 228.2,109.1 L 233.1,107.7 L 238.0,106.9 L 242.8,106.9 L 247.7,106.2 L 252.6,105.8 L 257.5,105.6 L 262.4,105.4 L 267.2,105.4 L 272.1,104.8 L 277.0,102.4 L 281.9,101.0 L 286.8,100.3 L 291.7,100.1 L 296.5,99.7 L 301.4,98.9 L 306.3,98.5 L 311.2,98.1 L 316.1,97.7 L 320.9,97.3 L 325.8,96.9 L 330.7,96.9 L 335.6,95.0 L 340.5,95.0 L 345.3,94.8 L 350.2,94.6 L 355.1,94.2 L 360.0,94.2 L 364.9,93.2 L 369.7,92.0 L 374.6,91.6 L 379.5,92.0 L 384.4,91.8 L 389.3,91.6 L 394.2,91.6 L 399.0,91.2 L 403.9,90.4 L 408.8,90.0 L 413.7,89.6 L 418.6,89.4 L 423.4,89.4 L 428.3,88.7 L 433.2,88.3 L 438.1,88.3 L 443.0,86.7 L 447.8,86.7 L 452.7,86.7 L 457.6,86.7 L 462.5,86.5 L 467.4,85.9 L 472.3,85.1 L 477.1,84.7 L 482.0,84.7 L 486.9,84.3 L 491.8,82.8 L 496.7,81.8 L 501.5,81.6 L 506.4,81.4 L 511.3,80.8 L 516.2,79.6 L 521.1,79.2 L 525.9,78.8 L 530.8,77.6 L 535.7,77.4 L 540.6,77.4 L 545.5,77.4 L 550.3,77.3 L 555.2,76.1 L 560.1,75.9 L 565.0,75.7 L 569.9,75.7 L 574.8,75.3 L 579.6,73.7 L 584.5,73.5 L 589.4,73.3 L 594.3,73.3 L 599.2,72.5 L 604.0,72.3 L 608.9,72.1 L 613.8,71.6 L 618.7,70.8 L 623.6,70.8 L 628.4,70.8 L 633.3,70.8 L 638.2,70.4 L 643.1,69.8 L 648.0,69.6 L 652.9,69.0 L 657.7,68.8 L 662.6,68.6 L 667.5,67.8 L 672.4,67.2 L 677.3,67.0 L 682.1,67.0 L 687.0,65.3 L 691.9,64.7 L 696.8,64.5 L 701.7,64.5 L 706.5,63.5 L 711.4,63.5 L 716.3,62.9 L 721.2,62.3 L 726.1,60.9 L 731.0,60.7 L 735.8,60.5 L 740.7,60.3 L 745.6,60.3 L 750.5,60.1 L 755.4,59.2 L 760.2,58.6 L 765.1,58.6 L 770.0,58.4" fill="none" stroke="#4F8EF7" stroke-width="2.5" stroke-linejoin="round" clip-path="url(#ca)"/>
<path d="M 72.0,340 L 72.0,244.2 L 76.9,243.6 L 81.8,243.6 L 86.6,243.6 L 91.5,243.4 L 96.4,243.0 L 101.3,242.8 L 106.2,242.6 L 111.0,242.6 L 115.9,242.5 L 120.8,242.3 L 125.7,242.3 L 130.6,242.3 L 135.5,242.3 L 140.3,242.3 L 145.2,242.3 L 150.1,241.9 L 155.0,241.9 L 159.9,241.9 L 164.7,241.1 L 169.6,240.9 L 174.5,240.5 L 179.4,239.7 L 184.3,239.5 L 189.1,239.5 L 194.0,239.5 L 198.9,238.9 L 203.8,238.5 L 208.7,238.5 L 213.6,238.1 L 218.4,237.9 L 223.3,237.5 L 228.2,237.5 L 233.1,237.3 L 238.0,236.6 L 242.8,236.0 L 247.7,235.6 L 252.6,235.4 L 257.5,235.4 L 262.4,235.2 L 267.2,234.8 L 272.1,234.8 L 277.0,234.6 L 281.9,234.0 L 286.8,233.6 L 291.7,233.6 L 296.5,233.6 L 301.4,233.6 L 306.3,233.4 L 311.2,232.8 L 316.1,232.4 L 320.9,232.2 L 325.8,232.0 L 330.7,231.8 L 335.6,231.6 L 340.5,231.4 L 345.3,231.2 L 350.2,230.7 L 355.1,230.5 L 360.0,230.3 L 364.9,229.5 L 369.7,228.7 L 374.6,228.7 L 379.5,228.5 L 384.4,228.3 L 389.3,228.3 L 394.2,228.3 L 399.0,227.9 L 403.9,227.9 L 408.8,226.7 L 413.7,226.5 L 418.6,226.3 L 423.4,226.3 L 428.3,225.9 L 433.2,225.7 L 438.1,225.7 L 443.0,225.5 L 447.8,225.5 L 452.7,225.5 L 457.6,225.1 L 462.5,224.9 L 467.4,224.0 L 472.3,224.2 L 477.1,224.0 L 482.0,223.8 L 486.9,223.8 L 491.8,223.6 L 496.7,223.0 L 501.5,223.0 L 506.4,223.0 L 511.3,223.0 L 516.2,222.6 L 521.1,222.6 L 525.9,222.2 L 530.8,221.8 L 535.7,221.0 L 540.6,221.0 L 545.5,220.6 L 550.3,220.4 L 555.2,220.2 L 560.1,220.0 L 565.0,219.6 L 569.9,219.6 L 574.8,219.1 L 579.6,219.1 L 584.5,218.9 L 589.4,218.5 L 594.3,218.3 L 599.2,218.3 L 604.0,218.3 L 608.9,218.3 L 613.8,218.3 L 618.7,217.7 L 623.6,217.7 L 628.4,217.3 L 633.3,216.9 L 638.2,216.3 L 643.1,216.1 L 648.0,216.1 L 652.9,214.9 L 657.7,214.7 L 662.6,214.7 L 667.5,213.9 L 672.4,213.9 L 677.3,213.5 L 682.1,213.5 L 687.0,213.3 L 691.9,213.3 L 696.8,213.2 L 701.7,212.8 L 706.5,212.8 L 711.4,212.6 L 716.3,212.4 L 721.2,212.2 L 726.1,212.0 L 731.0,212.0 L 735.8,211.6 L 740.7,211.6 L 745.6,211.6 L 750.5,210.6 L 755.4,210.6 L 760.2,210.6 L 765.1,210.6 L 770.0,210.6 L 770.0,340 Z" fill="url(#g3)" clip-path="url(#ca)"/>
<path d="M 72.0,244.2 L 76.9,243.6 L 81.8,243.6 L 86.6,243.6 L 91.5,243.4 L 96.4,243.0 L 101.3,242.8 L 106.2,242.6 L 111.0,242.6 L 115.9,242.5 L 120.8,242.3 L 125.7,242.3 L 130.6,242.3 L 135.5,242.3 L 140.3,242.3 L 145.2,242.3 L 150.1,241.9 L 155.0,241.9 L 159.9,241.9 L 164.7,241.1 L 169.6,240.9 L 174.5,240.5 L 179.4,239.7 L 184.3,239.5 L 189.1,239.5 L 194.0,239.5 L 198.9,238.9 L 203.8,238.5 L 208.7,238.5 L 213.6,238.1 L 218.4,237.9 L 223.3,237.5 L 228.2,237.5 L 233.1,237.3 L 238.0,236.6 L 242.8,236.0 L 247.7,235.6 L 252.6,235.4 L 257.5,235.4 L 262.4,235.2 L 267.2,234.8 L 272.1,234.8 L 277.0,234.6 L 281.9,234.0 L 286.8,233.6 L 291.7,233.6 L 296.5,233.6 L 301.4,233.6 L 306.3,233.4 L 311.2,232.8 L 316.1,232.4 L 320.9,232.2 L 325.8,232.0 L 330.7,231.8 L 335.6,231.6 L 340.5,231.4 L 345.3,231.2 L 350.2,230.7 L 355.1,230.5 L 360.0,230.3 L 364.9,229.5 L 369.7,228.7 L 374.6,228.7 L 379.5,228.5 L 384.4,228.3 L 389.3,228.3 L 394.2,228.3 L 399.0,227.9 L 403.9,227.9 L 408.8,226.7 L 413.7,226.5 L 418.6,226.3 L 423.4,226.3 L 428.3,225.9 L 433.2,225.7 L 438.1,225.7 L 443.0,225.5 L 447.8,225.5 L 452.7,225.5 L 457.6,225.1 L 462.5,224.9 L 467.4,224.0 L 472.3,224.2 L 477.1,224.0 L 482.0,223.8 L 486.9,223.8 L 491.8,223.6 L 496.7,223.0 L 501.5,223.0 L 506.4,223.0 L 511.3,223.0 L 516.2,222.6 L 521.1,222.6 L 525.9,222.2 L 530.8,221.8 L 535.7,221.0 L 540.6,221.0 L 545.5,220.6 L 550.3,220.4 L 555.2,220.2 L 560.1,220.0 L 565.0,219.6 L 569.9,219.6 L 574.8,219.1 L 579.6,219.1 L 584.5,218.9 L 589.4,218.5 L 594.3,218.3 L 599.2,218.3 L 604.0,218.3 L 608.9,218.3 L 613.8,218.3 L 618.7,217.7 L 623.6,217.7 L 628.4,217.3 L 633.3,216.9 L 638.2,216.3 L 643.1,216.1 L 648.0,216.1 L 652.9,214.9 L 657.7,214.7 L 662.6,214.7 L 667.5,213.9 L 672.4,213.9 L 677.3,213.5 L 682.1,213.5 L 687.0,213.3 L 691.9,213.3 L 696.8,213.2 L 701.7,212.8 L 706.5,212.8 L 711.4,212.6 L 716.3,212.4 L 721.2,212.2 L 726.1,212.0 L 731.0,212.0 L 735.8,211.6 L 740.7,211.6 L 745.6,211.6 L 750.5,210.6 L 755.4,210.6 L 760.2,210.6 L 765.1,210.6 L 770.0,210.6" fill="none" stroke="#BF5AF2" stroke-width="2.5" stroke-linejoin="round" clip-path="url(#ca)"/>
<path d="M 72.0,340 L 72.0,291.4 L 76.9,290.8 L 81.8,290.8 L 86.6,290.8 L 91.5,290.6 L 96.4,290.2 L 101.3,290.0 L 106.2,289.7 L 111.0,289.7 L 115.9,289.5 L 120.8,289.3 L 125.7,289.3 L 130.6,289.3 L 135.5,289.3 L 140.3,289.3 L 145.2,289.3 L 150.1,288.9 L 155.0,288.9 L 159.9,289.1 L 164.7,288.5 L 169.6,288.7 L 174.5,288.1 L 179.4,287.5 L 184.3,287.3 L 189.1,287.5 L 194.0,287.5 L 198.9,286.9 L 203.8,286.7 L 208.7,286.7 L 213.6,286.3 L 218.4,286.1 L 223.3,285.7 L 228.2,285.7 L 233.1,285.5 L 238.0,284.9 L 242.8,284.3 L 247.7,283.9 L 252.6,283.9 L 257.5,283.9 L 262.4,283.8 L 267.2,283.4 L 272.1,283.4 L 277.0,283.2 L 281.9,282.6 L 286.8,282.4 L 291.7,282.4 L 296.5,282.4 L 301.4,282.4 L 306.3,282.2 L 311.2,281.6 L 316.1,281.4 L 320.9,281.2 L 325.8,281.0 L 330.7,281.0 L 335.6,280.8 L 340.5,280.8 L 345.3,280.8 L 350.2,280.2 L 355.1,280.2 L 360.0,280.2 L 364.9,279.8 L 369.7,279.2 L 374.6,279.2 L 379.5,279.0 L 384.4,278.8 L 389.3,278.8 L 394.2,278.8 L 399.0,278.4 L 403.9,278.4 L 408.8,277.3 L 413.7,277.1 L 418.6,276.9 L 423.4,276.9 L 428.3,276.7 L 433.2,276.7 L 438.1,276.7 L 443.0,276.7 L 447.8,276.7 L 452.7,276.7 L 457.6,276.3 L 462.5,276.1 L 467.4,275.1 L 472.3,275.3 L 477.1,275.3 L 482.0,275.1 L 486.9,275.1 L 491.8,275.1 L 496.7,274.7 L 501.5,274.7 L 506.4,274.7 L 511.3,274.7 L 516.2,274.7 L 521.1,274.7 L 525.9,274.5 L 530.8,274.5 L 535.7,273.7 L 540.6,273.7 L 545.5,273.5 L 550.3,273.3 L 555.2,273.1 L 560.1,272.9 L 565.0,272.5 L 569.9,272.5 L 574.8,272.0 L 579.6,272.0 L 584.5,271.8 L 589.4,271.6 L 594.3,271.6 L 599.2,271.6 L 604.0,271.6 L 608.9,271.6 L 613.8,271.6 L 618.7,271.0 L 623.6,271.0 L 628.4,270.6 L 633.3,270.2 L 638.2,269.6 L 643.1,269.4 L 648.0,269.4 L 652.9,268.4 L 657.7,268.2 L 662.6,268.2 L 667.5,267.6 L 672.4,267.6 L 677.3,267.4 L 682.1,267.4 L 687.0,267.6 L 691.9,267.8 L 696.8,267.6 L 701.7,267.2 L 706.5,267.4 L 711.4,267.2 L 716.3,267.0 L 721.2,267.0 L 726.1,267.0 L 731.0,267.0 L 735.8,266.6 L 740.7,266.6 L 745.6,266.6 L 750.5,265.9 L 755.4,265.9 L 760.2,265.9 L 765.1,265.9 L 770.0,265.9 L 770.0,340 Z" fill="url(#g4)" clip-path="url(#ca)"/>
<path d="M 72.0,291.4 L 76.9,290.8 L 81.8,290.8 L 86.6,290.8 L 91.5,290.6 L 96.4,290.2 L 101.3,290.0 L 106.2,289.7 L 111.0,289.7 L 115.9,289.5 L 120.8,289.3 L 125.7,289.3 L 130.6,289.3 L 135.5,289.3 L 140.3,289.3 L 145.2,289.3 L 150.1,288.9 L 155.0,288.9 L 159.9,289.1 L 164.7,288.5 L 169.6,288.7 L 174.5,288.1 L 179.4,287.5 L 184.3,287.3 L 189.1,287.5 L 194.0,287.5 L 198.9,286.9 L 203.8,286.7 L 208.7,286.7 L 213.6,286.3 L 218.4,286.1 L 223.3,285.7 L 228.2,285.7 L 233.1,285.5 L 238.0,284.9 L 242.8,284.3 L 247.7,283.9 L 252.6,283.9 L 257.5,283.9 L 262.4,283.8 L 267.2,283.4 L 272.1,283.4 L 277.0,283.2 L 281.9,282.6 L 286.8,282.4 L 291.7,282.4 L 296.5,282.4 L 301.4,282.4 L 306.3,282.2 L 311.2,281.6 L 316.1,281.4 L 320.9,281.2 L 325.8,281.0 L 330.7,281.0 L 335.6,280.8 L 340.5,280.8 L 345.3,280.8 L 350.2,280.2 L 355.1,280.2 L 360.0,280.2 L 364.9,279.8 L 369.7,279.2 L 374.6,279.2 L 379.5,279.0 L 384.4,278.8 L 389.3,278.8 L 394.2,278.8 L 399.0,278.4 L 403.9,278.4 L 408.8,277.3 L 413.7,277.1 L 418.6,276.9 L 423.4,276.9 L 428.3,276.7 L 433.2,276.7 L 438.1,276.7 L 443.0,276.7 L 447.8,276.7 L 452.7,276.7 L 457.6,276.3 L 462.5,276.1 L 467.4,275.1 L 472.3,275.3 L 477.1,275.3 L 482.0,275.1 L 486.9,275.1 L 491.8,275.1 L 496.7,274.7 L 501.5,274.7 L 506.4,274.7 L 511.3,274.7 L 516.2,274.7 L 521.1,274.7 L 525.9,274.5 L 530.8,274.5 L 535.7,273.7 L 540.6,273.7 L 545.5,273.5 L 550.3,273.3 L 555.2,273.1 L 560.1,272.9 L 565.0,272.5 L 569.9,272.5 L 574.8,272.0 L 579.6,272.0 L 584.5,271.8 L 589.4,271.6 L 594.3,271.6 L 599.2,271.6 L 604.0,271.6 L 608.9,271.6 L 613.8,271.6 L 618.7,271.0 L 623.6,271.0 L 628.4,270.6 L 633.3,270.2 L 638.2,269.6 L 643.1,269.4 L 648.0,269.4 L 652.9,268.4 L 657.7,268.2 L 662.6,268.2 L 667.5,267.6 L 672.4,267.6 L 677.3,267.4 L 682.1,267.4 L 687.0,267.6 L 691.9,267.8 L 696.8,267.6 L 701.7,267.2 L 706.5,267.4 L 711.4,267.2 L 716.3,267.0 L 721.2,267.0 L 726.1,267.0 L 731.0,267.0 L 735.8,266.6 L 740.7,266.6 L 745.6,266.6 L 750.5,265.9 L 755.4,265.9 L 760.2,265.9 L 765.1,265.9 L 770.0,265.9" fill="none" stroke="#34C759" stroke-width="2.5" stroke-linejoin="round" clip-path="url(#ca)"/>
<text x="98.8" y="55.0" text-anchor="middle" font-size="9" fill="#4F8EF7" opacity="0.85" clip-path="url(#ca)">+0.5% (+8)</text>
<text x="98.8" y="66.0" text-anchor="middle" font-size="9" fill="#BF5AF2" opacity="0.85" clip-path="url(#ca)">+1.0% (+10)</text>
<text x="98.8" y="77.0" text-anchor="middle" font-size="9" fill="#34C759" opacity="0.85" clip-path="url(#ca)">+1.5% (+11)</text>
<text x="191.6" y="55.0" text-anchor="middle" font-size="9" fill="#4F8EF7" opacity="0.85" clip-path="url(#ca)">+4.0% (+65)</text>
<text x="191.6" y="66.0" text-anchor="middle" font-size="9" fill="#BF5AF2" opacity="0.85" clip-path="url(#ca)">+3.5% (+35)</text>
<text x="191.6" y="77.0" text-anchor="middle" font-size="9" fill="#34C759" opacity="0.85" clip-path="url(#ca)">+3.6% (+27)</text>
<text x="320.9" y="55.0" text-anchor="middle" font-size="9" fill="#4F8EF7" opacity="0.85" clip-path="url(#ca)">+4.1% (+70)</text>
<text x="320.9" y="66.0" text-anchor="middle" font-size="9" fill="#BF5AF2" opacity="0.85" clip-path="url(#ca)">+3.5% (+36)</text>
<text x="320.9" y="77.0" text-anchor="middle" font-size="9" fill="#34C759" opacity="0.85" clip-path="url(#ca)">+3.3% (+26)</text>
<text x="452.7" y="55.0" text-anchor="middle" font-size="9" fill="#4F8EF7" opacity="0.85" clip-path="url(#ca)">+3.5% (+61)</text>
<text x="452.7" y="66.0" text-anchor="middle" font-size="9" fill="#BF5AF2" opacity="0.85" clip-path="url(#ca)">+2.7% (+29)</text>
<text x="452.7" y="77.0" text-anchor="middle" font-size="9" fill="#34C759" opacity="0.85" clip-path="url(#ca)">+2.6% (+21)</text>
<text x="584.5" y="55.0" text-anchor="middle" font-size="9" fill="#4F8EF7" opacity="0.85" clip-path="url(#ca)">+2.7% (+49)</text>
<text x="584.5" y="66.0" text-anchor="middle" font-size="9" fill="#BF5AF2" opacity="0.85" clip-path="url(#ca)">+3.0% (+33)</text>
<text x="584.5" y="77.0" text-anchor="middle" font-size="9" fill="#34C759" opacity="0.85" clip-path="url(#ca)">+3.2% (+27)</text>
<text x="711.4" y="55.0" text-anchor="middle" font-size="9" fill="#4F8EF7" opacity="0.85" clip-path="url(#ca)">+2.9% (+54)</text>
<text x="711.4" y="66.0" text-anchor="middle" font-size="9" fill="#BF5AF2" opacity="0.85" clip-path="url(#ca)">+1.9% (+22)</text>
<text x="711.4" y="77.0" text-anchor="middle" font-size="9" fill="#34C759" opacity="0.85" clip-path="url(#ca)">+1.5% (+13)</text>
<rect x="211" y="369" width="12" height="12" fill="#4F8EF7" rx="2"/>
<text x="227" y="379" font-size="12" fill="#111827">Authors</text>
<rect x="351" y="369" width="12" height="12" fill="#BF5AF2" rx="2"/>
<text x="367" y="379" font-size="12" fill="#111827">Contributors</text>
<rect x="491" y="369" width="12" height="12" fill="#34C759" rx="2"/>
<text x="507" y="379" font-size="12" fill="#111827">Non-author contributors</text>
<text x="72" y="394" font-size="8" fill="#e5e7eb">data since Dec 11, 2025</text>
</svg>