<svg xmlns="http://www.w3.org/2000/svg" width="800" height="400" viewBox="0 0 800 400">
<defs>
  <style>text { font-family: -apple-system, BlinkMacSystemFont, 'Segoe UI', Roboto, sans-serif; }</style>
  <linearGradient id="g5" x1="0" y1="0" x2="0" y2="1">
  <stop offset="0%" stop-color="#34C759" stop-opacity="0.25"/>
  <stop offset="100%" stop-color="#34C759" stop-opacity="0"/>
</linearGradient>
<linearGradient id="g6" x1="0" y1="0" x2="0" y2="1">
  <stop offset="0%" stop-color="#4F8EF7" stop-opacity="0.25"/>
  <stop offset="100%" stop-color="#4F8EF7" stop-opacity="0"/>
</linearGradient>
<linearGradient id="g7" x1="0" y1="0" x2="0" y2="1">
  <stop offset="0%" stop-color="#FF6363" stop-opacity="0.25"/>
  <stop offset="100%" stop-color="#FF6363" stop-opacity="0"/>
</linearGradient>
  <clipPath id="ca"><rect x="72" y="45" width="698" height="295"/></clipPath>
</defs>
<rect width="800" height="400" fill="#ffffff" rx="12"/>
<text x="400" y="26" text-anchor="middle" font-size="15" font-weight="600" fill="#111827">Platform Support Over Time</text>
<line x1="72" y1="340.0" x2="770" y2="340.0" stroke="#f3f4f6" stroke-width="1"/>
<text x="66" y="344.0" text-anchor="end" font-size="11" fill="#6b7280">0</text>
<line x1="72" y1="281.0" x2="770" y2="281.0" stroke="#f3f4f6" stroke-width="1"/>
<text x="66" y="285.0" text-anchor="end" font-size="11" fill="#6b7280">200</text>
<line x1="72" y1="222.0" x2="770" y2="222.0" stroke="#f3f4f6" stroke-width="1"/>
<text x="66" y="226.0" text-anchor="end" font-size="11" fill="#6b7280">400</text>
<line x1="72" y1="163.0" x2="770" y2="163.0" stroke="#f3f4f6" stroke-width="1"/>
<text x="66" y="167.0" text-anchor="end" font-size="11" fill="#6b7280">600</text>
<line x1="72" y1="104.0" x2="770" y2="104.0" stroke="#f3f4f6" stroke-width="1"/>
<text x="66" y="108.0" text-anchor="end" font-size="11" fill="#6b7280">800</text>
<line x1="72" y1="45.0" x2="770" y2="45.0" stroke="#f3f4f6" stroke-width="1"/>
<text x="66" y="49.0" text-anchor="end" font-size="11" fill="#6b7280">1.0k</text>
<line x1="116.8" y1="45" x2="116.8" y2="340" stroke="#e5e7eb" stroke-width="1" stroke-dasharray="3,3" clip-path="url(#ca)"/>
<line x1="213.8" y1="45" x2="213.8" y2="340" stroke="#e5e7eb" stroke-width="1" stroke-dasharray="3,3" clip-path="url(#ca)"/>
<line x1="314.6" y1="45" x2="314.6" y2="340" stroke="#e5e7eb" stroke-width="1" stroke-dasharray="3,3" clip-path="url(#ca)"/>
<line x1="415.4" y1="45" x2="415.4" y2="340" stroke="#e5e7eb" stroke-width="1" stroke-dasharray="3,3" clip-path="url(#ca)"/>
<line x1="516.2" y1="45" x2="516.2" y2="340" stroke="#e5e7eb" stroke-width="1" stroke-dasharray="3,3" clip-path="url(#ca)"/>
<line x1="613.2" y1="45" x2="613.2" y2="340" stroke="#e5e7eb" stroke-width="1" stroke-dasharray="3,3" clip-path="url(#ca)"/>
<line x1="702.8" y1="45" x2="702.8" y2="340" stroke="#e5e7eb" stroke-width="1" stroke-dasharray="3,3" clip-path="url(#ca)"/>
<text x="72.0" y="358.0" text-anchor="middle" font-size="11" fill="#6b7280">Dec 11</text>
<text x="210.1" y="358.0" text-anchor="middle" font-size="11" fill="#6b7280">Jan 31</text>
<text x="351.9" y="358.0" text-anchor="middle" font-size="11" fill="#6b7280">Mar 12</text>
<text x="490.1" y="358.0" text-anchor="middle" font-size="11" fill="#6b7280">Apr 23</text>
<text x="631.9" y="358.0" text-anchor="middle" font-size="11" fill="#6b7280">Jun 8</text>
<text x="770.0" y="358.0" text-anchor="middle" font-size="11" fill="#6b7280">Jul 22</text>
<line x1="72" y1="45" x2="72" y2="340" stroke="#e5e7eb" stroke-width="1"/>
<line x1="72" y1="340" x2="770" y2="340" stroke="#e5e7eb" stroke-width="1"/>
<text x="-192.5" y="18" text-anchor="middle" font-size="12" fill="#6b7280" transform="rotate(-90)">Extensions</text>
<path d="M 72.0,340 L 72.0,242.6 L 75.7,240.0 L 79.5,239.7 L 83.2,238.5 L 86.9,237.9 L 90.7,235.0 L 94.4,233.2 L 98.1,232.3 L 101.9,230.8 L 105.6,229.1 L 109.3,228.2 L 113.1,227.9 L 116.8,227.0 L 120.5,226.4 L 124.3,226.1 L 128.0,225.2 L 131.7,224.4 L 135.5,223.5 L 139.2,222.6 L 142.9,221.4 L 146.7,220.5 L 150.4,219.6 L 154.1,218.8 L 157.9,217.0 L 161.6,216.4 L 165.3,216.4 L 169.0,214.3 L 172.8,213.7 L 176.5,213.2 L 180.2,212.6 L 184.0,211.1 L 187.7,209.0 L 191.4,208.7 L 195.2,208.4 L 198.9,206.7 L 202.6,206.1 L 206.4,204.6 L 210.1,204.3 L 213.8,204.0 L 217.6,203.4 L 221.3,203.4 L 225.0,203.4 L 228.8,199.3 L 232.5,199.0 L 236.2,198.1 L 240.0,197.8 L 243.7,197.5 L 247.4,196.6 L 251.2,196.0 L 254.9,195.4 L 258.6,193.7 L 262.4,193.7 L 266.1,193.7 L 269.8,193.4 L 273.6,190.4 L 277.3,189.6 L 281.0,189.0 L 284.8,188.1 L 288.5,187.5 L 292.2,187.5 L 296.0,186.0 L 299.7,183.9 L 303.4,183.4 L 307.2,183.1 L 310.9,182.2 L 314.6,182.2 L 318.4,181.6 L 322.1,180.7 L 325.8,180.1 L 329.6,178.9 L 333.3,177.8 L 337.0,177.5 L 340.7,177.5 L 344.5,176.3 L 348.2,176.3 L 351.9,176.3 L 355.7,174.5 L 359.4,174.2 L 363.1,173.9 L 366.9,173.9 L 370.6,173.6 L 374.3,172.4 L 378.1,171.9 L 381.8,171.0 L 385.5,171.0 L 389.3,170.7 L 393.0,169.5 L 396.7,168.6 L 400.5,168.6 L 404.2,168.3 L 407.9,167.7 L 411.7,165.7 L 415.4,165.1 L 419.1,164.2 L 422.9,164.2 L 426.6,163.6 L 430.3,163.3 L 434.1,163.0 L 437.8,162.7 L 441.5,162.4 L 445.3,162.4 L 449.0,162.1 L 452.7,161.8 L 456.5,160.9 L 460.2,159.8 L 463.9,159.5 L 467.7,158.6 L 471.4,158.6 L 475.1,157.4 L 478.9,157.1 L 482.6,157.1 L 486.3,157.1 L 490.1,156.2 L 493.8,155.9 L 497.5,155.9 L 501.3,155.9 L 505.0,155.6 L 508.7,154.4 L 512.4,154.2 L 516.2,153.3 L 519.9,152.7 L 523.6,152.7 L 527.4,151.8 L 531.1,151.2 L 534.8,151.2 L 538.6,150.9 L 542.3,149.4 L 546.0,148.0 L 549.8,147.7 L 553.5,147.1 L 557.2,145.9 L 561.0,145.9 L 564.7,145.3 L 568.4,143.8 L 572.2,141.2 L 575.9,140.3 L 579.6,140.3 L 583.4,140.3 L 587.1,140.3 L 590.8,140.3 L 594.6,139.1 L 598.3,138.2 L 602.0,138.2 L 605.8,138.2 L 609.5,138.2 L 613.2,137.3 L 617.0,137.3 L 620.7,136.5 L 624.4,135.6 L 628.2,135.3 L 631.9,135.0 L 635.6,134.4 L 639.4,134.4 L 643.1,133.5 L 646.8,132.3 L 650.6,131.4 L 654.3,129.7 L 658.0,129.1 L 661.8,128.8 L 665.5,128.5 L 669.2,127.9 L 673.0,127.6 L 676.7,126.1 L 680.4,125.2 L 684.1,123.8 L 687.9,123.5 L 691.6,123.5 L 695.3,123.2 L 699.1,122.0 L 702.8,121.7 L 706.5,121.4 L 710.3,121.1 L 714.0,119.9 L 717.7,119.6 L 721.5,118.2 L 725.2,117.3 L 728.9,117.0 L 732.7,115.2 L 736.4,115.2 L 740.1,115.2 L 743.9,115.2 L 747.6,114.6 L 751.3,114.6 L 755.1,114.3 L 758.8,114.3 L 762.5,114.0 L 766.3,113.7 L 770.0,113.4 L 770.0,340 Z" fill="url(#g5)" clip-path="url(#ca)"/>
<path d="M 72.0,242.6 L 75.7,240.0 L 79.5,239.7 L 83.2,238.5 L 86.9,237.9 L 90.7,235.0 L 94.4,233.2 L 98.1,232.3 L 101.9,230.8 L 105.6,229.1 L 109.3,228.2 L 113.1,227.9 L 116.8,227.0 L 120.5,226.4 L 124.3,226.1 L 128.0,225.2 L 131.7,224.4 L 135.5,223.5 L 139.2,222.6 L 142.9,221.4 L 146.7,220.5 L 150.4,219.6 L 154.1,218.8 L 157.9,217.0 L 161.6,216.4 L 165.3,216.4 L 169.0,214.3 L 172.8,213.7 L 176.5,213.2 L 180.2,212.6 L 184.0,211.1 L 187.7,209.0 L 191.4,208.7 L 195.2,208.4 L 198.9,206.7 L 202.6,206.1 L 206.4,204.6 L 210.1,204.3 L 213.8,204.0 L 217.6,203.4 L 221.3,203.4 L 225.0,203.4 L 228.8,199.3 L 232.5,199.0 L 236.2,198.1 L 240.0,197.8 L 243.7,197.5 L 247.4,196.6 L 251.2,196.0 L 254.9,195.4 L 258.6,193.7 L 262.4,193.7 L 266.1,193.7 L 269.8,193.4 L 273.6,190.4 L 277.3,189.6 L 281.0,189.0 L 284.8,188.1 L 288.5,187.5 L 292.2,187.5 L 296.0,186.0 L 299.7,183.9 L 303.4,183.4 L 307.2,183.1 L 310.9,182.2 L 314.6,182.2 L 318.4,181.6 L 322.1,180.7 L 325.8,180.1 L 329.6,178.9 L 333.3,177.8 L 337.0,177.5 L 340.7,177.5 L 344.5,176.3 L 348.2,176.3 L 351.9,176.3 L 355.7,174.5 L 359.4,174.2 L 363.1,173.9 L 366.9,173.9 L 370.6,173.6 L 374.3,172.4 L 378.1,171.9 L 381.8,171.0 L 385.5,171.0 L 389.3,170.7 L 393.0,169.5 L 396.7,168.6 L 400.5,168.6 L 404.2,168.3 L 407.9,167.7 L 411.7,165.7 L 415.4,165.1 L 419.1,164.2 L 422.9,164.2 L 426.6,163.6 L 430.3,163.3 L 434.1,163.0 L 437.8,162.7 L 441.5,162.4 L 445.3,162.4 L 449.0,162.1 L 452.7,161.8 L 456.5,160.9 L 460.2,159.8 L 463.9,159.5 L 467.7,158.6 L 471.4,158.6 L 475.1,157.4 L 478.9,157.1 L 482.6,157.1 L 486.3,157.1 L 490.1,156.2 L 493.8,155.9 L 497.5,155.9 L 501.3,155.9 L 505.0,155.6 L 508.7,154.4 L 512.4,154.2 L 516.2,153.3 L 519.9,152.7 L 523.6,152.7 L 527.4,151.8 L 531.1,151.2 L 534.8,151.2 L 538.6,150.9 L 542.3,149.4 L 546.0,148.0 L 549.8,147.7 L 553.5,147.1 L 557.2,145.9 L 561.0,145.9 L 564.7,145.3 L 568.4,143.8 L 572.2,141.2 L 575.9,140.3 L 579.6,140.3 L 583.4,140.3 L 587.1,140.3 L 590.8,140.3 L 594.6,139.1 L 598.3,138.2 L 602.0,138.2 L 605.8,138.2 L 609.5,138.2 L 613.2,137.3 L 617.0,137.3 L 620.7,136.5 L 624.4,135.6 L 628.2,135.3 L 631.9,135.0 L 635.6,134.4 L 639.4,134.4 L 643.1,133.5 L 646.8,132.3 L 650.6,131.4 L 654.3,129.7 L 658.0,129.1 L 661.8,128.8 L 665.5,128.5 L 669.2,127.9 L 673.0,127.6 L 676.7,126.1 L 680.4,125.2 L 684.1,123.8 L 687.9,123.5 L 691.6,123.5 L 695.3,123.2 L 699.1,122.0 L 702.8,121.7 L 706.5,121.4 L 710.3,121.1 L 714.0,119.9 L 717.7,119.6 L 721.5,118.2 L 725.2,117.3 L 728.9,117.0 L 732.7,115.2 L 736.4,115.2 L 740.1,115.2 L 743.9,115.2 L 747.6,114.6 L 751.3,114.6 L 755.1,114.3 L 758.8,114.3 L 762.5,114.0 L 766.3,113.7 L 770.0,113.4" fill="none" stroke="#34C759" stroke-width="2.5" stroke-linejoin="round" clip-path="url(#ca)"/>
<path d="M 72.0,340 L 72.0,222.6 L 75.7,222.6 L 79.5,222.3 L 83.2,221.4 L 86.9,221.7 L 90.7,221.7 L 94.4,220.5 L 98.1,219.6 L 101.9,219.6 L 105.6,219.9 L 109.3,219.6 L 113.1,219.3 L 116.8,219.1 L 120.5,219.1 L 124.3,219.1 L 128.0,219.3 L 131.7,218.8 L 135.5,218.2 L 139.2,216.4 L 142.9,215.2 L 146.7,215.2 L 150.4,214.9 L 154.1,213.2 L 157.9,210.5 L 161.6,209.6 L 165.3,209.0 L 169.0,207.0 L 172.8,205.5 L 176.5,204.9 L 180.2,204.3 L 184.0,203.7 L 187.7,203.4 L 191.4,203.4 L 195.2,201.3 L 198.9,200.8 L 202.6,200.2 L 206.4,200.2 L 210.1,198.7 L 213.8,198.4 L 217.6,197.5 L 221.3,196.3 L 225.0,194.9 L 228.8,192.8 L 232.5,190.7 L 236.2,190.4 L 240.0,189.8 L 243.7,189.3 L 247.4,187.5 L 251.2,187.5 L 254.9,186.9 L 258.6,186.0 L 262.4,185.4 L 266.1,184.2 L 269.8,184.5 L 273.6,181.0 L 277.3,180.7 L 281.0,180.4 L 284.8,179.8 L 288.5,178.0 L 292.2,178.0 L 296.0,176.3 L 299.7,174.2 L 303.4,174.2 L 307.2,174.2 L 310.9,173.9 L 314.6,173.6 L 318.4,173.3 L 322.1,171.9 L 325.8,170.1 L 329.6,169.5 L 333.3,168.3 L 337.0,168.3 L 340.7,167.4 L 344.5,165.7 L 348.2,164.8 L 351.9,164.5 L 355.7,162.4 L 359.4,162.1 L 363.1,162.1 L 366.9,161.8 L 370.6,161.8 L 374.3,160.3 L 378.1,159.8 L 381.8,158.9 L 385.5,158.6 L 389.3,158.0 L 393.0,155.6 L 396.7,152.4 L 400.5,152.1 L 404.2,151.5 L 407.9,151.2 L 411.7,149.7 L 415.4,118.5 L 419.1,117.9 L 422.9,116.4 L 426.6,116.4 L 430.3,116.4 L 434.1,116.7 L 437.8,116.4 L 441.5,114.6 L 445.3,114.0 L 449.0,113.7 L 452.7,113.4 L 456.5,112.3 L 460.2,110.5 L 463.9,110.5 L 467.7,110.5 L 471.4,110.2 L 475.1,109.9 L 478.9,109.9 L 482.6,109.3 L 486.3,108.4 L 490.1,106.9 L 493.8,106.4 L 497.5,106.1 L 501.3,106.1 L 505.0,105.8 L 508.7,105.2 L 512.4,104.9 L 516.2,103.4 L 519.9,103.4 L 523.6,102.8 L 527.4,101.6 L 531.1,100.2 L 534.8,99.9 L 538.6,99.6 L 542.3,96.9 L 546.0,96.3 L 549.8,95.7 L 553.5,95.7 L 557.2,94.6 L 561.0,94.0 L 564.7,92.5 L 568.4,91.9 L 572.2,91.0 L 575.9,90.7 L 579.6,89.5 L 583.4,88.7 L 587.1,88.4 L 590.8,87.8 L 594.6,86.6 L 598.3,86.0 L 602.0,85.1 L 605.8,84.5 L 609.5,84.2 L 613.2,83.6 L 617.0,82.8 L 620.7,82.2 L 624.4,81.6 L 628.2,80.7 L 631.9,80.7 L 635.6,80.1 L 639.4,78.6 L 643.1,77.2 L 646.8,76.3 L 650.6,76.6 L 654.3,76.0 L 658.0,75.7 L 661.8,75.4 L 665.5,74.8 L 669.2,73.3 L 673.0,73.3 L 676.7,73.0 L 680.4,72.1 L 684.1,71.3 L 687.9,70.1 L 691.6,69.5 L 695.3,69.5 L 699.1,68.6 L 702.8,68.0 L 706.5,67.4 L 710.3,66.5 L 714.0,65.9 L 717.7,65.9 L 721.5,65.6 L 725.2,66.2 L 728.9,65.6 L 732.7,64.2 L 736.4,63.3 L 740.1,62.7 L 743.9,62.1 L 747.6,60.9 L 751.3,58.9 L 755.1,58.6 L 758.8,58.0 L 762.5,57.1 L 766.3,57.1 L 770.0,56.2 L 770.0,340 Z" fill="url(#g6)" clip-path="url(#ca)"/>
<path d="M 72.0,222.6 L 75.7,222.6 L 79.5,222.3 L 83.2,221.4 L 86.9,221.7 L 90.7,221.7 L 94.4,220.5 L 98.1,219.6 L 101.9,219.6 L 105.6,219.9 L 109.3,219.6 L 113.1,219.3 L 116.8,219.1 L 120.5,219.1 L 124.3,219.1 L 128.0,219.3 L 131.7,218.8 L 135.5,218.2 L 139.2,216.4 L 142.9,215.2 L 146.7,215.2 L 150.4,214.9 L 154.1,213.2 L 157.9,210.5 L 161.6,209.6 L 165.3,209.0 L 169.0,207.0 L 172.8,205.5 L 176.5,204.9 L 180.2,204.3 L 184.0,203.7 L 187.7,203.4 L 191.4,203.4 L 195.2,201.3 L 198.9,200.8 L 202.6,200.2 L 206.4,200.2 L 210.1,198.7 L 213.8,198.4 L 217.6,197.5 L 221.3,196.3 L 225.0,194.9 L 228.8,192.8 L 232.5,190.7 L 236.2,190.4 L 240.0,189.8 L 243.7,189.3 L 247.4,187.5 L 251.2,187.5 L 254.9,186.9 L 258.6,186.0 L 262.4,185.4 L 266.1,184.2 L 269.8,184.5 L 273.6,181.0 L 277.3,180.7 L 281.0,180.4 L 284.8,179.8 L 288.5,178.0 L 292.2,178.0 L 296.0,176.3 L 299.7,174.2 L 303.4,174.2 L 307.2,174.2 L 310.9,173.9 L 314.6,173.6 L 318.4,173.3 L 322.1,171.9 L 325.8,170.1 L 329.6,169.5 L 333.3,168.3 L 337.0,168.3 L 340.7,167.4 L 344.5,165.7 L 348.2,164.8 L 351.9,164.5 L 355.7,162.4 L 359.4,162.1 L 363.1,162.1 L 366.9,161.8 L 370.6,161.8 L 374.3,160.3 L 378.1,159.8 L 381.8,158.9 L 385.5,158.6 L 389.3,158.0 L 393.0,155.6 L 396.7,152.4 L 400.5,152.1 L 404.2,151.5 L 407.9,151.2 L 411.7,149.7 L 415.4,118.5 L 419.1,117.9 L 422.9,116.4 L 426.6,116.4 L 430.3,116.4 L 434.1,116.7 L 437.8,116.4 L 441.5,114.6 L 445.3,114.0 L 449.0,113.7 L 452.7,113.4 L 456.5,112.3 L 460.2,110.5 L 463.9,110.5 L 467.7,110.5 L 471.4,110.2 L 475.1,109.9 L 478.9,109.9 L 482.6,109.3 L 486.3,108.4 L 490.1,106.9 L 493.8,106.4 L 497.5,106.1 L 501.3,106.1 L 505.0,105.8 L 508.7,105.2 L 512.4,104.9 L 516.2,103.4 L 519.9,103.4 L 523.6,102.8 L 527.4,101.6 L 531.1,100.2 L 534.8,99.9 L 538.6,99.6 L 542.3,96.9 L 546.0,96.3 L 549.8,95.7 L 553.5,95.7 L 557.2,94.6 L 561.0,94.0 L 564.7,92.5 L 568.4,91.9 L 572.2,91.0 L 575.9,90.7 L 579.6,89.5 L 583.4,88.7 L 587.1,88.4 L 590.8,87.8 L 594.6,86.6 L 598.3,86.0 L 602.0,85.1 L 605.8,84.5 L 609.5,84.2 L 613.2,83.6 L 617.0,82.8 L 620.7,82.2 L 624.4,81.6 L 628.2,80.7 L 631.9,80.7 L 635.6,80.1 L 639.4,78.6 L 643.1,77.2 L 646.8,76.3 L 650.6,76.6 L 654.3,76.0 L 658.0,75.7 L 661.8,75.4 L 665.5,74.8 L 669.2,73.3 L 673.0,73.3 L 676.7,73.0 L 680.4,72.1 L 684.1,71.3 L 687.9,70.1 L 691.6,69.5 L 695.3,69.5 L 699.1,68.6 L 702.8,68.0 L 706.5,67.4 L 710.3,66.5 L 714.0,65.9 L 717.7,65.9 L 721.5,65.6 L 725.2,66.2 L 728.9,65.6 L 732.7,64.2 L 736.4,63.3 L 740.1,62.7 L 743.9,62.1 L 747.6,60.9 L 751.3,58.9 L 755.1,58.6 L 758.8,58.0 L 762.5,57.1 L 766.3,57.1 L 770.0,56.2" fill="none" stroke="#4F8EF7" stroke-width="2.5" stroke-linejoin="round" clip-path="url(#ca)"/>
<path d="M 72.0,340 L 72.0,338.2 L 75.7,337.9 L 79.5,337.9 L 83.2,337.6 L 86.9,337.6 L 90.7,337.6 L 94.4,337.6 L 98.1,337.6 L 101.9,337.1 L 105.6,337.1 L 109.3,337.1 L 113.1,337.1 L 116.8,337.1 L 120.5,336.8 L 124.3,336.8 L 128.0,336.8 L 131.7,336.8 L 135.5,336.8 L 139.2,336.5 L 142.9,335.9 L 146.7,335.6 L 150.4,335.6 L 154.1,335.6 L 157.9,335.3 L 161.6,335.3 L 165.3,335.3 L 169.0,335.0 L 172.8,335.0 L 176.5,335.0 L 180.2,334.7 L 184.0,334.7 L 187.7,334.7 L 191.4,334.7 L 195.2,334.4 L 198.9,334.4 L 202.6,334.4 L 206.4,334.4 L 210.1,334.4 L 213.8,334.4 L 217.6,334.4 L 221.3,334.4 L 225.0,334.4 L 228.8,334.4 L 232.5,334.4 L 236.2,334.4 L 240.0,334.4 L 243.7,334.1 L 247.4,334.1 L 251.2,334.1 L 254.9,334.1 L 258.6,334.1 L 262.4,334.1 L 266.1,334.1 L 269.8,334.1 L 273.6,334.1 L 277.3,334.1 L 281.0,334.1 L 284.8,334.1 L 288.5,333.8 L 292.2,333.8 L 296.0,333.8 L 299.7,333.8 L 303.4,333.8 L 307.2,333.8 L 310.9,333.8 L 314.6,333.8 L 318.4,333.8 L 322.1,333.8 L 325.8,333.8 L 329.6,333.8 L 333.3,333.8 L 337.0,333.8 L 340.7,333.8 L 344.5,333.8 L 348.2,333.8 L 351.9,333.8 L 355.7,333.8 L 359.4,333.8 L 363.1,333.8 L 366.9,333.8 L 370.6,333.8 L 374.3,333.8 L 378.1,333.8 L 381.8,333.8 L 385.5,333.8 L 389.3,333.8 L 393.0,333.8 L 396.7,333.8 L 400.5,333.8 L 404.2,333.8 L 407.9,333.8 L 411.7,333.8 L 415.4,333.8 L 419.1,333.8 L 422.9,333.5 L 426.6,333.5 L 430.3,333.5 L 434.1,333.5 L 437.8,333.5 L 441.5,333.2 L 445.3,333.2 L 449.0,333.2 L 452.7,333.2 L 456.5,332.9 L 460.2,332.9 L 463.9,332.6 L 467.7,332.6 L 471.4,332.6 L 475.1,332.6 L 478.9,332.6 L 482.6,332.6 L 486.3,332.6 L 490.1,332.6 L 493.8,332.6 L 497.5,332.6 L 501.3,332.6 L 505.0,332.6 L 508.7,332.6 L 512.4,332.6 L 516.2,332.6 L 519.9,332.6 L 523.6,332.6 L 527.4,332.6 L 531.1,332.6 L 534.8,332.6 L 538.6,332.6 L 542.3,332.6 L 546.0,332.6 L 549.8,332.6 L 553.5,332.6 L 557.2,332.6 L 561.0,332.6 L 564.7,332.6 L 568.4,332.6 L 572.2,332.6 L 575.9,332.6 L 579.6,332.6 L 583.4,332.6 L 587.1,332.6 L 590.8,332.6 L 594.6,332.6 L 598.3,332.6 L 602.0,332.6 L 605.8,332.6 L 609.5,332.6 L 613.2,332.6 L 617.0,332.6 L 620.7,332.6 L 624.4,332.6 L 628.2,332.6 L 631.9,332.6 L 635.6,332.6 L 639.4,332.6 L 643.1,332.3 L 646.8,332.3 L 650.6,332.3 L 654.3,332.3 L 658.0,332.3 L 661.8,332.3 L 665.5,332.3 L 669.2,332.3 L 673.0,332.3 L 676.7,332.3 L 680.4,332.3 L 684.1,332.0 L 687.9,332.0 L 691.6,332.0 L 695.3,332.0 L 699.1,332.0 L 702.8,332.0 L 706.5,332.0 L 710.3,332.0 L 714.0,332.0 L 717.7,332.0 L 721.5,332.0 L 725.2,332.0 L 728.9,332.0 L 732.7,332.0 L 736.4,331.7 L 740.1,331.7 L 743.9,331.7 L 747.6,331.7 L 751.3,331.7 L 755.1,331.7 L 758.8,331.7 L 762.5,331.7 L 766.3,331.7 L 770.0,331.7 L 770.0,340 Z" fill="url(#g7)" clip-path="url(#ca)"/>
<path d="M 72.0,338.2 L 75.7,337.9 L 79.5,337.9 L 83.2,337.6 L 86.9,337.6 L 90.7,337.6 L 94.4,337.6 L 98.1,337.6 L 101.9,337.1 L 105.6,337.1 L 109.3,337.1 L 113.1,337.1 L 116.8,337.1 L 120.5,336.8 L 124.3,336.8 L 128.0,336.8 L 131.7,336.8 L 135.5,336.8 L 139.2,336.5 L 142.9,335.9 L 146.7,335.6 L 150.4,335.6 L 154.1,335.6 L 157.9,335.3 L 161.6,335.3 L 165.3,335.3 L 169.0,335.0 L 172.8,335.0 L 176.5,335.0 L 180.2,334.7 L 184.0,334.7 L 187.7,334.7 L 191.4,334.7 L 195.2,334.4 L 198.9,334.4 L 202.6,334.4 L 206.4,334.4 L 210.1,334.4 L 213.8,334.4 L 217.6,334.4 L 221.3,334.4 L 225.0,334.4 L 228.8,334.4 L 232.5,334.4 L 236.2,334.4 L 240.0,334.4 L 243.7,334.1 L 247.4,334.1 L 251.2,334.1 L 254.9,334.1 L 258.6,334.1 L 262.4,334.1 L 266.1,334.1 L 269.8,334.1 L 273.6,334.1 L 277.3,334.1 L 281.0,334.1 L 284.8,334.1 L 288.5,333.8 L 292.2,333.8 L 296.0,333.8 L 299.7,333.8 L 303.4,333.8 L 307.2,333.8 L 310.9,333.8 L 314.6,333.8 L 318.4,333.8 L 322.1,333.8 L 325.8,333.8 L 329.6,333.8 L 333.3,333.8 L 337.0,333.8 L 340.7,333.8 L 344.5,333.8 L 348.2,333.8 L 351.9,333.8 L 355.7,333.8 L 359.4,333.8 L 363.1,333.8 L 366.9,333.8 L 370.6,333.8 L 374.3,333.8 L 378.1,333.8 L 381.8,333.8 L 385.5,333.8 L 389.3,333.8 L 393.0,333.8 L 396.7,333.8 L 400.5,333.8 L 404.2,333.8 L 407.9,333.8 L 411.7,333.8 L 415.4,333.8 L 419.1,333.8 L 422.9,333.5 L 426.6,333.5 L 430.3,333.5 L 434.1,333.5 L 437.8,333.5 L 441.5,333.2 L 445.3,333.2 L 449.0,333.2 L 452.7,333.2 L 456.5,332.9 L 460.2,332.9 L 463.9,332.6 L 467.7,332.6 L 471.4,332.6 L 475.1,332.6 L 478.9,332.6 L 482.6,332.6 L 486.3,332.6 L 490.1,332.6 L 493.8,332.6 L 497.5,332.6 L 501.3,332.6 L 505.0,332.6 L 508.7,332.6 L 512.4,332.6 L 516.2,332.6 L 519.9,332.6 L 523.6,332.6 L 527.4,332.6 L 531.1,332.6 L 534.8,332.6 L 538.6,332.6 L 542.3,332.6 L 546.0,332.6 L 549.8,332.6 L 553.5,332.6 L 557.2,332.6 L 561.0,332.6 L 564.7,332.6 L 568.4,332.6 L 572.2,332.6 L 575.9,332.6 L 579.6,332.6 L 583.4,332.6 L 587.1,332.6 L 590.8,332.6 L 594.6,332.6 L 598.3,332.6 L 602.0,332.6 L 605.8,332.6 L 609.5,332.6 L 613.2,332.6 L 617.0,332.6 L 620.7,332.6 L 624.4,332.6 L 628.2,332.6 L 631.9,332.6 L 635.6,332.6 L 639.4,332.6 L 643.1,332.3 L 646.8,332.3 L 650.6,332.3 L 654.3,332.3 L 658.0,332.3 L 661.8,332.3 L 665.5,332.3 L 669.2,332.3 L 673.0,332.3 L 676.7,332.3 L 680.4,332.3 L 684.1,332.0 L 687.9,332.0 L 691.6,332.0 L 695.3,332.0 L 699.1,332.0 L 702.8,332.0 L 706.5,332.0 L 710.3,332.0 L 714.0,332.0 L 717.7,332.0 L 721.5,332.0 L 725.2,332.0 L 728.9,332.0 L 732.7,332.0 L 736.4,331.7 L 740.1,331.7 L 743.9,331.7 L 747.6,331.7 L 751.3,331.7 L 755.1,331.7 L 758.8,331.7 L 762.5,331.7 L 766.3,331.7 L 770.0,331.7" fill="none" stroke="#FF6363" stroke-width="2.5" stroke-linejoin="round" clip-path="url(#ca)"/>
<text x="92.5" y="55.0" text-anchor="middle" font-size="9" fill="#34C759" opacity="0.85" clip-path="url(#ca)">+15.2% (+50)</text>
<text x="92.5" y="66.0" text-anchor="middle" font-size="9" fill="#4F8EF7" opacity="0.85" clip-path="url(#ca)">+2.8% (+11)</text>
<text x="92.5" y="77.0" text-anchor="middle" font-size="9" fill="#FF6363" opacity="0.85" clip-path="url(#ca)">+66.7% (+4)</text>
<text x="163.4" y="55.0" text-anchor="middle" font-size="9" fill="#34C759" opacity="0.85" clip-path="url(#ca)">+20.1% (+77)</text>
<text x="163.4" y="66.0" text-anchor="middle" font-size="9" fill="#4F8EF7" opacity="0.85" clip-path="url(#ca)">+16.8% (+69)</text>
<text x="163.4" y="77.0" text-anchor="middle" font-size="9" fill="#FF6363" opacity="0.85" clip-path="url(#ca)">+90.0% (+9)</text>
<text x="262.4" y="55.0" text-anchor="middle" font-size="9" fill="#34C759" opacity="0.85" clip-path="url(#ca)">+16.1% (+74)</text>
<text x="262.4" y="66.0" text-anchor="middle" font-size="9" fill="#4F8EF7" opacity="0.85" clip-path="url(#ca)">+17.3% (+83)</text>
<text x="262.4" y="77.0" text-anchor="middle" font-size="9" fill="#FF6363" opacity="0.85" clip-path="url(#ca)">+10.5% (+2)</text>
<text x="363.1" y="55.0" text-anchor="middle" font-size="9" fill="#34C759" opacity="0.85" clip-path="url(#ca)">+10.5% (+56)</text>
<text x="363.1" y="66.0" text-anchor="middle" font-size="9" fill="#4F8EF7" opacity="0.85" clip-path="url(#ca)">+14.4% (+81)</text>
<text x="363.1" y="77.0" text-anchor="middle" font-size="9" fill="#FF6363" opacity="0.85" clip-path="url(#ca)">+0.0% (+0)</text>
<text x="463.9" y="55.0" text-anchor="middle" font-size="9" fill="#34C759" opacity="0.85" clip-path="url(#ca)">+6.2% (+37)</text>
<text x="463.9" y="66.0" text-anchor="middle" font-size="9" fill="#4F8EF7" opacity="0.85" clip-path="url(#ca)">+6.1% (+46)</text>
<text x="463.9" y="77.0" text-anchor="middle" font-size="9" fill="#FF6363" opacity="0.85" clip-path="url(#ca)">+19.0% (+4)</text>
<text x="562.8" y="55.0" text-anchor="middle" font-size="9" fill="#34C759" opacity="0.85" clip-path="url(#ca)">+8.1% (+51)</text>
<text x="562.8" y="66.0" text-anchor="middle" font-size="9" fill="#4F8EF7" opacity="0.85" clip-path="url(#ca)">+8.1% (+65)</text>
<text x="562.8" y="77.0" text-anchor="middle" font-size="9" fill="#FF6363" opacity="0.85" clip-path="url(#ca)">+0.0% (+0)</text>
<text x="656.2" y="55.0" text-anchor="middle" font-size="9" fill="#34C759" opacity="0.85" clip-path="url(#ca)">+7.6% (+52)</text>
<text x="656.2" y="66.0" text-anchor="middle" font-size="9" fill="#4F8EF7" opacity="0.85" clip-path="url(#ca)">+5.9% (+51)</text>
<text x="656.2" y="77.0" text-anchor="middle" font-size="9" fill="#FF6363" opacity="0.85" clip-path="url(#ca)">+8.0% (+2)</text>
<text x="736.4" y="55.0" text-anchor="middle" font-size="9" fill="#34C759" opacity="0.85" clip-path="url(#ca)">+3.8% (+28)</text>
<text x="736.4" y="66.0" text-anchor="middle" font-size="9" fill="#4F8EF7" opacity="0.85" clip-path="url(#ca)">+4.3% (+40)</text>
<text x="736.4" y="77.0" text-anchor="middle" font-size="9" fill="#FF6363" opacity="0.85" clip-path="url(#ca)">+3.7% (+1)</text>
<rect x="211" y="369" width="12" height="12" fill="#34C759" rx="2"/>
<text x="227" y="379" font-size="12" fill="#111827">macOS + Windows</text>
<rect x="351" y="369" width="12" height="12" fill="#4F8EF7" rx="2"/>
<text x="367" y="379" font-size="12" fill="#111827">macOS only</text>
<rect x="491" y="369" width="12" height="12" fill="#FF6363" rx="2"/>
<text x="507" y="379" font-size="12" fill="#111827">Windows only</text>
<text x="72" y="394" font-size="8" fill="#e5e7eb">data since Dec 11, 2025</text>
</svg>