<svg xmlns="http://www.w3.org/2000/svg" width="800" height="400" viewBox="0 0 800 400">
<defs>
  <style>text { font-family: -apple-system, BlinkMacSystemFont, 'Segoe UI', Roboto, sans-serif; }</style>
  <linearGradient id="g2" x1="0" y1="0" x2="0" y2="1">
  <stop offset="0%" stop-color="#4F8EF7" stop-opacity="0.25"/>
  <stop offset="100%" stop-color="#4F8EF7" stop-opacity="0"/>
</linearGradient>
<linearGradient id="g3" x1="0" y1="0" x2="0" y2="1">
  <stop offset="0%" stop-color="#BF5AF2" stop-opacity="0.25"/>
  <stop offset="100%" stop-color="#BF5AF2" stop-opacity="0"/>
</linearGradient>
<linearGradient id="g4" x1="0" y1="0" x2="0" y2="1">
  <stop offset="0%" stop-color="#34C759" stop-opacity="0.25"/>
  <stop offset="100%" stop-color="#34C759" stop-opacity="0"/>
</linearGradient>
  <clipPath id="ca"><rect x="72" y="45" width="698" height="295"/></clipPath>
</defs>
<rect width="800" height="400" fill="#ffffff" rx="12"/>
<text x="400" y="26" text-anchor="middle" font-size="15" font-weight="600" fill="#111827">Community Growth Over Time</text>
<line x1="72" y1="340.0" x2="770" y2="340.0" stroke="#f3f4f6" stroke-width="1"/>
<text x="66" y="344.0" text-anchor="end" font-size="11" fill="#6b7280">500</text>
<line x1="72" y1="241.7" x2="770" y2="241.7" stroke="#f3f4f6" stroke-width="1"/>
<text x="66" y="245.7" text-anchor="end" font-size="11" fill="#6b7280">1.0k</text>
<line x1="72" y1="143.3" x2="770" y2="143.3" stroke="#f3f4f6" stroke-width="1"/>
<text x="66" y="147.3" text-anchor="end" font-size="11" fill="#6b7280">1.5k</text>
<line x1="72" y1="45.0" x2="770" y2="45.0" stroke="#f3f4f6" stroke-width="1"/>
<text x="66" y="49.0" text-anchor="end" font-size="11" fill="#6b7280">2.0k</text>
<line x1="121.9" y1="45" x2="121.9" y2="340" stroke="#e5e7eb" stroke-width="1" stroke-dasharray="3,3" clip-path="url(#ca)"/>
<line x1="229.9" y1="45" x2="229.9" y2="340" stroke="#e5e7eb" stroke-width="1" stroke-dasharray="3,3" clip-path="url(#ca)"/>
<line x1="342.1" y1="45" x2="342.1" y2="340" stroke="#e5e7eb" stroke-width="1" stroke-dasharray="3,3" clip-path="url(#ca)"/>
<line x1="454.2" y1="45" x2="454.2" y2="340" stroke="#e5e7eb" stroke-width="1" stroke-dasharray="3,3" clip-path="url(#ca)"/>
<line x1="566.4" y1="45" x2="566.4" y2="340" stroke="#e5e7eb" stroke-width="1" stroke-dasharray="3,3" clip-path="url(#ca)"/>
<line x1="674.4" y1="45" x2="674.4" y2="340" stroke="#e5e7eb" stroke-width="1" stroke-dasharray="3,3" clip-path="url(#ca)"/>
<text x="72.0" y="358.0" text-anchor="middle" font-size="11" fill="#6b7280">Dec 11</text>
<text x="213.3" y="358.0" text-anchor="middle" font-size="11" fill="#6b7280">Jan 28</text>
<text x="350.4" y="358.0" text-anchor="middle" font-size="11" fill="#6b7280">Mar 3</text>
<text x="491.6" y="358.0" text-anchor="middle" font-size="11" fill="#6b7280">Apr 11</text>
<text x="628.7" y="358.0" text-anchor="middle" font-size="11" fill="#6b7280">May 21</text>
<text x="770.0" y="358.0" text-anchor="middle" font-size="11" fill="#6b7280">Jun 30</text>
<line x1="72" y1="45" x2="72" y2="340" stroke="#e5e7eb" stroke-width="1"/>
<line x1="72" y1="340" x2="770" y2="340" stroke="#e5e7eb" stroke-width="1"/>
<text x="-192.5" y="18" text-anchor="middle" font-size="12" fill="#6b7280" transform="rotate(-90)">People</text>
<path d="M 72.0,340 L 72.0,120.1 L 76.2,120.1 L 80.3,120.1 L 84.5,119.5 L 88.6,119.5 L 92.8,119.1 L 96.9,118.9 L 101.1,119.1 L 105.2,118.6 L 109.4,118.6 L 113.5,118.6 L 117.7,118.6 L 121.9,118.6 L 126.0,118.6 L 130.2,118.6 L 134.3,118.6 L 138.5,118.4 L 142.6,117.8 L 146.8,116.6 L 150.9,116.0 L 155.1,115.8 L 159.3,115.8 L 163.4,115.2 L 167.6,113.8 L 171.7,113.0 L 175.9,113.0 L 180.0,112.1 L 184.2,111.7 L 188.3,110.9 L 192.5,110.3 L 196.6,109.7 L 200.8,109.1 L 205.0,109.1 L 209.1,107.7 L 213.3,106.9 L 217.4,106.9 L 221.6,106.2 L 225.7,105.8 L 229.9,105.6 L 234.0,105.4 L 238.2,105.4 L 242.3,104.8 L 246.5,102.4 L 250.7,101.0 L 254.8,100.3 L 259.0,100.1 L 263.1,99.7 L 267.3,98.9 L 271.4,98.5 L 275.6,98.1 L 279.7,97.7 L 283.9,97.3 L 288.0,96.9 L 292.2,96.9 L 296.4,95.0 L 300.5,95.0 L 304.7,94.8 L 308.8,94.6 L 313.0,94.2 L 317.1,94.2 L 321.3,93.2 L 325.4,92.0 L 329.6,91.6 L 333.8,92.0 L 337.9,91.8 L 342.1,91.6 L 346.2,91.6 L 350.4,91.2 L 354.5,90.4 L 358.7,90.0 L 362.8,89.6 L 367.0,89.4 L 371.1,89.4 L 375.3,88.7 L 379.5,88.3 L 383.6,88.3 L 387.8,86.7 L 391.9,86.7 L 396.1,86.7 L 400.2,86.7 L 404.4,86.5 L 408.5,85.9 L 412.7,85.1 L 416.8,84.7 L 421.0,84.7 L 425.2,84.3 L 429.3,82.8 L 433.5,81.8 L 437.6,81.6 L 441.8,81.4 L 445.9,80.8 L 450.1,79.6 L 454.2,79.2 L 458.4,78.8 L 462.5,77.6 L 466.7,77.4 L 470.9,77.4 L 475.0,77.4 L 479.2,77.3 L 483.3,76.1 L 487.5,75.9 L 491.6,75.7 L 495.8,75.7 L 499.9,75.3 L 504.1,73.7 L 508.3,73.5 L 512.4,73.3 L 516.6,73.3 L 520.7,72.5 L 524.9,72.3 L 529.0,72.1 L 533.2,71.6 L 537.3,70.8 L 541.5,70.8 L 545.6,70.8 L 549.8,70.8 L 554.0,70.4 L 558.1,69.8 L 562.3,69.6 L 566.4,69.0 L 570.6,68.8 L 574.7,68.6 L 578.9,67.8 L 583.0,67.2 L 587.2,67.0 L 591.3,67.0 L 595.5,65.3 L 599.7,64.7 L 603.8,64.5 L 608.0,64.5 L 612.1,63.5 L 616.3,63.5 L 620.4,62.9 L 624.6,62.3 L 628.7,60.9 L 632.9,60.7 L 637.0,60.5 L 641.2,60.3 L 645.4,60.3 L 649.5,60.1 L 653.7,59.2 L 657.8,58.6 L 662.0,58.6 L 666.1,58.4 L 670.3,58.4 L 674.4,57.8 L 678.6,57.6 L 682.8,57.4 L 686.9,56.8 L 691.1,56.0 L 695.2,56.0 L 699.4,55.8 L 703.5,55.6 L 707.7,54.6 L 711.8,53.3 L 716.0,53.1 L 720.1,52.7 L 724.3,52.3 L 728.5,52.1 L 732.6,51.5 L 736.8,50.7 L 740.9,50.5 L 745.1,49.9 L 749.2,49.5 L 753.4,48.5 L 757.5,48.3 L 761.7,47.9 L 765.8,47.9 L 770.0,47.6 L 770.0,340 Z" fill="url(#g2)" clip-path="url(#ca)"/>
<path d="M 72.0,120.1 L 76.2,120.1 L 80.3,120.1 L 84.5,119.5 L 88.6,119.5 L 92.8,119.1 L 96.9,118.9 L 101.1,119.1 L 105.2,118.6 L 109.4,118.6 L 113.5,118.6 L 117.7,118.6 L 121.9,118.6 L 126.0,118.6 L 130.2,118.6 L 134.3,118.6 L 138.5,118.4 L 142.6,117.8 L 146.8,116.6 L 150.9,116.0 L 155.1,115.8 L 159.3,115.8 L 163.4,115.2 L 167.6,113.8 L 171.7,113.0 L 175.9,113.0 L 180.0,112.1 L 184.2,111.7 L 188.3,110.9 L 192.5,110.3 L 196.6,109.7 L 200.8,109.1 L 205.0,109.1 L 209.1,107.7 L 213.3,106.9 L 217.4,106.9 L 221.6,106.2 L 225.7,105.8 L 229.9,105.6 L 234.0,105.4 L 238.2,105.4 L 242.3,104.8 L 246.5,102.4 L 250.7,101.0 L 254.8,100.3 L 259.0,100.1 L 263.1,99.7 L 267.3,98.9 L 271.4,98.5 L 275.6,98.1 L 279.7,97.7 L 283.9,97.3 L 288.0,96.9 L 292.2,96.9 L 296.4,95.0 L 300.5,95.0 L 304.7,94.8 L 308.8,94.6 L 313.0,94.2 L 317.1,94.2 L 321.3,93.2 L 325.4,92.0 L 329.6,91.6 L 333.8,92.0 L 337.9,91.8 L 342.1,91.6 L 346.2,91.6 L 350.4,91.2 L 354.5,90.4 L 358.7,90.0 L 362.8,89.6 L 367.0,89.4 L 371.1,89.4 L 375.3,88.7 L 379.5,88.3 L 383.6,88.3 L 387.8,86.7 L 391.9,86.7 L 396.1,86.7 L 400.2,86.7 L 404.4,86.5 L 408.5,85.9 L 412.7,85.1 L 416.8,84.7 L 421.0,84.7 L 425.2,84.3 L 429.3,82.8 L 433.5,81.8 L 437.6,81.6 L 441.8,81.4 L 445.9,80.8 L 450.1,79.6 L 454.2,79.2 L 458.4,78.8 L 462.5,77.6 L 466.7,77.4 L 470.9,77.4 L 475.0,77.4 L 479.2,77.3 L 483.3,76.1 L 487.5,75.9 L 491.6,75.7 L 495.8,75.7 L 499.9,75.3 L 504.1,73.7 L 508.3,73.5 L 512.4,73.3 L 516.6,73.3 L 520.7,72.5 L 524.9,72.3 L 529.0,72.1 L 533.2,71.6 L 537.3,70.8 L 541.5,70.8 L 545.6,70.8 L 549.8,70.8 L 554.0,70.4 L 558.1,69.8 L 562.3,69.6 L 566.4,69.0 L 570.6,68.8 L 574.7,68.6 L 578.9,67.8 L 583.0,67.2 L 587.2,67.0 L 591.3,67.0 L 595.5,65.3 L 599.7,64.7 L 603.8,64.5 L 608.0,64.5 L 612.1,63.5 L 616.3,63.5 L 620.4,62.9 L 624.6,62.3 L 628.7,60.9 L 632.9,60.7 L 637.0,60.5 L 641.2,60.3 L 645.4,60.3 L 649.5,60.1 L 653.7,59.2 L 657.8,58.6 L 662.0,58.6 L 666.1,58.4 L 670.3,58.4 L 674.4,57.8 L 678.6,57.6 L 682.8,57.4 L 686.9,56.8 L 691.1,56.0 L 695.2,56.0 L 699.4,55.8 L 703.5,55.6 L 707.7,54.6 L 711.8,53.3 L 716.0,53.1 L 720.1,52.7 L 724.3,52.3 L 728.5,52.1 L 732.6,51.5 L 736.8,50.7 L 740.9,50.5 L 745.1,49.9 L 749.2,49.5 L 753.4,48.5 L 757.5,48.3 L 761.7,47.9 L 765.8,47.9 L 770.0,47.6" fill="none" stroke="#4F8EF7" stroke-width="2.5" stroke-linejoin="round" clip-path="url(#ca)"/>
<path d="M 72.0,340 L 72.0,244.2 L 76.2,243.6 L 80.3,243.6 L 84.5,243.6 L 88.6,243.4 L 92.8,243.0 L 96.9,242.8 L 101.1,242.6 L 105.2,242.6 L 109.4,242.5 L 113.5,242.3 L 117.7,242.3 L 121.9,242.3 L 126.0,242.3 L 130.2,242.3 L 134.3,242.3 L 138.5,241.9 L 142.6,241.9 L 146.8,241.9 L 150.9,241.1 L 155.1,240.9 L 159.3,240.5 L 163.4,239.7 L 167.6,239.5 L 171.7,239.5 L 175.9,239.5 L 180.0,238.9 L 184.2,238.5 L 188.3,238.5 L 192.5,238.1 L 196.6,237.9 L 200.8,237.5 L 205.0,237.5 L 209.1,237.3 L 213.3,236.6 L 217.4,236.0 L 221.6,235.6 L 225.7,235.4 L 229.9,235.4 L 234.0,235.2 L 238.2,234.8 L 242.3,234.8 L 246.5,234.6 L 250.7,234.0 L 254.8,233.6 L 259.0,233.6 L 263.1,233.6 L 267.3,233.6 L 271.4,233.4 L 275.6,232.8 L 279.7,232.4 L 283.9,232.2 L 288.0,232.0 L 292.2,231.8 L 296.4,231.6 L 300.5,231.4 L 304.7,231.2 L 308.8,230.7 L 313.0,230.5 L 317.1,230.3 L 321.3,229.5 L 325.4,228.7 L 329.6,228.7 L 333.8,228.5 L 337.9,228.3 L 342.1,228.3 L 346.2,228.3 L 350.4,227.9 L 354.5,227.9 L 358.7,226.7 L 362.8,226.5 L 367.0,226.3 L 371.1,226.3 L 375.3,225.9 L 379.5,225.7 L 383.6,225.7 L 387.8,225.5 L 391.9,225.5 L 396.1,225.5 L 400.2,225.1 L 404.4,224.9 L 408.5,224.0 L 412.7,224.2 L 416.8,224.0 L 421.0,223.8 L 425.2,223.8 L 429.3,223.6 L 433.5,223.0 L 437.6,223.0 L 441.8,223.0 L 445.9,223.0 L 450.1,222.6 L 454.2,222.6 L 458.4,222.2 L 462.5,221.8 L 466.7,221.0 L 470.9,221.0 L 475.0,220.6 L 479.2,220.4 L 483.3,220.2 L 487.5,220.0 L 491.6,219.6 L 495.8,219.6 L 499.9,219.1 L 504.1,219.1 L 508.3,218.9 L 512.4,218.5 L 516.6,218.3 L 520.7,218.3 L 524.9,218.3 L 529.0,218.3 L 533.2,218.3 L 537.3,217.7 L 541.5,217.7 L 545.6,217.3 L 549.8,216.9 L 554.0,216.3 L 558.1,216.1 L 562.3,216.1 L 566.4,214.9 L 570.6,214.7 L 574.7,214.7 L 578.9,213.9 L 583.0,213.9 L 587.2,213.5 L 591.3,213.5 L 595.5,213.3 L 599.7,213.3 L 603.8,213.2 L 608.0,212.8 L 612.1,212.8 L 616.3,212.6 L 620.4,212.4 L 624.6,212.2 L 628.7,212.0 L 632.9,212.0 L 637.0,211.6 L 641.2,211.6 L 645.4,211.6 L 649.5,210.6 L 653.7,210.6 L 657.8,210.6 L 662.0,210.6 L 666.1,210.6 L 670.3,210.6 L 674.4,210.2 L 678.6,210.2 L 682.8,209.8 L 686.9,209.0 L 691.1,208.6 L 695.2,208.4 L 699.4,208.4 L 703.5,208.2 L 707.7,207.6 L 711.8,207.4 L 716.0,207.4 L 720.1,207.1 L 724.3,206.5 L 728.5,206.1 L 732.6,206.1 L 736.8,205.9 L 740.9,205.9 L 745.1,205.3 L 749.2,205.1 L 753.4,205.1 L 757.5,204.7 L 761.7,204.7 L 765.8,204.3 L 770.0,203.7 L 770.0,340 Z" fill="url(#g3)" clip-path="url(#ca)"/>
<path d="M 72.0,244.2 L 76.2,243.6 L 80.3,243.6 L 84.5,243.6 L 88.6,243.4 L 92.8,243.0 L 96.9,242.8 L 101.1,242.6 L 105.2,242.6 L 109.4,242.5 L 113.5,242.3 L 117.7,242.3 L 121.9,242.3 L 126.0,242.3 L 130.2,242.3 L 134.3,242.3 L 138.5,241.9 L 142.6,241.9 L 146.8,241.9 L 150.9,241.1 L 155.1,240.9 L 159.3,240.5 L 163.4,239.7 L 167.6,239.5 L 171.7,239.5 L 175.9,239.5 L 180.0,238.9 L 184.2,238.5 L 188.3,238.5 L 192.5,238.1 L 196.6,237.9 L 200.8,237.5 L 205.0,237.5 L 209.1,237.3 L 213.3,236.6 L 217.4,236.0 L 221.6,235.6 L 225.7,235.4 L 229.9,235.4 L 234.0,235.2 L 238.2,234.8 L 242.3,234.8 L 246.5,234.6 L 250.7,234.0 L 254.8,233.6 L 259.0,233.6 L 263.1,233.6 L 267.3,233.6 L 271.4,233.4 L 275.6,232.8 L 279.7,232.4 L 283.9,232.2 L 288.0,232.0 L 292.2,231.8 L 296.4,231.6 L 300.5,231.4 L 304.7,231.2 L 308.8,230.7 L 313.0,230.5 L 317.1,230.3 L 321.3,229.5 L 325.4,228.7 L 329.6,228.7 L 333.8,228.5 L 337.9,228.3 L 342.1,228.3 L 346.2,228.3 L 350.4,227.9 L 354.5,227.9 L 358.7,226.7 L 362.8,226.5 L 367.0,226.3 L 371.1,226.3 L 375.3,225.9 L 379.5,225.7 L 383.6,225.7 L 387.8,225.5 L 391.9,225.5 L 396.1,225.5 L 400.2,225.1 L 404.4,224.9 L 408.5,224.0 L 412.7,224.2 L 416.8,224.0 L 421.0,223.8 L 425.2,223.8 L 429.3,223.6 L 433.5,223.0 L 437.6,223.0 L 441.8,223.0 L 445.9,223.0 L 450.1,222.6 L 454.2,222.6 L 458.4,222.2 L 462.5,221.8 L 466.7,221.0 L 470.9,221.0 L 475.0,220.6 L 479.2,220.4 L 483.3,220.2 L 487.5,220.0 L 491.6,219.6 L 495.8,219.6 L 499.9,219.1 L 504.1,219.1 L 508.3,218.9 L 512.4,218.5 L 516.6,218.3 L 520.7,218.3 L 524.9,218.3 L 529.0,218.3 L 533.2,218.3 L 537.3,217.7 L 541.5,217.7 L 545.6,217.3 L 549.8,216.9 L 554.0,216.3 L 558.1,216.1 L 562.3,216.1 L 566.4,214.9 L 570.6,214.7 L 574.7,214.7 L 578.9,213.9 L 583.0,213.9 L 587.2,213.5 L 591.3,213.5 L 595.5,213.3 L 599.7,213.3 L 603.8,213.2 L 608.0,212.8 L 612.1,212.8 L 616.3,212.6 L 620.4,212.4 L 624.6,212.2 L 628.7,212.0 L 632.9,212.0 L 637.0,211.6 L 641.2,211.6 L 645.4,211.6 L 649.5,210.6 L 653.7,210.6 L 657.8,210.6 L 662.0,210.6 L 666.1,210.6 L 670.3,210.6 L 674.4,210.2 L 678.6,210.2 L 682.8,209.8 L 686.9,209.0 L 691.1,208.6 L 695.2,208.4 L 699.4,208.4 L 703.5,208.2 L 707.7,207.6 L 711.8,207.4 L 716.0,207.4 L 720.1,207.1 L 724.3,206.5 L 728.5,206.1 L 732.6,206.1 L 736.8,205.9 L 740.9,205.9 L 745.1,205.3 L 749.2,205.1 L 753.4,205.1 L 757.5,204.7 L 761.7,204.7 L 765.8,204.3 L 770.0,203.7" fill="none" stroke="#BF5AF2" stroke-width="2.5" stroke-linejoin="round" clip-path="url(#ca)"/>
<path d="M 72.0,340 L 72.0,291.4 L 76.2,290.8 L 80.3,290.8 L 84.5,290.8 L 88.6,290.6 L 92.8,290.2 L 96.9,290.0 L 101.1,289.7 L 105.2,289.7 L 109.4,289.5 L 113.5,289.3 L 117.7,289.3 L 121.9,289.3 L 126.0,289.3 L 130.2,289.3 L 134.3,289.3 L 138.5,288.9 L 142.6,288.9 L 146.8,289.1 L 150.9,288.5 L 155.1,288.7 L 159.3,288.1 L 163.4,287.5 L 167.6,287.3 L 171.7,287.5 L 175.9,287.5 L 180.0,286.9 L 184.2,286.7 L 188.3,286.7 L 192.5,286.3 L 196.6,286.1 L 200.8,285.7 L 205.0,285.7 L 209.1,285.5 L 213.3,284.9 L 217.4,284.3 L 221.6,283.9 L 225.7,283.9 L 229.9,283.9 L 234.0,283.8 L 238.2,283.4 L 242.3,283.4 L 246.5,283.2 L 250.7,282.6 L 254.8,282.4 L 259.0,282.4 L 263.1,282.4 L 267.3,282.4 L 271.4,282.2 L 275.6,281.6 L 279.7,281.4 L 283.9,281.2 L 288.0,281.0 L 292.2,281.0 L 296.4,280.8 L 300.5,280.8 L 304.7,280.8 L 308.8,280.2 L 313.0,280.2 L 317.1,280.2 L 321.3,279.8 L 325.4,279.2 L 329.6,279.2 L 333.8,279.0 L 337.9,278.8 L 342.1,278.8 L 346.2,278.8 L 350.4,278.4 L 354.5,278.4 L 358.7,277.3 L 362.8,277.1 L 367.0,276.9 L 371.1,276.9 L 375.3,276.7 L 379.5,276.7 L 383.6,276.7 L 387.8,276.7 L 391.9,276.7 L 396.1,276.7 L 400.2,276.3 L 404.4,276.1 L 408.5,275.1 L 412.7,275.3 L 416.8,275.3 L 421.0,275.1 L 425.2,275.1 L 429.3,275.1 L 433.5,274.7 L 437.6,274.7 L 441.8,274.7 L 445.9,274.7 L 450.1,274.7 L 454.2,274.7 L 458.4,274.5 L 462.5,274.5 L 466.7,273.7 L 470.9,273.7 L 475.0,273.5 L 479.2,273.3 L 483.3,273.1 L 487.5,272.9 L 491.6,272.5 L 495.8,272.5 L 499.9,272.0 L 504.1,272.0 L 508.3,271.8 L 512.4,271.6 L 516.6,271.6 L 520.7,271.6 L 524.9,271.6 L 529.0,271.6 L 533.2,271.6 L 537.3,271.0 L 541.5,271.0 L 545.6,270.6 L 549.8,270.2 L 554.0,269.6 L 558.1,269.4 L 562.3,269.4 L 566.4,268.4 L 570.6,268.2 L 574.7,268.2 L 578.9,267.6 L 583.0,267.6 L 587.2,267.4 L 591.3,267.4 L 595.5,267.6 L 599.7,267.8 L 603.8,267.6 L 608.0,267.2 L 612.1,267.4 L 616.3,267.2 L 620.4,267.0 L 624.6,267.0 L 628.7,267.0 L 632.9,267.0 L 637.0,266.6 L 641.2,266.6 L 645.4,266.6 L 649.5,265.9 L 653.7,265.9 L 657.8,265.9 L 662.0,265.9 L 666.1,265.9 L 670.3,265.9 L 674.4,265.5 L 678.6,265.5 L 682.8,265.1 L 686.9,264.3 L 691.1,264.1 L 695.2,264.1 L 699.4,264.1 L 703.5,264.1 L 707.7,263.7 L 711.8,263.5 L 716.0,263.5 L 720.1,263.3 L 724.3,262.7 L 728.5,262.3 L 732.6,262.3 L 736.8,262.1 L 740.9,262.1 L 745.1,261.9 L 749.2,261.7 L 753.4,261.7 L 757.5,261.5 L 761.7,261.5 L 765.8,261.1 L 770.0,260.5 L 770.0,340 Z" fill="url(#g4)" clip-path="url(#ca)"/>
<path d="M 72.0,291.4 L 76.2,290.8 L 80.3,290.8 L 84.5,290.8 L 88.6,290.6 L 92.8,290.2 L 96.9,290.0 L 101.1,289.7 L 105.2,289.7 L 109.4,289.5 L 113.5,289.3 L 117.7,289.3 L 121.9,289.3 L 126.0,289.3 L 130.2,289.3 L 134.3,289.3 L 138.5,288.9 L 142.6,288.9 L 146.8,289.1 L 150.9,288.5 L 155.1,288.7 L 159.3,288.1 L 163.4,287.5 L 167.6,287.3 L 171.7,287.5 L 175.9,287.5 L 180.0,286.9 L 184.2,286.7 L 188.3,286.7 L 192.5,286.3 L 196.6,286.1 L 200.8,285.7 L 205.0,285.7 L 209.1,285.5 L 213.3,284.9 L 217.4,284.3 L 221.6,283.9 L 225.7,283.9 L 229.9,283.9 L 234.0,283.8 L 238.2,283.4 L 242.3,283.4 L 246.5,283.2 L 250.7,282.6 L 254.8,282.4 L 259.0,282.4 L 263.1,282.4 L 267.3,282.4 L 271.4,282.2 L 275.6,281.6 L 279.7,281.4 L 283.9,281.2 L 288.0,281.0 L 292.2,281.0 L 296.4,280.8 L 300.5,280.8 L 304.7,280.8 L 308.8,280.2 L 313.0,280.2 L 317.1,280.2 L 321.3,279.8 L 325.4,279.2 L 329.6,279.2 L 333.8,279.0 L 337.9,278.8 L 342.1,278.8 L 346.2,278.8 L 350.4,278.4 L 354.5,278.4 L 358.7,277.3 L 362.8,277.1 L 367.0,276.9 L 371.1,276.9 L 375.3,276.7 L 379.5,276.7 L 383.6,276.7 L 387.8,276.7 L 391.9,276.7 L 396.1,276.7 L 400.2,276.3 L 404.4,276.1 L 408.5,275.1 L 412.7,275.3 L 416.8,275.3 L 421.0,275.1 L 425.2,275.1 L 429.3,275.1 L 433.5,274.7 L 437.6,274.7 L 441.8,274.7 L 445.9,274.7 L 450.1,274.7 L 454.2,274.7 L 458.4,274.5 L 462.5,274.5 L 466.7,273.7 L 470.9,273.7 L 475.0,273.5 L 479.2,273.3 L 483.3,273.1 L 487.5,272.9 L 491.6,272.5 L 495.8,272.5 L 499.9,272.0 L 504.1,272.0 L 508.3,271.8 L 512.4,271.6 L 516.6,271.6 L 520.7,271.6 L 524.9,271.6 L 529.0,271.6 L 533.2,271.6 L 537.3,271.0 L 541.5,271.0 L 545.6,270.6 L 549.8,270.2 L 554.0,269.6 L 558.1,269.4 L 562.3,269.4 L 566.4,268.4 L 570.6,268.2 L 574.7,268.2 L 578.9,267.6 L 583.0,267.6 L 587.2,267.4 L 591.3,267.4 L 595.5,267.6 L 599.7,267.8 L 603.8,267.6 L 608.0,267.2 L 612.1,267.4 L 616.3,267.2 L 620.4,267.0 L 624.6,267.0 L 628.7,267.0 L 632.9,267.0 L 637.0,266.6 L 641.2,266.6 L 645.4,266.6 L 649.5,265.9 L 653.7,265.9 L 657.8,265.9 L 662.0,265.9 L 666.1,265.9 L 670.3,265.9 L 674.4,265.5 L 678.6,265.5 L 682.8,265.1 L 686.9,264.3 L 691.1,264.1 L 695.2,264.1 L 699.4,264.1 L 703.5,264.1 L 707.7,263.7 L 711.8,263.5 L 716.0,263.5 L 720.1,263.3 L 724.3,262.7 L 728.5,262.3 L 732.6,262.3 L 736.8,262.1 L 740.9,262.1 L 745.1,261.9 L 749.2,261.7 L 753.4,261.7 L 757.5,261.5 L 761.7,261.5 L 765.8,261.1 L 770.0,260.5" fill="none" stroke="#34C759" stroke-width="2.5" stroke-linejoin="round" clip-path="url(#ca)"/>
<text x="94.9" y="55.0" text-anchor="middle" font-size="9" fill="#4F8EF7" opacity="0.85" clip-path="url(#ca)">+0.5% (+8)</text>
<text x="94.9" y="66.0" text-anchor="middle" font-size="9" fill="#BF5AF2" opacity="0.85" clip-path="url(#ca)">+1.0% (+10)</text>
<text x="94.9" y="77.0" text-anchor="middle" font-size="9" fill="#34C759" opacity="0.85" clip-path="url(#ca)">+1.5% (+11)</text>
<text x="173.8" y="55.0" text-anchor="middle" font-size="9" fill="#4F8EF7" opacity="0.85" clip-path="url(#ca)">+4.0% (+65)</text>
<text x="173.8" y="66.0" text-anchor="middle" font-size="9" fill="#BF5AF2" opacity="0.85" clip-path="url(#ca)">+3.5% (+35)</text>
<text x="173.8" y="77.0" text-anchor="middle" font-size="9" fill="#34C759" opacity="0.85" clip-path="url(#ca)">+3.6% (+27)</text>
<text x="283.9" y="55.0" text-anchor="middle" font-size="9" fill="#4F8EF7" opacity="0.85" clip-path="url(#ca)">+4.1% (+70)</text>
<text x="283.9" y="66.0" text-anchor="middle" font-size="9" fill="#BF5AF2" opacity="0.85" clip-path="url(#ca)">+3.5% (+36)</text>
<text x="283.9" y="77.0" text-anchor="middle" font-size="9" fill="#34C759" opacity="0.85" clip-path="url(#ca)">+3.3% (+26)</text>
<text x="396.1" y="55.0" text-anchor="middle" font-size="9" fill="#4F8EF7" opacity="0.85" clip-path="url(#ca)">+3.5% (+61)</text>
<text x="396.1" y="66.0" text-anchor="middle" font-size="9" fill="#BF5AF2" opacity="0.85" clip-path="url(#ca)">+2.7% (+29)</text>
<text x="396.1" y="77.0" text-anchor="middle" font-size="9" fill="#34C759" opacity="0.85" clip-path="url(#ca)">+2.6% (+21)</text>
<text x="508.3" y="55.0" text-anchor="middle" font-size="9" fill="#4F8EF7" opacity="0.85" clip-path="url(#ca)">+2.7% (+49)</text>
<text x="508.3" y="66.0" text-anchor="middle" font-size="9" fill="#BF5AF2" opacity="0.85" clip-path="url(#ca)">+3.0% (+33)</text>
<text x="508.3" y="77.0" text-anchor="middle" font-size="9" fill="#34C759" opacity="0.85" clip-path="url(#ca)">+3.2% (+27)</text>
<text x="618.4" y="55.0" text-anchor="middle" font-size="9" fill="#4F8EF7" opacity="0.85" clip-path="url(#ca)">+2.9% (+54)</text>
<text x="618.4" y="66.0" text-anchor="middle" font-size="9" fill="#BF5AF2" opacity="0.85" clip-path="url(#ca)">+1.9% (+22)</text>
<text x="618.4" y="77.0" text-anchor="middle" font-size="9" fill="#34C759" opacity="0.85" clip-path="url(#ca)">+1.5% (+13)</text>
<text x="722.2" y="55.0" text-anchor="middle" font-size="9" fill="#4F8EF7" opacity="0.85" clip-path="url(#ca)">+2.7% (+52)</text>
<text x="722.2" y="66.0" text-anchor="middle" font-size="9" fill="#BF5AF2" opacity="0.85" clip-path="url(#ca)">+2.8% (+33)</text>
<text x="722.2" y="77.0" text-anchor="middle" font-size="9" fill="#34C759" opacity="0.85" clip-path="url(#ca)">+2.8% (+25)</text>
<rect x="211" y="369" width="12" height="12" fill="#4F8EF7" rx="2"/>
<text x="227" y="379" font-size="12" fill="#111827">Authors</text>
<rect x="351" y="369" width="12" height="12" fill="#BF5AF2" rx="2"/>
<text x="367" y="379" font-size="12" fill="#111827">Contributors</text>
<rect x="491" y="369" width="12" height="12" fill="#34C759" rx="2"/>
<text x="507" y="379" font-size="12" fill="#111827">Non-author contributors</text>
<text x="72" y="394" font-size="8" fill="#e5e7eb">data since Dec 11, 2025</text>
</svg>