<svg xmlns="http://www.w3.org/2000/svg" width="800" height="400" viewBox="0 0 800 400">
<defs>
  <style>text { font-family: -apple-system, BlinkMacSystemFont, 'Segoe UI', Roboto, sans-serif; }</style>
  <linearGradient id="g5" x1="0" y1="0" x2="0" y2="1">
  <stop offset="0%" stop-color="#34C759" stop-opacity="0.25"/>
  <stop offset="100%" stop-color="#34C759" stop-opacity="0"/>
</linearGradient>
<linearGradient id="g6" x1="0" y1="0" x2="0" y2="1">
  <stop offset="0%" stop-color="#4F8EF7" stop-opacity="0.25"/>
  <stop offset="100%" stop-color="#4F8EF7" stop-opacity="0"/>
</linearGradient>
<linearGradient id="g7" x1="0" y1="0" x2="0" y2="1">
  <stop offset="0%" stop-color="#FF6363" stop-opacity="0.25"/>
  <stop offset="100%" stop-color="#FF6363" stop-opacity="0"/>
</linearGradient>
  <clipPath id="ca"><rect x="72" y="45" width="698" height="295"/></clipPath>
</defs>
<rect width="800" height="400" fill="#ffffff" rx="12"/>
<text x="400" y="26" text-anchor="middle" font-size="15" font-weight="600" fill="#111827">Platform Support Over Time</text>
<line x1="72" y1="340.0" x2="770" y2="340.0" stroke="#f3f4f6" stroke-width="1"/>
<text x="66" y="344.0" text-anchor="end" font-size="11" fill="#6b7280">0</text>
<line x1="72" y1="281.0" x2="770" y2="281.0" stroke="#f3f4f6" stroke-width="1"/>
<text x="66" y="285.0" text-anchor="end" font-size="11" fill="#6b7280">200</text>
<line x1="72" y1="222.0" x2="770" y2="222.0" stroke="#f3f4f6" stroke-width="1"/>
<text x="66" y="226.0" text-anchor="end" font-size="11" fill="#6b7280">400</text>
<line x1="72" y1="163.0" x2="770" y2="163.0" stroke="#f3f4f6" stroke-width="1"/>
<text x="66" y="167.0" text-anchor="end" font-size="11" fill="#6b7280">600</text>
<line x1="72" y1="104.0" x2="770" y2="104.0" stroke="#f3f4f6" stroke-width="1"/>
<text x="66" y="108.0" text-anchor="end" font-size="11" fill="#6b7280">800</text>
<line x1="72" y1="45.0" x2="770" y2="45.0" stroke="#f3f4f6" stroke-width="1"/>
<text x="66" y="49.0" text-anchor="end" font-size="11" fill="#6b7280">1.0k</text>
<line x1="133.6" y1="45" x2="133.6" y2="340" stroke="#e5e7eb" stroke-width="1" stroke-dasharray="3,3" clip-path="url(#ca)"/>
<line x1="267.0" y1="45" x2="267.0" y2="340" stroke="#e5e7eb" stroke-width="1" stroke-dasharray="3,3" clip-path="url(#ca)"/>
<line x1="405.6" y1="45" x2="405.6" y2="340" stroke="#e5e7eb" stroke-width="1" stroke-dasharray="3,3" clip-path="url(#ca)"/>
<line x1="544.2" y1="45" x2="544.2" y2="340" stroke="#e5e7eb" stroke-width="1" stroke-dasharray="3,3" clip-path="url(#ca)"/>
<line x1="682.8" y1="45" x2="682.8" y2="340" stroke="#e5e7eb" stroke-width="1" stroke-dasharray="3,3" clip-path="url(#ca)"/>
<text x="72.0" y="358.0" text-anchor="middle" font-size="11" fill="#6b7280">Dec 11</text>
<text x="210.6" y="358.0" text-anchor="middle" font-size="11" fill="#6b7280">Jan 21</text>
<text x="349.1" y="358.0" text-anchor="middle" font-size="11" fill="#6b7280">Feb 17</text>
<text x="492.9" y="358.0" text-anchor="middle" font-size="11" fill="#6b7280">Mar 19</text>
<text x="631.4" y="358.0" text-anchor="middle" font-size="11" fill="#6b7280">Apr 19</text>
<text x="770.0" y="358.0" text-anchor="middle" font-size="11" fill="#6b7280">May 23</text>
<line x1="72" y1="45" x2="72" y2="340" stroke="#e5e7eb" stroke-width="1"/>
<line x1="72" y1="340" x2="770" y2="340" stroke="#e5e7eb" stroke-width="1"/>
<text x="-192.5" y="18" text-anchor="middle" font-size="12" fill="#6b7280" transform="rotate(-90)">Extensions</text>
<path d="M 72.0,340 L 72.0,242.6 L 77.1,240.0 L 82.3,239.7 L 87.4,238.5 L 92.5,237.9 L 97.7,235.0 L 102.8,233.2 L 107.9,232.3 L 113.1,230.8 L 118.2,229.1 L 123.3,228.2 L 128.5,227.9 L 133.6,227.0 L 138.7,226.4 L 143.9,226.1 L 149.0,225.2 L 154.1,224.4 L 159.3,223.5 L 164.4,222.6 L 169.5,221.4 L 174.6,220.5 L 179.8,219.6 L 184.9,218.8 L 190.0,217.0 L 195.2,216.4 L 200.3,216.4 L 205.4,214.3 L 210.6,213.7 L 215.7,213.2 L 220.8,212.6 L 226.0,211.1 L 231.1,209.0 L 236.2,208.7 L 241.4,208.4 L 246.5,206.7 L 251.6,206.1 L 256.8,204.6 L 261.9,204.3 L 267.0,204.0 L 272.2,203.4 L 277.3,203.4 L 282.4,203.4 L 287.6,199.3 L 292.7,199.0 L 297.8,198.1 L 303.0,197.8 L 308.1,197.5 L 313.2,196.6 L 318.4,196.0 L 323.5,195.4 L 328.6,193.7 L 333.8,193.7 L 338.9,193.7 L 344.0,193.4 L 349.1,190.4 L 354.3,189.6 L 359.4,189.0 L 364.5,188.1 L 369.7,187.5 L 374.8,187.5 L 379.9,186.0 L 385.1,183.9 L 390.2,183.4 L 395.3,183.1 L 400.5,182.2 L 405.6,182.2 L 410.7,181.6 L 415.9,180.7 L 421.0,180.1 L 426.1,178.9 L 431.3,177.8 L 436.4,177.5 L 441.5,177.5 L 446.7,176.3 L 451.8,176.3 L 456.9,176.3 L 462.1,174.5 L 467.2,174.2 L 472.3,173.9 L 477.5,173.9 L 482.6,173.6 L 487.7,172.4 L 492.9,171.9 L 498.0,171.0 L 503.1,171.0 L 508.3,170.7 L 513.4,169.5 L 518.5,168.6 L 523.6,168.6 L 528.8,168.3 L 533.9,167.7 L 539.0,165.7 L 544.2,165.1 L 549.3,164.2 L 554.4,164.2 L 559.6,163.6 L 564.7,163.3 L 569.8,163.0 L 575.0,162.7 L 580.1,162.4 L 585.2,162.4 L 590.4,162.1 L 595.5,161.8 L 600.6,160.9 L 605.8,159.8 L 610.9,159.5 L 616.0,158.6 L 621.2,158.6 L 626.3,157.4 L 631.4,157.1 L 636.6,157.1 L 641.7,157.1 L 646.8,156.2 L 652.0,155.9 L 657.1,155.9 L 662.2,155.9 L 667.4,155.6 L 672.5,154.4 L 677.6,154.2 L 682.8,153.3 L 687.9,152.7 L 693.0,152.7 L 698.1,151.8 L 703.3,151.2 L 708.4,151.2 L 713.5,150.9 L 718.7,149.4 L 723.8,148.0 L 728.9,147.7 L 734.1,147.1 L 739.2,145.9 L 744.3,145.9 L 749.5,145.3 L 754.6,143.8 L 759.7,141.2 L 764.9,140.3 L 770.0,140.3 L 770.0,340 Z" fill="url(#g5)" clip-path="url(#ca)"/>
<path d="M 72.0,242.6 L 77.1,240.0 L 82.3,239.7 L 87.4,238.5 L 92.5,237.9 L 97.7,235.0 L 102.8,233.2 L 107.9,232.3 L 113.1,230.8 L 118.2,229.1 L 123.3,228.2 L 128.5,227.9 L 133.6,227.0 L 138.7,226.4 L 143.9,226.1 L 149.0,225.2 L 154.1,224.4 L 159.3,223.5 L 164.4,222.6 L 169.5,221.4 L 174.6,220.5 L 179.8,219.6 L 184.9,218.8 L 190.0,217.0 L 195.2,216.4 L 200.3,216.4 L 205.4,214.3 L 210.6,213.7 L 215.7,213.2 L 220.8,212.6 L 226.0,211.1 L 231.1,209.0 L 236.2,208.7 L 241.4,208.4 L 246.5,206.7 L 251.6,206.1 L 256.8,204.6 L 261.9,204.3 L 267.0,204.0 L 272.2,203.4 L 277.3,203.4 L 282.4,203.4 L 287.6,199.3 L 292.7,199.0 L 297.8,198.1 L 303.0,197.8 L 308.1,197.5 L 313.2,196.6 L 318.4,196.0 L 323.5,195.4 L 328.6,193.7 L 333.8,193.7 L 338.9,193.7 L 344.0,193.4 L 349.1,190.4 L 354.3,189.6 L 359.4,189.0 L 364.5,188.1 L 369.7,187.5 L 374.8,187.5 L 379.9,186.0 L 385.1,183.9 L 390.2,183.4 L 395.3,183.1 L 400.5,182.2 L 405.6,182.2 L 410.7,181.6 L 415.9,180.7 L 421.0,180.1 L 426.1,178.9 L 431.3,177.8 L 436.4,177.5 L 441.5,177.5 L 446.7,176.3 L 451.8,176.3 L 456.9,176.3 L 462.1,174.5 L 467.2,174.2 L 472.3,173.9 L 477.5,173.9 L 482.6,173.6 L 487.7,172.4 L 492.9,171.9 L 498.0,171.0 L 503.1,171.0 L 508.3,170.7 L 513.4,169.5 L 518.5,168.6 L 523.6,168.6 L 528.8,168.3 L 533.9,167.7 L 539.0,165.7 L 544.2,165.1 L 549.3,164.2 L 554.4,164.2 L 559.6,163.6 L 564.7,163.3 L 569.8,163.0 L 575.0,162.7 L 580.1,162.4 L 585.2,162.4 L 590.4,162.1 L 595.5,161.8 L 600.6,160.9 L 605.8,159.8 L 610.9,159.5 L 616.0,158.6 L 621.2,158.6 L 626.3,157.4 L 631.4,157.1 L 636.6,157.1 L 641.7,157.1 L 646.8,156.2 L 652.0,155.9 L 657.1,155.9 L 662.2,155.9 L 667.4,155.6 L 672.5,154.4 L 677.6,154.2 L 682.8,153.3 L 687.9,152.7 L 693.0,152.7 L 698.1,151.8 L 703.3,151.2 L 708.4,151.2 L 713.5,150.9 L 718.7,149.4 L 723.8,148.0 L 728.9,147.7 L 734.1,147.1 L 739.2,145.9 L 744.3,145.9 L 749.5,145.3 L 754.6,143.8 L 759.7,141.2 L 764.9,140.3 L 770.0,140.3" fill="none" stroke="#34C759" stroke-width="2.5" stroke-linejoin="round" clip-path="url(#ca)"/>
<path d="M 72.0,340 L 72.0,222.6 L 77.1,222.6 L 82.3,222.3 L 87.4,221.4 L 92.5,221.7 L 97.7,221.7 L 102.8,220.5 L 107.9,219.6 L 113.1,219.6 L 118.2,219.9 L 123.3,219.6 L 128.5,219.3 L 133.6,219.1 L 138.7,219.1 L 143.9,219.1 L 149.0,219.3 L 154.1,218.8 L 159.3,218.2 L 164.4,216.4 L 169.5,215.2 L 174.6,215.2 L 179.8,214.9 L 184.9,213.2 L 190.0,210.5 L 195.2,209.6 L 200.3,209.0 L 205.4,207.0 L 210.6,205.5 L 215.7,204.9 L 220.8,204.3 L 226.0,203.7 L 231.1,203.4 L 236.2,203.4 L 241.4,201.3 L 246.5,200.8 L 251.6,200.2 L 256.8,200.2 L 261.9,198.7 L 267.0,198.4 L 272.2,197.5 L 277.3,196.3 L 282.4,194.9 L 287.6,192.8 L 292.7,190.7 L 297.8,190.4 L 303.0,189.8 L 308.1,189.3 L 313.2,187.5 L 318.4,187.5 L 323.5,186.9 L 328.6,186.0 L 333.8,185.4 L 338.9,184.2 L 344.0,184.5 L 349.1,181.0 L 354.3,180.7 L 359.4,180.4 L 364.5,179.8 L 369.7,178.0 L 374.8,178.0 L 379.9,176.3 L 385.1,174.2 L 390.2,174.2 L 395.3,174.2 L 400.5,173.9 L 405.6,173.6 L 410.7,173.3 L 415.9,171.9 L 421.0,170.1 L 426.1,169.5 L 431.3,168.3 L 436.4,168.3 L 441.5,167.4 L 446.7,165.7 L 451.8,164.8 L 456.9,164.5 L 462.1,162.4 L 467.2,162.1 L 472.3,162.1 L 477.5,161.8 L 482.6,161.8 L 487.7,160.3 L 492.9,159.8 L 498.0,158.9 L 503.1,158.6 L 508.3,158.0 L 513.4,155.6 L 518.5,152.4 L 523.6,152.1 L 528.8,151.5 L 533.9,151.2 L 539.0,149.7 L 544.2,118.5 L 549.3,117.9 L 554.4,116.4 L 559.6,116.4 L 564.7,116.4 L 569.8,116.7 L 575.0,116.4 L 580.1,114.6 L 585.2,114.0 L 590.4,113.7 L 595.5,113.4 L 600.6,112.3 L 605.8,110.5 L 610.9,110.5 L 616.0,110.5 L 621.2,110.2 L 626.3,109.9 L 631.4,109.9 L 636.6,109.3 L 641.7,108.4 L 646.8,106.9 L 652.0,106.4 L 657.1,106.1 L 662.2,106.1 L 667.4,105.8 L 672.5,105.2 L 677.6,104.9 L 682.8,103.4 L 687.9,103.4 L 693.0,102.8 L 698.1,101.6 L 703.3,100.2 L 708.4,99.9 L 713.5,99.6 L 718.7,96.9 L 723.8,96.3 L 728.9,95.7 L 734.1,95.7 L 739.2,94.6 L 744.3,94.0 L 749.5,92.5 L 754.6,91.9 L 759.7,91.0 L 764.9,90.7 L 770.0,89.5 L 770.0,340 Z" fill="url(#g6)" clip-path="url(#ca)"/>
<path d="M 72.0,222.6 L 77.1,222.6 L 82.3,222.3 L 87.4,221.4 L 92.5,221.7 L 97.7,221.7 L 102.8,220.5 L 107.9,219.6 L 113.1,219.6 L 118.2,219.9 L 123.3,219.6 L 128.5,219.3 L 133.6,219.1 L 138.7,219.1 L 143.9,219.1 L 149.0,219.3 L 154.1,218.8 L 159.3,218.2 L 164.4,216.4 L 169.5,215.2 L 174.6,215.2 L 179.8,214.9 L 184.9,213.2 L 190.0,210.5 L 195.2,209.6 L 200.3,209.0 L 205.4,207.0 L 210.6,205.5 L 215.7,204.9 L 220.8,204.3 L 226.0,203.7 L 231.1,203.4 L 236.2,203.4 L 241.4,201.3 L 246.5,200.8 L 251.6,200.2 L 256.8,200.2 L 261.9,198.7 L 267.0,198.4 L 272.2,197.5 L 277.3,196.3 L 282.4,194.9 L 287.6,192.8 L 292.7,190.7 L 297.8,190.4 L 303.0,189.8 L 308.1,189.3 L 313.2,187.5 L 318.4,187.5 L 323.5,186.9 L 328.6,186.0 L 333.8,185.4 L 338.9,184.2 L 344.0,184.5 L 349.1,181.0 L 354.3,180.7 L 359.4,180.4 L 364.5,179.8 L 369.7,178.0 L 374.8,178.0 L 379.9,176.3 L 385.1,174.2 L 390.2,174.2 L 395.3,174.2 L 400.5,173.9 L 405.6,173.6 L 410.7,173.3 L 415.9,171.9 L 421.0,170.1 L 426.1,169.5 L 431.3,168.3 L 436.4,168.3 L 441.5,167.4 L 446.7,165.7 L 451.8,164.8 L 456.9,164.5 L 462.1,162.4 L 467.2,162.1 L 472.3,162.1 L 477.5,161.8 L 482.6,161.8 L 487.7,160.3 L 492.9,159.8 L 498.0,158.9 L 503.1,158.6 L 508.3,158.0 L 513.4,155.6 L 518.5,152.4 L 523.6,152.1 L 528.8,151.5 L 533.9,151.2 L 539.0,149.7 L 544.2,118.5 L 549.3,117.9 L 554.4,116.4 L 559.6,116.4 L 564.7,116.4 L 569.8,116.7 L 575.0,116.4 L 580.1,114.6 L 585.2,114.0 L 590.4,113.7 L 595.5,113.4 L 600.6,112.3 L 605.8,110.5 L 610.9,110.5 L 616.0,110.5 L 621.2,110.2 L 626.3,109.9 L 631.4,109.9 L 636.6,109.3 L 641.7,108.4 L 646.8,106.9 L 652.0,106.4 L 657.1,106.1 L 662.2,106.1 L 667.4,105.8 L 672.5,105.2 L 677.6,104.9 L 682.8,103.4 L 687.9,103.4 L 693.0,102.8 L 698.1,101.6 L 703.3,100.2 L 708.4,99.9 L 713.5,99.6 L 718.7,96.9 L 723.8,96.3 L 728.9,95.7 L 734.1,95.7 L 739.2,94.6 L 744.3,94.0 L 749.5,92.5 L 754.6,91.9 L 759.7,91.0 L 764.9,90.7 L 770.0,89.5" fill="none" stroke="#4F8EF7" stroke-width="2.5" stroke-linejoin="round" clip-path="url(#ca)"/>
<path d="M 72.0,340 L 72.0,338.2 L 77.1,337.9 L 82.3,337.9 L 87.4,337.6 L 92.5,337.6 L 97.7,337.6 L 102.8,337.6 L 107.9,337.6 L 113.1,337.1 L 118.2,337.1 L 123.3,337.1 L 128.5,337.1 L 133.6,337.1 L 138.7,336.8 L 143.9,336.8 L 149.0,336.8 L 154.1,336.8 L 159.3,336.8 L 164.4,336.5 L 169.5,335.9 L 174.6,335.6 L 179.8,335.6 L 184.9,335.6 L 190.0,335.3 L 195.2,335.3 L 200.3,335.3 L 205.4,335.0 L 210.6,335.0 L 215.7,335.0 L 220.8,334.7 L 226.0,334.7 L 231.1,334.7 L 236.2,334.7 L 241.4,334.4 L 246.5,334.4 L 251.6,334.4 L 256.8,334.4 L 261.9,334.4 L 267.0,334.4 L 272.2,334.4 L 277.3,334.4 L 282.4,334.4 L 287.6,334.4 L 292.7,334.4 L 297.8,334.4 L 303.0,334.4 L 308.1,334.1 L 313.2,334.1 L 318.4,334.1 L 323.5,334.1 L 328.6,334.1 L 333.8,334.1 L 338.9,334.1 L 344.0,334.1 L 349.1,334.1 L 354.3,334.1 L 359.4,334.1 L 364.5,334.1 L 369.7,333.8 L 374.8,333.8 L 379.9,333.8 L 385.1,333.8 L 390.2,333.8 L 395.3,333.8 L 400.5,333.8 L 405.6,333.8 L 410.7,333.8 L 415.9,333.8 L 421.0,333.8 L 426.1,333.8 L 431.3,333.8 L 436.4,333.8 L 441.5,333.8 L 446.7,333.8 L 451.8,333.8 L 456.9,333.8 L 462.1,333.8 L 467.2,333.8 L 472.3,333.8 L 477.5,333.8 L 482.6,333.8 L 487.7,333.8 L 492.9,333.8 L 498.0,333.8 L 503.1,333.8 L 508.3,333.8 L 513.4,333.8 L 518.5,333.8 L 523.6,333.8 L 528.8,333.8 L 533.9,333.8 L 539.0,333.8 L 544.2,333.8 L 549.3,333.8 L 554.4,333.5 L 559.6,333.5 L 564.7,333.5 L 569.8,333.5 L 575.0,333.5 L 580.1,333.2 L 585.2,333.2 L 590.4,333.2 L 595.5,333.2 L 600.6,332.9 L 605.8,332.9 L 610.9,332.6 L 616.0,332.6 L 621.2,332.6 L 626.3,332.6 L 631.4,332.6 L 636.6,332.6 L 641.7,332.6 L 646.8,332.6 L 652.0,332.6 L 657.1,332.6 L 662.2,332.6 L 667.4,332.6 L 672.5,332.6 L 677.6,332.6 L 682.8,332.6 L 687.9,332.6 L 693.0,332.6 L 698.1,332.6 L 703.3,332.6 L 708.4,332.6 L 713.5,332.6 L 718.7,332.6 L 723.8,332.6 L 728.9,332.6 L 734.1,332.6 L 739.2,332.6 L 744.3,332.6 L 749.5,332.6 L 754.6,332.6 L 759.7,332.6 L 764.9,332.6 L 770.0,332.6 L 770.0,340 Z" fill="url(#g7)" clip-path="url(#ca)"/>
<path d="M 72.0,338.2 L 77.1,337.9 L 82.3,337.9 L 87.4,337.6 L 92.5,337.6 L 97.7,337.6 L 102.8,337.6 L 107.9,337.6 L 113.1,337.1 L 118.2,337.1 L 123.3,337.1 L 128.5,337.1 L 133.6,337.1 L 138.7,336.8 L 143.9,336.8 L 149.0,336.8 L 154.1,336.8 L 159.3,336.8 L 164.4,336.5 L 169.5,335.9 L 174.6,335.6 L 179.8,335.6 L 184.9,335.6 L 190.0,335.3 L 195.2,335.3 L 200.3,335.3 L 205.4,335.0 L 210.6,335.0 L 215.7,335.0 L 220.8,334.7 L 226.0,334.7 L 231.1,334.7 L 236.2,334.7 L 241.4,334.4 L 246.5,334.4 L 251.6,334.4 L 256.8,334.4 L 261.9,334.4 L 267.0,334.4 L 272.2,334.4 L 277.3,334.4 L 282.4,334.4 L 287.6,334.4 L 292.7,334.4 L 297.8,334.4 L 303.0,334.4 L 308.1,334.1 L 313.2,334.1 L 318.4,334.1 L 323.5,334.1 L 328.6,334.1 L 333.8,334.1 L 338.9,334.1 L 344.0,334.1 L 349.1,334.1 L 354.3,334.1 L 359.4,334.1 L 364.5,334.1 L 369.7,333.8 L 374.8,333.8 L 379.9,333.8 L 385.1,333.8 L 390.2,333.8 L 395.3,333.8 L 400.5,333.8 L 405.6,333.8 L 410.7,333.8 L 415.9,333.8 L 421.0,333.8 L 426.1,333.8 L 431.3,333.8 L 436.4,333.8 L 441.5,333.8 L 446.7,333.8 L 451.8,333.8 L 456.9,333.8 L 462.1,333.8 L 467.2,333.8 L 472.3,333.8 L 477.5,333.8 L 482.6,333.8 L 487.7,333.8 L 492.9,333.8 L 498.0,333.8 L 503.1,333.8 L 508.3,333.8 L 513.4,333.8 L 518.5,333.8 L 523.6,333.8 L 528.8,333.8 L 533.9,333.8 L 539.0,333.8 L 544.2,333.8 L 549.3,333.8 L 554.4,333.5 L 559.6,333.5 L 564.7,333.5 L 569.8,333.5 L 575.0,333.5 L 580.1,333.2 L 585.2,333.2 L 590.4,333.2 L 595.5,333.2 L 600.6,332.9 L 605.8,332.9 L 610.9,332.6 L 616.0,332.6 L 621.2,332.6 L 626.3,332.6 L 631.4,332.6 L 636.6,332.6 L 641.7,332.6 L 646.8,332.6 L 652.0,332.6 L 657.1,332.6 L 662.2,332.6 L 667.4,332.6 L 672.5,332.6 L 677.6,332.6 L 682.8,332.6 L 687.9,332.6 L 693.0,332.6 L 698.1,332.6 L 703.3,332.6 L 708.4,332.6 L 713.5,332.6 L 718.7,332.6 L 723.8,332.6 L 728.9,332.6 L 734.1,332.6 L 739.2,332.6 L 744.3,332.6 L 749.5,332.6 L 754.6,332.6 L 759.7,332.6 L 764.9,332.6 L 770.0,332.6" fill="none" stroke="#FF6363" stroke-width="2.5" stroke-linejoin="round" clip-path="url(#ca)"/>
<text x="100.2" y="55.0" text-anchor="middle" font-size="9" fill="#34C759" opacity="0.85" clip-path="url(#ca)">+15.2% (+50)</text>
<text x="100.2" y="66.0" text-anchor="middle" font-size="9" fill="#4F8EF7" opacity="0.85" clip-path="url(#ca)">+2.8% (+11)</text>
<text x="100.2" y="77.0" text-anchor="middle" font-size="9" fill="#FF6363" opacity="0.85" clip-path="url(#ca)">+66.7% (+4)</text>
<text x="197.7" y="55.0" text-anchor="middle" font-size="9" fill="#34C759" opacity="0.85" clip-path="url(#ca)">+20.1% (+77)</text>
<text x="197.7" y="66.0" text-anchor="middle" font-size="9" fill="#4F8EF7" opacity="0.85" clip-path="url(#ca)">+16.8% (+69)</text>
<text x="197.7" y="77.0" text-anchor="middle" font-size="9" fill="#FF6363" opacity="0.85" clip-path="url(#ca)">+90.0% (+9)</text>
<text x="333.8" y="55.0" text-anchor="middle" font-size="9" fill="#34C759" opacity="0.85" clip-path="url(#ca)">+16.1% (+74)</text>
<text x="333.8" y="66.0" text-anchor="middle" font-size="9" fill="#4F8EF7" opacity="0.85" clip-path="url(#ca)">+17.3% (+83)</text>
<text x="333.8" y="77.0" text-anchor="middle" font-size="9" fill="#FF6363" opacity="0.85" clip-path="url(#ca)">+10.5% (+2)</text>
<text x="472.3" y="55.0" text-anchor="middle" font-size="9" fill="#34C759" opacity="0.85" clip-path="url(#ca)">+10.5% (+56)</text>
<text x="472.3" y="66.0" text-anchor="middle" font-size="9" fill="#4F8EF7" opacity="0.85" clip-path="url(#ca)">+14.4% (+81)</text>
<text x="472.3" y="77.0" text-anchor="middle" font-size="9" fill="#FF6363" opacity="0.85" clip-path="url(#ca)">+0.0% (+0)</text>
<text x="610.9" y="55.0" text-anchor="middle" font-size="9" fill="#34C759" opacity="0.85" clip-path="url(#ca)">+6.2% (+37)</text>
<text x="610.9" y="66.0" text-anchor="middle" font-size="9" fill="#4F8EF7" opacity="0.85" clip-path="url(#ca)">+6.1% (+46)</text>
<text x="610.9" y="77.0" text-anchor="middle" font-size="9" fill="#FF6363" opacity="0.85" clip-path="url(#ca)">+19.0% (+4)</text>
<text x="726.4" y="55.0" text-anchor="middle" font-size="9" fill="#34C759" opacity="0.85" clip-path="url(#ca)">+7.0% (+44)</text>
<text x="726.4" y="66.0" text-anchor="middle" font-size="9" fill="#4F8EF7" opacity="0.85" clip-path="url(#ca)">+5.9% (+47)</text>
<text x="726.4" y="77.0" text-anchor="middle" font-size="9" fill="#FF6363" opacity="0.85" clip-path="url(#ca)">+0.0% (+0)</text>
<rect x="211" y="369" width="12" height="12" fill="#34C759" rx="2"/>
<text x="227" y="379" font-size="12" fill="#111827">macOS + Windows</text>
<rect x="351" y="369" width="12" height="12" fill="#4F8EF7" rx="2"/>
<text x="367" y="379" font-size="12" fill="#111827">macOS only</text>
<rect x="491" y="369" width="12" height="12" fill="#FF6363" rx="2"/>
<text x="507" y="379" font-size="12" fill="#111827">Windows only</text>
<text x="72" y="394" font-size="8" fill="#e5e7eb">data since Dec 11, 2025</text>
</svg>