<svg xmlns="http://www.w3.org/2000/svg" width="800" height="400" viewBox="0 0 800 400">
<defs>
  <style>text { font-family: -apple-system, BlinkMacSystemFont, 'Segoe UI', Roboto, sans-serif; }</style>
  <linearGradient id="g1" x1="0" y1="0" x2="0" y2="1">
  <stop offset="0%" stop-color="#FF6363" stop-opacity="0.25"/>
  <stop offset="100%" stop-color="#FF6363" stop-opacity="0"/>
</linearGradient>
  <clipPath id="ca"><rect x="72" y="45" width="698" height="295"/></clipPath>
</defs>
<rect width="800" height="400" fill="#ffffff" rx="12"/>
<text x="400" y="26" text-anchor="middle" font-size="15" font-weight="600" fill="#111827">Packages Growth Over Time</text>
<line x1="72" y1="340.0" x2="770" y2="340.0" stroke="#f3f4f6" stroke-width="1"/>
<text x="66" y="344.0" text-anchor="end" font-size="11" fill="#6b7280">2.4k</text>
<line x1="72" y1="290.8" x2="770" y2="290.8" stroke="#f3f4f6" stroke-width="1"/>
<text x="66" y="294.8" text-anchor="end" font-size="11" fill="#6b7280">2.5k</text>
<line x1="72" y1="241.7" x2="770" y2="241.7" stroke="#f3f4f6" stroke-width="1"/>
<text x="66" y="245.7" text-anchor="end" font-size="11" fill="#6b7280">2.6k</text>
<line x1="72" y1="192.5" x2="770" y2="192.5" stroke="#f3f4f6" stroke-width="1"/>
<text x="66" y="196.5" text-anchor="end" font-size="11" fill="#6b7280">2.7k</text>
<line x1="72" y1="143.3" x2="770" y2="143.3" stroke="#f3f4f6" stroke-width="1"/>
<text x="66" y="147.3" text-anchor="end" font-size="11" fill="#6b7280">2.8k</text>
<line x1="72" y1="94.2" x2="770" y2="94.2" stroke="#f3f4f6" stroke-width="1"/>
<text x="66" y="98.2" text-anchor="end" font-size="11" fill="#6b7280">2.9k</text>
<line x1="72" y1="45.0" x2="770" y2="45.0" stroke="#f3f4f6" stroke-width="1"/>
<text x="66" y="49.0" text-anchor="end" font-size="11" fill="#6b7280">3.0k</text>
<line x1="130.2" y1="45" x2="130.2" y2="340" stroke="#e5e7eb" stroke-width="1" stroke-dasharray="3,3" clip-path="url(#ca)"/>
<line x1="256.2" y1="45" x2="256.2" y2="340" stroke="#e5e7eb" stroke-width="1" stroke-dasharray="3,3" clip-path="url(#ca)"/>
<line x1="387.1" y1="45" x2="387.1" y2="340" stroke="#e5e7eb" stroke-width="1" stroke-dasharray="3,3" clip-path="url(#ca)"/>
<line x1="517.9" y1="45" x2="517.9" y2="340" stroke="#e5e7eb" stroke-width="1" stroke-dasharray="3,3" clip-path="url(#ca)"/>
<line x1="648.8" y1="45" x2="648.8" y2="340" stroke="#e5e7eb" stroke-width="1" stroke-dasharray="3,3" clip-path="url(#ca)"/>
<text x="72.0" y="358.0" text-anchor="middle" font-size="11" fill="#6b7280">Dec 11</text>
<text x="212.6" y="358.0" text-anchor="middle" font-size="11" fill="#6b7280">Jan 23</text>
<text x="353.1" y="358.0" text-anchor="middle" font-size="11" fill="#6b7280">Feb 21</text>
<text x="488.9" y="358.0" text-anchor="middle" font-size="11" fill="#6b7280">Mar 24</text>
<text x="629.4" y="358.0" text-anchor="middle" font-size="11" fill="#6b7280">Apr 26</text>
<text x="770.0" y="358.0" text-anchor="middle" font-size="11" fill="#6b7280">May 31</text>
<line x1="72" y1="45" x2="72" y2="340" stroke="#e5e7eb" stroke-width="1"/>
<line x1="72" y1="340" x2="770" y2="340" stroke="#e5e7eb" stroke-width="1"/>
<text x="-192.5" y="18" text-anchor="middle" font-size="12" fill="#6b7280" transform="rotate(-90)">Extensions</text>
<path d="M 72.0,340 L 72.0,302.1 L 76.8,301.6 L 81.7,301.6 L 86.5,300.2 L 91.4,300.2 L 96.2,299.2 L 101.1,298.2 L 105.9,297.7 L 110.8,295.3 L 115.6,293.3 L 120.5,293.3 L 125.3,293.3 L 130.2,293.3 L 135.0,292.3 L 139.9,292.3 L 144.7,292.3 L 149.6,291.3 L 154.4,289.4 L 159.3,285.9 L 164.1,283.5 L 168.9,282.5 L 173.8,282.0 L 178.6,280.0 L 183.5,274.1 L 188.3,272.1 L 193.2,272.1 L 198.0,267.2 L 202.9,265.8 L 207.7,263.8 L 212.6,262.3 L 217.4,259.4 L 222.3,256.9 L 227.1,256.4 L 232.0,252.5 L 236.8,249.0 L 241.7,249.0 L 246.5,246.6 L 251.3,244.6 L 256.2,244.1 L 261.0,243.6 L 265.9,243.1 L 270.7,241.7 L 275.6,232.8 L 280.4,228.9 L 285.3,226.9 L 290.1,225.9 L 295.0,224.5 L 299.8,221.0 L 304.7,220.0 L 309.5,219.1 L 314.4,216.1 L 319.2,215.1 L 324.1,214.1 L 328.9,214.1 L 333.8,205.3 L 338.6,204.3 L 343.4,203.3 L 348.3,201.3 L 353.1,198.9 L 358.0,198.9 L 362.8,195.0 L 367.7,188.6 L 372.5,187.6 L 377.4,188.1 L 382.2,186.6 L 387.1,186.1 L 391.9,186.1 L 396.8,183.2 L 401.6,180.7 L 406.5,178.7 L 411.3,176.3 L 416.2,175.8 L 421.0,175.8 L 425.8,172.3 L 430.7,171.4 L 435.5,170.9 L 440.4,165.0 L 445.2,164.5 L 450.1,164.5 L 454.9,164.5 L 459.8,164.0 L 464.6,161.5 L 469.5,159.6 L 474.3,157.1 L 479.2,156.6 L 484.0,155.1 L 488.9,150.7 L 493.7,146.8 L 498.6,146.3 L 503.4,145.8 L 508.3,144.3 L 513.1,139.4 L 517.9,138.4 L 522.8,136.9 L 527.6,134.0 L 532.5,133.5 L 537.3,133.0 L 542.2,133.0 L 547.0,132.0 L 551.9,129.1 L 556.7,128.1 L 561.6,127.1 L 566.4,126.6 L 571.3,125.6 L 576.1,120.7 L 581.0,120.2 L 585.8,119.2 L 590.7,118.8 L 595.5,116.3 L 600.3,115.8 L 605.2,115.3 L 610.0,113.8 L 614.9,111.9 L 619.7,111.9 L 624.6,111.9 L 629.4,111.9 L 634.3,110.9 L 639.1,108.4 L 644.0,107.9 L 648.8,105.5 L 653.7,105.0 L 658.5,104.5 L 663.4,101.5 L 668.2,98.6 L 673.1,98.1 L 677.9,97.6 L 682.8,91.2 L 687.6,89.3 L 692.4,87.8 L 697.3,87.3 L 702.1,83.8 L 707.0,83.8 L 711.8,81.4 L 716.7,79.9 L 721.5,75.0 L 726.4,73.0 L 731.2,72.5 L 736.1,72.0 L 740.9,72.0 L 745.8,71.6 L 750.6,68.6 L 755.5,66.1 L 760.3,66.1 L 765.2,65.6 L 770.0,65.6 L 770.0,340 Z" fill="url(#g1)" clip-path="url(#ca)"/>
<path d="M 72.0,302.1 L 76.8,301.6 L 81.7,301.6 L 86.5,300.2 L 91.4,300.2 L 96.2,299.2 L 101.1,298.2 L 105.9,297.7 L 110.8,295.3 L 115.6,293.3 L 120.5,293.3 L 125.3,293.3 L 130.2,293.3 L 135.0,292.3 L 139.9,292.3 L 144.7,292.3 L 149.6,291.3 L 154.4,289.4 L 159.3,285.9 L 164.1,283.5 L 168.9,282.5 L 173.8,282.0 L 178.6,280.0 L 183.5,274.1 L 188.3,272.1 L 193.2,272.1 L 198.0,267.2 L 202.9,265.8 L 207.7,263.8 L 212.6,262.3 L 217.4,259.4 L 222.3,256.9 L 227.1,256.4 L 232.0,252.5 L 236.8,249.0 L 241.7,249.0 L 246.5,246.6 L 251.3,244.6 L 256.2,244.1 L 261.0,243.6 L 265.9,243.1 L 270.7,241.7 L 275.6,232.8 L 280.4,228.9 L 285.3,226.9 L 290.1,225.9 L 295.0,224.5 L 299.8,221.0 L 304.7,220.0 L 309.5,219.1 L 314.4,216.1 L 319.2,215.1 L 324.1,214.1 L 328.9,214.1 L 333.8,205.3 L 338.6,204.3 L 343.4,203.3 L 348.3,201.3 L 353.1,198.9 L 358.0,198.9 L 362.8,195.0 L 367.7,188.6 L 372.5,187.6 L 377.4,188.1 L 382.2,186.6 L 387.1,186.1 L 391.9,186.1 L 396.8,183.2 L 401.6,180.7 L 406.5,178.7 L 411.3,176.3 L 416.2,175.8 L 421.0,175.8 L 425.8,172.3 L 430.7,171.4 L 435.5,170.9 L 440.4,165.0 L 445.2,164.5 L 450.1,164.5 L 454.9,164.5 L 459.8,164.0 L 464.6,161.5 L 469.5,159.6 L 474.3,157.1 L 479.2,156.6 L 484.0,155.1 L 488.9,150.7 L 493.7,146.8 L 498.6,146.3 L 503.4,145.8 L 508.3,144.3 L 513.1,139.4 L 517.9,138.4 L 522.8,136.9 L 527.6,134.0 L 532.5,133.5 L 537.3,133.0 L 542.2,133.0 L 547.0,132.0 L 551.9,129.1 L 556.7,128.1 L 561.6,127.1 L 566.4,126.6 L 571.3,125.6 L 576.1,120.7 L 581.0,120.2 L 585.8,119.2 L 590.7,118.8 L 595.5,116.3 L 600.3,115.8 L 605.2,115.3 L 610.0,113.8 L 614.9,111.9 L 619.7,111.9 L 624.6,111.9 L 629.4,111.9 L 634.3,110.9 L 639.1,108.4 L 644.0,107.9 L 648.8,105.5 L 653.7,105.0 L 658.5,104.5 L 663.4,101.5 L 668.2,98.6 L 673.1,98.1 L 677.9,97.6 L 682.8,91.2 L 687.6,89.3 L 692.4,87.8 L 697.3,87.3 L 702.1,83.8 L 707.0,83.8 L 711.8,81.4 L 716.7,79.9 L 721.5,75.0 L 726.4,73.0 L 731.2,72.5 L 736.1,72.0 L 740.9,72.0 L 745.8,71.6 L 750.6,68.6 L 755.5,66.1 L 760.3,66.1 L 765.2,65.6 L 770.0,65.6" fill="none" stroke="#FF6363" stroke-width="2.5" stroke-linejoin="round" clip-path="url(#ca)"/>
<text x="98.7" y="55.0" text-anchor="middle" font-size="9" fill="#FF6363" opacity="0.85" clip-path="url(#ca)">+0.7% (+18)</text>
<text x="190.8" y="55.0" text-anchor="middle" font-size="9" fill="#FF6363" opacity="0.85" clip-path="url(#ca)">+4.0% (+99)</text>
<text x="319.2" y="55.0" text-anchor="middle" font-size="9" fill="#FF6363" opacity="0.85" clip-path="url(#ca)">+4.5% (+117)</text>
<text x="450.1" y="55.0" text-anchor="middle" font-size="9" fill="#FF6363" opacity="0.85" clip-path="url(#ca)">+3.5% (+95)</text>
<text x="581.0" y="55.0" text-anchor="middle" font-size="9" fill="#FF6363" opacity="0.85" clip-path="url(#ca)">+2.2% (+62)</text>
<text x="709.4" y="55.0" text-anchor="middle" font-size="9" fill="#FF6363" opacity="0.85" clip-path="url(#ca)">+2.8% (+81)</text>
<rect x="351" y="369" width="12" height="12" fill="#FF6363" rx="2"/>
<text x="367" y="379" font-size="12" fill="#111827">Extensions</text>
<text x="72" y="394" font-size="8" fill="#e5e7eb">data since Dec 11, 2025</text>
</svg>