<svg xmlns="http://www.w3.org/2000/svg" width="800" height="400" viewBox="0 0 800 400">
<defs>
  <style>text { font-family: -apple-system, BlinkMacSystemFont, 'Segoe UI', Roboto, sans-serif; }</style>
  <linearGradient id="g5" x1="0" y1="0" x2="0" y2="1">
  <stop offset="0%" stop-color="#34C759" stop-opacity="0.25"/>
  <stop offset="100%" stop-color="#34C759" stop-opacity="0"/>
</linearGradient>
<linearGradient id="g6" x1="0" y1="0" x2="0" y2="1">
  <stop offset="0%" stop-color="#4F8EF7" stop-opacity="0.25"/>
  <stop offset="100%" stop-color="#4F8EF7" stop-opacity="0"/>
</linearGradient>
<linearGradient id="g7" x1="0" y1="0" x2="0" y2="1">
  <stop offset="0%" stop-color="#FF6363" stop-opacity="0.25"/>
  <stop offset="100%" stop-color="#FF6363" stop-opacity="0"/>
</linearGradient>
  <clipPath id="ca"><rect x="72" y="45" width="698" height="295"/></clipPath>
</defs>
<rect width="800" height="400" fill="#ffffff" rx="12"/>
<text x="400" y="26" text-anchor="middle" font-size="15" font-weight="600" fill="#111827">Platform Support Over Time</text>
<line x1="72" y1="340.0" x2="770" y2="340.0" stroke="#f3f4f6" stroke-width="1"/>
<text x="66" y="344.0" text-anchor="end" font-size="11" fill="#6b7280">0</text>
<line x1="72" y1="281.0" x2="770" y2="281.0" stroke="#f3f4f6" stroke-width="1"/>
<text x="66" y="285.0" text-anchor="end" font-size="11" fill="#6b7280">200</text>
<line x1="72" y1="222.0" x2="770" y2="222.0" stroke="#f3f4f6" stroke-width="1"/>
<text x="66" y="226.0" text-anchor="end" font-size="11" fill="#6b7280">400</text>
<line x1="72" y1="163.0" x2="770" y2="163.0" stroke="#f3f4f6" stroke-width="1"/>
<text x="66" y="167.0" text-anchor="end" font-size="11" fill="#6b7280">600</text>
<line x1="72" y1="104.0" x2="770" y2="104.0" stroke="#f3f4f6" stroke-width="1"/>
<text x="66" y="108.0" text-anchor="end" font-size="11" fill="#6b7280">800</text>
<line x1="72" y1="45.0" x2="770" y2="45.0" stroke="#f3f4f6" stroke-width="1"/>
<text x="66" y="49.0" text-anchor="end" font-size="11" fill="#6b7280">1.0k</text>
<line x1="131.4" y1="45" x2="131.4" y2="340" stroke="#e5e7eb" stroke-width="1" stroke-dasharray="3,3" clip-path="url(#ca)"/>
<line x1="260.1" y1="45" x2="260.1" y2="340" stroke="#e5e7eb" stroke-width="1" stroke-dasharray="3,3" clip-path="url(#ca)"/>
<line x1="393.8" y1="45" x2="393.8" y2="340" stroke="#e5e7eb" stroke-width="1" stroke-dasharray="3,3" clip-path="url(#ca)"/>
<line x1="527.4" y1="45" x2="527.4" y2="340" stroke="#e5e7eb" stroke-width="1" stroke-dasharray="3,3" clip-path="url(#ca)"/>
<line x1="661.1" y1="45" x2="661.1" y2="340" stroke="#e5e7eb" stroke-width="1" stroke-dasharray="3,3" clip-path="url(#ca)"/>
<text x="72.0" y="358.0" text-anchor="middle" font-size="11" fill="#6b7280">Dec 11</text>
<text x="210.6" y="358.0" text-anchor="middle" font-size="11" fill="#6b7280">Jan 22</text>
<text x="349.2" y="358.0" text-anchor="middle" font-size="11" fill="#6b7280">Feb 19</text>
<text x="492.8" y="358.0" text-anchor="middle" font-size="11" fill="#6b7280">Mar 23</text>
<text x="631.4" y="358.0" text-anchor="middle" font-size="11" fill="#6b7280">Apr 24</text>
<text x="770.0" y="358.0" text-anchor="middle" font-size="11" fill="#6b7280">May 28</text>
<line x1="72" y1="45" x2="72" y2="340" stroke="#e5e7eb" stroke-width="1"/>
<line x1="72" y1="340" x2="770" y2="340" stroke="#e5e7eb" stroke-width="1"/>
<text x="-192.5" y="18" text-anchor="middle" font-size="12" fill="#6b7280" transform="rotate(-90)">Extensions</text>
<path d="M 72.0,340 L 72.0,242.6 L 77.0,240.0 L 81.9,239.7 L 86.9,238.5 L 91.8,237.9 L 96.8,235.0 L 101.7,233.2 L 106.7,232.3 L 111.6,230.8 L 116.6,229.1 L 121.5,228.2 L 126.5,227.9 L 131.4,227.0 L 136.4,226.4 L 141.3,226.1 L 146.3,225.2 L 151.2,224.4 L 156.2,223.5 L 161.1,222.6 L 166.1,221.4 L 171.0,220.5 L 176.0,219.6 L 180.9,218.8 L 185.9,217.0 L 190.8,216.4 L 195.8,216.4 L 200.7,214.3 L 205.7,213.7 L 210.6,213.2 L 215.6,212.6 L 220.5,211.1 L 225.5,209.0 L 230.4,208.7 L 235.4,208.4 L 240.3,206.7 L 245.3,206.1 L 250.2,204.6 L 255.2,204.3 L 260.1,204.0 L 265.1,203.4 L 270.0,203.4 L 275.0,203.4 L 279.9,199.3 L 284.9,199.0 L 289.8,198.1 L 294.8,197.8 L 299.7,197.5 L 304.7,196.6 L 309.6,196.0 L 314.6,195.4 L 319.5,193.7 L 324.5,193.7 L 329.4,193.7 L 334.4,193.4 L 339.3,190.4 L 344.3,189.6 L 349.2,189.0 L 354.2,188.1 L 359.1,187.5 L 364.1,187.5 L 369.0,186.0 L 374.0,183.9 L 378.9,183.4 L 383.9,183.1 L 388.8,182.2 L 393.8,182.2 L 398.7,181.6 L 403.7,180.7 L 408.6,180.1 L 413.6,178.9 L 418.5,177.8 L 423.5,177.5 L 428.4,177.5 L 433.4,176.3 L 438.3,176.3 L 443.3,176.3 L 448.2,174.5 L 453.2,174.2 L 458.1,173.9 L 463.1,173.9 L 468.0,173.6 L 473.0,172.4 L 477.9,171.9 L 482.9,171.0 L 487.8,171.0 L 492.8,170.7 L 497.7,169.5 L 502.7,168.6 L 507.6,168.6 L 512.6,168.3 L 517.5,167.7 L 522.5,165.7 L 527.4,165.1 L 532.4,164.2 L 537.3,164.2 L 542.3,163.6 L 547.2,163.3 L 552.2,163.0 L 557.1,162.7 L 562.1,162.4 L 567.0,162.4 L 572.0,162.1 L 576.9,161.8 L 581.9,160.9 L 586.8,159.8 L 591.8,159.5 L 596.7,158.6 L 601.7,158.6 L 606.6,157.4 L 611.6,157.1 L 616.5,157.1 L 621.5,157.1 L 626.4,156.2 L 631.4,155.9 L 636.3,155.9 L 641.3,155.9 L 646.2,155.6 L 651.2,154.4 L 656.1,154.2 L 661.1,153.3 L 666.0,152.7 L 671.0,152.7 L 675.9,151.8 L 680.9,151.2 L 685.8,151.2 L 690.8,150.9 L 695.7,149.4 L 700.7,148.0 L 705.6,147.7 L 710.6,147.1 L 715.5,145.9 L 720.5,145.9 L 725.4,145.3 L 730.4,143.8 L 735.3,141.2 L 740.3,140.3 L 745.2,140.3 L 750.2,140.3 L 755.1,140.3 L 760.1,140.3 L 765.0,139.1 L 770.0,138.2 L 770.0,340 Z" fill="url(#g5)" clip-path="url(#ca)"/>
<path d="M 72.0,242.6 L 77.0,240.0 L 81.9,239.7 L 86.9,238.5 L 91.8,237.9 L 96.8,235.0 L 101.7,233.2 L 106.7,232.3 L 111.6,230.8 L 116.6,229.1 L 121.5,228.2 L 126.5,227.9 L 131.4,227.0 L 136.4,226.4 L 141.3,226.1 L 146.3,225.2 L 151.2,224.4 L 156.2,223.5 L 161.1,222.6 L 166.1,221.4 L 171.0,220.5 L 176.0,219.6 L 180.9,218.8 L 185.9,217.0 L 190.8,216.4 L 195.8,216.4 L 200.7,214.3 L 205.7,213.7 L 210.6,213.2 L 215.6,212.6 L 220.5,211.1 L 225.5,209.0 L 230.4,208.7 L 235.4,208.4 L 240.3,206.7 L 245.3,206.1 L 250.2,204.6 L 255.2,204.3 L 260.1,204.0 L 265.1,203.4 L 270.0,203.4 L 275.0,203.4 L 279.9,199.3 L 284.9,199.0 L 289.8,198.1 L 294.8,197.8 L 299.7,197.5 L 304.7,196.6 L 309.6,196.0 L 314.6,195.4 L 319.5,193.7 L 324.5,193.7 L 329.4,193.7 L 334.4,193.4 L 339.3,190.4 L 344.3,189.6 L 349.2,189.0 L 354.2,188.1 L 359.1,187.5 L 364.1,187.5 L 369.0,186.0 L 374.0,183.9 L 378.9,183.4 L 383.9,183.1 L 388.8,182.2 L 393.8,182.2 L 398.7,181.6 L 403.7,180.7 L 408.6,180.1 L 413.6,178.9 L 418.5,177.8 L 423.5,177.5 L 428.4,177.5 L 433.4,176.3 L 438.3,176.3 L 443.3,176.3 L 448.2,174.5 L 453.2,174.2 L 458.1,173.9 L 463.1,173.9 L 468.0,173.6 L 473.0,172.4 L 477.9,171.9 L 482.9,171.0 L 487.8,171.0 L 492.8,170.7 L 497.7,169.5 L 502.7,168.6 L 507.6,168.6 L 512.6,168.3 L 517.5,167.7 L 522.5,165.7 L 527.4,165.1 L 532.4,164.2 L 537.3,164.2 L 542.3,163.6 L 547.2,163.3 L 552.2,163.0 L 557.1,162.7 L 562.1,162.4 L 567.0,162.4 L 572.0,162.1 L 576.9,161.8 L 581.9,160.9 L 586.8,159.8 L 591.8,159.5 L 596.7,158.6 L 601.7,158.6 L 606.6,157.4 L 611.6,157.1 L 616.5,157.1 L 621.5,157.1 L 626.4,156.2 L 631.4,155.9 L 636.3,155.9 L 641.3,155.9 L 646.2,155.6 L 651.2,154.4 L 656.1,154.2 L 661.1,153.3 L 666.0,152.7 L 671.0,152.7 L 675.9,151.8 L 680.9,151.2 L 685.8,151.2 L 690.8,150.9 L 695.7,149.4 L 700.7,148.0 L 705.6,147.7 L 710.6,147.1 L 715.5,145.9 L 720.5,145.9 L 725.4,145.3 L 730.4,143.8 L 735.3,141.2 L 740.3,140.3 L 745.2,140.3 L 750.2,140.3 L 755.1,140.3 L 760.1,140.3 L 765.0,139.1 L 770.0,138.2" fill="none" stroke="#34C759" stroke-width="2.5" stroke-linejoin="round" clip-path="url(#ca)"/>
<path d="M 72.0,340 L 72.0,222.6 L 77.0,222.6 L 81.9,222.3 L 86.9,221.4 L 91.8,221.7 L 96.8,221.7 L 101.7,220.5 L 106.7,219.6 L 111.6,219.6 L 116.6,219.9 L 121.5,219.6 L 126.5,219.3 L 131.4,219.1 L 136.4,219.1 L 141.3,219.1 L 146.3,219.3 L 151.2,218.8 L 156.2,218.2 L 161.1,216.4 L 166.1,215.2 L 171.0,215.2 L 176.0,214.9 L 180.9,213.2 L 185.9,210.5 L 190.8,209.6 L 195.8,209.0 L 200.7,207.0 L 205.7,205.5 L 210.6,204.9 L 215.6,204.3 L 220.5,203.7 L 225.5,203.4 L 230.4,203.4 L 235.4,201.3 L 240.3,200.8 L 245.3,200.2 L 250.2,200.2 L 255.2,198.7 L 260.1,198.4 L 265.1,197.5 L 270.0,196.3 L 275.0,194.9 L 279.9,192.8 L 284.9,190.7 L 289.8,190.4 L 294.8,189.8 L 299.7,189.3 L 304.7,187.5 L 309.6,187.5 L 314.6,186.9 L 319.5,186.0 L 324.5,185.4 L 329.4,184.2 L 334.4,184.5 L 339.3,181.0 L 344.3,180.7 L 349.2,180.4 L 354.2,179.8 L 359.1,178.0 L 364.1,178.0 L 369.0,176.3 L 374.0,174.2 L 378.9,174.2 L 383.9,174.2 L 388.8,173.9 L 393.8,173.6 L 398.7,173.3 L 403.7,171.9 L 408.6,170.1 L 413.6,169.5 L 418.5,168.3 L 423.5,168.3 L 428.4,167.4 L 433.4,165.7 L 438.3,164.8 L 443.3,164.5 L 448.2,162.4 L 453.2,162.1 L 458.1,162.1 L 463.1,161.8 L 468.0,161.8 L 473.0,160.3 L 477.9,159.8 L 482.9,158.9 L 487.8,158.6 L 492.8,158.0 L 497.7,155.6 L 502.7,152.4 L 507.6,152.1 L 512.6,151.5 L 517.5,151.2 L 522.5,149.7 L 527.4,118.5 L 532.4,117.9 L 537.3,116.4 L 542.3,116.4 L 547.2,116.4 L 552.2,116.7 L 557.1,116.4 L 562.1,114.6 L 567.0,114.0 L 572.0,113.7 L 576.9,113.4 L 581.9,112.3 L 586.8,110.5 L 591.8,110.5 L 596.7,110.5 L 601.7,110.2 L 606.6,109.9 L 611.6,109.9 L 616.5,109.3 L 621.5,108.4 L 626.4,106.9 L 631.4,106.4 L 636.3,106.1 L 641.3,106.1 L 646.2,105.8 L 651.2,105.2 L 656.1,104.9 L 661.1,103.4 L 666.0,103.4 L 671.0,102.8 L 675.9,101.6 L 680.9,100.2 L 685.8,99.9 L 690.8,99.6 L 695.7,96.9 L 700.7,96.3 L 705.6,95.7 L 710.6,95.7 L 715.5,94.6 L 720.5,94.0 L 725.4,92.5 L 730.4,91.9 L 735.3,91.0 L 740.3,90.7 L 745.2,89.5 L 750.2,88.7 L 755.1,88.4 L 760.1,87.8 L 765.0,86.6 L 770.0,86.0 L 770.0,340 Z" fill="url(#g6)" clip-path="url(#ca)"/>
<path d="M 72.0,222.6 L 77.0,222.6 L 81.9,222.3 L 86.9,221.4 L 91.8,221.7 L 96.8,221.7 L 101.7,220.5 L 106.7,219.6 L 111.6,219.6 L 116.6,219.9 L 121.5,219.6 L 126.5,219.3 L 131.4,219.1 L 136.4,219.1 L 141.3,219.1 L 146.3,219.3 L 151.2,218.8 L 156.2,218.2 L 161.1,216.4 L 166.1,215.2 L 171.0,215.2 L 176.0,214.9 L 180.9,213.2 L 185.9,210.5 L 190.8,209.6 L 195.8,209.0 L 200.7,207.0 L 205.7,205.5 L 210.6,204.9 L 215.6,204.3 L 220.5,203.7 L 225.5,203.4 L 230.4,203.4 L 235.4,201.3 L 240.3,200.8 L 245.3,200.2 L 250.2,200.2 L 255.2,198.7 L 260.1,198.4 L 265.1,197.5 L 270.0,196.3 L 275.0,194.9 L 279.9,192.8 L 284.9,190.7 L 289.8,190.4 L 294.8,189.8 L 299.7,189.3 L 304.7,187.5 L 309.6,187.5 L 314.6,186.9 L 319.5,186.0 L 324.5,185.4 L 329.4,184.2 L 334.4,184.5 L 339.3,181.0 L 344.3,180.7 L 349.2,180.4 L 354.2,179.8 L 359.1,178.0 L 364.1,178.0 L 369.0,176.3 L 374.0,174.2 L 378.9,174.2 L 383.9,174.2 L 388.8,173.9 L 393.8,173.6 L 398.7,173.3 L 403.7,171.9 L 408.6,170.1 L 413.6,169.5 L 418.5,168.3 L 423.5,168.3 L 428.4,167.4 L 433.4,165.7 L 438.3,164.8 L 443.3,164.5 L 448.2,162.4 L 453.2,162.1 L 458.1,162.1 L 463.1,161.8 L 468.0,161.8 L 473.0,160.3 L 477.9,159.8 L 482.9,158.9 L 487.8,158.6 L 492.8,158.0 L 497.7,155.6 L 502.7,152.4 L 507.6,152.1 L 512.6,151.5 L 517.5,151.2 L 522.5,149.7 L 527.4,118.5 L 532.4,117.9 L 537.3,116.4 L 542.3,116.4 L 547.2,116.4 L 552.2,116.7 L 557.1,116.4 L 562.1,114.6 L 567.0,114.0 L 572.0,113.7 L 576.9,113.4 L 581.9,112.3 L 586.8,110.5 L 591.8,110.5 L 596.7,110.5 L 601.7,110.2 L 606.6,109.9 L 611.6,109.9 L 616.5,109.3 L 621.5,108.4 L 626.4,106.9 L 631.4,106.4 L 636.3,106.1 L 641.3,106.1 L 646.2,105.8 L 651.2,105.2 L 656.1,104.9 L 661.1,103.4 L 666.0,103.4 L 671.0,102.8 L 675.9,101.6 L 680.9,100.2 L 685.8,99.9 L 690.8,99.6 L 695.7,96.9 L 700.7,96.3 L 705.6,95.7 L 710.6,95.7 L 715.5,94.6 L 720.5,94.0 L 725.4,92.5 L 730.4,91.9 L 735.3,91.0 L 740.3,90.7 L 745.2,89.5 L 750.2,88.7 L 755.1,88.4 L 760.1,87.8 L 765.0,86.6 L 770.0,86.0" fill="none" stroke="#4F8EF7" stroke-width="2.5" stroke-linejoin="round" clip-path="url(#ca)"/>
<path d="M 72.0,340 L 72.0,338.2 L 77.0,337.9 L 81.9,337.9 L 86.9,337.6 L 91.8,337.6 L 96.8,337.6 L 101.7,337.6 L 106.7,337.6 L 111.6,337.1 L 116.6,337.1 L 121.5,337.1 L 126.5,337.1 L 131.4,337.1 L 136.4,336.8 L 141.3,336.8 L 146.3,336.8 L 151.2,336.8 L 156.2,336.8 L 161.1,336.5 L 166.1,335.9 L 171.0,335.6 L 176.0,335.6 L 180.9,335.6 L 185.9,335.3 L 190.8,335.3 L 195.8,335.3 L 200.7,335.0 L 205.7,335.0 L 210.6,335.0 L 215.6,334.7 L 220.5,334.7 L 225.5,334.7 L 230.4,334.7 L 235.4,334.4 L 240.3,334.4 L 245.3,334.4 L 250.2,334.4 L 255.2,334.4 L 260.1,334.4 L 265.1,334.4 L 270.0,334.4 L 275.0,334.4 L 279.9,334.4 L 284.9,334.4 L 289.8,334.4 L 294.8,334.4 L 299.7,334.1 L 304.7,334.1 L 309.6,334.1 L 314.6,334.1 L 319.5,334.1 L 324.5,334.1 L 329.4,334.1 L 334.4,334.1 L 339.3,334.1 L 344.3,334.1 L 349.2,334.1 L 354.2,334.1 L 359.1,333.8 L 364.1,333.8 L 369.0,333.8 L 374.0,333.8 L 378.9,333.8 L 383.9,333.8 L 388.8,333.8 L 393.8,333.8 L 398.7,333.8 L 403.7,333.8 L 408.6,333.8 L 413.6,333.8 L 418.5,333.8 L 423.5,333.8 L 428.4,333.8 L 433.4,333.8 L 438.3,333.8 L 443.3,333.8 L 448.2,333.8 L 453.2,333.8 L 458.1,333.8 L 463.1,333.8 L 468.0,333.8 L 473.0,333.8 L 477.9,333.8 L 482.9,333.8 L 487.8,333.8 L 492.8,333.8 L 497.7,333.8 L 502.7,333.8 L 507.6,333.8 L 512.6,333.8 L 517.5,333.8 L 522.5,333.8 L 527.4,333.8 L 532.4,333.8 L 537.3,333.5 L 542.3,333.5 L 547.2,333.5 L 552.2,333.5 L 557.1,333.5 L 562.1,333.2 L 567.0,333.2 L 572.0,333.2 L 576.9,333.2 L 581.9,332.9 L 586.8,332.9 L 591.8,332.6 L 596.7,332.6 L 601.7,332.6 L 606.6,332.6 L 611.6,332.6 L 616.5,332.6 L 621.5,332.6 L 626.4,332.6 L 631.4,332.6 L 636.3,332.6 L 641.3,332.6 L 646.2,332.6 L 651.2,332.6 L 656.1,332.6 L 661.1,332.6 L 666.0,332.6 L 671.0,332.6 L 675.9,332.6 L 680.9,332.6 L 685.8,332.6 L 690.8,332.6 L 695.7,332.6 L 700.7,332.6 L 705.6,332.6 L 710.6,332.6 L 715.5,332.6 L 720.5,332.6 L 725.4,332.6 L 730.4,332.6 L 735.3,332.6 L 740.3,332.6 L 745.2,332.6 L 750.2,332.6 L 755.1,332.6 L 760.1,332.6 L 765.0,332.6 L 770.0,332.6 L 770.0,340 Z" fill="url(#g7)" clip-path="url(#ca)"/>
<path d="M 72.0,338.2 L 77.0,337.9 L 81.9,337.9 L 86.9,337.6 L 91.8,337.6 L 96.8,337.6 L 101.7,337.6 L 106.7,337.6 L 111.6,337.1 L 116.6,337.1 L 121.5,337.1 L 126.5,337.1 L 131.4,337.1 L 136.4,336.8 L 141.3,336.8 L 146.3,336.8 L 151.2,336.8 L 156.2,336.8 L 161.1,336.5 L 166.1,335.9 L 171.0,335.6 L 176.0,335.6 L 180.9,335.6 L 185.9,335.3 L 190.8,335.3 L 195.8,335.3 L 200.7,335.0 L 205.7,335.0 L 210.6,335.0 L 215.6,334.7 L 220.5,334.7 L 225.5,334.7 L 230.4,334.7 L 235.4,334.4 L 240.3,334.4 L 245.3,334.4 L 250.2,334.4 L 255.2,334.4 L 260.1,334.4 L 265.1,334.4 L 270.0,334.4 L 275.0,334.4 L 279.9,334.4 L 284.9,334.4 L 289.8,334.4 L 294.8,334.4 L 299.7,334.1 L 304.7,334.1 L 309.6,334.1 L 314.6,334.1 L 319.5,334.1 L 324.5,334.1 L 329.4,334.1 L 334.4,334.1 L 339.3,334.1 L 344.3,334.1 L 349.2,334.1 L 354.2,334.1 L 359.1,333.8 L 364.1,333.8 L 369.0,333.8 L 374.0,333.8 L 378.9,333.8 L 383.9,333.8 L 388.8,333.8 L 393.8,333.8 L 398.7,333.8 L 403.7,333.8 L 408.6,333.8 L 413.6,333.8 L 418.5,333.8 L 423.5,333.8 L 428.4,333.8 L 433.4,333.8 L 438.3,333.8 L 443.3,333.8 L 448.2,333.8 L 453.2,333.8 L 458.1,333.8 L 463.1,333.8 L 468.0,333.8 L 473.0,333.8 L 477.9,333.8 L 482.9,333.8 L 487.8,333.8 L 492.8,333.8 L 497.7,333.8 L 502.7,333.8 L 507.6,333.8 L 512.6,333.8 L 517.5,333.8 L 522.5,333.8 L 527.4,333.8 L 532.4,333.8 L 537.3,333.5 L 542.3,333.5 L 547.2,333.5 L 552.2,333.5 L 557.1,333.5 L 562.1,333.2 L 567.0,333.2 L 572.0,333.2 L 576.9,333.2 L 581.9,332.9 L 586.8,332.9 L 591.8,332.6 L 596.7,332.6 L 601.7,332.6 L 606.6,332.6 L 611.6,332.6 L 616.5,332.6 L 621.5,332.6 L 626.4,332.6 L 631.4,332.6 L 636.3,332.6 L 641.3,332.6 L 646.2,332.6 L 651.2,332.6 L 656.1,332.6 L 661.1,332.6 L 666.0,332.6 L 671.0,332.6 L 675.9,332.6 L 680.9,332.6 L 685.8,332.6 L 690.8,332.6 L 695.7,332.6 L 700.7,332.6 L 705.6,332.6 L 710.6,332.6 L 715.5,332.6 L 720.5,332.6 L 725.4,332.6 L 730.4,332.6 L 735.3,332.6 L 740.3,332.6 L 745.2,332.6 L 750.2,332.6 L 755.1,332.6 L 760.1,332.6 L 765.0,332.6 L 770.0,332.6" fill="none" stroke="#FF6363" stroke-width="2.5" stroke-linejoin="round" clip-path="url(#ca)"/>
<text x="99.2" y="55.0" text-anchor="middle" font-size="9" fill="#34C759" opacity="0.85" clip-path="url(#ca)">+15.2% (+50)</text>
<text x="99.2" y="66.0" text-anchor="middle" font-size="9" fill="#4F8EF7" opacity="0.85" clip-path="url(#ca)">+2.8% (+11)</text>
<text x="99.2" y="77.0" text-anchor="middle" font-size="9" fill="#FF6363" opacity="0.85" clip-path="url(#ca)">+66.7% (+4)</text>
<text x="193.3" y="55.0" text-anchor="middle" font-size="9" fill="#34C759" opacity="0.85" clip-path="url(#ca)">+20.1% (+77)</text>
<text x="193.3" y="66.0" text-anchor="middle" font-size="9" fill="#4F8EF7" opacity="0.85" clip-path="url(#ca)">+16.8% (+69)</text>
<text x="193.3" y="77.0" text-anchor="middle" font-size="9" fill="#FF6363" opacity="0.85" clip-path="url(#ca)">+90.0% (+9)</text>
<text x="324.5" y="55.0" text-anchor="middle" font-size="9" fill="#34C759" opacity="0.85" clip-path="url(#ca)">+16.1% (+74)</text>
<text x="324.5" y="66.0" text-anchor="middle" font-size="9" fill="#4F8EF7" opacity="0.85" clip-path="url(#ca)">+17.3% (+83)</text>
<text x="324.5" y="77.0" text-anchor="middle" font-size="9" fill="#FF6363" opacity="0.85" clip-path="url(#ca)">+10.5% (+2)</text>
<text x="458.1" y="55.0" text-anchor="middle" font-size="9" fill="#34C759" opacity="0.85" clip-path="url(#ca)">+10.5% (+56)</text>
<text x="458.1" y="66.0" text-anchor="middle" font-size="9" fill="#4F8EF7" opacity="0.85" clip-path="url(#ca)">+14.4% (+81)</text>
<text x="458.1" y="77.0" text-anchor="middle" font-size="9" fill="#FF6363" opacity="0.85" clip-path="url(#ca)">+0.0% (+0)</text>
<text x="591.8" y="55.0" text-anchor="middle" font-size="9" fill="#34C759" opacity="0.85" clip-path="url(#ca)">+6.2% (+37)</text>
<text x="591.8" y="66.0" text-anchor="middle" font-size="9" fill="#4F8EF7" opacity="0.85" clip-path="url(#ca)">+6.1% (+46)</text>
<text x="591.8" y="77.0" text-anchor="middle" font-size="9" fill="#FF6363" opacity="0.85" clip-path="url(#ca)">+19.0% (+4)</text>
<text x="715.5" y="55.0" text-anchor="middle" font-size="9" fill="#34C759" opacity="0.85" clip-path="url(#ca)">+8.1% (+51)</text>
<text x="715.5" y="66.0" text-anchor="middle" font-size="9" fill="#4F8EF7" opacity="0.85" clip-path="url(#ca)">+7.4% (+59)</text>
<text x="715.5" y="77.0" text-anchor="middle" font-size="9" fill="#FF6363" opacity="0.85" clip-path="url(#ca)">+0.0% (+0)</text>
<rect x="211" y="369" width="12" height="12" fill="#34C759" rx="2"/>
<text x="227" y="379" font-size="12" fill="#111827">macOS + Windows</text>
<rect x="351" y="369" width="12" height="12" fill="#4F8EF7" rx="2"/>
<text x="367" y="379" font-size="12" fill="#111827">macOS only</text>
<rect x="491" y="369" width="12" height="12" fill="#FF6363" rx="2"/>
<text x="507" y="379" font-size="12" fill="#111827">Windows only</text>
<text x="72" y="394" font-size="8" fill="#e5e7eb">data since Dec 11, 2025</text>
</svg>