<svg xmlns="http://www.w3.org/2000/svg" width="800" height="400" viewBox="0 0 800 400">
<defs><style>text { font-family: -apple-system, BlinkMacSystemFont, 'Segoe UI', Roboto, sans-serif; }</style></defs>
<rect width="800" height="400" fill="#ffffff" rx="12"/>
<text x="400" y="26" text-anchor="middle" font-size="15" font-weight="600" fill="#111827">Packages by Last Updated Quarter</text>
<text x="400" y="44" text-anchor="middle" font-size="11" fill="#6b7280">last updated at · 2,810 packages with a known last-update date</text>
<line x1="60" y1="58" x2="60" y2="320" stroke="#e5e7eb" stroke-width="1"/>
<line x1="60" y1="320" x2="770" y2="320" stroke="#e5e7eb" stroke-width="1"/>
<text x="-189" y="18" text-anchor="middle" font-size="12" fill="#6b7280" transform="rotate(-90)">Number of packages</text>
<line x1="60" y1="320.0" x2="770" y2="320.0" stroke="#f3f4f6" stroke-width="1"/>
<text x="54" y="324.0" text-anchor="end" font-size="11" fill="#6b7280">0</text>
<line x1="60" y1="267.5" x2="770" y2="267.5" stroke="#f3f4f6" stroke-width="1"/>
<text x="54" y="271.5" text-anchor="end" font-size="11" fill="#6b7280">151</text>
<line x1="60" y1="215.1" x2="770" y2="215.1" stroke="#f3f4f6" stroke-width="1"/>
<text x="54" y="219.1" text-anchor="end" font-size="11" fill="#6b7280">302</text>
<line x1="60" y1="162.9" x2="770" y2="162.9" stroke="#f3f4f6" stroke-width="1"/>
<text x="54" y="166.9" text-anchor="end" font-size="11" fill="#6b7280">452</text>
<line x1="60" y1="110.5" x2="770" y2="110.5" stroke="#f3f4f6" stroke-width="1"/>
<text x="54" y="114.5" text-anchor="end" font-size="11" fill="#6b7280">603</text>
<line x1="60" y1="58.0" x2="770" y2="58.0" stroke="#f3f4f6" stroke-width="1"/>
<text x="54" y="62.0" text-anchor="end" font-size="11" fill="#6b7280">754</text>
<rect x="66.5" y="315.1" width="24.3" height="4.9" fill="#34C759" rx="3" opacity="0.85"/>
<text x="78.7" y="299.1" text-anchor="middle" font-size="10" fill="#6b7280">14</text>
<text x="78.7" y="311.1" text-anchor="middle" font-size="10" fill="#6b7280">(0.50%)</text>
<g transform="translate(78.7,330.0) rotate(-45)"><text text-anchor="end" font-size="10" fill="#111827">2021-Q4</text></g>
<rect x="103.9" y="309.9" width="24.3" height="10.1" fill="#34C759" rx="3" opacity="0.85"/>
<text x="116.1" y="293.9" text-anchor="middle" font-size="10" fill="#6b7280">29</text>
<text x="116.1" y="305.9" text-anchor="middle" font-size="10" fill="#6b7280">(1.03%)</text>
<g transform="translate(116.1,330.0) rotate(-45)"><text text-anchor="end" font-size="10" fill="#111827">2022-Q1</text></g>
<rect x="141.3" y="307.5" width="24.3" height="12.5" fill="#34C759" rx="3" opacity="0.85"/>
<text x="153.4" y="291.5" text-anchor="middle" font-size="10" fill="#6b7280">36</text>
<text x="153.4" y="303.5" text-anchor="middle" font-size="10" fill="#6b7280">(1.28%)</text>
<g transform="translate(153.4,330.0) rotate(-45)"><text text-anchor="end" font-size="10" fill="#111827">2022-Q2</text></g>
<rect x="178.6" y="305.4" width="24.3" height="14.6" fill="#34C759" rx="3" opacity="0.85"/>
<text x="190.8" y="289.4" text-anchor="middle" font-size="10" fill="#6b7280">42</text>
<text x="190.8" y="301.4" text-anchor="middle" font-size="10" fill="#6b7280">(1.49%)</text>
<g transform="translate(190.8,330.0) rotate(-45)"><text text-anchor="end" font-size="10" fill="#111827">2022-Q3</text></g>
<rect x="216.0" y="297.8" width="24.3" height="22.2" fill="#34C759" rx="3" opacity="0.85"/>
<text x="228.2" y="281.8" text-anchor="middle" font-size="10" fill="#6b7280">64</text>
<text x="228.2" y="293.8" text-anchor="middle" font-size="10" fill="#6b7280">(2.28%)</text>
<g transform="translate(228.2,330.0) rotate(-45)"><text text-anchor="end" font-size="10" fill="#111827">2022-Q4</text></g>
<rect x="253.4" y="288.4" width="24.3" height="31.6" fill="#34C759" rx="3" opacity="0.85"/>
<text x="265.5" y="272.4" text-anchor="middle" font-size="10" fill="#6b7280">91</text>
<text x="265.5" y="284.4" text-anchor="middle" font-size="10" fill="#6b7280">(3.24%)</text>
<g transform="translate(265.5,330.0) rotate(-45)"><text text-anchor="end" font-size="10" fill="#111827">2023-Q1</text></g>
<rect x="290.8" y="288.4" width="24.3" height="31.6" fill="#34C759" rx="3" opacity="0.85"/>
<text x="302.9" y="272.4" text-anchor="middle" font-size="10" fill="#6b7280">91</text>
<text x="302.9" y="284.4" text-anchor="middle" font-size="10" fill="#6b7280">(3.24%)</text>
<g transform="translate(302.9,330.0) rotate(-45)"><text text-anchor="end" font-size="10" fill="#111827">2023-Q2</text></g>
<rect x="328.1" y="289.4" width="24.3" height="30.6" fill="#34C759" rx="3" opacity="0.85"/>
<text x="340.3" y="273.4" text-anchor="middle" font-size="10" fill="#6b7280">88</text>
<text x="340.3" y="285.4" text-anchor="middle" font-size="10" fill="#6b7280">(3.13%)</text>
<g transform="translate(340.3,330.0) rotate(-45)"><text text-anchor="end" font-size="10" fill="#111827">2023-Q3</text></g>
<rect x="365.5" y="295.7" width="24.3" height="24.3" fill="#34C759" rx="3" opacity="0.85"/>
<text x="377.6" y="279.7" text-anchor="middle" font-size="10" fill="#6b7280">70</text>
<text x="377.6" y="291.7" text-anchor="middle" font-size="10" fill="#6b7280">(2.49%)</text>
<g transform="translate(377.6,330.0) rotate(-45)"><text text-anchor="end" font-size="10" fill="#111827">2023-Q4</text></g>
<rect x="402.9" y="277.6" width="24.3" height="42.4" fill="#34C759" rx="3" opacity="0.85"/>
<text x="415.0" y="261.6" text-anchor="middle" font-size="10" fill="#6b7280">122</text>
<text x="415.0" y="273.6" text-anchor="middle" font-size="10" fill="#6b7280">(4.34%)</text>
<g transform="translate(415.0,330.0) rotate(-45)"><text text-anchor="end" font-size="10" fill="#111827">2024-Q1</text></g>
<rect x="440.2" y="272.7" width="24.3" height="47.3" fill="#34C759" rx="3" opacity="0.85"/>
<text x="452.4" y="256.7" text-anchor="middle" font-size="10" fill="#6b7280">136</text>
<text x="452.4" y="268.7" text-anchor="middle" font-size="10" fill="#6b7280">(4.84%)</text>
<g transform="translate(452.4,330.0) rotate(-45)"><text text-anchor="end" font-size="10" fill="#111827">2024-Q2</text></g>
<rect x="477.6" y="274.1" width="24.3" height="45.9" fill="#34C759" rx="3" opacity="0.85"/>
<text x="489.7" y="258.1" text-anchor="middle" font-size="10" fill="#6b7280">132</text>
<text x="489.7" y="270.1" text-anchor="middle" font-size="10" fill="#6b7280">(4.70%)</text>
<g transform="translate(489.7,330.0) rotate(-45)"><text text-anchor="end" font-size="10" fill="#111827">2024-Q3</text></g>
<rect x="515.0" y="272.7" width="24.3" height="47.3" fill="#34C759" rx="3" opacity="0.85"/>
<text x="527.1" y="256.7" text-anchor="middle" font-size="10" fill="#6b7280">136</text>
<text x="527.1" y="268.7" text-anchor="middle" font-size="10" fill="#6b7280">(4.84%)</text>
<g transform="translate(527.1,330.0) rotate(-45)"><text text-anchor="end" font-size="10" fill="#111827">2024-Q4</text></g>
<rect x="552.3" y="247.0" width="24.3" height="73.0" fill="#34C759" rx="3" opacity="0.85"/>
<text x="564.5" y="231.0" text-anchor="middle" font-size="10" fill="#6b7280">210</text>
<text x="564.5" y="243.0" text-anchor="middle" font-size="10" fill="#6b7280">(7.47%)</text>
<g transform="translate(564.5,330.0) rotate(-45)"><text text-anchor="end" font-size="10" fill="#111827">2025-Q1</text></g>
<rect x="589.7" y="240.4" width="24.3" height="79.6" fill="#34C759" rx="3" opacity="0.85"/>
<text x="601.8" y="224.4" text-anchor="middle" font-size="10" fill="#6b7280">229</text>
<text x="601.8" y="236.4" text-anchor="middle" font-size="10" fill="#6b7280">(8.15%)</text>
<g transform="translate(601.8,330.0) rotate(-45)"><text text-anchor="end" font-size="10" fill="#111827">2025-Q2</text></g>
<rect x="627.1" y="241.8" width="24.3" height="78.2" fill="#34C759" rx="3" opacity="0.85"/>
<text x="639.2" y="225.8" text-anchor="middle" font-size="10" fill="#6b7280">225</text>
<text x="639.2" y="237.8" text-anchor="middle" font-size="10" fill="#6b7280">(8.01%)</text>
<g transform="translate(639.2,330.0) rotate(-45)"><text text-anchor="end" font-size="10" fill="#111827">2025-Q3</text></g>
<rect x="664.4" y="203.9" width="24.3" height="116.1" fill="#34C759" rx="3" opacity="0.85"/>
<text x="676.6" y="187.9" text-anchor="middle" font-size="10" fill="#6b7280">334</text>
<text x="676.6" y="199.9" text-anchor="middle" font-size="10" fill="#6b7280">(11.89%)</text>
<g transform="translate(676.6,330.0) rotate(-45)"><text text-anchor="end" font-size="10" fill="#111827">2025-Q4</text></g>
<rect x="701.8" y="58.0" width="24.3" height="262.0" fill="#34C759" rx="3" opacity="0.85"/>
<text x="713.9" y="72.0" text-anchor="middle" font-size="10" fill="#6b7280">754</text>
<text x="713.9" y="84.0" text-anchor="middle" font-size="10" fill="#6b7280">(26.83%)</text>
<g transform="translate(713.9,330.0) rotate(-45)"><text text-anchor="end" font-size="10" fill="#111827">2026-Q1</text></g>
<rect x="739.2" y="317.6" width="24.3" height="2.4" fill="#34C759" rx="3" opacity="0.85"/>
<text x="751.3" y="301.6" text-anchor="middle" font-size="10" fill="#6b7280">7</text>
<text x="751.3" y="313.6" text-anchor="middle" font-size="10" fill="#6b7280">(0.25%)</text>
<g transform="translate(751.3,330.0) rotate(-45)"><text text-anchor="end" font-size="10" fill="#111827">2026-Q2</text></g>
</svg>