<svg xmlns="http://www.w3.org/2000/svg" width="800" height="400" viewBox="0 0 800 400">
<defs><style>text { font-family: -apple-system, BlinkMacSystemFont, 'Segoe UI', Roboto, sans-serif; }</style></defs>
<rect width="800" height="400" fill="#ffffff" rx="12"/>
<text x="400" y="26" text-anchor="middle" font-size="15" font-weight="600" fill="#111827">Packages by Last Updated Quarter</text>
<text x="400" y="44" text-anchor="middle" font-size="11" fill="#6b7280">last updated at · 3,005 packages with a known last-update date</text>
<line x1="60" y1="58" x2="60" y2="320" stroke="#e5e7eb" stroke-width="1"/>
<line x1="60" y1="320" x2="770" y2="320" stroke="#e5e7eb" stroke-width="1"/>
<text x="-189" y="18" text-anchor="middle" font-size="12" fill="#6b7280" transform="rotate(-90)">Number of packages</text>
<line x1="60" y1="320.0" x2="770" y2="320.0" stroke="#f3f4f6" stroke-width="1"/>
<text x="54" y="324.0" text-anchor="end" font-size="11" fill="#6b7280">0</text>
<line x1="60" y1="267.7" x2="770" y2="267.7" stroke="#f3f4f6" stroke-width="1"/>
<text x="54" y="271.7" text-anchor="end" font-size="11" fill="#6b7280">122</text>
<line x1="60" y1="215.4" x2="770" y2="215.4" stroke="#f3f4f6" stroke-width="1"/>
<text x="54" y="219.4" text-anchor="end" font-size="11" fill="#6b7280">244</text>
<line x1="60" y1="162.6" x2="770" y2="162.6" stroke="#f3f4f6" stroke-width="1"/>
<text x="54" y="166.6" text-anchor="end" font-size="11" fill="#6b7280">367</text>
<line x1="60" y1="110.3" x2="770" y2="110.3" stroke="#f3f4f6" stroke-width="1"/>
<text x="54" y="114.3" text-anchor="end" font-size="11" fill="#6b7280">489</text>
<line x1="60" y1="58.0" x2="770" y2="58.0" stroke="#f3f4f6" stroke-width="1"/>
<text x="54" y="62.0" text-anchor="end" font-size="11" fill="#6b7280">611</text>
<rect x="66.5" y="314.4" width="24.3" height="5.6" fill="#34C759" rx="3" opacity="0.85"/>
<text x="78.7" y="298.4" text-anchor="middle" font-size="10" fill="#6b7280">13</text>
<text x="78.7" y="310.4" text-anchor="middle" font-size="10" fill="#6b7280">(0.43%)</text>
<g transform="translate(78.7,330.0) rotate(-45)"><text text-anchor="end" font-size="10" fill="#111827">2021-Q4</text></g>
<rect x="103.9" y="308.0" width="24.3" height="12.0" fill="#34C759" rx="3" opacity="0.85"/>
<text x="116.1" y="292.0" text-anchor="middle" font-size="10" fill="#6b7280">28</text>
<text x="116.1" y="304.0" text-anchor="middle" font-size="10" fill="#6b7280">(0.93%)</text>
<g transform="translate(116.1,330.0) rotate(-45)"><text text-anchor="end" font-size="10" fill="#111827">2022-Q1</text></g>
<rect x="141.3" y="305.0" width="24.3" height="15.0" fill="#34C759" rx="3" opacity="0.85"/>
<text x="153.4" y="289.0" text-anchor="middle" font-size="10" fill="#6b7280">35</text>
<text x="153.4" y="301.0" text-anchor="middle" font-size="10" fill="#6b7280">(1.16%)</text>
<g transform="translate(153.4,330.0) rotate(-45)"><text text-anchor="end" font-size="10" fill="#111827">2022-Q2</text></g>
<rect x="178.6" y="303.3" width="24.3" height="16.7" fill="#34C759" rx="3" opacity="0.85"/>
<text x="190.8" y="287.3" text-anchor="middle" font-size="10" fill="#6b7280">39</text>
<text x="190.8" y="299.3" text-anchor="middle" font-size="10" fill="#6b7280">(1.30%)</text>
<g transform="translate(190.8,330.0) rotate(-45)"><text text-anchor="end" font-size="10" fill="#111827">2022-Q3</text></g>
<rect x="216.0" y="293.4" width="24.3" height="26.6" fill="#34C759" rx="3" opacity="0.85"/>
<text x="228.2" y="277.4" text-anchor="middle" font-size="10" fill="#6b7280">62</text>
<text x="228.2" y="289.4" text-anchor="middle" font-size="10" fill="#6b7280">(2.06%)</text>
<g transform="translate(228.2,330.0) rotate(-45)"><text text-anchor="end" font-size="10" fill="#111827">2022-Q4</text></g>
<rect x="253.4" y="282.3" width="24.3" height="37.7" fill="#34C759" rx="3" opacity="0.85"/>
<text x="265.5" y="266.3" text-anchor="middle" font-size="10" fill="#6b7280">88</text>
<text x="265.5" y="278.3" text-anchor="middle" font-size="10" fill="#6b7280">(2.93%)</text>
<g transform="translate(265.5,330.0) rotate(-45)"><text text-anchor="end" font-size="10" fill="#111827">2023-Q1</text></g>
<rect x="290.8" y="281.8" width="24.3" height="38.2" fill="#34C759" rx="3" opacity="0.85"/>
<text x="302.9" y="265.8" text-anchor="middle" font-size="10" fill="#6b7280">89</text>
<text x="302.9" y="277.8" text-anchor="middle" font-size="10" fill="#6b7280">(2.96%)</text>
<g transform="translate(302.9,330.0) rotate(-45)"><text text-anchor="end" font-size="10" fill="#111827">2023-Q2</text></g>
<rect x="328.1" y="284.8" width="24.3" height="35.2" fill="#34C759" rx="3" opacity="0.85"/>
<text x="340.3" y="268.8" text-anchor="middle" font-size="10" fill="#6b7280">82</text>
<text x="340.3" y="280.8" text-anchor="middle" font-size="10" fill="#6b7280">(2.73%)</text>
<g transform="translate(340.3,330.0) rotate(-45)"><text text-anchor="end" font-size="10" fill="#111827">2023-Q3</text></g>
<rect x="365.5" y="293.4" width="24.3" height="26.6" fill="#34C759" rx="3" opacity="0.85"/>
<text x="377.6" y="277.4" text-anchor="middle" font-size="10" fill="#6b7280">62</text>
<text x="377.6" y="289.4" text-anchor="middle" font-size="10" fill="#6b7280">(2.06%)</text>
<g transform="translate(377.6,330.0) rotate(-45)"><text text-anchor="end" font-size="10" fill="#111827">2023-Q4</text></g>
<rect x="402.9" y="273.3" width="24.3" height="46.7" fill="#34C759" rx="3" opacity="0.85"/>
<text x="415.0" y="257.3" text-anchor="middle" font-size="10" fill="#6b7280">109</text>
<text x="415.0" y="269.3" text-anchor="middle" font-size="10" fill="#6b7280">(3.63%)</text>
<g transform="translate(415.0,330.0) rotate(-45)"><text text-anchor="end" font-size="10" fill="#111827">2024-Q1</text></g>
<rect x="440.2" y="266.4" width="24.3" height="53.6" fill="#34C759" rx="3" opacity="0.85"/>
<text x="452.4" y="250.4" text-anchor="middle" font-size="10" fill="#6b7280">125</text>
<text x="452.4" y="262.4" text-anchor="middle" font-size="10" fill="#6b7280">(4.16%)</text>
<g transform="translate(452.4,330.0) rotate(-45)"><text text-anchor="end" font-size="10" fill="#111827">2024-Q2</text></g>
<rect x="477.6" y="267.7" width="24.3" height="52.3" fill="#34C759" rx="3" opacity="0.85"/>
<text x="489.7" y="251.7" text-anchor="middle" font-size="10" fill="#6b7280">122</text>
<text x="489.7" y="263.7" text-anchor="middle" font-size="10" fill="#6b7280">(4.06%)</text>
<g transform="translate(489.7,330.0) rotate(-45)"><text text-anchor="end" font-size="10" fill="#111827">2024-Q3</text></g>
<rect x="515.0" y="271.1" width="24.3" height="48.9" fill="#34C759" rx="3" opacity="0.85"/>
<text x="527.1" y="255.1" text-anchor="middle" font-size="10" fill="#6b7280">114</text>
<text x="527.1" y="267.1" text-anchor="middle" font-size="10" fill="#6b7280">(3.79%)</text>
<g transform="translate(527.1,330.0) rotate(-45)"><text text-anchor="end" font-size="10" fill="#111827">2024-Q4</text></g>
<rect x="552.3" y="239.0" width="24.3" height="81.0" fill="#34C759" rx="3" opacity="0.85"/>
<text x="564.5" y="223.0" text-anchor="middle" font-size="10" fill="#6b7280">189</text>
<text x="564.5" y="235.0" text-anchor="middle" font-size="10" fill="#6b7280">(6.29%)</text>
<g transform="translate(564.5,330.0) rotate(-45)"><text text-anchor="end" font-size="10" fill="#111827">2025-Q1</text></g>
<rect x="589.7" y="231.2" width="24.3" height="88.8" fill="#34C759" rx="3" opacity="0.85"/>
<text x="601.8" y="215.2" text-anchor="middle" font-size="10" fill="#6b7280">207</text>
<text x="601.8" y="227.2" text-anchor="middle" font-size="10" fill="#6b7280">(6.89%)</text>
<g transform="translate(601.8,330.0) rotate(-45)"><text text-anchor="end" font-size="10" fill="#111827">2025-Q2</text></g>
<rect x="627.1" y="235.1" width="24.3" height="84.9" fill="#34C759" rx="3" opacity="0.85"/>
<text x="639.2" y="219.1" text-anchor="middle" font-size="10" fill="#6b7280">198</text>
<text x="639.2" y="231.1" text-anchor="middle" font-size="10" fill="#6b7280">(6.59%)</text>
<g transform="translate(639.2,330.0) rotate(-45)"><text text-anchor="end" font-size="10" fill="#111827">2025-Q3</text></g>
<rect x="664.4" y="196.9" width="24.3" height="123.1" fill="#34C759" rx="3" opacity="0.85"/>
<text x="676.6" y="180.9" text-anchor="middle" font-size="10" fill="#6b7280">287</text>
<text x="676.6" y="192.9" text-anchor="middle" font-size="10" fill="#6b7280">(9.55%)</text>
<g transform="translate(676.6,330.0) rotate(-45)"><text text-anchor="end" font-size="10" fill="#111827">2025-Q4</text></g>
<rect x="701.8" y="86.3" width="24.3" height="233.7" fill="#34C759" rx="3" opacity="0.85"/>
<text x="713.9" y="72.0" text-anchor="middle" font-size="10" fill="#6b7280">545</text>
<text x="713.9" y="84.0" text-anchor="middle" font-size="10" fill="#6b7280">(18.14%)</text>
<g transform="translate(713.9,330.0) rotate(-45)"><text text-anchor="end" font-size="10" fill="#111827">2026-Q1</text></g>
<rect x="739.2" y="58.0" width="24.3" height="262.0" fill="#34C759" rx="3" opacity="0.85"/>
<text x="751.3" y="72.0" text-anchor="middle" font-size="10" fill="#6b7280">611</text>
<text x="751.3" y="84.0" text-anchor="middle" font-size="10" fill="#6b7280">(20.33%)</text>
<g transform="translate(751.3,330.0) rotate(-45)"><text text-anchor="end" font-size="10" fill="#111827">2026-Q2</text></g>
</svg>