<svg xmlns="http://www.w3.org/2000/svg" width="800" height="400" viewBox="0 0 800 400">
<defs>
  <style>text { font-family: -apple-system, BlinkMacSystemFont, 'Segoe UI', Roboto, sans-serif; }</style>
  <linearGradient id="g1" x1="0" y1="0" x2="0" y2="1">
  <stop offset="0%" stop-color="#FF6363" stop-opacity="0.25"/>
  <stop offset="100%" stop-color="#FF6363" stop-opacity="0"/>
</linearGradient>
  <clipPath id="ca"><rect x="72" y="45" width="698" height="295"/></clipPath>
</defs>
<rect width="800" height="400" fill="#ffffff" rx="12"/>
<text x="400" y="26" text-anchor="middle" font-size="15" font-weight="600" fill="#111827">Packages Growth Over Time</text>
<line x1="72" y1="340.0" x2="770" y2="340.0" stroke="#f3f4f6" stroke-width="1"/>
<text x="66" y="344.0" text-anchor="end" font-size="11" fill="#6b7280">2.4k</text>
<line x1="72" y1="290.8" x2="770" y2="290.8" stroke="#f3f4f6" stroke-width="1"/>
<text x="66" y="294.8" text-anchor="end" font-size="11" fill="#6b7280">2.5k</text>
<line x1="72" y1="241.7" x2="770" y2="241.7" stroke="#f3f4f6" stroke-width="1"/>
<text x="66" y="245.7" text-anchor="end" font-size="11" fill="#6b7280">2.6k</text>
<line x1="72" y1="192.5" x2="770" y2="192.5" stroke="#f3f4f6" stroke-width="1"/>
<text x="66" y="196.5" text-anchor="end" font-size="11" fill="#6b7280">2.7k</text>
<line x1="72" y1="143.3" x2="770" y2="143.3" stroke="#f3f4f6" stroke-width="1"/>
<text x="66" y="147.3" text-anchor="end" font-size="11" fill="#6b7280">2.8k</text>
<line x1="72" y1="94.2" x2="770" y2="94.2" stroke="#f3f4f6" stroke-width="1"/>
<text x="66" y="98.2" text-anchor="end" font-size="11" fill="#6b7280">2.9k</text>
<line x1="72" y1="45.0" x2="770" y2="45.0" stroke="#f3f4f6" stroke-width="1"/>
<text x="66" y="49.0" text-anchor="end" font-size="11" fill="#6b7280">3.0k</text>
<line x1="135.9" y1="45" x2="135.9" y2="340" stroke="#e5e7eb" stroke-width="1" stroke-dasharray="3,3" clip-path="url(#ca)"/>
<line x1="274.5" y1="45" x2="274.5" y2="340" stroke="#e5e7eb" stroke-width="1" stroke-dasharray="3,3" clip-path="url(#ca)"/>
<line x1="418.3" y1="45" x2="418.3" y2="340" stroke="#e5e7eb" stroke-width="1" stroke-dasharray="3,3" clip-path="url(#ca)"/>
<line x1="562.2" y1="45" x2="562.2" y2="340" stroke="#e5e7eb" stroke-width="1" stroke-dasharray="3,3" clip-path="url(#ca)"/>
<line x1="706.1" y1="45" x2="706.1" y2="340" stroke="#e5e7eb" stroke-width="1" stroke-dasharray="3,3" clip-path="url(#ca)"/>
<text x="72.0" y="358.0" text-anchor="middle" font-size="11" fill="#6b7280">Dec 11</text>
<text x="210.5" y="358.0" text-anchor="middle" font-size="11" fill="#6b7280">Jan 20</text>
<text x="349.1" y="358.0" text-anchor="middle" font-size="11" fill="#6b7280">Feb 15</text>
<text x="492.9" y="358.0" text-anchor="middle" font-size="11" fill="#6b7280">Mar 16</text>
<text x="631.5" y="358.0" text-anchor="middle" font-size="11" fill="#6b7280">Apr 15</text>
<text x="770.0" y="358.0" text-anchor="middle" font-size="11" fill="#6b7280">May 18</text>
<line x1="72" y1="45" x2="72" y2="340" stroke="#e5e7eb" stroke-width="1"/>
<line x1="72" y1="340" x2="770" y2="340" stroke="#e5e7eb" stroke-width="1"/>
<text x="-192.5" y="18" text-anchor="middle" font-size="12" fill="#6b7280" transform="rotate(-90)">Extensions</text>
<path d="M 72.0,340 L 72.0,302.1 L 77.3,301.6 L 82.7,301.6 L 88.0,300.2 L 93.3,300.2 L 98.6,299.2 L 104.0,298.2 L 109.3,297.7 L 114.6,295.3 L 120.0,293.3 L 125.3,293.3 L 130.6,293.3 L 135.9,293.3 L 141.3,292.3 L 146.6,292.3 L 151.9,292.3 L 157.3,291.3 L 162.6,289.4 L 167.9,285.9 L 173.2,283.5 L 178.6,282.5 L 183.9,282.0 L 189.2,280.0 L 194.5,274.1 L 199.9,272.1 L 205.2,272.1 L 210.5,267.2 L 215.9,265.8 L 221.2,263.8 L 226.5,262.3 L 231.8,259.4 L 237.2,256.9 L 242.5,256.4 L 247.8,252.5 L 253.2,249.0 L 258.5,249.0 L 263.8,246.6 L 269.1,244.6 L 274.5,244.1 L 279.8,243.6 L 285.1,243.1 L 290.5,241.7 L 295.8,232.8 L 301.1,228.9 L 306.4,226.9 L 311.8,225.9 L 317.1,224.5 L 322.4,221.0 L 327.8,220.0 L 333.1,219.1 L 338.4,216.1 L 343.7,215.1 L 349.1,214.1 L 354.4,214.1 L 359.7,205.3 L 365.1,204.3 L 370.4,203.3 L 375.7,201.3 L 381.0,198.9 L 386.4,198.9 L 391.7,195.0 L 397.0,188.6 L 402.4,187.6 L 407.7,188.1 L 413.0,186.6 L 418.3,186.1 L 423.7,186.1 L 429.0,183.2 L 434.3,180.7 L 439.6,178.7 L 445.0,176.3 L 450.3,175.8 L 455.6,175.8 L 461.0,172.3 L 466.3,171.4 L 471.6,170.9 L 476.9,165.0 L 482.3,164.5 L 487.6,164.5 L 492.9,164.5 L 498.3,164.0 L 503.6,161.5 L 508.9,159.6 L 514.2,157.1 L 519.6,156.6 L 524.9,155.1 L 530.2,150.7 L 535.6,146.8 L 540.9,146.3 L 546.2,145.8 L 551.5,144.3 L 556.9,139.4 L 562.2,138.4 L 567.5,136.9 L 572.9,134.0 L 578.2,133.5 L 583.5,133.0 L 588.8,133.0 L 594.2,132.0 L 599.5,129.1 L 604.8,128.1 L 610.2,127.1 L 615.5,126.6 L 620.8,125.6 L 626.1,120.7 L 631.5,120.2 L 636.8,119.2 L 642.1,118.8 L 647.5,116.3 L 652.8,115.8 L 658.1,115.3 L 663.4,113.8 L 668.8,111.9 L 674.1,111.9 L 679.4,111.9 L 684.7,111.9 L 690.1,110.9 L 695.4,108.4 L 700.7,107.9 L 706.1,105.5 L 711.4,105.0 L 716.7,104.5 L 722.0,101.5 L 727.4,98.6 L 732.7,98.1 L 738.0,97.6 L 743.4,91.2 L 748.7,89.3 L 754.0,87.8 L 759.3,87.3 L 764.7,83.8 L 770.0,83.8 L 770.0,340 Z" fill="url(#g1)" clip-path="url(#ca)"/>
<path d="M 72.0,302.1 L 77.3,301.6 L 82.7,301.6 L 88.0,300.2 L 93.3,300.2 L 98.6,299.2 L 104.0,298.2 L 109.3,297.7 L 114.6,295.3 L 120.0,293.3 L 125.3,293.3 L 130.6,293.3 L 135.9,293.3 L 141.3,292.3 L 146.6,292.3 L 151.9,292.3 L 157.3,291.3 L 162.6,289.4 L 167.9,285.9 L 173.2,283.5 L 178.6,282.5 L 183.9,282.0 L 189.2,280.0 L 194.5,274.1 L 199.9,272.1 L 205.2,272.1 L 210.5,267.2 L 215.9,265.8 L 221.2,263.8 L 226.5,262.3 L 231.8,259.4 L 237.2,256.9 L 242.5,256.4 L 247.8,252.5 L 253.2,249.0 L 258.5,249.0 L 263.8,246.6 L 269.1,244.6 L 274.5,244.1 L 279.8,243.6 L 285.1,243.1 L 290.5,241.7 L 295.8,232.8 L 301.1,228.9 L 306.4,226.9 L 311.8,225.9 L 317.1,224.5 L 322.4,221.0 L 327.8,220.0 L 333.1,219.1 L 338.4,216.1 L 343.7,215.1 L 349.1,214.1 L 354.4,214.1 L 359.7,205.3 L 365.1,204.3 L 370.4,203.3 L 375.7,201.3 L 381.0,198.9 L 386.4,198.9 L 391.7,195.0 L 397.0,188.6 L 402.4,187.6 L 407.7,188.1 L 413.0,186.6 L 418.3,186.1 L 423.7,186.1 L 429.0,183.2 L 434.3,180.7 L 439.6,178.7 L 445.0,176.3 L 450.3,175.8 L 455.6,175.8 L 461.0,172.3 L 466.3,171.4 L 471.6,170.9 L 476.9,165.0 L 482.3,164.5 L 487.6,164.5 L 492.9,164.5 L 498.3,164.0 L 503.6,161.5 L 508.9,159.6 L 514.2,157.1 L 519.6,156.6 L 524.9,155.1 L 530.2,150.7 L 535.6,146.8 L 540.9,146.3 L 546.2,145.8 L 551.5,144.3 L 556.9,139.4 L 562.2,138.4 L 567.5,136.9 L 572.9,134.0 L 578.2,133.5 L 583.5,133.0 L 588.8,133.0 L 594.2,132.0 L 599.5,129.1 L 604.8,128.1 L 610.2,127.1 L 615.5,126.6 L 620.8,125.6 L 626.1,120.7 L 631.5,120.2 L 636.8,119.2 L 642.1,118.8 L 647.5,116.3 L 652.8,115.8 L 658.1,115.3 L 663.4,113.8 L 668.8,111.9 L 674.1,111.9 L 679.4,111.9 L 684.7,111.9 L 690.1,110.9 L 695.4,108.4 L 700.7,107.9 L 706.1,105.5 L 711.4,105.0 L 716.7,104.5 L 722.0,101.5 L 727.4,98.6 L 732.7,98.1 L 738.0,97.6 L 743.4,91.2 L 748.7,89.3 L 754.0,87.8 L 759.3,87.3 L 764.7,83.8 L 770.0,83.8" fill="none" stroke="#FF6363" stroke-width="2.5" stroke-linejoin="round" clip-path="url(#ca)"/>
<text x="101.3" y="55.0" text-anchor="middle" font-size="9" fill="#FF6363" opacity="0.85" clip-path="url(#ca)">+0.7% (+18)</text>
<text x="202.5" y="55.0" text-anchor="middle" font-size="9" fill="#FF6363" opacity="0.85" clip-path="url(#ca)">+4.0% (+99)</text>
<text x="343.7" y="55.0" text-anchor="middle" font-size="9" fill="#FF6363" opacity="0.85" clip-path="url(#ca)">+4.5% (+117)</text>
<text x="487.6" y="55.0" text-anchor="middle" font-size="9" fill="#FF6363" opacity="0.85" clip-path="url(#ca)">+3.5% (+95)</text>
<text x="631.5" y="55.0" text-anchor="middle" font-size="9" fill="#FF6363" opacity="0.85" clip-path="url(#ca)">+2.2% (+62)</text>
<text x="738.0" y="55.0" text-anchor="middle" font-size="9" fill="#FF6363" opacity="0.85" clip-path="url(#ca)">+1.5% (+44)</text>
<rect x="351" y="369" width="12" height="12" fill="#FF6363" rx="2"/>
<text x="367" y="379" font-size="12" fill="#111827">Extensions</text>
<text x="72" y="394" font-size="8" fill="#e5e7eb">data since Dec 11, 2025</text>
</svg>