<svg xmlns="http://www.w3.org/2000/svg" width="800" height="400" viewBox="0 0 800 400">
<defs>
  <style>text { font-family: -apple-system, BlinkMacSystemFont, 'Segoe UI', Roboto, sans-serif; }</style>
  <linearGradient id="g2" x1="0" y1="0" x2="0" y2="1">
  <stop offset="0%" stop-color="#4F8EF7" stop-opacity="0.25"/>
  <stop offset="100%" stop-color="#4F8EF7" stop-opacity="0"/>
</linearGradient>
<linearGradient id="g3" x1="0" y1="0" x2="0" y2="1">
  <stop offset="0%" stop-color="#BF5AF2" stop-opacity="0.25"/>
  <stop offset="100%" stop-color="#BF5AF2" stop-opacity="0"/>
</linearGradient>
<linearGradient id="g4" x1="0" y1="0" x2="0" y2="1">
  <stop offset="0%" stop-color="#34C759" stop-opacity="0.25"/>
  <stop offset="100%" stop-color="#34C759" stop-opacity="0"/>
</linearGradient>
  <clipPath id="ca"><rect x="72" y="45" width="698" height="295"/></clipPath>
</defs>
<rect width="800" height="400" fill="#ffffff" rx="12"/>
<text x="400" y="26" text-anchor="middle" font-size="15" font-weight="600" fill="#111827">Community Growth Over Time</text>
<line x1="72" y1="340.0" x2="770" y2="340.0" stroke="#f3f4f6" stroke-width="1"/>
<text x="66" y="344.0" text-anchor="end" font-size="11" fill="#6b7280">500</text>
<line x1="72" y1="241.7" x2="770" y2="241.7" stroke="#f3f4f6" stroke-width="1"/>
<text x="66" y="245.7" text-anchor="end" font-size="11" fill="#6b7280">1.0k</text>
<line x1="72" y1="143.3" x2="770" y2="143.3" stroke="#f3f4f6" stroke-width="1"/>
<text x="66" y="147.3" text-anchor="end" font-size="11" fill="#6b7280">1.5k</text>
<line x1="72" y1="45.0" x2="770" y2="45.0" stroke="#f3f4f6" stroke-width="1"/>
<text x="66" y="49.0" text-anchor="end" font-size="11" fill="#6b7280">2.0k</text>
<line x1="120.7" y1="45" x2="120.7" y2="340" stroke="#e5e7eb" stroke-width="1" stroke-dasharray="3,3" clip-path="url(#ca)"/>
<line x1="226.2" y1="45" x2="226.2" y2="340" stroke="#e5e7eb" stroke-width="1" stroke-dasharray="3,3" clip-path="url(#ca)"/>
<line x1="335.8" y1="45" x2="335.8" y2="340" stroke="#e5e7eb" stroke-width="1" stroke-dasharray="3,3" clip-path="url(#ca)"/>
<line x1="445.3" y1="45" x2="445.3" y2="340" stroke="#e5e7eb" stroke-width="1" stroke-dasharray="3,3" clip-path="url(#ca)"/>
<line x1="554.9" y1="45" x2="554.9" y2="340" stroke="#e5e7eb" stroke-width="1" stroke-dasharray="3,3" clip-path="url(#ca)"/>
<line x1="660.4" y1="45" x2="660.4" y2="340" stroke="#e5e7eb" stroke-width="1" stroke-dasharray="3,3" clip-path="url(#ca)"/>
<line x1="757.8" y1="45" x2="757.8" y2="340" stroke="#e5e7eb" stroke-width="1" stroke-dasharray="3,3" clip-path="url(#ca)"/>
<text x="72.0" y="358.0" text-anchor="middle" font-size="11" fill="#6b7280">Dec 11</text>
<text x="210.0" y="358.0" text-anchor="middle" font-size="11" fill="#6b7280">Jan 28</text>
<text x="352.0" y="358.0" text-anchor="middle" font-size="11" fill="#6b7280">Mar 5</text>
<text x="490.0" y="358.0" text-anchor="middle" font-size="11" fill="#6b7280">Apr 13</text>
<text x="632.0" y="358.0" text-anchor="middle" font-size="11" fill="#6b7280">May 25</text>
<text x="770.0" y="358.0" text-anchor="middle" font-size="11" fill="#6b7280">Jul 4</text>
<line x1="72" y1="45" x2="72" y2="340" stroke="#e5e7eb" stroke-width="1"/>
<line x1="72" y1="340" x2="770" y2="340" stroke="#e5e7eb" stroke-width="1"/>
<text x="-192.5" y="18" text-anchor="middle" font-size="12" fill="#6b7280" transform="rotate(-90)">People</text>
<path d="M 72.0,340 L 72.0,120.1 L 76.1,120.1 L 80.1,120.1 L 84.2,119.5 L 88.2,119.5 L 92.3,119.1 L 96.3,118.9 L 100.4,119.1 L 104.5,118.6 L 108.5,118.6 L 112.6,118.6 L 116.6,118.6 L 120.7,118.6 L 124.8,118.6 L 128.8,118.6 L 132.9,118.6 L 136.9,118.4 L 141.0,117.8 L 145.0,116.6 L 149.1,116.0 L 153.2,115.8 L 157.2,115.8 L 161.3,115.2 L 165.3,113.8 L 169.4,113.0 L 173.5,113.0 L 177.5,112.1 L 181.6,111.7 L 185.6,110.9 L 189.7,110.3 L 193.7,109.7 L 197.8,109.1 L 201.9,109.1 L 205.9,107.7 L 210.0,106.9 L 214.0,106.9 L 218.1,106.2 L 222.2,105.8 L 226.2,105.6 L 230.3,105.4 L 234.3,105.4 L 238.4,104.8 L 242.4,102.4 L 246.5,101.0 L 250.6,100.3 L 254.6,100.1 L 258.7,99.7 L 262.7,98.9 L 266.8,98.5 L 270.8,98.1 L 274.9,97.7 L 279.0,97.3 L 283.0,96.9 L 287.1,96.9 L 291.1,95.0 L 295.2,95.0 L 299.3,94.8 L 303.3,94.6 L 307.4,94.2 L 311.4,94.2 L 315.5,93.2 L 319.5,92.0 L 323.6,91.6 L 327.7,92.0 L 331.7,91.8 L 335.8,91.6 L 339.8,91.6 L 343.9,91.2 L 348.0,90.4 L 352.0,90.0 L 356.1,89.6 L 360.1,89.4 L 364.2,89.4 L 368.2,88.7 L 372.3,88.3 L 376.4,88.3 L 380.4,86.7 L 384.5,86.7 L 388.5,86.7 L 392.6,86.7 L 396.7,86.5 L 400.7,85.9 L 404.8,85.1 L 408.8,84.7 L 412.9,84.7 L 416.9,84.3 L 421.0,82.8 L 425.1,81.8 L 429.1,81.6 L 433.2,81.4 L 437.2,80.8 L 441.3,79.6 L 445.3,79.2 L 449.4,78.8 L 453.5,77.6 L 457.5,77.4 L 461.6,77.4 L 465.6,77.4 L 469.7,77.3 L 473.8,76.1 L 477.8,75.9 L 481.9,75.7 L 485.9,75.7 L 490.0,75.3 L 494.0,73.7 L 498.1,73.5 L 502.2,73.3 L 506.2,73.3 L 510.3,72.5 L 514.3,72.3 L 518.4,72.1 L 522.5,71.6 L 526.5,70.8 L 530.6,70.8 L 534.6,70.8 L 538.7,70.8 L 542.7,70.4 L 546.8,69.8 L 550.9,69.6 L 554.9,69.0 L 559.0,68.8 L 563.0,68.6 L 567.1,67.8 L 571.2,67.2 L 575.2,67.0 L 579.3,67.0 L 583.3,65.3 L 587.4,64.7 L 591.4,64.5 L 595.5,64.5 L 599.6,63.5 L 603.6,63.5 L 607.7,62.9 L 611.7,62.3 L 615.8,60.9 L 619.8,60.7 L 623.9,60.5 L 628.0,60.3 L 632.0,60.3 L 636.1,60.1 L 640.1,59.2 L 644.2,58.6 L 648.3,58.6 L 652.3,58.4 L 656.4,58.4 L 660.4,57.8 L 664.5,57.6 L 668.5,57.4 L 672.6,56.8 L 676.7,56.0 L 680.7,56.0 L 684.8,55.8 L 688.8,55.6 L 692.9,54.6 L 697.0,53.3 L 701.0,53.1 L 705.1,52.7 L 709.1,52.3 L 713.2,52.1 L 717.2,51.5 L 721.3,50.7 L 725.4,50.5 L 729.4,49.9 L 733.5,49.5 L 737.5,48.5 L 741.6,48.3 L 745.7,47.9 L 749.7,47.9 L 753.8,47.6 L 757.8,47.2 L 761.9,46.8 L 765.9,46.6 L 770.0,46.2 L 770.0,340 Z" fill="url(#g2)" clip-path="url(#ca)"/>
<path d="M 72.0,120.1 L 76.1,120.1 L 80.1,120.1 L 84.2,119.5 L 88.2,119.5 L 92.3,119.1 L 96.3,118.9 L 100.4,119.1 L 104.5,118.6 L 108.5,118.6 L 112.6,118.6 L 116.6,118.6 L 120.7,118.6 L 124.8,118.6 L 128.8,118.6 L 132.9,118.6 L 136.9,118.4 L 141.0,117.8 L 145.0,116.6 L 149.1,116.0 L 153.2,115.8 L 157.2,115.8 L 161.3,115.2 L 165.3,113.8 L 169.4,113.0 L 173.5,113.0 L 177.5,112.1 L 181.6,111.7 L 185.6,110.9 L 189.7,110.3 L 193.7,109.7 L 197.8,109.1 L 201.9,109.1 L 205.9,107.7 L 210.0,106.9 L 214.0,106.9 L 218.1,106.2 L 222.2,105.8 L 226.2,105.6 L 230.3,105.4 L 234.3,105.4 L 238.4,104.8 L 242.4,102.4 L 246.5,101.0 L 250.6,100.3 L 254.6,100.1 L 258.7,99.7 L 262.7,98.9 L 266.8,98.5 L 270.8,98.1 L 274.9,97.7 L 279.0,97.3 L 283.0,96.9 L 287.1,96.9 L 291.1,95.0 L 295.2,95.0 L 299.3,94.8 L 303.3,94.6 L 307.4,94.2 L 311.4,94.2 L 315.5,93.2 L 319.5,92.0 L 323.6,91.6 L 327.7,92.0 L 331.7,91.8 L 335.8,91.6 L 339.8,91.6 L 343.9,91.2 L 348.0,90.4 L 352.0,90.0 L 356.1,89.6 L 360.1,89.4 L 364.2,89.4 L 368.2,88.7 L 372.3,88.3 L 376.4,88.3 L 380.4,86.7 L 384.5,86.7 L 388.5,86.7 L 392.6,86.7 L 396.7,86.5 L 400.7,85.9 L 404.8,85.1 L 408.8,84.7 L 412.9,84.7 L 416.9,84.3 L 421.0,82.8 L 425.1,81.8 L 429.1,81.6 L 433.2,81.4 L 437.2,80.8 L 441.3,79.6 L 445.3,79.2 L 449.4,78.8 L 453.5,77.6 L 457.5,77.4 L 461.6,77.4 L 465.6,77.4 L 469.7,77.3 L 473.8,76.1 L 477.8,75.9 L 481.9,75.7 L 485.9,75.7 L 490.0,75.3 L 494.0,73.7 L 498.1,73.5 L 502.2,73.3 L 506.2,73.3 L 510.3,72.5 L 514.3,72.3 L 518.4,72.1 L 522.5,71.6 L 526.5,70.8 L 530.6,70.8 L 534.6,70.8 L 538.7,70.8 L 542.7,70.4 L 546.8,69.8 L 550.9,69.6 L 554.9,69.0 L 559.0,68.8 L 563.0,68.6 L 567.1,67.8 L 571.2,67.2 L 575.2,67.0 L 579.3,67.0 L 583.3,65.3 L 587.4,64.7 L 591.4,64.5 L 595.5,64.5 L 599.6,63.5 L 603.6,63.5 L 607.7,62.9 L 611.7,62.3 L 615.8,60.9 L 619.8,60.7 L 623.9,60.5 L 628.0,60.3 L 632.0,60.3 L 636.1,60.1 L 640.1,59.2 L 644.2,58.6 L 648.3,58.6 L 652.3,58.4 L 656.4,58.4 L 660.4,57.8 L 664.5,57.6 L 668.5,57.4 L 672.6,56.8 L 676.7,56.0 L 680.7,56.0 L 684.8,55.8 L 688.8,55.6 L 692.9,54.6 L 697.0,53.3 L 701.0,53.1 L 705.1,52.7 L 709.1,52.3 L 713.2,52.1 L 717.2,51.5 L 721.3,50.7 L 725.4,50.5 L 729.4,49.9 L 733.5,49.5 L 737.5,48.5 L 741.6,48.3 L 745.7,47.9 L 749.7,47.9 L 753.8,47.6 L 757.8,47.2 L 761.9,46.8 L 765.9,46.6 L 770.0,46.2" fill="none" stroke="#4F8EF7" stroke-width="2.5" stroke-linejoin="round" clip-path="url(#ca)"/>
<path d="M 72.0,340 L 72.0,244.2 L 76.1,243.6 L 80.1,243.6 L 84.2,243.6 L 88.2,243.4 L 92.3,243.0 L 96.3,242.8 L 100.4,242.6 L 104.5,242.6 L 108.5,242.5 L 112.6,242.3 L 116.6,242.3 L 120.7,242.3 L 124.8,242.3 L 128.8,242.3 L 132.9,242.3 L 136.9,241.9 L 141.0,241.9 L 145.0,241.9 L 149.1,241.1 L 153.2,240.9 L 157.2,240.5 L 161.3,239.7 L 165.3,239.5 L 169.4,239.5 L 173.5,239.5 L 177.5,238.9 L 181.6,238.5 L 185.6,238.5 L 189.7,238.1 L 193.7,237.9 L 197.8,237.5 L 201.9,237.5 L 205.9,237.3 L 210.0,236.6 L 214.0,236.0 L 218.1,235.6 L 222.2,235.4 L 226.2,235.4 L 230.3,235.2 L 234.3,234.8 L 238.4,234.8 L 242.4,234.6 L 246.5,234.0 L 250.6,233.6 L 254.6,233.6 L 258.7,233.6 L 262.7,233.6 L 266.8,233.4 L 270.8,232.8 L 274.9,232.4 L 279.0,232.2 L 283.0,232.0 L 287.1,231.8 L 291.1,231.6 L 295.2,231.4 L 299.3,231.2 L 303.3,230.7 L 307.4,230.5 L 311.4,230.3 L 315.5,229.5 L 319.5,228.7 L 323.6,228.7 L 327.7,228.5 L 331.7,228.3 L 335.8,228.3 L 339.8,228.3 L 343.9,227.9 L 348.0,227.9 L 352.0,226.7 L 356.1,226.5 L 360.1,226.3 L 364.2,226.3 L 368.2,225.9 L 372.3,225.7 L 376.4,225.7 L 380.4,225.5 L 384.5,225.5 L 388.5,225.5 L 392.6,225.1 L 396.7,224.9 L 400.7,224.0 L 404.8,224.2 L 408.8,224.0 L 412.9,223.8 L 416.9,223.8 L 421.0,223.6 L 425.1,223.0 L 429.1,223.0 L 433.2,223.0 L 437.2,223.0 L 441.3,222.6 L 445.3,222.6 L 449.4,222.2 L 453.5,221.8 L 457.5,221.0 L 461.6,221.0 L 465.6,220.6 L 469.7,220.4 L 473.8,220.2 L 477.8,220.0 L 481.9,219.6 L 485.9,219.6 L 490.0,219.1 L 494.0,219.1 L 498.1,218.9 L 502.2,218.5 L 506.2,218.3 L 510.3,218.3 L 514.3,218.3 L 518.4,218.3 L 522.5,218.3 L 526.5,217.7 L 530.6,217.7 L 534.6,217.3 L 538.7,216.9 L 542.7,216.3 L 546.8,216.1 L 550.9,216.1 L 554.9,214.9 L 559.0,214.7 L 563.0,214.7 L 567.1,213.9 L 571.2,213.9 L 575.2,213.5 L 579.3,213.5 L 583.3,213.3 L 587.4,213.3 L 591.4,213.2 L 595.5,212.8 L 599.6,212.8 L 603.6,212.6 L 607.7,212.4 L 611.7,212.2 L 615.8,212.0 L 619.8,212.0 L 623.9,211.6 L 628.0,211.6 L 632.0,211.6 L 636.1,210.6 L 640.1,210.6 L 644.2,210.6 L 648.3,210.6 L 652.3,210.6 L 656.4,210.6 L 660.4,210.2 L 664.5,210.2 L 668.5,209.8 L 672.6,209.0 L 676.7,208.6 L 680.7,208.4 L 684.8,208.4 L 688.8,208.2 L 692.9,207.6 L 697.0,207.4 L 701.0,207.4 L 705.1,207.1 L 709.1,206.5 L 713.2,206.1 L 717.2,206.1 L 721.3,205.9 L 725.4,205.9 L 729.4,205.3 L 733.5,205.1 L 737.5,205.1 L 741.6,204.7 L 745.7,204.7 L 749.7,204.3 L 753.8,203.7 L 757.8,203.7 L 761.9,203.5 L 765.9,203.3 L 770.0,203.1 L 770.0,340 Z" fill="url(#g3)" clip-path="url(#ca)"/>
<path d="M 72.0,244.2 L 76.1,243.6 L 80.1,243.6 L 84.2,243.6 L 88.2,243.4 L 92.3,243.0 L 96.3,242.8 L 100.4,242.6 L 104.5,242.6 L 108.5,242.5 L 112.6,242.3 L 116.6,242.3 L 120.7,242.3 L 124.8,242.3 L 128.8,242.3 L 132.9,242.3 L 136.9,241.9 L 141.0,241.9 L 145.0,241.9 L 149.1,241.1 L 153.2,240.9 L 157.2,240.5 L 161.3,239.7 L 165.3,239.5 L 169.4,239.5 L 173.5,239.5 L 177.5,238.9 L 181.6,238.5 L 185.6,238.5 L 189.7,238.1 L 193.7,237.9 L 197.8,237.5 L 201.9,237.5 L 205.9,237.3 L 210.0,236.6 L 214.0,236.0 L 218.1,235.6 L 222.2,235.4 L 226.2,235.4 L 230.3,235.2 L 234.3,234.8 L 238.4,234.8 L 242.4,234.6 L 246.5,234.0 L 250.6,233.6 L 254.6,233.6 L 258.7,233.6 L 262.7,233.6 L 266.8,233.4 L 270.8,232.8 L 274.9,232.4 L 279.0,232.2 L 283.0,232.0 L 287.1,231.8 L 291.1,231.6 L 295.2,231.4 L 299.3,231.2 L 303.3,230.7 L 307.4,230.5 L 311.4,230.3 L 315.5,229.5 L 319.5,228.7 L 323.6,228.7 L 327.7,228.5 L 331.7,228.3 L 335.8,228.3 L 339.8,228.3 L 343.9,227.9 L 348.0,227.9 L 352.0,226.7 L 356.1,226.5 L 360.1,226.3 L 364.2,226.3 L 368.2,225.9 L 372.3,225.7 L 376.4,225.7 L 380.4,225.5 L 384.5,225.5 L 388.5,225.5 L 392.6,225.1 L 396.7,224.9 L 400.7,224.0 L 404.8,224.2 L 408.8,224.0 L 412.9,223.8 L 416.9,223.8 L 421.0,223.6 L 425.1,223.0 L 429.1,223.0 L 433.2,223.0 L 437.2,223.0 L 441.3,222.6 L 445.3,222.6 L 449.4,222.2 L 453.5,221.8 L 457.5,221.0 L 461.6,221.0 L 465.6,220.6 L 469.7,220.4 L 473.8,220.2 L 477.8,220.0 L 481.9,219.6 L 485.9,219.6 L 490.0,219.1 L 494.0,219.1 L 498.1,218.9 L 502.2,218.5 L 506.2,218.3 L 510.3,218.3 L 514.3,218.3 L 518.4,218.3 L 522.5,218.3 L 526.5,217.7 L 530.6,217.7 L 534.6,217.3 L 538.7,216.9 L 542.7,216.3 L 546.8,216.1 L 550.9,216.1 L 554.9,214.9 L 559.0,214.7 L 563.0,214.7 L 567.1,213.9 L 571.2,213.9 L 575.2,213.5 L 579.3,213.5 L 583.3,213.3 L 587.4,213.3 L 591.4,213.2 L 595.5,212.8 L 599.6,212.8 L 603.6,212.6 L 607.7,212.4 L 611.7,212.2 L 615.8,212.0 L 619.8,212.0 L 623.9,211.6 L 628.0,211.6 L 632.0,211.6 L 636.1,210.6 L 640.1,210.6 L 644.2,210.6 L 648.3,210.6 L 652.3,210.6 L 656.4,210.6 L 660.4,210.2 L 664.5,210.2 L 668.5,209.8 L 672.6,209.0 L 676.7,208.6 L 680.7,208.4 L 684.8,208.4 L 688.8,208.2 L 692.9,207.6 L 697.0,207.4 L 701.0,207.4 L 705.1,207.1 L 709.1,206.5 L 713.2,206.1 L 717.2,206.1 L 721.3,205.9 L 725.4,205.9 L 729.4,205.3 L 733.5,205.1 L 737.5,205.1 L 741.6,204.7 L 745.7,204.7 L 749.7,204.3 L 753.8,203.7 L 757.8,203.7 L 761.9,203.5 L 765.9,203.3 L 770.0,203.1" fill="none" stroke="#BF5AF2" stroke-width="2.5" stroke-linejoin="round" clip-path="url(#ca)"/>
<path d="M 72.0,340 L 72.0,291.4 L 76.1,290.8 L 80.1,290.8 L 84.2,290.8 L 88.2,290.6 L 92.3,290.2 L 96.3,290.0 L 100.4,289.7 L 104.5,289.7 L 108.5,289.5 L 112.6,289.3 L 116.6,289.3 L 120.7,289.3 L 124.8,289.3 L 128.8,289.3 L 132.9,289.3 L 136.9,288.9 L 141.0,288.9 L 145.0,289.1 L 149.1,288.5 L 153.2,288.7 L 157.2,288.1 L 161.3,287.5 L 165.3,287.3 L 169.4,287.5 L 173.5,287.5 L 177.5,286.9 L 181.6,286.7 L 185.6,286.7 L 189.7,286.3 L 193.7,286.1 L 197.8,285.7 L 201.9,285.7 L 205.9,285.5 L 210.0,284.9 L 214.0,284.3 L 218.1,283.9 L 222.2,283.9 L 226.2,283.9 L 230.3,283.8 L 234.3,283.4 L 238.4,283.4 L 242.4,283.2 L 246.5,282.6 L 250.6,282.4 L 254.6,282.4 L 258.7,282.4 L 262.7,282.4 L 266.8,282.2 L 270.8,281.6 L 274.9,281.4 L 279.0,281.2 L 283.0,281.0 L 287.1,281.0 L 291.1,280.8 L 295.2,280.8 L 299.3,280.8 L 303.3,280.2 L 307.4,280.2 L 311.4,280.2 L 315.5,279.8 L 319.5,279.2 L 323.6,279.2 L 327.7,279.0 L 331.7,278.8 L 335.8,278.8 L 339.8,278.8 L 343.9,278.4 L 348.0,278.4 L 352.0,277.3 L 356.1,277.1 L 360.1,276.9 L 364.2,276.9 L 368.2,276.7 L 372.3,276.7 L 376.4,276.7 L 380.4,276.7 L 384.5,276.7 L 388.5,276.7 L 392.6,276.3 L 396.7,276.1 L 400.7,275.1 L 404.8,275.3 L 408.8,275.3 L 412.9,275.1 L 416.9,275.1 L 421.0,275.1 L 425.1,274.7 L 429.1,274.7 L 433.2,274.7 L 437.2,274.7 L 441.3,274.7 L 445.3,274.7 L 449.4,274.5 L 453.5,274.5 L 457.5,273.7 L 461.6,273.7 L 465.6,273.5 L 469.7,273.3 L 473.8,273.1 L 477.8,272.9 L 481.9,272.5 L 485.9,272.5 L 490.0,272.0 L 494.0,272.0 L 498.1,271.8 L 502.2,271.6 L 506.2,271.6 L 510.3,271.6 L 514.3,271.6 L 518.4,271.6 L 522.5,271.6 L 526.5,271.0 L 530.6,271.0 L 534.6,270.6 L 538.7,270.2 L 542.7,269.6 L 546.8,269.4 L 550.9,269.4 L 554.9,268.4 L 559.0,268.2 L 563.0,268.2 L 567.1,267.6 L 571.2,267.6 L 575.2,267.4 L 579.3,267.4 L 583.3,267.6 L 587.4,267.8 L 591.4,267.6 L 595.5,267.2 L 599.6,267.4 L 603.6,267.2 L 607.7,267.0 L 611.7,267.0 L 615.8,267.0 L 619.8,267.0 L 623.9,266.6 L 628.0,266.6 L 632.0,266.6 L 636.1,265.9 L 640.1,265.9 L 644.2,265.9 L 648.3,265.9 L 652.3,265.9 L 656.4,265.9 L 660.4,265.5 L 664.5,265.5 L 668.5,265.1 L 672.6,264.3 L 676.7,264.1 L 680.7,264.1 L 684.8,264.1 L 688.8,264.1 L 692.9,263.7 L 697.0,263.5 L 701.0,263.5 L 705.1,263.3 L 709.1,262.7 L 713.2,262.3 L 717.2,262.3 L 721.3,262.1 L 725.4,262.1 L 729.4,261.9 L 733.5,261.7 L 737.5,261.7 L 741.6,261.5 L 745.7,261.5 L 749.7,261.1 L 753.8,260.5 L 757.8,260.5 L 761.9,260.4 L 765.9,260.5 L 770.0,260.4 L 770.0,340 Z" fill="url(#g4)" clip-path="url(#ca)"/>
<path d="M 72.0,291.4 L 76.1,290.8 L 80.1,290.8 L 84.2,290.8 L 88.2,290.6 L 92.3,290.2 L 96.3,290.0 L 100.4,289.7 L 104.5,289.7 L 108.5,289.5 L 112.6,289.3 L 116.6,289.3 L 120.7,289.3 L 124.8,289.3 L 128.8,289.3 L 132.9,289.3 L 136.9,288.9 L 141.0,288.9 L 145.0,289.1 L 149.1,288.5 L 153.2,288.7 L 157.2,288.1 L 161.3,287.5 L 165.3,287.3 L 169.4,287.5 L 173.5,287.5 L 177.5,286.9 L 181.6,286.7 L 185.6,286.7 L 189.7,286.3 L 193.7,286.1 L 197.8,285.7 L 201.9,285.7 L 205.9,285.5 L 210.0,284.9 L 214.0,284.3 L 218.1,283.9 L 222.2,283.9 L 226.2,283.9 L 230.3,283.8 L 234.3,283.4 L 238.4,283.4 L 242.4,283.2 L 246.5,282.6 L 250.6,282.4 L 254.6,282.4 L 258.7,282.4 L 262.7,282.4 L 266.8,282.2 L 270.8,281.6 L 274.9,281.4 L 279.0,281.2 L 283.0,281.0 L 287.1,281.0 L 291.1,280.8 L 295.2,280.8 L 299.3,280.8 L 303.3,280.2 L 307.4,280.2 L 311.4,280.2 L 315.5,279.8 L 319.5,279.2 L 323.6,279.2 L 327.7,279.0 L 331.7,278.8 L 335.8,278.8 L 339.8,278.8 L 343.9,278.4 L 348.0,278.4 L 352.0,277.3 L 356.1,277.1 L 360.1,276.9 L 364.2,276.9 L 368.2,276.7 L 372.3,276.7 L 376.4,276.7 L 380.4,276.7 L 384.5,276.7 L 388.5,276.7 L 392.6,276.3 L 396.7,276.1 L 400.7,275.1 L 404.8,275.3 L 408.8,275.3 L 412.9,275.1 L 416.9,275.1 L 421.0,275.1 L 425.1,274.7 L 429.1,274.7 L 433.2,274.7 L 437.2,274.7 L 441.3,274.7 L 445.3,274.7 L 449.4,274.5 L 453.5,274.5 L 457.5,273.7 L 461.6,273.7 L 465.6,273.5 L 469.7,273.3 L 473.8,273.1 L 477.8,272.9 L 481.9,272.5 L 485.9,272.5 L 490.0,272.0 L 494.0,272.0 L 498.1,271.8 L 502.2,271.6 L 506.2,271.6 L 510.3,271.6 L 514.3,271.6 L 518.4,271.6 L 522.5,271.6 L 526.5,271.0 L 530.6,271.0 L 534.6,270.6 L 538.7,270.2 L 542.7,269.6 L 546.8,269.4 L 550.9,269.4 L 554.9,268.4 L 559.0,268.2 L 563.0,268.2 L 567.1,267.6 L 571.2,267.6 L 575.2,267.4 L 579.3,267.4 L 583.3,267.6 L 587.4,267.8 L 591.4,267.6 L 595.5,267.2 L 599.6,267.4 L 603.6,267.2 L 607.7,267.0 L 611.7,267.0 L 615.8,267.0 L 619.8,267.0 L 623.9,266.6 L 628.0,266.6 L 632.0,266.6 L 636.1,265.9 L 640.1,265.9 L 644.2,265.9 L 648.3,265.9 L 652.3,265.9 L 656.4,265.9 L 660.4,265.5 L 664.5,265.5 L 668.5,265.1 L 672.6,264.3 L 676.7,264.1 L 680.7,264.1 L 684.8,264.1 L 688.8,264.1 L 692.9,263.7 L 697.0,263.5 L 701.0,263.5 L 705.1,263.3 L 709.1,262.7 L 713.2,262.3 L 717.2,262.3 L 721.3,262.1 L 725.4,262.1 L 729.4,261.9 L 733.5,261.7 L 737.5,261.7 L 741.6,261.5 L 745.7,261.5 L 749.7,261.1 L 753.8,260.5 L 757.8,260.5 L 761.9,260.4 L 765.9,260.5 L 770.0,260.4" fill="none" stroke="#34C759" stroke-width="2.5" stroke-linejoin="round" clip-path="url(#ca)"/>
<text x="94.3" y="55.0" text-anchor="middle" font-size="9" fill="#4F8EF7" opacity="0.85" clip-path="url(#ca)">+0.5% (+8)</text>
<text x="94.3" y="66.0" text-anchor="middle" font-size="9" fill="#BF5AF2" opacity="0.85" clip-path="url(#ca)">+1.0% (+10)</text>
<text x="94.3" y="77.0" text-anchor="middle" font-size="9" fill="#34C759" opacity="0.85" clip-path="url(#ca)">+1.5% (+11)</text>
<text x="171.4" y="55.0" text-anchor="middle" font-size="9" fill="#4F8EF7" opacity="0.85" clip-path="url(#ca)">+4.0% (+65)</text>
<text x="171.4" y="66.0" text-anchor="middle" font-size="9" fill="#BF5AF2" opacity="0.85" clip-path="url(#ca)">+3.5% (+35)</text>
<text x="171.4" y="77.0" text-anchor="middle" font-size="9" fill="#34C759" opacity="0.85" clip-path="url(#ca)">+3.6% (+27)</text>
<text x="279.0" y="55.0" text-anchor="middle" font-size="9" fill="#4F8EF7" opacity="0.85" clip-path="url(#ca)">+4.1% (+70)</text>
<text x="279.0" y="66.0" text-anchor="middle" font-size="9" fill="#BF5AF2" opacity="0.85" clip-path="url(#ca)">+3.5% (+36)</text>
<text x="279.0" y="77.0" text-anchor="middle" font-size="9" fill="#34C759" opacity="0.85" clip-path="url(#ca)">+3.3% (+26)</text>
<text x="388.5" y="55.0" text-anchor="middle" font-size="9" fill="#4F8EF7" opacity="0.85" clip-path="url(#ca)">+3.5% (+61)</text>
<text x="388.5" y="66.0" text-anchor="middle" font-size="9" fill="#BF5AF2" opacity="0.85" clip-path="url(#ca)">+2.7% (+29)</text>
<text x="388.5" y="77.0" text-anchor="middle" font-size="9" fill="#34C759" opacity="0.85" clip-path="url(#ca)">+2.6% (+21)</text>
<text x="498.1" y="55.0" text-anchor="middle" font-size="9" fill="#4F8EF7" opacity="0.85" clip-path="url(#ca)">+2.7% (+49)</text>
<text x="498.1" y="66.0" text-anchor="middle" font-size="9" fill="#BF5AF2" opacity="0.85" clip-path="url(#ca)">+3.0% (+33)</text>
<text x="498.1" y="77.0" text-anchor="middle" font-size="9" fill="#34C759" opacity="0.85" clip-path="url(#ca)">+3.2% (+27)</text>
<text x="605.6" y="55.0" text-anchor="middle" font-size="9" fill="#4F8EF7" opacity="0.85" clip-path="url(#ca)">+2.9% (+54)</text>
<text x="605.6" y="66.0" text-anchor="middle" font-size="9" fill="#BF5AF2" opacity="0.85" clip-path="url(#ca)">+1.9% (+22)</text>
<text x="605.6" y="77.0" text-anchor="middle" font-size="9" fill="#34C759" opacity="0.85" clip-path="url(#ca)">+1.5% (+13)</text>
<text x="707.1" y="55.0" text-anchor="middle" font-size="9" fill="#4F8EF7" opacity="0.85" clip-path="url(#ca)">+2.7% (+52)</text>
<text x="707.1" y="66.0" text-anchor="middle" font-size="9" fill="#BF5AF2" opacity="0.85" clip-path="url(#ca)">+2.8% (+33)</text>
<text x="707.1" y="77.0" text-anchor="middle" font-size="9" fill="#34C759" opacity="0.85" clip-path="url(#ca)">+2.8% (+25)</text>
<text x="763.9" y="55.0" text-anchor="middle" font-size="9" fill="#4F8EF7" opacity="0.85" clip-path="url(#ca)">+0.3% (+5)</text>
<text x="763.9" y="66.0" text-anchor="middle" font-size="9" fill="#BF5AF2" opacity="0.85" clip-path="url(#ca)">+0.3% (+3)</text>
<text x="763.9" y="77.0" text-anchor="middle" font-size="9" fill="#34C759" opacity="0.85" clip-path="url(#ca)">+0.1% (+1)</text>
<rect x="211" y="369" width="12" height="12" fill="#4F8EF7" rx="2"/>
<text x="227" y="379" font-size="12" fill="#111827">Authors</text>
<rect x="351" y="369" width="12" height="12" fill="#BF5AF2" rx="2"/>
<text x="367" y="379" font-size="12" fill="#111827">Contributors</text>
<rect x="491" y="369" width="12" height="12" fill="#34C759" rx="2"/>
<text x="507" y="379" font-size="12" fill="#111827">Non-author contributors</text>
<text x="72" y="394" font-size="8" fill="#e5e7eb">data since Dec 11, 2025</text>
</svg>