<svg xmlns="http://www.w3.org/2000/svg" width="800" height="400" viewBox="0 0 800 400">
<defs><style>text { font-family: -apple-system, BlinkMacSystemFont, 'Segoe UI', Roboto, sans-serif; }</style></defs>
<rect width="800" height="400" fill="#ffffff" rx="12"/>
<text x="400" y="26" text-anchor="middle" font-size="15" font-weight="600" fill="#111827">Package Freshness</text>
<path d="M 220.00 60.00 A 140 140 0 0 1 357.67 174.55 L 304.57 184.37 A 86 86 0 0 0 220.00 114.00 Z" fill="#34C759"/>
<path d="M 357.67 174.55 A 140 140 0 0 1 305.26 311.05 L 272.37 268.21 A 86 86 0 0 0 304.57 184.37 Z" fill="#4F8EF7"/>
<path d="M 305.26 311.05 A 140 140 0 0 1 172.66 331.75 L 190.92 280.93 A 86 86 0 0 0 272.37 268.21 Z" fill="#FF9F0A"/>
<path d="M 172.66 331.75 A 140 140 0 0 1 219.71 60.00 L 219.82 114.00 A 86 86 0 0 0 190.92 280.93 Z" fill="#FF6363"/>
<path d="M 219.71 60.00 A 140 140 0 0 1 220.00 60.00 L 220.00 114.00 A 86 86 0 0 0 219.82 114.00 Z" fill="#e5e7eb"/>
<text x="220" y="190" text-anchor="middle" font-size="28" font-weight="700" fill="#111827">3,042</text>
<text x="220" y="214" text-anchor="middle" font-size="12" fill="#6b7280">extensions</text>
<rect x="430" y="80" width="14" height="14" fill="#34C759" rx="3"/>
<text x="450" y="91" font-size="13" font-weight="500" fill="#111827">&lt;3 months</text>
<text x="450" y="107" font-size="11" fill="#6b7280">672 (22.1%)</text>
<rect x="430" y="132" width="14" height="14" fill="#4F8EF7" rx="3"/>
<text x="450" y="143" font-size="13" font-weight="500" fill="#111827">3–6 months</text>
<text x="450" y="159" font-size="11" fill="#6b7280">532 (17.5%)</text>
<rect x="430" y="184" width="14" height="14" fill="#FF9F0A" rx="3"/>
<text x="450" y="195" font-size="13" font-weight="500" fill="#111827">6–12 months</text>
<text x="450" y="211" font-size="11" fill="#6b7280">484 (15.9%)</text>
<rect x="430" y="236" width="14" height="14" fill="#FF6363" rx="3"/>
<text x="450" y="247" font-size="13" font-weight="500" fill="#111827">&gt;1 year</text>
<text x="450" y="263" font-size="11" fill="#6b7280">1,353 (44.5%)</text>
<rect x="430" y="288" width="14" height="14" fill="#e5e7eb" rx="3"/>
<text x="450" y="299" font-size="13" font-weight="500" fill="#111827">Unknown</text>
<text x="450" y="315" font-size="11" fill="#6b7280">1 (0.0%)</text>
</svg>