<svg xmlns="http://www.w3.org/2000/svg" width="800" height="400" viewBox="0 0 800 400">
<defs>
  <style>text { font-family: -apple-system, BlinkMacSystemFont, 'Segoe UI', Roboto, sans-serif; }</style>
  <linearGradient id="g1" x1="0" y1="0" x2="0" y2="1">
  <stop offset="0%" stop-color="#FF6363" stop-opacity="0.25"/>
  <stop offset="100%" stop-color="#FF6363" stop-opacity="0"/>
</linearGradient>
  <clipPath id="ca"><rect x="72" y="45" width="698" height="295"/></clipPath>
</defs>
<rect width="800" height="400" fill="#ffffff" rx="12"/>
<text x="400" y="26" text-anchor="middle" font-size="15" font-weight="600" fill="#111827">Packages Growth Over Time</text>
<line x1="72" y1="340.0" x2="770" y2="340.0" stroke="#f3f4f6" stroke-width="1"/>
<text x="66" y="344.0" text-anchor="end" font-size="11" fill="#6b7280">2.4k</text>
<line x1="72" y1="290.8" x2="770" y2="290.8" stroke="#f3f4f6" stroke-width="1"/>
<text x="66" y="294.8" text-anchor="end" font-size="11" fill="#6b7280">2.5k</text>
<line x1="72" y1="241.7" x2="770" y2="241.7" stroke="#f3f4f6" stroke-width="1"/>
<text x="66" y="245.7" text-anchor="end" font-size="11" fill="#6b7280">2.6k</text>
<line x1="72" y1="192.5" x2="770" y2="192.5" stroke="#f3f4f6" stroke-width="1"/>
<text x="66" y="196.5" text-anchor="end" font-size="11" fill="#6b7280">2.7k</text>
<line x1="72" y1="143.3" x2="770" y2="143.3" stroke="#f3f4f6" stroke-width="1"/>
<text x="66" y="147.3" text-anchor="end" font-size="11" fill="#6b7280">2.8k</text>
<line x1="72" y1="94.2" x2="770" y2="94.2" stroke="#f3f4f6" stroke-width="1"/>
<text x="66" y="98.2" text-anchor="end" font-size="11" fill="#6b7280">2.9k</text>
<line x1="72" y1="45.0" x2="770" y2="45.0" stroke="#f3f4f6" stroke-width="1"/>
<text x="66" y="49.0" text-anchor="end" font-size="11" fill="#6b7280">3.0k</text>
<line x1="131.4" y1="45" x2="131.4" y2="340" stroke="#e5e7eb" stroke-width="1" stroke-dasharray="3,3" clip-path="url(#ca)"/>
<line x1="260.1" y1="45" x2="260.1" y2="340" stroke="#e5e7eb" stroke-width="1" stroke-dasharray="3,3" clip-path="url(#ca)"/>
<line x1="393.8" y1="45" x2="393.8" y2="340" stroke="#e5e7eb" stroke-width="1" stroke-dasharray="3,3" clip-path="url(#ca)"/>
<line x1="527.4" y1="45" x2="527.4" y2="340" stroke="#e5e7eb" stroke-width="1" stroke-dasharray="3,3" clip-path="url(#ca)"/>
<line x1="661.1" y1="45" x2="661.1" y2="340" stroke="#e5e7eb" stroke-width="1" stroke-dasharray="3,3" clip-path="url(#ca)"/>
<text x="72.0" y="358.0" text-anchor="middle" font-size="11" fill="#6b7280">Dec 11</text>
<text x="210.6" y="358.0" text-anchor="middle" font-size="11" fill="#6b7280">Jan 22</text>
<text x="349.2" y="358.0" text-anchor="middle" font-size="11" fill="#6b7280">Feb 19</text>
<text x="492.8" y="358.0" text-anchor="middle" font-size="11" fill="#6b7280">Mar 23</text>
<text x="631.4" y="358.0" text-anchor="middle" font-size="11" fill="#6b7280">Apr 24</text>
<text x="770.0" y="358.0" text-anchor="middle" font-size="11" fill="#6b7280">May 28</text>
<line x1="72" y1="45" x2="72" y2="340" stroke="#e5e7eb" stroke-width="1"/>
<line x1="72" y1="340" x2="770" y2="340" stroke="#e5e7eb" stroke-width="1"/>
<text x="-192.5" y="18" text-anchor="middle" font-size="12" fill="#6b7280" transform="rotate(-90)">Extensions</text>
<path d="M 72.0,340 L 72.0,302.1 L 77.0,301.6 L 81.9,301.6 L 86.9,300.2 L 91.8,300.2 L 96.8,299.2 L 101.7,298.2 L 106.7,297.7 L 111.6,295.3 L 116.6,293.3 L 121.5,293.3 L 126.5,293.3 L 131.4,293.3 L 136.4,292.3 L 141.3,292.3 L 146.3,292.3 L 151.2,291.3 L 156.2,289.4 L 161.1,285.9 L 166.1,283.5 L 171.0,282.5 L 176.0,282.0 L 180.9,280.0 L 185.9,274.1 L 190.8,272.1 L 195.8,272.1 L 200.7,267.2 L 205.7,265.8 L 210.6,263.8 L 215.6,262.3 L 220.5,259.4 L 225.5,256.9 L 230.4,256.4 L 235.4,252.5 L 240.3,249.0 L 245.3,249.0 L 250.2,246.6 L 255.2,244.6 L 260.1,244.1 L 265.1,243.6 L 270.0,243.1 L 275.0,241.7 L 279.9,232.8 L 284.9,228.9 L 289.8,226.9 L 294.8,225.9 L 299.7,224.5 L 304.7,221.0 L 309.6,220.0 L 314.6,219.1 L 319.5,216.1 L 324.5,215.1 L 329.4,214.1 L 334.4,214.1 L 339.3,205.3 L 344.3,204.3 L 349.2,203.3 L 354.2,201.3 L 359.1,198.9 L 364.1,198.9 L 369.0,195.0 L 374.0,188.6 L 378.9,187.6 L 383.9,188.1 L 388.8,186.6 L 393.8,186.1 L 398.7,186.1 L 403.7,183.2 L 408.6,180.7 L 413.6,178.7 L 418.5,176.3 L 423.5,175.8 L 428.4,175.8 L 433.4,172.3 L 438.3,171.4 L 443.3,170.9 L 448.2,165.0 L 453.2,164.5 L 458.1,164.5 L 463.1,164.5 L 468.0,164.0 L 473.0,161.5 L 477.9,159.6 L 482.9,157.1 L 487.8,156.6 L 492.8,155.1 L 497.7,150.7 L 502.7,146.8 L 507.6,146.3 L 512.6,145.8 L 517.5,144.3 L 522.5,139.4 L 527.4,138.4 L 532.4,136.9 L 537.3,134.0 L 542.3,133.5 L 547.2,133.0 L 552.2,133.0 L 557.1,132.0 L 562.1,129.1 L 567.0,128.1 L 572.0,127.1 L 576.9,126.6 L 581.9,125.6 L 586.8,120.7 L 591.8,120.2 L 596.7,119.2 L 601.7,118.8 L 606.6,116.3 L 611.6,115.8 L 616.5,115.3 L 621.5,113.8 L 626.4,111.9 L 631.4,111.9 L 636.3,111.9 L 641.3,111.9 L 646.2,110.9 L 651.2,108.4 L 656.1,107.9 L 661.1,105.5 L 666.0,105.0 L 671.0,104.5 L 675.9,101.5 L 680.9,98.6 L 685.8,98.1 L 690.8,97.6 L 695.7,91.2 L 700.7,89.3 L 705.6,87.8 L 710.6,87.3 L 715.5,83.8 L 720.5,83.8 L 725.4,81.4 L 730.4,79.9 L 735.3,75.0 L 740.3,73.0 L 745.2,72.5 L 750.2,72.0 L 755.1,72.0 L 760.1,71.6 L 765.0,68.6 L 770.0,66.1 L 770.0,340 Z" fill="url(#g1)" clip-path="url(#ca)"/>
<path d="M 72.0,302.1 L 77.0,301.6 L 81.9,301.6 L 86.9,300.2 L 91.8,300.2 L 96.8,299.2 L 101.7,298.2 L 106.7,297.7 L 111.6,295.3 L 116.6,293.3 L 121.5,293.3 L 126.5,293.3 L 131.4,293.3 L 136.4,292.3 L 141.3,292.3 L 146.3,292.3 L 151.2,291.3 L 156.2,289.4 L 161.1,285.9 L 166.1,283.5 L 171.0,282.5 L 176.0,282.0 L 180.9,280.0 L 185.9,274.1 L 190.8,272.1 L 195.8,272.1 L 200.7,267.2 L 205.7,265.8 L 210.6,263.8 L 215.6,262.3 L 220.5,259.4 L 225.5,256.9 L 230.4,256.4 L 235.4,252.5 L 240.3,249.0 L 245.3,249.0 L 250.2,246.6 L 255.2,244.6 L 260.1,244.1 L 265.1,243.6 L 270.0,243.1 L 275.0,241.7 L 279.9,232.8 L 284.9,228.9 L 289.8,226.9 L 294.8,225.9 L 299.7,224.5 L 304.7,221.0 L 309.6,220.0 L 314.6,219.1 L 319.5,216.1 L 324.5,215.1 L 329.4,214.1 L 334.4,214.1 L 339.3,205.3 L 344.3,204.3 L 349.2,203.3 L 354.2,201.3 L 359.1,198.9 L 364.1,198.9 L 369.0,195.0 L 374.0,188.6 L 378.9,187.6 L 383.9,188.1 L 388.8,186.6 L 393.8,186.1 L 398.7,186.1 L 403.7,183.2 L 408.6,180.7 L 413.6,178.7 L 418.5,176.3 L 423.5,175.8 L 428.4,175.8 L 433.4,172.3 L 438.3,171.4 L 443.3,170.9 L 448.2,165.0 L 453.2,164.5 L 458.1,164.5 L 463.1,164.5 L 468.0,164.0 L 473.0,161.5 L 477.9,159.6 L 482.9,157.1 L 487.8,156.6 L 492.8,155.1 L 497.7,150.7 L 502.7,146.8 L 507.6,146.3 L 512.6,145.8 L 517.5,144.3 L 522.5,139.4 L 527.4,138.4 L 532.4,136.9 L 537.3,134.0 L 542.3,133.5 L 547.2,133.0 L 552.2,133.0 L 557.1,132.0 L 562.1,129.1 L 567.0,128.1 L 572.0,127.1 L 576.9,126.6 L 581.9,125.6 L 586.8,120.7 L 591.8,120.2 L 596.7,119.2 L 601.7,118.8 L 606.6,116.3 L 611.6,115.8 L 616.5,115.3 L 621.5,113.8 L 626.4,111.9 L 631.4,111.9 L 636.3,111.9 L 641.3,111.9 L 646.2,110.9 L 651.2,108.4 L 656.1,107.9 L 661.1,105.5 L 666.0,105.0 L 671.0,104.5 L 675.9,101.5 L 680.9,98.6 L 685.8,98.1 L 690.8,97.6 L 695.7,91.2 L 700.7,89.3 L 705.6,87.8 L 710.6,87.3 L 715.5,83.8 L 720.5,83.8 L 725.4,81.4 L 730.4,79.9 L 735.3,75.0 L 740.3,73.0 L 745.2,72.5 L 750.2,72.0 L 755.1,72.0 L 760.1,71.6 L 765.0,68.6 L 770.0,66.1" fill="none" stroke="#FF6363" stroke-width="2.5" stroke-linejoin="round" clip-path="url(#ca)"/>
<text x="99.2" y="55.0" text-anchor="middle" font-size="9" fill="#FF6363" opacity="0.85" clip-path="url(#ca)">+0.7% (+18)</text>
<text x="193.3" y="55.0" text-anchor="middle" font-size="9" fill="#FF6363" opacity="0.85" clip-path="url(#ca)">+4.0% (+99)</text>
<text x="324.5" y="55.0" text-anchor="middle" font-size="9" fill="#FF6363" opacity="0.85" clip-path="url(#ca)">+4.5% (+117)</text>
<text x="458.1" y="55.0" text-anchor="middle" font-size="9" fill="#FF6363" opacity="0.85" clip-path="url(#ca)">+3.5% (+95)</text>
<text x="591.8" y="55.0" text-anchor="middle" font-size="9" fill="#FF6363" opacity="0.85" clip-path="url(#ca)">+2.2% (+62)</text>
<text x="715.5" y="55.0" text-anchor="middle" font-size="9" fill="#FF6363" opacity="0.85" clip-path="url(#ca)">+2.8% (+80)</text>
<rect x="351" y="369" width="12" height="12" fill="#FF6363" rx="2"/>
<text x="367" y="379" font-size="12" fill="#111827">Extensions</text>
<text x="72" y="394" font-size="8" fill="#e5e7eb">data since Dec 11, 2025</text>
</svg>