<svg xmlns="http://www.w3.org/2000/svg" width="800" height="400" viewBox="0 0 800 400">
<defs>
  <style>text { font-family: -apple-system, BlinkMacSystemFont, 'Segoe UI', Roboto, sans-serif; }</style>
  <linearGradient id="g1" x1="0" y1="0" x2="0" y2="1">
  <stop offset="0%" stop-color="#FF6363" stop-opacity="0.25"/>
  <stop offset="100%" stop-color="#FF6363" stop-opacity="0"/>
</linearGradient>
  <clipPath id="ca"><rect x="72" y="45" width="698" height="295"/></clipPath>
</defs>
<rect width="800" height="400" fill="#ffffff" rx="12"/>
<text x="400" y="26" text-anchor="middle" font-size="15" font-weight="600" fill="#111827">Packages Growth Over Time</text>
<line x1="72" y1="340.0" x2="770" y2="340.0" stroke="#f3f4f6" stroke-width="1"/>
<text x="66" y="344.0" text-anchor="end" font-size="11" fill="#6b7280">2.4k</text>
<line x1="72" y1="281.0" x2="770" y2="281.0" stroke="#f3f4f6" stroke-width="1"/>
<text x="66" y="285.0" text-anchor="end" font-size="11" fill="#6b7280">2.5k</text>
<line x1="72" y1="222.0" x2="770" y2="222.0" stroke="#f3f4f6" stroke-width="1"/>
<text x="66" y="226.0" text-anchor="end" font-size="11" fill="#6b7280">2.6k</text>
<line x1="72" y1="163.0" x2="770" y2="163.0" stroke="#f3f4f6" stroke-width="1"/>
<text x="66" y="167.0" text-anchor="end" font-size="11" fill="#6b7280">2.7k</text>
<line x1="72" y1="104.0" x2="770" y2="104.0" stroke="#f3f4f6" stroke-width="1"/>
<text x="66" y="108.0" text-anchor="end" font-size="11" fill="#6b7280">2.8k</text>
<line x1="72" y1="45.0" x2="770" y2="45.0" stroke="#f3f4f6" stroke-width="1"/>
<text x="66" y="49.0" text-anchor="end" font-size="11" fill="#6b7280">2.9k</text>
<line x1="148.8" y1="45" x2="148.8" y2="340" stroke="#e5e7eb" stroke-width="1" stroke-dasharray="3,3" clip-path="url(#ca)"/>
<line x1="315.3" y1="45" x2="315.3" y2="340" stroke="#e5e7eb" stroke-width="1" stroke-dasharray="3,3" clip-path="url(#ca)"/>
<line x1="488.2" y1="45" x2="488.2" y2="340" stroke="#e5e7eb" stroke-width="1" stroke-dasharray="3,3" clip-path="url(#ca)"/>
<line x1="661.1" y1="45" x2="661.1" y2="340" stroke="#e5e7eb" stroke-width="1" stroke-dasharray="3,3" clip-path="url(#ca)"/>
<text x="72.0" y="358.0" text-anchor="middle" font-size="11" fill="#6b7280">Dec 11</text>
<text x="212.9" y="358.0" text-anchor="middle" font-size="11" fill="#6b7280">Jan 15</text>
<text x="353.8" y="358.0" text-anchor="middle" font-size="11" fill="#6b7280">Feb 7</text>
<text x="488.2" y="358.0" text-anchor="middle" font-size="11" fill="#6b7280">Mar 1</text>
<text x="629.1" y="358.0" text-anchor="middle" font-size="11" fill="#6b7280">Mar 25</text>
<text x="770.0" y="358.0" text-anchor="middle" font-size="11" fill="#6b7280">Apr 19</text>
<line x1="72" y1="45" x2="72" y2="340" stroke="#e5e7eb" stroke-width="1"/>
<line x1="72" y1="340" x2="770" y2="340" stroke="#e5e7eb" stroke-width="1"/>
<text x="-192.5" y="18" text-anchor="middle" font-size="12" fill="#6b7280" transform="rotate(-90)">Extensions</text>
<path d="M 72.0,340 L 72.0,294.6 L 78.4,294.0 L 84.8,294.0 L 91.2,292.2 L 97.6,292.2 L 104.0,291.0 L 110.4,289.9 L 116.8,289.3 L 123.2,286.3 L 129.6,283.9 L 136.0,283.9 L 142.4,283.9 L 148.8,283.9 L 155.2,282.8 L 161.7,282.8 L 168.1,282.8 L 174.5,281.6 L 180.9,279.2 L 187.3,275.1 L 193.7,272.1 L 200.1,271.0 L 206.5,270.4 L 212.9,268.0 L 219.3,260.9 L 225.7,258.6 L 232.1,258.6 L 238.5,252.7 L 244.9,250.9 L 251.3,248.6 L 257.7,246.8 L 264.1,243.2 L 270.5,240.3 L 276.9,239.7 L 283.3,235.0 L 289.7,230.8 L 296.1,230.8 L 302.5,227.9 L 308.9,225.5 L 315.3,224.9 L 321.7,224.4 L 328.1,223.8 L 334.6,222.0 L 341.0,211.4 L 347.4,206.7 L 353.8,204.3 L 360.2,203.1 L 366.6,201.3 L 373.0,197.2 L 379.4,196.0 L 385.8,194.9 L 392.2,191.3 L 398.6,190.1 L 405.0,189.0 L 411.4,189.0 L 417.8,178.3 L 424.2,177.2 L 430.6,176.0 L 437.0,173.6 L 443.4,170.7 L 449.8,170.7 L 456.2,166.0 L 462.6,158.3 L 469.0,157.1 L 475.4,157.7 L 481.8,155.9 L 488.2,155.3 L 494.6,155.3 L 501.0,151.8 L 507.4,148.8 L 513.9,146.5 L 520.3,143.5 L 526.7,142.9 L 533.1,142.9 L 539.5,138.8 L 545.9,137.6 L 552.3,137.0 L 558.7,130.0 L 565.1,129.4 L 571.5,129.4 L 577.9,129.4 L 584.3,128.8 L 590.7,125.8 L 597.1,123.5 L 603.5,120.5 L 609.9,119.9 L 616.3,118.2 L 622.7,112.8 L 629.1,108.1 L 635.5,107.5 L 641.9,106.9 L 648.3,105.2 L 654.7,99.3 L 661.1,98.1 L 667.5,96.3 L 673.9,92.8 L 680.3,92.2 L 686.8,91.6 L 693.2,91.6 L 699.6,90.4 L 706.0,86.9 L 712.4,85.7 L 718.8,84.5 L 725.2,83.9 L 731.6,82.8 L 738.0,76.9 L 744.4,76.3 L 750.8,75.1 L 757.2,74.5 L 763.6,71.6 L 770.0,71.0 L 770.0,340 Z" fill="url(#g1)" clip-path="url(#ca)"/>
<path d="M 72.0,294.6 L 78.4,294.0 L 84.8,294.0 L 91.2,292.2 L 97.6,292.2 L 104.0,291.0 L 110.4,289.9 L 116.8,289.3 L 123.2,286.3 L 129.6,283.9 L 136.0,283.9 L 142.4,283.9 L 148.8,283.9 L 155.2,282.8 L 161.7,282.8 L 168.1,282.8 L 174.5,281.6 L 180.9,279.2 L 187.3,275.1 L 193.7,272.1 L 200.1,271.0 L 206.5,270.4 L 212.9,268.0 L 219.3,260.9 L 225.7,258.6 L 232.1,258.6 L 238.5,252.7 L 244.9,250.9 L 251.3,248.6 L 257.7,246.8 L 264.1,243.2 L 270.5,240.3 L 276.9,239.7 L 283.3,235.0 L 289.7,230.8 L 296.1,230.8 L 302.5,227.9 L 308.9,225.5 L 315.3,224.9 L 321.7,224.4 L 328.1,223.8 L 334.6,222.0 L 341.0,211.4 L 347.4,206.7 L 353.8,204.3 L 360.2,203.1 L 366.6,201.3 L 373.0,197.2 L 379.4,196.0 L 385.8,194.9 L 392.2,191.3 L 398.6,190.1 L 405.0,189.0 L 411.4,189.0 L 417.8,178.3 L 424.2,177.2 L 430.6,176.0 L 437.0,173.6 L 443.4,170.7 L 449.8,170.7 L 456.2,166.0 L 462.6,158.3 L 469.0,157.1 L 475.4,157.7 L 481.8,155.9 L 488.2,155.3 L 494.6,155.3 L 501.0,151.8 L 507.4,148.8 L 513.9,146.5 L 520.3,143.5 L 526.7,142.9 L 533.1,142.9 L 539.5,138.8 L 545.9,137.6 L 552.3,137.0 L 558.7,130.0 L 565.1,129.4 L 571.5,129.4 L 577.9,129.4 L 584.3,128.8 L 590.7,125.8 L 597.1,123.5 L 603.5,120.5 L 609.9,119.9 L 616.3,118.2 L 622.7,112.8 L 629.1,108.1 L 635.5,107.5 L 641.9,106.9 L 648.3,105.2 L 654.7,99.3 L 661.1,98.1 L 667.5,96.3 L 673.9,92.8 L 680.3,92.2 L 686.8,91.6 L 693.2,91.6 L 699.6,90.4 L 706.0,86.9 L 712.4,85.7 L 718.8,84.5 L 725.2,83.9 L 731.6,82.8 L 738.0,76.9 L 744.4,76.3 L 750.8,75.1 L 757.2,74.5 L 763.6,71.6 L 770.0,71.0" fill="none" stroke="#FF6363" stroke-width="2.5" stroke-linejoin="round" clip-path="url(#ca)"/>
<text x="107.2" y="55.0" text-anchor="middle" font-size="9" fill="#FF6363" opacity="0.85" clip-path="url(#ca)">+0.7% (+18)</text>
<text x="228.9" y="55.0" text-anchor="middle" font-size="9" fill="#FF6363" opacity="0.85" clip-path="url(#ca)">+4.0% (+99)</text>
<text x="398.6" y="55.0" text-anchor="middle" font-size="9" fill="#FF6363" opacity="0.85" clip-path="url(#ca)">+4.5% (+117)</text>
<text x="571.5" y="55.0" text-anchor="middle" font-size="9" fill="#FF6363" opacity="0.85" clip-path="url(#ca)">+3.5% (+95)</text>
<text x="715.6" y="55.0" text-anchor="middle" font-size="9" fill="#FF6363" opacity="0.85" clip-path="url(#ca)">+1.6% (+46)</text>
<rect x="351" y="369" width="12" height="12" fill="#FF6363" rx="2"/>
<text x="367" y="379" font-size="12" fill="#111827">Extensions</text>
<text x="72" y="394" font-size="8" fill="#e5e7eb">data since Dec 11, 2025</text>
</svg>