<svg xmlns="http://www.w3.org/2000/svg" width="800" height="400" viewBox="0 0 800 400">
<defs><style>text { font-family: -apple-system, BlinkMacSystemFont, 'Segoe UI', Roboto, sans-serif; }</style></defs>
<rect width="800" height="400" fill="#ffffff" rx="12"/>
<text x="400" y="26" text-anchor="middle" font-size="15" font-weight="600" fill="#111827">Packages by Last Updated Quarter</text>
<text x="400" y="44" text-anchor="middle" font-size="11" fill="#6b7280">last updated at · 2,733 packages with a known last-update date</text>
<line x1="60" y1="58" x2="60" y2="320" stroke="#e5e7eb" stroke-width="1"/>
<line x1="60" y1="320" x2="770" y2="320" stroke="#e5e7eb" stroke-width="1"/>
<text x="-189" y="18" text-anchor="middle" font-size="12" fill="#6b7280" transform="rotate(-90)">Number of packages</text>
<line x1="60" y1="320.0" x2="770" y2="320.0" stroke="#f3f4f6" stroke-width="1"/>
<text x="54" y="324.0" text-anchor="end" font-size="11" fill="#6b7280">0</text>
<line x1="60" y1="267.7" x2="770" y2="267.7" stroke="#f3f4f6" stroke-width="1"/>
<text x="54" y="271.7" text-anchor="end" font-size="11" fill="#6b7280">134</text>
<line x1="60" y1="215.4" x2="770" y2="215.4" stroke="#f3f4f6" stroke-width="1"/>
<text x="54" y="219.4" text-anchor="end" font-size="11" fill="#6b7280">268</text>
<line x1="60" y1="162.6" x2="770" y2="162.6" stroke="#f3f4f6" stroke-width="1"/>
<text x="54" y="166.6" text-anchor="end" font-size="11" fill="#6b7280">403</text>
<line x1="60" y1="110.3" x2="770" y2="110.3" stroke="#f3f4f6" stroke-width="1"/>
<text x="54" y="114.3" text-anchor="end" font-size="11" fill="#6b7280">537</text>
<line x1="60" y1="58.0" x2="770" y2="58.0" stroke="#f3f4f6" stroke-width="1"/>
<text x="54" y="62.0" text-anchor="end" font-size="11" fill="#6b7280">671</text>
<rect x="67.3" y="318.0" width="27.1" height="2.0" fill="#34C759" rx="3" opacity="0.85"/>
<text x="80.9" y="302.0" text-anchor="middle" font-size="10" fill="#6b7280">5</text>
<text x="80.9" y="314.0" text-anchor="middle" font-size="10" fill="#6b7280">(0.18%)</text>
<g transform="translate(80.9,330.0) rotate(-45)"><text text-anchor="end" font-size="10" fill="#111827">2022-Q1</text></g>
<rect x="109.1" y="302.4" width="27.1" height="17.6" fill="#34C759" rx="3" opacity="0.85"/>
<text x="122.6" y="286.4" text-anchor="middle" font-size="10" fill="#6b7280">45</text>
<text x="122.6" y="298.4" text-anchor="middle" font-size="10" fill="#6b7280">(1.65%)</text>
<g transform="translate(122.6,330.0) rotate(-45)"><text text-anchor="end" font-size="10" fill="#111827">2022-Q2</text></g>
<rect x="150.8" y="300.1" width="27.1" height="19.9" fill="#34C759" rx="3" opacity="0.85"/>
<text x="164.4" y="284.1" text-anchor="middle" font-size="10" fill="#6b7280">51</text>
<text x="164.4" y="296.1" text-anchor="middle" font-size="10" fill="#6b7280">(1.87%)</text>
<g transform="translate(164.4,330.0) rotate(-45)"><text text-anchor="end" font-size="10" fill="#111827">2022-Q3</text></g>
<rect x="192.6" y="292.3" width="27.1" height="27.7" fill="#34C759" rx="3" opacity="0.85"/>
<text x="206.2" y="276.3" text-anchor="middle" font-size="10" fill="#6b7280">71</text>
<text x="206.2" y="288.3" text-anchor="middle" font-size="10" fill="#6b7280">(2.60%)</text>
<g transform="translate(206.2,330.0) rotate(-45)"><text text-anchor="end" font-size="10" fill="#111827">2022-Q4</text></g>
<rect x="234.4" y="283.7" width="27.1" height="36.3" fill="#34C759" rx="3" opacity="0.85"/>
<text x="247.9" y="267.7" text-anchor="middle" font-size="10" fill="#6b7280">93</text>
<text x="247.9" y="279.7" text-anchor="middle" font-size="10" fill="#6b7280">(3.40%)</text>
<g transform="translate(247.9,330.0) rotate(-45)"><text text-anchor="end" font-size="10" fill="#111827">2023-Q1</text></g>
<rect x="276.1" y="284.1" width="27.1" height="35.9" fill="#34C759" rx="3" opacity="0.85"/>
<text x="289.7" y="268.1" text-anchor="middle" font-size="10" fill="#6b7280">92</text>
<text x="289.7" y="280.1" text-anchor="middle" font-size="10" fill="#6b7280">(3.37%)</text>
<g transform="translate(289.7,330.0) rotate(-45)"><text text-anchor="end" font-size="10" fill="#111827">2023-Q2</text></g>
<rect x="317.9" y="285.2" width="27.1" height="34.8" fill="#34C759" rx="3" opacity="0.85"/>
<text x="331.5" y="269.2" text-anchor="middle" font-size="10" fill="#6b7280">89</text>
<text x="331.5" y="281.2" text-anchor="middle" font-size="10" fill="#6b7280">(3.26%)</text>
<g transform="translate(331.5,330.0) rotate(-45)"><text text-anchor="end" font-size="10" fill="#111827">2023-Q3</text></g>
<rect x="359.7" y="292.7" width="27.1" height="27.3" fill="#34C759" rx="3" opacity="0.85"/>
<text x="373.2" y="276.7" text-anchor="middle" font-size="10" fill="#6b7280">70</text>
<text x="373.2" y="288.7" text-anchor="middle" font-size="10" fill="#6b7280">(2.56%)</text>
<g transform="translate(373.2,330.0) rotate(-45)"><text text-anchor="end" font-size="10" fill="#111827">2023-Q4</text></g>
<rect x="401.4" y="270.8" width="27.1" height="49.2" fill="#34C759" rx="3" opacity="0.85"/>
<text x="415.0" y="254.8" text-anchor="middle" font-size="10" fill="#6b7280">126</text>
<text x="415.0" y="266.8" text-anchor="middle" font-size="10" fill="#6b7280">(4.61%)</text>
<g transform="translate(415.0,330.0) rotate(-45)"><text text-anchor="end" font-size="10" fill="#111827">2024-Q1</text></g>
<rect x="443.2" y="266.9" width="27.1" height="53.1" fill="#34C759" rx="3" opacity="0.85"/>
<text x="456.8" y="250.9" text-anchor="middle" font-size="10" fill="#6b7280">136</text>
<text x="456.8" y="262.9" text-anchor="middle" font-size="10" fill="#6b7280">(4.98%)</text>
<g transform="translate(456.8,330.0) rotate(-45)"><text text-anchor="end" font-size="10" fill="#111827">2024-Q2</text></g>
<rect x="485.0" y="267.3" width="27.1" height="52.7" fill="#34C759" rx="3" opacity="0.85"/>
<text x="498.5" y="251.3" text-anchor="middle" font-size="10" fill="#6b7280">135</text>
<text x="498.5" y="263.3" text-anchor="middle" font-size="10" fill="#6b7280">(4.94%)</text>
<g transform="translate(498.5,330.0) rotate(-45)"><text text-anchor="end" font-size="10" fill="#111827">2024-Q3</text></g>
<rect x="526.7" y="266.5" width="27.1" height="53.5" fill="#34C759" rx="3" opacity="0.85"/>
<text x="540.3" y="250.5" text-anchor="middle" font-size="10" fill="#6b7280">137</text>
<text x="540.3" y="262.5" text-anchor="middle" font-size="10" fill="#6b7280">(5.01%)</text>
<g transform="translate(540.3,330.0) rotate(-45)"><text text-anchor="end" font-size="10" fill="#111827">2024-Q4</text></g>
<rect x="568.5" y="237.2" width="27.1" height="82.8" fill="#34C759" rx="3" opacity="0.85"/>
<text x="582.1" y="221.2" text-anchor="middle" font-size="10" fill="#6b7280">212</text>
<text x="582.1" y="233.2" text-anchor="middle" font-size="10" fill="#6b7280">(7.76%)</text>
<g transform="translate(582.1,330.0) rotate(-45)"><text text-anchor="end" font-size="10" fill="#111827">2025-Q1</text></g>
<rect x="610.3" y="228.6" width="27.1" height="91.4" fill="#34C759" rx="3" opacity="0.85"/>
<text x="623.8" y="212.6" text-anchor="middle" font-size="10" fill="#6b7280">234</text>
<text x="623.8" y="224.6" text-anchor="middle" font-size="10" fill="#6b7280">(8.56%)</text>
<g transform="translate(623.8,330.0) rotate(-45)"><text text-anchor="end" font-size="10" fill="#111827">2025-Q2</text></g>
<rect x="652.0" y="230.2" width="27.1" height="89.8" fill="#34C759" rx="3" opacity="0.85"/>
<text x="665.6" y="214.2" text-anchor="middle" font-size="10" fill="#6b7280">230</text>
<text x="665.6" y="226.2" text-anchor="middle" font-size="10" fill="#6b7280">(8.42%)</text>
<g transform="translate(665.6,330.0) rotate(-45)"><text text-anchor="end" font-size="10" fill="#111827">2025-Q3</text></g>
<rect x="693.8" y="188.8" width="27.1" height="131.2" fill="#34C759" rx="3" opacity="0.85"/>
<text x="707.4" y="172.8" text-anchor="middle" font-size="10" fill="#6b7280">336</text>
<text x="707.4" y="184.8" text-anchor="middle" font-size="10" fill="#6b7280">(12.29%)</text>
<g transform="translate(707.4,330.0) rotate(-45)"><text text-anchor="end" font-size="10" fill="#111827">2025-Q4</text></g>
<rect x="735.5" y="58.0" width="27.1" height="262.0" fill="#34C759" rx="3" opacity="0.85"/>
<text x="749.1" y="72.0" text-anchor="middle" font-size="10" fill="#6b7280">671</text>
<text x="749.1" y="84.0" text-anchor="middle" font-size="10" fill="#6b7280">(24.55%)</text>
<g transform="translate(749.1,330.0) rotate(-45)"><text text-anchor="end" font-size="10" fill="#111827">2026-Q1</text></g>
</svg>