<svg xmlns="http://www.w3.org/2000/svg" width="800" height="400" viewBox="0 0 800 400">
<defs>
  <style>text { font-family: -apple-system, BlinkMacSystemFont, 'Segoe UI', Roboto, sans-serif; }</style>
  <linearGradient id="g1" x1="0" y1="0" x2="0" y2="1">
  <stop offset="0%" stop-color="#FF6363" stop-opacity="0.25"/>
  <stop offset="100%" stop-color="#FF6363" stop-opacity="0"/>
</linearGradient>
  <clipPath id="ca"><rect x="72" y="45" width="698" height="295"/></clipPath>
</defs>
<rect width="800" height="400" fill="#ffffff" rx="12"/>
<text x="400" y="26" text-anchor="middle" font-size="15" font-weight="600" fill="#111827">Packages Growth Over Time</text>
<line x1="72" y1="340.0" x2="770" y2="340.0" stroke="#f3f4f6" stroke-width="1"/>
<text x="66" y="344.0" text-anchor="end" font-size="11" fill="#6b7280">2.4k</text>
<line x1="72" y1="266.3" x2="770" y2="266.3" stroke="#f3f4f6" stroke-width="1"/>
<text x="66" y="270.3" text-anchor="end" font-size="11" fill="#6b7280">2.6k</text>
<line x1="72" y1="192.5" x2="770" y2="192.5" stroke="#f3f4f6" stroke-width="1"/>
<text x="66" y="196.5" text-anchor="end" font-size="11" fill="#6b7280">2.8k</text>
<line x1="72" y1="118.8" x2="770" y2="118.8" stroke="#f3f4f6" stroke-width="1"/>
<text x="66" y="122.8" text-anchor="end" font-size="11" fill="#6b7280">3.0k</text>
<line x1="72" y1="45.0" x2="770" y2="45.0" stroke="#f3f4f6" stroke-width="1"/>
<text x="66" y="49.0" text-anchor="end" font-size="11" fill="#6b7280">3.2k</text>
<line x1="121.3" y1="45" x2="121.3" y2="340" stroke="#e5e7eb" stroke-width="1" stroke-dasharray="3,3" clip-path="url(#ca)"/>
<line x1="228.0" y1="45" x2="228.0" y2="340" stroke="#e5e7eb" stroke-width="1" stroke-dasharray="3,3" clip-path="url(#ca)"/>
<line x1="338.9" y1="45" x2="338.9" y2="340" stroke="#e5e7eb" stroke-width="1" stroke-dasharray="3,3" clip-path="url(#ca)"/>
<line x1="449.7" y1="45" x2="449.7" y2="340" stroke="#e5e7eb" stroke-width="1" stroke-dasharray="3,3" clip-path="url(#ca)"/>
<line x1="560.6" y1="45" x2="560.6" y2="340" stroke="#e5e7eb" stroke-width="1" stroke-dasharray="3,3" clip-path="url(#ca)"/>
<line x1="667.4" y1="45" x2="667.4" y2="340" stroke="#e5e7eb" stroke-width="1" stroke-dasharray="3,3" clip-path="url(#ca)"/>
<line x1="765.9" y1="45" x2="765.9" y2="340" stroke="#e5e7eb" stroke-width="1" stroke-dasharray="3,3" clip-path="url(#ca)"/>
<text x="72.0" y="358.0" text-anchor="middle" font-size="11" fill="#6b7280">Dec 11</text>
<text x="211.6" y="358.0" text-anchor="middle" font-size="11" fill="#6b7280">Jan 28</text>
<text x="351.2" y="358.0" text-anchor="middle" font-size="11" fill="#6b7280">Mar 4</text>
<text x="490.8" y="358.0" text-anchor="middle" font-size="11" fill="#6b7280">Apr 12</text>
<text x="630.4" y="358.0" text-anchor="middle" font-size="11" fill="#6b7280">May 23</text>
<text x="770.0" y="358.0" text-anchor="middle" font-size="11" fill="#6b7280">Jul 2</text>
<line x1="72" y1="45" x2="72" y2="340" stroke="#e5e7eb" stroke-width="1"/>
<line x1="72" y1="340" x2="770" y2="340" stroke="#e5e7eb" stroke-width="1"/>
<text x="-192.5" y="18" text-anchor="middle" font-size="12" fill="#6b7280" transform="rotate(-90)">Extensions</text>
<path d="M 72.0,340 L 72.0,311.6 L 76.1,311.2 L 80.2,311.2 L 84.3,310.1 L 88.4,310.1 L 92.5,309.4 L 96.6,308.7 L 100.7,308.3 L 104.8,306.4 L 109.0,305.0 L 113.1,305.0 L 117.2,305.0 L 121.3,305.0 L 125.4,304.2 L 129.5,304.2 L 133.6,304.2 L 137.7,303.5 L 141.8,302.0 L 145.9,299.4 L 150.0,297.6 L 154.1,296.9 L 158.2,296.5 L 162.3,295.0 L 166.4,290.6 L 170.5,289.1 L 174.6,289.1 L 178.8,285.4 L 182.9,284.3 L 187.0,282.8 L 191.1,281.7 L 195.2,279.5 L 199.3,277.7 L 203.4,277.3 L 207.5,274.4 L 211.6,271.8 L 215.7,271.8 L 219.8,269.9 L 223.9,268.5 L 228.0,268.1 L 232.1,267.7 L 236.2,267.4 L 240.3,266.3 L 244.4,259.6 L 248.6,256.7 L 252.7,255.2 L 256.8,254.4 L 260.9,253.3 L 265.0,250.8 L 269.1,250.0 L 273.2,249.3 L 277.3,247.1 L 281.4,246.3 L 285.5,245.6 L 289.6,245.6 L 293.7,239.0 L 297.8,238.2 L 301.9,237.5 L 306.0,236.0 L 310.1,234.2 L 314.2,234.2 L 318.4,231.2 L 322.5,226.4 L 326.6,225.7 L 330.7,226.1 L 334.8,224.9 L 338.9,224.6 L 343.0,224.6 L 347.1,222.4 L 351.2,220.5 L 355.3,219.1 L 359.4,217.2 L 363.5,216.8 L 367.6,216.8 L 371.7,214.3 L 375.8,213.5 L 379.9,213.2 L 384.0,208.7 L 388.2,208.4 L 392.3,208.4 L 396.4,208.4 L 400.5,208.0 L 404.6,206.1 L 408.7,204.7 L 412.8,202.8 L 416.9,202.5 L 421.0,201.3 L 425.1,198.0 L 429.2,195.1 L 433.3,194.7 L 437.4,194.3 L 441.5,193.2 L 445.6,189.6 L 449.7,188.8 L 453.8,187.7 L 458.0,185.5 L 462.1,185.1 L 466.2,184.8 L 470.3,184.8 L 474.4,184.0 L 478.5,181.8 L 482.6,181.1 L 486.7,180.3 L 490.8,180.0 L 494.9,179.2 L 499.0,175.5 L 503.1,175.2 L 507.2,174.4 L 511.3,174.1 L 515.4,172.2 L 519.5,171.9 L 523.6,171.5 L 527.8,170.4 L 531.9,168.9 L 536.0,168.9 L 540.1,168.9 L 544.2,168.9 L 548.3,168.2 L 552.4,166.3 L 556.5,166.0 L 560.6,164.1 L 564.7,163.7 L 568.8,163.4 L 572.9,161.2 L 577.0,158.9 L 581.1,158.6 L 585.2,158.2 L 589.3,153.4 L 593.4,151.9 L 597.6,150.8 L 601.7,150.5 L 605.8,147.9 L 609.9,147.9 L 614.0,146.0 L 618.1,144.9 L 622.2,141.2 L 626.3,139.8 L 630.4,139.4 L 634.5,139.0 L 638.6,139.0 L 642.7,138.7 L 646.8,136.5 L 650.9,134.6 L 655.0,134.6 L 659.1,134.2 L 663.2,134.2 L 667.4,132.8 L 671.5,132.0 L 675.6,130.9 L 679.7,129.8 L 683.8,128.3 L 687.9,128.3 L 692.0,127.2 L 696.1,125.8 L 700.2,122.8 L 704.3,120.2 L 708.4,119.5 L 712.5,118.8 L 716.6,118.0 L 720.7,117.6 L 724.8,116.5 L 728.9,114.3 L 733.0,114.0 L 737.2,112.5 L 741.3,111.0 L 745.4,108.4 L 749.5,107.3 L 753.6,106.6 L 757.7,106.6 L 761.8,105.1 L 765.9,104.4 L 770.0,103.6 L 770.0,340 Z" fill="url(#g1)" clip-path="url(#ca)"/>
<path d="M 72.0,311.6 L 76.1,311.2 L 80.2,311.2 L 84.3,310.1 L 88.4,310.1 L 92.5,309.4 L 96.6,308.7 L 100.7,308.3 L 104.8,306.4 L 109.0,305.0 L 113.1,305.0 L 117.2,305.0 L 121.3,305.0 L 125.4,304.2 L 129.5,304.2 L 133.6,304.2 L 137.7,303.5 L 141.8,302.0 L 145.9,299.4 L 150.0,297.6 L 154.1,296.9 L 158.2,296.5 L 162.3,295.0 L 166.4,290.6 L 170.5,289.1 L 174.6,289.1 L 178.8,285.4 L 182.9,284.3 L 187.0,282.8 L 191.1,281.7 L 195.2,279.5 L 199.3,277.7 L 203.4,277.3 L 207.5,274.4 L 211.6,271.8 L 215.7,271.8 L 219.8,269.9 L 223.9,268.5 L 228.0,268.1 L 232.1,267.7 L 236.2,267.4 L 240.3,266.3 L 244.4,259.6 L 248.6,256.7 L 252.7,255.2 L 256.8,254.4 L 260.9,253.3 L 265.0,250.8 L 269.1,250.0 L 273.2,249.3 L 277.3,247.1 L 281.4,246.3 L 285.5,245.6 L 289.6,245.6 L 293.7,239.0 L 297.8,238.2 L 301.9,237.5 L 306.0,236.0 L 310.1,234.2 L 314.2,234.2 L 318.4,231.2 L 322.5,226.4 L 326.6,225.7 L 330.7,226.1 L 334.8,224.9 L 338.9,224.6 L 343.0,224.6 L 347.1,222.4 L 351.2,220.5 L 355.3,219.1 L 359.4,217.2 L 363.5,216.8 L 367.6,216.8 L 371.7,214.3 L 375.8,213.5 L 379.9,213.2 L 384.0,208.7 L 388.2,208.4 L 392.3,208.4 L 396.4,208.4 L 400.5,208.0 L 404.6,206.1 L 408.7,204.7 L 412.8,202.8 L 416.9,202.5 L 421.0,201.3 L 425.1,198.0 L 429.2,195.1 L 433.3,194.7 L 437.4,194.3 L 441.5,193.2 L 445.6,189.6 L 449.7,188.8 L 453.8,187.7 L 458.0,185.5 L 462.1,185.1 L 466.2,184.8 L 470.3,184.8 L 474.4,184.0 L 478.5,181.8 L 482.6,181.1 L 486.7,180.3 L 490.8,180.0 L 494.9,179.2 L 499.0,175.5 L 503.1,175.2 L 507.2,174.4 L 511.3,174.1 L 515.4,172.2 L 519.5,171.9 L 523.6,171.5 L 527.8,170.4 L 531.9,168.9 L 536.0,168.9 L 540.1,168.9 L 544.2,168.9 L 548.3,168.2 L 552.4,166.3 L 556.5,166.0 L 560.6,164.1 L 564.7,163.7 L 568.8,163.4 L 572.9,161.2 L 577.0,158.9 L 581.1,158.6 L 585.2,158.2 L 589.3,153.4 L 593.4,151.9 L 597.6,150.8 L 601.7,150.5 L 605.8,147.9 L 609.9,147.9 L 614.0,146.0 L 618.1,144.9 L 622.2,141.2 L 626.3,139.8 L 630.4,139.4 L 634.5,139.0 L 638.6,139.0 L 642.7,138.7 L 646.8,136.5 L 650.9,134.6 L 655.0,134.6 L 659.1,134.2 L 663.2,134.2 L 667.4,132.8 L 671.5,132.0 L 675.6,130.9 L 679.7,129.8 L 683.8,128.3 L 687.9,128.3 L 692.0,127.2 L 696.1,125.8 L 700.2,122.8 L 704.3,120.2 L 708.4,119.5 L 712.5,118.8 L 716.6,118.0 L 720.7,117.6 L 724.8,116.5 L 728.9,114.3 L 733.0,114.0 L 737.2,112.5 L 741.3,111.0 L 745.4,108.4 L 749.5,107.3 L 753.6,106.6 L 757.7,106.6 L 761.8,105.1 L 765.9,104.4 L 770.0,103.6" fill="none" stroke="#FF6363" stroke-width="2.5" stroke-linejoin="round" clip-path="url(#ca)"/>
<text x="94.6" y="55.0" text-anchor="middle" font-size="9" fill="#FF6363" opacity="0.85" clip-path="url(#ca)">+0.7% (+18)</text>
<text x="172.6" y="55.0" text-anchor="middle" font-size="9" fill="#FF6363" opacity="0.85" clip-path="url(#ca)">+4.0% (+99)</text>
<text x="281.4" y="55.0" text-anchor="middle" font-size="9" fill="#FF6363" opacity="0.85" clip-path="url(#ca)">+4.5% (+117)</text>
<text x="392.3" y="55.0" text-anchor="middle" font-size="9" fill="#FF6363" opacity="0.85" clip-path="url(#ca)">+3.5% (+95)</text>
<text x="503.1" y="55.0" text-anchor="middle" font-size="9" fill="#FF6363" opacity="0.85" clip-path="url(#ca)">+2.2% (+62)</text>
<text x="611.9" y="55.0" text-anchor="middle" font-size="9" fill="#FF6363" opacity="0.85" clip-path="url(#ca)">+2.8% (+81)</text>
<text x="714.6" y="55.0" text-anchor="middle" font-size="9" fill="#FF6363" opacity="0.85" clip-path="url(#ca)">+2.5% (+75)</text>
<text x="767.9" y="55.0" text-anchor="middle" font-size="9" fill="#FF6363" opacity="0.85" clip-path="url(#ca)">+0.1% (+2)</text>
<rect x="351" y="369" width="12" height="12" fill="#FF6363" rx="2"/>
<text x="367" y="379" font-size="12" fill="#111827">Extensions</text>
<text x="72" y="394" font-size="8" fill="#e5e7eb">data since Dec 11, 2025</text>
</svg>