<svg xmlns="http://www.w3.org/2000/svg" width="800" height="400" viewBox="0 0 800 400">
<defs>
  <style>text { font-family: -apple-system, BlinkMacSystemFont, 'Segoe UI', Roboto, sans-serif; }</style>
  <linearGradient id="g5" x1="0" y1="0" x2="0" y2="1">
  <stop offset="0%" stop-color="#34C759" stop-opacity="0.25"/>
  <stop offset="100%" stop-color="#34C759" stop-opacity="0"/>
</linearGradient>
<linearGradient id="g6" x1="0" y1="0" x2="0" y2="1">
  <stop offset="0%" stop-color="#4F8EF7" stop-opacity="0.25"/>
  <stop offset="100%" stop-color="#4F8EF7" stop-opacity="0"/>
</linearGradient>
<linearGradient id="g7" x1="0" y1="0" x2="0" y2="1">
  <stop offset="0%" stop-color="#FF6363" stop-opacity="0.25"/>
  <stop offset="100%" stop-color="#FF6363" stop-opacity="0"/>
</linearGradient>
  <clipPath id="ca"><rect x="72" y="45" width="698" height="295"/></clipPath>
</defs>
<rect width="800" height="400" fill="#ffffff" rx="12"/>
<text x="400" y="26" text-anchor="middle" font-size="15" font-weight="600" fill="#111827">Platform Support Over Time</text>
<line x1="72" y1="340.0" x2="770" y2="340.0" stroke="#f3f4f6" stroke-width="1"/>
<text x="66" y="344.0" text-anchor="end" font-size="11" fill="#6b7280">0</text>
<line x1="72" y1="266.3" x2="770" y2="266.3" stroke="#f3f4f6" stroke-width="1"/>
<text x="66" y="270.3" text-anchor="end" font-size="11" fill="#6b7280">200</text>
<line x1="72" y1="192.5" x2="770" y2="192.5" stroke="#f3f4f6" stroke-width="1"/>
<text x="66" y="196.5" text-anchor="end" font-size="11" fill="#6b7280">400</text>
<line x1="72" y1="118.8" x2="770" y2="118.8" stroke="#f3f4f6" stroke-width="1"/>
<text x="66" y="122.8" text-anchor="end" font-size="11" fill="#6b7280">600</text>
<line x1="72" y1="45.0" x2="770" y2="45.0" stroke="#f3f4f6" stroke-width="1"/>
<text x="66" y="49.0" text-anchor="end" font-size="11" fill="#6b7280">800</text>
<line x1="152.5" y1="45" x2="152.5" y2="340" stroke="#e5e7eb" stroke-width="1" stroke-dasharray="3,3" clip-path="url(#ca)"/>
<line x1="327.0" y1="45" x2="327.0" y2="340" stroke="#e5e7eb" stroke-width="1" stroke-dasharray="3,3" clip-path="url(#ca)"/>
<line x1="508.3" y1="45" x2="508.3" y2="340" stroke="#e5e7eb" stroke-width="1" stroke-dasharray="3,3" clip-path="url(#ca)"/>
<line x1="689.5" y1="45" x2="689.5" y2="340" stroke="#e5e7eb" stroke-width="1" stroke-dasharray="3,3" clip-path="url(#ca)"/>
<text x="72.0" y="358.0" text-anchor="middle" font-size="11" fill="#6b7280">Dec 11</text>
<text x="212.9" y="358.0" text-anchor="middle" font-size="11" fill="#6b7280">Jan 14</text>
<text x="353.9" y="358.0" text-anchor="middle" font-size="11" fill="#6b7280">Feb 5</text>
<text x="488.1" y="358.0" text-anchor="middle" font-size="11" fill="#6b7280">Feb 26</text>
<text x="629.1" y="358.0" text-anchor="middle" font-size="11" fill="#6b7280">Mar 20</text>
<text x="770.0" y="358.0" text-anchor="middle" font-size="11" fill="#6b7280">Apr 14</text>
<line x1="72" y1="45" x2="72" y2="340" stroke="#e5e7eb" stroke-width="1"/>
<line x1="72" y1="340" x2="770" y2="340" stroke="#e5e7eb" stroke-width="1"/>
<text x="-192.5" y="18" text-anchor="middle" font-size="12" fill="#6b7280" transform="rotate(-90)">Extensions</text>
<path d="M 72.0,340 L 72.0,218.3 L 78.7,215.0 L 85.4,214.6 L 92.1,213.2 L 98.8,212.4 L 105.6,208.7 L 112.3,206.5 L 119.0,205.4 L 125.7,203.6 L 132.4,201.3 L 139.1,200.2 L 145.8,199.9 L 152.5,198.8 L 159.3,198.0 L 166.0,197.7 L 172.7,196.6 L 179.4,195.4 L 186.1,194.3 L 192.8,193.2 L 199.5,191.8 L 206.2,190.7 L 212.9,189.6 L 219.7,188.4 L 226.4,186.2 L 233.1,185.5 L 239.8,185.5 L 246.5,182.9 L 253.2,182.2 L 259.9,181.4 L 266.6,180.7 L 273.3,178.9 L 280.1,176.3 L 286.8,175.9 L 293.5,175.5 L 300.2,173.3 L 306.9,172.6 L 313.6,170.7 L 320.3,170.4 L 327.0,170.0 L 333.8,169.3 L 340.5,169.3 L 347.2,169.3 L 353.9,164.1 L 360.6,163.7 L 367.3,162.6 L 374.0,162.3 L 380.7,161.9 L 387.4,160.8 L 394.2,160.1 L 400.9,159.3 L 407.6,157.1 L 414.3,157.1 L 421.0,157.1 L 427.7,156.7 L 434.4,153.0 L 441.1,151.9 L 447.8,151.2 L 454.6,150.1 L 461.3,149.4 L 468.0,149.4 L 474.7,147.5 L 481.4,144.9 L 488.1,144.2 L 494.8,143.8 L 501.5,142.7 L 508.3,142.7 L 515.0,142.0 L 521.7,140.9 L 528.4,140.1 L 535.1,138.7 L 541.8,137.2 L 548.5,136.8 L 555.2,136.8 L 561.9,135.3 L 568.7,135.3 L 575.4,135.3 L 582.1,133.1 L 588.8,132.8 L 595.5,132.4 L 602.2,132.4 L 608.9,132.0 L 615.6,130.6 L 622.3,129.8 L 629.1,128.7 L 635.8,128.7 L 642.5,128.3 L 649.2,126.9 L 655.9,125.8 L 662.6,125.8 L 669.3,125.4 L 676.0,124.7 L 682.8,122.1 L 689.5,121.3 L 696.2,120.2 L 702.9,120.2 L 709.6,119.5 L 716.3,119.1 L 723.0,118.8 L 729.7,118.4 L 736.4,118.0 L 743.2,118.0 L 749.9,117.6 L 756.6,117.3 L 763.3,116.2 L 770.0,114.7 L 770.0,340 Z" fill="url(#g5)" clip-path="url(#ca)"/>
<path d="M 72.0,218.3 L 78.7,215.0 L 85.4,214.6 L 92.1,213.2 L 98.8,212.4 L 105.6,208.7 L 112.3,206.5 L 119.0,205.4 L 125.7,203.6 L 132.4,201.3 L 139.1,200.2 L 145.8,199.9 L 152.5,198.8 L 159.3,198.0 L 166.0,197.7 L 172.7,196.6 L 179.4,195.4 L 186.1,194.3 L 192.8,193.2 L 199.5,191.8 L 206.2,190.7 L 212.9,189.6 L 219.7,188.4 L 226.4,186.2 L 233.1,185.5 L 239.8,185.5 L 246.5,182.9 L 253.2,182.2 L 259.9,181.4 L 266.6,180.7 L 273.3,178.9 L 280.1,176.3 L 286.8,175.9 L 293.5,175.5 L 300.2,173.3 L 306.9,172.6 L 313.6,170.7 L 320.3,170.4 L 327.0,170.0 L 333.8,169.3 L 340.5,169.3 L 347.2,169.3 L 353.9,164.1 L 360.6,163.7 L 367.3,162.6 L 374.0,162.3 L 380.7,161.9 L 387.4,160.8 L 394.2,160.1 L 400.9,159.3 L 407.6,157.1 L 414.3,157.1 L 421.0,157.1 L 427.7,156.7 L 434.4,153.0 L 441.1,151.9 L 447.8,151.2 L 454.6,150.1 L 461.3,149.4 L 468.0,149.4 L 474.7,147.5 L 481.4,144.9 L 488.1,144.2 L 494.8,143.8 L 501.5,142.7 L 508.3,142.7 L 515.0,142.0 L 521.7,140.9 L 528.4,140.1 L 535.1,138.7 L 541.8,137.2 L 548.5,136.8 L 555.2,136.8 L 561.9,135.3 L 568.7,135.3 L 575.4,135.3 L 582.1,133.1 L 588.8,132.8 L 595.5,132.4 L 602.2,132.4 L 608.9,132.0 L 615.6,130.6 L 622.3,129.8 L 629.1,128.7 L 635.8,128.7 L 642.5,128.3 L 649.2,126.9 L 655.9,125.8 L 662.6,125.8 L 669.3,125.4 L 676.0,124.7 L 682.8,122.1 L 689.5,121.3 L 696.2,120.2 L 702.9,120.2 L 709.6,119.5 L 716.3,119.1 L 723.0,118.8 L 729.7,118.4 L 736.4,118.0 L 743.2,118.0 L 749.9,117.6 L 756.6,117.3 L 763.3,116.2 L 770.0,114.7" fill="none" stroke="#34C759" stroke-width="2.5" stroke-linejoin="round" clip-path="url(#ca)"/>
<path d="M 72.0,340 L 72.0,193.2 L 78.7,193.2 L 85.4,192.9 L 92.1,191.8 L 98.8,192.1 L 105.6,192.1 L 112.3,190.7 L 119.0,189.6 L 125.7,189.6 L 132.4,189.9 L 139.1,189.6 L 145.8,189.2 L 152.5,188.8 L 159.3,188.8 L 166.0,188.8 L 172.7,189.2 L 179.4,188.4 L 186.1,187.7 L 192.8,185.5 L 199.5,184.0 L 206.2,184.0 L 212.9,183.7 L 219.7,181.4 L 226.4,178.1 L 233.1,177.0 L 239.8,176.3 L 246.5,173.7 L 253.2,171.9 L 259.9,171.1 L 266.6,170.4 L 273.3,169.6 L 280.1,169.3 L 286.8,169.3 L 293.5,166.7 L 300.2,166.0 L 306.9,165.2 L 313.6,165.2 L 320.3,163.4 L 327.0,163.0 L 333.8,161.9 L 340.5,160.4 L 347.2,158.6 L 353.9,156.0 L 360.6,153.4 L 367.3,153.0 L 374.0,152.3 L 380.7,151.6 L 387.4,149.4 L 394.2,149.4 L 400.9,148.6 L 407.6,147.5 L 414.3,146.8 L 421.0,145.3 L 427.7,145.7 L 434.4,141.2 L 441.1,140.9 L 447.8,140.5 L 454.6,139.8 L 461.3,137.6 L 468.0,137.6 L 474.7,135.3 L 481.4,132.8 L 488.1,132.8 L 494.8,132.8 L 501.5,132.4 L 508.3,132.0 L 515.0,131.7 L 521.7,129.8 L 528.4,127.6 L 535.1,126.9 L 541.8,125.4 L 548.5,125.4 L 555.2,124.3 L 561.9,122.1 L 568.7,121.0 L 575.4,120.6 L 582.1,118.0 L 588.8,117.6 L 595.5,117.6 L 602.2,117.3 L 608.9,117.3 L 615.6,115.4 L 622.3,114.7 L 629.1,113.6 L 635.8,113.2 L 642.5,112.5 L 649.2,109.5 L 655.9,105.5 L 662.6,105.1 L 669.3,104.4 L 676.0,104.0 L 682.8,102.2 L 689.5,63.1 L 696.2,62.3 L 702.9,60.5 L 709.6,60.5 L 716.3,60.5 L 723.0,60.9 L 729.7,60.5 L 736.4,58.3 L 743.2,57.5 L 749.9,57.2 L 756.6,56.8 L 763.3,55.3 L 770.0,53.1 L 770.0,340 Z" fill="url(#g6)" clip-path="url(#ca)"/>
<path d="M 72.0,193.2 L 78.7,193.2 L 85.4,192.9 L 92.1,191.8 L 98.8,192.1 L 105.6,192.1 L 112.3,190.7 L 119.0,189.6 L 125.7,189.6 L 132.4,189.9 L 139.1,189.6 L 145.8,189.2 L 152.5,188.8 L 159.3,188.8 L 166.0,188.8 L 172.7,189.2 L 179.4,188.4 L 186.1,187.7 L 192.8,185.5 L 199.5,184.0 L 206.2,184.0 L 212.9,183.7 L 219.7,181.4 L 226.4,178.1 L 233.1,177.0 L 239.8,176.3 L 246.5,173.7 L 253.2,171.9 L 259.9,171.1 L 266.6,170.4 L 273.3,169.6 L 280.1,169.3 L 286.8,169.3 L 293.5,166.7 L 300.2,166.0 L 306.9,165.2 L 313.6,165.2 L 320.3,163.4 L 327.0,163.0 L 333.8,161.9 L 340.5,160.4 L 347.2,158.6 L 353.9,156.0 L 360.6,153.4 L 367.3,153.0 L 374.0,152.3 L 380.7,151.6 L 387.4,149.4 L 394.2,149.4 L 400.9,148.6 L 407.6,147.5 L 414.3,146.8 L 421.0,145.3 L 427.7,145.7 L 434.4,141.2 L 441.1,140.9 L 447.8,140.5 L 454.6,139.8 L 461.3,137.6 L 468.0,137.6 L 474.7,135.3 L 481.4,132.8 L 488.1,132.8 L 494.8,132.8 L 501.5,132.4 L 508.3,132.0 L 515.0,131.7 L 521.7,129.8 L 528.4,127.6 L 535.1,126.9 L 541.8,125.4 L 548.5,125.4 L 555.2,124.3 L 561.9,122.1 L 568.7,121.0 L 575.4,120.6 L 582.1,118.0 L 588.8,117.6 L 595.5,117.6 L 602.2,117.3 L 608.9,117.3 L 615.6,115.4 L 622.3,114.7 L 629.1,113.6 L 635.8,113.2 L 642.5,112.5 L 649.2,109.5 L 655.9,105.5 L 662.6,105.1 L 669.3,104.4 L 676.0,104.0 L 682.8,102.2 L 689.5,63.1 L 696.2,62.3 L 702.9,60.5 L 709.6,60.5 L 716.3,60.5 L 723.0,60.9 L 729.7,60.5 L 736.4,58.3 L 743.2,57.5 L 749.9,57.2 L 756.6,56.8 L 763.3,55.3 L 770.0,53.1" fill="none" stroke="#4F8EF7" stroke-width="2.5" stroke-linejoin="round" clip-path="url(#ca)"/>
<path d="M 72.0,340 L 72.0,337.8 L 78.7,337.4 L 85.4,337.4 L 92.1,337.1 L 98.8,337.1 L 105.6,337.1 L 112.3,337.1 L 119.0,337.1 L 125.7,336.3 L 132.4,336.3 L 139.1,336.3 L 145.8,336.3 L 152.5,336.3 L 159.3,335.9 L 166.0,335.9 L 172.7,335.9 L 179.4,335.9 L 186.1,335.9 L 192.8,335.6 L 199.5,334.8 L 206.2,334.5 L 212.9,334.5 L 219.7,334.5 L 226.4,334.1 L 233.1,334.1 L 239.8,334.1 L 246.5,333.7 L 253.2,333.7 L 259.9,333.7 L 266.6,333.4 L 273.3,333.4 L 280.1,333.4 L 286.8,333.4 L 293.5,333.0 L 300.2,333.0 L 306.9,333.0 L 313.6,333.0 L 320.3,333.0 L 327.0,333.0 L 333.8,333.0 L 340.5,333.0 L 347.2,333.0 L 353.9,333.0 L 360.6,333.0 L 367.3,333.0 L 374.0,333.0 L 380.7,332.6 L 387.4,332.6 L 394.2,332.6 L 400.9,332.6 L 407.6,332.6 L 414.3,332.6 L 421.0,332.6 L 427.7,332.6 L 434.4,332.6 L 441.1,332.6 L 447.8,332.6 L 454.6,332.6 L 461.3,332.3 L 468.0,332.3 L 474.7,332.3 L 481.4,332.3 L 488.1,332.3 L 494.8,332.3 L 501.5,332.3 L 508.3,332.3 L 515.0,332.3 L 521.7,332.3 L 528.4,332.3 L 535.1,332.3 L 541.8,332.3 L 548.5,332.3 L 555.2,332.3 L 561.9,332.3 L 568.7,332.3 L 575.4,332.3 L 582.1,332.3 L 588.8,332.3 L 595.5,332.3 L 602.2,332.3 L 608.9,332.3 L 615.6,332.3 L 622.3,332.3 L 629.1,332.3 L 635.8,332.3 L 642.5,332.3 L 649.2,332.3 L 655.9,332.3 L 662.6,332.3 L 669.3,332.3 L 676.0,332.3 L 682.8,332.3 L 689.5,332.3 L 696.2,332.3 L 702.9,331.9 L 709.6,331.9 L 716.3,331.9 L 723.0,331.9 L 729.7,331.9 L 736.4,331.5 L 743.2,331.5 L 749.9,331.5 L 756.6,331.5 L 763.3,331.1 L 770.0,331.1 L 770.0,340 Z" fill="url(#g7)" clip-path="url(#ca)"/>
<path d="M 72.0,337.8 L 78.7,337.4 L 85.4,337.4 L 92.1,337.1 L 98.8,337.1 L 105.6,337.1 L 112.3,337.1 L 119.0,337.1 L 125.7,336.3 L 132.4,336.3 L 139.1,336.3 L 145.8,336.3 L 152.5,336.3 L 159.3,335.9 L 166.0,335.9 L 172.7,335.9 L 179.4,335.9 L 186.1,335.9 L 192.8,335.6 L 199.5,334.8 L 206.2,334.5 L 212.9,334.5 L 219.7,334.5 L 226.4,334.1 L 233.1,334.1 L 239.8,334.1 L 246.5,333.7 L 253.2,333.7 L 259.9,333.7 L 266.6,333.4 L 273.3,333.4 L 280.1,333.4 L 286.8,333.4 L 293.5,333.0 L 300.2,333.0 L 306.9,333.0 L 313.6,333.0 L 320.3,333.0 L 327.0,333.0 L 333.8,333.0 L 340.5,333.0 L 347.2,333.0 L 353.9,333.0 L 360.6,333.0 L 367.3,333.0 L 374.0,333.0 L 380.7,332.6 L 387.4,332.6 L 394.2,332.6 L 400.9,332.6 L 407.6,332.6 L 414.3,332.6 L 421.0,332.6 L 427.7,332.6 L 434.4,332.6 L 441.1,332.6 L 447.8,332.6 L 454.6,332.6 L 461.3,332.3 L 468.0,332.3 L 474.7,332.3 L 481.4,332.3 L 488.1,332.3 L 494.8,332.3 L 501.5,332.3 L 508.3,332.3 L 515.0,332.3 L 521.7,332.3 L 528.4,332.3 L 535.1,332.3 L 541.8,332.3 L 548.5,332.3 L 555.2,332.3 L 561.9,332.3 L 568.7,332.3 L 575.4,332.3 L 582.1,332.3 L 588.8,332.3 L 595.5,332.3 L 602.2,332.3 L 608.9,332.3 L 615.6,332.3 L 622.3,332.3 L 629.1,332.3 L 635.8,332.3 L 642.5,332.3 L 649.2,332.3 L 655.9,332.3 L 662.6,332.3 L 669.3,332.3 L 676.0,332.3 L 682.8,332.3 L 689.5,332.3 L 696.2,332.3 L 702.9,331.9 L 709.6,331.9 L 716.3,331.9 L 723.0,331.9 L 729.7,331.9 L 736.4,331.5 L 743.2,331.5 L 749.9,331.5 L 756.6,331.5 L 763.3,331.1 L 770.0,331.1" fill="none" stroke="#FF6363" stroke-width="2.5" stroke-linejoin="round" clip-path="url(#ca)"/>
<text x="108.9" y="55.0" text-anchor="middle" font-size="9" fill="#34C759" opacity="0.85" clip-path="url(#ca)">+15.2% (+50)</text>
<text x="108.9" y="66.0" text-anchor="middle" font-size="9" fill="#4F8EF7" opacity="0.85" clip-path="url(#ca)">+2.8% (+11)</text>
<text x="108.9" y="77.0" text-anchor="middle" font-size="9" fill="#FF6363" opacity="0.85" clip-path="url(#ca)">+66.7% (+4)</text>
<text x="236.4" y="55.0" text-anchor="middle" font-size="9" fill="#34C759" opacity="0.85" clip-path="url(#ca)">+20.1% (+77)</text>
<text x="236.4" y="66.0" text-anchor="middle" font-size="9" fill="#4F8EF7" opacity="0.85" clip-path="url(#ca)">+16.8% (+69)</text>
<text x="236.4" y="77.0" text-anchor="middle" font-size="9" fill="#FF6363" opacity="0.85" clip-path="url(#ca)">+90.0% (+9)</text>
<text x="414.3" y="55.0" text-anchor="middle" font-size="9" fill="#34C759" opacity="0.85" clip-path="url(#ca)">+16.1% (+74)</text>
<text x="414.3" y="66.0" text-anchor="middle" font-size="9" fill="#4F8EF7" opacity="0.85" clip-path="url(#ca)">+17.3% (+83)</text>
<text x="414.3" y="77.0" text-anchor="middle" font-size="9" fill="#FF6363" opacity="0.85" clip-path="url(#ca)">+10.5% (+2)</text>
<text x="595.5" y="55.0" text-anchor="middle" font-size="9" fill="#34C759" opacity="0.85" clip-path="url(#ca)">+10.5% (+56)</text>
<text x="595.5" y="66.0" text-anchor="middle" font-size="9" fill="#4F8EF7" opacity="0.85" clip-path="url(#ca)">+14.4% (+81)</text>
<text x="595.5" y="77.0" text-anchor="middle" font-size="9" fill="#FF6363" opacity="0.85" clip-path="url(#ca)">+0.0% (+0)</text>
<text x="729.7" y="55.0" text-anchor="middle" font-size="9" fill="#34C759" opacity="0.85" clip-path="url(#ca)">+3.0% (+18)</text>
<text x="729.7" y="66.0" text-anchor="middle" font-size="9" fill="#4F8EF7" opacity="0.85" clip-path="url(#ca)">+3.6% (+27)</text>
<text x="729.7" y="77.0" text-anchor="middle" font-size="9" fill="#FF6363" opacity="0.85" clip-path="url(#ca)">+14.3% (+3)</text>
<rect x="211" y="369" width="12" height="12" fill="#34C759" rx="2"/>
<text x="227" y="379" font-size="12" fill="#111827">macOS + Windows</text>
<rect x="351" y="369" width="12" height="12" fill="#4F8EF7" rx="2"/>
<text x="367" y="379" font-size="12" fill="#111827">macOS only</text>
<rect x="491" y="369" width="12" height="12" fill="#FF6363" rx="2"/>
<text x="507" y="379" font-size="12" fill="#111827">Windows only</text>
<text x="72" y="394" font-size="8" fill="#e5e7eb">data since Dec 11, 2025</text>
</svg>