<svg xmlns="http://www.w3.org/2000/svg" width="800" height="400" viewBox="0 0 800 400">
<defs>
  <style>text { font-family: -apple-system, BlinkMacSystemFont, 'Segoe UI', Roboto, sans-serif; }</style>
  <linearGradient id="g1" x1="0" y1="0" x2="0" y2="1">
  <stop offset="0%" stop-color="#FF6363" stop-opacity="0.25"/>
  <stop offset="100%" stop-color="#FF6363" stop-opacity="0"/>
</linearGradient>
  <clipPath id="ca"><rect x="72" y="45" width="698" height="295"/></clipPath>
</defs>
<rect width="800" height="400" fill="#ffffff" rx="12"/>
<text x="400" y="26" text-anchor="middle" font-size="15" font-weight="600" fill="#111827">Packages Growth Over Time</text>
<line x1="72" y1="340.0" x2="770" y2="340.0" stroke="#f3f4f6" stroke-width="1"/>
<text x="66" y="344.0" text-anchor="end" font-size="11" fill="#6b7280">2.4k</text>
<line x1="72" y1="281.0" x2="770" y2="281.0" stroke="#f3f4f6" stroke-width="1"/>
<text x="66" y="285.0" text-anchor="end" font-size="11" fill="#6b7280">2.5k</text>
<line x1="72" y1="222.0" x2="770" y2="222.0" stroke="#f3f4f6" stroke-width="1"/>
<text x="66" y="226.0" text-anchor="end" font-size="11" fill="#6b7280">2.6k</text>
<line x1="72" y1="163.0" x2="770" y2="163.0" stroke="#f3f4f6" stroke-width="1"/>
<text x="66" y="167.0" text-anchor="end" font-size="11" fill="#6b7280">2.7k</text>
<line x1="72" y1="104.0" x2="770" y2="104.0" stroke="#f3f4f6" stroke-width="1"/>
<text x="66" y="108.0" text-anchor="end" font-size="11" fill="#6b7280">2.8k</text>
<line x1="72" y1="45.0" x2="770" y2="45.0" stroke="#f3f4f6" stroke-width="1"/>
<text x="66" y="49.0" text-anchor="end" font-size="11" fill="#6b7280">2.9k</text>
<line x1="154.9" y1="45" x2="154.9" y2="340" stroke="#e5e7eb" stroke-width="1" stroke-dasharray="3,3" clip-path="url(#ca)"/>
<line x1="334.6" y1="45" x2="334.6" y2="340" stroke="#e5e7eb" stroke-width="1" stroke-dasharray="3,3" clip-path="url(#ca)"/>
<line x1="521.2" y1="45" x2="521.2" y2="340" stroke="#e5e7eb" stroke-width="1" stroke-dasharray="3,3" clip-path="url(#ca)"/>
<line x1="707.8" y1="45" x2="707.8" y2="340" stroke="#e5e7eb" stroke-width="1" stroke-dasharray="3,3" clip-path="url(#ca)"/>
<text x="72.0" y="358.0" text-anchor="middle" font-size="11" fill="#6b7280">Dec 11</text>
<text x="210.2" y="358.0" text-anchor="middle" font-size="11" fill="#6b7280">Jan 13</text>
<text x="348.4" y="358.0" text-anchor="middle" font-size="11" fill="#6b7280">Feb 3</text>
<text x="493.6" y="358.0" text-anchor="middle" font-size="11" fill="#6b7280">Feb 25</text>
<text x="631.8" y="358.0" text-anchor="middle" font-size="11" fill="#6b7280">Mar 18</text>
<text x="770.0" y="358.0" text-anchor="middle" font-size="11" fill="#6b7280">Apr 11</text>
<line x1="72" y1="45" x2="72" y2="340" stroke="#e5e7eb" stroke-width="1"/>
<line x1="72" y1="340" x2="770" y2="340" stroke="#e5e7eb" stroke-width="1"/>
<text x="-192.5" y="18" text-anchor="middle" font-size="12" fill="#6b7280" transform="rotate(-90)">Extensions</text>
<path d="M 72.0,340 L 72.0,294.6 L 78.9,294.0 L 85.8,294.0 L 92.7,292.2 L 99.6,292.2 L 106.6,291.0 L 113.5,289.9 L 120.4,289.3 L 127.3,286.3 L 134.2,283.9 L 141.1,283.9 L 148.0,283.9 L 154.9,283.9 L 161.8,282.8 L 168.8,282.8 L 175.7,282.8 L 182.6,281.6 L 189.5,279.2 L 196.4,275.1 L 203.3,272.1 L 210.2,271.0 L 217.1,270.4 L 224.0,268.0 L 231.0,260.9 L 237.9,258.6 L 244.8,258.6 L 251.7,252.7 L 258.6,250.9 L 265.5,248.6 L 272.4,246.8 L 279.3,243.2 L 286.2,240.3 L 293.1,239.7 L 300.1,235.0 L 307.0,230.8 L 313.9,230.8 L 320.8,227.9 L 327.7,225.5 L 334.6,224.9 L 341.5,224.4 L 348.4,223.8 L 355.3,222.0 L 362.3,211.4 L 369.2,206.7 L 376.1,204.3 L 383.0,203.1 L 389.9,201.3 L 396.8,197.2 L 403.7,196.0 L 410.6,194.9 L 417.5,191.3 L 424.5,190.1 L 431.4,189.0 L 438.3,189.0 L 445.2,178.3 L 452.1,177.2 L 459.0,176.0 L 465.9,173.6 L 472.8,170.7 L 479.7,170.7 L 486.7,166.0 L 493.6,158.3 L 500.5,157.1 L 507.4,157.7 L 514.3,155.9 L 521.2,155.3 L 528.1,155.3 L 535.0,151.8 L 541.9,148.8 L 548.9,146.5 L 555.8,143.5 L 562.7,142.9 L 569.6,142.9 L 576.5,138.8 L 583.4,137.6 L 590.3,137.0 L 597.2,130.0 L 604.1,129.4 L 611.0,129.4 L 618.0,129.4 L 624.9,128.8 L 631.8,125.8 L 638.7,123.5 L 645.6,120.5 L 652.5,119.9 L 659.4,118.2 L 666.3,112.8 L 673.2,108.1 L 680.2,107.5 L 687.1,106.9 L 694.0,105.2 L 700.9,99.3 L 707.8,98.1 L 714.7,96.3 L 721.6,92.8 L 728.5,92.2 L 735.4,91.6 L 742.4,91.6 L 749.3,90.4 L 756.2,86.9 L 763.1,85.7 L 770.0,84.5 L 770.0,340 Z" fill="url(#g1)" clip-path="url(#ca)"/>
<path d="M 72.0,294.6 L 78.9,294.0 L 85.8,294.0 L 92.7,292.2 L 99.6,292.2 L 106.6,291.0 L 113.5,289.9 L 120.4,289.3 L 127.3,286.3 L 134.2,283.9 L 141.1,283.9 L 148.0,283.9 L 154.9,283.9 L 161.8,282.8 L 168.8,282.8 L 175.7,282.8 L 182.6,281.6 L 189.5,279.2 L 196.4,275.1 L 203.3,272.1 L 210.2,271.0 L 217.1,270.4 L 224.0,268.0 L 231.0,260.9 L 237.9,258.6 L 244.8,258.6 L 251.7,252.7 L 258.6,250.9 L 265.5,248.6 L 272.4,246.8 L 279.3,243.2 L 286.2,240.3 L 293.1,239.7 L 300.1,235.0 L 307.0,230.8 L 313.9,230.8 L 320.8,227.9 L 327.7,225.5 L 334.6,224.9 L 341.5,224.4 L 348.4,223.8 L 355.3,222.0 L 362.3,211.4 L 369.2,206.7 L 376.1,204.3 L 383.0,203.1 L 389.9,201.3 L 396.8,197.2 L 403.7,196.0 L 410.6,194.9 L 417.5,191.3 L 424.5,190.1 L 431.4,189.0 L 438.3,189.0 L 445.2,178.3 L 452.1,177.2 L 459.0,176.0 L 465.9,173.6 L 472.8,170.7 L 479.7,170.7 L 486.7,166.0 L 493.6,158.3 L 500.5,157.1 L 507.4,157.7 L 514.3,155.9 L 521.2,155.3 L 528.1,155.3 L 535.0,151.8 L 541.9,148.8 L 548.9,146.5 L 555.8,143.5 L 562.7,142.9 L 569.6,142.9 L 576.5,138.8 L 583.4,137.6 L 590.3,137.0 L 597.2,130.0 L 604.1,129.4 L 611.0,129.4 L 618.0,129.4 L 624.9,128.8 L 631.8,125.8 L 638.7,123.5 L 645.6,120.5 L 652.5,119.9 L 659.4,118.2 L 666.3,112.8 L 673.2,108.1 L 680.2,107.5 L 687.1,106.9 L 694.0,105.2 L 700.9,99.3 L 707.8,98.1 L 714.7,96.3 L 721.6,92.8 L 728.5,92.2 L 735.4,91.6 L 742.4,91.6 L 749.3,90.4 L 756.2,86.9 L 763.1,85.7 L 770.0,84.5" fill="none" stroke="#FF6363" stroke-width="2.5" stroke-linejoin="round" clip-path="url(#ca)"/>
<text x="110.0" y="55.0" text-anchor="middle" font-size="9" fill="#FF6363" opacity="0.85" clip-path="url(#ca)">+0.7% (+18)</text>
<text x="241.3" y="55.0" text-anchor="middle" font-size="9" fill="#FF6363" opacity="0.85" clip-path="url(#ca)">+4.0% (+99)</text>
<text x="424.5" y="55.0" text-anchor="middle" font-size="9" fill="#FF6363" opacity="0.85" clip-path="url(#ca)">+4.5% (+117)</text>
<text x="611.0" y="55.0" text-anchor="middle" font-size="9" fill="#FF6363" opacity="0.85" clip-path="url(#ca)">+3.5% (+95)</text>
<text x="738.9" y="55.0" text-anchor="middle" font-size="9" fill="#FF6363" opacity="0.85" clip-path="url(#ca)">+0.8% (+23)</text>
<rect x="351" y="369" width="12" height="12" fill="#FF6363" rx="2"/>
<text x="367" y="379" font-size="12" fill="#111827">Extensions</text>
<text x="72" y="394" font-size="8" fill="#e5e7eb">data since Dec 11, 2025</text>
</svg>