<svg xmlns="http://www.w3.org/2000/svg" width="800" height="400" viewBox="0 0 800 400">
<defs>
  <style>text { font-family: -apple-system, BlinkMacSystemFont, 'Segoe UI', Roboto, sans-serif; }</style>
  <linearGradient id="g1" x1="0" y1="0" x2="0" y2="1">
  <stop offset="0%" stop-color="#FF6363" stop-opacity="0.25"/>
  <stop offset="100%" stop-color="#FF6363" stop-opacity="0"/>
</linearGradient>
  <clipPath id="ca"><rect x="72" y="45" width="698" height="295"/></clipPath>
</defs>
<rect width="800" height="400" fill="#ffffff" rx="12"/>
<text x="400" y="26" text-anchor="middle" font-size="15" font-weight="600" fill="#111827">Packages Growth Over Time</text>
<line x1="72" y1="340.0" x2="770" y2="340.0" stroke="#f3f4f6" stroke-width="1"/>
<text x="66" y="344.0" text-anchor="end" font-size="11" fill="#6b7280">2.4k</text>
<line x1="72" y1="281.0" x2="770" y2="281.0" stroke="#f3f4f6" stroke-width="1"/>
<text x="66" y="285.0" text-anchor="end" font-size="11" fill="#6b7280">2.5k</text>
<line x1="72" y1="222.0" x2="770" y2="222.0" stroke="#f3f4f6" stroke-width="1"/>
<text x="66" y="226.0" text-anchor="end" font-size="11" fill="#6b7280">2.6k</text>
<line x1="72" y1="163.0" x2="770" y2="163.0" stroke="#f3f4f6" stroke-width="1"/>
<text x="66" y="167.0" text-anchor="end" font-size="11" fill="#6b7280">2.7k</text>
<line x1="72" y1="104.0" x2="770" y2="104.0" stroke="#f3f4f6" stroke-width="1"/>
<text x="66" y="108.0" text-anchor="end" font-size="11" fill="#6b7280">2.7k</text>
<line x1="72" y1="45.0" x2="770" y2="45.0" stroke="#f3f4f6" stroke-width="1"/>
<text x="66" y="49.0" text-anchor="end" font-size="11" fill="#6b7280">2.8k</text>
<line x1="172.9" y1="45" x2="172.9" y2="340" stroke="#e5e7eb" stroke-width="1" stroke-dasharray="3,3" clip-path="url(#ca)"/>
<line x1="391.6" y1="45" x2="391.6" y2="340" stroke="#e5e7eb" stroke-width="1" stroke-dasharray="3,3" clip-path="url(#ca)"/>
<line x1="618.6" y1="45" x2="618.6" y2="340" stroke="#e5e7eb" stroke-width="1" stroke-dasharray="3,3" clip-path="url(#ca)"/>
<text x="72.0" y="358.0" text-anchor="middle" font-size="11" fill="#6b7280">Dec 11</text>
<text x="215.0" y="358.0" text-anchor="middle" font-size="11" fill="#6b7280">Jan 8</text>
<text x="349.5" y="358.0" text-anchor="middle" font-size="11" fill="#6b7280">Jan 27</text>
<text x="492.5" y="358.0" text-anchor="middle" font-size="11" fill="#6b7280">Feb 13</text>
<text x="627.0" y="358.0" text-anchor="middle" font-size="11" fill="#6b7280">Mar 2</text>
<text x="770.0" y="358.0" text-anchor="middle" font-size="11" fill="#6b7280">Mar 20</text>
<line x1="72" y1="45" x2="72" y2="340" stroke="#e5e7eb" stroke-width="1"/>
<line x1="72" y1="340" x2="770" y2="340" stroke="#e5e7eb" stroke-width="1"/>
<text x="-192.5" y="18" text-anchor="middle" font-size="12" fill="#6b7280" transform="rotate(-90)">Extensions</text>
<path d="M 72.0,340 L 72.0,315.4 L 80.4,314.6 L 88.8,314.6 L 97.2,312.1 L 105.6,312.1 L 114.0,310.4 L 122.5,308.8 L 130.9,307.9 L 139.3,303.8 L 147.7,300.4 L 156.1,300.4 L 164.5,300.4 L 172.9,300.4 L 181.3,298.8 L 189.7,298.8 L 198.1,298.8 L 206.6,297.1 L 215.0,293.8 L 223.4,287.9 L 231.8,283.8 L 240.2,282.1 L 248.6,281.3 L 257.0,277.9 L 265.4,267.9 L 273.8,264.6 L 282.2,264.6 L 290.7,256.3 L 299.1,253.8 L 307.5,250.4 L 315.9,247.9 L 324.3,242.9 L 332.7,238.8 L 341.1,237.9 L 349.5,231.3 L 357.9,225.4 L 366.3,225.4 L 374.7,221.3 L 383.2,217.9 L 391.6,217.1 L 400.0,216.3 L 408.4,215.4 L 416.8,212.9 L 425.2,197.9 L 433.6,191.3 L 442.0,187.9 L 450.4,186.2 L 458.8,183.8 L 467.3,177.9 L 475.7,176.3 L 484.1,174.6 L 492.5,169.6 L 500.9,167.9 L 509.3,166.3 L 517.7,166.3 L 526.1,151.3 L 534.5,149.6 L 542.9,147.9 L 551.3,144.6 L 559.8,140.4 L 568.2,140.4 L 576.6,133.8 L 585.0,122.9 L 593.4,121.3 L 601.8,122.1 L 610.2,119.6 L 618.6,118.8 L 627.0,118.8 L 635.4,113.8 L 643.9,109.6 L 652.3,106.3 L 660.7,102.1 L 669.1,101.3 L 677.5,101.3 L 685.9,95.4 L 694.3,93.8 L 702.7,92.9 L 711.1,82.9 L 719.5,82.1 L 728.0,82.1 L 736.4,82.1 L 744.8,81.3 L 753.2,77.1 L 761.6,73.8 L 770.0,69.6 L 770.0,340 Z" fill="url(#g1)" clip-path="url(#ca)"/>
<path d="M 72.0,315.4 L 80.4,314.6 L 88.8,314.6 L 97.2,312.1 L 105.6,312.1 L 114.0,310.4 L 122.5,308.8 L 130.9,307.9 L 139.3,303.8 L 147.7,300.4 L 156.1,300.4 L 164.5,300.4 L 172.9,300.4 L 181.3,298.8 L 189.7,298.8 L 198.1,298.8 L 206.6,297.1 L 215.0,293.8 L 223.4,287.9 L 231.8,283.8 L 240.2,282.1 L 248.6,281.3 L 257.0,277.9 L 265.4,267.9 L 273.8,264.6 L 282.2,264.6 L 290.7,256.3 L 299.1,253.8 L 307.5,250.4 L 315.9,247.9 L 324.3,242.9 L 332.7,238.8 L 341.1,237.9 L 349.5,231.3 L 357.9,225.4 L 366.3,225.4 L 374.7,221.3 L 383.2,217.9 L 391.6,217.1 L 400.0,216.3 L 408.4,215.4 L 416.8,212.9 L 425.2,197.9 L 433.6,191.3 L 442.0,187.9 L 450.4,186.2 L 458.8,183.8 L 467.3,177.9 L 475.7,176.3 L 484.1,174.6 L 492.5,169.6 L 500.9,167.9 L 509.3,166.3 L 517.7,166.3 L 526.1,151.3 L 534.5,149.6 L 542.9,147.9 L 551.3,144.6 L 559.8,140.4 L 568.2,140.4 L 576.6,133.8 L 585.0,122.9 L 593.4,121.3 L 601.8,122.1 L 610.2,119.6 L 618.6,118.8 L 627.0,118.8 L 635.4,113.8 L 643.9,109.6 L 652.3,106.3 L 660.7,102.1 L 669.1,101.3 L 677.5,101.3 L 685.9,95.4 L 694.3,93.8 L 702.7,92.9 L 711.1,82.9 L 719.5,82.1 L 728.0,82.1 L 736.4,82.1 L 744.8,81.3 L 753.2,77.1 L 761.6,73.8 L 770.0,69.6" fill="none" stroke="#FF6363" stroke-width="2.5" stroke-linejoin="round" clip-path="url(#ca)"/>
<text x="118.3" y="55.0" text-anchor="middle" font-size="9" fill="#FF6363" opacity="0.85" clip-path="url(#ca)">+0.7%</text>
<text x="278.0" y="55.0" text-anchor="middle" font-size="9" fill="#FF6363" opacity="0.85" clip-path="url(#ca)">+4.0%</text>
<text x="500.9" y="55.0" text-anchor="middle" font-size="9" fill="#FF6363" opacity="0.85" clip-path="url(#ca)">+4.5%</text>
<text x="694.3" y="55.0" text-anchor="middle" font-size="9" fill="#FF6363" opacity="0.85" clip-path="url(#ca)">+2.2%</text>
<rect x="351" y="369" width="12" height="12" fill="#FF6363" rx="2"/>
<text x="367" y="379" font-size="12" fill="#111827">Extensions</text>
<text x="72" y="394" font-size="8" fill="#e5e7eb">data since Dec 11, 2025</text>
</svg>