<svg xmlns="http://www.w3.org/2000/svg" width="800" height="400" viewBox="0 0 800 400">
<defs><style>text { font-family: -apple-system, BlinkMacSystemFont, 'Segoe UI', Roboto, sans-serif; }</style></defs>
<rect width="800" height="400" fill="#ffffff" rx="12"/>
<text x="400" y="26" text-anchor="middle" font-size="15" font-weight="600" fill="#111827">Packages by Last Updated Quarter</text>
<text x="400" y="44" text-anchor="middle" font-size="11" fill="#6b7280">last updated at · 3,032 packages with a known last-update date</text>
<line x1="60" y1="58" x2="60" y2="320" stroke="#e5e7eb" stroke-width="1"/>
<line x1="60" y1="320" x2="770" y2="320" stroke="#e5e7eb" stroke-width="1"/>
<text x="-189" y="18" text-anchor="middle" font-size="12" fill="#6b7280" transform="rotate(-90)">Number of packages</text>
<line x1="60" y1="320.0" x2="770" y2="320.0" stroke="#f3f4f6" stroke-width="1"/>
<text x="54" y="324.0" text-anchor="end" font-size="11" fill="#6b7280">0</text>
<line x1="60" y1="267.6" x2="770" y2="267.6" stroke="#f3f4f6" stroke-width="1"/>
<text x="54" y="271.6" text-anchor="end" font-size="11" fill="#6b7280">133</text>
<line x1="60" y1="215.2" x2="770" y2="215.2" stroke="#f3f4f6" stroke-width="1"/>
<text x="54" y="219.2" text-anchor="end" font-size="11" fill="#6b7280">266</text>
<line x1="60" y1="162.8" x2="770" y2="162.8" stroke="#f3f4f6" stroke-width="1"/>
<text x="54" y="166.8" text-anchor="end" font-size="11" fill="#6b7280">399</text>
<line x1="60" y1="110.4" x2="770" y2="110.4" stroke="#f3f4f6" stroke-width="1"/>
<text x="54" y="114.4" text-anchor="end" font-size="11" fill="#6b7280">532</text>
<line x1="60" y1="58.0" x2="770" y2="58.0" stroke="#f3f4f6" stroke-width="1"/>
<text x="54" y="62.0" text-anchor="end" font-size="11" fill="#6b7280">665</text>
<rect x="66.5" y="314.9" width="24.3" height="5.1" fill="#34C759" rx="3" opacity="0.85"/>
<text x="78.7" y="298.9" text-anchor="middle" font-size="10" fill="#6b7280">13</text>
<text x="78.7" y="310.9" text-anchor="middle" font-size="10" fill="#6b7280">(0.43%)</text>
<g transform="translate(78.7,330.0) rotate(-45)"><text text-anchor="end" font-size="10" fill="#111827">2021-Q4</text></g>
<rect x="103.9" y="309.0" width="24.3" height="11.0" fill="#34C759" rx="3" opacity="0.85"/>
<text x="116.1" y="293.0" text-anchor="middle" font-size="10" fill="#6b7280">28</text>
<text x="116.1" y="305.0" text-anchor="middle" font-size="10" fill="#6b7280">(0.92%)</text>
<g transform="translate(116.1,330.0) rotate(-45)"><text text-anchor="end" font-size="10" fill="#111827">2022-Q1</text></g>
<rect x="141.3" y="306.2" width="24.3" height="13.8" fill="#34C759" rx="3" opacity="0.85"/>
<text x="153.4" y="290.2" text-anchor="middle" font-size="10" fill="#6b7280">35</text>
<text x="153.4" y="302.2" text-anchor="middle" font-size="10" fill="#6b7280">(1.15%)</text>
<g transform="translate(153.4,330.0) rotate(-45)"><text text-anchor="end" font-size="10" fill="#111827">2022-Q2</text></g>
<rect x="178.6" y="304.6" width="24.3" height="15.4" fill="#34C759" rx="3" opacity="0.85"/>
<text x="190.8" y="288.6" text-anchor="middle" font-size="10" fill="#6b7280">39</text>
<text x="190.8" y="300.6" text-anchor="middle" font-size="10" fill="#6b7280">(1.29%)</text>
<g transform="translate(190.8,330.0) rotate(-45)"><text text-anchor="end" font-size="10" fill="#111827">2022-Q3</text></g>
<rect x="216.0" y="295.6" width="24.3" height="24.4" fill="#34C759" rx="3" opacity="0.85"/>
<text x="228.2" y="279.6" text-anchor="middle" font-size="10" fill="#6b7280">62</text>
<text x="228.2" y="291.6" text-anchor="middle" font-size="10" fill="#6b7280">(2.04%)</text>
<g transform="translate(228.2,330.0) rotate(-45)"><text text-anchor="end" font-size="10" fill="#111827">2022-Q4</text></g>
<rect x="253.4" y="285.3" width="24.3" height="34.7" fill="#34C759" rx="3" opacity="0.85"/>
<text x="265.5" y="269.3" text-anchor="middle" font-size="10" fill="#6b7280">88</text>
<text x="265.5" y="281.3" text-anchor="middle" font-size="10" fill="#6b7280">(2.90%)</text>
<g transform="translate(265.5,330.0) rotate(-45)"><text text-anchor="end" font-size="10" fill="#111827">2023-Q1</text></g>
<rect x="290.8" y="285.3" width="24.3" height="34.7" fill="#34C759" rx="3" opacity="0.85"/>
<text x="302.9" y="269.3" text-anchor="middle" font-size="10" fill="#6b7280">88</text>
<text x="302.9" y="281.3" text-anchor="middle" font-size="10" fill="#6b7280">(2.90%)</text>
<g transform="translate(302.9,330.0) rotate(-45)"><text text-anchor="end" font-size="10" fill="#111827">2023-Q2</text></g>
<rect x="328.1" y="288.5" width="24.3" height="31.5" fill="#34C759" rx="3" opacity="0.85"/>
<text x="340.3" y="272.5" text-anchor="middle" font-size="10" fill="#6b7280">80</text>
<text x="340.3" y="284.5" text-anchor="middle" font-size="10" fill="#6b7280">(2.64%)</text>
<g transform="translate(340.3,330.0) rotate(-45)"><text text-anchor="end" font-size="10" fill="#111827">2023-Q3</text></g>
<rect x="365.5" y="295.6" width="24.3" height="24.4" fill="#34C759" rx="3" opacity="0.85"/>
<text x="377.6" y="279.6" text-anchor="middle" font-size="10" fill="#6b7280">62</text>
<text x="377.6" y="291.6" text-anchor="middle" font-size="10" fill="#6b7280">(2.04%)</text>
<g transform="translate(377.6,330.0) rotate(-45)"><text text-anchor="end" font-size="10" fill="#111827">2023-Q4</text></g>
<rect x="402.9" y="277.8" width="24.3" height="42.2" fill="#34C759" rx="3" opacity="0.85"/>
<text x="415.0" y="261.8" text-anchor="middle" font-size="10" fill="#6b7280">107</text>
<text x="415.0" y="273.8" text-anchor="middle" font-size="10" fill="#6b7280">(3.53%)</text>
<g transform="translate(415.0,330.0) rotate(-45)"><text text-anchor="end" font-size="10" fill="#111827">2024-Q1</text></g>
<rect x="440.2" y="271.5" width="24.3" height="48.5" fill="#34C759" rx="3" opacity="0.85"/>
<text x="452.4" y="255.5" text-anchor="middle" font-size="10" fill="#6b7280">123</text>
<text x="452.4" y="267.5" text-anchor="middle" font-size="10" fill="#6b7280">(4.06%)</text>
<g transform="translate(452.4,330.0) rotate(-45)"><text text-anchor="end" font-size="10" fill="#111827">2024-Q2</text></g>
<rect x="477.6" y="271.9" width="24.3" height="48.1" fill="#34C759" rx="3" opacity="0.85"/>
<text x="489.7" y="255.9" text-anchor="middle" font-size="10" fill="#6b7280">122</text>
<text x="489.7" y="267.9" text-anchor="middle" font-size="10" fill="#6b7280">(4.02%)</text>
<g transform="translate(489.7,330.0) rotate(-45)"><text text-anchor="end" font-size="10" fill="#111827">2024-Q3</text></g>
<rect x="515.0" y="275.1" width="24.3" height="44.9" fill="#34C759" rx="3" opacity="0.85"/>
<text x="527.1" y="259.1" text-anchor="middle" font-size="10" fill="#6b7280">114</text>
<text x="527.1" y="271.1" text-anchor="middle" font-size="10" fill="#6b7280">(3.76%)</text>
<g transform="translate(527.1,330.0) rotate(-45)"><text text-anchor="end" font-size="10" fill="#111827">2024-Q4</text></g>
<rect x="552.3" y="245.5" width="24.3" height="74.5" fill="#34C759" rx="3" opacity="0.85"/>
<text x="564.5" y="229.5" text-anchor="middle" font-size="10" fill="#6b7280">189</text>
<text x="564.5" y="241.5" text-anchor="middle" font-size="10" fill="#6b7280">(6.23%)</text>
<g transform="translate(564.5,330.0) rotate(-45)"><text text-anchor="end" font-size="10" fill="#111827">2025-Q1</text></g>
<rect x="589.7" y="239.6" width="24.3" height="80.4" fill="#34C759" rx="3" opacity="0.85"/>
<text x="601.8" y="223.6" text-anchor="middle" font-size="10" fill="#6b7280">204</text>
<text x="601.8" y="235.6" text-anchor="middle" font-size="10" fill="#6b7280">(6.73%)</text>
<g transform="translate(601.8,330.0) rotate(-45)"><text text-anchor="end" font-size="10" fill="#111827">2025-Q2</text></g>
<rect x="627.1" y="242.0" width="24.3" height="78.0" fill="#34C759" rx="3" opacity="0.85"/>
<text x="639.2" y="226.0" text-anchor="middle" font-size="10" fill="#6b7280">198</text>
<text x="639.2" y="238.0" text-anchor="middle" font-size="10" fill="#6b7280">(6.53%)</text>
<g transform="translate(639.2,330.0) rotate(-45)"><text text-anchor="end" font-size="10" fill="#111827">2025-Q3</text></g>
<rect x="664.4" y="208.5" width="24.3" height="111.5" fill="#34C759" rx="3" opacity="0.85"/>
<text x="676.6" y="192.5" text-anchor="middle" font-size="10" fill="#6b7280">283</text>
<text x="676.6" y="204.5" text-anchor="middle" font-size="10" fill="#6b7280">(9.33%)</text>
<g transform="translate(676.6,330.0) rotate(-45)"><text text-anchor="end" font-size="10" fill="#111827">2025-Q4</text></g>
<rect x="701.8" y="110.4" width="24.3" height="209.6" fill="#34C759" rx="3" opacity="0.85"/>
<text x="713.9" y="94.4" text-anchor="middle" font-size="10" fill="#6b7280">532</text>
<text x="713.9" y="106.4" text-anchor="middle" font-size="10" fill="#6b7280">(17.55%)</text>
<g transform="translate(713.9,330.0) rotate(-45)"><text text-anchor="end" font-size="10" fill="#111827">2026-Q1</text></g>
<rect x="739.2" y="58.0" width="24.3" height="262.0" fill="#34C759" rx="3" opacity="0.85"/>
<text x="751.3" y="72.0" text-anchor="middle" font-size="10" fill="#6b7280">665</text>
<text x="751.3" y="84.0" text-anchor="middle" font-size="10" fill="#6b7280">(21.93%)</text>
<g transform="translate(751.3,330.0) rotate(-45)"><text text-anchor="end" font-size="10" fill="#111827">2026-Q2</text></g>
</svg>