<svg xmlns="http://www.w3.org/2000/svg" width="800" height="400" viewBox="0 0 800 400">
<defs><style>text { font-family: -apple-system, BlinkMacSystemFont, 'Segoe UI', Roboto, sans-serif; }</style></defs>
<rect width="800" height="400" fill="#ffffff" rx="12"/>
<text x="400" y="26" text-anchor="middle" font-size="15" font-weight="600" fill="#111827">Packages by Last Updated Quarter</text>
<text x="400" y="44" text-anchor="middle" font-size="11" fill="#6b7280">last updated at · 2,919 packages with a known last-update date</text>
<line x1="60" y1="58" x2="60" y2="320" stroke="#e5e7eb" stroke-width="1"/>
<line x1="60" y1="320" x2="770" y2="320" stroke="#e5e7eb" stroke-width="1"/>
<text x="-189" y="18" text-anchor="middle" font-size="12" fill="#6b7280" transform="rotate(-90)">Number of packages</text>
<line x1="60" y1="320.0" x2="770" y2="320.0" stroke="#f3f4f6" stroke-width="1"/>
<text x="54" y="324.0" text-anchor="end" font-size="11" fill="#6b7280">0</text>
<line x1="60" y1="267.6" x2="770" y2="267.6" stroke="#f3f4f6" stroke-width="1"/>
<text x="54" y="271.6" text-anchor="end" font-size="11" fill="#6b7280">123</text>
<line x1="60" y1="215.2" x2="770" y2="215.2" stroke="#f3f4f6" stroke-width="1"/>
<text x="54" y="219.2" text-anchor="end" font-size="11" fill="#6b7280">246</text>
<line x1="60" y1="162.8" x2="770" y2="162.8" stroke="#f3f4f6" stroke-width="1"/>
<text x="54" y="166.8" text-anchor="end" font-size="11" fill="#6b7280">369</text>
<line x1="60" y1="110.4" x2="770" y2="110.4" stroke="#f3f4f6" stroke-width="1"/>
<text x="54" y="114.4" text-anchor="end" font-size="11" fill="#6b7280">492</text>
<line x1="60" y1="58.0" x2="770" y2="58.0" stroke="#f3f4f6" stroke-width="1"/>
<text x="54" y="62.0" text-anchor="end" font-size="11" fill="#6b7280">615</text>
<rect x="66.5" y="314.5" width="24.3" height="5.5" fill="#34C759" rx="3" opacity="0.85"/>
<text x="78.7" y="298.5" text-anchor="middle" font-size="10" fill="#6b7280">13</text>
<text x="78.7" y="310.5" text-anchor="middle" font-size="10" fill="#6b7280">(0.45%)</text>
<g transform="translate(78.7,330.0) rotate(-45)"><text text-anchor="end" font-size="10" fill="#111827">2021-Q4</text></g>
<rect x="103.9" y="307.6" width="24.3" height="12.4" fill="#34C759" rx="3" opacity="0.85"/>
<text x="116.1" y="291.6" text-anchor="middle" font-size="10" fill="#6b7280">29</text>
<text x="116.1" y="303.6" text-anchor="middle" font-size="10" fill="#6b7280">(0.99%)</text>
<g transform="translate(116.1,330.0) rotate(-45)"><text text-anchor="end" font-size="10" fill="#111827">2022-Q1</text></g>
<rect x="141.3" y="304.7" width="24.3" height="15.3" fill="#34C759" rx="3" opacity="0.85"/>
<text x="153.4" y="288.7" text-anchor="middle" font-size="10" fill="#6b7280">36</text>
<text x="153.4" y="300.7" text-anchor="middle" font-size="10" fill="#6b7280">(1.23%)</text>
<g transform="translate(153.4,330.0) rotate(-45)"><text text-anchor="end" font-size="10" fill="#111827">2022-Q2</text></g>
<rect x="178.6" y="302.5" width="24.3" height="17.5" fill="#34C759" rx="3" opacity="0.85"/>
<text x="190.8" y="286.5" text-anchor="middle" font-size="10" fill="#6b7280">41</text>
<text x="190.8" y="298.5" text-anchor="middle" font-size="10" fill="#6b7280">(1.40%)</text>
<g transform="translate(190.8,330.0) rotate(-45)"><text text-anchor="end" font-size="10" fill="#111827">2022-Q3</text></g>
<rect x="216.0" y="293.2" width="24.3" height="26.8" fill="#34C759" rx="3" opacity="0.85"/>
<text x="228.2" y="277.2" text-anchor="middle" font-size="10" fill="#6b7280">63</text>
<text x="228.2" y="289.2" text-anchor="middle" font-size="10" fill="#6b7280">(2.16%)</text>
<g transform="translate(228.2,330.0) rotate(-45)"><text text-anchor="end" font-size="10" fill="#111827">2022-Q4</text></g>
<rect x="253.4" y="281.2" width="24.3" height="38.8" fill="#34C759" rx="3" opacity="0.85"/>
<text x="265.5" y="265.2" text-anchor="middle" font-size="10" fill="#6b7280">91</text>
<text x="265.5" y="277.2" text-anchor="middle" font-size="10" fill="#6b7280">(3.12%)</text>
<g transform="translate(265.5,330.0) rotate(-45)"><text text-anchor="end" font-size="10" fill="#111827">2023-Q1</text></g>
<rect x="290.8" y="281.7" width="24.3" height="38.3" fill="#34C759" rx="3" opacity="0.85"/>
<text x="302.9" y="265.7" text-anchor="middle" font-size="10" fill="#6b7280">90</text>
<text x="302.9" y="277.7" text-anchor="middle" font-size="10" fill="#6b7280">(3.08%)</text>
<g transform="translate(302.9,330.0) rotate(-45)"><text text-anchor="end" font-size="10" fill="#111827">2023-Q2</text></g>
<rect x="328.1" y="283.4" width="24.3" height="36.6" fill="#34C759" rx="3" opacity="0.85"/>
<text x="340.3" y="267.4" text-anchor="middle" font-size="10" fill="#6b7280">86</text>
<text x="340.3" y="279.4" text-anchor="middle" font-size="10" fill="#6b7280">(2.95%)</text>
<g transform="translate(340.3,330.0) rotate(-45)"><text text-anchor="end" font-size="10" fill="#111827">2023-Q3</text></g>
<rect x="365.5" y="291.0" width="24.3" height="29.0" fill="#34C759" rx="3" opacity="0.85"/>
<text x="377.6" y="275.0" text-anchor="middle" font-size="10" fill="#6b7280">68</text>
<text x="377.6" y="287.0" text-anchor="middle" font-size="10" fill="#6b7280">(2.33%)</text>
<g transform="translate(377.6,330.0) rotate(-45)"><text text-anchor="end" font-size="10" fill="#111827">2023-Q4</text></g>
<rect x="402.9" y="268.5" width="24.3" height="51.5" fill="#34C759" rx="3" opacity="0.85"/>
<text x="415.0" y="252.5" text-anchor="middle" font-size="10" fill="#6b7280">121</text>
<text x="415.0" y="264.5" text-anchor="middle" font-size="10" fill="#6b7280">(4.15%)</text>
<g transform="translate(415.0,330.0) rotate(-45)"><text text-anchor="end" font-size="10" fill="#111827">2024-Q1</text></g>
<rect x="440.2" y="263.3" width="24.3" height="56.7" fill="#34C759" rx="3" opacity="0.85"/>
<text x="452.4" y="247.3" text-anchor="middle" font-size="10" fill="#6b7280">133</text>
<text x="452.4" y="259.3" text-anchor="middle" font-size="10" fill="#6b7280">(4.56%)</text>
<g transform="translate(452.4,330.0) rotate(-45)"><text text-anchor="end" font-size="10" fill="#111827">2024-Q2</text></g>
<rect x="477.6" y="265.0" width="24.3" height="55.0" fill="#34C759" rx="3" opacity="0.85"/>
<text x="489.7" y="249.0" text-anchor="middle" font-size="10" fill="#6b7280">129</text>
<text x="489.7" y="261.0" text-anchor="middle" font-size="10" fill="#6b7280">(4.42%)</text>
<g transform="translate(489.7,330.0) rotate(-45)"><text text-anchor="end" font-size="10" fill="#111827">2024-Q3</text></g>
<rect x="515.0" y="265.5" width="24.3" height="54.5" fill="#34C759" rx="3" opacity="0.85"/>
<text x="527.1" y="249.5" text-anchor="middle" font-size="10" fill="#6b7280">128</text>
<text x="527.1" y="261.5" text-anchor="middle" font-size="10" fill="#6b7280">(4.39%)</text>
<g transform="translate(527.1,330.0) rotate(-45)"><text text-anchor="end" font-size="10" fill="#111827">2024-Q4</text></g>
<rect x="552.3" y="233.1" width="24.3" height="86.9" fill="#34C759" rx="3" opacity="0.85"/>
<text x="564.5" y="217.1" text-anchor="middle" font-size="10" fill="#6b7280">204</text>
<text x="564.5" y="229.1" text-anchor="middle" font-size="10" fill="#6b7280">(6.99%)</text>
<g transform="translate(564.5,330.0) rotate(-45)"><text text-anchor="end" font-size="10" fill="#111827">2025-Q1</text></g>
<rect x="589.7" y="228.4" width="24.3" height="91.6" fill="#34C759" rx="3" opacity="0.85"/>
<text x="601.8" y="212.4" text-anchor="middle" font-size="10" fill="#6b7280">215</text>
<text x="601.8" y="224.4" text-anchor="middle" font-size="10" fill="#6b7280">(7.37%)</text>
<g transform="translate(601.8,330.0) rotate(-45)"><text text-anchor="end" font-size="10" fill="#111827">2025-Q2</text></g>
<rect x="627.1" y="231.0" width="24.3" height="89.0" fill="#34C759" rx="3" opacity="0.85"/>
<text x="639.2" y="215.0" text-anchor="middle" font-size="10" fill="#6b7280">209</text>
<text x="639.2" y="227.0" text-anchor="middle" font-size="10" fill="#6b7280">(7.16%)</text>
<g transform="translate(639.2,330.0) rotate(-45)"><text text-anchor="end" font-size="10" fill="#111827">2025-Q3</text></g>
<rect x="664.4" y="190.1" width="24.3" height="129.9" fill="#34C759" rx="3" opacity="0.85"/>
<text x="676.6" y="174.1" text-anchor="middle" font-size="10" fill="#6b7280">305</text>
<text x="676.6" y="186.1" text-anchor="middle" font-size="10" fill="#6b7280">(10.45%)</text>
<g transform="translate(676.6,330.0) rotate(-45)"><text text-anchor="end" font-size="10" fill="#111827">2025-Q4</text></g>
<rect x="701.8" y="58.0" width="24.3" height="262.0" fill="#34C759" rx="3" opacity="0.85"/>
<text x="713.9" y="72.0" text-anchor="middle" font-size="10" fill="#6b7280">615</text>
<text x="713.9" y="84.0" text-anchor="middle" font-size="10" fill="#6b7280">(21.07%)</text>
<g transform="translate(713.9,330.0) rotate(-45)"><text text-anchor="end" font-size="10" fill="#111827">2026-Q1</text></g>
<rect x="739.2" y="173.9" width="24.3" height="146.1" fill="#34C759" rx="3" opacity="0.85"/>
<text x="751.3" y="157.9" text-anchor="middle" font-size="10" fill="#6b7280">343</text>
<text x="751.3" y="169.9" text-anchor="middle" font-size="10" fill="#6b7280">(11.75%)</text>
<g transform="translate(751.3,330.0) rotate(-45)"><text text-anchor="end" font-size="10" fill="#111827">2026-Q2</text></g>
</svg>