<svg xmlns="http://www.w3.org/2000/svg" width="800" height="400" viewBox="0 0 800 400">
<defs>
  <style>text { font-family: -apple-system, BlinkMacSystemFont, 'Segoe UI', Roboto, sans-serif; }</style>
  <linearGradient id="g2" x1="0" y1="0" x2="0" y2="1">
  <stop offset="0%" stop-color="#4F8EF7" stop-opacity="0.25"/>
  <stop offset="100%" stop-color="#4F8EF7" stop-opacity="0"/>
</linearGradient>
<linearGradient id="g3" x1="0" y1="0" x2="0" y2="1">
  <stop offset="0%" stop-color="#BF5AF2" stop-opacity="0.25"/>
  <stop offset="100%" stop-color="#BF5AF2" stop-opacity="0"/>
</linearGradient>
<linearGradient id="g4" x1="0" y1="0" x2="0" y2="1">
  <stop offset="0%" stop-color="#34C759" stop-opacity="0.25"/>
  <stop offset="100%" stop-color="#34C759" stop-opacity="0"/>
</linearGradient>
  <clipPath id="ca"><rect x="72" y="45" width="698" height="295"/></clipPath>
</defs>
<rect width="800" height="400" fill="#ffffff" rx="12"/>
<text x="400" y="26" text-anchor="middle" font-size="15" font-weight="600" fill="#111827">Community Growth Over Time</text>
<line x1="72" y1="340.0" x2="770" y2="340.0" stroke="#f3f4f6" stroke-width="1"/>
<text x="66" y="344.0" text-anchor="end" font-size="11" fill="#6b7280">500</text>
<line x1="72" y1="241.7" x2="770" y2="241.7" stroke="#f3f4f6" stroke-width="1"/>
<text x="66" y="245.7" text-anchor="end" font-size="11" fill="#6b7280">1.0k</text>
<line x1="72" y1="143.3" x2="770" y2="143.3" stroke="#f3f4f6" stroke-width="1"/>
<text x="66" y="147.3" text-anchor="end" font-size="11" fill="#6b7280">1.5k</text>
<line x1="72" y1="45.0" x2="770" y2="45.0" stroke="#f3f4f6" stroke-width="1"/>
<text x="66" y="49.0" text-anchor="end" font-size="11" fill="#6b7280">2.0k</text>
<line x1="123.7" y1="45" x2="123.7" y2="340" stroke="#e5e7eb" stroke-width="1" stroke-dasharray="3,3" clip-path="url(#ca)"/>
<line x1="235.7" y1="45" x2="235.7" y2="340" stroke="#e5e7eb" stroke-width="1" stroke-dasharray="3,3" clip-path="url(#ca)"/>
<line x1="352.1" y1="45" x2="352.1" y2="340" stroke="#e5e7eb" stroke-width="1" stroke-dasharray="3,3" clip-path="url(#ca)"/>
<line x1="468.4" y1="45" x2="468.4" y2="340" stroke="#e5e7eb" stroke-width="1" stroke-dasharray="3,3" clip-path="url(#ca)"/>
<line x1="584.7" y1="45" x2="584.7" y2="340" stroke="#e5e7eb" stroke-width="1" stroke-dasharray="3,3" clip-path="url(#ca)"/>
<line x1="696.8" y1="45" x2="696.8" y2="340" stroke="#e5e7eb" stroke-width="1" stroke-dasharray="3,3" clip-path="url(#ca)"/>
<text x="72.0" y="358.0" text-anchor="middle" font-size="11" fill="#6b7280">Dec 11</text>
<text x="209.9" y="358.0" text-anchor="middle" font-size="11" fill="#6b7280">Jan 26</text>
<text x="352.1" y="358.0" text-anchor="middle" font-size="11" fill="#6b7280">Mar 1</text>
<text x="489.9" y="358.0" text-anchor="middle" font-size="11" fill="#6b7280">Apr 7</text>
<text x="632.1" y="358.0" text-anchor="middle" font-size="11" fill="#6b7280">May 17</text>
<text x="770.0" y="358.0" text-anchor="middle" font-size="11" fill="#6b7280">Jun 23</text>
<line x1="72" y1="45" x2="72" y2="340" stroke="#e5e7eb" stroke-width="1"/>
<line x1="72" y1="340" x2="770" y2="340" stroke="#e5e7eb" stroke-width="1"/>
<text x="-192.5" y="18" text-anchor="middle" font-size="12" fill="#6b7280" transform="rotate(-90)">People</text>
<path d="M 72.0,340 L 72.0,120.1 L 76.3,120.1 L 80.6,120.1 L 84.9,119.5 L 89.2,119.5 L 93.5,119.1 L 97.9,118.9 L 102.2,119.1 L 106.5,118.6 L 110.8,118.6 L 115.1,118.6 L 119.4,118.6 L 123.7,118.6 L 128.0,118.6 L 132.3,118.6 L 136.6,118.6 L 140.9,118.4 L 145.2,117.8 L 149.6,116.6 L 153.9,116.0 L 158.2,115.8 L 162.5,115.8 L 166.8,115.2 L 171.1,113.8 L 175.4,113.0 L 179.7,113.0 L 184.0,112.1 L 188.3,111.7 L 192.6,110.9 L 197.0,110.3 L 201.3,109.7 L 205.6,109.1 L 209.9,109.1 L 214.2,107.7 L 218.5,106.9 L 222.8,106.9 L 227.1,106.2 L 231.4,105.8 L 235.7,105.6 L 240.0,105.4 L 244.3,105.4 L 248.7,104.8 L 253.0,102.4 L 257.3,101.0 L 261.6,100.3 L 265.9,100.1 L 270.2,99.7 L 274.5,98.9 L 278.8,98.5 L 283.1,98.1 L 287.4,97.7 L 291.7,97.3 L 296.0,96.9 L 300.4,96.9 L 304.7,95.0 L 309.0,95.0 L 313.3,94.8 L 317.6,94.6 L 321.9,94.2 L 326.2,94.2 L 330.5,93.2 L 334.8,92.0 L 339.1,91.6 L 343.4,92.0 L 347.8,91.8 L 352.1,91.6 L 356.4,91.6 L 360.7,91.2 L 365.0,90.4 L 369.3,90.0 L 373.6,89.6 L 377.9,89.4 L 382.2,89.4 L 386.5,88.7 L 390.8,88.3 L 395.1,88.3 L 399.5,86.7 L 403.8,86.7 L 408.1,86.7 L 412.4,86.7 L 416.7,86.5 L 421.0,85.9 L 425.3,85.1 L 429.6,84.7 L 433.9,84.7 L 438.2,84.3 L 442.5,82.8 L 446.9,81.8 L 451.2,81.6 L 455.5,81.4 L 459.8,80.8 L 464.1,79.6 L 468.4,79.2 L 472.7,78.8 L 477.0,77.6 L 481.3,77.4 L 485.6,77.4 L 489.9,77.4 L 494.2,77.3 L 498.6,76.1 L 502.9,75.9 L 507.2,75.7 L 511.5,75.7 L 515.8,75.3 L 520.1,73.7 L 524.4,73.5 L 528.7,73.3 L 533.0,73.3 L 537.3,72.5 L 541.6,72.3 L 546.0,72.1 L 550.3,71.6 L 554.6,70.8 L 558.9,70.8 L 563.2,70.8 L 567.5,70.8 L 571.8,70.4 L 576.1,69.8 L 580.4,69.6 L 584.7,69.0 L 589.0,68.8 L 593.3,68.6 L 597.7,67.8 L 602.0,67.2 L 606.3,67.0 L 610.6,67.0 L 614.9,65.3 L 619.2,64.7 L 623.5,64.5 L 627.8,64.5 L 632.1,63.5 L 636.4,63.5 L 640.7,62.9 L 645.0,62.3 L 649.4,60.9 L 653.7,60.7 L 658.0,60.5 L 662.3,60.3 L 666.6,60.3 L 670.9,60.1 L 675.2,59.2 L 679.5,58.6 L 683.8,58.6 L 688.1,58.4 L 692.4,58.4 L 696.8,57.8 L 701.1,57.6 L 705.4,57.4 L 709.7,56.8 L 714.0,56.0 L 718.3,56.0 L 722.6,55.8 L 726.9,55.6 L 731.2,54.6 L 735.5,53.3 L 739.8,53.1 L 744.1,52.7 L 748.5,52.3 L 752.8,52.1 L 757.1,51.5 L 761.4,50.7 L 765.7,50.5 L 770.0,49.9 L 770.0,340 Z" fill="url(#g2)" clip-path="url(#ca)"/>
<path d="M 72.0,120.1 L 76.3,120.1 L 80.6,120.1 L 84.9,119.5 L 89.2,119.5 L 93.5,119.1 L 97.9,118.9 L 102.2,119.1 L 106.5,118.6 L 110.8,118.6 L 115.1,118.6 L 119.4,118.6 L 123.7,118.6 L 128.0,118.6 L 132.3,118.6 L 136.6,118.6 L 140.9,118.4 L 145.2,117.8 L 149.6,116.6 L 153.9,116.0 L 158.2,115.8 L 162.5,115.8 L 166.8,115.2 L 171.1,113.8 L 175.4,113.0 L 179.7,113.0 L 184.0,112.1 L 188.3,111.7 L 192.6,110.9 L 197.0,110.3 L 201.3,109.7 L 205.6,109.1 L 209.9,109.1 L 214.2,107.7 L 218.5,106.9 L 222.8,106.9 L 227.1,106.2 L 231.4,105.8 L 235.7,105.6 L 240.0,105.4 L 244.3,105.4 L 248.7,104.8 L 253.0,102.4 L 257.3,101.0 L 261.6,100.3 L 265.9,100.1 L 270.2,99.7 L 274.5,98.9 L 278.8,98.5 L 283.1,98.1 L 287.4,97.7 L 291.7,97.3 L 296.0,96.9 L 300.4,96.9 L 304.7,95.0 L 309.0,95.0 L 313.3,94.8 L 317.6,94.6 L 321.9,94.2 L 326.2,94.2 L 330.5,93.2 L 334.8,92.0 L 339.1,91.6 L 343.4,92.0 L 347.8,91.8 L 352.1,91.6 L 356.4,91.6 L 360.7,91.2 L 365.0,90.4 L 369.3,90.0 L 373.6,89.6 L 377.9,89.4 L 382.2,89.4 L 386.5,88.7 L 390.8,88.3 L 395.1,88.3 L 399.5,86.7 L 403.8,86.7 L 408.1,86.7 L 412.4,86.7 L 416.7,86.5 L 421.0,85.9 L 425.3,85.1 L 429.6,84.7 L 433.9,84.7 L 438.2,84.3 L 442.5,82.8 L 446.9,81.8 L 451.2,81.6 L 455.5,81.4 L 459.8,80.8 L 464.1,79.6 L 468.4,79.2 L 472.7,78.8 L 477.0,77.6 L 481.3,77.4 L 485.6,77.4 L 489.9,77.4 L 494.2,77.3 L 498.6,76.1 L 502.9,75.9 L 507.2,75.7 L 511.5,75.7 L 515.8,75.3 L 520.1,73.7 L 524.4,73.5 L 528.7,73.3 L 533.0,73.3 L 537.3,72.5 L 541.6,72.3 L 546.0,72.1 L 550.3,71.6 L 554.6,70.8 L 558.9,70.8 L 563.2,70.8 L 567.5,70.8 L 571.8,70.4 L 576.1,69.8 L 580.4,69.6 L 584.7,69.0 L 589.0,68.8 L 593.3,68.6 L 597.7,67.8 L 602.0,67.2 L 606.3,67.0 L 610.6,67.0 L 614.9,65.3 L 619.2,64.7 L 623.5,64.5 L 627.8,64.5 L 632.1,63.5 L 636.4,63.5 L 640.7,62.9 L 645.0,62.3 L 649.4,60.9 L 653.7,60.7 L 658.0,60.5 L 662.3,60.3 L 666.6,60.3 L 670.9,60.1 L 675.2,59.2 L 679.5,58.6 L 683.8,58.6 L 688.1,58.4 L 692.4,58.4 L 696.8,57.8 L 701.1,57.6 L 705.4,57.4 L 709.7,56.8 L 714.0,56.0 L 718.3,56.0 L 722.6,55.8 L 726.9,55.6 L 731.2,54.6 L 735.5,53.3 L 739.8,53.1 L 744.1,52.7 L 748.5,52.3 L 752.8,52.1 L 757.1,51.5 L 761.4,50.7 L 765.7,50.5 L 770.0,49.9" fill="none" stroke="#4F8EF7" stroke-width="2.5" stroke-linejoin="round" clip-path="url(#ca)"/>
<path d="M 72.0,340 L 72.0,244.2 L 76.3,243.6 L 80.6,243.6 L 84.9,243.6 L 89.2,243.4 L 93.5,243.0 L 97.9,242.8 L 102.2,242.6 L 106.5,242.6 L 110.8,242.5 L 115.1,242.3 L 119.4,242.3 L 123.7,242.3 L 128.0,242.3 L 132.3,242.3 L 136.6,242.3 L 140.9,241.9 L 145.2,241.9 L 149.6,241.9 L 153.9,241.1 L 158.2,240.9 L 162.5,240.5 L 166.8,239.7 L 171.1,239.5 L 175.4,239.5 L 179.7,239.5 L 184.0,238.9 L 188.3,238.5 L 192.6,238.5 L 197.0,238.1 L 201.3,237.9 L 205.6,237.5 L 209.9,237.5 L 214.2,237.3 L 218.5,236.6 L 222.8,236.0 L 227.1,235.6 L 231.4,235.4 L 235.7,235.4 L 240.0,235.2 L 244.3,234.8 L 248.7,234.8 L 253.0,234.6 L 257.3,234.0 L 261.6,233.6 L 265.9,233.6 L 270.2,233.6 L 274.5,233.6 L 278.8,233.4 L 283.1,232.8 L 287.4,232.4 L 291.7,232.2 L 296.0,232.0 L 300.4,231.8 L 304.7,231.6 L 309.0,231.4 L 313.3,231.2 L 317.6,230.7 L 321.9,230.5 L 326.2,230.3 L 330.5,229.5 L 334.8,228.7 L 339.1,228.7 L 343.4,228.5 L 347.8,228.3 L 352.1,228.3 L 356.4,228.3 L 360.7,227.9 L 365.0,227.9 L 369.3,226.7 L 373.6,226.5 L 377.9,226.3 L 382.2,226.3 L 386.5,225.9 L 390.8,225.7 L 395.1,225.7 L 399.5,225.5 L 403.8,225.5 L 408.1,225.5 L 412.4,225.1 L 416.7,224.9 L 421.0,224.0 L 425.3,224.2 L 429.6,224.0 L 433.9,223.8 L 438.2,223.8 L 442.5,223.6 L 446.9,223.0 L 451.2,223.0 L 455.5,223.0 L 459.8,223.0 L 464.1,222.6 L 468.4,222.6 L 472.7,222.2 L 477.0,221.8 L 481.3,221.0 L 485.6,221.0 L 489.9,220.6 L 494.2,220.4 L 498.6,220.2 L 502.9,220.0 L 507.2,219.6 L 511.5,219.6 L 515.8,219.1 L 520.1,219.1 L 524.4,218.9 L 528.7,218.5 L 533.0,218.3 L 537.3,218.3 L 541.6,218.3 L 546.0,218.3 L 550.3,218.3 L 554.6,217.7 L 558.9,217.7 L 563.2,217.3 L 567.5,216.9 L 571.8,216.3 L 576.1,216.1 L 580.4,216.1 L 584.7,214.9 L 589.0,214.7 L 593.3,214.7 L 597.7,213.9 L 602.0,213.9 L 606.3,213.5 L 610.6,213.5 L 614.9,213.3 L 619.2,213.3 L 623.5,213.2 L 627.8,212.8 L 632.1,212.8 L 636.4,212.6 L 640.7,212.4 L 645.0,212.2 L 649.4,212.0 L 653.7,212.0 L 658.0,211.6 L 662.3,211.6 L 666.6,211.6 L 670.9,210.6 L 675.2,210.6 L 679.5,210.6 L 683.8,210.6 L 688.1,210.6 L 692.4,210.6 L 696.8,210.2 L 701.1,210.2 L 705.4,209.8 L 709.7,209.0 L 714.0,208.6 L 718.3,208.4 L 722.6,208.4 L 726.9,208.2 L 731.2,207.6 L 735.5,207.4 L 739.8,207.4 L 744.1,207.1 L 748.5,206.5 L 752.8,206.1 L 757.1,206.1 L 761.4,205.9 L 765.7,205.9 L 770.0,205.3 L 770.0,340 Z" fill="url(#g3)" clip-path="url(#ca)"/>
<path d="M 72.0,244.2 L 76.3,243.6 L 80.6,243.6 L 84.9,243.6 L 89.2,243.4 L 93.5,243.0 L 97.9,242.8 L 102.2,242.6 L 106.5,242.6 L 110.8,242.5 L 115.1,242.3 L 119.4,242.3 L 123.7,242.3 L 128.0,242.3 L 132.3,242.3 L 136.6,242.3 L 140.9,241.9 L 145.2,241.9 L 149.6,241.9 L 153.9,241.1 L 158.2,240.9 L 162.5,240.5 L 166.8,239.7 L 171.1,239.5 L 175.4,239.5 L 179.7,239.5 L 184.0,238.9 L 188.3,238.5 L 192.6,238.5 L 197.0,238.1 L 201.3,237.9 L 205.6,237.5 L 209.9,237.5 L 214.2,237.3 L 218.5,236.6 L 222.8,236.0 L 227.1,235.6 L 231.4,235.4 L 235.7,235.4 L 240.0,235.2 L 244.3,234.8 L 248.7,234.8 L 253.0,234.6 L 257.3,234.0 L 261.6,233.6 L 265.9,233.6 L 270.2,233.6 L 274.5,233.6 L 278.8,233.4 L 283.1,232.8 L 287.4,232.4 L 291.7,232.2 L 296.0,232.0 L 300.4,231.8 L 304.7,231.6 L 309.0,231.4 L 313.3,231.2 L 317.6,230.7 L 321.9,230.5 L 326.2,230.3 L 330.5,229.5 L 334.8,228.7 L 339.1,228.7 L 343.4,228.5 L 347.8,228.3 L 352.1,228.3 L 356.4,228.3 L 360.7,227.9 L 365.0,227.9 L 369.3,226.7 L 373.6,226.5 L 377.9,226.3 L 382.2,226.3 L 386.5,225.9 L 390.8,225.7 L 395.1,225.7 L 399.5,225.5 L 403.8,225.5 L 408.1,225.5 L 412.4,225.1 L 416.7,224.9 L 421.0,224.0 L 425.3,224.2 L 429.6,224.0 L 433.9,223.8 L 438.2,223.8 L 442.5,223.6 L 446.9,223.0 L 451.2,223.0 L 455.5,223.0 L 459.8,223.0 L 464.1,222.6 L 468.4,222.6 L 472.7,222.2 L 477.0,221.8 L 481.3,221.0 L 485.6,221.0 L 489.9,220.6 L 494.2,220.4 L 498.6,220.2 L 502.9,220.0 L 507.2,219.6 L 511.5,219.6 L 515.8,219.1 L 520.1,219.1 L 524.4,218.9 L 528.7,218.5 L 533.0,218.3 L 537.3,218.3 L 541.6,218.3 L 546.0,218.3 L 550.3,218.3 L 554.6,217.7 L 558.9,217.7 L 563.2,217.3 L 567.5,216.9 L 571.8,216.3 L 576.1,216.1 L 580.4,216.1 L 584.7,214.9 L 589.0,214.7 L 593.3,214.7 L 597.7,213.9 L 602.0,213.9 L 606.3,213.5 L 610.6,213.5 L 614.9,213.3 L 619.2,213.3 L 623.5,213.2 L 627.8,212.8 L 632.1,212.8 L 636.4,212.6 L 640.7,212.4 L 645.0,212.2 L 649.4,212.0 L 653.7,212.0 L 658.0,211.6 L 662.3,211.6 L 666.6,211.6 L 670.9,210.6 L 675.2,210.6 L 679.5,210.6 L 683.8,210.6 L 688.1,210.6 L 692.4,210.6 L 696.8,210.2 L 701.1,210.2 L 705.4,209.8 L 709.7,209.0 L 714.0,208.6 L 718.3,208.4 L 722.6,208.4 L 726.9,208.2 L 731.2,207.6 L 735.5,207.4 L 739.8,207.4 L 744.1,207.1 L 748.5,206.5 L 752.8,206.1 L 757.1,206.1 L 761.4,205.9 L 765.7,205.9 L 770.0,205.3" fill="none" stroke="#BF5AF2" stroke-width="2.5" stroke-linejoin="round" clip-path="url(#ca)"/>
<path d="M 72.0,340 L 72.0,291.4 L 76.3,290.8 L 80.6,290.8 L 84.9,290.8 L 89.2,290.6 L 93.5,290.2 L 97.9,290.0 L 102.2,289.7 L 106.5,289.7 L 110.8,289.5 L 115.1,289.3 L 119.4,289.3 L 123.7,289.3 L 128.0,289.3 L 132.3,289.3 L 136.6,289.3 L 140.9,288.9 L 145.2,288.9 L 149.6,289.1 L 153.9,288.5 L 158.2,288.7 L 162.5,288.1 L 166.8,287.5 L 171.1,287.3 L 175.4,287.5 L 179.7,287.5 L 184.0,286.9 L 188.3,286.7 L 192.6,286.7 L 197.0,286.3 L 201.3,286.1 L 205.6,285.7 L 209.9,285.7 L 214.2,285.5 L 218.5,284.9 L 222.8,284.3 L 227.1,283.9 L 231.4,283.9 L 235.7,283.9 L 240.0,283.8 L 244.3,283.4 L 248.7,283.4 L 253.0,283.2 L 257.3,282.6 L 261.6,282.4 L 265.9,282.4 L 270.2,282.4 L 274.5,282.4 L 278.8,282.2 L 283.1,281.6 L 287.4,281.4 L 291.7,281.2 L 296.0,281.0 L 300.4,281.0 L 304.7,280.8 L 309.0,280.8 L 313.3,280.8 L 317.6,280.2 L 321.9,280.2 L 326.2,280.2 L 330.5,279.8 L 334.8,279.2 L 339.1,279.2 L 343.4,279.0 L 347.8,278.8 L 352.1,278.8 L 356.4,278.8 L 360.7,278.4 L 365.0,278.4 L 369.3,277.3 L 373.6,277.1 L 377.9,276.9 L 382.2,276.9 L 386.5,276.7 L 390.8,276.7 L 395.1,276.7 L 399.5,276.7 L 403.8,276.7 L 408.1,276.7 L 412.4,276.3 L 416.7,276.1 L 421.0,275.1 L 425.3,275.3 L 429.6,275.3 L 433.9,275.1 L 438.2,275.1 L 442.5,275.1 L 446.9,274.7 L 451.2,274.7 L 455.5,274.7 L 459.8,274.7 L 464.1,274.7 L 468.4,274.7 L 472.7,274.5 L 477.0,274.5 L 481.3,273.7 L 485.6,273.7 L 489.9,273.5 L 494.2,273.3 L 498.6,273.1 L 502.9,272.9 L 507.2,272.5 L 511.5,272.5 L 515.8,272.0 L 520.1,272.0 L 524.4,271.8 L 528.7,271.6 L 533.0,271.6 L 537.3,271.6 L 541.6,271.6 L 546.0,271.6 L 550.3,271.6 L 554.6,271.0 L 558.9,271.0 L 563.2,270.6 L 567.5,270.2 L 571.8,269.6 L 576.1,269.4 L 580.4,269.4 L 584.7,268.4 L 589.0,268.2 L 593.3,268.2 L 597.7,267.6 L 602.0,267.6 L 606.3,267.4 L 610.6,267.4 L 614.9,267.6 L 619.2,267.8 L 623.5,267.6 L 627.8,267.2 L 632.1,267.4 L 636.4,267.2 L 640.7,267.0 L 645.0,267.0 L 649.4,267.0 L 653.7,267.0 L 658.0,266.6 L 662.3,266.6 L 666.6,266.6 L 670.9,265.9 L 675.2,265.9 L 679.5,265.9 L 683.8,265.9 L 688.1,265.9 L 692.4,265.9 L 696.8,265.5 L 701.1,265.5 L 705.4,265.1 L 709.7,264.3 L 714.0,264.1 L 718.3,264.1 L 722.6,264.1 L 726.9,264.1 L 731.2,263.7 L 735.5,263.5 L 739.8,263.5 L 744.1,263.3 L 748.5,262.7 L 752.8,262.3 L 757.1,262.3 L 761.4,262.1 L 765.7,262.1 L 770.0,261.9 L 770.0,340 Z" fill="url(#g4)" clip-path="url(#ca)"/>
<path d="M 72.0,291.4 L 76.3,290.8 L 80.6,290.8 L 84.9,290.8 L 89.2,290.6 L 93.5,290.2 L 97.9,290.0 L 102.2,289.7 L 106.5,289.7 L 110.8,289.5 L 115.1,289.3 L 119.4,289.3 L 123.7,289.3 L 128.0,289.3 L 132.3,289.3 L 136.6,289.3 L 140.9,288.9 L 145.2,288.9 L 149.6,289.1 L 153.9,288.5 L 158.2,288.7 L 162.5,288.1 L 166.8,287.5 L 171.1,287.3 L 175.4,287.5 L 179.7,287.5 L 184.0,286.9 L 188.3,286.7 L 192.6,286.7 L 197.0,286.3 L 201.3,286.1 L 205.6,285.7 L 209.9,285.7 L 214.2,285.5 L 218.5,284.9 L 222.8,284.3 L 227.1,283.9 L 231.4,283.9 L 235.7,283.9 L 240.0,283.8 L 244.3,283.4 L 248.7,283.4 L 253.0,283.2 L 257.3,282.6 L 261.6,282.4 L 265.9,282.4 L 270.2,282.4 L 274.5,282.4 L 278.8,282.2 L 283.1,281.6 L 287.4,281.4 L 291.7,281.2 L 296.0,281.0 L 300.4,281.0 L 304.7,280.8 L 309.0,280.8 L 313.3,280.8 L 317.6,280.2 L 321.9,280.2 L 326.2,280.2 L 330.5,279.8 L 334.8,279.2 L 339.1,279.2 L 343.4,279.0 L 347.8,278.8 L 352.1,278.8 L 356.4,278.8 L 360.7,278.4 L 365.0,278.4 L 369.3,277.3 L 373.6,277.1 L 377.9,276.9 L 382.2,276.9 L 386.5,276.7 L 390.8,276.7 L 395.1,276.7 L 399.5,276.7 L 403.8,276.7 L 408.1,276.7 L 412.4,276.3 L 416.7,276.1 L 421.0,275.1 L 425.3,275.3 L 429.6,275.3 L 433.9,275.1 L 438.2,275.1 L 442.5,275.1 L 446.9,274.7 L 451.2,274.7 L 455.5,274.7 L 459.8,274.7 L 464.1,274.7 L 468.4,274.7 L 472.7,274.5 L 477.0,274.5 L 481.3,273.7 L 485.6,273.7 L 489.9,273.5 L 494.2,273.3 L 498.6,273.1 L 502.9,272.9 L 507.2,272.5 L 511.5,272.5 L 515.8,272.0 L 520.1,272.0 L 524.4,271.8 L 528.7,271.6 L 533.0,271.6 L 537.3,271.6 L 541.6,271.6 L 546.0,271.6 L 550.3,271.6 L 554.6,271.0 L 558.9,271.0 L 563.2,270.6 L 567.5,270.2 L 571.8,269.6 L 576.1,269.4 L 580.4,269.4 L 584.7,268.4 L 589.0,268.2 L 593.3,268.2 L 597.7,267.6 L 602.0,267.6 L 606.3,267.4 L 610.6,267.4 L 614.9,267.6 L 619.2,267.8 L 623.5,267.6 L 627.8,267.2 L 632.1,267.4 L 636.4,267.2 L 640.7,267.0 L 645.0,267.0 L 649.4,267.0 L 653.7,267.0 L 658.0,266.6 L 662.3,266.6 L 666.6,266.6 L 670.9,265.9 L 675.2,265.9 L 679.5,265.9 L 683.8,265.9 L 688.1,265.9 L 692.4,265.9 L 696.8,265.5 L 701.1,265.5 L 705.4,265.1 L 709.7,264.3 L 714.0,264.1 L 718.3,264.1 L 722.6,264.1 L 726.9,264.1 L 731.2,263.7 L 735.5,263.5 L 739.8,263.5 L 744.1,263.3 L 748.5,262.7 L 752.8,262.3 L 757.1,262.3 L 761.4,262.1 L 765.7,262.1 L 770.0,261.9" fill="none" stroke="#34C759" stroke-width="2.5" stroke-linejoin="round" clip-path="url(#ca)"/>
<text x="95.7" y="55.0" text-anchor="middle" font-size="9" fill="#4F8EF7" opacity="0.85" clip-path="url(#ca)">+0.5% (+8)</text>
<text x="95.7" y="66.0" text-anchor="middle" font-size="9" fill="#BF5AF2" opacity="0.85" clip-path="url(#ca)">+1.0% (+10)</text>
<text x="95.7" y="77.0" text-anchor="middle" font-size="9" fill="#34C759" opacity="0.85" clip-path="url(#ca)">+1.5% (+11)</text>
<text x="177.6" y="55.0" text-anchor="middle" font-size="9" fill="#4F8EF7" opacity="0.85" clip-path="url(#ca)">+4.0% (+65)</text>
<text x="177.6" y="66.0" text-anchor="middle" font-size="9" fill="#BF5AF2" opacity="0.85" clip-path="url(#ca)">+3.5% (+35)</text>
<text x="177.6" y="77.0" text-anchor="middle" font-size="9" fill="#34C759" opacity="0.85" clip-path="url(#ca)">+3.6% (+27)</text>
<text x="291.7" y="55.0" text-anchor="middle" font-size="9" fill="#4F8EF7" opacity="0.85" clip-path="url(#ca)">+4.1% (+70)</text>
<text x="291.7" y="66.0" text-anchor="middle" font-size="9" fill="#BF5AF2" opacity="0.85" clip-path="url(#ca)">+3.5% (+36)</text>
<text x="291.7" y="77.0" text-anchor="middle" font-size="9" fill="#34C759" opacity="0.85" clip-path="url(#ca)">+3.3% (+26)</text>
<text x="408.1" y="55.0" text-anchor="middle" font-size="9" fill="#4F8EF7" opacity="0.85" clip-path="url(#ca)">+3.5% (+61)</text>
<text x="408.1" y="66.0" text-anchor="middle" font-size="9" fill="#BF5AF2" opacity="0.85" clip-path="url(#ca)">+2.7% (+29)</text>
<text x="408.1" y="77.0" text-anchor="middle" font-size="9" fill="#34C759" opacity="0.85" clip-path="url(#ca)">+2.6% (+21)</text>
<text x="524.4" y="55.0" text-anchor="middle" font-size="9" fill="#4F8EF7" opacity="0.85" clip-path="url(#ca)">+2.7% (+49)</text>
<text x="524.4" y="66.0" text-anchor="middle" font-size="9" fill="#BF5AF2" opacity="0.85" clip-path="url(#ca)">+3.0% (+33)</text>
<text x="524.4" y="77.0" text-anchor="middle" font-size="9" fill="#34C759" opacity="0.85" clip-path="url(#ca)">+3.2% (+27)</text>
<text x="638.6" y="55.0" text-anchor="middle" font-size="9" fill="#4F8EF7" opacity="0.85" clip-path="url(#ca)">+2.9% (+54)</text>
<text x="638.6" y="66.0" text-anchor="middle" font-size="9" fill="#BF5AF2" opacity="0.85" clip-path="url(#ca)">+1.9% (+22)</text>
<text x="638.6" y="77.0" text-anchor="middle" font-size="9" fill="#34C759" opacity="0.85" clip-path="url(#ca)">+1.5% (+13)</text>
<text x="733.4" y="55.0" text-anchor="middle" font-size="9" fill="#4F8EF7" opacity="0.85" clip-path="url(#ca)">+2.1% (+40)</text>
<text x="733.4" y="66.0" text-anchor="middle" font-size="9" fill="#BF5AF2" opacity="0.85" clip-path="url(#ca)">+2.2% (+25)</text>
<text x="733.4" y="77.0" text-anchor="middle" font-size="9" fill="#34C759" opacity="0.85" clip-path="url(#ca)">+2.0% (+18)</text>
<rect x="211" y="369" width="12" height="12" fill="#4F8EF7" rx="2"/>
<text x="227" y="379" font-size="12" fill="#111827">Authors</text>
<rect x="351" y="369" width="12" height="12" fill="#BF5AF2" rx="2"/>
<text x="367" y="379" font-size="12" fill="#111827">Contributors</text>
<rect x="491" y="369" width="12" height="12" fill="#34C759" rx="2"/>
<text x="507" y="379" font-size="12" fill="#111827">Non-author contributors</text>
<text x="72" y="394" font-size="8" fill="#e5e7eb">data since Dec 11, 2025</text>
</svg>