<svg xmlns="http://www.w3.org/2000/svg" width="800" height="400" viewBox="0 0 800 400">
<defs>
  <style>text { font-family: -apple-system, BlinkMacSystemFont, 'Segoe UI', Roboto, sans-serif; }</style>
  <linearGradient id="g2" x1="0" y1="0" x2="0" y2="1">
  <stop offset="0%" stop-color="#4F8EF7" stop-opacity="0.25"/>
  <stop offset="100%" stop-color="#4F8EF7" stop-opacity="0"/>
</linearGradient>
<linearGradient id="g3" x1="0" y1="0" x2="0" y2="1">
  <stop offset="0%" stop-color="#BF5AF2" stop-opacity="0.25"/>
  <stop offset="100%" stop-color="#BF5AF2" stop-opacity="0"/>
</linearGradient>
<linearGradient id="g4" x1="0" y1="0" x2="0" y2="1">
  <stop offset="0%" stop-color="#34C759" stop-opacity="0.25"/>
  <stop offset="100%" stop-color="#34C759" stop-opacity="0"/>
</linearGradient>
  <clipPath id="ca"><rect x="72" y="45" width="698" height="295"/></clipPath>
</defs>
<rect width="800" height="400" fill="#ffffff" rx="12"/>
<text x="400" y="26" text-anchor="middle" font-size="15" font-weight="600" fill="#111827">Community Growth Over Time</text>
<line x1="72" y1="340.0" x2="770" y2="340.0" stroke="#f3f4f6" stroke-width="1"/>
<text x="66" y="344.0" text-anchor="end" font-size="11" fill="#6b7280">500</text>
<line x1="72" y1="241.7" x2="770" y2="241.7" stroke="#f3f4f6" stroke-width="1"/>
<text x="66" y="245.7" text-anchor="end" font-size="11" fill="#6b7280">1.0k</text>
<line x1="72" y1="143.3" x2="770" y2="143.3" stroke="#f3f4f6" stroke-width="1"/>
<text x="66" y="147.3" text-anchor="end" font-size="11" fill="#6b7280">1.5k</text>
<line x1="72" y1="45.0" x2="770" y2="45.0" stroke="#f3f4f6" stroke-width="1"/>
<text x="66" y="49.0" text-anchor="end" font-size="11" fill="#6b7280">2.0k</text>
<line x1="132.7" y1="45" x2="132.7" y2="340" stroke="#e5e7eb" stroke-width="1" stroke-dasharray="3,3" clip-path="url(#ca)"/>
<line x1="264.2" y1="45" x2="264.2" y2="340" stroke="#e5e7eb" stroke-width="1" stroke-dasharray="3,3" clip-path="url(#ca)"/>
<line x1="400.8" y1="45" x2="400.8" y2="340" stroke="#e5e7eb" stroke-width="1" stroke-dasharray="3,3" clip-path="url(#ca)"/>
<line x1="537.3" y1="45" x2="537.3" y2="340" stroke="#e5e7eb" stroke-width="1" stroke-dasharray="3,3" clip-path="url(#ca)"/>
<line x1="673.9" y1="45" x2="673.9" y2="340" stroke="#e5e7eb" stroke-width="1" stroke-dasharray="3,3" clip-path="url(#ca)"/>
<text x="72.0" y="358.0" text-anchor="middle" font-size="11" fill="#6b7280">Dec 11</text>
<text x="213.6" y="358.0" text-anchor="middle" font-size="11" fill="#6b7280">Jan 22</text>
<text x="350.2" y="358.0" text-anchor="middle" font-size="11" fill="#6b7280">Feb 18</text>
<text x="491.8" y="358.0" text-anchor="middle" font-size="11" fill="#6b7280">Mar 20</text>
<text x="628.4" y="358.0" text-anchor="middle" font-size="11" fill="#6b7280">Apr 21</text>
<text x="770.0" y="358.0" text-anchor="middle" font-size="11" fill="#6b7280">May 25</text>
<line x1="72" y1="45" x2="72" y2="340" stroke="#e5e7eb" stroke-width="1"/>
<line x1="72" y1="340" x2="770" y2="340" stroke="#e5e7eb" stroke-width="1"/>
<text x="-192.5" y="18" text-anchor="middle" font-size="12" fill="#6b7280" transform="rotate(-90)">People</text>
<path d="M 72.0,340 L 72.0,120.1 L 77.1,120.1 L 82.1,120.1 L 87.2,119.5 L 92.2,119.5 L 97.3,119.1 L 102.3,118.9 L 107.4,119.1 L 112.5,118.6 L 117.5,118.6 L 122.6,118.6 L 127.6,118.6 L 132.7,118.6 L 137.8,118.6 L 142.8,118.6 L 147.9,118.6 L 152.9,118.4 L 158.0,117.8 L 163.0,116.6 L 168.1,116.0 L 173.2,115.8 L 178.2,115.8 L 183.3,115.2 L 188.3,113.8 L 193.4,113.0 L 198.4,113.0 L 203.5,112.1 L 208.6,111.7 L 213.6,110.9 L 218.7,110.3 L 223.7,109.7 L 228.8,109.1 L 233.9,109.1 L 238.9,107.7 L 244.0,106.9 L 249.0,106.9 L 254.1,106.2 L 259.1,105.8 L 264.2,105.6 L 269.3,105.4 L 274.3,105.4 L 279.4,104.8 L 284.4,102.4 L 289.5,101.0 L 294.6,100.3 L 299.6,100.1 L 304.7,99.7 L 309.7,98.9 L 314.8,98.5 L 319.8,98.1 L 324.9,97.7 L 330.0,97.3 L 335.0,96.9 L 340.1,96.9 L 345.1,95.0 L 350.2,95.0 L 355.2,94.8 L 360.3,94.6 L 365.4,94.2 L 370.4,94.2 L 375.5,93.2 L 380.5,92.0 L 385.6,91.6 L 390.7,92.0 L 395.7,91.8 L 400.8,91.6 L 405.8,91.6 L 410.9,91.2 L 415.9,90.4 L 421.0,90.0 L 426.1,89.6 L 431.1,89.4 L 436.2,89.4 L 441.2,88.7 L 446.3,88.3 L 451.3,88.3 L 456.4,86.7 L 461.5,86.7 L 466.5,86.7 L 471.6,86.7 L 476.6,86.5 L 481.7,85.9 L 486.8,85.1 L 491.8,84.7 L 496.9,84.7 L 501.9,84.3 L 507.0,82.8 L 512.0,81.8 L 517.1,81.6 L 522.2,81.4 L 527.2,80.8 L 532.3,79.6 L 537.3,79.2 L 542.4,78.8 L 547.4,77.6 L 552.5,77.4 L 557.6,77.4 L 562.6,77.4 L 567.7,77.3 L 572.7,76.1 L 577.8,75.9 L 582.9,75.7 L 587.9,75.7 L 593.0,75.3 L 598.0,73.7 L 603.1,73.5 L 608.1,73.3 L 613.2,73.3 L 618.3,72.5 L 623.3,72.3 L 628.4,72.1 L 633.4,71.6 L 638.5,70.8 L 643.6,70.8 L 648.6,70.8 L 653.7,70.8 L 658.7,70.4 L 663.8,69.8 L 668.8,69.6 L 673.9,69.0 L 679.0,68.8 L 684.0,68.6 L 689.1,67.8 L 694.1,67.2 L 699.2,67.0 L 704.2,67.0 L 709.3,65.3 L 714.4,64.7 L 719.4,64.5 L 724.5,64.5 L 729.5,63.5 L 734.6,63.5 L 739.7,62.9 L 744.7,62.3 L 749.8,60.9 L 754.8,60.7 L 759.9,60.5 L 764.9,60.3 L 770.0,60.3 L 770.0,340 Z" fill="url(#g2)" clip-path="url(#ca)"/>
<path d="M 72.0,120.1 L 77.1,120.1 L 82.1,120.1 L 87.2,119.5 L 92.2,119.5 L 97.3,119.1 L 102.3,118.9 L 107.4,119.1 L 112.5,118.6 L 117.5,118.6 L 122.6,118.6 L 127.6,118.6 L 132.7,118.6 L 137.8,118.6 L 142.8,118.6 L 147.9,118.6 L 152.9,118.4 L 158.0,117.8 L 163.0,116.6 L 168.1,116.0 L 173.2,115.8 L 178.2,115.8 L 183.3,115.2 L 188.3,113.8 L 193.4,113.0 L 198.4,113.0 L 203.5,112.1 L 208.6,111.7 L 213.6,110.9 L 218.7,110.3 L 223.7,109.7 L 228.8,109.1 L 233.9,109.1 L 238.9,107.7 L 244.0,106.9 L 249.0,106.9 L 254.1,106.2 L 259.1,105.8 L 264.2,105.6 L 269.3,105.4 L 274.3,105.4 L 279.4,104.8 L 284.4,102.4 L 289.5,101.0 L 294.6,100.3 L 299.6,100.1 L 304.7,99.7 L 309.7,98.9 L 314.8,98.5 L 319.8,98.1 L 324.9,97.7 L 330.0,97.3 L 335.0,96.9 L 340.1,96.9 L 345.1,95.0 L 350.2,95.0 L 355.2,94.8 L 360.3,94.6 L 365.4,94.2 L 370.4,94.2 L 375.5,93.2 L 380.5,92.0 L 385.6,91.6 L 390.7,92.0 L 395.7,91.8 L 400.8,91.6 L 405.8,91.6 L 410.9,91.2 L 415.9,90.4 L 421.0,90.0 L 426.1,89.6 L 431.1,89.4 L 436.2,89.4 L 441.2,88.7 L 446.3,88.3 L 451.3,88.3 L 456.4,86.7 L 461.5,86.7 L 466.5,86.7 L 471.6,86.7 L 476.6,86.5 L 481.7,85.9 L 486.8,85.1 L 491.8,84.7 L 496.9,84.7 L 501.9,84.3 L 507.0,82.8 L 512.0,81.8 L 517.1,81.6 L 522.2,81.4 L 527.2,80.8 L 532.3,79.6 L 537.3,79.2 L 542.4,78.8 L 547.4,77.6 L 552.5,77.4 L 557.6,77.4 L 562.6,77.4 L 567.7,77.3 L 572.7,76.1 L 577.8,75.9 L 582.9,75.7 L 587.9,75.7 L 593.0,75.3 L 598.0,73.7 L 603.1,73.5 L 608.1,73.3 L 613.2,73.3 L 618.3,72.5 L 623.3,72.3 L 628.4,72.1 L 633.4,71.6 L 638.5,70.8 L 643.6,70.8 L 648.6,70.8 L 653.7,70.8 L 658.7,70.4 L 663.8,69.8 L 668.8,69.6 L 673.9,69.0 L 679.0,68.8 L 684.0,68.6 L 689.1,67.8 L 694.1,67.2 L 699.2,67.0 L 704.2,67.0 L 709.3,65.3 L 714.4,64.7 L 719.4,64.5 L 724.5,64.5 L 729.5,63.5 L 734.6,63.5 L 739.7,62.9 L 744.7,62.3 L 749.8,60.9 L 754.8,60.7 L 759.9,60.5 L 764.9,60.3 L 770.0,60.3" fill="none" stroke="#4F8EF7" stroke-width="2.5" stroke-linejoin="round" clip-path="url(#ca)"/>
<path d="M 72.0,340 L 72.0,244.2 L 77.1,243.6 L 82.1,243.6 L 87.2,243.6 L 92.2,243.4 L 97.3,243.0 L 102.3,242.8 L 107.4,242.6 L 112.5,242.6 L 117.5,242.5 L 122.6,242.3 L 127.6,242.3 L 132.7,242.3 L 137.8,242.3 L 142.8,242.3 L 147.9,242.3 L 152.9,241.9 L 158.0,241.9 L 163.0,241.9 L 168.1,241.1 L 173.2,240.9 L 178.2,240.5 L 183.3,239.7 L 188.3,239.5 L 193.4,239.5 L 198.4,239.5 L 203.5,238.9 L 208.6,238.5 L 213.6,238.5 L 218.7,238.1 L 223.7,237.9 L 228.8,237.5 L 233.9,237.5 L 238.9,237.3 L 244.0,236.6 L 249.0,236.0 L 254.1,235.6 L 259.1,235.4 L 264.2,235.4 L 269.3,235.2 L 274.3,234.8 L 279.4,234.8 L 284.4,234.6 L 289.5,234.0 L 294.6,233.6 L 299.6,233.6 L 304.7,233.6 L 309.7,233.6 L 314.8,233.4 L 319.8,232.8 L 324.9,232.4 L 330.0,232.2 L 335.0,232.0 L 340.1,231.8 L 345.1,231.6 L 350.2,231.4 L 355.2,231.2 L 360.3,230.7 L 365.4,230.5 L 370.4,230.3 L 375.5,229.5 L 380.5,228.7 L 385.6,228.7 L 390.7,228.5 L 395.7,228.3 L 400.8,228.3 L 405.8,228.3 L 410.9,227.9 L 415.9,227.9 L 421.0,226.7 L 426.1,226.5 L 431.1,226.3 L 436.2,226.3 L 441.2,225.9 L 446.3,225.7 L 451.3,225.7 L 456.4,225.5 L 461.5,225.5 L 466.5,225.5 L 471.6,225.1 L 476.6,224.9 L 481.7,224.0 L 486.8,224.2 L 491.8,224.0 L 496.9,223.8 L 501.9,223.8 L 507.0,223.6 L 512.0,223.0 L 517.1,223.0 L 522.2,223.0 L 527.2,223.0 L 532.3,222.6 L 537.3,222.6 L 542.4,222.2 L 547.4,221.8 L 552.5,221.0 L 557.6,221.0 L 562.6,220.6 L 567.7,220.4 L 572.7,220.2 L 577.8,220.0 L 582.9,219.6 L 587.9,219.6 L 593.0,219.1 L 598.0,219.1 L 603.1,218.9 L 608.1,218.5 L 613.2,218.3 L 618.3,218.3 L 623.3,218.3 L 628.4,218.3 L 633.4,218.3 L 638.5,217.7 L 643.6,217.7 L 648.6,217.3 L 653.7,216.9 L 658.7,216.3 L 663.8,216.1 L 668.8,216.1 L 673.9,214.9 L 679.0,214.7 L 684.0,214.7 L 689.1,213.9 L 694.1,213.9 L 699.2,213.5 L 704.2,213.5 L 709.3,213.3 L 714.4,213.3 L 719.4,213.2 L 724.5,212.8 L 729.5,212.8 L 734.6,212.6 L 739.7,212.4 L 744.7,212.2 L 749.8,212.0 L 754.8,212.0 L 759.9,211.6 L 764.9,211.6 L 770.0,211.6 L 770.0,340 Z" fill="url(#g3)" clip-path="url(#ca)"/>
<path d="M 72.0,244.2 L 77.1,243.6 L 82.1,243.6 L 87.2,243.6 L 92.2,243.4 L 97.3,243.0 L 102.3,242.8 L 107.4,242.6 L 112.5,242.6 L 117.5,242.5 L 122.6,242.3 L 127.6,242.3 L 132.7,242.3 L 137.8,242.3 L 142.8,242.3 L 147.9,242.3 L 152.9,241.9 L 158.0,241.9 L 163.0,241.9 L 168.1,241.1 L 173.2,240.9 L 178.2,240.5 L 183.3,239.7 L 188.3,239.5 L 193.4,239.5 L 198.4,239.5 L 203.5,238.9 L 208.6,238.5 L 213.6,238.5 L 218.7,238.1 L 223.7,237.9 L 228.8,237.5 L 233.9,237.5 L 238.9,237.3 L 244.0,236.6 L 249.0,236.0 L 254.1,235.6 L 259.1,235.4 L 264.2,235.4 L 269.3,235.2 L 274.3,234.8 L 279.4,234.8 L 284.4,234.6 L 289.5,234.0 L 294.6,233.6 L 299.6,233.6 L 304.7,233.6 L 309.7,233.6 L 314.8,233.4 L 319.8,232.8 L 324.9,232.4 L 330.0,232.2 L 335.0,232.0 L 340.1,231.8 L 345.1,231.6 L 350.2,231.4 L 355.2,231.2 L 360.3,230.7 L 365.4,230.5 L 370.4,230.3 L 375.5,229.5 L 380.5,228.7 L 385.6,228.7 L 390.7,228.5 L 395.7,228.3 L 400.8,228.3 L 405.8,228.3 L 410.9,227.9 L 415.9,227.9 L 421.0,226.7 L 426.1,226.5 L 431.1,226.3 L 436.2,226.3 L 441.2,225.9 L 446.3,225.7 L 451.3,225.7 L 456.4,225.5 L 461.5,225.5 L 466.5,225.5 L 471.6,225.1 L 476.6,224.9 L 481.7,224.0 L 486.8,224.2 L 491.8,224.0 L 496.9,223.8 L 501.9,223.8 L 507.0,223.6 L 512.0,223.0 L 517.1,223.0 L 522.2,223.0 L 527.2,223.0 L 532.3,222.6 L 537.3,222.6 L 542.4,222.2 L 547.4,221.8 L 552.5,221.0 L 557.6,221.0 L 562.6,220.6 L 567.7,220.4 L 572.7,220.2 L 577.8,220.0 L 582.9,219.6 L 587.9,219.6 L 593.0,219.1 L 598.0,219.1 L 603.1,218.9 L 608.1,218.5 L 613.2,218.3 L 618.3,218.3 L 623.3,218.3 L 628.4,218.3 L 633.4,218.3 L 638.5,217.7 L 643.6,217.7 L 648.6,217.3 L 653.7,216.9 L 658.7,216.3 L 663.8,216.1 L 668.8,216.1 L 673.9,214.9 L 679.0,214.7 L 684.0,214.7 L 689.1,213.9 L 694.1,213.9 L 699.2,213.5 L 704.2,213.5 L 709.3,213.3 L 714.4,213.3 L 719.4,213.2 L 724.5,212.8 L 729.5,212.8 L 734.6,212.6 L 739.7,212.4 L 744.7,212.2 L 749.8,212.0 L 754.8,212.0 L 759.9,211.6 L 764.9,211.6 L 770.0,211.6" fill="none" stroke="#BF5AF2" stroke-width="2.5" stroke-linejoin="round" clip-path="url(#ca)"/>
<path d="M 72.0,340 L 72.0,291.4 L 77.1,290.8 L 82.1,290.8 L 87.2,290.8 L 92.2,290.6 L 97.3,290.2 L 102.3,290.0 L 107.4,289.7 L 112.5,289.7 L 117.5,289.5 L 122.6,289.3 L 127.6,289.3 L 132.7,289.3 L 137.8,289.3 L 142.8,289.3 L 147.9,289.3 L 152.9,288.9 L 158.0,288.9 L 163.0,289.1 L 168.1,288.5 L 173.2,288.7 L 178.2,288.1 L 183.3,287.5 L 188.3,287.3 L 193.4,287.5 L 198.4,287.5 L 203.5,286.9 L 208.6,286.7 L 213.6,286.7 L 218.7,286.3 L 223.7,286.1 L 228.8,285.7 L 233.9,285.7 L 238.9,285.5 L 244.0,284.9 L 249.0,284.3 L 254.1,283.9 L 259.1,283.9 L 264.2,283.9 L 269.3,283.8 L 274.3,283.4 L 279.4,283.4 L 284.4,283.2 L 289.5,282.6 L 294.6,282.4 L 299.6,282.4 L 304.7,282.4 L 309.7,282.4 L 314.8,282.2 L 319.8,281.6 L 324.9,281.4 L 330.0,281.2 L 335.0,281.0 L 340.1,281.0 L 345.1,280.8 L 350.2,280.8 L 355.2,280.8 L 360.3,280.2 L 365.4,280.2 L 370.4,280.2 L 375.5,279.8 L 380.5,279.2 L 385.6,279.2 L 390.7,279.0 L 395.7,278.8 L 400.8,278.8 L 405.8,278.8 L 410.9,278.4 L 415.9,278.4 L 421.0,277.3 L 426.1,277.1 L 431.1,276.9 L 436.2,276.9 L 441.2,276.7 L 446.3,276.7 L 451.3,276.7 L 456.4,276.7 L 461.5,276.7 L 466.5,276.7 L 471.6,276.3 L 476.6,276.1 L 481.7,275.1 L 486.8,275.3 L 491.8,275.3 L 496.9,275.1 L 501.9,275.1 L 507.0,275.1 L 512.0,274.7 L 517.1,274.7 L 522.2,274.7 L 527.2,274.7 L 532.3,274.7 L 537.3,274.7 L 542.4,274.5 L 547.4,274.5 L 552.5,273.7 L 557.6,273.7 L 562.6,273.5 L 567.7,273.3 L 572.7,273.1 L 577.8,272.9 L 582.9,272.5 L 587.9,272.5 L 593.0,272.0 L 598.0,272.0 L 603.1,271.8 L 608.1,271.6 L 613.2,271.6 L 618.3,271.6 L 623.3,271.6 L 628.4,271.6 L 633.4,271.6 L 638.5,271.0 L 643.6,271.0 L 648.6,270.6 L 653.7,270.2 L 658.7,269.6 L 663.8,269.4 L 668.8,269.4 L 673.9,268.4 L 679.0,268.2 L 684.0,268.2 L 689.1,267.6 L 694.1,267.6 L 699.2,267.4 L 704.2,267.4 L 709.3,267.6 L 714.4,267.8 L 719.4,267.6 L 724.5,267.2 L 729.5,267.4 L 734.6,267.2 L 739.7,267.0 L 744.7,267.0 L 749.8,267.0 L 754.8,267.0 L 759.9,266.6 L 764.9,266.6 L 770.0,266.6 L 770.0,340 Z" fill="url(#g4)" clip-path="url(#ca)"/>
<path d="M 72.0,291.4 L 77.1,290.8 L 82.1,290.8 L 87.2,290.8 L 92.2,290.6 L 97.3,290.2 L 102.3,290.0 L 107.4,289.7 L 112.5,289.7 L 117.5,289.5 L 122.6,289.3 L 127.6,289.3 L 132.7,289.3 L 137.8,289.3 L 142.8,289.3 L 147.9,289.3 L 152.9,288.9 L 158.0,288.9 L 163.0,289.1 L 168.1,288.5 L 173.2,288.7 L 178.2,288.1 L 183.3,287.5 L 188.3,287.3 L 193.4,287.5 L 198.4,287.5 L 203.5,286.9 L 208.6,286.7 L 213.6,286.7 L 218.7,286.3 L 223.7,286.1 L 228.8,285.7 L 233.9,285.7 L 238.9,285.5 L 244.0,284.9 L 249.0,284.3 L 254.1,283.9 L 259.1,283.9 L 264.2,283.9 L 269.3,283.8 L 274.3,283.4 L 279.4,283.4 L 284.4,283.2 L 289.5,282.6 L 294.6,282.4 L 299.6,282.4 L 304.7,282.4 L 309.7,282.4 L 314.8,282.2 L 319.8,281.6 L 324.9,281.4 L 330.0,281.2 L 335.0,281.0 L 340.1,281.0 L 345.1,280.8 L 350.2,280.8 L 355.2,280.8 L 360.3,280.2 L 365.4,280.2 L 370.4,280.2 L 375.5,279.8 L 380.5,279.2 L 385.6,279.2 L 390.7,279.0 L 395.7,278.8 L 400.8,278.8 L 405.8,278.8 L 410.9,278.4 L 415.9,278.4 L 421.0,277.3 L 426.1,277.1 L 431.1,276.9 L 436.2,276.9 L 441.2,276.7 L 446.3,276.7 L 451.3,276.7 L 456.4,276.7 L 461.5,276.7 L 466.5,276.7 L 471.6,276.3 L 476.6,276.1 L 481.7,275.1 L 486.8,275.3 L 491.8,275.3 L 496.9,275.1 L 501.9,275.1 L 507.0,275.1 L 512.0,274.7 L 517.1,274.7 L 522.2,274.7 L 527.2,274.7 L 532.3,274.7 L 537.3,274.7 L 542.4,274.5 L 547.4,274.5 L 552.5,273.7 L 557.6,273.7 L 562.6,273.5 L 567.7,273.3 L 572.7,273.1 L 577.8,272.9 L 582.9,272.5 L 587.9,272.5 L 593.0,272.0 L 598.0,272.0 L 603.1,271.8 L 608.1,271.6 L 613.2,271.6 L 618.3,271.6 L 623.3,271.6 L 628.4,271.6 L 633.4,271.6 L 638.5,271.0 L 643.6,271.0 L 648.6,270.6 L 653.7,270.2 L 658.7,269.6 L 663.8,269.4 L 668.8,269.4 L 673.9,268.4 L 679.0,268.2 L 684.0,268.2 L 689.1,267.6 L 694.1,267.6 L 699.2,267.4 L 704.2,267.4 L 709.3,267.6 L 714.4,267.8 L 719.4,267.6 L 724.5,267.2 L 729.5,267.4 L 734.6,267.2 L 739.7,267.0 L 744.7,267.0 L 749.8,267.0 L 754.8,267.0 L 759.9,266.6 L 764.9,266.6 L 770.0,266.6" fill="none" stroke="#34C759" stroke-width="2.5" stroke-linejoin="round" clip-path="url(#ca)"/>
<text x="99.8" y="55.0" text-anchor="middle" font-size="9" fill="#4F8EF7" opacity="0.85" clip-path="url(#ca)">+0.5% (+8)</text>
<text x="99.8" y="66.0" text-anchor="middle" font-size="9" fill="#BF5AF2" opacity="0.85" clip-path="url(#ca)">+1.0% (+10)</text>
<text x="99.8" y="77.0" text-anchor="middle" font-size="9" fill="#34C759" opacity="0.85" clip-path="url(#ca)">+1.5% (+11)</text>
<text x="195.9" y="55.0" text-anchor="middle" font-size="9" fill="#4F8EF7" opacity="0.85" clip-path="url(#ca)">+4.0% (+65)</text>
<text x="195.9" y="66.0" text-anchor="middle" font-size="9" fill="#BF5AF2" opacity="0.85" clip-path="url(#ca)">+3.5% (+35)</text>
<text x="195.9" y="77.0" text-anchor="middle" font-size="9" fill="#34C759" opacity="0.85" clip-path="url(#ca)">+3.6% (+27)</text>
<text x="330.0" y="55.0" text-anchor="middle" font-size="9" fill="#4F8EF7" opacity="0.85" clip-path="url(#ca)">+4.1% (+70)</text>
<text x="330.0" y="66.0" text-anchor="middle" font-size="9" fill="#BF5AF2" opacity="0.85" clip-path="url(#ca)">+3.5% (+36)</text>
<text x="330.0" y="77.0" text-anchor="middle" font-size="9" fill="#34C759" opacity="0.85" clip-path="url(#ca)">+3.3% (+26)</text>
<text x="466.5" y="55.0" text-anchor="middle" font-size="9" fill="#4F8EF7" opacity="0.85" clip-path="url(#ca)">+3.5% (+61)</text>
<text x="466.5" y="66.0" text-anchor="middle" font-size="9" fill="#BF5AF2" opacity="0.85" clip-path="url(#ca)">+2.7% (+29)</text>
<text x="466.5" y="77.0" text-anchor="middle" font-size="9" fill="#34C759" opacity="0.85" clip-path="url(#ca)">+2.6% (+21)</text>
<text x="603.1" y="55.0" text-anchor="middle" font-size="9" fill="#4F8EF7" opacity="0.85" clip-path="url(#ca)">+2.7% (+49)</text>
<text x="603.1" y="66.0" text-anchor="middle" font-size="9" fill="#BF5AF2" opacity="0.85" clip-path="url(#ca)">+3.0% (+33)</text>
<text x="603.1" y="77.0" text-anchor="middle" font-size="9" fill="#34C759" opacity="0.85" clip-path="url(#ca)">+3.2% (+27)</text>
<text x="721.9" y="55.0" text-anchor="middle" font-size="9" fill="#4F8EF7" opacity="0.85" clip-path="url(#ca)">+2.3% (+44)</text>
<text x="721.9" y="66.0" text-anchor="middle" font-size="9" fill="#BF5AF2" opacity="0.85" clip-path="url(#ca)">+1.5% (+17)</text>
<text x="721.9" y="77.0" text-anchor="middle" font-size="9" fill="#34C759" opacity="0.85" clip-path="url(#ca)">+1.0% (+9)</text>
<rect x="211" y="369" width="12" height="12" fill="#4F8EF7" rx="2"/>
<text x="227" y="379" font-size="12" fill="#111827">Authors</text>
<rect x="351" y="369" width="12" height="12" fill="#BF5AF2" rx="2"/>
<text x="367" y="379" font-size="12" fill="#111827">Contributors</text>
<rect x="491" y="369" width="12" height="12" fill="#34C759" rx="2"/>
<text x="507" y="379" font-size="12" fill="#111827">Non-author contributors</text>
<text x="72" y="394" font-size="8" fill="#e5e7eb">data since Dec 11, 2025</text>
</svg>