<svg xmlns="http://www.w3.org/2000/svg" width="800" height="420" viewBox="0 0 800 420">
<defs><style>text { font-family: -apple-system, BlinkMacSystemFont, 'Segoe UI', Roboto, sans-serif; }</style></defs>
<rect width="800" height="420" fill="#ffffff" rx="12"/>
<text x="400" y="26" text-anchor="middle" font-size="15" font-weight="600" fill="#111827">Top @raycast/api Versions</text>
<line x1="120" y1="45" x2="120" y2="375" stroke="#e5e7eb" stroke-width="1"/>
<line x1="120" y1="375" x2="740" y2="375" stroke="#e5e7eb" stroke-width="1"/>
<line x1="120.0" y1="45" x2="120.0" y2="375" stroke="#f3f4f6" stroke-width="1"/>
<text x="120.0" y="391.0" text-anchor="middle" font-size="11" fill="#6b7280">0</text>
<line x1="276.2" y1="45" x2="276.2" y2="375" stroke="#f3f4f6" stroke-width="1"/>
<text x="276.2" y="391.0" text-anchor="middle" font-size="11" fill="#6b7280">67</text>
<line x1="430.0" y1="45" x2="430.0" y2="375" stroke="#f3f4f6" stroke-width="1"/>
<text x="430.0" y="391.0" text-anchor="middle" font-size="11" fill="#6b7280">133</text>
<line x1="586.2" y1="45" x2="586.2" y2="375" stroke="#f3f4f6" stroke-width="1"/>
<text x="586.2" y="391.0" text-anchor="middle" font-size="11" fill="#6b7280">200</text>
<line x1="740.0" y1="45" x2="740.0" y2="375" stroke="#f3f4f6" stroke-width="1"/>
<text x="740.0" y="391.0" text-anchor="middle" font-size="11" fill="#6b7280">266</text>
<rect x="120" y="50.8" width="620.0" height="16" fill="#FF6363" rx="3" opacity="0.85"/>
<text x="114" y="62.8" text-anchor="end" font-size="11" fill="#111827">1.93.2</text>
<text x="745.0" y="62.8" font-size="11" fill="#6b7280">266</text>
<rect x="120" y="78.3" width="377.6" height="16" fill="#FF6363" rx="3" opacity="0.85"/>
<text x="114" y="90.3" text-anchor="end" font-size="11" fill="#111827">1.104.1</text>
<text x="502.6" y="90.3" font-size="11" fill="#6b7280">162</text>
<rect x="120" y="105.8" width="247.1" height="16" fill="#FF6363" rx="3" opacity="0.85"/>
<text x="114" y="117.8" text-anchor="end" font-size="11" fill="#111827">1.104.19</text>
<text x="372.1" y="117.8" font-size="11" fill="#6b7280">106</text>
<rect x="120" y="133.3" width="200.5" height="16" fill="#FF6363" rx="3" opacity="0.85"/>
<text x="114" y="145.3" text-anchor="end" font-size="11" fill="#111827">1.103.10</text>
<text x="325.5" y="145.3" font-size="11" fill="#6b7280">86</text>
<rect x="120" y="160.8" width="186.5" height="16" fill="#FF6363" rx="3" opacity="0.85"/>
<text x="114" y="172.8" text-anchor="end" font-size="11" fill="#111827">1.104.6</text>
<text x="311.5" y="172.8" font-size="11" fill="#6b7280">80</text>
<rect x="120" y="188.3" width="172.5" height="16" fill="#FF6363" rx="3" opacity="0.85"/>
<text x="114" y="200.3" text-anchor="end" font-size="11" fill="#111827">1.104.11</text>
<text x="297.5" y="200.3" font-size="11" fill="#6b7280">74</text>
<rect x="120" y="215.8" width="149.2" height="16" fill="#FF6363" rx="3" opacity="0.85"/>
<text x="114" y="227.8" text-anchor="end" font-size="11" fill="#111827">1.104.15</text>
<text x="274.2" y="227.8" font-size="11" fill="#6b7280">64</text>
<rect x="120" y="243.3" width="137.5" height="16" fill="#FF6363" rx="3" opacity="0.85"/>
<text x="114" y="255.3" text-anchor="end" font-size="11" fill="#111827">1.100.3</text>
<text x="262.5" y="255.3" font-size="11" fill="#6b7280">59</text>
<rect x="120" y="270.8" width="128.2" height="16" fill="#FF6363" rx="3" opacity="0.85"/>
<text x="114" y="282.8" text-anchor="end" font-size="11" fill="#111827">1.103.3</text>
<text x="253.2" y="282.8" font-size="11" fill="#6b7280">55</text>
<rect x="120" y="298.3" width="121.2" height="16" fill="#FF6363" rx="3" opacity="0.85"/>
<text x="114" y="310.3" text-anchor="end" font-size="11" fill="#111827">1.104.3</text>
<text x="246.2" y="310.3" font-size="11" fill="#6b7280">52</text>
<rect x="120" y="325.8" width="111.9" height="16" fill="#FF6363" rx="3" opacity="0.85"/>
<text x="114" y="337.8" text-anchor="end" font-size="11" fill="#111827">1.103.6</text>
<text x="236.9" y="337.8" font-size="11" fill="#6b7280">48</text>
<rect x="120" y="353.3" width="104.9" height="16" fill="#FF6363" rx="3" opacity="0.85"/>
<text x="114" y="365.3" text-anchor="end" font-size="11" fill="#111827">1.104.20</text>
<text x="229.9" y="365.3" font-size="11" fill="#6b7280">45</text>
<text x="400" y="410" text-anchor="middle" font-size="12" fill="#6b7280">Number of extensions</text>
</svg>