<svg xmlns="http://www.w3.org/2000/svg" width="800" height="400" viewBox="0 0 800 400">
<defs>
  <style>text { font-family: -apple-system, BlinkMacSystemFont, 'Segoe UI', Roboto, sans-serif; }</style>
  <linearGradient id="g1" x1="0" y1="0" x2="0" y2="1">
  <stop offset="0%" stop-color="#FF6363" stop-opacity="0.25"/>
  <stop offset="100%" stop-color="#FF6363" stop-opacity="0"/>
</linearGradient>
  <clipPath id="ca"><rect x="72" y="45" width="698" height="295"/></clipPath>
</defs>
<rect width="800" height="400" fill="#ffffff" rx="12"/>
<text x="400" y="26" text-anchor="middle" font-size="15" font-weight="600" fill="#111827">Packages Growth Over Time</text>
<line x1="72" y1="340.0" x2="770" y2="340.0" stroke="#f3f4f6" stroke-width="1"/>
<text x="66" y="344.0" text-anchor="end" font-size="11" fill="#6b7280">2.5k</text>
<line x1="72" y1="281.0" x2="770" y2="281.0" stroke="#f3f4f6" stroke-width="1"/>
<text x="66" y="285.0" text-anchor="end" font-size="11" fill="#6b7280">2.5k</text>
<line x1="72" y1="222.0" x2="770" y2="222.0" stroke="#f3f4f6" stroke-width="1"/>
<text x="66" y="226.0" text-anchor="end" font-size="11" fill="#6b7280">2.6k</text>
<line x1="72" y1="163.0" x2="770" y2="163.0" stroke="#f3f4f6" stroke-width="1"/>
<text x="66" y="167.0" text-anchor="end" font-size="11" fill="#6b7280">2.6k</text>
<line x1="72" y1="104.0" x2="770" y2="104.0" stroke="#f3f4f6" stroke-width="1"/>
<text x="66" y="108.0" text-anchor="end" font-size="11" fill="#6b7280">2.7k</text>
<line x1="72" y1="45.0" x2="770" y2="45.0" stroke="#f3f4f6" stroke-width="1"/>
<text x="66" y="49.0" text-anchor="end" font-size="11" fill="#6b7280">2.8k</text>
<line x1="191.7" y1="45" x2="191.7" y2="340" stroke="#e5e7eb" stroke-width="1" stroke-dasharray="3,3" clip-path="url(#ca)"/>
<line x1="450.9" y1="45" x2="450.9" y2="340" stroke="#e5e7eb" stroke-width="1" stroke-dasharray="3,3" clip-path="url(#ca)"/>
<line x1="720.1" y1="45" x2="720.1" y2="340" stroke="#e5e7eb" stroke-width="1" stroke-dasharray="3,3" clip-path="url(#ca)"/>
<text x="72.0" y="358.0" text-anchor="middle" font-size="11" fill="#6b7280">Dec 11</text>
<text x="211.6" y="358.0" text-anchor="middle" font-size="11" fill="#6b7280">Jan 5</text>
<text x="351.2" y="358.0" text-anchor="middle" font-size="11" fill="#6b7280">Jan 22</text>
<text x="490.8" y="358.0" text-anchor="middle" font-size="11" fill="#6b7280">Feb 5</text>
<text x="630.4" y="358.0" text-anchor="middle" font-size="11" fill="#6b7280">Feb 19</text>
<text x="770.0" y="358.0" text-anchor="middle" font-size="11" fill="#6b7280">Mar 6</text>
<line x1="72" y1="45" x2="72" y2="340" stroke="#e5e7eb" stroke-width="1"/>
<line x1="72" y1="340" x2="770" y2="340" stroke="#e5e7eb" stroke-width="1"/>
<text x="-192.5" y="18" text-anchor="middle" font-size="12" fill="#6b7280" transform="rotate(-90)">Extensions</text>
<path d="M 72.0,340 L 72.0,315.4 L 82.0,314.4 L 91.9,314.4 L 101.9,311.5 L 111.9,311.5 L 121.9,309.6 L 131.8,307.7 L 141.8,306.7 L 151.8,301.9 L 161.7,298.0 L 171.7,298.0 L 181.7,298.0 L 191.7,298.0 L 201.6,296.1 L 211.6,296.1 L 221.6,296.1 L 231.5,294.1 L 241.5,290.3 L 251.5,283.5 L 261.5,278.6 L 271.4,276.7 L 281.4,275.7 L 291.4,271.9 L 301.3,260.2 L 311.3,256.4 L 321.3,256.4 L 331.3,246.7 L 341.2,243.8 L 351.2,239.9 L 361.2,237.0 L 371.1,231.2 L 381.1,226.4 L 391.1,225.4 L 401.1,217.7 L 411.0,210.9 L 421.0,210.9 L 431.0,206.0 L 440.9,202.2 L 450.9,201.2 L 460.9,200.2 L 470.9,199.3 L 480.8,196.4 L 490.8,179.0 L 500.8,171.2 L 510.7,167.3 L 520.7,165.4 L 530.7,162.5 L 540.7,155.7 L 550.6,153.8 L 560.6,151.9 L 570.6,146.0 L 580.5,144.1 L 590.5,142.2 L 600.5,142.2 L 610.5,124.8 L 620.4,122.8 L 630.4,120.9 L 640.4,117.0 L 650.3,112.2 L 660.3,112.2 L 670.3,104.4 L 680.3,91.8 L 690.2,89.9 L 700.2,90.9 L 710.2,88.0 L 720.1,87.0 L 730.1,87.0 L 740.1,81.2 L 750.1,76.4 L 760.0,72.5 L 770.0,69.6 L 770.0,340 Z" fill="url(#g1)" clip-path="url(#ca)"/>
<path d="M 72.0,315.4 L 82.0,314.4 L 91.9,314.4 L 101.9,311.5 L 111.9,311.5 L 121.9,309.6 L 131.8,307.7 L 141.8,306.7 L 151.8,301.9 L 161.7,298.0 L 171.7,298.0 L 181.7,298.0 L 191.7,298.0 L 201.6,296.1 L 211.6,296.1 L 221.6,296.1 L 231.5,294.1 L 241.5,290.3 L 251.5,283.5 L 261.5,278.6 L 271.4,276.7 L 281.4,275.7 L 291.4,271.9 L 301.3,260.2 L 311.3,256.4 L 321.3,256.4 L 331.3,246.7 L 341.2,243.8 L 351.2,239.9 L 361.2,237.0 L 371.1,231.2 L 381.1,226.4 L 391.1,225.4 L 401.1,217.7 L 411.0,210.9 L 421.0,210.9 L 431.0,206.0 L 440.9,202.2 L 450.9,201.2 L 460.9,200.2 L 470.9,199.3 L 480.8,196.4 L 490.8,179.0 L 500.8,171.2 L 510.7,167.3 L 520.7,165.4 L 530.7,162.5 L 540.7,155.7 L 550.6,153.8 L 560.6,151.9 L 570.6,146.0 L 580.5,144.1 L 590.5,142.2 L 600.5,142.2 L 610.5,124.8 L 620.4,122.8 L 630.4,120.9 L 640.4,117.0 L 650.3,112.2 L 660.3,112.2 L 670.3,104.4 L 680.3,91.8 L 690.2,89.9 L 700.2,90.9 L 710.2,88.0 L 720.1,87.0 L 730.1,87.0 L 740.1,81.2 L 750.1,76.4 L 760.0,72.5 L 770.0,69.6" fill="none" stroke="#FF6363" stroke-width="2.5" stroke-linejoin="round" clip-path="url(#ca)"/>
<text x="126.8" y="55.0" text-anchor="middle" font-size="9" fill="#FF6363" opacity="0.85" clip-path="url(#ca)">+0.7%</text>
<text x="316.3" y="55.0" text-anchor="middle" font-size="9" fill="#FF6363" opacity="0.85" clip-path="url(#ca)">+4.0%</text>
<text x="580.5" y="55.0" text-anchor="middle" font-size="9" fill="#FF6363" opacity="0.85" clip-path="url(#ca)">+4.5%</text>
<text x="745.1" y="55.0" text-anchor="middle" font-size="9" fill="#FF6363" opacity="0.85" clip-path="url(#ca)">+0.7%</text>
<rect x="351" y="369" width="12" height="12" fill="#FF6363" rx="2"/>
<text x="367" y="379" font-size="12" fill="#111827">Extensions</text>
<text x="72" y="394" font-size="8" fill="#e5e7eb">data since Dec 11, 2025</text>
</svg>