<svg xmlns="http://www.w3.org/2000/svg" width="800" height="400" viewBox="0 0 800 400">
<defs>
  <style>text { font-family: -apple-system, BlinkMacSystemFont, 'Segoe UI', Roboto, sans-serif; }</style>
  <linearGradient id="g5" x1="0" y1="0" x2="0" y2="1">
  <stop offset="0%" stop-color="#34C759" stop-opacity="0.25"/>
  <stop offset="100%" stop-color="#34C759" stop-opacity="0"/>
</linearGradient>
<linearGradient id="g6" x1="0" y1="0" x2="0" y2="1">
  <stop offset="0%" stop-color="#4F8EF7" stop-opacity="0.25"/>
  <stop offset="100%" stop-color="#4F8EF7" stop-opacity="0"/>
</linearGradient>
<linearGradient id="g7" x1="0" y1="0" x2="0" y2="1">
  <stop offset="0%" stop-color="#FF6363" stop-opacity="0.25"/>
  <stop offset="100%" stop-color="#FF6363" stop-opacity="0"/>
</linearGradient>
  <clipPath id="ca"><rect x="72" y="45" width="698" height="295"/></clipPath>
</defs>
<rect width="800" height="400" fill="#ffffff" rx="12"/>
<text x="400" y="26" text-anchor="middle" font-size="15" font-weight="600" fill="#111827">Platform Support Over Time</text>
<line x1="72" y1="340.0" x2="770" y2="340.0" stroke="#f3f4f6" stroke-width="1"/>
<text x="66" y="344.0" text-anchor="end" font-size="11" fill="#6b7280">0</text>
<line x1="72" y1="281.0" x2="770" y2="281.0" stroke="#f3f4f6" stroke-width="1"/>
<text x="66" y="285.0" text-anchor="end" font-size="11" fill="#6b7280">200</text>
<line x1="72" y1="222.0" x2="770" y2="222.0" stroke="#f3f4f6" stroke-width="1"/>
<text x="66" y="226.0" text-anchor="end" font-size="11" fill="#6b7280">400</text>
<line x1="72" y1="163.0" x2="770" y2="163.0" stroke="#f3f4f6" stroke-width="1"/>
<text x="66" y="167.0" text-anchor="end" font-size="11" fill="#6b7280">600</text>
<line x1="72" y1="104.0" x2="770" y2="104.0" stroke="#f3f4f6" stroke-width="1"/>
<text x="66" y="108.0" text-anchor="end" font-size="11" fill="#6b7280">800</text>
<line x1="72" y1="45.0" x2="770" y2="45.0" stroke="#f3f4f6" stroke-width="1"/>
<text x="66" y="49.0" text-anchor="end" font-size="11" fill="#6b7280">1.0k</text>
<line x1="126.7" y1="45" x2="126.7" y2="340" stroke="#e5e7eb" stroke-width="1" stroke-dasharray="3,3" clip-path="url(#ca)"/>
<line x1="245.4" y1="45" x2="245.4" y2="340" stroke="#e5e7eb" stroke-width="1" stroke-dasharray="3,3" clip-path="url(#ca)"/>
<line x1="368.5" y1="45" x2="368.5" y2="340" stroke="#e5e7eb" stroke-width="1" stroke-dasharray="3,3" clip-path="url(#ca)"/>
<line x1="491.7" y1="45" x2="491.7" y2="340" stroke="#e5e7eb" stroke-width="1" stroke-dasharray="3,3" clip-path="url(#ca)"/>
<line x1="614.9" y1="45" x2="614.9" y2="340" stroke="#e5e7eb" stroke-width="1" stroke-dasharray="3,3" clip-path="url(#ca)"/>
<line x1="733.5" y1="45" x2="733.5" y2="340" stroke="#e5e7eb" stroke-width="1" stroke-dasharray="3,3" clip-path="url(#ca)"/>
<text x="72.0" y="358.0" text-anchor="middle" font-size="11" fill="#6b7280">Dec 11</text>
<text x="213.4" y="358.0" text-anchor="middle" font-size="11" fill="#6b7280">Jan 25</text>
<text x="350.3" y="358.0" text-anchor="middle" font-size="11" fill="#6b7280">Feb 25</text>
<text x="491.7" y="358.0" text-anchor="middle" font-size="11" fill="#6b7280">Apr 1</text>
<text x="628.6" y="358.0" text-anchor="middle" font-size="11" fill="#6b7280">May 6</text>
<text x="770.0" y="358.0" text-anchor="middle" font-size="11" fill="#6b7280">Jun 11</text>
<line x1="72" y1="45" x2="72" y2="340" stroke="#e5e7eb" stroke-width="1"/>
<line x1="72" y1="340" x2="770" y2="340" stroke="#e5e7eb" stroke-width="1"/>
<text x="-192.5" y="18" text-anchor="middle" font-size="12" fill="#6b7280" transform="rotate(-90)">Extensions</text>
<path d="M 72.0,340 L 72.0,242.6 L 76.6,240.0 L 81.1,239.7 L 85.7,238.5 L 90.2,237.9 L 94.8,235.0 L 99.4,233.2 L 103.9,232.3 L 108.5,230.8 L 113.1,229.1 L 117.6,228.2 L 122.2,227.9 L 126.7,227.0 L 131.3,226.4 L 135.9,226.1 L 140.4,225.2 L 145.0,224.4 L 149.6,223.5 L 154.1,222.6 L 158.7,221.4 L 163.2,220.5 L 167.8,219.6 L 172.4,218.8 L 176.9,217.0 L 181.5,216.4 L 186.1,216.4 L 190.6,214.3 L 195.2,213.7 L 199.7,213.2 L 204.3,212.6 L 208.9,211.1 L 213.4,209.0 L 218.0,208.7 L 222.5,208.4 L 227.1,206.7 L 231.7,206.1 L 236.2,204.6 L 240.8,204.3 L 245.4,204.0 L 249.9,203.4 L 254.5,203.4 L 259.0,203.4 L 263.6,199.3 L 268.2,199.0 L 272.7,198.1 L 277.3,197.8 L 281.9,197.5 L 286.4,196.6 L 291.0,196.0 L 295.5,195.4 L 300.1,193.7 L 304.7,193.7 L 309.2,193.7 L 313.8,193.4 L 318.4,190.4 L 322.9,189.6 L 327.5,189.0 L 332.0,188.1 L 336.6,187.5 L 341.2,187.5 L 345.7,186.0 L 350.3,183.9 L 354.8,183.4 L 359.4,183.1 L 364.0,182.2 L 368.5,182.2 L 373.1,181.6 L 377.7,180.7 L 382.2,180.1 L 386.8,178.9 L 391.3,177.8 L 395.9,177.5 L 400.5,177.5 L 405.0,176.3 L 409.6,176.3 L 414.2,176.3 L 418.7,174.5 L 423.3,174.2 L 427.8,173.9 L 432.4,173.9 L 437.0,173.6 L 441.5,172.4 L 446.1,171.9 L 450.7,171.0 L 455.2,171.0 L 459.8,170.7 L 464.3,169.5 L 468.9,168.6 L 473.5,168.6 L 478.0,168.3 L 482.6,167.7 L 487.2,165.7 L 491.7,165.1 L 496.3,164.2 L 500.8,164.2 L 505.4,163.6 L 510.0,163.3 L 514.5,163.0 L 519.1,162.7 L 523.6,162.4 L 528.2,162.4 L 532.8,162.1 L 537.3,161.8 L 541.9,160.9 L 546.5,159.8 L 551.0,159.5 L 555.6,158.6 L 560.1,158.6 L 564.7,157.4 L 569.3,157.1 L 573.8,157.1 L 578.4,157.1 L 583.0,156.2 L 587.5,155.9 L 592.1,155.9 L 596.6,155.9 L 601.2,155.6 L 605.8,154.4 L 610.3,154.2 L 614.9,153.3 L 619.5,152.7 L 624.0,152.7 L 628.6,151.8 L 633.1,151.2 L 637.7,151.2 L 642.3,150.9 L 646.8,149.4 L 651.4,148.0 L 655.9,147.7 L 660.5,147.1 L 665.1,145.9 L 669.6,145.9 L 674.2,145.3 L 678.8,143.8 L 683.3,141.2 L 687.9,140.3 L 692.4,140.3 L 697.0,140.3 L 701.6,140.3 L 706.1,140.3 L 710.7,139.1 L 715.3,138.2 L 719.8,138.2 L 724.4,138.2 L 728.9,138.2 L 733.5,137.3 L 738.1,137.3 L 742.6,136.5 L 747.2,135.6 L 751.8,135.3 L 756.3,135.0 L 760.9,134.4 L 765.4,134.4 L 770.0,133.5 L 770.0,340 Z" fill="url(#g5)" clip-path="url(#ca)"/>
<path d="M 72.0,242.6 L 76.6,240.0 L 81.1,239.7 L 85.7,238.5 L 90.2,237.9 L 94.8,235.0 L 99.4,233.2 L 103.9,232.3 L 108.5,230.8 L 113.1,229.1 L 117.6,228.2 L 122.2,227.9 L 126.7,227.0 L 131.3,226.4 L 135.9,226.1 L 140.4,225.2 L 145.0,224.4 L 149.6,223.5 L 154.1,222.6 L 158.7,221.4 L 163.2,220.5 L 167.8,219.6 L 172.4,218.8 L 176.9,217.0 L 181.5,216.4 L 186.1,216.4 L 190.6,214.3 L 195.2,213.7 L 199.7,213.2 L 204.3,212.6 L 208.9,211.1 L 213.4,209.0 L 218.0,208.7 L 222.5,208.4 L 227.1,206.7 L 231.7,206.1 L 236.2,204.6 L 240.8,204.3 L 245.4,204.0 L 249.9,203.4 L 254.5,203.4 L 259.0,203.4 L 263.6,199.3 L 268.2,199.0 L 272.7,198.1 L 277.3,197.8 L 281.9,197.5 L 286.4,196.6 L 291.0,196.0 L 295.5,195.4 L 300.1,193.7 L 304.7,193.7 L 309.2,193.7 L 313.8,193.4 L 318.4,190.4 L 322.9,189.6 L 327.5,189.0 L 332.0,188.1 L 336.6,187.5 L 341.2,187.5 L 345.7,186.0 L 350.3,183.9 L 354.8,183.4 L 359.4,183.1 L 364.0,182.2 L 368.5,182.2 L 373.1,181.6 L 377.7,180.7 L 382.2,180.1 L 386.8,178.9 L 391.3,177.8 L 395.9,177.5 L 400.5,177.5 L 405.0,176.3 L 409.6,176.3 L 414.2,176.3 L 418.7,174.5 L 423.3,174.2 L 427.8,173.9 L 432.4,173.9 L 437.0,173.6 L 441.5,172.4 L 446.1,171.9 L 450.7,171.0 L 455.2,171.0 L 459.8,170.7 L 464.3,169.5 L 468.9,168.6 L 473.5,168.6 L 478.0,168.3 L 482.6,167.7 L 487.2,165.7 L 491.7,165.1 L 496.3,164.2 L 500.8,164.2 L 505.4,163.6 L 510.0,163.3 L 514.5,163.0 L 519.1,162.7 L 523.6,162.4 L 528.2,162.4 L 532.8,162.1 L 537.3,161.8 L 541.9,160.9 L 546.5,159.8 L 551.0,159.5 L 555.6,158.6 L 560.1,158.6 L 564.7,157.4 L 569.3,157.1 L 573.8,157.1 L 578.4,157.1 L 583.0,156.2 L 587.5,155.9 L 592.1,155.9 L 596.6,155.9 L 601.2,155.6 L 605.8,154.4 L 610.3,154.2 L 614.9,153.3 L 619.5,152.7 L 624.0,152.7 L 628.6,151.8 L 633.1,151.2 L 637.7,151.2 L 642.3,150.9 L 646.8,149.4 L 651.4,148.0 L 655.9,147.7 L 660.5,147.1 L 665.1,145.9 L 669.6,145.9 L 674.2,145.3 L 678.8,143.8 L 683.3,141.2 L 687.9,140.3 L 692.4,140.3 L 697.0,140.3 L 701.6,140.3 L 706.1,140.3 L 710.7,139.1 L 715.3,138.2 L 719.8,138.2 L 724.4,138.2 L 728.9,138.2 L 733.5,137.3 L 738.1,137.3 L 742.6,136.5 L 747.2,135.6 L 751.8,135.3 L 756.3,135.0 L 760.9,134.4 L 765.4,134.4 L 770.0,133.5" fill="none" stroke="#34C759" stroke-width="2.5" stroke-linejoin="round" clip-path="url(#ca)"/>
<path d="M 72.0,340 L 72.0,222.6 L 76.6,222.6 L 81.1,222.3 L 85.7,221.4 L 90.2,221.7 L 94.8,221.7 L 99.4,220.5 L 103.9,219.6 L 108.5,219.6 L 113.1,219.9 L 117.6,219.6 L 122.2,219.3 L 126.7,219.1 L 131.3,219.1 L 135.9,219.1 L 140.4,219.3 L 145.0,218.8 L 149.6,218.2 L 154.1,216.4 L 158.7,215.2 L 163.2,215.2 L 167.8,214.9 L 172.4,213.2 L 176.9,210.5 L 181.5,209.6 L 186.1,209.0 L 190.6,207.0 L 195.2,205.5 L 199.7,204.9 L 204.3,204.3 L 208.9,203.7 L 213.4,203.4 L 218.0,203.4 L 222.5,201.3 L 227.1,200.8 L 231.7,200.2 L 236.2,200.2 L 240.8,198.7 L 245.4,198.4 L 249.9,197.5 L 254.5,196.3 L 259.0,194.9 L 263.6,192.8 L 268.2,190.7 L 272.7,190.4 L 277.3,189.8 L 281.9,189.3 L 286.4,187.5 L 291.0,187.5 L 295.5,186.9 L 300.1,186.0 L 304.7,185.4 L 309.2,184.2 L 313.8,184.5 L 318.4,181.0 L 322.9,180.7 L 327.5,180.4 L 332.0,179.8 L 336.6,178.0 L 341.2,178.0 L 345.7,176.3 L 350.3,174.2 L 354.8,174.2 L 359.4,174.2 L 364.0,173.9 L 368.5,173.6 L 373.1,173.3 L 377.7,171.9 L 382.2,170.1 L 386.8,169.5 L 391.3,168.3 L 395.9,168.3 L 400.5,167.4 L 405.0,165.7 L 409.6,164.8 L 414.2,164.5 L 418.7,162.4 L 423.3,162.1 L 427.8,162.1 L 432.4,161.8 L 437.0,161.8 L 441.5,160.3 L 446.1,159.8 L 450.7,158.9 L 455.2,158.6 L 459.8,158.0 L 464.3,155.6 L 468.9,152.4 L 473.5,152.1 L 478.0,151.5 L 482.6,151.2 L 487.2,149.7 L 491.7,118.5 L 496.3,117.9 L 500.8,116.4 L 505.4,116.4 L 510.0,116.4 L 514.5,116.7 L 519.1,116.4 L 523.6,114.6 L 528.2,114.0 L 532.8,113.7 L 537.3,113.4 L 541.9,112.3 L 546.5,110.5 L 551.0,110.5 L 555.6,110.5 L 560.1,110.2 L 564.7,109.9 L 569.3,109.9 L 573.8,109.3 L 578.4,108.4 L 583.0,106.9 L 587.5,106.4 L 592.1,106.1 L 596.6,106.1 L 601.2,105.8 L 605.8,105.2 L 610.3,104.9 L 614.9,103.4 L 619.5,103.4 L 624.0,102.8 L 628.6,101.6 L 633.1,100.2 L 637.7,99.9 L 642.3,99.6 L 646.8,96.9 L 651.4,96.3 L 655.9,95.7 L 660.5,95.7 L 665.1,94.6 L 669.6,94.0 L 674.2,92.5 L 678.8,91.9 L 683.3,91.0 L 687.9,90.7 L 692.4,89.5 L 697.0,88.7 L 701.6,88.4 L 706.1,87.8 L 710.7,86.6 L 715.3,86.0 L 719.8,85.1 L 724.4,84.5 L 728.9,84.2 L 733.5,83.6 L 738.1,82.8 L 742.6,82.2 L 747.2,81.6 L 751.8,80.7 L 756.3,80.7 L 760.9,80.1 L 765.4,78.6 L 770.0,77.2 L 770.0,340 Z" fill="url(#g6)" clip-path="url(#ca)"/>
<path d="M 72.0,222.6 L 76.6,222.6 L 81.1,222.3 L 85.7,221.4 L 90.2,221.7 L 94.8,221.7 L 99.4,220.5 L 103.9,219.6 L 108.5,219.6 L 113.1,219.9 L 117.6,219.6 L 122.2,219.3 L 126.7,219.1 L 131.3,219.1 L 135.9,219.1 L 140.4,219.3 L 145.0,218.8 L 149.6,218.2 L 154.1,216.4 L 158.7,215.2 L 163.2,215.2 L 167.8,214.9 L 172.4,213.2 L 176.9,210.5 L 181.5,209.6 L 186.1,209.0 L 190.6,207.0 L 195.2,205.5 L 199.7,204.9 L 204.3,204.3 L 208.9,203.7 L 213.4,203.4 L 218.0,203.4 L 222.5,201.3 L 227.1,200.8 L 231.7,200.2 L 236.2,200.2 L 240.8,198.7 L 245.4,198.4 L 249.9,197.5 L 254.5,196.3 L 259.0,194.9 L 263.6,192.8 L 268.2,190.7 L 272.7,190.4 L 277.3,189.8 L 281.9,189.3 L 286.4,187.5 L 291.0,187.5 L 295.5,186.9 L 300.1,186.0 L 304.7,185.4 L 309.2,184.2 L 313.8,184.5 L 318.4,181.0 L 322.9,180.7 L 327.5,180.4 L 332.0,179.8 L 336.6,178.0 L 341.2,178.0 L 345.7,176.3 L 350.3,174.2 L 354.8,174.2 L 359.4,174.2 L 364.0,173.9 L 368.5,173.6 L 373.1,173.3 L 377.7,171.9 L 382.2,170.1 L 386.8,169.5 L 391.3,168.3 L 395.9,168.3 L 400.5,167.4 L 405.0,165.7 L 409.6,164.8 L 414.2,164.5 L 418.7,162.4 L 423.3,162.1 L 427.8,162.1 L 432.4,161.8 L 437.0,161.8 L 441.5,160.3 L 446.1,159.8 L 450.7,158.9 L 455.2,158.6 L 459.8,158.0 L 464.3,155.6 L 468.9,152.4 L 473.5,152.1 L 478.0,151.5 L 482.6,151.2 L 487.2,149.7 L 491.7,118.5 L 496.3,117.9 L 500.8,116.4 L 505.4,116.4 L 510.0,116.4 L 514.5,116.7 L 519.1,116.4 L 523.6,114.6 L 528.2,114.0 L 532.8,113.7 L 537.3,113.4 L 541.9,112.3 L 546.5,110.5 L 551.0,110.5 L 555.6,110.5 L 560.1,110.2 L 564.7,109.9 L 569.3,109.9 L 573.8,109.3 L 578.4,108.4 L 583.0,106.9 L 587.5,106.4 L 592.1,106.1 L 596.6,106.1 L 601.2,105.8 L 605.8,105.2 L 610.3,104.9 L 614.9,103.4 L 619.5,103.4 L 624.0,102.8 L 628.6,101.6 L 633.1,100.2 L 637.7,99.9 L 642.3,99.6 L 646.8,96.9 L 651.4,96.3 L 655.9,95.7 L 660.5,95.7 L 665.1,94.6 L 669.6,94.0 L 674.2,92.5 L 678.8,91.9 L 683.3,91.0 L 687.9,90.7 L 692.4,89.5 L 697.0,88.7 L 701.6,88.4 L 706.1,87.8 L 710.7,86.6 L 715.3,86.0 L 719.8,85.1 L 724.4,84.5 L 728.9,84.2 L 733.5,83.6 L 738.1,82.8 L 742.6,82.2 L 747.2,81.6 L 751.8,80.7 L 756.3,80.7 L 760.9,80.1 L 765.4,78.6 L 770.0,77.2" fill="none" stroke="#4F8EF7" stroke-width="2.5" stroke-linejoin="round" clip-path="url(#ca)"/>
<path d="M 72.0,340 L 72.0,338.2 L 76.6,337.9 L 81.1,337.9 L 85.7,337.6 L 90.2,337.6 L 94.8,337.6 L 99.4,337.6 L 103.9,337.6 L 108.5,337.1 L 113.1,337.1 L 117.6,337.1 L 122.2,337.1 L 126.7,337.1 L 131.3,336.8 L 135.9,336.8 L 140.4,336.8 L 145.0,336.8 L 149.6,336.8 L 154.1,336.5 L 158.7,335.9 L 163.2,335.6 L 167.8,335.6 L 172.4,335.6 L 176.9,335.3 L 181.5,335.3 L 186.1,335.3 L 190.6,335.0 L 195.2,335.0 L 199.7,335.0 L 204.3,334.7 L 208.9,334.7 L 213.4,334.7 L 218.0,334.7 L 222.5,334.4 L 227.1,334.4 L 231.7,334.4 L 236.2,334.4 L 240.8,334.4 L 245.4,334.4 L 249.9,334.4 L 254.5,334.4 L 259.0,334.4 L 263.6,334.4 L 268.2,334.4 L 272.7,334.4 L 277.3,334.4 L 281.9,334.1 L 286.4,334.1 L 291.0,334.1 L 295.5,334.1 L 300.1,334.1 L 304.7,334.1 L 309.2,334.1 L 313.8,334.1 L 318.4,334.1 L 322.9,334.1 L 327.5,334.1 L 332.0,334.1 L 336.6,333.8 L 341.2,333.8 L 345.7,333.8 L 350.3,333.8 L 354.8,333.8 L 359.4,333.8 L 364.0,333.8 L 368.5,333.8 L 373.1,333.8 L 377.7,333.8 L 382.2,333.8 L 386.8,333.8 L 391.3,333.8 L 395.9,333.8 L 400.5,333.8 L 405.0,333.8 L 409.6,333.8 L 414.2,333.8 L 418.7,333.8 L 423.3,333.8 L 427.8,333.8 L 432.4,333.8 L 437.0,333.8 L 441.5,333.8 L 446.1,333.8 L 450.7,333.8 L 455.2,333.8 L 459.8,333.8 L 464.3,333.8 L 468.9,333.8 L 473.5,333.8 L 478.0,333.8 L 482.6,333.8 L 487.2,333.8 L 491.7,333.8 L 496.3,333.8 L 500.8,333.5 L 505.4,333.5 L 510.0,333.5 L 514.5,333.5 L 519.1,333.5 L 523.6,333.2 L 528.2,333.2 L 532.8,333.2 L 537.3,333.2 L 541.9,332.9 L 546.5,332.9 L 551.0,332.6 L 555.6,332.6 L 560.1,332.6 L 564.7,332.6 L 569.3,332.6 L 573.8,332.6 L 578.4,332.6 L 583.0,332.6 L 587.5,332.6 L 592.1,332.6 L 596.6,332.6 L 601.2,332.6 L 605.8,332.6 L 610.3,332.6 L 614.9,332.6 L 619.5,332.6 L 624.0,332.6 L 628.6,332.6 L 633.1,332.6 L 637.7,332.6 L 642.3,332.6 L 646.8,332.6 L 651.4,332.6 L 655.9,332.6 L 660.5,332.6 L 665.1,332.6 L 669.6,332.6 L 674.2,332.6 L 678.8,332.6 L 683.3,332.6 L 687.9,332.6 L 692.4,332.6 L 697.0,332.6 L 701.6,332.6 L 706.1,332.6 L 710.7,332.6 L 715.3,332.6 L 719.8,332.6 L 724.4,332.6 L 728.9,332.6 L 733.5,332.6 L 738.1,332.6 L 742.6,332.6 L 747.2,332.6 L 751.8,332.6 L 756.3,332.6 L 760.9,332.6 L 765.4,332.6 L 770.0,332.3 L 770.0,340 Z" fill="url(#g7)" clip-path="url(#ca)"/>
<path d="M 72.0,338.2 L 76.6,337.9 L 81.1,337.9 L 85.7,337.6 L 90.2,337.6 L 94.8,337.6 L 99.4,337.6 L 103.9,337.6 L 108.5,337.1 L 113.1,337.1 L 117.6,337.1 L 122.2,337.1 L 126.7,337.1 L 131.3,336.8 L 135.9,336.8 L 140.4,336.8 L 145.0,336.8 L 149.6,336.8 L 154.1,336.5 L 158.7,335.9 L 163.2,335.6 L 167.8,335.6 L 172.4,335.6 L 176.9,335.3 L 181.5,335.3 L 186.1,335.3 L 190.6,335.0 L 195.2,335.0 L 199.7,335.0 L 204.3,334.7 L 208.9,334.7 L 213.4,334.7 L 218.0,334.7 L 222.5,334.4 L 227.1,334.4 L 231.7,334.4 L 236.2,334.4 L 240.8,334.4 L 245.4,334.4 L 249.9,334.4 L 254.5,334.4 L 259.0,334.4 L 263.6,334.4 L 268.2,334.4 L 272.7,334.4 L 277.3,334.4 L 281.9,334.1 L 286.4,334.1 L 291.0,334.1 L 295.5,334.1 L 300.1,334.1 L 304.7,334.1 L 309.2,334.1 L 313.8,334.1 L 318.4,334.1 L 322.9,334.1 L 327.5,334.1 L 332.0,334.1 L 336.6,333.8 L 341.2,333.8 L 345.7,333.8 L 350.3,333.8 L 354.8,333.8 L 359.4,333.8 L 364.0,333.8 L 368.5,333.8 L 373.1,333.8 L 377.7,333.8 L 382.2,333.8 L 386.8,333.8 L 391.3,333.8 L 395.9,333.8 L 400.5,333.8 L 405.0,333.8 L 409.6,333.8 L 414.2,333.8 L 418.7,333.8 L 423.3,333.8 L 427.8,333.8 L 432.4,333.8 L 437.0,333.8 L 441.5,333.8 L 446.1,333.8 L 450.7,333.8 L 455.2,333.8 L 459.8,333.8 L 464.3,333.8 L 468.9,333.8 L 473.5,333.8 L 478.0,333.8 L 482.6,333.8 L 487.2,333.8 L 491.7,333.8 L 496.3,333.8 L 500.8,333.5 L 505.4,333.5 L 510.0,333.5 L 514.5,333.5 L 519.1,333.5 L 523.6,333.2 L 528.2,333.2 L 532.8,333.2 L 537.3,333.2 L 541.9,332.9 L 546.5,332.9 L 551.0,332.6 L 555.6,332.6 L 560.1,332.6 L 564.7,332.6 L 569.3,332.6 L 573.8,332.6 L 578.4,332.6 L 583.0,332.6 L 587.5,332.6 L 592.1,332.6 L 596.6,332.6 L 601.2,332.6 L 605.8,332.6 L 610.3,332.6 L 614.9,332.6 L 619.5,332.6 L 624.0,332.6 L 628.6,332.6 L 633.1,332.6 L 637.7,332.6 L 642.3,332.6 L 646.8,332.6 L 651.4,332.6 L 655.9,332.6 L 660.5,332.6 L 665.1,332.6 L 669.6,332.6 L 674.2,332.6 L 678.8,332.6 L 683.3,332.6 L 687.9,332.6 L 692.4,332.6 L 697.0,332.6 L 701.6,332.6 L 706.1,332.6 L 710.7,332.6 L 715.3,332.6 L 719.8,332.6 L 724.4,332.6 L 728.9,332.6 L 733.5,332.6 L 738.1,332.6 L 742.6,332.6 L 747.2,332.6 L 751.8,332.6 L 756.3,332.6 L 760.9,332.6 L 765.4,332.6 L 770.0,332.3" fill="none" stroke="#FF6363" stroke-width="2.5" stroke-linejoin="round" clip-path="url(#ca)"/>
<text x="97.1" y="55.0" text-anchor="middle" font-size="9" fill="#34C759" opacity="0.85" clip-path="url(#ca)">+15.2% (+50)</text>
<text x="97.1" y="66.0" text-anchor="middle" font-size="9" fill="#4F8EF7" opacity="0.85" clip-path="url(#ca)">+2.8% (+11)</text>
<text x="97.1" y="77.0" text-anchor="middle" font-size="9" fill="#FF6363" opacity="0.85" clip-path="url(#ca)">+66.7% (+4)</text>
<text x="183.8" y="55.0" text-anchor="middle" font-size="9" fill="#34C759" opacity="0.85" clip-path="url(#ca)">+20.1% (+77)</text>
<text x="183.8" y="66.0" text-anchor="middle" font-size="9" fill="#4F8EF7" opacity="0.85" clip-path="url(#ca)">+16.8% (+69)</text>
<text x="183.8" y="77.0" text-anchor="middle" font-size="9" fill="#FF6363" opacity="0.85" clip-path="url(#ca)">+90.0% (+9)</text>
<text x="304.7" y="55.0" text-anchor="middle" font-size="9" fill="#34C759" opacity="0.85" clip-path="url(#ca)">+16.1% (+74)</text>
<text x="304.7" y="66.0" text-anchor="middle" font-size="9" fill="#4F8EF7" opacity="0.85" clip-path="url(#ca)">+17.3% (+83)</text>
<text x="304.7" y="77.0" text-anchor="middle" font-size="9" fill="#FF6363" opacity="0.85" clip-path="url(#ca)">+10.5% (+2)</text>
<text x="427.8" y="55.0" text-anchor="middle" font-size="9" fill="#34C759" opacity="0.85" clip-path="url(#ca)">+10.5% (+56)</text>
<text x="427.8" y="66.0" text-anchor="middle" font-size="9" fill="#4F8EF7" opacity="0.85" clip-path="url(#ca)">+14.4% (+81)</text>
<text x="427.8" y="77.0" text-anchor="middle" font-size="9" fill="#FF6363" opacity="0.85" clip-path="url(#ca)">+0.0% (+0)</text>
<text x="551.0" y="55.0" text-anchor="middle" font-size="9" fill="#34C759" opacity="0.85" clip-path="url(#ca)">+6.2% (+37)</text>
<text x="551.0" y="66.0" text-anchor="middle" font-size="9" fill="#4F8EF7" opacity="0.85" clip-path="url(#ca)">+6.1% (+46)</text>
<text x="551.0" y="77.0" text-anchor="middle" font-size="9" fill="#FF6363" opacity="0.85" clip-path="url(#ca)">+19.0% (+4)</text>
<text x="671.9" y="55.0" text-anchor="middle" font-size="9" fill="#34C759" opacity="0.85" clip-path="url(#ca)">+8.1% (+51)</text>
<text x="671.9" y="66.0" text-anchor="middle" font-size="9" fill="#4F8EF7" opacity="0.85" clip-path="url(#ca)">+8.1% (+65)</text>
<text x="671.9" y="77.0" text-anchor="middle" font-size="9" fill="#FF6363" opacity="0.85" clip-path="url(#ca)">+0.0% (+0)</text>
<text x="751.8" y="55.0" text-anchor="middle" font-size="9" fill="#34C759" opacity="0.85" clip-path="url(#ca)">+1.9% (+13)</text>
<text x="751.8" y="66.0" text-anchor="middle" font-size="9" fill="#4F8EF7" opacity="0.85" clip-path="url(#ca)">+2.5% (+22)</text>
<text x="751.8" y="77.0" text-anchor="middle" font-size="9" fill="#FF6363" opacity="0.85" clip-path="url(#ca)">+4.0% (+1)</text>
<rect x="211" y="369" width="12" height="12" fill="#34C759" rx="2"/>
<text x="227" y="379" font-size="12" fill="#111827">macOS + Windows</text>
<rect x="351" y="369" width="12" height="12" fill="#4F8EF7" rx="2"/>
<text x="367" y="379" font-size="12" fill="#111827">macOS only</text>
<rect x="491" y="369" width="12" height="12" fill="#FF6363" rx="2"/>
<text x="507" y="379" font-size="12" fill="#111827">Windows only</text>
<text x="72" y="394" font-size="8" fill="#e5e7eb">data since Dec 11, 2025</text>
</svg>