<svg xmlns="http://www.w3.org/2000/svg" width="800" height="400" viewBox="0 0 800 400">
<defs>
  <style>text { font-family: -apple-system, BlinkMacSystemFont, 'Segoe UI', Roboto, sans-serif; }</style>
  <linearGradient id="g5" x1="0" y1="0" x2="0" y2="1">
  <stop offset="0%" stop-color="#34C759" stop-opacity="0.25"/>
  <stop offset="100%" stop-color="#34C759" stop-opacity="0"/>
</linearGradient>
<linearGradient id="g6" x1="0" y1="0" x2="0" y2="1">
  <stop offset="0%" stop-color="#4F8EF7" stop-opacity="0.25"/>
  <stop offset="100%" stop-color="#4F8EF7" stop-opacity="0"/>
</linearGradient>
<linearGradient id="g7" x1="0" y1="0" x2="0" y2="1">
  <stop offset="0%" stop-color="#FF6363" stop-opacity="0.25"/>
  <stop offset="100%" stop-color="#FF6363" stop-opacity="0"/>
</linearGradient>
  <clipPath id="ca"><rect x="72" y="45" width="698" height="295"/></clipPath>
</defs>
<rect width="800" height="400" fill="#ffffff" rx="12"/>
<text x="400" y="26" text-anchor="middle" font-size="15" font-weight="600" fill="#111827">Platform Support Over Time</text>
<line x1="72" y1="340.0" x2="770" y2="340.0" stroke="#f3f4f6" stroke-width="1"/>
<text x="66" y="344.0" text-anchor="end" font-size="11" fill="#6b7280">0</text>
<line x1="72" y1="266.3" x2="770" y2="266.3" stroke="#f3f4f6" stroke-width="1"/>
<text x="66" y="270.3" text-anchor="end" font-size="11" fill="#6b7280">200</text>
<line x1="72" y1="192.5" x2="770" y2="192.5" stroke="#f3f4f6" stroke-width="1"/>
<text x="66" y="196.5" text-anchor="end" font-size="11" fill="#6b7280">400</text>
<line x1="72" y1="118.8" x2="770" y2="118.8" stroke="#f3f4f6" stroke-width="1"/>
<text x="66" y="122.8" text-anchor="end" font-size="11" fill="#6b7280">600</text>
<line x1="72" y1="45.0" x2="770" y2="45.0" stroke="#f3f4f6" stroke-width="1"/>
<text x="66" y="49.0" text-anchor="end" font-size="11" fill="#6b7280">800</text>
<line x1="151.0" y1="45" x2="151.0" y2="340" stroke="#e5e7eb" stroke-width="1" stroke-dasharray="3,3" clip-path="url(#ca)"/>
<line x1="322.2" y1="45" x2="322.2" y2="340" stroke="#e5e7eb" stroke-width="1" stroke-dasharray="3,3" clip-path="url(#ca)"/>
<line x1="500.0" y1="45" x2="500.0" y2="340" stroke="#e5e7eb" stroke-width="1" stroke-dasharray="3,3" clip-path="url(#ca)"/>
<line x1="677.8" y1="45" x2="677.8" y2="340" stroke="#e5e7eb" stroke-width="1" stroke-dasharray="3,3" clip-path="url(#ca)"/>
<text x="72.0" y="358.0" text-anchor="middle" font-size="11" fill="#6b7280">Dec 11</text>
<text x="210.3" y="358.0" text-anchor="middle" font-size="11" fill="#6b7280">Jan 14</text>
<text x="348.6" y="358.0" text-anchor="middle" font-size="11" fill="#6b7280">Feb 5</text>
<text x="493.4" y="358.0" text-anchor="middle" font-size="11" fill="#6b7280">Feb 28</text>
<text x="631.7" y="358.0" text-anchor="middle" font-size="11" fill="#6b7280">Mar 23</text>
<text x="770.0" y="358.0" text-anchor="middle" font-size="11" fill="#6b7280">Apr 16</text>
<line x1="72" y1="45" x2="72" y2="340" stroke="#e5e7eb" stroke-width="1"/>
<line x1="72" y1="340" x2="770" y2="340" stroke="#e5e7eb" stroke-width="1"/>
<text x="-192.5" y="18" text-anchor="middle" font-size="12" fill="#6b7280" transform="rotate(-90)">Extensions</text>
<path d="M 72.0,340 L 72.0,218.3 L 78.6,215.0 L 85.2,214.6 L 91.8,213.2 L 98.3,212.4 L 104.9,208.7 L 111.5,206.5 L 118.1,205.4 L 124.7,203.6 L 131.3,201.3 L 137.8,200.2 L 144.4,199.9 L 151.0,198.8 L 157.6,198.0 L 164.2,197.7 L 170.8,196.6 L 177.4,195.4 L 183.9,194.3 L 190.5,193.2 L 197.1,191.8 L 203.7,190.7 L 210.3,189.6 L 216.9,188.4 L 223.5,186.2 L 230.0,185.5 L 236.6,185.5 L 243.2,182.9 L 249.8,182.2 L 256.4,181.4 L 263.0,180.7 L 269.5,178.9 L 276.1,176.3 L 282.7,175.9 L 289.3,175.5 L 295.9,173.3 L 302.5,172.6 L 309.1,170.7 L 315.6,170.4 L 322.2,170.0 L 328.8,169.3 L 335.4,169.3 L 342.0,169.3 L 348.6,164.1 L 355.2,163.7 L 361.7,162.6 L 368.3,162.3 L 374.9,161.9 L 381.5,160.8 L 388.1,160.1 L 394.7,159.3 L 401.2,157.1 L 407.8,157.1 L 414.4,157.1 L 421.0,156.7 L 427.6,153.0 L 434.2,151.9 L 440.8,151.2 L 447.3,150.1 L 453.9,149.4 L 460.5,149.4 L 467.1,147.5 L 473.7,144.9 L 480.3,144.2 L 486.8,143.8 L 493.4,142.7 L 500.0,142.7 L 506.6,142.0 L 513.2,140.9 L 519.8,140.1 L 526.4,138.7 L 532.9,137.2 L 539.5,136.8 L 546.1,136.8 L 552.7,135.3 L 559.3,135.3 L 565.9,135.3 L 572.5,133.1 L 579.0,132.8 L 585.6,132.4 L 592.2,132.4 L 598.8,132.0 L 605.4,130.6 L 612.0,129.8 L 618.5,128.7 L 625.1,128.7 L 631.7,128.3 L 638.3,126.9 L 644.9,125.8 L 651.5,125.8 L 658.1,125.4 L 664.6,124.7 L 671.2,122.1 L 677.8,121.3 L 684.4,120.2 L 691.0,120.2 L 697.6,119.5 L 704.2,119.1 L 710.7,118.8 L 717.3,118.4 L 723.9,118.0 L 730.5,118.0 L 737.1,117.6 L 743.7,117.3 L 750.2,116.2 L 756.8,114.7 L 763.4,114.3 L 770.0,113.2 L 770.0,340 Z" fill="url(#g5)" clip-path="url(#ca)"/>
<path d="M 72.0,218.3 L 78.6,215.0 L 85.2,214.6 L 91.8,213.2 L 98.3,212.4 L 104.9,208.7 L 111.5,206.5 L 118.1,205.4 L 124.7,203.6 L 131.3,201.3 L 137.8,200.2 L 144.4,199.9 L 151.0,198.8 L 157.6,198.0 L 164.2,197.7 L 170.8,196.6 L 177.4,195.4 L 183.9,194.3 L 190.5,193.2 L 197.1,191.8 L 203.7,190.7 L 210.3,189.6 L 216.9,188.4 L 223.5,186.2 L 230.0,185.5 L 236.6,185.5 L 243.2,182.9 L 249.8,182.2 L 256.4,181.4 L 263.0,180.7 L 269.5,178.9 L 276.1,176.3 L 282.7,175.9 L 289.3,175.5 L 295.9,173.3 L 302.5,172.6 L 309.1,170.7 L 315.6,170.4 L 322.2,170.0 L 328.8,169.3 L 335.4,169.3 L 342.0,169.3 L 348.6,164.1 L 355.2,163.7 L 361.7,162.6 L 368.3,162.3 L 374.9,161.9 L 381.5,160.8 L 388.1,160.1 L 394.7,159.3 L 401.2,157.1 L 407.8,157.1 L 414.4,157.1 L 421.0,156.7 L 427.6,153.0 L 434.2,151.9 L 440.8,151.2 L 447.3,150.1 L 453.9,149.4 L 460.5,149.4 L 467.1,147.5 L 473.7,144.9 L 480.3,144.2 L 486.8,143.8 L 493.4,142.7 L 500.0,142.7 L 506.6,142.0 L 513.2,140.9 L 519.8,140.1 L 526.4,138.7 L 532.9,137.2 L 539.5,136.8 L 546.1,136.8 L 552.7,135.3 L 559.3,135.3 L 565.9,135.3 L 572.5,133.1 L 579.0,132.8 L 585.6,132.4 L 592.2,132.4 L 598.8,132.0 L 605.4,130.6 L 612.0,129.8 L 618.5,128.7 L 625.1,128.7 L 631.7,128.3 L 638.3,126.9 L 644.9,125.8 L 651.5,125.8 L 658.1,125.4 L 664.6,124.7 L 671.2,122.1 L 677.8,121.3 L 684.4,120.2 L 691.0,120.2 L 697.6,119.5 L 704.2,119.1 L 710.7,118.8 L 717.3,118.4 L 723.9,118.0 L 730.5,118.0 L 737.1,117.6 L 743.7,117.3 L 750.2,116.2 L 756.8,114.7 L 763.4,114.3 L 770.0,113.2" fill="none" stroke="#34C759" stroke-width="2.5" stroke-linejoin="round" clip-path="url(#ca)"/>
<path d="M 72.0,340 L 72.0,193.2 L 78.6,193.2 L 85.2,192.9 L 91.8,191.8 L 98.3,192.1 L 104.9,192.1 L 111.5,190.7 L 118.1,189.6 L 124.7,189.6 L 131.3,189.9 L 137.8,189.6 L 144.4,189.2 L 151.0,188.8 L 157.6,188.8 L 164.2,188.8 L 170.8,189.2 L 177.4,188.4 L 183.9,187.7 L 190.5,185.5 L 197.1,184.0 L 203.7,184.0 L 210.3,183.7 L 216.9,181.4 L 223.5,178.1 L 230.0,177.0 L 236.6,176.3 L 243.2,173.7 L 249.8,171.9 L 256.4,171.1 L 263.0,170.4 L 269.5,169.6 L 276.1,169.3 L 282.7,169.3 L 289.3,166.7 L 295.9,166.0 L 302.5,165.2 L 309.1,165.2 L 315.6,163.4 L 322.2,163.0 L 328.8,161.9 L 335.4,160.4 L 342.0,158.6 L 348.6,156.0 L 355.2,153.4 L 361.7,153.0 L 368.3,152.3 L 374.9,151.6 L 381.5,149.4 L 388.1,149.4 L 394.7,148.6 L 401.2,147.5 L 407.8,146.8 L 414.4,145.3 L 421.0,145.7 L 427.6,141.2 L 434.2,140.9 L 440.8,140.5 L 447.3,139.8 L 453.9,137.6 L 460.5,137.6 L 467.1,135.3 L 473.7,132.8 L 480.3,132.8 L 486.8,132.8 L 493.4,132.4 L 500.0,132.0 L 506.6,131.7 L 513.2,129.8 L 519.8,127.6 L 526.4,126.9 L 532.9,125.4 L 539.5,125.4 L 546.1,124.3 L 552.7,122.1 L 559.3,121.0 L 565.9,120.6 L 572.5,118.0 L 579.0,117.6 L 585.6,117.6 L 592.2,117.3 L 598.8,117.3 L 605.4,115.4 L 612.0,114.7 L 618.5,113.6 L 625.1,113.2 L 631.7,112.5 L 638.3,109.5 L 644.9,105.5 L 651.5,105.1 L 658.1,104.4 L 664.6,104.0 L 671.2,102.2 L 677.8,63.1 L 684.4,62.3 L 691.0,60.5 L 697.6,60.5 L 704.2,60.5 L 710.7,60.9 L 717.3,60.5 L 723.9,58.3 L 730.5,57.5 L 737.1,57.2 L 743.7,56.8 L 750.2,55.3 L 756.8,53.1 L 763.4,53.1 L 770.0,53.1 L 770.0,340 Z" fill="url(#g6)" clip-path="url(#ca)"/>
<path d="M 72.0,193.2 L 78.6,193.2 L 85.2,192.9 L 91.8,191.8 L 98.3,192.1 L 104.9,192.1 L 111.5,190.7 L 118.1,189.6 L 124.7,189.6 L 131.3,189.9 L 137.8,189.6 L 144.4,189.2 L 151.0,188.8 L 157.6,188.8 L 164.2,188.8 L 170.8,189.2 L 177.4,188.4 L 183.9,187.7 L 190.5,185.5 L 197.1,184.0 L 203.7,184.0 L 210.3,183.7 L 216.9,181.4 L 223.5,178.1 L 230.0,177.0 L 236.6,176.3 L 243.2,173.7 L 249.8,171.9 L 256.4,171.1 L 263.0,170.4 L 269.5,169.6 L 276.1,169.3 L 282.7,169.3 L 289.3,166.7 L 295.9,166.0 L 302.5,165.2 L 309.1,165.2 L 315.6,163.4 L 322.2,163.0 L 328.8,161.9 L 335.4,160.4 L 342.0,158.6 L 348.6,156.0 L 355.2,153.4 L 361.7,153.0 L 368.3,152.3 L 374.9,151.6 L 381.5,149.4 L 388.1,149.4 L 394.7,148.6 L 401.2,147.5 L 407.8,146.8 L 414.4,145.3 L 421.0,145.7 L 427.6,141.2 L 434.2,140.9 L 440.8,140.5 L 447.3,139.8 L 453.9,137.6 L 460.5,137.6 L 467.1,135.3 L 473.7,132.8 L 480.3,132.8 L 486.8,132.8 L 493.4,132.4 L 500.0,132.0 L 506.6,131.7 L 513.2,129.8 L 519.8,127.6 L 526.4,126.9 L 532.9,125.4 L 539.5,125.4 L 546.1,124.3 L 552.7,122.1 L 559.3,121.0 L 565.9,120.6 L 572.5,118.0 L 579.0,117.6 L 585.6,117.6 L 592.2,117.3 L 598.8,117.3 L 605.4,115.4 L 612.0,114.7 L 618.5,113.6 L 625.1,113.2 L 631.7,112.5 L 638.3,109.5 L 644.9,105.5 L 651.5,105.1 L 658.1,104.4 L 664.6,104.0 L 671.2,102.2 L 677.8,63.1 L 684.4,62.3 L 691.0,60.5 L 697.6,60.5 L 704.2,60.5 L 710.7,60.9 L 717.3,60.5 L 723.9,58.3 L 730.5,57.5 L 737.1,57.2 L 743.7,56.8 L 750.2,55.3 L 756.8,53.1 L 763.4,53.1 L 770.0,53.1" fill="none" stroke="#4F8EF7" stroke-width="2.5" stroke-linejoin="round" clip-path="url(#ca)"/>
<path d="M 72.0,340 L 72.0,337.8 L 78.6,337.4 L 85.2,337.4 L 91.8,337.1 L 98.3,337.1 L 104.9,337.1 L 111.5,337.1 L 118.1,337.1 L 124.7,336.3 L 131.3,336.3 L 137.8,336.3 L 144.4,336.3 L 151.0,336.3 L 157.6,335.9 L 164.2,335.9 L 170.8,335.9 L 177.4,335.9 L 183.9,335.9 L 190.5,335.6 L 197.1,334.8 L 203.7,334.5 L 210.3,334.5 L 216.9,334.5 L 223.5,334.1 L 230.0,334.1 L 236.6,334.1 L 243.2,333.7 L 249.8,333.7 L 256.4,333.7 L 263.0,333.4 L 269.5,333.4 L 276.1,333.4 L 282.7,333.4 L 289.3,333.0 L 295.9,333.0 L 302.5,333.0 L 309.1,333.0 L 315.6,333.0 L 322.2,333.0 L 328.8,333.0 L 335.4,333.0 L 342.0,333.0 L 348.6,333.0 L 355.2,333.0 L 361.7,333.0 L 368.3,333.0 L 374.9,332.6 L 381.5,332.6 L 388.1,332.6 L 394.7,332.6 L 401.2,332.6 L 407.8,332.6 L 414.4,332.6 L 421.0,332.6 L 427.6,332.6 L 434.2,332.6 L 440.8,332.6 L 447.3,332.6 L 453.9,332.3 L 460.5,332.3 L 467.1,332.3 L 473.7,332.3 L 480.3,332.3 L 486.8,332.3 L 493.4,332.3 L 500.0,332.3 L 506.6,332.3 L 513.2,332.3 L 519.8,332.3 L 526.4,332.3 L 532.9,332.3 L 539.5,332.3 L 546.1,332.3 L 552.7,332.3 L 559.3,332.3 L 565.9,332.3 L 572.5,332.3 L 579.0,332.3 L 585.6,332.3 L 592.2,332.3 L 598.8,332.3 L 605.4,332.3 L 612.0,332.3 L 618.5,332.3 L 625.1,332.3 L 631.7,332.3 L 638.3,332.3 L 644.9,332.3 L 651.5,332.3 L 658.1,332.3 L 664.6,332.3 L 671.2,332.3 L 677.8,332.3 L 684.4,332.3 L 691.0,331.9 L 697.6,331.9 L 704.2,331.9 L 710.7,331.9 L 717.3,331.9 L 723.9,331.5 L 730.5,331.5 L 737.1,331.5 L 743.7,331.5 L 750.2,331.1 L 756.8,331.1 L 763.4,330.8 L 770.0,330.8 L 770.0,340 Z" fill="url(#g7)" clip-path="url(#ca)"/>
<path d="M 72.0,337.8 L 78.6,337.4 L 85.2,337.4 L 91.8,337.1 L 98.3,337.1 L 104.9,337.1 L 111.5,337.1 L 118.1,337.1 L 124.7,336.3 L 131.3,336.3 L 137.8,336.3 L 144.4,336.3 L 151.0,336.3 L 157.6,335.9 L 164.2,335.9 L 170.8,335.9 L 177.4,335.9 L 183.9,335.9 L 190.5,335.6 L 197.1,334.8 L 203.7,334.5 L 210.3,334.5 L 216.9,334.5 L 223.5,334.1 L 230.0,334.1 L 236.6,334.1 L 243.2,333.7 L 249.8,333.7 L 256.4,333.7 L 263.0,333.4 L 269.5,333.4 L 276.1,333.4 L 282.7,333.4 L 289.3,333.0 L 295.9,333.0 L 302.5,333.0 L 309.1,333.0 L 315.6,333.0 L 322.2,333.0 L 328.8,333.0 L 335.4,333.0 L 342.0,333.0 L 348.6,333.0 L 355.2,333.0 L 361.7,333.0 L 368.3,333.0 L 374.9,332.6 L 381.5,332.6 L 388.1,332.6 L 394.7,332.6 L 401.2,332.6 L 407.8,332.6 L 414.4,332.6 L 421.0,332.6 L 427.6,332.6 L 434.2,332.6 L 440.8,332.6 L 447.3,332.6 L 453.9,332.3 L 460.5,332.3 L 467.1,332.3 L 473.7,332.3 L 480.3,332.3 L 486.8,332.3 L 493.4,332.3 L 500.0,332.3 L 506.6,332.3 L 513.2,332.3 L 519.8,332.3 L 526.4,332.3 L 532.9,332.3 L 539.5,332.3 L 546.1,332.3 L 552.7,332.3 L 559.3,332.3 L 565.9,332.3 L 572.5,332.3 L 579.0,332.3 L 585.6,332.3 L 592.2,332.3 L 598.8,332.3 L 605.4,332.3 L 612.0,332.3 L 618.5,332.3 L 625.1,332.3 L 631.7,332.3 L 638.3,332.3 L 644.9,332.3 L 651.5,332.3 L 658.1,332.3 L 664.6,332.3 L 671.2,332.3 L 677.8,332.3 L 684.4,332.3 L 691.0,331.9 L 697.6,331.9 L 704.2,331.9 L 710.7,331.9 L 717.3,331.9 L 723.9,331.5 L 730.5,331.5 L 737.1,331.5 L 743.7,331.5 L 750.2,331.1 L 756.8,331.1 L 763.4,330.8 L 770.0,330.8" fill="none" stroke="#FF6363" stroke-width="2.5" stroke-linejoin="round" clip-path="url(#ca)"/>
<text x="108.2" y="55.0" text-anchor="middle" font-size="9" fill="#34C759" opacity="0.85" clip-path="url(#ca)">+15.2% (+50)</text>
<text x="108.2" y="66.0" text-anchor="middle" font-size="9" fill="#4F8EF7" opacity="0.85" clip-path="url(#ca)">+2.8% (+11)</text>
<text x="108.2" y="77.0" text-anchor="middle" font-size="9" fill="#FF6363" opacity="0.85" clip-path="url(#ca)">+66.7% (+4)</text>
<text x="233.3" y="55.0" text-anchor="middle" font-size="9" fill="#34C759" opacity="0.85" clip-path="url(#ca)">+20.1% (+77)</text>
<text x="233.3" y="66.0" text-anchor="middle" font-size="9" fill="#4F8EF7" opacity="0.85" clip-path="url(#ca)">+16.8% (+69)</text>
<text x="233.3" y="77.0" text-anchor="middle" font-size="9" fill="#FF6363" opacity="0.85" clip-path="url(#ca)">+90.0% (+9)</text>
<text x="407.8" y="55.0" text-anchor="middle" font-size="9" fill="#34C759" opacity="0.85" clip-path="url(#ca)">+16.1% (+74)</text>
<text x="407.8" y="66.0" text-anchor="middle" font-size="9" fill="#4F8EF7" opacity="0.85" clip-path="url(#ca)">+17.3% (+83)</text>
<text x="407.8" y="77.0" text-anchor="middle" font-size="9" fill="#FF6363" opacity="0.85" clip-path="url(#ca)">+10.5% (+2)</text>
<text x="585.6" y="55.0" text-anchor="middle" font-size="9" fill="#34C759" opacity="0.85" clip-path="url(#ca)">+10.5% (+56)</text>
<text x="585.6" y="66.0" text-anchor="middle" font-size="9" fill="#4F8EF7" opacity="0.85" clip-path="url(#ca)">+14.4% (+81)</text>
<text x="585.6" y="77.0" text-anchor="middle" font-size="9" fill="#FF6363" opacity="0.85" clip-path="url(#ca)">+0.0% (+0)</text>
<text x="723.9" y="55.0" text-anchor="middle" font-size="9" fill="#34C759" opacity="0.85" clip-path="url(#ca)">+3.7% (+22)</text>
<text x="723.9" y="66.0" text-anchor="middle" font-size="9" fill="#4F8EF7" opacity="0.85" clip-path="url(#ca)">+3.6% (+27)</text>
<text x="723.9" y="77.0" text-anchor="middle" font-size="9" fill="#FF6363" opacity="0.85" clip-path="url(#ca)">+19.0% (+4)</text>
<rect x="211" y="369" width="12" height="12" fill="#34C759" rx="2"/>
<text x="227" y="379" font-size="12" fill="#111827">macOS + Windows</text>
<rect x="351" y="369" width="12" height="12" fill="#4F8EF7" rx="2"/>
<text x="367" y="379" font-size="12" fill="#111827">macOS only</text>
<rect x="491" y="369" width="12" height="12" fill="#FF6363" rx="2"/>
<text x="507" y="379" font-size="12" fill="#111827">Windows only</text>
<text x="72" y="394" font-size="8" fill="#e5e7eb">data since Dec 11, 2025</text>
</svg>