<svg xmlns="http://www.w3.org/2000/svg" width="800" height="400" viewBox="0 0 800 400">
<defs>
  <style>text { font-family: -apple-system, BlinkMacSystemFont, 'Segoe UI', Roboto, sans-serif; }</style>
  <linearGradient id="g1" x1="0" y1="0" x2="0" y2="1">
  <stop offset="0%" stop-color="#FF6363" stop-opacity="0.25"/>
  <stop offset="100%" stop-color="#FF6363" stop-opacity="0"/>
</linearGradient>
  <clipPath id="ca"><rect x="72" y="45" width="698" height="295"/></clipPath>
</defs>
<rect width="800" height="400" fill="#ffffff" rx="12"/>
<text x="400" y="26" text-anchor="middle" font-size="15" font-weight="600" fill="#111827">Packages Growth Over Time</text>
<line x1="72" y1="340.0" x2="770" y2="340.0" stroke="#f3f4f6" stroke-width="1"/>
<text x="66" y="344.0" text-anchor="end" font-size="11" fill="#6b7280">2.4k</text>
<line x1="72" y1="281.0" x2="770" y2="281.0" stroke="#f3f4f6" stroke-width="1"/>
<text x="66" y="285.0" text-anchor="end" font-size="11" fill="#6b7280">2.5k</text>
<line x1="72" y1="222.0" x2="770" y2="222.0" stroke="#f3f4f6" stroke-width="1"/>
<text x="66" y="226.0" text-anchor="end" font-size="11" fill="#6b7280">2.6k</text>
<line x1="72" y1="163.0" x2="770" y2="163.0" stroke="#f3f4f6" stroke-width="1"/>
<text x="66" y="167.0" text-anchor="end" font-size="11" fill="#6b7280">2.7k</text>
<line x1="72" y1="104.0" x2="770" y2="104.0" stroke="#f3f4f6" stroke-width="1"/>
<text x="66" y="108.0" text-anchor="end" font-size="11" fill="#6b7280">2.8k</text>
<line x1="72" y1="45.0" x2="770" y2="45.0" stroke="#f3f4f6" stroke-width="1"/>
<text x="66" y="49.0" text-anchor="end" font-size="11" fill="#6b7280">2.9k</text>
<line x1="146.1" y1="45" x2="146.1" y2="340" stroke="#e5e7eb" stroke-width="1" stroke-dasharray="3,3" clip-path="url(#ca)"/>
<line x1="306.7" y1="45" x2="306.7" y2="340" stroke="#e5e7eb" stroke-width="1" stroke-dasharray="3,3" clip-path="url(#ca)"/>
<line x1="473.5" y1="45" x2="473.5" y2="340" stroke="#e5e7eb" stroke-width="1" stroke-dasharray="3,3" clip-path="url(#ca)"/>
<line x1="640.3" y1="45" x2="640.3" y2="340" stroke="#e5e7eb" stroke-width="1" stroke-dasharray="3,3" clip-path="url(#ca)"/>
<text x="72.0" y="358.0" text-anchor="middle" font-size="11" fill="#6b7280">Dec 11</text>
<text x="214.1" y="358.0" text-anchor="middle" font-size="11" fill="#6b7280">Jan 16</text>
<text x="350.0" y="358.0" text-anchor="middle" font-size="11" fill="#6b7280">Feb 8</text>
<text x="492.0" y="358.0" text-anchor="middle" font-size="11" fill="#6b7280">Mar 4</text>
<text x="627.9" y="358.0" text-anchor="middle" font-size="11" fill="#6b7280">Mar 28</text>
<text x="770.0" y="358.0" text-anchor="middle" font-size="11" fill="#6b7280">Apr 24</text>
<line x1="72" y1="45" x2="72" y2="340" stroke="#e5e7eb" stroke-width="1"/>
<line x1="72" y1="340" x2="770" y2="340" stroke="#e5e7eb" stroke-width="1"/>
<text x="-192.5" y="18" text-anchor="middle" font-size="12" fill="#6b7280" transform="rotate(-90)">Extensions</text>
<path d="M 72.0,340 L 72.0,294.6 L 78.2,294.0 L 84.4,294.0 L 90.5,292.2 L 96.7,292.2 L 102.9,291.0 L 109.1,289.9 L 115.2,289.3 L 121.4,286.3 L 127.6,283.9 L 133.8,283.9 L 139.9,283.9 L 146.1,283.9 L 152.3,282.8 L 158.5,282.8 L 164.7,282.8 L 170.8,281.6 L 177.0,279.2 L 183.2,275.1 L 189.4,272.1 L 195.5,271.0 L 201.7,270.4 L 207.9,268.0 L 214.1,260.9 L 220.2,258.6 L 226.4,258.6 L 232.6,252.7 L 238.8,250.9 L 245.0,248.6 L 251.1,246.8 L 257.3,243.2 L 263.5,240.3 L 269.7,239.7 L 275.8,235.0 L 282.0,230.8 L 288.2,230.8 L 294.4,227.9 L 300.5,225.5 L 306.7,224.9 L 312.9,224.4 L 319.1,223.8 L 325.3,222.0 L 331.4,211.4 L 337.6,206.7 L 343.8,204.3 L 350.0,203.1 L 356.1,201.3 L 362.3,197.2 L 368.5,196.0 L 374.7,194.9 L 380.8,191.3 L 387.0,190.1 L 393.2,189.0 L 399.4,189.0 L 405.6,178.3 L 411.7,177.2 L 417.9,176.0 L 424.1,173.6 L 430.3,170.7 L 436.4,170.7 L 442.6,166.0 L 448.8,158.3 L 455.0,157.1 L 461.2,157.7 L 467.3,155.9 L 473.5,155.3 L 479.7,155.3 L 485.9,151.8 L 492.0,148.8 L 498.2,146.5 L 504.4,143.5 L 510.6,142.9 L 516.7,142.9 L 522.9,138.8 L 529.1,137.6 L 535.3,137.0 L 541.5,130.0 L 547.6,129.4 L 553.8,129.4 L 560.0,129.4 L 566.2,128.8 L 572.3,125.8 L 578.5,123.5 L 584.7,120.5 L 590.9,119.9 L 597.0,118.2 L 603.2,112.8 L 609.4,108.1 L 615.6,107.5 L 621.8,106.9 L 627.9,105.2 L 634.1,99.3 L 640.3,98.1 L 646.5,96.3 L 652.6,92.8 L 658.8,92.2 L 665.0,91.6 L 671.2,91.6 L 677.3,90.4 L 683.5,86.9 L 689.7,85.7 L 695.9,84.5 L 702.1,83.9 L 708.2,82.8 L 714.4,76.9 L 720.6,76.3 L 726.8,75.1 L 732.9,74.5 L 739.1,71.6 L 745.3,71.0 L 751.5,70.4 L 757.6,68.6 L 763.8,66.2 L 770.0,66.2 L 770.0,340 Z" fill="url(#g1)" clip-path="url(#ca)"/>
<path d="M 72.0,294.6 L 78.2,294.0 L 84.4,294.0 L 90.5,292.2 L 96.7,292.2 L 102.9,291.0 L 109.1,289.9 L 115.2,289.3 L 121.4,286.3 L 127.6,283.9 L 133.8,283.9 L 139.9,283.9 L 146.1,283.9 L 152.3,282.8 L 158.5,282.8 L 164.7,282.8 L 170.8,281.6 L 177.0,279.2 L 183.2,275.1 L 189.4,272.1 L 195.5,271.0 L 201.7,270.4 L 207.9,268.0 L 214.1,260.9 L 220.2,258.6 L 226.4,258.6 L 232.6,252.7 L 238.8,250.9 L 245.0,248.6 L 251.1,246.8 L 257.3,243.2 L 263.5,240.3 L 269.7,239.7 L 275.8,235.0 L 282.0,230.8 L 288.2,230.8 L 294.4,227.9 L 300.5,225.5 L 306.7,224.9 L 312.9,224.4 L 319.1,223.8 L 325.3,222.0 L 331.4,211.4 L 337.6,206.7 L 343.8,204.3 L 350.0,203.1 L 356.1,201.3 L 362.3,197.2 L 368.5,196.0 L 374.7,194.9 L 380.8,191.3 L 387.0,190.1 L 393.2,189.0 L 399.4,189.0 L 405.6,178.3 L 411.7,177.2 L 417.9,176.0 L 424.1,173.6 L 430.3,170.7 L 436.4,170.7 L 442.6,166.0 L 448.8,158.3 L 455.0,157.1 L 461.2,157.7 L 467.3,155.9 L 473.5,155.3 L 479.7,155.3 L 485.9,151.8 L 492.0,148.8 L 498.2,146.5 L 504.4,143.5 L 510.6,142.9 L 516.7,142.9 L 522.9,138.8 L 529.1,137.6 L 535.3,137.0 L 541.5,130.0 L 547.6,129.4 L 553.8,129.4 L 560.0,129.4 L 566.2,128.8 L 572.3,125.8 L 578.5,123.5 L 584.7,120.5 L 590.9,119.9 L 597.0,118.2 L 603.2,112.8 L 609.4,108.1 L 615.6,107.5 L 621.8,106.9 L 627.9,105.2 L 634.1,99.3 L 640.3,98.1 L 646.5,96.3 L 652.6,92.8 L 658.8,92.2 L 665.0,91.6 L 671.2,91.6 L 677.3,90.4 L 683.5,86.9 L 689.7,85.7 L 695.9,84.5 L 702.1,83.9 L 708.2,82.8 L 714.4,76.9 L 720.6,76.3 L 726.8,75.1 L 732.9,74.5 L 739.1,71.6 L 745.3,71.0 L 751.5,70.4 L 757.6,68.6 L 763.8,66.2 L 770.0,66.2" fill="none" stroke="#FF6363" stroke-width="2.5" stroke-linejoin="round" clip-path="url(#ca)"/>
<text x="106.0" y="55.0" text-anchor="middle" font-size="9" fill="#FF6363" opacity="0.85" clip-path="url(#ca)">+0.7% (+18)</text>
<text x="223.3" y="55.0" text-anchor="middle" font-size="9" fill="#FF6363" opacity="0.85" clip-path="url(#ca)">+4.0% (+99)</text>
<text x="387.0" y="55.0" text-anchor="middle" font-size="9" fill="#FF6363" opacity="0.85" clip-path="url(#ca)">+4.5% (+117)</text>
<text x="553.8" y="55.0" text-anchor="middle" font-size="9" fill="#FF6363" opacity="0.85" clip-path="url(#ca)">+3.5% (+95)</text>
<text x="705.1" y="55.0" text-anchor="middle" font-size="9" fill="#FF6363" opacity="0.85" clip-path="url(#ca)">+1.9% (+54)</text>
<rect x="351" y="369" width="12" height="12" fill="#FF6363" rx="2"/>
<text x="367" y="379" font-size="12" fill="#111827">Extensions</text>
<text x="72" y="394" font-size="8" fill="#e5e7eb">data since Dec 11, 2025</text>
</svg>