<svg xmlns="http://www.w3.org/2000/svg" width="800" height="400" viewBox="0 0 800 400">
<defs>
  <style>text { font-family: -apple-system, BlinkMacSystemFont, 'Segoe UI', Roboto, sans-serif; }</style>
  <linearGradient id="g1" x1="0" y1="0" x2="0" y2="1">
  <stop offset="0%" stop-color="#FF6363" stop-opacity="0.25"/>
  <stop offset="100%" stop-color="#FF6363" stop-opacity="0"/>
</linearGradient>
  <clipPath id="ca"><rect x="72" y="45" width="698" height="295"/></clipPath>
</defs>
<rect width="800" height="400" fill="#ffffff" rx="12"/>
<text x="400" y="26" text-anchor="middle" font-size="15" font-weight="600" fill="#111827">Packages Growth Over Time</text>
<line x1="72" y1="340.0" x2="770" y2="340.0" stroke="#f3f4f6" stroke-width="1"/>
<text x="66" y="344.0" text-anchor="end" font-size="11" fill="#6b7280">2.4k</text>
<line x1="72" y1="290.8" x2="770" y2="290.8" stroke="#f3f4f6" stroke-width="1"/>
<text x="66" y="294.8" text-anchor="end" font-size="11" fill="#6b7280">2.5k</text>
<line x1="72" y1="241.7" x2="770" y2="241.7" stroke="#f3f4f6" stroke-width="1"/>
<text x="66" y="245.7" text-anchor="end" font-size="11" fill="#6b7280">2.6k</text>
<line x1="72" y1="192.5" x2="770" y2="192.5" stroke="#f3f4f6" stroke-width="1"/>
<text x="66" y="196.5" text-anchor="end" font-size="11" fill="#6b7280">2.7k</text>
<line x1="72" y1="143.3" x2="770" y2="143.3" stroke="#f3f4f6" stroke-width="1"/>
<text x="66" y="147.3" text-anchor="end" font-size="11" fill="#6b7280">2.8k</text>
<line x1="72" y1="94.2" x2="770" y2="94.2" stroke="#f3f4f6" stroke-width="1"/>
<text x="66" y="98.2" text-anchor="end" font-size="11" fill="#6b7280">2.9k</text>
<line x1="72" y1="45.0" x2="770" y2="45.0" stroke="#f3f4f6" stroke-width="1"/>
<text x="66" y="49.0" text-anchor="end" font-size="11" fill="#6b7280">3.0k</text>
<line x1="137.4" y1="45" x2="137.4" y2="340" stroke="#e5e7eb" stroke-width="1" stroke-dasharray="3,3" clip-path="url(#ca)"/>
<line x1="279.2" y1="45" x2="279.2" y2="340" stroke="#e5e7eb" stroke-width="1" stroke-dasharray="3,3" clip-path="url(#ca)"/>
<line x1="426.5" y1="45" x2="426.5" y2="340" stroke="#e5e7eb" stroke-width="1" stroke-dasharray="3,3" clip-path="url(#ca)"/>
<line x1="573.7" y1="45" x2="573.7" y2="340" stroke="#e5e7eb" stroke-width="1" stroke-dasharray="3,3" clip-path="url(#ca)"/>
<line x1="720.9" y1="45" x2="720.9" y2="340" stroke="#e5e7eb" stroke-width="1" stroke-dasharray="3,3" clip-path="url(#ca)"/>
<text x="72.0" y="358.0" text-anchor="middle" font-size="11" fill="#6b7280">Dec 11</text>
<text x="213.8" y="358.0" text-anchor="middle" font-size="11" fill="#6b7280">Jan 20</text>
<text x="350.1" y="358.0" text-anchor="middle" font-size="11" fill="#6b7280">Feb 14</text>
<text x="491.9" y="358.0" text-anchor="middle" font-size="11" fill="#6b7280">Mar 14</text>
<text x="628.2" y="358.0" text-anchor="middle" font-size="11" fill="#6b7280">Apr 12</text>
<text x="770.0" y="358.0" text-anchor="middle" font-size="11" fill="#6b7280">May 14</text>
<line x1="72" y1="45" x2="72" y2="340" stroke="#e5e7eb" stroke-width="1"/>
<line x1="72" y1="340" x2="770" y2="340" stroke="#e5e7eb" stroke-width="1"/>
<text x="-192.5" y="18" text-anchor="middle" font-size="12" fill="#6b7280" transform="rotate(-90)">Extensions</text>
<path d="M 72.0,340 L 72.0,302.1 L 77.5,301.6 L 82.9,301.6 L 88.4,300.2 L 93.8,300.2 L 99.3,299.2 L 104.7,298.2 L 110.2,297.7 L 115.6,295.3 L 121.1,293.3 L 126.5,293.3 L 132.0,293.3 L 137.4,293.3 L 142.9,292.3 L 148.3,292.3 L 153.8,292.3 L 159.3,291.3 L 164.7,289.4 L 170.2,285.9 L 175.6,283.5 L 181.1,282.5 L 186.5,282.0 L 192.0,280.0 L 197.4,274.1 L 202.9,272.1 L 208.3,272.1 L 213.8,267.2 L 219.2,265.8 L 224.7,263.8 L 230.1,262.3 L 235.6,259.4 L 241.0,256.9 L 246.5,256.4 L 252.0,252.5 L 257.4,249.0 L 262.9,249.0 L 268.3,246.6 L 273.8,244.6 L 279.2,244.1 L 284.7,243.6 L 290.1,243.1 L 295.6,241.7 L 301.0,232.8 L 306.5,228.9 L 311.9,226.9 L 317.4,225.9 L 322.8,224.5 L 328.3,221.0 L 333.8,220.0 L 339.2,219.1 L 344.7,216.1 L 350.1,215.1 L 355.6,214.1 L 361.0,214.1 L 366.5,205.3 L 371.9,204.3 L 377.4,203.3 L 382.8,201.3 L 388.3,198.9 L 393.7,198.9 L 399.2,195.0 L 404.6,188.6 L 410.1,187.6 L 415.5,188.1 L 421.0,186.6 L 426.5,186.1 L 431.9,186.1 L 437.4,183.2 L 442.8,180.7 L 448.3,178.7 L 453.7,176.3 L 459.2,175.8 L 464.6,175.8 L 470.1,172.3 L 475.5,171.4 L 481.0,170.9 L 486.4,165.0 L 491.9,164.5 L 497.3,164.5 L 502.8,164.5 L 508.3,164.0 L 513.7,161.5 L 519.2,159.6 L 524.6,157.1 L 530.1,156.6 L 535.5,155.1 L 541.0,150.7 L 546.4,146.8 L 551.9,146.3 L 557.3,145.8 L 562.8,144.3 L 568.2,139.4 L 573.7,138.4 L 579.1,136.9 L 584.6,134.0 L 590.0,133.5 L 595.5,133.0 L 601.0,133.0 L 606.4,132.0 L 611.9,129.1 L 617.3,128.1 L 622.8,127.1 L 628.2,126.6 L 633.7,125.6 L 639.1,120.7 L 644.6,120.2 L 650.0,119.2 L 655.5,118.8 L 660.9,116.3 L 666.4,115.8 L 671.8,115.3 L 677.3,113.8 L 682.8,111.9 L 688.2,111.9 L 693.7,111.9 L 699.1,111.9 L 704.6,110.9 L 710.0,108.4 L 715.5,107.9 L 720.9,105.5 L 726.4,105.0 L 731.8,104.5 L 737.3,101.5 L 742.7,98.6 L 748.2,98.1 L 753.6,97.6 L 759.1,91.2 L 764.5,89.3 L 770.0,87.8 L 770.0,340 Z" fill="url(#g1)" clip-path="url(#ca)"/>
<path d="M 72.0,302.1 L 77.5,301.6 L 82.9,301.6 L 88.4,300.2 L 93.8,300.2 L 99.3,299.2 L 104.7,298.2 L 110.2,297.7 L 115.6,295.3 L 121.1,293.3 L 126.5,293.3 L 132.0,293.3 L 137.4,293.3 L 142.9,292.3 L 148.3,292.3 L 153.8,292.3 L 159.3,291.3 L 164.7,289.4 L 170.2,285.9 L 175.6,283.5 L 181.1,282.5 L 186.5,282.0 L 192.0,280.0 L 197.4,274.1 L 202.9,272.1 L 208.3,272.1 L 213.8,267.2 L 219.2,265.8 L 224.7,263.8 L 230.1,262.3 L 235.6,259.4 L 241.0,256.9 L 246.5,256.4 L 252.0,252.5 L 257.4,249.0 L 262.9,249.0 L 268.3,246.6 L 273.8,244.6 L 279.2,244.1 L 284.7,243.6 L 290.1,243.1 L 295.6,241.7 L 301.0,232.8 L 306.5,228.9 L 311.9,226.9 L 317.4,225.9 L 322.8,224.5 L 328.3,221.0 L 333.8,220.0 L 339.2,219.1 L 344.7,216.1 L 350.1,215.1 L 355.6,214.1 L 361.0,214.1 L 366.5,205.3 L 371.9,204.3 L 377.4,203.3 L 382.8,201.3 L 388.3,198.9 L 393.7,198.9 L 399.2,195.0 L 404.6,188.6 L 410.1,187.6 L 415.5,188.1 L 421.0,186.6 L 426.5,186.1 L 431.9,186.1 L 437.4,183.2 L 442.8,180.7 L 448.3,178.7 L 453.7,176.3 L 459.2,175.8 L 464.6,175.8 L 470.1,172.3 L 475.5,171.4 L 481.0,170.9 L 486.4,165.0 L 491.9,164.5 L 497.3,164.5 L 502.8,164.5 L 508.3,164.0 L 513.7,161.5 L 519.2,159.6 L 524.6,157.1 L 530.1,156.6 L 535.5,155.1 L 541.0,150.7 L 546.4,146.8 L 551.9,146.3 L 557.3,145.8 L 562.8,144.3 L 568.2,139.4 L 573.7,138.4 L 579.1,136.9 L 584.6,134.0 L 590.0,133.5 L 595.5,133.0 L 601.0,133.0 L 606.4,132.0 L 611.9,129.1 L 617.3,128.1 L 622.8,127.1 L 628.2,126.6 L 633.7,125.6 L 639.1,120.7 L 644.6,120.2 L 650.0,119.2 L 655.5,118.8 L 660.9,116.3 L 666.4,115.8 L 671.8,115.3 L 677.3,113.8 L 682.8,111.9 L 688.2,111.9 L 693.7,111.9 L 699.1,111.9 L 704.6,110.9 L 710.0,108.4 L 715.5,107.9 L 720.9,105.5 L 726.4,105.0 L 731.8,104.5 L 737.3,101.5 L 742.7,98.6 L 748.2,98.1 L 753.6,97.6 L 759.1,91.2 L 764.5,89.3 L 770.0,87.8" fill="none" stroke="#FF6363" stroke-width="2.5" stroke-linejoin="round" clip-path="url(#ca)"/>
<text x="102.0" y="55.0" text-anchor="middle" font-size="9" fill="#FF6363" opacity="0.85" clip-path="url(#ca)">+0.7% (+18)</text>
<text x="205.6" y="55.0" text-anchor="middle" font-size="9" fill="#FF6363" opacity="0.85" clip-path="url(#ca)">+4.0% (+99)</text>
<text x="350.1" y="55.0" text-anchor="middle" font-size="9" fill="#FF6363" opacity="0.85" clip-path="url(#ca)">+4.5% (+117)</text>
<text x="497.3" y="55.0" text-anchor="middle" font-size="9" fill="#FF6363" opacity="0.85" clip-path="url(#ca)">+3.5% (+95)</text>
<text x="644.6" y="55.0" text-anchor="middle" font-size="9" fill="#FF6363" opacity="0.85" clip-path="url(#ca)">+2.2% (+62)</text>
<text x="745.5" y="55.0" text-anchor="middle" font-size="9" fill="#FF6363" opacity="0.85" clip-path="url(#ca)">+1.3% (+36)</text>
<rect x="351" y="369" width="12" height="12" fill="#FF6363" rx="2"/>
<text x="367" y="379" font-size="12" fill="#111827">Extensions</text>
<text x="72" y="394" font-size="8" fill="#e5e7eb">data since Dec 11, 2025</text>
</svg>