<svg xmlns="http://www.w3.org/2000/svg" width="800" height="420" viewBox="0 0 800 420">
<defs><style>text { font-family: -apple-system, BlinkMacSystemFont, 'Segoe UI', Roboto, sans-serif; }</style></defs>
<rect width="800" height="420" fill="#ffffff" rx="12"/>
<text x="400" y="26" text-anchor="middle" font-size="15" font-weight="600" fill="#111827">Top @raycast/api Versions</text>
<line x1="120" y1="45" x2="120" y2="375" stroke="#e5e7eb" stroke-width="1"/>
<line x1="120" y1="375" x2="740" y2="375" stroke="#e5e7eb" stroke-width="1"/>
<line x1="120.0" y1="45" x2="120.0" y2="375" stroke="#f3f4f6" stroke-width="1"/>
<text x="120.0" y="391.0" text-anchor="middle" font-size="11" fill="#6b7280">0</text>
<line x1="275.5" y1="45" x2="275.5" y2="375" stroke="#f3f4f6" stroke-width="1"/>
<text x="275.5" y="391.0" text-anchor="middle" font-size="11" fill="#6b7280">71</text>
<line x1="431.1" y1="45" x2="431.1" y2="375" stroke="#f3f4f6" stroke-width="1"/>
<text x="431.1" y="391.0" text-anchor="middle" font-size="11" fill="#6b7280">142</text>
<line x1="584.5" y1="45" x2="584.5" y2="375" stroke="#f3f4f6" stroke-width="1"/>
<text x="584.5" y="391.0" text-anchor="middle" font-size="11" fill="#6b7280">212</text>
<line x1="740.0" y1="45" x2="740.0" y2="375" stroke="#f3f4f6" stroke-width="1"/>
<text x="740.0" y="391.0" text-anchor="middle" font-size="11" fill="#6b7280">283</text>
<rect x="120" y="50.8" width="620.0" height="16" fill="#FF6363" rx="3" opacity="0.85"/>
<text x="114" y="62.8" text-anchor="end" font-size="11" fill="#111827">1.93.2</text>
<text x="745.0" y="62.8" font-size="11" fill="#6b7280">283</text>
<rect x="120" y="78.3" width="403.1" height="16" fill="#FF6363" rx="3" opacity="0.85"/>
<text x="114" y="90.3" text-anchor="end" font-size="11" fill="#111827">1.104.1</text>
<text x="528.1" y="90.3" font-size="11" fill="#6b7280">184</text>
<rect x="120" y="105.8" width="208.1" height="16" fill="#FF6363" rx="3" opacity="0.85"/>
<text x="114" y="117.8" text-anchor="end" font-size="11" fill="#111827">1.103.10</text>
<text x="333.1" y="117.8" font-size="11" fill="#6b7280">95</text>
<rect x="120" y="133.3" width="186.2" height="16" fill="#FF6363" rx="3" opacity="0.85"/>
<text x="114" y="145.3" text-anchor="end" font-size="11" fill="#111827">1.104.11</text>
<text x="311.2" y="145.3" font-size="11" fill="#6b7280">85</text>
<rect x="120" y="160.8" width="181.8" height="16" fill="#FF6363" rx="3" opacity="0.85"/>
<text x="114" y="172.8" text-anchor="end" font-size="11" fill="#111827">1.104.6</text>
<text x="306.8" y="172.8" font-size="11" fill="#6b7280">83</text>
<rect x="120" y="188.3" width="135.8" height="16" fill="#FF6363" rx="3" opacity="0.85"/>
<text x="114" y="200.3" text-anchor="end" font-size="11" fill="#111827">1.100.3</text>
<text x="260.8" y="200.3" font-size="11" fill="#6b7280">62</text>
<rect x="120" y="215.8" width="124.9" height="16" fill="#FF6363" rx="3" opacity="0.85"/>
<text x="114" y="227.8" text-anchor="end" font-size="11" fill="#111827">1.104.3</text>
<text x="249.9" y="227.8" font-size="11" fill="#6b7280">57</text>
<rect x="120" y="243.3" width="124.9" height="16" fill="#FF6363" rx="3" opacity="0.85"/>
<text x="114" y="255.3" text-anchor="end" font-size="11" fill="#111827">1.103.3</text>
<text x="249.9" y="255.3" font-size="11" fill="#6b7280">57</text>
<rect x="120" y="270.8" width="116.1" height="16" fill="#FF6363" rx="3" opacity="0.85"/>
<text x="114" y="282.8" text-anchor="end" font-size="11" fill="#111827">1.103.6</text>
<text x="241.1" y="282.8" font-size="11" fill="#6b7280">53</text>
<rect x="120" y="298.3" width="92.0" height="16" fill="#FF6363" rx="3" opacity="0.85"/>
<text x="114" y="310.3" text-anchor="end" font-size="11" fill="#111827">1.103.5</text>
<text x="217.0" y="310.3" font-size="11" fill="#6b7280">42</text>
<rect x="120" y="325.8" width="81.1" height="16" fill="#FF6363" rx="3" opacity="0.85"/>
<text x="114" y="337.8" text-anchor="end" font-size="11" fill="#111827">1.104.4</text>
<text x="206.1" y="337.8" font-size="11" fill="#6b7280">37</text>
<rect x="120" y="353.3" width="74.5" height="16" fill="#FF6363" rx="3" opacity="0.85"/>
<text x="114" y="365.3" text-anchor="end" font-size="11" fill="#111827">1.104.8</text>
<text x="199.5" y="365.3" font-size="11" fill="#6b7280">34</text>
<text x="400" y="410" text-anchor="middle" font-size="12" fill="#6b7280">Number of extensions</text>
</svg>