<svg xmlns="http://www.w3.org/2000/svg" width="800" height="400" viewBox="0 0 800 400">
<defs>
  <style>text { font-family: -apple-system, BlinkMacSystemFont, 'Segoe UI', Roboto, sans-serif; }</style>
  <linearGradient id="g2" x1="0" y1="0" x2="0" y2="1">
  <stop offset="0%" stop-color="#4F8EF7" stop-opacity="0.25"/>
  <stop offset="100%" stop-color="#4F8EF7" stop-opacity="0"/>
</linearGradient>
<linearGradient id="g3" x1="0" y1="0" x2="0" y2="1">
  <stop offset="0%" stop-color="#BF5AF2" stop-opacity="0.25"/>
  <stop offset="100%" stop-color="#BF5AF2" stop-opacity="0"/>
</linearGradient>
<linearGradient id="g4" x1="0" y1="0" x2="0" y2="1">
  <stop offset="0%" stop-color="#34C759" stop-opacity="0.25"/>
  <stop offset="100%" stop-color="#34C759" stop-opacity="0"/>
</linearGradient>
  <clipPath id="ca"><rect x="72" y="45" width="698" height="295"/></clipPath>
</defs>
<rect width="800" height="400" fill="#ffffff" rx="12"/>
<text x="400" y="26" text-anchor="middle" font-size="15" font-weight="600" fill="#111827">Community Growth Over Time</text>
<line x1="72" y1="340.0" x2="770" y2="340.0" stroke="#f3f4f6" stroke-width="1"/>
<text x="66" y="344.0" text-anchor="end" font-size="11" fill="#6b7280">500</text>
<line x1="72" y1="241.7" x2="770" y2="241.7" stroke="#f3f4f6" stroke-width="1"/>
<text x="66" y="245.7" text-anchor="end" font-size="11" fill="#6b7280">1.0k</text>
<line x1="72" y1="143.3" x2="770" y2="143.3" stroke="#f3f4f6" stroke-width="1"/>
<text x="66" y="147.3" text-anchor="end" font-size="11" fill="#6b7280">1.5k</text>
<line x1="72" y1="45.0" x2="770" y2="45.0" stroke="#f3f4f6" stroke-width="1"/>
<text x="66" y="49.0" text-anchor="end" font-size="11" fill="#6b7280">2.0k</text>
<line x1="161.1" y1="45" x2="161.1" y2="340" stroke="#e5e7eb" stroke-width="1" stroke-dasharray="3,3" clip-path="url(#ca)"/>
<line x1="354.2" y1="45" x2="354.2" y2="340" stroke="#e5e7eb" stroke-width="1" stroke-dasharray="3,3" clip-path="url(#ca)"/>
<line x1="554.7" y1="45" x2="554.7" y2="340" stroke="#e5e7eb" stroke-width="1" stroke-dasharray="3,3" clip-path="url(#ca)"/>
<line x1="755.1" y1="45" x2="755.1" y2="340" stroke="#e5e7eb" stroke-width="1" stroke-dasharray="3,3" clip-path="url(#ca)"/>
<text x="72.0" y="358.0" text-anchor="middle" font-size="11" fill="#6b7280">Dec 11</text>
<text x="213.1" y="358.0" text-anchor="middle" font-size="11" fill="#6b7280">Jan 10</text>
<text x="354.2" y="358.0" text-anchor="middle" font-size="11" fill="#6b7280">Feb 1</text>
<text x="487.8" y="358.0" text-anchor="middle" font-size="11" fill="#6b7280">Feb 19</text>
<text x="628.9" y="358.0" text-anchor="middle" font-size="11" fill="#6b7280">Mar 12</text>
<text x="770.0" y="358.0" text-anchor="middle" font-size="11" fill="#6b7280">Apr 3</text>
<line x1="72" y1="45" x2="72" y2="340" stroke="#e5e7eb" stroke-width="1"/>
<line x1="72" y1="340" x2="770" y2="340" stroke="#e5e7eb" stroke-width="1"/>
<text x="-192.5" y="18" text-anchor="middle" font-size="12" fill="#6b7280" transform="rotate(-90)">People</text>
<path d="M 72.0,340 L 72.0,120.1 L 79.4,120.1 L 86.9,120.1 L 94.3,119.5 L 101.7,119.5 L 109.1,119.1 L 116.6,118.9 L 124.0,119.1 L 131.4,118.6 L 138.8,118.6 L 146.3,118.6 L 153.7,118.6 L 161.1,118.6 L 168.5,118.6 L 176.0,118.6 L 183.4,118.6 L 190.8,118.4 L 198.2,117.8 L 205.7,116.6 L 213.1,116.0 L 220.5,115.8 L 227.9,115.8 L 235.4,115.2 L 242.8,113.8 L 250.2,113.0 L 257.6,113.0 L 265.1,112.1 L 272.5,111.7 L 279.9,110.9 L 287.3,110.3 L 294.8,109.7 L 302.2,109.1 L 309.6,109.1 L 317.0,107.7 L 324.5,106.9 L 331.9,106.9 L 339.3,106.2 L 346.7,105.8 L 354.2,105.6 L 361.6,105.4 L 369.0,105.4 L 376.4,104.8 L 383.9,102.4 L 391.3,101.0 L 398.7,100.3 L 406.1,100.1 L 413.6,99.7 L 421.0,98.9 L 428.4,98.5 L 435.9,98.1 L 443.3,97.7 L 450.7,97.3 L 458.1,96.9 L 465.6,96.9 L 473.0,95.0 L 480.4,95.0 L 487.8,94.8 L 495.3,94.6 L 502.7,94.2 L 510.1,94.2 L 517.5,93.2 L 525.0,92.0 L 532.4,91.6 L 539.8,92.0 L 547.2,91.8 L 554.7,91.6 L 562.1,91.6 L 569.5,91.2 L 576.9,90.4 L 584.4,90.0 L 591.8,89.6 L 599.2,89.4 L 606.6,89.4 L 614.1,88.7 L 621.5,88.3 L 628.9,88.3 L 636.3,86.7 L 643.8,86.7 L 651.2,86.7 L 658.6,86.7 L 666.0,86.5 L 673.5,85.9 L 680.9,85.1 L 688.3,84.7 L 695.7,84.7 L 703.2,84.3 L 710.6,82.8 L 718.0,81.8 L 725.4,81.6 L 732.9,81.4 L 740.3,80.8 L 747.7,79.6 L 755.1,79.2 L 762.6,78.8 L 770.0,77.6 L 770.0,340 Z" fill="url(#g2)" clip-path="url(#ca)"/>
<path d="M 72.0,120.1 L 79.4,120.1 L 86.9,120.1 L 94.3,119.5 L 101.7,119.5 L 109.1,119.1 L 116.6,118.9 L 124.0,119.1 L 131.4,118.6 L 138.8,118.6 L 146.3,118.6 L 153.7,118.6 L 161.1,118.6 L 168.5,118.6 L 176.0,118.6 L 183.4,118.6 L 190.8,118.4 L 198.2,117.8 L 205.7,116.6 L 213.1,116.0 L 220.5,115.8 L 227.9,115.8 L 235.4,115.2 L 242.8,113.8 L 250.2,113.0 L 257.6,113.0 L 265.1,112.1 L 272.5,111.7 L 279.9,110.9 L 287.3,110.3 L 294.8,109.7 L 302.2,109.1 L 309.6,109.1 L 317.0,107.7 L 324.5,106.9 L 331.9,106.9 L 339.3,106.2 L 346.7,105.8 L 354.2,105.6 L 361.6,105.4 L 369.0,105.4 L 376.4,104.8 L 383.9,102.4 L 391.3,101.0 L 398.7,100.3 L 406.1,100.1 L 413.6,99.7 L 421.0,98.9 L 428.4,98.5 L 435.9,98.1 L 443.3,97.7 L 450.7,97.3 L 458.1,96.9 L 465.6,96.9 L 473.0,95.0 L 480.4,95.0 L 487.8,94.8 L 495.3,94.6 L 502.7,94.2 L 510.1,94.2 L 517.5,93.2 L 525.0,92.0 L 532.4,91.6 L 539.8,92.0 L 547.2,91.8 L 554.7,91.6 L 562.1,91.6 L 569.5,91.2 L 576.9,90.4 L 584.4,90.0 L 591.8,89.6 L 599.2,89.4 L 606.6,89.4 L 614.1,88.7 L 621.5,88.3 L 628.9,88.3 L 636.3,86.7 L 643.8,86.7 L 651.2,86.7 L 658.6,86.7 L 666.0,86.5 L 673.5,85.9 L 680.9,85.1 L 688.3,84.7 L 695.7,84.7 L 703.2,84.3 L 710.6,82.8 L 718.0,81.8 L 725.4,81.6 L 732.9,81.4 L 740.3,80.8 L 747.7,79.6 L 755.1,79.2 L 762.6,78.8 L 770.0,77.6" fill="none" stroke="#4F8EF7" stroke-width="2.5" stroke-linejoin="round" clip-path="url(#ca)"/>
<path d="M 72.0,340 L 72.0,244.2 L 79.4,243.6 L 86.9,243.6 L 94.3,243.6 L 101.7,243.4 L 109.1,243.0 L 116.6,242.8 L 124.0,242.6 L 131.4,242.6 L 138.8,242.5 L 146.3,242.3 L 153.7,242.3 L 161.1,242.3 L 168.5,242.3 L 176.0,242.3 L 183.4,242.3 L 190.8,241.9 L 198.2,241.9 L 205.7,241.9 L 213.1,241.1 L 220.5,240.9 L 227.9,240.5 L 235.4,239.7 L 242.8,239.5 L 250.2,239.5 L 257.6,239.5 L 265.1,238.9 L 272.5,238.5 L 279.9,238.5 L 287.3,238.1 L 294.8,237.9 L 302.2,237.5 L 309.6,237.5 L 317.0,237.3 L 324.5,236.6 L 331.9,236.0 L 339.3,235.6 L 346.7,235.4 L 354.2,235.4 L 361.6,235.2 L 369.0,234.8 L 376.4,234.8 L 383.9,234.6 L 391.3,234.0 L 398.7,233.6 L 406.1,233.6 L 413.6,233.6 L 421.0,233.6 L 428.4,233.4 L 435.9,232.8 L 443.3,232.4 L 450.7,232.2 L 458.1,232.0 L 465.6,231.8 L 473.0,231.6 L 480.4,231.4 L 487.8,231.2 L 495.3,230.7 L 502.7,230.5 L 510.1,230.3 L 517.5,229.5 L 525.0,228.7 L 532.4,228.7 L 539.8,228.5 L 547.2,228.3 L 554.7,228.3 L 562.1,228.3 L 569.5,227.9 L 576.9,227.9 L 584.4,226.7 L 591.8,226.5 L 599.2,226.3 L 606.6,226.3 L 614.1,225.9 L 621.5,225.7 L 628.9,225.7 L 636.3,225.5 L 643.8,225.5 L 651.2,225.5 L 658.6,225.1 L 666.0,224.9 L 673.5,224.0 L 680.9,224.2 L 688.3,224.0 L 695.7,223.8 L 703.2,223.8 L 710.6,223.6 L 718.0,223.0 L 725.4,223.0 L 732.9,223.0 L 740.3,223.0 L 747.7,222.6 L 755.1,222.6 L 762.6,222.2 L 770.0,221.8 L 770.0,340 Z" fill="url(#g3)" clip-path="url(#ca)"/>
<path d="M 72.0,244.2 L 79.4,243.6 L 86.9,243.6 L 94.3,243.6 L 101.7,243.4 L 109.1,243.0 L 116.6,242.8 L 124.0,242.6 L 131.4,242.6 L 138.8,242.5 L 146.3,242.3 L 153.7,242.3 L 161.1,242.3 L 168.5,242.3 L 176.0,242.3 L 183.4,242.3 L 190.8,241.9 L 198.2,241.9 L 205.7,241.9 L 213.1,241.1 L 220.5,240.9 L 227.9,240.5 L 235.4,239.7 L 242.8,239.5 L 250.2,239.5 L 257.6,239.5 L 265.1,238.9 L 272.5,238.5 L 279.9,238.5 L 287.3,238.1 L 294.8,237.9 L 302.2,237.5 L 309.6,237.5 L 317.0,237.3 L 324.5,236.6 L 331.9,236.0 L 339.3,235.6 L 346.7,235.4 L 354.2,235.4 L 361.6,235.2 L 369.0,234.8 L 376.4,234.8 L 383.9,234.6 L 391.3,234.0 L 398.7,233.6 L 406.1,233.6 L 413.6,233.6 L 421.0,233.6 L 428.4,233.4 L 435.9,232.8 L 443.3,232.4 L 450.7,232.2 L 458.1,232.0 L 465.6,231.8 L 473.0,231.6 L 480.4,231.4 L 487.8,231.2 L 495.3,230.7 L 502.7,230.5 L 510.1,230.3 L 517.5,229.5 L 525.0,228.7 L 532.4,228.7 L 539.8,228.5 L 547.2,228.3 L 554.7,228.3 L 562.1,228.3 L 569.5,227.9 L 576.9,227.9 L 584.4,226.7 L 591.8,226.5 L 599.2,226.3 L 606.6,226.3 L 614.1,225.9 L 621.5,225.7 L 628.9,225.7 L 636.3,225.5 L 643.8,225.5 L 651.2,225.5 L 658.6,225.1 L 666.0,224.9 L 673.5,224.0 L 680.9,224.2 L 688.3,224.0 L 695.7,223.8 L 703.2,223.8 L 710.6,223.6 L 718.0,223.0 L 725.4,223.0 L 732.9,223.0 L 740.3,223.0 L 747.7,222.6 L 755.1,222.6 L 762.6,222.2 L 770.0,221.8" fill="none" stroke="#BF5AF2" stroke-width="2.5" stroke-linejoin="round" clip-path="url(#ca)"/>
<path d="M 72.0,340 L 72.0,291.4 L 79.4,290.8 L 86.9,290.8 L 94.3,290.8 L 101.7,290.6 L 109.1,290.2 L 116.6,290.0 L 124.0,289.7 L 131.4,289.7 L 138.8,289.5 L 146.3,289.3 L 153.7,289.3 L 161.1,289.3 L 168.5,289.3 L 176.0,289.3 L 183.4,289.3 L 190.8,288.9 L 198.2,288.9 L 205.7,289.1 L 213.1,288.5 L 220.5,288.7 L 227.9,288.1 L 235.4,287.5 L 242.8,287.3 L 250.2,287.5 L 257.6,287.5 L 265.1,286.9 L 272.5,286.7 L 279.9,286.7 L 287.3,286.3 L 294.8,286.1 L 302.2,285.7 L 309.6,285.7 L 317.0,285.5 L 324.5,284.9 L 331.9,284.3 L 339.3,283.9 L 346.7,283.9 L 354.2,283.9 L 361.6,283.8 L 369.0,283.4 L 376.4,283.4 L 383.9,283.2 L 391.3,282.6 L 398.7,282.4 L 406.1,282.4 L 413.6,282.4 L 421.0,282.4 L 428.4,282.2 L 435.9,281.6 L 443.3,281.4 L 450.7,281.2 L 458.1,281.0 L 465.6,281.0 L 473.0,280.8 L 480.4,280.8 L 487.8,280.8 L 495.3,280.2 L 502.7,280.2 L 510.1,280.2 L 517.5,279.8 L 525.0,279.2 L 532.4,279.2 L 539.8,279.0 L 547.2,278.8 L 554.7,278.8 L 562.1,278.8 L 569.5,278.4 L 576.9,278.4 L 584.4,277.3 L 591.8,277.1 L 599.2,276.9 L 606.6,276.9 L 614.1,276.7 L 621.5,276.7 L 628.9,276.7 L 636.3,276.7 L 643.8,276.7 L 651.2,276.7 L 658.6,276.3 L 666.0,276.1 L 673.5,275.1 L 680.9,275.3 L 688.3,275.3 L 695.7,275.1 L 703.2,275.1 L 710.6,275.1 L 718.0,274.7 L 725.4,274.7 L 732.9,274.7 L 740.3,274.7 L 747.7,274.7 L 755.1,274.7 L 762.6,274.5 L 770.0,274.5 L 770.0,340 Z" fill="url(#g4)" clip-path="url(#ca)"/>
<path d="M 72.0,291.4 L 79.4,290.8 L 86.9,290.8 L 94.3,290.8 L 101.7,290.6 L 109.1,290.2 L 116.6,290.0 L 124.0,289.7 L 131.4,289.7 L 138.8,289.5 L 146.3,289.3 L 153.7,289.3 L 161.1,289.3 L 168.5,289.3 L 176.0,289.3 L 183.4,289.3 L 190.8,288.9 L 198.2,288.9 L 205.7,289.1 L 213.1,288.5 L 220.5,288.7 L 227.9,288.1 L 235.4,287.5 L 242.8,287.3 L 250.2,287.5 L 257.6,287.5 L 265.1,286.9 L 272.5,286.7 L 279.9,286.7 L 287.3,286.3 L 294.8,286.1 L 302.2,285.7 L 309.6,285.7 L 317.0,285.5 L 324.5,284.9 L 331.9,284.3 L 339.3,283.9 L 346.7,283.9 L 354.2,283.9 L 361.6,283.8 L 369.0,283.4 L 376.4,283.4 L 383.9,283.2 L 391.3,282.6 L 398.7,282.4 L 406.1,282.4 L 413.6,282.4 L 421.0,282.4 L 428.4,282.2 L 435.9,281.6 L 443.3,281.4 L 450.7,281.2 L 458.1,281.0 L 465.6,281.0 L 473.0,280.8 L 480.4,280.8 L 487.8,280.8 L 495.3,280.2 L 502.7,280.2 L 510.1,280.2 L 517.5,279.8 L 525.0,279.2 L 532.4,279.2 L 539.8,279.0 L 547.2,278.8 L 554.7,278.8 L 562.1,278.8 L 569.5,278.4 L 576.9,278.4 L 584.4,277.3 L 591.8,277.1 L 599.2,276.9 L 606.6,276.9 L 614.1,276.7 L 621.5,276.7 L 628.9,276.7 L 636.3,276.7 L 643.8,276.7 L 651.2,276.7 L 658.6,276.3 L 666.0,276.1 L 673.5,275.1 L 680.9,275.3 L 688.3,275.3 L 695.7,275.1 L 703.2,275.1 L 710.6,275.1 L 718.0,274.7 L 725.4,274.7 L 732.9,274.7 L 740.3,274.7 L 747.7,274.7 L 755.1,274.7 L 762.6,274.5 L 770.0,274.5" fill="none" stroke="#34C759" stroke-width="2.5" stroke-linejoin="round" clip-path="url(#ca)"/>
<text x="112.8" y="55.0" text-anchor="middle" font-size="9" fill="#4F8EF7" opacity="0.85" clip-path="url(#ca)">+0.5% (+8)</text>
<text x="112.8" y="66.0" text-anchor="middle" font-size="9" fill="#BF5AF2" opacity="0.85" clip-path="url(#ca)">+1.0% (+10)</text>
<text x="112.8" y="77.0" text-anchor="middle" font-size="9" fill="#34C759" opacity="0.85" clip-path="url(#ca)">+1.5% (+11)</text>
<text x="253.9" y="55.0" text-anchor="middle" font-size="9" fill="#4F8EF7" opacity="0.85" clip-path="url(#ca)">+4.0% (+65)</text>
<text x="253.9" y="66.0" text-anchor="middle" font-size="9" fill="#BF5AF2" opacity="0.85" clip-path="url(#ca)">+3.5% (+35)</text>
<text x="253.9" y="77.0" text-anchor="middle" font-size="9" fill="#34C759" opacity="0.85" clip-path="url(#ca)">+3.6% (+27)</text>
<text x="450.7" y="55.0" text-anchor="middle" font-size="9" fill="#4F8EF7" opacity="0.85" clip-path="url(#ca)">+4.1% (+70)</text>
<text x="450.7" y="66.0" text-anchor="middle" font-size="9" fill="#BF5AF2" opacity="0.85" clip-path="url(#ca)">+3.5% (+36)</text>
<text x="450.7" y="77.0" text-anchor="middle" font-size="9" fill="#34C759" opacity="0.85" clip-path="url(#ca)">+3.3% (+26)</text>
<text x="651.2" y="55.0" text-anchor="middle" font-size="9" fill="#4F8EF7" opacity="0.85" clip-path="url(#ca)">+3.5% (+61)</text>
<text x="651.2" y="66.0" text-anchor="middle" font-size="9" fill="#BF5AF2" opacity="0.85" clip-path="url(#ca)">+2.7% (+29)</text>
<text x="651.2" y="77.0" text-anchor="middle" font-size="9" fill="#34C759" opacity="0.85" clip-path="url(#ca)">+2.6% (+21)</text>
<text x="762.6" y="55.0" text-anchor="middle" font-size="9" fill="#4F8EF7" opacity="0.85" clip-path="url(#ca)">+0.4% (+8)</text>
<text x="762.6" y="66.0" text-anchor="middle" font-size="9" fill="#BF5AF2" opacity="0.85" clip-path="url(#ca)">+0.4% (+4)</text>
<text x="762.6" y="77.0" text-anchor="middle" font-size="9" fill="#34C759" opacity="0.85" clip-path="url(#ca)">+0.1% (+1)</text>
<rect x="211" y="369" width="12" height="12" fill="#4F8EF7" rx="2"/>
<text x="227" y="379" font-size="12" fill="#111827">Authors</text>
<rect x="351" y="369" width="12" height="12" fill="#BF5AF2" rx="2"/>
<text x="367" y="379" font-size="12" fill="#111827">Contributors</text>
<rect x="491" y="369" width="12" height="12" fill="#34C759" rx="2"/>
<text x="507" y="379" font-size="12" fill="#111827">Non-author contributors</text>
<text x="72" y="394" font-size="8" fill="#e5e7eb">data since Dec 11, 2025</text>
</svg>