<svg xmlns="http://www.w3.org/2000/svg" width="800" height="400" viewBox="0 0 800 400">
<defs>
  <style>text { font-family: -apple-system, BlinkMacSystemFont, 'Segoe UI', Roboto, sans-serif; }</style>
  <linearGradient id="g2" x1="0" y1="0" x2="0" y2="1">
  <stop offset="0%" stop-color="#4F8EF7" stop-opacity="0.25"/>
  <stop offset="100%" stop-color="#4F8EF7" stop-opacity="0"/>
</linearGradient>
<linearGradient id="g3" x1="0" y1="0" x2="0" y2="1">
  <stop offset="0%" stop-color="#BF5AF2" stop-opacity="0.25"/>
  <stop offset="100%" stop-color="#BF5AF2" stop-opacity="0"/>
</linearGradient>
<linearGradient id="g4" x1="0" y1="0" x2="0" y2="1">
  <stop offset="0%" stop-color="#34C759" stop-opacity="0.25"/>
  <stop offset="100%" stop-color="#34C759" stop-opacity="0"/>
</linearGradient>
  <clipPath id="ca"><rect x="72" y="45" width="698" height="295"/></clipPath>
</defs>
<rect width="800" height="400" fill="#ffffff" rx="12"/>
<text x="400" y="26" text-anchor="middle" font-size="15" font-weight="600" fill="#111827">Community Growth Over Time</text>
<line x1="72" y1="340.0" x2="770" y2="340.0" stroke="#f3f4f6" stroke-width="1"/>
<text x="66" y="344.0" text-anchor="end" font-size="11" fill="#6b7280">500</text>
<line x1="72" y1="241.7" x2="770" y2="241.7" stroke="#f3f4f6" stroke-width="1"/>
<text x="66" y="245.7" text-anchor="end" font-size="11" fill="#6b7280">1.0k</text>
<line x1="72" y1="143.3" x2="770" y2="143.3" stroke="#f3f4f6" stroke-width="1"/>
<text x="66" y="147.3" text-anchor="end" font-size="11" fill="#6b7280">1.5k</text>
<line x1="72" y1="45.0" x2="770" y2="45.0" stroke="#f3f4f6" stroke-width="1"/>
<text x="66" y="49.0" text-anchor="end" font-size="11" fill="#6b7280">2.0k</text>
<line x1="139.0" y1="45" x2="139.0" y2="340" stroke="#e5e7eb" stroke-width="1" stroke-dasharray="3,3" clip-path="url(#ca)"/>
<line x1="284.2" y1="45" x2="284.2" y2="340" stroke="#e5e7eb" stroke-width="1" stroke-dasharray="3,3" clip-path="url(#ca)"/>
<line x1="435.0" y1="45" x2="435.0" y2="340" stroke="#e5e7eb" stroke-width="1" stroke-dasharray="3,3" clip-path="url(#ca)"/>
<line x1="585.7" y1="45" x2="585.7" y2="340" stroke="#e5e7eb" stroke-width="1" stroke-dasharray="3,3" clip-path="url(#ca)"/>
<line x1="736.5" y1="45" x2="736.5" y2="340" stroke="#e5e7eb" stroke-width="1" stroke-dasharray="3,3" clip-path="url(#ca)"/>
<text x="72.0" y="358.0" text-anchor="middle" font-size="11" fill="#6b7280">Dec 11</text>
<text x="211.6" y="358.0" text-anchor="middle" font-size="11" fill="#6b7280">Jan 18</text>
<text x="351.2" y="358.0" text-anchor="middle" font-size="11" fill="#6b7280">Feb 13</text>
<text x="490.8" y="358.0" text-anchor="middle" font-size="11" fill="#6b7280">Mar 12</text>
<text x="630.4" y="358.0" text-anchor="middle" font-size="11" fill="#6b7280">Apr 10</text>
<text x="770.0" y="358.0" text-anchor="middle" font-size="11" fill="#6b7280">May 10</text>
<line x1="72" y1="45" x2="72" y2="340" stroke="#e5e7eb" stroke-width="1"/>
<line x1="72" y1="340" x2="770" y2="340" stroke="#e5e7eb" stroke-width="1"/>
<text x="-192.5" y="18" text-anchor="middle" font-size="12" fill="#6b7280" transform="rotate(-90)">People</text>
<path d="M 72.0,340 L 72.0,120.1 L 77.6,120.1 L 83.2,120.1 L 88.8,119.5 L 94.3,119.5 L 99.9,119.1 L 105.5,118.9 L 111.1,119.1 L 116.7,118.6 L 122.3,118.6 L 127.8,118.6 L 133.4,118.6 L 139.0,118.6 L 144.6,118.6 L 150.2,118.6 L 155.8,118.6 L 161.3,118.4 L 166.9,117.8 L 172.5,116.6 L 178.1,116.0 L 183.7,115.8 L 189.3,115.8 L 194.8,115.2 L 200.4,113.8 L 206.0,113.0 L 211.6,113.0 L 217.2,112.1 L 222.8,111.7 L 228.4,110.9 L 233.9,110.3 L 239.5,109.7 L 245.1,109.1 L 250.7,109.1 L 256.3,107.7 L 261.9,106.9 L 267.4,106.9 L 273.0,106.2 L 278.6,105.8 L 284.2,105.6 L 289.8,105.4 L 295.4,105.4 L 300.9,104.8 L 306.5,102.4 L 312.1,101.0 L 317.7,100.3 L 323.3,100.1 L 328.9,99.7 L 334.4,98.9 L 340.0,98.5 L 345.6,98.1 L 351.2,97.7 L 356.8,97.3 L 362.4,96.9 L 368.0,96.9 L 373.5,95.0 L 379.1,95.0 L 384.7,94.8 L 390.3,94.6 L 395.9,94.2 L 401.5,94.2 L 407.0,93.2 L 412.6,92.0 L 418.2,91.6 L 423.8,92.0 L 429.4,91.8 L 435.0,91.6 L 440.5,91.6 L 446.1,91.2 L 451.7,90.4 L 457.3,90.0 L 462.9,89.6 L 468.5,89.4 L 474.0,89.4 L 479.6,88.7 L 485.2,88.3 L 490.8,88.3 L 496.4,86.7 L 502.0,86.7 L 507.6,86.7 L 513.1,86.7 L 518.7,86.5 L 524.3,85.9 L 529.9,85.1 L 535.5,84.7 L 541.1,84.7 L 546.6,84.3 L 552.2,82.8 L 557.8,81.8 L 563.4,81.6 L 569.0,81.4 L 574.6,80.8 L 580.1,79.6 L 585.7,79.2 L 591.3,78.8 L 596.9,77.6 L 602.5,77.4 L 608.1,77.4 L 613.6,77.4 L 619.2,77.3 L 624.8,76.1 L 630.4,75.9 L 636.0,75.7 L 641.6,75.7 L 647.2,75.3 L 652.7,73.7 L 658.3,73.5 L 663.9,73.3 L 669.5,73.3 L 675.1,72.5 L 680.7,72.3 L 686.2,72.1 L 691.8,71.6 L 697.4,70.8 L 703.0,70.8 L 708.6,70.8 L 714.2,70.8 L 719.7,70.4 L 725.3,69.8 L 730.9,69.6 L 736.5,69.0 L 742.1,68.8 L 747.7,68.6 L 753.2,67.8 L 758.8,67.2 L 764.4,67.0 L 770.0,67.0 L 770.0,340 Z" fill="url(#g2)" clip-path="url(#ca)"/>
<path d="M 72.0,120.1 L 77.6,120.1 L 83.2,120.1 L 88.8,119.5 L 94.3,119.5 L 99.9,119.1 L 105.5,118.9 L 111.1,119.1 L 116.7,118.6 L 122.3,118.6 L 127.8,118.6 L 133.4,118.6 L 139.0,118.6 L 144.6,118.6 L 150.2,118.6 L 155.8,118.6 L 161.3,118.4 L 166.9,117.8 L 172.5,116.6 L 178.1,116.0 L 183.7,115.8 L 189.3,115.8 L 194.8,115.2 L 200.4,113.8 L 206.0,113.0 L 211.6,113.0 L 217.2,112.1 L 222.8,111.7 L 228.4,110.9 L 233.9,110.3 L 239.5,109.7 L 245.1,109.1 L 250.7,109.1 L 256.3,107.7 L 261.9,106.9 L 267.4,106.9 L 273.0,106.2 L 278.6,105.8 L 284.2,105.6 L 289.8,105.4 L 295.4,105.4 L 300.9,104.8 L 306.5,102.4 L 312.1,101.0 L 317.7,100.3 L 323.3,100.1 L 328.9,99.7 L 334.4,98.9 L 340.0,98.5 L 345.6,98.1 L 351.2,97.7 L 356.8,97.3 L 362.4,96.9 L 368.0,96.9 L 373.5,95.0 L 379.1,95.0 L 384.7,94.8 L 390.3,94.6 L 395.9,94.2 L 401.5,94.2 L 407.0,93.2 L 412.6,92.0 L 418.2,91.6 L 423.8,92.0 L 429.4,91.8 L 435.0,91.6 L 440.5,91.6 L 446.1,91.2 L 451.7,90.4 L 457.3,90.0 L 462.9,89.6 L 468.5,89.4 L 474.0,89.4 L 479.6,88.7 L 485.2,88.3 L 490.8,88.3 L 496.4,86.7 L 502.0,86.7 L 507.6,86.7 L 513.1,86.7 L 518.7,86.5 L 524.3,85.9 L 529.9,85.1 L 535.5,84.7 L 541.1,84.7 L 546.6,84.3 L 552.2,82.8 L 557.8,81.8 L 563.4,81.6 L 569.0,81.4 L 574.6,80.8 L 580.1,79.6 L 585.7,79.2 L 591.3,78.8 L 596.9,77.6 L 602.5,77.4 L 608.1,77.4 L 613.6,77.4 L 619.2,77.3 L 624.8,76.1 L 630.4,75.9 L 636.0,75.7 L 641.6,75.7 L 647.2,75.3 L 652.7,73.7 L 658.3,73.5 L 663.9,73.3 L 669.5,73.3 L 675.1,72.5 L 680.7,72.3 L 686.2,72.1 L 691.8,71.6 L 697.4,70.8 L 703.0,70.8 L 708.6,70.8 L 714.2,70.8 L 719.7,70.4 L 725.3,69.8 L 730.9,69.6 L 736.5,69.0 L 742.1,68.8 L 747.7,68.6 L 753.2,67.8 L 758.8,67.2 L 764.4,67.0 L 770.0,67.0" fill="none" stroke="#4F8EF7" stroke-width="2.5" stroke-linejoin="round" clip-path="url(#ca)"/>
<path d="M 72.0,340 L 72.0,244.2 L 77.6,243.6 L 83.2,243.6 L 88.8,243.6 L 94.3,243.4 L 99.9,243.0 L 105.5,242.8 L 111.1,242.6 L 116.7,242.6 L 122.3,242.5 L 127.8,242.3 L 133.4,242.3 L 139.0,242.3 L 144.6,242.3 L 150.2,242.3 L 155.8,242.3 L 161.3,241.9 L 166.9,241.9 L 172.5,241.9 L 178.1,241.1 L 183.7,240.9 L 189.3,240.5 L 194.8,239.7 L 200.4,239.5 L 206.0,239.5 L 211.6,239.5 L 217.2,238.9 L 222.8,238.5 L 228.4,238.5 L 233.9,238.1 L 239.5,237.9 L 245.1,237.5 L 250.7,237.5 L 256.3,237.3 L 261.9,236.6 L 267.4,236.0 L 273.0,235.6 L 278.6,235.4 L 284.2,235.4 L 289.8,235.2 L 295.4,234.8 L 300.9,234.8 L 306.5,234.6 L 312.1,234.0 L 317.7,233.6 L 323.3,233.6 L 328.9,233.6 L 334.4,233.6 L 340.0,233.4 L 345.6,232.8 L 351.2,232.4 L 356.8,232.2 L 362.4,232.0 L 368.0,231.8 L 373.5,231.6 L 379.1,231.4 L 384.7,231.2 L 390.3,230.7 L 395.9,230.5 L 401.5,230.3 L 407.0,229.5 L 412.6,228.7 L 418.2,228.7 L 423.8,228.5 L 429.4,228.3 L 435.0,228.3 L 440.5,228.3 L 446.1,227.9 L 451.7,227.9 L 457.3,226.7 L 462.9,226.5 L 468.5,226.3 L 474.0,226.3 L 479.6,225.9 L 485.2,225.7 L 490.8,225.7 L 496.4,225.5 L 502.0,225.5 L 507.6,225.5 L 513.1,225.1 L 518.7,224.9 L 524.3,224.0 L 529.9,224.2 L 535.5,224.0 L 541.1,223.8 L 546.6,223.8 L 552.2,223.6 L 557.8,223.0 L 563.4,223.0 L 569.0,223.0 L 574.6,223.0 L 580.1,222.6 L 585.7,222.6 L 591.3,222.2 L 596.9,221.8 L 602.5,221.0 L 608.1,221.0 L 613.6,220.6 L 619.2,220.4 L 624.8,220.2 L 630.4,220.0 L 636.0,219.6 L 641.6,219.6 L 647.2,219.1 L 652.7,219.1 L 658.3,218.9 L 663.9,218.5 L 669.5,218.3 L 675.1,218.3 L 680.7,218.3 L 686.2,218.3 L 691.8,218.3 L 697.4,217.7 L 703.0,217.7 L 708.6,217.3 L 714.2,216.9 L 719.7,216.3 L 725.3,216.1 L 730.9,216.1 L 736.5,214.9 L 742.1,214.7 L 747.7,214.7 L 753.2,213.9 L 758.8,213.9 L 764.4,213.5 L 770.0,213.5 L 770.0,340 Z" fill="url(#g3)" clip-path="url(#ca)"/>
<path d="M 72.0,244.2 L 77.6,243.6 L 83.2,243.6 L 88.8,243.6 L 94.3,243.4 L 99.9,243.0 L 105.5,242.8 L 111.1,242.6 L 116.7,242.6 L 122.3,242.5 L 127.8,242.3 L 133.4,242.3 L 139.0,242.3 L 144.6,242.3 L 150.2,242.3 L 155.8,242.3 L 161.3,241.9 L 166.9,241.9 L 172.5,241.9 L 178.1,241.1 L 183.7,240.9 L 189.3,240.5 L 194.8,239.7 L 200.4,239.5 L 206.0,239.5 L 211.6,239.5 L 217.2,238.9 L 222.8,238.5 L 228.4,238.5 L 233.9,238.1 L 239.5,237.9 L 245.1,237.5 L 250.7,237.5 L 256.3,237.3 L 261.9,236.6 L 267.4,236.0 L 273.0,235.6 L 278.6,235.4 L 284.2,235.4 L 289.8,235.2 L 295.4,234.8 L 300.9,234.8 L 306.5,234.6 L 312.1,234.0 L 317.7,233.6 L 323.3,233.6 L 328.9,233.6 L 334.4,233.6 L 340.0,233.4 L 345.6,232.8 L 351.2,232.4 L 356.8,232.2 L 362.4,232.0 L 368.0,231.8 L 373.5,231.6 L 379.1,231.4 L 384.7,231.2 L 390.3,230.7 L 395.9,230.5 L 401.5,230.3 L 407.0,229.5 L 412.6,228.7 L 418.2,228.7 L 423.8,228.5 L 429.4,228.3 L 435.0,228.3 L 440.5,228.3 L 446.1,227.9 L 451.7,227.9 L 457.3,226.7 L 462.9,226.5 L 468.5,226.3 L 474.0,226.3 L 479.6,225.9 L 485.2,225.7 L 490.8,225.7 L 496.4,225.5 L 502.0,225.5 L 507.6,225.5 L 513.1,225.1 L 518.7,224.9 L 524.3,224.0 L 529.9,224.2 L 535.5,224.0 L 541.1,223.8 L 546.6,223.8 L 552.2,223.6 L 557.8,223.0 L 563.4,223.0 L 569.0,223.0 L 574.6,223.0 L 580.1,222.6 L 585.7,222.6 L 591.3,222.2 L 596.9,221.8 L 602.5,221.0 L 608.1,221.0 L 613.6,220.6 L 619.2,220.4 L 624.8,220.2 L 630.4,220.0 L 636.0,219.6 L 641.6,219.6 L 647.2,219.1 L 652.7,219.1 L 658.3,218.9 L 663.9,218.5 L 669.5,218.3 L 675.1,218.3 L 680.7,218.3 L 686.2,218.3 L 691.8,218.3 L 697.4,217.7 L 703.0,217.7 L 708.6,217.3 L 714.2,216.9 L 719.7,216.3 L 725.3,216.1 L 730.9,216.1 L 736.5,214.9 L 742.1,214.7 L 747.7,214.7 L 753.2,213.9 L 758.8,213.9 L 764.4,213.5 L 770.0,213.5" fill="none" stroke="#BF5AF2" stroke-width="2.5" stroke-linejoin="round" clip-path="url(#ca)"/>
<path d="M 72.0,340 L 72.0,291.4 L 77.6,290.8 L 83.2,290.8 L 88.8,290.8 L 94.3,290.6 L 99.9,290.2 L 105.5,290.0 L 111.1,289.7 L 116.7,289.7 L 122.3,289.5 L 127.8,289.3 L 133.4,289.3 L 139.0,289.3 L 144.6,289.3 L 150.2,289.3 L 155.8,289.3 L 161.3,288.9 L 166.9,288.9 L 172.5,289.1 L 178.1,288.5 L 183.7,288.7 L 189.3,288.1 L 194.8,287.5 L 200.4,287.3 L 206.0,287.5 L 211.6,287.5 L 217.2,286.9 L 222.8,286.7 L 228.4,286.7 L 233.9,286.3 L 239.5,286.1 L 245.1,285.7 L 250.7,285.7 L 256.3,285.5 L 261.9,284.9 L 267.4,284.3 L 273.0,283.9 L 278.6,283.9 L 284.2,283.9 L 289.8,283.8 L 295.4,283.4 L 300.9,283.4 L 306.5,283.2 L 312.1,282.6 L 317.7,282.4 L 323.3,282.4 L 328.9,282.4 L 334.4,282.4 L 340.0,282.2 L 345.6,281.6 L 351.2,281.4 L 356.8,281.2 L 362.4,281.0 L 368.0,281.0 L 373.5,280.8 L 379.1,280.8 L 384.7,280.8 L 390.3,280.2 L 395.9,280.2 L 401.5,280.2 L 407.0,279.8 L 412.6,279.2 L 418.2,279.2 L 423.8,279.0 L 429.4,278.8 L 435.0,278.8 L 440.5,278.8 L 446.1,278.4 L 451.7,278.4 L 457.3,277.3 L 462.9,277.1 L 468.5,276.9 L 474.0,276.9 L 479.6,276.7 L 485.2,276.7 L 490.8,276.7 L 496.4,276.7 L 502.0,276.7 L 507.6,276.7 L 513.1,276.3 L 518.7,276.1 L 524.3,275.1 L 529.9,275.3 L 535.5,275.3 L 541.1,275.1 L 546.6,275.1 L 552.2,275.1 L 557.8,274.7 L 563.4,274.7 L 569.0,274.7 L 574.6,274.7 L 580.1,274.7 L 585.7,274.7 L 591.3,274.5 L 596.9,274.5 L 602.5,273.7 L 608.1,273.7 L 613.6,273.5 L 619.2,273.3 L 624.8,273.1 L 630.4,272.9 L 636.0,272.5 L 641.6,272.5 L 647.2,272.0 L 652.7,272.0 L 658.3,271.8 L 663.9,271.6 L 669.5,271.6 L 675.1,271.6 L 680.7,271.6 L 686.2,271.6 L 691.8,271.6 L 697.4,271.0 L 703.0,271.0 L 708.6,270.6 L 714.2,270.2 L 719.7,269.6 L 725.3,269.4 L 730.9,269.4 L 736.5,268.4 L 742.1,268.2 L 747.7,268.2 L 753.2,267.6 L 758.8,267.6 L 764.4,267.4 L 770.0,267.4 L 770.0,340 Z" fill="url(#g4)" clip-path="url(#ca)"/>
<path d="M 72.0,291.4 L 77.6,290.8 L 83.2,290.8 L 88.8,290.8 L 94.3,290.6 L 99.9,290.2 L 105.5,290.0 L 111.1,289.7 L 116.7,289.7 L 122.3,289.5 L 127.8,289.3 L 133.4,289.3 L 139.0,289.3 L 144.6,289.3 L 150.2,289.3 L 155.8,289.3 L 161.3,288.9 L 166.9,288.9 L 172.5,289.1 L 178.1,288.5 L 183.7,288.7 L 189.3,288.1 L 194.8,287.5 L 200.4,287.3 L 206.0,287.5 L 211.6,287.5 L 217.2,286.9 L 222.8,286.7 L 228.4,286.7 L 233.9,286.3 L 239.5,286.1 L 245.1,285.7 L 250.7,285.7 L 256.3,285.5 L 261.9,284.9 L 267.4,284.3 L 273.0,283.9 L 278.6,283.9 L 284.2,283.9 L 289.8,283.8 L 295.4,283.4 L 300.9,283.4 L 306.5,283.2 L 312.1,282.6 L 317.7,282.4 L 323.3,282.4 L 328.9,282.4 L 334.4,282.4 L 340.0,282.2 L 345.6,281.6 L 351.2,281.4 L 356.8,281.2 L 362.4,281.0 L 368.0,281.0 L 373.5,280.8 L 379.1,280.8 L 384.7,280.8 L 390.3,280.2 L 395.9,280.2 L 401.5,280.2 L 407.0,279.8 L 412.6,279.2 L 418.2,279.2 L 423.8,279.0 L 429.4,278.8 L 435.0,278.8 L 440.5,278.8 L 446.1,278.4 L 451.7,278.4 L 457.3,277.3 L 462.9,277.1 L 468.5,276.9 L 474.0,276.9 L 479.6,276.7 L 485.2,276.7 L 490.8,276.7 L 496.4,276.7 L 502.0,276.7 L 507.6,276.7 L 513.1,276.3 L 518.7,276.1 L 524.3,275.1 L 529.9,275.3 L 535.5,275.3 L 541.1,275.1 L 546.6,275.1 L 552.2,275.1 L 557.8,274.7 L 563.4,274.7 L 569.0,274.7 L 574.6,274.7 L 580.1,274.7 L 585.7,274.7 L 591.3,274.5 L 596.9,274.5 L 602.5,273.7 L 608.1,273.7 L 613.6,273.5 L 619.2,273.3 L 624.8,273.1 L 630.4,272.9 L 636.0,272.5 L 641.6,272.5 L 647.2,272.0 L 652.7,272.0 L 658.3,271.8 L 663.9,271.6 L 669.5,271.6 L 675.1,271.6 L 680.7,271.6 L 686.2,271.6 L 691.8,271.6 L 697.4,271.0 L 703.0,271.0 L 708.6,270.6 L 714.2,270.2 L 719.7,269.6 L 725.3,269.4 L 730.9,269.4 L 736.5,268.4 L 742.1,268.2 L 747.7,268.2 L 753.2,267.6 L 758.8,267.6 L 764.4,267.4 L 770.0,267.4" fill="none" stroke="#34C759" stroke-width="2.5" stroke-linejoin="round" clip-path="url(#ca)"/>
<text x="102.7" y="55.0" text-anchor="middle" font-size="9" fill="#4F8EF7" opacity="0.85" clip-path="url(#ca)">+0.5% (+8)</text>
<text x="102.7" y="66.0" text-anchor="middle" font-size="9" fill="#BF5AF2" opacity="0.85" clip-path="url(#ca)">+1.0% (+10)</text>
<text x="102.7" y="77.0" text-anchor="middle" font-size="9" fill="#34C759" opacity="0.85" clip-path="url(#ca)">+1.5% (+11)</text>
<text x="208.8" y="55.0" text-anchor="middle" font-size="9" fill="#4F8EF7" opacity="0.85" clip-path="url(#ca)">+4.0% (+65)</text>
<text x="208.8" y="66.0" text-anchor="middle" font-size="9" fill="#BF5AF2" opacity="0.85" clip-path="url(#ca)">+3.5% (+35)</text>
<text x="208.8" y="77.0" text-anchor="middle" font-size="9" fill="#34C759" opacity="0.85" clip-path="url(#ca)">+3.6% (+27)</text>
<text x="356.8" y="55.0" text-anchor="middle" font-size="9" fill="#4F8EF7" opacity="0.85" clip-path="url(#ca)">+4.1% (+70)</text>
<text x="356.8" y="66.0" text-anchor="middle" font-size="9" fill="#BF5AF2" opacity="0.85" clip-path="url(#ca)">+3.5% (+36)</text>
<text x="356.8" y="77.0" text-anchor="middle" font-size="9" fill="#34C759" opacity="0.85" clip-path="url(#ca)">+3.3% (+26)</text>
<text x="507.6" y="55.0" text-anchor="middle" font-size="9" fill="#4F8EF7" opacity="0.85" clip-path="url(#ca)">+3.5% (+61)</text>
<text x="507.6" y="66.0" text-anchor="middle" font-size="9" fill="#BF5AF2" opacity="0.85" clip-path="url(#ca)">+2.7% (+29)</text>
<text x="507.6" y="77.0" text-anchor="middle" font-size="9" fill="#34C759" opacity="0.85" clip-path="url(#ca)">+2.6% (+21)</text>
<text x="658.3" y="55.0" text-anchor="middle" font-size="9" fill="#4F8EF7" opacity="0.85" clip-path="url(#ca)">+2.7% (+49)</text>
<text x="658.3" y="66.0" text-anchor="middle" font-size="9" fill="#BF5AF2" opacity="0.85" clip-path="url(#ca)">+3.0% (+33)</text>
<text x="658.3" y="77.0" text-anchor="middle" font-size="9" fill="#34C759" opacity="0.85" clip-path="url(#ca)">+3.2% (+27)</text>
<text x="753.2" y="55.0" text-anchor="middle" font-size="9" fill="#4F8EF7" opacity="0.85" clip-path="url(#ca)">+0.5% (+10)</text>
<text x="753.2" y="66.0" text-anchor="middle" font-size="9" fill="#BF5AF2" opacity="0.85" clip-path="url(#ca)">+0.6% (+7)</text>
<text x="753.2" y="77.0" text-anchor="middle" font-size="9" fill="#34C759" opacity="0.85" clip-path="url(#ca)">+0.6% (+5)</text>
<rect x="211" y="369" width="12" height="12" fill="#4F8EF7" rx="2"/>
<text x="227" y="379" font-size="12" fill="#111827">Authors</text>
<rect x="351" y="369" width="12" height="12" fill="#BF5AF2" rx="2"/>
<text x="367" y="379" font-size="12" fill="#111827">Contributors</text>
<rect x="491" y="369" width="12" height="12" fill="#34C759" rx="2"/>
<text x="507" y="379" font-size="12" fill="#111827">Non-author contributors</text>
<text x="72" y="394" font-size="8" fill="#e5e7eb">data since Dec 11, 2025</text>
</svg>