<svg xmlns="http://www.w3.org/2000/svg" width="800" height="400" viewBox="0 0 800 400">
<defs>
  <style>text { font-family: -apple-system, BlinkMacSystemFont, 'Segoe UI', Roboto, sans-serif; }</style>
  <linearGradient id="g2" x1="0" y1="0" x2="0" y2="1">
  <stop offset="0%" stop-color="#4F8EF7" stop-opacity="0.25"/>
  <stop offset="100%" stop-color="#4F8EF7" stop-opacity="0"/>
</linearGradient>
<linearGradient id="g3" x1="0" y1="0" x2="0" y2="1">
  <stop offset="0%" stop-color="#BF5AF2" stop-opacity="0.25"/>
  <stop offset="100%" stop-color="#BF5AF2" stop-opacity="0"/>
</linearGradient>
<linearGradient id="g4" x1="0" y1="0" x2="0" y2="1">
  <stop offset="0%" stop-color="#34C759" stop-opacity="0.25"/>
  <stop offset="100%" stop-color="#34C759" stop-opacity="0"/>
</linearGradient>
  <clipPath id="ca"><rect x="72" y="45" width="698" height="295"/></clipPath>
</defs>
<rect width="800" height="400" fill="#ffffff" rx="12"/>
<text x="400" y="26" text-anchor="middle" font-size="15" font-weight="600" fill="#111827">Community Growth Over Time</text>
<line x1="72" y1="340.0" x2="770" y2="340.0" stroke="#f3f4f6" stroke-width="1"/>
<text x="66" y="344.0" text-anchor="end" font-size="11" fill="#6b7280">500</text>
<line x1="72" y1="241.7" x2="770" y2="241.7" stroke="#f3f4f6" stroke-width="1"/>
<text x="66" y="245.7" text-anchor="end" font-size="11" fill="#6b7280">1.0k</text>
<line x1="72" y1="143.3" x2="770" y2="143.3" stroke="#f3f4f6" stroke-width="1"/>
<text x="66" y="147.3" text-anchor="end" font-size="11" fill="#6b7280">1.5k</text>
<line x1="72" y1="45.0" x2="770" y2="45.0" stroke="#f3f4f6" stroke-width="1"/>
<text x="66" y="49.0" text-anchor="end" font-size="11" fill="#6b7280">2.0k</text>
<line x1="121.0" y1="45" x2="121.0" y2="340" stroke="#e5e7eb" stroke-width="1" stroke-dasharray="3,3" clip-path="url(#ca)"/>
<line x1="227.1" y1="45" x2="227.1" y2="340" stroke="#e5e7eb" stroke-width="1" stroke-dasharray="3,3" clip-path="url(#ca)"/>
<line x1="337.3" y1="45" x2="337.3" y2="340" stroke="#e5e7eb" stroke-width="1" stroke-dasharray="3,3" clip-path="url(#ca)"/>
<line x1="447.5" y1="45" x2="447.5" y2="340" stroke="#e5e7eb" stroke-width="1" stroke-dasharray="3,3" clip-path="url(#ca)"/>
<line x1="557.7" y1="45" x2="557.7" y2="340" stroke="#e5e7eb" stroke-width="1" stroke-dasharray="3,3" clip-path="url(#ca)"/>
<line x1="663.9" y1="45" x2="663.9" y2="340" stroke="#e5e7eb" stroke-width="1" stroke-dasharray="3,3" clip-path="url(#ca)"/>
<line x1="761.8" y1="45" x2="761.8" y2="340" stroke="#e5e7eb" stroke-width="1" stroke-dasharray="3,3" clip-path="url(#ca)"/>
<text x="72.0" y="358.0" text-anchor="middle" font-size="11" fill="#6b7280">Dec 11</text>
<text x="210.8" y="358.0" text-anchor="middle" font-size="11" fill="#6b7280">Jan 28</text>
<text x="349.6" y="358.0" text-anchor="middle" font-size="11" fill="#6b7280">Mar 4</text>
<text x="492.4" y="358.0" text-anchor="middle" font-size="11" fill="#6b7280">Apr 13</text>
<text x="631.2" y="358.0" text-anchor="middle" font-size="11" fill="#6b7280">May 24</text>
<text x="770.0" y="358.0" text-anchor="middle" font-size="11" fill="#6b7280">Jul 3</text>
<line x1="72" y1="45" x2="72" y2="340" stroke="#e5e7eb" stroke-width="1"/>
<line x1="72" y1="340" x2="770" y2="340" stroke="#e5e7eb" stroke-width="1"/>
<text x="-192.5" y="18" text-anchor="middle" font-size="12" fill="#6b7280" transform="rotate(-90)">People</text>
<path d="M 72.0,340 L 72.0,120.1 L 76.1,120.1 L 80.2,120.1 L 84.2,119.5 L 88.3,119.5 L 92.4,119.1 L 96.5,118.9 L 100.6,119.1 L 104.7,118.6 L 108.7,118.6 L 112.8,118.6 L 116.9,118.6 L 121.0,118.6 L 125.1,118.6 L 129.1,118.6 L 133.2,118.6 L 137.3,118.4 L 141.4,117.8 L 145.5,116.6 L 149.6,116.0 L 153.6,115.8 L 157.7,115.8 L 161.8,115.2 L 165.9,113.8 L 170.0,113.0 L 174.0,113.0 L 178.1,112.1 L 182.2,111.7 L 186.3,110.9 L 190.4,110.3 L 194.5,109.7 L 198.5,109.1 L 202.6,109.1 L 206.7,107.7 L 210.8,106.9 L 214.9,106.9 L 218.9,106.2 L 223.0,105.8 L 227.1,105.6 L 231.2,105.4 L 235.3,105.4 L 239.4,104.8 L 243.4,102.4 L 247.5,101.0 L 251.6,100.3 L 255.7,100.1 L 259.8,99.7 L 263.8,98.9 L 267.9,98.5 L 272.0,98.1 L 276.1,97.7 L 280.2,97.3 L 284.3,96.9 L 288.3,96.9 L 292.4,95.0 L 296.5,95.0 L 300.6,94.8 L 304.7,94.6 L 308.7,94.2 L 312.8,94.2 L 316.9,93.2 L 321.0,92.0 L 325.1,91.6 L 329.2,92.0 L 333.2,91.8 L 337.3,91.6 L 341.4,91.6 L 345.5,91.2 L 349.6,90.4 L 353.6,90.0 L 357.7,89.6 L 361.8,89.4 L 365.9,89.4 L 370.0,88.7 L 374.1,88.3 L 378.1,88.3 L 382.2,86.7 L 386.3,86.7 L 390.4,86.7 L 394.5,86.7 L 398.5,86.5 L 402.6,85.9 L 406.7,85.1 L 410.8,84.7 L 414.9,84.7 L 419.0,84.3 L 423.0,82.8 L 427.1,81.8 L 431.2,81.6 L 435.3,81.4 L 439.4,80.8 L 443.5,79.6 L 447.5,79.2 L 451.6,78.8 L 455.7,77.6 L 459.8,77.4 L 463.9,77.4 L 467.9,77.4 L 472.0,77.3 L 476.1,76.1 L 480.2,75.9 L 484.3,75.7 L 488.4,75.7 L 492.4,75.3 L 496.5,73.7 L 500.6,73.5 L 504.7,73.3 L 508.8,73.3 L 512.8,72.5 L 516.9,72.3 L 521.0,72.1 L 525.1,71.6 L 529.2,70.8 L 533.3,70.8 L 537.3,70.8 L 541.4,70.8 L 545.5,70.4 L 549.6,69.8 L 553.7,69.6 L 557.7,69.0 L 561.8,68.8 L 565.9,68.6 L 570.0,67.8 L 574.1,67.2 L 578.2,67.0 L 582.2,67.0 L 586.3,65.3 L 590.4,64.7 L 594.5,64.5 L 598.6,64.5 L 602.6,63.5 L 606.7,63.5 L 610.8,62.9 L 614.9,62.3 L 619.0,60.9 L 623.1,60.7 L 627.1,60.5 L 631.2,60.3 L 635.3,60.3 L 639.4,60.1 L 643.5,59.2 L 647.5,58.6 L 651.6,58.6 L 655.7,58.4 L 659.8,58.4 L 663.9,57.8 L 668.0,57.6 L 672.0,57.4 L 676.1,56.8 L 680.2,56.0 L 684.3,56.0 L 688.4,55.8 L 692.4,55.6 L 696.5,54.6 L 700.6,53.3 L 704.7,53.1 L 708.8,52.7 L 712.9,52.3 L 716.9,52.1 L 721.0,51.5 L 725.1,50.7 L 729.2,50.5 L 733.3,49.9 L 737.3,49.5 L 741.4,48.5 L 745.5,48.3 L 749.6,47.9 L 753.7,47.9 L 757.8,47.6 L 761.8,47.2 L 765.9,46.8 L 770.0,46.6 L 770.0,340 Z" fill="url(#g2)" clip-path="url(#ca)"/>
<path d="M 72.0,120.1 L 76.1,120.1 L 80.2,120.1 L 84.2,119.5 L 88.3,119.5 L 92.4,119.1 L 96.5,118.9 L 100.6,119.1 L 104.7,118.6 L 108.7,118.6 L 112.8,118.6 L 116.9,118.6 L 121.0,118.6 L 125.1,118.6 L 129.1,118.6 L 133.2,118.6 L 137.3,118.4 L 141.4,117.8 L 145.5,116.6 L 149.6,116.0 L 153.6,115.8 L 157.7,115.8 L 161.8,115.2 L 165.9,113.8 L 170.0,113.0 L 174.0,113.0 L 178.1,112.1 L 182.2,111.7 L 186.3,110.9 L 190.4,110.3 L 194.5,109.7 L 198.5,109.1 L 202.6,109.1 L 206.7,107.7 L 210.8,106.9 L 214.9,106.9 L 218.9,106.2 L 223.0,105.8 L 227.1,105.6 L 231.2,105.4 L 235.3,105.4 L 239.4,104.8 L 243.4,102.4 L 247.5,101.0 L 251.6,100.3 L 255.7,100.1 L 259.8,99.7 L 263.8,98.9 L 267.9,98.5 L 272.0,98.1 L 276.1,97.7 L 280.2,97.3 L 284.3,96.9 L 288.3,96.9 L 292.4,95.0 L 296.5,95.0 L 300.6,94.8 L 304.7,94.6 L 308.7,94.2 L 312.8,94.2 L 316.9,93.2 L 321.0,92.0 L 325.1,91.6 L 329.2,92.0 L 333.2,91.8 L 337.3,91.6 L 341.4,91.6 L 345.5,91.2 L 349.6,90.4 L 353.6,90.0 L 357.7,89.6 L 361.8,89.4 L 365.9,89.4 L 370.0,88.7 L 374.1,88.3 L 378.1,88.3 L 382.2,86.7 L 386.3,86.7 L 390.4,86.7 L 394.5,86.7 L 398.5,86.5 L 402.6,85.9 L 406.7,85.1 L 410.8,84.7 L 414.9,84.7 L 419.0,84.3 L 423.0,82.8 L 427.1,81.8 L 431.2,81.6 L 435.3,81.4 L 439.4,80.8 L 443.5,79.6 L 447.5,79.2 L 451.6,78.8 L 455.7,77.6 L 459.8,77.4 L 463.9,77.4 L 467.9,77.4 L 472.0,77.3 L 476.1,76.1 L 480.2,75.9 L 484.3,75.7 L 488.4,75.7 L 492.4,75.3 L 496.5,73.7 L 500.6,73.5 L 504.7,73.3 L 508.8,73.3 L 512.8,72.5 L 516.9,72.3 L 521.0,72.1 L 525.1,71.6 L 529.2,70.8 L 533.3,70.8 L 537.3,70.8 L 541.4,70.8 L 545.5,70.4 L 549.6,69.8 L 553.7,69.6 L 557.7,69.0 L 561.8,68.8 L 565.9,68.6 L 570.0,67.8 L 574.1,67.2 L 578.2,67.0 L 582.2,67.0 L 586.3,65.3 L 590.4,64.7 L 594.5,64.5 L 598.6,64.5 L 602.6,63.5 L 606.7,63.5 L 610.8,62.9 L 614.9,62.3 L 619.0,60.9 L 623.1,60.7 L 627.1,60.5 L 631.2,60.3 L 635.3,60.3 L 639.4,60.1 L 643.5,59.2 L 647.5,58.6 L 651.6,58.6 L 655.7,58.4 L 659.8,58.4 L 663.9,57.8 L 668.0,57.6 L 672.0,57.4 L 676.1,56.8 L 680.2,56.0 L 684.3,56.0 L 688.4,55.8 L 692.4,55.6 L 696.5,54.6 L 700.6,53.3 L 704.7,53.1 L 708.8,52.7 L 712.9,52.3 L 716.9,52.1 L 721.0,51.5 L 725.1,50.7 L 729.2,50.5 L 733.3,49.9 L 737.3,49.5 L 741.4,48.5 L 745.5,48.3 L 749.6,47.9 L 753.7,47.9 L 757.8,47.6 L 761.8,47.2 L 765.9,46.8 L 770.0,46.6" fill="none" stroke="#4F8EF7" stroke-width="2.5" stroke-linejoin="round" clip-path="url(#ca)"/>
<path d="M 72.0,340 L 72.0,244.2 L 76.1,243.6 L 80.2,243.6 L 84.2,243.6 L 88.3,243.4 L 92.4,243.0 L 96.5,242.8 L 100.6,242.6 L 104.7,242.6 L 108.7,242.5 L 112.8,242.3 L 116.9,242.3 L 121.0,242.3 L 125.1,242.3 L 129.1,242.3 L 133.2,242.3 L 137.3,241.9 L 141.4,241.9 L 145.5,241.9 L 149.6,241.1 L 153.6,240.9 L 157.7,240.5 L 161.8,239.7 L 165.9,239.5 L 170.0,239.5 L 174.0,239.5 L 178.1,238.9 L 182.2,238.5 L 186.3,238.5 L 190.4,238.1 L 194.5,237.9 L 198.5,237.5 L 202.6,237.5 L 206.7,237.3 L 210.8,236.6 L 214.9,236.0 L 218.9,235.6 L 223.0,235.4 L 227.1,235.4 L 231.2,235.2 L 235.3,234.8 L 239.4,234.8 L 243.4,234.6 L 247.5,234.0 L 251.6,233.6 L 255.7,233.6 L 259.8,233.6 L 263.8,233.6 L 267.9,233.4 L 272.0,232.8 L 276.1,232.4 L 280.2,232.2 L 284.3,232.0 L 288.3,231.8 L 292.4,231.6 L 296.5,231.4 L 300.6,231.2 L 304.7,230.7 L 308.7,230.5 L 312.8,230.3 L 316.9,229.5 L 321.0,228.7 L 325.1,228.7 L 329.2,228.5 L 333.2,228.3 L 337.3,228.3 L 341.4,228.3 L 345.5,227.9 L 349.6,227.9 L 353.6,226.7 L 357.7,226.5 L 361.8,226.3 L 365.9,226.3 L 370.0,225.9 L 374.1,225.7 L 378.1,225.7 L 382.2,225.5 L 386.3,225.5 L 390.4,225.5 L 394.5,225.1 L 398.5,224.9 L 402.6,224.0 L 406.7,224.2 L 410.8,224.0 L 414.9,223.8 L 419.0,223.8 L 423.0,223.6 L 427.1,223.0 L 431.2,223.0 L 435.3,223.0 L 439.4,223.0 L 443.5,222.6 L 447.5,222.6 L 451.6,222.2 L 455.7,221.8 L 459.8,221.0 L 463.9,221.0 L 467.9,220.6 L 472.0,220.4 L 476.1,220.2 L 480.2,220.0 L 484.3,219.6 L 488.4,219.6 L 492.4,219.1 L 496.5,219.1 L 500.6,218.9 L 504.7,218.5 L 508.8,218.3 L 512.8,218.3 L 516.9,218.3 L 521.0,218.3 L 525.1,218.3 L 529.2,217.7 L 533.3,217.7 L 537.3,217.3 L 541.4,216.9 L 545.5,216.3 L 549.6,216.1 L 553.7,216.1 L 557.7,214.9 L 561.8,214.7 L 565.9,214.7 L 570.0,213.9 L 574.1,213.9 L 578.2,213.5 L 582.2,213.5 L 586.3,213.3 L 590.4,213.3 L 594.5,213.2 L 598.6,212.8 L 602.6,212.8 L 606.7,212.6 L 610.8,212.4 L 614.9,212.2 L 619.0,212.0 L 623.1,212.0 L 627.1,211.6 L 631.2,211.6 L 635.3,211.6 L 639.4,210.6 L 643.5,210.6 L 647.5,210.6 L 651.6,210.6 L 655.7,210.6 L 659.8,210.6 L 663.9,210.2 L 668.0,210.2 L 672.0,209.8 L 676.1,209.0 L 680.2,208.6 L 684.3,208.4 L 688.4,208.4 L 692.4,208.2 L 696.5,207.6 L 700.6,207.4 L 704.7,207.4 L 708.8,207.1 L 712.9,206.5 L 716.9,206.1 L 721.0,206.1 L 725.1,205.9 L 729.2,205.9 L 733.3,205.3 L 737.3,205.1 L 741.4,205.1 L 745.5,204.7 L 749.6,204.7 L 753.7,204.3 L 757.8,203.7 L 761.8,203.7 L 765.9,203.5 L 770.0,203.3 L 770.0,340 Z" fill="url(#g3)" clip-path="url(#ca)"/>
<path d="M 72.0,244.2 L 76.1,243.6 L 80.2,243.6 L 84.2,243.6 L 88.3,243.4 L 92.4,243.0 L 96.5,242.8 L 100.6,242.6 L 104.7,242.6 L 108.7,242.5 L 112.8,242.3 L 116.9,242.3 L 121.0,242.3 L 125.1,242.3 L 129.1,242.3 L 133.2,242.3 L 137.3,241.9 L 141.4,241.9 L 145.5,241.9 L 149.6,241.1 L 153.6,240.9 L 157.7,240.5 L 161.8,239.7 L 165.9,239.5 L 170.0,239.5 L 174.0,239.5 L 178.1,238.9 L 182.2,238.5 L 186.3,238.5 L 190.4,238.1 L 194.5,237.9 L 198.5,237.5 L 202.6,237.5 L 206.7,237.3 L 210.8,236.6 L 214.9,236.0 L 218.9,235.6 L 223.0,235.4 L 227.1,235.4 L 231.2,235.2 L 235.3,234.8 L 239.4,234.8 L 243.4,234.6 L 247.5,234.0 L 251.6,233.6 L 255.7,233.6 L 259.8,233.6 L 263.8,233.6 L 267.9,233.4 L 272.0,232.8 L 276.1,232.4 L 280.2,232.2 L 284.3,232.0 L 288.3,231.8 L 292.4,231.6 L 296.5,231.4 L 300.6,231.2 L 304.7,230.7 L 308.7,230.5 L 312.8,230.3 L 316.9,229.5 L 321.0,228.7 L 325.1,228.7 L 329.2,228.5 L 333.2,228.3 L 337.3,228.3 L 341.4,228.3 L 345.5,227.9 L 349.6,227.9 L 353.6,226.7 L 357.7,226.5 L 361.8,226.3 L 365.9,226.3 L 370.0,225.9 L 374.1,225.7 L 378.1,225.7 L 382.2,225.5 L 386.3,225.5 L 390.4,225.5 L 394.5,225.1 L 398.5,224.9 L 402.6,224.0 L 406.7,224.2 L 410.8,224.0 L 414.9,223.8 L 419.0,223.8 L 423.0,223.6 L 427.1,223.0 L 431.2,223.0 L 435.3,223.0 L 439.4,223.0 L 443.5,222.6 L 447.5,222.6 L 451.6,222.2 L 455.7,221.8 L 459.8,221.0 L 463.9,221.0 L 467.9,220.6 L 472.0,220.4 L 476.1,220.2 L 480.2,220.0 L 484.3,219.6 L 488.4,219.6 L 492.4,219.1 L 496.5,219.1 L 500.6,218.9 L 504.7,218.5 L 508.8,218.3 L 512.8,218.3 L 516.9,218.3 L 521.0,218.3 L 525.1,218.3 L 529.2,217.7 L 533.3,217.7 L 537.3,217.3 L 541.4,216.9 L 545.5,216.3 L 549.6,216.1 L 553.7,216.1 L 557.7,214.9 L 561.8,214.7 L 565.9,214.7 L 570.0,213.9 L 574.1,213.9 L 578.2,213.5 L 582.2,213.5 L 586.3,213.3 L 590.4,213.3 L 594.5,213.2 L 598.6,212.8 L 602.6,212.8 L 606.7,212.6 L 610.8,212.4 L 614.9,212.2 L 619.0,212.0 L 623.1,212.0 L 627.1,211.6 L 631.2,211.6 L 635.3,211.6 L 639.4,210.6 L 643.5,210.6 L 647.5,210.6 L 651.6,210.6 L 655.7,210.6 L 659.8,210.6 L 663.9,210.2 L 668.0,210.2 L 672.0,209.8 L 676.1,209.0 L 680.2,208.6 L 684.3,208.4 L 688.4,208.4 L 692.4,208.2 L 696.5,207.6 L 700.6,207.4 L 704.7,207.4 L 708.8,207.1 L 712.9,206.5 L 716.9,206.1 L 721.0,206.1 L 725.1,205.9 L 729.2,205.9 L 733.3,205.3 L 737.3,205.1 L 741.4,205.1 L 745.5,204.7 L 749.6,204.7 L 753.7,204.3 L 757.8,203.7 L 761.8,203.7 L 765.9,203.5 L 770.0,203.3" fill="none" stroke="#BF5AF2" stroke-width="2.5" stroke-linejoin="round" clip-path="url(#ca)"/>
<path d="M 72.0,340 L 72.0,291.4 L 76.1,290.8 L 80.2,290.8 L 84.2,290.8 L 88.3,290.6 L 92.4,290.2 L 96.5,290.0 L 100.6,289.7 L 104.7,289.7 L 108.7,289.5 L 112.8,289.3 L 116.9,289.3 L 121.0,289.3 L 125.1,289.3 L 129.1,289.3 L 133.2,289.3 L 137.3,288.9 L 141.4,288.9 L 145.5,289.1 L 149.6,288.5 L 153.6,288.7 L 157.7,288.1 L 161.8,287.5 L 165.9,287.3 L 170.0,287.5 L 174.0,287.5 L 178.1,286.9 L 182.2,286.7 L 186.3,286.7 L 190.4,286.3 L 194.5,286.1 L 198.5,285.7 L 202.6,285.7 L 206.7,285.5 L 210.8,284.9 L 214.9,284.3 L 218.9,283.9 L 223.0,283.9 L 227.1,283.9 L 231.2,283.8 L 235.3,283.4 L 239.4,283.4 L 243.4,283.2 L 247.5,282.6 L 251.6,282.4 L 255.7,282.4 L 259.8,282.4 L 263.8,282.4 L 267.9,282.2 L 272.0,281.6 L 276.1,281.4 L 280.2,281.2 L 284.3,281.0 L 288.3,281.0 L 292.4,280.8 L 296.5,280.8 L 300.6,280.8 L 304.7,280.2 L 308.7,280.2 L 312.8,280.2 L 316.9,279.8 L 321.0,279.2 L 325.1,279.2 L 329.2,279.0 L 333.2,278.8 L 337.3,278.8 L 341.4,278.8 L 345.5,278.4 L 349.6,278.4 L 353.6,277.3 L 357.7,277.1 L 361.8,276.9 L 365.9,276.9 L 370.0,276.7 L 374.1,276.7 L 378.1,276.7 L 382.2,276.7 L 386.3,276.7 L 390.4,276.7 L 394.5,276.3 L 398.5,276.1 L 402.6,275.1 L 406.7,275.3 L 410.8,275.3 L 414.9,275.1 L 419.0,275.1 L 423.0,275.1 L 427.1,274.7 L 431.2,274.7 L 435.3,274.7 L 439.4,274.7 L 443.5,274.7 L 447.5,274.7 L 451.6,274.5 L 455.7,274.5 L 459.8,273.7 L 463.9,273.7 L 467.9,273.5 L 472.0,273.3 L 476.1,273.1 L 480.2,272.9 L 484.3,272.5 L 488.4,272.5 L 492.4,272.0 L 496.5,272.0 L 500.6,271.8 L 504.7,271.6 L 508.8,271.6 L 512.8,271.6 L 516.9,271.6 L 521.0,271.6 L 525.1,271.6 L 529.2,271.0 L 533.3,271.0 L 537.3,270.6 L 541.4,270.2 L 545.5,269.6 L 549.6,269.4 L 553.7,269.4 L 557.7,268.4 L 561.8,268.2 L 565.9,268.2 L 570.0,267.6 L 574.1,267.6 L 578.2,267.4 L 582.2,267.4 L 586.3,267.6 L 590.4,267.8 L 594.5,267.6 L 598.6,267.2 L 602.6,267.4 L 606.7,267.2 L 610.8,267.0 L 614.9,267.0 L 619.0,267.0 L 623.1,267.0 L 627.1,266.6 L 631.2,266.6 L 635.3,266.6 L 639.4,265.9 L 643.5,265.9 L 647.5,265.9 L 651.6,265.9 L 655.7,265.9 L 659.8,265.9 L 663.9,265.5 L 668.0,265.5 L 672.0,265.1 L 676.1,264.3 L 680.2,264.1 L 684.3,264.1 L 688.4,264.1 L 692.4,264.1 L 696.5,263.7 L 700.6,263.5 L 704.7,263.5 L 708.8,263.3 L 712.9,262.7 L 716.9,262.3 L 721.0,262.3 L 725.1,262.1 L 729.2,262.1 L 733.3,261.9 L 737.3,261.7 L 741.4,261.7 L 745.5,261.5 L 749.6,261.5 L 753.7,261.1 L 757.8,260.5 L 761.8,260.5 L 765.9,260.4 L 770.0,260.5 L 770.0,340 Z" fill="url(#g4)" clip-path="url(#ca)"/>
<path d="M 72.0,291.4 L 76.1,290.8 L 80.2,290.8 L 84.2,290.8 L 88.3,290.6 L 92.4,290.2 L 96.5,290.0 L 100.6,289.7 L 104.7,289.7 L 108.7,289.5 L 112.8,289.3 L 116.9,289.3 L 121.0,289.3 L 125.1,289.3 L 129.1,289.3 L 133.2,289.3 L 137.3,288.9 L 141.4,288.9 L 145.5,289.1 L 149.6,288.5 L 153.6,288.7 L 157.7,288.1 L 161.8,287.5 L 165.9,287.3 L 170.0,287.5 L 174.0,287.5 L 178.1,286.9 L 182.2,286.7 L 186.3,286.7 L 190.4,286.3 L 194.5,286.1 L 198.5,285.7 L 202.6,285.7 L 206.7,285.5 L 210.8,284.9 L 214.9,284.3 L 218.9,283.9 L 223.0,283.9 L 227.1,283.9 L 231.2,283.8 L 235.3,283.4 L 239.4,283.4 L 243.4,283.2 L 247.5,282.6 L 251.6,282.4 L 255.7,282.4 L 259.8,282.4 L 263.8,282.4 L 267.9,282.2 L 272.0,281.6 L 276.1,281.4 L 280.2,281.2 L 284.3,281.0 L 288.3,281.0 L 292.4,280.8 L 296.5,280.8 L 300.6,280.8 L 304.7,280.2 L 308.7,280.2 L 312.8,280.2 L 316.9,279.8 L 321.0,279.2 L 325.1,279.2 L 329.2,279.0 L 333.2,278.8 L 337.3,278.8 L 341.4,278.8 L 345.5,278.4 L 349.6,278.4 L 353.6,277.3 L 357.7,277.1 L 361.8,276.9 L 365.9,276.9 L 370.0,276.7 L 374.1,276.7 L 378.1,276.7 L 382.2,276.7 L 386.3,276.7 L 390.4,276.7 L 394.5,276.3 L 398.5,276.1 L 402.6,275.1 L 406.7,275.3 L 410.8,275.3 L 414.9,275.1 L 419.0,275.1 L 423.0,275.1 L 427.1,274.7 L 431.2,274.7 L 435.3,274.7 L 439.4,274.7 L 443.5,274.7 L 447.5,274.7 L 451.6,274.5 L 455.7,274.5 L 459.8,273.7 L 463.9,273.7 L 467.9,273.5 L 472.0,273.3 L 476.1,273.1 L 480.2,272.9 L 484.3,272.5 L 488.4,272.5 L 492.4,272.0 L 496.5,272.0 L 500.6,271.8 L 504.7,271.6 L 508.8,271.6 L 512.8,271.6 L 516.9,271.6 L 521.0,271.6 L 525.1,271.6 L 529.2,271.0 L 533.3,271.0 L 537.3,270.6 L 541.4,270.2 L 545.5,269.6 L 549.6,269.4 L 553.7,269.4 L 557.7,268.4 L 561.8,268.2 L 565.9,268.2 L 570.0,267.6 L 574.1,267.6 L 578.2,267.4 L 582.2,267.4 L 586.3,267.6 L 590.4,267.8 L 594.5,267.6 L 598.6,267.2 L 602.6,267.4 L 606.7,267.2 L 610.8,267.0 L 614.9,267.0 L 619.0,267.0 L 623.1,267.0 L 627.1,266.6 L 631.2,266.6 L 635.3,266.6 L 639.4,265.9 L 643.5,265.9 L 647.5,265.9 L 651.6,265.9 L 655.7,265.9 L 659.8,265.9 L 663.9,265.5 L 668.0,265.5 L 672.0,265.1 L 676.1,264.3 L 680.2,264.1 L 684.3,264.1 L 688.4,264.1 L 692.4,264.1 L 696.5,263.7 L 700.6,263.5 L 704.7,263.5 L 708.8,263.3 L 712.9,262.7 L 716.9,262.3 L 721.0,262.3 L 725.1,262.1 L 729.2,262.1 L 733.3,261.9 L 737.3,261.7 L 741.4,261.7 L 745.5,261.5 L 749.6,261.5 L 753.7,261.1 L 757.8,260.5 L 761.8,260.5 L 765.9,260.4 L 770.0,260.5" fill="none" stroke="#34C759" stroke-width="2.5" stroke-linejoin="round" clip-path="url(#ca)"/>
<text x="94.5" y="55.0" text-anchor="middle" font-size="9" fill="#4F8EF7" opacity="0.85" clip-path="url(#ca)">+0.5% (+8)</text>
<text x="94.5" y="66.0" text-anchor="middle" font-size="9" fill="#BF5AF2" opacity="0.85" clip-path="url(#ca)">+1.0% (+10)</text>
<text x="94.5" y="77.0" text-anchor="middle" font-size="9" fill="#34C759" opacity="0.85" clip-path="url(#ca)">+1.5% (+11)</text>
<text x="172.0" y="55.0" text-anchor="middle" font-size="9" fill="#4F8EF7" opacity="0.85" clip-path="url(#ca)">+4.0% (+65)</text>
<text x="172.0" y="66.0" text-anchor="middle" font-size="9" fill="#BF5AF2" opacity="0.85" clip-path="url(#ca)">+3.5% (+35)</text>
<text x="172.0" y="77.0" text-anchor="middle" font-size="9" fill="#34C759" opacity="0.85" clip-path="url(#ca)">+3.6% (+27)</text>
<text x="280.2" y="55.0" text-anchor="middle" font-size="9" fill="#4F8EF7" opacity="0.85" clip-path="url(#ca)">+4.1% (+70)</text>
<text x="280.2" y="66.0" text-anchor="middle" font-size="9" fill="#BF5AF2" opacity="0.85" clip-path="url(#ca)">+3.5% (+36)</text>
<text x="280.2" y="77.0" text-anchor="middle" font-size="9" fill="#34C759" opacity="0.85" clip-path="url(#ca)">+3.3% (+26)</text>
<text x="390.4" y="55.0" text-anchor="middle" font-size="9" fill="#4F8EF7" opacity="0.85" clip-path="url(#ca)">+3.5% (+61)</text>
<text x="390.4" y="66.0" text-anchor="middle" font-size="9" fill="#BF5AF2" opacity="0.85" clip-path="url(#ca)">+2.7% (+29)</text>
<text x="390.4" y="77.0" text-anchor="middle" font-size="9" fill="#34C759" opacity="0.85" clip-path="url(#ca)">+2.6% (+21)</text>
<text x="500.6" y="55.0" text-anchor="middle" font-size="9" fill="#4F8EF7" opacity="0.85" clip-path="url(#ca)">+2.7% (+49)</text>
<text x="500.6" y="66.0" text-anchor="middle" font-size="9" fill="#BF5AF2" opacity="0.85" clip-path="url(#ca)">+3.0% (+33)</text>
<text x="500.6" y="77.0" text-anchor="middle" font-size="9" fill="#34C759" opacity="0.85" clip-path="url(#ca)">+3.2% (+27)</text>
<text x="608.8" y="55.0" text-anchor="middle" font-size="9" fill="#4F8EF7" opacity="0.85" clip-path="url(#ca)">+2.9% (+54)</text>
<text x="608.8" y="66.0" text-anchor="middle" font-size="9" fill="#BF5AF2" opacity="0.85" clip-path="url(#ca)">+1.9% (+22)</text>
<text x="608.8" y="77.0" text-anchor="middle" font-size="9" fill="#34C759" opacity="0.85" clip-path="url(#ca)">+1.5% (+13)</text>
<text x="710.8" y="55.0" text-anchor="middle" font-size="9" fill="#4F8EF7" opacity="0.85" clip-path="url(#ca)">+2.7% (+52)</text>
<text x="710.8" y="66.0" text-anchor="middle" font-size="9" fill="#BF5AF2" opacity="0.85" clip-path="url(#ca)">+2.8% (+33)</text>
<text x="710.8" y="77.0" text-anchor="middle" font-size="9" fill="#34C759" opacity="0.85" clip-path="url(#ca)">+2.8% (+25)</text>
<text x="765.9" y="55.0" text-anchor="middle" font-size="9" fill="#4F8EF7" opacity="0.85" clip-path="url(#ca)">+0.2% (+3)</text>
<text x="765.9" y="66.0" text-anchor="middle" font-size="9" fill="#BF5AF2" opacity="0.85" clip-path="url(#ca)">+0.2% (+2)</text>
<text x="765.9" y="77.0" text-anchor="middle" font-size="9" fill="#34C759" opacity="0.85" clip-path="url(#ca)">+0.0% (+0)</text>
<rect x="211" y="369" width="12" height="12" fill="#4F8EF7" rx="2"/>
<text x="227" y="379" font-size="12" fill="#111827">Authors</text>
<rect x="351" y="369" width="12" height="12" fill="#BF5AF2" rx="2"/>
<text x="367" y="379" font-size="12" fill="#111827">Contributors</text>
<rect x="491" y="369" width="12" height="12" fill="#34C759" rx="2"/>
<text x="507" y="379" font-size="12" fill="#111827">Non-author contributors</text>
<text x="72" y="394" font-size="8" fill="#e5e7eb">data since Dec 11, 2025</text>
</svg>