<svg xmlns="http://www.w3.org/2000/svg" width="800" height="400" viewBox="0 0 800 400">
<defs>
  <style>text { font-family: -apple-system, BlinkMacSystemFont, 'Segoe UI', Roboto, sans-serif; }</style>
  <linearGradient id="g1" x1="0" y1="0" x2="0" y2="1">
  <stop offset="0%" stop-color="#FF6363" stop-opacity="0.25"/>
  <stop offset="100%" stop-color="#FF6363" stop-opacity="0"/>
</linearGradient>
  <clipPath id="ca"><rect x="72" y="45" width="698" height="295"/></clipPath>
</defs>
<rect width="800" height="400" fill="#ffffff" rx="12"/>
<text x="400" y="26" text-anchor="middle" font-size="15" font-weight="600" fill="#111827">Packages Growth Over Time</text>
<line x1="72" y1="340.0" x2="770" y2="340.0" stroke="#f3f4f6" stroke-width="1"/>
<text x="66" y="344.0" text-anchor="end" font-size="11" fill="#6b7280">2.4k</text>
<line x1="72" y1="281.0" x2="770" y2="281.0" stroke="#f3f4f6" stroke-width="1"/>
<text x="66" y="285.0" text-anchor="end" font-size="11" fill="#6b7280">2.5k</text>
<line x1="72" y1="222.0" x2="770" y2="222.0" stroke="#f3f4f6" stroke-width="1"/>
<text x="66" y="226.0" text-anchor="end" font-size="11" fill="#6b7280">2.6k</text>
<line x1="72" y1="163.0" x2="770" y2="163.0" stroke="#f3f4f6" stroke-width="1"/>
<text x="66" y="167.0" text-anchor="end" font-size="11" fill="#6b7280">2.7k</text>
<line x1="72" y1="104.0" x2="770" y2="104.0" stroke="#f3f4f6" stroke-width="1"/>
<text x="66" y="108.0" text-anchor="end" font-size="11" fill="#6b7280">2.7k</text>
<line x1="72" y1="45.0" x2="770" y2="45.0" stroke="#f3f4f6" stroke-width="1"/>
<text x="66" y="49.0" text-anchor="end" font-size="11" fill="#6b7280">2.8k</text>
<line x1="174.1" y1="45" x2="174.1" y2="340" stroke="#e5e7eb" stroke-width="1" stroke-dasharray="3,3" clip-path="url(#ca)"/>
<line x1="395.5" y1="45" x2="395.5" y2="340" stroke="#e5e7eb" stroke-width="1" stroke-dasharray="3,3" clip-path="url(#ca)"/>
<line x1="625.3" y1="45" x2="625.3" y2="340" stroke="#e5e7eb" stroke-width="1" stroke-dasharray="3,3" clip-path="url(#ca)"/>
<text x="72.0" y="358.0" text-anchor="middle" font-size="11" fill="#6b7280">Dec 11</text>
<text x="208.2" y="358.0" text-anchor="middle" font-size="11" fill="#6b7280">Jan 7</text>
<text x="352.9" y="358.0" text-anchor="middle" font-size="11" fill="#6b7280">Jan 27</text>
<text x="489.1" y="358.0" text-anchor="middle" font-size="11" fill="#6b7280">Feb 12</text>
<text x="633.8" y="358.0" text-anchor="middle" font-size="11" fill="#6b7280">Mar 2</text>
<text x="770.0" y="358.0" text-anchor="middle" font-size="11" fill="#6b7280">Mar 19</text>
<line x1="72" y1="45" x2="72" y2="340" stroke="#e5e7eb" stroke-width="1"/>
<line x1="72" y1="340" x2="770" y2="340" stroke="#e5e7eb" stroke-width="1"/>
<text x="-192.5" y="18" text-anchor="middle" font-size="12" fill="#6b7280" transform="rotate(-90)">Extensions</text>
<path d="M 72.0,340 L 72.0,315.4 L 80.5,314.6 L 89.0,314.6 L 97.5,312.0 L 106.0,312.0 L 114.6,310.3 L 123.1,308.6 L 131.6,307.8 L 140.1,303.5 L 148.6,300.2 L 157.1,300.2 L 165.6,300.2 L 174.1,300.2 L 182.7,298.5 L 191.2,298.5 L 199.7,298.5 L 208.2,296.8 L 216.7,293.4 L 225.2,287.4 L 233.7,283.2 L 242.2,281.5 L 250.8,280.7 L 259.3,277.3 L 267.8,267.1 L 276.3,263.7 L 284.8,263.7 L 293.3,255.2 L 301.8,252.7 L 310.3,249.3 L 318.9,246.8 L 327.4,241.7 L 335.9,237.4 L 344.4,236.6 L 352.9,229.8 L 361.4,223.9 L 369.9,223.9 L 378.4,219.6 L 387.0,216.2 L 395.5,215.4 L 404.0,214.5 L 412.5,213.7 L 421.0,211.1 L 429.5,195.9 L 438.0,189.1 L 446.5,185.7 L 455.0,184.0 L 463.6,181.5 L 472.1,175.5 L 480.6,173.9 L 489.1,172.2 L 497.6,167.1 L 506.1,165.4 L 514.6,163.7 L 523.1,163.7 L 531.7,148.4 L 540.2,146.7 L 548.7,145.0 L 557.2,141.6 L 565.7,137.4 L 574.2,137.4 L 582.7,130.6 L 591.2,119.6 L 599.8,117.9 L 608.3,118.8 L 616.8,116.2 L 625.3,115.4 L 633.8,115.4 L 642.3,110.3 L 650.8,106.0 L 659.3,102.6 L 667.9,98.4 L 676.4,97.6 L 684.9,97.6 L 693.4,91.6 L 701.9,89.9 L 710.4,89.1 L 718.9,78.9 L 727.4,78.1 L 736.0,78.1 L 744.5,78.1 L 753.0,77.2 L 761.5,73.0 L 770.0,69.6 L 770.0,340 Z" fill="url(#g1)" clip-path="url(#ca)"/>
<path d="M 72.0,315.4 L 80.5,314.6 L 89.0,314.6 L 97.5,312.0 L 106.0,312.0 L 114.6,310.3 L 123.1,308.6 L 131.6,307.8 L 140.1,303.5 L 148.6,300.2 L 157.1,300.2 L 165.6,300.2 L 174.1,300.2 L 182.7,298.5 L 191.2,298.5 L 199.7,298.5 L 208.2,296.8 L 216.7,293.4 L 225.2,287.4 L 233.7,283.2 L 242.2,281.5 L 250.8,280.7 L 259.3,277.3 L 267.8,267.1 L 276.3,263.7 L 284.8,263.7 L 293.3,255.2 L 301.8,252.7 L 310.3,249.3 L 318.9,246.8 L 327.4,241.7 L 335.9,237.4 L 344.4,236.6 L 352.9,229.8 L 361.4,223.9 L 369.9,223.9 L 378.4,219.6 L 387.0,216.2 L 395.5,215.4 L 404.0,214.5 L 412.5,213.7 L 421.0,211.1 L 429.5,195.9 L 438.0,189.1 L 446.5,185.7 L 455.0,184.0 L 463.6,181.5 L 472.1,175.5 L 480.6,173.9 L 489.1,172.2 L 497.6,167.1 L 506.1,165.4 L 514.6,163.7 L 523.1,163.7 L 531.7,148.4 L 540.2,146.7 L 548.7,145.0 L 557.2,141.6 L 565.7,137.4 L 574.2,137.4 L 582.7,130.6 L 591.2,119.6 L 599.8,117.9 L 608.3,118.8 L 616.8,116.2 L 625.3,115.4 L 633.8,115.4 L 642.3,110.3 L 650.8,106.0 L 659.3,102.6 L 667.9,98.4 L 676.4,97.6 L 684.9,97.6 L 693.4,91.6 L 701.9,89.9 L 710.4,89.1 L 718.9,78.9 L 727.4,78.1 L 736.0,78.1 L 744.5,78.1 L 753.0,77.2 L 761.5,73.0 L 770.0,69.6" fill="none" stroke="#FF6363" stroke-width="2.5" stroke-linejoin="round" clip-path="url(#ca)"/>
<text x="118.8" y="55.0" text-anchor="middle" font-size="9" fill="#FF6363" opacity="0.85" clip-path="url(#ca)">+0.7%</text>
<text x="280.5" y="55.0" text-anchor="middle" font-size="9" fill="#FF6363" opacity="0.85" clip-path="url(#ca)">+4.0%</text>
<text x="506.1" y="55.0" text-anchor="middle" font-size="9" fill="#FF6363" opacity="0.85" clip-path="url(#ca)">+4.5%</text>
<text x="697.6" y="55.0" text-anchor="middle" font-size="9" fill="#FF6363" opacity="0.85" clip-path="url(#ca)">+2.0%</text>
<rect x="351" y="369" width="12" height="12" fill="#FF6363" rx="2"/>
<text x="367" y="379" font-size="12" fill="#111827">Extensions</text>
<text x="72" y="394" font-size="8" fill="#e5e7eb">data since Dec 11, 2025</text>
</svg>