<svg xmlns="http://www.w3.org/2000/svg" width="800" height="400" viewBox="0 0 800 400">
<defs>
  <style>text { font-family: -apple-system, BlinkMacSystemFont, 'Segoe UI', Roboto, sans-serif; }</style>
  <linearGradient id="g1" x1="0" y1="0" x2="0" y2="1">
  <stop offset="0%" stop-color="#FF6363" stop-opacity="0.25"/>
  <stop offset="100%" stop-color="#FF6363" stop-opacity="0"/>
</linearGradient>
  <clipPath id="ca"><rect x="72" y="45" width="698" height="295"/></clipPath>
</defs>
<rect width="800" height="400" fill="#ffffff" rx="12"/>
<text x="400" y="26" text-anchor="middle" font-size="15" font-weight="600" fill="#111827">Packages Growth Over Time</text>
<line x1="72" y1="340.0" x2="770" y2="340.0" stroke="#f3f4f6" stroke-width="1"/>
<text x="66" y="344.0" text-anchor="end" font-size="11" fill="#6b7280">2.4k</text>
<line x1="72" y1="281.0" x2="770" y2="281.0" stroke="#f3f4f6" stroke-width="1"/>
<text x="66" y="285.0" text-anchor="end" font-size="11" fill="#6b7280">2.5k</text>
<line x1="72" y1="222.0" x2="770" y2="222.0" stroke="#f3f4f6" stroke-width="1"/>
<text x="66" y="226.0" text-anchor="end" font-size="11" fill="#6b7280">2.6k</text>
<line x1="72" y1="163.0" x2="770" y2="163.0" stroke="#f3f4f6" stroke-width="1"/>
<text x="66" y="167.0" text-anchor="end" font-size="11" fill="#6b7280">2.7k</text>
<line x1="72" y1="104.0" x2="770" y2="104.0" stroke="#f3f4f6" stroke-width="1"/>
<text x="66" y="108.0" text-anchor="end" font-size="11" fill="#6b7280">2.8k</text>
<line x1="72" y1="45.0" x2="770" y2="45.0" stroke="#f3f4f6" stroke-width="1"/>
<text x="66" y="49.0" text-anchor="end" font-size="11" fill="#6b7280">2.9k</text>
<line x1="155.8" y1="45" x2="155.8" y2="340" stroke="#e5e7eb" stroke-width="1" stroke-dasharray="3,3" clip-path="url(#ca)"/>
<line x1="337.2" y1="45" x2="337.2" y2="340" stroke="#e5e7eb" stroke-width="1" stroke-dasharray="3,3" clip-path="url(#ca)"/>
<line x1="525.7" y1="45" x2="525.7" y2="340" stroke="#e5e7eb" stroke-width="1" stroke-dasharray="3,3" clip-path="url(#ca)"/>
<line x1="714.2" y1="45" x2="714.2" y2="340" stroke="#e5e7eb" stroke-width="1" stroke-dasharray="3,3" clip-path="url(#ca)"/>
<text x="72.0" y="358.0" text-anchor="middle" font-size="11" fill="#6b7280">Dec 11</text>
<text x="211.6" y="358.0" text-anchor="middle" font-size="11" fill="#6b7280">Jan 13</text>
<text x="351.2" y="358.0" text-anchor="middle" font-size="11" fill="#6b7280">Feb 3</text>
<text x="490.8" y="358.0" text-anchor="middle" font-size="11" fill="#6b7280">Feb 24</text>
<text x="630.4" y="358.0" text-anchor="middle" font-size="11" fill="#6b7280">Mar 17</text>
<text x="770.0" y="358.0" text-anchor="middle" font-size="11" fill="#6b7280">Apr 10</text>
<line x1="72" y1="45" x2="72" y2="340" stroke="#e5e7eb" stroke-width="1"/>
<line x1="72" y1="340" x2="770" y2="340" stroke="#e5e7eb" stroke-width="1"/>
<text x="-192.5" y="18" text-anchor="middle" font-size="12" fill="#6b7280" transform="rotate(-90)">Extensions</text>
<path d="M 72.0,340 L 72.0,294.6 L 79.0,294.0 L 86.0,294.0 L 92.9,292.2 L 99.9,292.2 L 106.9,291.0 L 113.9,289.9 L 120.9,289.3 L 127.8,286.3 L 134.8,283.9 L 141.8,283.9 L 148.8,283.9 L 155.8,283.9 L 162.7,282.8 L 169.7,282.8 L 176.7,282.8 L 183.7,281.6 L 190.7,279.2 L 197.6,275.1 L 204.6,272.1 L 211.6,271.0 L 218.6,270.4 L 225.6,268.0 L 232.5,260.9 L 239.5,258.6 L 246.5,258.6 L 253.5,252.7 L 260.5,250.9 L 267.4,248.6 L 274.4,246.8 L 281.4,243.2 L 288.4,240.3 L 295.4,239.7 L 302.3,235.0 L 309.3,230.8 L 316.3,230.8 L 323.3,227.9 L 330.3,225.5 L 337.2,224.9 L 344.2,224.4 L 351.2,223.8 L 358.2,222.0 L 365.2,211.4 L 372.1,206.7 L 379.1,204.3 L 386.1,203.1 L 393.1,201.3 L 400.1,197.2 L 407.0,196.0 L 414.0,194.9 L 421.0,191.3 L 428.0,190.1 L 435.0,189.0 L 441.9,189.0 L 448.9,178.3 L 455.9,177.2 L 462.9,176.0 L 469.9,173.6 L 476.8,170.7 L 483.8,170.7 L 490.8,166.0 L 497.8,158.3 L 504.8,157.1 L 511.7,157.7 L 518.7,155.9 L 525.7,155.3 L 532.7,155.3 L 539.7,151.8 L 546.6,148.8 L 553.6,146.5 L 560.6,143.5 L 567.6,142.9 L 574.6,142.9 L 581.5,138.8 L 588.5,137.6 L 595.5,137.0 L 602.5,130.0 L 609.5,129.4 L 616.4,129.4 L 623.4,129.4 L 630.4,128.8 L 637.4,125.8 L 644.4,123.5 L 651.3,120.5 L 658.3,119.9 L 665.3,118.2 L 672.3,112.8 L 679.3,108.1 L 686.2,107.5 L 693.2,106.9 L 700.2,105.2 L 707.2,99.3 L 714.2,98.1 L 721.1,96.3 L 728.1,92.8 L 735.1,92.2 L 742.1,91.6 L 749.1,91.6 L 756.0,90.4 L 763.0,86.9 L 770.0,85.7 L 770.0,340 Z" fill="url(#g1)" clip-path="url(#ca)"/>
<path d="M 72.0,294.6 L 79.0,294.0 L 86.0,294.0 L 92.9,292.2 L 99.9,292.2 L 106.9,291.0 L 113.9,289.9 L 120.9,289.3 L 127.8,286.3 L 134.8,283.9 L 141.8,283.9 L 148.8,283.9 L 155.8,283.9 L 162.7,282.8 L 169.7,282.8 L 176.7,282.8 L 183.7,281.6 L 190.7,279.2 L 197.6,275.1 L 204.6,272.1 L 211.6,271.0 L 218.6,270.4 L 225.6,268.0 L 232.5,260.9 L 239.5,258.6 L 246.5,258.6 L 253.5,252.7 L 260.5,250.9 L 267.4,248.6 L 274.4,246.8 L 281.4,243.2 L 288.4,240.3 L 295.4,239.7 L 302.3,235.0 L 309.3,230.8 L 316.3,230.8 L 323.3,227.9 L 330.3,225.5 L 337.2,224.9 L 344.2,224.4 L 351.2,223.8 L 358.2,222.0 L 365.2,211.4 L 372.1,206.7 L 379.1,204.3 L 386.1,203.1 L 393.1,201.3 L 400.1,197.2 L 407.0,196.0 L 414.0,194.9 L 421.0,191.3 L 428.0,190.1 L 435.0,189.0 L 441.9,189.0 L 448.9,178.3 L 455.9,177.2 L 462.9,176.0 L 469.9,173.6 L 476.8,170.7 L 483.8,170.7 L 490.8,166.0 L 497.8,158.3 L 504.8,157.1 L 511.7,157.7 L 518.7,155.9 L 525.7,155.3 L 532.7,155.3 L 539.7,151.8 L 546.6,148.8 L 553.6,146.5 L 560.6,143.5 L 567.6,142.9 L 574.6,142.9 L 581.5,138.8 L 588.5,137.6 L 595.5,137.0 L 602.5,130.0 L 609.5,129.4 L 616.4,129.4 L 623.4,129.4 L 630.4,128.8 L 637.4,125.8 L 644.4,123.5 L 651.3,120.5 L 658.3,119.9 L 665.3,118.2 L 672.3,112.8 L 679.3,108.1 L 686.2,107.5 L 693.2,106.9 L 700.2,105.2 L 707.2,99.3 L 714.2,98.1 L 721.1,96.3 L 728.1,92.8 L 735.1,92.2 L 742.1,91.6 L 749.1,91.6 L 756.0,90.4 L 763.0,86.9 L 770.0,85.7" fill="none" stroke="#FF6363" stroke-width="2.5" stroke-linejoin="round" clip-path="url(#ca)"/>
<text x="110.4" y="55.0" text-anchor="middle" font-size="9" fill="#FF6363" opacity="0.85" clip-path="url(#ca)">+0.7% (+18)</text>
<text x="243.0" y="55.0" text-anchor="middle" font-size="9" fill="#FF6363" opacity="0.85" clip-path="url(#ca)">+4.0% (+99)</text>
<text x="428.0" y="55.0" text-anchor="middle" font-size="9" fill="#FF6363" opacity="0.85" clip-path="url(#ca)">+4.5% (+117)</text>
<text x="616.4" y="55.0" text-anchor="middle" font-size="9" fill="#FF6363" opacity="0.85" clip-path="url(#ca)">+3.5% (+95)</text>
<text x="742.1" y="55.0" text-anchor="middle" font-size="9" fill="#FF6363" opacity="0.85" clip-path="url(#ca)">+0.7% (+21)</text>
<rect x="351" y="369" width="12" height="12" fill="#FF6363" rx="2"/>
<text x="367" y="379" font-size="12" fill="#111827">Extensions</text>
<text x="72" y="394" font-size="8" fill="#e5e7eb">data since Dec 11, 2025</text>
</svg>