<svg xmlns="http://www.w3.org/2000/svg" width="800" height="400" viewBox="0 0 800 400">
<defs>
  <style>text { font-family: -apple-system, BlinkMacSystemFont, 'Segoe UI', Roboto, sans-serif; }</style>
  <linearGradient id="g2" x1="0" y1="0" x2="0" y2="1">
  <stop offset="0%" stop-color="#4F8EF7" stop-opacity="0.25"/>
  <stop offset="100%" stop-color="#4F8EF7" stop-opacity="0"/>
</linearGradient>
<linearGradient id="g3" x1="0" y1="0" x2="0" y2="1">
  <stop offset="0%" stop-color="#BF5AF2" stop-opacity="0.25"/>
  <stop offset="100%" stop-color="#BF5AF2" stop-opacity="0"/>
</linearGradient>
<linearGradient id="g4" x1="0" y1="0" x2="0" y2="1">
  <stop offset="0%" stop-color="#34C759" stop-opacity="0.25"/>
  <stop offset="100%" stop-color="#34C759" stop-opacity="0"/>
</linearGradient>
  <clipPath id="ca"><rect x="72" y="45" width="698" height="295"/></clipPath>
</defs>
<rect width="800" height="400" fill="#ffffff" rx="12"/>
<text x="400" y="26" text-anchor="middle" font-size="15" font-weight="600" fill="#111827">Community Growth Over Time</text>
<line x1="72" y1="340.0" x2="770" y2="340.0" stroke="#f3f4f6" stroke-width="1"/>
<text x="66" y="344.0" text-anchor="end" font-size="11" fill="#6b7280">500</text>
<line x1="72" y1="266.3" x2="770" y2="266.3" stroke="#f3f4f6" stroke-width="1"/>
<text x="66" y="270.3" text-anchor="end" font-size="11" fill="#6b7280">1.0k</text>
<line x1="72" y1="192.5" x2="770" y2="192.5" stroke="#f3f4f6" stroke-width="1"/>
<text x="66" y="196.5" text-anchor="end" font-size="11" fill="#6b7280">1.5k</text>
<line x1="72" y1="118.8" x2="770" y2="118.8" stroke="#f3f4f6" stroke-width="1"/>
<text x="66" y="122.8" text-anchor="end" font-size="11" fill="#6b7280">2.0k</text>
<line x1="72" y1="45.0" x2="770" y2="45.0" stroke="#f3f4f6" stroke-width="1"/>
<text x="66" y="49.0" text-anchor="end" font-size="11" fill="#6b7280">2.5k</text>
<line x1="118.3" y1="45" x2="118.3" y2="340" stroke="#e5e7eb" stroke-width="1" stroke-dasharray="3,3" clip-path="url(#ca)"/>
<line x1="218.5" y1="45" x2="218.5" y2="340" stroke="#e5e7eb" stroke-width="1" stroke-dasharray="3,3" clip-path="url(#ca)"/>
<line x1="322.7" y1="45" x2="322.7" y2="340" stroke="#e5e7eb" stroke-width="1" stroke-dasharray="3,3" clip-path="url(#ca)"/>
<line x1="426.8" y1="45" x2="426.8" y2="340" stroke="#e5e7eb" stroke-width="1" stroke-dasharray="3,3" clip-path="url(#ca)"/>
<line x1="530.9" y1="45" x2="530.9" y2="340" stroke="#e5e7eb" stroke-width="1" stroke-dasharray="3,3" clip-path="url(#ca)"/>
<line x1="631.2" y1="45" x2="631.2" y2="340" stroke="#e5e7eb" stroke-width="1" stroke-dasharray="3,3" clip-path="url(#ca)"/>
<line x1="723.7" y1="45" x2="723.7" y2="340" stroke="#e5e7eb" stroke-width="1" stroke-dasharray="3,3" clip-path="url(#ca)"/>
<text x="72.0" y="358.0" text-anchor="middle" font-size="11" fill="#6b7280">Dec 11</text>
<text x="210.8" y="358.0" text-anchor="middle" font-size="11" fill="#6b7280">Jan 30</text>
<text x="349.7" y="358.0" text-anchor="middle" font-size="11" fill="#6b7280">Mar 9</text>
<text x="492.3" y="358.0" text-anchor="middle" font-size="11" fill="#6b7280">Apr 19</text>
<text x="631.2" y="358.0" text-anchor="middle" font-size="11" fill="#6b7280">Jun 2</text>
<text x="770.0" y="358.0" text-anchor="middle" font-size="11" fill="#6b7280">Jul 16</text>
<line x1="72" y1="45" x2="72" y2="340" stroke="#e5e7eb" stroke-width="1"/>
<line x1="72" y1="340" x2="770" y2="340" stroke="#e5e7eb" stroke-width="1"/>
<text x="-192.5" y="18" text-anchor="middle" font-size="12" fill="#6b7280" transform="rotate(-90)">People</text>
<path d="M 72.0,340 L 72.0,175.1 L 75.9,175.1 L 79.7,175.1 L 83.6,174.7 L 87.4,174.7 L 91.3,174.4 L 95.1,174.2 L 99.0,174.4 L 102.9,173.9 L 106.7,173.9 L 110.6,173.9 L 114.4,173.9 L 118.3,173.9 L 122.1,173.9 L 126.0,173.9 L 129.8,173.9 L 133.7,173.8 L 137.6,173.3 L 141.4,172.4 L 145.3,172.0 L 149.1,171.9 L 153.0,171.9 L 156.8,171.4 L 160.7,170.4 L 164.6,169.8 L 168.4,169.8 L 172.3,169.0 L 176.1,168.8 L 180.0,168.2 L 183.8,167.7 L 187.7,167.3 L 191.5,166.8 L 195.4,166.8 L 199.3,165.8 L 203.1,165.2 L 207.0,165.2 L 210.8,164.6 L 214.7,164.3 L 218.5,164.2 L 222.4,164.0 L 226.3,164.0 L 230.1,163.6 L 234.0,161.8 L 237.8,160.8 L 241.7,160.2 L 245.5,160.1 L 249.4,159.8 L 253.2,159.2 L 257.1,158.9 L 261.0,158.6 L 264.8,158.3 L 268.7,158.0 L 272.5,157.7 L 276.4,157.7 L 280.2,156.2 L 284.1,156.2 L 288.0,156.1 L 291.8,155.9 L 295.7,155.6 L 299.5,155.6 L 303.4,154.9 L 307.2,154.0 L 311.1,153.7 L 315.0,154.0 L 318.8,153.9 L 322.7,153.7 L 326.5,153.7 L 330.4,153.4 L 334.2,152.8 L 338.1,152.5 L 341.9,152.2 L 345.8,152.1 L 349.7,152.1 L 353.5,151.5 L 357.4,151.2 L 361.2,151.2 L 365.1,150.0 L 368.9,150.0 L 372.8,150.0 L 376.7,150.0 L 380.5,149.9 L 384.4,149.4 L 388.2,148.8 L 392.1,148.5 L 395.9,148.5 L 399.8,148.3 L 403.6,147.1 L 407.5,146.3 L 411.4,146.2 L 415.2,146.0 L 419.1,145.6 L 422.9,144.7 L 426.8,144.4 L 430.6,144.1 L 434.5,143.2 L 438.4,143.1 L 442.2,143.1 L 446.1,143.1 L 449.9,142.9 L 453.8,142.1 L 457.6,141.9 L 461.5,141.8 L 465.3,141.8 L 469.2,141.5 L 473.1,140.3 L 476.9,140.1 L 480.8,140.0 L 484.6,140.0 L 488.5,139.4 L 492.3,139.3 L 496.2,139.1 L 500.1,138.7 L 503.9,138.1 L 507.8,138.1 L 511.6,138.1 L 515.5,138.1 L 519.3,137.8 L 523.2,137.3 L 527.0,137.2 L 530.9,136.7 L 534.8,136.6 L 538.6,136.5 L 542.5,135.9 L 546.3,135.4 L 550.2,135.3 L 554.0,135.3 L 557.9,133.9 L 561.8,133.5 L 565.6,133.4 L 569.5,133.4 L 573.3,132.6 L 577.2,132.6 L 581.0,132.2 L 584.9,131.7 L 588.8,130.7 L 592.6,130.6 L 596.5,130.4 L 600.3,130.3 L 604.2,130.3 L 608.0,130.1 L 611.9,129.4 L 615.7,128.9 L 619.6,128.9 L 623.5,128.8 L 627.3,128.8 L 631.2,128.3 L 635.0,128.2 L 638.9,128.0 L 642.7,127.6 L 646.6,127.0 L 650.5,127.0 L 654.3,126.9 L 658.2,126.7 L 662.0,126.0 L 665.9,124.9 L 669.7,124.8 L 673.6,124.5 L 677.4,124.2 L 681.3,124.1 L 685.2,123.6 L 689.0,123.0 L 692.9,122.9 L 696.7,122.4 L 700.6,122.1 L 704.4,121.4 L 708.3,121.3 L 712.2,121.0 L 716.0,121.0 L 719.9,120.7 L 723.7,120.4 L 727.6,120.1 L 731.4,119.9 L 735.3,119.6 L 739.1,119.6 L 743.0,119.3 L 746.9,119.2 L 750.7,119.2 L 754.6,118.3 L 758.4,117.9 L 762.3,117.9 L 766.1,117.9 L 770.0,117.4 L 770.0,340 Z" fill="url(#g2)" clip-path="url(#ca)"/>
<path d="M 72.0,175.1 L 75.9,175.1 L 79.7,175.1 L 83.6,174.7 L 87.4,174.7 L 91.3,174.4 L 95.1,174.2 L 99.0,174.4 L 102.9,173.9 L 106.7,173.9 L 110.6,173.9 L 114.4,173.9 L 118.3,173.9 L 122.1,173.9 L 126.0,173.9 L 129.8,173.9 L 133.7,173.8 L 137.6,173.3 L 141.4,172.4 L 145.3,172.0 L 149.1,171.9 L 153.0,171.9 L 156.8,171.4 L 160.7,170.4 L 164.6,169.8 L 168.4,169.8 L 172.3,169.0 L 176.1,168.8 L 180.0,168.2 L 183.8,167.7 L 187.7,167.3 L 191.5,166.8 L 195.4,166.8 L 199.3,165.8 L 203.1,165.2 L 207.0,165.2 L 210.8,164.6 L 214.7,164.3 L 218.5,164.2 L 222.4,164.0 L 226.3,164.0 L 230.1,163.6 L 234.0,161.8 L 237.8,160.8 L 241.7,160.2 L 245.5,160.1 L 249.4,159.8 L 253.2,159.2 L 257.1,158.9 L 261.0,158.6 L 264.8,158.3 L 268.7,158.0 L 272.5,157.7 L 276.4,157.7 L 280.2,156.2 L 284.1,156.2 L 288.0,156.1 L 291.8,155.9 L 295.7,155.6 L 299.5,155.6 L 303.4,154.9 L 307.2,154.0 L 311.1,153.7 L 315.0,154.0 L 318.8,153.9 L 322.7,153.7 L 326.5,153.7 L 330.4,153.4 L 334.2,152.8 L 338.1,152.5 L 341.9,152.2 L 345.8,152.1 L 349.7,152.1 L 353.5,151.5 L 357.4,151.2 L 361.2,151.2 L 365.1,150.0 L 368.9,150.0 L 372.8,150.0 L 376.7,150.0 L 380.5,149.9 L 384.4,149.4 L 388.2,148.8 L 392.1,148.5 L 395.9,148.5 L 399.8,148.3 L 403.6,147.1 L 407.5,146.3 L 411.4,146.2 L 415.2,146.0 L 419.1,145.6 L 422.9,144.7 L 426.8,144.4 L 430.6,144.1 L 434.5,143.2 L 438.4,143.1 L 442.2,143.1 L 446.1,143.1 L 449.9,142.9 L 453.8,142.1 L 457.6,141.9 L 461.5,141.8 L 465.3,141.8 L 469.2,141.5 L 473.1,140.3 L 476.9,140.1 L 480.8,140.0 L 484.6,140.0 L 488.5,139.4 L 492.3,139.3 L 496.2,139.1 L 500.1,138.7 L 503.9,138.1 L 507.8,138.1 L 511.6,138.1 L 515.5,138.1 L 519.3,137.8 L 523.2,137.3 L 527.0,137.2 L 530.9,136.7 L 534.8,136.6 L 538.6,136.5 L 542.5,135.9 L 546.3,135.4 L 550.2,135.3 L 554.0,135.3 L 557.9,133.9 L 561.8,133.5 L 565.6,133.4 L 569.5,133.4 L 573.3,132.6 L 577.2,132.6 L 581.0,132.2 L 584.9,131.7 L 588.8,130.7 L 592.6,130.6 L 596.5,130.4 L 600.3,130.3 L 604.2,130.3 L 608.0,130.1 L 611.9,129.4 L 615.7,128.9 L 619.6,128.9 L 623.5,128.8 L 627.3,128.8 L 631.2,128.3 L 635.0,128.2 L 638.9,128.0 L 642.7,127.6 L 646.6,127.0 L 650.5,127.0 L 654.3,126.9 L 658.2,126.7 L 662.0,126.0 L 665.9,124.9 L 669.7,124.8 L 673.6,124.5 L 677.4,124.2 L 681.3,124.1 L 685.2,123.6 L 689.0,123.0 L 692.9,122.9 L 696.7,122.4 L 700.6,122.1 L 704.4,121.4 L 708.3,121.3 L 712.2,121.0 L 716.0,121.0 L 719.9,120.7 L 723.7,120.4 L 727.6,120.1 L 731.4,119.9 L 735.3,119.6 L 739.1,119.6 L 743.0,119.3 L 746.9,119.2 L 750.7,119.2 L 754.6,118.3 L 758.4,117.9 L 762.3,117.9 L 766.1,117.9 L 770.0,117.4" fill="none" stroke="#4F8EF7" stroke-width="2.5" stroke-linejoin="round" clip-path="url(#ca)"/>
<path d="M 72.0,340 L 72.0,268.2 L 75.9,267.7 L 79.7,267.7 L 83.6,267.7 L 87.4,267.6 L 91.3,267.3 L 95.1,267.1 L 99.0,267.0 L 102.9,267.0 L 106.7,266.8 L 110.6,266.7 L 114.4,266.7 L 118.3,266.7 L 122.1,266.7 L 126.0,266.7 L 129.8,266.7 L 133.7,266.4 L 137.6,266.4 L 141.4,266.4 L 145.3,265.8 L 149.1,265.7 L 153.0,265.4 L 156.8,264.8 L 160.7,264.6 L 164.6,264.6 L 168.4,264.6 L 172.3,264.2 L 176.1,263.9 L 180.0,263.9 L 183.8,263.6 L 187.7,263.4 L 191.5,263.2 L 195.4,263.2 L 199.3,263.0 L 203.1,262.4 L 207.0,262.0 L 210.8,261.7 L 214.7,261.5 L 218.5,261.5 L 222.4,261.4 L 226.3,261.1 L 230.1,261.1 L 234.0,260.9 L 237.8,260.5 L 241.7,260.2 L 245.5,260.2 L 249.4,260.2 L 253.2,260.2 L 257.1,260.1 L 261.0,259.6 L 264.8,259.3 L 268.7,259.2 L 272.5,259.0 L 276.4,258.9 L 280.2,258.7 L 284.1,258.6 L 288.0,258.4 L 291.8,258.0 L 295.7,257.8 L 299.5,257.7 L 303.4,257.1 L 307.2,256.5 L 311.1,256.5 L 315.0,256.4 L 318.8,256.2 L 322.7,256.2 L 326.5,256.2 L 330.4,255.9 L 334.2,255.9 L 338.1,255.0 L 341.9,254.9 L 345.8,254.7 L 349.7,254.7 L 353.5,254.4 L 357.4,254.3 L 361.2,254.3 L 365.1,254.2 L 368.9,254.2 L 372.8,254.2 L 376.7,253.9 L 380.5,253.7 L 384.4,253.0 L 388.2,253.1 L 392.1,253.0 L 395.9,252.8 L 399.8,252.8 L 403.6,252.7 L 407.5,252.2 L 411.4,252.2 L 415.2,252.2 L 419.1,252.2 L 422.9,251.9 L 426.8,251.9 L 430.6,251.6 L 434.5,251.4 L 438.4,250.8 L 442.2,250.8 L 446.1,250.5 L 449.9,250.3 L 453.8,250.2 L 457.6,250.0 L 461.5,249.7 L 465.3,249.7 L 469.2,249.3 L 473.1,249.3 L 476.9,249.1 L 480.8,248.8 L 484.6,248.7 L 488.5,248.7 L 492.3,248.7 L 496.2,248.7 L 500.1,248.7 L 503.9,248.3 L 507.8,248.3 L 511.6,248.0 L 515.5,247.7 L 519.3,247.2 L 523.2,247.1 L 527.0,247.1 L 530.9,246.2 L 534.8,246.0 L 538.6,246.0 L 542.5,245.5 L 546.3,245.5 L 550.2,245.2 L 554.0,245.2 L 557.9,245.0 L 561.8,245.0 L 565.6,244.9 L 569.5,244.6 L 573.3,244.6 L 577.2,244.4 L 581.0,244.3 L 584.9,244.1 L 588.8,244.0 L 592.6,244.0 L 596.5,243.7 L 600.3,243.7 L 604.2,243.7 L 608.0,242.9 L 611.9,242.9 L 615.7,242.9 L 619.6,242.9 L 623.5,242.9 L 627.3,242.9 L 631.2,242.6 L 635.0,242.6 L 638.9,242.4 L 642.7,241.8 L 646.6,241.5 L 650.5,241.3 L 654.3,241.3 L 658.2,241.2 L 662.0,240.7 L 665.9,240.6 L 669.7,240.6 L 673.6,240.3 L 677.4,239.8 L 681.3,239.6 L 685.2,239.6 L 689.0,239.4 L 692.9,239.4 L 696.7,239.0 L 700.6,238.8 L 704.4,238.8 L 708.3,238.5 L 712.2,238.5 L 716.0,238.2 L 719.9,237.8 L 723.7,237.8 L 727.6,237.6 L 731.4,237.5 L 735.3,237.3 L 739.1,237.3 L 743.0,237.2 L 746.9,237.2 L 750.7,236.9 L 754.6,236.3 L 758.4,236.2 L 762.3,236.2 L 766.1,235.0 L 770.0,235.0 L 770.0,340 Z" fill="url(#g3)" clip-path="url(#ca)"/>
<path d="M 72.0,268.2 L 75.9,267.7 L 79.7,267.7 L 83.6,267.7 L 87.4,267.6 L 91.3,267.3 L 95.1,267.1 L 99.0,267.0 L 102.9,267.0 L 106.7,266.8 L 110.6,266.7 L 114.4,266.7 L 118.3,266.7 L 122.1,266.7 L 126.0,266.7 L 129.8,266.7 L 133.7,266.4 L 137.6,266.4 L 141.4,266.4 L 145.3,265.8 L 149.1,265.7 L 153.0,265.4 L 156.8,264.8 L 160.7,264.6 L 164.6,264.6 L 168.4,264.6 L 172.3,264.2 L 176.1,263.9 L 180.0,263.9 L 183.8,263.6 L 187.7,263.4 L 191.5,263.2 L 195.4,263.2 L 199.3,263.0 L 203.1,262.4 L 207.0,262.0 L 210.8,261.7 L 214.7,261.5 L 218.5,261.5 L 222.4,261.4 L 226.3,261.1 L 230.1,261.1 L 234.0,260.9 L 237.8,260.5 L 241.7,260.2 L 245.5,260.2 L 249.4,260.2 L 253.2,260.2 L 257.1,260.1 L 261.0,259.6 L 264.8,259.3 L 268.7,259.2 L 272.5,259.0 L 276.4,258.9 L 280.2,258.7 L 284.1,258.6 L 288.0,258.4 L 291.8,258.0 L 295.7,257.8 L 299.5,257.7 L 303.4,257.1 L 307.2,256.5 L 311.1,256.5 L 315.0,256.4 L 318.8,256.2 L 322.7,256.2 L 326.5,256.2 L 330.4,255.9 L 334.2,255.9 L 338.1,255.0 L 341.9,254.9 L 345.8,254.7 L 349.7,254.7 L 353.5,254.4 L 357.4,254.3 L 361.2,254.3 L 365.1,254.2 L 368.9,254.2 L 372.8,254.2 L 376.7,253.9 L 380.5,253.7 L 384.4,253.0 L 388.2,253.1 L 392.1,253.0 L 395.9,252.8 L 399.8,252.8 L 403.6,252.7 L 407.5,252.2 L 411.4,252.2 L 415.2,252.2 L 419.1,252.2 L 422.9,251.9 L 426.8,251.9 L 430.6,251.6 L 434.5,251.4 L 438.4,250.8 L 442.2,250.8 L 446.1,250.5 L 449.9,250.3 L 453.8,250.2 L 457.6,250.0 L 461.5,249.7 L 465.3,249.7 L 469.2,249.3 L 473.1,249.3 L 476.9,249.1 L 480.8,248.8 L 484.6,248.7 L 488.5,248.7 L 492.3,248.7 L 496.2,248.7 L 500.1,248.7 L 503.9,248.3 L 507.8,248.3 L 511.6,248.0 L 515.5,247.7 L 519.3,247.2 L 523.2,247.1 L 527.0,247.1 L 530.9,246.2 L 534.8,246.0 L 538.6,246.0 L 542.5,245.5 L 546.3,245.5 L 550.2,245.2 L 554.0,245.2 L 557.9,245.0 L 561.8,245.0 L 565.6,244.9 L 569.5,244.6 L 573.3,244.6 L 577.2,244.4 L 581.0,244.3 L 584.9,244.1 L 588.8,244.0 L 592.6,244.0 L 596.5,243.7 L 600.3,243.7 L 604.2,243.7 L 608.0,242.9 L 611.9,242.9 L 615.7,242.9 L 619.6,242.9 L 623.5,242.9 L 627.3,242.9 L 631.2,242.6 L 635.0,242.6 L 638.9,242.4 L 642.7,241.8 L 646.6,241.5 L 650.5,241.3 L 654.3,241.3 L 658.2,241.2 L 662.0,240.7 L 665.9,240.6 L 669.7,240.6 L 673.6,240.3 L 677.4,239.8 L 681.3,239.6 L 685.2,239.6 L 689.0,239.4 L 692.9,239.4 L 696.7,239.0 L 700.6,238.8 L 704.4,238.8 L 708.3,238.5 L 712.2,238.5 L 716.0,238.2 L 719.9,237.8 L 723.7,237.8 L 727.6,237.6 L 731.4,237.5 L 735.3,237.3 L 739.1,237.3 L 743.0,237.2 L 746.9,237.2 L 750.7,236.9 L 754.6,236.3 L 758.4,236.2 L 762.3,236.2 L 766.1,235.0 L 770.0,235.0" fill="none" stroke="#BF5AF2" stroke-width="2.5" stroke-linejoin="round" clip-path="url(#ca)"/>
<path d="M 72.0,340 L 72.0,303.6 L 75.9,303.1 L 79.7,303.1 L 83.6,303.1 L 87.4,303.0 L 91.3,302.7 L 95.1,302.5 L 99.0,302.2 L 102.9,302.2 L 106.7,302.1 L 110.6,301.9 L 114.4,301.9 L 118.3,301.9 L 122.1,301.9 L 126.0,301.9 L 129.8,301.9 L 133.7,301.6 L 137.6,301.6 L 141.4,301.8 L 145.3,301.4 L 149.1,301.5 L 153.0,301.1 L 156.8,300.6 L 160.7,300.5 L 164.6,300.6 L 168.4,300.6 L 172.3,300.2 L 176.1,300.0 L 180.0,300.0 L 183.8,299.7 L 187.7,299.6 L 191.5,299.3 L 195.4,299.3 L 199.3,299.1 L 203.1,298.7 L 207.0,298.3 L 210.8,298.0 L 214.7,298.0 L 218.5,298.0 L 222.4,297.8 L 226.3,297.5 L 230.1,297.5 L 234.0,297.4 L 237.8,296.9 L 241.7,296.8 L 245.5,296.8 L 249.4,296.8 L 253.2,296.8 L 257.1,296.6 L 261.0,296.2 L 264.8,296.0 L 268.7,295.9 L 272.5,295.8 L 276.4,295.8 L 280.2,295.6 L 284.1,295.6 L 288.0,295.6 L 291.8,295.2 L 295.7,295.2 L 299.5,295.2 L 303.4,294.9 L 307.2,294.4 L 311.1,294.4 L 315.0,294.3 L 318.8,294.1 L 322.7,294.1 L 326.5,294.1 L 330.4,293.8 L 334.2,293.8 L 338.1,292.9 L 341.9,292.8 L 345.8,292.7 L 349.7,292.7 L 353.5,292.5 L 357.4,292.5 L 361.2,292.5 L 365.1,292.5 L 368.9,292.5 L 372.8,292.5 L 376.7,292.2 L 380.5,292.1 L 384.4,291.3 L 388.2,291.5 L 392.1,291.5 L 395.9,291.3 L 399.8,291.3 L 403.6,291.3 L 407.5,291.0 L 411.4,291.0 L 415.2,291.0 L 419.1,291.0 L 422.9,291.0 L 426.8,291.0 L 430.6,290.9 L 434.5,290.9 L 438.4,290.3 L 442.2,290.3 L 446.1,290.1 L 449.9,290.0 L 453.8,289.9 L 457.6,289.7 L 461.5,289.4 L 465.3,289.4 L 469.2,289.0 L 473.1,289.0 L 476.9,288.8 L 480.8,288.7 L 484.6,288.7 L 488.5,288.7 L 492.3,288.7 L 496.2,288.7 L 500.1,288.7 L 503.9,288.2 L 507.8,288.2 L 511.6,287.9 L 515.5,287.6 L 519.3,287.2 L 523.2,287.0 L 527.0,287.0 L 530.9,286.3 L 534.8,286.2 L 538.6,286.2 L 542.5,285.7 L 546.3,285.7 L 550.2,285.6 L 554.0,285.6 L 557.9,285.7 L 561.8,285.9 L 565.6,285.7 L 569.5,285.4 L 573.3,285.6 L 577.2,285.4 L 581.0,285.3 L 584.9,285.3 L 588.8,285.3 L 592.6,285.3 L 596.5,285.0 L 600.3,285.0 L 604.2,285.0 L 608.0,284.4 L 611.9,284.4 L 615.7,284.4 L 619.6,284.4 L 623.5,284.4 L 627.3,284.4 L 631.2,284.1 L 635.0,284.1 L 638.9,283.8 L 642.7,283.2 L 646.6,283.1 L 650.5,283.1 L 654.3,283.1 L 658.2,283.1 L 662.0,282.8 L 665.9,282.6 L 669.7,282.6 L 673.6,282.5 L 677.4,282.0 L 681.3,281.7 L 685.2,281.7 L 689.0,281.6 L 692.9,281.6 L 696.7,281.4 L 700.6,281.3 L 704.4,281.3 L 708.3,281.1 L 712.2,281.1 L 716.0,280.9 L 719.9,280.4 L 723.7,280.4 L 727.6,280.3 L 731.4,280.4 L 735.3,280.3 L 739.1,280.3 L 743.0,280.1 L 746.9,280.1 L 750.7,280.0 L 754.6,279.5 L 758.4,279.5 L 762.3,279.5 L 766.1,278.6 L 770.0,278.8 L 770.0,340 Z" fill="url(#g4)" clip-path="url(#ca)"/>
<path d="M 72.0,303.6 L 75.9,303.1 L 79.7,303.1 L 83.6,303.1 L 87.4,303.0 L 91.3,302.7 L 95.1,302.5 L 99.0,302.2 L 102.9,302.2 L 106.7,302.1 L 110.6,301.9 L 114.4,301.9 L 118.3,301.9 L 122.1,301.9 L 126.0,301.9 L 129.8,301.9 L 133.7,301.6 L 137.6,301.6 L 141.4,301.8 L 145.3,301.4 L 149.1,301.5 L 153.0,301.1 L 156.8,300.6 L 160.7,300.5 L 164.6,300.6 L 168.4,300.6 L 172.3,300.2 L 176.1,300.0 L 180.0,300.0 L 183.8,299.7 L 187.7,299.6 L 191.5,299.3 L 195.4,299.3 L 199.3,299.1 L 203.1,298.7 L 207.0,298.3 L 210.8,298.0 L 214.7,298.0 L 218.5,298.0 L 222.4,297.8 L 226.3,297.5 L 230.1,297.5 L 234.0,297.4 L 237.8,296.9 L 241.7,296.8 L 245.5,296.8 L 249.4,296.8 L 253.2,296.8 L 257.1,296.6 L 261.0,296.2 L 264.8,296.0 L 268.7,295.9 L 272.5,295.8 L 276.4,295.8 L 280.2,295.6 L 284.1,295.6 L 288.0,295.6 L 291.8,295.2 L 295.7,295.2 L 299.5,295.2 L 303.4,294.9 L 307.2,294.4 L 311.1,294.4 L 315.0,294.3 L 318.8,294.1 L 322.7,294.1 L 326.5,294.1 L 330.4,293.8 L 334.2,293.8 L 338.1,292.9 L 341.9,292.8 L 345.8,292.7 L 349.7,292.7 L 353.5,292.5 L 357.4,292.5 L 361.2,292.5 L 365.1,292.5 L 368.9,292.5 L 372.8,292.5 L 376.7,292.2 L 380.5,292.1 L 384.4,291.3 L 388.2,291.5 L 392.1,291.5 L 395.9,291.3 L 399.8,291.3 L 403.6,291.3 L 407.5,291.0 L 411.4,291.0 L 415.2,291.0 L 419.1,291.0 L 422.9,291.0 L 426.8,291.0 L 430.6,290.9 L 434.5,290.9 L 438.4,290.3 L 442.2,290.3 L 446.1,290.1 L 449.9,290.0 L 453.8,289.9 L 457.6,289.7 L 461.5,289.4 L 465.3,289.4 L 469.2,289.0 L 473.1,289.0 L 476.9,288.8 L 480.8,288.7 L 484.6,288.7 L 488.5,288.7 L 492.3,288.7 L 496.2,288.7 L 500.1,288.7 L 503.9,288.2 L 507.8,288.2 L 511.6,287.9 L 515.5,287.6 L 519.3,287.2 L 523.2,287.0 L 527.0,287.0 L 530.9,286.3 L 534.8,286.2 L 538.6,286.2 L 542.5,285.7 L 546.3,285.7 L 550.2,285.6 L 554.0,285.6 L 557.9,285.7 L 561.8,285.9 L 565.6,285.7 L 569.5,285.4 L 573.3,285.6 L 577.2,285.4 L 581.0,285.3 L 584.9,285.3 L 588.8,285.3 L 592.6,285.3 L 596.5,285.0 L 600.3,285.0 L 604.2,285.0 L 608.0,284.4 L 611.9,284.4 L 615.7,284.4 L 619.6,284.4 L 623.5,284.4 L 627.3,284.4 L 631.2,284.1 L 635.0,284.1 L 638.9,283.8 L 642.7,283.2 L 646.6,283.1 L 650.5,283.1 L 654.3,283.1 L 658.2,283.1 L 662.0,282.8 L 665.9,282.6 L 669.7,282.6 L 673.6,282.5 L 677.4,282.0 L 681.3,281.7 L 685.2,281.7 L 689.0,281.6 L 692.9,281.6 L 696.7,281.4 L 700.6,281.3 L 704.4,281.3 L 708.3,281.1 L 712.2,281.1 L 716.0,280.9 L 719.9,280.4 L 723.7,280.4 L 727.6,280.3 L 731.4,280.4 L 735.3,280.3 L 739.1,280.3 L 743.0,280.1 L 746.9,280.1 L 750.7,280.0 L 754.6,279.5 L 758.4,279.5 L 762.3,279.5 L 766.1,278.6 L 770.0,278.8" fill="none" stroke="#34C759" stroke-width="2.5" stroke-linejoin="round" clip-path="url(#ca)"/>
<text x="93.2" y="55.0" text-anchor="middle" font-size="9" fill="#4F8EF7" opacity="0.85" clip-path="url(#ca)">+0.5% (+8)</text>
<text x="93.2" y="66.0" text-anchor="middle" font-size="9" fill="#BF5AF2" opacity="0.85" clip-path="url(#ca)">+1.0% (+10)</text>
<text x="93.2" y="77.0" text-anchor="middle" font-size="9" fill="#34C759" opacity="0.85" clip-path="url(#ca)">+1.5% (+11)</text>
<text x="166.5" y="55.0" text-anchor="middle" font-size="9" fill="#4F8EF7" opacity="0.85" clip-path="url(#ca)">+4.0% (+65)</text>
<text x="166.5" y="66.0" text-anchor="middle" font-size="9" fill="#BF5AF2" opacity="0.85" clip-path="url(#ca)">+3.5% (+35)</text>
<text x="166.5" y="77.0" text-anchor="middle" font-size="9" fill="#34C759" opacity="0.85" clip-path="url(#ca)">+3.6% (+27)</text>
<text x="268.7" y="55.0" text-anchor="middle" font-size="9" fill="#4F8EF7" opacity="0.85" clip-path="url(#ca)">+4.1% (+70)</text>
<text x="268.7" y="66.0" text-anchor="middle" font-size="9" fill="#BF5AF2" opacity="0.85" clip-path="url(#ca)">+3.5% (+36)</text>
<text x="268.7" y="77.0" text-anchor="middle" font-size="9" fill="#34C759" opacity="0.85" clip-path="url(#ca)">+3.3% (+26)</text>
<text x="372.8" y="55.0" text-anchor="middle" font-size="9" fill="#4F8EF7" opacity="0.85" clip-path="url(#ca)">+3.5% (+61)</text>
<text x="372.8" y="66.0" text-anchor="middle" font-size="9" fill="#BF5AF2" opacity="0.85" clip-path="url(#ca)">+2.7% (+29)</text>
<text x="372.8" y="77.0" text-anchor="middle" font-size="9" fill="#34C759" opacity="0.85" clip-path="url(#ca)">+2.6% (+21)</text>
<text x="476.9" y="55.0" text-anchor="middle" font-size="9" fill="#4F8EF7" opacity="0.85" clip-path="url(#ca)">+2.7% (+49)</text>
<text x="476.9" y="66.0" text-anchor="middle" font-size="9" fill="#BF5AF2" opacity="0.85" clip-path="url(#ca)">+3.0% (+33)</text>
<text x="476.9" y="77.0" text-anchor="middle" font-size="9" fill="#34C759" opacity="0.85" clip-path="url(#ca)">+3.2% (+27)</text>
<text x="579.1" y="55.0" text-anchor="middle" font-size="9" fill="#4F8EF7" opacity="0.85" clip-path="url(#ca)">+2.9% (+54)</text>
<text x="579.1" y="66.0" text-anchor="middle" font-size="9" fill="#BF5AF2" opacity="0.85" clip-path="url(#ca)">+1.9% (+22)</text>
<text x="579.1" y="77.0" text-anchor="middle" font-size="9" fill="#34C759" opacity="0.85" clip-path="url(#ca)">+1.5% (+13)</text>
<text x="675.5" y="55.0" text-anchor="middle" font-size="9" fill="#4F8EF7" opacity="0.85" clip-path="url(#ca)">+2.7% (+52)</text>
<text x="675.5" y="66.0" text-anchor="middle" font-size="9" fill="#BF5AF2" opacity="0.85" clip-path="url(#ca)">+2.8% (+33)</text>
<text x="675.5" y="77.0" text-anchor="middle" font-size="9" fill="#34C759" opacity="0.85" clip-path="url(#ca)">+2.8% (+25)</text>
<text x="746.9" y="55.0" text-anchor="middle" font-size="9" fill="#4F8EF7" opacity="0.85" clip-path="url(#ca)">+1.0% (+20)</text>
<text x="746.9" y="66.0" text-anchor="middle" font-size="9" fill="#BF5AF2" opacity="0.85" clip-path="url(#ca)">+1.6% (+19)</text>
<text x="746.9" y="77.0" text-anchor="middle" font-size="9" fill="#34C759" opacity="0.85" clip-path="url(#ca)">+1.2% (+11)</text>
<rect x="211" y="369" width="12" height="12" fill="#4F8EF7" rx="2"/>
<text x="227" y="379" font-size="12" fill="#111827">Authors</text>
<rect x="351" y="369" width="12" height="12" fill="#BF5AF2" rx="2"/>
<text x="367" y="379" font-size="12" fill="#111827">Contributors</text>
<rect x="491" y="369" width="12" height="12" fill="#34C759" rx="2"/>
<text x="507" y="379" font-size="12" fill="#111827">Non-author contributors</text>
<text x="72" y="394" font-size="8" fill="#e5e7eb">data since Dec 11, 2025</text>
</svg>