<svg xmlns="http://www.w3.org/2000/svg" width="800" height="400" viewBox="0 0 800 400">
<defs>
  <style>text { font-family: -apple-system, BlinkMacSystemFont, 'Segoe UI', Roboto, sans-serif; }</style>
  <linearGradient id="g1" x1="0" y1="0" x2="0" y2="1">
  <stop offset="0%" stop-color="#FF6363" stop-opacity="0.25"/>
  <stop offset="100%" stop-color="#FF6363" stop-opacity="0"/>
</linearGradient>
  <clipPath id="ca"><rect x="72" y="45" width="698" height="295"/></clipPath>
</defs>
<rect width="800" height="400" fill="#ffffff" rx="12"/>
<text x="400" y="26" text-anchor="middle" font-size="15" font-weight="600" fill="#111827">Packages Growth Over Time</text>
<line x1="72" y1="340.0" x2="770" y2="340.0" stroke="#f3f4f6" stroke-width="1"/>
<text x="66" y="344.0" text-anchor="end" font-size="11" fill="#6b7280">2.4k</text>
<line x1="72" y1="281.0" x2="770" y2="281.0" stroke="#f3f4f6" stroke-width="1"/>
<text x="66" y="285.0" text-anchor="end" font-size="11" fill="#6b7280">2.5k</text>
<line x1="72" y1="222.0" x2="770" y2="222.0" stroke="#f3f4f6" stroke-width="1"/>
<text x="66" y="226.0" text-anchor="end" font-size="11" fill="#6b7280">2.6k</text>
<line x1="72" y1="163.0" x2="770" y2="163.0" stroke="#f3f4f6" stroke-width="1"/>
<text x="66" y="167.0" text-anchor="end" font-size="11" fill="#6b7280">2.7k</text>
<line x1="72" y1="104.0" x2="770" y2="104.0" stroke="#f3f4f6" stroke-width="1"/>
<text x="66" y="108.0" text-anchor="end" font-size="11" fill="#6b7280">2.8k</text>
<line x1="72" y1="45.0" x2="770" y2="45.0" stroke="#f3f4f6" stroke-width="1"/>
<text x="66" y="49.0" text-anchor="end" font-size="11" fill="#6b7280">2.9k</text>
<line x1="147.5" y1="45" x2="147.5" y2="340" stroke="#e5e7eb" stroke-width="1" stroke-dasharray="3,3" clip-path="url(#ca)"/>
<line x1="311.0" y1="45" x2="311.0" y2="340" stroke="#e5e7eb" stroke-width="1" stroke-dasharray="3,3" clip-path="url(#ca)"/>
<line x1="480.7" y1="45" x2="480.7" y2="340" stroke="#e5e7eb" stroke-width="1" stroke-dasharray="3,3" clip-path="url(#ca)"/>
<line x1="650.5" y1="45" x2="650.5" y2="340" stroke="#e5e7eb" stroke-width="1" stroke-dasharray="3,3" clip-path="url(#ca)"/>
<text x="72.0" y="358.0" text-anchor="middle" font-size="11" fill="#6b7280">Dec 11</text>
<text x="210.3" y="358.0" text-anchor="middle" font-size="11" fill="#6b7280">Jan 15</text>
<text x="348.7" y="358.0" text-anchor="middle" font-size="11" fill="#6b7280">Feb 7</text>
<text x="493.3" y="358.0" text-anchor="middle" font-size="11" fill="#6b7280">Mar 3</text>
<text x="631.7" y="358.0" text-anchor="middle" font-size="11" fill="#6b7280">Mar 27</text>
<text x="770.0" y="358.0" text-anchor="middle" font-size="11" fill="#6b7280">Apr 22</text>
<line x1="72" y1="45" x2="72" y2="340" stroke="#e5e7eb" stroke-width="1"/>
<line x1="72" y1="340" x2="770" y2="340" stroke="#e5e7eb" stroke-width="1"/>
<text x="-192.5" y="18" text-anchor="middle" font-size="12" fill="#6b7280" transform="rotate(-90)">Extensions</text>
<path d="M 72.0,340 L 72.0,294.6 L 78.3,294.0 L 84.6,294.0 L 90.9,292.2 L 97.2,292.2 L 103.4,291.0 L 109.7,289.9 L 116.0,289.3 L 122.3,286.3 L 128.6,283.9 L 134.9,283.9 L 141.2,283.9 L 147.5,283.9 L 153.7,282.8 L 160.0,282.8 L 166.3,282.8 L 172.6,281.6 L 178.9,279.2 L 185.2,275.1 L 191.5,272.1 L 197.8,271.0 L 204.1,270.4 L 210.3,268.0 L 216.6,260.9 L 222.9,258.6 L 229.2,258.6 L 235.5,252.7 L 241.8,250.9 L 248.1,248.6 L 254.4,246.8 L 260.6,243.2 L 266.9,240.3 L 273.2,239.7 L 279.5,235.0 L 285.8,230.8 L 292.1,230.8 L 298.4,227.9 L 304.7,225.5 L 311.0,224.9 L 317.2,224.4 L 323.5,223.8 L 329.8,222.0 L 336.1,211.4 L 342.4,206.7 L 348.7,204.3 L 355.0,203.1 L 361.3,201.3 L 367.5,197.2 L 373.8,196.0 L 380.1,194.9 L 386.4,191.3 L 392.7,190.1 L 399.0,189.0 L 405.3,189.0 L 411.6,178.3 L 417.9,177.2 L 424.1,176.0 L 430.4,173.6 L 436.7,170.7 L 443.0,170.7 L 449.3,166.0 L 455.6,158.3 L 461.9,157.1 L 468.2,157.7 L 474.5,155.9 L 480.7,155.3 L 487.0,155.3 L 493.3,151.8 L 499.6,148.8 L 505.9,146.5 L 512.2,143.5 L 518.5,142.9 L 524.8,142.9 L 531.0,138.8 L 537.3,137.6 L 543.6,137.0 L 549.9,130.0 L 556.2,129.4 L 562.5,129.4 L 568.8,129.4 L 575.1,128.8 L 581.4,125.8 L 587.6,123.5 L 593.9,120.5 L 600.2,119.9 L 606.5,118.2 L 612.8,112.8 L 619.1,108.1 L 625.4,107.5 L 631.7,106.9 L 637.9,105.2 L 644.2,99.3 L 650.5,98.1 L 656.8,96.3 L 663.1,92.8 L 669.4,92.2 L 675.7,91.6 L 682.0,91.6 L 688.3,90.4 L 694.5,86.9 L 700.8,85.7 L 707.1,84.5 L 713.4,83.9 L 719.7,82.8 L 726.0,76.9 L 732.3,76.3 L 738.6,75.1 L 744.8,74.5 L 751.1,71.6 L 757.4,71.0 L 763.7,70.4 L 770.0,68.6 L 770.0,340 Z" fill="url(#g1)" clip-path="url(#ca)"/>
<path d="M 72.0,294.6 L 78.3,294.0 L 84.6,294.0 L 90.9,292.2 L 97.2,292.2 L 103.4,291.0 L 109.7,289.9 L 116.0,289.3 L 122.3,286.3 L 128.6,283.9 L 134.9,283.9 L 141.2,283.9 L 147.5,283.9 L 153.7,282.8 L 160.0,282.8 L 166.3,282.8 L 172.6,281.6 L 178.9,279.2 L 185.2,275.1 L 191.5,272.1 L 197.8,271.0 L 204.1,270.4 L 210.3,268.0 L 216.6,260.9 L 222.9,258.6 L 229.2,258.6 L 235.5,252.7 L 241.8,250.9 L 248.1,248.6 L 254.4,246.8 L 260.6,243.2 L 266.9,240.3 L 273.2,239.7 L 279.5,235.0 L 285.8,230.8 L 292.1,230.8 L 298.4,227.9 L 304.7,225.5 L 311.0,224.9 L 317.2,224.4 L 323.5,223.8 L 329.8,222.0 L 336.1,211.4 L 342.4,206.7 L 348.7,204.3 L 355.0,203.1 L 361.3,201.3 L 367.5,197.2 L 373.8,196.0 L 380.1,194.9 L 386.4,191.3 L 392.7,190.1 L 399.0,189.0 L 405.3,189.0 L 411.6,178.3 L 417.9,177.2 L 424.1,176.0 L 430.4,173.6 L 436.7,170.7 L 443.0,170.7 L 449.3,166.0 L 455.6,158.3 L 461.9,157.1 L 468.2,157.7 L 474.5,155.9 L 480.7,155.3 L 487.0,155.3 L 493.3,151.8 L 499.6,148.8 L 505.9,146.5 L 512.2,143.5 L 518.5,142.9 L 524.8,142.9 L 531.0,138.8 L 537.3,137.6 L 543.6,137.0 L 549.9,130.0 L 556.2,129.4 L 562.5,129.4 L 568.8,129.4 L 575.1,128.8 L 581.4,125.8 L 587.6,123.5 L 593.9,120.5 L 600.2,119.9 L 606.5,118.2 L 612.8,112.8 L 619.1,108.1 L 625.4,107.5 L 631.7,106.9 L 637.9,105.2 L 644.2,99.3 L 650.5,98.1 L 656.8,96.3 L 663.1,92.8 L 669.4,92.2 L 675.7,91.6 L 682.0,91.6 L 688.3,90.4 L 694.5,86.9 L 700.8,85.7 L 707.1,84.5 L 713.4,83.9 L 719.7,82.8 L 726.0,76.9 L 732.3,76.3 L 738.6,75.1 L 744.8,74.5 L 751.1,71.6 L 757.4,71.0 L 763.7,70.4 L 770.0,68.6" fill="none" stroke="#FF6363" stroke-width="2.5" stroke-linejoin="round" clip-path="url(#ca)"/>
<text x="106.6" y="55.0" text-anchor="middle" font-size="9" fill="#FF6363" opacity="0.85" clip-path="url(#ca)">+0.7% (+18)</text>
<text x="226.1" y="55.0" text-anchor="middle" font-size="9" fill="#FF6363" opacity="0.85" clip-path="url(#ca)">+4.0% (+99)</text>
<text x="392.7" y="55.0" text-anchor="middle" font-size="9" fill="#FF6363" opacity="0.85" clip-path="url(#ca)">+4.5% (+117)</text>
<text x="562.5" y="55.0" text-anchor="middle" font-size="9" fill="#FF6363" opacity="0.85" clip-path="url(#ca)">+3.5% (+95)</text>
<text x="710.3" y="55.0" text-anchor="middle" font-size="9" fill="#FF6363" opacity="0.85" clip-path="url(#ca)">+1.8% (+50)</text>
<rect x="351" y="369" width="12" height="12" fill="#FF6363" rx="2"/>
<text x="367" y="379" font-size="12" fill="#111827">Extensions</text>
<text x="72" y="394" font-size="8" fill="#e5e7eb">data since Dec 11, 2025</text>
</svg>