<svg xmlns="http://www.w3.org/2000/svg" width="800" height="400" viewBox="0 0 800 400">
<defs>
  <style>text { font-family: -apple-system, BlinkMacSystemFont, 'Segoe UI', Roboto, sans-serif; }</style>
  <linearGradient id="g2" x1="0" y1="0" x2="0" y2="1">
  <stop offset="0%" stop-color="#4F8EF7" stop-opacity="0.25"/>
  <stop offset="100%" stop-color="#4F8EF7" stop-opacity="0"/>
</linearGradient>
<linearGradient id="g3" x1="0" y1="0" x2="0" y2="1">
  <stop offset="0%" stop-color="#BF5AF2" stop-opacity="0.25"/>
  <stop offset="100%" stop-color="#BF5AF2" stop-opacity="0"/>
</linearGradient>
<linearGradient id="g4" x1="0" y1="0" x2="0" y2="1">
  <stop offset="0%" stop-color="#34C759" stop-opacity="0.25"/>
  <stop offset="100%" stop-color="#34C759" stop-opacity="0"/>
</linearGradient>
  <clipPath id="ca"><rect x="72" y="45" width="698" height="295"/></clipPath>
</defs>
<rect width="800" height="400" fill="#ffffff" rx="12"/>
<text x="400" y="26" text-anchor="middle" font-size="15" font-weight="600" fill="#111827">Community Growth Over Time</text>
<line x1="72" y1="340.0" x2="770" y2="340.0" stroke="#f3f4f6" stroke-width="1"/>
<text x="66" y="344.0" text-anchor="end" font-size="11" fill="#6b7280">500</text>
<line x1="72" y1="266.3" x2="770" y2="266.3" stroke="#f3f4f6" stroke-width="1"/>
<text x="66" y="270.3" text-anchor="end" font-size="11" fill="#6b7280">1.0k</text>
<line x1="72" y1="192.5" x2="770" y2="192.5" stroke="#f3f4f6" stroke-width="1"/>
<text x="66" y="196.5" text-anchor="end" font-size="11" fill="#6b7280">1.5k</text>
<line x1="72" y1="118.8" x2="770" y2="118.8" stroke="#f3f4f6" stroke-width="1"/>
<text x="66" y="122.8" text-anchor="end" font-size="11" fill="#6b7280">2.0k</text>
<line x1="72" y1="45.0" x2="770" y2="45.0" stroke="#f3f4f6" stroke-width="1"/>
<text x="66" y="49.0" text-anchor="end" font-size="11" fill="#6b7280">2.5k</text>
<line x1="117.0" y1="45" x2="117.0" y2="340" stroke="#e5e7eb" stroke-width="1" stroke-dasharray="3,3" clip-path="url(#ca)"/>
<line x1="214.6" y1="45" x2="214.6" y2="340" stroke="#e5e7eb" stroke-width="1" stroke-dasharray="3,3" clip-path="url(#ca)"/>
<line x1="315.9" y1="45" x2="315.9" y2="340" stroke="#e5e7eb" stroke-width="1" stroke-dasharray="3,3" clip-path="url(#ca)"/>
<line x1="417.2" y1="45" x2="417.2" y2="340" stroke="#e5e7eb" stroke-width="1" stroke-dasharray="3,3" clip-path="url(#ca)"/>
<line x1="518.6" y1="45" x2="518.6" y2="340" stroke="#e5e7eb" stroke-width="1" stroke-dasharray="3,3" clip-path="url(#ca)"/>
<line x1="616.1" y1="45" x2="616.1" y2="340" stroke="#e5e7eb" stroke-width="1" stroke-dasharray="3,3" clip-path="url(#ca)"/>
<line x1="706.2" y1="45" x2="706.2" y2="340" stroke="#e5e7eb" stroke-width="1" stroke-dasharray="3,3" clip-path="url(#ca)"/>
<text x="72.0" y="358.0" text-anchor="middle" font-size="11" fill="#6b7280">Dec 11</text>
<text x="210.8" y="358.0" text-anchor="middle" font-size="11" fill="#6b7280">Jan 31</text>
<text x="349.7" y="358.0" text-anchor="middle" font-size="11" fill="#6b7280">Mar 11</text>
<text x="492.3" y="358.0" text-anchor="middle" font-size="11" fill="#6b7280">Apr 23</text>
<text x="631.2" y="358.0" text-anchor="middle" font-size="11" fill="#6b7280">Jun 6</text>
<text x="770.0" y="358.0" text-anchor="middle" font-size="11" fill="#6b7280">Jul 21</text>
<line x1="72" y1="45" x2="72" y2="340" stroke="#e5e7eb" stroke-width="1"/>
<line x1="72" y1="340" x2="770" y2="340" stroke="#e5e7eb" stroke-width="1"/>
<text x="-192.5" y="18" text-anchor="middle" font-size="12" fill="#6b7280" transform="rotate(-90)">People</text>
<path d="M 72.0,340 L 72.0,175.1 L 75.8,175.1 L 79.5,175.1 L 83.3,174.7 L 87.0,174.7 L 90.8,174.4 L 94.5,174.2 L 98.3,174.4 L 102.0,173.9 L 105.8,173.9 L 109.5,173.9 L 113.3,173.9 L 117.0,173.9 L 120.8,173.9 L 124.5,173.9 L 128.3,173.9 L 132.0,173.8 L 135.8,173.3 L 139.5,172.4 L 143.3,172.0 L 147.1,171.9 L 150.8,171.9 L 154.6,171.4 L 158.3,170.4 L 162.1,169.8 L 165.8,169.8 L 169.6,169.0 L 173.3,168.8 L 177.1,168.2 L 180.8,167.7 L 184.6,167.3 L 188.3,166.8 L 192.1,166.8 L 195.8,165.8 L 199.6,165.2 L 203.3,165.2 L 207.1,164.6 L 210.8,164.3 L 214.6,164.2 L 218.4,164.0 L 222.1,164.0 L 225.9,163.6 L 229.6,161.8 L 233.4,160.8 L 237.1,160.2 L 240.9,160.1 L 244.6,159.8 L 248.4,159.2 L 252.1,158.9 L 255.9,158.6 L 259.6,158.3 L 263.4,158.0 L 267.1,157.7 L 270.9,157.7 L 274.6,156.2 L 278.4,156.2 L 282.2,156.1 L 285.9,155.9 L 289.7,155.6 L 293.4,155.6 L 297.2,154.9 L 300.9,154.0 L 304.7,153.7 L 308.4,154.0 L 312.2,153.9 L 315.9,153.7 L 319.7,153.7 L 323.4,153.4 L 327.2,152.8 L 330.9,152.5 L 334.7,152.2 L 338.4,152.1 L 342.2,152.1 L 345.9,151.5 L 349.7,151.2 L 353.5,151.2 L 357.2,150.0 L 361.0,150.0 L 364.7,150.0 L 368.5,150.0 L 372.2,149.9 L 376.0,149.4 L 379.7,148.8 L 383.5,148.5 L 387.2,148.5 L 391.0,148.3 L 394.7,147.1 L 398.5,146.3 L 402.2,146.2 L 406.0,146.0 L 409.7,145.6 L 413.5,144.7 L 417.2,144.4 L 421.0,144.1 L 424.8,143.2 L 428.5,143.1 L 432.3,143.1 L 436.0,143.1 L 439.8,142.9 L 443.5,142.1 L 447.3,141.9 L 451.0,141.8 L 454.8,141.8 L 458.5,141.5 L 462.3,140.3 L 466.0,140.1 L 469.8,140.0 L 473.5,140.0 L 477.3,139.4 L 481.0,139.3 L 484.8,139.1 L 488.5,138.7 L 492.3,138.1 L 496.1,138.1 L 499.8,138.1 L 503.6,138.1 L 507.3,137.8 L 511.1,137.3 L 514.8,137.2 L 518.6,136.7 L 522.3,136.6 L 526.1,136.5 L 529.8,135.9 L 533.6,135.4 L 537.3,135.3 L 541.1,135.3 L 544.8,133.9 L 548.6,133.5 L 552.3,133.4 L 556.1,133.4 L 559.8,132.6 L 563.6,132.6 L 567.4,132.2 L 571.1,131.7 L 574.9,130.7 L 578.6,130.6 L 582.4,130.4 L 586.1,130.3 L 589.9,130.3 L 593.6,130.1 L 597.4,129.4 L 601.1,128.9 L 604.9,128.9 L 608.6,128.8 L 612.4,128.8 L 616.1,128.3 L 619.9,128.2 L 623.6,128.0 L 627.4,127.6 L 631.2,127.0 L 634.9,127.0 L 638.7,126.9 L 642.4,126.7 L 646.2,126.0 L 649.9,124.9 L 653.7,124.8 L 657.4,124.5 L 661.2,124.2 L 664.9,124.1 L 668.7,123.6 L 672.4,123.0 L 676.2,122.9 L 679.9,122.4 L 683.7,122.1 L 687.4,121.4 L 691.2,121.3 L 694.9,121.0 L 698.7,121.0 L 702.5,120.7 L 706.2,120.4 L 710.0,120.1 L 713.7,119.9 L 717.5,119.6 L 721.2,119.6 L 725.0,119.3 L 728.7,119.2 L 732.5,119.2 L 736.2,118.3 L 740.0,117.9 L 743.7,117.9 L 747.5,117.9 L 751.2,117.4 L 755.0,116.5 L 758.7,116.2 L 762.5,115.9 L 766.2,115.7 L 770.0,115.7 L 770.0,340 Z" fill="url(#g2)" clip-path="url(#ca)"/>
<path d="M 72.0,175.1 L 75.8,175.1 L 79.5,175.1 L 83.3,174.7 L 87.0,174.7 L 90.8,174.4 L 94.5,174.2 L 98.3,174.4 L 102.0,173.9 L 105.8,173.9 L 109.5,173.9 L 113.3,173.9 L 117.0,173.9 L 120.8,173.9 L 124.5,173.9 L 128.3,173.9 L 132.0,173.8 L 135.8,173.3 L 139.5,172.4 L 143.3,172.0 L 147.1,171.9 L 150.8,171.9 L 154.6,171.4 L 158.3,170.4 L 162.1,169.8 L 165.8,169.8 L 169.6,169.0 L 173.3,168.8 L 177.1,168.2 L 180.8,167.7 L 184.6,167.3 L 188.3,166.8 L 192.1,166.8 L 195.8,165.8 L 199.6,165.2 L 203.3,165.2 L 207.1,164.6 L 210.8,164.3 L 214.6,164.2 L 218.4,164.0 L 222.1,164.0 L 225.9,163.6 L 229.6,161.8 L 233.4,160.8 L 237.1,160.2 L 240.9,160.1 L 244.6,159.8 L 248.4,159.2 L 252.1,158.9 L 255.9,158.6 L 259.6,158.3 L 263.4,158.0 L 267.1,157.7 L 270.9,157.7 L 274.6,156.2 L 278.4,156.2 L 282.2,156.1 L 285.9,155.9 L 289.7,155.6 L 293.4,155.6 L 297.2,154.9 L 300.9,154.0 L 304.7,153.7 L 308.4,154.0 L 312.2,153.9 L 315.9,153.7 L 319.7,153.7 L 323.4,153.4 L 327.2,152.8 L 330.9,152.5 L 334.7,152.2 L 338.4,152.1 L 342.2,152.1 L 345.9,151.5 L 349.7,151.2 L 353.5,151.2 L 357.2,150.0 L 361.0,150.0 L 364.7,150.0 L 368.5,150.0 L 372.2,149.9 L 376.0,149.4 L 379.7,148.8 L 383.5,148.5 L 387.2,148.5 L 391.0,148.3 L 394.7,147.1 L 398.5,146.3 L 402.2,146.2 L 406.0,146.0 L 409.7,145.6 L 413.5,144.7 L 417.2,144.4 L 421.0,144.1 L 424.8,143.2 L 428.5,143.1 L 432.3,143.1 L 436.0,143.1 L 439.8,142.9 L 443.5,142.1 L 447.3,141.9 L 451.0,141.8 L 454.8,141.8 L 458.5,141.5 L 462.3,140.3 L 466.0,140.1 L 469.8,140.0 L 473.5,140.0 L 477.3,139.4 L 481.0,139.3 L 484.8,139.1 L 488.5,138.7 L 492.3,138.1 L 496.1,138.1 L 499.8,138.1 L 503.6,138.1 L 507.3,137.8 L 511.1,137.3 L 514.8,137.2 L 518.6,136.7 L 522.3,136.6 L 526.1,136.5 L 529.8,135.9 L 533.6,135.4 L 537.3,135.3 L 541.1,135.3 L 544.8,133.9 L 548.6,133.5 L 552.3,133.4 L 556.1,133.4 L 559.8,132.6 L 563.6,132.6 L 567.4,132.2 L 571.1,131.7 L 574.9,130.7 L 578.6,130.6 L 582.4,130.4 L 586.1,130.3 L 589.9,130.3 L 593.6,130.1 L 597.4,129.4 L 601.1,128.9 L 604.9,128.9 L 608.6,128.8 L 612.4,128.8 L 616.1,128.3 L 619.9,128.2 L 623.6,128.0 L 627.4,127.6 L 631.2,127.0 L 634.9,127.0 L 638.7,126.9 L 642.4,126.7 L 646.2,126.0 L 649.9,124.9 L 653.7,124.8 L 657.4,124.5 L 661.2,124.2 L 664.9,124.1 L 668.7,123.6 L 672.4,123.0 L 676.2,122.9 L 679.9,122.4 L 683.7,122.1 L 687.4,121.4 L 691.2,121.3 L 694.9,121.0 L 698.7,121.0 L 702.5,120.7 L 706.2,120.4 L 710.0,120.1 L 713.7,119.9 L 717.5,119.6 L 721.2,119.6 L 725.0,119.3 L 728.7,119.2 L 732.5,119.2 L 736.2,118.3 L 740.0,117.9 L 743.7,117.9 L 747.5,117.9 L 751.2,117.4 L 755.0,116.5 L 758.7,116.2 L 762.5,115.9 L 766.2,115.7 L 770.0,115.7" fill="none" stroke="#4F8EF7" stroke-width="2.5" stroke-linejoin="round" clip-path="url(#ca)"/>
<path d="M 72.0,340 L 72.0,268.2 L 75.8,267.7 L 79.5,267.7 L 83.3,267.7 L 87.0,267.6 L 90.8,267.3 L 94.5,267.1 L 98.3,267.0 L 102.0,267.0 L 105.8,266.8 L 109.5,266.7 L 113.3,266.7 L 117.0,266.7 L 120.8,266.7 L 124.5,266.7 L 128.3,266.7 L 132.0,266.4 L 135.8,266.4 L 139.5,266.4 L 143.3,265.8 L 147.1,265.7 L 150.8,265.4 L 154.6,264.8 L 158.3,264.6 L 162.1,264.6 L 165.8,264.6 L 169.6,264.2 L 173.3,263.9 L 177.1,263.9 L 180.8,263.6 L 184.6,263.4 L 188.3,263.2 L 192.1,263.2 L 195.8,263.0 L 199.6,262.4 L 203.3,262.0 L 207.1,261.7 L 210.8,261.5 L 214.6,261.5 L 218.4,261.4 L 222.1,261.1 L 225.9,261.1 L 229.6,260.9 L 233.4,260.5 L 237.1,260.2 L 240.9,260.2 L 244.6,260.2 L 248.4,260.2 L 252.1,260.1 L 255.9,259.6 L 259.6,259.3 L 263.4,259.2 L 267.1,259.0 L 270.9,258.9 L 274.6,258.7 L 278.4,258.6 L 282.2,258.4 L 285.9,258.0 L 289.7,257.8 L 293.4,257.7 L 297.2,257.1 L 300.9,256.5 L 304.7,256.5 L 308.4,256.4 L 312.2,256.2 L 315.9,256.2 L 319.7,256.2 L 323.4,255.9 L 327.2,255.9 L 330.9,255.0 L 334.7,254.9 L 338.4,254.7 L 342.2,254.7 L 345.9,254.4 L 349.7,254.3 L 353.5,254.3 L 357.2,254.2 L 361.0,254.2 L 364.7,254.2 L 368.5,253.9 L 372.2,253.7 L 376.0,253.0 L 379.7,253.1 L 383.5,253.0 L 387.2,252.8 L 391.0,252.8 L 394.7,252.7 L 398.5,252.2 L 402.2,252.2 L 406.0,252.2 L 409.7,252.2 L 413.5,251.9 L 417.2,251.9 L 421.0,251.6 L 424.8,251.4 L 428.5,250.8 L 432.3,250.8 L 436.0,250.5 L 439.8,250.3 L 443.5,250.2 L 447.3,250.0 L 451.0,249.7 L 454.8,249.7 L 458.5,249.3 L 462.3,249.3 L 466.0,249.1 L 469.8,248.8 L 473.5,248.7 L 477.3,248.7 L 481.0,248.7 L 484.8,248.7 L 488.5,248.7 L 492.3,248.3 L 496.1,248.3 L 499.8,248.0 L 503.6,247.7 L 507.3,247.2 L 511.1,247.1 L 514.8,247.1 L 518.6,246.2 L 522.3,246.0 L 526.1,246.0 L 529.8,245.5 L 533.6,245.5 L 537.3,245.2 L 541.1,245.2 L 544.8,245.0 L 548.6,245.0 L 552.3,244.9 L 556.1,244.6 L 559.8,244.6 L 563.6,244.4 L 567.4,244.3 L 571.1,244.1 L 574.9,244.0 L 578.6,244.0 L 582.4,243.7 L 586.1,243.7 L 589.9,243.7 L 593.6,242.9 L 597.4,242.9 L 601.1,242.9 L 604.9,242.9 L 608.6,242.9 L 612.4,242.9 L 616.1,242.6 L 619.9,242.6 L 623.6,242.4 L 627.4,241.8 L 631.2,241.5 L 634.9,241.3 L 638.7,241.3 L 642.4,241.2 L 646.2,240.7 L 649.9,240.6 L 653.7,240.6 L 657.4,240.3 L 661.2,239.8 L 664.9,239.6 L 668.7,239.6 L 672.4,239.4 L 676.2,239.4 L 679.9,239.0 L 683.7,238.8 L 687.4,238.8 L 691.2,238.5 L 694.9,238.5 L 698.7,238.2 L 702.5,237.8 L 706.2,237.8 L 710.0,237.6 L 713.7,237.5 L 717.5,237.3 L 721.2,237.3 L 725.0,237.2 L 728.7,237.2 L 732.5,236.9 L 736.2,236.3 L 740.0,236.2 L 743.7,236.2 L 747.5,235.0 L 751.2,235.0 L 755.0,234.5 L 758.7,234.5 L 762.5,234.5 L 766.2,234.5 L 770.0,234.5 L 770.0,340 Z" fill="url(#g3)" clip-path="url(#ca)"/>
<path d="M 72.0,268.2 L 75.8,267.7 L 79.5,267.7 L 83.3,267.7 L 87.0,267.6 L 90.8,267.3 L 94.5,267.1 L 98.3,267.0 L 102.0,267.0 L 105.8,266.8 L 109.5,266.7 L 113.3,266.7 L 117.0,266.7 L 120.8,266.7 L 124.5,266.7 L 128.3,266.7 L 132.0,266.4 L 135.8,266.4 L 139.5,266.4 L 143.3,265.8 L 147.1,265.7 L 150.8,265.4 L 154.6,264.8 L 158.3,264.6 L 162.1,264.6 L 165.8,264.6 L 169.6,264.2 L 173.3,263.9 L 177.1,263.9 L 180.8,263.6 L 184.6,263.4 L 188.3,263.2 L 192.1,263.2 L 195.8,263.0 L 199.6,262.4 L 203.3,262.0 L 207.1,261.7 L 210.8,261.5 L 214.6,261.5 L 218.4,261.4 L 222.1,261.1 L 225.9,261.1 L 229.6,260.9 L 233.4,260.5 L 237.1,260.2 L 240.9,260.2 L 244.6,260.2 L 248.4,260.2 L 252.1,260.1 L 255.9,259.6 L 259.6,259.3 L 263.4,259.2 L 267.1,259.0 L 270.9,258.9 L 274.6,258.7 L 278.4,258.6 L 282.2,258.4 L 285.9,258.0 L 289.7,257.8 L 293.4,257.7 L 297.2,257.1 L 300.9,256.5 L 304.7,256.5 L 308.4,256.4 L 312.2,256.2 L 315.9,256.2 L 319.7,256.2 L 323.4,255.9 L 327.2,255.9 L 330.9,255.0 L 334.7,254.9 L 338.4,254.7 L 342.2,254.7 L 345.9,254.4 L 349.7,254.3 L 353.5,254.3 L 357.2,254.2 L 361.0,254.2 L 364.7,254.2 L 368.5,253.9 L 372.2,253.7 L 376.0,253.0 L 379.7,253.1 L 383.5,253.0 L 387.2,252.8 L 391.0,252.8 L 394.7,252.7 L 398.5,252.2 L 402.2,252.2 L 406.0,252.2 L 409.7,252.2 L 413.5,251.9 L 417.2,251.9 L 421.0,251.6 L 424.8,251.4 L 428.5,250.8 L 432.3,250.8 L 436.0,250.5 L 439.8,250.3 L 443.5,250.2 L 447.3,250.0 L 451.0,249.7 L 454.8,249.7 L 458.5,249.3 L 462.3,249.3 L 466.0,249.1 L 469.8,248.8 L 473.5,248.7 L 477.3,248.7 L 481.0,248.7 L 484.8,248.7 L 488.5,248.7 L 492.3,248.3 L 496.1,248.3 L 499.8,248.0 L 503.6,247.7 L 507.3,247.2 L 511.1,247.1 L 514.8,247.1 L 518.6,246.2 L 522.3,246.0 L 526.1,246.0 L 529.8,245.5 L 533.6,245.5 L 537.3,245.2 L 541.1,245.2 L 544.8,245.0 L 548.6,245.0 L 552.3,244.9 L 556.1,244.6 L 559.8,244.6 L 563.6,244.4 L 567.4,244.3 L 571.1,244.1 L 574.9,244.0 L 578.6,244.0 L 582.4,243.7 L 586.1,243.7 L 589.9,243.7 L 593.6,242.9 L 597.4,242.9 L 601.1,242.9 L 604.9,242.9 L 608.6,242.9 L 612.4,242.9 L 616.1,242.6 L 619.9,242.6 L 623.6,242.4 L 627.4,241.8 L 631.2,241.5 L 634.9,241.3 L 638.7,241.3 L 642.4,241.2 L 646.2,240.7 L 649.9,240.6 L 653.7,240.6 L 657.4,240.3 L 661.2,239.8 L 664.9,239.6 L 668.7,239.6 L 672.4,239.4 L 676.2,239.4 L 679.9,239.0 L 683.7,238.8 L 687.4,238.8 L 691.2,238.5 L 694.9,238.5 L 698.7,238.2 L 702.5,237.8 L 706.2,237.8 L 710.0,237.6 L 713.7,237.5 L 717.5,237.3 L 721.2,237.3 L 725.0,237.2 L 728.7,237.2 L 732.5,236.9 L 736.2,236.3 L 740.0,236.2 L 743.7,236.2 L 747.5,235.0 L 751.2,235.0 L 755.0,234.5 L 758.7,234.5 L 762.5,234.5 L 766.2,234.5 L 770.0,234.5" fill="none" stroke="#BF5AF2" stroke-width="2.5" stroke-linejoin="round" clip-path="url(#ca)"/>
<path d="M 72.0,340 L 72.0,303.6 L 75.8,303.1 L 79.5,303.1 L 83.3,303.1 L 87.0,303.0 L 90.8,302.7 L 94.5,302.5 L 98.3,302.2 L 102.0,302.2 L 105.8,302.1 L 109.5,301.9 L 113.3,301.9 L 117.0,301.9 L 120.8,301.9 L 124.5,301.9 L 128.3,301.9 L 132.0,301.6 L 135.8,301.6 L 139.5,301.8 L 143.3,301.4 L 147.1,301.5 L 150.8,301.1 L 154.6,300.6 L 158.3,300.5 L 162.1,300.6 L 165.8,300.6 L 169.6,300.2 L 173.3,300.0 L 177.1,300.0 L 180.8,299.7 L 184.6,299.6 L 188.3,299.3 L 192.1,299.3 L 195.8,299.1 L 199.6,298.7 L 203.3,298.3 L 207.1,298.0 L 210.8,298.0 L 214.6,298.0 L 218.4,297.8 L 222.1,297.5 L 225.9,297.5 L 229.6,297.4 L 233.4,296.9 L 237.1,296.8 L 240.9,296.8 L 244.6,296.8 L 248.4,296.8 L 252.1,296.6 L 255.9,296.2 L 259.6,296.0 L 263.4,295.9 L 267.1,295.8 L 270.9,295.8 L 274.6,295.6 L 278.4,295.6 L 282.2,295.6 L 285.9,295.2 L 289.7,295.2 L 293.4,295.2 L 297.2,294.9 L 300.9,294.4 L 304.7,294.4 L 308.4,294.3 L 312.2,294.1 L 315.9,294.1 L 319.7,294.1 L 323.4,293.8 L 327.2,293.8 L 330.9,292.9 L 334.7,292.8 L 338.4,292.7 L 342.2,292.7 L 345.9,292.5 L 349.7,292.5 L 353.5,292.5 L 357.2,292.5 L 361.0,292.5 L 364.7,292.5 L 368.5,292.2 L 372.2,292.1 L 376.0,291.3 L 379.7,291.5 L 383.5,291.5 L 387.2,291.3 L 391.0,291.3 L 394.7,291.3 L 398.5,291.0 L 402.2,291.0 L 406.0,291.0 L 409.7,291.0 L 413.5,291.0 L 417.2,291.0 L 421.0,290.9 L 424.8,290.9 L 428.5,290.3 L 432.3,290.3 L 436.0,290.1 L 439.8,290.0 L 443.5,289.9 L 447.3,289.7 L 451.0,289.4 L 454.8,289.4 L 458.5,289.0 L 462.3,289.0 L 466.0,288.8 L 469.8,288.7 L 473.5,288.7 L 477.3,288.7 L 481.0,288.7 L 484.8,288.7 L 488.5,288.7 L 492.3,288.2 L 496.1,288.2 L 499.8,287.9 L 503.6,287.6 L 507.3,287.2 L 511.1,287.0 L 514.8,287.0 L 518.6,286.3 L 522.3,286.2 L 526.1,286.2 L 529.8,285.7 L 533.6,285.7 L 537.3,285.6 L 541.1,285.6 L 544.8,285.7 L 548.6,285.9 L 552.3,285.7 L 556.1,285.4 L 559.8,285.6 L 563.6,285.4 L 567.4,285.3 L 571.1,285.3 L 574.9,285.3 L 578.6,285.3 L 582.4,285.0 L 586.1,285.0 L 589.9,285.0 L 593.6,284.4 L 597.4,284.4 L 601.1,284.4 L 604.9,284.4 L 608.6,284.4 L 612.4,284.4 L 616.1,284.1 L 619.9,284.1 L 623.6,283.8 L 627.4,283.2 L 631.2,283.1 L 634.9,283.1 L 638.7,283.1 L 642.4,283.1 L 646.2,282.8 L 649.9,282.6 L 653.7,282.6 L 657.4,282.5 L 661.2,282.0 L 664.9,281.7 L 668.7,281.7 L 672.4,281.6 L 676.2,281.6 L 679.9,281.4 L 683.7,281.3 L 687.4,281.3 L 691.2,281.1 L 694.9,281.1 L 698.7,280.9 L 702.5,280.4 L 706.2,280.4 L 710.0,280.3 L 713.7,280.4 L 717.5,280.3 L 721.2,280.3 L 725.0,280.1 L 728.7,280.1 L 732.5,280.0 L 736.2,279.5 L 740.0,279.5 L 743.7,279.5 L 747.5,278.6 L 751.2,278.8 L 755.0,278.3 L 758.7,278.3 L 762.5,278.3 L 766.2,278.3 L 770.0,278.3 L 770.0,340 Z" fill="url(#g4)" clip-path="url(#ca)"/>
<path d="M 72.0,303.6 L 75.8,303.1 L 79.5,303.1 L 83.3,303.1 L 87.0,303.0 L 90.8,302.7 L 94.5,302.5 L 98.3,302.2 L 102.0,302.2 L 105.8,302.1 L 109.5,301.9 L 113.3,301.9 L 117.0,301.9 L 120.8,301.9 L 124.5,301.9 L 128.3,301.9 L 132.0,301.6 L 135.8,301.6 L 139.5,301.8 L 143.3,301.4 L 147.1,301.5 L 150.8,301.1 L 154.6,300.6 L 158.3,300.5 L 162.1,300.6 L 165.8,300.6 L 169.6,300.2 L 173.3,300.0 L 177.1,300.0 L 180.8,299.7 L 184.6,299.6 L 188.3,299.3 L 192.1,299.3 L 195.8,299.1 L 199.6,298.7 L 203.3,298.3 L 207.1,298.0 L 210.8,298.0 L 214.6,298.0 L 218.4,297.8 L 222.1,297.5 L 225.9,297.5 L 229.6,297.4 L 233.4,296.9 L 237.1,296.8 L 240.9,296.8 L 244.6,296.8 L 248.4,296.8 L 252.1,296.6 L 255.9,296.2 L 259.6,296.0 L 263.4,295.9 L 267.1,295.8 L 270.9,295.8 L 274.6,295.6 L 278.4,295.6 L 282.2,295.6 L 285.9,295.2 L 289.7,295.2 L 293.4,295.2 L 297.2,294.9 L 300.9,294.4 L 304.7,294.4 L 308.4,294.3 L 312.2,294.1 L 315.9,294.1 L 319.7,294.1 L 323.4,293.8 L 327.2,293.8 L 330.9,292.9 L 334.7,292.8 L 338.4,292.7 L 342.2,292.7 L 345.9,292.5 L 349.7,292.5 L 353.5,292.5 L 357.2,292.5 L 361.0,292.5 L 364.7,292.5 L 368.5,292.2 L 372.2,292.1 L 376.0,291.3 L 379.7,291.5 L 383.5,291.5 L 387.2,291.3 L 391.0,291.3 L 394.7,291.3 L 398.5,291.0 L 402.2,291.0 L 406.0,291.0 L 409.7,291.0 L 413.5,291.0 L 417.2,291.0 L 421.0,290.9 L 424.8,290.9 L 428.5,290.3 L 432.3,290.3 L 436.0,290.1 L 439.8,290.0 L 443.5,289.9 L 447.3,289.7 L 451.0,289.4 L 454.8,289.4 L 458.5,289.0 L 462.3,289.0 L 466.0,288.8 L 469.8,288.7 L 473.5,288.7 L 477.3,288.7 L 481.0,288.7 L 484.8,288.7 L 488.5,288.7 L 492.3,288.2 L 496.1,288.2 L 499.8,287.9 L 503.6,287.6 L 507.3,287.2 L 511.1,287.0 L 514.8,287.0 L 518.6,286.3 L 522.3,286.2 L 526.1,286.2 L 529.8,285.7 L 533.6,285.7 L 537.3,285.6 L 541.1,285.6 L 544.8,285.7 L 548.6,285.9 L 552.3,285.7 L 556.1,285.4 L 559.8,285.6 L 563.6,285.4 L 567.4,285.3 L 571.1,285.3 L 574.9,285.3 L 578.6,285.3 L 582.4,285.0 L 586.1,285.0 L 589.9,285.0 L 593.6,284.4 L 597.4,284.4 L 601.1,284.4 L 604.9,284.4 L 608.6,284.4 L 612.4,284.4 L 616.1,284.1 L 619.9,284.1 L 623.6,283.8 L 627.4,283.2 L 631.2,283.1 L 634.9,283.1 L 638.7,283.1 L 642.4,283.1 L 646.2,282.8 L 649.9,282.6 L 653.7,282.6 L 657.4,282.5 L 661.2,282.0 L 664.9,281.7 L 668.7,281.7 L 672.4,281.6 L 676.2,281.6 L 679.9,281.4 L 683.7,281.3 L 687.4,281.3 L 691.2,281.1 L 694.9,281.1 L 698.7,280.9 L 702.5,280.4 L 706.2,280.4 L 710.0,280.3 L 713.7,280.4 L 717.5,280.3 L 721.2,280.3 L 725.0,280.1 L 728.7,280.1 L 732.5,280.0 L 736.2,279.5 L 740.0,279.5 L 743.7,279.5 L 747.5,278.6 L 751.2,278.8 L 755.0,278.3 L 758.7,278.3 L 762.5,278.3 L 766.2,278.3 L 770.0,278.3" fill="none" stroke="#34C759" stroke-width="2.5" stroke-linejoin="round" clip-path="url(#ca)"/>
<text x="92.6" y="55.0" text-anchor="middle" font-size="9" fill="#4F8EF7" opacity="0.85" clip-path="url(#ca)">+0.5% (+8)</text>
<text x="92.6" y="66.0" text-anchor="middle" font-size="9" fill="#BF5AF2" opacity="0.85" clip-path="url(#ca)">+1.0% (+10)</text>
<text x="92.6" y="77.0" text-anchor="middle" font-size="9" fill="#34C759" opacity="0.85" clip-path="url(#ca)">+1.5% (+11)</text>
<text x="163.9" y="55.0" text-anchor="middle" font-size="9" fill="#4F8EF7" opacity="0.85" clip-path="url(#ca)">+4.0% (+65)</text>
<text x="163.9" y="66.0" text-anchor="middle" font-size="9" fill="#BF5AF2" opacity="0.85" clip-path="url(#ca)">+3.5% (+35)</text>
<text x="163.9" y="77.0" text-anchor="middle" font-size="9" fill="#34C759" opacity="0.85" clip-path="url(#ca)">+3.6% (+27)</text>
<text x="263.4" y="55.0" text-anchor="middle" font-size="9" fill="#4F8EF7" opacity="0.85" clip-path="url(#ca)">+4.1% (+70)</text>
<text x="263.4" y="66.0" text-anchor="middle" font-size="9" fill="#BF5AF2" opacity="0.85" clip-path="url(#ca)">+3.5% (+36)</text>
<text x="263.4" y="77.0" text-anchor="middle" font-size="9" fill="#34C759" opacity="0.85" clip-path="url(#ca)">+3.3% (+26)</text>
<text x="364.7" y="55.0" text-anchor="middle" font-size="9" fill="#4F8EF7" opacity="0.85" clip-path="url(#ca)">+3.5% (+61)</text>
<text x="364.7" y="66.0" text-anchor="middle" font-size="9" fill="#BF5AF2" opacity="0.85" clip-path="url(#ca)">+2.7% (+29)</text>
<text x="364.7" y="77.0" text-anchor="middle" font-size="9" fill="#34C759" opacity="0.85" clip-path="url(#ca)">+2.6% (+21)</text>
<text x="466.0" y="55.0" text-anchor="middle" font-size="9" fill="#4F8EF7" opacity="0.85" clip-path="url(#ca)">+2.7% (+49)</text>
<text x="466.0" y="66.0" text-anchor="middle" font-size="9" fill="#BF5AF2" opacity="0.85" clip-path="url(#ca)">+3.0% (+33)</text>
<text x="466.0" y="77.0" text-anchor="middle" font-size="9" fill="#34C759" opacity="0.85" clip-path="url(#ca)">+3.2% (+27)</text>
<text x="565.5" y="55.0" text-anchor="middle" font-size="9" fill="#4F8EF7" opacity="0.85" clip-path="url(#ca)">+2.9% (+54)</text>
<text x="565.5" y="66.0" text-anchor="middle" font-size="9" fill="#BF5AF2" opacity="0.85" clip-path="url(#ca)">+1.9% (+22)</text>
<text x="565.5" y="77.0" text-anchor="middle" font-size="9" fill="#34C759" opacity="0.85" clip-path="url(#ca)">+1.5% (+13)</text>
<text x="659.3" y="55.0" text-anchor="middle" font-size="9" fill="#4F8EF7" opacity="0.85" clip-path="url(#ca)">+2.7% (+52)</text>
<text x="659.3" y="66.0" text-anchor="middle" font-size="9" fill="#BF5AF2" opacity="0.85" clip-path="url(#ca)">+2.8% (+33)</text>
<text x="659.3" y="77.0" text-anchor="middle" font-size="9" fill="#34C759" opacity="0.85" clip-path="url(#ca)">+2.8% (+25)</text>
<text x="738.1" y="55.0" text-anchor="middle" font-size="9" fill="#4F8EF7" opacity="0.85" clip-path="url(#ca)">+1.6% (+32)</text>
<text x="738.1" y="66.0" text-anchor="middle" font-size="9" fill="#BF5AF2" opacity="0.85" clip-path="url(#ca)">+1.8% (+22)</text>
<text x="738.1" y="77.0" text-anchor="middle" font-size="9" fill="#34C759" opacity="0.85" clip-path="url(#ca)">+1.5% (+14)</text>
<rect x="211" y="369" width="12" height="12" fill="#4F8EF7" rx="2"/>
<text x="227" y="379" font-size="12" fill="#111827">Authors</text>
<rect x="351" y="369" width="12" height="12" fill="#BF5AF2" rx="2"/>
<text x="367" y="379" font-size="12" fill="#111827">Contributors</text>
<rect x="491" y="369" width="12" height="12" fill="#34C759" rx="2"/>
<text x="507" y="379" font-size="12" fill="#111827">Non-author contributors</text>
<text x="72" y="394" font-size="8" fill="#e5e7eb">data since Dec 11, 2025</text>
</svg>