<svg xmlns="http://www.w3.org/2000/svg" width="800" height="400" viewBox="0 0 800 400">
<defs>
  <style>text { font-family: -apple-system, BlinkMacSystemFont, 'Segoe UI', Roboto, sans-serif; }</style>
  <linearGradient id="g1" x1="0" y1="0" x2="0" y2="1">
  <stop offset="0%" stop-color="#FF6363" stop-opacity="0.25"/>
  <stop offset="100%" stop-color="#FF6363" stop-opacity="0"/>
</linearGradient>
  <clipPath id="ca"><rect x="72" y="45" width="698" height="295"/></clipPath>
</defs>
<rect width="800" height="400" fill="#ffffff" rx="12"/>
<text x="400" y="26" text-anchor="middle" font-size="15" font-weight="600" fill="#111827">Packages Growth Over Time</text>
<line x1="72" y1="340.0" x2="770" y2="340.0" stroke="#f3f4f6" stroke-width="1"/>
<text x="66" y="344.0" text-anchor="end" font-size="11" fill="#6b7280">2.4k</text>
<line x1="72" y1="266.3" x2="770" y2="266.3" stroke="#f3f4f6" stroke-width="1"/>
<text x="66" y="270.3" text-anchor="end" font-size="11" fill="#6b7280">2.6k</text>
<line x1="72" y1="192.5" x2="770" y2="192.5" stroke="#f3f4f6" stroke-width="1"/>
<text x="66" y="196.5" text-anchor="end" font-size="11" fill="#6b7280">2.8k</text>
<line x1="72" y1="118.8" x2="770" y2="118.8" stroke="#f3f4f6" stroke-width="1"/>
<text x="66" y="122.8" text-anchor="end" font-size="11" fill="#6b7280">3.0k</text>
<line x1="72" y1="45.0" x2="770" y2="45.0" stroke="#f3f4f6" stroke-width="1"/>
<text x="66" y="49.0" text-anchor="end" font-size="11" fill="#6b7280">3.2k</text>
<line x1="122.2" y1="45" x2="122.2" y2="340" stroke="#e5e7eb" stroke-width="1" stroke-dasharray="3,3" clip-path="url(#ca)"/>
<line x1="230.8" y1="45" x2="230.8" y2="340" stroke="#e5e7eb" stroke-width="1" stroke-dasharray="3,3" clip-path="url(#ca)"/>
<line x1="343.7" y1="45" x2="343.7" y2="340" stroke="#e5e7eb" stroke-width="1" stroke-dasharray="3,3" clip-path="url(#ca)"/>
<line x1="456.5" y1="45" x2="456.5" y2="340" stroke="#e5e7eb" stroke-width="1" stroke-dasharray="3,3" clip-path="url(#ca)"/>
<line x1="569.4" y1="45" x2="569.4" y2="340" stroke="#e5e7eb" stroke-width="1" stroke-dasharray="3,3" clip-path="url(#ca)"/>
<line x1="678.0" y1="45" x2="678.0" y2="340" stroke="#e5e7eb" stroke-width="1" stroke-dasharray="3,3" clip-path="url(#ca)"/>
<text x="72.0" y="358.0" text-anchor="middle" font-size="11" fill="#6b7280">Dec 11</text>
<text x="209.9" y="358.0" text-anchor="middle" font-size="11" fill="#6b7280">Jan 27</text>
<text x="352.0" y="358.0" text-anchor="middle" font-size="11" fill="#6b7280">Mar 3</text>
<text x="490.0" y="358.0" text-anchor="middle" font-size="11" fill="#6b7280">Apr 10</text>
<text x="632.1" y="358.0" text-anchor="middle" font-size="11" fill="#6b7280">May 21</text>
<text x="770.0" y="358.0" text-anchor="middle" font-size="11" fill="#6b7280">Jun 29</text>
<line x1="72" y1="45" x2="72" y2="340" stroke="#e5e7eb" stroke-width="1"/>
<line x1="72" y1="340" x2="770" y2="340" stroke="#e5e7eb" stroke-width="1"/>
<text x="-192.5" y="18" text-anchor="middle" font-size="12" fill="#6b7280" transform="rotate(-90)">Extensions</text>
<path d="M 72.0,340 L 72.0,311.6 L 76.2,311.2 L 80.4,311.2 L 84.5,310.1 L 88.7,310.1 L 92.9,309.4 L 97.1,308.7 L 101.3,308.3 L 105.4,306.4 L 109.6,305.0 L 113.8,305.0 L 118.0,305.0 L 122.2,305.0 L 126.3,304.2 L 130.5,304.2 L 134.7,304.2 L 138.9,303.5 L 143.1,302.0 L 147.2,299.4 L 151.4,297.6 L 155.6,296.9 L 159.8,296.5 L 164.0,295.0 L 168.1,290.6 L 172.3,289.1 L 176.5,289.1 L 180.7,285.4 L 184.9,284.3 L 189.0,282.8 L 193.2,281.7 L 197.4,279.5 L 201.6,277.7 L 205.7,277.3 L 209.9,274.4 L 214.1,271.8 L 218.3,271.8 L 222.5,269.9 L 226.6,268.5 L 230.8,268.1 L 235.0,267.7 L 239.2,267.4 L 243.4,266.3 L 247.5,259.6 L 251.7,256.7 L 255.9,255.2 L 260.1,254.4 L 264.3,253.3 L 268.4,250.8 L 272.6,250.0 L 276.8,249.3 L 281.0,247.1 L 285.2,246.3 L 289.3,245.6 L 293.5,245.6 L 297.7,239.0 L 301.9,238.2 L 306.1,237.5 L 310.2,236.0 L 314.4,234.2 L 318.6,234.2 L 322.8,231.2 L 327.0,226.4 L 331.1,225.7 L 335.3,226.1 L 339.5,224.9 L 343.7,224.6 L 347.9,224.6 L 352.0,222.4 L 356.2,220.5 L 360.4,219.1 L 364.6,217.2 L 368.8,216.8 L 372.9,216.8 L 377.1,214.3 L 381.3,213.5 L 385.5,213.2 L 389.7,208.7 L 393.8,208.4 L 398.0,208.4 L 402.2,208.4 L 406.4,208.0 L 410.6,206.1 L 414.7,204.7 L 418.9,202.8 L 423.1,202.5 L 427.3,201.3 L 431.4,198.0 L 435.6,195.1 L 439.8,194.7 L 444.0,194.3 L 448.2,193.2 L 452.3,189.6 L 456.5,188.8 L 460.7,187.7 L 464.9,185.5 L 469.1,185.1 L 473.2,184.8 L 477.4,184.8 L 481.6,184.0 L 485.8,181.8 L 490.0,181.1 L 494.1,180.3 L 498.3,180.0 L 502.5,179.2 L 506.7,175.5 L 510.9,175.2 L 515.0,174.4 L 519.2,174.1 L 523.4,172.2 L 527.6,171.9 L 531.8,171.5 L 535.9,170.4 L 540.1,168.9 L 544.3,168.9 L 548.5,168.9 L 552.7,168.9 L 556.8,168.2 L 561.0,166.3 L 565.2,166.0 L 569.4,164.1 L 573.6,163.7 L 577.7,163.4 L 581.9,161.2 L 586.1,158.9 L 590.3,158.6 L 594.5,158.2 L 598.6,153.4 L 602.8,151.9 L 607.0,150.8 L 611.2,150.5 L 615.4,147.9 L 619.5,147.9 L 623.7,146.0 L 627.9,144.9 L 632.1,141.2 L 636.3,139.8 L 640.4,139.4 L 644.6,139.0 L 648.8,139.0 L 653.0,138.7 L 657.1,136.5 L 661.3,134.6 L 665.5,134.6 L 669.7,134.2 L 673.9,134.2 L 678.0,132.8 L 682.2,132.0 L 686.4,130.9 L 690.6,129.8 L 694.8,128.3 L 698.9,128.3 L 703.1,127.2 L 707.3,125.8 L 711.5,122.8 L 715.7,120.2 L 719.8,119.5 L 724.0,118.8 L 728.2,118.0 L 732.4,117.6 L 736.6,116.5 L 740.7,114.3 L 744.9,114.0 L 749.1,112.5 L 753.3,111.0 L 757.5,108.4 L 761.6,107.3 L 765.8,106.6 L 770.0,106.6 L 770.0,340 Z" fill="url(#g1)" clip-path="url(#ca)"/>
<path d="M 72.0,311.6 L 76.2,311.2 L 80.4,311.2 L 84.5,310.1 L 88.7,310.1 L 92.9,309.4 L 97.1,308.7 L 101.3,308.3 L 105.4,306.4 L 109.6,305.0 L 113.8,305.0 L 118.0,305.0 L 122.2,305.0 L 126.3,304.2 L 130.5,304.2 L 134.7,304.2 L 138.9,303.5 L 143.1,302.0 L 147.2,299.4 L 151.4,297.6 L 155.6,296.9 L 159.8,296.5 L 164.0,295.0 L 168.1,290.6 L 172.3,289.1 L 176.5,289.1 L 180.7,285.4 L 184.9,284.3 L 189.0,282.8 L 193.2,281.7 L 197.4,279.5 L 201.6,277.7 L 205.7,277.3 L 209.9,274.4 L 214.1,271.8 L 218.3,271.8 L 222.5,269.9 L 226.6,268.5 L 230.8,268.1 L 235.0,267.7 L 239.2,267.4 L 243.4,266.3 L 247.5,259.6 L 251.7,256.7 L 255.9,255.2 L 260.1,254.4 L 264.3,253.3 L 268.4,250.8 L 272.6,250.0 L 276.8,249.3 L 281.0,247.1 L 285.2,246.3 L 289.3,245.6 L 293.5,245.6 L 297.7,239.0 L 301.9,238.2 L 306.1,237.5 L 310.2,236.0 L 314.4,234.2 L 318.6,234.2 L 322.8,231.2 L 327.0,226.4 L 331.1,225.7 L 335.3,226.1 L 339.5,224.9 L 343.7,224.6 L 347.9,224.6 L 352.0,222.4 L 356.2,220.5 L 360.4,219.1 L 364.6,217.2 L 368.8,216.8 L 372.9,216.8 L 377.1,214.3 L 381.3,213.5 L 385.5,213.2 L 389.7,208.7 L 393.8,208.4 L 398.0,208.4 L 402.2,208.4 L 406.4,208.0 L 410.6,206.1 L 414.7,204.7 L 418.9,202.8 L 423.1,202.5 L 427.3,201.3 L 431.4,198.0 L 435.6,195.1 L 439.8,194.7 L 444.0,194.3 L 448.2,193.2 L 452.3,189.6 L 456.5,188.8 L 460.7,187.7 L 464.9,185.5 L 469.1,185.1 L 473.2,184.8 L 477.4,184.8 L 481.6,184.0 L 485.8,181.8 L 490.0,181.1 L 494.1,180.3 L 498.3,180.0 L 502.5,179.2 L 506.7,175.5 L 510.9,175.2 L 515.0,174.4 L 519.2,174.1 L 523.4,172.2 L 527.6,171.9 L 531.8,171.5 L 535.9,170.4 L 540.1,168.9 L 544.3,168.9 L 548.5,168.9 L 552.7,168.9 L 556.8,168.2 L 561.0,166.3 L 565.2,166.0 L 569.4,164.1 L 573.6,163.7 L 577.7,163.4 L 581.9,161.2 L 586.1,158.9 L 590.3,158.6 L 594.5,158.2 L 598.6,153.4 L 602.8,151.9 L 607.0,150.8 L 611.2,150.5 L 615.4,147.9 L 619.5,147.9 L 623.7,146.0 L 627.9,144.9 L 632.1,141.2 L 636.3,139.8 L 640.4,139.4 L 644.6,139.0 L 648.8,139.0 L 653.0,138.7 L 657.1,136.5 L 661.3,134.6 L 665.5,134.6 L 669.7,134.2 L 673.9,134.2 L 678.0,132.8 L 682.2,132.0 L 686.4,130.9 L 690.6,129.8 L 694.8,128.3 L 698.9,128.3 L 703.1,127.2 L 707.3,125.8 L 711.5,122.8 L 715.7,120.2 L 719.8,119.5 L 724.0,118.8 L 728.2,118.0 L 732.4,117.6 L 736.6,116.5 L 740.7,114.3 L 744.9,114.0 L 749.1,112.5 L 753.3,111.0 L 757.5,108.4 L 761.6,107.3 L 765.8,106.6 L 770.0,106.6" fill="none" stroke="#FF6363" stroke-width="2.5" stroke-linejoin="round" clip-path="url(#ca)"/>
<text x="95.0" y="55.0" text-anchor="middle" font-size="9" fill="#FF6363" opacity="0.85" clip-path="url(#ca)">+0.7% (+18)</text>
<text x="174.4" y="55.0" text-anchor="middle" font-size="9" fill="#FF6363" opacity="0.85" clip-path="url(#ca)">+4.0% (+99)</text>
<text x="285.2" y="55.0" text-anchor="middle" font-size="9" fill="#FF6363" opacity="0.85" clip-path="url(#ca)">+4.5% (+117)</text>
<text x="398.0" y="55.0" text-anchor="middle" font-size="9" fill="#FF6363" opacity="0.85" clip-path="url(#ca)">+3.5% (+95)</text>
<text x="510.9" y="55.0" text-anchor="middle" font-size="9" fill="#FF6363" opacity="0.85" clip-path="url(#ca)">+2.2% (+62)</text>
<text x="621.6" y="55.0" text-anchor="middle" font-size="9" fill="#FF6363" opacity="0.85" clip-path="url(#ca)">+2.8% (+81)</text>
<text x="724.0" y="55.0" text-anchor="middle" font-size="9" fill="#FF6363" opacity="0.85" clip-path="url(#ca)">+2.4% (+71)</text>
<rect x="351" y="369" width="12" height="12" fill="#FF6363" rx="2"/>
<text x="367" y="379" font-size="12" fill="#111827">Extensions</text>
<text x="72" y="394" font-size="8" fill="#e5e7eb">data since Dec 11, 2025</text>
</svg>