<svg xmlns="http://www.w3.org/2000/svg" width="800" height="400" viewBox="0 0 800 400">
<defs>
  <style>text { font-family: -apple-system, BlinkMacSystemFont, 'Segoe UI', Roboto, sans-serif; }</style>
  <linearGradient id="g2" x1="0" y1="0" x2="0" y2="1">
  <stop offset="0%" stop-color="#4F8EF7" stop-opacity="0.25"/>
  <stop offset="100%" stop-color="#4F8EF7" stop-opacity="0"/>
</linearGradient>
<linearGradient id="g3" x1="0" y1="0" x2="0" y2="1">
  <stop offset="0%" stop-color="#BF5AF2" stop-opacity="0.25"/>
  <stop offset="100%" stop-color="#BF5AF2" stop-opacity="0"/>
</linearGradient>
<linearGradient id="g4" x1="0" y1="0" x2="0" y2="1">
  <stop offset="0%" stop-color="#34C759" stop-opacity="0.25"/>
  <stop offset="100%" stop-color="#34C759" stop-opacity="0"/>
</linearGradient>
  <clipPath id="ca"><rect x="72" y="45" width="698" height="295"/></clipPath>
</defs>
<rect width="800" height="400" fill="#ffffff" rx="12"/>
<text x="400" y="26" text-anchor="middle" font-size="15" font-weight="600" fill="#111827">Community Growth Over Time</text>
<line x1="72" y1="340.0" x2="770" y2="340.0" stroke="#f3f4f6" stroke-width="1"/>
<text x="66" y="344.0" text-anchor="end" font-size="11" fill="#6b7280">500</text>
<line x1="72" y1="241.7" x2="770" y2="241.7" stroke="#f3f4f6" stroke-width="1"/>
<text x="66" y="245.7" text-anchor="end" font-size="11" fill="#6b7280">1.0k</text>
<line x1="72" y1="143.3" x2="770" y2="143.3" stroke="#f3f4f6" stroke-width="1"/>
<text x="66" y="147.3" text-anchor="end" font-size="11" fill="#6b7280">1.5k</text>
<line x1="72" y1="45.0" x2="770" y2="45.0" stroke="#f3f4f6" stroke-width="1"/>
<text x="66" y="49.0" text-anchor="end" font-size="11" fill="#6b7280">2.0k</text>
<line x1="129.4" y1="45" x2="129.4" y2="340" stroke="#e5e7eb" stroke-width="1" stroke-dasharray="3,3" clip-path="url(#ca)"/>
<line x1="253.7" y1="45" x2="253.7" y2="340" stroke="#e5e7eb" stroke-width="1" stroke-dasharray="3,3" clip-path="url(#ca)"/>
<line x1="382.8" y1="45" x2="382.8" y2="340" stroke="#e5e7eb" stroke-width="1" stroke-dasharray="3,3" clip-path="url(#ca)"/>
<line x1="511.8" y1="45" x2="511.8" y2="340" stroke="#e5e7eb" stroke-width="1" stroke-dasharray="3,3" clip-path="url(#ca)"/>
<line x1="640.9" y1="45" x2="640.9" y2="340" stroke="#e5e7eb" stroke-width="1" stroke-dasharray="3,3" clip-path="url(#ca)"/>
<line x1="765.2" y1="45" x2="765.2" y2="340" stroke="#e5e7eb" stroke-width="1" stroke-dasharray="3,3" clip-path="url(#ca)"/>
<text x="72.0" y="358.0" text-anchor="middle" font-size="11" fill="#6b7280">Dec 11</text>
<text x="210.6" y="358.0" text-anchor="middle" font-size="11" fill="#6b7280">Jan 23</text>
<text x="349.3" y="358.0" text-anchor="middle" font-size="11" fill="#6b7280">Feb 21</text>
<text x="492.7" y="358.0" text-anchor="middle" font-size="11" fill="#6b7280">Mar 26</text>
<text x="631.4" y="358.0" text-anchor="middle" font-size="11" fill="#6b7280">Apr 29</text>
<text x="770.0" y="358.0" text-anchor="middle" font-size="11" fill="#6b7280">Jun 3</text>
<line x1="72" y1="45" x2="72" y2="340" stroke="#e5e7eb" stroke-width="1"/>
<line x1="72" y1="340" x2="770" y2="340" stroke="#e5e7eb" stroke-width="1"/>
<text x="-192.5" y="18" text-anchor="middle" font-size="12" fill="#6b7280" transform="rotate(-90)">People</text>
<path d="M 72.0,340 L 72.0,120.1 L 76.8,120.1 L 81.6,120.1 L 86.3,119.5 L 91.1,119.5 L 95.9,119.1 L 100.7,118.9 L 105.5,119.1 L 110.2,118.6 L 115.0,118.6 L 119.8,118.6 L 124.6,118.6 L 129.4,118.6 L 134.2,118.6 L 138.9,118.6 L 143.7,118.6 L 148.5,118.4 L 153.3,117.8 L 158.1,116.6 L 162.8,116.0 L 167.6,115.8 L 172.4,115.8 L 177.2,115.2 L 182.0,113.8 L 186.7,113.0 L 191.5,113.0 L 196.3,112.1 L 201.1,111.7 L 205.9,110.9 L 210.6,110.3 L 215.4,109.7 L 220.2,109.1 L 225.0,109.1 L 229.8,107.7 L 234.5,106.9 L 239.3,106.9 L 244.1,106.2 L 248.9,105.8 L 253.7,105.6 L 258.5,105.4 L 263.2,105.4 L 268.0,104.8 L 272.8,102.4 L 277.6,101.0 L 282.4,100.3 L 287.1,100.1 L 291.9,99.7 L 296.7,98.9 L 301.5,98.5 L 306.3,98.1 L 311.0,97.7 L 315.8,97.3 L 320.6,96.9 L 325.4,96.9 L 330.2,95.0 L 334.9,95.0 L 339.7,94.8 L 344.5,94.6 L 349.3,94.2 L 354.1,94.2 L 358.8,93.2 L 363.6,92.0 L 368.4,91.6 L 373.2,92.0 L 378.0,91.8 L 382.8,91.6 L 387.5,91.6 L 392.3,91.2 L 397.1,90.4 L 401.9,90.0 L 406.7,89.6 L 411.4,89.4 L 416.2,89.4 L 421.0,88.7 L 425.8,88.3 L 430.6,88.3 L 435.3,86.7 L 440.1,86.7 L 444.9,86.7 L 449.7,86.7 L 454.5,86.5 L 459.2,85.9 L 464.0,85.1 L 468.8,84.7 L 473.6,84.7 L 478.4,84.3 L 483.2,82.8 L 487.9,81.8 L 492.7,81.6 L 497.5,81.4 L 502.3,80.8 L 507.1,79.6 L 511.8,79.2 L 516.6,78.8 L 521.4,77.6 L 526.2,77.4 L 531.0,77.4 L 535.7,77.4 L 540.5,77.3 L 545.3,76.1 L 550.1,75.9 L 554.9,75.7 L 559.6,75.7 L 564.4,75.3 L 569.2,73.7 L 574.0,73.5 L 578.8,73.3 L 583.5,73.3 L 588.3,72.5 L 593.1,72.3 L 597.9,72.1 L 602.7,71.6 L 607.5,70.8 L 612.2,70.8 L 617.0,70.8 L 621.8,70.8 L 626.6,70.4 L 631.4,69.8 L 636.1,69.6 L 640.9,69.0 L 645.7,68.8 L 650.5,68.6 L 655.3,67.8 L 660.0,67.2 L 664.8,67.0 L 669.6,67.0 L 674.4,65.3 L 679.2,64.7 L 683.9,64.5 L 688.7,64.5 L 693.5,63.5 L 698.3,63.5 L 703.1,62.9 L 707.8,62.3 L 712.6,60.9 L 717.4,60.7 L 722.2,60.5 L 727.0,60.3 L 731.8,60.3 L 736.5,60.1 L 741.3,59.2 L 746.1,58.6 L 750.9,58.6 L 755.7,58.4 L 760.4,58.4 L 765.2,57.8 L 770.0,57.6 L 770.0,340 Z" fill="url(#g2)" clip-path="url(#ca)"/>
<path d="M 72.0,120.1 L 76.8,120.1 L 81.6,120.1 L 86.3,119.5 L 91.1,119.5 L 95.9,119.1 L 100.7,118.9 L 105.5,119.1 L 110.2,118.6 L 115.0,118.6 L 119.8,118.6 L 124.6,118.6 L 129.4,118.6 L 134.2,118.6 L 138.9,118.6 L 143.7,118.6 L 148.5,118.4 L 153.3,117.8 L 158.1,116.6 L 162.8,116.0 L 167.6,115.8 L 172.4,115.8 L 177.2,115.2 L 182.0,113.8 L 186.7,113.0 L 191.5,113.0 L 196.3,112.1 L 201.1,111.7 L 205.9,110.9 L 210.6,110.3 L 215.4,109.7 L 220.2,109.1 L 225.0,109.1 L 229.8,107.7 L 234.5,106.9 L 239.3,106.9 L 244.1,106.2 L 248.9,105.8 L 253.7,105.6 L 258.5,105.4 L 263.2,105.4 L 268.0,104.8 L 272.8,102.4 L 277.6,101.0 L 282.4,100.3 L 287.1,100.1 L 291.9,99.7 L 296.7,98.9 L 301.5,98.5 L 306.3,98.1 L 311.0,97.7 L 315.8,97.3 L 320.6,96.9 L 325.4,96.9 L 330.2,95.0 L 334.9,95.0 L 339.7,94.8 L 344.5,94.6 L 349.3,94.2 L 354.1,94.2 L 358.8,93.2 L 363.6,92.0 L 368.4,91.6 L 373.2,92.0 L 378.0,91.8 L 382.8,91.6 L 387.5,91.6 L 392.3,91.2 L 397.1,90.4 L 401.9,90.0 L 406.7,89.6 L 411.4,89.4 L 416.2,89.4 L 421.0,88.7 L 425.8,88.3 L 430.6,88.3 L 435.3,86.7 L 440.1,86.7 L 444.9,86.7 L 449.7,86.7 L 454.5,86.5 L 459.2,85.9 L 464.0,85.1 L 468.8,84.7 L 473.6,84.7 L 478.4,84.3 L 483.2,82.8 L 487.9,81.8 L 492.7,81.6 L 497.5,81.4 L 502.3,80.8 L 507.1,79.6 L 511.8,79.2 L 516.6,78.8 L 521.4,77.6 L 526.2,77.4 L 531.0,77.4 L 535.7,77.4 L 540.5,77.3 L 545.3,76.1 L 550.1,75.9 L 554.9,75.7 L 559.6,75.7 L 564.4,75.3 L 569.2,73.7 L 574.0,73.5 L 578.8,73.3 L 583.5,73.3 L 588.3,72.5 L 593.1,72.3 L 597.9,72.1 L 602.7,71.6 L 607.5,70.8 L 612.2,70.8 L 617.0,70.8 L 621.8,70.8 L 626.6,70.4 L 631.4,69.8 L 636.1,69.6 L 640.9,69.0 L 645.7,68.8 L 650.5,68.6 L 655.3,67.8 L 660.0,67.2 L 664.8,67.0 L 669.6,67.0 L 674.4,65.3 L 679.2,64.7 L 683.9,64.5 L 688.7,64.5 L 693.5,63.5 L 698.3,63.5 L 703.1,62.9 L 707.8,62.3 L 712.6,60.9 L 717.4,60.7 L 722.2,60.5 L 727.0,60.3 L 731.8,60.3 L 736.5,60.1 L 741.3,59.2 L 746.1,58.6 L 750.9,58.6 L 755.7,58.4 L 760.4,58.4 L 765.2,57.8 L 770.0,57.6" fill="none" stroke="#4F8EF7" stroke-width="2.5" stroke-linejoin="round" clip-path="url(#ca)"/>
<path d="M 72.0,340 L 72.0,244.2 L 76.8,243.6 L 81.6,243.6 L 86.3,243.6 L 91.1,243.4 L 95.9,243.0 L 100.7,242.8 L 105.5,242.6 L 110.2,242.6 L 115.0,242.5 L 119.8,242.3 L 124.6,242.3 L 129.4,242.3 L 134.2,242.3 L 138.9,242.3 L 143.7,242.3 L 148.5,241.9 L 153.3,241.9 L 158.1,241.9 L 162.8,241.1 L 167.6,240.9 L 172.4,240.5 L 177.2,239.7 L 182.0,239.5 L 186.7,239.5 L 191.5,239.5 L 196.3,238.9 L 201.1,238.5 L 205.9,238.5 L 210.6,238.1 L 215.4,237.9 L 220.2,237.5 L 225.0,237.5 L 229.8,237.3 L 234.5,236.6 L 239.3,236.0 L 244.1,235.6 L 248.9,235.4 L 253.7,235.4 L 258.5,235.2 L 263.2,234.8 L 268.0,234.8 L 272.8,234.6 L 277.6,234.0 L 282.4,233.6 L 287.1,233.6 L 291.9,233.6 L 296.7,233.6 L 301.5,233.4 L 306.3,232.8 L 311.0,232.4 L 315.8,232.2 L 320.6,232.0 L 325.4,231.8 L 330.2,231.6 L 334.9,231.4 L 339.7,231.2 L 344.5,230.7 L 349.3,230.5 L 354.1,230.3 L 358.8,229.5 L 363.6,228.7 L 368.4,228.7 L 373.2,228.5 L 378.0,228.3 L 382.8,228.3 L 387.5,228.3 L 392.3,227.9 L 397.1,227.9 L 401.9,226.7 L 406.7,226.5 L 411.4,226.3 L 416.2,226.3 L 421.0,225.9 L 425.8,225.7 L 430.6,225.7 L 435.3,225.5 L 440.1,225.5 L 444.9,225.5 L 449.7,225.1 L 454.5,224.9 L 459.2,224.0 L 464.0,224.2 L 468.8,224.0 L 473.6,223.8 L 478.4,223.8 L 483.2,223.6 L 487.9,223.0 L 492.7,223.0 L 497.5,223.0 L 502.3,223.0 L 507.1,222.6 L 511.8,222.6 L 516.6,222.2 L 521.4,221.8 L 526.2,221.0 L 531.0,221.0 L 535.7,220.6 L 540.5,220.4 L 545.3,220.2 L 550.1,220.0 L 554.9,219.6 L 559.6,219.6 L 564.4,219.1 L 569.2,219.1 L 574.0,218.9 L 578.8,218.5 L 583.5,218.3 L 588.3,218.3 L 593.1,218.3 L 597.9,218.3 L 602.7,218.3 L 607.5,217.7 L 612.2,217.7 L 617.0,217.3 L 621.8,216.9 L 626.6,216.3 L 631.4,216.1 L 636.1,216.1 L 640.9,214.9 L 645.7,214.7 L 650.5,214.7 L 655.3,213.9 L 660.0,213.9 L 664.8,213.5 L 669.6,213.5 L 674.4,213.3 L 679.2,213.3 L 683.9,213.2 L 688.7,212.8 L 693.5,212.8 L 698.3,212.6 L 703.1,212.4 L 707.8,212.2 L 712.6,212.0 L 717.4,212.0 L 722.2,211.6 L 727.0,211.6 L 731.8,211.6 L 736.5,210.6 L 741.3,210.6 L 746.1,210.6 L 750.9,210.6 L 755.7,210.6 L 760.4,210.6 L 765.2,210.2 L 770.0,210.2 L 770.0,340 Z" fill="url(#g3)" clip-path="url(#ca)"/>
<path d="M 72.0,244.2 L 76.8,243.6 L 81.6,243.6 L 86.3,243.6 L 91.1,243.4 L 95.9,243.0 L 100.7,242.8 L 105.5,242.6 L 110.2,242.6 L 115.0,242.5 L 119.8,242.3 L 124.6,242.3 L 129.4,242.3 L 134.2,242.3 L 138.9,242.3 L 143.7,242.3 L 148.5,241.9 L 153.3,241.9 L 158.1,241.9 L 162.8,241.1 L 167.6,240.9 L 172.4,240.5 L 177.2,239.7 L 182.0,239.5 L 186.7,239.5 L 191.5,239.5 L 196.3,238.9 L 201.1,238.5 L 205.9,238.5 L 210.6,238.1 L 215.4,237.9 L 220.2,237.5 L 225.0,237.5 L 229.8,237.3 L 234.5,236.6 L 239.3,236.0 L 244.1,235.6 L 248.9,235.4 L 253.7,235.4 L 258.5,235.2 L 263.2,234.8 L 268.0,234.8 L 272.8,234.6 L 277.6,234.0 L 282.4,233.6 L 287.1,233.6 L 291.9,233.6 L 296.7,233.6 L 301.5,233.4 L 306.3,232.8 L 311.0,232.4 L 315.8,232.2 L 320.6,232.0 L 325.4,231.8 L 330.2,231.6 L 334.9,231.4 L 339.7,231.2 L 344.5,230.7 L 349.3,230.5 L 354.1,230.3 L 358.8,229.5 L 363.6,228.7 L 368.4,228.7 L 373.2,228.5 L 378.0,228.3 L 382.8,228.3 L 387.5,228.3 L 392.3,227.9 L 397.1,227.9 L 401.9,226.7 L 406.7,226.5 L 411.4,226.3 L 416.2,226.3 L 421.0,225.9 L 425.8,225.7 L 430.6,225.7 L 435.3,225.5 L 440.1,225.5 L 444.9,225.5 L 449.7,225.1 L 454.5,224.9 L 459.2,224.0 L 464.0,224.2 L 468.8,224.0 L 473.6,223.8 L 478.4,223.8 L 483.2,223.6 L 487.9,223.0 L 492.7,223.0 L 497.5,223.0 L 502.3,223.0 L 507.1,222.6 L 511.8,222.6 L 516.6,222.2 L 521.4,221.8 L 526.2,221.0 L 531.0,221.0 L 535.7,220.6 L 540.5,220.4 L 545.3,220.2 L 550.1,220.0 L 554.9,219.6 L 559.6,219.6 L 564.4,219.1 L 569.2,219.1 L 574.0,218.9 L 578.8,218.5 L 583.5,218.3 L 588.3,218.3 L 593.1,218.3 L 597.9,218.3 L 602.7,218.3 L 607.5,217.7 L 612.2,217.7 L 617.0,217.3 L 621.8,216.9 L 626.6,216.3 L 631.4,216.1 L 636.1,216.1 L 640.9,214.9 L 645.7,214.7 L 650.5,214.7 L 655.3,213.9 L 660.0,213.9 L 664.8,213.5 L 669.6,213.5 L 674.4,213.3 L 679.2,213.3 L 683.9,213.2 L 688.7,212.8 L 693.5,212.8 L 698.3,212.6 L 703.1,212.4 L 707.8,212.2 L 712.6,212.0 L 717.4,212.0 L 722.2,211.6 L 727.0,211.6 L 731.8,211.6 L 736.5,210.6 L 741.3,210.6 L 746.1,210.6 L 750.9,210.6 L 755.7,210.6 L 760.4,210.6 L 765.2,210.2 L 770.0,210.2" fill="none" stroke="#BF5AF2" stroke-width="2.5" stroke-linejoin="round" clip-path="url(#ca)"/>
<path d="M 72.0,340 L 72.0,291.4 L 76.8,290.8 L 81.6,290.8 L 86.3,290.8 L 91.1,290.6 L 95.9,290.2 L 100.7,290.0 L 105.5,289.7 L 110.2,289.7 L 115.0,289.5 L 119.8,289.3 L 124.6,289.3 L 129.4,289.3 L 134.2,289.3 L 138.9,289.3 L 143.7,289.3 L 148.5,288.9 L 153.3,288.9 L 158.1,289.1 L 162.8,288.5 L 167.6,288.7 L 172.4,288.1 L 177.2,287.5 L 182.0,287.3 L 186.7,287.5 L 191.5,287.5 L 196.3,286.9 L 201.1,286.7 L 205.9,286.7 L 210.6,286.3 L 215.4,286.1 L 220.2,285.7 L 225.0,285.7 L 229.8,285.5 L 234.5,284.9 L 239.3,284.3 L 244.1,283.9 L 248.9,283.9 L 253.7,283.9 L 258.5,283.8 L 263.2,283.4 L 268.0,283.4 L 272.8,283.2 L 277.6,282.6 L 282.4,282.4 L 287.1,282.4 L 291.9,282.4 L 296.7,282.4 L 301.5,282.2 L 306.3,281.6 L 311.0,281.4 L 315.8,281.2 L 320.6,281.0 L 325.4,281.0 L 330.2,280.8 L 334.9,280.8 L 339.7,280.8 L 344.5,280.2 L 349.3,280.2 L 354.1,280.2 L 358.8,279.8 L 363.6,279.2 L 368.4,279.2 L 373.2,279.0 L 378.0,278.8 L 382.8,278.8 L 387.5,278.8 L 392.3,278.4 L 397.1,278.4 L 401.9,277.3 L 406.7,277.1 L 411.4,276.9 L 416.2,276.9 L 421.0,276.7 L 425.8,276.7 L 430.6,276.7 L 435.3,276.7 L 440.1,276.7 L 444.9,276.7 L 449.7,276.3 L 454.5,276.1 L 459.2,275.1 L 464.0,275.3 L 468.8,275.3 L 473.6,275.1 L 478.4,275.1 L 483.2,275.1 L 487.9,274.7 L 492.7,274.7 L 497.5,274.7 L 502.3,274.7 L 507.1,274.7 L 511.8,274.7 L 516.6,274.5 L 521.4,274.5 L 526.2,273.7 L 531.0,273.7 L 535.7,273.5 L 540.5,273.3 L 545.3,273.1 L 550.1,272.9 L 554.9,272.5 L 559.6,272.5 L 564.4,272.0 L 569.2,272.0 L 574.0,271.8 L 578.8,271.6 L 583.5,271.6 L 588.3,271.6 L 593.1,271.6 L 597.9,271.6 L 602.7,271.6 L 607.5,271.0 L 612.2,271.0 L 617.0,270.6 L 621.8,270.2 L 626.6,269.6 L 631.4,269.4 L 636.1,269.4 L 640.9,268.4 L 645.7,268.2 L 650.5,268.2 L 655.3,267.6 L 660.0,267.6 L 664.8,267.4 L 669.6,267.4 L 674.4,267.6 L 679.2,267.8 L 683.9,267.6 L 688.7,267.2 L 693.5,267.4 L 698.3,267.2 L 703.1,267.0 L 707.8,267.0 L 712.6,267.0 L 717.4,267.0 L 722.2,266.6 L 727.0,266.6 L 731.8,266.6 L 736.5,265.9 L 741.3,265.9 L 746.1,265.9 L 750.9,265.9 L 755.7,265.9 L 760.4,265.9 L 765.2,265.5 L 770.0,265.5 L 770.0,340 Z" fill="url(#g4)" clip-path="url(#ca)"/>
<path d="M 72.0,291.4 L 76.8,290.8 L 81.6,290.8 L 86.3,290.8 L 91.1,290.6 L 95.9,290.2 L 100.7,290.0 L 105.5,289.7 L 110.2,289.7 L 115.0,289.5 L 119.8,289.3 L 124.6,289.3 L 129.4,289.3 L 134.2,289.3 L 138.9,289.3 L 143.7,289.3 L 148.5,288.9 L 153.3,288.9 L 158.1,289.1 L 162.8,288.5 L 167.6,288.7 L 172.4,288.1 L 177.2,287.5 L 182.0,287.3 L 186.7,287.5 L 191.5,287.5 L 196.3,286.9 L 201.1,286.7 L 205.9,286.7 L 210.6,286.3 L 215.4,286.1 L 220.2,285.7 L 225.0,285.7 L 229.8,285.5 L 234.5,284.9 L 239.3,284.3 L 244.1,283.9 L 248.9,283.9 L 253.7,283.9 L 258.5,283.8 L 263.2,283.4 L 268.0,283.4 L 272.8,283.2 L 277.6,282.6 L 282.4,282.4 L 287.1,282.4 L 291.9,282.4 L 296.7,282.4 L 301.5,282.2 L 306.3,281.6 L 311.0,281.4 L 315.8,281.2 L 320.6,281.0 L 325.4,281.0 L 330.2,280.8 L 334.9,280.8 L 339.7,280.8 L 344.5,280.2 L 349.3,280.2 L 354.1,280.2 L 358.8,279.8 L 363.6,279.2 L 368.4,279.2 L 373.2,279.0 L 378.0,278.8 L 382.8,278.8 L 387.5,278.8 L 392.3,278.4 L 397.1,278.4 L 401.9,277.3 L 406.7,277.1 L 411.4,276.9 L 416.2,276.9 L 421.0,276.7 L 425.8,276.7 L 430.6,276.7 L 435.3,276.7 L 440.1,276.7 L 444.9,276.7 L 449.7,276.3 L 454.5,276.1 L 459.2,275.1 L 464.0,275.3 L 468.8,275.3 L 473.6,275.1 L 478.4,275.1 L 483.2,275.1 L 487.9,274.7 L 492.7,274.7 L 497.5,274.7 L 502.3,274.7 L 507.1,274.7 L 511.8,274.7 L 516.6,274.5 L 521.4,274.5 L 526.2,273.7 L 531.0,273.7 L 535.7,273.5 L 540.5,273.3 L 545.3,273.1 L 550.1,272.9 L 554.9,272.5 L 559.6,272.5 L 564.4,272.0 L 569.2,272.0 L 574.0,271.8 L 578.8,271.6 L 583.5,271.6 L 588.3,271.6 L 593.1,271.6 L 597.9,271.6 L 602.7,271.6 L 607.5,271.0 L 612.2,271.0 L 617.0,270.6 L 621.8,270.2 L 626.6,269.6 L 631.4,269.4 L 636.1,269.4 L 640.9,268.4 L 645.7,268.2 L 650.5,268.2 L 655.3,267.6 L 660.0,267.6 L 664.8,267.4 L 669.6,267.4 L 674.4,267.6 L 679.2,267.8 L 683.9,267.6 L 688.7,267.2 L 693.5,267.4 L 698.3,267.2 L 703.1,267.0 L 707.8,267.0 L 712.6,267.0 L 717.4,267.0 L 722.2,266.6 L 727.0,266.6 L 731.8,266.6 L 736.5,265.9 L 741.3,265.9 L 746.1,265.9 L 750.9,265.9 L 755.7,265.9 L 760.4,265.9 L 765.2,265.5 L 770.0,265.5" fill="none" stroke="#34C759" stroke-width="2.5" stroke-linejoin="round" clip-path="url(#ca)"/>
<text x="98.3" y="55.0" text-anchor="middle" font-size="9" fill="#4F8EF7" opacity="0.85" clip-path="url(#ca)">+0.5% (+8)</text>
<text x="98.3" y="66.0" text-anchor="middle" font-size="9" fill="#BF5AF2" opacity="0.85" clip-path="url(#ca)">+1.0% (+10)</text>
<text x="98.3" y="77.0" text-anchor="middle" font-size="9" fill="#34C759" opacity="0.85" clip-path="url(#ca)">+1.5% (+11)</text>
<text x="189.1" y="55.0" text-anchor="middle" font-size="9" fill="#4F8EF7" opacity="0.85" clip-path="url(#ca)">+4.0% (+65)</text>
<text x="189.1" y="66.0" text-anchor="middle" font-size="9" fill="#BF5AF2" opacity="0.85" clip-path="url(#ca)">+3.5% (+35)</text>
<text x="189.1" y="77.0" text-anchor="middle" font-size="9" fill="#34C759" opacity="0.85" clip-path="url(#ca)">+3.6% (+27)</text>
<text x="315.8" y="55.0" text-anchor="middle" font-size="9" fill="#4F8EF7" opacity="0.85" clip-path="url(#ca)">+4.1% (+70)</text>
<text x="315.8" y="66.0" text-anchor="middle" font-size="9" fill="#BF5AF2" opacity="0.85" clip-path="url(#ca)">+3.5% (+36)</text>
<text x="315.8" y="77.0" text-anchor="middle" font-size="9" fill="#34C759" opacity="0.85" clip-path="url(#ca)">+3.3% (+26)</text>
<text x="444.9" y="55.0" text-anchor="middle" font-size="9" fill="#4F8EF7" opacity="0.85" clip-path="url(#ca)">+3.5% (+61)</text>
<text x="444.9" y="66.0" text-anchor="middle" font-size="9" fill="#BF5AF2" opacity="0.85" clip-path="url(#ca)">+2.7% (+29)</text>
<text x="444.9" y="77.0" text-anchor="middle" font-size="9" fill="#34C759" opacity="0.85" clip-path="url(#ca)">+2.6% (+21)</text>
<text x="574.0" y="55.0" text-anchor="middle" font-size="9" fill="#4F8EF7" opacity="0.85" clip-path="url(#ca)">+2.7% (+49)</text>
<text x="574.0" y="66.0" text-anchor="middle" font-size="9" fill="#BF5AF2" opacity="0.85" clip-path="url(#ca)">+3.0% (+33)</text>
<text x="574.0" y="77.0" text-anchor="middle" font-size="9" fill="#34C759" opacity="0.85" clip-path="url(#ca)">+3.2% (+27)</text>
<text x="700.7" y="55.0" text-anchor="middle" font-size="9" fill="#4F8EF7" opacity="0.85" clip-path="url(#ca)">+2.9% (+54)</text>
<text x="700.7" y="66.0" text-anchor="middle" font-size="9" fill="#BF5AF2" opacity="0.85" clip-path="url(#ca)">+1.9% (+22)</text>
<text x="700.7" y="77.0" text-anchor="middle" font-size="9" fill="#34C759" opacity="0.85" clip-path="url(#ca)">+1.5% (+13)</text>
<text x="767.6" y="55.0" text-anchor="middle" font-size="9" fill="#4F8EF7" opacity="0.85" clip-path="url(#ca)">+0.1% (+1)</text>
<text x="767.6" y="66.0" text-anchor="middle" font-size="9" fill="#BF5AF2" opacity="0.85" clip-path="url(#ca)">+0.0% (+0)</text>
<text x="767.6" y="77.0" text-anchor="middle" font-size="9" fill="#34C759" opacity="0.85" clip-path="url(#ca)">+0.0% (+0)</text>
<rect x="211" y="369" width="12" height="12" fill="#4F8EF7" rx="2"/>
<text x="227" y="379" font-size="12" fill="#111827">Authors</text>
<rect x="351" y="369" width="12" height="12" fill="#BF5AF2" rx="2"/>
<text x="367" y="379" font-size="12" fill="#111827">Contributors</text>
<rect x="491" y="369" width="12" height="12" fill="#34C759" rx="2"/>
<text x="507" y="379" font-size="12" fill="#111827">Non-author contributors</text>
<text x="72" y="394" font-size="8" fill="#e5e7eb">data since Dec 11, 2025</text>
</svg>