<svg xmlns="http://www.w3.org/2000/svg" width="800" height="400" viewBox="0 0 800 400">
<defs>
  <style>text { font-family: -apple-system, BlinkMacSystemFont, 'Segoe UI', Roboto, sans-serif; }</style>
  <linearGradient id="g5" x1="0" y1="0" x2="0" y2="1">
  <stop offset="0%" stop-color="#34C759" stop-opacity="0.25"/>
  <stop offset="100%" stop-color="#34C759" stop-opacity="0"/>
</linearGradient>
<linearGradient id="g6" x1="0" y1="0" x2="0" y2="1">
  <stop offset="0%" stop-color="#4F8EF7" stop-opacity="0.25"/>
  <stop offset="100%" stop-color="#4F8EF7" stop-opacity="0"/>
</linearGradient>
<linearGradient id="g7" x1="0" y1="0" x2="0" y2="1">
  <stop offset="0%" stop-color="#FF6363" stop-opacity="0.25"/>
  <stop offset="100%" stop-color="#FF6363" stop-opacity="0"/>
</linearGradient>
  <clipPath id="ca"><rect x="72" y="45" width="698" height="295"/></clipPath>
</defs>
<rect width="800" height="400" fill="#ffffff" rx="12"/>
<text x="400" y="26" text-anchor="middle" font-size="15" font-weight="600" fill="#111827">Platform Support Over Time</text>
<line x1="72" y1="340.0" x2="770" y2="340.0" stroke="#f3f4f6" stroke-width="1"/>
<text x="66" y="344.0" text-anchor="end" font-size="11" fill="#6b7280">0</text>
<line x1="72" y1="281.0" x2="770" y2="281.0" stroke="#f3f4f6" stroke-width="1"/>
<text x="66" y="285.0" text-anchor="end" font-size="11" fill="#6b7280">200</text>
<line x1="72" y1="222.0" x2="770" y2="222.0" stroke="#f3f4f6" stroke-width="1"/>
<text x="66" y="226.0" text-anchor="end" font-size="11" fill="#6b7280">400</text>
<line x1="72" y1="163.0" x2="770" y2="163.0" stroke="#f3f4f6" stroke-width="1"/>
<text x="66" y="167.0" text-anchor="end" font-size="11" fill="#6b7280">600</text>
<line x1="72" y1="104.0" x2="770" y2="104.0" stroke="#f3f4f6" stroke-width="1"/>
<text x="66" y="108.0" text-anchor="end" font-size="11" fill="#6b7280">800</text>
<line x1="72" y1="45.0" x2="770" y2="45.0" stroke="#f3f4f6" stroke-width="1"/>
<text x="66" y="49.0" text-anchor="end" font-size="11" fill="#6b7280">1.0k</text>
<line x1="124.0" y1="45" x2="124.0" y2="340" stroke="#e5e7eb" stroke-width="1" stroke-dasharray="3,3" clip-path="url(#ca)"/>
<line x1="236.7" y1="45" x2="236.7" y2="340" stroke="#e5e7eb" stroke-width="1" stroke-dasharray="3,3" clip-path="url(#ca)"/>
<line x1="353.8" y1="45" x2="353.8" y2="340" stroke="#e5e7eb" stroke-width="1" stroke-dasharray="3,3" clip-path="url(#ca)"/>
<line x1="470.9" y1="45" x2="470.9" y2="340" stroke="#e5e7eb" stroke-width="1" stroke-dasharray="3,3" clip-path="url(#ca)"/>
<line x1="587.9" y1="45" x2="587.9" y2="340" stroke="#e5e7eb" stroke-width="1" stroke-dasharray="3,3" clip-path="url(#ca)"/>
<line x1="700.6" y1="45" x2="700.6" y2="340" stroke="#e5e7eb" stroke-width="1" stroke-dasharray="3,3" clip-path="url(#ca)"/>
<text x="72.0" y="358.0" text-anchor="middle" font-size="11" fill="#6b7280">Dec 11</text>
<text x="210.7" y="358.0" text-anchor="middle" font-size="11" fill="#6b7280">Jan 26</text>
<text x="349.5" y="358.0" text-anchor="middle" font-size="11" fill="#6b7280">Feb 28</text>
<text x="492.5" y="358.0" text-anchor="middle" font-size="11" fill="#6b7280">Apr 7</text>
<text x="631.3" y="358.0" text-anchor="middle" font-size="11" fill="#6b7280">May 16</text>
<text x="770.0" y="358.0" text-anchor="middle" font-size="11" fill="#6b7280">Jun 22</text>
<line x1="72" y1="45" x2="72" y2="340" stroke="#e5e7eb" stroke-width="1"/>
<line x1="72" y1="340" x2="770" y2="340" stroke="#e5e7eb" stroke-width="1"/>
<text x="-192.5" y="18" text-anchor="middle" font-size="12" fill="#6b7280" transform="rotate(-90)">Extensions</text>
<path d="M 72.0,340 L 72.0,242.6 L 76.3,240.0 L 80.7,239.7 L 85.0,238.5 L 89.3,237.9 L 93.7,235.0 L 98.0,233.2 L 102.3,232.3 L 106.7,230.8 L 111.0,229.1 L 115.4,228.2 L 119.7,227.9 L 124.0,227.0 L 128.4,226.4 L 132.7,226.1 L 137.0,225.2 L 141.4,224.4 L 145.7,223.5 L 150.0,222.6 L 154.4,221.4 L 158.7,220.5 L 163.0,219.6 L 167.4,218.8 L 171.7,217.0 L 176.0,216.4 L 180.4,216.4 L 184.7,214.3 L 189.1,213.7 L 193.4,213.2 L 197.7,212.6 L 202.1,211.1 L 206.4,209.0 L 210.7,208.7 L 215.1,208.4 L 219.4,206.7 L 223.7,206.1 L 228.1,204.6 L 232.4,204.3 L 236.7,204.0 L 241.1,203.4 L 245.4,203.4 L 249.8,203.4 L 254.1,199.3 L 258.4,199.0 L 262.8,198.1 L 267.1,197.8 L 271.4,197.5 L 275.8,196.6 L 280.1,196.0 L 284.4,195.4 L 288.8,193.7 L 293.1,193.7 L 297.4,193.7 L 301.8,193.4 L 306.1,190.4 L 310.4,189.6 L 314.8,189.0 L 319.1,188.1 L 323.5,187.5 L 327.8,187.5 L 332.1,186.0 L 336.5,183.9 L 340.8,183.4 L 345.1,183.1 L 349.5,182.2 L 353.8,182.2 L 358.1,181.6 L 362.5,180.7 L 366.8,180.1 L 371.1,178.9 L 375.5,177.8 L 379.8,177.5 L 384.1,177.5 L 388.5,176.3 L 392.8,176.3 L 397.2,176.3 L 401.5,174.5 L 405.8,174.2 L 410.2,173.9 L 414.5,173.9 L 418.8,173.6 L 423.2,172.4 L 427.5,171.9 L 431.8,171.0 L 436.2,171.0 L 440.5,170.7 L 444.8,169.5 L 449.2,168.6 L 453.5,168.6 L 457.9,168.3 L 462.2,167.7 L 466.5,165.7 L 470.9,165.1 L 475.2,164.2 L 479.5,164.2 L 483.9,163.6 L 488.2,163.3 L 492.5,163.0 L 496.9,162.7 L 501.2,162.4 L 505.5,162.4 L 509.9,162.1 L 514.2,161.8 L 518.5,160.9 L 522.9,159.8 L 527.2,159.5 L 531.6,158.6 L 535.9,158.6 L 540.2,157.4 L 544.6,157.1 L 548.9,157.1 L 553.2,157.1 L 557.6,156.2 L 561.9,155.9 L 566.2,155.9 L 570.6,155.9 L 574.9,155.6 L 579.2,154.4 L 583.6,154.2 L 587.9,153.3 L 592.2,152.7 L 596.6,152.7 L 600.9,151.8 L 605.3,151.2 L 609.6,151.2 L 613.9,150.9 L 618.3,149.4 L 622.6,148.0 L 626.9,147.7 L 631.3,147.1 L 635.6,145.9 L 639.9,145.9 L 644.3,145.3 L 648.6,143.8 L 652.9,141.2 L 657.3,140.3 L 661.6,140.3 L 666.0,140.3 L 670.3,140.3 L 674.6,140.3 L 679.0,139.1 L 683.3,138.2 L 687.6,138.2 L 692.0,138.2 L 696.3,138.2 L 700.6,137.3 L 705.0,137.3 L 709.3,136.5 L 713.6,135.6 L 718.0,135.3 L 722.3,135.0 L 726.6,134.4 L 731.0,134.4 L 735.3,133.5 L 739.7,132.3 L 744.0,131.4 L 748.3,129.7 L 752.7,129.1 L 757.0,128.8 L 761.3,128.5 L 765.7,127.9 L 770.0,127.6 L 770.0,340 Z" fill="url(#g5)" clip-path="url(#ca)"/>
<path d="M 72.0,242.6 L 76.3,240.0 L 80.7,239.7 L 85.0,238.5 L 89.3,237.9 L 93.7,235.0 L 98.0,233.2 L 102.3,232.3 L 106.7,230.8 L 111.0,229.1 L 115.4,228.2 L 119.7,227.9 L 124.0,227.0 L 128.4,226.4 L 132.7,226.1 L 137.0,225.2 L 141.4,224.4 L 145.7,223.5 L 150.0,222.6 L 154.4,221.4 L 158.7,220.5 L 163.0,219.6 L 167.4,218.8 L 171.7,217.0 L 176.0,216.4 L 180.4,216.4 L 184.7,214.3 L 189.1,213.7 L 193.4,213.2 L 197.7,212.6 L 202.1,211.1 L 206.4,209.0 L 210.7,208.7 L 215.1,208.4 L 219.4,206.7 L 223.7,206.1 L 228.1,204.6 L 232.4,204.3 L 236.7,204.0 L 241.1,203.4 L 245.4,203.4 L 249.8,203.4 L 254.1,199.3 L 258.4,199.0 L 262.8,198.1 L 267.1,197.8 L 271.4,197.5 L 275.8,196.6 L 280.1,196.0 L 284.4,195.4 L 288.8,193.7 L 293.1,193.7 L 297.4,193.7 L 301.8,193.4 L 306.1,190.4 L 310.4,189.6 L 314.8,189.0 L 319.1,188.1 L 323.5,187.5 L 327.8,187.5 L 332.1,186.0 L 336.5,183.9 L 340.8,183.4 L 345.1,183.1 L 349.5,182.2 L 353.8,182.2 L 358.1,181.6 L 362.5,180.7 L 366.8,180.1 L 371.1,178.9 L 375.5,177.8 L 379.8,177.5 L 384.1,177.5 L 388.5,176.3 L 392.8,176.3 L 397.2,176.3 L 401.5,174.5 L 405.8,174.2 L 410.2,173.9 L 414.5,173.9 L 418.8,173.6 L 423.2,172.4 L 427.5,171.9 L 431.8,171.0 L 436.2,171.0 L 440.5,170.7 L 444.8,169.5 L 449.2,168.6 L 453.5,168.6 L 457.9,168.3 L 462.2,167.7 L 466.5,165.7 L 470.9,165.1 L 475.2,164.2 L 479.5,164.2 L 483.9,163.6 L 488.2,163.3 L 492.5,163.0 L 496.9,162.7 L 501.2,162.4 L 505.5,162.4 L 509.9,162.1 L 514.2,161.8 L 518.5,160.9 L 522.9,159.8 L 527.2,159.5 L 531.6,158.6 L 535.9,158.6 L 540.2,157.4 L 544.6,157.1 L 548.9,157.1 L 553.2,157.1 L 557.6,156.2 L 561.9,155.9 L 566.2,155.9 L 570.6,155.9 L 574.9,155.6 L 579.2,154.4 L 583.6,154.2 L 587.9,153.3 L 592.2,152.7 L 596.6,152.7 L 600.9,151.8 L 605.3,151.2 L 609.6,151.2 L 613.9,150.9 L 618.3,149.4 L 622.6,148.0 L 626.9,147.7 L 631.3,147.1 L 635.6,145.9 L 639.9,145.9 L 644.3,145.3 L 648.6,143.8 L 652.9,141.2 L 657.3,140.3 L 661.6,140.3 L 666.0,140.3 L 670.3,140.3 L 674.6,140.3 L 679.0,139.1 L 683.3,138.2 L 687.6,138.2 L 692.0,138.2 L 696.3,138.2 L 700.6,137.3 L 705.0,137.3 L 709.3,136.5 L 713.6,135.6 L 718.0,135.3 L 722.3,135.0 L 726.6,134.4 L 731.0,134.4 L 735.3,133.5 L 739.7,132.3 L 744.0,131.4 L 748.3,129.7 L 752.7,129.1 L 757.0,128.8 L 761.3,128.5 L 765.7,127.9 L 770.0,127.6" fill="none" stroke="#34C759" stroke-width="2.5" stroke-linejoin="round" clip-path="url(#ca)"/>
<path d="M 72.0,340 L 72.0,222.6 L 76.3,222.6 L 80.7,222.3 L 85.0,221.4 L 89.3,221.7 L 93.7,221.7 L 98.0,220.5 L 102.3,219.6 L 106.7,219.6 L 111.0,219.9 L 115.4,219.6 L 119.7,219.3 L 124.0,219.1 L 128.4,219.1 L 132.7,219.1 L 137.0,219.3 L 141.4,218.8 L 145.7,218.2 L 150.0,216.4 L 154.4,215.2 L 158.7,215.2 L 163.0,214.9 L 167.4,213.2 L 171.7,210.5 L 176.0,209.6 L 180.4,209.0 L 184.7,207.0 L 189.1,205.5 L 193.4,204.9 L 197.7,204.3 L 202.1,203.7 L 206.4,203.4 L 210.7,203.4 L 215.1,201.3 L 219.4,200.8 L 223.7,200.2 L 228.1,200.2 L 232.4,198.7 L 236.7,198.4 L 241.1,197.5 L 245.4,196.3 L 249.8,194.9 L 254.1,192.8 L 258.4,190.7 L 262.8,190.4 L 267.1,189.8 L 271.4,189.3 L 275.8,187.5 L 280.1,187.5 L 284.4,186.9 L 288.8,186.0 L 293.1,185.4 L 297.4,184.2 L 301.8,184.5 L 306.1,181.0 L 310.4,180.7 L 314.8,180.4 L 319.1,179.8 L 323.5,178.0 L 327.8,178.0 L 332.1,176.3 L 336.5,174.2 L 340.8,174.2 L 345.1,174.2 L 349.5,173.9 L 353.8,173.6 L 358.1,173.3 L 362.5,171.9 L 366.8,170.1 L 371.1,169.5 L 375.5,168.3 L 379.8,168.3 L 384.1,167.4 L 388.5,165.7 L 392.8,164.8 L 397.2,164.5 L 401.5,162.4 L 405.8,162.1 L 410.2,162.1 L 414.5,161.8 L 418.8,161.8 L 423.2,160.3 L 427.5,159.8 L 431.8,158.9 L 436.2,158.6 L 440.5,158.0 L 444.8,155.6 L 449.2,152.4 L 453.5,152.1 L 457.9,151.5 L 462.2,151.2 L 466.5,149.7 L 470.9,118.5 L 475.2,117.9 L 479.5,116.4 L 483.9,116.4 L 488.2,116.4 L 492.5,116.7 L 496.9,116.4 L 501.2,114.6 L 505.5,114.0 L 509.9,113.7 L 514.2,113.4 L 518.5,112.3 L 522.9,110.5 L 527.2,110.5 L 531.6,110.5 L 535.9,110.2 L 540.2,109.9 L 544.6,109.9 L 548.9,109.3 L 553.2,108.4 L 557.6,106.9 L 561.9,106.4 L 566.2,106.1 L 570.6,106.1 L 574.9,105.8 L 579.2,105.2 L 583.6,104.9 L 587.9,103.4 L 592.2,103.4 L 596.6,102.8 L 600.9,101.6 L 605.3,100.2 L 609.6,99.9 L 613.9,99.6 L 618.3,96.9 L 622.6,96.3 L 626.9,95.7 L 631.3,95.7 L 635.6,94.6 L 639.9,94.0 L 644.3,92.5 L 648.6,91.9 L 652.9,91.0 L 657.3,90.7 L 661.6,89.5 L 666.0,88.7 L 670.3,88.4 L 674.6,87.8 L 679.0,86.6 L 683.3,86.0 L 687.6,85.1 L 692.0,84.5 L 696.3,84.2 L 700.6,83.6 L 705.0,82.8 L 709.3,82.2 L 713.6,81.6 L 718.0,80.7 L 722.3,80.7 L 726.6,80.1 L 731.0,78.6 L 735.3,77.2 L 739.7,76.3 L 744.0,76.6 L 748.3,76.0 L 752.7,75.7 L 757.0,75.4 L 761.3,74.8 L 765.7,73.3 L 770.0,73.3 L 770.0,340 Z" fill="url(#g6)" clip-path="url(#ca)"/>
<path d="M 72.0,222.6 L 76.3,222.6 L 80.7,222.3 L 85.0,221.4 L 89.3,221.7 L 93.7,221.7 L 98.0,220.5 L 102.3,219.6 L 106.7,219.6 L 111.0,219.9 L 115.4,219.6 L 119.7,219.3 L 124.0,219.1 L 128.4,219.1 L 132.7,219.1 L 137.0,219.3 L 141.4,218.8 L 145.7,218.2 L 150.0,216.4 L 154.4,215.2 L 158.7,215.2 L 163.0,214.9 L 167.4,213.2 L 171.7,210.5 L 176.0,209.6 L 180.4,209.0 L 184.7,207.0 L 189.1,205.5 L 193.4,204.9 L 197.7,204.3 L 202.1,203.7 L 206.4,203.4 L 210.7,203.4 L 215.1,201.3 L 219.4,200.8 L 223.7,200.2 L 228.1,200.2 L 232.4,198.7 L 236.7,198.4 L 241.1,197.5 L 245.4,196.3 L 249.8,194.9 L 254.1,192.8 L 258.4,190.7 L 262.8,190.4 L 267.1,189.8 L 271.4,189.3 L 275.8,187.5 L 280.1,187.5 L 284.4,186.9 L 288.8,186.0 L 293.1,185.4 L 297.4,184.2 L 301.8,184.5 L 306.1,181.0 L 310.4,180.7 L 314.8,180.4 L 319.1,179.8 L 323.5,178.0 L 327.8,178.0 L 332.1,176.3 L 336.5,174.2 L 340.8,174.2 L 345.1,174.2 L 349.5,173.9 L 353.8,173.6 L 358.1,173.3 L 362.5,171.9 L 366.8,170.1 L 371.1,169.5 L 375.5,168.3 L 379.8,168.3 L 384.1,167.4 L 388.5,165.7 L 392.8,164.8 L 397.2,164.5 L 401.5,162.4 L 405.8,162.1 L 410.2,162.1 L 414.5,161.8 L 418.8,161.8 L 423.2,160.3 L 427.5,159.8 L 431.8,158.9 L 436.2,158.6 L 440.5,158.0 L 444.8,155.6 L 449.2,152.4 L 453.5,152.1 L 457.9,151.5 L 462.2,151.2 L 466.5,149.7 L 470.9,118.5 L 475.2,117.9 L 479.5,116.4 L 483.9,116.4 L 488.2,116.4 L 492.5,116.7 L 496.9,116.4 L 501.2,114.6 L 505.5,114.0 L 509.9,113.7 L 514.2,113.4 L 518.5,112.3 L 522.9,110.5 L 527.2,110.5 L 531.6,110.5 L 535.9,110.2 L 540.2,109.9 L 544.6,109.9 L 548.9,109.3 L 553.2,108.4 L 557.6,106.9 L 561.9,106.4 L 566.2,106.1 L 570.6,106.1 L 574.9,105.8 L 579.2,105.2 L 583.6,104.9 L 587.9,103.4 L 592.2,103.4 L 596.6,102.8 L 600.9,101.6 L 605.3,100.2 L 609.6,99.9 L 613.9,99.6 L 618.3,96.9 L 622.6,96.3 L 626.9,95.7 L 631.3,95.7 L 635.6,94.6 L 639.9,94.0 L 644.3,92.5 L 648.6,91.9 L 652.9,91.0 L 657.3,90.7 L 661.6,89.5 L 666.0,88.7 L 670.3,88.4 L 674.6,87.8 L 679.0,86.6 L 683.3,86.0 L 687.6,85.1 L 692.0,84.5 L 696.3,84.2 L 700.6,83.6 L 705.0,82.8 L 709.3,82.2 L 713.6,81.6 L 718.0,80.7 L 722.3,80.7 L 726.6,80.1 L 731.0,78.6 L 735.3,77.2 L 739.7,76.3 L 744.0,76.6 L 748.3,76.0 L 752.7,75.7 L 757.0,75.4 L 761.3,74.8 L 765.7,73.3 L 770.0,73.3" fill="none" stroke="#4F8EF7" stroke-width="2.5" stroke-linejoin="round" clip-path="url(#ca)"/>
<path d="M 72.0,340 L 72.0,338.2 L 76.3,337.9 L 80.7,337.9 L 85.0,337.6 L 89.3,337.6 L 93.7,337.6 L 98.0,337.6 L 102.3,337.6 L 106.7,337.1 L 111.0,337.1 L 115.4,337.1 L 119.7,337.1 L 124.0,337.1 L 128.4,336.8 L 132.7,336.8 L 137.0,336.8 L 141.4,336.8 L 145.7,336.8 L 150.0,336.5 L 154.4,335.9 L 158.7,335.6 L 163.0,335.6 L 167.4,335.6 L 171.7,335.3 L 176.0,335.3 L 180.4,335.3 L 184.7,335.0 L 189.1,335.0 L 193.4,335.0 L 197.7,334.7 L 202.1,334.7 L 206.4,334.7 L 210.7,334.7 L 215.1,334.4 L 219.4,334.4 L 223.7,334.4 L 228.1,334.4 L 232.4,334.4 L 236.7,334.4 L 241.1,334.4 L 245.4,334.4 L 249.8,334.4 L 254.1,334.4 L 258.4,334.4 L 262.8,334.4 L 267.1,334.4 L 271.4,334.1 L 275.8,334.1 L 280.1,334.1 L 284.4,334.1 L 288.8,334.1 L 293.1,334.1 L 297.4,334.1 L 301.8,334.1 L 306.1,334.1 L 310.4,334.1 L 314.8,334.1 L 319.1,334.1 L 323.5,333.8 L 327.8,333.8 L 332.1,333.8 L 336.5,333.8 L 340.8,333.8 L 345.1,333.8 L 349.5,333.8 L 353.8,333.8 L 358.1,333.8 L 362.5,333.8 L 366.8,333.8 L 371.1,333.8 L 375.5,333.8 L 379.8,333.8 L 384.1,333.8 L 388.5,333.8 L 392.8,333.8 L 397.2,333.8 L 401.5,333.8 L 405.8,333.8 L 410.2,333.8 L 414.5,333.8 L 418.8,333.8 L 423.2,333.8 L 427.5,333.8 L 431.8,333.8 L 436.2,333.8 L 440.5,333.8 L 444.8,333.8 L 449.2,333.8 L 453.5,333.8 L 457.9,333.8 L 462.2,333.8 L 466.5,333.8 L 470.9,333.8 L 475.2,333.8 L 479.5,333.5 L 483.9,333.5 L 488.2,333.5 L 492.5,333.5 L 496.9,333.5 L 501.2,333.2 L 505.5,333.2 L 509.9,333.2 L 514.2,333.2 L 518.5,332.9 L 522.9,332.9 L 527.2,332.6 L 531.6,332.6 L 535.9,332.6 L 540.2,332.6 L 544.6,332.6 L 548.9,332.6 L 553.2,332.6 L 557.6,332.6 L 561.9,332.6 L 566.2,332.6 L 570.6,332.6 L 574.9,332.6 L 579.2,332.6 L 583.6,332.6 L 587.9,332.6 L 592.2,332.6 L 596.6,332.6 L 600.9,332.6 L 605.3,332.6 L 609.6,332.6 L 613.9,332.6 L 618.3,332.6 L 622.6,332.6 L 626.9,332.6 L 631.3,332.6 L 635.6,332.6 L 639.9,332.6 L 644.3,332.6 L 648.6,332.6 L 652.9,332.6 L 657.3,332.6 L 661.6,332.6 L 666.0,332.6 L 670.3,332.6 L 674.6,332.6 L 679.0,332.6 L 683.3,332.6 L 687.6,332.6 L 692.0,332.6 L 696.3,332.6 L 700.6,332.6 L 705.0,332.6 L 709.3,332.6 L 713.6,332.6 L 718.0,332.6 L 722.3,332.6 L 726.6,332.6 L 731.0,332.6 L 735.3,332.3 L 739.7,332.3 L 744.0,332.3 L 748.3,332.3 L 752.7,332.3 L 757.0,332.3 L 761.3,332.3 L 765.7,332.3 L 770.0,332.3 L 770.0,340 Z" fill="url(#g7)" clip-path="url(#ca)"/>
<path d="M 72.0,338.2 L 76.3,337.9 L 80.7,337.9 L 85.0,337.6 L 89.3,337.6 L 93.7,337.6 L 98.0,337.6 L 102.3,337.6 L 106.7,337.1 L 111.0,337.1 L 115.4,337.1 L 119.7,337.1 L 124.0,337.1 L 128.4,336.8 L 132.7,336.8 L 137.0,336.8 L 141.4,336.8 L 145.7,336.8 L 150.0,336.5 L 154.4,335.9 L 158.7,335.6 L 163.0,335.6 L 167.4,335.6 L 171.7,335.3 L 176.0,335.3 L 180.4,335.3 L 184.7,335.0 L 189.1,335.0 L 193.4,335.0 L 197.7,334.7 L 202.1,334.7 L 206.4,334.7 L 210.7,334.7 L 215.1,334.4 L 219.4,334.4 L 223.7,334.4 L 228.1,334.4 L 232.4,334.4 L 236.7,334.4 L 241.1,334.4 L 245.4,334.4 L 249.8,334.4 L 254.1,334.4 L 258.4,334.4 L 262.8,334.4 L 267.1,334.4 L 271.4,334.1 L 275.8,334.1 L 280.1,334.1 L 284.4,334.1 L 288.8,334.1 L 293.1,334.1 L 297.4,334.1 L 301.8,334.1 L 306.1,334.1 L 310.4,334.1 L 314.8,334.1 L 319.1,334.1 L 323.5,333.8 L 327.8,333.8 L 332.1,333.8 L 336.5,333.8 L 340.8,333.8 L 345.1,333.8 L 349.5,333.8 L 353.8,333.8 L 358.1,333.8 L 362.5,333.8 L 366.8,333.8 L 371.1,333.8 L 375.5,333.8 L 379.8,333.8 L 384.1,333.8 L 388.5,333.8 L 392.8,333.8 L 397.2,333.8 L 401.5,333.8 L 405.8,333.8 L 410.2,333.8 L 414.5,333.8 L 418.8,333.8 L 423.2,333.8 L 427.5,333.8 L 431.8,333.8 L 436.2,333.8 L 440.5,333.8 L 444.8,333.8 L 449.2,333.8 L 453.5,333.8 L 457.9,333.8 L 462.2,333.8 L 466.5,333.8 L 470.9,333.8 L 475.2,333.8 L 479.5,333.5 L 483.9,333.5 L 488.2,333.5 L 492.5,333.5 L 496.9,333.5 L 501.2,333.2 L 505.5,333.2 L 509.9,333.2 L 514.2,333.2 L 518.5,332.9 L 522.9,332.9 L 527.2,332.6 L 531.6,332.6 L 535.9,332.6 L 540.2,332.6 L 544.6,332.6 L 548.9,332.6 L 553.2,332.6 L 557.6,332.6 L 561.9,332.6 L 566.2,332.6 L 570.6,332.6 L 574.9,332.6 L 579.2,332.6 L 583.6,332.6 L 587.9,332.6 L 592.2,332.6 L 596.6,332.6 L 600.9,332.6 L 605.3,332.6 L 609.6,332.6 L 613.9,332.6 L 618.3,332.6 L 622.6,332.6 L 626.9,332.6 L 631.3,332.6 L 635.6,332.6 L 639.9,332.6 L 644.3,332.6 L 648.6,332.6 L 652.9,332.6 L 657.3,332.6 L 661.6,332.6 L 666.0,332.6 L 670.3,332.6 L 674.6,332.6 L 679.0,332.6 L 683.3,332.6 L 687.6,332.6 L 692.0,332.6 L 696.3,332.6 L 700.6,332.6 L 705.0,332.6 L 709.3,332.6 L 713.6,332.6 L 718.0,332.6 L 722.3,332.6 L 726.6,332.6 L 731.0,332.6 L 735.3,332.3 L 739.7,332.3 L 744.0,332.3 L 748.3,332.3 L 752.7,332.3 L 757.0,332.3 L 761.3,332.3 L 765.7,332.3 L 770.0,332.3" fill="none" stroke="#FF6363" stroke-width="2.5" stroke-linejoin="round" clip-path="url(#ca)"/>
<text x="95.8" y="55.0" text-anchor="middle" font-size="9" fill="#34C759" opacity="0.85" clip-path="url(#ca)">+15.2% (+50)</text>
<text x="95.8" y="66.0" text-anchor="middle" font-size="9" fill="#4F8EF7" opacity="0.85" clip-path="url(#ca)">+2.8% (+11)</text>
<text x="95.8" y="77.0" text-anchor="middle" font-size="9" fill="#FF6363" opacity="0.85" clip-path="url(#ca)">+66.7% (+4)</text>
<text x="178.2" y="55.0" text-anchor="middle" font-size="9" fill="#34C759" opacity="0.85" clip-path="url(#ca)">+20.1% (+77)</text>
<text x="178.2" y="66.0" text-anchor="middle" font-size="9" fill="#4F8EF7" opacity="0.85" clip-path="url(#ca)">+16.8% (+69)</text>
<text x="178.2" y="77.0" text-anchor="middle" font-size="9" fill="#FF6363" opacity="0.85" clip-path="url(#ca)">+90.0% (+9)</text>
<text x="293.1" y="55.0" text-anchor="middle" font-size="9" fill="#34C759" opacity="0.85" clip-path="url(#ca)">+16.1% (+74)</text>
<text x="293.1" y="66.0" text-anchor="middle" font-size="9" fill="#4F8EF7" opacity="0.85" clip-path="url(#ca)">+17.3% (+83)</text>
<text x="293.1" y="77.0" text-anchor="middle" font-size="9" fill="#FF6363" opacity="0.85" clip-path="url(#ca)">+10.5% (+2)</text>
<text x="410.2" y="55.0" text-anchor="middle" font-size="9" fill="#34C759" opacity="0.85" clip-path="url(#ca)">+10.5% (+56)</text>
<text x="410.2" y="66.0" text-anchor="middle" font-size="9" fill="#4F8EF7" opacity="0.85" clip-path="url(#ca)">+14.4% (+81)</text>
<text x="410.2" y="77.0" text-anchor="middle" font-size="9" fill="#FF6363" opacity="0.85" clip-path="url(#ca)">+0.0% (+0)</text>
<text x="527.2" y="55.0" text-anchor="middle" font-size="9" fill="#34C759" opacity="0.85" clip-path="url(#ca)">+6.2% (+37)</text>
<text x="527.2" y="66.0" text-anchor="middle" font-size="9" fill="#4F8EF7" opacity="0.85" clip-path="url(#ca)">+6.1% (+46)</text>
<text x="527.2" y="77.0" text-anchor="middle" font-size="9" fill="#FF6363" opacity="0.85" clip-path="url(#ca)">+19.0% (+4)</text>
<text x="642.1" y="55.0" text-anchor="middle" font-size="9" fill="#34C759" opacity="0.85" clip-path="url(#ca)">+8.1% (+51)</text>
<text x="642.1" y="66.0" text-anchor="middle" font-size="9" fill="#4F8EF7" opacity="0.85" clip-path="url(#ca)">+8.1% (+65)</text>
<text x="642.1" y="77.0" text-anchor="middle" font-size="9" fill="#FF6363" opacity="0.85" clip-path="url(#ca)">+0.0% (+0)</text>
<text x="735.3" y="55.0" text-anchor="middle" font-size="9" fill="#34C759" opacity="0.85" clip-path="url(#ca)">+4.8% (+33)</text>
<text x="735.3" y="66.0" text-anchor="middle" font-size="9" fill="#4F8EF7" opacity="0.85" clip-path="url(#ca)">+4.0% (+35)</text>
<text x="735.3" y="77.0" text-anchor="middle" font-size="9" fill="#FF6363" opacity="0.85" clip-path="url(#ca)">+4.0% (+1)</text>
<rect x="211" y="369" width="12" height="12" fill="#34C759" rx="2"/>
<text x="227" y="379" font-size="12" fill="#111827">macOS + Windows</text>
<rect x="351" y="369" width="12" height="12" fill="#4F8EF7" rx="2"/>
<text x="367" y="379" font-size="12" fill="#111827">macOS only</text>
<rect x="491" y="369" width="12" height="12" fill="#FF6363" rx="2"/>
<text x="507" y="379" font-size="12" fill="#111827">Windows only</text>
<text x="72" y="394" font-size="8" fill="#e5e7eb">data since Dec 11, 2025</text>
</svg>