<svg xmlns="http://www.w3.org/2000/svg" width="800" height="400" viewBox="0 0 800 400">
<defs>
  <style>text { font-family: -apple-system, BlinkMacSystemFont, 'Segoe UI', Roboto, sans-serif; }</style>
  <linearGradient id="g1" x1="0" y1="0" x2="0" y2="1">
  <stop offset="0%" stop-color="#FF6363" stop-opacity="0.25"/>
  <stop offset="100%" stop-color="#FF6363" stop-opacity="0"/>
</linearGradient>
  <clipPath id="ca"><rect x="72" y="45" width="698" height="295"/></clipPath>
</defs>
<rect width="800" height="400" fill="#ffffff" rx="12"/>
<text x="400" y="26" text-anchor="middle" font-size="15" font-weight="600" fill="#111827">Packages Growth Over Time</text>
<line x1="72" y1="340.0" x2="770" y2="340.0" stroke="#f3f4f6" stroke-width="1"/>
<text x="66" y="344.0" text-anchor="end" font-size="11" fill="#6b7280">2.4k</text>
<line x1="72" y1="266.3" x2="770" y2="266.3" stroke="#f3f4f6" stroke-width="1"/>
<text x="66" y="270.3" text-anchor="end" font-size="11" fill="#6b7280">2.6k</text>
<line x1="72" y1="192.5" x2="770" y2="192.5" stroke="#f3f4f6" stroke-width="1"/>
<text x="66" y="196.5" text-anchor="end" font-size="11" fill="#6b7280">2.8k</text>
<line x1="72" y1="118.8" x2="770" y2="118.8" stroke="#f3f4f6" stroke-width="1"/>
<text x="66" y="122.8" text-anchor="end" font-size="11" fill="#6b7280">3.0k</text>
<line x1="72" y1="45.0" x2="770" y2="45.0" stroke="#f3f4f6" stroke-width="1"/>
<text x="66" y="49.0" text-anchor="end" font-size="11" fill="#6b7280">3.2k</text>
<line x1="118.5" y1="45" x2="118.5" y2="340" stroke="#e5e7eb" stroke-width="1" stroke-dasharray="3,3" clip-path="url(#ca)"/>
<line x1="219.4" y1="45" x2="219.4" y2="340" stroke="#e5e7eb" stroke-width="1" stroke-dasharray="3,3" clip-path="url(#ca)"/>
<line x1="324.1" y1="45" x2="324.1" y2="340" stroke="#e5e7eb" stroke-width="1" stroke-dasharray="3,3" clip-path="url(#ca)"/>
<line x1="428.8" y1="45" x2="428.8" y2="340" stroke="#e5e7eb" stroke-width="1" stroke-dasharray="3,3" clip-path="url(#ca)"/>
<line x1="533.5" y1="45" x2="533.5" y2="340" stroke="#e5e7eb" stroke-width="1" stroke-dasharray="3,3" clip-path="url(#ca)"/>
<line x1="634.3" y1="45" x2="634.3" y2="340" stroke="#e5e7eb" stroke-width="1" stroke-dasharray="3,3" clip-path="url(#ca)"/>
<line x1="727.3" y1="45" x2="727.3" y2="340" stroke="#e5e7eb" stroke-width="1" stroke-dasharray="3,3" clip-path="url(#ca)"/>
<text x="72.0" y="358.0" text-anchor="middle" font-size="11" fill="#6b7280">Dec 11</text>
<text x="211.6" y="358.0" text-anchor="middle" font-size="11" fill="#6b7280">Jan 30</text>
<text x="351.2" y="358.0" text-anchor="middle" font-size="11" fill="#6b7280">Mar 9</text>
<text x="490.8" y="358.0" text-anchor="middle" font-size="11" fill="#6b7280">Apr 18</text>
<text x="630.4" y="358.0" text-anchor="middle" font-size="11" fill="#6b7280">May 31</text>
<text x="770.0" y="358.0" text-anchor="middle" font-size="11" fill="#6b7280">Jul 15</text>
<line x1="72" y1="45" x2="72" y2="340" stroke="#e5e7eb" stroke-width="1"/>
<line x1="72" y1="340" x2="770" y2="340" stroke="#e5e7eb" stroke-width="1"/>
<text x="-192.5" y="18" text-anchor="middle" font-size="12" fill="#6b7280" transform="rotate(-90)">Extensions</text>
<path d="M 72.0,340 L 72.0,311.6 L 75.9,311.2 L 79.8,311.2 L 83.6,310.1 L 87.5,310.1 L 91.4,309.4 L 95.3,308.7 L 99.1,308.3 L 103.0,306.4 L 106.9,305.0 L 110.8,305.0 L 114.7,305.0 L 118.5,305.0 L 122.4,304.2 L 126.3,304.2 L 130.2,304.2 L 134.0,303.5 L 137.9,302.0 L 141.8,299.4 L 145.7,297.6 L 149.6,296.9 L 153.4,296.5 L 157.3,295.0 L 161.2,290.6 L 165.1,289.1 L 168.9,289.1 L 172.8,285.4 L 176.7,284.3 L 180.6,282.8 L 184.5,281.7 L 188.3,279.5 L 192.2,277.7 L 196.1,277.3 L 200.0,274.4 L 203.8,271.8 L 207.7,271.8 L 211.6,269.9 L 215.5,268.5 L 219.4,268.1 L 223.2,267.7 L 227.1,267.4 L 231.0,266.3 L 234.9,259.6 L 238.7,256.7 L 242.6,255.2 L 246.5,254.4 L 250.4,253.3 L 254.3,250.8 L 258.1,250.0 L 262.0,249.3 L 265.9,247.1 L 269.8,246.3 L 273.6,245.6 L 277.5,245.6 L 281.4,239.0 L 285.3,238.2 L 289.2,237.5 L 293.0,236.0 L 296.9,234.2 L 300.8,234.2 L 304.7,231.2 L 308.5,226.4 L 312.4,225.7 L 316.3,226.1 L 320.2,224.9 L 324.1,224.6 L 327.9,224.6 L 331.8,222.4 L 335.7,220.5 L 339.6,219.1 L 343.4,217.2 L 347.3,216.8 L 351.2,216.8 L 355.1,214.3 L 359.0,213.5 L 362.8,213.2 L 366.7,208.7 L 370.6,208.4 L 374.5,208.4 L 378.3,208.4 L 382.2,208.0 L 386.1,206.1 L 390.0,204.7 L 393.9,202.8 L 397.7,202.5 L 401.6,201.3 L 405.5,198.0 L 409.4,195.1 L 413.2,194.7 L 417.1,194.3 L 421.0,193.2 L 424.9,189.6 L 428.8,188.8 L 432.6,187.7 L 436.5,185.5 L 440.4,185.1 L 444.3,184.8 L 448.1,184.8 L 452.0,184.0 L 455.9,181.8 L 459.8,181.1 L 463.7,180.3 L 467.5,180.0 L 471.4,179.2 L 475.3,175.5 L 479.2,175.2 L 483.0,174.4 L 486.9,174.1 L 490.8,172.2 L 494.7,171.9 L 498.6,171.5 L 502.4,170.4 L 506.3,168.9 L 510.2,168.9 L 514.1,168.9 L 517.9,168.9 L 521.8,168.2 L 525.7,166.3 L 529.6,166.0 L 533.5,164.1 L 537.3,163.7 L 541.2,163.4 L 545.1,161.2 L 549.0,158.9 L 552.8,158.6 L 556.7,158.2 L 560.6,153.4 L 564.5,151.9 L 568.4,150.8 L 572.2,150.5 L 576.1,147.9 L 580.0,147.9 L 583.9,146.0 L 587.7,144.9 L 591.6,141.2 L 595.5,139.8 L 599.4,139.4 L 603.3,139.0 L 607.1,139.0 L 611.0,138.7 L 614.9,136.5 L 618.8,134.6 L 622.6,134.6 L 626.5,134.2 L 630.4,134.2 L 634.3,132.8 L 638.2,132.0 L 642.0,130.9 L 645.9,129.8 L 649.8,128.3 L 653.7,128.3 L 657.5,127.2 L 661.4,125.8 L 665.3,122.8 L 669.2,120.2 L 673.1,119.5 L 676.9,118.8 L 680.8,118.0 L 684.7,117.6 L 688.6,116.5 L 692.4,114.3 L 696.3,114.0 L 700.2,112.5 L 704.1,111.0 L 708.0,108.4 L 711.8,107.3 L 715.7,106.6 L 719.6,106.6 L 723.5,105.1 L 727.3,104.4 L 731.2,103.6 L 735.1,103.3 L 739.0,102.2 L 742.9,102.2 L 746.7,100.7 L 750.6,100.3 L 754.5,99.6 L 758.4,97.0 L 762.2,95.5 L 766.1,95.5 L 770.0,95.5 L 770.0,340 Z" fill="url(#g1)" clip-path="url(#ca)"/>
<path d="M 72.0,311.6 L 75.9,311.2 L 79.8,311.2 L 83.6,310.1 L 87.5,310.1 L 91.4,309.4 L 95.3,308.7 L 99.1,308.3 L 103.0,306.4 L 106.9,305.0 L 110.8,305.0 L 114.7,305.0 L 118.5,305.0 L 122.4,304.2 L 126.3,304.2 L 130.2,304.2 L 134.0,303.5 L 137.9,302.0 L 141.8,299.4 L 145.7,297.6 L 149.6,296.9 L 153.4,296.5 L 157.3,295.0 L 161.2,290.6 L 165.1,289.1 L 168.9,289.1 L 172.8,285.4 L 176.7,284.3 L 180.6,282.8 L 184.5,281.7 L 188.3,279.5 L 192.2,277.7 L 196.1,277.3 L 200.0,274.4 L 203.8,271.8 L 207.7,271.8 L 211.6,269.9 L 215.5,268.5 L 219.4,268.1 L 223.2,267.7 L 227.1,267.4 L 231.0,266.3 L 234.9,259.6 L 238.7,256.7 L 242.6,255.2 L 246.5,254.4 L 250.4,253.3 L 254.3,250.8 L 258.1,250.0 L 262.0,249.3 L 265.9,247.1 L 269.8,246.3 L 273.6,245.6 L 277.5,245.6 L 281.4,239.0 L 285.3,238.2 L 289.2,237.5 L 293.0,236.0 L 296.9,234.2 L 300.8,234.2 L 304.7,231.2 L 308.5,226.4 L 312.4,225.7 L 316.3,226.1 L 320.2,224.9 L 324.1,224.6 L 327.9,224.6 L 331.8,222.4 L 335.7,220.5 L 339.6,219.1 L 343.4,217.2 L 347.3,216.8 L 351.2,216.8 L 355.1,214.3 L 359.0,213.5 L 362.8,213.2 L 366.7,208.7 L 370.6,208.4 L 374.5,208.4 L 378.3,208.4 L 382.2,208.0 L 386.1,206.1 L 390.0,204.7 L 393.9,202.8 L 397.7,202.5 L 401.6,201.3 L 405.5,198.0 L 409.4,195.1 L 413.2,194.7 L 417.1,194.3 L 421.0,193.2 L 424.9,189.6 L 428.8,188.8 L 432.6,187.7 L 436.5,185.5 L 440.4,185.1 L 444.3,184.8 L 448.1,184.8 L 452.0,184.0 L 455.9,181.8 L 459.8,181.1 L 463.7,180.3 L 467.5,180.0 L 471.4,179.2 L 475.3,175.5 L 479.2,175.2 L 483.0,174.4 L 486.9,174.1 L 490.8,172.2 L 494.7,171.9 L 498.6,171.5 L 502.4,170.4 L 506.3,168.9 L 510.2,168.9 L 514.1,168.9 L 517.9,168.9 L 521.8,168.2 L 525.7,166.3 L 529.6,166.0 L 533.5,164.1 L 537.3,163.7 L 541.2,163.4 L 545.1,161.2 L 549.0,158.9 L 552.8,158.6 L 556.7,158.2 L 560.6,153.4 L 564.5,151.9 L 568.4,150.8 L 572.2,150.5 L 576.1,147.9 L 580.0,147.9 L 583.9,146.0 L 587.7,144.9 L 591.6,141.2 L 595.5,139.8 L 599.4,139.4 L 603.3,139.0 L 607.1,139.0 L 611.0,138.7 L 614.9,136.5 L 618.8,134.6 L 622.6,134.6 L 626.5,134.2 L 630.4,134.2 L 634.3,132.8 L 638.2,132.0 L 642.0,130.9 L 645.9,129.8 L 649.8,128.3 L 653.7,128.3 L 657.5,127.2 L 661.4,125.8 L 665.3,122.8 L 669.2,120.2 L 673.1,119.5 L 676.9,118.8 L 680.8,118.0 L 684.7,117.6 L 688.6,116.5 L 692.4,114.3 L 696.3,114.0 L 700.2,112.5 L 704.1,111.0 L 708.0,108.4 L 711.8,107.3 L 715.7,106.6 L 719.6,106.6 L 723.5,105.1 L 727.3,104.4 L 731.2,103.6 L 735.1,103.3 L 739.0,102.2 L 742.9,102.2 L 746.7,100.7 L 750.6,100.3 L 754.5,99.6 L 758.4,97.0 L 762.2,95.5 L 766.1,95.5 L 770.0,95.5" fill="none" stroke="#FF6363" stroke-width="2.5" stroke-linejoin="round" clip-path="url(#ca)"/>
<text x="93.3" y="55.0" text-anchor="middle" font-size="9" fill="#FF6363" opacity="0.85" clip-path="url(#ca)">+0.7% (+18)</text>
<text x="167.0" y="55.0" text-anchor="middle" font-size="9" fill="#FF6363" opacity="0.85" clip-path="url(#ca)">+4.0% (+99)</text>
<text x="269.8" y="55.0" text-anchor="middle" font-size="9" fill="#FF6363" opacity="0.85" clip-path="url(#ca)">+4.5% (+117)</text>
<text x="374.5" y="55.0" text-anchor="middle" font-size="9" fill="#FF6363" opacity="0.85" clip-path="url(#ca)">+3.5% (+95)</text>
<text x="479.2" y="55.0" text-anchor="middle" font-size="9" fill="#FF6363" opacity="0.85" clip-path="url(#ca)">+2.2% (+62)</text>
<text x="581.9" y="55.0" text-anchor="middle" font-size="9" fill="#FF6363" opacity="0.85" clip-path="url(#ca)">+2.8% (+81)</text>
<text x="678.9" y="55.0" text-anchor="middle" font-size="9" fill="#FF6363" opacity="0.85" clip-path="url(#ca)">+2.5% (+75)</text>
<text x="748.7" y="55.0" text-anchor="middle" font-size="9" fill="#FF6363" opacity="0.85" clip-path="url(#ca)">+0.8% (+24)</text>
<rect x="351" y="369" width="12" height="12" fill="#FF6363" rx="2"/>
<text x="367" y="379" font-size="12" fill="#111827">Extensions</text>
<text x="72" y="394" font-size="8" fill="#e5e7eb">data since Dec 11, 2025</text>
</svg>