<svg xmlns="http://www.w3.org/2000/svg" width="800" height="400" viewBox="0 0 800 400">
<defs>
  <style>text { font-family: -apple-system, BlinkMacSystemFont, 'Segoe UI', Roboto, sans-serif; }</style>
  <linearGradient id="g1" x1="0" y1="0" x2="0" y2="1">
  <stop offset="0%" stop-color="#FF6363" stop-opacity="0.25"/>
  <stop offset="100%" stop-color="#FF6363" stop-opacity="0"/>
</linearGradient>
  <clipPath id="ca"><rect x="72" y="45" width="698" height="295"/></clipPath>
</defs>
<rect width="800" height="400" fill="#ffffff" rx="12"/>
<text x="400" y="26" text-anchor="middle" font-size="15" font-weight="600" fill="#111827">Packages Growth Over Time</text>
<line x1="72" y1="340.0" x2="770" y2="340.0" stroke="#f3f4f6" stroke-width="1"/>
<text x="66" y="344.0" text-anchor="end" font-size="11" fill="#6b7280">2.4k</text>
<line x1="72" y1="266.3" x2="770" y2="266.3" stroke="#f3f4f6" stroke-width="1"/>
<text x="66" y="270.3" text-anchor="end" font-size="11" fill="#6b7280">2.6k</text>
<line x1="72" y1="192.5" x2="770" y2="192.5" stroke="#f3f4f6" stroke-width="1"/>
<text x="66" y="196.5" text-anchor="end" font-size="11" fill="#6b7280">2.8k</text>
<line x1="72" y1="118.8" x2="770" y2="118.8" stroke="#f3f4f6" stroke-width="1"/>
<text x="66" y="122.8" text-anchor="end" font-size="11" fill="#6b7280">3.0k</text>
<line x1="72" y1="45.0" x2="770" y2="45.0" stroke="#f3f4f6" stroke-width="1"/>
<text x="66" y="49.0" text-anchor="end" font-size="11" fill="#6b7280">3.2k</text>
<line x1="123.4" y1="45" x2="123.4" y2="340" stroke="#e5e7eb" stroke-width="1" stroke-dasharray="3,3" clip-path="url(#ca)"/>
<line x1="234.7" y1="45" x2="234.7" y2="340" stroke="#e5e7eb" stroke-width="1" stroke-dasharray="3,3" clip-path="url(#ca)"/>
<line x1="350.3" y1="45" x2="350.3" y2="340" stroke="#e5e7eb" stroke-width="1" stroke-dasharray="3,3" clip-path="url(#ca)"/>
<line x1="466.0" y1="45" x2="466.0" y2="340" stroke="#e5e7eb" stroke-width="1" stroke-dasharray="3,3" clip-path="url(#ca)"/>
<line x1="581.6" y1="45" x2="581.6" y2="340" stroke="#e5e7eb" stroke-width="1" stroke-dasharray="3,3" clip-path="url(#ca)"/>
<line x1="692.9" y1="45" x2="692.9" y2="340" stroke="#e5e7eb" stroke-width="1" stroke-dasharray="3,3" clip-path="url(#ca)"/>
<text x="72.0" y="358.0" text-anchor="middle" font-size="11" fill="#6b7280">Dec 11</text>
<text x="213.3" y="358.0" text-anchor="middle" font-size="11" fill="#6b7280">Jan 27</text>
<text x="350.3" y="358.0" text-anchor="middle" font-size="11" fill="#6b7280">Mar 1</text>
<text x="491.7" y="358.0" text-anchor="middle" font-size="11" fill="#6b7280">Apr 8</text>
<text x="628.7" y="358.0" text-anchor="middle" font-size="11" fill="#6b7280">May 17</text>
<text x="770.0" y="358.0" text-anchor="middle" font-size="11" fill="#6b7280">Jun 24</text>
<line x1="72" y1="45" x2="72" y2="340" stroke="#e5e7eb" stroke-width="1"/>
<line x1="72" y1="340" x2="770" y2="340" stroke="#e5e7eb" stroke-width="1"/>
<text x="-192.5" y="18" text-anchor="middle" font-size="12" fill="#6b7280" transform="rotate(-90)">Extensions</text>
<path d="M 72.0,340 L 72.0,311.6 L 76.3,311.2 L 80.6,311.2 L 84.8,310.1 L 89.1,310.1 L 93.4,309.4 L 97.7,308.7 L 102.0,308.3 L 106.3,306.4 L 110.5,305.0 L 114.8,305.0 L 119.1,305.0 L 123.4,305.0 L 127.7,304.2 L 132.0,304.2 L 136.2,304.2 L 140.5,303.5 L 144.8,302.0 L 149.1,299.4 L 153.4,297.6 L 157.6,296.9 L 161.9,296.5 L 166.2,295.0 L 170.5,290.6 L 174.8,289.1 L 179.1,289.1 L 183.3,285.4 L 187.6,284.3 L 191.9,282.8 L 196.2,281.7 L 200.5,279.5 L 204.7,277.7 L 209.0,277.3 L 213.3,274.4 L 217.6,271.8 L 221.9,271.8 L 226.2,269.9 L 230.4,268.5 L 234.7,268.1 L 239.0,267.7 L 243.3,267.4 L 247.6,266.3 L 251.9,259.6 L 256.1,256.7 L 260.4,255.2 L 264.7,254.4 L 269.0,253.3 L 273.3,250.8 L 277.5,250.0 L 281.8,249.3 L 286.1,247.1 L 290.4,246.3 L 294.7,245.6 L 299.0,245.6 L 303.2,239.0 L 307.5,238.2 L 311.8,237.5 L 316.1,236.0 L 320.4,234.2 L 324.7,234.2 L 328.9,231.2 L 333.2,226.4 L 337.5,225.7 L 341.8,226.1 L 346.1,224.9 L 350.3,224.6 L 354.6,224.6 L 358.9,222.4 L 363.2,220.5 L 367.5,219.1 L 371.8,217.2 L 376.0,216.8 L 380.3,216.8 L 384.6,214.3 L 388.9,213.5 L 393.2,213.2 L 397.4,208.7 L 401.7,208.4 L 406.0,208.4 L 410.3,208.4 L 414.6,208.0 L 418.9,206.1 L 423.1,204.7 L 427.4,202.8 L 431.7,202.5 L 436.0,201.3 L 440.3,198.0 L 444.6,195.1 L 448.8,194.7 L 453.1,194.3 L 457.4,193.2 L 461.7,189.6 L 466.0,188.8 L 470.2,187.7 L 474.5,185.5 L 478.8,185.1 L 483.1,184.8 L 487.4,184.8 L 491.7,184.0 L 495.9,181.8 L 500.2,181.1 L 504.5,180.3 L 508.8,180.0 L 513.1,179.2 L 517.3,175.5 L 521.6,175.2 L 525.9,174.4 L 530.2,174.1 L 534.5,172.2 L 538.8,171.9 L 543.0,171.5 L 547.3,170.4 L 551.6,168.9 L 555.9,168.9 L 560.2,168.9 L 564.5,168.9 L 568.7,168.2 L 573.0,166.3 L 577.3,166.0 L 581.6,164.1 L 585.9,163.7 L 590.1,163.4 L 594.4,161.2 L 598.7,158.9 L 603.0,158.6 L 607.3,158.2 L 611.6,153.4 L 615.8,151.9 L 620.1,150.8 L 624.4,150.5 L 628.7,147.9 L 633.0,147.9 L 637.3,146.0 L 641.5,144.9 L 645.8,141.2 L 650.1,139.8 L 654.4,139.4 L 658.7,139.0 L 662.9,139.0 L 667.2,138.7 L 671.5,136.5 L 675.8,134.6 L 680.1,134.6 L 684.4,134.2 L 688.6,134.2 L 692.9,132.8 L 697.2,132.0 L 701.5,130.9 L 705.8,129.8 L 710.0,128.3 L 714.3,128.3 L 718.6,127.2 L 722.9,125.8 L 727.2,122.8 L 731.5,120.2 L 735.7,119.5 L 740.0,118.8 L 744.3,118.0 L 748.6,117.6 L 752.9,116.5 L 757.2,114.3 L 761.4,114.0 L 765.7,112.5 L 770.0,111.0 L 770.0,340 Z" fill="url(#g1)" clip-path="url(#ca)"/>
<path d="M 72.0,311.6 L 76.3,311.2 L 80.6,311.2 L 84.8,310.1 L 89.1,310.1 L 93.4,309.4 L 97.7,308.7 L 102.0,308.3 L 106.3,306.4 L 110.5,305.0 L 114.8,305.0 L 119.1,305.0 L 123.4,305.0 L 127.7,304.2 L 132.0,304.2 L 136.2,304.2 L 140.5,303.5 L 144.8,302.0 L 149.1,299.4 L 153.4,297.6 L 157.6,296.9 L 161.9,296.5 L 166.2,295.0 L 170.5,290.6 L 174.8,289.1 L 179.1,289.1 L 183.3,285.4 L 187.6,284.3 L 191.9,282.8 L 196.2,281.7 L 200.5,279.5 L 204.7,277.7 L 209.0,277.3 L 213.3,274.4 L 217.6,271.8 L 221.9,271.8 L 226.2,269.9 L 230.4,268.5 L 234.7,268.1 L 239.0,267.7 L 243.3,267.4 L 247.6,266.3 L 251.9,259.6 L 256.1,256.7 L 260.4,255.2 L 264.7,254.4 L 269.0,253.3 L 273.3,250.8 L 277.5,250.0 L 281.8,249.3 L 286.1,247.1 L 290.4,246.3 L 294.7,245.6 L 299.0,245.6 L 303.2,239.0 L 307.5,238.2 L 311.8,237.5 L 316.1,236.0 L 320.4,234.2 L 324.7,234.2 L 328.9,231.2 L 333.2,226.4 L 337.5,225.7 L 341.8,226.1 L 346.1,224.9 L 350.3,224.6 L 354.6,224.6 L 358.9,222.4 L 363.2,220.5 L 367.5,219.1 L 371.8,217.2 L 376.0,216.8 L 380.3,216.8 L 384.6,214.3 L 388.9,213.5 L 393.2,213.2 L 397.4,208.7 L 401.7,208.4 L 406.0,208.4 L 410.3,208.4 L 414.6,208.0 L 418.9,206.1 L 423.1,204.7 L 427.4,202.8 L 431.7,202.5 L 436.0,201.3 L 440.3,198.0 L 444.6,195.1 L 448.8,194.7 L 453.1,194.3 L 457.4,193.2 L 461.7,189.6 L 466.0,188.8 L 470.2,187.7 L 474.5,185.5 L 478.8,185.1 L 483.1,184.8 L 487.4,184.8 L 491.7,184.0 L 495.9,181.8 L 500.2,181.1 L 504.5,180.3 L 508.8,180.0 L 513.1,179.2 L 517.3,175.5 L 521.6,175.2 L 525.9,174.4 L 530.2,174.1 L 534.5,172.2 L 538.8,171.9 L 543.0,171.5 L 547.3,170.4 L 551.6,168.9 L 555.9,168.9 L 560.2,168.9 L 564.5,168.9 L 568.7,168.2 L 573.0,166.3 L 577.3,166.0 L 581.6,164.1 L 585.9,163.7 L 590.1,163.4 L 594.4,161.2 L 598.7,158.9 L 603.0,158.6 L 607.3,158.2 L 611.6,153.4 L 615.8,151.9 L 620.1,150.8 L 624.4,150.5 L 628.7,147.9 L 633.0,147.9 L 637.3,146.0 L 641.5,144.9 L 645.8,141.2 L 650.1,139.8 L 654.4,139.4 L 658.7,139.0 L 662.9,139.0 L 667.2,138.7 L 671.5,136.5 L 675.8,134.6 L 680.1,134.6 L 684.4,134.2 L 688.6,134.2 L 692.9,132.8 L 697.2,132.0 L 701.5,130.9 L 705.8,129.8 L 710.0,128.3 L 714.3,128.3 L 718.6,127.2 L 722.9,125.8 L 727.2,122.8 L 731.5,120.2 L 735.7,119.5 L 740.0,118.8 L 744.3,118.0 L 748.6,117.6 L 752.9,116.5 L 757.2,114.3 L 761.4,114.0 L 765.7,112.5 L 770.0,111.0" fill="none" stroke="#FF6363" stroke-width="2.5" stroke-linejoin="round" clip-path="url(#ca)"/>
<text x="95.6" y="55.0" text-anchor="middle" font-size="9" fill="#FF6363" opacity="0.85" clip-path="url(#ca)">+0.7% (+18)</text>
<text x="176.9" y="55.0" text-anchor="middle" font-size="9" fill="#FF6363" opacity="0.85" clip-path="url(#ca)">+4.0% (+99)</text>
<text x="290.4" y="55.0" text-anchor="middle" font-size="9" fill="#FF6363" opacity="0.85" clip-path="url(#ca)">+4.5% (+117)</text>
<text x="406.0" y="55.0" text-anchor="middle" font-size="9" fill="#FF6363" opacity="0.85" clip-path="url(#ca)">+3.5% (+95)</text>
<text x="521.6" y="55.0" text-anchor="middle" font-size="9" fill="#FF6363" opacity="0.85" clip-path="url(#ca)">+2.2% (+62)</text>
<text x="635.1" y="55.0" text-anchor="middle" font-size="9" fill="#FF6363" opacity="0.85" clip-path="url(#ca)">+2.8% (+81)</text>
<text x="731.5" y="55.0" text-anchor="middle" font-size="9" fill="#FF6363" opacity="0.85" clip-path="url(#ca)">+2.0% (+59)</text>
<rect x="351" y="369" width="12" height="12" fill="#FF6363" rx="2"/>
<text x="367" y="379" font-size="12" fill="#111827">Extensions</text>
<text x="72" y="394" font-size="8" fill="#e5e7eb">data since Dec 11, 2025</text>
</svg>