<svg xmlns="http://www.w3.org/2000/svg" width="800" height="400" viewBox="0 0 800 400">
<defs>
  <style>text { font-family: -apple-system, BlinkMacSystemFont, 'Segoe UI', Roboto, sans-serif; }</style>
  <linearGradient id="g2" x1="0" y1="0" x2="0" y2="1">
  <stop offset="0%" stop-color="#4F8EF7" stop-opacity="0.25"/>
  <stop offset="100%" stop-color="#4F8EF7" stop-opacity="0"/>
</linearGradient>
<linearGradient id="g3" x1="0" y1="0" x2="0" y2="1">
  <stop offset="0%" stop-color="#BF5AF2" stop-opacity="0.25"/>
  <stop offset="100%" stop-color="#BF5AF2" stop-opacity="0"/>
</linearGradient>
<linearGradient id="g4" x1="0" y1="0" x2="0" y2="1">
  <stop offset="0%" stop-color="#34C759" stop-opacity="0.25"/>
  <stop offset="100%" stop-color="#34C759" stop-opacity="0"/>
</linearGradient>
  <clipPath id="ca"><rect x="72" y="45" width="698" height="295"/></clipPath>
</defs>
<rect width="800" height="400" fill="#ffffff" rx="12"/>
<text x="400" y="26" text-anchor="middle" font-size="15" font-weight="600" fill="#111827">Community Growth Over Time</text>
<line x1="72" y1="340.0" x2="770" y2="340.0" stroke="#f3f4f6" stroke-width="1"/>
<text x="66" y="344.0" text-anchor="end" font-size="11" fill="#6b7280">500</text>
<line x1="72" y1="241.7" x2="770" y2="241.7" stroke="#f3f4f6" stroke-width="1"/>
<text x="66" y="245.7" text-anchor="end" font-size="11" fill="#6b7280">1.0k</text>
<line x1="72" y1="143.3" x2="770" y2="143.3" stroke="#f3f4f6" stroke-width="1"/>
<text x="66" y="147.3" text-anchor="end" font-size="11" fill="#6b7280">1.5k</text>
<line x1="72" y1="45.0" x2="770" y2="45.0" stroke="#f3f4f6" stroke-width="1"/>
<text x="66" y="49.0" text-anchor="end" font-size="11" fill="#6b7280">2.0k</text>
<line x1="140.1" y1="45" x2="140.1" y2="340" stroke="#e5e7eb" stroke-width="1" stroke-dasharray="3,3" clip-path="url(#ca)"/>
<line x1="287.6" y1="45" x2="287.6" y2="340" stroke="#e5e7eb" stroke-width="1" stroke-dasharray="3,3" clip-path="url(#ca)"/>
<line x1="440.9" y1="45" x2="440.9" y2="340" stroke="#e5e7eb" stroke-width="1" stroke-dasharray="3,3" clip-path="url(#ca)"/>
<line x1="594.1" y1="45" x2="594.1" y2="340" stroke="#e5e7eb" stroke-width="1" stroke-dasharray="3,3" clip-path="url(#ca)"/>
<line x1="747.3" y1="45" x2="747.3" y2="340" stroke="#e5e7eb" stroke-width="1" stroke-dasharray="3,3" clip-path="url(#ca)"/>
<text x="72.0" y="358.0" text-anchor="middle" font-size="11" fill="#6b7280">Dec 11</text>
<text x="213.9" y="358.0" text-anchor="middle" font-size="11" fill="#6b7280">Jan 18</text>
<text x="350.1" y="358.0" text-anchor="middle" font-size="11" fill="#6b7280">Feb 12</text>
<text x="491.9" y="358.0" text-anchor="middle" font-size="11" fill="#6b7280">Mar 11</text>
<text x="628.1" y="358.0" text-anchor="middle" font-size="11" fill="#6b7280">Apr 8</text>
<text x="770.0" y="358.0" text-anchor="middle" font-size="11" fill="#6b7280">May 7</text>
<line x1="72" y1="45" x2="72" y2="340" stroke="#e5e7eb" stroke-width="1"/>
<line x1="72" y1="340" x2="770" y2="340" stroke="#e5e7eb" stroke-width="1"/>
<text x="-192.5" y="18" text-anchor="middle" font-size="12" fill="#6b7280" transform="rotate(-90)">People</text>
<path d="M 72.0,340 L 72.0,120.1 L 77.7,120.1 L 83.3,120.1 L 89.0,119.5 L 94.7,119.5 L 100.4,119.1 L 106.0,118.9 L 111.7,119.1 L 117.4,118.6 L 123.1,118.6 L 128.7,118.6 L 134.4,118.6 L 140.1,118.6 L 145.8,118.6 L 151.4,118.6 L 157.1,118.6 L 162.8,118.4 L 168.5,117.8 L 174.1,116.6 L 179.8,116.0 L 185.5,115.8 L 191.2,115.8 L 196.8,115.2 L 202.5,113.8 L 208.2,113.0 L 213.9,113.0 L 219.5,112.1 L 225.2,111.7 L 230.9,110.9 L 236.6,110.3 L 242.2,109.7 L 247.9,109.1 L 253.6,109.1 L 259.3,107.7 L 264.9,106.9 L 270.6,106.9 L 276.3,106.2 L 282.0,105.8 L 287.6,105.6 L 293.3,105.4 L 299.0,105.4 L 304.7,104.8 L 310.3,102.4 L 316.0,101.0 L 321.7,100.3 L 327.4,100.1 L 333.0,99.7 L 338.7,98.9 L 344.4,98.5 L 350.1,98.1 L 355.7,97.7 L 361.4,97.3 L 367.1,96.9 L 372.8,96.9 L 378.4,95.0 L 384.1,95.0 L 389.8,94.8 L 395.5,94.6 L 401.1,94.2 L 406.8,94.2 L 412.5,93.2 L 418.2,92.0 L 423.8,91.6 L 429.5,92.0 L 435.2,91.8 L 440.9,91.6 L 446.5,91.6 L 452.2,91.2 L 457.9,90.4 L 463.6,90.0 L 469.2,89.6 L 474.9,89.4 L 480.6,89.4 L 486.3,88.7 L 491.9,88.3 L 497.6,88.3 L 503.3,86.7 L 509.0,86.7 L 514.6,86.7 L 520.3,86.7 L 526.0,86.5 L 531.7,85.9 L 537.3,85.1 L 543.0,84.7 L 548.7,84.7 L 554.4,84.3 L 560.0,82.8 L 565.7,81.8 L 571.4,81.6 L 577.1,81.4 L 582.7,80.8 L 588.4,79.6 L 594.1,79.2 L 599.8,78.8 L 605.4,77.6 L 611.1,77.4 L 616.8,77.4 L 622.5,77.4 L 628.1,77.3 L 633.8,76.1 L 639.5,75.9 L 645.2,75.7 L 650.8,75.7 L 656.5,75.3 L 662.2,73.7 L 667.9,73.5 L 673.5,73.3 L 679.2,73.3 L 684.9,72.5 L 690.6,72.3 L 696.2,72.1 L 701.9,71.6 L 707.6,70.8 L 713.3,70.8 L 718.9,70.8 L 724.6,70.8 L 730.3,70.4 L 736.0,69.8 L 741.6,69.6 L 747.3,69.0 L 753.0,68.8 L 758.7,68.6 L 764.3,67.8 L 770.0,67.2 L 770.0,340 Z" fill="url(#g2)" clip-path="url(#ca)"/>
<path d="M 72.0,120.1 L 77.7,120.1 L 83.3,120.1 L 89.0,119.5 L 94.7,119.5 L 100.4,119.1 L 106.0,118.9 L 111.7,119.1 L 117.4,118.6 L 123.1,118.6 L 128.7,118.6 L 134.4,118.6 L 140.1,118.6 L 145.8,118.6 L 151.4,118.6 L 157.1,118.6 L 162.8,118.4 L 168.5,117.8 L 174.1,116.6 L 179.8,116.0 L 185.5,115.8 L 191.2,115.8 L 196.8,115.2 L 202.5,113.8 L 208.2,113.0 L 213.9,113.0 L 219.5,112.1 L 225.2,111.7 L 230.9,110.9 L 236.6,110.3 L 242.2,109.7 L 247.9,109.1 L 253.6,109.1 L 259.3,107.7 L 264.9,106.9 L 270.6,106.9 L 276.3,106.2 L 282.0,105.8 L 287.6,105.6 L 293.3,105.4 L 299.0,105.4 L 304.7,104.8 L 310.3,102.4 L 316.0,101.0 L 321.7,100.3 L 327.4,100.1 L 333.0,99.7 L 338.7,98.9 L 344.4,98.5 L 350.1,98.1 L 355.7,97.7 L 361.4,97.3 L 367.1,96.9 L 372.8,96.9 L 378.4,95.0 L 384.1,95.0 L 389.8,94.8 L 395.5,94.6 L 401.1,94.2 L 406.8,94.2 L 412.5,93.2 L 418.2,92.0 L 423.8,91.6 L 429.5,92.0 L 435.2,91.8 L 440.9,91.6 L 446.5,91.6 L 452.2,91.2 L 457.9,90.4 L 463.6,90.0 L 469.2,89.6 L 474.9,89.4 L 480.6,89.4 L 486.3,88.7 L 491.9,88.3 L 497.6,88.3 L 503.3,86.7 L 509.0,86.7 L 514.6,86.7 L 520.3,86.7 L 526.0,86.5 L 531.7,85.9 L 537.3,85.1 L 543.0,84.7 L 548.7,84.7 L 554.4,84.3 L 560.0,82.8 L 565.7,81.8 L 571.4,81.6 L 577.1,81.4 L 582.7,80.8 L 588.4,79.6 L 594.1,79.2 L 599.8,78.8 L 605.4,77.6 L 611.1,77.4 L 616.8,77.4 L 622.5,77.4 L 628.1,77.3 L 633.8,76.1 L 639.5,75.9 L 645.2,75.7 L 650.8,75.7 L 656.5,75.3 L 662.2,73.7 L 667.9,73.5 L 673.5,73.3 L 679.2,73.3 L 684.9,72.5 L 690.6,72.3 L 696.2,72.1 L 701.9,71.6 L 707.6,70.8 L 713.3,70.8 L 718.9,70.8 L 724.6,70.8 L 730.3,70.4 L 736.0,69.8 L 741.6,69.6 L 747.3,69.0 L 753.0,68.8 L 758.7,68.6 L 764.3,67.8 L 770.0,67.2" fill="none" stroke="#4F8EF7" stroke-width="2.5" stroke-linejoin="round" clip-path="url(#ca)"/>
<path d="M 72.0,340 L 72.0,244.2 L 77.7,243.6 L 83.3,243.6 L 89.0,243.6 L 94.7,243.4 L 100.4,243.0 L 106.0,242.8 L 111.7,242.6 L 117.4,242.6 L 123.1,242.5 L 128.7,242.3 L 134.4,242.3 L 140.1,242.3 L 145.8,242.3 L 151.4,242.3 L 157.1,242.3 L 162.8,241.9 L 168.5,241.9 L 174.1,241.9 L 179.8,241.1 L 185.5,240.9 L 191.2,240.5 L 196.8,239.7 L 202.5,239.5 L 208.2,239.5 L 213.9,239.5 L 219.5,238.9 L 225.2,238.5 L 230.9,238.5 L 236.6,238.1 L 242.2,237.9 L 247.9,237.5 L 253.6,237.5 L 259.3,237.3 L 264.9,236.6 L 270.6,236.0 L 276.3,235.6 L 282.0,235.4 L 287.6,235.4 L 293.3,235.2 L 299.0,234.8 L 304.7,234.8 L 310.3,234.6 L 316.0,234.0 L 321.7,233.6 L 327.4,233.6 L 333.0,233.6 L 338.7,233.6 L 344.4,233.4 L 350.1,232.8 L 355.7,232.4 L 361.4,232.2 L 367.1,232.0 L 372.8,231.8 L 378.4,231.6 L 384.1,231.4 L 389.8,231.2 L 395.5,230.7 L 401.1,230.5 L 406.8,230.3 L 412.5,229.5 L 418.2,228.7 L 423.8,228.7 L 429.5,228.5 L 435.2,228.3 L 440.9,228.3 L 446.5,228.3 L 452.2,227.9 L 457.9,227.9 L 463.6,226.7 L 469.2,226.5 L 474.9,226.3 L 480.6,226.3 L 486.3,225.9 L 491.9,225.7 L 497.6,225.7 L 503.3,225.5 L 509.0,225.5 L 514.6,225.5 L 520.3,225.1 L 526.0,224.9 L 531.7,224.0 L 537.3,224.2 L 543.0,224.0 L 548.7,223.8 L 554.4,223.8 L 560.0,223.6 L 565.7,223.0 L 571.4,223.0 L 577.1,223.0 L 582.7,223.0 L 588.4,222.6 L 594.1,222.6 L 599.8,222.2 L 605.4,221.8 L 611.1,221.0 L 616.8,221.0 L 622.5,220.6 L 628.1,220.4 L 633.8,220.2 L 639.5,220.0 L 645.2,219.6 L 650.8,219.6 L 656.5,219.1 L 662.2,219.1 L 667.9,218.9 L 673.5,218.5 L 679.2,218.3 L 684.9,218.3 L 690.6,218.3 L 696.2,218.3 L 701.9,218.3 L 707.6,217.7 L 713.3,217.7 L 718.9,217.3 L 724.6,216.9 L 730.3,216.3 L 736.0,216.1 L 741.6,216.1 L 747.3,214.9 L 753.0,214.7 L 758.7,214.7 L 764.3,213.9 L 770.0,213.9 L 770.0,340 Z" fill="url(#g3)" clip-path="url(#ca)"/>
<path d="M 72.0,244.2 L 77.7,243.6 L 83.3,243.6 L 89.0,243.6 L 94.7,243.4 L 100.4,243.0 L 106.0,242.8 L 111.7,242.6 L 117.4,242.6 L 123.1,242.5 L 128.7,242.3 L 134.4,242.3 L 140.1,242.3 L 145.8,242.3 L 151.4,242.3 L 157.1,242.3 L 162.8,241.9 L 168.5,241.9 L 174.1,241.9 L 179.8,241.1 L 185.5,240.9 L 191.2,240.5 L 196.8,239.7 L 202.5,239.5 L 208.2,239.5 L 213.9,239.5 L 219.5,238.9 L 225.2,238.5 L 230.9,238.5 L 236.6,238.1 L 242.2,237.9 L 247.9,237.5 L 253.6,237.5 L 259.3,237.3 L 264.9,236.6 L 270.6,236.0 L 276.3,235.6 L 282.0,235.4 L 287.6,235.4 L 293.3,235.2 L 299.0,234.8 L 304.7,234.8 L 310.3,234.6 L 316.0,234.0 L 321.7,233.6 L 327.4,233.6 L 333.0,233.6 L 338.7,233.6 L 344.4,233.4 L 350.1,232.8 L 355.7,232.4 L 361.4,232.2 L 367.1,232.0 L 372.8,231.8 L 378.4,231.6 L 384.1,231.4 L 389.8,231.2 L 395.5,230.7 L 401.1,230.5 L 406.8,230.3 L 412.5,229.5 L 418.2,228.7 L 423.8,228.7 L 429.5,228.5 L 435.2,228.3 L 440.9,228.3 L 446.5,228.3 L 452.2,227.9 L 457.9,227.9 L 463.6,226.7 L 469.2,226.5 L 474.9,226.3 L 480.6,226.3 L 486.3,225.9 L 491.9,225.7 L 497.6,225.7 L 503.3,225.5 L 509.0,225.5 L 514.6,225.5 L 520.3,225.1 L 526.0,224.9 L 531.7,224.0 L 537.3,224.2 L 543.0,224.0 L 548.7,223.8 L 554.4,223.8 L 560.0,223.6 L 565.7,223.0 L 571.4,223.0 L 577.1,223.0 L 582.7,223.0 L 588.4,222.6 L 594.1,222.6 L 599.8,222.2 L 605.4,221.8 L 611.1,221.0 L 616.8,221.0 L 622.5,220.6 L 628.1,220.4 L 633.8,220.2 L 639.5,220.0 L 645.2,219.6 L 650.8,219.6 L 656.5,219.1 L 662.2,219.1 L 667.9,218.9 L 673.5,218.5 L 679.2,218.3 L 684.9,218.3 L 690.6,218.3 L 696.2,218.3 L 701.9,218.3 L 707.6,217.7 L 713.3,217.7 L 718.9,217.3 L 724.6,216.9 L 730.3,216.3 L 736.0,216.1 L 741.6,216.1 L 747.3,214.9 L 753.0,214.7 L 758.7,214.7 L 764.3,213.9 L 770.0,213.9" fill="none" stroke="#BF5AF2" stroke-width="2.5" stroke-linejoin="round" clip-path="url(#ca)"/>
<path d="M 72.0,340 L 72.0,291.4 L 77.7,290.8 L 83.3,290.8 L 89.0,290.8 L 94.7,290.6 L 100.4,290.2 L 106.0,290.0 L 111.7,289.7 L 117.4,289.7 L 123.1,289.5 L 128.7,289.3 L 134.4,289.3 L 140.1,289.3 L 145.8,289.3 L 151.4,289.3 L 157.1,289.3 L 162.8,288.9 L 168.5,288.9 L 174.1,289.1 L 179.8,288.5 L 185.5,288.7 L 191.2,288.1 L 196.8,287.5 L 202.5,287.3 L 208.2,287.5 L 213.9,287.5 L 219.5,286.9 L 225.2,286.7 L 230.9,286.7 L 236.6,286.3 L 242.2,286.1 L 247.9,285.7 L 253.6,285.7 L 259.3,285.5 L 264.9,284.9 L 270.6,284.3 L 276.3,283.9 L 282.0,283.9 L 287.6,283.9 L 293.3,283.8 L 299.0,283.4 L 304.7,283.4 L 310.3,283.2 L 316.0,282.6 L 321.7,282.4 L 327.4,282.4 L 333.0,282.4 L 338.7,282.4 L 344.4,282.2 L 350.1,281.6 L 355.7,281.4 L 361.4,281.2 L 367.1,281.0 L 372.8,281.0 L 378.4,280.8 L 384.1,280.8 L 389.8,280.8 L 395.5,280.2 L 401.1,280.2 L 406.8,280.2 L 412.5,279.8 L 418.2,279.2 L 423.8,279.2 L 429.5,279.0 L 435.2,278.8 L 440.9,278.8 L 446.5,278.8 L 452.2,278.4 L 457.9,278.4 L 463.6,277.3 L 469.2,277.1 L 474.9,276.9 L 480.6,276.9 L 486.3,276.7 L 491.9,276.7 L 497.6,276.7 L 503.3,276.7 L 509.0,276.7 L 514.6,276.7 L 520.3,276.3 L 526.0,276.1 L 531.7,275.1 L 537.3,275.3 L 543.0,275.3 L 548.7,275.1 L 554.4,275.1 L 560.0,275.1 L 565.7,274.7 L 571.4,274.7 L 577.1,274.7 L 582.7,274.7 L 588.4,274.7 L 594.1,274.7 L 599.8,274.5 L 605.4,274.5 L 611.1,273.7 L 616.8,273.7 L 622.5,273.5 L 628.1,273.3 L 633.8,273.1 L 639.5,272.9 L 645.2,272.5 L 650.8,272.5 L 656.5,272.0 L 662.2,272.0 L 667.9,271.8 L 673.5,271.6 L 679.2,271.6 L 684.9,271.6 L 690.6,271.6 L 696.2,271.6 L 701.9,271.6 L 707.6,271.0 L 713.3,271.0 L 718.9,270.6 L 724.6,270.2 L 730.3,269.6 L 736.0,269.4 L 741.6,269.4 L 747.3,268.4 L 753.0,268.2 L 758.7,268.2 L 764.3,267.6 L 770.0,267.6 L 770.0,340 Z" fill="url(#g4)" clip-path="url(#ca)"/>
<path d="M 72.0,291.4 L 77.7,290.8 L 83.3,290.8 L 89.0,290.8 L 94.7,290.6 L 100.4,290.2 L 106.0,290.0 L 111.7,289.7 L 117.4,289.7 L 123.1,289.5 L 128.7,289.3 L 134.4,289.3 L 140.1,289.3 L 145.8,289.3 L 151.4,289.3 L 157.1,289.3 L 162.8,288.9 L 168.5,288.9 L 174.1,289.1 L 179.8,288.5 L 185.5,288.7 L 191.2,288.1 L 196.8,287.5 L 202.5,287.3 L 208.2,287.5 L 213.9,287.5 L 219.5,286.9 L 225.2,286.7 L 230.9,286.7 L 236.6,286.3 L 242.2,286.1 L 247.9,285.7 L 253.6,285.7 L 259.3,285.5 L 264.9,284.9 L 270.6,284.3 L 276.3,283.9 L 282.0,283.9 L 287.6,283.9 L 293.3,283.8 L 299.0,283.4 L 304.7,283.4 L 310.3,283.2 L 316.0,282.6 L 321.7,282.4 L 327.4,282.4 L 333.0,282.4 L 338.7,282.4 L 344.4,282.2 L 350.1,281.6 L 355.7,281.4 L 361.4,281.2 L 367.1,281.0 L 372.8,281.0 L 378.4,280.8 L 384.1,280.8 L 389.8,280.8 L 395.5,280.2 L 401.1,280.2 L 406.8,280.2 L 412.5,279.8 L 418.2,279.2 L 423.8,279.2 L 429.5,279.0 L 435.2,278.8 L 440.9,278.8 L 446.5,278.8 L 452.2,278.4 L 457.9,278.4 L 463.6,277.3 L 469.2,277.1 L 474.9,276.9 L 480.6,276.9 L 486.3,276.7 L 491.9,276.7 L 497.6,276.7 L 503.3,276.7 L 509.0,276.7 L 514.6,276.7 L 520.3,276.3 L 526.0,276.1 L 531.7,275.1 L 537.3,275.3 L 543.0,275.3 L 548.7,275.1 L 554.4,275.1 L 560.0,275.1 L 565.7,274.7 L 571.4,274.7 L 577.1,274.7 L 582.7,274.7 L 588.4,274.7 L 594.1,274.7 L 599.8,274.5 L 605.4,274.5 L 611.1,273.7 L 616.8,273.7 L 622.5,273.5 L 628.1,273.3 L 633.8,273.1 L 639.5,272.9 L 645.2,272.5 L 650.8,272.5 L 656.5,272.0 L 662.2,272.0 L 667.9,271.8 L 673.5,271.6 L 679.2,271.6 L 684.9,271.6 L 690.6,271.6 L 696.2,271.6 L 701.9,271.6 L 707.6,271.0 L 713.3,271.0 L 718.9,270.6 L 724.6,270.2 L 730.3,269.6 L 736.0,269.4 L 741.6,269.4 L 747.3,268.4 L 753.0,268.2 L 758.7,268.2 L 764.3,267.6 L 770.0,267.6" fill="none" stroke="#34C759" stroke-width="2.5" stroke-linejoin="round" clip-path="url(#ca)"/>
<text x="103.2" y="55.0" text-anchor="middle" font-size="9" fill="#4F8EF7" opacity="0.85" clip-path="url(#ca)">+0.5% (+8)</text>
<text x="103.2" y="66.0" text-anchor="middle" font-size="9" fill="#BF5AF2" opacity="0.85" clip-path="url(#ca)">+1.0% (+10)</text>
<text x="103.2" y="77.0" text-anchor="middle" font-size="9" fill="#34C759" opacity="0.85" clip-path="url(#ca)">+1.5% (+11)</text>
<text x="211.0" y="55.0" text-anchor="middle" font-size="9" fill="#4F8EF7" opacity="0.85" clip-path="url(#ca)">+4.0% (+65)</text>
<text x="211.0" y="66.0" text-anchor="middle" font-size="9" fill="#BF5AF2" opacity="0.85" clip-path="url(#ca)">+3.5% (+35)</text>
<text x="211.0" y="77.0" text-anchor="middle" font-size="9" fill="#34C759" opacity="0.85" clip-path="url(#ca)">+3.6% (+27)</text>
<text x="361.4" y="55.0" text-anchor="middle" font-size="9" fill="#4F8EF7" opacity="0.85" clip-path="url(#ca)">+4.1% (+70)</text>
<text x="361.4" y="66.0" text-anchor="middle" font-size="9" fill="#BF5AF2" opacity="0.85" clip-path="url(#ca)">+3.5% (+36)</text>
<text x="361.4" y="77.0" text-anchor="middle" font-size="9" fill="#34C759" opacity="0.85" clip-path="url(#ca)">+3.3% (+26)</text>
<text x="514.6" y="55.0" text-anchor="middle" font-size="9" fill="#4F8EF7" opacity="0.85" clip-path="url(#ca)">+3.5% (+61)</text>
<text x="514.6" y="66.0" text-anchor="middle" font-size="9" fill="#BF5AF2" opacity="0.85" clip-path="url(#ca)">+2.7% (+29)</text>
<text x="514.6" y="77.0" text-anchor="middle" font-size="9" fill="#34C759" opacity="0.85" clip-path="url(#ca)">+2.6% (+21)</text>
<text x="667.9" y="55.0" text-anchor="middle" font-size="9" fill="#4F8EF7" opacity="0.85" clip-path="url(#ca)">+2.7% (+49)</text>
<text x="667.9" y="66.0" text-anchor="middle" font-size="9" fill="#BF5AF2" opacity="0.85" clip-path="url(#ca)">+3.0% (+33)</text>
<text x="667.9" y="77.0" text-anchor="middle" font-size="9" fill="#34C759" opacity="0.85" clip-path="url(#ca)">+3.2% (+27)</text>
<text x="758.7" y="55.0" text-anchor="middle" font-size="9" fill="#4F8EF7" opacity="0.85" clip-path="url(#ca)">+0.5% (+9)</text>
<text x="758.7" y="66.0" text-anchor="middle" font-size="9" fill="#BF5AF2" opacity="0.85" clip-path="url(#ca)">+0.4% (+5)</text>
<text x="758.7" y="77.0" text-anchor="middle" font-size="9" fill="#34C759" opacity="0.85" clip-path="url(#ca)">+0.5% (+4)</text>
<rect x="211" y="369" width="12" height="12" fill="#4F8EF7" rx="2"/>
<text x="227" y="379" font-size="12" fill="#111827">Authors</text>
<rect x="351" y="369" width="12" height="12" fill="#BF5AF2" rx="2"/>
<text x="367" y="379" font-size="12" fill="#111827">Contributors</text>
<rect x="491" y="369" width="12" height="12" fill="#34C759" rx="2"/>
<text x="507" y="379" font-size="12" fill="#111827">Non-author contributors</text>
<text x="72" y="394" font-size="8" fill="#e5e7eb">data since Dec 11, 2025</text>
</svg>