<svg xmlns="http://www.w3.org/2000/svg" width="800" height="400" viewBox="0 0 800 400">
<defs>
  <style>text { font-family: -apple-system, BlinkMacSystemFont, 'Segoe UI', Roboto, sans-serif; }</style>
  <linearGradient id="g2" x1="0" y1="0" x2="0" y2="1">
  <stop offset="0%" stop-color="#4F8EF7" stop-opacity="0.25"/>
  <stop offset="100%" stop-color="#4F8EF7" stop-opacity="0"/>
</linearGradient>
<linearGradient id="g3" x1="0" y1="0" x2="0" y2="1">
  <stop offset="0%" stop-color="#BF5AF2" stop-opacity="0.25"/>
  <stop offset="100%" stop-color="#BF5AF2" stop-opacity="0"/>
</linearGradient>
<linearGradient id="g4" x1="0" y1="0" x2="0" y2="1">
  <stop offset="0%" stop-color="#34C759" stop-opacity="0.25"/>
  <stop offset="100%" stop-color="#34C759" stop-opacity="0"/>
</linearGradient>
  <clipPath id="ca"><rect x="72" y="45" width="698" height="295"/></clipPath>
</defs>
<rect width="800" height="400" fill="#ffffff" rx="12"/>
<text x="400" y="26" text-anchor="middle" font-size="15" font-weight="600" fill="#111827">Community Growth Over Time</text>
<line x1="72" y1="340.0" x2="770" y2="340.0" stroke="#f3f4f6" stroke-width="1"/>
<text x="66" y="344.0" text-anchor="end" font-size="11" fill="#6b7280">500</text>
<line x1="72" y1="266.3" x2="770" y2="266.3" stroke="#f3f4f6" stroke-width="1"/>
<text x="66" y="270.3" text-anchor="end" font-size="11" fill="#6b7280">1.0k</text>
<line x1="72" y1="192.5" x2="770" y2="192.5" stroke="#f3f4f6" stroke-width="1"/>
<text x="66" y="196.5" text-anchor="end" font-size="11" fill="#6b7280">1.5k</text>
<line x1="72" y1="118.8" x2="770" y2="118.8" stroke="#f3f4f6" stroke-width="1"/>
<text x="66" y="122.8" text-anchor="end" font-size="11" fill="#6b7280">2.0k</text>
<line x1="72" y1="45.0" x2="770" y2="45.0" stroke="#f3f4f6" stroke-width="1"/>
<text x="66" y="49.0" text-anchor="end" font-size="11" fill="#6b7280">2.5k</text>
<line x1="117.5" y1="45" x2="117.5" y2="340" stroke="#e5e7eb" stroke-width="1" stroke-dasharray="3,3" clip-path="url(#ca)"/>
<line x1="216.2" y1="45" x2="216.2" y2="340" stroke="#e5e7eb" stroke-width="1" stroke-dasharray="3,3" clip-path="url(#ca)"/>
<line x1="318.6" y1="45" x2="318.6" y2="340" stroke="#e5e7eb" stroke-width="1" stroke-dasharray="3,3" clip-path="url(#ca)"/>
<line x1="421.0" y1="45" x2="421.0" y2="340" stroke="#e5e7eb" stroke-width="1" stroke-dasharray="3,3" clip-path="url(#ca)"/>
<line x1="523.4" y1="45" x2="523.4" y2="340" stroke="#e5e7eb" stroke-width="1" stroke-dasharray="3,3" clip-path="url(#ca)"/>
<line x1="622.1" y1="45" x2="622.1" y2="340" stroke="#e5e7eb" stroke-width="1" stroke-dasharray="3,3" clip-path="url(#ca)"/>
<line x1="713.1" y1="45" x2="713.1" y2="340" stroke="#e5e7eb" stroke-width="1" stroke-dasharray="3,3" clip-path="url(#ca)"/>
<text x="72.0" y="358.0" text-anchor="middle" font-size="11" fill="#6b7280">Dec 11</text>
<text x="212.4" y="358.0" text-anchor="middle" font-size="11" fill="#6b7280">Jan 31</text>
<text x="352.7" y="358.0" text-anchor="middle" font-size="11" fill="#6b7280">Mar 11</text>
<text x="489.3" y="358.0" text-anchor="middle" font-size="11" fill="#6b7280">Apr 21</text>
<text x="629.6" y="358.0" text-anchor="middle" font-size="11" fill="#6b7280">Jun 4</text>
<text x="770.0" y="358.0" text-anchor="middle" font-size="11" fill="#6b7280">Jul 19</text>
<line x1="72" y1="45" x2="72" y2="340" stroke="#e5e7eb" stroke-width="1"/>
<line x1="72" y1="340" x2="770" y2="340" stroke="#e5e7eb" stroke-width="1"/>
<text x="-192.5" y="18" text-anchor="middle" font-size="12" fill="#6b7280" transform="rotate(-90)">People</text>
<path d="M 72.0,340 L 72.0,175.1 L 75.8,175.1 L 79.6,175.1 L 83.4,174.7 L 87.2,174.7 L 91.0,174.4 L 94.8,174.2 L 98.6,174.4 L 102.3,173.9 L 106.1,173.9 L 109.9,173.9 L 113.7,173.9 L 117.5,173.9 L 121.3,173.9 L 125.1,173.9 L 128.9,173.9 L 132.7,173.8 L 136.5,173.3 L 140.3,172.4 L 144.1,172.0 L 147.9,171.9 L 151.7,171.9 L 155.5,171.4 L 159.3,170.4 L 163.0,169.8 L 166.8,169.8 L 170.6,169.0 L 174.4,168.8 L 178.2,168.2 L 182.0,167.7 L 185.8,167.3 L 189.6,166.8 L 193.4,166.8 L 197.2,165.8 L 201.0,165.2 L 204.8,165.2 L 208.6,164.6 L 212.4,164.3 L 216.2,164.2 L 219.9,164.0 L 223.7,164.0 L 227.5,163.6 L 231.3,161.8 L 235.1,160.8 L 238.9,160.2 L 242.7,160.1 L 246.5,159.8 L 250.3,159.2 L 254.1,158.9 L 257.9,158.6 L 261.7,158.3 L 265.5,158.0 L 269.3,157.7 L 273.1,157.7 L 276.8,156.2 L 280.6,156.2 L 284.4,156.1 L 288.2,155.9 L 292.0,155.6 L 295.8,155.6 L 299.6,154.9 L 303.4,154.0 L 307.2,153.7 L 311.0,154.0 L 314.8,153.9 L 318.6,153.7 L 322.4,153.7 L 326.2,153.4 L 330.0,152.8 L 333.8,152.5 L 337.5,152.2 L 341.3,152.1 L 345.1,152.1 L 348.9,151.5 L 352.7,151.2 L 356.5,151.2 L 360.3,150.0 L 364.1,150.0 L 367.9,150.0 L 371.7,150.0 L 375.5,149.9 L 379.3,149.4 L 383.1,148.8 L 386.9,148.5 L 390.7,148.5 L 394.4,148.3 L 398.2,147.1 L 402.0,146.3 L 405.8,146.2 L 409.6,146.0 L 413.4,145.6 L 417.2,144.7 L 421.0,144.4 L 424.8,144.1 L 428.6,143.2 L 432.4,143.1 L 436.2,143.1 L 440.0,143.1 L 443.8,142.9 L 447.6,142.1 L 451.3,141.9 L 455.1,141.8 L 458.9,141.8 L 462.7,141.5 L 466.5,140.3 L 470.3,140.1 L 474.1,140.0 L 477.9,140.0 L 481.7,139.4 L 485.5,139.3 L 489.3,139.1 L 493.1,138.7 L 496.9,138.1 L 500.7,138.1 L 504.5,138.1 L 508.3,138.1 L 512.0,137.8 L 515.8,137.3 L 519.6,137.2 L 523.4,136.7 L 527.2,136.6 L 531.0,136.5 L 534.8,135.9 L 538.6,135.4 L 542.4,135.3 L 546.2,135.3 L 550.0,133.9 L 553.8,133.5 L 557.6,133.4 L 561.4,133.4 L 565.2,132.6 L 568.9,132.6 L 572.7,132.2 L 576.5,131.7 L 580.3,130.7 L 584.1,130.6 L 587.9,130.4 L 591.7,130.3 L 595.5,130.3 L 599.3,130.1 L 603.1,129.4 L 606.9,128.9 L 610.7,128.9 L 614.5,128.8 L 618.3,128.8 L 622.1,128.3 L 625.8,128.2 L 629.6,128.0 L 633.4,127.6 L 637.2,127.0 L 641.0,127.0 L 644.8,126.9 L 648.6,126.7 L 652.4,126.0 L 656.2,124.9 L 660.0,124.8 L 663.8,124.5 L 667.6,124.2 L 671.4,124.1 L 675.2,123.6 L 679.0,123.0 L 682.8,122.9 L 686.5,122.4 L 690.3,122.1 L 694.1,121.4 L 697.9,121.3 L 701.7,121.0 L 705.5,121.0 L 709.3,120.7 L 713.1,120.4 L 716.9,120.1 L 720.7,119.9 L 724.5,119.6 L 728.3,119.6 L 732.1,119.3 L 735.9,119.2 L 739.7,119.2 L 743.4,118.3 L 747.2,117.9 L 751.0,117.9 L 754.8,117.9 L 758.6,117.4 L 762.4,116.5 L 766.2,116.2 L 770.0,115.9 L 770.0,340 Z" fill="url(#g2)" clip-path="url(#ca)"/>
<path d="M 72.0,175.1 L 75.8,175.1 L 79.6,175.1 L 83.4,174.7 L 87.2,174.7 L 91.0,174.4 L 94.8,174.2 L 98.6,174.4 L 102.3,173.9 L 106.1,173.9 L 109.9,173.9 L 113.7,173.9 L 117.5,173.9 L 121.3,173.9 L 125.1,173.9 L 128.9,173.9 L 132.7,173.8 L 136.5,173.3 L 140.3,172.4 L 144.1,172.0 L 147.9,171.9 L 151.7,171.9 L 155.5,171.4 L 159.3,170.4 L 163.0,169.8 L 166.8,169.8 L 170.6,169.0 L 174.4,168.8 L 178.2,168.2 L 182.0,167.7 L 185.8,167.3 L 189.6,166.8 L 193.4,166.8 L 197.2,165.8 L 201.0,165.2 L 204.8,165.2 L 208.6,164.6 L 212.4,164.3 L 216.2,164.2 L 219.9,164.0 L 223.7,164.0 L 227.5,163.6 L 231.3,161.8 L 235.1,160.8 L 238.9,160.2 L 242.7,160.1 L 246.5,159.8 L 250.3,159.2 L 254.1,158.9 L 257.9,158.6 L 261.7,158.3 L 265.5,158.0 L 269.3,157.7 L 273.1,157.7 L 276.8,156.2 L 280.6,156.2 L 284.4,156.1 L 288.2,155.9 L 292.0,155.6 L 295.8,155.6 L 299.6,154.9 L 303.4,154.0 L 307.2,153.7 L 311.0,154.0 L 314.8,153.9 L 318.6,153.7 L 322.4,153.7 L 326.2,153.4 L 330.0,152.8 L 333.8,152.5 L 337.5,152.2 L 341.3,152.1 L 345.1,152.1 L 348.9,151.5 L 352.7,151.2 L 356.5,151.2 L 360.3,150.0 L 364.1,150.0 L 367.9,150.0 L 371.7,150.0 L 375.5,149.9 L 379.3,149.4 L 383.1,148.8 L 386.9,148.5 L 390.7,148.5 L 394.4,148.3 L 398.2,147.1 L 402.0,146.3 L 405.8,146.2 L 409.6,146.0 L 413.4,145.6 L 417.2,144.7 L 421.0,144.4 L 424.8,144.1 L 428.6,143.2 L 432.4,143.1 L 436.2,143.1 L 440.0,143.1 L 443.8,142.9 L 447.6,142.1 L 451.3,141.9 L 455.1,141.8 L 458.9,141.8 L 462.7,141.5 L 466.5,140.3 L 470.3,140.1 L 474.1,140.0 L 477.9,140.0 L 481.7,139.4 L 485.5,139.3 L 489.3,139.1 L 493.1,138.7 L 496.9,138.1 L 500.7,138.1 L 504.5,138.1 L 508.3,138.1 L 512.0,137.8 L 515.8,137.3 L 519.6,137.2 L 523.4,136.7 L 527.2,136.6 L 531.0,136.5 L 534.8,135.9 L 538.6,135.4 L 542.4,135.3 L 546.2,135.3 L 550.0,133.9 L 553.8,133.5 L 557.6,133.4 L 561.4,133.4 L 565.2,132.6 L 568.9,132.6 L 572.7,132.2 L 576.5,131.7 L 580.3,130.7 L 584.1,130.6 L 587.9,130.4 L 591.7,130.3 L 595.5,130.3 L 599.3,130.1 L 603.1,129.4 L 606.9,128.9 L 610.7,128.9 L 614.5,128.8 L 618.3,128.8 L 622.1,128.3 L 625.8,128.2 L 629.6,128.0 L 633.4,127.6 L 637.2,127.0 L 641.0,127.0 L 644.8,126.9 L 648.6,126.7 L 652.4,126.0 L 656.2,124.9 L 660.0,124.8 L 663.8,124.5 L 667.6,124.2 L 671.4,124.1 L 675.2,123.6 L 679.0,123.0 L 682.8,122.9 L 686.5,122.4 L 690.3,122.1 L 694.1,121.4 L 697.9,121.3 L 701.7,121.0 L 705.5,121.0 L 709.3,120.7 L 713.1,120.4 L 716.9,120.1 L 720.7,119.9 L 724.5,119.6 L 728.3,119.6 L 732.1,119.3 L 735.9,119.2 L 739.7,119.2 L 743.4,118.3 L 747.2,117.9 L 751.0,117.9 L 754.8,117.9 L 758.6,117.4 L 762.4,116.5 L 766.2,116.2 L 770.0,115.9" fill="none" stroke="#4F8EF7" stroke-width="2.5" stroke-linejoin="round" clip-path="url(#ca)"/>
<path d="M 72.0,340 L 72.0,268.2 L 75.8,267.7 L 79.6,267.7 L 83.4,267.7 L 87.2,267.6 L 91.0,267.3 L 94.8,267.1 L 98.6,267.0 L 102.3,267.0 L 106.1,266.8 L 109.9,266.7 L 113.7,266.7 L 117.5,266.7 L 121.3,266.7 L 125.1,266.7 L 128.9,266.7 L 132.7,266.4 L 136.5,266.4 L 140.3,266.4 L 144.1,265.8 L 147.9,265.7 L 151.7,265.4 L 155.5,264.8 L 159.3,264.6 L 163.0,264.6 L 166.8,264.6 L 170.6,264.2 L 174.4,263.9 L 178.2,263.9 L 182.0,263.6 L 185.8,263.4 L 189.6,263.2 L 193.4,263.2 L 197.2,263.0 L 201.0,262.4 L 204.8,262.0 L 208.6,261.7 L 212.4,261.5 L 216.2,261.5 L 219.9,261.4 L 223.7,261.1 L 227.5,261.1 L 231.3,260.9 L 235.1,260.5 L 238.9,260.2 L 242.7,260.2 L 246.5,260.2 L 250.3,260.2 L 254.1,260.1 L 257.9,259.6 L 261.7,259.3 L 265.5,259.2 L 269.3,259.0 L 273.1,258.9 L 276.8,258.7 L 280.6,258.6 L 284.4,258.4 L 288.2,258.0 L 292.0,257.8 L 295.8,257.7 L 299.6,257.1 L 303.4,256.5 L 307.2,256.5 L 311.0,256.4 L 314.8,256.2 L 318.6,256.2 L 322.4,256.2 L 326.2,255.9 L 330.0,255.9 L 333.8,255.0 L 337.5,254.9 L 341.3,254.7 L 345.1,254.7 L 348.9,254.4 L 352.7,254.3 L 356.5,254.3 L 360.3,254.2 L 364.1,254.2 L 367.9,254.2 L 371.7,253.9 L 375.5,253.7 L 379.3,253.0 L 383.1,253.1 L 386.9,253.0 L 390.7,252.8 L 394.4,252.8 L 398.2,252.7 L 402.0,252.2 L 405.8,252.2 L 409.6,252.2 L 413.4,252.2 L 417.2,251.9 L 421.0,251.9 L 424.8,251.6 L 428.6,251.4 L 432.4,250.8 L 436.2,250.8 L 440.0,250.5 L 443.8,250.3 L 447.6,250.2 L 451.3,250.0 L 455.1,249.7 L 458.9,249.7 L 462.7,249.3 L 466.5,249.3 L 470.3,249.1 L 474.1,248.8 L 477.9,248.7 L 481.7,248.7 L 485.5,248.7 L 489.3,248.7 L 493.1,248.7 L 496.9,248.3 L 500.7,248.3 L 504.5,248.0 L 508.3,247.7 L 512.0,247.2 L 515.8,247.1 L 519.6,247.1 L 523.4,246.2 L 527.2,246.0 L 531.0,246.0 L 534.8,245.5 L 538.6,245.5 L 542.4,245.2 L 546.2,245.2 L 550.0,245.0 L 553.8,245.0 L 557.6,244.9 L 561.4,244.6 L 565.2,244.6 L 568.9,244.4 L 572.7,244.3 L 576.5,244.1 L 580.3,244.0 L 584.1,244.0 L 587.9,243.7 L 591.7,243.7 L 595.5,243.7 L 599.3,242.9 L 603.1,242.9 L 606.9,242.9 L 610.7,242.9 L 614.5,242.9 L 618.3,242.9 L 622.1,242.6 L 625.8,242.6 L 629.6,242.4 L 633.4,241.8 L 637.2,241.5 L 641.0,241.3 L 644.8,241.3 L 648.6,241.2 L 652.4,240.7 L 656.2,240.6 L 660.0,240.6 L 663.8,240.3 L 667.6,239.8 L 671.4,239.6 L 675.2,239.6 L 679.0,239.4 L 682.8,239.4 L 686.5,239.0 L 690.3,238.8 L 694.1,238.8 L 697.9,238.5 L 701.7,238.5 L 705.5,238.2 L 709.3,237.8 L 713.1,237.8 L 716.9,237.6 L 720.7,237.5 L 724.5,237.3 L 728.3,237.3 L 732.1,237.2 L 735.9,237.2 L 739.7,236.9 L 743.4,236.3 L 747.2,236.2 L 751.0,236.2 L 754.8,235.0 L 758.6,235.0 L 762.4,234.5 L 766.2,234.5 L 770.0,234.5 L 770.0,340 Z" fill="url(#g3)" clip-path="url(#ca)"/>
<path d="M 72.0,268.2 L 75.8,267.7 L 79.6,267.7 L 83.4,267.7 L 87.2,267.6 L 91.0,267.3 L 94.8,267.1 L 98.6,267.0 L 102.3,267.0 L 106.1,266.8 L 109.9,266.7 L 113.7,266.7 L 117.5,266.7 L 121.3,266.7 L 125.1,266.7 L 128.9,266.7 L 132.7,266.4 L 136.5,266.4 L 140.3,266.4 L 144.1,265.8 L 147.9,265.7 L 151.7,265.4 L 155.5,264.8 L 159.3,264.6 L 163.0,264.6 L 166.8,264.6 L 170.6,264.2 L 174.4,263.9 L 178.2,263.9 L 182.0,263.6 L 185.8,263.4 L 189.6,263.2 L 193.4,263.2 L 197.2,263.0 L 201.0,262.4 L 204.8,262.0 L 208.6,261.7 L 212.4,261.5 L 216.2,261.5 L 219.9,261.4 L 223.7,261.1 L 227.5,261.1 L 231.3,260.9 L 235.1,260.5 L 238.9,260.2 L 242.7,260.2 L 246.5,260.2 L 250.3,260.2 L 254.1,260.1 L 257.9,259.6 L 261.7,259.3 L 265.5,259.2 L 269.3,259.0 L 273.1,258.9 L 276.8,258.7 L 280.6,258.6 L 284.4,258.4 L 288.2,258.0 L 292.0,257.8 L 295.8,257.7 L 299.6,257.1 L 303.4,256.5 L 307.2,256.5 L 311.0,256.4 L 314.8,256.2 L 318.6,256.2 L 322.4,256.2 L 326.2,255.9 L 330.0,255.9 L 333.8,255.0 L 337.5,254.9 L 341.3,254.7 L 345.1,254.7 L 348.9,254.4 L 352.7,254.3 L 356.5,254.3 L 360.3,254.2 L 364.1,254.2 L 367.9,254.2 L 371.7,253.9 L 375.5,253.7 L 379.3,253.0 L 383.1,253.1 L 386.9,253.0 L 390.7,252.8 L 394.4,252.8 L 398.2,252.7 L 402.0,252.2 L 405.8,252.2 L 409.6,252.2 L 413.4,252.2 L 417.2,251.9 L 421.0,251.9 L 424.8,251.6 L 428.6,251.4 L 432.4,250.8 L 436.2,250.8 L 440.0,250.5 L 443.8,250.3 L 447.6,250.2 L 451.3,250.0 L 455.1,249.7 L 458.9,249.7 L 462.7,249.3 L 466.5,249.3 L 470.3,249.1 L 474.1,248.8 L 477.9,248.7 L 481.7,248.7 L 485.5,248.7 L 489.3,248.7 L 493.1,248.7 L 496.9,248.3 L 500.7,248.3 L 504.5,248.0 L 508.3,247.7 L 512.0,247.2 L 515.8,247.1 L 519.6,247.1 L 523.4,246.2 L 527.2,246.0 L 531.0,246.0 L 534.8,245.5 L 538.6,245.5 L 542.4,245.2 L 546.2,245.2 L 550.0,245.0 L 553.8,245.0 L 557.6,244.9 L 561.4,244.6 L 565.2,244.6 L 568.9,244.4 L 572.7,244.3 L 576.5,244.1 L 580.3,244.0 L 584.1,244.0 L 587.9,243.7 L 591.7,243.7 L 595.5,243.7 L 599.3,242.9 L 603.1,242.9 L 606.9,242.9 L 610.7,242.9 L 614.5,242.9 L 618.3,242.9 L 622.1,242.6 L 625.8,242.6 L 629.6,242.4 L 633.4,241.8 L 637.2,241.5 L 641.0,241.3 L 644.8,241.3 L 648.6,241.2 L 652.4,240.7 L 656.2,240.6 L 660.0,240.6 L 663.8,240.3 L 667.6,239.8 L 671.4,239.6 L 675.2,239.6 L 679.0,239.4 L 682.8,239.4 L 686.5,239.0 L 690.3,238.8 L 694.1,238.8 L 697.9,238.5 L 701.7,238.5 L 705.5,238.2 L 709.3,237.8 L 713.1,237.8 L 716.9,237.6 L 720.7,237.5 L 724.5,237.3 L 728.3,237.3 L 732.1,237.2 L 735.9,237.2 L 739.7,236.9 L 743.4,236.3 L 747.2,236.2 L 751.0,236.2 L 754.8,235.0 L 758.6,235.0 L 762.4,234.5 L 766.2,234.5 L 770.0,234.5" fill="none" stroke="#BF5AF2" stroke-width="2.5" stroke-linejoin="round" clip-path="url(#ca)"/>
<path d="M 72.0,340 L 72.0,303.6 L 75.8,303.1 L 79.6,303.1 L 83.4,303.1 L 87.2,303.0 L 91.0,302.7 L 94.8,302.5 L 98.6,302.2 L 102.3,302.2 L 106.1,302.1 L 109.9,301.9 L 113.7,301.9 L 117.5,301.9 L 121.3,301.9 L 125.1,301.9 L 128.9,301.9 L 132.7,301.6 L 136.5,301.6 L 140.3,301.8 L 144.1,301.4 L 147.9,301.5 L 151.7,301.1 L 155.5,300.6 L 159.3,300.5 L 163.0,300.6 L 166.8,300.6 L 170.6,300.2 L 174.4,300.0 L 178.2,300.0 L 182.0,299.7 L 185.8,299.6 L 189.6,299.3 L 193.4,299.3 L 197.2,299.1 L 201.0,298.7 L 204.8,298.3 L 208.6,298.0 L 212.4,298.0 L 216.2,298.0 L 219.9,297.8 L 223.7,297.5 L 227.5,297.5 L 231.3,297.4 L 235.1,296.9 L 238.9,296.8 L 242.7,296.8 L 246.5,296.8 L 250.3,296.8 L 254.1,296.6 L 257.9,296.2 L 261.7,296.0 L 265.5,295.9 L 269.3,295.8 L 273.1,295.8 L 276.8,295.6 L 280.6,295.6 L 284.4,295.6 L 288.2,295.2 L 292.0,295.2 L 295.8,295.2 L 299.6,294.9 L 303.4,294.4 L 307.2,294.4 L 311.0,294.3 L 314.8,294.1 L 318.6,294.1 L 322.4,294.1 L 326.2,293.8 L 330.0,293.8 L 333.8,292.9 L 337.5,292.8 L 341.3,292.7 L 345.1,292.7 L 348.9,292.5 L 352.7,292.5 L 356.5,292.5 L 360.3,292.5 L 364.1,292.5 L 367.9,292.5 L 371.7,292.2 L 375.5,292.1 L 379.3,291.3 L 383.1,291.5 L 386.9,291.5 L 390.7,291.3 L 394.4,291.3 L 398.2,291.3 L 402.0,291.0 L 405.8,291.0 L 409.6,291.0 L 413.4,291.0 L 417.2,291.0 L 421.0,291.0 L 424.8,290.9 L 428.6,290.9 L 432.4,290.3 L 436.2,290.3 L 440.0,290.1 L 443.8,290.0 L 447.6,289.9 L 451.3,289.7 L 455.1,289.4 L 458.9,289.4 L 462.7,289.0 L 466.5,289.0 L 470.3,288.8 L 474.1,288.7 L 477.9,288.7 L 481.7,288.7 L 485.5,288.7 L 489.3,288.7 L 493.1,288.7 L 496.9,288.2 L 500.7,288.2 L 504.5,287.9 L 508.3,287.6 L 512.0,287.2 L 515.8,287.0 L 519.6,287.0 L 523.4,286.3 L 527.2,286.2 L 531.0,286.2 L 534.8,285.7 L 538.6,285.7 L 542.4,285.6 L 546.2,285.6 L 550.0,285.7 L 553.8,285.9 L 557.6,285.7 L 561.4,285.4 L 565.2,285.6 L 568.9,285.4 L 572.7,285.3 L 576.5,285.3 L 580.3,285.3 L 584.1,285.3 L 587.9,285.0 L 591.7,285.0 L 595.5,285.0 L 599.3,284.4 L 603.1,284.4 L 606.9,284.4 L 610.7,284.4 L 614.5,284.4 L 618.3,284.4 L 622.1,284.1 L 625.8,284.1 L 629.6,283.8 L 633.4,283.2 L 637.2,283.1 L 641.0,283.1 L 644.8,283.1 L 648.6,283.1 L 652.4,282.8 L 656.2,282.6 L 660.0,282.6 L 663.8,282.5 L 667.6,282.0 L 671.4,281.7 L 675.2,281.7 L 679.0,281.6 L 682.8,281.6 L 686.5,281.4 L 690.3,281.3 L 694.1,281.3 L 697.9,281.1 L 701.7,281.1 L 705.5,280.9 L 709.3,280.4 L 713.1,280.4 L 716.9,280.3 L 720.7,280.4 L 724.5,280.3 L 728.3,280.3 L 732.1,280.1 L 735.9,280.1 L 739.7,280.0 L 743.4,279.5 L 747.2,279.5 L 751.0,279.5 L 754.8,278.6 L 758.6,278.8 L 762.4,278.3 L 766.2,278.3 L 770.0,278.3 L 770.0,340 Z" fill="url(#g4)" clip-path="url(#ca)"/>
<path d="M 72.0,303.6 L 75.8,303.1 L 79.6,303.1 L 83.4,303.1 L 87.2,303.0 L 91.0,302.7 L 94.8,302.5 L 98.6,302.2 L 102.3,302.2 L 106.1,302.1 L 109.9,301.9 L 113.7,301.9 L 117.5,301.9 L 121.3,301.9 L 125.1,301.9 L 128.9,301.9 L 132.7,301.6 L 136.5,301.6 L 140.3,301.8 L 144.1,301.4 L 147.9,301.5 L 151.7,301.1 L 155.5,300.6 L 159.3,300.5 L 163.0,300.6 L 166.8,300.6 L 170.6,300.2 L 174.4,300.0 L 178.2,300.0 L 182.0,299.7 L 185.8,299.6 L 189.6,299.3 L 193.4,299.3 L 197.2,299.1 L 201.0,298.7 L 204.8,298.3 L 208.6,298.0 L 212.4,298.0 L 216.2,298.0 L 219.9,297.8 L 223.7,297.5 L 227.5,297.5 L 231.3,297.4 L 235.1,296.9 L 238.9,296.8 L 242.7,296.8 L 246.5,296.8 L 250.3,296.8 L 254.1,296.6 L 257.9,296.2 L 261.7,296.0 L 265.5,295.9 L 269.3,295.8 L 273.1,295.8 L 276.8,295.6 L 280.6,295.6 L 284.4,295.6 L 288.2,295.2 L 292.0,295.2 L 295.8,295.2 L 299.6,294.9 L 303.4,294.4 L 307.2,294.4 L 311.0,294.3 L 314.8,294.1 L 318.6,294.1 L 322.4,294.1 L 326.2,293.8 L 330.0,293.8 L 333.8,292.9 L 337.5,292.8 L 341.3,292.7 L 345.1,292.7 L 348.9,292.5 L 352.7,292.5 L 356.5,292.5 L 360.3,292.5 L 364.1,292.5 L 367.9,292.5 L 371.7,292.2 L 375.5,292.1 L 379.3,291.3 L 383.1,291.5 L 386.9,291.5 L 390.7,291.3 L 394.4,291.3 L 398.2,291.3 L 402.0,291.0 L 405.8,291.0 L 409.6,291.0 L 413.4,291.0 L 417.2,291.0 L 421.0,291.0 L 424.8,290.9 L 428.6,290.9 L 432.4,290.3 L 436.2,290.3 L 440.0,290.1 L 443.8,290.0 L 447.6,289.9 L 451.3,289.7 L 455.1,289.4 L 458.9,289.4 L 462.7,289.0 L 466.5,289.0 L 470.3,288.8 L 474.1,288.7 L 477.9,288.7 L 481.7,288.7 L 485.5,288.7 L 489.3,288.7 L 493.1,288.7 L 496.9,288.2 L 500.7,288.2 L 504.5,287.9 L 508.3,287.6 L 512.0,287.2 L 515.8,287.0 L 519.6,287.0 L 523.4,286.3 L 527.2,286.2 L 531.0,286.2 L 534.8,285.7 L 538.6,285.7 L 542.4,285.6 L 546.2,285.6 L 550.0,285.7 L 553.8,285.9 L 557.6,285.7 L 561.4,285.4 L 565.2,285.6 L 568.9,285.4 L 572.7,285.3 L 576.5,285.3 L 580.3,285.3 L 584.1,285.3 L 587.9,285.0 L 591.7,285.0 L 595.5,285.0 L 599.3,284.4 L 603.1,284.4 L 606.9,284.4 L 610.7,284.4 L 614.5,284.4 L 618.3,284.4 L 622.1,284.1 L 625.8,284.1 L 629.6,283.8 L 633.4,283.2 L 637.2,283.1 L 641.0,283.1 L 644.8,283.1 L 648.6,283.1 L 652.4,282.8 L 656.2,282.6 L 660.0,282.6 L 663.8,282.5 L 667.6,282.0 L 671.4,281.7 L 675.2,281.7 L 679.0,281.6 L 682.8,281.6 L 686.5,281.4 L 690.3,281.3 L 694.1,281.3 L 697.9,281.1 L 701.7,281.1 L 705.5,280.9 L 709.3,280.4 L 713.1,280.4 L 716.9,280.3 L 720.7,280.4 L 724.5,280.3 L 728.3,280.3 L 732.1,280.1 L 735.9,280.1 L 739.7,280.0 L 743.4,279.5 L 747.2,279.5 L 751.0,279.5 L 754.8,278.6 L 758.6,278.8 L 762.4,278.3 L 766.2,278.3 L 770.0,278.3" fill="none" stroke="#34C759" stroke-width="2.5" stroke-linejoin="round" clip-path="url(#ca)"/>
<text x="92.9" y="55.0" text-anchor="middle" font-size="9" fill="#4F8EF7" opacity="0.85" clip-path="url(#ca)">+0.5% (+8)</text>
<text x="92.9" y="66.0" text-anchor="middle" font-size="9" fill="#BF5AF2" opacity="0.85" clip-path="url(#ca)">+1.0% (+10)</text>
<text x="92.9" y="77.0" text-anchor="middle" font-size="9" fill="#34C759" opacity="0.85" clip-path="url(#ca)">+1.5% (+11)</text>
<text x="164.9" y="55.0" text-anchor="middle" font-size="9" fill="#4F8EF7" opacity="0.85" clip-path="url(#ca)">+4.0% (+65)</text>
<text x="164.9" y="66.0" text-anchor="middle" font-size="9" fill="#BF5AF2" opacity="0.85" clip-path="url(#ca)">+3.5% (+35)</text>
<text x="164.9" y="77.0" text-anchor="middle" font-size="9" fill="#34C759" opacity="0.85" clip-path="url(#ca)">+3.6% (+27)</text>
<text x="265.5" y="55.0" text-anchor="middle" font-size="9" fill="#4F8EF7" opacity="0.85" clip-path="url(#ca)">+4.1% (+70)</text>
<text x="265.5" y="66.0" text-anchor="middle" font-size="9" fill="#BF5AF2" opacity="0.85" clip-path="url(#ca)">+3.5% (+36)</text>
<text x="265.5" y="77.0" text-anchor="middle" font-size="9" fill="#34C759" opacity="0.85" clip-path="url(#ca)">+3.3% (+26)</text>
<text x="367.9" y="55.0" text-anchor="middle" font-size="9" fill="#4F8EF7" opacity="0.85" clip-path="url(#ca)">+3.5% (+61)</text>
<text x="367.9" y="66.0" text-anchor="middle" font-size="9" fill="#BF5AF2" opacity="0.85" clip-path="url(#ca)">+2.7% (+29)</text>
<text x="367.9" y="77.0" text-anchor="middle" font-size="9" fill="#34C759" opacity="0.85" clip-path="url(#ca)">+2.6% (+21)</text>
<text x="470.3" y="55.0" text-anchor="middle" font-size="9" fill="#4F8EF7" opacity="0.85" clip-path="url(#ca)">+2.7% (+49)</text>
<text x="470.3" y="66.0" text-anchor="middle" font-size="9" fill="#BF5AF2" opacity="0.85" clip-path="url(#ca)">+3.0% (+33)</text>
<text x="470.3" y="77.0" text-anchor="middle" font-size="9" fill="#34C759" opacity="0.85" clip-path="url(#ca)">+3.2% (+27)</text>
<text x="570.8" y="55.0" text-anchor="middle" font-size="9" fill="#4F8EF7" opacity="0.85" clip-path="url(#ca)">+2.9% (+54)</text>
<text x="570.8" y="66.0" text-anchor="middle" font-size="9" fill="#BF5AF2" opacity="0.85" clip-path="url(#ca)">+1.9% (+22)</text>
<text x="570.8" y="77.0" text-anchor="middle" font-size="9" fill="#34C759" opacity="0.85" clip-path="url(#ca)">+1.5% (+13)</text>
<text x="665.7" y="55.0" text-anchor="middle" font-size="9" fill="#4F8EF7" opacity="0.85" clip-path="url(#ca)">+2.7% (+52)</text>
<text x="665.7" y="66.0" text-anchor="middle" font-size="9" fill="#BF5AF2" opacity="0.85" clip-path="url(#ca)">+2.8% (+33)</text>
<text x="665.7" y="77.0" text-anchor="middle" font-size="9" fill="#34C759" opacity="0.85" clip-path="url(#ca)">+2.8% (+25)</text>
<text x="741.5" y="55.0" text-anchor="middle" font-size="9" fill="#4F8EF7" opacity="0.85" clip-path="url(#ca)">+1.5% (+30)</text>
<text x="741.5" y="66.0" text-anchor="middle" font-size="9" fill="#BF5AF2" opacity="0.85" clip-path="url(#ca)">+1.8% (+22)</text>
<text x="741.5" y="77.0" text-anchor="middle" font-size="9" fill="#34C759" opacity="0.85" clip-path="url(#ca)">+1.5% (+14)</text>
<rect x="211" y="369" width="12" height="12" fill="#4F8EF7" rx="2"/>
<text x="227" y="379" font-size="12" fill="#111827">Authors</text>
<rect x="351" y="369" width="12" height="12" fill="#BF5AF2" rx="2"/>
<text x="367" y="379" font-size="12" fill="#111827">Contributors</text>
<rect x="491" y="369" width="12" height="12" fill="#34C759" rx="2"/>
<text x="507" y="379" font-size="12" fill="#111827">Non-author contributors</text>
<text x="72" y="394" font-size="8" fill="#e5e7eb">data since Dec 11, 2025</text>
</svg>