<svg xmlns="http://www.w3.org/2000/svg" width="800" height="400" viewBox="0 0 800 400">
<defs><style>text { font-family: -apple-system, BlinkMacSystemFont, 'Segoe UI', Roboto, sans-serif; }</style></defs>
<rect width="800" height="400" fill="#ffffff" rx="12"/>
<text x="400" y="26" text-anchor="middle" font-size="15" font-weight="600" fill="#111827">Package Updates by Quarter</text>
<text x="400" y="44" text-anchor="middle" font-size="11" fill="#6b7280">last updated at · 2,673 packages with a known last-update date</text>
<line x1="60" y1="58" x2="60" y2="320" stroke="#e5e7eb" stroke-width="1"/>
<line x1="60" y1="320" x2="770" y2="320" stroke="#e5e7eb" stroke-width="1"/>
<text x="-189" y="18" text-anchor="middle" font-size="12" fill="#6b7280" transform="rotate(-90)">Number of packages</text>
<line x1="60" y1="320.0" x2="770" y2="320.0" stroke="#f3f4f6" stroke-width="1"/>
<text x="54" y="324.0" text-anchor="end" font-size="11" fill="#6b7280">0</text>
<line x1="60" y1="267.5" x2="770" y2="267.5" stroke="#f3f4f6" stroke-width="1"/>
<text x="54" y="271.5" text-anchor="end" font-size="11" fill="#6b7280">111</text>
<line x1="60" y1="215.0" x2="770" y2="215.0" stroke="#f3f4f6" stroke-width="1"/>
<text x="54" y="219.0" text-anchor="end" font-size="11" fill="#6b7280">222</text>
<line x1="60" y1="163.0" x2="770" y2="163.0" stroke="#f3f4f6" stroke-width="1"/>
<text x="54" y="167.0" text-anchor="end" font-size="11" fill="#6b7280">332</text>
<line x1="60" y1="110.5" x2="770" y2="110.5" stroke="#f3f4f6" stroke-width="1"/>
<text x="54" y="114.5" text-anchor="end" font-size="11" fill="#6b7280">443</text>
<line x1="60" y1="58.0" x2="770" y2="58.0" stroke="#f3f4f6" stroke-width="1"/>
<text x="54" y="62.0" text-anchor="end" font-size="11" fill="#6b7280">554</text>
<rect x="67.3" y="317.2" width="27.1" height="2.8" fill="#34C759" rx="3" opacity="0.85"/>
<text x="80.9" y="301.2" text-anchor="middle" font-size="10" fill="#6b7280">6</text>
<text x="80.9" y="313.2" text-anchor="middle" font-size="10" fill="#6b7280">(0.22%)</text>
<g transform="translate(80.9,330.0) rotate(-45)"><text text-anchor="end" font-size="10" fill="#111827">2022-Q1</text></g>
<rect x="109.1" y="298.7" width="27.1" height="21.3" fill="#34C759" rx="3" opacity="0.85"/>
<text x="122.6" y="282.7" text-anchor="middle" font-size="10" fill="#6b7280">45</text>
<text x="122.6" y="294.7" text-anchor="middle" font-size="10" fill="#6b7280">(1.68%)</text>
<g transform="translate(122.6,330.0) rotate(-45)"><text text-anchor="end" font-size="10" fill="#111827">2022-Q2</text></g>
<rect x="150.8" y="295.9" width="27.1" height="24.1" fill="#34C759" rx="3" opacity="0.85"/>
<text x="164.4" y="279.9" text-anchor="middle" font-size="10" fill="#6b7280">51</text>
<text x="164.4" y="291.9" text-anchor="middle" font-size="10" fill="#6b7280">(1.91%)</text>
<g transform="translate(164.4,330.0) rotate(-45)"><text text-anchor="end" font-size="10" fill="#111827">2022-Q3</text></g>
<rect x="192.6" y="285.9" width="27.1" height="34.1" fill="#34C759" rx="3" opacity="0.85"/>
<text x="206.2" y="269.9" text-anchor="middle" font-size="10" fill="#6b7280">72</text>
<text x="206.2" y="281.9" text-anchor="middle" font-size="10" fill="#6b7280">(2.69%)</text>
<g transform="translate(206.2,330.0) rotate(-45)"><text text-anchor="end" font-size="10" fill="#111827">2022-Q4</text></g>
<rect x="234.4" y="275.5" width="27.1" height="44.5" fill="#34C759" rx="3" opacity="0.85"/>
<text x="247.9" y="259.5" text-anchor="middle" font-size="10" fill="#6b7280">94</text>
<text x="247.9" y="271.5" text-anchor="middle" font-size="10" fill="#6b7280">(3.52%)</text>
<g transform="translate(247.9,330.0) rotate(-45)"><text text-anchor="end" font-size="10" fill="#111827">2023-Q1</text></g>
<rect x="276.1" y="276.0" width="27.1" height="44.0" fill="#34C759" rx="3" opacity="0.85"/>
<text x="289.7" y="260.0" text-anchor="middle" font-size="10" fill="#6b7280">93</text>
<text x="289.7" y="272.0" text-anchor="middle" font-size="10" fill="#6b7280">(3.48%)</text>
<g transform="translate(289.7,330.0) rotate(-45)"><text text-anchor="end" font-size="10" fill="#111827">2023-Q2</text></g>
<rect x="317.9" y="277.4" width="27.1" height="42.6" fill="#34C759" rx="3" opacity="0.85"/>
<text x="331.5" y="261.4" text-anchor="middle" font-size="10" fill="#6b7280">90</text>
<text x="331.5" y="273.4" text-anchor="middle" font-size="10" fill="#6b7280">(3.37%)</text>
<g transform="translate(331.5,330.0) rotate(-45)"><text text-anchor="end" font-size="10" fill="#111827">2023-Q3</text></g>
<rect x="359.7" y="286.4" width="27.1" height="33.6" fill="#34C759" rx="3" opacity="0.85"/>
<text x="373.2" y="270.4" text-anchor="middle" font-size="10" fill="#6b7280">71</text>
<text x="373.2" y="282.4" text-anchor="middle" font-size="10" fill="#6b7280">(2.66%)</text>
<g transform="translate(373.2,330.0) rotate(-45)"><text text-anchor="end" font-size="10" fill="#111827">2023-Q4</text></g>
<rect x="401.4" y="259.5" width="27.1" height="60.5" fill="#34C759" rx="3" opacity="0.85"/>
<text x="415.0" y="243.5" text-anchor="middle" font-size="10" fill="#6b7280">128</text>
<text x="415.0" y="255.5" text-anchor="middle" font-size="10" fill="#6b7280">(4.79%)</text>
<g transform="translate(415.0,330.0) rotate(-45)"><text text-anchor="end" font-size="10" fill="#111827">2024-Q1</text></g>
<rect x="443.2" y="254.7" width="27.1" height="65.3" fill="#34C759" rx="3" opacity="0.85"/>
<text x="456.8" y="238.7" text-anchor="middle" font-size="10" fill="#6b7280">138</text>
<text x="456.8" y="250.7" text-anchor="middle" font-size="10" fill="#6b7280">(5.16%)</text>
<g transform="translate(456.8,330.0) rotate(-45)"><text text-anchor="end" font-size="10" fill="#111827">2024-Q2</text></g>
<rect x="485.0" y="254.3" width="27.1" height="65.7" fill="#34C759" rx="3" opacity="0.85"/>
<text x="498.5" y="238.3" text-anchor="middle" font-size="10" fill="#6b7280">139</text>
<text x="498.5" y="250.3" text-anchor="middle" font-size="10" fill="#6b7280">(5.20%)</text>
<g transform="translate(498.5,330.0) rotate(-45)"><text text-anchor="end" font-size="10" fill="#111827">2024-Q3</text></g>
<rect x="526.7" y="253.3" width="27.1" height="66.7" fill="#34C759" rx="3" opacity="0.85"/>
<text x="540.3" y="237.3" text-anchor="middle" font-size="10" fill="#6b7280">141</text>
<text x="540.3" y="249.3" text-anchor="middle" font-size="10" fill="#6b7280">(5.27%)</text>
<g transform="translate(540.3,330.0) rotate(-45)"><text text-anchor="end" font-size="10" fill="#111827">2024-Q4</text></g>
<rect x="568.5" y="216.0" width="27.1" height="104.0" fill="#34C759" rx="3" opacity="0.85"/>
<text x="582.1" y="200.0" text-anchor="middle" font-size="10" fill="#6b7280">220</text>
<text x="582.1" y="212.0" text-anchor="middle" font-size="10" fill="#6b7280">(8.23%)</text>
<g transform="translate(582.1,330.0) rotate(-45)"><text text-anchor="end" font-size="10" fill="#111827">2025-Q1</text></g>
<rect x="610.3" y="205.6" width="27.1" height="114.4" fill="#34C759" rx="3" opacity="0.85"/>
<text x="623.8" y="189.6" text-anchor="middle" font-size="10" fill="#6b7280">242</text>
<text x="623.8" y="201.6" text-anchor="middle" font-size="10" fill="#6b7280">(9.05%)</text>
<g transform="translate(623.8,330.0) rotate(-45)"><text text-anchor="end" font-size="10" fill="#111827">2025-Q2</text></g>
<rect x="652.0" y="208.4" width="27.1" height="111.6" fill="#34C759" rx="3" opacity="0.85"/>
<text x="665.6" y="192.4" text-anchor="middle" font-size="10" fill="#6b7280">236</text>
<text x="665.6" y="204.4" text-anchor="middle" font-size="10" fill="#6b7280">(8.83%)</text>
<g transform="translate(665.6,330.0) rotate(-45)"><text text-anchor="end" font-size="10" fill="#111827">2025-Q3</text></g>
<rect x="693.8" y="153.1" width="27.1" height="166.9" fill="#34C759" rx="3" opacity="0.85"/>
<text x="707.4" y="137.1" text-anchor="middle" font-size="10" fill="#6b7280">353</text>
<text x="707.4" y="149.1" text-anchor="middle" font-size="10" fill="#6b7280">(13.21%)</text>
<g transform="translate(707.4,330.0) rotate(-45)"><text text-anchor="end" font-size="10" fill="#111827">2025-Q4</text></g>
<rect x="735.5" y="58.0" width="27.1" height="262.0" fill="#34C759" rx="3" opacity="0.85"/>
<text x="749.1" y="72.0" text-anchor="middle" font-size="10" fill="#6b7280">554</text>
<text x="749.1" y="84.0" text-anchor="middle" font-size="10" fill="#6b7280">(20.73%)</text>
<g transform="translate(749.1,330.0) rotate(-45)"><text text-anchor="end" font-size="10" fill="#111827">2026-Q1</text></g>
</svg>