<svg xmlns="http://www.w3.org/2000/svg" width="800" height="400" viewBox="0 0 800 400">
<defs>
  <style>text { font-family: -apple-system, BlinkMacSystemFont, 'Segoe UI', Roboto, sans-serif; }</style>
  <linearGradient id="g1" x1="0" y1="0" x2="0" y2="1">
  <stop offset="0%" stop-color="#FF6363" stop-opacity="0.25"/>
  <stop offset="100%" stop-color="#FF6363" stop-opacity="0"/>
</linearGradient>
  <clipPath id="ca"><rect x="72" y="45" width="698" height="295"/></clipPath>
</defs>
<rect width="800" height="400" fill="#ffffff" rx="12"/>
<text x="400" y="26" text-anchor="middle" font-size="15" font-weight="600" fill="#111827">Packages Growth Over Time</text>
<line x1="72" y1="340.0" x2="770" y2="340.0" stroke="#f3f4f6" stroke-width="1"/>
<text x="66" y="344.0" text-anchor="end" font-size="11" fill="#6b7280">2.4k</text>
<line x1="72" y1="281.0" x2="770" y2="281.0" stroke="#f3f4f6" stroke-width="1"/>
<text x="66" y="285.0" text-anchor="end" font-size="11" fill="#6b7280">2.5k</text>
<line x1="72" y1="222.0" x2="770" y2="222.0" stroke="#f3f4f6" stroke-width="1"/>
<text x="66" y="226.0" text-anchor="end" font-size="11" fill="#6b7280">2.6k</text>
<line x1="72" y1="163.0" x2="770" y2="163.0" stroke="#f3f4f6" stroke-width="1"/>
<text x="66" y="167.0" text-anchor="end" font-size="11" fill="#6b7280">2.7k</text>
<line x1="72" y1="104.0" x2="770" y2="104.0" stroke="#f3f4f6" stroke-width="1"/>
<text x="66" y="108.0" text-anchor="end" font-size="11" fill="#6b7280">2.8k</text>
<line x1="72" y1="45.0" x2="770" y2="45.0" stroke="#f3f4f6" stroke-width="1"/>
<text x="66" y="49.0" text-anchor="end" font-size="11" fill="#6b7280">2.9k</text>
<line x1="151.0" y1="45" x2="151.0" y2="340" stroke="#e5e7eb" stroke-width="1" stroke-dasharray="3,3" clip-path="url(#ca)"/>
<line x1="322.2" y1="45" x2="322.2" y2="340" stroke="#e5e7eb" stroke-width="1" stroke-dasharray="3,3" clip-path="url(#ca)"/>
<line x1="500.0" y1="45" x2="500.0" y2="340" stroke="#e5e7eb" stroke-width="1" stroke-dasharray="3,3" clip-path="url(#ca)"/>
<line x1="677.8" y1="45" x2="677.8" y2="340" stroke="#e5e7eb" stroke-width="1" stroke-dasharray="3,3" clip-path="url(#ca)"/>
<text x="72.0" y="358.0" text-anchor="middle" font-size="11" fill="#6b7280">Dec 11</text>
<text x="210.3" y="358.0" text-anchor="middle" font-size="11" fill="#6b7280">Jan 14</text>
<text x="348.6" y="358.0" text-anchor="middle" font-size="11" fill="#6b7280">Feb 5</text>
<text x="493.4" y="358.0" text-anchor="middle" font-size="11" fill="#6b7280">Feb 28</text>
<text x="631.7" y="358.0" text-anchor="middle" font-size="11" fill="#6b7280">Mar 23</text>
<text x="770.0" y="358.0" text-anchor="middle" font-size="11" fill="#6b7280">Apr 16</text>
<line x1="72" y1="45" x2="72" y2="340" stroke="#e5e7eb" stroke-width="1"/>
<line x1="72" y1="340" x2="770" y2="340" stroke="#e5e7eb" stroke-width="1"/>
<text x="-192.5" y="18" text-anchor="middle" font-size="12" fill="#6b7280" transform="rotate(-90)">Extensions</text>
<path d="M 72.0,340 L 72.0,294.6 L 78.6,294.0 L 85.2,294.0 L 91.8,292.2 L 98.3,292.2 L 104.9,291.0 L 111.5,289.9 L 118.1,289.3 L 124.7,286.3 L 131.3,283.9 L 137.8,283.9 L 144.4,283.9 L 151.0,283.9 L 157.6,282.8 L 164.2,282.8 L 170.8,282.8 L 177.4,281.6 L 183.9,279.2 L 190.5,275.1 L 197.1,272.1 L 203.7,271.0 L 210.3,270.4 L 216.9,268.0 L 223.5,260.9 L 230.0,258.6 L 236.6,258.6 L 243.2,252.7 L 249.8,250.9 L 256.4,248.6 L 263.0,246.8 L 269.5,243.2 L 276.1,240.3 L 282.7,239.7 L 289.3,235.0 L 295.9,230.8 L 302.5,230.8 L 309.1,227.9 L 315.6,225.5 L 322.2,224.9 L 328.8,224.4 L 335.4,223.8 L 342.0,222.0 L 348.6,211.4 L 355.2,206.7 L 361.7,204.3 L 368.3,203.1 L 374.9,201.3 L 381.5,197.2 L 388.1,196.0 L 394.7,194.9 L 401.2,191.3 L 407.8,190.1 L 414.4,189.0 L 421.0,189.0 L 427.6,178.3 L 434.2,177.2 L 440.8,176.0 L 447.3,173.6 L 453.9,170.7 L 460.5,170.7 L 467.1,166.0 L 473.7,158.3 L 480.3,157.1 L 486.8,157.7 L 493.4,155.9 L 500.0,155.3 L 506.6,155.3 L 513.2,151.8 L 519.8,148.8 L 526.4,146.5 L 532.9,143.5 L 539.5,142.9 L 546.1,142.9 L 552.7,138.8 L 559.3,137.6 L 565.9,137.0 L 572.5,130.0 L 579.0,129.4 L 585.6,129.4 L 592.2,129.4 L 598.8,128.8 L 605.4,125.8 L 612.0,123.5 L 618.5,120.5 L 625.1,119.9 L 631.7,118.2 L 638.3,112.8 L 644.9,108.1 L 651.5,107.5 L 658.1,106.9 L 664.6,105.2 L 671.2,99.3 L 677.8,98.1 L 684.4,96.3 L 691.0,92.8 L 697.6,92.2 L 704.2,91.6 L 710.7,91.6 L 717.3,90.4 L 723.9,86.9 L 730.5,85.7 L 737.1,84.5 L 743.7,83.9 L 750.2,82.8 L 756.8,76.9 L 763.4,76.3 L 770.0,75.1 L 770.0,340 Z" fill="url(#g1)" clip-path="url(#ca)"/>
<path d="M 72.0,294.6 L 78.6,294.0 L 85.2,294.0 L 91.8,292.2 L 98.3,292.2 L 104.9,291.0 L 111.5,289.9 L 118.1,289.3 L 124.7,286.3 L 131.3,283.9 L 137.8,283.9 L 144.4,283.9 L 151.0,283.9 L 157.6,282.8 L 164.2,282.8 L 170.8,282.8 L 177.4,281.6 L 183.9,279.2 L 190.5,275.1 L 197.1,272.1 L 203.7,271.0 L 210.3,270.4 L 216.9,268.0 L 223.5,260.9 L 230.0,258.6 L 236.6,258.6 L 243.2,252.7 L 249.8,250.9 L 256.4,248.6 L 263.0,246.8 L 269.5,243.2 L 276.1,240.3 L 282.7,239.7 L 289.3,235.0 L 295.9,230.8 L 302.5,230.8 L 309.1,227.9 L 315.6,225.5 L 322.2,224.9 L 328.8,224.4 L 335.4,223.8 L 342.0,222.0 L 348.6,211.4 L 355.2,206.7 L 361.7,204.3 L 368.3,203.1 L 374.9,201.3 L 381.5,197.2 L 388.1,196.0 L 394.7,194.9 L 401.2,191.3 L 407.8,190.1 L 414.4,189.0 L 421.0,189.0 L 427.6,178.3 L 434.2,177.2 L 440.8,176.0 L 447.3,173.6 L 453.9,170.7 L 460.5,170.7 L 467.1,166.0 L 473.7,158.3 L 480.3,157.1 L 486.8,157.7 L 493.4,155.9 L 500.0,155.3 L 506.6,155.3 L 513.2,151.8 L 519.8,148.8 L 526.4,146.5 L 532.9,143.5 L 539.5,142.9 L 546.1,142.9 L 552.7,138.8 L 559.3,137.6 L 565.9,137.0 L 572.5,130.0 L 579.0,129.4 L 585.6,129.4 L 592.2,129.4 L 598.8,128.8 L 605.4,125.8 L 612.0,123.5 L 618.5,120.5 L 625.1,119.9 L 631.7,118.2 L 638.3,112.8 L 644.9,108.1 L 651.5,107.5 L 658.1,106.9 L 664.6,105.2 L 671.2,99.3 L 677.8,98.1 L 684.4,96.3 L 691.0,92.8 L 697.6,92.2 L 704.2,91.6 L 710.7,91.6 L 717.3,90.4 L 723.9,86.9 L 730.5,85.7 L 737.1,84.5 L 743.7,83.9 L 750.2,82.8 L 756.8,76.9 L 763.4,76.3 L 770.0,75.1" fill="none" stroke="#FF6363" stroke-width="2.5" stroke-linejoin="round" clip-path="url(#ca)"/>
<text x="108.2" y="55.0" text-anchor="middle" font-size="9" fill="#FF6363" opacity="0.85" clip-path="url(#ca)">+0.7% (+18)</text>
<text x="233.3" y="55.0" text-anchor="middle" font-size="9" fill="#FF6363" opacity="0.85" clip-path="url(#ca)">+4.0% (+99)</text>
<text x="407.8" y="55.0" text-anchor="middle" font-size="9" fill="#FF6363" opacity="0.85" clip-path="url(#ca)">+4.5% (+117)</text>
<text x="585.6" y="55.0" text-anchor="middle" font-size="9" fill="#FF6363" opacity="0.85" clip-path="url(#ca)">+3.5% (+95)</text>
<text x="723.9" y="55.0" text-anchor="middle" font-size="9" fill="#FF6363" opacity="0.85" clip-path="url(#ca)">+1.4% (+39)</text>
<rect x="351" y="369" width="12" height="12" fill="#FF6363" rx="2"/>
<text x="367" y="379" font-size="12" fill="#111827">Extensions</text>
<text x="72" y="394" font-size="8" fill="#e5e7eb">data since Dec 11, 2025</text>
</svg>