<svg xmlns="http://www.w3.org/2000/svg" width="800" height="400" viewBox="0 0 800 400">
<defs>
  <style>text { font-family: -apple-system, BlinkMacSystemFont, 'Segoe UI', Roboto, sans-serif; }</style>
  <linearGradient id="g2" x1="0" y1="0" x2="0" y2="1">
  <stop offset="0%" stop-color="#4F8EF7" stop-opacity="0.25"/>
  <stop offset="100%" stop-color="#4F8EF7" stop-opacity="0"/>
</linearGradient>
<linearGradient id="g3" x1="0" y1="0" x2="0" y2="1">
  <stop offset="0%" stop-color="#BF5AF2" stop-opacity="0.25"/>
  <stop offset="100%" stop-color="#BF5AF2" stop-opacity="0"/>
</linearGradient>
<linearGradient id="g4" x1="0" y1="0" x2="0" y2="1">
  <stop offset="0%" stop-color="#34C759" stop-opacity="0.25"/>
  <stop offset="100%" stop-color="#34C759" stop-opacity="0"/>
</linearGradient>
  <clipPath id="ca"><rect x="72" y="45" width="698" height="295"/></clipPath>
</defs>
<rect width="800" height="400" fill="#ffffff" rx="12"/>
<text x="400" y="26" text-anchor="middle" font-size="15" font-weight="600" fill="#111827">Community Growth Over Time</text>
<line x1="72" y1="340.0" x2="770" y2="340.0" stroke="#f3f4f6" stroke-width="1"/>
<text x="66" y="344.0" text-anchor="end" font-size="11" fill="#6b7280">500</text>
<line x1="72" y1="241.7" x2="770" y2="241.7" stroke="#f3f4f6" stroke-width="1"/>
<text x="66" y="245.7" text-anchor="end" font-size="11" fill="#6b7280">1.0k</text>
<line x1="72" y1="143.3" x2="770" y2="143.3" stroke="#f3f4f6" stroke-width="1"/>
<text x="66" y="147.3" text-anchor="end" font-size="11" fill="#6b7280">1.5k</text>
<line x1="72" y1="45.0" x2="770" y2="45.0" stroke="#f3f4f6" stroke-width="1"/>
<text x="66" y="49.0" text-anchor="end" font-size="11" fill="#6b7280">2.0k</text>
<line x1="135.5" y1="45" x2="135.5" y2="340" stroke="#e5e7eb" stroke-width="1" stroke-dasharray="3,3" clip-path="url(#ca)"/>
<line x1="272.9" y1="45" x2="272.9" y2="340" stroke="#e5e7eb" stroke-width="1" stroke-dasharray="3,3" clip-path="url(#ca)"/>
<line x1="415.7" y1="45" x2="415.7" y2="340" stroke="#e5e7eb" stroke-width="1" stroke-dasharray="3,3" clip-path="url(#ca)"/>
<line x1="558.5" y1="45" x2="558.5" y2="340" stroke="#e5e7eb" stroke-width="1" stroke-dasharray="3,3" clip-path="url(#ca)"/>
<line x1="701.3" y1="45" x2="701.3" y2="340" stroke="#e5e7eb" stroke-width="1" stroke-dasharray="3,3" clip-path="url(#ca)"/>
<text x="72.0" y="358.0" text-anchor="middle" font-size="11" fill="#6b7280">Dec 11</text>
<text x="209.5" y="358.0" text-anchor="middle" font-size="11" fill="#6b7280">Jan 20</text>
<text x="352.3" y="358.0" text-anchor="middle" font-size="11" fill="#6b7280">Feb 16</text>
<text x="489.7" y="358.0" text-anchor="middle" font-size="11" fill="#6b7280">Mar 16</text>
<text x="632.5" y="358.0" text-anchor="middle" font-size="11" fill="#6b7280">Apr 16</text>
<text x="770.0" y="358.0" text-anchor="middle" font-size="11" fill="#6b7280">May 19</text>
<line x1="72" y1="45" x2="72" y2="340" stroke="#e5e7eb" stroke-width="1"/>
<line x1="72" y1="340" x2="770" y2="340" stroke="#e5e7eb" stroke-width="1"/>
<text x="-192.5" y="18" text-anchor="middle" font-size="12" fill="#6b7280" transform="rotate(-90)">People</text>
<path d="M 72.0,340 L 72.0,120.1 L 77.3,120.1 L 82.6,120.1 L 87.9,119.5 L 93.2,119.5 L 98.4,119.1 L 103.7,118.9 L 109.0,119.1 L 114.3,118.6 L 119.6,118.6 L 124.9,118.6 L 130.2,118.6 L 135.5,118.6 L 140.7,118.6 L 146.0,118.6 L 151.3,118.6 L 156.6,118.4 L 161.9,117.8 L 167.2,116.6 L 172.5,116.0 L 177.8,115.8 L 183.0,115.8 L 188.3,115.2 L 193.6,113.8 L 198.9,113.0 L 204.2,113.0 L 209.5,112.1 L 214.8,111.7 L 220.1,110.9 L 225.3,110.3 L 230.6,109.7 L 235.9,109.1 L 241.2,109.1 L 246.5,107.7 L 251.8,106.9 L 257.1,106.9 L 262.4,106.2 L 267.7,105.8 L 272.9,105.6 L 278.2,105.4 L 283.5,105.4 L 288.8,104.8 L 294.1,102.4 L 299.4,101.0 L 304.7,100.3 L 310.0,100.1 L 315.2,99.7 L 320.5,98.9 L 325.8,98.5 L 331.1,98.1 L 336.4,97.7 L 341.7,97.3 L 347.0,96.9 L 352.3,96.9 L 357.5,95.0 L 362.8,95.0 L 368.1,94.8 L 373.4,94.6 L 378.7,94.2 L 384.0,94.2 L 389.3,93.2 L 394.6,92.0 L 399.8,91.6 L 405.1,92.0 L 410.4,91.8 L 415.7,91.6 L 421.0,91.6 L 426.3,91.2 L 431.6,90.4 L 436.9,90.0 L 442.2,89.6 L 447.4,89.4 L 452.7,89.4 L 458.0,88.7 L 463.3,88.3 L 468.6,88.3 L 473.9,86.7 L 479.2,86.7 L 484.5,86.7 L 489.7,86.7 L 495.0,86.5 L 500.3,85.9 L 505.6,85.1 L 510.9,84.7 L 516.2,84.7 L 521.5,84.3 L 526.8,82.8 L 532.0,81.8 L 537.3,81.6 L 542.6,81.4 L 547.9,80.8 L 553.2,79.6 L 558.5,79.2 L 563.8,78.8 L 569.1,77.6 L 574.3,77.4 L 579.6,77.4 L 584.9,77.4 L 590.2,77.3 L 595.5,76.1 L 600.8,75.9 L 606.1,75.7 L 611.4,75.7 L 616.7,75.3 L 621.9,73.7 L 627.2,73.5 L 632.5,73.3 L 637.8,73.3 L 643.1,72.5 L 648.4,72.3 L 653.7,72.1 L 659.0,71.6 L 664.2,70.8 L 669.5,70.8 L 674.8,70.8 L 680.1,70.8 L 685.4,70.4 L 690.7,69.8 L 696.0,69.6 L 701.3,69.0 L 706.5,68.8 L 711.8,68.6 L 717.1,67.8 L 722.4,67.2 L 727.7,67.0 L 733.0,67.0 L 738.3,65.3 L 743.6,64.7 L 748.8,64.5 L 754.1,64.5 L 759.4,63.5 L 764.7,63.5 L 770.0,62.9 L 770.0,340 Z" fill="url(#g2)" clip-path="url(#ca)"/>
<path d="M 72.0,120.1 L 77.3,120.1 L 82.6,120.1 L 87.9,119.5 L 93.2,119.5 L 98.4,119.1 L 103.7,118.9 L 109.0,119.1 L 114.3,118.6 L 119.6,118.6 L 124.9,118.6 L 130.2,118.6 L 135.5,118.6 L 140.7,118.6 L 146.0,118.6 L 151.3,118.6 L 156.6,118.4 L 161.9,117.8 L 167.2,116.6 L 172.5,116.0 L 177.8,115.8 L 183.0,115.8 L 188.3,115.2 L 193.6,113.8 L 198.9,113.0 L 204.2,113.0 L 209.5,112.1 L 214.8,111.7 L 220.1,110.9 L 225.3,110.3 L 230.6,109.7 L 235.9,109.1 L 241.2,109.1 L 246.5,107.7 L 251.8,106.9 L 257.1,106.9 L 262.4,106.2 L 267.7,105.8 L 272.9,105.6 L 278.2,105.4 L 283.5,105.4 L 288.8,104.8 L 294.1,102.4 L 299.4,101.0 L 304.7,100.3 L 310.0,100.1 L 315.2,99.7 L 320.5,98.9 L 325.8,98.5 L 331.1,98.1 L 336.4,97.7 L 341.7,97.3 L 347.0,96.9 L 352.3,96.9 L 357.5,95.0 L 362.8,95.0 L 368.1,94.8 L 373.4,94.6 L 378.7,94.2 L 384.0,94.2 L 389.3,93.2 L 394.6,92.0 L 399.8,91.6 L 405.1,92.0 L 410.4,91.8 L 415.7,91.6 L 421.0,91.6 L 426.3,91.2 L 431.6,90.4 L 436.9,90.0 L 442.2,89.6 L 447.4,89.4 L 452.7,89.4 L 458.0,88.7 L 463.3,88.3 L 468.6,88.3 L 473.9,86.7 L 479.2,86.7 L 484.5,86.7 L 489.7,86.7 L 495.0,86.5 L 500.3,85.9 L 505.6,85.1 L 510.9,84.7 L 516.2,84.7 L 521.5,84.3 L 526.8,82.8 L 532.0,81.8 L 537.3,81.6 L 542.6,81.4 L 547.9,80.8 L 553.2,79.6 L 558.5,79.2 L 563.8,78.8 L 569.1,77.6 L 574.3,77.4 L 579.6,77.4 L 584.9,77.4 L 590.2,77.3 L 595.5,76.1 L 600.8,75.9 L 606.1,75.7 L 611.4,75.7 L 616.7,75.3 L 621.9,73.7 L 627.2,73.5 L 632.5,73.3 L 637.8,73.3 L 643.1,72.5 L 648.4,72.3 L 653.7,72.1 L 659.0,71.6 L 664.2,70.8 L 669.5,70.8 L 674.8,70.8 L 680.1,70.8 L 685.4,70.4 L 690.7,69.8 L 696.0,69.6 L 701.3,69.0 L 706.5,68.8 L 711.8,68.6 L 717.1,67.8 L 722.4,67.2 L 727.7,67.0 L 733.0,67.0 L 738.3,65.3 L 743.6,64.7 L 748.8,64.5 L 754.1,64.5 L 759.4,63.5 L 764.7,63.5 L 770.0,62.9" fill="none" stroke="#4F8EF7" stroke-width="2.5" stroke-linejoin="round" clip-path="url(#ca)"/>
<path d="M 72.0,340 L 72.0,244.2 L 77.3,243.6 L 82.6,243.6 L 87.9,243.6 L 93.2,243.4 L 98.4,243.0 L 103.7,242.8 L 109.0,242.6 L 114.3,242.6 L 119.6,242.5 L 124.9,242.3 L 130.2,242.3 L 135.5,242.3 L 140.7,242.3 L 146.0,242.3 L 151.3,242.3 L 156.6,241.9 L 161.9,241.9 L 167.2,241.9 L 172.5,241.1 L 177.8,240.9 L 183.0,240.5 L 188.3,239.7 L 193.6,239.5 L 198.9,239.5 L 204.2,239.5 L 209.5,238.9 L 214.8,238.5 L 220.1,238.5 L 225.3,238.1 L 230.6,237.9 L 235.9,237.5 L 241.2,237.5 L 246.5,237.3 L 251.8,236.6 L 257.1,236.0 L 262.4,235.6 L 267.7,235.4 L 272.9,235.4 L 278.2,235.2 L 283.5,234.8 L 288.8,234.8 L 294.1,234.6 L 299.4,234.0 L 304.7,233.6 L 310.0,233.6 L 315.2,233.6 L 320.5,233.6 L 325.8,233.4 L 331.1,232.8 L 336.4,232.4 L 341.7,232.2 L 347.0,232.0 L 352.3,231.8 L 357.5,231.6 L 362.8,231.4 L 368.1,231.2 L 373.4,230.7 L 378.7,230.5 L 384.0,230.3 L 389.3,229.5 L 394.6,228.7 L 399.8,228.7 L 405.1,228.5 L 410.4,228.3 L 415.7,228.3 L 421.0,228.3 L 426.3,227.9 L 431.6,227.9 L 436.9,226.7 L 442.2,226.5 L 447.4,226.3 L 452.7,226.3 L 458.0,225.9 L 463.3,225.7 L 468.6,225.7 L 473.9,225.5 L 479.2,225.5 L 484.5,225.5 L 489.7,225.1 L 495.0,224.9 L 500.3,224.0 L 505.6,224.2 L 510.9,224.0 L 516.2,223.8 L 521.5,223.8 L 526.8,223.6 L 532.0,223.0 L 537.3,223.0 L 542.6,223.0 L 547.9,223.0 L 553.2,222.6 L 558.5,222.6 L 563.8,222.2 L 569.1,221.8 L 574.3,221.0 L 579.6,221.0 L 584.9,220.6 L 590.2,220.4 L 595.5,220.2 L 600.8,220.0 L 606.1,219.6 L 611.4,219.6 L 616.7,219.1 L 621.9,219.1 L 627.2,218.9 L 632.5,218.5 L 637.8,218.3 L 643.1,218.3 L 648.4,218.3 L 653.7,218.3 L 659.0,218.3 L 664.2,217.7 L 669.5,217.7 L 674.8,217.3 L 680.1,216.9 L 685.4,216.3 L 690.7,216.1 L 696.0,216.1 L 701.3,214.9 L 706.5,214.7 L 711.8,214.7 L 717.1,213.9 L 722.4,213.9 L 727.7,213.5 L 733.0,213.5 L 738.3,213.3 L 743.6,213.3 L 748.8,213.2 L 754.1,212.8 L 759.4,212.8 L 764.7,212.6 L 770.0,212.4 L 770.0,340 Z" fill="url(#g3)" clip-path="url(#ca)"/>
<path d="M 72.0,244.2 L 77.3,243.6 L 82.6,243.6 L 87.9,243.6 L 93.2,243.4 L 98.4,243.0 L 103.7,242.8 L 109.0,242.6 L 114.3,242.6 L 119.6,242.5 L 124.9,242.3 L 130.2,242.3 L 135.5,242.3 L 140.7,242.3 L 146.0,242.3 L 151.3,242.3 L 156.6,241.9 L 161.9,241.9 L 167.2,241.9 L 172.5,241.1 L 177.8,240.9 L 183.0,240.5 L 188.3,239.7 L 193.6,239.5 L 198.9,239.5 L 204.2,239.5 L 209.5,238.9 L 214.8,238.5 L 220.1,238.5 L 225.3,238.1 L 230.6,237.9 L 235.9,237.5 L 241.2,237.5 L 246.5,237.3 L 251.8,236.6 L 257.1,236.0 L 262.4,235.6 L 267.7,235.4 L 272.9,235.4 L 278.2,235.2 L 283.5,234.8 L 288.8,234.8 L 294.1,234.6 L 299.4,234.0 L 304.7,233.6 L 310.0,233.6 L 315.2,233.6 L 320.5,233.6 L 325.8,233.4 L 331.1,232.8 L 336.4,232.4 L 341.7,232.2 L 347.0,232.0 L 352.3,231.8 L 357.5,231.6 L 362.8,231.4 L 368.1,231.2 L 373.4,230.7 L 378.7,230.5 L 384.0,230.3 L 389.3,229.5 L 394.6,228.7 L 399.8,228.7 L 405.1,228.5 L 410.4,228.3 L 415.7,228.3 L 421.0,228.3 L 426.3,227.9 L 431.6,227.9 L 436.9,226.7 L 442.2,226.5 L 447.4,226.3 L 452.7,226.3 L 458.0,225.9 L 463.3,225.7 L 468.6,225.7 L 473.9,225.5 L 479.2,225.5 L 484.5,225.5 L 489.7,225.1 L 495.0,224.9 L 500.3,224.0 L 505.6,224.2 L 510.9,224.0 L 516.2,223.8 L 521.5,223.8 L 526.8,223.6 L 532.0,223.0 L 537.3,223.0 L 542.6,223.0 L 547.9,223.0 L 553.2,222.6 L 558.5,222.6 L 563.8,222.2 L 569.1,221.8 L 574.3,221.0 L 579.6,221.0 L 584.9,220.6 L 590.2,220.4 L 595.5,220.2 L 600.8,220.0 L 606.1,219.6 L 611.4,219.6 L 616.7,219.1 L 621.9,219.1 L 627.2,218.9 L 632.5,218.5 L 637.8,218.3 L 643.1,218.3 L 648.4,218.3 L 653.7,218.3 L 659.0,218.3 L 664.2,217.7 L 669.5,217.7 L 674.8,217.3 L 680.1,216.9 L 685.4,216.3 L 690.7,216.1 L 696.0,216.1 L 701.3,214.9 L 706.5,214.7 L 711.8,214.7 L 717.1,213.9 L 722.4,213.9 L 727.7,213.5 L 733.0,213.5 L 738.3,213.3 L 743.6,213.3 L 748.8,213.2 L 754.1,212.8 L 759.4,212.8 L 764.7,212.6 L 770.0,212.4" fill="none" stroke="#BF5AF2" stroke-width="2.5" stroke-linejoin="round" clip-path="url(#ca)"/>
<path d="M 72.0,340 L 72.0,291.4 L 77.3,290.8 L 82.6,290.8 L 87.9,290.8 L 93.2,290.6 L 98.4,290.2 L 103.7,290.0 L 109.0,289.7 L 114.3,289.7 L 119.6,289.5 L 124.9,289.3 L 130.2,289.3 L 135.5,289.3 L 140.7,289.3 L 146.0,289.3 L 151.3,289.3 L 156.6,288.9 L 161.9,288.9 L 167.2,289.1 L 172.5,288.5 L 177.8,288.7 L 183.0,288.1 L 188.3,287.5 L 193.6,287.3 L 198.9,287.5 L 204.2,287.5 L 209.5,286.9 L 214.8,286.7 L 220.1,286.7 L 225.3,286.3 L 230.6,286.1 L 235.9,285.7 L 241.2,285.7 L 246.5,285.5 L 251.8,284.9 L 257.1,284.3 L 262.4,283.9 L 267.7,283.9 L 272.9,283.9 L 278.2,283.8 L 283.5,283.4 L 288.8,283.4 L 294.1,283.2 L 299.4,282.6 L 304.7,282.4 L 310.0,282.4 L 315.2,282.4 L 320.5,282.4 L 325.8,282.2 L 331.1,281.6 L 336.4,281.4 L 341.7,281.2 L 347.0,281.0 L 352.3,281.0 L 357.5,280.8 L 362.8,280.8 L 368.1,280.8 L 373.4,280.2 L 378.7,280.2 L 384.0,280.2 L 389.3,279.8 L 394.6,279.2 L 399.8,279.2 L 405.1,279.0 L 410.4,278.8 L 415.7,278.8 L 421.0,278.8 L 426.3,278.4 L 431.6,278.4 L 436.9,277.3 L 442.2,277.1 L 447.4,276.9 L 452.7,276.9 L 458.0,276.7 L 463.3,276.7 L 468.6,276.7 L 473.9,276.7 L 479.2,276.7 L 484.5,276.7 L 489.7,276.3 L 495.0,276.1 L 500.3,275.1 L 505.6,275.3 L 510.9,275.3 L 516.2,275.1 L 521.5,275.1 L 526.8,275.1 L 532.0,274.7 L 537.3,274.7 L 542.6,274.7 L 547.9,274.7 L 553.2,274.7 L 558.5,274.7 L 563.8,274.5 L 569.1,274.5 L 574.3,273.7 L 579.6,273.7 L 584.9,273.5 L 590.2,273.3 L 595.5,273.1 L 600.8,272.9 L 606.1,272.5 L 611.4,272.5 L 616.7,272.0 L 621.9,272.0 L 627.2,271.8 L 632.5,271.6 L 637.8,271.6 L 643.1,271.6 L 648.4,271.6 L 653.7,271.6 L 659.0,271.6 L 664.2,271.0 L 669.5,271.0 L 674.8,270.6 L 680.1,270.2 L 685.4,269.6 L 690.7,269.4 L 696.0,269.4 L 701.3,268.4 L 706.5,268.2 L 711.8,268.2 L 717.1,267.6 L 722.4,267.6 L 727.7,267.4 L 733.0,267.4 L 738.3,267.6 L 743.6,267.8 L 748.8,267.6 L 754.1,267.2 L 759.4,267.4 L 764.7,267.2 L 770.0,267.0 L 770.0,340 Z" fill="url(#g4)" clip-path="url(#ca)"/>
<path d="M 72.0,291.4 L 77.3,290.8 L 82.6,290.8 L 87.9,290.8 L 93.2,290.6 L 98.4,290.2 L 103.7,290.0 L 109.0,289.7 L 114.3,289.7 L 119.6,289.5 L 124.9,289.3 L 130.2,289.3 L 135.5,289.3 L 140.7,289.3 L 146.0,289.3 L 151.3,289.3 L 156.6,288.9 L 161.9,288.9 L 167.2,289.1 L 172.5,288.5 L 177.8,288.7 L 183.0,288.1 L 188.3,287.5 L 193.6,287.3 L 198.9,287.5 L 204.2,287.5 L 209.5,286.9 L 214.8,286.7 L 220.1,286.7 L 225.3,286.3 L 230.6,286.1 L 235.9,285.7 L 241.2,285.7 L 246.5,285.5 L 251.8,284.9 L 257.1,284.3 L 262.4,283.9 L 267.7,283.9 L 272.9,283.9 L 278.2,283.8 L 283.5,283.4 L 288.8,283.4 L 294.1,283.2 L 299.4,282.6 L 304.7,282.4 L 310.0,282.4 L 315.2,282.4 L 320.5,282.4 L 325.8,282.2 L 331.1,281.6 L 336.4,281.4 L 341.7,281.2 L 347.0,281.0 L 352.3,281.0 L 357.5,280.8 L 362.8,280.8 L 368.1,280.8 L 373.4,280.2 L 378.7,280.2 L 384.0,280.2 L 389.3,279.8 L 394.6,279.2 L 399.8,279.2 L 405.1,279.0 L 410.4,278.8 L 415.7,278.8 L 421.0,278.8 L 426.3,278.4 L 431.6,278.4 L 436.9,277.3 L 442.2,277.1 L 447.4,276.9 L 452.7,276.9 L 458.0,276.7 L 463.3,276.7 L 468.6,276.7 L 473.9,276.7 L 479.2,276.7 L 484.5,276.7 L 489.7,276.3 L 495.0,276.1 L 500.3,275.1 L 505.6,275.3 L 510.9,275.3 L 516.2,275.1 L 521.5,275.1 L 526.8,275.1 L 532.0,274.7 L 537.3,274.7 L 542.6,274.7 L 547.9,274.7 L 553.2,274.7 L 558.5,274.7 L 563.8,274.5 L 569.1,274.5 L 574.3,273.7 L 579.6,273.7 L 584.9,273.5 L 590.2,273.3 L 595.5,273.1 L 600.8,272.9 L 606.1,272.5 L 611.4,272.5 L 616.7,272.0 L 621.9,272.0 L 627.2,271.8 L 632.5,271.6 L 637.8,271.6 L 643.1,271.6 L 648.4,271.6 L 653.7,271.6 L 659.0,271.6 L 664.2,271.0 L 669.5,271.0 L 674.8,270.6 L 680.1,270.2 L 685.4,269.6 L 690.7,269.4 L 696.0,269.4 L 701.3,268.4 L 706.5,268.2 L 711.8,268.2 L 717.1,267.6 L 722.4,267.6 L 727.7,267.4 L 733.0,267.4 L 738.3,267.6 L 743.6,267.8 L 748.8,267.6 L 754.1,267.2 L 759.4,267.4 L 764.7,267.2 L 770.0,267.0" fill="none" stroke="#34C759" stroke-width="2.5" stroke-linejoin="round" clip-path="url(#ca)"/>
<text x="101.1" y="55.0" text-anchor="middle" font-size="9" fill="#4F8EF7" opacity="0.85" clip-path="url(#ca)">+0.5% (+8)</text>
<text x="101.1" y="66.0" text-anchor="middle" font-size="9" fill="#BF5AF2" opacity="0.85" clip-path="url(#ca)">+1.0% (+10)</text>
<text x="101.1" y="77.0" text-anchor="middle" font-size="9" fill="#34C759" opacity="0.85" clip-path="url(#ca)">+1.5% (+11)</text>
<text x="201.6" y="55.0" text-anchor="middle" font-size="9" fill="#4F8EF7" opacity="0.85" clip-path="url(#ca)">+4.0% (+65)</text>
<text x="201.6" y="66.0" text-anchor="middle" font-size="9" fill="#BF5AF2" opacity="0.85" clip-path="url(#ca)">+3.5% (+35)</text>
<text x="201.6" y="77.0" text-anchor="middle" font-size="9" fill="#34C759" opacity="0.85" clip-path="url(#ca)">+3.6% (+27)</text>
<text x="341.7" y="55.0" text-anchor="middle" font-size="9" fill="#4F8EF7" opacity="0.85" clip-path="url(#ca)">+4.1% (+70)</text>
<text x="341.7" y="66.0" text-anchor="middle" font-size="9" fill="#BF5AF2" opacity="0.85" clip-path="url(#ca)">+3.5% (+36)</text>
<text x="341.7" y="77.0" text-anchor="middle" font-size="9" fill="#34C759" opacity="0.85" clip-path="url(#ca)">+3.3% (+26)</text>
<text x="484.5" y="55.0" text-anchor="middle" font-size="9" fill="#4F8EF7" opacity="0.85" clip-path="url(#ca)">+3.5% (+61)</text>
<text x="484.5" y="66.0" text-anchor="middle" font-size="9" fill="#BF5AF2" opacity="0.85" clip-path="url(#ca)">+2.7% (+29)</text>
<text x="484.5" y="77.0" text-anchor="middle" font-size="9" fill="#34C759" opacity="0.85" clip-path="url(#ca)">+2.6% (+21)</text>
<text x="627.2" y="55.0" text-anchor="middle" font-size="9" fill="#4F8EF7" opacity="0.85" clip-path="url(#ca)">+2.7% (+49)</text>
<text x="627.2" y="66.0" text-anchor="middle" font-size="9" fill="#BF5AF2" opacity="0.85" clip-path="url(#ca)">+3.0% (+33)</text>
<text x="627.2" y="77.0" text-anchor="middle" font-size="9" fill="#34C759" opacity="0.85" clip-path="url(#ca)">+3.2% (+27)</text>
<text x="735.6" y="55.0" text-anchor="middle" font-size="9" fill="#4F8EF7" opacity="0.85" clip-path="url(#ca)">+1.7% (+31)</text>
<text x="735.6" y="66.0" text-anchor="middle" font-size="9" fill="#BF5AF2" opacity="0.85" clip-path="url(#ca)">+1.1% (+13)</text>
<text x="735.6" y="77.0" text-anchor="middle" font-size="9" fill="#34C759" opacity="0.85" clip-path="url(#ca)">+0.8% (+7)</text>
<rect x="211" y="369" width="12" height="12" fill="#4F8EF7" rx="2"/>
<text x="227" y="379" font-size="12" fill="#111827">Authors</text>
<rect x="351" y="369" width="12" height="12" fill="#BF5AF2" rx="2"/>
<text x="367" y="379" font-size="12" fill="#111827">Contributors</text>
<rect x="491" y="369" width="12" height="12" fill="#34C759" rx="2"/>
<text x="507" y="379" font-size="12" fill="#111827">Non-author contributors</text>
<text x="72" y="394" font-size="8" fill="#e5e7eb">data since Dec 11, 2025</text>
</svg>