<svg xmlns="http://www.w3.org/2000/svg" width="800" height="400" viewBox="0 0 800 400">
<defs><style>text { font-family: -apple-system, BlinkMacSystemFont, 'Segoe UI', Roboto, sans-serif; }</style></defs>
<rect width="800" height="400" fill="#ffffff" rx="12"/>
<text x="400" y="26" text-anchor="middle" font-size="15" font-weight="600" fill="#111827">Packages by Last Updated Quarter</text>
<text x="400" y="44" text-anchor="middle" font-size="11" fill="#6b7280">last updated at · 3,300 packages with a known last-update date</text>
<line x1="60" y1="58" x2="60" y2="320" stroke="#e5e7eb" stroke-width="1"/>
<line x1="60" y1="320" x2="770" y2="320" stroke="#e5e7eb" stroke-width="1"/>
<text x="-189" y="18" text-anchor="middle" font-size="12" fill="#6b7280" transform="rotate(-90)">Number of packages</text>
<line x1="60" y1="320.0" x2="770" y2="320.0" stroke="#f3f4f6" stroke-width="1"/>
<text x="54" y="324.0" text-anchor="end" font-size="11" fill="#6b7280">0</text>
<line x1="60" y1="267.7" x2="770" y2="267.7" stroke="#f3f4f6" stroke-width="1"/>
<text x="54" y="271.7" text-anchor="end" font-size="11" fill="#6b7280">141</text>
<line x1="60" y1="215.1" x2="770" y2="215.1" stroke="#f3f4f6" stroke-width="1"/>
<text x="54" y="219.1" text-anchor="end" font-size="11" fill="#6b7280">283</text>
<line x1="60" y1="162.9" x2="770" y2="162.9" stroke="#f3f4f6" stroke-width="1"/>
<text x="54" y="166.9" text-anchor="end" font-size="11" fill="#6b7280">424</text>
<line x1="60" y1="110.3" x2="770" y2="110.3" stroke="#f3f4f6" stroke-width="1"/>
<text x="54" y="114.3" text-anchor="end" font-size="11" fill="#6b7280">566</text>
<line x1="60" y1="58.0" x2="770" y2="58.0" stroke="#f3f4f6" stroke-width="1"/>
<text x="54" y="62.0" text-anchor="end" font-size="11" fill="#6b7280">707</text>
<rect x="66.2" y="315.6" width="23.1" height="4.4" fill="#34C759" rx="3" opacity="0.85"/>
<text x="77.8" y="299.6" text-anchor="middle" font-size="10" fill="#6b7280">12</text>
<text x="77.8" y="311.6" text-anchor="middle" font-size="10" fill="#6b7280">(0.36%)</text>
<g transform="translate(77.8,330.0) rotate(-45)"><text text-anchor="end" font-size="10" fill="#111827">2021-Q4</text></g>
<rect x="101.7" y="310.4" width="23.1" height="9.6" fill="#34C759" rx="3" opacity="0.85"/>
<text x="113.3" y="294.4" text-anchor="middle" font-size="10" fill="#6b7280">26</text>
<text x="113.3" y="306.4" text-anchor="middle" font-size="10" fill="#6b7280">(0.79%)</text>
<g transform="translate(113.3,330.0) rotate(-45)"><text text-anchor="end" font-size="10" fill="#111827">2022-Q1</text></g>
<rect x="137.2" y="307.8" width="23.1" height="12.2" fill="#34C759" rx="3" opacity="0.85"/>
<text x="148.8" y="291.8" text-anchor="middle" font-size="10" fill="#6b7280">33</text>
<text x="148.8" y="303.8" text-anchor="middle" font-size="10" fill="#6b7280">(1.00%)</text>
<g transform="translate(148.8,330.0) rotate(-45)"><text text-anchor="end" font-size="10" fill="#111827">2022-Q2</text></g>
<rect x="172.7" y="306.7" width="23.1" height="13.3" fill="#34C759" rx="3" opacity="0.85"/>
<text x="184.3" y="290.7" text-anchor="middle" font-size="10" fill="#6b7280">36</text>
<text x="184.3" y="302.7" text-anchor="middle" font-size="10" fill="#6b7280">(1.09%)</text>
<g transform="translate(184.3,330.0) rotate(-45)"><text text-anchor="end" font-size="10" fill="#111827">2022-Q3</text></g>
<rect x="208.2" y="297.0" width="23.1" height="23.0" fill="#34C759" rx="3" opacity="0.85"/>
<text x="219.8" y="281.0" text-anchor="middle" font-size="10" fill="#6b7280">62</text>
<text x="219.8" y="293.0" text-anchor="middle" font-size="10" fill="#6b7280">(1.88%)</text>
<g transform="translate(219.8,330.0) rotate(-45)"><text text-anchor="end" font-size="10" fill="#111827">2022-Q4</text></g>
<rect x="243.7" y="288.1" width="23.1" height="31.9" fill="#34C759" rx="3" opacity="0.85"/>
<text x="255.3" y="272.1" text-anchor="middle" font-size="10" fill="#6b7280">86</text>
<text x="255.3" y="284.1" text-anchor="middle" font-size="10" fill="#6b7280">(2.61%)</text>
<g transform="translate(255.3,330.0) rotate(-45)"><text text-anchor="end" font-size="10" fill="#111827">2023-Q1</text></g>
<rect x="279.2" y="288.1" width="23.1" height="31.9" fill="#34C759" rx="3" opacity="0.85"/>
<text x="290.8" y="272.1" text-anchor="middle" font-size="10" fill="#6b7280">86</text>
<text x="290.8" y="284.1" text-anchor="middle" font-size="10" fill="#6b7280">(2.61%)</text>
<g transform="translate(290.8,330.0) rotate(-45)"><text text-anchor="end" font-size="10" fill="#111827">2023-Q2</text></g>
<rect x="314.7" y="291.8" width="23.1" height="28.2" fill="#34C759" rx="3" opacity="0.85"/>
<text x="326.3" y="275.8" text-anchor="middle" font-size="10" fill="#6b7280">76</text>
<text x="326.3" y="287.8" text-anchor="middle" font-size="10" fill="#6b7280">(2.30%)</text>
<g transform="translate(326.3,330.0) rotate(-45)"><text text-anchor="end" font-size="10" fill="#111827">2023-Q3</text></g>
<rect x="350.2" y="298.9" width="23.1" height="21.1" fill="#34C759" rx="3" opacity="0.85"/>
<text x="361.8" y="282.9" text-anchor="middle" font-size="10" fill="#6b7280">57</text>
<text x="361.8" y="294.9" text-anchor="middle" font-size="10" fill="#6b7280">(1.73%)</text>
<g transform="translate(361.8,330.0) rotate(-45)"><text text-anchor="end" font-size="10" fill="#111827">2023-Q4</text></g>
<rect x="385.7" y="281.5" width="23.1" height="38.5" fill="#34C759" rx="3" opacity="0.85"/>
<text x="397.3" y="265.5" text-anchor="middle" font-size="10" fill="#6b7280">104</text>
<text x="397.3" y="277.5" text-anchor="middle" font-size="10" fill="#6b7280">(3.15%)</text>
<g transform="translate(397.3,330.0) rotate(-45)"><text text-anchor="end" font-size="10" fill="#111827">2024-Q1</text></g>
<rect x="421.2" y="276.6" width="23.1" height="43.4" fill="#34C759" rx="3" opacity="0.85"/>
<text x="432.8" y="260.6" text-anchor="middle" font-size="10" fill="#6b7280">117</text>
<text x="432.8" y="272.6" text-anchor="middle" font-size="10" fill="#6b7280">(3.55%)</text>
<g transform="translate(432.8,330.0) rotate(-45)"><text text-anchor="end" font-size="10" fill="#111827">2024-Q2</text></g>
<rect x="456.7" y="278.5" width="23.1" height="41.5" fill="#34C759" rx="3" opacity="0.85"/>
<text x="468.3" y="262.5" text-anchor="middle" font-size="10" fill="#6b7280">112</text>
<text x="468.3" y="274.5" text-anchor="middle" font-size="10" fill="#6b7280">(3.39%)</text>
<g transform="translate(468.3,330.0) rotate(-45)"><text text-anchor="end" font-size="10" fill="#111827">2024-Q3</text></g>
<rect x="492.2" y="281.1" width="23.1" height="38.9" fill="#34C759" rx="3" opacity="0.85"/>
<text x="503.8" y="265.1" text-anchor="middle" font-size="10" fill="#6b7280">105</text>
<text x="503.8" y="277.1" text-anchor="middle" font-size="10" fill="#6b7280">(3.18%)</text>
<g transform="translate(503.8,330.0) rotate(-45)"><text text-anchor="end" font-size="10" fill="#111827">2024-Q4</text></g>
<rect x="527.7" y="255.5" width="23.1" height="64.5" fill="#34C759" rx="3" opacity="0.85"/>
<text x="539.3" y="239.5" text-anchor="middle" font-size="10" fill="#6b7280">174</text>
<text x="539.3" y="251.5" text-anchor="middle" font-size="10" fill="#6b7280">(5.27%)</text>
<g transform="translate(539.3,330.0) rotate(-45)"><text text-anchor="end" font-size="10" fill="#111827">2025-Q1</text></g>
<rect x="563.2" y="257.0" width="23.1" height="63.0" fill="#34C759" rx="3" opacity="0.85"/>
<text x="574.8" y="241.0" text-anchor="middle" font-size="10" fill="#6b7280">170</text>
<text x="574.8" y="253.0" text-anchor="middle" font-size="10" fill="#6b7280">(5.15%)</text>
<g transform="translate(574.8,330.0) rotate(-45)"><text text-anchor="end" font-size="10" fill="#111827">2025-Q2</text></g>
<rect x="598.7" y="252.6" width="23.1" height="67.4" fill="#34C759" rx="3" opacity="0.85"/>
<text x="610.3" y="236.6" text-anchor="middle" font-size="10" fill="#6b7280">182</text>
<text x="610.3" y="248.6" text-anchor="middle" font-size="10" fill="#6b7280">(5.52%)</text>
<g transform="translate(610.3,330.0) rotate(-45)"><text text-anchor="end" font-size="10" fill="#111827">2025-Q3</text></g>
<rect x="634.2" y="231.1" width="23.1" height="88.9" fill="#34C759" rx="3" opacity="0.85"/>
<text x="645.8" y="215.1" text-anchor="middle" font-size="10" fill="#6b7280">240</text>
<text x="645.8" y="227.1" text-anchor="middle" font-size="10" fill="#6b7280">(7.27%)</text>
<g transform="translate(645.8,330.0) rotate(-45)"><text text-anchor="end" font-size="10" fill="#111827">2025-Q4</text></g>
<rect x="669.7" y="155.1" width="23.1" height="164.9" fill="#34C759" rx="3" opacity="0.85"/>
<text x="681.3" y="139.1" text-anchor="middle" font-size="10" fill="#6b7280">445</text>
<text x="681.3" y="151.1" text-anchor="middle" font-size="10" fill="#6b7280">(13.48%)</text>
<g transform="translate(681.3,330.0) rotate(-45)"><text text-anchor="end" font-size="10" fill="#111827">2026-Q1</text></g>
<rect x="705.2" y="145.8" width="23.1" height="174.2" fill="#34C759" rx="3" opacity="0.85"/>
<text x="716.8" y="129.8" text-anchor="middle" font-size="10" fill="#6b7280">470</text>
<text x="716.8" y="141.8" text-anchor="middle" font-size="10" fill="#6b7280">(14.24%)</text>
<g transform="translate(716.8,330.0) rotate(-45)"><text text-anchor="end" font-size="10" fill="#111827">2026-Q2</text></g>
<rect x="740.7" y="58.0" width="23.1" height="262.0" fill="#34C759" rx="3" opacity="0.85"/>
<text x="752.3" y="72.0" text-anchor="middle" font-size="10" fill="#6b7280">707</text>
<text x="752.3" y="84.0" text-anchor="middle" font-size="10" fill="#6b7280">(21.42%)</text>
<g transform="translate(752.3,330.0) rotate(-45)"><text text-anchor="end" font-size="10" fill="#111827">2026-Q3</text></g>
</svg>