<svg xmlns="http://www.w3.org/2000/svg" width="800" height="400" viewBox="0 0 800 400">
<defs>
  <style>text { font-family: -apple-system, BlinkMacSystemFont, 'Segoe UI', Roboto, sans-serif; }</style>
  <linearGradient id="g1" x1="0" y1="0" x2="0" y2="1">
  <stop offset="0%" stop-color="#FF6363" stop-opacity="0.25"/>
  <stop offset="100%" stop-color="#FF6363" stop-opacity="0"/>
</linearGradient>
  <clipPath id="ca"><rect x="72" y="45" width="698" height="295"/></clipPath>
</defs>
<rect width="800" height="400" fill="#ffffff" rx="12"/>
<text x="400" y="26" text-anchor="middle" font-size="15" font-weight="600" fill="#111827">Packages Growth Over Time</text>
<line x1="72" y1="340.0" x2="770" y2="340.0" stroke="#f3f4f6" stroke-width="1"/>
<text x="66" y="344.0" text-anchor="end" font-size="11" fill="#6b7280">2.4k</text>
<line x1="72" y1="290.8" x2="770" y2="290.8" stroke="#f3f4f6" stroke-width="1"/>
<text x="66" y="294.8" text-anchor="end" font-size="11" fill="#6b7280">2.5k</text>
<line x1="72" y1="241.7" x2="770" y2="241.7" stroke="#f3f4f6" stroke-width="1"/>
<text x="66" y="245.7" text-anchor="end" font-size="11" fill="#6b7280">2.6k</text>
<line x1="72" y1="192.5" x2="770" y2="192.5" stroke="#f3f4f6" stroke-width="1"/>
<text x="66" y="196.5" text-anchor="end" font-size="11" fill="#6b7280">2.7k</text>
<line x1="72" y1="143.3" x2="770" y2="143.3" stroke="#f3f4f6" stroke-width="1"/>
<text x="66" y="147.3" text-anchor="end" font-size="11" fill="#6b7280">2.8k</text>
<line x1="72" y1="94.2" x2="770" y2="94.2" stroke="#f3f4f6" stroke-width="1"/>
<text x="66" y="98.2" text-anchor="end" font-size="11" fill="#6b7280">2.9k</text>
<line x1="72" y1="45.0" x2="770" y2="45.0" stroke="#f3f4f6" stroke-width="1"/>
<text x="66" y="49.0" text-anchor="end" font-size="11" fill="#6b7280">3.0k</text>
<line x1="138.5" y1="45" x2="138.5" y2="340" stroke="#e5e7eb" stroke-width="1" stroke-dasharray="3,3" clip-path="url(#ca)"/>
<line x1="282.5" y1="45" x2="282.5" y2="340" stroke="#e5e7eb" stroke-width="1" stroke-dasharray="3,3" clip-path="url(#ca)"/>
<line x1="432.1" y1="45" x2="432.1" y2="340" stroke="#e5e7eb" stroke-width="1" stroke-dasharray="3,3" clip-path="url(#ca)"/>
<line x1="581.7" y1="45" x2="581.7" y2="340" stroke="#e5e7eb" stroke-width="1" stroke-dasharray="3,3" clip-path="url(#ca)"/>
<line x1="731.2" y1="45" x2="731.2" y2="340" stroke="#e5e7eb" stroke-width="1" stroke-dasharray="3,3" clip-path="url(#ca)"/>
<text x="72.0" y="358.0" text-anchor="middle" font-size="11" fill="#6b7280">Dec 11</text>
<text x="210.5" y="358.0" text-anchor="middle" font-size="11" fill="#6b7280">Jan 18</text>
<text x="349.0" y="358.0" text-anchor="middle" font-size="11" fill="#6b7280">Feb 13</text>
<text x="493.0" y="358.0" text-anchor="middle" font-size="11" fill="#6b7280">Mar 13</text>
<text x="631.5" y="358.0" text-anchor="middle" font-size="11" fill="#6b7280">Apr 11</text>
<text x="770.0" y="358.0" text-anchor="middle" font-size="11" fill="#6b7280">May 12</text>
<line x1="72" y1="45" x2="72" y2="340" stroke="#e5e7eb" stroke-width="1"/>
<line x1="72" y1="340" x2="770" y2="340" stroke="#e5e7eb" stroke-width="1"/>
<text x="-192.5" y="18" text-anchor="middle" font-size="12" fill="#6b7280" transform="rotate(-90)">Extensions</text>
<path d="M 72.0,340 L 72.0,302.1 L 77.5,301.6 L 83.1,301.6 L 88.6,300.2 L 94.2,300.2 L 99.7,299.2 L 105.2,298.2 L 110.8,297.7 L 116.3,295.3 L 121.9,293.3 L 127.4,293.3 L 132.9,293.3 L 138.5,293.3 L 144.0,292.3 L 149.6,292.3 L 155.1,292.3 L 160.6,291.3 L 166.2,289.4 L 171.7,285.9 L 177.3,283.5 L 182.8,282.5 L 188.3,282.0 L 193.9,280.0 L 199.4,274.1 L 205.0,272.1 L 210.5,272.1 L 216.0,267.2 L 221.6,265.8 L 227.1,263.8 L 232.7,262.3 L 238.2,259.4 L 243.7,256.9 L 249.3,256.4 L 254.8,252.5 L 260.3,249.0 L 265.9,249.0 L 271.4,246.6 L 277.0,244.6 L 282.5,244.1 L 288.0,243.6 L 293.6,243.1 L 299.1,241.7 L 304.7,232.8 L 310.2,228.9 L 315.7,226.9 L 321.3,225.9 L 326.8,224.5 L 332.4,221.0 L 337.9,220.0 L 343.4,219.1 L 349.0,216.1 L 354.5,215.1 L 360.1,214.1 L 365.6,214.1 L 371.1,205.3 L 376.7,204.3 L 382.2,203.3 L 387.8,201.3 L 393.3,198.9 L 398.8,198.9 L 404.4,195.0 L 409.9,188.6 L 415.5,187.6 L 421.0,188.1 L 426.5,186.6 L 432.1,186.1 L 437.6,186.1 L 443.2,183.2 L 448.7,180.7 L 454.2,178.7 L 459.8,176.3 L 465.3,175.8 L 470.9,175.8 L 476.4,172.3 L 481.9,171.4 L 487.5,170.9 L 493.0,165.0 L 498.6,164.5 L 504.1,164.5 L 509.6,164.5 L 515.2,164.0 L 520.7,161.5 L 526.3,159.6 L 531.8,157.1 L 537.3,156.6 L 542.9,155.1 L 548.4,150.7 L 554.0,146.8 L 559.5,146.3 L 565.0,145.8 L 570.6,144.3 L 576.1,139.4 L 581.7,138.4 L 587.2,136.9 L 592.7,134.0 L 598.3,133.5 L 603.8,133.0 L 609.3,133.0 L 614.9,132.0 L 620.4,129.1 L 626.0,128.1 L 631.5,127.1 L 637.0,126.6 L 642.6,125.6 L 648.1,120.7 L 653.7,120.2 L 659.2,119.2 L 664.7,118.8 L 670.3,116.3 L 675.8,115.8 L 681.4,115.3 L 686.9,113.8 L 692.4,111.9 L 698.0,111.9 L 703.5,111.9 L 709.1,111.9 L 714.6,110.9 L 720.1,108.4 L 725.7,107.9 L 731.2,105.5 L 736.8,105.0 L 742.3,104.5 L 747.8,101.5 L 753.4,98.6 L 758.9,98.1 L 764.5,97.6 L 770.0,91.2 L 770.0,340 Z" fill="url(#g1)" clip-path="url(#ca)"/>
<path d="M 72.0,302.1 L 77.5,301.6 L 83.1,301.6 L 88.6,300.2 L 94.2,300.2 L 99.7,299.2 L 105.2,298.2 L 110.8,297.7 L 116.3,295.3 L 121.9,293.3 L 127.4,293.3 L 132.9,293.3 L 138.5,293.3 L 144.0,292.3 L 149.6,292.3 L 155.1,292.3 L 160.6,291.3 L 166.2,289.4 L 171.7,285.9 L 177.3,283.5 L 182.8,282.5 L 188.3,282.0 L 193.9,280.0 L 199.4,274.1 L 205.0,272.1 L 210.5,272.1 L 216.0,267.2 L 221.6,265.8 L 227.1,263.8 L 232.7,262.3 L 238.2,259.4 L 243.7,256.9 L 249.3,256.4 L 254.8,252.5 L 260.3,249.0 L 265.9,249.0 L 271.4,246.6 L 277.0,244.6 L 282.5,244.1 L 288.0,243.6 L 293.6,243.1 L 299.1,241.7 L 304.7,232.8 L 310.2,228.9 L 315.7,226.9 L 321.3,225.9 L 326.8,224.5 L 332.4,221.0 L 337.9,220.0 L 343.4,219.1 L 349.0,216.1 L 354.5,215.1 L 360.1,214.1 L 365.6,214.1 L 371.1,205.3 L 376.7,204.3 L 382.2,203.3 L 387.8,201.3 L 393.3,198.9 L 398.8,198.9 L 404.4,195.0 L 409.9,188.6 L 415.5,187.6 L 421.0,188.1 L 426.5,186.6 L 432.1,186.1 L 437.6,186.1 L 443.2,183.2 L 448.7,180.7 L 454.2,178.7 L 459.8,176.3 L 465.3,175.8 L 470.9,175.8 L 476.4,172.3 L 481.9,171.4 L 487.5,170.9 L 493.0,165.0 L 498.6,164.5 L 504.1,164.5 L 509.6,164.5 L 515.2,164.0 L 520.7,161.5 L 526.3,159.6 L 531.8,157.1 L 537.3,156.6 L 542.9,155.1 L 548.4,150.7 L 554.0,146.8 L 559.5,146.3 L 565.0,145.8 L 570.6,144.3 L 576.1,139.4 L 581.7,138.4 L 587.2,136.9 L 592.7,134.0 L 598.3,133.5 L 603.8,133.0 L 609.3,133.0 L 614.9,132.0 L 620.4,129.1 L 626.0,128.1 L 631.5,127.1 L 637.0,126.6 L 642.6,125.6 L 648.1,120.7 L 653.7,120.2 L 659.2,119.2 L 664.7,118.8 L 670.3,116.3 L 675.8,115.8 L 681.4,115.3 L 686.9,113.8 L 692.4,111.9 L 698.0,111.9 L 703.5,111.9 L 709.1,111.9 L 714.6,110.9 L 720.1,108.4 L 725.7,107.9 L 731.2,105.5 L 736.8,105.0 L 742.3,104.5 L 747.8,101.5 L 753.4,98.6 L 758.9,98.1 L 764.5,97.6 L 770.0,91.2" fill="none" stroke="#FF6363" stroke-width="2.5" stroke-linejoin="round" clip-path="url(#ca)"/>
<text x="102.5" y="55.0" text-anchor="middle" font-size="9" fill="#FF6363" opacity="0.85" clip-path="url(#ca)">+0.7% (+18)</text>
<text x="207.7" y="55.0" text-anchor="middle" font-size="9" fill="#FF6363" opacity="0.85" clip-path="url(#ca)">+4.0% (+99)</text>
<text x="354.5" y="55.0" text-anchor="middle" font-size="9" fill="#FF6363" opacity="0.85" clip-path="url(#ca)">+4.5% (+117)</text>
<text x="504.1" y="55.0" text-anchor="middle" font-size="9" fill="#FF6363" opacity="0.85" clip-path="url(#ca)">+3.5% (+95)</text>
<text x="653.7" y="55.0" text-anchor="middle" font-size="9" fill="#FF6363" opacity="0.85" clip-path="url(#ca)">+2.2% (+62)</text>
<text x="750.6" y="55.0" text-anchor="middle" font-size="9" fill="#FF6363" opacity="0.85" clip-path="url(#ca)">+1.0% (+29)</text>
<rect x="351" y="369" width="12" height="12" fill="#FF6363" rx="2"/>
<text x="367" y="379" font-size="12" fill="#111827">Extensions</text>
<text x="72" y="394" font-size="8" fill="#e5e7eb">data since Dec 11, 2025</text>
</svg>