<svg xmlns="http://www.w3.org/2000/svg" width="800" height="400" viewBox="0 0 800 400">
<defs>
  <style>text { font-family: -apple-system, BlinkMacSystemFont, 'Segoe UI', Roboto, sans-serif; }</style>
  <linearGradient id="g1" x1="0" y1="0" x2="0" y2="1">
  <stop offset="0%" stop-color="#FF6363" stop-opacity="0.25"/>
  <stop offset="100%" stop-color="#FF6363" stop-opacity="0"/>
</linearGradient>
  <clipPath id="ca"><rect x="72" y="45" width="698" height="295"/></clipPath>
</defs>
<rect width="800" height="400" fill="#ffffff" rx="12"/>
<text x="400" y="26" text-anchor="middle" font-size="15" font-weight="600" fill="#111827">Packages Growth Over Time</text>
<line x1="72" y1="340.0" x2="770" y2="340.0" stroke="#f3f4f6" stroke-width="1"/>
<text x="66" y="344.0" text-anchor="end" font-size="11" fill="#6b7280">2.4k</text>
<line x1="72" y1="281.0" x2="770" y2="281.0" stroke="#f3f4f6" stroke-width="1"/>
<text x="66" y="285.0" text-anchor="end" font-size="11" fill="#6b7280">2.5k</text>
<line x1="72" y1="222.0" x2="770" y2="222.0" stroke="#f3f4f6" stroke-width="1"/>
<text x="66" y="226.0" text-anchor="end" font-size="11" fill="#6b7280">2.6k</text>
<line x1="72" y1="163.0" x2="770" y2="163.0" stroke="#f3f4f6" stroke-width="1"/>
<text x="66" y="167.0" text-anchor="end" font-size="11" fill="#6b7280">2.7k</text>
<line x1="72" y1="104.0" x2="770" y2="104.0" stroke="#f3f4f6" stroke-width="1"/>
<text x="66" y="108.0" text-anchor="end" font-size="11" fill="#6b7280">2.8k</text>
<line x1="72" y1="45.0" x2="770" y2="45.0" stroke="#f3f4f6" stroke-width="1"/>
<text x="66" y="49.0" text-anchor="end" font-size="11" fill="#6b7280">2.9k</text>
<line x1="139.5" y1="45" x2="139.5" y2="340" stroke="#e5e7eb" stroke-width="1" stroke-dasharray="3,3" clip-path="url(#ca)"/>
<line x1="285.9" y1="45" x2="285.9" y2="340" stroke="#e5e7eb" stroke-width="1" stroke-dasharray="3,3" clip-path="url(#ca)"/>
<line x1="437.9" y1="45" x2="437.9" y2="340" stroke="#e5e7eb" stroke-width="1" stroke-dasharray="3,3" clip-path="url(#ca)"/>
<line x1="589.9" y1="45" x2="589.9" y2="340" stroke="#e5e7eb" stroke-width="1" stroke-dasharray="3,3" clip-path="url(#ca)"/>
<line x1="741.9" y1="45" x2="741.9" y2="340" stroke="#e5e7eb" stroke-width="1" stroke-dasharray="3,3" clip-path="url(#ca)"/>
<text x="72.0" y="358.0" text-anchor="middle" font-size="11" fill="#6b7280">Dec 11</text>
<text x="212.7" y="358.0" text-anchor="middle" font-size="11" fill="#6b7280">Jan 18</text>
<text x="353.5" y="358.0" text-anchor="middle" font-size="11" fill="#6b7280">Feb 13</text>
<text x="488.5" y="358.0" text-anchor="middle" font-size="11" fill="#6b7280">Mar 11</text>
<text x="629.3" y="358.0" text-anchor="middle" font-size="11" fill="#6b7280">Apr 9</text>
<text x="770.0" y="358.0" text-anchor="middle" font-size="11" fill="#6b7280">May 8</text>
<line x1="72" y1="45" x2="72" y2="340" stroke="#e5e7eb" stroke-width="1"/>
<line x1="72" y1="340" x2="770" y2="340" stroke="#e5e7eb" stroke-width="1"/>
<text x="-192.5" y="18" text-anchor="middle" font-size="12" fill="#6b7280" transform="rotate(-90)">Extensions</text>
<path d="M 72.0,340 L 72.0,294.6 L 77.6,294.0 L 83.3,294.0 L 88.9,292.2 L 94.5,292.2 L 100.1,291.0 L 105.8,289.9 L 111.4,289.3 L 117.0,286.3 L 122.7,283.9 L 128.3,283.9 L 133.9,283.9 L 139.5,283.9 L 145.2,282.8 L 150.8,282.8 L 156.4,282.8 L 162.1,281.6 L 167.7,279.2 L 173.3,275.1 L 179.0,272.1 L 184.6,271.0 L 190.2,270.4 L 195.8,268.0 L 201.5,260.9 L 207.1,258.6 L 212.7,258.6 L 218.4,252.7 L 224.0,250.9 L 229.6,248.6 L 235.2,246.8 L 240.9,243.2 L 246.5,240.3 L 252.1,239.7 L 257.8,235.0 L 263.4,230.8 L 269.0,230.8 L 274.6,227.9 L 280.3,225.5 L 285.9,224.9 L 291.5,224.4 L 297.2,223.8 L 302.8,222.0 L 308.4,211.4 L 314.0,206.7 L 319.7,204.3 L 325.3,203.1 L 330.9,201.3 L 336.6,197.2 L 342.2,196.0 L 347.8,194.9 L 353.5,191.3 L 359.1,190.1 L 364.7,189.0 L 370.3,189.0 L 376.0,178.3 L 381.6,177.2 L 387.2,176.0 L 392.9,173.6 L 398.5,170.7 L 404.1,170.7 L 409.7,166.0 L 415.4,158.3 L 421.0,157.1 L 426.6,157.7 L 432.3,155.9 L 437.9,155.3 L 443.5,155.3 L 449.1,151.8 L 454.8,148.8 L 460.4,146.5 L 466.0,143.5 L 471.7,142.9 L 477.3,142.9 L 482.9,138.8 L 488.5,137.6 L 494.2,137.0 L 499.8,130.0 L 505.4,129.4 L 511.1,129.4 L 516.7,129.4 L 522.3,128.8 L 528.0,125.8 L 533.6,123.5 L 539.2,120.5 L 544.8,119.9 L 550.5,118.2 L 556.1,112.8 L 561.7,108.1 L 567.4,107.5 L 573.0,106.9 L 578.6,105.2 L 584.2,99.3 L 589.9,98.1 L 595.5,96.3 L 601.1,92.8 L 606.8,92.2 L 612.4,91.6 L 618.0,91.6 L 623.6,90.4 L 629.3,86.9 L 634.9,85.7 L 640.5,84.5 L 646.2,83.9 L 651.8,82.8 L 657.4,76.9 L 663.0,76.3 L 668.7,75.1 L 674.3,74.5 L 679.9,71.6 L 685.6,71.0 L 691.2,70.4 L 696.8,68.6 L 702.5,66.2 L 708.1,66.2 L 713.7,66.2 L 719.3,66.2 L 725.0,65.1 L 730.6,62.1 L 736.2,61.5 L 741.9,58.6 L 747.5,58.0 L 753.1,57.4 L 758.7,53.9 L 764.4,50.3 L 770.0,49.7 L 770.0,340 Z" fill="url(#g1)" clip-path="url(#ca)"/>
<path d="M 72.0,294.6 L 77.6,294.0 L 83.3,294.0 L 88.9,292.2 L 94.5,292.2 L 100.1,291.0 L 105.8,289.9 L 111.4,289.3 L 117.0,286.3 L 122.7,283.9 L 128.3,283.9 L 133.9,283.9 L 139.5,283.9 L 145.2,282.8 L 150.8,282.8 L 156.4,282.8 L 162.1,281.6 L 167.7,279.2 L 173.3,275.1 L 179.0,272.1 L 184.6,271.0 L 190.2,270.4 L 195.8,268.0 L 201.5,260.9 L 207.1,258.6 L 212.7,258.6 L 218.4,252.7 L 224.0,250.9 L 229.6,248.6 L 235.2,246.8 L 240.9,243.2 L 246.5,240.3 L 252.1,239.7 L 257.8,235.0 L 263.4,230.8 L 269.0,230.8 L 274.6,227.9 L 280.3,225.5 L 285.9,224.9 L 291.5,224.4 L 297.2,223.8 L 302.8,222.0 L 308.4,211.4 L 314.0,206.7 L 319.7,204.3 L 325.3,203.1 L 330.9,201.3 L 336.6,197.2 L 342.2,196.0 L 347.8,194.9 L 353.5,191.3 L 359.1,190.1 L 364.7,189.0 L 370.3,189.0 L 376.0,178.3 L 381.6,177.2 L 387.2,176.0 L 392.9,173.6 L 398.5,170.7 L 404.1,170.7 L 409.7,166.0 L 415.4,158.3 L 421.0,157.1 L 426.6,157.7 L 432.3,155.9 L 437.9,155.3 L 443.5,155.3 L 449.1,151.8 L 454.8,148.8 L 460.4,146.5 L 466.0,143.5 L 471.7,142.9 L 477.3,142.9 L 482.9,138.8 L 488.5,137.6 L 494.2,137.0 L 499.8,130.0 L 505.4,129.4 L 511.1,129.4 L 516.7,129.4 L 522.3,128.8 L 528.0,125.8 L 533.6,123.5 L 539.2,120.5 L 544.8,119.9 L 550.5,118.2 L 556.1,112.8 L 561.7,108.1 L 567.4,107.5 L 573.0,106.9 L 578.6,105.2 L 584.2,99.3 L 589.9,98.1 L 595.5,96.3 L 601.1,92.8 L 606.8,92.2 L 612.4,91.6 L 618.0,91.6 L 623.6,90.4 L 629.3,86.9 L 634.9,85.7 L 640.5,84.5 L 646.2,83.9 L 651.8,82.8 L 657.4,76.9 L 663.0,76.3 L 668.7,75.1 L 674.3,74.5 L 679.9,71.6 L 685.6,71.0 L 691.2,70.4 L 696.8,68.6 L 702.5,66.2 L 708.1,66.2 L 713.7,66.2 L 719.3,66.2 L 725.0,65.1 L 730.6,62.1 L 736.2,61.5 L 741.9,58.6 L 747.5,58.0 L 753.1,57.4 L 758.7,53.9 L 764.4,50.3 L 770.0,49.7" fill="none" stroke="#FF6363" stroke-width="2.5" stroke-linejoin="round" clip-path="url(#ca)"/>
<text x="103.0" y="55.0" text-anchor="middle" font-size="9" fill="#FF6363" opacity="0.85" clip-path="url(#ca)">+0.7% (+18)</text>
<text x="209.9" y="55.0" text-anchor="middle" font-size="9" fill="#FF6363" opacity="0.85" clip-path="url(#ca)">+4.0% (+99)</text>
<text x="359.1" y="55.0" text-anchor="middle" font-size="9" fill="#FF6363" opacity="0.85" clip-path="url(#ca)">+4.5% (+117)</text>
<text x="511.1" y="55.0" text-anchor="middle" font-size="9" fill="#FF6363" opacity="0.85" clip-path="url(#ca)">+3.5% (+95)</text>
<text x="663.0" y="55.0" text-anchor="middle" font-size="9" fill="#FF6363" opacity="0.85" clip-path="url(#ca)">+2.2% (+62)</text>
<text x="755.9" y="55.0" text-anchor="middle" font-size="9" fill="#FF6363" opacity="0.85" clip-path="url(#ca)">+0.5% (+15)</text>
<rect x="351" y="369" width="12" height="12" fill="#FF6363" rx="2"/>
<text x="367" y="379" font-size="12" fill="#111827">Extensions</text>
<text x="72" y="394" font-size="8" fill="#e5e7eb">data since Dec 11, 2025</text>
</svg>