<svg xmlns="http://www.w3.org/2000/svg" width="800" height="400" viewBox="0 0 800 400">
<defs>
  <style>text { font-family: -apple-system, BlinkMacSystemFont, 'Segoe UI', Roboto, sans-serif; }</style>
  <linearGradient id="g2" x1="0" y1="0" x2="0" y2="1">
  <stop offset="0%" stop-color="#4F8EF7" stop-opacity="0.25"/>
  <stop offset="100%" stop-color="#4F8EF7" stop-opacity="0"/>
</linearGradient>
<linearGradient id="g3" x1="0" y1="0" x2="0" y2="1">
  <stop offset="0%" stop-color="#BF5AF2" stop-opacity="0.25"/>
  <stop offset="100%" stop-color="#BF5AF2" stop-opacity="0"/>
</linearGradient>
<linearGradient id="g4" x1="0" y1="0" x2="0" y2="1">
  <stop offset="0%" stop-color="#34C759" stop-opacity="0.25"/>
  <stop offset="100%" stop-color="#34C759" stop-opacity="0"/>
</linearGradient>
  <clipPath id="ca"><rect x="72" y="45" width="698" height="295"/></clipPath>
</defs>
<rect width="800" height="400" fill="#ffffff" rx="12"/>
<text x="400" y="26" text-anchor="middle" font-size="15" font-weight="600" fill="#111827">Community Growth Over Time</text>
<line x1="72" y1="340.0" x2="770" y2="340.0" stroke="#f3f4f6" stroke-width="1"/>
<text x="66" y="344.0" text-anchor="end" font-size="11" fill="#6b7280">500</text>
<line x1="72" y1="241.7" x2="770" y2="241.7" stroke="#f3f4f6" stroke-width="1"/>
<text x="66" y="245.7" text-anchor="end" font-size="11" fill="#6b7280">1.0k</text>
<line x1="72" y1="143.3" x2="770" y2="143.3" stroke="#f3f4f6" stroke-width="1"/>
<text x="66" y="147.3" text-anchor="end" font-size="11" fill="#6b7280">1.5k</text>
<line x1="72" y1="45.0" x2="770" y2="45.0" stroke="#f3f4f6" stroke-width="1"/>
<text x="66" y="49.0" text-anchor="end" font-size="11" fill="#6b7280">2.0k</text>
<line x1="123.1" y1="45" x2="123.1" y2="340" stroke="#e5e7eb" stroke-width="1" stroke-dasharray="3,3" clip-path="url(#ca)"/>
<line x1="233.7" y1="45" x2="233.7" y2="340" stroke="#e5e7eb" stroke-width="1" stroke-dasharray="3,3" clip-path="url(#ca)"/>
<line x1="348.6" y1="45" x2="348.6" y2="340" stroke="#e5e7eb" stroke-width="1" stroke-dasharray="3,3" clip-path="url(#ca)"/>
<line x1="463.6" y1="45" x2="463.6" y2="340" stroke="#e5e7eb" stroke-width="1" stroke-dasharray="3,3" clip-path="url(#ca)"/>
<line x1="578.5" y1="45" x2="578.5" y2="340" stroke="#e5e7eb" stroke-width="1" stroke-dasharray="3,3" clip-path="url(#ca)"/>
<line x1="689.1" y1="45" x2="689.1" y2="340" stroke="#e5e7eb" stroke-width="1" stroke-dasharray="3,3" clip-path="url(#ca)"/>
<text x="72.0" y="358.0" text-anchor="middle" font-size="11" fill="#6b7280">Dec 11</text>
<text x="212.5" y="358.0" text-anchor="middle" font-size="11" fill="#6b7280">Jan 27</text>
<text x="352.9" y="358.0" text-anchor="middle" font-size="11" fill="#6b7280">Mar 2</text>
<text x="489.1" y="358.0" text-anchor="middle" font-size="11" fill="#6b7280">Apr 8</text>
<text x="629.5" y="358.0" text-anchor="middle" font-size="11" fill="#6b7280">May 18</text>
<text x="770.0" y="358.0" text-anchor="middle" font-size="11" fill="#6b7280">Jun 25</text>
<line x1="72" y1="45" x2="72" y2="340" stroke="#e5e7eb" stroke-width="1"/>
<line x1="72" y1="340" x2="770" y2="340" stroke="#e5e7eb" stroke-width="1"/>
<text x="-192.5" y="18" text-anchor="middle" font-size="12" fill="#6b7280" transform="rotate(-90)">People</text>
<path d="M 72.0,340 L 72.0,120.1 L 76.3,120.1 L 80.5,120.1 L 84.8,119.5 L 89.0,119.5 L 93.3,119.1 L 97.5,118.9 L 101.8,119.1 L 106.0,118.6 L 110.3,118.6 L 114.6,118.6 L 118.8,118.6 L 123.1,118.6 L 127.3,118.6 L 131.6,118.6 L 135.8,118.6 L 140.1,118.4 L 144.4,117.8 L 148.6,116.6 L 152.9,116.0 L 157.1,115.8 L 161.4,115.8 L 165.6,115.2 L 169.9,113.8 L 174.1,113.0 L 178.4,113.0 L 182.7,112.1 L 186.9,111.7 L 191.2,110.9 L 195.4,110.3 L 199.7,109.7 L 203.9,109.1 L 208.2,109.1 L 212.5,107.7 L 216.7,106.9 L 221.0,106.9 L 225.2,106.2 L 229.5,105.8 L 233.7,105.6 L 238.0,105.4 L 242.2,105.4 L 246.5,104.8 L 250.8,102.4 L 255.0,101.0 L 259.3,100.3 L 263.5,100.1 L 267.8,99.7 L 272.0,98.9 L 276.3,98.5 L 280.5,98.1 L 284.8,97.7 L 289.1,97.3 L 293.3,96.9 L 297.6,96.9 L 301.8,95.0 L 306.1,95.0 L 310.3,94.8 L 314.6,94.6 L 318.9,94.2 L 323.1,94.2 L 327.4,93.2 L 331.6,92.0 L 335.9,91.6 L 340.1,92.0 L 344.4,91.8 L 348.6,91.6 L 352.9,91.6 L 357.2,91.2 L 361.4,90.4 L 365.7,90.0 L 369.9,89.6 L 374.2,89.4 L 378.4,89.4 L 382.7,88.7 L 387.0,88.3 L 391.2,88.3 L 395.5,86.7 L 399.7,86.7 L 404.0,86.7 L 408.2,86.7 L 412.5,86.5 L 416.7,85.9 L 421.0,85.1 L 425.3,84.7 L 429.5,84.7 L 433.8,84.3 L 438.0,82.8 L 442.3,81.8 L 446.5,81.6 L 450.8,81.4 L 455.0,80.8 L 459.3,79.6 L 463.6,79.2 L 467.8,78.8 L 472.1,77.6 L 476.3,77.4 L 480.6,77.4 L 484.8,77.4 L 489.1,77.3 L 493.4,76.1 L 497.6,75.9 L 501.9,75.7 L 506.1,75.7 L 510.4,75.3 L 514.6,73.7 L 518.9,73.5 L 523.1,73.3 L 527.4,73.3 L 531.7,72.5 L 535.9,72.3 L 540.2,72.1 L 544.4,71.6 L 548.7,70.8 L 552.9,70.8 L 557.2,70.8 L 561.5,70.8 L 565.7,70.4 L 570.0,69.8 L 574.2,69.6 L 578.5,69.0 L 582.7,68.8 L 587.0,68.6 L 591.2,67.8 L 595.5,67.2 L 599.8,67.0 L 604.0,67.0 L 608.3,65.3 L 612.5,64.7 L 616.8,64.5 L 621.0,64.5 L 625.3,63.5 L 629.5,63.5 L 633.8,62.9 L 638.1,62.3 L 642.3,60.9 L 646.6,60.7 L 650.8,60.5 L 655.1,60.3 L 659.3,60.3 L 663.6,60.1 L 667.9,59.2 L 672.1,58.6 L 676.4,58.6 L 680.6,58.4 L 684.9,58.4 L 689.1,57.8 L 693.4,57.6 L 697.6,57.4 L 701.9,56.8 L 706.2,56.0 L 710.4,56.0 L 714.7,55.8 L 718.9,55.6 L 723.2,54.6 L 727.4,53.3 L 731.7,53.1 L 736.0,52.7 L 740.2,52.3 L 744.5,52.1 L 748.7,51.5 L 753.0,50.7 L 757.2,50.5 L 761.5,49.9 L 765.7,49.5 L 770.0,48.5 L 770.0,340 Z" fill="url(#g2)" clip-path="url(#ca)"/>
<path d="M 72.0,120.1 L 76.3,120.1 L 80.5,120.1 L 84.8,119.5 L 89.0,119.5 L 93.3,119.1 L 97.5,118.9 L 101.8,119.1 L 106.0,118.6 L 110.3,118.6 L 114.6,118.6 L 118.8,118.6 L 123.1,118.6 L 127.3,118.6 L 131.6,118.6 L 135.8,118.6 L 140.1,118.4 L 144.4,117.8 L 148.6,116.6 L 152.9,116.0 L 157.1,115.8 L 161.4,115.8 L 165.6,115.2 L 169.9,113.8 L 174.1,113.0 L 178.4,113.0 L 182.7,112.1 L 186.9,111.7 L 191.2,110.9 L 195.4,110.3 L 199.7,109.7 L 203.9,109.1 L 208.2,109.1 L 212.5,107.7 L 216.7,106.9 L 221.0,106.9 L 225.2,106.2 L 229.5,105.8 L 233.7,105.6 L 238.0,105.4 L 242.2,105.4 L 246.5,104.8 L 250.8,102.4 L 255.0,101.0 L 259.3,100.3 L 263.5,100.1 L 267.8,99.7 L 272.0,98.9 L 276.3,98.5 L 280.5,98.1 L 284.8,97.7 L 289.1,97.3 L 293.3,96.9 L 297.6,96.9 L 301.8,95.0 L 306.1,95.0 L 310.3,94.8 L 314.6,94.6 L 318.9,94.2 L 323.1,94.2 L 327.4,93.2 L 331.6,92.0 L 335.9,91.6 L 340.1,92.0 L 344.4,91.8 L 348.6,91.6 L 352.9,91.6 L 357.2,91.2 L 361.4,90.4 L 365.7,90.0 L 369.9,89.6 L 374.2,89.4 L 378.4,89.4 L 382.7,88.7 L 387.0,88.3 L 391.2,88.3 L 395.5,86.7 L 399.7,86.7 L 404.0,86.7 L 408.2,86.7 L 412.5,86.5 L 416.7,85.9 L 421.0,85.1 L 425.3,84.7 L 429.5,84.7 L 433.8,84.3 L 438.0,82.8 L 442.3,81.8 L 446.5,81.6 L 450.8,81.4 L 455.0,80.8 L 459.3,79.6 L 463.6,79.2 L 467.8,78.8 L 472.1,77.6 L 476.3,77.4 L 480.6,77.4 L 484.8,77.4 L 489.1,77.3 L 493.4,76.1 L 497.6,75.9 L 501.9,75.7 L 506.1,75.7 L 510.4,75.3 L 514.6,73.7 L 518.9,73.5 L 523.1,73.3 L 527.4,73.3 L 531.7,72.5 L 535.9,72.3 L 540.2,72.1 L 544.4,71.6 L 548.7,70.8 L 552.9,70.8 L 557.2,70.8 L 561.5,70.8 L 565.7,70.4 L 570.0,69.8 L 574.2,69.6 L 578.5,69.0 L 582.7,68.8 L 587.0,68.6 L 591.2,67.8 L 595.5,67.2 L 599.8,67.0 L 604.0,67.0 L 608.3,65.3 L 612.5,64.7 L 616.8,64.5 L 621.0,64.5 L 625.3,63.5 L 629.5,63.5 L 633.8,62.9 L 638.1,62.3 L 642.3,60.9 L 646.6,60.7 L 650.8,60.5 L 655.1,60.3 L 659.3,60.3 L 663.6,60.1 L 667.9,59.2 L 672.1,58.6 L 676.4,58.6 L 680.6,58.4 L 684.9,58.4 L 689.1,57.8 L 693.4,57.6 L 697.6,57.4 L 701.9,56.8 L 706.2,56.0 L 710.4,56.0 L 714.7,55.8 L 718.9,55.6 L 723.2,54.6 L 727.4,53.3 L 731.7,53.1 L 736.0,52.7 L 740.2,52.3 L 744.5,52.1 L 748.7,51.5 L 753.0,50.7 L 757.2,50.5 L 761.5,49.9 L 765.7,49.5 L 770.0,48.5" fill="none" stroke="#4F8EF7" stroke-width="2.5" stroke-linejoin="round" clip-path="url(#ca)"/>
<path d="M 72.0,340 L 72.0,244.2 L 76.3,243.6 L 80.5,243.6 L 84.8,243.6 L 89.0,243.4 L 93.3,243.0 L 97.5,242.8 L 101.8,242.6 L 106.0,242.6 L 110.3,242.5 L 114.6,242.3 L 118.8,242.3 L 123.1,242.3 L 127.3,242.3 L 131.6,242.3 L 135.8,242.3 L 140.1,241.9 L 144.4,241.9 L 148.6,241.9 L 152.9,241.1 L 157.1,240.9 L 161.4,240.5 L 165.6,239.7 L 169.9,239.5 L 174.1,239.5 L 178.4,239.5 L 182.7,238.9 L 186.9,238.5 L 191.2,238.5 L 195.4,238.1 L 199.7,237.9 L 203.9,237.5 L 208.2,237.5 L 212.5,237.3 L 216.7,236.6 L 221.0,236.0 L 225.2,235.6 L 229.5,235.4 L 233.7,235.4 L 238.0,235.2 L 242.2,234.8 L 246.5,234.8 L 250.8,234.6 L 255.0,234.0 L 259.3,233.6 L 263.5,233.6 L 267.8,233.6 L 272.0,233.6 L 276.3,233.4 L 280.5,232.8 L 284.8,232.4 L 289.1,232.2 L 293.3,232.0 L 297.6,231.8 L 301.8,231.6 L 306.1,231.4 L 310.3,231.2 L 314.6,230.7 L 318.9,230.5 L 323.1,230.3 L 327.4,229.5 L 331.6,228.7 L 335.9,228.7 L 340.1,228.5 L 344.4,228.3 L 348.6,228.3 L 352.9,228.3 L 357.2,227.9 L 361.4,227.9 L 365.7,226.7 L 369.9,226.5 L 374.2,226.3 L 378.4,226.3 L 382.7,225.9 L 387.0,225.7 L 391.2,225.7 L 395.5,225.5 L 399.7,225.5 L 404.0,225.5 L 408.2,225.1 L 412.5,224.9 L 416.7,224.0 L 421.0,224.2 L 425.3,224.0 L 429.5,223.8 L 433.8,223.8 L 438.0,223.6 L 442.3,223.0 L 446.5,223.0 L 450.8,223.0 L 455.0,223.0 L 459.3,222.6 L 463.6,222.6 L 467.8,222.2 L 472.1,221.8 L 476.3,221.0 L 480.6,221.0 L 484.8,220.6 L 489.1,220.4 L 493.4,220.2 L 497.6,220.0 L 501.9,219.6 L 506.1,219.6 L 510.4,219.1 L 514.6,219.1 L 518.9,218.9 L 523.1,218.5 L 527.4,218.3 L 531.7,218.3 L 535.9,218.3 L 540.2,218.3 L 544.4,218.3 L 548.7,217.7 L 552.9,217.7 L 557.2,217.3 L 561.5,216.9 L 565.7,216.3 L 570.0,216.1 L 574.2,216.1 L 578.5,214.9 L 582.7,214.7 L 587.0,214.7 L 591.2,213.9 L 595.5,213.9 L 599.8,213.5 L 604.0,213.5 L 608.3,213.3 L 612.5,213.3 L 616.8,213.2 L 621.0,212.8 L 625.3,212.8 L 629.5,212.6 L 633.8,212.4 L 638.1,212.2 L 642.3,212.0 L 646.6,212.0 L 650.8,211.6 L 655.1,211.6 L 659.3,211.6 L 663.6,210.6 L 667.9,210.6 L 672.1,210.6 L 676.4,210.6 L 680.6,210.6 L 684.9,210.6 L 689.1,210.2 L 693.4,210.2 L 697.6,209.8 L 701.9,209.0 L 706.2,208.6 L 710.4,208.4 L 714.7,208.4 L 718.9,208.2 L 723.2,207.6 L 727.4,207.4 L 731.7,207.4 L 736.0,207.1 L 740.2,206.5 L 744.5,206.1 L 748.7,206.1 L 753.0,205.9 L 757.2,205.9 L 761.5,205.3 L 765.7,205.1 L 770.0,205.1 L 770.0,340 Z" fill="url(#g3)" clip-path="url(#ca)"/>
<path d="M 72.0,244.2 L 76.3,243.6 L 80.5,243.6 L 84.8,243.6 L 89.0,243.4 L 93.3,243.0 L 97.5,242.8 L 101.8,242.6 L 106.0,242.6 L 110.3,242.5 L 114.6,242.3 L 118.8,242.3 L 123.1,242.3 L 127.3,242.3 L 131.6,242.3 L 135.8,242.3 L 140.1,241.9 L 144.4,241.9 L 148.6,241.9 L 152.9,241.1 L 157.1,240.9 L 161.4,240.5 L 165.6,239.7 L 169.9,239.5 L 174.1,239.5 L 178.4,239.5 L 182.7,238.9 L 186.9,238.5 L 191.2,238.5 L 195.4,238.1 L 199.7,237.9 L 203.9,237.5 L 208.2,237.5 L 212.5,237.3 L 216.7,236.6 L 221.0,236.0 L 225.2,235.6 L 229.5,235.4 L 233.7,235.4 L 238.0,235.2 L 242.2,234.8 L 246.5,234.8 L 250.8,234.6 L 255.0,234.0 L 259.3,233.6 L 263.5,233.6 L 267.8,233.6 L 272.0,233.6 L 276.3,233.4 L 280.5,232.8 L 284.8,232.4 L 289.1,232.2 L 293.3,232.0 L 297.6,231.8 L 301.8,231.6 L 306.1,231.4 L 310.3,231.2 L 314.6,230.7 L 318.9,230.5 L 323.1,230.3 L 327.4,229.5 L 331.6,228.7 L 335.9,228.7 L 340.1,228.5 L 344.4,228.3 L 348.6,228.3 L 352.9,228.3 L 357.2,227.9 L 361.4,227.9 L 365.7,226.7 L 369.9,226.5 L 374.2,226.3 L 378.4,226.3 L 382.7,225.9 L 387.0,225.7 L 391.2,225.7 L 395.5,225.5 L 399.7,225.5 L 404.0,225.5 L 408.2,225.1 L 412.5,224.9 L 416.7,224.0 L 421.0,224.2 L 425.3,224.0 L 429.5,223.8 L 433.8,223.8 L 438.0,223.6 L 442.3,223.0 L 446.5,223.0 L 450.8,223.0 L 455.0,223.0 L 459.3,222.6 L 463.6,222.6 L 467.8,222.2 L 472.1,221.8 L 476.3,221.0 L 480.6,221.0 L 484.8,220.6 L 489.1,220.4 L 493.4,220.2 L 497.6,220.0 L 501.9,219.6 L 506.1,219.6 L 510.4,219.1 L 514.6,219.1 L 518.9,218.9 L 523.1,218.5 L 527.4,218.3 L 531.7,218.3 L 535.9,218.3 L 540.2,218.3 L 544.4,218.3 L 548.7,217.7 L 552.9,217.7 L 557.2,217.3 L 561.5,216.9 L 565.7,216.3 L 570.0,216.1 L 574.2,216.1 L 578.5,214.9 L 582.7,214.7 L 587.0,214.7 L 591.2,213.9 L 595.5,213.9 L 599.8,213.5 L 604.0,213.5 L 608.3,213.3 L 612.5,213.3 L 616.8,213.2 L 621.0,212.8 L 625.3,212.8 L 629.5,212.6 L 633.8,212.4 L 638.1,212.2 L 642.3,212.0 L 646.6,212.0 L 650.8,211.6 L 655.1,211.6 L 659.3,211.6 L 663.6,210.6 L 667.9,210.6 L 672.1,210.6 L 676.4,210.6 L 680.6,210.6 L 684.9,210.6 L 689.1,210.2 L 693.4,210.2 L 697.6,209.8 L 701.9,209.0 L 706.2,208.6 L 710.4,208.4 L 714.7,208.4 L 718.9,208.2 L 723.2,207.6 L 727.4,207.4 L 731.7,207.4 L 736.0,207.1 L 740.2,206.5 L 744.5,206.1 L 748.7,206.1 L 753.0,205.9 L 757.2,205.9 L 761.5,205.3 L 765.7,205.1 L 770.0,205.1" fill="none" stroke="#BF5AF2" stroke-width="2.5" stroke-linejoin="round" clip-path="url(#ca)"/>
<path d="M 72.0,340 L 72.0,291.4 L 76.3,290.8 L 80.5,290.8 L 84.8,290.8 L 89.0,290.6 L 93.3,290.2 L 97.5,290.0 L 101.8,289.7 L 106.0,289.7 L 110.3,289.5 L 114.6,289.3 L 118.8,289.3 L 123.1,289.3 L 127.3,289.3 L 131.6,289.3 L 135.8,289.3 L 140.1,288.9 L 144.4,288.9 L 148.6,289.1 L 152.9,288.5 L 157.1,288.7 L 161.4,288.1 L 165.6,287.5 L 169.9,287.3 L 174.1,287.5 L 178.4,287.5 L 182.7,286.9 L 186.9,286.7 L 191.2,286.7 L 195.4,286.3 L 199.7,286.1 L 203.9,285.7 L 208.2,285.7 L 212.5,285.5 L 216.7,284.9 L 221.0,284.3 L 225.2,283.9 L 229.5,283.9 L 233.7,283.9 L 238.0,283.8 L 242.2,283.4 L 246.5,283.4 L 250.8,283.2 L 255.0,282.6 L 259.3,282.4 L 263.5,282.4 L 267.8,282.4 L 272.0,282.4 L 276.3,282.2 L 280.5,281.6 L 284.8,281.4 L 289.1,281.2 L 293.3,281.0 L 297.6,281.0 L 301.8,280.8 L 306.1,280.8 L 310.3,280.8 L 314.6,280.2 L 318.9,280.2 L 323.1,280.2 L 327.4,279.8 L 331.6,279.2 L 335.9,279.2 L 340.1,279.0 L 344.4,278.8 L 348.6,278.8 L 352.9,278.8 L 357.2,278.4 L 361.4,278.4 L 365.7,277.3 L 369.9,277.1 L 374.2,276.9 L 378.4,276.9 L 382.7,276.7 L 387.0,276.7 L 391.2,276.7 L 395.5,276.7 L 399.7,276.7 L 404.0,276.7 L 408.2,276.3 L 412.5,276.1 L 416.7,275.1 L 421.0,275.3 L 425.3,275.3 L 429.5,275.1 L 433.8,275.1 L 438.0,275.1 L 442.3,274.7 L 446.5,274.7 L 450.8,274.7 L 455.0,274.7 L 459.3,274.7 L 463.6,274.7 L 467.8,274.5 L 472.1,274.5 L 476.3,273.7 L 480.6,273.7 L 484.8,273.5 L 489.1,273.3 L 493.4,273.1 L 497.6,272.9 L 501.9,272.5 L 506.1,272.5 L 510.4,272.0 L 514.6,272.0 L 518.9,271.8 L 523.1,271.6 L 527.4,271.6 L 531.7,271.6 L 535.9,271.6 L 540.2,271.6 L 544.4,271.6 L 548.7,271.0 L 552.9,271.0 L 557.2,270.6 L 561.5,270.2 L 565.7,269.6 L 570.0,269.4 L 574.2,269.4 L 578.5,268.4 L 582.7,268.2 L 587.0,268.2 L 591.2,267.6 L 595.5,267.6 L 599.8,267.4 L 604.0,267.4 L 608.3,267.6 L 612.5,267.8 L 616.8,267.6 L 621.0,267.2 L 625.3,267.4 L 629.5,267.2 L 633.8,267.0 L 638.1,267.0 L 642.3,267.0 L 646.6,267.0 L 650.8,266.6 L 655.1,266.6 L 659.3,266.6 L 663.6,265.9 L 667.9,265.9 L 672.1,265.9 L 676.4,265.9 L 680.6,265.9 L 684.9,265.9 L 689.1,265.5 L 693.4,265.5 L 697.6,265.1 L 701.9,264.3 L 706.2,264.1 L 710.4,264.1 L 714.7,264.1 L 718.9,264.1 L 723.2,263.7 L 727.4,263.5 L 731.7,263.5 L 736.0,263.3 L 740.2,262.7 L 744.5,262.3 L 748.7,262.3 L 753.0,262.1 L 757.2,262.1 L 761.5,261.9 L 765.7,261.7 L 770.0,261.7 L 770.0,340 Z" fill="url(#g4)" clip-path="url(#ca)"/>
<path d="M 72.0,291.4 L 76.3,290.8 L 80.5,290.8 L 84.8,290.8 L 89.0,290.6 L 93.3,290.2 L 97.5,290.0 L 101.8,289.7 L 106.0,289.7 L 110.3,289.5 L 114.6,289.3 L 118.8,289.3 L 123.1,289.3 L 127.3,289.3 L 131.6,289.3 L 135.8,289.3 L 140.1,288.9 L 144.4,288.9 L 148.6,289.1 L 152.9,288.5 L 157.1,288.7 L 161.4,288.1 L 165.6,287.5 L 169.9,287.3 L 174.1,287.5 L 178.4,287.5 L 182.7,286.9 L 186.9,286.7 L 191.2,286.7 L 195.4,286.3 L 199.7,286.1 L 203.9,285.7 L 208.2,285.7 L 212.5,285.5 L 216.7,284.9 L 221.0,284.3 L 225.2,283.9 L 229.5,283.9 L 233.7,283.9 L 238.0,283.8 L 242.2,283.4 L 246.5,283.4 L 250.8,283.2 L 255.0,282.6 L 259.3,282.4 L 263.5,282.4 L 267.8,282.4 L 272.0,282.4 L 276.3,282.2 L 280.5,281.6 L 284.8,281.4 L 289.1,281.2 L 293.3,281.0 L 297.6,281.0 L 301.8,280.8 L 306.1,280.8 L 310.3,280.8 L 314.6,280.2 L 318.9,280.2 L 323.1,280.2 L 327.4,279.8 L 331.6,279.2 L 335.9,279.2 L 340.1,279.0 L 344.4,278.8 L 348.6,278.8 L 352.9,278.8 L 357.2,278.4 L 361.4,278.4 L 365.7,277.3 L 369.9,277.1 L 374.2,276.9 L 378.4,276.9 L 382.7,276.7 L 387.0,276.7 L 391.2,276.7 L 395.5,276.7 L 399.7,276.7 L 404.0,276.7 L 408.2,276.3 L 412.5,276.1 L 416.7,275.1 L 421.0,275.3 L 425.3,275.3 L 429.5,275.1 L 433.8,275.1 L 438.0,275.1 L 442.3,274.7 L 446.5,274.7 L 450.8,274.7 L 455.0,274.7 L 459.3,274.7 L 463.6,274.7 L 467.8,274.5 L 472.1,274.5 L 476.3,273.7 L 480.6,273.7 L 484.8,273.5 L 489.1,273.3 L 493.4,273.1 L 497.6,272.9 L 501.9,272.5 L 506.1,272.5 L 510.4,272.0 L 514.6,272.0 L 518.9,271.8 L 523.1,271.6 L 527.4,271.6 L 531.7,271.6 L 535.9,271.6 L 540.2,271.6 L 544.4,271.6 L 548.7,271.0 L 552.9,271.0 L 557.2,270.6 L 561.5,270.2 L 565.7,269.6 L 570.0,269.4 L 574.2,269.4 L 578.5,268.4 L 582.7,268.2 L 587.0,268.2 L 591.2,267.6 L 595.5,267.6 L 599.8,267.4 L 604.0,267.4 L 608.3,267.6 L 612.5,267.8 L 616.8,267.6 L 621.0,267.2 L 625.3,267.4 L 629.5,267.2 L 633.8,267.0 L 638.1,267.0 L 642.3,267.0 L 646.6,267.0 L 650.8,266.6 L 655.1,266.6 L 659.3,266.6 L 663.6,265.9 L 667.9,265.9 L 672.1,265.9 L 676.4,265.9 L 680.6,265.9 L 684.9,265.9 L 689.1,265.5 L 693.4,265.5 L 697.6,265.1 L 701.9,264.3 L 706.2,264.1 L 710.4,264.1 L 714.7,264.1 L 718.9,264.1 L 723.2,263.7 L 727.4,263.5 L 731.7,263.5 L 736.0,263.3 L 740.2,262.7 L 744.5,262.3 L 748.7,262.3 L 753.0,262.1 L 757.2,262.1 L 761.5,261.9 L 765.7,261.7 L 770.0,261.7" fill="none" stroke="#34C759" stroke-width="2.5" stroke-linejoin="round" clip-path="url(#ca)"/>
<text x="95.4" y="55.0" text-anchor="middle" font-size="9" fill="#4F8EF7" opacity="0.85" clip-path="url(#ca)">+0.5% (+8)</text>
<text x="95.4" y="66.0" text-anchor="middle" font-size="9" fill="#BF5AF2" opacity="0.85" clip-path="url(#ca)">+1.0% (+10)</text>
<text x="95.4" y="77.0" text-anchor="middle" font-size="9" fill="#34C759" opacity="0.85" clip-path="url(#ca)">+1.5% (+11)</text>
<text x="176.3" y="55.0" text-anchor="middle" font-size="9" fill="#4F8EF7" opacity="0.85" clip-path="url(#ca)">+4.0% (+65)</text>
<text x="176.3" y="66.0" text-anchor="middle" font-size="9" fill="#BF5AF2" opacity="0.85" clip-path="url(#ca)">+3.5% (+35)</text>
<text x="176.3" y="77.0" text-anchor="middle" font-size="9" fill="#34C759" opacity="0.85" clip-path="url(#ca)">+3.6% (+27)</text>
<text x="289.1" y="55.0" text-anchor="middle" font-size="9" fill="#4F8EF7" opacity="0.85" clip-path="url(#ca)">+4.1% (+70)</text>
<text x="289.1" y="66.0" text-anchor="middle" font-size="9" fill="#BF5AF2" opacity="0.85" clip-path="url(#ca)">+3.5% (+36)</text>
<text x="289.1" y="77.0" text-anchor="middle" font-size="9" fill="#34C759" opacity="0.85" clip-path="url(#ca)">+3.3% (+26)</text>
<text x="404.0" y="55.0" text-anchor="middle" font-size="9" fill="#4F8EF7" opacity="0.85" clip-path="url(#ca)">+3.5% (+61)</text>
<text x="404.0" y="66.0" text-anchor="middle" font-size="9" fill="#BF5AF2" opacity="0.85" clip-path="url(#ca)">+2.7% (+29)</text>
<text x="404.0" y="77.0" text-anchor="middle" font-size="9" fill="#34C759" opacity="0.85" clip-path="url(#ca)">+2.6% (+21)</text>
<text x="518.9" y="55.0" text-anchor="middle" font-size="9" fill="#4F8EF7" opacity="0.85" clip-path="url(#ca)">+2.7% (+49)</text>
<text x="518.9" y="66.0" text-anchor="middle" font-size="9" fill="#BF5AF2" opacity="0.85" clip-path="url(#ca)">+3.0% (+33)</text>
<text x="518.9" y="77.0" text-anchor="middle" font-size="9" fill="#34C759" opacity="0.85" clip-path="url(#ca)">+3.2% (+27)</text>
<text x="631.7" y="55.0" text-anchor="middle" font-size="9" fill="#4F8EF7" opacity="0.85" clip-path="url(#ca)">+2.9% (+54)</text>
<text x="631.7" y="66.0" text-anchor="middle" font-size="9" fill="#BF5AF2" opacity="0.85" clip-path="url(#ca)">+1.9% (+22)</text>
<text x="631.7" y="77.0" text-anchor="middle" font-size="9" fill="#34C759" opacity="0.85" clip-path="url(#ca)">+1.5% (+13)</text>
<text x="729.6" y="55.0" text-anchor="middle" font-size="9" fill="#4F8EF7" opacity="0.85" clip-path="url(#ca)">+2.4% (+47)</text>
<text x="729.6" y="66.0" text-anchor="middle" font-size="9" fill="#BF5AF2" opacity="0.85" clip-path="url(#ca)">+2.2% (+26)</text>
<text x="729.6" y="77.0" text-anchor="middle" font-size="9" fill="#34C759" opacity="0.85" clip-path="url(#ca)">+2.2% (+19)</text>
<rect x="211" y="369" width="12" height="12" fill="#4F8EF7" rx="2"/>
<text x="227" y="379" font-size="12" fill="#111827">Authors</text>
<rect x="351" y="369" width="12" height="12" fill="#BF5AF2" rx="2"/>
<text x="367" y="379" font-size="12" fill="#111827">Contributors</text>
<rect x="491" y="369" width="12" height="12" fill="#34C759" rx="2"/>
<text x="507" y="379" font-size="12" fill="#111827">Non-author contributors</text>
<text x="72" y="394" font-size="8" fill="#e5e7eb">data since Dec 11, 2025</text>
</svg>