<svg xmlns="http://www.w3.org/2000/svg" width="800" height="400" viewBox="0 0 800 400">
<defs>
  <style>text { font-family: -apple-system, BlinkMacSystemFont, 'Segoe UI', Roboto, sans-serif; }</style>
  <linearGradient id="g2" x1="0" y1="0" x2="0" y2="1">
  <stop offset="0%" stop-color="#4F8EF7" stop-opacity="0.25"/>
  <stop offset="100%" stop-color="#4F8EF7" stop-opacity="0"/>
</linearGradient>
<linearGradient id="g3" x1="0" y1="0" x2="0" y2="1">
  <stop offset="0%" stop-color="#BF5AF2" stop-opacity="0.25"/>
  <stop offset="100%" stop-color="#BF5AF2" stop-opacity="0"/>
</linearGradient>
<linearGradient id="g4" x1="0" y1="0" x2="0" y2="1">
  <stop offset="0%" stop-color="#34C759" stop-opacity="0.25"/>
  <stop offset="100%" stop-color="#34C759" stop-opacity="0"/>
</linearGradient>
  <clipPath id="ca"><rect x="72" y="45" width="698" height="295"/></clipPath>
</defs>
<rect width="800" height="400" fill="#ffffff" rx="12"/>
<text x="400" y="26" text-anchor="middle" font-size="15" font-weight="600" fill="#111827">Community Growth Over Time</text>
<line x1="72" y1="340.0" x2="770" y2="340.0" stroke="#f3f4f6" stroke-width="1"/>
<text x="66" y="344.0" text-anchor="end" font-size="11" fill="#6b7280">500</text>
<line x1="72" y1="241.7" x2="770" y2="241.7" stroke="#f3f4f6" stroke-width="1"/>
<text x="66" y="245.7" text-anchor="end" font-size="11" fill="#6b7280">1.0k</text>
<line x1="72" y1="143.3" x2="770" y2="143.3" stroke="#f3f4f6" stroke-width="1"/>
<text x="66" y="147.3" text-anchor="end" font-size="11" fill="#6b7280">1.5k</text>
<line x1="72" y1="45.0" x2="770" y2="45.0" stroke="#f3f4f6" stroke-width="1"/>
<text x="66" y="49.0" text-anchor="end" font-size="11" fill="#6b7280">2.0k</text>
<line x1="164.0" y1="45" x2="164.0" y2="340" stroke="#e5e7eb" stroke-width="1" stroke-dasharray="3,3" clip-path="url(#ca)"/>
<line x1="363.5" y1="45" x2="363.5" y2="340" stroke="#e5e7eb" stroke-width="1" stroke-dasharray="3,3" clip-path="url(#ca)"/>
<line x1="570.6" y1="45" x2="570.6" y2="340" stroke="#e5e7eb" stroke-width="1" stroke-dasharray="3,3" clip-path="url(#ca)"/>
<text x="72.0" y="358.0" text-anchor="middle" font-size="11" fill="#6b7280">Dec 11</text>
<text x="210.1" y="358.0" text-anchor="middle" font-size="11" fill="#6b7280">Jan 9</text>
<text x="348.1" y="358.0" text-anchor="middle" font-size="11" fill="#6b7280">Jan 30</text>
<text x="493.9" y="358.0" text-anchor="middle" font-size="11" fill="#6b7280">Feb 18</text>
<text x="631.9" y="358.0" text-anchor="middle" font-size="11" fill="#6b7280">Mar 10</text>
<text x="770.0" y="358.0" text-anchor="middle" font-size="11" fill="#6b7280">Mar 31</text>
<line x1="72" y1="45" x2="72" y2="340" stroke="#e5e7eb" stroke-width="1"/>
<line x1="72" y1="340" x2="770" y2="340" stroke="#e5e7eb" stroke-width="1"/>
<text x="-192.5" y="18" text-anchor="middle" font-size="12" fill="#6b7280" transform="rotate(-90)">People</text>
<path d="M 72.0,340 L 72.0,120.1 L 79.7,120.1 L 87.3,120.1 L 95.0,119.5 L 102.7,119.5 L 110.4,119.1 L 118.0,118.9 L 125.7,119.1 L 133.4,118.6 L 141.0,118.6 L 148.7,118.6 L 156.4,118.6 L 164.0,118.6 L 171.7,118.6 L 179.4,118.6 L 187.1,118.6 L 194.7,118.4 L 202.4,117.8 L 210.1,116.6 L 217.7,116.0 L 225.4,115.8 L 233.1,115.8 L 240.7,115.2 L 248.4,113.8 L 256.1,113.0 L 263.8,113.0 L 271.4,112.1 L 279.1,111.7 L 286.8,110.9 L 294.4,110.3 L 302.1,109.7 L 309.8,109.1 L 317.5,109.1 L 325.1,107.7 L 332.8,106.9 L 340.5,106.9 L 348.1,106.2 L 355.8,105.8 L 363.5,105.6 L 371.1,105.4 L 378.8,105.4 L 386.5,104.8 L 394.2,102.4 L 401.8,101.0 L 409.5,100.3 L 417.2,100.1 L 424.8,99.7 L 432.5,98.9 L 440.2,98.5 L 447.8,98.1 L 455.5,97.7 L 463.2,97.3 L 470.9,96.9 L 478.5,96.9 L 486.2,95.0 L 493.9,95.0 L 501.5,94.8 L 509.2,94.6 L 516.9,94.2 L 524.5,94.2 L 532.2,93.2 L 539.9,92.0 L 547.6,91.6 L 555.2,92.0 L 562.9,91.8 L 570.6,91.6 L 578.2,91.6 L 585.9,91.2 L 593.6,90.4 L 601.3,90.0 L 608.9,89.6 L 616.6,89.4 L 624.3,89.4 L 631.9,88.7 L 639.6,88.3 L 647.3,88.3 L 654.9,86.7 L 662.6,86.7 L 670.3,86.7 L 678.0,86.7 L 685.6,86.5 L 693.3,85.9 L 701.0,85.1 L 708.6,84.7 L 716.3,84.7 L 724.0,84.3 L 731.6,82.8 L 739.3,81.8 L 747.0,81.6 L 754.7,81.4 L 762.3,80.8 L 770.0,79.6 L 770.0,340 Z" fill="url(#g2)" clip-path="url(#ca)"/>
<path d="M 72.0,120.1 L 79.7,120.1 L 87.3,120.1 L 95.0,119.5 L 102.7,119.5 L 110.4,119.1 L 118.0,118.9 L 125.7,119.1 L 133.4,118.6 L 141.0,118.6 L 148.7,118.6 L 156.4,118.6 L 164.0,118.6 L 171.7,118.6 L 179.4,118.6 L 187.1,118.6 L 194.7,118.4 L 202.4,117.8 L 210.1,116.6 L 217.7,116.0 L 225.4,115.8 L 233.1,115.8 L 240.7,115.2 L 248.4,113.8 L 256.1,113.0 L 263.8,113.0 L 271.4,112.1 L 279.1,111.7 L 286.8,110.9 L 294.4,110.3 L 302.1,109.7 L 309.8,109.1 L 317.5,109.1 L 325.1,107.7 L 332.8,106.9 L 340.5,106.9 L 348.1,106.2 L 355.8,105.8 L 363.5,105.6 L 371.1,105.4 L 378.8,105.4 L 386.5,104.8 L 394.2,102.4 L 401.8,101.0 L 409.5,100.3 L 417.2,100.1 L 424.8,99.7 L 432.5,98.9 L 440.2,98.5 L 447.8,98.1 L 455.5,97.7 L 463.2,97.3 L 470.9,96.9 L 478.5,96.9 L 486.2,95.0 L 493.9,95.0 L 501.5,94.8 L 509.2,94.6 L 516.9,94.2 L 524.5,94.2 L 532.2,93.2 L 539.9,92.0 L 547.6,91.6 L 555.2,92.0 L 562.9,91.8 L 570.6,91.6 L 578.2,91.6 L 585.9,91.2 L 593.6,90.4 L 601.3,90.0 L 608.9,89.6 L 616.6,89.4 L 624.3,89.4 L 631.9,88.7 L 639.6,88.3 L 647.3,88.3 L 654.9,86.7 L 662.6,86.7 L 670.3,86.7 L 678.0,86.7 L 685.6,86.5 L 693.3,85.9 L 701.0,85.1 L 708.6,84.7 L 716.3,84.7 L 724.0,84.3 L 731.6,82.8 L 739.3,81.8 L 747.0,81.6 L 754.7,81.4 L 762.3,80.8 L 770.0,79.6" fill="none" stroke="#4F8EF7" stroke-width="2.5" stroke-linejoin="round" clip-path="url(#ca)"/>
<path d="M 72.0,340 L 72.0,244.2 L 79.7,243.6 L 87.3,243.6 L 95.0,243.6 L 102.7,243.4 L 110.4,243.0 L 118.0,242.8 L 125.7,242.6 L 133.4,242.6 L 141.0,242.5 L 148.7,242.3 L 156.4,242.3 L 164.0,242.3 L 171.7,242.3 L 179.4,242.3 L 187.1,242.3 L 194.7,241.9 L 202.4,241.9 L 210.1,241.9 L 217.7,241.1 L 225.4,240.9 L 233.1,240.5 L 240.7,239.7 L 248.4,239.5 L 256.1,239.5 L 263.8,239.5 L 271.4,238.9 L 279.1,238.5 L 286.8,238.5 L 294.4,238.1 L 302.1,237.9 L 309.8,237.5 L 317.5,237.5 L 325.1,237.3 L 332.8,236.6 L 340.5,236.0 L 348.1,235.6 L 355.8,235.4 L 363.5,235.4 L 371.1,235.2 L 378.8,234.8 L 386.5,234.8 L 394.2,234.6 L 401.8,234.0 L 409.5,233.6 L 417.2,233.6 L 424.8,233.6 L 432.5,233.6 L 440.2,233.4 L 447.8,232.8 L 455.5,232.4 L 463.2,232.2 L 470.9,232.0 L 478.5,231.8 L 486.2,231.6 L 493.9,231.4 L 501.5,231.2 L 509.2,230.7 L 516.9,230.5 L 524.5,230.3 L 532.2,229.5 L 539.9,228.7 L 547.6,228.7 L 555.2,228.5 L 562.9,228.3 L 570.6,228.3 L 578.2,228.3 L 585.9,227.9 L 593.6,227.9 L 601.3,226.7 L 608.9,226.5 L 616.6,226.3 L 624.3,226.3 L 631.9,225.9 L 639.6,225.7 L 647.3,225.7 L 654.9,225.5 L 662.6,225.5 L 670.3,225.5 L 678.0,225.1 L 685.6,224.9 L 693.3,224.0 L 701.0,224.2 L 708.6,224.0 L 716.3,223.8 L 724.0,223.8 L 731.6,223.6 L 739.3,223.0 L 747.0,223.0 L 754.7,223.0 L 762.3,223.0 L 770.0,222.6 L 770.0,340 Z" fill="url(#g3)" clip-path="url(#ca)"/>
<path d="M 72.0,244.2 L 79.7,243.6 L 87.3,243.6 L 95.0,243.6 L 102.7,243.4 L 110.4,243.0 L 118.0,242.8 L 125.7,242.6 L 133.4,242.6 L 141.0,242.5 L 148.7,242.3 L 156.4,242.3 L 164.0,242.3 L 171.7,242.3 L 179.4,242.3 L 187.1,242.3 L 194.7,241.9 L 202.4,241.9 L 210.1,241.9 L 217.7,241.1 L 225.4,240.9 L 233.1,240.5 L 240.7,239.7 L 248.4,239.5 L 256.1,239.5 L 263.8,239.5 L 271.4,238.9 L 279.1,238.5 L 286.8,238.5 L 294.4,238.1 L 302.1,237.9 L 309.8,237.5 L 317.5,237.5 L 325.1,237.3 L 332.8,236.6 L 340.5,236.0 L 348.1,235.6 L 355.8,235.4 L 363.5,235.4 L 371.1,235.2 L 378.8,234.8 L 386.5,234.8 L 394.2,234.6 L 401.8,234.0 L 409.5,233.6 L 417.2,233.6 L 424.8,233.6 L 432.5,233.6 L 440.2,233.4 L 447.8,232.8 L 455.5,232.4 L 463.2,232.2 L 470.9,232.0 L 478.5,231.8 L 486.2,231.6 L 493.9,231.4 L 501.5,231.2 L 509.2,230.7 L 516.9,230.5 L 524.5,230.3 L 532.2,229.5 L 539.9,228.7 L 547.6,228.7 L 555.2,228.5 L 562.9,228.3 L 570.6,228.3 L 578.2,228.3 L 585.9,227.9 L 593.6,227.9 L 601.3,226.7 L 608.9,226.5 L 616.6,226.3 L 624.3,226.3 L 631.9,225.9 L 639.6,225.7 L 647.3,225.7 L 654.9,225.5 L 662.6,225.5 L 670.3,225.5 L 678.0,225.1 L 685.6,224.9 L 693.3,224.0 L 701.0,224.2 L 708.6,224.0 L 716.3,223.8 L 724.0,223.8 L 731.6,223.6 L 739.3,223.0 L 747.0,223.0 L 754.7,223.0 L 762.3,223.0 L 770.0,222.6" fill="none" stroke="#BF5AF2" stroke-width="2.5" stroke-linejoin="round" clip-path="url(#ca)"/>
<path d="M 72.0,340 L 72.0,291.4 L 79.7,290.8 L 87.3,290.8 L 95.0,290.8 L 102.7,290.6 L 110.4,290.2 L 118.0,290.0 L 125.7,289.7 L 133.4,289.7 L 141.0,289.5 L 148.7,289.3 L 156.4,289.3 L 164.0,289.3 L 171.7,289.3 L 179.4,289.3 L 187.1,289.3 L 194.7,288.9 L 202.4,288.9 L 210.1,289.1 L 217.7,288.5 L 225.4,288.7 L 233.1,288.1 L 240.7,287.5 L 248.4,287.3 L 256.1,287.5 L 263.8,287.5 L 271.4,286.9 L 279.1,286.7 L 286.8,286.7 L 294.4,286.3 L 302.1,286.1 L 309.8,285.7 L 317.5,285.7 L 325.1,285.5 L 332.8,284.9 L 340.5,284.3 L 348.1,283.9 L 355.8,283.9 L 363.5,283.9 L 371.1,283.8 L 378.8,283.4 L 386.5,283.4 L 394.2,283.2 L 401.8,282.6 L 409.5,282.4 L 417.2,282.4 L 424.8,282.4 L 432.5,282.4 L 440.2,282.2 L 447.8,281.6 L 455.5,281.4 L 463.2,281.2 L 470.9,281.0 L 478.5,281.0 L 486.2,280.8 L 493.9,280.8 L 501.5,280.8 L 509.2,280.2 L 516.9,280.2 L 524.5,280.2 L 532.2,279.8 L 539.9,279.2 L 547.6,279.2 L 555.2,279.0 L 562.9,278.8 L 570.6,278.8 L 578.2,278.8 L 585.9,278.4 L 593.6,278.4 L 601.3,277.3 L 608.9,277.1 L 616.6,276.9 L 624.3,276.9 L 631.9,276.7 L 639.6,276.7 L 647.3,276.7 L 654.9,276.7 L 662.6,276.7 L 670.3,276.7 L 678.0,276.3 L 685.6,276.1 L 693.3,275.1 L 701.0,275.3 L 708.6,275.3 L 716.3,275.1 L 724.0,275.1 L 731.6,275.1 L 739.3,274.7 L 747.0,274.7 L 754.7,274.7 L 762.3,274.7 L 770.0,274.7 L 770.0,340 Z" fill="url(#g4)" clip-path="url(#ca)"/>
<path d="M 72.0,291.4 L 79.7,290.8 L 87.3,290.8 L 95.0,290.8 L 102.7,290.6 L 110.4,290.2 L 118.0,290.0 L 125.7,289.7 L 133.4,289.7 L 141.0,289.5 L 148.7,289.3 L 156.4,289.3 L 164.0,289.3 L 171.7,289.3 L 179.4,289.3 L 187.1,289.3 L 194.7,288.9 L 202.4,288.9 L 210.1,289.1 L 217.7,288.5 L 225.4,288.7 L 233.1,288.1 L 240.7,287.5 L 248.4,287.3 L 256.1,287.5 L 263.8,287.5 L 271.4,286.9 L 279.1,286.7 L 286.8,286.7 L 294.4,286.3 L 302.1,286.1 L 309.8,285.7 L 317.5,285.7 L 325.1,285.5 L 332.8,284.9 L 340.5,284.3 L 348.1,283.9 L 355.8,283.9 L 363.5,283.9 L 371.1,283.8 L 378.8,283.4 L 386.5,283.4 L 394.2,283.2 L 401.8,282.6 L 409.5,282.4 L 417.2,282.4 L 424.8,282.4 L 432.5,282.4 L 440.2,282.2 L 447.8,281.6 L 455.5,281.4 L 463.2,281.2 L 470.9,281.0 L 478.5,281.0 L 486.2,280.8 L 493.9,280.8 L 501.5,280.8 L 509.2,280.2 L 516.9,280.2 L 524.5,280.2 L 532.2,279.8 L 539.9,279.2 L 547.6,279.2 L 555.2,279.0 L 562.9,278.8 L 570.6,278.8 L 578.2,278.8 L 585.9,278.4 L 593.6,278.4 L 601.3,277.3 L 608.9,277.1 L 616.6,276.9 L 624.3,276.9 L 631.9,276.7 L 639.6,276.7 L 647.3,276.7 L 654.9,276.7 L 662.6,276.7 L 670.3,276.7 L 678.0,276.3 L 685.6,276.1 L 693.3,275.1 L 701.0,275.3 L 708.6,275.3 L 716.3,275.1 L 724.0,275.1 L 731.6,275.1 L 739.3,274.7 L 747.0,274.7 L 754.7,274.7 L 762.3,274.7 L 770.0,274.7" fill="none" stroke="#34C759" stroke-width="2.5" stroke-linejoin="round" clip-path="url(#ca)"/>
<text x="114.2" y="55.0" text-anchor="middle" font-size="9" fill="#4F8EF7" opacity="0.85" clip-path="url(#ca)">+0.5% (+8)</text>
<text x="114.2" y="66.0" text-anchor="middle" font-size="9" fill="#BF5AF2" opacity="0.85" clip-path="url(#ca)">+1.0% (+10)</text>
<text x="114.2" y="77.0" text-anchor="middle" font-size="9" fill="#34C759" opacity="0.85" clip-path="url(#ca)">+1.5% (+11)</text>
<text x="259.9" y="55.0" text-anchor="middle" font-size="9" fill="#4F8EF7" opacity="0.85" clip-path="url(#ca)">+4.0% (+65)</text>
<text x="259.9" y="66.0" text-anchor="middle" font-size="9" fill="#BF5AF2" opacity="0.85" clip-path="url(#ca)">+3.5% (+35)</text>
<text x="259.9" y="77.0" text-anchor="middle" font-size="9" fill="#34C759" opacity="0.85" clip-path="url(#ca)">+3.6% (+27)</text>
<text x="463.2" y="55.0" text-anchor="middle" font-size="9" fill="#4F8EF7" opacity="0.85" clip-path="url(#ca)">+4.1% (+70)</text>
<text x="463.2" y="66.0" text-anchor="middle" font-size="9" fill="#BF5AF2" opacity="0.85" clip-path="url(#ca)">+3.5% (+36)</text>
<text x="463.2" y="77.0" text-anchor="middle" font-size="9" fill="#34C759" opacity="0.85" clip-path="url(#ca)">+3.3% (+26)</text>
<text x="670.3" y="55.0" text-anchor="middle" font-size="9" fill="#4F8EF7" opacity="0.85" clip-path="url(#ca)">+3.5% (+61)</text>
<text x="670.3" y="66.0" text-anchor="middle" font-size="9" fill="#BF5AF2" opacity="0.85" clip-path="url(#ca)">+2.7% (+29)</text>
<text x="670.3" y="77.0" text-anchor="middle" font-size="9" fill="#34C759" opacity="0.85" clip-path="url(#ca)">+2.6% (+21)</text>
<rect x="211" y="369" width="12" height="12" fill="#4F8EF7" rx="2"/>
<text x="227" y="379" font-size="12" fill="#111827">Authors</text>
<rect x="351" y="369" width="12" height="12" fill="#BF5AF2" rx="2"/>
<text x="367" y="379" font-size="12" fill="#111827">Contributors</text>
<rect x="491" y="369" width="12" height="12" fill="#34C759" rx="2"/>
<text x="507" y="379" font-size="12" fill="#111827">Non-author contributors</text>
<text x="72" y="394" font-size="8" fill="#e5e7eb">data since Dec 11, 2025</text>
</svg>