<svg xmlns="http://www.w3.org/2000/svg" width="800" height="400" viewBox="0 0 800 400">
<defs>
  <style>text { font-family: -apple-system, BlinkMacSystemFont, 'Segoe UI', Roboto, sans-serif; }</style>
  <linearGradient id="g5" x1="0" y1="0" x2="0" y2="1">
  <stop offset="0%" stop-color="#34C759" stop-opacity="0.25"/>
  <stop offset="100%" stop-color="#34C759" stop-opacity="0"/>
</linearGradient>
<linearGradient id="g6" x1="0" y1="0" x2="0" y2="1">
  <stop offset="0%" stop-color="#4F8EF7" stop-opacity="0.25"/>
  <stop offset="100%" stop-color="#4F8EF7" stop-opacity="0"/>
</linearGradient>
<linearGradient id="g7" x1="0" y1="0" x2="0" y2="1">
  <stop offset="0%" stop-color="#FF6363" stop-opacity="0.25"/>
  <stop offset="100%" stop-color="#FF6363" stop-opacity="0"/>
</linearGradient>
  <clipPath id="ca"><rect x="72" y="45" width="698" height="295"/></clipPath>
</defs>
<rect width="800" height="400" fill="#ffffff" rx="12"/>
<text x="400" y="26" text-anchor="middle" font-size="15" font-weight="600" fill="#111827">Platform Support Over Time</text>
<line x1="72" y1="340.0" x2="770" y2="340.0" stroke="#f3f4f6" stroke-width="1"/>
<text x="66" y="344.0" text-anchor="end" font-size="11" fill="#6b7280">0</text>
<line x1="72" y1="266.3" x2="770" y2="266.3" stroke="#f3f4f6" stroke-width="1"/>
<text x="66" y="270.3" text-anchor="end" font-size="11" fill="#6b7280">200</text>
<line x1="72" y1="192.5" x2="770" y2="192.5" stroke="#f3f4f6" stroke-width="1"/>
<text x="66" y="196.5" text-anchor="end" font-size="11" fill="#6b7280">400</text>
<line x1="72" y1="118.8" x2="770" y2="118.8" stroke="#f3f4f6" stroke-width="1"/>
<text x="66" y="122.8" text-anchor="end" font-size="11" fill="#6b7280">600</text>
<line x1="72" y1="45.0" x2="770" y2="45.0" stroke="#f3f4f6" stroke-width="1"/>
<text x="66" y="49.0" text-anchor="end" font-size="11" fill="#6b7280">800</text>
<line x1="165.1" y1="45" x2="165.1" y2="340" stroke="#e5e7eb" stroke-width="1" stroke-dasharray="3,3" clip-path="url(#ca)"/>
<line x1="366.7" y1="45" x2="366.7" y2="340" stroke="#e5e7eb" stroke-width="1" stroke-dasharray="3,3" clip-path="url(#ca)"/>
<line x1="576.1" y1="45" x2="576.1" y2="340" stroke="#e5e7eb" stroke-width="1" stroke-dasharray="3,3" clip-path="url(#ca)"/>
<text x="72.0" y="358.0" text-anchor="middle" font-size="11" fill="#6b7280">Dec 11</text>
<text x="211.6" y="358.0" text-anchor="middle" font-size="11" fill="#6b7280">Jan 9</text>
<text x="351.2" y="358.0" text-anchor="middle" font-size="11" fill="#6b7280">Jan 30</text>
<text x="490.8" y="358.0" text-anchor="middle" font-size="11" fill="#6b7280">Feb 17</text>
<text x="630.4" y="358.0" text-anchor="middle" font-size="11" fill="#6b7280">Mar 9</text>
<text x="770.0" y="358.0" text-anchor="middle" font-size="11" fill="#6b7280">Mar 28</text>
<line x1="72" y1="45" x2="72" y2="340" stroke="#e5e7eb" stroke-width="1"/>
<line x1="72" y1="340" x2="770" y2="340" stroke="#e5e7eb" stroke-width="1"/>
<text x="-192.5" y="18" text-anchor="middle" font-size="12" fill="#6b7280" transform="rotate(-90)">Extensions</text>
<path d="M 72.0,340 L 72.0,218.3 L 79.8,215.0 L 87.5,214.6 L 95.3,213.2 L 103.0,212.4 L 110.8,208.7 L 118.5,206.5 L 126.3,205.4 L 134.0,203.6 L 141.8,201.3 L 149.6,200.2 L 157.3,199.9 L 165.1,198.8 L 172.8,198.0 L 180.6,197.7 L 188.3,196.6 L 196.1,195.4 L 203.8,194.3 L 211.6,193.2 L 219.4,191.8 L 227.1,190.7 L 234.9,189.6 L 242.6,188.4 L 250.4,186.2 L 258.1,185.5 L 265.9,185.5 L 273.6,182.9 L 281.4,182.2 L 289.2,181.4 L 296.9,180.7 L 304.7,178.9 L 312.4,176.3 L 320.2,175.9 L 327.9,175.5 L 335.7,173.3 L 343.4,172.6 L 351.2,170.7 L 359.0,170.4 L 366.7,170.0 L 374.5,169.3 L 382.2,169.3 L 390.0,169.3 L 397.7,164.1 L 405.5,163.7 L 413.2,162.6 L 421.0,162.3 L 428.8,161.9 L 436.5,160.8 L 444.3,160.1 L 452.0,159.3 L 459.8,157.1 L 467.5,157.1 L 475.3,157.1 L 483.0,156.7 L 490.8,153.0 L 498.6,151.9 L 506.3,151.2 L 514.1,150.1 L 521.8,149.4 L 529.6,149.4 L 537.3,147.5 L 545.1,144.9 L 552.8,144.2 L 560.6,143.8 L 568.4,142.7 L 576.1,142.7 L 583.9,142.0 L 591.6,140.9 L 599.4,140.1 L 607.1,138.7 L 614.9,137.2 L 622.6,136.8 L 630.4,136.8 L 638.2,135.3 L 645.9,135.3 L 653.7,135.3 L 661.4,133.1 L 669.2,132.8 L 676.9,132.4 L 684.7,132.4 L 692.4,132.0 L 700.2,130.6 L 708.0,129.8 L 715.7,128.7 L 723.5,128.7 L 731.2,128.3 L 739.0,126.9 L 746.7,125.8 L 754.5,125.8 L 762.2,125.4 L 770.0,124.7 L 770.0,340 Z" fill="url(#g5)" clip-path="url(#ca)"/>
<path d="M 72.0,218.3 L 79.8,215.0 L 87.5,214.6 L 95.3,213.2 L 103.0,212.4 L 110.8,208.7 L 118.5,206.5 L 126.3,205.4 L 134.0,203.6 L 141.8,201.3 L 149.6,200.2 L 157.3,199.9 L 165.1,198.8 L 172.8,198.0 L 180.6,197.7 L 188.3,196.6 L 196.1,195.4 L 203.8,194.3 L 211.6,193.2 L 219.4,191.8 L 227.1,190.7 L 234.9,189.6 L 242.6,188.4 L 250.4,186.2 L 258.1,185.5 L 265.9,185.5 L 273.6,182.9 L 281.4,182.2 L 289.2,181.4 L 296.9,180.7 L 304.7,178.9 L 312.4,176.3 L 320.2,175.9 L 327.9,175.5 L 335.7,173.3 L 343.4,172.6 L 351.2,170.7 L 359.0,170.4 L 366.7,170.0 L 374.5,169.3 L 382.2,169.3 L 390.0,169.3 L 397.7,164.1 L 405.5,163.7 L 413.2,162.6 L 421.0,162.3 L 428.8,161.9 L 436.5,160.8 L 444.3,160.1 L 452.0,159.3 L 459.8,157.1 L 467.5,157.1 L 475.3,157.1 L 483.0,156.7 L 490.8,153.0 L 498.6,151.9 L 506.3,151.2 L 514.1,150.1 L 521.8,149.4 L 529.6,149.4 L 537.3,147.5 L 545.1,144.9 L 552.8,144.2 L 560.6,143.8 L 568.4,142.7 L 576.1,142.7 L 583.9,142.0 L 591.6,140.9 L 599.4,140.1 L 607.1,138.7 L 614.9,137.2 L 622.6,136.8 L 630.4,136.8 L 638.2,135.3 L 645.9,135.3 L 653.7,135.3 L 661.4,133.1 L 669.2,132.8 L 676.9,132.4 L 684.7,132.4 L 692.4,132.0 L 700.2,130.6 L 708.0,129.8 L 715.7,128.7 L 723.5,128.7 L 731.2,128.3 L 739.0,126.9 L 746.7,125.8 L 754.5,125.8 L 762.2,125.4 L 770.0,124.7" fill="none" stroke="#34C759" stroke-width="2.5" stroke-linejoin="round" clip-path="url(#ca)"/>
<path d="M 72.0,340 L 72.0,193.2 L 79.8,193.2 L 87.5,192.9 L 95.3,191.8 L 103.0,192.1 L 110.8,192.1 L 118.5,190.7 L 126.3,189.6 L 134.0,189.6 L 141.8,189.9 L 149.6,189.6 L 157.3,189.2 L 165.1,188.8 L 172.8,188.8 L 180.6,188.8 L 188.3,189.2 L 196.1,188.4 L 203.8,187.7 L 211.6,185.5 L 219.4,184.0 L 227.1,184.0 L 234.9,183.7 L 242.6,181.4 L 250.4,178.1 L 258.1,177.0 L 265.9,176.3 L 273.6,173.7 L 281.4,171.9 L 289.2,171.1 L 296.9,170.4 L 304.7,169.6 L 312.4,169.3 L 320.2,169.3 L 327.9,166.7 L 335.7,166.0 L 343.4,165.2 L 351.2,165.2 L 359.0,163.4 L 366.7,163.0 L 374.5,161.9 L 382.2,160.4 L 390.0,158.6 L 397.7,156.0 L 405.5,153.4 L 413.2,153.0 L 421.0,152.3 L 428.8,151.6 L 436.5,149.4 L 444.3,149.4 L 452.0,148.6 L 459.8,147.5 L 467.5,146.8 L 475.3,145.3 L 483.0,145.7 L 490.8,141.2 L 498.6,140.9 L 506.3,140.5 L 514.1,139.8 L 521.8,137.6 L 529.6,137.6 L 537.3,135.3 L 545.1,132.8 L 552.8,132.8 L 560.6,132.8 L 568.4,132.4 L 576.1,132.0 L 583.9,131.7 L 591.6,129.8 L 599.4,127.6 L 607.1,126.9 L 614.9,125.4 L 622.6,125.4 L 630.4,124.3 L 638.2,122.1 L 645.9,121.0 L 653.7,120.6 L 661.4,118.0 L 669.2,117.6 L 676.9,117.6 L 684.7,117.3 L 692.4,117.3 L 700.2,115.4 L 708.0,114.7 L 715.7,113.6 L 723.5,113.2 L 731.2,112.5 L 739.0,109.5 L 746.7,105.5 L 754.5,105.1 L 762.2,104.4 L 770.0,104.0 L 770.0,340 Z" fill="url(#g6)" clip-path="url(#ca)"/>
<path d="M 72.0,193.2 L 79.8,193.2 L 87.5,192.9 L 95.3,191.8 L 103.0,192.1 L 110.8,192.1 L 118.5,190.7 L 126.3,189.6 L 134.0,189.6 L 141.8,189.9 L 149.6,189.6 L 157.3,189.2 L 165.1,188.8 L 172.8,188.8 L 180.6,188.8 L 188.3,189.2 L 196.1,188.4 L 203.8,187.7 L 211.6,185.5 L 219.4,184.0 L 227.1,184.0 L 234.9,183.7 L 242.6,181.4 L 250.4,178.1 L 258.1,177.0 L 265.9,176.3 L 273.6,173.7 L 281.4,171.9 L 289.2,171.1 L 296.9,170.4 L 304.7,169.6 L 312.4,169.3 L 320.2,169.3 L 327.9,166.7 L 335.7,166.0 L 343.4,165.2 L 351.2,165.2 L 359.0,163.4 L 366.7,163.0 L 374.5,161.9 L 382.2,160.4 L 390.0,158.6 L 397.7,156.0 L 405.5,153.4 L 413.2,153.0 L 421.0,152.3 L 428.8,151.6 L 436.5,149.4 L 444.3,149.4 L 452.0,148.6 L 459.8,147.5 L 467.5,146.8 L 475.3,145.3 L 483.0,145.7 L 490.8,141.2 L 498.6,140.9 L 506.3,140.5 L 514.1,139.8 L 521.8,137.6 L 529.6,137.6 L 537.3,135.3 L 545.1,132.8 L 552.8,132.8 L 560.6,132.8 L 568.4,132.4 L 576.1,132.0 L 583.9,131.7 L 591.6,129.8 L 599.4,127.6 L 607.1,126.9 L 614.9,125.4 L 622.6,125.4 L 630.4,124.3 L 638.2,122.1 L 645.9,121.0 L 653.7,120.6 L 661.4,118.0 L 669.2,117.6 L 676.9,117.6 L 684.7,117.3 L 692.4,117.3 L 700.2,115.4 L 708.0,114.7 L 715.7,113.6 L 723.5,113.2 L 731.2,112.5 L 739.0,109.5 L 746.7,105.5 L 754.5,105.1 L 762.2,104.4 L 770.0,104.0" fill="none" stroke="#4F8EF7" stroke-width="2.5" stroke-linejoin="round" clip-path="url(#ca)"/>
<path d="M 72.0,340 L 72.0,337.8 L 79.8,337.4 L 87.5,337.4 L 95.3,337.1 L 103.0,337.1 L 110.8,337.1 L 118.5,337.1 L 126.3,337.1 L 134.0,336.3 L 141.8,336.3 L 149.6,336.3 L 157.3,336.3 L 165.1,336.3 L 172.8,335.9 L 180.6,335.9 L 188.3,335.9 L 196.1,335.9 L 203.8,335.9 L 211.6,335.6 L 219.4,334.8 L 227.1,334.5 L 234.9,334.5 L 242.6,334.5 L 250.4,334.1 L 258.1,334.1 L 265.9,334.1 L 273.6,333.7 L 281.4,333.7 L 289.2,333.7 L 296.9,333.4 L 304.7,333.4 L 312.4,333.4 L 320.2,333.4 L 327.9,333.0 L 335.7,333.0 L 343.4,333.0 L 351.2,333.0 L 359.0,333.0 L 366.7,333.0 L 374.5,333.0 L 382.2,333.0 L 390.0,333.0 L 397.7,333.0 L 405.5,333.0 L 413.2,333.0 L 421.0,333.0 L 428.8,332.6 L 436.5,332.6 L 444.3,332.6 L 452.0,332.6 L 459.8,332.6 L 467.5,332.6 L 475.3,332.6 L 483.0,332.6 L 490.8,332.6 L 498.6,332.6 L 506.3,332.6 L 514.1,332.6 L 521.8,332.3 L 529.6,332.3 L 537.3,332.3 L 545.1,332.3 L 552.8,332.3 L 560.6,332.3 L 568.4,332.3 L 576.1,332.3 L 583.9,332.3 L 591.6,332.3 L 599.4,332.3 L 607.1,332.3 L 614.9,332.3 L 622.6,332.3 L 630.4,332.3 L 638.2,332.3 L 645.9,332.3 L 653.7,332.3 L 661.4,332.3 L 669.2,332.3 L 676.9,332.3 L 684.7,332.3 L 692.4,332.3 L 700.2,332.3 L 708.0,332.3 L 715.7,332.3 L 723.5,332.3 L 731.2,332.3 L 739.0,332.3 L 746.7,332.3 L 754.5,332.3 L 762.2,332.3 L 770.0,332.3 L 770.0,340 Z" fill="url(#g7)" clip-path="url(#ca)"/>
<path d="M 72.0,337.8 L 79.8,337.4 L 87.5,337.4 L 95.3,337.1 L 103.0,337.1 L 110.8,337.1 L 118.5,337.1 L 126.3,337.1 L 134.0,336.3 L 141.8,336.3 L 149.6,336.3 L 157.3,336.3 L 165.1,336.3 L 172.8,335.9 L 180.6,335.9 L 188.3,335.9 L 196.1,335.9 L 203.8,335.9 L 211.6,335.6 L 219.4,334.8 L 227.1,334.5 L 234.9,334.5 L 242.6,334.5 L 250.4,334.1 L 258.1,334.1 L 265.9,334.1 L 273.6,333.7 L 281.4,333.7 L 289.2,333.7 L 296.9,333.4 L 304.7,333.4 L 312.4,333.4 L 320.2,333.4 L 327.9,333.0 L 335.7,333.0 L 343.4,333.0 L 351.2,333.0 L 359.0,333.0 L 366.7,333.0 L 374.5,333.0 L 382.2,333.0 L 390.0,333.0 L 397.7,333.0 L 405.5,333.0 L 413.2,333.0 L 421.0,333.0 L 428.8,332.6 L 436.5,332.6 L 444.3,332.6 L 452.0,332.6 L 459.8,332.6 L 467.5,332.6 L 475.3,332.6 L 483.0,332.6 L 490.8,332.6 L 498.6,332.6 L 506.3,332.6 L 514.1,332.6 L 521.8,332.3 L 529.6,332.3 L 537.3,332.3 L 545.1,332.3 L 552.8,332.3 L 560.6,332.3 L 568.4,332.3 L 576.1,332.3 L 583.9,332.3 L 591.6,332.3 L 599.4,332.3 L 607.1,332.3 L 614.9,332.3 L 622.6,332.3 L 630.4,332.3 L 638.2,332.3 L 645.9,332.3 L 653.7,332.3 L 661.4,332.3 L 669.2,332.3 L 676.9,332.3 L 684.7,332.3 L 692.4,332.3 L 700.2,332.3 L 708.0,332.3 L 715.7,332.3 L 723.5,332.3 L 731.2,332.3 L 739.0,332.3 L 746.7,332.3 L 754.5,332.3 L 762.2,332.3 L 770.0,332.3" fill="none" stroke="#FF6363" stroke-width="2.5" stroke-linejoin="round" clip-path="url(#ca)"/>
<text x="114.7" y="55.0" text-anchor="middle" font-size="9" fill="#34C759" opacity="0.85" clip-path="url(#ca)">+15.2% (+50)</text>
<text x="114.7" y="66.0" text-anchor="middle" font-size="9" fill="#4F8EF7" opacity="0.85" clip-path="url(#ca)">+2.8% (+11)</text>
<text x="114.7" y="77.0" text-anchor="middle" font-size="9" fill="#FF6363" opacity="0.85" clip-path="url(#ca)">+66.7% (+4)</text>
<text x="262.0" y="55.0" text-anchor="middle" font-size="9" fill="#34C759" opacity="0.85" clip-path="url(#ca)">+20.1% (+77)</text>
<text x="262.0" y="66.0" text-anchor="middle" font-size="9" fill="#4F8EF7" opacity="0.85" clip-path="url(#ca)">+16.8% (+69)</text>
<text x="262.0" y="77.0" text-anchor="middle" font-size="9" fill="#FF6363" opacity="0.85" clip-path="url(#ca)">+90.0% (+9)</text>
<text x="467.5" y="55.0" text-anchor="middle" font-size="9" fill="#34C759" opacity="0.85" clip-path="url(#ca)">+16.1% (+74)</text>
<text x="467.5" y="66.0" text-anchor="middle" font-size="9" fill="#4F8EF7" opacity="0.85" clip-path="url(#ca)">+17.3% (+83)</text>
<text x="467.5" y="77.0" text-anchor="middle" font-size="9" fill="#FF6363" opacity="0.85" clip-path="url(#ca)">+10.5% (+2)</text>
<text x="673.1" y="55.0" text-anchor="middle" font-size="9" fill="#34C759" opacity="0.85" clip-path="url(#ca)">+9.2% (+49)</text>
<text x="673.1" y="66.0" text-anchor="middle" font-size="9" fill="#4F8EF7" opacity="0.85" clip-path="url(#ca)">+13.5% (+76)</text>
<text x="673.1" y="77.0" text-anchor="middle" font-size="9" fill="#FF6363" opacity="0.85" clip-path="url(#ca)">+0.0% (+0)</text>
<rect x="211" y="369" width="12" height="12" fill="#34C759" rx="2"/>
<text x="227" y="379" font-size="12" fill="#111827">macOS + Windows</text>
<rect x="351" y="369" width="12" height="12" fill="#4F8EF7" rx="2"/>
<text x="367" y="379" font-size="12" fill="#111827">macOS only</text>
<rect x="491" y="369" width="12" height="12" fill="#FF6363" rx="2"/>
<text x="507" y="379" font-size="12" fill="#111827">Windows only</text>
<text x="72" y="394" font-size="8" fill="#e5e7eb">data since Dec 11, 2025</text>
</svg>