<svg xmlns="http://www.w3.org/2000/svg" width="800" height="400" viewBox="0 0 800 400">
<defs>
  <style>text { font-family: -apple-system, BlinkMacSystemFont, 'Segoe UI', Roboto, sans-serif; }</style>
  <linearGradient id="g5" x1="0" y1="0" x2="0" y2="1">
  <stop offset="0%" stop-color="#34C759" stop-opacity="0.25"/>
  <stop offset="100%" stop-color="#34C759" stop-opacity="0"/>
</linearGradient>
<linearGradient id="g6" x1="0" y1="0" x2="0" y2="1">
  <stop offset="0%" stop-color="#4F8EF7" stop-opacity="0.25"/>
  <stop offset="100%" stop-color="#4F8EF7" stop-opacity="0"/>
</linearGradient>
<linearGradient id="g7" x1="0" y1="0" x2="0" y2="1">
  <stop offset="0%" stop-color="#FF6363" stop-opacity="0.25"/>
  <stop offset="100%" stop-color="#FF6363" stop-opacity="0"/>
</linearGradient>
  <clipPath id="ca"><rect x="72" y="45" width="698" height="295"/></clipPath>
</defs>
<rect width="800" height="400" fill="#ffffff" rx="12"/>
<text x="400" y="26" text-anchor="middle" font-size="15" font-weight="600" fill="#111827">Platform Support Over Time</text>
<line x1="72" y1="340.0" x2="770" y2="340.0" stroke="#f3f4f6" stroke-width="1"/>
<text x="66" y="344.0" text-anchor="end" font-size="11" fill="#6b7280">0</text>
<line x1="72" y1="281.0" x2="770" y2="281.0" stroke="#f3f4f6" stroke-width="1"/>
<text x="66" y="285.0" text-anchor="end" font-size="11" fill="#6b7280">200</text>
<line x1="72" y1="222.0" x2="770" y2="222.0" stroke="#f3f4f6" stroke-width="1"/>
<text x="66" y="226.0" text-anchor="end" font-size="11" fill="#6b7280">400</text>
<line x1="72" y1="163.0" x2="770" y2="163.0" stroke="#f3f4f6" stroke-width="1"/>
<text x="66" y="167.0" text-anchor="end" font-size="11" fill="#6b7280">600</text>
<line x1="72" y1="104.0" x2="770" y2="104.0" stroke="#f3f4f6" stroke-width="1"/>
<text x="66" y="108.0" text-anchor="end" font-size="11" fill="#6b7280">800</text>
<line x1="72" y1="45.0" x2="770" y2="45.0" stroke="#f3f4f6" stroke-width="1"/>
<text x="66" y="49.0" text-anchor="end" font-size="11" fill="#6b7280">1.0k</text>
<line x1="128.2" y1="45" x2="128.2" y2="340" stroke="#e5e7eb" stroke-width="1" stroke-dasharray="3,3" clip-path="url(#ca)"/>
<line x1="250.0" y1="45" x2="250.0" y2="340" stroke="#e5e7eb" stroke-width="1" stroke-dasharray="3,3" clip-path="url(#ca)"/>
<line x1="376.5" y1="45" x2="376.5" y2="340" stroke="#e5e7eb" stroke-width="1" stroke-dasharray="3,3" clip-path="url(#ca)"/>
<line x1="503.0" y1="45" x2="503.0" y2="340" stroke="#e5e7eb" stroke-width="1" stroke-dasharray="3,3" clip-path="url(#ca)"/>
<line x1="629.5" y1="45" x2="629.5" y2="340" stroke="#e5e7eb" stroke-width="1" stroke-dasharray="3,3" clip-path="url(#ca)"/>
<line x1="751.3" y1="45" x2="751.3" y2="340" stroke="#e5e7eb" stroke-width="1" stroke-dasharray="3,3" clip-path="url(#ca)"/>
<text x="72.0" y="358.0" text-anchor="middle" font-size="11" fill="#6b7280">Dec 11</text>
<text x="212.5" y="358.0" text-anchor="middle" font-size="11" fill="#6b7280">Jan 24</text>
<text x="353.1" y="358.0" text-anchor="middle" font-size="11" fill="#6b7280">Feb 24</text>
<text x="488.9" y="358.0" text-anchor="middle" font-size="11" fill="#6b7280">Mar 27</text>
<text x="629.5" y="358.0" text-anchor="middle" font-size="11" fill="#6b7280">May 1</text>
<text x="770.0" y="358.0" text-anchor="middle" font-size="11" fill="#6b7280">Jun 6</text>
<line x1="72" y1="45" x2="72" y2="340" stroke="#e5e7eb" stroke-width="1"/>
<line x1="72" y1="340" x2="770" y2="340" stroke="#e5e7eb" stroke-width="1"/>
<text x="-192.5" y="18" text-anchor="middle" font-size="12" fill="#6b7280" transform="rotate(-90)">Extensions</text>
<path d="M 72.0,340 L 72.0,242.6 L 76.7,240.0 L 81.4,239.7 L 86.1,238.5 L 90.7,237.9 L 95.4,235.0 L 100.1,233.2 L 104.8,232.3 L 109.5,230.8 L 114.2,229.1 L 118.8,228.2 L 123.5,227.9 L 128.2,227.0 L 132.9,226.4 L 137.6,226.1 L 142.3,225.2 L 147.0,224.4 L 151.6,223.5 L 156.3,222.6 L 161.0,221.4 L 165.7,220.5 L 170.4,219.6 L 175.1,218.8 L 179.7,217.0 L 184.4,216.4 L 189.1,216.4 L 193.8,214.3 L 198.5,213.7 L 203.2,213.2 L 207.9,212.6 L 212.5,211.1 L 217.2,209.0 L 221.9,208.7 L 226.6,208.4 L 231.3,206.7 L 236.0,206.1 L 240.6,204.6 L 245.3,204.3 L 250.0,204.0 L 254.7,203.4 L 259.4,203.4 L 264.1,203.4 L 268.8,199.3 L 273.4,199.0 L 278.1,198.1 L 282.8,197.8 L 287.5,197.5 L 292.2,196.6 L 296.9,196.0 L 301.5,195.4 L 306.2,193.7 L 310.9,193.7 L 315.6,193.7 L 320.3,193.4 L 325.0,190.4 L 329.7,189.6 L 334.3,189.0 L 339.0,188.1 L 343.7,187.5 L 348.4,187.5 L 353.1,186.0 L 357.8,183.9 L 362.4,183.4 L 367.1,183.1 L 371.8,182.2 L 376.5,182.2 L 381.2,181.6 L 385.9,180.7 L 390.6,180.1 L 395.2,178.9 L 399.9,177.8 L 404.6,177.5 L 409.3,177.5 L 414.0,176.3 L 418.7,176.3 L 423.3,176.3 L 428.0,174.5 L 432.7,174.2 L 437.4,173.9 L 442.1,173.9 L 446.8,173.6 L 451.4,172.4 L 456.1,171.9 L 460.8,171.0 L 465.5,171.0 L 470.2,170.7 L 474.9,169.5 L 479.6,168.6 L 484.2,168.6 L 488.9,168.3 L 493.6,167.7 L 498.3,165.7 L 503.0,165.1 L 507.7,164.2 L 512.3,164.2 L 517.0,163.6 L 521.7,163.3 L 526.4,163.0 L 531.1,162.7 L 535.8,162.4 L 540.5,162.4 L 545.1,162.1 L 549.8,161.8 L 554.5,160.9 L 559.2,159.8 L 563.9,159.5 L 568.6,158.6 L 573.2,158.6 L 577.9,157.4 L 582.6,157.1 L 587.3,157.1 L 592.0,157.1 L 596.7,156.2 L 601.4,155.9 L 606.0,155.9 L 610.7,155.9 L 615.4,155.6 L 620.1,154.4 L 624.8,154.2 L 629.5,153.3 L 634.1,152.7 L 638.8,152.7 L 643.5,151.8 L 648.2,151.2 L 652.9,151.2 L 657.6,150.9 L 662.3,149.4 L 666.9,148.0 L 671.6,147.7 L 676.3,147.1 L 681.0,145.9 L 685.7,145.9 L 690.4,145.3 L 695.0,143.8 L 699.7,141.2 L 704.4,140.3 L 709.1,140.3 L 713.8,140.3 L 718.5,140.3 L 723.2,140.3 L 727.8,139.1 L 732.5,138.2 L 737.2,138.2 L 741.9,138.2 L 746.6,138.2 L 751.3,137.3 L 755.9,137.3 L 760.6,136.5 L 765.3,135.6 L 770.0,135.3 L 770.0,340 Z" fill="url(#g5)" clip-path="url(#ca)"/>
<path d="M 72.0,242.6 L 76.7,240.0 L 81.4,239.7 L 86.1,238.5 L 90.7,237.9 L 95.4,235.0 L 100.1,233.2 L 104.8,232.3 L 109.5,230.8 L 114.2,229.1 L 118.8,228.2 L 123.5,227.9 L 128.2,227.0 L 132.9,226.4 L 137.6,226.1 L 142.3,225.2 L 147.0,224.4 L 151.6,223.5 L 156.3,222.6 L 161.0,221.4 L 165.7,220.5 L 170.4,219.6 L 175.1,218.8 L 179.7,217.0 L 184.4,216.4 L 189.1,216.4 L 193.8,214.3 L 198.5,213.7 L 203.2,213.2 L 207.9,212.6 L 212.5,211.1 L 217.2,209.0 L 221.9,208.7 L 226.6,208.4 L 231.3,206.7 L 236.0,206.1 L 240.6,204.6 L 245.3,204.3 L 250.0,204.0 L 254.7,203.4 L 259.4,203.4 L 264.1,203.4 L 268.8,199.3 L 273.4,199.0 L 278.1,198.1 L 282.8,197.8 L 287.5,197.5 L 292.2,196.6 L 296.9,196.0 L 301.5,195.4 L 306.2,193.7 L 310.9,193.7 L 315.6,193.7 L 320.3,193.4 L 325.0,190.4 L 329.7,189.6 L 334.3,189.0 L 339.0,188.1 L 343.7,187.5 L 348.4,187.5 L 353.1,186.0 L 357.8,183.9 L 362.4,183.4 L 367.1,183.1 L 371.8,182.2 L 376.5,182.2 L 381.2,181.6 L 385.9,180.7 L 390.6,180.1 L 395.2,178.9 L 399.9,177.8 L 404.6,177.5 L 409.3,177.5 L 414.0,176.3 L 418.7,176.3 L 423.3,176.3 L 428.0,174.5 L 432.7,174.2 L 437.4,173.9 L 442.1,173.9 L 446.8,173.6 L 451.4,172.4 L 456.1,171.9 L 460.8,171.0 L 465.5,171.0 L 470.2,170.7 L 474.9,169.5 L 479.6,168.6 L 484.2,168.6 L 488.9,168.3 L 493.6,167.7 L 498.3,165.7 L 503.0,165.1 L 507.7,164.2 L 512.3,164.2 L 517.0,163.6 L 521.7,163.3 L 526.4,163.0 L 531.1,162.7 L 535.8,162.4 L 540.5,162.4 L 545.1,162.1 L 549.8,161.8 L 554.5,160.9 L 559.2,159.8 L 563.9,159.5 L 568.6,158.6 L 573.2,158.6 L 577.9,157.4 L 582.6,157.1 L 587.3,157.1 L 592.0,157.1 L 596.7,156.2 L 601.4,155.9 L 606.0,155.9 L 610.7,155.9 L 615.4,155.6 L 620.1,154.4 L 624.8,154.2 L 629.5,153.3 L 634.1,152.7 L 638.8,152.7 L 643.5,151.8 L 648.2,151.2 L 652.9,151.2 L 657.6,150.9 L 662.3,149.4 L 666.9,148.0 L 671.6,147.7 L 676.3,147.1 L 681.0,145.9 L 685.7,145.9 L 690.4,145.3 L 695.0,143.8 L 699.7,141.2 L 704.4,140.3 L 709.1,140.3 L 713.8,140.3 L 718.5,140.3 L 723.2,140.3 L 727.8,139.1 L 732.5,138.2 L 737.2,138.2 L 741.9,138.2 L 746.6,138.2 L 751.3,137.3 L 755.9,137.3 L 760.6,136.5 L 765.3,135.6 L 770.0,135.3" fill="none" stroke="#34C759" stroke-width="2.5" stroke-linejoin="round" clip-path="url(#ca)"/>
<path d="M 72.0,340 L 72.0,222.6 L 76.7,222.6 L 81.4,222.3 L 86.1,221.4 L 90.7,221.7 L 95.4,221.7 L 100.1,220.5 L 104.8,219.6 L 109.5,219.6 L 114.2,219.9 L 118.8,219.6 L 123.5,219.3 L 128.2,219.1 L 132.9,219.1 L 137.6,219.1 L 142.3,219.3 L 147.0,218.8 L 151.6,218.2 L 156.3,216.4 L 161.0,215.2 L 165.7,215.2 L 170.4,214.9 L 175.1,213.2 L 179.7,210.5 L 184.4,209.6 L 189.1,209.0 L 193.8,207.0 L 198.5,205.5 L 203.2,204.9 L 207.9,204.3 L 212.5,203.7 L 217.2,203.4 L 221.9,203.4 L 226.6,201.3 L 231.3,200.8 L 236.0,200.2 L 240.6,200.2 L 245.3,198.7 L 250.0,198.4 L 254.7,197.5 L 259.4,196.3 L 264.1,194.9 L 268.8,192.8 L 273.4,190.7 L 278.1,190.4 L 282.8,189.8 L 287.5,189.3 L 292.2,187.5 L 296.9,187.5 L 301.5,186.9 L 306.2,186.0 L 310.9,185.4 L 315.6,184.2 L 320.3,184.5 L 325.0,181.0 L 329.7,180.7 L 334.3,180.4 L 339.0,179.8 L 343.7,178.0 L 348.4,178.0 L 353.1,176.3 L 357.8,174.2 L 362.4,174.2 L 367.1,174.2 L 371.8,173.9 L 376.5,173.6 L 381.2,173.3 L 385.9,171.9 L 390.6,170.1 L 395.2,169.5 L 399.9,168.3 L 404.6,168.3 L 409.3,167.4 L 414.0,165.7 L 418.7,164.8 L 423.3,164.5 L 428.0,162.4 L 432.7,162.1 L 437.4,162.1 L 442.1,161.8 L 446.8,161.8 L 451.4,160.3 L 456.1,159.8 L 460.8,158.9 L 465.5,158.6 L 470.2,158.0 L 474.9,155.6 L 479.6,152.4 L 484.2,152.1 L 488.9,151.5 L 493.6,151.2 L 498.3,149.7 L 503.0,118.5 L 507.7,117.9 L 512.3,116.4 L 517.0,116.4 L 521.7,116.4 L 526.4,116.7 L 531.1,116.4 L 535.8,114.6 L 540.5,114.0 L 545.1,113.7 L 549.8,113.4 L 554.5,112.3 L 559.2,110.5 L 563.9,110.5 L 568.6,110.5 L 573.2,110.2 L 577.9,109.9 L 582.6,109.9 L 587.3,109.3 L 592.0,108.4 L 596.7,106.9 L 601.4,106.4 L 606.0,106.1 L 610.7,106.1 L 615.4,105.8 L 620.1,105.2 L 624.8,104.9 L 629.5,103.4 L 634.1,103.4 L 638.8,102.8 L 643.5,101.6 L 648.2,100.2 L 652.9,99.9 L 657.6,99.6 L 662.3,96.9 L 666.9,96.3 L 671.6,95.7 L 676.3,95.7 L 681.0,94.6 L 685.7,94.0 L 690.4,92.5 L 695.0,91.9 L 699.7,91.0 L 704.4,90.7 L 709.1,89.5 L 713.8,88.7 L 718.5,88.4 L 723.2,87.8 L 727.8,86.6 L 732.5,86.0 L 737.2,85.1 L 741.9,84.5 L 746.6,84.2 L 751.3,83.6 L 755.9,82.8 L 760.6,82.2 L 765.3,81.6 L 770.0,80.7 L 770.0,340 Z" fill="url(#g6)" clip-path="url(#ca)"/>
<path d="M 72.0,222.6 L 76.7,222.6 L 81.4,222.3 L 86.1,221.4 L 90.7,221.7 L 95.4,221.7 L 100.1,220.5 L 104.8,219.6 L 109.5,219.6 L 114.2,219.9 L 118.8,219.6 L 123.5,219.3 L 128.2,219.1 L 132.9,219.1 L 137.6,219.1 L 142.3,219.3 L 147.0,218.8 L 151.6,218.2 L 156.3,216.4 L 161.0,215.2 L 165.7,215.2 L 170.4,214.9 L 175.1,213.2 L 179.7,210.5 L 184.4,209.6 L 189.1,209.0 L 193.8,207.0 L 198.5,205.5 L 203.2,204.9 L 207.9,204.3 L 212.5,203.7 L 217.2,203.4 L 221.9,203.4 L 226.6,201.3 L 231.3,200.8 L 236.0,200.2 L 240.6,200.2 L 245.3,198.7 L 250.0,198.4 L 254.7,197.5 L 259.4,196.3 L 264.1,194.9 L 268.8,192.8 L 273.4,190.7 L 278.1,190.4 L 282.8,189.8 L 287.5,189.3 L 292.2,187.5 L 296.9,187.5 L 301.5,186.9 L 306.2,186.0 L 310.9,185.4 L 315.6,184.2 L 320.3,184.5 L 325.0,181.0 L 329.7,180.7 L 334.3,180.4 L 339.0,179.8 L 343.7,178.0 L 348.4,178.0 L 353.1,176.3 L 357.8,174.2 L 362.4,174.2 L 367.1,174.2 L 371.8,173.9 L 376.5,173.6 L 381.2,173.3 L 385.9,171.9 L 390.6,170.1 L 395.2,169.5 L 399.9,168.3 L 404.6,168.3 L 409.3,167.4 L 414.0,165.7 L 418.7,164.8 L 423.3,164.5 L 428.0,162.4 L 432.7,162.1 L 437.4,162.1 L 442.1,161.8 L 446.8,161.8 L 451.4,160.3 L 456.1,159.8 L 460.8,158.9 L 465.5,158.6 L 470.2,158.0 L 474.9,155.6 L 479.6,152.4 L 484.2,152.1 L 488.9,151.5 L 493.6,151.2 L 498.3,149.7 L 503.0,118.5 L 507.7,117.9 L 512.3,116.4 L 517.0,116.4 L 521.7,116.4 L 526.4,116.7 L 531.1,116.4 L 535.8,114.6 L 540.5,114.0 L 545.1,113.7 L 549.8,113.4 L 554.5,112.3 L 559.2,110.5 L 563.9,110.5 L 568.6,110.5 L 573.2,110.2 L 577.9,109.9 L 582.6,109.9 L 587.3,109.3 L 592.0,108.4 L 596.7,106.9 L 601.4,106.4 L 606.0,106.1 L 610.7,106.1 L 615.4,105.8 L 620.1,105.2 L 624.8,104.9 L 629.5,103.4 L 634.1,103.4 L 638.8,102.8 L 643.5,101.6 L 648.2,100.2 L 652.9,99.9 L 657.6,99.6 L 662.3,96.9 L 666.9,96.3 L 671.6,95.7 L 676.3,95.7 L 681.0,94.6 L 685.7,94.0 L 690.4,92.5 L 695.0,91.9 L 699.7,91.0 L 704.4,90.7 L 709.1,89.5 L 713.8,88.7 L 718.5,88.4 L 723.2,87.8 L 727.8,86.6 L 732.5,86.0 L 737.2,85.1 L 741.9,84.5 L 746.6,84.2 L 751.3,83.6 L 755.9,82.8 L 760.6,82.2 L 765.3,81.6 L 770.0,80.7" fill="none" stroke="#4F8EF7" stroke-width="2.5" stroke-linejoin="round" clip-path="url(#ca)"/>
<path d="M 72.0,340 L 72.0,338.2 L 76.7,337.9 L 81.4,337.9 L 86.1,337.6 L 90.7,337.6 L 95.4,337.6 L 100.1,337.6 L 104.8,337.6 L 109.5,337.1 L 114.2,337.1 L 118.8,337.1 L 123.5,337.1 L 128.2,337.1 L 132.9,336.8 L 137.6,336.8 L 142.3,336.8 L 147.0,336.8 L 151.6,336.8 L 156.3,336.5 L 161.0,335.9 L 165.7,335.6 L 170.4,335.6 L 175.1,335.6 L 179.7,335.3 L 184.4,335.3 L 189.1,335.3 L 193.8,335.0 L 198.5,335.0 L 203.2,335.0 L 207.9,334.7 L 212.5,334.7 L 217.2,334.7 L 221.9,334.7 L 226.6,334.4 L 231.3,334.4 L 236.0,334.4 L 240.6,334.4 L 245.3,334.4 L 250.0,334.4 L 254.7,334.4 L 259.4,334.4 L 264.1,334.4 L 268.8,334.4 L 273.4,334.4 L 278.1,334.4 L 282.8,334.4 L 287.5,334.1 L 292.2,334.1 L 296.9,334.1 L 301.5,334.1 L 306.2,334.1 L 310.9,334.1 L 315.6,334.1 L 320.3,334.1 L 325.0,334.1 L 329.7,334.1 L 334.3,334.1 L 339.0,334.1 L 343.7,333.8 L 348.4,333.8 L 353.1,333.8 L 357.8,333.8 L 362.4,333.8 L 367.1,333.8 L 371.8,333.8 L 376.5,333.8 L 381.2,333.8 L 385.9,333.8 L 390.6,333.8 L 395.2,333.8 L 399.9,333.8 L 404.6,333.8 L 409.3,333.8 L 414.0,333.8 L 418.7,333.8 L 423.3,333.8 L 428.0,333.8 L 432.7,333.8 L 437.4,333.8 L 442.1,333.8 L 446.8,333.8 L 451.4,333.8 L 456.1,333.8 L 460.8,333.8 L 465.5,333.8 L 470.2,333.8 L 474.9,333.8 L 479.6,333.8 L 484.2,333.8 L 488.9,333.8 L 493.6,333.8 L 498.3,333.8 L 503.0,333.8 L 507.7,333.8 L 512.3,333.5 L 517.0,333.5 L 521.7,333.5 L 526.4,333.5 L 531.1,333.5 L 535.8,333.2 L 540.5,333.2 L 545.1,333.2 L 549.8,333.2 L 554.5,332.9 L 559.2,332.9 L 563.9,332.6 L 568.6,332.6 L 573.2,332.6 L 577.9,332.6 L 582.6,332.6 L 587.3,332.6 L 592.0,332.6 L 596.7,332.6 L 601.4,332.6 L 606.0,332.6 L 610.7,332.6 L 615.4,332.6 L 620.1,332.6 L 624.8,332.6 L 629.5,332.6 L 634.1,332.6 L 638.8,332.6 L 643.5,332.6 L 648.2,332.6 L 652.9,332.6 L 657.6,332.6 L 662.3,332.6 L 666.9,332.6 L 671.6,332.6 L 676.3,332.6 L 681.0,332.6 L 685.7,332.6 L 690.4,332.6 L 695.0,332.6 L 699.7,332.6 L 704.4,332.6 L 709.1,332.6 L 713.8,332.6 L 718.5,332.6 L 723.2,332.6 L 727.8,332.6 L 732.5,332.6 L 737.2,332.6 L 741.9,332.6 L 746.6,332.6 L 751.3,332.6 L 755.9,332.6 L 760.6,332.6 L 765.3,332.6 L 770.0,332.6 L 770.0,340 Z" fill="url(#g7)" clip-path="url(#ca)"/>
<path d="M 72.0,338.2 L 76.7,337.9 L 81.4,337.9 L 86.1,337.6 L 90.7,337.6 L 95.4,337.6 L 100.1,337.6 L 104.8,337.6 L 109.5,337.1 L 114.2,337.1 L 118.8,337.1 L 123.5,337.1 L 128.2,337.1 L 132.9,336.8 L 137.6,336.8 L 142.3,336.8 L 147.0,336.8 L 151.6,336.8 L 156.3,336.5 L 161.0,335.9 L 165.7,335.6 L 170.4,335.6 L 175.1,335.6 L 179.7,335.3 L 184.4,335.3 L 189.1,335.3 L 193.8,335.0 L 198.5,335.0 L 203.2,335.0 L 207.9,334.7 L 212.5,334.7 L 217.2,334.7 L 221.9,334.7 L 226.6,334.4 L 231.3,334.4 L 236.0,334.4 L 240.6,334.4 L 245.3,334.4 L 250.0,334.4 L 254.7,334.4 L 259.4,334.4 L 264.1,334.4 L 268.8,334.4 L 273.4,334.4 L 278.1,334.4 L 282.8,334.4 L 287.5,334.1 L 292.2,334.1 L 296.9,334.1 L 301.5,334.1 L 306.2,334.1 L 310.9,334.1 L 315.6,334.1 L 320.3,334.1 L 325.0,334.1 L 329.7,334.1 L 334.3,334.1 L 339.0,334.1 L 343.7,333.8 L 348.4,333.8 L 353.1,333.8 L 357.8,333.8 L 362.4,333.8 L 367.1,333.8 L 371.8,333.8 L 376.5,333.8 L 381.2,333.8 L 385.9,333.8 L 390.6,333.8 L 395.2,333.8 L 399.9,333.8 L 404.6,333.8 L 409.3,333.8 L 414.0,333.8 L 418.7,333.8 L 423.3,333.8 L 428.0,333.8 L 432.7,333.8 L 437.4,333.8 L 442.1,333.8 L 446.8,333.8 L 451.4,333.8 L 456.1,333.8 L 460.8,333.8 L 465.5,333.8 L 470.2,333.8 L 474.9,333.8 L 479.6,333.8 L 484.2,333.8 L 488.9,333.8 L 493.6,333.8 L 498.3,333.8 L 503.0,333.8 L 507.7,333.8 L 512.3,333.5 L 517.0,333.5 L 521.7,333.5 L 526.4,333.5 L 531.1,333.5 L 535.8,333.2 L 540.5,333.2 L 545.1,333.2 L 549.8,333.2 L 554.5,332.9 L 559.2,332.9 L 563.9,332.6 L 568.6,332.6 L 573.2,332.6 L 577.9,332.6 L 582.6,332.6 L 587.3,332.6 L 592.0,332.6 L 596.7,332.6 L 601.4,332.6 L 606.0,332.6 L 610.7,332.6 L 615.4,332.6 L 620.1,332.6 L 624.8,332.6 L 629.5,332.6 L 634.1,332.6 L 638.8,332.6 L 643.5,332.6 L 648.2,332.6 L 652.9,332.6 L 657.6,332.6 L 662.3,332.6 L 666.9,332.6 L 671.6,332.6 L 676.3,332.6 L 681.0,332.6 L 685.7,332.6 L 690.4,332.6 L 695.0,332.6 L 699.7,332.6 L 704.4,332.6 L 709.1,332.6 L 713.8,332.6 L 718.5,332.6 L 723.2,332.6 L 727.8,332.6 L 732.5,332.6 L 737.2,332.6 L 741.9,332.6 L 746.6,332.6 L 751.3,332.6 L 755.9,332.6 L 760.6,332.6 L 765.3,332.6 L 770.0,332.6" fill="none" stroke="#FF6363" stroke-width="2.5" stroke-linejoin="round" clip-path="url(#ca)"/>
<text x="97.8" y="55.0" text-anchor="middle" font-size="9" fill="#34C759" opacity="0.85" clip-path="url(#ca)">+15.2% (+50)</text>
<text x="97.8" y="66.0" text-anchor="middle" font-size="9" fill="#4F8EF7" opacity="0.85" clip-path="url(#ca)">+2.8% (+11)</text>
<text x="97.8" y="77.0" text-anchor="middle" font-size="9" fill="#FF6363" opacity="0.85" clip-path="url(#ca)">+66.7% (+4)</text>
<text x="186.8" y="55.0" text-anchor="middle" font-size="9" fill="#34C759" opacity="0.85" clip-path="url(#ca)">+20.1% (+77)</text>
<text x="186.8" y="66.0" text-anchor="middle" font-size="9" fill="#4F8EF7" opacity="0.85" clip-path="url(#ca)">+16.8% (+69)</text>
<text x="186.8" y="77.0" text-anchor="middle" font-size="9" fill="#FF6363" opacity="0.85" clip-path="url(#ca)">+90.0% (+9)</text>
<text x="310.9" y="55.0" text-anchor="middle" font-size="9" fill="#34C759" opacity="0.85" clip-path="url(#ca)">+16.1% (+74)</text>
<text x="310.9" y="66.0" text-anchor="middle" font-size="9" fill="#4F8EF7" opacity="0.85" clip-path="url(#ca)">+17.3% (+83)</text>
<text x="310.9" y="77.0" text-anchor="middle" font-size="9" fill="#FF6363" opacity="0.85" clip-path="url(#ca)">+10.5% (+2)</text>
<text x="437.4" y="55.0" text-anchor="middle" font-size="9" fill="#34C759" opacity="0.85" clip-path="url(#ca)">+10.5% (+56)</text>
<text x="437.4" y="66.0" text-anchor="middle" font-size="9" fill="#4F8EF7" opacity="0.85" clip-path="url(#ca)">+14.4% (+81)</text>
<text x="437.4" y="77.0" text-anchor="middle" font-size="9" fill="#FF6363" opacity="0.85" clip-path="url(#ca)">+0.0% (+0)</text>
<text x="563.9" y="55.0" text-anchor="middle" font-size="9" fill="#34C759" opacity="0.85" clip-path="url(#ca)">+6.2% (+37)</text>
<text x="563.9" y="66.0" text-anchor="middle" font-size="9" fill="#4F8EF7" opacity="0.85" clip-path="url(#ca)">+6.1% (+46)</text>
<text x="563.9" y="77.0" text-anchor="middle" font-size="9" fill="#FF6363" opacity="0.85" clip-path="url(#ca)">+19.0% (+4)</text>
<text x="688.0" y="55.0" text-anchor="middle" font-size="9" fill="#34C759" opacity="0.85" clip-path="url(#ca)">+8.1% (+51)</text>
<text x="688.0" y="66.0" text-anchor="middle" font-size="9" fill="#4F8EF7" opacity="0.85" clip-path="url(#ca)">+8.1% (+65)</text>
<text x="688.0" y="77.0" text-anchor="middle" font-size="9" fill="#FF6363" opacity="0.85" clip-path="url(#ca)">+0.0% (+0)</text>
<text x="760.6" y="55.0" text-anchor="middle" font-size="9" fill="#34C759" opacity="0.85" clip-path="url(#ca)">+1.0% (+7)</text>
<text x="760.6" y="66.0" text-anchor="middle" font-size="9" fill="#4F8EF7" opacity="0.85" clip-path="url(#ca)">+1.2% (+10)</text>
<text x="760.6" y="77.0" text-anchor="middle" font-size="9" fill="#FF6363" opacity="0.85" clip-path="url(#ca)">+0.0% (+0)</text>
<rect x="211" y="369" width="12" height="12" fill="#34C759" rx="2"/>
<text x="227" y="379" font-size="12" fill="#111827">macOS + Windows</text>
<rect x="351" y="369" width="12" height="12" fill="#4F8EF7" rx="2"/>
<text x="367" y="379" font-size="12" fill="#111827">macOS only</text>
<rect x="491" y="369" width="12" height="12" fill="#FF6363" rx="2"/>
<text x="507" y="379" font-size="12" fill="#111827">Windows only</text>
<text x="72" y="394" font-size="8" fill="#e5e7eb">data since Dec 11, 2025</text>
</svg>