<svg xmlns="http://www.w3.org/2000/svg" width="800" height="400" viewBox="0 0 800 400">
<defs>
  <style>text { font-family: -apple-system, BlinkMacSystemFont, 'Segoe UI', Roboto, sans-serif; }</style>
  <linearGradient id="g5" x1="0" y1="0" x2="0" y2="1">
  <stop offset="0%" stop-color="#34C759" stop-opacity="0.25"/>
  <stop offset="100%" stop-color="#34C759" stop-opacity="0"/>
</linearGradient>
<linearGradient id="g6" x1="0" y1="0" x2="0" y2="1">
  <stop offset="0%" stop-color="#4F8EF7" stop-opacity="0.25"/>
  <stop offset="100%" stop-color="#4F8EF7" stop-opacity="0"/>
</linearGradient>
<linearGradient id="g7" x1="0" y1="0" x2="0" y2="1">
  <stop offset="0%" stop-color="#FF6363" stop-opacity="0.25"/>
  <stop offset="100%" stop-color="#FF6363" stop-opacity="0"/>
</linearGradient>
  <clipPath id="ca"><rect x="72" y="45" width="698" height="295"/></clipPath>
</defs>
<rect width="800" height="400" fill="#ffffff" rx="12"/>
<text x="400" y="26" text-anchor="middle" font-size="15" font-weight="600" fill="#111827">Platform Support Over Time</text>
<line x1="72" y1="340.0" x2="770" y2="340.0" stroke="#f3f4f6" stroke-width="1"/>
<text x="66" y="344.0" text-anchor="end" font-size="11" fill="#6b7280">0</text>
<line x1="72" y1="281.0" x2="770" y2="281.0" stroke="#f3f4f6" stroke-width="1"/>
<text x="66" y="285.0" text-anchor="end" font-size="11" fill="#6b7280">200</text>
<line x1="72" y1="222.0" x2="770" y2="222.0" stroke="#f3f4f6" stroke-width="1"/>
<text x="66" y="226.0" text-anchor="end" font-size="11" fill="#6b7280">400</text>
<line x1="72" y1="163.0" x2="770" y2="163.0" stroke="#f3f4f6" stroke-width="1"/>
<text x="66" y="167.0" text-anchor="end" font-size="11" fill="#6b7280">600</text>
<line x1="72" y1="104.0" x2="770" y2="104.0" stroke="#f3f4f6" stroke-width="1"/>
<text x="66" y="108.0" text-anchor="end" font-size="11" fill="#6b7280">800</text>
<line x1="72" y1="45.0" x2="770" y2="45.0" stroke="#f3f4f6" stroke-width="1"/>
<text x="66" y="49.0" text-anchor="end" font-size="11" fill="#6b7280">1.0k</text>
<line x1="139.0" y1="45" x2="139.0" y2="340" stroke="#e5e7eb" stroke-width="1" stroke-dasharray="3,3" clip-path="url(#ca)"/>
<line x1="284.2" y1="45" x2="284.2" y2="340" stroke="#e5e7eb" stroke-width="1" stroke-dasharray="3,3" clip-path="url(#ca)"/>
<line x1="435.0" y1="45" x2="435.0" y2="340" stroke="#e5e7eb" stroke-width="1" stroke-dasharray="3,3" clip-path="url(#ca)"/>
<line x1="585.7" y1="45" x2="585.7" y2="340" stroke="#e5e7eb" stroke-width="1" stroke-dasharray="3,3" clip-path="url(#ca)"/>
<line x1="736.5" y1="45" x2="736.5" y2="340" stroke="#e5e7eb" stroke-width="1" stroke-dasharray="3,3" clip-path="url(#ca)"/>
<text x="72.0" y="358.0" text-anchor="middle" font-size="11" fill="#6b7280">Dec 11</text>
<text x="211.6" y="358.0" text-anchor="middle" font-size="11" fill="#6b7280">Jan 18</text>
<text x="351.2" y="358.0" text-anchor="middle" font-size="11" fill="#6b7280">Feb 13</text>
<text x="490.8" y="358.0" text-anchor="middle" font-size="11" fill="#6b7280">Mar 12</text>
<text x="630.4" y="358.0" text-anchor="middle" font-size="11" fill="#6b7280">Apr 10</text>
<text x="770.0" y="358.0" text-anchor="middle" font-size="11" fill="#6b7280">May 10</text>
<line x1="72" y1="45" x2="72" y2="340" stroke="#e5e7eb" stroke-width="1"/>
<line x1="72" y1="340" x2="770" y2="340" stroke="#e5e7eb" stroke-width="1"/>
<text x="-192.5" y="18" text-anchor="middle" font-size="12" fill="#6b7280" transform="rotate(-90)">Extensions</text>
<path d="M 72.0,340 L 72.0,242.6 L 77.6,240.0 L 83.2,239.7 L 88.8,238.5 L 94.3,237.9 L 99.9,235.0 L 105.5,233.2 L 111.1,232.3 L 116.7,230.8 L 122.3,229.1 L 127.8,228.2 L 133.4,227.9 L 139.0,227.0 L 144.6,226.4 L 150.2,226.1 L 155.8,225.2 L 161.3,224.4 L 166.9,223.5 L 172.5,222.6 L 178.1,221.4 L 183.7,220.5 L 189.3,219.6 L 194.8,218.8 L 200.4,217.0 L 206.0,216.4 L 211.6,216.4 L 217.2,214.3 L 222.8,213.7 L 228.4,213.2 L 233.9,212.6 L 239.5,211.1 L 245.1,209.0 L 250.7,208.7 L 256.3,208.4 L 261.9,206.7 L 267.4,206.1 L 273.0,204.6 L 278.6,204.3 L 284.2,204.0 L 289.8,203.4 L 295.4,203.4 L 300.9,203.4 L 306.5,199.3 L 312.1,199.0 L 317.7,198.1 L 323.3,197.8 L 328.9,197.5 L 334.4,196.6 L 340.0,196.0 L 345.6,195.4 L 351.2,193.7 L 356.8,193.7 L 362.4,193.7 L 368.0,193.4 L 373.5,190.4 L 379.1,189.6 L 384.7,189.0 L 390.3,188.1 L 395.9,187.5 L 401.5,187.5 L 407.0,186.0 L 412.6,183.9 L 418.2,183.4 L 423.8,183.1 L 429.4,182.2 L 435.0,182.2 L 440.5,181.6 L 446.1,180.7 L 451.7,180.1 L 457.3,178.9 L 462.9,177.8 L 468.5,177.5 L 474.0,177.5 L 479.6,176.3 L 485.2,176.3 L 490.8,176.3 L 496.4,174.5 L 502.0,174.2 L 507.6,173.9 L 513.1,173.9 L 518.7,173.6 L 524.3,172.4 L 529.9,171.9 L 535.5,171.0 L 541.1,171.0 L 546.6,170.7 L 552.2,169.5 L 557.8,168.6 L 563.4,168.6 L 569.0,168.3 L 574.6,167.7 L 580.1,165.7 L 585.7,165.1 L 591.3,164.2 L 596.9,164.2 L 602.5,163.6 L 608.1,163.3 L 613.6,163.0 L 619.2,162.7 L 624.8,162.4 L 630.4,162.4 L 636.0,162.1 L 641.6,161.8 L 647.2,160.9 L 652.7,159.8 L 658.3,159.5 L 663.9,158.6 L 669.5,158.6 L 675.1,157.4 L 680.7,157.1 L 686.2,157.1 L 691.8,157.1 L 697.4,156.2 L 703.0,155.9 L 708.6,155.9 L 714.2,155.9 L 719.7,155.6 L 725.3,154.4 L 730.9,154.2 L 736.5,153.3 L 742.1,152.7 L 747.7,152.7 L 753.2,151.8 L 758.8,151.2 L 764.4,151.2 L 770.0,150.9 L 770.0,340 Z" fill="url(#g5)" clip-path="url(#ca)"/>
<path d="M 72.0,242.6 L 77.6,240.0 L 83.2,239.7 L 88.8,238.5 L 94.3,237.9 L 99.9,235.0 L 105.5,233.2 L 111.1,232.3 L 116.7,230.8 L 122.3,229.1 L 127.8,228.2 L 133.4,227.9 L 139.0,227.0 L 144.6,226.4 L 150.2,226.1 L 155.8,225.2 L 161.3,224.4 L 166.9,223.5 L 172.5,222.6 L 178.1,221.4 L 183.7,220.5 L 189.3,219.6 L 194.8,218.8 L 200.4,217.0 L 206.0,216.4 L 211.6,216.4 L 217.2,214.3 L 222.8,213.7 L 228.4,213.2 L 233.9,212.6 L 239.5,211.1 L 245.1,209.0 L 250.7,208.7 L 256.3,208.4 L 261.9,206.7 L 267.4,206.1 L 273.0,204.6 L 278.6,204.3 L 284.2,204.0 L 289.8,203.4 L 295.4,203.4 L 300.9,203.4 L 306.5,199.3 L 312.1,199.0 L 317.7,198.1 L 323.3,197.8 L 328.9,197.5 L 334.4,196.6 L 340.0,196.0 L 345.6,195.4 L 351.2,193.7 L 356.8,193.7 L 362.4,193.7 L 368.0,193.4 L 373.5,190.4 L 379.1,189.6 L 384.7,189.0 L 390.3,188.1 L 395.9,187.5 L 401.5,187.5 L 407.0,186.0 L 412.6,183.9 L 418.2,183.4 L 423.8,183.1 L 429.4,182.2 L 435.0,182.2 L 440.5,181.6 L 446.1,180.7 L 451.7,180.1 L 457.3,178.9 L 462.9,177.8 L 468.5,177.5 L 474.0,177.5 L 479.6,176.3 L 485.2,176.3 L 490.8,176.3 L 496.4,174.5 L 502.0,174.2 L 507.6,173.9 L 513.1,173.9 L 518.7,173.6 L 524.3,172.4 L 529.9,171.9 L 535.5,171.0 L 541.1,171.0 L 546.6,170.7 L 552.2,169.5 L 557.8,168.6 L 563.4,168.6 L 569.0,168.3 L 574.6,167.7 L 580.1,165.7 L 585.7,165.1 L 591.3,164.2 L 596.9,164.2 L 602.5,163.6 L 608.1,163.3 L 613.6,163.0 L 619.2,162.7 L 624.8,162.4 L 630.4,162.4 L 636.0,162.1 L 641.6,161.8 L 647.2,160.9 L 652.7,159.8 L 658.3,159.5 L 663.9,158.6 L 669.5,158.6 L 675.1,157.4 L 680.7,157.1 L 686.2,157.1 L 691.8,157.1 L 697.4,156.2 L 703.0,155.9 L 708.6,155.9 L 714.2,155.9 L 719.7,155.6 L 725.3,154.4 L 730.9,154.2 L 736.5,153.3 L 742.1,152.7 L 747.7,152.7 L 753.2,151.8 L 758.8,151.2 L 764.4,151.2 L 770.0,150.9" fill="none" stroke="#34C759" stroke-width="2.5" stroke-linejoin="round" clip-path="url(#ca)"/>
<path d="M 72.0,340 L 72.0,222.6 L 77.6,222.6 L 83.2,222.3 L 88.8,221.4 L 94.3,221.7 L 99.9,221.7 L 105.5,220.5 L 111.1,219.6 L 116.7,219.6 L 122.3,219.9 L 127.8,219.6 L 133.4,219.3 L 139.0,219.1 L 144.6,219.1 L 150.2,219.1 L 155.8,219.3 L 161.3,218.8 L 166.9,218.2 L 172.5,216.4 L 178.1,215.2 L 183.7,215.2 L 189.3,214.9 L 194.8,213.2 L 200.4,210.5 L 206.0,209.6 L 211.6,209.0 L 217.2,207.0 L 222.8,205.5 L 228.4,204.9 L 233.9,204.3 L 239.5,203.7 L 245.1,203.4 L 250.7,203.4 L 256.3,201.3 L 261.9,200.8 L 267.4,200.2 L 273.0,200.2 L 278.6,198.7 L 284.2,198.4 L 289.8,197.5 L 295.4,196.3 L 300.9,194.9 L 306.5,192.8 L 312.1,190.7 L 317.7,190.4 L 323.3,189.8 L 328.9,189.3 L 334.4,187.5 L 340.0,187.5 L 345.6,186.9 L 351.2,186.0 L 356.8,185.4 L 362.4,184.2 L 368.0,184.5 L 373.5,181.0 L 379.1,180.7 L 384.7,180.4 L 390.3,179.8 L 395.9,178.0 L 401.5,178.0 L 407.0,176.3 L 412.6,174.2 L 418.2,174.2 L 423.8,174.2 L 429.4,173.9 L 435.0,173.6 L 440.5,173.3 L 446.1,171.9 L 451.7,170.1 L 457.3,169.5 L 462.9,168.3 L 468.5,168.3 L 474.0,167.4 L 479.6,165.7 L 485.2,164.8 L 490.8,164.5 L 496.4,162.4 L 502.0,162.1 L 507.6,162.1 L 513.1,161.8 L 518.7,161.8 L 524.3,160.3 L 529.9,159.8 L 535.5,158.9 L 541.1,158.6 L 546.6,158.0 L 552.2,155.6 L 557.8,152.4 L 563.4,152.1 L 569.0,151.5 L 574.6,151.2 L 580.1,149.7 L 585.7,118.5 L 591.3,117.9 L 596.9,116.4 L 602.5,116.4 L 608.1,116.4 L 613.6,116.7 L 619.2,116.4 L 624.8,114.6 L 630.4,114.0 L 636.0,113.7 L 641.6,113.4 L 647.2,112.3 L 652.7,110.5 L 658.3,110.5 L 663.9,110.5 L 669.5,110.2 L 675.1,109.9 L 680.7,109.9 L 686.2,109.3 L 691.8,108.4 L 697.4,106.9 L 703.0,106.4 L 708.6,106.1 L 714.2,106.1 L 719.7,105.8 L 725.3,105.2 L 730.9,104.9 L 736.5,103.4 L 742.1,103.4 L 747.7,102.8 L 753.2,101.6 L 758.8,100.2 L 764.4,99.9 L 770.0,99.6 L 770.0,340 Z" fill="url(#g6)" clip-path="url(#ca)"/>
<path d="M 72.0,222.6 L 77.6,222.6 L 83.2,222.3 L 88.8,221.4 L 94.3,221.7 L 99.9,221.7 L 105.5,220.5 L 111.1,219.6 L 116.7,219.6 L 122.3,219.9 L 127.8,219.6 L 133.4,219.3 L 139.0,219.1 L 144.6,219.1 L 150.2,219.1 L 155.8,219.3 L 161.3,218.8 L 166.9,218.2 L 172.5,216.4 L 178.1,215.2 L 183.7,215.2 L 189.3,214.9 L 194.8,213.2 L 200.4,210.5 L 206.0,209.6 L 211.6,209.0 L 217.2,207.0 L 222.8,205.5 L 228.4,204.9 L 233.9,204.3 L 239.5,203.7 L 245.1,203.4 L 250.7,203.4 L 256.3,201.3 L 261.9,200.8 L 267.4,200.2 L 273.0,200.2 L 278.6,198.7 L 284.2,198.4 L 289.8,197.5 L 295.4,196.3 L 300.9,194.9 L 306.5,192.8 L 312.1,190.7 L 317.7,190.4 L 323.3,189.8 L 328.9,189.3 L 334.4,187.5 L 340.0,187.5 L 345.6,186.9 L 351.2,186.0 L 356.8,185.4 L 362.4,184.2 L 368.0,184.5 L 373.5,181.0 L 379.1,180.7 L 384.7,180.4 L 390.3,179.8 L 395.9,178.0 L 401.5,178.0 L 407.0,176.3 L 412.6,174.2 L 418.2,174.2 L 423.8,174.2 L 429.4,173.9 L 435.0,173.6 L 440.5,173.3 L 446.1,171.9 L 451.7,170.1 L 457.3,169.5 L 462.9,168.3 L 468.5,168.3 L 474.0,167.4 L 479.6,165.7 L 485.2,164.8 L 490.8,164.5 L 496.4,162.4 L 502.0,162.1 L 507.6,162.1 L 513.1,161.8 L 518.7,161.8 L 524.3,160.3 L 529.9,159.8 L 535.5,158.9 L 541.1,158.6 L 546.6,158.0 L 552.2,155.6 L 557.8,152.4 L 563.4,152.1 L 569.0,151.5 L 574.6,151.2 L 580.1,149.7 L 585.7,118.5 L 591.3,117.9 L 596.9,116.4 L 602.5,116.4 L 608.1,116.4 L 613.6,116.7 L 619.2,116.4 L 624.8,114.6 L 630.4,114.0 L 636.0,113.7 L 641.6,113.4 L 647.2,112.3 L 652.7,110.5 L 658.3,110.5 L 663.9,110.5 L 669.5,110.2 L 675.1,109.9 L 680.7,109.9 L 686.2,109.3 L 691.8,108.4 L 697.4,106.9 L 703.0,106.4 L 708.6,106.1 L 714.2,106.1 L 719.7,105.8 L 725.3,105.2 L 730.9,104.9 L 736.5,103.4 L 742.1,103.4 L 747.7,102.8 L 753.2,101.6 L 758.8,100.2 L 764.4,99.9 L 770.0,99.6" fill="none" stroke="#4F8EF7" stroke-width="2.5" stroke-linejoin="round" clip-path="url(#ca)"/>
<path d="M 72.0,340 L 72.0,338.2 L 77.6,337.9 L 83.2,337.9 L 88.8,337.6 L 94.3,337.6 L 99.9,337.6 L 105.5,337.6 L 111.1,337.6 L 116.7,337.1 L 122.3,337.1 L 127.8,337.1 L 133.4,337.1 L 139.0,337.1 L 144.6,336.8 L 150.2,336.8 L 155.8,336.8 L 161.3,336.8 L 166.9,336.8 L 172.5,336.5 L 178.1,335.9 L 183.7,335.6 L 189.3,335.6 L 194.8,335.6 L 200.4,335.3 L 206.0,335.3 L 211.6,335.3 L 217.2,335.0 L 222.8,335.0 L 228.4,335.0 L 233.9,334.7 L 239.5,334.7 L 245.1,334.7 L 250.7,334.7 L 256.3,334.4 L 261.9,334.4 L 267.4,334.4 L 273.0,334.4 L 278.6,334.4 L 284.2,334.4 L 289.8,334.4 L 295.4,334.4 L 300.9,334.4 L 306.5,334.4 L 312.1,334.4 L 317.7,334.4 L 323.3,334.4 L 328.9,334.1 L 334.4,334.1 L 340.0,334.1 L 345.6,334.1 L 351.2,334.1 L 356.8,334.1 L 362.4,334.1 L 368.0,334.1 L 373.5,334.1 L 379.1,334.1 L 384.7,334.1 L 390.3,334.1 L 395.9,333.8 L 401.5,333.8 L 407.0,333.8 L 412.6,333.8 L 418.2,333.8 L 423.8,333.8 L 429.4,333.8 L 435.0,333.8 L 440.5,333.8 L 446.1,333.8 L 451.7,333.8 L 457.3,333.8 L 462.9,333.8 L 468.5,333.8 L 474.0,333.8 L 479.6,333.8 L 485.2,333.8 L 490.8,333.8 L 496.4,333.8 L 502.0,333.8 L 507.6,333.8 L 513.1,333.8 L 518.7,333.8 L 524.3,333.8 L 529.9,333.8 L 535.5,333.8 L 541.1,333.8 L 546.6,333.8 L 552.2,333.8 L 557.8,333.8 L 563.4,333.8 L 569.0,333.8 L 574.6,333.8 L 580.1,333.8 L 585.7,333.8 L 591.3,333.8 L 596.9,333.5 L 602.5,333.5 L 608.1,333.5 L 613.6,333.5 L 619.2,333.5 L 624.8,333.2 L 630.4,333.2 L 636.0,333.2 L 641.6,333.2 L 647.2,332.9 L 652.7,332.9 L 658.3,332.6 L 663.9,332.6 L 669.5,332.6 L 675.1,332.6 L 680.7,332.6 L 686.2,332.6 L 691.8,332.6 L 697.4,332.6 L 703.0,332.6 L 708.6,332.6 L 714.2,332.6 L 719.7,332.6 L 725.3,332.6 L 730.9,332.6 L 736.5,332.6 L 742.1,332.6 L 747.7,332.6 L 753.2,332.6 L 758.8,332.6 L 764.4,332.6 L 770.0,332.6 L 770.0,340 Z" fill="url(#g7)" clip-path="url(#ca)"/>
<path d="M 72.0,338.2 L 77.6,337.9 L 83.2,337.9 L 88.8,337.6 L 94.3,337.6 L 99.9,337.6 L 105.5,337.6 L 111.1,337.6 L 116.7,337.1 L 122.3,337.1 L 127.8,337.1 L 133.4,337.1 L 139.0,337.1 L 144.6,336.8 L 150.2,336.8 L 155.8,336.8 L 161.3,336.8 L 166.9,336.8 L 172.5,336.5 L 178.1,335.9 L 183.7,335.6 L 189.3,335.6 L 194.8,335.6 L 200.4,335.3 L 206.0,335.3 L 211.6,335.3 L 217.2,335.0 L 222.8,335.0 L 228.4,335.0 L 233.9,334.7 L 239.5,334.7 L 245.1,334.7 L 250.7,334.7 L 256.3,334.4 L 261.9,334.4 L 267.4,334.4 L 273.0,334.4 L 278.6,334.4 L 284.2,334.4 L 289.8,334.4 L 295.4,334.4 L 300.9,334.4 L 306.5,334.4 L 312.1,334.4 L 317.7,334.4 L 323.3,334.4 L 328.9,334.1 L 334.4,334.1 L 340.0,334.1 L 345.6,334.1 L 351.2,334.1 L 356.8,334.1 L 362.4,334.1 L 368.0,334.1 L 373.5,334.1 L 379.1,334.1 L 384.7,334.1 L 390.3,334.1 L 395.9,333.8 L 401.5,333.8 L 407.0,333.8 L 412.6,333.8 L 418.2,333.8 L 423.8,333.8 L 429.4,333.8 L 435.0,333.8 L 440.5,333.8 L 446.1,333.8 L 451.7,333.8 L 457.3,333.8 L 462.9,333.8 L 468.5,333.8 L 474.0,333.8 L 479.6,333.8 L 485.2,333.8 L 490.8,333.8 L 496.4,333.8 L 502.0,333.8 L 507.6,333.8 L 513.1,333.8 L 518.7,333.8 L 524.3,333.8 L 529.9,333.8 L 535.5,333.8 L 541.1,333.8 L 546.6,333.8 L 552.2,333.8 L 557.8,333.8 L 563.4,333.8 L 569.0,333.8 L 574.6,333.8 L 580.1,333.8 L 585.7,333.8 L 591.3,333.8 L 596.9,333.5 L 602.5,333.5 L 608.1,333.5 L 613.6,333.5 L 619.2,333.5 L 624.8,333.2 L 630.4,333.2 L 636.0,333.2 L 641.6,333.2 L 647.2,332.9 L 652.7,332.9 L 658.3,332.6 L 663.9,332.6 L 669.5,332.6 L 675.1,332.6 L 680.7,332.6 L 686.2,332.6 L 691.8,332.6 L 697.4,332.6 L 703.0,332.6 L 708.6,332.6 L 714.2,332.6 L 719.7,332.6 L 725.3,332.6 L 730.9,332.6 L 736.5,332.6 L 742.1,332.6 L 747.7,332.6 L 753.2,332.6 L 758.8,332.6 L 764.4,332.6 L 770.0,332.6" fill="none" stroke="#FF6363" stroke-width="2.5" stroke-linejoin="round" clip-path="url(#ca)"/>
<text x="102.7" y="55.0" text-anchor="middle" font-size="9" fill="#34C759" opacity="0.85" clip-path="url(#ca)">+15.2% (+50)</text>
<text x="102.7" y="66.0" text-anchor="middle" font-size="9" fill="#4F8EF7" opacity="0.85" clip-path="url(#ca)">+2.8% (+11)</text>
<text x="102.7" y="77.0" text-anchor="middle" font-size="9" fill="#FF6363" opacity="0.85" clip-path="url(#ca)">+66.7% (+4)</text>
<text x="208.8" y="55.0" text-anchor="middle" font-size="9" fill="#34C759" opacity="0.85" clip-path="url(#ca)">+20.1% (+77)</text>
<text x="208.8" y="66.0" text-anchor="middle" font-size="9" fill="#4F8EF7" opacity="0.85" clip-path="url(#ca)">+16.8% (+69)</text>
<text x="208.8" y="77.0" text-anchor="middle" font-size="9" fill="#FF6363" opacity="0.85" clip-path="url(#ca)">+90.0% (+9)</text>
<text x="356.8" y="55.0" text-anchor="middle" font-size="9" fill="#34C759" opacity="0.85" clip-path="url(#ca)">+16.1% (+74)</text>
<text x="356.8" y="66.0" text-anchor="middle" font-size="9" fill="#4F8EF7" opacity="0.85" clip-path="url(#ca)">+17.3% (+83)</text>
<text x="356.8" y="77.0" text-anchor="middle" font-size="9" fill="#FF6363" opacity="0.85" clip-path="url(#ca)">+10.5% (+2)</text>
<text x="507.6" y="55.0" text-anchor="middle" font-size="9" fill="#34C759" opacity="0.85" clip-path="url(#ca)">+10.5% (+56)</text>
<text x="507.6" y="66.0" text-anchor="middle" font-size="9" fill="#4F8EF7" opacity="0.85" clip-path="url(#ca)">+14.4% (+81)</text>
<text x="507.6" y="77.0" text-anchor="middle" font-size="9" fill="#FF6363" opacity="0.85" clip-path="url(#ca)">+0.0% (+0)</text>
<text x="658.3" y="55.0" text-anchor="middle" font-size="9" fill="#34C759" opacity="0.85" clip-path="url(#ca)">+6.2% (+37)</text>
<text x="658.3" y="66.0" text-anchor="middle" font-size="9" fill="#4F8EF7" opacity="0.85" clip-path="url(#ca)">+6.1% (+46)</text>
<text x="658.3" y="77.0" text-anchor="middle" font-size="9" fill="#FF6363" opacity="0.85" clip-path="url(#ca)">+19.0% (+4)</text>
<text x="753.2" y="55.0" text-anchor="middle" font-size="9" fill="#34C759" opacity="0.85" clip-path="url(#ca)">+1.3% (+8)</text>
<text x="753.2" y="66.0" text-anchor="middle" font-size="9" fill="#4F8EF7" opacity="0.85" clip-path="url(#ca)">+1.6% (+13)</text>
<text x="753.2" y="77.0" text-anchor="middle" font-size="9" fill="#FF6363" opacity="0.85" clip-path="url(#ca)">+0.0% (+0)</text>
<rect x="211" y="369" width="12" height="12" fill="#34C759" rx="2"/>
<text x="227" y="379" font-size="12" fill="#111827">macOS + Windows</text>
<rect x="351" y="369" width="12" height="12" fill="#4F8EF7" rx="2"/>
<text x="367" y="379" font-size="12" fill="#111827">macOS only</text>
<rect x="491" y="369" width="12" height="12" fill="#FF6363" rx="2"/>
<text x="507" y="379" font-size="12" fill="#111827">Windows only</text>
<text x="72" y="394" font-size="8" fill="#e5e7eb">data since Dec 11, 2025</text>
</svg>