<svg xmlns="http://www.w3.org/2000/svg" width="800" height="400" viewBox="0 0 800 400">
<defs>
  <style>text { font-family: -apple-system, BlinkMacSystemFont, 'Segoe UI', Roboto, sans-serif; }</style>
  <linearGradient id="g5" x1="0" y1="0" x2="0" y2="1">
  <stop offset="0%" stop-color="#34C759" stop-opacity="0.25"/>
  <stop offset="100%" stop-color="#34C759" stop-opacity="0"/>
</linearGradient>
<linearGradient id="g6" x1="0" y1="0" x2="0" y2="1">
  <stop offset="0%" stop-color="#4F8EF7" stop-opacity="0.25"/>
  <stop offset="100%" stop-color="#4F8EF7" stop-opacity="0"/>
</linearGradient>
<linearGradient id="g7" x1="0" y1="0" x2="0" y2="1">
  <stop offset="0%" stop-color="#FF6363" stop-opacity="0.25"/>
  <stop offset="100%" stop-color="#FF6363" stop-opacity="0"/>
</linearGradient>
  <clipPath id="ca"><rect x="72" y="45" width="698" height="295"/></clipPath>
</defs>
<rect width="800" height="400" fill="#ffffff" rx="12"/>
<text x="400" y="26" text-anchor="middle" font-size="15" font-weight="600" fill="#111827">Platform Support Over Time</text>
<line x1="72" y1="340.0" x2="770" y2="340.0" stroke="#f3f4f6" stroke-width="1"/>
<text x="66" y="344.0" text-anchor="end" font-size="11" fill="#6b7280">0</text>
<line x1="72" y1="281.0" x2="770" y2="281.0" stroke="#f3f4f6" stroke-width="1"/>
<text x="66" y="285.0" text-anchor="end" font-size="11" fill="#6b7280">200</text>
<line x1="72" y1="222.0" x2="770" y2="222.0" stroke="#f3f4f6" stroke-width="1"/>
<text x="66" y="226.0" text-anchor="end" font-size="11" fill="#6b7280">400</text>
<line x1="72" y1="163.0" x2="770" y2="163.0" stroke="#f3f4f6" stroke-width="1"/>
<text x="66" y="167.0" text-anchor="end" font-size="11" fill="#6b7280">600</text>
<line x1="72" y1="104.0" x2="770" y2="104.0" stroke="#f3f4f6" stroke-width="1"/>
<text x="66" y="108.0" text-anchor="end" font-size="11" fill="#6b7280">800</text>
<line x1="72" y1="45.0" x2="770" y2="45.0" stroke="#f3f4f6" stroke-width="1"/>
<text x="66" y="49.0" text-anchor="end" font-size="11" fill="#6b7280">1.0k</text>
<line x1="128.6" y1="45" x2="128.6" y2="340" stroke="#e5e7eb" stroke-width="1" stroke-dasharray="3,3" clip-path="url(#ca)"/>
<line x1="251.2" y1="45" x2="251.2" y2="340" stroke="#e5e7eb" stroke-width="1" stroke-dasharray="3,3" clip-path="url(#ca)"/>
<line x1="378.6" y1="45" x2="378.6" y2="340" stroke="#e5e7eb" stroke-width="1" stroke-dasharray="3,3" clip-path="url(#ca)"/>
<line x1="505.9" y1="45" x2="505.9" y2="340" stroke="#e5e7eb" stroke-width="1" stroke-dasharray="3,3" clip-path="url(#ca)"/>
<line x1="633.2" y1="45" x2="633.2" y2="340" stroke="#e5e7eb" stroke-width="1" stroke-dasharray="3,3" clip-path="url(#ca)"/>
<line x1="755.9" y1="45" x2="755.9" y2="340" stroke="#e5e7eb" stroke-width="1" stroke-dasharray="3,3" clip-path="url(#ca)"/>
<text x="72.0" y="358.0" text-anchor="middle" font-size="11" fill="#6b7280">Dec 11</text>
<text x="213.5" y="358.0" text-anchor="middle" font-size="11" fill="#6b7280">Jan 24</text>
<text x="350.3" y="358.0" text-anchor="middle" font-size="11" fill="#6b7280">Feb 22</text>
<text x="491.7" y="358.0" text-anchor="middle" font-size="11" fill="#6b7280">Mar 27</text>
<text x="628.5" y="358.0" text-anchor="middle" font-size="11" fill="#6b7280">Apr 30</text>
<text x="770.0" y="358.0" text-anchor="middle" font-size="11" fill="#6b7280">Jun 5</text>
<line x1="72" y1="45" x2="72" y2="340" stroke="#e5e7eb" stroke-width="1"/>
<line x1="72" y1="340" x2="770" y2="340" stroke="#e5e7eb" stroke-width="1"/>
<text x="-192.5" y="18" text-anchor="middle" font-size="12" fill="#6b7280" transform="rotate(-90)">Extensions</text>
<path d="M 72.0,340 L 72.0,242.6 L 76.7,240.0 L 81.4,239.7 L 86.1,238.5 L 90.9,237.9 L 95.6,235.0 L 100.3,233.2 L 105.0,232.3 L 109.7,230.8 L 114.4,229.1 L 119.2,228.2 L 123.9,227.9 L 128.6,227.0 L 133.3,226.4 L 138.0,226.1 L 142.7,225.2 L 147.5,224.4 L 152.2,223.5 L 156.9,222.6 L 161.6,221.4 L 166.3,220.5 L 171.0,219.6 L 175.8,218.8 L 180.5,217.0 L 185.2,216.4 L 189.9,216.4 L 194.6,214.3 L 199.3,213.7 L 204.1,213.2 L 208.8,212.6 L 213.5,211.1 L 218.2,209.0 L 222.9,208.7 L 227.6,208.4 L 232.4,206.7 L 237.1,206.1 L 241.8,204.6 L 246.5,204.3 L 251.2,204.0 L 255.9,203.4 L 260.6,203.4 L 265.4,203.4 L 270.1,199.3 L 274.8,199.0 L 279.5,198.1 L 284.2,197.8 L 288.9,197.5 L 293.7,196.6 L 298.4,196.0 L 303.1,195.4 L 307.8,193.7 L 312.5,193.7 L 317.2,193.7 L 322.0,193.4 L 326.7,190.4 L 331.4,189.6 L 336.1,189.0 L 340.8,188.1 L 345.5,187.5 L 350.3,187.5 L 355.0,186.0 L 359.7,183.9 L 364.4,183.4 L 369.1,183.1 L 373.8,182.2 L 378.6,182.2 L 383.3,181.6 L 388.0,180.7 L 392.7,180.1 L 397.4,178.9 L 402.1,177.8 L 406.9,177.5 L 411.6,177.5 L 416.3,176.3 L 421.0,176.3 L 425.7,176.3 L 430.4,174.5 L 435.1,174.2 L 439.9,173.9 L 444.6,173.9 L 449.3,173.6 L 454.0,172.4 L 458.7,171.9 L 463.4,171.0 L 468.2,171.0 L 472.9,170.7 L 477.6,169.5 L 482.3,168.6 L 487.0,168.6 L 491.7,168.3 L 496.5,167.7 L 501.2,165.7 L 505.9,165.1 L 510.6,164.2 L 515.3,164.2 L 520.0,163.6 L 524.8,163.3 L 529.5,163.0 L 534.2,162.7 L 538.9,162.4 L 543.6,162.4 L 548.3,162.1 L 553.1,161.8 L 557.8,160.9 L 562.5,159.8 L 567.2,159.5 L 571.9,158.6 L 576.6,158.6 L 581.4,157.4 L 586.1,157.1 L 590.8,157.1 L 595.5,157.1 L 600.2,156.2 L 604.9,155.9 L 609.6,155.9 L 614.4,155.9 L 619.1,155.6 L 623.8,154.4 L 628.5,154.2 L 633.2,153.3 L 637.9,152.7 L 642.7,152.7 L 647.4,151.8 L 652.1,151.2 L 656.8,151.2 L 661.5,150.9 L 666.2,149.4 L 671.0,148.0 L 675.7,147.7 L 680.4,147.1 L 685.1,145.9 L 689.8,145.9 L 694.5,145.3 L 699.3,143.8 L 704.0,141.2 L 708.7,140.3 L 713.4,140.3 L 718.1,140.3 L 722.8,140.3 L 727.6,140.3 L 732.3,139.1 L 737.0,138.2 L 741.7,138.2 L 746.4,138.2 L 751.1,138.2 L 755.9,137.3 L 760.6,137.3 L 765.3,136.5 L 770.0,135.6 L 770.0,340 Z" fill="url(#g5)" clip-path="url(#ca)"/>
<path d="M 72.0,242.6 L 76.7,240.0 L 81.4,239.7 L 86.1,238.5 L 90.9,237.9 L 95.6,235.0 L 100.3,233.2 L 105.0,232.3 L 109.7,230.8 L 114.4,229.1 L 119.2,228.2 L 123.9,227.9 L 128.6,227.0 L 133.3,226.4 L 138.0,226.1 L 142.7,225.2 L 147.5,224.4 L 152.2,223.5 L 156.9,222.6 L 161.6,221.4 L 166.3,220.5 L 171.0,219.6 L 175.8,218.8 L 180.5,217.0 L 185.2,216.4 L 189.9,216.4 L 194.6,214.3 L 199.3,213.7 L 204.1,213.2 L 208.8,212.6 L 213.5,211.1 L 218.2,209.0 L 222.9,208.7 L 227.6,208.4 L 232.4,206.7 L 237.1,206.1 L 241.8,204.6 L 246.5,204.3 L 251.2,204.0 L 255.9,203.4 L 260.6,203.4 L 265.4,203.4 L 270.1,199.3 L 274.8,199.0 L 279.5,198.1 L 284.2,197.8 L 288.9,197.5 L 293.7,196.6 L 298.4,196.0 L 303.1,195.4 L 307.8,193.7 L 312.5,193.7 L 317.2,193.7 L 322.0,193.4 L 326.7,190.4 L 331.4,189.6 L 336.1,189.0 L 340.8,188.1 L 345.5,187.5 L 350.3,187.5 L 355.0,186.0 L 359.7,183.9 L 364.4,183.4 L 369.1,183.1 L 373.8,182.2 L 378.6,182.2 L 383.3,181.6 L 388.0,180.7 L 392.7,180.1 L 397.4,178.9 L 402.1,177.8 L 406.9,177.5 L 411.6,177.5 L 416.3,176.3 L 421.0,176.3 L 425.7,176.3 L 430.4,174.5 L 435.1,174.2 L 439.9,173.9 L 444.6,173.9 L 449.3,173.6 L 454.0,172.4 L 458.7,171.9 L 463.4,171.0 L 468.2,171.0 L 472.9,170.7 L 477.6,169.5 L 482.3,168.6 L 487.0,168.6 L 491.7,168.3 L 496.5,167.7 L 501.2,165.7 L 505.9,165.1 L 510.6,164.2 L 515.3,164.2 L 520.0,163.6 L 524.8,163.3 L 529.5,163.0 L 534.2,162.7 L 538.9,162.4 L 543.6,162.4 L 548.3,162.1 L 553.1,161.8 L 557.8,160.9 L 562.5,159.8 L 567.2,159.5 L 571.9,158.6 L 576.6,158.6 L 581.4,157.4 L 586.1,157.1 L 590.8,157.1 L 595.5,157.1 L 600.2,156.2 L 604.9,155.9 L 609.6,155.9 L 614.4,155.9 L 619.1,155.6 L 623.8,154.4 L 628.5,154.2 L 633.2,153.3 L 637.9,152.7 L 642.7,152.7 L 647.4,151.8 L 652.1,151.2 L 656.8,151.2 L 661.5,150.9 L 666.2,149.4 L 671.0,148.0 L 675.7,147.7 L 680.4,147.1 L 685.1,145.9 L 689.8,145.9 L 694.5,145.3 L 699.3,143.8 L 704.0,141.2 L 708.7,140.3 L 713.4,140.3 L 718.1,140.3 L 722.8,140.3 L 727.6,140.3 L 732.3,139.1 L 737.0,138.2 L 741.7,138.2 L 746.4,138.2 L 751.1,138.2 L 755.9,137.3 L 760.6,137.3 L 765.3,136.5 L 770.0,135.6" fill="none" stroke="#34C759" stroke-width="2.5" stroke-linejoin="round" clip-path="url(#ca)"/>
<path d="M 72.0,340 L 72.0,222.6 L 76.7,222.6 L 81.4,222.3 L 86.1,221.4 L 90.9,221.7 L 95.6,221.7 L 100.3,220.5 L 105.0,219.6 L 109.7,219.6 L 114.4,219.9 L 119.2,219.6 L 123.9,219.3 L 128.6,219.1 L 133.3,219.1 L 138.0,219.1 L 142.7,219.3 L 147.5,218.8 L 152.2,218.2 L 156.9,216.4 L 161.6,215.2 L 166.3,215.2 L 171.0,214.9 L 175.8,213.2 L 180.5,210.5 L 185.2,209.6 L 189.9,209.0 L 194.6,207.0 L 199.3,205.5 L 204.1,204.9 L 208.8,204.3 L 213.5,203.7 L 218.2,203.4 L 222.9,203.4 L 227.6,201.3 L 232.4,200.8 L 237.1,200.2 L 241.8,200.2 L 246.5,198.7 L 251.2,198.4 L 255.9,197.5 L 260.6,196.3 L 265.4,194.9 L 270.1,192.8 L 274.8,190.7 L 279.5,190.4 L 284.2,189.8 L 288.9,189.3 L 293.7,187.5 L 298.4,187.5 L 303.1,186.9 L 307.8,186.0 L 312.5,185.4 L 317.2,184.2 L 322.0,184.5 L 326.7,181.0 L 331.4,180.7 L 336.1,180.4 L 340.8,179.8 L 345.5,178.0 L 350.3,178.0 L 355.0,176.3 L 359.7,174.2 L 364.4,174.2 L 369.1,174.2 L 373.8,173.9 L 378.6,173.6 L 383.3,173.3 L 388.0,171.9 L 392.7,170.1 L 397.4,169.5 L 402.1,168.3 L 406.9,168.3 L 411.6,167.4 L 416.3,165.7 L 421.0,164.8 L 425.7,164.5 L 430.4,162.4 L 435.1,162.1 L 439.9,162.1 L 444.6,161.8 L 449.3,161.8 L 454.0,160.3 L 458.7,159.8 L 463.4,158.9 L 468.2,158.6 L 472.9,158.0 L 477.6,155.6 L 482.3,152.4 L 487.0,152.1 L 491.7,151.5 L 496.5,151.2 L 501.2,149.7 L 505.9,118.5 L 510.6,117.9 L 515.3,116.4 L 520.0,116.4 L 524.8,116.4 L 529.5,116.7 L 534.2,116.4 L 538.9,114.6 L 543.6,114.0 L 548.3,113.7 L 553.1,113.4 L 557.8,112.3 L 562.5,110.5 L 567.2,110.5 L 571.9,110.5 L 576.6,110.2 L 581.4,109.9 L 586.1,109.9 L 590.8,109.3 L 595.5,108.4 L 600.2,106.9 L 604.9,106.4 L 609.6,106.1 L 614.4,106.1 L 619.1,105.8 L 623.8,105.2 L 628.5,104.9 L 633.2,103.4 L 637.9,103.4 L 642.7,102.8 L 647.4,101.6 L 652.1,100.2 L 656.8,99.9 L 661.5,99.6 L 666.2,96.9 L 671.0,96.3 L 675.7,95.7 L 680.4,95.7 L 685.1,94.6 L 689.8,94.0 L 694.5,92.5 L 699.3,91.9 L 704.0,91.0 L 708.7,90.7 L 713.4,89.5 L 718.1,88.7 L 722.8,88.4 L 727.6,87.8 L 732.3,86.6 L 737.0,86.0 L 741.7,85.1 L 746.4,84.5 L 751.1,84.2 L 755.9,83.6 L 760.6,82.8 L 765.3,82.2 L 770.0,81.6 L 770.0,340 Z" fill="url(#g6)" clip-path="url(#ca)"/>
<path d="M 72.0,222.6 L 76.7,222.6 L 81.4,222.3 L 86.1,221.4 L 90.9,221.7 L 95.6,221.7 L 100.3,220.5 L 105.0,219.6 L 109.7,219.6 L 114.4,219.9 L 119.2,219.6 L 123.9,219.3 L 128.6,219.1 L 133.3,219.1 L 138.0,219.1 L 142.7,219.3 L 147.5,218.8 L 152.2,218.2 L 156.9,216.4 L 161.6,215.2 L 166.3,215.2 L 171.0,214.9 L 175.8,213.2 L 180.5,210.5 L 185.2,209.6 L 189.9,209.0 L 194.6,207.0 L 199.3,205.5 L 204.1,204.9 L 208.8,204.3 L 213.5,203.7 L 218.2,203.4 L 222.9,203.4 L 227.6,201.3 L 232.4,200.8 L 237.1,200.2 L 241.8,200.2 L 246.5,198.7 L 251.2,198.4 L 255.9,197.5 L 260.6,196.3 L 265.4,194.9 L 270.1,192.8 L 274.8,190.7 L 279.5,190.4 L 284.2,189.8 L 288.9,189.3 L 293.7,187.5 L 298.4,187.5 L 303.1,186.9 L 307.8,186.0 L 312.5,185.4 L 317.2,184.2 L 322.0,184.5 L 326.7,181.0 L 331.4,180.7 L 336.1,180.4 L 340.8,179.8 L 345.5,178.0 L 350.3,178.0 L 355.0,176.3 L 359.7,174.2 L 364.4,174.2 L 369.1,174.2 L 373.8,173.9 L 378.6,173.6 L 383.3,173.3 L 388.0,171.9 L 392.7,170.1 L 397.4,169.5 L 402.1,168.3 L 406.9,168.3 L 411.6,167.4 L 416.3,165.7 L 421.0,164.8 L 425.7,164.5 L 430.4,162.4 L 435.1,162.1 L 439.9,162.1 L 444.6,161.8 L 449.3,161.8 L 454.0,160.3 L 458.7,159.8 L 463.4,158.9 L 468.2,158.6 L 472.9,158.0 L 477.6,155.6 L 482.3,152.4 L 487.0,152.1 L 491.7,151.5 L 496.5,151.2 L 501.2,149.7 L 505.9,118.5 L 510.6,117.9 L 515.3,116.4 L 520.0,116.4 L 524.8,116.4 L 529.5,116.7 L 534.2,116.4 L 538.9,114.6 L 543.6,114.0 L 548.3,113.7 L 553.1,113.4 L 557.8,112.3 L 562.5,110.5 L 567.2,110.5 L 571.9,110.5 L 576.6,110.2 L 581.4,109.9 L 586.1,109.9 L 590.8,109.3 L 595.5,108.4 L 600.2,106.9 L 604.9,106.4 L 609.6,106.1 L 614.4,106.1 L 619.1,105.8 L 623.8,105.2 L 628.5,104.9 L 633.2,103.4 L 637.9,103.4 L 642.7,102.8 L 647.4,101.6 L 652.1,100.2 L 656.8,99.9 L 661.5,99.6 L 666.2,96.9 L 671.0,96.3 L 675.7,95.7 L 680.4,95.7 L 685.1,94.6 L 689.8,94.0 L 694.5,92.5 L 699.3,91.9 L 704.0,91.0 L 708.7,90.7 L 713.4,89.5 L 718.1,88.7 L 722.8,88.4 L 727.6,87.8 L 732.3,86.6 L 737.0,86.0 L 741.7,85.1 L 746.4,84.5 L 751.1,84.2 L 755.9,83.6 L 760.6,82.8 L 765.3,82.2 L 770.0,81.6" fill="none" stroke="#4F8EF7" stroke-width="2.5" stroke-linejoin="round" clip-path="url(#ca)"/>
<path d="M 72.0,340 L 72.0,338.2 L 76.7,337.9 L 81.4,337.9 L 86.1,337.6 L 90.9,337.6 L 95.6,337.6 L 100.3,337.6 L 105.0,337.6 L 109.7,337.1 L 114.4,337.1 L 119.2,337.1 L 123.9,337.1 L 128.6,337.1 L 133.3,336.8 L 138.0,336.8 L 142.7,336.8 L 147.5,336.8 L 152.2,336.8 L 156.9,336.5 L 161.6,335.9 L 166.3,335.6 L 171.0,335.6 L 175.8,335.6 L 180.5,335.3 L 185.2,335.3 L 189.9,335.3 L 194.6,335.0 L 199.3,335.0 L 204.1,335.0 L 208.8,334.7 L 213.5,334.7 L 218.2,334.7 L 222.9,334.7 L 227.6,334.4 L 232.4,334.4 L 237.1,334.4 L 241.8,334.4 L 246.5,334.4 L 251.2,334.4 L 255.9,334.4 L 260.6,334.4 L 265.4,334.4 L 270.1,334.4 L 274.8,334.4 L 279.5,334.4 L 284.2,334.4 L 288.9,334.1 L 293.7,334.1 L 298.4,334.1 L 303.1,334.1 L 307.8,334.1 L 312.5,334.1 L 317.2,334.1 L 322.0,334.1 L 326.7,334.1 L 331.4,334.1 L 336.1,334.1 L 340.8,334.1 L 345.5,333.8 L 350.3,333.8 L 355.0,333.8 L 359.7,333.8 L 364.4,333.8 L 369.1,333.8 L 373.8,333.8 L 378.6,333.8 L 383.3,333.8 L 388.0,333.8 L 392.7,333.8 L 397.4,333.8 L 402.1,333.8 L 406.9,333.8 L 411.6,333.8 L 416.3,333.8 L 421.0,333.8 L 425.7,333.8 L 430.4,333.8 L 435.1,333.8 L 439.9,333.8 L 444.6,333.8 L 449.3,333.8 L 454.0,333.8 L 458.7,333.8 L 463.4,333.8 L 468.2,333.8 L 472.9,333.8 L 477.6,333.8 L 482.3,333.8 L 487.0,333.8 L 491.7,333.8 L 496.5,333.8 L 501.2,333.8 L 505.9,333.8 L 510.6,333.8 L 515.3,333.5 L 520.0,333.5 L 524.8,333.5 L 529.5,333.5 L 534.2,333.5 L 538.9,333.2 L 543.6,333.2 L 548.3,333.2 L 553.1,333.2 L 557.8,332.9 L 562.5,332.9 L 567.2,332.6 L 571.9,332.6 L 576.6,332.6 L 581.4,332.6 L 586.1,332.6 L 590.8,332.6 L 595.5,332.6 L 600.2,332.6 L 604.9,332.6 L 609.6,332.6 L 614.4,332.6 L 619.1,332.6 L 623.8,332.6 L 628.5,332.6 L 633.2,332.6 L 637.9,332.6 L 642.7,332.6 L 647.4,332.6 L 652.1,332.6 L 656.8,332.6 L 661.5,332.6 L 666.2,332.6 L 671.0,332.6 L 675.7,332.6 L 680.4,332.6 L 685.1,332.6 L 689.8,332.6 L 694.5,332.6 L 699.3,332.6 L 704.0,332.6 L 708.7,332.6 L 713.4,332.6 L 718.1,332.6 L 722.8,332.6 L 727.6,332.6 L 732.3,332.6 L 737.0,332.6 L 741.7,332.6 L 746.4,332.6 L 751.1,332.6 L 755.9,332.6 L 760.6,332.6 L 765.3,332.6 L 770.0,332.6 L 770.0,340 Z" fill="url(#g7)" clip-path="url(#ca)"/>
<path d="M 72.0,338.2 L 76.7,337.9 L 81.4,337.9 L 86.1,337.6 L 90.9,337.6 L 95.6,337.6 L 100.3,337.6 L 105.0,337.6 L 109.7,337.1 L 114.4,337.1 L 119.2,337.1 L 123.9,337.1 L 128.6,337.1 L 133.3,336.8 L 138.0,336.8 L 142.7,336.8 L 147.5,336.8 L 152.2,336.8 L 156.9,336.5 L 161.6,335.9 L 166.3,335.6 L 171.0,335.6 L 175.8,335.6 L 180.5,335.3 L 185.2,335.3 L 189.9,335.3 L 194.6,335.0 L 199.3,335.0 L 204.1,335.0 L 208.8,334.7 L 213.5,334.7 L 218.2,334.7 L 222.9,334.7 L 227.6,334.4 L 232.4,334.4 L 237.1,334.4 L 241.8,334.4 L 246.5,334.4 L 251.2,334.4 L 255.9,334.4 L 260.6,334.4 L 265.4,334.4 L 270.1,334.4 L 274.8,334.4 L 279.5,334.4 L 284.2,334.4 L 288.9,334.1 L 293.7,334.1 L 298.4,334.1 L 303.1,334.1 L 307.8,334.1 L 312.5,334.1 L 317.2,334.1 L 322.0,334.1 L 326.7,334.1 L 331.4,334.1 L 336.1,334.1 L 340.8,334.1 L 345.5,333.8 L 350.3,333.8 L 355.0,333.8 L 359.7,333.8 L 364.4,333.8 L 369.1,333.8 L 373.8,333.8 L 378.6,333.8 L 383.3,333.8 L 388.0,333.8 L 392.7,333.8 L 397.4,333.8 L 402.1,333.8 L 406.9,333.8 L 411.6,333.8 L 416.3,333.8 L 421.0,333.8 L 425.7,333.8 L 430.4,333.8 L 435.1,333.8 L 439.9,333.8 L 444.6,333.8 L 449.3,333.8 L 454.0,333.8 L 458.7,333.8 L 463.4,333.8 L 468.2,333.8 L 472.9,333.8 L 477.6,333.8 L 482.3,333.8 L 487.0,333.8 L 491.7,333.8 L 496.5,333.8 L 501.2,333.8 L 505.9,333.8 L 510.6,333.8 L 515.3,333.5 L 520.0,333.5 L 524.8,333.5 L 529.5,333.5 L 534.2,333.5 L 538.9,333.2 L 543.6,333.2 L 548.3,333.2 L 553.1,333.2 L 557.8,332.9 L 562.5,332.9 L 567.2,332.6 L 571.9,332.6 L 576.6,332.6 L 581.4,332.6 L 586.1,332.6 L 590.8,332.6 L 595.5,332.6 L 600.2,332.6 L 604.9,332.6 L 609.6,332.6 L 614.4,332.6 L 619.1,332.6 L 623.8,332.6 L 628.5,332.6 L 633.2,332.6 L 637.9,332.6 L 642.7,332.6 L 647.4,332.6 L 652.1,332.6 L 656.8,332.6 L 661.5,332.6 L 666.2,332.6 L 671.0,332.6 L 675.7,332.6 L 680.4,332.6 L 685.1,332.6 L 689.8,332.6 L 694.5,332.6 L 699.3,332.6 L 704.0,332.6 L 708.7,332.6 L 713.4,332.6 L 718.1,332.6 L 722.8,332.6 L 727.6,332.6 L 732.3,332.6 L 737.0,332.6 L 741.7,332.6 L 746.4,332.6 L 751.1,332.6 L 755.9,332.6 L 760.6,332.6 L 765.3,332.6 L 770.0,332.6" fill="none" stroke="#FF6363" stroke-width="2.5" stroke-linejoin="round" clip-path="url(#ca)"/>
<text x="97.9" y="55.0" text-anchor="middle" font-size="9" fill="#34C759" opacity="0.85" clip-path="url(#ca)">+15.2% (+50)</text>
<text x="97.9" y="66.0" text-anchor="middle" font-size="9" fill="#4F8EF7" opacity="0.85" clip-path="url(#ca)">+2.8% (+11)</text>
<text x="97.9" y="77.0" text-anchor="middle" font-size="9" fill="#FF6363" opacity="0.85" clip-path="url(#ca)">+66.7% (+4)</text>
<text x="187.5" y="55.0" text-anchor="middle" font-size="9" fill="#34C759" opacity="0.85" clip-path="url(#ca)">+20.1% (+77)</text>
<text x="187.5" y="66.0" text-anchor="middle" font-size="9" fill="#4F8EF7" opacity="0.85" clip-path="url(#ca)">+16.8% (+69)</text>
<text x="187.5" y="77.0" text-anchor="middle" font-size="9" fill="#FF6363" opacity="0.85" clip-path="url(#ca)">+90.0% (+9)</text>
<text x="312.5" y="55.0" text-anchor="middle" font-size="9" fill="#34C759" opacity="0.85" clip-path="url(#ca)">+16.1% (+74)</text>
<text x="312.5" y="66.0" text-anchor="middle" font-size="9" fill="#4F8EF7" opacity="0.85" clip-path="url(#ca)">+17.3% (+83)</text>
<text x="312.5" y="77.0" text-anchor="middle" font-size="9" fill="#FF6363" opacity="0.85" clip-path="url(#ca)">+10.5% (+2)</text>
<text x="439.9" y="55.0" text-anchor="middle" font-size="9" fill="#34C759" opacity="0.85" clip-path="url(#ca)">+10.5% (+56)</text>
<text x="439.9" y="66.0" text-anchor="middle" font-size="9" fill="#4F8EF7" opacity="0.85" clip-path="url(#ca)">+14.4% (+81)</text>
<text x="439.9" y="77.0" text-anchor="middle" font-size="9" fill="#FF6363" opacity="0.85" clip-path="url(#ca)">+0.0% (+0)</text>
<text x="567.2" y="55.0" text-anchor="middle" font-size="9" fill="#34C759" opacity="0.85" clip-path="url(#ca)">+6.2% (+37)</text>
<text x="567.2" y="66.0" text-anchor="middle" font-size="9" fill="#4F8EF7" opacity="0.85" clip-path="url(#ca)">+6.1% (+46)</text>
<text x="567.2" y="77.0" text-anchor="middle" font-size="9" fill="#FF6363" opacity="0.85" clip-path="url(#ca)">+19.0% (+4)</text>
<text x="692.2" y="55.0" text-anchor="middle" font-size="9" fill="#34C759" opacity="0.85" clip-path="url(#ca)">+8.1% (+51)</text>
<text x="692.2" y="66.0" text-anchor="middle" font-size="9" fill="#4F8EF7" opacity="0.85" clip-path="url(#ca)">+8.1% (+65)</text>
<text x="692.2" y="77.0" text-anchor="middle" font-size="9" fill="#FF6363" opacity="0.85" clip-path="url(#ca)">+0.0% (+0)</text>
<text x="762.9" y="55.0" text-anchor="middle" font-size="9" fill="#34C759" opacity="0.85" clip-path="url(#ca)">+0.9% (+6)</text>
<text x="762.9" y="66.0" text-anchor="middle" font-size="9" fill="#4F8EF7" opacity="0.85" clip-path="url(#ca)">+0.8% (+7)</text>
<text x="762.9" y="77.0" text-anchor="middle" font-size="9" fill="#FF6363" opacity="0.85" clip-path="url(#ca)">+0.0% (+0)</text>
<rect x="211" y="369" width="12" height="12" fill="#34C759" rx="2"/>
<text x="227" y="379" font-size="12" fill="#111827">macOS + Windows</text>
<rect x="351" y="369" width="12" height="12" fill="#4F8EF7" rx="2"/>
<text x="367" y="379" font-size="12" fill="#111827">macOS only</text>
<rect x="491" y="369" width="12" height="12" fill="#FF6363" rx="2"/>
<text x="507" y="379" font-size="12" fill="#111827">Windows only</text>
<text x="72" y="394" font-size="8" fill="#e5e7eb">data since Dec 11, 2025</text>
</svg>