<svg xmlns="http://www.w3.org/2000/svg" width="800" height="400" viewBox="0 0 800 400">
<defs>
  <style>text { font-family: -apple-system, BlinkMacSystemFont, 'Segoe UI', Roboto, sans-serif; }</style>
  <linearGradient id="g5" x1="0" y1="0" x2="0" y2="1">
  <stop offset="0%" stop-color="#34C759" stop-opacity="0.25"/>
  <stop offset="100%" stop-color="#34C759" stop-opacity="0"/>
</linearGradient>
<linearGradient id="g6" x1="0" y1="0" x2="0" y2="1">
  <stop offset="0%" stop-color="#4F8EF7" stop-opacity="0.25"/>
  <stop offset="100%" stop-color="#4F8EF7" stop-opacity="0"/>
</linearGradient>
<linearGradient id="g7" x1="0" y1="0" x2="0" y2="1">
  <stop offset="0%" stop-color="#FF6363" stop-opacity="0.25"/>
  <stop offset="100%" stop-color="#FF6363" stop-opacity="0"/>
</linearGradient>
  <clipPath id="ca"><rect x="72" y="45" width="698" height="295"/></clipPath>
</defs>
<rect width="800" height="400" fill="#ffffff" rx="12"/>
<text x="400" y="26" text-anchor="middle" font-size="15" font-weight="600" fill="#111827">Platform Support Over Time</text>
<line x1="72" y1="340.0" x2="770" y2="340.0" stroke="#f3f4f6" stroke-width="1"/>
<text x="66" y="344.0" text-anchor="end" font-size="11" fill="#6b7280">0</text>
<line x1="72" y1="281.0" x2="770" y2="281.0" stroke="#f3f4f6" stroke-width="1"/>
<text x="66" y="285.0" text-anchor="end" font-size="11" fill="#6b7280">200</text>
<line x1="72" y1="222.0" x2="770" y2="222.0" stroke="#f3f4f6" stroke-width="1"/>
<text x="66" y="226.0" text-anchor="end" font-size="11" fill="#6b7280">400</text>
<line x1="72" y1="163.0" x2="770" y2="163.0" stroke="#f3f4f6" stroke-width="1"/>
<text x="66" y="167.0" text-anchor="end" font-size="11" fill="#6b7280">600</text>
<line x1="72" y1="104.0" x2="770" y2="104.0" stroke="#f3f4f6" stroke-width="1"/>
<text x="66" y="108.0" text-anchor="end" font-size="11" fill="#6b7280">800</text>
<line x1="72" y1="45.0" x2="770" y2="45.0" stroke="#f3f4f6" stroke-width="1"/>
<text x="66" y="49.0" text-anchor="end" font-size="11" fill="#6b7280">1.0k</text>
<line x1="120.1" y1="45" x2="120.1" y2="340" stroke="#e5e7eb" stroke-width="1" stroke-dasharray="3,3" clip-path="url(#ca)"/>
<line x1="224.4" y1="45" x2="224.4" y2="340" stroke="#e5e7eb" stroke-width="1" stroke-dasharray="3,3" clip-path="url(#ca)"/>
<line x1="332.7" y1="45" x2="332.7" y2="340" stroke="#e5e7eb" stroke-width="1" stroke-dasharray="3,3" clip-path="url(#ca)"/>
<line x1="441.1" y1="45" x2="441.1" y2="340" stroke="#e5e7eb" stroke-width="1" stroke-dasharray="3,3" clip-path="url(#ca)"/>
<line x1="549.4" y1="45" x2="549.4" y2="340" stroke="#e5e7eb" stroke-width="1" stroke-dasharray="3,3" clip-path="url(#ca)"/>
<line x1="653.7" y1="45" x2="653.7" y2="340" stroke="#e5e7eb" stroke-width="1" stroke-dasharray="3,3" clip-path="url(#ca)"/>
<line x1="749.9" y1="45" x2="749.9" y2="340" stroke="#e5e7eb" stroke-width="1" stroke-dasharray="3,3" clip-path="url(#ca)"/>
<text x="72.0" y="358.0" text-anchor="middle" font-size="11" fill="#6b7280">Dec 11</text>
<text x="212.4" y="358.0" text-anchor="middle" font-size="11" fill="#6b7280">Jan 29</text>
<text x="352.8" y="358.0" text-anchor="middle" font-size="11" fill="#6b7280">Mar 6</text>
<text x="489.2" y="358.0" text-anchor="middle" font-size="11" fill="#6b7280">Apr 14</text>
<text x="629.6" y="358.0" text-anchor="middle" font-size="11" fill="#6b7280">May 26</text>
<text x="770.0" y="358.0" text-anchor="middle" font-size="11" fill="#6b7280">Jul 7</text>
<line x1="72" y1="45" x2="72" y2="340" stroke="#e5e7eb" stroke-width="1"/>
<line x1="72" y1="340" x2="770" y2="340" stroke="#e5e7eb" stroke-width="1"/>
<text x="-192.5" y="18" text-anchor="middle" font-size="12" fill="#6b7280" transform="rotate(-90)">Extensions</text>
<path d="M 72.0,340 L 72.0,242.6 L 76.0,240.0 L 80.0,239.7 L 84.0,238.5 L 88.0,237.9 L 92.1,235.0 L 96.1,233.2 L 100.1,232.3 L 104.1,230.8 L 108.1,229.1 L 112.1,228.2 L 116.1,227.9 L 120.1,227.0 L 124.1,226.4 L 128.2,226.1 L 132.2,225.2 L 136.2,224.4 L 140.2,223.5 L 144.2,222.6 L 148.2,221.4 L 152.2,220.5 L 156.2,219.6 L 160.3,218.8 L 164.3,217.0 L 168.3,216.4 L 172.3,216.4 L 176.3,214.3 L 180.3,213.7 L 184.3,213.2 L 188.3,212.6 L 192.3,211.1 L 196.4,209.0 L 200.4,208.7 L 204.4,208.4 L 208.4,206.7 L 212.4,206.1 L 216.4,204.6 L 220.4,204.3 L 224.4,204.0 L 228.4,203.4 L 232.5,203.4 L 236.5,203.4 L 240.5,199.3 L 244.5,199.0 L 248.5,198.1 L 252.5,197.8 L 256.5,197.5 L 260.5,196.6 L 264.6,196.0 L 268.6,195.4 L 272.6,193.7 L 276.6,193.7 L 280.6,193.7 L 284.6,193.4 L 288.6,190.4 L 292.6,189.6 L 296.6,189.0 L 300.7,188.1 L 304.7,187.5 L 308.7,187.5 L 312.7,186.0 L 316.7,183.9 L 320.7,183.4 L 324.7,183.1 L 328.7,182.2 L 332.7,182.2 L 336.8,181.6 L 340.8,180.7 L 344.8,180.1 L 348.8,178.9 L 352.8,177.8 L 356.8,177.5 L 360.8,177.5 L 364.8,176.3 L 368.9,176.3 L 372.9,176.3 L 376.9,174.5 L 380.9,174.2 L 384.9,173.9 L 388.9,173.9 L 392.9,173.6 L 396.9,172.4 L 400.9,171.9 L 405.0,171.0 L 409.0,171.0 L 413.0,170.7 L 417.0,169.5 L 421.0,168.6 L 425.0,168.6 L 429.0,168.3 L 433.0,167.7 L 437.0,165.7 L 441.1,165.1 L 445.1,164.2 L 449.1,164.2 L 453.1,163.6 L 457.1,163.3 L 461.1,163.0 L 465.1,162.7 L 469.1,162.4 L 473.1,162.4 L 477.2,162.1 L 481.2,161.8 L 485.2,160.9 L 489.2,159.8 L 493.2,159.5 L 497.2,158.6 L 501.2,158.6 L 505.2,157.4 L 509.3,157.1 L 513.3,157.1 L 517.3,157.1 L 521.3,156.2 L 525.3,155.9 L 529.3,155.9 L 533.3,155.9 L 537.3,155.6 L 541.3,154.4 L 545.4,154.2 L 549.4,153.3 L 553.4,152.7 L 557.4,152.7 L 561.4,151.8 L 565.4,151.2 L 569.4,151.2 L 573.4,150.9 L 577.4,149.4 L 581.5,148.0 L 585.5,147.7 L 589.5,147.1 L 593.5,145.9 L 597.5,145.9 L 601.5,145.3 L 605.5,143.8 L 609.5,141.2 L 613.6,140.3 L 617.6,140.3 L 621.6,140.3 L 625.6,140.3 L 629.6,140.3 L 633.6,139.1 L 637.6,138.2 L 641.6,138.2 L 645.6,138.2 L 649.7,138.2 L 653.7,137.3 L 657.7,137.3 L 661.7,136.5 L 665.7,135.6 L 669.7,135.3 L 673.7,135.0 L 677.7,134.4 L 681.7,134.4 L 685.8,133.5 L 689.8,132.3 L 693.8,131.4 L 697.8,129.7 L 701.8,129.1 L 705.8,128.8 L 709.8,128.5 L 713.8,127.9 L 717.9,127.6 L 721.9,126.1 L 725.9,125.2 L 729.9,123.8 L 733.9,123.5 L 737.9,123.5 L 741.9,123.2 L 745.9,122.0 L 749.9,121.7 L 754.0,121.4 L 758.0,121.1 L 762.0,119.9 L 766.0,119.6 L 770.0,118.2 L 770.0,340 Z" fill="url(#g5)" clip-path="url(#ca)"/>
<path d="M 72.0,242.6 L 76.0,240.0 L 80.0,239.7 L 84.0,238.5 L 88.0,237.9 L 92.1,235.0 L 96.1,233.2 L 100.1,232.3 L 104.1,230.8 L 108.1,229.1 L 112.1,228.2 L 116.1,227.9 L 120.1,227.0 L 124.1,226.4 L 128.2,226.1 L 132.2,225.2 L 136.2,224.4 L 140.2,223.5 L 144.2,222.6 L 148.2,221.4 L 152.2,220.5 L 156.2,219.6 L 160.3,218.8 L 164.3,217.0 L 168.3,216.4 L 172.3,216.4 L 176.3,214.3 L 180.3,213.7 L 184.3,213.2 L 188.3,212.6 L 192.3,211.1 L 196.4,209.0 L 200.4,208.7 L 204.4,208.4 L 208.4,206.7 L 212.4,206.1 L 216.4,204.6 L 220.4,204.3 L 224.4,204.0 L 228.4,203.4 L 232.5,203.4 L 236.5,203.4 L 240.5,199.3 L 244.5,199.0 L 248.5,198.1 L 252.5,197.8 L 256.5,197.5 L 260.5,196.6 L 264.6,196.0 L 268.6,195.4 L 272.6,193.7 L 276.6,193.7 L 280.6,193.7 L 284.6,193.4 L 288.6,190.4 L 292.6,189.6 L 296.6,189.0 L 300.7,188.1 L 304.7,187.5 L 308.7,187.5 L 312.7,186.0 L 316.7,183.9 L 320.7,183.4 L 324.7,183.1 L 328.7,182.2 L 332.7,182.2 L 336.8,181.6 L 340.8,180.7 L 344.8,180.1 L 348.8,178.9 L 352.8,177.8 L 356.8,177.5 L 360.8,177.5 L 364.8,176.3 L 368.9,176.3 L 372.9,176.3 L 376.9,174.5 L 380.9,174.2 L 384.9,173.9 L 388.9,173.9 L 392.9,173.6 L 396.9,172.4 L 400.9,171.9 L 405.0,171.0 L 409.0,171.0 L 413.0,170.7 L 417.0,169.5 L 421.0,168.6 L 425.0,168.6 L 429.0,168.3 L 433.0,167.7 L 437.0,165.7 L 441.1,165.1 L 445.1,164.2 L 449.1,164.2 L 453.1,163.6 L 457.1,163.3 L 461.1,163.0 L 465.1,162.7 L 469.1,162.4 L 473.1,162.4 L 477.2,162.1 L 481.2,161.8 L 485.2,160.9 L 489.2,159.8 L 493.2,159.5 L 497.2,158.6 L 501.2,158.6 L 505.2,157.4 L 509.3,157.1 L 513.3,157.1 L 517.3,157.1 L 521.3,156.2 L 525.3,155.9 L 529.3,155.9 L 533.3,155.9 L 537.3,155.6 L 541.3,154.4 L 545.4,154.2 L 549.4,153.3 L 553.4,152.7 L 557.4,152.7 L 561.4,151.8 L 565.4,151.2 L 569.4,151.2 L 573.4,150.9 L 577.4,149.4 L 581.5,148.0 L 585.5,147.7 L 589.5,147.1 L 593.5,145.9 L 597.5,145.9 L 601.5,145.3 L 605.5,143.8 L 609.5,141.2 L 613.6,140.3 L 617.6,140.3 L 621.6,140.3 L 625.6,140.3 L 629.6,140.3 L 633.6,139.1 L 637.6,138.2 L 641.6,138.2 L 645.6,138.2 L 649.7,138.2 L 653.7,137.3 L 657.7,137.3 L 661.7,136.5 L 665.7,135.6 L 669.7,135.3 L 673.7,135.0 L 677.7,134.4 L 681.7,134.4 L 685.8,133.5 L 689.8,132.3 L 693.8,131.4 L 697.8,129.7 L 701.8,129.1 L 705.8,128.8 L 709.8,128.5 L 713.8,127.9 L 717.9,127.6 L 721.9,126.1 L 725.9,125.2 L 729.9,123.8 L 733.9,123.5 L 737.9,123.5 L 741.9,123.2 L 745.9,122.0 L 749.9,121.7 L 754.0,121.4 L 758.0,121.1 L 762.0,119.9 L 766.0,119.6 L 770.0,118.2" fill="none" stroke="#34C759" stroke-width="2.5" stroke-linejoin="round" clip-path="url(#ca)"/>
<path d="M 72.0,340 L 72.0,222.6 L 76.0,222.6 L 80.0,222.3 L 84.0,221.4 L 88.0,221.7 L 92.1,221.7 L 96.1,220.5 L 100.1,219.6 L 104.1,219.6 L 108.1,219.9 L 112.1,219.6 L 116.1,219.3 L 120.1,219.1 L 124.1,219.1 L 128.2,219.1 L 132.2,219.3 L 136.2,218.8 L 140.2,218.2 L 144.2,216.4 L 148.2,215.2 L 152.2,215.2 L 156.2,214.9 L 160.3,213.2 L 164.3,210.5 L 168.3,209.6 L 172.3,209.0 L 176.3,207.0 L 180.3,205.5 L 184.3,204.9 L 188.3,204.3 L 192.3,203.7 L 196.4,203.4 L 200.4,203.4 L 204.4,201.3 L 208.4,200.8 L 212.4,200.2 L 216.4,200.2 L 220.4,198.7 L 224.4,198.4 L 228.4,197.5 L 232.5,196.3 L 236.5,194.9 L 240.5,192.8 L 244.5,190.7 L 248.5,190.4 L 252.5,189.8 L 256.5,189.3 L 260.5,187.5 L 264.6,187.5 L 268.6,186.9 L 272.6,186.0 L 276.6,185.4 L 280.6,184.2 L 284.6,184.5 L 288.6,181.0 L 292.6,180.7 L 296.6,180.4 L 300.7,179.8 L 304.7,178.0 L 308.7,178.0 L 312.7,176.3 L 316.7,174.2 L 320.7,174.2 L 324.7,174.2 L 328.7,173.9 L 332.7,173.6 L 336.8,173.3 L 340.8,171.9 L 344.8,170.1 L 348.8,169.5 L 352.8,168.3 L 356.8,168.3 L 360.8,167.4 L 364.8,165.7 L 368.9,164.8 L 372.9,164.5 L 376.9,162.4 L 380.9,162.1 L 384.9,162.1 L 388.9,161.8 L 392.9,161.8 L 396.9,160.3 L 400.9,159.8 L 405.0,158.9 L 409.0,158.6 L 413.0,158.0 L 417.0,155.6 L 421.0,152.4 L 425.0,152.1 L 429.0,151.5 L 433.0,151.2 L 437.0,149.7 L 441.1,118.5 L 445.1,117.9 L 449.1,116.4 L 453.1,116.4 L 457.1,116.4 L 461.1,116.7 L 465.1,116.4 L 469.1,114.6 L 473.1,114.0 L 477.2,113.7 L 481.2,113.4 L 485.2,112.3 L 489.2,110.5 L 493.2,110.5 L 497.2,110.5 L 501.2,110.2 L 505.2,109.9 L 509.3,109.9 L 513.3,109.3 L 517.3,108.4 L 521.3,106.9 L 525.3,106.4 L 529.3,106.1 L 533.3,106.1 L 537.3,105.8 L 541.3,105.2 L 545.4,104.9 L 549.4,103.4 L 553.4,103.4 L 557.4,102.8 L 561.4,101.6 L 565.4,100.2 L 569.4,99.9 L 573.4,99.6 L 577.4,96.9 L 581.5,96.3 L 585.5,95.7 L 589.5,95.7 L 593.5,94.6 L 597.5,94.0 L 601.5,92.5 L 605.5,91.9 L 609.5,91.0 L 613.6,90.7 L 617.6,89.5 L 621.6,88.7 L 625.6,88.4 L 629.6,87.8 L 633.6,86.6 L 637.6,86.0 L 641.6,85.1 L 645.6,84.5 L 649.7,84.2 L 653.7,83.6 L 657.7,82.8 L 661.7,82.2 L 665.7,81.6 L 669.7,80.7 L 673.7,80.7 L 677.7,80.1 L 681.7,78.6 L 685.8,77.2 L 689.8,76.3 L 693.8,76.6 L 697.8,76.0 L 701.8,75.7 L 705.8,75.4 L 709.8,74.8 L 713.8,73.3 L 717.9,73.3 L 721.9,73.0 L 725.9,72.1 L 729.9,71.3 L 733.9,70.1 L 737.9,69.5 L 741.9,69.5 L 745.9,68.6 L 749.9,68.0 L 754.0,67.4 L 758.0,66.5 L 762.0,65.9 L 766.0,65.9 L 770.0,65.6 L 770.0,340 Z" fill="url(#g6)" clip-path="url(#ca)"/>
<path d="M 72.0,222.6 L 76.0,222.6 L 80.0,222.3 L 84.0,221.4 L 88.0,221.7 L 92.1,221.7 L 96.1,220.5 L 100.1,219.6 L 104.1,219.6 L 108.1,219.9 L 112.1,219.6 L 116.1,219.3 L 120.1,219.1 L 124.1,219.1 L 128.2,219.1 L 132.2,219.3 L 136.2,218.8 L 140.2,218.2 L 144.2,216.4 L 148.2,215.2 L 152.2,215.2 L 156.2,214.9 L 160.3,213.2 L 164.3,210.5 L 168.3,209.6 L 172.3,209.0 L 176.3,207.0 L 180.3,205.5 L 184.3,204.9 L 188.3,204.3 L 192.3,203.7 L 196.4,203.4 L 200.4,203.4 L 204.4,201.3 L 208.4,200.8 L 212.4,200.2 L 216.4,200.2 L 220.4,198.7 L 224.4,198.4 L 228.4,197.5 L 232.5,196.3 L 236.5,194.9 L 240.5,192.8 L 244.5,190.7 L 248.5,190.4 L 252.5,189.8 L 256.5,189.3 L 260.5,187.5 L 264.6,187.5 L 268.6,186.9 L 272.6,186.0 L 276.6,185.4 L 280.6,184.2 L 284.6,184.5 L 288.6,181.0 L 292.6,180.7 L 296.6,180.4 L 300.7,179.8 L 304.7,178.0 L 308.7,178.0 L 312.7,176.3 L 316.7,174.2 L 320.7,174.2 L 324.7,174.2 L 328.7,173.9 L 332.7,173.6 L 336.8,173.3 L 340.8,171.9 L 344.8,170.1 L 348.8,169.5 L 352.8,168.3 L 356.8,168.3 L 360.8,167.4 L 364.8,165.7 L 368.9,164.8 L 372.9,164.5 L 376.9,162.4 L 380.9,162.1 L 384.9,162.1 L 388.9,161.8 L 392.9,161.8 L 396.9,160.3 L 400.9,159.8 L 405.0,158.9 L 409.0,158.6 L 413.0,158.0 L 417.0,155.6 L 421.0,152.4 L 425.0,152.1 L 429.0,151.5 L 433.0,151.2 L 437.0,149.7 L 441.1,118.5 L 445.1,117.9 L 449.1,116.4 L 453.1,116.4 L 457.1,116.4 L 461.1,116.7 L 465.1,116.4 L 469.1,114.6 L 473.1,114.0 L 477.2,113.7 L 481.2,113.4 L 485.2,112.3 L 489.2,110.5 L 493.2,110.5 L 497.2,110.5 L 501.2,110.2 L 505.2,109.9 L 509.3,109.9 L 513.3,109.3 L 517.3,108.4 L 521.3,106.9 L 525.3,106.4 L 529.3,106.1 L 533.3,106.1 L 537.3,105.8 L 541.3,105.2 L 545.4,104.9 L 549.4,103.4 L 553.4,103.4 L 557.4,102.8 L 561.4,101.6 L 565.4,100.2 L 569.4,99.9 L 573.4,99.6 L 577.4,96.9 L 581.5,96.3 L 585.5,95.7 L 589.5,95.7 L 593.5,94.6 L 597.5,94.0 L 601.5,92.5 L 605.5,91.9 L 609.5,91.0 L 613.6,90.7 L 617.6,89.5 L 621.6,88.7 L 625.6,88.4 L 629.6,87.8 L 633.6,86.6 L 637.6,86.0 L 641.6,85.1 L 645.6,84.5 L 649.7,84.2 L 653.7,83.6 L 657.7,82.8 L 661.7,82.2 L 665.7,81.6 L 669.7,80.7 L 673.7,80.7 L 677.7,80.1 L 681.7,78.6 L 685.8,77.2 L 689.8,76.3 L 693.8,76.6 L 697.8,76.0 L 701.8,75.7 L 705.8,75.4 L 709.8,74.8 L 713.8,73.3 L 717.9,73.3 L 721.9,73.0 L 725.9,72.1 L 729.9,71.3 L 733.9,70.1 L 737.9,69.5 L 741.9,69.5 L 745.9,68.6 L 749.9,68.0 L 754.0,67.4 L 758.0,66.5 L 762.0,65.9 L 766.0,65.9 L 770.0,65.6" fill="none" stroke="#4F8EF7" stroke-width="2.5" stroke-linejoin="round" clip-path="url(#ca)"/>
<path d="M 72.0,340 L 72.0,338.2 L 76.0,337.9 L 80.0,337.9 L 84.0,337.6 L 88.0,337.6 L 92.1,337.6 L 96.1,337.6 L 100.1,337.6 L 104.1,337.1 L 108.1,337.1 L 112.1,337.1 L 116.1,337.1 L 120.1,337.1 L 124.1,336.8 L 128.2,336.8 L 132.2,336.8 L 136.2,336.8 L 140.2,336.8 L 144.2,336.5 L 148.2,335.9 L 152.2,335.6 L 156.2,335.6 L 160.3,335.6 L 164.3,335.3 L 168.3,335.3 L 172.3,335.3 L 176.3,335.0 L 180.3,335.0 L 184.3,335.0 L 188.3,334.7 L 192.3,334.7 L 196.4,334.7 L 200.4,334.7 L 204.4,334.4 L 208.4,334.4 L 212.4,334.4 L 216.4,334.4 L 220.4,334.4 L 224.4,334.4 L 228.4,334.4 L 232.5,334.4 L 236.5,334.4 L 240.5,334.4 L 244.5,334.4 L 248.5,334.4 L 252.5,334.4 L 256.5,334.1 L 260.5,334.1 L 264.6,334.1 L 268.6,334.1 L 272.6,334.1 L 276.6,334.1 L 280.6,334.1 L 284.6,334.1 L 288.6,334.1 L 292.6,334.1 L 296.6,334.1 L 300.7,334.1 L 304.7,333.8 L 308.7,333.8 L 312.7,333.8 L 316.7,333.8 L 320.7,333.8 L 324.7,333.8 L 328.7,333.8 L 332.7,333.8 L 336.8,333.8 L 340.8,333.8 L 344.8,333.8 L 348.8,333.8 L 352.8,333.8 L 356.8,333.8 L 360.8,333.8 L 364.8,333.8 L 368.9,333.8 L 372.9,333.8 L 376.9,333.8 L 380.9,333.8 L 384.9,333.8 L 388.9,333.8 L 392.9,333.8 L 396.9,333.8 L 400.9,333.8 L 405.0,333.8 L 409.0,333.8 L 413.0,333.8 L 417.0,333.8 L 421.0,333.8 L 425.0,333.8 L 429.0,333.8 L 433.0,333.8 L 437.0,333.8 L 441.1,333.8 L 445.1,333.8 L 449.1,333.5 L 453.1,333.5 L 457.1,333.5 L 461.1,333.5 L 465.1,333.5 L 469.1,333.2 L 473.1,333.2 L 477.2,333.2 L 481.2,333.2 L 485.2,332.9 L 489.2,332.9 L 493.2,332.6 L 497.2,332.6 L 501.2,332.6 L 505.2,332.6 L 509.3,332.6 L 513.3,332.6 L 517.3,332.6 L 521.3,332.6 L 525.3,332.6 L 529.3,332.6 L 533.3,332.6 L 537.3,332.6 L 541.3,332.6 L 545.4,332.6 L 549.4,332.6 L 553.4,332.6 L 557.4,332.6 L 561.4,332.6 L 565.4,332.6 L 569.4,332.6 L 573.4,332.6 L 577.4,332.6 L 581.5,332.6 L 585.5,332.6 L 589.5,332.6 L 593.5,332.6 L 597.5,332.6 L 601.5,332.6 L 605.5,332.6 L 609.5,332.6 L 613.6,332.6 L 617.6,332.6 L 621.6,332.6 L 625.6,332.6 L 629.6,332.6 L 633.6,332.6 L 637.6,332.6 L 641.6,332.6 L 645.6,332.6 L 649.7,332.6 L 653.7,332.6 L 657.7,332.6 L 661.7,332.6 L 665.7,332.6 L 669.7,332.6 L 673.7,332.6 L 677.7,332.6 L 681.7,332.6 L 685.8,332.3 L 689.8,332.3 L 693.8,332.3 L 697.8,332.3 L 701.8,332.3 L 705.8,332.3 L 709.8,332.3 L 713.8,332.3 L 717.9,332.3 L 721.9,332.3 L 725.9,332.3 L 729.9,332.0 L 733.9,332.0 L 737.9,332.0 L 741.9,332.0 L 745.9,332.0 L 749.9,332.0 L 754.0,332.0 L 758.0,332.0 L 762.0,332.0 L 766.0,332.0 L 770.0,332.0 L 770.0,340 Z" fill="url(#g7)" clip-path="url(#ca)"/>
<path d="M 72.0,338.2 L 76.0,337.9 L 80.0,337.9 L 84.0,337.6 L 88.0,337.6 L 92.1,337.6 L 96.1,337.6 L 100.1,337.6 L 104.1,337.1 L 108.1,337.1 L 112.1,337.1 L 116.1,337.1 L 120.1,337.1 L 124.1,336.8 L 128.2,336.8 L 132.2,336.8 L 136.2,336.8 L 140.2,336.8 L 144.2,336.5 L 148.2,335.9 L 152.2,335.6 L 156.2,335.6 L 160.3,335.6 L 164.3,335.3 L 168.3,335.3 L 172.3,335.3 L 176.3,335.0 L 180.3,335.0 L 184.3,335.0 L 188.3,334.7 L 192.3,334.7 L 196.4,334.7 L 200.4,334.7 L 204.4,334.4 L 208.4,334.4 L 212.4,334.4 L 216.4,334.4 L 220.4,334.4 L 224.4,334.4 L 228.4,334.4 L 232.5,334.4 L 236.5,334.4 L 240.5,334.4 L 244.5,334.4 L 248.5,334.4 L 252.5,334.4 L 256.5,334.1 L 260.5,334.1 L 264.6,334.1 L 268.6,334.1 L 272.6,334.1 L 276.6,334.1 L 280.6,334.1 L 284.6,334.1 L 288.6,334.1 L 292.6,334.1 L 296.6,334.1 L 300.7,334.1 L 304.7,333.8 L 308.7,333.8 L 312.7,333.8 L 316.7,333.8 L 320.7,333.8 L 324.7,333.8 L 328.7,333.8 L 332.7,333.8 L 336.8,333.8 L 340.8,333.8 L 344.8,333.8 L 348.8,333.8 L 352.8,333.8 L 356.8,333.8 L 360.8,333.8 L 364.8,333.8 L 368.9,333.8 L 372.9,333.8 L 376.9,333.8 L 380.9,333.8 L 384.9,333.8 L 388.9,333.8 L 392.9,333.8 L 396.9,333.8 L 400.9,333.8 L 405.0,333.8 L 409.0,333.8 L 413.0,333.8 L 417.0,333.8 L 421.0,333.8 L 425.0,333.8 L 429.0,333.8 L 433.0,333.8 L 437.0,333.8 L 441.1,333.8 L 445.1,333.8 L 449.1,333.5 L 453.1,333.5 L 457.1,333.5 L 461.1,333.5 L 465.1,333.5 L 469.1,333.2 L 473.1,333.2 L 477.2,333.2 L 481.2,333.2 L 485.2,332.9 L 489.2,332.9 L 493.2,332.6 L 497.2,332.6 L 501.2,332.6 L 505.2,332.6 L 509.3,332.6 L 513.3,332.6 L 517.3,332.6 L 521.3,332.6 L 525.3,332.6 L 529.3,332.6 L 533.3,332.6 L 537.3,332.6 L 541.3,332.6 L 545.4,332.6 L 549.4,332.6 L 553.4,332.6 L 557.4,332.6 L 561.4,332.6 L 565.4,332.6 L 569.4,332.6 L 573.4,332.6 L 577.4,332.6 L 581.5,332.6 L 585.5,332.6 L 589.5,332.6 L 593.5,332.6 L 597.5,332.6 L 601.5,332.6 L 605.5,332.6 L 609.5,332.6 L 613.6,332.6 L 617.6,332.6 L 621.6,332.6 L 625.6,332.6 L 629.6,332.6 L 633.6,332.6 L 637.6,332.6 L 641.6,332.6 L 645.6,332.6 L 649.7,332.6 L 653.7,332.6 L 657.7,332.6 L 661.7,332.6 L 665.7,332.6 L 669.7,332.6 L 673.7,332.6 L 677.7,332.6 L 681.7,332.6 L 685.8,332.3 L 689.8,332.3 L 693.8,332.3 L 697.8,332.3 L 701.8,332.3 L 705.8,332.3 L 709.8,332.3 L 713.8,332.3 L 717.9,332.3 L 721.9,332.3 L 725.9,332.3 L 729.9,332.0 L 733.9,332.0 L 737.9,332.0 L 741.9,332.0 L 745.9,332.0 L 749.9,332.0 L 754.0,332.0 L 758.0,332.0 L 762.0,332.0 L 766.0,332.0 L 770.0,332.0" fill="none" stroke="#FF6363" stroke-width="2.5" stroke-linejoin="round" clip-path="url(#ca)"/>
<text x="94.1" y="55.0" text-anchor="middle" font-size="9" fill="#34C759" opacity="0.85" clip-path="url(#ca)">+15.2% (+50)</text>
<text x="94.1" y="66.0" text-anchor="middle" font-size="9" fill="#4F8EF7" opacity="0.85" clip-path="url(#ca)">+2.8% (+11)</text>
<text x="94.1" y="77.0" text-anchor="middle" font-size="9" fill="#FF6363" opacity="0.85" clip-path="url(#ca)">+66.7% (+4)</text>
<text x="170.3" y="55.0" text-anchor="middle" font-size="9" fill="#34C759" opacity="0.85" clip-path="url(#ca)">+20.1% (+77)</text>
<text x="170.3" y="66.0" text-anchor="middle" font-size="9" fill="#4F8EF7" opacity="0.85" clip-path="url(#ca)">+16.8% (+69)</text>
<text x="170.3" y="77.0" text-anchor="middle" font-size="9" fill="#FF6363" opacity="0.85" clip-path="url(#ca)">+90.0% (+9)</text>
<text x="276.6" y="55.0" text-anchor="middle" font-size="9" fill="#34C759" opacity="0.85" clip-path="url(#ca)">+16.1% (+74)</text>
<text x="276.6" y="66.0" text-anchor="middle" font-size="9" fill="#4F8EF7" opacity="0.85" clip-path="url(#ca)">+17.3% (+83)</text>
<text x="276.6" y="77.0" text-anchor="middle" font-size="9" fill="#FF6363" opacity="0.85" clip-path="url(#ca)">+10.5% (+2)</text>
<text x="384.9" y="55.0" text-anchor="middle" font-size="9" fill="#34C759" opacity="0.85" clip-path="url(#ca)">+10.5% (+56)</text>
<text x="384.9" y="66.0" text-anchor="middle" font-size="9" fill="#4F8EF7" opacity="0.85" clip-path="url(#ca)">+14.4% (+81)</text>
<text x="384.9" y="77.0" text-anchor="middle" font-size="9" fill="#FF6363" opacity="0.85" clip-path="url(#ca)">+0.0% (+0)</text>
<text x="493.2" y="55.0" text-anchor="middle" font-size="9" fill="#34C759" opacity="0.85" clip-path="url(#ca)">+6.2% (+37)</text>
<text x="493.2" y="66.0" text-anchor="middle" font-size="9" fill="#4F8EF7" opacity="0.85" clip-path="url(#ca)">+6.1% (+46)</text>
<text x="493.2" y="77.0" text-anchor="middle" font-size="9" fill="#FF6363" opacity="0.85" clip-path="url(#ca)">+19.0% (+4)</text>
<text x="599.5" y="55.0" text-anchor="middle" font-size="9" fill="#34C759" opacity="0.85" clip-path="url(#ca)">+8.1% (+51)</text>
<text x="599.5" y="66.0" text-anchor="middle" font-size="9" fill="#4F8EF7" opacity="0.85" clip-path="url(#ca)">+8.1% (+65)</text>
<text x="599.5" y="77.0" text-anchor="middle" font-size="9" fill="#FF6363" opacity="0.85" clip-path="url(#ca)">+0.0% (+0)</text>
<text x="699.8" y="55.0" text-anchor="middle" font-size="9" fill="#34C759" opacity="0.85" clip-path="url(#ca)">+7.6% (+52)</text>
<text x="699.8" y="66.0" text-anchor="middle" font-size="9" fill="#4F8EF7" opacity="0.85" clip-path="url(#ca)">+5.9% (+51)</text>
<text x="699.8" y="77.0" text-anchor="middle" font-size="9" fill="#FF6363" opacity="0.85" clip-path="url(#ca)">+8.0% (+2)</text>
<text x="760.0" y="55.0" text-anchor="middle" font-size="9" fill="#34C759" opacity="0.85" clip-path="url(#ca)">+1.6% (+12)</text>
<text x="760.0" y="66.0" text-anchor="middle" font-size="9" fill="#4F8EF7" opacity="0.85" clip-path="url(#ca)">+0.9% (+8)</text>
<text x="760.0" y="77.0" text-anchor="middle" font-size="9" fill="#FF6363" opacity="0.85" clip-path="url(#ca)">+0.0% (+0)</text>
<rect x="211" y="369" width="12" height="12" fill="#34C759" rx="2"/>
<text x="227" y="379" font-size="12" fill="#111827">macOS + Windows</text>
<rect x="351" y="369" width="12" height="12" fill="#4F8EF7" rx="2"/>
<text x="367" y="379" font-size="12" fill="#111827">macOS only</text>
<rect x="491" y="369" width="12" height="12" fill="#FF6363" rx="2"/>
<text x="507" y="379" font-size="12" fill="#111827">Windows only</text>
<text x="72" y="394" font-size="8" fill="#e5e7eb">data since Dec 11, 2025</text>
</svg>