<svg xmlns="http://www.w3.org/2000/svg" width="800" height="400" viewBox="0 0 800 400">
<defs>
  <style>text { font-family: -apple-system, BlinkMacSystemFont, 'Segoe UI', Roboto, sans-serif; }</style>
  <linearGradient id="g5" x1="0" y1="0" x2="0" y2="1">
  <stop offset="0%" stop-color="#34C759" stop-opacity="0.25"/>
  <stop offset="100%" stop-color="#34C759" stop-opacity="0"/>
</linearGradient>
<linearGradient id="g6" x1="0" y1="0" x2="0" y2="1">
  <stop offset="0%" stop-color="#4F8EF7" stop-opacity="0.25"/>
  <stop offset="100%" stop-color="#4F8EF7" stop-opacity="0"/>
</linearGradient>
<linearGradient id="g7" x1="0" y1="0" x2="0" y2="1">
  <stop offset="0%" stop-color="#FF6363" stop-opacity="0.25"/>
  <stop offset="100%" stop-color="#FF6363" stop-opacity="0"/>
</linearGradient>
  <clipPath id="ca"><rect x="72" y="45" width="698" height="295"/></clipPath>
</defs>
<rect width="800" height="400" fill="#ffffff" rx="12"/>
<text x="400" y="26" text-anchor="middle" font-size="15" font-weight="600" fill="#111827">Platform Support Over Time</text>
<line x1="72" y1="340.0" x2="770" y2="340.0" stroke="#f3f4f6" stroke-width="1"/>
<text x="66" y="344.0" text-anchor="end" font-size="11" fill="#6b7280">0</text>
<line x1="72" y1="281.0" x2="770" y2="281.0" stroke="#f3f4f6" stroke-width="1"/>
<text x="66" y="285.0" text-anchor="end" font-size="11" fill="#6b7280">200</text>
<line x1="72" y1="222.0" x2="770" y2="222.0" stroke="#f3f4f6" stroke-width="1"/>
<text x="66" y="226.0" text-anchor="end" font-size="11" fill="#6b7280">400</text>
<line x1="72" y1="163.0" x2="770" y2="163.0" stroke="#f3f4f6" stroke-width="1"/>
<text x="66" y="167.0" text-anchor="end" font-size="11" fill="#6b7280">600</text>
<line x1="72" y1="104.0" x2="770" y2="104.0" stroke="#f3f4f6" stroke-width="1"/>
<text x="66" y="108.0" text-anchor="end" font-size="11" fill="#6b7280">800</text>
<line x1="72" y1="45.0" x2="770" y2="45.0" stroke="#f3f4f6" stroke-width="1"/>
<text x="66" y="49.0" text-anchor="end" font-size="11" fill="#6b7280">1.0k</text>
<line x1="142.4" y1="45" x2="142.4" y2="340" stroke="#e5e7eb" stroke-width="1" stroke-dasharray="3,3" clip-path="url(#ca)"/>
<line x1="294.9" y1="45" x2="294.9" y2="340" stroke="#e5e7eb" stroke-width="1" stroke-dasharray="3,3" clip-path="url(#ca)"/>
<line x1="453.3" y1="45" x2="453.3" y2="340" stroke="#e5e7eb" stroke-width="1" stroke-dasharray="3,3" clip-path="url(#ca)"/>
<line x1="611.6" y1="45" x2="611.6" y2="340" stroke="#e5e7eb" stroke-width="1" stroke-dasharray="3,3" clip-path="url(#ca)"/>
<line x1="770.0" y1="45" x2="770.0" y2="340" stroke="#e5e7eb" stroke-width="1" stroke-dasharray="3,3" clip-path="url(#ca)"/>
<text x="72.0" y="358.0" text-anchor="middle" font-size="11" fill="#6b7280">Dec 11</text>
<text x="212.8" y="358.0" text-anchor="middle" font-size="11" fill="#6b7280">Jan 17</text>
<text x="353.5" y="358.0" text-anchor="middle" font-size="11" fill="#6b7280">Feb 11</text>
<text x="488.5" y="358.0" text-anchor="middle" font-size="11" fill="#6b7280">Mar 8</text>
<text x="629.2" y="358.0" text-anchor="middle" font-size="11" fill="#6b7280">Apr 4</text>
<text x="770.0" y="358.0" text-anchor="middle" font-size="11" fill="#6b7280">May 1</text>
<line x1="72" y1="45" x2="72" y2="340" stroke="#e5e7eb" stroke-width="1"/>
<line x1="72" y1="340" x2="770" y2="340" stroke="#e5e7eb" stroke-width="1"/>
<text x="-192.5" y="18" text-anchor="middle" font-size="12" fill="#6b7280" transform="rotate(-90)">Extensions</text>
<path d="M 72.0,340 L 72.0,242.6 L 77.9,240.0 L 83.7,239.7 L 89.6,238.5 L 95.5,237.9 L 101.3,235.0 L 107.2,233.2 L 113.1,232.3 L 118.9,230.8 L 124.8,229.1 L 130.7,228.2 L 136.5,227.9 L 142.4,227.0 L 148.3,226.4 L 154.1,226.1 L 160.0,225.2 L 165.8,224.4 L 171.7,223.5 L 177.6,222.6 L 183.4,221.4 L 189.3,220.5 L 195.2,219.6 L 201.0,218.8 L 206.9,217.0 L 212.8,216.4 L 218.6,216.4 L 224.5,214.3 L 230.4,213.7 L 236.2,213.2 L 242.1,212.6 L 248.0,211.1 L 253.8,209.0 L 259.7,208.7 L 265.6,208.4 L 271.4,206.7 L 277.3,206.1 L 283.2,204.6 L 289.0,204.3 L 294.9,204.0 L 300.8,203.4 L 306.6,203.4 L 312.5,203.4 L 318.4,199.3 L 324.2,199.0 L 330.1,198.1 L 335.9,197.8 L 341.8,197.5 L 347.7,196.6 L 353.5,196.0 L 359.4,195.4 L 365.3,193.7 L 371.1,193.7 L 377.0,193.7 L 382.9,193.4 L 388.7,190.4 L 394.6,189.6 L 400.5,189.0 L 406.3,188.1 L 412.2,187.5 L 418.1,187.5 L 423.9,186.0 L 429.8,183.9 L 435.7,183.4 L 441.5,183.1 L 447.4,182.2 L 453.3,182.2 L 459.1,181.6 L 465.0,180.7 L 470.9,180.1 L 476.7,178.9 L 482.6,177.8 L 488.5,177.5 L 494.3,177.5 L 500.2,176.3 L 506.1,176.3 L 511.9,176.3 L 517.8,174.5 L 523.6,174.2 L 529.5,173.9 L 535.4,173.9 L 541.2,173.6 L 547.1,172.4 L 553.0,171.9 L 558.8,171.0 L 564.7,171.0 L 570.6,170.7 L 576.4,169.5 L 582.3,168.6 L 588.2,168.6 L 594.0,168.3 L 599.9,167.7 L 605.8,165.7 L 611.6,165.1 L 617.5,164.2 L 623.4,164.2 L 629.2,163.6 L 635.1,163.3 L 641.0,163.0 L 646.8,162.7 L 652.7,162.4 L 658.6,162.4 L 664.4,162.1 L 670.3,161.8 L 676.2,160.9 L 682.0,159.8 L 687.9,159.5 L 693.7,158.6 L 699.6,158.6 L 705.5,157.4 L 711.3,157.1 L 717.2,157.1 L 723.1,157.1 L 728.9,156.2 L 734.8,155.9 L 740.7,155.9 L 746.5,155.9 L 752.4,155.6 L 758.3,154.4 L 764.1,154.2 L 770.0,153.3 L 770.0,340 Z" fill="url(#g5)" clip-path="url(#ca)"/>
<path d="M 72.0,242.6 L 77.9,240.0 L 83.7,239.7 L 89.6,238.5 L 95.5,237.9 L 101.3,235.0 L 107.2,233.2 L 113.1,232.3 L 118.9,230.8 L 124.8,229.1 L 130.7,228.2 L 136.5,227.9 L 142.4,227.0 L 148.3,226.4 L 154.1,226.1 L 160.0,225.2 L 165.8,224.4 L 171.7,223.5 L 177.6,222.6 L 183.4,221.4 L 189.3,220.5 L 195.2,219.6 L 201.0,218.8 L 206.9,217.0 L 212.8,216.4 L 218.6,216.4 L 224.5,214.3 L 230.4,213.7 L 236.2,213.2 L 242.1,212.6 L 248.0,211.1 L 253.8,209.0 L 259.7,208.7 L 265.6,208.4 L 271.4,206.7 L 277.3,206.1 L 283.2,204.6 L 289.0,204.3 L 294.9,204.0 L 300.8,203.4 L 306.6,203.4 L 312.5,203.4 L 318.4,199.3 L 324.2,199.0 L 330.1,198.1 L 335.9,197.8 L 341.8,197.5 L 347.7,196.6 L 353.5,196.0 L 359.4,195.4 L 365.3,193.7 L 371.1,193.7 L 377.0,193.7 L 382.9,193.4 L 388.7,190.4 L 394.6,189.6 L 400.5,189.0 L 406.3,188.1 L 412.2,187.5 L 418.1,187.5 L 423.9,186.0 L 429.8,183.9 L 435.7,183.4 L 441.5,183.1 L 447.4,182.2 L 453.3,182.2 L 459.1,181.6 L 465.0,180.7 L 470.9,180.1 L 476.7,178.9 L 482.6,177.8 L 488.5,177.5 L 494.3,177.5 L 500.2,176.3 L 506.1,176.3 L 511.9,176.3 L 517.8,174.5 L 523.6,174.2 L 529.5,173.9 L 535.4,173.9 L 541.2,173.6 L 547.1,172.4 L 553.0,171.9 L 558.8,171.0 L 564.7,171.0 L 570.6,170.7 L 576.4,169.5 L 582.3,168.6 L 588.2,168.6 L 594.0,168.3 L 599.9,167.7 L 605.8,165.7 L 611.6,165.1 L 617.5,164.2 L 623.4,164.2 L 629.2,163.6 L 635.1,163.3 L 641.0,163.0 L 646.8,162.7 L 652.7,162.4 L 658.6,162.4 L 664.4,162.1 L 670.3,161.8 L 676.2,160.9 L 682.0,159.8 L 687.9,159.5 L 693.7,158.6 L 699.6,158.6 L 705.5,157.4 L 711.3,157.1 L 717.2,157.1 L 723.1,157.1 L 728.9,156.2 L 734.8,155.9 L 740.7,155.9 L 746.5,155.9 L 752.4,155.6 L 758.3,154.4 L 764.1,154.2 L 770.0,153.3" fill="none" stroke="#34C759" stroke-width="2.5" stroke-linejoin="round" clip-path="url(#ca)"/>
<path d="M 72.0,340 L 72.0,222.6 L 77.9,222.6 L 83.7,222.3 L 89.6,221.4 L 95.5,221.7 L 101.3,221.7 L 107.2,220.5 L 113.1,219.6 L 118.9,219.6 L 124.8,219.9 L 130.7,219.6 L 136.5,219.3 L 142.4,219.1 L 148.3,219.1 L 154.1,219.1 L 160.0,219.3 L 165.8,218.8 L 171.7,218.2 L 177.6,216.4 L 183.4,215.2 L 189.3,215.2 L 195.2,214.9 L 201.0,213.2 L 206.9,210.5 L 212.8,209.6 L 218.6,209.0 L 224.5,207.0 L 230.4,205.5 L 236.2,204.9 L 242.1,204.3 L 248.0,203.7 L 253.8,203.4 L 259.7,203.4 L 265.6,201.3 L 271.4,200.8 L 277.3,200.2 L 283.2,200.2 L 289.0,198.7 L 294.9,198.4 L 300.8,197.5 L 306.6,196.3 L 312.5,194.9 L 318.4,192.8 L 324.2,190.7 L 330.1,190.4 L 335.9,189.8 L 341.8,189.3 L 347.7,187.5 L 353.5,187.5 L 359.4,186.9 L 365.3,186.0 L 371.1,185.4 L 377.0,184.2 L 382.9,184.5 L 388.7,181.0 L 394.6,180.7 L 400.5,180.4 L 406.3,179.8 L 412.2,178.0 L 418.1,178.0 L 423.9,176.3 L 429.8,174.2 L 435.7,174.2 L 441.5,174.2 L 447.4,173.9 L 453.3,173.6 L 459.1,173.3 L 465.0,171.9 L 470.9,170.1 L 476.7,169.5 L 482.6,168.3 L 488.5,168.3 L 494.3,167.4 L 500.2,165.7 L 506.1,164.8 L 511.9,164.5 L 517.8,162.4 L 523.6,162.1 L 529.5,162.1 L 535.4,161.8 L 541.2,161.8 L 547.1,160.3 L 553.0,159.8 L 558.8,158.9 L 564.7,158.6 L 570.6,158.0 L 576.4,155.6 L 582.3,152.4 L 588.2,152.1 L 594.0,151.5 L 599.9,151.2 L 605.8,149.7 L 611.6,118.5 L 617.5,117.9 L 623.4,116.4 L 629.2,116.4 L 635.1,116.4 L 641.0,116.7 L 646.8,116.4 L 652.7,114.6 L 658.6,114.0 L 664.4,113.7 L 670.3,113.4 L 676.2,112.3 L 682.0,110.5 L 687.9,110.5 L 693.7,110.5 L 699.6,110.2 L 705.5,109.9 L 711.3,109.9 L 717.2,109.3 L 723.1,108.4 L 728.9,106.9 L 734.8,106.4 L 740.7,106.1 L 746.5,106.1 L 752.4,105.8 L 758.3,105.2 L 764.1,104.9 L 770.0,103.4 L 770.0,340 Z" fill="url(#g6)" clip-path="url(#ca)"/>
<path d="M 72.0,222.6 L 77.9,222.6 L 83.7,222.3 L 89.6,221.4 L 95.5,221.7 L 101.3,221.7 L 107.2,220.5 L 113.1,219.6 L 118.9,219.6 L 124.8,219.9 L 130.7,219.6 L 136.5,219.3 L 142.4,219.1 L 148.3,219.1 L 154.1,219.1 L 160.0,219.3 L 165.8,218.8 L 171.7,218.2 L 177.6,216.4 L 183.4,215.2 L 189.3,215.2 L 195.2,214.9 L 201.0,213.2 L 206.9,210.5 L 212.8,209.6 L 218.6,209.0 L 224.5,207.0 L 230.4,205.5 L 236.2,204.9 L 242.1,204.3 L 248.0,203.7 L 253.8,203.4 L 259.7,203.4 L 265.6,201.3 L 271.4,200.8 L 277.3,200.2 L 283.2,200.2 L 289.0,198.7 L 294.9,198.4 L 300.8,197.5 L 306.6,196.3 L 312.5,194.9 L 318.4,192.8 L 324.2,190.7 L 330.1,190.4 L 335.9,189.8 L 341.8,189.3 L 347.7,187.5 L 353.5,187.5 L 359.4,186.9 L 365.3,186.0 L 371.1,185.4 L 377.0,184.2 L 382.9,184.5 L 388.7,181.0 L 394.6,180.7 L 400.5,180.4 L 406.3,179.8 L 412.2,178.0 L 418.1,178.0 L 423.9,176.3 L 429.8,174.2 L 435.7,174.2 L 441.5,174.2 L 447.4,173.9 L 453.3,173.6 L 459.1,173.3 L 465.0,171.9 L 470.9,170.1 L 476.7,169.5 L 482.6,168.3 L 488.5,168.3 L 494.3,167.4 L 500.2,165.7 L 506.1,164.8 L 511.9,164.5 L 517.8,162.4 L 523.6,162.1 L 529.5,162.1 L 535.4,161.8 L 541.2,161.8 L 547.1,160.3 L 553.0,159.8 L 558.8,158.9 L 564.7,158.6 L 570.6,158.0 L 576.4,155.6 L 582.3,152.4 L 588.2,152.1 L 594.0,151.5 L 599.9,151.2 L 605.8,149.7 L 611.6,118.5 L 617.5,117.9 L 623.4,116.4 L 629.2,116.4 L 635.1,116.4 L 641.0,116.7 L 646.8,116.4 L 652.7,114.6 L 658.6,114.0 L 664.4,113.7 L 670.3,113.4 L 676.2,112.3 L 682.0,110.5 L 687.9,110.5 L 693.7,110.5 L 699.6,110.2 L 705.5,109.9 L 711.3,109.9 L 717.2,109.3 L 723.1,108.4 L 728.9,106.9 L 734.8,106.4 L 740.7,106.1 L 746.5,106.1 L 752.4,105.8 L 758.3,105.2 L 764.1,104.9 L 770.0,103.4" fill="none" stroke="#4F8EF7" stroke-width="2.5" stroke-linejoin="round" clip-path="url(#ca)"/>
<path d="M 72.0,340 L 72.0,338.2 L 77.9,337.9 L 83.7,337.9 L 89.6,337.6 L 95.5,337.6 L 101.3,337.6 L 107.2,337.6 L 113.1,337.6 L 118.9,337.1 L 124.8,337.1 L 130.7,337.1 L 136.5,337.1 L 142.4,337.1 L 148.3,336.8 L 154.1,336.8 L 160.0,336.8 L 165.8,336.8 L 171.7,336.8 L 177.6,336.5 L 183.4,335.9 L 189.3,335.6 L 195.2,335.6 L 201.0,335.6 L 206.9,335.3 L 212.8,335.3 L 218.6,335.3 L 224.5,335.0 L 230.4,335.0 L 236.2,335.0 L 242.1,334.7 L 248.0,334.7 L 253.8,334.7 L 259.7,334.7 L 265.6,334.4 L 271.4,334.4 L 277.3,334.4 L 283.2,334.4 L 289.0,334.4 L 294.9,334.4 L 300.8,334.4 L 306.6,334.4 L 312.5,334.4 L 318.4,334.4 L 324.2,334.4 L 330.1,334.4 L 335.9,334.4 L 341.8,334.1 L 347.7,334.1 L 353.5,334.1 L 359.4,334.1 L 365.3,334.1 L 371.1,334.1 L 377.0,334.1 L 382.9,334.1 L 388.7,334.1 L 394.6,334.1 L 400.5,334.1 L 406.3,334.1 L 412.2,333.8 L 418.1,333.8 L 423.9,333.8 L 429.8,333.8 L 435.7,333.8 L 441.5,333.8 L 447.4,333.8 L 453.3,333.8 L 459.1,333.8 L 465.0,333.8 L 470.9,333.8 L 476.7,333.8 L 482.6,333.8 L 488.5,333.8 L 494.3,333.8 L 500.2,333.8 L 506.1,333.8 L 511.9,333.8 L 517.8,333.8 L 523.6,333.8 L 529.5,333.8 L 535.4,333.8 L 541.2,333.8 L 547.1,333.8 L 553.0,333.8 L 558.8,333.8 L 564.7,333.8 L 570.6,333.8 L 576.4,333.8 L 582.3,333.8 L 588.2,333.8 L 594.0,333.8 L 599.9,333.8 L 605.8,333.8 L 611.6,333.8 L 617.5,333.8 L 623.4,333.5 L 629.2,333.5 L 635.1,333.5 L 641.0,333.5 L 646.8,333.5 L 652.7,333.2 L 658.6,333.2 L 664.4,333.2 L 670.3,333.2 L 676.2,332.9 L 682.0,332.9 L 687.9,332.6 L 693.7,332.6 L 699.6,332.6 L 705.5,332.6 L 711.3,332.6 L 717.2,332.6 L 723.1,332.6 L 728.9,332.6 L 734.8,332.6 L 740.7,332.6 L 746.5,332.6 L 752.4,332.6 L 758.3,332.6 L 764.1,332.6 L 770.0,332.6 L 770.0,340 Z" fill="url(#g7)" clip-path="url(#ca)"/>
<path d="M 72.0,338.2 L 77.9,337.9 L 83.7,337.9 L 89.6,337.6 L 95.5,337.6 L 101.3,337.6 L 107.2,337.6 L 113.1,337.6 L 118.9,337.1 L 124.8,337.1 L 130.7,337.1 L 136.5,337.1 L 142.4,337.1 L 148.3,336.8 L 154.1,336.8 L 160.0,336.8 L 165.8,336.8 L 171.7,336.8 L 177.6,336.5 L 183.4,335.9 L 189.3,335.6 L 195.2,335.6 L 201.0,335.6 L 206.9,335.3 L 212.8,335.3 L 218.6,335.3 L 224.5,335.0 L 230.4,335.0 L 236.2,335.0 L 242.1,334.7 L 248.0,334.7 L 253.8,334.7 L 259.7,334.7 L 265.6,334.4 L 271.4,334.4 L 277.3,334.4 L 283.2,334.4 L 289.0,334.4 L 294.9,334.4 L 300.8,334.4 L 306.6,334.4 L 312.5,334.4 L 318.4,334.4 L 324.2,334.4 L 330.1,334.4 L 335.9,334.4 L 341.8,334.1 L 347.7,334.1 L 353.5,334.1 L 359.4,334.1 L 365.3,334.1 L 371.1,334.1 L 377.0,334.1 L 382.9,334.1 L 388.7,334.1 L 394.6,334.1 L 400.5,334.1 L 406.3,334.1 L 412.2,333.8 L 418.1,333.8 L 423.9,333.8 L 429.8,333.8 L 435.7,333.8 L 441.5,333.8 L 447.4,333.8 L 453.3,333.8 L 459.1,333.8 L 465.0,333.8 L 470.9,333.8 L 476.7,333.8 L 482.6,333.8 L 488.5,333.8 L 494.3,333.8 L 500.2,333.8 L 506.1,333.8 L 511.9,333.8 L 517.8,333.8 L 523.6,333.8 L 529.5,333.8 L 535.4,333.8 L 541.2,333.8 L 547.1,333.8 L 553.0,333.8 L 558.8,333.8 L 564.7,333.8 L 570.6,333.8 L 576.4,333.8 L 582.3,333.8 L 588.2,333.8 L 594.0,333.8 L 599.9,333.8 L 605.8,333.8 L 611.6,333.8 L 617.5,333.8 L 623.4,333.5 L 629.2,333.5 L 635.1,333.5 L 641.0,333.5 L 646.8,333.5 L 652.7,333.2 L 658.6,333.2 L 664.4,333.2 L 670.3,333.2 L 676.2,332.9 L 682.0,332.9 L 687.9,332.6 L 693.7,332.6 L 699.6,332.6 L 705.5,332.6 L 711.3,332.6 L 717.2,332.6 L 723.1,332.6 L 728.9,332.6 L 734.8,332.6 L 740.7,332.6 L 746.5,332.6 L 752.4,332.6 L 758.3,332.6 L 764.1,332.6 L 770.0,332.6" fill="none" stroke="#FF6363" stroke-width="2.5" stroke-linejoin="round" clip-path="url(#ca)"/>
<text x="104.3" y="55.0" text-anchor="middle" font-size="9" fill="#34C759" opacity="0.85" clip-path="url(#ca)">+15.2% (+50)</text>
<text x="104.3" y="66.0" text-anchor="middle" font-size="9" fill="#4F8EF7" opacity="0.85" clip-path="url(#ca)">+2.8% (+11)</text>
<text x="104.3" y="77.0" text-anchor="middle" font-size="9" fill="#FF6363" opacity="0.85" clip-path="url(#ca)">+66.7% (+4)</text>
<text x="215.7" y="55.0" text-anchor="middle" font-size="9" fill="#34C759" opacity="0.85" clip-path="url(#ca)">+20.1% (+77)</text>
<text x="215.7" y="66.0" text-anchor="middle" font-size="9" fill="#4F8EF7" opacity="0.85" clip-path="url(#ca)">+16.8% (+69)</text>
<text x="215.7" y="77.0" text-anchor="middle" font-size="9" fill="#FF6363" opacity="0.85" clip-path="url(#ca)">+90.0% (+9)</text>
<text x="371.1" y="55.0" text-anchor="middle" font-size="9" fill="#34C759" opacity="0.85" clip-path="url(#ca)">+16.1% (+74)</text>
<text x="371.1" y="66.0" text-anchor="middle" font-size="9" fill="#4F8EF7" opacity="0.85" clip-path="url(#ca)">+17.3% (+83)</text>
<text x="371.1" y="77.0" text-anchor="middle" font-size="9" fill="#FF6363" opacity="0.85" clip-path="url(#ca)">+10.5% (+2)</text>
<text x="529.5" y="55.0" text-anchor="middle" font-size="9" fill="#34C759" opacity="0.85" clip-path="url(#ca)">+10.5% (+56)</text>
<text x="529.5" y="66.0" text-anchor="middle" font-size="9" fill="#4F8EF7" opacity="0.85" clip-path="url(#ca)">+14.4% (+81)</text>
<text x="529.5" y="77.0" text-anchor="middle" font-size="9" fill="#FF6363" opacity="0.85" clip-path="url(#ca)">+0.0% (+0)</text>
<text x="687.9" y="55.0" text-anchor="middle" font-size="9" fill="#34C759" opacity="0.85" clip-path="url(#ca)">+6.2% (+37)</text>
<text x="687.9" y="66.0" text-anchor="middle" font-size="9" fill="#4F8EF7" opacity="0.85" clip-path="url(#ca)">+6.1% (+46)</text>
<text x="687.9" y="77.0" text-anchor="middle" font-size="9" fill="#FF6363" opacity="0.85" clip-path="url(#ca)">+19.0% (+4)</text>
<text x="770.0" y="55.0" text-anchor="middle" font-size="9" fill="#34C759" opacity="0.85" clip-path="url(#ca)">+0.0% (+0)</text>
<text x="770.0" y="66.0" text-anchor="middle" font-size="9" fill="#4F8EF7" opacity="0.85" clip-path="url(#ca)">+0.0% (+0)</text>
<text x="770.0" y="77.0" text-anchor="middle" font-size="9" fill="#FF6363" opacity="0.85" clip-path="url(#ca)">+0.0% (+0)</text>
<rect x="211" y="369" width="12" height="12" fill="#34C759" rx="2"/>
<text x="227" y="379" font-size="12" fill="#111827">macOS + Windows</text>
<rect x="351" y="369" width="12" height="12" fill="#4F8EF7" rx="2"/>
<text x="367" y="379" font-size="12" fill="#111827">macOS only</text>
<rect x="491" y="369" width="12" height="12" fill="#FF6363" rx="2"/>
<text x="507" y="379" font-size="12" fill="#111827">Windows only</text>
<text x="72" y="394" font-size="8" fill="#e5e7eb">data since Dec 11, 2025</text>
</svg>