<svg xmlns="http://www.w3.org/2000/svg" width="800" height="400" viewBox="0 0 800 400">
<defs>
  <style>text { font-family: -apple-system, BlinkMacSystemFont, 'Segoe UI', Roboto, sans-serif; }</style>
  <linearGradient id="g1" x1="0" y1="0" x2="0" y2="1">
  <stop offset="0%" stop-color="#FF6363" stop-opacity="0.25"/>
  <stop offset="100%" stop-color="#FF6363" stop-opacity="0"/>
</linearGradient>
  <clipPath id="ca"><rect x="72" y="45" width="698" height="295"/></clipPath>
</defs>
<rect width="800" height="400" fill="#ffffff" rx="12"/>
<text x="400" y="26" text-anchor="middle" font-size="15" font-weight="600" fill="#111827">Packages Growth Over Time</text>
<line x1="72" y1="340.0" x2="770" y2="340.0" stroke="#f3f4f6" stroke-width="1"/>
<text x="66" y="344.0" text-anchor="end" font-size="11" fill="#6b7280">2.4k</text>
<line x1="72" y1="266.3" x2="770" y2="266.3" stroke="#f3f4f6" stroke-width="1"/>
<text x="66" y="270.3" text-anchor="end" font-size="11" fill="#6b7280">2.6k</text>
<line x1="72" y1="192.5" x2="770" y2="192.5" stroke="#f3f4f6" stroke-width="1"/>
<text x="66" y="196.5" text-anchor="end" font-size="11" fill="#6b7280">2.8k</text>
<line x1="72" y1="118.8" x2="770" y2="118.8" stroke="#f3f4f6" stroke-width="1"/>
<text x="66" y="122.8" text-anchor="end" font-size="11" fill="#6b7280">3.0k</text>
<line x1="72" y1="45.0" x2="770" y2="45.0" stroke="#f3f4f6" stroke-width="1"/>
<text x="66" y="49.0" text-anchor="end" font-size="11" fill="#6b7280">3.2k</text>
<line x1="124.0" y1="45" x2="124.0" y2="340" stroke="#e5e7eb" stroke-width="1" stroke-dasharray="3,3" clip-path="url(#ca)"/>
<line x1="236.7" y1="45" x2="236.7" y2="340" stroke="#e5e7eb" stroke-width="1" stroke-dasharray="3,3" clip-path="url(#ca)"/>
<line x1="353.8" y1="45" x2="353.8" y2="340" stroke="#e5e7eb" stroke-width="1" stroke-dasharray="3,3" clip-path="url(#ca)"/>
<line x1="470.9" y1="45" x2="470.9" y2="340" stroke="#e5e7eb" stroke-width="1" stroke-dasharray="3,3" clip-path="url(#ca)"/>
<line x1="587.9" y1="45" x2="587.9" y2="340" stroke="#e5e7eb" stroke-width="1" stroke-dasharray="3,3" clip-path="url(#ca)"/>
<line x1="700.6" y1="45" x2="700.6" y2="340" stroke="#e5e7eb" stroke-width="1" stroke-dasharray="3,3" clip-path="url(#ca)"/>
<text x="72.0" y="358.0" text-anchor="middle" font-size="11" fill="#6b7280">Dec 11</text>
<text x="210.7" y="358.0" text-anchor="middle" font-size="11" fill="#6b7280">Jan 26</text>
<text x="349.5" y="358.0" text-anchor="middle" font-size="11" fill="#6b7280">Feb 28</text>
<text x="492.5" y="358.0" text-anchor="middle" font-size="11" fill="#6b7280">Apr 7</text>
<text x="631.3" y="358.0" text-anchor="middle" font-size="11" fill="#6b7280">May 16</text>
<text x="770.0" y="358.0" text-anchor="middle" font-size="11" fill="#6b7280">Jun 22</text>
<line x1="72" y1="45" x2="72" y2="340" stroke="#e5e7eb" stroke-width="1"/>
<line x1="72" y1="340" x2="770" y2="340" stroke="#e5e7eb" stroke-width="1"/>
<text x="-192.5" y="18" text-anchor="middle" font-size="12" fill="#6b7280" transform="rotate(-90)">Extensions</text>
<path d="M 72.0,340 L 72.0,311.6 L 76.3,311.2 L 80.7,311.2 L 85.0,310.1 L 89.3,310.1 L 93.7,309.4 L 98.0,308.7 L 102.3,308.3 L 106.7,306.4 L 111.0,305.0 L 115.4,305.0 L 119.7,305.0 L 124.0,305.0 L 128.4,304.2 L 132.7,304.2 L 137.0,304.2 L 141.4,303.5 L 145.7,302.0 L 150.0,299.4 L 154.4,297.6 L 158.7,296.9 L 163.0,296.5 L 167.4,295.0 L 171.7,290.6 L 176.0,289.1 L 180.4,289.1 L 184.7,285.4 L 189.1,284.3 L 193.4,282.8 L 197.7,281.7 L 202.1,279.5 L 206.4,277.7 L 210.7,277.3 L 215.1,274.4 L 219.4,271.8 L 223.7,271.8 L 228.1,269.9 L 232.4,268.5 L 236.7,268.1 L 241.1,267.7 L 245.4,267.4 L 249.8,266.3 L 254.1,259.6 L 258.4,256.7 L 262.8,255.2 L 267.1,254.4 L 271.4,253.3 L 275.8,250.8 L 280.1,250.0 L 284.4,249.3 L 288.8,247.1 L 293.1,246.3 L 297.4,245.6 L 301.8,245.6 L 306.1,239.0 L 310.4,238.2 L 314.8,237.5 L 319.1,236.0 L 323.5,234.2 L 327.8,234.2 L 332.1,231.2 L 336.5,226.4 L 340.8,225.7 L 345.1,226.1 L 349.5,224.9 L 353.8,224.6 L 358.1,224.6 L 362.5,222.4 L 366.8,220.5 L 371.1,219.1 L 375.5,217.2 L 379.8,216.8 L 384.1,216.8 L 388.5,214.3 L 392.8,213.5 L 397.2,213.2 L 401.5,208.7 L 405.8,208.4 L 410.2,208.4 L 414.5,208.4 L 418.8,208.0 L 423.2,206.1 L 427.5,204.7 L 431.8,202.8 L 436.2,202.5 L 440.5,201.3 L 444.8,198.0 L 449.2,195.1 L 453.5,194.7 L 457.9,194.3 L 462.2,193.2 L 466.5,189.6 L 470.9,188.8 L 475.2,187.7 L 479.5,185.5 L 483.9,185.1 L 488.2,184.8 L 492.5,184.8 L 496.9,184.0 L 501.2,181.8 L 505.5,181.1 L 509.9,180.3 L 514.2,180.0 L 518.5,179.2 L 522.9,175.5 L 527.2,175.2 L 531.6,174.4 L 535.9,174.1 L 540.2,172.2 L 544.6,171.9 L 548.9,171.5 L 553.2,170.4 L 557.6,168.9 L 561.9,168.9 L 566.2,168.9 L 570.6,168.9 L 574.9,168.2 L 579.2,166.3 L 583.6,166.0 L 587.9,164.1 L 592.2,163.7 L 596.6,163.4 L 600.9,161.2 L 605.3,158.9 L 609.6,158.6 L 613.9,158.2 L 618.3,153.4 L 622.6,151.9 L 626.9,150.8 L 631.3,150.5 L 635.6,147.9 L 639.9,147.9 L 644.3,146.0 L 648.6,144.9 L 652.9,141.2 L 657.3,139.8 L 661.6,139.4 L 666.0,139.0 L 670.3,139.0 L 674.6,138.7 L 679.0,136.5 L 683.3,134.6 L 687.6,134.6 L 692.0,134.2 L 696.3,134.2 L 700.6,132.8 L 705.0,132.0 L 709.3,130.9 L 713.6,129.8 L 718.0,128.3 L 722.3,128.3 L 726.6,127.2 L 731.0,125.8 L 735.3,122.8 L 739.7,120.2 L 744.0,119.5 L 748.3,118.8 L 752.7,118.0 L 757.0,117.6 L 761.3,116.5 L 765.7,114.3 L 770.0,114.0 L 770.0,340 Z" fill="url(#g1)" clip-path="url(#ca)"/>
<path d="M 72.0,311.6 L 76.3,311.2 L 80.7,311.2 L 85.0,310.1 L 89.3,310.1 L 93.7,309.4 L 98.0,308.7 L 102.3,308.3 L 106.7,306.4 L 111.0,305.0 L 115.4,305.0 L 119.7,305.0 L 124.0,305.0 L 128.4,304.2 L 132.7,304.2 L 137.0,304.2 L 141.4,303.5 L 145.7,302.0 L 150.0,299.4 L 154.4,297.6 L 158.7,296.9 L 163.0,296.5 L 167.4,295.0 L 171.7,290.6 L 176.0,289.1 L 180.4,289.1 L 184.7,285.4 L 189.1,284.3 L 193.4,282.8 L 197.7,281.7 L 202.1,279.5 L 206.4,277.7 L 210.7,277.3 L 215.1,274.4 L 219.4,271.8 L 223.7,271.8 L 228.1,269.9 L 232.4,268.5 L 236.7,268.1 L 241.1,267.7 L 245.4,267.4 L 249.8,266.3 L 254.1,259.6 L 258.4,256.7 L 262.8,255.2 L 267.1,254.4 L 271.4,253.3 L 275.8,250.8 L 280.1,250.0 L 284.4,249.3 L 288.8,247.1 L 293.1,246.3 L 297.4,245.6 L 301.8,245.6 L 306.1,239.0 L 310.4,238.2 L 314.8,237.5 L 319.1,236.0 L 323.5,234.2 L 327.8,234.2 L 332.1,231.2 L 336.5,226.4 L 340.8,225.7 L 345.1,226.1 L 349.5,224.9 L 353.8,224.6 L 358.1,224.6 L 362.5,222.4 L 366.8,220.5 L 371.1,219.1 L 375.5,217.2 L 379.8,216.8 L 384.1,216.8 L 388.5,214.3 L 392.8,213.5 L 397.2,213.2 L 401.5,208.7 L 405.8,208.4 L 410.2,208.4 L 414.5,208.4 L 418.8,208.0 L 423.2,206.1 L 427.5,204.7 L 431.8,202.8 L 436.2,202.5 L 440.5,201.3 L 444.8,198.0 L 449.2,195.1 L 453.5,194.7 L 457.9,194.3 L 462.2,193.2 L 466.5,189.6 L 470.9,188.8 L 475.2,187.7 L 479.5,185.5 L 483.9,185.1 L 488.2,184.8 L 492.5,184.8 L 496.9,184.0 L 501.2,181.8 L 505.5,181.1 L 509.9,180.3 L 514.2,180.0 L 518.5,179.2 L 522.9,175.5 L 527.2,175.2 L 531.6,174.4 L 535.9,174.1 L 540.2,172.2 L 544.6,171.9 L 548.9,171.5 L 553.2,170.4 L 557.6,168.9 L 561.9,168.9 L 566.2,168.9 L 570.6,168.9 L 574.9,168.2 L 579.2,166.3 L 583.6,166.0 L 587.9,164.1 L 592.2,163.7 L 596.6,163.4 L 600.9,161.2 L 605.3,158.9 L 609.6,158.6 L 613.9,158.2 L 618.3,153.4 L 622.6,151.9 L 626.9,150.8 L 631.3,150.5 L 635.6,147.9 L 639.9,147.9 L 644.3,146.0 L 648.6,144.9 L 652.9,141.2 L 657.3,139.8 L 661.6,139.4 L 666.0,139.0 L 670.3,139.0 L 674.6,138.7 L 679.0,136.5 L 683.3,134.6 L 687.6,134.6 L 692.0,134.2 L 696.3,134.2 L 700.6,132.8 L 705.0,132.0 L 709.3,130.9 L 713.6,129.8 L 718.0,128.3 L 722.3,128.3 L 726.6,127.2 L 731.0,125.8 L 735.3,122.8 L 739.7,120.2 L 744.0,119.5 L 748.3,118.8 L 752.7,118.0 L 757.0,117.6 L 761.3,116.5 L 765.7,114.3 L 770.0,114.0" fill="none" stroke="#FF6363" stroke-width="2.5" stroke-linejoin="round" clip-path="url(#ca)"/>
<text x="95.8" y="55.0" text-anchor="middle" font-size="9" fill="#FF6363" opacity="0.85" clip-path="url(#ca)">+0.7% (+18)</text>
<text x="178.2" y="55.0" text-anchor="middle" font-size="9" fill="#FF6363" opacity="0.85" clip-path="url(#ca)">+4.0% (+99)</text>
<text x="293.1" y="55.0" text-anchor="middle" font-size="9" fill="#FF6363" opacity="0.85" clip-path="url(#ca)">+4.5% (+117)</text>
<text x="410.2" y="55.0" text-anchor="middle" font-size="9" fill="#FF6363" opacity="0.85" clip-path="url(#ca)">+3.5% (+95)</text>
<text x="527.2" y="55.0" text-anchor="middle" font-size="9" fill="#FF6363" opacity="0.85" clip-path="url(#ca)">+2.2% (+62)</text>
<text x="642.1" y="55.0" text-anchor="middle" font-size="9" fill="#FF6363" opacity="0.85" clip-path="url(#ca)">+2.8% (+81)</text>
<text x="735.3" y="55.0" text-anchor="middle" font-size="9" fill="#FF6363" opacity="0.85" clip-path="url(#ca)">+1.7% (+51)</text>
<rect x="351" y="369" width="12" height="12" fill="#FF6363" rx="2"/>
<text x="367" y="379" font-size="12" fill="#111827">Extensions</text>
<text x="72" y="394" font-size="8" fill="#e5e7eb">data since Dec 11, 2025</text>
</svg>