<svg xmlns="http://www.w3.org/2000/svg" width="800" height="400" viewBox="0 0 800 400">
<defs>
  <style>text { font-family: -apple-system, BlinkMacSystemFont, 'Segoe UI', Roboto, sans-serif; }</style>
  <linearGradient id="g2" x1="0" y1="0" x2="0" y2="1">
  <stop offset="0%" stop-color="#4F8EF7" stop-opacity="0.25"/>
  <stop offset="100%" stop-color="#4F8EF7" stop-opacity="0"/>
</linearGradient>
<linearGradient id="g3" x1="0" y1="0" x2="0" y2="1">
  <stop offset="0%" stop-color="#BF5AF2" stop-opacity="0.25"/>
  <stop offset="100%" stop-color="#BF5AF2" stop-opacity="0"/>
</linearGradient>
<linearGradient id="g4" x1="0" y1="0" x2="0" y2="1">
  <stop offset="0%" stop-color="#34C759" stop-opacity="0.25"/>
  <stop offset="100%" stop-color="#34C759" stop-opacity="0"/>
</linearGradient>
  <clipPath id="ca"><rect x="72" y="45" width="698" height="295"/></clipPath>
</defs>
<rect width="800" height="400" fill="#ffffff" rx="12"/>
<text x="400" y="26" text-anchor="middle" font-size="15" font-weight="600" fill="#111827">Community Growth Over Time</text>
<line x1="72" y1="340.0" x2="770" y2="340.0" stroke="#f3f4f6" stroke-width="1"/>
<text x="66" y="344.0" text-anchor="end" font-size="11" fill="#6b7280">500</text>
<line x1="72" y1="266.3" x2="770" y2="266.3" stroke="#f3f4f6" stroke-width="1"/>
<text x="66" y="270.3" text-anchor="end" font-size="11" fill="#6b7280">1.0k</text>
<line x1="72" y1="192.5" x2="770" y2="192.5" stroke="#f3f4f6" stroke-width="1"/>
<text x="66" y="196.5" text-anchor="end" font-size="11" fill="#6b7280">1.5k</text>
<line x1="72" y1="118.8" x2="770" y2="118.8" stroke="#f3f4f6" stroke-width="1"/>
<text x="66" y="122.8" text-anchor="end" font-size="11" fill="#6b7280">2.0k</text>
<line x1="72" y1="45.0" x2="770" y2="45.0" stroke="#f3f4f6" stroke-width="1"/>
<text x="66" y="49.0" text-anchor="end" font-size="11" fill="#6b7280">2.5k</text>
<line x1="116.8" y1="45" x2="116.8" y2="340" stroke="#e5e7eb" stroke-width="1" stroke-dasharray="3,3" clip-path="url(#ca)"/>
<line x1="213.8" y1="45" x2="213.8" y2="340" stroke="#e5e7eb" stroke-width="1" stroke-dasharray="3,3" clip-path="url(#ca)"/>
<line x1="314.6" y1="45" x2="314.6" y2="340" stroke="#e5e7eb" stroke-width="1" stroke-dasharray="3,3" clip-path="url(#ca)"/>
<line x1="415.4" y1="45" x2="415.4" y2="340" stroke="#e5e7eb" stroke-width="1" stroke-dasharray="3,3" clip-path="url(#ca)"/>
<line x1="516.2" y1="45" x2="516.2" y2="340" stroke="#e5e7eb" stroke-width="1" stroke-dasharray="3,3" clip-path="url(#ca)"/>
<line x1="613.2" y1="45" x2="613.2" y2="340" stroke="#e5e7eb" stroke-width="1" stroke-dasharray="3,3" clip-path="url(#ca)"/>
<line x1="702.8" y1="45" x2="702.8" y2="340" stroke="#e5e7eb" stroke-width="1" stroke-dasharray="3,3" clip-path="url(#ca)"/>
<text x="72.0" y="358.0" text-anchor="middle" font-size="11" fill="#6b7280">Dec 11</text>
<text x="210.1" y="358.0" text-anchor="middle" font-size="11" fill="#6b7280">Jan 31</text>
<text x="351.9" y="358.0" text-anchor="middle" font-size="11" fill="#6b7280">Mar 12</text>
<text x="490.1" y="358.0" text-anchor="middle" font-size="11" fill="#6b7280">Apr 23</text>
<text x="631.9" y="358.0" text-anchor="middle" font-size="11" fill="#6b7280">Jun 8</text>
<text x="770.0" y="358.0" text-anchor="middle" font-size="11" fill="#6b7280">Jul 22</text>
<line x1="72" y1="45" x2="72" y2="340" stroke="#e5e7eb" stroke-width="1"/>
<line x1="72" y1="340" x2="770" y2="340" stroke="#e5e7eb" stroke-width="1"/>
<text x="-192.5" y="18" text-anchor="middle" font-size="12" fill="#6b7280" transform="rotate(-90)">People</text>
<path d="M 72.0,340 L 72.0,175.1 L 75.7,175.1 L 79.5,175.1 L 83.2,174.7 L 86.9,174.7 L 90.7,174.4 L 94.4,174.2 L 98.1,174.4 L 101.9,173.9 L 105.6,173.9 L 109.3,173.9 L 113.1,173.9 L 116.8,173.9 L 120.5,173.9 L 124.3,173.9 L 128.0,173.9 L 131.7,173.8 L 135.5,173.3 L 139.2,172.4 L 142.9,172.0 L 146.7,171.9 L 150.4,171.9 L 154.1,171.4 L 157.9,170.4 L 161.6,169.8 L 165.3,169.8 L 169.0,169.0 L 172.8,168.8 L 176.5,168.2 L 180.2,167.7 L 184.0,167.3 L 187.7,166.8 L 191.4,166.8 L 195.2,165.8 L 198.9,165.2 L 202.6,165.2 L 206.4,164.6 L 210.1,164.3 L 213.8,164.2 L 217.6,164.0 L 221.3,164.0 L 225.0,163.6 L 228.8,161.8 L 232.5,160.8 L 236.2,160.2 L 240.0,160.1 L 243.7,159.8 L 247.4,159.2 L 251.2,158.9 L 254.9,158.6 L 258.6,158.3 L 262.4,158.0 L 266.1,157.7 L 269.8,157.7 L 273.6,156.2 L 277.3,156.2 L 281.0,156.1 L 284.8,155.9 L 288.5,155.6 L 292.2,155.6 L 296.0,154.9 L 299.7,154.0 L 303.4,153.7 L 307.2,154.0 L 310.9,153.9 L 314.6,153.7 L 318.4,153.7 L 322.1,153.4 L 325.8,152.8 L 329.6,152.5 L 333.3,152.2 L 337.0,152.1 L 340.7,152.1 L 344.5,151.5 L 348.2,151.2 L 351.9,151.2 L 355.7,150.0 L 359.4,150.0 L 363.1,150.0 L 366.9,150.0 L 370.6,149.9 L 374.3,149.4 L 378.1,148.8 L 381.8,148.5 L 385.5,148.5 L 389.3,148.3 L 393.0,147.1 L 396.7,146.3 L 400.5,146.2 L 404.2,146.0 L 407.9,145.6 L 411.7,144.7 L 415.4,144.4 L 419.1,144.1 L 422.9,143.2 L 426.6,143.1 L 430.3,143.1 L 434.1,143.1 L 437.8,142.9 L 441.5,142.1 L 445.3,141.9 L 449.0,141.8 L 452.7,141.8 L 456.5,141.5 L 460.2,140.3 L 463.9,140.1 L 467.7,140.0 L 471.4,140.0 L 475.1,139.4 L 478.9,139.3 L 482.6,139.1 L 486.3,138.7 L 490.1,138.1 L 493.8,138.1 L 497.5,138.1 L 501.3,138.1 L 505.0,137.8 L 508.7,137.3 L 512.4,137.2 L 516.2,136.7 L 519.9,136.6 L 523.6,136.5 L 527.4,135.9 L 531.1,135.4 L 534.8,135.3 L 538.6,135.3 L 542.3,133.9 L 546.0,133.5 L 549.8,133.4 L 553.5,133.4 L 557.2,132.6 L 561.0,132.6 L 564.7,132.2 L 568.4,131.7 L 572.2,130.7 L 575.9,130.6 L 579.6,130.4 L 583.4,130.3 L 587.1,130.3 L 590.8,130.1 L 594.6,129.4 L 598.3,128.9 L 602.0,128.9 L 605.8,128.8 L 609.5,128.8 L 613.2,128.3 L 617.0,128.2 L 620.7,128.0 L 624.4,127.6 L 628.2,127.0 L 631.9,127.0 L 635.6,126.9 L 639.4,126.7 L 643.1,126.0 L 646.8,124.9 L 650.6,124.8 L 654.3,124.5 L 658.0,124.2 L 661.8,124.1 L 665.5,123.6 L 669.2,123.0 L 673.0,122.9 L 676.7,122.4 L 680.4,122.1 L 684.1,121.4 L 687.9,121.3 L 691.6,121.0 L 695.3,121.0 L 699.1,120.7 L 702.8,120.4 L 706.5,120.1 L 710.3,119.9 L 714.0,119.6 L 717.7,119.6 L 721.5,119.3 L 725.2,119.2 L 728.9,119.2 L 732.7,118.3 L 736.4,117.9 L 740.1,117.9 L 743.9,117.9 L 747.6,117.4 L 751.3,116.5 L 755.1,116.2 L 758.8,115.9 L 762.5,115.7 L 766.3,115.7 L 770.0,115.2 L 770.0,340 Z" fill="url(#g2)" clip-path="url(#ca)"/>
<path d="M 72.0,175.1 L 75.7,175.1 L 79.5,175.1 L 83.2,174.7 L 86.9,174.7 L 90.7,174.4 L 94.4,174.2 L 98.1,174.4 L 101.9,173.9 L 105.6,173.9 L 109.3,173.9 L 113.1,173.9 L 116.8,173.9 L 120.5,173.9 L 124.3,173.9 L 128.0,173.9 L 131.7,173.8 L 135.5,173.3 L 139.2,172.4 L 142.9,172.0 L 146.7,171.9 L 150.4,171.9 L 154.1,171.4 L 157.9,170.4 L 161.6,169.8 L 165.3,169.8 L 169.0,169.0 L 172.8,168.8 L 176.5,168.2 L 180.2,167.7 L 184.0,167.3 L 187.7,166.8 L 191.4,166.8 L 195.2,165.8 L 198.9,165.2 L 202.6,165.2 L 206.4,164.6 L 210.1,164.3 L 213.8,164.2 L 217.6,164.0 L 221.3,164.0 L 225.0,163.6 L 228.8,161.8 L 232.5,160.8 L 236.2,160.2 L 240.0,160.1 L 243.7,159.8 L 247.4,159.2 L 251.2,158.9 L 254.9,158.6 L 258.6,158.3 L 262.4,158.0 L 266.1,157.7 L 269.8,157.7 L 273.6,156.2 L 277.3,156.2 L 281.0,156.1 L 284.8,155.9 L 288.5,155.6 L 292.2,155.6 L 296.0,154.9 L 299.7,154.0 L 303.4,153.7 L 307.2,154.0 L 310.9,153.9 L 314.6,153.7 L 318.4,153.7 L 322.1,153.4 L 325.8,152.8 L 329.6,152.5 L 333.3,152.2 L 337.0,152.1 L 340.7,152.1 L 344.5,151.5 L 348.2,151.2 L 351.9,151.2 L 355.7,150.0 L 359.4,150.0 L 363.1,150.0 L 366.9,150.0 L 370.6,149.9 L 374.3,149.4 L 378.1,148.8 L 381.8,148.5 L 385.5,148.5 L 389.3,148.3 L 393.0,147.1 L 396.7,146.3 L 400.5,146.2 L 404.2,146.0 L 407.9,145.6 L 411.7,144.7 L 415.4,144.4 L 419.1,144.1 L 422.9,143.2 L 426.6,143.1 L 430.3,143.1 L 434.1,143.1 L 437.8,142.9 L 441.5,142.1 L 445.3,141.9 L 449.0,141.8 L 452.7,141.8 L 456.5,141.5 L 460.2,140.3 L 463.9,140.1 L 467.7,140.0 L 471.4,140.0 L 475.1,139.4 L 478.9,139.3 L 482.6,139.1 L 486.3,138.7 L 490.1,138.1 L 493.8,138.1 L 497.5,138.1 L 501.3,138.1 L 505.0,137.8 L 508.7,137.3 L 512.4,137.2 L 516.2,136.7 L 519.9,136.6 L 523.6,136.5 L 527.4,135.9 L 531.1,135.4 L 534.8,135.3 L 538.6,135.3 L 542.3,133.9 L 546.0,133.5 L 549.8,133.4 L 553.5,133.4 L 557.2,132.6 L 561.0,132.6 L 564.7,132.2 L 568.4,131.7 L 572.2,130.7 L 575.9,130.6 L 579.6,130.4 L 583.4,130.3 L 587.1,130.3 L 590.8,130.1 L 594.6,129.4 L 598.3,128.9 L 602.0,128.9 L 605.8,128.8 L 609.5,128.8 L 613.2,128.3 L 617.0,128.2 L 620.7,128.0 L 624.4,127.6 L 628.2,127.0 L 631.9,127.0 L 635.6,126.9 L 639.4,126.7 L 643.1,126.0 L 646.8,124.9 L 650.6,124.8 L 654.3,124.5 L 658.0,124.2 L 661.8,124.1 L 665.5,123.6 L 669.2,123.0 L 673.0,122.9 L 676.7,122.4 L 680.4,122.1 L 684.1,121.4 L 687.9,121.3 L 691.6,121.0 L 695.3,121.0 L 699.1,120.7 L 702.8,120.4 L 706.5,120.1 L 710.3,119.9 L 714.0,119.6 L 717.7,119.6 L 721.5,119.3 L 725.2,119.2 L 728.9,119.2 L 732.7,118.3 L 736.4,117.9 L 740.1,117.9 L 743.9,117.9 L 747.6,117.4 L 751.3,116.5 L 755.1,116.2 L 758.8,115.9 L 762.5,115.7 L 766.3,115.7 L 770.0,115.2" fill="none" stroke="#4F8EF7" stroke-width="2.5" stroke-linejoin="round" clip-path="url(#ca)"/>
<path d="M 72.0,340 L 72.0,268.2 L 75.7,267.7 L 79.5,267.7 L 83.2,267.7 L 86.9,267.6 L 90.7,267.3 L 94.4,267.1 L 98.1,267.0 L 101.9,267.0 L 105.6,266.8 L 109.3,266.7 L 113.1,266.7 L 116.8,266.7 L 120.5,266.7 L 124.3,266.7 L 128.0,266.7 L 131.7,266.4 L 135.5,266.4 L 139.2,266.4 L 142.9,265.8 L 146.7,265.7 L 150.4,265.4 L 154.1,264.8 L 157.9,264.6 L 161.6,264.6 L 165.3,264.6 L 169.0,264.2 L 172.8,263.9 L 176.5,263.9 L 180.2,263.6 L 184.0,263.4 L 187.7,263.2 L 191.4,263.2 L 195.2,263.0 L 198.9,262.4 L 202.6,262.0 L 206.4,261.7 L 210.1,261.5 L 213.8,261.5 L 217.6,261.4 L 221.3,261.1 L 225.0,261.1 L 228.8,260.9 L 232.5,260.5 L 236.2,260.2 L 240.0,260.2 L 243.7,260.2 L 247.4,260.2 L 251.2,260.1 L 254.9,259.6 L 258.6,259.3 L 262.4,259.2 L 266.1,259.0 L 269.8,258.9 L 273.6,258.7 L 277.3,258.6 L 281.0,258.4 L 284.8,258.0 L 288.5,257.8 L 292.2,257.7 L 296.0,257.1 L 299.7,256.5 L 303.4,256.5 L 307.2,256.4 L 310.9,256.2 L 314.6,256.2 L 318.4,256.2 L 322.1,255.9 L 325.8,255.9 L 329.6,255.0 L 333.3,254.9 L 337.0,254.7 L 340.7,254.7 L 344.5,254.4 L 348.2,254.3 L 351.9,254.3 L 355.7,254.2 L 359.4,254.2 L 363.1,254.2 L 366.9,253.9 L 370.6,253.7 L 374.3,253.0 L 378.1,253.1 L 381.8,253.0 L 385.5,252.8 L 389.3,252.8 L 393.0,252.7 L 396.7,252.2 L 400.5,252.2 L 404.2,252.2 L 407.9,252.2 L 411.7,251.9 L 415.4,251.9 L 419.1,251.6 L 422.9,251.4 L 426.6,250.8 L 430.3,250.8 L 434.1,250.5 L 437.8,250.3 L 441.5,250.2 L 445.3,250.0 L 449.0,249.7 L 452.7,249.7 L 456.5,249.3 L 460.2,249.3 L 463.9,249.1 L 467.7,248.8 L 471.4,248.7 L 475.1,248.7 L 478.9,248.7 L 482.6,248.7 L 486.3,248.7 L 490.1,248.3 L 493.8,248.3 L 497.5,248.0 L 501.3,247.7 L 505.0,247.2 L 508.7,247.1 L 512.4,247.1 L 516.2,246.2 L 519.9,246.0 L 523.6,246.0 L 527.4,245.5 L 531.1,245.5 L 534.8,245.2 L 538.6,245.2 L 542.3,245.0 L 546.0,245.0 L 549.8,244.9 L 553.5,244.6 L 557.2,244.6 L 561.0,244.4 L 564.7,244.3 L 568.4,244.1 L 572.2,244.0 L 575.9,244.0 L 579.6,243.7 L 583.4,243.7 L 587.1,243.7 L 590.8,242.9 L 594.6,242.9 L 598.3,242.9 L 602.0,242.9 L 605.8,242.9 L 609.5,242.9 L 613.2,242.6 L 617.0,242.6 L 620.7,242.4 L 624.4,241.8 L 628.2,241.5 L 631.9,241.3 L 635.6,241.3 L 639.4,241.2 L 643.1,240.7 L 646.8,240.6 L 650.6,240.6 L 654.3,240.3 L 658.0,239.8 L 661.8,239.6 L 665.5,239.6 L 669.2,239.4 L 673.0,239.4 L 676.7,239.0 L 680.4,238.8 L 684.1,238.8 L 687.9,238.5 L 691.6,238.5 L 695.3,238.2 L 699.1,237.8 L 702.8,237.8 L 706.5,237.6 L 710.3,237.5 L 714.0,237.3 L 717.7,237.3 L 721.5,237.2 L 725.2,237.2 L 728.9,236.9 L 732.7,236.3 L 736.4,236.2 L 740.1,236.2 L 743.9,235.0 L 747.6,235.0 L 751.3,234.5 L 755.1,234.5 L 758.8,234.5 L 762.5,234.5 L 766.3,234.5 L 770.0,234.5 L 770.0,340 Z" fill="url(#g3)" clip-path="url(#ca)"/>
<path d="M 72.0,268.2 L 75.7,267.7 L 79.5,267.7 L 83.2,267.7 L 86.9,267.6 L 90.7,267.3 L 94.4,267.1 L 98.1,267.0 L 101.9,267.0 L 105.6,266.8 L 109.3,266.7 L 113.1,266.7 L 116.8,266.7 L 120.5,266.7 L 124.3,266.7 L 128.0,266.7 L 131.7,266.4 L 135.5,266.4 L 139.2,266.4 L 142.9,265.8 L 146.7,265.7 L 150.4,265.4 L 154.1,264.8 L 157.9,264.6 L 161.6,264.6 L 165.3,264.6 L 169.0,264.2 L 172.8,263.9 L 176.5,263.9 L 180.2,263.6 L 184.0,263.4 L 187.7,263.2 L 191.4,263.2 L 195.2,263.0 L 198.9,262.4 L 202.6,262.0 L 206.4,261.7 L 210.1,261.5 L 213.8,261.5 L 217.6,261.4 L 221.3,261.1 L 225.0,261.1 L 228.8,260.9 L 232.5,260.5 L 236.2,260.2 L 240.0,260.2 L 243.7,260.2 L 247.4,260.2 L 251.2,260.1 L 254.9,259.6 L 258.6,259.3 L 262.4,259.2 L 266.1,259.0 L 269.8,258.9 L 273.6,258.7 L 277.3,258.6 L 281.0,258.4 L 284.8,258.0 L 288.5,257.8 L 292.2,257.7 L 296.0,257.1 L 299.7,256.5 L 303.4,256.5 L 307.2,256.4 L 310.9,256.2 L 314.6,256.2 L 318.4,256.2 L 322.1,255.9 L 325.8,255.9 L 329.6,255.0 L 333.3,254.9 L 337.0,254.7 L 340.7,254.7 L 344.5,254.4 L 348.2,254.3 L 351.9,254.3 L 355.7,254.2 L 359.4,254.2 L 363.1,254.2 L 366.9,253.9 L 370.6,253.7 L 374.3,253.0 L 378.1,253.1 L 381.8,253.0 L 385.5,252.8 L 389.3,252.8 L 393.0,252.7 L 396.7,252.2 L 400.5,252.2 L 404.2,252.2 L 407.9,252.2 L 411.7,251.9 L 415.4,251.9 L 419.1,251.6 L 422.9,251.4 L 426.6,250.8 L 430.3,250.8 L 434.1,250.5 L 437.8,250.3 L 441.5,250.2 L 445.3,250.0 L 449.0,249.7 L 452.7,249.7 L 456.5,249.3 L 460.2,249.3 L 463.9,249.1 L 467.7,248.8 L 471.4,248.7 L 475.1,248.7 L 478.9,248.7 L 482.6,248.7 L 486.3,248.7 L 490.1,248.3 L 493.8,248.3 L 497.5,248.0 L 501.3,247.7 L 505.0,247.2 L 508.7,247.1 L 512.4,247.1 L 516.2,246.2 L 519.9,246.0 L 523.6,246.0 L 527.4,245.5 L 531.1,245.5 L 534.8,245.2 L 538.6,245.2 L 542.3,245.0 L 546.0,245.0 L 549.8,244.9 L 553.5,244.6 L 557.2,244.6 L 561.0,244.4 L 564.7,244.3 L 568.4,244.1 L 572.2,244.0 L 575.9,244.0 L 579.6,243.7 L 583.4,243.7 L 587.1,243.7 L 590.8,242.9 L 594.6,242.9 L 598.3,242.9 L 602.0,242.9 L 605.8,242.9 L 609.5,242.9 L 613.2,242.6 L 617.0,242.6 L 620.7,242.4 L 624.4,241.8 L 628.2,241.5 L 631.9,241.3 L 635.6,241.3 L 639.4,241.2 L 643.1,240.7 L 646.8,240.6 L 650.6,240.6 L 654.3,240.3 L 658.0,239.8 L 661.8,239.6 L 665.5,239.6 L 669.2,239.4 L 673.0,239.4 L 676.7,239.0 L 680.4,238.8 L 684.1,238.8 L 687.9,238.5 L 691.6,238.5 L 695.3,238.2 L 699.1,237.8 L 702.8,237.8 L 706.5,237.6 L 710.3,237.5 L 714.0,237.3 L 717.7,237.3 L 721.5,237.2 L 725.2,237.2 L 728.9,236.9 L 732.7,236.3 L 736.4,236.2 L 740.1,236.2 L 743.9,235.0 L 747.6,235.0 L 751.3,234.5 L 755.1,234.5 L 758.8,234.5 L 762.5,234.5 L 766.3,234.5 L 770.0,234.5" fill="none" stroke="#BF5AF2" stroke-width="2.5" stroke-linejoin="round" clip-path="url(#ca)"/>
<path d="M 72.0,340 L 72.0,303.6 L 75.7,303.1 L 79.5,303.1 L 83.2,303.1 L 86.9,303.0 L 90.7,302.7 L 94.4,302.5 L 98.1,302.2 L 101.9,302.2 L 105.6,302.1 L 109.3,301.9 L 113.1,301.9 L 116.8,301.9 L 120.5,301.9 L 124.3,301.9 L 128.0,301.9 L 131.7,301.6 L 135.5,301.6 L 139.2,301.8 L 142.9,301.4 L 146.7,301.5 L 150.4,301.1 L 154.1,300.6 L 157.9,300.5 L 161.6,300.6 L 165.3,300.6 L 169.0,300.2 L 172.8,300.0 L 176.5,300.0 L 180.2,299.7 L 184.0,299.6 L 187.7,299.3 L 191.4,299.3 L 195.2,299.1 L 198.9,298.7 L 202.6,298.3 L 206.4,298.0 L 210.1,298.0 L 213.8,298.0 L 217.6,297.8 L 221.3,297.5 L 225.0,297.5 L 228.8,297.4 L 232.5,296.9 L 236.2,296.8 L 240.0,296.8 L 243.7,296.8 L 247.4,296.8 L 251.2,296.6 L 254.9,296.2 L 258.6,296.0 L 262.4,295.9 L 266.1,295.8 L 269.8,295.8 L 273.6,295.6 L 277.3,295.6 L 281.0,295.6 L 284.8,295.2 L 288.5,295.2 L 292.2,295.2 L 296.0,294.9 L 299.7,294.4 L 303.4,294.4 L 307.2,294.3 L 310.9,294.1 L 314.6,294.1 L 318.4,294.1 L 322.1,293.8 L 325.8,293.8 L 329.6,292.9 L 333.3,292.8 L 337.0,292.7 L 340.7,292.7 L 344.5,292.5 L 348.2,292.5 L 351.9,292.5 L 355.7,292.5 L 359.4,292.5 L 363.1,292.5 L 366.9,292.2 L 370.6,292.1 L 374.3,291.3 L 378.1,291.5 L 381.8,291.5 L 385.5,291.3 L 389.3,291.3 L 393.0,291.3 L 396.7,291.0 L 400.5,291.0 L 404.2,291.0 L 407.9,291.0 L 411.7,291.0 L 415.4,291.0 L 419.1,290.9 L 422.9,290.9 L 426.6,290.3 L 430.3,290.3 L 434.1,290.1 L 437.8,290.0 L 441.5,289.9 L 445.3,289.7 L 449.0,289.4 L 452.7,289.4 L 456.5,289.0 L 460.2,289.0 L 463.9,288.8 L 467.7,288.7 L 471.4,288.7 L 475.1,288.7 L 478.9,288.7 L 482.6,288.7 L 486.3,288.7 L 490.1,288.2 L 493.8,288.2 L 497.5,287.9 L 501.3,287.6 L 505.0,287.2 L 508.7,287.0 L 512.4,287.0 L 516.2,286.3 L 519.9,286.2 L 523.6,286.2 L 527.4,285.7 L 531.1,285.7 L 534.8,285.6 L 538.6,285.6 L 542.3,285.7 L 546.0,285.9 L 549.8,285.7 L 553.5,285.4 L 557.2,285.6 L 561.0,285.4 L 564.7,285.3 L 568.4,285.3 L 572.2,285.3 L 575.9,285.3 L 579.6,285.0 L 583.4,285.0 L 587.1,285.0 L 590.8,284.4 L 594.6,284.4 L 598.3,284.4 L 602.0,284.4 L 605.8,284.4 L 609.5,284.4 L 613.2,284.1 L 617.0,284.1 L 620.7,283.8 L 624.4,283.2 L 628.2,283.1 L 631.9,283.1 L 635.6,283.1 L 639.4,283.1 L 643.1,282.8 L 646.8,282.6 L 650.6,282.6 L 654.3,282.5 L 658.0,282.0 L 661.8,281.7 L 665.5,281.7 L 669.2,281.6 L 673.0,281.6 L 676.7,281.4 L 680.4,281.3 L 684.1,281.3 L 687.9,281.1 L 691.6,281.1 L 695.3,280.9 L 699.1,280.4 L 702.8,280.4 L 706.5,280.3 L 710.3,280.4 L 714.0,280.3 L 717.7,280.3 L 721.5,280.1 L 725.2,280.1 L 728.9,280.0 L 732.7,279.5 L 736.4,279.5 L 740.1,279.5 L 743.9,278.6 L 747.6,278.8 L 751.3,278.3 L 755.1,278.3 L 758.8,278.3 L 762.5,278.3 L 766.3,278.3 L 770.0,278.5 L 770.0,340 Z" fill="url(#g4)" clip-path="url(#ca)"/>
<path d="M 72.0,303.6 L 75.7,303.1 L 79.5,303.1 L 83.2,303.1 L 86.9,303.0 L 90.7,302.7 L 94.4,302.5 L 98.1,302.2 L 101.9,302.2 L 105.6,302.1 L 109.3,301.9 L 113.1,301.9 L 116.8,301.9 L 120.5,301.9 L 124.3,301.9 L 128.0,301.9 L 131.7,301.6 L 135.5,301.6 L 139.2,301.8 L 142.9,301.4 L 146.7,301.5 L 150.4,301.1 L 154.1,300.6 L 157.9,300.5 L 161.6,300.6 L 165.3,300.6 L 169.0,300.2 L 172.8,300.0 L 176.5,300.0 L 180.2,299.7 L 184.0,299.6 L 187.7,299.3 L 191.4,299.3 L 195.2,299.1 L 198.9,298.7 L 202.6,298.3 L 206.4,298.0 L 210.1,298.0 L 213.8,298.0 L 217.6,297.8 L 221.3,297.5 L 225.0,297.5 L 228.8,297.4 L 232.5,296.9 L 236.2,296.8 L 240.0,296.8 L 243.7,296.8 L 247.4,296.8 L 251.2,296.6 L 254.9,296.2 L 258.6,296.0 L 262.4,295.9 L 266.1,295.8 L 269.8,295.8 L 273.6,295.6 L 277.3,295.6 L 281.0,295.6 L 284.8,295.2 L 288.5,295.2 L 292.2,295.2 L 296.0,294.9 L 299.7,294.4 L 303.4,294.4 L 307.2,294.3 L 310.9,294.1 L 314.6,294.1 L 318.4,294.1 L 322.1,293.8 L 325.8,293.8 L 329.6,292.9 L 333.3,292.8 L 337.0,292.7 L 340.7,292.7 L 344.5,292.5 L 348.2,292.5 L 351.9,292.5 L 355.7,292.5 L 359.4,292.5 L 363.1,292.5 L 366.9,292.2 L 370.6,292.1 L 374.3,291.3 L 378.1,291.5 L 381.8,291.5 L 385.5,291.3 L 389.3,291.3 L 393.0,291.3 L 396.7,291.0 L 400.5,291.0 L 404.2,291.0 L 407.9,291.0 L 411.7,291.0 L 415.4,291.0 L 419.1,290.9 L 422.9,290.9 L 426.6,290.3 L 430.3,290.3 L 434.1,290.1 L 437.8,290.0 L 441.5,289.9 L 445.3,289.7 L 449.0,289.4 L 452.7,289.4 L 456.5,289.0 L 460.2,289.0 L 463.9,288.8 L 467.7,288.7 L 471.4,288.7 L 475.1,288.7 L 478.9,288.7 L 482.6,288.7 L 486.3,288.7 L 490.1,288.2 L 493.8,288.2 L 497.5,287.9 L 501.3,287.6 L 505.0,287.2 L 508.7,287.0 L 512.4,287.0 L 516.2,286.3 L 519.9,286.2 L 523.6,286.2 L 527.4,285.7 L 531.1,285.7 L 534.8,285.6 L 538.6,285.6 L 542.3,285.7 L 546.0,285.9 L 549.8,285.7 L 553.5,285.4 L 557.2,285.6 L 561.0,285.4 L 564.7,285.3 L 568.4,285.3 L 572.2,285.3 L 575.9,285.3 L 579.6,285.0 L 583.4,285.0 L 587.1,285.0 L 590.8,284.4 L 594.6,284.4 L 598.3,284.4 L 602.0,284.4 L 605.8,284.4 L 609.5,284.4 L 613.2,284.1 L 617.0,284.1 L 620.7,283.8 L 624.4,283.2 L 628.2,283.1 L 631.9,283.1 L 635.6,283.1 L 639.4,283.1 L 643.1,282.8 L 646.8,282.6 L 650.6,282.6 L 654.3,282.5 L 658.0,282.0 L 661.8,281.7 L 665.5,281.7 L 669.2,281.6 L 673.0,281.6 L 676.7,281.4 L 680.4,281.3 L 684.1,281.3 L 687.9,281.1 L 691.6,281.1 L 695.3,280.9 L 699.1,280.4 L 702.8,280.4 L 706.5,280.3 L 710.3,280.4 L 714.0,280.3 L 717.7,280.3 L 721.5,280.1 L 725.2,280.1 L 728.9,280.0 L 732.7,279.5 L 736.4,279.5 L 740.1,279.5 L 743.9,278.6 L 747.6,278.8 L 751.3,278.3 L 755.1,278.3 L 758.8,278.3 L 762.5,278.3 L 766.3,278.3 L 770.0,278.5" fill="none" stroke="#34C759" stroke-width="2.5" stroke-linejoin="round" clip-path="url(#ca)"/>
<text x="92.5" y="55.0" text-anchor="middle" font-size="9" fill="#4F8EF7" opacity="0.85" clip-path="url(#ca)">+0.5% (+8)</text>
<text x="92.5" y="66.0" text-anchor="middle" font-size="9" fill="#BF5AF2" opacity="0.85" clip-path="url(#ca)">+1.0% (+10)</text>
<text x="92.5" y="77.0" text-anchor="middle" font-size="9" fill="#34C759" opacity="0.85" clip-path="url(#ca)">+1.5% (+11)</text>
<text x="163.4" y="55.0" text-anchor="middle" font-size="9" fill="#4F8EF7" opacity="0.85" clip-path="url(#ca)">+4.0% (+65)</text>
<text x="163.4" y="66.0" text-anchor="middle" font-size="9" fill="#BF5AF2" opacity="0.85" clip-path="url(#ca)">+3.5% (+35)</text>
<text x="163.4" y="77.0" text-anchor="middle" font-size="9" fill="#34C759" opacity="0.85" clip-path="url(#ca)">+3.6% (+27)</text>
<text x="262.4" y="55.0" text-anchor="middle" font-size="9" fill="#4F8EF7" opacity="0.85" clip-path="url(#ca)">+4.1% (+70)</text>
<text x="262.4" y="66.0" text-anchor="middle" font-size="9" fill="#BF5AF2" opacity="0.85" clip-path="url(#ca)">+3.5% (+36)</text>
<text x="262.4" y="77.0" text-anchor="middle" font-size="9" fill="#34C759" opacity="0.85" clip-path="url(#ca)">+3.3% (+26)</text>
<text x="363.1" y="55.0" text-anchor="middle" font-size="9" fill="#4F8EF7" opacity="0.85" clip-path="url(#ca)">+3.5% (+61)</text>
<text x="363.1" y="66.0" text-anchor="middle" font-size="9" fill="#BF5AF2" opacity="0.85" clip-path="url(#ca)">+2.7% (+29)</text>
<text x="363.1" y="77.0" text-anchor="middle" font-size="9" fill="#34C759" opacity="0.85" clip-path="url(#ca)">+2.6% (+21)</text>
<text x="463.9" y="55.0" text-anchor="middle" font-size="9" fill="#4F8EF7" opacity="0.85" clip-path="url(#ca)">+2.7% (+49)</text>
<text x="463.9" y="66.0" text-anchor="middle" font-size="9" fill="#BF5AF2" opacity="0.85" clip-path="url(#ca)">+3.0% (+33)</text>
<text x="463.9" y="77.0" text-anchor="middle" font-size="9" fill="#34C759" opacity="0.85" clip-path="url(#ca)">+3.2% (+27)</text>
<text x="562.8" y="55.0" text-anchor="middle" font-size="9" fill="#4F8EF7" opacity="0.85" clip-path="url(#ca)">+2.9% (+54)</text>
<text x="562.8" y="66.0" text-anchor="middle" font-size="9" fill="#BF5AF2" opacity="0.85" clip-path="url(#ca)">+1.9% (+22)</text>
<text x="562.8" y="77.0" text-anchor="middle" font-size="9" fill="#34C759" opacity="0.85" clip-path="url(#ca)">+1.5% (+13)</text>
<text x="656.2" y="55.0" text-anchor="middle" font-size="9" fill="#4F8EF7" opacity="0.85" clip-path="url(#ca)">+2.7% (+52)</text>
<text x="656.2" y="66.0" text-anchor="middle" font-size="9" fill="#BF5AF2" opacity="0.85" clip-path="url(#ca)">+2.8% (+33)</text>
<text x="656.2" y="77.0" text-anchor="middle" font-size="9" fill="#34C759" opacity="0.85" clip-path="url(#ca)">+2.8% (+25)</text>
<text x="736.4" y="55.0" text-anchor="middle" font-size="9" fill="#4F8EF7" opacity="0.85" clip-path="url(#ca)">+1.8% (+35)</text>
<text x="736.4" y="66.0" text-anchor="middle" font-size="9" fill="#BF5AF2" opacity="0.85" clip-path="url(#ca)">+1.8% (+22)</text>
<text x="736.4" y="77.0" text-anchor="middle" font-size="9" fill="#34C759" opacity="0.85" clip-path="url(#ca)">+1.4% (+13)</text>
<rect x="211" y="369" width="12" height="12" fill="#4F8EF7" rx="2"/>
<text x="227" y="379" font-size="12" fill="#111827">Authors</text>
<rect x="351" y="369" width="12" height="12" fill="#BF5AF2" rx="2"/>
<text x="367" y="379" font-size="12" fill="#111827">Contributors</text>
<rect x="491" y="369" width="12" height="12" fill="#34C759" rx="2"/>
<text x="507" y="379" font-size="12" fill="#111827">Non-author contributors</text>
<text x="72" y="394" font-size="8" fill="#e5e7eb">data since Dec 11, 2025</text>
</svg>