<svg xmlns="http://www.w3.org/2000/svg" width="800" height="400" viewBox="0 0 800 400">
<defs>
  <style>text { font-family: -apple-system, BlinkMacSystemFont, 'Segoe UI', Roboto, sans-serif; }</style>
  <linearGradient id="g2" x1="0" y1="0" x2="0" y2="1">
  <stop offset="0%" stop-color="#4F8EF7" stop-opacity="0.25"/>
  <stop offset="100%" stop-color="#4F8EF7" stop-opacity="0"/>
</linearGradient>
<linearGradient id="g3" x1="0" y1="0" x2="0" y2="1">
  <stop offset="0%" stop-color="#BF5AF2" stop-opacity="0.25"/>
  <stop offset="100%" stop-color="#BF5AF2" stop-opacity="0"/>
</linearGradient>
<linearGradient id="g4" x1="0" y1="0" x2="0" y2="1">
  <stop offset="0%" stop-color="#34C759" stop-opacity="0.25"/>
  <stop offset="100%" stop-color="#34C759" stop-opacity="0"/>
</linearGradient>
  <clipPath id="ca"><rect x="72" y="45" width="698" height="295"/></clipPath>
</defs>
<rect width="800" height="400" fill="#ffffff" rx="12"/>
<text x="400" y="26" text-anchor="middle" font-size="15" font-weight="600" fill="#111827">Community Growth Over Time</text>
<line x1="72" y1="340.0" x2="770" y2="340.0" stroke="#f3f4f6" stroke-width="1"/>
<text x="66" y="344.0" text-anchor="end" font-size="11" fill="#6b7280">500</text>
<line x1="72" y1="241.7" x2="770" y2="241.7" stroke="#f3f4f6" stroke-width="1"/>
<text x="66" y="245.7" text-anchor="end" font-size="11" fill="#6b7280">1.0k</text>
<line x1="72" y1="143.3" x2="770" y2="143.3" stroke="#f3f4f6" stroke-width="1"/>
<text x="66" y="147.3" text-anchor="end" font-size="11" fill="#6b7280">1.5k</text>
<line x1="72" y1="45.0" x2="770" y2="45.0" stroke="#f3f4f6" stroke-width="1"/>
<text x="66" y="49.0" text-anchor="end" font-size="11" fill="#6b7280">2.0k</text>
<line x1="131.8" y1="45" x2="131.8" y2="340" stroke="#e5e7eb" stroke-width="1" stroke-dasharray="3,3" clip-path="url(#ca)"/>
<line x1="261.5" y1="45" x2="261.5" y2="340" stroke="#e5e7eb" stroke-width="1" stroke-dasharray="3,3" clip-path="url(#ca)"/>
<line x1="396.1" y1="45" x2="396.1" y2="340" stroke="#e5e7eb" stroke-width="1" stroke-dasharray="3,3" clip-path="url(#ca)"/>
<line x1="530.7" y1="45" x2="530.7" y2="340" stroke="#e5e7eb" stroke-width="1" stroke-dasharray="3,3" clip-path="url(#ca)"/>
<line x1="665.3" y1="45" x2="665.3" y2="340" stroke="#e5e7eb" stroke-width="1" stroke-dasharray="3,3" clip-path="url(#ca)"/>
<text x="72.0" y="358.0" text-anchor="middle" font-size="11" fill="#6b7280">Dec 11</text>
<text x="211.6" y="358.0" text-anchor="middle" font-size="11" fill="#6b7280">Jan 22</text>
<text x="351.2" y="358.0" text-anchor="middle" font-size="11" fill="#6b7280">Feb 19</text>
<text x="490.8" y="358.0" text-anchor="middle" font-size="11" fill="#6b7280">Mar 21</text>
<text x="630.4" y="358.0" text-anchor="middle" font-size="11" fill="#6b7280">Apr 23</text>
<text x="770.0" y="358.0" text-anchor="middle" font-size="11" fill="#6b7280">May 27</text>
<line x1="72" y1="45" x2="72" y2="340" stroke="#e5e7eb" stroke-width="1"/>
<line x1="72" y1="340" x2="770" y2="340" stroke="#e5e7eb" stroke-width="1"/>
<text x="-192.5" y="18" text-anchor="middle" font-size="12" fill="#6b7280" transform="rotate(-90)">People</text>
<path d="M 72.0,340 L 72.0,120.1 L 77.0,120.1 L 82.0,120.1 L 87.0,119.5 L 91.9,119.5 L 96.9,119.1 L 101.9,118.9 L 106.9,119.1 L 111.9,118.6 L 116.9,118.6 L 121.9,118.6 L 126.8,118.6 L 131.8,118.6 L 136.8,118.6 L 141.8,118.6 L 146.8,118.6 L 151.8,118.4 L 156.8,117.8 L 161.7,116.6 L 166.7,116.0 L 171.7,115.8 L 176.7,115.8 L 181.7,115.2 L 186.7,113.8 L 191.7,113.0 L 196.6,113.0 L 201.6,112.1 L 206.6,111.7 L 211.6,110.9 L 216.6,110.3 L 221.6,109.7 L 226.6,109.1 L 231.5,109.1 L 236.5,107.7 L 241.5,106.9 L 246.5,106.9 L 251.5,106.2 L 256.5,105.8 L 261.5,105.6 L 266.4,105.4 L 271.4,105.4 L 276.4,104.8 L 281.4,102.4 L 286.4,101.0 L 291.4,100.3 L 296.4,100.1 L 301.3,99.7 L 306.3,98.9 L 311.3,98.5 L 316.3,98.1 L 321.3,97.7 L 326.3,97.3 L 331.3,96.9 L 336.2,96.9 L 341.2,95.0 L 346.2,95.0 L 351.2,94.8 L 356.2,94.6 L 361.2,94.2 L 366.2,94.2 L 371.1,93.2 L 376.1,92.0 L 381.1,91.6 L 386.1,92.0 L 391.1,91.8 L 396.1,91.6 L 401.1,91.6 L 406.0,91.2 L 411.0,90.4 L 416.0,90.0 L 421.0,89.6 L 426.0,89.4 L 431.0,89.4 L 436.0,88.7 L 440.9,88.3 L 445.9,88.3 L 450.9,86.7 L 455.9,86.7 L 460.9,86.7 L 465.9,86.7 L 470.9,86.5 L 475.8,85.9 L 480.8,85.1 L 485.8,84.7 L 490.8,84.7 L 495.8,84.3 L 500.8,82.8 L 505.8,81.8 L 510.7,81.6 L 515.7,81.4 L 520.7,80.8 L 525.7,79.6 L 530.7,79.2 L 535.7,78.8 L 540.7,77.6 L 545.6,77.4 L 550.6,77.4 L 555.6,77.4 L 560.6,77.3 L 565.6,76.1 L 570.6,75.9 L 575.6,75.7 L 580.5,75.7 L 585.5,75.3 L 590.5,73.7 L 595.5,73.5 L 600.5,73.3 L 605.5,73.3 L 610.5,72.5 L 615.4,72.3 L 620.4,72.1 L 625.4,71.6 L 630.4,70.8 L 635.4,70.8 L 640.4,70.8 L 645.4,70.8 L 650.3,70.4 L 655.3,69.8 L 660.3,69.6 L 665.3,69.0 L 670.3,68.8 L 675.3,68.6 L 680.3,67.8 L 685.2,67.2 L 690.2,67.0 L 695.2,67.0 L 700.2,65.3 L 705.2,64.7 L 710.2,64.5 L 715.2,64.5 L 720.1,63.5 L 725.1,63.5 L 730.1,62.9 L 735.1,62.3 L 740.1,60.9 L 745.1,60.7 L 750.1,60.5 L 755.0,60.3 L 760.0,60.3 L 765.0,60.1 L 770.0,59.2 L 770.0,340 Z" fill="url(#g2)" clip-path="url(#ca)"/>
<path d="M 72.0,120.1 L 77.0,120.1 L 82.0,120.1 L 87.0,119.5 L 91.9,119.5 L 96.9,119.1 L 101.9,118.9 L 106.9,119.1 L 111.9,118.6 L 116.9,118.6 L 121.9,118.6 L 126.8,118.6 L 131.8,118.6 L 136.8,118.6 L 141.8,118.6 L 146.8,118.6 L 151.8,118.4 L 156.8,117.8 L 161.7,116.6 L 166.7,116.0 L 171.7,115.8 L 176.7,115.8 L 181.7,115.2 L 186.7,113.8 L 191.7,113.0 L 196.6,113.0 L 201.6,112.1 L 206.6,111.7 L 211.6,110.9 L 216.6,110.3 L 221.6,109.7 L 226.6,109.1 L 231.5,109.1 L 236.5,107.7 L 241.5,106.9 L 246.5,106.9 L 251.5,106.2 L 256.5,105.8 L 261.5,105.6 L 266.4,105.4 L 271.4,105.4 L 276.4,104.8 L 281.4,102.4 L 286.4,101.0 L 291.4,100.3 L 296.4,100.1 L 301.3,99.7 L 306.3,98.9 L 311.3,98.5 L 316.3,98.1 L 321.3,97.7 L 326.3,97.3 L 331.3,96.9 L 336.2,96.9 L 341.2,95.0 L 346.2,95.0 L 351.2,94.8 L 356.2,94.6 L 361.2,94.2 L 366.2,94.2 L 371.1,93.2 L 376.1,92.0 L 381.1,91.6 L 386.1,92.0 L 391.1,91.8 L 396.1,91.6 L 401.1,91.6 L 406.0,91.2 L 411.0,90.4 L 416.0,90.0 L 421.0,89.6 L 426.0,89.4 L 431.0,89.4 L 436.0,88.7 L 440.9,88.3 L 445.9,88.3 L 450.9,86.7 L 455.9,86.7 L 460.9,86.7 L 465.9,86.7 L 470.9,86.5 L 475.8,85.9 L 480.8,85.1 L 485.8,84.7 L 490.8,84.7 L 495.8,84.3 L 500.8,82.8 L 505.8,81.8 L 510.7,81.6 L 515.7,81.4 L 520.7,80.8 L 525.7,79.6 L 530.7,79.2 L 535.7,78.8 L 540.7,77.6 L 545.6,77.4 L 550.6,77.4 L 555.6,77.4 L 560.6,77.3 L 565.6,76.1 L 570.6,75.9 L 575.6,75.7 L 580.5,75.7 L 585.5,75.3 L 590.5,73.7 L 595.5,73.5 L 600.5,73.3 L 605.5,73.3 L 610.5,72.5 L 615.4,72.3 L 620.4,72.1 L 625.4,71.6 L 630.4,70.8 L 635.4,70.8 L 640.4,70.8 L 645.4,70.8 L 650.3,70.4 L 655.3,69.8 L 660.3,69.6 L 665.3,69.0 L 670.3,68.8 L 675.3,68.6 L 680.3,67.8 L 685.2,67.2 L 690.2,67.0 L 695.2,67.0 L 700.2,65.3 L 705.2,64.7 L 710.2,64.5 L 715.2,64.5 L 720.1,63.5 L 725.1,63.5 L 730.1,62.9 L 735.1,62.3 L 740.1,60.9 L 745.1,60.7 L 750.1,60.5 L 755.0,60.3 L 760.0,60.3 L 765.0,60.1 L 770.0,59.2" fill="none" stroke="#4F8EF7" stroke-width="2.5" stroke-linejoin="round" clip-path="url(#ca)"/>
<path d="M 72.0,340 L 72.0,244.2 L 77.0,243.6 L 82.0,243.6 L 87.0,243.6 L 91.9,243.4 L 96.9,243.0 L 101.9,242.8 L 106.9,242.6 L 111.9,242.6 L 116.9,242.5 L 121.9,242.3 L 126.8,242.3 L 131.8,242.3 L 136.8,242.3 L 141.8,242.3 L 146.8,242.3 L 151.8,241.9 L 156.8,241.9 L 161.7,241.9 L 166.7,241.1 L 171.7,240.9 L 176.7,240.5 L 181.7,239.7 L 186.7,239.5 L 191.7,239.5 L 196.6,239.5 L 201.6,238.9 L 206.6,238.5 L 211.6,238.5 L 216.6,238.1 L 221.6,237.9 L 226.6,237.5 L 231.5,237.5 L 236.5,237.3 L 241.5,236.6 L 246.5,236.0 L 251.5,235.6 L 256.5,235.4 L 261.5,235.4 L 266.4,235.2 L 271.4,234.8 L 276.4,234.8 L 281.4,234.6 L 286.4,234.0 L 291.4,233.6 L 296.4,233.6 L 301.3,233.6 L 306.3,233.6 L 311.3,233.4 L 316.3,232.8 L 321.3,232.4 L 326.3,232.2 L 331.3,232.0 L 336.2,231.8 L 341.2,231.6 L 346.2,231.4 L 351.2,231.2 L 356.2,230.7 L 361.2,230.5 L 366.2,230.3 L 371.1,229.5 L 376.1,228.7 L 381.1,228.7 L 386.1,228.5 L 391.1,228.3 L 396.1,228.3 L 401.1,228.3 L 406.0,227.9 L 411.0,227.9 L 416.0,226.7 L 421.0,226.5 L 426.0,226.3 L 431.0,226.3 L 436.0,225.9 L 440.9,225.7 L 445.9,225.7 L 450.9,225.5 L 455.9,225.5 L 460.9,225.5 L 465.9,225.1 L 470.9,224.9 L 475.8,224.0 L 480.8,224.2 L 485.8,224.0 L 490.8,223.8 L 495.8,223.8 L 500.8,223.6 L 505.8,223.0 L 510.7,223.0 L 515.7,223.0 L 520.7,223.0 L 525.7,222.6 L 530.7,222.6 L 535.7,222.2 L 540.7,221.8 L 545.6,221.0 L 550.6,221.0 L 555.6,220.6 L 560.6,220.4 L 565.6,220.2 L 570.6,220.0 L 575.6,219.6 L 580.5,219.6 L 585.5,219.1 L 590.5,219.1 L 595.5,218.9 L 600.5,218.5 L 605.5,218.3 L 610.5,218.3 L 615.4,218.3 L 620.4,218.3 L 625.4,218.3 L 630.4,217.7 L 635.4,217.7 L 640.4,217.3 L 645.4,216.9 L 650.3,216.3 L 655.3,216.1 L 660.3,216.1 L 665.3,214.9 L 670.3,214.7 L 675.3,214.7 L 680.3,213.9 L 685.2,213.9 L 690.2,213.5 L 695.2,213.5 L 700.2,213.3 L 705.2,213.3 L 710.2,213.2 L 715.2,212.8 L 720.1,212.8 L 725.1,212.6 L 730.1,212.4 L 735.1,212.2 L 740.1,212.0 L 745.1,212.0 L 750.1,211.6 L 755.0,211.6 L 760.0,211.6 L 765.0,210.6 L 770.0,210.6 L 770.0,340 Z" fill="url(#g3)" clip-path="url(#ca)"/>
<path d="M 72.0,244.2 L 77.0,243.6 L 82.0,243.6 L 87.0,243.6 L 91.9,243.4 L 96.9,243.0 L 101.9,242.8 L 106.9,242.6 L 111.9,242.6 L 116.9,242.5 L 121.9,242.3 L 126.8,242.3 L 131.8,242.3 L 136.8,242.3 L 141.8,242.3 L 146.8,242.3 L 151.8,241.9 L 156.8,241.9 L 161.7,241.9 L 166.7,241.1 L 171.7,240.9 L 176.7,240.5 L 181.7,239.7 L 186.7,239.5 L 191.7,239.5 L 196.6,239.5 L 201.6,238.9 L 206.6,238.5 L 211.6,238.5 L 216.6,238.1 L 221.6,237.9 L 226.6,237.5 L 231.5,237.5 L 236.5,237.3 L 241.5,236.6 L 246.5,236.0 L 251.5,235.6 L 256.5,235.4 L 261.5,235.4 L 266.4,235.2 L 271.4,234.8 L 276.4,234.8 L 281.4,234.6 L 286.4,234.0 L 291.4,233.6 L 296.4,233.6 L 301.3,233.6 L 306.3,233.6 L 311.3,233.4 L 316.3,232.8 L 321.3,232.4 L 326.3,232.2 L 331.3,232.0 L 336.2,231.8 L 341.2,231.6 L 346.2,231.4 L 351.2,231.2 L 356.2,230.7 L 361.2,230.5 L 366.2,230.3 L 371.1,229.5 L 376.1,228.7 L 381.1,228.7 L 386.1,228.5 L 391.1,228.3 L 396.1,228.3 L 401.1,228.3 L 406.0,227.9 L 411.0,227.9 L 416.0,226.7 L 421.0,226.5 L 426.0,226.3 L 431.0,226.3 L 436.0,225.9 L 440.9,225.7 L 445.9,225.7 L 450.9,225.5 L 455.9,225.5 L 460.9,225.5 L 465.9,225.1 L 470.9,224.9 L 475.8,224.0 L 480.8,224.2 L 485.8,224.0 L 490.8,223.8 L 495.8,223.8 L 500.8,223.6 L 505.8,223.0 L 510.7,223.0 L 515.7,223.0 L 520.7,223.0 L 525.7,222.6 L 530.7,222.6 L 535.7,222.2 L 540.7,221.8 L 545.6,221.0 L 550.6,221.0 L 555.6,220.6 L 560.6,220.4 L 565.6,220.2 L 570.6,220.0 L 575.6,219.6 L 580.5,219.6 L 585.5,219.1 L 590.5,219.1 L 595.5,218.9 L 600.5,218.5 L 605.5,218.3 L 610.5,218.3 L 615.4,218.3 L 620.4,218.3 L 625.4,218.3 L 630.4,217.7 L 635.4,217.7 L 640.4,217.3 L 645.4,216.9 L 650.3,216.3 L 655.3,216.1 L 660.3,216.1 L 665.3,214.9 L 670.3,214.7 L 675.3,214.7 L 680.3,213.9 L 685.2,213.9 L 690.2,213.5 L 695.2,213.5 L 700.2,213.3 L 705.2,213.3 L 710.2,213.2 L 715.2,212.8 L 720.1,212.8 L 725.1,212.6 L 730.1,212.4 L 735.1,212.2 L 740.1,212.0 L 745.1,212.0 L 750.1,211.6 L 755.0,211.6 L 760.0,211.6 L 765.0,210.6 L 770.0,210.6" fill="none" stroke="#BF5AF2" stroke-width="2.5" stroke-linejoin="round" clip-path="url(#ca)"/>
<path d="M 72.0,340 L 72.0,291.4 L 77.0,290.8 L 82.0,290.8 L 87.0,290.8 L 91.9,290.6 L 96.9,290.2 L 101.9,290.0 L 106.9,289.7 L 111.9,289.7 L 116.9,289.5 L 121.9,289.3 L 126.8,289.3 L 131.8,289.3 L 136.8,289.3 L 141.8,289.3 L 146.8,289.3 L 151.8,288.9 L 156.8,288.9 L 161.7,289.1 L 166.7,288.5 L 171.7,288.7 L 176.7,288.1 L 181.7,287.5 L 186.7,287.3 L 191.7,287.5 L 196.6,287.5 L 201.6,286.9 L 206.6,286.7 L 211.6,286.7 L 216.6,286.3 L 221.6,286.1 L 226.6,285.7 L 231.5,285.7 L 236.5,285.5 L 241.5,284.9 L 246.5,284.3 L 251.5,283.9 L 256.5,283.9 L 261.5,283.9 L 266.4,283.8 L 271.4,283.4 L 276.4,283.4 L 281.4,283.2 L 286.4,282.6 L 291.4,282.4 L 296.4,282.4 L 301.3,282.4 L 306.3,282.4 L 311.3,282.2 L 316.3,281.6 L 321.3,281.4 L 326.3,281.2 L 331.3,281.0 L 336.2,281.0 L 341.2,280.8 L 346.2,280.8 L 351.2,280.8 L 356.2,280.2 L 361.2,280.2 L 366.2,280.2 L 371.1,279.8 L 376.1,279.2 L 381.1,279.2 L 386.1,279.0 L 391.1,278.8 L 396.1,278.8 L 401.1,278.8 L 406.0,278.4 L 411.0,278.4 L 416.0,277.3 L 421.0,277.1 L 426.0,276.9 L 431.0,276.9 L 436.0,276.7 L 440.9,276.7 L 445.9,276.7 L 450.9,276.7 L 455.9,276.7 L 460.9,276.7 L 465.9,276.3 L 470.9,276.1 L 475.8,275.1 L 480.8,275.3 L 485.8,275.3 L 490.8,275.1 L 495.8,275.1 L 500.8,275.1 L 505.8,274.7 L 510.7,274.7 L 515.7,274.7 L 520.7,274.7 L 525.7,274.7 L 530.7,274.7 L 535.7,274.5 L 540.7,274.5 L 545.6,273.7 L 550.6,273.7 L 555.6,273.5 L 560.6,273.3 L 565.6,273.1 L 570.6,272.9 L 575.6,272.5 L 580.5,272.5 L 585.5,272.0 L 590.5,272.0 L 595.5,271.8 L 600.5,271.6 L 605.5,271.6 L 610.5,271.6 L 615.4,271.6 L 620.4,271.6 L 625.4,271.6 L 630.4,271.0 L 635.4,271.0 L 640.4,270.6 L 645.4,270.2 L 650.3,269.6 L 655.3,269.4 L 660.3,269.4 L 665.3,268.4 L 670.3,268.2 L 675.3,268.2 L 680.3,267.6 L 685.2,267.6 L 690.2,267.4 L 695.2,267.4 L 700.2,267.6 L 705.2,267.8 L 710.2,267.6 L 715.2,267.2 L 720.1,267.4 L 725.1,267.2 L 730.1,267.0 L 735.1,267.0 L 740.1,267.0 L 745.1,267.0 L 750.1,266.6 L 755.0,266.6 L 760.0,266.6 L 765.0,265.9 L 770.0,265.9 L 770.0,340 Z" fill="url(#g4)" clip-path="url(#ca)"/>
<path d="M 72.0,291.4 L 77.0,290.8 L 82.0,290.8 L 87.0,290.8 L 91.9,290.6 L 96.9,290.2 L 101.9,290.0 L 106.9,289.7 L 111.9,289.7 L 116.9,289.5 L 121.9,289.3 L 126.8,289.3 L 131.8,289.3 L 136.8,289.3 L 141.8,289.3 L 146.8,289.3 L 151.8,288.9 L 156.8,288.9 L 161.7,289.1 L 166.7,288.5 L 171.7,288.7 L 176.7,288.1 L 181.7,287.5 L 186.7,287.3 L 191.7,287.5 L 196.6,287.5 L 201.6,286.9 L 206.6,286.7 L 211.6,286.7 L 216.6,286.3 L 221.6,286.1 L 226.6,285.7 L 231.5,285.7 L 236.5,285.5 L 241.5,284.9 L 246.5,284.3 L 251.5,283.9 L 256.5,283.9 L 261.5,283.9 L 266.4,283.8 L 271.4,283.4 L 276.4,283.4 L 281.4,283.2 L 286.4,282.6 L 291.4,282.4 L 296.4,282.4 L 301.3,282.4 L 306.3,282.4 L 311.3,282.2 L 316.3,281.6 L 321.3,281.4 L 326.3,281.2 L 331.3,281.0 L 336.2,281.0 L 341.2,280.8 L 346.2,280.8 L 351.2,280.8 L 356.2,280.2 L 361.2,280.2 L 366.2,280.2 L 371.1,279.8 L 376.1,279.2 L 381.1,279.2 L 386.1,279.0 L 391.1,278.8 L 396.1,278.8 L 401.1,278.8 L 406.0,278.4 L 411.0,278.4 L 416.0,277.3 L 421.0,277.1 L 426.0,276.9 L 431.0,276.9 L 436.0,276.7 L 440.9,276.7 L 445.9,276.7 L 450.9,276.7 L 455.9,276.7 L 460.9,276.7 L 465.9,276.3 L 470.9,276.1 L 475.8,275.1 L 480.8,275.3 L 485.8,275.3 L 490.8,275.1 L 495.8,275.1 L 500.8,275.1 L 505.8,274.7 L 510.7,274.7 L 515.7,274.7 L 520.7,274.7 L 525.7,274.7 L 530.7,274.7 L 535.7,274.5 L 540.7,274.5 L 545.6,273.7 L 550.6,273.7 L 555.6,273.5 L 560.6,273.3 L 565.6,273.1 L 570.6,272.9 L 575.6,272.5 L 580.5,272.5 L 585.5,272.0 L 590.5,272.0 L 595.5,271.8 L 600.5,271.6 L 605.5,271.6 L 610.5,271.6 L 615.4,271.6 L 620.4,271.6 L 625.4,271.6 L 630.4,271.0 L 635.4,271.0 L 640.4,270.6 L 645.4,270.2 L 650.3,269.6 L 655.3,269.4 L 660.3,269.4 L 665.3,268.4 L 670.3,268.2 L 675.3,268.2 L 680.3,267.6 L 685.2,267.6 L 690.2,267.4 L 695.2,267.4 L 700.2,267.6 L 705.2,267.8 L 710.2,267.6 L 715.2,267.2 L 720.1,267.4 L 725.1,267.2 L 730.1,267.0 L 735.1,267.0 L 740.1,267.0 L 745.1,267.0 L 750.1,266.6 L 755.0,266.6 L 760.0,266.6 L 765.0,265.9 L 770.0,265.9" fill="none" stroke="#34C759" stroke-width="2.5" stroke-linejoin="round" clip-path="url(#ca)"/>
<text x="99.4" y="55.0" text-anchor="middle" font-size="9" fill="#4F8EF7" opacity="0.85" clip-path="url(#ca)">+0.5% (+8)</text>
<text x="99.4" y="66.0" text-anchor="middle" font-size="9" fill="#BF5AF2" opacity="0.85" clip-path="url(#ca)">+1.0% (+10)</text>
<text x="99.4" y="77.0" text-anchor="middle" font-size="9" fill="#34C759" opacity="0.85" clip-path="url(#ca)">+1.5% (+11)</text>
<text x="194.1" y="55.0" text-anchor="middle" font-size="9" fill="#4F8EF7" opacity="0.85" clip-path="url(#ca)">+4.0% (+65)</text>
<text x="194.1" y="66.0" text-anchor="middle" font-size="9" fill="#BF5AF2" opacity="0.85" clip-path="url(#ca)">+3.5% (+35)</text>
<text x="194.1" y="77.0" text-anchor="middle" font-size="9" fill="#34C759" opacity="0.85" clip-path="url(#ca)">+3.6% (+27)</text>
<text x="326.3" y="55.0" text-anchor="middle" font-size="9" fill="#4F8EF7" opacity="0.85" clip-path="url(#ca)">+4.1% (+70)</text>
<text x="326.3" y="66.0" text-anchor="middle" font-size="9" fill="#BF5AF2" opacity="0.85" clip-path="url(#ca)">+3.5% (+36)</text>
<text x="326.3" y="77.0" text-anchor="middle" font-size="9" fill="#34C759" opacity="0.85" clip-path="url(#ca)">+3.3% (+26)</text>
<text x="460.9" y="55.0" text-anchor="middle" font-size="9" fill="#4F8EF7" opacity="0.85" clip-path="url(#ca)">+3.5% (+61)</text>
<text x="460.9" y="66.0" text-anchor="middle" font-size="9" fill="#BF5AF2" opacity="0.85" clip-path="url(#ca)">+2.7% (+29)</text>
<text x="460.9" y="77.0" text-anchor="middle" font-size="9" fill="#34C759" opacity="0.85" clip-path="url(#ca)">+2.6% (+21)</text>
<text x="595.5" y="55.0" text-anchor="middle" font-size="9" fill="#4F8EF7" opacity="0.85" clip-path="url(#ca)">+2.7% (+49)</text>
<text x="595.5" y="66.0" text-anchor="middle" font-size="9" fill="#BF5AF2" opacity="0.85" clip-path="url(#ca)">+3.0% (+33)</text>
<text x="595.5" y="77.0" text-anchor="middle" font-size="9" fill="#34C759" opacity="0.85" clip-path="url(#ca)">+3.2% (+27)</text>
<text x="717.6" y="55.0" text-anchor="middle" font-size="9" fill="#4F8EF7" opacity="0.85" clip-path="url(#ca)">+2.7% (+50)</text>
<text x="717.6" y="66.0" text-anchor="middle" font-size="9" fill="#BF5AF2" opacity="0.85" clip-path="url(#ca)">+1.9% (+22)</text>
<text x="717.6" y="77.0" text-anchor="middle" font-size="9" fill="#34C759" opacity="0.85" clip-path="url(#ca)">+1.5% (+13)</text>
<rect x="211" y="369" width="12" height="12" fill="#4F8EF7" rx="2"/>
<text x="227" y="379" font-size="12" fill="#111827">Authors</text>
<rect x="351" y="369" width="12" height="12" fill="#BF5AF2" rx="2"/>
<text x="367" y="379" font-size="12" fill="#111827">Contributors</text>
<rect x="491" y="369" width="12" height="12" fill="#34C759" rx="2"/>
<text x="507" y="379" font-size="12" fill="#111827">Non-author contributors</text>
<text x="72" y="394" font-size="8" fill="#e5e7eb">data since Dec 11, 2025</text>
</svg>