<svg xmlns="http://www.w3.org/2000/svg" width="800" height="400" viewBox="0 0 800 400">
<defs>
  <style>text { font-family: -apple-system, BlinkMacSystemFont, 'Segoe UI', Roboto, sans-serif; }</style>
  <linearGradient id="g1" x1="0" y1="0" x2="0" y2="1">
  <stop offset="0%" stop-color="#FF6363" stop-opacity="0.25"/>
  <stop offset="100%" stop-color="#FF6363" stop-opacity="0"/>
</linearGradient>
  <clipPath id="ca"><rect x="72" y="45" width="698" height="295"/></clipPath>
</defs>
<rect width="800" height="400" fill="#ffffff" rx="12"/>
<text x="400" y="26" text-anchor="middle" font-size="15" font-weight="600" fill="#111827">Packages Growth Over Time</text>
<line x1="72" y1="340.0" x2="770" y2="340.0" stroke="#f3f4f6" stroke-width="1"/>
<text x="66" y="344.0" text-anchor="end" font-size="11" fill="#6b7280">2.4k</text>
<line x1="72" y1="290.8" x2="770" y2="290.8" stroke="#f3f4f6" stroke-width="1"/>
<text x="66" y="294.8" text-anchor="end" font-size="11" fill="#6b7280">2.5k</text>
<line x1="72" y1="241.7" x2="770" y2="241.7" stroke="#f3f4f6" stroke-width="1"/>
<text x="66" y="245.7" text-anchor="end" font-size="11" fill="#6b7280">2.6k</text>
<line x1="72" y1="192.5" x2="770" y2="192.5" stroke="#f3f4f6" stroke-width="1"/>
<text x="66" y="196.5" text-anchor="end" font-size="11" fill="#6b7280">2.7k</text>
<line x1="72" y1="143.3" x2="770" y2="143.3" stroke="#f3f4f6" stroke-width="1"/>
<text x="66" y="147.3" text-anchor="end" font-size="11" fill="#6b7280">2.8k</text>
<line x1="72" y1="94.2" x2="770" y2="94.2" stroke="#f3f4f6" stroke-width="1"/>
<text x="66" y="98.2" text-anchor="end" font-size="11" fill="#6b7280">2.9k</text>
<line x1="72" y1="45.0" x2="770" y2="45.0" stroke="#f3f4f6" stroke-width="1"/>
<text x="66" y="49.0" text-anchor="end" font-size="11" fill="#6b7280">3.0k</text>
<line x1="127.8" y1="45" x2="127.8" y2="340" stroke="#e5e7eb" stroke-width="1" stroke-dasharray="3,3" clip-path="url(#ca)"/>
<line x1="248.8" y1="45" x2="248.8" y2="340" stroke="#e5e7eb" stroke-width="1" stroke-dasharray="3,3" clip-path="url(#ca)"/>
<line x1="374.5" y1="45" x2="374.5" y2="340" stroke="#e5e7eb" stroke-width="1" stroke-dasharray="3,3" clip-path="url(#ca)"/>
<line x1="500.1" y1="45" x2="500.1" y2="340" stroke="#e5e7eb" stroke-width="1" stroke-dasharray="3,3" clip-path="url(#ca)"/>
<line x1="625.7" y1="45" x2="625.7" y2="340" stroke="#e5e7eb" stroke-width="1" stroke-dasharray="3,3" clip-path="url(#ca)"/>
<line x1="746.7" y1="45" x2="746.7" y2="340" stroke="#e5e7eb" stroke-width="1" stroke-dasharray="3,3" clip-path="url(#ca)"/>
<text x="72.0" y="358.0" text-anchor="middle" font-size="11" fill="#6b7280">Dec 11</text>
<text x="211.6" y="358.0" text-anchor="middle" font-size="11" fill="#6b7280">Jan 24</text>
<text x="351.2" y="358.0" text-anchor="middle" font-size="11" fill="#6b7280">Feb 24</text>
<text x="490.8" y="358.0" text-anchor="middle" font-size="11" fill="#6b7280">Mar 28</text>
<text x="630.4" y="358.0" text-anchor="middle" font-size="11" fill="#6b7280">May 2</text>
<text x="770.0" y="358.0" text-anchor="middle" font-size="11" fill="#6b7280">Jun 8</text>
<line x1="72" y1="45" x2="72" y2="340" stroke="#e5e7eb" stroke-width="1"/>
<line x1="72" y1="340" x2="770" y2="340" stroke="#e5e7eb" stroke-width="1"/>
<text x="-192.5" y="18" text-anchor="middle" font-size="12" fill="#6b7280" transform="rotate(-90)">Extensions</text>
<path d="M 72.0,340 L 72.0,302.1 L 76.7,301.6 L 81.3,301.6 L 86.0,300.2 L 90.6,300.2 L 95.3,299.2 L 99.9,298.2 L 104.6,297.7 L 109.2,295.3 L 113.9,293.3 L 118.5,293.3 L 123.2,293.3 L 127.8,293.3 L 132.5,292.3 L 137.1,292.3 L 141.8,292.3 L 146.5,291.3 L 151.1,289.4 L 155.8,285.9 L 160.4,283.5 L 165.1,282.5 L 169.7,282.0 L 174.4,280.0 L 179.0,274.1 L 183.7,272.1 L 188.3,272.1 L 193.0,267.2 L 197.6,265.8 L 202.3,263.8 L 206.9,262.3 L 211.6,259.4 L 216.3,256.9 L 220.9,256.4 L 225.6,252.5 L 230.2,249.0 L 234.9,249.0 L 239.5,246.6 L 244.2,244.6 L 248.8,244.1 L 253.5,243.6 L 258.1,243.1 L 262.8,241.7 L 267.4,232.8 L 272.1,228.9 L 276.7,226.9 L 281.4,225.9 L 286.1,224.5 L 290.7,221.0 L 295.4,220.0 L 300.0,219.1 L 304.7,216.1 L 309.3,215.1 L 314.0,214.1 L 318.6,214.1 L 323.3,205.3 L 327.9,204.3 L 332.6,203.3 L 337.2,201.3 L 341.9,198.9 L 346.5,198.9 L 351.2,195.0 L 355.9,188.6 L 360.5,187.6 L 365.2,188.1 L 369.8,186.6 L 374.5,186.1 L 379.1,186.1 L 383.8,183.2 L 388.4,180.7 L 393.1,178.7 L 397.7,176.3 L 402.4,175.8 L 407.0,175.8 L 411.7,172.3 L 416.3,171.4 L 421.0,170.9 L 425.7,165.0 L 430.3,164.5 L 435.0,164.5 L 439.6,164.5 L 444.3,164.0 L 448.9,161.5 L 453.6,159.6 L 458.2,157.1 L 462.9,156.6 L 467.5,155.1 L 472.2,150.7 L 476.8,146.8 L 481.5,146.3 L 486.1,145.8 L 490.8,144.3 L 495.5,139.4 L 500.1,138.4 L 504.8,136.9 L 509.4,134.0 L 514.1,133.5 L 518.7,133.0 L 523.4,133.0 L 528.0,132.0 L 532.7,129.1 L 537.3,128.1 L 542.0,127.1 L 546.6,126.6 L 551.3,125.6 L 555.9,120.7 L 560.6,120.2 L 565.3,119.2 L 569.9,118.8 L 574.6,116.3 L 579.2,115.8 L 583.9,115.3 L 588.5,113.8 L 593.2,111.9 L 597.8,111.9 L 602.5,111.9 L 607.1,111.9 L 611.8,110.9 L 616.4,108.4 L 621.1,107.9 L 625.7,105.5 L 630.4,105.0 L 635.1,104.5 L 639.7,101.5 L 644.4,98.6 L 649.0,98.1 L 653.7,97.6 L 658.3,91.2 L 663.0,89.3 L 667.6,87.8 L 672.3,87.3 L 676.9,83.8 L 681.6,83.8 L 686.2,81.4 L 690.9,79.9 L 695.5,75.0 L 700.2,73.0 L 704.9,72.5 L 709.5,72.0 L 714.2,72.0 L 718.8,71.6 L 723.5,68.6 L 728.1,66.1 L 732.8,66.1 L 737.4,65.6 L 742.1,65.6 L 746.7,63.7 L 751.4,62.7 L 756.0,61.2 L 760.7,59.8 L 765.3,57.8 L 770.0,57.8 L 770.0,340 Z" fill="url(#g1)" clip-path="url(#ca)"/>
<path d="M 72.0,302.1 L 76.7,301.6 L 81.3,301.6 L 86.0,300.2 L 90.6,300.2 L 95.3,299.2 L 99.9,298.2 L 104.6,297.7 L 109.2,295.3 L 113.9,293.3 L 118.5,293.3 L 123.2,293.3 L 127.8,293.3 L 132.5,292.3 L 137.1,292.3 L 141.8,292.3 L 146.5,291.3 L 151.1,289.4 L 155.8,285.9 L 160.4,283.5 L 165.1,282.5 L 169.7,282.0 L 174.4,280.0 L 179.0,274.1 L 183.7,272.1 L 188.3,272.1 L 193.0,267.2 L 197.6,265.8 L 202.3,263.8 L 206.9,262.3 L 211.6,259.4 L 216.3,256.9 L 220.9,256.4 L 225.6,252.5 L 230.2,249.0 L 234.9,249.0 L 239.5,246.6 L 244.2,244.6 L 248.8,244.1 L 253.5,243.6 L 258.1,243.1 L 262.8,241.7 L 267.4,232.8 L 272.1,228.9 L 276.7,226.9 L 281.4,225.9 L 286.1,224.5 L 290.7,221.0 L 295.4,220.0 L 300.0,219.1 L 304.7,216.1 L 309.3,215.1 L 314.0,214.1 L 318.6,214.1 L 323.3,205.3 L 327.9,204.3 L 332.6,203.3 L 337.2,201.3 L 341.9,198.9 L 346.5,198.9 L 351.2,195.0 L 355.9,188.6 L 360.5,187.6 L 365.2,188.1 L 369.8,186.6 L 374.5,186.1 L 379.1,186.1 L 383.8,183.2 L 388.4,180.7 L 393.1,178.7 L 397.7,176.3 L 402.4,175.8 L 407.0,175.8 L 411.7,172.3 L 416.3,171.4 L 421.0,170.9 L 425.7,165.0 L 430.3,164.5 L 435.0,164.5 L 439.6,164.5 L 444.3,164.0 L 448.9,161.5 L 453.6,159.6 L 458.2,157.1 L 462.9,156.6 L 467.5,155.1 L 472.2,150.7 L 476.8,146.8 L 481.5,146.3 L 486.1,145.8 L 490.8,144.3 L 495.5,139.4 L 500.1,138.4 L 504.8,136.9 L 509.4,134.0 L 514.1,133.5 L 518.7,133.0 L 523.4,133.0 L 528.0,132.0 L 532.7,129.1 L 537.3,128.1 L 542.0,127.1 L 546.6,126.6 L 551.3,125.6 L 555.9,120.7 L 560.6,120.2 L 565.3,119.2 L 569.9,118.8 L 574.6,116.3 L 579.2,115.8 L 583.9,115.3 L 588.5,113.8 L 593.2,111.9 L 597.8,111.9 L 602.5,111.9 L 607.1,111.9 L 611.8,110.9 L 616.4,108.4 L 621.1,107.9 L 625.7,105.5 L 630.4,105.0 L 635.1,104.5 L 639.7,101.5 L 644.4,98.6 L 649.0,98.1 L 653.7,97.6 L 658.3,91.2 L 663.0,89.3 L 667.6,87.8 L 672.3,87.3 L 676.9,83.8 L 681.6,83.8 L 686.2,81.4 L 690.9,79.9 L 695.5,75.0 L 700.2,73.0 L 704.9,72.5 L 709.5,72.0 L 714.2,72.0 L 718.8,71.6 L 723.5,68.6 L 728.1,66.1 L 732.8,66.1 L 737.4,65.6 L 742.1,65.6 L 746.7,63.7 L 751.4,62.7 L 756.0,61.2 L 760.7,59.8 L 765.3,57.8 L 770.0,57.8" fill="none" stroke="#FF6363" stroke-width="2.5" stroke-linejoin="round" clip-path="url(#ca)"/>
<text x="97.6" y="55.0" text-anchor="middle" font-size="9" fill="#FF6363" opacity="0.85" clip-path="url(#ca)">+0.7% (+18)</text>
<text x="186.0" y="55.0" text-anchor="middle" font-size="9" fill="#FF6363" opacity="0.85" clip-path="url(#ca)">+4.0% (+99)</text>
<text x="309.3" y="55.0" text-anchor="middle" font-size="9" fill="#FF6363" opacity="0.85" clip-path="url(#ca)">+4.5% (+117)</text>
<text x="435.0" y="55.0" text-anchor="middle" font-size="9" fill="#FF6363" opacity="0.85" clip-path="url(#ca)">+3.5% (+95)</text>
<text x="560.6" y="55.0" text-anchor="middle" font-size="9" fill="#FF6363" opacity="0.85" clip-path="url(#ca)">+2.2% (+62)</text>
<text x="683.9" y="55.0" text-anchor="middle" font-size="9" fill="#FF6363" opacity="0.85" clip-path="url(#ca)">+2.8% (+81)</text>
<text x="758.4" y="55.0" text-anchor="middle" font-size="9" fill="#FF6363" opacity="0.85" clip-path="url(#ca)">+0.4% (+12)</text>
<rect x="351" y="369" width="12" height="12" fill="#FF6363" rx="2"/>
<text x="367" y="379" font-size="12" fill="#111827">Extensions</text>
<text x="72" y="394" font-size="8" fill="#e5e7eb">data since Dec 11, 2025</text>
</svg>