<svg xmlns="http://www.w3.org/2000/svg" width="800" height="400" viewBox="0 0 800 400">
<defs>
  <style>text { font-family: -apple-system, BlinkMacSystemFont, 'Segoe UI', Roboto, sans-serif; }</style>
  <linearGradient id="g1" x1="0" y1="0" x2="0" y2="1">
  <stop offset="0%" stop-color="#FF6363" stop-opacity="0.25"/>
  <stop offset="100%" stop-color="#FF6363" stop-opacity="0"/>
</linearGradient>
  <clipPath id="ca"><rect x="72" y="45" width="698" height="295"/></clipPath>
</defs>
<rect width="800" height="400" fill="#ffffff" rx="12"/>
<text x="400" y="26" text-anchor="middle" font-size="15" font-weight="600" fill="#111827">Packages Growth Over Time</text>
<line x1="72" y1="340.0" x2="770" y2="340.0" stroke="#f3f4f6" stroke-width="1"/>
<text x="66" y="344.0" text-anchor="end" font-size="11" fill="#6b7280">2.5k</text>
<line x1="72" y1="281.0" x2="770" y2="281.0" stroke="#f3f4f6" stroke-width="1"/>
<text x="66" y="285.0" text-anchor="end" font-size="11" fill="#6b7280">2.5k</text>
<line x1="72" y1="222.0" x2="770" y2="222.0" stroke="#f3f4f6" stroke-width="1"/>
<text x="66" y="226.0" text-anchor="end" font-size="11" fill="#6b7280">2.6k</text>
<line x1="72" y1="163.0" x2="770" y2="163.0" stroke="#f3f4f6" stroke-width="1"/>
<text x="66" y="167.0" text-anchor="end" font-size="11" fill="#6b7280">2.6k</text>
<line x1="72" y1="104.0" x2="770" y2="104.0" stroke="#f3f4f6" stroke-width="1"/>
<text x="66" y="108.0" text-anchor="end" font-size="11" fill="#6b7280">2.7k</text>
<line x1="72" y1="45.0" x2="770" y2="45.0" stroke="#f3f4f6" stroke-width="1"/>
<text x="66" y="49.0" text-anchor="end" font-size="11" fill="#6b7280">2.8k</text>
<line x1="186.7" y1="45" x2="186.7" y2="340" stroke="#e5e7eb" stroke-width="1" stroke-dasharray="3,3" clip-path="url(#ca)"/>
<line x1="435.3" y1="45" x2="435.3" y2="340" stroke="#e5e7eb" stroke-width="1" stroke-dasharray="3,3" clip-path="url(#ca)"/>
<line x1="693.5" y1="45" x2="693.5" y2="340" stroke="#e5e7eb" stroke-width="1" stroke-dasharray="3,3" clip-path="url(#ca)"/>
<text x="72.0" y="358.0" text-anchor="middle" font-size="11" fill="#6b7280">Dec 11</text>
<text x="215.4" y="358.0" text-anchor="middle" font-size="11" fill="#6b7280">Jan 6</text>
<text x="349.3" y="358.0" text-anchor="middle" font-size="11" fill="#6b7280">Jan 23</text>
<text x="492.7" y="358.0" text-anchor="middle" font-size="11" fill="#6b7280">Feb 7</text>
<text x="626.6" y="358.0" text-anchor="middle" font-size="11" fill="#6b7280">Feb 21</text>
<text x="770.0" y="358.0" text-anchor="middle" font-size="11" fill="#6b7280">Mar 10</text>
<line x1="72" y1="45" x2="72" y2="340" stroke="#e5e7eb" stroke-width="1"/>
<line x1="72" y1="340" x2="770" y2="340" stroke="#e5e7eb" stroke-width="1"/>
<text x="-192.5" y="18" text-anchor="middle" font-size="12" fill="#6b7280" transform="rotate(-90)">Extensions</text>
<path d="M 72.0,340 L 72.0,315.4 L 81.6,314.5 L 91.1,314.5 L 100.7,311.7 L 110.2,311.7 L 119.8,309.8 L 129.4,308.0 L 138.9,307.0 L 148.5,302.4 L 158.1,298.7 L 167.6,298.7 L 177.2,298.7 L 186.7,298.7 L 196.3,296.8 L 205.9,296.8 L 215.4,296.8 L 225.0,294.9 L 234.5,291.2 L 244.1,284.7 L 253.7,280.0 L 263.2,278.2 L 272.8,277.2 L 282.4,273.5 L 291.9,262.3 L 301.5,258.6 L 311.0,258.6 L 320.6,249.3 L 330.2,246.5 L 339.7,242.8 L 349.3,240.0 L 358.8,234.4 L 368.4,229.7 L 378.0,228.8 L 387.5,221.4 L 397.1,214.8 L 406.7,214.8 L 416.2,210.2 L 425.8,206.5 L 435.3,205.5 L 444.9,204.6 L 454.5,203.7 L 464.0,200.9 L 473.6,184.1 L 483.2,176.7 L 492.7,172.9 L 502.3,171.1 L 511.8,168.3 L 521.4,161.8 L 531.0,159.9 L 540.5,158.0 L 550.1,152.5 L 559.6,150.6 L 569.2,148.7 L 578.8,148.7 L 588.3,132.0 L 597.9,130.1 L 607.5,128.2 L 617.0,124.5 L 626.6,119.9 L 636.1,119.9 L 645.7,112.4 L 655.3,100.3 L 664.8,98.5 L 674.4,99.4 L 683.9,96.6 L 693.5,95.7 L 703.1,95.7 L 712.6,90.1 L 722.2,85.4 L 731.8,81.7 L 741.3,77.0 L 750.9,76.1 L 760.4,76.1 L 770.0,69.6 L 770.0,340 Z" fill="url(#g1)" clip-path="url(#ca)"/>
<path d="M 72.0,315.4 L 81.6,314.5 L 91.1,314.5 L 100.7,311.7 L 110.2,311.7 L 119.8,309.8 L 129.4,308.0 L 138.9,307.0 L 148.5,302.4 L 158.1,298.7 L 167.6,298.7 L 177.2,298.7 L 186.7,298.7 L 196.3,296.8 L 205.9,296.8 L 215.4,296.8 L 225.0,294.9 L 234.5,291.2 L 244.1,284.7 L 253.7,280.0 L 263.2,278.2 L 272.8,277.2 L 282.4,273.5 L 291.9,262.3 L 301.5,258.6 L 311.0,258.6 L 320.6,249.3 L 330.2,246.5 L 339.7,242.8 L 349.3,240.0 L 358.8,234.4 L 368.4,229.7 L 378.0,228.8 L 387.5,221.4 L 397.1,214.8 L 406.7,214.8 L 416.2,210.2 L 425.8,206.5 L 435.3,205.5 L 444.9,204.6 L 454.5,203.7 L 464.0,200.9 L 473.6,184.1 L 483.2,176.7 L 492.7,172.9 L 502.3,171.1 L 511.8,168.3 L 521.4,161.8 L 531.0,159.9 L 540.5,158.0 L 550.1,152.5 L 559.6,150.6 L 569.2,148.7 L 578.8,148.7 L 588.3,132.0 L 597.9,130.1 L 607.5,128.2 L 617.0,124.5 L 626.6,119.9 L 636.1,119.9 L 645.7,112.4 L 655.3,100.3 L 664.8,98.5 L 674.4,99.4 L 683.9,96.6 L 693.5,95.7 L 703.1,95.7 L 712.6,90.1 L 722.2,85.4 L 731.8,81.7 L 741.3,77.0 L 750.9,76.1 L 760.4,76.1 L 770.0,69.6" fill="none" stroke="#FF6363" stroke-width="2.5" stroke-linejoin="round" clip-path="url(#ca)"/>
<text x="124.6" y="55.0" text-anchor="middle" font-size="9" fill="#FF6363" opacity="0.85" clip-path="url(#ca)">+0.7%</text>
<text x="306.3" y="55.0" text-anchor="middle" font-size="9" fill="#FF6363" opacity="0.85" clip-path="url(#ca)">+4.0%</text>
<text x="559.6" y="55.0" text-anchor="middle" font-size="9" fill="#FF6363" opacity="0.85" clip-path="url(#ca)">+4.5%</text>
<text x="731.8" y="55.0" text-anchor="middle" font-size="9" fill="#FF6363" opacity="0.85" clip-path="url(#ca)">+1.0%</text>
<rect x="351" y="369" width="12" height="12" fill="#FF6363" rx="2"/>
<text x="367" y="379" font-size="12" fill="#111827">Extensions</text>
<text x="72" y="394" font-size="8" fill="#e5e7eb">data since Dec 11, 2025</text>
</svg>