<svg xmlns="http://www.w3.org/2000/svg" width="800" height="400" viewBox="0 0 800 400">
<defs>
  <style>text { font-family: -apple-system, BlinkMacSystemFont, 'Segoe UI', Roboto, sans-serif; }</style>
  <linearGradient id="g2" x1="0" y1="0" x2="0" y2="1">
  <stop offset="0%" stop-color="#4F8EF7" stop-opacity="0.25"/>
  <stop offset="100%" stop-color="#4F8EF7" stop-opacity="0"/>
</linearGradient>
<linearGradient id="g3" x1="0" y1="0" x2="0" y2="1">
  <stop offset="0%" stop-color="#BF5AF2" stop-opacity="0.25"/>
  <stop offset="100%" stop-color="#BF5AF2" stop-opacity="0"/>
</linearGradient>
<linearGradient id="g4" x1="0" y1="0" x2="0" y2="1">
  <stop offset="0%" stop-color="#34C759" stop-opacity="0.25"/>
  <stop offset="100%" stop-color="#34C759" stop-opacity="0"/>
</linearGradient>
  <clipPath id="ca"><rect x="72" y="45" width="698" height="295"/></clipPath>
</defs>
<rect width="800" height="400" fill="#ffffff" rx="12"/>
<text x="400" y="26" text-anchor="middle" font-size="15" font-weight="600" fill="#111827">Community Growth Over Time</text>
<line x1="72" y1="340.0" x2="770" y2="340.0" stroke="#f3f4f6" stroke-width="1"/>
<text x="66" y="344.0" text-anchor="end" font-size="11" fill="#6b7280">500</text>
<line x1="72" y1="266.3" x2="770" y2="266.3" stroke="#f3f4f6" stroke-width="1"/>
<text x="66" y="270.3" text-anchor="end" font-size="11" fill="#6b7280">1.0k</text>
<line x1="72" y1="192.5" x2="770" y2="192.5" stroke="#f3f4f6" stroke-width="1"/>
<text x="66" y="196.5" text-anchor="end" font-size="11" fill="#6b7280">1.5k</text>
<line x1="72" y1="118.8" x2="770" y2="118.8" stroke="#f3f4f6" stroke-width="1"/>
<text x="66" y="122.8" text-anchor="end" font-size="11" fill="#6b7280">2.0k</text>
<line x1="72" y1="45.0" x2="770" y2="45.0" stroke="#f3f4f6" stroke-width="1"/>
<text x="66" y="49.0" text-anchor="end" font-size="11" fill="#6b7280">2.5k</text>
<line x1="116.3" y1="45" x2="116.3" y2="340" stroke="#e5e7eb" stroke-width="1" stroke-dasharray="3,3" clip-path="url(#ca)"/>
<line x1="212.3" y1="45" x2="212.3" y2="340" stroke="#e5e7eb" stroke-width="1" stroke-dasharray="3,3" clip-path="url(#ca)"/>
<line x1="312.1" y1="45" x2="312.1" y2="340" stroke="#e5e7eb" stroke-width="1" stroke-dasharray="3,3" clip-path="url(#ca)"/>
<line x1="411.8" y1="45" x2="411.8" y2="340" stroke="#e5e7eb" stroke-width="1" stroke-dasharray="3,3" clip-path="url(#ca)"/>
<line x1="511.5" y1="45" x2="511.5" y2="340" stroke="#e5e7eb" stroke-width="1" stroke-dasharray="3,3" clip-path="url(#ca)"/>
<line x1="607.5" y1="45" x2="607.5" y2="340" stroke="#e5e7eb" stroke-width="1" stroke-dasharray="3,3" clip-path="url(#ca)"/>
<line x1="696.1" y1="45" x2="696.1" y2="340" stroke="#e5e7eb" stroke-width="1" stroke-dasharray="3,3" clip-path="url(#ca)"/>
<text x="72.0" y="358.0" text-anchor="middle" font-size="11" fill="#6b7280">Dec 11</text>
<text x="212.3" y="358.0" text-anchor="middle" font-size="11" fill="#6b7280">Feb 1</text>
<text x="352.7" y="358.0" text-anchor="middle" font-size="11" fill="#6b7280">Mar 13</text>
<text x="489.3" y="358.0" text-anchor="middle" font-size="11" fill="#6b7280">Apr 24</text>
<text x="629.7" y="358.0" text-anchor="middle" font-size="11" fill="#6b7280">Jun 9</text>
<text x="770.0" y="358.0" text-anchor="middle" font-size="11" fill="#6b7280">Jul 24</text>
<line x1="72" y1="45" x2="72" y2="340" stroke="#e5e7eb" stroke-width="1"/>
<line x1="72" y1="340" x2="770" y2="340" stroke="#e5e7eb" stroke-width="1"/>
<text x="-192.5" y="18" text-anchor="middle" font-size="12" fill="#6b7280" transform="rotate(-90)">People</text>
<path d="M 72.0,340 L 72.0,175.1 L 75.7,175.1 L 79.4,175.1 L 83.1,174.7 L 86.8,174.7 L 90.5,174.4 L 94.2,174.2 L 97.9,174.4 L 101.5,173.9 L 105.2,173.9 L 108.9,173.9 L 112.6,173.9 L 116.3,173.9 L 120.0,173.9 L 123.7,173.9 L 127.4,173.9 L 131.1,173.8 L 134.8,173.3 L 138.5,172.4 L 142.2,172.0 L 145.9,171.9 L 149.6,171.9 L 153.2,171.4 L 156.9,170.4 L 160.6,169.8 L 164.3,169.8 L 168.0,169.0 L 171.7,168.8 L 175.4,168.2 L 179.1,167.7 L 182.8,167.3 L 186.5,166.8 L 190.2,166.8 L 193.9,165.8 L 197.6,165.2 L 201.3,165.2 L 205.0,164.6 L 208.6,164.3 L 212.3,164.2 L 216.0,164.0 L 219.7,164.0 L 223.4,163.6 L 227.1,161.8 L 230.8,160.8 L 234.5,160.2 L 238.2,160.1 L 241.9,159.8 L 245.6,159.2 L 249.3,158.9 L 253.0,158.6 L 256.7,158.3 L 260.3,158.0 L 264.0,157.7 L 267.7,157.7 L 271.4,156.2 L 275.1,156.2 L 278.8,156.1 L 282.5,155.9 L 286.2,155.6 L 289.9,155.6 L 293.6,154.9 L 297.3,154.0 L 301.0,153.7 L 304.7,154.0 L 308.4,153.9 L 312.1,153.7 L 315.7,153.7 L 319.4,153.4 L 323.1,152.8 L 326.8,152.5 L 330.5,152.2 L 334.2,152.1 L 337.9,152.1 L 341.6,151.5 L 345.3,151.2 L 349.0,151.2 L 352.7,150.0 L 356.4,150.0 L 360.1,150.0 L 363.8,150.0 L 367.4,149.9 L 371.1,149.4 L 374.8,148.8 L 378.5,148.5 L 382.2,148.5 L 385.9,148.3 L 389.6,147.1 L 393.3,146.3 L 397.0,146.2 L 400.7,146.0 L 404.4,145.6 L 408.1,144.7 L 411.8,144.4 L 415.5,144.1 L 419.2,143.2 L 422.8,143.1 L 426.5,143.1 L 430.2,143.1 L 433.9,142.9 L 437.6,142.1 L 441.3,141.9 L 445.0,141.8 L 448.7,141.8 L 452.4,141.5 L 456.1,140.3 L 459.8,140.1 L 463.5,140.0 L 467.2,140.0 L 470.9,139.4 L 474.6,139.3 L 478.2,139.1 L 481.9,138.7 L 485.6,138.1 L 489.3,138.1 L 493.0,138.1 L 496.7,138.1 L 500.4,137.8 L 504.1,137.3 L 507.8,137.2 L 511.5,136.7 L 515.2,136.6 L 518.9,136.5 L 522.6,135.9 L 526.3,135.4 L 529.9,135.3 L 533.6,135.3 L 537.3,133.9 L 541.0,133.5 L 544.7,133.4 L 548.4,133.4 L 552.1,132.6 L 555.8,132.6 L 559.5,132.2 L 563.2,131.7 L 566.9,130.7 L 570.6,130.6 L 574.3,130.4 L 578.0,130.3 L 581.7,130.3 L 585.3,130.1 L 589.0,129.4 L 592.7,128.9 L 596.4,128.9 L 600.1,128.8 L 603.8,128.8 L 607.5,128.3 L 611.2,128.2 L 614.9,128.0 L 618.6,127.6 L 622.3,127.0 L 626.0,127.0 L 629.7,126.9 L 633.4,126.7 L 637.0,126.0 L 640.7,124.9 L 644.4,124.8 L 648.1,124.5 L 651.8,124.2 L 655.5,124.1 L 659.2,123.6 L 662.9,123.0 L 666.6,122.9 L 670.3,122.4 L 674.0,122.1 L 677.7,121.4 L 681.4,121.3 L 685.1,121.0 L 688.8,121.0 L 692.4,120.7 L 696.1,120.4 L 699.8,120.1 L 703.5,119.9 L 707.2,119.6 L 710.9,119.6 L 714.6,119.3 L 718.3,119.2 L 722.0,119.2 L 725.7,118.3 L 729.4,117.9 L 733.1,117.9 L 736.8,117.9 L 740.5,117.4 L 744.1,116.5 L 747.8,116.2 L 751.5,115.9 L 755.2,115.7 L 758.9,115.7 L 762.6,115.2 L 766.3,114.2 L 770.0,113.3 L 770.0,340 Z" fill="url(#g2)" clip-path="url(#ca)"/>
<path d="M 72.0,175.1 L 75.7,175.1 L 79.4,175.1 L 83.1,174.7 L 86.8,174.7 L 90.5,174.4 L 94.2,174.2 L 97.9,174.4 L 101.5,173.9 L 105.2,173.9 L 108.9,173.9 L 112.6,173.9 L 116.3,173.9 L 120.0,173.9 L 123.7,173.9 L 127.4,173.9 L 131.1,173.8 L 134.8,173.3 L 138.5,172.4 L 142.2,172.0 L 145.9,171.9 L 149.6,171.9 L 153.2,171.4 L 156.9,170.4 L 160.6,169.8 L 164.3,169.8 L 168.0,169.0 L 171.7,168.8 L 175.4,168.2 L 179.1,167.7 L 182.8,167.3 L 186.5,166.8 L 190.2,166.8 L 193.9,165.8 L 197.6,165.2 L 201.3,165.2 L 205.0,164.6 L 208.6,164.3 L 212.3,164.2 L 216.0,164.0 L 219.7,164.0 L 223.4,163.6 L 227.1,161.8 L 230.8,160.8 L 234.5,160.2 L 238.2,160.1 L 241.9,159.8 L 245.6,159.2 L 249.3,158.9 L 253.0,158.6 L 256.7,158.3 L 260.3,158.0 L 264.0,157.7 L 267.7,157.7 L 271.4,156.2 L 275.1,156.2 L 278.8,156.1 L 282.5,155.9 L 286.2,155.6 L 289.9,155.6 L 293.6,154.9 L 297.3,154.0 L 301.0,153.7 L 304.7,154.0 L 308.4,153.9 L 312.1,153.7 L 315.7,153.7 L 319.4,153.4 L 323.1,152.8 L 326.8,152.5 L 330.5,152.2 L 334.2,152.1 L 337.9,152.1 L 341.6,151.5 L 345.3,151.2 L 349.0,151.2 L 352.7,150.0 L 356.4,150.0 L 360.1,150.0 L 363.8,150.0 L 367.4,149.9 L 371.1,149.4 L 374.8,148.8 L 378.5,148.5 L 382.2,148.5 L 385.9,148.3 L 389.6,147.1 L 393.3,146.3 L 397.0,146.2 L 400.7,146.0 L 404.4,145.6 L 408.1,144.7 L 411.8,144.4 L 415.5,144.1 L 419.2,143.2 L 422.8,143.1 L 426.5,143.1 L 430.2,143.1 L 433.9,142.9 L 437.6,142.1 L 441.3,141.9 L 445.0,141.8 L 448.7,141.8 L 452.4,141.5 L 456.1,140.3 L 459.8,140.1 L 463.5,140.0 L 467.2,140.0 L 470.9,139.4 L 474.6,139.3 L 478.2,139.1 L 481.9,138.7 L 485.6,138.1 L 489.3,138.1 L 493.0,138.1 L 496.7,138.1 L 500.4,137.8 L 504.1,137.3 L 507.8,137.2 L 511.5,136.7 L 515.2,136.6 L 518.9,136.5 L 522.6,135.9 L 526.3,135.4 L 529.9,135.3 L 533.6,135.3 L 537.3,133.9 L 541.0,133.5 L 544.7,133.4 L 548.4,133.4 L 552.1,132.6 L 555.8,132.6 L 559.5,132.2 L 563.2,131.7 L 566.9,130.7 L 570.6,130.6 L 574.3,130.4 L 578.0,130.3 L 581.7,130.3 L 585.3,130.1 L 589.0,129.4 L 592.7,128.9 L 596.4,128.9 L 600.1,128.8 L 603.8,128.8 L 607.5,128.3 L 611.2,128.2 L 614.9,128.0 L 618.6,127.6 L 622.3,127.0 L 626.0,127.0 L 629.7,126.9 L 633.4,126.7 L 637.0,126.0 L 640.7,124.9 L 644.4,124.8 L 648.1,124.5 L 651.8,124.2 L 655.5,124.1 L 659.2,123.6 L 662.9,123.0 L 666.6,122.9 L 670.3,122.4 L 674.0,122.1 L 677.7,121.4 L 681.4,121.3 L 685.1,121.0 L 688.8,121.0 L 692.4,120.7 L 696.1,120.4 L 699.8,120.1 L 703.5,119.9 L 707.2,119.6 L 710.9,119.6 L 714.6,119.3 L 718.3,119.2 L 722.0,119.2 L 725.7,118.3 L 729.4,117.9 L 733.1,117.9 L 736.8,117.9 L 740.5,117.4 L 744.1,116.5 L 747.8,116.2 L 751.5,115.9 L 755.2,115.7 L 758.9,115.7 L 762.6,115.2 L 766.3,114.2 L 770.0,113.3" fill="none" stroke="#4F8EF7" stroke-width="2.5" stroke-linejoin="round" clip-path="url(#ca)"/>
<path d="M 72.0,340 L 72.0,268.2 L 75.7,267.7 L 79.4,267.7 L 83.1,267.7 L 86.8,267.6 L 90.5,267.3 L 94.2,267.1 L 97.9,267.0 L 101.5,267.0 L 105.2,266.8 L 108.9,266.7 L 112.6,266.7 L 116.3,266.7 L 120.0,266.7 L 123.7,266.7 L 127.4,266.7 L 131.1,266.4 L 134.8,266.4 L 138.5,266.4 L 142.2,265.8 L 145.9,265.7 L 149.6,265.4 L 153.2,264.8 L 156.9,264.6 L 160.6,264.6 L 164.3,264.6 L 168.0,264.2 L 171.7,263.9 L 175.4,263.9 L 179.1,263.6 L 182.8,263.4 L 186.5,263.2 L 190.2,263.2 L 193.9,263.0 L 197.6,262.4 L 201.3,262.0 L 205.0,261.7 L 208.6,261.5 L 212.3,261.5 L 216.0,261.4 L 219.7,261.1 L 223.4,261.1 L 227.1,260.9 L 230.8,260.5 L 234.5,260.2 L 238.2,260.2 L 241.9,260.2 L 245.6,260.2 L 249.3,260.1 L 253.0,259.6 L 256.7,259.3 L 260.3,259.2 L 264.0,259.0 L 267.7,258.9 L 271.4,258.7 L 275.1,258.6 L 278.8,258.4 L 282.5,258.0 L 286.2,257.8 L 289.9,257.7 L 293.6,257.1 L 297.3,256.5 L 301.0,256.5 L 304.7,256.4 L 308.4,256.2 L 312.1,256.2 L 315.7,256.2 L 319.4,255.9 L 323.1,255.9 L 326.8,255.0 L 330.5,254.9 L 334.2,254.7 L 337.9,254.7 L 341.6,254.4 L 345.3,254.3 L 349.0,254.3 L 352.7,254.2 L 356.4,254.2 L 360.1,254.2 L 363.8,253.9 L 367.4,253.7 L 371.1,253.0 L 374.8,253.1 L 378.5,253.0 L 382.2,252.8 L 385.9,252.8 L 389.6,252.7 L 393.3,252.2 L 397.0,252.2 L 400.7,252.2 L 404.4,252.2 L 408.1,251.9 L 411.8,251.9 L 415.5,251.6 L 419.2,251.4 L 422.8,250.8 L 426.5,250.8 L 430.2,250.5 L 433.9,250.3 L 437.6,250.2 L 441.3,250.0 L 445.0,249.7 L 448.7,249.7 L 452.4,249.3 L 456.1,249.3 L 459.8,249.1 L 463.5,248.8 L 467.2,248.7 L 470.9,248.7 L 474.6,248.7 L 478.2,248.7 L 481.9,248.7 L 485.6,248.3 L 489.3,248.3 L 493.0,248.0 L 496.7,247.7 L 500.4,247.2 L 504.1,247.1 L 507.8,247.1 L 511.5,246.2 L 515.2,246.0 L 518.9,246.0 L 522.6,245.5 L 526.3,245.5 L 529.9,245.2 L 533.6,245.2 L 537.3,245.0 L 541.0,245.0 L 544.7,244.9 L 548.4,244.6 L 552.1,244.6 L 555.8,244.4 L 559.5,244.3 L 563.2,244.1 L 566.9,244.0 L 570.6,244.0 L 574.3,243.7 L 578.0,243.7 L 581.7,243.7 L 585.3,242.9 L 589.0,242.9 L 592.7,242.9 L 596.4,242.9 L 600.1,242.9 L 603.8,242.9 L 607.5,242.6 L 611.2,242.6 L 614.9,242.4 L 618.6,241.8 L 622.3,241.5 L 626.0,241.3 L 629.7,241.3 L 633.4,241.2 L 637.0,240.7 L 640.7,240.6 L 644.4,240.6 L 648.1,240.3 L 651.8,239.8 L 655.5,239.6 L 659.2,239.6 L 662.9,239.4 L 666.6,239.4 L 670.3,239.0 L 674.0,238.8 L 677.7,238.8 L 681.4,238.5 L 685.1,238.5 L 688.8,238.2 L 692.4,237.8 L 696.1,237.8 L 699.8,237.6 L 703.5,237.5 L 707.2,237.3 L 710.9,237.3 L 714.6,237.2 L 718.3,237.2 L 722.0,236.9 L 725.7,236.3 L 729.4,236.2 L 733.1,236.2 L 736.8,235.0 L 740.5,235.0 L 744.1,234.5 L 747.8,234.5 L 751.5,234.5 L 755.2,234.5 L 758.9,234.5 L 762.6,234.5 L 766.3,234.2 L 770.0,234.1 L 770.0,340 Z" fill="url(#g3)" clip-path="url(#ca)"/>
<path d="M 72.0,268.2 L 75.7,267.7 L 79.4,267.7 L 83.1,267.7 L 86.8,267.6 L 90.5,267.3 L 94.2,267.1 L 97.9,267.0 L 101.5,267.0 L 105.2,266.8 L 108.9,266.7 L 112.6,266.7 L 116.3,266.7 L 120.0,266.7 L 123.7,266.7 L 127.4,266.7 L 131.1,266.4 L 134.8,266.4 L 138.5,266.4 L 142.2,265.8 L 145.9,265.7 L 149.6,265.4 L 153.2,264.8 L 156.9,264.6 L 160.6,264.6 L 164.3,264.6 L 168.0,264.2 L 171.7,263.9 L 175.4,263.9 L 179.1,263.6 L 182.8,263.4 L 186.5,263.2 L 190.2,263.2 L 193.9,263.0 L 197.6,262.4 L 201.3,262.0 L 205.0,261.7 L 208.6,261.5 L 212.3,261.5 L 216.0,261.4 L 219.7,261.1 L 223.4,261.1 L 227.1,260.9 L 230.8,260.5 L 234.5,260.2 L 238.2,260.2 L 241.9,260.2 L 245.6,260.2 L 249.3,260.1 L 253.0,259.6 L 256.7,259.3 L 260.3,259.2 L 264.0,259.0 L 267.7,258.9 L 271.4,258.7 L 275.1,258.6 L 278.8,258.4 L 282.5,258.0 L 286.2,257.8 L 289.9,257.7 L 293.6,257.1 L 297.3,256.5 L 301.0,256.5 L 304.7,256.4 L 308.4,256.2 L 312.1,256.2 L 315.7,256.2 L 319.4,255.9 L 323.1,255.9 L 326.8,255.0 L 330.5,254.9 L 334.2,254.7 L 337.9,254.7 L 341.6,254.4 L 345.3,254.3 L 349.0,254.3 L 352.7,254.2 L 356.4,254.2 L 360.1,254.2 L 363.8,253.9 L 367.4,253.7 L 371.1,253.0 L 374.8,253.1 L 378.5,253.0 L 382.2,252.8 L 385.9,252.8 L 389.6,252.7 L 393.3,252.2 L 397.0,252.2 L 400.7,252.2 L 404.4,252.2 L 408.1,251.9 L 411.8,251.9 L 415.5,251.6 L 419.2,251.4 L 422.8,250.8 L 426.5,250.8 L 430.2,250.5 L 433.9,250.3 L 437.6,250.2 L 441.3,250.0 L 445.0,249.7 L 448.7,249.7 L 452.4,249.3 L 456.1,249.3 L 459.8,249.1 L 463.5,248.8 L 467.2,248.7 L 470.9,248.7 L 474.6,248.7 L 478.2,248.7 L 481.9,248.7 L 485.6,248.3 L 489.3,248.3 L 493.0,248.0 L 496.7,247.7 L 500.4,247.2 L 504.1,247.1 L 507.8,247.1 L 511.5,246.2 L 515.2,246.0 L 518.9,246.0 L 522.6,245.5 L 526.3,245.5 L 529.9,245.2 L 533.6,245.2 L 537.3,245.0 L 541.0,245.0 L 544.7,244.9 L 548.4,244.6 L 552.1,244.6 L 555.8,244.4 L 559.5,244.3 L 563.2,244.1 L 566.9,244.0 L 570.6,244.0 L 574.3,243.7 L 578.0,243.7 L 581.7,243.7 L 585.3,242.9 L 589.0,242.9 L 592.7,242.9 L 596.4,242.9 L 600.1,242.9 L 603.8,242.9 L 607.5,242.6 L 611.2,242.6 L 614.9,242.4 L 618.6,241.8 L 622.3,241.5 L 626.0,241.3 L 629.7,241.3 L 633.4,241.2 L 637.0,240.7 L 640.7,240.6 L 644.4,240.6 L 648.1,240.3 L 651.8,239.8 L 655.5,239.6 L 659.2,239.6 L 662.9,239.4 L 666.6,239.4 L 670.3,239.0 L 674.0,238.8 L 677.7,238.8 L 681.4,238.5 L 685.1,238.5 L 688.8,238.2 L 692.4,237.8 L 696.1,237.8 L 699.8,237.6 L 703.5,237.5 L 707.2,237.3 L 710.9,237.3 L 714.6,237.2 L 718.3,237.2 L 722.0,236.9 L 725.7,236.3 L 729.4,236.2 L 733.1,236.2 L 736.8,235.0 L 740.5,235.0 L 744.1,234.5 L 747.8,234.5 L 751.5,234.5 L 755.2,234.5 L 758.9,234.5 L 762.6,234.5 L 766.3,234.2 L 770.0,234.1" fill="none" stroke="#BF5AF2" stroke-width="2.5" stroke-linejoin="round" clip-path="url(#ca)"/>
<path d="M 72.0,340 L 72.0,303.6 L 75.7,303.1 L 79.4,303.1 L 83.1,303.1 L 86.8,303.0 L 90.5,302.7 L 94.2,302.5 L 97.9,302.2 L 101.5,302.2 L 105.2,302.1 L 108.9,301.9 L 112.6,301.9 L 116.3,301.9 L 120.0,301.9 L 123.7,301.9 L 127.4,301.9 L 131.1,301.6 L 134.8,301.6 L 138.5,301.8 L 142.2,301.4 L 145.9,301.5 L 149.6,301.1 L 153.2,300.6 L 156.9,300.5 L 160.6,300.6 L 164.3,300.6 L 168.0,300.2 L 171.7,300.0 L 175.4,300.0 L 179.1,299.7 L 182.8,299.6 L 186.5,299.3 L 190.2,299.3 L 193.9,299.1 L 197.6,298.7 L 201.3,298.3 L 205.0,298.0 L 208.6,298.0 L 212.3,298.0 L 216.0,297.8 L 219.7,297.5 L 223.4,297.5 L 227.1,297.4 L 230.8,296.9 L 234.5,296.8 L 238.2,296.8 L 241.9,296.8 L 245.6,296.8 L 249.3,296.6 L 253.0,296.2 L 256.7,296.0 L 260.3,295.9 L 264.0,295.8 L 267.7,295.8 L 271.4,295.6 L 275.1,295.6 L 278.8,295.6 L 282.5,295.2 L 286.2,295.2 L 289.9,295.2 L 293.6,294.9 L 297.3,294.4 L 301.0,294.4 L 304.7,294.3 L 308.4,294.1 L 312.1,294.1 L 315.7,294.1 L 319.4,293.8 L 323.1,293.8 L 326.8,292.9 L 330.5,292.8 L 334.2,292.7 L 337.9,292.7 L 341.6,292.5 L 345.3,292.5 L 349.0,292.5 L 352.7,292.5 L 356.4,292.5 L 360.1,292.5 L 363.8,292.2 L 367.4,292.1 L 371.1,291.3 L 374.8,291.5 L 378.5,291.5 L 382.2,291.3 L 385.9,291.3 L 389.6,291.3 L 393.3,291.0 L 397.0,291.0 L 400.7,291.0 L 404.4,291.0 L 408.1,291.0 L 411.8,291.0 L 415.5,290.9 L 419.2,290.9 L 422.8,290.3 L 426.5,290.3 L 430.2,290.1 L 433.9,290.0 L 437.6,289.9 L 441.3,289.7 L 445.0,289.4 L 448.7,289.4 L 452.4,289.0 L 456.1,289.0 L 459.8,288.8 L 463.5,288.7 L 467.2,288.7 L 470.9,288.7 L 474.6,288.7 L 478.2,288.7 L 481.9,288.7 L 485.6,288.2 L 489.3,288.2 L 493.0,287.9 L 496.7,287.6 L 500.4,287.2 L 504.1,287.0 L 507.8,287.0 L 511.5,286.3 L 515.2,286.2 L 518.9,286.2 L 522.6,285.7 L 526.3,285.7 L 529.9,285.6 L 533.6,285.6 L 537.3,285.7 L 541.0,285.9 L 544.7,285.7 L 548.4,285.4 L 552.1,285.6 L 555.8,285.4 L 559.5,285.3 L 563.2,285.3 L 566.9,285.3 L 570.6,285.3 L 574.3,285.0 L 578.0,285.0 L 581.7,285.0 L 585.3,284.4 L 589.0,284.4 L 592.7,284.4 L 596.4,284.4 L 600.1,284.4 L 603.8,284.4 L 607.5,284.1 L 611.2,284.1 L 614.9,283.8 L 618.6,283.2 L 622.3,283.1 L 626.0,283.1 L 629.7,283.1 L 633.4,283.1 L 637.0,282.8 L 640.7,282.6 L 644.4,282.6 L 648.1,282.5 L 651.8,282.0 L 655.5,281.7 L 659.2,281.7 L 662.9,281.6 L 666.6,281.6 L 670.3,281.4 L 674.0,281.3 L 677.7,281.3 L 681.4,281.1 L 685.1,281.1 L 688.8,280.9 L 692.4,280.4 L 696.1,280.4 L 699.8,280.3 L 703.5,280.4 L 707.2,280.3 L 710.9,280.3 L 714.6,280.1 L 718.3,280.1 L 722.0,280.0 L 725.7,279.5 L 729.4,279.5 L 733.1,279.5 L 736.8,278.6 L 740.5,278.8 L 744.1,278.3 L 747.8,278.3 L 751.5,278.3 L 755.2,278.3 L 758.9,278.3 L 762.6,278.5 L 766.3,278.2 L 770.0,278.1 L 770.0,340 Z" fill="url(#g4)" clip-path="url(#ca)"/>
<path d="M 72.0,303.6 L 75.7,303.1 L 79.4,303.1 L 83.1,303.1 L 86.8,303.0 L 90.5,302.7 L 94.2,302.5 L 97.9,302.2 L 101.5,302.2 L 105.2,302.1 L 108.9,301.9 L 112.6,301.9 L 116.3,301.9 L 120.0,301.9 L 123.7,301.9 L 127.4,301.9 L 131.1,301.6 L 134.8,301.6 L 138.5,301.8 L 142.2,301.4 L 145.9,301.5 L 149.6,301.1 L 153.2,300.6 L 156.9,300.5 L 160.6,300.6 L 164.3,300.6 L 168.0,300.2 L 171.7,300.0 L 175.4,300.0 L 179.1,299.7 L 182.8,299.6 L 186.5,299.3 L 190.2,299.3 L 193.9,299.1 L 197.6,298.7 L 201.3,298.3 L 205.0,298.0 L 208.6,298.0 L 212.3,298.0 L 216.0,297.8 L 219.7,297.5 L 223.4,297.5 L 227.1,297.4 L 230.8,296.9 L 234.5,296.8 L 238.2,296.8 L 241.9,296.8 L 245.6,296.8 L 249.3,296.6 L 253.0,296.2 L 256.7,296.0 L 260.3,295.9 L 264.0,295.8 L 267.7,295.8 L 271.4,295.6 L 275.1,295.6 L 278.8,295.6 L 282.5,295.2 L 286.2,295.2 L 289.9,295.2 L 293.6,294.9 L 297.3,294.4 L 301.0,294.4 L 304.7,294.3 L 308.4,294.1 L 312.1,294.1 L 315.7,294.1 L 319.4,293.8 L 323.1,293.8 L 326.8,292.9 L 330.5,292.8 L 334.2,292.7 L 337.9,292.7 L 341.6,292.5 L 345.3,292.5 L 349.0,292.5 L 352.7,292.5 L 356.4,292.5 L 360.1,292.5 L 363.8,292.2 L 367.4,292.1 L 371.1,291.3 L 374.8,291.5 L 378.5,291.5 L 382.2,291.3 L 385.9,291.3 L 389.6,291.3 L 393.3,291.0 L 397.0,291.0 L 400.7,291.0 L 404.4,291.0 L 408.1,291.0 L 411.8,291.0 L 415.5,290.9 L 419.2,290.9 L 422.8,290.3 L 426.5,290.3 L 430.2,290.1 L 433.9,290.0 L 437.6,289.9 L 441.3,289.7 L 445.0,289.4 L 448.7,289.4 L 452.4,289.0 L 456.1,289.0 L 459.8,288.8 L 463.5,288.7 L 467.2,288.7 L 470.9,288.7 L 474.6,288.7 L 478.2,288.7 L 481.9,288.7 L 485.6,288.2 L 489.3,288.2 L 493.0,287.9 L 496.7,287.6 L 500.4,287.2 L 504.1,287.0 L 507.8,287.0 L 511.5,286.3 L 515.2,286.2 L 518.9,286.2 L 522.6,285.7 L 526.3,285.7 L 529.9,285.6 L 533.6,285.6 L 537.3,285.7 L 541.0,285.9 L 544.7,285.7 L 548.4,285.4 L 552.1,285.6 L 555.8,285.4 L 559.5,285.3 L 563.2,285.3 L 566.9,285.3 L 570.6,285.3 L 574.3,285.0 L 578.0,285.0 L 581.7,285.0 L 585.3,284.4 L 589.0,284.4 L 592.7,284.4 L 596.4,284.4 L 600.1,284.4 L 603.8,284.4 L 607.5,284.1 L 611.2,284.1 L 614.9,283.8 L 618.6,283.2 L 622.3,283.1 L 626.0,283.1 L 629.7,283.1 L 633.4,283.1 L 637.0,282.8 L 640.7,282.6 L 644.4,282.6 L 648.1,282.5 L 651.8,282.0 L 655.5,281.7 L 659.2,281.7 L 662.9,281.6 L 666.6,281.6 L 670.3,281.4 L 674.0,281.3 L 677.7,281.3 L 681.4,281.1 L 685.1,281.1 L 688.8,280.9 L 692.4,280.4 L 696.1,280.4 L 699.8,280.3 L 703.5,280.4 L 707.2,280.3 L 710.9,280.3 L 714.6,280.1 L 718.3,280.1 L 722.0,280.0 L 725.7,279.5 L 729.4,279.5 L 733.1,279.5 L 736.8,278.6 L 740.5,278.8 L 744.1,278.3 L 747.8,278.3 L 751.5,278.3 L 755.2,278.3 L 758.9,278.3 L 762.6,278.5 L 766.3,278.2 L 770.0,278.1" fill="none" stroke="#34C759" stroke-width="2.5" stroke-linejoin="round" clip-path="url(#ca)"/>
<text x="92.3" y="55.0" text-anchor="middle" font-size="9" fill="#4F8EF7" opacity="0.85" clip-path="url(#ca)">+0.5% (+8)</text>
<text x="92.3" y="66.0" text-anchor="middle" font-size="9" fill="#BF5AF2" opacity="0.85" clip-path="url(#ca)">+1.0% (+10)</text>
<text x="92.3" y="77.0" text-anchor="middle" font-size="9" fill="#34C759" opacity="0.85" clip-path="url(#ca)">+1.5% (+11)</text>
<text x="162.5" y="55.0" text-anchor="middle" font-size="9" fill="#4F8EF7" opacity="0.85" clip-path="url(#ca)">+4.0% (+65)</text>
<text x="162.5" y="66.0" text-anchor="middle" font-size="9" fill="#BF5AF2" opacity="0.85" clip-path="url(#ca)">+3.5% (+35)</text>
<text x="162.5" y="77.0" text-anchor="middle" font-size="9" fill="#34C759" opacity="0.85" clip-path="url(#ca)">+3.6% (+27)</text>
<text x="260.3" y="55.0" text-anchor="middle" font-size="9" fill="#4F8EF7" opacity="0.85" clip-path="url(#ca)">+4.1% (+70)</text>
<text x="260.3" y="66.0" text-anchor="middle" font-size="9" fill="#BF5AF2" opacity="0.85" clip-path="url(#ca)">+3.5% (+36)</text>
<text x="260.3" y="77.0" text-anchor="middle" font-size="9" fill="#34C759" opacity="0.85" clip-path="url(#ca)">+3.3% (+26)</text>
<text x="360.1" y="55.0" text-anchor="middle" font-size="9" fill="#4F8EF7" opacity="0.85" clip-path="url(#ca)">+3.5% (+61)</text>
<text x="360.1" y="66.0" text-anchor="middle" font-size="9" fill="#BF5AF2" opacity="0.85" clip-path="url(#ca)">+2.7% (+29)</text>
<text x="360.1" y="77.0" text-anchor="middle" font-size="9" fill="#34C759" opacity="0.85" clip-path="url(#ca)">+2.6% (+21)</text>
<text x="459.8" y="55.0" text-anchor="middle" font-size="9" fill="#4F8EF7" opacity="0.85" clip-path="url(#ca)">+2.7% (+49)</text>
<text x="459.8" y="66.0" text-anchor="middle" font-size="9" fill="#BF5AF2" opacity="0.85" clip-path="url(#ca)">+3.0% (+33)</text>
<text x="459.8" y="77.0" text-anchor="middle" font-size="9" fill="#34C759" opacity="0.85" clip-path="url(#ca)">+3.2% (+27)</text>
<text x="557.6" y="55.0" text-anchor="middle" font-size="9" fill="#4F8EF7" opacity="0.85" clip-path="url(#ca)">+2.9% (+54)</text>
<text x="557.6" y="66.0" text-anchor="middle" font-size="9" fill="#BF5AF2" opacity="0.85" clip-path="url(#ca)">+1.9% (+22)</text>
<text x="557.6" y="77.0" text-anchor="middle" font-size="9" fill="#34C759" opacity="0.85" clip-path="url(#ca)">+1.5% (+13)</text>
<text x="650.0" y="55.0" text-anchor="middle" font-size="9" fill="#4F8EF7" opacity="0.85" clip-path="url(#ca)">+2.7% (+52)</text>
<text x="650.0" y="66.0" text-anchor="middle" font-size="9" fill="#BF5AF2" opacity="0.85" clip-path="url(#ca)">+2.8% (+33)</text>
<text x="650.0" y="77.0" text-anchor="middle" font-size="9" fill="#34C759" opacity="0.85" clip-path="url(#ca)">+2.8% (+25)</text>
<text x="733.1" y="55.0" text-anchor="middle" font-size="9" fill="#4F8EF7" opacity="0.85" clip-path="url(#ca)">+2.4% (+48)</text>
<text x="733.1" y="66.0" text-anchor="middle" font-size="9" fill="#BF5AF2" opacity="0.85" clip-path="url(#ca)">+2.1% (+25)</text>
<text x="733.1" y="77.0" text-anchor="middle" font-size="9" fill="#34C759" opacity="0.85" clip-path="url(#ca)">+1.8% (+16)</text>
<rect x="211" y="369" width="12" height="12" fill="#4F8EF7" rx="2"/>
<text x="227" y="379" font-size="12" fill="#111827">Authors</text>
<rect x="351" y="369" width="12" height="12" fill="#BF5AF2" rx="2"/>
<text x="367" y="379" font-size="12" fill="#111827">Contributors</text>
<rect x="491" y="369" width="12" height="12" fill="#34C759" rx="2"/>
<text x="507" y="379" font-size="12" fill="#111827">Non-author contributors</text>
<text x="72" y="394" font-size="8" fill="#e5e7eb">data since Dec 11, 2025</text>
</svg>