<svg xmlns="http://www.w3.org/2000/svg" width="800" height="400" viewBox="0 0 800 400">
<defs>
  <style>text { font-family: -apple-system, BlinkMacSystemFont, 'Segoe UI', Roboto, sans-serif; }</style>
  <linearGradient id="g2" x1="0" y1="0" x2="0" y2="1">
  <stop offset="0%" stop-color="#4F8EF7" stop-opacity="0.25"/>
  <stop offset="100%" stop-color="#4F8EF7" stop-opacity="0"/>
</linearGradient>
<linearGradient id="g3" x1="0" y1="0" x2="0" y2="1">
  <stop offset="0%" stop-color="#BF5AF2" stop-opacity="0.25"/>
  <stop offset="100%" stop-color="#BF5AF2" stop-opacity="0"/>
</linearGradient>
  <clipPath id="ca"><rect x="72" y="45" width="698" height="295"/></clipPath>
</defs>
<rect width="800" height="400" fill="#ffffff" rx="12"/>
<text x="400" y="26" text-anchor="middle" font-size="15" font-weight="600" fill="#111827">Community Growth Over Time</text>
<line x1="72" y1="340.0" x2="770" y2="340.0" stroke="#f3f4f6" stroke-width="1"/>
<text x="66" y="344.0" text-anchor="end" font-size="11" fill="#6b7280">905</text>
<line x1="72" y1="281.0" x2="770" y2="281.0" stroke="#f3f4f6" stroke-width="1"/>
<text x="66" y="285.0" text-anchor="end" font-size="11" fill="#6b7280">1.1k</text>
<line x1="72" y1="222.0" x2="770" y2="222.0" stroke="#f3f4f6" stroke-width="1"/>
<text x="66" y="226.0" text-anchor="end" font-size="11" fill="#6b7280">1.3k</text>
<line x1="72" y1="163.0" x2="770" y2="163.0" stroke="#f3f4f6" stroke-width="1"/>
<text x="66" y="167.0" text-anchor="end" font-size="11" fill="#6b7280">1.5k</text>
<line x1="72" y1="104.0" x2="770" y2="104.0" stroke="#f3f4f6" stroke-width="1"/>
<text x="66" y="108.0" text-anchor="end" font-size="11" fill="#6b7280">1.7k</text>
<line x1="72" y1="45.0" x2="770" y2="45.0" stroke="#f3f4f6" stroke-width="1"/>
<text x="66" y="49.0" text-anchor="end" font-size="11" fill="#6b7280">1.9k</text>
<line x1="169.4" y1="45" x2="169.4" y2="340" stroke="#e5e7eb" stroke-width="1" stroke-dasharray="3,3" clip-path="url(#ca)"/>
<line x1="380.4" y1="45" x2="380.4" y2="340" stroke="#e5e7eb" stroke-width="1" stroke-dasharray="3,3" clip-path="url(#ca)"/>
<line x1="599.6" y1="45" x2="599.6" y2="340" stroke="#e5e7eb" stroke-width="1" stroke-dasharray="3,3" clip-path="url(#ca)"/>
<text x="72.0" y="358.0" text-anchor="middle" font-size="11" fill="#6b7280">Dec 11</text>
<text x="210.0" y="358.0" text-anchor="middle" font-size="11" fill="#6b7280">Jan 8</text>
<text x="348.0" y="358.0" text-anchor="middle" font-size="11" fill="#6b7280">Jan 28</text>
<text x="494.0" y="358.0" text-anchor="middle" font-size="11" fill="#6b7280">Feb 15</text>
<text x="632.0" y="358.0" text-anchor="middle" font-size="11" fill="#6b7280">Mar 5</text>
<text x="770.0" y="358.0" text-anchor="middle" font-size="11" fill="#6b7280">Mar 24</text>
<line x1="72" y1="45" x2="72" y2="340" stroke="#e5e7eb" stroke-width="1"/>
<line x1="72" y1="340" x2="770" y2="340" stroke="#e5e7eb" stroke-width="1"/>
<text x="-192.5" y="18" text-anchor="middle" font-size="12" fill="#6b7280" transform="rotate(-90)">People</text>
<path d="M 72.0,340 L 72.0,126.5 L 80.1,126.5 L 88.2,126.5 L 96.3,125.6 L 104.5,125.6 L 112.6,125.0 L 120.7,124.7 L 128.8,125.0 L 136.9,124.1 L 145.0,124.1 L 153.2,124.1 L 161.3,124.1 L 169.4,124.1 L 177.5,124.1 L 185.6,124.1 L 193.7,124.1 L 201.9,123.8 L 210.0,122.9 L 218.1,121.1 L 226.2,120.2 L 234.3,119.9 L 242.4,119.9 L 250.6,119.0 L 258.7,116.9 L 266.8,115.7 L 274.9,115.7 L 283.0,114.2 L 291.1,113.6 L 299.3,112.4 L 307.4,111.5 L 315.5,110.6 L 323.6,109.7 L 331.7,109.7 L 339.8,107.6 L 348.0,106.4 L 356.1,106.4 L 364.2,105.2 L 372.3,104.6 L 380.4,104.3 L 388.5,104.0 L 396.7,104.0 L 404.8,103.1 L 412.9,99.5 L 421.0,97.4 L 429.1,96.2 L 437.2,95.9 L 445.3,95.3 L 453.5,94.1 L 461.6,93.5 L 469.7,92.9 L 477.8,92.3 L 485.9,91.7 L 494.0,91.1 L 502.2,91.1 L 510.3,88.1 L 518.4,88.1 L 526.5,87.8 L 534.6,87.5 L 542.7,87.0 L 550.9,87.0 L 559.0,85.5 L 567.1,83.7 L 575.2,83.1 L 583.3,83.7 L 591.4,83.4 L 599.6,83.1 L 607.7,83.1 L 615.8,82.5 L 623.9,81.3 L 632.0,80.7 L 640.1,80.1 L 648.3,79.8 L 656.4,79.8 L 664.5,78.6 L 672.6,78.0 L 680.7,78.0 L 688.8,75.6 L 697.0,75.6 L 705.1,75.6 L 713.2,75.6 L 721.3,75.3 L 729.4,74.4 L 737.5,73.2 L 745.7,72.6 L 753.8,72.6 L 761.9,72.0 L 770.0,69.6 L 770.0,340 Z" fill="url(#g2)" clip-path="url(#ca)"/>
<path d="M 72.0,126.5 L 80.1,126.5 L 88.2,126.5 L 96.3,125.6 L 104.5,125.6 L 112.6,125.0 L 120.7,124.7 L 128.8,125.0 L 136.9,124.1 L 145.0,124.1 L 153.2,124.1 L 161.3,124.1 L 169.4,124.1 L 177.5,124.1 L 185.6,124.1 L 193.7,124.1 L 201.9,123.8 L 210.0,122.9 L 218.1,121.1 L 226.2,120.2 L 234.3,119.9 L 242.4,119.9 L 250.6,119.0 L 258.7,116.9 L 266.8,115.7 L 274.9,115.7 L 283.0,114.2 L 291.1,113.6 L 299.3,112.4 L 307.4,111.5 L 315.5,110.6 L 323.6,109.7 L 331.7,109.7 L 339.8,107.6 L 348.0,106.4 L 356.1,106.4 L 364.2,105.2 L 372.3,104.6 L 380.4,104.3 L 388.5,104.0 L 396.7,104.0 L 404.8,103.1 L 412.9,99.5 L 421.0,97.4 L 429.1,96.2 L 437.2,95.9 L 445.3,95.3 L 453.5,94.1 L 461.6,93.5 L 469.7,92.9 L 477.8,92.3 L 485.9,91.7 L 494.0,91.1 L 502.2,91.1 L 510.3,88.1 L 518.4,88.1 L 526.5,87.8 L 534.6,87.5 L 542.7,87.0 L 550.9,87.0 L 559.0,85.5 L 567.1,83.7 L 575.2,83.1 L 583.3,83.7 L 591.4,83.4 L 599.6,83.1 L 607.7,83.1 L 615.8,82.5 L 623.9,81.3 L 632.0,80.7 L 640.1,80.1 L 648.3,79.8 L 656.4,79.8 L 664.5,78.6 L 672.6,78.0 L 680.7,78.0 L 688.8,75.6 L 697.0,75.6 L 705.1,75.6 L 713.2,75.6 L 721.3,75.3 L 729.4,74.4 L 737.5,73.2 L 745.7,72.6 L 753.8,72.6 L 761.9,72.0 L 770.0,69.6" fill="none" stroke="#4F8EF7" stroke-width="2.5" stroke-linejoin="round" clip-path="url(#ca)"/>
<path d="M 72.0,340 L 72.0,315.4 L 80.1,314.5 L 88.2,314.5 L 96.3,314.5 L 104.5,314.2 L 112.6,313.6 L 120.7,313.3 L 128.8,313.0 L 136.9,313.0 L 145.0,312.7 L 153.2,312.4 L 161.3,312.4 L 169.4,312.4 L 177.5,312.4 L 185.6,312.4 L 193.7,312.4 L 201.9,311.8 L 210.0,311.8 L 218.1,311.8 L 226.2,310.6 L 234.3,310.3 L 242.4,309.7 L 250.6,308.5 L 258.7,308.2 L 266.8,308.2 L 274.9,308.2 L 283.0,307.3 L 291.1,306.7 L 299.3,306.7 L 307.4,306.1 L 315.5,305.8 L 323.6,305.2 L 331.7,305.2 L 339.8,304.9 L 348.0,303.7 L 356.1,302.8 L 364.2,302.2 L 372.3,301.9 L 380.4,301.9 L 388.5,301.6 L 396.7,301.0 L 404.8,301.0 L 412.9,300.7 L 421.0,299.8 L 429.1,299.2 L 437.2,299.2 L 445.3,299.2 L 453.5,299.2 L 461.6,298.9 L 469.7,298.0 L 477.8,297.5 L 485.9,297.2 L 494.0,296.9 L 502.2,296.6 L 510.3,296.3 L 518.4,296.0 L 526.5,295.7 L 534.6,294.8 L 542.7,294.5 L 550.9,294.2 L 559.0,293.0 L 567.1,291.8 L 575.2,291.8 L 583.3,291.5 L 591.4,291.2 L 599.6,291.2 L 607.7,291.2 L 615.8,290.6 L 623.9,290.6 L 632.0,288.8 L 640.1,288.5 L 648.3,288.2 L 656.4,288.2 L 664.5,287.6 L 672.6,287.3 L 680.7,287.3 L 688.8,287.0 L 697.0,287.0 L 705.1,287.0 L 713.2,286.4 L 721.3,286.1 L 729.4,284.6 L 737.5,284.9 L 745.7,284.6 L 753.8,284.3 L 761.9,284.3 L 770.0,284.0 L 770.0,340 Z" fill="url(#g3)" clip-path="url(#ca)"/>
<path d="M 72.0,315.4 L 80.1,314.5 L 88.2,314.5 L 96.3,314.5 L 104.5,314.2 L 112.6,313.6 L 120.7,313.3 L 128.8,313.0 L 136.9,313.0 L 145.0,312.7 L 153.2,312.4 L 161.3,312.4 L 169.4,312.4 L 177.5,312.4 L 185.6,312.4 L 193.7,312.4 L 201.9,311.8 L 210.0,311.8 L 218.1,311.8 L 226.2,310.6 L 234.3,310.3 L 242.4,309.7 L 250.6,308.5 L 258.7,308.2 L 266.8,308.2 L 274.9,308.2 L 283.0,307.3 L 291.1,306.7 L 299.3,306.7 L 307.4,306.1 L 315.5,305.8 L 323.6,305.2 L 331.7,305.2 L 339.8,304.9 L 348.0,303.7 L 356.1,302.8 L 364.2,302.2 L 372.3,301.9 L 380.4,301.9 L 388.5,301.6 L 396.7,301.0 L 404.8,301.0 L 412.9,300.7 L 421.0,299.8 L 429.1,299.2 L 437.2,299.2 L 445.3,299.2 L 453.5,299.2 L 461.6,298.9 L 469.7,298.0 L 477.8,297.5 L 485.9,297.2 L 494.0,296.9 L 502.2,296.6 L 510.3,296.3 L 518.4,296.0 L 526.5,295.7 L 534.6,294.8 L 542.7,294.5 L 550.9,294.2 L 559.0,293.0 L 567.1,291.8 L 575.2,291.8 L 583.3,291.5 L 591.4,291.2 L 599.6,291.2 L 607.7,291.2 L 615.8,290.6 L 623.9,290.6 L 632.0,288.8 L 640.1,288.5 L 648.3,288.2 L 656.4,288.2 L 664.5,287.6 L 672.6,287.3 L 680.7,287.3 L 688.8,287.0 L 697.0,287.0 L 705.1,287.0 L 713.2,286.4 L 721.3,286.1 L 729.4,284.6 L 737.5,284.9 L 745.7,284.6 L 753.8,284.3 L 761.9,284.3 L 770.0,284.0" fill="none" stroke="#BF5AF2" stroke-width="2.5" stroke-linejoin="round" clip-path="url(#ca)"/>
<text x="116.6" y="55.0" text-anchor="middle" font-size="9" fill="#4F8EF7" opacity="0.85" clip-path="url(#ca)">+0.5%</text>
<text x="116.6" y="66.0" text-anchor="middle" font-size="9" fill="#BF5AF2" opacity="0.85" clip-path="url(#ca)">+1.0%</text>
<text x="270.8" y="55.0" text-anchor="middle" font-size="9" fill="#4F8EF7" opacity="0.85" clip-path="url(#ca)">+4.0%</text>
<text x="270.8" y="66.0" text-anchor="middle" font-size="9" fill="#BF5AF2" opacity="0.85" clip-path="url(#ca)">+3.5%</text>
<text x="485.9" y="55.0" text-anchor="middle" font-size="9" fill="#4F8EF7" opacity="0.85" clip-path="url(#ca)">+4.1%</text>
<text x="485.9" y="66.0" text-anchor="middle" font-size="9" fill="#BF5AF2" opacity="0.85" clip-path="url(#ca)">+3.5%</text>
<text x="684.8" y="55.0" text-anchor="middle" font-size="9" fill="#4F8EF7" opacity="0.85" clip-path="url(#ca)">+2.6%</text>
<text x="684.8" y="66.0" text-anchor="middle" font-size="9" fill="#BF5AF2" opacity="0.85" clip-path="url(#ca)">+2.2%</text>
<rect x="281" y="369" width="12" height="12" fill="#4F8EF7" rx="2"/>
<text x="297" y="379" font-size="12" fill="#111827">Authors</text>
<rect x="421" y="369" width="12" height="12" fill="#BF5AF2" rx="2"/>
<text x="437" y="379" font-size="12" fill="#111827">Contributors</text>
<text x="72" y="394" font-size="8" fill="#e5e7eb">data since Dec 11, 2025</text>
</svg>