<svg xmlns="http://www.w3.org/2000/svg" width="800" height="400" viewBox="0 0 800 400">
<defs>
  <style>text { font-family: -apple-system, BlinkMacSystemFont, 'Segoe UI', Roboto, sans-serif; }</style>
  <linearGradient id="g2" x1="0" y1="0" x2="0" y2="1">
  <stop offset="0%" stop-color="#4F8EF7" stop-opacity="0.25"/>
  <stop offset="100%" stop-color="#4F8EF7" stop-opacity="0"/>
</linearGradient>
<linearGradient id="g3" x1="0" y1="0" x2="0" y2="1">
  <stop offset="0%" stop-color="#BF5AF2" stop-opacity="0.25"/>
  <stop offset="100%" stop-color="#BF5AF2" stop-opacity="0"/>
</linearGradient>
<linearGradient id="g4" x1="0" y1="0" x2="0" y2="1">
  <stop offset="0%" stop-color="#34C759" stop-opacity="0.25"/>
  <stop offset="100%" stop-color="#34C759" stop-opacity="0"/>
</linearGradient>
  <clipPath id="ca"><rect x="72" y="45" width="698" height="295"/></clipPath>
</defs>
<rect width="800" height="400" fill="#ffffff" rx="12"/>
<text x="400" y="26" text-anchor="middle" font-size="15" font-weight="600" fill="#111827">Community Growth Over Time</text>
<line x1="72" y1="340.0" x2="770" y2="340.0" stroke="#f3f4f6" stroke-width="1"/>
<text x="66" y="344.0" text-anchor="end" font-size="11" fill="#6b7280">500</text>
<line x1="72" y1="241.7" x2="770" y2="241.7" stroke="#f3f4f6" stroke-width="1"/>
<text x="66" y="245.7" text-anchor="end" font-size="11" fill="#6b7280">1.0k</text>
<line x1="72" y1="143.3" x2="770" y2="143.3" stroke="#f3f4f6" stroke-width="1"/>
<text x="66" y="147.3" text-anchor="end" font-size="11" fill="#6b7280">1.5k</text>
<line x1="72" y1="45.0" x2="770" y2="45.0" stroke="#f3f4f6" stroke-width="1"/>
<text x="66" y="49.0" text-anchor="end" font-size="11" fill="#6b7280">2.0k</text>
<line x1="160.2" y1="45" x2="160.2" y2="340" stroke="#e5e7eb" stroke-width="1" stroke-dasharray="3,3" clip-path="url(#ca)"/>
<line x1="351.2" y1="45" x2="351.2" y2="340" stroke="#e5e7eb" stroke-width="1" stroke-dasharray="3,3" clip-path="url(#ca)"/>
<line x1="549.6" y1="45" x2="549.6" y2="340" stroke="#e5e7eb" stroke-width="1" stroke-dasharray="3,3" clip-path="url(#ca)"/>
<line x1="748.0" y1="45" x2="748.0" y2="340" stroke="#e5e7eb" stroke-width="1" stroke-dasharray="3,3" clip-path="url(#ca)"/>
<text x="72.0" y="358.0" text-anchor="middle" font-size="11" fill="#6b7280">Dec 11</text>
<text x="211.6" y="358.0" text-anchor="middle" font-size="11" fill="#6b7280">Jan 10</text>
<text x="351.2" y="358.0" text-anchor="middle" font-size="11" fill="#6b7280">Feb 1</text>
<text x="490.8" y="358.0" text-anchor="middle" font-size="11" fill="#6b7280">Feb 20</text>
<text x="630.4" y="358.0" text-anchor="middle" font-size="11" fill="#6b7280">Mar 13</text>
<text x="770.0" y="358.0" text-anchor="middle" font-size="11" fill="#6b7280">Apr 4</text>
<line x1="72" y1="45" x2="72" y2="340" stroke="#e5e7eb" stroke-width="1"/>
<line x1="72" y1="340" x2="770" y2="340" stroke="#e5e7eb" stroke-width="1"/>
<text x="-192.5" y="18" text-anchor="middle" font-size="12" fill="#6b7280" transform="rotate(-90)">People</text>
<path d="M 72.0,340 L 72.0,120.1 L 79.3,120.1 L 86.7,120.1 L 94.0,119.5 L 101.4,119.5 L 108.7,119.1 L 116.1,118.9 L 123.4,119.1 L 130.8,118.6 L 138.1,118.6 L 145.5,118.6 L 152.8,118.6 L 160.2,118.6 L 167.5,118.6 L 174.9,118.6 L 182.2,118.6 L 189.6,118.4 L 196.9,117.8 L 204.3,116.6 L 211.6,116.0 L 218.9,115.8 L 226.3,115.8 L 233.6,115.2 L 241.0,113.8 L 248.3,113.0 L 255.7,113.0 L 263.0,112.1 L 270.4,111.7 L 277.7,110.9 L 285.1,110.3 L 292.4,109.7 L 299.8,109.1 L 307.1,109.1 L 314.5,107.7 L 321.8,106.9 L 329.2,106.9 L 336.5,106.2 L 343.9,105.8 L 351.2,105.6 L 358.5,105.4 L 365.9,105.4 L 373.2,104.8 L 380.6,102.4 L 387.9,101.0 L 395.3,100.3 L 402.6,100.1 L 410.0,99.7 L 417.3,98.9 L 424.7,98.5 L 432.0,98.1 L 439.4,97.7 L 446.7,97.3 L 454.1,96.9 L 461.4,96.9 L 468.8,95.0 L 476.1,95.0 L 483.5,94.8 L 490.8,94.6 L 498.1,94.2 L 505.5,94.2 L 512.8,93.2 L 520.2,92.0 L 527.5,91.6 L 534.9,92.0 L 542.2,91.8 L 549.6,91.6 L 556.9,91.6 L 564.3,91.2 L 571.6,90.4 L 579.0,90.0 L 586.3,89.6 L 593.7,89.4 L 601.0,89.4 L 608.4,88.7 L 615.7,88.3 L 623.1,88.3 L 630.4,86.7 L 637.7,86.7 L 645.1,86.7 L 652.4,86.7 L 659.8,86.5 L 667.1,85.9 L 674.5,85.1 L 681.8,84.7 L 689.2,84.7 L 696.5,84.3 L 703.9,82.8 L 711.2,81.8 L 718.6,81.6 L 725.9,81.4 L 733.3,80.8 L 740.6,79.6 L 748.0,79.2 L 755.3,78.8 L 762.7,77.6 L 770.0,77.4 L 770.0,340 Z" fill="url(#g2)" clip-path="url(#ca)"/>
<path d="M 72.0,120.1 L 79.3,120.1 L 86.7,120.1 L 94.0,119.5 L 101.4,119.5 L 108.7,119.1 L 116.1,118.9 L 123.4,119.1 L 130.8,118.6 L 138.1,118.6 L 145.5,118.6 L 152.8,118.6 L 160.2,118.6 L 167.5,118.6 L 174.9,118.6 L 182.2,118.6 L 189.6,118.4 L 196.9,117.8 L 204.3,116.6 L 211.6,116.0 L 218.9,115.8 L 226.3,115.8 L 233.6,115.2 L 241.0,113.8 L 248.3,113.0 L 255.7,113.0 L 263.0,112.1 L 270.4,111.7 L 277.7,110.9 L 285.1,110.3 L 292.4,109.7 L 299.8,109.1 L 307.1,109.1 L 314.5,107.7 L 321.8,106.9 L 329.2,106.9 L 336.5,106.2 L 343.9,105.8 L 351.2,105.6 L 358.5,105.4 L 365.9,105.4 L 373.2,104.8 L 380.6,102.4 L 387.9,101.0 L 395.3,100.3 L 402.6,100.1 L 410.0,99.7 L 417.3,98.9 L 424.7,98.5 L 432.0,98.1 L 439.4,97.7 L 446.7,97.3 L 454.1,96.9 L 461.4,96.9 L 468.8,95.0 L 476.1,95.0 L 483.5,94.8 L 490.8,94.6 L 498.1,94.2 L 505.5,94.2 L 512.8,93.2 L 520.2,92.0 L 527.5,91.6 L 534.9,92.0 L 542.2,91.8 L 549.6,91.6 L 556.9,91.6 L 564.3,91.2 L 571.6,90.4 L 579.0,90.0 L 586.3,89.6 L 593.7,89.4 L 601.0,89.4 L 608.4,88.7 L 615.7,88.3 L 623.1,88.3 L 630.4,86.7 L 637.7,86.7 L 645.1,86.7 L 652.4,86.7 L 659.8,86.5 L 667.1,85.9 L 674.5,85.1 L 681.8,84.7 L 689.2,84.7 L 696.5,84.3 L 703.9,82.8 L 711.2,81.8 L 718.6,81.6 L 725.9,81.4 L 733.3,80.8 L 740.6,79.6 L 748.0,79.2 L 755.3,78.8 L 762.7,77.6 L 770.0,77.4" fill="none" stroke="#4F8EF7" stroke-width="2.5" stroke-linejoin="round" clip-path="url(#ca)"/>
<path d="M 72.0,340 L 72.0,244.2 L 79.3,243.6 L 86.7,243.6 L 94.0,243.6 L 101.4,243.4 L 108.7,243.0 L 116.1,242.8 L 123.4,242.6 L 130.8,242.6 L 138.1,242.5 L 145.5,242.3 L 152.8,242.3 L 160.2,242.3 L 167.5,242.3 L 174.9,242.3 L 182.2,242.3 L 189.6,241.9 L 196.9,241.9 L 204.3,241.9 L 211.6,241.1 L 218.9,240.9 L 226.3,240.5 L 233.6,239.7 L 241.0,239.5 L 248.3,239.5 L 255.7,239.5 L 263.0,238.9 L 270.4,238.5 L 277.7,238.5 L 285.1,238.1 L 292.4,237.9 L 299.8,237.5 L 307.1,237.5 L 314.5,237.3 L 321.8,236.6 L 329.2,236.0 L 336.5,235.6 L 343.9,235.4 L 351.2,235.4 L 358.5,235.2 L 365.9,234.8 L 373.2,234.8 L 380.6,234.6 L 387.9,234.0 L 395.3,233.6 L 402.6,233.6 L 410.0,233.6 L 417.3,233.6 L 424.7,233.4 L 432.0,232.8 L 439.4,232.4 L 446.7,232.2 L 454.1,232.0 L 461.4,231.8 L 468.8,231.6 L 476.1,231.4 L 483.5,231.2 L 490.8,230.7 L 498.1,230.5 L 505.5,230.3 L 512.8,229.5 L 520.2,228.7 L 527.5,228.7 L 534.9,228.5 L 542.2,228.3 L 549.6,228.3 L 556.9,228.3 L 564.3,227.9 L 571.6,227.9 L 579.0,226.7 L 586.3,226.5 L 593.7,226.3 L 601.0,226.3 L 608.4,225.9 L 615.7,225.7 L 623.1,225.7 L 630.4,225.5 L 637.7,225.5 L 645.1,225.5 L 652.4,225.1 L 659.8,224.9 L 667.1,224.0 L 674.5,224.2 L 681.8,224.0 L 689.2,223.8 L 696.5,223.8 L 703.9,223.6 L 711.2,223.0 L 718.6,223.0 L 725.9,223.0 L 733.3,223.0 L 740.6,222.6 L 748.0,222.6 L 755.3,222.2 L 762.7,221.8 L 770.0,221.0 L 770.0,340 Z" fill="url(#g3)" clip-path="url(#ca)"/>
<path d="M 72.0,244.2 L 79.3,243.6 L 86.7,243.6 L 94.0,243.6 L 101.4,243.4 L 108.7,243.0 L 116.1,242.8 L 123.4,242.6 L 130.8,242.6 L 138.1,242.5 L 145.5,242.3 L 152.8,242.3 L 160.2,242.3 L 167.5,242.3 L 174.9,242.3 L 182.2,242.3 L 189.6,241.9 L 196.9,241.9 L 204.3,241.9 L 211.6,241.1 L 218.9,240.9 L 226.3,240.5 L 233.6,239.7 L 241.0,239.5 L 248.3,239.5 L 255.7,239.5 L 263.0,238.9 L 270.4,238.5 L 277.7,238.5 L 285.1,238.1 L 292.4,237.9 L 299.8,237.5 L 307.1,237.5 L 314.5,237.3 L 321.8,236.6 L 329.2,236.0 L 336.5,235.6 L 343.9,235.4 L 351.2,235.4 L 358.5,235.2 L 365.9,234.8 L 373.2,234.8 L 380.6,234.6 L 387.9,234.0 L 395.3,233.6 L 402.6,233.6 L 410.0,233.6 L 417.3,233.6 L 424.7,233.4 L 432.0,232.8 L 439.4,232.4 L 446.7,232.2 L 454.1,232.0 L 461.4,231.8 L 468.8,231.6 L 476.1,231.4 L 483.5,231.2 L 490.8,230.7 L 498.1,230.5 L 505.5,230.3 L 512.8,229.5 L 520.2,228.7 L 527.5,228.7 L 534.9,228.5 L 542.2,228.3 L 549.6,228.3 L 556.9,228.3 L 564.3,227.9 L 571.6,227.9 L 579.0,226.7 L 586.3,226.5 L 593.7,226.3 L 601.0,226.3 L 608.4,225.9 L 615.7,225.7 L 623.1,225.7 L 630.4,225.5 L 637.7,225.5 L 645.1,225.5 L 652.4,225.1 L 659.8,224.9 L 667.1,224.0 L 674.5,224.2 L 681.8,224.0 L 689.2,223.8 L 696.5,223.8 L 703.9,223.6 L 711.2,223.0 L 718.6,223.0 L 725.9,223.0 L 733.3,223.0 L 740.6,222.6 L 748.0,222.6 L 755.3,222.2 L 762.7,221.8 L 770.0,221.0" fill="none" stroke="#BF5AF2" stroke-width="2.5" stroke-linejoin="round" clip-path="url(#ca)"/>
<path d="M 72.0,340 L 72.0,291.4 L 79.3,290.8 L 86.7,290.8 L 94.0,290.8 L 101.4,290.6 L 108.7,290.2 L 116.1,290.0 L 123.4,289.7 L 130.8,289.7 L 138.1,289.5 L 145.5,289.3 L 152.8,289.3 L 160.2,289.3 L 167.5,289.3 L 174.9,289.3 L 182.2,289.3 L 189.6,288.9 L 196.9,288.9 L 204.3,289.1 L 211.6,288.5 L 218.9,288.7 L 226.3,288.1 L 233.6,287.5 L 241.0,287.3 L 248.3,287.5 L 255.7,287.5 L 263.0,286.9 L 270.4,286.7 L 277.7,286.7 L 285.1,286.3 L 292.4,286.1 L 299.8,285.7 L 307.1,285.7 L 314.5,285.5 L 321.8,284.9 L 329.2,284.3 L 336.5,283.9 L 343.9,283.9 L 351.2,283.9 L 358.5,283.8 L 365.9,283.4 L 373.2,283.4 L 380.6,283.2 L 387.9,282.6 L 395.3,282.4 L 402.6,282.4 L 410.0,282.4 L 417.3,282.4 L 424.7,282.2 L 432.0,281.6 L 439.4,281.4 L 446.7,281.2 L 454.1,281.0 L 461.4,281.0 L 468.8,280.8 L 476.1,280.8 L 483.5,280.8 L 490.8,280.2 L 498.1,280.2 L 505.5,280.2 L 512.8,279.8 L 520.2,279.2 L 527.5,279.2 L 534.9,279.0 L 542.2,278.8 L 549.6,278.8 L 556.9,278.8 L 564.3,278.4 L 571.6,278.4 L 579.0,277.3 L 586.3,277.1 L 593.7,276.9 L 601.0,276.9 L 608.4,276.7 L 615.7,276.7 L 623.1,276.7 L 630.4,276.7 L 637.7,276.7 L 645.1,276.7 L 652.4,276.3 L 659.8,276.1 L 667.1,275.1 L 674.5,275.3 L 681.8,275.3 L 689.2,275.1 L 696.5,275.1 L 703.9,275.1 L 711.2,274.7 L 718.6,274.7 L 725.9,274.7 L 733.3,274.7 L 740.6,274.7 L 748.0,274.7 L 755.3,274.5 L 762.7,274.5 L 770.0,273.7 L 770.0,340 Z" fill="url(#g4)" clip-path="url(#ca)"/>
<path d="M 72.0,291.4 L 79.3,290.8 L 86.7,290.8 L 94.0,290.8 L 101.4,290.6 L 108.7,290.2 L 116.1,290.0 L 123.4,289.7 L 130.8,289.7 L 138.1,289.5 L 145.5,289.3 L 152.8,289.3 L 160.2,289.3 L 167.5,289.3 L 174.9,289.3 L 182.2,289.3 L 189.6,288.9 L 196.9,288.9 L 204.3,289.1 L 211.6,288.5 L 218.9,288.7 L 226.3,288.1 L 233.6,287.5 L 241.0,287.3 L 248.3,287.5 L 255.7,287.5 L 263.0,286.9 L 270.4,286.7 L 277.7,286.7 L 285.1,286.3 L 292.4,286.1 L 299.8,285.7 L 307.1,285.7 L 314.5,285.5 L 321.8,284.9 L 329.2,284.3 L 336.5,283.9 L 343.9,283.9 L 351.2,283.9 L 358.5,283.8 L 365.9,283.4 L 373.2,283.4 L 380.6,283.2 L 387.9,282.6 L 395.3,282.4 L 402.6,282.4 L 410.0,282.4 L 417.3,282.4 L 424.7,282.2 L 432.0,281.6 L 439.4,281.4 L 446.7,281.2 L 454.1,281.0 L 461.4,281.0 L 468.8,280.8 L 476.1,280.8 L 483.5,280.8 L 490.8,280.2 L 498.1,280.2 L 505.5,280.2 L 512.8,279.8 L 520.2,279.2 L 527.5,279.2 L 534.9,279.0 L 542.2,278.8 L 549.6,278.8 L 556.9,278.8 L 564.3,278.4 L 571.6,278.4 L 579.0,277.3 L 586.3,277.1 L 593.7,276.9 L 601.0,276.9 L 608.4,276.7 L 615.7,276.7 L 623.1,276.7 L 630.4,276.7 L 637.7,276.7 L 645.1,276.7 L 652.4,276.3 L 659.8,276.1 L 667.1,275.1 L 674.5,275.3 L 681.8,275.3 L 689.2,275.1 L 696.5,275.1 L 703.9,275.1 L 711.2,274.7 L 718.6,274.7 L 725.9,274.7 L 733.3,274.7 L 740.6,274.7 L 748.0,274.7 L 755.3,274.5 L 762.7,274.5 L 770.0,273.7" fill="none" stroke="#34C759" stroke-width="2.5" stroke-linejoin="round" clip-path="url(#ca)"/>
<text x="112.4" y="55.0" text-anchor="middle" font-size="9" fill="#4F8EF7" opacity="0.85" clip-path="url(#ca)">+0.5% (+8)</text>
<text x="112.4" y="66.0" text-anchor="middle" font-size="9" fill="#BF5AF2" opacity="0.85" clip-path="url(#ca)">+1.0% (+10)</text>
<text x="112.4" y="77.0" text-anchor="middle" font-size="9" fill="#34C759" opacity="0.85" clip-path="url(#ca)">+1.5% (+11)</text>
<text x="252.0" y="55.0" text-anchor="middle" font-size="9" fill="#4F8EF7" opacity="0.85" clip-path="url(#ca)">+4.0% (+65)</text>
<text x="252.0" y="66.0" text-anchor="middle" font-size="9" fill="#BF5AF2" opacity="0.85" clip-path="url(#ca)">+3.5% (+35)</text>
<text x="252.0" y="77.0" text-anchor="middle" font-size="9" fill="#34C759" opacity="0.85" clip-path="url(#ca)">+3.6% (+27)</text>
<text x="446.7" y="55.0" text-anchor="middle" font-size="9" fill="#4F8EF7" opacity="0.85" clip-path="url(#ca)">+4.1% (+70)</text>
<text x="446.7" y="66.0" text-anchor="middle" font-size="9" fill="#BF5AF2" opacity="0.85" clip-path="url(#ca)">+3.5% (+36)</text>
<text x="446.7" y="77.0" text-anchor="middle" font-size="9" fill="#34C759" opacity="0.85" clip-path="url(#ca)">+3.3% (+26)</text>
<text x="645.1" y="55.0" text-anchor="middle" font-size="9" fill="#4F8EF7" opacity="0.85" clip-path="url(#ca)">+3.5% (+61)</text>
<text x="645.1" y="66.0" text-anchor="middle" font-size="9" fill="#BF5AF2" opacity="0.85" clip-path="url(#ca)">+2.7% (+29)</text>
<text x="645.1" y="77.0" text-anchor="middle" font-size="9" fill="#34C759" opacity="0.85" clip-path="url(#ca)">+2.6% (+21)</text>
<text x="759.0" y="55.0" text-anchor="middle" font-size="9" fill="#4F8EF7" opacity="0.85" clip-path="url(#ca)">+0.5% (+9)</text>
<text x="759.0" y="66.0" text-anchor="middle" font-size="9" fill="#BF5AF2" opacity="0.85" clip-path="url(#ca)">+0.7% (+8)</text>
<text x="759.0" y="77.0" text-anchor="middle" font-size="9" fill="#34C759" opacity="0.85" clip-path="url(#ca)">+0.6% (+5)</text>
<rect x="211" y="369" width="12" height="12" fill="#4F8EF7" rx="2"/>
<text x="227" y="379" font-size="12" fill="#111827">Authors</text>
<rect x="351" y="369" width="12" height="12" fill="#BF5AF2" rx="2"/>
<text x="367" y="379" font-size="12" fill="#111827">Contributors</text>
<rect x="491" y="369" width="12" height="12" fill="#34C759" rx="2"/>
<text x="507" y="379" font-size="12" fill="#111827">Non-author contributors</text>
<text x="72" y="394" font-size="8" fill="#e5e7eb">data since Dec 11, 2025</text>
</svg>