<svg xmlns="http://www.w3.org/2000/svg" width="800" height="400" viewBox="0 0 800 400">
<defs>
  <style>text { font-family: -apple-system, BlinkMacSystemFont, 'Segoe UI', Roboto, sans-serif; }</style>
  <linearGradient id="g2" x1="0" y1="0" x2="0" y2="1">
  <stop offset="0%" stop-color="#4F8EF7" stop-opacity="0.25"/>
  <stop offset="100%" stop-color="#4F8EF7" stop-opacity="0"/>
</linearGradient>
<linearGradient id="g3" x1="0" y1="0" x2="0" y2="1">
  <stop offset="0%" stop-color="#BF5AF2" stop-opacity="0.25"/>
  <stop offset="100%" stop-color="#BF5AF2" stop-opacity="0"/>
</linearGradient>
<linearGradient id="g4" x1="0" y1="0" x2="0" y2="1">
  <stop offset="0%" stop-color="#34C759" stop-opacity="0.25"/>
  <stop offset="100%" stop-color="#34C759" stop-opacity="0"/>
</linearGradient>
  <clipPath id="ca"><rect x="72" y="45" width="698" height="295"/></clipPath>
</defs>
<rect width="800" height="400" fill="#ffffff" rx="12"/>
<text x="400" y="26" text-anchor="middle" font-size="15" font-weight="600" fill="#111827">Community Growth Over Time</text>
<line x1="72" y1="340.0" x2="770" y2="340.0" stroke="#f3f4f6" stroke-width="1"/>
<text x="66" y="344.0" text-anchor="end" font-size="11" fill="#6b7280">500</text>
<line x1="72" y1="241.7" x2="770" y2="241.7" stroke="#f3f4f6" stroke-width="1"/>
<text x="66" y="245.7" text-anchor="end" font-size="11" fill="#6b7280">1.0k</text>
<line x1="72" y1="143.3" x2="770" y2="143.3" stroke="#f3f4f6" stroke-width="1"/>
<text x="66" y="147.3" text-anchor="end" font-size="11" fill="#6b7280">1.5k</text>
<line x1="72" y1="45.0" x2="770" y2="45.0" stroke="#f3f4f6" stroke-width="1"/>
<text x="66" y="49.0" text-anchor="end" font-size="11" fill="#6b7280">2.0k</text>
<line x1="143.0" y1="45" x2="143.0" y2="340" stroke="#e5e7eb" stroke-width="1" stroke-dasharray="3,3" clip-path="url(#ca)"/>
<line x1="296.8" y1="45" x2="296.8" y2="340" stroke="#e5e7eb" stroke-width="1" stroke-dasharray="3,3" clip-path="url(#ca)"/>
<line x1="456.5" y1="45" x2="456.5" y2="340" stroke="#e5e7eb" stroke-width="1" stroke-dasharray="3,3" clip-path="url(#ca)"/>
<line x1="616.2" y1="45" x2="616.2" y2="340" stroke="#e5e7eb" stroke-width="1" stroke-dasharray="3,3" clip-path="url(#ca)"/>
<text x="72.0" y="358.0" text-anchor="middle" font-size="11" fill="#6b7280">Dec 11</text>
<text x="214.0" y="358.0" text-anchor="middle" font-size="11" fill="#6b7280">Jan 17</text>
<text x="350.0" y="358.0" text-anchor="middle" font-size="11" fill="#6b7280">Feb 10</text>
<text x="492.0" y="358.0" text-anchor="middle" font-size="11" fill="#6b7280">Mar 8</text>
<text x="628.0" y="358.0" text-anchor="middle" font-size="11" fill="#6b7280">Apr 3</text>
<text x="770.0" y="358.0" text-anchor="middle" font-size="11" fill="#6b7280">Apr 30</text>
<line x1="72" y1="45" x2="72" y2="340" stroke="#e5e7eb" stroke-width="1"/>
<line x1="72" y1="340" x2="770" y2="340" stroke="#e5e7eb" stroke-width="1"/>
<text x="-192.5" y="18" text-anchor="middle" font-size="12" fill="#6b7280" transform="rotate(-90)">People</text>
<path d="M 72.0,340 L 72.0,120.1 L 77.9,120.1 L 83.8,120.1 L 89.7,119.5 L 95.7,119.5 L 101.6,119.1 L 107.5,118.9 L 113.4,119.1 L 119.3,118.6 L 125.2,118.6 L 131.2,118.6 L 137.1,118.6 L 143.0,118.6 L 148.9,118.6 L 154.8,118.6 L 160.7,118.6 L 166.6,118.4 L 172.6,117.8 L 178.5,116.6 L 184.4,116.0 L 190.3,115.8 L 196.2,115.8 L 202.1,115.2 L 208.1,113.8 L 214.0,113.0 L 219.9,113.0 L 225.8,112.1 L 231.7,111.7 L 237.6,110.9 L 243.5,110.3 L 249.5,109.7 L 255.4,109.1 L 261.3,109.1 L 267.2,107.7 L 273.1,106.9 L 279.0,106.9 L 284.9,106.2 L 290.9,105.8 L 296.8,105.6 L 302.7,105.4 L 308.6,105.4 L 314.5,104.8 L 320.4,102.4 L 326.4,101.0 L 332.3,100.3 L 338.2,100.1 L 344.1,99.7 L 350.0,98.9 L 355.9,98.5 L 361.8,98.1 L 367.8,97.7 L 373.7,97.3 L 379.6,96.9 L 385.5,96.9 L 391.4,95.0 L 397.3,95.0 L 403.3,94.8 L 409.2,94.6 L 415.1,94.2 L 421.0,94.2 L 426.9,93.2 L 432.8,92.0 L 438.7,91.6 L 444.7,92.0 L 450.6,91.8 L 456.5,91.6 L 462.4,91.6 L 468.3,91.2 L 474.2,90.4 L 480.2,90.0 L 486.1,89.6 L 492.0,89.4 L 497.9,89.4 L 503.8,88.7 L 509.7,88.3 L 515.6,88.3 L 521.6,86.7 L 527.5,86.7 L 533.4,86.7 L 539.3,86.7 L 545.2,86.5 L 551.1,85.9 L 557.1,85.1 L 563.0,84.7 L 568.9,84.7 L 574.8,84.3 L 580.7,82.8 L 586.6,81.8 L 592.5,81.6 L 598.5,81.4 L 604.4,80.8 L 610.3,79.6 L 616.2,79.2 L 622.1,78.8 L 628.0,77.6 L 633.9,77.4 L 639.9,77.4 L 645.8,77.4 L 651.7,77.3 L 657.6,76.1 L 663.5,75.9 L 669.4,75.7 L 675.4,75.7 L 681.3,75.3 L 687.2,73.7 L 693.1,73.5 L 699.0,73.3 L 704.9,73.3 L 710.8,72.5 L 716.8,72.3 L 722.7,72.1 L 728.6,71.6 L 734.5,70.8 L 740.4,70.8 L 746.3,70.8 L 752.3,70.8 L 758.2,70.4 L 764.1,69.8 L 770.0,69.6 L 770.0,340 Z" fill="url(#g2)" clip-path="url(#ca)"/>
<path d="M 72.0,120.1 L 77.9,120.1 L 83.8,120.1 L 89.7,119.5 L 95.7,119.5 L 101.6,119.1 L 107.5,118.9 L 113.4,119.1 L 119.3,118.6 L 125.2,118.6 L 131.2,118.6 L 137.1,118.6 L 143.0,118.6 L 148.9,118.6 L 154.8,118.6 L 160.7,118.6 L 166.6,118.4 L 172.6,117.8 L 178.5,116.6 L 184.4,116.0 L 190.3,115.8 L 196.2,115.8 L 202.1,115.2 L 208.1,113.8 L 214.0,113.0 L 219.9,113.0 L 225.8,112.1 L 231.7,111.7 L 237.6,110.9 L 243.5,110.3 L 249.5,109.7 L 255.4,109.1 L 261.3,109.1 L 267.2,107.7 L 273.1,106.9 L 279.0,106.9 L 284.9,106.2 L 290.9,105.8 L 296.8,105.6 L 302.7,105.4 L 308.6,105.4 L 314.5,104.8 L 320.4,102.4 L 326.4,101.0 L 332.3,100.3 L 338.2,100.1 L 344.1,99.7 L 350.0,98.9 L 355.9,98.5 L 361.8,98.1 L 367.8,97.7 L 373.7,97.3 L 379.6,96.9 L 385.5,96.9 L 391.4,95.0 L 397.3,95.0 L 403.3,94.8 L 409.2,94.6 L 415.1,94.2 L 421.0,94.2 L 426.9,93.2 L 432.8,92.0 L 438.7,91.6 L 444.7,92.0 L 450.6,91.8 L 456.5,91.6 L 462.4,91.6 L 468.3,91.2 L 474.2,90.4 L 480.2,90.0 L 486.1,89.6 L 492.0,89.4 L 497.9,89.4 L 503.8,88.7 L 509.7,88.3 L 515.6,88.3 L 521.6,86.7 L 527.5,86.7 L 533.4,86.7 L 539.3,86.7 L 545.2,86.5 L 551.1,85.9 L 557.1,85.1 L 563.0,84.7 L 568.9,84.7 L 574.8,84.3 L 580.7,82.8 L 586.6,81.8 L 592.5,81.6 L 598.5,81.4 L 604.4,80.8 L 610.3,79.6 L 616.2,79.2 L 622.1,78.8 L 628.0,77.6 L 633.9,77.4 L 639.9,77.4 L 645.8,77.4 L 651.7,77.3 L 657.6,76.1 L 663.5,75.9 L 669.4,75.7 L 675.4,75.7 L 681.3,75.3 L 687.2,73.7 L 693.1,73.5 L 699.0,73.3 L 704.9,73.3 L 710.8,72.5 L 716.8,72.3 L 722.7,72.1 L 728.6,71.6 L 734.5,70.8 L 740.4,70.8 L 746.3,70.8 L 752.3,70.8 L 758.2,70.4 L 764.1,69.8 L 770.0,69.6" fill="none" stroke="#4F8EF7" stroke-width="2.5" stroke-linejoin="round" clip-path="url(#ca)"/>
<path d="M 72.0,340 L 72.0,244.2 L 77.9,243.6 L 83.8,243.6 L 89.7,243.6 L 95.7,243.4 L 101.6,243.0 L 107.5,242.8 L 113.4,242.6 L 119.3,242.6 L 125.2,242.5 L 131.2,242.3 L 137.1,242.3 L 143.0,242.3 L 148.9,242.3 L 154.8,242.3 L 160.7,242.3 L 166.6,241.9 L 172.6,241.9 L 178.5,241.9 L 184.4,241.1 L 190.3,240.9 L 196.2,240.5 L 202.1,239.7 L 208.1,239.5 L 214.0,239.5 L 219.9,239.5 L 225.8,238.9 L 231.7,238.5 L 237.6,238.5 L 243.5,238.1 L 249.5,237.9 L 255.4,237.5 L 261.3,237.5 L 267.2,237.3 L 273.1,236.6 L 279.0,236.0 L 284.9,235.6 L 290.9,235.4 L 296.8,235.4 L 302.7,235.2 L 308.6,234.8 L 314.5,234.8 L 320.4,234.6 L 326.4,234.0 L 332.3,233.6 L 338.2,233.6 L 344.1,233.6 L 350.0,233.6 L 355.9,233.4 L 361.8,232.8 L 367.8,232.4 L 373.7,232.2 L 379.6,232.0 L 385.5,231.8 L 391.4,231.6 L 397.3,231.4 L 403.3,231.2 L 409.2,230.7 L 415.1,230.5 L 421.0,230.3 L 426.9,229.5 L 432.8,228.7 L 438.7,228.7 L 444.7,228.5 L 450.6,228.3 L 456.5,228.3 L 462.4,228.3 L 468.3,227.9 L 474.2,227.9 L 480.2,226.7 L 486.1,226.5 L 492.0,226.3 L 497.9,226.3 L 503.8,225.9 L 509.7,225.7 L 515.6,225.7 L 521.6,225.5 L 527.5,225.5 L 533.4,225.5 L 539.3,225.1 L 545.2,224.9 L 551.1,224.0 L 557.1,224.2 L 563.0,224.0 L 568.9,223.8 L 574.8,223.8 L 580.7,223.6 L 586.6,223.0 L 592.5,223.0 L 598.5,223.0 L 604.4,223.0 L 610.3,222.6 L 616.2,222.6 L 622.1,222.2 L 628.0,221.8 L 633.9,221.0 L 639.9,221.0 L 645.8,220.6 L 651.7,220.4 L 657.6,220.2 L 663.5,220.0 L 669.4,219.6 L 675.4,219.6 L 681.3,219.1 L 687.2,219.1 L 693.1,218.9 L 699.0,218.5 L 704.9,218.3 L 710.8,218.3 L 716.8,218.3 L 722.7,218.3 L 728.6,218.3 L 734.5,217.7 L 740.4,217.7 L 746.3,217.3 L 752.3,216.9 L 758.2,216.3 L 764.1,216.1 L 770.0,216.1 L 770.0,340 Z" fill="url(#g3)" clip-path="url(#ca)"/>
<path d="M 72.0,244.2 L 77.9,243.6 L 83.8,243.6 L 89.7,243.6 L 95.7,243.4 L 101.6,243.0 L 107.5,242.8 L 113.4,242.6 L 119.3,242.6 L 125.2,242.5 L 131.2,242.3 L 137.1,242.3 L 143.0,242.3 L 148.9,242.3 L 154.8,242.3 L 160.7,242.3 L 166.6,241.9 L 172.6,241.9 L 178.5,241.9 L 184.4,241.1 L 190.3,240.9 L 196.2,240.5 L 202.1,239.7 L 208.1,239.5 L 214.0,239.5 L 219.9,239.5 L 225.8,238.9 L 231.7,238.5 L 237.6,238.5 L 243.5,238.1 L 249.5,237.9 L 255.4,237.5 L 261.3,237.5 L 267.2,237.3 L 273.1,236.6 L 279.0,236.0 L 284.9,235.6 L 290.9,235.4 L 296.8,235.4 L 302.7,235.2 L 308.6,234.8 L 314.5,234.8 L 320.4,234.6 L 326.4,234.0 L 332.3,233.6 L 338.2,233.6 L 344.1,233.6 L 350.0,233.6 L 355.9,233.4 L 361.8,232.8 L 367.8,232.4 L 373.7,232.2 L 379.6,232.0 L 385.5,231.8 L 391.4,231.6 L 397.3,231.4 L 403.3,231.2 L 409.2,230.7 L 415.1,230.5 L 421.0,230.3 L 426.9,229.5 L 432.8,228.7 L 438.7,228.7 L 444.7,228.5 L 450.6,228.3 L 456.5,228.3 L 462.4,228.3 L 468.3,227.9 L 474.2,227.9 L 480.2,226.7 L 486.1,226.5 L 492.0,226.3 L 497.9,226.3 L 503.8,225.9 L 509.7,225.7 L 515.6,225.7 L 521.6,225.5 L 527.5,225.5 L 533.4,225.5 L 539.3,225.1 L 545.2,224.9 L 551.1,224.0 L 557.1,224.2 L 563.0,224.0 L 568.9,223.8 L 574.8,223.8 L 580.7,223.6 L 586.6,223.0 L 592.5,223.0 L 598.5,223.0 L 604.4,223.0 L 610.3,222.6 L 616.2,222.6 L 622.1,222.2 L 628.0,221.8 L 633.9,221.0 L 639.9,221.0 L 645.8,220.6 L 651.7,220.4 L 657.6,220.2 L 663.5,220.0 L 669.4,219.6 L 675.4,219.6 L 681.3,219.1 L 687.2,219.1 L 693.1,218.9 L 699.0,218.5 L 704.9,218.3 L 710.8,218.3 L 716.8,218.3 L 722.7,218.3 L 728.6,218.3 L 734.5,217.7 L 740.4,217.7 L 746.3,217.3 L 752.3,216.9 L 758.2,216.3 L 764.1,216.1 L 770.0,216.1" fill="none" stroke="#BF5AF2" stroke-width="2.5" stroke-linejoin="round" clip-path="url(#ca)"/>
<path d="M 72.0,340 L 72.0,291.4 L 77.9,290.8 L 83.8,290.8 L 89.7,290.8 L 95.7,290.6 L 101.6,290.2 L 107.5,290.0 L 113.4,289.7 L 119.3,289.7 L 125.2,289.5 L 131.2,289.3 L 137.1,289.3 L 143.0,289.3 L 148.9,289.3 L 154.8,289.3 L 160.7,289.3 L 166.6,288.9 L 172.6,288.9 L 178.5,289.1 L 184.4,288.5 L 190.3,288.7 L 196.2,288.1 L 202.1,287.5 L 208.1,287.3 L 214.0,287.5 L 219.9,287.5 L 225.8,286.9 L 231.7,286.7 L 237.6,286.7 L 243.5,286.3 L 249.5,286.1 L 255.4,285.7 L 261.3,285.7 L 267.2,285.5 L 273.1,284.9 L 279.0,284.3 L 284.9,283.9 L 290.9,283.9 L 296.8,283.9 L 302.7,283.8 L 308.6,283.4 L 314.5,283.4 L 320.4,283.2 L 326.4,282.6 L 332.3,282.4 L 338.2,282.4 L 344.1,282.4 L 350.0,282.4 L 355.9,282.2 L 361.8,281.6 L 367.8,281.4 L 373.7,281.2 L 379.6,281.0 L 385.5,281.0 L 391.4,280.8 L 397.3,280.8 L 403.3,280.8 L 409.2,280.2 L 415.1,280.2 L 421.0,280.2 L 426.9,279.8 L 432.8,279.2 L 438.7,279.2 L 444.7,279.0 L 450.6,278.8 L 456.5,278.8 L 462.4,278.8 L 468.3,278.4 L 474.2,278.4 L 480.2,277.3 L 486.1,277.1 L 492.0,276.9 L 497.9,276.9 L 503.8,276.7 L 509.7,276.7 L 515.6,276.7 L 521.6,276.7 L 527.5,276.7 L 533.4,276.7 L 539.3,276.3 L 545.2,276.1 L 551.1,275.1 L 557.1,275.3 L 563.0,275.3 L 568.9,275.1 L 574.8,275.1 L 580.7,275.1 L 586.6,274.7 L 592.5,274.7 L 598.5,274.7 L 604.4,274.7 L 610.3,274.7 L 616.2,274.7 L 622.1,274.5 L 628.0,274.5 L 633.9,273.7 L 639.9,273.7 L 645.8,273.5 L 651.7,273.3 L 657.6,273.1 L 663.5,272.9 L 669.4,272.5 L 675.4,272.5 L 681.3,272.0 L 687.2,272.0 L 693.1,271.8 L 699.0,271.6 L 704.9,271.6 L 710.8,271.6 L 716.8,271.6 L 722.7,271.6 L 728.6,271.6 L 734.5,271.0 L 740.4,271.0 L 746.3,270.6 L 752.3,270.2 L 758.2,269.6 L 764.1,269.4 L 770.0,269.4 L 770.0,340 Z" fill="url(#g4)" clip-path="url(#ca)"/>
<path d="M 72.0,291.4 L 77.9,290.8 L 83.8,290.8 L 89.7,290.8 L 95.7,290.6 L 101.6,290.2 L 107.5,290.0 L 113.4,289.7 L 119.3,289.7 L 125.2,289.5 L 131.2,289.3 L 137.1,289.3 L 143.0,289.3 L 148.9,289.3 L 154.8,289.3 L 160.7,289.3 L 166.6,288.9 L 172.6,288.9 L 178.5,289.1 L 184.4,288.5 L 190.3,288.7 L 196.2,288.1 L 202.1,287.5 L 208.1,287.3 L 214.0,287.5 L 219.9,287.5 L 225.8,286.9 L 231.7,286.7 L 237.6,286.7 L 243.5,286.3 L 249.5,286.1 L 255.4,285.7 L 261.3,285.7 L 267.2,285.5 L 273.1,284.9 L 279.0,284.3 L 284.9,283.9 L 290.9,283.9 L 296.8,283.9 L 302.7,283.8 L 308.6,283.4 L 314.5,283.4 L 320.4,283.2 L 326.4,282.6 L 332.3,282.4 L 338.2,282.4 L 344.1,282.4 L 350.0,282.4 L 355.9,282.2 L 361.8,281.6 L 367.8,281.4 L 373.7,281.2 L 379.6,281.0 L 385.5,281.0 L 391.4,280.8 L 397.3,280.8 L 403.3,280.8 L 409.2,280.2 L 415.1,280.2 L 421.0,280.2 L 426.9,279.8 L 432.8,279.2 L 438.7,279.2 L 444.7,279.0 L 450.6,278.8 L 456.5,278.8 L 462.4,278.8 L 468.3,278.4 L 474.2,278.4 L 480.2,277.3 L 486.1,277.1 L 492.0,276.9 L 497.9,276.9 L 503.8,276.7 L 509.7,276.7 L 515.6,276.7 L 521.6,276.7 L 527.5,276.7 L 533.4,276.7 L 539.3,276.3 L 545.2,276.1 L 551.1,275.1 L 557.1,275.3 L 563.0,275.3 L 568.9,275.1 L 574.8,275.1 L 580.7,275.1 L 586.6,274.7 L 592.5,274.7 L 598.5,274.7 L 604.4,274.7 L 610.3,274.7 L 616.2,274.7 L 622.1,274.5 L 628.0,274.5 L 633.9,273.7 L 639.9,273.7 L 645.8,273.5 L 651.7,273.3 L 657.6,273.1 L 663.5,272.9 L 669.4,272.5 L 675.4,272.5 L 681.3,272.0 L 687.2,272.0 L 693.1,271.8 L 699.0,271.6 L 704.9,271.6 L 710.8,271.6 L 716.8,271.6 L 722.7,271.6 L 728.6,271.6 L 734.5,271.0 L 740.4,271.0 L 746.3,270.6 L 752.3,270.2 L 758.2,269.6 L 764.1,269.4 L 770.0,269.4" fill="none" stroke="#34C759" stroke-width="2.5" stroke-linejoin="round" clip-path="url(#ca)"/>
<text x="104.5" y="55.0" text-anchor="middle" font-size="9" fill="#4F8EF7" opacity="0.85" clip-path="url(#ca)">+0.5% (+8)</text>
<text x="104.5" y="66.0" text-anchor="middle" font-size="9" fill="#BF5AF2" opacity="0.85" clip-path="url(#ca)">+1.0% (+10)</text>
<text x="104.5" y="77.0" text-anchor="middle" font-size="9" fill="#34C759" opacity="0.85" clip-path="url(#ca)">+1.5% (+11)</text>
<text x="216.9" y="55.0" text-anchor="middle" font-size="9" fill="#4F8EF7" opacity="0.85" clip-path="url(#ca)">+4.0% (+65)</text>
<text x="216.9" y="66.0" text-anchor="middle" font-size="9" fill="#BF5AF2" opacity="0.85" clip-path="url(#ca)">+3.5% (+35)</text>
<text x="216.9" y="77.0" text-anchor="middle" font-size="9" fill="#34C759" opacity="0.85" clip-path="url(#ca)">+3.6% (+27)</text>
<text x="373.7" y="55.0" text-anchor="middle" font-size="9" fill="#4F8EF7" opacity="0.85" clip-path="url(#ca)">+4.1% (+70)</text>
<text x="373.7" y="66.0" text-anchor="middle" font-size="9" fill="#BF5AF2" opacity="0.85" clip-path="url(#ca)">+3.5% (+36)</text>
<text x="373.7" y="77.0" text-anchor="middle" font-size="9" fill="#34C759" opacity="0.85" clip-path="url(#ca)">+3.3% (+26)</text>
<text x="533.4" y="55.0" text-anchor="middle" font-size="9" fill="#4F8EF7" opacity="0.85" clip-path="url(#ca)">+3.5% (+61)</text>
<text x="533.4" y="66.0" text-anchor="middle" font-size="9" fill="#BF5AF2" opacity="0.85" clip-path="url(#ca)">+2.7% (+29)</text>
<text x="533.4" y="77.0" text-anchor="middle" font-size="9" fill="#34C759" opacity="0.85" clip-path="url(#ca)">+2.6% (+21)</text>
<text x="693.1" y="55.0" text-anchor="middle" font-size="9" fill="#4F8EF7" opacity="0.85" clip-path="url(#ca)">+2.7% (+49)</text>
<text x="693.1" y="66.0" text-anchor="middle" font-size="9" fill="#BF5AF2" opacity="0.85" clip-path="url(#ca)">+3.0% (+33)</text>
<text x="693.1" y="77.0" text-anchor="middle" font-size="9" fill="#34C759" opacity="0.85" clip-path="url(#ca)">+3.2% (+27)</text>
<rect x="211" y="369" width="12" height="12" fill="#4F8EF7" rx="2"/>
<text x="227" y="379" font-size="12" fill="#111827">Authors</text>
<rect x="351" y="369" width="12" height="12" fill="#BF5AF2" rx="2"/>
<text x="367" y="379" font-size="12" fill="#111827">Contributors</text>
<rect x="491" y="369" width="12" height="12" fill="#34C759" rx="2"/>
<text x="507" y="379" font-size="12" fill="#111827">Non-author contributors</text>
<text x="72" y="394" font-size="8" fill="#e5e7eb">data since Dec 11, 2025</text>
</svg>