<svg xmlns="http://www.w3.org/2000/svg" width="800" height="400" viewBox="0 0 800 400">
<defs>
  <style>text { font-family: -apple-system, BlinkMacSystemFont, 'Segoe UI', Roboto, sans-serif; }</style>
  <linearGradient id="g2" x1="0" y1="0" x2="0" y2="1">
  <stop offset="0%" stop-color="#4F8EF7" stop-opacity="0.25"/>
  <stop offset="100%" stop-color="#4F8EF7" stop-opacity="0"/>
</linearGradient>
<linearGradient id="g3" x1="0" y1="0" x2="0" y2="1">
  <stop offset="0%" stop-color="#BF5AF2" stop-opacity="0.25"/>
  <stop offset="100%" stop-color="#BF5AF2" stop-opacity="0"/>
</linearGradient>
<linearGradient id="g4" x1="0" y1="0" x2="0" y2="1">
  <stop offset="0%" stop-color="#34C759" stop-opacity="0.25"/>
  <stop offset="100%" stop-color="#34C759" stop-opacity="0"/>
</linearGradient>
  <clipPath id="ca"><rect x="72" y="45" width="698" height="295"/></clipPath>
</defs>
<rect width="800" height="400" fill="#ffffff" rx="12"/>
<text x="400" y="26" text-anchor="middle" font-size="15" font-weight="600" fill="#111827">Community Growth Over Time</text>
<line x1="72" y1="340.0" x2="770" y2="340.0" stroke="#f3f4f6" stroke-width="1"/>
<text x="66" y="344.0" text-anchor="end" font-size="11" fill="#6b7280">500</text>
<line x1="72" y1="241.7" x2="770" y2="241.7" stroke="#f3f4f6" stroke-width="1"/>
<text x="66" y="245.7" text-anchor="end" font-size="11" fill="#6b7280">1.0k</text>
<line x1="72" y1="143.3" x2="770" y2="143.3" stroke="#f3f4f6" stroke-width="1"/>
<text x="66" y="147.3" text-anchor="end" font-size="11" fill="#6b7280">1.5k</text>
<line x1="72" y1="45.0" x2="770" y2="45.0" stroke="#f3f4f6" stroke-width="1"/>
<text x="66" y="49.0" text-anchor="end" font-size="11" fill="#6b7280">2.0k</text>
<line x1="157.5" y1="45" x2="157.5" y2="340" stroke="#e5e7eb" stroke-width="1" stroke-dasharray="3,3" clip-path="url(#ca)"/>
<line x1="342.7" y1="45" x2="342.7" y2="340" stroke="#e5e7eb" stroke-width="1" stroke-dasharray="3,3" clip-path="url(#ca)"/>
<line x1="535.0" y1="45" x2="535.0" y2="340" stroke="#e5e7eb" stroke-width="1" stroke-dasharray="3,3" clip-path="url(#ca)"/>
<line x1="727.3" y1="45" x2="727.3" y2="340" stroke="#e5e7eb" stroke-width="1" stroke-dasharray="3,3" clip-path="url(#ca)"/>
<text x="72.0" y="358.0" text-anchor="middle" font-size="11" fill="#6b7280">Dec 11</text>
<text x="214.4" y="358.0" text-anchor="middle" font-size="11" fill="#6b7280">Jan 13</text>
<text x="349.8" y="358.0" text-anchor="middle" font-size="11" fill="#6b7280">Feb 2</text>
<text x="492.2" y="358.0" text-anchor="middle" font-size="11" fill="#6b7280">Feb 22</text>
<text x="627.6" y="358.0" text-anchor="middle" font-size="11" fill="#6b7280">Mar 15</text>
<text x="770.0" y="358.0" text-anchor="middle" font-size="11" fill="#6b7280">Apr 8</text>
<line x1="72" y1="45" x2="72" y2="340" stroke="#e5e7eb" stroke-width="1"/>
<line x1="72" y1="340" x2="770" y2="340" stroke="#e5e7eb" stroke-width="1"/>
<text x="-192.5" y="18" text-anchor="middle" font-size="12" fill="#6b7280" transform="rotate(-90)">People</text>
<path d="M 72.0,340 L 72.0,120.1 L 79.1,120.1 L 86.2,120.1 L 93.4,119.5 L 100.5,119.5 L 107.6,119.1 L 114.7,118.9 L 121.9,119.1 L 129.0,118.6 L 136.1,118.6 L 143.2,118.6 L 150.3,118.6 L 157.5,118.6 L 164.6,118.6 L 171.7,118.6 L 178.8,118.6 L 186.0,118.4 L 193.1,117.8 L 200.2,116.6 L 207.3,116.0 L 214.4,115.8 L 221.6,115.8 L 228.7,115.2 L 235.8,113.8 L 242.9,113.0 L 250.1,113.0 L 257.2,112.1 L 264.3,111.7 L 271.4,110.9 L 278.6,110.3 L 285.7,109.7 L 292.8,109.1 L 299.9,109.1 L 307.0,107.7 L 314.2,106.9 L 321.3,106.9 L 328.4,106.2 L 335.5,105.8 L 342.7,105.6 L 349.8,105.4 L 356.9,105.4 L 364.0,104.8 L 371.1,102.4 L 378.3,101.0 L 385.4,100.3 L 392.5,100.1 L 399.6,99.7 L 406.8,98.9 L 413.9,98.5 L 421.0,98.1 L 428.1,97.7 L 435.2,97.3 L 442.4,96.9 L 449.5,96.9 L 456.6,95.0 L 463.7,95.0 L 470.9,94.8 L 478.0,94.6 L 485.1,94.2 L 492.2,94.2 L 499.3,93.2 L 506.5,92.0 L 513.6,91.6 L 520.7,92.0 L 527.8,91.8 L 535.0,91.6 L 542.1,91.6 L 549.2,91.2 L 556.3,90.4 L 563.4,90.0 L 570.6,89.6 L 577.7,89.4 L 584.8,89.4 L 591.9,88.7 L 599.1,88.3 L 606.2,88.3 L 613.3,86.7 L 620.4,86.7 L 627.6,86.7 L 634.7,86.7 L 641.8,86.5 L 648.9,85.9 L 656.0,85.1 L 663.2,84.7 L 670.3,84.7 L 677.4,84.3 L 684.5,82.8 L 691.7,81.8 L 698.8,81.6 L 705.9,81.4 L 713.0,80.8 L 720.1,79.6 L 727.3,79.2 L 734.4,78.8 L 741.5,77.6 L 748.6,77.4 L 755.8,77.4 L 762.9,77.4 L 770.0,77.3 L 770.0,340 Z" fill="url(#g2)" clip-path="url(#ca)"/>
<path d="M 72.0,120.1 L 79.1,120.1 L 86.2,120.1 L 93.4,119.5 L 100.5,119.5 L 107.6,119.1 L 114.7,118.9 L 121.9,119.1 L 129.0,118.6 L 136.1,118.6 L 143.2,118.6 L 150.3,118.6 L 157.5,118.6 L 164.6,118.6 L 171.7,118.6 L 178.8,118.6 L 186.0,118.4 L 193.1,117.8 L 200.2,116.6 L 207.3,116.0 L 214.4,115.8 L 221.6,115.8 L 228.7,115.2 L 235.8,113.8 L 242.9,113.0 L 250.1,113.0 L 257.2,112.1 L 264.3,111.7 L 271.4,110.9 L 278.6,110.3 L 285.7,109.7 L 292.8,109.1 L 299.9,109.1 L 307.0,107.7 L 314.2,106.9 L 321.3,106.9 L 328.4,106.2 L 335.5,105.8 L 342.7,105.6 L 349.8,105.4 L 356.9,105.4 L 364.0,104.8 L 371.1,102.4 L 378.3,101.0 L 385.4,100.3 L 392.5,100.1 L 399.6,99.7 L 406.8,98.9 L 413.9,98.5 L 421.0,98.1 L 428.1,97.7 L 435.2,97.3 L 442.4,96.9 L 449.5,96.9 L 456.6,95.0 L 463.7,95.0 L 470.9,94.8 L 478.0,94.6 L 485.1,94.2 L 492.2,94.2 L 499.3,93.2 L 506.5,92.0 L 513.6,91.6 L 520.7,92.0 L 527.8,91.8 L 535.0,91.6 L 542.1,91.6 L 549.2,91.2 L 556.3,90.4 L 563.4,90.0 L 570.6,89.6 L 577.7,89.4 L 584.8,89.4 L 591.9,88.7 L 599.1,88.3 L 606.2,88.3 L 613.3,86.7 L 620.4,86.7 L 627.6,86.7 L 634.7,86.7 L 641.8,86.5 L 648.9,85.9 L 656.0,85.1 L 663.2,84.7 L 670.3,84.7 L 677.4,84.3 L 684.5,82.8 L 691.7,81.8 L 698.8,81.6 L 705.9,81.4 L 713.0,80.8 L 720.1,79.6 L 727.3,79.2 L 734.4,78.8 L 741.5,77.6 L 748.6,77.4 L 755.8,77.4 L 762.9,77.4 L 770.0,77.3" fill="none" stroke="#4F8EF7" stroke-width="2.5" stroke-linejoin="round" clip-path="url(#ca)"/>
<path d="M 72.0,340 L 72.0,244.2 L 79.1,243.6 L 86.2,243.6 L 93.4,243.6 L 100.5,243.4 L 107.6,243.0 L 114.7,242.8 L 121.9,242.6 L 129.0,242.6 L 136.1,242.5 L 143.2,242.3 L 150.3,242.3 L 157.5,242.3 L 164.6,242.3 L 171.7,242.3 L 178.8,242.3 L 186.0,241.9 L 193.1,241.9 L 200.2,241.9 L 207.3,241.1 L 214.4,240.9 L 221.6,240.5 L 228.7,239.7 L 235.8,239.5 L 242.9,239.5 L 250.1,239.5 L 257.2,238.9 L 264.3,238.5 L 271.4,238.5 L 278.6,238.1 L 285.7,237.9 L 292.8,237.5 L 299.9,237.5 L 307.0,237.3 L 314.2,236.6 L 321.3,236.0 L 328.4,235.6 L 335.5,235.4 L 342.7,235.4 L 349.8,235.2 L 356.9,234.8 L 364.0,234.8 L 371.1,234.6 L 378.3,234.0 L 385.4,233.6 L 392.5,233.6 L 399.6,233.6 L 406.8,233.6 L 413.9,233.4 L 421.0,232.8 L 428.1,232.4 L 435.2,232.2 L 442.4,232.0 L 449.5,231.8 L 456.6,231.6 L 463.7,231.4 L 470.9,231.2 L 478.0,230.7 L 485.1,230.5 L 492.2,230.3 L 499.3,229.5 L 506.5,228.7 L 513.6,228.7 L 520.7,228.5 L 527.8,228.3 L 535.0,228.3 L 542.1,228.3 L 549.2,227.9 L 556.3,227.9 L 563.4,226.7 L 570.6,226.5 L 577.7,226.3 L 584.8,226.3 L 591.9,225.9 L 599.1,225.7 L 606.2,225.7 L 613.3,225.5 L 620.4,225.5 L 627.6,225.5 L 634.7,225.1 L 641.8,224.9 L 648.9,224.0 L 656.0,224.2 L 663.2,224.0 L 670.3,223.8 L 677.4,223.8 L 684.5,223.6 L 691.7,223.0 L 698.8,223.0 L 705.9,223.0 L 713.0,223.0 L 720.1,222.6 L 727.3,222.6 L 734.4,222.2 L 741.5,221.8 L 748.6,221.0 L 755.8,221.0 L 762.9,220.6 L 770.0,220.4 L 770.0,340 Z" fill="url(#g3)" clip-path="url(#ca)"/>
<path d="M 72.0,244.2 L 79.1,243.6 L 86.2,243.6 L 93.4,243.6 L 100.5,243.4 L 107.6,243.0 L 114.7,242.8 L 121.9,242.6 L 129.0,242.6 L 136.1,242.5 L 143.2,242.3 L 150.3,242.3 L 157.5,242.3 L 164.6,242.3 L 171.7,242.3 L 178.8,242.3 L 186.0,241.9 L 193.1,241.9 L 200.2,241.9 L 207.3,241.1 L 214.4,240.9 L 221.6,240.5 L 228.7,239.7 L 235.8,239.5 L 242.9,239.5 L 250.1,239.5 L 257.2,238.9 L 264.3,238.5 L 271.4,238.5 L 278.6,238.1 L 285.7,237.9 L 292.8,237.5 L 299.9,237.5 L 307.0,237.3 L 314.2,236.6 L 321.3,236.0 L 328.4,235.6 L 335.5,235.4 L 342.7,235.4 L 349.8,235.2 L 356.9,234.8 L 364.0,234.8 L 371.1,234.6 L 378.3,234.0 L 385.4,233.6 L 392.5,233.6 L 399.6,233.6 L 406.8,233.6 L 413.9,233.4 L 421.0,232.8 L 428.1,232.4 L 435.2,232.2 L 442.4,232.0 L 449.5,231.8 L 456.6,231.6 L 463.7,231.4 L 470.9,231.2 L 478.0,230.7 L 485.1,230.5 L 492.2,230.3 L 499.3,229.5 L 506.5,228.7 L 513.6,228.7 L 520.7,228.5 L 527.8,228.3 L 535.0,228.3 L 542.1,228.3 L 549.2,227.9 L 556.3,227.9 L 563.4,226.7 L 570.6,226.5 L 577.7,226.3 L 584.8,226.3 L 591.9,225.9 L 599.1,225.7 L 606.2,225.7 L 613.3,225.5 L 620.4,225.5 L 627.6,225.5 L 634.7,225.1 L 641.8,224.9 L 648.9,224.0 L 656.0,224.2 L 663.2,224.0 L 670.3,223.8 L 677.4,223.8 L 684.5,223.6 L 691.7,223.0 L 698.8,223.0 L 705.9,223.0 L 713.0,223.0 L 720.1,222.6 L 727.3,222.6 L 734.4,222.2 L 741.5,221.8 L 748.6,221.0 L 755.8,221.0 L 762.9,220.6 L 770.0,220.4" fill="none" stroke="#BF5AF2" stroke-width="2.5" stroke-linejoin="round" clip-path="url(#ca)"/>
<path d="M 72.0,340 L 72.0,291.4 L 79.1,290.8 L 86.2,290.8 L 93.4,290.8 L 100.5,290.6 L 107.6,290.2 L 114.7,290.0 L 121.9,289.7 L 129.0,289.7 L 136.1,289.5 L 143.2,289.3 L 150.3,289.3 L 157.5,289.3 L 164.6,289.3 L 171.7,289.3 L 178.8,289.3 L 186.0,288.9 L 193.1,288.9 L 200.2,289.1 L 207.3,288.5 L 214.4,288.7 L 221.6,288.1 L 228.7,287.5 L 235.8,287.3 L 242.9,287.5 L 250.1,287.5 L 257.2,286.9 L 264.3,286.7 L 271.4,286.7 L 278.6,286.3 L 285.7,286.1 L 292.8,285.7 L 299.9,285.7 L 307.0,285.5 L 314.2,284.9 L 321.3,284.3 L 328.4,283.9 L 335.5,283.9 L 342.7,283.9 L 349.8,283.8 L 356.9,283.4 L 364.0,283.4 L 371.1,283.2 L 378.3,282.6 L 385.4,282.4 L 392.5,282.4 L 399.6,282.4 L 406.8,282.4 L 413.9,282.2 L 421.0,281.6 L 428.1,281.4 L 435.2,281.2 L 442.4,281.0 L 449.5,281.0 L 456.6,280.8 L 463.7,280.8 L 470.9,280.8 L 478.0,280.2 L 485.1,280.2 L 492.2,280.2 L 499.3,279.8 L 506.5,279.2 L 513.6,279.2 L 520.7,279.0 L 527.8,278.8 L 535.0,278.8 L 542.1,278.8 L 549.2,278.4 L 556.3,278.4 L 563.4,277.3 L 570.6,277.1 L 577.7,276.9 L 584.8,276.9 L 591.9,276.7 L 599.1,276.7 L 606.2,276.7 L 613.3,276.7 L 620.4,276.7 L 627.6,276.7 L 634.7,276.3 L 641.8,276.1 L 648.9,275.1 L 656.0,275.3 L 663.2,275.3 L 670.3,275.1 L 677.4,275.1 L 684.5,275.1 L 691.7,274.7 L 698.8,274.7 L 705.9,274.7 L 713.0,274.7 L 720.1,274.7 L 727.3,274.7 L 734.4,274.5 L 741.5,274.5 L 748.6,273.7 L 755.8,273.7 L 762.9,273.5 L 770.0,273.3 L 770.0,340 Z" fill="url(#g4)" clip-path="url(#ca)"/>
<path d="M 72.0,291.4 L 79.1,290.8 L 86.2,290.8 L 93.4,290.8 L 100.5,290.6 L 107.6,290.2 L 114.7,290.0 L 121.9,289.7 L 129.0,289.7 L 136.1,289.5 L 143.2,289.3 L 150.3,289.3 L 157.5,289.3 L 164.6,289.3 L 171.7,289.3 L 178.8,289.3 L 186.0,288.9 L 193.1,288.9 L 200.2,289.1 L 207.3,288.5 L 214.4,288.7 L 221.6,288.1 L 228.7,287.5 L 235.8,287.3 L 242.9,287.5 L 250.1,287.5 L 257.2,286.9 L 264.3,286.7 L 271.4,286.7 L 278.6,286.3 L 285.7,286.1 L 292.8,285.7 L 299.9,285.7 L 307.0,285.5 L 314.2,284.9 L 321.3,284.3 L 328.4,283.9 L 335.5,283.9 L 342.7,283.9 L 349.8,283.8 L 356.9,283.4 L 364.0,283.4 L 371.1,283.2 L 378.3,282.6 L 385.4,282.4 L 392.5,282.4 L 399.6,282.4 L 406.8,282.4 L 413.9,282.2 L 421.0,281.6 L 428.1,281.4 L 435.2,281.2 L 442.4,281.0 L 449.5,281.0 L 456.6,280.8 L 463.7,280.8 L 470.9,280.8 L 478.0,280.2 L 485.1,280.2 L 492.2,280.2 L 499.3,279.8 L 506.5,279.2 L 513.6,279.2 L 520.7,279.0 L 527.8,278.8 L 535.0,278.8 L 542.1,278.8 L 549.2,278.4 L 556.3,278.4 L 563.4,277.3 L 570.6,277.1 L 577.7,276.9 L 584.8,276.9 L 591.9,276.7 L 599.1,276.7 L 606.2,276.7 L 613.3,276.7 L 620.4,276.7 L 627.6,276.7 L 634.7,276.3 L 641.8,276.1 L 648.9,275.1 L 656.0,275.3 L 663.2,275.3 L 670.3,275.1 L 677.4,275.1 L 684.5,275.1 L 691.7,274.7 L 698.8,274.7 L 705.9,274.7 L 713.0,274.7 L 720.1,274.7 L 727.3,274.7 L 734.4,274.5 L 741.5,274.5 L 748.6,273.7 L 755.8,273.7 L 762.9,273.5 L 770.0,273.3" fill="none" stroke="#34C759" stroke-width="2.5" stroke-linejoin="round" clip-path="url(#ca)"/>
<text x="111.2" y="55.0" text-anchor="middle" font-size="9" fill="#4F8EF7" opacity="0.85" clip-path="url(#ca)">+0.5% (+8)</text>
<text x="111.2" y="66.0" text-anchor="middle" font-size="9" fill="#BF5AF2" opacity="0.85" clip-path="url(#ca)">+1.0% (+10)</text>
<text x="111.2" y="77.0" text-anchor="middle" font-size="9" fill="#34C759" opacity="0.85" clip-path="url(#ca)">+1.5% (+11)</text>
<text x="246.5" y="55.0" text-anchor="middle" font-size="9" fill="#4F8EF7" opacity="0.85" clip-path="url(#ca)">+4.0% (+65)</text>
<text x="246.5" y="66.0" text-anchor="middle" font-size="9" fill="#BF5AF2" opacity="0.85" clip-path="url(#ca)">+3.5% (+35)</text>
<text x="246.5" y="77.0" text-anchor="middle" font-size="9" fill="#34C759" opacity="0.85" clip-path="url(#ca)">+3.6% (+27)</text>
<text x="435.2" y="55.0" text-anchor="middle" font-size="9" fill="#4F8EF7" opacity="0.85" clip-path="url(#ca)">+4.1% (+70)</text>
<text x="435.2" y="66.0" text-anchor="middle" font-size="9" fill="#BF5AF2" opacity="0.85" clip-path="url(#ca)">+3.5% (+36)</text>
<text x="435.2" y="77.0" text-anchor="middle" font-size="9" fill="#34C759" opacity="0.85" clip-path="url(#ca)">+3.3% (+26)</text>
<text x="627.6" y="55.0" text-anchor="middle" font-size="9" fill="#4F8EF7" opacity="0.85" clip-path="url(#ca)">+3.5% (+61)</text>
<text x="627.6" y="66.0" text-anchor="middle" font-size="9" fill="#BF5AF2" opacity="0.85" clip-path="url(#ca)">+2.7% (+29)</text>
<text x="627.6" y="77.0" text-anchor="middle" font-size="9" fill="#34C759" opacity="0.85" clip-path="url(#ca)">+2.6% (+21)</text>
<text x="748.6" y="55.0" text-anchor="middle" font-size="9" fill="#4F8EF7" opacity="0.85" clip-path="url(#ca)">+0.5% (+10)</text>
<text x="748.6" y="66.0" text-anchor="middle" font-size="9" fill="#BF5AF2" opacity="0.85" clip-path="url(#ca)">+1.0% (+11)</text>
<text x="748.6" y="77.0" text-anchor="middle" font-size="9" fill="#34C759" opacity="0.85" clip-path="url(#ca)">+0.8% (+7)</text>
<rect x="211" y="369" width="12" height="12" fill="#4F8EF7" rx="2"/>
<text x="227" y="379" font-size="12" fill="#111827">Authors</text>
<rect x="351" y="369" width="12" height="12" fill="#BF5AF2" rx="2"/>
<text x="367" y="379" font-size="12" fill="#111827">Contributors</text>
<rect x="491" y="369" width="12" height="12" fill="#34C759" rx="2"/>
<text x="507" y="379" font-size="12" fill="#111827">Non-author contributors</text>
<text x="72" y="394" font-size="8" fill="#e5e7eb">data since Dec 11, 2025</text>
</svg>