<svg xmlns="http://www.w3.org/2000/svg" width="800" height="400" viewBox="0 0 800 400">
<defs>
  <style>text { font-family: -apple-system, BlinkMacSystemFont, 'Segoe UI', Roboto, sans-serif; }</style>
  <linearGradient id="g5" x1="0" y1="0" x2="0" y2="1">
  <stop offset="0%" stop-color="#34C759" stop-opacity="0.25"/>
  <stop offset="100%" stop-color="#34C759" stop-opacity="0"/>
</linearGradient>
<linearGradient id="g6" x1="0" y1="0" x2="0" y2="1">
  <stop offset="0%" stop-color="#4F8EF7" stop-opacity="0.25"/>
  <stop offset="100%" stop-color="#4F8EF7" stop-opacity="0"/>
</linearGradient>
<linearGradient id="g7" x1="0" y1="0" x2="0" y2="1">
  <stop offset="0%" stop-color="#FF6363" stop-opacity="0.25"/>
  <stop offset="100%" stop-color="#FF6363" stop-opacity="0"/>
</linearGradient>
  <clipPath id="ca"><rect x="72" y="45" width="698" height="295"/></clipPath>
</defs>
<rect width="800" height="400" fill="#ffffff" rx="12"/>
<text x="400" y="26" text-anchor="middle" font-size="15" font-weight="600" fill="#111827">Platform Support Over Time</text>
<line x1="72" y1="340.0" x2="770" y2="340.0" stroke="#f3f4f6" stroke-width="1"/>
<text x="66" y="344.0" text-anchor="end" font-size="11" fill="#6b7280">0</text>
<line x1="72" y1="281.0" x2="770" y2="281.0" stroke="#f3f4f6" stroke-width="1"/>
<text x="66" y="285.0" text-anchor="end" font-size="11" fill="#6b7280">200</text>
<line x1="72" y1="222.0" x2="770" y2="222.0" stroke="#f3f4f6" stroke-width="1"/>
<text x="66" y="226.0" text-anchor="end" font-size="11" fill="#6b7280">400</text>
<line x1="72" y1="163.0" x2="770" y2="163.0" stroke="#f3f4f6" stroke-width="1"/>
<text x="66" y="167.0" text-anchor="end" font-size="11" fill="#6b7280">600</text>
<line x1="72" y1="104.0" x2="770" y2="104.0" stroke="#f3f4f6" stroke-width="1"/>
<text x="66" y="108.0" text-anchor="end" font-size="11" fill="#6b7280">800</text>
<line x1="72" y1="45.0" x2="770" y2="45.0" stroke="#f3f4f6" stroke-width="1"/>
<text x="66" y="49.0" text-anchor="end" font-size="11" fill="#6b7280">1.0k</text>
<line x1="118.0" y1="45" x2="118.0" y2="340" stroke="#e5e7eb" stroke-width="1" stroke-dasharray="3,3" clip-path="url(#ca)"/>
<line x1="217.7" y1="45" x2="217.7" y2="340" stroke="#e5e7eb" stroke-width="1" stroke-dasharray="3,3" clip-path="url(#ca)"/>
<line x1="321.3" y1="45" x2="321.3" y2="340" stroke="#e5e7eb" stroke-width="1" stroke-dasharray="3,3" clip-path="url(#ca)"/>
<line x1="424.8" y1="45" x2="424.8" y2="340" stroke="#e5e7eb" stroke-width="1" stroke-dasharray="3,3" clip-path="url(#ca)"/>
<line x1="528.4" y1="45" x2="528.4" y2="340" stroke="#e5e7eb" stroke-width="1" stroke-dasharray="3,3" clip-path="url(#ca)"/>
<line x1="628.1" y1="45" x2="628.1" y2="340" stroke="#e5e7eb" stroke-width="1" stroke-dasharray="3,3" clip-path="url(#ca)"/>
<line x1="720.1" y1="45" x2="720.1" y2="340" stroke="#e5e7eb" stroke-width="1" stroke-dasharray="3,3" clip-path="url(#ca)"/>
<text x="72.0" y="358.0" text-anchor="middle" font-size="11" fill="#6b7280">Dec 11</text>
<text x="210.1" y="358.0" text-anchor="middle" font-size="11" fill="#6b7280">Jan 30</text>
<text x="352.0" y="358.0" text-anchor="middle" font-size="11" fill="#6b7280">Mar 10</text>
<text x="490.0" y="358.0" text-anchor="middle" font-size="11" fill="#6b7280">Apr 19</text>
<text x="631.9" y="358.0" text-anchor="middle" font-size="11" fill="#6b7280">Jun 3</text>
<text x="770.0" y="358.0" text-anchor="middle" font-size="11" fill="#6b7280">Jul 17</text>
<line x1="72" y1="45" x2="72" y2="340" stroke="#e5e7eb" stroke-width="1"/>
<line x1="72" y1="340" x2="770" y2="340" stroke="#e5e7eb" stroke-width="1"/>
<text x="-192.5" y="18" text-anchor="middle" font-size="12" fill="#6b7280" transform="rotate(-90)">Extensions</text>
<path d="M 72.0,340 L 72.0,242.6 L 75.8,240.0 L 79.7,239.7 L 83.5,238.5 L 87.3,237.9 L 91.2,235.0 L 95.0,233.2 L 98.8,232.3 L 102.7,230.8 L 106.5,229.1 L 110.4,228.2 L 114.2,227.9 L 118.0,227.0 L 121.9,226.4 L 125.7,226.1 L 129.5,225.2 L 133.4,224.4 L 137.2,223.5 L 141.0,222.6 L 144.9,221.4 L 148.7,220.5 L 152.5,219.6 L 156.4,218.8 L 160.2,217.0 L 164.0,216.4 L 167.9,216.4 L 171.7,214.3 L 175.5,213.7 L 179.4,213.2 L 183.2,212.6 L 187.1,211.1 L 190.9,209.0 L 194.7,208.7 L 198.6,208.4 L 202.4,206.7 L 206.2,206.1 L 210.1,204.6 L 213.9,204.3 L 217.7,204.0 L 221.6,203.4 L 225.4,203.4 L 229.2,203.4 L 233.1,199.3 L 236.9,199.0 L 240.7,198.1 L 244.6,197.8 L 248.4,197.5 L 252.3,196.6 L 256.1,196.0 L 259.9,195.4 L 263.8,193.7 L 267.6,193.7 L 271.4,193.7 L 275.3,193.4 L 279.1,190.4 L 282.9,189.6 L 286.8,189.0 L 290.6,188.1 L 294.4,187.5 L 298.3,187.5 L 302.1,186.0 L 305.9,183.9 L 309.8,183.4 L 313.6,183.1 L 317.5,182.2 L 321.3,182.2 L 325.1,181.6 L 329.0,180.7 L 332.8,180.1 L 336.6,178.9 L 340.5,177.8 L 344.3,177.5 L 348.1,177.5 L 352.0,176.3 L 355.8,176.3 L 359.6,176.3 L 363.5,174.5 L 367.3,174.2 L 371.1,173.9 L 375.0,173.9 L 378.8,173.6 L 382.6,172.4 L 386.5,171.9 L 390.3,171.0 L 394.2,171.0 L 398.0,170.7 L 401.8,169.5 L 405.7,168.6 L 409.5,168.6 L 413.3,168.3 L 417.2,167.7 L 421.0,165.7 L 424.8,165.1 L 428.7,164.2 L 432.5,164.2 L 436.3,163.6 L 440.2,163.3 L 444.0,163.0 L 447.8,162.7 L 451.7,162.4 L 455.5,162.4 L 459.4,162.1 L 463.2,161.8 L 467.0,160.9 L 470.9,159.8 L 474.7,159.5 L 478.5,158.6 L 482.4,158.6 L 486.2,157.4 L 490.0,157.1 L 493.9,157.1 L 497.7,157.1 L 501.5,156.2 L 505.4,155.9 L 509.2,155.9 L 513.0,155.9 L 516.9,155.6 L 520.7,154.4 L 524.5,154.2 L 528.4,153.3 L 532.2,152.7 L 536.1,152.7 L 539.9,151.8 L 543.7,151.2 L 547.6,151.2 L 551.4,150.9 L 555.2,149.4 L 559.1,148.0 L 562.9,147.7 L 566.7,147.1 L 570.6,145.9 L 574.4,145.9 L 578.2,145.3 L 582.1,143.8 L 585.9,141.2 L 589.7,140.3 L 593.6,140.3 L 597.4,140.3 L 601.3,140.3 L 605.1,140.3 L 608.9,139.1 L 612.8,138.2 L 616.6,138.2 L 620.4,138.2 L 624.3,138.2 L 628.1,137.3 L 631.9,137.3 L 635.8,136.5 L 639.6,135.6 L 643.4,135.3 L 647.3,135.0 L 651.1,134.4 L 654.9,134.4 L 658.8,133.5 L 662.6,132.3 L 666.5,131.4 L 670.3,129.7 L 674.1,129.1 L 678.0,128.8 L 681.8,128.5 L 685.6,127.9 L 689.5,127.6 L 693.3,126.1 L 697.1,125.2 L 701.0,123.8 L 704.8,123.5 L 708.6,123.5 L 712.5,123.2 L 716.3,122.0 L 720.1,121.7 L 724.0,121.4 L 727.8,121.1 L 731.6,119.9 L 735.5,119.6 L 739.3,118.2 L 743.2,117.3 L 747.0,117.0 L 750.8,115.2 L 754.7,115.2 L 758.5,115.2 L 762.3,115.2 L 766.2,114.6 L 770.0,114.6 L 770.0,340 Z" fill="url(#g5)" clip-path="url(#ca)"/>
<path d="M 72.0,242.6 L 75.8,240.0 L 79.7,239.7 L 83.5,238.5 L 87.3,237.9 L 91.2,235.0 L 95.0,233.2 L 98.8,232.3 L 102.7,230.8 L 106.5,229.1 L 110.4,228.2 L 114.2,227.9 L 118.0,227.0 L 121.9,226.4 L 125.7,226.1 L 129.5,225.2 L 133.4,224.4 L 137.2,223.5 L 141.0,222.6 L 144.9,221.4 L 148.7,220.5 L 152.5,219.6 L 156.4,218.8 L 160.2,217.0 L 164.0,216.4 L 167.9,216.4 L 171.7,214.3 L 175.5,213.7 L 179.4,213.2 L 183.2,212.6 L 187.1,211.1 L 190.9,209.0 L 194.7,208.7 L 198.6,208.4 L 202.4,206.7 L 206.2,206.1 L 210.1,204.6 L 213.9,204.3 L 217.7,204.0 L 221.6,203.4 L 225.4,203.4 L 229.2,203.4 L 233.1,199.3 L 236.9,199.0 L 240.7,198.1 L 244.6,197.8 L 248.4,197.5 L 252.3,196.6 L 256.1,196.0 L 259.9,195.4 L 263.8,193.7 L 267.6,193.7 L 271.4,193.7 L 275.3,193.4 L 279.1,190.4 L 282.9,189.6 L 286.8,189.0 L 290.6,188.1 L 294.4,187.5 L 298.3,187.5 L 302.1,186.0 L 305.9,183.9 L 309.8,183.4 L 313.6,183.1 L 317.5,182.2 L 321.3,182.2 L 325.1,181.6 L 329.0,180.7 L 332.8,180.1 L 336.6,178.9 L 340.5,177.8 L 344.3,177.5 L 348.1,177.5 L 352.0,176.3 L 355.8,176.3 L 359.6,176.3 L 363.5,174.5 L 367.3,174.2 L 371.1,173.9 L 375.0,173.9 L 378.8,173.6 L 382.6,172.4 L 386.5,171.9 L 390.3,171.0 L 394.2,171.0 L 398.0,170.7 L 401.8,169.5 L 405.7,168.6 L 409.5,168.6 L 413.3,168.3 L 417.2,167.7 L 421.0,165.7 L 424.8,165.1 L 428.7,164.2 L 432.5,164.2 L 436.3,163.6 L 440.2,163.3 L 444.0,163.0 L 447.8,162.7 L 451.7,162.4 L 455.5,162.4 L 459.4,162.1 L 463.2,161.8 L 467.0,160.9 L 470.9,159.8 L 474.7,159.5 L 478.5,158.6 L 482.4,158.6 L 486.2,157.4 L 490.0,157.1 L 493.9,157.1 L 497.7,157.1 L 501.5,156.2 L 505.4,155.9 L 509.2,155.9 L 513.0,155.9 L 516.9,155.6 L 520.7,154.4 L 524.5,154.2 L 528.4,153.3 L 532.2,152.7 L 536.1,152.7 L 539.9,151.8 L 543.7,151.2 L 547.6,151.2 L 551.4,150.9 L 555.2,149.4 L 559.1,148.0 L 562.9,147.7 L 566.7,147.1 L 570.6,145.9 L 574.4,145.9 L 578.2,145.3 L 582.1,143.8 L 585.9,141.2 L 589.7,140.3 L 593.6,140.3 L 597.4,140.3 L 601.3,140.3 L 605.1,140.3 L 608.9,139.1 L 612.8,138.2 L 616.6,138.2 L 620.4,138.2 L 624.3,138.2 L 628.1,137.3 L 631.9,137.3 L 635.8,136.5 L 639.6,135.6 L 643.4,135.3 L 647.3,135.0 L 651.1,134.4 L 654.9,134.4 L 658.8,133.5 L 662.6,132.3 L 666.5,131.4 L 670.3,129.7 L 674.1,129.1 L 678.0,128.8 L 681.8,128.5 L 685.6,127.9 L 689.5,127.6 L 693.3,126.1 L 697.1,125.2 L 701.0,123.8 L 704.8,123.5 L 708.6,123.5 L 712.5,123.2 L 716.3,122.0 L 720.1,121.7 L 724.0,121.4 L 727.8,121.1 L 731.6,119.9 L 735.5,119.6 L 739.3,118.2 L 743.2,117.3 L 747.0,117.0 L 750.8,115.2 L 754.7,115.2 L 758.5,115.2 L 762.3,115.2 L 766.2,114.6 L 770.0,114.6" fill="none" stroke="#34C759" stroke-width="2.5" stroke-linejoin="round" clip-path="url(#ca)"/>
<path d="M 72.0,340 L 72.0,222.6 L 75.8,222.6 L 79.7,222.3 L 83.5,221.4 L 87.3,221.7 L 91.2,221.7 L 95.0,220.5 L 98.8,219.6 L 102.7,219.6 L 106.5,219.9 L 110.4,219.6 L 114.2,219.3 L 118.0,219.1 L 121.9,219.1 L 125.7,219.1 L 129.5,219.3 L 133.4,218.8 L 137.2,218.2 L 141.0,216.4 L 144.9,215.2 L 148.7,215.2 L 152.5,214.9 L 156.4,213.2 L 160.2,210.5 L 164.0,209.6 L 167.9,209.0 L 171.7,207.0 L 175.5,205.5 L 179.4,204.9 L 183.2,204.3 L 187.1,203.7 L 190.9,203.4 L 194.7,203.4 L 198.6,201.3 L 202.4,200.8 L 206.2,200.2 L 210.1,200.2 L 213.9,198.7 L 217.7,198.4 L 221.6,197.5 L 225.4,196.3 L 229.2,194.9 L 233.1,192.8 L 236.9,190.7 L 240.7,190.4 L 244.6,189.8 L 248.4,189.3 L 252.3,187.5 L 256.1,187.5 L 259.9,186.9 L 263.8,186.0 L 267.6,185.4 L 271.4,184.2 L 275.3,184.5 L 279.1,181.0 L 282.9,180.7 L 286.8,180.4 L 290.6,179.8 L 294.4,178.0 L 298.3,178.0 L 302.1,176.3 L 305.9,174.2 L 309.8,174.2 L 313.6,174.2 L 317.5,173.9 L 321.3,173.6 L 325.1,173.3 L 329.0,171.9 L 332.8,170.1 L 336.6,169.5 L 340.5,168.3 L 344.3,168.3 L 348.1,167.4 L 352.0,165.7 L 355.8,164.8 L 359.6,164.5 L 363.5,162.4 L 367.3,162.1 L 371.1,162.1 L 375.0,161.8 L 378.8,161.8 L 382.6,160.3 L 386.5,159.8 L 390.3,158.9 L 394.2,158.6 L 398.0,158.0 L 401.8,155.6 L 405.7,152.4 L 409.5,152.1 L 413.3,151.5 L 417.2,151.2 L 421.0,149.7 L 424.8,118.5 L 428.7,117.9 L 432.5,116.4 L 436.3,116.4 L 440.2,116.4 L 444.0,116.7 L 447.8,116.4 L 451.7,114.6 L 455.5,114.0 L 459.4,113.7 L 463.2,113.4 L 467.0,112.3 L 470.9,110.5 L 474.7,110.5 L 478.5,110.5 L 482.4,110.2 L 486.2,109.9 L 490.0,109.9 L 493.9,109.3 L 497.7,108.4 L 501.5,106.9 L 505.4,106.4 L 509.2,106.1 L 513.0,106.1 L 516.9,105.8 L 520.7,105.2 L 524.5,104.9 L 528.4,103.4 L 532.2,103.4 L 536.1,102.8 L 539.9,101.6 L 543.7,100.2 L 547.6,99.9 L 551.4,99.6 L 555.2,96.9 L 559.1,96.3 L 562.9,95.7 L 566.7,95.7 L 570.6,94.6 L 574.4,94.0 L 578.2,92.5 L 582.1,91.9 L 585.9,91.0 L 589.7,90.7 L 593.6,89.5 L 597.4,88.7 L 601.3,88.4 L 605.1,87.8 L 608.9,86.6 L 612.8,86.0 L 616.6,85.1 L 620.4,84.5 L 624.3,84.2 L 628.1,83.6 L 631.9,82.8 L 635.8,82.2 L 639.6,81.6 L 643.4,80.7 L 647.3,80.7 L 651.1,80.1 L 654.9,78.6 L 658.8,77.2 L 662.6,76.3 L 666.5,76.6 L 670.3,76.0 L 674.1,75.7 L 678.0,75.4 L 681.8,74.8 L 685.6,73.3 L 689.5,73.3 L 693.3,73.0 L 697.1,72.1 L 701.0,71.3 L 704.8,70.1 L 708.6,69.5 L 712.5,69.5 L 716.3,68.6 L 720.1,68.0 L 724.0,67.4 L 727.8,66.5 L 731.6,65.9 L 735.5,65.9 L 739.3,65.6 L 743.2,66.2 L 747.0,65.6 L 750.8,64.2 L 754.7,63.3 L 758.5,62.7 L 762.3,62.1 L 766.2,60.9 L 770.0,58.9 L 770.0,340 Z" fill="url(#g6)" clip-path="url(#ca)"/>
<path d="M 72.0,222.6 L 75.8,222.6 L 79.7,222.3 L 83.5,221.4 L 87.3,221.7 L 91.2,221.7 L 95.0,220.5 L 98.8,219.6 L 102.7,219.6 L 106.5,219.9 L 110.4,219.6 L 114.2,219.3 L 118.0,219.1 L 121.9,219.1 L 125.7,219.1 L 129.5,219.3 L 133.4,218.8 L 137.2,218.2 L 141.0,216.4 L 144.9,215.2 L 148.7,215.2 L 152.5,214.9 L 156.4,213.2 L 160.2,210.5 L 164.0,209.6 L 167.9,209.0 L 171.7,207.0 L 175.5,205.5 L 179.4,204.9 L 183.2,204.3 L 187.1,203.7 L 190.9,203.4 L 194.7,203.4 L 198.6,201.3 L 202.4,200.8 L 206.2,200.2 L 210.1,200.2 L 213.9,198.7 L 217.7,198.4 L 221.6,197.5 L 225.4,196.3 L 229.2,194.9 L 233.1,192.8 L 236.9,190.7 L 240.7,190.4 L 244.6,189.8 L 248.4,189.3 L 252.3,187.5 L 256.1,187.5 L 259.9,186.9 L 263.8,186.0 L 267.6,185.4 L 271.4,184.2 L 275.3,184.5 L 279.1,181.0 L 282.9,180.7 L 286.8,180.4 L 290.6,179.8 L 294.4,178.0 L 298.3,178.0 L 302.1,176.3 L 305.9,174.2 L 309.8,174.2 L 313.6,174.2 L 317.5,173.9 L 321.3,173.6 L 325.1,173.3 L 329.0,171.9 L 332.8,170.1 L 336.6,169.5 L 340.5,168.3 L 344.3,168.3 L 348.1,167.4 L 352.0,165.7 L 355.8,164.8 L 359.6,164.5 L 363.5,162.4 L 367.3,162.1 L 371.1,162.1 L 375.0,161.8 L 378.8,161.8 L 382.6,160.3 L 386.5,159.8 L 390.3,158.9 L 394.2,158.6 L 398.0,158.0 L 401.8,155.6 L 405.7,152.4 L 409.5,152.1 L 413.3,151.5 L 417.2,151.2 L 421.0,149.7 L 424.8,118.5 L 428.7,117.9 L 432.5,116.4 L 436.3,116.4 L 440.2,116.4 L 444.0,116.7 L 447.8,116.4 L 451.7,114.6 L 455.5,114.0 L 459.4,113.7 L 463.2,113.4 L 467.0,112.3 L 470.9,110.5 L 474.7,110.5 L 478.5,110.5 L 482.4,110.2 L 486.2,109.9 L 490.0,109.9 L 493.9,109.3 L 497.7,108.4 L 501.5,106.9 L 505.4,106.4 L 509.2,106.1 L 513.0,106.1 L 516.9,105.8 L 520.7,105.2 L 524.5,104.9 L 528.4,103.4 L 532.2,103.4 L 536.1,102.8 L 539.9,101.6 L 543.7,100.2 L 547.6,99.9 L 551.4,99.6 L 555.2,96.9 L 559.1,96.3 L 562.9,95.7 L 566.7,95.7 L 570.6,94.6 L 574.4,94.0 L 578.2,92.5 L 582.1,91.9 L 585.9,91.0 L 589.7,90.7 L 593.6,89.5 L 597.4,88.7 L 601.3,88.4 L 605.1,87.8 L 608.9,86.6 L 612.8,86.0 L 616.6,85.1 L 620.4,84.5 L 624.3,84.2 L 628.1,83.6 L 631.9,82.8 L 635.8,82.2 L 639.6,81.6 L 643.4,80.7 L 647.3,80.7 L 651.1,80.1 L 654.9,78.6 L 658.8,77.2 L 662.6,76.3 L 666.5,76.6 L 670.3,76.0 L 674.1,75.7 L 678.0,75.4 L 681.8,74.8 L 685.6,73.3 L 689.5,73.3 L 693.3,73.0 L 697.1,72.1 L 701.0,71.3 L 704.8,70.1 L 708.6,69.5 L 712.5,69.5 L 716.3,68.6 L 720.1,68.0 L 724.0,67.4 L 727.8,66.5 L 731.6,65.9 L 735.5,65.9 L 739.3,65.6 L 743.2,66.2 L 747.0,65.6 L 750.8,64.2 L 754.7,63.3 L 758.5,62.7 L 762.3,62.1 L 766.2,60.9 L 770.0,58.9" fill="none" stroke="#4F8EF7" stroke-width="2.5" stroke-linejoin="round" clip-path="url(#ca)"/>
<path d="M 72.0,340 L 72.0,338.2 L 75.8,337.9 L 79.7,337.9 L 83.5,337.6 L 87.3,337.6 L 91.2,337.6 L 95.0,337.6 L 98.8,337.6 L 102.7,337.1 L 106.5,337.1 L 110.4,337.1 L 114.2,337.1 L 118.0,337.1 L 121.9,336.8 L 125.7,336.8 L 129.5,336.8 L 133.4,336.8 L 137.2,336.8 L 141.0,336.5 L 144.9,335.9 L 148.7,335.6 L 152.5,335.6 L 156.4,335.6 L 160.2,335.3 L 164.0,335.3 L 167.9,335.3 L 171.7,335.0 L 175.5,335.0 L 179.4,335.0 L 183.2,334.7 L 187.1,334.7 L 190.9,334.7 L 194.7,334.7 L 198.6,334.4 L 202.4,334.4 L 206.2,334.4 L 210.1,334.4 L 213.9,334.4 L 217.7,334.4 L 221.6,334.4 L 225.4,334.4 L 229.2,334.4 L 233.1,334.4 L 236.9,334.4 L 240.7,334.4 L 244.6,334.4 L 248.4,334.1 L 252.3,334.1 L 256.1,334.1 L 259.9,334.1 L 263.8,334.1 L 267.6,334.1 L 271.4,334.1 L 275.3,334.1 L 279.1,334.1 L 282.9,334.1 L 286.8,334.1 L 290.6,334.1 L 294.4,333.8 L 298.3,333.8 L 302.1,333.8 L 305.9,333.8 L 309.8,333.8 L 313.6,333.8 L 317.5,333.8 L 321.3,333.8 L 325.1,333.8 L 329.0,333.8 L 332.8,333.8 L 336.6,333.8 L 340.5,333.8 L 344.3,333.8 L 348.1,333.8 L 352.0,333.8 L 355.8,333.8 L 359.6,333.8 L 363.5,333.8 L 367.3,333.8 L 371.1,333.8 L 375.0,333.8 L 378.8,333.8 L 382.6,333.8 L 386.5,333.8 L 390.3,333.8 L 394.2,333.8 L 398.0,333.8 L 401.8,333.8 L 405.7,333.8 L 409.5,333.8 L 413.3,333.8 L 417.2,333.8 L 421.0,333.8 L 424.8,333.8 L 428.7,333.8 L 432.5,333.5 L 436.3,333.5 L 440.2,333.5 L 444.0,333.5 L 447.8,333.5 L 451.7,333.2 L 455.5,333.2 L 459.4,333.2 L 463.2,333.2 L 467.0,332.9 L 470.9,332.9 L 474.7,332.6 L 478.5,332.6 L 482.4,332.6 L 486.2,332.6 L 490.0,332.6 L 493.9,332.6 L 497.7,332.6 L 501.5,332.6 L 505.4,332.6 L 509.2,332.6 L 513.0,332.6 L 516.9,332.6 L 520.7,332.6 L 524.5,332.6 L 528.4,332.6 L 532.2,332.6 L 536.1,332.6 L 539.9,332.6 L 543.7,332.6 L 547.6,332.6 L 551.4,332.6 L 555.2,332.6 L 559.1,332.6 L 562.9,332.6 L 566.7,332.6 L 570.6,332.6 L 574.4,332.6 L 578.2,332.6 L 582.1,332.6 L 585.9,332.6 L 589.7,332.6 L 593.6,332.6 L 597.4,332.6 L 601.3,332.6 L 605.1,332.6 L 608.9,332.6 L 612.8,332.6 L 616.6,332.6 L 620.4,332.6 L 624.3,332.6 L 628.1,332.6 L 631.9,332.6 L 635.8,332.6 L 639.6,332.6 L 643.4,332.6 L 647.3,332.6 L 651.1,332.6 L 654.9,332.6 L 658.8,332.3 L 662.6,332.3 L 666.5,332.3 L 670.3,332.3 L 674.1,332.3 L 678.0,332.3 L 681.8,332.3 L 685.6,332.3 L 689.5,332.3 L 693.3,332.3 L 697.1,332.3 L 701.0,332.0 L 704.8,332.0 L 708.6,332.0 L 712.5,332.0 L 716.3,332.0 L 720.1,332.0 L 724.0,332.0 L 727.8,332.0 L 731.6,332.0 L 735.5,332.0 L 739.3,332.0 L 743.2,332.0 L 747.0,332.0 L 750.8,332.0 L 754.7,331.7 L 758.5,331.7 L 762.3,331.7 L 766.2,331.7 L 770.0,331.7 L 770.0,340 Z" fill="url(#g7)" clip-path="url(#ca)"/>
<path d="M 72.0,338.2 L 75.8,337.9 L 79.7,337.9 L 83.5,337.6 L 87.3,337.6 L 91.2,337.6 L 95.0,337.6 L 98.8,337.6 L 102.7,337.1 L 106.5,337.1 L 110.4,337.1 L 114.2,337.1 L 118.0,337.1 L 121.9,336.8 L 125.7,336.8 L 129.5,336.8 L 133.4,336.8 L 137.2,336.8 L 141.0,336.5 L 144.9,335.9 L 148.7,335.6 L 152.5,335.6 L 156.4,335.6 L 160.2,335.3 L 164.0,335.3 L 167.9,335.3 L 171.7,335.0 L 175.5,335.0 L 179.4,335.0 L 183.2,334.7 L 187.1,334.7 L 190.9,334.7 L 194.7,334.7 L 198.6,334.4 L 202.4,334.4 L 206.2,334.4 L 210.1,334.4 L 213.9,334.4 L 217.7,334.4 L 221.6,334.4 L 225.4,334.4 L 229.2,334.4 L 233.1,334.4 L 236.9,334.4 L 240.7,334.4 L 244.6,334.4 L 248.4,334.1 L 252.3,334.1 L 256.1,334.1 L 259.9,334.1 L 263.8,334.1 L 267.6,334.1 L 271.4,334.1 L 275.3,334.1 L 279.1,334.1 L 282.9,334.1 L 286.8,334.1 L 290.6,334.1 L 294.4,333.8 L 298.3,333.8 L 302.1,333.8 L 305.9,333.8 L 309.8,333.8 L 313.6,333.8 L 317.5,333.8 L 321.3,333.8 L 325.1,333.8 L 329.0,333.8 L 332.8,333.8 L 336.6,333.8 L 340.5,333.8 L 344.3,333.8 L 348.1,333.8 L 352.0,333.8 L 355.8,333.8 L 359.6,333.8 L 363.5,333.8 L 367.3,333.8 L 371.1,333.8 L 375.0,333.8 L 378.8,333.8 L 382.6,333.8 L 386.5,333.8 L 390.3,333.8 L 394.2,333.8 L 398.0,333.8 L 401.8,333.8 L 405.7,333.8 L 409.5,333.8 L 413.3,333.8 L 417.2,333.8 L 421.0,333.8 L 424.8,333.8 L 428.7,333.8 L 432.5,333.5 L 436.3,333.5 L 440.2,333.5 L 444.0,333.5 L 447.8,333.5 L 451.7,333.2 L 455.5,333.2 L 459.4,333.2 L 463.2,333.2 L 467.0,332.9 L 470.9,332.9 L 474.7,332.6 L 478.5,332.6 L 482.4,332.6 L 486.2,332.6 L 490.0,332.6 L 493.9,332.6 L 497.7,332.6 L 501.5,332.6 L 505.4,332.6 L 509.2,332.6 L 513.0,332.6 L 516.9,332.6 L 520.7,332.6 L 524.5,332.6 L 528.4,332.6 L 532.2,332.6 L 536.1,332.6 L 539.9,332.6 L 543.7,332.6 L 547.6,332.6 L 551.4,332.6 L 555.2,332.6 L 559.1,332.6 L 562.9,332.6 L 566.7,332.6 L 570.6,332.6 L 574.4,332.6 L 578.2,332.6 L 582.1,332.6 L 585.9,332.6 L 589.7,332.6 L 593.6,332.6 L 597.4,332.6 L 601.3,332.6 L 605.1,332.6 L 608.9,332.6 L 612.8,332.6 L 616.6,332.6 L 620.4,332.6 L 624.3,332.6 L 628.1,332.6 L 631.9,332.6 L 635.8,332.6 L 639.6,332.6 L 643.4,332.6 L 647.3,332.6 L 651.1,332.6 L 654.9,332.6 L 658.8,332.3 L 662.6,332.3 L 666.5,332.3 L 670.3,332.3 L 674.1,332.3 L 678.0,332.3 L 681.8,332.3 L 685.6,332.3 L 689.5,332.3 L 693.3,332.3 L 697.1,332.3 L 701.0,332.0 L 704.8,332.0 L 708.6,332.0 L 712.5,332.0 L 716.3,332.0 L 720.1,332.0 L 724.0,332.0 L 727.8,332.0 L 731.6,332.0 L 735.5,332.0 L 739.3,332.0 L 743.2,332.0 L 747.0,332.0 L 750.8,332.0 L 754.7,331.7 L 758.5,331.7 L 762.3,331.7 L 766.2,331.7 L 770.0,331.7" fill="none" stroke="#FF6363" stroke-width="2.5" stroke-linejoin="round" clip-path="url(#ca)"/>
<text x="93.1" y="55.0" text-anchor="middle" font-size="9" fill="#34C759" opacity="0.85" clip-path="url(#ca)">+15.2% (+50)</text>
<text x="93.1" y="66.0" text-anchor="middle" font-size="9" fill="#4F8EF7" opacity="0.85" clip-path="url(#ca)">+2.8% (+11)</text>
<text x="93.1" y="77.0" text-anchor="middle" font-size="9" fill="#FF6363" opacity="0.85" clip-path="url(#ca)">+66.7% (+4)</text>
<text x="166.0" y="55.0" text-anchor="middle" font-size="9" fill="#34C759" opacity="0.85" clip-path="url(#ca)">+20.1% (+77)</text>
<text x="166.0" y="66.0" text-anchor="middle" font-size="9" fill="#4F8EF7" opacity="0.85" clip-path="url(#ca)">+16.8% (+69)</text>
<text x="166.0" y="77.0" text-anchor="middle" font-size="9" fill="#FF6363" opacity="0.85" clip-path="url(#ca)">+90.0% (+9)</text>
<text x="267.6" y="55.0" text-anchor="middle" font-size="9" fill="#34C759" opacity="0.85" clip-path="url(#ca)">+16.1% (+74)</text>
<text x="267.6" y="66.0" text-anchor="middle" font-size="9" fill="#4F8EF7" opacity="0.85" clip-path="url(#ca)">+17.3% (+83)</text>
<text x="267.6" y="77.0" text-anchor="middle" font-size="9" fill="#FF6363" opacity="0.85" clip-path="url(#ca)">+10.5% (+2)</text>
<text x="371.1" y="55.0" text-anchor="middle" font-size="9" fill="#34C759" opacity="0.85" clip-path="url(#ca)">+10.5% (+56)</text>
<text x="371.1" y="66.0" text-anchor="middle" font-size="9" fill="#4F8EF7" opacity="0.85" clip-path="url(#ca)">+14.4% (+81)</text>
<text x="371.1" y="77.0" text-anchor="middle" font-size="9" fill="#FF6363" opacity="0.85" clip-path="url(#ca)">+0.0% (+0)</text>
<text x="474.7" y="55.0" text-anchor="middle" font-size="9" fill="#34C759" opacity="0.85" clip-path="url(#ca)">+6.2% (+37)</text>
<text x="474.7" y="66.0" text-anchor="middle" font-size="9" fill="#4F8EF7" opacity="0.85" clip-path="url(#ca)">+6.1% (+46)</text>
<text x="474.7" y="77.0" text-anchor="middle" font-size="9" fill="#FF6363" opacity="0.85" clip-path="url(#ca)">+19.0% (+4)</text>
<text x="576.3" y="55.0" text-anchor="middle" font-size="9" fill="#34C759" opacity="0.85" clip-path="url(#ca)">+8.1% (+51)</text>
<text x="576.3" y="66.0" text-anchor="middle" font-size="9" fill="#4F8EF7" opacity="0.85" clip-path="url(#ca)">+8.1% (+65)</text>
<text x="576.3" y="77.0" text-anchor="middle" font-size="9" fill="#FF6363" opacity="0.85" clip-path="url(#ca)">+0.0% (+0)</text>
<text x="672.2" y="55.0" text-anchor="middle" font-size="9" fill="#34C759" opacity="0.85" clip-path="url(#ca)">+7.6% (+52)</text>
<text x="672.2" y="66.0" text-anchor="middle" font-size="9" fill="#4F8EF7" opacity="0.85" clip-path="url(#ca)">+5.9% (+51)</text>
<text x="672.2" y="77.0" text-anchor="middle" font-size="9" fill="#FF6363" opacity="0.85" clip-path="url(#ca)">+8.0% (+2)</text>
<text x="745.1" y="55.0" text-anchor="middle" font-size="9" fill="#34C759" opacity="0.85" clip-path="url(#ca)">+3.2% (+24)</text>
<text x="745.1" y="66.0" text-anchor="middle" font-size="9" fill="#4F8EF7" opacity="0.85" clip-path="url(#ca)">+3.4% (+31)</text>
<text x="745.1" y="77.0" text-anchor="middle" font-size="9" fill="#FF6363" opacity="0.85" clip-path="url(#ca)">+3.7% (+1)</text>
<rect x="211" y="369" width="12" height="12" fill="#34C759" rx="2"/>
<text x="227" y="379" font-size="12" fill="#111827">macOS + Windows</text>
<rect x="351" y="369" width="12" height="12" fill="#4F8EF7" rx="2"/>
<text x="367" y="379" font-size="12" fill="#111827">macOS only</text>
<rect x="491" y="369" width="12" height="12" fill="#FF6363" rx="2"/>
<text x="507" y="379" font-size="12" fill="#111827">Windows only</text>
<text x="72" y="394" font-size="8" fill="#e5e7eb">data since Dec 11, 2025</text>
</svg>