<svg xmlns="http://www.w3.org/2000/svg" width="800" height="400" viewBox="0 0 800 400">
<defs>
  <style>text { font-family: -apple-system, BlinkMacSystemFont, 'Segoe UI', Roboto, sans-serif; }</style>
  <linearGradient id="g1" x1="0" y1="0" x2="0" y2="1">
  <stop offset="0%" stop-color="#FF6363" stop-opacity="0.25"/>
  <stop offset="100%" stop-color="#FF6363" stop-opacity="0"/>
</linearGradient>
  <clipPath id="ca"><rect x="72" y="45" width="698" height="295"/></clipPath>
</defs>
<rect width="800" height="400" fill="#ffffff" rx="12"/>
<text x="400" y="26" text-anchor="middle" font-size="15" font-weight="600" fill="#111827">Packages Growth Over Time</text>
<line x1="72" y1="340.0" x2="770" y2="340.0" stroke="#f3f4f6" stroke-width="1"/>
<text x="66" y="344.0" text-anchor="end" font-size="11" fill="#6b7280">2.5k</text>
<line x1="72" y1="281.0" x2="770" y2="281.0" stroke="#f3f4f6" stroke-width="1"/>
<text x="66" y="285.0" text-anchor="end" font-size="11" fill="#6b7280">2.5k</text>
<line x1="72" y1="222.0" x2="770" y2="222.0" stroke="#f3f4f6" stroke-width="1"/>
<text x="66" y="226.0" text-anchor="end" font-size="11" fill="#6b7280">2.6k</text>
<line x1="72" y1="163.0" x2="770" y2="163.0" stroke="#f3f4f6" stroke-width="1"/>
<text x="66" y="167.0" text-anchor="end" font-size="11" fill="#6b7280">2.6k</text>
<line x1="72" y1="104.0" x2="770" y2="104.0" stroke="#f3f4f6" stroke-width="1"/>
<text x="66" y="108.0" text-anchor="end" font-size="11" fill="#6b7280">2.7k</text>
<line x1="72" y1="45.0" x2="770" y2="45.0" stroke="#f3f4f6" stroke-width="1"/>
<text x="66" y="49.0" text-anchor="end" font-size="11" fill="#6b7280">2.8k</text>
<text x="72.0" y="358.0" text-anchor="middle" font-size="11" fill="#6b7280">Dec 11</text>
<text x="207.7" y="358.0" text-anchor="middle" font-size="11" fill="#6b7280">Jan 5</text>
<text x="353.1" y="358.0" text-anchor="middle" font-size="11" fill="#6b7280">Jan 23</text>
<text x="488.9" y="358.0" text-anchor="middle" font-size="11" fill="#6b7280">Feb 6</text>
<text x="634.3" y="358.0" text-anchor="middle" font-size="11" fill="#6b7280">Feb 21</text>
<text x="770.0" y="358.0" text-anchor="middle" font-size="11" fill="#6b7280">Mar 6</text>
<line x1="72" y1="45" x2="72" y2="340" stroke="#e5e7eb" stroke-width="1"/>
<line x1="72" y1="340" x2="770" y2="340" stroke="#e5e7eb" stroke-width="1"/>
<text x="-192.5" y="18" text-anchor="middle" font-size="12" fill="#6b7280" transform="rotate(-90)">Extensions</text>
<path d="M 72.0,340 L 72.0,315.4 L 81.7,314.4 L 91.4,314.4 L 101.1,311.5 L 110.8,311.5 L 120.5,309.6 L 130.2,307.6 L 139.9,306.7 L 149.6,301.8 L 159.3,297.9 L 168.9,297.9 L 178.6,297.9 L 188.3,297.9 L 198.0,296.0 L 207.7,296.0 L 217.4,296.0 L 227.1,294.0 L 236.8,290.2 L 246.5,283.4 L 256.2,278.5 L 265.9,276.5 L 275.6,275.6 L 285.3,271.7 L 295.0,260.0 L 304.7,256.1 L 314.4,256.1 L 324.1,246.4 L 333.8,243.5 L 343.4,239.6 L 353.1,236.7 L 362.8,230.9 L 372.5,226.0 L 382.2,225.1 L 391.9,217.3 L 401.6,210.5 L 411.3,210.5 L 421.0,205.6 L 430.7,201.7 L 440.4,200.8 L 450.1,199.8 L 459.8,198.8 L 469.5,195.9 L 479.2,178.4 L 488.9,170.6 L 498.6,166.8 L 508.3,164.8 L 517.9,161.9 L 527.6,155.1 L 537.3,153.1 L 547.0,151.2 L 556.7,145.4 L 566.4,143.4 L 576.1,141.5 L 585.8,141.5 L 595.5,124.0 L 605.2,122.1 L 614.9,120.1 L 624.6,116.2 L 634.3,111.4 L 644.0,111.4 L 653.7,103.6 L 663.4,91.0 L 673.1,89.0 L 682.8,90.0 L 692.4,87.1 L 702.1,86.1 L 711.8,86.1 L 721.5,80.3 L 731.2,75.4 L 740.9,73.5 L 750.6,71.5 L 760.3,70.6 L 770.0,69.6 L 770.0,340 Z" fill="url(#g1)" clip-path="url(#ca)"/>
<path d="M 72.0,315.4 L 81.7,314.4 L 91.4,314.4 L 101.1,311.5 L 110.8,311.5 L 120.5,309.6 L 130.2,307.6 L 139.9,306.7 L 149.6,301.8 L 159.3,297.9 L 168.9,297.9 L 178.6,297.9 L 188.3,297.9 L 198.0,296.0 L 207.7,296.0 L 217.4,296.0 L 227.1,294.0 L 236.8,290.2 L 246.5,283.4 L 256.2,278.5 L 265.9,276.5 L 275.6,275.6 L 285.3,271.7 L 295.0,260.0 L 304.7,256.1 L 314.4,256.1 L 324.1,246.4 L 333.8,243.5 L 343.4,239.6 L 353.1,236.7 L 362.8,230.9 L 372.5,226.0 L 382.2,225.1 L 391.9,217.3 L 401.6,210.5 L 411.3,210.5 L 421.0,205.6 L 430.7,201.7 L 440.4,200.8 L 450.1,199.8 L 459.8,198.8 L 469.5,195.9 L 479.2,178.4 L 488.9,170.6 L 498.6,166.8 L 508.3,164.8 L 517.9,161.9 L 527.6,155.1 L 537.3,153.1 L 547.0,151.2 L 556.7,145.4 L 566.4,143.4 L 576.1,141.5 L 585.8,141.5 L 595.5,124.0 L 605.2,122.1 L 614.9,120.1 L 624.6,116.2 L 634.3,111.4 L 644.0,111.4 L 653.7,103.6 L 663.4,91.0 L 673.1,89.0 L 682.8,90.0 L 692.4,87.1 L 702.1,86.1 L 711.8,86.1 L 721.5,80.3 L 731.2,75.4 L 740.9,73.5 L 750.6,71.5 L 760.3,70.6 L 770.0,69.6" fill="none" stroke="#FF6363" stroke-width="2.5" stroke-linejoin="round" clip-path="url(#ca)"/>
<rect x="351" y="369" width="12" height="12" fill="#FF6363" rx="2"/>
<text x="367" y="379" font-size="12" fill="#111827">Extensions</text>
</svg>