<svg xmlns="http://www.w3.org/2000/svg" width="700" height="380" viewBox="0 0 700 380">
<defs><style>text { font-family: -apple-system, BlinkMacSystemFont, 'Segoe UI', Roboto, sans-serif; }</style></defs>
<rect width="700" height="380" fill="#ffffff" rx="12"/>
<text x="350" y="26" text-anchor="middle" font-size="15" font-weight="600" fill="#111827">Platform Distribution (Current)</text>
<path d="M 220.00 55.00 A 140 140 0 0 1 353.19 151.86 L 301.82 168.50 A 86 86 0 0 0 220.00 109.00 Z" fill="#34C759"/>
<path d="M 353.19 151.86 A 140 140 0 0 1 293.51 314.15 L 265.15 268.19 A 86 86 0 0 0 301.82 168.50 Z" fill="#4F8EF7"/>
<path d="M 293.51 314.15 A 140 140 0 0 1 287.66 317.56 L 261.56 270.29 A 86 86 0 0 0 265.15 268.19 Z" fill="#FF6363"/>
<path d="M 287.66 317.56 A 140 140 0 1 1 220.00 55.00 L 220.00 109.00 A 86 86 0 1 0 261.56 270.29 Z" fill="#e5e7eb"/>
<text x="220" y="185" text-anchor="middle" font-size="28" font-weight="700" fill="#111827">2,728</text>
<text x="220" y="209" text-anchor="middle" font-size="12" fill="#6b7280">extensions</text>
<rect x="400" y="101" width="14" height="14" fill="#34C759" rx="3"/>
<text x="420" y="112" font-size="13" font-weight="500" fill="#111827">macOS + Windows</text>
<text x="420" y="128" font-size="11" fill="#6b7280">546 (20.0%)</text>
<rect x="400" y="153" width="14" height="14" fill="#4F8EF7" rx="3"/>
<text x="420" y="164" font-size="13" font-weight="500" fill="#111827">macOS only</text>
<text x="420" y="180" font-size="11" fill="#6b7280">578 (21.2%)</text>
<rect x="400" y="205" width="14" height="14" fill="#FF6363" rx="3"/>
<text x="420" y="216" font-size="13" font-weight="500" fill="#111827">Windows only</text>
<text x="420" y="232" font-size="11" fill="#6b7280">21 (0.8%)</text>
<rect x="400" y="257" width="14" height="14" fill="#e5e7eb" rx="3"/>
<text x="420" y="268" font-size="13" font-weight="500" fill="#111827">No platform set</text>
<text x="420" y="284" font-size="11" fill="#6b7280">1,583 (58.0%)</text>
</svg>